<?xml version="1.0" encoding="UTF-8"?>
<!--Generator: Apple Native CoreSVG 326-->
<!DOCTYPE svg PUBLIC "-//W3C//DTD SVG 1.1//EN" "http://www.w3.org/Graphics/SVG/1.1/DTD/svg11.dtd">
<svg version="1.1" xmlns="http://www.w3.org/2000/svg" xmlns:xlink="http://www.w3.org/1999/xlink"
  viewBox="0 0 21.365 21.006">
  <g>
    <rect height="21.006" opacity="0" width="21.365" x="0" y="0" />
    <path
      d="M21.0037 10.4981C21.0037 16.2923 16.302 20.9962 10.4981 20.9962C4.70394 20.9962 0 16.2923 0 10.4981C0 4.70163 4.70394 0 10.4981 0C16.302 0 21.0037 4.70163 21.0037 10.4981ZM6.66737 10.4981C6.66737 13.2797 8.14538 15.0468 10.4683 15.0468C12.786 15.0468 14.3386 13.2797 14.3386 10.4981C14.3386 7.70908 12.786 5.94193 10.4683 5.94193C8.14538 5.94193 6.66737 7.70908 6.66737 10.4981ZM11.6295 10.4981C11.6295 12.1799 11.1696 12.89 10.4981 12.89C9.83411 12.89 9.37422 12.1799 9.37422 10.4981C9.37422 8.8163 9.83411 8.1062 10.4981 8.1062C11.1696 8.1062 11.6295 8.8163 11.6295 10.4981Z"
      fill="currentColor" fill-opacity="0.85" />
  </g>
</svg>