<?xml version="1.0" encoding="UTF-8"?>
<!--Generator: Apple Native CoreSVG 326-->
<!DOCTYPE svg PUBLIC "-//W3C//DTD SVG 1.1//EN" "http://www.w3.org/Graphics/SVG/1.1/DTD/svg11.dtd">
<svg version="1.1" xmlns="http://www.w3.org/2000/svg" xmlns:xlink="http://www.w3.org/1999/xlink"
       viewBox="0 0 21.365 21.006">
       <g>
              <rect height="21.006" opacity="0" width="21.365" x="0" y="0" />
              <path d="M10.4981 20.9962C16.302 20.9962 21.0037 16.2946 21.0037 10.4981C21.0037 4.70163 16.302 0 10.4981 0C4.70163 0 0 4.70163 0 10.4981C0 16.2946 4.70163 20.9962 10.4981 20.9962ZM10.4981 17.9484C6.37829 17.9484 3.04785 14.6179 3.04785 10.4981C3.04785 6.37829 6.37829 3.04785 10.4981 3.04785C14.6179 3.04785 17.9558 6.37829 17.9558 10.4981C17.9558 14.6179 14.6179 17.9484 10.4981 17.9484Z"
                     fill="currentColor" fill-opacity="0.85" />
              <path d="M7.54185 14.4023C9.44045 14.4023 10.0264 12.3565 10.0264 10.4981C10.0264 8.63967 9.44045 6.58646 7.54185 6.58646C5.6358 6.58646 5.05732 8.63967 5.05732 10.4981C5.05732 12.3565 5.6358 14.4023 7.54185 14.4023ZM7.54185 13.0014C7.0395 13.0014 6.84122 12.0458 6.84122 10.4981C6.84122 8.94064 7.0395 7.99247 7.54185 7.99247C8.03675 7.99247 8.23503 8.94064 8.23503 10.4981C8.23503 12.0458 8.03675 13.0014 7.54185 13.0014ZM13.4572 14.4023C15.3633 14.4023 15.9417 12.3565 15.9417 10.4981C15.9417 8.63967 15.3633 6.58646 13.4572 6.58646C11.5512 6.58646 10.9727 8.63967 10.9727 10.4981C10.9727 12.3565 11.5512 14.4023 13.4572 14.4023ZM13.4572 13.0014C12.9549 13.0014 12.7566 12.0458 12.7566 10.4981C12.7566 8.94064 12.9549 7.99247 13.4572 7.99247C13.9596 7.99247 14.1579 8.94064 14.1579 10.4981C14.1579 12.0458 13.9596 13.0014 13.4572 13.0014Z"
                     fill="currentColor" fill-opacity="0.85" />
       </g>
</svg>