<?xml version="1.0" encoding="UTF-8"?>
<!--Generator: Apple Native CoreSVG 326-->
<!DOCTYPE svg PUBLIC "-//W3C//DTD SVG 1.1//EN" "http://www.w3.org/Graphics/SVG/1.1/DTD/svg11.dtd">
<svg version="1.1" xmlns="http://www.w3.org/2000/svg" xmlns:xlink="http://www.w3.org/1999/xlink"
       viewBox="0 0 19.3993 19.0529">
       <g>
              <rect height="19.0529" opacity="0" width="19.3993" x="0" y="0" />
              <path d="M3.64834 19.0379L15.3896 19.0379C17.7164 19.0379 19.0379 17.7262 19.0379 15.4011L19.0379 3.63912C19.0379 1.32151 17.7164 0 15.3896 0L3.64834 0C1.32382 0 0 1.32151 0 3.63912L0 15.4011C0 17.7262 1.32382 19.0379 3.64834 19.0379ZM4.05583 16.0183C3.37024 16.0183 3.01964 15.7096 3.01964 14.9775L3.01964 4.07021C3.01964 3.33809 3.37024 3.0271 4.05583 3.0271L14.9821 3.0271C15.6654 3.0271 16.0183 3.33809 16.0183 4.07021L16.0183 14.9775C16.0183 15.7096 15.6654 16.0183 14.9821 16.0183Z"
                     fill="currentColor" fill-opacity="0.85" />
              <path d="M6.56244 13.4257C8.4685 13.4257 9.04697 11.38 9.04697 9.52155C9.04697 7.66311 8.4685 5.6099 6.56244 5.6099C4.66385 5.6099 4.07791 7.66311 4.07791 9.52155C4.07791 11.38 4.66385 13.4257 6.56244 13.4257ZM6.56244 12.0249C6.06755 12.0249 5.86926 11.0692 5.86926 9.52155C5.86926 7.96408 6.06755 7.01591 6.56244 7.01591C7.06479 7.01591 7.26308 7.96408 7.26308 9.52155C7.26308 11.0692 7.06479 12.0249 6.56244 12.0249ZM12.4853 13.4257C14.3936 13.4257 14.9698 11.38 14.9698 9.52155C14.9698 7.66311 14.3936 5.6099 12.4853 5.6099C10.5792 5.6099 10.0007 7.66311 10.0007 9.52155C10.0007 11.38 10.5792 13.4257 12.4853 13.4257ZM12.4853 12.0249C11.9829 12.0249 11.7846 11.0692 11.7846 9.52155C11.7846 7.96408 11.9829 7.01591 12.4853 7.01591C12.9876 7.01591 13.1784 7.96408 13.1784 9.52155C13.1784 11.0692 12.9876 12.0249 12.4853 12.0249Z"
                     fill="currentColor" fill-opacity="0.85" />
       </g>
</svg>