<?xml version="1.0" encoding="UTF-8"?>
<!--Generator: Apple Native CoreSVG 326-->
<!DOCTYPE svg PUBLIC "-//W3C//DTD SVG 1.1//EN" "http://www.w3.org/Graphics/SVG/1.1/DTD/svg11.dtd">
<svg version="1.1" xmlns="http://www.w3.org/2000/svg" xmlns:xlink="http://www.w3.org/1999/xlink"
       viewBox="0 0 21.365 21.006">
       <g>
              <rect height="21.006" opacity="0" width="21.365" x="0" y="0" />
              <path d="M10.4981 20.9962C16.302 20.9962 21.0037 16.2946 21.0037 10.4981C21.0037 4.70163 16.302 0 10.4981 0C4.70163 0 0 4.70163 0 10.4981C0 16.2946 4.70163 20.9962 10.4981 20.9962ZM10.4981 17.9484C6.37829 17.9484 3.04785 14.6179 3.04785 10.4981C3.04785 6.37829 6.37829 3.04785 10.4981 3.04785C14.6179 3.04785 17.9558 6.37829 17.9558 10.4981C17.9558 14.6179 14.6179 17.9484 10.4981 17.9484Z"
                     fill="currentColor" fill-opacity="0.85" />
              <path d="M7.75088 14.4023C9.65924 14.4023 10.2354 12.3565 10.2354 10.4981C10.2354 8.63967 9.65924 6.58646 7.75088 6.58646C5.85228 6.58646 5.26865 8.63967 5.26865 10.4981C5.26865 12.3565 5.85228 14.4023 7.75088 14.4023ZM7.75088 13.0014C7.25598 13.0014 7.0577 12.0458 7.0577 10.4981C7.0577 8.94064 7.25598 7.99247 7.75088 7.99247C8.25323 7.99247 8.45151 8.94064 8.45151 10.4981C8.45151 12.0458 8.25323 13.0014 7.75088 13.0014ZM11.8698 14.2047L14.9302 14.2047C15.4086 14.2047 15.5987 13.8831 15.5987 13.5189C15.5987 13.1478 15.4063 12.8308 14.9302 12.8308L13.1305 12.8308L13.1305 12.7527L14.2206 11.431C14.9957 10.4961 15.4821 9.79583 15.4821 8.79471C15.4821 7.41666 14.5314 6.60138 13.2136 6.60138C12.0233 6.60138 11.0537 7.48732 11.0537 8.51041C11.0537 8.95381 11.3133 9.28232 11.7739 9.28232C12.1335 9.28232 12.4183 9.10599 12.5481 8.67928C12.6567 8.27118 12.8188 7.95056 13.2062 7.95056C13.6503 7.95056 13.8182 8.36368 13.8182 8.84814C13.8182 9.53986 13.3534 10.2115 12.7985 10.9129L11.5097 12.5437C11.1847 12.9571 11.0588 13.2087 11.0588 13.5114C11.0588 13.9479 11.3408 14.2047 11.8698 14.2047Z"
                     fill="currentColor" fill-opacity="0.85" />
       </g>
</svg>