<?xml version="1.0" encoding="UTF-8"?>
<!--Generator: Apple Native CoreSVG 326-->
<!DOCTYPE svg PUBLIC "-//W3C//DTD SVG 1.1//EN" "http://www.w3.org/Graphics/SVG/1.1/DTD/svg11.dtd">
<svg version="1.1" xmlns="http://www.w3.org/2000/svg" xmlns:xlink="http://www.w3.org/1999/xlink"
       viewBox="0 0 21.365 21.006">
       <g>
              <rect height="21.006" opacity="0" width="21.365" x="0" y="0" />
              <path d="M21.0037 10.4981C21.0037 16.2923 16.302 20.9962 10.4981 20.9962C4.70394 20.9962 0 16.2923 0 10.4981C0 4.70163 4.70394 0 10.4981 0C16.302 0 21.0037 4.70163 21.0037 10.4981ZM4.93104 10.4981C4.93104 12.4846 5.54912 14.6635 7.58322 14.6635C9.60986 14.6635 10.2279 12.4846 10.2279 10.4981C10.2279 8.51162 9.60986 6.33268 7.58322 6.33268C5.54912 6.33268 4.93104 8.51162 4.93104 10.4981ZM11.0979 8.3749C11.0979 8.85275 11.3672 9.20365 11.8698 9.20365C12.254 9.20365 12.5561 9.01986 12.6934 8.561C12.8192 8.12591 12.9738 7.79552 13.4031 7.79552C13.8645 7.79552 14.0422 8.22587 14.0422 8.74479C14.0422 9.47326 13.5429 10.1966 12.9484 10.945L11.5883 12.674C11.2312 13.1098 11.103 13.3861 11.103 13.7084C11.103 14.177 11.4097 14.451 11.9657 14.451L15.238 14.451C15.741 14.451 15.9484 14.0973 15.9484 13.7233C15.9484 13.3103 15.7387 12.9761 15.238 12.9761L13.3177 12.9761L13.3177 12.898L14.4692 11.4901C15.3012 10.5013 15.8146 9.75162 15.8146 8.67643C15.8146 7.21455 14.8047 6.34014 13.4031 6.34014C12.129 6.34014 11.0979 7.28522 11.0979 8.3749ZM8.31316 10.4981C8.31316 12.1566 8.10511 13.1565 7.58322 13.1565C7.04642 13.1565 6.83837 12.1566 6.83837 10.4981C6.83837 8.83729 7.04642 7.83974 7.58322 7.83974C8.10511 7.83974 8.31316 8.83729 8.31316 10.4981Z"
                     fill="currentColor" fill-opacity="0.85" />
       </g>
</svg>