<?xml version="1.0" encoding="UTF-8"?>
<!--Generator: Apple Native CoreSVG 326-->
<!DOCTYPE svg PUBLIC "-//W3C//DTD SVG 1.1//EN" "http://www.w3.org/Graphics/SVG/1.1/DTD/svg11.dtd">
<svg version="1.1" xmlns="http://www.w3.org/2000/svg" xmlns:xlink="http://www.w3.org/1999/xlink"
       viewBox="0 0 21.365 21.0106">
       <g>
              <rect height="21.0106" opacity="0" width="21.365" x="0" y="0" />
              <path d="M21.0037 10.4981C21.0037 16.2923 16.302 20.9962 10.4981 20.9962C4.70394 20.9962 0 16.2923 0 10.4981C0 4.70163 4.70394 0 10.4981 0C16.302 0 21.0037 4.70163 21.0037 10.4981ZM4.80693 10.4981C4.80693 12.4846 5.43248 14.6635 7.45912 14.6635C9.48576 14.6635 10.1113 12.4846 10.1113 10.4981C10.1113 8.51162 9.48576 6.33268 7.45912 6.33268C5.43248 6.33268 4.80693 8.51162 4.80693 10.4981ZM11.2478 7.82397C11.1966 7.9969 11.1696 8.18244 11.1696 8.36338C11.1696 8.73271 11.3942 9.1083 11.9513 9.1083C12.3304 9.1083 12.6922 8.98134 12.8047 8.56264C12.8938 8.18329 13.1042 7.81966 13.5214 7.81966C13.9989 7.81966 14.1697 8.27525 14.1697 8.75279C14.1697 9.29124 13.9311 9.80596 13.3209 9.80596L13.2208 9.80596C12.7373 9.80596 12.5001 10.0581 12.5001 10.455C12.5001 10.8542 12.7321 11.1115 13.2208 11.1115L13.3307 11.1115C14.0185 11.1115 14.3305 11.4832 14.3305 12.1756C14.3305 12.6652 14.1087 13.1863 13.553 13.1863C13.1041 13.1863 12.8788 12.8771 12.7518 12.5226C12.6094 12.101 12.3274 11.8902 11.9059 11.8902C11.3884 11.8902 11.0651 12.1992 11.0651 12.704C11.0651 12.9045 11.0944 13.0952 11.1506 13.2612C11.4338 14.1689 12.4466 14.6492 13.5605 14.6492C15.0878 14.6492 16.169 13.7484 16.169 12.2893C16.169 11.2183 15.5685 10.521 14.704 10.4182L14.704 10.374C15.3735 10.197 15.9421 9.48115 15.9421 8.54432C15.9421 7.16275 14.9419 6.36428 13.5065 6.36428C12.4937 6.36428 11.5258 6.89799 11.2478 7.82397ZM8.18675 10.4981C8.18675 12.1566 7.9787 13.1565 7.45912 13.1565C6.92231 13.1565 6.71426 12.1566 6.71426 10.4981C6.71426 8.83729 6.92231 7.83743 7.45912 7.83743C7.9787 7.83743 8.18675 8.83729 8.18675 10.4981Z"
                     fill="currentColor" fill-opacity="0.85" />
       </g>
</svg>