<?xml version="1.0" encoding="UTF-8"?>
<!--Generator: Apple Native CoreSVG 326-->
<!DOCTYPE svg PUBLIC "-//W3C//DTD SVG 1.1//EN" "http://www.w3.org/Graphics/SVG/1.1/DTD/svg11.dtd">
<svg version="1.1" xmlns="http://www.w3.org/2000/svg" xmlns:xlink="http://www.w3.org/1999/xlink"
       viewBox="0 0 19.3993 19.0529">
       <g>
              <rect height="19.0529" opacity="0" width="19.3993" x="0" y="0" />
              <path d="M3.64834 19.0379L15.3896 19.0379C17.7164 19.0379 19.0379 17.7262 19.0379 15.4011L19.0379 3.63912C19.0379 1.32151 17.7164 0 15.3896 0L3.64834 0C1.32382 0 0 1.32151 0 3.63912L0 15.4011C0 17.7262 1.32382 19.0379 3.64834 19.0379ZM4.05583 16.0183C3.37024 16.0183 3.01964 15.7096 3.01964 14.9775L3.01964 4.07021C3.01964 3.33809 3.37024 3.0271 4.05583 3.0271L14.9821 3.0271C15.6654 3.0271 16.0183 3.33809 16.0183 4.07021L16.0183 14.9775C16.0183 15.7096 15.6654 16.0183 14.9821 16.0183Z"
                     fill="currentColor" fill-opacity="0.85" />
              <path d="M6.67205 13.4257C8.57064 13.4257 9.15658 11.38 9.15658 9.52155C9.15658 7.66311 8.57064 5.6099 6.67205 5.6099C4.76369 5.6099 4.18751 7.66311 4.18751 9.52155C4.18751 11.38 4.76369 13.4257 6.67205 13.4257ZM6.67205 12.0249C6.16969 12.0249 5.97141 11.0692 5.97141 9.52155C5.97141 7.96408 6.16969 7.01591 6.67205 7.01591C7.1744 7.01591 7.36522 7.96408 7.36522 9.52155C7.36522 11.0692 7.1744 12.0249 6.67205 12.0249ZM12.399 13.4114C13.8253 13.4114 14.8422 12.5698 14.8422 11.1944C14.8422 10.1924 14.2664 9.54447 13.461 9.44166L13.461 9.4049C14.1035 9.23768 14.6227 8.56603 14.6227 7.69349C14.6227 6.39806 13.6817 5.6415 12.345 5.6415C11.3914 5.6415 10.4901 6.14076 10.2316 7.01736C10.1805 7.17307 10.1535 7.34885 10.1535 7.52232C10.1535 7.85951 10.3608 8.21787 10.8835 8.21787C11.2402 8.21787 11.5675 8.09837 11.6801 7.69689C11.7692 7.34454 11.9623 7.00559 12.3599 7.00559C12.803 7.00559 12.9738 7.4365 12.9738 7.87959C12.9738 8.39104 12.7525 8.87131 12.1692 8.87131L12.0617 8.87131C11.6252 8.87131 11.3978 9.1137 11.3978 9.48072C11.3978 9.86268 11.6126 10.093 12.0617 10.093L12.179 10.093C12.8226 10.093 13.1249 10.4475 13.1249 11.0957C13.1249 11.5681 12.9128 12.0473 12.3915 12.0473C11.9622 12.0473 11.7467 11.7478 11.6346 11.418C11.502 11.0309 11.2372 10.8275 10.8403 10.8275C10.3625 10.8275 10.0564 11.1216 10.0564 11.592C10.0564 11.7827 10.0856 11.951 10.1345 12.1073C10.4028 12.9632 11.3443 13.4114 12.399 13.4114Z"
                     fill="currentColor" fill-opacity="0.85" />
       </g>
</svg>