<?xml version="1.0" encoding="UTF-8"?>
<!--Generator: Apple Native CoreSVG 326-->
<!DOCTYPE svg PUBLIC "-//W3C//DTD SVG 1.1//EN" "http://www.w3.org/Graphics/SVG/1.1/DTD/svg11.dtd">
<svg version="1.1" xmlns="http://www.w3.org/2000/svg" xmlns:xlink="http://www.w3.org/1999/xlink"
       viewBox="0 0 19.3993 19.0529">
       <g>
              <rect height="19.0529" opacity="0" width="19.3993" x="0" y="0" />
              <path d="M19.0379 3.63912L19.0379 15.4011C19.0379 17.7262 17.7164 19.0379 15.3896 19.0379L3.64834 19.0379C1.32382 19.0379 0 17.7262 0 15.4011L0 3.63912C0 1.32151 1.32382 0 3.64834 0L15.3896 0C17.7164 0 19.0379 1.32151 19.0379 3.63912ZM3.9222 9.52155C3.9222 11.508 4.54029 13.687 6.56693 13.687C8.60103 13.687 9.22142 11.508 9.22142 9.52155C9.22142 7.53506 8.60103 5.35611 6.56693 5.35611C4.54029 5.35611 3.9222 7.53506 3.9222 9.52155ZM10.3653 6.8474C10.3044 7.02033 10.2849 7.20588 10.2849 7.38682C10.2849 7.75615 10.5021 8.13173 11.0666 8.13173C11.4405 8.13173 11.8 8.00478 11.92 7.58607C12.0091 7.20673 12.2195 6.8431 12.6367 6.8431C13.1067 6.8431 13.2798 7.29868 13.2798 7.77623C13.2798 8.31467 13.0464 8.8294 12.4287 8.8294L12.3286 8.8294C11.8451 8.8294 11.6153 9.08155 11.6153 9.48072C11.6153 9.8799 11.8399 10.1349 12.3286 10.1349L12.4385 10.1349C13.1337 10.1349 13.4458 10.5067 13.4458 11.199C13.4458 11.6887 13.2239 12.2098 12.6608 12.2098C12.2119 12.2098 11.9866 11.9005 11.8597 11.546C11.7172 11.1244 11.445 10.9137 11.0137 10.9137C10.5037 10.9137 10.1729 11.2249 10.1729 11.7275C10.1729 11.928 10.2022 12.1187 10.2585 12.2847C10.5514 13.1923 11.5619 13.6726 12.6757 13.6726C14.2031 13.6726 15.2791 12.7719 15.2791 11.3127C15.2791 10.2418 14.6763 9.54447 13.8118 9.44166L13.8118 9.39744C14.491 9.22045 15.0522 8.50459 15.0522 7.56775C15.0522 6.18619 14.0497 5.38772 12.6143 5.38772C11.609 5.38772 10.6411 5.92143 10.3653 6.8474ZM7.30432 9.52155C7.30432 11.1801 7.09627 12.1799 6.56693 12.1799C6.03759 12.1799 5.82954 11.1801 5.82954 9.52155C5.82954 7.86072 6.03759 6.86317 6.56693 6.86317C7.09627 6.86317 7.30432 7.86072 7.30432 9.52155Z"
                     fill="currentColor" fill-opacity="0.85" />
       </g>
</svg>