<?xml version="1.0" encoding="UTF-8"?>
<!--Generator: Apple Native CoreSVG 326-->
<!DOCTYPE svg PUBLIC "-//W3C//DTD SVG 1.1//EN" "http://www.w3.org/Graphics/SVG/1.1/DTD/svg11.dtd">
<svg version="1.1" xmlns="http://www.w3.org/2000/svg" xmlns:xlink="http://www.w3.org/1999/xlink"
       viewBox="0 0 21.365 21.006">
       <g>
              <rect height="21.006" opacity="0" width="21.365" x="0" y="0" />
              <path d="M10.4981 20.9962C16.302 20.9962 21.0037 16.2946 21.0037 10.4981C21.0037 4.70163 16.302 0 10.4981 0C4.70163 0 0 4.70163 0 10.4981C0 16.2946 4.70163 20.9962 10.4981 20.9962ZM10.4981 17.9484C6.37829 17.9484 3.04785 14.6179 3.04785 10.4981C3.04785 6.37829 6.37829 3.04785 10.4981 3.04785C14.6179 3.04785 17.9558 6.37829 17.9558 10.4981C17.9558 14.6179 14.6179 17.9484 10.4981 17.9484Z"
                     fill="currentColor" fill-opacity="0.85" />
              <path d="M7.69283 14.4023C9.59888 14.4023 10.1774 12.3565 10.1774 10.4981C10.1774 8.63967 9.59888 6.58646 7.69283 6.58646C5.78677 6.58646 5.20829 8.63967 5.20829 10.4981C5.20829 12.3565 5.78677 14.4023 7.69283 14.4023ZM7.69283 13.0014C7.19047 13.0014 6.99219 12.0458 6.99219 10.4981C6.99219 8.94064 7.19047 7.99247 7.69283 7.99247C8.19518 7.99247 8.39346 8.94064 8.39346 10.4981C8.39346 12.0458 8.19518 13.0014 7.69283 13.0014ZM13.4221 14.4023C14.9231 14.4023 15.6861 13.1827 15.6861 11.677C15.6861 10.5233 15.243 9.26303 14.0429 9.26303C13.3921 9.26303 12.9991 9.65353 12.8422 10.0558L12.7956 10.0558L12.8997 8.17517L14.7842 8.17517C15.2282 8.17517 15.443 7.86618 15.443 7.49454C15.443 7.08275 15.196 6.799 14.7842 6.799L12.3076 6.799C11.7625 6.799 11.5057 7.16833 11.4764 7.72091L11.3776 10.0237C11.3753 10.103 11.3678 10.304 11.3678 10.3937C11.3678 10.914 11.6429 11.2535 12.1369 11.2535C12.4551 11.2535 12.6239 11.1684 12.7992 10.8898C12.9417 10.672 13.1112 10.4675 13.3699 10.4675C13.8589 10.4675 14.013 11.165 14.013 11.7235C14.013 12.2655 13.8939 13.0284 13.3802 13.0284C13.0273 13.0284 12.8342 12.7497 12.7181 12.4215C12.586 12.0419 12.3189 11.8581 11.9881 11.8581C11.5544 11.8581 11.2902 12.1275 11.2902 12.5634C11.2902 12.7358 11.3264 12.8984 11.377 13.0639C11.6442 13.825 12.4663 14.4023 13.4221 14.4023Z"
                     fill="currentColor" fill-opacity="0.85" />
       </g>
</svg>