<?xml version="1.0" encoding="UTF-8"?>
<!--Generator: Apple Native CoreSVG 326-->
<!DOCTYPE svg PUBLIC "-//W3C//DTD SVG 1.1//EN" "http://www.w3.org/Graphics/SVG/1.1/DTD/svg11.dtd">
<svg version="1.1" xmlns="http://www.w3.org/2000/svg" xmlns:xlink="http://www.w3.org/1999/xlink"
       viewBox="0 0 21.365 21.006">
       <g>
              <rect height="21.006" opacity="0" width="21.365" x="0" y="0" />
              <path d="M10.4981 20.9962C16.302 20.9962 21.0037 16.2946 21.0037 10.4981C21.0037 4.70163 16.302 0 10.4981 0C4.70163 0 0 4.70163 0 10.4981C0 16.2946 4.70163 20.9962 10.4981 20.9962ZM10.4981 17.9484C6.37829 17.9484 3.04785 14.6179 3.04785 10.4981C3.04785 6.37829 6.37829 3.04785 10.4981 3.04785C14.6179 3.04785 17.9558 6.37829 17.9558 10.4981C17.9558 14.6179 14.6179 17.9484 10.4981 17.9484Z"
                     fill="currentColor" fill-opacity="0.85" />
              <path d="M7.54404 14.4023C9.45009 14.4023 10.0286 12.3565 10.0286 10.4981C10.0286 8.63967 9.45009 6.58646 7.54404 6.58646C5.64314 6.58646 5.05951 8.63967 5.05951 10.4981C5.05951 12.3565 5.64314 14.4023 7.54404 14.4023ZM7.54404 13.0014C7.04915 13.0014 6.85086 12.0458 6.85086 10.4981C6.85086 8.94064 7.04915 7.99247 7.54404 7.99247C8.04639 7.99247 8.24468 8.94064 8.24468 10.4981C8.24468 12.0458 8.04639 13.0014 7.54404 13.0014ZM13.4835 14.4023C14.9478 14.4023 15.7326 13.1896 15.7326 11.7683C15.7326 10.5693 15.2373 9.40139 14.0601 9.40139C13.3213 9.40139 12.8576 9.93619 12.6876 10.6119L12.6709 10.6119C12.6709 10.4684 12.6709 10.3174 12.6709 10.1762C12.6709 8.94301 12.8724 7.97985 13.4439 7.97985C13.7342 7.97985 13.8779 8.20282 14.0164 8.46377C14.1979 8.8038 14.4133 8.94798 14.7705 8.94798C15.288 8.94798 15.4787 8.59478 15.4787 8.22029C15.4787 8.11287 15.4666 7.95838 15.4299 7.84635C15.1949 7.0065 14.405 6.60599 13.5105 6.60599C11.5683 6.60599 10.9972 8.60588 10.9972 10.5435C10.9972 12.2326 11.5333 14.4023 13.4835 14.4023ZM13.4565 13.0284C13.0375 13.0284 12.8415 12.4984 12.8415 11.8102C12.8415 11.157 13.0444 10.6673 13.4565 10.6673C13.8659 10.6673 14.0641 11.1789 14.0595 11.8493C14.0595 12.5249 13.8566 13.0284 13.4565 13.0284Z"
                     fill="currentColor" fill-opacity="0.85" />
       </g>
</svg>