<?xml version="1.0" encoding="UTF-8"?>
<!--Generator: Apple Native CoreSVG 326-->
<!DOCTYPE svg PUBLIC "-//W3C//DTD SVG 1.1//EN" "http://www.w3.org/Graphics/SVG/1.1/DTD/svg11.dtd">
<svg version="1.1" xmlns="http://www.w3.org/2000/svg" xmlns:xlink="http://www.w3.org/1999/xlink"
       viewBox="0 0 19.3993 19.0529">
       <g>
              <rect height="19.0529" opacity="0" width="19.3993" x="0" y="0" />
              <path d="M19.0379 3.63912L19.0379 15.4011C19.0379 17.7262 17.7164 19.0379 15.3896 19.0379L3.64834 19.0379C1.32382 19.0379 0 17.7262 0 15.4011L0 3.63912C0 1.32151 1.32382 0 3.64834 0L15.3896 0C17.7164 0 19.0379 1.32151 19.0379 3.63912ZM3.82224 9.52155C3.82224 11.508 4.44263 13.687 6.47443 13.687C8.49876 13.687 9.11915 11.508 9.11915 9.52155C9.11915 7.53506 8.49876 5.35611 6.47443 5.35611C4.44263 5.35611 3.82224 7.53506 3.82224 9.52155ZM10.1567 9.56698C10.1567 11.3668 10.7272 13.687 12.8078 13.687C14.3634 13.687 15.1976 12.3905 15.1976 10.8756C15.1976 9.60768 14.6701 8.35592 13.4217 8.35592C12.6336 8.35592 12.1526 8.92518 11.963 9.6428L11.9463 9.6428C11.9463 9.48436 11.9463 9.32593 11.9463 9.17726C11.9463 7.85508 12.1577 6.84079 12.7734 6.84079C13.0659 6.84079 13.2292 7.07353 13.3654 7.3517C13.5641 7.72388 13.7944 7.87552 14.1764 7.87552C14.7306 7.87552 14.9362 7.49764 14.9362 7.08354C14.9362 6.98358 14.9167 6.81186 14.8776 6.69237C14.6352 5.79338 13.7936 5.36818 12.8325 5.36818C10.7697 5.36818 10.1567 7.51104 10.1567 9.56698ZM13.416 10.9663C13.416 11.6838 13.1884 12.2144 12.7808 12.2144C12.3302 12.2144 12.1267 11.6551 12.1267 10.9198C12.1267 10.2224 12.3468 9.70564 12.7785 9.70564C13.2074 9.70564 13.4206 10.2465 13.416 10.9663ZM7.20436 9.52155C7.20436 11.1801 6.99631 12.1799 6.47443 12.1799C5.93762 12.1799 5.72957 11.1801 5.72957 9.52155C5.72957 7.86072 5.93762 6.86317 6.47443 6.86317C6.99631 6.86317 7.20436 7.86072 7.20436 9.52155Z"
                     fill="currentColor" fill-opacity="0.85" />
       </g>
</svg>