<?xml version="1.0" encoding="UTF-8"?>
<!--Generator: Apple Native CoreSVG 326-->
<!DOCTYPE svg PUBLIC "-//W3C//DTD SVG 1.1//EN" "http://www.w3.org/Graphics/SVG/1.1/DTD/svg11.dtd">
<svg version="1.1" xmlns="http://www.w3.org/2000/svg" xmlns:xlink="http://www.w3.org/1999/xlink"
       viewBox="0 0 21.365 21.1403">
       <g>
              <rect height="21.1403" opacity="0" width="21.365" x="0" y="0" />
              <path d="M21.0037 10.5056C21.0037 16.2997 16.302 21.0037 10.4981 21.0037C4.70394 21.0037 0 16.2997 0 10.5056C0 4.70163 4.70394 0 10.4981 0C16.302 0 21.0037 4.70163 21.0037 10.5056ZM5.18494 10.5056C5.18494 12.4921 5.80303 14.671 7.82967 14.671C9.86377 14.671 10.4842 12.4921 10.4842 10.5056C10.4842 8.51908 9.86377 6.34014 7.82967 6.34014C5.80303 6.34014 5.18494 8.51908 5.18494 10.5056ZM11.9007 6.56014C11.4321 6.56014 11.1679 6.89611 11.1679 7.29013C11.1679 7.72376 11.4545 8.03735 11.9007 8.03735L13.8992 8.03735L13.8992 8.14017L12.1128 13.1208C12.0249 13.3454 11.9807 13.5395 11.9807 13.7986C11.9807 14.1662 12.2013 14.5877 12.8313 14.5877C13.3292 14.5877 13.54 14.3965 13.6842 13.9881L15.6135 8.50435C15.7456 8.13962 15.814 7.85072 15.814 7.46822C15.814 6.9174 15.3878 6.56014 14.8491 6.56014ZM8.57452 10.5056C8.57452 12.1566 8.36647 13.1639 7.82967 13.1639C7.30778 13.1639 7.09973 12.1566 7.09973 10.5056C7.09973 8.84475 7.30778 7.8472 7.82967 7.8472C8.36647 7.8472 8.57452 8.84475 8.57452 10.5056Z"
                     fill="currentColor" fill-opacity="0.85" />
       </g>
</svg>