<?xml version="1.0" encoding="UTF-8"?>
<!--Generator: Apple Native CoreSVG 326-->
<!DOCTYPE svg PUBLIC "-//W3C//DTD SVG 1.1//EN" "http://www.w3.org/Graphics/SVG/1.1/DTD/svg11.dtd">
<svg version="1.1" xmlns="http://www.w3.org/2000/svg" xmlns:xlink="http://www.w3.org/1999/xlink"
       viewBox="0 0 19.3993 19.0529">
       <g>
              <rect height="19.0529" opacity="0" width="19.3993" x="0" y="0" />
              <path d="M19.0379 3.63912L19.0379 15.4011C19.0379 17.7262 17.7164 19.0379 15.3896 19.0379L3.64834 19.0379C1.32382 19.0379 0 17.7262 0 15.4011L0 3.63912C0 1.32151 1.32382 0 3.64834 0L15.3896 0C17.7164 0 19.0379 1.32151 19.0379 3.63912ZM4.29275 9.52155C4.29275 11.508 4.91314 13.687 6.94494 13.687C8.97158 13.687 9.59197 11.508 9.59197 9.52155C9.59197 7.53506 8.97158 5.35611 6.94494 5.35611C4.91314 5.35611 4.29275 7.53506 4.29275 9.52155ZM11.0108 5.57611C10.5474 5.57611 10.2831 5.91209 10.2831 6.30611C10.2831 6.73974 10.5623 7.05333 11.0108 7.05333L13.0093 7.05333L13.0093 7.1636L11.2206 12.1368C11.1328 12.3614 11.0885 12.5555 11.0885 12.8146C11.0885 13.1896 11.3091 13.6037 11.9391 13.6037C12.437 13.6037 12.6478 13.4124 12.792 13.0115L14.7288 7.52032C14.8609 7.16306 14.9218 6.86669 14.9218 6.48419C14.9218 5.93338 14.5031 5.57611 13.9569 5.57611ZM7.68233 9.52155C7.68233 11.1801 7.47428 12.1799 6.94494 12.1799C6.41559 12.1799 6.20754 11.1801 6.20754 9.52155C6.20754 7.86072 6.41559 6.86317 6.94494 6.86317C7.47428 6.86317 7.68233 7.86072 7.68233 9.52155Z"
                     fill="currentColor" fill-opacity="0.85" />
       </g>
</svg>