<?xml version="1.0" encoding="UTF-8"?>
<!--Generator: Apple Native CoreSVG 326-->
<!DOCTYPE svg PUBLIC "-//W3C//DTD SVG 1.1//EN" "http://www.w3.org/Graphics/SVG/1.1/DTD/svg11.dtd">
<svg version="1.1" xmlns="http://www.w3.org/2000/svg" xmlns:xlink="http://www.w3.org/1999/xlink"
       viewBox="0 0 19.3993 19.0529">
       <g>
              <rect height="19.0529" opacity="0" width="19.3993" x="0" y="0" />
              <path d="M3.64834 19.0379L15.3896 19.0379C17.7164 19.0379 19.0379 17.7262 19.0379 15.4011L19.0379 3.63912C19.0379 1.32151 17.7164 0 15.3896 0L3.64834 0C1.32382 0 0 1.32151 0 3.63912L0 15.4011C0 17.7262 1.32382 19.0379 3.64834 19.0379ZM4.05583 16.0183C3.37024 16.0183 3.01964 15.7096 3.01964 14.9775L3.01964 4.07021C3.01964 3.33809 3.37024 3.0271 4.05583 3.0271L14.9821 3.0271C15.6654 3.0271 16.0183 3.33809 16.0183 4.07021L16.0183 14.9775C16.0183 15.7096 15.6654 16.0183 14.9821 16.0183Z"
                     fill="currentColor" fill-opacity="0.85" />
              <path d="M7.02537 13.4257C8.92396 13.4257 9.5099 11.38 9.5099 9.52155C9.5099 7.66311 8.92396 5.6099 7.02537 5.6099C5.11931 5.6099 4.54084 7.66311 4.54084 9.52155C4.54084 11.38 5.11931 13.4257 7.02537 13.4257ZM7.02537 12.0249C6.52302 12.0249 6.32473 11.0692 6.32473 9.52155C6.32473 7.96408 6.52302 7.01591 7.02537 7.01591C7.52026 7.01591 7.71854 7.96408 7.71854 9.52155C7.71854 11.0692 7.52026 12.0249 7.02537 12.0249ZM11.7066 13.3574C12.1701 13.3574 12.366 13.1736 12.5004 12.7922L14.3189 7.63345C14.4412 7.30087 14.5021 7.02919 14.5021 6.67884C14.5021 6.15501 14.1081 5.82244 13.6038 5.82244L10.8375 5.82244C10.3987 5.82244 10.1517 6.13372 10.1517 6.51052C10.1517 6.9097 10.4136 7.1986 10.8375 7.1986L12.7205 7.1986L12.7205 7.30141L11.0301 11.9743C10.9496 12.1891 10.9054 12.3683 10.9054 12.6176C10.9054 12.9605 11.1185 13.3574 11.7066 13.3574Z"
                     fill="currentColor" fill-opacity="0.85" />
       </g>
</svg>