<?xml version="1.0" encoding="UTF-8"?>
<!--Generator: Apple Native CoreSVG 326-->
<!DOCTYPE svg PUBLIC "-//W3C//DTD SVG 1.1//EN" "http://www.w3.org/Graphics/SVG/1.1/DTD/svg11.dtd">
<svg version="1.1" xmlns="http://www.w3.org/2000/svg" xmlns:xlink="http://www.w3.org/1999/xlink"
       viewBox="0 0 19.3993 19.0529">
       <g>
              <rect height="19.0529" opacity="0" width="19.3993" x="0" y="0" />
              <path d="M3.64834 19.0379L15.3896 19.0379C17.7164 19.0379 19.0379 17.7262 19.0379 15.4011L19.0379 3.63912C19.0379 1.32151 17.7164 0 15.3896 0L3.64834 0C1.32382 0 0 1.32151 0 3.63912L0 15.4011C0 17.7262 1.32382 19.0379 3.64834 19.0379ZM4.05583 16.0183C3.37024 16.0183 3.01964 15.7096 3.01964 14.9775L3.01964 4.07021C3.01964 3.33809 3.37024 3.0271 4.05583 3.0271L14.9821 3.0271C15.6654 3.0271 16.0183 3.33809 16.0183 4.07021L16.0183 14.9775C16.0183 15.7096 15.6654 16.0183 14.9821 16.0183Z"
                     fill="currentColor" fill-opacity="0.85" />
              <path d="M6.59974 13.4257C8.5058 13.4257 9.08428 11.38 9.08428 9.52155C9.08428 7.66311 8.5058 5.6099 6.59974 5.6099C4.69369 5.6099 4.11521 7.66311 4.11521 9.52155C4.11521 11.38 4.69369 13.4257 6.59974 13.4257ZM6.59974 12.0249C6.09739 12.0249 5.89911 11.0692 5.89911 9.52155C5.89911 7.96408 6.09739 7.01591 6.59974 7.01591C7.1021 7.01591 7.30038 7.96408 7.30038 9.52155C7.30038 11.0692 7.1021 12.0249 6.59974 12.0249ZM12.4531 13.4188C13.8469 13.4188 14.9302 12.6311 14.9302 11.2335C14.9302 10.2959 14.3832 9.5244 13.5572 9.34862L13.5572 9.31186C14.2488 9.09932 14.7452 8.46455 14.7452 7.65619C14.7452 6.43373 13.7853 5.6415 12.4531 5.6415C11.2422 5.6415 10.1783 6.324 10.1783 7.65389C10.1783 8.56045 10.751 9.12401 11.3611 9.31186L11.3611 9.34862C10.5735 9.51178 9.97604 10.2833 9.97604 11.226C9.97604 12.5893 11.025 13.4188 12.4531 13.4188ZM12.4531 8.80295C12.0967 8.80295 11.8863 8.384 11.8863 7.83767C11.8863 7.27982 12.1013 6.87294 12.4531 6.87294C12.8342 6.87294 13.0325 7.27982 13.0325 7.83767C13.0325 8.4076 12.8296 8.80295 12.4531 8.80295ZM12.4531 12.1776C12.0461 12.1776 11.8214 11.7294 11.8214 11.0962C11.8214 10.4826 12.0484 10.0367 12.4531 10.0367C12.863 10.0367 13.0998 10.4734 13.0998 11.0962C13.0998 11.7294 12.8676 12.1776 12.4531 12.1776Z"
                     fill="currentColor" fill-opacity="0.85" />
       </g>
</svg>