<?xml version="1.0" encoding="UTF-8"?>
<!--Generator: Apple Native CoreSVG 326-->
<!DOCTYPE svg PUBLIC "-//W3C//DTD SVG 1.1//EN" "http://www.w3.org/Graphics/SVG/1.1/DTD/svg11.dtd">
<svg version="1.1" xmlns="http://www.w3.org/2000/svg" xmlns:xlink="http://www.w3.org/1999/xlink"
       viewBox="0 0 19.3993 19.0529">
       <g>
              <rect height="19.0529" opacity="0" width="19.3993" x="0" y="0" />
              <path d="M3.64834 19.0379L15.3896 19.0379C17.7164 19.0379 19.0379 17.7262 19.0379 15.4011L19.0379 3.63912C19.0379 1.32151 17.7164 0 15.3896 0L3.64834 0C1.32382 0 0 1.32151 0 3.63912L0 15.4011C0 17.7262 1.32382 19.0379 3.64834 19.0379ZM4.05583 16.0183C3.37024 16.0183 3.01964 15.7096 3.01964 14.9775L3.01964 4.07021C3.01964 3.33809 3.37024 3.0271 4.05583 3.0271L14.9821 3.0271C15.6654 3.0271 16.0183 3.33809 16.0183 4.07021L16.0183 14.9775C16.0183 15.7096 15.6654 16.0183 14.9821 16.0183Z"
                     fill="currentColor" fill-opacity="0.85" />
              <path d="M6.68072 13.4257C8.58678 13.4257 9.16525 11.38 9.16525 9.52155C9.16525 7.66311 8.58678 5.6099 6.68072 5.6099C4.77466 5.6099 4.19619 7.66311 4.19619 9.52155C4.19619 11.38 4.77466 13.4257 6.68072 13.4257ZM6.68072 12.0249C6.17837 12.0249 5.98008 11.0692 5.98008 9.52155C5.98008 7.96408 6.17837 7.01591 6.68072 7.01591C7.18307 7.01591 7.38136 7.96408 7.38136 9.52155C7.38136 11.0692 7.18307 12.0249 6.68072 12.0249ZM11.7949 10.6303C12.5434 10.6303 12.9974 10.0955 13.1698 9.41983L13.1939 9.41983C13.1939 9.56334 13.1939 9.71431 13.1939 9.85552C13.1939 11.0887 12.99 12.057 12.4111 12.057C12.1507 12.057 11.9995 11.9035 11.8386 11.5806C11.6697 11.2285 11.4394 11.0866 11.0868 11.0866C10.5722 11.0866 10.374 11.4346 10.374 11.8091C10.374 11.9189 10.3958 12.0733 10.4251 12.1905C10.6675 13.0252 11.4574 13.4309 12.3519 13.4309C14.2867 13.4309 14.8578 11.4305 14.8578 9.48819C14.8578 7.79916 14.324 5.62943 12.3715 5.62943C10.9169 5.62943 10.1322 6.84213 10.1322 8.26342C10.1322 9.46241 10.6252 10.6303 11.7949 10.6303ZM12.4059 9.37706C11.9966 9.37706 11.7932 8.87526 11.7932 8.19736C11.7932 7.52463 12.0058 7.01591 12.4059 7.01591C12.825 7.01591 13.0233 7.53209 13.0233 8.22721C13.0233 8.88963 12.8106 9.37706 12.4059 9.37706Z"
                     fill="currentColor" fill-opacity="0.85" />
       </g>
</svg>