<?xml version="1.0" encoding="UTF-8"?>
<!--Generator: Apple Native CoreSVG 326-->
<!DOCTYPE svg PUBLIC "-//W3C//DTD SVG 1.1//EN" "http://www.w3.org/Graphics/SVG/1.1/DTD/svg11.dtd">
<svg version="1.1" xmlns="http://www.w3.org/2000/svg" xmlns:xlink="http://www.w3.org/1999/xlink"
       viewBox="0 0 20.2864 20.0883">
       <g>
              <rect height="20.0883" opacity="0" width="20.2864" x="0" y="0" />
              <path d="M0 8.44951C0 13.1269 3.78706 16.9065 8.45697 16.9065C9.86522 16.9065 11.1792 16.5536 12.3242 15.9415L15.7785 19.3981C16.2419 19.8615 16.8706 20.0808 17.5188 20.0808C18.8916 20.0808 19.9251 19.0307 19.9251 17.6676C19.9251 17.0417 19.7035 16.4303 19.2298 15.9566L15.8272 12.5396C16.5197 11.3429 16.9139 9.94335 16.9139 8.44951C16.9139 3.7796 13.1269 0 8.45697 0C3.78706 0 0 3.7796 0 8.44951ZM3.19937 8.44951C3.19937 5.56301 5.55555 3.19937 8.44951 3.19937C11.3584 3.19937 13.7071 5.56301 13.7071 8.44951C13.7071 11.3435 11.3584 13.7071 8.44951 13.7071C5.55555 13.7071 3.19937 11.3435 3.19937 8.44951ZM8.9142 11.6123C9.39666 11.6123 9.75447 11.347 9.75447 10.7905L9.75447 6.29398C9.75447 5.74547 9.3622 5.38074 8.77924 5.38074C8.38522 5.38074 8.1153 5.46633 7.69713 5.75238L6.58252 6.51367C6.29646 6.71184 6.19596 6.89047 6.19596 7.15699C6.19596 7.48727 6.44986 7.74402 6.78068 7.74402C6.95877 7.74402 7.04666 7.71527 7.24998 7.56824L8.00041 7.04878L8.06131 7.04878L8.06131 10.7525C8.06131 11.3188 8.41682 11.6123 8.9142 11.6123Z"
                     fill="currentColor" fill-opacity="0.85" />
       </g>
</svg>