<?xml version="1.0" encoding="UTF-8"?>
<!--Generator: Apple Native CoreSVG 326-->
<!DOCTYPE svg PUBLIC "-//W3C//DTD SVG 1.1//EN" "http://www.w3.org/Graphics/SVG/1.1/DTD/svg11.dtd">
<svg version="1.1" xmlns="http://www.w3.org/2000/svg" xmlns:xlink="http://www.w3.org/1999/xlink"
       viewBox="0 0 19.3993 19.0529">
       <g>
              <rect height="19.0529" opacity="0" width="19.3993" x="0" y="0" />
              <path d="M3.64834 19.0379L15.3896 19.0379C17.7164 19.0379 19.0379 17.7262 19.0379 15.4011L19.0379 3.63912C19.0379 1.32151 17.7164 0 15.3896 0L3.64834 0C1.32382 0 0 1.32151 0 3.63912L0 15.4011C0 17.7262 1.32382 19.0379 3.64834 19.0379ZM4.05583 16.0183C3.37024 16.0183 3.01964 15.7096 3.01964 14.9775L3.01964 4.07021C3.01964 3.33809 3.37024 3.0271 4.05583 3.0271L14.9821 3.0271C15.6654 3.0271 16.0183 3.33809 16.0183 4.07021L16.0183 14.9775C16.0183 15.7096 15.6654 16.0183 14.9821 16.0183Z"
                     fill="currentColor" fill-opacity="0.85" />
              <path d="M10.1958 14.0282C11.0445 14.0282 11.6284 13.5619 11.6284 12.5375L11.6284 6.50555C11.6284 5.61833 10.9601 5.01486 9.9926 5.01486C9.37761 5.01486 8.89242 5.17967 8.25614 5.5897L6.77437 6.56475C6.36555 6.82314 6.17321 7.12114 6.17321 7.55926C6.17321 8.1082 6.56656 8.53316 7.10289 8.53316C7.34636 8.53316 7.49108 8.50386 7.81268 8.29023L8.67703 7.71382L8.76777 7.71382L8.76777 12.5375C8.76777 13.5619 9.33448 14.0282 10.1958 14.0282Z"
                     fill="currentColor" fill-opacity="0.85" />
       </g>
</svg>