<?xml version="1.0" encoding="UTF-8"?>
<!--Generator: Apple Native CoreSVG 326-->
<!DOCTYPE svg PUBLIC "-//W3C//DTD SVG 1.1//EN" "http://www.w3.org/Graphics/SVG/1.1/DTD/svg11.dtd">
<svg version="1.1" xmlns="http://www.w3.org/2000/svg" xmlns:xlink="http://www.w3.org/1999/xlink"
       viewBox="0 0 21.365 24.1601">
       <g>
              <rect height="24.1601" opacity="0" width="21.365" x="0" y="0" />
              <path d="M10.4981 22.5733C16.302 22.5733 21.0037 17.8642 21.0037 12.0752C21.0037 9.28511 19.8503 6.50409 17.7411 4.53101C16.9682 3.76626 16.0087 3.82376 15.4363 4.4382C14.7967 5.13933 15.0058 6.03849 15.6449 6.73665C17.1034 8.15388 17.9558 9.95596 17.9558 12.0752C17.9558 16.195 14.6179 19.5254 10.4981 19.5254C6.37829 19.5254 3.04785 16.195 3.04785 12.0752C3.04785 8.78179 5.16529 6.01763 8.10601 5.02627L8.10601 5.8655C8.10601 6.67823 8.86804 6.86894 9.43499 6.43816L12.7367 3.91492C13.1314 3.60988 13.1337 3.05907 12.7367 2.75918L9.43729 0.22849C8.86804-0.212055 8.10601-0.0138912 8.10601 0.808605L8.10601 1.85959C3.46856 2.92787 0 7.10513 0 12.0752C0 17.8642 4.70163 22.5733 10.4981 22.5733Z"
                     fill="currentColor" fill-opacity="0.85" />
              <path d="M7.99514 15.8352C8.57404 15.8352 8.92493 15.428 8.92493 14.8589L8.92493 9.50019C8.92493 8.8277 8.49537 8.45497 7.83033 8.45497C7.30542 8.45497 6.92522 8.68297 6.50312 8.99196L5.7428 9.55114C5.49526 9.72517 5.34823 9.95087 5.34823 10.2449C5.34823 10.6102 5.60553 10.8922 5.97596 10.8922C6.15975 10.8922 6.26486 10.8382 6.40959 10.7279L7.02573 10.2664L7.06764 10.2664L7.06764 14.8589C7.06764 15.4354 7.41854 15.8352 7.99514 15.8352ZM12.8969 15.9087C14.8357 15.9087 15.5767 14.1002 15.5767 12.1316C15.5767 10.1704 14.8357 8.37915 12.8969 8.37915C10.9335 8.37915 10.2023 10.1877 10.2023 12.1316C10.2023 14.0876 10.9605 15.9087 12.8969 15.9087ZM12.8969 14.4545C12.355 14.4545 12.0866 13.6115 12.0866 12.1316C12.0866 10.6689 12.355 9.83562 12.8969 9.83562C13.4263 9.83562 13.7073 10.6712 13.7073 12.1316C13.7073 13.6115 13.4263 14.4545 12.8969 14.4545Z"
                     fill="currentColor" fill-opacity="0.85" />
       </g>
</svg>