<?xml version="1.0" encoding="UTF-8"?>
<!--Generator: Apple Native CoreSVG 326-->
<!DOCTYPE svg PUBLIC "-//W3C//DTD SVG 1.1//EN" "http://www.w3.org/Graphics/SVG/1.1/DTD/svg11.dtd">
<svg version="1.1" xmlns="http://www.w3.org/2000/svg" xmlns:xlink="http://www.w3.org/1999/xlink"
       viewBox="0 0 21.365 21.006">
       <g>
              <rect height="21.006" opacity="0" width="21.365" x="0" y="0" />
              <path d="M10.4981 20.9962C16.302 20.9962 21.0037 16.2946 21.0037 10.4981C21.0037 4.70163 16.302 0 10.4981 0C4.70163 0 0 4.70163 0 10.4981C0 16.2946 4.70163 20.9962 10.4981 20.9962ZM10.4981 17.9484C6.37829 17.9484 3.04785 14.6179 3.04785 10.4981C3.04785 6.37829 6.37829 3.04785 10.4981 3.04785C14.6179 3.04785 17.9558 6.37829 17.9558 10.4981C17.9558 14.6179 14.6179 17.9484 10.4981 17.9484Z"
                     fill="currentColor" fill-opacity="0.85" />
              <path d="M8.08181 14.3196C8.57458 14.3196 8.97146 13.9227 8.97146 13.4276L8.97146 7.67196C8.97146 7.0247 8.57689 6.67205 7.93709 6.67205C7.45233 6.67205 7.11283 6.87427 6.78893 7.1172L5.97584 7.74584C5.72029 7.94225 5.59103 8.15763 5.59103 8.44138C5.59103 8.87841 5.8931 9.07087 6.17861 9.07087C6.34978 9.07087 6.46982 9.02204 6.61224 8.91638L7.18987 8.46231L7.18987 13.4276C7.18987 13.9227 7.58674 14.3196 8.08181 14.3196ZM12.7625 14.4023C14.6686 14.4023 15.2471 12.3565 15.2471 10.4981C15.2471 8.63967 14.6686 6.58646 12.7625 6.58646C10.8565 6.58646 10.278 8.63967 10.278 10.4981C10.278 12.3565 10.8565 14.4023 12.7625 14.4023ZM12.7625 13.0014C12.2602 13.0014 12.0619 12.0458 12.0619 10.4981C12.0619 8.94064 12.2602 7.99247 12.7625 7.99247C13.2649 7.99247 13.4632 8.94064 13.4632 10.4981C13.4632 12.0458 13.2649 13.0014 12.7625 13.0014Z"
                     fill="currentColor" fill-opacity="0.85" />
       </g>
</svg>