<?xml version="1.0" encoding="UTF-8"?>
<!--Generator: Apple Native CoreSVG 326-->
<!DOCTYPE svg PUBLIC "-//W3C//DTD SVG 1.1//EN" "http://www.w3.org/Graphics/SVG/1.1/DTD/svg11.dtd">
<svg version="1.1" xmlns="http://www.w3.org/2000/svg" xmlns:xlink="http://www.w3.org/1999/xlink"
       viewBox="0 0 19.3993 16.9895">
       <g>
              <rect height="16.9895" opacity="0" width="19.3993" x="0" y="0" />
              <path d="M0 15.4822C0 16.3148 0.679834 16.9895 1.5124 16.9895C2.33981 16.9895 3.01964 16.3148 3.01964 15.4822L3.01964 1.69607C3.01964 0.863501 2.33981 0.183667 1.5124 0.183667C0.679834 0.183667 0 0.863501 0 1.69607ZM16.0183 15.4822C16.0183 16.3148 16.7004 16.9895 17.5255 16.9895C18.3581 16.9895 19.0379 16.3148 19.0379 15.4822L19.0379 1.69607C19.0379 0.863501 18.3581 0.183667 17.5255 0.183667C16.7004 0.183667 16.0183 0.863501 16.0183 1.69607Z"
                     fill="currentColor" fill-opacity="0.85" />
              <path d="M6.97885 12.3201C7.56236 12.3201 7.91786 11.9106 7.91786 11.3271L7.91786 5.86593C7.91786 5.18652 7.48369 4.80172 6.80197 4.80172C6.27244 4.80172 5.88995 5.03203 5.46093 5.34332L4.67701 5.92149C4.43693 6.10012 4.2876 6.32582 4.2876 6.62449C4.2876 7.00184 4.5472 7.28613 4.91478 7.28613C5.10603 7.28613 5.20599 7.22469 5.36048 7.11441L5.99045 6.64136L6.03983 6.64136L6.03983 11.3271C6.03983 11.9106 6.39533 12.3201 6.97885 12.3201ZM11.9647 12.3908C13.9311 12.3908 14.6911 10.5448 14.6911 8.54626C14.6911 6.55231 13.9386 4.73336 11.9647 4.73336C9.96846 4.73336 9.22573 6.577 9.22573 8.54856C9.22573 10.5397 9.99315 12.3908 11.9647 12.3908ZM11.9647 10.9205C11.4112 10.9205 11.1284 10.059 11.1284 8.54856C11.1284 7.05539 11.4112 6.20366 11.9647 6.20366C12.5056 6.20366 12.7935 7.0577 12.7935 8.54856C12.7935 10.059 12.5056 10.9205 11.9647 10.9205Z"
                     fill="currentColor" fill-opacity="0.85" />
       </g>
</svg>