<?xml version="1.0" encoding="UTF-8"?>
<!--Generator: Apple Native CoreSVG 326-->
<!DOCTYPE svg PUBLIC "-//W3C//DTD SVG 1.1//EN" "http://www.w3.org/Graphics/SVG/1.1/DTD/svg11.dtd">
<svg version="1.1" xmlns="http://www.w3.org/2000/svg" xmlns:xlink="http://www.w3.org/1999/xlink"
       viewBox="0 0 19.3993 19.0529">
       <g>
              <rect height="19.0529" opacity="0" width="19.3993" x="0" y="0" />
              <path d="M19.0379 3.63912L19.0379 15.4011C19.0379 17.7262 17.7164 19.0379 15.3896 19.0379L3.64834 19.0379C1.32382 19.0379 0 17.7262 0 15.4011L0 3.63912C0 1.32151 1.32382 0 3.64834 0L15.3896 0C17.7164 0 19.0379 1.32151 19.0379 3.63912ZM9.38064 9.52155C9.38064 11.508 10.001 13.687 12.0328 13.687C14.0646 13.687 14.6776 11.508 14.6776 9.52155C14.6776 7.53506 14.0646 5.35611 12.0328 5.35611C10.001 5.35611 9.38064 7.53506 9.38064 9.52155ZM5.65503 5.92646L4.79025 6.5844C4.52494 6.79572 4.38822 7.02088 4.38822 7.32932C4.38822 7.79103 4.70521 8.00818 5.01541 8.00818C5.19635 8.00818 5.32384 7.95189 5.47603 7.829L6.08811 7.3554L6.08811 12.6382C6.08811 13.1752 6.50967 13.5968 7.0392 13.5968C7.57388 13.5968 7.99775 13.1752 7.99775 12.6382L7.99775 6.51568C7.99775 5.81904 7.57619 5.44916 6.88701 5.44916C6.3678 5.44916 6.00362 5.66115 5.65503 5.92646ZM12.7702 9.52155C12.7702 11.1801 12.5622 12.1799 12.0328 12.1799C11.5035 12.1799 11.2954 11.1801 11.2954 9.52155C11.2954 7.86072 11.5035 6.86317 12.0328 6.86317C12.5622 6.86317 12.7702 7.86072 12.7702 9.52155Z"
                     fill="currentColor" fill-opacity="0.85" />
       </g>
</svg>