<?xml version="1.0" encoding="UTF-8"?>
<!--Generator: Apple Native CoreSVG 326-->
<!DOCTYPE svg PUBLIC "-//W3C//DTD SVG 1.1//EN" "http://www.w3.org/Graphics/SVG/1.1/DTD/svg11.dtd">
<svg version="1.1" xmlns="http://www.w3.org/2000/svg" xmlns:xlink="http://www.w3.org/1999/xlink"
       viewBox="0 0 19.3993 19.0529">
       <g>
              <rect height="19.0529" opacity="0" width="19.3993" x="0" y="0" />
              <path d="M19.0379 3.63912L19.0379 15.4011C19.0379 17.7262 17.7164 19.0379 15.3896 19.0379L3.64834 19.0379C1.32382 19.0379 0 17.7262 0 15.4011L0 3.63912C0 1.32151 1.32382 0 3.64834 0L15.3896 0C17.7164 0 19.0379 1.32151 19.0379 3.63912ZM5.75608 5.92877L4.88385 6.5844C4.60877 6.79572 4.47721 7.02088 4.47721 7.32932C4.47721 7.79103 4.7965 8.00818 5.1067 8.00818C5.29509 8.00818 5.41513 7.95189 5.57478 7.84623L6.18686 7.3554L6.18686 12.6405C6.18686 13.1752 6.60096 13.6042 7.13795 13.6042C7.66517 13.6042 8.08673 13.1752 8.08673 12.6405L8.08673 6.51568C8.08673 5.81904 7.66747 5.44916 6.97599 5.44916C6.45908 5.44916 6.0949 5.66115 5.75608 5.92877ZM9.34619 7.41326C9.34619 7.88365 9.63049 8.22939 10.1233 8.22939C10.5024 8.22939 10.8119 8.0433 10.9417 7.5919C11.0675 7.15681 11.2371 6.81896 11.6514 6.81896C12.1128 6.81896 12.2905 7.24931 12.2905 7.76822C12.2905 8.4967 11.7912 9.22002 11.2117 9.97077L9.83666 11.6975C9.49443 12.143 9.35135 12.4119 9.35135 12.7318C9.35135 13.2005 9.65802 13.4744 10.2312 13.4744L13.4886 13.4744C13.9894 13.4744 14.1967 13.1207 14.1967 12.7467C14.1967 12.3412 13.987 12.0018 13.4886 12.0018L11.566 12.0018L11.566 11.9214L12.7324 10.5136C13.5518 9.5247 14.0703 8.77505 14.0703 7.70732C14.0703 6.23799 13.0605 5.36357 11.6514 5.36357C10.3773 5.36357 9.34619 6.30866 9.34619 7.41326Z"
                     fill="currentColor" fill-opacity="0.85" />
       </g>
</svg>