<?xml version="1.0" encoding="UTF-8"?>
<!--Generator: Apple Native CoreSVG 326-->
<!DOCTYPE svg PUBLIC "-//W3C//DTD SVG 1.1//EN" "http://www.w3.org/Graphics/SVG/1.1/DTD/svg11.dtd">
<svg version="1.1" xmlns="http://www.w3.org/2000/svg" xmlns:xlink="http://www.w3.org/1999/xlink"
       viewBox="0 0 21.365 21.006">
       <g>
              <rect height="21.006" opacity="0" width="21.365" x="0" y="0" />
              <path d="M21.0037 10.4981C21.0037 16.2923 16.302 20.9962 10.4981 20.9962C4.70394 20.9962 0 16.2923 0 10.4981C0 4.70163 4.70394 0 10.4981 0C16.302 0 21.0037 4.70163 21.0037 10.4981ZM11.3614 8.17304L10.3054 10.8632C10.1445 11.2762 10.0636 11.6742 10.0636 12.0389C10.0636 12.7062 10.4427 13.0756 11.1399 13.0756L12.8585 13.0756L12.8585 13.6785C12.8585 14.3178 13.2767 14.5854 13.7533 14.5854C14.2484 14.5854 14.6407 14.3212 14.6407 13.6785L14.6407 13.0756L14.7856 13.0756C15.3255 13.0756 15.4961 12.7172 15.4961 12.3306C15.4961 11.8741 15.283 11.5903 14.8006 11.5903L14.6407 11.5903L14.6407 7.80298C14.6407 6.9208 14.0698 6.43318 13.2066 6.43318C12.0461 6.43318 11.6916 7.26454 11.3614 8.17304ZM6.40577 6.90302L5.5433 7.56096C5.26822 7.77229 5.13666 7.99744 5.13666 8.30588C5.13666 8.76759 5.45595 8.97728 5.76615 8.97728C5.94709 8.97728 6.07458 8.92845 6.23423 8.80556L6.83885 8.33196L6.83885 13.6148C6.83885 14.1518 7.26041 14.5733 7.7974 14.5733C8.32462 14.5733 8.74618 14.1518 8.74618 13.6148L8.74618 7.49224C8.74618 6.7956 8.32693 6.42572 7.63545 6.42572C7.11107 6.42572 6.75436 6.63772 6.40577 6.90302ZM12.9102 11.642L11.6045 11.642L11.6045 11.5737L12.8712 7.90415L12.9102 7.90415Z"
                     fill="currentColor" fill-opacity="0.85" />
       </g>
</svg>