<?xml version="1.0" encoding="UTF-8"?>
<!--Generator: Apple Native CoreSVG 326-->
<!DOCTYPE svg PUBLIC "-//W3C//DTD SVG 1.1//EN" "http://www.w3.org/Graphics/SVG/1.1/DTD/svg11.dtd">
<svg version="1.1" xmlns="http://www.w3.org/2000/svg" xmlns:xlink="http://www.w3.org/1999/xlink"
       viewBox="0 0 19.3993 19.0529">
       <g>
              <rect height="19.0529" opacity="0" width="19.3993" x="0" y="0" />
              <path d="M19.0379 3.63912L19.0379 15.4011C19.0379 17.7262 17.7164 19.0379 15.3896 19.0379L3.64834 19.0379C1.32382 19.0379 0 17.7262 0 15.4011L0 3.63912C0 1.32151 1.32382 0 3.64834 0L15.3896 0C17.7164 0 19.0379 1.32151 19.0379 3.63912ZM10.4715 7.19648L9.41322 9.88663C9.25236 10.2996 9.17884 10.6976 9.17884 11.0623C9.17884 11.7297 9.55048 12.099 10.2551 12.099L11.9663 12.099L11.9663 12.702C11.9663 13.3412 12.3845 13.6089 12.8709 13.6089C13.3637 13.6089 13.7583 13.3446 13.7583 12.702L13.7583 12.099L13.9009 12.099C14.4408 12.099 14.6114 11.7406 14.6114 11.3541C14.6114 10.8975 14.3908 10.6138 13.9084 10.6138L13.7583 10.6138L13.7583 6.82642C13.7583 5.94423 13.1851 5.45662 12.3144 5.45662C11.1613 5.45662 10.8069 6.28797 10.4715 7.19648ZM5.52334 5.92646L4.65857 6.5844C4.38349 6.79572 4.24447 7.02088 4.24447 7.32932C4.24447 7.79103 4.56376 8.00072 4.88142 8.00072C5.06236 8.00072 5.18986 7.95189 5.34204 7.829L5.95412 7.3554L5.95412 12.6382C5.95412 13.1752 6.36822 13.5968 6.90751 13.5968C7.43243 13.5968 7.86145 13.1752 7.86145 12.6382L7.86145 6.51568C7.86145 5.81904 7.43474 5.44916 6.75072 5.44916C6.22635 5.44916 5.86217 5.66115 5.52334 5.92646ZM12.0255 10.6655L10.7123 10.6655L10.7123 10.5971L11.9864 6.92759L12.0255 6.92759Z"
                     fill="currentColor" fill-opacity="0.85" />
       </g>
</svg>