<?xml version="1.0" encoding="UTF-8"?>
<!--Generator: Apple Native CoreSVG 326-->
<!DOCTYPE svg PUBLIC "-//W3C//DTD SVG 1.1//EN" "http://www.w3.org/Graphics/SVG/1.1/DTD/svg11.dtd">
<svg version="1.1" xmlns="http://www.w3.org/2000/svg" xmlns:xlink="http://www.w3.org/1999/xlink"
       viewBox="0 0 19.3993 19.0529">
       <g>
              <rect height="19.0529" opacity="0" width="19.3993" x="0" y="0" />
              <path d="M3.64834 19.0379L15.3896 19.0379C17.7164 19.0379 19.0379 17.7262 19.0379 15.4011L19.0379 3.63912C19.0379 1.32151 17.7164 0 15.3896 0L3.64834 0C1.32382 0 0 1.32151 0 3.63912L0 15.4011C0 17.7262 1.32382 19.0379 3.64834 19.0379ZM4.05583 16.0183C3.37024 16.0183 3.01964 15.7096 3.01964 14.9775L3.01964 4.07021C3.01964 3.33809 3.37024 3.0271 4.05583 3.0271L14.9821 3.0271C15.6654 3.0271 16.0183 3.33809 16.0183 4.07021L16.0183 14.9775C16.0183 15.7096 15.6654 16.0183 14.9821 16.0183Z"
                     fill="currentColor" fill-opacity="0.85" />
              <path d="M6.97818 13.343C7.47095 13.343 7.86782 12.9461 7.86782 12.4511L7.86782 6.6954C7.86782 6.04814 7.47325 5.69548 6.83115 5.69548C6.34638 5.69548 6.00689 5.89771 5.67783 6.14064L4.86474 6.76928C4.61435 6.96568 4.48509 7.18107 4.48509 7.46482C4.48509 7.90185 4.7797 8.09431 5.07267 8.09431C5.24384 8.09431 5.36388 8.04548 5.5063 7.93982L6.08393 7.48575L6.08393 12.4511C6.08393 12.9461 6.4808 13.343 6.97818 13.343ZM12.5621 13.3625C13.0278 13.3625 13.3977 13.1081 13.3977 12.505L13.3977 11.9314L13.5306 11.9314C14.0383 11.9314 14.1992 11.6051 14.1992 11.2358C14.1992 10.8114 13.9884 10.5523 13.5381 10.5523L13.3977 10.5523L13.3977 6.98145C13.3977 6.16587 12.859 5.71041 12.0526 5.71041C10.9736 5.71041 10.6364 6.47977 10.3257 7.33144L9.32369 9.8671C9.18005 10.2554 9.09908 10.6212 9.09908 10.9687C9.09908 11.5942 9.45349 11.9314 10.1088 11.9314L11.7218 11.9314L11.7218 12.505C11.7218 13.1047 12.1153 13.3625 12.5621 13.3625ZM11.7735 10.604L10.539 10.604L10.539 10.5282L11.7419 7.09009L11.7735 7.09009Z"
                     fill="currentColor" fill-opacity="0.85" />
       </g>
</svg>