<?xml version="1.0" encoding="UTF-8"?>
<!--Generator: Apple Native CoreSVG 326-->
<!DOCTYPE svg PUBLIC "-//W3C//DTD SVG 1.1//EN" "http://www.w3.org/Graphics/SVG/1.1/DTD/svg11.dtd">
<svg version="1.1" xmlns="http://www.w3.org/2000/svg" xmlns:xlink="http://www.w3.org/1999/xlink"
       viewBox="0 0 21.365 24.1601">
       <g>
              <rect height="24.1601" opacity="0" width="21.365" x="0" y="0" />
              <path d="M10.4981 22.5733C16.302 22.5733 21.0037 17.8642 21.0037 12.0752C21.0037 7.10513 17.5277 2.92787 12.8902 1.85959L12.8902 0.808605C12.8902-0.0138912 12.1356-0.212055 11.5664 0.22849L8.26694 2.75918C7.86248 3.05907 7.86479 3.60988 8.26694 3.91492L11.5687 6.43816C12.1356 6.86894 12.8902 6.67823 12.8902 5.8655L12.8902 5.02627C15.8384 6.01763 17.9558 8.78179 17.9558 12.0752C17.9558 16.195 14.6179 19.5254 10.4981 19.5254C6.37829 19.5254 3.04785 16.195 3.04785 12.0752C3.04785 9.95596 3.89279 8.15388 5.35132 6.73665C5.99045 6.03849 6.20694 5.13933 5.55992 4.4382C4.9875 3.82376 4.02799 3.76626 3.25511 4.53101C1.14591 6.50409 0 9.28511 0 12.0752C0 17.8642 4.70163 22.5733 10.4981 22.5733Z"
                     fill="currentColor" fill-opacity="0.85" />
              <path d="M7.91307 15.8352C8.48451 15.8352 8.83541 15.428 8.83541 14.8589L8.83541 9.50019C8.83541 8.8277 8.40584 8.45497 7.74081 8.45497C7.21589 8.45497 6.8357 8.68297 6.41359 8.99196L5.65327 9.55114C5.41319 9.72517 5.26616 9.95087 5.26616 10.2449C5.26616 10.6102 5.516 10.8922 5.88643 10.8922C6.07022 10.8922 6.17533 10.8382 6.32006 10.7279L6.9362 10.2664L6.98558 10.2664L6.98558 14.8589C6.98558 15.4354 7.33647 15.8352 7.91307 15.8352ZM12.6954 15.9087C14.2412 15.9087 15.1959 14.8304 15.1959 13.2697C15.1959 12.0208 14.5456 10.9425 13.3363 10.9425C12.744 10.9425 12.2195 11.2154 11.9931 11.7433L11.954 11.7433L12.0627 10.0091L14.1999 10.0091C14.6416 10.0091 14.9012 9.71219 14.9012 9.28317C14.9012 8.85415 14.6364 8.57962 14.1999 8.57962L11.4649 8.57962C10.875 8.57962 10.5884 8.90297 10.5591 9.49516L10.4264 11.9639C10.4045 12.4705 10.6739 12.9196 11.2603 12.9196C11.5877 12.9196 11.7841 12.83 11.9869 12.5807C12.1541 12.3652 12.3593 12.1848 12.6529 12.1848C13.2379 12.1848 13.4397 12.7737 13.4397 13.3162C13.4397 13.9374 13.1839 14.4815 12.6655 14.4815C12.2661 14.4815 12.0247 14.2424 11.8592 13.9136C11.6801 13.5805 11.4176 13.4117 11.0793 13.4117C10.6331 13.4117 10.3362 13.6885 10.3362 14.1347C10.3362 14.4757 10.5273 14.8168 10.7879 15.051C11.1961 15.608 11.9719 15.9087 12.6954 15.9087Z"
                     fill="currentColor" fill-opacity="0.85" />
       </g>
</svg>