<?xml version="1.0" encoding="UTF-8"?>
<!--Generator: Apple Native CoreSVG 326-->
<!DOCTYPE svg PUBLIC "-//W3C//DTD SVG 1.1//EN" "http://www.w3.org/Graphics/SVG/1.1/DTD/svg11.dtd">
<svg version="1.1" xmlns="http://www.w3.org/2000/svg" xmlns:xlink="http://www.w3.org/1999/xlink"
       viewBox="0 0 21.365 21.006">
       <g>
              <rect height="21.006" opacity="0" width="21.365" x="0" y="0" />
              <path d="M10.4981 20.9962C16.302 20.9962 21.0037 16.2946 21.0037 10.4981C21.0037 4.70163 16.302 0 10.4981 0C4.70163 0 0 4.70163 0 10.4981C0 16.2946 4.70163 20.9962 10.4981 20.9962ZM10.4981 17.9484C6.37829 17.9484 3.04785 14.6179 3.04785 10.4981C3.04785 6.37829 6.37829 3.04785 10.4981 3.04785C14.6179 3.04785 17.9558 6.37829 17.9558 10.4981C17.9558 14.6179 14.6179 17.9484 10.4981 17.9484Z"
                     fill="currentColor" fill-opacity="0.85" />
              <path d="M7.95893 14.3196C8.4517 14.3196 8.84857 13.9227 8.84857 13.4276L8.84857 7.67196C8.84857 7.0247 8.454 6.67205 7.8142 6.67205C7.32944 6.67205 6.98994 6.87427 6.66604 7.1172L5.84549 7.74584C5.5974 7.94225 5.46815 8.15763 5.46815 8.44138C5.46815 8.87841 5.76275 9.07087 6.05572 9.07087C6.22689 9.07087 6.34463 9.02204 6.48935 8.91638L7.06698 8.46231L7.06698 13.4276C7.06698 13.9227 7.46385 14.3196 7.95893 14.3196ZM12.5178 14.4023C14.0166 14.4023 14.7818 13.1827 14.7818 11.677C14.7818 10.5233 14.3387 9.26303 13.1386 9.26303C12.4804 9.26303 12.0948 9.65353 11.9379 10.0558L11.8891 10.0558L11.9954 8.17517L13.88 8.17517C14.3239 8.17517 14.529 7.86618 14.529 7.49454C14.529 7.08275 14.2918 6.799 13.88 6.799L11.4033 6.799C10.8485 6.799 10.6015 7.16833 10.5699 7.72091L10.4733 10.0237C10.471 10.103 10.4635 10.304 10.4635 10.3937C10.4635 10.914 10.7386 11.2535 11.2326 11.2535C11.5485 11.2535 11.7197 11.1684 11.8949 10.8898C12.03 10.672 12.207 10.4675 12.4633 10.4675C12.9547 10.4675 13.1087 11.165 13.1087 11.7235C13.1087 12.2655 12.9822 13.0284 12.4759 13.0284C12.123 13.0284 11.9299 12.7497 11.8138 12.4215C11.6817 12.0419 11.4146 11.8581 11.0838 11.8581C10.6479 11.8581 10.386 12.1275 10.386 12.5634C10.386 12.7358 10.4222 12.8984 10.4728 13.0639C10.7302 13.825 11.562 14.4023 12.5178 14.4023Z"
                     fill="currentColor" fill-opacity="0.85" />
       </g>
</svg>