<?xml version="1.0" encoding="UTF-8"?>
<!--Generator: Apple Native CoreSVG 326-->
<!DOCTYPE svg PUBLIC "-//W3C//DTD SVG 1.1//EN" "http://www.w3.org/Graphics/SVG/1.1/DTD/svg11.dtd">
<svg version="1.1" xmlns="http://www.w3.org/2000/svg" xmlns:xlink="http://www.w3.org/1999/xlink"
       viewBox="0 0 19.3993 19.0529">
       <g>
              <rect height="19.0529" opacity="0" width="19.3993" x="0" y="0" />
              <path d="M3.64834 19.0379L15.3896 19.0379C17.7164 19.0379 19.0379 17.7262 19.0379 15.4011L19.0379 3.63912C19.0379 1.32151 17.7164 0 15.3896 0L3.64834 0C1.32382 0 0 1.32151 0 3.63912L0 15.4011C0 17.7262 1.32382 19.0379 3.64834 19.0379ZM4.05583 16.0183C3.37024 16.0183 3.01964 15.7096 3.01964 14.9775L3.01964 4.07021C3.01964 3.33809 3.37024 3.0271 4.05583 3.0271L14.9821 3.0271C15.6654 3.0271 16.0183 3.33809 16.0183 4.07021L16.0183 14.9775C16.0183 15.7096 15.6654 16.0183 14.9821 16.0183Z"
                     fill="currentColor" fill-opacity="0.85" />
              <path d="M6.98697 13.343C7.48205 13.343 7.87892 12.9461 7.87892 12.4511L7.87892 6.6954C7.87892 6.04814 7.48435 5.69548 6.83479 5.69548C6.35002 5.69548 6.01799 5.89771 5.68663 6.14064L4.87353 6.76928C4.62545 6.96568 4.49619 7.18107 4.49619 7.46482C4.49619 7.90185 4.7908 8.09431 5.08377 8.09431C5.25494 8.09431 5.37498 8.04548 5.5174 7.93982L6.09502 7.48575L6.09502 12.4511C6.09502 12.9461 6.4919 13.343 6.98697 13.343ZM11.5459 13.4257C13.0372 13.4257 13.8099 12.2061 13.8099 10.7005C13.8099 9.54678 13.3593 8.28647 12.1667 8.28647C11.5085 8.28647 11.1154 8.67697 10.9659 9.07924L10.9194 9.07924L11.0235 7.1986L12.9006 7.1986C13.3445 7.1986 13.5571 6.88962 13.5571 6.51798C13.5571 6.10619 13.3198 5.82244 12.9006 5.82244L10.4314 5.82244C9.87881 5.82244 9.62951 6.19177 9.60022 6.74435L9.50135 9.04709C9.49904 9.12643 9.48412 9.32745 9.48412 9.4171C9.48412 9.9374 9.7592 10.2769 10.2606 10.2769C10.5788 10.2769 10.7477 10.1919 10.9229 9.91326C11.058 9.69545 11.235 9.49092 11.4914 9.49092C11.9827 9.49092 12.1368 10.1885 12.1368 10.747C12.1368 11.2889 12.0103 12.0519 11.504 12.0519C11.1511 12.0519 10.9579 11.7732 10.8418 11.4449C10.7097 11.0653 10.4427 10.8815 10.1044 10.8815C9.67592 10.8815 9.414 11.1509 9.414 11.5868C9.414 11.7592 9.45022 11.9218 9.5008 12.0873C9.76053 12.8485 10.5901 13.4257 11.5459 13.4257Z"
                     fill="currentColor" fill-opacity="0.85" />
       </g>
</svg>