<?xml version="1.0" encoding="UTF-8"?>
<!--Generator: Apple Native CoreSVG 326-->
<!DOCTYPE svg PUBLIC "-//W3C//DTD SVG 1.1//EN" "http://www.w3.org/Graphics/SVG/1.1/DTD/svg11.dtd">
<svg version="1.1" xmlns="http://www.w3.org/2000/svg" xmlns:xlink="http://www.w3.org/1999/xlink"
       viewBox="0 0 21.365 21.006">
       <g>
              <rect height="21.006" opacity="0" width="21.365" x="0" y="0" />
              <path d="M10.4981 20.9962C16.302 20.9962 21.0037 16.2946 21.0037 10.4981C21.0037 4.70163 16.302 0 10.4981 0C4.70163 0 0 4.70163 0 10.4981C0 16.2946 4.70163 20.9962 10.4981 20.9962ZM10.4981 17.9484C6.37829 17.9484 3.04785 14.6179 3.04785 10.4981C3.04785 6.37829 6.37829 3.04785 10.4981 3.04785C14.6179 3.04785 17.9558 6.37829 17.9558 10.4981C17.9558 14.6179 14.6179 17.9484 10.4981 17.9484Z"
                     fill="currentColor" fill-opacity="0.85" />
              <path d="M7.9215 14.3196C8.41658 14.3196 8.81345 13.9227 8.81345 13.4276L8.81345 7.67196C8.81345 7.0247 8.41888 6.67205 7.77678 6.67205C7.29201 6.67205 6.95252 6.87427 6.63092 7.1172L5.81783 7.74584C5.55998 7.94225 5.43072 8.15763 5.43072 8.44138C5.43072 8.87841 5.72533 9.07087 6.0183 9.07087C6.18947 9.07087 6.30951 9.02204 6.45193 8.91638L7.02955 8.46231L7.02955 13.4276C7.02955 13.9227 7.42643 14.3196 7.9215 14.3196ZM12.6482 14.4023C14.1102 14.4023 14.8875 13.1896 14.8875 11.7683C14.8875 10.5693 14.3945 9.40139 13.2225 9.40139C12.4762 9.40139 12.0223 9.93619 11.8499 10.6119L11.8257 10.6119C11.8257 10.4684 11.8257 10.3174 11.8257 10.1762C11.8257 8.94301 12.0371 7.97985 12.6063 7.97985C12.8914 7.97985 13.0426 8.20282 13.1787 8.46377C13.3602 8.8038 13.5756 8.94798 13.9329 8.94798C14.4452 8.94798 14.641 8.59478 14.641 8.22029C14.641 8.11287 14.6215 7.95838 14.5922 7.84635C14.3573 7.0065 13.5674 6.60599 12.6654 6.60599C10.7306 6.60599 10.1619 8.60588 10.1619 10.5435C10.1619 12.2326 10.6956 14.4023 12.6482 14.4023ZM12.6137 13.0284C12.1924 13.0284 11.9964 12.4984 11.9964 11.8102C11.9964 11.157 12.2067 10.6673 12.6137 10.6673C13.0305 10.6673 13.2265 11.1789 13.2219 11.8493C13.2219 12.5249 13.0138 13.0284 12.6137 13.0284Z"
                     fill="currentColor" fill-opacity="0.85" />
       </g>
</svg>