<?xml version="1.0" encoding="UTF-8"?>
<!--Generator: Apple Native CoreSVG 326-->
<!DOCTYPE svg PUBLIC "-//W3C//DTD SVG 1.1//EN" "http://www.w3.org/Graphics/SVG/1.1/DTD/svg11.dtd">
<svg version="1.1" xmlns="http://www.w3.org/2000/svg" xmlns:xlink="http://www.w3.org/1999/xlink"
       viewBox="0 0 21.365 21.006">
       <g>
              <rect height="21.006" opacity="0" width="21.365" x="0" y="0" />
              <path d="M21.0037 10.4981C21.0037 16.2923 16.302 20.9962 10.4981 20.9962C4.70394 20.9962 0 16.2923 0 10.4981C0 4.70163 4.70394 0 10.4981 0C16.302 0 21.0037 4.70163 21.0037 10.4981ZM11.1454 6.55268C10.6819 6.55268 10.4251 6.88865 10.4251 7.28267C10.4251 7.7163 10.6968 8.02989 11.1454 8.02989L13.1588 8.02989L13.1588 8.14017L11.3552 13.1134C11.2747 13.338 11.2231 13.5321 11.2231 13.7911C11.2231 14.1662 11.4534 14.5803 12.0886 14.5803C12.579 14.5803 12.7898 14.389 12.9415 13.9881L14.8656 8.49688C14.9955 8.13962 15.0736 7.84325 15.0736 7.46076C15.0736 6.90994 14.6451 6.55268 14.0989 6.55268ZM6.88046 6.90302L6.01569 7.56096C5.74061 7.77229 5.59874 7.99744 5.59874 8.30588C5.59874 8.76759 5.93295 8.97728 6.23569 8.97728C6.41947 8.97728 6.54182 8.92845 6.6917 8.80556L7.30608 8.33196L7.30608 13.6148C7.30608 14.1518 7.72764 14.5733 8.26463 14.5733C8.79185 14.5733 9.22087 14.1518 9.22087 13.6148L9.22087 7.49224C9.22087 6.7956 8.79416 6.42572 8.11014 6.42572C7.58577 6.42572 7.22905 6.63772 6.88046 6.90302Z"
                     fill="currentColor" fill-opacity="0.85" />
       </g>
</svg>