<?xml version="1.0" encoding="UTF-8"?>
<!--Generator: Apple Native CoreSVG 326-->
<!DOCTYPE svg PUBLIC "-//W3C//DTD SVG 1.1//EN" "http://www.w3.org/Graphics/SVG/1.1/DTD/svg11.dtd">
<svg version="1.1" xmlns="http://www.w3.org/2000/svg" xmlns:xlink="http://www.w3.org/1999/xlink"
       viewBox="0 0 21.365 21.006">
       <g>
              <rect height="21.006" opacity="0" width="21.365" x="0" y="0" />
              <path d="M10.4981 20.9962C16.302 20.9962 21.0037 16.2946 21.0037 10.4981C21.0037 4.70163 16.302 0 10.4981 0C4.70163 0 0 4.70163 0 10.4981C0 16.2946 4.70163 20.9962 10.4981 20.9962ZM10.4981 17.9484C6.37829 17.9484 3.04785 14.6179 3.04785 10.4981C3.04785 6.37829 6.37829 3.04785 10.4981 3.04785C14.6179 3.04785 17.9558 6.37829 17.9558 10.4981C17.9558 14.6179 14.6179 17.9484 10.4981 17.9484Z"
                     fill="currentColor" fill-opacity="0.85" />
              <path d="M8.39037 14.3196C8.88314 14.3196 9.28001 13.9227 9.28001 13.4276L9.28001 7.67196C9.28001 7.0247 8.88545 6.67205 8.24334 6.67205C7.76088 6.67205 7.42139 6.87427 7.09749 7.1172L6.28439 7.74584C6.02654 7.94225 5.89959 8.15763 5.89959 8.44138C5.89959 8.87841 6.1942 9.07087 6.48717 9.07087C6.65603 9.07087 6.77607 9.02204 6.91849 8.91638L7.49612 8.46231L7.49612 13.4276C7.49612 13.9227 7.89299 14.3196 8.39037 14.3196ZM11.9703 14.3339C12.4263 14.3339 12.6296 14.1501 12.764 13.7687L14.5826 8.61001C14.6974 8.27743 14.7681 8.00575 14.7681 7.6554C14.7681 7.13158 14.3718 6.799 13.8675 6.799L11.0937 6.799C10.6624 6.799 10.4154 7.11029 10.4154 7.48708C10.4154 7.88626 10.6773 8.17517 11.0937 8.17517L12.9842 8.17517L12.9842 8.27798L11.2937 12.9509C11.2133 13.1657 11.1691 13.3449 11.1691 13.5942C11.1691 13.9371 11.3822 14.3339 11.9703 14.3339Z"
                     fill="currentColor" fill-opacity="0.85" />
       </g>
</svg>