<?xml version="1.0" encoding="UTF-8"?>
<!--Generator: Apple Native CoreSVG 326-->
<!DOCTYPE svg PUBLIC "-//W3C//DTD SVG 1.1//EN" "http://www.w3.org/Graphics/SVG/1.1/DTD/svg11.dtd">
<svg version="1.1" xmlns="http://www.w3.org/2000/svg" xmlns:xlink="http://www.w3.org/1999/xlink"
       viewBox="0 0 19.3993 19.0529">
       <g>
              <rect height="19.0529" opacity="0" width="19.3993" x="0" y="0" />
              <path d="M3.64834 19.0379L15.3896 19.0379C17.7164 19.0379 19.0379 17.7262 19.0379 15.4011L19.0379 3.63912C19.0379 1.32151 17.7164 0 15.3896 0L3.64834 0C1.32382 0 0 1.32151 0 3.63912L0 15.4011C0 17.7262 1.32382 19.0379 3.64834 19.0379ZM4.05583 16.0183C3.37024 16.0183 3.01964 15.7096 3.01964 14.9775L3.01964 4.07021C3.01964 3.33809 3.37024 3.0271 4.05583 3.0271L14.9821 3.0271C15.6654 3.0271 16.0183 3.33809 16.0183 4.07021L16.0183 14.9775C16.0183 15.7096 15.6654 16.0183 14.9821 16.0183Z"
                     fill="currentColor" fill-opacity="0.85" />
              <path d="M7.41842 13.343C7.91119 13.343 8.30806 12.9461 8.30806 12.4511L8.30806 6.6954C8.30806 6.04814 7.91349 5.69548 7.27369 5.69548C6.78893 5.69548 6.44944 5.89771 6.12553 6.14064L5.30498 6.76928C5.0569 6.96568 4.92764 7.18107 4.92764 7.46482C4.92764 7.90185 5.22225 8.09431 5.51521 8.09431C5.68639 8.09431 5.80412 8.04548 5.94884 7.93982L6.52417 7.48575L6.52417 12.4511C6.52417 12.9461 6.92104 13.343 7.41842 13.343ZM10.9983 13.3574C11.4567 13.3574 11.6577 13.1736 11.7944 12.7922L13.6106 7.63345C13.7255 7.30087 13.7962 7.02919 13.7962 6.67884C13.7962 6.15501 13.3998 5.82244 12.8881 5.82244L10.1217 5.82244C9.68526 5.82244 9.44342 6.13372 9.44342 6.51052C9.44342 6.9097 9.70764 7.1986 10.1217 7.1986L12.0123 7.1986L12.0123 7.30141L10.3218 11.9743C10.2414 12.1891 10.1971 12.3683 10.1971 12.6176C10.1971 12.9605 10.4102 13.3574 10.9983 13.3574Z"
                     fill="currentColor" fill-opacity="0.85" />
       </g>
</svg>