<?xml version="1.0" encoding="UTF-8"?>
<!--Generator: Apple Native CoreSVG 326-->
<!DOCTYPE svg PUBLIC "-//W3C//DTD SVG 1.1//EN" "http://www.w3.org/Graphics/SVG/1.1/DTD/svg11.dtd">
<svg version="1.1" xmlns="http://www.w3.org/2000/svg" xmlns:xlink="http://www.w3.org/1999/xlink"
       viewBox="0 0 21.365 21.006">
       <g>
              <rect height="21.006" opacity="0" width="21.365" x="0" y="0" />
              <path d="M21.0037 10.4981C21.0037 16.2923 16.302 20.9962 10.4981 20.9962C4.70394 20.9962 0 16.2923 0 10.4981C0 4.70163 4.70394 0 10.4981 0C16.302 0 21.0037 4.70163 21.0037 10.4981ZM10.3722 8.50471C10.3722 9.47787 10.9846 10.0759 11.6389 10.2787L11.6389 10.3154C10.7945 10.4883 10.1603 11.3092 10.1603 12.3209C10.1603 13.7628 11.2781 14.6566 12.7975 14.6566C14.2872 14.6566 15.4445 13.8172 15.4445 12.3283C15.4445 11.3218 14.8631 10.501 13.9803 10.3154L13.9803 10.2787C14.7212 10.0437 15.2446 9.36706 15.2446 8.51447C15.2446 7.19842 14.2233 6.35682 12.7975 6.35682C11.5125 6.35682 10.3722 7.09615 10.3722 8.50471ZM6.47886 6.90302L5.61408 7.56096C5.34131 7.77229 5.20459 7.99744 5.20459 8.30588C5.20459 8.76759 5.52158 8.97728 5.83178 8.97728C6.01272 8.97728 6.13791 8.92845 6.29756 8.80556L6.90217 8.33196L6.90217 13.6148C6.90217 14.1518 7.3312 14.5733 7.86303 14.5733C8.39541 14.5733 8.82673 14.1518 8.82673 13.6148L8.82673 7.49224C8.82673 6.7956 8.39771 6.42572 7.70108 6.42572C7.19163 6.42572 6.82745 6.63772 6.47886 6.90302ZM13.4832 12.1739C13.4832 12.8489 13.2338 13.3241 12.7998 13.3241C12.3658 13.3241 12.1313 12.8489 12.1313 12.1739C12.1313 11.5183 12.3658 11.0454 12.7998 11.0454C13.2292 11.0454 13.4832 11.5091 13.4832 12.1739ZM13.416 8.70342C13.416 9.30779 13.1958 9.72268 12.7998 9.72268C12.4164 9.72268 12.2038 9.2842 12.2038 8.70342C12.2038 8.11111 12.4285 7.67954 12.7998 7.67954C13.2005 7.67954 13.416 8.11111 13.416 8.70342Z"
                     fill="currentColor" fill-opacity="0.85" />
       </g>
</svg>