<?xml version="1.0" encoding="UTF-8"?>
<!--Generator: Apple Native CoreSVG 326-->
<!DOCTYPE svg PUBLIC "-//W3C//DTD SVG 1.1//EN" "http://www.w3.org/Graphics/SVG/1.1/DTD/svg11.dtd">
<svg version="1.1" xmlns="http://www.w3.org/2000/svg" xmlns:xlink="http://www.w3.org/1999/xlink"
       viewBox="0 0 21.365 21.006">
       <g>
              <rect height="21.006" opacity="0" width="21.365" x="0" y="0" />
              <path d="M10.4981 20.9962C16.302 20.9962 21.0037 16.2946 21.0037 10.4981C21.0037 4.70163 16.302 0 10.4981 0C4.70163 0 0 4.70163 0 10.4981C0 16.2946 4.70163 20.9962 10.4981 20.9962ZM10.4981 17.9484C6.37829 17.9484 3.04785 14.6179 3.04785 10.4981C3.04785 6.37829 6.37829 3.04785 10.4981 3.04785C14.6179 3.04785 17.9558 6.37829 17.9558 10.4981C17.9558 14.6179 14.6179 17.9484 10.4981 17.9484Z"
                     fill="currentColor" fill-opacity="0.85" />
              <path d="M8.01346 14.3196C8.50623 14.3196 8.9031 13.9227 8.9031 13.4276L8.9031 7.67196C8.9031 7.0247 8.50853 6.67205 7.86642 6.67205C7.38397 6.67205 7.04447 6.87427 6.72057 7.1172L5.90748 7.74584C5.64963 7.94225 5.52267 8.15763 5.52267 8.44138C5.52267 8.87841 5.82474 9.07087 6.11025 9.07087C6.28142 9.07087 6.39916 9.02204 6.54158 8.91638L7.1192 8.46231L7.1192 13.4276C7.1192 13.9227 7.51608 14.3196 8.01346 14.3196ZM12.6425 14.3954C14.0385 14.3954 15.1219 13.6076 15.1219 12.2101C15.1219 11.2724 14.5749 10.501 13.7488 10.3252L13.7488 10.2884C14.4404 10.0759 14.9294 9.44112 14.9294 8.63275C14.9294 7.41029 13.977 6.61806 12.6425 6.61806C11.4338 6.61806 10.3625 7.30056 10.3625 8.63045C10.3625 9.53701 10.9404 10.1006 11.5528 10.2884L11.5528 10.3252C10.7577 10.4883 10.1677 11.2598 10.1677 12.2026C10.1677 13.5658 11.2167 14.3954 12.6425 14.3954ZM12.6448 9.77952C12.2809 9.77952 12.078 9.36057 12.078 8.81424C12.078 8.25638 12.293 7.8495 12.6448 7.8495C13.0184 7.8495 13.2242 8.25638 13.2242 8.81424C13.2242 9.38416 13.0138 9.77952 12.6448 9.77952ZM12.6448 13.1542C12.2303 13.1542 12.0131 12.7059 12.0131 12.0728C12.0131 11.4592 12.2303 11.0133 12.6448 11.0133C13.0472 11.0133 13.284 11.45 13.284 12.0728C13.284 12.7059 13.0518 13.1542 12.6448 13.1542Z"
                     fill="currentColor" fill-opacity="0.85" />
       </g>
</svg>