<?xml version="1.0" encoding="UTF-8"?>
<!--Generator: Apple Native CoreSVG 326-->
<!DOCTYPE svg PUBLIC "-//W3C//DTD SVG 1.1//EN" "http://www.w3.org/Graphics/SVG/1.1/DTD/svg11.dtd">
<svg version="1.1" xmlns="http://www.w3.org/2000/svg" xmlns:xlink="http://www.w3.org/1999/xlink"
       viewBox="0 0 19.3993 19.0529">
       <g>
              <rect height="19.0529" opacity="0" width="19.3993" x="0" y="0" />
              <path d="M19.0379 3.63912L19.0379 15.4011C19.0379 17.7262 17.7164 19.0379 15.3896 19.0379L3.64834 19.0379C1.32382 19.0379 0 17.7262 0 15.4011L0 3.63912C0 1.32151 1.32382 0 3.64834 0L15.3896 0C17.7164 0 19.0379 1.32151 19.0379 3.63912ZM9.48006 7.52815C9.48006 8.50131 10.0947 9.09932 10.7467 9.30209L10.7467 9.33885C9.90975 9.51178 9.26807 10.3326 9.26807 11.3443C9.26807 12.7862 10.3934 13.6801 11.9151 13.6801C13.4024 13.6801 14.5524 12.8406 14.5524 11.3518C14.5524 10.3453 13.9784 9.5244 13.0881 9.33885L13.0881 9.30209C13.8365 9.06717 14.3599 8.39049 14.3599 7.53791C14.3599 6.22186 13.3386 5.38025 11.9151 5.38025C10.6203 5.38025 9.48006 6.11959 9.48006 7.52815ZM5.58667 5.92646L4.72935 6.5844C4.45658 6.79572 4.31987 7.02088 4.31987 7.32932C4.31987 7.79103 4.63685 8.00072 4.94705 8.00072C5.12799 8.00072 5.25549 7.95189 5.40767 7.829L6.01975 7.3554L6.01975 12.6382C6.01975 13.1752 6.44131 13.5968 6.97084 13.5968C7.50322 13.5968 7.93685 13.1752 7.93685 12.6382L7.93685 6.51568C7.93685 5.81904 7.50552 5.44916 6.81865 5.44916C6.29944 5.44916 5.94272 5.66115 5.58667 5.92646ZM12.591 11.1973C12.591 11.8723 12.3491 12.3476 11.9151 12.3476C11.4811 12.3476 11.2466 11.8723 11.2466 11.1973C11.2466 10.5418 11.4834 10.0688 11.9151 10.0688C12.3445 10.0688 12.591 10.5326 12.591 11.1973ZM12.5312 7.72686C12.5312 8.33123 12.3111 8.74612 11.9151 8.74612C11.5317 8.74612 11.3116 8.30764 11.3116 7.72686C11.3116 7.13455 11.5363 6.70298 11.9151 6.70298C12.3157 6.70298 12.5312 7.13455 12.5312 7.72686Z"
                     fill="currentColor" fill-opacity="0.85" />
       </g>
</svg>