<?xml version="1.0" encoding="UTF-8"?>
<!--Generator: Apple Native CoreSVG 326-->
<!DOCTYPE svg PUBLIC "-//W3C//DTD SVG 1.1//EN" "http://www.w3.org/Graphics/SVG/1.1/DTD/svg11.dtd">
<svg version="1.1" xmlns="http://www.w3.org/2000/svg" xmlns:xlink="http://www.w3.org/1999/xlink"
       viewBox="0 0 21.365 21.006">
       <g>
              <rect height="21.006" opacity="0" width="21.365" x="0" y="0" />
              <path d="M21.0037 10.4981C21.0037 16.2923 16.302 20.9962 10.4981 20.9962C4.70394 20.9962 0 16.2923 0 10.4981C0 4.70163 4.70394 0 10.4981 0C16.302 0 21.0037 4.70163 21.0037 10.4981ZM10.2452 9.15615C10.2452 10.424 10.7726 11.6758 12.021 11.6758C12.8092 11.6758 13.2976 11.1065 13.4872 10.3889L13.5039 10.3889C13.5039 10.5474 13.5039 10.7058 13.5039 10.8545C13.5039 12.1766 13.2851 13.1961 12.6768 13.1961C12.4067 13.1961 12.2457 13.0328 12.0774 12.6926C11.8936 12.3158 11.6437 12.1591 11.2738 12.1591C10.7099 12.1591 10.514 12.5392 10.514 12.9459C10.514 13.0481 10.5261 13.2199 10.5628 13.3371C10.815 14.2383 11.6566 14.6687 12.6102 14.6687C14.6805 14.6687 15.2837 12.5328 15.2837 10.4647C15.2837 8.6649 14.7155 6.34475 12.6297 6.34475C11.0816 6.34475 10.2452 7.64127 10.2452 9.15615ZM6.53339 6.90302L5.66115 7.56096C5.38608 7.77229 5.25682 7.99744 5.25682 8.30588C5.25682 8.76759 5.57611 8.97728 5.89377 8.97728C6.0724 8.97728 6.2022 8.92845 6.35209 8.80556L6.96647 8.33196L6.96647 13.6148C6.96647 14.1518 7.38057 14.5733 7.91525 14.5733C8.44478 14.5733 8.8738 14.1518 8.8738 13.6148L8.8738 7.49224C8.8738 6.7956 8.44709 6.42572 7.76307 6.42572C7.24385 6.42572 6.87221 6.63772 6.53339 6.90302ZM13.3235 9.11764C13.3235 9.82428 13.1057 10.3387 12.6717 10.3387C12.2354 10.3387 12.0319 9.8076 12.0319 9.0878C12.0319 8.36568 12.252 7.83974 12.6717 7.83974C13.1126 7.83974 13.3235 8.37315 13.3235 9.11764Z"
                     fill="currentColor" fill-opacity="0.85" />
       </g>
</svg>