<?xml version="1.0" encoding="UTF-8"?>
<!--Generator: Apple Native CoreSVG 326-->
<!DOCTYPE svg PUBLIC "-//W3C//DTD SVG 1.1//EN" "http://www.w3.org/Graphics/SVG/1.1/DTD/svg11.dtd">
<svg version="1.1" xmlns="http://www.w3.org/2000/svg" xmlns:xlink="http://www.w3.org/1999/xlink"
       viewBox="0 0 19.3993 19.0529">
       <g>
              <rect height="19.0529" opacity="0" width="19.3993" x="0" y="0" />
              <path d="M3.64834 19.0379L15.3896 19.0379C17.7164 19.0379 19.0379 17.7262 19.0379 15.4011L19.0379 3.63912C19.0379 1.32151 17.7164 0 15.3896 0L3.64834 0C1.32382 0 0 1.32151 0 3.63912L0 15.4011C0 17.7262 1.32382 19.0379 3.64834 19.0379ZM4.05583 16.0183C3.37024 16.0183 3.01964 15.7096 3.01964 14.9775L3.01964 4.07021C3.01964 3.33809 3.37024 3.0271 4.05583 3.0271L14.9821 3.0271C15.6654 3.0271 16.0183 3.33809 16.0183 4.07021L16.0183 14.9775C16.0183 15.7096 15.6654 16.0183 14.9821 16.0183Z"
                     fill="currentColor" fill-opacity="0.85" />
              <path d="M7.08857 13.343C7.58134 13.343 7.97821 12.9461 7.97821 12.4511L7.97821 6.6954C7.97821 6.04814 7.58365 5.69548 6.94154 5.69548C6.45678 5.69548 6.11729 5.89771 5.79569 6.14064L4.97513 6.76928C4.72474 6.96568 4.59549 7.18107 4.59549 7.46482C4.59549 7.90185 4.89009 8.09431 5.18306 8.09431C5.35423 8.09431 5.47427 8.04548 5.61669 7.93982L6.19432 7.48575L6.19432 12.4511C6.19432 12.9461 6.59119 13.343 7.08857 13.343ZM10.9359 10.6303C11.6747 10.6303 12.1384 10.0955 12.3085 9.41983L12.3252 9.41983C12.3252 9.56334 12.3252 9.71431 12.3252 9.85552C12.3252 11.0887 12.1236 12.057 11.5521 12.057C11.2917 12.057 11.1331 11.9035 10.9797 11.5806C10.8033 11.2285 10.5782 11.0866 10.2255 11.0866C9.70576 11.0866 9.51506 11.4346 9.51506 11.8091C9.51506 11.9189 9.52713 12.0733 9.56388 12.1905C9.80111 13.0252 10.591 13.4309 11.493 13.4309C13.4278 13.4309 13.9988 11.4305 13.9988 9.48819C13.9988 7.79916 13.4628 5.62943 11.5102 5.62943C10.0482 5.62943 9.26346 6.84213 9.26346 8.26342C9.26346 9.46241 9.76393 10.6303 10.9359 10.6303ZM11.5447 9.37706C11.1302 9.37706 10.9342 8.87526 10.9342 8.19736C10.9342 7.52463 11.1469 7.01591 11.5447 7.01591C11.9586 7.01591 12.1546 7.53209 12.1546 8.22721C12.1546 8.88963 11.9517 9.37706 11.5447 9.37706Z"
                     fill="currentColor" fill-opacity="0.85" />
       </g>
</svg>