<?xml version="1.0" encoding="UTF-8"?>
<!--Generator: Apple Native CoreSVG 326-->
<!DOCTYPE svg PUBLIC "-//W3C//DTD SVG 1.1//EN" "http://www.w3.org/Graphics/SVG/1.1/DTD/svg11.dtd">
<svg version="1.1" xmlns="http://www.w3.org/2000/svg" xmlns:xlink="http://www.w3.org/1999/xlink"
       viewBox="0 0 32.0523 19.6048">
       <g>
              <rect height="19.6048" opacity="0" width="32.0523" x="0" y="0" />
              <path d="M0 9.80499C0 13.0499 1.06555 16.123 2.95128 18.609C3.4853 19.3199 4.42814 19.359 5.11719 18.7928C5.7821 18.229 5.80109 17.3573 5.26422 16.6235C3.85445 14.6841 3.05015 12.3086 3.05015 9.80499C3.05015 7.29159 3.85445 4.91842 5.27168 2.97439C5.81601 2.23772 5.80679 1.37125 5.11719 0.799931C4.4356 0.226306 3.50022 0.275134 2.95874 0.983719C1.06555 3.47723 0 6.56007 0 9.80499ZM31.691 9.80499C31.691 6.56007 30.6203 3.47723 28.7322 0.983719C28.1908 0.275134 27.2554 0.226306 26.5738 0.799931C25.8842 1.37125 25.8773 2.23772 26.4118 2.97439C27.8388 4.91842 28.6408 7.29159 28.6408 9.80499C28.6408 12.3086 27.8388 14.6841 26.4193 16.6235C25.8922 17.3573 25.9014 18.229 26.5738 18.7928C27.2628 19.359 28.1982 19.3199 28.7397 18.609C30.6203 16.123 31.691 13.0499 31.691 9.80499Z"
                     fill="currentColor" fill-opacity="0.85" />
              <path d="M15.8455 19.5876C21.2658 19.5876 25.6453 15.2081 25.6453 9.79753C25.6453 4.38464 21.2658 0 15.8455 0C10.4349 0 6.05542 4.38464 6.05542 9.79753C6.05542 15.2081 10.4349 19.5876 15.8455 19.5876ZM15.8455 16.5398C12.1288 16.5398 9.10327 13.5142 9.10327 9.79753C9.10327 6.07107 12.1288 3.04554 15.8455 3.04554C19.572 3.04554 22.5975 6.07107 22.5975 9.79753C22.5975 13.5142 19.572 16.5398 15.8455 16.5398Z"
                     fill="currentColor" fill-opacity="0.85" />
              <path d="M13.6735 14.0572L18.4169 14.0572C19.1932 14.0572 19.6681 13.634 19.6681 12.945C19.6681 12.2513 19.2081 11.8453 18.4169 11.8453L16.3745 11.8453L16.3745 11.7546L17.6691 10.5448C18.7747 9.59464 19.3056 8.83807 19.3056 7.91076C19.3056 6.34432 17.9276 5.29085 15.8972 5.29085C14.2792 5.29085 12.9615 6.04862 12.5646 7.17222C12.5032 7.356 12.471 7.54034 12.471 7.72698C12.471 8.40626 12.9487 8.75485 13.6728 8.75485C14.2384 8.75485 14.5112 8.47286 14.7392 8.17704C14.9782 7.82755 15.257 7.46367 15.7715 7.46367C16.2591 7.46367 16.5558 7.73219 16.5558 8.14732C16.5558 8.59163 16.2413 8.99335 15.5756 9.57644L13.0946 11.8219C12.6129 12.2312 12.5101 12.5907 12.5101 12.9897C12.5101 13.6191 12.9901 14.0572 13.6735 14.0572Z"
                     fill="currentColor" fill-opacity="0.85" />
       </g>
</svg>