<?xml version="1.0" encoding="UTF-8"?>
<!--Generator: Apple Native CoreSVG 326-->
<!DOCTYPE svg PUBLIC "-//W3C//DTD SVG 1.1//EN" "http://www.w3.org/Graphics/SVG/1.1/DTD/svg11.dtd">
<svg version="1.1" xmlns="http://www.w3.org/2000/svg" xmlns:xlink="http://www.w3.org/1999/xlink"
       viewBox="0 0 21.365 21.006">
       <g>
              <rect height="21.006" opacity="0" width="21.365" x="0" y="0" />
              <path d="M10.4981 20.9962C16.302 20.9962 21.0037 16.2946 21.0037 10.4981C21.0037 4.70163 16.302 0 10.4981 0C4.70163 0 0 4.70163 0 10.4981C0 16.2946 4.70163 20.9962 10.4981 20.9962ZM10.4981 17.9484C6.37829 17.9484 3.04785 14.6179 3.04785 10.4981C3.04785 6.37829 6.37829 3.04785 10.4981 3.04785C14.6179 3.04785 17.9558 6.37829 17.9558 10.4981C17.9558 14.6179 14.6179 17.9484 10.4981 17.9484Z"
                     fill="currentColor" fill-opacity="0.85" />
              <path d="M8.32377 14.7578L13.0673 14.7578C13.8361 14.7578 14.3184 14.3346 14.3184 13.6456C14.3184 12.9519 13.8585 12.5459 13.0673 12.5459L11.0248 12.5459L11.0248 12.4552L12.312 11.2453C13.425 10.2952 13.9484 9.53865 13.9484 8.61134C13.9484 7.0449 12.5779 5.99142 10.5475 5.99142C8.92948 5.99142 7.61179 6.7492 7.21492 7.87279C7.14601 8.05658 7.12132 8.24092 7.12132 8.42755C7.12132 9.10684 7.59905 9.45543 8.31564 9.45543C8.88872 9.45543 9.16149 9.17344 9.3895 8.87762C9.62848 8.52812 9.90732 8.16425 10.4219 8.16425C10.902 8.16425 11.2038 8.43277 11.2038 8.8479C11.2038 9.29221 10.8916 9.69393 10.2259 10.277L7.74256 12.5224C7.2632 12.9318 7.15293 13.2913 7.15293 13.6903C7.15293 14.3197 7.64042 14.7578 8.32377 14.7578Z"
                     fill="currentColor" fill-opacity="0.85" />
       </g>
</svg>