<?xml version="1.0" encoding="UTF-8"?>
<!--Generator: Apple Native CoreSVG 326-->
<!DOCTYPE svg PUBLIC "-//W3C//DTD SVG 1.1//EN" "http://www.w3.org/Graphics/SVG/1.1/DTD/svg11.dtd">
<svg version="1.1" xmlns="http://www.w3.org/2000/svg" xmlns:xlink="http://www.w3.org/1999/xlink"
       viewBox="0 0 19.3993 16.9895">
       <g>
              <rect height="16.9895" opacity="0" width="19.3993" x="0" y="0" />
              <path d="M0 15.4822C0 16.3148 0.679834 16.9895 1.5124 16.9895C2.33981 16.9895 3.01964 16.3148 3.01964 15.4822L3.01964 1.69607C3.01964 0.863501 2.33981 0.183667 1.5124 0.183667C0.679834 0.183667 0 0.863501 0 1.69607ZM16.0183 15.4822C16.0183 16.3148 16.7004 16.9895 17.5255 16.9895C18.3581 16.9895 19.0379 16.3148 19.0379 15.4822L19.0379 1.69607C19.0379 0.863501 18.3581 0.183667 17.5255 0.183667C16.7004 0.183667 16.0183 0.863501 16.0183 1.69607Z"
                     fill="currentColor" fill-opacity="0.85" />
              <path d="M7.71017 12.6951L11.5758 12.6951C12.1082 12.6951 12.3971 12.3689 12.3971 11.8738C12.3971 11.3662 12.0933 11.0572 11.5758 11.0572L9.31368 11.0572L9.31368 10.9991L10.6358 9.61829C10.984 9.2586 11.289 8.93512 11.5406 8.61286C11.9554 8.06192 12.2219 7.49551 12.2219 6.73555C12.2219 5.11282 10.9599 4.27692 9.40612 4.27692C8.2158 4.27692 7.0412 4.95032 6.77237 5.9745C6.74307 6.11353 6.72124 6.25771 6.72124 6.40189C6.72124 6.94403 7.05721 7.29492 7.59936 7.29492C8.06052 7.29492 8.35744 7.04454 8.53661 6.62528C8.69978 6.17067 8.95842 5.88558 9.39866 5.88558C9.92218 5.88558 10.198 6.29531 10.198 6.81653C10.198 7.28649 10.0274 7.6272 9.75453 8.00697C9.5839 8.24826 9.33515 8.54298 9.01058 8.88884L7.28576 10.7207C6.97909 11.0446 6.71663 11.3633 6.71663 11.8342C6.71663 12.296 6.9894 12.6951 7.71017 12.6951Z"
                     fill="currentColor" fill-opacity="0.85" />
       </g>
</svg>