<?xml version="1.0" encoding="UTF-8"?>
<!--Generator: Apple Native CoreSVG 326-->
<!DOCTYPE svg PUBLIC "-//W3C//DTD SVG 1.1//EN" "http://www.w3.org/Graphics/SVG/1.1/DTD/svg11.dtd">
<svg version="1.1" xmlns="http://www.w3.org/2000/svg" xmlns:xlink="http://www.w3.org/1999/xlink"
       viewBox="0 0 19.3993 19.0529">
       <g>
              <rect height="19.0529" opacity="0" width="19.3993" x="0" y="0" />
              <path d="M19.0379 3.63912L19.0379 15.4011C19.0379 17.7262 17.7164 19.0379 15.3896 19.0379L3.64834 19.0379C1.32382 19.0379 0 17.7262 0 15.4011L0 3.63912C0 1.32151 1.32382 0 3.64834 0L15.3896 0C17.7164 0 19.0379 1.32151 19.0379 3.63912ZM6.09539 6.71881C6.03164 6.91237 5.99203 7.11908 5.99203 7.31549C5.99203 8.04184 6.50937 8.42258 7.29025 8.42258C7.89778 8.42258 8.18548 8.1159 8.43587 7.80286C8.68462 7.42867 8.97552 7.04527 9.52452 7.04527C10.0339 7.04527 10.3502 7.32586 10.3502 7.76798C10.3502 8.23182 10.0236 8.66053 9.30852 9.28553L6.66264 11.6659C6.14367 12.1 6.03855 12.4916 6.03855 12.913C6.03855 13.5917 6.55073 14.062 7.29092 14.062L12.3473 14.062C13.1804 14.062 13.6949 13.6067 13.6949 12.8682C13.6949 12.12 13.1954 11.6894 12.3473 11.6894L10.1997 11.6894L10.1997 11.5986L11.5455 10.3181C12.7401 9.31119 13.2979 8.49549 13.2979 7.50673C13.2979 5.849 11.8362 4.71916 9.66506 4.71916C7.93339 4.71916 6.52441 5.52116 6.09539 6.71881Z"
                     fill="currentColor" fill-opacity="0.85" />
       </g>
</svg>