<?xml version="1.0" encoding="UTF-8"?>
<!--Generator: Apple Native CoreSVG 326-->
<!DOCTYPE svg PUBLIC "-//W3C//DTD SVG 1.1//EN" "http://www.w3.org/Graphics/SVG/1.1/DTD/svg11.dtd">
<svg version="1.1" xmlns="http://www.w3.org/2000/svg" xmlns:xlink="http://www.w3.org/1999/xlink"
       viewBox="0 0 21.365 21.006">
       <g>
              <rect height="21.006" opacity="0" width="21.365" x="0" y="0" />
              <path d="M21.0037 10.4981C21.0037 16.2923 16.302 20.9962 10.4981 20.9962C4.70394 20.9962 0 16.2923 0 10.4981C0 4.70163 4.70394 0 10.4981 0C16.302 0 21.0037 4.70163 21.0037 10.4981ZM10.7441 10.4981C10.7441 12.4846 11.3622 14.6635 13.3865 14.6635C15.423 14.6635 16.041 12.4846 16.041 10.4981C16.041 8.51162 15.423 6.33268 13.3865 6.33268C11.3622 6.33268 10.7441 8.51162 10.7441 10.4981ZM5.05526 8.3749C5.05526 8.85275 5.33209 9.20365 5.82486 9.20365C6.21142 9.20365 6.51119 9.01986 6.64845 8.561C6.77431 8.12591 6.94615 7.79552 7.35819 7.79552C7.8219 7.79552 7.99726 8.22587 7.99726 8.74479C7.99726 9.47326 7.5003 10.1966 6.92074 10.945L5.54572 12.674C5.19374 13.1098 5.06041 13.3861 5.06041 13.7084C5.06041 14.177 5.36709 14.451 5.93799 14.451L9.19534 14.451C9.69842 14.451 9.9058 14.0973 9.9058 13.7233C9.9058 13.3103 9.69611 12.9761 9.19534 12.9761L7.27509 12.9761L7.27509 12.898L8.4415 11.4901C9.26085 10.5013 9.7794 9.75162 9.7794 8.67643C9.7794 7.21455 8.76213 6.34014 7.36049 6.34014C6.08635 6.34014 5.05526 7.28522 5.05526 8.3749ZM14.1314 10.4981C14.1314 12.1566 13.9234 13.1565 13.3865 13.1565C12.8595 13.1565 12.6589 12.1566 12.6589 10.4981C12.6589 8.83729 12.8595 7.83974 13.3865 7.83974C13.9234 7.83974 14.1314 8.83729 14.1314 10.4981Z"
                     fill="currentColor" fill-opacity="0.85" />
       </g>
</svg>