<?xml version="1.0" encoding="UTF-8"?>
<!--Generator: Apple Native CoreSVG 326-->
<!DOCTYPE svg PUBLIC "-//W3C//DTD SVG 1.1//EN" "http://www.w3.org/Graphics/SVG/1.1/DTD/svg11.dtd">
<svg version="1.1" xmlns="http://www.w3.org/2000/svg" xmlns:xlink="http://www.w3.org/1999/xlink"
       viewBox="0 0 19.3993 19.0529">
       <g>
              <rect height="19.0529" opacity="0" width="19.3993" x="0" y="0" />
              <path d="M19.0379 3.63912L19.0379 15.4011C19.0379 17.7262 17.7164 19.0379 15.3896 19.0379L3.64834 19.0379C1.32382 19.0379 0 17.7262 0 15.4011L0 3.63912C0 1.32151 1.32382 0 3.64834 0L15.3896 0C17.7164 0 19.0379 1.32151 19.0379 3.63912ZM9.85194 9.52155C9.85194 11.508 10.47 13.687 12.5041 13.687C14.5308 13.687 15.1489 11.508 15.1489 9.52155C15.1489 7.53506 14.5308 5.35611 12.5041 5.35611C10.47 5.35611 9.85194 7.53506 9.85194 9.52155ZM4.16307 7.39834C4.16307 7.87619 4.44736 8.22709 4.94013 8.22709C5.31923 8.22709 5.619 8.0433 5.75857 7.58443C5.88212 7.14935 6.05396 6.81896 6.466 6.81896C6.92971 6.81896 7.10507 7.24931 7.10507 7.76822C7.10507 8.4967 6.61557 9.22002 6.02855 9.96846L4.65353 11.6975C4.30901 12.1333 4.16822 12.4096 4.16822 12.7318C4.16822 13.2005 4.4749 13.4744 5.0458 13.4744L8.30315 13.4744C8.80623 13.4744 9.01361 13.1207 9.01361 12.7467C9.01361 12.3337 8.80392 11.9995 8.30315 11.9995L6.3829 11.9995L6.3829 11.9214L7.54932 10.5136C8.36866 9.5247 8.89467 8.77505 8.89467 7.69986C8.89467 6.23799 7.8774 5.36357 6.4683 5.36357C5.20162 5.36357 4.16307 6.30866 4.16307 7.39834ZM13.2392 9.52155C13.2392 11.1801 13.0335 12.1799 12.5041 12.1799C11.9673 12.1799 11.7667 11.1801 11.7667 9.52155C11.7667 7.86072 11.9673 6.86317 12.5041 6.86317C13.0335 6.86317 13.2392 7.86072 13.2392 9.52155Z"
                     fill="currentColor" fill-opacity="0.85" />
       </g>
</svg>