<?xml version="1.0" encoding="UTF-8"?>
<!--Generator: Apple Native CoreSVG 326-->
<!DOCTYPE svg PUBLIC "-//W3C//DTD SVG 1.1//EN" "http://www.w3.org/Graphics/SVG/1.1/DTD/svg11.dtd">
<svg version="1.1" xmlns="http://www.w3.org/2000/svg" xmlns:xlink="http://www.w3.org/1999/xlink"
       viewBox="0 0 21.365 21.006">
       <g>
              <rect height="21.006" opacity="0" width="21.365" x="0" y="0" />
              <path d="M21.0037 10.4981C21.0037 16.2923 16.302 20.9962 10.4981 20.9962C4.70394 20.9962 0 16.2923 0 10.4981C0 4.70163 4.70394 0 10.4981 0C16.302 0 21.0037 4.70163 21.0037 10.4981ZM5.3028 8.39213C5.3028 8.86021 5.57217 9.20595 6.0724 9.20595C6.45666 9.20595 6.75126 9.01986 6.89083 8.56846C7.02185 8.13337 7.17877 7.79552 7.59826 7.79552C8.06198 7.79552 8.2471 8.23333 8.2471 8.74709C8.2471 9.47326 7.74784 10.204 7.15105 10.9473L5.79096 12.6815C5.43612 13.1271 5.30795 13.3884 5.30795 13.7084C5.30795 14.177 5.60717 14.451 6.1706 14.451L9.43311 14.451C9.94596 14.451 10.1436 14.1122 10.1436 13.7233C10.1436 13.3201 9.94365 12.9859 9.43311 12.9859L7.52032 12.9859L7.52032 12.898L8.67412 11.5074C9.50838 10.5013 10.0195 9.75908 10.0195 8.68389C10.0195 7.22201 9.00967 6.3476 7.59826 6.3476C6.33158 6.3476 5.3028 7.28522 5.3028 8.39213ZM10.8849 8.39213C10.8849 8.86021 11.1646 9.20595 11.6597 9.20595C12.0439 9.20595 12.3408 9.01986 12.4758 8.56846C12.604 8.13337 12.7712 7.79552 13.1855 7.79552C13.6469 7.79552 13.8246 8.23333 13.8246 8.74709C13.8246 9.47326 13.3328 10.204 12.7383 10.9473L11.3782 12.6815C11.0285 13.1271 10.8952 13.3884 10.8952 13.7084C10.8952 14.177 11.1921 14.451 11.7653 14.451L15.0227 14.451C15.5309 14.451 15.7308 14.1122 15.7308 13.7233C15.7308 13.3201 15.5212 12.9859 15.0227 12.9859L13.1001 12.9859L13.1001 12.898L14.2665 11.5074C15.0859 10.5013 15.6119 9.75908 15.6119 8.68389C15.6119 7.22201 14.5946 6.3476 13.1855 6.3476C11.9212 6.3476 10.8849 7.28522 10.8849 8.39213Z"
                     fill="currentColor" fill-opacity="0.85" />
       </g>
</svg>