<?xml version="1.0" encoding="UTF-8"?>
<!--Generator: Apple Native CoreSVG 326-->
<!DOCTYPE svg PUBLIC "-//W3C//DTD SVG 1.1//EN" "http://www.w3.org/Graphics/SVG/1.1/DTD/svg11.dtd">
<svg version="1.1" xmlns="http://www.w3.org/2000/svg" xmlns:xlink="http://www.w3.org/1999/xlink"
       viewBox="0 0 21.365 21.006">
       <g>
              <rect height="21.006" opacity="0" width="21.365" x="0" y="0" />
              <path d="M21.0037 10.4981C21.0037 16.2923 16.302 20.9962 10.4981 20.9962C4.70394 20.9962 0 16.2923 0 10.4981C0 4.70163 4.70394 0 10.4981 0C16.302 0 21.0037 4.70163 21.0037 10.4981ZM11.0284 7.82397C10.9721 7.9969 10.9451 8.18244 10.9451 8.36338C10.9451 8.73271 11.1577 9.1083 11.7245 9.1083C12.0962 9.1083 12.4579 8.98134 12.5779 8.56264C12.6694 8.18329 12.8751 7.81966 13.2946 7.81966C13.7647 7.81966 13.9354 8.27525 13.9354 8.75279C13.9354 9.29124 13.7043 9.80596 13.0844 9.80596L12.9866 9.80596C12.518 9.80596 12.271 10.0581 12.271 10.4573C12.271 10.8565 12.4956 11.1115 12.9866 11.1115L13.0964 11.1115C13.7917 11.1115 14.1037 11.4832 14.1037 12.1756C14.1037 12.675 13.8819 13.1863 13.3187 13.1863C12.8698 13.1863 12.6422 12.8771 12.5325 12.5226C12.3803 12.101 12.1006 11.8902 11.6814 11.8902C11.1691 11.8902 10.8285 12.2015 10.8285 12.704C10.8285 12.9045 10.8653 13.0952 10.9141 13.2612C11.2071 14.1689 12.2198 14.6492 13.3388 14.6492C14.861 14.6492 15.9347 13.7507 15.9347 12.2893C15.9347 11.2183 15.3343 10.521 14.4674 10.4182L14.4674 10.374C15.1467 10.197 15.7078 9.48115 15.7078 8.54432C15.7078 7.16275 14.7076 6.36428 13.2722 6.36428C12.2646 6.36428 11.299 6.89799 11.0284 7.82397ZM5.17178 8.3749C5.17178 8.85275 5.43885 9.20595 5.94138 9.20595C6.32564 9.20595 6.62771 9.01986 6.76497 8.561C6.89083 8.12591 7.04545 7.79552 7.4724 7.79552C7.93842 7.79552 8.11608 8.22587 8.11608 8.74479C8.11608 9.47326 7.61682 10.1966 7.02003 10.945L5.65994 12.674C5.3028 13.1196 5.17694 13.3861 5.17694 13.7084C5.17694 14.177 5.48131 14.451 6.04474 14.451L9.30209 14.451C9.81264 14.451 10.02 14.0973 10.02 13.7233C10.02 13.3103 9.81033 12.9761 9.30209 12.9761L7.38931 12.9761L7.38931 12.898L8.54826 11.4901C9.37506 10.5013 9.88846 9.75162 9.88846 8.67643C9.88846 7.21455 8.87635 6.34014 7.47471 6.34014C6.20057 6.34014 5.17178 7.28522 5.17178 8.3749Z"
                     fill="currentColor" fill-opacity="0.85" />
       </g>
</svg>