<?xml version="1.0" encoding="UTF-8"?>
<!--Generator: Apple Native CoreSVG 326-->
<!DOCTYPE svg PUBLIC "-//W3C//DTD SVG 1.1//EN" "http://www.w3.org/Graphics/SVG/1.1/DTD/svg11.dtd">
<svg version="1.1" xmlns="http://www.w3.org/2000/svg" xmlns:xlink="http://www.w3.org/1999/xlink"
       viewBox="0 0 19.3993 19.0529">
       <g>
              <rect height="19.0529" opacity="0" width="19.3993" x="0" y="0" />
              <path d="M3.64834 19.0379L15.3896 19.0379C17.7164 19.0379 19.0379 17.7262 19.0379 15.4011L19.0379 3.63912C19.0379 1.32151 17.7164 0 15.3896 0L3.64834 0C1.32382 0 0 1.32151 0 3.63912L0 15.4011C0 17.7262 1.32382 19.0379 3.64834 19.0379ZM4.05583 16.0183C3.37024 16.0183 3.01964 15.7096 3.01964 14.9775L3.01964 4.07021C3.01964 3.33809 3.37024 3.0271 4.05583 3.0271L14.9821 3.0271C15.6654 3.0271 16.0183 3.33809 16.0183 4.07021L16.0183 14.9775C16.0183 15.7096 15.6654 16.0183 14.9821 16.0183Z"
                     fill="currentColor" fill-opacity="0.85" />
              <path d="M5.3438 13.2281L8.40651 13.2281C8.8826 13.2281 9.07275 12.9065 9.07275 12.5423C9.07275 12.1712 8.88029 11.8543 8.40651 11.8543L6.60454 11.8543L6.60454 11.7761L7.69459 10.4544C8.46971 9.51955 8.95611 8.81927 8.95611 7.81814C8.95611 6.4401 8.00545 5.62482 6.68764 5.62482C5.49732 5.62482 4.52767 6.51076 4.52767 7.53385C4.52767 7.97724 4.78728 8.30576 5.2479 8.30576C5.61493 8.30576 5.89231 8.12943 6.02212 7.70271C6.13821 7.29462 6.29283 6.97399 6.68764 6.97399C7.12436 6.97399 7.29225 7.38712 7.29225 7.87158C7.29225 8.5633 6.82745 9.23495 6.27257 9.93631L4.98369 11.5671C4.65869 11.9805 4.53283 12.2321 4.53283 12.5349C4.53283 12.9714 4.81482 13.2281 5.3438 13.2281ZM12.1871 13.4114C13.6158 13.4114 14.6303 12.5698 14.6303 11.1944C14.6303 10.1924 14.0569 9.54447 13.2515 9.44166L13.2515 9.4049C13.8916 9.23768 14.4108 8.56603 14.4108 7.69349C14.4108 6.39806 13.4721 5.6415 12.128 5.6415C11.1795 5.6415 10.2805 6.14076 10.0197 7.01736C9.97089 7.17307 9.94389 7.34885 9.94389 7.52232C9.94389 7.85951 10.1513 8.21787 10.6739 8.21787C11.0283 8.21787 11.3579 8.09837 11.4705 7.69689C11.5596 7.34454 11.7504 7.00559 12.1504 7.00559C12.5935 7.00559 12.7619 7.4365 12.7619 7.87959C12.7619 8.39104 12.5429 8.87131 11.9597 8.87131L11.8521 8.87131C11.4157 8.87131 11.1859 9.1137 11.1859 9.48072C11.1859 9.86268 11.403 10.093 11.8521 10.093L11.9694 10.093C12.613 10.093 12.9153 10.4475 12.9153 11.0957C12.9153 11.5681 12.7032 12.0473 12.1745 12.0473C11.7526 12.0473 11.5348 11.7478 11.4176 11.418C11.2849 11.0309 11.0179 10.8275 10.6308 10.8275C10.1529 10.8275 9.84678 11.1216 9.84678 11.592C9.84678 11.7827 9.86632 11.951 9.92491 12.1073C10.1909 12.9632 11.1348 13.4114 12.1871 13.4114Z"
                     fill="currentColor" fill-opacity="0.85" />
       </g>
</svg>