<?xml version="1.0" encoding="UTF-8"?>
<!--Generator: Apple Native CoreSVG 326-->
<!DOCTYPE svg PUBLIC "-//W3C//DTD SVG 1.1//EN" "http://www.w3.org/Graphics/SVG/1.1/DTD/svg11.dtd">
<svg version="1.1" xmlns="http://www.w3.org/2000/svg" xmlns:xlink="http://www.w3.org/1999/xlink"
       viewBox="0 0 21.365 21.006">
       <g>
              <rect height="21.006" opacity="0" width="21.365" x="0" y="0" />
              <path d="M21.0037 10.4981C21.0037 16.2923 16.302 20.9962 10.4981 20.9962C4.70394 20.9962 0 16.2923 0 10.4981C0 4.70163 4.70394 0 10.4981 0C16.302 0 21.0037 4.70163 21.0037 10.4981ZM12.2082 6.55268C11.6286 6.55268 11.3472 6.949 11.3253 7.54119L11.2092 9.9892C11.2069 10.0783 11.1995 10.2942 11.1995 10.3787C11.1995 10.9461 11.4992 11.3028 12.0351 11.3028C12.3706 11.3028 12.5469 11.2178 12.7394 10.9145C12.8842 10.6869 13.0687 10.4675 13.3371 10.4675C13.8606 10.4675 14.0244 11.2069 14.0244 11.8074C14.0244 12.3712 13.8956 13.1909 13.3474 13.1909C12.9772 13.1909 12.7743 12.895 12.6559 12.5496C12.5164 12.1527 12.2246 11.9442 11.8691 11.9442C11.4108 11.9442 11.1219 12.2383 11.1219 12.6989C11.1219 12.8885 11.1581 13.0609 11.2185 13.2338C11.4954 14.0467 12.3766 14.6635 13.3893 14.6635C14.9914 14.6635 15.8135 13.3601 15.8135 11.7534C15.8135 10.5233 15.3434 9.18666 14.0595 9.18666C13.3593 9.18666 12.949 9.59439 12.7824 10.0237L12.7358 10.0237L12.8473 8.02989L14.845 8.02989C15.3234 8.02989 15.5457 7.70369 15.5457 7.29759C15.5457 6.85365 15.2913 6.55268 14.845 6.55268ZM5.1901 8.3749C5.1901 8.85275 5.46693 9.20365 5.9597 9.20365C6.35142 9.20365 6.65349 9.0124 6.78845 8.561C6.90915 8.12591 7.07353 7.79552 7.48326 7.79552C7.9642 7.79552 8.1321 8.22587 8.1321 8.74479C8.1321 9.47326 7.63514 10.1966 7.04581 10.945L5.67826 12.674C5.32627 13.1098 5.19525 13.3861 5.19525 13.7084C5.19525 14.177 5.49447 14.451 6.06306 14.451L9.32787 14.451C9.83095 14.451 10.0458 14.0973 10.0458 13.7233C10.0458 13.3103 9.82865 12.9761 9.32787 12.9761L7.41508 12.9761L7.41508 12.898L8.56658 11.4901C9.39569 10.5013 9.91423 9.75162 9.91423 8.67643C9.91423 7.21455 8.90443 6.34014 7.48557 6.34014C6.21889 6.34014 5.1901 7.28522 5.1901 8.3749Z"
                     fill="currentColor" fill-opacity="0.85" />
       </g>
</svg>