<?xml version="1.0" encoding="UTF-8"?>
<!--Generator: Apple Native CoreSVG 326-->
<!DOCTYPE svg PUBLIC "-//W3C//DTD SVG 1.1//EN" "http://www.w3.org/Graphics/SVG/1.1/DTD/svg11.dtd">
<svg version="1.1" xmlns="http://www.w3.org/2000/svg" xmlns:xlink="http://www.w3.org/1999/xlink"
       viewBox="0 0 19.3993 19.0529">
       <g>
              <rect height="19.0529" opacity="0" width="19.3993" x="0" y="0" />
              <path d="M3.64834 19.0379L15.3896 19.0379C17.7164 19.0379 19.0379 17.7262 19.0379 15.4011L19.0379 3.63912C19.0379 1.32151 17.7164 0 15.3896 0L3.64834 0C1.32382 0 0 1.32151 0 3.63912L0 15.4011C0 17.7262 1.32382 19.0379 3.64834 19.0379ZM4.05583 16.0183C3.37024 16.0183 3.01964 15.7096 3.01964 14.9775L3.01964 4.07021C3.01964 3.33809 3.37024 3.0271 4.05583 3.0271L14.9821 3.0271C15.6654 3.0271 16.0183 3.33809 16.0183 4.07021L16.0183 14.9775C16.0183 15.7096 15.6654 16.0183 14.9821 16.0183Z"
                     fill="currentColor" fill-opacity="0.85" />
              <path d="M5.36212 13.2281L8.42252 13.2281C8.90091 13.2281 9.09107 12.9065 9.09107 12.5423C9.09107 12.1712 8.89115 11.8543 8.42252 11.8543L6.62286 11.8543L6.62286 11.7761L7.7129 10.4544C8.48803 9.51955 8.96697 8.81927 8.96697 7.81814C8.96697 6.4401 8.02377 5.62482 6.69849 5.62482C5.51564 5.62482 4.54599 6.51076 4.54599 7.53385C4.54599 7.97724 4.8056 8.30576 5.26622 8.30576C5.62579 8.30576 5.90317 8.12943 6.03298 7.70271C6.14907 7.29462 6.31114 6.97399 6.69619 6.97399C7.14268 6.97399 7.31057 7.38712 7.31057 7.87158C7.31057 8.5633 6.84577 9.23495 6.29088 9.93631L5.002 11.5671C4.67701 11.9805 4.55115 12.2321 4.55115 12.5349C4.55115 12.9714 4.83314 13.2281 5.36212 13.2281ZM12.2376 13.4257C13.7387 13.4257 14.5016 12.2061 14.5016 10.7005C14.5016 9.54678 14.0585 8.28647 12.8584 8.28647C12.2099 8.28647 11.8146 8.67697 11.6577 9.07924L11.6111 9.07924L11.7226 7.1986L13.5998 7.1986C14.046 7.1986 14.2585 6.88962 14.2585 6.51798C14.2585 6.10619 14.0115 5.82244 13.5998 5.82244L11.1231 5.82244C10.578 5.82244 10.3212 6.19177 10.2919 6.74435L10.1954 9.04709C10.1908 9.12643 10.1833 9.32745 10.1833 9.4171C10.1833 9.9374 10.4584 10.2769 10.9547 10.2769C11.2706 10.2769 11.4394 10.1919 11.6221 9.91326C11.7572 9.69545 11.9267 9.49092 12.1854 9.49092C12.6744 9.49092 12.8383 10.1885 12.8383 10.747C12.8383 11.2889 12.7094 12.0519 12.1957 12.0519C11.8428 12.0519 11.6497 11.7732 11.5336 11.4449C11.4015 11.0653 11.1344 10.8815 10.8036 10.8815C10.3699 10.8815 10.108 11.1509 10.108 11.5868C10.108 11.7592 10.1419 11.9218 10.1925 12.0873C10.4597 12.8485 11.2892 13.4257 12.2376 13.4257Z"
                     fill="currentColor" fill-opacity="0.85" />
       </g>
</svg>