<?xml version="1.0" encoding="UTF-8"?>
<!--Generator: Apple Native CoreSVG 326-->
<!DOCTYPE svg PUBLIC "-//W3C//DTD SVG 1.1//EN" "http://www.w3.org/Graphics/SVG/1.1/DTD/svg11.dtd">
<svg version="1.1" xmlns="http://www.w3.org/2000/svg" xmlns:xlink="http://www.w3.org/1999/xlink"
       viewBox="0 0 21.365 21.006">
       <g>
              <rect height="21.006" opacity="0" width="21.365" x="0" y="0" />
              <path d="M10.4981 20.9962C16.302 20.9962 21.0037 16.2946 21.0037 10.4981C21.0037 4.70163 16.302 0 10.4981 0C4.70163 0 0 4.70163 0 10.4981C0 16.2946 4.70163 20.9962 10.4981 20.9962ZM10.4981 17.9484C6.37829 17.9484 3.04785 14.6179 3.04785 10.4981C3.04785 6.37829 6.37829 3.04785 10.4981 3.04785C14.6179 3.04785 17.9558 6.37829 17.9558 10.4981C17.9558 14.6179 14.6179 17.9484 10.4981 17.9484Z"
                     fill="currentColor" fill-opacity="0.85" />
              <path d="M6.23247 14.2047L9.29287 14.2047C9.7615 14.2047 9.95912 13.8831 9.95912 13.5189C9.95912 13.1478 9.7592 12.8308 9.29287 12.8308L7.4909 12.8308L7.4909 12.7527L8.58095 11.431C9.35608 10.4961 9.83502 9.79583 9.83502 8.79471C9.83502 7.41666 8.89182 6.60138 7.56654 6.60138C6.37623 6.60138 5.41404 7.48732 5.41404 8.51041C5.41404 8.95381 5.66619 9.28232 6.13427 9.28232C6.49384 9.28232 6.77122 9.10599 6.90102 8.67928C7.01942 8.27118 7.17919 7.95056 7.56654 7.95056C8.01073 7.95056 8.17862 8.36368 8.17862 8.84814C8.17862 9.53986 7.71381 10.2115 7.15893 10.9129L5.87005 12.5437C5.54506 12.9571 5.4192 13.2087 5.4192 13.5114C5.4192 13.9479 5.70119 14.2047 6.23247 14.2047ZM13.2717 14.4023C14.736 14.4023 15.511 13.1896 15.511 11.7683C15.511 10.5693 15.018 9.40139 13.846 9.40139C13.0997 9.40139 12.6458 9.93619 12.4734 10.6119L12.4492 10.6119C12.4492 10.4684 12.4492 10.3174 12.4492 10.1762C12.4492 8.94301 12.6531 7.97985 13.2298 7.97985C13.5148 7.97985 13.6661 8.20282 13.8022 8.46377C13.9837 8.8038 14.2014 8.94798 14.5587 8.94798C15.0687 8.94798 15.2645 8.59478 15.2645 8.22029C15.2645 8.11287 15.2473 7.95838 15.218 7.84635C14.9808 7.0065 14.1932 6.60599 13.2912 6.60599C11.3541 6.60599 10.7854 8.60588 10.7854 10.5435C10.7854 12.2326 11.3191 14.4023 13.2717 14.4023ZM13.2372 13.0284C12.8181 13.0284 12.6199 12.4984 12.6199 11.8102C12.6199 11.157 12.8325 10.6673 13.2372 10.6673C13.6465 10.6673 13.8523 11.1789 13.8477 11.8493C13.8477 12.5249 13.6373 13.0284 13.2372 13.0284Z"
                     fill="currentColor" fill-opacity="0.85" />
       </g>
</svg>