<?xml version="1.0" encoding="UTF-8"?>
<!--Generator: Apple Native CoreSVG 326-->
<!DOCTYPE svg PUBLIC "-//W3C//DTD SVG 1.1//EN" "http://www.w3.org/Graphics/SVG/1.1/DTD/svg11.dtd">
<svg version="1.1" xmlns="http://www.w3.org/2000/svg" xmlns:xlink="http://www.w3.org/1999/xlink"
       viewBox="0 0 19.3993 19.0529">
       <g>
              <rect height="19.0529" opacity="0" width="19.3993" x="0" y="0" />
              <path d="M3.64834 19.0379L15.3896 19.0379C17.7164 19.0379 19.0379 17.7262 19.0379 15.4011L19.0379 3.63912C19.0379 1.32151 17.7164 0 15.3896 0L3.64834 0C1.32382 0 0 1.32151 0 3.63912L0 15.4011C0 17.7262 1.32382 19.0379 3.64834 19.0379ZM4.05583 16.0183C3.37024 16.0183 3.01964 15.7096 3.01964 14.9775L3.01964 4.07021C3.01964 3.33809 3.37024 3.0271 4.05583 3.0271L14.9821 3.0271C15.6654 3.0271 16.0183 3.33809 16.0183 4.07021L16.0183 14.9775C16.0183 15.7096 15.6654 16.0183 14.9821 16.0183Z"
                     fill="currentColor" fill-opacity="0.85" />
              <path d="M5.26052 13.2281L8.32092 13.2281C8.78955 13.2281 8.98947 12.9065 8.98947 12.5423C8.98947 12.1712 8.78724 11.8543 8.32092 11.8543L6.51149 11.8543L6.51149 11.7761L7.609 10.4544C8.38643 9.51955 8.86306 8.81927 8.86306 7.81814C8.86306 6.4401 7.92217 5.62482 6.59459 5.62482C5.40658 5.62482 4.43693 6.51076 4.43693 7.53385C4.43693 7.97724 4.69423 8.30576 5.16232 8.30576C5.52189 8.30576 5.80157 8.12943 5.92907 7.70271C6.04747 7.29462 6.20208 6.97399 6.59459 6.97399C7.03877 6.97399 7.20667 7.38712 7.20667 7.87158C7.20667 8.5633 6.7344 9.23495 6.18698 9.93631L4.9004 11.5671C4.5731 11.9805 4.44724 12.2321 4.44724 12.5349C4.44724 12.9714 4.72923 13.2281 5.26052 13.2281ZM12.2997 13.4257C13.7566 13.4257 14.539 12.213 14.539 10.7917C14.539 9.59276 14.046 8.42482 12.8665 8.42482C12.1278 8.42482 11.6738 8.95963 11.5014 9.63534L11.4773 9.63534C11.4773 9.49182 11.4773 9.34085 11.4773 9.19964C11.4773 7.96645 11.6811 7.00329 12.2578 7.00329C12.5429 7.00329 12.6866 7.22626 12.8228 7.4872C13.0141 7.82724 13.2294 7.97142 13.5867 7.97142C14.0967 7.97142 14.2926 7.61822 14.2926 7.24373C14.2926 7.13631 14.2753 6.98182 14.246 6.86979C14.0014 6.02994 13.2137 5.62943 12.3192 5.62943C10.377 5.62943 9.80596 7.62932 9.80596 9.56698C9.80596 11.256 10.3471 13.4257 12.2997 13.4257ZM12.2653 12.0519C11.8462 12.0519 11.6479 11.5219 11.6479 10.8337C11.6479 10.1805 11.8531 9.69072 12.2653 9.69072C12.6746 9.69072 12.8803 10.2023 12.8682 10.8727C12.8682 11.5483 12.6653 12.0519 12.2653 12.0519Z"
                     fill="currentColor" fill-opacity="0.85" />
       </g>
</svg>