<?xml version="1.0" encoding="UTF-8"?>
<!--Generator: Apple Native CoreSVG 326-->
<!DOCTYPE svg PUBLIC "-//W3C//DTD SVG 1.1//EN" "http://www.w3.org/Graphics/SVG/1.1/DTD/svg11.dtd">
<svg version="1.1" xmlns="http://www.w3.org/2000/svg" xmlns:xlink="http://www.w3.org/1999/xlink"
       viewBox="0 0 21.365 21.006">
       <g>
              <rect height="21.006" opacity="0" width="21.365" x="0" y="0" />
              <path d="M10.4981 20.9962C16.302 20.9962 21.0037 16.2946 21.0037 10.4981C21.0037 4.70163 16.302 0 10.4981 0C4.70163 0 0 4.70163 0 10.4981C0 16.2946 4.70163 20.9962 10.4981 20.9962ZM10.4981 17.9484C6.37829 17.9484 3.04785 14.6179 3.04785 10.4981C3.04785 6.37829 6.37829 3.04785 10.4981 3.04785C14.6179 3.04785 17.9558 6.37829 17.9558 10.4981C17.9558 14.6179 14.6179 17.9484 10.4981 17.9484Z"
                     fill="currentColor" fill-opacity="0.85" />
              <path d="M6.66107 14.2047L9.72147 14.2047C10.1924 14.2047 10.39 13.8831 10.39 13.5189C10.39 13.1478 10.1901 12.8308 9.72147 12.8308L7.9218 12.8308L7.9218 12.7527L9.01185 11.431C9.78698 10.4961 10.2659 9.79583 10.2659 8.79471C10.2659 7.41666 9.32272 6.60138 7.99744 6.60138C6.80713 6.60138 5.84494 7.48732 5.84494 8.51041C5.84494 8.95381 6.09709 9.28232 6.56517 9.28232C6.92474 9.28232 7.20212 9.10599 7.33192 8.67928C7.44802 8.27118 7.61009 7.95056 7.99514 7.95056C8.44163 7.95056 8.60952 8.36368 8.60952 8.84814C8.60952 9.53986 8.14471 10.2115 7.58983 10.9129L6.30095 12.5437C5.97596 12.9571 5.8501 13.2087 5.8501 13.5114C5.8501 13.9479 6.13209 14.2047 6.66107 14.2047ZM12.546 14.3339C13.0044 14.3339 13.2054 14.1501 13.3421 13.7687L15.1509 8.61001C15.2732 8.27743 15.3439 8.00575 15.3439 7.6554C15.3439 7.13158 14.9498 6.799 14.4358 6.799L11.6694 6.799C11.233 6.799 10.9911 7.11029 10.9911 7.48708C10.9911 7.88626 11.2553 8.17517 11.6694 8.17517L13.56 8.17517L13.56 8.27798L11.8718 12.9509C11.7914 13.1657 11.7448 13.3449 11.7448 13.5942C11.7448 13.9371 11.9602 14.3339 12.546 14.3339Z"
                     fill="currentColor" fill-opacity="0.85" />
       </g>
</svg>