<?xml version="1.0" encoding="UTF-8"?>
<!--Generator: Apple Native CoreSVG 326-->
<!DOCTYPE svg PUBLIC "-//W3C//DTD SVG 1.1//EN" "http://www.w3.org/Graphics/SVG/1.1/DTD/svg11.dtd">
<svg version="1.1" xmlns="http://www.w3.org/2000/svg" xmlns:xlink="http://www.w3.org/1999/xlink"
       viewBox="0 0 21.365 21.006">
       <g>
              <rect height="21.006" opacity="0" width="21.365" x="0" y="0" />
              <path d="M21.0037 10.4981C21.0037 16.2923 16.302 20.9962 10.4981 20.9962C4.70394 20.9962 0 16.2923 0 10.4981C0 4.70163 4.70394 0 10.4981 0C16.302 0 21.0037 4.70163 21.0037 10.4981ZM10.8981 8.50471C10.8981 9.47787 11.5105 10.0759 12.1624 10.2787L12.1624 10.3154C11.318 10.4883 10.6861 11.3092 10.6861 12.3209C10.6861 13.7628 11.804 14.6566 13.321 14.6566C14.8107 14.6566 15.9704 13.8172 15.9704 12.3283C15.9704 11.3218 15.3843 10.501 14.5038 10.3154L14.5038 10.2787C15.2447 10.0437 15.7658 9.36706 15.7658 8.51447C15.7658 7.20072 14.7468 6.35682 13.321 6.35682C12.0337 6.35682 10.8981 7.09615 10.8981 8.50471ZM5.01444 8.3749C5.01444 8.85275 5.29643 9.20595 5.7915 9.20595C6.18552 9.20595 6.47783 9.0124 6.61509 8.561C6.73349 8.12591 6.90533 7.79552 7.31737 7.79552C7.78624 7.79552 7.95644 8.22587 7.95644 8.74479C7.95644 9.47326 7.46464 10.1966 6.87761 10.945L5.5049 12.674C5.16038 13.1196 5.01729 13.3861 5.01729 13.7084C5.01729 14.177 5.32397 14.451 5.89717 14.451L9.15452 14.451C9.66275 14.451 9.8799 14.0973 9.8799 13.7233C9.8799 13.3103 9.65299 12.9761 9.15452 12.9761L7.24919 12.9761L7.24919 12.898L8.39838 11.4901C9.22002 10.5013 9.74373 9.75162 9.74373 8.67643C9.74373 7.21455 8.73623 6.34014 7.31967 6.34014C6.05299 6.34014 5.01444 7.28522 5.01444 8.3749ZM14.0068 12.1739C14.0068 12.8512 13.7573 13.3241 13.321 13.3241C12.8894 13.3241 12.6549 12.8512 12.6549 12.1739C12.6549 11.5183 12.8894 11.0477 13.321 11.0477C13.7504 11.0477 14.0068 11.5091 14.0068 12.1739ZM13.9395 8.70342C13.9395 9.30779 13.7194 9.72268 13.321 9.72268C12.9399 9.72268 12.7296 9.2842 12.7296 8.70342C12.7296 8.11111 12.9497 7.67954 13.321 7.67954C13.7217 7.67954 13.9395 8.11111 13.9395 8.70342Z"
                     fill="currentColor" fill-opacity="0.85" />
       </g>
</svg>