<?xml version="1.0" encoding="UTF-8"?>
<!--Generator: Apple Native CoreSVG 326-->
<!DOCTYPE svg PUBLIC "-//W3C//DTD SVG 1.1//EN" "http://www.w3.org/Graphics/SVG/1.1/DTD/svg11.dtd">
<svg version="1.1" xmlns="http://www.w3.org/2000/svg" xmlns:xlink="http://www.w3.org/1999/xlink"
       viewBox="0 0 21.365 21.006">
       <g>
              <rect height="21.006" opacity="0" width="21.365" x="0" y="0" />
              <path d="M10.4981 20.9962C16.302 20.9962 21.0037 16.2946 21.0037 10.4981C21.0037 4.70163 16.302 0 10.4981 0C4.70163 0 0 4.70163 0 10.4981C0 16.2946 4.70163 20.9962 10.4981 20.9962ZM10.4981 17.9484C6.37829 17.9484 3.04785 14.6179 3.04785 10.4981C3.04785 6.37829 6.37829 3.04785 10.4981 3.04785C14.6179 3.04785 17.9558 6.37829 17.9558 10.4981C17.9558 14.6179 14.6179 17.9484 10.4981 17.9484Z"
                     fill="currentColor" fill-opacity="0.85" />
              <path d="M6.28591 14.2047L9.34631 14.2047C9.8224 14.2047 10.0126 13.8831 10.0126 13.5189C10.0126 13.1478 9.8201 12.8308 9.34631 12.8308L7.54434 12.8308L7.54434 12.7527L8.63439 11.431C9.41182 10.4961 9.89592 9.79583 9.89592 8.79471C9.89592 7.41666 8.94756 6.60138 7.62744 6.60138C6.43943 6.60138 5.46978 7.48732 5.46978 8.51041C5.46978 8.95381 5.72709 9.28232 6.18771 9.28232C6.55474 9.28232 6.83442 9.10599 6.96192 8.67928C7.07286 8.27118 7.23263 7.95056 7.61998 7.95056C8.06416 7.95056 8.23206 8.36368 8.23206 8.84814C8.23206 9.53986 7.76725 10.2115 7.21237 10.9129L5.9258 12.5437C5.5985 12.9571 5.47263 13.2087 5.47263 13.5114C5.47263 13.9479 5.75462 14.2047 6.28591 14.2047ZM12.4946 11.6069C13.2432 11.6069 13.6971 11.0721 13.8695 10.3964L13.8936 10.3964C13.8936 10.5399 13.8936 10.6909 13.8936 10.8321C13.8936 12.0653 13.6898 13.0336 13.1108 13.0336C12.8579 13.0336 12.6992 12.8801 12.5458 12.5571C12.3718 12.205 12.1392 12.0632 11.7865 12.0632C11.2719 12.0632 11.0737 12.4112 11.0737 12.7857C11.0737 12.8954 11.0956 13.0499 11.1249 13.1671C11.3672 14.0018 12.1572 14.4075 13.0517 14.4075C14.9939 14.4075 15.565 12.407 15.565 10.4647C15.565 8.77572 15.0238 6.60599 13.0712 6.60599C11.6167 6.60599 10.8319 7.81869 10.8319 9.23998C10.8319 10.439 11.3249 11.6069 12.4946 11.6069ZM13.1057 10.3536C12.6963 10.3536 12.4929 9.85182 12.4929 9.17393C12.4929 8.50119 12.7056 7.99247 13.1057 7.99247C13.5247 7.99247 13.723 8.50865 13.723 9.20377C13.723 9.86619 13.5178 10.3536 13.1057 10.3536Z"
                     fill="currentColor" fill-opacity="0.85" />
       </g>
</svg>