<?xml version="1.0" encoding="UTF-8"?>
<!--Generator: Apple Native CoreSVG 326-->
<!DOCTYPE svg PUBLIC "-//W3C//DTD SVG 1.1//EN" "http://www.w3.org/Graphics/SVG/1.1/DTD/svg11.dtd">
<svg version="1.1" xmlns="http://www.w3.org/2000/svg" xmlns:xlink="http://www.w3.org/1999/xlink"
       viewBox="0 0 21.365 24.1601">
       <g>
              <rect height="24.1601" opacity="0" width="21.365" x="0" y="0" />
              <path d="M10.4981 22.5733C16.302 22.5733 21.0037 17.8642 21.0037 12.0752C21.0037 7.10513 17.5277 2.92787 12.8902 1.85959L12.8902 0.808605C12.8902-0.0138912 12.1356-0.212055 11.5664 0.22849L8.26694 2.75918C7.86248 3.05907 7.86479 3.60988 8.26694 3.91492L11.5687 6.43816C12.1356 6.86894 12.8902 6.67823 12.8902 5.8655L12.8902 5.02627C15.8384 6.01763 17.9558 8.78179 17.9558 12.0752C17.9558 16.195 14.6179 19.5254 10.4981 19.5254C6.37829 19.5254 3.04785 16.195 3.04785 12.0752C3.04785 9.95596 3.89279 8.15388 5.35132 6.73665C5.99045 6.03849 6.20694 5.13933 5.55992 4.4382C4.9875 3.82376 4.02799 3.76626 3.25511 4.53101C1.14591 6.50409 0 9.28511 0 12.0752C0 17.8642 4.70163 22.5733 10.4981 22.5733Z"
                     fill="currentColor" fill-opacity="0.85" />
              <path d="M7.49248 15.9087C8.92803 15.9087 10.1676 15.1607 10.1676 13.7441C10.1676 12.6435 9.42541 12.1396 8.63888 12.0592L8.63888 12.0172C9.34389 11.8443 9.91369 11.2554 9.91369 10.3759C9.91369 9.13626 8.92845 8.38606 7.45572 8.38606C6.34705 8.38606 5.34987 8.98638 5.13502 9.85036C5.09826 9.96524 5.08619 10.0847 5.08619 10.2094C5.08619 10.6613 5.37158 10.9302 5.85404 10.9302C6.24576 10.9302 6.54837 10.7934 6.68563 10.3989C6.84134 10.0069 7.07298 9.79601 7.47295 9.79601C7.92581 9.79601 8.17698 10.1264 8.17698 10.5793C8.17698 11.1429 7.85284 11.4659 7.30178 11.4659L7.17525 11.4659C6.67908 11.4659 6.49123 11.7582 6.49123 12.0908C6.49123 12.51 6.76346 12.7231 7.17525 12.7231L7.30639 12.7231C7.92581 12.7231 8.31546 12.9903 8.31546 13.6184C8.31546 14.1551 7.97639 14.4694 7.49479 14.4694C7.04247 14.4694 6.78384 14.2522 6.60806 13.8643C6.43634 13.5036 6.16927 13.3376 5.77877 13.3376C5.2883 13.3376 4.9644 13.6294 4.9644 14.1175C4.9644 14.2944 5.00631 14.4638 5.07291 14.6258C5.43642 15.5226 6.50209 15.9087 7.49248 15.9087ZM13.5732 15.9087C15.5096 15.9087 16.2604 14.1025 16.2604 12.1316C16.2604 10.1704 15.5096 8.37915 13.5732 8.37915C11.6172 8.37915 10.8762 10.1877 10.8762 12.1316C10.8762 14.0899 11.6344 15.9087 13.5732 15.9087ZM13.5732 14.4545C13.0364 14.4545 12.7605 13.6115 12.7605 12.1316C12.7605 10.6689 13.0364 9.83562 13.5732 9.83562C14.1002 9.83562 14.3836 10.6689 14.3836 12.1316C14.3836 13.6115 14.1002 14.4545 13.5732 14.4545Z"
                     fill="currentColor" fill-opacity="0.85" />
       </g>
</svg>