<?xml version="1.0" encoding="UTF-8"?>
<!--Generator: Apple Native CoreSVG 326-->
<!DOCTYPE svg PUBLIC "-//W3C//DTD SVG 1.1//EN" "http://www.w3.org/Graphics/SVG/1.1/DTD/svg11.dtd">
<svg version="1.1" xmlns="http://www.w3.org/2000/svg" xmlns:xlink="http://www.w3.org/1999/xlink"
       viewBox="0 0 21.365 21.006">
       <g>
              <rect height="21.006" opacity="0" width="21.365" x="0" y="0" />
              <path d="M21.0037 10.4981C21.0037 16.2923 16.302 20.9962 10.4981 20.9962C4.70394 20.9962 0 16.2923 0 10.4981C0 4.70163 4.70394 0 10.4981 0C16.302 0 21.0037 4.70163 21.0037 10.4981ZM10.867 10.4958C10.867 12.4823 11.4851 14.6612 13.5117 14.6612C15.5458 14.6612 16.1639 12.4823 16.1639 10.4958C16.1639 8.50932 15.5458 6.33037 13.5117 6.33037C11.4851 6.33037 10.867 8.50932 10.867 10.4958ZM5.07534 7.82166C5.0242 7.99459 5.00467 8.18014 5.00467 8.36107C5.00467 8.72064 5.22182 9.10599 5.77889 9.10599C6.16029 9.10599 6.51974 8.97673 6.62486 8.56033C6.72888 8.18099 6.93924 7.81735 7.35643 7.81735C7.81905 7.81735 7.99726 8.27294 7.99726 8.75049C7.99726 9.28893 7.76616 9.80366 7.1485 9.80366L7.04096 9.80366C6.56256 9.80366 6.3351 10.0558 6.3351 10.4527C6.3351 10.8519 6.55741 11.1092 7.04096 11.1092L7.15827 11.1092C7.84604 11.1092 8.16558 11.4786 8.16558 12.1733C8.16558 12.6629 7.946 13.1743 7.38057 13.1743C6.93165 13.1743 6.70638 12.8725 6.58173 12.5203C6.437 12.0987 6.15501 11.8879 5.73576 11.8879C5.22346 11.8879 4.89264 12.1969 4.89264 12.7017C4.89264 12.9022 4.92194 13.0929 4.97823 13.2515C5.26373 14.1666 6.2719 14.6394 7.39549 14.6394C8.92287 14.6394 9.99885 13.7387 9.99885 12.287C9.99885 11.216 9.39611 10.5187 8.52412 10.4159L8.52412 10.3694C9.21081 10.1924 9.76963 9.47885 9.76963 8.54201C9.76963 7.16045 8.76947 6.35451 7.33405 6.35451C6.32643 6.35451 5.36084 6.88822 5.07534 7.82166ZM14.2491 10.4958C14.2491 12.1543 14.0411 13.1542 13.5117 13.1542C12.9847 13.1542 12.7767 12.1543 12.7767 10.4958C12.7767 8.83498 12.9847 7.83513 13.5117 7.83513C14.0411 7.83513 14.2491 8.83498 14.2491 10.4958Z"
                     fill="currentColor" fill-opacity="0.85" />
       </g>
</svg>