<?xml version="1.0" encoding="UTF-8"?>
<!--Generator: Apple Native CoreSVG 326-->
<!DOCTYPE svg PUBLIC "-//W3C//DTD SVG 1.1//EN" "http://www.w3.org/Graphics/SVG/1.1/DTD/svg11.dtd">
<svg version="1.1" xmlns="http://www.w3.org/2000/svg" xmlns:xlink="http://www.w3.org/1999/xlink"
       viewBox="0 0 19.3993 19.0529">
       <g>
              <rect height="19.0529" opacity="0" width="19.3993" x="0" y="0" />
              <path d="M3.64834 19.0379L15.3896 19.0379C17.7164 19.0379 19.0379 17.7262 19.0379 15.4011L19.0379 3.63912C19.0379 1.32151 17.7164 0 15.3896 0L3.64834 0C1.32382 0 0 1.32151 0 3.63912L0 15.4011C0 17.7262 1.32382 19.0379 3.64834 19.0379ZM4.05583 16.0183C3.37024 16.0183 3.01964 15.7096 3.01964 14.9775L3.01964 4.07021C3.01964 3.33809 3.37024 3.0271 4.05583 3.0271L14.9821 3.0271C15.6654 3.0271 16.0183 3.33809 16.0183 4.07021L16.0183 14.9775C16.0183 15.7096 15.6654 16.0183 14.9821 16.0183Z"
                     fill="currentColor" fill-opacity="0.85" />
              <path d="M6.77037 13.4114C8.1967 13.4114 9.21354 12.5698 9.21354 11.1944C9.21354 10.1924 8.63779 9.54447 7.8324 9.44166L7.8324 9.4049C8.47487 9.23768 8.99408 8.56603 8.99408 7.69349C8.99408 6.39806 8.06052 5.6415 6.71639 5.6415C5.76275 5.6415 4.86146 6.14076 4.60295 7.01736C4.55181 7.17307 4.52482 7.34885 4.52482 7.52232C4.52482 7.85951 4.73221 8.21787 5.25482 8.21787C5.61154 8.21787 5.93884 8.09837 6.05141 7.69689C6.14052 7.34454 6.33365 7.00559 6.73131 7.00559C7.1744 7.00559 7.34515 7.4365 7.34515 7.87959C7.34515 8.39104 7.12381 8.87131 6.5406 8.87131L6.44052 8.87131C5.99658 8.87131 5.77658 9.1137 5.77658 9.48072C5.77658 9.86268 5.99142 10.093 6.44052 10.093L6.55037 10.093C7.19393 10.093 7.49624 10.4475 7.49624 11.0957C7.49624 11.5681 7.28413 12.0473 6.76291 12.0473C6.33353 12.0473 6.11802 11.7478 6.00598 11.418C5.87333 11.0309 5.60856 10.8275 5.21169 10.8275C4.73384 10.8275 4.42771 11.1216 4.42771 11.592C4.42771 11.7827 4.45701 11.951 4.50584 12.1073C4.77412 12.9632 5.72314 13.4114 6.77037 13.4114ZM10.7618 13.2281L13.8245 13.2281C14.3006 13.2281 14.4907 12.9065 14.4907 12.5423C14.4907 12.1712 14.2908 11.8543 13.8245 11.8543L12.0225 11.8543L12.0225 11.7761L13.1126 10.4544C13.8877 9.51955 14.3666 8.81927 14.3666 7.81814C14.3666 6.4401 13.4234 5.62482 12.0982 5.62482C10.9153 5.62482 9.94565 6.51076 9.94565 7.53385C9.94565 7.97724 10.2053 8.30576 10.6659 8.30576C11.0255 8.30576 11.3028 8.12943 11.4326 7.70271C11.5487 7.29462 11.7108 6.97399 12.0982 6.97399C12.5423 6.97399 12.7102 7.38712 12.7102 7.87158C12.7102 8.5633 12.2454 9.23495 11.6905 9.93631L10.4017 11.5671C10.0767 11.9805 9.95081 12.2321 9.95081 12.5349C9.95081 12.9714 10.2328 13.2281 10.7618 13.2281Z"
                     fill="currentColor" fill-opacity="0.85" />
       </g>
</svg>