<?xml version="1.0" encoding="UTF-8"?>
<!--Generator: Apple Native CoreSVG 326-->
<!DOCTYPE svg PUBLIC "-//W3C//DTD SVG 1.1//EN" "http://www.w3.org/Graphics/SVG/1.1/DTD/svg11.dtd">
<svg version="1.1" xmlns="http://www.w3.org/2000/svg" xmlns:xlink="http://www.w3.org/1999/xlink"
       viewBox="0 0 21.365 21.006">
       <g>
              <rect height="21.006" opacity="0" width="21.365" x="0" y="0" />
              <path d="M21.0037 10.4981C21.0037 16.2923 16.302 20.9962 10.4981 20.9962C4.70394 20.9962 0 16.2923 0 10.4981C0 4.70163 4.70394 0 10.4981 0C16.302 0 21.0037 4.70163 21.0037 10.4981ZM5.2103 7.82397C5.1517 7.9969 5.13217 8.18014 5.13217 8.36338C5.13217 8.73271 5.35448 9.1083 5.90408 9.1083C6.29295 9.1083 6.64493 8.98134 6.75751 8.56264C6.85638 8.18329 7.05697 7.81966 7.48908 7.81966C7.95171 7.81966 8.12991 8.27525 8.12991 8.75279C8.12991 9.29124 7.90112 9.80596 7.27369 9.80596L7.17361 9.80596C6.69752 9.80596 6.4603 10.0581 6.4603 10.4573C6.4603 10.8565 6.69237 11.1115 7.17361 11.1115L7.28346 11.1115C7.9787 11.1115 8.29823 11.4832 8.29823 12.1733C8.29823 12.6652 8.07635 13.1863 7.51322 13.1863C7.06431 13.1863 6.83903 12.8771 6.71208 12.5226C6.56966 12.101 6.28767 11.8902 5.86095 11.8902C5.35611 11.8902 5.0253 12.2015 5.0253 12.704C5.0253 12.9045 5.05459 13.0952 5.10342 13.2612C5.38893 14.1689 6.40686 14.6492 7.52069 14.6492C9.0406 14.6492 10.1315 13.7484 10.1315 12.2893C10.1315 11.2183 9.5213 10.521 8.65677 10.4182L8.65677 10.374C9.34116 10.197 9.89713 9.48115 9.89713 8.54432C9.89713 7.16275 8.89467 6.36428 7.45924 6.36428C6.44647 6.36428 5.48604 6.89799 5.2103 7.82397ZM11.1623 7.82397C11.1135 7.9969 11.0916 8.18014 11.0916 8.36338C11.0916 8.73271 11.3088 9.1083 11.8658 9.1083C12.2449 9.1083 12.6067 8.98134 12.729 8.56264C12.8158 8.18329 13.0187 7.81966 13.4411 7.81966C13.9112 7.81966 14.0842 8.27525 14.0842 8.75279C14.0842 9.29124 13.8531 9.80596 13.2355 9.80596L13.1331 9.80596C12.6518 9.80596 12.4198 10.0581 12.4198 10.4573C12.4198 10.8565 12.6444 11.1115 13.1331 11.1115L13.2475 11.1115C13.9405 11.1115 14.2525 11.4832 14.2525 12.1733C14.2525 12.6652 14.033 13.1863 13.4675 13.1863C13.0209 13.1863 12.7933 12.8771 12.6664 12.5226C12.524 12.101 12.2494 11.8902 11.8227 11.8902C11.3127 11.8902 10.9796 12.2015 10.9796 12.704C10.9796 12.9045 11.0089 13.0952 11.0652 13.2612C11.3582 14.1689 12.3686 14.6492 13.475 14.6492C15.0098 14.6492 16.0858 13.7484 16.0858 12.2893C16.0858 11.2183 15.4831 10.521 14.6185 10.4182L14.6185 10.374C15.2978 10.197 15.8566 9.48115 15.8566 8.54432C15.8566 7.16275 14.8587 6.36428 13.4187 6.36428C12.4134 6.36428 11.4478 6.89799 11.1623 7.82397Z"
                     fill="currentColor" fill-opacity="0.85" />
       </g>
</svg>