<?xml version="1.0" encoding="UTF-8"?>
<!--Generator: Apple Native CoreSVG 326-->
<!DOCTYPE svg PUBLIC "-//W3C//DTD SVG 1.1//EN" "http://www.w3.org/Graphics/SVG/1.1/DTD/svg11.dtd">
<svg version="1.1" xmlns="http://www.w3.org/2000/svg" xmlns:xlink="http://www.w3.org/1999/xlink"
       viewBox="0 0 21.365 21.006">
       <g>
              <rect height="21.006" opacity="0" width="21.365" x="0" y="0" />
              <path d="M21.0037 10.4981C21.0037 16.2923 16.302 20.9962 10.4981 20.9962C4.70394 20.9962 0 16.2923 0 10.4981C0 4.70163 4.70394 0 10.4981 0C16.302 0 21.0037 4.70163 21.0037 10.4981ZM5.03561 7.82397C4.98678 7.9969 4.95002 8.18014 4.95002 8.36338C4.95002 8.73271 5.18209 9.1083 5.73916 9.1083C6.11826 9.1083 6.46509 8.98134 6.58743 8.56264C6.68915 8.18329 6.89205 7.81966 7.3167 7.81966C7.77702 7.81966 7.95753 8.27525 7.95753 8.75279C7.95753 9.29124 7.72643 9.80596 7.10131 9.80596L6.99146 9.80596C6.52283 9.80596 6.27815 10.0581 6.27815 10.4573C6.27815 10.8565 6.51768 11.1115 6.99146 11.1115L7.12084 11.1115C7.79655 11.1115 8.12585 11.4832 8.12585 12.1733C8.12585 12.6652 7.90628 13.1863 7.34084 13.1863C6.89423 13.1863 6.66665 12.8771 6.5397 12.5226C6.39728 12.101 6.10782 11.8902 5.68857 11.8902C5.18373 11.8902 4.85291 12.2015 4.85291 12.704C4.85291 12.9045 4.88221 13.0952 4.93104 13.2612C5.21654 14.1689 6.22701 14.6492 7.3483 14.6492C8.86822 14.6492 9.95912 13.7484 9.95912 12.2893C9.95912 11.2183 9.35638 10.521 8.48439 10.4182L8.48439 10.374C9.17108 10.197 9.72244 9.48115 9.72244 8.54432C9.72244 7.16275 8.73205 6.36428 7.29432 6.36428C6.27924 6.36428 5.32111 6.89799 5.03561 7.82397ZM12.0636 8.17304L11.0128 10.8632C10.852 11.2762 10.7658 11.6742 10.7658 12.0389C10.7658 12.7137 11.1501 13.0756 11.8421 13.0756L13.5608 13.0756L13.5608 13.6762C13.5608 14.3178 13.9841 14.5854 14.4556 14.5854C14.9535 14.5854 15.3504 14.3212 15.3504 13.6762L15.3504 13.0756L15.4856 13.0756C16.0404 13.0756 16.2087 12.7172 16.2087 12.3306C16.2087 11.8741 15.9928 11.5903 15.508 11.5903L15.3504 11.5903L15.3504 7.80298C15.3504 6.9208 14.7795 6.43318 13.9117 6.43318C12.7609 6.43318 12.3916 7.26454 12.0636 8.17304ZM13.62 11.642L12.3045 11.642L12.3045 11.5737L13.5884 7.90415L13.62 7.90415Z"
                     fill="currentColor" fill-opacity="0.85" />
       </g>
</svg>