<?xml version="1.0" encoding="UTF-8"?>
<!--Generator: Apple Native CoreSVG 326-->
<!DOCTYPE svg PUBLIC "-//W3C//DTD SVG 1.1//EN" "http://www.w3.org/Graphics/SVG/1.1/DTD/svg11.dtd">
<svg version="1.1" xmlns="http://www.w3.org/2000/svg" xmlns:xlink="http://www.w3.org/1999/xlink"
       viewBox="0 0 19.3993 19.0529">
       <g>
              <rect height="19.0529" opacity="0" width="19.3993" x="0" y="0" />
              <path d="M19.0379 3.63912L19.0379 15.4011C19.0379 17.7262 17.7164 19.0379 15.3896 19.0379L3.64834 19.0379C1.32382 19.0379 0 17.7262 0 15.4011L0 3.63912C0 1.32151 1.32382 0 3.64834 0L15.3896 0C17.7164 0 19.0379 1.32151 19.0379 3.63912ZM11.4069 5.57611C10.8101 5.57611 10.5458 5.97013 10.5142 6.56462L10.4102 9.01264C10.4079 9.10175 10.4005 9.31768 10.4005 9.40217C10.4005 9.96955 10.6904 10.3263 11.2189 10.3263C11.5669 10.3263 11.7479 10.2338 11.9306 9.93795C12.0754 9.70291 12.2622 9.49092 12.5357 9.49092C13.0466 9.49092 13.2179 10.2304 13.2179 10.8308C13.2179 11.3946 13.0891 12.2144 12.546 12.2144C12.1759 12.2144 11.9656 11.9184 11.8495 11.573C11.7076 11.1664 11.4256 10.9676 11.0626 10.9676C10.5922 10.9676 10.3206 11.2617 10.3206 11.7223C10.3206 11.9119 10.3591 12.0843 10.4074 12.2573C10.6843 13.0701 11.5753 13.687 12.588 13.687C14.1901 13.687 15.0144 12.3835 15.0144 10.7768C15.0144 9.54678 14.5294 8.2101 13.2604 8.2101C12.5603 8.2101 12.1403 8.61783 11.9736 9.04479L11.9247 9.04479L12.0483 7.05333L14.0437 7.05333C14.5146 7.05333 14.7369 6.72712 14.7369 6.32103C14.7369 5.87709 14.4899 5.57611 14.0437 5.57611ZM4.27389 6.8474C4.22506 7.02033 4.19576 7.20358 4.19576 7.38682C4.19576 7.74123 4.41061 8.13173 4.97744 8.13173C5.34908 8.13173 5.71083 8.00478 5.82341 7.58607C5.91997 7.20673 6.13033 6.8431 6.54521 6.8431C7.01014 6.8431 7.19581 7.29868 7.19581 7.77623C7.19581 8.30721 6.95725 8.8294 6.33959 8.8294L6.22974 8.8294C5.76342 8.8294 5.52389 9.08155 5.52389 9.48072C5.52389 9.8799 5.7485 10.1349 6.22974 10.1349L6.35912 10.1349C7.0446 10.1349 7.35437 10.5067 7.35437 11.1967C7.35437 11.6887 7.13479 12.2098 6.57912 12.2098C6.12275 12.2098 5.89516 11.9005 5.77798 11.5437C5.6281 11.1244 5.34611 10.9137 4.93431 10.9137C4.41455 10.9137 4.08889 11.2249 4.08889 11.7275C4.08889 11.928 4.11072 12.1187 4.17678 12.2698C4.45252 13.1923 5.46529 13.6726 6.58428 13.6726C8.11396 13.6726 9.1974 12.7719 9.1974 11.3127C9.1974 10.2418 8.5872 9.54447 7.73013 9.44166L7.73013 9.39514C8.39959 9.22045 8.96072 8.50459 8.96072 7.56775C8.96072 6.18619 7.96056 5.38772 6.53029 5.38772C5.51752 5.38772 4.55194 5.92143 4.27389 6.8474Z"
                     fill="currentColor" fill-opacity="0.85" />
       </g>
</svg>