<?xml version="1.0" encoding="UTF-8"?>
<!--Generator: Apple Native CoreSVG 326-->
<!DOCTYPE svg PUBLIC "-//W3C//DTD SVG 1.1//EN" "http://www.w3.org/Graphics/SVG/1.1/DTD/svg11.dtd">
<svg version="1.1" xmlns="http://www.w3.org/2000/svg" xmlns:xlink="http://www.w3.org/1999/xlink"
       viewBox="0 0 19.3993 19.0529">
       <g>
              <rect height="19.0529" opacity="0" width="19.3993" x="0" y="0" />
              <path d="M3.64834 19.0379L15.3896 19.0379C17.7164 19.0379 19.0379 17.7262 19.0379 15.4011L19.0379 3.63912C19.0379 1.32151 17.7164 0 15.3896 0L3.64834 0C1.32382 0 0 1.32151 0 3.63912L0 15.4011C0 17.7262 1.32382 19.0379 3.64834 19.0379ZM4.05583 16.0183C3.37024 16.0183 3.01964 15.7096 3.01964 14.9775L3.01964 4.07021C3.01964 3.33809 3.37024 3.0271 4.05583 3.0271L14.9821 3.0271C15.6654 3.0271 16.0183 3.33809 16.0183 4.07021L16.0183 14.9775C16.0183 15.7096 15.6654 16.0183 14.9821 16.0183Z"
                     fill="currentColor" fill-opacity="0.85" />
              <path d="M6.68873 13.4114C8.11736 13.4114 9.13189 12.5698 9.13189 11.1944C9.13189 10.1924 8.56591 9.54447 7.75306 9.44166L7.75306 9.4049C8.39322 9.23768 8.91244 8.56603 8.91244 7.69349C8.91244 6.39806 7.98119 5.6415 6.63705 5.6415C5.68857 5.6415 4.78213 6.14076 4.5213 7.01736C4.47248 7.17307 4.45294 7.34885 4.45294 7.52232C4.45294 7.85951 4.66033 8.21787 5.17548 8.21787C5.52989 8.21787 5.86696 8.09837 5.97208 7.69689C6.06118 7.34454 6.25946 7.00559 6.65197 7.00559C7.09506 7.00559 7.2635 7.4365 7.2635 7.87959C7.2635 8.39104 7.04447 8.87131 6.46127 8.87131L6.36118 8.87131C5.91724 8.87131 5.69494 9.1137 5.69494 9.48072C5.69494 9.86268 5.91209 10.093 6.36118 10.093L6.47103 10.093C7.12205 10.093 7.4169 10.4475 7.4169 11.0957C7.4169 11.5681 7.21225 12.0473 6.68357 12.0473C6.25419 12.0473 6.04383 11.7478 5.92665 11.418C5.79399 11.0309 5.52692 10.8275 5.13235 10.8275C4.65451 10.8275 4.34837 11.1216 4.34837 11.592C4.34837 11.7827 4.37537 11.951 4.4265 12.1073C4.69248 12.9632 5.64381 13.4114 6.68873 13.4114ZM12.464 13.4257C13.926 13.4257 14.7107 12.213 14.7107 10.7917C14.7107 9.59276 14.2154 8.42482 13.0383 8.42482C12.2995 8.42482 11.8432 8.95963 11.6657 9.63534L11.649 9.63534C11.649 9.49182 11.649 9.34085 11.649 9.19964C11.649 7.96645 11.8506 7.00329 12.4295 7.00329C12.7123 7.00329 12.8561 7.22626 12.9945 7.4872C13.176 7.82724 13.3914 7.97142 13.7487 7.97142C14.2661 7.97142 14.4568 7.61822 14.4568 7.24373C14.4568 7.13631 14.4448 6.98182 14.408 6.86979C14.1731 6.02994 13.3832 5.62943 12.4887 5.62943C10.5464 5.62943 9.97537 7.62932 9.97537 9.56698C9.97537 11.256 10.5114 13.4257 12.464 13.4257ZM12.437 12.0519C12.0156 12.0519 11.8196 11.5219 11.8196 10.8337C11.8196 10.1805 12.0225 9.69072 12.4347 9.69072C12.844 9.69072 13.0497 10.2023 13.0377 10.8727C13.0377 11.5483 12.8348 12.0519 12.437 12.0519Z"
                     fill="currentColor" fill-opacity="0.85" />
       </g>
</svg>