<?xml version="1.0" encoding="UTF-8"?>
<!--Generator: Apple Native CoreSVG 326-->
<!DOCTYPE svg PUBLIC "-//W3C//DTD SVG 1.1//EN" "http://www.w3.org/Graphics/SVG/1.1/DTD/svg11.dtd">
<svg version="1.1" xmlns="http://www.w3.org/2000/svg" xmlns:xlink="http://www.w3.org/1999/xlink"
       viewBox="0 0 21.365 21.006">
       <g>
              <rect height="21.006" opacity="0" width="21.365" x="0" y="0" />
              <path d="M10.4981 20.9962C16.302 20.9962 21.0037 16.2946 21.0037 10.4981C21.0037 4.70163 16.302 0 10.4981 0C4.70163 0 0 4.70163 0 10.4981C0 16.2946 4.70163 20.9962 10.4981 20.9962ZM10.4981 17.9484C6.37829 17.9484 3.04785 14.6179 3.04785 10.4981C3.04785 6.37829 6.37829 3.04785 10.4981 3.04785C14.6179 3.04785 17.9558 6.37829 17.9558 10.4981C17.9558 14.6179 14.6179 17.9484 10.4981 17.9484Z"
                     fill="currentColor" fill-opacity="0.85" />
              <path d="M7.98822 14.3879C9.41685 14.3879 10.4314 13.5463 10.4314 12.171C10.4314 11.169 9.85795 10.521 9.05025 10.4182L9.05025 10.3815C9.69272 10.2142 10.2119 9.54259 10.2119 8.67006C10.2119 7.37463 9.27322 6.61806 7.93424 6.61806C6.9806 6.61806 6.08162 7.11732 5.8208 7.99392C5.77197 8.14963 5.74267 8.32541 5.74267 8.49889C5.74267 8.83607 5.95006 9.19443 6.47498 9.19443C6.82939 9.19443 7.15899 9.07494 7.27157 8.67345C7.36068 8.3211 7.5515 7.98216 7.94916 7.98216C8.39456 7.98216 8.563 8.41306 8.563 8.85615C8.563 9.3676 8.34166 9.84788 7.75846 9.84788L7.65091 9.84788C7.21674 9.84788 6.98697 10.0903 6.98697 10.4573C6.98697 10.8392 7.20182 11.0695 7.65091 11.0695L7.77053 11.0695C8.41409 11.0695 8.7164 11.4241 8.7164 12.0723C8.7164 12.5446 8.50428 13.0238 7.98307 13.0238C7.55368 13.0238 7.33587 12.7244 7.22614 12.3945C7.09118 12.0074 6.82642 11.8041 6.43185 11.8041C5.954 11.8041 5.64556 12.0982 5.64556 12.5685C5.64556 12.7592 5.67486 12.9276 5.72369 13.0838C5.99197 13.9398 6.93584 14.3879 7.98822 14.3879ZM12.6442 14.3339C13.1003 14.3339 13.3036 14.1501 13.438 13.7687L15.2565 8.61001C15.3714 8.27743 15.4421 8.00575 15.4421 7.6554C15.4421 7.13158 15.0457 6.799 14.5414 6.799L11.7676 6.799C11.3363 6.799 11.0893 7.11029 11.0893 7.48708C11.0893 7.88626 11.3512 8.17517 11.7676 8.17517L13.6582 8.17517L13.6582 8.27798L11.9677 12.9509C11.8873 13.1657 11.843 13.3449 11.843 13.5942C11.843 13.9371 12.0561 14.3339 12.6442 14.3339Z"
                     fill="currentColor" fill-opacity="0.85" />
       </g>
</svg>