<?xml version="1.0" encoding="UTF-8"?>
<!--Generator: Apple Native CoreSVG 326-->
<!DOCTYPE svg PUBLIC "-//W3C//DTD SVG 1.1//EN" "http://www.w3.org/Graphics/SVG/1.1/DTD/svg11.dtd">
<svg version="1.1" xmlns="http://www.w3.org/2000/svg" xmlns:xlink="http://www.w3.org/1999/xlink"
       viewBox="0 0 19.3993 19.0529">
       <g>
              <rect height="19.0529" opacity="0" width="19.3993" x="0" y="0" />
              <path d="M19.0379 3.63912L19.0379 15.4011C19.0379 17.7262 17.7164 19.0379 15.3896 19.0379L3.64834 19.0379C1.32382 19.0379 0 17.7262 0 15.4011L0 3.63912C0 1.32151 1.32382 0 3.64834 0L15.3896 0C17.7164 0 19.0379 1.32151 19.0379 3.63912ZM4.62545 6.8474C4.5617 7.02033 4.53986 7.20358 4.53986 7.38682C4.53986 7.75615 4.76447 8.13173 5.31408 8.13173C5.70064 8.13173 6.05493 8.00478 6.17497 7.58607C6.26638 7.20673 6.46466 6.8431 6.89908 6.8431C7.36171 6.8431 7.53991 7.29868 7.53991 7.77623C7.53991 8.31467 7.30881 8.8294 6.68369 8.8294L6.58361 8.8294C6.10752 8.8294 5.86799 9.08155 5.86799 9.48072C5.86799 9.8799 6.10236 10.1349 6.58361 10.1349L6.69346 10.1349C7.3887 10.1349 7.70823 10.5067 7.70823 11.1967C7.70823 11.6887 7.48635 12.2098 6.92322 12.2098C6.47431 12.2098 6.23927 11.9005 6.12208 11.546C5.97966 11.1244 5.69767 10.9137 5.26865 10.9137C4.76611 10.9137 4.44275 11.2249 4.44275 11.7275C4.44275 11.928 4.46229 12.1187 4.51342 12.2847C4.80408 13.1923 5.81686 13.6726 6.93584 13.6726C8.45806 13.6726 9.5392 12.7719 9.5392 11.3127C9.5392 10.2418 8.9313 9.54447 8.06677 9.44166L8.06677 9.39744C8.75115 9.22045 9.30482 8.50459 9.30482 7.56775C9.30482 6.18619 8.30467 5.38772 6.86924 5.38772C5.86162 5.38772 4.89604 5.92143 4.62545 6.8474ZM10.969 5.57611C10.5004 5.57611 10.2339 5.91209 10.2339 6.30611C10.2339 6.73974 10.5228 7.05333 10.969 7.05333L12.975 7.05333L12.975 7.1636L11.1714 12.1368C11.0858 12.3614 11.0393 12.5555 11.0393 12.8146C11.0393 13.1896 11.2673 13.6037 11.9048 13.6037C12.3952 13.6037 12.5986 13.4124 12.7502 13.0115L14.6796 7.52032C14.8117 7.16306 14.8823 6.86669 14.8823 6.48419C14.8823 5.93338 14.4613 5.57611 13.9151 5.57611Z"
                     fill="currentColor" fill-opacity="0.85" />
       </g>
</svg>