<?xml version="1.0" encoding="UTF-8"?>
<!--Generator: Apple Native CoreSVG 326-->
<!DOCTYPE svg PUBLIC "-//W3C//DTD SVG 1.1//EN" "http://www.w3.org/Graphics/SVG/1.1/DTD/svg11.dtd">
<svg version="1.1" xmlns="http://www.w3.org/2000/svg" xmlns:xlink="http://www.w3.org/1999/xlink"
       viewBox="0 0 21.365 21.006">
       <g>
              <rect height="21.006" opacity="0" width="21.365" x="0" y="0" />
              <path d="M10.4981 20.9962C16.302 20.9962 21.0037 16.2946 21.0037 10.4981C21.0037 4.70163 16.302 0 10.4981 0C4.70163 0 0 4.70163 0 10.4981C0 16.2946 4.70163 20.9962 10.4981 20.9962ZM10.4981 17.9484C6.37829 17.9484 3.04785 14.6179 3.04785 10.4981C3.04785 6.37829 6.37829 3.04785 10.4981 3.04785C14.6179 3.04785 17.9558 6.37829 17.9558 10.4981C17.9558 14.6179 14.6179 17.9484 10.4981 17.9484Z"
                     fill="currentColor" fill-opacity="0.85" />
              <path d="M7.57861 14.3879C9.00724 14.3879 10.0218 13.5463 10.0218 12.171C10.0218 11.169 9.44834 10.521 8.64064 10.4182L8.64064 10.3815C9.28311 10.2142 9.80232 9.54259 9.80232 8.67006C9.80232 7.37463 8.86361 6.61806 7.52463 6.61806C6.57099 6.61806 5.67201 7.11732 5.41119 7.99392C5.36236 8.14963 5.33306 8.32541 5.33306 8.49889C5.33306 8.83607 5.54045 9.19443 6.06537 9.19443C6.41978 9.19443 6.74938 9.07494 6.86196 8.67345C6.94876 8.3211 7.14189 7.98216 7.53955 7.98216C7.98495 7.98216 8.15339 8.41306 8.15339 8.85615C8.15339 9.3676 7.93205 9.84788 7.34885 9.84788L7.2413 9.84788C6.80713 9.84788 6.57736 10.0903 6.57736 10.4573C6.57736 10.8392 6.79221 11.0695 7.2413 11.0695L7.36092 11.0695C8.00448 11.0695 8.30448 11.4241 8.30448 12.0723C8.30448 12.5446 8.09467 13.0238 7.57346 13.0238C7.14407 13.0238 6.92626 12.7244 6.81653 12.3945C6.68157 12.0074 6.40935 11.8041 6.02224 11.8041C5.54439 11.8041 5.23595 12.0982 5.23595 12.5685C5.23595 12.7592 5.26525 12.9276 5.31408 13.0838C5.58236 13.9398 6.52623 14.3879 7.57861 14.3879ZM13.293 14.3954C14.6816 14.3954 15.7649 13.6076 15.7649 12.2101C15.7649 11.2724 15.2253 10.501 14.3993 10.3252L14.3993 10.2884C15.0909 10.0759 15.5776 9.44112 15.5776 8.63275C15.5776 7.41029 14.6251 6.61806 13.293 6.61806C12.082 6.61806 11.013 7.30056 11.013 8.63045C11.013 9.53701 11.5909 10.1006 12.201 10.2884L12.201 10.3252C11.4082 10.4883 10.8182 11.2598 10.8182 12.2026C10.8182 13.5658 11.8672 14.3954 13.293 14.3954ZM13.293 9.77952C12.9314 9.77952 12.7285 9.36057 12.7285 8.81424C12.7285 8.25638 12.9337 7.8495 13.293 7.8495C13.6666 7.8495 13.8746 8.25638 13.8746 8.81424C13.8746 9.38416 13.6643 9.77952 13.293 9.77952ZM13.293 13.1542C12.8808 13.1542 12.6561 12.7059 12.6561 12.0728C12.6561 11.4592 12.8808 11.0133 13.293 11.0133C13.6977 11.0133 13.9345 11.45 13.9345 12.0728C13.9345 12.7059 13.7023 13.1542 13.293 13.1542Z"
                     fill="currentColor" fill-opacity="0.85" />
       </g>
</svg>