<?xml version="1.0" encoding="UTF-8"?>
<!--Generator: Apple Native CoreSVG 326-->
<!DOCTYPE svg PUBLIC "-//W3C//DTD SVG 1.1//EN" "http://www.w3.org/Graphics/SVG/1.1/DTD/svg11.dtd">
<svg version="1.1" xmlns="http://www.w3.org/2000/svg" xmlns:xlink="http://www.w3.org/1999/xlink"
       viewBox="0 0 19.3993 19.0529">
       <g>
              <rect height="19.0529" opacity="0" width="19.3993" x="0" y="0" />
              <path d="M19.0379 3.63912L19.0379 15.4011C19.0379 17.7262 17.7164 19.0379 15.3896 19.0379L3.64834 19.0379C1.32382 19.0379 0 17.7262 0 15.4011L0 3.63912C0 1.32151 1.32382 0 3.64834 0L15.3896 0C17.7164 0 19.0379 1.32151 19.0379 3.63912ZM10.165 7.52815C10.165 8.50131 10.7774 9.09932 11.4294 9.30209L11.4294 9.33885C10.5849 9.51178 9.95299 10.3326 9.95299 11.3443C9.95299 12.7862 11.0634 13.6801 12.5903 13.6801C14.0724 13.6801 15.2373 12.8406 15.2373 11.3518C15.2373 10.3453 14.6558 9.5244 13.7707 9.33885L13.7707 9.30209C14.5117 9.06717 15.0328 8.39049 15.0328 7.53791C15.0328 6.22186 14.0063 5.38025 12.5903 5.38025C11.3053 5.38025 10.165 6.11959 10.165 7.52815ZM4.18139 6.8474C4.13256 7.02033 4.10557 7.20358 4.10557 7.38682C4.10557 7.74123 4.32272 8.13173 4.88494 8.13173C5.25888 8.13173 5.61833 8.00478 5.74067 7.58607C5.82978 7.20673 6.03783 6.8431 6.45732 6.8431C6.92741 6.8431 7.10331 7.29868 7.10331 7.77623C7.10331 8.30721 6.86475 8.8294 6.25686 8.8294L6.14185 8.8294C5.67092 8.8294 5.43369 9.08155 5.43369 9.48072C5.43369 9.8799 5.66576 10.1349 6.14185 10.1349L6.26662 10.1349C6.9544 10.1349 7.26647 10.5067 7.26647 11.1967C7.26647 11.6887 7.0446 12.2098 6.48893 12.2098C6.03255 12.2098 5.81243 11.9005 5.68548 11.546C5.54536 11.1244 5.26107 10.9137 4.84181 10.9137C4.32435 10.9137 4.001 11.2249 4.001 11.7275C4.001 11.928 4.02053 12.1187 4.08428 12.2698C4.36232 13.1923 5.38025 13.6726 6.49408 13.6726C8.02146 13.6726 9.1049 12.7719 9.1049 11.3127C9.1049 10.2418 8.49701 9.54447 7.63994 9.44166L7.63994 9.39744C8.3094 9.22045 8.86822 8.50459 8.86822 7.56775C8.86822 6.18619 7.87783 5.38772 6.4424 5.38772C5.42502 5.38772 4.45943 5.92143 4.18139 6.8474ZM13.276 11.1973C13.276 11.8723 13.0266 12.3476 12.5926 12.3476C12.1586 12.3476 11.9241 11.8723 11.9241 11.1973C11.9241 10.5418 12.1586 10.0688 12.5926 10.0688C13.0219 10.0688 13.276 10.5326 13.276 11.1973ZM13.2064 7.72686C13.2064 8.33123 12.9886 8.74612 12.5926 8.74612C12.2092 8.74612 11.9965 8.30764 11.9965 7.72686C11.9965 7.13455 12.2212 6.70298 12.5926 6.70298C12.9909 6.70298 13.2064 7.13455 13.2064 7.72686Z"
                     fill="currentColor" fill-opacity="0.85" />
       </g>
</svg>