<?xml version="1.0" encoding="UTF-8"?>
<!--Generator: Apple Native CoreSVG 326-->
<!DOCTYPE svg PUBLIC "-//W3C//DTD SVG 1.1//EN" "http://www.w3.org/Graphics/SVG/1.1/DTD/svg11.dtd">
<svg version="1.1" xmlns="http://www.w3.org/2000/svg" xmlns:xlink="http://www.w3.org/1999/xlink"
       viewBox="0 0 21.365 21.006">
       <g>
              <rect height="21.006" opacity="0" width="21.365" x="0" y="0" />
              <path d="M21.0037 10.4981C21.0037 16.2923 16.302 20.9962 10.4981 20.9962C4.70394 20.9962 0 16.2923 0 10.4981C0 4.70163 4.70394 0 10.4981 0C16.302 0 21.0037 4.70163 21.0037 10.4981ZM10.9376 9.15615C10.9376 10.424 11.465 11.6758 12.7134 11.6758C13.5016 11.6758 13.99 11.1065 14.1721 10.3889L14.1888 10.3889C14.1888 10.5474 14.1888 10.7058 14.1888 10.8545C14.1888 12.1766 13.9775 13.1961 13.3744 13.1961C13.0967 13.1961 12.9358 13.0328 12.7674 12.6926C12.5762 12.3158 12.3436 12.1591 11.9588 12.1591C11.4097 12.1591 11.1943 12.5392 11.1943 12.9459C11.1943 13.0481 11.2162 13.2199 11.2552 13.3371C11.5074 14.2383 12.3467 14.6687 13.3026 14.6687C15.3804 14.6687 15.9835 12.5328 15.9835 10.4647C15.9835 8.6649 15.4154 6.34475 13.3273 6.34475C11.7717 6.34475 10.9376 7.64127 10.9376 9.15615ZM5.11319 7.82397C5.06436 7.9969 5.0299 8.18014 5.0299 8.36338C5.0299 8.71779 5.25221 9.1083 5.80927 9.1083C6.19584 9.1083 6.54267 8.98134 6.66271 8.56264C6.75411 8.18329 6.95986 7.81966 7.38682 7.81966C7.8569 7.81966 8.03511 8.27525 8.03511 8.75279C8.03511 9.28377 7.79885 9.80596 7.17143 9.80596L7.07135 9.80596C6.60272 9.80596 6.35803 10.0581 6.35803 10.4573C6.35803 10.8565 6.59756 11.1115 7.07135 11.1115L7.18865 11.1115C7.87643 11.1115 8.19597 11.4832 8.19597 12.1733C8.19597 12.6652 7.97409 13.1863 7.41842 13.1863C6.9695 13.1863 6.74192 12.8771 6.61727 12.5226C6.47485 12.101 6.1854 11.8902 5.76615 11.8902C5.25385 11.8902 4.93049 12.2015 4.93049 12.704C4.93049 12.9045 4.95233 13.0952 5.00861 13.2463C5.29182 14.1689 6.30459 14.6492 7.42588 14.6492C8.9458 14.6492 10.0344 13.7484 10.0344 12.2893C10.0344 11.2183 9.41904 10.521 8.56197 10.4182L8.56197 10.374C9.23889 10.197 9.79256 9.48115 9.79256 8.54432C9.79256 7.16275 8.79986 6.36428 7.36444 6.36428C6.34936 6.36428 5.38377 6.89799 5.11319 7.82397ZM14.0084 9.11764C14.0084 9.82428 13.7934 10.3387 13.3617 10.3387C12.9329 10.3387 12.722 9.8076 12.722 9.0878C12.722 8.36568 12.9444 7.83974 13.3617 7.83974C13.8026 7.83974 14.0084 8.37315 14.0084 9.11764Z"
                     fill="currentColor" fill-opacity="0.85" />
       </g>
</svg>