<?xml version="1.0" encoding="UTF-8"?>
<!--Generator: Apple Native CoreSVG 326-->
<!DOCTYPE svg PUBLIC "-//W3C//DTD SVG 1.1//EN" "http://www.w3.org/Graphics/SVG/1.1/DTD/svg11.dtd">
<svg version="1.1" xmlns="http://www.w3.org/2000/svg" xmlns:xlink="http://www.w3.org/1999/xlink"
       viewBox="0 0 21.365 21.006">
       <g>
              <rect height="21.006" opacity="0" width="21.365" x="0" y="0" />
              <path d="M10.4981 20.9962C16.302 20.9962 21.0037 16.2946 21.0037 10.4981C21.0037 4.70163 16.302 0 10.4981 0C4.70163 0 0 4.70163 0 10.4981C0 16.2946 4.70163 20.9962 10.4981 20.9962ZM10.4981 17.9484C6.37829 17.9484 3.04785 14.6179 3.04785 10.4981C3.04785 6.37829 6.37829 3.04785 10.4981 3.04785C14.6179 3.04785 17.9558 6.37829 17.9558 10.4981C17.9558 14.6179 14.6179 17.9484 10.4981 17.9484Z"
                     fill="currentColor" fill-opacity="0.85" />
              <path d="M7.61076 14.3879C9.03709 14.3879 10.0516 13.5463 10.0516 12.171C10.0516 11.169 9.48564 10.521 8.67279 10.4182L8.67279 10.3815C9.31295 10.2142 9.83217 9.54259 9.83217 8.67006C9.83217 7.37463 8.90091 6.61806 7.55678 6.61806C6.6083 6.61806 5.70185 7.11732 5.44103 7.99392C5.3922 8.14963 5.37267 8.32541 5.37267 8.49889C5.37267 8.83607 5.5726 9.19443 6.09521 9.19443C6.44962 9.19443 6.77923 9.07494 6.8918 8.67345C6.98091 8.3211 7.17919 7.98216 7.5717 7.98216C8.01479 7.98216 8.18323 8.41306 8.18323 8.85615C8.18323 9.3676 7.9642 9.84788 7.38099 9.84788L7.28091 9.84788C6.83697 9.84788 6.61697 10.0903 6.61697 10.4573C6.61697 10.8392 6.83181 11.0695 7.28091 11.0695L7.39076 11.0695C8.04178 11.0695 8.33663 11.4241 8.33663 12.0723C8.33663 12.5446 8.13198 13.0238 7.6033 13.0238C7.17392 13.0238 6.9561 12.7244 6.84637 12.3945C6.71372 12.0074 6.44665 11.8041 6.05208 11.8041C5.57423 11.8041 5.2681 12.0982 5.2681 12.5685C5.2681 12.7592 5.2974 12.9276 5.34623 13.0838C5.6122 13.9398 6.56353 14.3879 7.61076 14.3879ZM12.5733 11.6069C13.3121 11.6069 13.7735 11.0721 13.9459 10.3964L13.9625 10.3964C13.9625 10.5399 13.9625 10.6909 13.9625 10.8321C13.9625 12.0653 13.7587 13.0336 13.1872 13.0336C12.9268 13.0336 12.7681 12.8801 12.6147 12.5571C12.4407 12.205 12.2155 12.0632 11.8629 12.0632C11.3408 12.0632 11.1501 12.4112 11.1501 12.7857C11.1501 12.8954 11.1645 13.0499 11.2012 13.1671C11.4385 14.0018 12.2261 14.4075 13.1229 14.4075C15.0651 14.4075 15.6339 12.407 15.6339 10.4647C15.6339 8.77572 15.1001 6.60599 13.1476 6.60599C11.6856 6.60599 10.9008 7.81869 10.9008 9.23998C10.9008 10.439 11.4013 11.6069 12.5733 11.6069ZM13.182 10.3536C12.7653 10.3536 12.5693 9.85182 12.5693 9.17393C12.5693 8.50119 12.7819 7.99247 13.182 7.99247C13.5936 7.99247 13.7919 8.50865 13.7919 9.20377C13.7919 9.86619 13.5867 10.3536 13.182 10.3536Z"
                     fill="currentColor" fill-opacity="0.85" />
       </g>
</svg>