<?xml version="1.0" encoding="UTF-8"?>
<!--Generator: Apple Native CoreSVG 326-->
<!DOCTYPE svg PUBLIC "-//W3C//DTD SVG 1.1//EN" "http://www.w3.org/Graphics/SVG/1.1/DTD/svg11.dtd">
<svg version="1.1" xmlns="http://www.w3.org/2000/svg" xmlns:xlink="http://www.w3.org/1999/xlink"
       viewBox="0 0 19.3993 19.0529">
       <g>
              <rect height="19.0529" opacity="0" width="19.3993" x="0" y="0" />
              <path d="M19.0379 3.63912L19.0379 15.4011C19.0379 17.7262 17.7164 19.0379 15.3896 19.0379L3.64834 19.0379C1.32382 19.0379 0 17.7262 0 15.4011L0 3.63912C0 1.32151 1.32382 0 3.64834 0L15.3896 0C17.7164 0 19.0379 1.32151 19.0379 3.63912ZM10.0454 8.17959C10.0454 9.44749 10.5803 10.6992 11.8287 10.6992C12.6168 10.6992 13.0978 10.13 13.2799 9.41237L13.3041 9.41237C13.3041 9.5708 13.3041 9.72923 13.3041 9.8779C13.3041 11.2001 13.0927 12.2195 12.4822 12.2195C12.2045 12.2195 12.0436 12.0562 11.885 11.7161C11.684 11.3393 11.4514 11.1825 11.074 11.1825C10.5175 11.1825 10.3021 11.5627 10.3021 11.9693C10.3021 12.0716 10.3314 12.2433 10.3705 12.3605C10.6152 13.2618 11.4568 13.6921 12.4179 13.6921C14.4882 13.6921 15.0913 11.5562 15.0913 9.48819C15.0913 7.68834 14.5232 5.36818 12.4351 5.36818C10.8795 5.36818 10.0454 6.66471 10.0454 8.17959ZM4.23076 6.8474C4.17217 7.02033 4.14518 7.20358 4.14518 7.38682C4.14518 7.74123 4.36748 8.13173 4.91709 8.13173C5.30595 8.13173 5.65794 8.00478 5.77052 7.58607C5.86939 7.20673 6.06997 6.8431 6.50209 6.8431C6.96471 6.8431 7.14292 7.29868 7.14292 7.77623C7.14292 8.30721 6.91412 8.8294 6.2867 8.8294L6.18662 8.8294C5.71053 8.8294 5.4733 9.08155 5.4733 9.48072C5.4733 9.8799 5.70537 10.1349 6.18662 10.1349L6.29646 10.1349C6.9917 10.1349 7.31124 10.5067 7.31124 11.1967C7.31124 11.6887 7.08936 12.2098 6.52623 12.2098C6.07731 12.2098 5.85204 11.9005 5.72509 11.546C5.58266 11.1244 5.30298 10.9137 4.87396 10.9137C4.36912 10.9137 4.0383 11.2249 4.0383 11.7275C4.0383 11.928 4.0676 12.1187 4.11642 12.2698C4.40193 13.1923 5.41986 13.6726 6.53369 13.6726C8.06107 13.6726 9.14451 12.7719 9.14451 11.3127C9.14451 10.2418 8.53431 9.54447 7.66978 9.44166L7.66978 9.39744C8.35416 9.22045 8.91013 8.50459 8.91013 7.56775C8.91013 6.18619 7.90767 5.38772 6.47225 5.38772C5.46693 5.38772 4.49904 5.92143 4.23076 6.8474ZM13.1237 8.14108C13.1237 8.84772 12.9035 9.36214 12.4696 9.36214C12.0407 9.36214 11.8396 8.83104 11.8396 8.11123C11.8396 7.38912 12.0597 6.86317 12.4696 6.86317C12.9128 6.86317 13.1237 7.39658 13.1237 8.14108Z"
                     fill="currentColor" fill-opacity="0.85" />
       </g>
</svg>