<?xml version="1.0" encoding="UTF-8"?>
<!--Generator: Apple Native CoreSVG 326-->
<!DOCTYPE svg PUBLIC "-//W3C//DTD SVG 1.1//EN" "http://www.w3.org/Graphics/SVG/1.1/DTD/svg11.dtd">
<svg version="1.1" xmlns="http://www.w3.org/2000/svg" xmlns:xlink="http://www.w3.org/1999/xlink"
       viewBox="0 0 21.365 21.006">
       <g>
              <rect height="21.006" opacity="0" width="21.365" x="0" y="0" />
              <path d="M10.4981 20.9962C16.302 20.9962 21.0037 16.2946 21.0037 10.4981C21.0037 4.70163 16.302 0 10.4981 0C4.70163 0 0 4.70163 0 10.4981C0 16.2946 4.70163 20.9962 10.4981 20.9962ZM10.4981 17.9484C6.37829 17.9484 3.04785 14.6179 3.04785 10.4981C3.04785 6.37829 6.37829 3.04785 10.4981 3.04785C14.6179 3.04785 17.9558 6.37829 17.9558 10.4981C17.9558 14.6179 14.6179 17.9484 10.4981 17.9484Z"
                     fill="currentColor" fill-opacity="0.85" />
              <path d="M11.7826 15.0048C12.4877 15.0048 12.9305 14.5976 12.9305 13.7891L12.9305 13.4235L13.2124 13.4235C13.9439 13.4235 14.3866 13.0204 14.3866 12.3784C14.3866 11.7364 13.9537 11.331 13.2199 11.331L12.9305 11.331L12.9305 7.71812C12.9305 6.72239 12.0962 5.99142 10.9626 5.99142C9.77915 5.99142 9.12564 6.38478 8.48135 7.47059C7.81869 8.55384 7.10016 9.75386 6.64772 10.6246C6.40765 11.1408 6.3169 11.5617 6.3169 11.9591C6.3169 12.8487 6.94627 13.4235 7.94431 13.4235L10.6369 13.4235L10.6369 13.7891C10.6369 14.5878 11.0871 15.0048 11.7826 15.0048ZM10.6369 11.331L8.69996 11.331L8.69996 11.2649C9.14372 10.381 9.90877 9.00306 10.5462 7.88535L10.6369 7.88535Z"
                     fill="currentColor" fill-opacity="0.85" />
       </g>
</svg>