<?xml version="1.0" encoding="UTF-8"?>
<!--Generator: Apple Native CoreSVG 326-->
<!DOCTYPE svg PUBLIC "-//W3C//DTD SVG 1.1//EN" "http://www.w3.org/Graphics/SVG/1.1/DTD/svg11.dtd">
<svg version="1.1" xmlns="http://www.w3.org/2000/svg" xmlns:xlink="http://www.w3.org/1999/xlink"
       viewBox="0 0 19.3993 16.9895">
       <g>
              <rect height="16.9895" opacity="0" width="19.3993" x="0" y="0" />
              <path d="M0 15.4822C0 16.3148 0.679834 16.9895 1.5124 16.9895C2.33981 16.9895 3.01964 16.3148 3.01964 15.4822L3.01964 1.69607C3.01964 0.863501 2.33981 0.183667 1.5124 0.183667C0.679834 0.183667 0 0.863501 0 1.69607ZM16.0183 15.4822C16.0183 16.3148 16.7004 16.9895 17.5255 16.9895C18.3581 16.9895 19.0379 16.3148 19.0379 15.4822L19.0379 1.69607C19.0379 0.863501 18.3581 0.183667 17.5255 0.183667C16.7004 0.183667 16.0183 0.863501 16.0183 1.69607Z"
                     fill="currentColor" fill-opacity="0.85" />
              <path d="M10.6992 12.8065C11.2316 12.8065 11.7077 12.5147 11.7077 11.786L11.7077 11.2828L11.866 11.2828C12.4747 11.2828 12.6826 10.8877 12.6826 10.4587C12.6826 10.0055 12.4701 9.62478 11.8734 9.62478L11.7077 9.62478L11.7077 5.84761C11.7077 4.86899 11.0105 4.33661 10.0193 4.33661C9.04812 4.33661 8.57719 4.85406 8.18317 5.63289C7.66316 6.64117 6.86796 8.33645 6.5369 9.36129C6.44264 9.64055 6.38284 9.90774 6.38284 10.1842C6.38284 10.8067 6.79639 11.2828 7.56017 11.2828L9.69078 11.2828L9.69078 11.786C9.69078 12.5124 10.1617 12.8065 10.6992 12.8065ZM9.75222 9.70115L8.119 9.70115L8.119 9.6081C8.54541 8.47911 9.18733 7.03641 9.71831 5.94879L9.75222 5.94879Z"
                     fill="currentColor" fill-opacity="0.85" />
       </g>
</svg>