<?xml version="1.0" encoding="UTF-8"?>
<!--Generator: Apple Native CoreSVG 326-->
<!DOCTYPE svg PUBLIC "-//W3C//DTD SVG 1.1//EN" "http://www.w3.org/Graphics/SVG/1.1/DTD/svg11.dtd">
<svg version="1.1" xmlns="http://www.w3.org/2000/svg" xmlns:xlink="http://www.w3.org/1999/xlink"
       viewBox="0 0 19.3993 19.0529">
       <g>
              <rect height="19.0529" opacity="0" width="19.3993" x="0" y="0" />
              <path d="M19.0379 3.63912L19.0379 15.4011C19.0379 17.7262 17.7164 19.0379 15.3896 19.0379L3.64834 19.0379C1.32382 19.0379 0 17.7262 0 15.4011L0 3.63912C0 1.32151 1.32382 0 3.64834 0L15.3896 0C17.7164 0 19.0379 1.32151 19.0379 3.63912ZM7.4451 6.30223C6.73361 7.45154 5.97086 8.72046 5.49144 9.64516C5.24159 10.2033 5.15085 10.6489 5.15085 11.0785C5.15085 12.0397 5.81467 12.6467 6.88216 12.6467L9.74191 12.6467L9.74191 12.9559C9.74191 13.819 10.234 14.2606 10.9765 14.2606C11.7311 14.2606 12.2232 13.8213 12.2232 12.9559L12.2232 12.6467L12.4999 12.6467C13.286 12.6467 13.7609 12.2189 13.7609 11.5299C13.7609 10.8385 13.2957 10.4009 12.5074 10.4009L12.2232 10.4009L12.2232 6.56699C12.2232 5.50697 11.3148 4.71916 10.1072 4.71916C8.82212 4.71916 8.13416 5.13721 7.4451 6.30223ZM9.74191 10.4009L7.70211 10.4009L7.70211 10.3349C8.17517 9.39702 8.98444 7.9329 9.65117 6.74399L9.74191 6.74399Z"
                     fill="currentColor" fill-opacity="0.85" />
       </g>
</svg>