<?xml version="1.0" encoding="UTF-8"?>
<!--Generator: Apple Native CoreSVG 326-->
<!DOCTYPE svg PUBLIC "-//W3C//DTD SVG 1.1//EN" "http://www.w3.org/Graphics/SVG/1.1/DTD/svg11.dtd">
<svg version="1.1" xmlns="http://www.w3.org/2000/svg" xmlns:xlink="http://www.w3.org/1999/xlink"
       viewBox="0 0 19.3993 19.0529">
       <g>
              <rect height="19.0529" opacity="0" width="19.3993" x="0" y="0" />
              <path d="M19.0379 3.63912L19.0379 15.4011C19.0379 17.7262 17.7164 19.0379 15.3896 19.0379L3.64834 19.0379C1.32382 19.0379 0 17.7262 0 15.4011L0 3.63912C0 1.32151 1.32382 0 3.64834 0L15.3896 0C17.7164 0 19.0379 1.32151 19.0379 3.63912ZM9.93971 9.52155C9.93971 11.4036 10.5303 13.4706 12.4501 13.4706C14.3798 13.4706 14.9629 11.4036 14.9629 9.52155C14.9629 7.63951 14.3798 5.57247 12.4501 5.57247C10.5303 5.57247 9.93971 7.63951 9.93971 9.52155ZM5.25706 7.30093L4.24587 9.87917C4.10223 10.2698 4.01895 10.6379 4.01895 10.9877C4.01895 11.6178 4.37567 11.9573 5.03555 11.9573L6.67217 11.9573L6.67217 12.5453C6.67217 13.1398 7.06564 13.4 7.51474 13.4C7.98743 13.4 8.35732 13.1432 8.35732 12.5453L8.35732 11.9573L8.49482 11.9573C9.01228 11.9573 9.17544 11.6213 9.17544 11.2571C9.17544 10.8229 8.96236 10.5616 8.50974 10.5616L8.35732 10.5616L8.35732 6.96071C8.35732 6.13075 7.81626 5.66552 6.99783 5.66552C5.91706 5.66552 5.57757 6.44465 5.25706 7.30093ZM13.1577 9.52155C13.1577 11.0905 12.9571 12.0456 12.4501 12.0456C11.9432 12.0456 11.7426 11.0905 11.7426 9.52155C11.7426 7.95025 11.9432 6.99001 12.4501 6.99001C12.9571 6.99001 13.1577 7.95025 13.1577 9.52155ZM6.72385 10.6132L5.47039 10.6132L5.47039 10.5449L6.68478 7.06188L6.72385 7.06188Z"
                     fill="currentColor" fill-opacity="0.85" />
       </g>
</svg>