<?xml version="1.0" encoding="UTF-8"?>
<!--Generator: Apple Native CoreSVG 326-->
<!DOCTYPE svg PUBLIC "-//W3C//DTD SVG 1.1//EN" "http://www.w3.org/Graphics/SVG/1.1/DTD/svg11.dtd">
<svg version="1.1" xmlns="http://www.w3.org/2000/svg" xmlns:xlink="http://www.w3.org/1999/xlink"
       viewBox="0 0 19.3993 19.0529">
       <g>
              <rect height="19.0529" opacity="0" width="19.3993" x="0" y="0" />
              <path d="M19.0379 3.63912L19.0379 15.4011C19.0379 17.7262 17.7164 19.0379 15.3896 19.0379L3.64834 19.0379C1.32382 19.0379 0 17.7262 0 15.4011L0 3.63912C0 1.32151 1.32382 0 3.64834 0L15.3896 0C17.7164 0 19.0379 1.32151 19.0379 3.63912ZM5.70543 7.19648L4.65463 9.88663C4.49377 10.2996 4.4151 10.6976 4.4151 11.0623C4.4151 11.7297 4.79189 12.099 5.49138 12.099L7.2003 12.099L7.2003 12.702C7.2003 13.3412 7.62592 13.6089 8.10486 13.6089C8.60279 13.6089 8.99736 13.3446 8.99736 12.702L8.99736 12.099L9.13486 12.099C9.68216 12.099 9.85048 11.7406 9.85048 11.3541C9.85048 10.8975 9.63455 10.6138 9.14979 10.6138L8.99736 10.6138L8.99736 6.82642C8.99736 5.94423 8.42131 5.45662 7.5535 5.45662C6.40273 5.45662 6.04086 6.28797 5.70543 7.19648ZM11.5857 5.92646L10.7187 6.5844C10.4459 6.79572 10.2994 7.02088 10.2994 7.32932C10.2994 7.79103 10.6187 8.00072 10.9387 8.00072C11.1173 8.00072 11.2448 7.95189 11.3947 7.829L12.0091 7.3554L12.0091 12.6382C12.0091 13.1752 12.4306 13.5968 12.9624 13.5968C13.4948 13.5968 13.9238 13.1752 13.9238 12.6382L13.9238 6.51568C13.9238 5.81904 13.4971 5.44916 12.8056 5.44916C12.2887 5.44916 11.9297 5.66115 11.5857 5.92646ZM7.2669 10.6655L5.9463 10.6655L5.9463 10.5971L7.22784 6.92759L7.2669 6.92759Z"
                     fill="currentColor" fill-opacity="0.85" />
       </g>
</svg>