<?xml version="1.0" encoding="UTF-8"?>
<!--Generator: Apple Native CoreSVG 326-->
<!DOCTYPE svg PUBLIC "-//W3C//DTD SVG 1.1//EN" "http://www.w3.org/Graphics/SVG/1.1/DTD/svg11.dtd">
<svg version="1.1" xmlns="http://www.w3.org/2000/svg" xmlns:xlink="http://www.w3.org/1999/xlink"
       viewBox="0 0 21.365 21.006">
       <g>
              <rect height="21.006" opacity="0" width="21.365" x="0" y="0" />
              <path d="M21.0037 10.4981C21.0037 16.2923 16.302 20.9962 10.4981 20.9962C4.70394 20.9962 0 16.2923 0 10.4981C0 4.70163 4.70394 0 10.4981 0C16.302 0 21.0037 4.70163 21.0037 10.4981ZM6.14082 8.17535L5.0774 10.8707C4.93146 11.2762 4.84302 11.6742 4.84302 12.0389C4.84302 12.7137 5.21236 13.0756 5.91931 13.0756L7.63799 13.0756L7.63799 13.686C7.63799 14.3201 8.06362 14.5929 8.53279 14.5929C9.02787 14.5929 9.42759 14.3212 9.42759 13.686L9.42759 13.0756L9.5651 13.0756C10.1124 13.0756 10.283 12.7247 10.283 12.3306C10.283 11.8741 10.055 11.5903 9.57256 11.5903L9.42759 11.5903L9.42759 7.80298C9.42759 6.9231 8.84924 6.43318 7.98604 6.43318C6.8232 6.43318 6.46879 7.26454 6.14082 8.17535ZM10.9979 8.38983C10.9979 8.86021 11.2701 9.20595 11.775 9.20595C12.1592 9.20595 12.4538 9.01986 12.5963 8.56846C12.717 8.13337 12.879 7.79552 13.2911 7.79552C13.7599 7.79552 13.9451 8.22587 13.9451 8.74479C13.9451 9.47326 13.4458 10.1966 12.8513 10.9473L11.4935 12.674C11.1341 13.1196 11.0082 13.3884 11.0082 13.7084C11.0082 14.177 11.3051 14.451 11.8709 14.451L15.1357 14.451C15.6439 14.451 15.8536 14.0973 15.8536 13.7233C15.8536 13.3178 15.6416 12.9784 15.1357 12.9784L13.2229 12.9784L13.2229 12.898L14.3721 11.4901C15.2087 10.5013 15.7197 9.75162 15.7197 8.67643C15.7197 7.21455 14.7099 6.34014 13.2934 6.34014C12.0342 6.34014 10.9979 7.28522 10.9979 8.38983ZM7.69713 11.6569L6.38399 11.6569L6.38399 11.5737L7.65061 7.90415L7.69713 7.90415Z"
                     fill="currentColor" fill-opacity="0.85" />
       </g>
</svg>