<?xml version="1.0" encoding="UTF-8"?>
<!--Generator: Apple Native CoreSVG 326-->
<!DOCTYPE svg PUBLIC "-//W3C//DTD SVG 1.1//EN" "http://www.w3.org/Graphics/SVG/1.1/DTD/svg11.dtd">
<svg version="1.1" xmlns="http://www.w3.org/2000/svg" xmlns:xlink="http://www.w3.org/1999/xlink"
       viewBox="0 0 21.365 21.006">
       <g>
              <rect height="21.006" opacity="0" width="21.365" x="0" y="0" />
              <path d="M10.4981 20.9962C16.302 20.9962 21.0037 16.2946 21.0037 10.4981C21.0037 4.70163 16.302 0 10.4981 0C4.70163 0 0 4.70163 0 10.4981C0 16.2946 4.70163 20.9962 10.4981 20.9962ZM10.4981 17.9484C6.37829 17.9484 3.04785 14.6179 3.04785 10.4981C3.04785 6.37829 6.37829 3.04785 10.4981 3.04785C14.6179 3.04785 17.9558 6.37829 17.9558 10.4981C17.9558 14.6179 14.6179 17.9484 10.4981 17.9484Z"
                     fill="currentColor" fill-opacity="0.85" />
              <path d="M8.64131 14.3391C9.10939 14.3391 9.47697 14.0846 9.47697 13.4816L9.47697 12.9079L9.61217 12.9079C10.1199 12.9079 10.2807 12.5817 10.2807 12.2124C10.2807 11.788 10.0774 11.5289 9.61963 11.5289L9.47697 11.5289L9.47697 7.95802C9.47697 7.14243 8.94052 6.68697 8.13416 6.68697C7.05284 6.68697 6.71566 7.45633 6.40492 8.308L5.40525 10.8437C5.26161 11.232 5.18064 11.5978 5.18064 11.9453C5.18064 12.5707 5.53274 12.9079 6.19032 12.9079L7.80334 12.9079L7.80334 13.4816C7.80334 14.0812 8.20428 14.3391 8.64131 14.3391ZM7.86248 11.5806L6.62055 11.5806L6.62055 11.5048L7.82342 8.06665L7.86248 8.06665ZM11.775 14.2047L14.8354 14.2047C15.3115 14.2047 15.5039 13.8831 15.5039 13.5189C15.5039 13.1478 15.3017 12.8308 14.8354 12.8308L13.0357 12.8308L13.0357 12.7527L14.1235 11.431C14.9009 10.4961 15.3798 9.79583 15.3798 8.79471C15.3798 7.41666 14.4366 6.60138 13.1114 6.60138C11.9285 6.60138 10.9589 7.48732 10.9589 8.51041C10.9589 8.95381 11.2162 9.28232 11.6791 9.28232C12.0387 9.28232 12.316 9.10599 12.4435 8.67928C12.5619 8.27118 12.724 7.95056 13.109 7.95056C13.5532 7.95056 13.7211 8.36368 13.7211 8.84814C13.7211 9.53986 13.2563 10.2115 12.7014 10.9129L11.4149 12.5437C11.0876 12.9571 10.9617 13.2087 10.9617 13.5114C10.9617 13.9479 11.2437 14.2047 11.775 14.2047Z"
                     fill="currentColor" fill-opacity="0.85" />
       </g>
</svg>