<?xml version="1.0" encoding="UTF-8"?>
<!--Generator: Apple Native CoreSVG 326-->
<!DOCTYPE svg PUBLIC "-//W3C//DTD SVG 1.1//EN" "http://www.w3.org/Graphics/SVG/1.1/DTD/svg11.dtd">
<svg version="1.1" xmlns="http://www.w3.org/2000/svg" xmlns:xlink="http://www.w3.org/1999/xlink"
       viewBox="0 0 21.365 21.006">
       <g>
              <rect height="21.006" opacity="0" width="21.365" x="0" y="0" />
              <path d="M21.0037 10.4981C21.0037 16.2923 16.302 20.9962 10.4981 20.9962C4.70394 20.9962 0 16.2923 0 10.4981C0 4.70163 4.70394 0 10.4981 0C16.302 0 21.0037 4.70163 21.0037 10.4981ZM11.1392 7.82397C11.0904 7.9969 11.0611 8.18014 11.0611 8.36338C11.0611 8.73271 11.276 9.1083 11.8428 9.1083C12.2144 9.1083 12.5762 8.98134 12.6888 8.56264C12.7876 8.18329 12.9934 7.81966 13.4129 7.81966C13.8755 7.81966 14.0537 8.27525 14.0537 8.75279C14.0537 9.29124 13.8226 9.80596 13.2026 9.80596L13.0974 9.80596C12.6288 9.80596 12.3892 10.0581 12.3892 10.4573C12.3892 10.8565 12.6139 11.1115 13.0974 11.1115L13.2222 11.1115C13.91 11.1115 14.222 11.4832 14.222 12.1733C14.222 12.6652 14.0001 13.1863 13.4445 13.1863C12.9881 13.1863 12.7605 12.8771 12.6433 12.5226C12.4911 12.101 12.2115 11.8902 11.7974 11.8902C11.2799 11.8902 10.9542 12.2015 10.9542 12.704C10.9542 12.9045 10.9761 13.0952 11.0324 13.2612C11.3179 14.1689 12.3306 14.6492 13.4496 14.6492C14.9793 14.6492 16.053 13.7484 16.053 12.2893C16.053 11.2183 15.4526 10.521 14.5857 10.4182L14.5857 10.374C15.2649 10.197 15.8261 9.48115 15.8261 8.54432C15.8261 7.16275 14.8259 6.36428 13.398 6.36428C12.3829 6.36428 11.4173 6.89799 11.1392 7.82397ZM6.00531 8.17304L4.93959 10.8632C4.79826 11.2762 4.70982 11.6742 4.70982 12.0389C4.70982 12.7137 5.08662 13.0756 5.7861 13.0756L7.50249 13.0756L7.50249 13.6762C7.50249 14.3178 7.92811 14.5854 8.39959 14.5854C8.89006 14.5854 9.29209 14.3212 9.29209 13.6762L9.29209 13.0756L9.42959 13.0756C9.97459 13.0756 10.1452 12.7172 10.1452 12.3306C10.1452 11.8741 9.91951 11.5903 9.43705 11.5903L9.29209 11.5903L9.29209 7.80298C9.29209 6.9208 8.71603 6.43318 7.84823 6.43318C6.69746 6.43318 6.33328 7.26454 6.00531 8.17304ZM7.55417 11.642L6.24849 11.642L6.24849 11.5737L7.5151 7.90415L7.55417 7.90415Z"
                     fill="currentColor" fill-opacity="0.85" />
       </g>
</svg>