<?xml version="1.0" encoding="UTF-8"?>
<!--Generator: Apple Native CoreSVG 326-->
<!DOCTYPE svg PUBLIC "-//W3C//DTD SVG 1.1//EN" "http://www.w3.org/Graphics/SVG/1.1/DTD/svg11.dtd">
<svg version="1.1" xmlns="http://www.w3.org/2000/svg" xmlns:xlink="http://www.w3.org/1999/xlink"
       viewBox="0 0 19.3993 19.0529">
       <g>
              <rect height="19.0529" opacity="0" width="19.3993" x="0" y="0" />
              <path d="M19.0379 3.63912L19.0379 15.4011C19.0379 17.7262 17.7164 19.0379 15.3896 19.0379L3.64834 19.0379C1.32382 19.0379 0 17.7262 0 15.4011L0 3.63912C0 1.32151 1.32382 0 3.64834 0L15.3896 0C17.7164 0 19.0379 1.32151 19.0379 3.63912ZM10.2471 6.8474C10.1982 7.02033 10.1689 7.20358 10.1689 7.38682C10.1689 7.75615 10.3935 8.13173 10.9506 8.13173C11.3297 8.13173 11.6915 8.00478 11.7966 7.58607C11.9029 7.20673 12.1012 6.8431 12.5207 6.8431C12.9908 6.8431 13.169 7.29868 13.169 7.77623C13.169 8.31467 12.9402 8.8294 12.3202 8.8294L12.2052 8.8294C11.7366 8.8294 11.5045 9.08155 11.5045 9.48072C11.5045 9.8799 11.7314 10.1349 12.2052 10.1349L12.33 10.1349C13.0178 10.1349 13.3298 10.5067 13.3298 11.1967C13.3298 11.6887 13.108 12.2098 12.5523 12.2098C12.1034 12.2098 11.8758 11.9005 11.7511 11.546C11.6087 11.1244 11.3193 10.9137 10.9052 10.9137C10.3877 10.9137 10.0644 11.2249 10.0644 11.7275C10.0644 11.928 10.0913 12.1187 10.1499 12.2847C10.4257 13.1923 11.4385 13.6726 12.5574 13.6726C14.0871 13.6726 15.1683 12.7719 15.1683 11.3127C15.1683 10.2418 14.5678 9.54447 13.7033 9.44166L13.7033 9.39744C14.3802 9.22045 14.9413 8.50459 14.9413 7.56775C14.9413 6.18619 13.9412 5.38772 12.5058 5.38772C11.4907 5.38772 10.5326 5.92143 10.2471 6.8474ZM5.11312 7.19648L4.05486 9.88663C3.90607 10.2996 3.82509 10.6976 3.82509 11.0623C3.82509 11.7371 4.19443 12.099 4.90138 12.099L6.6103 12.099L6.6103 12.6997C6.6103 13.3412 7.03592 13.6089 7.51486 13.6089C8.00533 13.6089 8.40736 13.3446 8.40736 12.6997L8.40736 12.099L8.54486 12.099C9.08986 12.099 9.26279 11.7406 9.26279 11.3541C9.26279 10.8975 9.03478 10.6138 8.55232 10.6138L8.40736 10.6138L8.40736 6.82642C8.40736 5.94423 7.83131 5.45662 6.95834 5.45662C5.80527 5.45662 5.44855 6.28797 5.11312 7.19648ZM6.66944 10.6655L5.3563 10.6655L5.3563 10.5971L6.63038 6.92759L6.66944 6.92759Z"
                     fill="currentColor" fill-opacity="0.85" />
       </g>
</svg>