<?xml version="1.0" encoding="UTF-8"?>
<!--Generator: Apple Native CoreSVG 326-->
<!DOCTYPE svg PUBLIC "-//W3C//DTD SVG 1.1//EN" "http://www.w3.org/Graphics/SVG/1.1/DTD/svg11.dtd">
<svg version="1.1" xmlns="http://www.w3.org/2000/svg" xmlns:xlink="http://www.w3.org/1999/xlink"
       viewBox="0 0 19.3993 19.0529">
       <g>
              <rect height="19.0529" opacity="0" width="19.3993" x="0" y="0" />
              <path d="M3.64834 19.0379L15.3896 19.0379C17.7164 19.0379 19.0379 17.7262 19.0379 15.4011L19.0379 3.63912C19.0379 1.32151 17.7164 0 15.3896 0L3.64834 0C1.32382 0 0 1.32151 0 3.63912L0 15.4011C0 17.7262 1.32382 19.0379 3.64834 19.0379ZM4.05583 16.0183C3.37024 16.0183 3.01964 15.7096 3.01964 14.9775L3.01964 4.07021C3.01964 3.33809 3.37024 3.0271 4.05583 3.0271L14.9821 3.0271C15.6654 3.0271 16.0183 3.33809 16.0183 4.07021L16.0183 14.9775C16.0183 15.7096 15.6654 16.0183 14.9821 16.0183Z"
                     fill="currentColor" fill-opacity="0.85" />
              <path d="M7.55107 13.3625C8.00939 13.3625 8.37927 13.1081 8.37927 12.505L8.37927 11.9314L8.51447 11.9314C9.02732 11.9314 9.18303 11.6051 9.18303 11.2358C9.18303 10.8114 8.97971 10.5523 8.5294 10.5523L8.37927 10.5523L8.37927 6.98145C8.37927 6.16587 7.84283 5.71041 7.03647 5.71041C5.95515 5.71041 5.62542 6.47977 5.31468 7.33144L4.31271 9.8671C4.16392 10.2554 4.0904 10.6212 4.0904 10.9687C4.0904 11.5942 4.44251 11.9314 5.09262 11.9314L6.71311 11.9314L6.71311 12.505C6.71311 13.1047 7.10428 13.3625 7.55107 13.3625ZM6.76479 10.604L5.52286 10.604L5.52286 10.5282L6.72573 7.09009L6.76479 7.09009ZM12.2807 13.4114C13.7094 13.4114 14.7239 12.5698 14.7239 11.1944C14.7239 10.1924 14.1579 9.54447 13.3451 9.44166L13.3451 9.4049C13.9852 9.23768 14.5119 8.56603 14.5119 7.69349C14.5119 6.39806 13.5732 5.6415 12.2291 5.6415C11.2806 5.6415 10.3741 6.14076 10.1208 7.01736C10.0645 7.17307 10.0449 7.34885 10.0449 7.52232C10.0449 7.85951 10.2523 8.21787 10.7675 8.21787C11.1219 8.21787 11.459 8.09837 11.5641 7.69689C11.6532 7.34454 11.8515 7.00559 12.2514 7.00559C12.6871 7.00559 12.8555 7.4365 12.8555 7.87959C12.8555 8.39104 12.6365 8.87131 12.0533 8.87131L11.9532 8.87131C11.5092 8.87131 11.2869 9.1137 11.2869 9.48072C11.2869 9.86268 11.5041 10.093 11.9532 10.093L12.063 10.093C12.7141 10.093 13.0164 10.4475 13.0164 11.0957C13.0164 11.5681 12.8043 12.0473 12.2756 12.0473C11.8462 12.0473 11.6358 11.7478 11.5186 11.418C11.386 11.0309 11.1189 10.8275 10.7244 10.8275C10.254 10.8275 9.94784 11.1216 9.94784 11.592C9.94784 11.7827 9.96737 11.951 10.0185 12.1073C10.2845 12.9632 11.2358 13.4114 12.2807 13.4114Z"
                     fill="currentColor" fill-opacity="0.85" />
       </g>
</svg>