<?xml version="1.0" encoding="UTF-8"?>
<!--Generator: Apple Native CoreSVG 326-->
<!DOCTYPE svg PUBLIC "-//W3C//DTD SVG 1.1//EN" "http://www.w3.org/Graphics/SVG/1.1/DTD/svg11.dtd">
<svg version="1.1" xmlns="http://www.w3.org/2000/svg" xmlns:xlink="http://www.w3.org/1999/xlink"
       viewBox="0 0 21.365 21.006">
       <g>
              <rect height="21.006" opacity="0" width="21.365" x="0" y="0" />
              <path d="M10.4981 20.9962C16.302 20.9962 21.0037 16.2946 21.0037 10.4981C21.0037 4.70163 16.302 0 10.4981 0C4.70163 0 0 4.70163 0 10.4981C0 16.2946 4.70163 20.9962 10.4981 20.9962ZM10.4981 17.9484C6.37829 17.9484 3.04785 14.6179 3.04785 10.4981C3.04785 6.37829 6.37829 3.04785 10.4981 3.04785C14.6179 3.04785 17.9558 6.37829 17.9558 10.4981C17.9558 14.6179 14.6179 17.9484 10.4981 17.9484Z"
                     fill="currentColor" fill-opacity="0.85" />
              <path d="M8.43568 14.3391C8.894 14.3391 9.27134 14.0846 9.27134 13.4816L9.27134 12.9079L9.39678 12.9079C9.91193 12.9079 10.0728 12.5817 10.0728 12.2124C10.0728 11.788 9.86431 11.5289 9.4117 11.5289L9.27134 11.5289L9.27134 7.95802C9.27134 7.14243 8.72744 6.68697 7.91877 6.68697C6.83976 6.68697 6.51003 7.45633 6.19929 8.308L5.19732 10.8437C5.04622 11.232 4.97501 11.5978 4.97501 11.9453C4.97501 12.5707 5.32712 12.9079 5.97723 12.9079L7.59541 12.9079L7.59541 13.4816C7.59541 14.0812 7.98889 14.3391 8.43568 14.3391ZM7.64709 11.5806L6.40747 11.5806L6.40747 11.5048L7.61033 8.06665L7.64709 8.06665ZM14.2471 14.3391C14.7055 14.3391 15.0828 14.0846 15.0828 13.4816L15.0828 12.9079L15.2105 12.9079C15.7234 12.9079 15.8842 12.5817 15.8842 12.2124C15.8842 11.788 15.6758 11.5289 15.2255 11.5289L15.0828 11.5289L15.0828 7.95802C15.0828 7.14243 14.5389 6.68697 13.7302 6.68697C12.6512 6.68697 12.3215 7.45633 12.0107 8.308L11.0088 10.8437C10.8577 11.232 10.7865 11.5978 10.7865 11.9453C10.7865 12.5707 11.1386 12.9079 11.7887 12.9079L13.4092 12.9079L13.4092 13.4816C13.4092 14.0812 13.8003 14.3391 14.2471 14.3391ZM13.4609 11.5806L12.2189 11.5806L12.2189 11.5048L13.4218 8.06665L13.4609 8.06665Z"
                     fill="currentColor" fill-opacity="0.85" />
       </g>
</svg>