<?xml version="1.0" encoding="UTF-8"?>
<!--Generator: Apple Native CoreSVG 326-->
<!DOCTYPE svg PUBLIC "-//W3C//DTD SVG 1.1//EN" "http://www.w3.org/Graphics/SVG/1.1/DTD/svg11.dtd">
<svg version="1.1" xmlns="http://www.w3.org/2000/svg" xmlns:xlink="http://www.w3.org/1999/xlink"
       viewBox="0 0 19.3993 19.0529">
       <g>
              <rect height="19.0529" opacity="0" width="19.3993" x="0" y="0" />
              <path d="M19.0379 3.63912L19.0379 15.4011C19.0379 17.7262 17.7164 19.0379 15.3896 19.0379L3.64834 19.0379C1.32382 19.0379 0 17.7262 0 15.4011L0 3.63912C0 1.32151 1.32382 0 3.64834 0L15.3896 0C17.7164 0 19.0379 1.32151 19.0379 3.63912ZM5.01832 7.19648L3.96751 9.88663C3.80896 10.2996 3.72052 10.6976 3.72052 11.0623C3.72052 11.7297 4.09732 12.099 4.7968 12.099L6.51549 12.099L6.51549 12.6997C6.51549 13.3338 6.93881 13.6089 7.41029 13.6089C7.90306 13.6089 8.30509 13.3446 8.30509 12.6997L8.30509 12.099L8.4426 12.099C8.99505 12.099 9.16568 11.7406 9.16568 11.3541C9.16568 10.8975 8.93998 10.6138 8.45752 10.6138L8.30509 10.6138L8.30509 6.82642C8.30509 5.94423 7.72673 5.45662 6.86869 5.45662C5.70816 5.45662 5.34629 6.28797 5.01832 7.19648ZM11.2116 7.19648L10.1608 9.88663C10.012 10.2996 9.92127 10.6976 9.92127 11.0623C9.92127 11.7297 10.2929 12.099 10.9976 12.099L12.7162 12.099L12.7162 12.6997C12.7162 13.3338 13.1321 13.6089 13.6133 13.6089C14.1038 13.6089 14.5058 13.3446 14.5058 12.6997L14.5058 12.099L14.6433 12.099C15.1883 12.099 15.359 11.7406 15.359 11.3541C15.359 10.8975 15.1333 10.6138 14.6508 10.6138L14.5058 10.6138L14.5058 6.82642C14.5058 5.94423 13.9275 5.45662 13.0545 5.45662C11.9014 5.45662 11.547 6.28797 11.2116 7.19648ZM6.57463 10.6655L5.26149 10.6655L5.26149 10.5971L6.52811 6.92759L6.57463 6.92759ZM12.7754 10.6655L11.4548 10.6655L11.4548 10.5971L12.7289 6.92759L12.7754 6.92759Z"
                     fill="currentColor" fill-opacity="0.85" />
       </g>
</svg>