<?xml version="1.0" encoding="UTF-8"?>
<!--Generator: Apple Native CoreSVG 326-->
<!DOCTYPE svg PUBLIC "-//W3C//DTD SVG 1.1//EN" "http://www.w3.org/Graphics/SVG/1.1/DTD/svg11.dtd">
<svg version="1.1" xmlns="http://www.w3.org/2000/svg" xmlns:xlink="http://www.w3.org/1999/xlink"
       viewBox="0 0 19.3993 19.0529">
       <g>
              <rect height="19.0529" opacity="0" width="19.3993" x="0" y="0" />
              <path d="M3.64834 19.0379L15.3896 19.0379C17.7164 19.0379 19.0379 17.7262 19.0379 15.4011L19.0379 3.63912C19.0379 1.32151 17.7164 0 15.3896 0L3.64834 0C1.32382 0 0 1.32151 0 3.63912L0 15.4011C0 17.7262 1.32382 19.0379 3.64834 19.0379ZM4.05583 16.0183C3.37024 16.0183 3.01964 15.7096 3.01964 14.9775L3.01964 4.07021C3.01964 3.33809 3.37024 3.0271 4.05583 3.0271L14.9821 3.0271C15.6654 3.0271 16.0183 3.33809 16.0183 4.07021L16.0183 14.9775C16.0183 15.7096 15.6654 16.0183 14.9821 16.0183Z"
                     fill="currentColor" fill-opacity="0.85" />
              <path d="M7.44135 13.3625C7.90713 13.3625 8.27701 13.1081 8.27701 12.505L8.27701 11.9314L8.4099 11.9314C8.91759 11.9314 9.07845 11.6051 9.07845 11.2358C9.07845 10.8114 8.87514 10.5523 8.41736 10.5523L8.27701 10.5523L8.27701 6.98145C8.27701 6.16587 7.73826 5.71041 6.9319 5.71041C5.85289 5.71041 5.5157 6.47977 5.20496 7.33144L4.20298 9.8671C4.05935 10.2554 3.97837 10.6212 3.97837 10.9687C3.97837 11.5942 4.33279 11.9314 4.99036 11.9314L6.60108 11.9314L6.60108 12.505C6.60108 13.1047 6.99455 13.3625 7.44135 13.3625ZM6.65276 10.604L5.42059 10.604L5.42059 10.5282L6.62116 7.09009L6.65276 7.09009ZM12.3715 13.4257C13.8358 13.4257 14.6182 12.213 14.6182 10.7917C14.6182 9.59276 14.1252 8.42482 12.9458 8.42482C12.207 8.42482 11.7456 8.95963 11.5732 9.63534L11.5565 9.63534C11.5565 9.49182 11.5565 9.34085 11.5565 9.19964C11.5565 7.96645 11.7604 7.00329 12.3296 7.00329C12.6221 7.00329 12.7659 7.22626 12.902 7.4872C13.0835 7.82724 13.3012 7.97142 13.6585 7.97142C14.1759 7.97142 14.3643 7.61822 14.3643 7.24373C14.3643 7.13631 14.3546 6.98182 14.3178 6.86979C14.0806 6.02994 13.293 5.62943 12.3985 5.62943C10.4562 5.62943 9.88518 7.62932 9.88518 9.56698C9.88518 11.256 10.4189 13.4257 12.3715 13.4257ZM12.3445 12.0519C11.9254 12.0519 11.7271 11.5219 11.7271 10.8337C11.7271 10.1805 11.9323 9.69072 12.3445 9.69072C12.7538 9.69072 12.9521 10.2023 12.9475 10.8727C12.9475 11.5483 12.7446 12.0519 12.3445 12.0519Z"
                     fill="currentColor" fill-opacity="0.85" />
       </g>
</svg>