<?xml version="1.0" encoding="UTF-8"?>
<!--Generator: Apple Native CoreSVG 326-->
<!DOCTYPE svg PUBLIC "-//W3C//DTD SVG 1.1//EN" "http://www.w3.org/Graphics/SVG/1.1/DTD/svg11.dtd">
<svg version="1.1" xmlns="http://www.w3.org/2000/svg" xmlns:xlink="http://www.w3.org/1999/xlink"
       viewBox="0 0 21.365 21.006">
       <g>
              <rect height="21.006" opacity="0" width="21.365" x="0" y="0" />
              <path d="M21.0037 10.4981C21.0037 16.2923 16.302 20.9962 10.4981 20.9962C4.70394 20.9962 0 16.2923 0 10.4981C0 4.70163 4.70394 0 10.4981 0C16.302 0 21.0037 4.70163 21.0037 10.4981ZM6.29664 8.17304L5.24815 10.8632C5.08959 11.2762 5.00115 11.6742 5.00115 12.0389C5.00115 12.7062 5.37795 13.0756 6.07744 13.0756L7.79382 13.0756L7.79382 13.6762C7.79382 14.3103 8.21944 14.5854 8.69092 14.5854C9.18139 14.5854 9.58342 14.3212 9.58342 13.6762L9.58342 13.0756L9.72092 13.0756C10.2682 13.0756 10.4388 12.7172 10.4388 12.3306C10.4388 11.8741 10.2281 11.5903 9.72838 11.5903L9.58342 11.5903L9.58342 7.80298C9.58342 6.9208 9.00737 6.43318 8.14702 6.43318C6.98133 6.43318 6.62461 7.26454 6.29664 8.17304ZM11.7394 6.55268C11.2708 6.55268 11.0043 6.88865 11.0043 7.28267C11.0043 7.7163 11.2932 8.02989 11.7394 8.02989L13.7379 8.02989L13.7379 8.14017L11.9418 13.1134C11.8562 13.338 11.8097 13.5321 11.8097 13.7911C11.8097 14.1662 12.0325 14.5803 12.6677 14.5803C13.1679 14.5803 13.369 14.389 13.5229 13.9732L15.4523 8.49688C15.5746 8.1247 15.6527 7.84325 15.6527 7.46076C15.6527 6.90994 15.2242 6.55268 14.6855 6.55268ZM7.85296 11.642L6.53982 11.642L6.53982 11.5737L7.80644 7.90415L7.85296 7.90415Z"
                     fill="currentColor" fill-opacity="0.85" />
       </g>
</svg>