<?xml version="1.0" encoding="UTF-8"?>
<!--Generator: Apple Native CoreSVG 326-->
<!DOCTYPE svg PUBLIC "-//W3C//DTD SVG 1.1//EN" "http://www.w3.org/Graphics/SVG/1.1/DTD/svg11.dtd">
<svg version="1.1" xmlns="http://www.w3.org/2000/svg" xmlns:xlink="http://www.w3.org/1999/xlink"
       viewBox="0 0 19.3993 19.0529">
       <g>
              <rect height="19.0529" opacity="0" width="19.3993" x="0" y="0" />
              <path d="M3.64834 19.0379L15.3896 19.0379C17.7164 19.0379 19.0379 17.7262 19.0379 15.4011L19.0379 3.63912C19.0379 1.32151 17.7164 0 15.3896 0L3.64834 0C1.32382 0 0 1.32151 0 3.63912L0 15.4011C0 17.7262 1.32382 19.0379 3.64834 19.0379ZM4.05583 16.0183C3.37024 16.0183 3.01964 15.7096 3.01964 14.9775L3.01964 4.07021C3.01964 3.33809 3.37024 3.0271 4.05583 3.0271L14.9821 3.0271C15.6654 3.0271 16.0183 3.33809 16.0183 4.07021L16.0183 14.9775C16.0183 15.7096 15.6654 16.0183 14.9821 16.0183Z"
                     fill="currentColor" fill-opacity="0.85" />
              <path d="M7.81772 13.3625C8.2835 13.3625 8.65338 13.1081 8.65338 12.505L8.65338 11.9314L8.78858 11.9314C9.29397 11.9314 9.45713 11.6051 9.45713 11.2358C9.45713 10.8114 9.24635 10.5523 8.79604 10.5523L8.65338 10.5523L8.65338 6.98145C8.65338 6.16587 8.11693 5.71041 7.30311 5.71041C6.22926 5.71041 5.89207 6.47977 5.58133 7.33144L4.57935 9.8671C4.43802 10.2554 4.35705 10.6212 4.35705 10.9687C4.35705 11.5942 4.70916 11.9314 5.36673 11.9314L6.97975 11.9314L6.97975 12.505C6.97975 13.1047 7.37092 13.3625 7.81772 13.3625ZM7.03143 10.604L5.79696 10.604L5.79696 10.5282L6.99983 7.09009L7.03143 7.09009ZM11.543 13.3574C12.0013 13.3574 12.2024 13.1736 12.3391 12.7922L14.1553 7.63345C14.2776 7.30087 14.3409 7.02919 14.3409 6.67884C14.3409 6.15501 13.9468 5.82244 13.4402 5.82244L10.6664 5.82244C10.2374 5.82244 9.98811 6.13372 9.98811 6.51052C9.98811 6.9097 10.2523 7.1986 10.6664 7.1986L12.557 7.1986L12.557 7.30141L10.8665 11.9743C10.7883 12.1891 10.7418 12.3683 10.7418 12.6176C10.7418 12.9605 10.9572 13.3574 11.543 13.3574Z"
                     fill="currentColor" fill-opacity="0.85" />
       </g>
</svg>