<?xml version="1.0" encoding="UTF-8"?>
<!--Generator: Apple Native CoreSVG 326-->
<!DOCTYPE svg PUBLIC "-//W3C//DTD SVG 1.1//EN" "http://www.w3.org/Graphics/SVG/1.1/DTD/svg11.dtd">
<svg version="1.1" xmlns="http://www.w3.org/2000/svg" xmlns:xlink="http://www.w3.org/1999/xlink"
       viewBox="0 0 19.3993 19.0529">
       <g>
              <rect height="19.0529" opacity="0" width="19.3993" x="0" y="0" />
              <path d="M19.0379 3.63912L19.0379 15.4011C19.0379 17.7262 17.7164 19.0379 15.3896 19.0379L3.64834 19.0379C1.32382 19.0379 0 17.7262 0 15.4011L0 3.63912C0 1.32151 1.32382 0 3.64834 0L15.3896 0C17.7164 0 19.0379 1.32151 19.0379 3.63912ZM10.1464 8.17959C10.1464 9.44749 10.6664 10.6992 11.9223 10.6992C12.7127 10.6992 13.1937 10.13 13.381 9.41237L13.3976 9.41237C13.3976 9.5708 13.3976 9.72923 13.3976 9.8779C13.3976 11.2001 13.1863 12.2195 12.5706 12.2195C12.3004 12.2195 12.1395 12.0562 11.9688 11.7161C11.7874 11.3393 11.545 11.1825 11.1676 11.1825C10.6134 11.1825 10.4055 11.5627 10.4055 11.9693C10.4055 12.0716 10.4199 12.2433 10.4641 12.3605C10.7111 13.2618 11.5504 13.6921 12.5138 13.6921C14.5743 13.6921 15.1849 11.5562 15.1849 9.48819C15.1849 7.68834 14.6168 5.36818 12.5385 5.36818C10.9829 5.36818 10.1464 6.66471 10.1464 8.17959ZM5.15219 7.19648L4.09392 9.88663C3.94283 10.2996 3.85439 10.6976 3.85439 11.0623C3.85439 11.7297 4.23349 12.099 4.93067 12.099L6.64706 12.099L6.64706 12.6997C6.64706 13.3412 7.07498 13.6089 7.54646 13.6089C8.03693 13.6089 8.43896 13.3446 8.43896 12.6997L8.43896 12.099L8.57416 12.099C9.12892 12.099 9.29955 11.7406 9.29955 11.3541C9.29955 10.8975 9.07154 10.6138 8.58908 10.6138L8.43896 10.6138L8.43896 6.82642C8.43896 5.94423 7.86806 5.45662 6.9951 5.45662C5.84433 5.45662 5.48015 6.28797 5.15219 7.19648ZM6.7062 10.6655L5.39305 10.6655L5.39305 10.5971L6.65967 6.92759L6.7062 6.92759ZM13.2196 8.14108C13.2196 8.84772 12.9971 9.36214 12.5654 9.36214C12.1292 9.36214 11.9234 8.83104 11.9234 8.11123C11.9234 7.38912 12.1458 6.86317 12.5654 6.86317C13.0041 6.86317 13.2196 7.39658 13.2196 8.14108Z"
                     fill="currentColor" fill-opacity="0.85" />
       </g>
</svg>