<?xml version="1.0" encoding="UTF-8"?>
<!--Generator: Apple Native CoreSVG 326-->
<!DOCTYPE svg PUBLIC "-//W3C//DTD SVG 1.1//EN" "http://www.w3.org/Graphics/SVG/1.1/DTD/svg11.dtd">
<svg version="1.1" xmlns="http://www.w3.org/2000/svg" xmlns:xlink="http://www.w3.org/1999/xlink"
       viewBox="0 0 21.365 21.006">
       <g>
              <rect height="21.006" opacity="0" width="21.365" x="0" y="0" />
              <path d="M10.4981 20.9962C16.302 20.9962 21.0037 16.2946 21.0037 10.4981C21.0037 4.70163 16.302 0 10.4981 0C4.70163 0 0 4.70163 0 10.4981C0 16.2946 4.70163 20.9962 10.4981 20.9962ZM10.4981 17.9484C6.37829 17.9484 3.04785 14.6179 3.04785 10.4981C3.04785 6.37829 6.37829 3.04785 10.4981 3.04785C14.6179 3.04785 17.9558 6.37829 17.9558 10.4981C17.9558 14.6179 14.6179 17.9484 10.4981 17.9484Z"
                     fill="currentColor" fill-opacity="0.85" />
              <path d="M8.15994 14.3391C8.62802 14.3391 8.9979 14.0846 8.9979 13.4816L8.9979 12.9079L9.1308 12.9079C9.64595 12.9079 9.79935 12.5817 9.79935 12.2124C9.79935 11.788 9.59603 11.5289 9.13826 11.5289L8.9979 11.5289L8.9979 7.95802C8.9979 7.14243 8.45916 6.68697 7.65279 6.68697C6.57378 6.68697 6.2366 7.45633 5.92355 8.308L4.93134 10.8437C4.78025 11.232 4.69927 11.5978 4.69927 11.9453C4.69927 12.5707 5.05368 12.9079 5.70895 12.9079L7.32944 12.9079L7.32944 13.4816C7.32944 14.0812 7.72291 14.3391 8.15994 14.3391ZM7.38112 11.5806L6.13918 11.5806L6.13918 11.5048L7.34205 8.06665L7.38112 8.06665ZM11.3446 14.3414C11.8724 14.3414 12.1412 14.0589 12.2268 13.5103L12.3677 12.7842L13.9756 12.7842L14.1262 13.535C14.2164 14.0853 14.5169 14.3414 15.0303 14.3414C15.5156 14.3414 15.8487 13.9664 15.8487 13.4885C15.8487 13.3575 15.8045 13.0463 15.7729 12.9125L14.5575 7.76962C14.3789 6.96041 13.8241 6.68927 13.1481 6.68927C12.5048 6.68927 11.9742 6.96963 11.7978 7.76962L10.5974 12.9148C10.5756 13.032 10.5141 13.3415 10.5141 13.4885C10.5141 13.9934 10.8151 14.3414 11.3446 14.3414ZM12.6067 11.4862L13.1142 8.67594L13.1699 8.67594L13.7217 11.4862Z"
                     fill="currentColor" fill-opacity="0.85" />
       </g>
</svg>