<?xml version="1.0" encoding="UTF-8"?>
<!--Generator: Apple Native CoreSVG 326-->
<!DOCTYPE svg PUBLIC "-//W3C//DTD SVG 1.1//EN" "http://www.w3.org/Graphics/SVG/1.1/DTD/svg11.dtd">
<svg version="1.1" xmlns="http://www.w3.org/2000/svg" xmlns:xlink="http://www.w3.org/1999/xlink"
       viewBox="0 0 27.7007 15.3742">
       <g>
              <rect height="15.3742" opacity="0" width="27.7007" x="0" y="0" />
              <path d="M8.43514 15.2623C9.37622 15.2623 10.1307 14.5032 10.1307 13.5478L10.1307 12.477L10.6662 12.477C11.4609 12.477 12.0793 11.8678 12.0793 11.0731C12.0793 10.2853 11.4661 9.66918 10.6736 9.66918L10.1307 9.66918L10.1307 2.86218C10.1307 1.25049 8.91802 0.124527 7.20988 0.124527C5.59983 0.124527 4.59215 1.10479 3.94664 2.37954L0.346407 9.05383C0.126953 9.48461 0 9.9573 0 10.4208C0 11.4934 0.641438 12.477 2.1613 12.477L6.73962 12.477L6.73962 13.5478C6.73962 14.5337 7.51996 15.2623 8.43514 15.2623ZM6.83145 9.79316L2.97379 9.79316L2.97379 9.69781L6.72864 2.89985L6.83145 2.89985ZM15.2448 15.3742C16.3517 15.3742 16.9637 14.8804 17.2612 13.7143L17.7898 12.0129L22.7682 12.0129L23.3042 13.7143C23.5942 14.8804 24.2063 15.3742 25.3184 15.3742C26.5447 15.3742 27.3393 14.6439 27.3393 13.5214C27.3393 13.0645 27.2727 12.7068 27.12 12.2555L23.6292 2.27406C23.1061 0.730846 22.0567 0.00285089 20.3126 0.00285089C18.6775 0.00285089 17.6407 0.736002 17.1125 2.27175L13.5247 12.4369C13.3943 12.8359 13.3203 13.2309 13.3203 13.576C13.3203 14.691 14.058 15.3742 15.2448 15.3742ZM18.6115 9.12589L20.2907 3.51605L20.3694 3.51605L22.0411 9.12589Z"
                     fill="currentColor" fill-opacity="0.85" />
       </g>
</svg>