<?xml version="1.0" encoding="UTF-8"?>
<!--Generator: Apple Native CoreSVG 326-->
<!DOCTYPE svg PUBLIC "-//W3C//DTD SVG 1.1//EN" "http://www.w3.org/Graphics/SVG/1.1/DTD/svg11.dtd">
<svg version="1.1" xmlns="http://www.w3.org/2000/svg" xmlns:xlink="http://www.w3.org/1999/xlink"
       viewBox="0 0 27.29 15.1504">
       <g>
              <rect height="15.1504" opacity="0" width="27.29" x="0" y="0" />
              <path d="M8.43514 15.1504C9.37622 15.1504 10.1307 14.3913 10.1307 13.4359L10.1307 12.365L10.6662 12.365C11.4609 12.365 12.0793 11.7559 12.0793 10.9612C12.0793 10.1734 11.4661 9.55727 10.6736 9.55727L10.1307 9.55727L10.1307 2.75027C10.1307 1.13858 8.91802 0.0126165 7.20988 0.0126165C5.59983 0.0126165 4.59215 0.99288 3.94664 2.26763L0.346407 8.94192C0.126953 9.3727 0 9.84539 0 10.3089C0 11.3815 0.641438 12.365 2.1613 12.365L6.73962 12.365L6.73962 13.4359C6.73962 14.4218 7.51996 15.1504 8.43514 15.1504ZM6.83145 9.68125L2.97379 9.68125L2.97379 9.5859L6.72864 2.78794L6.83145 2.78794ZM16.3258 15.1504C17.2967 15.1504 18.0902 14.3569 18.0902 13.3859L18.0902 8.94707L23.4073 8.94707L23.4073 13.3859C23.4073 14.3569 24.2008 15.1504 25.1643 15.1504C26.1352 15.1504 26.9287 14.3569 26.9287 13.3859L26.9287 1.77474C26.9287 0.80151 26.1352 0.0103116 25.1643 0.0103116C24.2008 0.0103116 23.4073 0.80151 23.4073 1.77474L23.4073 6.1054L18.0902 6.1054L18.0902 1.77474C18.0902 0.80151 17.2967 0.0103116 16.3258 0.0103116C15.3548 0.0103116 14.5613 0.80151 14.5613 1.77474L14.5613 13.3859C14.5613 14.3569 15.3548 15.1504 16.3258 15.1504Z"
                     fill="currentColor" fill-opacity="0.85" />
       </g>
</svg>