<?xml version="1.0" encoding="UTF-8"?>
<!--Generator: Apple Native CoreSVG 326-->
<!DOCTYPE svg PUBLIC "-//W3C//DTD SVG 1.1//EN" "http://www.w3.org/Graphics/SVG/1.1/DTD/svg11.dtd">
<svg version="1.1" xmlns="http://www.w3.org/2000/svg" xmlns:xlink="http://www.w3.org/1999/xlink"
       viewBox="0 0 21.365 24.1601">
       <g>
              <rect height="24.1601" opacity="0" width="21.365" x="0" y="0" />
              <path d="M10.4981 22.5733C16.302 22.5733 21.0037 17.8642 21.0037 12.0752C21.0037 7.10513 17.5277 2.92787 12.8902 1.85959L12.8902 0.808605C12.8902-0.0138912 12.1356-0.212055 11.5664 0.22849L8.26694 2.75918C7.86248 3.05907 7.86479 3.60988 8.26694 3.91492L11.5687 6.43816C12.1356 6.86894 12.8902 6.67823 12.8902 5.8655L12.8902 5.02627C15.8384 6.01763 17.9558 8.78179 17.9558 12.0752C17.9558 16.195 14.6179 19.5254 10.4981 19.5254C6.37829 19.5254 3.04785 16.195 3.04785 12.0752C3.04785 9.95596 3.89279 8.15388 5.35132 6.73665C5.99045 6.03849 6.20694 5.13933 5.55992 4.4382C4.9875 3.82376 4.02799 3.76626 3.25511 4.53101C1.14591 6.50409 0 9.28511 0 12.0752C0 17.8642 4.70163 22.5733 10.4981 22.5733Z"
                     fill="currentColor" fill-opacity="0.85" />
              <path d="M10.5722 15.9133C12.1255 15.9133 13.0727 14.8327 13.0727 13.272C13.0727 12.0305 12.4201 10.9448 11.2131 10.9448C10.6208 10.9448 10.0963 11.2251 9.86989 11.7456L9.83083 11.7456L9.93716 10.0039L12.0767 10.0039C12.5184 10.0039 12.7705 9.71449 12.7705 9.29293C12.7705 8.85645 12.5132 8.57446 12.0767 8.57446L9.33424 8.57446C8.75928 8.57446 8.46522 8.90758 8.43362 9.50493L8.30315 11.9685C8.27385 12.4803 8.55069 12.9219 9.12959 12.9219C9.46447 12.9219 9.66087 12.8323 9.87111 12.5778C10.0309 12.3675 10.2361 12.1945 10.5297 12.1945C11.1147 12.1945 11.3165 12.776 11.3165 13.3185C11.3165 13.9397 11.0682 14.4838 10.54 14.4838C10.1504 14.4838 9.89919 14.2447 9.73603 13.916C9.55685 13.5828 9.30185 13.4163 8.95611 13.4163C8.50986 13.4163 8.22041 13.6908 8.22041 14.137C8.22041 14.4855 8.40408 14.8191 8.66466 15.0533C9.07294 15.6103 9.84873 15.9133 10.5722 15.9133Z"
                     fill="currentColor" fill-opacity="0.85" />
       </g>
</svg>