<?xml version="1.0" encoding="UTF-8"?>
<!--Generator: Apple Native CoreSVG 326-->
<!DOCTYPE svg PUBLIC "-//W3C//DTD SVG 1.1//EN" "http://www.w3.org/Graphics/SVG/1.1/DTD/svg11.dtd">
<svg version="1.1" xmlns="http://www.w3.org/2000/svg" xmlns:xlink="http://www.w3.org/1999/xlink"
       viewBox="0 0 21.365 21.006">
       <g>
              <rect height="21.006" opacity="0" width="21.365" x="0" y="0" />
              <path d="M21.0037 10.4981C21.0037 16.2923 16.302 20.9962 10.4981 20.9962C4.70394 20.9962 0 16.2923 0 10.4981C0 4.70163 4.70394 0 10.4981 0C16.302 0 21.0037 4.70163 21.0037 10.4981ZM8.50616 5.95018C7.64066 5.95018 7.0543 6.53017 7.00778 7.36231L6.82902 9.97101C6.76758 10.9449 7.30335 11.475 8.35986 11.475C8.88763 11.475 9.19431 11.3595 9.5224 11.1762C9.84424 10.9898 10.1057 10.8634 10.4867 10.8634C11.1259 10.8634 11.5553 11.2997 11.5553 11.9579C11.5553 12.5839 11.0535 13.0685 10.3878 13.0685C9.78904 13.0685 9.42911 12.8225 9.12692 12.4942C8.88399 12.2764 8.58763 12.0954 8.00369 12.0954C7.2205 12.0954 6.768 12.5204 6.768 13.1647C6.768 13.3778 6.80707 13.5638 6.88289 13.7499C7.28328 14.7007 8.56706 15.3005 10.4619 15.3005C12.8983 15.3005 14.4314 13.9764 14.4314 11.8666C14.4314 10.052 13.2193 8.8789 11.3661 8.8789C10.4563 8.8789 9.63134 9.24022 9.31477 9.7905L9.1718 9.7905L9.30919 8.0507L12.8178 8.0507C13.5625 8.0507 14.0253 7.65274 14.0253 6.99298C14.0253 6.32346 13.5947 5.95018 12.8178 5.95018Z"
                     fill="currentColor" fill-opacity="0.85" />
       </g>
</svg>