<?xml version="1.0" encoding="UTF-8"?>
<!--Generator: Apple Native CoreSVG 326-->
<!DOCTYPE svg PUBLIC "-//W3C//DTD SVG 1.1//EN" "http://www.w3.org/Graphics/SVG/1.1/DTD/svg11.dtd">
<svg version="1.1" xmlns="http://www.w3.org/2000/svg" xmlns:xlink="http://www.w3.org/1999/xlink"
       viewBox="0 0 19.3993 19.0529">
       <g>
              <rect height="19.0529" opacity="0" width="19.3993" x="0" y="0" />
              <path d="M3.64834 19.0379L15.3896 19.0379C17.7164 19.0379 19.0379 17.7262 19.0379 15.4011L19.0379 3.63912C19.0379 1.32151 17.7164 0 15.3896 0L3.64834 0C1.32382 0 0 1.32151 0 3.63912L0 15.4011C0 17.7262 1.32382 19.0379 3.64834 19.0379ZM4.05583 16.0183C3.37024 16.0183 3.01964 15.7096 3.01964 14.9775L3.01964 4.07021C3.01964 3.33809 3.37024 3.0271 4.05583 3.0271L14.9821 3.0271C15.6654 3.0271 16.0183 3.33809 16.0183 4.07021L16.0183 14.9775C16.0183 15.7096 15.6654 16.0183 14.9821 16.0183Z"
                     fill="currentColor" fill-opacity="0.85" />
              <path d="M9.48764 14.0282C11.761 14.0282 13.2028 12.7805 13.2028 10.8062C13.2028 9.10757 12.0647 8.00339 10.3322 8.00339C9.47915 8.00339 8.7036 8.34749 8.40426 8.85815L8.26876 8.85815L8.39868 7.2091L11.6983 7.2091C12.3959 7.2091 12.8191 6.84328 12.8191 6.23059C12.8191 5.60298 12.4131 5.26185 11.6983 5.26185L7.6628 5.26185C6.84152 5.26185 6.30222 5.79247 6.2557 6.57524L6.08902 9.03636C6.03273 9.94365 6.5289 10.4341 7.51365 10.4341C8.00927 10.4341 8.30103 10.3187 8.59982 10.1526C8.90443 9.96852 9.14869 9.85934 9.51245 9.85934C10.1149 9.85934 10.5173 10.2686 10.5173 10.8878C10.5173 11.492 10.0499 11.9421 9.42104 11.9421C8.859 11.9421 8.51114 11.7133 8.22618 11.4045C7.99817 11.1964 7.71903 11.0253 7.1747 11.0253C6.45581 11.0253 6.028 11.4255 6.028 12.0279C6.028 12.2163 6.06706 12.3949 6.14288 12.5638C6.50882 13.4555 7.70878 14.0282 9.48764 14.0282Z"
                     fill="currentColor" fill-opacity="0.85" />
       </g>
</svg>