<?xml version="1.0" encoding="UTF-8"?>
<!--Generator: Apple Native CoreSVG 326-->
<!DOCTYPE svg PUBLIC "-//W3C//DTD SVG 1.1//EN" "http://www.w3.org/Graphics/SVG/1.1/DTD/svg11.dtd">
<svg version="1.1" xmlns="http://www.w3.org/2000/svg" xmlns:xlink="http://www.w3.org/1999/xlink"
       viewBox="0 0 19.3993 19.0529">
       <g>
              <rect height="19.0529" opacity="0" width="19.3993" x="0" y="0" />
              <path d="M19.0379 3.63912L19.0379 15.4011C19.0379 17.7262 17.7164 19.0379 15.3896 19.0379L3.64834 19.0379C1.32382 19.0379 0 17.7262 0 15.4011L0 3.63912C0 1.32151 1.32382 0 3.64834 0L15.3896 0C17.7164 0 19.0379 1.32151 19.0379 3.63912ZM5.38541 5.58818C4.79608 5.58818 4.51694 5.98451 4.4928 6.58185L4.38877 9.02987C4.38647 9.11151 4.379 9.32745 4.379 9.4194C4.379 9.98162 4.67646 10.336 5.2049 10.336C5.53802 10.336 5.71665 10.2533 5.90912 9.95518C6.05396 9.7276 6.23842 9.50068 6.50682 9.50068C7.03265 9.50068 7.20163 10.2401 7.20163 10.8406C7.20163 11.4044 7.06018 12.2241 6.51713 12.2241C6.15447 12.2241 5.95157 11.9357 5.82802 11.5828C5.67868 11.1859 5.39439 10.9774 5.03888 10.9774C4.57826 10.9774 4.29166 11.2715 4.29166 11.7321C4.29166 11.9217 4.32787 12.0941 4.39338 12.267C4.66287 13.0799 5.54639 13.6967 6.5665 13.6967C8.16115 13.6967 8.98322 12.3956 8.98322 10.7889C8.98322 9.55885 8.51314 8.21987 7.22923 8.21987C6.53654 8.21987 6.12626 8.63506 5.95958 9.05917L5.89583 9.05917L6.01708 7.0631L8.01709 7.0631C8.49318 7.0631 8.72295 6.73689 8.72295 6.3308C8.72295 5.88685 8.46104 5.58818 8.01709 5.58818ZM9.95936 9.53131C9.95936 11.5178 10.57 13.6967 12.6041 13.6967C14.6382 13.6967 15.2563 11.5178 15.2563 9.53131C15.2563 7.54483 14.6382 5.36588 12.6041 5.36588C10.57 5.36588 9.95936 7.54483 9.95936 9.53131ZM13.3392 9.53131C13.3392 11.1921 13.1311 12.1897 12.6041 12.1897C12.0747 12.1897 11.8667 11.1921 11.8667 9.53131C11.8667 7.87279 12.0747 6.87294 12.6041 6.87294C13.1311 6.87294 13.3392 7.87279 13.3392 9.53131Z"
                     fill="currentColor" fill-opacity="0.85" />
       </g>
</svg>