<?xml version="1.0" encoding="UTF-8"?>
<!--Generator: Apple Native CoreSVG 326-->
<!DOCTYPE svg PUBLIC "-//W3C//DTD SVG 1.1//EN" "http://www.w3.org/Graphics/SVG/1.1/DTD/svg11.dtd">
<svg version="1.1" xmlns="http://www.w3.org/2000/svg" xmlns:xlink="http://www.w3.org/1999/xlink"
       viewBox="0 0 21.365 21.006">
       <g>
              <rect height="21.006" opacity="0" width="21.365" x="0" y="0" />
              <path d="M21.0037 10.4981C21.0037 16.2923 16.302 20.9962 10.4981 20.9962C4.70394 20.9962 0 16.2923 0 10.4981C0 4.70163 4.70394 0 10.4981 0C16.302 0 21.0037 4.70163 21.0037 10.4981ZM6.38332 10.4691C6.38332 11.7513 6.63492 12.787 7.1243 13.5578C7.82851 14.6917 9.03648 15.3005 10.6061 15.3005C12.9507 15.3005 14.5257 14.0144 14.5257 11.9315C14.5257 10.2188 13.2967 9.13717 11.6303 9.13717C10.6184 9.13717 9.77515 9.61186 9.40812 10.2398C9.38113 10.2398 9.32715 10.2398 9.30015 10.2398C9.28523 10.1089 9.27777 9.99011 9.27777 9.87129C9.27777 8.68364 9.86462 7.83531 10.8261 7.83531C11.3105 7.83531 11.5766 8.03359 11.8524 8.23594C12.1523 8.43884 12.4319 8.62208 12.9379 8.62208C13.6005 8.62208 14.0358 8.22872 14.0358 7.64588C14.0358 7.36795 13.9468 7.12678 13.7986 6.89823C13.3593 6.17097 12.2185 5.69573 10.8525 5.69573C8.05191 5.69573 6.38332 7.37826 6.38332 10.4691ZM11.6007 12.0073C11.6007 12.6891 11.1449 13.157 10.4631 13.157C9.79001 13.157 9.3152 12.6775 9.3152 11.9975C9.3152 11.3417 9.78771 10.8714 10.4654 10.8714C11.1305 10.8714 11.6007 11.3393 11.6007 12.0073Z"
                     fill="currentColor" fill-opacity="0.85" />
       </g>
</svg>