<?xml version="1.0" encoding="UTF-8"?>
<!--Generator: Apple Native CoreSVG 326-->
<!DOCTYPE svg PUBLIC "-//W3C//DTD SVG 1.1//EN" "http://www.w3.org/Graphics/SVG/1.1/DTD/svg11.dtd">
<svg version="1.1" xmlns="http://www.w3.org/2000/svg" xmlns:xlink="http://www.w3.org/1999/xlink"
       viewBox="0 0 19.3993 16.9895">
       <g>
              <rect height="16.9895" opacity="0" width="19.3993" x="0" y="0" />
              <path d="M0 15.4822C0 16.3148 0.679834 16.9895 1.5124 16.9895C2.33981 16.9895 3.01964 16.3148 3.01964 15.4822L3.01964 1.69607C3.01964 0.863501 2.33981 0.183667 1.5124 0.183667C0.679834 0.183667 0 0.863501 0 1.69607ZM16.0183 15.4822C16.0183 16.3148 16.7004 16.9895 17.5255 16.9895C18.3581 16.9895 19.0379 16.3148 19.0379 15.4822L19.0379 1.69607C19.0379 0.863501 18.3581 0.183667 17.5255 0.183667C16.7004 0.183667 16.0183 0.863501 16.0183 1.69607Z"
                     fill="currentColor" fill-opacity="0.85" />
              <path d="M9.66803 12.8846C11.3035 12.8846 12.5058 11.7511 12.5058 9.94111C12.5058 8.48306 11.764 7.32149 10.3635 7.32149C9.48673 7.32149 8.85821 7.84259 8.60716 8.64974L8.57556 8.64974C8.57556 8.03493 8.58708 7.58043 8.6595 7.17652C8.76529 6.57433 9.009 5.88667 9.62327 5.88667C9.98362 5.88667 10.2204 6.05797 10.4049 6.36719C10.6231 6.73246 10.92 6.91055 11.3416 6.91055C11.9647 6.91055 12.1927 6.47637 12.1927 6.05942C12.1927 5.8245 12.1439 5.60681 12.0485 5.4161C11.6746 4.65954 10.6797 4.24872 9.67264 4.24872C7.39913 4.24872 6.58804 6.29082 6.56729 8.46898C6.54655 9.46672 6.70905 10.4106 7.05018 11.1522C7.53955 12.1979 8.40068 12.8846 9.66803 12.8846ZM9.63358 11.2467C9.04509 11.2467 8.7904 10.579 8.7904 9.99794C8.7904 9.33539 9.09908 8.81187 9.6508 8.81187C10.2318 8.81187 10.4819 9.43645 10.4819 10.0295C10.4819 10.6651 10.1801 11.2467 9.63358 11.2467Z"
                     fill="currentColor" fill-opacity="0.85" />
       </g>
</svg>