<?xml version="1.0" encoding="UTF-8"?>
<!--Generator: Apple Native CoreSVG 326-->
<!DOCTYPE svg PUBLIC "-//W3C//DTD SVG 1.1//EN" "http://www.w3.org/Graphics/SVG/1.1/DTD/svg11.dtd">
<svg version="1.1" xmlns="http://www.w3.org/2000/svg" xmlns:xlink="http://www.w3.org/1999/xlink"
       viewBox="0 0 19.3993 19.0529">
       <g>
              <rect height="19.0529" opacity="0" width="19.3993" x="0" y="0" />
              <path d="M19.0379 3.63912L19.0379 15.4011C19.0379 17.7262 17.7164 19.0379 15.3896 19.0379L3.64834 19.0379C1.32382 19.0379 0 17.7262 0 15.4011L0 3.63912C0 1.32151 1.32382 0 3.64834 0L15.3896 0C17.7164 0 19.0379 1.32151 19.0379 3.63912ZM5.49113 9.49249C5.49113 10.7748 5.75019 11.8105 6.23957 12.5813C6.94378 13.7152 8.14429 14.3239 9.71389 14.3239C12.0659 14.3239 13.6409 13.0378 13.6409 10.9549C13.6409 9.24229 12.4045 8.16061 10.7456 8.16061C9.7262 8.16061 8.89273 8.6353 8.51593 9.26327C8.48894 9.26327 8.43496 9.26327 8.41542 9.26327C8.39304 9.13238 8.38558 9.01355 8.38558 8.89473C8.38558 7.70708 8.97473 6.85875 9.93389 6.85875C10.4183 6.85875 10.6844 7.05703 10.97 7.25938C11.2675 7.46227 11.5398 7.64552 12.0457 7.64552C12.7083 7.64552 13.1459 7.25216 13.1459 6.66932C13.1459 6.39139 13.0546 6.15022 12.9065 5.92167C12.4671 5.1944 11.3361 4.71916 9.96779 4.71916C7.15972 4.71916 5.49113 6.4017 5.49113 9.49249ZM10.716 11.0307C10.716 11.7125 10.2527 12.1804 9.57323 12.1804C8.89782 12.1804 8.42301 11.701 8.42301 11.021C8.42301 10.3651 8.89552 9.89489 9.57323 9.89489C10.2458 9.89489 10.716 10.3628 10.716 11.0307Z"
                     fill="currentColor" fill-opacity="0.85" />
       </g>
</svg>