<?xml version="1.0" encoding="UTF-8"?>
<!--Generator: Apple Native CoreSVG 326-->
<!DOCTYPE svg PUBLIC "-//W3C//DTD SVG 1.1//EN" "http://www.w3.org/Graphics/SVG/1.1/DTD/svg11.dtd">
<svg version="1.1" xmlns="http://www.w3.org/2000/svg" xmlns:xlink="http://www.w3.org/1999/xlink"
       viewBox="0 0 21.365 24.1601">
       <g>
              <rect height="24.1601" opacity="0" width="21.365" x="0" y="0" />
              <path d="M10.4981 22.5733C16.302 22.5733 21.0037 17.8642 21.0037 12.0752C21.0037 9.28511 19.8503 6.50409 17.7411 4.53101C16.9682 3.76626 16.0087 3.82376 15.4363 4.4382C14.7967 5.13933 15.0058 6.03849 15.6449 6.73665C17.1034 8.15388 17.9558 9.95596 17.9558 12.0752C17.9558 16.195 14.6179 19.5254 10.4981 19.5254C6.37829 19.5254 3.04785 16.195 3.04785 12.0752C3.04785 8.78179 5.16529 6.01763 8.10601 5.02627L8.10601 5.8655C8.10601 6.67823 8.86804 6.86894 9.43499 6.43816L12.7367 3.91492C13.1314 3.60988 13.1337 3.05907 12.7367 2.75918L9.43729 0.22849C8.86804-0.212055 8.10601-0.0138912 8.10601 0.808605L8.10601 1.85959C3.46856 2.92787 0 7.10513 0 12.0752C0 17.8642 4.70163 22.5733 10.4981 22.5733Z"
                     fill="currentColor" fill-opacity="0.85" />
              <path d="M7.55405 15.911C8.96952 15.911 10.0276 14.9165 10.0276 13.3437C10.0276 12.0758 9.37318 11.0659 8.15588 11.0659C7.38888 11.0659 6.84079 11.5163 6.61903 12.2184L6.59489 12.2184C6.59489 11.6788 6.60642 11.2829 6.66907 10.9376C6.76048 10.4032 6.97029 9.80347 7.50928 9.80347C7.83343 9.80347 8.02886 9.96039 8.19148 10.2334C8.38273 10.5447 8.64058 10.7032 9.00815 10.7032C9.5526 10.7032 9.75362 10.3156 9.75362 9.96009C9.75362 9.7447 9.70709 9.56376 9.62151 9.40005C9.30155 8.74114 8.43877 8.38145 7.55866 8.38145C5.57635 8.38145 4.86292 10.157 4.84448 12.0589C4.82604 12.9291 4.97131 13.7558 5.27053 14.3998C5.70131 15.3117 6.4401 15.911 7.55405 15.911ZM7.51959 14.4815C7.00869 14.4815 6.78274 13.8988 6.78274 13.3931C6.78274 12.8156 7.06037 12.3576 7.52936 12.3576C8.04257 12.3576 8.25644 12.9069 8.25644 13.4247C8.25644 13.9775 8.00066 14.4815 7.51959 14.4815ZM13.5916 15.9087C15.5327 15.9087 16.2714 14.1002 16.2714 12.1316C16.2714 10.1704 15.5304 8.37915 13.5916 8.37915C11.6305 8.37915 10.897 10.1877 10.897 12.1316C10.897 14.0899 11.6477 15.9087 13.5916 15.9087ZM13.5916 14.4545C13.0497 14.4545 12.7813 13.6115 12.7813 12.1316C12.7813 10.6689 13.0497 9.83562 13.5916 9.83562C14.121 9.83562 14.3968 10.6689 14.3968 12.1316C14.3968 13.6115 14.121 14.4545 13.5916 14.4545Z"
                     fill="currentColor" fill-opacity="0.85" />
       </g>
</svg>