<?xml version="1.0" encoding="UTF-8"?>
<!--Generator: Apple Native CoreSVG 326-->
<!DOCTYPE svg PUBLIC "-//W3C//DTD SVG 1.1//EN" "http://www.w3.org/Graphics/SVG/1.1/DTD/svg11.dtd">
<svg version="1.1" xmlns="http://www.w3.org/2000/svg" xmlns:xlink="http://www.w3.org/1999/xlink"
       viewBox="0 0 21.365 21.006">
       <g>
              <rect height="21.006" opacity="0" width="21.365" x="0" y="0" />
              <path d="M21.0037 10.4981C21.0037 16.2923 16.302 20.9962 10.4981 20.9962C4.70394 20.9962 0 16.2923 0 10.4981C0 4.70163 4.70394 0 10.4981 0C16.302 0 21.0037 4.70163 21.0037 10.4981ZM7.98252 5.95018C7.16839 5.95018 6.67059 6.39806 6.67059 7.12727C6.67059 7.85417 7.1707 8.30436 7.98252 8.30436L11.3422 8.30436L11.3422 8.40487L8.34979 13.138C8.17983 13.4033 8.08624 13.6892 8.08624 14.0211C8.08624 14.794 8.67139 15.2982 9.52864 15.2982C10.1563 15.2982 10.5048 15.0576 10.9687 14.3088L14.1018 9.0383C14.4314 8.48815 14.5623 8.05925 14.5623 7.54598C14.5623 6.57154 13.8743 5.95018 12.7351 5.95018Z"
                     fill="currentColor" fill-opacity="0.85" />
       </g>
</svg>