<?xml version="1.0" encoding="UTF-8"?>
<!--Generator: Apple Native CoreSVG 326-->
<!DOCTYPE svg PUBLIC "-//W3C//DTD SVG 1.1//EN" "http://www.w3.org/Graphics/SVG/1.1/DTD/svg11.dtd">
<svg version="1.1" xmlns="http://www.w3.org/2000/svg" xmlns:xlink="http://www.w3.org/1999/xlink"
       viewBox="0 0 19.3993 19.0529">
       <g>
              <rect height="19.0529" opacity="0" width="19.3993" x="0" y="0" />
              <path d="M19.0379 3.63912L19.0379 15.4011C19.0379 17.7262 17.7164 19.0379 15.3896 19.0379L3.64834 19.0379C1.32382 19.0379 0 17.7262 0 15.4011L0 3.63912C0 1.32151 1.32382 0 3.64834 0L15.3896 0C17.7164 0 19.0379 1.32151 19.0379 3.63912ZM7.09264 4.97362C6.2762 4.97362 5.7784 5.4215 5.7784 6.15071C5.7784 6.87761 6.27851 7.3278 7.09264 7.3278L10.45 7.3278L10.45 7.42831L7.45991 12.1614C7.2951 12.4267 7.20151 12.7127 7.20151 13.0446C7.20151 13.8175 7.78666 14.3216 8.63645 14.3216C9.27152 14.3216 9.61265 14.081 10.0789 13.3323L13.2096 8.06174C13.5392 7.51159 13.6701 7.08269 13.6701 6.56942C13.6701 5.59498 12.9845 4.97362 11.8429 4.97362Z"
                     fill="currentColor" fill-opacity="0.85" />
       </g>
</svg>