<?xml version="1.0" encoding="UTF-8"?>
<!--Generator: Apple Native CoreSVG 326-->
<!DOCTYPE svg PUBLIC "-//W3C//DTD SVG 1.1//EN" "http://www.w3.org/Graphics/SVG/1.1/DTD/svg11.dtd">
<svg version="1.1" xmlns="http://www.w3.org/2000/svg" xmlns:xlink="http://www.w3.org/1999/xlink"
       viewBox="0 0 21.365 24.1601">
       <g>
              <rect height="24.1601" opacity="0" width="21.365" x="0" y="0" />
              <path d="M10.4981 22.5733C16.302 22.5733 21.0037 17.8642 21.0037 12.0752C21.0037 7.10513 17.5277 2.92787 12.8902 1.85959L12.8902 0.808605C12.8902-0.0138912 12.1356-0.212055 11.5664 0.22849L8.26694 2.75918C7.86248 3.05907 7.86479 3.60988 8.26694 3.91492L11.5687 6.43816C12.1356 6.86894 12.8902 6.67823 12.8902 5.8655L12.8902 5.02627C15.8384 6.01763 17.9558 8.78179 17.9558 12.0752C17.9558 16.195 14.6179 19.5254 10.4981 19.5254C6.37829 19.5254 3.04785 16.195 3.04785 12.0752C3.04785 9.95596 3.89279 8.15388 5.35132 6.73665C5.99045 6.03849 6.20694 5.13933 5.55992 4.4382C4.9875 3.82376 4.02799 3.76626 3.25511 4.53101C1.14591 6.50409 0 9.28511 0 12.0752C0 17.8642 4.70163 22.5733 10.4981 22.5733Z"
                     fill="currentColor" fill-opacity="0.85" />
              <path d="M6.8488 15.8352C7.27321 15.8352 7.49891 15.6738 7.66317 15.2763L9.62302 10.5111C9.76775 10.1826 9.8631 9.85406 9.8631 9.4911C9.8631 8.87598 9.37955 8.58192 8.87987 8.58192L5.85853 8.58192C5.43181 8.58192 5.14752 8.86622 5.14752 9.29293C5.14752 9.71219 5.43181 10.0091 5.85853 10.0091L8.00066 10.0091L8.00066 10.0677L6.12978 14.4551C6.0465 14.6607 5.99767 14.8519 5.99767 15.0748C5.99767 15.5285 6.35087 15.8352 6.8488 15.8352ZM13.1308 15.9133C14.684 15.9133 15.6313 14.8327 15.6313 13.272C15.6313 12.0231 14.9787 10.9448 13.774 10.9448C13.177 10.9448 12.6623 11.2154 12.4262 11.7456L12.3871 11.7456L12.4958 10.0114L14.6428 10.0114C15.077 10.0114 15.3291 9.71449 15.3291 9.29293C15.3291 8.85645 15.0718 8.58192 14.6428 8.58192L11.8928 8.58192C11.3179 8.58192 11.0164 8.90528 10.9922 9.49746L10.8617 11.9662C10.8301 12.4705 11.1093 12.9196 11.6882 12.9196C12.0305 12.9196 12.2195 12.8323 12.4297 12.583C12.5969 12.3675 12.8021 12.1871 13.0906 12.1871C13.671 12.1871 13.8699 12.776 13.8699 13.3162C13.8699 13.9397 13.6267 14.4815 13.0935 14.4815C12.709 14.4815 12.4676 14.2447 12.3044 13.9234C12.1229 13.5828 11.8604 13.4163 11.517 13.4163C11.0685 13.4163 10.779 13.6983 10.779 14.1468C10.779 14.4855 10.9552 14.8191 11.2233 15.0556C11.6315 15.6103 12.4171 15.9133 13.1308 15.9133Z"
                     fill="currentColor" fill-opacity="0.85" />
       </g>
</svg>