<?xml version="1.0" encoding="UTF-8"?>
<!--Generator: Apple Native CoreSVG 326-->
<!DOCTYPE svg PUBLIC "-//W3C//DTD SVG 1.1//EN" "http://www.w3.org/Graphics/SVG/1.1/DTD/svg11.dtd">
<svg version="1.1" xmlns="http://www.w3.org/2000/svg" xmlns:xlink="http://www.w3.org/1999/xlink"
       viewBox="0 0 21.365 21.006">
       <g>
              <rect height="21.006" opacity="0" width="21.365" x="0" y="0" />
              <path d="M21.0037 10.4981C21.0037 16.2923 16.302 20.9962 10.4981 20.9962C4.70394 20.9962 0 16.2923 0 10.4981C0 4.70163 4.70394 0 10.4981 0C16.302 0 21.0037 4.70163 21.0037 10.4981ZM6.64821 8.19912C6.64821 9.19576 7.21122 9.84272 8.38352 10.1701L8.38352 10.2884C7.08305 10.4654 6.25758 11.3283 6.25758 12.5036C6.25758 14.2314 7.8848 15.3005 10.4935 15.3005C13.112 15.3005 14.7484 14.2268 14.7484 12.5013C14.7484 11.326 13.9109 10.4654 12.6202 10.2884L12.6202 10.1701C13.7804 9.85479 14.3555 9.19576 14.3555 8.19912C14.3555 6.6769 12.8655 5.69573 10.4981 5.69573C8.13816 5.69573 6.64821 6.6769 6.64821 8.19912ZM11.6634 12.2739C11.6634 12.8947 11.1724 13.3441 10.5004 13.3441C9.83356 13.3441 9.34492 12.8947 9.34492 12.2739C9.34492 11.6601 9.83587 11.1934 10.5004 11.1934C11.1868 11.1934 11.6634 11.6578 11.6634 12.2739ZM11.4536 8.54013C11.4536 9.05116 11.0466 9.43511 10.4981 9.43511C9.96458 9.43511 9.55012 9.05116 9.55012 8.54013C9.55012 8.03602 9.96974 7.64691 10.4981 7.64691C11.0339 7.64691 11.4536 8.03602 11.4536 8.54013Z"
                     fill="currentColor" fill-opacity="0.85" />
       </g>
</svg>