<?xml version="1.0" encoding="UTF-8"?>
<!--Generator: Apple Native CoreSVG 326-->
<!DOCTYPE svg PUBLIC "-//W3C//DTD SVG 1.1//EN" "http://www.w3.org/Graphics/SVG/1.1/DTD/svg11.dtd">
<svg version="1.1" xmlns="http://www.w3.org/2000/svg" xmlns:xlink="http://www.w3.org/1999/xlink"
       viewBox="0 0 19.3993 16.9895">
       <g>
              <rect height="16.9895" opacity="0" width="19.3993" x="0" y="0" />
              <path d="M0 15.4822C0 16.3148 0.679834 16.9895 1.5124 16.9895C2.33981 16.9895 3.01964 16.3148 3.01964 15.4822L3.01964 1.69607C3.01964 0.863501 2.33981 0.183667 1.5124 0.183667C0.679834 0.183667 0 0.863501 0 1.69607ZM16.0183 15.4822C16.0183 16.3148 16.7004 16.9895 17.5255 16.9895C18.3581 16.9895 19.0379 16.3148 19.0379 15.4822L19.0379 1.69607C19.0379 0.863501 18.3581 0.183667 17.5255 0.183667C16.7004 0.183667 16.0183 0.863501 16.0183 1.69607Z"
                     fill="currentColor" fill-opacity="0.85" />
              <path d="M9.51409 12.88C11.1409 12.88 12.6292 12.0878 12.6292 10.4541C12.6292 9.32587 11.8767 8.55317 10.8932 8.36817L10.8932 8.32626C11.7279 8.12458 12.3804 7.43407 12.3804 6.50864C12.3804 5.02548 11.0301 4.26309 9.51409 4.26309C7.97002 4.26309 6.65518 5.06278 6.65518 6.49887C6.65518 7.44899 7.32495 8.12458 8.16425 8.32626L8.16425 8.36817C7.18307 8.55087 6.4162 9.31095 6.4162 10.4443C6.4162 12.0786 7.87807 12.88 9.51409 12.88ZM9.52155 7.72607C9.00779 7.72607 8.7554 7.2561 8.7554 6.72227C8.7554 6.18898 9.00549 5.71902 9.51639 5.71902C10.044 5.71902 10.2923 6.1982 10.2923 6.72227C10.2923 7.25095 10.0376 7.72607 9.52155 7.72607ZM9.52155 11.4218C8.90037 11.4218 8.65423 10.8266 8.65423 10.2921C8.65423 9.66294 8.96005 9.1843 9.52155 9.1843C10.1399 9.1843 10.3837 9.75532 10.3837 10.2921C10.3837 10.9282 10.0779 11.4218 9.52155 11.4218Z"
                     fill="currentColor" fill-opacity="0.85" />
       </g>
</svg>