<?xml version="1.0" encoding="UTF-8"?>
<!--Generator: Apple Native CoreSVG 326-->
<!DOCTYPE svg PUBLIC "-//W3C//DTD SVG 1.1//EN" "http://www.w3.org/Graphics/SVG/1.1/DTD/svg11.dtd">
<svg version="1.1" xmlns="http://www.w3.org/2000/svg" xmlns:xlink="http://www.w3.org/1999/xlink"
       viewBox="0 0 19.3993 19.0529">
       <g>
              <rect height="19.0529" opacity="0" width="19.3993" x="0" y="0" />
              <path d="M19.0379 3.63912L19.0379 15.4011C19.0379 17.7262 17.7164 19.0379 15.3896 19.0379L3.64834 19.0379C1.32382 19.0379 0 17.7262 0 15.4011L0 3.63912C0 1.32151 1.32382 0 3.64834 0L15.3896 0C17.7164 0 19.0379 1.32151 19.0379 3.63912ZM5.75602 7.22256C5.75602 8.2192 6.32649 8.86616 7.50109 9.19358L7.50109 9.31186C6.19832 9.48885 5.36539 10.3517 5.36539 11.527C5.36539 13.2549 6.99261 14.3239 9.60877 14.3239C12.2198 14.3239 13.8562 13.2503 13.8562 11.5247C13.8562 10.3494 13.0261 9.48885 11.728 9.31186L11.728 9.19358C12.898 8.87823 13.4707 8.2192 13.4707 7.22256C13.4707 5.70034 11.9808 4.71916 9.61338 4.71916C7.24597 4.71916 5.75602 5.70034 5.75602 7.22256ZM10.7712 11.2974C10.7712 11.9181 10.29 12.3676 9.61568 12.3676C8.94137 12.3676 8.46019 11.9181 8.46019 11.2974C8.46019 10.6835 8.94368 10.2168 9.61568 10.2168C10.2969 10.2168 10.7712 10.6812 10.7712 11.2974ZM10.5637 7.56357C10.5637 8.0746 10.1641 8.45855 9.61338 8.45855C9.07239 8.45855 8.65793 8.0746 8.65793 7.56357C8.65793 7.05946 9.07755 6.67035 9.61338 6.67035C10.1418 6.67035 10.5637 7.05946 10.5637 7.56357Z"
                     fill="currentColor" fill-opacity="0.85" />
       </g>
</svg>