<?xml version="1.0" encoding="UTF-8"?>
<!--Generator: Apple Native CoreSVG 326-->
<!DOCTYPE svg PUBLIC "-//W3C//DTD SVG 1.1//EN" "http://www.w3.org/Graphics/SVG/1.1/DTD/svg11.dtd">
<svg version="1.1" xmlns="http://www.w3.org/2000/svg" xmlns:xlink="http://www.w3.org/1999/xlink"
       viewBox="0 0 19.3993 19.0529">
       <g>
              <rect height="19.0529" opacity="0" width="19.3993" x="0" y="0" />
              <path d="M3.64834 19.0379L15.3896 19.0379C17.7164 19.0379 19.0379 17.7262 19.0379 15.4011L19.0379 3.63912C19.0379 1.32151 17.7164 0 15.3896 0L3.64834 0C1.32382 0 0 1.32151 0 3.63912L0 15.4011C0 17.7262 1.32382 19.0379 3.64834 19.0379ZM4.05583 16.0183C3.37024 16.0183 3.01964 15.7096 3.01964 14.9775L3.01964 4.07021C3.01964 3.33809 3.37024 3.0271 4.05583 3.0271L14.9821 3.0271C15.6654 3.0271 16.0183 3.33809 16.0183 4.07021L16.0183 14.9775C16.0183 15.7096 15.6654 16.0183 14.9821 16.0183Z"
                     fill="currentColor" fill-opacity="0.85" />
              <path d="M5.63531 8.24716C5.63531 9.81318 6.78602 10.9673 8.38079 10.9673C8.94325 10.9673 9.50978 10.8075 9.83435 10.4956L9.96646 10.4956C9.85849 10.6644 9.68216 10.8695 9.49947 11.081C9.24356 11.3841 8.95714 11.7177 8.70178 12.0127C8.47608 12.258 8.28604 12.5554 8.28604 12.9648C8.28604 13.5189 8.77123 14.0259 9.54235 14.0259C10.2664 14.0259 10.6218 13.667 11.0169 13.1662C11.3233 12.7777 11.767 12.196 12.0086 11.8757C12.907 10.6372 13.3889 9.70825 13.3889 8.40736C13.3889 6.34123 11.8954 5.01486 9.49346 5.01486C7.15117 5.01486 5.63531 6.35385 5.63531 8.24716ZM8.19106 8.1065C8.19106 7.48915 8.74915 7.05339 9.49346 7.05339C10.2504 7.05339 10.801 7.49145 10.801 8.1065C10.801 8.7187 10.2527 9.14984 9.49577 9.14984C8.74915 9.14984 8.19106 8.7164 8.19106 8.1065Z"
                     fill="currentColor" fill-opacity="0.85" />
       </g>
</svg>