<?xml version="1.0" encoding="UTF-8"?>
<!--Generator: Apple Native CoreSVG 326-->
<!DOCTYPE svg PUBLIC "-//W3C//DTD SVG 1.1//EN" "http://www.w3.org/Graphics/SVG/1.1/DTD/svg11.dtd">
<svg version="1.1" xmlns="http://www.w3.org/2000/svg" xmlns:xlink="http://www.w3.org/1999/xlink"
       viewBox="0 0 21.365 24.1601">
       <g>
              <rect height="24.1601" opacity="0" width="21.365" x="0" y="0" />
              <path d="M10.4981 22.5733C16.302 22.5733 21.0037 17.8642 21.0037 12.0752C21.0037 7.10513 17.5277 2.92787 12.8902 1.85959L12.8902 0.808605C12.8902-0.0138912 12.1356-0.212055 11.5664 0.22849L8.26694 2.75918C7.86248 3.05907 7.86479 3.60988 8.26694 3.91492L11.5687 6.43816C12.1356 6.86894 12.8902 6.67823 12.8902 5.8655L12.8902 5.02627C15.8384 6.01763 17.9558 8.78179 17.9558 12.0752C17.9558 16.195 14.6179 19.5254 10.4981 19.5254C6.37829 19.5254 3.04785 16.195 3.04785 12.0752C3.04785 9.95596 3.89279 8.15388 5.35132 6.73665C5.99045 6.03849 6.20694 5.13933 5.55992 4.4382C4.9875 3.82376 4.02799 3.76626 3.25511 4.53101C1.14591 6.50409 0 9.28511 0 12.0752C0 17.8642 4.70163 22.5733 10.4981 22.5733Z"
                     fill="currentColor" fill-opacity="0.85" />
              <path d="M7.32198 15.9087C9.37506 15.9087 10.0867 14.0806 10.0867 12.1131C10.0867 10.0779 9.25787 8.37915 7.36104 8.37915C6.00525 8.37915 4.88748 9.29615 4.88748 10.9441C4.88748 12.1953 5.56659 13.2265 6.78104 13.2265C7.56011 13.2265 8.09558 12.7743 8.30297 12.0718L8.31273 12.0718C8.31273 12.0913 8.31273 12.1229 8.31273 12.1447C8.31504 12.9803 8.2821 14.4867 7.40065 14.4867C7.10919 14.4867 6.91091 14.3274 6.66161 13.9821C6.44798 13.7087 6.2372 13.5869 5.90463 13.5869C5.39924 13.5869 5.15916 13.9751 5.15916 14.3324C5.15916 14.6776 5.34471 15.032 5.60893 15.2887C6.03916 15.715 6.68369 15.9087 7.32198 15.9087ZM7.38573 11.9303C6.90466 11.9303 6.65349 11.436 6.65349 10.8729C6.65349 10.3545 6.88459 9.80347 7.3978 9.80347C7.88401 9.80347 8.12949 10.3345 8.12949 10.8947C8.12949 11.3729 7.92417 11.9303 7.38573 11.9303ZM13.6548 15.9087C15.5936 15.9087 16.3346 14.1002 16.3346 12.1316C16.3346 10.1704 15.5936 8.37915 13.6548 8.37915C11.6937 8.37915 10.9602 10.1877 10.9602 12.1316C10.9602 14.0899 11.7109 15.9087 13.6548 15.9087ZM13.6548 14.4545C13.1129 14.4545 12.8422 13.6115 12.8422 12.1316C12.8422 10.6689 13.1129 9.83562 13.6548 9.83562C14.1819 9.83562 14.46 10.6689 14.46 12.1316C14.46 13.6115 14.1842 14.4545 13.6548 14.4545Z"
                     fill="currentColor" fill-opacity="0.85" />
       </g>
</svg>