<?xml version="1.0" encoding="UTF-8"?>
<!--Generator: Apple Native CoreSVG 326-->
<!DOCTYPE svg PUBLIC "-//W3C//DTD SVG 1.1//EN" "http://www.w3.org/Graphics/SVG/1.1/DTD/svg11.dtd">
<svg version="1.1" xmlns="http://www.w3.org/2000/svg" xmlns:xlink="http://www.w3.org/1999/xlink"
       viewBox="0 0 19.3993 19.0529">
       <g>
              <rect height="19.0529" opacity="0" width="19.3993" x="0" y="0" />
              <path d="M19.0379 3.63912L19.0379 15.4011C19.0379 17.7262 17.7164 19.0379 15.3896 19.0379L3.64834 19.0379C1.32382 19.0379 0 17.7262 0 15.4011L0 3.63912C0 1.32151 1.32382 0 3.64834 0L15.3896 0C17.7164 0 19.0379 1.32151 19.0379 3.63912ZM7.34654 6.62116L5.53893 11.9508C5.40858 12.3693 5.3569 12.665 5.3569 12.881C5.3569 13.7015 5.85361 14.1861 6.71317 14.1861C7.44008 14.1861 7.89773 13.7888 8.08382 12.9298L8.33129 12.1042L10.888 12.1042L11.1429 12.9298C11.329 13.7865 11.7867 14.1861 12.5061 14.1861C13.3731 14.1861 13.8699 13.7015 13.8699 12.881C13.8699 12.665 13.8182 12.3693 13.6878 11.9508L11.8728 6.62116C11.4886 5.39997 10.7422 4.8281 9.58123 4.8281C8.45242 4.8281 7.7456 5.39251 7.34654 6.62116ZM10.4503 10.1748L8.76899 10.1748L9.56455 7.19824L9.66221 7.19824Z"
                     fill="currentColor" fill-opacity="0.85" />
       </g>
</svg>