<?xml version="1.0" encoding="UTF-8"?>
<!--Generator: Apple Native CoreSVG 326-->
<!DOCTYPE svg PUBLIC "-//W3C//DTD SVG 1.1//EN" "http://www.w3.org/Graphics/SVG/1.1/DTD/svg11.dtd">
<svg version="1.1" xmlns="http://www.w3.org/2000/svg" xmlns:xlink="http://www.w3.org/1999/xlink"
       viewBox="0 0 21.365 21.006">
       <g>
              <rect height="21.006" opacity="0" width="21.365" x="0" y="0" />
              <path d="M10.4981 20.9962C16.302 20.9962 21.0037 16.2946 21.0037 10.4981C21.0037 4.70163 16.302 0 10.4981 0C4.70163 0 0 4.70163 0 10.4981C0 16.2946 4.70163 20.9962 10.4981 20.9962ZM10.4981 17.9484C6.37829 17.9484 3.04785 14.6179 3.04785 10.4981C3.04785 6.37829 6.37829 3.04785 10.4981 3.04785C14.6179 3.04785 17.9558 6.37829 17.9558 10.4981C17.9558 14.6179 14.6179 17.9484 10.4981 17.9484Z"
                     fill="currentColor" fill-opacity="0.85" />
              <path d="M5.24942 13.2341C5.65375 13.2341 5.85938 12.9865 5.91567 12.592L5.99391 12.1876L6.99389 12.1876L7.07959 12.6166C7.16518 13.0377 7.36795 13.2341 7.77283 13.2341C8.14787 13.2341 8.39486 12.9549 8.39486 12.5799C8.39486 12.4691 8.3581 12.2617 8.33857 12.1365L7.55356 8.59212C7.43122 8.02407 7.05849 7.75985 6.47552 7.75985C5.97408 7.75985 5.57381 7.99192 5.4417 8.59212L4.67622 12.1365C4.64692 12.2709 4.61763 12.4403 4.61763 12.5799C4.61763 13.0084 4.84685 13.2341 5.24942 13.2341ZM6.1427 11.2111L6.45599 9.28711L6.48759 9.28711L6.83533 11.2111ZM9.72474 13.1513L11.1224 13.1513C11.9958 13.1513 12.476 12.4722 12.476 11.6196C12.476 11.021 12.0561 10.366 11.489 10.347L11.489 10.3229C12.0171 10.2286 12.3749 9.74591 12.3749 9.17435C12.3749 8.34591 11.8969 7.85005 11.0685 7.85005L9.72474 7.85005C9.29057 7.85005 9.05104 8.1079 9.05104 8.56282L9.05104 12.4386C9.05104 12.8843 9.28135 13.1513 9.72474 13.1513ZM10.4008 12.1898L10.4008 10.8261L10.6222 10.8261C10.9872 10.8261 11.1315 11.1295 11.1315 11.4944C11.1315 11.8669 11.0016 12.1898 10.6268 12.1898ZM10.4008 10.0121L10.4008 8.81157L10.6469 8.81157C11.0003 8.81157 11.1038 9.04892 11.1038 9.40005C11.1038 9.74549 10.9664 10.0121 10.6061 10.0121ZM14.6293 13.288C15.7174 13.288 16.32 12.6601 16.32 11.6507C16.32 10.7367 15.83 10.377 15.2737 10.1075L14.9296 9.94147C14.5602 9.75932 14.3223 9.60986 14.3223 9.20189C14.3223 8.95587 14.4108 8.77075 14.6322 8.77075C14.8334 8.77075 14.9398 8.92372 15.0076 9.18236C15.1109 9.50396 15.3585 9.61083 15.652 9.61083C16.0322 9.61083 16.2005 9.34837 16.2005 9.05486C16.2005 8.92045 16.1637 8.78373 16.1149 8.65447C15.9052 8.08279 15.3262 7.70872 14.6322 7.70872C13.6769 7.70872 12.9921 8.29642 12.9921 9.32193C12.9921 10.0896 13.3795 10.5733 14.0188 10.8852L14.3606 11.0438C14.7146 11.2231 14.9875 11.3828 14.9875 11.7805C14.9875 12.038 14.8725 12.2306 14.6293 12.2306C14.4206 12.2306 14.2999 12.0599 14.2373 11.8489C14.1241 11.5404 13.9208 11.3962 13.5854 11.3962C13.2775 11.3962 13.0122 11.6185 13.0122 11.9712C13.0122 12.0987 13.0466 12.2509 13.1109 12.3933C13.3682 13.0058 13.9392 13.288 14.6293 13.288Z"
                     fill="currentColor" fill-opacity="0.85" />
       </g>
</svg>