<?xml version="1.0" encoding="UTF-8"?>
<!--Generator: Apple Native CoreSVG 326-->
<!DOCTYPE svg PUBLIC "-//W3C//DTD SVG 1.1//EN" "http://www.w3.org/Graphics/SVG/1.1/DTD/svg11.dtd">
<svg version="1.1" xmlns="http://www.w3.org/2000/svg" xmlns:xlink="http://www.w3.org/1999/xlink"
       viewBox="0 0 21.365 21.006">
       <g>
              <rect height="21.006" opacity="0" width="21.365" x="0" y="0" />
              <path d="M21.0037 10.4981C21.0037 16.2923 16.302 20.9962 10.4981 20.9962C4.70394 20.9962 0 16.2923 0 10.4981C0 4.70163 4.70394 0 10.4981 0C16.302 0 21.0037 4.70163 21.0037 10.4981ZM13.1569 9.25072C13.1569 10.0724 13.5712 10.5807 14.2525 10.9099L14.6116 11.0857C14.9925 11.2747 15.2827 11.442 15.2827 11.8666C15.2827 12.1339 15.1579 12.3363 14.905 12.3363C14.6865 12.3363 14.5635 12.1558 14.4859 11.935C14.3802 11.6093 14.1499 11.4502 13.7996 11.4502C13.467 11.4502 13.1844 11.6949 13.1844 12.0648C13.1844 12.2021 13.2189 12.3692 13.2907 12.5214C13.5577 13.1758 14.1707 13.4678 14.905 13.4678C16.0694 13.4678 16.7064 12.7979 16.7064 11.7196C16.7064 10.7539 16.1894 10.3695 15.5987 10.0753L15.2299 9.89955C14.8335 9.70764 14.5784 9.55818 14.5784 9.11576C14.5784 8.85997 14.6692 8.65762 14.9078 8.65762C15.1263 8.65762 15.2252 8.82782 15.3102 9.09623C15.421 9.44251 15.6783 9.55685 15.9891 9.55685C16.4014 9.55685 16.5772 9.27201 16.5772 8.96127C16.5772 8.81709 16.5479 8.67291 16.4991 8.54135C16.2647 7.92029 15.6512 7.529 14.9078 7.529C13.8859 7.529 13.1569 8.15861 13.1569 9.25072ZM5.11385 8.46923L4.29669 12.2347C4.26509 12.3766 4.22834 12.5557 4.22834 12.7102C4.22834 13.1657 4.48224 13.4138 4.90204 13.4138C5.33852 13.4138 5.56137 13.149 5.61766 12.7223L5.69821 12.3058L6.77455 12.3058L6.86257 12.747C6.94069 13.2025 7.16815 13.4138 7.59772 13.4138C7.99744 13.4138 8.26166 13.1174 8.26166 12.7102C8.26166 12.5845 8.2249 12.3673 8.20307 12.2347L7.36638 8.46923C7.24403 7.86157 6.83915 7.58013 6.21428 7.58013C5.67838 7.58013 5.25342 7.83689 5.11385 8.46923ZM9.68283 7.67779C9.21651 7.67779 8.95975 7.95286 8.95975 8.43993L8.95975 12.554C8.95975 13.0318 9.19983 13.3236 9.68283 13.3236L11.1816 13.3236C12.1066 13.3236 12.6139 12.6003 12.6139 11.696C12.6139 11.048 12.1618 10.3585 11.5677 10.3372L11.5677 10.3131C12.1227 10.2039 12.5052 9.7017 12.5052 9.08822C12.5052 8.2081 11.9928 7.67779 11.1127 7.67779ZM11.1705 11.5633C11.1705 11.9553 11.0383 12.2955 10.6464 12.2955L10.4008 12.2955L10.4008 10.8508L10.6417 10.8508C11.0239 10.8508 11.1705 11.1714 11.1705 11.5633ZM6.60108 11.2553L5.86192 11.2553L6.2022 9.2159L6.22635 9.2159ZM11.1503 9.33861C11.1503 9.69381 11.0032 9.97768 10.6158 9.97768L10.4008 9.97768L10.4008 8.69844L10.659 8.69844C11.0296 8.69844 11.1503 8.96048 11.1503 9.33861Z"
                     fill="currentColor" fill-opacity="0.85" />
       </g>
</svg>