<?xml version="1.0" encoding="UTF-8"?>
<!--Generator: Apple Native CoreSVG 326-->
<!DOCTYPE svg PUBLIC "-//W3C//DTD SVG 1.1//EN" "http://www.w3.org/Graphics/SVG/1.1/DTD/svg11.dtd">
<svg version="1.1" xmlns="http://www.w3.org/2000/svg" xmlns:xlink="http://www.w3.org/1999/xlink"
       viewBox="0 0 32.0523 19.6048">
       <g>
              <rect height="19.6048" opacity="0" width="32.0523" x="0" y="0" />
              <path d="M0 9.80499C0 13.0499 1.06555 16.123 2.95128 18.609C3.4853 19.3199 4.42814 19.359 5.11719 18.7928C5.7821 18.229 5.80109 17.3573 5.26422 16.6235C3.85445 14.6841 3.05015 12.3086 3.05015 9.80499C3.05015 7.29159 3.85445 4.91842 5.27168 2.97439C5.81601 2.23772 5.80679 1.37125 5.11719 0.799931C4.4356 0.226306 3.50022 0.275134 2.95874 0.983719C1.06555 3.47723 0 6.56007 0 9.80499ZM31.691 9.80499C31.691 6.56007 30.6203 3.47723 28.7322 0.983719C28.1908 0.275134 27.2554 0.226306 26.5738 0.799931C25.8842 1.37125 25.8773 2.23772 26.4118 2.97439C27.8388 4.91842 28.6408 7.29159 28.6408 9.80499C28.6408 12.3086 27.8388 14.6841 26.4193 16.6235C25.8922 17.3573 25.9014 18.229 26.5738 18.7928C27.2628 19.359 28.1982 19.3199 28.7397 18.609C30.6203 16.123 31.691 13.0499 31.691 9.80499Z"
                     fill="currentColor" fill-opacity="0.85" />
              <path d="M15.8455 19.5876C21.2658 19.5876 25.6453 15.2081 25.6453 9.79753C25.6453 4.38464 21.2658 0 15.8455 0C10.4349 0 6.05542 4.38464 6.05542 9.79753C6.05542 15.2081 10.4349 19.5876 15.8455 19.5876ZM15.8455 16.5398C12.1288 16.5398 9.10327 13.5142 9.10327 9.79753C9.10327 6.07107 12.1288 3.04554 15.8455 3.04554C19.572 3.04554 22.5975 6.07107 22.5975 9.79753C22.5975 13.5142 19.572 16.5398 15.8455 16.5398Z"
                     fill="currentColor" fill-opacity="0.85" />
              <path d="M10.7782 12.444C11.1676 12.444 11.3657 12.2039 11.422 11.8242L11.4928 11.4273L12.4704 11.4273L12.5561 11.8489C12.6342 12.255 12.8295 12.444 13.2195 12.444C13.5796 12.444 13.8192 12.1797 13.8192 11.8122C13.8192 11.7013 13.7824 11.5014 13.7629 11.3837L13.0002 7.95122C12.8854 7.40556 12.5201 7.1488 11.9595 7.1488C11.4804 7.1488 11.0951 7.38087 10.9704 7.95122L10.2273 11.3837C10.198 11.5181 10.1688 11.6801 10.1688 11.8122C10.1688 12.2257 10.3905 12.444 10.7782 12.444ZM11.6416 10.4882L11.9474 8.61638L11.9716 8.61638L12.3119 10.4882ZM15.0968 12.3612L16.4572 12.3612C17.3007 12.3612 17.7586 11.712 17.7586 10.8818C17.7586 10.298 17.3536 9.67288 16.8014 9.6539L16.8014 9.62976C17.3145 9.5355 17.6574 9.06772 17.6574 8.51854C17.6574 7.71994 17.1944 7.239 16.4032 7.239L15.0968 7.239C14.685 7.239 14.4529 7.48193 14.4529 7.92193L14.4529 11.6708C14.4529 12.1016 14.6758 12.3612 15.0968 12.3612ZM15.7504 11.437L15.7504 10.118L15.9719 10.118C16.3294 10.118 16.4588 10.4065 16.4588 10.764C16.4588 11.1215 16.3386 11.437 15.9765 11.437ZM15.7504 9.32648L15.7504 8.16322L15.9891 8.16322C16.3351 8.16322 16.4386 8.3931 16.4386 8.73678C16.4386 9.06729 16.3012 9.32648 15.9506 9.32648ZM19.8373 12.4979C20.8903 12.4979 21.4682 11.8849 21.4682 10.9128C21.4682 10.0361 20.9931 9.68386 20.4593 9.42183L20.1301 9.26327C19.7681 9.08858 19.5377 8.93913 19.5377 8.53862C19.5377 8.30752 19.6285 8.12239 19.8401 8.12239C20.0414 8.12239 20.1402 8.27537 20.2081 8.52654C20.3114 8.83322 20.5463 8.9401 20.8226 8.9401C21.1954 8.9401 21.3562 8.6851 21.3562 8.40651C21.3562 8.27209 21.3269 8.14283 21.2781 8.02104C21.0759 7.46428 20.5118 7.09767 19.8401 7.09767C18.9147 7.09767 18.2597 7.67045 18.2597 8.66611C18.2597 9.40393 18.6321 9.87268 19.2491 10.1697L19.576 10.3283C19.9225 10.5001 20.188 10.6524 20.188 11.0352C20.188 11.2852 20.073 11.4778 19.8396 11.4778C19.636 11.4778 19.5228 11.3145 19.4549 11.111C19.3544 10.81 19.1511 10.6658 18.8329 10.6658C18.5302 10.6658 18.2798 10.8881 18.2798 11.2259C18.2798 11.3459 18.3068 11.4906 18.3785 11.633C18.6209 12.2232 19.1696 12.4979 19.8373 12.4979Z"
                     fill="currentColor" fill-opacity="0.85" />
       </g>
</svg>