<?xml version="1.0" encoding="UTF-8"?>
<!--Generator: Apple Native CoreSVG 326-->
<!DOCTYPE svg PUBLIC "-//W3C//DTD SVG 1.1//EN" "http://www.w3.org/Graphics/SVG/1.1/DTD/svg11.dtd">
<svg version="1.1" xmlns="http://www.w3.org/2000/svg" xmlns:xlink="http://www.w3.org/1999/xlink"
       viewBox="0 0 21.365 21.006">
       <g>
              <rect height="21.006" opacity="0" width="21.365" x="0" y="0" />
              <path d="M21.0037 10.4981C21.0037 16.2923 16.302 20.9962 10.4981 20.9962C4.70394 20.9962 0 16.2923 0 10.4981C0 4.70163 4.70394 0 10.4981 0C16.302 0 21.0037 4.70163 21.0037 10.4981ZM14.5437 7.03501C13.659 7.1838 11.8143 7.3981 10.4981 7.3981C9.19916 7.3981 7.3372 7.1838 6.45763 7.03501C6.3772 7.02525 6.29161 7.01087 6.20657 7.01087C5.97735 7.01087 5.74352 7.19587 5.74352 7.52736C5.74352 7.77841 5.88716 7.99041 6.12614 8.0513C6.42087 8.13404 8.51205 8.37533 8.77517 8.42416C9.02853 8.48275 9.18939 8.70451 9.19916 9.01646C9.22385 9.49158 9.19916 11.0198 9.08482 11.7069C8.96764 12.4014 8.1708 15.7209 8.13173 15.8622C8.03923 16.2155 8.25123 16.5298 8.61431 16.5298C8.87283 16.5298 9.04576 16.3885 9.13826 16.0524C9.31404 15.3722 9.8742 13.0839 10.0644 12.5232C10.1815 12.1211 10.274 11.9798 10.4981 11.9798C10.7199 11.9798 10.8273 12.1211 10.9589 12.5232C11.1249 13.0765 11.7046 15.3722 11.8654 16.0524C11.9482 16.3885 12.1308 16.5298 12.3894 16.5298C12.7525 16.5298 12.9621 16.2155 12.8622 15.8622C12.8329 15.7209 12.0263 12.4014 11.9166 11.7069C11.8143 11.0198 11.8143 9.49158 11.8143 9.01646C11.8143 8.70451 11.9654 8.48275 12.2285 8.42416C12.4893 8.37533 14.5828 8.1415 14.8752 8.0513C15.1165 7.97548 15.2602 7.77841 15.2602 7.52736C15.2602 7.19587 15.0166 7.01087 14.7948 7.01087C14.7121 7.01087 14.6242 7.02525 14.5437 7.03501ZM9.30889 5.59704C9.30889 6.25024 9.8426 6.79372 10.4981 6.79372C11.1611 6.79372 11.6948 6.25024 11.6948 5.59704C11.6948 4.93923 11.1611 4.40551 10.4981 4.40551C9.8426 4.40551 9.30889 4.93923 9.30889 5.59704Z"
                     fill="currentColor" fill-opacity="0.85" />
       </g>
</svg>