<?xml version="1.0" encoding="UTF-8"?>
<!--Generator: Apple Native CoreSVG 326-->
<!DOCTYPE svg PUBLIC "-//W3C//DTD SVG 1.1//EN" "http://www.w3.org/Graphics/SVG/1.1/DTD/svg11.dtd">
<svg version="1.1" xmlns="http://www.w3.org/2000/svg" xmlns:xlink="http://www.w3.org/1999/xlink"
       viewBox="0 0 21.365 21.006">
       <g>
              <rect height="21.006" opacity="0" width="21.365" x="0" y="0" />
              <path d="M10.4981 20.9962C16.302 20.9962 21.0037 16.2946 21.0037 10.4981C21.0037 4.70163 16.302 0 10.4981 0C4.70163 0 0 4.70163 0 10.4981C0 16.2946 4.70163 20.9962 10.4981 20.9962ZM10.4981 17.9484C6.37829 17.9484 3.04785 14.6179 3.04785 10.4981C3.04785 6.37829 6.37829 3.04785 10.4981 3.04785C14.6179 3.04785 17.9558 6.37829 17.9558 10.4981C17.9558 14.6179 14.6179 17.9484 10.4981 17.9484Z"
                     fill="currentColor" fill-opacity="0.85" />
              <path d="M10.4958 7.42861C9.21354 7.42861 7.37517 7.21662 6.49505 7.07759C6.41462 7.06037 6.32904 7.04599 6.25376 7.04599C6.01708 7.04599 5.78556 7.22869 5.78556 7.55787C5.78556 7.80662 5.92919 8.00885 6.17333 8.0772C6.45829 8.15994 8.52588 8.39892 8.7867 8.44775C9.04521 8.49889 9.19631 8.71834 9.21354 9.02799C9.23076 9.50596 9.21354 11.0077 9.09404 11.6976C8.97686 12.3778 8.19439 15.6645 8.15533 15.8058C8.06283 16.1568 8.27482 16.4665 8.6333 16.4665C8.88435 16.4665 9.05498 16.3275 9.14748 15.9937C9.32096 15.3255 9.87651 13.0557 10.0644 12.5071C10.1815 12.1073 10.274 11.9682 10.4958 11.9682C10.7153 11.9682 10.8152 12.1073 10.9445 12.5071C11.118 13.0483 11.693 15.3255 11.8441 15.9937C11.9269 16.3275 12.1073 16.4665 12.3658 16.4665C12.7242 16.4665 12.9339 16.1568 12.8414 15.8058C12.8047 15.6645 12.005 12.3778 11.9027 11.6976C11.7953 11.0077 11.7953 9.50596 11.7953 9.02799C11.7953 8.71834 11.9515 8.49889 12.2049 8.44775C12.4634 8.39892 14.5333 8.1674 14.8234 8.0772C15.0624 8.00138 15.206 7.80662 15.206 7.55787C15.206 7.22869 14.9648 7.04599 14.743 7.04599C14.6626 7.04599 14.5747 7.06037 14.5017 7.07759C13.6239 7.21662 11.7953 7.42861 10.4958 7.42861ZM10.4958 6.82884C11.1542 6.82884 11.6833 6.28997 11.6833 5.64884C11.6833 4.99794 11.1542 4.46884 10.4958 4.46884C9.8449 4.46884 9.3158 4.99794 9.3158 5.64884C9.3158 6.28997 9.8449 6.82884 10.4958 6.82884Z"
                     fill="currentColor" fill-opacity="0.85" />
       </g>
</svg>