<?xml version="1.0" encoding="UTF-8"?>
<!--Generator: Apple Native CoreSVG 326-->
<!DOCTYPE svg PUBLIC "-//W3C//DTD SVG 1.1//EN" "http://www.w3.org/Graphics/SVG/1.1/DTD/svg11.dtd">
<svg version="1.1" xmlns="http://www.w3.org/2000/svg" xmlns:xlink="http://www.w3.org/1999/xlink"
       viewBox="0 0 23.2346 25.7539">
       <g>
              <rect height="25.7539" opacity="0" width="23.2346" x="0" y="0" />
              <path d="M20.0584 2.91788C18.8691 3.0922 17.9717 3.71894 17.0874 4.24294L17.0874 4.05638C17.0874 3.32832 16.727 3.01964 16.0553 3.01964L6.81803 3.01964C6.1388 3.01964 5.78591 3.32832 5.78591 4.05638L5.78591 19.437C5.78591 20.1553 6.1388 20.4663 6.81803 20.4663L16.0553 20.4663C16.727 20.4663 17.0874 20.1553 17.0874 19.437L17.0874 11.1945C18.1522 10.6642 19.0361 9.92729 20.107 9.71277L20.107 19.8583C20.107 21.4869 19.4522 22.6202 18.2525 23.1457L18.2525 24.4883C18.2525 25.2181 17.7311 25.7418 16.999 25.7418C16.2691 25.7418 15.7552 25.2181 15.7552 24.4883L15.7552 23.4859L7.11816 23.4859L7.11816 24.4883C7.11816 25.2181 6.60422 25.7418 5.87434 25.7418C5.14447 25.7418 4.62076 25.2181 4.62076 24.4883L4.62076 23.145C3.4216 22.6191 2.76626 21.4861 2.76626 19.8583L2.76626 3.62529C2.76626 1.3169 4.09469 0 6.41054 0L16.4651 0C18.5319 0 19.8104 1.04893 20.0584 2.91788ZM10.9009 18.4643C10.9009 18.9031 10.5603 19.2586 10.1118 19.2586L7.69524 19.2586C7.24899 19.2586 6.90095 18.9031 6.90095 18.4643C6.90095 18.0158 7.24899 17.6603 7.69524 17.6603L10.1118 17.6603C10.5603 17.6603 10.9009 18.0158 10.9009 18.4643ZM15.9724 18.4643C15.9724 18.9031 15.6243 19.2586 15.1781 19.2586L12.7615 19.2586C12.313 19.2586 11.9649 18.9031 11.9649 18.4643C11.9649 18.0158 12.313 17.6603 12.7615 17.6603L15.1781 17.6603C15.6243 17.6603 15.9724 18.0158 15.9724 18.4643ZM10.9009 16.0677C10.9009 16.5088 10.5603 16.862 10.1118 16.862L7.69524 16.862C7.24899 16.862 6.90095 16.5088 6.90095 16.0677C6.90095 15.6266 7.24899 15.2734 7.69524 15.2734L10.1118 15.2734C10.5603 15.2734 10.9009 15.6266 10.9009 16.0677ZM15.9724 16.0677C15.9724 16.5088 15.6243 16.862 15.1781 16.862L12.7615 16.862C12.313 16.862 11.9649 16.5088 11.9649 16.0677C11.9649 15.6266 12.313 15.2734 12.7615 15.2734L15.1781 15.2734C15.6243 15.2734 15.9724 15.6266 15.9724 16.0677ZM10.9009 13.6785C10.9009 14.1196 10.5603 14.4653 10.1118 14.4653L7.69524 14.4653C7.24899 14.4653 6.90095 14.1196 6.90095 13.6785C6.90095 13.2322 7.24899 12.8767 7.69524 12.8767L10.1118 12.8767C10.5603 12.8767 10.9009 13.2322 10.9009 13.6785ZM15.9724 13.6785C15.9724 14.1196 15.6243 14.4653 15.1781 14.4653L12.7615 14.4653C12.313 14.4653 11.9649 14.1196 11.9649 13.6785C11.9649 13.2322 12.313 12.8767 12.7615 12.8767L15.1781 12.8767C15.6243 12.8767 15.9724 13.2322 15.9724 13.6785ZM20.107 8.09225C18.8937 8.25769 17.9838 8.89729 17.0874 9.43088L17.0874 8.60702C18.1524 8.07244 19.0368 7.32929 20.107 7.1128ZM9.94473 5.72472C9.94473 6.56851 9.26004 7.25319 8.43348 7.25319C7.5897 7.25319 6.91478 6.56851 6.91478 5.72472C6.91478 4.90562 7.5897 4.22324 8.43348 4.22324C9.26004 4.22324 9.94473 4.90562 9.94473 5.72472ZM20.107 5.50147C18.894 5.66715 17.9842 6.30753 17.0874 6.8413L17.0874 6.01388C18.1522 5.47983 19.0361 4.73777 20.107 4.52176Z"
                     fill="currentColor" fill-opacity="0.85" />
              <path d="M14.8155 6.60187C17.3931 6.60187 18.646 4.45289 20.7274 4.45289C21.21 4.45289 21.5898 4.56031 22.0965 4.80051C22.4704 4.97113 22.865 4.8941 23.0884 4.57996C23.356 4.19231 23.2493 3.68801 22.7897 3.41403C22.1504 3.04809 21.4547 2.86254 20.7274 2.86254C18.1406 2.86254 16.8951 5.02875 14.8155 5.02875C14.3329 5.02875 13.9531 4.88918 13.4539 4.66621C13.0621 4.49328 12.663 4.56801 12.462 4.89652C12.1966 5.28187 12.3057 5.78101 12.7457 6.04292C13.3902 6.42093 14.0807 6.60187 14.8155 6.60187ZM14.8178 9.19504C17.3931 9.19504 18.6483 7.04375 20.7274 7.04375C21.2123 7.04375 21.5921 7.15117 22.0988 7.39137C22.4704 7.5643 22.8673 7.48727 23.0907 7.17082C23.356 6.78547 23.2516 6.27141 22.8018 6.00489C22.1527 5.63895 21.4547 5.45341 20.7274 5.45341C18.1429 5.45341 16.8974 7.62938 14.8178 7.62938C14.3329 7.62938 13.9531 7.48005 13.4562 7.25708C13.0645 7.08414 12.663 7.16118 12.462 7.48969C12.1966 7.87504 12.3057 8.37933 12.7629 8.63609C13.3925 9.00433 14.0905 9.19504 14.8178 9.19504ZM14.8155 11.7784C17.3931 11.7784 18.646 9.64438 20.7274 9.64438C21.21 9.64438 21.5898 9.74434 22.0965 9.97477C22.4704 10.1477 22.865 10.0707 23.0884 9.75653C23.356 9.37634 23.2493 8.86228 22.7897 8.59806C22.1504 8.23212 21.4547 8.04427 20.7274 8.04427C18.1406 8.04427 16.8951 10.2202 14.8155 10.2202C14.3329 10.2202 13.9531 10.0732 13.4539 9.84794C13.0696 9.66985 12.663 9.75204 12.462 10.0806C12.1966 10.4584 12.3057 10.9702 12.7606 11.227C13.3902 11.5952 14.0807 11.7784 14.8155 11.7784Z"
                     fill="currentColor" fill-opacity="0.85" />
       </g>
</svg>