<?xml version="1.0" encoding="UTF-8"?>
<!--Generator: Apple Native CoreSVG 326-->
<!DOCTYPE svg PUBLIC "-//W3C//DTD SVG 1.1//EN" "http://www.w3.org/Graphics/SVG/1.1/DTD/svg11.dtd">
<svg version="1.1" xmlns="http://www.w3.org/2000/svg" xmlns:xlink="http://www.w3.org/1999/xlink"
       viewBox="0 0 37.581 17.4864">
       <g>
              <rect height="17.4864" opacity="0" width="37.581" x="0" y="0" />
              <path d="M3.73963 15.2828L5.6136 15.2828L5.6136 12.6139L3.73963 12.6139C3.02813 12.6139 2.66899 12.1737 2.66899 11.3376L2.66899 10.1686C2.66899 8.85755 3.54177 7.96524 5.33701 7.75555L9.37009 7.26211C9.99333 7.18399 10.5206 7.0025 11.0128 6.70614L14.785 4.33145C16.9656 2.96887 18.206 2.66899 22.0242 2.66899L23.6354 2.66899C26.1045 2.66899 28.0462 3.58641 30.618 5.82329C31.1516 6.29082 31.5001 6.45047 32.198 6.67332L33.2108 6.99789C34.0928 7.27715 34.5507 7.86079 34.5507 8.71458L34.5507 11.3376C34.5507 12.1737 34.1915 12.6139 33.48 12.6139L31.6089 12.6139L31.6089 15.2828L33.48 15.2828C35.9246 15.2828 37.2197 13.924 37.2197 11.3376L37.2197 8.53552C37.2197 6.42815 36.1095 5.1312 34.0078 4.38398L32.5073 3.85148C30.557 2.14995 27.5363 0 23.6354 0L22.0242 0C17.7489 0 15.9424 0.422773 13.3558 2.05351L9.35596 4.57874L4.99248 5.10609C1.89945 5.47542 0 7.46846 0 10.1686L0 11.4111C0 13.9436 1.29968 15.2828 3.73963 15.2828ZM10.9793 15.2828L26.0666 15.2828L26.0666 12.6139L10.9793 12.6139ZM8.38867 17.4817C10.6976 17.4817 12.512 15.6673 12.512 13.3584C12.512 11.0397 10.6976 9.2253 8.38867 9.2253C6.06997 9.2253 4.25557 11.0397 4.25557 13.3584C4.25557 15.6673 6.06997 17.4817 8.38867 17.4817ZM8.38867 14.9328C7.49691 14.9328 6.79706 14.2404 6.79706 13.3584C6.79706 12.4666 7.49691 11.7668 8.38867 11.7668C9.27067 11.7668 9.96306 12.4666 9.96306 13.3584C9.96306 14.2404 9.27067 14.9328 8.38867 14.9328ZM28.831 17.4817C31.1497 17.4817 32.9641 15.6673 32.9641 13.3584C32.9641 11.0397 31.1497 9.2253 28.831 9.2253C26.5197 9.2253 24.7053 11.0397 24.7053 13.3584C24.7053 15.6673 26.5197 17.4817 28.831 17.4817ZM28.831 14.9328C27.949 14.9328 27.2543 14.2404 27.2543 13.3584C27.2543 12.4666 27.949 11.7668 28.831 11.7668C29.7204 11.7668 30.4226 12.4666 30.4226 13.3584C30.4226 14.2404 29.7204 14.9328 28.831 14.9328Z"
                     fill="currentColor" fill-opacity="0.85" />
              <path d="M14.5881 10.8581C15.0063 10.8581 15.2394 10.6553 15.3152 10.17L15.375 9.82568L16.3948 9.82568L16.4644 10.1896C16.55 10.6502 16.7602 10.8581 17.2019 10.8581C17.608 10.8581 17.8796 10.552 17.8796 10.1528C17.8796 9.97877 17.8578 9.84666 17.8211 9.67034L17.0299 6.13658C16.8829 5.45486 16.4263 5.25263 15.8565 5.25263C15.2839 5.25263 14.8795 5.51685 14.7497 6.13658L13.9684 9.67034C13.9218 9.87881 13.9023 10.0557 13.9023 10.1528C13.9023 10.5555 14.1287 10.8581 14.5881 10.8581ZM15.529 8.77802L15.8422 6.8781L15.8835 6.8781L16.2139 8.77802ZM19.2875 10.8581C19.7528 10.8581 20.0319 10.5841 20.0319 10.0942L20.0319 6.01654C20.0319 5.52662 19.7528 5.25263 19.2875 5.25263C18.8171 5.25263 18.5529 5.52662 18.5529 6.01654L18.5529 10.0942C18.5529 10.5841 18.8171 10.8581 19.2875 10.8581ZM21.5783 10.8581C22.0561 10.8581 22.3129 10.5767 22.3129 10.0942L22.3129 8.89224L22.5342 8.89224L22.952 10.2286C23.0668 10.6255 23.2799 10.8581 23.6693 10.8581C24.1127 10.8581 24.4068 10.5887 24.4068 10.1695C24.4068 10.0448 24.3528 9.87365 24.3114 9.75701L23.8908 8.57865C24.2701 8.31322 24.4631 7.61306 24.4631 7.14595C24.4631 5.98396 23.829 5.33822 22.6255 5.33822L21.5783 5.33822C21.1727 5.33822 20.8362 5.56744 20.8362 6.10212L20.8362 10.0942C20.8362 10.5818 21.093 10.8581 21.5783 10.8581ZM22.3129 7.9158L22.3129 6.43239L22.5032 6.43239C22.8215 6.43239 22.9594 6.85232 22.9594 7.17294C22.9594 7.50564 22.8238 7.91349 22.4957 7.91349Z"
                     fill="currentColor" fill-opacity="0.85" />
       </g>
</svg>