<?xml version="1.0" encoding="UTF-8"?>
<!--Generator: Apple Native CoreSVG 326-->
<!DOCTYPE svg PUBLIC "-//W3C//DTD SVG 1.1//EN" "http://www.w3.org/Graphics/SVG/1.1/DTD/svg11.dtd">
<svg version="1.1" xmlns="http://www.w3.org/2000/svg" xmlns:xlink="http://www.w3.org/1999/xlink"
       viewBox="0 0 38.6702 18.8962">
       <g>
              <rect height="18.8962" opacity="0" width="38.6702" x="0" y="0" />
              <path d="M2.70338 16.6051L6.12906 16.9778L6.35991 14.3163L3.3356 13.9654C2.91719 13.9194 2.68391 13.6712 2.68391 13.2764L2.68391 11.8784C2.68391 10.4598 3.5929 9.63534 5.769 9.22803L12.1424 8.03663C12.7295 7.92405 13.3038 7.7914 13.7598 7.47265L20.4785 2.85575C21.9864 1.8124 20.4831-0.416162 18.9217 0.661091L12.0726 5.35557L5.3774 6.59811C1.85292 7.2535 0 8.98692 0 11.8784L0 13.5801C0 15.4329 0.863197 16.4041 2.70338 16.6051ZM8.39614 18.8962C10.7051 18.8962 12.5195 17.0818 12.5195 14.7729C12.5195 12.4542 10.7051 10.6398 8.39614 10.6398C6.07744 10.6398 4.26303 12.4542 4.26303 14.7729C4.26303 17.0818 6.07744 18.8962 8.39614 18.8962ZM8.39614 16.3473C7.50437 16.3473 6.81198 15.6549 6.81198 14.7729C6.81198 13.8811 7.50437 13.1813 8.39614 13.1813C9.27813 13.1813 9.97798 13.8811 9.97798 14.7729C9.97798 15.6549 9.27813 16.3473 8.39614 16.3473ZM10.4771 16.4241L27.9668 16.4241L27.9668 13.7477L10.4771 13.7477ZM29.9225 18.8962C32.2315 18.8962 34.0459 17.0818 34.0459 14.7729C34.0459 12.4542 32.2315 10.6398 29.9225 10.6398C27.6038 10.6398 25.7894 12.4542 25.7894 14.7729C25.7894 17.0818 27.6038 18.8962 29.9225 18.8962ZM29.9225 16.3473C29.0308 16.3473 28.3384 15.6549 28.3384 14.7729C28.3384 13.8811 29.0308 13.1813 29.9225 13.1813C30.8045 13.1813 31.5044 13.8811 31.5044 14.7729C31.5044 15.6549 30.8045 16.3473 29.9225 16.3473ZM32.6879 16.2122L34.9639 15.9818C37.2067 15.7567 38.3089 14.5029 38.3089 12.1939L38.3089 10.0023C38.3089 7.31482 37.2481 6.1592 34.7725 5.70943L28.9328 4.64322C28.3291 4.52834 27.6525 4.49674 27.0781 4.52088L12.091 5.35557L11.5126 8.06878L27.4314 7.17549L34.3177 8.42725C35.2435 8.59679 35.6325 8.98414 35.6325 10.0023L35.6325 12.1939C35.6325 12.9088 35.3003 13.2893 34.6492 13.3571L32.6879 13.5432Z"
                     fill="currentColor" fill-opacity="0.85" />
              <path d="M15.4652 13.0462C15.8024 13.0462 15.996 12.8727 16.0597 12.4759L16.1195 12.1855L16.9676 12.1855L17.0297 12.5005C17.0981 12.875 17.2813 13.0462 17.6368 13.0462C17.9815 13.0462 18.194 12.7992 18.194 12.4713C18.194 12.3242 18.1797 12.2168 18.1429 12.0675L17.4844 9.11315C17.3569 8.55202 16.9916 8.38655 16.5177 8.38655C16.0456 8.38655 15.7102 8.60655 15.605 9.11315L14.9489 12.0675C14.9196 12.2415 14.8949 12.3839 14.8949 12.4713C14.8949 12.8004 15.0897 13.0462 15.4652 13.0462ZM16.2465 11.3222L16.508 9.73409L16.5373 9.73409L16.816 11.3222ZM19.3561 13.0462C19.7479 13.0462 19.9851 12.8239 19.9851 12.4201L19.9851 9.02011C19.9851 8.61632 19.7479 8.38655 19.3561 8.38655C18.9793 8.38655 18.7593 8.61632 18.7593 9.02011L18.7593 12.4201C18.7593 12.8239 18.9793 13.0462 19.3561 13.0462ZM21.2661 13.0462C21.6579 13.0462 21.8704 12.8164 21.8704 12.4201L21.8704 11.4169L22.0527 11.4169L22.4141 12.5247C22.5141 12.8578 22.6829 13.0462 23.0034 13.0462C23.3659 13.0462 23.6106 12.8285 23.6106 12.4782C23.6106 12.373 23.5663 12.2386 23.5324 12.1467L23.1756 11.155C23.4985 10.936 23.6571 10.3467 23.6571 9.95542C23.6571 8.99269 23.1338 8.45491 22.1365 8.45491L21.2661 8.45491C20.9243 8.45491 20.6544 8.64737 20.6544 9.08846L20.6544 12.4201C20.6544 12.8239 20.867 13.0462 21.2661 13.0462ZM21.8704 10.6001L21.8704 9.35729L22.0411 9.35729C22.298 9.35729 22.4164 9.706 22.4164 9.98011C22.4164 10.2588 22.3003 10.5978 22.0337 10.6001Z"
                     fill="currentColor" fill-opacity="0.85" />
       </g>
</svg>