<?xml version="1.0" encoding="UTF-8"?>
<!--Generator: Apple Native CoreSVG 326-->
<!DOCTYPE svg PUBLIC "-//W3C//DTD SVG 1.1//EN" "http://www.w3.org/Graphics/SVG/1.1/DTD/svg11.dtd">
<svg version="1.1" xmlns="http://www.w3.org/2000/svg" xmlns:xlink="http://www.w3.org/1999/xlink"
       viewBox="0 0 40.5858 17.8519">
       <g>
              <rect height="17.8519" opacity="0" width="40.5858" x="0" y="0" />
              <path d="M11.6396 14.6998C11.6396 16.4459 10.2187 17.8519 8.48524 17.8519C6.7415 17.8519 5.31826 16.4436 5.31826 14.6998C5.31826 12.9612 6.7415 11.5455 8.48524 11.5455C10.2164 11.5455 11.6396 12.9612 11.6396 14.6998ZM32.7472 14.6998C32.7472 16.4436 31.3315 17.8519 29.5929 17.8519C27.8543 17.8519 26.4311 16.4436 26.4311 14.6998C26.4311 12.9635 27.8566 11.5455 29.5929 11.5455C31.3315 11.5455 32.7472 12.9612 32.7472 14.6998ZM28.9761 3.85445L29.0837 4.82452L36.5503 4.82452C38.7894 4.82452 40.2244 6.12475 40.2244 8.22387L40.2244 12.6213C40.2244 14.6533 38.9759 15.8938 37.0128 15.8938L33.9867 15.8938C34.0872 15.5165 34.1412 15.1116 34.1412 14.6998C34.1412 12.187 32.0982 10.1515 29.5929 10.1515C27.0898 10.1515 25.0371 12.1968 25.0371 14.6998C25.0371 15.1116 25.0911 15.5165 25.1991 15.8938L12.8739 15.8938C12.9796 15.5188 13.0335 15.1116 13.0335 14.6998C13.0335 12.187 10.9831 10.1515 8.48524 10.1515C5.97474 10.1515 3.92202 12.187 3.92202 14.6998C3.92202 15.1116 3.98577 15.5165 4.08397 15.8938L3.22138 15.8938C1.25831 15.8938 0 14.7428 0 12.6213L0 10.2133C0 7.24688 1.84522 5.52971 5.40852 5.07303L8.92427 4.60592L12.7841 2.18799C15.2431 0.641742 17.102 0.190765 21.0076 0.190765L24.8932 0.190765C27.287 0.190765 28.6993 1.47322 28.9761 3.85445ZM14.3796 5.36145L13.5488 9.12201C13.5023 9.3454 13.4753 9.53204 13.4753 9.63892C13.4753 10.0663 13.7189 10.3936 14.2179 10.3936C14.6533 10.3936 14.9037 10.1713 14.987 9.6636L15.0491 9.29457L16.1332 9.29457L16.2051 9.68314C16.3004 10.1684 16.5181 10.3936 17.0017 10.3936C17.4324 10.3936 17.7213 10.0702 17.7213 9.63892C17.7213 9.45513 17.6995 9.31556 17.6627 9.12201L16.8199 5.36145C16.658 4.63036 16.1819 4.41607 15.5702 4.41607C14.9579 4.41607 14.5191 4.69235 14.3796 5.36145ZM18.4417 5.22934L18.4417 9.58032C18.4417 10.0926 18.7254 10.3936 19.228 10.3936C19.7254 10.3936 20.0217 10.0926 20.0217 9.58032L20.0217 5.22934C20.0217 4.71704 19.7254 4.41607 19.228 4.41607C18.7254 4.41607 18.4417 4.71704 18.4417 5.22934ZM21.6789 4.50396C21.2314 4.50396 20.8852 4.75556 20.8852 5.327L20.8852 9.58032C20.8852 10.0926 21.1591 10.3913 21.6789 10.3913C22.1791 10.3913 22.4554 10.0852 22.4554 9.58032L22.4554 8.302L22.6917 8.302L23.1341 9.7222C23.2564 10.1512 23.4891 10.3913 23.9106 10.3913C24.3787 10.3913 24.6998 10.1047 24.6998 9.64583C24.6998 9.53095 24.6285 9.34255 24.5872 9.21614L24.1494 7.96887C24.5533 7.68106 24.7537 6.92923 24.7537 6.43743C24.7537 5.18646 24.08 4.50396 22.7927 4.50396ZM15.9471 8.17802L15.2179 8.17802L15.5483 6.15235L15.5897 6.15235ZM23.1416 6.45696C23.1416 6.81204 23.0059 7.24919 22.6555 7.24919L22.4554 7.24919L22.4554 5.67219L22.6629 5.67219C23.0059 5.67219 23.1416 6.11911 23.1416 6.45696Z"
                     fill="currentColor" fill-opacity="0.85" />
       </g>
</svg>