<?xml version="1.0" encoding="UTF-8"?>
<!--Generator: Apple Native CoreSVG 326-->
<!DOCTYPE svg PUBLIC "-//W3C//DTD SVG 1.1//EN" "http://www.w3.org/Graphics/SVG/1.1/DTD/svg11.dtd">
<svg version="1.1" xmlns="http://www.w3.org/2000/svg" xmlns:xlink="http://www.w3.org/1999/xlink"
       viewBox="0 0 29.4637 25.6155">
       <g>
              <rect height="25.6155" opacity="0" width="29.4637" x="0" y="0" />
              <path d="M5.25749 25.608L12.0732 25.608C14.055 25.608 15.2002 24.4651 15.2002 22.4977L15.2002 3.11032C15.2002 1.14288 14.055 0 12.0732 0L5.25749 0C3.27567 0 2.13048 1.14288 2.13048 3.11032L2.13048 22.4977C2.13048 24.4651 3.27567 25.608 5.25749 25.608ZM11.5918 8.86313C11.2093 8.86313 10.9049 8.56161 10.9049 8.18141L10.9049 4.31871C10.9049 3.9609 11.2093 3.64446 11.5918 3.64446C11.9645 3.64446 12.2563 3.9609 12.2563 4.31871L12.2563 8.18141C12.2563 8.56161 11.9645 8.86313 11.5918 8.86313ZM9.20068 8.86313C8.8331 8.86313 8.51666 8.56161 8.51666 8.18141L8.51666 4.31871C8.51666 3.9609 8.8331 3.64446 9.20068 3.64446C9.5711 3.64446 9.87032 3.9609 9.87032 4.31871L9.87032 8.18141C9.87032 8.56161 9.5711 8.86313 9.20068 8.86313ZM11.5918 15.4004C11.2093 15.4004 10.9049 15.0937 10.9049 14.7112L10.9049 10.8485C10.9049 10.4832 11.2093 10.184 11.5918 10.184C11.9645 10.184 12.2563 10.4832 12.2563 10.8485L12.2563 14.7112C12.2563 15.0937 11.9645 15.4004 11.5918 15.4004ZM9.20068 15.4004C8.8331 15.4004 8.51666 15.0937 8.51666 14.7112L8.51666 10.8485C8.51666 10.4832 8.8331 10.184 9.20068 10.184C9.5711 10.184 9.87032 10.4832 9.87032 10.8485L9.87032 14.7112C9.87032 15.0937 9.5711 15.4004 9.20068 15.4004ZM11.5918 21.9497C11.2093 21.9497 10.9049 21.6333 10.9049 21.2778L10.9049 17.4076C10.9049 17.0326 11.2093 16.7236 11.5918 16.7236C11.9645 16.7236 12.2563 17.0326 12.2563 17.4076L12.2563 21.2778C12.2563 21.6333 11.9645 21.9497 11.5918 21.9497ZM9.20068 21.9497C8.8331 21.9497 8.51666 21.6333 8.51666 21.2778L8.51666 17.4076C8.51666 17.0326 8.8331 16.7236 9.20068 16.7236C9.5711 16.7236 9.87032 17.0326 9.87032 17.4076L9.87032 21.2778C9.87032 21.6333 9.5711 21.9497 9.20068 21.9497Z"
                     fill="currentColor" fill-opacity="0.85" />
              <path d="M19.9992 7.86272C20.3334 7.86272 20.5568 7.57788 20.5 7.22875L20.3766 6.4555L21.0056 6.94433C21.2761 7.16366 21.6195 7.1246 21.774 6.82714C21.9457 6.54461 21.8131 6.17133 21.4863 6.06106L20.7912 5.78926L21.5059 5.49277C21.8332 5.35781 21.9509 5.03391 21.7912 4.74907C21.6264 4.46137 21.2635 4.41024 20.9884 4.62672L20.3915 5.08571L20.5023 4.34231C20.5591 3.99317 20.3357 3.70833 19.9992 3.70833C19.6529 3.70833 19.4221 3.98856 19.4789 4.34L19.58 5.08055L18.9784 4.61926C18.7034 4.40508 18.3496 4.46422 18.19 4.74907C18.028 5.03391 18.1584 5.38765 18.4805 5.50023L19.198 5.77434L18.4754 6.06621C18.1509 6.18395 18.0257 6.54746 18.1951 6.82714C18.3599 7.1246 18.6959 7.16366 18.9784 6.94433L19.58 6.47789L19.4812 7.22875C19.4341 7.58019 19.6552 7.86272 19.9992 7.86272ZM26.6891 21.8962C27.0256 21.8962 27.2513 21.6159 27.1945 21.2645L27.0934 20.5188L27.695 20.9801C27.9677 21.1868 28.3238 21.1477 28.4811 20.8577C28.6505 20.5706 28.5276 20.2467 28.198 20.114L27.4955 19.8176L28.1883 19.5434C28.515 19.4355 28.6454 19.0645 28.4783 18.7774C28.3284 18.4799 27.9827 18.4385 27.7024 18.6602L27.0711 19.1415L27.1922 18.3758C27.2467 18.0243 27.0233 17.7441 26.6891 17.7441C26.3549 17.7441 26.1315 18.0266 26.1809 18.3758L26.2819 19.1289L25.6804 18.6625C25.4048 18.4431 25.0688 18.4822 24.8994 18.7774C24.7202 19.045 24.8529 19.4206 25.1796 19.5383L25.9023 19.8325L25.1825 20.1066C24.8626 20.2192 24.7225 20.5706 24.8896 20.8577C25.0395 21.138 25.4099 21.204 25.6827 20.9875L26.2819 20.5286L26.1786 21.2622C26.1143 21.6039 26.3526 21.8962 26.6891 21.8962ZM19.5724 11.5638C22.6349 11.5638 24.0796 9.22087 26.4296 9.22087C26.9718 9.22087 27.3837 9.34322 27.9404 9.64826C28.4262 9.92564 28.97 9.78892 29.268 9.37033C29.6275 8.84092 29.4811 8.16503 28.8873 7.83136C28.1308 7.39082 27.3009 7.16051 26.4296 7.16051C23.3653 7.16051 21.9206 9.50577 19.5724 9.50577C19.0376 9.50577 18.6257 9.38113 18.0667 9.07378C17.578 8.78379 17.0095 8.94058 16.7242 9.38101C16.3917 9.89319 16.5306 10.5691 17.1124 10.893C17.8688 11.3381 18.7011 11.5638 19.5724 11.5638ZM19.5821 15.0019C22.6349 15.0019 24.0819 12.6739 26.4296 12.6739C26.9741 12.6739 27.386 12.7813 27.9501 13.1013C28.4262 13.3637 28.9723 13.2345 29.2703 12.8159C29.6275 12.3014 29.4834 11.6106 28.8919 11.2695C28.1331 10.8364 27.3009 10.6135 26.4296 10.6135C23.3676 10.6135 21.9229 12.9439 19.5821 12.9439C19.0376 12.9439 18.6257 12.8342 18.069 12.5217C17.5803 12.2294 17.0095 12.3862 16.7242 12.834C16.3917 13.3462 16.5306 14.0072 17.1221 14.346C17.8711 14.7837 18.7108 15.0019 19.5821 15.0019ZM19.5724 18.455C22.6349 18.455 24.0796 16.1195 26.4296 16.1195C26.9718 16.1195 27.3837 16.2344 27.9404 16.5566C28.4262 16.8191 28.97 16.6875 29.268 16.2689C29.6275 15.7544 29.4811 15.0562 28.8873 14.7225C28.1308 14.282 27.3009 14.0591 26.4296 14.0591C23.3653 14.0591 21.9206 16.3969 19.5724 16.3969C19.0376 16.3969 18.6257 16.2797 18.0667 15.9672C17.578 15.6824 17.0095 15.8392 16.7242 16.2796C16.3917 16.7918 16.5306 17.4625 17.1124 17.7939C17.8688 18.2367 18.7011 18.455 19.5724 18.455Z"
                     fill="currentColor" fill-opacity="0.85" />
       </g>
</svg>