<?xml version="1.0" encoding="UTF-8"?>
<!--Generator: Apple Native CoreSVG 326-->
<!DOCTYPE svg PUBLIC "-//W3C//DTD SVG 1.1//EN" "http://www.w3.org/Graphics/SVG/1.1/DTD/svg11.dtd">
<svg version="1.1" xmlns="http://www.w3.org/2000/svg" xmlns:xlink="http://www.w3.org/1999/xlink"
       viewBox="0 0 23.2346 25.7539">
       <g>
              <rect height="25.7539" opacity="0" width="23.2346" x="0" y="0" />
              <path d="M6.41054 23.4859L16.4651 23.4859C18.7855 23.4859 20.107 22.1719 20.107 19.8583L20.107 3.62529C20.107 1.3169 18.7809 0 16.4651 0L6.41054 0C4.09469 0 2.76626 1.3169 2.76626 3.62529L2.76626 19.8583C2.76626 22.1719 4.09008 23.4859 6.41054 23.4859ZM8.02697 6.58149C7.12634 6.58149 6.40951 5.84743 6.40951 4.95196C6.40951 4.06857 7.12634 3.33681 8.02697 3.33681C8.92013 3.33681 9.64673 4.06857 9.64673 4.95196C9.64673 5.84743 8.92013 6.58149 8.02697 6.58149ZM7.23935 15.0314C6.76095 15.0314 6.39568 14.6535 6.39568 14.1802C6.39568 13.7093 6.76095 13.3216 7.23935 13.3216L9.81092 13.3216C10.2916 13.3216 10.6644 13.7093 10.6644 14.1802C10.6644 14.6535 10.2916 15.0314 9.81092 15.0314ZM7.23935 17.5807C6.76095 17.5807 6.39568 17.2103 6.39568 16.7296C6.39568 16.2564 6.76095 15.8859 7.23935 15.8859L9.81092 15.8859C10.2916 15.8859 10.6644 16.2564 10.6644 16.7296C10.6644 17.2103 10.2916 17.5807 9.81092 17.5807ZM7.23935 20.1376C6.76095 20.1376 6.39568 19.7574 6.39568 19.2939C6.39568 18.8132 6.76095 18.433 7.23935 18.433L9.81092 18.433C10.2916 18.433 10.6644 18.8132 10.6644 19.2939C10.6644 19.7574 10.2916 20.1376 9.81092 20.1376ZM13.0549 15.0314C12.5817 15.0314 12.209 14.6535 12.209 14.1802C12.209 13.7093 12.5817 13.3216 13.0549 13.3216L15.634 13.3216C16.1124 13.3216 16.4776 13.7093 16.4776 14.1802C16.4776 14.6535 16.1124 15.0314 15.634 15.0314ZM13.0549 17.5807C12.5817 17.5807 12.209 17.2103 12.209 16.7296C12.209 16.2564 12.5817 15.8859 13.0549 15.8859L15.634 15.8859C16.1124 15.8859 16.4776 16.2564 16.4776 16.7296C16.4776 17.2103 16.1124 17.5807 15.634 17.5807ZM13.0549 20.1376C12.5817 20.1376 12.209 19.7574 12.209 19.2939C12.209 18.8132 12.5817 18.433 13.0549 18.433L15.634 18.433C16.1124 18.433 16.4776 18.8132 16.4776 19.2939C16.4776 19.7574 16.1124 20.1376 15.634 20.1376ZM14.8155 6.33613C14.0807 6.33613 13.3902 6.1552 12.7457 5.77719C12.3057 5.51297 12.1966 5.01614 12.462 4.63079C12.663 4.30228 13.0621 4.22755 13.4539 4.39817C13.9531 4.62345 14.3329 4.76302 14.8155 4.76302C16.8951 4.76302 18.1406 2.59681 20.7274 2.59681C21.4547 2.59681 22.1504 2.78236 22.7897 3.14829C23.2493 3.42228 23.356 3.92657 23.0884 4.31423C22.865 4.62836 22.4704 4.7054 22.0965 4.53247C21.5898 4.29457 21.21 4.18715 20.7274 4.18715C18.646 4.18715 17.3931 6.33613 14.8155 6.33613ZM14.8178 8.93391C14.0905 8.93391 13.3925 8.74321 12.7629 8.37497C12.3057 8.11821 12.1966 7.60645 12.462 7.22857C12.663 6.90005 13.0645 6.82302 13.4562 6.99595C13.9531 7.21892 14.3329 7.36826 14.8178 7.36826C16.8974 7.36826 18.1429 5.19228 20.7274 5.19228C21.4547 5.19228 22.1527 5.37783 22.8018 5.74377C23.2516 6.01029 23.356 6.52435 23.0907 6.9097C22.8673 7.22614 22.4704 7.30317 22.0988 7.12278C21.5921 6.89005 21.2123 6.78262 20.7274 6.78262C18.6483 6.78262 17.3931 8.93391 14.8178 8.93391ZM14.8155 11.5219C14.0807 11.5219 13.3902 11.341 12.7606 10.9704C12.3057 10.7137 12.1966 10.2019 12.462 9.82404C12.663 9.48806 13.0696 9.41334 13.4539 9.59142C13.9531 9.8167 14.3329 9.96373 14.8155 9.96373C16.8951 9.96373 18.1406 7.7826 20.7274 7.7826C21.4547 7.7826 22.1504 7.97561 22.7897 8.34154C23.2493 8.60807 23.356 9.11982 23.0884 9.50001C22.865 9.81415 22.4704 9.89119 22.0965 9.71825C21.5898 9.48782 21.21 9.38786 20.7274 9.38786C18.646 9.38786 17.3931 11.5219 14.8155 11.5219ZM5.87434 25.7418C6.60422 25.7418 7.11816 25.2181 7.11816 24.4883L7.11816 22.0967L4.62076 22.0967L4.62076 24.4883C4.62076 25.2181 5.14447 25.7418 5.87434 25.7418ZM16.999 25.7418C17.7311 25.7418 18.2525 25.2181 18.2525 24.4883L18.2525 22.0967L15.7552 22.0967L15.7552 24.4883C15.7552 25.2181 16.2691 25.7418 16.999 25.7418Z"
                     fill="currentColor" fill-opacity="0.85" />
       </g>
</svg>