<?xml version="1.0" encoding="UTF-8"?>
<!--Generator: Apple Native CoreSVG 326-->
<!DOCTYPE svg PUBLIC "-//W3C//DTD SVG 1.1//EN" "http://www.w3.org/Graphics/SVG/1.1/DTD/svg11.dtd">
<svg version="1.1" xmlns="http://www.w3.org/2000/svg" xmlns:xlink="http://www.w3.org/1999/xlink"
       viewBox="0 0 25.9693 27.5263">
       <g>
              <rect height="27.5263" opacity="0" width="25.9693" x="0" y="0" />
              <path d="M14.0442 17.4344C14.0442 20.4895 16.3871 21.9365 16.3871 24.2865C16.3871 24.8287 16.2648 25.2383 15.9598 25.8024C15.6824 26.2883 15.8191 26.8246 16.2377 27.1324C16.7671 27.4821 17.4355 27.3455 17.7767 26.7419C18.2172 25.9929 18.4475 25.1555 18.4475 24.2865C18.4475 21.2199 16.1022 19.7752 16.1022 17.4344C16.1022 16.8922 16.2269 16.4826 16.5268 15.9288C16.8242 15.4401 16.6674 14.8641 16.227 14.5788C15.7148 14.2486 15.0389 14.3927 14.715 14.9744C14.2699 15.7234 14.0442 16.5654 14.0442 17.4344ZM10.6061 17.4367C10.6061 20.4895 12.9341 21.9388 12.9341 24.2865C12.9341 24.831 12.8267 25.2406 12.5044 25.8047C12.2443 26.2883 12.3735 26.8269 12.7921 27.1347C13.3066 27.4821 13.9974 27.3478 14.3385 26.7539C14.7716 25.9952 14.9945 25.1555 14.9945 24.2865C14.9945 21.2222 12.6641 19.7775 12.6641 17.4367C12.6641 16.8922 12.7739 16.4826 13.0864 15.9311C13.3712 15.4424 13.2219 14.8641 12.774 14.5788C12.2618 14.2486 11.5985 14.3927 11.262 14.9767C10.8169 15.7332 10.6061 16.5677 10.6061 17.4367ZM7.15305 17.4344C7.15305 20.4895 9.48855 21.9365 9.48855 24.2865C9.48855 24.8287 9.37367 25.2383 9.0514 25.8024C8.78894 26.2883 8.9205 26.8246 9.33909 27.1324C9.85358 27.4821 10.5444 27.3455 10.8855 26.7419C11.3261 25.9929 11.5489 25.1555 11.5489 24.2865C11.5489 21.2199 9.21111 19.7752 9.21111 17.4344C9.21111 16.8922 9.32084 16.4826 9.63334 15.9288C9.92564 15.4401 9.76654 14.8641 9.32842 14.5788C8.81624 14.2486 8.1455 14.3927 7.81414 14.9744C7.37129 15.7234 7.15305 16.5654 7.15305 17.4344ZM17.7453 17.8613C17.7453 18.1955 18.0278 18.4189 18.3793 18.3621L19.1451 18.2461L18.6637 18.8677C18.4444 19.1456 18.4834 19.489 18.7734 19.6435C19.0634 19.8153 19.4367 19.6826 19.547 19.3558L19.8188 18.6607L20.1153 19.3679C20.2502 19.6952 20.5741 19.8204 20.859 19.6533C21.1466 19.496 21.1903 19.133 20.9813 18.8579L20.5223 18.261L21.2657 18.3644C21.6074 18.4212 21.8997 18.1978 21.8997 17.8613C21.8997 17.5225 21.6195 17.2916 21.268 17.3484L20.5275 17.4495L20.9888 16.848C21.1955 16.5729 21.1438 16.2117 20.859 16.0595C20.5741 15.8924 20.2204 16.0279 20.1078 16.35L19.8337 17.0675L19.5418 16.3449C19.4241 16.0204 19.0606 15.8878 18.7734 16.0646C18.4834 16.222 18.4421 16.5654 18.6637 16.848L19.1301 17.4495L18.3793 17.3507C18.0255 17.3037 17.7453 17.5248 17.7453 17.8613ZM3.71185 24.5512C3.71185 24.8951 3.99208 25.1208 4.34352 25.064L5.08922 24.9555L4.62794 25.5645C4.42122 25.8372 4.45282 26.1858 4.75028 26.3506C5.03742 26.5126 5.36133 26.3972 5.49398 26.0676L5.78301 25.3575L6.05711 26.0503C6.17254 26.3771 6.54351 26.5074 6.83066 26.3478C7.12066 26.1904 7.16949 25.8522 6.94785 25.5719L6.45902 24.9406L7.23226 25.0617C7.58371 25.1162 7.86394 24.8928 7.86394 24.5512C7.86394 24.2169 7.5814 23.9935 7.23226 24.0429L6.4791 24.1514L6.94554 23.5448C7.15742 23.2743 7.11835 22.9309 6.83066 22.7689C6.55559 22.5897 6.18746 22.7149 6.06973 23.0491L5.77555 23.7643L5.50144 23.052C5.38887 22.7321 5.03742 22.592 4.75028 22.7517C4.47005 22.9016 4.40399 23.2794 4.62047 23.5545L5.07946 24.1514L4.34582 24.0406C3.99669 23.9838 3.71185 24.2146 3.71185 24.5512Z"
                     fill="currentColor" fill-opacity="0.85" />
              <path d="M0 3.11954L0 9.94268C0 11.9245 1.14288 13.0697 3.11032 13.0697L22.4977 13.0697C24.4651 13.0697 25.608 11.9245 25.608 9.94268L25.608 3.11954C25.608 1.14519 24.4651 0 22.4977 0L3.11032 0C1.14288 0 0 1.14519 0 3.11954ZM2.93012 3.65617C2.93012 3.19148 3.19379 2.93012 3.66078 2.93012L21.9472 2.93012C22.4142 2.93012 22.6779 3.19148 22.6779 3.65617L22.6779 9.41352C22.6779 9.87074 22.4142 10.1321 21.9472 10.1321L3.66078 10.1321C3.19379 10.1321 2.93012 9.87074 2.93012 9.41352ZM16.4986 8.56797C16.4986 8.92348 16.7903 9.19801 17.1309 9.19801L20.7645 9.19801C21.0976 9.19801 21.3894 8.92348 21.3894 8.56797C21.3894 8.22509 21.0976 7.92817 20.7645 7.92817L17.1309 7.92817C16.7903 7.92817 16.4986 8.22509 16.4986 8.56797ZM16.4986 6.33989C16.4986 6.68563 16.7903 6.96247 17.1309 6.96247L20.7645 6.96247C21.0976 6.96247 21.3894 6.68563 21.3894 6.33989C21.3894 5.99701 21.0976 5.69779 20.7645 5.69779L17.1309 5.69779C16.7903 5.69779 16.4986 5.99701 16.4986 6.33989ZM10.3753 8.56797C10.3753 8.92348 10.6573 9.19801 11.0151 9.19801L14.6338 9.19801C14.972 9.19801 15.2638 8.92348 15.2638 8.56797C15.2638 8.22509 14.972 7.92817 14.6338 7.92817L11.0151 7.92817C10.6573 7.92817 10.3753 8.22509 10.3753 8.56797ZM10.3753 6.33989C10.3753 6.68563 10.6573 6.96247 11.0151 6.96247L14.6338 6.96247C14.972 6.96247 15.2638 6.68563 15.2638 6.33989C15.2638 5.99701 14.972 5.69779 14.6338 5.69779L11.0151 5.69779C10.6573 5.69779 10.3753 5.99701 10.3753 6.33989ZM4.23246 8.56797C4.23246 8.92348 4.52422 9.19801 4.85504 9.19801L8.48864 9.19801C8.83152 9.19801 9.12098 8.92348 9.12098 8.56797C9.12098 8.22509 8.83152 7.92817 8.48864 7.92817L4.85504 7.92817C4.52422 7.92817 4.23246 8.22509 4.23246 8.56797ZM4.23246 6.33989C4.23246 6.68563 4.52422 6.96247 4.85504 6.96247L8.48864 6.96247C8.83152 6.96247 9.12098 6.68563 9.12098 6.33989C9.12098 5.99701 8.83152 5.69779 8.48864 5.69779L4.85504 5.69779C4.52422 5.69779 4.23246 5.99701 4.23246 6.33989Z"
                     fill="currentColor" fill-opacity="0.85" />
       </g>
</svg>