<?xml version="1.0" encoding="UTF-8"?>
<!--Generator: Apple Native CoreSVG 326-->
<!DOCTYPE svg PUBLIC "-//W3C//DTD SVG 1.1//EN" "http://www.w3.org/Graphics/SVG/1.1/DTD/svg11.dtd">
<svg version="1.1" xmlns="http://www.w3.org/2000/svg" xmlns:xlink="http://www.w3.org/1999/xlink"
       viewBox="0 0 21.365 21.006">
       <g>
              <rect height="21.006" opacity="0" width="21.365" x="0" y="0" />
              <path d="M10.4981 20.9962C16.302 20.9962 21.0037 16.2946 21.0037 10.4981C21.0037 4.70163 16.302 0 10.4981 0C4.70163 0 0 4.70163 0 10.4981C0 16.2946 4.70163 20.9962 10.4981 20.9962ZM10.4981 17.9484C6.37829 17.9484 3.04785 14.6179 3.04785 10.4981C3.04785 6.37829 6.37829 3.04785 10.4981 3.04785C14.6179 3.04785 17.9558 6.37829 17.9558 10.4981C17.9558 14.6179 14.6179 17.9484 10.4981 17.9484Z"
                     fill="currentColor" fill-opacity="0.85" />
              <path d="M16.5921 10.5153C16.5921 9.81627 15.6954 9.23616 14.6534 9.23616L12.6754 9.23616C12.4887 9.23616 12.4478 9.22178 12.3042 9.07585L9.14099 5.74189C9.00658 5.58794 8.82794 5.51212 8.62232 5.51212L7.88256 5.51212C7.61033 5.51212 7.45584 5.77228 7.56612 6.02958L9.10296 9.24823L7.11896 9.47175L6.32267 8.15478C6.21986 7.97615 6.05329 7.88311 5.84591 7.88311L5.6213 7.88311C5.36115 7.88311 5.17451 8.06974 5.17451 8.32244L5.17451 12.7134C5.17451 12.9586 5.36115 13.1453 5.6213 13.1453L5.84591 13.1453C6.05329 13.1453 6.21986 13.0522 6.32267 12.8759L7.11896 11.5589L9.10296 11.7801L7.56612 15.0062C7.45584 15.2561 7.61033 15.5237 7.88256 15.5237L8.62232 15.5237C8.82794 15.5237 9.00658 15.4404 9.14099 15.2962L12.3042 11.9548C12.4478 11.8163 12.4887 11.7997 12.6754 11.7997L14.6534 11.7997C15.6954 11.7997 16.5921 11.2196 16.5921 10.5153Z"
                     fill="currentColor" fill-opacity="0.85" />
       </g>
</svg>