<?xml version="1.0" encoding="UTF-8"?>
<!--Generator: Apple Native CoreSVG 326-->
<!DOCTYPE svg PUBLIC "-//W3C//DTD SVG 1.1//EN" "http://www.w3.org/Graphics/SVG/1.1/DTD/svg11.dtd">
<svg version="1.1" xmlns="http://www.w3.org/2000/svg" xmlns:xlink="http://www.w3.org/1999/xlink"
       viewBox="0 0 22.2989 18.3704">
       <g>
              <rect height="18.3704" opacity="0" width="22.2989" x="0" y="0" />
              <path d="M6.32085 18.3606L15.6093 18.3606C19.9294 18.3606 21.9376 16.3547 21.9376 12.0444L21.9376 7.32458L16.2397 7.32458C16.0513 7.74166 15.6113 8.02486 15.0639 8.02486L6.87603 8.02486C6.34584 8.02486 5.89377 7.74166 5.70022 7.32458L0 7.32458L0 12.0444C0 16.3547 2.00074 18.3606 6.32085 18.3606ZM10.9688 11.8948C10.391 11.9068 9.91369 11.4198 9.91369 10.8517C9.91369 10.2665 10.391 9.79662 10.9688 9.79662C11.5541 9.79662 12.0239 10.2665 12.0239 10.8517C12.0239 11.4152 11.5541 11.885 10.9688 11.8948ZM0 6.18225L5.69561 6.18225C5.88916 5.76518 6.34123 5.48197 6.87142 5.48197L15.0541 5.48197C15.5843 5.48197 16.0341 5.76518 16.2351 6.18225L21.9232 6.18225L21.9232 5.9742C21.9232 1.8875 19.8339 0 15.6024 0L6.32085 0C2.0893 0 0 1.8875 0 5.9742Z"
                     fill="currentColor" fill-opacity="0.85" />
       </g>
</svg>