<?xml version="1.0" encoding="UTF-8"?>
<!--Generator: Apple Native CoreSVG 326-->
<!DOCTYPE svg PUBLIC "-//W3C//DTD SVG 1.1//EN" "http://www.w3.org/Graphics/SVG/1.1/DTD/svg11.dtd">
<svg version="1.1" xmlns="http://www.w3.org/2000/svg" xmlns:xlink="http://www.w3.org/1999/xlink"
       viewBox="0 0 18.0606 20.862">
       <g>
              <rect height="20.862" opacity="0" width="18.0606" x="0" y="0" />
              <path d="M5.39936 20.862L12.3 20.862C15.9038 20.862 17.6993 19.0739 17.6993 15.4701L17.6993 5.39706C17.6993 1.79324 15.9038 0.0051558 12.3 0.0051558L5.39936 0.0051558C1.79554 0.0051558 0 1.79324 0 5.39706L0 15.4701C0 19.0739 1.79554 20.862 5.39936 20.862ZM5.39936 17.9319C3.69954 17.9319 2.93012 17.1699 2.93012 15.4701L2.93012 5.39706C2.93012 3.69723 3.69954 2.93527 5.39936 2.93527L12.3 2.93527C13.9998 2.93527 14.7617 3.69723 14.7617 5.39706L14.7617 15.4701C14.7617 17.1699 13.9998 17.9319 12.3 17.9319ZM1.46994 7.24767L16.2294 7.24767L16.2294 6.06737L1.46994 6.06737ZM5.86107 7.88189L11.8308 7.88189C12.5419 7.88189 13.0698 7.38099 13.0698 6.6601C13.0698 5.93174 12.5419 5.43084 11.8308 5.43084L5.86107 5.43084C5.17924 5.43084 4.62205 5.93174 4.62205 6.6601C4.62205 7.38099 5.17924 7.88189 5.86107 7.88189Z"
                     fill="currentColor" fill-opacity="0.85" />
       </g>
</svg>