<?xml version="1.0" encoding="UTF-8"?>
<!--Generator: Apple Native CoreSVG 326-->
<!DOCTYPE svg PUBLIC "-//W3C//DTD SVG 1.1//EN" "http://www.w3.org/Graphics/SVG/1.1/DTD/svg11.dtd">
<svg version="1.1" xmlns="http://www.w3.org/2000/svg" xmlns:xlink="http://www.w3.org/1999/xlink"
       viewBox="0 0 25.7212 18.4013">
       <g>
              <rect height="18.4013" opacity="0" width="25.7212" x="0" y="0" />
              <path d="M7.04975 0.0459772C3.7332 0.026446 0 3.30054 0 6.39491C0 8.93155 2.57394 11.1469 4.80081 11.1297C7.84162 11.1199 11.7064 7.70908 11.7064 4.89792C11.7064 2.1821 9.60404 0.0580478 7.04975 0.0459772ZM3.95514 9.40151C3.37096 9.40151 2.46397 8.65823 1.89932 7.74147C1.34444 6.81265 1.37143 6.08659 1.95561 6.08659C2.52257 6.08659 3.43186 6.81265 4.00166 7.74147C4.55655 8.65823 4.53701 9.40151 3.95514 9.40151ZM6.63499 5.03112C6.29264 4.56182 6.41499 3.9162 6.87452 3.58362L8.25432 2.58983C8.71155 2.24749 9.35947 2.36983 9.68229 2.83913C10.0367 3.31358 9.9465 3.93221 9.46459 4.27686L8.09971 5.25858C7.61319 5.61069 6.9578 5.50557 6.63499 5.03112ZM7.56557 18.4013L8.69675 18.4013C9.59318 18.4013 10.1801 17.8724 10.1801 17.0081L10.1801 10.1534C8.97686 11.2068 7.52323 12.0023 6.07476 12.3114L6.07476 17.0081C6.07476 17.8724 6.66683 18.4013 7.56557 18.4013ZM18.3027 0.0459772C15.7484 0.0580478 13.646 2.1821 13.646 4.89792C13.646 7.70908 17.5108 11.1199 20.5516 11.1297C22.7785 11.1469 25.3599 8.93155 25.3599 6.39491C25.3599 3.30054 21.6192 0.026446 18.3027 0.0459772ZM21.4047 9.40151C20.8229 9.40151 20.7959 8.65823 21.3582 7.74147C21.9206 6.81265 22.8299 6.08659 23.4043 6.08659C23.9884 6.08659 24.008 6.81265 23.4531 7.74147C22.8982 8.65823 21.9815 9.40151 21.4047 9.40151ZM18.7249 5.03112C18.3946 5.50557 17.7467 5.61069 17.2625 5.25858L15.8976 4.27686C15.4134 3.93221 15.3232 3.31358 15.6776 2.83913C16.0004 2.36983 16.6409 2.24749 17.0981 2.58983L18.4802 3.58362C18.9472 3.9162 19.0598 4.56182 18.7249 5.03112ZM17.7868 18.4013C18.693 18.4013 19.2851 17.8724 19.2851 17.0081L19.2851 12.3114C17.8366 12.0023 16.383 11.2068 15.1723 10.1534L15.1723 17.0081C15.1723 17.8724 15.7592 18.4013 16.6631 18.4013Z"
                     fill="currentColor" fill-opacity="0.85" />
       </g>
</svg>