<?xml version="1.0" encoding="UTF-8"?>
<!--Generator: Apple Native CoreSVG 326-->
<!DOCTYPE svg PUBLIC "-//W3C//DTD SVG 1.1//EN" "http://www.w3.org/Graphics/SVG/1.1/DTD/svg11.dtd">
<svg version="1.1" xmlns="http://www.w3.org/2000/svg" xmlns:xlink="http://www.w3.org/1999/xlink"
       viewBox="0 0 23.9405 18.3243">
       <g>
              <rect height="18.3243" opacity="0" width="23.9405" x="0" y="0" />
              <path d="M6.32085 18.3145L17.2583 18.3145C21.5807 18.3145 23.5791 16.3109 23.5791 12.0006L23.5791 7.32458L17.0642 7.32458C16.8683 7.74166 16.4358 8.02486 15.8809 8.02486L7.70053 8.02486C7.17034 8.02486 6.71827 7.74166 6.51725 7.32458L0 7.32458L0 12.0006C0 16.3109 2.00074 18.3145 6.32085 18.3145ZM11.7933 11.8948C11.2155 11.9045 10.733 11.4198 10.733 10.8517C10.733 10.2665 11.2155 9.79662 11.7933 9.79662C12.3711 9.79662 12.8484 10.2665 12.8484 10.8517C12.8484 11.4152 12.3711 11.885 11.7933 11.8948ZM0 6.18225L6.51264 6.18225C6.71366 5.76287 7.16573 5.48197 7.69592 5.48197L15.8786 5.48197C16.4088 5.48197 16.8586 5.76287 17.0596 6.18225L23.5722 6.18225L23.5722 5.9742C23.5722 1.8875 21.4852 0 17.2514 0L6.32085 0C2.0893 0 0 1.8875 0 5.9742Z"
                     fill="currentColor" fill-opacity="0.85" />
       </g>
</svg>