<?xml version="1.0" encoding="UTF-8"?>
<!--Generator: Apple Native CoreSVG 326-->
<!DOCTYPE svg PUBLIC "-//W3C//DTD SVG 1.1//EN" "http://www.w3.org/Graphics/SVG/1.1/DTD/svg11.dtd">
<svg version="1.1" xmlns="http://www.w3.org/2000/svg" xmlns:xlink="http://www.w3.org/1999/xlink"
       viewBox="0 0 31.8878 21.6107">
       <g>
              <rect height="21.6107" opacity="0" width="31.8878" x="0" y="0" />
              <path d="M11.455 18.8459C11.455 19.7125 10.8755 20.2488 9.97162 20.2488L9.15767 20.2488C8.25893 20.2488 7.66687 19.7125 7.66687 18.8459L7.66687 13.6067C7.93785 13.4637 8.18774 13.2905 8.41259 13.0891C9.50531 13.0051 10.5529 12.7671 11.455 12.4227ZM23.1183 13.0893C23.3441 13.2911 23.595 13.4646 23.8671 13.6078L23.8671 18.8459C23.8671 19.7125 23.275 20.2488 22.3688 20.2488L21.5549 20.2488C20.6584 20.2488 20.0715 19.7125 20.0715 18.8459L20.0715 12.4214C20.9757 12.7668 22.0243 13.0054 23.1183 13.0893Z"
                     fill="currentColor" fill-opacity="0.85" />
              <path d="M15.0619 5.72784C15.0619 7.84128 13.9019 9.52424 12.0691 10.631C11.4095 11.044 10.5227 11.3761 9.52752 11.574C9.78637 10.9928 9.92722 10.3276 9.92722 9.59788C9.92722 7.10527 7.89264 4.84337 5.334 4.44241C5.42973 4.26677 5.52572 4.1098 5.61463 3.98301C6.82733 2.20742 8.86416 1.33489 10.7281 1.34696C13.2518 1.37395 15.0619 3.09585 15.0619 5.72784ZM25.9193 3.98301C26.0064 4.10974 26.101 4.26662 26.1957 4.44217C23.6408 4.84246 21.5993 7.10477 21.5993 9.59788C21.5993 10.3275 21.7406 10.9927 22.0002 11.5739C21.0035 11.376 20.1169 11.0439 19.4574 10.631C17.632 9.52424 16.4721 7.84128 16.4721 5.72784C16.4721 3.09585 18.2821 1.37395 20.8059 1.34696C22.6698 1.33489 24.6992 2.20742 25.9193 3.98301ZM12.0882 3.81918L10.9063 4.79883C10.6266 5.02453 10.5996 5.40703 10.8179 5.70164C11.0436 5.99624 11.4657 6.03816 11.7482 5.79753L12.9198 4.81788C13.2069 4.58472 13.2242 4.19476 13.0036 3.91738C12.7728 3.60785 12.3679 3.59347 12.0882 3.81918ZM18.5228 3.91738C18.3023 4.19476 18.327 4.58472 18.6067 4.81788L19.7782 5.79753C20.0608 6.03816 20.4903 5.99624 20.7086 5.70164C20.9268 5.40703 20.9073 5.02453 20.6276 4.79883L19.4383 3.81918C19.1586 3.59347 18.7537 3.60785 18.5228 3.91738Z"
                     fill="currentColor" fill-opacity="0.85" />
              <path d="M5.31287 12.8552C7.20934 12.8552 8.59199 11.5969 8.59199 9.59788C8.59199 7.58762 6.70923 5.70352 4.51439 5.70352C2.64467 5.70352 1.33522 7.14992 1.33522 8.92405C1.33522 11.1551 3.19924 12.8552 5.31287 12.8552ZM4.96118 11.2067C4.57353 11.5403 3.98771 11.1843 3.39431 10.4387C2.79291 9.69311 2.51959 9.0803 2.90264 8.77878C3.32244 8.42788 3.87611 8.78163 4.48443 9.53698C5.09329 10.2797 5.36145 10.8828 4.96118 11.2067ZM26.2211 12.8552C28.3347 12.8552 30.1987 11.1551 30.1987 8.92405C30.1987 7.14992 28.8818 5.70352 27.0121 5.70352C24.8247 5.70352 22.9345 7.58762 22.9345 9.59788C22.9345 11.5969 24.3246 12.8552 26.2211 12.8552ZM26.5653 11.2067C26.165 10.8828 26.4332 10.2797 27.0495 9.53698C27.6504 8.78163 28.204 8.42788 28.6238 8.77878C29.0069 9.0803 28.741 9.69311 28.1322 10.4387C27.5388 11.1843 26.9529 11.5403 26.5653 11.2067Z"
                     fill="currentColor" fill-opacity="0.425" />
       </g>
</svg>