<?xml version="1.0" encoding="UTF-8"?>
<!--Generator: Apple Native CoreSVG 326-->
<!DOCTYPE svg PUBLIC "-//W3C//DTD SVG 1.1//EN" "http://www.w3.org/Graphics/SVG/1.1/DTD/svg11.dtd">
<svg version="1.1" xmlns="http://www.w3.org/2000/svg" xmlns:xlink="http://www.w3.org/1999/xlink"
       viewBox="0 0 21.7706 22.6238">
       <g>
              <rect height="22.6238" opacity="0" width="21.7706" x="0" y="0" />
              <path d="M0.988692 13.2828L2.13103 13.2828L2.13103 10.5142L0.988692 10.5142ZM5.481 22.6238C6.836 22.6238 7.52923 21.3068 6.75326 19.9214L3.13822 13.5036C2.80334 12.9068 2.23014 12.5732 1.55467 12.5732C0.569558 12.5732-0.0180178 13.2567 0.000421528 14.3142C0.0465198 15.5807 1.15604 18.13 2.51365 20.0713C3.75412 21.9142 4.57104 22.6238 5.481 22.6238ZM20.4206 13.2828L20.4206 10.5142L19.2783 10.5142L19.2783 13.2828ZM15.9208 22.6238C16.8382 22.6238 17.6552 21.9142 18.8956 20.0713C20.2509 18.13 21.3628 15.5807 21.4089 14.3142C21.4273 13.2567 20.8323 12.5732 19.8546 12.5732C19.1791 12.5732 18.6059 12.9068 18.2711 13.5036L14.656 19.9214C13.8777 21.3068 14.5733 22.6238 15.9208 22.6238ZM0.253782 10.6391C0.253782 11.2996 0.785493 11.8215 1.45338 11.8215C2.12126 11.8215 2.62598 11.307 2.62598 10.6391C2.63751 5.64405 5.80958 2.37881 10.7035 2.37881C15.5997 2.37881 18.7695 5.64405 18.781 10.6391C18.781 11.307 19.288 11.8215 19.9484 11.8215C20.6238 11.8215 21.1532 11.2996 21.1532 10.6391C21.1532 4.28723 17.0463 0.00430584 10.7035 0.00430584C4.36068 0.00430584 0.253782 4.28723 0.253782 10.6391Z"
                     fill="currentColor" fill-opacity="0.85" />
              <path d="M8.8038 20.4142C9.58548 19.9931 9.78879 19.108 9.29888 18.2281L6.14961 12.6115C5.65223 11.7317 4.81876 11.4554 4.02447 11.8988C3.50931 12.1785 3.42142 12.6442 3.67642 13.083L7.6224 20.088C7.89463 20.5738 8.32826 20.6938 8.8038 20.4142ZM12.6055 20.4142C13.081 20.6938 13.5147 20.5738 13.7846 20.088L17.7306 13.083C17.9879 12.6442 17.9 12.1785 17.3848 11.8988C16.5882 11.4554 15.757 11.7317 15.2574 12.6115L12.1081 18.2281C11.6182 19.108 11.8238 19.9931 12.6055 20.4142ZM4.92576 6.38903C6.49001 5.51989 8.37994 5.11258 10.7035 5.12004C13.0293 5.11258 14.9193 5.51989 16.4812 6.38903C15.3064 4.54696 13.2862 3.54013 10.7035 3.54759C8.12306 3.54013 6.10291 4.54696 4.92576 6.38903Z"
                     fill="currentColor" fill-opacity="0.425" />
       </g>
</svg>