<?xml version="1.0" encoding="UTF-8"?>
<!--Generator: Apple Native CoreSVG 326-->
<!DOCTYPE svg PUBLIC "-//W3C//DTD SVG 1.1//EN" "http://www.w3.org/Graphics/SVG/1.1/DTD/svg11.dtd">
<svg version="1.1" xmlns="http://www.w3.org/2000/svg" xmlns:xlink="http://www.w3.org/1999/xlink"
       viewBox="0 0 16.7561 21.6107">
       <g>
              <rect height="21.6107" opacity="0" width="16.7561" x="0" y="0" />
              <path d="M11.4527 18.8459C11.4527 19.7125 10.8755 20.2488 9.97162 20.2488L9.15767 20.2488C8.25893 20.2488 7.66456 19.7125 7.66456 18.8459L7.66456 13.6071C7.93566 13.464 8.18567 13.2907 8.41062 13.0891C9.503 13.0051 10.5505 12.7675 11.4527 12.4236Z"
                     fill="currentColor" fill-opacity="0.85" />
              <path d="M15.0596 5.72784C15.0596 7.84128 13.9019 9.52424 12.0691 10.631C11.409 11.0443 10.5212 11.3767 9.52499 11.5746C9.78398 10.9932 9.92491 10.3278 9.92491 9.59788C9.92491 7.10571 7.89294 4.84418 5.33359 4.44262C5.42953 4.2669 5.52568 4.10986 5.61463 3.98301C6.82733 2.20742 8.86185 1.33489 10.7281 1.34696C13.2495 1.37395 15.0596 3.09585 15.0596 5.72784ZM12.0882 3.81918L10.9063 4.79883C10.6266 5.02453 10.5996 5.40703 10.8179 5.70164C11.0436 5.99624 11.4634 6.03816 11.7482 5.79753L12.9175 4.81788C13.2046 4.58472 13.2219 4.19476 13.0036 3.91738C12.7728 3.60785 12.3656 3.59347 12.0882 3.81918Z"
                     fill="currentColor" fill-opacity="0.85" />
              <path d="M5.31287 12.8552C7.20934 12.8552 8.59199 11.5969 8.59199 9.59788C8.59199 7.58762 6.70923 5.70352 4.51208 5.70352C2.64467 5.70352 1.33292 7.14992 1.33292 8.92405C1.33292 11.1551 3.19924 12.8552 5.31287 12.8552ZM4.96118 11.2067C4.57353 11.5403 3.98771 11.1843 3.39431 10.4387C2.7906 9.69311 2.51729 9.0803 2.90264 8.77878C3.32244 8.42788 3.87611 8.78163 4.48443 9.53698C5.09329 10.2797 5.36145 10.8828 4.96118 11.2067Z"
                     fill="currentColor" fill-opacity="0.425" />
       </g>
</svg>