<?xml version="1.0" encoding="UTF-8"?>
<!--Generator: Apple Native CoreSVG 326-->
<!DOCTYPE svg PUBLIC "-//W3C//DTD SVG 1.1//EN" "http://www.w3.org/Graphics/SVG/1.1/DTD/svg11.dtd">
<svg version="1.1" xmlns="http://www.w3.org/2000/svg" xmlns:xlink="http://www.w3.org/1999/xlink"
       viewBox="0 0 43.7624 18.3243">
       <g>
              <rect height="18.3243" opacity="0" width="43.7624" x="0" y="0" />
              <path d="M4.18733 15.8146C4.5819 15.3287 4.46186 14.728 4.02823 14.2455C2.87631 12.9769 2.23342 11.1449 2.23342 9.15725C2.23342 7.17701 2.86885 5.33755 4.02823 4.07645C4.46932 3.59399 4.59682 2.99326 4.18733 2.5074C3.75546 1.98709 2.99222 1.89241 2.36747 2.54877C0.888126 4.12006 0 6.60557 0 9.15725C0 11.7238 0.783676 14.1399 2.36747 15.7732C3.00715 16.4221 3.76292 16.34 4.18733 15.8146ZM39.2138 15.8146C39.6457 16.34 40.394 16.4221 41.036 15.7732C42.6272 14.1399 43.4011 11.7238 43.4011 9.15725C43.4011 6.60557 42.5228 4.12006 41.036 2.54877C40.4164 1.89241 39.6531 1.98709 39.2138 2.5074C38.8118 2.99326 38.9393 3.59399 39.3803 4.07645C40.5472 5.34501 41.1677 7.17701 41.1677 9.15725C41.1677 11.1449 40.5248 12.9769 39.3803 14.2455C38.9467 14.728 38.8192 15.3287 39.2138 15.8146Z"
                     fill="currentColor" fill-opacity="0.85" />
              <path d="M7.40665 12.9642C7.76392 12.4933 7.65189 11.9195 7.29462 11.4175C6.90266 10.894 6.612 9.95651 6.612 9.15725C6.612 8.35798 6.90266 7.41072 7.29462 6.88204C7.64442 6.38751 7.76392 5.82122 7.40665 5.34283C6.99486 4.8076 6.17018 4.77776 5.5971 5.38135C4.79971 6.2719 4.37858 7.66947 4.37858 9.15725C4.37858 10.645 4.79971 12.0426 5.5971 12.9182C6.17018 13.5293 6.99486 13.4971 7.40665 12.9642ZM36.0019 12.9642C36.4063 13.4971 37.2309 13.5293 37.804 12.9182C38.6089 12.0426 39.0248 10.645 39.0248 9.15725C39.0248 7.66947 38.6089 6.2719 37.804 5.38135C37.2309 4.77776 36.4063 4.8076 36.0019 5.34283C35.6372 5.82122 35.7567 6.38751 36.1065 6.88204C36.4985 7.41072 36.7914 8.35798 36.7914 9.15725C36.7914 9.95651 36.4985 10.894 36.1065 11.4175C35.7492 11.9195 35.6372 12.4933 36.0019 12.9642Z"
                     fill="currentColor" fill-opacity="0.85" />
              <path d="M16.2367 18.3145L27.1644 18.3145C31.4868 18.3145 33.495 16.3109 33.495 12.0006L33.495 7.32458L26.9726 7.32458C26.7819 7.74166 26.3419 8.02486 25.7945 8.02486L17.6066 8.02486C17.0839 8.02486 16.6267 7.74166 16.4331 7.32458L9.91357 7.32458L9.91357 12.0006C9.91357 16.3109 11.9143 18.3145 16.2367 18.3145ZM21.7017 11.8948C21.1291 11.9045 20.6466 11.4198 20.6466 10.8517C20.6466 10.2665 21.1291 9.79662 21.7017 9.79662C22.287 9.79662 22.7545 10.2665 22.7545 10.8517C22.7545 11.4152 22.287 11.885 21.7017 11.8948ZM9.91357 6.18225L16.4285 6.18225C16.6221 5.76287 17.0718 5.48197 17.602 5.48197L25.7922 5.48197C26.3224 5.48197 26.7721 5.76287 26.968 6.18225L33.4806 6.18225L33.4806 5.9742C33.4806 1.8875 31.3913 0 27.1575 0L16.2367 0C12.0029 0 9.91357 1.8875 9.91357 5.9742Z"
                     fill="currentColor" fill-opacity="0.85" />
       </g>
</svg>