<?xml version="1.0" encoding="UTF-8"?>
<!--Generator: Apple Native CoreSVG 326-->
<!DOCTYPE svg PUBLIC "-//W3C//DTD SVG 1.1//EN" "http://www.w3.org/Graphics/SVG/1.1/DTD/svg11.dtd">
<svg version="1.1" xmlns="http://www.w3.org/2000/svg" xmlns:xlink="http://www.w3.org/1999/xlink"
       viewBox="0 0 10.1536 21.1119">
       <g>
              <rect height="21.1119" opacity="0" width="10.1536" x="0" y="0" />
              <path d="M4.86081 9.13602C6.8709 9.11418 8.52499 8.03117 9.42427 6.63056C9.66435 6.23599 9.79185 5.78974 9.79185 5.33428L9.79185 3.81666C9.79185 3.33135 9.6592 2.87018 9.41681 2.49054C8.40847 1.04516 6.84851 0 4.86081 0C2.23247 0 0.0446617 2.04593 0.000443375 4.54963C-0.0363142 7.07517 2.21754 9.16301 4.86081 9.13602ZM7.39527 6.4404C7.05699 6.4404 6.80715 6.1831 6.80715 5.85228L6.80715 3.28143C6.80715 2.95061 7.05699 2.69331 7.39527 2.69331C7.71862 2.69331 7.96616 2.95061 7.96616 3.28143L7.96616 5.85228C7.96616 6.1831 7.71862 6.4404 7.39527 6.4404ZM4.75819 17.4347L4.75819 10.4643C3.38214 10.4384 2.1043 10.018 1.02693 9.20589L1.02693 17.4347ZM3.33113 21.0975C4.18565 21.0975 4.75819 20.5882 4.75819 19.7658L4.75819 18.7843L1.02693 18.7843L1.02693 19.7658C1.02693 20.5882 1.58454 21.0975 2.45629 21.0975Z"
                     fill="currentColor" fill-opacity="0.85" />
       </g>
</svg>