<?xml version="1.0" encoding="UTF-8"?>
<!--Generator: Apple Native CoreSVG 326-->
<!DOCTYPE svg PUBLIC "-//W3C//DTD SVG 1.1//EN" "http://www.w3.org/Graphics/SVG/1.1/DTD/svg11.dtd">
<svg version="1.1" xmlns="http://www.w3.org/2000/svg" xmlns:xlink="http://www.w3.org/1999/xlink"
       viewBox="0 0 24.8431 24.6517">
       <g>
              <rect height="24.6517" opacity="0" width="24.8431" x="0" y="0" />
              <path d="M1.5124 21.7774L22.9671 21.7774C23.7997 21.7774 24.4795 21.0953 24.4795 20.2627C24.4795 19.4302 23.7997 18.7578 22.9671 18.7578L1.5124 18.7578C0.679834 18.7578 0 19.4302 0 20.2627C0 21.0953 0.679834 21.7774 1.5124 21.7774Z"
                     fill="currentColor" fill-opacity="0.85" />
              <path d="M3.02771 10.4572L19.8681 14.9815C22.0043 15.549 24.0354 14.857 24.3289 13.2751C24.5587 11.8253 23.0491 10.3905 21.0697 10.0114L14.8142 8.7781C14.4241 8.69998 14.2396 8.57127 13.9616 8.16627L8.84778 0.809232C8.62954 0.50025 8.3154 0.284315 7.97482 0.201034L7.23669 0.0177918C6.79111-0.093027 6.43397 0.330717 6.55456 0.819969L8.52654 9.35628L9.86547 7.7831L2.77635 6.39675L7.30427 9.23278L2.15778 3.21334C1.89532 2.8992 1.57087 2.80099 1.11486 2.89404L0.706463 2.97963C0.293577 3.06576 0.0644785 3.40513 0.15061 3.8111L1.17085 8.84731C1.33741 9.6336 1.98643 10.1804 3.02771 10.4572Z"
                     fill="currentColor" fill-opacity="0.85" />
       </g>
</svg>