<?xml version="1.0" encoding="UTF-8"?>
<!--Generator: Apple Native CoreSVG 326-->
<!DOCTYPE svg PUBLIC "-//W3C//DTD SVG 1.1//EN" "http://www.w3.org/Graphics/SVG/1.1/DTD/svg11.dtd">
<svg version="1.1" xmlns="http://www.w3.org/2000/svg" xmlns:xlink="http://www.w3.org/1999/xlink"
       viewBox="0 0 23.9405 18.3196">
       <g>
              <rect height="18.3196" opacity="0" width="23.9405" x="0" y="0" />
              <path d="M6.32085 18.3196L17.2583 18.3196C21.5807 18.3196 23.5791 16.3235 23.5791 12.0057L23.5791 6.31909C23.5791 2.00129 21.5807 0.0051558 17.2583 0.0051558L6.32085 0.0051558C2.00074 0.0051558 0 2.00129 0 6.31909L0 12.0057C0 16.3235 2.00074 18.3196 6.32085 18.3196ZM6.32085 15.3C4.04649 15.3 3.01964 14.2755 3.01964 12.0057L3.01964 6.31909C3.01964 4.04934 4.04649 3.0248 6.32085 3.0248L17.2583 3.0248C19.535 3.0248 20.5595 4.04934 20.5595 6.31909L20.5595 12.0057C20.5595 14.2755 19.535 15.3 17.2583 15.3ZM1.5147 7.34873L22.0644 7.34873L22.0644 6.16842L1.5147 6.16842ZM7.70053 8.03001L15.8809 8.03001C16.6242 8.03001 17.1647 7.5142 17.1647 6.76115C17.1647 6.01041 16.6242 5.48713 15.8809 5.48713L7.70053 5.48713C6.98424 5.48713 6.41444 6.01041 6.41444 6.76115C6.41444 7.5142 6.98424 8.03001 7.70053 8.03001ZM11.7933 11.5988C12.3855 11.5891 12.8599 11.1146 12.8599 10.5443C12.8599 9.95208 12.3855 9.47017 11.7933 9.47017C11.2086 9.47017 10.7215 9.95208 10.7215 10.5443C10.7215 11.1267 11.2086 11.6161 11.7933 11.5988Z"
                     fill="currentColor" fill-opacity="0.85" />
       </g>
</svg>