<?xml version="1.0" encoding="UTF-8"?>
<!--Generator: Apple Native CoreSVG 326-->
<!DOCTYPE svg PUBLIC "-//W3C//DTD SVG 1.1//EN" "http://www.w3.org/Graphics/SVG/1.1/DTD/svg11.dtd">
<svg version="1.1" xmlns="http://www.w3.org/2000/svg" xmlns:xlink="http://www.w3.org/1999/xlink"
       viewBox="0 0 21.365 21.006">
       <g>
              <rect height="21.006" opacity="0" width="21.365" x="0" y="0" />
              <path d="M21.0037 10.5079C21.0037 16.3043 16.302 21.006 10.4981 21.006C4.70394 21.006 0 16.3043 0 10.5079C0 4.7137 4.70394 0.00976562 10.4981 0.00976562C16.302 0.00976562 21.0037 4.7137 21.0037 10.5079ZM10.1581 11.53L7.42697 14.6173C7.17252 14.901 7.3483 15.3369 7.73541 15.3369L13.2637 15.3369C13.6479 15.3369 13.8191 14.901 13.5721 14.6173L10.8433 11.53C10.6618 11.3215 10.3465 11.329 10.1581 11.53ZM6.42791 6.3069C5.55822 6.3069 4.98205 6.86299 4.98205 7.72807L4.98205 12.6285C4.98205 13.4885 5.55076 14.0399 6.42791 14.0399L6.72906 14.0399L8.15436 12.4252L6.96289 12.4252C6.78129 12.4252 6.66058 12.3068 6.66058 12.1303L6.66058 8.23606C6.66058 8.04985 6.78129 7.91938 6.96289 7.91938L14.0385 7.91938C14.2224 7.91938 14.3431 8.04985 14.3431 8.23606L14.3431 12.1303C14.3431 12.3068 14.2224 12.4252 14.0385 12.4252L12.8493 12.4252L14.27 14.0399L14.5712 14.0399C15.4408 14.0399 16.0142 13.4885 16.0142 12.6285L16.0142 7.72807C16.0142 6.86299 15.4334 6.3069 14.5712 6.3069Z"
                     fill="currentColor" fill-opacity="0.85" />
       </g>
</svg>