<?xml version="1.0" encoding="UTF-8"?>
<!--Generator: Apple Native CoreSVG 326-->
<!DOCTYPE svg PUBLIC "-//W3C//DTD SVG 1.1//EN" "http://www.w3.org/Graphics/SVG/1.1/DTD/svg11.dtd">
<svg version="1.1" xmlns="http://www.w3.org/2000/svg" xmlns:xlink="http://www.w3.org/1999/xlink"
       viewBox="0 0 21.365 21.006">
       <g>
              <rect height="21.006" opacity="0" width="21.365" x="0" y="0" />
              <path d="M10.4981 20.9962C16.302 20.9962 21.0037 16.2946 21.0037 10.4981C21.0037 4.70163 16.302 0 10.4981 0C4.70163 0 0 4.70163 0 10.4981C0 16.2946 4.70163 20.9962 10.4981 20.9962ZM10.5004 18.7419C5.94393 18.7419 2.25659 15.0546 2.25659 10.4981C2.25659 5.94163 5.94393 2.24452 10.5004 2.24452C15.0644 2.24452 18.754 5.94163 18.754 10.4981C18.754 15.0546 15.0644 18.7419 10.5004 18.7419ZM10.4981 17.2374C14.2288 17.2374 17.2449 14.2191 17.2449 10.4981C17.2449 6.7674 14.2288 3.7588 10.4981 3.7588C6.77486 3.7588 3.7588 6.7674 3.7588 10.4981C3.7588 14.2191 6.77486 17.2374 10.4981 17.2374ZM10.586 13.0115C10.0965 13.0115 9.90119 13.2844 9.51166 13.2844C9.09513 13.2844 8.80732 12.9116 8.48099 12.4485C8.10068 11.9176 7.79388 11.072 7.79388 10.2654C7.79388 9.00088 8.61717 8.31376 9.4433 8.31376C9.87705 8.31376 10.2327 8.59873 10.4958 8.59873C10.7739 8.59873 11.1634 8.304 11.658 8.304C11.8505 8.304 12.5255 8.31376 12.9691 8.94974C12.9225 8.99111 12.255 9.3565 12.255 10.2045C12.255 11.1765 13.1052 11.5276 13.142 11.5373C13.142 11.5643 13.0179 12.0199 12.6887 12.468C12.406 12.8627 12.1016 13.2746 11.658 13.2746C11.2122 13.2746 11.1099 13.0115 10.586 13.0115ZM11.4265 7.75822C11.2122 8.03111 10.8394 8.23333 10.5446 8.23333C10.4958 8.23333 10.4814 8.23103 10.4521 8.23103C10.4521 8.20404 10.4424 8.1529 10.4424 8.09662C10.4424 7.75822 10.6176 7.42673 10.798 7.21243C11.0416 6.93724 11.4265 6.72009 11.7678 6.71778C11.7775 6.74938 11.7775 6.79075 11.7775 6.84704C11.7775 7.18314 11.6362 7.4997 11.4265 7.75822Z"
                     fill="currentColor" fill-opacity="0.85" />
       </g>
</svg>