<?xml version="1.0" encoding="UTF-8"?>
<!--Generator: Apple Native CoreSVG 326-->
<!DOCTYPE svg PUBLIC "-//W3C//DTD SVG 1.1//EN" "http://www.w3.org/Graphics/SVG/1.1/DTD/svg11.dtd">
<svg version="1.1" xmlns="http://www.w3.org/2000/svg" xmlns:xlink="http://www.w3.org/1999/xlink"
       viewBox="0 0 29.7337 19.7695">
       <g>
              <rect height="19.7695" opacity="0" width="29.7337" x="0" y="0" />
              <path d="M25.1753 16.5371C25.6095 17.0626 26.3629 17.1447 27.0049 16.4958C28.5887 14.8625 29.3724 12.4464 29.3724 9.87984C29.3724 7.32816 28.4843 4.84266 27.0049 3.27137C26.3779 2.61501 25.6169 2.70969 25.1753 3.23C24.7733 3.71585 24.9008 4.31659 25.3442 4.79905C26.511 6.06761 27.139 7.89961 27.139 9.87984C27.139 11.8675 26.4886 13.6995 25.3442 14.9681C24.9082 15.4506 24.7807 16.0513 25.1753 16.5371Z"
                     fill="currentColor" fill-opacity="0.85" />
              <path d="M21.9634 13.6868C22.3678 14.2197 23.1999 14.2519 23.7678 13.6408C24.5727 12.7652 24.9864 11.3676 24.9864 9.87984C24.9864 8.39207 24.5727 6.9945 23.7678 6.10394C23.1999 5.50035 22.3678 5.5302 21.9634 6.06543C21.6062 6.54382 21.7205 7.11011 22.068 7.60464C22.46 8.13331 22.7529 9.08058 22.7529 9.87984C22.7529 10.6791 22.46 11.6166 22.068 12.1401C21.7131 12.6421 21.6062 13.2159 21.9634 13.6868Z"
                     fill="currentColor" fill-opacity="0.85" />
              <path d="M9.87984 19.7574C15.3376 19.7574 19.7574 15.3399 19.7574 9.87984C19.7574 4.41983 15.3376 0 9.87984 0C4.41983 0 0 4.41983 0 9.87984C0 15.3399 4.41983 19.7574 9.87984 19.7574ZM9.87238 13.0781C9.24914 13.0781 8.9993 13.4205 8.50071 13.4205C7.97512 13.4205 7.61555 12.9483 7.19739 12.359C6.71548 11.6794 6.33177 10.6157 6.33177 9.59094C6.33177 7.98204 7.37087 7.11641 8.41743 7.11641C8.9677 7.11641 9.41516 7.48059 9.75981 7.48059C10.1073 7.48059 10.6036 7.10665 11.232 7.10665C11.4715 7.10665 12.3251 7.11641 12.8851 7.92344C12.8311 7.97227 11.9925 8.4318 11.9925 9.51512C11.9925 10.7426 13.0684 11.1878 13.1051 11.1998C13.1051 11.2418 12.9512 11.8139 12.5353 12.386C12.1757 12.8823 11.7943 13.4032 11.232 13.4032C10.6622 13.4032 10.5352 13.0781 9.87238 13.0781ZM10.9385 6.40474C10.6622 6.75454 10.1877 7.0113 9.82125 7.0113C9.75981 7.0113 9.73566 7.00153 9.69891 7.00153C9.69891 6.97454 9.68914 6.90848 9.68914 6.83497C9.68914 6.40474 9.91145 5.98657 10.1389 5.71775C10.4445 5.36564 10.9385 5.08419 11.3664 5.08189C11.3836 5.12841 11.3836 5.17954 11.3836 5.25075C11.3836 5.67353 11.1952 6.07677 10.9385 6.40474Z"
                     fill="currentColor" fill-opacity="0.85" />
       </g>
</svg>