<?xml version="1.0" encoding="UTF-8"?>
<!--Generator: Apple Native CoreSVG 326-->
<!DOCTYPE svg PUBLIC "-//W3C//DTD SVG 1.1//EN" "http://www.w3.org/Graphics/SVG/1.1/DTD/svg11.dtd">
<svg version="1.1" xmlns="http://www.w3.org/2000/svg" xmlns:xlink="http://www.w3.org/1999/xlink"
       viewBox="0 0 26.151 25.2784">
       <g>
              <rect height="25.2784" opacity="0" width="26.151" x="0" y="0" />
              <path d="M7.22948 11.8288L16.5498 11.8288C18.2585 11.8288 19.3457 10.7589 19.3457 9.0645L19.3457 5.27065C19.3457 3.58374 18.2585 2.51383 16.5498 2.51383L7.22948 2.51383C5.51558 2.51383 4.42614 3.58374 4.42614 5.27065L4.42614 9.0645C4.42614 10.7589 5.51558 11.8288 7.22948 11.8288ZM7.22948 22.7525L22.9863 22.7525C24.7026 22.7525 25.7897 21.6751 25.7897 19.9807L25.7897 16.1943C25.7897 14.5097 24.7026 13.43 22.9863 13.43L7.22948 13.43C5.51558 13.43 4.42614 14.5097 4.42614 16.1943L4.42614 19.9807C4.42614 21.6751 5.51558 22.7525 7.22948 22.7525Z"
                     fill="currentColor" fill-opacity="0.85" />
              <path d="M1.42912 25.2784C2.20024 25.2784 2.84562 24.6422 2.84562 23.8585L2.84562 1.43537C2.84562 0.65909 2.20024 0.0303888 1.42912 0.0303888C0.645381 0.0303888 0 0.65909 0 1.43537L0 23.8585C0 24.6422 0.645381 25.2784 1.42912 25.2784Z"
                     fill="currentColor" fill-opacity="0.85" />
       </g>
</svg>