<?xml version="1.0" encoding="UTF-8"?>
<!--Generator: Apple Native CoreSVG 326-->
<!DOCTYPE svg PUBLIC "-//W3C//DTD SVG 1.1//EN" "http://www.w3.org/Graphics/SVG/1.1/DTD/svg11.dtd">
<svg version="1.1" xmlns="http://www.w3.org/2000/svg" xmlns:xlink="http://www.w3.org/1999/xlink"
       viewBox="0 0 26.632 26.3539">
       <g>
              <rect height="26.3539" opacity="0" width="26.632" x="0" y="0" />
              <path d="M8.91505 21.777C11.3334 21.777 13.2876 19.813 13.2876 17.3774C13.2876 14.9786 11.3236 13.0244 8.91505 13.0244C6.50415 13.0244 4.53501 14.9786 4.53501 17.3774C4.53501 19.813 6.50415 21.777 8.91505 21.777ZM16.8639 14.4336C19.6166 14.4336 21.881 12.1594 21.881 9.3895C21.881 6.64657 19.6166 4.39939 16.8639 4.39939C14.1135 4.39939 11.8393 6.64657 11.8393 9.3895C11.8393 12.1594 14.1135 14.4336 16.8639 14.4336ZM11.4508 4.67574C12.1962 4.67574 12.8096 4.06984 12.8096 3.31922C12.8096 2.57376 12.1962 1.96041 11.4508 1.96041C10.7002 1.96041 10.0943 2.57376 10.0943 3.31922C10.0943 4.06984 10.7002 4.67574 11.4508 4.67574ZM17.1549 2.71764C17.898 2.71764 18.5137 2.10428 18.5137 1.35882C18.5137 0.605894 17.898 0 17.1549 0C16.4019 0 15.7961 0.605894 15.7961 1.35882C15.7961 2.10428 16.4019 2.71764 17.1549 2.71764ZM22.9612 5.33003C23.7141 5.33003 24.32 4.72414 24.32 3.97121C24.32 3.22805 23.7141 2.6147 22.9612 2.6147C22.2157 2.6147 21.6024 3.22805 21.6024 3.97121C21.6024 4.72414 22.2157 5.33003 22.9612 5.33003ZM24.9118 11.0686C25.6647 11.0686 26.2706 10.4627 26.2706 9.71207C26.2706 8.9666 25.6647 8.35325 24.9118 8.35325C24.1687 8.35325 23.553 8.9666 23.553 9.71207C23.553 10.4627 24.1687 11.0686 24.9118 11.0686ZM22.2994 16.8461C23.0449 16.8461 23.6582 16.2402 23.6582 15.4896C23.6582 14.7442 23.0449 14.1308 22.2994 14.1308C21.5465 14.1308 20.9406 14.7442 20.9406 15.4896C20.9406 16.2402 21.5465 16.8461 22.2994 16.8461ZM16.7085 18.9829C17.454 18.9829 18.0673 18.3695 18.0673 17.624C18.0673 16.8711 17.454 16.2652 16.7085 16.2652C15.9556 16.2652 15.3497 16.8711 15.3497 17.624C15.3497 18.3695 15.9556 18.9829 16.7085 18.9829ZM14.2035 24.0971C14.949 24.0971 15.5623 23.4838 15.5623 22.7383C15.5623 21.9877 14.949 21.3818 14.2035 21.3818C13.4529 21.3818 12.847 21.9877 12.847 22.7383C12.847 23.4838 13.4529 24.0971 14.2035 24.0971ZM8.67358 26.3534C9.41904 26.3534 10.0324 25.74 10.0324 24.9945C10.0324 24.2416 9.41904 23.6357 8.67358 23.6357C7.92296 23.6357 7.31707 24.2416 7.31707 24.9945C7.31707 25.74 7.92296 26.3534 8.67358 26.3534ZM3.57137 23.9903C4.32429 23.9903 4.93019 23.3769 4.93019 22.6338C4.93019 21.8808 4.32429 21.2749 3.57137 21.2749C2.82591 21.2749 2.21255 21.8808 2.21255 22.6338C2.21255 23.3769 2.82591 23.9903 3.57137 23.9903ZM1.35882 18.4953C2.10428 18.4953 2.71764 17.8894 2.71764 17.1365C2.71764 16.391 2.10428 15.7777 1.35882 15.7777C0.605894 15.7777 0 16.391 0 17.1365C0 17.8894 0.605894 18.4953 1.35882 18.4953ZM3.93555 13.1335C4.68847 13.1335 5.29436 12.5276 5.29436 11.7821C5.29436 11.0292 4.68847 10.4233 3.93555 10.4233C3.19008 10.4233 2.57673 11.0292 2.57673 11.7821C2.57673 12.5276 3.19008 13.1335 3.93555 13.1335ZM9.02623 10.5193C9.77169 10.5193 10.385 9.91345 10.385 9.16053C10.385 8.41506 9.77169 7.80171 9.02623 7.80171C8.27331 7.80171 7.66741 8.41506 7.66741 9.16053C7.66741 9.91345 8.27331 10.5193 9.02623 10.5193Z"
                     fill="currentColor" fill-opacity="0.85" />
       </g>
</svg>