<?xml version="1.0" encoding="UTF-8"?>
<!--Generator: Apple Native CoreSVG 326-->
<!DOCTYPE svg PUBLIC "-//W3C//DTD SVG 1.1//EN" "http://www.w3.org/Graphics/SVG/1.1/DTD/svg11.dtd">
<svg version="1.1" xmlns="http://www.w3.org/2000/svg" xmlns:xlink="http://www.w3.org/1999/xlink"
       viewBox="0 0 21.365 21.006">
       <g>
              <rect height="21.006" opacity="0" width="21.365" x="0" y="0" />
              <path d="M10.4981 20.9962C16.302 20.9962 21.0037 16.2946 21.0037 10.4981C21.0037 4.70163 16.302 0 10.4981 0C4.70163 0 0 4.70163 0 10.4981C0 16.2946 4.70163 20.9962 10.4981 20.9962ZM10.4981 17.9484C6.37829 17.9484 3.04785 14.6179 3.04785 10.4981C3.04785 6.37829 6.37829 3.04785 10.4981 3.04785C14.6179 3.04785 17.9558 6.37829 17.9558 10.4981C17.9558 14.6179 14.6179 17.9484 10.4981 17.9484Z"
                     fill="currentColor" fill-opacity="0.85" />
              <path d="M7.0722 14.8649C7.76634 15.0712 8.54322 15.1131 9.32241 14.9901L6.01872 11.6887C5.89571 12.4656 5.93993 13.2373 6.14622 13.9389C6.3197 14.4858 6.52302 14.6891 7.0722 14.8649ZM13.1063 13.0839C13.8394 12.3681 14.3582 11.5103 14.6897 10.6089L10.3999 6.32146C9.5008 6.64317 8.64076 7.17173 7.9249 7.89736C7.18435 8.62814 6.6581 9.48819 6.33407 10.3798L10.629 14.6748C11.523 14.3456 12.3807 13.8245 13.1063 13.0839ZM9.98611 12.4967C9.86377 12.5995 9.68229 12.5972 9.5674 12.4944L8.51217 11.4414C8.40936 11.3237 8.39444 11.1399 8.51217 11.025C8.64197 10.8998 8.82576 10.8998 8.93603 11.025L9.24799 11.3295L9.46526 11.1197L9.14584 10.8101C9.0258 10.7073 9.0258 10.5039 9.14584 10.3862C9.25612 10.2713 9.45713 10.2713 9.56971 10.3764L9.88912 10.7131L10.0892 10.4935L9.77952 10.1815C9.65948 10.0564 9.65717 9.87772 9.77952 9.76229C9.90471 9.63995 10.081 9.63995 10.1988 9.75999L10.513 10.0668L10.7326 9.86213L10.4109 9.53525C10.2908 9.42498 10.2908 9.23143 10.4109 9.12631C10.5332 9.00112 10.7245 9.00112 10.8324 9.12631L11.1444 9.4308L11.364 9.23076L11.0423 8.91135C10.9268 8.79877 10.9245 8.60522 11.0423 8.49264C11.1646 8.37721 11.3535 8.3749 11.4661 8.49264L12.5162 9.52549C12.6339 9.65299 12.6316 9.84654 12.5162 9.95912C12.4036 10.0769 12.2049 10.0769 12.0975 9.95681L11.7781 9.64486L11.5683 9.86213L11.8825 10.1764C12.0077 10.2844 12.0077 10.4779 11.8825 10.5979C11.7699 10.7105 11.5862 10.7082 11.4661 10.5956L11.1444 10.2762L10.9346 10.4935L11.2488 10.8003C11.3666 10.9255 11.354 11.1064 11.2488 11.2293C11.1237 11.3367 10.945 11.3419 10.8273 11.2293L10.513 10.9197L10.2935 11.1197L10.6226 11.4317C10.7375 11.5517 10.7375 11.7453 10.6226 11.863C10.4974 11.9756 10.3062 11.9779 10.1988 11.863L9.88912 11.5436L9.67185 11.7585L9.98611 12.0751C10.109 12.1854 10.109 12.3692 9.98611 12.4967ZM14.8775 7.05727C14.7018 6.5104 14.4984 6.30708 13.9516 6.1313C13.25 5.92501 12.488 5.88309 11.7013 5.99864L15.0102 9.30749C15.128 8.52084 15.0838 7.75142 14.8775 7.05727Z"
                     fill="currentColor" fill-opacity="0.85" />
       </g>
</svg>