<?xml version="1.0" encoding="UTF-8"?>
<!--Generator: Apple Native CoreSVG 326-->
<!DOCTYPE svg PUBLIC "-//W3C//DTD SVG 1.1//EN" "http://www.w3.org/Graphics/SVG/1.1/DTD/svg11.dtd">
<svg version="1.1" xmlns="http://www.w3.org/2000/svg" xmlns:xlink="http://www.w3.org/1999/xlink"
       viewBox="0 0 21.365 21.006">
       <g>
              <rect height="21.006" opacity="0" width="21.365" x="0" y="0" />
              <path d="M21.0037 10.4981C21.0037 16.2923 16.302 20.9962 10.4981 20.9962C4.70394 20.9962 0 16.2923 0 10.4981C0 4.70163 4.70394 0 10.4981 0C16.302 0 21.0037 4.70163 21.0037 10.4981ZM7.75209 7.73486C6.23642 9.24077 5.22892 11.9374 5.86544 14.1508C6.03376 14.7442 6.26923 14.9699 6.85286 15.1359C9.07372 15.7822 11.7727 14.7719 13.2711 13.2614C14.7943 11.7554 15.7994 9.0565 15.1606 6.83564C14.9946 6.24454 14.7614 6.01654 14.168 5.84076C11.9472 5.20423 9.25053 6.21919 7.75209 7.73486ZM11.5299 8.35944L12.6442 9.47381C12.774 9.60647 12.7717 9.80748 12.6442 9.93213C12.5265 10.0625 12.3255 10.0476 12.1882 9.92236L11.859 9.60064L11.6395 9.82768L11.9612 10.1592C12.0962 10.2844 12.0985 10.4756 11.9687 10.6129C11.8509 10.7381 11.6597 10.7185 11.5299 10.6031L11.1835 10.2739L10.9639 10.501L11.2856 10.825C11.4183 10.9599 11.4103 11.1558 11.2931 11.2862C11.1702 11.3936 10.9669 11.4113 10.8417 11.2787L10.5102 10.9593L10.2808 11.1542L10.6272 11.5057C10.7473 11.6332 10.7496 11.8342 10.6272 11.9617C10.5021 12.0892 10.2936 12.0892 10.1712 11.9594L9.85182 11.6251L9.62478 11.8498L9.9465 12.1813C10.0717 12.3111 10.0792 12.5024 9.95396 12.6373C9.82416 12.7499 9.63291 12.7499 9.50541 12.6276L8.37381 11.5057C8.25377 11.3903 8.24862 11.187 8.36635 11.0669C8.51108 10.9343 8.69256 10.9343 8.82236 11.0669L9.15385 11.3961L9.39581 11.1542L9.0494 10.8399C8.9196 10.7147 8.91444 10.5114 9.04194 10.3839C9.1769 10.2564 9.38768 10.2564 9.50541 10.3741L9.85182 10.7303L10.0542 10.4935L9.72729 10.1546C9.59233 10.0368 9.60495 9.85073 9.72729 9.71807C9.85764 9.58827 10.0437 9.58542 10.1712 9.71807L10.5027 10.0496L10.747 9.82768L10.3908 9.47381C10.2731 9.35838 10.2731 9.1476 10.3908 9.04248C10.5206 8.90006 10.7193 8.90752 10.8445 9.04248L11.176 9.37167L11.4203 9.1544L11.0739 8.81545C10.9464 8.68795 10.9412 8.4944 11.0664 8.3669C11.2037 8.23424 11.4024 8.23194 11.5299 8.35944Z"
                     fill="currentColor" fill-opacity="0.85" />
       </g>
</svg>