<?xml version="1.0" encoding="UTF-8"?>
<!--Generator: Apple Native CoreSVG 326-->
<!DOCTYPE svg PUBLIC "-//W3C//DTD SVG 1.1//EN" "http://www.w3.org/Graphics/SVG/1.1/DTD/svg11.dtd">
<svg version="1.1" xmlns="http://www.w3.org/2000/svg" xmlns:xlink="http://www.w3.org/1999/xlink"
       viewBox="0 0 21.365 21.006">
       <g>
              <rect height="21.006" opacity="0" width="21.365" x="0" y="0" />
              <path d="M10.4981 20.9962C16.302 20.9962 21.0037 16.2946 21.0037 10.4981C21.0037 4.70163 16.302 0 10.4981 0C4.70163 0 0 4.70163 0 10.4981C0 16.2946 4.70163 20.9962 10.4981 20.9962ZM10.4981 17.9484C6.37829 17.9484 3.04785 14.6179 3.04785 10.4981C3.04785 6.37829 6.37829 3.04785 10.4981 3.04785C14.6179 3.04785 17.9558 6.37829 17.9558 10.4981C17.9558 14.6179 14.6179 17.9484 10.4981 17.9484Z"
                     fill="currentColor" fill-opacity="0.85" />
              <path d="M7.91744 7.89736C6.4902 9.3246 5.54184 11.849 6.14392 13.9292C6.29501 14.4881 6.52302 14.6966 7.06989 14.8552C9.15755 15.4572 11.6865 14.506 13.0989 13.0914C14.5261 11.6716 15.4647 9.14493 14.8678 7.05727C14.7115 6.50809 14.4933 6.28985 13.9418 6.1313C11.8564 5.52923 9.32975 6.48504 7.91744 7.89736ZM11.4587 8.49264L12.5087 9.53295C12.6265 9.65814 12.6242 9.8517 12.5087 9.96658C12.3962 10.082 12.2026 10.0671 12.0849 9.95681L11.7729 9.65232L11.5608 9.86959L11.8653 10.1838C11.983 10.2941 11.9928 10.4756 11.8728 10.6054C11.755 10.7157 11.5712 10.7036 11.461 10.5956L11.1369 10.2837L10.9271 10.501L11.2339 10.8003C11.3494 10.9278 11.339 11.1139 11.2414 11.2368C11.1162 11.3367 10.9301 11.3471 10.8147 11.2293L10.5079 10.9271L10.286 11.1197L10.6077 11.4466C10.7203 11.5592 10.7301 11.7504 10.6077 11.8705C10.49 11.9882 10.2987 11.9882 10.1862 11.8681L9.88166 11.551L9.66439 11.766L9.96889 12.0803C10.0866 12.1928 10.1015 12.3766 9.97635 12.5041C9.85631 12.6069 9.67252 12.6069 9.56225 12.4944L8.50471 11.4466C8.38467 11.3386 8.37951 11.1525 8.49725 11.0325C8.63221 10.9073 8.80107 10.9073 8.92111 11.0325L9.23307 11.3444L9.4578 11.1197L9.13838 10.8152C9.01604 10.7049 9.01088 10.5114 9.13092 10.3914C9.25096 10.2713 9.44967 10.2713 9.56225 10.389L9.88166 10.7205L10.084 10.4935L9.77206 10.1792C9.64456 10.0615 9.64971 9.89264 9.77206 9.76745C9.89495 9.64741 10.0638 9.64225 10.1838 9.76745L10.4981 10.0817L10.7251 9.86959L10.396 9.54041C10.2834 9.42498 10.2834 9.23143 10.396 9.13377C10.5108 9.00112 10.6975 9.00858 10.8175 9.13377L11.1295 9.43827L11.3588 9.23822L11.0348 8.9165C10.9171 8.80623 10.9119 8.61268 11.0273 8.5001C11.1571 8.37721 11.3461 8.3749 11.4587 8.49264Z"
                     fill="currentColor" fill-opacity="0.85" />
       </g>
</svg>