<?xml version="1.0" encoding="UTF-8"?>
<!--Generator: Apple Native CoreSVG 326-->
<!DOCTYPE svg PUBLIC "-//W3C//DTD SVG 1.1//EN" "http://www.w3.org/Graphics/SVG/1.1/DTD/svg11.dtd">
<svg version="1.1" xmlns="http://www.w3.org/2000/svg" xmlns:xlink="http://www.w3.org/1999/xlink"
       viewBox="0 0 23.8776 21.7107">
       <g>
              <rect height="21.7107" opacity="0" width="23.8776" x="0" y="0" />
              <path d="M0 17.1746C0 19.4825 1.28937 20.7649 3.60697 20.7649L19.9093 20.7649C22.2292 20.7649 23.5162 19.4825 23.5162 17.1746L23.5162 7.43395C23.5162 5.12841 22.2292 3.84365 19.9093 3.84365L3.60697 3.84365C1.28937 3.84365 0 5.12841 0 7.43395ZM4.60853 10.2699C3.68716 10.2699 2.94673 9.53695 2.94673 8.62074C2.94673 7.69938 3.68716 6.96641 4.60853 6.96641C5.51958 6.96641 6.25024 7.69938 6.25024 8.62074C6.25024 9.53695 5.51958 10.2699 4.60853 10.2699ZM9.369 10.2699C8.46025 10.2699 7.71982 9.53695 7.71982 8.62074C7.71982 7.69938 8.46025 6.96641 9.369 6.96641C10.2829 6.96641 11.0233 7.69938 11.0233 8.62074C11.0233 9.53695 10.2829 10.2699 9.369 10.2699ZM14.3263 10.2699C13.4049 10.2699 12.672 9.53695 12.672 8.62074C12.672 7.69938 13.4049 6.96641 14.3263 6.96641C15.2373 6.96641 15.9755 7.69938 15.9755 8.62074C15.9755 9.53695 15.2373 10.2699 14.3263 10.2699ZM19.2584 10.2699C18.3496 10.2699 17.6166 9.53695 17.6166 8.62074C17.6166 7.69938 18.3496 6.96641 19.2584 6.96641C20.1797 6.96641 20.9225 7.69938 20.9225 8.62074C20.9225 9.53695 20.1797 10.2699 19.2584 10.2699ZM3.01964 17.1711L3.01964 12.6581L20.4966 12.6581L20.4966 17.1711C20.4966 17.7219 20.2051 18.0087 19.6734 18.0087L3.85033 18.0087C3.3111 18.0087 3.01964 17.7219 3.01964 17.1711ZM5.45413 4.58972L8.06629 4.58972L8.06629 2.761C8.06629 2.41326 8.3077 2.21607 8.70481 2.21607L14.8137 2.21607C15.2206 2.21607 15.4523 2.41326 15.4523 2.761L15.4523 4.58972L18.0644 4.58972L18.0644 2.69319C18.0644 0.948904 16.9898 0 15.0084 0L8.51017 0C6.52878 0 5.45413 0.948904 5.45413 2.69319Z"
                     fill="currentColor" fill-opacity="0.85" />
       </g>
</svg>