<?xml version="1.0" encoding="UTF-8"?>
<!--Generator: Apple Native CoreSVG 326-->
<!DOCTYPE svg PUBLIC "-//W3C//DTD SVG 1.1//EN" "http://www.w3.org/Graphics/SVG/1.1/DTD/svg11.dtd">
<svg version="1.1" xmlns="http://www.w3.org/2000/svg" xmlns:xlink="http://www.w3.org/1999/xlink"
       viewBox="0 0 23.5334 19.0575">
       <g>
              <rect height="19.0575" opacity="0" width="23.5334" x="0" y="0" />
              <path d="M0 7.42357C0 9.99018 0.783676 12.4085 2.36747 14.0395C3.00715 14.6884 3.76292 14.6138 4.18733 14.0809C4.5819 13.595 4.46186 13.0017 4.02823 12.5193C2.87631 11.2433 2.23342 9.41127 2.23342 7.42357C2.23342 5.44334 2.86139 3.6188 4.02823 2.34278C4.46932 1.86032 4.59682 1.26705 4.18733 0.781191C3.75546 0.255727 2.99222 0.158738 2.36747 0.822558C0.888126 2.38639 0 4.87936 0 7.42357ZM18.9847 14.0809C19.4092 14.6138 20.1649 14.6884 20.8046 14.0395C22.3884 12.4085 23.1721 9.99018 23.1721 7.42357C23.1721 4.87936 22.2839 2.38639 20.8046 0.822558C20.1799 0.158738 19.4166 0.255727 18.9847 0.781191C18.5753 1.26705 18.7028 1.86032 19.1438 2.34278C20.3107 3.6188 20.9387 5.44334 20.9387 7.42357C20.9387 9.41127 20.2958 11.2433 19.1438 12.5193C18.7102 13.0017 18.5902 13.595 18.9847 14.0809Z"
                     fill="currentColor" fill-opacity="0.85" />
              <path d="M4.4396 7.42357C4.4396 8.91135 4.86073 10.3089 5.66558 11.192C6.2312 11.7979 7.06334 11.7732 7.46767 11.238C7.82494 10.7596 7.7129 10.1859 7.35564 9.69132C6.97114 9.1701 6.67302 8.22284 6.67302 7.42357C6.67302 6.62431 6.97806 5.69142 7.35564 5.15583C7.70314 4.65153 7.82494 4.08755 7.46767 3.61662C7.06334 3.08139 6.2312 3.04178 5.66558 3.65514C4.86073 4.53823 4.4396 5.9358 4.4396 7.42357ZM15.7044 11.238C16.1087 11.7732 16.9409 11.7979 17.5065 11.192C18.3113 10.3089 18.7325 8.91135 18.7325 7.42357C18.7325 5.9358 18.3113 4.53823 17.5065 3.65514C16.9409 3.04178 16.1087 3.08139 15.7044 3.61662C15.3471 4.08755 15.4689 4.65153 15.8164 5.15583C16.194 5.69142 16.4991 6.62431 16.4991 7.42357C16.4991 8.22284 16.2009 9.1701 15.8164 9.69132C15.4592 10.1859 15.3471 10.7596 15.7044 11.238Z"
                     fill="currentColor" fill-opacity="0.85" />
              <path d="M9.28475 7.42357C9.28475 8.27591 9.74482 9.01568 10.4398 9.41595L10.4398 17.7551C10.4398 18.5217 10.9141 19.0575 11.5947 19.0575C12.3073 19.0575 12.7546 18.5464 12.7546 17.7551L12.7546 9.41595C13.4399 9.01568 13.9023 8.27361 13.9023 7.42357C13.9023 6.14858 12.8696 5.11136 11.5947 5.11136C10.3174 5.11136 9.28475 6.14858 9.28475 7.42357Z"
                     fill="currentColor" fill-opacity="0.85" />
       </g>
</svg>