<?xml version="1.0" encoding="UTF-8"?>
<!--Generator: Apple Native CoreSVG 326-->
<!DOCTYPE svg PUBLIC "-//W3C//DTD SVG 1.1//EN" "http://www.w3.org/Graphics/SVG/1.1/DTD/svg11.dtd">
<svg version="1.1" xmlns="http://www.w3.org/2000/svg" xmlns:xlink="http://www.w3.org/1999/xlink"
       viewBox="0 0 19.2346 18.883">
       <g>
              <rect height="18.883" opacity="0" width="19.2346" x="0" y="0" />
              <path d="M17.5442 1.33886C16.5108 0.312925 15.1567 0 13.0243 0L5.84209 0C3.72398 0 2.36249 0.312925 1.3291 1.33886C0.303159 2.3648 0 3.7016 0 5.84209L0 13.0243C0 15.1717 0.303159 16.5085 1.3291 17.5344C2.36995 18.5603 3.72398 18.8733 5.8467 18.8733L13.0243 18.8733C15.1567 18.8733 16.5182 18.5603 17.5442 17.5344C18.5701 16.501 18.8733 15.1717 18.8733 13.0243L18.8733 5.8467C18.8733 3.69929 18.5701 2.35734 17.5442 1.33886Z"
                     fill="currentColor" fill-opacity="0.85" />
       </g>
</svg>