<?xml version="1.0" encoding="UTF-8"?>
<!--Generator: Apple Native CoreSVG 326-->
<!DOCTYPE svg PUBLIC "-//W3C//DTD SVG 1.1//EN" "http://www.w3.org/Graphics/SVG/1.1/DTD/svg11.dtd">
<svg version="1.1" xmlns="http://www.w3.org/2000/svg" xmlns:xlink="http://www.w3.org/1999/xlink"
       viewBox="0 0 19.2346 18.883">
       <g>
              <rect height="18.883" opacity="0" width="19.2346" x="0" y="0" />
              <path d="M0 8.74133L4.65032 8.74133C3.76984 8.14047 3.21229 7.2057 3.21229 6.1037C3.21229 4.67725 4.32787 3.53182 5.85416 3.53182C6.9837 3.53182 7.91683 4.14093 8.52582 5.13047L8.52582 0L10.3572 0L10.3572 5.13047C10.9587 4.14093 11.8919 3.53182 13.0191 3.53182C14.5551 3.53182 15.661 4.67725 15.661 6.1037C15.661 7.2057 15.1109 8.14047 14.2327 8.74133L18.8733 8.74133L18.8733 10.4504L11.5048 10.4504C12.0431 11.4094 13.4109 12.5458 14.5578 12.8214C15.2912 13.0195 15.6909 13.4186 15.6909 14.0556C15.6909 14.7235 15.193 15.4068 14.2914 15.2466C12.8144 14.9824 11.1166 13.5952 10.4181 11.74L10.3572 11.74L10.3572 18.8733L8.52582 18.8733L8.52582 11.74L8.45515 11.74C7.7641 13.5952 6.05888 14.9824 4.59161 15.2466C3.69001 15.4068 3.19209 14.7235 3.19209 14.0556C3.19209 13.4186 3.59181 13.0218 4.3229 12.8214C5.46232 12.5412 6.83011 11.4094 7.36844 10.4504L0 10.4504ZM8.1523 8.70675L8.35289 8.70675L8.35289 8.47863C8.35289 6.96853 7.32834 5.57059 6.15611 5.57059C5.58321 5.57059 5.21661 5.90451 5.21661 6.48947C5.21661 7.53178 6.55662 8.70675 8.1523 8.70675ZM10.721 8.70675C12.3189 8.70675 13.6566 7.53178 13.6566 6.48947C13.6566 5.90451 13.29 5.57059 12.7171 5.57059C11.5472 5.57059 10.5278 6.96853 10.5278 8.47863L10.5278 8.70675ZM17.5442 1.33886C16.5108 0.312925 15.1567 0 13.0243 0L5.84209 0C3.72398 0 2.36249 0.312925 1.3291 1.33886C0.303159 2.3648 0 3.7016 0 5.84209L0 13.0243C0 15.1717 0.303159 16.5085 1.3291 17.5344C2.36995 18.5603 3.72398 18.8733 5.8467 18.8733L13.0243 18.8733C15.1567 18.8733 16.5182 18.5603 17.5442 17.5344C18.5701 16.501 18.8733 15.1717 18.8733 13.0243L18.8733 5.8467C18.8733 3.69929 18.5701 2.35734 17.5442 1.33886Z"
                     fill="currentColor" fill-opacity="0.85" />
       </g>
</svg>