<?xml version="1.0" encoding="UTF-8"?>
<!--Generator: Apple Native CoreSVG 326-->
<!DOCTYPE svg PUBLIC "-//W3C//DTD SVG 1.1//EN" "http://www.w3.org/Graphics/SVG/1.1/DTD/svg11.dtd">
<svg version="1.1" xmlns="http://www.w3.org/2000/svg" xmlns:xlink="http://www.w3.org/1999/xlink"
       viewBox="0 0 19.2346 18.883">
       <g>
              <rect height="18.883" opacity="0" width="19.2346" x="0" y="0" />
              <path d="M0.790228 8.83898L0.790228 10.393L7.55277 10.393C7.05867 11.2687 5.80291 12.3178 4.75883 12.5613C4.08919 12.7369 3.72392 13.1091 3.72392 13.6921C3.72392 14.2911 4.17763 14.9153 4.99309 14.77C6.35009 14.5282 7.90937 13.2674 8.54128 11.5592L8.60964 11.5592L8.60964 18.156L10.2688 18.156L10.2688 11.5592L10.332 11.5592C10.969 13.2674 12.5306 14.5282 13.8779 14.77C14.7031 14.9153 15.1568 14.2911 15.1568 13.6921C15.1568 13.1091 14.7841 12.7369 14.1196 12.5613C13.0703 12.3178 11.8123 11.2687 11.3205 10.393L18.0882 10.393L18.0882 8.83898L13.8054 8.83898C14.6204 8.28234 15.1291 7.4257 15.1291 6.42651C15.1291 5.11033 14.1141 4.06541 12.7153 4.06541C11.6811 4.06541 10.8238 4.628 10.2688 5.54457L10.2688 1.14179L8.60964 1.14179L8.60964 5.54457C8.04718 4.628 7.18987 4.06541 6.15568 4.06541C4.76435 4.06541 3.74181 5.11033 3.74181 6.42651C3.74181 7.4257 4.2603 8.28234 5.06551 8.83898ZM8.26772 8.78488C6.80646 8.78488 5.58133 7.70526 5.58133 6.7583C5.58133 6.21986 5.91118 5.91009 6.43525 5.91009C7.50752 5.91009 8.44878 7.19314 8.44878 8.57859L8.44878 8.78488ZM10.6107 8.78488L10.4222 8.78488L10.4222 8.57859C10.4222 7.19314 11.3634 5.91009 12.4432 5.91009C12.9695 5.91009 13.2971 6.21986 13.2971 6.7583C13.2971 7.70526 12.0743 8.78488 10.6107 8.78488ZM17.5442 1.33886C16.5108 0.312925 15.1567 0 13.0243 0L5.84209 0C3.72398 0 2.36249 0.312925 1.3291 1.33886C0.303159 2.3648 0 3.7016 0 5.84209L0 13.0243C0 15.1717 0.303159 16.5085 1.3291 17.5344C2.36995 18.5603 3.72398 18.8733 5.8467 18.8733L13.0243 18.8733C15.1567 18.8733 16.5182 18.5603 17.5442 17.5344C18.5701 16.501 18.8733 15.1717 18.8733 13.0243L18.8733 5.8467C18.8733 3.69929 18.5701 2.35734 17.5442 1.33886ZM15.8536 5.57557L15.8536 13.2977C15.8536 14.3409 15.7192 14.9232 15.3249 15.3152C14.933 15.702 14.3409 15.8536 13.3051 15.8536L5.57557 15.8536C4.53986 15.8536 3.94028 15.702 3.54602 15.3152C3.16152 14.9232 3.01964 14.3409 3.01964 13.2977L3.01964 5.58248C3.01964 4.52494 3.16152 3.95005 3.54602 3.55578C3.94028 3.17128 4.54217 3.01964 5.58248 3.01964L13.3051 3.01964C14.3409 3.01964 14.933 3.17128 15.3249 3.55809C15.7192 3.95005 15.8536 4.52494 15.8536 5.57557Z"
                     fill="currentColor" fill-opacity="0.85" />
       </g>
</svg>