<?xml version="1.0" encoding="UTF-8"?>
<!--Generator: Apple Native CoreSVG 326-->
<!DOCTYPE svg PUBLIC "-//W3C//DTD SVG 1.1//EN" "http://www.w3.org/Graphics/SVG/1.1/DTD/svg11.dtd">
<svg version="1.1" xmlns="http://www.w3.org/2000/svg" xmlns:xlink="http://www.w3.org/1999/xlink"
       viewBox="0 0 19.0378 18.6886">
       <g>
              <rect height="18.6886" opacity="0" width="19.0378" x="0" y="0" />
              <path d="M1.56292 1.548C0.773122 2.34527 0.176327 3.52569 0.13957 4.41152C0.129804 4.9226 0.459409 5.29127 0.945811 5.29127C1.39545 5.29127 1.69522 5.04319 1.78365 4.59354C1.95998 3.81569 2.23342 3.25147 2.74014 2.73268C3.33475 2.18229 3.83807 1.98697 4.67968 1.75666C5.08741 1.651 5.34295 1.34608 5.34295 0.965342C5.34295 0.488706 4.99151 0.13957 4.49019 0.13957C3.58089 0.141875 2.37402 0.751832 1.56292 1.548ZM11.7373 0L6.93924 0C6.48213 0 6.08878 0.388199 6.08878 0.845304C6.08878 1.30241 6.48213 1.69807 6.93924 1.69807L11.7373 1.69807C12.1944 1.69807 12.5877 1.30241 12.5877 0.845304C12.5877 0.388199 12.1944 0 11.7373 0ZM17.1113 1.548C16.3174 0.766754 15.118 0.141875 14.1863 0.13957C13.6827 0.13957 13.3335 0.488706 13.3335 0.965342C13.3335 1.34608 13.5868 1.651 13.9945 1.75666C14.7919 1.96975 15.3171 2.16506 15.9363 2.73268C16.4431 3.25147 16.7142 3.81569 16.8928 4.59354C16.9813 5.04319 17.2787 5.29127 17.7307 5.29127C18.2148 5.29127 18.5467 4.9226 18.5369 4.41152C18.5002 3.52569 17.9034 2.34527 17.1113 1.548ZM18.6765 11.7642L18.6765 6.949C18.6765 6.4919 18.2808 6.09854 17.8237 6.09854C17.3666 6.09854 16.9807 6.4919 16.9807 6.949L16.9807 11.7642C16.9807 12.2288 17.3592 12.6095 17.8237 12.6095C18.2808 12.6095 18.6765 12.2213 18.6765 11.7642ZM17.1113 17.1308C17.9034 16.3335 18.5002 15.1531 18.5369 14.2673C18.5467 13.7464 18.2148 13.3801 17.7307 13.3801C17.2787 13.3801 16.9813 13.6333 16.8928 14.0852C16.7142 14.8631 16.4431 15.4176 15.9363 15.9461C15.3194 16.5091 14.851 16.6918 13.9945 16.9124C13.5868 17.0255 13.3335 17.3253 13.3335 17.7135C13.3335 18.1901 13.6827 18.5369 14.1863 18.5369C15.0956 18.5369 16.3025 17.927 17.1113 17.1308ZM6.93924 18.6765L11.7373 18.6765C12.1944 18.6765 12.5877 18.2831 12.5877 17.826C12.5877 17.3689 12.1944 16.9807 11.7373 16.9807L6.93924 16.9807C6.48213 16.9807 6.08878 17.3689 6.08878 17.826C6.08878 18.2831 6.48213 18.6765 6.93924 18.6765ZM1.56292 17.1308C2.3591 17.912 3.55851 18.5369 4.49019 18.5369C4.99151 18.5369 5.34295 18.1901 5.34295 17.7135C5.34295 17.3253 5.08741 17.0255 4.67968 16.9124C3.88975 16.7165 3.35198 16.504 2.74014 15.9461C2.23342 15.4176 1.95998 14.8631 1.78365 14.0852C1.69522 13.6333 1.39545 13.3801 0.945811 13.3801C0.459409 13.3801 0.129804 13.7464 0.13957 14.2673C0.176327 15.1531 0.773122 16.3335 1.56292 17.1308ZM0 6.949L0 11.7642C0 12.2213 0.393355 12.6095 0.852764 12.6095C1.31733 12.6095 1.69576 12.2288 1.69576 11.7642L1.69576 6.949C1.69576 6.4919 1.30987 6.09854 0.852764 6.09854C0.393355 6.09854 0 6.4919 0 6.949Z"
                     fill="currentColor" fill-opacity="0.85" />
              <path d="M6.73701 16.124L11.9395 16.124C13.4787 16.124 14.4346 15.9023 15.1797 15.167C15.9121 14.4346 16.1291 13.4861 16.1291 11.9395L16.1291 6.73701C16.1291 5.19034 15.9121 4.23671 15.1797 3.50659C14.4346 2.77647 13.4787 2.54737 11.9395 2.54737L6.7324 2.54737C5.1978 2.54737 4.2344 2.77647 3.49682 3.50659C2.76671 4.24417 2.54737 5.19264 2.54737 6.7324L2.54737 11.9395C2.54737 13.4861 2.76671 14.4346 3.49682 15.167C4.24186 15.9023 5.1978 16.124 6.73701 16.124Z"
                     fill="currentColor" fill-opacity="0.85" />
       </g>
</svg>