<?xml version="1.0" encoding="UTF-8"?>
<!--Generator: Apple Native CoreSVG 326-->
<!DOCTYPE svg PUBLIC "-//W3C//DTD SVG 1.1//EN" "http://www.w3.org/Graphics/SVG/1.1/DTD/svg11.dtd">
<svg version="1.1" xmlns="http://www.w3.org/2000/svg" xmlns:xlink="http://www.w3.org/1999/xlink"
       viewBox="0 0 16.8454 23.2509">
       <g>
              <rect height="23.2509" opacity="0" width="16.8454" x="0" y="0" />
              <path d="M0.700699 15.9636C0.700699 17.5071 1.26656 18.6278 2.43722 19.39C3.02656 19.7627 3.39128 20.1763 3.6239 20.7709L4.21244 22.1963C4.48006 22.8735 5.06873 23.2434 5.84239 23.2434L10.6003 23.2434C11.3861 23.2434 11.9603 22.8758 12.228 22.1963L12.8188 20.7709C13.0514 20.1763 13.4236 19.7627 14.0055 19.39C15.1687 18.6278 15.742 17.5146 15.742 15.9636L15.742 7.27982C15.742 5.72885 15.1687 4.61787 14.0055 3.85342C13.4236 3.48069 13.0514 3.05967 12.8188 2.47483L12.228 1.04711C11.9724 0.372186 11.3837 0 10.6003 0L5.84239 0C5.06873 0 4.48006 0.369881 4.21244 1.04711L3.6239 2.47483C3.3712 3.08721 2.99156 3.5203 2.43722 3.85342C1.26886 4.60349 0.700699 5.72424 0.700699 7.27982ZM3.28289 15.3332L3.28289 7.91246C3.28289 6.57676 4.02059 5.8023 5.30462 5.8023L11.1456 5.8023C12.4221 5.8023 13.1747 6.58422 13.1747 7.91246L13.1747 15.3332C13.1747 16.6592 12.4221 17.4336 11.1456 17.4336L5.30462 17.4336C4.02059 17.4336 3.28289 16.6666 3.28289 15.3332ZM15.0795 11.0787L15.6624 11.0787C16.3567 11.0787 16.8454 10.5802 16.8454 9.83708L16.8454 8.44411C16.8454 7.71588 16.3567 7.20994 15.6624 7.20994L15.0795 7.20994Z"
                     fill="currentColor" fill-opacity="0.85" />
              <path d="M5.30923 9.43833C4.94802 9.84606 4.99454 10.4898 5.42696 10.8459L7.26478 12.3912C7.80407 12.8398 8.39844 12.8398 8.89582 12.3912L12.028 9.65894C12.4581 9.28796 12.473 8.6293 12.0601 8.22903C11.6943 7.85806 11.0999 7.85059 10.6847 8.21411L8.06938 10.4715L6.70468 9.32059C6.29695 8.97146 5.69512 9.02314 5.30923 9.43833Z"
                     fill="currentColor" fill-opacity="0.85" />
       </g>
</svg>