<?xml version="1.0" encoding="UTF-8"?>
<!--Generator: Apple Native CoreSVG 326-->
<!DOCTYPE svg PUBLIC "-//W3C//DTD SVG 1.1//EN" "http://www.w3.org/Graphics/SVG/1.1/DTD/svg11.dtd">
<svg version="1.1" xmlns="http://www.w3.org/2000/svg" xmlns:xlink="http://www.w3.org/1999/xlink"
       viewBox="0 0 12.1301 23.2275">
       <g>
              <rect height="23.2275" opacity="0" width="12.1301" x="0" y="0" />
              <path d="M0 20.2686C0 22.1023 1.1578 23.2062 3.08454 23.2062L8.69171 23.2062C10.6087 23.2062 11.7688 22.1023 11.7688 20.2686L11.7688 2.94497C11.7688 1.11359 10.6087 0 8.69171 0L3.08454 0C1.1578 0 0 1.11359 0 2.94497ZM3.97134 14.2674C3.19306 14.2674 2.57158 13.6385 2.57158 12.8699C2.57158 12.0917 3.19306 11.465 3.97134 11.465C4.74961 11.465 5.37395 12.0917 5.37395 12.8699C5.37395 13.6385 4.74961 14.2674 3.97134 14.2674ZM7.81699 14.2674C7.03641 14.2674 6.40977 13.6385 6.40977 12.8699C6.40977 12.0917 7.03641 11.465 7.81699 11.465C8.5855 11.465 9.21214 12.0917 9.21214 12.8699C9.21214 13.6385 8.5855 14.2674 7.81699 14.2674ZM5.88813 9.88676C3.94841 9.88676 2.3315 8.28938 2.3315 6.33013C2.3315 4.37834 3.94841 2.78096 5.88813 2.78096C7.83762 2.78096 9.45222 4.37834 9.45222 6.33013C9.45222 8.28938 7.83762 9.88676 5.88813 9.88676ZM5.89043 7.77356C6.69285 7.77356 7.33617 7.13255 7.33617 6.33013C7.33617 5.53517 6.69285 4.89931 5.89043 4.89931C5.09548 4.89931 4.44985 5.53517 4.44985 6.33013C4.44985 7.13255 5.09548 7.77356 5.89043 7.77356Z"
                     fill="currentColor" fill-opacity="0.85" />
       </g>
</svg>