<?xml version="1.0" encoding="UTF-8"?>
<!--Generator: Apple Native CoreSVG 326-->
<!DOCTYPE svg PUBLIC "-//W3C//DTD SVG 1.1//EN" "http://www.w3.org/Graphics/SVG/1.1/DTD/svg11.dtd">
<svg version="1.1" xmlns="http://www.w3.org/2000/svg" xmlns:xlink="http://www.w3.org/1999/xlink"
       viewBox="0 0 36.8068 23.2463">
       <g>
              <rect height="23.2463" opacity="0" width="36.8068" x="0" y="0" />
              <path d="M4.18733 18.2756C4.5819 17.7897 4.46186 17.189 4.02823 16.7065C2.87631 15.4379 2.23342 13.6059 2.23342 11.6182C2.23342 9.63801 2.86885 7.79855 4.02823 6.53745C4.46932 6.05499 4.59682 5.45426 4.18733 4.9684C3.75546 4.44809 2.99222 4.35341 2.36747 5.00977C0.888126 6.58106 0 9.06657 0 11.6182C0 14.1848 0.783676 16.6009 2.36747 18.2342C3.00715 18.8831 3.76292 18.801 4.18733 18.2756ZM32.2582 18.2756C32.6826 18.801 33.4384 18.8831 34.0803 18.2342C35.6716 16.6009 36.4455 14.1848 36.4455 11.6182C36.4455 9.06657 35.5671 6.58106 34.0803 5.00977C33.4607 4.35341 32.6975 4.44809 32.2582 4.9684C31.8561 5.45426 31.9762 6.05499 32.4173 6.53745C33.5841 7.80601 34.2121 9.63801 34.2121 11.6182C34.2121 13.6059 33.5692 15.4379 32.4173 16.7065C31.9911 17.189 31.8636 17.7897 32.2582 18.2756Z"
                     fill="currentColor" fill-opacity="0.425" />
              <path d="M7.40665 15.4252C7.76392 14.9543 7.65189 14.3805 7.29462 13.8785C6.90266 13.355 6.612 12.4175 6.612 11.6182C6.612 10.819 6.90266 9.87172 7.29462 9.34304C7.64442 8.84851 7.76392 8.28222 7.40665 7.80383C6.99486 7.2686 6.17018 7.23876 5.5971 7.84235C4.79971 8.7329 4.37858 10.1305 4.37858 11.6182C4.37858 13.106 4.79971 14.5036 5.5971 15.3792C6.17018 15.9903 6.99486 15.9581 7.40665 15.4252ZM29.0389 15.4252C29.4506 15.9581 30.2753 15.9903 30.8484 15.3792C31.6533 14.5036 32.0692 13.106 32.0692 11.6182C32.0692 10.1305 31.6533 8.7329 30.8484 7.84235C30.2753 7.23876 29.4506 7.2686 29.0389 7.80383C28.6816 8.28222 28.8034 8.84851 29.1509 9.34304C29.5428 9.87172 29.8358 10.819 29.8358 11.6182C29.8358 12.4175 29.5428 13.355 29.1509 13.8785C28.7959 14.3805 28.6816 14.9543 29.0389 15.4252Z"
                     fill="currentColor" fill-opacity="0.425" />
              <path d="M13.0109 15.3332L13.0109 7.91246C13.0109 6.57676 13.7486 5.8023 15.0326 5.8023L20.8758 5.8023C22.1575 5.8023 22.9027 6.58422 22.9027 7.91246L22.9027 15.3332C22.9027 16.6592 22.1575 17.4336 20.8758 17.4336L15.0326 17.4336C13.7486 17.4336 13.0109 16.6666 13.0109 15.3332Z"
                     fill="currentColor" fill-opacity="0.2125" />
              <path d="M10.4287 15.9636C10.4287 17.5071 10.9945 18.6278 12.1675 19.39C12.7545 19.7627 13.1192 20.1837 13.3542 20.7709L13.9427 22.1963C14.208 22.8735 14.7967 23.2434 15.5704 23.2434L20.3283 23.2434C21.1163 23.2434 21.6883 22.8758 21.9582 22.1963L22.5468 20.7709C22.7892 20.1837 23.1516 19.7627 23.7334 19.39C24.9041 18.6278 25.4774 17.5146 25.4774 15.9636L25.4774 7.27982C25.4774 5.72885 24.9041 4.61787 23.7334 3.85342C23.1516 3.48069 22.7892 3.05967 22.5468 2.47483L21.9582 1.04711C21.7004 0.372186 21.114 0 20.3283 0L15.5704 0C14.7967 0 14.208 0.369881 13.9427 1.04711L13.3542 2.47483C13.0992 3.08721 12.7195 3.5203 12.1675 3.85342C10.9968 4.60349 10.4287 5.7317 10.4287 7.27982ZM13.0109 15.3332L13.0109 7.91246C13.0109 6.57676 13.7486 5.8023 15.0326 5.8023L20.8758 5.8023C22.1575 5.8023 22.9027 6.58422 22.9027 7.91246L22.9027 15.3332C22.9027 16.6592 22.1575 17.4336 20.8758 17.4336L15.0326 17.4336C13.7486 17.4336 13.0109 16.6666 13.0109 15.3332ZM24.8075 11.0787L25.3926 11.0787C26.0921 11.0787 26.5734 10.5877 26.5734 9.83708L26.5734 8.44411C26.5734 7.71588 26.0921 7.20994 25.3926 7.20994L24.8075 7.20994Z"
                     fill="currentColor" fill-opacity="0.85" />
       </g>
</svg>