<?xml version="1.0" encoding="UTF-8"?>
<!--Generator: Apple Native CoreSVG 326-->
<!DOCTYPE svg PUBLIC "-//W3C//DTD SVG 1.1//EN" "http://www.w3.org/Graphics/SVG/1.1/DTD/svg11.dtd">
<svg version="1.1" xmlns="http://www.w3.org/2000/svg" xmlns:xlink="http://www.w3.org/1999/xlink"
       viewBox="0 0 18.512 25.5061">
       <g>
              <rect height="25.5061" opacity="0" width="18.512" x="0" y="0" />
              <path d="M0.000225726 11.0535C-0.0118448 12.2505 0.460302 13.3522 1.38792 14.2723L5.1091 18.0033C3.72269 19.0121 3.0764 20.154 3.0764 21.5809C3.0764 23.8239 4.82202 25.4475 7.00618 25.4842C8.13196 25.5038 9.16985 25.0954 9.92222 24.3556L16.8386 17.4048C18.6887 15.5472 18.5789 13.2378 16.5433 11.197L13.087 7.74815L13.9922 6.84067C14.7607 6.0647 15.211 5.04865 15.2162 4.04236C15.2455 1.77019 13.4873 0.00230491 11.2031 0C9.96244 0 8.95846 0.465232 7.90389 1.50949L1.14038 8.24601C0.413779 8.98522 0.00999135 9.97659 0.000225726 11.0535ZM5.81654 7.57952L9.89523 3.50083C10.4279 2.96075 10.7181 2.8182 11.2031 2.8182C11.8721 2.8182 12.3951 3.34118 12.3951 4.00791C12.3951 4.32799 12.2824 4.56546 11.9934 4.84933L7.52407 9.3238C7.23122 8.49719 6.66445 7.91089 5.81654 7.57952ZM2.85464 11.1231C2.85464 10.4454 3.34656 9.93735 3.9863 9.93735C4.64272 9.93735 5.14616 10.4575 5.14616 11.1467C5.14616 11.4625 5.1387 11.6115 5.06737 11.8564C4.69695 13.5422 6.80469 14.0253 7.63167 13.2086L11.0859 9.74179L14.5445 13.1958C15.5046 14.1335 15.5678 14.6905 14.8473 15.406L10.4894 19.7713C10.2236 19.2368 9.78981 18.7162 9.10191 18.0134L3.74804 12.6302C3.03164 11.9213 2.85464 11.6115 2.85464 11.1231ZM5.90206 21.6091C5.90206 21.0297 6.26242 20.5602 7.13951 20.0187L7.28217 20.1614C7.97007 20.8665 8.17636 21.2015 8.17866 21.6165C8.19359 22.2119 7.69869 22.6488 7.01364 22.6488C6.38895 22.6488 5.90206 22.2281 5.90206 21.6091Z"
                     fill="currentColor" fill-opacity="0.85" />
       </g>
</svg>