<?xml version="1.0" encoding="UTF-8"?>
<!--Generator: Apple Native CoreSVG 326-->
<!DOCTYPE svg PUBLIC "-//W3C//DTD SVG 1.1//EN" "http://www.w3.org/Graphics/SVG/1.1/DTD/svg11.dtd">
<svg version="1.1" xmlns="http://www.w3.org/2000/svg" xmlns:xlink="http://www.w3.org/1999/xlink"
       viewBox="0 0 21.918 27.9042">
       <g>
              <rect height="27.9042" opacity="0" width="21.918" x="0" y="0" />
              <path d="M15.5604 3.1787C15.4957 3.17155 15.4283 3.17007 15.3602 3.17007L6.19881 3.17007C6.1274 3.17007 6.05674 3.1717 5.98884 3.17912C6.02258 2.2236 6.62806 1.65894 7.60858 1.65894L13.9481 1.65894C14.9285 1.65894 15.5269 2.22344 15.5604 3.1787Z"
                     fill="currentColor" fill-opacity="0.85" />
              <path d="M17.4705 6.45324C17.09 6.38273 16.6859 6.34748 16.2615 6.34748L5.29521 6.34748C4.87081 6.34748 4.4667 6.38268 4.0862 6.45312C4.19582 5.32954 4.96698 4.65487 6.17345 4.65487L15.3855 4.65487C16.5921 4.65487 17.3613 5.32959 17.4705 6.45324Z"
                     fill="currentColor" fill-opacity="0.85" />
              <path d="M5.29521 26.2647L16.2615 26.2647C18.586 26.2647 19.9098 24.9432 19.9098 22.6256L19.9098 11.6335C19.9098 9.31586 18.586 7.99435 16.2615 7.99435L5.29521 7.99435C2.96323 7.99435 1.64687 9.31356 1.64687 11.6335L1.64687 22.6256C1.64687 24.9432 2.96323 26.2647 5.29521 26.2647ZM5.70501 23.2376C5.01941 23.2376 4.66652 22.9267 4.66652 22.1945L4.66652 12.0622C4.66652 11.325 5.01941 11.014 5.70501 11.014L15.854 11.014C16.535 11.014 16.8902 11.325 16.8902 12.0622L16.8902 22.1945C16.8902 22.9267 16.535 23.2376 15.854 23.2376Z"
                     fill="currentColor" fill-opacity="0.85" />
              <path d="M10.618 20.3745C10.946 20.3745 11.2051 20.0856 11.2051 19.7628L11.2051 17.9621C13.9523 17.7198 15.7097 15.8084 15.7051 12.9699C15.7051 12.5954 15.4604 12.3582 15.079 12.3582C12.9608 12.3513 11.3327 13.4446 10.5371 15.2682C9.79541 14.0989 8.4981 13.4457 7.00735 13.4457C6.67193 13.4457 6.50075 13.6685 6.51798 14.0338C6.61442 15.3161 7.28322 17.6589 10.0063 17.9621L10.0063 19.7628C10.0063 20.0856 10.2826 20.3745 10.618 20.3745ZM9.87596 16.7014C8.85184 16.5061 8.16352 15.8244 7.86485 14.792C8.8186 15.0149 9.5933 15.6698 9.87596 16.7014ZM11.367 16.7261C11.7473 15.0626 12.8212 13.9416 14.4346 13.666C14.2238 15.2921 13.0563 16.4498 11.367 16.7261ZM6.3567 21.8102C6.68236 21.8102 6.96841 21.5339 6.96841 21.2059C6.96841 20.8751 6.68236 20.5913 6.3567 20.5913C6.02127 20.5913 5.74728 20.8751 5.74728 21.2059C5.74728 21.5339 6.02127 21.8102 6.3567 21.8102ZM7.67045 21.0105C7.99841 21.0105 8.2747 20.7164 8.2747 20.4011C8.2747 20.0754 7.99841 19.7893 7.67045 19.7893C7.32525 19.7893 7.05588 20.0754 7.05588 20.4011C7.05588 20.7141 7.32756 21.0105 7.67045 21.0105ZM9.11982 20.5273C9.44033 20.5273 9.71201 20.2488 9.71201 19.9329C9.71201 19.5877 9.43802 19.3234 9.11982 19.3234C8.77693 19.3234 8.49318 19.5877 8.49318 19.9329C8.49318 20.2488 8.77693 20.5273 9.11982 20.5273ZM12.0938 20.5273C12.4293 20.5273 12.7056 20.2488 12.7056 19.9329C12.7056 19.5877 12.4293 19.3234 12.0938 19.3234C11.7584 19.3234 11.477 19.5877 11.477 19.9329C11.477 20.2488 11.7584 20.5273 12.0938 20.5273ZM13.526 21.0105C13.8517 21.0105 14.1429 20.7141 14.1429 20.4011C14.1429 20.0754 13.8517 19.7893 13.526 19.7893C13.1854 19.7893 12.9143 20.0754 12.9143 20.4011C12.9143 20.7164 13.1854 21.0105 13.526 21.0105ZM14.8421 21.8102C15.1677 21.8102 15.4515 21.5339 15.4515 21.2059C15.4515 20.8751 15.1677 20.5913 14.8421 20.5913C14.5066 20.5913 14.2252 20.8751 14.2252 21.2059C14.2252 21.5339 14.5066 21.8102 14.8421 21.8102Z"
                     fill="currentColor" fill-opacity="0.85" />
       </g>
</svg>