<?xml version="1.0" encoding="UTF-8"?>
<!--Generator: Apple Native CoreSVG 326-->
<!DOCTYPE svg PUBLIC "-//W3C//DTD SVG 1.1//EN" "http://www.w3.org/Graphics/SVG/1.1/DTD/svg11.dtd">
<svg version="1.1" xmlns="http://www.w3.org/2000/svg" xmlns:xlink="http://www.w3.org/1999/xlink"
       viewBox="0 0 21.5583 20.8332">
       <g>
              <rect height="20.8332" opacity="0" width="21.5583" x="0" y="0" />
              <path d="M10.0954 17.6049C10.7121 17.6049 11.2381 17.0938 11.2381 16.4621L11.2381 12.0973C17.3265 11.6304 21.2062 7.44068 21.1969 1.1962C21.1969 0.486401 20.7519 0.0316018 20.0398 0.0316018C15.2548 0.0200772 11.6514 2.53227 9.98684 6.74544C8.39353 4.00093 5.50278 2.46082 2.12005 2.46312C1.47807 2.46312 1.15538 2.84265 1.23459 3.53401C1.49366 6.37853 2.9033 11.515 8.94283 12.0898L8.94283 16.4621C8.94283 17.0938 9.47114 17.6049 10.0954 17.6049ZM8.78955 9.73772C6.15496 9.34261 4.36882 7.60888 3.72277 4.96052C6.1552 5.42223 8.0951 7.11465 8.78955 9.73772ZM11.5183 9.74518C12.3346 5.7872 14.9447 3.05598 18.8081 2.48017C18.4406 6.39545 15.5819 9.20996 11.5183 9.74518Z"
                     fill="currentColor" fill-opacity="0.85" />
              <path d="M1.17558 20.8332C1.82108 20.8332 2.35115 20.3106 2.35115 19.6651C2.35115 19.0099 1.82108 18.4872 1.17558 18.4872C0.530074 18.4872 0 19.0099 0 19.6651C0 20.3106 0.530074 20.8332 1.17558 20.8332ZM3.92057 19.0301C4.56607 19.0301 5.09614 18.5075 5.09614 17.8597C5.09614 17.2067 4.56607 16.6841 3.92057 16.6841C3.27506 16.6841 2.74499 17.2067 2.74499 17.8597C2.74499 18.5075 3.27506 19.0301 3.92057 19.0301ZM6.96259 17.987C7.60809 17.987 8.13817 17.4643 8.13817 16.8188C8.13817 16.1659 7.60809 15.6433 6.96259 15.6433C6.31709 15.6433 5.78701 16.1659 5.78701 16.8188C5.78701 17.4643 6.31709 17.987 6.96259 17.987ZM13.2184 17.987C13.8713 17.987 14.3939 17.4643 14.3939 16.8188C14.3939 16.1659 13.8713 15.6433 13.2184 15.6433C12.5729 15.6433 12.0502 16.1659 12.0502 16.8188C12.0502 17.4643 12.5729 17.987 13.2184 17.987ZM16.2604 19.0301C16.9133 19.0301 17.436 18.5075 17.436 17.8597C17.436 17.2067 16.9133 16.6841 16.2604 16.6841C15.6149 16.6841 15.0923 17.2067 15.0923 17.8597C15.0923 18.5075 15.6149 19.0301 16.2604 19.0301ZM19.0128 20.8332C19.6583 20.8332 20.1809 20.3106 20.1809 19.6651C20.1809 19.0099 19.6583 18.4872 19.0128 18.4872C18.3599 18.4872 17.8373 19.0099 17.8373 19.6651C17.8373 20.3106 18.3599 20.8332 19.0128 20.8332Z"
                     fill="currentColor" fill-opacity="0.85" />
       </g>
</svg>