<?xml version="1.0" encoding="UTF-8"?>
<!--Generator: Apple Native CoreSVG 326-->
<!DOCTYPE svg PUBLIC "-//W3C//DTD SVG 1.1//EN" "http://www.w3.org/Graphics/SVG/1.1/DTD/svg11.dtd">
<svg version="1.1" xmlns="http://www.w3.org/2000/svg" xmlns:xlink="http://www.w3.org/1999/xlink"
       viewBox="0 0 20.5203 19.996">
       <g>
              <rect height="19.996" opacity="0" width="20.5203" x="0" y="0" />
              <path d="M0.904047 18.4066C0.660573 18.8763 1.23189 19.3839 1.63786 19.1599L3.40114 18.2192L1.84428 16.6623ZM2.42033 15.5935L4.4648 17.6477L5.27226 17.2182L18.8058 3.6984C19.4783 3.03337 19.4709 1.95599 18.7984 1.29326C18.1282 0.628231 17.0583 0.628231 16.3955 1.2835L2.84474 14.7981Z"
                     fill="currentColor" fill-opacity="0.85" />
              <path d="M5.14791 8.27951C6.1474 7.2651 6.86369 6.04506 7.23533 4.73768C7.40474 4.06179 6.98439 3.43242 6.34295 3.33422C5.70898 3.23602 5.20996 3.62191 5.03309 4.20882C4.77457 5.13085 4.30176 5.97476 3.56988 6.69918C2.79894 7.47758 1.91136 7.96762 0.967492 8.19168C0.336366 8.34156-0.0839812 8.86011 0.014221 9.50155C0.112423 10.1281 0.692417 10.5829 1.36085 10.4284C2.77159 10.0786 4.07721 9.35252 5.14791 8.27951ZM12.0983 15.0359C11.1011 16.0428 10.3848 17.2703 10.0057 18.5777C9.84378 19.2536 10.2641 19.8755 10.9033 19.9812C11.5372 20.0794 12.0236 19.6785 12.2154 19.0991C12.4516 18.1771 12.9393 17.3406 13.6786 16.6162C14.4496 15.8303 15.3349 15.3403 16.281 15.1162C16.9122 14.9738 17.3302 14.4553 17.2343 13.8064C17.1361 13.1873 16.5561 12.7325 15.8802 12.887C14.4769 13.2368 13.1713 13.9629 12.0983 15.0359Z"
                     fill="currentColor" fill-opacity="0.85" />
       </g>
</svg>