<?xml version="1.0" encoding="UTF-8"?>
<!--Generator: Apple Native CoreSVG 326-->
<!DOCTYPE svg PUBLIC "-//W3C//DTD SVG 1.1//EN" "http://www.w3.org/Graphics/SVG/1.1/DTD/svg11.dtd">
<svg version="1.1" xmlns="http://www.w3.org/2000/svg" xmlns:xlink="http://www.w3.org/1999/xlink"
       viewBox="0 0 21.365 21.006">
       <g>
              <rect height="21.006" opacity="0" width="21.365" x="0" y="0" />
              <path d="M10.4981 20.9962C16.302 20.9962 21.0037 16.2946 21.0037 10.4981C21.0037 4.70163 16.302 0 10.4981 0C4.70163 0 0 4.70163 0 10.4981C0 16.2946 4.70163 20.9962 10.4981 20.9962ZM10.4981 17.9484C6.37829 17.9484 3.04785 14.6179 3.04785 10.4981C3.04785 6.37829 6.37829 3.04785 10.4981 3.04785C14.6179 3.04785 17.9558 6.37829 17.9558 10.4981C17.9558 14.6179 14.6179 17.9484 10.4981 17.9484Z"
                     fill="currentColor" fill-opacity="0.85" />
              <path d="M10.343 13.7203C10.6635 13.7203 10.9225 13.4389 10.9225 13.1161L10.9225 11.3154C13.6749 11.0731 15.4346 9.16174 15.4277 6.32321C15.4277 5.94872 15.1778 5.7115 14.7941 5.7115C12.6834 5.70458 11.0576 6.79791 10.2597 8.62147C9.51287 7.4522 8.21556 6.799 6.73228 6.799C6.38939 6.799 6.21822 7.02185 6.2406 7.38712C6.33189 8.66939 6.99838 11.0122 9.73123 11.3154L9.73123 13.1161C9.73123 13.4389 10.0001 13.7203 10.343 13.7203ZM9.60088 10.0547C8.56931 9.8594 7.88844 9.17775 7.58231 8.14532C8.54353 8.36817 9.31592 9.02314 9.60088 10.0547ZM11.0919 10.0794C11.4648 8.41591 12.5462 7.29492 14.1572 7.01184C13.9487 8.64537 12.7737 9.80311 11.0919 10.0794ZM6.07416 15.1635C6.39982 15.1635 6.69334 14.8872 6.69334 14.5592C6.69334 14.2284 6.39982 13.9446 6.07416 13.9446C5.74389 13.9446 5.46244 14.2284 5.46244 14.5592C5.46244 14.8872 5.74389 15.1635 6.07416 15.1635ZM7.38791 14.3638C7.71588 14.3638 7.99963 14.0697 7.99963 13.7544C7.99963 13.4287 7.71588 13.1427 7.38791 13.1427C7.04272 13.1427 6.77104 13.4287 6.77104 13.7544C6.77104 14.0674 7.04502 14.3638 7.38791 14.3638ZM8.83498 13.8807C9.16525 13.8807 9.43693 13.6021 9.43693 13.2787C9.43693 12.941 9.16295 12.6768 8.83498 12.6768C8.49955 12.6768 8.21065 12.941 8.21065 13.2787C8.21065 13.6021 8.49955 13.8807 8.83498 13.8807ZM11.8188 13.8807C12.1467 13.8807 12.4207 13.6021 12.4207 13.2787C12.4207 12.941 12.1467 12.6768 11.8188 12.6768C11.4759 12.6768 11.2019 12.941 11.2019 13.2787C11.2019 13.6021 11.4759 13.8807 11.8188 13.8807ZM13.2412 14.3638C13.5766 14.3638 13.8603 14.0674 13.8603 13.7544C13.8603 13.4287 13.5766 13.1427 13.2412 13.1427C12.908 13.1427 12.6392 13.4287 12.6392 13.7544C12.6392 14.0697 12.908 14.3638 13.2412 14.3638ZM14.567 15.1635C14.8926 15.1635 15.1666 14.8872 15.1666 14.5592C15.1666 14.2284 14.8926 13.9446 14.567 13.9446C14.2241 13.9446 13.9501 14.2284 13.9501 14.5592C13.9501 14.8872 14.2241 15.1635 14.567 15.1635Z"
                     fill="currentColor" fill-opacity="0.85" />
       </g>
</svg>