<?xml version="1.0" encoding="UTF-8"?>
<!--Generator: Apple Native CoreSVG 326-->
<!DOCTYPE svg PUBLIC "-//W3C//DTD SVG 1.1//EN" "http://www.w3.org/Graphics/SVG/1.1/DTD/svg11.dtd">
<svg version="1.1" xmlns="http://www.w3.org/2000/svg" xmlns:xlink="http://www.w3.org/1999/xlink"
       viewBox="0 0 21.9733 20.9911">
       <g>
              <rect height="20.9911" opacity="0" width="21.9733" x="0" y="0" />
              <path d="M21.612 9.29069C21.612 15.9597 16.3141 20.9813 10.0386 20.9813C4.15191 20.9813 0 17.0959 0 11.5878C0 5.12671 6.10437 0 12.2087 0C17.5727 0 21.612 4.06632 21.612 9.29069ZM11.6506 7.4126C11.2157 10.3568 10.8497 10.7303 7.89803 11.1577C7.61604 11.1967 7.41733 11.4081 7.41733 11.6998C7.41733 11.999 7.61604 12.2178 7.89803 12.2494C10.8497 12.6843 11.2157 13.0526 11.6506 16.0043C11.6971 16.2863 11.9084 16.4901 12.2002 16.4901C12.477 16.4901 12.6958 16.2863 12.7446 16.0043C13.1697 13.0526 13.5455 12.6843 16.4897 12.2494C16.7717 12.2178 16.9853 11.999 16.9853 11.6998C16.9853 11.4081 16.7717 11.1967 16.4897 11.1577C13.5455 10.7303 13.1697 10.3568 12.7446 7.4126C12.6958 7.13061 12.477 6.91698 12.2002 6.91698C11.9084 6.91698 11.6971 7.13061 11.6506 7.4126ZM7.37839 5.36115C7.17561 6.80877 7.01584 6.97084 5.57053 7.18853C5.3896 7.21552 5.2644 7.33556 5.2644 7.51935C5.2644 7.69337 5.3896 7.83064 5.56307 7.85017C7.01584 8.0604 7.17561 8.22994 7.37839 9.67986C7.40768 9.84873 7.54264 9.96415 7.71897 9.96415C7.88553 9.96415 8.0228 9.84873 8.05725 9.67986C8.26748 8.22994 8.41979 8.0604 9.8651 7.85017C10.0386 7.83064 10.1638 7.69337 10.1638 7.51935C10.1638 7.33556 10.0386 7.21552 9.85764 7.18853C8.41979 6.97084 8.26748 6.80877 8.05725 5.36115C8.0228 5.2049 7.88553 5.07224 7.71897 5.07224C7.54264 5.07224 7.40768 5.2049 7.37839 5.36115Z"
                     fill="currentColor" fill-opacity="0.85" />
       </g>
</svg>