<?xml version="1.0" encoding="UTF-8"?>
<!--Generator: Apple Native CoreSVG 326-->
<!DOCTYPE svg PUBLIC "-//W3C//DTD SVG 1.1//EN" "http://www.w3.org/Graphics/SVG/1.1/DTD/svg11.dtd">
<svg version="1.1" xmlns="http://www.w3.org/2000/svg" xmlns:xlink="http://www.w3.org/1999/xlink"
       viewBox="0 0 26.1736 23.8895">
       <g>
              <rect height="23.8895" opacity="0" width="26.1736" x="0" y="0" />
              <path d="M21.2083 6.87282L21.2083 17.0402C21.2083 18.6529 20.2999 19.6054 18.7585 19.6054L18.458 19.6054C18.6129 19.0421 18.693 18.4349 18.693 17.7942L18.693 13.9282C19.4237 13.4555 19.8832 12.6191 19.8832 11.6116L19.8832 10.1708C19.8832 9.14148 19.4041 8.27531 18.6465 7.81008C18.6465 6.55578 17.9065 5.24969 16.6643 4.32484L18.7585 4.32484C20.2999 4.32484 21.2083 5.26992 21.2083 6.87282Z"
                     fill="currentColor" fill-opacity="0.2125" />
              <path d="M23.9492 6.74083L24.0697 6.74083C24.8439 6.74083 25.3488 7.28989 25.3488 8.11754L25.3488 9.75586C25.3488 10.5938 24.8439 11.128 24.0697 11.128L23.9553 11.128L23.9553 17.0241C23.9553 20.205 21.8521 22.345 18.7349 22.345L16.8291 22.345C17.6046 21.6351 18.1671 20.6999 18.458 19.6054L18.7585 19.6054C20.2999 19.6054 21.2083 18.6529 21.2083 17.0402L21.2083 6.87282C21.2083 5.26992 20.2999 4.32484 18.7585 4.32484L16.6643 4.32484C15.6378 3.54998 14.2623 3.04002 12.6811 3.04002L7.12527 3.04002C8.04163 2.10423 9.34832 1.56632 10.9055 1.56632L18.7349 1.56632C21.8039 1.56632 23.89 3.64565 23.9492 6.74083Z"
                     fill="currentColor" fill-opacity="0.85" />
              <path d="M4.29148 17.8081L4.29148 9.12085C4.29148 8.03651 4.95051 7.34303 5.98087 7.34303L12.7024 7.34303C13.7327 7.34303 14.3917 8.03651 14.3917 9.12085L14.3917 17.8081C14.3917 18.897 13.7327 19.6054 12.7024 19.6054L5.98087 19.6054C4.95051 19.6054 4.29148 18.897 4.29148 17.8081Z"
                     fill="currentColor" fill-opacity="0.2125" />
              <path d="M6.00216 22.345L12.6811 22.345C15.3451 22.345 17.1462 20.5094 17.1462 17.7942L17.1462 12.8058L17.2204 12.8058C17.8982 12.8058 18.3462 12.3359 18.3462 11.6116L18.3462 10.1708C18.3462 9.43445 17.8982 8.95714 17.2204 8.95714L17.1462 8.95714C17.0629 6.3368 15.2888 4.58681 12.6811 4.58681L6.00216 4.58681C3.33584 4.58681 1.54449 6.42008 1.54449 9.13062L1.54449 17.7942C1.54449 20.5094 3.33584 22.345 6.00216 22.345ZM4.29148 17.8081L4.29148 9.12085C4.29148 8.03651 4.95051 7.34303 5.98087 7.34303L12.7024 7.34303C13.7327 7.34303 14.3917 8.03651 14.3917 9.12085L14.3917 17.8081C14.3917 18.897 13.7327 19.6054 12.7024 19.6054L5.98087 19.6054C4.95051 19.6054 4.29148 18.897 4.29148 17.8081Z"
                     fill="currentColor" fill-opacity="0.85" />
       </g>
</svg>