<?xml version="1.0" encoding="UTF-8"?>
<!--Generator: Apple Native CoreSVG 326-->
<!DOCTYPE svg PUBLIC "-//W3C//DTD SVG 1.1//EN" "http://www.w3.org/Graphics/SVG/1.1/DTD/svg11.dtd">
<svg version="1.1" xmlns="http://www.w3.org/2000/svg" xmlns:xlink="http://www.w3.org/1999/xlink"
       viewBox="0 0 11.821 20.7643">
       <g>
              <rect height="20.7643" opacity="0" width="11.821" x="0" y="0" />
              <path d="M1.25558 20.7643C1.93147 20.7643 2.45748 20.2751 2.49939 19.5331L2.72115 15.3317L3.85056 10.5905L2.80225 11.4613L8.85141 11.4613L7.63896 10.7099L8.74084 15.3317L8.96029 19.5331C9.00451 20.2751 9.52821 20.7643 10.2064 20.7643C10.8748 20.7643 11.5019 20.2481 11.4577 19.4298L11.248 15.2162C11.2382 15.0818 11.2285 14.9319 11.1894 14.7849L9.9021 9.79019C9.79128 9.35954 9.42953 9.08391 8.99887 9.08391L2.46081 9.08391C2.03015 9.08391 1.6707 9.35954 1.55758 9.79019L0.270278 14.7849C0.231215 14.9319 0.22145 15.0818 0.213989 15.2162L0.00199603 19.4298C-0.0399174 20.2481 0.584841 20.7643 1.25558 20.7643Z"
                     fill="currentColor" fill-opacity="0.85" />
              <path d="M2.06988 7.53712L9.37312 7.53712L6.85462 0.791441C6.66567 0.291756 6.28032 0.0051558 5.73357 0.0051558C5.16729 0.0051558 4.78018 0.291756 4.5987 0.791441Z"
                     fill="currentColor" fill-opacity="0.85" />
       </g>
</svg>