<?xml version="1.0" encoding="UTF-8"?>
<!--Generator: Apple Native CoreSVG 326-->
<!DOCTYPE svg PUBLIC "-//W3C//DTD SVG 1.1//EN" "http://www.w3.org/Graphics/SVG/1.1/DTD/svg11.dtd">
<svg version="1.1" xmlns="http://www.w3.org/2000/svg" xmlns:xlink="http://www.w3.org/1999/xlink"
       viewBox="0 0 11.9539 23.2033">
       <g>
              <rect height="23.2033" opacity="0" width="11.9539" x="0" y="0" />
              <path d="M2.83955 23.1987L8.76687 23.1987C10.5554 23.1987 11.6064 22.185 11.6064 20.4636L11.6064 2.7351C11.6064 1.01375 10.5554 0 8.76687 0L2.92908 0C1.08835 0 0 1.01375 0 2.7351L0 20.4636C0 22.185 1.05105 23.1987 2.83955 23.1987ZM3.84111 9.0642C3.07084 9.0642 2.44189 8.44557 2.44189 7.68737C2.44189 6.91194 3.06338 6.28815 3.84111 6.28815C4.59185 6.28815 5.20817 6.91194 5.20817 7.68737C5.20817 8.44557 4.58439 9.0642 3.84111 9.0642ZM7.79055 9.0642C7.02258 9.0642 6.39133 8.44557 6.39133 7.68737C6.39133 6.91194 7.01512 6.28815 7.79055 6.28815C8.54359 6.28815 9.15992 6.91194 9.15992 7.68737C9.15992 8.44557 8.53613 9.0642 7.79055 9.0642ZM3.84111 12.9736C3.06338 12.9736 2.44189 12.3624 2.44189 11.5968C2.44189 10.8213 3.06338 10.1976 3.84111 10.1976C4.59185 10.1976 5.20817 10.8213 5.20817 11.5968C5.20817 12.3475 4.59185 12.9736 3.84111 12.9736ZM3.84111 16.8807C3.06338 16.8807 2.44189 16.2741 2.44189 15.5039C2.44189 14.7308 3.06338 14.1047 3.84111 14.1047C4.59185 14.1047 5.20817 14.7382 5.20817 15.5039C5.20817 16.2592 4.59185 16.8807 3.84111 16.8807ZM7.78824 16.8807C7.09664 16.8807 6.5343 16.3184 6.5343 15.6072L6.5343 11.471C6.5343 10.7771 7.1041 10.1976 7.78824 10.1976C8.51199 10.1976 9.07379 10.7622 9.07379 11.471L9.07379 15.6072C9.07379 16.3407 8.51945 16.8807 7.78824 16.8807Z"
                     fill="currentColor" fill-opacity="0.85" />
       </g>
</svg>