<?xml version="1.0" encoding="UTF-8"?>
<!--Generator: Apple Native CoreSVG 326-->
<!DOCTYPE svg PUBLIC "-//W3C//DTD SVG 1.1//EN" "http://www.w3.org/Graphics/SVG/1.1/DTD/svg11.dtd">
<svg version="1.1" xmlns="http://www.w3.org/2000/svg" xmlns:xlink="http://www.w3.org/1999/xlink"
       viewBox="0 0 12.9489 23.2275">
       <g>
              <rect height="23.2275" opacity="0" width="12.9489" x="0" y="0" />
              <path d="M0 20.2686C0 22.1023 1.1578 23.2062 3.08454 23.2062L9.50299 23.2062C11.4274 23.2062 12.5875 22.1023 12.5875 20.2686L12.5875 2.94497C12.5875 1.11359 11.4274 0 9.50299 0L3.08454 0C1.1578 0 0 1.11359 0 2.94497ZM2.89269 19.8397L2.89269 3.36641C2.89269 3.04336 3.11227 2.84332 3.48184 2.84332L9.10569 2.84332C9.47527 2.84332 9.69484 3.04336 9.69484 3.36641L9.69484 19.8397C9.69484 20.1703 9.47527 20.3628 9.10569 20.3628L3.48184 20.3628C3.11227 20.3628 2.89269 20.1703 2.89269 19.8397ZM4.75738 13.1488C5.37492 13.1488 5.87527 12.6461 5.87527 12.0286C5.87527 11.4185 5.37492 10.9158 4.75738 10.9158C4.145 10.9158 3.64234 11.4185 3.64234 12.0286C3.64234 12.6461 4.145 13.1488 4.75738 13.1488ZM7.84222 13.1488C8.45976 13.1488 8.96012 12.6461 8.96012 12.0286C8.96012 11.4185 8.45976 10.9158 7.84222 10.9158C7.22984 10.9158 6.71972 11.4185 6.71972 12.0286C6.71972 12.6461 7.22984 13.1488 7.84222 13.1488ZM6.2975 9.65038C7.80886 9.65038 9.04218 8.41706 9.04218 6.9057C9.04218 5.39433 7.80886 4.16101 6.2975 4.16101C4.78844 4.16101 3.55281 5.39433 3.55281 6.9057C3.55281 8.41706 4.78844 9.65038 6.2975 9.65038ZM6.2998 7.94722C5.73164 7.94722 5.25597 7.48132 5.25597 6.9057C5.25597 6.33753 5.73164 5.86417 6.2998 5.86417C6.87543 5.86417 7.34133 6.33753 7.34133 6.9057C7.34133 7.48132 6.87543 7.94722 6.2998 7.94722Z"
                     fill="currentColor" fill-opacity="0.85" />
       </g>
</svg>