<?xml version="1.0" encoding="UTF-8"?>
<!--Generator: Apple Native CoreSVG 326-->
<!DOCTYPE svg PUBLIC "-//W3C//DTD SVG 1.1//EN" "http://www.w3.org/Graphics/SVG/1.1/DTD/svg11.dtd">
<svg version="1.1" xmlns="http://www.w3.org/2000/svg" xmlns:xlink="http://www.w3.org/1999/xlink"
       viewBox="0 0 13.4946 23.596">
       <g>
              <rect height="23.596" opacity="0" width="13.4946" x="0" y="0" />
              <path d="M2.33065 17.3988L10.7952 17.3988C11.6877 17.3988 12.4964 17.6882 13.1333 18.181L13.1333 3.09862C13.1333 1.26237 11.817 0 9.89513 0L3.23819 0C1.31636 0 0 1.26237 0 3.09862L0 18.181C0.629489 17.6882 1.43816 17.3988 2.33065 17.3988ZM6.56523 5.71059C5.7841 5.71059 5.15231 5.07879 5.15231 4.29997C5.15231 3.5263 5.7841 2.88705 6.56523 2.88705C7.35152 2.88705 7.98562 3.5263 7.98562 4.29997C7.98562 5.07879 7.35152 5.71059 6.56523 5.71059ZM2.33065 23.5299L10.7952 23.5299C12.1391 23.5299 13.1333 22.5283 13.1333 21.1993C13.1333 19.8554 12.1391 18.8537 10.7952 18.8537L2.33065 18.8537C0.994214 18.8537 0 19.8554 0 21.1993C0 22.5283 0.994214 23.5299 2.33065 23.5299Z"
                     fill="currentColor" fill-opacity="0.85" />
       </g>
</svg>