<?xml version="1.0" encoding="UTF-8"?>
<!--Generator: Apple Native CoreSVG 326-->
<!DOCTYPE svg PUBLIC "-//W3C//DTD SVG 1.1//EN" "http://www.w3.org/Graphics/SVG/1.1/DTD/svg11.dtd">
<svg version="1.1" xmlns="http://www.w3.org/2000/svg" xmlns:xlink="http://www.w3.org/1999/xlink"
       viewBox="0 0 13.4946 23.5719">
       <g>
              <rect height="23.5719" opacity="0" width="13.4946" x="0" y="0" />
              <path d="M3.23819 0C1.31636 0 0 1.25491 0 3.09116L0 20.3212L2.72122 19.3446L2.72122 3.41967C2.72122 2.99138 3.01837 2.72122 3.48803 2.72122L9.64759 2.72122C10.1149 2.72122 10.4046 2.99138 10.4046 3.41967L10.4046 19.3446L13.1333 20.3212L13.1333 3.09116C13.1333 1.25491 11.817 0 9.89513 0ZM3.19154 23.5179L9.94408 23.5179C11.802 23.5179 13.1333 22.1717 13.1333 20.3212C13.1333 18.4684 11.802 17.1296 9.94408 17.1296L3.19154 17.1296C1.32612 17.1296 0 18.4684 0 20.3212C0 22.1717 1.32612 23.5179 3.19154 23.5179ZM3.19154 20.9167C2.84204 20.9167 2.59372 20.6684 2.59372 20.3212C2.59372 19.9791 2.84204 19.7308 3.19154 19.7308L9.94408 19.7308C10.2861 19.7308 10.5321 19.9791 10.5321 20.3212C10.5321 20.6684 10.2861 20.9167 9.94408 20.9167ZM6.56523 6.52647C7.35152 6.52647 7.98562 5.90214 7.98562 5.11586C7.98562 4.34219 7.35152 3.70293 6.56523 3.70293C5.7841 3.70293 5.15231 4.34219 5.15231 5.11586C5.15231 5.90214 5.7841 6.52647 6.56523 6.52647Z"
                     fill="currentColor" fill-opacity="0.85" />
       </g>
</svg>