<?xml version="1.0" encoding="UTF-8"?>
<!--Generator: Apple Native CoreSVG 326-->
<!DOCTYPE svg PUBLIC "-//W3C//DTD SVG 1.1//EN" "http://www.w3.org/Graphics/SVG/1.1/DTD/svg11.dtd">
<svg version="1.1" xmlns="http://www.w3.org/2000/svg" xmlns:xlink="http://www.w3.org/1999/xlink"
       viewBox="0 0 21.365 21.006">
       <g>
              <rect height="21.006" opacity="0" width="21.365" x="0" y="0" />
              <path d="M10.4981 20.9962C16.302 20.9962 21.0037 16.2946 21.0037 10.4981C21.0037 4.70163 16.302 0 10.4981 0C4.70163 0 0 4.70163 0 10.4981C0 16.2946 4.70163 20.9962 10.4981 20.9962ZM10.4981 17.9484C6.37829 17.9484 3.04785 14.6179 3.04785 10.4981C3.04785 6.37829 6.37829 3.04785 10.4981 3.04785C14.6179 3.04785 17.9558 6.37829 17.9558 10.4981C17.9558 14.6179 14.6179 17.9484 10.4981 17.9484Z"
                     fill="currentColor" fill-opacity="0.85" />
              <path d="M7.04551 14.5553L13.9685 14.5553C14.9491 14.5553 15.5068 14.0073 15.5068 13.0238L15.5068 7.99938C15.5068 7.01591 14.9491 6.46794 13.9685 6.46794L7.04551 6.46794C6.06719 6.46794 5.50715 7.01591 5.50715 7.99938L5.50715 13.0238C5.50715 14.0073 6.06719 14.5553 7.04551 14.5553ZM7.28759 9.79783L8.08127 9.31853L7.28012 8.83692C6.7856 8.53825 7.21923 7.76919 7.76028 8.11954L8.94447 8.85615C9.26728 9.06177 9.27474 9.55576 8.94447 9.77115L7.76028 10.5152C7.21177 10.8506 6.7856 10.089 7.28759 9.79783ZM9.30743 10.4136C9.30743 10.181 9.49122 9.99491 9.72153 9.99491L11.3073 9.99491C11.5422 9.99491 11.7335 10.181 11.7335 10.4136C11.7335 10.6365 11.5422 10.8375 11.3073 10.8375L9.72153 10.8375C9.49122 10.8375 9.30743 10.6365 9.30743 10.4136Z"
                     fill="currentColor" fill-opacity="0.85" />
       </g>
</svg>