<?xml version="1.0" encoding="UTF-8"?>
<!--Generator: Apple Native CoreSVG 326-->
<!DOCTYPE svg PUBLIC "-//W3C//DTD SVG 1.1//EN" "http://www.w3.org/Graphics/SVG/1.1/DTD/svg11.dtd">
<svg version="1.1" xmlns="http://www.w3.org/2000/svg" xmlns:xlink="http://www.w3.org/1999/xlink"
       viewBox="0 0 23.7431 24.0011">
       <g>
              <rect height="24.0011" opacity="0" width="23.7431" x="0" y="0" />
              <path d="M16.8673 22.5834C18.7248 21.6972 19.2348 19.9028 19.162 17.5026C19.1241 16.2365 18.9352 14.8077 19.2127 13.5914C19.4804 12.3866 20.2887 11.1927 20.8654 10.0466C21.9543 7.95826 22.2645 6.08987 20.9917 4.49425C19.7119 2.87625 17.8389 2.76774 15.5197 3.36957C14.2932 3.68492 12.923 4.17144 11.6946 4.17144C10.4513 4.17144 9.1035 3.68492 7.87182 3.36957C5.54281 2.76543 3.66004 2.87625 2.39985 4.47933C1.10982 6.08241 1.42747 7.94334 2.50891 10.0243C3.09309 11.1853 3.89157 12.3717 4.16907 13.6161C4.44657 14.8077 4.25763 16.2439 4.21978 17.5026C4.14693 19.9028 4.65692 21.6972 6.52938 22.5909C7.07504 22.8551 7.6184 22.9774 8.15199 22.9774C9.42534 22.9774 10.6619 22.2991 11.9175 21.228C12.9097 20.4123 13.9128 19.3702 15.0423 18.8324C16.1564 18.2849 17.5708 18.1619 18.8277 17.9217C21.1567 17.4432 22.8143 16.5489 23.2893 14.5369C23.7419 12.5421 22.6231 10.9919 20.7341 9.57262C19.7115 8.79531 18.4867 8.04785 17.7082 7.08948C16.9343 6.11104 16.4913 4.75471 15.9754 3.59084C14.9949 1.42499 13.7331 0 11.6946 0C9.64352 0 8.38685 1.41753 7.39373 3.5983C6.88525 4.75471 6.43997 6.11619 5.67122 7.08948C4.895 8.05015 3.67023 8.79531 2.64254 9.57262C0.760986 10.9919-0.350415 12.5421 0.0998959 14.5369C0.552511 16.5415 2.20266 17.4432 4.5569 17.9217C5.81327 18.1619 7.23281 18.2849 8.35434 18.8399C9.46665 19.3702 10.4721 20.41 11.4619 21.2303C12.7324 22.2991 13.9616 22.9774 15.2275 22.9774C15.7634 22.9774 16.3067 22.8551 16.8673 22.5834ZM15.6265 20.038C14.7267 20.4488 14.0102 19.6412 13.3039 19.0649C12.1246 18.089 10.8947 16.8965 9.58487 16.2698C8.271 15.6309 6.58791 15.412 5.06975 15.1225C4.20092 14.9339 3.10025 14.882 2.87904 13.9018C2.66013 12.9314 3.61595 12.4056 4.34279 11.8527C5.55537 10.9399 6.992 9.99782 7.88419 8.85918C8.8183 7.71539 9.39677 6.1225 10.0161 4.72669C10.389 3.90844 10.6874 2.84059 11.6946 2.84059C12.6892 2.84059 12.9927 3.90098 13.3657 4.73415C13.9901 6.1225 14.5784 7.72055 15.4953 8.85918C16.3972 10.0001 17.8241 10.9399 19.0441 11.8527C19.7681 12.4056 20.7216 12.9314 20.5027 13.9018C20.2815 14.8746 19.1808 14.9339 18.2822 15.1225C16.8174 15.4 15.1108 15.6309 13.782 16.2847C12.4871 16.8965 11.2479 18.0936 10.0778 19.0672C9.3716 19.6412 8.63784 20.4488 7.74784 20.0305C6.8676 19.6002 7.0449 18.5327 7.06036 17.6048C7.09821 16.0774 7.26763 14.3799 6.93329 12.9414C6.62649 11.5615 5.73618 10.1213 5.04403 8.72889C4.63497 7.9181 3.99001 7.03501 4.61283 6.26395C5.24772 5.46821 6.24393 5.89941 7.12999 6.11887C8.6057 6.48875 10.2245 7.01949 11.6946 7.01949C13.1498 7.01949 14.7686 6.48875 16.2443 6.11887C17.1378 5.89711 18.134 5.46821 18.7517 6.24903C19.3843 7.02755 18.7468 7.91064 18.3452 8.71397C17.6456 10.1139 16.7604 11.554 16.4358 12.9661C16.1141 14.3799 16.2835 16.0848 16.3214 17.6048C16.3369 18.5327 16.5165 19.6002 15.6265 20.038Z"
                     fill="currentColor" fill-opacity="0.85" />
       </g>
</svg>