<?xml version="1.0" encoding="UTF-8"?>
<!--Generator: Apple Native CoreSVG 326-->
<!DOCTYPE svg PUBLIC "-//W3C//DTD SVG 1.1//EN" "http://www.w3.org/Graphics/SVG/1.1/DTD/svg11.dtd">
<svg version="1.1" xmlns="http://www.w3.org/2000/svg" xmlns:xlink="http://www.w3.org/1999/xlink"
       viewBox="0 0 24.5525 19.0575">
       <g>
              <rect height="19.0575" opacity="0" width="24.5525" x="0" y="0" />
              <path d="M3.66326 19.0575L20.5429 19.0575C22.8697 19.0575 24.1912 17.7285 24.1912 15.4034L24.1912 3.65865C24.1912 1.33358 22.8697 0.0195312 20.5429 0.0195312L3.64834 0.0195312C1.32382 0.0195312 0 1.33128 0 3.65865L0 15.4034C0 17.7308 1.33128 19.0575 3.66326 19.0575ZM4.07075 16.0378C3.3777 16.0378 3.0271 15.7217 3.0271 14.9896L3.0271 4.07997C3.0271 3.34785 3.37024 3.03918 4.05583 3.03918L20.1354 3.03918C20.8187 3.03918 21.1716 3.34785 21.1716 4.07997L21.1716 14.9896C21.1716 15.7217 20.8187 16.0378 20.1354 16.0378Z"
                     fill="currentColor" fill-opacity="0.85" />
              <path d="M4.85728 6.38806L5.77185 6.38806C6.06997 6.38806 6.28712 6.18528 6.28712 5.91931L6.28712 4.96798C6.28712 4.69223 6.06997 4.4843 5.77185 4.4843L4.85728 4.4843C4.58615 4.4843 4.38853 4.69454 4.38853 4.96798L4.38853 5.91931C4.38853 6.18298 4.58615 6.38806 4.85728 6.38806ZM8.24607 6.38806L9.1681 6.38806C9.46107 6.38806 9.67592 6.18528 9.67592 5.91931L9.67592 4.96798C9.67592 4.69223 9.46107 4.4843 9.1681 4.4843L8.24607 4.4843C7.97494 4.4843 7.76986 4.69454 7.76986 4.96798L7.76986 5.91931C7.76986 6.18298 7.96748 6.38806 8.24607 6.38806ZM11.6349 6.38806L12.542 6.38806C12.8326 6.38806 13.0475 6.18528 13.0475 5.91931L13.0475 4.96798C13.0475 4.69223 12.8326 4.4843 12.542 4.4843L11.6349 4.4843C11.3614 4.4843 11.1512 4.69454 11.1512 4.96798L11.1512 5.91931C11.1512 6.18298 11.3465 6.38806 11.6349 6.38806ZM14.999 6.38806L15.921 6.38806C16.2214 6.38806 16.4288 6.18528 16.4288 5.91931L16.4288 4.96798C16.4288 4.69223 16.2214 4.4843 15.921 4.4843L14.999 4.4843C14.7353 4.4843 14.5302 4.69454 14.5302 4.96798L14.5302 5.91931C14.5302 6.18298 14.7353 6.38806 14.999 6.38806ZM18.3878 6.38806L19.3023 6.38806C19.6005 6.38806 19.8153 6.18528 19.8153 5.91931L19.8153 4.96798C19.8153 4.69223 19.6005 4.4843 19.3023 4.4843L18.3878 4.4843C18.1143 4.4843 17.9116 4.69454 17.9116 4.96798L17.9116 5.91931C17.9116 6.18298 18.1143 6.38806 18.3878 6.38806ZM4.85728 9.5361L5.77185 9.5361C6.06997 9.5361 6.28712 9.34079 6.28712 9.07482L6.28712 8.12349C6.28712 7.84774 6.06997 7.63981 5.77185 7.63981L4.85728 7.63981C4.58615 7.63981 4.38853 7.85005 4.38853 8.12349L4.38853 9.07482C4.38853 9.33849 4.58615 9.5361 4.85728 9.5361ZM8.24607 9.5361L9.1681 9.5361C9.46107 9.5361 9.67592 9.34079 9.67592 9.07482L9.67592 8.12349C9.67592 7.84774 9.46107 7.63981 9.1681 7.63981L8.24607 7.63981C7.97494 7.63981 7.76986 7.85005 7.76986 8.12349L7.76986 9.07482C7.76986 9.33849 7.96748 9.5361 8.24607 9.5361ZM11.6349 9.5361L12.542 9.5361C12.8326 9.5361 13.0475 9.34079 13.0475 9.07482L13.0475 8.12349C13.0475 7.84774 12.8326 7.63981 12.542 7.63981L11.6349 7.63981C11.3614 7.63981 11.1512 7.85005 11.1512 8.12349L11.1512 9.07482C11.1512 9.33849 11.3465 9.5361 11.6349 9.5361ZM14.999 9.5361L15.921 9.5361C16.2214 9.5361 16.4288 9.34079 16.4288 9.07482L16.4288 8.12349C16.4288 7.84774 16.2214 7.63981 15.921 7.63981L14.999 7.63981C14.7353 7.63981 14.5302 7.85005 14.5302 8.12349L14.5302 9.07482C14.5302 9.33849 14.7353 9.5361 14.999 9.5361ZM4.85728 14.5479L5.77185 14.5479C6.06997 14.5479 6.28712 14.3526 6.28712 14.0866L6.28712 13.1353C6.28712 12.8596 6.06997 12.6493 5.77185 12.6493L4.85728 12.6493C4.58615 12.6493 4.38853 12.8619 4.38853 13.1353L4.38853 14.0866C4.38853 14.3503 4.58615 14.5479 4.85728 14.5479ZM8.24607 14.5479L9.1681 14.5479C9.46107 14.5479 9.67592 14.3526 9.67592 14.0866L9.67592 13.1353C9.67592 12.8596 9.46107 12.6493 9.1681 12.6493L8.24607 12.6493C7.97494 12.6493 7.76986 12.8619 7.76986 13.1353L7.76986 14.0866C7.76986 14.3503 7.96748 14.5479 8.24607 14.5479ZM11.6349 14.5479L12.542 14.5479C12.8326 14.5479 13.0475 14.3526 13.0475 14.0866L13.0475 13.1353C13.0475 12.8596 12.8326 12.6493 12.542 12.6493L11.6349 12.6493C11.3614 12.6493 11.1512 12.8619 11.1512 13.1353L11.1512 14.0866C11.1512 14.3503 11.3465 14.5479 11.6349 14.5479ZM14.999 14.5479L15.921 14.5479C16.2214 14.5479 16.4288 14.3526 16.4288 14.0866L16.4288 13.1353C16.4288 12.8596 16.2214 12.6493 15.921 12.6493L14.999 12.6493C14.7353 12.6493 14.5302 12.8619 14.5302 13.1353L14.5302 14.0866C14.5302 14.3503 14.7353 14.5479 14.999 14.5479ZM18.3878 14.5479L19.3023 14.5479C19.6005 14.5479 19.8153 14.3526 19.8153 14.0866L19.8153 13.1353C19.8153 12.8596 19.6005 12.6493 19.3023 12.6493L18.3878 12.6493C18.1143 12.6493 17.9116 12.8619 17.9116 13.1353L17.9116 14.0866C17.9116 14.3503 18.1143 14.5479 18.3878 14.5479Z"
                     fill="currentColor" fill-opacity="0.85" />
       </g>
</svg>