<?xml version="1.0" encoding="UTF-8"?>
<!--Generator: Apple Native CoreSVG 326-->
<!DOCTYPE svg PUBLIC "-//W3C//DTD SVG 1.1//EN" "http://www.w3.org/Graphics/SVG/1.1/DTD/svg11.dtd">
<svg version="1.1" xmlns="http://www.w3.org/2000/svg" xmlns:xlink="http://www.w3.org/1999/xlink"
       viewBox="0 0 18.6419 23.9165">
       <g>
              <rect height="23.9165" opacity="0" width="18.6419" x="0" y="0" />
              <path d="M0 20.3937C0 22.5634 1.33765 23.8895 3.53322 23.8895L14.7473 23.8895C16.9429 23.8895 18.2805 22.5634 18.2805 20.3937L18.2805 3.4981C18.2805 1.32843 16.9429 0 14.7473 0L3.53322 0C1.33765 0 0 1.32843 0 3.4981ZM3.01964 19.9137L3.01964 3.98559C3.01964 3.34895 3.32141 3.01964 3.99712 3.01964L14.2834 3.01964C14.9568 3.01964 15.2609 3.34895 15.2609 3.98559L15.2609 19.9137C15.2609 20.5429 14.9568 20.8699 14.2834 20.8699L3.99712 20.8699C3.32141 20.8699 3.01964 20.5429 3.01964 19.9137Z"
                     fill="currentColor" fill-opacity="0.85" />
              <path d="M4.69575 6.07556L5.5752 6.07556C5.85895 6.07556 6.07149 5.88485 6.07149 5.6281L6.07149 4.70958C6.07149 4.44306 5.85895 4.24489 5.5752 4.24489L4.69575 4.24489C4.43153 4.24489 4.24083 4.44536 4.24083 4.70958L4.24083 5.6281C4.24083 5.87509 4.43153 6.07556 4.69575 6.07556ZM7.35892 6.07556L8.23837 6.07556C8.52958 6.07556 8.73005 5.88485 8.73005 5.6281L8.73005 4.70958C8.73005 4.44306 8.52958 4.24489 8.23837 4.24489L7.35892 4.24489C7.0947 4.24489 6.89423 4.44536 6.89423 4.70958L6.89423 5.6281C6.89423 5.87509 7.08724 6.07556 7.35892 6.07556ZM10.0249 6.07556L10.8992 6.07556C11.183 6.07556 11.3932 5.88485 11.3932 5.6281L11.3932 4.70958C11.3932 4.44306 11.183 4.24489 10.8992 4.24489L10.0249 4.24489C9.76071 4.24489 9.55509 4.44536 9.55509 4.70958L9.55509 5.6281C9.55509 5.87509 9.75325 6.07556 10.0249 6.07556ZM12.6709 6.07556L13.5601 6.07556C13.8461 6.07556 14.0518 5.88485 14.0518 5.6281L14.0518 4.70958C14.0518 4.44306 13.8461 4.24489 13.5601 4.24489L12.6709 4.24489C12.4141 4.24489 12.2234 4.44536 12.2234 4.70958L12.2234 5.6281C12.2234 5.87509 12.4141 6.07556 12.6709 6.07556ZM4.69575 8.96594L5.5752 8.96594C5.85895 8.96594 6.07149 8.76547 6.07149 8.51387L6.07149 7.59766C6.07149 7.33114 5.85895 7.13528 5.5752 7.13528L4.69575 7.13528C4.43153 7.13528 4.24083 7.33344 4.24083 7.59766L4.24083 8.51387C4.24083 8.76547 4.43153 8.96594 4.69575 8.96594ZM7.35892 8.96594L8.23837 8.96594C8.52958 8.96594 8.73005 8.76547 8.73005 8.51387L8.73005 7.59766C8.73005 7.33114 8.52958 7.13528 8.23837 7.13528L7.35892 7.13528C7.0947 7.13528 6.89193 7.33344 6.89193 7.59766L6.89193 8.51387C6.89193 8.76547 7.08724 8.96594 7.35892 8.96594ZM10.0249 8.96594L10.8992 8.96594C11.183 8.96594 11.3932 8.76547 11.3932 8.51617L11.3932 7.59766C11.3932 7.33114 11.183 7.13528 10.8992 7.13528L10.0249 7.13528C9.76071 7.13528 9.55509 7.33344 9.55509 7.59766L9.55509 8.51617C9.55509 8.76547 9.75325 8.96594 10.0249 8.96594ZM12.6709 8.96594L13.5601 8.96594C13.8461 8.96594 14.0518 8.76547 14.0518 8.51617L14.0518 7.59766C14.0518 7.33114 13.8461 7.13528 13.5601 7.13528L12.6709 7.13528C12.4141 7.13528 12.2234 7.33344 12.2234 7.59766L12.2234 8.51617C12.2234 8.76547 12.4141 8.96594 12.6709 8.96594ZM4.69575 11.854L5.5752 11.854C5.85895 11.854 6.07149 11.6656 6.07149 11.4066L6.07149 10.4903C6.07149 10.2238 5.85895 10.0234 5.5752 10.0234L4.69575 10.0234C4.43153 10.0234 4.24083 10.2238 4.24083 10.4903L4.24083 11.4066C4.24083 11.6633 4.43153 11.854 4.69575 11.854ZM7.35892 11.854L8.23837 11.854C8.52958 11.854 8.73005 11.6656 8.73005 11.4066L8.73005 10.4903C8.73005 10.2238 8.52958 10.0234 8.23837 10.0234L7.35892 10.0234C7.0947 10.0234 6.89193 10.2238 6.89193 10.4903L6.89193 11.4066C6.89193 11.6633 7.08724 11.854 7.35892 11.854ZM4.69575 19.6372L5.5752 19.6372C5.85895 19.6372 6.07149 19.4413 6.07149 19.1897L6.07149 18.2712C6.07149 18.0047 5.85895 17.8013 5.5752 17.8013L4.69575 17.8013C4.43153 17.8013 4.24083 18.007 4.24083 18.2712L4.24083 19.1897C4.24083 19.439 4.43153 19.6372 4.69575 19.6372ZM7.35892 19.6372L8.23837 19.6372C8.52958 19.6372 8.73005 19.4413 8.73005 19.1897L8.73005 18.2712C8.73005 18.0047 8.52958 17.8013 8.23837 17.8013L7.35892 17.8013C7.0947 17.8013 6.89193 18.007 6.89193 18.2712L6.89193 19.1897C6.89193 19.439 7.08724 19.6372 7.35892 19.6372ZM10.0249 19.6372L10.9015 19.6372C11.183 19.6372 11.3932 19.4413 11.3932 19.1897L11.3932 18.2712C11.3932 18.0047 11.183 17.8013 10.9015 17.8013L10.0249 17.8013C9.76071 17.8013 9.55509 18.007 9.55509 18.2712L9.55509 19.1897C9.55509 19.439 9.75325 19.6372 10.0249 19.6372ZM12.6709 19.6372L13.5601 19.6372C13.8461 19.6372 14.0518 19.4413 14.0518 19.1897L14.0518 18.2712C14.0518 18.0047 13.8461 17.8013 13.5601 17.8013L12.6709 17.8013C12.4141 17.8013 12.2257 18.007 12.2257 18.2712L12.2257 19.1897C12.2257 19.439 12.4141 19.6372 12.6709 19.6372Z"
                     fill="currentColor" fill-opacity="0.85" />
       </g>
</svg>