<?xml version="1.0" encoding="UTF-8"?>
<!--Generator: Apple Native CoreSVG 326-->
<!DOCTYPE svg PUBLIC "-//W3C//DTD SVG 1.1//EN" "http://www.w3.org/Graphics/SVG/1.1/DTD/svg11.dtd">
<svg version="1.1" xmlns="http://www.w3.org/2000/svg" xmlns:xlink="http://www.w3.org/1999/xlink"
       viewBox="0 0 33.251 27.4706">
       <g>
              <rect height="27.4706" opacity="0" width="33.251" x="0" y="0" />
              <path d="M18.0834 25.0305C18.0834 25.9397 17.3529 26.6679 16.4437 26.6679C15.5293 26.6679 14.8063 25.9448 14.8063 25.0305C14.8063 24.1185 15.5317 23.3931 16.4437 23.3931C17.3431 23.3931 18.0834 24.1311 18.0834 25.0305ZM13.214 22.2256C13.214 23.1497 12.5081 23.863 11.5766 23.863C10.6772 23.863 9.94432 23.1325 9.94432 22.2256C9.94432 21.3285 10.6869 20.5859 11.5766 20.5859C12.4984 20.5859 13.214 21.3113 13.214 22.2256ZM19.68 22.0918C19.7175 21.5982 19.9688 21.1705 20.3439 20.8998ZM8.35434 19.3793C8.35434 20.3281 7.63126 21.019 6.71463 21.019C5.80776 21.019 5.08468 20.2885 5.08468 19.3793C5.08468 18.4845 5.81983 17.7419 6.71463 17.7419C7.62896 17.7419 8.35434 18.4673 8.35434 19.3793ZM8.35434 13.7304C8.35434 14.6545 7.63872 15.3678 6.71463 15.3678C5.80776 15.3678 5.08468 14.6373 5.08468 13.7304C5.08468 12.8333 5.82498 12.093 6.71463 12.093C7.6215 12.093 8.35434 12.8235 8.35434 13.7304ZM27.805 13.7304C27.805 13.9536 27.761 14.1661 27.681 14.3595C27.1915 14.0413 26.6227 13.8783 26.0352 13.8783C25.5355 13.8783 25.0502 14.0001 24.6171 14.2331C24.5685 14.0757 24.5428 13.9069 24.5428 13.7304C24.5428 12.8235 25.2733 12.093 26.1802 12.093C27.0624 12.093 27.805 12.8333 27.805 13.7304ZM8.35434 8.07921C8.35434 9.0033 7.63872 9.71892 6.71463 9.71892C5.80776 9.71892 5.08468 8.98607 5.08468 8.07921C5.08468 7.1821 5.82498 6.44179 6.71463 6.44179C7.6215 6.44179 8.35434 7.17234 8.35434 8.07921ZM27.7734 8.07921C27.7734 8.99584 27.0601 9.71892 26.1411 9.71892C25.2291 9.71892 24.5037 8.99354 24.5037 8.07921C24.5037 7.18441 25.2463 6.44179 26.1411 6.44179C27.0354 6.44179 27.7734 7.17234 27.7734 8.07921ZM13.214 5.23522C13.214 6.15932 12.5081 6.87494 11.5766 6.87494C10.6772 6.87494 9.94432 6.14209 9.94432 5.23522C9.94432 4.33812 10.6869 3.59781 11.5766 3.59781C12.4834 3.59781 13.214 4.32836 13.214 5.23522ZM22.9505 5.23522C22.9505 6.15932 22.2372 6.87494 21.3131 6.87494C20.3988 6.87494 19.6734 6.14955 19.6734 5.23522C19.6734 4.33812 20.416 3.59781 21.3131 3.59781C22.22 3.59781 22.9505 4.32836 22.9505 5.23522ZM18.0834 2.43031C18.0834 3.3544 17.3752 4.06772 16.4437 4.06772C15.5368 4.06772 14.8063 3.33718 14.8063 2.43031C14.8063 1.5332 15.5563 0.790591 16.4437 0.790591C17.3505 0.790591 18.0834 1.52344 18.0834 2.43031Z"
                     fill="currentColor" fill-opacity="0.85" />
              <path d="M18.4946 19.3793C18.4946 20.5286 17.5929 21.4326 16.4437 21.4326C15.314 21.4326 14.3927 20.5113 14.3927 19.3793C14.3927 18.2594 15.3312 17.3283 16.4437 17.3283C17.5809 17.3283 18.4946 18.2421 18.4946 19.3793ZM13.635 16.5646C13.635 17.7139 12.731 18.6156 11.5766 18.6156C10.452 18.6156 9.52561 17.6869 9.52561 16.5646C9.52561 15.4424 10.4618 14.5039 11.5766 14.5039C12.7138 14.5039 13.635 15.4251 13.635 16.5646ZM23.2006 15.7707L21.6315 18.588C21.5282 18.607 21.4216 18.6156 21.3131 18.6156C20.1638 18.6156 19.2621 17.7139 19.2621 16.5646C19.2621 15.4251 20.1736 14.5039 21.3131 14.5039C22.148 14.5039 22.8849 15.0325 23.2006 15.7707ZM13.635 10.8962C13.635 12.0454 12.7407 12.9472 11.5766 12.9472C10.452 12.9472 9.52561 12.0282 9.52561 10.8962C9.52561 9.7837 10.4641 8.84523 11.5766 8.84523C12.7063 8.84523 13.635 9.76417 13.635 10.8962ZM23.364 10.8962C23.364 12.0454 22.4623 12.9472 21.3131 12.9472C20.1736 12.9472 19.2621 12.0357 19.2621 10.8962C19.2621 9.7837 20.1931 8.84523 21.3131 8.84523C22.4428 8.84523 23.364 9.76417 23.364 10.8962ZM18.4946 8.07921C18.4946 9.22846 17.5929 10.1325 16.4437 10.1325C15.314 10.1325 14.3927 9.21123 14.3927 8.07921C14.3927 6.95925 15.3312 6.02824 16.4437 6.02824C17.5757 6.02824 18.4946 6.94949 18.4946 8.07921Z"
                     fill="currentColor" fill-opacity="0.85" />
              <path d="M18.791 13.7304C18.791 15.0439 17.7572 16.068 16.4437 16.068C15.1549 16.068 14.1061 15.0192 14.1061 13.7304C14.1061 12.4514 15.1669 11.3854 16.4437 11.3854C17.74 11.3854 18.791 12.4341 18.791 13.7304Z"
                     fill="currentColor" fill-opacity="0.85" />
              <path d="M27.3551 16.204L31.5158 23.6614C31.6577 23.8963 31.7163 24.1536 31.7163 24.4132C31.7163 25.2277 31.0965 25.941 30.1936 25.941L21.8745 25.941C20.9716 25.941 20.349 25.2277 20.349 24.4132C20.349 24.1536 20.4225 23.8963 20.5621 23.6614L24.713 16.204C25.0146 15.6773 25.516 15.4079 26.0352 15.4079C26.5619 15.4079 27.0513 15.6549 27.3551 16.204ZM24.9785 23.5136C24.9785 24.0873 25.4242 24.5083 26.0278 24.5083C26.6463 24.5083 27.0845 24.0873 27.0845 23.5136C27.0845 22.9473 26.6262 22.5389 26.0278 22.5389C25.4339 22.5389 24.9785 22.9398 24.9785 23.5136ZM25.0974 18.7302L25.183 21.1839C25.2002 21.6404 25.5465 21.9718 26.0278 21.9718C26.5165 21.9718 26.8628 21.6404 26.8874 21.1839L26.973 18.7302C26.9903 18.1829 26.5848 17.8124 26.0278 17.8124C25.473 17.8124 25.0727 18.1903 25.0974 18.7302Z"
                     fill="currentColor" fill-opacity="0.85" />
       </g>
</svg>