<?xml version="1.0" encoding="UTF-8"?>
<!--Generator: Apple Native CoreSVG 326-->
<!DOCTYPE svg PUBLIC "-//W3C//DTD SVG 1.1//EN" "http://www.w3.org/Graphics/SVG/1.1/DTD/svg11.dtd">
<svg version="1.1" xmlns="http://www.w3.org/2000/svg" xmlns:xlink="http://www.w3.org/1999/xlink"
       viewBox="0 0 22.5445 25.3965">
       <g>
              <rect height="25.3965" opacity="0" width="22.5445" x="0" y="0" />
              <path d="M11.1149 2.77908C11.9022 2.77908 12.4984 2.18065 12.4984 1.39327C12.4984 0.62312 11.885 0 11.1149 0C10.3545 0 9.72159 0.632886 9.72159 1.39327C9.72159 2.16342 10.3447 2.77908 11.1149 2.77908ZM6.24545 5.584C7.03283 5.584 7.63126 4.98557 7.63126 4.19819C7.63126 3.42804 7.0156 2.80492 6.24545 2.80492C5.48737 2.80492 4.85964 3.4378 4.85964 4.19819C4.85964 4.96834 5.4753 5.584 6.24545 5.584ZM15.9745 5.584C16.7693 5.584 17.3678 4.98557 17.3678 4.19819C17.3678 3.42804 16.7447 2.80492 15.9745 2.80492C15.2239 2.80492 14.5887 3.4378 14.5887 4.19819C14.5887 4.9758 15.1969 5.584 15.9745 5.584ZM1.37835 8.42798C2.17319 8.42798 2.76931 7.82955 2.76931 7.04217C2.76931 6.27432 2.1485 5.6512 1.37835 5.6512C0.632886 5.6512 0 6.28409 0 7.04217C0 7.81232 0.608199 8.42798 1.37835 8.42798ZM20.8048 8.42798C21.5848 8.42798 22.1832 7.82209 22.1832 7.04217C22.1832 6.27202 21.5675 5.6512 20.8048 5.6512C20.0519 5.6512 19.419 6.28409 19.419 7.04217C19.419 7.81978 20.0272 8.42798 20.8048 8.42798ZM1.37835 14.0792C2.16342 14.0792 2.76931 13.4784 2.76931 12.6934C2.76931 11.9232 2.1485 11.3001 1.37835 11.3001C0.632886 11.3001 0 11.933 0 12.6934C0 13.4635 0.608199 14.0792 1.37835 14.0792ZM20.8048 14.0792C21.5848 14.0792 22.1832 13.4733 22.1832 12.6934C22.1832 11.9232 21.5675 11.3001 20.8048 11.3001C20.0519 11.3001 19.419 11.933 19.419 12.6934C19.419 13.471 20.0272 14.0792 20.8048 14.0792ZM1.37835 19.7281C2.19557 19.7281 2.76931 19.1296 2.76931 18.3423C2.76931 17.567 2.15596 16.9513 1.37835 16.9513C0.625425 16.9513 0 17.5842 0 18.3423C0 19.1124 0.608199 19.7281 1.37835 19.7281ZM20.8048 19.7281C21.5848 19.7281 22.1832 19.1245 22.1832 18.3423C22.1832 17.5744 21.575 16.9513 20.8048 16.9513C20.037 16.9513 19.419 17.5767 19.419 18.3423C19.419 19.1199 20.0272 19.7281 20.8048 19.7281ZM6.24545 22.5721C7.03283 22.5721 7.63126 21.9759 7.63126 21.1886C7.63126 20.4109 7.02306 19.7953 6.24545 19.7953C5.48737 19.7953 4.85964 20.4282 4.85964 21.1886C4.85964 21.9587 5.4753 22.5721 6.24545 22.5721ZM15.9745 22.5721C16.7693 22.5721 17.3678 21.9759 17.3678 21.1886C17.3678 20.4109 16.7521 19.7953 15.9745 19.7953C15.2164 19.7953 14.5887 20.4207 14.5887 21.1886C14.5887 21.9662 15.1969 22.5721 15.9745 22.5721ZM11.1149 25.3793C11.8948 25.3793 12.4984 24.7734 12.4984 23.9935C12.4984 23.2159 11.8925 22.6077 11.1149 22.6077C10.3545 22.6077 9.72159 23.2331 9.72159 23.9935C9.72159 24.7636 10.3447 25.3793 11.1149 25.3793Z"
                     fill="currentColor" fill-opacity="0.85" />
              <path d="M11.1149 8.84153C12.1251 8.84153 12.9119 8.0547 12.9119 7.04217C12.9119 6.04917 12.1004 5.23765 11.1149 5.23765C10.1293 5.23765 9.30804 6.05893 9.30804 7.04217C9.30804 8.03748 10.1196 8.84153 11.1149 8.84153ZM6.24545 11.666C7.25798 11.666 8.05228 10.8941 8.05228 9.85916C8.05228 8.86385 7.24076 8.0598 6.24545 8.0598C5.26222 8.0598 4.44093 8.88338 4.44093 9.85916C4.44093 10.8545 5.25245 11.666 6.24545 11.666ZM15.9745 11.666C16.9945 11.666 17.7813 10.8717 17.7813 9.85916C17.7813 8.86385 16.9698 8.0598 15.9745 8.0598C14.9987 8.0598 14.1774 8.88338 14.1774 9.85916C14.1774 10.8619 14.974 11.666 15.9745 11.666ZM6.24545 17.327C7.25798 17.327 8.05228 16.5401 8.05228 15.5276C8.05228 14.5248 7.24822 13.7208 6.24545 13.7208C5.26222 13.7208 4.44093 14.542 4.44093 15.5276C4.44093 16.5131 5.25245 17.327 6.24545 17.327ZM15.9745 17.327C16.9945 17.327 17.7813 16.5401 17.7813 15.5276C17.7813 14.5248 16.9773 13.7208 15.9745 13.7208C14.9913 13.7208 14.1774 14.5346 14.1774 15.5276C14.1774 16.5206 14.974 17.327 15.9745 17.327ZM11.1149 20.1416C12.1251 20.1416 12.9119 19.3548 12.9119 18.3423C12.9119 17.3418 12.1153 16.5378 11.1149 16.5378C10.1316 16.5378 9.30804 17.359 9.30804 18.3423C9.30804 19.3376 10.1196 20.1416 11.1149 20.1416Z"
                     fill="currentColor" fill-opacity="0.85" />
              <path d="M11.1149 14.7868C12.2842 14.7868 13.2083 13.8702 13.2083 12.6934C13.2083 11.5413 12.2647 10.5999 11.1149 10.5999C9.97252 10.5999 9.02144 11.551 9.02144 12.6934C9.02144 13.8432 9.9553 14.7868 11.1149 14.7868Z"
                     fill="currentColor" fill-opacity="0.85" />
       </g>
</svg>