<?xml version="1.0" encoding="UTF-8"?>
<!--Generator: Apple Native CoreSVG 326-->
<!DOCTYPE svg PUBLIC "-//W3C//DTD SVG 1.1//EN" "http://www.w3.org/Graphics/SVG/1.1/DTD/svg11.dtd">
<svg version="1.1" xmlns="http://www.w3.org/2000/svg" xmlns:xlink="http://www.w3.org/1999/xlink"
       viewBox="0 0 30.5611 19.5678">
       <g>
              <rect height="19.5678" opacity="0" width="30.5611" x="0" y="0" />
              <path d="M5.07716 19.5678L25.1227 19.5678C28.8816 19.5678 30.5846 17.4088 30.1165 13.5366L29.0395 4.65572C28.6719 1.57609 27.0349 0 24.1925 0L6.00732 0C3.16492 0 1.52047 1.57609 1.15289 4.65572L0.0758228 13.5366C-0.39226 17.4088 1.31078 19.5678 5.07716 19.5678ZM5.07716 16.5482C3.55579 16.5482 2.87886 15.5099 3.08285 13.7976L4.15301 5.02032C4.31101 3.69711 4.93911 3.01964 6.00732 3.01964L24.1925 3.01964C25.2607 3.01964 25.8813 3.69711 26.0445 5.02032L27.1072 13.7976C27.3209 15.5122 26.6366 16.5482 25.1227 16.5482Z"
                     fill="currentColor" fill-opacity="0.85" />
              <path d="M8.50368 12.3935C9.04407 12.3935 9.42141 12.1506 9.42141 11.7796L9.42141 9.25697C10.2976 8.90146 10.9175 8.04142 10.9175 7.03028C10.9175 5.69755 9.83642 4.60895 8.50368 4.60895C7.16864 4.60895 6.07489 5.69985 6.07489 7.03028C6.07489 8.04372 6.70232 8.90892 7.58826 9.26158L7.58826 11.7796C7.58826 12.1506 7.97076 12.3935 8.50368 12.3935ZM8.51114 14.7772C10.6502 14.7772 12.1489 13.6157 12.1489 11.9924C12.1489 10.9079 11.4727 10.0331 10.406 9.56322L10.406 11.2454C10.5957 11.4448 10.7061 11.6993 10.7061 11.9924C10.7061 12.8811 9.81513 13.4912 8.51114 13.4912C7.1997 13.4912 6.29895 12.8811 6.29895 11.9924C6.29895 11.697 6.40419 11.435 6.60369 11.2356L6.60369 9.57068C5.53978 10.0233 4.86365 10.9079 4.86365 11.9924C4.86365 13.6157 6.37204 14.7772 8.51114 14.7772ZM14.2217 9.23094C15.1097 9.23094 15.7967 8.55141 15.7967 7.66571C15.7967 6.78517 15.1097 6.09072 14.2217 6.09072C13.3509 6.09072 12.649 6.78517 12.649 7.66571C12.649 8.55141 13.3509 9.23094 14.2217 9.23094ZM18.5018 9.23094C19.38 9.23094 20.0768 8.55141 20.0768 7.66571C20.0768 6.78517 19.38 6.09072 18.5018 6.09072C17.6213 6.09072 16.9268 6.78517 16.9268 7.66571C16.9268 8.55141 17.6213 9.23094 18.5018 9.23094ZM22.7474 9.23094C23.6331 9.23094 24.3224 8.55141 24.3224 7.66571C24.3224 6.78517 23.6331 6.09072 22.7474 6.09072C21.8766 6.09072 21.1724 6.78517 21.1724 7.66571C21.1724 8.55141 21.8766 9.23094 22.7474 9.23094ZM15.4793 13.484C16.365 13.484 17.052 12.8045 17.052 11.9188C17.052 11.0383 16.365 10.3438 15.4793 10.3438C14.6062 10.3438 13.9043 11.0383 13.9043 11.9188C13.9043 12.8045 14.6062 13.484 15.4793 13.484ZM19.7571 13.484C20.6376 13.484 21.3321 12.8045 21.3321 11.9188C21.3321 11.0383 20.6376 10.3438 19.7571 10.3438C18.8788 10.3438 18.1844 11.0383 18.1844 11.9188C18.1844 12.8045 18.8788 13.484 19.7571 13.484ZM24.0125 13.484C24.893 13.484 25.5875 12.8045 25.5875 11.9188C25.5875 11.0383 24.893 10.3438 24.0125 10.3438C23.1342 10.3438 22.4398 11.0383 22.4398 11.9188C22.4398 12.8045 23.1342 13.484 24.0125 13.484Z"
                     fill="currentColor" fill-opacity="0.85" />
       </g>
</svg>