<?xml version="1.0" encoding="UTF-8"?>
<!--Generator: Apple Native CoreSVG 326-->
<!DOCTYPE svg PUBLIC "-//W3C//DTD SVG 1.1//EN" "http://www.w3.org/Graphics/SVG/1.1/DTD/svg11.dtd">
<svg version="1.1" xmlns="http://www.w3.org/2000/svg" xmlns:xlink="http://www.w3.org/1999/xlink"
       viewBox="0 0 20.7483 19.0575">
       <g>
              <rect height="19.0575" opacity="0" width="20.7483" x="0" y="0" />
              <path d="M4.84448 19.0575L15.5424 19.0575C17.8319 19.0575 19.1557 17.7406 19.1557 15.4535L19.1557 7.09258L1.23126 7.09258L1.23126 15.4535C1.23126 17.7429 2.55508 19.0575 4.84448 19.0575ZM7.28158 11.4088C6.65506 11.4088 6.18534 10.9391 6.18534 10.3005L6.18534 9.98284C6.18534 9.34425 6.6476 8.89176 7.28158 8.89176L13.1226 8.89176C13.7566 8.89176 14.2211 9.34425 14.2211 9.98284L14.2211 10.3005C14.2211 10.9391 13.7416 11.4088 13.1226 11.4088ZM2.13764 5.36673L18.2642 5.36673C19.6736 5.36673 20.3869 4.60798 20.3869 3.20834L20.3869 2.17792C20.3869 0.785739 19.6736 0.0195312 18.2642 0.0195312L2.13764 0.0195312C0.756988 0.0195312 0 0.785739 0 2.17792L0 3.20834C0 4.60798 0.735698 5.36673 2.13764 5.36673Z"
                     fill="currentColor" fill-opacity="0.85" />
       </g>
</svg>