<?xml version="1.0" encoding="UTF-8"?>
<!--Generator: Apple Native CoreSVG 326-->
<!DOCTYPE svg PUBLIC "-//W3C//DTD SVG 1.1//EN" "http://www.w3.org/Graphics/SVG/1.1/DTD/svg11.dtd">
<svg version="1.1" xmlns="http://www.w3.org/2000/svg" xmlns:xlink="http://www.w3.org/1999/xlink"
       viewBox="0 0 21.365 21.2404">
       <g>
              <rect height="21.2404" opacity="0" width="21.365" x="0" y="0" />
              <path d="M21.0037 10.4981C21.0037 16.302 16.302 21.0037 10.4981 21.0037C4.70394 21.0037 0 16.302 0 10.4981C0 4.70394 4.70394 0 10.4981 0C16.302 0 21.0037 4.70394 21.0037 10.4981ZM7.49812 9.33885L7.49812 12.2799L7.57679 12.9971L7.13152 12.3853L6.27147 11.419C6.09976 11.2301 5.85968 11.1348 5.62476 11.1348C5.11761 11.1348 4.66621 11.5965 4.66621 12.091C4.66621 12.3282 4.75695 12.5562 4.9482 12.7377L7.73753 15.5052C7.938 15.6884 8.17522 15.7987 8.42968 15.7987C8.6669 15.7987 8.91905 15.6982 9.12698 15.5052L11.9158 12.7354C12.0898 12.5637 12.1828 12.3185 12.1828 12.0738C12.1828 11.5741 11.7463 11.1124 11.222 11.1124C10.9848 11.1124 10.747 11.2226 10.5804 11.419L9.74373 12.4463L9.3744 12.9948L9.44561 12.2799L9.44561 9.33885C9.44561 8.07084 10.2821 7.23372 11.523 7.23372C12.7892 7.23372 13.6194 8.06799 13.6194 9.32623L13.6194 10.8185C13.6194 11.5013 14.0243 11.9705 14.633 11.9705C15.259 11.9705 15.6788 11.5065 15.6788 10.8213L15.6788 9.32623C15.6788 6.81604 14.0211 5.14218 11.523 5.14218C9.11218 5.14218 7.49812 6.8212 7.49812 9.33885Z"
                     fill="currentColor" fill-opacity="0.85" />
       </g>
</svg>