<?xml version="1.0" encoding="UTF-8"?>
<!--Generator: Apple Native CoreSVG 326-->
<!DOCTYPE svg PUBLIC "-//W3C//DTD SVG 1.1//EN" "http://www.w3.org/Graphics/SVG/1.1/DTD/svg11.dtd">
<svg version="1.1" xmlns="http://www.w3.org/2000/svg" xmlns:xlink="http://www.w3.org/1999/xlink"
       viewBox="0 0 25.1751 19.341">
       <g>
              <rect height="19.341" opacity="0" width="25.1751" x="0" y="0" />
              <path d="M19.4543 18.8531L24.3538 13.7893C24.634 13.5114 24.8137 13.0859 24.8137 12.6972C24.8137 11.8065 24.1861 11.1738 23.2978 11.1738C22.8872 11.1738 22.5152 11.3191 22.2372 11.6119L20.2881 13.6518L19.82 14.2022L19.8482 12.6477L19.8482 1.53876C19.8482 0.665368 19.1959 0.0107668 18.3225 0.0107668C17.4468 0.0107668 16.7945 0.665368 16.7945 1.53876L16.7945 12.6477L16.825 14.2022L16.3569 13.6518L14.4078 11.6119C14.1298 11.3191 13.7555 11.1738 13.3472 11.1738C12.4663 11.1738 11.829 11.8065 11.829 12.6972C11.829 13.0859 12.011 13.5114 12.2912 13.7893L17.1907 18.8531C17.8206 19.5025 18.8198 19.5048 19.4543 18.8531Z"
                     fill="currentColor" fill-opacity="0.85" />
              <path d="M5.36921 0.505175L0.459955 5.54939C0.182029 5.82962 0 6.25513 0 6.64157C0 7.53218 0.63507 8.16725 1.51592 8.16725C1.9265 8.16725 2.30087 8.01967 2.57879 7.72683L4.52798 5.6869L4.99606 5.13882L4.96555 6.69337L4.96555 17.8023C4.96555 18.6854 5.61784 19.3377 6.49354 19.3377C7.36692 19.3377 8.02668 18.6854 8.02668 17.8023L8.02668 6.69337L7.99847 5.13882L8.45679 5.6869L10.4157 7.72683C10.6937 8.01967 11.0657 8.16725 11.4763 8.16725C12.3572 8.16725 12.9922 7.53218 12.9922 6.64157C12.9922 6.25513 12.8125 5.82962 12.5323 5.54939L7.62532 0.505175C6.9954-0.151731 6.00143-0.156341 5.36921 0.505175Z"
                     fill="currentColor" fill-opacity="0.85" />
       </g>
</svg>