<?xml version="1.0" encoding="UTF-8"?>
<!--Generator: Apple Native CoreSVG 326-->
<!DOCTYPE svg PUBLIC "-//W3C//DTD SVG 1.1//EN" "http://www.w3.org/Graphics/SVG/1.1/DTD/svg11.dtd">
<svg version="1.1" xmlns="http://www.w3.org/2000/svg" xmlns:xlink="http://www.w3.org/1999/xlink"
       viewBox="0 0 42.129 17.3604">
       <g>
              <rect height="17.3604" opacity="0" width="42.129" x="0" y="0" />
              <path d="M0 8.67533C0 9.15603 0.215936 9.64189 0.5732 9.97962L7.5532 16.5862C8.11663 17.1129 8.61971 17.3484 9.22045 17.3484C10.1433 17.3484 10.8457 16.6437 10.8457 15.7381L10.8457 12.7432L16.8222 12.7432C18.5538 12.7432 19.6445 11.6577 19.6445 9.97252L19.6445 7.37299C19.6445 5.66085 18.5636 4.60464 16.8222 4.60464L10.8457 4.60464L10.8457 1.66659C10.8457 0.736244 10.1238 0 9.21068 0C8.62432 0 8.21944 0.201014 7.5532 0.818433L0.5732 7.35382C0.196404 7.71108 0 8.18717 0 8.67533ZM41.7677 8.68279C41.7677 8.19694 41.5713 7.71854 41.1945 7.36128L34.2122 0.833354C33.5483 0.218241 33.1531 0.00976562 32.557 0.00976562C31.6439 0.00976562 30.922 0.743704 30.922 1.67405L30.922 4.6121L24.9455 4.6121C23.2041 4.6121 22.1232 5.66831 22.1232 7.38045L22.1232 9.97998C22.1232 11.6726 23.2139 12.7581 24.9455 12.7581L30.922 12.7581L30.922 15.753C30.922 16.6512 31.6318 17.3535 32.5473 17.3535C33.1555 17.3535 33.6562 17.1181 34.2122 16.5937L41.1945 9.98708C41.5592 9.64935 41.7677 9.16865 41.7677 8.68279Z"
                     fill="currentColor" fill-opacity="0.85" />
       </g>
</svg>