<?xml version="1.0" encoding="UTF-8"?>
<!--Generator: Apple Native CoreSVG 326-->
<!DOCTYPE svg PUBLIC "-//W3C//DTD SVG 1.1//EN" "http://www.w3.org/Graphics/SVG/1.1/DTD/svg11.dtd">
<svg version="1.1" xmlns="http://www.w3.org/2000/svg" xmlns:xlink="http://www.w3.org/1999/xlink"
       viewBox="0 0 19.3993 19.0529">
       <g>
              <rect height="19.0529" opacity="0" width="19.3993" x="0" y="0" />
              <path d="M19.0379 3.63912L19.0379 15.4011C19.0379 17.7262 17.7164 19.0379 15.3896 19.0379L3.64834 19.0379C1.32382 19.0379 0 17.7262 0 15.4011L0 3.63912C0 1.32151 1.32382 0 3.64834 0L15.3896 0C17.7164 0 19.0379 1.32151 19.0379 3.63912ZM12.6731 6.15259L12.6731 13.1017C12.6731 13.6714 13.1279 14.1239 13.6878 14.1239C14.2598 14.1239 14.7169 13.6714 14.7169 13.1017L14.7169 6.15259C14.7169 5.58291 14.2598 5.12811 13.6878 5.12811C13.1279 5.12811 12.6731 5.58291 12.6731 6.15259ZM7.0136 6.34341C7.0136 6.67071 7.15426 6.89872 7.36789 7.10258L8.01527 7.75282L9.09616 8.6814L7.7354 8.56882L4.84945 8.56882C4.18278 8.56882 3.72568 8.99378 3.72568 9.6283C3.72568 10.2697 4.18278 10.7022 4.84945 10.7022L7.7354 10.7022L9.09847 10.5752L8.01758 11.5061L7.36789 12.1443C7.16172 12.351 7.0136 12.5841 7.0136 12.9235C7.0136 13.4909 7.44371 13.921 8.06562 13.921C8.32116 13.921 8.61061 13.8182 8.81217 13.5919L11.8388 10.4122C12.0272 10.2209 12.1552 9.94299 12.1552 9.6283C12.1552 9.31592 12.0226 9.03569 11.8388 8.84444L8.80987 5.66522C8.59854 5.43436 8.32577 5.33331 8.06792 5.33331C7.44832 5.33331 7.0136 5.76111 7.0136 6.34341Z"
                     fill="currentColor" fill-opacity="0.85" />
       </g>
</svg>