<?xml version="1.0" encoding="UTF-8"?>
<!--Generator: Apple Native CoreSVG 326-->
<!DOCTYPE svg PUBLIC "-//W3C//DTD SVG 1.1//EN" "http://www.w3.org/Graphics/SVG/1.1/DTD/svg11.dtd">
<svg version="1.1" xmlns="http://www.w3.org/2000/svg" xmlns:xlink="http://www.w3.org/1999/xlink"
       viewBox="0 0 21.365 21.006">
       <g>
              <rect height="21.006" opacity="0" width="21.365" x="0" y="0" />
              <path d="M21.0037 10.5079C21.0037 16.3043 16.302 21.006 10.4981 21.006C4.70394 21.006 0 16.3043 0 10.5079C0 4.7137 4.70394 0.00976562 10.4981 0.00976562C16.302 0.00976562 21.0037 4.7137 21.0037 10.5079ZM9.4339 5.65181C9.4339 5.94696 9.56425 6.10036 9.66421 6.25485L9.90477 6.51495C9.84157 6.5201 9.76399 6.52526 9.69848 6.53272C7.64175 6.80877 5.96862 8.71252 5.96862 10.9669C5.96862 13.4864 8.00787 15.5228 10.4981 15.5228C12.9958 15.5228 15.0351 13.4864 15.0351 10.9835C15.0351 10.4236 14.586 9.98429 14.0433 9.98429C13.4759 9.98429 13.0268 10.4236 13.0268 10.9835C13.0268 12.3912 11.9035 13.5168 10.4981 13.5168C9.09271 13.5168 7.97688 12.3763 7.97688 10.9835C7.97688 9.86911 8.67491 8.86288 9.61028 8.69875C9.69247 8.67637 9.78443 8.65629 9.87462 8.61614L9.57699 8.94877C9.4971 9.0585 9.45628 9.23197 9.45628 9.41522C9.45628 10.0004 9.86632 10.3209 10.3843 10.3209C10.6399 10.3209 10.8954 10.2106 11.0551 10.0435L12.8217 8.26196C13.2024 7.89845 13.1829 7.27994 12.8291 6.92159L11.0671 5.13775C10.8926 4.96603 10.6496 4.80584 10.3619 4.80584C9.76702 4.80584 9.4339 5.23826 9.4339 5.65181Z"
                     fill="currentColor" fill-opacity="0.85" />
       </g>
</svg>