<?xml version="1.0" encoding="UTF-8"?>
<!--Generator: Apple Native CoreSVG 326-->
<!DOCTYPE svg PUBLIC "-//W3C//DTD SVG 1.1//EN" "http://www.w3.org/Graphics/SVG/1.1/DTD/svg11.dtd">
<svg version="1.1" xmlns="http://www.w3.org/2000/svg" xmlns:xlink="http://www.w3.org/1999/xlink"
       viewBox="0 0 19.8479 21.0659">
       <g>
              <rect height="21.0659" opacity="0" width="19.8479" x="0" y="0" />
              <path d="M0 13.8432C0 18.2623 2.89135 21.0659 7.22905 21.0659L9.85795 21.0659C10.8352 21.0659 11.5822 20.3023 11.5822 19.3612C11.5822 18.4201 10.8352 17.6564 9.85795 17.6564L7.5074 17.6564C4.9607 17.6564 3.31995 16.0763 3.31995 13.8127C3.31995 11.5438 4.9607 9.9317 7.5074 9.9317L12.1475 9.9317L16.2589 9.74276L15.5385 8.82352L13.0196 10.8565L11.4904 12.3398C11.17 12.6453 10.9352 13.0173 10.9352 13.5547C10.9352 14.4729 11.5978 15.1602 12.5779 15.1602C13.0166 15.1602 13.457 14.973 13.7946 14.6331L18.9922 9.47581C19.2994 9.17835 19.4866 8.68516 19.4866 8.22696C19.4866 7.76646 19.2994 7.28073 18.9922 6.97581L13.7946 1.81107C13.457 1.47346 13.0166 1.28397 12.5779 1.28397C11.5978 1.28397 10.9352 1.97872 10.9352 2.89687C10.9352 3.42683 11.17 3.79889 11.4904 4.11182L13.0196 5.5974L15.5385 7.63556L16.2589 6.71632L12.1475 6.51992L7.28085 6.51992C2.91495 6.51992 0 9.50838 0 13.8432Z"
                     fill="currentColor" fill-opacity="0.85" />
       </g>
</svg>