<?xml version="1.0" encoding="UTF-8"?>
<!--Generator: Apple Native CoreSVG 326-->
<!DOCTYPE svg PUBLIC "-//W3C//DTD SVG 1.1//EN" "http://www.w3.org/Graphics/SVG/1.1/DTD/svg11.dtd">
<svg version="1.1" xmlns="http://www.w3.org/2000/svg" xmlns:xlink="http://www.w3.org/1999/xlink"
       viewBox="0 0 36.4361 17.5919">
       <g>
              <rect height="17.5919" opacity="0" width="36.4361" x="0" y="0" />
              <path d="M36.0748 8.79107C36.0748 8.4597 35.9249 8.09674 35.6561 7.83767L31.076 3.61771C30.6493 3.23521 30.3081 3.06174 29.8843 3.06174C29.1699 3.06174 28.622 3.62341 28.622 4.33091L28.622 5.82784L24.9264 5.82784C23.6846 5.82784 22.9374 6.58252 22.9374 7.81735L22.9374 9.80954C22.9374 11.0467 23.6846 11.7916 24.9264 11.7916L28.622 11.7916L28.622 13.2754C28.622 13.9777 29.1699 14.5279 29.882 14.5279C30.3184 14.5279 30.6786 14.3515 31.076 13.9811L35.6411 9.75938C35.9151 9.49286 36.0748 9.11497 36.0748 8.79107ZM25.1301 9.88221C24.9583 9.88221 24.8468 9.77072 24.8468 9.60119L24.8468 8.02801C24.8468 7.85618 24.9583 7.74469 25.1301 7.74469L30.0599 7.74469C30.2868 7.74469 30.4236 7.60797 30.4236 7.38106L30.4236 5.70155L33.5733 8.6606C33.6216 8.69911 33.636 8.74278 33.636 8.79107C33.636 8.83704 33.6216 8.87556 33.5733 8.92384L30.4236 11.8788L30.4236 10.2556C30.4236 10.0212 30.2868 9.88221 30.0599 9.88221Z"
                     fill="currentColor" fill-opacity="0.85" />
              <path d="M14.5198 2.16779L21.463 2.16779C22.0602 2.16779 22.5443 1.686 22.5443 1.08878C22.5443 0.484096 22.0602 0 21.463 0L14.5198 0C13.9151 0 13.4333 0.484096 13.4333 1.08878C13.4333 1.686 13.9151 2.16779 14.5198 2.16779ZM14.6047 17.5821L21.5618 17.5821C22.1665 17.5821 22.6482 17.0906 22.6482 16.4934C22.6482 15.8961 22.1665 15.4069 21.5618 15.4069L14.6047 15.4069C14.0075 15.4069 13.5234 15.8961 13.5234 16.4934C13.5234 17.0906 14.0075 17.5821 14.6047 17.5821ZM16.2316 14.4116C16.8077 14.4116 17.266 13.9533 17.266 13.3773C17.266 12.8087 16.8077 12.3504 16.2316 12.3504C15.663 12.3504 15.2047 12.8087 15.2047 13.3773C15.2047 13.9533 15.663 14.4116 16.2316 14.4116ZM16.2316 11.35C16.8077 11.35 17.266 10.8916 17.266 10.3231C17.266 9.7447 16.8077 9.28638 16.2316 9.28638C15.663 9.28638 15.2047 9.7447 15.2047 10.3231C15.2047 10.8916 15.663 11.35 16.2316 11.35ZM19.7725 14.4116C20.3434 14.4116 20.8017 13.9533 20.8017 13.3773C20.8017 12.8087 20.3434 12.3504 19.7725 12.3504C19.1964 12.3504 18.7381 12.8087 18.7381 13.3773C18.7381 13.9533 19.1964 14.4116 19.7725 14.4116ZM16.2316 8.29344C16.8077 8.29344 17.266 7.83513 17.266 7.25908C17.266 6.69049 16.8077 6.23217 16.2316 6.23217C15.663 6.23217 15.2047 6.69049 15.2047 7.25908C15.2047 7.83513 15.663 8.29344 16.2316 8.29344ZM19.7725 11.35C20.3434 11.35 20.8017 10.8916 20.8017 10.3231C20.8017 9.7447 20.3434 9.28638 19.7725 9.28638C19.1964 9.28638 18.7381 9.7447 18.7381 10.3231C18.7381 10.8916 19.1964 11.35 19.7725 11.35ZM16.2316 5.23177C16.8077 5.23177 17.266 4.77345 17.266 4.1974C17.266 3.62881 16.8077 3.16819 16.2316 3.16819C15.663 3.16819 15.2047 3.62881 15.2047 4.1974C15.2047 4.77345 15.663 5.23177 16.2316 5.23177ZM19.7725 8.29344C20.3434 8.29344 20.8017 7.83513 20.8017 7.25908C20.8017 6.69049 20.3434 6.23217 19.7725 6.23217C19.1964 6.23217 18.7381 6.69049 18.7381 7.25908C18.7381 7.83513 19.1964 8.29344 19.7725 8.29344ZM19.7725 5.23177C20.3434 5.23177 20.8017 4.77345 20.8017 4.1974C20.8017 3.62881 20.3434 3.16819 19.7725 3.16819C19.1964 3.16819 18.7381 3.62881 18.7381 4.1974C18.7381 4.77345 19.1964 5.23177 19.7725 5.23177Z"
                     fill="currentColor" fill-opacity="0.85" />
              <path d="M13.1374 8.79107C13.1374 8.4597 12.995 8.09674 12.7164 7.83767L8.13628 3.61771C7.71187 3.23521 7.37074 3.06174 6.94688 3.06174C6.23016 3.06174 5.68462 3.62341 5.68462 4.33091L5.68462 5.82784L1.98897 5.82784C0.754683 5.82784 0 6.58252 0 7.81735L0 9.80954C0 11.0467 0.754683 11.7916 1.98897 11.7916L5.68462 11.7916L5.68462 13.2754C5.68462 13.9777 6.23016 14.5279 6.94457 14.5279C7.38851 14.5279 7.74863 14.3441 8.13628 13.9811L12.7089 9.75938C12.9777 9.50032 13.1374 9.11497 13.1374 8.79107Z"
                     fill="currentColor" fill-opacity="0.85" />
       </g>
</svg>