<?xml version="1.0" encoding="UTF-8"?>
<!--Generator: Apple Native CoreSVG 326-->
<!DOCTYPE svg PUBLIC "-//W3C//DTD SVG 1.1//EN" "http://www.w3.org/Graphics/SVG/1.1/DTD/svg11.dtd">
<svg version="1.1" xmlns="http://www.w3.org/2000/svg" xmlns:xlink="http://www.w3.org/1999/xlink"
       viewBox="0 0 21.365 21.006">
       <g>
              <rect height="21.006" opacity="0" width="21.365" x="0" y="0" />
              <path d="M10.4981 20.9962C16.302 20.9962 21.0037 16.2946 21.0037 10.4981C21.0037 4.70163 16.302 0 10.4981 0C4.70163 0 0 4.70163 0 10.4981C0 16.2946 4.70163 20.9962 10.4981 20.9962ZM10.4981 17.9484C6.37829 17.9484 3.04785 14.6179 3.04785 10.4981C3.04785 6.37829 6.37829 3.04785 10.4981 3.04785C14.6179 3.04785 17.9558 6.37829 17.9558 10.4981C17.9558 14.6179 14.6179 17.9484 10.4981 17.9484Z"
                     fill="currentColor" fill-opacity="0.85" />
              <path d="M6.29483 12.9476C6.29483 13.6982 6.76455 14.2466 7.49388 14.2368C8.23067 14.2345 8.70039 13.6982 8.70039 12.9476L8.70039 11.2623C8.70039 10.7989 8.9361 10.5603 9.35068 10.5603L11.228 10.5603L11.228 11.9966C11.228 12.7507 12.0155 13.0511 12.6123 12.5101L15.2499 10.1305C15.7836 9.65997 15.7762 9.05286 15.2499 8.58981L12.6123 6.21998C12.023 5.67662 11.228 5.97189 11.228 6.72373L11.228 8.15994L8.64246 8.15994C7.1135 8.15994 6.29483 8.98607 6.29483 10.4754Z"
                     fill="currentColor" fill-opacity="0.85" />
       </g>
</svg>