<?xml version="1.0" encoding="UTF-8"?>
<!--Generator: Apple Native CoreSVG 326-->
<!DOCTYPE svg PUBLIC "-//W3C//DTD SVG 1.1//EN" "http://www.w3.org/Graphics/SVG/1.1/DTD/svg11.dtd">
<svg version="1.1" xmlns="http://www.w3.org/2000/svg" xmlns:xlink="http://www.w3.org/1999/xlink"
       viewBox="0 0 19.3993 19.0529">
       <g>
              <rect height="19.0529" opacity="0" width="19.3993" x="0" y="0" />
              <path d="M3.64834 19.0379L15.3896 19.0379C17.7164 19.0379 19.0379 17.7262 19.0379 15.4011L19.0379 3.63912C19.0379 1.32151 17.7164 0 15.3896 0L3.64834 0C1.32382 0 0 1.32151 0 3.63912L0 15.4011C0 17.7262 1.32382 19.0379 3.64834 19.0379ZM4.05583 16.0183C3.37024 16.0183 3.01964 15.7096 3.01964 14.9775L3.01964 4.07021C3.01964 3.33809 3.37024 3.0271 4.05583 3.0271L14.9821 3.0271C15.6654 3.0271 16.0183 3.33809 16.0183 4.07021L16.0183 14.9775C16.0183 15.7096 15.6654 16.0183 14.9821 16.0183Z"
                     fill="currentColor" fill-opacity="0.85" />
              <path d="M4.08537 10.3315C4.08537 10.7824 4.45009 11.1322 4.89119 11.1299L8.15709 11.0834C8.36271 11.0811 8.56834 11.0053 8.71822 10.8582C9.02665 10.5521 9.02665 10.1087 8.71306 9.7951C8.56373 9.65323 8.37763 9.55733 8.18178 9.56479L6.8633 9.59179L6.70953 9.60386L7.09094 9.23167L10.8996 5.41325C11.2132 5.10712 11.2155 4.63673 10.8996 4.32084C10.5958 4.0147 10.1231 4.0147 9.81464 4.32084L5.99106 8.13925L5.6338 8.50859L5.64071 8.36174L5.6677 7.04842C5.67001 6.83764 5.58442 6.66416 5.44485 6.51713C5.12896 6.20869 4.6758 6.20869 4.3622 6.51713C4.22494 6.6567 4.13935 6.87209 4.13935 7.06049ZM14.9572 8.73623C14.9796 8.28307 14.6045 7.94249 14.1611 7.94249L10.8878 7.98671C10.6942 7.98671 10.4788 8.06483 10.3341 8.2021C10.0182 8.51284 10.0331 8.96369 10.3467 9.28475C10.4886 9.42432 10.6672 9.52252 10.8757 9.51506L12.1913 9.4783L12.3451 9.47369L11.9637 9.83611L8.14526 13.6568C7.83682 13.963 7.83682 14.431 8.14526 14.7469C8.45885 15.0531 8.9367 15.0554 9.24283 14.7469L13.0538 10.9308L13.4306 10.5494L13.4139 10.7009L13.3944 12.0217C13.3795 12.2324 13.4604 12.4036 13.6149 12.5604C13.9285 12.8591 14.3765 12.8591 14.685 12.5604C14.8274 12.4157 14.9009 12.2101 14.9032 12.0044Z"
                     fill="currentColor" fill-opacity="0.85" />
       </g>
</svg>