<?xml version="1.0" encoding="UTF-8"?>
<!--Generator: Apple Native CoreSVG 326-->
<!DOCTYPE svg PUBLIC "-//W3C//DTD SVG 1.1//EN" "http://www.w3.org/Graphics/SVG/1.1/DTD/svg11.dtd">
<svg version="1.1" xmlns="http://www.w3.org/2000/svg" xmlns:xlink="http://www.w3.org/1999/xlink"
       viewBox="0 0 20.7373 25.0083">
       <g>
              <rect height="25.0083" opacity="0" width="20.7373" x="0" y="0" />
              <path d="M15.1009 2.69319L15.1009 4.06796L19.0863 4.06796C19.8299 4.06796 20.376 4.57905 20.376 5.30771C20.376 6.05129 19.8299 6.56469 19.0863 6.56469L18.3032 6.56469L17.6808 20.2118C17.605 22.0336 16.5257 22.9716 14.7115 22.9716L5.66685 22.9716C3.84796 22.9716 2.78078 22.0359 2.6975 20.2141L2.07287 6.56469L1.29198 6.56469C0.550697 6.56469 0 6.0536 0 5.30771C0 4.57905 0.550697 4.06796 1.29198 4.06796L5.27047 4.06796L5.27047 2.69319C5.27047 0.948904 6.33765 0 8.3265 0L12.0449 0C14.0338 0 15.1009 0.948904 15.1009 2.69319ZM9.2839 9.59361L6.61206 12.1626C6.42311 12.3395 6.32261 12.5428 6.32261 12.8328C6.32261 13.3681 6.79233 13.7482 7.26787 13.7482C7.55556 13.7482 7.81287 13.6156 7.99204 13.4266L8.85124 12.5146L9.16495 11.9001L9.0639 13.0536L9.0639 16.6639C9.0639 17.2588 9.57213 17.7773 10.1917 17.7773C10.8188 17.7773 11.3173 17.2588 11.3173 16.6639L11.3173 13.0536L11.2162 11.9024L11.5276 12.5146L12.3891 13.4266C12.5683 13.6156 12.8233 13.7482 13.111 13.7482C13.5865 13.7482 14.0586 13.3681 14.0586 12.8328C14.0586 12.5428 13.9581 12.3395 13.7668 12.1626L11.0973 9.59361C10.7924 9.31568 10.4943 9.21002 10.1917 9.21002C9.88682 9.21002 9.58881 9.31568 9.2839 9.59361ZM8.52345 2.21607C8.11657 2.21607 7.88262 2.42072 7.88262 2.761L7.88262 4.06796L12.4888 4.06796L12.4888 2.761C12.4888 2.42072 12.2548 2.21607 11.8479 2.21607Z"
                     fill="currentColor" fill-opacity="0.85" />
       </g>
</svg>