<?xml version="1.0" encoding="UTF-8"?>
<!--Generator: Apple Native CoreSVG 326-->
<!DOCTYPE svg PUBLIC "-//W3C//DTD SVG 1.1//EN" "http://www.w3.org/Graphics/SVG/1.1/DTD/svg11.dtd">
<svg version="1.1" xmlns="http://www.w3.org/2000/svg" xmlns:xlink="http://www.w3.org/1999/xlink"
       viewBox="0 0 25.523 16.7943">
       <g>
              <rect height="16.7943" opacity="0" width="25.523" x="0" y="0" />
              <path d="M17.7989 3.69772L17.7989 13.0845C17.7989 15.4428 16.448 16.7845 13.9479 16.7845L4.29524 16.7845C1.78771 16.7845 0.444243 15.6741 0.444243 13.3158L0.444243 3.70518C0.444243 1.34171 1.81592 0 4.29524 0L13.9784 0C16.4785 0 17.7989 1.34171 17.7989 3.69772ZM25.523 3.15745L25.523 13.8136C25.523 14.8158 24.8609 15.4321 23.9574 15.4321C23.382 15.4321 22.8496 15.0974 22.2565 14.5955L19.515 12.2654L19.515 4.70333L22.2565 2.37553C22.8571 1.87367 23.3745 1.5389 23.9574 1.5389C24.8609 1.5389 25.523 2.15523 25.523 3.15745ZM6.64014 4.0164C6.02854 4.0164 5.55191 4.53495 5.55191 5.17869C5.55191 5.84537 6.04061 6.32485 6.66998 6.32485L8.26099 6.32485L9.9206 6.16399L8.86816 7.05272L5.0478 10.6763C4.78479 10.9094 4.67682 11.227 4.67682 11.5761C4.67682 12.2227 5.17815 12.6896 5.87642 12.6896C6.19802 12.6896 6.47364 12.569 6.71942 12.3306L10.5323 8.73927L11.436 7.71382L11.2676 9.31889L11.2676 10.771C11.2676 11.378 11.7546 11.8592 12.4138 11.8592C13.065 11.8592 13.5761 11.405 13.5761 10.7785L13.5761 5.60056C13.5761 4.58596 13.0163 4.0164 12.0017 4.0164Z"
                     fill="currentColor" fill-opacity="0.85" />
       </g>
</svg>