<?xml version="1.0" encoding="UTF-8"?>
<!--Generator: Apple Native CoreSVG 326-->
<!DOCTYPE svg PUBLIC "-//W3C//DTD SVG 1.1//EN" "http://www.w3.org/Graphics/SVG/1.1/DTD/svg11.dtd">
<svg version="1.1" xmlns="http://www.w3.org/2000/svg" xmlns:xlink="http://www.w3.org/1999/xlink"
       viewBox="0 0 28.3503 19.0691">
       <g>
              <rect height="19.0691" opacity="0" width="28.3503" x="0" y="0" />
              <path d="M10.2306 19.0691C10.7745 19.0691 11.2844 18.7946 11.5984 18.113C12.5337 15.6346 13.8777 14.3555 16.0393 14.3555L16.2417 14.3578L16.2417 17.2004C16.2417 18.2352 17.041 19.0294 18.0781 19.0294C18.7581 19.0294 19.283 18.7744 19.9233 18.1708L27.7352 10.9551C28.1436 10.5662 28.3503 10.0012 28.3503 9.53713C28.3503 9.04843 28.151 8.5132 27.7426 8.13179L19.9233 0.924762C19.2192 0.279806 18.7328 0.0425804 18.0827 0.0425804C17.041 0.0425804 16.2417 0.858041 16.2417 1.89283L16.2417 4.78594L16.1226 4.78594C13.4442 4.78594 11.1064 6.03534 10.2622 9.30718L10.1921 9.30718C9.32429 5.9133 6.63293 4.80833 3.78961 4.80833C3.48712 4.80833 3.15927 4.80833 2.76525 4.80833C1.05948 4.80833 0.134414 5.76378 0.134414 7.56205L0.134414 11.6481C0.134414 13.3335 1.05718 14.2798 2.73705 14.2798C3.38067 14.2798 3.99499 14.2798 4.64092 14.2798C6.725 14.2798 8.07247 15.8557 8.88005 18.1107C9.1843 18.7946 9.67695 19.0691 10.2306 19.0691Z"
                     fill="currentColor" fill-opacity="0.85" />
       </g>
</svg>