<?xml version="1.0" encoding="UTF-8"?>
<!--Generator: Apple Native CoreSVG 326-->
<!DOCTYPE svg PUBLIC "-//W3C//DTD SVG 1.1//EN" "http://www.w3.org/Graphics/SVG/1.1/DTD/svg11.dtd">
<svg version="1.1" xmlns="http://www.w3.org/2000/svg" xmlns:xlink="http://www.w3.org/1999/xlink"
       viewBox="0 0 21.365 21.006">
       <g>
              <rect height="21.006" opacity="0" width="21.365" x="0" y="0" />
              <path d="M21.0037 10.4981C21.0037 16.2923 16.302 20.9962 10.4981 20.9962C4.70394 20.9962 0 16.2923 0 10.4981C0 4.70163 4.70394 0 10.4981 0C16.302 0 21.0037 4.70163 21.0037 10.4981ZM13.347 7.0224L13.347 13.9715C13.347 14.5412 13.8018 14.9937 14.3692 14.9937C14.936 14.9937 15.3908 14.5412 15.3908 13.9715L15.3908 7.0224C15.3908 6.45271 14.936 6.00022 14.3692 6.00022C13.8018 6.00022 13.347 6.45271 13.347 7.0224ZM7.69501 7.21322C7.69501 7.54052 7.82821 7.77083 8.04184 7.97239L8.68922 8.62493L9.77011 9.55351L8.41681 9.43863L5.53086 9.43863C4.85673 9.43863 4.40193 9.86359 4.40193 10.5004C4.40193 11.1419 4.85673 11.572 5.53086 11.572L8.41681 11.572L9.77242 11.4473L8.69153 12.3759L8.04184 13.0141C7.84313 13.2208 7.69501 13.4539 7.69501 13.7933C7.69501 14.363 8.11997 14.7908 8.74933 14.7908C8.99511 14.7908 9.29202 14.688 9.48843 14.4617L12.515 11.2843C12.7086 11.093 12.8292 10.8128 12.8292 10.5004C12.8292 10.1857 12.6965 9.9078 12.515 9.71425L9.48612 6.53733C9.27249 6.30647 8.99972 6.20311 8.74933 6.20311C8.12458 6.20311 7.69501 6.63092 7.69501 7.21322Z"
                     fill="currentColor" fill-opacity="0.85" />
       </g>
</svg>