<?xml version="1.0" encoding="UTF-8"?>
<!--Generator: Apple Native CoreSVG 326-->
<!DOCTYPE svg PUBLIC "-//W3C//DTD SVG 1.1//EN" "http://www.w3.org/Graphics/SVG/1.1/DTD/svg11.dtd">
<svg version="1.1" xmlns="http://www.w3.org/2000/svg" xmlns:xlink="http://www.w3.org/1999/xlink"
       viewBox="0 0 19.3993 19.0529">
       <g>
              <rect height="19.0529" opacity="0" width="19.3993" x="0" y="0" />
              <path d="M3.64834 19.0379L15.3896 19.0379C17.7164 19.0379 19.0379 17.7262 19.0379 15.4011L19.0379 3.63912C19.0379 1.32151 17.7164 0 15.3896 0L3.64834 0C1.32382 0 0 1.32151 0 3.63912L0 15.4011C0 17.7262 1.32382 19.0379 3.64834 19.0379ZM4.05583 16.0183C3.37024 16.0183 3.01964 15.7096 3.01964 14.9775L3.01964 4.07021C3.01964 3.33809 3.37024 3.0271 4.05583 3.0271L14.9821 3.0271C15.6654 3.0271 16.0183 3.33809 16.0183 4.07021L16.0183 14.9775C16.0183 15.7096 15.6654 16.0183 14.9821 16.0183Z"
                     fill="currentColor" fill-opacity="0.85" />
              <path d="M13.6141 9.57365C14.1144 9.57365 14.5239 9.16416 14.5239 8.66393C14.5239 8.14878 14.1144 7.74905 13.6141 7.74905L13.3818 7.74905L12.4845 7.91386L14.2633 6.27985C14.6957 5.89219 14.6831 5.19962 14.273 4.78213C13.8481 4.36979 13.1555 4.36232 12.7679 4.78443L11.1292 6.57293L11.2866 5.67905L11.2866 5.42435C11.2866 4.91666 10.8794 4.51694 10.3792 4.51694C9.87147 4.51694 9.46198 4.91666 9.46198 5.42435L9.46198 8.33784C9.46198 9.14014 9.89901 9.57365 10.7127 9.57365ZM8.66108 14.5239C9.16877 14.5239 9.57826 14.1241 9.57826 13.609L9.57826 10.7006C9.57826 9.90065 9.14123 9.45968 8.32753 9.45968L5.42611 9.45968C4.92588 9.45968 4.51639 9.87432 4.51639 10.3769C4.51639 10.8845 4.92588 11.2843 5.42611 11.2843L5.65842 11.2843L6.55571 11.1269L4.77697 12.7535C4.34455 13.1388 4.35717 13.8337 4.7672 14.2587C5.19216 14.671 5.88473 14.6859 6.27239 14.2489L7.91101 12.4679L7.75366 13.3617L7.75366 13.609C7.75366 14.1241 8.16085 14.5239 8.66108 14.5239Z"
                     fill="currentColor" fill-opacity="0.85" />
       </g>
</svg>