<?xml version="1.0" encoding="UTF-8"?>
<!--Generator: Apple Native CoreSVG 326-->
<!DOCTYPE svg PUBLIC "-//W3C//DTD SVG 1.1//EN" "http://www.w3.org/Graphics/SVG/1.1/DTD/svg11.dtd">
<svg version="1.1" xmlns="http://www.w3.org/2000/svg" xmlns:xlink="http://www.w3.org/1999/xlink"
       viewBox="0 0 20.9084 18.1616">
       <g>
              <rect height="18.1616" opacity="0" width="20.9084" x="0" y="0" />
              <path d="M10.2698 18.1616C11.1449 18.1616 11.6193 17.6436 11.6193 16.7012L11.6193 11.6776C11.6216 9.49055 14.2864 6.58452 16.015 5.4915L16.8261 4.97622C17.2412 4.72068 17.4847 4.27619 17.4847 3.82655C17.4847 3.09437 17.0259 2.50867 16.1622 2.50867C15.8062 2.50867 15.4381 2.61895 15.0992 2.83488L14.5966 3.16176C13.089 4.15439 10.918 6.36906 10.2945 8.06925L10.2428 8.06925C9.6118 6.36676 7.44317 4.15439 5.94302 3.16176L5.44037 2.83488C5.1067 2.61149 4.73342 2.50121 4.38252 2.50121C3.50398 2.50121 3.06234 3.11621 3.06234 3.82424C3.06234 4.27389 3.29836 4.70576 3.71355 4.96876L4.52464 5.4915C6.23829 6.58452 8.92778 9.49055 8.92778 11.6776L8.92778 16.7012C8.92778 17.6436 9.40211 18.1616 10.2698 18.1616ZM2.95419 6.69783L6.71815 1.86966C7.27236 1.15865 6.82217 0.443151 5.81722 0.421315L1.09326 0.277681C0.300185 0.255845-0.16438 0.870838 0.0538603 1.62431L1.33358 6.16502C1.59604 7.1229 2.39021 7.4186 2.95419 6.69783ZM17.4011 6.66568C17.9381 7.4186 18.7495 7.1499 19.0441 6.20178L20.4834 1.69782C20.7189 0.954118 20.2716 0.3219 19.4808 0.316744L14.7545 0.30073C13.7496 0.295575 13.2822 0.986387 13.8094 1.71462Z"
                     fill="currentColor" fill-opacity="0.85" />
       </g>
</svg>