<?xml version="1.0" encoding="UTF-8"?>
<!--Generator: Apple Native CoreSVG 326-->
<!DOCTYPE svg PUBLIC "-//W3C//DTD SVG 1.1//EN" "http://www.w3.org/Graphics/SVG/1.1/DTD/svg11.dtd">
<svg version="1.1" xmlns="http://www.w3.org/2000/svg" xmlns:xlink="http://www.w3.org/1999/xlink"
       viewBox="0 0 19.3993 19.0529">
       <g>
              <rect height="19.0529" opacity="0" width="19.3993" x="0" y="0" />
              <path d="M19.0379 3.63912L19.0379 15.4011C19.0379 17.7262 17.7164 19.0379 15.3896 19.0379L3.64834 19.0379C1.32382 19.0379 0 17.7262 0 15.4011L0 3.63912C0 1.32151 1.32382 0 3.64834 0L15.3896 0C17.7164 0 19.0379 1.32151 19.0379 3.63912ZM4.78716 6.15259L4.78716 13.1017C4.78716 13.6714 5.24196 14.1239 5.81625 14.1239C6.38363 14.1239 6.83843 13.6714 6.83843 13.1017L6.83843 6.15259C6.83843 5.58291 6.38363 5.12811 5.81625 5.12811C5.24196 5.12811 4.78716 5.58291 4.78716 6.15259ZM10.7016 5.66522L7.66523 8.84444C7.48144 9.03569 7.34879 9.31592 7.34879 9.6283C7.34879 9.94299 7.47683 10.2209 7.66523 10.4122L10.697 13.5919C10.8934 13.8182 11.1903 13.921 11.4361 13.921C12.0655 13.921 12.4904 13.4909 12.4904 12.9235C12.4904 12.5841 12.3423 12.351 12.1436 12.1443L11.4939 11.5061L10.4056 10.5752L11.7686 10.7022L14.6546 10.7022C15.3212 10.7022 15.7783 10.2697 15.7783 9.6283C15.7783 8.99378 15.3212 8.56882 14.6546 8.56882L11.7686 8.56882L10.4153 8.6814L11.4962 7.75282L12.1436 7.10258C12.3498 6.89872 12.4904 6.67071 12.4904 6.34341C12.4904 5.76111 12.0534 5.33331 11.4361 5.33331C11.1782 5.33331 10.9055 5.43436 10.7016 5.66522Z"
                     fill="currentColor" fill-opacity="0.85" />
       </g>
</svg>