<?xml version="1.0" encoding="UTF-8"?>
<!--Generator: Apple Native CoreSVG 326-->
<!DOCTYPE svg PUBLIC "-//W3C//DTD SVG 1.1//EN" "http://www.w3.org/Graphics/SVG/1.1/DTD/svg11.dtd">
<svg version="1.1" xmlns="http://www.w3.org/2000/svg" xmlns:xlink="http://www.w3.org/1999/xlink"
       viewBox="0 0 19.3993 19.0621">
       <g>
              <rect height="19.0621" opacity="0" width="19.3993" x="0" y="0" />
              <path d="M19.0379 3.63682L19.0379 15.3988C19.0379 17.7239 17.7164 19.0379 15.3896 19.0379L3.64834 19.0379C1.32382 19.0379 0 17.7239 0 15.3988L0 3.63682C0 1.31921 1.32382 0 3.64834 0L15.3896 0C17.7164 0 19.0379 1.31921 19.0379 3.63682ZM7.24452 4.24198L4.47933 7.03877C4.29609 7.22948 4.18581 7.47647 4.18581 7.72861C4.18581 7.96584 4.28632 8.21799 4.47933 8.42592L7.24682 11.2147C7.42085 11.3887 7.66377 11.4818 7.91076 11.4818C8.40814 11.4818 8.87216 11.0378 8.87216 10.5135C8.87216 10.2837 8.76189 10.0482 8.56318 9.87936L7.53822 9.04267L6.9897 8.67564L7.70459 8.73708L10.6457 8.73708C11.9137 8.73708 12.7508 9.58329 12.7508 10.8219C12.7508 12.0807 11.9166 12.9183 10.6583 12.9183L9.16374 12.9183C8.48093 12.9183 8.01406 13.3232 8.01406 13.9343C8.01406 14.5579 8.47577 14.9777 9.16089 14.9777L10.6583 14.9777C13.1685 14.9777 14.8401 13.32 14.8401 10.8219C14.8401 8.41342 13.1633 6.79706 10.6457 6.79706L7.70459 6.79706L6.9874 6.86827L7.59924 6.43045L8.56318 5.56295C8.75443 5.39869 8.84978 5.15862 8.84978 4.926C8.84978 4.41655 8.38807 3.96515 7.89354 3.96515C7.65401 3.96515 7.42831 4.05819 7.24452 4.24198Z"
                     fill="currentColor" fill-opacity="0.85" />
       </g>
</svg>