<?xml version="1.0" encoding="UTF-8"?>
<!--Generator: Apple Native CoreSVG 326-->
<!DOCTYPE svg PUBLIC "-//W3C//DTD SVG 1.1//EN" "http://www.w3.org/Graphics/SVG/1.1/DTD/svg11.dtd">
<svg version="1.1" xmlns="http://www.w3.org/2000/svg" xmlns:xlink="http://www.w3.org/1999/xlink"
       viewBox="0 0 19.3993 19.0529">
       <g>
              <rect height="19.0529" opacity="0" width="19.3993" x="0" y="0" />
              <path d="M3.64834 19.0379L15.3896 19.0379C17.7164 19.0379 19.0379 17.7262 19.0379 15.4011L19.0379 3.63912C19.0379 1.32151 17.7164 0 15.3896 0L3.64834 0C1.32382 0 0 1.32151 0 3.63912L0 15.4011C0 17.7262 1.32382 19.0379 3.64834 19.0379ZM4.05583 16.0183C3.37024 16.0183 3.01964 15.7096 3.01964 14.9775L3.01964 4.07021C3.01964 3.33809 3.37024 3.0271 4.05583 3.0271L14.9821 3.0271C15.6654 3.0271 16.0183 3.33809 16.0183 4.07021L16.0183 14.9775C16.0183 15.7096 15.6654 16.0183 14.9821 16.0183Z"
                     fill="currentColor" fill-opacity="0.85" />
              <path d="M5.11021 6.24479C4.78686 6.5733 4.79662 7.07474 5.11021 7.38603L7.45694 9.66154C7.59881 9.79881 7.80674 9.89185 8.00545 9.89185C8.44369 9.89185 8.76474 9.57826 8.76474 9.13486C8.76474 8.9367 8.69638 8.73569 8.54935 8.59612L7.59626 7.69471L7.48454 7.58989L8.01067 7.59681L13.4108 7.59681C13.8467 7.59681 14.1776 7.26138 14.1776 6.81799C14.1776 6.38205 13.8467 6.05123 13.4108 6.05123L8.01297 6.05123L7.48684 6.05354L7.59626 5.95333L8.54935 5.04446C8.69638 4.90489 8.76474 4.7165 8.76474 4.51318C8.76474 4.06002 8.44369 3.74642 8.00545 3.74642C7.80443 3.74642 7.59651 3.84693 7.45694 3.98134ZM13.93 12.8155C14.2608 12.4996 14.2436 11.9948 13.93 11.6812L11.581 9.40569C11.4437 9.26612 11.2358 9.16562 11.0325 9.16562C10.5942 9.16562 10.2732 9.48667 10.2732 9.93006C10.2732 10.1357 10.3416 10.3292 10.4886 10.4688L11.4463 11.3777L11.5557 11.475L11.0273 11.4681L5.62943 11.4681C5.1958 11.4681 4.86268 11.7989 4.86268 12.2446C4.86268 12.6806 5.19349 13.0137 5.62943 13.0137L11.025 13.0137L11.5557 13.0114L11.4463 13.1116L10.4909 14.0279C10.3439 14.1698 10.2732 14.3461 10.2732 14.5592C10.2732 15.0026 10.5989 15.3185 11.0325 15.3185C11.2312 15.3185 11.4391 15.2255 11.581 15.0859Z"
                     fill="currentColor" fill-opacity="0.85" />
       </g>
</svg>