<?xml version="1.0" encoding="UTF-8"?>
<!--Generator: Apple Native CoreSVG 326-->
<!DOCTYPE svg PUBLIC "-//W3C//DTD SVG 1.1//EN" "http://www.w3.org/Graphics/SVG/1.1/DTD/svg11.dtd">
<svg version="1.1" xmlns="http://www.w3.org/2000/svg" xmlns:xlink="http://www.w3.org/1999/xlink"
       viewBox="0 0 21.365 21.006">
       <g>
              <rect height="21.006" opacity="0" width="21.365" x="0" y="0" />
              <path d="M21.0037 10.4981C21.0037 16.2923 16.302 20.9962 10.4981 20.9962C4.70394 20.9962 0 16.2923 0 10.4981C0 4.70163 4.70394 0 10.4981 0C16.302 0 21.0037 4.70163 21.0037 10.4981ZM5.19143 11.2202L5.19143 14.4478C5.19143 15.3116 5.65315 15.787 6.53575 15.787L9.76108 15.787C10.2981 15.787 10.7397 15.3431 10.7397 14.7986C10.7397 14.2467 10.2981 13.82 9.76108 13.82L9.4174 13.82L8.45461 13.9848L10.1297 12.4768C10.6115 12.057 10.5765 11.3081 10.132 10.8562C9.6801 10.4094 8.92609 10.3847 8.51144 10.8585L6.99134 12.5382L7.15845 11.5788L7.15845 11.2202C7.15845 10.6683 6.71451 10.2416 6.17752 10.2416C5.63307 10.2416 5.19143 10.6683 5.19143 11.2202ZM11.1852 5.22874C10.6482 5.22874 10.2043 5.67268 10.2043 6.22459C10.2043 6.76904 10.6482 7.20321 11.1852 7.20321L11.5364 7.20321L12.4992 7.03095L10.8217 8.53898C10.3399 8.96624 10.3749 9.70764 10.8194 10.1596C11.2737 10.6064 12.0179 10.6385 12.4423 10.1573L13.9601 8.47754L13.7878 9.43693L13.7878 9.80299C13.7878 10.3474 14.2295 10.7816 14.7665 10.7816C15.3184 10.7816 15.7623 10.3474 15.7623 9.80299L15.7623 6.5679C15.7623 5.71162 15.2908 5.22874 14.4157 5.22874Z"
                     fill="currentColor" fill-opacity="0.85" />
       </g>
</svg>