<?xml version="1.0" encoding="UTF-8"?>
<!--Generator: Apple Native CoreSVG 326-->
<!DOCTYPE svg PUBLIC "-//W3C//DTD SVG 1.1//EN" "http://www.w3.org/Graphics/SVG/1.1/DTD/svg11.dtd">
<svg version="1.1" xmlns="http://www.w3.org/2000/svg" xmlns:xlink="http://www.w3.org/1999/xlink"
       viewBox="0 0 21.365 21.006">
       <g>
              <rect height="21.006" opacity="0" width="21.365" x="0" y="0" />
              <path d="M21.0037 10.5079C21.0037 16.3043 16.302 21.006 10.4981 21.006C4.70394 21.006 0 16.3043 0 10.5079C0 4.7137 4.70394 0.00976562 10.4981 0.00976562C16.302 0.00976562 21.0037 4.7137 21.0037 10.5079ZM10.0567 6.37611L10.0567 7.98288L6.30926 7.98288C5.33228 7.98288 4.77169 8.56354 4.77169 9.521L4.77169 11.5493C4.77169 12.5217 5.33228 13.0799 6.30926 13.0799L10.0567 13.0799L10.0567 14.6712C10.0567 15.2409 10.4817 15.6613 11.0393 15.6613C11.3971 15.6613 11.6912 15.5217 12.022 15.203L16.2708 11.2775C16.4833 11.0822 16.5965 10.7657 16.5965 10.5153C16.5965 10.2552 16.4983 9.96573 16.2708 9.75835L12.022 5.84439C11.6544 5.50897 11.3845 5.37686 11.0537 5.37686C10.4817 5.37686 10.0567 5.80873 10.0567 6.37611Z"
                     fill="currentColor" fill-opacity="0.85" />
       </g>
</svg>