<?xml version="1.0" encoding="UTF-8"?>
<!--Generator: Apple Native CoreSVG 326-->
<!DOCTYPE svg PUBLIC "-//W3C//DTD SVG 1.1//EN" "http://www.w3.org/Graphics/SVG/1.1/DTD/svg11.dtd">
<svg version="1.1" xmlns="http://www.w3.org/2000/svg" xmlns:xlink="http://www.w3.org/1999/xlink"
       viewBox="0 0 22.8269 18.9897">
       <g>
              <rect height="18.9897" opacity="0" width="22.8269" x="0" y="0" />
              <path d="M10.2722 18.9897C11.3167 18.9897 12.1086 18.1955 12.1086 17.1607L12.1086 14.318L12.2277 14.318C15.1886 14.318 16.7656 15.6257 17.8106 17.5135C18.3389 18.4667 18.9001 18.8181 19.6907 18.8181C20.8425 18.8181 21.4874 17.6629 21.4874 15.3235C21.4874 8.61401 18.192 4.74621 12.2277 4.74621L12.1086 4.74621L12.1086 1.8531C12.1086 0.818312 11.3167 0.0051558 10.2676 0.0051558C9.6249 0.0051558 9.13104 0.240077 8.43441 0.885033L0.609958 8.09206C0.206716 8.47577 0 9.00124 0 9.49741C0 9.96142 0.216482 10.5265 0.624879 10.9079L8.43441 18.1311C9.07475 18.7272 9.59967 18.9897 10.2722 18.9897Z"
                     fill="currentColor" fill-opacity="0.85" />
       </g>
</svg>