<?xml version="1.0" encoding="UTF-8"?>
<!--Generator: Apple Native CoreSVG 326-->
<!DOCTYPE svg PUBLIC "-//W3C//DTD SVG 1.1//EN" "http://www.w3.org/Graphics/SVG/1.1/DTD/svg11.dtd">
<svg version="1.1" xmlns="http://www.w3.org/2000/svg" xmlns:xlink="http://www.w3.org/1999/xlink"
       viewBox="0 0 21.365 21.006">
       <g>
              <rect height="21.006" opacity="0" width="21.365" x="0" y="0" />
              <path d="M10.4981 20.9962C16.302 20.9962 21.0037 16.2946 21.0037 10.4981C21.0037 4.70163 16.302 0 10.4981 0C4.70163 0 0 4.70163 0 10.4981C0 16.2946 4.70163 20.9962 10.4981 20.9962ZM10.4981 17.9484C6.37829 17.9484 3.04785 14.6179 3.04785 10.4981C3.04785 6.37829 6.37829 3.04785 10.4981 3.04785C14.6179 3.04785 17.9558 6.37829 17.9558 10.4981C17.9558 14.6179 14.6179 17.9484 10.4981 17.9484Z"
                     fill="currentColor" fill-opacity="0.85" />
              <path d="M6.50027 14.66C6.88902 14.66 7.163 14.4895 7.42085 14.0232C7.95086 13.058 8.75267 12.4136 10.2416 12.4136L10.3083 12.4136L10.3083 13.8434C10.3083 14.3516 10.6891 14.7496 11.2048 14.7496C11.543 14.7496 11.7929 14.6174 12.1191 14.3182L16.0083 10.7253C16.2134 10.5398 16.3191 10.2526 16.3191 10.0246C16.3191 9.7817 16.206 9.51694 16.0083 9.33139L12.1191 5.73794C11.771 5.42435 11.5304 5.2997 11.2071 5.2997C10.6891 5.2997 10.3083 5.70458 10.3083 6.21282L10.3083 7.6753L10.2416 7.6753C7.25774 7.6753 5.61251 9.60762 5.61251 12.9572C5.61251 14.0951 5.93587 14.66 6.50027 14.66Z"
                     fill="currentColor" fill-opacity="0.85" />
       </g>
</svg>