<?xml version="1.0" encoding="UTF-8"?>
<!--Generator: Apple Native CoreSVG 326-->
<!DOCTYPE svg PUBLIC "-//W3C//DTD SVG 1.1//EN" "http://www.w3.org/Graphics/SVG/1.1/DTD/svg11.dtd">
<svg version="1.1" xmlns="http://www.w3.org/2000/svg" xmlns:xlink="http://www.w3.org/1999/xlink"
       viewBox="0 0 21.365 21.006">
       <g>
              <rect height="21.006" opacity="0" width="21.365" x="0" y="0" />
              <path d="M21.0037 10.4981C21.0037 16.2923 16.302 20.9962 10.4981 20.9962C4.70394 20.9962 0 16.2923 0 10.4981C0 4.70163 4.70394 0 10.4981 0C16.302 0 21.0037 4.70163 21.0037 10.4981ZM9.14754 6.59665L9.14754 11.0251L9.26582 12.494L8.84402 11.7049L7.79576 10.5836C7.56951 10.3505 7.26284 10.2052 6.91831 10.2052C6.33425 10.2052 5.77039 10.6548 5.77039 11.3037C5.77039 11.6529 5.90074 11.8883 6.12414 12.1169L9.40715 15.2678C9.7689 15.6146 10.1312 15.7329 10.5004 15.7329C10.8771 15.7329 11.2394 15.6146 11.6011 15.2678L14.8818 12.1169C15.1075 11.8883 15.2379 11.6529 15.2379 11.3037C15.2379 10.6548 14.6717 10.2052 14.0877 10.2052C13.7431 10.2052 13.4388 10.3505 13.2125 10.5836L12.1643 11.7049L11.7425 12.494L11.8631 11.0251L11.8631 6.59665C11.8631 5.876 11.2681 5.25585 10.5004 5.25585C9.74761 5.25585 9.14754 5.876 9.14754 6.59665Z"
                     fill="currentColor" fill-opacity="0.85" />
       </g>
</svg>