<?xml version="1.0" encoding="UTF-8"?>
<!--Generator: Apple Native CoreSVG 326-->
<!DOCTYPE svg PUBLIC "-//W3C//DTD SVG 1.1//EN" "http://www.w3.org/Graphics/SVG/1.1/DTD/svg11.dtd">
<svg version="1.1" xmlns="http://www.w3.org/2000/svg" xmlns:xlink="http://www.w3.org/1999/xlink"
       viewBox="0 0 21.365 21.006">
       <g>
              <rect height="21.006" opacity="0" width="21.365" x="0" y="0" />
              <path d="M21.0037 10.5079C21.0037 16.3043 16.302 21.006 10.4981 21.006C4.70394 21.006 0 16.3043 0 10.5079C0 4.7137 4.70394 0.00976562 10.4981 0.00976562C16.302 0.00976562 21.0037 4.7137 21.0037 10.5079ZM9.74804 4.74318L5.86744 8.94252C5.551 9.27334 5.41143 9.56049 5.41143 9.90853C5.41143 10.4736 5.83178 10.8963 6.39169 10.8963L7.96687 10.8963L7.96687 14.5965C7.96687 15.5614 8.51308 16.1249 9.47854 16.1249L11.4855 16.1249C12.4361 16.1249 13.007 15.5614 13.007 14.5965L13.007 10.8963L14.6074 10.8963C15.1627 10.8963 15.5922 10.4736 15.5922 9.90392C15.5922 9.5731 15.4601 9.3101 15.127 8.94252L11.2579 4.74318C11.0454 4.51342 10.7657 4.41522 10.4981 4.41522C10.2552 4.41522 9.94335 4.52088 9.74804 4.74318Z"
                     fill="currentColor" fill-opacity="0.85" />
       </g>
</svg>