<?xml version="1.0" encoding="UTF-8"?>
<!--Generator: Apple Native CoreSVG 326-->
<!DOCTYPE svg PUBLIC "-//W3C//DTD SVG 1.1//EN" "http://www.w3.org/Graphics/SVG/1.1/DTD/svg11.dtd">
<svg version="1.1" xmlns="http://www.w3.org/2000/svg" xmlns:xlink="http://www.w3.org/1999/xlink"
       viewBox="0 0 26.0153 27.1925">
       <g>
              <rect height="27.1925" opacity="0" width="26.0153" x="0" y="0" />
              <path d="M2.05655 23.6144L9.846 23.6144C11.3639 23.6144 12.13 22.8581 12.13 21.3379L12.13 10.1454C12.13 8.54745 10.973 7.6259 9.69769 7.6259C8.8186 7.6259 7.86721 8.06457 7.28612 9.05842L0.489252 20.2233C0.18488 20.7223 0 21.1359 0 21.7216C0 22.8224 0.67765 23.6144 2.05655 23.6144ZM4.1117 20.7692C3.83553 20.7692 3.80108 20.4902 3.89697 20.3277L9.13887 11.7417C9.19 11.6687 9.27504 11.6831 9.27504 11.7756L9.27504 20.4786C9.27504 20.6584 9.1493 20.7692 8.96715 20.7692ZM23.5974 23.6144C24.9786 23.6144 25.6539 22.8224 25.6539 21.7216C25.6539 21.1359 25.4691 20.7223 25.1647 20.2233L18.3701 9.05842C17.7793 8.06457 16.8302 7.6259 15.9511 7.6259C14.6833 7.6259 13.5262 8.54745 13.5262 10.1454L13.5262 21.3379C13.5262 22.8581 14.2826 23.6144 15.8102 23.6144ZM21.5348 20.7692L16.6793 20.7692C16.4995 20.7692 16.3812 20.6584 16.3812 20.4786L16.3812 11.7756C16.3812 11.6831 16.4662 11.6687 16.5151 11.7417L21.757 20.3277C21.8477 20.4902 21.8207 20.7692 21.5348 20.7692Z"
                     fill="currentColor" fill-opacity="0.85" />
              <path d="M5.91627 5.22368L5.91627 3.98114L19.74 3.98114L19.74 5.22368C19.74 6.05364 20.5107 6.3218 21.1545 5.83418L24.0333 3.64189C24.4681 3.31447 24.4509 2.77123 24.0333 2.45358L21.1545 0.251517C20.5032-0.248168 19.74 0.014837 19.74 0.879247L19.74 2.07987L5.91627 2.07987L5.91627 0.879247C5.91627 0.014837 5.15073-0.248168 4.49425 0.251517L1.62067 2.45358C1.1979 2.77123 1.18813 3.31677 1.62067 3.64189L4.49425 5.83418C5.14327 6.3241 5.91627 6.05364 5.91627 5.22368Z"
                     fill="currentColor" fill-opacity="0.85" />
       </g>
</svg>