<?xml version="1.0" encoding="UTF-8"?>
<!--Generator: Apple Native CoreSVG 326-->
<!DOCTYPE svg PUBLIC "-//W3C//DTD SVG 1.1//EN" "http://www.w3.org/Graphics/SVG/1.1/DTD/svg11.dtd">
<svg version="1.1" xmlns="http://www.w3.org/2000/svg" xmlns:xlink="http://www.w3.org/1999/xlink"
       viewBox="0 0 21.365 21.006">
       <g>
              <rect height="21.006" opacity="0" width="21.365" x="0" y="0" />
              <path d="M10.4981 20.9962C16.302 20.9962 21.0037 16.2946 21.0037 10.4981C21.0037 4.70163 16.302 0 10.4981 0C4.70163 0 0 4.70163 0 10.4981C0 16.2946 4.70163 20.9962 10.4981 20.9962ZM10.4981 17.9484C6.37829 17.9484 3.04785 14.6179 3.04785 10.4981C3.04785 6.37829 6.37829 3.04785 10.4981 3.04785C14.6179 3.04785 17.9558 6.37829 17.9558 10.4981C17.9558 14.6179 14.6179 17.9484 10.4981 17.9484Z"
                     fill="currentColor" fill-opacity="0.85" />
              <path d="M6.24479 10.9249C6.24479 13.2843 8.1583 15.2001 10.4958 15.2001C12.8408 15.2001 14.7468 13.2843 14.7468 10.9393C14.7468 10.4213 14.3299 10.0067 13.8193 10.0067C13.2939 10.0067 12.8769 10.4213 12.8769 10.9393C12.8769 12.266 11.8151 13.3153 10.4958 13.3153C9.17654 13.3153 8.12215 12.2534 8.12215 10.9393C8.12215 9.88118 8.78112 8.94617 9.67513 8.78949C9.74985 8.77457 9.84181 8.74703 9.92454 8.71434L9.63152 9.03029C9.55909 9.14232 9.52058 9.29627 9.52058 9.4669C9.52058 10.0101 9.89846 10.3111 10.3895 10.3111C10.6226 10.3111 10.8684 10.2106 11.0131 10.0533L12.6764 8.38255C13.025 8.04372 13.0054 7.46252 12.6838 7.13861L11.0252 5.45814C10.8656 5.29619 10.6399 5.15091 10.3671 5.15091C9.81409 5.15091 9.50565 5.55118 9.50565 5.94751C9.50565 6.21798 9.61878 6.36161 9.7262 6.49887L9.94953 6.7469C9.89379 6.75436 9.81621 6.75721 9.7507 6.76467C7.82202 7.01833 6.24479 8.80611 6.24479 10.9249Z"
                     fill="currentColor" fill-opacity="0.85" />
       </g>
</svg>