<?xml version="1.0" encoding="UTF-8"?>
<!--Generator: Apple Native CoreSVG 326-->
<!DOCTYPE svg PUBLIC "-//W3C//DTD SVG 1.1//EN" "http://www.w3.org/Graphics/SVG/1.1/DTD/svg11.dtd">
<svg version="1.1" xmlns="http://www.w3.org/2000/svg" xmlns:xlink="http://www.w3.org/1999/xlink"
       viewBox="0 0 21.7869 25.7198">
       <g>
              <rect height="25.7198" opacity="0" width="21.7869" x="0" y="0" />
              <path d="M21.4255 3.64889L21.4255 16.6239C21.4255 18.9462 20.1115 20.2723 17.7864 20.2723L16.2938 20.2723L16.2938 9.09641C16.2938 6.76443 14.9746 5.44807 12.6547 5.44807L5.13921 5.44807L5.13921 3.64889C5.13921 1.3169 6.45096 0.000545979 8.77833 0.000545979L17.7864 0.000545979C20.1115 0.000545979 21.4255 1.3169 21.4255 3.64889ZM11.2017 2.19417C10.675 2.19417 10.4275 2.66159 10.4275 2.95686L10.4275 3.2067C10.4275 3.60412 10.7497 3.96939 11.2017 3.96939L15.3705 3.96939C15.8128 3.96939 16.1447 3.60412 16.1447 3.2067L16.1447 2.95686C16.1447 2.66159 15.8949 2.19417 15.3705 2.19417Z"
                     fill="currentColor" fill-opacity="0.85" />
              <path d="M0 22.0715C0 24.4034 1.31921 25.7198 3.63912 25.7198L12.6547 25.7198C14.9746 25.7198 16.2938 24.3937 16.2938 22.0715L16.2938 9.09641C16.2938 6.76443 14.9746 5.44807 12.6547 5.44807L3.63912 5.44807C1.31921 5.44807 0 6.76212 0 9.09641ZM3.01964 21.6617L3.01964 9.5039C3.01964 8.82061 3.32832 8.46771 4.0656 8.46771L12.2259 8.46771C12.9557 8.46771 13.2667 8.82061 13.2667 9.5039L13.2667 21.6617C13.2667 22.3473 12.9557 22.7002 12.2259 22.7002L4.0656 22.7002C3.32832 22.7002 3.01964 22.3473 3.01964 21.6617Z"
                     fill="currentColor" fill-opacity="0.85" />
              <path d="M12.1607 15.5828C12.1607 15.3049 12.0648 15.0218 11.8018 14.7318L9.39296 12.2299C9.22354 12.0582 9.03975 11.9554 8.77214 11.9554C8.26906 11.9554 7.91355 12.4027 7.91355 12.8438C7.91355 13.1166 8.02898 13.3469 8.21046 13.5209L9.07603 14.3336L9.6434 14.6301L8.5761 14.5388L5.15759 14.5388C4.60228 14.5388 4.13311 15.0028 4.13311 15.5828C4.13311 16.1702 4.60228 16.6291 5.15759 16.6291L8.5761 16.6291L9.6434 16.5378L9.07603 16.832L8.21046 17.647C8.02898 17.8187 7.91355 18.049 7.91355 18.3195C7.91355 18.7606 8.26906 19.2102 8.77214 19.2102C9.03975 19.2102 9.22354 19.1097 9.39296 18.9357L11.8018 16.4263C12.0648 16.1461 12.1607 15.8607 12.1607 15.5828Z"
                     fill="currentColor" fill-opacity="0.85" />
       </g>
</svg>