<?xml version="1.0" encoding="UTF-8"?>
<!--Generator: Apple Native CoreSVG 326-->
<!DOCTYPE svg PUBLIC "-//W3C//DTD SVG 1.1//EN" "http://www.w3.org/Graphics/SVG/1.1/DTD/svg11.dtd">
<svg version="1.1" xmlns="http://www.w3.org/2000/svg" xmlns:xlink="http://www.w3.org/1999/xlink"
       viewBox="0 0 21.365 21.006">
       <g>
              <rect height="21.006" opacity="0" width="21.365" x="0" y="0" />
              <path d="M10.4981 20.9962C16.302 20.9962 21.0037 16.2946 21.0037 10.4981C21.0037 4.70163 16.302 0 10.4981 0C4.70163 0 0 4.70163 0 10.4981C0 16.2946 4.70163 20.9962 10.4981 20.9962ZM10.4981 17.9484C6.37829 17.9484 3.04785 14.6179 3.04785 10.4981C3.04785 6.37829 6.37829 3.04785 10.4981 3.04785C14.6179 3.04785 17.9558 6.37829 17.9558 10.4981C17.9558 14.6179 14.6179 17.9484 10.4981 17.9484Z"
                     fill="currentColor" fill-opacity="0.85" />
              <path d="M9.82634 14.66C10.342 14.66 10.7325 14.2695 10.7325 13.7613L10.7325 12.324L10.7918 12.324C12.2784 12.324 13.0825 12.9759 13.6102 13.9337C13.8779 14.4 14.1421 14.578 14.5308 14.578C15.0952 14.578 15.4209 14.013 15.4209 12.8676C15.4209 9.52555 13.7757 7.58577 10.7918 7.58577L10.7325 7.58577L10.7325 6.12329C10.7325 5.61505 10.342 5.21017 9.82404 5.21017C9.51045 5.21017 9.26236 5.33482 8.92178 5.64842L5.02275 9.24186C4.82744 9.42741 4.71431 9.69217 4.71431 9.9351C4.71431 10.1631 4.81997 10.4577 5.02275 10.6358L8.92178 14.2362C9.24053 14.5279 9.49037 14.66 9.82634 14.66Z"
                     fill="currentColor" fill-opacity="0.85" />
       </g>
</svg>