<?xml version="1.0" encoding="UTF-8"?>
<!--Generator: Apple Native CoreSVG 326-->
<!DOCTYPE svg PUBLIC "-//W3C//DTD SVG 1.1//EN" "http://www.w3.org/Graphics/SVG/1.1/DTD/svg11.dtd">
<svg version="1.1" xmlns="http://www.w3.org/2000/svg" xmlns:xlink="http://www.w3.org/1999/xlink"
       viewBox="0 0 19.1614 16.6548">
       <g>
              <rect height="16.6548" opacity="0" width="19.1614" x="0" y="0" />
              <path d="M16.9346 0C15.9493 0 15.3194 0.664912 15.3194 1.67259C15.3194 2.12861 15.3762 2.71715 15.3762 3.49179C15.3762 5.66746 14.5567 6.53775 12.3977 6.53775L7.36044 6.53775L5.22668 6.66185L6.92341 5.17372L9.1063 3.00399C9.41922 2.69107 9.65402 2.30978 9.65402 1.78444C9.65402 0.8709 8.99196 0.176144 7.97627 0.176144C7.5703 0.176144 7.14886 0.358719 6.80203 0.700941L0.504174 6.99134C0.19695 7.2888 0 7.7843 0 8.24249C0 8.70299 0.19695 9.18873 0.504174 9.49595L6.79742 15.7794C7.14656 16.1337 7.5703 16.3186 7.97627 16.3186C8.99196 16.3186 9.65402 15.6238 9.65402 14.7103C9.65402 14.185 9.41922 13.7962 9.1063 13.4885L6.92341 11.3038L5.22898 9.82028L7.36044 9.94208L12.687 9.94208C16.8557 9.94208 18.8001 7.687 18.8001 3.49761C18.8001 2.9289 18.7731 2.36086 18.6698 1.67763C18.5595 0.95127 18.0789 0 16.9346 0Z"
                     fill="currentColor" fill-opacity="0.85" />
       </g>
</svg>