<?xml version="1.0" encoding="UTF-8"?>
<!--Generator: Apple Native CoreSVG 326-->
<!DOCTYPE svg PUBLIC "-//W3C//DTD SVG 1.1//EN" "http://www.w3.org/Graphics/SVG/1.1/DTD/svg11.dtd">
<svg version="1.1" xmlns="http://www.w3.org/2000/svg" xmlns:xlink="http://www.w3.org/1999/xlink"
       viewBox="0 0 18.8218 15.5426">
       <g>
              <rect height="15.5426" opacity="0" width="18.8218" x="0" y="0" />
              <path d="M3.24765 13.6527L3.24765 1.62037C3.24765 0.709677 2.52821 0 1.62267 0C0.726903 0 0 0.709677 0 1.62037L0 13.6527C0 14.5611 0.726903 15.2685 1.62267 15.2685C2.52821 15.2685 3.24765 14.5611 3.24765 13.6527ZM18.4604 7.63538C18.4604 6.61048 17.7433 5.92834 16.6685 5.92834L10.0879 5.92834L8.13235 6.10345L9.88063 4.56661L11.2778 3.14526C11.5931 2.83234 11.8376 2.44129 11.8376 1.91595C11.8376 1.00986 11.1658 0.312804 10.1576 0.312804C9.74931 0.312804 9.32041 0.485067 8.97358 0.844516L3.72999 6.38193C3.43023 6.69661 3.22581 7.13012 3.22581 7.63538C3.22581 8.13835 3.43023 8.57416 3.72999 8.88654L8.97358 14.4165C9.32041 14.7685 9.74931 14.9459 10.1576 14.9459C11.1658 14.9459 11.8376 14.2511 11.8376 13.3376C11.8376 12.8123 11.6005 12.4361 11.2778 12.1134L9.88063 10.7019L8.13004 9.16732L10.0879 9.34013L16.6685 9.34013C17.7433 9.34013 18.4604 8.65799 18.4604 7.63538Z"
                     fill="currentColor" fill-opacity="0.85" />
       </g>
</svg>