<?xml version="1.0" encoding="UTF-8"?>
<!--Generator: Apple Native CoreSVG 326-->
<!DOCTYPE svg PUBLIC "-//W3C//DTD SVG 1.1//EN" "http://www.w3.org/Graphics/SVG/1.1/DTD/svg11.dtd">
<svg version="1.1" xmlns="http://www.w3.org/2000/svg" xmlns:xlink="http://www.w3.org/1999/xlink"
       viewBox="0 0 21.365 21.006">
       <g>
              <rect height="21.006" opacity="0" width="21.365" x="0" y="0" />
              <path d="M10.4981 20.9962C16.302 20.9962 21.0037 16.2946 21.0037 10.4981C21.0037 4.70163 16.302 0 10.4981 0C4.70163 0 0 4.70163 0 10.4981C0 16.2946 4.70163 20.9962 10.4981 20.9962ZM10.4981 17.9484C6.37829 17.9484 3.04785 14.6179 3.04785 10.4981C3.04785 6.37829 6.37829 3.04785 10.4981 3.04785C14.6179 3.04785 17.9558 6.37829 17.9558 10.4981C17.9558 14.6179 14.6179 17.9484 10.4981 17.9484Z"
                     fill="currentColor" fill-opacity="0.85" />
              <path d="M7.504 7.41223C6.84304 7.41223 6.4307 7.89863 6.4307 8.63366L6.4307 12.9745C6.4307 13.946 6.99916 14.484 7.95978 14.484L12.3052 14.484C13.0626 14.484 13.5421 14.074 13.5421 13.4055C13.5421 12.7371 13.0677 12.3271 12.3304 12.3271L11.0902 12.3271L10.1 12.4833L11.3176 11.4455L14.175 8.5829C14.4311 8.33427 14.581 7.98228 14.581 7.64521C14.581 6.88495 13.9971 6.37792 13.2913 6.37792C12.9301 6.37792 12.6177 6.50312 12.3094 6.79651L9.48412 9.61435L8.45091 10.8273L8.58247 9.78133L8.58247 8.64397C8.58247 7.89918 8.17244 7.41223 7.504 7.41223Z"
                     fill="currentColor" fill-opacity="0.85" />
       </g>
</svg>