<?xml version="1.0" encoding="UTF-8"?>
<!--Generator: Apple Native CoreSVG 326-->
<!DOCTYPE svg PUBLIC "-//W3C//DTD SVG 1.1//EN" "http://www.w3.org/Graphics/SVG/1.1/DTD/svg11.dtd">
<svg version="1.1" xmlns="http://www.w3.org/2000/svg" xmlns:xlink="http://www.w3.org/1999/xlink"
       viewBox="0 0 19.3993 19.0529">
       <g>
              <rect height="19.0529" opacity="0" width="19.3993" x="0" y="0" />
              <path d="M19.0379 3.63912L19.0379 15.4011C19.0379 17.7262 17.7164 19.0379 15.3896 19.0379L3.64834 19.0379C1.32382 19.0379 0 17.7262 0 15.4011L0 3.63912C0 1.32151 1.32382 0 3.64834 0L15.3896 0C17.7164 0 19.0379 1.32151 19.0379 3.63912ZM5.26925 6.48377C5.26925 6.85068 5.43175 7.22735 5.70507 7.50067L8.74224 10.5332L10.0385 11.6348L8.97704 11.4711L7.67542 11.4711C6.88125 11.4711 6.35985 11.9133 6.35985 12.6213C6.35985 13.3391 6.8864 13.7813 7.69319 13.7813L12.332 13.7813C13.3644 13.7813 13.9724 13.2037 13.9724 12.1678L13.9724 7.53366C13.9724 6.7418 13.5279 6.23071 12.8199 6.23071C12.1096 6.23071 11.6674 6.74235 11.6674 7.55144L11.6674 8.75024L11.7989 9.8674L10.7094 8.57579L7.70672 5.57823C7.38118 5.26015 7.02919 5.1275 6.6433 5.1275C5.89795 5.1275 5.26925 5.67413 5.26925 6.48377Z"
                     fill="currentColor" fill-opacity="0.85" />
       </g>
</svg>