<?xml version="1.0" encoding="UTF-8"?>
<!--Generator: Apple Native CoreSVG 326-->
<!DOCTYPE svg PUBLIC "-//W3C//DTD SVG 1.1//EN" "http://www.w3.org/Graphics/SVG/1.1/DTD/svg11.dtd">
<svg version="1.1" xmlns="http://www.w3.org/2000/svg" xmlns:xlink="http://www.w3.org/1999/xlink"
       viewBox="0 0 21.365 21.006">
       <g>
              <rect height="21.006" opacity="0" width="21.365" x="0" y="0" />
              <path d="M10.4981 20.9962C16.302 20.9962 21.0037 16.2946 21.0037 10.4981C21.0037 4.70163 16.302 0 10.4981 0C4.70163 0 0 4.70163 0 10.4981C0 16.2946 4.70163 20.9962 10.4981 20.9962ZM10.4981 17.9484C6.37829 17.9484 3.04785 14.6179 3.04785 10.4981C3.04785 6.37829 6.37829 3.04785 10.4981 3.04785C14.6179 3.04785 17.9558 6.37829 17.9558 10.4981C17.9558 14.6179 14.6179 17.9484 10.4981 17.9484Z"
                     fill="currentColor" fill-opacity="0.85" />
              <path d="M10.4935 12.9838C10.7887 12.9838 11.0465 12.8586 11.228 12.692L14.2177 9.83999C14.4337 9.64874 14.5272 9.38574 14.5272 9.14796C14.5272 8.56512 14.1241 8.16255 13.5912 8.16255C13.2886 8.16255 13.0606 8.30321 12.8642 8.48985L12.2512 9.09992L11.3686 10.1251L11.491 8.84759L11.491 6.11844C11.491 5.49884 11.0884 5.06873 10.4935 5.06873C9.89397 5.06873 9.49601 5.49884 9.49601 6.11844L9.49601 8.84759L9.61835 10.1274L8.72883 9.09762L8.12743 8.48985C7.94079 8.29575 7.72716 8.16255 7.41763 8.16255C6.87494 8.16255 6.47182 8.56051 6.47182 9.14796C6.47182 9.37882 6.57979 9.64359 6.7865 9.83769L9.75901 12.692C9.9405 12.8684 10.2058 12.9838 10.4935 12.9838ZM7.23657 15.3703L13.7648 15.3703C14.2949 15.3703 14.7152 14.9477 14.7152 14.4176C14.7152 13.8898 14.2949 13.4672 13.7648 13.4672L7.23657 13.4672C6.7065 13.4672 6.28385 13.8898 6.28385 14.4176C6.28385 14.9477 6.7065 15.3703 7.23657 15.3703Z"
                     fill="currentColor" fill-opacity="0.85" />
       </g>
</svg>