<?xml version="1.0" encoding="UTF-8"?>
<!--Generator: Apple Native CoreSVG 326-->
<!DOCTYPE svg PUBLIC "-//W3C//DTD SVG 1.1//EN" "http://www.w3.org/Graphics/SVG/1.1/DTD/svg11.dtd">
<svg version="1.1" xmlns="http://www.w3.org/2000/svg" xmlns:xlink="http://www.w3.org/1999/xlink"
       viewBox="0 0 21.365 21.006">
       <g>
              <rect height="21.006" opacity="0" width="21.365" x="0" y="0" />
              <path d="M21.0037 10.4981C21.0037 16.2923 16.302 20.9962 10.4981 20.9962C4.70394 20.9962 0 16.2923 0 10.4981C0 4.70163 4.70394 0 10.4981 0C16.302 0 21.0037 4.70163 21.0037 10.4981ZM5.5985 7.0224L5.5985 13.9715C5.5985 14.5412 6.05329 14.9937 6.62528 14.9937C7.1875 14.9937 7.6423 14.5412 7.6423 13.9715L7.6423 7.0224C7.6423 6.45271 7.1875 6.00022 6.62528 6.00022C6.05329 6.00022 5.5985 6.45271 5.5985 7.0224ZM11.5032 6.53733L8.47426 9.71425C8.29278 9.9078 8.15782 10.1857 8.15782 10.5004C8.15782 10.8128 8.28071 11.093 8.47426 11.2843L11.5009 14.4617C11.6973 14.688 11.9919 14.7908 12.24 14.7908C12.8693 14.7908 13.292 14.363 13.292 13.7933C13.292 13.4539 13.1462 13.2208 12.9475 13.0141L12.2978 12.3759L11.2169 11.4473L12.5725 11.572L15.4584 11.572C16.1326 11.572 16.5874 11.1419 16.5874 10.5004C16.5874 9.86359 16.1326 9.43863 15.4584 9.43863L12.5725 9.43863L11.2192 9.55351L12.3001 8.62493L12.9475 7.97239C13.1611 7.77083 13.292 7.54052 13.292 7.21322C13.292 6.63092 12.8647 6.20311 12.24 6.20311C11.9896 6.20311 11.7168 6.30647 11.5032 6.53733Z"
                     fill="currentColor" fill-opacity="0.85" />
       </g>
</svg>