<?xml version="1.0" encoding="UTF-8"?>
<!--Generator: Apple Native CoreSVG 326-->
<!DOCTYPE svg PUBLIC "-//W3C//DTD SVG 1.1//EN" "http://www.w3.org/Graphics/SVG/1.1/DTD/svg11.dtd">
<svg version="1.1" xmlns="http://www.w3.org/2000/svg" xmlns:xlink="http://www.w3.org/1999/xlink"
       viewBox="0 0 19.3993 19.0529">
       <g>
              <rect height="19.0529" opacity="0" width="19.3993" x="0" y="0" />
              <path d="M19.0379 3.63912L19.0379 15.4011C19.0379 17.7262 17.7164 19.0379 15.3896 19.0379L3.64834 19.0379C1.32382 19.0379 0 17.7262 0 15.4011L0 3.63912C0 1.32151 1.32382 0 3.64834 0L15.3896 0C17.7164 0 19.0379 1.32151 19.0379 3.63912ZM4.29924 10.2437L4.29924 13.4713C4.29924 14.335 4.76842 14.8105 5.64356 14.8105L8.87635 14.8105C9.41334 14.8105 9.85497 14.3665 9.85497 13.8221C9.85497 13.2702 9.41334 12.8434 8.87635 12.8434L8.53267 12.8434L7.56988 13.0082L9.24502 11.5002C9.71935 11.0804 9.68435 10.3315 9.24732 9.8796C8.79537 9.43281 8.04136 9.40812 7.62671 9.8819L6.10146 11.5617L6.27372 10.6023L6.27372 10.2437C6.27372 9.69175 5.82978 9.26503 5.29279 9.26503C4.74088 9.26503 4.29924 9.69175 4.29924 10.2437ZM10.3005 4.25217C9.7635 4.25217 9.31956 4.69611 9.31956 5.24802C9.31956 5.79247 9.7635 6.22665 10.3005 6.22665L10.6442 6.22665L11.607 6.05439L9.92952 7.56242C9.45519 7.98968 9.48273 8.73108 9.92721 9.18303C10.3815 9.62982 11.1332 9.66197 11.5501 9.18072L13.0754 7.50097L12.9031 8.46037L12.9031 8.82643C12.9031 9.37088 13.3448 9.80505 13.8817 9.80505C14.4262 9.80505 14.8701 9.37088 14.8701 8.82643L14.8701 5.59134C14.8701 4.73506 14.4061 4.25217 13.5235 4.25217Z"
                     fill="currentColor" fill-opacity="0.85" />
       </g>
</svg>