<?xml version="1.0" encoding="UTF-8"?>
<!--Generator: Apple Native CoreSVG 326-->
<!DOCTYPE svg PUBLIC "-//W3C//DTD SVG 1.1//EN" "http://www.w3.org/Graphics/SVG/1.1/DTD/svg11.dtd">
<svg version="1.1" xmlns="http://www.w3.org/2000/svg" xmlns:xlink="http://www.w3.org/1999/xlink"
       viewBox="0 0 26.0051 18.9897">
       <g>
              <rect height="18.9897" opacity="0" width="26.0051" x="0" y="0" />
              <path d="M3.09346 18.8266L9.05674 18.8266C11.1043 18.8266 12.0135 17.8549 12.0135 15.8142L12.0135 14.3934L13.8965 14.3934L13.8965 17.1607C13.8965 18.1955 14.6884 18.9897 15.733 18.9897C16.4129 18.9897 16.9304 18.7347 17.5782 18.1311L25.3877 10.9154C25.7984 10.5265 26.0051 9.96142 26.0051 9.49741C26.0051 9.0087 25.8059 8.47347 25.3952 8.09206L17.5782 0.885033C16.8741 0.240077 16.3877 0.00285089 15.7376 0.00285089C14.6884 0.00285089 13.8965 0.818312 13.8965 1.8531L13.8965 4.78419L8.85682 4.78419C6.63766 4.78419 5.66134 5.83796 5.66134 8.05021L5.66134 9.33024L3.09346 9.33024C1.24733 9.33024 0.136719 10.3892 0.136719 12.1762L0.136719 15.9858C0.136719 17.8325 1.18019 18.8266 3.09346 18.8266ZM3.53892 16.4503C3.13313 16.4503 2.9027 16.2256 2.9027 15.7888L2.9027 12.3807C2.9027 11.9438 3.13313 11.714 3.53892 11.714L5.86738 11.714L5.86738 11.8917C5.86738 12.5322 6.14246 13.0663 6.75648 13.6469L9.24004 15.7261L9.24004 15.7888C9.24004 16.2256 9.01707 16.4503 8.61128 16.4503ZM16.5232 15.2636C16.4278 15.2636 16.3492 15.1826 16.3492 15.0724L16.3492 11.6213C16.3492 11.4042 16.2567 11.314 16.0395 11.314L9.34704 11.314C8.91141 11.314 8.68098 11.0669 8.68098 10.6077L8.68098 8.07611C8.68098 7.61458 8.91141 7.36231 9.34704 7.36231L16.0395 7.36231C16.2567 7.36231 16.3492 7.27212 16.3492 7.05497L16.3492 3.90171C16.3492 3.79374 16.4278 3.72768 16.5232 3.72768C16.5743 3.72768 16.6255 3.74436 16.6743 3.78343L22.5382 9.32678C22.6088 9.39514 22.6307 9.43881 22.6307 9.49741C22.6307 9.54854 22.6088 9.59737 22.5382 9.66803L16.6743 15.1832C16.6232 15.2343 16.572 15.2636 16.5232 15.2636Z"
                     fill="currentColor" fill-opacity="0.85" />
       </g>
</svg>