<?xml version="1.0" encoding="UTF-8"?>
<!--Generator: Apple Native CoreSVG 326-->
<!DOCTYPE svg PUBLIC "-//W3C//DTD SVG 1.1//EN" "http://www.w3.org/Graphics/SVG/1.1/DTD/svg11.dtd">
<svg version="1.1" xmlns="http://www.w3.org/2000/svg" xmlns:xlink="http://www.w3.org/1999/xlink"
       viewBox="0 0 19.3993 19.3263">
       <g>
              <rect height="19.3263" opacity="0" width="19.3993" x="0" y="0" />
              <path d="M19.0379 3.63912L19.0379 15.4011C19.0379 17.7262 17.7164 19.0379 15.3896 19.0379L3.64834 19.0379C1.32382 19.0379 0 17.7262 0 15.4011L0 3.63912C0 1.32151 1.32382 0 3.64834 0L15.3896 0C17.7164 0 19.0379 1.32151 19.0379 3.63912ZM10.447 4.92831C10.447 5.16092 10.54 5.401 10.7313 5.56526L11.6952 6.43276L12.3071 6.87057L11.5922 6.79936L8.65107 6.79936C6.13112 6.79936 4.44694 8.41342 4.44694 10.8242C4.44694 13.3223 6.12596 14.98 8.63846 14.98L10.1336 14.98C10.8187 14.98 11.2729 14.5602 11.2729 13.9343C11.2729 13.3255 10.8135 12.9207 10.1307 12.9207L8.63846 12.9207C7.3779 12.9207 6.54364 12.083 6.54364 10.8242C6.54364 9.58329 7.38075 8.73939 8.65107 8.73939L11.5922 8.73939L12.3047 8.67794L11.7562 9.04497L10.7313 9.88166C10.5326 10.0505 10.4246 10.286 10.4246 10.5158C10.4246 11.0401 10.8788 11.4841 11.3837 11.4841C11.6232 11.4841 11.8736 11.391 12.0476 11.217L14.8151 8.42822C15.0081 8.22029 15.1012 7.96815 15.1012 7.73092C15.1012 7.47647 14.9984 7.23178 14.8151 7.03877L12.0499 4.24198C11.8661 4.05819 11.6404 3.96745 11.4009 3.96745C10.9064 3.96745 10.447 4.41655 10.447 4.92831Z"
                     fill="currentColor" fill-opacity="0.85" />
       </g>
</svg>