<?xml version="1.0" encoding="UTF-8"?>
<!--Generator: Apple Native CoreSVG 326-->
<!DOCTYPE svg PUBLIC "-//W3C//DTD SVG 1.1//EN" "http://www.w3.org/Graphics/SVG/1.1/DTD/svg11.dtd">
<svg version="1.1" xmlns="http://www.w3.org/2000/svg" xmlns:xlink="http://www.w3.org/1999/xlink"
       viewBox="0 0 19.3993 19.0529">
       <g>
              <rect height="19.0529" opacity="0" width="19.3993" x="0" y="0" />
              <path d="M19.0379 3.63912L19.0379 15.4011C19.0379 17.7262 17.7164 19.0379 15.3896 19.0379L3.64834 19.0379C1.32382 19.0379 0 17.7262 0 15.4011L0 3.63912C0 1.32151 1.32382 0 3.64834 0L15.3896 0C17.7164 0 19.0379 1.32151 19.0379 3.63912ZM11.0418 6.78923C11.0418 7.11083 11.2542 7.36122 11.4581 7.57485L11.6976 7.80971L12.6147 8.46722L10.7968 8.34433L8.42246 8.34433L6.6046 8.46722L7.51941 7.80971L7.75888 7.57485C7.96275 7.36122 8.17517 7.11083 8.17517 6.78923C8.17517 6.19256 7.79552 5.77846 7.22869 5.77846C6.96162 5.77846 6.71639 5.87151 6.4626 6.10522L3.91056 8.53789C3.63318 8.80265 3.47814 9.11788 3.47814 9.52155C3.47814 9.92291 3.63318 10.2307 3.91056 10.4954L6.4626 12.9379C6.71639 13.1716 6.96162 13.2623 7.22869 13.2623C7.79552 13.2623 8.17517 12.8528 8.17517 12.2539C8.17517 11.9323 7.96044 11.6744 7.75888 11.4705L7.51941 11.2334L6.6069 10.5759L8.42246 10.7011L10.7968 10.7011L12.6124 10.5759L11.6976 11.2334L11.4581 11.4705C11.2566 11.6744 11.0418 11.9323 11.0418 12.2539C11.0418 12.8528 11.4215 13.2623 11.9808 13.2623C12.2554 13.2623 12.5006 13.1716 12.7544 12.9379L15.3064 10.4954C15.5838 10.2307 15.7389 9.92291 15.7389 9.52155C15.7389 9.11788 15.5838 8.80265 15.3064 8.53789L12.7544 6.10522C12.5006 5.87151 12.2554 5.77846 11.9808 5.77846C11.4215 5.77846 11.0418 6.19256 11.0418 6.78923Z"
                     fill="currentColor" fill-opacity="0.85" />
       </g>
</svg>