<?xml version="1.0" encoding="UTF-8"?>
<!--Generator: Apple Native CoreSVG 326-->
<!DOCTYPE svg PUBLIC "-//W3C//DTD SVG 1.1//EN" "http://www.w3.org/Graphics/SVG/1.1/DTD/svg11.dtd">
<svg version="1.1" xmlns="http://www.w3.org/2000/svg" xmlns:xlink="http://www.w3.org/1999/xlink"
       viewBox="0 0 21.365 21.006">
       <g>
              <rect height="21.006" opacity="0" width="21.365" x="0" y="0" />
              <path d="M10.4981 20.9962C16.302 20.9962 21.0037 16.2946 21.0037 10.4981C21.0037 4.70163 16.302 0 10.4981 0C4.70163 0 0 4.70163 0 10.4981C0 16.2946 4.70163 20.9962 10.4981 20.9962ZM10.4981 17.9484C6.37829 17.9484 3.04785 14.6179 3.04785 10.4981C3.04785 6.37829 6.37829 3.04785 10.4981 3.04785C14.6179 3.04785 17.9558 6.37829 17.9558 10.4981C17.9558 14.6179 14.6179 17.9484 10.4981 17.9484Z"
                     fill="currentColor" fill-opacity="0.85" />
              <path d="M5.43721 11.5627C5.43721 13.9214 7.06413 15.4757 9.40666 15.4757C9.4567 15.4757 10.6286 15.4757 10.8341 15.4757C11.4675 15.4757 11.9017 15.0898 11.9017 14.4989C11.9017 13.9205 11.4601 13.557 10.8312 13.557C10.6355 13.557 9.4567 13.557 9.40666 13.557C8.21556 13.557 7.40247 12.7589 7.40247 11.5368C7.40247 10.3015 8.22994 9.53337 9.41928 9.53337L12.2273 9.53337L12.9469 9.46216L12.4029 9.84709L11.4209 10.6534C11.2297 10.8102 11.1389 11.0353 11.1389 11.2484C11.1389 11.7332 11.561 12.1404 12.0263 12.1404C12.2537 12.1404 12.4771 12.0571 12.6437 11.8905L15.2735 9.23428C15.4521 9.05334 15.5446 8.82073 15.5446 8.59381C15.5446 8.34682 15.4447 8.12682 15.2735 7.94588L12.646 5.28678C12.4794 5.11046 12.2635 5.02948 12.0435 5.02948C11.576 5.02948 11.1539 5.44412 11.1539 5.91912C11.1539 6.13912 11.2418 6.36197 11.4232 6.52392L12.3396 7.35127L12.9469 7.78515L12.2273 7.72601L9.41928 7.72601C7.06928 7.72601 5.43721 9.24132 5.43721 11.5627Z"
                     fill="currentColor" fill-opacity="0.85" />
       </g>
</svg>