<?xml version="1.0" encoding="UTF-8"?>
<!--Generator: Apple Native CoreSVG 326-->
<!DOCTYPE svg PUBLIC "-//W3C//DTD SVG 1.1//EN" "http://www.w3.org/Graphics/SVG/1.1/DTD/svg11.dtd">
<svg version="1.1" xmlns="http://www.w3.org/2000/svg" xmlns:xlink="http://www.w3.org/1999/xlink"
       viewBox="0 0 13.3334 18.4948">
       <g>
              <rect height="18.4948" opacity="0" width="13.3334" x="0" y="0" />
              <path d="M1.32018 17.1745C1.67108 17.1745 2.04666 17.0642 2.38548 16.8408L2.88584 16.5065C4.08658 15.7228 5.81995 13.9584 6.46764 12.9307L6.51185 12.9307C7.14231 13.9561 8.87568 15.7153 10.0937 16.5065L10.594 16.8408C10.9254 17.0493 11.2935 17.167 11.6495 17.167C12.5132 17.167 12.972 16.579 12.972 15.8468C12.972 15.3972 12.7263 14.955 12.3134 14.692L11.512 14.1865C10.0875 13.2806 7.83664 10.9851 7.83664 9.29385L7.83664 4.6715L5.13538 4.6715L5.13538 9.29385C5.13538 10.9851 2.86733 13.2783 1.46745 14.1865L0.651204 14.7069C0.236013 14.9625 0 15.3995 0 15.8491C0 16.5572 0.441637 17.1745 1.32018 17.1745ZM3.42786 5.88541L9.54417 5.88541C10.4441 5.88541 10.7267 5.09354 10.1294 4.28039L7.34739 0.478765C6.87822-0.169588 6.10358-0.14951 5.63956 0.478765L2.84028 4.27808C2.25052 5.08608 2.50837 5.88541 3.42786 5.88541Z"
                     fill="currentColor" fill-opacity="0.85" />
       </g>
</svg>