<?xml version="1.0" encoding="UTF-8"?>
<!--Generator: Apple Native CoreSVG 326-->
<!DOCTYPE svg PUBLIC "-//W3C//DTD SVG 1.1//EN" "http://www.w3.org/Graphics/SVG/1.1/DTD/svg11.dtd">
<svg version="1.1" xmlns="http://www.w3.org/2000/svg" xmlns:xlink="http://www.w3.org/1999/xlink"
       viewBox="0 0 19.1614 16.6548">
       <g>
              <rect height="16.6548" opacity="0" width="19.1614" x="0" y="0" />
              <path d="M1.86548 0C0.721201 0 0.240623 0.95127 0.132655 1.67763C0.026992 2.36086 0 2.9289 0 3.49761C0 7.687 1.94676 9.94208 6.1131 9.94208L11.4322 9.94208L13.5711 9.82028L11.8767 11.3038L9.69381 13.4885C9.38088 13.7962 9.14608 14.185 9.14608 14.7103C9.14608 15.6238 9.80814 16.3186 10.8261 16.3186C11.2298 16.3186 11.6535 16.1337 12.0027 15.7794L18.2959 9.49595C18.6055 9.18873 18.8001 8.70299 18.8001 8.24249C18.8001 7.7843 18.6055 7.2888 18.2959 6.99134L11.9981 0.700941C11.6535 0.358719 11.2298 0.176144 10.8261 0.176144C9.80814 0.176144 9.14608 0.8709 9.14608 1.78444C9.14608 2.30978 9.38319 2.69107 9.69381 3.00399L11.8767 5.17372L13.5734 6.66185L11.4322 6.53775L6.40243 6.53775C4.24344 6.53775 3.42386 5.66746 3.42386 3.49179C3.42386 2.71715 3.483 2.12861 3.483 1.67259C3.483 0.664912 2.85078 0 1.86548 0Z"
                     fill="currentColor" fill-opacity="0.85" />
       </g>
</svg>