<?xml version="1.0" encoding="UTF-8"?>
<!--Generator: Apple Native CoreSVG 326-->
<!DOCTYPE svg PUBLIC "-//W3C//DTD SVG 1.1//EN" "http://www.w3.org/Graphics/SVG/1.1/DTD/svg11.dtd">
<svg version="1.1" xmlns="http://www.w3.org/2000/svg" xmlns:xlink="http://www.w3.org/1999/xlink"
       viewBox="0 0 19.3993 19.0529">
       <g>
              <rect height="19.0529" opacity="0" width="19.3993" x="0" y="0" />
              <path d="M19.0379 3.63912L19.0379 15.4011C19.0379 17.7262 17.7164 19.0379 15.3896 19.0379L3.64834 19.0379C1.32382 19.0379 0 17.7262 0 15.4011L0 3.63912C0 1.32151 1.32382 0 3.64834 0L15.3896 0C17.7164 0 19.0379 1.32151 19.0379 3.63912ZM7.98944 5.13551L4.83854 8.41851C4.49916 8.78027 4.37112 9.14772 4.37112 9.51924C4.37112 9.88846 4.49916 10.2582 4.83854 10.62L7.98944 13.8955C8.21799 14.1189 8.45115 14.2493 8.80029 14.2493C9.44919 14.2493 9.90113 13.6854 9.90113 13.1013C9.90113 12.7568 9.75586 12.4576 9.5227 12.2314L8.40663 11.1756L7.61003 10.7538L9.07894 10.8721L13.5171 10.8721C14.2378 10.8721 14.8505 10.272 14.8505 9.51924C14.8505 8.75152 14.2378 8.1566 13.5171 8.1566L9.07894 8.1566L7.61234 8.28465L8.40663 7.86285L9.5227 6.80713C9.75586 6.58088 9.90113 6.27651 9.90113 5.93944C9.90113 5.35538 9.44919 4.78176 8.80029 4.78176C8.45115 4.78176 8.21799 4.91211 7.98944 5.13551Z"
                     fill="currentColor" fill-opacity="0.85" />
       </g>
</svg>