<?xml version="1.0" encoding="UTF-8"?>
<!--Generator: Apple Native CoreSVG 326-->
<!DOCTYPE svg PUBLIC "-//W3C//DTD SVG 1.1//EN" "http://www.w3.org/Graphics/SVG/1.1/DTD/svg11.dtd">
<svg version="1.1" xmlns="http://www.w3.org/2000/svg" xmlns:xlink="http://www.w3.org/1999/xlink"
       viewBox="0 0 38.08 24.7105">
       <g>
              <rect height="24.7105" opacity="0" width="38.08" x="0" y="0" />
              <path d="M11.5163 15.6781L11.5163 22.0653C11.5163 23.6095 10.5371 24.6336 9.06226 24.6336L2.44947 24.6336C0.974683 24.6336 0 23.6095 0 22.0653L0 15.6781C0 14.1264 0.974683 13.1075 2.44947 13.1075L9.06226 13.1075C10.5371 13.1075 11.5163 14.1264 11.5163 15.6781ZM37.7187 15.6781L37.7187 22.0653C37.7187 23.6095 36.744 24.6336 35.2692 24.6336L28.6564 24.6336C27.1816 24.6336 26.2023 23.6095 26.2023 22.0653L26.2023 15.6781C26.2023 14.1264 27.1816 13.1075 28.6564 13.1075L35.2692 13.1075C36.744 13.1075 37.7187 14.1264 37.7187 15.6781ZM2.65091 15.4543C2.47216 15.4543 2.34685 15.5819 2.34685 15.7676L2.34685 21.9758C2.34685 22.1591 2.47216 22.2867 2.65091 22.2867L8.86082 22.2867C9.04188 22.2867 9.1695 22.1591 9.1695 21.9758L9.1695 15.7676C9.1695 15.5819 9.04188 15.4543 8.86082 15.4543ZM28.8579 15.4543C28.6768 15.4543 28.5492 15.5819 28.5492 15.7676L28.5492 21.9758C28.5492 22.1591 28.6768 22.2867 28.8579 22.2867L35.0678 22.2867C35.2465 22.2867 35.3718 22.1591 35.3718 21.9758L35.3718 15.7676C35.3718 15.5819 35.2465 15.4543 35.0678 15.4543ZM24.6187 2.5683L24.6187 8.95781C24.6187 10.5021 23.6394 11.5238 22.1646 11.5238L15.5518 11.5238C14.077 11.5238 13.1023 10.5021 13.1023 8.95781L13.1023 2.5683C13.1023 1.0166 14.077 0 15.5518 0L22.1646 0C23.6394 0 24.6187 1.0166 24.6187 2.5683ZM15.7682 2.34685C15.5894 2.34685 15.4641 2.46701 15.4641 2.65037L15.4641 8.86828C15.4641 9.04934 15.5894 9.17696 15.7682 9.17696L21.9855 9.17696C22.1591 9.17696 22.2867 9.04934 22.2867 8.86828L22.2867 2.65037C22.2867 2.46701 22.1591 2.34685 21.9855 2.34685Z"
                     fill="currentColor" fill-opacity="0.85" />
              <path d="M24.6187 15.6781L24.6187 22.0653C24.6187 23.6095 23.6394 24.6336 22.1646 24.6336L15.5518 24.6336C14.077 24.6336 13.1023 23.6095 13.1023 22.0653L13.1023 15.6781C13.1023 14.1264 14.077 13.1075 15.5518 13.1075L22.1646 13.1075C23.6394 13.1075 24.6187 14.1264 24.6187 15.6781ZM16.8993 16.5697C16.2831 16.5697 15.9919 17.1923 16.2934 17.7144L18.2049 20.9697C18.4966 21.4676 19.21 21.4699 19.5092 20.972L21.4201 17.7144C21.7314 17.2021 21.4281 16.5697 20.8165 16.5697Z"
                     fill="currentColor" fill-opacity="0.85" />
       </g>
</svg>