<?xml version="1.0" encoding="UTF-8"?>
<!--Generator: Apple Native CoreSVG 326-->
<!DOCTYPE svg PUBLIC "-//W3C//DTD SVG 1.1//EN" "http://www.w3.org/Graphics/SVG/1.1/DTD/svg11.dtd">
<svg version="1.1" xmlns="http://www.w3.org/2000/svg" xmlns:xlink="http://www.w3.org/1999/xlink"
       viewBox="0 0 21.365 24.1601">
       <g>
              <rect height="24.1601" opacity="0" width="21.365" x="0" y="0" />
              <path d="M10.4981 22.5733C16.302 22.5733 21.0037 17.8642 21.0037 12.0752C21.0037 9.28511 19.8503 6.50409 17.7411 4.53101C16.9682 3.76626 16.0087 3.82376 15.4363 4.4382C14.7967 5.13933 15.0058 6.03849 15.6449 6.73665C17.1034 8.15388 17.9558 9.95596 17.9558 12.0752C17.9558 16.195 14.6179 19.5254 10.4981 19.5254C6.37829 19.5254 3.04785 16.195 3.04785 12.0752C3.04785 8.78179 5.16529 6.01763 8.10601 5.02627L8.10601 5.8655C8.10601 6.67823 8.86804 6.86894 9.43499 6.43816L12.7367 3.91492C13.1314 3.60988 13.1337 3.05907 12.7367 2.75918L9.43729 0.22849C8.86804-0.212055 8.10601-0.0138912 8.10601 0.808605L8.10601 1.85959C3.46856 2.92787 0 7.10513 0 12.0752C0 17.8642 4.70163 22.5733 10.4981 22.5733Z"
                     fill="currentColor" fill-opacity="0.85" />
       </g>
</svg>