<?xml version="1.0" encoding="UTF-8"?>
<!--Generator: Apple Native CoreSVG 326-->
<!DOCTYPE svg PUBLIC "-//W3C//DTD SVG 1.1//EN" "http://www.w3.org/Graphics/SVG/1.1/DTD/svg11.dtd">
<svg version="1.1" xmlns="http://www.w3.org/2000/svg" xmlns:xlink="http://www.w3.org/1999/xlink"
       viewBox="0 0 23.9754 25.6562">
       <g>
              <rect height="25.6562" opacity="0" width="23.9754" x="0" y="0" />
              <path d="M23.6157 23.5974L23.6157 15.8028C23.6157 14.2826 22.8571 13.5165 21.3392 13.5165L10.1444 13.5165C8.54643 13.5165 7.62488 14.6758 7.62488 15.9488C7.62488 16.8302 8.06354 17.7793 9.0597 18.3678L20.2223 25.1647C20.7236 25.4616 21.1349 25.6465 21.7229 25.6465C22.8214 25.6465 23.6157 24.9688 23.6157 23.5974ZM23.6157 2.04908C23.6157 0.670189 22.8214 0 21.7229 0C21.1349 0 20.7236 0.177419 20.2223 0.481791L9.0597 7.27866C8.06354 7.86721 7.62488 8.8163 7.62488 9.69539C7.62488 10.9632 8.54643 12.1225 10.1444 12.1225L21.3392 12.1225C22.8571 12.1225 23.6157 11.3639 23.6157 9.84369Z"
                     fill="currentColor" fill-opacity="0.85" />
              <path d="M5.22496 19.7325L3.98011 19.7325L3.98011 5.90651L5.22496 5.90651C6.05261 5.90651 6.32308 5.13581 5.83316 4.49195L3.64086 1.61321C3.31575 1.17836 2.77251 1.19559 2.45486 1.61321L0.250493 4.49195C-0.246887 5.15073 0.0138129 5.90651 0.878223 5.90651L2.07885 5.90651L2.07885 19.7325L0.878223 19.7325C0.0161178 19.7325-0.246887 20.4957 0.252798 21.1522L2.45486 24.0333C2.77251 24.4509 3.31575 24.4607 3.64086 24.0333L5.83546 21.1522C6.32308 20.5032 6.05492 19.7325 5.22496 19.7325Z"
                     fill="currentColor" fill-opacity="0.85" />
       </g>
</svg>