<?xml version="1.0" encoding="UTF-8"?>
<!--Generator: Apple Native CoreSVG 326-->
<!DOCTYPE svg PUBLIC "-//W3C//DTD SVG 1.1//EN" "http://www.w3.org/Graphics/SVG/1.1/DTD/svg11.dtd">
<svg version="1.1" xmlns="http://www.w3.org/2000/svg" xmlns:xlink="http://www.w3.org/1999/xlink"
       viewBox="0 0 23.8214 19.0529">
       <g>
              <rect height="19.0529" opacity="0" width="23.8214" x="0" y="0" />
              <path d="M3.64834 19.0529L19.8117 19.0529C22.1386 19.0529 23.4601 17.7336 23.4601 15.416L23.4601 3.65404C23.4601 1.32897 22.1386 0.0149214 19.8117 0.0149214L3.64834 0.0149214C1.32382 0.0149214 0 1.32897 0 3.65404L0 15.416C0 17.7336 1.32382 19.0529 3.64834 19.0529ZM4.05583 16.0332C3.37024 16.0332 3.01964 15.7171 3.01964 14.985L3.01964 4.07767C3.01964 3.34555 3.37024 3.03457 4.05583 3.03457L19.4042 3.03457C20.0875 3.03457 20.4404 3.34555 20.4404 4.07767L20.4404 14.985C20.4404 15.7171 20.0875 16.0332 19.4042 16.0332Z"
                     fill="currentColor" fill-opacity="0.85" />
              <path d="M13.1876 5.10742C12.6236 5.10742 12.2733 5.51922 12.2733 6.14234L12.2733 9.88154C12.2733 10.7062 12.7574 11.1547 13.5613 11.1547L17.3097 11.1547C17.9529 11.1547 18.3653 10.8043 18.3653 10.2478C18.3653 9.67634 17.9581 9.32599 17.335 9.32599L16.2665 9.32599L15.3733 9.45986L16.4565 8.53395L18.7716 6.21889C18.9904 6.0001 19.1179 5.70264 19.1179 5.42526C19.1179 4.78437 18.6258 4.35711 18.032 4.35711C17.7207 4.35711 17.4554 4.45992 17.2067 4.70855L14.914 6.99377L13.9927 8.06495L14.1094 7.13837L14.1094 6.15265C14.1094 5.51977 13.759 5.10742 13.1876 5.10742Z"
                     fill="currentColor" fill-opacity="0.85" />
       </g>
</svg>