<?xml version="1.0" encoding="UTF-8"?>
<!--Generator: Apple Native CoreSVG 326-->
<!DOCTYPE svg PUBLIC "-//W3C//DTD SVG 1.1//EN" "http://www.w3.org/Graphics/SVG/1.1/DTD/svg11.dtd">
<svg version="1.1" xmlns="http://www.w3.org/2000/svg" xmlns:xlink="http://www.w3.org/1999/xlink"
       viewBox="0 0 22.4475 18.9897">
       <g>
              <rect height="18.9897" opacity="0" width="22.4475" x="0" y="0" />
              <path d="M22.4475 9.49741C22.4475 9.00124 22.2482 8.47577 21.8375 8.09206L14.0205 0.885033C13.3164 0.240077 12.8226 0.0051558 12.1799 0.0051558C11.1307 0.0051558 10.3366 0.818312 10.3366 1.8531L10.3366 4.74621L3.70736 4.74621C1.76151 4.74621 0.616872 5.88625 0.616872 7.83264L0.616872 11.2391C0.616872 13.178 1.76151 14.318 3.70736 14.318L10.3366 14.318L10.3366 17.1607C10.3366 18.1955 11.1307 18.9897 12.1753 18.9897C12.8553 18.9897 13.3727 18.7272 14.0205 18.1311L21.8301 10.9079C22.231 10.5265 22.4475 9.96142 22.4475 9.49741ZM19.0707 9.49741C19.0707 9.54854 19.0512 9.59737 18.9805 9.66803L13.1143 15.1832C13.0655 15.2343 13.0144 15.2636 12.9632 15.2636C12.8702 15.2636 12.7892 15.1826 12.7892 15.0724L12.7892 11.9869C12.7892 11.7698 12.699 11.6796 12.4819 11.6796L4.06262 11.6796C3.52715 11.6796 3.25535 11.4301 3.25535 10.87L3.25535 8.18681C3.25535 7.62665 3.52715 7.39216 4.06262 7.39216L12.4819 7.39216C12.699 7.39216 12.7892 7.2945 12.7892 7.08481L12.7892 3.90171C12.7892 3.79374 12.8702 3.72768 12.9655 3.72768C13.0167 3.72768 13.0678 3.74436 13.1166 3.78343L18.9805 9.32678C19.0489 9.39514 19.0707 9.43881 19.0707 9.49741Z"
                     fill="currentColor" fill-opacity="0.85" />
       </g>
</svg>