<?xml version="1.0" encoding="UTF-8"?>
<!--Generator: Apple Native CoreSVG 326-->
<!DOCTYPE svg PUBLIC "-//W3C//DTD SVG 1.1//EN" "http://www.w3.org/Graphics/SVG/1.1/DTD/svg11.dtd">
<svg version="1.1" xmlns="http://www.w3.org/2000/svg" xmlns:xlink="http://www.w3.org/1999/xlink"
       viewBox="0 0 21.365 21.006">
       <g>
              <rect height="21.006" opacity="0" width="21.365" x="0" y="0" />
              <path d="M10.4981 20.9962C16.302 20.9962 21.0037 16.2946 21.0037 10.4981C21.0037 4.70163 16.302 0 10.4981 0C4.70163 0 0 4.70163 0 10.4981C0 16.2946 4.70163 20.9962 10.4981 20.9962ZM10.4981 17.9484C6.37829 17.9484 3.04785 14.6179 3.04785 10.4981C3.04785 6.37829 6.37829 3.04785 10.4981 3.04785C14.6179 3.04785 17.9558 6.37829 17.9558 10.4981C17.9558 14.6179 14.6179 17.9484 10.4981 17.9484Z"
                     fill="currentColor" fill-opacity="0.85" />
              <path d="M15.323 10.4958C15.323 10.149 15.2024 9.8039 14.8803 9.47429L11.9315 6.39339C11.7178 6.17976 11.4944 6.06433 11.1775 6.06433C10.5607 6.06433 10.1432 6.59089 10.1432 7.1428C10.1432 7.46264 10.2787 7.74232 10.5044 7.94619L11.5567 8.94562L12.2965 9.35019L10.9212 9.22961L6.74599 9.22961C6.08217 9.22961 5.49932 9.77745 5.49932 10.4958C5.49932 11.1992 6.08217 11.7522 6.74599 11.7522L10.9212 11.7522L12.2965 11.6414L11.5567 12.046L10.5044 13.038C10.2787 13.2493 10.1432 13.5313 10.1432 13.8511C10.1432 14.3956 10.5607 14.9273 11.1775 14.9273C11.4944 14.9273 11.7178 14.8044 11.9315 14.5908L14.8803 11.5173C15.2024 11.1877 15.323 10.8329 15.323 10.4958Z"
                     fill="currentColor" fill-opacity="0.85" />
       </g>
</svg>