<?xml version="1.0" encoding="UTF-8"?>
<!--Generator: Apple Native CoreSVG 326-->
<!DOCTYPE svg PUBLIC "-//W3C//DTD SVG 1.1//EN" "http://www.w3.org/Graphics/SVG/1.1/DTD/svg11.dtd">
<svg version="1.1" xmlns="http://www.w3.org/2000/svg" xmlns:xlink="http://www.w3.org/1999/xlink"
       viewBox="0 0 19.3993 19.2872">
       <g>
              <rect height="19.2872" opacity="0" width="19.3993" x="0" y="0" />
              <path d="M3.64834 19.0379L15.3896 19.0379C17.7164 19.0379 19.0379 17.7164 19.0379 15.3988L19.0379 3.63682C19.0379 1.31175 17.7164 0 15.3896 0L3.64834 0C1.32382 0 0 1.31175 0 3.63682L0 15.3988C0 17.7164 1.32382 19.0379 3.64834 19.0379ZM4.05583 16.0183C3.37024 16.0183 3.01964 15.6998 3.01964 14.9677L3.01964 4.06044C3.01964 3.32832 3.37024 3.01964 4.05583 3.01964L14.9821 3.01964C15.6654 3.01964 16.0183 3.32832 16.0183 4.06044L16.0183 14.9677C16.0183 15.6998 15.6654 16.0183 14.9821 16.0183Z"
                     fill="currentColor" fill-opacity="0.85" />
              <path d="M4.46756 10.5764C4.46756 12.9373 6.09217 14.4894 8.43471 14.4894C8.48475 14.4894 9.65663 14.4894 9.86213 14.4894C10.4956 14.4894 10.9297 14.1035 10.9297 13.5125C10.9297 12.9365 10.4881 12.5707 9.85928 12.5707C9.66354 12.5707 8.48475 12.5707 8.43471 12.5707C7.23615 12.5707 6.43282 11.7726 6.43282 10.5505C6.43282 9.3226 7.25798 8.54705 8.44733 8.54705L11.2479 8.54705L11.975 8.47814L11.4309 8.86076L10.449 9.66706C10.2503 9.82386 10.1595 10.049 10.1595 10.2644C10.1595 10.7469 10.5891 11.1563 11.0469 11.1563C11.2818 11.1563 11.5052 11.0731 11.6643 10.914L14.3015 8.25541C14.4825 8.06701 14.5727 7.8344 14.5727 7.60979C14.5727 7.36049 14.475 7.14049 14.3015 6.95956L11.674 4.30276C11.5075 4.12643 11.2916 4.04315 11.0716 4.04315C10.604 4.04315 10.1819 4.46526 10.1819 4.9351C10.1819 5.16025 10.2698 5.38311 10.4513 5.5376L11.3602 6.36494L11.975 6.80858L11.2479 6.73968L8.44733 6.73968C6.09733 6.73968 4.46756 8.25499 4.46756 10.5764Z"
                     fill="currentColor" fill-opacity="0.85" />
       </g>
</svg>