<?xml version="1.0" encoding="UTF-8"?>
<!--Generator: Apple Native CoreSVG 326-->
<!DOCTYPE svg PUBLIC "-//W3C//DTD SVG 1.1//EN" "http://www.w3.org/Graphics/SVG/1.1/DTD/svg11.dtd">
<svg version="1.1" xmlns="http://www.w3.org/2000/svg" xmlns:xlink="http://www.w3.org/1999/xlink"
       viewBox="0 0 21.0145 19.9578">
       <g>
              <rect height="19.9578" opacity="0" width="21.0145" x="0" y="0" />
              <path d="M21.0145 7.28498C21.0145 11.4974 17.4685 15.7085 12.1621 19.2242C11.5891 19.5973 10.9977 19.9578 10.6061 19.9578C10.2168 19.9578 9.62315 19.5973 9.05249 19.2242C3.74612 15.7085 0.200105 11.4974 0.200105 7.28498C0.200105 3.25347 3.02826 0.595703 6.28864 0.595703C8.337 0.595703 9.76684 1.71984 10.6061 3.29902C11.45 1.71754 12.885 0.595703 14.9236 0.595703C18.1863 0.595703 21.0145 3.25347 21.0145 7.28498ZM9.27522 6.98443L6.81447 9.20334C6.52392 9.45428 6.42627 9.6949 6.42627 10.0389C6.42627 10.6379 6.89083 11.0852 7.51966 11.0852C7.83434 11.0852 8.13641 10.9152 8.32535 10.6815L8.65447 10.318L9.1735 9.73979L9.04776 11.117L9.04776 13.268C9.04776 13.984 9.62315 14.4452 10.3266 14.4452C11.03 14.4452 11.6077 13.984 11.6077 13.268L11.6077 11.117L11.4796 9.73979L12.0061 10.318L12.3353 10.6815C12.4967 10.9152 12.8389 11.0852 13.1335 11.0852C13.7577 11.0852 14.2343 10.6379 14.2343 10.0389C14.2343 9.6949 14.1292 9.45428 13.8387 9.20334L11.3779 6.98443C11.0661 6.70705 10.7457 6.51931 10.3266 6.51931C9.90744 6.51931 9.58705 6.70705 9.27522 6.98443Z"
                     fill="currentColor" fill-opacity="0.85" />
       </g>
</svg>