<?xml version="1.0" encoding="UTF-8"?>
<!--Generator: Apple Native CoreSVG 326-->
<!DOCTYPE svg PUBLIC "-//W3C//DTD SVG 1.1//EN" "http://www.w3.org/Graphics/SVG/1.1/DTD/svg11.dtd">
<svg version="1.1" xmlns="http://www.w3.org/2000/svg" xmlns:xlink="http://www.w3.org/1999/xlink"
       viewBox="0 0 23.8214 19.0529">
       <g>
              <rect height="19.0529" opacity="0" width="23.8214" x="0" y="0" />
              <path d="M3.64834 19.0529L19.8117 19.0529C22.1386 19.0529 23.4601 17.7336 23.4601 15.416L23.4601 3.65404C23.4601 1.32897 22.1386 0.0149214 19.8117 0.0149214L3.64834 0.0149214C1.32382 0.0149214 0 1.32897 0 3.65404L0 15.416C0 17.7336 1.32382 19.0529 3.64834 19.0529ZM4.05583 16.0332C3.37024 16.0332 3.01964 15.7171 3.01964 14.985L3.01964 4.07767C3.01964 3.34555 3.37024 3.03457 4.05583 3.03457L19.4042 3.03457C20.0875 3.03457 20.4404 3.34555 20.4404 4.07767L20.4404 14.985C20.4404 15.7171 20.0875 16.0332 19.4042 16.0332Z"
                     fill="currentColor" fill-opacity="0.85" />
              <path d="M12.9014 4.42395C12.4315 4.42395 12.0737 4.79098 12.0737 5.26543L12.0737 8.56846C12.0737 9.29955 12.5205 9.72044 13.2429 9.72044L16.5678 9.72044C17.0399 9.72044 17.4098 9.36263 17.4098 8.90025C17.4098 8.43041 17.0399 8.0749 16.5632 8.0749L15.6891 8.0749L14.7467 8.16224L15.7718 7.37887L17.2636 5.89225C17.48 5.67577 17.5852 5.42308 17.5852 5.17785C17.5852 4.66094 17.1728 4.2509 16.6531 4.2509C16.3911 4.2509 16.1333 4.35887 15.8921 4.59258L14.44 6.04705L13.6543 7.06522L13.7267 6.07689L13.7267 5.26082C13.7267 4.78637 13.3712 4.42395 12.9014 4.42395ZM10.5587 14.6438C11.0285 14.6438 11.3864 14.2716 11.3864 13.7972L11.3864 10.5016C11.3864 9.76077 10.9419 9.34219 10.2195 9.34219L6.88483 9.34219C6.42014 9.34219 6.05257 9.7 6.05257 10.1698C6.05257 10.6397 6.42014 10.9952 6.8969 10.9952L7.77101 10.9952L8.71336 10.9004L7.68828 11.6838L6.19881 13.1681C5.98233 13.3845 5.87721 13.647 5.87721 13.8848C5.87721 14.4017 6.28724 14.8094 6.80701 14.8094C7.06892 14.8094 7.32677 14.7089 7.56794 14.4677L9.0201 13.0156L9.80578 11.9951L9.73336 12.9857L9.73336 13.8018C9.73336 14.2763 10.0889 14.6438 10.5587 14.6438Z"
                     fill="currentColor" fill-opacity="0.85" />
       </g>
</svg>