<?xml version="1.0" encoding="UTF-8"?>
<!--Generator: Apple Native CoreSVG 326-->
<!DOCTYPE svg PUBLIC "-//W3C//DTD SVG 1.1//EN" "http://www.w3.org/Graphics/SVG/1.1/DTD/svg11.dtd">
<svg version="1.1" xmlns="http://www.w3.org/2000/svg" xmlns:xlink="http://www.w3.org/1999/xlink"
       viewBox="0 0 19.7654 19.4437">
       <g>
              <rect height="19.4437" opacity="0" width="19.7654" x="0" y="0" />
              <path d="M1.60721 9.06942C2.5202 9.06942 3.21211 8.43259 3.21211 7.51959L3.21211 7.21407L2.98695 5.23086L4.33175 6.66016L6.53381 8.88175C6.83412 9.19182 7.24294 9.34455 7.67875 9.34455C8.66065 9.34455 9.33194 8.64003 9.33194 7.65297C9.33194 7.23263 9.14706 6.86396 8.84444 6.56135L6.62516 4.35183L5.1884 3.01449L7.21868 3.23964L7.75318 3.23964C8.66618 3.23964 9.30531 2.55004 9.30531 1.6422C9.30531 0.719442 8.66848 0.0349987 7.75318 0.0349987L2.37056 0.0349987C0.86714 0.0349987 0 0.902138 0 2.3981L0 7.51959C0 8.43028 0.694209 9.06942 1.60721 9.06942ZM11.6486 19.4437L17.0387 19.4437C18.5347 19.4437 19.4041 18.5766 19.4041 17.0732L19.4041 11.9517C19.4041 11.0484 18.7099 10.4093 17.7946 10.4093C16.8839 10.4093 16.1897 11.0461 16.1897 11.9517L16.1897 12.2647L16.4172 14.2404L15.0701 12.8111L12.8703 10.597C12.57 10.2869 12.1589 10.1342 11.7231 10.1342C10.7435 10.1342 10.0699 10.8387 10.0699 11.8183C10.0699 12.2386 10.2571 12.6148 10.5597 12.9099L12.7767 15.1194L14.2157 16.4568L12.1854 16.2316L11.6486 16.2316C10.7431 16.2316 10.0965 16.9212 10.0965 17.8365C10.0965 18.7593 10.7431 19.4437 11.6486 19.4437Z"
                     fill="currentColor" fill-opacity="0.85" />
       </g>
</svg>