<?xml version="1.0" encoding="UTF-8"?>
<!--Generator: Apple Native CoreSVG 326-->
<!DOCTYPE svg PUBLIC "-//W3C//DTD SVG 1.1//EN" "http://www.w3.org/Graphics/SVG/1.1/DTD/svg11.dtd">
<svg version="1.1" xmlns="http://www.w3.org/2000/svg" xmlns:xlink="http://www.w3.org/1999/xlink"
       viewBox="0 0 23.8214 19.0529">
       <g>
              <rect height="19.0529" opacity="0" width="23.8214" x="0" y="0" />
              <path d="M23.4601 3.65404L23.4601 15.416C23.4601 17.7336 22.1386 19.0529 19.8117 19.0529L3.64834 19.0529C1.32382 19.0529 0 17.7336 0 15.416L0 3.65404C0 1.32897 1.32382 0.0149214 3.64834 0.0149214L19.8117 0.0149214C22.1386 0.0149214 23.4601 1.32897 23.4601 3.65404ZM4.11539 5.27999C4.11539 5.57975 4.25035 5.89444 4.47891 6.12815L6.9467 8.58102L8.0937 9.57068L7.14419 9.42189L6.02406 9.42189C5.34926 9.42189 4.90993 9.80439 4.90993 10.408C4.90993 11.0139 5.35442 11.3814 6.04183 11.3814L10.0366 11.3814C10.8973 11.3814 11.4159 10.9009 11.4159 10.0194L11.4159 6.03898C11.4159 5.37395 11.0386 4.93001 10.4424 4.93001C9.82907 4.93001 9.44658 5.37449 9.44658 6.04929L9.44658 7.089L9.57068 8.07933L8.59309 6.93693L6.1649 4.51391C5.89159 4.24059 5.60905 4.13032 5.28284 4.13032C4.63219 4.13032 4.11539 4.58973 4.11539 5.27999Z"
                     fill="currentColor" fill-opacity="0.85" />
       </g>
</svg>