<?xml version="1.0" encoding="UTF-8"?>
<!--Generator: Apple Native CoreSVG 326-->
<!DOCTYPE svg PUBLIC "-//W3C//DTD SVG 1.1//EN" "http://www.w3.org/Graphics/SVG/1.1/DTD/svg11.dtd">
<svg version="1.1" xmlns="http://www.w3.org/2000/svg" xmlns:xlink="http://www.w3.org/1999/xlink"
       viewBox="0 0 21.365 21.006">
       <g>
              <rect height="21.006" opacity="0" width="21.365" x="0" y="0" />
              <path d="M10.4981 20.9962C16.302 20.9962 21.0037 16.2946 21.0037 10.4981C21.0037 4.70163 16.302 0 10.4981 0C4.70163 0 0 4.70163 0 10.4981C0 16.2946 4.70163 20.9962 10.4981 20.9962ZM10.4981 17.9484C6.37829 17.9484 3.04785 14.6179 3.04785 10.4981C3.04785 6.37829 6.37829 3.04785 10.4981 3.04785C14.6179 3.04785 17.9558 6.37829 17.9558 10.4981C17.9558 14.6179 14.6179 17.9484 10.4981 17.9484Z"
                     fill="currentColor" fill-opacity="0.85" />
              <path d="M15.5446 11.5627C15.5446 9.24132 13.9126 7.72601 11.5626 7.72601L8.76201 7.72601L8.03493 7.78515L8.64974 7.35127L9.55861 6.52392C9.74009 6.36197 9.82798 6.13912 9.82798 5.91912C9.82798 5.44412 9.40588 5.02948 8.93834 5.02948C8.71834 5.02948 8.5024 5.11046 8.3433 5.28678L5.70834 7.94588C5.53717 8.12682 5.43721 8.34682 5.43721 8.59381C5.43721 8.82073 5.52971 9.05334 5.70834 9.23428L8.34561 11.8905C8.50471 12.0571 8.7281 12.1404 8.96303 12.1404C9.4208 12.1404 9.85036 11.7332 9.85036 11.2484C9.85036 11.0353 9.75962 10.8102 9.56091 10.6534L8.57895 9.84709L8.03493 9.46216L8.76201 9.53337L11.5626 9.53337C12.7519 9.53337 13.5794 10.3015 13.5794 11.5368C13.5794 12.7589 12.7737 13.557 11.5752 13.557C11.5251 13.557 10.3463 13.557 10.1506 13.557C9.52179 13.557 9.08761 13.9205 9.08761 14.4989C9.08761 15.0898 9.51433 15.4757 10.1478 15.4757C10.3533 15.4757 11.5251 15.4757 11.5752 15.4757C13.9177 15.4757 15.5446 13.9214 15.5446 11.5627Z"
                     fill="currentColor" fill-opacity="0.85" />
       </g>
</svg>