<?xml version="1.0" encoding="UTF-8"?>
<!--Generator: Apple Native CoreSVG 326-->
<!DOCTYPE svg PUBLIC "-//W3C//DTD SVG 1.1//EN" "http://www.w3.org/Graphics/SVG/1.1/DTD/svg11.dtd">
<svg version="1.1" xmlns="http://www.w3.org/2000/svg" xmlns:xlink="http://www.w3.org/1999/xlink"
       viewBox="0 0 21.365 21.006">
       <g>
              <rect height="21.006" opacity="0" width="21.365" x="0" y="0" />
              <path d="M21.0037 10.4981C21.0037 16.2923 16.302 20.9962 10.4981 20.9962C4.70394 20.9962 0 16.2923 0 10.4981C0 4.70163 4.70394 0 10.4981 0C16.302 0 21.0037 4.70163 21.0037 10.4981ZM6.15914 7.46033C6.15914 7.82724 6.31648 8.20392 6.5898 8.47723L9.63443 11.5098L10.9306 12.6114L9.86923 12.4477L8.56761 12.4477C7.76598 12.4477 7.25204 12.8898 7.25204 13.5979C7.25204 14.3157 7.77113 14.7579 8.58538 14.7579L13.2242 14.7579C14.2491 14.7579 14.8572 14.1803 14.8572 13.1444L14.8572 8.51023C14.8572 7.71836 14.4127 7.20727 13.7121 7.20727C12.9943 7.20727 12.5521 7.71891 12.5521 8.528L12.5521 9.7268L12.6911 10.844L11.5942 9.55236L8.59145 6.5548C8.2636 6.23672 7.92138 6.10406 7.52802 6.10406C6.78268 6.10406 6.15914 6.65069 6.15914 7.46033Z"
                     fill="currentColor" fill-opacity="0.85" />
       </g>
</svg>