<?xml version="1.0" encoding="UTF-8"?>
<!--Generator: Apple Native CoreSVG 326-->
<!DOCTYPE svg PUBLIC "-//W3C//DTD SVG 1.1//EN" "http://www.w3.org/Graphics/SVG/1.1/DTD/svg11.dtd">
<svg version="1.1" xmlns="http://www.w3.org/2000/svg" xmlns:xlink="http://www.w3.org/1999/xlink"
       viewBox="0 0 21.365 21.006">
       <g>
              <rect height="21.006" opacity="0" width="21.365" x="0" y="0" />
              <path d="M10.4981 20.9962C16.302 20.9962 21.0037 16.2946 21.0037 10.4981C21.0037 4.70163 16.302 0 10.4981 0C4.70163 0 0 4.70163 0 10.4981C0 16.2946 4.70163 20.9962 10.4981 20.9962ZM10.4981 17.9484C6.37829 17.9484 3.04785 14.6179 3.04785 10.4981C3.04785 6.37829 6.37829 3.04785 10.4981 3.04785C14.6179 3.04785 17.9558 6.37829 17.9558 10.4981C17.9558 14.6179 14.6179 17.9484 10.4981 17.9484Z"
                     fill="currentColor" fill-opacity="0.85" />
              <path d="M8.56251 14.2656C8.89916 14.2656 9.16568 14.0783 9.27759 13.856L9.27759 13.7886L6.46012 11.2199C6.13269 10.9194 5.92938 10.4835 5.92938 10.0429C5.92938 9.6024 6.13039 9.18369 6.46012 8.8758L9.27759 6.30192L9.27759 6.23684C9.16568 6.00762 8.89916 5.83008 8.56021 5.83008C8.29369 5.83008 8.07545 5.92774 7.76701 6.21895L4.27844 9.43123C4.09805 9.58693 4.01707 9.8224 4.01707 10.0429C4.01707 10.2486 4.09805 10.4863 4.2859 10.6644L7.76701 13.879C8.05076 14.1432 8.26615 14.2656 8.56251 14.2656ZM11.2525 14.2656C11.6965 14.2656 12.0474 13.9147 12.0474 13.4661L12.0474 12.177L12.1141 12.177C13.4549 12.177 14.197 12.7445 14.6685 13.6236C14.8792 14.0405 15.1435 14.191 15.4874 14.191C15.987 14.191 16.2587 13.6932 16.2587 12.6965C16.2587 9.69824 14.8017 7.96572 12.1141 7.96572L12.0474 7.96572L12.0474 6.63414C12.0474 6.18789 11.6965 5.83008 11.2502 5.83008C10.9763 5.83008 10.758 5.9375 10.4496 6.21895L6.97078 9.43123C6.78062 9.5967 6.68988 9.8224 6.68988 10.0429C6.68988 10.2486 6.79554 10.499 6.97078 10.6644L10.4496 13.879C10.7385 14.1507 10.9734 14.2656 11.2525 14.2656Z"
                     fill="currentColor" fill-opacity="0.85" />
       </g>
</svg>