<?xml version="1.0" encoding="UTF-8"?>
<!--Generator: Apple Native CoreSVG 326-->
<!DOCTYPE svg PUBLIC "-//W3C//DTD SVG 1.1//EN" "http://www.w3.org/Graphics/SVG/1.1/DTD/svg11.dtd">
<svg version="1.1" xmlns="http://www.w3.org/2000/svg" xmlns:xlink="http://www.w3.org/1999/xlink"
       viewBox="0 0 21.365 21.006">
       <g>
              <rect height="21.006" opacity="0" width="21.365" x="0" y="0" />
              <path d="M21.0037 10.4981C21.0037 16.2923 16.302 20.9962 10.4981 20.9962C4.70394 20.9962 0 16.2923 0 10.4981C0 4.70163 4.70394 0 10.4981 0C16.302 0 21.0037 4.70163 21.0037 10.4981ZM11.9482 8.86221C11.7471 8.86221 11.522 8.94264 11.36 9.08737C11.0171 9.4228 11.0246 9.9058 11.3726 10.2441C11.5317 10.4009 11.7155 10.4991 11.9361 10.4916L13.343 10.4549L13.4968 10.4503L13.093 10.8448L9.02593 14.9044C8.70257 15.2352 8.70257 15.728 9.02823 16.0686C9.36651 16.3994 9.86905 16.4017 10.1999 16.0686L14.2595 12.0061L14.6512 11.6075L14.6419 11.7613L14.615 13.1659C14.6075 13.3864 14.6959 13.5725 14.8602 13.7391C15.191 14.0624 15.6689 14.0624 16.002 13.7391C16.1565 13.5944 16.2374 13.3566 16.2398 13.1487L16.2937 9.66342C16.3161 9.17581 15.9239 8.81054 15.4408 8.81054ZM10.8061 4.95979L6.73392 9.01707L6.36173 9.40363L6.36634 9.25448L6.39333 7.85733C6.39564 7.63678 6.3049 7.44838 6.1481 7.28413C5.80752 6.95846 5.33713 6.95846 4.99885 7.28413C4.85182 7.43862 4.75877 7.67123 4.75877 7.87686L4.69502 11.3575C4.69502 11.8428 5.08674 12.2247 5.56744 12.2224L9.04521 12.161C9.2606 12.1587 9.47885 12.0806 9.6408 11.9261C9.97392 11.6027 9.97392 11.1272 9.63564 10.7814C9.47654 10.6298 9.28299 10.5339 9.0699 10.5414L7.66759 10.5683L7.51153 10.5804L7.91762 10.1835L11.9651 6.1188C12.3034 5.79545 12.3057 5.29291 11.9651 4.95979C11.6418 4.62151 11.1392 4.62151 10.8061 4.95979Z"
                     fill="currentColor" fill-opacity="0.85" />
       </g>
</svg>