<?xml version="1.0" encoding="UTF-8"?>
<!--Generator: Apple Native CoreSVG 326-->
<!DOCTYPE svg PUBLIC "-//W3C//DTD SVG 1.1//EN" "http://www.w3.org/Graphics/SVG/1.1/DTD/svg11.dtd">
<svg version="1.1" xmlns="http://www.w3.org/2000/svg" xmlns:xlink="http://www.w3.org/1999/xlink"
       viewBox="0 0 19.3993 19.0529">
       <g>
              <rect height="19.0529" opacity="0" width="19.3993" x="0" y="0" />
              <path d="M19.0379 3.63912L19.0379 15.4011C19.0379 17.7262 17.7164 19.0379 15.3896 19.0379L3.64834 19.0379C1.32382 19.0379 0 17.7262 0 15.4011L0 3.63912C0 1.32151 1.32382 0 3.64834 0L15.3896 0C17.7164 0 19.0379 1.32151 19.0379 3.63912ZM11.5327 5.57823L8.52994 8.57579L7.44044 9.8674L7.572 8.75024L7.572 7.55144C7.572 6.74235 7.12982 6.23071 6.41201 6.23071C5.71144 6.23071 5.26925 6.7418 5.26925 7.53366L5.26925 12.1678C5.26925 13.2037 5.87503 13.7813 6.89993 13.7813L11.5387 13.7813C12.353 13.7813 12.8721 13.3391 12.8721 12.6213C12.8721 11.9133 12.3581 11.4711 11.564 11.4711L10.2623 11.4711L9.20092 11.6348L10.4971 10.5332L13.5343 7.50067C13.8076 7.22735 13.9724 6.85068 13.9724 6.48377C13.9724 5.67413 13.3414 5.1275 12.5961 5.1275C12.2027 5.1275 11.8605 5.26015 11.5327 5.57823Z"
                     fill="currentColor" fill-opacity="0.85" />
       </g>
</svg>