<?xml version="1.0" encoding="UTF-8"?>
<!--Generator: Apple Native CoreSVG 326-->
<!DOCTYPE svg PUBLIC "-//W3C//DTD SVG 1.1//EN" "http://www.w3.org/Graphics/SVG/1.1/DTD/svg11.dtd">
<svg version="1.1" xmlns="http://www.w3.org/2000/svg" xmlns:xlink="http://www.w3.org/1999/xlink"
       viewBox="0 0 18.8218 15.5426">
       <g>
              <rect height="15.5426" opacity="0" width="18.8218" x="0" y="0" />
              <path d="M0 7.63538C0 8.65799 0.709677 9.34013 1.7845 9.34013L8.37484 9.34013L10.3304 9.16732L8.57234 10.7019L7.18259 12.1134C6.8599 12.4361 6.6251 12.8123 6.6251 13.3376C6.6251 14.2511 7.28716 14.9459 8.30284 14.9459C8.71112 14.9459 9.14232 14.7685 9.47939 14.4165L14.7304 8.88654C15.0227 8.57416 15.2346 8.13835 15.2346 7.63538C15.2346 7.13012 15.0227 6.69661 14.7304 6.38193L9.47939 0.844516C9.14232 0.485067 8.71112 0.312804 8.30284 0.312804C7.28716 0.312804 6.6251 1.00986 6.6251 1.91595C6.6251 2.44129 6.86736 2.83234 7.18259 3.14526L8.57234 4.56661L10.3281 6.10345L8.37484 5.92834L1.7845 5.92834C0.709677 5.92834 0 6.61048 0 7.63538ZM15.2053 13.6527C15.2053 14.5611 15.9322 15.2685 16.8378 15.2685C17.7335 15.2685 18.4604 14.5611 18.4604 13.6527L18.4604 1.62037C18.4604 0.709677 17.7335 0 16.8378 0C15.9322 0 15.2053 0.709677 15.2053 1.62037Z"
                     fill="currentColor" fill-opacity="0.85" />
       </g>
</svg>