<?xml version="1.0" encoding="UTF-8"?>
<!--Generator: Apple Native CoreSVG 326-->
<!DOCTYPE svg PUBLIC "-//W3C//DTD SVG 1.1//EN" "http://www.w3.org/Graphics/SVG/1.1/DTD/svg11.dtd">
<svg version="1.1" xmlns="http://www.w3.org/2000/svg" xmlns:xlink="http://www.w3.org/1999/xlink"
       viewBox="0 0 21.365 21.006">
       <g>
              <rect height="21.006" opacity="0" width="21.365" x="0" y="0" />
              <path d="M21.0037 10.5079C21.0037 16.3043 16.302 21.006 10.4981 21.006C4.70394 21.006 0 16.3043 0 10.5079C0 4.7137 4.70394 0.00976562 10.4981 0.00976562C16.302 0.00976562 21.0037 4.7137 21.0037 10.5079ZM8.9253 5.89389L4.72596 9.76296C4.49619 9.97034 4.39799 10.2552 4.39799 10.5153C4.39799 10.7657 4.50365 11.0701 4.72596 11.2729L8.9253 15.1535C9.25612 15.4699 9.54326 15.6095 9.89877 15.6095C10.4564 15.6095 10.879 15.1914 10.879 14.6315L10.879 13.0563L14.5793 13.0563C15.5517 13.0563 16.1076 12.5078 16.1076 11.5424L16.1076 9.53538C16.1076 8.58483 15.5517 8.00648 14.5793 8.00648L10.879 8.00648L10.879 6.41584C10.879 5.86053 10.4564 5.4212 9.8867 5.4212C9.55588 5.4212 9.29287 5.55331 8.9253 5.89389Z"
                     fill="currentColor" fill-opacity="0.85" />
       </g>
</svg>