<?xml version="1.0" encoding="UTF-8"?>
<!--Generator: Apple Native CoreSVG 326-->
<!DOCTYPE svg PUBLIC "-//W3C//DTD SVG 1.1//EN" "http://www.w3.org/Graphics/SVG/1.1/DTD/svg11.dtd">
<svg version="1.1" xmlns="http://www.w3.org/2000/svg" xmlns:xlink="http://www.w3.org/1999/xlink"
       viewBox="0 0 21.365 21.006">
       <g>
              <rect height="21.006" opacity="0" width="21.365" x="0" y="0" />
              <path d="M21.0037 10.4981C21.0037 16.2923 16.302 20.9962 10.4981 20.9962C4.70394 20.9962 0 16.2923 0 10.4981C0 4.70163 4.70394 0 10.4981 0C16.302 0 21.0037 4.70163 21.0037 10.4981ZM8.57792 6.10406C7.76367 6.10406 7.24458 6.54624 7.24458 7.26405C7.24458 7.97955 7.75852 8.41427 8.56015 8.41427L9.8543 8.41427L10.9232 8.25802L9.62696 9.34983L6.58234 12.3922C6.30902 12.6655 6.15168 13.0421 6.15168 13.4016C6.15168 14.2112 6.77522 14.7579 7.52056 14.7579C7.91392 14.7579 8.25614 14.6252 8.58399 14.3071L11.5867 11.3096L12.6837 10.0254L12.5446 11.1351L12.5446 12.3414C12.5446 13.1407 12.9868 13.6621 13.7046 13.6621C14.4052 13.6621 14.8497 13.1413 14.8497 12.3517L14.8497 7.71751C14.8497 6.68909 14.2416 6.10406 13.2167 6.10406Z"
                     fill="currentColor" fill-opacity="0.85" />
       </g>
</svg>