<?xml version="1.0" encoding="UTF-8"?>
<!--Generator: Apple Native CoreSVG 326-->
<!DOCTYPE svg PUBLIC "-//W3C//DTD SVG 1.1//EN" "http://www.w3.org/Graphics/SVG/1.1/DTD/svg11.dtd">
<svg version="1.1" xmlns="http://www.w3.org/2000/svg" xmlns:xlink="http://www.w3.org/1999/xlink"
       viewBox="0 0 16.0489 15.6968">
       <g>
              <rect height="15.6968" opacity="0" width="16.0489" x="0" y="0" />
              <path d="M0.0051558 4.18897L0 13.9386C0 14.9802 0.704521 15.6968 1.76794 15.6968L11.525 15.6968C12.5046 15.6968 13.2562 14.9583 13.2562 14.0419C13.2562 13.1479 12.5005 12.4491 11.5193 12.4491L7.78515 12.4491L5.39203 12.5531L7.03684 11.0784L15.1105 2.99496C15.4803 2.61774 15.6898 2.17446 15.6898 1.72318C15.6898 0.844091 14.8722 0.0143754 13.981 0.0143754C13.5275 0.0143754 13.0888 0.221637 12.7093 0.591397L4.62582 8.66969L3.14878 10.3145L3.25742 7.96978L3.25742 4.18721C3.25742 3.20367 2.57352 2.45548 1.66228 2.45548C0.743583 2.45548 0.0051558 3.21914 0.0051558 4.18897Z"
                     fill="currentColor" fill-opacity="0.85" />
       </g>
</svg>