<?xml version="1.0" encoding="UTF-8"?>
<!--Generator: Apple Native CoreSVG 326-->
<!DOCTYPE svg PUBLIC "-//W3C//DTD SVG 1.1//EN" "http://www.w3.org/Graphics/SVG/1.1/DTD/svg11.dtd">
<svg version="1.1" xmlns="http://www.w3.org/2000/svg" xmlns:xlink="http://www.w3.org/1999/xlink"
       viewBox="0 0 16.635 18.8501">
       <g>
              <rect height="18.8501" opacity="0" width="16.635" x="0" y="0" />
              <path d="M12.7859 18.8427C13.3448 18.8427 13.9106 18.818 14.5938 18.7146C15.3178 18.5969 16.2737 18.1215 16.2737 16.9818C16.2737 15.9965 15.6042 15.3758 14.5988 15.3758C14.1451 15.3758 13.5566 15.4401 12.7842 15.4401C10.6604 15.4401 9.76648 14.639 9.76878 12.499L9.77855 7.48302L9.67058 5.26695L10.8254 6.58725L13.3123 9.10399C13.6178 9.41692 14.0065 9.65172 14.5319 9.65172C15.4454 9.65172 16.1402 8.98965 16.1402 7.97397C16.1402 7.568 15.9576 7.14656 15.6079 6.80203L9.32496 0.501869C9.02004 0.194646 8.53431 0 8.07381 0C7.61331 0 7.12011 0.194646 6.82265 0.501869L0.527102 6.80203C0.18488 7.14656 0 7.568 0 7.97397C0 8.98965 0.694755 9.65172 1.6083 9.65172C2.13364 9.65172 2.51723 9.41692 2.82785 9.10399L5.32221 6.58725L6.46727 5.26926L6.36907 7.48302L6.36907 12.7883C6.36907 16.9264 8.65465 18.8427 12.7859 18.8427Z"
                     fill="currentColor" fill-opacity="0.85" />
       </g>
</svg>