<?xml version="1.0" encoding="UTF-8"?>
<!--Generator: Apple Native CoreSVG 326-->
<!DOCTYPE svg PUBLIC "-//W3C//DTD SVG 1.1//EN" "http://www.w3.org/Graphics/SVG/1.1/DTD/svg11.dtd">
<svg version="1.1" xmlns="http://www.w3.org/2000/svg" xmlns:xlink="http://www.w3.org/1999/xlink"
       viewBox="0 0 13.5484 20.1387">
       <g>
              <rect height="20.1387" opacity="0" width="13.5484" x="0" y="0" />
              <path d="M6.58725 20.1014C7.00814 20.1014 7.45657 19.9315 7.74141 19.6392L12.6996 14.6481C13.0149 14.3404 13.1871 13.9349 13.1871 13.5284C13.1871 12.6206 12.5446 12.0102 11.6936 12.0102C11.2107 12.0102 10.8587 12.2249 10.5756 12.5229L9.04521 14.0919L8.0675 15.2764L8.1577 13.2943L8.1577 6.80713L8.0675 4.81755L9.04521 6.0021L10.5756 7.57103C10.8587 7.86903 11.2107 8.08376 11.6936 8.08376C12.5446 8.08376 13.1871 7.47337 13.1871 6.56553C13.1871 6.15902 13.0149 5.76105 12.6996 5.44582L7.74141 0.4548C7.45657 0.162498 7.00814 0 6.58725 0C6.16405 0 5.70816 0.162498 5.43308 0.4548L0.489798 5.44582C0.174568 5.76105 0 6.15902 0 6.56553C0 7.47337 0.64253 8.08376 1.49354 8.08376C1.97872 8.08376 2.33071 7.86903 2.61149 7.57103L4.13674 6.0021L5.10469 4.81755L5.0168 6.80713L5.0168 13.2943L5.10469 15.2764L4.13674 14.0919L2.61149 12.5229C2.33071 12.2249 1.97872 12.0102 1.49354 12.0102C0.64253 12.0102 0 12.6206 0 13.5284C0 13.9349 0.174568 14.3404 0.489798 14.6481L5.43308 19.6392C5.70816 19.9315 6.16405 20.1014 6.58725 20.1014Z"
                     fill="currentColor" fill-opacity="0.85" />
       </g>
</svg>