<?xml version="1.0" encoding="UTF-8"?>
<!--Generator: Apple Native CoreSVG 326-->
<!DOCTYPE svg PUBLIC "-//W3C//DTD SVG 1.1//EN" "http://www.w3.org/Graphics/SVG/1.1/DTD/svg11.dtd">
<svg version="1.1" xmlns="http://www.w3.org/2000/svg" xmlns:xlink="http://www.w3.org/1999/xlink"
       viewBox="0 0 16.5015 18.8352">
       <g>
              <rect height="18.8352" opacity="0" width="16.5015" x="0" y="0" />
              <path d="M8.06635 0C7.04375 0 6.36161 0.717137 6.36161 1.79196L6.36161 11.5571L6.54133 15.6237L7.49108 14.8986L5.00219 11.9262L2.82785 9.73869C2.51723 9.42577 2.13364 9.19097 1.6083 9.19097C0.694755 9.19097 0 9.85303 0 10.824C0 11.2747 0.18488 11.6961 0.527102 12.0407L6.81519 18.3408C7.11265 18.648 7.60585 18.8352 8.06635 18.8352C8.52685 18.8352 9.01258 18.648 9.3175 18.3408L15.6079 12.0407C15.9576 11.6961 16.1402 11.2747 16.1402 10.824C16.1402 9.85303 15.4454 9.19097 14.5319 9.19097C14.0065 9.19097 13.6178 9.42577 13.3123 9.73869L11.123 11.9262L8.63931 14.8986L9.5839 15.6237L9.76363 11.5571L9.76363 1.79196C9.76363 0.717137 9.08895 0 8.06635 0Z"
                     fill="currentColor" fill-opacity="0.85" />
       </g>
</svg>