<?xml version="1.0" encoding="UTF-8"?>
<!--Generator: Apple Native CoreSVG 326-->
<!DOCTYPE svg PUBLIC "-//W3C//DTD SVG 1.1//EN" "http://www.w3.org/Graphics/SVG/1.1/DTD/svg11.dtd">
<svg version="1.1" xmlns="http://www.w3.org/2000/svg" xmlns:xlink="http://www.w3.org/1999/xlink"
       viewBox="0 0 16.783 16.3578">
       <g>
              <rect height="16.3578" opacity="0" width="16.783" x="0" y="0" />
              <path d="M1.99728 16.3578C2.46998 16.3578 2.88693 16.1769 3.50598 15.8748L15.2789 10.1564C16.2582 9.67907 16.783 9.04455 16.783 8.18378C16.783 7.33047 16.2582 6.69079 15.2789 6.21348L3.50598 0.49277C2.87716 0.190703 2.46767 0.0172263 1.98752 0.0172263C1.0112 0.0172263 0.136719 0.765541 0.136719 2.06279L0.139024 14.3122C0.139024 15.602 1.0135 16.3578 1.99728 16.3578ZM3.29132 12.4581C3.24019 12.4581 3.20859 12.419 3.20859 12.3558L3.20859 4.00428C3.20859 3.94107 3.24019 3.90201 3.29132 3.90201C3.31546 3.90201 3.34707 3.91408 3.39359 3.94338L12.402 8.09874C12.4509 8.11827 12.475 8.14241 12.475 8.18378C12.475 8.22514 12.4509 8.24929 12.402 8.27628L3.39359 12.419C3.34707 12.446 3.31546 12.4581 3.29132 12.4581Z"
                     fill="currentColor" fill-opacity="0.85" />
       </g>
</svg>