<?xml version="1.0" encoding="UTF-8"?>
<!--Generator: Apple Native CoreSVG 326-->
<!DOCTYPE svg PUBLIC "-//W3C//DTD SVG 1.1//EN" "http://www.w3.org/Graphics/SVG/1.1/DTD/svg11.dtd">
<svg version="1.1" xmlns="http://www.w3.org/2000/svg" xmlns:xlink="http://www.w3.org/1999/xlink"
       viewBox="0 0 19.839 16.2469">
       <g>
              <rect height="16.2469" opacity="0" width="19.839" x="0" y="0" />
              <path d="M0 8.07381C0 8.53431 0.19695 9.02004 0.504174 9.32496L6.80203 15.6056C7.14656 15.9553 7.568 16.1402 7.97397 16.1402C8.98965 16.1402 9.65402 15.4454 9.65402 14.5319C9.65402 14.0065 9.41692 13.6155 9.10399 13.3123L6.91649 11.138L4.0192 8.47056L3.2098 9.56831L7.34661 9.77855L17.6932 9.77855C18.768 9.77855 19.4777 9.09641 19.4777 8.07381C19.4777 7.05121 18.768 6.36907 17.6932 6.36907L7.34661 6.36907L3.2098 6.5793L4.0192 7.68682L6.91649 5.00965L9.10399 2.82785C9.41692 2.51492 9.65402 2.13364 9.65402 1.6083C9.65402 0.694755 8.98965 0 7.97397 0C7.568 0 7.14656 0.182575 6.79742 0.539172L0.504174 6.82265C0.19695 7.12757 0 7.61331 0 8.07381Z"
                     fill="currentColor" fill-opacity="0.85" />
       </g>
</svg>