<?xml version="1.0" encoding="UTF-8"?>
<!--Generator: Apple Native CoreSVG 326-->
<!DOCTYPE svg PUBLIC "-//W3C//DTD SVG 1.1//EN" "http://www.w3.org/Graphics/SVG/1.1/DTD/svg11.dtd">
<svg version="1.1" xmlns="http://www.w3.org/2000/svg" xmlns:xlink="http://www.w3.org/1999/xlink"
       viewBox="0 0 19.3993 19.0529">
       <g>
              <rect height="19.0529" opacity="0" width="19.3993" x="0" y="0" />
              <path d="M19.0379 3.63912L19.0379 15.4011C19.0379 17.7262 17.7164 19.0379 15.3896 19.0379L3.64834 19.0379C1.32382 19.0379 0 17.7262 0 15.4011L0 3.63912C0 1.32151 1.32382 0 3.64834 0L15.3896 0C17.7164 0 19.0379 1.32151 19.0379 3.63912ZM10.8763 9.45222C10.0058 9.45222 9.53889 9.92533 9.53889 10.7822L9.53889 13.88C9.53889 14.4296 9.97823 14.8615 10.5204 14.8615C11.0527 14.8615 11.4944 14.4296 11.4944 13.88L11.4944 13.6155L11.3198 12.6728L13.0589 14.5618C13.4787 15.0235 14.2184 15.0086 14.668 14.5641C15.1125 14.1145 15.1303 13.3725 14.6657 12.9602L12.779 11.2354L13.7251 11.4077L13.9672 11.4077C14.5117 11.4077 14.951 10.9758 14.951 10.436C14.951 9.89155 14.5117 9.45222 13.9672 9.45222ZM4.54381 4.4692C4.09932 4.91884 4.08155 5.65848 4.54611 6.08059L6.43282 7.79788L5.48671 7.63308L5.24463 7.63308C4.70248 7.63308 4.26085 8.05749 4.26085 8.59733C4.26085 9.14693 4.70248 9.58111 5.24463 9.58111L8.33554 9.58111C9.20607 9.58111 9.66779 9.10799 9.66779 8.25632L9.66779 5.1608C9.66779 4.60374 9.23361 4.17932 8.68401 4.17932C8.15909 4.17932 7.71976 4.60374 7.71976 5.1608L7.71976 5.4178L7.89202 6.36798L6.15289 4.47151C5.73309 4.01725 4.99345 4.03217 4.54381 4.4692Z"
                     fill="currentColor" fill-opacity="0.85" />
       </g>
</svg>