<?xml version="1.0" encoding="UTF-8"?>
<!--Generator: Apple Native CoreSVG 326-->
<!DOCTYPE svg PUBLIC "-//W3C//DTD SVG 1.1//EN" "http://www.w3.org/Graphics/SVG/1.1/DTD/svg11.dtd">
<svg version="1.1" xmlns="http://www.w3.org/2000/svg" xmlns:xlink="http://www.w3.org/1999/xlink"
       viewBox="0 0 23.8214 19.0529">
       <g>
              <rect height="19.0529" opacity="0" width="23.8214" x="0" y="0" />
              <path d="M23.4601 3.65404L23.4601 15.416C23.4601 17.7336 22.1386 19.0529 19.8117 19.0529L3.64834 19.0529C1.32382 19.0529 0 17.7336 0 15.416L0 3.65404C0 1.32897 1.32382 0.0149214 3.64834 0.0149214L19.8117 0.0149214C22.1386 0.0149214 23.4601 1.32897 23.4601 3.65404ZM13.4235 7.68118C12.5627 7.68118 12.0465 8.16176 12.0465 9.04097L12.0465 13.0311C12.0465 13.6938 12.4215 14.1401 13.0176 14.1401C13.631 14.1401 14.0135 13.6933 14.0135 13.0208L14.0135 11.9788L13.8894 10.9833L14.867 12.1257L17.2952 14.5464C17.5685 14.8197 17.851 14.9375 18.1795 14.9375C18.8279 14.9375 19.3447 14.4804 19.3447 13.7826C19.3447 13.4903 19.2097 13.1733 18.9812 12.9373L16.5134 10.4793L15.3664 9.49941L16.3159 9.64073L17.4383 9.64073C18.1108 9.64073 18.5501 9.2657 18.5501 8.65234C18.5501 8.04875 18.1056 7.68118 17.4205 7.68118Z"
                     fill="currentColor" fill-opacity="0.85" />
       </g>
</svg>