<?xml version="1.0" encoding="UTF-8"?>
<!--Generator: Apple Native CoreSVG 326-->
<!DOCTYPE svg PUBLIC "-//W3C//DTD SVG 1.1//EN" "http://www.w3.org/Graphics/SVG/1.1/DTD/svg11.dtd">
<svg version="1.1" xmlns="http://www.w3.org/2000/svg" xmlns:xlink="http://www.w3.org/1999/xlink"
       viewBox="0 0 19.3993 19.2872">
       <g>
              <rect height="19.2872" opacity="0" width="19.3993" x="0" y="0" />
              <path d="M3.64834 19.0379L15.3896 19.0379C17.7164 19.0379 19.0379 17.7164 19.0379 15.3988L19.0379 3.63682C19.0379 1.31175 17.7164 0 15.3896 0L3.64834 0C1.32382 0 0 1.31175 0 3.63682L0 15.3988C0 17.7164 1.32382 19.0379 3.64834 19.0379ZM4.05583 16.0183C3.37024 16.0183 3.01964 15.6998 3.01964 14.9677L3.01964 4.06044C3.01964 3.32832 3.37024 3.01964 4.05583 3.01964L14.9821 3.01964C15.6654 3.01964 16.0183 3.32832 16.0183 4.06044L16.0183 14.9677C16.0183 15.6998 15.6654 16.0183 14.9821 16.0183Z"
                     fill="currentColor" fill-opacity="0.85" />
              <path d="M10.6955 4.51463C8.36666 4.51463 6.85881 6.1444 6.85881 8.4967L6.85881 11.3024L6.91795 12.0243L6.48407 11.4095L5.65673 10.4984C5.49477 10.3192 5.27192 10.2313 5.05192 10.2313C4.57693 10.2313 4.15998 10.6534 4.15998 11.1209C4.15998 11.3409 4.24326 11.5569 4.41958 11.7234L7.07869 14.3509C7.25962 14.5221 7.47962 14.6197 7.71915 14.6197C7.95353 14.6197 8.18614 14.5296 8.36708 14.3509L11.0233 11.7137C11.1899 11.5546 11.2732 11.3312 11.2732 11.0962C11.2732 10.6385 10.866 10.2164 10.3812 10.2164C10.1658 10.2164 9.94299 10.2996 9.78619 10.496L8.97989 11.4803L8.59497 12.0243L8.65872 11.3024L8.65872 8.4967C8.65872 7.30736 9.43426 6.47989 10.6696 6.47989C11.8917 6.47989 12.6823 7.28552 12.6823 8.48409C12.6823 8.53413 12.6823 9.71292 12.6823 9.90865C12.6823 10.5352 13.0533 10.9791 13.6317 10.9791C14.2226 10.9791 14.6011 10.5426 14.6011 9.9115C14.6011 9.706 14.6011 8.53413 14.6011 8.48409C14.6011 6.13924 13.0542 4.51463 10.6955 4.51463Z"
                     fill="currentColor" fill-opacity="0.85" />
       </g>
</svg>