<?xml version="1.0" encoding="UTF-8"?>
<!--Generator: Apple Native CoreSVG 326-->
<!DOCTYPE svg PUBLIC "-//W3C//DTD SVG 1.1//EN" "http://www.w3.org/Graphics/SVG/1.1/DTD/svg11.dtd">
<svg version="1.1" xmlns="http://www.w3.org/2000/svg" xmlns:xlink="http://www.w3.org/1999/xlink"
       viewBox="0 0 19.7654 19.4437">
       <g>
              <rect height="19.4437" opacity="0" width="19.7654" x="0" y="0" />
              <path d="M17.7946 9.06942C18.7099 9.06942 19.4041 8.43028 19.4041 7.51959L19.4041 2.3981C19.4041 0.902138 18.5347 0.0349987 17.0387 0.0349987L11.6486 0.0349987C10.7431 0.0349987 10.0965 0.719442 10.0965 1.6422C10.0965 2.55004 10.7431 3.23964 11.6486 3.23964L12.1854 3.23964L14.2157 3.01449L12.7767 4.35183L10.5597 6.56135C10.2571 6.86396 10.0699 7.23263 10.0699 7.65297C10.0699 8.64003 10.7435 9.34455 11.7231 9.34455C12.1589 9.34455 12.57 9.19182 12.8703 8.88175L15.0701 6.66016L16.4172 5.23086L16.1897 7.21407L16.1897 7.51959C16.1897 8.43259 16.8839 9.06942 17.7946 9.06942ZM7.75318 19.4437C8.66848 19.4437 9.30531 18.7593 9.30531 17.8365C9.30531 16.9212 8.66618 16.2316 7.75318 16.2316L7.21868 16.2316L5.1884 16.4568L6.62516 15.1194L8.84444 12.9099C9.14706 12.6148 9.33194 12.2386 9.33194 11.8183C9.33194 10.8387 8.66065 10.1342 7.67875 10.1342C7.24294 10.1342 6.83412 10.2869 6.53381 10.597L4.33175 12.8111L2.98695 14.2404L3.21211 12.2647L3.21211 11.9517C3.21211 11.0461 2.5202 10.4093 1.60721 10.4093C0.694209 10.4093 0 11.0484 0 11.9517L0 17.0732C0 18.5766 0.86714 19.4437 2.37056 19.4437Z"
                     fill="currentColor" fill-opacity="0.85" />
       </g>
</svg>