<?xml version="1.0" encoding="UTF-8"?>
<!--Generator: Apple Native CoreSVG 326-->
<!DOCTYPE svg PUBLIC "-//W3C//DTD SVG 1.1//EN" "http://www.w3.org/Graphics/SVG/1.1/DTD/svg11.dtd">
<svg version="1.1" xmlns="http://www.w3.org/2000/svg" xmlns:xlink="http://www.w3.org/1999/xlink"
       viewBox="0 0 21.365 21.006">
       <g>
              <rect height="21.006" opacity="0" width="21.365" x="0" y="0" />
              <path d="M10.4981 20.9962C16.302 20.9962 21.0037 16.2946 21.0037 10.4981C21.0037 4.70163 16.302 0 10.4981 0C4.70163 0 0 4.70163 0 10.4981C0 16.2946 4.70163 20.9962 10.4981 20.9962ZM10.4981 17.9484C6.37829 17.9484 3.04785 14.6179 3.04785 10.4981C3.04785 6.37829 6.37829 3.04785 10.4981 3.04785C14.6179 3.04785 17.9558 6.37829 17.9558 10.4981C17.9558 14.6179 14.6179 17.9484 10.4981 17.9484Z"
                     fill="currentColor" fill-opacity="0.85" />
              <path d="M14.4609 10.7569C14.9611 10.7569 15.3781 10.3572 15.3781 9.84951L15.3781 6.85395C15.3781 6.05166 14.941 5.61069 14.1273 5.61069L11.1364 5.61069C10.6362 5.61069 10.2267 6.02764 10.2267 6.52787C10.2267 7.03556 10.6362 7.43528 11.1364 7.43528L11.4582 7.43528L12.3555 7.27794L10.7901 8.69116C10.3502 9.07651 10.3778 9.77139 10.7878 10.1889C11.2076 10.6012 11.8979 10.6259 12.2878 10.1866L13.7108 8.61887L13.5535 9.51275L13.5535 9.84951C13.5535 10.3572 13.9607 10.7569 14.4609 10.7569ZM9.8053 15.4051C10.313 15.4051 10.7202 14.9956 10.7202 14.4879C10.7202 13.9802 10.313 13.5805 9.8053 13.5805L9.49092 13.5805L8.58617 13.7453L10.1567 12.332C10.5892 11.9392 10.5691 11.2518 10.159 10.8269C9.73409 10.4145 9.04151 10.3973 8.65386 10.8292L7.22857 12.4043L7.39567 11.5105L7.39567 11.1737C7.39567 10.6585 6.98618 10.2588 6.47849 10.2588C5.97826 10.2588 5.57108 10.6585 5.57108 11.1737L5.57108 14.1693C5.57108 14.9716 6.0058 15.4051 6.81204 15.4051Z"
                     fill="currentColor" fill-opacity="0.85" />
       </g>
</svg>