<?xml version="1.0" encoding="UTF-8"?>
<!--Generator: Apple Native CoreSVG 326-->
<!DOCTYPE svg PUBLIC "-//W3C//DTD SVG 1.1//EN" "http://www.w3.org/Graphics/SVG/1.1/DTD/svg11.dtd">
<svg version="1.1" xmlns="http://www.w3.org/2000/svg" xmlns:xlink="http://www.w3.org/1999/xlink"
       viewBox="0 0 25.523 16.7943">
       <g>
              <rect height="16.7943" opacity="0" width="25.523" x="0" y="0" />
              <path d="M17.7989 3.69772L17.7989 13.0845C17.7989 15.4428 16.448 16.7845 13.9479 16.7845L4.29524 16.7845C1.78771 16.7845 0.444243 15.6741 0.444243 13.3158L0.444243 3.70518C0.444243 1.34171 1.81592 0 4.29524 0L13.9784 0C16.4785 0 17.7989 1.34171 17.7989 3.69772ZM25.523 3.15745L25.523 13.8136C25.523 14.8158 24.8609 15.4321 23.9574 15.4321C23.382 15.4321 22.8496 15.0974 22.2565 14.5955L19.515 12.2654L19.515 4.70333L22.2565 2.37553C22.8571 1.87367 23.3745 1.5389 23.9574 1.5389C24.8609 1.5389 25.523 2.15523 25.523 3.15745ZM11.5358 4.36784L7.71545 7.96669L6.81926 8.98468L6.97781 7.38706L6.97781 5.93495C6.97781 5.32797 6.49833 4.84672 5.83165 4.84672C5.18275 4.84672 4.67682 5.30098 4.67682 5.92749L4.67682 11.1054C4.67682 12.12 5.23892 12.6896 6.25352 12.6896L11.6053 12.6896C12.2244 12.6896 12.6959 12.171 12.6959 11.5198C12.6959 10.8583 12.2123 10.3736 11.5829 10.3736L9.98447 10.3736L8.33463 10.5397L9.38477 9.65323L13.2051 6.0297C13.463 5.79654 13.5761 5.479 13.5761 5.12987C13.5761 4.48327 13.0748 4.0164 12.369 4.0164C12.0497 4.0164 11.7741 4.13699 11.5358 4.36784Z"
                     fill="currentColor" fill-opacity="0.85" />
       </g>
</svg>