<?xml version="1.0" encoding="UTF-8"?>
<!--Generator: Apple Native CoreSVG 326-->
<!DOCTYPE svg PUBLIC "-//W3C//DTD SVG 1.1//EN" "http://www.w3.org/Graphics/SVG/1.1/DTD/svg11.dtd">
<svg version="1.1" xmlns="http://www.w3.org/2000/svg" xmlns:xlink="http://www.w3.org/1999/xlink"
       viewBox="0 0 19.3993 19.0529">
       <g>
              <rect height="19.0529" opacity="0" width="19.3993" x="0" y="0" />
              <path d="M3.64834 19.0379L15.3896 19.0379C17.7164 19.0379 19.0379 17.7262 19.0379 15.4011L19.0379 3.63912C19.0379 1.32151 17.7164 0 15.3896 0L3.64834 0C1.32382 0 0 1.32151 0 3.63912L0 15.4011C0 17.7262 1.32382 19.0379 3.64834 19.0379ZM4.05583 16.0183C3.37024 16.0183 3.01964 15.7096 3.01964 14.9775L3.01964 4.07021C3.01964 3.33809 3.37024 3.0271 4.05583 3.0271L14.9821 3.0271C15.6654 3.0271 16.0183 3.33809 16.0183 4.07021L16.0183 14.9775C16.0183 15.7096 15.6654 16.0183 14.9821 16.0183Z"
                     fill="currentColor" fill-opacity="0.85" />
              <path d="M14.5727 10.5861C14.5727 8.26475 12.9406 6.74944 10.5906 6.74944L7.7826 6.74944L7.06298 6.80858L7.67779 6.37471L8.58666 5.54736C8.76814 5.38541 8.85603 5.16256 8.85603 4.94256C8.85603 4.46756 8.43392 4.05292 7.96639 4.05292C7.74639 4.05292 7.53045 4.13389 7.36389 4.31022L4.73639 6.96932C4.56522 7.15026 4.46756 7.37026 4.46756 7.61725C4.46756 7.84416 4.55776 8.07678 4.73639 8.25772L7.37365 10.914C7.53276 11.0805 7.75615 11.1638 7.99107 11.1638C8.44884 11.1638 8.87841 10.7566 8.87841 10.2719C8.87841 10.0588 8.78767 9.83362 8.58896 9.67683L7.607 8.87053L7.06298 8.4856L7.7826 8.55681L10.5906 8.55681C11.78 8.55681 12.6074 9.3249 12.6074 10.5602C12.6074 11.7824 11.8018 12.5804 10.6032 12.5804C10.5532 12.5804 9.3744 12.5804 9.17866 12.5804C8.54984 12.5804 8.1082 12.9439 8.1082 13.5223C8.1082 14.1133 8.54237 14.4992 9.17581 14.4992C9.38131 14.4992 10.5532 14.4992 10.6032 14.4992C12.9458 14.4992 14.5727 12.9448 14.5727 10.5861Z"
                     fill="currentColor" fill-opacity="0.85" />
       </g>
</svg>