<?xml version="1.0" encoding="UTF-8"?>
<!--Generator: Apple Native CoreSVG 326-->
<!DOCTYPE svg PUBLIC "-//W3C//DTD SVG 1.1//EN" "http://www.w3.org/Graphics/SVG/1.1/DTD/svg11.dtd">
<svg version="1.1" xmlns="http://www.w3.org/2000/svg" xmlns:xlink="http://www.w3.org/1999/xlink"
       viewBox="0 0 19.3481 21.845">
       <g>
              <rect height="21.845" opacity="0" width="19.3481" x="0" y="0" />
              <path d="M9.49225 21.8306C9.98842 21.8306 10.5162 21.629 10.8976 21.2206L18.1121 13.4037C18.7496 12.6996 18.9868 12.2057 18.9868 11.563C18.9868 10.5139 18.1788 9.71971 17.1365 9.71971L14.1755 9.71971L14.1755 2.85041C14.1755 1.05159 13.1211 0 11.3217 0L7.57843 0C5.78653 0 4.73954 1.05159 4.73954 2.85041L4.73954 9.71971L1.83642 9.71971C0.79417 9.71971 0 10.5139 0 11.5584C0 12.2384 0.262459 12.7558 0.858587 13.4037L8.08175 21.2132C8.46316 21.6141 9.02823 21.8306 9.49225 21.8306Z"
                     fill="currentColor" fill-opacity="0.85" />
       </g>
</svg>