<?xml version="1.0" encoding="UTF-8"?>
<!--Generator: Apple Native CoreSVG 326-->
<!DOCTYPE svg PUBLIC "-//W3C//DTD SVG 1.1//EN" "http://www.w3.org/Graphics/SVG/1.1/DTD/svg11.dtd">
<svg version="1.1" xmlns="http://www.w3.org/2000/svg" xmlns:xlink="http://www.w3.org/1999/xlink"
       viewBox="0 0 21.365 21.006">
       <g>
              <rect height="21.006" opacity="0" width="21.365" x="0" y="0" />
              <path d="M10.4981 20.9962C16.302 20.9962 21.0037 16.2946 21.0037 10.4981C21.0037 4.70163 16.302 0 10.4981 0C4.70163 0 0 4.70163 0 10.4981C0 16.2946 4.70163 20.9962 10.4981 20.9962ZM10.4981 17.9484C6.37829 17.9484 3.04785 14.6179 3.04785 10.4981C3.04785 6.37829 6.37829 3.04785 10.4981 3.04785C14.6179 3.04785 17.9558 6.37829 17.9558 10.4981C17.9558 14.6179 14.6179 17.9484 10.4981 17.9484Z"
                     fill="currentColor" fill-opacity="0.85" />
              <path d="M4.76029 10.5056C4.76029 10.7313 4.86595 11.0184 5.06357 11.2063L9.00912 14.8503C9.32272 15.1495 9.58748 15.2793 9.9183 15.2793C10.434 15.2793 10.832 14.8837 10.832 14.3657L10.832 12.8789L14.3232 12.8789C15.2141 12.8789 15.7453 12.3672 15.7453 11.466L15.7453 9.58475C15.7453 8.68874 15.2141 8.1546 14.3232 8.1546L10.832 8.1546L10.832 6.65009C10.832 6.13439 10.434 5.73182 9.91369 5.73182C9.6001 5.73182 9.35947 5.85416 9.00912 6.17006L5.06357 9.80257C4.85849 9.99788 4.76029 10.2626 4.76029 10.5056Z"
                     fill="currentColor" fill-opacity="0.85" />
       </g>
</svg>