<?xml version="1.0" encoding="UTF-8"?>
<!--Generator: Apple Native CoreSVG 326-->
<!DOCTYPE svg PUBLIC "-//W3C//DTD SVG 1.1//EN" "http://www.w3.org/Graphics/SVG/1.1/DTD/svg11.dtd">
<svg version="1.1" xmlns="http://www.w3.org/2000/svg" xmlns:xlink="http://www.w3.org/1999/xlink"
       viewBox="0 0 21.0145 19.9578">
       <g>
              <rect height="19.9578" opacity="0" width="21.0145" x="0" y="0" />
              <path d="M21.0145 7.28498C21.0145 11.4974 17.4685 15.7085 12.1621 19.2242C11.5891 19.5973 10.9977 19.9578 10.6061 19.9578C10.2168 19.9578 9.62315 19.5973 9.05249 19.2242C3.74612 15.7085 0.200105 11.4974 0.200105 7.28498C0.200105 3.25347 3.02826 0.595703 6.28864 0.595703C8.337 0.595703 9.76684 1.71984 10.6061 3.29902C11.45 1.71754 12.885 0.595703 14.9236 0.595703C18.1863 0.595703 21.0145 3.25347 21.0145 7.28498ZM9.04776 7.66602L9.04776 9.82907L9.1735 11.2011L8.65447 10.6206L8.32535 10.2594C8.13641 10.0308 7.83434 9.85339 7.51966 9.85339C6.89083 9.85339 6.42627 10.303 6.42627 10.8997C6.42627 11.2535 6.52392 11.4866 6.81447 11.7376L9.27522 13.9542C9.58705 14.2339 9.90744 14.4193 10.3266 14.4193C10.7457 14.4193 11.0661 14.2339 11.3779 13.9542L13.8387 11.7376C14.1292 11.4866 14.2343 11.2535 14.2343 10.8997C14.2343 10.303 13.7577 9.85339 13.1335 9.85339C12.8389 9.85339 12.4967 10.0308 12.3353 10.2594L12.0061 10.6206L11.4796 11.2011L11.6077 9.82907L11.6077 7.66602C11.6077 6.95743 11.03 6.4888 10.3266 6.4888C9.62315 6.4888 9.04776 6.95743 9.04776 7.66602Z"
                     fill="currentColor" fill-opacity="0.85" />
       </g>
</svg>