<?xml version="1.0" encoding="UTF-8"?>
<!--Generator: Apple Native CoreSVG 326-->
<!DOCTYPE svg PUBLIC "-//W3C//DTD SVG 1.1//EN" "http://www.w3.org/Graphics/SVG/1.1/DTD/svg11.dtd">
<svg version="1.1" xmlns="http://www.w3.org/2000/svg" xmlns:xlink="http://www.w3.org/1999/xlink"
       viewBox="0 0 21.365 21.006">
       <g>
              <rect height="21.006" opacity="0" width="21.365" x="0" y="0" />
              <path d="M21.0037 10.4981C21.0037 16.2923 16.302 20.9962 10.4981 20.9962C4.70394 20.9962 0 16.2923 0 10.4981C0 4.70163 4.70394 0 10.4981 0C16.302 0 21.0037 4.70163 21.0037 10.4981ZM13.7878 11.2202L13.7878 11.5788L13.9601 12.5382L12.4423 10.8585C12.0179 10.3847 11.2737 10.4094 10.8194 10.8562C10.3749 11.3081 10.3399 12.057 10.8217 12.4768L12.4992 13.9848L11.5364 13.82L11.1852 13.82C10.6482 13.82 10.2043 14.2467 10.2043 14.7986C10.2043 15.3431 10.6482 15.787 11.1852 15.787L14.4157 15.787C15.2908 15.787 15.7623 15.3116 15.7623 14.4478L15.7623 11.2202C15.7623 10.6683 15.3184 10.2416 14.7665 10.2416C14.2295 10.2416 13.7878 10.6683 13.7878 11.2202ZM6.53575 5.22874C5.65315 5.22874 5.19143 5.71162 5.19143 6.5679L5.19143 9.80299C5.19143 10.3474 5.63307 10.7816 6.17752 10.7816C6.71451 10.7816 7.15845 10.3474 7.15845 9.80299L7.15845 9.43693L6.99134 8.47754L8.51144 10.1573C8.92609 10.6385 9.6801 10.6064 10.132 10.1596C10.5765 9.70764 10.6115 8.96624 10.1297 8.53898L8.45461 7.03095L9.4174 7.20321L9.76108 7.20321C10.2981 7.20321 10.7397 6.76904 10.7397 6.22459C10.7397 5.67268 10.2981 5.22874 9.76108 5.22874Z"
                     fill="currentColor" fill-opacity="0.85" />
       </g>
</svg>