<?xml version="1.0" encoding="UTF-8"?>
<!--Generator: Apple Native CoreSVG 326-->
<!DOCTYPE svg PUBLIC "-//W3C//DTD SVG 1.1//EN" "http://www.w3.org/Graphics/SVG/1.1/DTD/svg11.dtd">
<svg version="1.1" xmlns="http://www.w3.org/2000/svg" xmlns:xlink="http://www.w3.org/1999/xlink"
       viewBox="0 0 24.9948 20.1732">
       <g>
              <rect height="20.1732" opacity="0" width="24.9948" x="0" y="0" />
              <path d="M16.5848 0.725628L17.3288 1.42548C17.8951 1.93614 18.1891 2.01778 18.9382 2.01778L20.9777 2.01778C23.3073 2.01778 24.6335 3.33699 24.6335 5.6546L24.6335 15.9762C24.6335 18.2938 23.3073 19.6153 20.9777 19.6153L3.64834 19.6153C1.32382 19.6153 0 18.2938 0 15.9762L0 5.6546C0 3.33699 1.32382 2.01778 3.64834 2.01778L5.67164 2.01778C6.4259 2.01778 6.71481 1.93384 7.28109 1.42548L8.0325 0.725628C8.60285 0.20344 9.16058 0 10.1142 0L14.5031 0C15.4567 0 16.0145 0.20344 16.5848 0.725628ZM7.48611 8.18554L5.89377 10.2858C5.53026 10.7717 5.74498 11.3655 6.33826 11.3655L7.07498 11.3655C7.56842 13.8341 9.69108 15.5875 12.3251 15.5875C13.4562 15.5875 14.4084 15.2794 15.1311 14.7628C15.7491 14.3418 15.8439 13.7198 15.552 13.2615C15.2475 12.7785 14.6738 12.5386 14.037 12.9412C13.4831 13.3113 12.9366 13.4872 12.3251 13.4872C10.8816 13.4872 9.70297 12.6188 9.25606 11.3655L9.90841 11.3655C10.5017 11.3655 10.7061 10.7642 10.3403 10.2858L8.73356 8.18554C8.40505 7.7496 7.82154 7.75015 7.48611 8.18554ZM9.51439 5.78277C8.89643 6.20378 8.80162 6.8235 9.0935 7.28182C9.4003 7.76483 9.97174 7.9995 10.6086 7.60209C11.1602 7.22966 11.7089 7.05837 12.3205 7.05837C13.764 7.05837 14.9351 7.92678 15.3895 9.17781L14.721 9.17781C14.1225 9.17781 13.9181 9.7814 14.284 10.2575L15.8884 12.3601C16.2266 12.796 16.8102 12.7955 17.1381 12.3601L18.7305 10.2575C19.094 9.77163 18.8793 9.17781 18.286 9.17781L17.5705 9.17781C17.0771 6.70917 14.9544 4.95584 12.3205 4.95584C11.1893 4.95584 10.2372 5.2587 9.51439 5.78277Z"
                     fill="currentColor" fill-opacity="0.85" />
       </g>
</svg>