<?xml version="1.0" encoding="UTF-8"?>
<!--Generator: Apple Native CoreSVG 326-->
<!DOCTYPE svg PUBLIC "-//W3C//DTD SVG 1.1//EN" "http://www.w3.org/Graphics/SVG/1.1/DTD/svg11.dtd">
<svg version="1.1" xmlns="http://www.w3.org/2000/svg" xmlns:xlink="http://www.w3.org/1999/xlink"
       viewBox="0 0 21.3684 20.914">
       <g>
              <rect height="20.914" opacity="0" width="21.3684" x="0" y="0" />
              <path d="M10.501 2.34369C11.1539 2.34369 11.6765 1.82108 11.6765 1.16812C11.6765 0.522613 11.1539 0 10.501 0C9.85546 0 9.33284 0.522613 9.33284 1.16812C9.33284 1.82108 9.85546 2.34369 10.501 2.34369ZM13.376 2.80268C14.0215 2.80268 14.5516 2.28006 14.5516 1.63456C14.5516 0.981597 14.0215 0.458984 13.376 0.458984C12.7305 0.458984 12.2004 0.981597 12.2004 1.63456C12.2004 2.28006 12.7305 2.80268 13.376 2.80268ZM15.9673 4.12674C16.6202 4.12674 17.1429 3.59666 17.1429 2.95116C17.1429 2.30566 16.6202 1.77558 15.9673 1.77558C15.3218 1.77558 14.7992 2.30566 14.7992 2.95116C14.7992 3.59666 15.3218 4.12674 15.9673 4.12674ZM18.0289 6.18322C18.6744 6.18322 19.2045 5.66061 19.2045 5.00764C19.2045 4.36214 18.6744 3.83953 18.0289 3.83953C17.3834 3.83953 16.8533 4.36214 16.8533 5.00764C16.8533 5.66061 17.3834 6.18322 18.0289 6.18322ZM19.3381 8.75037C19.9836 8.75037 20.5136 8.22029 20.5136 7.57479C20.5136 6.92929 19.9836 6.39921 19.3381 6.39921C18.6926 6.39921 18.1625 6.92929 18.1625 7.57479C18.1625 8.22029 18.6926 8.75037 19.3381 8.75037ZM19.8315 11.6277C20.477 11.6277 21.0071 11.0976 21.0071 10.4521C21.0071 9.80663 20.477 9.27656 19.8315 9.27656C19.186 9.27656 18.6559 9.80663 18.6559 10.4521C18.6559 11.0976 19.186 11.6277 19.8315 11.6277ZM19.3381 14.4976C19.9836 14.4976 20.5136 13.975 20.5136 13.3295C20.5136 12.6765 19.9836 12.1539 19.3381 12.1539C18.6926 12.1539 18.1625 12.6765 18.1625 13.3295C18.1625 13.975 18.6926 14.4976 19.3381 14.4976ZM18.0289 17.067C18.6744 17.067 19.2045 16.5444 19.2045 15.8915C19.2045 15.246 18.6744 14.7233 18.0289 14.7233C17.3834 14.7233 16.8533 15.246 16.8533 15.8915C16.8533 16.5444 17.3834 17.067 18.0289 17.067ZM15.9673 19.1287C16.6202 19.1287 17.1429 18.5986 17.1429 17.9531C17.1429 17.3076 16.6202 16.7775 15.9673 16.7775C15.3218 16.7775 14.7992 17.3076 14.7992 17.9531C14.7992 18.5986 15.3218 19.1287 15.9673 19.1287ZM13.376 20.4453C14.0215 20.4453 14.5516 19.9152 14.5516 19.2697C14.5516 18.6242 14.0215 18.0941 13.376 18.0941C12.7305 18.0941 12.2004 18.6242 12.2004 19.2697C12.2004 19.9152 12.7305 20.4453 13.376 20.4453ZM10.501 20.9043C11.1539 20.9043 11.6765 20.3817 11.6765 19.7287C11.6765 19.0832 11.1539 18.5606 10.501 18.5606C9.85546 18.5606 9.33284 19.0832 9.33284 19.7287C9.33284 20.3817 9.85546 20.9043 10.501 20.9043ZM7.63338 20.4453C8.27889 20.4453 8.80896 19.9152 8.80896 19.2697C8.80896 18.6242 8.27889 18.0941 7.63338 18.0941C6.98558 18.0941 6.45781 18.6242 6.45781 19.2697C6.45781 19.9152 6.98558 20.4453 7.63338 20.4453ZM5.03464 19.1287C5.6876 19.1287 6.21021 18.5986 6.21021 17.9531C6.21021 17.3076 5.6876 16.7775 5.03464 16.7775C4.38683 16.7775 3.86652 17.3076 3.86652 17.9531C3.86652 18.5986 4.38683 19.1287 5.03464 19.1287ZM2.97815 17.067C3.62365 17.067 4.15373 16.5444 4.15373 15.8915C4.15373 15.246 3.62365 14.7233 2.97815 14.7233C2.33265 14.7233 1.80258 15.246 1.80258 15.8915C1.80258 16.5444 2.33265 17.067 2.97815 17.067ZM1.66901 14.4976C2.31452 14.4976 2.84459 13.975 2.84459 13.3295C2.84459 12.6765 2.31452 12.1539 1.66901 12.1539C1.02351 12.1539 0.493437 12.6765 0.493437 13.3295C0.493437 13.975 1.02351 14.4976 1.66901 14.4976ZM1.17558 11.6277C1.82108 11.6277 2.35115 11.0976 2.35115 10.4521C2.35115 9.80663 1.82108 9.27656 1.17558 9.27656C0.530074 9.27656 0 9.80663 0 10.4521C0 11.0976 0.530074 11.6277 1.17558 11.6277ZM1.66901 8.75037C2.31452 8.75037 2.84459 8.22029 2.84459 7.57479C2.84459 6.92929 2.31452 6.39921 1.66901 6.39921C1.02351 6.39921 0.493437 6.92929 0.493437 7.57479C0.493437 8.22029 1.02351 8.75037 1.66901 8.75037ZM2.97815 6.18322C3.62365 6.18322 4.15373 5.66061 4.15373 5.00764C4.15373 4.36214 3.62365 3.83953 2.97815 3.83953C2.33265 3.83953 1.80258 4.36214 1.80258 5.00764C1.80258 5.66061 2.33265 6.18322 2.97815 6.18322ZM5.03464 4.12674C5.6876 4.12674 6.21021 3.59666 6.21021 2.95116C6.21021 2.30566 5.6876 1.77558 5.03464 1.77558C4.38683 1.77558 3.86652 2.30566 3.86652 2.95116C3.86652 3.59666 4.38683 4.12674 5.03464 4.12674ZM7.63338 2.80268C8.27889 2.80268 8.80896 2.28006 8.80896 1.63456C8.80896 0.981597 8.27889 0.458984 7.63338 0.458984C6.98558 0.458984 6.45781 0.981597 6.45781 1.63456C6.45781 2.28006 6.98558 2.80268 7.63338 2.80268Z"
                     fill="currentColor" fill-opacity="0.85" />
              <path d="M10.5107 15.3591C10.8478 15.3591 11.1929 15.2483 11.5322 14.9261L14.6034 11.9699C14.817 11.7562 14.9422 11.5328 14.9422 11.2135C14.9422 10.6043 14.4059 10.1793 13.8637 10.1793C13.5416 10.1793 13.2567 10.3171 13.0529 10.5405L12.0586 11.5928L11.6563 12.34L11.7672 10.9647L11.7672 6.78954C11.7672 6.11826 11.2216 5.54518 10.5107 5.54518C9.79984 5.54518 9.24453 6.11826 9.24453 6.78954L9.24453 10.9647L9.35535 12.34L8.96054 11.5928L7.9588 10.5405C7.75494 10.3171 7.46779 10.1793 7.14565 10.1793C6.6035 10.1793 6.07695 10.6043 6.07695 11.2135C6.07695 11.5328 6.19468 11.7562 6.40831 11.9699L9.48175 14.9261C9.81882 15.2483 10.1639 15.3591 10.5107 15.3591Z"
                     fill="currentColor" fill-opacity="0.85" />
       </g>
</svg>