<?xml version="1.0" encoding="UTF-8"?>
<!--Generator: Apple Native CoreSVG 326-->
<!DOCTYPE svg PUBLIC "-//W3C//DTD SVG 1.1//EN" "http://www.w3.org/Graphics/SVG/1.1/DTD/svg11.dtd">
<svg version="1.1" xmlns="http://www.w3.org/2000/svg" xmlns:xlink="http://www.w3.org/1999/xlink"
       viewBox="0 0 19.3993 19.0529">
       <g>
              <rect height="19.0529" opacity="0" width="19.3993" x="0" y="0" />
              <path d="M19.0379 3.63912L19.0379 15.4011C19.0379 17.7262 17.7164 19.0379 15.3896 19.0379L3.64834 19.0379C1.32382 19.0379 0 17.7262 0 15.4011L0 3.63912C0 1.32151 1.32382 0 3.64834 0L15.3896 0C17.7164 0 19.0379 1.32151 19.0379 3.63912ZM12.9031 10.2437L12.9031 10.6023L13.0754 11.5617L11.5501 9.8819C11.1332 9.40812 10.3815 9.43281 9.92721 9.8796C9.48273 10.3315 9.45519 11.0804 9.92952 11.5002L11.607 13.0082L10.6442 12.8434L10.3005 12.8434C9.7635 12.8434 9.31956 13.2702 9.31956 13.8221C9.31956 14.3665 9.7635 14.8105 10.3005 14.8105L13.5235 14.8105C14.4061 14.8105 14.8701 14.335 14.8701 13.4713L14.8701 10.2437C14.8701 9.69175 14.4262 9.26503 13.8817 9.26503C13.3448 9.26503 12.9031 9.69175 12.9031 10.2437ZM5.64356 4.25217C4.76842 4.25217 4.29924 4.73506 4.29924 5.59134L4.29924 8.82643C4.29924 9.37088 4.74088 9.80505 5.29279 9.80505C5.82978 9.80505 6.27372 9.37088 6.27372 8.82643L6.27372 8.46037L6.10146 7.50097L7.62671 9.18072C8.04136 9.66197 8.79537 9.62982 9.24732 9.18303C9.68435 8.73108 9.71935 7.98968 9.24502 7.56242L7.56988 6.05439L8.53267 6.22665L8.87635 6.22665C9.41334 6.22665 9.85497 5.79247 9.85497 5.24802C9.85497 4.69611 9.41334 4.25217 8.87635 4.25217Z"
                     fill="currentColor" fill-opacity="0.85" />
       </g>
</svg>