<?xml version="1.0" encoding="UTF-8"?>
<!--Generator: Apple Native CoreSVG 326-->
<!DOCTYPE svg PUBLIC "-//W3C//DTD SVG 1.1//EN" "http://www.w3.org/Graphics/SVG/1.1/DTD/svg11.dtd">
<svg version="1.1" xmlns="http://www.w3.org/2000/svg" xmlns:xlink="http://www.w3.org/1999/xlink"
       viewBox="0 0 23.8214 19.0529">
       <g>
              <rect height="19.0529" opacity="0" width="23.8214" x="0" y="0" />
              <path d="M3.64834 19.0529L19.8117 19.0529C22.1386 19.0529 23.4601 17.7336 23.4601 15.416L23.4601 3.65404C23.4601 1.32897 22.1386 0.0149214 19.8117 0.0149214L3.64834 0.0149214C1.32382 0.0149214 0 1.32897 0 3.65404L0 15.416C0 17.7336 1.32382 19.0529 3.64834 19.0529ZM4.05583 16.0332C3.37024 16.0332 3.01964 15.7171 3.01964 14.985L3.01964 4.07767C3.01964 3.34555 3.37024 3.03457 4.05583 3.03457L19.4042 3.03457C20.0875 3.03457 20.4404 3.34555 20.4404 4.07767L20.4404 14.985C20.4404 15.7171 20.0875 16.0332 19.4042 16.0332Z"
                     fill="currentColor" fill-opacity="0.85" />
              <path d="M10.2725 5.10742C9.70103 5.10742 9.35068 5.51977 9.35068 6.15265L9.35068 7.13837L9.46732 8.06495L8.54602 6.99377L6.25334 4.70855C6.00471 4.45992 5.7394 4.35711 5.43042 4.35711C4.83429 4.35711 4.34219 4.78437 4.34219 5.42526C4.34219 5.70264 4.46969 6.0001 4.68101 6.21889L7.00353 8.53395L8.07933 9.45986L7.19357 9.32599L6.12742 9.32599C5.50199 9.32599 5.09481 9.67634 5.09481 10.2478C5.09481 10.8043 5.50715 11.1547 6.15265 11.1547L9.89877 11.1547C10.7027 11.1547 11.1891 10.7062 11.1891 9.88154L11.1891 6.14234C11.1891 5.51922 10.8364 5.10742 10.2725 5.10742Z"
                     fill="currentColor" fill-opacity="0.85" />
       </g>
</svg>