<?xml version="1.0" encoding="UTF-8"?>
<!--Generator: Apple Native CoreSVG 326-->
<!DOCTYPE svg PUBLIC "-//W3C//DTD SVG 1.1//EN" "http://www.w3.org/Graphics/SVG/1.1/DTD/svg11.dtd">
<svg version="1.1" xmlns="http://www.w3.org/2000/svg" xmlns:xlink="http://www.w3.org/1999/xlink"
       viewBox="0 0 32.4958 23.6329">
       <g>
              <rect height="23.6329" opacity="0" width="32.4958" x="0" y="0" />
              <path d="M16.6139 20.3954C16.6139 22.2993 17.9418 23.5835 19.9216 23.5835L29.0156 23.5835C30.8909 23.5835 32.1344 22.2993 32.1344 20.3879L32.1344 3.19561C32.1344 1.27675 30.8909 0 29.0156 0L19.9216 0C17.9418 0 16.6139 1.27675 16.6139 3.18814ZM19.6336 19.3506L19.6336 4.23289C19.6336 3.60831 20.0203 3.25093 20.6466 3.25093L28.1092 3.25093C28.7281 3.25093 29.1148 3.62323 29.1148 4.24035L29.1148 19.3432C29.1148 19.9603 28.7281 20.3326 28.1092 20.3326L20.6466 20.3326C20.0203 20.3326 19.6336 19.9752 19.6336 19.3506Z"
                     fill="currentColor" fill-opacity="0.85" />
              <path d="M1.70474 19.894C2.6975 19.894 3.40202 19.2141 3.40202 18.1915L3.40202 16.7594C3.40202 14.6187 5.0145 13.4916 6.99831 13.4916L7.48617 13.4916L11.1761 13.3142L11.1761 12.1928L8.34822 14.5103L7.70672 15.0627C7.31051 15.3974 7.10271 15.8132 7.10271 16.346C7.10271 17.2497 7.74985 17.9468 8.72077 17.9468C9.16404 17.9468 9.58548 17.7619 9.94208 17.4151L14.1475 13.1299C14.5368 12.7429 14.7412 12.2944 14.7412 11.7966C14.7412 11.2914 14.5368 10.8429 14.1475 10.456L9.93747 6.16611C9.58548 5.82159 9.16404 5.63901 8.72077 5.63901C7.74985 5.63901 7.10271 6.33377 7.10271 7.23985C7.10271 7.77265 7.31051 8.18839 7.70672 8.52315L8.34822 9.07554L11.1761 11.393L11.1761 10.2716L7.48617 10.0942L7.00577 10.0942C3.15102 10.0942 0 12.544 0 16.7594L0 18.1841C0 19.2141 0.704521 19.894 1.70474 19.894Z"
                     fill="currentColor" fill-opacity="0.85" />
       </g>
</svg>