<?xml version="1.0" encoding="UTF-8"?>
<!--Generator: Apple Native CoreSVG 326-->
<!DOCTYPE svg PUBLIC "-//W3C//DTD SVG 1.1//EN" "http://www.w3.org/Graphics/SVG/1.1/DTD/svg11.dtd">
<svg version="1.1" xmlns="http://www.w3.org/2000/svg" xmlns:xlink="http://www.w3.org/1999/xlink"
       viewBox="0 0 19.3993 19.0529">
       <g>
              <rect height="19.0529" opacity="0" width="19.3993" x="0" y="0" />
              <path d="M19.0379 3.63912L19.0379 15.4011C19.0379 17.7262 17.7164 19.0379 15.3896 19.0379L3.64834 19.0379C1.32382 19.0379 0 17.7262 0 15.4011L0 3.63912C0 1.32151 1.32382 0 3.64834 0L15.3896 0C17.7164 0 19.0379 1.32151 19.0379 3.63912ZM8.51496 4.75186L5.23195 7.8953C5.00855 8.12385 4.8782 8.36447 4.8782 8.70845C4.8782 9.36251 5.44952 9.81446 6.03358 9.81446C6.37065 9.81446 6.67732 9.66918 6.90357 9.42856L7.95929 8.31249L8.38109 7.5182L8.25305 8.9848L8.25305 13.423C8.25305 14.1437 8.85542 14.7563 9.61568 14.7563C10.3834 14.7563 10.976 14.1437 10.976 13.423L10.976 8.9848L10.8503 7.5182L11.2698 8.31249L12.3278 9.42856C12.554 9.66918 12.8584 9.81446 13.1955 9.81446C13.7772 9.81446 14.3457 9.36251 14.3457 8.70845C14.3457 8.36447 14.2205 8.12385 13.9971 7.8953L10.7164 4.75186C10.3547 4.40503 9.9849 4.27929 9.61568 4.27929C9.24417 4.27929 8.87671 4.40503 8.51496 4.75186Z"
                     fill="currentColor" fill-opacity="0.85" />
       </g>
</svg>