<?xml version="1.0" encoding="UTF-8"?>
<!--Generator: Apple Native CoreSVG 326-->
<!DOCTYPE svg PUBLIC "-//W3C//DTD SVG 1.1//EN" "http://www.w3.org/Graphics/SVG/1.1/DTD/svg11.dtd">
<svg version="1.1" xmlns="http://www.w3.org/2000/svg" xmlns:xlink="http://www.w3.org/1999/xlink"
       viewBox="0 0 21.365 21.006">
       <g>
              <rect height="21.006" opacity="0" width="21.365" x="0" y="0" />
              <path d="M10.4981 20.9962C16.302 20.9962 21.0037 16.2946 21.0037 10.4981C21.0037 4.70163 16.302 0 10.4981 0C4.70163 0 0 4.70163 0 10.4981C0 16.2946 4.70163 20.9962 10.4981 20.9962ZM10.4981 17.9484C6.37829 17.9484 3.04785 14.6179 3.04785 10.4981C3.04785 6.37829 6.37829 3.04785 10.4981 3.04785C14.6179 3.04785 17.9558 6.37829 17.9558 10.4981C17.9558 14.6179 14.6179 17.9484 10.4981 17.9484Z"
                     fill="currentColor" fill-opacity="0.85" />
              <path d="M4.78892 10.5004C4.78892 11.0999 5.21157 11.4979 5.82887 11.4979L8.56548 11.4979L9.84011 11.3756L8.82012 12.2605L8.20258 12.8665C8.01364 13.0508 7.87297 13.2742 7.87297 13.5889C7.87297 14.1264 8.27324 14.5221 8.8607 14.5221C9.09155 14.5221 9.36378 14.4193 9.55272 14.2177L12.4048 11.2349C12.5811 11.0534 12.6942 10.7881 12.6942 10.5004C12.6942 10.2104 12.5788 9.94741 12.4048 9.76362L9.55042 6.78135C9.35171 6.56772 9.09616 6.46436 8.8607 6.46436C8.27785 6.46436 7.87297 6.86748 7.87297 7.41017C7.87297 7.72024 8.00617 7.94079 8.20258 8.12743L8.81781 8.74036L9.8378 9.62527L8.56548 9.50292L5.82887 9.50292C5.21157 9.50292 4.78892 9.90319 4.78892 10.5004ZM14.128 14.7152C14.6604 14.7152 15.0905 14.2874 15.0905 13.7573L15.0905 7.22911C15.0905 6.69904 14.6604 6.27869 14.128 6.27869C13.6077 6.27869 13.1776 6.69904 13.1776 7.22911L13.1776 13.7573C13.1776 14.2874 13.6077 14.7152 14.128 14.7152Z"
                     fill="currentColor" fill-opacity="0.85" />
       </g>
</svg>