<?xml version="1.0" encoding="UTF-8"?>
<!--Generator: Apple Native CoreSVG 326-->
<!DOCTYPE svg PUBLIC "-//W3C//DTD SVG 1.1//EN" "http://www.w3.org/Graphics/SVG/1.1/DTD/svg11.dtd">
<svg version="1.1" xmlns="http://www.w3.org/2000/svg" xmlns:xlink="http://www.w3.org/1999/xlink"
       viewBox="0 0 23.3614 23.0389">
       <g>
              <rect height="23.0389" opacity="0" width="23.3614" x="0" y="0" />
              <path d="M22.9997 13.3231L22.9089 6.28953C22.9089 5.89618 22.7343 5.46322 22.4513 5.18759C21.8288 4.56514 20.933 4.56745 20.3054 5.18759C20.0177 5.48275 19.8501 5.83704 19.865 6.24817L19.9288 9.0711L19.9852 9.77986L18.8996 8.66434L10.703 0.467705C10.0805-0.154749 9.15776-0.157053 8.54507 0.467705C7.92031 1.08039 7.92262 2.00085 8.54507 2.6233L16.7417 10.8222L17.8572 11.9055L17.1508 11.8514L14.3278 11.7876C13.9144 11.7727 13.5601 11.9381 13.265 12.2281C12.6448 12.8557 12.6425 13.7491 13.265 14.3739C13.5429 14.6547 13.9735 14.8292 14.3692 14.8292L21.4005 14.9223C22.3083 14.9493 23.0266 14.2332 22.9997 13.3231Z"
                     fill="currentColor" fill-opacity="0.85" />
              <path d="M0.000392979 9.70605L0.0934394 16.7298C0.0934394 17.133 0.268008 17.5562 0.548785 17.8318C1.17354 18.464 2.06701 18.4617 2.69462 17.8318C2.98231 17.5441 3.14996 17.1846 3.1425 16.7712L3.07129 13.9534L3.01719 13.247L4.10044 14.3573L12.2994 22.5614C12.9218 23.1839 13.84 23.1839 14.455 22.5614C15.0797 21.939 15.0774 21.026 14.455 20.4035L6.25834 12.1994L5.14282 11.1236L5.85674 11.1777L8.67451 11.2415C9.08564 11.249 9.43763 11.0888 9.73278 10.7936C10.3627 10.1735 10.365 9.27023 9.73278 8.65524C9.45716 8.37216 9.03396 8.19759 8.63315 8.19759L1.59959 8.10685C0.691751 8.07986-0.0191383 8.79129 0.000392979 9.70605Z"
                     fill="currentColor" fill-opacity="0.85" />
       </g>
</svg>