<?xml version="1.0" encoding="UTF-8"?>
<!--Generator: Apple Native CoreSVG 326-->
<!DOCTYPE svg PUBLIC "-//W3C//DTD SVG 1.1//EN" "http://www.w3.org/Graphics/SVG/1.1/DTD/svg11.dtd">
<svg version="1.1" xmlns="http://www.w3.org/2000/svg" xmlns:xlink="http://www.w3.org/1999/xlink"
       viewBox="0 0 19.3993 19.0529">
       <g>
              <rect height="19.0529" opacity="0" width="19.3993" x="0" y="0" />
              <path d="M19.0379 3.63912L19.0379 15.4011C19.0379 17.7262 17.7164 19.0379 15.3896 19.0379L3.64834 19.0379C1.32382 19.0379 0 17.7262 0 15.4011L0 3.63912C0 1.32151 1.32382 0 3.64834 0L15.3896 0C17.7164 0 19.0379 1.32151 19.0379 3.63912ZM5.24463 9.45222C4.70248 9.45222 4.26085 9.89155 4.26085 10.436C4.26085 10.9758 4.70248 11.4077 5.24463 11.4077L5.48671 11.4077L6.43282 11.2354L4.54611 12.9602C4.08155 13.3725 4.09932 14.1145 4.54381 14.5641C4.99345 15.0086 5.73309 15.0235 6.15289 14.5618L7.89202 12.6728L7.71976 13.6155L7.71976 13.88C7.71976 14.4296 8.15909 14.8615 8.68401 14.8615C9.23361 14.8615 9.66779 14.4296 9.66779 13.88L9.66779 10.7822C9.66779 9.92533 9.20607 9.45222 8.33554 9.45222ZM13.0589 4.47151L11.3198 6.36798L11.4944 5.4178L11.4944 5.1608C11.4944 4.60374 11.0527 4.17932 10.5204 4.17932C9.97823 4.17932 9.53889 4.60374 9.53889 5.1608L9.53889 8.25632C9.53889 9.10799 10.0058 9.58111 10.8763 9.58111L13.9672 9.58111C14.5117 9.58111 14.951 9.14693 14.951 8.59733C14.951 8.05749 14.5117 7.63308 13.9672 7.63308L13.7251 7.63308L12.779 7.79788L14.6657 6.08059C15.1303 5.65848 15.1125 4.91884 14.668 4.4692C14.2184 4.03217 13.4787 4.01725 13.0589 4.47151Z"
                     fill="currentColor" fill-opacity="0.85" />
       </g>
</svg>