<?xml version="1.0" encoding="UTF-8"?>
<!--Generator: Apple Native CoreSVG 326-->
<!DOCTYPE svg PUBLIC "-//W3C//DTD SVG 1.1//EN" "http://www.w3.org/Graphics/SVG/1.1/DTD/svg11.dtd">
<svg version="1.1" xmlns="http://www.w3.org/2000/svg" xmlns:xlink="http://www.w3.org/1999/xlink"
       viewBox="0 0 18.145 21.7932">
       <g>
              <rect height="21.7932" opacity="0" width="18.145" x="0" y="0" />
              <path d="M3.63912 21.7932L14.1445 21.7932C16.4719 21.7932 17.7836 20.4694 17.7836 18.1397L17.7836 9.30233C17.7836 7.63223 17.5178 6.76454 16.4456 5.68772L12.1316 1.35069C11.076 0.283082 10.1922 0.0051558 8.56876 0.0051558L3.63912 0.0051558C1.32151 0.0051558 0 1.33128 0 3.66096L0 18.1397C0 20.4717 1.31921 21.7932 3.63912 21.7932ZM4.0656 18.7735C3.32832 18.7735 3.01964 18.4229 3.01964 17.7299L3.01964 4.07075C3.01964 3.38 3.32832 3.0248 4.0679 3.0248L7.63769 3.0248L7.63769 7.34824C7.63769 9.28748 8.53643 10.1914 10.4808 10.1914L14.764 10.1914L14.764 17.7299C14.764 18.4229 14.4553 18.7735 13.7232 18.7735ZM10.679 7.81402C10.2287 7.81402 10.015 7.59062 10.015 7.14777L10.015 3.17086L14.6179 7.81402Z"
                     fill="currentColor" fill-opacity="0.85" />
              <path d="M10.0816 16.6838L10.0816 15.4219L9.97083 14.136L10.4652 14.682L10.7845 15.0358C10.9436 15.2494 11.2508 15.4096 11.5357 15.4096C12.1203 15.4096 12.555 14.9921 12.555 14.4299C12.555 14.1158 12.4597 13.8826 12.1915 13.6489L9.86395 11.5609C9.58427 11.3007 9.2788 11.1279 8.89182 11.1279C8.50483 11.1279 8.19937 11.3007 7.91968 11.5609L5.59213 13.6489C5.32397 13.8826 5.22861 14.1158 5.22861 14.4299C5.22861 14.9921 5.66849 15.4096 6.2554 15.4096C6.53794 15.4096 6.82508 15.2494 6.99911 15.0358L7.32592 14.682L7.8128 14.136L7.70199 15.4219L7.70199 16.6838C7.70199 17.3528 8.23776 17.7795 8.89182 17.7795C9.54587 17.7795 10.0816 17.3528 10.0816 16.6838Z"
                     fill="currentColor" fill-opacity="0.85" />
       </g>
</svg>