<?xml version="1.0" encoding="UTF-8"?>
<!--Generator: Apple Native CoreSVG 326-->
<!DOCTYPE svg PUBLIC "-//W3C//DTD SVG 1.1//EN" "http://www.w3.org/Graphics/SVG/1.1/DTD/svg11.dtd">
<svg version="1.1" xmlns="http://www.w3.org/2000/svg" xmlns:xlink="http://www.w3.org/1999/xlink"
       viewBox="0 0 21.365 21.006">
       <g>
              <rect height="21.006" opacity="0" width="21.365" x="0" y="0" />
              <path d="M10.4981 20.9962C16.302 20.9962 21.0037 16.2946 21.0037 10.4981C21.0037 4.70163 16.302 0 10.4981 0C4.70163 0 0 4.70163 0 10.4981C0 16.2946 4.70163 20.9962 10.4981 20.9962ZM10.4981 17.9484C6.37829 17.9484 3.04785 14.6179 3.04785 10.4981C3.04785 6.37829 6.37829 3.04785 10.4981 3.04785C14.6179 3.04785 17.9558 6.37829 17.9558 10.4981C17.9558 14.6179 14.6179 17.9484 10.4981 17.9484Z"
                     fill="currentColor" fill-opacity="0.85" />
              <path d="M13.4928 13.4497C14.1612 13.4497 14.5735 12.961 14.5735 12.2283L14.5735 7.88747C14.5735 6.92334 14.0051 6.37792 13.0444 6.37792L8.69159 6.37792C7.94164 6.37792 7.45469 6.78796 7.45469 7.45639C7.45469 8.12482 7.93648 8.53486 8.67382 8.53486L9.90653 8.53486L10.9042 8.37861L9.68665 9.41412L6.82175 12.279C6.57312 12.5351 6.41577 12.8796 6.41577 13.2167C6.41577 13.977 7.00717 14.484 7.70544 14.484C8.06665 14.484 8.38419 14.3588 8.69481 14.0654L11.5201 11.2476L12.5533 10.0346L12.4143 11.0806L12.4143 12.218C12.4143 12.9679 12.8318 13.4497 13.4928 13.4497Z"
                     fill="currentColor" fill-opacity="0.85" />
       </g>
</svg>