<?xml version="1.0" encoding="UTF-8"?>
<!--Generator: Apple Native CoreSVG 326-->
<!DOCTYPE svg PUBLIC "-//W3C//DTD SVG 1.1//EN" "http://www.w3.org/Graphics/SVG/1.1/DTD/svg11.dtd">
<svg version="1.1" xmlns="http://www.w3.org/2000/svg" xmlns:xlink="http://www.w3.org/1999/xlink"
       viewBox="0 0 19.3993 19.0529">
       <g>
              <rect height="19.0529" opacity="0" width="19.3993" x="0" y="0" />
              <path d="M3.64834 19.0379L15.3896 19.0379C17.7164 19.0379 19.0379 17.7262 19.0379 15.4011L19.0379 3.63912C19.0379 1.32151 17.7164 0 15.3896 0L3.64834 0C1.32382 0 0 1.32151 0 3.63912L0 15.4011C0 17.7262 1.32382 19.0379 3.64834 19.0379ZM4.05583 16.0183C3.37024 16.0183 3.01964 15.7096 3.01964 14.9775L3.01964 4.07021C3.01964 3.33809 3.37024 3.0271 4.05583 3.0271L14.9821 3.0271C15.6654 3.0271 16.0183 3.33809 16.0183 4.07021L16.0183 14.9775C16.0183 15.7096 15.6654 16.0183 14.9821 16.0183Z"
                     fill="currentColor" fill-opacity="0.85" />
              <path d="M5.49477 13.8454C6.02254 13.8454 6.44519 13.4176 6.44519 12.8875L6.44519 6.3593C6.44519 5.82923 6.02254 5.40658 5.49477 5.40658C4.9624 5.40658 4.53974 5.82923 4.53974 6.3593L4.53974 12.8875C4.53974 13.4176 4.9624 13.8454 5.49477 13.8454ZM14.8436 9.6283C14.8436 9.03339 14.4187 8.63312 13.7939 8.63312L11.0648 8.63312L9.78498 8.75315L10.8124 7.86825L11.4202 7.25762C11.6166 7.06868 11.7498 6.85044 11.7498 6.54036C11.7498 5.99767 11.3449 5.59455 10.7621 5.59455C10.5266 5.59455 10.2785 5.69561 10.0724 5.90924L7.22547 8.89382C7.05145 9.0753 6.92856 9.34061 6.92856 9.6283C6.92856 9.9183 7.04915 10.1813 7.22547 10.3628L10.0701 13.3479C10.259 13.5495 10.5312 13.6523 10.7621 13.6523C11.3495 13.6523 11.7498 13.2543 11.7498 12.7191C11.7498 12.4044 11.6091 12.181 11.4202 11.9967L10.8101 11.3907L9.78267 10.5034L11.0648 10.6281L13.7939 10.6281C14.4187 10.6281 14.8436 10.2278 14.8436 9.6283Z"
                     fill="currentColor" fill-opacity="0.85" />
       </g>
</svg>