<?xml version="1.0" encoding="UTF-8"?>
<!--Generator: Apple Native CoreSVG 326-->
<!DOCTYPE svg PUBLIC "-//W3C//DTD SVG 1.1//EN" "http://www.w3.org/Graphics/SVG/1.1/DTD/svg11.dtd">
<svg version="1.1" xmlns="http://www.w3.org/2000/svg" xmlns:xlink="http://www.w3.org/1999/xlink"
       viewBox="0 0 23.8214 19.0529">
       <g>
              <rect height="19.0529" opacity="0" width="23.8214" x="0" y="0" />
              <path d="M3.64834 19.0529L19.8117 19.0529C22.1386 19.0529 23.4601 17.7336 23.4601 15.416L23.4601 3.65404C23.4601 1.32897 22.1386 0.0149214 19.8117 0.0149214L3.64834 0.0149214C1.32382 0.0149214 0 1.32897 0 3.65404L0 15.416C0 17.7336 1.32382 19.0529 3.64834 19.0529ZM4.05583 16.0332C3.37024 16.0332 3.01964 15.7171 3.01964 14.985L3.01964 4.07767C3.01964 3.34555 3.37024 3.03457 4.05583 3.03457L19.4042 3.03457C20.0875 3.03457 20.4404 3.34555 20.4404 4.07767L20.4404 14.985C20.4404 15.7171 20.0875 16.0332 19.4042 16.0332Z"
                     fill="currentColor" fill-opacity="0.85" />
              <path d="M10.5587 4.42395C10.0889 4.42395 9.73336 4.78637 9.73336 5.26082L9.73336 6.07689L9.80578 7.06522L9.0201 6.04705L7.56794 4.59258C7.32677 4.35887 7.06892 4.2509 6.80701 4.2509C6.28724 4.2509 5.87721 4.66094 5.87721 5.17785C5.87721 5.42308 5.98233 5.67577 6.19881 5.89225L7.68828 7.37887L8.71336 8.16224L7.77101 8.0749L6.8969 8.0749C6.42014 8.0749 6.05257 8.43041 6.05257 8.90025C6.05257 9.36263 6.42014 9.72044 6.88483 9.72044L10.2195 9.72044C10.9419 9.72044 11.3864 9.29955 11.3864 8.56846L11.3864 5.26543C11.3864 4.79098 11.0285 4.42395 10.5587 4.42395ZM12.9014 14.6438C13.3712 14.6438 13.7267 14.2763 13.7267 13.8018L13.7267 12.9857L13.6543 11.9951L14.44 13.0156L15.8921 14.4677C16.1333 14.7089 16.3911 14.8094 16.6531 14.8094C17.1728 14.8094 17.5852 14.4017 17.5852 13.8848C17.5852 13.647 17.48 13.3845 17.2636 13.1681L15.7718 11.6838L14.7467 10.9004L15.6891 10.9952L16.5632 10.9952C17.0399 10.9952 17.4098 10.6397 17.4098 10.1698C17.4098 9.7 17.0399 9.34219 16.5678 9.34219L13.2429 9.34219C12.5205 9.34219 12.0737 9.76077 12.0737 10.5016L12.0737 13.7972C12.0737 14.2716 12.4315 14.6438 12.9014 14.6438Z"
                     fill="currentColor" fill-opacity="0.85" />
       </g>
</svg>