<?xml version="1.0" encoding="UTF-8"?>
<!--Generator: Apple Native CoreSVG 326-->
<!DOCTYPE svg PUBLIC "-//W3C//DTD SVG 1.1//EN" "http://www.w3.org/Graphics/SVG/1.1/DTD/svg11.dtd">
<svg version="1.1" xmlns="http://www.w3.org/2000/svg" xmlns:xlink="http://www.w3.org/1999/xlink"
       viewBox="0 0 24.4719 22.4205">
       <g>
              <rect height="22.4205" opacity="0" width="24.4719" x="0" y="0" />
              <path d="M24.1106 9.80208C24.1106 16.1948 18.0699 19.5944 10.9841 19.6168C10.9317 19.6168 10.8496 19.6145 10.7375 19.6122C10.5187 19.6122 10.3372 19.6535 10.0817 19.8155C8.01121 21.2606 5.33749 22.413 4.09847 22.413C3.21968 22.413 2.86309 21.7978 3.45285 21.0782C3.87617 20.5452 4.75574 19.5157 5.40706 18.4308C5.53741 18.1798 5.48112 18.0334 5.20781 17.8732C1.78207 15.992 0 12.9868 0 9.80208C0 4.36772 5.36206 0 12.059 0C18.7485 0 24.1106 4.36772 24.1106 9.80208ZM10.701 5.93113L10.701 10.367L10.8267 11.8359L10.4049 11.0393L9.34922 9.92558C9.12298 9.69011 8.8163 9.53968 8.47923 9.53968C7.89518 9.53968 7.32386 9.98933 7.32386 10.6457C7.32386 10.9874 7.45421 11.228 7.6776 11.4565L10.9606 14.6C11.3224 14.9468 11.6921 15.0749 12.0613 15.0749C12.4329 15.0749 12.8003 14.9468 13.1621 14.6L16.4376 11.4565C16.661 11.228 16.7914 10.9874 16.7914 10.6457C16.7914 9.98933 16.2252 9.53968 15.6411 9.53968C15.2966 9.53968 14.9997 9.69011 14.7735 9.92558L13.7177 11.0393L13.2959 11.8336L13.424 10.367L13.424 5.93113C13.424 5.21048 12.8216 4.59549 12.0613 4.59549C11.3011 4.59549 10.701 5.21048 10.701 5.93113Z"
                     fill="currentColor" fill-opacity="0.85" />
       </g>
</svg>