<?xml version="1.0" encoding="UTF-8"?>
<!--Generator: Apple Native CoreSVG 326-->
<!DOCTYPE svg PUBLIC "-//W3C//DTD SVG 1.1//EN" "http://www.w3.org/Graphics/SVG/1.1/DTD/svg11.dtd">
<svg version="1.1" xmlns="http://www.w3.org/2000/svg" xmlns:xlink="http://www.w3.org/1999/xlink"
       viewBox="0 0 29.6613 22.4218">
       <g>
              <rect height="22.4218" opacity="0" width="29.6613" x="0" y="0" />
              <path d="M12.2939 2.64634L5.89383 8.54808C5.14946 9.24592 4.73942 10.2469 4.73942 11.2112C4.73942 12.1582 5.15692 13.1816 5.91106 13.8794L12.2985 19.7873C11.991 20.3429 11.4004 20.7057 10.6943 20.7057C10.0143 20.7057 9.49686 20.4433 8.84905 19.8471L1.03722 12.624C0.640892 12.2472 0.422106 11.6798 0.422106 11.2135C0.422106 10.7127 0.625971 10.1849 1.02976 9.80815L8.84905 2.60112C9.55315 1.95616 10.047 1.72124 10.6897 1.72124C11.3956 1.72124 11.985 2.08937 12.2939 2.64634Z"
                     fill="currentColor" fill-opacity="0.85" />
              <path d="M16.7374 20.7034C17.7722 20.7034 18.5664 19.9093 18.5664 18.867L18.5664 16.0318L18.6855 16.0318C21.6441 16.0318 23.2234 17.3395 24.2661 19.2272C24.7646 20.1954 25.3556 20.5318 26.1462 20.5318C27.3003 20.5318 27.9429 19.3767 27.9429 17.0373C27.9429 10.3278 24.6475 6.45999 18.6855 6.45999L18.5664 6.45999L18.5664 3.56688C18.5664 2.53209 17.7722 1.71893 16.7254 1.71893C16.0804 1.71893 15.594 1.95385 14.8899 2.59135L7.07292 9.80584C6.66914 10.1826 6.46297 10.7104 6.46297 11.2112C6.46297 11.6775 6.6766 12.2449 7.08039 12.6217L14.8899 19.8448C15.5303 20.441 16.0552 20.7034 16.7374 20.7034Z"
                     fill="currentColor" fill-opacity="0.85" />
       </g>
</svg>