<?xml version="1.0" encoding="UTF-8"?>
<!--Generator: Apple Native CoreSVG 326-->
<!DOCTYPE svg PUBLIC "-//W3C//DTD SVG 1.1//EN" "http://www.w3.org/Graphics/SVG/1.1/DTD/svg11.dtd">
<svg version="1.1" xmlns="http://www.w3.org/2000/svg" xmlns:xlink="http://www.w3.org/1999/xlink"
       viewBox="0 0 21.365 21.006">
       <g>
              <rect height="21.006" opacity="0" width="21.365" x="0" y="0" />
              <path d="M21.0037 10.5079C21.0037 16.3043 16.302 21.006 10.4981 21.006C4.70394 21.006 0 16.3043 0 10.5079C0 4.7137 4.70394 0.00976562 10.4981 0.00976562C16.302 0.00976562 21.0037 4.7137 21.0037 10.5079ZM7.61658 5.98985L3.90407 9.39908C3.71622 9.57201 3.62778 9.81494 3.62778 10.055C3.62778 10.2681 3.71622 10.5283 3.91153 10.7161L7.61658 14.1374C7.92502 14.4166 8.14787 14.5487 8.46146 14.5487C8.82509 14.5487 9.09908 14.3539 9.22591 14.1121L9.22591 14.047L6.22871 11.3111C5.88407 10.9883 5.66352 10.5277 5.66352 10.055C5.66352 9.58978 5.88176 9.13432 6.22871 8.81151L9.22591 6.07283L9.22591 6.00774C9.09908 5.75614 8.82509 5.56653 8.4517 5.56653C8.17541 5.56653 7.94225 5.68372 7.61658 5.98985ZM10.4743 5.98985L6.77898 9.39908C6.57391 9.58178 6.47801 9.81494 6.47801 10.055C6.47801 10.2681 6.59629 10.5409 6.77898 10.7161L10.4743 14.1374C10.7879 14.424 11.0326 14.5487 11.3341 14.5487C11.805 14.5487 12.188 14.1754 12.188 13.6924L12.188 12.332L12.2548 12.332C13.6765 12.332 14.4554 12.9392 14.9487 13.8596C15.1842 14.3087 15.4581 14.4666 15.8343 14.4666C16.366 14.4666 16.66 13.9292 16.66 12.8533C16.66 9.673 15.0969 7.83998 12.2548 7.83998L12.188 7.83998L12.188 6.42742C12.188 5.95879 11.805 5.56653 11.3243 5.56653C11.0354 5.56653 10.8074 5.69118 10.4743 5.98985Z"
                     fill="currentColor" fill-opacity="0.85" />
       </g>
</svg>