<?xml version="1.0" encoding="UTF-8"?>
<!--Generator: Apple Native CoreSVG 326-->
<!DOCTYPE svg PUBLIC "-//W3C//DTD SVG 1.1//EN" "http://www.w3.org/Graphics/SVG/1.1/DTD/svg11.dtd">
<svg version="1.1" xmlns="http://www.w3.org/2000/svg" xmlns:xlink="http://www.w3.org/1999/xlink"
       viewBox="0 0 19.3993 19.0529">
       <g>
              <rect height="19.0529" opacity="0" width="19.3993" x="0" y="0" />
              <path d="M19.0379 3.63912L19.0379 15.4011C19.0379 17.7262 17.7164 19.0379 15.3896 19.0379L3.64834 19.0379C1.32382 19.0379 0 17.7262 0 15.4011L0 3.63912C0 1.32151 1.32382 0 3.64834 0L15.3896 0C17.7164 0 19.0379 1.32151 19.0379 3.63912ZM6.89247 5.1275C5.86756 5.1275 5.26179 5.71253 5.26179 6.74095L5.26179 11.3751C5.26179 12.1647 5.70397 12.6855 6.40455 12.6855C7.12236 12.6855 7.56454 12.1641 7.56454 11.3648L7.56454 10.1586L7.43298 9.04886L8.52248 10.333L11.5252 13.3306C11.853 13.6486 12.1953 13.7813 12.5886 13.7813C13.334 13.7813 13.9575 13.2347 13.9575 12.425C13.9575 12.0656 13.8002 11.6889 13.5268 11.4156L10.4822 8.37327L9.19346 7.28146L10.2549 7.43771L11.5565 7.43771C12.3507 7.43771 12.8646 7.00299 12.8646 6.28749C12.8646 5.56968 12.3455 5.1275 11.5313 5.1275Z"
                     fill="currentColor" fill-opacity="0.85" />
       </g>
</svg>