<?xml version="1.0" encoding="UTF-8"?>
<!--Generator: Apple Native CoreSVG 326-->
<!DOCTYPE svg PUBLIC "-//W3C//DTD SVG 1.1//EN" "http://www.w3.org/Graphics/SVG/1.1/DTD/svg11.dtd">
<svg version="1.1" xmlns="http://www.w3.org/2000/svg" xmlns:xlink="http://www.w3.org/1999/xlink"
       viewBox="0 0 23.8214 19.0529">
       <g>
              <rect height="19.0529" opacity="0" width="23.8214" x="0" y="0" />
              <path d="M23.4601 3.65404L23.4601 15.416C23.4601 17.7336 22.1386 19.0529 19.8117 19.0529L3.64834 19.0529C1.32382 19.0529 0 17.7336 0 15.416L0 3.65404C0 1.32897 1.32382 0.0149214 3.64834 0.0149214L19.8117 0.0149214C22.1386 0.0149214 23.4601 1.32897 23.4601 3.65404ZM9.55497 9.85776L8.01436 11.3961L7.1747 12.478L7.2592 11.4305L7.2592 10.5679C7.2592 10.059 6.8767 9.66676 6.36494 9.66676C5.86811 9.66676 5.48792 10.0636 5.48792 10.5725L5.48792 14.0846C5.48792 14.8725 5.96686 15.3307 6.73634 15.3307L10.2851 15.3307C10.7917 15.3307 11.1691 14.943 11.1691 14.4462C11.1691 13.9419 10.7917 13.5594 10.2805 13.5594L9.35244 13.5594L8.34349 13.6588L9.43748 12.8289L11.0228 11.2487C11.2393 11.0225 11.3617 10.7474 11.3617 10.4849C11.3617 9.93874 10.9195 9.49886 10.363 9.49886C10.0913 9.49886 9.81336 9.60167 9.55497 9.85776ZM13.1772 3.72962C12.6706 3.72962 12.291 4.11958 12.291 4.62387C12.291 5.12071 12.6706 5.50836 13.1818 5.50836L14.1076 5.50836L15.1189 5.40379L14.0226 6.23369L12.4372 7.8139C12.2207 8.04014 12.0984 8.31522 12.0984 8.57768C12.0984 9.12904 12.5429 9.56376 13.0971 9.56376C13.3688 9.56376 13.6467 9.46095 13.9074 9.20486L15.4457 7.66426L16.2779 6.58464L16.2032 7.63211L16.2032 8.4924C16.2032 9.0013 16.5834 9.39587 17.0951 9.39587C17.592 9.39587 17.9745 8.99669 17.9745 8.48779L17.9745 4.97805C17.9745 4.19012 17.4932 3.72962 16.7237 3.72962Z"
                     fill="currentColor" fill-opacity="0.85" />
       </g>
</svg>