<?xml version="1.0" encoding="UTF-8"?>
<!--Generator: Apple Native CoreSVG 326-->
<!DOCTYPE svg PUBLIC "-//W3C//DTD SVG 1.1//EN" "http://www.w3.org/Graphics/SVG/1.1/DTD/svg11.dtd">
<svg version="1.1" xmlns="http://www.w3.org/2000/svg" xmlns:xlink="http://www.w3.org/1999/xlink"
       viewBox="0 0 19.3993 19.0529">
       <g>
              <rect height="19.0529" opacity="0" width="19.3993" x="0" y="0" />
              <path d="M19.0379 3.63912L19.0379 15.4011C19.0379 17.7262 17.7164 19.0379 15.3896 19.0379L3.64834 19.0379C1.32382 19.0379 0 17.7262 0 15.4011L0 3.63912C0 1.32151 1.32382 0 3.64834 0L15.3896 0C17.7164 0 19.0379 1.32151 19.0379 3.63912ZM9.23325 5.93944C9.23325 6.27651 9.37852 6.58088 9.61914 6.80713L10.7329 7.86285L11.522 8.28465L10.0531 8.1566L5.6247 8.1566C4.90404 8.1566 4.28905 8.75152 4.28905 9.51924C4.28905 10.272 4.90404 10.8721 5.6247 10.8721L10.0531 10.8721L11.522 10.7538L10.7329 11.1756L9.61914 12.2314C9.37852 12.4576 9.23325 12.7568 9.23325 13.1013C9.23325 13.6854 9.68289 14.2493 10.3318 14.2493C10.6809 14.2493 10.9141 14.1189 11.1449 13.8955L14.2935 10.62C14.6404 10.2582 14.761 9.88846 14.761 9.51924C14.761 9.14772 14.6404 8.78027 14.2935 8.41851L11.1449 5.13551C10.9141 4.91211 10.6809 4.78176 10.3318 4.78176C9.68289 4.78176 9.23325 5.35538 9.23325 5.93944Z"
                     fill="currentColor" fill-opacity="0.85" />
       </g>
</svg>