<?xml version="1.0" encoding="UTF-8"?>
<!--Generator: Apple Native CoreSVG 326-->
<!DOCTYPE svg PUBLIC "-//W3C//DTD SVG 1.1//EN" "http://www.w3.org/Graphics/SVG/1.1/DTD/svg11.dtd">
<svg version="1.1" xmlns="http://www.w3.org/2000/svg" xmlns:xlink="http://www.w3.org/1999/xlink"
       viewBox="0 0 19.3993 19.0529">
       <g>
              <rect height="19.0529" opacity="0" width="19.3993" x="0" y="0" />
              <path d="M3.64834 19.0379L15.3896 19.0379C17.7164 19.0379 19.0379 17.7262 19.0379 15.4011L19.0379 3.63912C19.0379 1.32151 17.7164 0 15.3896 0L3.64834 0C1.32382 0 0 1.32151 0 3.63912L0 15.4011C0 17.7262 1.32382 19.0379 3.64834 19.0379ZM4.05583 16.0183C3.37024 16.0183 3.01964 15.7096 3.01964 14.9775L3.01964 4.07021C3.01964 3.33809 3.37024 3.0271 4.05583 3.0271L14.9821 3.0271C15.6654 3.0271 16.0183 3.33809 16.0183 4.07021L16.0183 14.9775C16.0183 15.7096 15.6654 16.0183 14.9821 16.0183Z"
                     fill="currentColor" fill-opacity="0.85" />
              <path d="M13.4889 9.78037C13.9892 9.78037 14.3987 9.38064 14.3987 8.87295L14.3987 5.87739C14.3987 5.07509 13.9691 4.63412 13.1554 4.63412L10.1644 4.63412C9.66421 4.63412 9.25472 5.05107 9.25472 5.5513C9.25472 6.059 9.66421 6.45872 10.1644 6.45872L10.4863 6.45872L11.3836 6.30138L9.81815 7.7146C9.37828 8.09995 9.40581 8.79483 9.81585 9.21232C10.2356 9.62466 10.9259 9.64935 11.3159 9.21002L12.7389 7.6423L12.5741 8.53619L12.5741 8.87295C12.5741 9.38064 12.9887 9.78037 13.4889 9.78037ZM8.83334 14.4285C9.33357 14.4285 9.74822 14.019 9.74822 13.5113C9.74822 13.0036 9.33357 12.6039 8.83334 12.6039L8.51896 12.6039L7.61422 12.7687L9.17732 11.3555C9.6172 10.9627 9.59712 10.2753 9.18709 9.8503C8.76213 9.43796 8.06956 9.42074 7.68191 9.85261L6.25892 11.4278L6.42372 10.5339L6.42372 10.1971C6.42372 9.68198 6.01423 9.28226 5.50654 9.28226C5.00631 9.28226 4.59913 9.68198 4.59913 10.1971L4.59913 13.1927C4.59913 13.995 5.02639 14.4285 5.84009 14.4285Z"
                     fill="currentColor" fill-opacity="0.85" />
       </g>
</svg>