<?xml version="1.0" encoding="UTF-8"?>
<!--Generator: Apple Native CoreSVG 326-->
<!DOCTYPE svg PUBLIC "-//W3C//DTD SVG 1.1//EN" "http://www.w3.org/Graphics/SVG/1.1/DTD/svg11.dtd">
<svg version="1.1" xmlns="http://www.w3.org/2000/svg" xmlns:xlink="http://www.w3.org/1999/xlink"
       viewBox="0 0 21.365 21.006">
       <g>
              <rect height="21.006" opacity="0" width="21.365" x="0" y="0" />
              <path d="M10.4981 20.9962C16.302 20.9962 21.0037 16.2946 21.0037 10.4981C21.0037 4.70163 16.302 0 10.4981 0C4.70163 0 0 4.70163 0 10.4981C0 16.2946 4.70163 20.9962 10.4981 20.9962ZM10.4981 17.9484C6.37829 17.9484 3.04785 14.6179 3.04785 10.4981C3.04785 6.37829 6.37829 3.04785 10.4981 3.04785C14.6179 3.04785 17.9558 6.37829 17.9558 10.4981C17.9558 14.6179 14.6179 17.9484 10.4981 17.9484Z"
                     fill="currentColor" fill-opacity="0.85" />
              <path d="M16.1755 10.5056C16.1755 10.2626 16.0773 9.99788 15.867 9.80257L11.9266 6.17006C11.5786 5.85416 11.3356 5.73182 11.0221 5.73182C10.4943 5.73182 10.1038 6.13439 10.1038 6.65009L10.1038 8.1546L6.61485 8.1546C5.71653 8.1546 5.19271 8.68874 5.19271 9.58475L5.19271 11.466C5.19271 12.3672 5.71653 12.8789 6.61485 12.8789L10.1038 12.8789L10.1038 14.3657C10.1038 14.8837 10.4943 15.2793 11.0174 15.2793C11.3483 15.2793 11.6153 15.1495 11.9266 14.8503L15.867 11.2063C16.0698 11.0184 16.1755 10.7313 16.1755 10.5056Z"
                     fill="currentColor" fill-opacity="0.85" />
       </g>
</svg>