<?xml version="1.0" encoding="UTF-8"?>
<!--Generator: Apple Native CoreSVG 326-->
<!DOCTYPE svg PUBLIC "-//W3C//DTD SVG 1.1//EN" "http://www.w3.org/Graphics/SVG/1.1/DTD/svg11.dtd">
<svg version="1.1" xmlns="http://www.w3.org/2000/svg" xmlns:xlink="http://www.w3.org/1999/xlink"
       viewBox="0 0 23.8214 19.0529">
       <g>
              <rect height="19.0529" opacity="0" width="23.8214" x="0" y="0" />
              <path d="M23.4601 3.65404L23.4601 15.416C23.4601 17.7336 22.1386 19.0529 19.8117 19.0529L3.64834 19.0529C1.32382 19.0529 0 17.7336 0 15.416L0 3.65404C0 1.32897 1.32382 0.0149214 3.64834 0.0149214L19.8117 0.0149214C22.1386 0.0149214 23.4601 1.32897 23.4601 3.65404ZM6.04183 7.68118C5.35442 7.68118 4.90993 8.04875 4.90993 8.65234C4.90993 9.2657 5.34926 9.64073 6.02406 9.64073L7.14419 9.64073L8.0937 9.49941L6.9467 10.4793L4.47891 12.9373C4.25035 13.1733 4.11539 13.4903 4.11539 13.7826C4.11539 14.4804 4.63219 14.9375 5.28284 14.9375C5.60905 14.9375 5.89159 14.8197 6.1649 14.5464L8.59309 12.1257L9.57068 10.9833L9.44658 11.9788L9.44658 13.0208C9.44658 13.6933 9.82907 14.1401 10.4424 14.1401C11.0386 14.1401 11.4159 13.6938 11.4159 13.0311L11.4159 9.04097C11.4159 8.16176 10.8973 7.68118 10.0366 7.68118Z"
                     fill="currentColor" fill-opacity="0.85" />
       </g>
</svg>