<?xml version="1.0" encoding="UTF-8"?>
<!--Generator: Apple Native CoreSVG 326-->
<!DOCTYPE svg PUBLIC "-//W3C//DTD SVG 1.1//EN" "http://www.w3.org/Graphics/SVG/1.1/DTD/svg11.dtd">
<svg version="1.1" xmlns="http://www.w3.org/2000/svg" xmlns:xlink="http://www.w3.org/1999/xlink"
       viewBox="0 0 21.365 21.006">
       <g>
              <rect height="21.006" opacity="0" width="21.365" x="0" y="0" />
              <path d="M21.0037 10.4981C21.0037 16.2923 16.302 20.9962 10.4981 20.9962C4.70394 20.9962 0 16.2923 0 10.4981C0 4.70163 4.70394 0 10.4981 0C16.302 0 21.0037 4.70163 21.0037 10.4981ZM8.88162 6.11207L5.73072 9.39508C5.38389 9.75683 5.26331 10.1243 5.26331 10.4958C5.26331 10.865 5.38389 11.2348 5.73072 11.5965L8.88162 14.8721C9.11018 15.0955 9.34334 15.2258 9.69248 15.2258C10.3414 15.2258 10.7933 14.662 10.7933 14.0779C10.7933 13.7334 10.6481 13.4342 10.4149 13.2079L9.29136 12.1522L8.50222 11.7304L9.97113 11.8487L14.3996 11.8487C15.1202 11.8487 15.7427 11.2486 15.7427 10.4958C15.7427 9.72808 15.1202 9.13316 14.3996 9.13316L9.97113 9.13316L8.50453 9.26121L9.29136 8.83941L10.4149 7.78369C10.6481 7.55744 10.7933 7.25307 10.7933 6.916C10.7933 6.33195 10.3414 5.75832 9.69248 5.75832C9.34334 5.75832 9.11018 5.88867 8.88162 6.11207Z"
                     fill="currentColor" fill-opacity="0.85" />
       </g>
</svg>