<?xml version="1.0" encoding="UTF-8"?>
<!--Generator: Apple Native CoreSVG 326-->
<!DOCTYPE svg PUBLIC "-//W3C//DTD SVG 1.1//EN" "http://www.w3.org/Graphics/SVG/1.1/DTD/svg11.dtd">
<svg version="1.1" xmlns="http://www.w3.org/2000/svg" xmlns:xlink="http://www.w3.org/1999/xlink"
       viewBox="0 0 20.1257 19.401">
       <g>
              <rect height="19.401" opacity="0" width="20.1257" x="0" y="0" />
              <path d="M18.1879 9.36991C19.1009 9.36991 19.74 8.68316 19.74 7.7627C19.7377 6.8474 19.1009 6.1578 18.1879 6.1578L17.6511 6.1578L15.6208 6.38296L17.0576 5.04561L19.2769 2.8361C19.5795 2.53348 19.7644 2.16251 19.7644 1.74447C19.7644 0.757413 19.0931 0.0505871 18.1135 0.0505871C17.6754 0.0505871 17.2665 0.213085 16.9662 0.515698L14.7665 2.73728L13.4194 4.16658L13.6445 2.19083L13.6445 1.87785C13.6445 0.964855 12.9526 0.328026 12.0419 0.328026C11.1266 0.328026 10.4324 0.96716 10.4324 1.87785L10.4324 6.99704C10.4324 8.493 11.2996 9.36991 12.803 9.36991ZM7.73856 19.1328C8.6464 19.1328 9.34807 18.496 9.34807 17.583L9.34807 12.4384C9.34807 10.9425 8.47347 10.0753 6.97751 10.0753L1.56723 10.0753C0.654235 10.0753 0.0151014 10.7598 0.0151014 11.6825C0.0174063 12.5955 0.654235 13.2851 1.56723 13.2851L2.12939 13.2851L4.15221 13.0525L2.72291 14.3899L0.482337 16.623C0.187185 16.9181 0 17.2891 0 17.7146C0 18.6942 0.671281 19.401 1.65318 19.401C2.08154 19.401 2.49266 19.246 2.80043 18.9359L5.01401 16.708L6.36112 15.2712L6.13596 17.2521L6.13596 17.583C6.13596 18.4983 6.82787 19.1328 7.73856 19.1328Z"
                     fill="currentColor" fill-opacity="0.85" />
       </g>
</svg>