<?xml version="1.0" encoding="UTF-8"?>
<!--Generator: Apple Native CoreSVG 326-->
<!DOCTYPE svg PUBLIC "-//W3C//DTD SVG 1.1//EN" "http://www.w3.org/Graphics/SVG/1.1/DTD/svg11.dtd">
<svg version="1.1" xmlns="http://www.w3.org/2000/svg" xmlns:xlink="http://www.w3.org/1999/xlink"
       viewBox="0 0 22.0894 18.9897">
       <g>
              <rect height="18.9897" opacity="0" width="22.0894" x="0" y="0" />
              <path d="M11.8172 18.9897C12.4971 18.9897 13.0221 18.7272 13.6624 18.1311L21.4719 10.9079C21.8803 10.5265 22.0894 9.96142 22.0894 9.49741C22.0894 9.00124 21.8901 8.47577 21.4794 8.09206L13.6624 0.885033C12.9583 0.240077 12.4719 0.0051558 11.8218 0.0051558C10.7801 0.0051558 9.97846 0.818312 9.97846 1.8531L9.97846 4.74621L9.86686 4.74621C3.9048 4.74621 0.609412 8.61401 0.609412 15.3235C0.609412 17.6629 1.25206 18.8181 2.40611 18.8181C3.19676 18.8181 3.78773 18.4817 4.2862 17.5135C5.32888 15.6257 6.90078 14.318 9.86686 14.318L9.97846 14.318L9.97846 17.1607C9.97846 18.1955 10.7801 18.9897 11.8172 18.9897Z"
                     fill="currentColor" fill-opacity="0.85" />
       </g>
</svg>