<?xml version="1.0" encoding="UTF-8"?>
<!--Generator: Apple Native CoreSVG 326-->
<!DOCTYPE svg PUBLIC "-//W3C//DTD SVG 1.1//EN" "http://www.w3.org/Graphics/SVG/1.1/DTD/svg11.dtd">
<svg version="1.1" xmlns="http://www.w3.org/2000/svg" xmlns:xlink="http://www.w3.org/1999/xlink"
       viewBox="0 0 21.365 21.006">
       <g>
              <rect height="21.006" opacity="0" width="21.365" x="0" y="0" />
              <path d="M21.0037 10.4981C21.0037 16.2923 16.302 20.9962 10.4981 20.9962C4.70394 20.9962 0 16.2923 0 10.4981C0 4.70163 4.70394 0 10.4981 0C16.302 0 21.0037 4.70163 21.0037 10.4981ZM12.4248 6.5548L9.42213 9.55236L8.32517 10.844L8.46419 9.7268L8.46419 8.528C8.46419 7.71891 8.02201 7.20727 7.3042 7.20727C6.60363 7.20727 6.15914 7.71836 6.15914 8.51023L6.15914 13.1444C6.15914 14.1803 6.76722 14.7579 7.79212 14.7579L12.4309 14.7579C13.2452 14.7579 13.7643 14.3157 13.7643 13.5979C13.7643 12.8898 13.2503 12.4477 12.4487 12.4477L11.1471 12.4477L10.0857 12.6114L11.3819 11.5098L14.4265 8.47723C14.6998 8.20392 14.8572 7.82724 14.8572 7.46033C14.8572 6.65069 14.2336 6.10406 13.4883 6.10406C13.0949 6.10406 12.7504 6.23672 12.4248 6.5548Z"
                     fill="currentColor" fill-opacity="0.85" />
       </g>
</svg>