<?xml version="1.0" encoding="UTF-8"?>
<!--Generator: Apple Native CoreSVG 326-->
<!DOCTYPE svg PUBLIC "-//W3C//DTD SVG 1.1//EN" "http://www.w3.org/Graphics/SVG/1.1/DTD/svg11.dtd">
<svg version="1.1" xmlns="http://www.w3.org/2000/svg" xmlns:xlink="http://www.w3.org/1999/xlink"
       viewBox="0 0 21.365 21.006">
       <g>
              <rect height="21.006" opacity="0" width="21.365" x="0" y="0" />
              <path d="M10.4981 20.9962C16.302 20.9962 21.0037 16.2946 21.0037 10.4981C21.0037 4.70163 16.302 0 10.4981 0C4.70163 0 0 4.70163 0 10.4981C0 16.2946 4.70163 20.9962 10.4981 20.9962ZM10.4981 17.9484C6.37829 17.9484 3.04785 14.6179 3.04785 10.4981C3.04785 6.37829 6.37829 3.04785 10.4981 3.04785C14.6179 3.04785 17.9558 6.37829 17.9558 10.4981C17.9558 14.6179 14.6179 17.9484 10.4981 17.9484Z"
                     fill="currentColor" fill-opacity="0.85" />
              <path d="M6.08732 7.22135C5.75881 7.54986 5.76857 8.0513 6.08732 8.36259L8.42889 10.6381C8.57076 10.7754 8.77639 10.8684 8.98486 10.8684C9.4208 10.8684 9.73669 10.5548 9.73669 10.1114C9.73669 9.91326 9.66833 9.71225 9.5213 9.57268L8.56822 8.67127L8.45649 8.56646L8.98262 8.57337L14.3805 8.57337C14.8164 8.57337 15.157 8.23794 15.157 7.79455C15.157 7.35861 14.8187 7.02779 14.3805 7.02779L8.98492 7.02779L8.45879 7.0301L8.56822 6.9299L9.5213 6.02103C9.66833 5.88146 9.73669 5.69306 9.73669 5.48974C9.73669 5.03658 9.4208 4.72299 8.98486 4.72299C8.77639 4.72299 8.56846 4.82349 8.42889 4.95791ZM14.902 13.7921C15.2328 13.4762 15.2133 12.9714 14.902 12.6578L12.553 10.3823C12.4157 10.2427 12.2078 10.1422 12.0044 10.1422C11.5662 10.1422 11.2526 10.4632 11.2526 10.9066C11.2526 11.1123 11.3135 11.3058 11.4605 11.4454L12.4159 12.3542L12.5277 12.4516L12.0067 12.4447L6.60138 12.4447C6.16775 12.4447 5.83463 12.7755 5.83463 13.2212C5.83463 13.6571 6.16545 13.9903 6.60138 13.9903L11.9969 13.9903L12.5277 13.988L12.4159 14.0882L11.4703 15.0045C11.3158 15.1464 11.2526 15.3227 11.2526 15.5358C11.2526 15.9792 11.5708 16.2951 12.0044 16.2951C12.2032 16.2951 12.4111 16.202 12.553 16.0625Z"
                     fill="currentColor" fill-opacity="0.85" />
       </g>
</svg>