<?xml version="1.0" encoding="UTF-8"?>
<!--Generator: Apple Native CoreSVG 326-->
<!DOCTYPE svg PUBLIC "-//W3C//DTD SVG 1.1//EN" "http://www.w3.org/Graphics/SVG/1.1/DTD/svg11.dtd">
<svg version="1.1" xmlns="http://www.w3.org/2000/svg" xmlns:xlink="http://www.w3.org/1999/xlink"
       viewBox="0 0 21.365 21.006">
       <g>
              <rect height="21.006" opacity="0" width="21.365" x="0" y="0" />
              <path d="M10.4981 20.9962C16.302 20.9962 21.0037 16.2946 21.0037 10.4981C21.0037 4.70163 16.302 0 10.4981 0C4.70163 0 0 4.70163 0 10.4981C0 16.2946 4.70163 20.9962 10.4981 20.9962ZM10.4981 17.9484C6.37829 17.9484 3.04785 14.6179 3.04785 10.4981C3.04785 6.37829 6.37829 3.04785 10.4981 3.04785C14.6179 3.04785 17.9558 6.37829 17.9558 10.4981C17.9558 14.6179 14.6179 17.9484 10.4981 17.9484Z"
                     fill="currentColor" fill-opacity="0.85" />
              <path d="M6.47849 10.7569C6.98618 10.7569 7.39567 10.3572 7.39567 9.84951L7.39567 9.51275L7.22857 8.61887L8.65386 10.1866C9.04151 10.6259 9.73409 10.6012 10.159 10.1889C10.5691 9.77139 10.5892 9.07651 10.1567 8.69116L8.58617 7.27794L9.49092 7.43528L9.8053 7.43528C10.313 7.43528 10.7202 7.03556 10.7202 6.52787C10.7202 6.02764 10.313 5.61069 9.8053 5.61069L6.81204 5.61069C6.0058 5.61069 5.57108 6.05166 5.57108 6.85395L5.57108 9.84951C5.57108 10.3572 5.97826 10.7569 6.47849 10.7569ZM11.1364 15.4051L14.1273 15.4051C14.941 15.4051 15.3781 14.9716 15.3781 14.1693L15.3781 11.1737C15.3781 10.6585 14.9611 10.2588 14.4609 10.2588C13.9607 10.2588 13.5535 10.6585 13.5535 11.1737L13.5535 11.5105L13.7108 12.4043L12.2878 10.8292C11.8979 10.3973 11.2076 10.4145 10.7878 10.8269C10.3778 11.2518 10.3502 11.9392 10.7901 12.332L12.3555 13.7453L11.4582 13.5805L11.1364 13.5805C10.6362 13.5805 10.2267 13.9802 10.2267 14.4879C10.2267 14.9956 10.6362 15.4051 11.1364 15.4051Z"
                     fill="currentColor" fill-opacity="0.85" />
       </g>
</svg>