<?xml version="1.0" encoding="UTF-8"?>
<!--Generator: Apple Native CoreSVG 326-->
<!DOCTYPE svg PUBLIC "-//W3C//DTD SVG 1.1//EN" "http://www.w3.org/Graphics/SVG/1.1/DTD/svg11.dtd">
<svg version="1.1" xmlns="http://www.w3.org/2000/svg" xmlns:xlink="http://www.w3.org/1999/xlink"
       viewBox="0 0 16.0535 15.6968">
       <g>
              <rect height="15.6968" opacity="0" width="16.0535" x="0" y="0" />
              <path d="M15.6847 4.18897C15.6847 3.21914 14.944 2.45548 14.0276 2.45548C13.1238 2.45548 12.4399 3.20367 12.4399 4.18721L12.4399 7.96978L12.5485 10.3145L11.064 8.66969L2.97828 0.591397C2.60106 0.221637 2.16985 0.0143754 1.7065 0.0143754C0.8228 0.0143754 0 0.844091 0 1.72318C0 2.17446 0.217028 2.61774 0.579327 2.99496L8.65301 11.0784L10.3053 12.5531L7.9047 12.4491L4.17053 12.4491C3.19676 12.4491 2.43364 13.1479 2.43364 14.0419C2.43364 14.9583 3.18523 15.6968 4.17229 15.6968L13.9219 15.6968C14.9853 15.6968 15.6898 14.9802 15.6898 13.9386Z"
                     fill="currentColor" fill-opacity="0.85" />
       </g>
</svg>