<?xml version="1.0" encoding="UTF-8"?>
<!--Generator: Apple Native CoreSVG 326-->
<!DOCTYPE svg PUBLIC "-//W3C//DTD SVG 1.1//EN" "http://www.w3.org/Graphics/SVG/1.1/DTD/svg11.dtd">
<svg version="1.1" xmlns="http://www.w3.org/2000/svg" xmlns:xlink="http://www.w3.org/1999/xlink"
       viewBox="0 0 23.8214 19.0529">
       <g>
              <rect height="19.0529" opacity="0" width="23.8214" x="0" y="0" />
              <path d="M23.4601 3.65404L23.4601 15.416C23.4601 17.7336 22.1386 19.0529 19.8117 19.0529L3.64834 19.0529C1.32382 19.0529 0 17.7336 0 15.416L0 3.65404C0 1.32897 1.32382 0.0149214 3.64834 0.0149214L19.8117 0.0149214C22.1386 0.0149214 23.4601 1.32897 23.4601 3.65404ZM13.3491 9.32726C12.5699 9.32726 12.0984 9.77054 12.0984 10.5608L12.0984 14.0705C12.0984 14.5794 12.4734 14.9763 12.9852 14.9763C13.4797 14.9763 13.8599 14.584 13.8599 14.0751L13.8599 13.2148L13.7875 12.1628L14.6197 13.247L16.158 14.7853C16.4164 15.0414 16.6966 15.1516 16.9757 15.1516C17.53 15.1516 17.9745 14.7192 17.9745 14.1604C17.9745 13.8979 17.8596 13.628 17.6282 13.3943L16.0428 11.8164L14.954 10.9865L15.9578 11.0911L16.8836 11.0911C17.3948 11.0911 17.7893 10.7011 17.7893 10.2066C17.7893 9.7023 17.3948 9.32726 16.8882 9.32726ZM5.48792 4.90223C5.48792 5.16468 5.6028 5.4323 5.8342 5.66601L7.41727 7.24622L8.5061 8.07611L7.5023 7.979L6.57651 7.979C6.0653 7.979 5.67304 8.3615 5.67304 8.86349C5.67304 9.36032 6.0653 9.74282 6.5719 9.74282L10.1132 9.74282C10.8925 9.74282 11.3617 9.28978 11.3617 8.50186L11.3617 4.99212C11.3617 4.48321 10.9866 4.08404 10.4749 4.08404C9.98035 4.08404 9.60016 4.4786 9.60016 4.98751L9.60016 5.84779L9.67258 6.90503L8.84038 5.81564L7.30208 4.27504C7.04369 4.01895 6.76346 3.90868 6.48432 3.90868C5.9301 3.90868 5.48792 4.3434 5.48792 4.90223Z"
                     fill="currentColor" fill-opacity="0.85" />
       </g>
</svg>