<?xml version="1.0" encoding="UTF-8"?>
<!--Generator: Apple Native CoreSVG 326-->
<!DOCTYPE svg PUBLIC "-//W3C//DTD SVG 1.1//EN" "http://www.w3.org/Graphics/SVG/1.1/DTD/svg11.dtd">
<svg version="1.1" xmlns="http://www.w3.org/2000/svg" xmlns:xlink="http://www.w3.org/1999/xlink"
       viewBox="0 0 19.3993 19.0529">
       <g>
              <rect height="19.0529" opacity="0" width="19.3993" x="0" y="0" />
              <path d="M3.64834 19.0379L15.3896 19.0379C17.7164 19.0379 19.0379 17.7262 19.0379 15.4011L19.0379 3.63912C19.0379 1.32151 17.7164 0 15.3896 0L3.64834 0C1.32382 0 0 1.32151 0 3.63912L0 15.4011C0 17.7262 1.32382 19.0379 3.64834 19.0379ZM4.05583 16.0183C3.37024 16.0183 3.01964 15.7096 3.01964 14.9775L3.01964 4.07021C3.01964 3.33809 3.37024 3.0271 4.05583 3.0271L14.9821 3.0271C15.6654 3.0271 16.0183 3.33809 16.0183 4.07021L16.0183 14.9775C16.0183 15.7096 15.6654 16.0183 14.9821 16.0183Z"
                     fill="currentColor" fill-opacity="0.85" />
              <path d="M6.52459 12.4731C7.19302 12.4731 7.60306 11.9913 7.60306 11.2414L7.60306 10.104L7.47149 9.05808L8.50471 10.271L11.33 13.0889C11.6332 13.3822 11.9507 13.5074 12.3119 13.5074C13.0102 13.5074 13.6016 13.0004 13.6016 12.2401C13.6016 11.9031 13.4517 11.5586 13.1956 11.3025L10.3307 8.43756L9.11315 7.40204L10.1108 7.55829L11.3435 7.55829C12.0883 7.55829 12.5627 7.14826 12.5627 6.47983C12.5627 5.8114 12.0757 5.40136 11.3258 5.40136L6.9729 5.40136C6.01975 5.40136 5.44613 5.94678 5.44613 6.91091L5.44613 11.2517C5.44613 11.9844 5.85616 12.4731 6.52459 12.4731Z"
                     fill="currentColor" fill-opacity="0.85" />
       </g>
</svg>