<?xml version="1.0" encoding="UTF-8"?>
<!--Generator: Apple Native CoreSVG 326-->
<!DOCTYPE svg PUBLIC "-//W3C//DTD SVG 1.1//EN" "http://www.w3.org/Graphics/SVG/1.1/DTD/svg11.dtd">
<svg version="1.1" xmlns="http://www.w3.org/2000/svg" xmlns:xlink="http://www.w3.org/1999/xlink"
       viewBox="0 0 34.5175 21.5287">
       <g>
              <rect height="21.5287" opacity="0" width="34.5175" x="0" y="0" />
              <path d="M0.995416 12.4588L8.79833 17.184C10.1364 17.9966 11.7185 17.2903 11.7185 15.6289L11.7185 5.9096C11.7185 4.26254 10.1709 3.52697 8.79833 4.3568L0.995416 9.08203C-0.326644 9.87917-0.336956 11.6467 0.995416 12.4588ZM3.05499 10.8624C2.97566 10.817 2.94745 10.7279 3.05499 10.6686L9.04071 7.03368C9.11599 6.9877 9.22584 7.01063 9.22584 7.12509L9.22584 14.4157C9.22584 14.533 9.11314 14.5554 9.04071 14.5071ZM17.0818 21.5287C17.776 21.5287 18.3491 21.0544 18.3491 20.3154L18.3491 1.22307C18.3491 0.499018 17.7537 0.0120705 17.0818 0.0120705C16.4249 0.0120705 15.8094 0.506479 15.8094 1.22307L15.8094 20.3154C15.8094 21.0469 16.41 21.5287 17.0818 21.5287ZM25.3579 17.184L33.1631 12.4588C34.4932 11.6467 34.4828 9.87917 33.1631 9.08203L25.3579 4.3568C23.9853 3.52697 22.4377 4.26254 22.4377 5.9096L22.4377 15.6289C22.4377 17.2903 24.0198 17.9966 25.3579 17.184ZM25.1155 14.5071C25.0505 14.5531 24.9304 14.533 24.9304 14.4157L24.9304 7.12509C24.9304 7.01063 25.0477 6.9877 25.1155 7.03368L31.1012 10.6686C31.2088 10.7279 31.1829 10.8193 31.1012 10.8624Z"
                     fill="currentColor" fill-opacity="0.85" />
       </g>
</svg>