<?xml version="1.0" encoding="UTF-8"?>
<!--Generator: Apple Native CoreSVG 326-->
<!DOCTYPE svg PUBLIC "-//W3C//DTD SVG 1.1//EN" "http://www.w3.org/Graphics/SVG/1.1/DTD/svg11.dtd">
<svg version="1.1" xmlns="http://www.w3.org/2000/svg" xmlns:xlink="http://www.w3.org/1999/xlink"
       viewBox="0 0 19.3993 19.0529">
       <g>
              <rect height="19.0529" opacity="0" width="19.3993" x="0" y="0" />
              <path d="M3.64834 19.0379L15.3896 19.0379C17.7164 19.0379 19.0379 17.7262 19.0379 15.4011L19.0379 3.63912C19.0379 1.32151 17.7164 0 15.3896 0L3.64834 0C1.32382 0 0 1.32151 0 3.63912L0 15.4011C0 17.7262 1.32382 19.0379 3.64834 19.0379ZM4.05583 16.0183C3.37024 16.0183 3.01964 15.7096 3.01964 14.9775L3.01964 4.07021C3.01964 3.33809 3.37024 3.0271 4.05583 3.0271L14.9821 3.0271C15.6654 3.0271 16.0183 3.33809 16.0183 4.07021L16.0183 14.9775C16.0183 15.7096 15.6654 16.0183 14.9821 16.0183Z"
                     fill="currentColor" fill-opacity="0.85" />
              <path d="M12.5283 6.43567C11.8673 6.43567 11.4498 6.92262 11.4498 7.66741L11.4498 8.80477L11.5888 9.85072L10.5556 8.63779L7.73031 5.81995C7.422 5.52656 7.10216 5.40136 6.74095 5.40136C6.04268 5.40136 5.45359 5.90839 5.45359 6.66865C5.45359 7.00572 5.60862 7.3577 5.85725 7.60633L8.72216 10.4689L9.93971 11.5068L8.94204 11.3505L7.70932 11.3505C6.97199 11.3505 6.4902 11.7605 6.4902 12.429C6.4902 13.0974 6.97715 13.5074 7.7271 13.5074L12.08 13.5074C13.0406 13.5074 13.609 12.9695 13.609 11.9979L13.609 7.6571C13.609 6.92207 13.1967 6.43567 12.5283 6.43567Z"
                     fill="currentColor" fill-opacity="0.85" />
       </g>
</svg>