<?xml version="1.0" encoding="UTF-8"?>
<!--Generator: Apple Native CoreSVG 326-->
<!DOCTYPE svg PUBLIC "-//W3C//DTD SVG 1.1//EN" "http://www.w3.org/Graphics/SVG/1.1/DTD/svg11.dtd">
<svg version="1.1" xmlns="http://www.w3.org/2000/svg" xmlns:xlink="http://www.w3.org/1999/xlink"
       viewBox="0 0 24.3493 21.006">
       <g>
              <rect height="21.006" opacity="0" width="24.3493" x="0" y="0" />
              <path d="M11.9903 0C9.64251 0 7.49358 0.799506 5.80171 2.11683C4.95367 2.7055 4.97102 3.69947 5.45402 4.31895C5.89336 4.8816 6.70124 5.1548 7.63364 4.55121C8.82135 3.60782 10.3397 3.04785 11.9903 3.04785C15.4042 3.04785 18.2763 5.33701 19.1505 8.45922L18.1168 8.45922C17.3115 8.45922 17.1208 9.21893 17.5441 9.78589L20.0748 13.0876C20.3798 13.4846 20.9232 13.4944 21.2231 13.0876L23.7612 9.78819C24.2018 9.21893 23.9938 8.45922 23.1737 8.45922L22.2897 8.45922C21.3563 3.63566 17.0958 0 11.9903 0ZM11.9903 20.9962C14.338 20.9962 16.4944 20.1967 18.1863 18.8794C19.0343 18.281 19.017 17.2967 18.534 16.675C18.0946 16.1146 17.2867 15.834 16.3543 16.4427C15.1666 17.3786 13.6483 17.9484 11.9903 17.9484C8.58375 17.9484 5.71163 15.6592 4.83746 12.5295L5.87122 12.5295C6.67649 12.5295 6.86719 11.775 6.44387 11.2103L3.91318 7.90628C3.60814 7.50413 3.06478 7.50182 2.7649 7.90628L0.226744 11.208C-0.213801 11.775-0.00817724 12.5295 0.806858 12.5295L1.69832 12.5295C2.63163 17.3531 6.89218 20.9962 11.9903 20.9962Z"
                     fill="currentColor" fill-opacity="0.85" />
       </g>
</svg>