<?xml version="1.0" encoding="UTF-8"?>
<!--Generator: Apple Native CoreSVG 326-->
<!DOCTYPE svg PUBLIC "-//W3C//DTD SVG 1.1//EN" "http://www.w3.org/Graphics/SVG/1.1/DTD/svg11.dtd">
<svg version="1.1" xmlns="http://www.w3.org/2000/svg" xmlns:xlink="http://www.w3.org/1999/xlink"
       viewBox="0 0 15.6373 18.4553">
       <g>
              <rect height="18.4553" opacity="0" width="15.6373" x="0" y="0" />
              <path d="M7.63538 0C6.61048 0 5.9358 0.711982 5.9358 1.78681L5.9358 8.37484L6.10345 10.3252L4.57408 8.57234L3.15503 7.17513C2.83234 6.85474 2.45851 6.61763 1.93317 6.61763C1.01732 6.61763 0.32257 7.28716 0.32257 8.30515C0.32257 8.70366 0.502294 9.14232 0.851976 9.4817L6.38423 14.723C6.69661 15.0227 7.13758 15.2346 7.63538 15.2346C8.13835 15.2346 8.57416 15.0227 8.88654 14.723L14.4239 9.4817C14.7834 9.14232 14.9631 8.70366 14.9631 8.30515C14.9631 7.28716 14.2661 6.61763 13.3525 6.61763C12.8272 6.61763 12.4361 6.86966 12.1307 7.17513L10.7042 8.57234L9.16732 10.3229L9.34013 8.37484L9.34013 1.78681C9.34013 0.711982 8.65799 0 7.63538 0ZM1.61576 15.2076C0.707372 15.2076 0 15.9345 0 16.8303C0 17.7335 0.707372 18.4553 1.61576 18.4553L13.6481 18.4553C14.5588 18.4553 15.2759 17.7335 15.2759 16.8303C15.2759 15.9345 14.5588 15.2076 13.6481 15.2076Z"
                     fill="currentColor" fill-opacity="0.85" />
       </g>
</svg>