<?xml version="1.0" encoding="UTF-8"?>
<!--Generator: Apple Native CoreSVG 326-->
<!DOCTYPE svg PUBLIC "-//W3C//DTD SVG 1.1//EN" "http://www.w3.org/Graphics/SVG/1.1/DTD/svg11.dtd">
<svg version="1.1" xmlns="http://www.w3.org/2000/svg" xmlns:xlink="http://www.w3.org/1999/xlink"
       viewBox="0 0 20.1257 19.401">
       <g>
              <rect height="19.401" opacity="0" width="20.1257" x="0" y="0" />
              <path d="M1.57876 9.36991L6.96137 9.36991C8.45734 9.36991 9.33194 8.493 9.33194 6.99704L9.33194 1.87785C9.33194 0.96716 8.63027 0.328026 7.72473 0.328026C6.81173 0.328026 6.11983 0.964855 6.11983 1.87785L6.11983 2.19083L6.34729 4.16658L5.00018 2.73728L2.80043 0.515698C2.49266 0.213085 2.08154 0.0505871 1.65318 0.0505871C0.671281 0.0505871 0 0.757413 0 1.74447C0 2.16251 0.187185 2.53348 0.482337 2.8361L2.70678 5.04561L4.13607 6.38296L2.11556 6.1578L1.57876 6.1578C0.665759 6.1578 0.026626 6.8474 0.026626 7.7627C0.026626 8.68316 0.663455 9.36991 1.57876 9.36991ZM12.0258 19.1328C12.9388 19.1328 13.6307 18.4983 13.6307 17.583L13.6307 17.2521L13.4032 15.2712L14.7503 16.708L16.9662 18.9359C17.2665 19.246 17.6754 19.401 18.1135 19.401C19.0931 19.401 19.7644 18.6942 19.7644 17.7146C19.7644 17.2891 19.5795 16.9181 19.2769 16.623L17.0437 14.3899L15.6047 13.0525L17.635 13.2851L18.1971 13.2851C19.1101 13.2851 19.7493 12.5955 19.7493 11.6825C19.7493 10.7598 19.1124 10.0753 18.1971 10.0753L12.7891 10.0753C11.2857 10.0753 10.4186 10.9425 10.4186 12.4384L10.4186 17.583C10.4186 18.496 11.1105 19.1328 12.0258 19.1328Z"
                     fill="currentColor" fill-opacity="0.85" />
       </g>
</svg>