<?xml version="1.0" encoding="UTF-8"?>
<!--Generator: Apple Native CoreSVG 326-->
<!DOCTYPE svg PUBLIC "-//W3C//DTD SVG 1.1//EN" "http://www.w3.org/Graphics/SVG/1.1/DTD/svg11.dtd">
<svg version="1.1" xmlns="http://www.w3.org/2000/svg" xmlns:xlink="http://www.w3.org/1999/xlink"
       viewBox="0 0 19.3993 19.0529">
       <g>
              <rect height="19.0529" opacity="0" width="19.3993" x="0" y="0" />
              <path d="M3.64834 19.0379L15.3896 19.0379C17.7164 19.0379 19.0379 17.7262 19.0379 15.4011L19.0379 3.63912C19.0379 1.32151 17.7164 0 15.3896 0L3.64834 0C1.32382 0 0 1.32151 0 3.63912L0 15.4011C0 17.7262 1.32382 19.0379 3.64834 19.0379ZM4.05583 16.0183C3.37024 16.0183 3.01964 15.7096 3.01964 14.9775L3.01964 4.07021C3.01964 3.33809 3.37024 3.0271 4.05583 3.0271L14.9821 3.0271C15.6654 3.0271 16.0183 3.33809 16.0183 4.07021L16.0183 14.9775C16.0183 15.7096 15.6654 16.0183 14.9821 16.0183Z"
                     fill="currentColor" fill-opacity="0.85" />
              <path d="M4.6169 9.51924C4.6169 9.85631 4.73002 10.2111 5.05217 10.5408L8.00842 13.6142C8.22205 13.8278 8.44545 13.9507 8.76244 13.9507C9.37173 13.9507 9.78922 13.419 9.78922 12.8746C9.78922 12.5547 9.65887 12.2727 9.43548 12.0614L8.38316 11.0694L7.63593 10.6649L9.01125 10.7757L13.1864 10.7757C13.8577 10.7757 14.4331 10.2227 14.4331 9.51924C14.4331 8.80089 13.8577 8.25305 13.1864 8.25305L9.01125 8.25305L7.63593 8.37363L8.38316 7.96905L9.43548 6.96963C9.65887 6.76576 9.78922 6.48607 9.78922 6.16624C9.78922 5.61433 9.37173 5.08777 8.76244 5.08777C8.44545 5.08777 8.22205 5.2032 8.00842 5.41683L5.05217 8.49773C4.73002 8.82734 4.6169 9.17241 4.6169 9.51924Z"
                     fill="currentColor" fill-opacity="0.85" />
       </g>
</svg>