<?xml version="1.0" encoding="UTF-8"?>
<!--Generator: Apple Native CoreSVG 326-->
<!DOCTYPE svg PUBLIC "-//W3C//DTD SVG 1.1//EN" "http://www.w3.org/Graphics/SVG/1.1/DTD/svg11.dtd">
<svg version="1.1" xmlns="http://www.w3.org/2000/svg" xmlns:xlink="http://www.w3.org/1999/xlink"
       viewBox="0 0 23.8214 19.0529">
       <g>
              <rect height="19.0529" opacity="0" width="23.8214" x="0" y="0" />
              <path d="M3.64834 19.0529L19.8117 19.0529C22.1386 19.0529 23.4601 17.7336 23.4601 15.416L23.4601 3.65404C23.4601 1.32897 22.1386 0.0149214 19.8117 0.0149214L3.64834 0.0149214C1.32382 0.0149214 0 1.32897 0 3.65404L0 15.416C0 17.7336 1.32382 19.0529 3.64834 19.0529ZM4.05583 16.0332C3.37024 16.0332 3.01964 15.7171 3.01964 14.985L3.01964 4.07767C3.01964 3.34555 3.37024 3.03457 4.05583 3.03457L19.4042 3.03457C20.0875 3.03457 20.4404 3.34555 20.4404 4.07767L20.4404 14.985C20.4404 15.7171 20.0875 16.0332 19.4042 16.0332Z"
                     fill="currentColor" fill-opacity="0.85" />
              <path d="M6.70256 9.55485C7.16494 9.55485 7.52275 9.19243 7.52275 8.71798L7.52275 7.89445L7.44802 6.91358L8.24116 7.93175L9.69563 9.38622C9.92934 9.61993 10.1923 9.72044 10.4543 9.72044C10.9763 9.72044 11.3864 9.3104 11.3864 8.80095C11.3864 8.55572 11.2738 8.29557 11.0648 8.08655L9.57298 6.59993L8.54274 5.81656L9.49025 5.9039L10.3667 5.9039C10.8434 5.9039 11.2035 5.54839 11.2035 5.07855C11.2035 4.60871 10.8434 4.2509 10.3713 4.2509L7.04411 4.2509C6.3217 4.2509 5.87721 4.67179 5.87721 5.41034L5.87721 8.71337C5.87721 9.18782 6.23271 9.55485 6.70256 9.55485ZM16.7575 9.50778C16.2951 9.50778 15.9396 9.86789 15.9396 10.3423L15.9396 11.1682L16.0046 12.1565L15.2189 11.1286L13.7667 9.6764C13.5307 9.44269 13.2677 9.34219 13.0058 9.34219C12.486 9.34219 12.0737 9.74992 12.0737 10.2691C12.0737 10.5069 12.1863 10.7671 12.3953 10.9835L13.8871 12.4627L14.9196 13.2535L13.9698 13.1564L13.0957 13.1564C12.6189 13.1564 12.2565 13.5142 12.2565 13.9841C12.2565 14.4539 12.6189 14.8094 13.0911 14.8094L16.416 14.8094C17.1384 14.8094 17.5852 14.3908 17.5852 13.6523L17.5852 10.3544C17.5852 9.87996 17.2274 9.50778 16.7575 9.50778Z"
                     fill="currentColor" fill-opacity="0.85" />
       </g>
</svg>