<?xml version="1.0" encoding="UTF-8"?>
<!--Generator: Apple Native CoreSVG 326-->
<!DOCTYPE svg PUBLIC "-//W3C//DTD SVG 1.1//EN" "http://www.w3.org/Graphics/SVG/1.1/DTD/svg11.dtd">
<svg version="1.1" xmlns="http://www.w3.org/2000/svg" xmlns:xlink="http://www.w3.org/1999/xlink"
       viewBox="0 0 28.1566 21.7932">
       <g>
              <rect height="21.7932" opacity="0" width="28.1566" x="0" y="0" />
              <path d="M10.0097 18.1397C10.0097 20.4717 11.3312 21.7932 13.6488 21.7932L24.1542 21.7932C26.4816 21.7932 27.7933 20.4717 27.7933 18.1397L27.7933 3.66096C27.7933 1.33128 26.4816 0.0051558 24.1542 0.0051558L13.6488 0.0051558C11.3312 0.0051558 10.0097 1.33128 10.0097 3.66096ZM13.0294 17.7299L13.0294 4.07075C13.0294 3.3777 13.3403 3.0248 14.0799 3.0248L23.7329 3.0248C24.465 3.0248 24.7737 3.3777 24.7737 4.07075L24.7737 17.7299C24.7737 18.4229 24.465 18.7735 23.7329 18.7735L14.0799 18.7735C13.3403 18.7735 13.0294 18.4229 13.0294 17.7299Z"
                     fill="currentColor" fill-opacity="0.85" />
              <path d="M15.028 15.5743L22.775 15.5743C23.3149 15.5743 23.5899 15.1861 23.5899 14.7054C23.5899 13.6857 22.1726 11.1361 18.9015 11.1361C15.6305 11.1361 14.2131 13.6857 14.2131 14.7054C14.2131 15.1861 14.4905 15.5743 15.028 15.5743ZM18.9015 10.4547C20.2234 10.457 21.2845 9.34249 21.2845 7.8546C21.2845 6.46436 20.2234 5.3108 18.9015 5.3108C17.5894 5.3108 16.5209 6.46436 16.5209 7.8546C16.5209 9.34249 17.5894 10.4524 18.9015 10.4547Z"
                     fill="currentColor" fill-opacity="0.85" />
              <path d="M0.303464 9.67404C-0.326571 10.4 0.0754575 11.3809 1.03916 11.3809L2.71424 11.3809L2.71424 14.6287C2.71424 15.3344 3.29247 15.838 4.02289 15.838C4.74125 15.838 5.31948 15.3344 5.31948 14.6287L5.31948 11.3809L6.96757 11.3809C7.97033 11.3809 8.3683 10.408 7.72795 9.67404L4.72414 6.26074C4.31981 5.80011 3.70415 5.80011 3.29751 6.26074Z"
                     fill="currentColor" fill-opacity="0.85" />
       </g>
</svg>