<?xml version="1.0" encoding="UTF-8"?>
<!--Generator: Apple Native CoreSVG 326-->
<!DOCTYPE svg PUBLIC "-//W3C//DTD SVG 1.1//EN" "http://www.w3.org/Graphics/SVG/1.1/DTD/svg11.dtd">
<svg version="1.1" xmlns="http://www.w3.org/2000/svg" xmlns:xlink="http://www.w3.org/1999/xlink"
       viewBox="0 0 26.0051 18.9897">
       <g>
              <rect height="18.9897" opacity="0" width="26.0051" x="0" y="0" />
              <path d="M15.733 18.9897C16.4129 18.9897 16.9304 18.7347 17.5782 18.1311L25.3877 10.9154C25.7984 10.5265 26.0051 9.96142 26.0051 9.49741C26.0051 9.0087 25.8059 8.47347 25.3952 8.09206L17.5782 0.885033C16.8741 0.240077 16.3877 0.00285089 15.7376 0.00285089C14.6884 0.00285089 13.8965 0.818312 13.8965 1.8531L13.8965 4.78419L8.85682 4.78419C6.63766 4.78419 5.66134 5.83796 5.66134 8.05021L5.66134 9.33024L3.09346 9.33024C1.24733 9.33024 0.136719 10.3892 0.136719 12.1762L0.136719 15.9858C0.136719 17.8325 1.18019 18.8266 3.09346 18.8266L9.05674 18.8266C11.1043 18.8266 12.0135 17.8549 12.0135 15.8142L12.0135 14.3934L13.8965 14.3934L13.8965 17.1607C13.8965 18.1955 14.6884 18.9897 15.733 18.9897ZM9.87808 16.014L7.0668 14.7516C6.065 14.2915 5.512 13.3419 5.50048 12.2198C5.49817 12.0095 5.76293 11.9705 5.82844 12.1933C6.08411 13.3228 6.89739 14.3934 8.73939 14.3934L10.02 14.3934L10.02 15.9331C10.02 16.029 9.95906 16.0508 9.87808 16.014Z"
                     fill="currentColor" fill-opacity="0.85" />
       </g>
</svg>