<?xml version="1.0" encoding="UTF-8"?>
<!--Generator: Apple Native CoreSVG 326-->
<!DOCTYPE svg PUBLIC "-//W3C//DTD SVG 1.1//EN" "http://www.w3.org/Graphics/SVG/1.1/DTD/svg11.dtd">
<svg version="1.1" xmlns="http://www.w3.org/2000/svg" xmlns:xlink="http://www.w3.org/1999/xlink"
       viewBox="0 0 19.3993 19.0529">
       <g>
              <rect height="19.0529" opacity="0" width="19.3993" x="0" y="0" />
              <path d="M3.64834 19.0379L15.3896 19.0379C17.7164 19.0379 19.0379 17.7262 19.0379 15.4011L19.0379 3.63912C19.0379 1.32151 17.7164 0 15.3896 0L3.64834 0C1.32382 0 0 1.32151 0 3.63912L0 15.4011C0 17.7262 1.32382 19.0379 3.64834 19.0379ZM4.05583 16.0183C3.37024 16.0183 3.01964 15.7096 3.01964 14.9775L3.01964 4.07021C3.01964 3.33809 3.37024 3.0271 4.05583 3.0271L14.9821 3.0271C15.6654 3.0271 16.0183 3.33809 16.0183 4.07021L16.0183 14.9775C16.0183 15.7096 15.6654 16.0183 14.9821 16.0183Z"
                     fill="currentColor" fill-opacity="0.85" />
              <path d="M5.50654 9.78037C6.01423 9.78037 6.42372 9.38064 6.42372 8.87295L6.42372 8.53619L6.25892 7.6423L7.68191 9.21002C8.06956 9.64935 8.76213 9.62466 9.18709 9.21232C9.59712 8.79483 9.6172 8.09995 9.17732 7.7146L7.61422 6.30138L8.51896 6.45872L8.83334 6.45872C9.33357 6.45872 9.74822 6.059 9.74822 5.5513C9.74822 5.05107 9.33357 4.63412 8.83334 4.63412L5.84009 4.63412C5.02639 4.63412 4.59913 5.07509 4.59913 5.87739L4.59913 8.87295C4.59913 9.38064 5.00631 9.78037 5.50654 9.78037ZM10.1644 14.4285L13.1554 14.4285C13.9691 14.4285 14.3987 13.995 14.3987 13.1927L14.3987 10.1971C14.3987 9.68198 13.9892 9.28226 13.4889 9.28226C12.9887 9.28226 12.5741 9.68198 12.5741 10.1971L12.5741 10.5339L12.7389 11.4278L11.3159 9.85261C10.9259 9.42074 10.2356 9.43796 9.81585 9.8503C9.40581 10.2753 9.37828 10.9627 9.81815 11.3555L11.3836 12.7687L10.4863 12.6039L10.1644 12.6039C9.66421 12.6039 9.25472 13.0036 9.25472 13.5113C9.25472 14.019 9.66421 14.4285 10.1644 14.4285Z"
                     fill="currentColor" fill-opacity="0.85" />
       </g>
</svg>