<?xml version="1.0" encoding="UTF-8"?>
<!--Generator: Apple Native CoreSVG 326-->
<!DOCTYPE svg PUBLIC "-//W3C//DTD SVG 1.1//EN" "http://www.w3.org/Graphics/SVG/1.1/DTD/svg11.dtd">
<svg version="1.1" xmlns="http://www.w3.org/2000/svg" xmlns:xlink="http://www.w3.org/1999/xlink"
       viewBox="0 0 21.365 21.006">
       <g>
              <rect height="21.006" opacity="0" width="21.365" x="0" y="0" />
              <path d="M10.4981 20.9962C16.302 20.9962 21.0037 16.2946 21.0037 10.4981C21.0037 4.70163 16.302 0 10.4981 0C4.70163 0 0 4.70163 0 10.4981C0 16.2946 4.70163 20.9962 10.4981 20.9962ZM10.4981 17.9484C6.37829 17.9484 3.04785 14.6179 3.04785 10.4981C3.04785 6.37829 6.37829 3.04785 10.4981 3.04785C14.6179 3.04785 17.9558 6.37829 17.9558 10.4981C17.9558 14.6179 14.6179 17.9484 10.4981 17.9484Z"
                     fill="currentColor" fill-opacity="0.85" />
              <path d="M15.9291 11.3081L15.8751 8.03705C15.8751 7.84865 15.7896 7.63326 15.6523 7.49369C15.3387 7.18526 14.893 7.18526 14.5771 7.49369C14.4301 7.64072 14.3445 7.8142 14.3543 8.02498L14.3738 9.3383L14.3807 9.48515L14.0234 9.11582L10.205 5.2974C9.89889 4.99127 9.41873 4.99127 9.1126 5.2974C8.79901 5.6133 8.79901 6.08368 9.1126 6.38981L12.9236 10.2082L13.305 10.5804L13.1512 10.5683L11.8402 10.5414C11.6346 10.5339 11.4485 10.6298 11.3089 10.7717C10.9953 11.0853 10.9953 11.5287 11.3037 11.8348C11.4462 11.9818 11.6592 12.0576 11.8574 12.0599L15.1233 12.1065C15.5644 12.1088 15.9291 11.759 15.9291 11.3081ZM5.05502 9.7128L5.109 12.981C5.11877 13.1866 5.18713 13.3923 5.32955 13.537C5.63798 13.8356 6.09345 13.8356 6.40704 13.537C6.55407 13.3802 6.63274 13.209 6.62759 12.9982L6.59829 11.6774L6.59137 11.526L6.96071 11.9074L10.7791 15.7235C11.0778 16.0319 11.5533 16.0296 11.8692 15.7235C12.1777 15.4076 12.1777 14.9395 11.8692 14.6334L8.05082 10.8127L7.66942 10.4503L7.82318 10.4549L9.14396 10.4916C9.34728 10.4991 9.52591 10.4009 9.67525 10.2613C9.98884 9.94026 9.9963 9.4894 9.68787 9.17866C9.53568 9.04139 9.32775 8.96327 9.12674 8.96327L5.85337 8.91905C5.40998 8.91905 5.0401 9.25963 5.05502 9.7128Z"
                     fill="currentColor" fill-opacity="0.85" />
       </g>
</svg>