<?xml version="1.0" encoding="UTF-8"?>
<!--Generator: Apple Native CoreSVG 326-->
<!DOCTYPE svg PUBLIC "-//W3C//DTD SVG 1.1//EN" "http://www.w3.org/Graphics/SVG/1.1/DTD/svg11.dtd">
<svg version="1.1" xmlns="http://www.w3.org/2000/svg" xmlns:xlink="http://www.w3.org/1999/xlink"
       viewBox="0 0 27.7976 20.1054">
       <g>
              <rect height="20.1054" opacity="0" width="27.7976" x="0" y="0" />
              <path d="M13.3854 7.36522C13.3854 7.85733 13.7644 8.26845 14.2686 8.32244C18.3235 8.78033 18.8705 9.32041 19.4634 13.5517C19.5495 14.0461 19.9457 14.3907 20.4108 14.3907C20.8782 14.3907 21.267 14.0461 21.3531 13.5517C22.0355 9.32041 22.513 8.85494 26.568 8.32244C27.0745 8.23861 27.4363 7.84987 27.4363 7.36522C27.4363 6.88058 27.0521 6.46945 26.5531 6.41547C22.5004 5.95012 21.946 5.40773 21.3531 1.17873C21.267 0.694088 20.8805 0.342101 20.4108 0.342101C19.9359 0.342101 19.5495 0.694088 19.4634 1.17873C18.7718 5.40082 18.3035 5.85246 14.2462 6.41547C13.742 6.49184 13.3854 6.88804 13.3854 7.36522ZM12.1965 16.0427C12.1965 16.3574 12.4153 16.6204 12.7421 16.6841C15.0458 17.0857 15.0126 17.0564 15.2734 19.154C15.3274 19.5054 15.5806 19.746 15.9148 19.746C16.2439 19.746 16.5046 19.5077 16.5586 19.1712C16.8338 16.9662 16.8367 16.9886 19.0629 16.6841C19.3919 16.6301 19.6279 16.3597 19.6279 16.0427C19.6279 15.728 19.4166 15.4701 19.0801 15.4012C16.8447 15.0071 16.8361 15.0732 16.5586 12.9044C16.5046 12.5776 16.2341 12.3393 15.9148 12.3393C15.5806 12.3393 15.3274 12.5799 15.2734 12.9314C15.0126 15.0662 14.9987 15.0755 12.8035 15.4012C12.4251 15.4701 12.1965 15.7085 12.1965 16.0427Z"
                     fill="currentColor" fill-opacity="0.85" />
              <path d="M0 14.2488C0 14.6576 0.182029 15.0607 0.489798 15.3759L4.67707 19.6035C4.95214 19.8958 5.40057 20.0606 5.83123 20.0606C6.25212 20.0606 6.70802 19.8958 6.98309 19.6035L11.1727 15.3759C11.473 15.0607 11.6527 14.6576 11.6527 14.2488C11.6527 13.3507 11.0102 12.7329 10.1666 12.7329C9.67397 12.7329 9.32199 12.9527 9.04867 13.2433L8.28174 14.0585L7.31148 15.2407L7.40168 13.2609L7.40168 6.80713L7.31148 4.81986L8.28174 6.0021L9.04867 6.81732C9.32199 7.10786 9.67397 7.32774 10.1666 7.32774C11.0102 7.32774 11.6527 6.7099 11.6527 5.81182C11.6527 5.403 11.473 4.99988 11.1727 4.68465L6.98309 0.457104C6.70802 0.164803 6.25212 0 5.83123 0C5.40057 0 4.95214 0.164803 4.67707 0.457104L0.489798 4.68465C0.182029 4.99988 0 5.403 0 5.81182C0 6.7099 0.64253 7.32774 1.49354 7.32774C1.97872 7.32774 2.34048 7.10556 2.61149 6.81732L3.37327 6.0021L4.34868 4.81986L4.25102 6.80713L4.25102 13.2609L4.34868 15.2407L3.37327 14.0585L2.61149 13.2433C2.34048 12.955 1.97872 12.7329 1.49354 12.7329C0.64253 12.7329 0 13.3507 0 14.2488Z"
                     fill="currentColor" fill-opacity="0.85" />
       </g>
</svg>