<?xml version="1.0" encoding="UTF-8"?>
<!--Generator: Apple Native CoreSVG 326-->
<!DOCTYPE svg PUBLIC "-//W3C//DTD SVG 1.1//EN" "http://www.w3.org/Graphics/SVG/1.1/DTD/svg11.dtd">
<svg version="1.1" xmlns="http://www.w3.org/2000/svg" xmlns:xlink="http://www.w3.org/1999/xlink"
       viewBox="0 0 26.5012 20.9071">
       <g>
              <rect height="20.9071" opacity="0" width="26.5012" x="0" y="0" />
              <path d="M20.1474 18.4723C23.4697 18.4723 26.1399 16.0082 26.1399 12.9197C26.1399 10.7496 24.9434 8.7335 22.9197 7.89542C22.9094 3.30121 19.5657 0 15.1911 0C12.7236 0 10.5927 1.12505 9.19698 3.07278C6.51112 2.53379 3.94616 4.43456 3.71828 7.24355C1.4068 7.76671 0 9.9035 0 12.5027C0 15.7841 2.86042 18.4723 6.50615 18.4723ZM20.1549 15.4526L6.52107 15.4526C4.58239 15.4526 3.10917 14.1069 3.10917 12.5027C3.10917 10.5868 4.38034 9.42207 6.15223 9.42207C6.31133 9.42207 6.39 9.33133 6.37508 9.16707C6.12887 6.52484 7.99095 5.27805 10.3585 5.95473C10.4906 5.98633 10.5888 5.95703 10.6623 5.83469C11.6767 4.11539 13.005 3.01964 15.1388 3.01964C17.857 3.01964 19.9171 5.14837 20.0384 7.81748C20.0752 8.53528 20.016 9.23422 19.9471 9.74543C19.9299 9.90969 19.9936 9.98551 20.1556 10.0073C21.918 10.2114 23.0307 11.3163 23.0307 12.9197C23.0307 14.3258 21.7649 15.4526 20.1549 15.4526Z"
                     fill="currentColor" fill-opacity="0.85" />
              <path d="M8.43938 10.2005C8.162 10.5807 8.3245 11.027 8.77305 11.027L9.3374 11.027C9.71825 12.8924 11.3274 14.2328 13.3261 14.2328C14.1884 14.2328 14.9142 14.0052 15.4612 13.6052C15.9344 13.2824 16.0171 12.8149 15.781 12.4599C15.5523 12.0969 15.121 11.9271 14.6346 12.2263C14.2146 12.5091 13.7945 12.639 13.3261 12.639C12.2302 12.639 11.3337 11.9815 10.9919 11.027L11.4793 11.027C11.9377 11.027 12.095 10.571 11.813 10.2005L10.5952 8.604C10.3453 8.27604 9.89962 8.27889 9.64747 8.604ZM10.8711 7.92951C11.105 8.29247 11.5311 8.46231 12.0204 8.15563C12.4427 7.87055 12.8576 7.74293 13.3238 7.74293C14.4294 7.74293 15.3161 8.40275 15.6579 9.36475L15.1538 9.36475C14.703 9.36475 14.5456 9.81846 14.8276 10.1837L16.038 11.778C16.2953 12.1059 16.741 12.1105 16.9857 11.778L18.2012 10.1837C18.4786 9.811 18.3087 9.36475 17.8601 9.36475L17.3148 9.36475C16.9339 7.49697 15.3248 6.15665 13.3238 6.15665C12.4637 6.15665 11.7357 6.38654 11.191 6.7865C10.7177 7.10932 10.6499 7.57685 10.8711 7.92951Z"
                     fill="currentColor" fill-opacity="0.85" />
       </g>
</svg>