<?xml version="1.0" encoding="UTF-8"?>
<!--Generator: Apple Native CoreSVG 326-->
<!DOCTYPE svg PUBLIC "-//W3C//DTD SVG 1.1//EN" "http://www.w3.org/Graphics/SVG/1.1/DTD/svg11.dtd">
<svg version="1.1" xmlns="http://www.w3.org/2000/svg" xmlns:xlink="http://www.w3.org/1999/xlink"
       viewBox="0 0 19.3993 19.0529">
       <g>
              <rect height="19.0529" opacity="0" width="19.3993" x="0" y="0" />
              <path d="M3.64834 19.0379L15.3896 19.0379C17.7164 19.0379 19.0379 17.7262 19.0379 15.4011L19.0379 3.63912C19.0379 1.32151 17.7164 0 15.3896 0L3.64834 0C1.32382 0 0 1.32151 0 3.63912L0 15.4011C0 17.7262 1.32382 19.0379 3.64834 19.0379ZM4.05583 16.0183C3.37024 16.0183 3.01964 15.7096 3.01964 14.9775L3.01964 4.07021C3.01964 3.33809 3.37024 3.0271 4.05583 3.0271L14.9821 3.0271C15.6654 3.0271 16.0183 3.33809 16.0183 4.07021L16.0183 14.9775C16.0183 15.7096 15.6654 16.0183 14.9821 16.0183Z"
                     fill="currentColor" fill-opacity="0.85" />
              <path d="M9.52155 12.0072C9.81154 12.0072 10.0745 11.882 10.256 11.7155L13.2458 8.86343C13.4617 8.67218 13.5576 8.40917 13.5576 8.1714C13.5576 7.58856 13.1522 7.18598 12.6193 7.18598C12.3092 7.18598 12.0812 7.32664 11.8945 7.51328L11.2793 8.12336L10.3967 9.14851L10.519 7.87103L10.519 5.14188C10.519 4.52228 10.1188 4.09216 9.52155 4.09216C8.92202 4.09216 8.52406 4.52228 8.52406 5.14188L8.52406 7.87103L8.6464 9.15081L7.75688 8.12106L7.15548 7.51328C6.96884 7.31918 6.75521 7.18598 6.44052 7.18598C5.89553 7.18598 5.49987 7.58395 5.49987 8.1714C5.49987 8.40226 5.60784 8.66702 5.80709 8.86112L8.78706 11.7155C8.96854 11.8918 9.23385 12.0072 9.52155 12.0072ZM6.26462 14.3937L12.7928 14.3937C13.3229 14.3937 13.7433 13.9711 13.7433 13.441C13.7433 12.9132 13.3229 12.4906 12.7928 12.4906L6.26462 12.4906C5.73455 12.4906 5.30674 12.9132 5.30674 13.441C5.30674 13.9711 5.73455 14.3937 6.26462 14.3937Z"
                     fill="currentColor" fill-opacity="0.85" />
       </g>
</svg>