<?xml version="1.0" encoding="UTF-8"?>
<!--Generator: Apple Native CoreSVG 326-->
<!DOCTYPE svg PUBLIC "-//W3C//DTD SVG 1.1//EN" "http://www.w3.org/Graphics/SVG/1.1/DTD/svg11.dtd">
<svg version="1.1" xmlns="http://www.w3.org/2000/svg" xmlns:xlink="http://www.w3.org/1999/xlink"
       viewBox="0 0 21.365 21.006">
       <g>
              <rect height="21.006" opacity="0" width="21.365" x="0" y="0" />
              <path d="M21.0037 10.4981C21.0037 16.2923 16.302 20.9962 10.4981 20.9962C4.70394 20.9962 0 16.2923 0 10.4981C0 4.70163 4.70394 0 10.4981 0C16.302 0 21.0037 4.70163 21.0037 10.4981ZM10.1254 6.916C10.1254 7.25307 10.2684 7.55744 10.5039 7.78369L11.6176 8.83941L12.4142 9.26121L10.9453 9.13316L6.50943 9.13316C5.79623 9.13316 5.17378 9.72808 5.17378 10.4958C5.17378 11.2486 5.79623 11.8487 6.50943 11.8487L10.9453 11.8487L12.4142 11.7304L11.6176 12.1522L10.5039 13.2079C10.2684 13.4342 10.1254 13.7334 10.1254 14.0779C10.1254 14.662 10.5751 15.2258 11.224 15.2258C11.5731 15.2258 11.8063 15.0955 12.0348 14.8721L15.1857 11.5965C15.5251 11.2348 15.6531 10.865 15.6531 10.4958C15.6531 10.1243 15.5251 9.75683 15.1857 9.39508L12.0348 6.11207C11.8063 5.88867 11.5731 5.75832 11.224 5.75832C10.5751 5.75832 10.1254 6.33195 10.1254 6.916Z"
                     fill="currentColor" fill-opacity="0.85" />
       </g>
</svg>