<?xml version="1.0" encoding="UTF-8"?>
<!--Generator: Apple Native CoreSVG 326-->
<!DOCTYPE svg PUBLIC "-//W3C//DTD SVG 1.1//EN" "http://www.w3.org/Graphics/SVG/1.1/DTD/svg11.dtd">
<svg version="1.1" xmlns="http://www.w3.org/2000/svg" xmlns:xlink="http://www.w3.org/1999/xlink"
       viewBox="0 0 21.365 21.006">
       <g>
              <rect height="21.006" opacity="0" width="21.365" x="0" y="0" />
              <path d="M21.0037 10.5079C21.0037 16.3043 16.302 21.006 10.4981 21.006C4.70394 21.006 0 16.3043 0 10.5079C0 4.7137 4.70394 0.00976562 10.4981 0.00976562C16.302 0.00976562 21.0037 4.7137 21.0037 10.5079ZM8.54929 5.38947L4.40393 9.21202C4.1914 9.40733 4.07081 9.68471 4.07081 9.95233C4.07081 10.1999 4.1914 10.4922 4.40393 10.7024L8.54929 14.5244C8.89272 14.8408 9.16495 14.9804 9.51815 14.9804C10.0758 14.9804 10.491 14.5578 10.491 14.0197L10.491 12.4992L10.5502 12.4992C12.1327 12.4992 12.9759 13.1855 13.5329 14.1995C13.8154 14.7055 14.1044 14.8834 14.5252 14.8834C15.1218 14.8834 15.4796 14.2886 15.4796 13.0589C15.4796 9.50032 13.7259 7.43765 10.5502 7.43765L10.491 7.43765L10.491 5.88673C10.491 5.35381 10.0758 4.91909 9.51584 4.91909C9.17757 4.91909 8.92202 5.04889 8.54929 5.38947Z"
                     fill="currentColor" fill-opacity="0.85" />
       </g>
</svg>