<?xml version="1.0" encoding="UTF-8"?>
<!--Generator: Apple Native CoreSVG 326-->
<!DOCTYPE svg PUBLIC "-//W3C//DTD SVG 1.1//EN" "http://www.w3.org/Graphics/SVG/1.1/DTD/svg11.dtd">
<svg version="1.1" xmlns="http://www.w3.org/2000/svg" xmlns:xlink="http://www.w3.org/1999/xlink"
       viewBox="0 0 28.6176 19.5119">
       <g>
              <rect height="19.5119" opacity="0" width="28.6176" x="0" y="0" />
              <path d="M10.4599 3.46315L26.921 3.46315C27.6663 3.46315 28.2567 2.81546 28.2567 2.08504C28.2567 1.32478 27.6738 0.70463 26.921 0.70463L10.4599 0.70463C9.71221 0.70463 9.12421 1.34716 9.12421 2.08504C9.12421 2.80054 9.71967 3.46315 10.4599 3.46315ZM10.4599 8.57288L26.921 8.57288C27.6663 8.57288 28.2567 7.92288 28.2567 7.19246C28.2567 6.43966 27.6738 5.81436 26.921 5.81436L10.4599 5.81436C9.71221 5.81436 9.12421 6.45458 9.12421 7.19246C9.12421 7.90796 9.71967 8.57288 10.4599 8.57288ZM10.4599 13.6878L26.921 13.6878C27.6663 13.6878 28.2567 13.0401 28.2567 12.3097C28.2567 11.5471 27.6738 10.9292 26.921 10.9292L10.4599 10.9292C9.71221 10.9292 9.12421 11.562 9.12421 12.3097C9.12421 13.0177 9.71967 13.6878 10.4599 13.6878ZM10.4599 18.7952L19.5722 18.7952C20.3176 18.7952 20.9079 18.1475 20.9079 17.4171C20.9079 16.6568 20.3325 16.0367 19.5722 16.0367L10.4599 16.0367C9.71221 16.0367 9.12421 16.6792 9.12421 17.4171C9.12421 18.1326 9.71967 18.7952 10.4599 18.7952Z"
                     fill="currentColor" fill-opacity="0.85" />
              <path d="M3.7032 19.1876L5.94729 16.2593C6.43491 15.6201 6.14776 14.8143 5.32757 14.8143L4.03784 14.8143L4.03784 4.68785L5.32757 4.68785C6.14315 4.68785 6.43952 3.88665 5.94729 3.23532L3.7032 0.304785C3.3873-0.106463 2.80488-0.0966975 2.49129 0.304785L0.247197 3.23532C-0.257643 3.89411 0.0387221 4.68785 0.881842 4.68785L2.13657 4.68785L2.13657 14.8143L0.881842 14.8143C0.0387221 14.8143-0.257643 15.608 0.247197 16.2593L2.49129 19.1876C2.80719 19.6011 3.3873 19.6086 3.7032 19.1876Z"
                     fill="currentColor" fill-opacity="0.85" />
       </g>
</svg>