<?xml version="1.0" encoding="UTF-8"?>
<!--Generator: Apple Native CoreSVG 326-->
<!DOCTYPE svg PUBLIC "-//W3C//DTD SVG 1.1//EN" "http://www.w3.org/Graphics/SVG/1.1/DTD/svg11.dtd">
<svg version="1.1" xmlns="http://www.w3.org/2000/svg" xmlns:xlink="http://www.w3.org/1999/xlink"
       viewBox="0 0 24.1748 23.8405">
       <g>
              <rect height="23.8405" opacity="0" width="24.1748" x="0" y="0" />
              <path d="M0.573817 13.0564L3.70628 15.6572C4.77091 16.5233 5.82657 15.8984 5.82657 14.7877L5.82657 13.4858L10.3363 13.4858L10.3363 18.0001L9.00974 18.0001C7.93115 18.0001 7.31374 19.0684 8.12525 20.0734L10.7261 23.2133C11.34 23.981 12.3983 24.0585 13.0523 23.2483L15.6509 20.1107C16.517 19.046 15.8921 18.0001 14.7813 18.0001L13.4869 18.0001L13.4869 13.4858L17.9869 13.4858L17.9869 14.7877C17.9869 15.8984 19.0328 16.5233 20.0997 15.6572L23.2373 13.0587C24.0452 12.4023 23.9678 11.3464 23.2023 10.7325L20.0624 8.13159C19.0552 7.32007 17.9869 7.93749 17.9869 9.01608L17.9869 10.3352L13.4869 10.3352L13.4869 5.82599L14.7813 5.82599C15.8921 5.82599 16.517 4.77264 15.6509 3.708L13.05 0.575543C12.3937-0.236946 11.3354-0.157729 10.7238 0.615151L8.12525 3.75277C7.31374 4.75772 7.93115 5.82599 9.00974 5.82599L10.3363 5.82599L10.3363 10.3352L5.82657 10.3352L5.82657 9.01608C5.82657 7.93749 4.75599 7.32007 3.75104 8.13159L0.613425 10.7302C-0.15715 11.3418-0.236367 12.3977 0.573817 13.0564Z"
                     fill="currentColor" fill-opacity="0.85" />
       </g>
</svg>