<?xml version="1.0" encoding="UTF-8"?>
<!--Generator: Apple Native CoreSVG 326-->
<!DOCTYPE svg PUBLIC "-//W3C//DTD SVG 1.1//EN" "http://www.w3.org/Graphics/SVG/1.1/DTD/svg11.dtd">
<svg version="1.1" xmlns="http://www.w3.org/2000/svg" xmlns:xlink="http://www.w3.org/1999/xlink"
       viewBox="0 0 21.365 21.006">
       <g>
              <rect height="21.006" opacity="0" width="21.365" x="0" y="0" />
              <path d="M21.0037 10.4981C21.0037 16.2923 16.302 20.9962 10.4981 20.9962C4.70394 20.9962 0 16.2923 0 10.4981C0 4.70163 4.70394 0 10.4981 0C16.302 0 21.0037 4.70163 21.0037 10.4981ZM11.761 10.4288C10.8905 10.4288 10.4288 10.9019 10.4288 11.7587L10.4288 14.8565C10.4288 15.4062 10.8704 15.838 11.4126 15.838C11.9449 15.838 12.3843 15.4062 12.3843 14.8565L12.3843 14.5921L12.212 13.6494L13.9511 15.5384C14.3635 16.0001 15.1031 15.9852 15.5528 15.5407C15.9972 15.091 16.015 14.3491 15.5505 13.9368L13.6638 12.212L14.6173 12.3843L14.8594 12.3843C15.4015 12.3843 15.8432 11.9524 15.8432 11.4126C15.8432 10.8681 15.4015 10.4288 14.8594 10.4288ZM5.436 5.44576C4.99151 5.89541 4.97374 6.63505 5.4383 7.05715L7.32501 8.77445L6.37143 8.60964L6.12936 8.60964C5.58721 8.60964 5.14558 9.03405 5.14558 9.57389C5.14558 10.1235 5.58721 10.5577 6.12936 10.5577L9.22773 10.5577C10.0983 10.5577 10.56 10.0846 10.56 9.23288L10.56 6.13736C10.56 5.5803 10.1183 5.15589 9.5762 5.15589C9.04382 5.15589 8.60449 5.5803 8.60449 6.13736L8.60449 6.39436L8.77675 7.34454L7.03762 5.44807C6.62528 4.99381 5.88564 5.00874 5.436 5.44576Z"
                     fill="currentColor" fill-opacity="0.85" />
       </g>
</svg>