<?xml version="1.0" encoding="UTF-8"?>
<!--Generator: Apple Native CoreSVG 326-->
<!DOCTYPE svg PUBLIC "-//W3C//DTD SVG 1.1//EN" "http://www.w3.org/Graphics/SVG/1.1/DTD/svg11.dtd">
<svg version="1.1" xmlns="http://www.w3.org/2000/svg" xmlns:xlink="http://www.w3.org/1999/xlink"
       viewBox="0 0 21.0145 19.8589">
       <g>
              <rect height="19.8589" opacity="0" width="21.0145" x="0" y="0" />
              <path d="M21.0145 7.18599C21.0145 11.3984 17.4685 15.617 12.1621 19.1252C11.5891 19.5058 10.9977 19.8589 10.6061 19.8589C10.2168 19.8589 9.62315 19.5058 9.05249 19.1252C3.74612 15.617 0.200105 11.3984 0.200105 7.18599C0.200105 3.15448 3.02826 0.496713 6.28864 0.496713C8.337 0.496713 9.76684 1.62085 10.6061 3.20003C11.45 1.61855 12.885 0.496713 14.9236 0.496713C18.1863 0.496713 21.0145 3.15448 21.0145 7.18599ZM9.55982 6.77516L9.55982 7.45372C8.0897 7.82985 6.93208 9.18794 6.93208 10.7356C6.93208 12.6216 8.45267 14.1468 10.3266 14.1468C12.2005 14.1468 13.7211 12.6216 13.7211 10.7477C13.7211 10.3089 13.3707 9.96603 12.9492 9.96603C12.5178 9.96603 12.1749 10.3089 12.1749 10.7477C12.1749 11.7716 11.3504 12.5886 10.3266 12.5886C9.29524 12.5886 8.4782 11.7641 8.4782 10.7477C8.4782 10.0156 8.90067 9.38234 9.55982 9.0716L9.55982 9.73997C9.55982 10.2304 10.0744 10.4217 10.4695 10.1029L12.0855 8.75637C12.4335 8.46001 12.4261 8.01837 12.0855 7.73923L10.4695 6.4122C10.067 6.09345 9.55982 6.28985 9.55982 6.77516Z"
                     fill="currentColor" fill-opacity="0.85" />
       </g>
</svg>