<?xml version="1.0" encoding="UTF-8"?>
<!--Generator: Apple Native CoreSVG 326-->
<!DOCTYPE svg PUBLIC "-//W3C//DTD SVG 1.1//EN" "http://www.w3.org/Graphics/SVG/1.1/DTD/svg11.dtd">
<svg version="1.1" xmlns="http://www.w3.org/2000/svg" xmlns:xlink="http://www.w3.org/1999/xlink"
       viewBox="0 0 42.1975 17.3558">
       <g>
              <rect height="17.3558" opacity="0" width="42.1975" x="0" y="0" />
              <path d="M0 8.67303C0 9.15373 0.215936 9.63958 0.5732 9.97732L7.5555 16.5839C8.11663 17.1008 8.62202 17.3438 9.22045 17.3438C10.1336 17.3438 10.848 16.6414 10.848 15.7358L10.848 12.9504L16.8527 12.9504C18.5844 12.9504 19.675 11.8672 19.675 10.1746L19.675 7.15651C19.675 5.44667 18.5941 4.40023 16.8527 4.40023L10.848 4.40023L10.848 1.66659C10.848 0.733939 10.1238 0 9.21068 0C8.62432 0 8.21944 0.201014 7.5555 0.818433L0.5732 7.35151C0.196404 7.70878 0 8.18487 0 8.67303ZM3.20598 8.88557C3.04973 8.73678 3.05203 8.59205 3.20598 8.44557L8.31601 3.56136C8.39183 3.50277 8.49003 3.53953 8.49003 3.62281L8.49003 6.14658C8.49003 6.62662 8.80065 6.94009 9.2933 6.94009L16.7516 6.94009C16.9914 6.94009 17.1403 7.089 17.1403 7.3483L17.1403 10.0121C17.1403 10.264 16.9914 10.4083 16.7516 10.4083L9.2933 10.4083C8.80065 10.4083 8.49003 10.7217 8.49003 11.2064L8.49003 13.6526C8.49003 13.7456 8.39183 13.7749 8.31601 13.714ZM41.8362 8.68049C41.8362 8.19233 41.6323 7.71624 41.2555 7.35898L34.2732 0.833354C33.6093 0.215936 33.2119 0.00746071 32.6255 0.00746071C31.7049 0.00746071 30.9808 0.7414 30.9808 1.67405L30.9808 4.40769L24.976 4.40769C23.2346 4.40769 22.1537 5.45413 22.1537 7.16397L22.1537 10.1821C22.1537 11.8747 23.2444 12.9579 24.976 12.9579L30.9808 12.9579L30.9808 15.7507C30.9808 16.6489 31.6952 17.3512 32.6083 17.3512C33.2142 17.3512 33.7196 17.1157 34.2732 16.5914L41.2555 9.98478C41.6202 9.64704 41.8362 9.16865 41.8362 8.68049ZM25.0771 10.4157C24.8448 10.4157 24.6884 10.2714 24.6884 10.0196L24.6884 7.36322C24.6884 7.09646 24.8448 6.94755 25.0771 6.94755L32.5429 6.94755C33.0281 6.94755 33.3462 6.63408 33.3462 6.15404L33.3462 3.63773C33.3462 3.54699 33.4444 3.51023 33.5127 3.56882L38.6227 8.46049C38.7767 8.60697 38.779 8.74424 38.6227 8.89303L33.5127 13.7215C33.4444 13.7899 33.3462 13.7531 33.3462 13.66L33.3462 11.2139C33.3462 10.7292 33.0281 10.4157 32.5429 10.4157Z"
                     fill="currentColor" fill-opacity="0.85" />
       </g>
</svg>