<?xml version="1.0" encoding="UTF-8"?>
<!--Generator: Apple Native CoreSVG 326-->
<!DOCTYPE svg PUBLIC "-//W3C//DTD SVG 1.1//EN" "http://www.w3.org/Graphics/SVG/1.1/DTD/svg11.dtd">
<svg version="1.1" xmlns="http://www.w3.org/2000/svg" xmlns:xlink="http://www.w3.org/1999/xlink"
       viewBox="0 0 19.3993 19.0529">
       <g>
              <rect height="19.0529" opacity="0" width="19.3993" x="0" y="0" />
              <path d="M3.64834 19.0379L15.3896 19.0379C17.7164 19.0379 19.0379 17.7262 19.0379 15.4011L19.0379 3.63912C19.0379 1.32151 17.7164 0 15.3896 0L3.64834 0C1.32382 0 0 1.32151 0 3.63912L0 15.4011C0 17.7262 1.32382 19.0379 3.64834 19.0379ZM4.05583 16.0183C3.37024 16.0183 3.01964 15.7096 3.01964 14.9775L3.01964 4.07021C3.01964 3.33809 3.37024 3.0271 4.05583 3.0271L14.9821 3.0271C15.6654 3.0271 16.0183 3.33809 16.0183 4.07021L16.0183 14.9775C16.0183 15.7096 15.6654 16.0183 14.9821 16.0183Z"
                     fill="currentColor" fill-opacity="0.85" />
              <path d="M12.5208 12.4731C13.1892 12.4731 13.6016 11.9844 13.6016 11.2517L13.6016 6.91091C13.6016 5.94678 13.0331 5.40136 12.0725 5.40136L7.71964 5.40136C6.96968 5.40136 6.48274 5.8114 6.48274 6.47983C6.48274 7.14826 6.96453 7.55829 7.70186 7.55829L8.93458 7.55829L9.93225 7.40204L8.7147 8.43756L5.84979 11.3025C5.60116 11.5586 5.44613 11.9031 5.44613 12.2401C5.44613 13.0004 6.03522 13.5074 6.73349 13.5074C7.0947 13.5074 7.41454 13.3822 7.71539 13.0889L10.5481 10.271L11.5814 9.05808L11.4423 10.104L11.4423 11.2414C11.4423 11.9913 11.8524 12.4731 12.5208 12.4731Z"
                     fill="currentColor" fill-opacity="0.85" />
       </g>
</svg>