<?xml version="1.0" encoding="UTF-8"?>
<!--Generator: Apple Native CoreSVG 326-->
<!DOCTYPE svg PUBLIC "-//W3C//DTD SVG 1.1//EN" "http://www.w3.org/Graphics/SVG/1.1/DTD/svg11.dtd">
<svg version="1.1" xmlns="http://www.w3.org/2000/svg" xmlns:xlink="http://www.w3.org/1999/xlink"
       viewBox="0 0 23.1701 18.9897">
       <g>
              <rect height="18.9897" opacity="0" width="23.1701" x="0" y="0" />
              <path d="M0 9.49741C0 9.96142 0.216482 10.5265 0.624879 10.9079L8.43441 18.1311C9.07475 18.7272 9.59967 18.9897 10.2722 18.9897C11.3167 18.9897 12.1086 18.1955 12.1086 17.1607L12.1086 14.318L18.7476 14.318C20.6934 14.318 21.8381 13.178 21.8381 11.2391L21.8381 7.83264C21.8381 5.88625 20.6934 4.74621 18.7476 4.74621L12.1086 4.74621L12.1086 1.8531C12.1086 0.818312 11.3167 0.0051558 10.2676 0.0051558C9.6249 0.0051558 9.13104 0.240077 8.43441 0.885033L0.609958 8.09206C0.206716 8.47577 0 9.00124 0 9.49741ZM3.37448 9.49741C3.37448 9.43881 3.40378 9.39514 3.47444 9.32678L9.33084 3.78343C9.37967 3.74436 9.43827 3.72768 9.4894 3.72768C9.58475 3.72768 9.65596 3.79374 9.65596 3.90171L9.65596 7.08481C9.65596 7.2945 9.74846 7.39216 9.96561 7.39216L18.3923 7.39216C18.9203 7.39216 19.1996 7.62665 19.1996 8.18681L19.1996 10.87C19.1996 11.4301 18.9203 11.6796 18.3923 11.6796L9.96561 11.6796C9.74846 11.6796 9.65596 11.7698 9.65596 11.9869L9.65596 15.0724C9.65596 15.1826 9.58475 15.2636 9.4917 15.2636C9.44057 15.2636 9.38198 15.2343 9.33315 15.1832L3.47444 9.66803C3.40378 9.59737 3.37448 9.54854 3.37448 9.49741Z"
                     fill="currentColor" fill-opacity="0.85" />
       </g>
</svg>