<?xml version="1.0" encoding="UTF-8"?>
<!--Generator: Apple Native CoreSVG 326-->
<!DOCTYPE svg PUBLIC "-//W3C//DTD SVG 1.1//EN" "http://www.w3.org/Graphics/SVG/1.1/DTD/svg11.dtd">
<svg version="1.1" xmlns="http://www.w3.org/2000/svg" xmlns:xlink="http://www.w3.org/1999/xlink"
       viewBox="0 0 21.365 21.0014">
       <g>
              <rect height="21.0014" opacity="0" width="21.365" x="0" y="0" />
              <path d="M21.0037 10.5033C21.0037 16.2997 16.302 21.0014 10.4981 21.0014C4.70394 21.0014 0 16.2997 0 10.5033C0 4.70909 4.70394 0.0051558 10.4981 0.0051558C16.302 0.0051558 21.0037 4.70909 21.0037 10.5033ZM5.75086 8.45752L4.19176 10.524C3.82594 10.9972 4.04067 11.5882 4.61617 11.5882L5.35235 11.5882C5.83317 14.0179 7.92205 15.7328 10.5171 15.7328C11.6276 15.7328 12.5591 15.4351 13.2865 14.9214C13.8867 14.5181 13.989 13.9013 13.6948 13.4481C13.3805 12.9703 12.8395 12.7603 12.2078 13.1525C11.6642 13.5152 11.1281 13.6836 10.5171 13.6836C9.08962 13.6836 7.92187 12.8209 7.47265 11.5882L8.117 11.5882C8.70742 11.5882 8.90953 10.9972 8.55117 10.524L6.97023 8.45752C6.64688 8.0342 6.08114 8.02959 5.75086 8.45752ZM7.74305 6.096C7.1354 6.50154 7.0429 7.12588 7.33478 7.57158C7.63927 8.04942 8.19009 8.26457 8.82176 7.86715C9.3579 7.50449 9.89404 7.33375 10.5125 7.33375C11.9325 7.33375 13.1003 8.19646 13.5495 9.43147L12.889 9.43147C12.3009 9.43147 12.0988 10.0224 12.4571 10.4957L14.0358 12.5599C14.3614 12.9832 14.9272 12.9976 15.2574 12.5599L16.8165 10.4957C17.1823 10.0224 16.9676 9.43147 16.3921 9.43147L15.6772 9.43147C15.1941 7.00177 13.1075 5.28684 10.5125 5.28684C9.40193 5.28684 8.46298 5.59201 7.74305 6.096Z"
                     fill="currentColor" fill-opacity="0.85" />
       </g>
</svg>