<?xml version="1.0" encoding="UTF-8"?>
<!--Generator: Apple Native CoreSVG 326-->
<!DOCTYPE svg PUBLIC "-//W3C//DTD SVG 1.1//EN" "http://www.w3.org/Graphics/SVG/1.1/DTD/svg11.dtd">
<svg version="1.1" xmlns="http://www.w3.org/2000/svg" xmlns:xlink="http://www.w3.org/1999/xlink"
       viewBox="0 0 19.3993 19.0529">
       <g>
              <rect height="19.0529" opacity="0" width="19.3993" x="0" y="0" />
              <path d="M19.0379 3.63912L19.0379 15.4011C19.0379 17.7262 17.7164 19.0379 15.3896 19.0379L3.64834 19.0379C1.32382 19.0379 0 17.7262 0 15.4011L0 3.63912C0 1.32151 1.32382 0 3.64834 0L15.3896 0C17.7164 0 19.0379 1.32151 19.0379 3.63912ZM8.54917 4.66548C8.54917 4.95318 8.67952 5.11404 8.77948 5.25876L9.02004 5.52631C8.95684 5.53377 8.8718 5.53663 8.80629 5.54409C6.74956 5.81267 5.08389 7.72619 5.08389 9.98053C5.08389 12.4926 7.11568 14.5365 9.61338 14.5365C12.1111 14.5365 14.1429 12.4926 14.1429 9.99721C14.1429 9.43729 13.6938 8.9905 13.1511 8.9905C12.5837 8.9905 12.1346 9.43729 12.1346 9.99721C12.1346 11.4026 11.0113 12.5207 9.61338 12.5207C8.20052 12.5207 7.08469 11.39 7.08469 9.99721C7.08469 8.88278 7.78272 7.87656 8.72555 7.70496C8.80774 7.69004 8.89224 7.66996 8.98989 7.62981L8.6848 7.96014C8.60491 8.07217 8.56409 8.24334 8.56409 8.42889C8.56409 9.01404 8.97413 9.33224 9.49959 9.33224C9.74767 9.33224 10.0107 9.21451 10.1629 9.05716L11.9369 7.26817C12.3102 6.90466 12.2981 6.29131 11.9444 5.93526L10.1824 4.15142C10.0078 3.97225 9.75744 3.81951 9.46975 3.81951C8.87714 3.81951 8.54917 4.25193 8.54917 4.66548Z"
                     fill="currentColor" fill-opacity="0.85" />
       </g>
</svg>