<?xml version="1.0" encoding="UTF-8"?>
<!--Generator: Apple Native CoreSVG 326-->
<!DOCTYPE svg PUBLIC "-//W3C//DTD SVG 1.1//EN" "http://www.w3.org/Graphics/SVG/1.1/DTD/svg11.dtd">
<svg version="1.1" xmlns="http://www.w3.org/2000/svg" xmlns:xlink="http://www.w3.org/1999/xlink"
       viewBox="0 0 21.365 21.006">
       <g>
              <rect height="21.006" opacity="0" width="21.365" x="0" y="0" />
              <path d="M10.4981 20.9962C16.302 20.9962 21.0037 16.2946 21.0037 10.4981C21.0037 4.70163 16.302 0 10.4981 0C4.70163 0 0 4.70163 0 10.4981C0 16.2946 4.70163 20.9962 10.4981 20.9962ZM10.4981 17.9484C6.37829 17.9484 3.04785 14.6179 3.04785 10.4981C3.04785 6.37829 6.37829 3.04785 10.4981 3.04785C14.6179 3.04785 17.9558 6.37829 17.9558 10.4981C17.9558 14.6179 14.6179 17.9484 10.4981 17.9484Z"
                     fill="currentColor" fill-opacity="0.85" />
              <path d="M6.39576 10.5502L9.30694 10.5502C10.1132 10.5502 10.5479 10.1167 10.5479 9.31441L10.5479 6.40091C10.5479 5.89322 10.1407 5.4935 9.64049 5.4935C9.1328 5.4935 8.72331 5.89322 8.72331 6.40091L8.72331 6.65561L8.89042 7.5495L7.24434 5.76099C6.85668 5.33889 6.16411 5.34635 5.74662 5.75869C5.32912 6.17618 5.3165 6.86876 5.74892 7.25641L7.52766 8.89042L6.63038 8.72562L6.39576 8.72562C5.89553 8.72562 5.48834 9.12534 5.48834 9.64049C5.48834 10.1407 5.89553 10.5502 6.39576 10.5502ZM11.3511 15.5004C11.8513 15.5004 12.2585 15.1007 12.2585 14.5855L12.2585 14.3383L12.1012 13.4444L13.7398 15.2255C14.1275 15.6625 14.82 15.6476 15.245 15.2352C15.655 14.8103 15.6676 14.1154 15.2427 13.73L13.4565 12.1035L14.3538 12.2608L14.5861 12.2608C15.0863 12.2608 15.4958 11.8611 15.4958 11.3534C15.4958 10.8509 15.0863 10.4362 14.5861 10.4362L11.6847 10.4362C10.871 10.4362 10.4339 10.8772 10.4339 11.6772L10.4339 14.5855C10.4339 15.1007 10.8434 15.5004 11.3511 15.5004Z"
                     fill="currentColor" fill-opacity="0.85" />
       </g>
</svg>