<?xml version="1.0" encoding="UTF-8"?>
<!--Generator: Apple Native CoreSVG 326-->
<!DOCTYPE svg PUBLIC "-//W3C//DTD SVG 1.1//EN" "http://www.w3.org/Graphics/SVG/1.1/DTD/svg11.dtd">
<svg version="1.1" xmlns="http://www.w3.org/2000/svg" xmlns:xlink="http://www.w3.org/1999/xlink"
       viewBox="0 0 23.788 23.4308">
       <g>
              <rect height="23.4308" opacity="0" width="23.788" x="0" y="0" />
              <path d="M14.2954 1.23766L22.1825 9.12477C23.8292 10.779 23.839 12.6398 22.1894 14.2894L14.2908 22.1903C12.6463 23.8325 10.7804 23.8302 9.12615 22.176L1.2442 14.294C-0.410017 12.6398-0.414627 10.7813 1.22982 9.12938L9.13822 1.23075C10.7827-0.413701 12.6486-0.409091 14.2954 1.23766ZM12.613 7.95065L12.613 9.22479L9.72767 9.22479C8.10797 9.22479 7.23993 10.1026 7.23993 11.6827L7.23993 13.8333C7.23993 14.6482 7.73203 15.2287 8.51304 15.2264C9.31182 15.2241 9.80853 14.6482 9.80853 13.8333L9.80853 12.5293C9.80853 12.0389 10.0592 11.7882 10.4858 11.7882L12.613 11.7882L12.613 12.9826C12.613 13.7264 13.354 14.0246 13.9984 13.4973L16.7916 11.2614C17.3643 10.7932 17.3494 10.1378 16.7916 9.67704L13.9984 7.43592C13.354 6.9087 12.613 7.18444 12.613 7.95065Z"
                     fill="currentColor" fill-opacity="0.85" />
       </g>
</svg>