<?xml version="1.0" encoding="UTF-8"?>
<!--Generator: Apple Native CoreSVG 326-->
<!DOCTYPE svg PUBLIC "-//W3C//DTD SVG 1.1//EN" "http://www.w3.org/Graphics/SVG/1.1/DTD/svg11.dtd">
<svg version="1.1" xmlns="http://www.w3.org/2000/svg" xmlns:xlink="http://www.w3.org/1999/xlink"
       viewBox="0 0 21.365 21.006">
       <g>
              <rect height="21.006" opacity="0" width="21.365" x="0" y="0" />
              <path d="M21.0037 10.4981C21.0037 16.2923 16.302 20.9962 10.4981 20.9962C4.70394 20.9962 0 16.2923 0 10.4981C0 4.70163 4.70394 0 10.4981 0C16.302 0 21.0037 4.70163 21.0037 10.4981ZM11.3992 6.73822L11.3992 8.01236L8.50641 8.01236C6.89647 8.01236 6.02612 8.89018 6.02612 10.4703L6.02612 12.6208C6.02612 13.4357 6.51307 14.0163 7.29923 14.014C8.09055 14.0117 8.58726 13.4357 8.58726 12.6208L8.58726 11.3168C8.58726 10.8264 8.8402 10.5758 9.27431 10.5758L11.3992 10.5758L11.3992 11.7702C11.3992 12.514 12.1425 12.8121 12.7846 12.2849L15.5703 10.049C16.1505 9.58075 16.1356 8.92536 15.5703 8.46462L12.7846 6.2235C12.1425 5.69627 11.3992 5.97201 11.3992 6.73822Z"
                     fill="currentColor" fill-opacity="0.85" />
       </g>
</svg>