<?xml version="1.0" encoding="UTF-8"?>
<!--Generator: Apple Native CoreSVG 326-->
<!DOCTYPE svg PUBLIC "-//W3C//DTD SVG 1.1//EN" "http://www.w3.org/Graphics/SVG/1.1/DTD/svg11.dtd">
<svg version="1.1" xmlns="http://www.w3.org/2000/svg" xmlns:xlink="http://www.w3.org/1999/xlink"
       viewBox="0 0 20.1433 19.8328">
       <g>
              <rect height="19.8328" opacity="0" width="20.1433" x="0" y="0" />
              <path d="M7.22274 19.8328C11.5524 19.8328 14.5385 16.9178 14.5385 12.5519L14.5385 7.67148L14.3496 3.56233L13.4303 4.28275L15.4634 6.79931L16.9541 8.32856C17.267 8.64895 17.6414 8.88605 18.169 8.88605C19.0872 8.88605 19.7819 8.2286 19.7819 7.241C19.7819 6.80233 19.5948 6.36191 19.2497 6.0243L14.0849 0.826743C13.7875 0.51952 13.292 0.33464 12.8338 0.33464C12.3733 0.33464 11.8876 0.51952 11.5826 0.826743L6.42536 6.0243C6.08775 6.36191 5.89826 6.80233 5.89826 7.241C5.89826 8.2286 6.59532 8.88605 7.51116 8.88605C8.04112 8.88605 8.41549 8.64895 8.72841 8.32856L10.2117 6.79931L12.2447 4.28275L11.3232 3.56233L11.1365 7.67148L11.1365 12.3328C11.1365 14.8795 9.52209 16.5128 7.25325 16.5128C4.98441 16.5128 3.40202 14.8795 3.40202 12.3328L3.40202 9.97483C3.40202 8.99754 2.64582 8.25056 1.70474 8.25056C0.7562 8.25056 0 8.99754 0 9.97483L0 12.6037C0 16.9414 2.80358 19.8328 7.22274 19.8328Z"
                     fill="currentColor" fill-opacity="0.85" />
       </g>
</svg>