<?xml version="1.0" encoding="UTF-8"?>
<!--Generator: Apple Native CoreSVG 326-->
<!DOCTYPE svg PUBLIC "-//W3C//DTD SVG 1.1//EN" "http://www.w3.org/Graphics/SVG/1.1/DTD/svg11.dtd">
<svg version="1.1" xmlns="http://www.w3.org/2000/svg" xmlns:xlink="http://www.w3.org/1999/xlink"
       viewBox="0 0 19.839 16.2469">
       <g>
              <rect height="16.2469" opacity="0" width="19.839" x="0" y="0" />
              <path d="M19.4777 8.07381C19.4777 7.61331 19.283 7.12757 18.9758 6.82265L12.6803 0.539172C12.3311 0.182575 11.9097 0 11.5037 0C10.488 0 9.82598 0.694755 9.82598 1.6083C9.82598 2.13364 10.0608 2.51492 10.3812 2.82785L12.5687 5.00965L15.4608 7.68682L16.2679 6.5793L12.1311 6.36907L1.7845 6.36907C0.709677 6.36907 0 7.05121 0 8.07381C0 9.09641 0.709677 9.77855 1.7845 9.77855L12.1311 9.77855L16.2679 9.56831L15.4608 8.47056L12.5687 11.138L10.3812 13.3123C10.0608 13.6155 9.82598 14.0065 9.82598 14.5319C9.82598 15.4454 10.488 16.1402 11.5037 16.1402C11.9097 16.1402 12.3311 15.9553 12.6757 15.6056L18.9758 9.32496C19.283 9.02004 19.4777 8.53431 19.4777 8.07381Z"
                     fill="currentColor" fill-opacity="0.85" />
       </g>
</svg>