<?xml version="1.0" encoding="UTF-8"?>
<!--Generator: Apple Native CoreSVG 326-->
<!DOCTYPE svg PUBLIC "-//W3C//DTD SVG 1.1//EN" "http://www.w3.org/Graphics/SVG/1.1/DTD/svg11.dtd">
<svg version="1.1" xmlns="http://www.w3.org/2000/svg" xmlns:xlink="http://www.w3.org/1999/xlink"
       viewBox="0 0 21.365 21.006">
       <g>
              <rect height="21.006" opacity="0" width="21.365" x="0" y="0" />
              <path d="M21.0037 10.4981C21.0037 16.2923 16.302 20.9962 10.4981 20.9962C4.70394 20.9962 0 16.2923 0 10.4981C0 4.70163 4.70394 0 10.4981 0C16.302 0 21.0037 4.70163 21.0037 10.4981ZM11.3294 5.90487C11.3294 6.13748 11.4248 6.37756 11.6235 6.54182L12.5799 7.40932L13.1992 7.84714L12.4844 7.77593L9.54096 7.77593C7.01584 7.77593 5.33913 9.38998 5.33913 11.8008C5.33913 14.2989 7.01069 15.9566 9.52088 15.9566L11.0258 15.9566C11.7109 15.9566 12.1651 15.5368 12.1651 14.9108C12.1651 14.3021 11.7057 13.8972 11.0229 13.8972L9.52088 13.8972C8.26263 13.8972 7.43583 13.0596 7.43583 11.8008C7.43583 10.5599 8.26548 9.71595 9.54096 9.71595L12.4844 9.71595L13.1895 9.65451L12.641 10.0215L11.6235 10.8582C11.4173 11.0271 11.3145 11.2626 11.3145 11.4923C11.3145 12.0167 11.771 12.4606 12.2684 12.4606C12.5154 12.4606 12.7583 12.3676 12.9324 12.1936L15.6999 9.40478C15.9003 9.19685 15.9934 8.94471 15.9934 8.70748C15.9934 8.45303 15.8906 8.20834 15.6999 8.01534L12.9347 5.21854C12.7509 5.03476 12.5252 4.94402 12.2931 4.94402C11.7911 4.94402 11.3294 5.39311 11.3294 5.90487Z"
                     fill="currentColor" fill-opacity="0.85" />
       </g>
</svg>