<?xml version="1.0" encoding="UTF-8"?>
<!--Generator: Apple Native CoreSVG 326-->
<!DOCTYPE svg PUBLIC "-//W3C//DTD SVG 1.1//EN" "http://www.w3.org/Graphics/SVG/1.1/DTD/svg11.dtd">
<svg version="1.1" xmlns="http://www.w3.org/2000/svg" xmlns:xlink="http://www.w3.org/1999/xlink"
       viewBox="0 0 21.365 21.006">
       <g>
              <rect height="21.006" opacity="0" width="21.365" x="0" y="0" />
              <path d="M10.4981 20.9962C16.302 20.9962 21.0037 16.2946 21.0037 10.4981C21.0037 4.70163 16.302 0 10.4981 0C4.70163 0 0 4.70163 0 10.4981C0 16.2946 4.70163 20.9962 10.4981 20.9962ZM10.4981 17.9484C6.37829 17.9484 3.04785 14.6179 3.04785 10.4981C3.04785 6.37829 6.37829 3.04785 10.4981 3.04785C14.6179 3.04785 17.9558 6.37829 17.9558 10.4981C17.9558 14.6179 14.6179 17.9484 10.4981 17.9484Z"
                     fill="currentColor" fill-opacity="0.85" />
              <path d="M5.58885 10.4958C5.58885 10.8329 5.69967 11.1877 6.03158 11.5173L8.97807 14.5908C9.1917 14.8044 9.4174 14.9273 9.73439 14.9273C10.3437 14.9273 10.7686 14.3956 10.7686 13.8511C10.7686 13.5313 10.6308 13.2493 10.4074 13.038L9.35511 12.046L8.60789 11.6414L9.9832 11.7522L14.1584 11.7522C14.8297 11.7522 15.4125 11.1992 15.4125 10.4958C15.4125 9.77745 14.8297 9.22961 14.1584 9.22961L9.9832 9.22961L8.60789 9.35019L9.35511 8.94562L10.4074 7.94619C10.6308 7.74232 10.7686 7.46264 10.7686 7.1428C10.7686 6.59089 10.3437 6.06433 9.73439 6.06433C9.4174 6.06433 9.1917 6.17976 8.97807 6.39339L6.03158 9.47429C5.69967 9.8039 5.58885 10.149 5.58885 10.4958Z"
                     fill="currentColor" fill-opacity="0.85" />
       </g>
</svg>