<?xml version="1.0" encoding="UTF-8"?>
<!--Generator: Apple Native CoreSVG 326-->
<!DOCTYPE svg PUBLIC "-//W3C//DTD SVG 1.1//EN" "http://www.w3.org/Graphics/SVG/1.1/DTD/svg11.dtd">
<svg version="1.1" xmlns="http://www.w3.org/2000/svg" xmlns:xlink="http://www.w3.org/1999/xlink"
       viewBox="0 0 23.8214 19.0529">
       <g>
              <rect height="19.0529" opacity="0" width="23.8214" x="0" y="0" />
              <path d="M23.4601 3.65404L23.4601 15.416C23.4601 17.7336 22.1386 19.0529 19.8117 19.0529L3.64834 19.0529C1.32382 19.0529 0 17.7336 0 15.416L0 3.65404C0 1.32897 1.32382 0.0149214 3.64834 0.0149214L19.8117 0.0149214C22.1386 0.0149214 23.4601 1.32897 23.4601 3.65404ZM6.5719 9.49886C6.0653 9.49886 5.6805 9.88882 5.6805 10.3857C5.6805 10.8876 6.0653 11.2701 6.57651 11.2701L7.5023 11.2701L8.51356 11.173L7.41727 12.0029L5.8342 13.5808C5.61026 13.8071 5.48792 14.0845 5.48792 14.3469C5.48792 14.8908 5.9301 15.3307 6.49178 15.3307C6.76346 15.3307 7.04369 15.2204 7.30208 14.9718L8.84038 13.4335L9.67258 12.3418L9.60016 13.3939L9.60016 14.2616C9.60016 14.7705 9.98035 15.1628 10.4823 15.1628C10.9866 15.1628 11.3617 14.7585 11.3617 14.257L11.3617 10.7398C11.3617 9.95706 10.8925 9.49886 10.1207 9.49886ZM16.158 4.08852L14.6197 5.62913L13.7875 6.71851L13.8599 5.66873L13.8599 4.80099C13.8599 4.29955 13.4797 3.90498 12.9777 3.90498C12.4734 3.90498 12.0984 4.30416 12.0984 4.81306L12.0984 8.3228C12.0984 9.11072 12.5699 9.56376 13.3417 9.56376L16.8882 9.56376C17.3948 9.56376 17.7819 9.18127 17.7819 8.67697C17.7819 8.18244 17.3948 7.79248 16.8836 7.79248L15.9578 7.79248L14.9465 7.89706L16.0428 7.0597L17.6282 5.47949C17.8521 5.2607 17.9745 4.97817 17.9745 4.72317C17.9745 4.1718 17.53 3.72962 16.9683 3.72962C16.6966 3.72962 16.4164 3.83989 16.158 4.08852Z"
                     fill="currentColor" fill-opacity="0.85" />
       </g>
</svg>