<?xml version="1.0" encoding="UTF-8"?>
<!--Generator: Apple Native CoreSVG 326-->
<!DOCTYPE svg PUBLIC "-//W3C//DTD SVG 1.1//EN" "http://www.w3.org/Graphics/SVG/1.1/DTD/svg11.dtd">
<svg version="1.1" xmlns="http://www.w3.org/2000/svg" xmlns:xlink="http://www.w3.org/1999/xlink"
       viewBox="0 0 21.365 21.006">
       <g>
              <rect height="21.006" opacity="0" width="21.365" x="0" y="0" />
              <path d="M10.4981 20.9962C16.302 20.9962 21.0037 16.2946 21.0037 10.4981C21.0037 4.70163 16.302 0 10.4981 0C4.70163 0 0 4.70163 0 10.4981C0 16.2946 4.70163 20.9962 10.4981 20.9962ZM10.4981 17.9484C6.37829 17.9484 3.04785 14.6179 3.04785 10.4981C3.04785 6.37829 6.37829 3.04785 10.4981 3.04785C14.6179 3.04785 17.9558 6.37829 17.9558 10.4981C17.9558 14.6179 14.6179 17.9484 10.4981 17.9484Z"
                     fill="currentColor" fill-opacity="0.85" />
              <path d="M4.95433 11.5165L8.24328 11.5165C8.78203 11.5165 8.97898 10.9599 8.63555 10.5189L7.1505 8.58271C6.84953 8.18178 6.3257 8.17717 6.01496 8.58271L4.55691 10.5189C4.21348 10.9599 4.41043 11.5165 4.95433 11.5165ZM10.4935 15.4073C11.479 15.4073 12.3995 15.105 13.1423 14.6303C13.7649 14.2466 13.8045 13.632 13.538 13.2099C13.2761 12.8125 12.7397 12.6081 12.1446 12.9895C11.6768 13.3033 11.12 13.4936 10.4935 13.4936C8.84032 13.4936 7.498 12.1438 7.498 10.4981L5.57684 10.4981C5.57684 13.2098 7.77435 15.4073 10.4935 15.4073ZM16.0327 9.47745L12.746 9.47745C12.205 9.47745 12.0103 10.0363 12.3463 10.4751L13.8313 12.4135C14.1398 12.8121 14.6636 12.8191 14.9743 12.4135L16.4324 10.4751C16.7735 10.0363 16.5714 9.47745 16.0327 9.47745ZM10.4935 5.58145C9.50287 5.58145 8.58235 5.88376 7.84696 6.36361C7.22438 6.74963 7.18477 7.36189 7.4513 7.77884C7.7109 8.17395 8.24965 8.38813 8.84469 8.00672C9.30501 7.69058 9.86935 7.50261 10.4935 7.50261C12.1415 7.50261 13.489 8.84493 13.489 10.4981L15.4027 10.4981C15.4027 7.77896 13.2075 5.58145 10.4935 5.58145Z"
                     fill="currentColor" fill-opacity="0.85" />
       </g>
</svg>