<?xml version="1.0" encoding="UTF-8"?>
<!--Generator: Apple Native CoreSVG 326-->
<!DOCTYPE svg PUBLIC "-//W3C//DTD SVG 1.1//EN" "http://www.w3.org/Graphics/SVG/1.1/DTD/svg11.dtd">
<svg version="1.1" xmlns="http://www.w3.org/2000/svg" xmlns:xlink="http://www.w3.org/1999/xlink"
       viewBox="0 0 18.4057 24.5181">
       <g>
              <rect height="24.5181" opacity="0" width="18.4057" x="0" y="0" />
              <path d="M18.0444 12.9171C18.0444 7.93515 14.0079 3.89121 9.02593 3.89121C8.84802 3.89121 8.68219 3.9148 8.52503 3.93785L10.123 2.43176C10.379 2.19345 10.5318 1.89368 10.5318 1.47971C10.5318 0.657452 9.88639 0 9.08136 0C8.68285 0 8.35325 0.137811 8.08224 0.420893L4.11848 4.46562C3.82048 4.77855 3.65052 5.15006 3.65052 5.54397C3.65052 5.96255 3.80095 6.322 4.11848 6.62977L8.08224 10.6653C8.34809 10.9214 8.68055 11.0615 9.08136 11.0615C9.88639 11.0615 10.5318 10.4236 10.5318 9.60877C10.5318 9.19479 10.3739 8.90765 10.1206 8.65671L8.38698 6.95234C8.57519 6.91261 8.79107 6.90109 9.02593 6.90109C12.3405 6.90109 15.0397 9.59282 15.0397 12.9148C15.0397 16.2294 12.3405 18.9286 9.02593 18.9286C5.70392 18.9286 3.01218 16.2294 3.01218 12.9148C3.01218 11.991 2.39094 11.3657 1.51931 11.3657C0.63792 11.3657 0 11.991 0 12.9171C0 17.8991 4.03648 21.9431 9.02593 21.9431C14.0079 21.9431 18.0444 17.8991 18.0444 12.9171Z"
                     fill="currentColor" fill-opacity="0.85" />
       </g>
</svg>