<?xml version="1.0" encoding="UTF-8"?>
<!--Generator: Apple Native CoreSVG 326-->
<!DOCTYPE svg PUBLIC "-//W3C//DTD SVG 1.1//EN" "http://www.w3.org/Graphics/SVG/1.1/DTD/svg11.dtd">
<svg version="1.1" xmlns="http://www.w3.org/2000/svg" xmlns:xlink="http://www.w3.org/1999/xlink"
       viewBox="0 0 19.3993 19.0529">
       <g>
              <rect height="19.0529" opacity="0" width="19.3993" x="0" y="0" />
              <path d="M19.0379 3.63912L19.0379 15.4011C19.0379 17.7262 17.7164 19.0379 15.3896 19.0379L3.64834 19.0379C1.32382 19.0379 0 17.7262 0 15.4011L0 3.63912C0 1.32151 1.32382 0 3.64834 0L15.3896 0C17.7164 0 19.0379 1.32151 19.0379 3.63912ZM7.68573 5.1275C6.87894 5.1275 6.35239 5.56968 6.35239 6.28749C6.35239 7.00299 6.87379 7.43771 7.66796 7.43771L8.96957 7.43771L10.031 7.28146L8.73477 8.37327L5.69015 11.4156C5.42429 11.6889 5.26179 12.0656 5.26179 12.425C5.26179 13.2347 5.88303 13.7813 6.63584 13.7813C7.02173 13.7813 7.37372 13.6486 7.69926 13.3306L10.702 10.333L11.7915 9.04886L11.6599 10.1586L11.6599 11.3648C11.6599 12.1641 12.0946 12.6855 12.8124 12.6855C13.5205 12.6855 13.9575 12.1647 13.9575 11.3751L13.9575 6.74095C13.9575 5.71253 13.3494 5.1275 12.3245 5.1275Z"
                     fill="currentColor" fill-opacity="0.85" />
       </g>
</svg>