<?xml version="1.0" encoding="UTF-8"?>
<!--Generator: Apple Native CoreSVG 326-->
<!DOCTYPE svg PUBLIC "-//W3C//DTD SVG 1.1//EN" "http://www.w3.org/Graphics/SVG/1.1/DTD/svg11.dtd">
<svg version="1.1" xmlns="http://www.w3.org/2000/svg" xmlns:xlink="http://www.w3.org/1999/xlink"
       viewBox="0 0 21.365 21.006">
       <g>
              <rect height="21.006" opacity="0" width="21.365" x="0" y="0" />
              <path d="M21.0037 10.4981C21.0037 16.2923 16.302 20.9962 10.4981 20.9962C4.70394 20.9962 0 16.2923 0 10.4981C0 4.70163 4.70394 0 10.4981 0C16.302 0 21.0037 4.70163 21.0037 10.4981ZM8.13671 5.21854L5.37152 8.01534C5.18082 8.20834 5.078 8.45303 5.078 8.70748C5.078 8.94471 5.17105 9.19685 5.37152 9.40478L8.13901 12.1936C8.30557 12.3676 8.55596 12.4606 8.80295 12.4606C9.30033 12.4606 9.75459 12.0167 9.75459 11.4923C9.75459 11.2626 9.65408 11.0271 9.44791 10.8582L8.43041 10.0215L7.88189 9.65451L8.58702 9.71595L11.5281 9.71595C12.8059 9.71595 13.6355 10.5599 13.6355 11.8008C13.6355 13.0596 12.8087 13.8972 11.5482 13.8972L10.0485 13.8972C9.36566 13.8972 8.90625 14.3021 8.90625 14.9108C8.90625 15.5368 9.3605 15.9566 10.0456 15.9566L11.5482 15.9566C14.0607 15.9566 15.7322 14.2989 15.7322 11.8008C15.7322 9.38998 14.0555 7.77593 11.5281 7.77593L8.58702 7.77593L7.87213 7.84714L8.49142 7.40932L9.44791 6.54182C9.64662 6.37756 9.73967 6.13748 9.73967 5.90487C9.73967 5.39311 9.28026 4.94402 8.77827 4.94402C8.5462 4.94402 8.3205 5.03476 8.13671 5.21854Z"
                     fill="currentColor" fill-opacity="0.85" />
       </g>
</svg>