<?xml version="1.0" encoding="UTF-8"?>
<!--Generator: Apple Native CoreSVG 326-->
<!DOCTYPE svg PUBLIC "-//W3C//DTD SVG 1.1//EN" "http://www.w3.org/Graphics/SVG/1.1/DTD/svg11.dtd">
<svg version="1.1" xmlns="http://www.w3.org/2000/svg" xmlns:xlink="http://www.w3.org/1999/xlink"
       viewBox="0 0 21.0145 19.9578">
       <g>
              <rect height="19.9578" opacity="0" width="21.0145" x="0" y="0" />
              <path d="M0.200105 7.28498C0.200105 11.4974 3.74612 15.7085 9.05249 19.2242C9.62315 19.5973 10.2168 19.9578 10.6061 19.9578C10.9977 19.9578 11.5891 19.5973 12.1621 19.2242C17.4685 15.7085 21.0145 11.4974 21.0145 7.28498C21.0145 3.25347 18.1863 0.595703 14.8931 0.595703C12.885 0.595703 11.45 1.4327 10.6061 2.61676C9.76684 1.435 8.337 0.595703 6.31915 0.595703C3.02826 0.595703 0.200105 3.25347 0.200105 7.28498ZM3.45103 7.24767C3.45103 5.15734 4.9069 3.70488 6.82933 3.70488C8.36168 3.70488 9.1604 4.5341 9.74294 5.32415C10.0215 5.72969 10.2771 5.91918 10.6061 5.91918C10.9375 5.91918 11.1661 5.71993 11.4642 5.32415C12.0858 4.53125 12.8552 3.70488 14.3829 3.70488C16.3077 3.70488 17.7636 5.15734 17.7636 7.24767C17.7636 10.1344 14.9329 13.6326 10.7366 16.4221C10.6837 16.4606 10.6452 16.487 10.6061 16.487C10.5694 16.487 10.5309 16.4606 10.478 16.4221C6.28919 13.6326 3.45103 10.1344 3.45103 7.24767Z"
                     fill="currentColor" fill-opacity="0.85" />
              <path d="M11.5187 13.1642L11.5187 11.1258L11.4056 9.83472L11.8999 10.3859L12.2147 10.7276C12.3738 10.939 12.6787 11.0992 12.9635 11.0992C13.5407 11.0992 13.9829 10.684 13.9829 10.1269C13.9829 9.8076 13.8875 9.5819 13.6193 9.34819L11.2987 7.25732C11.019 6.99716 10.7136 6.83181 10.3266 6.83181C9.93959 6.83181 9.63412 6.99716 9.35444 7.25732L7.0338 9.34819C6.76564 9.5819 6.67029 9.8076 6.67029 10.1269C6.67029 10.684 7.11017 11.0992 7.69707 11.0992C7.97961 11.0992 8.26676 10.939 8.43847 10.7276L8.76068 10.3859L9.24756 9.83472L9.13674 11.1258L9.13674 13.1642C9.13674 13.8257 9.67252 14.2622 10.3266 14.2622C10.9806 14.2622 11.5187 13.8257 11.5187 13.1642Z"
                     fill="currentColor" fill-opacity="0.85" />
       </g>
</svg>