<?xml version="1.0" encoding="UTF-8"?>
<!--Generator: Apple Native CoreSVG 326-->
<!DOCTYPE svg PUBLIC "-//W3C//DTD SVG 1.1//EN" "http://www.w3.org/Graphics/SVG/1.1/DTD/svg11.dtd">
<svg version="1.1" xmlns="http://www.w3.org/2000/svg" xmlns:xlink="http://www.w3.org/1999/xlink"
       viewBox="0 0 17.5033 16.3578">
       <g>
              <rect height="16.3578" opacity="0" width="17.5033" x="0" y="0" />
              <path d="M14.7857 0.0172263C14.313 0.0172263 13.8961 0.190703 13.277 0.49277L1.49663 6.21348C0.524797 6.69079 0 7.33047 0 8.18378C0 9.04455 0.524797 9.67907 1.49663 10.1564L13.277 15.8748C13.8984 16.1769 14.3153 16.3578 14.788 16.3578C15.7718 16.3578 16.6365 15.602 16.6365 14.3122L16.6365 2.06279C16.6365 0.765541 15.7695 0.0172263 14.7857 0.0172263ZM13.4894 3.90947C13.5405 3.90947 13.5646 3.95084 13.5646 4.01174L13.5669 12.3633C13.5669 12.4339 13.5428 12.4655 13.4917 12.4655C13.4601 12.4655 13.4359 12.4535 13.3894 12.4339L4.38095 8.27628C4.33212 8.24929 4.30798 8.22514 4.30798 8.18378C4.30798 8.14241 4.33212 8.11827 4.38095 8.09874L13.3871 3.95084C13.4336 3.92154 13.4578 3.90947 13.4894 3.90947Z"
                     fill="currentColor" fill-opacity="0.85" />
       </g>
</svg>