<?xml version="1.0" encoding="UTF-8"?>
<!--Generator: Apple Native CoreSVG 326-->
<!DOCTYPE svg PUBLIC "-//W3C//DTD SVG 1.1//EN" "http://www.w3.org/Graphics/SVG/1.1/DTD/svg11.dtd">
<svg version="1.1" xmlns="http://www.w3.org/2000/svg" xmlns:xlink="http://www.w3.org/1999/xlink"
       viewBox="0 0 19.3993 19.0529">
       <g>
              <rect height="19.0529" opacity="0" width="19.3993" x="0" y="0" />
              <path d="M19.0379 3.63912L19.0379 15.4011C19.0379 17.7262 17.7164 19.0379 15.3896 19.0379L3.64834 19.0379C1.32382 19.0379 0 17.7262 0 15.4011L0 3.63912C0 1.32151 1.32382 0 3.64834 0L15.3896 0C17.7164 0 19.0379 1.32151 19.0379 3.63912ZM6.13997 12.6996C5.57029 12.6996 5.1178 13.1544 5.1178 13.7143C5.1178 14.2863 5.57029 14.7411 6.13997 14.7411L13.0891 14.7411C13.6588 14.7411 14.1113 14.2863 14.1113 13.7143C14.1113 13.1544 13.6588 12.6996 13.0891 12.6996ZM8.53952 4.87602L8.53952 7.76197L8.66417 9.12273L7.73098 8.03954L7.08997 7.39215C6.88841 7.18083 6.66501 7.04017 6.3331 7.04017C5.7485 7.04017 5.31323 7.47028 5.31323 8.08988C5.31323 8.34542 5.42866 8.62741 5.6526 8.83644L8.81976 11.8654C9.01846 12.0514 9.2987 12.1818 9.61107 12.1818C9.92576 12.1818 10.2037 12.0468 10.3949 11.8654L13.5793 8.83874C13.8125 8.63257 13.9084 8.35234 13.9084 8.08988C13.9084 7.47489 13.4783 7.04017 12.9132 7.04017C12.5784 7.04017 12.3407 7.18829 12.1316 7.39215L11.4768 8.04184L10.5505 9.12042L10.6729 7.76197L10.6729 4.87602C10.6729 4.20705 10.2479 3.75225 9.61107 3.75225C8.96964 3.75225 8.53952 4.20705 8.53952 4.87602Z"
                     fill="currentColor" fill-opacity="0.85" />
       </g>
</svg>