<?xml version="1.0" encoding="UTF-8"?>
<!--Generator: Apple Native CoreSVG 326-->
<!DOCTYPE svg PUBLIC "-//W3C//DTD SVG 1.1//EN" "http://www.w3.org/Graphics/SVG/1.1/DTD/svg11.dtd">
<svg version="1.1" xmlns="http://www.w3.org/2000/svg" xmlns:xlink="http://www.w3.org/1999/xlink"
       viewBox="0 0 19.1614 16.3174">
       <g>
              <rect height="16.3174" opacity="0" width="19.1614" x="0" y="0" />
              <path d="M16.9346 16.3111C18.0789 16.3111 18.5595 15.3673 18.6698 14.6312C18.7731 13.9577 18.8001 13.3799 18.8001 12.821C18.8001 8.62414 16.8557 6.36907 12.687 6.36907L7.36044 6.36907L5.22898 6.49086L6.92341 5.00504L9.1063 2.82785C9.41922 2.51492 9.65402 2.13364 9.65402 1.60084C9.65402 0.694755 8.99196 0 7.97627 0C7.5703 0 7.14656 0.182575 6.79742 0.531712L0.504174 6.82265C0.19695 7.12011 0 7.61561 0 8.07381C0 8.53431 0.19695 9.02004 0.504174 9.32727L6.80203 15.6079C7.14886 15.9501 7.5703 16.135 7.97627 16.135C8.99196 16.135 9.65402 15.4402 9.65402 14.5342C9.65402 14.0014 9.41922 13.6178 9.1063 13.3048L6.92341 11.1351L5.22668 9.64929L7.36044 9.77339L12.3977 9.77339C14.5567 9.77339 15.3762 10.6437 15.3762 12.8194C15.3762 13.5917 15.3194 14.1825 15.3194 14.6362C15.3194 15.6462 15.9493 16.3111 16.9346 16.3111Z"
                     fill="currentColor" fill-opacity="0.85" />
       </g>
</svg>