<?xml version="1.0" encoding="UTF-8"?>
<!--Generator: Apple Native CoreSVG 326-->
<!DOCTYPE svg PUBLIC "-//W3C//DTD SVG 1.1//EN" "http://www.w3.org/Graphics/SVG/1.1/DTD/svg11.dtd">
<svg version="1.1" xmlns="http://www.w3.org/2000/svg" xmlns:xlink="http://www.w3.org/1999/xlink"
       viewBox="0 0 22.8269 18.9897">
       <g>
              <rect height="18.9897" opacity="0" width="22.8269" x="0" y="0" />
              <path d="M10.2722 18.9897C11.3167 18.9897 12.1086 18.1955 12.1086 17.1607L12.1086 14.318L12.2277 14.318C15.1886 14.318 16.7656 15.6257 17.8106 17.5135C18.3389 18.4667 18.9001 18.8181 19.6907 18.8181C20.8425 18.8181 21.4874 17.6629 21.4874 15.3235C21.4874 8.61401 18.192 4.74621 12.2277 4.74621L12.1086 4.74621L12.1086 1.8531C12.1086 0.818312 11.3167 0.0051558 10.2676 0.0051558C9.6249 0.0051558 9.13104 0.240077 8.43441 0.885033L0.609958 8.09206C0.206716 8.47577 0 9.00124 0 9.49741C0 9.96142 0.216482 10.5265 0.624879 10.9079L8.43441 18.1311C9.07475 18.7272 9.59967 18.9897 10.2722 18.9897ZM9.4917 15.2636C9.44057 15.2636 9.38198 15.2343 9.33315 15.1832L3.47444 9.66803C3.40378 9.59737 3.37448 9.54854 3.37448 9.49741C3.37448 9.43881 3.40378 9.39514 3.47444 9.32678L9.33084 3.78343C9.37967 3.74436 9.43827 3.72768 9.4894 3.72768C9.58475 3.72768 9.65596 3.79374 9.65596 3.90171L9.65596 7.05497C9.65596 7.27212 9.74846 7.36231 9.96561 7.36231L11.0429 7.36231C16.2276 7.36231 18.9429 10.153 19.004 14.8967C19.004 14.9524 18.9821 14.9817 18.9408 14.9817C18.9017 14.9817 18.8822 14.9599 18.8529 14.899C17.6632 12.5001 15.0847 11.6348 11.0429 11.6348L9.96561 11.6348C9.74846 11.6348 9.65596 11.725 9.65596 11.9421L9.65596 15.0724C9.65596 15.1826 9.58475 15.2636 9.4917 15.2636Z"
                     fill="currentColor" fill-opacity="0.85" />
       </g>
</svg>