<?xml version="1.0" encoding="UTF-8"?>
<!--Generator: Apple Native CoreSVG 326-->
<!DOCTYPE svg PUBLIC "-//W3C//DTD SVG 1.1//EN" "http://www.w3.org/Graphics/SVG/1.1/DTD/svg11.dtd">
<svg version="1.1" xmlns="http://www.w3.org/2000/svg" xmlns:xlink="http://www.w3.org/1999/xlink"
       viewBox="0 0 21.365 21.006">
       <g>
              <rect height="21.006" opacity="0" width="21.365" x="0" y="0" />
              <path d="M10.4981 20.9962C16.302 20.9962 21.0037 16.2946 21.0037 10.4981C21.0037 4.70163 16.302 0 10.4981 0C4.70163 0 0 4.70163 0 10.4981C0 16.2946 4.70163 20.9962 10.4981 20.9962ZM10.4981 17.9484C6.37829 17.9484 3.04785 14.6179 3.04785 10.4981C3.04785 6.37829 6.37829 3.04785 10.4981 3.04785C14.6179 3.04785 17.9558 6.37829 17.9558 10.4981C17.9558 14.6179 14.6179 17.9484 10.4981 17.9484Z"
                     fill="currentColor" fill-opacity="0.85" />
              <path d="M6.89411 14.7152C7.42188 14.7152 7.84453 14.2874 7.84453 13.7573L7.84453 7.22911C7.84453 6.69904 7.42188 6.27869 6.89411 6.27869C6.36404 6.27869 5.93908 6.69904 5.93908 7.22911L5.93908 13.7573C5.93908 14.2874 6.36404 14.7152 6.89411 14.7152ZM16.243 10.5004C16.243 9.90319 15.818 9.50292 15.1932 9.50292L12.4641 9.50292L11.1843 9.62527L12.2118 8.74036L12.8195 8.12743C13.0159 7.94079 13.1491 7.72024 13.1491 7.41017C13.1491 6.86748 12.7466 6.46436 12.1689 6.46436C11.926 6.46436 11.6779 6.56772 11.474 6.78135L8.62711 9.76362C8.45079 9.94741 8.3279 10.2104 8.3279 10.5004C8.3279 10.7881 8.44848 11.0534 8.62711 11.2349L11.4717 14.2177C11.6583 14.4193 11.9306 14.5221 12.1712 14.5221C12.7512 14.5221 13.1491 14.1264 13.1491 13.5889C13.1491 13.2742 13.0085 13.0508 12.8195 12.8665L12.2095 12.2605L11.182 11.3756L12.4641 11.4979L15.1932 11.4979C15.818 11.4979 16.243 11.0999 16.243 10.5004Z"
                     fill="currentColor" fill-opacity="0.85" />
       </g>
</svg>