<?xml version="1.0" encoding="UTF-8"?>
<!--Generator: Apple Native CoreSVG 326-->
<!DOCTYPE svg PUBLIC "-//W3C//DTD SVG 1.1//EN" "http://www.w3.org/Graphics/SVG/1.1/DTD/svg11.dtd">
<svg version="1.1" xmlns="http://www.w3.org/2000/svg" xmlns:xlink="http://www.w3.org/1999/xlink"
       viewBox="0 0 21.365 21.0106">
       <g>
              <rect height="21.0106" opacity="0" width="21.365" x="0" y="0" />
              <path d="M10.4981 20.9962C16.302 20.9962 21.0037 16.2946 21.0037 10.4981C21.0037 4.70163 16.302 0 10.4981 0C4.70163 0 0 4.70163 0 10.4981C0 16.2946 4.70163 20.9962 10.4981 20.9962ZM10.4981 17.9484C6.37829 17.9484 3.04785 14.6179 3.04785 10.4981C3.04785 6.37829 6.37829 3.04785 10.4981 3.04785C14.6179 3.04785 17.9558 6.37829 17.9558 10.4981C17.9558 14.6179 14.6179 17.9484 10.4981 17.9484Z"
                     fill="currentColor" fill-opacity="0.85" />
              <path d="M10.5153 15.3931C11.3067 15.3931 11.7167 14.8143 11.595 14.0706L11.3057 11.887L13.042 13.2626C13.278 13.4773 13.5484 13.5806 13.8557 13.5806C14.4426 13.5806 14.9405 13.0667 14.9405 12.4269C14.9405 11.948 14.6597 11.5391 14.1509 11.3634L12.0564 10.5045L14.1509 9.64789C14.6597 9.47211 14.9405 9.07591 14.9405 8.59927C14.9405 7.94971 14.4426 7.46561 13.8557 7.46561C13.5484 7.46561 13.278 7.56897 13.042 7.77107L11.2684 9.18448L11.5801 6.92043C11.7167 6.0849 11.1724 5.6031 10.5153 5.6031C9.84108 5.6031 9.26746 6.09697 9.41152 6.94282L9.71577 9.18448L7.95711 7.77338C7.73602 7.56381 7.45063 7.47022 7.15833 7.47022C6.56396 7.47022 6.05111 7.97439 6.05111 8.60158C6.05111 9.08052 6.31697 9.46696 6.84813 9.6525L8.93057 10.5045L6.85559 11.3536C6.34681 11.5368 6.05111 11.9181 6.05111 12.3948C6.05111 13.042 6.56396 13.5709 7.15833 13.5709C7.44317 13.5709 7.71363 13.475 7.94965 13.2603L9.70085 11.887L9.40405 14.0706C9.27492 14.8097 9.69933 15.3931 10.5153 15.3931Z"
                     fill="currentColor" fill-opacity="0.85" />
       </g>
</svg>