<?xml version="1.0" encoding="UTF-8"?>
<!--Generator: Apple Native CoreSVG 326-->
<!DOCTYPE svg PUBLIC "-//W3C//DTD SVG 1.1//EN" "http://www.w3.org/Graphics/SVG/1.1/DTD/svg11.dtd">
<svg version="1.1" xmlns="http://www.w3.org/2000/svg" xmlns:xlink="http://www.w3.org/1999/xlink"
       viewBox="0 0 21.365 21.006">
       <g>
              <rect height="21.006" opacity="0" width="21.365" x="0" y="0" />
              <path d="M21.0037 10.4981C21.0037 16.2923 16.302 20.9962 10.4981 20.9962C4.70394 20.9962 0 16.2923 0 10.4981C0 4.70163 4.70394 0 10.4981 0C16.302 0 21.0037 4.70163 21.0037 10.4981ZM4.81088 10.5027C4.81088 13.9719 7.18568 16.2647 10.7444 16.2647C11.461 16.2647 12.1258 16.2146 12.5677 16.0589C12.9354 15.9148 13.1474 15.6809 13.1474 15.2944C13.1474 14.8653 12.8338 14.5741 12.36 14.5741C12.1924 14.5741 11.9036 14.596 11.6894 14.6029C11.3685 14.6547 11.1798 14.6852 10.9202 14.6852C8.18505 14.6852 6.46618 13.0921 6.46618 10.532C6.46618 7.99896 8.14259 6.29434 10.6331 6.29434C13.0053 6.29434 14.6403 7.78005 14.6403 10.0086C14.6403 11.2279 14.1996 11.9181 13.7358 11.9181C13.4513 11.9181 13.3041 11.7239 13.3041 11.3275L13.3041 8.56403C13.3041 7.97997 12.9136 7.59978 12.3319 7.59978C11.819 7.59978 11.4681 7.9249 11.4681 8.3481L11.4681 8.40912C11.1544 7.89736 10.5862 7.59978 9.91187 7.59978C8.48827 7.59978 7.52135 8.78385 7.52135 10.5125C7.52135 12.3129 8.51811 13.5291 10.0158 13.5291C10.7453 13.5366 11.3003 13.2298 11.6387 12.6444C11.8921 13.1729 12.5297 13.5216 13.3753 13.5216C15.1157 13.5216 16.272 12.0883 16.272 9.99193C16.272 6.83928 14.0132 4.72462 10.6354 4.72462C7.15529 4.72462 4.81088 7.04096 4.81088 10.5027ZM11.3253 10.5434C11.3253 11.3646 10.9976 11.821 10.4516 11.821C9.93025 11.821 9.61696 11.3693 9.61696 10.5503C9.61696 9.74118 9.94001 9.26473 10.4614 9.26473C10.9925 9.26473 11.3253 9.73657 11.3253 10.5434Z"
                     fill="currentColor" fill-opacity="0.85" />
       </g>
</svg>