<?xml version="1.0" encoding="UTF-8"?>
<!--Generator: Apple Native CoreSVG 326-->
<!DOCTYPE svg PUBLIC "-//W3C//DTD SVG 1.1//EN" "http://www.w3.org/Graphics/SVG/1.1/DTD/svg11.dtd">
<svg version="1.1" xmlns="http://www.w3.org/2000/svg" xmlns:xlink="http://www.w3.org/1999/xlink"
       viewBox="0 0 6.74677 23.9018">
       <g>
              <rect height="23.9018" opacity="0" width="6.74677" x="0" y="0" />
              <path d="M3.20507 20.1173C4.95924 20.1173 6.38545 18.6836 6.38545 16.9294L6.38545 11.2706C6.38545 10.7945 6.04432 10.4483 5.55331 10.4483L0.849367 10.4483C0.353746 10.4483 0 10.7945 0 11.2706L0 16.9294C0 18.6836 1.43367 20.1173 3.20507 20.1173ZM2.0714 23.8944L4.3215 23.8944L4.3215 18.7439L2.0714 18.7439ZM1.99898 9.05201L4.38647 9.05201L4.38647 3.8795L1.99898 3.8795ZM1.99898 2.51377L4.38647 2.51377L4.38647 0.834446C4.38647 0.338825 4.04018 0 3.55663 0L2.82882 0C2.34527 0 1.99898 0.338825 1.99898 0.834446Z"
                     fill="currentColor" fill-opacity="0.85" />
       </g>
</svg>