<?xml version="1.0" encoding="UTF-8"?>
<!--Generator: Apple Native CoreSVG 326-->
<!DOCTYPE svg PUBLIC "-//W3C//DTD SVG 1.1//EN" "http://www.w3.org/Graphics/SVG/1.1/DTD/svg11.dtd">
<svg version="1.1" xmlns="http://www.w3.org/2000/svg" xmlns:xlink="http://www.w3.org/1999/xlink"
       viewBox="0 0 19.3993 19.0529">
       <g>
              <rect height="19.0529" opacity="0" width="19.3993" x="0" y="0" />
              <path d="M19.0379 3.63912L19.0379 15.4011C19.0379 17.7262 17.7164 19.0379 15.3896 19.0379L3.64834 19.0379C1.32382 19.0379 0 17.7262 0 15.4011L0 3.63912C0 1.32151 1.32382 0 3.64834 0L15.3896 0C17.7164 0 19.0379 1.32151 19.0379 3.63912ZM12.4344 5.32008L12.4344 6.02958C11.1977 6.0997 10.1891 6.7879 10.1891 8.03899C10.1891 9.08052 10.8095 9.63716 11.8464 10.048L12.4344 10.2714L12.4344 11.7556C12.0338 11.7079 11.8131 11.5026 11.7057 11.1399C11.5754 10.7878 11.3129 10.6189 10.9247 10.6189C10.5273 10.6189 10.2183 10.8814 10.2183 11.2731C10.2183 11.4402 10.2505 11.5849 10.2924 11.7171C10.5451 12.5409 11.4698 12.9714 12.4344 13.0191L12.4344 13.7234C12.4344 13.8424 12.5241 13.9246 12.6356 13.9246C12.7522 13.9246 12.8367 13.8424 12.8367 13.7234L12.8367 13.0191C14.0947 12.9387 15.1424 12.2855 15.1424 10.9786C15.1424 9.90143 14.4989 9.42522 13.4242 8.99663L12.8367 8.77608L12.8367 7.29304C13.1598 7.34594 13.3465 7.56211 13.4609 7.89384C13.6159 8.22466 13.8393 8.39353 14.1925 8.39353C14.6318 8.39353 14.9437 8.12591 14.9437 7.73134C14.9437 7.54185 14.9167 7.4476 14.8701 7.31088C14.5686 6.47783 13.7909 6.08017 12.8367 6.03188L12.8367 5.32008C12.8367 5.2086 12.7522 5.12641 12.6356 5.12641C12.5241 5.12641 12.4344 5.2086 12.4344 5.32008ZM5.47081 6.8616L4.09623 11.8196C4.05201 11.9942 3.99802 12.186 3.99802 12.4076C3.99802 12.9256 4.34376 13.2432 4.84794 13.2432C5.37734 13.2432 5.62488 12.9428 5.72539 12.4191L5.90602 11.6754L7.78909 11.6754L7.97718 12.449C8.09722 12.9578 8.33554 13.2432 8.89139 13.2432C9.37603 13.2432 9.71201 12.9256 9.71201 12.4076C9.71201 12.1682 9.69478 12.0361 9.62588 11.8196L8.23176 6.85929C8.03766 6.14664 7.58231 5.80782 6.82029 5.80782C6.10764 5.80782 5.65745 6.15872 5.47081 6.8616ZM13.5361 11.1607C13.5361 11.5492 13.2178 11.7194 12.8367 11.7579L12.8367 10.4306C13.2786 10.6094 13.5361 10.7922 13.5361 11.1607ZM7.50764 10.4017L6.16794 10.4017L6.76916 7.6548L6.86451 7.6548ZM12.4344 8.60479C12.0437 8.42319 11.8005 8.2283 11.8005 7.89833C11.8005 7.54883 12.0815 7.33387 12.4344 7.28328Z"
                     fill="currentColor" fill-opacity="0.85" />
       </g>
</svg>