<?xml version="1.0" encoding="UTF-8"?>
<!--Generator: Apple Native CoreSVG 326-->
<!DOCTYPE svg PUBLIC "-//W3C//DTD SVG 1.1//EN" "http://www.w3.org/Graphics/SVG/1.1/DTD/svg11.dtd">
<svg version="1.1" xmlns="http://www.w3.org/2000/svg" xmlns:xlink="http://www.w3.org/1999/xlink"
       viewBox="0 0 21.365 21.006">
       <g>
              <rect height="21.006" opacity="0" width="21.365" x="0" y="0" />
              <path d="M10.4981 20.9962C16.302 20.9962 21.0037 16.2946 21.0037 10.4981C21.0037 4.70163 16.302 0 10.4981 0C4.70163 0 0 4.70163 0 10.4981C0 16.2946 4.70163 20.9962 10.4981 20.9962ZM10.4981 17.9484C6.37829 17.9484 3.04785 14.6179 3.04785 10.4981C3.04785 6.37829 6.37829 3.04785 10.4981 3.04785C14.6179 3.04785 17.9558 6.37829 17.9558 10.4981C17.9558 14.6179 14.6179 17.9484 10.4981 17.9484Z"
                     fill="currentColor" fill-opacity="0.85" />
              <path d="M7.91459 14.778C8.4113 14.778 8.70184 14.5345 8.8345 14.0401L10.4763 8.06574L10.5303 8.06574L12.1623 14.0424C12.2926 14.5299 12.5906 14.778 13.1143 14.778C13.6707 14.778 14.0515 14.4754 14.0515 13.9046C14.0515 13.7473 14.0319 13.6175 13.9854 13.4676L12.1178 7.37687C11.864 6.54091 11.3685 6.16654 10.5033 6.16654C9.64547 6.16654 9.12813 6.56044 8.88411 7.37687L7.01651 13.4745C6.97229 13.6267 6.9453 13.7519 6.9453 13.9046C6.9453 14.488 7.34096 14.778 7.91459 14.778ZM6.46284 10.9815C6.46284 11.12 6.57948 11.2441 6.72542 11.2441L14.2788 11.2441C14.4173 11.2441 14.5414 11.12 14.5414 10.9815C14.5414 10.8408 14.4173 10.7167 14.2788 10.7167L6.72542 10.7167C6.57948 10.7167 6.46284 10.8408 6.46284 10.9815ZM6.46284 12.5155C6.46284 12.654 6.57948 12.7781 6.72542 12.7781L14.2788 12.7781C14.4173 12.7781 14.5414 12.654 14.5414 12.5155C14.5414 12.3771 14.4173 12.2529 14.2788 12.2529L6.72542 12.2529C6.57948 12.2529 6.46284 12.3771 6.46284 12.5155Z"
                     fill="currentColor" fill-opacity="0.85" />
       </g>
</svg>