<?xml version="1.0" encoding="UTF-8"?>
<!--Generator: Apple Native CoreSVG 326-->
<!DOCTYPE svg PUBLIC "-//W3C//DTD SVG 1.1//EN" "http://www.w3.org/Graphics/SVG/1.1/DTD/svg11.dtd">
<svg version="1.1" xmlns="http://www.w3.org/2000/svg" xmlns:xlink="http://www.w3.org/1999/xlink"
       viewBox="0 0 29.632 21.932">
       <g>
              <rect height="21.932" opacity="0" width="29.632" x="0" y="0" />
              <path d="M2.06637 20.2326C3.35756 20.2326 3.94896 19.4961 4.22973 18.2273L4.78316 16.1769L9.94632 16.1769L10.5296 18.2944C10.8402 19.5632 11.4465 20.2326 12.7498 20.2326C13.9537 20.2326 14.7915 19.3783 14.7915 18.1795C14.7915 17.6973 14.703 17.242 14.5647 16.7724L10.7664 4.25363C10.248 2.51808 9.14397 1.69297 7.31482 1.69297C5.59012 1.69297 4.5085 2.58292 4.01015 4.25594L0.24402 16.7724C0.128045 17.192 0 17.7627 0 18.187C0 19.4604 0.775731 20.2326 2.06637 20.2326ZM5.49296 13.0516L7.204 6.09491L7.4015 6.09491L9.19922 13.0516ZM22.7512 19.6852C26.2606 19.6852 29.2707 18.0165 29.2707 14.5433C29.2707 11.654 27.3509 10.5574 24.7622 9.63194L22.8908 8.96557C21.2601 8.38709 20.531 7.87322 20.531 6.84492C20.531 5.79818 21.6636 5.2957 22.8045 5.2957C24.0361 5.2957 24.8005 5.84361 25.1618 6.86457C25.5206 7.65467 26.0776 8.08315 26.9676 8.08315C28.0408 8.08315 28.8004 7.52093 28.7981 6.48165C28.7981 6.13372 28.7562 5.8965 28.6374 5.55888C27.8592 3.22411 25.3711 2.23809 22.8045 2.23809C19.4674 2.23809 16.5745 3.97109 16.5745 7.31045C16.5745 9.99181 18.2818 11.3141 20.956 12.255L23.3445 13.093C24.522 13.5137 25.3239 13.9569 25.3239 15.0077C25.3239 16.2015 24.0289 16.6276 22.7833 16.6276C21.5715 16.6276 20.6797 16.121 20.281 14.9886C19.905 14.1697 19.3664 13.7356 18.5005 13.7356C17.4187 13.7356 16.6321 14.3752 16.6321 15.395C16.6321 15.7022 16.6987 16.0341 16.825 16.3769C17.6083 18.7043 20.088 19.6852 22.7512 19.6852ZM22.9566 21.9222C23.2335 21.9222 23.457 21.6912 23.457 21.4143L23.457 0.507933C23.457 0.230978 23.2335 0 22.9566 0C22.6796 0 22.4561 0.230978 22.4561 0.507933L22.4561 21.4143C22.4561 21.6912 22.6796 21.9222 22.9566 21.9222Z"
                     fill="currentColor" fill-opacity="0.85" />
       </g>
</svg>