<?xml version="1.0" encoding="UTF-8"?>
<!--Generator: Apple Native CoreSVG 326-->
<!DOCTYPE svg PUBLIC "-//W3C//DTD SVG 1.1//EN" "http://www.w3.org/Graphics/SVG/1.1/DTD/svg11.dtd">
<svg version="1.1" xmlns="http://www.w3.org/2000/svg" xmlns:xlink="http://www.w3.org/1999/xlink"
       viewBox="0 0 25.2371 20.7933">
       <g>
              <rect height="20.7933" opacity="0" width="25.2371" x="0" y="0" />
              <path d="M24.8758 12.4367C24.8758 9.44627 23.8182 6.68788 22.0375 4.53265C21.79 4.23112 21.3535 4.23112 21.0491 4.53034L18.6193 6.95264C18.3592 7.2128 18.3569 7.55853 18.5677 7.83822C19.5288 9.12728 20.1044 10.7185 20.1044 12.4367C20.1044 14.2244 19.4989 15.8753 18.4419 17.2029C18.2306 17.4808 18.2329 17.8225 18.4764 18.0683L20.92 20.5119C21.2117 20.8036 21.6459 20.8036 21.9256 20.4849C23.766 18.3147 24.8758 15.5116 24.8758 12.4367Z"
                     fill="currentColor" fill-opacity="0.85" />
              <path d="M12.4367 4.77139C14.1745 4.77139 15.7732 5.34932 17.0646 6.32534C17.3345 6.52635 17.6779 6.50682 17.9231 6.25413L20.3454 3.82437C20.6521 3.52515 20.6424 3.07605 20.311 2.81359C18.1655 1.05754 15.422 0 12.4367 0C9.45373 0 6.71026 1.05754 4.57225 2.81359C4.24089 3.07605 4.22366 3.52515 4.53034 3.82437L6.95264 6.25413C7.19787 6.50682 7.55853 6.52635 7.84052 6.31557C9.12213 5.34932 10.7185 4.77139 12.4367 4.77139Z"
                     fill="currentColor" fill-opacity="0.85" />
              <path d="M0 12.4367C0 15.519 1.12468 18.3446 2.98003 20.5147C3.23503 20.8186 3.66405 20.8036 3.96096 20.5119L6.39709 18.0683C6.64057 17.8225 6.65264 17.4808 6.43385 17.2029C5.38432 15.8753 4.77139 14.2244 4.77139 12.4367C4.77139 10.7185 5.34471 9.12728 6.30811 7.83822C6.51658 7.55853 6.51658 7.2128 6.25643 6.95264L3.82667 4.53034C3.52745 4.23112 3.07836 4.23859 2.80844 4.56995C1.05008 6.71026 0 9.45373 0 12.4367Z"
                     fill="currentColor" fill-opacity="0.85" />
              <path d="M9.85552 16.6347C10.3499 16.6347 10.6428 16.3912 10.7731 15.9066L12.4149 9.93219L12.4689 9.93219L14.1032 15.9089C14.2312 16.3866 14.5292 16.6347 15.053 16.6347C15.6094 16.6347 15.9901 16.3321 15.9901 15.7711C15.9901 15.604 15.9631 15.4741 15.9189 15.3243L14.049 9.23586C13.805 8.40736 13.3095 8.03068 12.4419 8.03068C11.5864 8.03068 11.0691 8.41712 10.825 9.23586L8.95745 15.3335C8.91092 15.4908 8.88393 15.6086 8.88393 15.7711C8.88393 16.3447 9.27959 16.6347 9.85552 16.6347ZM8.39632 12.8382C8.39632 12.9842 8.52042 13.1083 8.66636 13.1083L16.2174 13.1083C16.3582 13.1083 16.48 12.9842 16.48 12.8382C16.48 12.6997 16.3582 12.5756 16.2174 12.5756L8.66636 12.5756C8.52042 12.5756 8.39632 12.6997 8.39632 12.8382ZM8.39632 14.3745C8.39632 14.5205 8.52042 14.6446 8.66636 14.6446L16.2174 14.6446C16.3582 14.6446 16.48 14.5205 16.48 14.3745C16.48 14.2337 16.3582 14.1119 16.2174 14.1119L8.66636 14.1119C8.52042 14.1119 8.39632 14.2337 8.39632 14.3745Z"
                     fill="currentColor" fill-opacity="0.85" />
       </g>
</svg>