<?xml version="1.0" encoding="UTF-8"?>
<!--Generator: Apple Native CoreSVG 326-->
<!DOCTYPE svg PUBLIC "-//W3C//DTD SVG 1.1//EN" "http://www.w3.org/Graphics/SVG/1.1/DTD/svg11.dtd">
<svg version="1.1" xmlns="http://www.w3.org/2000/svg" xmlns:xlink="http://www.w3.org/1999/xlink"
       viewBox="0 0 21.365 21.006">
       <g>
              <rect height="21.006" opacity="0" width="21.365" x="0" y="0" />
              <path d="M21.0037 10.4981C21.0037 16.2923 16.302 20.9962 10.4981 20.9962C4.70394 20.9962 0 16.2923 0 10.4981C0 4.70163 4.70394 0 10.4981 0C16.302 0 21.0037 4.70163 21.0037 10.4981ZM8.76759 7.18277L7.68512 10.739L6.46363 10.739C6.32285 10.739 6.19129 10.8631 6.19129 11.0211C6.19129 11.1671 6.32285 11.3084 6.46363 11.3084L7.51274 11.3084L7.18641 12.3689L6.46363 12.3689C6.32285 12.3689 6.19129 12.5028 6.19129 12.651C6.19129 12.8044 6.32285 12.9383 6.46363 12.9383L7.00656 12.9383L6.78456 13.6588C6.73288 13.8357 6.70589 13.9684 6.70589 14.1286C6.70589 14.7492 7.1337 15.0588 7.75439 15.0588C8.27579 15.0588 8.59848 14.8055 8.7386 14.2715L9.11333 12.9383L11.8978 12.9383L12.2702 14.2813C12.408 14.8009 12.7382 15.0588 13.294 15.0588C13.8826 15.0588 14.2955 14.7315 14.2955 14.1286C14.2955 13.9638 14.276 13.8242 14.222 13.6519L13.9971 12.9383L14.5377 12.9383C14.686 12.9383 14.8199 12.8044 14.8199 12.651C14.8199 12.5028 14.686 12.3689 14.5377 12.3689L13.8247 12.3689L13.4961 11.3084L14.5377 11.3084C14.686 11.3084 14.8199 11.1671 14.8199 11.0211C14.8199 10.8631 14.686 10.739 14.5377 10.739L13.326 10.739L12.2389 7.18277C11.9754 6.29458 11.4351 5.88576 10.513 5.88576C9.58578 5.88576 9.02884 6.30435 8.76759 7.18277ZM11.745 12.3689L9.25872 12.3689L9.55806 11.3084L11.4508 11.3084ZM11.2979 10.739L9.71092 10.739L10.4786 7.91586L10.5326 7.91586Z"
                     fill="currentColor" fill-opacity="0.85" />
       </g>
</svg>