<?xml version="1.0" encoding="UTF-8"?>
<!--Generator: Apple Native CoreSVG 326-->
<!DOCTYPE svg PUBLIC "-//W3C//DTD SVG 1.1//EN" "http://www.w3.org/Graphics/SVG/1.1/DTD/svg11.dtd">
<svg version="1.1" xmlns="http://www.w3.org/2000/svg" xmlns:xlink="http://www.w3.org/1999/xlink"
       viewBox="0 0 22.6374 22.2784">
       <g>
              <rect height="22.2784" opacity="0" width="22.6374" x="0" y="0" />
              <path d="M11.1343 22.2687C17.2722 22.2687 22.2761 17.2722 22.2761 11.1343C22.2761 4.99648 17.2722 0 11.1343 0C4.99648 0 0 4.99648 0 11.1343C0 17.2722 4.99648 22.2687 11.1343 22.2687ZM11.1343 18.2927C7.17804 18.2927 3.97601 15.0906 3.97601 11.1343C3.97601 7.17573 7.17804 3.97601 11.1343 3.97601C15.0929 3.97601 18.3001 7.17573 18.3001 11.1343C18.3001 15.0906 15.0929 18.2927 11.1343 18.2927Z"
                     fill="currentColor" fill-opacity="0.85" />
              <path d="M6.89095 14.4591C7.36353 14.4591 7.57661 14.1932 7.67481 13.7263L7.83131 13.0522L9.52136 13.0522L9.69508 13.7487C9.78813 14.2081 10.0115 14.4591 10.5059 14.4591C10.9337 14.4591 11.2278 14.176 11.2278 13.7097C11.2278 13.5001 11.2106 13.3852 11.1566 13.2009L9.9038 8.75297C9.72462 8.12415 9.32842 7.81978 8.65999 7.81978C8.0214 7.81978 7.62805 8.12646 7.45863 8.75297L6.23053 13.2009C6.18631 13.3456 6.14209 13.5202 6.14209 13.7097C6.14209 14.176 6.44592 14.4591 6.89095 14.4591ZM8.07599 11.9214L8.60885 9.46004L8.69444 9.46004L9.26691 11.9214ZM13.7976 14.2568C15.008 14.2568 16.0597 13.6772 16.0597 12.4398C16.0597 11.4729 15.4921 11.0529 14.5328 10.676L13.8687 10.4134C13.3987 10.2192 13.0878 10.0341 13.0878 9.68229C13.0878 9.31611 13.4343 9.12067 13.8154 9.12067C14.2229 9.12067 14.4413 9.32708 14.5775 9.6778C14.713 9.97932 14.9117 10.1235 15.223 10.1235C15.6129 10.1235 15.8903 9.89034 15.8903 9.53768C15.8903 9.37057 15.8708 9.28323 15.8243 9.16143C15.5428 8.36568 14.7633 8.0197 13.8303 8.0197C12.6441 8.0197 11.6515 8.64131 11.6515 9.80803C11.6515 10.737 12.2104 11.2345 13.1296 11.5965L13.9825 11.9262C14.3768 12.0803 14.6332 12.2412 14.6332 12.6046C14.6332 13.0075 14.2689 13.1484 13.8573 13.1484C13.3624 13.1484 13.1199 12.9632 13.0004 12.5861C12.8775 12.2662 12.657 12.1191 12.3107 12.1191C11.95 12.1191 11.6755 12.3471 11.6755 12.7021C11.6755 12.8445 11.7077 12.972 11.7496 13.0869C11.9873 13.8608 12.876 14.2568 13.7976 14.2568ZM13.8378 15.067C13.9395 15.067 14.0119 14.9945 14.0119 14.8928L14.0119 7.38603C14.0119 7.28431 13.9395 7.20443 13.8378 7.20443C13.7384 7.20443 13.6585 7.28431 13.6585 7.38603L13.6585 14.8928C13.6585 14.9945 13.7384 15.067 13.8378 15.067Z"
                     fill="currentColor" fill-opacity="0.85" />
       </g>
</svg>