<?xml version="1.0" encoding="UTF-8"?>
<!--Generator: Apple Native CoreSVG 326-->
<!DOCTYPE svg PUBLIC "-//W3C//DTD SVG 1.1//EN" "http://www.w3.org/Graphics/SVG/1.1/DTD/svg11.dtd">
<svg version="1.1" xmlns="http://www.w3.org/2000/svg" xmlns:xlink="http://www.w3.org/1999/xlink"
       viewBox="0 0 25.2371 20.7338">
       <g>
              <rect height="20.7338" opacity="0" width="25.2371" x="0" y="0" />
              <path d="M24.8758 12.3846C24.8758 5.93383 19.9627 0.631336 13.6785 0.00415235C13.2541-0.040066 12.9302 0.274072 12.9302 0.698483L12.9302 4.13058C12.9302 4.48379 13.1829 4.74109 13.5286 4.79046C17.2465 5.32405 20.1044 8.51741 20.1044 12.3846C20.1044 14.1648 19.4989 15.8157 18.4419 17.1359C18.2306 17.4138 18.2329 17.7555 18.4764 18.0012L20.9223 20.4523C21.2117 20.7567 21.6557 20.7417 21.9256 20.4328C23.7735 18.2551 24.8758 15.452 24.8758 12.3846Z"
                     fill="currentColor" fill-opacity="0.85" />
              <path d="M0 12.3846C0 15.4543 1.1023 18.2574 2.94273 20.4276C3.21265 20.7366 3.65429 20.7417 3.9535 20.4448L6.39194 17.9938C6.63541 17.748 6.63772 17.4063 6.42639 17.1284C5.38201 15.8157 4.77139 14.1648 4.77139 12.3846C4.77139 8.51741 7.63678 5.32405 11.3472 4.79046C11.7004 4.74109 11.9456 4.48379 11.9456 4.13058L11.9456 0.698483C11.9456 0.274072 11.6217-0.040066 11.1973 0.00415235C4.92054 0.631336 0 5.93383 0 12.3846Z"
                     fill="currentColor" fill-opacity="0.85" />
              <path d="M8.04184 15.7691C8.52934 15.7691 8.74988 15.4884 8.84808 15.0089L9.01204 14.3198L10.7543 14.3198L10.928 15.0313C11.036 15.5033 11.2669 15.7691 11.7785 15.7691C12.2189 15.7691 12.5279 15.4786 12.5279 14.9899C12.5279 14.7729 12.5107 14.6528 12.4567 14.4587L11.1666 9.86907C10.98 9.21041 10.5614 8.89858 9.87056 8.89858C9.20959 8.89858 8.79386 9.22248 8.61698 9.87138L7.35158 14.4587C7.30736 14.6109 7.26544 14.7929 7.26544 14.9899C7.26544 15.4786 7.57443 15.7691 8.04184 15.7691ZM9.26418 13.142L9.81943 10.6008L9.90501 10.6008L10.4947 13.142ZM15.1947 15.5595C16.4447 15.5595 17.5412 14.9574 17.5412 13.6775C17.5412 12.6785 16.9414 12.2362 15.9545 11.8443L15.2658 11.5743C14.7735 11.3801 14.4625 11.1898 14.4625 10.8282C14.4625 10.4471 14.8188 10.2442 15.2125 10.2442C15.6349 10.2442 15.8608 10.4604 15.9969 10.8237C16.1399 11.1327 16.3386 11.2867 16.6723 11.2867C17.0772 11.2867 17.362 11.0437 17.362 10.6687C17.362 10.5039 17.335 10.4142 17.2885 10.285C16.9996 9.4594 16.1903 9.1008 15.2199 9.1008C13.9987 9.1008 12.9665 9.74995 12.9665 10.9614C12.9665 11.9225 13.5478 12.4326 14.4969 12.8096L15.3796 13.1542C15.7911 13.3083 16.0527 13.4767 16.0527 13.8475C16.0527 14.2579 15.6735 14.4063 15.2544 14.4063C14.7446 14.4063 14.4872 14.2136 14.3677 13.8291C14.2448 13.4965 14.0116 13.3472 13.6504 13.3472C13.28 13.3472 12.9905 13.5826 12.9905 13.945C12.9905 14.1047 13.0227 14.2322 13.0669 14.3522C13.3098 15.156 14.2358 15.5595 15.1947 15.5595ZM15.2297 16.3994C15.3366 16.3994 15.4165 16.3195 15.4165 16.2201L15.4165 8.4499C15.4165 8.34303 15.3366 8.26084 15.2297 8.26084C15.128 8.26084 15.0481 8.34303 15.0481 8.4499L15.0481 16.2201C15.0481 16.3195 15.128 16.3994 15.2297 16.3994Z"
                     fill="currentColor" fill-opacity="0.85" />
       </g>
</svg>