<?xml version="1.0" encoding="UTF-8"?>
<!--Generator: Apple Native CoreSVG 326-->
<!DOCTYPE svg PUBLIC "-//W3C//DTD SVG 1.1//EN" "http://www.w3.org/Graphics/SVG/1.1/DTD/svg11.dtd">
<svg version="1.1" xmlns="http://www.w3.org/2000/svg" xmlns:xlink="http://www.w3.org/1999/xlink"
       viewBox="0 0 21.3232 20.9553">
       <g>
              <rect height="20.9553" opacity="0" width="21.3232" x="0" y="0" />
              <path d="M4.50356 4.50173C1.80789 7.19741 0.0446133 11.388 0.000636943 14.7385C-0.0450983 18.565 2.3755 21.0074 6.18064 20.9444C9.61681 20.9079 13.5089 19.3857 16.4583 16.4415C19.4001 13.4996 20.9172 9.60236 20.9589 6.17881C21.0092 2.36852 18.5794-0.0595459 14.7553 0.00111078C11.3972 0.0353215 7.21416 1.79859 4.50356 4.50173ZM6.26022 6.24347C8.79207 3.70417 11.8876 2.42541 14.8528 2.47273C17.0277 2.50675 18.4429 3.91276 18.4873 6.09104C18.5346 9.07471 17.2409 12.1605 14.7039 14.6946C12.1698 17.2339 9.09147 18.5178 6.10033 18.478C3.91459 18.4336 2.50628 17.0207 2.47971 14.8361C2.43471 11.8783 3.71861 8.79024 6.26022 6.24347ZM6.08371 12.5477L8.39968 14.8688C8.65984 15.1192 9.07218 15.1192 9.33233 14.8688C9.59018 14.5989 9.59018 14.1866 9.33233 13.9264L7.01867 11.6127C6.76597 11.3624 6.35363 11.3549 6.08371 11.6127C5.82586 11.8729 5.83332 12.2852 6.08371 12.5477ZM7.46989 11.1518L9.79332 13.4752C10.0535 13.7181 10.4658 13.7279 10.7139 13.4752C10.9838 13.2248 10.9815 12.7929 10.7162 12.5351L8.4123 10.2214C8.15961 9.97103 7.72773 9.96872 7.46989 10.2237C7.21719 10.4867 7.22696 10.8991 7.46989 11.1518ZM8.86352 9.76043L11.1772 12.0839C11.4276 12.344 11.8571 12.344 12.1075 12.0913C12.3625 11.8386 12.3677 11.4016 12.1098 11.1438L9.79902 8.82778C9.54347 8.58716 9.1116 8.57739 8.86121 8.83755C8.60852 9.0954 8.61083 9.5175 8.86352 9.76043ZM10.2698 8.35648L12.5834 10.6776C12.8413 10.928 13.2634 10.9257 13.5086 10.6851C13.7762 10.4152 13.7762 10.0126 13.5086 9.75242L11.1927 7.43876C10.9423 7.1763 10.5225 7.16884 10.26 7.43876C10.0142 7.68915 10.0194 8.11125 10.2698 8.35648ZM11.6611 6.97262L13.9673 9.28398C14.2252 9.54183 14.6496 9.54413 14.9023 9.29144C15.1676 9.0439 15.1699 8.61664 14.9023 8.35879L12.5788 6.04282C12.3359 5.79013 11.9161 5.79243 11.6536 6.04282C11.3958 6.29782 11.4107 6.71992 11.6611 6.97262ZM7.8798 13.9979L13.9974 7.87281L13.082 6.94993L6.96207 13.0676Z"
                     fill="currentColor" fill-opacity="0.85" />
       </g>
</svg>