<?xml version="1.0" encoding="UTF-8"?>
<!--Generator: Apple Native CoreSVG 326-->
<!DOCTYPE svg PUBLIC "-//W3C//DTD SVG 1.1//EN" "http://www.w3.org/Graphics/SVG/1.1/DTD/svg11.dtd">
<svg version="1.1" xmlns="http://www.w3.org/2000/svg" xmlns:xlink="http://www.w3.org/1999/xlink"
       viewBox="0 0 24.3303 21.006">
       <g>
              <rect height="21.006" opacity="0" width="24.3303" x="0" y="0" />
              <path d="M11.9856 20.9962C17.7821 20.9962 22.4837 16.2946 22.4837 10.4981C22.4837 4.70163 17.7821 0 11.9856 0C6.18916 0 1.48753 4.70163 1.48753 10.4981L4.53538 10.4981C4.53538 6.37829 7.86582 3.04785 11.9856 3.04785C16.1055 3.04785 19.4359 6.37829 19.4359 10.4981C19.4359 14.6179 16.1055 17.9484 11.9856 17.9484C9.86874 17.9484 8.05458 17.1034 6.64712 15.6524C5.97135 15.0132 5.0498 14.8117 4.35614 15.4438C3.73423 16.0162 3.72149 16.9286 4.44894 17.7463C6.08398 19.7011 9.21457 20.9962 11.9856 20.9962ZM0.808605 8.39698C-0.0138912 8.39698-0.212055 9.15901 0.22849 9.72826L2.75918 13.0277C3.05907 13.4322 3.60988 13.4224 3.91492 13.0277L6.43585 9.72596C6.86894 9.15901 6.66847 8.39698 5.8655 8.39698Z"
                     fill="currentColor" fill-opacity="0.85" />
              <path d="M9.41188 14.778C9.90113 14.778 10.1991 14.5345 10.3243 14.0401L11.9661 8.06574L12.0201 8.06574L13.6521 14.0424C13.7824 14.5299 14.0879 14.778 14.6042 14.778C15.1606 14.778 15.5413 14.4754 15.5413 13.9046C15.5413 13.7473 15.5218 13.6175 15.4752 13.4676L13.6076 7.37687C13.3539 6.54091 12.8584 6.16654 12.0006 6.16654C11.1353 6.16654 10.618 6.56044 10.3739 7.37687L8.50634 13.4745C8.46213 13.6267 8.44259 13.7519 8.44259 13.9046C8.44259 14.488 8.83079 14.778 9.41188 14.778ZM7.95267 10.9815C7.95267 11.12 8.07678 11.2441 8.21525 11.2441L15.7686 11.2441C15.9071 11.2441 16.0312 11.12 16.0312 10.9815C16.0312 10.8408 15.9071 10.7167 15.7686 10.7167L8.21525 10.7167C8.07678 10.7167 7.95267 10.8408 7.95267 10.9815ZM7.95267 12.5155C7.95267 12.654 8.07678 12.7781 8.21525 12.7781L15.7686 12.7781C15.9071 12.7781 16.0312 12.654 16.0312 12.5155C16.0312 12.3771 15.9071 12.2529 15.7686 12.2529L8.21525 12.2529C8.07678 12.2529 7.95267 12.3771 7.95267 12.5155Z"
                     fill="currentColor" fill-opacity="0.85" />
       </g>
</svg>