<?xml version="1.0" encoding="UTF-8"?>
<!--Generator: Apple Native CoreSVG 326-->
<!DOCTYPE svg PUBLIC "-//W3C//DTD SVG 1.1//EN" "http://www.w3.org/Graphics/SVG/1.1/DTD/svg11.dtd">
<svg version="1.1" xmlns="http://www.w3.org/2000/svg" xmlns:xlink="http://www.w3.org/1999/xlink"
       viewBox="0 0 32.0523 19.6048">
       <g>
              <rect height="19.6048" opacity="0" width="32.0523" x="0" y="0" />
              <path d="M0 9.80499C0 13.0499 1.06555 16.123 2.95128 18.609C3.4853 19.3199 4.42814 19.359 5.11719 18.7928C5.7821 18.229 5.80109 17.3573 5.26422 16.6235C3.85445 14.6841 3.05015 12.3086 3.05015 9.80499C3.05015 7.29159 3.85445 4.91842 5.27168 2.97439C5.81601 2.23772 5.80679 1.37125 5.11719 0.799931C4.4356 0.226306 3.50022 0.275134 2.95874 0.983719C1.06555 3.47723 0 6.56007 0 9.80499ZM31.691 9.80499C31.691 6.56007 30.6203 3.47723 28.7322 0.983719C28.1908 0.275134 27.2554 0.226306 26.5738 0.799931C25.8842 1.37125 25.8773 2.23772 26.4118 2.97439C27.8388 4.91842 28.6408 7.29159 28.6408 9.80499C28.6408 12.3086 27.8388 14.6841 26.4193 16.6235C25.8922 17.3573 25.9014 18.229 26.5738 18.7928C27.2628 19.359 28.1982 19.3199 28.7397 18.609C30.6203 16.123 31.691 13.0499 31.691 9.80499Z"
                     fill="currentColor" fill-opacity="0.85" />
              <path d="M15.8455 19.5876C21.2658 19.5876 25.6453 15.2081 25.6453 9.79753C25.6453 4.38464 21.2658 0 15.8455 0C10.4349 0 6.05542 4.38464 6.05542 9.79753C6.05542 15.2081 10.4349 19.5876 15.8455 19.5876ZM15.8455 16.5398C12.1288 16.5398 9.10327 13.5142 9.10327 9.79753C9.10327 6.07107 12.1288 3.04554 15.8455 3.04554C19.572 3.04554 22.5975 6.07107 22.5975 9.79753C22.5975 13.5142 19.572 16.5398 15.8455 16.5398Z"
                     fill="currentColor" fill-opacity="0.85" />
              <path d="M13.0504 14.3002C13.7526 14.3002 14.193 13.9103 14.3694 13.0858L14.6122 12.2889L17.0862 12.2889L17.3291 13.0858C17.5054 13.908 17.9458 14.3002 18.648 14.3002C19.4657 14.3002 19.9526 13.8304 19.9526 13.0444C19.9526 12.8285 19.8986 12.5425 19.7706 12.1486L18.0285 7.00632C17.6541 5.83451 16.9398 5.27987 15.8208 5.27987C14.7339 5.27987 14.0518 5.82705 13.6699 7.00632L11.9278 12.1486C11.7998 12.5425 11.7458 12.8285 11.7458 13.0421C11.7458 13.8327 12.2328 14.3002 13.0504 14.3002ZM15.07 10.3635L15.7967 7.62872L15.9018 7.62872L16.6284 10.3635Z"
                     fill="currentColor" fill-opacity="0.85" />
       </g>
</svg>