<?xml version="1.0" encoding="UTF-8"?>
<!--Generator: Apple Native CoreSVG 326-->
<!DOCTYPE svg PUBLIC "-//W3C//DTD SVG 1.1//EN" "http://www.w3.org/Graphics/SVG/1.1/DTD/svg11.dtd">
<svg version="1.1" xmlns="http://www.w3.org/2000/svg" xmlns:xlink="http://www.w3.org/1999/xlink"
       viewBox="0 0 23.6023 23.2367">
       <g>
              <rect height="23.2367" opacity="0" width="23.6023" x="0" y="0" />
              <path d="M18.1229 21.3012L15.3291 21.6746C14.8247 21.7453 14.515 21.4431 14.5651 20.9484L14.8611 18.0429ZM5.00569 8.19806C4.47221 9.21846 4.17397 10.3806 4.17397 11.6135C4.17397 13.7327 5.02868 15.5348 6.47975 16.952C7.11888 17.6255 7.31814 18.5493 6.68604 19.2407C6.11594 19.8649 5.17134 19.9 4.38354 19.1502C2.37703 17.3739 1.12613 14.4643 1.12613 11.6135C1.12613 9.53603 1.73004 7.59923 2.77971 5.97446ZM22.1223 11.6135C22.1223 13.6434 21.5035 15.6486 20.4598 17.2613L18.2247 15.0269C18.7763 14.0117 19.0745 12.8686 19.0745 11.6135C19.0745 7.49365 15.7441 4.16321 11.6242 4.16321C10.3864 4.16321 9.21975 4.46388 8.19611 5.00104L5.97165 2.77719C7.5994 1.72258 9.54112 1.11536 11.6242 1.11536C17.4207 1.11536 22.1223 5.81699 22.1223 11.6135Z"
                     fill="currentColor" fill-opacity="0.85" />
              <path d="M10.3496 13.5363L10.1407 14.2015C9.96432 15.0163 9.53366 15.4159 8.83145 15.4159C8.00404 15.4159 7.52686 14.9411 7.52686 14.1579C7.52686 13.9442 7.57854 13.6583 7.70658 13.2569L8.30284 11.4917ZM13.8072 8.11465L15.0859 11.8889L10.1231 6.92747C10.4971 6.56694 10.9811 6.39565 11.5921 6.39565C12.7111 6.39565 13.4329 6.94283 13.8072 8.11465Z"
                     fill="currentColor" fill-opacity="0.85" />
              <path d="M20.3877 21.5929C20.718 21.9157 21.2734 21.9209 21.6014 21.5831C21.9242 21.2529 21.9316 20.7072 21.6014 20.3769L2.86307 1.6461C2.5328 1.31583 1.97737 1.31352 1.63964 1.6461C1.31683 1.97407 1.31683 2.53696 1.63964 2.85977Z"
                     fill="currentColor" fill-opacity="0.85" />
       </g>
</svg>