<?xml version="1.0" encoding="UTF-8"?>
<!--Generator: Apple Native CoreSVG 326-->
<!DOCTYPE svg PUBLIC "-//W3C//DTD SVG 1.1//EN" "http://www.w3.org/Graphics/SVG/1.1/DTD/svg11.dtd">
<svg version="1.1" xmlns="http://www.w3.org/2000/svg" xmlns:xlink="http://www.w3.org/1999/xlink"
       viewBox="0 0 14.3413 24.9102">
       <g>
              <rect height="24.9102" opacity="0" width="14.3413" x="0" y="0" />
              <path d="M3.09346 24.8878L10.8865 24.8878C12.8817 24.8878 13.98 23.8412 13.98 21.9414L13.98 2.95159C13.98 1.05172 12.8817 0 10.8865 0L3.09346 0C1.09824 0 0 1.05172 0 2.95159L0 21.9414C0 23.8412 1.09824 24.8878 3.09346 24.8878ZM3.66982 22.0445C3.19445 22.0445 2.89269 21.7697 2.89269 21.3409L2.89269 3.55439C2.89269 3.12555 3.19445 2.84332 3.66982 2.84332L10.3101 2.84332C10.7855 2.84332 11.0873 3.12555 11.0873 3.55439L11.0873 21.3409C11.0873 21.7697 10.7855 22.0445 10.3101 22.0445ZM7.59687 5.39882L9.66949 5.39882C10.0486 5.39882 10.3668 5.08292 10.3668 4.70382C10.3668 4.30749 10.0486 3.9916 9.66949 3.9916L7.59687 3.9916C7.21777 3.9916 6.89957 4.30749 6.89957 4.70382C6.89957 5.08292 7.21777 5.39882 7.59687 5.39882ZM4.64074 9.20323C5.22031 9.20323 5.68499 8.74085 5.68499 8.16643C5.68499 7.61155 5.22031 7.1371 4.64074 7.1371C4.07609 7.1371 3.6114 7.61155 3.6114 8.16643C3.6114 8.74085 4.07609 9.20323 4.64074 9.20323ZM6.98625 9.20323C7.56582 9.20323 8.02304 8.74085 8.02304 8.16643C8.02304 7.61155 7.57328 7.1371 6.98625 7.1371C6.39922 7.1371 5.95691 7.61155 5.95691 8.16643C5.95691 8.74085 6.41414 9.20323 6.98625 9.20323ZM9.34898 9.20323C9.91363 9.20323 10.3783 8.74085 10.3783 8.16643C10.3783 7.61155 9.91363 7.1371 9.34898 7.1371C8.76195 7.1371 8.31219 7.61155 8.31219 8.16643C8.31219 8.74085 8.76941 9.20323 9.34898 9.20323ZM4.64074 11.9078C5.22031 11.9078 5.68499 11.4505 5.68499 10.8784C5.68499 10.3161 5.22031 9.84163 4.64074 9.84163C4.07609 9.84163 3.6114 10.3161 3.6114 10.8784C3.6114 11.4505 4.07609 11.9078 4.64074 11.9078ZM6.98625 11.9078C7.56582 11.9078 8.02304 11.4505 8.02304 10.8784C8.02304 10.3161 7.57328 9.84163 6.98625 9.84163C6.39922 9.84163 5.95691 10.3161 5.95691 10.8784C5.95691 11.4505 6.41414 11.9078 6.98625 11.9078ZM9.34898 11.9078C9.91363 11.9078 10.3783 11.4505 10.3783 10.8784C10.3783 10.3161 9.91363 9.84163 9.34898 9.84163C8.76195 9.84163 8.31219 10.3161 8.31219 10.8784C8.31219 11.4505 8.76941 11.9078 9.34898 11.9078ZM4.64074 14.6249C5.22031 14.6249 5.68499 14.1551 5.68499 13.5881C5.68499 13.0183 5.22031 12.5513 4.64074 12.5513C4.07609 12.5513 3.6114 13.0183 3.6114 13.5881C3.6114 14.1551 4.07609 14.6249 4.64074 14.6249ZM6.98625 14.6249C7.56582 14.6249 8.02304 14.1505 8.02304 13.5881C8.02304 13.0085 7.56582 12.5513 6.98625 12.5513C6.41414 12.5513 5.95691 13.0085 5.95691 13.5881C5.95691 14.1505 6.41414 14.6249 6.98625 14.6249ZM9.34898 14.6249C9.91363 14.6249 10.3783 14.1505 10.3783 13.5881C10.3783 13.0085 9.91363 12.5513 9.34898 12.5513C8.76941 12.5513 8.31219 13.0085 8.31219 13.5881C8.31219 14.1505 8.76941 14.6249 9.34898 14.6249ZM4.44082 20.7139C4.88828 20.7139 5.26277 20.3296 5.26277 19.8919L5.26277 16.6438C5.26277 16.1963 4.88828 15.8218 4.44082 15.8218C3.98074 15.8218 3.6114 16.1963 3.6114 16.6438L3.6114 19.8919C3.6114 20.3296 3.98074 20.7139 4.44082 20.7139ZM6.51519 18.0161L7.46246 18.0161C7.84671 18.0161 8.0621 17.7611 8.0621 17.4039L8.0621 16.7691C8.0621 16.4095 7.84671 16.1695 7.46246 16.1695L6.51519 16.1695C6.14301 16.1695 5.91785 16.4095 5.91785 16.7691L5.91785 17.4039C5.91785 17.7611 6.14301 18.0161 6.51519 18.0161ZM6.51519 20.3639L7.46246 20.3639C7.84671 20.3639 8.0621 20.1336 8.0621 19.7666L8.0621 19.1393C8.0621 18.7723 7.84671 18.527 7.46246 18.527L6.51519 18.527C6.14301 18.527 5.91785 18.7723 5.91785 19.1393L5.91785 19.7666C5.91785 20.1336 6.15047 20.3639 6.51519 20.3639ZM9.5489 20.7139C10.009 20.7139 10.3783 20.3296 10.3783 19.8919L10.3783 16.6438C10.3783 16.1963 10.009 15.8218 9.5489 15.8218C9.10144 15.8218 8.72695 16.1963 8.72695 16.6438L8.72695 19.8919C8.72695 20.3296 9.10144 20.7139 9.5489 20.7139Z"
                     fill="currentColor" fill-opacity="0.85" />
       </g>
</svg>