<?xml version="1.0" encoding="UTF-8"?>
<!--Generator: Apple Native CoreSVG 326-->
<!DOCTYPE svg PUBLIC "-//W3C//DTD SVG 1.1//EN" "http://www.w3.org/Graphics/SVG/1.1/DTD/svg11.dtd">
<svg version="1.1" xmlns="http://www.w3.org/2000/svg" xmlns:xlink="http://www.w3.org/1999/xlink"
       viewBox="0 0 21.7696 23.8254">
       <g>
              <rect height="23.8254" opacity="0" width="21.7696" x="0" y="0" />
              <path d="M1.20593 7.76214L2.4606 8.22725C3.47083 8.59998 4.44254 8.09921 4.80781 7.07921L6.31906 2.95672C6.68433 1.94419 6.24269 0.947794 5.24223 0.582523L3.98756 0.124872C2.97964-0.247859 2.00793 0.237996 1.64035 1.26029L0.13141 5.38048C-0.243627 6.40047 0.205471 7.39687 1.20593 7.76214ZM16.1712 7.76214L17.4184 8.22725C18.4286 8.59998 19.4078 8.09921 19.7731 7.07921L21.2768 2.95672C21.6444 1.94419 21.2079 0.947794 20.2075 0.582523L18.9528 0.124872C17.9449-0.247859 16.968 0.237996 16.6004 1.26029L15.0967 5.38048C14.7239 6.40047 15.173 7.39917 16.1712 7.76214ZM4.92433 5.55159L16.4937 5.55159L16.4937 2.70354L4.92433 2.70354ZM9.27434 14.7608C9.71992 14.5357 10.2298 14.4146 10.789 14.4146C11.2662 14.4146 11.7141 14.5059 12.1224 14.6712L12.1224 2.70354L9.27434 2.70354ZM2.55741 23.7069L4.06981 23.7069C5.13402 23.7069 5.8898 22.9092 5.8898 21.8254L5.8898 17.4462C5.8898 16.3601 5.13402 15.5699 4.06981 15.5699L2.55741 15.5699C1.48574 15.5699 0.739729 16.3601 0.739729 17.4462L0.739729 21.8254C0.739729 22.9092 1.48574 23.7069 2.55741 23.7069ZM17.3436 23.7069L18.856 23.7069C19.9202 23.7069 20.676 22.9092 20.676 21.8254L20.676 17.4462C20.676 16.3601 19.9202 15.5699 18.856 15.5699L17.3436 15.5699C16.2817 15.5699 15.5259 16.3601 15.5259 17.4462L15.5259 21.8254C15.5259 22.9092 16.2817 23.7069 17.3436 23.7069ZM4.93926 21.0524L6.70422 21.0524L6.70422 19.6604C6.70422 19.0886 6.86266 18.6057 7.12445 18.2416L4.93926 18.2416ZM14.8716 21.0524L16.4788 21.0524L16.4788 18.2416L14.4536 18.2416C14.7206 18.6057 14.8716 19.0886 14.8716 19.6604Z"
                     fill="currentColor" fill-opacity="0.85" />
              <path d="M9.01073 23.3223L12.5576 23.3223C13.1831 23.3223 13.4956 22.9926 13.4956 22.3182L13.4956 19.5853C13.4956 19.0006 13.2533 18.6829 12.7633 18.6151L12.7633 17.8626C12.7633 16.6625 11.9638 15.8342 10.789 15.8342C9.61663 15.8342 8.81245 16.6625 8.81245 17.8626L8.81245 18.6151C8.31507 18.6829 8.07269 18.9908 8.07269 19.5853L8.07269 22.3182C8.07269 22.9926 8.38749 23.3223 9.01073 23.3223ZM9.87205 18.5984L9.87205 17.8275C9.87205 17.2586 10.2397 16.8691 10.789 16.8691C11.3263 16.8691 11.6986 17.2586 11.6986 17.8275L11.6986 18.5984Z"
                     fill="currentColor" fill-opacity="0.85" />
       </g>
</svg>