<?xml version="1.0" encoding="UTF-8"?>
<!--Generator: Apple Native CoreSVG 326-->
<!DOCTYPE svg PUBLIC "-//W3C//DTD SVG 1.1//EN" "http://www.w3.org/Graphics/SVG/1.1/DTD/svg11.dtd">
<svg version="1.1" xmlns="http://www.w3.org/2000/svg" xmlns:xlink="http://www.w3.org/1999/xlink"
       viewBox="0 0 21.7696 23.8254">
       <g>
              <rect height="23.8254" opacity="0" width="21.7696" x="0" y="0" />
              <path d="M5.8898 17.4462L5.8898 18.2416L7.85745 18.2416C7.6423 18.667 7.52344 19.1511 7.52344 19.6668C7.52344 20.1671 7.63438 20.6371 7.83649 21.0524L5.8898 21.0524L5.8898 21.8254C5.8898 22.9092 5.13402 23.7069 4.06981 23.7069L2.55741 23.7069C1.48804 23.7069 0.739729 22.9092 0.739729 21.8254L0.739729 17.4462C0.739729 16.3601 1.48804 15.5699 2.55741 15.5699L4.06981 15.5699C5.13402 15.5699 5.8898 16.3601 5.8898 17.4462ZM20.676 17.4462L20.676 21.8254C20.676 22.9092 19.9202 23.7069 18.856 23.7069L17.3436 23.7069C16.2817 23.7069 15.5259 22.9092 15.5259 21.8254L15.5259 21.0524L13.5616 21.0524C13.7626 20.6371 13.8727 20.1671 13.8727 19.6668C13.8727 19.1511 13.7547 18.667 13.5408 18.2416L15.5259 18.2416L15.5259 17.4462C15.5259 16.3601 16.2817 15.5699 17.3436 15.5699L18.856 15.5699C19.9202 15.5699 20.676 16.3601 20.676 17.4462ZM18.9528 0.124872L20.2098 0.582523C21.2079 0.947794 21.6444 1.94419 21.2768 2.95672L19.7731 7.07921C19.4078 8.09921 18.4286 8.59998 17.4207 8.22725L16.1712 7.76214C15.229 7.41951 14.776 6.5104 15.0426 5.55159L12.127 5.55159L12.127 16.8259C11.7023 16.6117 11.219 16.4936 10.7041 16.4936C10.189 16.4936 9.70489 16.6115 9.27895 16.8253L9.27895 5.55159L5.36782 5.55159L4.80781 7.07921C4.44254 8.09921 3.46853 8.59998 2.4606 8.22725L1.20593 7.76214C0.205471 7.39687-0.243627 6.40047 0.13141 5.38048L1.64035 1.26029C2.00793 0.237996 2.97964-0.247859 3.98756 0.124872L5.24223 0.582523C6.15901 0.917242 6.60654 1.78193 6.39187 2.70354L16.0737 2.70354L16.6004 1.26029C16.968 0.237996 17.9449-0.247859 18.9528 0.124872Z"
                     fill="currentColor" fill-opacity="0.85" />
              <path d="M10.7041 22.8452C12.476 22.8452 13.8727 21.4484 13.8727 19.6668C13.8727 17.8927 12.476 16.4936 10.7041 16.4936C8.93 16.4936 7.52344 17.8927 7.52344 19.6668C7.52344 21.4484 8.93 22.8452 10.7041 22.8452ZM10.7041 20.8795C10.0234 20.8795 9.49659 20.3527 9.49659 19.6743C9.49659 19.001 10.0234 18.469 10.7041 18.469C11.3751 18.469 11.9071 19.001 11.9071 19.6743C11.9071 20.3527 11.3751 20.8795 10.7041 20.8795Z"
                     fill="currentColor" fill-opacity="0.85" />
       </g>
</svg>