<?xml version="1.0" encoding="UTF-8"?>
<!--Generator: Apple Native CoreSVG 326-->
<!DOCTYPE svg PUBLIC "-//W3C//DTD SVG 1.1//EN" "http://www.w3.org/Graphics/SVG/1.1/DTD/svg11.dtd">
<svg version="1.1" xmlns="http://www.w3.org/2000/svg" xmlns:xlink="http://www.w3.org/1999/xlink"
       viewBox="0 0 21.7696 23.8254">
       <g>
              <rect height="23.8254" opacity="0" width="21.7696" x="0" y="0" />
              <path d="M1.20593 7.76214L2.4606 8.22725C3.46853 8.59998 4.44254 8.09921 4.80781 7.07921L6.31906 2.95672C6.68433 1.94419 6.24269 0.947794 5.24223 0.582523L3.98756 0.124872C2.97964-0.247859 2.00793 0.237996 1.64035 1.26029L0.13141 5.38048C-0.243627 6.40047 0.205471 7.39687 1.20593 7.76214ZM16.1712 7.76214L17.4207 8.22725C18.4286 8.59998 19.4078 8.09921 19.7731 7.07921L21.2768 2.95672C21.6444 1.94419 21.2079 0.947794 20.2098 0.582523L18.9528 0.124872C17.9449-0.247859 16.968 0.237996 16.6004 1.26029L15.0967 5.38048C14.7239 6.40047 15.173 7.39917 16.1712 7.76214ZM2.55741 23.7069L4.06981 23.7069C5.13402 23.7069 5.8898 22.9092 5.8898 21.8254L5.8898 17.4462C5.8898 16.3601 5.13402 15.5699 4.06981 15.5699L2.55741 15.5699C1.48804 15.5699 0.739729 16.3601 0.739729 17.4462L0.739729 21.8254C0.739729 22.9092 1.48804 23.7069 2.55741 23.7069ZM17.3436 23.7069L18.856 23.7069C19.9202 23.7069 20.676 22.9092 20.676 21.8254L20.676 17.4462C20.676 16.3601 19.9202 15.5699 18.856 15.5699L17.3436 15.5699C16.2817 15.5699 15.5259 16.3601 15.5259 17.4462L15.5259 21.8254C15.5259 22.9092 16.2817 23.7069 17.3436 23.7069ZM4.92433 5.51429L16.4564 5.51429L16.4564 2.70354L4.92433 2.70354ZM9.26403 2.70354L9.26403 16.0916C9.62281 16.1301 9.97929 16.2782 10.2388 16.5526L10.6702 16.9892L11.1201 16.5295C11.3945 16.2454 11.7608 16.0949 12.1121 16.0587L12.1121 2.70354ZM4.90195 21.0524L7.11844 21.0524C7.15235 20.6936 7.30508 20.3446 7.57719 20.0799L8.0466 19.6128L7.6077 19.1814C7.33559 18.9219 7.18286 18.5631 7.13919 18.2043L4.90195 18.2043ZM16.4788 21.0524L16.4788 18.2043L14.2484 18.2043C14.2145 18.5533 14.0543 18.9196 13.7822 19.1842L13.3151 19.6341L13.7667 20.0828C14.0388 20.3497 14.1915 20.6913 14.2277 21.0524Z"
                     fill="currentColor" fill-opacity="0.85" />
              <path d="M8.26472 22.0471C8.59378 22.3836 9.17147 22.3951 9.50514 22.054L10.6915 20.8699L11.8571 22.0332C12.1937 22.3675 12.7467 22.3502 13.0757 22.0183C13.4025 21.6864 13.4174 21.1363 13.0906 20.802L11.925 19.6341L13.1039 18.4575C13.4525 18.1164 13.4335 17.5685 13.097 17.2222C12.7507 16.8857 12.1954 16.8593 11.8468 17.2079L10.6702 18.377L9.50975 17.2137C9.18815 16.8869 8.61277 16.9116 8.27625 17.2286C7.94203 17.5381 7.94203 18.1307 8.26879 18.4621L9.43441 19.6128L8.25035 20.7969C7.91668 21.1403 7.9259 21.7031 8.26472 22.0471Z"
                     fill="currentColor" fill-opacity="0.85" />
       </g>
</svg>