<?xml version="1.0" encoding="UTF-8"?>
<!--Generator: Apple Native CoreSVG 326-->
<!DOCTYPE svg PUBLIC "-//W3C//DTD SVG 1.1//EN" "http://www.w3.org/Graphics/SVG/1.1/DTD/svg11.dtd">
<svg version="1.1" xmlns="http://www.w3.org/2000/svg" xmlns:xlink="http://www.w3.org/1999/xlink"
       viewBox="0 0 21.365 21.006">
       <g>
              <rect height="21.006" opacity="0" width="21.365" x="0" y="0" />
              <path d="M21.0037 10.5079C21.0037 16.3043 16.302 21.006 10.4981 21.006C4.70394 21.006 0 16.3043 0 10.5079C0 4.7137 4.70394 0.00976562 10.4981 0.00976562C16.302 0.00976562 21.0037 4.7137 21.0037 10.5079ZM8.84311 5.45474C7.24428 5.83845 6.65603 6.96095 6.53885 9.36463C6.49748 10.3809 6.48771 11.7258 6.47334 13.5775C6.45611 15.3244 7.34994 16.2527 9.09513 16.2527L11.9039 16.2527C13.6417 16.2527 14.5355 15.3244 14.5257 13.5775C14.5114 11.7258 14.5091 10.3809 14.4528 9.36463C14.343 6.96095 13.7548 5.83845 12.156 5.45474C12.0411 4.59427 11.4166 4.04279 10.4958 4.04279C9.58245 4.04279 8.95053 4.59427 8.84311 5.45474ZM12.7782 13.4914C12.7782 13.9607 12.46 14.2886 11.981 14.2886L9.02041 14.2886C8.54135 14.2886 8.21338 13.9607 8.21338 13.4914L8.21338 12.5764L12.7782 12.5764ZM12.7782 11.1829L12.7782 11.7626L8.21338 11.7626L8.21338 11.1829C8.21338 10.7234 8.54135 10.3954 9.02041 10.3954L11.981 10.3954C12.46 10.3954 12.7782 10.7159 12.7782 11.1829ZM11.1342 5.31517C10.9302 5.3031 10.7165 5.28587 10.4958 5.28587C10.2751 5.28587 10.0688 5.3031 9.87232 5.31517C9.9815 5.08935 10.2096 4.95372 10.4958 4.95372C10.7894 4.95372 11.0101 5.08935 11.1342 5.31517Z"
                     fill="currentColor" fill-opacity="0.85" />
       </g>
</svg>