<?xml version="1.0" encoding="UTF-8"?>
<!--Generator: Apple Native CoreSVG 326-->
<!DOCTYPE svg PUBLIC "-//W3C//DTD SVG 1.1//EN" "http://www.w3.org/Graphics/SVG/1.1/DTD/svg11.dtd">
<svg version="1.1" xmlns="http://www.w3.org/2000/svg" xmlns:xlink="http://www.w3.org/1999/xlink"
       viewBox="0 0 21.6209 17.2445">
       <g>
              <rect height="17.2445" opacity="0" width="21.6209" x="0" y="0" />
              <path d="M21.2596 15.1685L21.2596 2.06388C21.2596 0.705734 20.4017 0 19.3887 0C18.9638 0 18.5164 0.122889 18.0915 0.370973L7.24585 6.68327C6.37168 7.18756 5.82735 7.74857 5.82735 8.61735C5.82735 9.47866 6.37168 10.0471 7.24585 10.5514L18.0915 16.8637C18.5164 17.1095 18.9638 17.2347 19.3887 17.2347C20.4017 17.2347 21.2596 16.5192 21.2596 15.1685ZM4.21178 17.2134C5.36727 17.2134 5.91348 16.6374 5.91348 15.5019L5.91348 1.723C5.91348 0.587575 5.33743 0.0189853 4.21178 0.0189853L1.70917 0.0189853C0.576051 0.0189853 0 0.615659 0 1.723L0 15.5019C0 16.6374 0.576051 17.2134 1.70917 17.2134Z"
                     fill="currentColor" fill-opacity="0.85" />
       </g>
</svg>