<?xml version="1.0" encoding="UTF-8"?>
<!--Generator: Apple Native CoreSVG 326-->
<!DOCTYPE svg PUBLIC "-//W3C//DTD SVG 1.1//EN" "http://www.w3.org/Graphics/SVG/1.1/DTD/svg11.dtd">
<svg version="1.1" xmlns="http://www.w3.org/2000/svg" xmlns:xlink="http://www.w3.org/1999/xlink"
       viewBox="0 0 21.365 21.006">
       <g>
              <rect height="21.006" opacity="0" width="21.365" x="0" y="0" />
              <path d="M21.0037 10.4981C21.0037 16.2923 16.302 20.9962 10.4981 20.9962C4.70394 20.9962 0 16.2923 0 10.4981C0 4.70163 4.70394 0 10.4981 0C16.302 0 21.0037 4.70163 21.0037 10.4981ZM14.5025 7.08178L10.2746 9.56085C10.0494 9.6855 9.87026 9.81991 9.76229 9.99624L9.76229 7.84853C9.76229 7.24658 9.38495 6.9083 8.93179 6.9083C8.69917 6.9083 8.50792 6.96459 8.30515 7.08178L4.06978 9.56085C3.70791 9.77108 3.46443 9.998 3.46443 10.3885C3.46443 10.7739 3.70791 11.0231 4.06978 11.2334L8.30515 13.7125C8.50792 13.8296 8.69917 13.8859 8.92433 13.8859C9.37749 13.8859 9.76229 13.5402 9.76229 12.9457L9.76229 10.7831C9.87772 10.9669 10.0494 11.1087 10.2746 11.2334L14.5025 13.7125C14.7127 13.8296 14.8988 13.8859 15.124 13.8859C15.5823 13.8859 15.9769 13.5402 15.9769 12.9457L15.9769 7.84853C15.9769 7.24658 15.5898 6.9083 15.1314 6.9083C14.9063 6.9083 14.7127 6.96459 14.5025 7.08178Z"
                     fill="currentColor" fill-opacity="0.85" />
       </g>
</svg>