<?xml version="1.0" encoding="UTF-8"?>
<!--Generator: Apple Native CoreSVG 326-->
<!DOCTYPE svg PUBLIC "-//W3C//DTD SVG 1.1//EN" "http://www.w3.org/Graphics/SVG/1.1/DTD/svg11.dtd">
<svg version="1.1" xmlns="http://www.w3.org/2000/svg" xmlns:xlink="http://www.w3.org/1999/xlink"
       viewBox="0 0 34.7505 17.2445">
       <g>
              <rect height="17.2445" opacity="0" width="34.7505" x="0" y="0" />
              <path d="M34.3891 15.1685L34.3891 2.06388C34.3891 0.705734 33.5261 0 32.5108 0C32.0882 0 31.646 0.122889 31.2136 0.370973L20.3703 6.68327C19.4938 7.18756 18.9569 7.74857 18.9569 8.61735C18.9569 9.47866 19.4938 10.0471 20.3703 10.5514L31.2136 16.8637C31.646 17.1095 32.0882 17.2347 32.5108 17.2347C33.5261 17.2347 34.3891 16.5192 34.3891 15.1685ZM31.3695 13.1511C31.3695 13.2883 31.2788 13.3837 31.1513 13.3837C31.1099 13.3837 31.0731 13.3716 31.0266 13.3446L23.1813 8.8086C23.0906 8.76207 23.0538 8.6811 23.0538 8.61735C23.0538 8.54383 23.0906 8.47262 23.1813 8.4261L31.0266 3.89006C31.0731 3.86076 31.1099 3.851 31.1513 3.851C31.2788 3.851 31.3695 3.94404 31.3695 4.08361ZM19.008 15.1685L19.008 2.06388C19.008 0.705734 18.1501 0 17.1372 0C16.7047 0 16.2649 0.122889 15.8325 0.370973L4.9943 6.68327C4.12013 7.18756 3.5758 7.74857 3.5758 8.61735C3.5758 9.47866 4.12013 10.0471 4.9943 10.5514L15.8325 16.8637C16.2649 17.1095 16.7047 17.2347 17.1372 17.2347C18.1501 17.2347 19.008 16.5192 19.008 15.1685ZM15.9884 13.1511C15.9884 13.2883 15.8954 13.3837 15.7679 13.3837C15.7362 13.3837 15.6897 13.3716 15.6432 13.3446L7.8002 8.8086C7.70715 8.76207 7.6727 8.6811 7.6727 8.61735C7.6727 8.54383 7.70715 8.47262 7.8002 8.4261L15.6432 3.89006C15.6897 3.86076 15.7362 3.851 15.7679 3.851C15.8954 3.851 15.9884 3.94404 15.9884 4.08361ZM1.82981 17.2347C2.89773 17.2347 3.66193 16.478 3.66193 15.4594L3.66193 1.77528C3.66193 0.756746 2.89773 0 1.82981 0C0.764207 0 0 0.756746 0 1.77528L0 15.4594C0 16.478 0.764207 17.2347 1.82981 17.2347Z"
                     fill="currentColor" fill-opacity="0.85" />
       </g>
</svg>