<?xml version="1.0" encoding="UTF-8"?>
<!--Generator: Apple Native CoreSVG 326-->
<!DOCTYPE svg PUBLIC "-//W3C//DTD SVG 1.1//EN" "http://www.w3.org/Graphics/SVG/1.1/DTD/svg11.dtd">
<svg version="1.1" xmlns="http://www.w3.org/2000/svg" xmlns:xlink="http://www.w3.org/1999/xlink"
       viewBox="0 0 17.7246 27.3185">
       <g>
              <rect height="27.3185" opacity="0" width="17.7246" x="0" y="0" />
              <path d="M5.66093 26.2828L11.7023 26.2828C15.4365 26.2828 17.3922 24.288 17.3629 20.5147C17.3239 16.5367 17.3118 13.6255 17.1992 11.4495C16.9086 4.7874 14.8799 2.6955 8.67906 2.6955C2.48571 2.6955 0.4547 4.7874 0.164036 11.4495C0.0589193 13.6255 0.0393881 16.5367 0.000325591 20.5147C-0.0289713 24.288 1.9193 26.2828 5.66093 26.2828ZM5.4971 22.0626C4.46328 22.0626 3.75457 21.3367 3.75457 20.3299L3.75457 15.3952C3.75457 14.3861 4.46328 13.6602 5.4971 13.6602L11.8685 13.6602C12.9075 13.6602 13.6087 14.3786 13.6087 15.3952L13.6087 20.3299C13.6087 21.3516 12.9075 22.0626 11.8685 22.0626ZM3.75457 18.3824L13.6087 18.3824L13.6087 16.6159L3.75457 16.6159ZM8.6716 0C6.48325 0 5.0679 1.43367 5.0679 3.63967L7.11631 3.63967C7.11631 2.60287 7.73167 1.94397 8.6716 1.94397C9.61668 1.94397 10.2343 2.60287 10.2343 3.63967L12.2753 3.63967C12.2753 1.43367 10.8576 0 8.6716 0Z"
                     fill="currentColor" fill-opacity="0.85" />
       </g>
</svg>