<?xml version="1.0" encoding="UTF-8"?>
<!--Generator: Apple Native CoreSVG 326-->
<!DOCTYPE svg PUBLIC "-//W3C//DTD SVG 1.1//EN" "http://www.w3.org/Graphics/SVG/1.1/DTD/svg11.dtd">
<svg version="1.1" xmlns="http://www.w3.org/2000/svg" xmlns:xlink="http://www.w3.org/1999/xlink"
       viewBox="0 0 33.3466 17.2445">
       <g>
              <rect height="17.2445" opacity="0" width="33.3466" x="0" y="0" />
              <path d="M30.7783 15.1685L30.7783 2.06388C30.7783 0.705734 29.9204 0 28.9075 0C28.4825 0 28.0352 0.122889 27.6102 0.370973L16.7646 6.68327C15.8904 7.18756 15.3461 7.74857 15.3461 8.61735C15.3461 9.47866 15.8904 10.0471 16.7646 10.5514L27.6102 16.8637C28.0352 17.1095 28.4825 17.2347 28.9075 17.2347C29.9204 17.2347 30.7783 16.5192 30.7783 15.1685ZM15.4322 15.1685L15.4322 2.06388C15.4322 0.705734 14.5766 0 13.5614 0C13.1387 0 12.6891 0.122889 12.2641 0.370973L1.42081 6.68327C0.544328 7.18756 0 7.74857 0 8.61735C0 9.47866 0.544328 10.0471 1.42081 10.5514L12.2641 16.8637C12.6891 17.1095 13.1387 17.2347 13.5614 17.2347C14.5766 17.2347 15.4322 16.5192 15.4322 15.1685Z"
                     fill="currentColor" fill-opacity="0.85" />
       </g>
</svg>