<?xml version="1.0" encoding="UTF-8"?>
<!--Generator: Apple Native CoreSVG 326-->
<!DOCTYPE svg PUBLIC "-//W3C//DTD SVG 1.1//EN" "http://www.w3.org/Graphics/SVG/1.1/DTD/svg11.dtd">
<svg version="1.1" xmlns="http://www.w3.org/2000/svg" xmlns:xlink="http://www.w3.org/1999/xlink"
       viewBox="0 0 21.365 21.006">
       <g>
              <rect height="21.006" opacity="0" width="21.365" x="0" y="0" />
              <path d="M10.4981 20.9962C16.302 20.9962 21.0037 16.2946 21.0037 10.4981C21.0037 4.70163 16.302 0 10.4981 0C4.70163 0 0 4.70163 0 10.4981C0 16.2946 4.70163 20.9962 10.4981 20.9962ZM10.4981 17.9484C6.37829 17.9484 3.04785 14.6179 3.04785 10.4981C3.04785 6.37829 6.37829 3.04785 10.4981 3.04785C14.6179 3.04785 17.9558 6.37829 17.9558 10.4981C17.9558 14.6179 14.6179 17.9484 10.4981 17.9484Z"
                     fill="currentColor" fill-opacity="0.85" />
              <path d="M9.10799 13.6591C9.53416 13.6591 9.90404 13.3409 9.90404 12.7757L9.90404 7.9938C9.90404 7.42861 9.54162 7.11041 9.12291 7.11041C8.90752 7.11041 8.72374 7.169 8.53589 7.27642L4.55661 9.60276C4.21426 9.79577 3.98802 10.0227 3.98802 10.381C3.98802 10.7319 4.22172 10.9812 4.55661 11.1668L8.53589 13.4931C8.72374 13.608 8.90752 13.6591 9.10799 13.6591ZM14.997 13.6591C15.4232 13.6591 15.7982 13.3409 15.7982 12.7757L15.7982 7.9938C15.7982 7.42861 15.4381 7.11041 15.0045 7.11041C14.7966 7.11041 14.6082 7.169 14.4175 7.27642L10.4382 9.60276C10.0935 9.79577 9.87475 10.0227 9.87475 10.381C9.87475 10.7319 10.101 10.9812 10.4382 11.1668L14.4175 13.4931C14.6082 13.608 14.7891 13.6591 14.997 13.6591Z"
                     fill="currentColor" fill-opacity="0.85" />
       </g>
</svg>