<?xml version="1.0" encoding="UTF-8"?>
<!--Generator: Apple Native CoreSVG 326-->
<!DOCTYPE svg PUBLIC "-//W3C//DTD SVG 1.1//EN" "http://www.w3.org/Graphics/SVG/1.1/DTD/svg11.dtd">
<svg version="1.1" xmlns="http://www.w3.org/2000/svg" xmlns:xlink="http://www.w3.org/1999/xlink"
       viewBox="0 0 21.365 21.006">
       <g>
              <rect height="21.006" opacity="0" width="21.365" x="0" y="0" />
              <path d="M21.0037 10.5079C21.0037 16.3043 16.302 21.006 10.4981 21.006C4.70394 21.006 0 16.3043 0 10.5079C0 4.7137 4.70394 0.00976562 10.4981 0.00976562C16.302 0.00976562 21.0037 4.7137 21.0037 10.5079ZM8.10632 6.94615L7.67166 6.94615C6.50846 6.94615 5.84737 7.59287 5.84737 8.744L5.84737 13.7582C5.84737 14.907 6.50846 15.571 7.67166 15.571L13.3787 15.571C14.4975 15.571 15.1563 14.907 15.1563 13.7582L15.1563 8.744C15.1563 7.59517 14.4878 6.94615 13.3246 6.94615L12.8899 6.94615C12.8778 5.64635 11.8238 4.64917 10.4981 4.64917C9.17241 4.64917 8.12585 5.64635 8.10632 6.94615ZM11.4433 6.94615L9.55291 6.94615C9.56728 6.35209 9.92697 5.94248 10.4981 5.94248C11.0767 5.94248 11.4364 6.35209 11.4433 6.94615Z"
                     fill="currentColor" fill-opacity="0.85" />
       </g>
</svg>