<?xml version="1.0" encoding="UTF-8"?>
<!--Generator: Apple Native CoreSVG 326-->
<!DOCTYPE svg PUBLIC "-//W3C//DTD SVG 1.1//EN" "http://www.w3.org/Graphics/SVG/1.1/DTD/svg11.dtd">
<svg version="1.1" xmlns="http://www.w3.org/2000/svg" xmlns:xlink="http://www.w3.org/1999/xlink"
       viewBox="0 0 21.365 21.006">
       <g>
              <rect height="21.006" opacity="0" width="21.365" x="0" y="0" />
              <path d="M10.4981 20.9962C16.302 20.9962 21.0037 16.2946 21.0037 10.4981C21.0037 4.70163 16.302 0 10.4981 0C4.70163 0 0 4.70163 0 10.4981C0 16.2946 4.70163 20.9962 10.4981 20.9962ZM10.4981 17.9484C6.37829 17.9484 3.04785 14.6179 3.04785 10.4981C3.04785 6.37829 6.37829 3.04785 10.4981 3.04785C14.6179 3.04785 17.9558 6.37829 17.9558 10.4981C17.9558 14.6179 14.6179 17.9484 10.4981 17.9484Z"
                     fill="currentColor" fill-opacity="0.85" />
              <path d="M7.84162 15.2161L13.2064 15.2161C14.2512 15.2161 14.8681 14.6067 14.8681 13.5268L14.8681 8.80544C14.8681 7.73068 14.2489 7.12357 13.1621 7.12357L12.7395 7.12357C12.7274 5.91506 11.7474 4.97701 10.4981 4.97701C9.25624 4.97701 8.27628 5.91506 8.26421 7.12357L7.84162 7.12357C6.75478 7.12357 6.1356 7.73068 6.1356 8.80544L6.1356 13.5268C6.1356 14.609 6.75478 15.2161 7.84162 15.2161ZM9.60459 7.12357C9.61896 6.56165 9.95396 6.17903 10.4981 6.17903C11.0423 6.17903 11.3847 6.56165 11.3916 7.12357Z"
                     fill="currentColor" fill-opacity="0.85" />
       </g>
</svg>