<?xml version="1.0" encoding="UTF-8"?>
<!--Generator: Apple Native CoreSVG 326-->
<!DOCTYPE svg PUBLIC "-//W3C//DTD SVG 1.1//EN" "http://www.w3.org/Graphics/SVG/1.1/DTD/svg11.dtd">
<svg version="1.1" xmlns="http://www.w3.org/2000/svg" xmlns:xlink="http://www.w3.org/1999/xlink"
       viewBox="0 0 21.365 21.006">
       <g>
              <rect height="21.006" opacity="0" width="21.365" x="0" y="0" />
              <path d="M21.0037 10.4981C21.0037 16.2923 16.302 20.9962 10.4981 20.9962C4.70394 20.9962 0 16.2923 0 10.4981C0 4.70163 4.70394 0 10.4981 0C16.302 0 21.0037 4.70163 21.0037 10.4981ZM10.0272 5.19701L10.0272 6.05069L8.16558 6.05069C7.42594 6.05069 7.02797 6.50494 7.02797 7.2279L7.02797 13.7115C7.02797 14.4298 7.42824 14.8841 8.16558 14.8841L10.0272 14.8841L10.0272 15.6849C10.0272 15.8601 10.1266 15.967 10.3093 15.967C10.4868 15.967 10.5891 15.8601 10.5891 15.6849L10.5891 14.8841L11.1408 14.8841C12.8819 14.8841 14.237 14.0058 14.237 12.3393C14.237 11.1485 13.2979 10.296 12.0921 10.2241L12.0921 10.173C13.0893 10.0489 13.8326 9.22967 13.8326 8.25487C13.8326 6.68897 12.4735 6.05069 11.034 6.05069L10.5891 6.05069L10.5891 5.19701C10.5891 5.02408 10.4845 4.90744 10.3093 4.90744C10.1266 4.90744 10.0272 5.02408 10.0272 5.19701ZM10.0272 13.348L9.14966 13.348L9.14966 10.9994L10.0272 10.9994ZM12.0286 12.1539C12.0286 12.9986 11.4798 13.348 10.6322 13.348L10.5891 13.348L10.5891 11.0017L10.6305 11.0017C11.4505 11.0017 12.0286 11.3316 12.0286 12.1539ZM10.0272 9.6619L9.14966 9.6619L9.14966 7.59141L10.0272 7.59141ZM11.7803 8.60279C11.7803 9.29409 11.2534 9.61417 10.5891 9.65499L10.5891 7.59141C11.2781 7.61786 11.7803 7.93849 11.7803 8.60279Z"
                     fill="currentColor" fill-opacity="0.85" />
       </g>
</svg>