<?xml version="1.0" encoding="UTF-8"?>
<!--Generator: Apple Native CoreSVG 326-->
<!DOCTYPE svg PUBLIC "-//W3C//DTD SVG 1.1//EN" "http://www.w3.org/Graphics/SVG/1.1/DTD/svg11.dtd">
<svg version="1.1" xmlns="http://www.w3.org/2000/svg" xmlns:xlink="http://www.w3.org/1999/xlink"
       viewBox="0 0 25.2371 20.7338">
       <g>
              <rect height="20.7338" opacity="0" width="25.2371" x="0" y="0" />
              <path d="M24.8758 12.3846C24.8758 5.93383 19.9627 0.631336 13.6785 0.00415235C13.2541-0.040066 12.9302 0.274072 12.9302 0.698483L12.9302 4.13058C12.9302 4.48379 13.1829 4.74109 13.5286 4.79046C17.2465 5.32405 20.1044 8.51741 20.1044 12.3846C20.1044 14.1648 19.4989 15.8157 18.4419 17.1359C18.2306 17.4138 18.2329 17.7555 18.4764 18.0012L20.9223 20.4523C21.2117 20.7567 21.6557 20.7417 21.9256 20.4328C23.7735 18.2551 24.8758 15.452 24.8758 12.3846Z"
                     fill="currentColor" fill-opacity="0.85" />
              <path d="M0 12.3846C0 15.4543 1.1023 18.2574 2.94273 20.4276C3.21265 20.7366 3.65429 20.7417 3.9535 20.4448L6.39194 17.9938C6.63541 17.748 6.63772 17.4063 6.42639 17.1284C5.38201 15.8157 4.77139 14.1648 4.77139 12.3846C4.77139 8.51741 7.63678 5.32405 11.3472 4.79046C11.7004 4.74109 11.9456 4.48379 11.9456 4.13058L11.9456 0.698483C11.9456 0.274072 11.6217-0.040066 11.1973 0.00415235C4.92054 0.631336 0 5.93383 0 12.3846Z"
                     fill="currentColor" fill-opacity="0.85" />
              <path d="M10.2523 16.4348L13.0398 16.4348C14.6701 16.4348 15.9414 15.6111 15.9414 14.0577C15.9414 12.9312 15.0591 12.1304 13.9222 12.0608L13.9222 12.0171C14.8603 11.8953 15.5542 11.133 15.5542 10.2173C15.5542 8.75246 14.2887 8.14862 12.9405 8.14862L10.2523 8.14862C9.56206 8.14862 9.19625 8.57819 9.19625 9.24432L9.19625 15.3489C9.19625 16.0104 9.56437 16.4348 10.2523 16.4348ZM11.1744 11.5457L11.1744 9.5906L12.4656 9.5906C13.1368 9.5906 13.6454 9.8917 13.6454 10.548C13.6454 11.2469 13.0673 11.5457 12.3638 11.5457ZM11.1744 15.0003L11.1744 12.7891L12.5058 12.7891C13.3 12.7891 13.884 13.0832 13.884 13.8775C13.884 14.6872 13.346 15.0003 12.519 15.0003ZM12.2628 17.4563C12.4306 17.4563 12.5277 17.3569 12.5277 17.1891L12.5277 7.3564C12.5277 7.18862 12.4283 7.08175 12.2628 7.08175C12.0974 7.08175 11.9905 7.18862 11.9905 7.3564L11.9905 17.1891C11.9905 17.3569 12.0974 17.4563 12.2628 17.4563Z"
                     fill="currentColor" fill-opacity="0.85" />
       </g>
</svg>