<?xml version="1.0" encoding="UTF-8"?>
<!--Generator: Apple Native CoreSVG 326-->
<!DOCTYPE svg PUBLIC "-//W3C//DTD SVG 1.1//EN" "http://www.w3.org/Graphics/SVG/1.1/DTD/svg11.dtd">
<svg version="1.1" xmlns="http://www.w3.org/2000/svg" xmlns:xlink="http://www.w3.org/1999/xlink"
       viewBox="0 0 21.365 21.006">
       <g>
              <rect height="21.006" opacity="0" width="21.365" x="0" y="0" />
              <path d="M10.4981 20.9962C16.302 20.9962 21.0037 16.2946 21.0037 10.4981C21.0037 4.70163 16.302 0 10.4981 0C4.70163 0 0 4.70163 0 10.4981C0 16.2946 4.70163 20.9962 10.4981 20.9962ZM10.4981 17.9484C6.37829 17.9484 3.04785 14.6179 3.04785 10.4981C3.04785 6.37829 6.37829 3.04785 10.4981 3.04785C14.6179 3.04785 17.9558 6.37829 17.9558 10.4981C17.9558 14.6179 14.6179 17.9484 10.4981 17.9484Z"
                     fill="currentColor" fill-opacity="0.85" />
              <path d="M8.3137 14.6056L11.1012 14.6056C12.7315 14.6056 14.0028 13.7842 14.0028 12.2285C14.0028 11.1042 13.1205 10.3035 11.991 10.2339L11.991 10.1902C12.9216 10.0661 13.623 9.30604 13.623 8.39037C13.623 6.92553 12.3478 6.3217 11.0019 6.3217L8.3137 6.3217C7.62344 6.3217 7.25762 6.75126 7.25762 7.41739L7.25762 13.5122C7.25762 14.1835 7.62574 14.6056 8.3137 14.6056ZM9.2358 9.71128L9.2358 7.76367L10.5247 7.76367C11.2057 7.76367 11.7068 8.05731 11.7068 8.72107C11.7068 9.41764 11.1338 9.71128 10.4251 9.71128ZM9.2358 13.1734L9.2358 10.9598L10.5648 10.9598C11.3614 10.9598 11.9454 11.2563 11.9454 12.0505C11.9454 12.8602 11.4073 13.1734 10.5804 13.1734ZM10.3242 15.6271C10.492 15.6271 10.5868 15.5225 10.5868 15.3547L10.5868 5.5197C10.5868 5.35423 10.4897 5.25482 10.3242 5.25482C10.1587 5.25482 10.0519 5.35423 10.0519 5.5197L10.0519 15.3547C10.0519 15.5225 10.1587 15.6271 10.3242 15.6271Z"
                     fill="currentColor" fill-opacity="0.85" />
       </g>
</svg>