<?xml version="1.0" encoding="UTF-8"?>
<!--Generator: Apple Native CoreSVG 326-->
<!DOCTYPE svg PUBLIC "-//W3C//DTD SVG 1.1//EN" "http://www.w3.org/Graphics/SVG/1.1/DTD/svg11.dtd">
<svg version="1.1" xmlns="http://www.w3.org/2000/svg" xmlns:xlink="http://www.w3.org/1999/xlink"
       viewBox="0 0 24.6449 23.5952">
       <g>
              <rect height="23.5952" opacity="0" width="24.6449" x="0" y="0" />
              <path d="M1.94045 20.4256L22.5744 20.4256L22.5744 19.4355C22.5744 18.8957 22.2379 18.5718 21.7032 18.5718L21.3244 18.5718L21.3244 7.89293L22.1092 7.89293C22.9074 7.89293 23.3841 7.28595 23.3841 6.69158C23.3841 6.25686 23.136 5.85374 22.6254 5.55167L13.7186 0.416404C13.2683 0.154491 12.7462 0 12.2563 0C11.7664 0 11.242 0.154491 10.7963 0.416404L1.88944 5.55167C1.37659 5.85374 1.13081 6.25686 1.13081 6.69158C1.13081 7.28595 1.60745 7.89293 2.41314 7.89293L3.19045 7.89293L3.19045 18.5718L2.81396 18.5718C2.27927 18.5718 1.94045 18.8957 1.94045 19.4355ZM5.29922 18.5718L5.29922 6.39673L12.047 2.62732C12.1194 2.5888 12.1965 2.57212 12.2563 2.57212C12.331 2.57212 12.3931 2.5888 12.4679 2.62732L19.2157 6.39673L19.2157 18.5718ZM1.20651 23.5854L23.0673 23.5854C23.7134 23.5854 24.2836 23.0525 24.2836 22.3766C24.2836 21.7231 23.7134 21.1701 23.0673 21.1701L1.20651 21.1701C0.553002 21.1701 0 21.7231 0 22.3766C0 23.045 0.553002 23.5854 1.20651 23.5854Z"
                     fill="currentColor" fill-opacity="0.85" />
              <path d="M10.084 15.6665L12.8714 15.6665C14.4943 15.6665 15.773 14.8428 15.773 13.2894C15.773 12.1628 14.8832 11.362 13.7538 11.2925L13.7538 11.2488C14.6919 11.127 15.3858 10.3646 15.3858 9.44894C15.3858 7.9841 14.118 7.38027 12.7721 7.38027L10.084 7.38027C9.39368 7.38027 9.02787 7.80984 9.02787 8.47596L9.02787 14.5806C9.02787 15.2421 9.39599 15.6665 10.084 15.6665ZM10.9986 10.7773L10.9986 8.82225L12.2875 8.82225C12.9684 8.82225 13.477 9.12334 13.477 9.77964C13.477 10.4785 12.8966 10.7773 12.1954 10.7773ZM10.9986 14.232L10.9986 12.0207L12.3276 12.0207C13.1316 12.0207 13.7081 12.3149 13.7081 13.1091C13.7081 13.9188 13.1776 14.232 12.3507 14.232ZM12.087 16.6879C12.2548 16.6879 12.357 16.5885 12.357 16.4207L12.357 6.58804C12.357 6.42027 12.2525 6.31339 12.087 6.31339C11.9215 6.31339 11.8221 6.42027 11.8221 6.58804L11.8221 16.4207C11.8221 16.5885 11.9215 16.6879 12.087 16.6879Z"
                     fill="currentColor" fill-opacity="0.85" />
       </g>
</svg>