<?xml version="1.0" encoding="UTF-8"?>
<!--Generator: Apple Native CoreSVG 326-->
<!DOCTYPE svg PUBLIC "-//W3C//DTD SVG 1.1//EN" "http://www.w3.org/Graphics/SVG/1.1/DTD/svg11.dtd">
<svg version="1.1" xmlns="http://www.w3.org/2000/svg" xmlns:xlink="http://www.w3.org/1999/xlink"
       viewBox="0 0 14.3891 21.6599">
       <g>
              <rect height="21.6599" opacity="0" width="14.3891" x="0" y="0" />
              <path d="M2.16306 19.5217L7.97549 19.5217C11.3912 19.5217 14.0277 17.8329 14.0277 14.5678C14.0277 12.2374 12.1508 10.5289 9.80572 10.4104L9.80572 10.315C11.7553 10.0278 13.2188 8.52309 13.2188 6.53739C13.2188 3.55736 10.6841 2.23821 7.76944 2.23821L2.16306 2.23821C0.86253 2.23821 0 3.07417 0 4.48564L0 17.2818C0 18.6719 0.85331 19.5217 2.16306 19.5217ZM4.06275 5.18391L6.79797 5.18391C8.19736 5.18391 9.28808 5.83154 9.28808 7.21995C9.28808 8.70099 8.06853 9.33885 6.57421 9.33885L4.06275 9.33885ZM4.06275 16.5835L4.06275 11.9041L6.8639 11.9041C8.56737 11.9041 9.79165 12.5591 9.79165 14.2016C9.79165 15.8847 8.63233 16.5835 6.90199 16.5835ZM6.35336 21.6588C6.67453 21.6588 6.89629 21.4347 6.89629 21.1038L6.89629 0.557308C6.89629 0.218908 6.68946 0 6.35336 0C6.01496 0 5.80351 0.218908 5.80351 0.557308L5.80351 21.1038C5.80351 21.4347 6.02988 21.6588 6.35336 21.6588Z"
                     fill="currentColor" fill-opacity="0.85" />
       </g>
</svg>