<?xml version="1.0" encoding="UTF-8"?>
<!--Generator: Apple Native CoreSVG 326-->
<!DOCTYPE svg PUBLIC "-//W3C//DTD SVG 1.1//EN" "http://www.w3.org/Graphics/SVG/1.1/DTD/svg11.dtd">
<svg version="1.1" xmlns="http://www.w3.org/2000/svg" xmlns:xlink="http://www.w3.org/1999/xlink"
       viewBox="0 0 14.1475 28.4399">
       <g>
              <rect height="28.4399" opacity="0" width="14.1475" x="0" y="0" />
              <path d="M6.88822 16.2069C10.7763 16.2069 13.7862 12.0942 13.7862 7.07377C13.7862 3.06671 10.9395 0 6.88822 0C2.83695 0 0 3.06671 0 7.07377C0 12.0942 3.00011 16.2069 6.88822 16.2069ZM5.148 14.7795L4.58457 16.9402C4.4123 17.6069 4.81882 18.2655 5.57799 18.2655L8.1933 18.2655C8.95993 18.2655 9.36876 17.6069 9.19419 16.9402L8.61868 14.7795ZM6.8531 28.1987C7.38318 28.1987 7.82251 27.7571 7.82251 27.227C7.82251 25.0883 9.75841 24.6127 9.75841 22.4372C9.75841 20.0614 7.84611 19.9176 7.85072 17.9444L5.91936 17.9444C5.91706 20.9886 7.84428 21.1003 7.84428 22.4372C7.84428 23.7885 5.89862 23.9408 5.89862 27.227C5.89862 27.7571 6.33049 28.1987 6.8531 28.1987Z"
                     fill="currentColor" fill-opacity="0.85" />
       </g>
</svg>