<?xml version="1.0" encoding="UTF-8"?>
<!--Generator: Apple Native CoreSVG 326-->
<!DOCTYPE svg PUBLIC "-//W3C//DTD SVG 1.1//EN" "http://www.w3.org/Graphics/SVG/1.1/DTD/svg11.dtd">
<svg version="1.1" xmlns="http://www.w3.org/2000/svg" xmlns:xlink="http://www.w3.org/1999/xlink"
       viewBox="0 0 20.4933 28.4399">
       <g>
              <rect height="28.4399" opacity="0" width="20.4933" x="0" y="0" />
              <path d="M6.66965 4.81986C6.45502 5.52158 6.34347 6.27919 6.34347 7.07377C6.34347 7.09185 6.34351 7.10993 6.34547 7.12736C6.17258 7.09864 5.99108 7.08602 5.80369 7.08602C3.70396 7.08602 2.34982 8.66193 2.34982 10.7645C2.34982 13.7666 3.83662 16.0284 5.80369 16.0284C6.99016 16.0284 8.00603 15.1993 8.62023 13.8753C9.14042 14.5097 9.74118 15.0305 10.4026 15.4133C9.67596 16.6733 8.64936 17.6228 7.43959 18.0727L7.65649 18.9134C7.8213 19.5336 7.43431 20.121 6.72912 20.121L6.61471 20.121C6.88969 21.2865 8.1913 21.526 8.1913 23.4397C8.1913 25.3847 6.54321 25.743 6.54321 27.4889C6.54321 28 6.1108 28.4324 5.5951 28.4324C5.07424 28.4324 4.66366 28 4.66366 27.4889C4.66366 24.5193 6.32897 24.5222 6.32897 23.4397C6.32897 22.4314 4.8678 22.418 4.69626 20.121L4.40042 20.121C3.71245 20.121 3.30594 19.5336 3.47304 18.9134L3.73765 17.8832C1.51404 16.7974 0 13.9871 0 10.7645C0 7.39737 2.39464 4.75343 5.80369 4.75343C6.10143 4.75343 6.39146 4.77369 6.66965 4.81986Z"
                     fill="currentColor" fill-opacity="0.85" />
              <path d="M13.2317 16.2069C17.1198 16.2069 20.132 12.0942 20.132 7.07377C20.132 3.06671 17.283 0 13.2317 0C9.18042 0 6.34347 3.06671 6.34347 7.07377C6.34347 12.0942 9.34589 16.2069 13.2317 16.2069ZM13.2317 13.8691C10.6638 13.8691 8.67606 10.8721 8.67606 7.07377C8.67606 4.37033 10.5116 2.33259 13.2317 2.33259C15.9444 2.33259 17.7919 4.37033 17.7919 7.07377C17.7919 10.8721 15.7973 13.8691 13.2317 13.8691ZM11.4915 14.7795L10.928 16.9402C10.7512 17.6069 11.1623 18.2655 11.9215 18.2655L14.5368 18.2655C15.3034 18.2655 15.7122 17.6069 15.5377 16.9402L14.9645 14.7795ZM13.1966 28.1987C13.7266 28.1987 14.1683 27.7571 14.1683 27.227C14.1683 25.0883 16.1042 24.6127 16.1042 22.4372C16.1042 20.0614 14.1896 19.9176 14.1942 17.9444L12.2628 17.9467C12.2605 20.9886 14.1901 21.1003 14.1901 22.4372C14.1901 23.7885 12.2444 23.9408 12.2444 27.227C12.2444 27.7571 12.674 28.1987 13.1966 28.1987Z"
                     fill="currentColor" fill-opacity="0.85" />
       </g>
</svg>