<?xml version="1.0" encoding="UTF-8"?>
<!--Generator: Apple Native CoreSVG 326-->
<!DOCTYPE svg PUBLIC "-//W3C//DTD SVG 1.1//EN" "http://www.w3.org/Graphics/SVG/1.1/DTD/svg11.dtd">
<svg version="1.1" xmlns="http://www.w3.org/2000/svg" xmlns:xlink="http://www.w3.org/1999/xlink"
       viewBox="0 0 23.2028 31.872">
       <g>
              <rect height="31.872" opacity="0" width="23.2028" x="0" y="0" />
              <path d="M5.98214 8.78985C5.98214 12.9855 7.84775 16.7215 10.7209 18.5046C10.162 19.084 9.51287 19.5242 8.79925 19.7874L9.01871 20.6295C9.17375 21.2496 8.79137 21.8371 8.08388 21.8371L7.97174 21.8371C8.25067 23.0026 9.54836 23.2421 9.54836 25.1558C9.54836 27.1008 7.89797 27.4591 7.89797 29.205C7.89797 29.7161 7.47301 30.1485 6.94985 30.1485C6.43876 30.1485 6.02588 29.7161 6.02588 29.205C6.02588 26.2354 7.68603 26.2382 7.68603 25.1558C7.68603 24.1475 6.23127 24.134 6.05882 21.8371L5.75517 21.8371C5.06721 21.8371 4.67276 21.2496 4.8278 20.6295L5.0924 19.5992C2.86879 18.5135 1.35475 15.7031 1.35475 12.4806C1.35475 9.45509 3.29142 6.94728 6.2564 6.52848C6.07331 7.24489 5.98214 8.00394 5.98214 8.78985Z"
                     fill="currentColor" fill-opacity="0.85" />
              <path d="M14.5888 17.923C18.4746 17.923 21.4867 13.8102 21.4867 8.78985C21.4867 4.78279 18.6377 1.71608 14.5888 1.71608C10.5375 1.71608 7.70053 4.78279 7.70053 8.78985C7.70053 13.8102 10.7006 17.923 14.5888 17.923ZM12.856 16.4956L12.2828 18.6563C12.1105 19.323 12.5194 19.9816 13.2837 19.9816L15.8915 19.9816C16.6582 19.9816 17.0693 19.323 16.8924 18.6563L16.3192 16.4956ZM14.5588 29.9148C15.0889 29.9148 15.523 29.4731 15.523 28.9431C15.523 26.8044 17.4589 26.3287 17.4589 24.1533C17.4589 21.7775 15.5443 21.6337 15.5489 19.6605L13.6176 19.6628C13.6153 22.7047 15.5448 22.8164 15.5448 24.1533C15.5448 25.5046 13.5992 25.6569 13.5992 28.9431C13.5992 29.4731 14.0287 29.9148 14.5588 29.9148Z"
                     fill="currentColor" fill-opacity="0.85" />
       </g>
</svg>