<?xml version="1.0" encoding="UTF-8"?>
<!--Generator: Apple Native CoreSVG 326-->
<!DOCTYPE svg PUBLIC "-//W3C//DTD SVG 1.1//EN" "http://www.w3.org/Graphics/SVG/1.1/DTD/svg11.dtd">
<svg version="1.1" xmlns="http://www.w3.org/2000/svg" xmlns:xlink="http://www.w3.org/1999/xlink"
       viewBox="0 0 26.1277 16.7693">
       <g>
              <rect height="16.7693" opacity="0" width="26.1277" x="0" y="0" />
              <path d="M4.07106 12.5161C4.07106 12.6276 4.13656 12.6833 4.24574 12.6833L10.5172 12.6833C9.78789 11.7256 9.36894 10.2409 9.36894 8.37745C9.36894 6.5238 9.78789 5.04137 10.4976 4.09344L4.24574 4.09344C4.13656 4.09344 4.07106 4.14918 4.07106 4.26067ZM10.8243 8.37745C10.8243 10.917 11.685 12.3761 12.8441 12.3761C14.0669 12.3761 14.9615 10.917 14.9615 8.37745C14.9615 5.8379 14.0669 4.39605 12.8441 4.39605C11.685 4.39605 10.8243 5.8379 10.8243 8.37745ZM15.2371 12.6833L21.5206 12.6833C21.6298 12.6833 21.6953 12.6276 21.6953 12.5161L21.6953 4.26067C21.6953 4.14918 21.6298 4.09344 21.5206 4.09344L15.2469 4.09344C15.9859 5.04137 16.4072 6.5238 16.4072 8.37745C16.4072 10.2409 15.9761 11.7256 15.2371 12.6833Z"
                     fill="currentColor" fill-opacity="0.85" />
              <path d="M0 15.7418C0 16.3598 0.409489 16.7693 1.02745 16.7693L24.7412 16.7693C25.3591 16.7693 25.7663 16.3598 25.7663 15.7418L25.7663 1.03261C25.7663 0.422106 25.3591 0.00746071 24.7412 0.00746071L1.02745 0.00746071C0.409489 0.00746071 0 0.422106 0 1.03261ZM2.80923 13.5658L2.80923 3.21095C2.80923 2.93224 2.92939 2.81669 3.1788 2.81669L22.5875 2.81669C22.8392 2.81669 22.9571 2.93224 22.9571 3.21095L22.9571 13.5658C22.9571 13.8422 22.8392 13.9601 22.5875 13.9601L3.1788 13.9601C2.92939 13.9601 2.80923 13.8422 2.80923 13.5658Z"
                     fill="currentColor" fill-opacity="0.85" />
       </g>
</svg>