<?xml version="1.0" encoding="UTF-8"?>
<!--Generator: Apple Native CoreSVG 326-->
<!DOCTYPE svg PUBLIC "-//W3C//DTD SVG 1.1//EN" "http://www.w3.org/Graphics/SVG/1.1/DTD/svg11.dtd">
<svg version="1.1" xmlns="http://www.w3.org/2000/svg" xmlns:xlink="http://www.w3.org/1999/xlink"
       viewBox="0 0 26.1277 16.7693">
       <g>
              <rect height="16.7693" opacity="0" width="26.1277" x="0" y="0" />
              <path d="M3.67891 12.7156C3.67891 12.9674 3.80192 13.0829 4.02896 13.0829L21.7397 13.0829C21.9644 13.0829 22.0897 12.9674 22.0897 12.7156L22.0897 4.0588C22.0897 3.80938 21.9644 3.69153 21.7397 3.69153L4.02896 3.69153C3.80192 3.69153 3.67891 3.80938 3.67891 4.0588ZM4.86668 11.7302L4.86668 5.04422C4.86668 4.9425 4.92758 4.88676 5.02184 4.88676L20.7445 4.88676C20.8387 4.88676 20.902 4.9425 20.902 5.04422L20.902 11.7302C20.902 11.8319 20.8387 11.8877 20.7445 11.8877L5.02184 11.8877C4.92758 11.8877 4.86668 11.8319 4.86668 11.7302ZM12.8441 13.0829C14.7893 13.0829 16.2004 11.1652 16.2004 8.37745C16.2004 5.59947 14.7893 3.69153 12.8441 3.69153C10.95 3.69153 9.57565 5.59947 9.57565 8.37745C9.57565 11.1652 10.95 13.0829 12.8441 13.0829ZM12.8441 11.6097C11.7931 11.6097 10.9397 10.3324 10.9397 8.37745C10.9397 6.43227 11.7931 5.16468 12.8441 5.16468C13.9537 5.16468 14.8387 6.43227 14.8387 8.37745C14.8387 10.3324 13.9537 11.6097 12.8441 11.6097Z"
                     fill="currentColor" fill-opacity="0.85" />
              <path d="M0 15.7418C0 16.3598 0.409489 16.7693 1.02745 16.7693L24.7412 16.7693C25.3591 16.7693 25.7663 16.3598 25.7663 15.7418L25.7663 1.03261C25.7663 0.422106 25.3591 0.00746071 24.7412 0.00746071L1.02745 0.00746071C0.409489 0.00746071 0 0.422106 0 1.03261ZM3.01964 13.4814L3.01964 3.29539C3.01964 3.11785 3.11269 3.0271 3.28047 3.0271L22.4859 3.0271C22.6559 3.0271 22.7467 3.11785 22.7467 3.29539L22.7467 13.4814C22.7467 13.6566 22.6559 13.7496 22.4859 13.7496L3.28047 13.7496C3.11269 13.7496 3.01964 13.6566 3.01964 13.4814Z"
                     fill="currentColor" fill-opacity="0.85" />
       </g>
</svg>