<?xml version="1.0" encoding="UTF-8"?>
<!--Generator: Apple Native CoreSVG 326-->
<!DOCTYPE svg PUBLIC "-//W3C//DTD SVG 1.1//EN" "http://www.w3.org/Graphics/SVG/1.1/DTD/svg11.dtd">
<svg version="1.1" xmlns="http://www.w3.org/2000/svg" xmlns:xlink="http://www.w3.org/1999/xlink"
       viewBox="0 0 20.4449 20.1008">
       <g>
              <rect height="20.1008" opacity="0" width="20.4449" x="0" y="0" />
              <path d="M1.5124 7.49133C2.49254 7.49133 3.01964 6.95216 3.01964 5.96686L3.01964 4.07997C3.01964 3.34785 3.37024 3.03918 4.05583 3.03918L5.96401 3.03918C6.95907 3.03918 7.48848 2.50231 7.48848 1.52447C7.48848 0.546633 6.95907 0.0195312 5.96401 0.0195312L3.64834 0.0195312C1.32382 0.0195312 0 1.33128 0 3.65635L0 5.96686C0 6.95962 0.536867 7.49133 1.5124 7.49133ZM18.5763 7.49133C19.5564 7.49133 20.0835 6.95962 20.0835 5.96686L20.0835 3.65635C20.0835 1.33128 18.7672 0.0195312 16.4352 0.0195312L14.1172 0.0195312C13.1319 0.0195312 12.595 0.546633 12.595 1.52447C12.595 2.50231 13.1394 3.03918 14.1172 3.03918L16.0254 3.03918C16.7087 3.03918 17.0639 3.34785 17.0639 4.07997L17.0639 5.96686C17.0639 6.95962 17.6007 7.49133 18.5763 7.49133ZM3.64834 20.1008L5.96401 20.1008C6.95907 20.1008 7.48848 19.5639 7.48848 18.5884C7.48848 17.6105 6.94415 17.0811 5.96401 17.0811L4.05583 17.0811C3.37024 17.0811 3.01964 16.7724 3.01964 16.0329L3.01964 14.146C3.01964 13.1584 2.49024 12.6215 1.5124 12.6215C0.527102 12.6215 0 13.1584 0 14.146L0 16.4616C0 18.7815 1.32382 20.1008 3.64834 20.1008ZM14.1172 20.1008L16.4352 20.1008C18.7672 20.1008 20.0835 18.7792 20.0835 16.4616L20.0835 14.146C20.0835 13.1584 19.5541 12.6215 18.5763 12.6215C17.5984 12.6215 17.0639 13.1658 17.0639 14.146L17.0639 16.0329C17.0639 16.7724 16.7087 17.0811 16.0254 17.0811L14.1172 17.0811C13.1319 17.0811 12.595 17.6105 12.595 18.5884C12.595 19.5639 13.1319 20.1008 14.1172 20.1008Z"
                     fill="currentColor" fill-opacity="0.85" />
              <path d="M5.65721 14.1119L6.36033 14.1119L6.36033 5.99343L5.65721 5.99343ZM7.22432 14.1119L8.53522 14.1119L8.53522 5.99343L7.22432 5.99343ZM9.09877 14.1119L9.92885 14.1119L9.92885 5.99343L9.09877 5.99343ZM10.6487 14.1119L11.913 14.1119L11.913 5.99343L10.6487 5.99343ZM12.4255 14.1119L13.4359 14.1119L13.4359 5.99343L12.4255 5.99343ZM13.807 14.1119L14.4389 14.1119L14.4389 5.99343L13.807 5.99343Z"
                     fill="currentColor" fill-opacity="0.85" />
       </g>
</svg>