<?xml version="1.0" encoding="UTF-8"?>
<!--Generator: Apple Native CoreSVG 326-->
<!DOCTYPE svg PUBLIC "-//W3C//DTD SVG 1.1//EN" "http://www.w3.org/Graphics/SVG/1.1/DTD/svg11.dtd">
<svg version="1.1" xmlns="http://www.w3.org/2000/svg" xmlns:xlink="http://www.w3.org/1999/xlink"
       viewBox="0 0 20.1371 15.71">
       <g>
              <rect height="15.71" opacity="0" width="20.1371" x="0" y="0" />
              <path d="M0 15.6416L1.65894 15.6416L1.65894 0L0 0ZM3.2616 15.6416L4.21457 15.6416L4.21457 0L3.2616 0ZM5.79769 15.6416L8.52218 15.6416L8.52218 0L5.79769 0ZM9.51421 15.6416L11.234 15.6416L11.234 0L9.51421 0ZM12.2577 15.6416L14.9552 15.6416L14.9552 0L12.2577 0ZM15.776 15.6416L17.887 15.6416L17.887 0L15.776 0ZM18.4149 15.6416L19.7758 15.6416L19.7758 0L18.4149 0Z"
                     fill="currentColor" fill-opacity="0.85" />
       </g>
</svg>