<?xml version="1.0" encoding="UTF-8"?>
<!--Generator: Apple Native CoreSVG 326-->
<!DOCTYPE svg PUBLIC "-//W3C//DTD SVG 1.1//EN" "http://www.w3.org/Graphics/SVG/1.1/DTD/svg11.dtd">
<svg version="1.1" xmlns="http://www.w3.org/2000/svg" xmlns:xlink="http://www.w3.org/1999/xlink"
       viewBox="0 0 21.365 21.006">
       <g>
              <rect height="21.006" opacity="0" width="21.365" x="0" y="0" />
              <path d="M10.4981 20.9962C16.302 20.9962 21.0037 16.2946 21.0037 10.4981C21.0037 4.70163 16.302 0 10.4981 0C4.70163 0 0 4.70163 0 10.4981C0 16.2946 4.70163 20.9962 10.4981 20.9962ZM10.4981 17.9484C6.37829 17.9484 3.04785 14.6179 3.04785 10.4981C3.04785 6.37829 6.37829 3.04785 10.4981 3.04785C14.6179 3.04785 17.9558 6.37829 17.9558 10.4981C17.9558 14.6179 14.6179 17.9484 10.4981 17.9484Z"
                     fill="currentColor" fill-opacity="0.85" />
              <path d="M10.4981 12.7705C11.7567 12.7705 12.7705 11.7492 12.7705 10.4981C12.7705 9.24471 11.7567 8.22569 10.4981 8.22569C9.24702 8.22569 8.22569 9.24471 8.22569 10.4981C8.22569 11.7492 9.24702 12.7705 10.4981 12.7705ZM10.4981 11.1596C10.1372 11.1596 9.83666 10.859 9.83666 10.4981C9.83666 10.1349 10.1372 9.83666 10.4981 9.83666C10.8665 9.83666 11.1596 10.1349 11.1596 10.4981C11.1596 10.859 10.8665 11.1596 10.4981 11.1596ZM10.7327 8.68941L12.3683 10.2606L15.0046 7.62429C15.4439 7.1798 15.4439 6.46539 15.0046 6.0186C14.5601 5.57411 13.8457 5.57411 13.4012 6.0186ZM10.3795 12.2443L8.74394 10.6834L7.74111 11.6787C7.30408 12.1157 7.29662 12.8399 7.74111 13.2844C8.1856 13.7289 8.90747 13.7289 9.33934 13.2844Z"
                     fill="currentColor" fill-opacity="0.85" />
       </g>
</svg>