<?xml version="1.0" encoding="UTF-8"?>
<!--Generator: Apple Native CoreSVG 326-->
<!DOCTYPE svg PUBLIC "-//W3C//DTD SVG 1.1//EN" "http://www.w3.org/Graphics/SVG/1.1/DTD/svg11.dtd">
<svg version="1.1" xmlns="http://www.w3.org/2000/svg" xmlns:xlink="http://www.w3.org/1999/xlink"
       viewBox="0 0 21.365 21.006">
       <g>
              <rect height="21.006" opacity="0" width="21.365" x="0" y="0" />
              <path d="M0 10.5056C0 15.2716 3.19961 19.3265 7.6039 20.5942C7.95886 19.7217 8.19148 18.7957 8.27992 17.8622L8.12342 17.8576C7.76507 17.8553 7.41824 17.5607 7.41824 17.1352C7.42054 16.747 7.73753 16.4151 8.12803 16.4174L8.29199 16.422C8.27476 16.0887 8.23855 15.7576 8.17074 15.4242L7.99932 15.4645C7.6335 15.5306 7.24015 15.3743 7.12703 14.9586C7.02367 14.5876 7.25968 14.1994 7.63065 14.0886L7.80207 14.0408C7.69804 13.7121 7.56988 13.3908 7.4055 13.0741L7.29959 13.1305C6.93093 13.3149 6.55765 13.1472 6.37847 12.8554C6.15738 12.5362 6.2355 12.0567 6.57948 11.8775L6.69055 11.8234C6.47503 11.5015 6.24284 11.2165 5.99397 10.9429L5.91112 11.0304C5.6412 11.2905 5.22085 11.2584 4.94347 10.9833C4.67816 10.7352 4.61902 10.293 4.88894 10.0254L4.9718 9.94026C4.74245 9.74998 4.49874 9.57353 4.25787 9.40685L4.15494 9.58803C3.94362 9.96415 3.5405 10.04 3.20397 9.8608C2.85769 9.68392 2.74226 9.25897 2.93636 8.88284L3.02437 8.70396C2.17367 8.29842 1.2523 8.02498 0.325783 7.9158C0.106876 8.74248 0 9.60822 0 10.5056ZM10.4981 20.9962C14.8425 20.9962 18.6073 18.336 20.1915 14.5448C19.1472 14.3765 18.1248 14.0714 17.1759 13.6165L17.0408 13.87C16.8467 14.2214 16.3845 14.3294 16.0577 14.1376C15.7235 13.9435 15.5909 13.5036 15.8022 13.1596L15.9275 12.9331C15.5247 12.678 15.1362 12.3936 14.7696 12.0804L14.5989 12.2512C14.2963 12.5561 13.8564 12.509 13.606 12.2512C13.2988 11.9486 13.3286 11.5162 13.5939 11.2583L13.7572 11.0927C13.4297 10.733 13.1286 10.3371 12.8493 9.91478L12.5642 10.0792C12.2277 10.283 11.7953 10.1555 11.6081 9.83107C11.4215 9.47217 11.5346 9.05929 11.8614 8.86288L12.1367 8.6985C11.9062 8.21471 11.7143 7.73377 11.5535 7.2356L11.2103 7.32525C10.7923 7.44584 10.4362 7.18229 10.3673 6.83885C10.2444 6.46788 10.4437 6.06476 10.8417 5.95909L11.2192 5.85222C11.1394 5.43272 11.0957 4.99369 11.0785 4.55697L10.8255 4.55236C10.3977 4.55236 10.1129 4.21529 10.125 3.85694C10.125 3.44405 10.4396 3.1173 10.8376 3.1173L11.0905 3.12191C11.1859 2.08281 11.4139 1.04601 11.7855 0.0752741C11.3564 0.0241411 10.9347 0 10.4981 0C5.81583 0 2.22541 3.0453 0.827106 6.42675C1.8616 6.59507 2.85933 6.88343 3.79847 7.34296L3.91632 7.11878C4.08804 6.78972 4.54053 6.66167 4.91666 6.88792C5.25318 7.06249 5.3663 7.47768 5.16474 7.83658L5.04919 8.04354C5.40549 8.27167 5.75717 8.52909 6.08702 8.80781L6.36573 8.53425C6.61843 8.27409 7.06576 8.26378 7.37068 8.56354C7.62623 8.82139 7.69283 9.23428 7.37068 9.55642L7.12412 9.80299C7.47865 10.1845 7.79412 10.5879 8.08084 11.0275L8.37339 10.8803C8.70245 10.7086 9.13256 10.7666 9.34158 11.1382C9.52822 11.45 9.4547 11.895 9.08373 12.1063L8.80095 12.2684C9.02162 12.7103 9.20377 13.1642 9.35947 13.6331L9.57796 13.5705C9.93116 13.4648 10.3297 13.656 10.4577 14.0815C10.5559 14.4674 10.3199 14.8333 9.94893 14.9464L9.71092 15.0188C9.79826 15.4848 9.84939 15.9583 9.87408 16.4243L10.1414 16.4289C10.5296 16.4312 10.8615 16.7632 10.8592 17.149C10.8592 17.5372 10.5273 17.8715 10.1368 17.8692L9.83732 17.8645C9.75404 18.9111 9.51396 19.9307 9.13717 20.9112C9.58123 20.9795 10.0397 20.9962 10.4981 20.9962ZM21.0037 10.5056C21.0037 5.68784 17.7586 1.61163 13.3165 0.387653C12.9564 1.27226 12.7289 2.19308 12.6479 3.13398L12.8435 3.13859C13.2466 3.14089 13.5636 3.49749 13.5464 3.87077C13.5464 4.27619 13.2317 4.56619 12.8487 4.56388L12.6456 4.55927C12.6703 4.85358 12.6968 5.15765 12.7571 5.44449L12.9032 5.41343C13.269 5.35253 13.5757 5.61839 13.6515 5.9469C13.7474 6.27311 13.6078 6.64408 13.2345 6.78705L13.1011 6.82557C13.2224 7.18362 13.3603 7.53191 13.5344 7.88535L13.6627 7.81402C13.9918 7.64746 14.407 7.77495 14.5838 8.10917C14.7705 8.49506 14.6648 8.86834 14.3731 9.04006L14.2373 9.11885C14.4379 9.40854 14.658 9.69648 14.8851 9.96027L15.0185 9.82683C15.3383 9.50468 15.7731 9.56898 16.0235 9.82452C16.2761 10.06 16.3628 10.5269 16.0407 10.849L15.9095 10.9801C16.1682 11.1974 16.4389 11.3905 16.7188 11.5796L16.8045 11.4105C16.9814 11.0614 17.419 10.9511 17.7629 11.1503C18.1144 11.3542 18.2493 11.7769 18.038 12.1231L17.9523 12.2825C18.8128 12.6731 19.7468 12.9368 20.6877 13.0586C20.8893 12.2342 21.0037 11.3782 21.0037 10.5056Z"
                     fill="currentColor" fill-opacity="0.85" />
       </g>
</svg>