<?xml version="1.0" encoding="UTF-8"?>
<!--Generator: Apple Native CoreSVG 326-->
<!DOCTYPE svg PUBLIC "-//W3C//DTD SVG 1.1//EN" "http://www.w3.org/Graphics/SVG/1.1/DTD/svg11.dtd">
<svg version="1.1" xmlns="http://www.w3.org/2000/svg" xmlns:xlink="http://www.w3.org/1999/xlink"
       viewBox="0 0 21.365 21.006">
       <g>
              <rect height="21.006" opacity="0" width="21.365" x="0" y="0" />
              <path d="M21.0037 10.4981C21.0037 16.2923 16.302 20.9962 10.4981 20.9962C4.70394 20.9962 0 16.2923 0 10.4981C0 4.70163 4.70394 0 10.4981 0C16.302 0 21.0037 4.70163 21.0037 10.4981ZM5.71623 8.43811C6.11377 8.5283 6.49924 8.65756 6.86002 8.83565L6.95252 8.67994C7.05018 8.4967 7.30002 8.41803 7.50334 8.54322C7.71412 8.65119 7.77502 8.88326 7.66244 9.08658L7.5774 9.23483C7.76185 9.3417 7.93424 9.48018 8.08709 9.60143L8.27955 9.4285C8.42373 9.29178 8.6615 9.27916 8.84014 9.46065C8.99408 9.60252 9.01646 9.83975 8.84244 10.0115L8.67697 10.1792C8.84705 10.3689 9.01483 10.5734 9.16076 10.7797L9.35784 10.6826C9.53362 10.5751 9.78115 10.6234 9.90865 10.8417C10.0063 11.0203 9.96494 11.2747 9.75932 11.3873L9.56455 11.4919C9.67889 11.7131 9.77139 11.9366 9.8392 12.1848L10.0018 12.1239C10.2097 12.0751 10.4401 12.1848 10.4963 12.4128C10.5503 12.638 10.4355 12.8631 10.2149 12.912L10.0425 12.9631C10.0913 13.1866 10.1132 13.4297 10.1304 13.6681L10.3126 13.6681C10.5303 13.6704 10.7117 13.8611 10.7117 14.0765C10.7117 14.2994 10.528 14.4855 10.3103 14.4855L10.1109 14.4832C10.0747 14.8905 9.98908 15.2978 9.86729 15.6855C10.0816 15.7171 10.2936 15.7292 10.5004 15.7292C12.6426 15.7292 14.5039 14.4073 15.3116 12.5363C14.8945 12.4633 14.5067 12.3266 14.131 12.156L14.0288 12.3237C13.926 12.5196 13.6664 12.5977 13.4705 12.4777C13.2896 12.3651 13.216 12.1204 13.3338 11.9171L13.4211 11.7591C13.212 11.6424 13.0275 11.4942 12.8402 11.3385L12.719 11.4597C12.5473 11.6315 12.3026 11.597 12.1658 11.4574C11.9918 11.2857 11.9947 11.041 12.144 10.8969L12.2578 10.7854C12.0877 10.5883 11.9395 10.4113 11.8085 10.1947L11.6309 10.2993C11.4328 10.4193 11.1904 10.336 11.0801 10.1499C10.9796 9.94432 11.041 9.69963 11.2197 9.59913L11.3995 9.49455C11.3001 9.26127 11.1881 9.00561 11.1226 8.77002L10.8864 8.82346C10.6561 8.89697 10.4654 8.74994 10.4017 8.54201C10.3454 8.32893 10.4631 8.11123 10.6906 8.04002L10.9215 7.98658C10.8853 7.77283 10.8658 7.55678 10.856 7.33556L10.6762 7.33556C10.4436 7.33326 10.2696 7.14486 10.2919 6.93463C10.2919 6.70662 10.4706 6.52568 10.6906 6.51822L10.8658 6.52053C10.9049 6.11322 10.9876 5.71568 11.0996 5.31584C10.8974 5.30146 10.7003 5.28193 10.4981 5.28193C8.37315 5.28193 6.52162 6.59635 5.71623 8.43811ZM5.28654 10.5056C5.28654 12.8816 6.9376 14.921 9.14014 15.5437C9.24471 15.1926 9.32053 14.8342 9.35444 14.4808L9.23143 14.4785C9.02119 14.4762 8.83225 14.3028 8.83225 14.0673C8.83456 13.8519 9.00858 13.6612 9.23604 13.6612L9.3642 13.6635C9.34698 13.4911 9.3326 13.3262 9.30331 13.1492L9.16537 13.1854C8.97237 13.2417 8.72713 13.1371 8.68061 12.904C8.61686 12.6863 8.74667 12.4686 8.96721 12.4048L9.09022 12.3709C9.03217 12.2037 8.96666 12.0462 8.88678 11.8813L8.80744 11.9319C8.60643 12.0347 8.37897 11.956 8.27385 11.7803C8.14635 11.6016 8.21241 11.3323 8.40827 11.2145L8.4876 11.1714C8.36866 11.026 8.25202 10.8657 8.13361 10.7324L8.08588 10.7801C7.91932 10.9444 7.67694 10.9421 7.50807 10.7778C7.35127 10.6285 7.34897 10.3591 7.4983 10.2074L7.54604 10.1546C7.43971 10.0775 7.31615 9.97064 7.19029 9.89307L7.12763 10.0212C7.00014 10.2418 6.77267 10.2831 6.57912 10.1803C6.38096 10.0873 6.30514 9.83514 6.42748 9.61975L6.49529 9.50135C6.15635 9.33818 5.82256 9.23592 5.47154 9.14803C5.34228 9.57947 5.28654 10.0276 5.28654 10.5056ZM11.6073 6.53029L11.7671 6.5326C11.9974 6.5349 12.1663 6.7233 12.164 6.94385C12.164 7.17131 11.9876 7.34248 11.7699 7.34248L11.6199 7.34017C11.632 7.48557 11.6441 7.63326 11.6682 7.78096L11.7206 7.77405C11.9606 7.70284 12.1663 7.84756 12.2151 8.05779C12.2737 8.2508 12.1714 8.48627 11.9434 8.54256L11.8641 8.57646C11.9371 8.73623 12.0026 8.91092 12.0922 9.09307L12.1618 9.05225C12.3502 8.93221 12.6098 9.00803 12.7126 9.21135C12.8229 9.44166 12.7367 9.65705 12.5633 9.7524L12.4839 9.79553C12.6006 9.94838 12.7023 10.0915 12.8235 10.2248L12.9103 10.138C13.0964 9.94444 13.3342 9.97889 13.483 10.138C13.63 10.2552 13.6668 10.5171 13.4979 10.7009L13.3887 10.8026C13.5221 10.9066 13.6554 11.0158 13.8082 11.1032L13.8686 10.9945C13.9639 10.7837 14.2184 10.7205 14.4096 10.8331C14.6153 10.9457 14.6813 11.1858 14.5687 11.3914L14.5009 11.5023C14.8422 11.6632 15.1857 11.7655 15.5465 11.8487C15.6706 11.4121 15.7241 10.9761 15.7241 10.5056C15.7241 8.08994 14.0661 6.0408 11.8314 5.45541C11.7194 5.80873 11.6487 6.16205 11.6073 6.53029Z"
                     fill="currentColor" fill-opacity="0.85" />
       </g>
</svg>