<?xml version="1.0" encoding="UTF-8"?>
<!--Generator: Apple Native CoreSVG 326-->
<!DOCTYPE svg PUBLIC "-//W3C//DTD SVG 1.1//EN" "http://www.w3.org/Graphics/SVG/1.1/DTD/svg11.dtd">
<svg version="1.1" xmlns="http://www.w3.org/2000/svg" xmlns:xlink="http://www.w3.org/1999/xlink"
       viewBox="0 0 31.8811 16.7482">
       <g>
              <rect height="16.7482" opacity="0" width="31.8811" x="0" y="0" />
              <path d="M0.759971 13.2264L5.26708 16.3663C5.99125 16.8694 6.97273 16.8499 7.74057 16.3273L12.1793 13.2264C13.1814 12.5264 13.1963 11.2745 12.1793 10.567L7.67682 7.42943C6.94804 6.92635 5.99125 6.92404 5.26708 7.42482L0.759971 10.567C-0.25705 11.2745-0.24959 12.5264 0.759971 13.2264ZM10.0453 6.17658L14.5547 9.3165C15.2789 9.81958 16.2604 9.80751 17.0259 9.27513L21.4744 6.17658C22.4691 5.47655 22.4915 4.22473 21.4744 3.51723L16.9696 0.379618C16.2432-0.125768 15.2789-0.125768 14.5547 0.375008L10.0453 3.51723C9.03061 4.22473 9.03807 5.47655 10.0453 6.17658ZM19.3353 13.2264L23.7861 16.3296C24.5493 16.8522 25.5308 16.8671 26.2573 16.364L30.7621 13.2264C31.7694 12.5264 31.7768 11.2745 30.7621 10.567L26.2573 7.42943C25.5308 6.92635 24.5666 6.92404 23.8424 7.42482L19.3353 10.567C18.3183 11.2745 18.3406 12.5264 19.3353 13.2264Z"
                     fill="currentColor" fill-opacity="0.85" />
       </g>
</svg>