<?xml version="1.0" encoding="UTF-8"?>
<!--Generator: Apple Native CoreSVG 326-->
<!DOCTYPE svg PUBLIC "-//W3C//DTD SVG 1.1//EN" "http://www.w3.org/Graphics/SVG/1.1/DTD/svg11.dtd">
<svg version="1.1" xmlns="http://www.w3.org/2000/svg" xmlns:xlink="http://www.w3.org/1999/xlink"
       viewBox="0 0 24.456 22.7503">
       <g>
              <rect height="22.7503" opacity="0" width="24.456" x="0" y="0" />
              <path d="M0 10.829C0 12.0081 0.775306 12.7857 1.97163 12.7857L22.1133 12.7857C23.3021 12.7857 24.0947 12.0081 24.0947 10.829L24.0947 8.77884C24.0947 7.59975 23.3021 6.79745 22.1133 6.79745L1.97163 6.79745C0.767846 6.79745 0 7.59975 0 8.77884ZM2.65091 9.27532L21.4414 9.27532C21.5593 9.27532 21.634 9.34258 21.634 9.46044L21.634 10.1302C21.634 10.2481 21.5593 10.3251 21.4414 10.3251L2.65091 10.3251C2.53306 10.3251 2.46064 10.2481 2.46064 10.1302L2.46064 9.46044C2.46064 9.34258 2.53306 9.27532 2.65091 9.27532ZM6.8824 22.5858L17.2122 22.5858C19.9381 22.5858 20.7285 20.9168 21.0513 19.3665L22.6488 11.7535L20.2352 11.266L18.7279 18.5246C18.4642 19.782 18.2154 20.1056 16.8791 20.1056L7.21552 20.1056C5.87927 20.1056 5.6304 19.782 5.36673 18.5246L3.85943 11.266L1.44586 11.7535L3.04336 19.3665C3.36617 20.9168 4.14906 22.5858 6.8824 22.5858ZM7.86479 19.4142C8.34549 19.3258 8.62287 18.9726 8.5442 18.5482L7.77095 13.9854C7.68998 13.5512 7.31209 13.3083 6.85608 13.372C6.37538 13.4628 6.08077 13.8137 6.16175 14.2455L6.94245 18.8009C7.02343 19.235 7.38409 19.4877 7.86479 19.4142ZM10.6675 19.3332C11.1385 19.3137 11.4549 18.9823 11.4279 18.5482L11.1527 14.0641C11.1309 13.6201 10.7823 13.306 10.3016 13.3502C9.83811 13.372 9.52167 13.7034 9.5412 14.1548L9.8164 18.6217C9.84339 19.0656 10.204 19.3625 10.6675 19.3332ZM13.4369 19.3332C13.9004 19.3625 14.261 19.0656 14.288 18.6217L14.5632 14.1548C14.5827 13.7034 14.2663 13.372 13.8028 13.3502C13.3221 13.306 12.9735 13.6201 12.9517 14.0641L12.6765 18.5482C12.6495 18.9823 12.9734 19.3137 13.4369 19.3332ZM16.2299 19.4142C16.6859 19.4877 17.0712 19.235 17.1522 18.8009L17.9352 14.2455C18.0064 13.8137 17.7193 13.4628 17.2386 13.372C16.7826 13.3083 16.3972 13.5512 16.3237 13.9854L15.5505 18.5482C15.4718 18.9726 15.7492 19.3258 16.2299 19.4142ZM3.18414 7.56342L6.25122 7.56342L9.51251 1.87728C9.90301 1.19963 9.63594 0.491043 9.01349 0.168898C8.43811-0.143481 7.69331-0.0395768 7.31027 0.623698ZM17.8434 7.56342L20.9105 7.56342L16.7844 0.623698C16.4111-0.0223504 15.6812-0.133715 15.0886 0.153977C14.461 0.491043 14.1916 1.19963 14.5821 1.87728Z"
                     fill="currentColor" fill-opacity="0.85" />
       </g>
</svg>