<?xml version="1.0" encoding="UTF-8"?>
<!--Generator: Apple Native CoreSVG 326-->
<!DOCTYPE svg PUBLIC "-//W3C//DTD SVG 1.1//EN" "http://www.w3.org/Graphics/SVG/1.1/DTD/svg11.dtd">
<svg version="1.1" xmlns="http://www.w3.org/2000/svg" xmlns:xlink="http://www.w3.org/1999/xlink"
       viewBox="0 0 28.5634 17.3678">
       <g>
              <rect height="17.3678" opacity="0" width="28.5634" x="0" y="0" />
              <path d="M0 2.73826C0 4.28657 1.18995 5.46675 2.72103 5.46675L25.4735 5.46675C26.9972 5.46675 28.202 4.28657 28.202 2.73826C28.202 1.18534 26.9972 0 25.4735 0L2.72103 0C1.18995 0 0 1.18534 0 2.73826ZM2.59723 2.73826C2.59723 2.50959 2.77247 2.33666 3.00575 2.33666L25.1814 2.33666C25.4146 2.33666 25.5899 2.50959 25.5899 2.73826C25.5899 2.96463 25.4146 3.13756 25.1814 3.13756L3.00575 3.13756C2.77247 3.13756 2.59723 2.96463 2.59723 2.73826ZM8.30958 14.5541L19.8873 14.5541C24.059 14.5541 26.3215 12.4215 26.3215 8.42549L26.3215 3.63014L23.4734 3.63014L23.4734 8.42549C23.4734 10.7051 22.3748 11.7135 19.8873 11.7135L8.30958 11.7135C5.81977 11.7135 4.72863 10.7051 4.72863 8.42549L4.72863 3.63014L1.88058 3.63014L1.88058 8.42549C1.88058 12.4215 4.13553 14.5541 8.30958 14.5541ZM5.24178 17.0302C5.9779 17.3058 6.80992 16.9171 7.07578 16.1884L8.12967 13.2743L5.44643 12.297L4.39999 15.1962C4.12667 15.9398 4.50565 16.7667 5.24178 17.0302ZM22.9551 17.0302C23.6763 16.7816 24.0679 15.9398 23.802 15.2037L22.7481 12.297L20.0649 13.2743L21.1188 16.1884C21.3847 16.9171 22.2167 17.3058 22.9551 17.0302Z"
                     fill="currentColor" fill-opacity="0.85" />
       </g>
</svg>