<?xml version="1.0" encoding="UTF-8"?>
<!--Generator: Apple Native CoreSVG 326-->
<!DOCTYPE svg PUBLIC "-//W3C//DTD SVG 1.1//EN" "http://www.w3.org/Graphics/SVG/1.1/DTD/svg11.dtd">
<svg version="1.1" xmlns="http://www.w3.org/2000/svg" xmlns:xlink="http://www.w3.org/1999/xlink"
       viewBox="0 0 28.1339 17.1956">
       <g>
              <rect height="17.1956" opacity="0" width="28.1339" x="0" y="0" />
              <path d="M0 1.85147C0 2.92763 0.775306 3.70293 1.85147 3.70293L25.9188 3.70293C26.9949 3.70293 27.7725 2.92763 27.7725 1.85147C27.7725 0.775306 26.9949 0 25.9188 0L1.85147 0C0.775306 0 0 0.775306 0 1.85147ZM8.09625 14.5236L19.674 14.5236C23.848 14.5236 26.1104 12.3909 26.1104 8.39498L26.1104 5.24742L1.66956 5.24742L1.66956 8.39498C1.66956 12.3909 3.9222 14.5236 8.09625 14.5236ZM5.02845 16.9997C5.76688 17.2753 6.5989 16.8791 6.86475 16.1579L7.91865 13.2438L5.23541 12.2665L4.18897 15.1657C3.91565 15.9093 4.29233 16.7362 5.02845 16.9997ZM22.7418 16.9997C23.4704 16.7436 23.8569 15.9093 23.591 15.1732L22.5371 12.2665L19.8516 13.2438L20.9055 16.1579C21.1736 16.8791 22.0057 17.2753 22.7418 16.9997Z"
                     fill="currentColor" fill-opacity="0.85" />
       </g>
</svg>