<?xml version="1.0" encoding="UTF-8"?>
<!--Generator: Apple Native CoreSVG 326-->
<!DOCTYPE svg PUBLIC "-//W3C//DTD SVG 1.1//EN" "http://www.w3.org/Graphics/SVG/1.1/DTD/svg11.dtd">
<svg version="1.1" xmlns="http://www.w3.org/2000/svg" xmlns:xlink="http://www.w3.org/1999/xlink"
       viewBox="0 0 31.1701 17.0407">
       <g>
              <rect height="17.0407" opacity="0" width="31.1701" x="0" y="0" />
              <path d="M11.1036 3.99352L5.58248 3.99352C4.54217 3.99352 3.93282 4.1354 3.54602 4.52966C3.16152 4.92392 3.01964 5.49882 3.01964 6.54659L3.01964 10.4838C3.01964 11.527 3.15406 12.1168 3.54602 12.5036C3.94028 12.8881 4.53986 13.0398 5.57557 13.0398L10.0524 13.0398L9.71953 13.9125C9.40051 14.7494 9.5346 15.5036 9.91947 16.0594L5.8467 16.0594C3.72398 16.0594 2.36995 15.7465 1.3291 14.7205C0.303159 13.7021 0 12.3601 0 10.2127L0 6.81366C0 4.67548 0.303159 3.33868 1.3291 2.31274C2.36249 1.2868 3.72398 0.973878 5.84209 0.973878L13.6067 0.973878ZM25.569 2.31274C26.6024 3.33122 26.9055 4.67317 26.9055 6.82058L26.9055 10.2127C26.9055 12.3601 26.6024 13.6871 25.569 14.7205C24.543 15.7465 23.1815 16.0594 21.0565 16.0594L13.6301 16.0594L16.1333 13.0398L21.3299 13.0398C22.3656 13.0398 22.9727 12.8956 23.3572 12.5036C23.744 12.1094 23.8859 11.527 23.8859 10.4838L23.8859 6.53968C23.8859 5.49652 23.7515 4.91646 23.3572 4.52966C22.9578 4.14516 22.3656 3.99352 21.3299 3.99352L17.1826 3.99352L17.5174 3.11334C17.8356 2.28079 17.7029 1.52897 17.32 0.973878L21.0565 0.973878C23.1815 0.973878 24.5356 1.2868 25.569 2.31274ZM30.8087 8.51549C30.8087 10.3081 29.5498 11.5107 28.6216 11.567L28.6216 5.46625C29.5498 5.52254 30.8087 6.71777 30.8087 8.51549Z"
                     fill="currentColor" fill-opacity="0.85" />
              <path d="M7.97676 7.76554C7.62641 8.18425 7.40817 8.72124 7.40817 9.2726C7.40817 10.4804 8.39547 11.4557 9.628 11.4557L10.6566 11.4557L10.6324 11.519L5.625 11.519C5.22953 11.519 4.97835 11.4512 4.79444 11.2673C4.61053 11.0834 4.55018 10.8345 4.55018 10.4367L4.55018 6.60119C4.55018 6.19364 4.61053 5.94246 4.79444 5.75855C4.97604 5.57464 5.22722 5.51429 5.63192 5.51429L9.84294 5.51429ZM22.1111 5.75855C22.2927 5.94246 22.3553 6.19133 22.3553 6.59658L22.3553 10.4367C22.3553 10.8345 22.2927 11.0834 22.1111 11.2673C21.9272 11.4512 21.6783 11.519 21.273 11.519L17.3939 11.519L19.2601 9.26775C19.6105 8.84904 19.8287 8.31205 19.8287 7.75323C19.8287 6.54538 18.8414 5.57761 17.6089 5.57761L16.5803 5.57761L16.6044 5.51429L21.273 5.51429C21.676 5.51429 21.9272 5.57464 22.1111 5.75855Z"
                     fill="currentColor" fill-opacity="0.85" />
              <path d="M8.95265 9.2726C8.95265 9.62865 9.24495 9.90888 9.61823 9.90888L12.9064 9.90888L11.1537 14.4685C10.8247 15.3397 11.7797 15.8605 12.3741 15.1536L18.0688 8.2833C18.1963 8.1265 18.2796 7.93986 18.2796 7.75323C18.2796 7.40464 17.9799 7.11694 17.6066 7.11694L14.3259 7.11694L16.0711 2.56483C16.4076 1.69362 15.4526 1.17277 14.8582 1.87972L9.15597 8.74768C9.03363 8.89932 8.95265 9.08596 8.95265 9.2726Z"
                     fill="currentColor" fill-opacity="0.85" />
       </g>
</svg>