<?xml version="1.0" encoding="UTF-8"?>
<!--Generator: Apple Native CoreSVG 326-->
<!DOCTYPE svg PUBLIC "-//W3C//DTD SVG 1.1//EN" "http://www.w3.org/Graphics/SVG/1.1/DTD/svg11.dtd">
<svg version="1.1" xmlns="http://www.w3.org/2000/svg" xmlns:xlink="http://www.w3.org/1999/xlink"
       viewBox="0 0 31.1701 15.093">
       <g>
              <rect height="15.093" opacity="0" width="31.1701" x="0" y="0" />
              <path d="M5.8467 15.0855L21.0565 15.0855C23.1815 15.0855 24.543 14.7726 25.569 13.7467C26.6024 12.7133 26.9055 11.3862 26.9055 9.23883L26.9055 5.8467C26.9055 3.69929 26.6024 2.35734 25.569 1.33886C24.5356 0.312925 23.1815 0 21.0565 0L5.84209 0C3.72398 0 2.36249 0.312925 1.3291 1.33886C0.303159 2.3648 0 3.7016 0 5.83978L0 9.23883C0 11.3862 0.303159 12.7282 1.3291 13.7467C2.36995 14.7726 3.72398 15.0855 5.8467 15.0855ZM5.57557 12.0659C4.53986 12.0659 3.94028 11.9142 3.54602 11.5297C3.15406 11.1429 3.01964 10.5531 3.01964 9.50996L3.01964 5.57272C3.01964 4.52494 3.16152 3.95005 3.54602 3.55578C3.93282 3.16152 4.54217 3.01964 5.58248 3.01964L21.3299 3.01964C22.3656 3.01964 22.9578 3.17128 23.3572 3.55578C23.7515 3.94259 23.8859 4.52264 23.8859 5.5658L23.8859 9.50996C23.8859 10.5531 23.744 11.1355 23.3572 11.5297C22.9727 11.9217 22.3656 12.0659 21.3299 12.0659ZM28.6216 10.5932C29.5498 10.5369 30.8087 9.33418 30.8087 7.54161C30.8087 5.74389 29.5498 4.54866 28.6216 4.49237Z"
                     fill="currentColor" fill-opacity="0.85" />
              <path d="M5.625 10.5451L7.97464 10.5451C8.37242 10.5451 8.62129 10.4773 8.80289 10.2934C8.9868 10.1095 9.04946 9.86061 9.04946 9.46283L9.04946 5.6227C9.04946 5.21746 8.9868 4.96858 8.8052 4.78468C8.62129 4.60077 8.37011 4.54041 7.97464 4.54041L5.63192 4.54041C5.22722 4.54041 4.97604 4.60077 4.79444 4.78468C4.61053 4.96858 4.55018 5.21976 4.55018 5.62731L4.55018 9.46283C4.55018 9.86061 4.61053 10.1095 4.79444 10.2934C4.97835 10.4773 5.22953 10.5451 5.625 10.5451Z"
                     fill="currentColor" fill-opacity="0.85" />
       </g>
</svg>