<?xml version="1.0" encoding="UTF-8"?>
<!--Generator: Apple Native CoreSVG 326-->
<!DOCTYPE svg PUBLIC "-//W3C//DTD SVG 1.1//EN" "http://www.w3.org/Graphics/SVG/1.1/DTD/svg11.dtd">
<svg version="1.1" xmlns="http://www.w3.org/2000/svg" xmlns:xlink="http://www.w3.org/1999/xlink"
       viewBox="0 0 23.8214 17.8075">
       <g>
              <rect height="17.8075" opacity="0" width="23.8214" x="0" y="0" />
              <path d="M3.64834 17.8075L19.8117 17.8075C22.1386 17.8075 23.4601 16.486 23.4601 14.1683L23.4601 6.40771C23.4601 4.08494 22.1386 2.77089 19.8117 2.77089L18.9739 2.77089L18.9739 1.79057C18.9739 0.675345 18.3279 0.00976562 17.2178 0.00976562L15.9362 0.00976562C14.8359 0.00976562 14.1898 0.675345 14.1898 1.79057L14.1898 2.77089L9.27255 2.77089L9.27255 1.79057C9.27255 0.675345 8.62651 0.00976562 7.51644 0.00976562L6.24224 0.00976562C5.13217 0.00976562 4.48612 0.675345 4.48612 1.79057L4.48612 2.77089L3.64834 2.77089C1.32382 2.77089 0 4.08264 0 6.40771L0 14.1683C0 16.4883 1.32382 17.8075 3.64834 17.8075ZM3.01964 13.7396L3.01964 6.83133C3.01964 6.09921 3.37024 5.79053 4.05583 5.79053L19.4042 5.79053C20.0875 5.79053 20.4404 6.09921 20.4404 6.83133L20.4404 13.7396C20.4404 14.4768 20.0875 14.7878 19.4042 14.7878L4.05583 14.7878C3.37024 14.7878 3.01964 14.4768 3.01964 13.7396Z"
                     fill="currentColor" fill-opacity="0.85" />
       </g>
</svg>