<?xml version="1.0" encoding="UTF-8"?>
<!--Generator: Apple Native CoreSVG 326-->
<!DOCTYPE svg PUBLIC "-//W3C//DTD SVG 1.1//EN" "http://www.w3.org/Graphics/SVG/1.1/DTD/svg11.dtd">
<svg version="1.1" xmlns="http://www.w3.org/2000/svg" xmlns:xlink="http://www.w3.org/1999/xlink"
       viewBox="0 0 21.365 21.006">
       <g>
              <rect height="21.006" opacity="0" width="21.365" x="0" y="0" />
              <path d="M10.4981 20.9962C16.302 20.9962 21.0037 16.2946 21.0037 10.4981C21.0037 4.70163 16.302 0 10.4981 0C4.70163 0 0 4.70163 0 10.4981C0 16.2946 4.70163 20.9962 10.4981 20.9962ZM10.4981 17.9484C6.37829 17.9484 3.04785 14.6179 3.04785 10.4981C3.04785 6.37829 6.37829 3.04785 10.4981 3.04785C14.6179 3.04785 17.9558 6.37829 17.9558 10.4981C17.9558 14.6179 14.6179 17.9484 10.4981 17.9484Z"
                     fill="currentColor" fill-opacity="0.85" />
              <path d="M7.17009 13.386L13.2999 13.386C13.9502 13.386 14.6241 13.34 15.0853 12.8638C15.5639 12.3905 15.6196 11.7264 15.6196 11.0783L15.6196 9.91787C15.6196 9.26982 15.5639 8.596 15.0853 8.11748C14.6241 7.65619 13.9479 7.60045 13.2999 7.60045L7.17009 7.60045C6.52204 7.60045 5.83845 7.65619 5.35017 8.11748C4.88142 8.596 4.83544 9.26982 4.83544 9.91787L4.83544 11.0783C4.83544 11.7264 4.88142 12.3905 5.35017 12.8638C5.83845 13.34 6.51974 13.386 7.17009 13.386ZM7.04314 12.2647C6.61685 12.2647 6.32443 12.1843 6.18079 12.0481C6.03716 11.9142 5.97626 11.6293 5.97626 11.1881L5.97626 9.79092C5.97626 9.36463 6.03716 9.07221 6.18079 8.93834C6.32443 8.80217 6.61915 8.71428 7.04314 8.71428L13.4194 8.71428C13.8336 8.71428 14.1381 8.80217 14.2892 8.94064C14.4156 9.07451 14.4909 9.3767 14.4909 9.79092L14.4909 11.1881C14.4909 11.6195 14.4156 11.9142 14.2892 12.0481C14.1381 12.1843 13.8359 12.2647 13.4194 12.2647ZM7.10689 11.6885L13.3728 11.6885C13.5843 11.6885 13.6958 11.6667 13.7883 11.5742C13.8882 11.4817 13.9221 11.3605 13.9221 11.1662L13.9221 9.81791C13.9221 9.62369 13.8882 9.49498 13.7883 9.40248C13.6958 9.31228 13.5843 9.2956 13.3728 9.2956L7.10689 9.2956C6.88798 9.2956 6.75927 9.31228 6.66677 9.40248C6.5915 9.49498 6.55013 9.62139 6.55013 9.81791L6.55013 11.1662C6.55013 11.3628 6.5915 11.484 6.66677 11.5742C6.75927 11.6667 6.88798 11.6885 7.10689 11.6885ZM16.012 11.546C16.3239 11.5242 16.7652 11.1197 16.7652 10.4981C16.7652 9.87651 16.3239 9.46975 16.012 9.45022Z"
                     fill="currentColor" fill-opacity="0.85" />
       </g>
</svg>