<?xml version="1.0" encoding="UTF-8"?>
<!--Generator: Apple Native CoreSVG 326-->
<!DOCTYPE svg PUBLIC "-//W3C//DTD SVG 1.1//EN" "http://www.w3.org/Graphics/SVG/1.1/DTD/svg11.dtd">
<svg version="1.1" xmlns="http://www.w3.org/2000/svg" xmlns:xlink="http://www.w3.org/1999/xlink"
       viewBox="0 0 20.9971 23.7149">
       <g>
              <rect height="23.7149" opacity="0" width="20.9971" x="0" y="0" />
              <path d="M10.8258 5.75547L13.5424 6.73967L15.2737 1.97156C15.5688 1.18716 15.187 0.379824 14.4221 0.0995925C13.6572-0.178334 12.847 0.185724 12.5668 0.979895ZM10.7755 1.8958C5.29385 1.28348 1.26677 5.09153 0.121222 8.2249C-0.210688 9.1075 0.17466 9.87984 0.843637 10.1331C1.43449 10.3323 1.93405 10.2105 2.76989 9.87116C3.31252 9.56291 3.84878 9.45877 4.38462 9.65826C4.69287 9.76811 4.88952 9.95105 5.04928 10.1191C5.20323 10.2381 5.38944 10.2031 5.48249 9.90555C6.51401 6.62376 8.49127 3.74247 10.7755 1.8958ZM13.5665 2.43206C10.8057 3.45885 8.41133 7.48332 7.39989 11.3702C7.29938 11.7396 7.58313 11.9567 7.97376 11.8177C8.79977 11.5253 9.5368 11.5148 10.1676 11.7487C10.7611 11.9653 11.2839 12.3899 11.7141 13.0598C11.9691 13.4487 12.4331 13.4733 12.6141 13.0788C14.2805 9.46016 14.9918 4.96087 13.5665 2.43206ZM16.0436 3.81836C16.6177 6.69976 16.2714 10.171 14.9627 13.3545C14.8334 13.6526 14.949 13.7934 15.1547 13.791C15.3893 13.765 15.647 13.7569 15.9604 13.8742C16.4985 14.0587 16.8405 14.4945 17.0594 15.0711C17.4835 15.8709 17.7942 16.2907 18.3655 16.5026C19.0442 16.746 19.8206 16.4061 20.1502 15.5063C21.278 12.3678 20.6506 6.87015 16.0436 3.81836ZM4.99536 21.7664C4.71228 22.5318 5.10618 23.3586 5.85668 23.6268C6.60487 23.9001 7.45127 23.5165 7.71712 22.7632L11.7141 11.7778L8.99229 10.7862Z"
                     fill="currentColor" fill-opacity="0.85" />
       </g>
</svg>