<?xml version="1.0" encoding="UTF-8"?>
<!--Generator: Apple Native CoreSVG 326-->
<!DOCTYPE svg PUBLIC "-//W3C//DTD SVG 1.1//EN" "http://www.w3.org/Graphics/SVG/1.1/DTD/svg11.dtd">
<svg version="1.1" xmlns="http://www.w3.org/2000/svg" xmlns:xlink="http://www.w3.org/1999/xlink"
       viewBox="0 0 35.2621 15.965">
       <g>
              <rect height="15.965" opacity="0" width="35.2621" x="0" y="0" />
              <path d="M7.1619 10.0897C8.53764 10.6687 10.1535 10.0116 10.7572 8.633L12.7016 4.20644C13.3053 2.83531 12.643 1.19765 11.2524 0.601405C9.86171 0.00976562 8.26311 0.667459 7.64733 2.06043L5.70519 6.48698C5.09402 7.87765 5.75632 9.47854 7.1619 10.0897ZM8.21362 9.29069C7.2578 9.29069 6.48753 8.51296 6.48753 7.56229C6.48753 6.60648 7.26757 5.84136 8.21362 5.84136C9.17174 5.84136 9.93455 6.60648 9.93455 7.56229C9.93455 8.51296 9.17174 9.29069 8.21362 9.29069ZM8.21362 8.42519C8.70081 8.42519 9.06905 8.03741 9.06905 7.56229C9.06905 7.09179 8.70081 6.70686 8.21362 6.70686C7.7385 6.70686 7.35303 7.09179 7.35303 7.56229C7.35303 8.03741 7.7385 8.42519 8.21362 8.42519ZM16.5268 7.16136C16.0632 5.6344 14.9762 4.83538 14.0054 4.04315C13.9565 4.26261 13.8882 4.46999 13.7905 4.67968L11.8461 9.1137C10.9701 11.093 8.66284 12.0103 6.69613 11.1735C5.00206 10.4416 4.08246 8.68704 4.37118 6.97806C3.78269 8.01837 3.75898 9.2899 4.33406 10.8486C5.47609 14.0506 8.415 15.0016 11.7378 13.7098L13.5553 13.009C16.0649 12.0244 17.2597 9.67331 16.5268 7.16136ZM27.7389 10.0897C29.1421 9.47854 29.8068 7.87765 29.1956 6.48698L27.2534 2.06043C26.6377 0.667459 25.0391 0.00976562 23.6484 0.601405C22.2577 1.19765 21.5954 2.83531 22.1991 4.20644L24.1436 8.633C24.7473 10.0116 26.3631 10.6687 27.7389 10.0897ZM26.6872 9.29069C25.729 9.29069 24.9662 8.51296 24.9662 7.56229C24.9662 6.60648 25.729 5.84136 26.6872 5.84136C27.6332 5.84136 28.4132 6.60648 28.4132 7.56229C28.4132 8.51296 27.643 9.29069 26.6872 9.29069ZM26.6872 8.42519C27.1623 8.42519 27.5477 8.03741 27.5477 7.56229C27.5477 7.09179 27.1623 6.70686 26.6872 6.70686C26.2074 6.70686 25.8294 7.09179 25.8294 7.56229C25.8294 8.03741 26.2074 8.42519 26.6872 8.42519ZM18.3717 7.16136C17.641 9.67331 18.8335 12.0244 21.3455 13.009L23.163 13.7098C26.4858 15.0016 29.4247 14.0506 30.5644 10.8486C31.1418 9.2899 31.1181 8.01837 30.5296 6.97806C30.8183 8.68704 29.8987 10.4416 28.2023 11.1735C26.2379 12.0103 23.9306 11.093 23.0547 9.1137L21.1103 4.67968C21.0126 4.46999 20.9442 4.26261 20.8954 4.04315C19.9222 4.83538 18.8376 5.6344 18.3717 7.16136Z"
                     fill="currentColor" fill-opacity="0.85" />
              <path d="M3.21817 11.2558C2.76379 10.0345 2.62883 8.91486 2.86551 7.62077C1.11977 8.17389 0 9.72323 0 11.6178C0 14.0223 1.94039 15.965 4.32538 15.965C5.4053 15.965 6.17867 15.6736 6.82672 15.0911C5.18731 14.4915 3.90977 13.1887 3.21817 11.2558ZM31.6826 11.2558C30.9887 13.1887 29.7135 14.4915 28.0741 15.0911C28.7221 15.6736 29.4955 15.965 30.5754 15.965C32.9604 15.965 34.9008 14.0223 34.9008 11.6178C34.9008 9.72323 33.781 8.17389 32.0353 7.62077C32.2719 8.91486 32.1347 10.0345 31.6826 11.2558Z"
                     fill="currentColor" fill-opacity="0.425" />
              <path d="M8.21362 9.29069C7.2578 9.29069 6.48753 8.51296 6.48753 7.56229C6.48753 6.60648 7.26757 5.84136 8.21362 5.84136C9.17174 5.84136 9.93455 6.60648 9.93455 7.56229C9.93455 8.51296 9.17174 9.29069 8.21362 9.29069ZM8.21362 8.42519C8.70081 8.42519 9.06905 8.03741 9.06905 7.56229C9.06905 7.09179 8.70081 6.70686 8.21362 6.70686C7.7385 6.70686 7.35303 7.09179 7.35303 7.56229C7.35303 8.03741 7.7385 8.42519 8.21362 8.42519ZM26.6872 9.29069C25.729 9.29069 24.9662 8.51296 24.9662 7.56229C24.9662 6.60648 25.729 5.84136 26.6872 5.84136C27.6332 5.84136 28.4132 6.60648 28.4132 7.56229C28.4132 8.51296 27.643 9.29069 26.6872 9.29069ZM26.6872 8.42519C27.1623 8.42519 27.5477 8.03741 27.5477 7.56229C27.5477 7.09179 27.1623 6.70686 26.6872 6.70686C26.2074 6.70686 25.8294 7.09179 25.8294 7.56229C25.8294 8.03741 26.2074 8.42519 26.6872 8.42519Z"
                     fill="currentColor" fill-opacity="0.2125" />
       </g>
</svg>