<?xml version="1.0" encoding="UTF-8"?>
<!--Generator: Apple Native CoreSVG 326-->
<!DOCTYPE svg PUBLIC "-//W3C//DTD SVG 1.1//EN" "http://www.w3.org/Graphics/SVG/1.1/DTD/svg11.dtd">
<svg version="1.1" xmlns="http://www.w3.org/2000/svg" xmlns:xlink="http://www.w3.org/1999/xlink"
       viewBox="0 0 37.8905 15.237">
       <g>
              <rect height="15.237" opacity="0" width="37.8905" x="0" y="0" />
              <path d="M7.58134 0.0719982C3.34354 0.0719982 0 3.42531 0 7.65565C0 11.8934 3.34354 15.237 7.58134 15.237L29.9478 15.237C34.1781 15.237 37.5291 11.8934 37.5291 7.65565C37.5291 3.42531 34.1781 0.0719982 29.9478 0.0719982ZM7.58134 3.0991L29.9478 3.0991C32.5211 3.0991 34.5095 5.08231 34.5095 7.65565C34.5095 10.2364 32.5211 12.2173 29.9478 12.2173L7.58134 12.2173C5.00801 12.2173 3.01964 10.2364 3.01964 7.65565C3.01964 5.08231 5.00801 3.0991 7.58134 3.0991ZM18.7657 10.0388C19.9019 10.0388 20.8474 9.10533 20.8474 8.00587C20.8474 6.84783 19.8847 5.89486 18.7657 5.89486C18.3579 5.89486 17.9816 5.99482 17.637 6.25388L17.637 4.59725L16.6938 5.00279L16.6938 8.00587C16.6938 9.13462 17.5979 10.0388 18.7657 10.0388ZM18.7657 9.10533C18.1402 9.10533 17.637 8.60958 17.637 8.00587C17.637 7.38033 18.1499 6.8599 18.7657 6.8599C19.389 6.8599 19.8847 7.39009 19.8847 8.00587C19.8847 8.60958 19.389 9.10533 18.7657 9.10533Z"
                     fill="currentColor" fill-opacity="0.85" />
       </g>
</svg>