<?xml version="1.0" encoding="UTF-8"?>
<!--Generator: Apple Native CoreSVG 326-->
<!DOCTYPE svg PUBLIC "-//W3C//DTD SVG 1.1//EN" "http://www.w3.org/Graphics/SVG/1.1/DTD/svg11.dtd">
<svg version="1.1" xmlns="http://www.w3.org/2000/svg" xmlns:xlink="http://www.w3.org/1999/xlink"
       viewBox="0 0 29.5313 20.6351">
       <g>
              <rect height="20.6351" opacity="0" width="29.5313" x="0" y="0" />
              <path d="M4.89695 15.9167L12.6869 15.9167C13.2142 15.9167 13.6013 15.5658 13.6576 15.0414L13.9873 11.7147C14.0487 11.0876 13.5876 10.5919 12.9552 10.5919L4.89695 10.5919C3.42015 10.5919 2.23687 11.7924 2.23687 13.2715C2.23687 14.7334 3.42015 15.9167 4.89695 15.9167ZM4.89695 14.0851C5.3623 14.0851 5.73 13.722 5.73 13.2566C5.73 12.7838 5.3623 12.4161 4.89695 12.4161C4.43905 12.4161 4.05874 12.7838 4.05874 13.2566C4.05874 13.722 4.43905 14.0851 4.89695 14.0851ZM10.4795 20.6254L11.7355 20.6254L12.0997 16.9636L10.8488 16.9636ZM4.89695 14.9948C3.93882 14.9948 3.14902 14.2222 3.14902 13.2566C3.14902 12.291 3.9239 11.5064 4.89695 11.5064C5.86483 11.5064 6.63972 12.2836 6.63972 13.2566C6.63972 14.2222 5.86483 14.9948 4.89695 14.9948ZM9.10581 0C4.1866 0 0 4.56752 0 10.2994C0 14.481 1.27523 19.6953 3.47577 19.6999C4.12534 19.6999 4.51882 19.028 4.51882 17.8383C4.51882 17.5884 4.50675 17.3579 4.46592 17.0516C2.55793 16.8407 1.07325 15.2301 1.07325 13.2715C1.07325 12.316 1.43555 11.4465 2.01433 10.7872C1.99819 10.5888 1.98151 10.3812 1.98151 10.2064C1.98151 5.94314 5.52085 1.98151 8.99839 1.98151C10.9527 1.98151 11.9408 3.51647 11.6674 6.12566L10.48 17.423C10.3428 18.7285 12.2824 18.7435 12.4024 17.5724L13.5777 6.06476C13.9712 2.22699 12.3191 0 9.10581 0ZM24.2707 15.9167C25.7498 15.9167 26.9331 14.7334 26.9331 13.2715C26.9331 11.7924 25.7498 10.5919 24.2707 10.5919L16.2147 10.5919C15.5801 10.5919 15.1114 11.0876 15.1826 11.7147L15.5124 15.0414C15.5687 15.5658 15.9558 15.9167 16.4807 15.9167ZM24.2707 14.0851C24.7309 14.0851 25.1089 13.722 25.1089 13.2566C25.1089 12.7838 24.7309 12.4161 24.2707 12.4161C23.8053 12.4161 23.4399 12.7838 23.4399 13.2566C23.4399 13.722 23.8053 14.0851 24.2707 14.0851ZM18.6904 20.6254L18.3188 16.9636L17.0703 16.9636L17.4344 20.6254ZM24.2707 14.9948C23.3051 14.9948 22.5279 14.2222 22.5279 13.2566C22.5279 12.2836 23.3051 11.5064 24.2707 11.5064C25.246 11.5064 26.0186 12.291 26.0186 13.2566C26.0186 14.2222 25.2311 14.9948 24.2707 14.9948ZM20.0641 0C16.8485 0 15.1965 2.22699 15.5922 6.06476L16.7675 17.5724C16.8876 18.7435 18.8272 18.7285 18.6876 17.423L17.5025 6.12566C17.2268 3.51647 18.2172 1.98151 20.1715 1.98151C23.6468 1.98151 27.1786 5.94314 27.1786 10.2064C27.1786 10.3812 27.1694 10.5888 27.1556 10.7872C27.7321 11.4465 28.0944 12.316 28.0944 13.2715C28.0944 15.2301 26.612 16.8407 24.704 17.0516C24.6632 17.3579 24.6488 17.5884 24.6488 17.8383C24.6488 19.028 25.0423 19.6999 25.6918 19.6999C27.8947 19.6953 29.1699 14.481 29.1699 10.2994C29.1699 4.56752 24.981 0 20.0641 0Z"
                     fill="currentColor" fill-opacity="0.85" />
              <path d="M4.89695 14.0851C5.3623 14.0851 5.73 13.722 5.73 13.2566C5.73 12.7838 5.3623 12.4161 4.89695 12.4161C4.43905 12.4161 4.05874 12.7838 4.05874 13.2566C4.05874 13.722 4.43905 14.0851 4.89695 14.0851ZM4.89695 14.9948C3.93882 14.9948 3.14902 14.2222 3.14902 13.2566C3.14902 12.291 3.9239 11.5064 4.89695 11.5064C5.86483 11.5064 6.63972 12.2836 6.63972 13.2566C6.63972 14.2222 5.86483 14.9948 4.89695 14.9948ZM24.2707 14.0851C24.7309 14.0851 25.1089 13.722 25.1089 13.2566C25.1089 12.7838 24.7309 12.4161 24.2707 12.4161C23.8053 12.4161 23.4399 12.7838 23.4399 13.2566C23.4399 13.722 23.8053 14.0851 24.2707 14.0851ZM24.2707 14.9948C23.3051 14.9948 22.5279 14.2222 22.5279 13.2566C22.5279 12.2836 23.3051 11.5064 24.2707 11.5064C25.246 11.5064 26.0186 12.291 26.0186 13.2566C26.0186 14.2222 25.2311 14.9948 24.2707 14.9948Z"
                     fill="currentColor" fill-opacity="0.2125" />
       </g>
</svg>