<?xml version="1.0" encoding="UTF-8"?>
<!--Generator: Apple Native CoreSVG 326-->
<!DOCTYPE svg PUBLIC "-//W3C//DTD SVG 1.1//EN" "http://www.w3.org/Graphics/SVG/1.1/DTD/svg11.dtd">
<svg version="1.1" xmlns="http://www.w3.org/2000/svg" xmlns:xlink="http://www.w3.org/1999/xlink"
       viewBox="0 0 17.474 17.3672">
       <g>
              <rect height="17.3672" opacity="0" width="17.474" x="0" y="0" />
              <path d="M14.5813 9.78564C14.5813 12.915 12.4738 15.3672 9.5449 16.3132C10.3519 16.9686 11.3715 17.3672 12.4916 17.3672C15.046 17.3672 17.1127 15.2844 17.1127 12.7461C17.1127 10.9195 16.0363 9.32272 14.4785 8.57713C14.5497 8.98092 14.5813 9.38701 14.5813 9.78564Z"
                     fill="currentColor" fill-opacity="0.425" />
              <path d="M2.84616 6.56553L4.72389 9.83908C5.82905 11.7536 8.23982 12.3992 10.1371 11.294C12.0418 10.2061 12.68 7.79764 11.5869 5.89292L9.69939 2.60675C8.604 0.699728 6.19092 0.0615656 4.29827 1.15695C2.38894 2.26957 1.73355 4.63612 2.84616 6.56553ZM8.33978 10.0103C7.25186 10.0103 6.38393 9.12971 6.38393 8.04694C6.38393 6.96878 7.25186 6.09108 8.33978 6.09108C9.41795 6.09108 10.2933 6.96878 10.2933 8.04694C10.2933 9.12971 9.42771 10.0103 8.33978 10.0103ZM8.33978 9.02702C8.8758 9.02702 9.31756 8.58295 9.31756 8.04694C9.31756 7.51553 8.8758 7.07432 8.33978 7.07432C7.794 7.07432 7.36717 7.51553 7.36717 8.04694C7.36717 8.58295 7.794 9.02702 8.33978 9.02702ZM6.80209 15.7514C10.546 15.7514 13.5967 13.2694 13.5967 9.79541C13.5967 8.93615 13.4106 8.0769 13.0528 7.24233C13.3084 9.15737 12.4088 11.1269 10.6282 12.1419C8.25935 13.5331 5.23795 12.7163 3.87374 10.3302L1.9937 7.0469C1.65597 6.48456 1.4555 5.88546 1.36992 5.2789C0.603589 6.50761 0 7.59038 0 9.3135C0 13.1712 3.06562 15.7514 6.80209 15.7514Z"
                     fill="currentColor" fill-opacity="0.85" />
              <path d="M8.33978 10.0103C7.25186 10.0103 6.38393 9.12971 6.38393 8.04694C6.38393 6.96878 7.25186 6.09108 8.33978 6.09108C9.41795 6.09108 10.2933 6.96878 10.2933 8.04694C10.2933 9.12971 9.42771 10.0103 8.33978 10.0103ZM8.33978 9.02702C8.8758 9.02702 9.31756 8.58295 9.31756 8.04694C9.31756 7.51553 8.8758 7.07432 8.33978 7.07432C7.794 7.07432 7.36717 7.51553 7.36717 8.04694C7.36717 8.58295 7.794 9.02702 8.33978 9.02702Z"
                     fill="currentColor" fill-opacity="0.2125" />
       </g>
</svg>