<?xml version="1.0" encoding="UTF-8"?>
<!--Generator: Apple Native CoreSVG 326-->
<!DOCTYPE svg PUBLIC "-//W3C//DTD SVG 1.1//EN" "http://www.w3.org/Graphics/SVG/1.1/DTD/svg11.dtd">
<svg version="1.1" xmlns="http://www.w3.org/2000/svg" xmlns:xlink="http://www.w3.org/1999/xlink"
       viewBox="0 0 14.4243 19.7172">
       <g>
              <rect height="19.7172" opacity="0" width="14.4243" x="0" y="0" />
              <path d="M4.92679 0C1.65664 0 0 2.33277 0 6.00859L0 8.4705C0 11.1634 0.674374 12.434 2.58031 13.4898L6.94706 15.8869C8.08096 16.5078 8.60139 16.7031 9.38319 16.7031C11.0329 16.7031 12.3771 15.3268 12.3771 13.6496C12.3771 12.5576 11.7831 11.5139 10.5297 10.8567L2.15093 6.48292C2.15093 3.58429 3.0362 2.15323 5.03191 2.15323C8.32711 2.15323 11.2356 5.8823 11.7662 10.2972C12.8866 11.1243 13.5332 12.3108 13.5332 13.6496C13.5332 15.7017 12.048 17.4329 10.1199 17.7949C10.31 18.6579 11.0389 19.7051 11.9194 19.7051C13.1686 19.7051 14.063 16.0225 14.063 12.6868C14.063 5.77925 9.926 0 4.92679 0ZM9.41425 15.529C8.39522 15.529 7.54968 14.6835 7.54968 13.6472C7.54968 12.6259 8.39522 11.7804 9.41425 11.7804C10.4528 11.7804 11.2909 12.6259 11.2909 13.6472C11.2909 14.6835 10.4528 15.529 9.41425 15.529ZM9.41425 14.6193C9.95257 14.6193 10.3886 14.1833 10.3886 13.6472C10.3886 13.1285 9.95257 12.6901 9.41425 12.6901C8.88053 12.6901 8.4594 13.1285 8.4594 13.6472C8.4594 14.1833 8.88053 14.6193 9.41425 14.6193Z"
                     fill="currentColor" fill-opacity="0.85" />
              <path d="M9.41425 15.529C8.39522 15.529 7.54968 14.6835 7.54968 13.6472C7.54968 12.6259 8.39522 11.7804 9.41425 11.7804C10.4528 11.7804 11.2909 12.6259 11.2909 13.6472C11.2909 14.6835 10.4528 15.529 9.41425 15.529ZM9.41425 14.6193C9.95257 14.6193 10.3886 14.1833 10.3886 13.6472C10.3886 13.1285 9.95257 12.6901 9.41425 12.6901C8.88053 12.6901 8.4594 13.1285 8.4594 13.6472C8.4594 14.1833 8.88053 14.6193 9.41425 14.6193Z"
                     fill="currentColor" fill-opacity="0.2125" />
       </g>
</svg>