<?xml version="1.0" encoding="UTF-8"?>
<!--Generator: Apple Native CoreSVG 326-->
<!DOCTYPE svg PUBLIC "-//W3C//DTD SVG 1.1//EN" "http://www.w3.org/Graphics/SVG/1.1/DTD/svg11.dtd">
<svg version="1.1" xmlns="http://www.w3.org/2000/svg" xmlns:xlink="http://www.w3.org/1999/xlink"
       viewBox="0 0 26.9952 19.5602">
       <g>
              <rect height="19.5602" opacity="0" width="26.9952" x="0" y="0" />
              <path d="M11.88 19.5527L14.7539 19.5527C17.6324 19.5527 19.7565 19.1834 21.3816 18.3867C24.758 16.7645 26.6339 13.5363 26.6339 9.77521C26.6339 8.48669 26.4098 7.25216 25.9766 6.12736L0.657269 6.12736C0.224063 7.25216 0 8.48669 0 9.77521C0 13.5363 1.87585 16.7645 5.25233 18.3867C6.87737 19.1834 9.00154 19.5527 11.88 19.5527ZM13.323 14.2769C12.0863 14.2769 11.1104 13.301 11.1104 12.0884L11.1104 8.90789L12.1104 8.4702L12.1104 10.2353C12.4918 9.96652 12.883 9.84418 13.323 9.84418C14.5309 9.84418 15.5454 10.8563 15.5454 12.0884C15.5454 13.2866 14.5453 14.2769 13.323 14.2769ZM13.323 13.2866C13.9881 13.2866 14.5309 12.7415 14.5309 12.0884C14.5309 11.4456 13.9881 10.8684 13.323 10.8684C12.6728 10.8684 12.1104 11.4135 12.1104 12.0884C12.1104 12.7415 12.6555 13.2866 13.323 13.2866ZM1.19723 4.95451L25.4367 4.95451C24.5487 3.34003 23.1753 2.02015 21.3816 1.15859C19.7565 0.36703 17.6324 0 14.7539 0L11.88 0C9.00154 0 6.87737 0.36703 5.25233 1.15859C3.45855 2.02015 2.08523 3.34003 1.19723 4.95451Z"
                     fill="currentColor" fill-opacity="0.85" />
       </g>
</svg>