<?xml version="1.0" encoding="UTF-8"?>
<!--Generator: Apple Native CoreSVG 326-->
<!DOCTYPE svg PUBLIC "-//W3C//DTD SVG 1.1//EN" "http://www.w3.org/Graphics/SVG/1.1/DTD/svg11.dtd">
<svg version="1.1" xmlns="http://www.w3.org/2000/svg" xmlns:xlink="http://www.w3.org/1999/xlink"
       viewBox="0 0 34.3429 15.1404">
       <g>
              <rect height="15.1404" opacity="0" width="34.3429" x="0" y="0" />
              <path d="M14.0438 15.1284L19.9354 15.1284C24.4724 15.1284 26.6746 15.0795 29.028 14.2851C32.2032 13.2162 33.9815 10.8015 33.9815 7.56533C33.9815 4.32175 32.2032 1.91449 29.028 0.83578C26.6746 0.0488281 24.4724 0 19.9354 0L14.0438 0C9.50917 0 7.29717 0.0488281 4.94377 0.83578C1.76855 1.91449 0 4.32175 0 7.56533C0 10.8015 1.76855 13.2162 4.94377 14.2851C7.29717 15.0795 9.50917 15.1284 14.0438 15.1284ZM14.0438 12.1087C9.55109 12.1087 7.79958 12.0599 5.90669 11.4354C4.15597 10.8396 3.01964 9.32296 3.01964 7.56533C3.01964 5.8077 4.15597 4.28359 5.90669 3.69523C7.79958 3.07078 9.55109 3.01964 14.0438 3.01964L19.9354 3.01964C24.4304 3.01964 26.1745 3.07078 28.0725 3.69523C29.8158 4.2859 30.9521 5.81 30.9521 7.56533C30.9521 9.32065 29.8158 10.8373 28.0725 11.4354C26.1745 12.0599 24.4304 12.1087 19.9354 12.1087ZM16.9859 9.96076C18.0969 9.96076 19.0028 9.06462 19.0028 8.00017C19.0028 6.8622 18.0871 5.94654 16.9859 5.94654C16.5878 5.94654 16.2265 6.05396 15.8944 6.30556L15.8944 4.70115L14.9885 5.09924L14.9885 8.00017C14.9885 9.09162 15.8577 9.96076 16.9859 9.96076ZM16.9859 9.06462C16.3925 9.06462 15.8944 8.56658 15.8944 8.00017C15.8944 7.38724 16.4023 6.8915 16.9859 6.8915C17.589 6.8915 18.0871 7.39701 18.0871 8.00017C18.0871 8.56658 17.589 9.06462 16.9859 9.06462Z"
                     fill="currentColor" fill-opacity="0.85" />
       </g>
</svg>