<?xml version="1.0" encoding="UTF-8"?>
<!--Generator: Apple Native CoreSVG 326-->
<!DOCTYPE svg PUBLIC "-//W3C//DTD SVG 1.1//EN" "http://www.w3.org/Graphics/SVG/1.1/DTD/svg11.dtd">
<svg version="1.1" xmlns="http://www.w3.org/2000/svg" xmlns:xlink="http://www.w3.org/1999/xlink"
       viewBox="0 0 17.941 16.7519">
       <g>
              <rect height="16.7519" opacity="0" width="17.941" x="0" y="0" />
              <path d="M7.52839 10.5785C8.97018 11.1869 10.6641 10.4981 11.2971 9.05346L13.3444 4.39714C13.9774 2.95765 13.2858 1.23672 11.8216 0.611171C10.3626-0.00460982 8.67612 0.684686 8.03335 2.14601L5.99585 6.79487C5.34562 8.25159 6.04698 9.93807 7.52839 10.5785ZM8.62663 9.74045C7.62198 9.74045 6.81495 8.92366 6.81495 7.92647C6.81495 6.92413 7.63175 6.11249 8.62663 6.11249C9.63358 6.11249 10.4429 6.92413 10.4429 7.92647C10.4429 8.92366 9.63358 9.74045 8.62663 9.74045ZM8.62663 8.83073C9.13565 8.83073 9.53089 8.42112 9.53089 7.92647C9.53089 7.42667 9.13565 7.02221 8.62663 7.02221C8.12967 7.02221 7.72467 7.42667 7.72467 7.92647C7.72467 8.42112 8.12967 8.83073 8.62663 8.83073ZM17.3574 7.50601C16.872 5.90093 15.7339 5.06284 14.7142 4.22409C14.6631 4.46077 14.5872 4.67792 14.4873 4.89737L12.44 9.55369C11.525 11.6381 9.10514 12.5997 7.03562 11.7237C5.25882 10.9476 4.28523 9.11036 4.59063 7.31349C3.9757 8.40263 3.94968 9.73736 4.5489 11.3765C5.74722 14.7371 8.83492 15.7472 12.3266 14.3893L14.2394 13.642C16.876 12.6109 18.1271 10.1449 17.3574 7.50601Z"
                     fill="currentColor" fill-opacity="0.85" />
              <path d="M3.38418 11.8032C2.90282 10.5308 2.75809 9.3451 3.0143 7.98495C1.17836 8.57252 0 10.1925 0 12.187C0 14.7139 2.03804 16.7519 4.54538 16.7519C5.67413 16.7519 6.49117 16.4434 7.16851 15.8292C5.45098 15.2101 4.10739 13.8338 3.38418 11.8032Z"
                     fill="currentColor" fill-opacity="0.425" />
              <path d="M8.62663 9.74045C7.62198 9.74045 6.81495 8.92366 6.81495 7.92647C6.81495 6.92413 7.63175 6.11249 8.62663 6.11249C9.63358 6.11249 10.4429 6.92413 10.4429 7.92647C10.4429 8.92366 9.63358 9.74045 8.62663 9.74045ZM8.62663 8.83073C9.13565 8.83073 9.53089 8.42112 9.53089 7.92647C9.53089 7.42667 9.13565 7.02221 8.62663 7.02221C8.12967 7.02221 7.72467 7.42667 7.72467 7.92647C7.72467 8.42112 8.12967 8.83073 8.62663 8.83073Z"
                     fill="currentColor" fill-opacity="0.2125" />
       </g>
</svg>