<?xml version="1.0" encoding="UTF-8"?>
<!--Generator: Apple Native CoreSVG 326-->
<!DOCTYPE svg PUBLIC "-//W3C//DTD SVG 1.1//EN" "http://www.w3.org/Graphics/SVG/1.1/DTD/svg11.dtd">
<svg version="1.1" xmlns="http://www.w3.org/2000/svg" xmlns:xlink="http://www.w3.org/1999/xlink"
       viewBox="0 0 26.9952 19.5453">
       <g>
              <rect height="19.5453" opacity="0" width="26.9952" x="0" y="0" />
              <path d="M0 9.76775C0 13.5288 1.87585 16.757 5.25233 18.3792C6.87737 19.1759 9.00154 19.5453 11.88 19.5453L14.7539 19.5453C17.6324 19.5453 19.7565 19.1759 21.3816 18.3792C24.758 16.757 26.6339 13.5288 26.6339 9.76775C26.6339 6.32843 24.7012 3.11742 21.3816 1.52738C19.7565 0.730663 17.6324 0.361328 14.7539 0.361328L11.88 0.361328C9.00154 0.361328 6.87737 0.730663 5.25233 1.52738C1.93038 3.11742 0 6.32843 0 9.76775ZM3.01964 9.76775C3.01964 6.87227 4.99879 4.4484 7.99314 3.73945C9.02029 3.493 10.2767 3.38097 11.88 3.38097L14.7539 3.38097C17.2304 3.38097 18.8471 3.6441 20.0713 4.24156C22.2693 5.30152 23.6143 7.40423 23.6143 9.76775C23.6143 12.5596 21.9089 14.8333 19.1087 15.6474C18.0675 16.0762 16.7319 16.2645 14.7539 16.2645L11.88 16.2645C10.0003 16.2645 8.62244 16.0984 7.52506 15.7396C4.78116 14.9115 3.01964 12.5953 3.01964 9.76775ZM2.90337 6.44204L23.7403 6.44204L23.7403 5.26919L2.90337 5.26919ZM13.323 13.3177C14.4615 13.3177 15.4047 12.3917 15.4047 11.2848C15.4047 10.1342 14.442 9.18127 13.323 9.18127C12.9151 9.18127 12.5412 9.28123 12.1942 9.54029L12.1942 7.88365L11.251 8.2892L11.251 11.2848C11.251 12.4136 12.1552 13.3177 13.323 13.3177ZM13.323 12.3917C12.6974 12.3917 12.1942 11.896 12.1942 11.2848C12.1942 10.6667 12.7147 10.1463 13.323 10.1463C13.9462 10.1463 14.442 10.6765 14.442 11.2848C14.442 11.896 13.9462 12.3917 13.323 12.3917Z"
                     fill="currentColor" fill-opacity="0.85" />
       </g>
</svg>