<?xml version="1.0" encoding="UTF-8"?>
<!--Generator: Apple Native CoreSVG 326-->
<!DOCTYPE svg PUBLIC "-//W3C//DTD SVG 1.1//EN" "http://www.w3.org/Graphics/SVG/1.1/DTD/svg11.dtd">
<svg version="1.1" xmlns="http://www.w3.org/2000/svg" xmlns:xlink="http://www.w3.org/1999/xlink"
       viewBox="0 0 21.0156 22.0295">
       <g>
              <rect height="22.0295" opacity="0" width="21.0156" x="0" y="0" />
              <path d="M0 10.4337C0 12.1851 0.422227 14.0101 1.23793 15.7477C0.959336 16.1727 0.945507 16.8366 1.25625 17.4656L3.07617 21.1789C3.33918 21.7072 3.84171 21.9599 4.34194 21.9599C5.05799 21.9599 5.77689 21.4518 5.79071 20.6157L3.63712 16.2057C2.78424 14.473 2.42212 12.8731 2.42212 10.4435C2.42212 5.77931 5.58806 2.65989 10.3234 2.65989C15.0565 2.65989 18.2247 5.77931 18.2247 10.4435C18.2247 12.8806 17.8701 14.4804 17.0172 16.2057L14.8538 20.6157C14.8774 21.4518 15.5889 21.9599 16.3124 21.9599C16.8103 21.9599 17.3128 21.7072 17.5707 21.1789L19.3883 17.4656C19.699 16.8366 19.695 16.1727 19.4164 15.7477C20.2246 14.0101 20.6543 12.1851 20.6543 10.4337C20.6543 4.45015 16.4297 0 10.3234 0C4.21717 0 0 4.45015 0 10.4337Z"
                     fill="currentColor" fill-opacity="0.85" />
              <path d="M6.3923 14.2644C5.98852 13.4299 5.21254 13.2587 4.63012 13.5085C4.00919 13.7854 3.58641 14.5436 4.06087 15.5045L6.31236 20.088C6.7529 20.9863 7.55587 21.297 8.31692 20.8829C8.93785 20.5423 9.13032 19.8283 8.76844 19.0828ZM14.2522 14.2644L11.8784 19.0828C11.5165 19.8283 11.709 20.5423 12.3276 20.8829C13.0961 21.297 13.8939 20.9863 14.3345 20.088L16.5934 15.5045C17.0604 14.5436 16.6428 13.7854 16.0242 13.5085C15.432 13.2587 14.6658 13.4299 14.2522 14.2644Z"
                     fill="currentColor" fill-opacity="0.425" />
       </g>
</svg>