<?xml version="1.0" encoding="UTF-8"?>
<!--Generator: Apple Native CoreSVG 326-->
<!DOCTYPE svg PUBLIC "-//W3C//DTD SVG 1.1//EN" "http://www.w3.org/Graphics/SVG/1.1/DTD/svg11.dtd">
<svg version="1.1" xmlns="http://www.w3.org/2000/svg" xmlns:xlink="http://www.w3.org/1999/xlink"
       viewBox="0 0 19.3993 19.0529">
       <g>
              <rect height="19.0529" opacity="0" width="19.3993" x="0" y="0" />
              <path d="M19.0379 3.63912L19.0379 15.4011C19.0379 17.7262 17.7164 19.0379 15.3896 19.0379L3.64834 19.0379C1.32382 19.0379 0 17.7262 0 15.4011L0 3.63912C0 1.32151 1.32382 0 3.64834 0L15.3896 0C17.7164 0 19.0379 1.32151 19.0379 3.63912ZM7.77471 13.7704C7.82815 14.6257 8.58635 15.3242 9.61568 15.3242C10.645 15.3242 11.4055 14.6257 11.459 13.7704ZM7.97221 4.8967C6.72142 5.34659 6.06318 6.6123 5.89729 8.2781C5.76123 9.21645 5.6808 9.97016 5.25749 10.3086C4.74913 10.7343 4.31701 11.2077 4.31701 11.8487C4.31701 12.4407 4.73912 12.8559 5.41568 12.8559L13.818 12.8559C14.4848 12.8559 14.9144 12.4407 14.9144 11.8487C14.9144 11.2077 14.4869 10.732 13.9664 10.3086C13.5483 9.97016 13.4799 9.21645 13.3364 8.2781C13.1556 6.6123 12.5099 5.34659 11.2592 4.8967C10.9898 4.18381 10.3838 3.72471 9.61568 3.72471C8.84014 3.72471 8.24389 4.18381 7.97221 4.8967Z"
                     fill="currentColor" fill-opacity="0.85" />
       </g>
</svg>