<?xml version="1.0" encoding="UTF-8"?>
<!--Generator: Apple Native CoreSVG 326-->
<!DOCTYPE svg PUBLIC "-//W3C//DTD SVG 1.1//EN" "http://www.w3.org/Graphics/SVG/1.1/DTD/svg11.dtd">
<svg version="1.1" xmlns="http://www.w3.org/2000/svg" xmlns:xlink="http://www.w3.org/1999/xlink"
       viewBox="0 0 21.365 21.006">
       <g>
              <rect height="21.006" opacity="0" width="21.365" x="0" y="0" />
              <path d="M10.4981 20.9962C16.302 20.9962 21.0037 16.2946 21.0037 10.4981C21.0037 4.70163 16.302 0 10.4981 0C4.70163 0 0 4.70163 0 10.4981C0 16.2946 4.70163 20.9962 10.4981 20.9962ZM10.4981 17.9484C6.37829 17.9484 3.04785 14.6179 3.04785 10.4981C3.04785 6.37829 6.37829 3.04785 10.4981 3.04785C14.6179 3.04785 17.9558 6.37829 17.9558 10.4981C17.9558 14.6179 14.6179 17.9484 10.4981 17.9484Z"
                     fill="currentColor" fill-opacity="0.85" />
              <path d="M13.1648 7.64564C12.5489 7.64564 12.099 7.97142 11.7331 8.76432C10.4829 7.52736 8.61165 6.48911 6.73289 6.34548C6.2366 6.31618 6.17054 6.71536 6.16078 6.97387C6.03207 9.06232 7.62762 10.918 9.70643 11.161C9.1049 12.4136 8.1856 13.3767 7.18884 14.1783C6.98321 14.3322 7.06188 14.6016 7.16931 14.7602C7.72825 15.6172 9.46653 16.237 10.5265 15.8664C10.8252 15.7613 10.8665 15.612 10.8665 15.3994L10.8665 13.9859C11.9863 13.8877 13.6795 13.0525 13.4858 10.7199L13.4669 10.4905C13.926 10.3664 14.3052 10.1452 14.5511 9.87517L15.7484 10.0579C16.1057 10.1119 16.2792 9.57881 15.9024 9.42947L14.8837 8.99166C14.8084 8.3063 14.0644 7.64564 13.1648 7.64564ZM9.46435 6.46224C10.2514 6.83224 10.9678 7.28498 11.5969 7.80662C11.9065 7.41709 12.2696 7.17865 12.689 7.089C12.1484 6.17946 11.4618 5.48598 10.6201 4.99188C10.2117 4.75465 9.78091 4.92067 9.66833 5.40082C9.56146 5.76457 9.49365 6.10594 9.46435 6.46224ZM13.3113 8.93822C13.3113 8.76759 13.4698 8.62626 13.6307 8.62626C13.8036 8.62626 13.9449 8.76759 13.9449 8.93822C13.9449 9.11115 13.8036 9.25017 13.6307 9.25017C13.4698 9.25017 13.3113 9.11115 13.3113 8.93822Z"
                     fill="currentColor" fill-opacity="0.85" />
       </g>
</svg>