<?xml version="1.0" encoding="UTF-8"?>
<!--Generator: Apple Native CoreSVG 326-->
<!DOCTYPE svg PUBLIC "-//W3C//DTD SVG 1.1//EN" "http://www.w3.org/Graphics/SVG/1.1/DTD/svg11.dtd">
<svg version="1.1" xmlns="http://www.w3.org/2000/svg" xmlns:xlink="http://www.w3.org/1999/xlink"
       viewBox="0 0 21.365 21.006">
       <g>
              <rect height="21.006" opacity="0" width="21.365" x="0" y="0" />
              <path d="M21.0037 10.5079C21.0037 16.3043 16.302 21.006 10.4981 21.006C4.70394 21.006 0 16.3043 0 10.5079C0 4.7137 4.70394 0.00976562 10.4981 0.00976562C16.302 0.00976562 21.0037 4.7137 21.0037 10.5079ZM5.83578 6.762C5.70707 8.98826 7.39852 10.9622 9.60537 11.2276C8.96939 12.556 7.98349 13.576 6.92759 14.4338C6.70474 14.5878 6.79087 14.8795 6.91322 15.053C7.49915 15.9715 9.36317 16.6257 10.4846 16.2408C10.8005 16.1207 10.8493 15.9565 10.8493 15.7267L10.8493 14.2248C12.0529 14.1266 13.8495 13.2368 13.646 10.7492L13.6196 10.5078C14.1057 10.3785 14.5096 10.1475 14.7727 9.85048L16.0413 10.0481C16.4307 10.1119 16.6116 9.5392 16.2101 9.37779L15.1225 8.90783C15.0473 8.18572 14.2516 7.47798 13.2928 7.47798C12.6402 7.47798 12.1581 7.82845 11.7727 8.66326C10.441 7.34994 8.44169 6.25024 6.4498 6.09169C5.91906 6.06755 5.84555 6.48626 5.83578 6.762ZM14.1247 8.85439C14.1247 9.03709 13.9661 9.19103 13.7857 9.19103C13.6151 9.19103 13.4491 9.03709 13.4491 8.85439C13.4491 8.674 13.6151 8.51775 13.7857 8.51775C13.9661 8.51775 14.1247 8.674 14.1247 8.85439ZM9.56728 5.08559C9.4581 5.46657 9.38283 5.83493 9.35353 6.20845C10.1848 6.60314 10.9506 7.09033 11.6216 7.64127C11.9559 7.2299 12.3385 6.9817 12.7975 6.87712C12.215 5.91591 11.479 5.17075 10.5931 4.64965C10.1526 4.39751 9.68732 4.57098 9.56728 5.08559Z"
                     fill="currentColor" fill-opacity="0.85" />
       </g>
</svg>