<?xml version="1.0" encoding="UTF-8"?>
<!--Generator: Apple Native CoreSVG 326-->
<!DOCTYPE svg PUBLIC "-//W3C//DTD SVG 1.1//EN" "http://www.w3.org/Graphics/SVG/1.1/DTD/svg11.dtd">
<svg version="1.1" xmlns="http://www.w3.org/2000/svg" xmlns:xlink="http://www.w3.org/1999/xlink"
       viewBox="0 0 26.955 25.8232">
       <g>
              <rect height="25.8232" opacity="0" width="26.955" x="0" y="0" />
              <path d="M13.3017 5.1423C14.3503 5.1423 15.1555 4.22403 15.1555 3.07545C15.1555 2.01924 14.8097 1.28585 14.244 0.641984C13.73-0.00230491 12.9296-0.0120705 12.3985 0.568469C11.8626 1.2244 11.4479 1.95264 11.4479 3.07545C11.4479 4.22403 12.2703 5.1423 13.3017 5.1423ZM12.2526 10.1814L14.3364 10.1814L14.3364 3.11257L12.2526 3.11257ZM5.72357 15.5089L8.47463 15.5089L8.47463 12.6383C8.47463 11.7777 8.81315 11.4587 9.63467 11.4587L16.9739 11.4587C17.7879 11.4587 18.1288 11.7777 18.1288 12.6383L18.1288 15.5089L20.8724 15.5089L20.8724 12.5229C20.8724 10.0148 19.548 8.7002 17.0032 8.7002L9.59276 8.7002C7.0577 8.7002 5.72357 10.0073 5.72357 12.5229ZM1.99807 24.9531L4.75659 24.9531L4.75659 18.1542C4.75659 17.2936 5.09511 16.9723 5.90918 16.9723L20.6844 16.9723C21.4985 16.9723 21.837 17.2936 21.837 18.1542L21.837 24.9531L24.5956 24.9531L24.5956 18.0364C24.5956 15.5284 23.2712 14.2138 20.7287 14.2138L5.87472 14.2138C3.3322 14.2138 1.99807 15.5209 1.99807 18.0364ZM13.3292 20.3644C14.2982 20.3644 15.069 21.6372 16.7508 21.6372C18.3613 21.6372 19.0661 20.3644 19.9564 20.3644C20.8467 20.3644 21.5687 21.6372 23.351 21.6372L23.6967 21.6372L23.6967 19.6288L23.351 19.6288C22.3337 19.6288 21.5279 18.356 19.9564 18.356C18.3677 18.356 17.7778 19.6288 16.7508 19.6288C15.4636 19.6288 14.9524 18.356 13.3292 18.356C11.7112 18.356 11.1874 19.6288 9.90022 19.6288C8.8732 19.6288 8.29824 18.356 6.70207 18.356C5.12083 18.356 4.31732 19.6288 3.30006 19.6288L2.8808 19.6288L2.8808 21.6372L3.30006 21.6372C5.09723 21.6372 5.8043 20.3644 6.70207 20.3644C7.59008 20.3644 8.29715 21.6372 9.90022 21.6372C11.582 21.6372 12.3505 20.3644 13.3292 20.3644ZM1.37811 25.8232L25.2155 25.8232C25.9809 25.8232 26.5936 25.2007 26.5936 24.4428C26.5936 23.6773 25.9809 23.0647 25.2155 23.0647L1.37811 23.0647C0.612687 23.0647 0 23.6773 0 24.4428C0 25.2007 0.612687 25.8232 1.37811 25.8232Z"
                     fill="currentColor" fill-opacity="0.85" />
       </g>
</svg>