<?xml version="1.0" encoding="UTF-8"?>
<!--Generator: Apple Native CoreSVG 326-->
<!DOCTYPE svg PUBLIC "-//W3C//DTD SVG 1.1//EN" "http://www.w3.org/Graphics/SVG/1.1/DTD/svg11.dtd">
<svg version="1.1" xmlns="http://www.w3.org/2000/svg" xmlns:xlink="http://www.w3.org/1999/xlink"
       viewBox="0 0 21.365 21.006">
       <g>
              <rect height="21.006" opacity="0" width="21.365" x="0" y="0" />
              <path d="M21.0037 10.4981C21.0037 16.2923 16.302 20.9962 10.4981 20.9962C4.70394 20.9962 0 16.2923 0 10.4981C0 4.70163 4.70394 0 10.4981 0C16.302 0 21.0037 4.70163 21.0037 10.4981ZM10.6732 5.06733L10.6732 6.07659L9.67143 6.07659L9.67143 5.06733C9.67143 4.91217 9.54963 4.78291 9.39162 4.78291C9.23131 4.78291 9.10205 4.91217 9.10205 5.06733L9.10205 6.07659L8.31643 6.07659C7.58371 6.07659 7.17883 6.52853 7.17883 7.25149L7.17883 13.6994C7.17883 14.4321 7.58371 14.8818 8.31643 14.8818L9.10205 14.8818L9.10205 15.8756C9.10205 16.0261 9.23131 16.1554 9.39162 16.1554C9.54963 16.1554 9.67143 16.0261 9.67143 15.8756L9.67143 14.8818L10.6732 14.8818L10.6732 15.8756C10.6732 16.0261 10.7899 16.1554 10.9456 16.1554C11.1059 16.1554 11.2374 16.0261 11.2374 15.8756L11.2374 14.8795C13.103 14.8444 14.3902 13.9517 14.3902 12.3416C14.3902 11.1525 13.443 10.3029 12.2355 10.231L12.2355 10.1799C13.2517 10.0535 13.9857 9.23197 13.9857 8.2687C13.9857 6.77073 12.7107 6.12092 11.2374 6.0835L11.2374 5.06733C11.2374 4.91217 11.1059 4.78291 10.9456 4.78291C10.7899 4.78291 10.6732 4.91217 10.6732 5.06733ZM12.1818 12.1637C12.1818 13.0004 11.595 13.3336 10.7359 13.3336L9.36251 13.3336L9.36251 11.0087L10.7105 11.0087C11.549 11.0087 12.1818 11.3275 12.1818 12.1637ZM11.8445 8.62408C11.8445 9.37233 11.2324 9.67628 10.4893 9.67628L9.36251 9.67628L9.36251 7.61501L10.6009 7.61501C11.3514 7.61501 11.8445 7.95341 11.8445 8.62408Z"
                     fill="currentColor" fill-opacity="0.85" />
       </g>
</svg>