<?xml version="1.0" encoding="UTF-8"?>
<!--Generator: Apple Native CoreSVG 326-->
<!DOCTYPE svg PUBLIC "-//W3C//DTD SVG 1.1//EN" "http://www.w3.org/Graphics/SVG/1.1/DTD/svg11.dtd">
<svg version="1.1" xmlns="http://www.w3.org/2000/svg" xmlns:xlink="http://www.w3.org/1999/xlink"
       viewBox="0 0 19.3993 19.0529">
       <g>
              <rect height="19.0529" opacity="0" width="19.3993" x="0" y="0" />
              <path d="M3.64834 19.0379L15.3896 19.0379C17.7164 19.0379 19.0379 17.7262 19.0379 15.4011L19.0379 3.63912C19.0379 1.32151 17.7164 0 15.3896 0L3.64834 0C1.32382 0 0 1.32151 0 3.63912L0 15.4011C0 17.7262 1.32382 19.0379 3.64834 19.0379ZM4.05583 16.0183C3.37024 16.0183 3.01964 15.7096 3.01964 14.9775L3.01964 4.07021C3.01964 3.33809 3.37024 3.0271 4.05583 3.0271L14.9821 3.0271C15.6654 3.0271 16.0183 3.33809 16.0183 4.07021L16.0183 14.9775C16.0183 15.7096 15.6654 16.0183 14.9821 16.0183Z"
                     fill="currentColor" fill-opacity="0.85" />
              <path d="M7.4926 13.6267L10.2824 13.6267C11.9219 13.6267 13.184 12.7961 13.184 11.2542C13.184 10.1341 12.2936 9.33382 11.1625 9.26424L11.1625 9.22057C12.112 9.09416 12.7967 8.33178 12.7967 7.42764C12.7967 5.991 11.5595 5.37103 10.1808 5.37103L7.4926 5.37103C6.81155 5.37103 6.43652 5.79084 6.43652 6.46442L6.43652 12.5334C6.43652 13.2093 6.81155 13.6267 7.4926 13.6267ZM8.46923 8.74909L8.46923 6.80555L9.63643 6.80555C10.3426 6.80555 10.8088 7.12442 10.8088 7.75834C10.8088 8.46983 10.2409 8.74909 9.52713 8.74909ZM8.46923 12.1899L8.46923 9.99994L9.73857 9.99994C10.523 9.99994 11.1191 10.2941 11.1191 11.0763C11.1191 11.8762 10.5765 12.1899 9.76162 12.1899ZM8.23115 6.28809L8.76608 6.28809L8.76608 4.42838C8.76608 4.28299 8.64428 4.16119 8.5035 4.16119C8.35295 4.16119 8.23115 4.28299 8.23115 4.42838ZM9.69381 6.28809L10.2287 6.28809L10.2287 4.42838C10.2287 4.28299 10.1092 4.16119 9.96385 4.16119C9.81561 4.16119 9.69381 4.28299 9.69381 4.42838ZM8.23115 12.6925L8.23115 14.5614C8.23115 14.7022 8.35295 14.824 8.5035 14.824C8.64428 14.824 8.76608 14.7022 8.76608 14.5614L8.76608 12.6925ZM9.69381 12.6925L9.69381 14.5614C9.69381 14.7022 9.81561 14.824 9.96385 14.824C10.1092 14.824 10.2287 14.7022 10.2287 14.5614L10.2287 12.6925Z"
                     fill="currentColor" fill-opacity="0.85" />
       </g>
</svg>