<?xml version="1.0" encoding="UTF-8"?>
<!--Generator: Apple Native CoreSVG 326-->
<!DOCTYPE svg PUBLIC "-//W3C//DTD SVG 1.1//EN" "http://www.w3.org/Graphics/SVG/1.1/DTD/svg11.dtd">
<svg version="1.1" xmlns="http://www.w3.org/2000/svg" xmlns:xlink="http://www.w3.org/1999/xlink"
       viewBox="0 0 25.2371 20.7338">
       <g>
              <rect height="20.7338" opacity="0" width="25.2371" x="0" y="0" />
              <path d="M24.8758 12.3846C24.8758 5.93383 19.9627 0.631336 13.6785 0.00415235C13.2541-0.040066 12.9302 0.274072 12.9302 0.698483L12.9302 4.13058C12.9302 4.48379 13.1829 4.74109 13.5286 4.79046C17.2465 5.32405 20.1044 8.51741 20.1044 12.3846C20.1044 14.1648 19.4989 15.8157 18.4419 17.1359C18.2306 17.4138 18.2329 17.7555 18.4764 18.0012L20.9223 20.4523C21.2117 20.7567 21.6557 20.7417 21.9256 20.4328C23.7735 18.2551 24.8758 15.452 24.8758 12.3846Z"
                     fill="currentColor" fill-opacity="0.85" />
              <path d="M0 12.3846C0 15.4543 1.1023 18.2574 2.94273 20.4276C3.21265 20.7366 3.65429 20.7417 3.9535 20.4448L6.39194 17.9938C6.63541 17.748 6.63772 17.4063 6.42639 17.1284C5.38201 15.8157 4.77139 14.1648 4.77139 12.3846C4.77139 8.51741 7.63678 5.32405 11.3472 4.79046C11.7004 4.74109 11.9456 4.48379 11.9456 4.13058L11.9456 0.698483C11.9456 0.274072 11.6217-0.040066 11.1973 0.00415235C4.92054 0.631336 0 5.93383 0 12.3846Z"
                     fill="currentColor" fill-opacity="0.85" />
              <path d="M10.4032 16.4302L13.1929 16.4302C14.8348 16.4302 16.0945 15.5996 16.0945 14.06C16.0945 12.9375 15.1968 12.1396 14.0731 12.0677L14.0731 12.0338C15.0226 11.9074 15.7073 11.1376 15.7073 10.2311C15.7073 8.79449 14.4701 8.17683 13.0913 8.17683L10.4032 8.17683C9.72214 8.17683 9.3471 8.59433 9.3471 9.27022L9.3471 15.3369C9.3471 16.0127 9.72214 16.4302 10.4032 16.4302ZM11.3798 11.5549L11.3798 9.6165L12.547 9.6165C13.2532 9.6165 13.7217 9.93768 13.7217 10.5618C13.7217 11.2733 13.1515 11.5549 12.4377 11.5549ZM11.3798 14.9957L11.3798 12.8034L12.6492 12.8034C13.4336 12.8034 14.0297 13.0999 14.0297 13.8798C14.0297 14.6797 13.4871 14.9957 12.6722 14.9957ZM11.1417 9.09389L11.679 9.09389L11.679 7.23187C11.679 7.08878 11.5572 6.96698 11.4141 6.96698C11.2635 6.96698 11.1417 7.08878 11.1417 7.23187ZM12.6044 9.09389L13.1416 9.09389L13.1416 7.23187C13.1416 7.08878 13.0198 6.96698 12.8767 6.96698C12.7262 6.96698 12.6044 7.08878 12.6044 7.23187ZM11.1417 15.496L11.1417 17.3649C11.1417 17.5057 11.2635 17.6275 11.4141 17.6275C11.5572 17.6275 11.679 17.5057 11.679 17.3649L11.679 15.496ZM12.6044 15.496L12.6044 17.3649C12.6044 17.5057 12.7262 17.6275 12.8767 17.6275C13.0198 17.6275 13.1416 17.5057 13.1416 17.3649L13.1416 15.496Z"
                     fill="currentColor" fill-opacity="0.85" />
       </g>
</svg>