<?xml version="1.0" encoding="UTF-8"?>
<!--Generator: Apple Native CoreSVG 326-->
<!DOCTYPE svg PUBLIC "-//W3C//DTD SVG 1.1//EN" "http://www.w3.org/Graphics/SVG/1.1/DTD/svg11.dtd">
<svg version="1.1" xmlns="http://www.w3.org/2000/svg" xmlns:xlink="http://www.w3.org/1999/xlink"
       viewBox="0 0 22.6834 21.5581">
       <g>
              <rect height="21.5581" opacity="0" width="22.6834" x="0" y="0" />
              <path d="M3.7036 5.31517L3.7036 6.84734C3.7036 7.5037 4.14578 7.94128 4.81191 7.94128L20.1186 7.94128C20.7819 7.94128 21.2246 7.49394 21.2246 6.83012L21.2246 5.31287C21.2246 4.65651 20.7796 4.22409 20.1186 4.22409L4.81191 4.22409C4.14348 4.22409 3.7036 4.66627 3.7036 5.31517ZM3.7036 9.85103L3.7036 11.3729C3.7036 12.0269 4.14348 12.472 4.81191 12.472L20.121 12.472C20.7796 12.472 21.2246 12.0172 21.2246 11.3654L21.2246 9.83381C21.2246 9.17975 20.7871 8.74964 20.1284 8.74964L4.81421 8.74964C4.14578 8.74964 3.7036 9.18721 3.7036 9.85103ZM3.7036 14.3743L3.7036 15.8938C3.7036 16.5577 4.14348 16.9975 4.81191 16.9975L20.1261 16.9975C20.7894 16.9975 21.2246 16.5427 21.2246 15.8864L21.2246 14.3645C21.2246 13.7128 20.7819 13.2752 20.1186 13.2752L4.81191 13.2752C4.14578 13.2752 3.7036 13.7202 3.7036 14.3743ZM3.71106 18.8975L3.71106 20.4245C3.71106 21.0809 4.14117 21.5185 4.80214 21.5185L20.1163 21.5185C20.7773 21.5185 21.2246 21.0734 21.2246 20.4096L21.2246 18.8901C21.2246 18.2314 20.7796 17.8036 20.1186 17.8036L4.81191 17.8036C4.14117 17.8036 3.71106 18.2412 3.71106 18.8975Z"
                     fill="currentColor" fill-opacity="0.85" />
              <path d="M0 1.5474C0 2.37996 0.682139 3.0621 1.5147 3.0621L20.8218 3.0621C21.6543 3.0621 22.329 2.37996 22.329 1.5474C22.329 0.714833 21.6543 0.0424594 20.8218 0.0424594L1.5147 0.0424594C0.682139 0.0424594 0 0.714833 0 1.5474ZM1.5147 5.84998C1.98794 5.84998 2.37275 5.44279 2.37275 4.98448C2.37275 4.50147 1.9954 4.12644 1.5147 4.12644C1.02424 4.12644 0.646898 4.50147 0.646898 4.98448C0.646898 5.44279 1.0317 5.84998 1.5147 5.84998ZM1.5147 8.10068C1.98794 8.10068 2.37275 7.70611 2.37275 7.24034C2.37275 6.75964 1.9954 6.36737 1.5147 6.36737C1.02424 6.36737 0.646898 6.75964 0.646898 7.24034C0.646898 7.70611 1.0317 8.10068 1.5147 8.10068ZM1.5147 10.3267C1.98794 10.3267 2.37275 9.93444 2.37275 9.46866C2.37275 8.98565 1.9954 8.61062 1.5147 8.61062C1.02424 8.61062 0.646898 8.98565 0.646898 9.46866C0.646898 9.93444 1.0317 10.3267 1.5147 10.3267ZM1.5147 12.5699C1.98794 12.5699 2.37275 12.1679 2.37275 11.7096C2.37275 11.2364 1.9954 10.8441 1.5147 10.8441C1.02424 10.8441 0.646898 11.2364 0.646898 11.7096C0.646898 12.1679 1.0317 12.5699 1.5147 12.5699ZM1.5147 14.8034C1.98794 14.8034 2.37275 14.4186 2.37275 13.9454C2.37275 13.4698 1.9954 13.0873 1.5147 13.0873C1.02424 13.0873 0.646898 13.4698 0.646898 13.9454C0.646898 14.4186 1.0317 14.8034 1.5147 14.8034ZM1.5147 17.0467C1.98794 17.0467 2.37275 16.6521 2.37275 16.1789C2.37275 15.6982 1.9954 15.3283 1.5147 15.3283C1.02424 15.3283 0.646898 15.6982 0.646898 16.1789C0.646898 16.6521 1.0317 17.0467 1.5147 17.0467ZM1.5147 21.5581C2.054 21.5581 2.48247 21.1244 2.48247 20.5828L2.48247 18.5318C2.48247 17.9977 2.0563 17.5566 1.5147 17.5566C0.965646 17.5566 0.537171 17.9977 0.537171 18.5318L0.537171 20.5828C0.537171 21.1244 0.965646 21.5581 1.5147 21.5581Z"
                     fill="currentColor" fill-opacity="0.85" />
       </g>
</svg>