<?xml version="1.0" encoding="UTF-8"?>
<!--Generator: Apple Native CoreSVG 326-->
<!DOCTYPE svg PUBLIC "-//W3C//DTD SVG 1.1//EN" "http://www.w3.org/Graphics/SVG/1.1/DTD/svg11.dtd">
<svg version="1.1" xmlns="http://www.w3.org/2000/svg" xmlns:xlink="http://www.w3.org/1999/xlink"
       viewBox="0 0 13.0768 14.6564">
       <g>
              <rect height="14.6564" opacity="0" width="13.0768" x="0" y="0" />
              <path d="M2.05327 14.6564L7.46197 14.6564C10.6592 14.6564 12.7155 12.9722 12.7155 10.4183C12.7155 8.46928 11.0998 6.98788 9.04279 6.91776L9.04279 6.83964C10.7758 6.61503 12.036 5.3421 12.036 3.67746C12.036 1.39527 10.2467 0.0126165 7.25064 0.0126165L2.05327 0.0126165C0.799447 0.0126165 0 0.747222 0 2.03034L0 12.641C0 13.9292 0.799447 14.6564 2.05327 14.6564ZM4.48352 11.8857L4.48352 8.31467L5.83796 8.31467C7.30821 8.31467 8.16079 8.94889 8.16079 10.0646C8.16079 11.2469 7.50394 11.8857 6.01077 11.8857ZM4.48352 5.94023L4.48352 2.79995L5.72945 2.79995C6.9325 2.79995 7.66098 3.38018 7.66098 4.35741C7.66098 5.33355 6.88191 5.94023 5.59722 5.94023Z"
                     fill="currentColor" fill-opacity="0.85" />
       </g>
</svg>