<?xml version="1.0" encoding="UTF-8"?>
<!--Generator: Apple Native CoreSVG 326-->
<!DOCTYPE svg PUBLIC "-//W3C//DTD SVG 1.1//EN" "http://www.w3.org/Graphics/SVG/1.1/DTD/svg11.dtd">
<svg version="1.1" xmlns="http://www.w3.org/2000/svg" xmlns:xlink="http://www.w3.org/1999/xlink"
       viewBox="0 0 19.3993 19.0529">
       <g>
              <rect height="19.0529" opacity="0" width="19.3993" x="0" y="0" />
              <path d="M19.0379 3.63912L19.0379 15.4011C19.0379 17.7262 17.7164 19.0379 15.3896 19.0379L3.64834 19.0379C1.32382 19.0379 0 17.7262 0 15.4011L0 3.63912C0 1.32151 1.32382 0 3.64834 0L15.3896 0C17.7164 0 19.0379 1.32151 19.0379 3.63912ZM10.7882 3.25626L5.47955 9.6653C5.35721 9.80718 5.29115 9.9835 5.29115 10.1552C5.29115 10.4837 5.56338 10.7439 5.89935 10.7439L8.98159 10.7439L7.34193 15.0098C7.03811 15.811 7.91052 16.2894 8.4722 15.6352L13.7757 9.22615C13.8958 9.08658 13.9618 8.91025 13.9618 8.746C13.9618 8.41002 13.6919 8.15733 13.3536 8.15733L10.2737 8.15733L11.9185 3.88399C12.2172 3.08279 11.3424 2.61185 10.7882 3.25626Z"
                     fill="currentColor" fill-opacity="0.85" />
       </g>
</svg>