<?xml version="1.0" encoding="UTF-8"?>
<!--Generator: Apple Native CoreSVG 326-->
<!DOCTYPE svg PUBLIC "-//W3C//DTD SVG 1.1//EN" "http://www.w3.org/Graphics/SVG/1.1/DTD/svg11.dtd">
<svg version="1.1" xmlns="http://www.w3.org/2000/svg" xmlns:xlink="http://www.w3.org/1999/xlink"
       viewBox="0 0 21.365 21.006">
       <g>
              <rect height="21.006" opacity="0" width="21.365" x="0" y="0" />
              <path d="M10.4981 20.9962C16.302 20.9962 21.0037 16.2946 21.0037 10.4981C21.0037 4.70163 16.302 0 10.4981 0C4.70163 0 0 4.70163 0 10.4981C0 16.2946 4.70163 20.9962 10.4981 20.9962ZM10.4981 17.9484C6.37829 17.9484 3.04785 14.6179 3.04785 10.4981C3.04785 6.37829 6.37829 3.04785 10.4981 3.04785C14.6179 3.04785 17.9558 6.37829 17.9558 10.4981C17.9558 14.6179 14.6179 17.9484 10.4981 17.9484Z"
                     fill="currentColor" fill-opacity="0.85" />
              <path d="M5.62919 13.447C5.62919 13.7515 5.87794 13.998 6.18243 13.998L6.67478 13.998C6.98443 13.998 7.21825 13.7515 7.21825 13.447L7.21825 12.7249C8.0749 12.7835 9.40315 12.8323 10.4981 12.8323C11.6005 12.8323 12.919 12.791 13.7906 12.7249L13.7906 13.447C13.7906 13.7515 14.0244 13.998 14.3364 13.998L14.8212 13.998C15.1309 13.998 15.3647 13.7515 15.3647 13.447L15.3647 11.0112C15.3647 10.2667 15.2831 9.83702 14.8855 9.36475L14.5121 8.92123C14.3662 8.22775 14.1105 7.51013 13.979 7.22286C13.7423 6.72251 13.2885 6.41462 12.7054 6.34165C12.3803 6.29513 11.6005 6.26814 10.4981 6.26814C9.4083 6.26814 8.63087 6.29513 8.30345 6.34165C7.72267 6.41232 7.26138 6.72251 7.03216 7.22286C6.89829 7.51013 6.64263 8.22775 6.499 8.92123L6.11583 9.36475C5.7206 9.83702 5.62919 10.2667 5.62919 11.0112ZM8.93901 9.88057C8.93901 9.80705 8.97346 9.741 9.02229 9.68987L10.8136 7.53822C11.029 7.27915 11.3742 7.45779 11.2518 7.78575L10.7583 9.08088L11.8298 9.08088C11.9619 9.08088 12.0721 9.18369 12.0721 9.3158C12.0721 9.37955 12.0405 9.44791 11.9963 9.51166L10.2096 11.6484C9.98678 11.9075 9.62951 11.7265 9.75932 11.3985L10.2529 10.1011L9.18885 10.1011C9.04928 10.1011 8.93901 10.0081 8.93901 9.88057Z"
                     fill="currentColor" fill-opacity="0.85" />
       </g>
</svg>