<?xml version="1.0" encoding="UTF-8"?>
<!--Generator: Apple Native CoreSVG 326-->
<!DOCTYPE svg PUBLIC "-//W3C//DTD SVG 1.1//EN" "http://www.w3.org/Graphics/SVG/1.1/DTD/svg11.dtd">
<svg version="1.1" xmlns="http://www.w3.org/2000/svg" xmlns:xlink="http://www.w3.org/1999/xlink"
       viewBox="0 0 21.365 21.006">
       <g>
              <rect height="21.006" opacity="0" width="21.365" x="0" y="0" />
              <path d="M10.4981 20.9962C16.302 20.9962 21.0037 16.2946 21.0037 10.4981C21.0037 4.70163 16.302 0 10.4981 0C4.70163 0 0 4.70163 0 10.4981C0 16.2946 4.70163 20.9962 10.4981 20.9962ZM10.4981 17.9484C6.37829 17.9484 3.04785 14.6179 3.04785 10.4981C3.04785 6.37829 6.37829 3.04785 10.4981 3.04785C14.6179 3.04785 17.9558 6.37829 17.9558 10.4981C17.9558 14.6179 14.6179 17.9484 10.4981 17.9484Z"
                     fill="currentColor" fill-opacity="0.85" />
              <path d="M6.44228 11.0899C6.44228 11.4012 6.69728 11.6366 7.01833 11.6366L9.90362 11.6366L8.36732 15.6516C8.08818 16.4034 8.90146 16.8496 9.41607 16.2374L14.4021 10.2199C14.5244 10.0878 14.583 9.92127 14.583 9.76447C14.583 9.45319 14.328 9.21026 14.0069 9.21026L11.1217 9.21026L12.6579 5.19532C12.9371 4.45094 12.1238 4.0047 11.6092 4.60719L6.62322 10.6321C6.50088 10.7665 6.44228 10.9256 6.44228 11.0899Z"
                     fill="currentColor" fill-opacity="0.85" />
       </g>
</svg>