<?xml version="1.0" encoding="UTF-8"?>
<!--Generator: Apple Native CoreSVG 326-->
<!DOCTYPE svg PUBLIC "-//W3C//DTD SVG 1.1//EN" "http://www.w3.org/Graphics/SVG/1.1/DTD/svg11.dtd">
<svg version="1.1" xmlns="http://www.w3.org/2000/svg" xmlns:xlink="http://www.w3.org/1999/xlink"
       viewBox="0 0 28.133 13.8152">
       <g>
              <rect height="13.8152" opacity="0" width="28.133" x="0" y="0" />
              <path d="M0.52584 10.369C-0.849537 12.0603 0.692523 14.0119 2.62472 12.9915L9.55559 9.29172L16.7678 13.3684C17.3076 13.6756 17.8112 13.8152 18.2902 13.8152C19.0453 13.8152 19.739 13.4385 20.3459 12.7017L27.2574 4.18673C28.5907 2.55132 27.1189 0.524856 25.1539 1.56195L18.2156 5.26118L11.0085 1.19941C10.471 0.895041 9.97023 0.745159 9.48614 0.745159C8.72872 0.745159 8.03967 1.12929 7.43268 1.86608ZM3.71253 10.0106C3.61026 10.0841 3.50691 9.96403 3.59995 9.86868L9.46078 3.57216C9.57512 3.43368 9.68715 3.41415 9.82793 3.49688L18.0505 8.11493C18.3562 8.28501 18.4608 8.24134 18.7159 8.07357L24.073 4.55036C24.1684 4.47684 24.2809 4.59688 24.1879 4.69223L18.3201 11.0927C18.2058 11.2214 18.0915 11.2507 17.953 11.1679L9.72809 6.63941C9.41493 6.46933 9.31782 6.51816 9.0627 6.67847Z"
                     fill="currentColor" fill-opacity="0.85" />
       </g>
</svg>