<?xml version="1.0" encoding="UTF-8"?>
<!--Generator: Apple Native CoreSVG 326-->
<!DOCTYPE svg PUBLIC "-//W3C//DTD SVG 1.1//EN" "http://www.w3.org/Graphics/SVG/1.1/DTD/svg11.dtd">
<svg version="1.1" xmlns="http://www.w3.org/2000/svg" xmlns:xlink="http://www.w3.org/1999/xlink"
       viewBox="0 0 19.3993 19.0529">
       <g>
              <rect height="19.0529" opacity="0" width="19.3993" x="0" y="0" />
              <path d="M3.64834 19.0379L15.3896 19.0379C17.7164 19.0379 19.0379 17.7262 19.0379 15.4011L19.0379 3.63912C19.0379 1.32151 17.7164 0 15.3896 0L3.64834 0C1.32382 0 0 1.32151 0 3.63912L0 15.4011C0 17.7262 1.32382 19.0379 3.64834 19.0379ZM4.05583 16.0183C3.37024 16.0183 3.01964 15.7096 3.01964 14.9775L3.01964 4.07021C3.01964 3.33809 3.37024 3.0271 4.05583 3.0271L14.9821 3.0271C15.6654 3.0271 16.0183 3.33809 16.0183 4.07021L16.0183 14.9775C16.0183 15.7096 15.6654 16.0183 14.9821 16.0183Z"
                     fill="currentColor" fill-opacity="0.85" />
              <path d="M5.73145 10.076C5.73145 10.3649 5.96637 10.5855 6.26274 10.5855L8.97643 10.5855L7.52966 14.3542C7.26544 15.0538 8.0265 15.4702 8.51126 14.9027L13.1787 9.2583C13.2839 9.13365 13.3425 8.98201 13.3425 8.83268C13.3425 8.54377 13.1098 8.32323 12.8112 8.32323L10.0998 8.32323L11.5442 4.55449C11.8033 3.85488 11.0474 3.43847 10.5626 4.00367L5.89747 9.64807C5.78259 9.77503 5.73145 9.92667 5.73145 10.076Z"
                     fill="currentColor" fill-opacity="0.85" />
       </g>
</svg>