<?xml version="1.0" encoding="UTF-8"?>
<!--Generator: Apple Native CoreSVG 326-->
<!DOCTYPE svg PUBLIC "-//W3C//DTD SVG 1.1//EN" "http://www.w3.org/Graphics/SVG/1.1/DTD/svg11.dtd">
<svg version="1.1" xmlns="http://www.w3.org/2000/svg" xmlns:xlink="http://www.w3.org/1999/xlink"
       viewBox="0 0 21.365 21.006">
       <g>
              <rect height="21.006" opacity="0" width="21.365" x="0" y="0" />
              <path d="M21.0037 10.5079C21.0037 16.3043 16.302 21.006 10.4981 21.006C4.70394 21.006 0 16.3043 0 10.5079C0 4.7137 4.70394 0.00976562 10.4981 0.00976562C16.302 0.00976562 21.0037 4.7137 21.0037 10.5079ZM8.15818 6.09763C7.54295 6.18322 7.04951 6.5181 6.80306 7.04545C6.65197 7.34994 6.3963 8.10947 6.23544 8.85463L5.82759 9.32745C5.41283 9.82956 5.3065 10.2862 5.3065 11.0749L5.3065 13.6761C5.3065 14.0053 5.57247 14.2564 5.89419 14.2564L6.42099 14.2564C6.75533 14.2564 6.99892 14.0053 6.99892 13.6761L6.99892 12.9046C7.92217 12.973 9.32678 13.0195 10.4981 13.0195C11.6769 13.0195 13.0792 12.9805 14.0099 12.9046L14.0099 13.6761C14.0099 14.0053 14.2535 14.2564 14.5901 14.2564L15.102 14.2564C15.4364 14.2564 15.6874 14.0053 15.6874 13.6761L15.6874 11.0749C15.6874 10.2862 15.5983 9.82956 15.1812 9.32745L14.7757 8.85463C14.6125 8.10947 14.3494 7.34994 14.2058 7.04545C13.9467 6.5181 13.4682 6.18552 12.8507 6.09763C12.5008 6.05111 11.6769 6.03158 10.4981 6.03158C9.33194 6.03158 8.51775 6.05111 8.15818 6.09763ZM11.3035 7.65025L10.7755 9.02635L11.9159 9.02405C12.0555 9.02405 12.1732 9.13432 12.1732 9.27389C12.1732 9.33994 12.1416 9.42322 12.0974 9.48182L10.1924 11.7564C9.95233 12.0378 9.57037 11.8419 9.70994 11.4944L10.2282 10.1132L9.10272 10.1132C8.95569 10.1132 8.83795 10.0104 8.83795 9.87311C8.83795 9.79959 8.87241 9.71862 8.92869 9.66748L10.8383 7.38548C11.0634 7.1115 11.4333 7.30275 11.3035 7.65025Z"
                     fill="currentColor" fill-opacity="0.85" />
       </g>
</svg>