<?xml version="1.0" encoding="UTF-8"?>
<!--Generator: Apple Native CoreSVG 326-->
<!DOCTYPE svg PUBLIC "-//W3C//DTD SVG 1.1//EN" "http://www.w3.org/Graphics/SVG/1.1/DTD/svg11.dtd">
<svg version="1.1" xmlns="http://www.w3.org/2000/svg" xmlns:xlink="http://www.w3.org/1999/xlink"
       viewBox="0 0 17.3824 20.239">
       <g>
              <rect height="20.239" opacity="0" width="17.3824" x="0" y="0" />
              <path d="M10.1492 0.536442C10.9165 0.770392 14.3151 1.88216 15.1593 2.23154C16.5615 2.827 17.0211 3.51484 17.0211 5.07279L17.0211 12.0257C17.0211 15.5241 15.0027 17.2254 9.28189 20.0162C9.02283 20.1431 8.73393 20.239 8.51053 20.239C8.2946 20.239 8.00053 20.1455 7.73917 20.0162C2.05636 17.1713 0 15.5241 0 12.0257L0 5.07279C0 3.51484 0.469296 2.81723 1.86924 2.23154C2.71339 1.88446 6.10461 0.765783 6.87415 0.536442C7.38172 0.391171 8.02073 0.287813 8.51053 0.287813C9.00779 0.287813 9.6468 0.388866 10.1492 0.536442ZM9.69514 3.36823L4.38416 9.77727C4.26412 9.91915 4.19807 10.0955 4.19807 10.2649C4.19807 10.5957 4.46799 10.8559 4.80627 10.8559L7.8862 10.8559L6.24885 15.1292C5.94272 15.9229 6.81744 16.4013 7.37911 15.7472L12.6803 9.34558C12.8027 9.20371 12.8762 9.02738 12.8762 8.85797C12.8762 8.51969 12.604 8.267 12.2605 8.267L9.17829 8.267L10.8254 3.99596C11.1292 3.19245 10.2494 2.72152 9.69514 3.36823Z"
                     fill="currentColor" fill-opacity="0.85" />
       </g>
</svg>