<?xml version="1.0" encoding="UTF-8"?>
<!--Generator: Apple Native CoreSVG 326-->
<!DOCTYPE svg PUBLIC "-//W3C//DTD SVG 1.1//EN" "http://www.w3.org/Graphics/SVG/1.1/DTD/svg11.dtd">
<svg version="1.1" xmlns="http://www.w3.org/2000/svg" xmlns:xlink="http://www.w3.org/1999/xlink"
       viewBox="0 0 17.7109 20.6918">
       <g>
              <rect height="20.6918" opacity="0" width="17.7109" x="0" y="0" />
              <path d="M8.67479 20.6918C8.89818 20.6918 9.19685 20.5959 9.45592 20.4666C15.2662 17.5603 17.3496 15.8838 17.3496 12.3268L17.3496 5.22916C17.3496 3.64422 16.8728 2.95638 15.4533 2.34369C14.5845 1.97708 11.1249 0.855553 10.3456 0.611838C9.82829 0.4568 9.17951 0.360903 8.67479 0.360903C8.17007 0.360903 7.52129 0.468871 7.00626 0.611838C6.22695 0.824497 2.76507 1.97939 1.89623 2.34369C0.479062 2.95407 0 3.64422 0 5.22916L0 12.3268C0 15.8838 2.08566 17.558 7.89366 20.4666C8.15503 20.5959 8.45139 20.6918 8.67479 20.6918ZM8.67479 17.723C8.58568 17.723 8.50404 17.6943 8.24838 17.5334C3.9381 14.8513 2.74645 14.3415 2.74645 11.9506L2.74645 5.5692C2.74645 5.18494 2.83489 5.01322 3.12324 4.89834C4.44348 4.36463 7.01099 3.52466 7.77683 3.24462C8.20167 3.11657 8.43307 3.05974 8.67479 3.05974C8.9165 3.05974 9.14044 3.11888 9.57274 3.24462C10.3386 3.52466 12.9015 4.38076 14.2286 4.89834C14.5072 5.01092 14.6031 5.18494 14.6031 5.5692L14.6031 11.9506C14.6031 14.4086 13.2026 15.1325 9.1012 17.5334C8.84784 17.6868 8.76389 17.723 8.67479 17.723Z"
                     fill="currentColor" fill-opacity="0.85" />
              <path d="M4.94802 10.4051C4.94802 10.6917 5.17833 10.91 5.47239 10.91L8.13428 10.91L6.71572 14.6085C6.46127 15.3012 7.20794 15.7078 7.6881 15.1547L12.2784 9.60125C12.3835 9.47429 12.4421 9.32496 12.4421 9.17793C12.4421 8.89879 12.2095 8.68055 11.9155 8.68055L9.25587 8.68055L10.6647 4.97228C10.9289 4.28705 10.1822 3.87526 9.70206 4.43584L5.11173 9.9818C5.00431 10.1065 4.94802 10.2581 4.94802 10.4051Z"
                     fill="currentColor" fill-opacity="0.85" />
       </g>
</svg>