<?xml version="1.0" encoding="UTF-8"?>
<!--Generator: Apple Native CoreSVG 326-->
<!DOCTYPE svg PUBLIC "-//W3C//DTD SVG 1.1//EN" "http://www.w3.org/Graphics/SVG/1.1/DTD/svg11.dtd">
<svg version="1.1" xmlns="http://www.w3.org/2000/svg" xmlns:xlink="http://www.w3.org/1999/xlink"
       viewBox="0 0 18.1748 21.7932">
       <g>
              <rect height="21.7932" opacity="0" width="18.1748" x="0" y="0" />
              <path d="M3.63221 21.7932L16.5174 21.7932C17.2829 21.7932 17.8135 21.2649 17.8135 20.4971C17.8135 19.7674 17.318 19.3975 16.7667 19.0439C15.6706 18.384 15.4763 16.5311 16.7395 15.5118C17.5806 14.8796 17.7836 14.3862 17.7836 13.3648L17.7836 3.66326C17.7836 1.33358 16.4719 0.00746071 14.1445 0.00746071L3.63912 0.00746071C1.31921 0.00746071 0 1.33128 0 3.66326L0 18.1489C0 20.474 1.32151 21.7932 3.63221 21.7932ZM4.39156 19.2063C3.19633 19.2063 2.6093 18.4476 2.6093 17.5348C2.6093 16.641 3.22684 15.8731 4.41977 15.8731L13.3724 15.8731C13.4397 15.8731 13.5121 15.8708 13.5725 15.8662C13.0463 16.9415 13.0498 18.1948 13.5525 19.2063ZM3.73302 14.0232C3.34822 14.0232 3.03462 13.7096 3.03462 13.3225L3.03462 2.74178C3.03462 2.35467 3.34822 2.04338 3.73302 2.04338C4.11036 2.04338 4.42626 2.35467 4.42626 2.74178L4.42626 13.3225C4.42626 13.7096 4.11036 14.0232 3.73302 14.0232Z"
                     fill="currentColor" fill-opacity="0.85" />
       </g>
</svg>