<?xml version="1.0" encoding="UTF-8"?>
<!--Generator: Apple Native CoreSVG 326-->
<!DOCTYPE svg PUBLIC "-//W3C//DTD SVG 1.1//EN" "http://www.w3.org/Graphics/SVG/1.1/DTD/svg11.dtd">
<svg version="1.1" xmlns="http://www.w3.org/2000/svg" xmlns:xlink="http://www.w3.org/1999/xlink"
       viewBox="0 0 19.3993 19.0794">
       <g>
              <rect height="19.0794" opacity="0" width="19.3993" x="0" y="0" />
              <path d="M3.64834 19.0794L15.3896 19.0794C17.7164 19.0794 19.0379 17.7677 19.0379 15.4426L19.0379 3.68061C19.0379 1.363 17.7164 0.0414884 15.3896 0.0414884L3.64834 0.0414884C1.32382 0.0414884 0 1.363 0 3.68061L0 15.4426C0 17.7677 1.32382 19.0794 3.64834 19.0794ZM4.05583 16.0598C3.37024 16.0598 3.01964 15.7511 3.01964 15.019L3.01964 4.11169C3.01964 3.37958 3.37024 3.06859 4.05583 3.06859L14.9821 3.06859C15.6654 3.06859 16.0183 3.37958 16.0183 4.11169L16.0183 15.019C16.0183 15.7511 15.6654 16.0598 14.9821 16.0598Z"
                     fill="currentColor" fill-opacity="0.85" />
              <path d="M7.08087 14.4478C7.37954 14.4478 7.59317 14.3237 7.90064 14.0111L9.49741 12.4138C9.51178 12.392 9.54338 12.392 9.55776 12.4138L11.1568 14.0111C11.4695 14.3237 11.6756 14.4478 11.9668 14.4478C12.463 14.4478 12.7949 14.0941 12.7949 13.5617L12.7949 6.18213C12.7949 5.2274 12.2544 4.67713 11.3048 4.67713L7.74287 4.67713C6.80306 4.67713 6.2551 5.2274 6.2551 6.18213L6.2551 13.5617C6.2551 14.0941 6.59447 14.4478 7.08087 14.4478Z"
                     fill="currentColor" fill-opacity="0.85" />
       </g>
</svg>