<?xml version="1.0" encoding="UTF-8"?>
<!--Generator: Apple Native CoreSVG 326-->
<!DOCTYPE svg PUBLIC "-//W3C//DTD SVG 1.1//EN" "http://www.w3.org/Graphics/SVG/1.1/DTD/svg11.dtd">
<svg version="1.1" xmlns="http://www.w3.org/2000/svg" xmlns:xlink="http://www.w3.org/1999/xlink"
       viewBox="0 0 21.365 21.006">
       <g>
              <rect height="21.006" opacity="0" width="21.365" x="0" y="0" />
              <path d="M10.4981 20.9962C16.302 20.9962 21.0037 16.2946 21.0037 10.4981C21.0037 4.70163 16.302 0 10.4981 0C4.70163 0 0 4.70163 0 10.4981C0 16.2946 4.70163 20.9962 10.4981 20.9962ZM10.4981 17.9484C6.37829 17.9484 3.04785 14.6179 3.04785 10.4981C3.04785 6.37829 6.37829 3.04785 10.4981 3.04785C14.6179 3.04785 17.9558 6.37829 17.9558 10.4981C17.9558 14.6179 14.6179 17.9484 10.4981 17.9484Z"
                     fill="currentColor" fill-opacity="0.85" />
              <path d="M5.82353 14.7289L6.52162 14.7289C6.9874 14.7289 7.27224 14.444 7.27224 13.9656L7.27224 7.83598C7.27224 7.36504 6.9874 7.0802 6.52162 7.0802L5.82353 7.0802C5.34052 7.0802 5.04592 7.36504 5.04592 7.83598L5.04592 13.9656C5.04592 14.444 5.34052 14.7289 5.82353 14.7289ZM8.56524 14.7289L9.84678 14.7289C10.3223 14.7289 10.6049 14.444 10.6049 13.9656L10.6049 9.36402C10.6049 8.89309 10.3223 8.60364 9.84678 8.60364L8.56524 8.60364C8.07939 8.60364 7.7997 8.89309 7.7997 9.36402L7.7997 13.9656C7.7997 14.444 8.07939 14.7289 8.56524 14.7289ZM8.84572 10.2443C8.66248 10.2443 8.51775 10.1052 8.51775 9.92891C8.51775 9.75544 8.64986 9.59864 8.84572 9.59864L9.58584 9.59864C9.80408 9.59864 9.90119 9.75544 9.90119 9.92891C9.90119 10.1052 9.76678 10.2443 9.58584 10.2443ZM8.84572 13.7259C8.64986 13.7259 8.51775 13.584 8.51775 13.4007C8.51775 13.2123 8.66248 13.0779 8.84572 13.0779L9.58584 13.0779C9.76678 13.0779 9.90119 13.2123 9.90119 13.4007C9.90119 13.584 9.76678 13.7259 9.58584 13.7259ZM11.9002 14.7289L12.6381 14.7289C13.1263 14.7289 13.4037 14.444 13.4037 13.9656L13.4037 6.68527C13.4037 6.18965 13.1263 5.91973 12.6381 5.91973L11.9002 5.91973C11.4097 5.91973 11.1421 6.18965 11.1421 6.68527L11.1421 13.9656C11.1421 14.444 11.4097 14.7289 11.9002 14.7289ZM15.0892 14.7289L15.5708 14.6202C16.0342 14.5295 16.2479 14.1981 16.1594 13.7272L15.024 7.74414C14.9481 7.2709 14.6042 7.05782 14.1332 7.14571L13.6591 7.24688C13.1979 7.32501 12.9797 7.66153 13.0555 8.13246L14.1984 14.1276C14.2892 14.5888 14.628 14.807 15.0892 14.7289Z"
                     fill="currentColor" fill-opacity="0.85" />
       </g>
</svg>