<?xml version="1.0" encoding="UTF-8"?>
<!--Generator: Apple Native CoreSVG 326-->
<!DOCTYPE svg PUBLIC "-//W3C//DTD SVG 1.1//EN" "http://www.w3.org/Graphics/SVG/1.1/DTD/svg11.dtd">
<svg version="1.1" xmlns="http://www.w3.org/2000/svg" xmlns:xlink="http://www.w3.org/1999/xlink"
       viewBox="0 0 19.3993 19.0529">
       <g>
              <rect height="19.0529" opacity="0" width="19.3993" x="0" y="0" />
              <path d="M19.0379 3.63912L19.0379 15.4011C19.0379 17.7262 17.7164 19.0379 15.3896 19.0379L3.64834 19.0379C1.32382 19.0379 0 17.7262 0 15.4011L0 3.63912C0 1.32151 1.32382 0 3.64834 0L15.3896 0C17.7164 0 19.0379 1.32151 19.0379 3.63912ZM7.65443 4.14135C6.61072 4.14135 6.00592 4.75592 6.00592 5.79963L6.00592 13.9181C6.00592 14.5148 6.3849 14.9156 6.93329 14.9156C7.25665 14.9156 7.4852 14.7668 7.83458 14.4346L9.57947 12.684C9.59385 12.6547 9.62545 12.6547 9.64729 12.684L11.4019 14.4346C11.749 14.7668 11.9701 14.9156 12.2935 14.9156C12.8442 14.9156 13.2231 14.5148 13.2231 13.9181L13.2231 5.79963C13.2231 4.75592 12.6183 4.14135 11.5649 4.14135Z"
                     fill="currentColor" fill-opacity="0.85" />
       </g>
</svg>