<?xml version="1.0" encoding="UTF-8"?>
<!--Generator: Apple Native CoreSVG 326-->
<!DOCTYPE svg PUBLIC "-//W3C//DTD SVG 1.1//EN" "http://www.w3.org/Graphics/SVG/1.1/DTD/svg11.dtd">
<svg version="1.1" xmlns="http://www.w3.org/2000/svg" xmlns:xlink="http://www.w3.org/1999/xlink"
       viewBox="0 0 27.5182 22.2054">
       <g>
              <rect height="22.2054" opacity="0" width="27.5182" x="0" y="0" />
              <path d="M1.94724 21.9993L3.68104 21.9993C4.90016 21.9993 5.62082 21.2689 5.62082 20.052L5.62082 4.86353C5.62082 3.63694 4.90016 2.91398 3.68104 2.91398L1.94724 2.91398C0.71835 2.91398 0 3.63694 0 4.86353L0 20.052C0 21.2689 0.71835 21.9993 1.94724 21.9993ZM8.79271 21.9993L11.9495 21.9993C13.1709 21.9993 13.8893 21.2689 13.8893 20.052L13.8893 8.70093C13.8893 7.47665 13.1709 6.75369 11.9495 6.75369L8.79271 6.75369C7.56381 6.75369 6.84316 7.47665 6.84316 8.70093L6.84316 20.052C6.84316 21.2689 7.56381 21.9993 8.79271 21.9993ZM9.47424 10.8891C9.01823 10.8891 8.65756 10.5359 8.65756 10.0897C8.65756 9.63079 9.01076 9.27759 9.47424 9.27759L11.3173 9.27759C11.8531 9.27759 12.1219 9.63079 12.1219 10.0897C12.1219 10.5359 11.771 10.8891 11.3173 10.8891ZM9.47424 19.4777C9.01076 19.4777 8.65756 19.1245 8.65756 18.6708C8.65756 18.2194 9.01823 17.8587 9.47424 17.8587L11.3173 17.8587C11.771 17.8587 12.1219 18.2194 12.1219 18.6708C12.1219 19.1245 11.771 19.4777 11.3173 19.4777ZM17.0612 21.9993L18.8764 21.9993C20.1053 21.9993 20.8237 21.2689 20.8237 20.052L20.8237 1.94955C20.8237 0.72296 20.1053 0 18.8764 0L17.0612 0C15.8323 0 15.1139 0.72296 15.1139 1.94955L15.1139 20.052C15.1139 21.2689 15.8323 21.9993 17.0612 21.9993ZM24.2464 22.063L25.4158 21.9354C26.6326 21.8154 27.2574 21.0034 27.1471 19.7843L25.64 4.73954C25.5223 3.51526 24.7126 2.89105 23.4986 3.00593L22.3316 3.14101C21.1124 3.26105 20.4877 4.07299 20.6054 5.28236L22.1074 20.3346C22.2251 21.5514 23.0348 22.1831 24.2464 22.063Z"
                     fill="currentColor" fill-opacity="0.85" />
       </g>
</svg>