<?xml version="1.0" encoding="UTF-8"?>
<!--Generator: Apple Native CoreSVG 326-->
<!DOCTYPE svg PUBLIC "-//W3C//DTD SVG 1.1//EN" "http://www.w3.org/Graphics/SVG/1.1/DTD/svg11.dtd">
<svg version="1.1" xmlns="http://www.w3.org/2000/svg" xmlns:xlink="http://www.w3.org/1999/xlink"
       viewBox="0 0 23.4982 19.7061">
       <g>
              <rect height="19.7061" opacity="0" width="23.4982" x="0" y="0" />
              <path d="M0 17.2299C0 18.4037 0.781008 19.1266 1.87943 19.1266C2.36068 19.1266 2.70356 18.9312 3.32832 18.5723C4.38016 17.922 5.477 17.5847 6.55838 17.5944C7.80049 17.6042 8.94331 18.0472 9.90277 18.9154C10.4593 19.4477 10.9881 19.6791 11.5733 19.6791C12.1487 19.6791 12.6798 19.4477 13.2415 18.9154C14.1935 18.0495 15.3363 17.6042 16.5808 17.5944C17.6621 17.5847 18.7567 17.922 19.8085 18.5723C20.4407 18.9312 20.7762 19.1266 21.2597 19.1266C22.3558 19.1266 23.1368 18.4037 23.1368 17.2299L23.1368 3.97049C23.1368 3.6851 23.0748 3.41409 22.945 3.19585C21.8894 1.32406 19.3541 0 16.5342 0C14.5918 0 12.7461 0.670552 11.5733 1.73743C10.393 0.670552 8.54498 0 6.61236 0C3.78276 0 1.24745 1.32406 0.191795 3.19585C0.0642955 3.41409 0 3.6851 0 3.97049ZM3.01964 15.3479L3.01964 4.45622C3.73605 3.58969 5.14145 3.01964 6.61236 3.01964C8.10972 3.01964 9.46222 3.59199 10.0586 4.47005L10.0586 15.4318C9.07742 14.9019 7.83804 14.5748 6.61236 14.5748C5.30856 14.5748 4.03242 14.8519 3.01964 15.3479ZM13.0782 15.4318L13.0782 4.47005C13.6746 3.59199 15.0294 3.01964 16.5342 3.01964C18.0028 3.01964 19.4008 3.58969 20.1172 4.45622L20.1172 15.3479C19.1044 14.8519 17.8357 14.5748 16.5342 14.5748C15.2988 14.5748 14.0594 14.9019 13.0782 15.4318Z"
                     fill="currentColor" fill-opacity="0.85" />
       </g>
</svg>