<?xml version="1.0" encoding="UTF-8"?>
<!--Generator: Apple Native CoreSVG 326-->
<!DOCTYPE svg PUBLIC "-//W3C//DTD SVG 1.1//EN" "http://www.w3.org/Graphics/SVG/1.1/DTD/svg11.dtd">
<svg version="1.1" xmlns="http://www.w3.org/2000/svg" xmlns:xlink="http://www.w3.org/1999/xlink"
       viewBox="0 0 28.4402 22.1738">
       <g>
              <rect height="22.1738" opacity="0" width="28.4402" x="0" y="0" />
              <path d="M25.4135 4.42969C25.5392 4.64479 25.6012 4.91115 25.6026 5.19209C25.1124 4.9452 24.5666 4.78504 23.9785 4.71732C23.0726 4.38371 22.0447 4.36105 21.0832 4.65046C20.4585 4.39731 19.7381 4.25349 19.0004 4.25349C17.4956 4.25349 16.1505 4.82584 15.5444 5.7039L15.5444 12.5201C14.5626 13.1979 13.4832 13.7907 12.5247 14.6296L12.5247 5.7039C11.9284 4.82584 10.5833 4.25349 9.07851 4.25349C7.6076 4.25349 6.2022 4.82353 5.4858 5.69007L5.4858 16.5817C6.49857 16.0857 7.77471 15.8086 9.07851 15.8086C9.84149 15.8086 10.6089 15.9349 11.3152 16.158C10.8373 17.1488 10.7681 18.2803 11.1732 19.3317C10.5086 19.002 9.78789 18.8343 9.03199 18.8283C7.94315 18.8185 6.84862 19.1558 5.80424 19.8062C5.17202 20.1651 4.82683 20.3604 4.34558 20.3604C3.25462 20.3604 2.46615 19.6376 2.46615 18.4637L2.46615 5.20433C2.46615 4.91894 2.53791 4.64793 2.65795 4.42969C3.71591 2.55791 6.25637 1.23385 9.07851 1.23385C11.0134 1.23385 12.8591 1.9044 14.0395 2.97128C15.2198 1.9044 17.0655 1.23385 19.0004 1.23385C21.8225 1.23385 24.363 2.55791 25.4135 4.42969ZM25.603 18.4637C25.603 19.6376 24.8243 20.3604 23.7259 20.3604C23.2498 20.3604 22.9069 20.1651 22.2747 19.8062C21.4354 19.2836 20.5638 18.9631 19.6888 18.8664C20.336 17.9082 20.9851 16.9041 21.6133 16.1993C21.9582 16.3043 22.283 16.4332 22.5833 16.5817L22.5833 15.3826C22.9576 15.1828 23.3622 15.0928 23.865 15.0569C24.5077 15.019 25.0899 14.8818 25.603 14.6611Z"
                     fill="currentColor" fill-opacity="0.85" />
              <path d="M13.2925 19.7847C14.4189 20.911 16.0885 20.9426 17.2028 19.6503C18.1923 18.4943 19.538 16.0743 21.1618 14.443C21.8851 13.7197 22.7051 13.5176 23.6859 13.5176C26.1398 13.5176 27.2472 11.3712 26.7998 9.58455L23.7456 10.4903L23.5554 9.78386C23.4456 9.38171 23.6386 9.04792 24.0546 8.92613L26.459 8.22312C26.3585 7.87114 26.1357 7.36411 25.767 6.98568C24.2747 5.47389 21.7716 5.42221 20.2615 6.85126C18.0737 8.94141 19.5736 10.9422 18.4929 12.0229C16.9258 13.5877 14.6711 14.7624 13.4195 15.8871C12.1467 17.0054 12.1639 18.671 13.2925 19.7847ZM15.227 18.4862C14.8886 18.4862 14.5962 18.2013 14.5962 17.8554C14.5962 17.5096 14.8886 17.2194 15.227 17.2194C15.5751 17.2194 15.8578 17.5096 15.8578 17.8554C15.8578 18.2013 15.5751 18.4862 15.227 18.4862Z"
                     fill="currentColor" fill-opacity="0.85" />
       </g>
</svg>