<?xml version="1.0" encoding="UTF-8"?>
<!--Generator: Apple Native CoreSVG 326-->
<!DOCTYPE svg PUBLIC "-//W3C//DTD SVG 1.1//EN" "http://www.w3.org/Graphics/SVG/1.1/DTD/svg11.dtd">
<svg version="1.1" xmlns="http://www.w3.org/2000/svg" xmlns:xlink="http://www.w3.org/1999/xlink"
       viewBox="0 0 23.5709 26.1003">
       <g>
              <rect height="26.1003" opacity="0" width="23.5709" x="0" y="0" />
              <path d="M21.583 6.88235L21.583 21.18C21.583 23.5568 20.351 24.7962 18.011 24.7962L11.0353 24.7962C12.6051 24.5207 14.131 24.1706 15.5074 23.7575C17.833 23.0419 18.8979 21.3993 18.8979 18.7733L18.8979 4.57342C18.8979 4.12444 18.8552 3.70333 18.7706 3.3147C20.6175 3.56369 21.583 4.77826 21.583 6.88235Z"
                     fill="currentColor" fill-opacity="0.85" />
              <path d="M17.2639 4.57342L17.2639 18.7733C17.2639 20.5793 16.7417 21.6773 15.0267 22.1947C12.0572 23.0858 8.35853 23.6795 5.06982 23.8702C2.86776 24.015 1.62655 22.8003 1.62655 20.8176L1.62655 6.18705C1.62655 4.27026 2.64909 3.31959 4.52209 3.17717C7.64976 2.95717 11.0202 2.40175 13.6128 1.77159C15.8161 1.24261 17.2639 2.2421 17.2639 4.57342ZM9.36966 16.0967C8.57446 16.2305 7.63684 16.3696 6.14258 16.4649C5.66528 16.4965 5.45219 16.813 5.45219 17.1851C5.45219 17.582 5.73879 17.8807 6.16496 17.8686C7.69598 17.771 8.69274 17.6147 9.6149 17.4464C10.0215 17.3803 10.2197 17.0495 10.2197 16.7336C10.2197 16.3563 9.93079 15.9962 9.36966 16.0967ZM12.598 12.5313C10.6974 12.9697 8.71064 13.3402 6.14258 13.5481C5.66528 13.5924 5.45219 13.9037 5.45219 14.2661C5.45219 14.648 5.73879 14.9765 6.16496 14.9495C8.73302 14.7416 10.757 14.3561 12.7725 13.9057C13.3233 13.7708 13.4382 13.4692 13.4382 13.1562C13.4382 12.7691 13.1442 12.4136 12.598 12.5313ZM12.598 9.60993C10.6974 10.0483 8.71064 10.4188 6.14258 10.6193C5.66528 10.6561 5.45219 10.9748 5.45219 11.3298C5.45219 11.7341 5.73879 12.0402 6.16496 12.0282C8.73302 11.8128 10.757 11.4348 12.7725 10.9769C13.3233 10.8494 13.4382 10.5479 13.4382 10.2199C13.4382 9.84024 13.1442 9.4922 12.598 9.60993ZM12.598 6.66848C10.6974 7.11199 8.71064 7.49746 6.14258 7.69047C5.66528 7.74215 5.45219 8.05344 5.45219 8.4107C5.45219 8.78519 5.73879 9.1114 6.16496 9.08441C8.73302 8.88394 10.757 8.50824 12.7725 8.04058C13.3233 7.90562 13.4382 7.6041 13.4382 7.29105C13.4382 6.91887 13.1442 6.56336 12.598 6.66848Z"
                     fill="currentColor" fill-opacity="0.85" />
       </g>
</svg>