<?xml version="1.0" encoding="UTF-8"?>
<!--Generator: Apple Native CoreSVG 326-->
<!DOCTYPE svg PUBLIC "-//W3C//DTD SVG 1.1//EN" "http://www.w3.org/Graphics/SVG/1.1/DTD/svg11.dtd">
<svg version="1.1" xmlns="http://www.w3.org/2000/svg" xmlns:xlink="http://www.w3.org/1999/xlink"
       viewBox="0 0 21.365 21.006">
       <g>
              <rect height="21.006" opacity="0" width="21.365" x="0" y="0" />
              <path d="M21.0037 10.5079C21.0037 16.3043 16.302 21.006 10.4981 21.006C4.70394 21.006 0 16.3043 0 10.5079C0 4.7137 4.70394 0.00976562 10.4981 0.00976562C16.302 0.00976562 21.0037 4.7137 21.0037 10.5079ZM11.9817 5.64641C11.4591 5.64641 11.1691 5.94102 11.1691 6.46133L11.1691 14.2091C11.1691 14.7196 11.4591 15.0217 11.9817 15.0217L12.7662 15.0217C13.2865 15.0217 13.5885 14.7196 13.5885 14.2091L13.5885 9.94208L14.4373 14.3883C14.528 14.8741 14.899 15.1245 15.3849 15.0217L15.9009 14.9205C16.3965 14.8275 16.6199 14.464 16.5315 13.9534L15.33 7.59426C15.2392 7.08372 14.878 6.83849 14.3749 6.9413L13.5885 7.11423L13.5885 6.46133C13.5885 5.94102 13.2865 5.64641 12.7662 5.64641ZM5.5083 6.88556C4.98569 6.88556 4.67385 7.18532 4.67385 7.69586L4.67385 14.2091C4.67385 14.7196 4.98569 15.0217 5.5083 15.0217L6.25061 15.0217C6.74853 15.0217 7.0506 14.7196 7.0506 14.2091L7.0506 7.69586C7.0506 7.18532 6.74853 6.88556 6.25061 6.88556ZM8.43489 8.51005C7.91689 8.51005 7.61252 8.81672 7.61252 9.32496L7.61252 14.2091C7.61252 14.7196 7.91689 15.0217 8.43489 15.0217L9.79741 15.0217C10.3051 15.0217 10.6026 14.7196 10.6026 14.2091L10.6026 9.32496C10.6026 8.81672 10.3051 8.51005 9.79741 8.51005ZM9.85697 13.6172C9.85697 13.8079 9.7151 13.967 9.5244 13.967L8.72513 13.967C8.52927 13.967 8.37994 13.8079 8.37994 13.6172C8.37994 13.4041 8.53443 13.2623 8.72513 13.2623L9.5244 13.2623C9.7151 13.2623 9.85697 13.4064 9.85697 13.6172ZM9.85697 9.91915C9.85697 10.1104 9.7151 10.2592 9.5244 10.2592L8.72513 10.2592C8.53443 10.2592 8.37994 10.1127 8.37994 9.91915C8.37994 9.72845 8.52927 9.56419 8.72513 9.56419L9.5244 9.56419C9.7524 9.56419 9.85697 9.72845 9.85697 9.91915Z"
                     fill="currentColor" fill-opacity="0.85" />
       </g>
</svg>