<?xml version="1.0" encoding="UTF-8"?>
<!--Generator: Apple Native CoreSVG 326-->
<!DOCTYPE svg PUBLIC "-//W3C//DTD SVG 1.1//EN" "http://www.w3.org/Graphics/SVG/1.1/DTD/svg11.dtd">
<svg version="1.1" xmlns="http://www.w3.org/2000/svg" xmlns:xlink="http://www.w3.org/1999/xlink"
       viewBox="0 0 21.365 21.006">
       <g>
              <rect height="21.006" opacity="0" width="21.365" x="0" y="0" />
              <path d="M10.4981 20.9962C16.302 20.9962 21.0037 16.2946 21.0037 10.4981C21.0037 4.70163 16.302 0 10.4981 0C4.70163 0 0 4.70163 0 10.4981C0 16.2946 4.70163 20.9962 10.4981 20.9962ZM10.4981 17.9484C6.37829 17.9484 3.04785 14.6179 3.04785 10.4981C3.04785 6.37829 6.37829 3.04785 10.4981 3.04785C14.6179 3.04785 17.9558 6.37829 17.9558 10.4981C17.9558 14.6179 14.6179 17.9484 10.4981 17.9484Z"
                     fill="currentColor" fill-opacity="0.85" />
              <path d="M8.11627 15.4552L13.9616 15.4552C14.3108 15.4552 14.5485 15.2077 14.5485 14.866C14.5485 14.5336 14.3269 14.3675 14.0811 14.2143C13.5824 13.9104 13.4951 13.0816 14.0638 12.6173C14.4381 12.3422 14.5411 12.1107 14.5411 11.6397L14.5411 7.21595C14.5411 6.15787 13.946 5.55822 12.888 5.55822L8.11857 5.55822C7.07025 5.55822 6.47522 6.15556 6.47522 7.21595L6.47522 13.8021C6.47522 14.8579 7.07025 15.4552 8.11627 15.4552ZM8.45606 14.2791C7.92017 14.2791 7.65134 13.9408 7.65134 13.5312C7.65134 13.1285 7.93169 12.7879 8.47274 12.7879L12.5418 12.7879C12.5757 12.7879 12.5998 12.7856 12.6314 12.7856C12.4011 13.2641 12.4006 13.8219 12.6154 14.2791ZM8.15806 11.9326C7.97943 11.9326 7.83755 11.7931 7.83755 11.6098L7.83755 6.82072C7.83755 6.63978 7.97943 6.49044 8.15806 6.49044C8.33384 6.49044 8.47802 6.63978 8.47802 6.82072L8.47802 11.6098C8.47802 11.7931 8.33384 11.9326 8.15806 11.9326Z"
                     fill="currentColor" fill-opacity="0.85" />
       </g>
</svg>