<?xml version="1.0" encoding="UTF-8"?>
<!--Generator: Apple Native CoreSVG 326-->
<!DOCTYPE svg PUBLIC "-//W3C//DTD SVG 1.1//EN" "http://www.w3.org/Graphics/SVG/1.1/DTD/svg11.dtd">
<svg version="1.1" xmlns="http://www.w3.org/2000/svg" xmlns:xlink="http://www.w3.org/1999/xlink"
       viewBox="0 0 27.9316 22.2054">
       <g>
              <rect height="22.2054" opacity="0" width="27.9316" x="0" y="0" />
              <path d="M0 19.022C0 20.9811 1.00616 21.9993 2.97263 21.9993L17.5435 21.9993C19.5002 21.9993 20.5087 20.9811 20.5087 19.022L20.5087 2.97955C20.5087 1.01308 19.5002 0 17.5435 0L15.1072 0C13.143 0 12.1345 1.01308 12.1345 2.97955L12.1345 6.78189C12.0391 6.76291 11.9493 6.75369 11.84 6.75369L8.20889 6.75369C8.09729 6.75369 7.98744 6.76291 7.89712 6.78189L7.89712 5.89353C7.89712 3.93452 6.89096 2.91398 4.92679 2.91398L2.97263 2.91398C1.00616 2.91398 0 3.93452 0 5.89353ZM2.98913 18.3901L2.98913 6.5232C2.98913 6.11862 3.20234 5.90311 3.61383 5.90311L4.2856 5.90311C4.69709 5.90311 4.90799 6.11862 4.90799 6.5232L4.90799 19.0102L3.61383 19.0102C3.20234 19.0102 2.98913 18.7872 2.98913 18.3901ZM7.89712 19.0102L7.89712 10.3629C7.89712 9.95833 8.11033 9.74282 8.52182 9.74282L11.5122 9.74282C11.9236 9.74282 12.1345 9.95833 12.1345 10.3629L12.1345 19.0102ZM15.1237 19.0102L15.1237 3.60922C15.1237 3.20464 15.3369 2.98913 15.7484 2.98913L16.9023 2.98913C17.3086 2.98913 17.5195 3.20464 17.5195 3.60922L17.5195 18.3901C17.5195 18.7872 17.3086 19.0102 16.9023 19.0102ZM8.46498 11.3762C8.46498 11.7703 8.77857 12.0936 9.18467 12.0936L10.9285 12.0936C11.33 12.0936 11.6384 11.7703 11.6384 11.3762C11.6384 10.9696 11.33 10.6537 10.9285 10.6537L9.18467 10.6537C8.77111 10.6537 8.46498 10.9696 8.46498 11.3762ZM8.46498 17.3842C8.46498 17.7857 8.77111 18.1016 9.18467 18.1016L10.9285 18.1016C11.33 18.1016 11.6384 17.7857 11.6384 17.3842C11.6384 16.9776 11.33 16.6542 10.9285 16.6542L9.18467 16.6542C8.77857 16.6542 8.46498 16.9776 8.46498 17.3842ZM19.9551 19.4522C20.1481 21.3991 21.245 22.3312 23.1943 22.1336L24.8739 21.9745C26.8231 21.7769 27.7293 20.68 27.541 18.733L26.2641 5.5584C26.0809 3.61146 24.9742 2.67706 23.025 2.87698L21.3528 3.03608C19.3938 3.236 18.4853 4.32314 18.676 6.27754ZM22.8777 18.5474L21.7122 6.62929C21.6737 6.23217 21.8553 5.99943 22.2668 5.95631L22.664 5.91318C23.0755 5.87006 23.3106 6.05857 23.3491 6.46084L24.5145 18.379C24.553 18.7709 24.364 19.0088 23.9548 19.0519L23.5529 19.0974C23.1661 19.1405 22.9162 18.9543 22.8777 18.5474Z"
                     fill="currentColor" fill-opacity="0.85" />
       </g>
</svg>