<?xml version="1.0" encoding="UTF-8"?>
<!--Generator: Apple Native CoreSVG 326-->
<!DOCTYPE svg PUBLIC "-//W3C//DTD SVG 1.1//EN" "http://www.w3.org/Graphics/SVG/1.1/DTD/svg11.dtd">
<svg version="1.1" xmlns="http://www.w3.org/2000/svg" xmlns:xlink="http://www.w3.org/1999/xlink"
       viewBox="0 0 28.0266 23.3273">
       <g>
              <rect height="23.3273" opacity="0" width="28.0266" x="0" y="0" />
              <path d="M0 11.1926C0 15.1376 2.73237 17.7918 6.77498 17.7918C10.7665 17.7918 13.4621 15.3817 13.4621 11.8153C13.4621 10.3231 12.956 9.10708 12.0181 8.31388C11.5225 7.90154 11.1906 7.74936 10.7145 7.74936C9.9892 7.74936 9.45288 8.23916 9.45288 8.91559C9.45288 9.58293 9.66894 9.67258 10.439 10.3961C10.7521 10.6846 10.9119 11.1557 10.9119 11.7786C10.9119 13.8502 9.2987 15.2221 6.81174 15.2221C4.25642 15.2221 2.58692 13.6233 2.58692 11.1829C2.58692 9.64165 3.42325 8.27786 4.80008 7.6016L3.45928 5.37874C1.31066 6.52987 0 8.75673 0 11.1926ZM2.63672 5.70185C2.63672 8.25493 4.4339 9.99934 7.09506 9.99934C7.79849 9.99934 8.38364 9.42395 8.38364 8.71076C8.38364 8.00502 7.79849 7.41987 7.09506 7.41987C5.93326 7.41987 5.22364 6.74295 5.22364 5.70185C5.22364 4.58372 6.14986 3.8109 7.43686 3.8109C8.24674 3.8109 9.04576 4.12273 9.74889 4.73554L11.2712 2.62811C10.1529 1.71323 8.78536 1.23144 7.45408 1.23144C4.73269 1.23144 2.63672 3.11881 2.63672 5.70185ZM8.13276 5.25912C8.12815 6.07283 8.67139 6.63844 9.41158 6.63844C10.1397 6.63844 10.6657 6.13142 10.7002 5.37225C10.7611 3.72568 11.9297 2.5697 13.5705 2.5697C14.5415 2.5697 15.4257 3.08564 15.7813 3.84232C15.9564 4.1604 16.2504 4.22985 16.615 4.14142C16.8775 4.07591 17.1941 4.042 17.4935 4.042C19.137 4.05407 20.5435 5.32767 20.5435 7.07662C20.5435 11.4203 14.1803 11.2033 14.1803 15.9893C14.1803 18.4241 15.9817 20.0306 18.587 20.0306C18.6796 20.0306 18.7843 20.0185 18.874 20.0162C19.2852 21.8853 20.5838 23.3175 22.2956 23.3175C24.8564 23.3175 26.5253 20.6621 26.5253 17.0329C26.5253 15.3479 26.4196 14.349 26.2944 13.3692L23.7373 14.0623C23.8401 14.9928 23.9556 15.8371 23.9556 17.0059C23.9556 19.5356 23.1317 20.7306 22.2956 20.7306C21.495 20.7306 20.9993 19.552 20.9993 18.2354C20.9993 17.9042 20.7616 17.6717 20.4085 17.674C20.2768 17.674 20.1146 17.6763 19.6989 17.6763C17.9868 17.6763 16.9388 17.0186 16.9388 15.8406C16.9388 12.888 23.123 13.1366 23.123 7.07662C23.123 3.85991 20.7099 1.45508 17.7433 1.45508C17.6077 1.45508 17.4312 1.47922 17.2398 1.50051C16.3168 0.563555 14.9848 0 13.5803 0C10.5159 0 8.16788 2.15972 8.13276 5.25912ZM20.117 15.3838C20.117 16.0919 20.6625 16.6282 21.3855 16.6799C25.1231 16.9544 27.6653 14.7155 27.6653 11.1462C27.6653 8.16061 25.4391 5.86483 22.1956 5.54597L21.7501 8.19773C23.7451 7.98828 25.0784 9.19419 25.0784 11.1462C25.0784 13.142 23.661 14.3106 21.4452 14.1027C20.7222 14.0413 20.117 14.6483 20.117 15.3838ZM15.3884 16.0416C14.775 16.3362 14.0415 16.5085 13.3246 16.5085C12.2935 16.5085 11.2629 16.1624 10.678 15.5244L8.06611 17.3326C9.25563 18.4105 11.0514 19.0805 13.0243 19.0805C14.1086 19.0805 15.2309 18.8887 16.2837 18.5228ZM11.2912 9.55739L12.1767 12.0587C15.0704 11.6078 16.629 9.87827 16.5469 7.12309C16.5171 6.41735 15.9095 5.83451 15.1963 5.83451C14.4906 5.83451 13.9152 6.41735 13.96 7.12309C14.0495 8.73441 13.2466 9.41309 11.2912 9.55739Z"
                     fill="currentColor" fill-opacity="0.85" />
       </g>
</svg>