<?xml version="1.0" encoding="UTF-8"?>
<!--Generator: Apple Native CoreSVG 326-->
<!DOCTYPE svg PUBLIC "-//W3C//DTD SVG 1.1//EN" "http://www.w3.org/Graphics/SVG/1.1/DTD/svg11.dtd">
<svg version="1.1" xmlns="http://www.w3.org/2000/svg" xmlns:xlink="http://www.w3.org/1999/xlink"
       viewBox="0 0 21.365 21.006">
       <g>
              <rect height="21.006" opacity="0" width="21.365" x="0" y="0" />
              <path d="M21.0037 10.4981C21.0037 16.2923 16.302 20.9962 10.4981 20.9962C4.70394 20.9962 0 16.2923 0 10.4981C0 4.70163 4.70394 0 10.4981 0C16.302 0 21.0037 4.70163 21.0037 10.4981ZM13.2428 6.28743L13.2428 6.99692C12.0365 7.05727 10.9854 7.73001 10.9854 9.00634C10.9854 10.088 11.6133 10.5924 12.6473 11.013L13.2428 11.2462L13.2428 12.7207C12.8617 12.6798 12.6215 12.4734 12.4968 12.0883C12.3711 11.7551 12.1264 11.5863 11.7853 11.5863C11.3385 11.5863 11.0117 11.839 11.0117 12.2858C11.0117 12.396 11.0462 12.5379 11.0881 12.6631C11.3942 13.552 12.2467 13.9456 13.2428 13.9841L13.2428 14.6908C13.2428 14.8143 13.3255 14.8896 13.4416 14.8896C13.5606 14.8896 13.6405 14.8143 13.6405 14.6908L13.6405 13.9864C14.9519 13.906 15.9433 13.1891 15.9433 11.946C15.9433 10.7844 15.1615 10.326 14.2251 9.96167L13.6405 9.73882L13.6405 8.26785C13.9624 8.33797 14.1566 8.56797 14.2669 8.85372C14.4202 9.13857 14.6407 9.36087 14.9957 9.36087C15.5246 9.36087 15.7446 9.00373 15.7446 8.69869C15.7446 8.51842 15.6952 8.34209 15.6234 8.2192C15.28 7.42442 14.516 7.05266 13.6405 6.99692L13.6405 6.28743C13.6405 6.16387 13.5606 6.0886 13.4416 6.0886C13.3255 6.0886 13.2428 6.16387 13.2428 6.28743ZM6.17006 6.88258C5.63944 6.88258 5.2903 7.17434 5.2903 7.80425L5.2903 13.2894C5.2903 13.8625 5.57799 14.2059 6.18213 14.2059C6.75236 14.2059 7.05673 13.8596 7.05673 13.2894L7.05673 11.5272L7.67026 11.5272L8.45309 13.4279C8.63973 13.8901 8.82812 14.2059 9.36214 14.2059C9.856 14.2059 10.2298 13.8791 10.2298 13.348C10.2298 13.132 10.1242 12.8857 10.0283 12.6744L9.37294 11.201C9.93334 10.85 10.3389 10.1903 10.3389 9.2327C10.3389 7.66505 9.36232 6.88258 7.79588 6.88258ZM14.3198 12.1257C14.3198 12.4793 14.0859 12.6793 13.6405 12.7253L13.6405 11.4054C14.0077 11.5566 14.3198 11.7274 14.3198 12.1257ZM8.53 9.27692C8.53 9.85224 8.24492 10.3183 7.64084 10.3183L7.05673 10.3183L7.05673 8.22011L7.6437 8.22011C8.22363 8.22011 8.53 8.69183 8.53 9.27692ZM13.2428 9.57213C12.875 9.38361 12.6066 9.17611 12.6066 8.86337C12.6066 8.49149 12.8876 8.2989 13.2428 8.25808Z"
                     fill="currentColor" fill-opacity="0.85" />
       </g>
</svg>