<?xml version="1.0" encoding="UTF-8"?>
<!--Generator: Apple Native CoreSVG 326-->
<!DOCTYPE svg PUBLIC "-//W3C//DTD SVG 1.1//EN" "http://www.w3.org/Graphics/SVG/1.1/DTD/svg11.dtd">
<svg version="1.1" xmlns="http://www.w3.org/2000/svg" xmlns:xlink="http://www.w3.org/1999/xlink"
       viewBox="0 0 22.6374 22.2784">
       <g>
              <rect height="22.2784" opacity="0" width="22.6374" x="0" y="0" />
              <path d="M11.1343 22.2687C17.2722 22.2687 22.2761 17.2722 22.2761 11.1343C22.2761 4.99648 17.2722 0 11.1343 0C4.99648 0 0 4.99648 0 11.1343C0 17.2722 4.99648 22.2687 11.1343 22.2687ZM11.1343 18.2927C7.17804 18.2927 3.97601 15.0906 3.97601 11.1343C3.97601 7.17573 7.17804 3.97601 11.1343 3.97601C15.0929 3.97601 18.3001 7.17573 18.3001 11.1343C18.3001 15.0906 15.0929 18.2927 11.1343 18.2927Z"
                     fill="currentColor" fill-opacity="0.85" />
              <path d="M7.0819 14.6182C7.61998 14.6182 7.89966 14.2966 7.89966 13.7585L7.89966 12.0968L8.49136 12.0968L9.22767 13.8895C9.40684 14.3271 9.57802 14.6182 10.0799 14.6182C10.5416 14.6182 10.8907 14.3086 10.8907 13.8171C10.8907 13.6184 10.7948 13.387 10.7064 13.1929L10.0729 11.7878C10.6115 11.454 10.9849 10.8386 10.9849 9.94013C10.9849 8.46607 10.0698 7.74044 8.61183 7.74044L7.07959 7.74044C6.58112 7.74044 6.25667 8.00982 6.25667 8.59782L6.25667 13.7585C6.25667 14.2994 6.52714 14.6182 7.0819 14.6182ZM7.89966 10.9694L7.89966 8.98899L8.4648 8.98899C9.01028 8.98899 9.30458 9.43372 9.30458 9.97689C9.30458 10.5304 9.03157 10.9694 8.45448 10.9694ZM13.858 14.4108C15.2022 14.4108 16.2419 13.7334 16.2419 12.4961C16.2419 11.4086 15.5118 10.9846 14.6345 10.6375L13.9388 10.3577C13.4682 10.1743 13.1119 9.9519 13.1119 9.59549C13.1119 9.19255 13.4705 9.00743 13.8855 9.00743C14.3012 9.00743 14.5517 9.26158 14.6815 9.5933C14.8273 9.846 15.0232 10.0585 15.3632 10.0585C15.8576 10.0585 16.0604 9.73354 16.0604 9.43827C16.0604 9.28038 16.011 9.11382 15.9467 8.99608C15.601 8.19263 14.7967 7.83755 13.893 7.83755C12.6785 7.83755 11.6044 8.47068 11.6044 9.73099C11.6044 10.7363 12.1904 11.216 13.163 11.6096L13.8661 11.8917C14.292 12.0676 14.7321 12.2137 14.7321 12.666C14.7321 13.0558 14.4298 13.2386 13.8677 13.2386C13.4078 13.2386 13.1464 13.0471 13.0171 12.6286C12.8937 12.3127 12.6639 12.1611 12.34 12.1611C11.9253 12.1611 11.6233 12.3891 11.6233 12.8037C11.6233 12.914 11.6577 13.0535 11.6996 13.1638C11.9932 14.0488 12.8658 14.4108 13.858 14.4108ZM13.9004 15.26C14.0119 15.26 14.082 15.1847 14.082 15.0784L14.082 7.17974C14.082 7.06595 14.0119 6.99067 13.9004 6.99067C13.7866 6.99067 13.7114 7.06595 13.7114 7.17974L13.7114 15.0784C13.7114 15.1847 13.7866 15.26 13.9004 15.26Z"
                     fill="currentColor" fill-opacity="0.85" />
       </g>
</svg>