<?xml version="1.0" encoding="UTF-8"?>
<!--Generator: Apple Native CoreSVG 326-->
<!DOCTYPE svg PUBLIC "-//W3C//DTD SVG 1.1//EN" "http://www.w3.org/Graphics/SVG/1.1/DTD/svg11.dtd">
<svg version="1.1" xmlns="http://www.w3.org/2000/svg" xmlns:xlink="http://www.w3.org/1999/xlink"
       viewBox="0 0 28.5574 21.9664">
       <g>
              <rect height="21.9664" opacity="0" width="28.5574" x="0" y="0" />
              <path d="M2.17774 20.2429C3.57404 20.2429 4.31817 19.3972 4.31817 18.0009L4.31817 13.5377L5.95412 13.5377C6.02193 13.5377 6.09205 13.5377 6.15526 13.5354L8.50107 18.7473C8.92481 19.7039 9.49898 20.2429 10.6564 20.2429C11.9419 20.2429 12.7056 19.407 12.7056 18.1829C12.7056 17.5647 12.4805 17.0692 12.2216 16.5616L10.3397 12.762C12.0875 11.8361 12.9615 9.90429 12.9615 7.84065C12.9615 3.96199 10.4658 1.99449 6.4959 1.99449L2.18059 1.99449C0.893344 1.99449 0 2.92229 0 4.24629L0 18.0009C0 19.4047 0.781433 20.2429 2.17774 20.2429ZM4.31817 10.5776L4.31817 5.25991L6.0997 5.25991C7.62617 5.25991 8.54923 6.37277 8.54923 7.92162C8.54923 9.46465 7.70496 10.5776 6.0986 10.5776ZM21.6841 19.7024C25.209 19.7024 28.1961 18.0136 28.1961 14.5605C28.1961 11.7579 26.3579 10.6044 23.6853 9.64916L21.8191 8.9828C20.7708 8.58908 19.4541 8.17395 19.4541 6.95167C19.4541 5.8154 20.5965 5.31293 21.7374 5.31293C22.891 5.31293 23.7208 5.82298 24.0798 6.88179C24.4208 7.69319 25.0214 8.10037 25.8948 8.10037C26.9467 8.10037 27.7161 7.55253 27.7161 6.5104C27.7161 6.19232 27.6518 5.85919 27.5507 5.55998C26.815 3.27864 24.2925 2.25531 21.7374 2.25531C18.3998 2.25531 15.4999 3.96933 15.4999 7.32768C15.4999 10.0819 17.2783 11.3663 19.8791 12.2722L21.7775 12.9461C23.2907 13.4787 24.247 13.9047 24.247 15.0249C24.247 16.2158 22.9422 16.6448 21.7064 16.6448C20.4872 16.6448 19.5603 16.2249 19.199 15.0058C18.905 14.1921 18.2844 13.7528 17.4259 13.7528C16.2075 13.7528 15.5576 14.4774 15.5576 15.4495C15.5576 15.7889 15.6219 16.0915 15.7504 16.3941C16.5688 18.7319 18.9939 19.7024 21.6841 19.7024ZM21.7925 21.9543C22.0889 21.9543 22.2952 21.7429 22.2952 21.4315L22.2952 0.52516C22.2952 0.213752 22.0889 0 21.7925 0C21.4862 0 21.2748 0.213752 21.2748 0.52516L21.2748 21.4315C21.2748 21.7429 21.4862 21.9543 21.7925 21.9543Z"
                     fill="currentColor" fill-opacity="0.85" />
       </g>
</svg>