<?xml version="1.0" encoding="UTF-8"?>
<!--Generator: Apple Native CoreSVG 326-->
<!DOCTYPE svg PUBLIC "-//W3C//DTD SVG 1.1//EN" "http://www.w3.org/Graphics/SVG/1.1/DTD/svg11.dtd">
<svg version="1.1" xmlns="http://www.w3.org/2000/svg" xmlns:xlink="http://www.w3.org/1999/xlink"
       viewBox="0 0 19.3993 19.0529">
       <g>
              <rect height="19.0529" opacity="0" width="19.3993" x="0" y="0" />
              <path d="M3.64834 19.0379L15.3896 19.0379C17.7164 19.0379 19.0379 17.7262 19.0379 15.4011L19.0379 3.63912C19.0379 1.32151 17.7164 0 15.3896 0L3.64834 0C1.32382 0 0 1.32151 0 3.63912L0 15.4011C0 17.7262 1.32382 19.0379 3.64834 19.0379ZM4.05583 16.0183C3.37024 16.0183 3.01964 15.7096 3.01964 14.9775L3.01964 4.07021C3.01964 3.33809 3.37024 3.0271 4.05583 3.0271L14.9821 3.0271C15.6654 3.0271 16.0183 3.33809 16.0183 4.07021L16.0183 14.9775C16.0183 15.7096 15.6654 16.0183 14.9821 16.0183Z"
                     fill="currentColor" fill-opacity="0.85" />
              <path d="M5.47142 13.0054C6.0095 13.0054 6.28919 12.6838 6.28919 12.1457L6.28919 10.484L6.88088 10.484L7.61719 12.2767C7.79637 12.7143 7.96754 13.0054 8.46941 13.0054C8.93112 13.0054 9.2728 12.6959 9.2728 12.2043C9.2728 12.0056 9.1769 11.7742 9.08846 11.5801L8.46243 10.1751C8.99354 9.84127 9.3744 9.22579 9.3744 8.32735C9.3744 6.85329 8.45928 6.12766 7.00135 6.12766L5.46912 6.12766C4.97064 6.12766 4.64619 6.39703 4.64619 6.98503L4.64619 12.1457C4.64619 12.6866 4.91897 13.0054 5.47142 13.0054ZM6.28919 9.35662L6.28919 7.3762L6.84686 7.3762C7.3998 7.3762 7.6941 7.82093 7.6941 8.36411C7.6941 8.91759 7.42109 9.35662 6.84401 9.35662ZM12.2475 12.798C13.5917 12.798 14.6314 12.1207 14.6314 10.8833C14.6314 9.79577 13.9013 9.37179 13.024 9.02471L12.3209 8.74491C11.8577 8.56154 11.5014 8.33912 11.5014 7.9827C11.5014 7.57977 11.86 7.39464 12.2676 7.39464C12.6907 7.39464 12.9412 7.64879 13.071 7.98052C13.2168 8.23321 13.4127 8.44575 13.7527 8.44575C14.2397 8.44575 14.4499 8.12076 14.4499 7.82548C14.4499 7.66759 14.4005 7.50103 14.3362 7.3833C13.9905 6.57985 13.1862 6.22477 12.2825 6.22477C11.068 6.22477 9.99394 6.8579 9.99394 8.11821C9.99394 9.12352 10.5799 9.60325 11.545 9.99685L12.2556 10.279C12.6815 10.4549 13.1216 10.6009 13.1216 11.0532C13.1216 11.443 12.8193 11.6258 12.2573 11.6258C11.7974 11.6258 11.5359 11.4343 11.4066 11.0158C11.2832 10.6999 11.0534 10.5483 10.7295 10.5483C10.3074 10.5483 10.0128 10.7763 10.0128 11.1909C10.0128 11.3012 10.0473 11.4408 10.0817 11.551C10.3827 12.436 11.2553 12.798 12.2475 12.798ZM12.2899 13.6472C12.394 13.6472 12.4716 13.5719 12.4716 13.4656L12.4716 5.56696C12.4716 5.45316 12.394 5.37789 12.2899 5.37789C12.1762 5.37789 12.1009 5.45316 12.1009 5.56696L12.1009 13.4656C12.1009 13.5719 12.1762 13.6472 12.2899 13.6472Z"
                     fill="currentColor" fill-opacity="0.85" />
       </g>
</svg>