<?xml version="1.0" encoding="UTF-8"?>
<!--Generator: Apple Native CoreSVG 326-->
<!DOCTYPE svg PUBLIC "-//W3C//DTD SVG 1.1//EN" "http://www.w3.org/Graphics/SVG/1.1/DTD/svg11.dtd">
<svg version="1.1" xmlns="http://www.w3.org/2000/svg" xmlns:xlink="http://www.w3.org/1999/xlink"
       viewBox="0 0 24.6449 23.5952">
       <g>
              <rect height="23.5952" opacity="0" width="24.6449" x="0" y="0" />
              <path d="M13.7186 0.416404L22.6254 5.55167C23.136 5.85374 23.3841 6.25686 23.3841 6.69158C23.3841 7.28595 22.9074 7.89293 22.1092 7.89293L21.3244 7.89293L21.3244 19.392L21.7032 19.392C22.2379 19.392 22.5744 19.7159 22.5744 20.2632L22.5744 21.1701L23.0673 21.1701C23.7134 21.1701 24.2836 21.7231 24.2836 22.3766C24.2836 23.0525 23.7134 23.5854 23.0673 23.5854L1.20651 23.5854C0.553002 23.5854 0 23.045 0 22.3766C0 21.7231 0.553002 21.1701 1.20651 21.1701L1.94045 21.1701L1.94045 20.2632C1.94045 19.7159 2.27927 19.392 2.81396 19.392L3.19045 19.392L3.19045 7.89293L2.41314 7.89293C1.60745 7.89293 1.13081 7.28595 1.13081 6.69158C1.13081 6.25686 1.37659 5.85374 1.88944 5.55167L10.7963 0.416404C11.242 0.154491 11.7664 0 12.2563 0C12.7462 0 13.2683 0.154491 13.7186 0.416404ZM14.9238 8.88248L14.9238 9.56607C13.7526 9.63158 12.7298 10.271 12.7298 11.5145C12.7298 12.5708 13.3363 13.0539 14.345 13.463L14.9238 13.6915L14.9238 15.0986C14.5589 15.0578 14.333 14.8606 14.2107 14.5014C14.0798 14.1728 13.8472 14.0086 13.513 14.0086C13.0731 14.0086 12.7509 14.2492 12.7509 14.6891C12.7509 14.797 12.7905 14.9366 12.8348 15.0595C13.134 15.9133 13.9582 16.2954 14.9238 16.3264L14.9238 17.0146C14.9238 17.1313 15.0066 17.2066 15.1157 17.2066C15.2249 17.2066 15.3025 17.1313 15.3025 17.0146L15.3025 16.3264C16.5742 16.2558 17.5397 15.5573 17.5397 14.3567C17.5397 13.2303 16.7912 12.7857 15.8779 12.4329L15.3025 12.2147L15.3025 10.8088C15.6083 10.8766 15.8054 11.0951 15.9059 11.3745C16.0592 11.6398 16.2653 11.8575 16.6157 11.8575C17.1353 11.8575 17.3507 11.5124 17.3507 11.2143C17.3507 11.0415 17.3014 10.8698 17.2296 10.7417C16.8954 9.98721 16.155 9.62697 15.3025 9.56607L15.3025 8.88248C15.3025 8.76353 15.2249 8.69572 15.1157 8.69572C15.0066 8.69572 14.9238 8.76353 14.9238 8.88248ZM8.06641 9.46381C7.5427 9.46381 7.20794 9.74119 7.20794 10.3642L7.20794 15.6461C7.20794 16.2122 7.49103 16.5413 8.07848 16.5413C8.63203 16.5413 8.93179 16.2071 8.93179 15.6461L8.93179 13.9633L9.51536 13.9633L10.2705 15.7799C10.4526 16.2353 10.6289 16.5413 11.156 16.5413C11.6355 16.5413 12.0047 16.2191 12.0047 15.7023C12.0047 15.4985 11.899 15.2545 11.8054 15.0454L11.1755 13.644C11.7174 13.2999 12.1063 12.6633 12.1063 11.7339C12.1063 10.2181 11.1602 9.46381 9.64328 9.46381ZM15.9565 14.529C15.9565 14.8664 15.7318 15.0596 15.3025 15.1009L15.3025 13.8364C15.6559 13.9881 15.9565 14.152 15.9565 14.529ZM10.3377 11.7758C10.3377 12.3327 10.0641 12.7826 9.48309 12.7826L8.93179 12.7826L8.93179 10.7611L9.48594 10.7611C10.0451 10.7611 10.3377 11.2213 10.3377 11.7758ZM14.9238 12.0526C14.5698 11.8785 14.3106 11.6727 14.3106 11.3813C14.3106 11.0307 14.5824 10.8375 14.9238 10.799Z"
                     fill="currentColor" fill-opacity="0.85" />
       </g>
</svg>