<?xml version="1.0" encoding="UTF-8"?>
<!--Generator: Apple Native CoreSVG 326-->
<!DOCTYPE svg PUBLIC "-//W3C//DTD SVG 1.1//EN" "http://www.w3.org/Graphics/SVG/1.1/DTD/svg11.dtd">
<svg version="1.1" xmlns="http://www.w3.org/2000/svg" xmlns:xlink="http://www.w3.org/1999/xlink"
       viewBox="0 0 24.6449 23.5952">
       <g>
              <rect height="23.5952" opacity="0" width="24.6449" x="0" y="0" />
              <path d="M1.94045 20.4256L22.5744 20.4256L22.5744 19.4355C22.5744 18.8957 22.2379 18.5718 21.7032 18.5718L21.3244 18.5718L21.3244 7.89293L22.1092 7.89293C22.9074 7.89293 23.3841 7.28595 23.3841 6.69158C23.3841 6.25686 23.136 5.85374 22.6254 5.55167L13.7186 0.416404C13.2683 0.154491 12.7462 0 12.2563 0C11.7664 0 11.242 0.154491 10.7963 0.416404L1.88944 5.55167C1.37659 5.85374 1.13081 6.25686 1.13081 6.69158C1.13081 7.28595 1.60745 7.89293 2.41314 7.89293L3.19045 7.89293L3.19045 18.5718L2.81396 18.5718C2.27927 18.5718 1.94045 18.8957 1.94045 19.4355ZM5.29922 18.5718L5.29922 6.39673L12.047 2.62732C12.1194 2.5888 12.1965 2.57212 12.2563 2.57212C12.331 2.57212 12.3931 2.5888 12.4679 2.62732L19.2157 6.39673L19.2157 18.5718ZM1.20651 23.5854L23.0673 23.5854C23.7134 23.5854 24.2836 23.0525 24.2836 22.3766C24.2836 21.7231 23.7134 21.1701 23.0673 21.1701L1.20651 21.1701C0.553002 21.1701 0 21.7231 0 22.3766C0 23.045 0.553002 23.5854 1.20651 23.5854Z"
                     fill="currentColor" fill-opacity="0.85" />
              <path d="M8.33742 14.9282C8.85882 14.9282 9.1339 14.6113 9.1339 14.0899L9.1339 12.4979L9.69794 12.4979L10.4066 14.2163C10.5737 14.6395 10.7426 14.9282 11.23 14.9282C11.6848 14.9282 12.0196 14.6308 12.0196 14.1461C12.0196 13.952 11.926 13.7229 11.8473 13.5312L11.2392 12.201C11.757 11.8764 12.1137 11.2817 12.1137 10.4114C12.1137 8.98917 11.2343 8.28198 9.81094 8.28198L8.33512 8.28198C7.85102 8.28198 7.53348 8.54444 7.53348 9.11807L7.53348 14.0899C7.53348 14.6141 7.79418 14.9282 8.33742 14.9282ZM9.1339 11.3987L9.1339 9.50002L9.66852 9.50002C10.1933 9.50002 10.4737 9.92576 10.4737 10.4459C10.4737 10.9735 10.2122 11.3987 9.66336 11.3987ZM14.8982 14.7329C16.2004 14.7329 17.2118 14.074 17.2118 12.8718C17.2118 11.8194 16.5076 11.4092 15.6609 11.0714L14.9813 10.8059C14.5245 10.6295 14.1872 10.4163 14.1872 10.076C14.1872 9.6869 14.5268 9.51846 14.9257 9.51846C15.3229 9.51846 15.5591 9.76108 15.6866 10.0692C15.8301 10.3196 16.0213 10.5252 16.3545 10.5252C16.8345 10.5252 17.0424 10.2123 17.0424 9.92394C17.0424 9.76605 16.993 9.6041 16.9213 9.49098C16.5899 8.72034 15.8064 8.37679 14.9332 8.37679C13.7561 8.37679 12.7125 8.98632 12.7125 10.2092C12.7125 11.1892 13.2772 11.6499 14.217 12.032L14.9114 12.3049C15.3137 12.4716 15.7349 12.6055 15.7349 13.0417C15.7349 13.4154 15.4492 13.589 14.9154 13.589C14.4665 13.589 14.2142 13.4067 14.0947 13.0066C13.9713 12.7028 13.7484 12.5483 13.4314 12.5483C13.0237 12.5483 12.7314 12.7717 12.7314 13.1817C12.7314 13.2874 12.7659 13.4172 12.8078 13.5275C13.0967 14.3825 13.9388 14.7329 14.8982 14.7329ZM14.9406 15.5516C15.0498 15.5516 15.1153 15.4763 15.1153 15.3769L15.1153 7.73511C15.1153 7.63339 15.0498 7.55811 14.9406 7.55811C14.8314 7.55811 14.7636 7.63339 14.7636 7.73511L14.7636 15.3769C14.7636 15.4763 14.8314 15.5516 14.9406 15.5516Z"
                     fill="currentColor" fill-opacity="0.85" />
       </g>
</svg>