<?xml version="1.0" encoding="UTF-8"?>
<!--Generator: Apple Native CoreSVG 326-->
<!DOCTYPE svg PUBLIC "-//W3C//DTD SVG 1.1//EN" "http://www.w3.org/Graphics/SVG/1.1/DTD/svg11.dtd">
<svg version="1.1" xmlns="http://www.w3.org/2000/svg" xmlns:xlink="http://www.w3.org/1999/xlink"
       viewBox="0 0 21.365 21.006">
       <g>
              <rect height="21.006" opacity="0" width="21.365" x="0" y="0" />
              <path d="M21.0037 10.5079C21.0037 16.3043 16.302 21.006 10.4981 21.006C4.70394 21.006 0 16.3043 0 10.5079C0 4.7137 4.70394 0.00976562 10.4981 0.00976562C16.302 0.00976562 21.0037 4.7137 21.0037 10.5079ZM11.89 10.9981L11.89 11.3262C11.89 11.7323 11.6476 11.962 11.2214 11.962L9.78686 11.962C9.36069 11.962 9.1183 11.7323 9.1183 11.3262L9.1183 10.9981C7.87443 10.8855 6.67478 10.6666 5.16341 10.1048L5.16341 13.1294C5.16341 14.1864 5.73552 14.7636 6.79021 14.7636L14.2181 14.7636C15.2728 14.7636 15.8472 14.1864 15.8472 13.1294L15.8472 10.1048C14.3335 10.6666 13.1339 10.8855 11.89 10.9981ZM9.00318 5.23541C8.07842 5.23541 7.55853 5.70877 7.55853 6.51701L7.55853 7.06959L6.79021 7.06959C5.73552 7.06959 5.16341 7.65431 5.16341 8.70154L5.16341 8.91541C6.78189 9.60483 8.6626 9.96033 10.5004 9.96033C12.3457 9.96033 14.2264 9.60483 15.8472 8.91541L15.8472 8.70154C15.8472 7.65431 15.2728 7.06959 14.2181 7.06959L13.4498 7.06959L13.4498 6.51701C13.4498 5.70877 12.9299 5.23541 12.0051 5.23541ZM12.1845 6.55838L12.1845 7.06959L8.82376 7.06959L8.82376 6.55838C8.82376 6.41408 8.93009 6.34736 9.08646 6.34736L11.9218 6.34736C12.0759 6.34736 12.1845 6.41408 12.1845 6.55838Z"
                     fill="currentColor" fill-opacity="0.85" />
       </g>
</svg>