<?xml version="1.0" encoding="UTF-8"?>
<!--Generator: Apple Native CoreSVG 326-->
<!DOCTYPE svg PUBLIC "-//W3C//DTD SVG 1.1//EN" "http://www.w3.org/Graphics/SVG/1.1/DTD/svg11.dtd">
<svg version="1.1" xmlns="http://www.w3.org/2000/svg" xmlns:xlink="http://www.w3.org/1999/xlink"
       viewBox="0 0 21.365 21.006">
       <g>
              <rect height="21.006" opacity="0" width="21.365" x="0" y="0" />
              <path d="M10.4981 20.9962C16.302 20.9962 21.0037 16.2946 21.0037 10.4981C21.0037 4.70163 16.302 0 10.4981 0C4.70163 0 0 4.70163 0 10.4981C0 16.2946 4.70163 20.9962 10.4981 20.9962ZM10.4981 17.9484C6.37829 17.9484 3.04785 14.6179 3.04785 10.4981C3.04785 6.37829 6.37829 3.04785 10.4981 3.04785C14.6179 3.04785 17.9558 6.37829 17.9558 10.4981C17.9558 14.6179 14.6179 17.9484 10.4981 17.9484Z"
                     fill="currentColor" fill-opacity="0.85" />
              <path d="M7.01184 14.4461L13.9918 14.4461C14.9725 14.4461 15.5124 13.9033 15.5124 12.925L15.5124 8.75322C15.5124 7.77259 14.9725 7.22978 13.9918 7.22978L7.01184 7.22978C6.02376 7.22978 5.4861 7.77259 5.4861 8.75322L5.4861 12.925C5.4861 13.9033 6.02376 14.4461 7.01184 14.4461ZM9.82877 11.8116C9.42729 11.8116 9.19237 11.6088 9.19237 11.2177L9.19237 10.9068C8.03462 10.8092 6.90387 10.6 5.4861 10.0652L5.4861 8.95732C7.00869 9.60713 8.77111 9.93565 10.4981 9.93565C12.2251 9.93565 13.995 9.60713 15.5124 8.95732L15.5124 10.0652C14.0998 10.6 12.9691 10.8092 11.8113 10.9068L11.8113 11.2177C11.8113 11.6088 11.5689 11.8116 11.1749 11.8116ZM7.73595 7.51256L8.91966 7.51256L8.91966 6.74326C8.91966 6.60872 9.02599 6.54946 9.17259 6.54946L11.8357 6.54946C11.98 6.54946 12.0789 6.60872 12.0789 6.74326L12.0789 7.51256L13.2677 7.51256L13.2677 6.70935C13.2677 5.94533 12.7823 5.50642 11.9144 5.50642L9.08931 5.50642C8.22138 5.50642 7.73595 5.94533 7.73595 6.70935Z"
                     fill="currentColor" fill-opacity="0.85" />
       </g>
</svg>