<?xml version="1.0" encoding="UTF-8"?>
<!--Generator: Apple Native CoreSVG 326-->
<!DOCTYPE svg PUBLIC "-//W3C//DTD SVG 1.1//EN" "http://www.w3.org/Graphics/SVG/1.1/DTD/svg11.dtd">
<svg version="1.1" xmlns="http://www.w3.org/2000/svg" xmlns:xlink="http://www.w3.org/1999/xlink"
       viewBox="0 0 29.2677 30.476">
       <g>
              <rect height="30.476" opacity="0" width="29.2677" x="0" y="0" />
              <path d="M16.8997 7.89227L8.12423 7.89227C6.68644 7.89227 5.96014 8.61231 5.96014 10.054L5.96014 17.48C5.96014 18.9217 6.68644 19.6441 8.12423 19.6441L9.86027 19.6441C10.4794 19.6441 10.8613 19.9163 10.8613 20.6376L10.8613 23.2831L13.8744 20.3343C14.4245 19.7968 14.7376 19.6441 15.4836 19.6441L20.7821 19.6441C22.2101 19.6441 22.9364 18.9217 22.9364 17.48L22.9364 10.7941L25.6909 8.03957C25.8667 8.57803 25.9561 9.17903 25.9561 9.83022L25.9561 17.7061C25.9561 20.7241 24.0355 22.6637 21.0059 22.6637L15.731 22.6637L12.4715 25.4976C11.5349 26.3085 10.9044 26.6146 10.1401 26.6146C9.03352 26.6146 8.34447 25.8652 8.34447 24.6432L8.34447 22.6637L7.63698 22.6637C5.04247 22.6637 2.9405 20.7264 2.9405 17.7061L2.9405 9.83022C2.9405 6.80992 4.86342 4.87262 7.8981 4.87262L19.9217 4.87262Z"
                     fill="currentColor" fill-opacity="0.85" />
              <path d="M15.5367 14.3341L17.8124 13.438L25.6526 5.59777L23.6662 3.61365L15.8283 11.4539L14.9258 13.7134C14.7656 14.1107 15.187 14.4645 15.5367 14.3341ZM26.4746 4.77582L27.1002 4.14554C27.6234 3.62238 27.6607 2.85806 27.1571 2.37681L26.7959 2.02306C26.3565 1.60611 25.5824 1.6951 25.0811 2.19872L24.4807 2.78709Z"
                     fill="currentColor" fill-opacity="0.85" />
       </g>
</svg>