<?xml version="1.0" encoding="UTF-8"?>
<!--Generator: Apple Native CoreSVG 326-->
<!DOCTYPE svg PUBLIC "-//W3C//DTD SVG 1.1//EN" "http://www.w3.org/Graphics/SVG/1.1/DTD/svg11.dtd">
<svg version="1.1" xmlns="http://www.w3.org/2000/svg" xmlns:xlink="http://www.w3.org/1999/xlink"
       viewBox="0 0 22.215 21.3193">
       <g>
              <rect height="21.3193" opacity="0" width="22.215" x="0" y="0" />
              <path d="M18.6104 14.0524C18.8684 16.3205 18.865 16.3073 21.1968 16.6141C21.5781 16.6681 21.8537 16.9586 21.8537 17.3376C21.8537 17.7068 21.593 17.9922 21.2215 18.0611C18.7686 18.5322 18.8707 18.5127 18.6104 20.6624C18.5588 21.0414 18.2487 21.3096 17.872 21.3096C17.4833 21.3096 17.1755 21.0167 17.141 20.628C16.9003 18.426 16.9037 18.4242 14.5742 18.0686C14.1734 17.9922 13.9052 17.7241 13.9052 17.3376C13.9052 16.9931 14.1562 16.6853 14.5202 16.6216C17.0231 16.1454 16.9078 16.1448 17.141 14.0622C17.1755 13.666 17.4833 13.3806 17.872 13.3806C18.2659 13.3806 18.576 13.6637 18.6104 14.0524Z"
                     fill="currentColor" fill-opacity="0.85" />
              <path d="M7.56126 0.544328C7.87837 2.15008 7.76986 2.03926 9.37561 2.34605C9.7006 2.40519 9.92224 2.65898 9.92224 2.97421C9.92224 3.2969 9.7006 3.54553 9.37561 3.59721C7.76986 3.91893 7.87837 3.80811 7.56126 5.42878C7.50959 5.73139 7.2535 5.95819 6.94573 5.95819C6.6305 5.95819 6.37441 5.74631 6.31527 5.42878C5.99816 3.80811 6.11413 3.91893 4.49346 3.59721C4.17593 3.54553 3.96175 3.28944 3.96175 2.97421C3.96175 2.65898 4.18339 2.40519 4.49346 2.35352C6.11413 2.03926 5.99816 2.15008 6.31527 0.544328C6.37441 0.219333 6.62304 0 6.94573 0C7.2535 0 7.50959 0.219333 7.56126 0.544328Z"
                     fill="currentColor" fill-opacity="0.85" />
              <path d="M10.1524 17.6692C10.1524 19.4337 8.70099 20.9001 6.94858 20.9001C5.17663 20.9001 3.72519 19.4412 3.72519 17.6692C3.72519 15.9094 5.17663 14.4654 6.94858 14.4654C8.70099 14.4654 10.1524 15.9168 10.1524 17.6692Z"
                     fill="currentColor" fill-opacity="0.85" />
              <path d="M6.03892 8.78045C6.03892 10.4375 4.6656 11.8011 3.02061 11.8011C1.36355 11.8011 0 10.4375 0 8.78045C0 7.128 1.36355 5.76445 3.02061 5.76445C4.6656 5.76445 6.03892 7.128 6.03892 8.78045Z"
                     fill="currentColor" fill-opacity="0.85" />
              <path d="M21.5377 6.22537C21.5377 8.54765 20.003 10.5072 17.8886 11.1374C17.9521 10.8137 17.9828 10.4786 17.9828 10.1361C17.9828 7.04144 15.4757 4.53434 12.3735 4.53434C12.0958 4.53434 11.8229 4.55454 11.5583 4.60025C12.2353 2.56988 14.1542 1.10637 16.4164 1.10637C19.251 1.10637 21.5377 3.4005 21.5377 6.22537Z"
                     fill="currentColor" fill-opacity="0.85" />
              <path d="M12.3735 14.3365C14.7015 14.3365 16.5888 12.4663 16.5888 10.1361C16.5888 7.80819 14.7015 5.92828 12.3735 5.92828C10.0456 5.92828 8.17316 7.80819 8.17316 10.1361C8.17316 12.4589 10.0531 14.3365 12.3735 14.3365Z"
                     fill="currentColor" fill-opacity="0.85" />
       </g>
</svg>