<?xml version="1.0" encoding="UTF-8"?>
<!--Generator: Apple Native CoreSVG 326-->
<!DOCTYPE svg PUBLIC "-//W3C//DTD SVG 1.1//EN" "http://www.w3.org/Graphics/SVG/1.1/DTD/svg11.dtd">
<svg version="1.1" xmlns="http://www.w3.org/2000/svg" xmlns:xlink="http://www.w3.org/1999/xlink"
       viewBox="0 0 21.365 21.006">
       <g>
              <rect height="21.006" opacity="0" width="21.365" x="0" y="0" />
              <path d="M10.4981 20.9962C16.302 20.9962 21.0037 16.2946 21.0037 10.4981C21.0037 4.70163 16.302 0 10.4981 0C4.70163 0 0 4.70163 0 10.4981C0 16.2946 4.70163 20.9962 10.4981 20.9962ZM10.4981 17.9484C6.37829 17.9484 3.04785 14.6179 3.04785 10.4981C3.04785 6.37829 6.37829 3.04785 10.4981 3.04785C14.6179 3.04785 17.9558 6.37829 17.9558 10.4981C17.9558 14.6179 14.6179 17.9484 10.4981 17.9484Z"
                     fill="currentColor" fill-opacity="0.85" />
              <path d="M8.3006 15.8568C8.5183 15.8568 8.69747 15.7764 8.937 15.5489L10.6104 14.0714L13.3574 14.0714C14.6988 14.0714 15.5323 13.2356 15.5323 11.8942L15.5323 8.42143C15.5323 7.09209 14.6988 6.23162 13.3574 6.23162L7.66123 6.23162C6.31982 6.23162 5.48634 7.08978 5.48634 8.42143L5.48634 11.8942C5.48634 13.2356 6.40189 14.0714 7.55678 14.0714L7.81353 14.0714L7.81353 15.3112C7.81353 15.6489 7.99963 15.8568 8.3006 15.8568Z"
                     fill="currentColor" fill-opacity="0.85" />
       </g>
</svg>