<?xml version="1.0" encoding="UTF-8"?>
<!--Generator: Apple Native CoreSVG 326-->
<!DOCTYPE svg PUBLIC "-//W3C//DTD SVG 1.1//EN" "http://www.w3.org/Graphics/SVG/1.1/DTD/svg11.dtd">
<svg version="1.1" xmlns="http://www.w3.org/2000/svg" xmlns:xlink="http://www.w3.org/1999/xlink"
       viewBox="0 0 25.4557 27.3874">
       <g>
              <rect height="27.3874" opacity="0" width="25.4557" x="0" y="0" />
              <path d="M23.5476 9.47557L23.5476 23.1439C23.5476 24.8385 22.6259 25.8308 20.9997 25.8308L17.9817 25.8308C18.4975 25.1285 18.78 24.211 18.78 23.1439L18.78 20.4385L20.2427 20.4385C20.4328 20.4385 20.5449 20.3115 20.5449 20.1334L20.5449 18.6892C20.5449 18.5014 20.4328 18.3893 20.2427 18.3893L18.78 18.3893L18.78 17.01L20.2427 17.01C20.4328 17.01 20.5449 16.883 20.5449 16.7026L20.5449 15.2756C20.5449 15.0803 20.4328 14.9608 20.2427 14.9608L18.78 14.9608L18.78 13.5814L20.2427 13.5814C20.4328 13.5814 20.5449 13.4596 20.5449 13.2816L20.5449 11.8448C20.5449 11.6518 20.4328 11.53 20.2427 11.53L18.78 11.53L18.78 6.79384L20.9997 6.79384C22.6259 6.79384 23.5476 7.77641 23.5476 9.47557Z"
                     fill="currentColor" fill-opacity="0.85" />
              <path d="M5.55125 8.09916L5.55125 6.27517C5.55125 6.02873 5.70004 5.87302 5.93156 5.87302L7.97312 5.87302C8.20464 5.87302 8.36035 6.02873 8.36035 6.27517L8.36035 8.09916C8.36035 8.34791 8.20464 8.49385 7.97312 8.49385L5.93156 8.49385C5.70004 8.49385 5.55125 8.34791 5.55125 8.09916ZM10.422 8.09916L10.422 6.27517C10.422 6.02873 10.5805 5.87302 10.8069 5.87302L12.8536 5.87302C13.08 5.87302 13.2386 6.02873 13.2386 6.27517L13.2386 8.09916C13.2386 8.34791 13.08 8.49385 12.8536 8.49385L10.8069 8.49385C10.5805 8.49385 10.422 8.34791 10.422 8.09916ZM5.55125 12.1359L5.55125 10.3096C5.55125 10.0631 5.70004 9.90975 5.93156 9.90975L7.97312 9.90975C8.20464 9.90975 8.36035 10.0631 8.36035 10.3096L8.36035 12.1359C8.36035 12.3846 8.20464 12.5432 7.97312 12.5432L5.93156 12.5432C5.70004 12.5432 5.55125 12.3846 5.55125 12.1359ZM10.422 12.1359L10.422 10.3096C10.422 10.0631 10.5805 9.90975 10.8069 9.90975L12.8536 9.90975C13.08 9.90975 13.2386 10.0631 13.2386 10.3096L13.2386 12.1359C13.2386 12.3846 13.08 12.5432 12.8536 12.5432L10.8069 12.5432C10.5805 12.5432 10.422 12.3846 10.422 12.1359ZM5.55125 16.1778L5.55125 14.3463C5.55125 14.105 5.70004 13.9516 5.93156 13.9516L7.97312 13.9516C8.20464 13.9516 8.36035 14.105 8.36035 14.3463L8.36035 16.1778C8.36035 16.4167 8.20464 16.5799 7.97312 16.5799L5.93156 16.5799C5.70004 16.5799 5.55125 16.4167 5.55125 16.1778ZM10.422 16.1778L10.422 14.3463C10.422 14.105 10.5805 13.9516 10.8069 13.9516L12.8536 13.9516C13.08 13.9516 13.2386 14.105 13.2386 14.3463L13.2386 16.1778C13.2386 16.4167 13.08 16.5799 12.8536 16.5799L10.8069 16.5799C10.5805 16.5799 10.422 16.4167 10.422 16.1778ZM4.10211 25.8308L14.6854 25.8308C16.319 25.8308 17.243 24.8385 17.243 23.1439L17.243 4.23367C17.243 2.53682 16.319 1.54679 14.6854 1.54679L4.10211 1.54679C2.46846 1.54679 1.54449 2.53682 1.54449 4.23367L1.54449 23.1439C1.54449 24.8385 2.46846 25.8308 4.10211 25.8308ZM6.59028 23.0362L6.59028 20.4319C6.59028 19.7674 6.99977 19.3304 7.63957 19.3304L11.1502 19.3304C11.7923 19.3304 12.1972 19.7674 12.1972 20.4319L12.1972 23.0362Z"
                     fill="currentColor" fill-opacity="0.85" />
       </g>
</svg>