<?xml version="1.0" encoding="UTF-8"?>
<!--Generator: Apple Native CoreSVG 326-->
<!DOCTYPE svg PUBLIC "-//W3C//DTD SVG 1.1//EN" "http://www.w3.org/Graphics/SVG/1.1/DTD/svg11.dtd">
<svg version="1.1" xmlns="http://www.w3.org/2000/svg" xmlns:xlink="http://www.w3.org/1999/xlink"
       viewBox="0 0 21.365 21.006">
       <g>
              <rect height="21.006" opacity="0" width="21.365" x="0" y="0" />
              <path d="M21.0037 10.5079C21.0037 16.3043 16.302 21.006 10.4981 21.006C4.70394 21.006 0 16.3043 0 10.5079C0 4.7137 4.70394 0.00976562 10.4981 0.00976562C16.302 0.00976562 21.0037 4.7137 21.0037 10.5079ZM6.22683 6.23611C5.42793 6.23611 4.97762 6.72033 4.97762 7.54337L4.97762 15.5245C6.34208 17.0251 8.30576 17.9731 10.4981 17.9731C11.4149 17.9731 12.2949 17.8013 13.0962 17.5073L13.0962 7.54337C13.0962 6.72033 12.6407 6.23611 11.8619 6.23611ZM13.8579 8.54959L13.8579 17.1742C14.8575 16.7041 16.1678 15.6292 16.8573 14.4031L16.8573 9.84478C16.8573 9.02174 16.4145 8.54959 15.6156 8.54959ZM8.49676 15.1853L8.49676 16.2055C8.49676 16.3446 8.3968 16.4399 8.26985 16.4399L7.22778 16.4399C7.09852 16.4399 7.01063 16.3446 7.01063 16.2055L7.01063 15.1853C7.01063 15.0584 7.09852 14.9733 7.22778 14.9733L8.26985 14.9733C8.3968 14.9733 8.49676 15.0584 8.49676 15.1853ZM11.2026 15.1853L11.2026 16.2055C11.2026 16.3446 11.105 16.4399 10.9906 16.4399L9.93364 16.4399C9.81931 16.4399 9.7165 16.3446 9.7165 16.2055L9.7165 15.1853C9.7165 15.0584 9.81931 14.9733 9.93364 14.9733L10.9906 14.9733C11.105 14.9733 11.2026 15.0584 11.2026 15.1853ZM15.9316 14.0208L15.9316 14.7006C15.9316 14.7983 15.846 14.8861 15.7334 14.8861L15.0542 14.8861C14.9594 14.8861 14.8663 14.7983 14.8663 14.7006L14.8663 14.0208C14.8663 13.9232 14.9519 13.8278 15.0542 13.8278L15.7334 13.8278C15.846 13.8278 15.9316 13.9157 15.9316 14.0208ZM8.49676 12.8041L8.49676 13.8444C8.49676 13.9662 8.3968 14.0788 8.26985 14.0788L7.22778 14.0788C7.09852 14.0788 7.01063 13.9662 7.01063 13.8444L7.01063 12.8041C7.01063 12.6898 7.09852 12.5847 7.22778 12.5847L8.26985 12.5847C8.3968 12.5847 8.49676 12.6898 8.49676 12.8041ZM11.2026 12.8041L11.2026 13.8444C11.2026 13.9662 11.105 14.0788 10.9906 14.0788L9.93364 14.0788C9.81931 14.0788 9.7165 13.9662 9.7165 13.8444L9.7165 12.8041C9.7165 12.6898 9.81931 12.5847 9.93364 12.5847L10.9906 12.5847C11.105 12.5847 11.2026 12.6898 11.2026 12.8041ZM15.9316 12.1598L15.9316 12.8298C15.9316 12.9373 15.8534 13.0154 15.7334 13.0154L15.0542 13.0154C14.9519 13.0154 14.8663 12.9298 14.8663 12.8298L14.8663 12.1598C14.8663 12.0524 14.9519 11.9743 15.0542 11.9743L15.7334 11.9743C15.8534 11.9743 15.9316 12.045 15.9316 12.1598ZM8.49676 10.4207L8.49676 11.4633C8.49676 11.5753 8.3968 11.6827 8.26985 11.6827L7.22778 11.6827C7.09852 11.6827 7.01063 11.5753 7.01063 11.4633L7.01063 10.4207C7.01063 10.2989 7.09852 10.1937 7.22778 10.1937L8.26985 10.1937C8.3968 10.1937 8.49676 10.2989 8.49676 10.4207ZM11.2026 10.4207L11.2026 11.4633C11.2026 11.5753 11.105 11.6827 10.9906 11.6827L9.93364 11.6827C9.81931 11.6827 9.7165 11.5753 9.7165 11.4633L9.7165 10.4207C9.7165 10.2989 9.81931 10.1937 9.93364 10.1937L10.9906 10.1937C11.105 10.1937 11.2026 10.2989 11.2026 10.4207ZM15.9316 10.304L15.9316 10.9838C15.9316 11.0912 15.846 11.1544 15.7334 11.1544L15.0542 11.1544C14.9519 11.1544 14.8663 11.0837 14.8663 10.9838L14.8663 10.304C14.8663 10.2064 14.9519 10.1185 15.0542 10.1185L15.7334 10.1185C15.8534 10.1185 15.9316 10.1989 15.9316 10.304ZM8.49676 8.0567L8.49676 9.0844C8.49676 9.21366 8.3968 9.29639 8.26985 9.29639L7.22778 9.29639C7.09852 9.29639 7.01063 9.21366 7.01063 9.0844L7.01063 8.0567C7.01063 7.93491 7.09852 7.83725 7.22778 7.83725L8.26985 7.83725C8.3968 7.83725 8.49676 7.93491 8.49676 8.0567ZM11.2026 8.0567L11.2026 9.0844C11.2026 9.21366 11.105 9.29639 10.9906 9.29639L9.93364 9.29639C9.81931 9.29639 9.7165 9.21366 9.7165 9.0844L9.7165 8.0567C9.7165 7.93491 9.81931 7.83725 9.93364 7.83725L10.9906 7.83725C11.105 7.83725 11.2026 7.93491 11.2026 8.0567Z"
                     fill="currentColor" fill-opacity="0.85" />
       </g>
</svg>