<?xml version="1.0" encoding="UTF-8"?>
<!--Generator: Apple Native CoreSVG 326-->
<!DOCTYPE svg PUBLIC "-//W3C//DTD SVG 1.1//EN" "http://www.w3.org/Graphics/SVG/1.1/DTD/svg11.dtd">
<svg version="1.1" xmlns="http://www.w3.org/2000/svg" xmlns:xlink="http://www.w3.org/1999/xlink"
       viewBox="0 0 21.365 21.0014">
       <g>
              <rect height="21.0014" opacity="0" width="21.365" x="0" y="0" />
              <path d="M0 10.5033C0 16.2784 4.73038 21.0014 10.4981 21.0014C16.2756 21.0014 21.0037 16.2784 21.0037 10.5033C21.0037 4.72577 16.2733 0.0051558 10.4958 0.0051558C4.72808 0.0051558 0 4.72577 0 10.5033ZM3.05015 10.5033L10.4935 10.5033L6.77813 4.04461C7.86224 3.41379 9.13881 3.053 10.4958 3.053C11.8603 3.053 13.1294 3.41379 14.2209 4.04461L10.4935 10.5033L17.9558 10.5033C17.9581 13.2707 16.4598 15.6802 14.2382 16.9545L10.4935 10.5033L6.77067 16.9596C4.54387 15.6681 3.05015 13.2684 3.05015 10.5033Z"
                     fill="currentColor" fill-opacity="0.85" />
       </g>
</svg>