<?xml version="1.0" encoding="UTF-8"?>
<!--Generator: Apple Native CoreSVG 326-->
<!DOCTYPE svg PUBLIC "-//W3C//DTD SVG 1.1//EN" "http://www.w3.org/Graphics/SVG/1.1/DTD/svg11.dtd">
<svg version="1.1" xmlns="http://www.w3.org/2000/svg" xmlns:xlink="http://www.w3.org/1999/xlink"
       viewBox="0 0 28.3522 25.4196">
       <g>
              <rect height="25.4196" opacity="0" width="28.3522" x="0" y="0" />
              <path d="M26.9427 14.0814C27.648 13.7982 27.9909 13.2262 27.9909 12.6892C27.9909 12.1545 27.648 11.5894 26.9427 11.3321L22.3883 9.68404L24.1532 5.16347C24.236 4.96355 24.2848 4.7114 24.2848 4.50117C24.2848 3.78554 23.7208 3.17164 22.9306 3.17164C22.6905 3.17164 22.3959 3.21817 22.1512 3.35543L17.5737 5.88261L15.4917 1.09054C15.1805 0.322145 14.5115 0.07855 13.9992 0.07855C13.4794 0.07855 12.8127 0.322145 12.4992 1.09054L10.4195 5.88261L5.83966 3.35543C5.59498 3.21817 5.30783 3.17164 5.06029 3.17164C4.27007 3.17164 3.70609 3.78554 3.70609 4.50117C3.70609 4.7114 3.75491 4.96355 3.83995 5.16347L5.61008 9.68404L1.0482 11.3321C0.345194 11.5871 0 12.1568 0 12.6915C0 13.2262 0.345194 13.7982 1.0482 14.0814L5.54906 15.8884L3.65514 20.7227C3.56779 20.9347 3.51896 21.1892 3.51896 21.4017C3.51896 22.096 4.04728 22.6961 4.81676 22.6961C5.0666 22.6961 5.35836 22.6427 5.61512 22.4985L10.6394 19.566L12.532 24.3955C12.8346 25.1587 13.484 25.4196 13.9992 25.4196C14.5092 25.4196 15.1563 25.1587 15.4589 24.3955L17.3538 19.566L22.3758 22.4985C22.6325 22.6427 22.9243 22.6938 23.1741 22.6938C23.9413 22.6938 24.4742 22.0983 24.4742 21.404C24.4742 21.1915 24.4231 20.9347 24.3358 20.7227L22.4418 15.8884ZM23.7076 12.6938L23.7076 12.7249L19.9013 14.1439C19.4621 14.3041 19.2451 14.6101 19.2451 14.923C19.2451 15.0115 19.2744 15.1418 19.3134 15.2251L21.2551 19.1722L21.2287 19.1935L16.9465 16.6275C16.7989 16.5414 16.5767 16.4277 16.3643 16.4277C16.1185 16.4277 15.8498 16.5748 15.7562 16.8521L14.0136 21.9555L13.9848 21.9555L12.237 16.8521C12.1411 16.5748 11.8799 16.4277 11.6266 16.4277C11.4142 16.4277 11.192 16.5414 11.0444 16.6275L6.77201 19.2009L6.75072 19.1796L8.67746 15.2251C8.71883 15.1418 8.74582 15.0115 8.74582 14.923C8.74582 14.6101 8.52879 14.3041 8.09188 14.1439L4.28329 12.7249L4.28329 12.6938L8.1506 11.4354C8.59212 11.2873 8.81145 10.9813 8.81145 10.6684C8.81145 10.5753 8.78446 10.445 8.74309 10.3594L6.87167 6.62995L6.89811 6.61097L10.8009 8.79519C10.9462 8.88132 11.1586 8.99038 11.3785 8.99038C11.6219 8.99038 11.8883 8.85027 11.9866 8.5775L13.9773 3.42003L14.0061 3.42003L16.0043 8.5775C16.1025 8.85027 16.3689 8.99038 16.6124 8.99038C16.8323 8.99038 17.0447 8.88132 17.1923 8.79519L21.0853 6.60351L21.1118 6.62249L19.2478 10.3594C19.2064 10.445 19.1794 10.5753 19.1794 10.6684C19.1794 10.9813 19.3988 11.2873 19.8403 11.4354Z"
                     fill="currentColor" fill-opacity="0.85" />
       </g>
</svg>