<?xml version="1.0" encoding="UTF-8"?>
<!--Generator: Apple Native CoreSVG 326-->
<!DOCTYPE svg PUBLIC "-//W3C//DTD SVG 1.1//EN" "http://www.w3.org/Graphics/SVG/1.1/DTD/svg11.dtd">
<svg version="1.1" xmlns="http://www.w3.org/2000/svg" xmlns:xlink="http://www.w3.org/1999/xlink"
       viewBox="0 0 25.1558 26.254">
       <g>
              <rect height="26.254" opacity="0" width="25.1558" x="0" y="0" />
              <path d="M3.75297 25.3782L5.00977 25.3782C6.19729 25.3782 6.80846 24.767 6.80846 23.5893L6.80846 22.289C8.48093 22.4182 10.3204 22.4717 12.3973 22.4717C14.4741 22.4717 16.3136 22.4205 17.9809 22.289L17.9809 23.5893C17.9809 24.767 18.5972 25.3782 19.7847 25.3782L21.0415 25.3782C22.2291 25.3782 22.8402 24.767 22.8402 23.5893L22.8402 3.51696C22.8402 1.81701 21.9339 0.706401 20.1903 0.430779C18.237 0.134414 15.4964 0 12.3973 0C9.2654 0 6.55462 0.119492 4.60653 0.430779C2.8606 0.736244 1.94912 1.8394 1.94912 3.51696L1.94912 23.5893C1.94912 24.767 2.56545 25.3782 3.75297 25.3782ZM5.5123 15.19C4.85285 15.0527 4.53805 14.6392 4.53805 13.8637L4.53805 4.30403C4.53805 3.5004 4.87184 3.06556 5.5618 2.93521C8.5448 2.40853 16.0701 2.4533 19.2373 2.95013C19.9296 3.0581 20.2513 3.47802 20.2513 4.30403L20.2513 13.8637C20.2513 14.6541 19.9388 15.0676 19.2845 15.1825C16.0151 15.7111 8.57847 15.7931 5.5123 15.19ZM6.21476 19.8663C5.46226 19.8663 4.88039 19.2821 4.88039 18.5319C4.88039 17.7794 5.46226 17.1975 6.21476 17.1975C6.96726 17.1975 7.54914 17.7794 7.54914 18.5319C7.54914 19.2821 6.96726 19.8663 6.21476 19.8663ZM10.2982 19.5559C9.68593 19.5559 9.2523 19.1149 9.2523 18.5198C9.2523 17.915 9.68593 17.4837 10.2982 17.4837L14.494 17.4837C15.0965 17.4837 15.5376 17.915 15.5376 18.5198C15.5376 19.1149 15.0965 19.5559 14.494 19.5559ZM18.5797 19.8663C17.8295 19.8663 17.2477 19.2821 17.2477 18.5319C17.2477 17.7794 17.8295 17.1975 18.5797 17.1975C19.3322 17.1975 19.9164 17.7794 19.9164 18.5319C19.9164 19.2821 19.3322 19.8663 18.5797 19.8663ZM1.94912 11.7892L1.94912 4.26236L1.48729 4.26236C0.641984 4.26236 0 4.85036 0 5.66637L0 10.3875C0 11.2035 0.641984 11.7892 1.48729 11.7892ZM22.8402 11.7892L23.3072 11.7892C24.1525 11.7892 24.7945 11.2035 24.7945 10.3875L24.7945 5.66637C24.7945 4.85036 24.1525 4.26236 23.3072 4.26236L22.8402 4.26236Z"
                     fill="currentColor" fill-opacity="0.85" />
       </g>
</svg>