<?xml version="1.0" encoding="UTF-8"?>
<!--Generator: Apple Native CoreSVG 326-->
<!DOCTYPE svg PUBLIC "-//W3C//DTD SVG 1.1//EN" "http://www.w3.org/Graphics/SVG/1.1/DTD/svg11.dtd">
<svg version="1.1" xmlns="http://www.w3.org/2000/svg" xmlns:xlink="http://www.w3.org/1999/xlink"
       viewBox="0 0 27.0075 18.9522">
       <g>
              <rect height="18.9522" opacity="0" width="27.0075" x="0" y="0" />
              <path d="M26.6462 10.5174L26.6462 4.02127C26.6462 1.77852 25.2781 0.408052 23.033 0.408052L3.60861 0.410357C1.37562 0.410357 0 1.78313 0 4.02819L0 10.5174C0 13.3749 1.30781 15.2261 4.21366 16.0871L12.6035 18.5555C15.0781 19.2867 16.8017 18.9857 19.0097 17.8289L24.4085 14.9992C26.1477 14.0865 26.6462 12.8683 26.6462 10.5174ZM23.6266 10.5174C23.6266 11.6046 23.3904 12.1573 22.5917 12.5652L17.3865 15.26C15.8635 16.0499 14.8885 16.1884 12.9617 15.6053L5.12028 13.2546C3.53801 12.7847 3.01964 12.0261 3.01964 10.5174L3.01964 4.43052C3.01964 3.80243 3.40238 3.42254 4.01841 3.42254L22.6255 3.41278C23.2415 3.41278 23.6266 3.79782 23.6266 4.42361Z"
                     fill="currentColor" fill-opacity="0.85" />
       </g>
</svg>