<?xml version="1.0" encoding="UTF-8"?>
<!--Generator: Apple Native CoreSVG 326-->
<!DOCTYPE svg PUBLIC "-//W3C//DTD SVG 1.1//EN" "http://www.w3.org/Graphics/SVG/1.1/DTD/svg11.dtd">
<svg version="1.1" xmlns="http://www.w3.org/2000/svg" xmlns:xlink="http://www.w3.org/1999/xlink"
       viewBox="0 0 19.3993 19.0529">
       <g>
              <rect height="19.0529" opacity="0" width="19.3993" x="0" y="0" />
              <path d="M19.0379 3.63912L19.0379 15.4011C19.0379 17.7262 17.7164 19.0379 15.3896 19.0379L3.64834 19.0379C1.32382 19.0379 0 17.7262 0 15.4011L0 3.63912C0 1.32151 1.32382 0 3.64834 0L15.3896 0C17.7164 0 19.0379 1.32151 19.0379 3.63912ZM4.05025 9.53131C4.05025 12.5559 6.49178 14.9975 9.51639 14.9975C12.5462 14.9975 14.9877 12.5559 14.9877 9.53131C14.9877 6.509 12.5462 4.06748 9.51639 4.06748C6.49178 4.06748 4.05025 6.509 4.05025 9.53131ZM13.221 9.53131C13.221 11.5807 11.5635 13.2308 9.51639 13.2308C7.47447 13.2308 5.81692 11.5807 5.81692 9.53131C5.81692 7.48423 7.47447 5.83414 9.51639 5.83414C11.5635 5.83414 13.221 7.48423 13.221 9.53131ZM6.99613 9.53131C6.99613 10.9202 8.12755 12.059 9.51639 12.059C10.9104 12.059 12.0418 10.9202 12.0418 9.53131C12.0418 8.14478 10.9104 7.0059 9.51639 7.0059C8.12755 7.0059 6.99613 8.14478 6.99613 9.53131Z"
                     fill="currentColor" fill-opacity="0.85" />
       </g>
</svg>