<?xml version="1.0" encoding="UTF-8"?>
<!--Generator: Apple Native CoreSVG 326-->
<!DOCTYPE svg PUBLIC "-//W3C//DTD SVG 1.1//EN" "http://www.w3.org/Graphics/SVG/1.1/DTD/svg11.dtd">
<svg version="1.1" xmlns="http://www.w3.org/2000/svg" xmlns:xlink="http://www.w3.org/1999/xlink"
       viewBox="0 0 19.3993 19.0529">
       <g>
              <rect height="19.0529" opacity="0" width="19.3993" x="0" y="0" />
              <path d="M3.64834 19.0379L15.3896 19.0379C17.7164 19.0379 19.0379 17.7262 19.0379 15.4011L19.0379 3.63912C19.0379 1.32151 17.7164 0 15.3896 0L3.64834 0C1.32382 0 0 1.32151 0 3.63912L0 15.4011C0 17.7262 1.32382 19.0379 3.64834 19.0379ZM4.05583 16.0183C3.37024 16.0183 3.01964 15.7096 3.01964 14.9775L3.01964 4.07021C3.01964 3.33809 3.37024 3.0271 4.05583 3.0271L14.9821 3.0271C15.6654 3.0271 16.0183 3.33809 16.0183 4.07021L16.0183 14.9775C16.0183 15.7096 15.6654 16.0183 14.9821 16.0183Z"
                     fill="currentColor" fill-opacity="0.85" />
              <path d="M9.51639 14.665C12.3515 14.665 14.6478 12.3687 14.6478 9.53131C14.6478 6.69619 12.3515 4.39993 9.51639 4.39993C6.68642 4.39993 4.39017 6.69619 4.39017 9.53131C4.39017 12.3687 6.68642 14.665 9.51639 14.665ZM9.51639 13.0068C7.59505 13.0068 6.04086 11.4527 6.04086 9.53131C6.04086 7.61228 7.59505 6.05809 9.51639 6.05809C11.4429 6.05809 12.9971 7.61228 12.9971 9.53131C12.9971 11.4527 11.4429 13.0068 9.51639 13.0068ZM9.51639 11.9166C10.8317 11.9166 11.8994 10.8489 11.8994 9.53131C11.8994 8.22345 10.8317 7.15578 9.51639 7.15578C8.20622 7.15578 7.13855 8.22345 7.13855 9.53131C7.13855 10.8489 8.20622 11.9166 9.51639 11.9166Z"
                     fill="currentColor" fill-opacity="0.85" />
       </g>
</svg>