<?xml version="1.0" encoding="UTF-8"?>
<!--Generator: Apple Native CoreSVG 326-->
<!DOCTYPE svg PUBLIC "-//W3C//DTD SVG 1.1//EN" "http://www.w3.org/Graphics/SVG/1.1/DTD/svg11.dtd">
<svg version="1.1" xmlns="http://www.w3.org/2000/svg" xmlns:xlink="http://www.w3.org/1999/xlink"
       viewBox="0 0 27.0075 18.9522">
       <g>
              <rect height="18.9522" opacity="0" width="27.0075" x="0" y="0" />
              <path d="M0 10.5174C0 12.8683 0.498472 14.0865 2.23772 14.9992L7.63878 17.8289C9.84678 18.9857 11.5681 19.2867 14.0427 18.5555L22.4326 16.0871C25.3384 15.2261 26.6462 13.3749 26.6462 10.5174L26.6462 4.02819C26.6462 1.78313 25.2804 0.410357 23.0376 0.410357L3.61322 0.408052C1.37792 0.408052 0 1.77852 0 4.02127ZM3.01964 10.5174L3.01964 4.42361C3.01964 3.79782 3.40469 3.41278 4.02302 3.41278L22.6301 3.42254C23.2438 3.42254 23.6266 3.80243 23.6266 4.43052L23.6266 10.5174C23.6266 12.0261 23.1105 12.7847 21.5282 13.2546L13.6846 15.6053C11.7578 16.1884 10.785 16.0499 9.262 15.26L4.0545 12.5652C3.25578 12.1573 3.01964 11.6046 3.01964 10.5174Z"
                     fill="currentColor" fill-opacity="0.85" />
       </g>
</svg>