<?xml version="1.0" encoding="UTF-8"?>
<!--Generator: Apple Native CoreSVG 326-->
<!DOCTYPE svg PUBLIC "-//W3C//DTD SVG 1.1//EN" "http://www.w3.org/Graphics/SVG/1.1/DTD/svg11.dtd">
<svg version="1.1" xmlns="http://www.w3.org/2000/svg" xmlns:xlink="http://www.w3.org/1999/xlink"
       viewBox="0 0 28.3923 24.8916">
       <g>
              <rect height="24.8916" opacity="0" width="28.3923" x="0" y="0" />
              <path d="M1.13651 18.4417L1.13651 6.44301C1.13651 2.48866 3.68838 0 7.75245 0L11.8463 0L11.8463 0.000333647C15.4363 0.00359281 17.7562 2.54092 17.7562 6.44301L17.7562 7.77855L14.744 10.4082L14.744 6.44301C14.744 4.39278 13.5859 3.01218 11.8388 3.01218C10.0917 3.01218 8.94101 4.39278 8.94101 6.44301L8.94101 18.4417C8.94101 20.4994 10.0917 21.8777 11.8388 21.8777C13.5859 21.8777 14.744 20.4994 14.744 18.4417L14.744 14.4532L17.7562 17.1069L17.7562 18.4417C17.7562 22.3489 15.4363 24.8788 11.8463 24.8821L11.8463 24.8824L7.75245 24.8824C3.68838 24.8824 1.13651 22.4012 1.13651 18.4417ZM4.15616 6.44301L4.15616 18.4417C4.15616 20.157 5.08504 21.3565 6.61457 21.743C6.16795 20.8121 5.92883 19.6981 5.92883 18.4417L5.92883 6.44301C5.92883 5.19009 6.16724 4.07787 6.61247 3.14745C5.08422 3.5349 4.15616 4.73451 4.15616 6.44301Z"
                     fill="currentColor" fill-opacity="0.85" />
              <path d="M15.5326 13.1911L19.0213 16.2559C19.7847 16.9286 20.8255 16.5202 20.8255 15.4489L20.8255 13.8003L25.5697 13.8003C26.3949 13.8003 26.9314 13.1967 26.9314 12.4409C26.9314 11.6805 26.3949 11.0769 25.5697 11.0769L20.8255 11.0769L20.8255 9.39617C20.8255 8.39152 19.7767 7.95152 19.0213 8.61668L15.5326 11.6689C15.0467 12.1014 15.0443 12.7637 15.5326 13.1911Z"
                     fill="currentColor" fill-opacity="0.85" />
       </g>
</svg>