<?xml version="1.0" encoding="UTF-8"?>
<!--Generator: Apple Native CoreSVG 326-->
<!DOCTYPE svg PUBLIC "-//W3C//DTD SVG 1.1//EN" "http://www.w3.org/Graphics/SVG/1.1/DTD/svg11.dtd">
<svg version="1.1" xmlns="http://www.w3.org/2000/svg" xmlns:xlink="http://www.w3.org/1999/xlink"
       viewBox="0 0 21.365 21.006">
       <g>
              <rect height="21.006" opacity="0" width="21.365" x="0" y="0" />
              <path d="M10.4981 20.9962C16.302 20.9962 21.0037 16.2946 21.0037 10.4981C21.0037 4.70163 16.302 0 10.4981 0C4.70163 0 0 4.70163 0 10.4981C0 16.2946 4.70163 20.9962 10.4981 20.9962ZM10.4981 17.9484C6.37829 17.9484 3.04785 14.6179 3.04785 10.4981C3.04785 6.37829 6.37829 3.04785 10.4981 3.04785C14.6179 3.04785 17.9558 6.37829 17.9558 10.4981C17.9558 14.6179 14.6179 17.9484 10.4981 17.9484Z"
                     fill="currentColor" fill-opacity="0.85" />
              <path d="M10.4533 14.9961C12.2042 14.9961 13.626 14.2131 14.1395 12.9694C14.2377 12.7637 14.2796 12.5398 14.2796 12.3038C14.2796 11.625 13.8145 11.2219 13.0313 11.2219C12.4921 11.2219 12.1327 11.4355 11.857 11.9317C11.5909 12.456 11.1213 12.7297 10.4953 12.7297C9.517 12.7297 8.91226 11.8796 8.91226 10.4848C8.91226 9.09004 9.517 8.23764 10.5027 8.23764C11.1213 8.23764 11.5909 8.52624 11.8645 9.06778C12.155 9.59379 12.4623 9.77527 13.0313 9.77527C13.8145 9.77527 14.2796 9.37215 14.2796 8.69341C14.2796 8.45509 14.2377 8.23345 14.1395 8.02037C13.6237 6.77892 12.1893 5.97123 10.4533 5.97123C7.84944 5.97123 6.13136 7.7601 6.13136 10.4848C6.13136 13.217 7.84714 14.9961 10.4533 14.9961Z"
                     fill="currentColor" fill-opacity="0.85" />
       </g>
</svg>