<?xml version="1.0" encoding="UTF-8"?>
<!--Generator: Apple Native CoreSVG 326-->
<!DOCTYPE svg PUBLIC "-//W3C//DTD SVG 1.1//EN" "http://www.w3.org/Graphics/SVG/1.1/DTD/svg11.dtd">
<svg version="1.1" xmlns="http://www.w3.org/2000/svg" xmlns:xlink="http://www.w3.org/1999/xlink"
       viewBox="0 0 18.1852 25.0811">
       <g>
              <rect height="25.0811" opacity="0" width="18.1852" x="0" y="0" />
              <path d="M2.9124 21.7875L8.09376 21.7875L8.09376 0L2.9124 0C1.19171 0 0 1.22616 0 2.97561L0 18.8119C0 20.5613 1.19171 21.7875 2.9124 21.7875ZM5.23347 12.8598C4.48054 12.8598 3.89988 12.2516 3.89988 11.5435C3.89988 10.8181 4.48054 10.2099 5.23347 10.2099C5.95655 10.2099 6.55959 10.8031 6.55959 11.5435C6.55959 12.2665 5.95655 12.8598 5.23347 12.8598ZM14.8965 21.7875C16.6172 21.7875 17.8238 20.5613 17.8238 18.8119L17.8238 2.97561C17.8238 1.22616 16.6172 0 14.8965 0L9.73008 0L9.73008 21.7875ZM12.5881 12.8598C11.8352 12.8598 11.2545 12.2516 11.2545 11.5435C11.2545 10.8181 11.8352 10.2099 12.5881 10.2099C13.3112 10.2099 13.9142 10.8031 13.9142 11.5435C13.9142 12.2665 13.3112 12.8598 12.5881 12.8598ZM3.77154 24.2059C4.55078 24.2059 5.15656 23.5978 5.15656 22.8186L5.15656 20.2364L2.38651 20.2364L2.38651 22.8186C2.38651 23.5978 2.99229 24.2059 3.77154 24.2059ZM14.015 24.2059C14.7943 24.2059 15.4 23.5978 15.4 22.8186L15.4 20.2364L12.63 20.2364L12.63 22.8186C12.63 23.5978 13.2358 24.2059 14.015 24.2059Z"
                     fill="currentColor" fill-opacity="0.85" />
       </g>
</svg>