<?xml version="1.0" encoding="UTF-8"?>
<!--Generator: Apple Native CoreSVG 326-->
<!DOCTYPE svg PUBLIC "-//W3C//DTD SVG 1.1//EN" "http://www.w3.org/Graphics/SVG/1.1/DTD/svg11.dtd">
<svg version="1.1" xmlns="http://www.w3.org/2000/svg" xmlns:xlink="http://www.w3.org/1999/xlink"
       viewBox="0 0 18.1852 24.9591">
       <g>
              <rect height="24.9591" opacity="0" width="18.1852" x="0" y="0" />
              <path d="M2.9124 22.5383L14.8965 22.5383C16.6172 22.5383 17.8238 21.3122 17.8238 19.5553L17.8238 2.97561C17.8238 1.22616 16.6172 0 14.8965 0L2.9124 0C1.19171 0 0 1.22616 0 2.97561L0 19.5553C0 21.3122 1.19171 22.5383 2.9124 22.5383ZM3.26657 19.7798C2.97172 19.7798 2.76598 19.5741 2.76598 19.2769L2.76598 3.26142C2.76598 2.96426 2.97172 2.75852 3.26657 2.75852L14.6319 2.75852C14.8894 2.75852 15.0504 2.92696 15.0504 3.17189L15.0504 19.3665C15.0504 19.6114 14.8894 19.7798 14.6319 19.7798ZM7.92908 21.5567L9.8873 21.5567L9.8873 0.967222L7.92908 0.967222ZM5.83311 12.7988C6.55619 12.7988 7.15924 12.2055 7.15924 11.4824C7.15924 10.7421 6.55619 10.1489 5.83311 10.1489C5.08019 10.1489 4.49953 10.757 4.49953 11.4824C4.49953 12.1906 5.08019 12.7988 5.83311 12.7988ZM11.9959 12.7988C12.7115 12.7988 13.322 12.2055 13.322 11.4824C13.322 10.7421 12.7115 10.1489 11.9959 10.1489C11.2355 10.1489 10.6548 10.757 10.6548 11.4824C10.6548 12.1906 11.2355 12.7988 11.9959 12.7988ZM3.77154 24.9568C4.55078 24.9568 5.15656 24.3487 5.15656 23.5694L5.15656 20.9798L2.38651 20.9798L2.38651 23.5694C2.38651 24.3487 2.99229 24.9568 3.77154 24.9568ZM14.015 24.9568C14.7943 24.9568 15.4 24.3487 15.4 23.5694L15.4 20.9798L12.63 20.9798L12.63 23.5694C12.63 24.3487 13.2358 24.9568 14.015 24.9568Z"
                     fill="currentColor" fill-opacity="0.85" />
       </g>
</svg>