<?xml version="1.0" encoding="UTF-8"?>
<!--Generator: Apple Native CoreSVG 326-->
<!DOCTYPE svg PUBLIC "-//W3C//DTD SVG 1.1//EN" "http://www.w3.org/Graphics/SVG/1.1/DTD/svg11.dtd">
<svg version="1.1" xmlns="http://www.w3.org/2000/svg" xmlns:xlink="http://www.w3.org/1999/xlink"
       viewBox="0 0 21.365 21.006">
       <g>
              <rect height="21.006" opacity="0" width="21.365" x="0" y="0" />
              <path d="M10.4981 20.9962C16.302 20.9962 21.0037 16.2946 21.0037 10.4981C21.0037 4.70163 16.302 0 10.4981 0C4.70163 0 0 4.70163 0 10.4981C0 16.2946 4.70163 20.9962 10.4981 20.9962ZM10.4981 17.9484C6.37829 17.9484 3.04785 14.6179 3.04785 10.4981C3.04785 6.37829 6.37829 3.04785 10.4981 3.04785C14.6179 3.04785 17.9558 6.37829 17.9558 10.4981C17.9558 14.6179 14.6179 17.9484 10.4981 17.9484Z"
                     fill="currentColor" fill-opacity="0.85" />
              <path d="M7.2424 15.0015L13.7492 15.0015C14.843 15.0015 15.4719 14.3875 15.4719 13.2984L15.4719 7.71278C15.4719 6.62364 14.843 6.00962 13.7492 6.00962L7.2424 6.00962C6.15611 6.00962 5.52716 6.62134 5.52716 7.71278L5.52716 13.2984C5.52716 14.3875 6.15611 15.0015 7.2424 15.0015ZM7.40532 13.5958C7.0927 13.5958 6.94785 13.463 6.94785 13.1285L6.94785 9.11224C6.94785 8.78294 7.09731 8.64325 7.41684 8.64325L13.5748 8.64325C13.892 8.64325 14.0512 8.78294 14.0512 9.11224L14.0512 13.1285C14.0512 13.463 13.9012 13.5958 13.584 13.5958ZM9.61271 10.1487L9.9442 10.1487C10.139 10.1487 10.2171 10.0752 10.2171 9.88045L10.2171 9.54896C10.2171 9.33181 10.139 9.27607 9.9442 9.27607L9.61271 9.27607C9.39556 9.27607 9.34213 9.33181 9.34213 9.54896L9.34213 9.88045C9.34213 10.0752 9.39556 10.1487 9.61271 10.1487ZM11.0549 10.1487L11.3789 10.1487C11.596 10.1487 11.6569 10.0752 11.6569 9.88045L11.6569 9.54896C11.6569 9.33181 11.596 9.27607 11.3789 9.27607L11.0549 9.27607C10.8526 9.27607 10.7768 9.33181 10.7768 9.54896L10.7768 9.88045C10.7768 10.0752 10.8526 10.1487 11.0549 10.1487ZM12.5022 10.1487L12.8164 10.1487C13.0261 10.1487 13.0968 10.0752 13.0968 9.88045L13.0968 9.54896C13.0968 9.33181 13.0261 9.27607 12.8164 9.27607L12.5022 9.27607C12.2902 9.27607 12.2144 9.33181 12.2144 9.54896L12.2144 9.88045C12.2144 10.0752 12.2902 10.1487 12.5022 10.1487ZM8.18263 11.5593L8.49919 11.5593C8.70888 11.5593 8.77724 11.4858 8.77724 11.291L8.77724 10.967C8.77724 10.7573 8.70888 10.6941 8.49919 10.6941L8.18263 10.6941C7.97294 10.6941 7.89481 10.7573 7.89481 10.967L7.89481 11.291C7.89481 11.4858 7.97294 11.5593 8.18263 11.5593ZM9.61271 11.5593L9.9442 11.5593C10.139 11.5593 10.2171 11.4858 10.2171 11.291L10.2171 10.967C10.2171 10.7573 10.139 10.6941 9.9442 10.6941L9.61271 10.6941C9.39556 10.6941 9.34213 10.7573 9.34213 10.967L9.34213 11.291C9.34213 11.4858 9.39556 11.5593 9.61271 11.5593ZM11.0549 11.5593L11.3789 11.5593C11.596 11.5593 11.6569 11.4858 11.6569 11.291L11.6569 10.967C11.6569 10.7573 11.596 10.6941 11.3789 10.6941L11.0549 10.6941C10.8526 10.6941 10.7768 10.7573 10.7768 10.967L10.7768 11.291C10.7768 11.4858 10.8526 11.5593 11.0549 11.5593ZM12.5022 11.5593L12.8164 11.5593C13.0261 11.5593 13.0968 11.4858 13.0968 11.291L13.0968 10.967C13.0968 10.7573 13.0261 10.6941 12.8164 10.6941L12.5022 10.6941C12.2902 10.6941 12.2144 10.7573 12.2144 10.967L12.2144 11.291C12.2144 11.4858 12.2902 11.5593 12.5022 11.5593ZM8.18263 12.9796L8.49919 12.9796C8.70888 12.9796 8.77724 12.9187 8.77724 12.709L8.77724 12.3678C8.77724 12.1828 8.70888 12.0995 8.49919 12.0995L8.18263 12.0995C7.97294 12.0995 7.89481 12.1828 7.89481 12.3678L7.89481 12.709C7.89481 12.9187 7.97294 12.9796 8.18263 12.9796ZM9.61271 12.9796L9.9442 12.9796C10.139 12.9796 10.2171 12.9187 10.2171 12.709L10.2171 12.3678C10.2171 12.1828 10.139 12.0995 9.9442 12.0995L9.61271 12.0995C9.39556 12.0995 9.34213 12.1828 9.34213 12.3678L9.34213 12.709C9.34213 12.9187 9.39556 12.9796 9.61271 12.9796ZM11.0549 12.9796L11.3789 12.9796C11.596 12.9796 11.6569 12.9187 11.6569 12.709L11.6569 12.3678C11.6569 12.1828 11.596 12.0995 11.3789 12.0995L11.0549 12.0995C10.8526 12.0995 10.7768 12.1828 10.7768 12.3678L10.7768 12.709C10.7768 12.9187 10.8526 12.9796 11.0549 12.9796Z"
                     fill="currentColor" fill-opacity="0.85" />
       </g>
</svg>