<?xml version="1.0" encoding="UTF-8"?>
<!--Generator: Apple Native CoreSVG 326-->
<!DOCTYPE svg PUBLIC "-//W3C//DTD SVG 1.1//EN" "http://www.w3.org/Graphics/SVG/1.1/DTD/svg11.dtd">
<svg version="1.1" xmlns="http://www.w3.org/2000/svg" xmlns:xlink="http://www.w3.org/1999/xlink"
       viewBox="0 0 32.4733 19.3328">
       <g>
              <rect height="19.3328" opacity="0" width="32.4733" x="0" y="0" />
              <path d="M28.8638 15.556C28.8638 17.8759 27.54 19.1952 25.2155 19.1952L11.4727 19.1952C9.14075 19.1952 7.81923 17.8736 7.81923 15.556L7.81923 12.2076L10.8389 12.2076L10.8389 15.1814C10.8389 15.8807 11.1779 16.1755 11.8307 16.1755L24.8621 16.1755C25.5149 16.1755 25.8442 15.8807 25.8442 15.1814L25.8442 12.2076L28.8638 12.2076ZM28.8638 3.79634L28.8638 7.12011L25.8442 7.12011L25.8442 4.16356C25.8442 3.46425 25.5149 3.17686 24.8621 3.17686L11.8307 3.17686C11.1779 3.17686 10.8389 3.46425 10.8389 4.16356L10.8389 7.12011L7.81923 7.12011L7.81923 3.79634C7.81923 1.47127 9.14075 0.157221 11.4727 0.157221L25.2155 0.157221C27.54 0.157221 28.8638 1.46897 28.8638 3.79634Z"
                     fill="currentColor" fill-opacity="0.85" />
              <path d="M6.19814 17.9457C6.19814 18.7045 5.59619 19.3162 4.82998 19.3162C4.07124 19.3162 3.46698 18.7045 3.46698 17.9457C3.46698 17.187 4.07124 16.5775 4.82998 16.5775C5.59619 16.5775 6.19814 17.187 6.19814 17.9457Z"
                     fill="currentColor" fill-opacity="0.85" />
              <path d="M6.19814 13.8174C6.19814 14.5761 5.59619 15.1781 4.82998 15.1781C4.07124 15.1781 3.46698 14.5761 3.46698 13.8174C3.46698 13.0563 4.07124 12.4469 4.82998 12.4469C5.59619 12.4469 6.19814 13.0563 6.19814 13.8174Z"
                     fill="currentColor" fill-opacity="0.85" />
              <path d="M6.19814 5.49878C6.19814 6.25752 5.59619 6.86924 4.82998 6.86924C4.07124 6.86924 3.46698 6.25752 3.46698 5.49878C3.46698 4.74003 4.07124 4.13062 4.82998 4.13062C5.59619 4.13062 6.19814 4.74003 6.19814 5.49878Z"
                     fill="currentColor" fill-opacity="0.85" />
              <path d="M6.19814 1.3607C6.19814 2.12921 5.59619 2.73116 4.82998 2.73116C4.07124 2.73116 3.46698 2.12921 3.46698 1.3607C3.46698 0.601951 4.07124 0 4.82998 0C5.59619 0 6.19814 0.601951 6.19814 1.3607Z"
                     fill="currentColor" fill-opacity="0.85" />
              <path d="M4.80014 11.1986C5.3435 11.1986 5.83057 10.9171 6.09994 10.4915L28.8563 10.4915C29.3416 10.4915 29.684 10.1492 29.684 9.66385C29.684 9.17854 29.3416 8.8385 28.8563 8.8385L6.10455 8.8385C5.83517 8.40827 5.3435 8.11706 4.80014 8.11706C3.94835 8.11706 3.25335 8.80975 3.25335 9.66154C3.25335 10.5133 3.94835 11.1986 4.80014 11.1986Z"
                     fill="currentColor" fill-opacity="0.85" />
       </g>
</svg>