<?xml version="1.0" encoding="UTF-8"?>
<!--Generator: Apple Native CoreSVG 326-->
<!DOCTYPE svg PUBLIC "-//W3C//DTD SVG 1.1//EN" "http://www.w3.org/Graphics/SVG/1.1/DTD/svg11.dtd">
<svg version="1.1" xmlns="http://www.w3.org/2000/svg" xmlns:xlink="http://www.w3.org/1999/xlink"
       viewBox="0 0 21.365 21.006">
       <g>
              <rect height="21.006" opacity="0" width="21.365" x="0" y="0" />
              <path d="M21.0037 10.4981C21.0037 16.2923 16.302 20.9962 10.4981 20.9962C4.70394 20.9962 0 16.2923 0 10.4981C0 4.70163 4.70394 0 10.4981 0C16.302 0 21.0037 4.70163 21.0037 10.4981ZM10.0984 5.80357L9.30373 6.83151L8.36029 5.87369C8.06568 5.56932 7.61889 5.63822 7.43401 6.01896C7.14795 6.59228 7.056 7.18338 7.056 7.76701C7.056 9.55697 8.20549 10.957 9.92436 11.2269L9.92436 16.1267C9.92436 16.453 10.2017 16.7234 10.548 16.7234C13.2313 16.7234 15.7192 15.0805 16.5395 12.7517C16.7015 12.3026 16.485 11.966 16.0066 11.966C13.894 11.966 12.1527 12.9751 11.174 14.516L11.174 11.2269C12.8929 10.9547 14.0475 9.55697 14.0475 7.76701C14.0475 7.17592 13.9676 6.58482 13.6764 6.01896C13.4846 5.64569 13.0304 5.56932 12.7358 5.87369L11.8096 6.83151L11.0023 5.80357C10.7714 5.48944 10.3465 5.48944 10.0984 5.80357ZM4.54908 12.7517C5.21491 14.6705 7.02804 16.1342 9.19097 16.5661C9.1496 16.4334 9.10769 16.2715 9.10769 16.1267L9.10769 13.5734C8.11105 12.5707 6.71323 11.966 5.08201 11.966C4.60131 11.966 4.38713 12.3026 4.54908 12.7517Z"
                     fill="currentColor" fill-opacity="0.85" />
       </g>
</svg>