<?xml version="1.0" encoding="UTF-8"?>
<!--Generator: Apple Native CoreSVG 326-->
<!DOCTYPE svg PUBLIC "-//W3C//DTD SVG 1.1//EN" "http://www.w3.org/Graphics/SVG/1.1/DTD/svg11.dtd">
<svg version="1.1" xmlns="http://www.w3.org/2000/svg" xmlns:xlink="http://www.w3.org/1999/xlink"
       viewBox="0 0 21.365 21.006">
       <g>
              <rect height="21.006" opacity="0" width="21.365" x="0" y="0" />
              <path d="M6.21227 18.4702L10.6116 15.9249C11.4741 15.4296 12.3072 14.9297 13.149 14.4159L13.149 18.2153L15.2134 18.2153L15.2134 10.6772C15.2134 10.4799 15.1996 10.29 15.1742 10.1042L18.523 12.0349L19.5578 10.2162L15.0935 7.63478C14.304 7.18544 13.5197 6.74302 12.7233 6.30696L12.5578 6.22137L15.8308 4.33722L14.7914 2.51856L10.3875 5.05866C9.5543 5.5396 8.69414 6.05159 7.87941 6.55559L7.87941 2.76598L5.80521 2.76598L5.79029 10.2967C5.79029 10.494 5.80412 10.689 5.82947 10.8771L2.4755 8.93894L1.4384 10.7478L5.90784 13.3293C6.58707 13.7223 7.27321 14.1033 7.95935 14.4831L8.44587 14.7525L5.17518 16.6515ZM10.4981 13.1317C9.0454 13.1317 7.86449 11.9508 7.86449 10.4981C7.86449 9.04309 9.0454 7.86449 10.4981 7.86449C11.9508 7.86449 13.1317 9.04309 13.1317 10.4981C13.1317 11.9508 11.9508 13.1317 10.4981 13.1317ZM10.4981 20.9962C16.302 20.9962 21.0037 16.2946 21.0037 10.4981C21.0037 4.70163 16.302 0 10.4981 0C4.70163 0 0 4.70163 0 10.4981C0 16.2946 4.70163 20.9962 10.4981 20.9962ZM10.4981 17.9484C6.37829 17.9484 3.04785 14.6179 3.04785 10.4981C3.04785 6.37829 6.37829 3.04785 10.4981 3.04785C14.6179 3.04785 17.9558 6.37829 17.9558 10.4981C17.9558 14.6179 14.6179 17.9484 10.4981 17.9484Z"
                     fill="currentColor" fill-opacity="0.85" />
       </g>
</svg>