<?xml version="1.0" encoding="UTF-8"?>
<!--Generator: Apple Native CoreSVG 326-->
<!DOCTYPE svg PUBLIC "-//W3C//DTD SVG 1.1//EN" "http://www.w3.org/Graphics/SVG/1.1/DTD/svg11.dtd">
<svg version="1.1" xmlns="http://www.w3.org/2000/svg" xmlns:xlink="http://www.w3.org/1999/xlink"
       viewBox="0 0 21.365 21.006">
       <g>
              <rect height="21.006" opacity="0" width="21.365" x="0" y="0" />
              <path d="M21.0037 10.5079C21.0037 16.3043 16.302 21.006 10.4981 21.006C4.70394 21.006 0 16.3043 0 10.5079C0 4.7137 4.70394 0.00976562 10.4981 0.00976562C16.302 0.00976562 21.0037 4.7137 21.0037 10.5079ZM9.42565 5.42854C8.9603 5.42854 8.68916 5.51534 8.40541 5.78362L8.03026 6.13069C7.76088 6.37253 7.62131 6.4105 7.25307 6.4105L6.33419 6.4105C5.20259 6.4105 4.53865 7.06237 4.53865 8.20143L4.53865 13.27C4.53865 14.397 5.20259 15.0437 6.33419 15.0437L14.6769 15.0437C15.8212 15.0437 16.465 14.397 16.465 13.27L16.465 8.20143C16.465 7.06237 15.8212 6.4105 14.6769 6.4105L13.7586 6.4105C13.3829 6.4105 13.2387 6.37714 12.9619 6.13069L12.5965 5.78362C12.3151 5.53026 12.0439 5.42854 11.5763 5.42854ZM13.2471 10.6969C13.2471 12.2366 12.036 13.4609 10.5004 13.4609C8.97971 13.4609 7.75888 12.2297 7.75888 10.6969C7.75888 9.17623 8.97971 7.95541 10.5004 7.95541C12.036 7.95541 13.2471 9.17623 13.2471 10.6969ZM9.14797 10.6969C9.14797 11.4556 9.75665 12.062 10.4981 12.062C11.2545 12.062 11.8632 11.4556 11.8632 10.6969C11.8632 9.93825 11.2545 9.33188 10.4981 9.33188C9.75665 9.33188 9.14797 9.93825 9.14797 10.6969ZM15.2512 8.6976C15.2512 9.10599 14.9164 9.44087 14.5154 9.44087C14.107 9.44087 13.7796 9.10599 13.7796 8.6976C13.7796 8.29435 14.107 7.96693 14.5154 7.96693C14.9164 7.96693 15.2512 8.29435 15.2512 8.6976Z"
                     fill="currentColor" fill-opacity="0.85" />
       </g>
</svg>