<?xml version="1.0" encoding="UTF-8"?>
<!--Generator: Apple Native CoreSVG 326-->
<!DOCTYPE svg PUBLIC "-//W3C//DTD SVG 1.1//EN" "http://www.w3.org/Graphics/SVG/1.1/DTD/svg11.dtd">
<svg version="1.1" xmlns="http://www.w3.org/2000/svg" xmlns:xlink="http://www.w3.org/1999/xlink"
       viewBox="0 0 21.365 21.006">
       <g>
              <rect height="21.006" opacity="0" width="21.365" x="0" y="0" />
              <path d="M10.4981 20.9962C16.302 20.9962 21.0037 16.2946 21.0037 10.4981C21.0037 4.70163 16.302 0 10.4981 0C4.70163 0 0 4.70163 0 10.4981C0 16.2946 4.70163 20.9962 10.4981 20.9962ZM10.4981 17.9484C6.37829 17.9484 3.04785 14.6179 3.04785 10.4981C3.04785 6.37829 6.37829 3.04785 10.4981 3.04785C14.6179 3.04785 17.9558 6.37829 17.9558 10.4981C17.9558 14.6179 14.6179 17.9484 10.4981 17.9484Z"
                     fill="currentColor" fill-opacity="0.85" />
              <path d="M6.58798 14.7331L14.4186 14.7331C15.4887 14.7331 16.0907 14.1283 16.0907 13.0679L16.0907 8.31225C16.0907 7.24955 15.4887 6.64475 14.4186 6.64475L13.5467 6.64475C13.1957 6.64475 13.0613 6.61139 12.8069 6.37471L12.461 6.05232C12.1945 5.81103 11.948 5.71677 11.5074 5.71677L9.48994 5.71677C9.05158 5.71677 8.79768 5.80357 8.53631 6.05232L8.18814 6.37471C7.92623 6.60909 7.79643 6.64475 7.45803 6.64475L6.58798 6.64475C5.52298 6.64475 4.90841 7.24955 4.90841 8.31225L4.90841 13.0679C4.90841 14.1283 5.52298 14.7331 6.58798 14.7331ZM10.4981 13.249C9.07099 13.249 7.91907 12.0994 7.91907 10.6625C7.91907 9.22791 9.07099 8.0783 10.4981 8.0783C11.9401 8.0783 13.0748 9.22791 13.0748 10.6625C13.0748 12.1063 11.9401 13.249 10.4981 13.249ZM10.4958 11.954C11.2154 11.954 11.7874 11.377 11.7874 10.6625C11.7874 9.94286 11.2154 9.37324 10.4958 9.37324C9.7911 9.37324 9.21172 9.94286 9.21172 10.6625C9.21172 11.377 9.7911 11.954 10.4958 11.954ZM14.2668 9.47763C13.8831 9.47763 13.5729 9.16744 13.5729 8.78373C13.5729 8.40748 13.8831 8.08982 14.2668 8.08982C14.643 8.08982 14.9532 8.40748 14.9532 8.78373C14.9532 9.16744 14.643 9.47763 14.2668 9.47763Z"
                     fill="currentColor" fill-opacity="0.85" />
       </g>
</svg>