<?xml version="1.0" encoding="UTF-8"?>
<!--Generator: Apple Native CoreSVG 326-->
<!DOCTYPE svg PUBLIC "-//W3C//DTD SVG 1.1//EN" "http://www.w3.org/Graphics/SVG/1.1/DTD/svg11.dtd">
<svg version="1.1" xmlns="http://www.w3.org/2000/svg" xmlns:xlink="http://www.w3.org/1999/xlink"
       viewBox="0 0 24.9948 27.7532">
       <g>
              <rect height="27.7532" opacity="0" width="24.9948" x="0" y="0" />
              <path d="M20.3761 12.0338C19.5852 12.0412 18.9488 11.4048 18.9488 10.6214C18.9488 9.85058 19.6002 9.20902 20.3761 9.20902C21.1469 9.20902 21.7908 9.85058 21.7908 10.6214C21.7908 11.4048 21.1544 12.0263 20.3761 12.0338ZM3.64834 23.4053L20.9777 23.4053C23.3073 23.4053 24.6335 22.0838 24.6335 19.7662L24.6335 9.44461C24.6335 7.127 23.3073 5.80779 20.9777 5.80779L18.9382 5.80779C18.1891 5.80779 17.8951 5.72615 17.3288 5.21549L16.5848 4.51564C16.0145 3.99345 15.4567 3.79001 14.5031 3.79001L10.1142 3.79001C9.16058 3.79001 8.60285 3.99345 8.0325 4.51564L7.28109 5.21549C6.71481 5.72384 6.4259 5.80779 5.67164 5.80779L3.64834 5.80779C1.32382 5.80779 0 7.127 0 9.44461L0 19.7662C0 22.0838 1.32382 23.4053 3.64834 23.4053ZM12.313 19.8082C9.49577 19.8082 7.21971 17.5345 7.21971 14.6977C7.21971 11.8633 9.49577 9.59698 12.313 9.59698C15.1452 9.59698 17.4114 11.8633 17.4114 14.6977C17.4114 17.5345 15.1428 19.8082 12.313 19.8082ZM12.313 17.2197C13.7108 17.2197 14.8252 16.0926 14.8252 14.6977C14.8252 13.2977 13.7108 12.1832 12.313 12.1832C10.9302 12.1832 9.80597 13.2977 9.80597 14.6977C9.80597 16.0926 10.9325 17.2197 12.313 17.2197Z"
                     fill="currentColor" fill-opacity="0.85" />
              <path d="M1.12208 1.83767L3.95575 4.19865C4.22105 4.41974 4.48121 4.54439 4.73105 4.54439C4.97574 4.54439 5.23589 4.41974 5.5012 4.19865L8.33487 1.83767C9.36924 0.982481 8.0914-0.737544 6.86469 0.34905L4.73105 2.25753L2.59226 0.34905C1.36324-0.737544 0.0877076 0.982481 1.12208 1.83767Z"
                     fill="currentColor" fill-opacity="0.85" />
       </g>
</svg>