<?xml version="1.0" encoding="UTF-8"?>
<!--Generator: Apple Native CoreSVG 326-->
<!DOCTYPE svg PUBLIC "-//W3C//DTD SVG 1.1//EN" "http://www.w3.org/Graphics/SVG/1.1/DTD/svg11.dtd">
<svg version="1.1" xmlns="http://www.w3.org/2000/svg" xmlns:xlink="http://www.w3.org/1999/xlink"
       viewBox="0 0 25.0294 22.9274">
       <g>
              <rect height="22.9274" opacity="0" width="25.0294" x="0" y="0" />
              <path d="M5.98726 1.13014C5.39683 2.30081 5.22445 3.52369 5.22445 4.70236C5.22445 8.7816 8.16924 11.8731 12.3561 11.8731C16.543 11.8731 19.4804 8.7816 19.4804 4.70236C19.4804 3.50131 19.3155 2.29335 18.7273 1.13014C18.3409 0.370427 17.4038 0.205078 16.7939 0.82468L14.9049 2.76028L13.2933 0.683898C12.7966 0.0396085 11.9083 0.0396085 11.4139 0.683898L9.80228 2.76028L7.9109 0.82468C7.30107 0.205078 6.38631 0.362966 5.98726 1.13014ZM11.0676 21.7101C11.0676 22.4107 11.6332 22.9274 12.3561 22.9274C17.8377 22.9274 22.8942 19.5809 24.5594 14.8553C24.8936 13.9238 24.4451 13.252 23.4597 13.252C18.3576 13.252 14.3013 16.0922 12.6023 20.3827L13.6396 20.491L13.6396 10.0363L11.0676 10.0363ZM9.34918 16.4203C7.29688 14.4255 4.4768 13.252 1.20835 13.252C0.230389 13.252-0.225502 13.9238 0.108713 14.8553C1.45461 18.7189 5.10234 21.7123 9.49445 22.6174C9.40086 22.3394 9.34918 22.0248 9.34918 21.7101Z"
                     fill="currentColor" fill-opacity="0.85" />
       </g>
</svg>