<?xml version="1.0" encoding="UTF-8"?>
<!--Generator: Apple Native CoreSVG 326-->
<!DOCTYPE svg PUBLIC "-//W3C//DTD SVG 1.1//EN" "http://www.w3.org/Graphics/SVG/1.1/DTD/svg11.dtd">
<svg version="1.1" xmlns="http://www.w3.org/2000/svg" xmlns:xlink="http://www.w3.org/1999/xlink"
       viewBox="0 0 23.8214 19.0529">
       <g>
              <rect height="19.0529" opacity="0" width="23.8214" x="0" y="0" />
              <path d="M3.64834 19.0529L10.8743 19.0529L10.8743 16.0332L4.05583 16.0332C3.37024 16.0332 3.01964 15.7171 3.01964 14.985L3.01964 10.3894L0 10.3894L0 15.416C0 17.7336 1.32382 19.0529 3.64834 19.0529ZM12.5927 19.0529L19.8117 19.0529C22.1386 19.0529 23.4601 17.7336 23.4601 15.416L23.4601 10.3894L20.4404 10.3894L20.4404 14.985C20.4404 15.7171 20.0875 16.0332 19.4042 16.0332L12.5927 16.0332ZM20.4404 8.67327L23.4601 8.67327L23.4601 3.65404C23.4601 1.32897 22.1386 0.0149214 19.8117 0.0149214L12.5927 0.0149214L12.5927 3.03457L19.4042 3.03457C20.0875 3.03457 20.4404 3.34555 20.4404 4.07767ZM0 8.67327L3.01964 8.67327L3.01964 4.07767C3.01964 3.34555 3.37024 3.03457 4.05583 3.03457L10.8743 3.03457L10.8743 0.0149214L3.64834 0.0149214C1.32382 0.0149214 0 1.32897 0 3.65404Z"
                     fill="currentColor" fill-opacity="0.85" />
              <path d="M11.4722 11.2371C12.147 11.2371 12.6437 10.9097 12.7481 10.4692C12.7556 10.4376 12.7631 10.3887 12.7705 10.3594C12.8824 9.98417 13.3143 9.67737 13.8039 9.36991C14.8258 8.72998 15.2758 8.19342 15.2758 7.1633C15.2758 5.53475 13.7559 4.43202 11.7898 4.43202C10.1325 4.43202 8.89473 5.09851 8.48184 6.06409C8.39571 6.25764 8.35149 6.4512 8.35149 6.66198C8.35149 7.23572 8.79028 7.70884 9.42589 7.70884C9.84745 7.70884 10.1966 7.56751 10.4321 7.25107L10.5183 7.14353C10.8079 6.7338 11.1217 6.58828 11.5 6.58828C11.9783 6.58828 12.353 6.93196 12.353 7.33095C12.353 7.81596 11.9429 8.0487 11.2029 8.55487C10.5244 9.02823 10.0717 9.47866 10.0717 10.1373C10.0717 10.1539 10.0717 10.1655 10.0717 10.1822C10.0717 10.8765 10.5713 11.2371 11.4722 11.2371ZM11.475 14.483C12.2876 14.483 12.8953 14.004 12.8953 13.2287C12.8953 12.4608 12.2974 11.9743 11.475 11.9743C10.6527 11.9743 10.0324 12.4557 10.0324 13.2287C10.0324 14.0017 10.655 14.483 11.475 14.483Z"
                     fill="currentColor" fill-opacity="0.85" />
       </g>
</svg>