<?xml version="1.0" encoding="UTF-8"?>
<!--Generator: Apple Native CoreSVG 326-->
<!DOCTYPE svg PUBLIC "-//W3C//DTD SVG 1.1//EN" "http://www.w3.org/Graphics/SVG/1.1/DTD/svg11.dtd">
<svg version="1.1" xmlns="http://www.w3.org/2000/svg" xmlns:xlink="http://www.w3.org/1999/xlink"
       viewBox="0 0 23.8214 19.0529">
       <g>
              <rect height="19.0529" opacity="0" width="23.8214" x="0" y="0" />
              <path d="M3.64834 19.0529L10.8743 19.0529L10.8743 16.0332L4.05583 16.0332C3.37024 16.0332 3.01964 15.7171 3.01964 14.985L3.01964 10.3894L0 10.3894L0 15.416C0 17.7336 1.32382 19.0529 3.64834 19.0529ZM12.5927 19.0529L19.8117 19.0529C22.1386 19.0529 23.4601 17.7336 23.4601 15.416L23.4601 10.3894L20.4404 10.3894L20.4404 14.985C20.4404 15.7171 20.0875 16.0332 19.4042 16.0332L12.5927 16.0332ZM20.4404 8.67327L23.4601 8.67327L23.4601 3.65404C23.4601 1.32897 22.1386 0.0149214 19.8117 0.0149214L12.5927 0.0149214L12.5927 3.03457L19.4042 3.03457C20.0875 3.03457 20.4404 3.34555 20.4404 4.07767ZM0 8.67327L3.01964 8.67327L3.01964 4.07767C3.01964 3.34555 3.37024 3.03457 4.05583 3.03457L10.8743 3.03457L10.8743 0.0149214L3.64834 0.0149214C1.32382 0.0149214 0 1.32897 0 3.65404Z"
                     fill="currentColor" fill-opacity="0.85" />
              <path d="M16.9238 10.3917L15.0328 10.3917C14.641 11.8668 13.3102 12.9724 11.7346 12.9724C10.1418 12.9724 8.78403 11.8742 8.40208 10.3917L6.511 10.3917C6.93256 12.8907 9.11272 14.8066 11.7346 14.8066C14.3146 14.8066 16.4902 12.8884 16.9238 10.3917ZM15.0351 8.67327L16.9238 8.67327C16.512 6.18631 14.3221 4.2583 11.7346 4.2583C9.11272 4.2583 6.91534 6.18631 6.511 8.67327L8.39977 8.67327C8.77427 7.20794 10.1418 6.1 11.7346 6.1C13.3102 6.1 14.6554 7.20794 15.0351 8.67327Z"
                     fill="currentColor" fill-opacity="0.85" />
       </g>
</svg>