<?xml version="1.0" encoding="UTF-8"?>
<!--Generator: Apple Native CoreSVG 326-->
<!DOCTYPE svg PUBLIC "-//W3C//DTD SVG 1.1//EN" "http://www.w3.org/Graphics/SVG/1.1/DTD/svg11.dtd">
<svg version="1.1" xmlns="http://www.w3.org/2000/svg" xmlns:xlink="http://www.w3.org/1999/xlink"
       viewBox="0 0 21.365 21.006">
       <g>
              <rect height="21.006" opacity="0" width="21.365" x="0" y="0" />
              <path d="M21.0037 10.4981C21.0037 16.2923 16.302 20.9962 10.4981 20.9962C4.70394 20.9962 0 16.2923 0 10.4981C0 4.70163 4.70394 0 10.4981 0C16.302 0 21.0037 4.70163 21.0037 10.4981ZM9.92436 16.1267C9.92436 16.453 10.2017 16.7234 10.548 16.7234C11.7434 16.7234 12.9001 16.3973 13.8866 15.8282C13.7444 15.761 13.6115 15.6683 13.4935 15.5519L11.7306 13.7895C11.5237 14.0142 11.3381 14.2576 11.174 14.516L11.174 13.2331L9.92436 11.9838ZM4.54908 12.7517C5.21491 14.6705 7.02804 16.1342 9.19097 16.5661C9.1496 16.4334 9.10769 16.2715 9.10769 16.1267L9.10769 13.5734C8.11105 12.5707 6.71323 11.966 5.08201 11.966C4.60131 11.966 4.38713 12.3026 4.54908 12.7517ZM5.99688 6.00204C5.7465 6.26966 5.74134 6.71184 5.99688 6.95992L14.0438 14.9919C14.2918 15.2474 14.7363 15.2497 15.0016 14.9919C15.252 14.7317 15.2595 14.2993 15.0016 14.0415L6.97199 6.00204C6.70668 5.74419 6.2645 5.75165 5.99688 6.00204ZM14.2698 12.2123L15.5468 13.4889C15.703 13.6451 15.8172 13.8246 15.888 14.0151C16.161 13.6246 16.3813 13.2009 16.5395 12.7517C16.7015 12.3026 16.485 11.966 16.0066 11.966C15.3927 11.966 14.8101 12.0513 14.2698 12.2123ZM8.77796 10.8377L7.50359 9.56373C7.80082 10.1012 8.23652 10.5401 8.77796 10.8377ZM10.0984 5.80357L9.30373 6.83151L8.36029 5.87369C8.18725 5.69492 7.96171 5.64492 7.76784 5.71219L12.6699 10.6128C13.5298 9.98823 14.0475 8.96556 14.0475 7.76701C14.0475 7.17592 13.9676 6.58482 13.6764 6.01896C13.4846 5.64569 13.0304 5.56932 12.7358 5.87369L11.8096 6.83151L11.0023 5.80357C10.7714 5.48944 10.3465 5.48944 10.0984 5.80357Z"
                     fill="currentColor" fill-opacity="0.85" />
       </g>
</svg>