<?xml version="1.0" encoding="UTF-8"?>
<!--Generator: Apple Native CoreSVG 326-->
<!DOCTYPE svg PUBLIC "-//W3C//DTD SVG 1.1//EN" "http://www.w3.org/Graphics/SVG/1.1/DTD/svg11.dtd">
<svg version="1.1" xmlns="http://www.w3.org/2000/svg" xmlns:xlink="http://www.w3.org/1999/xlink"
       viewBox="0 0 29.3981 24.8674">
       <g>
              <rect height="24.8674" opacity="0" width="29.3981" x="0" y="0" />
              <path d="M21.7749 5.16068L21.7749 5.27928C20.9777 5.09823 20.1262 5.00928 19.234 5.00928L14.0795 5.00928C8.0621 5.00928 3.91031 9.03521 3.91031 14.9458C3.91031 16.1438 4.08151 17.2644 4.41285 18.2846C2.34166 18.1337 1.1757 16.8378 1.1757 14.6606L1.1757 5.16068C1.1757 2.84307 2.49952 1.52156 4.8315 1.52156L18.1191 1.52156C20.4534 1.52156 21.7749 2.84307 21.7749 5.16068Z"
                     fill="currentColor" fill-opacity="0.85" />
              <path d="M14.0795 23.3206L19.234 23.3206C24.3945 23.3206 27.8587 19.9724 27.8587 14.9458C27.8587 9.90653 24.3945 6.55377 19.234 6.55377L14.0795 6.55377C8.90182 6.55377 5.4548 9.90653 5.4548 14.9458C5.4548 19.9724 8.90182 23.3206 14.0795 23.3206Z"
                     fill="currentColor" fill-opacity="0.85" />
       </g>
</svg>