<?xml version="1.0" encoding="UTF-8"?>
<!--Generator: Apple Native CoreSVG 326-->
<!DOCTYPE svg PUBLIC "-//W3C//DTD SVG 1.1//EN" "http://www.w3.org/Graphics/SVG/1.1/DTD/svg11.dtd">
<svg version="1.1" xmlns="http://www.w3.org/2000/svg" xmlns:xlink="http://www.w3.org/1999/xlink"
       viewBox="0 0 30.0849 24.8674">
       <g>
              <rect height="24.8674" opacity="0" width="30.0849" x="0" y="0" />
              <path d="M22.3476 5.25524C21.581 5.09045 20.7657 5.00928 19.9134 5.00928L14.7613 5.00928C8.74151 5.00928 4.58972 9.03521 4.58972 14.9458C4.58972 15.6336 4.64615 16.2959 4.76073 16.9264C2.51383 15.5008 1.18316 13.0282 1.18316 9.9095C1.18316 4.87026 4.63995 1.51749 9.81021 1.51749L14.9623 1.51749C18.2883 1.51749 20.9107 2.91021 22.3476 5.25524Z"
                     fill="currentColor" fill-opacity="0.85" />
              <path d="M6.13421 14.9458C6.13421 19.9724 9.58123 23.3206 14.7613 23.3206L19.9134 23.3206C25.0739 23.3206 28.5404 19.9724 28.5404 14.9458C28.5404 9.90653 25.0739 6.55377 19.9134 6.55377L14.7613 6.55377C9.58123 6.55377 6.13421 9.90653 6.13421 14.9458Z"
                     fill="currentColor" fill-opacity="0.85" />
       </g>
</svg>