<?xml version="1.0" encoding="UTF-8"?>
<!--Generator: Apple Native CoreSVG 326-->
<!DOCTYPE svg PUBLIC "-//W3C//DTD SVG 1.1//EN" "http://www.w3.org/Graphics/SVG/1.1/DTD/svg11.dtd">
<svg version="1.1" xmlns="http://www.w3.org/2000/svg" xmlns:xlink="http://www.w3.org/1999/xlink"
       viewBox="0 0 23.3769 22.7532">
       <g>
              <rect height="22.7532" opacity="0" width="23.3769" x="0" y="0" />
              <path d="M7.19957 22.7532C7.95414 22.7532 8.59206 22.4471 9.53095 21.6363L12.7882 18.8023L18.0654 18.8023C21.095 18.8023 23.0156 16.8627 23.0156 13.8447L23.0156 5.96886C23.0156 2.95086 21.095 1.01126 18.0654 1.01126L4.95014 1.01126C1.92061 1.01126 0 2.94855 0 5.96886L0 13.8447C0 16.8651 2.09221 18.8023 4.68902 18.8023L5.39651 18.8023L5.39651 20.7819C5.39651 22.0038 6.08326 22.7532 7.19957 22.7532ZM7.91331 19.4218L7.91331 16.7763C7.91331 16.0549 7.53664 15.7827 6.91977 15.7827L5.18142 15.7827C3.74594 15.7827 3.01964 15.0604 3.01964 13.6186L3.01964 6.19268C3.01964 4.75095 3.74594 4.0309 5.18142 4.0309L17.8342 4.0309C19.2673 4.0309 19.9959 4.75095 19.9959 6.19268L19.9959 13.6186C19.9959 15.0604 19.2673 15.7827 17.8342 15.7827L12.5431 15.7827C11.7948 15.7827 11.484 15.9354 10.9339 16.473Z"
                     fill="currentColor" fill-opacity="0.85" />
              <path d="M5.72387 11.1254L8.66551 11.1254C9.12722 11.1254 9.49304 10.7298 9.49304 10.2807C9.49304 9.82871 9.12722 9.44051 8.66551 9.44051L5.72387 9.44051C5.27708 9.44051 4.91872 9.83617 4.91872 10.2807C4.91872 10.7298 5.28454 11.1254 5.72387 11.1254ZM10.8064 11.1254L17.2814 11.1254C17.7431 11.1254 18.1066 10.7298 18.1066 10.2807C18.1066 9.82871 17.7431 9.44051 17.2814 9.44051L10.8064 9.44051C10.367 9.44051 10.0087 9.83617 10.0087 10.2807C10.0087 10.7298 10.3745 11.1254 10.8064 11.1254ZM5.72387 13.7414L7.10798 13.7414C7.56224 13.7414 7.94067 13.3406 7.94067 12.9087C7.94067 12.4372 7.56224 12.0565 7.10798 12.0565L5.72387 12.0565C5.27708 12.0565 4.91872 12.4521 4.91872 12.9087C4.91872 13.3406 5.28454 13.7414 5.72387 13.7414ZM9.25399 13.7414L13.2811 13.7414C13.7354 13.7414 14.1087 13.3406 14.1087 12.9087C14.1087 12.4372 13.7354 12.0565 13.2811 12.0565L9.25399 12.0565C8.8072 12.0565 8.45115 12.4521 8.45115 12.9087C8.45115 13.3406 8.81466 13.7414 9.25399 13.7414ZM15.422 13.7414L17.2814 13.7414C17.7356 13.7414 18.1066 13.3406 18.1066 12.9087C18.1066 12.4372 17.7356 12.0565 17.2814 12.0565L15.422 12.0565C14.9752 12.0565 14.6168 12.4521 14.6168 12.9087C14.6168 13.3406 14.9827 13.7414 15.422 13.7414Z"
                     fill="currentColor" fill-opacity="0.85" />
       </g>
</svg>