<?xml version="1.0" encoding="UTF-8"?>
<!--Generator: Apple Native CoreSVG 326-->
<!DOCTYPE svg PUBLIC "-//W3C//DTD SVG 1.1//EN" "http://www.w3.org/Graphics/SVG/1.1/DTD/svg11.dtd">
<svg version="1.1" xmlns="http://www.w3.org/2000/svg" xmlns:xlink="http://www.w3.org/1999/xlink"
       viewBox="0 0 36.2082 27.2178">
       <g>
              <rect height="27.2178" opacity="0" width="36.2082" x="0" y="0" />
              <path d="M10.3977 19.2701L11.6578 18.547L10.6201 16.7496L9.36008 17.4727C8.87156 17.7607 8.45667 17.5975 8.12967 17.0308L7.67123 16.2381C7.1599 15.347 7.3978 14.4092 8.53128 13.5561L11.0652 11.6495C11.461 11.3565 11.7453 11.028 11.9606 10.634L13.5892 7.56013C14.5262 5.78849 15.2518 5.09677 17.8322 3.60778L18.9196 2.98224C20.5971 2.01423 22.262 1.8729 24.8832 2.38532C25.4214 2.49559 25.7207 2.45884 26.2812 2.3388L27.0884 2.16071C27.7998 2.00786 28.3358 2.22786 28.6736 2.799L29.7002 4.58162C30.0295 5.15057 29.9571 5.58268 29.4686 5.87062L28.2039 6.5937L29.2416 8.39106L30.5062 7.66052C32.1594 6.70931 32.4976 5.28498 31.4901 3.54397L30.4039 1.64944C29.5796 0.223234 28.3189-0.218524 26.6043 0.0962811L25.3898 0.317494C23.4067-0.0679756 20.5198-0.336803 17.882 1.18488L16.7946 1.81273C13.9046 3.47628 12.8568 4.47061 11.7402 6.58163L10.0173 9.85432L7.27715 11.9086C5.33052 13.371 4.82677 15.4532 5.87618 17.2757L6.3593 18.115C7.34727 19.8267 8.74691 20.2265 10.3977 19.2701ZM15.2837 16.452L25.4993 10.5543L24.4616 8.75694L14.2437 14.6569ZM14.3922 18.9474C15.9482 18.0445 16.472 16.1163 15.5691 14.5551C14.6662 12.9939 12.7328 12.4776 11.1716 13.373C9.60816 14.276 9.0918 16.2093 9.99472 17.7705C10.8977 19.3317 12.8235 19.8503 14.3922 18.9474ZM13.401 17.2333C12.7989 17.5855 12.0536 17.3816 11.7088 16.7868C11.3566 16.1846 11.5583 15.4319 12.1628 15.0871C12.7575 14.7424 13.5102 14.9366 13.855 15.5462C14.1998 16.1433 14.0055 16.8862 13.401 17.2333ZM28.2282 10.9594C29.7894 10.0565 30.3058 8.1283 29.4103 6.56713C28.4999 4.9985 26.574 4.48214 25.0054 5.38506C23.4494 6.28799 22.933 8.22134 23.836 9.78251C24.7314 11.3437 26.6648 11.8623 28.2282 10.9594ZM27.2348 9.2528C26.6401 9.59757 25.8873 9.39358 25.5426 8.79885C25.1978 8.1892 25.3943 7.44391 25.9965 7.09915C26.5987 6.75438 27.3515 6.9486 27.6962 7.55079C28.041 8.15529 27.8393 8.89826 27.2348 9.2528Z"
                     fill="currentColor" fill-opacity="0.85" />
              <path d="M4.96361 21.1498L2.79576 17.3988C2.32713 16.5942 1.36518 16.7952 1.10273 17.5877L0.0583502 20.7373C-0.125438 21.2915 0.134716 21.728 0.701001 21.8509L3.94022 22.5114C4.76435 22.6883 5.42708 21.9521 4.96361 21.1498ZM7.29468 26.3229C7.70811 27.0119 8.58205 27.2387 9.23434 26.8643L35.1506 11.8997C35.8029 11.5179 36.0515 10.6491 35.6651 9.97212C35.254 9.28307 34.3777 9.04651 33.7254 9.4381L7.81663 24.4027C7.15171 24.7771 6.91055 25.6533 7.29468 26.3229Z"
                     fill="currentColor" fill-opacity="0.85" />
       </g>
</svg>