<?xml version="1.0" encoding="UTF-8"?>
<!--Generator: Apple Native CoreSVG 326-->
<!DOCTYPE svg PUBLIC "-//W3C//DTD SVG 1.1//EN" "http://www.w3.org/Graphics/SVG/1.1/DTD/svg11.dtd">
<svg version="1.1" xmlns="http://www.w3.org/2000/svg" xmlns:xlink="http://www.w3.org/1999/xlink"
       viewBox="0 0 20.1406 27.7584">
       <g>
              <rect height="27.7584" opacity="0" width="20.1406" x="0" y="0" />
              <path d="M9.88475 23.1336C12.6541 23.1336 16.1026 22.9969 17.5571 22.8285C18.9459 22.6643 19.7793 21.8206 19.7793 20.4956L19.7793 19.1203C19.7793 17.601 19.6005 16.7055 18.7986 15.7485L18.0571 14.876C17.7567 13.5122 17.254 12.0823 16.9881 11.5062C16.4964 10.4642 15.5303 9.80543 14.3194 9.64402C13.6578 9.56074 12.1083 9.50445 9.88475 9.50445C7.66862 9.50445 6.12147 9.56305 5.45983 9.64402C4.24902 9.79566 3.26797 10.4568 2.79121 11.5062C2.52293 12.0823 2.02258 13.5122 1.71984 14.876L0.980626 15.7485C0.176448 16.7055 0 17.601 0 19.1203L0 20.4956C0 21.8206 0.833354 22.6643 2.22214 22.8285C3.67667 22.9969 7.12515 23.1336 9.88475 23.1336ZM9.88475 21.0594C7.18538 21.0594 4.17029 20.9198 2.89044 20.7785C2.2649 20.7078 2.00705 20.4264 2.00705 19.8548L2.00705 18.8442C2.00705 17.8739 2.25052 17.3902 2.63733 16.8896L3.58447 15.6341C3.73732 14.8691 4.21244 13.1654 4.51979 12.5271C4.79377 11.9671 5.26822 11.7166 5.85252 11.6408C6.45732 11.55 7.79085 11.4943 9.88475 11.4943C11.9884 11.4943 13.3312 11.5649 13.9124 11.6408C14.5111 11.7114 14.978 11.9769 15.2669 12.5495C15.5617 13.1281 16.0247 14.8244 16.1925 15.6341L17.1345 16.8896C17.5213 17.3902 17.7722 17.8739 17.7722 18.8442L17.7722 19.8548C17.7722 20.4264 17.5144 20.7101 16.8888 20.7785C15.609 20.9198 12.5939 21.0594 9.88475 21.0594ZM4.56674 14.4804C4.47084 14.9008 4.65287 15.1523 5.11228 15.1477C5.94448 15.1097 7.2521 15.0488 9.88475 15.0488C12.5249 15.0488 13.8348 15.1097 14.667 15.1477C15.1241 15.1523 15.3084 14.9008 15.2125 14.4804C15.0918 13.9666 14.8596 13.2602 14.7102 12.9849C14.4678 12.4916 14.1462 12.313 13.5645 12.232C13.1524 12.1762 11.9328 12.1423 9.88475 12.1423C7.84647 12.1423 6.62455 12.1762 6.21252 12.232C5.63307 12.313 5.30917 12.4916 5.06909 12.9849C4.91448 13.2602 4.6949 13.9666 4.56674 14.4804ZM4.29924 20.3123C5.11143 20.3123 5.72314 19.6909 5.72314 18.8861C5.72314 18.0762 5.11143 17.4645 4.29924 17.4645C3.48936 17.4645 2.87534 18.0762 2.87534 18.8861C2.87534 19.6909 3.48936 20.3123 4.29924 20.3123ZM7.67433 19.9401L12.1026 19.9401C12.7092 19.9401 13.1474 19.5019 13.1474 18.8977C13.1474 18.2934 12.7092 17.8575 12.1026 17.8575L7.67433 17.8575C7.06261 17.8575 6.63183 18.2934 6.63183 18.8977C6.63183 19.5019 7.06261 19.9401 7.67433 19.9401ZM15.4777 20.3123C16.2899 20.3123 16.9039 19.6909 16.9039 18.8861C16.9039 18.0762 16.2899 17.4645 15.4777 17.4645C14.6678 17.4645 14.0561 18.0762 14.0561 18.8861C14.0561 19.6909 14.6678 20.3123 15.4777 20.3123ZM1.58434 25.2332L2.64351 25.2332C3.25183 25.2332 3.74066 24.7616 3.74066 24.1481L3.74066 22.0969L0.49926 21.1725L0.49926 24.1481C0.49926 24.7616 0.970861 25.2332 1.58434 25.2332ZM17.0938 25.2332L18.153 25.2332C18.7688 25.2332 19.2381 24.7616 19.2381 24.1481L19.2381 21.1725L15.9967 22.0969L15.9967 24.1481C15.9967 24.7616 16.4855 25.2332 17.0938 25.2332Z"
                     fill="currentColor" fill-opacity="0.85" />
              <path d="M9.86807 5.41248C7.77593 5.41248 5.84694 4.75697 4.49631 3.5356C3.99147 3.07958 3.3632 2.92224 2.83773 3.35411C2.27497 3.81583 2.1929 4.62383 2.88656 5.30311C4.51754 6.87944 7.17464 7.79511 9.86807 7.79511C12.5839 7.79511 15.1291 6.95405 16.857 5.30311C17.553 4.62383 17.4784 3.81583 16.9059 3.35411C16.3902 2.92224 15.7596 3.07958 15.2473 3.5356C13.9041 4.75697 11.97 5.41248 9.86807 5.41248Z"
                     fill="currentColor" fill-opacity="0.85" />
              <path d="M9.88014 1.06604C9.04358 1.06604 8.051 0.746082 7.49303 0.343812C6.96635-0.0260691 6.36507-0.147866 5.86429 0.23178C5.29176 0.665956 5.25215 1.54286 5.90281 2.14809C6.83066 2.99024 8.31777 3.44868 9.88014 3.44868C11.45 3.44868 12.9371 2.99024 13.8649 2.14809C14.5058 1.54286 14.4737 0.665956 13.9035 0.23178C13.4027-0.147866 12.7916-0.0260691 12.2673 0.343812C11.7214 0.750692 10.7242 1.06604 9.88014 1.06604Z"
                     fill="currentColor" fill-opacity="0.85" />
       </g>
</svg>