<?xml version="1.0" encoding="UTF-8"?>
<!--Generator: Apple Native CoreSVG 326-->
<!DOCTYPE svg PUBLIC "-//W3C//DTD SVG 1.1//EN" "http://www.w3.org/Graphics/SVG/1.1/DTD/svg11.dtd">
<svg version="1.1" xmlns="http://www.w3.org/2000/svg" xmlns:xlink="http://www.w3.org/1999/xlink"
       viewBox="0 0 23.2219 26.4223">
       <g>
              <rect height="26.4223" opacity="0" width="23.2219" x="0" y="0" />
              <path d="M13.2204 26.4172L21.7824 26.4172L21.7824 21.4569C21.7824 19.5396 20.2629 18.5165 17.5062 18.5165C14.7502 18.5165 13.2204 19.547 13.2204 21.4569ZM17.5062 24.9134C16.9226 24.9134 16.1499 24.9674 15.9591 24.9674C15.4806 24.9674 15.2657 24.7571 15.2192 24.2665L15.1216 23.1676C15.0383 22.2445 15.7063 21.9079 17.5062 21.9079C19.2941 21.9079 19.9696 22.2445 19.884 23.1676L19.7812 24.2665C19.7347 24.7571 19.5175 24.9674 19.0413 24.9674C18.8528 24.9674 18.0686 24.9134 17.5062 24.9134ZM13.765 24.7169L13.765 22.9213L12.9004 22.9213C12.4501 22.9213 12.1445 23.274 12.1445 23.7794L12.1445 23.876C12.1445 24.3642 12.4501 24.7169 12.9004 24.7169ZM21.2354 24.7616L22.1023 24.7616C22.548 24.7616 22.8605 24.4164 22.8605 23.9283L22.8605 23.8241C22.8605 23.3187 22.548 22.9735 22.1023 22.9735L21.2354 22.9735Z"
                     fill="currentColor" fill-opacity="0.85" />
              <path d="M13.5546 18.073C14.7265 16.9011 15.3865 15.4041 15.4916 13.8025C15.5209 13.1789 15.1034 12.7924 14.5568 12.7924C14.0617 12.7924 13.7097 13.1593 13.6557 13.802C13.5925 14.9177 13.122 15.9473 12.2741 16.7975C11.4238 17.6432 10.3942 18.0862 9.2808 18.1769C8.64737 18.2384 8.27409 18.58 8.27409 19.0613C8.27409 19.6315 8.67206 20.0421 9.28135 20.0123C10.8806 19.9376 12.3776 19.25 13.5546 18.073Z"
                     fill="currentColor" fill-opacity="0.85" />
              <path d="M11.4558 15.9793C12.1423 15.3003 12.5501 14.4427 12.6776 13.5023C12.7563 12.9034 12.3411 12.4434 11.7554 12.4457C11.2626 12.4457 10.9824 12.773 10.8767 13.3869C10.7814 13.8822 10.5648 14.3097 10.1879 14.7062C9.79371 15.0906 9.36105 15.302 8.88933 15.3853C8.25414 15.5036 7.92738 15.8074 7.92738 16.2766C7.92508 16.8623 8.3655 17.2631 8.95065 17.2034C9.80408 17.1064 10.7417 16.7009 11.4558 15.9793Z"
                     fill="currentColor" fill-opacity="0.85" />
              <path d="M5.35945 14.8203C8.29429 14.8203 9.63788 14.0294 9.63788 12.2378L9.63788 2.94788C9.63788 1.02309 8.12069 0 5.35945 0C2.60797 0 1.07586 1.03055 1.07586 2.94788L1.07586 12.2378C1.07586 14.0294 2.43437 14.8203 5.35945 14.8203ZM5.35945 6.3946C4.78043 6.3946 4.00773 6.4532 3.8169 6.4532C3.34069 6.4532 3.12585 6.24812 3.07702 5.75753L2.97937 4.65117C2.89147 3.7355 3.56179 3.3914 5.35945 3.3914C7.14965 3.3914 7.83719 3.7355 7.7493 4.65117L7.63902 5.75753C7.5925 6.24812 7.38512 6.4532 6.89914 6.4532C6.71578 6.4532 5.9241 6.3946 5.35945 6.3946ZM5.35945 12.4753C3.48948 12.4753 2.85011 12.16 2.99144 11.2225L3.06956 10.6928C3.18905 9.9334 3.80253 9.70649 5.35945 9.70649C6.91121 9.70649 7.53676 9.9334 7.65164 10.6928L7.7223 11.2225C7.85902 12.16 7.22426 12.4753 5.35945 12.4753ZM1.62055 6.20784L1.62055 4.4123L0.755896 4.4123C0.30789 4.4123 0 4.7575 0 5.26288L0 5.35957C0 5.85519 0.30789 6.20784 0.755896 6.20784ZM9.09319 6.25261L9.95784 6.25261C10.4059 6.25261 10.716 5.90742 10.716 5.41179L10.716 5.30765C10.716 4.80226 10.4059 4.46453 9.95784 4.46453L9.09319 4.46453Z"
                     fill="currentColor" fill-opacity="0.85" />
       </g>
</svg>