<?xml version="1.0" encoding="UTF-8"?>
<!--Generator: Apple Native CoreSVG 326-->
<!DOCTYPE svg PUBLIC "-//W3C//DTD SVG 1.1//EN" "http://www.w3.org/Graphics/SVG/1.1/DTD/svg11.dtd">
<svg version="1.1" xmlns="http://www.w3.org/2000/svg" xmlns:xlink="http://www.w3.org/1999/xlink"
       viewBox="0 0 37.581 29.9638">
       <g>
              <rect height="29.9638" opacity="0" width="37.581" x="0" y="0" />
              <path d="M32.5073 10.0902L34.0078 10.6227C36.1095 11.3699 37.2197 12.6669 37.2197 14.7742L37.2197 17.5763C37.2197 20.1627 35.9246 21.5216 33.48 21.5216L32.4987 21.5216C31.8184 22.8389 30.4472 23.7205 28.831 23.7205C27.22 23.7205 25.8504 22.8389 25.1705 21.5216L12.0469 21.5216C11.3672 22.8389 9.99806 23.7205 8.38867 23.7205C6.77249 23.7205 5.4013 22.8389 4.72096 21.5216L3.73963 21.5216C1.29968 21.5216 0 20.1823 0 17.6498L0 16.4073C0 13.7072 1.89945 11.7141 4.99248 11.3448L9.35596 10.8175L13.3558 8.29223C14.2957 7.69965 15.1326 7.26658 16.023 6.95699L16.023 9.14869C16.023 9.39135 16.0444 9.62181 16.0878 9.83743C15.6739 10.0364 15.251 10.279 14.785 10.5702L11.0128 12.9449C10.5206 13.2412 9.99333 13.4227 9.37009 13.5008L5.33701 13.9943C3.54177 14.204 2.66899 15.0963 2.66899 16.4073L2.66899 17.5763C2.66899 18.4124 3.02813 18.8526 3.73963 18.8526L4.32341 18.8526C4.66129 16.9008 6.32531 15.464 8.38867 15.464C10.4434 15.464 12.1064 16.9008 12.4442 18.8526L24.7732 18.8526C25.111 16.9008 26.7743 15.464 28.831 15.464C30.8943 15.464 32.5584 16.9008 32.8962 18.8526L33.48 18.8526C34.1915 18.8526 34.5507 18.4124 34.5507 17.5763L34.5507 14.9533C34.5507 14.0995 34.0928 13.5159 33.2108 13.2366L32.198 12.912C31.5001 12.6892 31.1516 12.5295 30.618 12.062C29.106 10.747 27.8119 9.88793 26.5001 9.40632C26.5077 9.3229 26.5105 9.2366 26.5105 9.14869L26.5105 6.63596C29.0431 7.33265 31.0671 8.83369 32.5073 10.0902ZM6.79706 19.5971C6.79706 20.4791 7.49691 21.1715 8.38867 21.1715C9.27067 21.1715 9.96306 20.4791 9.96306 19.5971C9.96306 18.7054 9.27067 18.0055 8.38867 18.0055C7.49691 18.0055 6.79706 18.7054 6.79706 19.5971ZM27.2543 19.5971C27.2543 20.4791 27.949 21.1715 28.831 21.1715C29.7204 21.1715 30.4226 20.4791 30.4226 19.5971C30.4226 18.7054 29.7204 18.0055 28.831 18.0055C27.949 18.0055 27.2543 18.7054 27.2543 19.5971Z"
                     fill="currentColor" fill-opacity="0.85" />
              <path d="M18.8347 10.4768L23.7137 10.4768C24.5363 10.4768 24.966 10.0523 24.966 9.14869L24.966 5.31007C24.966 4.41625 24.5363 3.98425 23.7137 3.98425L18.8347 3.98425C17.9972 3.98425 17.5675 4.41625 17.5675 5.31007L17.5675 9.14869C17.5675 10.0523 17.9972 10.4768 18.8347 10.4768ZM18.5067 4.52907L19.974 4.52907L19.974 2.78484C19.974 1.98788 20.4974 1.44264 21.2656 1.44264C22.0286 1.44264 22.5595 1.98788 22.5595 2.78484L22.5595 4.52907L24.032 4.52907L24.032 2.83895C24.032 1.14082 22.9119 0 21.2656 0C19.6239 0 18.5067 1.14082 18.5067 2.83895Z"
                     fill="currentColor" fill-opacity="0.85" />
       </g>
</svg>