<?xml version="1.0" encoding="UTF-8"?>
<!--Generator: Apple Native CoreSVG 326-->
<!DOCTYPE svg PUBLIC "-//W3C//DTD SVG 1.1//EN" "http://www.w3.org/Graphics/SVG/1.1/DTD/svg11.dtd">
<svg version="1.1" xmlns="http://www.w3.org/2000/svg" xmlns:xlink="http://www.w3.org/1999/xlink"
       viewBox="0 0 17.0482 25.7333">
       <g>
              <rect height="25.7333" opacity="0" width="17.0482" x="0" y="0" />
              <path d="M3.10352 8.20155C3.10352 8.63463 3.45848 8.98213 3.90133 8.98213L4.45106 8.98213C4.88414 8.98213 5.22187 8.63463 5.22187 8.20155L5.22187 7.83604L12.2105 7.83604L12.2105 8.20155C12.2105 8.63463 12.5483 8.98213 12.986 8.98213L13.5334 8.98213C13.9762 8.98213 14.3335 8.63463 14.3335 8.20155L14.3335 5.16565C14.3335 4.29948 14.249 3.74406 13.7481 3.19664L13.323 2.73535L12.8617 1.48413C12.4965 0.516365 11.9066 0.156796 11.1754 0.0907415C10.8078 0.0218362 9.9357 0 8.70875 0C7.49902 0 6.61199 0.0218362 6.25933 0.0907415C5.52813 0.156796 4.92848 0.516365 4.56321 1.48413L4.10422 2.73535L3.6843 3.19664C3.1811 3.74867 3.10352 4.29948 3.10352 5.16565ZM5.99421 2.79503C5.76335 2.79503 5.68237 2.66007 5.76105 2.42175L5.92027 1.89987C6.02823 1.58112 6.15519 1.45702 6.61745 1.40765C7.02014 1.36858 7.71077 1.34905 8.70875 1.34905C9.75446 1.34905 10.4353 1.36858 10.827 1.40765C11.2726 1.45932 11.4191 1.57882 11.5145 1.89987L11.6662 2.42175C11.7374 2.66007 11.6616 2.79503 11.4331 2.79503ZM5.33706 5.77343C5.02917 5.77343 4.81894 5.59018 4.81894 5.27483L4.81894 4.60901C4.81894 4.29597 5.02917 4.12018 5.33706 4.12018C5.65296 4.12018 5.83565 4.30343 5.83565 4.60901L5.83565 5.27483C5.83565 5.59018 5.6455 5.77343 5.33706 5.77343ZM7.75281 5.56089C7.48113 5.56089 7.34902 5.43909 7.34902 5.14788L7.34902 4.74343C7.34902 4.46714 7.48343 4.33503 7.75281 4.33503L9.65262 4.33503C9.93406 4.33503 10.0536 4.46714 10.0536 4.74343L10.0536 5.14788C10.0536 5.43909 9.93636 5.56089 9.65262 5.56089ZM12.139 5.77343C11.8283 5.77343 11.633 5.58272 11.633 5.27483L11.633 4.60901C11.633 4.30343 11.8283 4.12018 12.139 4.12018C12.4446 4.12018 12.6548 4.29597 12.6548 4.60901L12.6548 5.27483C12.6548 5.59765 12.4446 5.77343 12.139 5.77343ZM6.8386 10.366L6.3061 9.97483C6.0861 9.80596 5.8345 9.7376 5.56798 9.7376L3.91467 9.7376C3.50397 9.7376 3.35002 10.2195 3.66768 10.447L4.74014 11.2219C5.01358 11.4223 5.00151 11.6079 4.66948 11.7446L1.16889 13.2381C-0.25798 13.8418-0.377472 14.7855 0.804714 15.6781L1.33491 16.0768C1.55491 16.2382 1.79674 16.3163 2.0851 16.3163L3.74587 16.3163C4.14911 16.3163 4.28868 15.8344 3.97563 15.5995L2.90833 14.8269C2.6372 14.6213 2.64927 14.434 2.97899 14.2995L6.47442 12.8158C7.89153 12.207 8.03055 11.2586 6.8386 10.366ZM14.5942 10.3683L14.0617 9.97944C13.8469 9.80827 13.5976 9.74221 13.3362 9.74221L11.668 9.74221C11.2745 9.74221 11.1079 10.2218 11.4307 10.4493L12.5032 11.2242C12.7743 11.4246 12.7497 11.6125 12.4348 11.7469L8.94173 13.2404C7.50509 13.8515 7.38329 14.7953 8.56548 15.6804L9.09798 16.0814C9.32028 16.2451 9.56958 16.3186 9.83325 16.3186L11.5015 16.3186C11.9024 16.3186 12.0541 15.8315 11.7312 15.6018L10.6639 14.8292C10.3928 14.6385 10.41 14.4386 10.7271 14.3042L14.2375 12.8204C15.6546 12.2093 15.7862 11.2586 14.5942 10.3683Z"
                     fill="currentColor" fill-opacity="0.85" />
              <path d="M3.19826 25.7235C5.24407 25.7235 6.22106 24.2216 6.22106 22.1799C6.22106 20.1662 5.29169 18.6218 3.19826 18.6218C1.18121 18.6218 0.162851 20.122 0.162851 22.1799C0.162851 24.1475 1.10539 25.7235 3.19826 25.7235ZM3.19826 24.064C2.40889 24.064 2.23068 22.8952 2.23068 22.1799C2.23068 21.3962 2.42326 20.2935 3.19826 20.2935C4.00202 20.2935 4.17561 21.4026 4.17561 22.1799C4.17561 22.9211 4.00311 24.064 3.19826 24.064ZM8.04578 25.65C8.76874 25.65 9.07365 25.178 9.07365 24.5974L9.07365 23.1905L10.4623 23.1905C10.971 23.1905 11.2955 22.8781 11.2955 22.394C11.2955 21.9025 10.9733 21.5976 10.4623 21.5976L9.07365 21.5976L9.07365 20.4652L10.611 20.4652C11.1738 20.4652 11.5109 20.1528 11.5109 19.6342C11.5109 19.1157 11.1738 18.7959 10.611 18.7959L8.04347 18.7959C7.52547 18.7959 7.04028 19.0974 7.04028 19.8582L7.04028 24.5974C7.04028 25.2302 7.38996 25.65 8.04578 25.65ZM13.2282 25.65C13.946 25.65 14.2411 25.178 14.2411 24.5974L14.2411 23.1905L15.6297 23.1905C16.1385 23.1905 16.463 22.8781 16.463 22.394C16.463 21.9025 16.1408 21.5976 15.6297 21.5976L14.2411 21.5976L14.2411 20.4652L15.7808 20.4652C16.3487 20.4652 16.6858 20.1528 16.6858 19.6342C16.6858 19.1157 16.3487 18.7959 15.7808 18.7959L13.2184 18.7959C12.6929 18.7959 12.2078 19.0974 12.2078 19.8582L12.2078 24.5974C12.2078 25.2302 12.5574 25.65 13.2282 25.65Z"
                     fill="currentColor" fill-opacity="0.85" />
       </g>
</svg>