<?xml version="1.0" encoding="UTF-8"?>
<!--Generator: Apple Native CoreSVG 326-->
<!DOCTYPE svg PUBLIC "-//W3C//DTD SVG 1.1//EN" "http://www.w3.org/Graphics/SVG/1.1/DTD/svg11.dtd">
<svg version="1.1" xmlns="http://www.w3.org/2000/svg" xmlns:xlink="http://www.w3.org/1999/xlink"
       viewBox="0 0 25.8715 20.8934">
       <g>
              <rect height="20.8934" opacity="0" width="25.8715" x="0" y="0" />
              <path d="M24.2606 15.7846L24.2606 19.5895C24.2606 20.1901 23.8001 20.6506 23.1995 20.6506L22.2716 20.6506C21.671 20.6506 21.2105 20.1901 21.2105 19.5895L21.2105 15.7846C21.2105 15.184 21.671 14.7235 22.2716 14.7235L23.1995 14.7235C23.8001 14.7235 24.2606 15.184 24.2606 15.7846ZM4.29219 15.7846L4.29219 19.5895C4.29219 20.1878 3.83168 20.6483 3.23107 20.6483L2.30315 20.6483C1.70253 20.6483 1.24203 20.1878 1.24203 19.5895L1.24203 15.7846C1.24203 15.184 1.70253 14.7235 2.30315 14.7235L3.23107 14.7235C3.83168 14.7235 4.29219 15.184 4.29219 15.7846ZM24.2606 8.43404L24.2606 12.1769C24.2606 12.7776 23.8001 13.2381 23.1995 13.2381L22.2716 13.2381C21.671 13.2381 21.2105 12.7776 21.2105 12.1769L21.2105 8.43404C21.2105 7.83573 21.671 7.37523 22.2716 7.37523L23.1995 7.37523C23.8001 7.37523 24.2606 7.83573 24.2606 8.43404ZM24.2606 1.06112L24.2606 4.80633C24.2606 5.40694 23.8001 5.86744 23.1995 5.86744L22.2716 5.86744C21.671 5.86744 21.2105 5.40694 21.2105 4.80633L21.2105 1.06112C21.2105 0.460501 21.671 0 22.2716 0L23.1995 0C23.8001 0 24.2606 0.460501 24.2606 1.06112ZM4.29219 1.06112L4.29219 2.24836L4.29218 2.24836C4.17427 2.30159 4.05486 2.35866 3.9336 2.42055C3.90504 2.43328 3.87558 2.44835 3.84563 2.46473C3.67364 2.5527 3.4987 2.6484 3.32132 2.75069C3.14916 2.84989 2.9835 2.95019 2.82627 3.05181C2.80068 3.0666 2.77711 3.08173 2.75478 3.09704C2.60741 3.19157 2.46679 3.28715 2.33373 3.38383C2.2989 3.40684 2.26657 3.43022 2.2368 3.45396C2.11193 3.54413 1.99378 3.63527 1.88145 3.72721C1.83536 3.76243 1.79222 3.79806 1.75375 3.8343C1.68551 3.89031 1.62104 3.94682 1.5605 4.00383C1.44292 4.10442 1.33647 4.20645 1.24203 4.30991L1.24203 1.06112C1.24203 0.460501 1.70253 0 2.30315 0L3.23107 0C3.83168 0 4.29219 0.460501 4.29219 1.06112Z"
                     fill="currentColor" fill-opacity="0.85" />
              <path d="M12.6562 18.9183C15.8362 17.0802 16.8133 15.3565 15.6754 13.3916L9.8356 3.26694C8.62369 1.17624 6.32022 1.02121 3.32132 2.75069C0.302894 4.48994-0.71734 6.5642 0.504334 8.66235L6.34187 18.7795C7.48202 20.752 9.44413 20.7639 12.6562 18.9183ZM11.6248 17.1524C9.57733 18.3296 8.5358 18.4709 8.09514 17.6942L2.31213 7.68549C1.75373 6.71002 2.40869 5.64829 4.34526 4.52634C6.26229 3.42392 7.52163 3.37739 8.08003 4.35056L13.863 14.3592C14.3112 15.1383 13.6746 15.9604 11.6248 17.1524ZM7.40014 9.8227C7.98662 9.48552 8.82307 9.08567 9.00413 8.98219C9.50503 8.69614 9.59292 8.35149 9.35854 7.83622L8.80136 6.63396C8.3596 5.66431 7.46413 5.70907 5.63147 6.76673C3.7942 7.8267 3.31635 8.57744 3.93213 9.44943L4.68463 10.5293C5.02412 11.0004 5.36361 11.0814 5.86221 10.8028C6.04096 10.6867 6.82057 10.165 7.40014 9.8227ZM10.9859 16.0423C12.8908 14.9399 13.3521 14.246 12.6634 13.374L12.2825 12.888C11.7156 12.182 10.9407 12.3044 9.36139 13.2282C7.77002 14.1422 7.26858 14.7459 7.60576 15.5863L7.83783 16.1625C8.2583 17.1982 9.07861 17.1447 10.9859 16.0423ZM11.2945 7.16494L12.2384 6.62091C12.7288 6.33892 12.8208 5.77834 12.5313 5.21557L12.4675 5.10912C12.1706 4.54405 11.6071 4.3821 11.1069 4.66639L10.1728 5.20526ZM3.15992 11.9255L2.0382 9.97841L1.1041 10.515C0.609026 10.8067 0.523986 11.3552 0.811132 11.9203L0.872698 12.0291C1.15984 12.5918 1.73304 12.7561 2.23327 12.4718Z"
                     fill="currentColor" fill-opacity="0.85" />
       </g>
</svg>