<?xml version="1.0" encoding="UTF-8"?>
<!--Generator: Apple Native CoreSVG 326-->
<!DOCTYPE svg PUBLIC "-//W3C//DTD SVG 1.1//EN" "http://www.w3.org/Graphics/SVG/1.1/DTD/svg11.dtd">
<svg version="1.1" xmlns="http://www.w3.org/2000/svg" xmlns:xlink="http://www.w3.org/1999/xlink"
       viewBox="0 0 19.1955 27.8504">
       <g>
              <rect height="27.8504" opacity="0" width="19.1955" x="0" y="0" />
              <path d="M6.92765 19.1464C10.7075 19.1464 12.4543 18.1252 12.4543 15.8029L12.4543 3.79859C12.4543 1.33328 10.4833 0 6.92765 0C3.35992 0 1.39121 1.31836 1.39121 3.79859L1.39121 15.8029C1.39121 18.1252 3.14035 19.1464 6.92765 19.1464ZM6.92765 17.056C4.49049 17.056 3.49373 16.6562 3.49373 15.7392L3.49373 3.85081C3.49373 2.70811 4.63479 2.10252 6.92765 2.10252C9.20328 2.10252 10.3518 2.70811 10.3518 3.85081L10.3518 15.7392C10.3518 16.6562 9.3625 17.056 6.92765 17.056ZM6.92765 8.37175C7.62331 8.37175 8.5684 8.44526 8.78797 8.44526C9.37621 8.44526 9.63988 8.19366 9.69102 7.60081L9.81567 6.25601C9.91332 5.15534 9.10168 4.74057 6.92765 4.74057C4.74901 4.74057 3.93221 5.15534 4.02987 6.25601L4.15452 7.60081C4.20565 8.19366 4.46932 8.44526 5.05526 8.44526C5.27714 8.44526 6.23144 8.37175 6.92765 8.37175ZM6.92765 15.7435C9.18375 15.7435 9.94723 15.3575 9.79383 14.2327L9.69387 13.5985C9.56231 12.6857 8.81211 12.3927 6.92765 12.3927C5.04088 12.3927 4.28092 12.6857 4.14936 13.5985L4.05917 14.2327C3.89831 15.3575 4.65948 15.7435 6.92765 15.7435ZM11.7488 8.0012L12.8645 8.0012C13.4498 8.0012 13.8432 7.5555 13.8432 6.91746L13.8432 6.79257C13.8432 6.14476 13.4498 5.70137 12.8645 5.70137L11.7488 5.70137ZM2.09445 8.06835L2.09445 5.76105L0.978746 5.76105C0.395781 5.76105 0 6.20445 0 6.85225L0 6.98461C0 7.62265 0.395781 8.06835 0.978746 8.06835Z"
                     fill="currentColor" fill-opacity="0.85" />
              <path d="M14.7236 27.2873L12.5277 25.0913C11.9848 24.5485 11.9825 23.9551 12.4955 23.4421L14.5731 21.3645C15.0861 20.8516 15.6726 20.8395 16.2177 21.3921L18.4183 23.5927C18.9565 24.1309 18.9732 24.7289 18.4504 25.2441L16.3304 27.3717C15.8099 27.8846 15.2665 27.8301 14.7236 27.2873ZM12.4407 22.9305L11.2211 22.8288C10.988 22.8041 10.8042 22.7628 10.679 22.6376C10.4762 22.4423 10.4711 22.1614 10.6934 21.9414L13.0448 19.5899C13.255 19.3774 13.5359 19.3825 13.7313 19.5853C13.8565 19.7105 13.8978 19.8966 13.9173 20.1251L14.0265 21.347Z"
                     fill="currentColor" fill-opacity="0.85" />
       </g>
</svg>