<?xml version="1.0" encoding="UTF-8"?>
<!--Generator: Apple Native CoreSVG 326-->
<!DOCTYPE svg PUBLIC "-//W3C//DTD SVG 1.1//EN" "http://www.w3.org/Graphics/SVG/1.1/DTD/svg11.dtd">
<svg version="1.1" xmlns="http://www.w3.org/2000/svg" xmlns:xlink="http://www.w3.org/1999/xlink"
       viewBox="0 0 19.1955 27.8504">
       <g>
              <rect height="27.8504" opacity="0" width="19.1955" x="0" y="0" />
              <path d="M6.92765 19.1464C10.7075 19.1464 12.4543 18.1252 12.4543 15.8029L12.4543 3.79859C12.4543 1.33328 10.4833 0 6.92765 0C3.35992 0 1.39121 1.31836 1.39121 3.79859L1.39121 15.8029C1.39121 18.1252 3.14035 19.1464 6.92765 19.1464ZM6.92765 8.25347C6.18207 8.25347 5.17609 8.32699 4.92721 8.32699C4.31428 8.32699 4.02823 8.05816 3.97479 7.42339L3.84268 5.99476C3.73757 4.81773 4.6112 4.38574 6.92765 4.38574C9.23949 4.38574 10.108 4.81773 10.0029 5.99476L9.86613 7.42339C9.8173 8.05816 9.53641 8.32699 8.91602 8.32699C8.66945 8.32699 7.67269 8.25347 6.92765 8.25347ZM6.92765 16.1058C4.51421 16.1058 3.70135 15.7026 3.87198 14.4939L3.96964 13.8178C4.1035 12.8384 4.91284 12.5431 6.92765 12.5431C8.9327 12.5431 9.73972 12.8384 9.87129 13.8178L9.98101 14.4939C10.1493 15.7026 9.32902 16.1058 6.92765 16.1058ZM11.7488 8.0012L12.8645 8.0012C13.4498 8.0012 13.8432 7.5555 13.8432 6.91746L13.8432 6.79257C13.8432 6.14476 13.4498 5.70137 12.8645 5.70137L11.7488 5.70137ZM2.09445 8.06835L2.09445 5.76105L0.978746 5.76105C0.395781 5.76105 0 6.20445 0 6.85225L0 6.98461C0 7.62265 0.395781 8.06835 0.978746 8.06835Z"
                     fill="currentColor" fill-opacity="0.85" />
              <path d="M14.7236 27.2873L12.5277 25.0913C11.9848 24.5485 11.9825 23.9551 12.4955 23.4421L14.5731 21.3645C15.0861 20.8516 15.6726 20.8395 16.2177 21.3921L18.4183 23.5927C18.9565 24.1309 18.9732 24.7289 18.4504 25.2441L16.3304 27.3717C15.8099 27.8846 15.2665 27.8301 14.7236 27.2873ZM12.4407 22.9305L11.2211 22.8288C10.988 22.8041 10.8042 22.7628 10.679 22.6376C10.4762 22.4423 10.4711 22.1614 10.6934 21.9414L13.0448 19.5899C13.255 19.3774 13.5359 19.3825 13.7313 19.5853C13.8565 19.7105 13.8978 19.8966 13.9173 20.1251L14.0265 21.347Z"
                     fill="currentColor" fill-opacity="0.85" />
       </g>
</svg>