<?xml version="1.0" encoding="UTF-8"?>
<!--Generator: Apple Native CoreSVG 326-->
<!DOCTYPE svg PUBLIC "-//W3C//DTD SVG 1.1//EN" "http://www.w3.org/Graphics/SVG/1.1/DTD/svg11.dtd">
<svg version="1.1" xmlns="http://www.w3.org/2000/svg" xmlns:xlink="http://www.w3.org/1999/xlink"
       viewBox="0 0 20.1951 27.6299">
       <g>
              <rect height="27.6299" opacity="0" width="20.1951" x="0" y="0" />
              <path d="M9.90022 2.38263C12.0021 2.38263 13.9363 3.04791 15.2794 4.26697C15.7866 4.72299 16.4149 4.87287 16.938 4.44846C17.5031 3.97928 17.5852 3.17128 16.8892 2.49945C15.1612 0.841057 12.616 0 9.90022 0C7.19933 0 4.55199 0.923125 2.91871 2.49945C2.22505 3.17128 2.29965 3.97928 2.86988 4.44846C3.38788 4.87287 4.01616 4.72299 4.52846 4.26697C5.87393 3.04791 7.80807 2.38263 9.90022 2.38263Z"
                     fill="currentColor" fill-opacity="0.85" />
              <path d="M9.91229 6.73653C10.7563 6.73653 11.7484 7.04442 12.2994 7.4513C12.8238 7.83094 13.4274 7.95043 13.9356 7.56333C14.5007 7.12915 14.5403 6.25971 13.8896 5.65678C12.9618 4.80718 11.4747 4.35389 9.91229 4.35389C8.34245 4.35389 6.86281 4.80718 5.92749 5.65678C5.2843 6.25971 5.3239 7.12915 5.88898 7.56333C6.38975 7.95043 6.9985 7.82864 7.52517 7.4513C8.08315 7.04903 9.06826 6.73653 9.91229 6.73653Z"
                     fill="currentColor" fill-opacity="0.85" />
              <path d="M9.9169 22.6766C12.0061 22.6766 14.4734 22.6083 16.2157 22.4934L16.2157 24.0718C16.2157 24.6973 16.7046 25.1689 17.3301 25.1689L18.7171 25.1689C19.3427 25.1689 19.8338 24.6973 19.8338 24.0718L19.8338 18.9883C19.8338 17.4616 19.6574 16.5977 18.8629 15.6631L18.0921 14.7567C17.8066 13.3659 17.2867 11.9193 17.0133 11.3409C16.544 10.3208 15.6192 9.69181 14.4205 9.52755C13.7589 9.44427 12.1812 9.38798 9.9169 9.38798C7.65261 9.38798 6.07495 9.44427 5.41331 9.52755C4.21457 9.69181 3.2875 10.3208 2.81305 11.3409C2.53961 11.9193 2.02719 13.3659 1.73422 14.7567L0.970861 15.6631C0.176448 16.5977 0 17.4616 0 18.9883L0 24.0718C0 24.6973 0.491132 25.1689 1.11668 25.1689L2.5037 25.1689C3.12925 25.1689 3.61807 24.6973 3.61807 24.0718L3.61807 22.4934C5.36042 22.6083 7.82773 22.6766 9.9169 22.6766ZM3.99584 13.9135C4.12916 13.3554 4.37803 12.536 4.53726 12.2239C4.80432 11.6864 5.15807 11.4853 5.80412 11.3946C6.24545 11.3262 7.58795 11.2527 9.9169 11.2527C12.2459 11.2527 13.5884 11.3216 14.0297 11.3946C14.6757 11.4853 15.0197 11.6864 15.2965 12.2239C15.4581 12.5262 15.6977 13.3554 15.838 13.9135C15.9534 14.3706 15.7444 14.6445 15.2477 14.6399C14.3299 14.6019 12.9045 14.5238 9.9169 14.5238C6.92929 14.5238 5.50393 14.6019 4.57869 14.6399C4.08943 14.6445 3.87526 14.3706 3.99584 13.9135ZM3.97613 20.3342C3.14902 20.3342 2.52293 19.7104 2.52293 18.8885C2.52293 18.0665 3.14902 17.4525 3.97613 17.4525C4.79062 17.4525 5.4121 18.0665 5.4121 18.8885C5.4121 19.7104 4.79062 20.3342 3.97613 20.3342ZM7.66577 19.9523C7.04429 19.9523 6.60375 19.514 6.60375 18.9C6.60375 18.2837 7.04429 17.8454 7.66577 17.8454L12.168 17.8454C12.7895 17.8454 13.2226 18.2837 13.2226 18.9C13.2226 19.514 12.7895 19.9523 12.168 19.9523ZM15.8577 20.3342C15.0432 20.3342 14.4217 19.7104 14.4217 18.8885C14.4217 18.0665 15.0432 17.4525 15.8577 17.4525C16.6773 17.4525 17.3011 18.0665 17.3011 18.8885C17.3011 19.7104 16.6773 20.3342 15.8577 20.3342Z"
                     fill="currentColor" fill-opacity="0.85" />
       </g>
</svg>