<?xml version="1.0" encoding="UTF-8"?>
<!--Generator: Apple Native CoreSVG 326-->
<!DOCTYPE svg PUBLIC "-//W3C//DTD SVG 1.1//EN" "http://www.w3.org/Graphics/SVG/1.1/DTD/svg11.dtd">
<svg version="1.1" xmlns="http://www.w3.org/2000/svg" xmlns:xlink="http://www.w3.org/1999/xlink"
       viewBox="0 0 30.0292 26.8464">
       <g>
              <rect height="26.8464" opacity="0" width="30.0292" x="0" y="0" />
              <path d="M14.8328 26.8464C20.1375 26.8464 22.5154 25.4491 22.5154 22.293L22.5154 5.22795C22.5154 1.81683 19.8208 0.0051558 14.8328 0.0051558C9.85455 0.0051558 7.16221 1.83921 7.16221 5.22795L7.16221 22.293C7.16221 25.4491 9.53786 26.8464 14.8328 26.8464ZM14.8328 24.2405C11.3468 24.2405 9.78534 23.6207 9.78534 22.1925L9.78534 5.31002C9.78534 3.55845 11.5589 2.62083 14.8328 2.62083C18.1165 2.62083 19.8923 3.57337 19.8923 5.31002L19.8923 22.1925C19.8923 23.6207 18.3286 24.2405 14.8328 24.2405ZM14.8351 11.5827C15.8161 11.5827 17.1662 11.6734 17.4829 11.6734C18.2325 11.6734 18.545 11.3828 18.6059 10.6211L18.7794 8.70305C18.9041 7.28188 17.8208 6.72294 14.8351 6.72294C11.8494 6.72294 10.7638 7.28188 10.8907 8.70305L11.0642 10.6211C11.1228 11.3828 11.4376 11.6734 12.185 11.6734C12.4965 11.6734 13.8402 11.5827 14.8351 11.5827ZM14.8351 22.0325C17.9522 22.0325 18.9655 21.5367 18.7455 20.0713L18.6111 19.1677C18.4399 17.9735 17.4484 17.5829 14.8351 17.5829C12.2194 17.5829 11.2279 17.9735 11.0568 19.1677L10.9223 20.0713C10.7046 21.5367 11.7157 22.0325 14.8351 22.0325ZM8.13962 11.0128L8.13962 8.11584L6.75684 8.11584C6.03037 8.11584 5.55306 8.65568 5.55306 9.4843L5.55306 9.65693C5.55306 10.4781 6.03037 11.0128 6.75684 11.0128ZM21.5282 11.1023L22.911 11.1023C23.6398 11.1023 24.1148 10.5602 24.1148 9.74646L24.1148 9.57383C24.1148 8.74521 23.6398 8.20537 22.911 8.20537L21.5282 8.20537Z"
                     fill="currentColor" fill-opacity="0.85" />
              <path d="M30.0292 20.4351L30.0292 15.8931C30.0292 15.1293 29.3258 14.7658 28.6728 15.1609L24.9449 17.3868C24.3264 17.7572 24.3166 18.5807 24.9449 18.9511L28.6728 21.1724C29.3183 21.5526 30.0292 21.2236 30.0292 20.4351Z"
                     fill="currentColor" fill-opacity="0.85" />
       </g>
</svg>