<?xml version="1.0" encoding="UTF-8"?>
<!--Generator: Apple Native CoreSVG 326-->
<!DOCTYPE svg PUBLIC "-//W3C//DTD SVG 1.1//EN" "http://www.w3.org/Graphics/SVG/1.1/DTD/svg11.dtd">
<svg version="1.1" xmlns="http://www.w3.org/2000/svg" xmlns:xlink="http://www.w3.org/1999/xlink"
       viewBox="0 0 37.3482 19.0298">
       <g>
              <rect height="19.0298" opacity="0" width="37.3482" x="0" y="0" />
              <path d="M3.64834 19.0298L18.7162 19.0298C21.0551 19.0298 22.372 17.7175 22.372 15.393L22.372 3.63791C22.372 1.32667 21.0528 0.0172263 18.737 0.0172263L13.926 0.0172263C12.1253 0.0172263 10.9576 0.411248 9.50444 1.48996L1.86433 7.18683C0.487614 8.2155 0 9.21366 0 10.8787L0 15.393C0 17.7175 1.31921 19.0298 3.64834 19.0298ZM5.23638 9.49619C4.74865 9.49619 4.589 8.90971 5.01177 8.60182L11.6082 3.66957C12.2294 3.19203 12.7357 3.03687 13.5679 3.03687L18.3272 3.03687C18.9966 3.03687 19.3449 3.34324 19.3449 4.05923L19.3449 8.46637C19.3449 9.04576 18.9943 9.49619 18.3272 9.49619Z"
                     fill="currentColor" fill-opacity="0.85" />
              <path d="M27.6073 14.8726C28.1786 14.8726 28.4015 14.6607 28.9057 14.1835L31.6129 11.5066L34.3179 14.1812C34.8197 14.6584 35.0575 14.8703 35.6214 14.8703C36.3919 14.8703 36.9869 14.2926 36.9869 13.5541C36.9869 13.0471 36.7325 12.7497 36.3219 12.3293L33.5211 9.52155L36.3145 6.69886C36.7251 6.29343 36.9869 5.98105 36.9869 5.47403C36.9869 4.7356 36.3942 4.16768 35.6237 4.16768C35.0598 4.16768 34.822 4.36463 34.3179 4.85673L31.6106 7.52384L28.908 4.85673C28.4061 4.36463 28.166 4.1453 27.5597 4.1453C26.8241 4.1453 26.2464 4.69084 26.2464 5.45395C26.2464 5.99312 26.5008 6.30035 26.9016 6.70347L29.7024 9.52155L26.9016 12.3316C26.491 12.752 26.2441 13.0494 26.2441 13.5588C26.2441 14.2972 26.8367 14.8726 27.6073 14.8726Z"
                     fill="currentColor" fill-opacity="0.85" />
       </g>
</svg>