<?xml version="1.0" encoding="UTF-8"?>
<!--Generator: Apple Native CoreSVG 326-->
<!DOCTYPE svg PUBLIC "-//W3C//DTD SVG 1.1//EN" "http://www.w3.org/Graphics/SVG/1.1/DTD/svg11.dtd">
<svg version="1.1" xmlns="http://www.w3.org/2000/svg" xmlns:xlink="http://www.w3.org/1999/xlink"
       viewBox="0 0 14.2046 27.231">
       <g>
              <rect height="27.231" opacity="0" width="14.2046" x="0" y="0" />
              <path d="M6.90296 24.9506C5.34835 24.9506 3.97006 24.3979 2.86588 23.4655C2.25944 22.9549 1.62601 22.9256 1.22343 23.3431C0.727266 23.8295 0.716954 24.537 1.26996 25.0401C2.79964 26.4206 4.7689 27.1541 6.90296 27.1541C9.04679 27.1541 11.016 26.428 12.5457 25.055C13.089 24.537 13.0861 23.8295 12.5848 23.3431C12.1799 22.9256 11.5465 22.9475 10.94 23.4655C9.85825 24.4278 8.45988 24.9506 6.90296 24.9506Z"
                     fill="currentColor" fill-opacity="0.85" />
              <path d="M6.90296 21.1275C6.18019 21.1275 5.57745 20.916 5.05866 20.5643C4.38901 20.1083 3.84456 20.0756 3.44429 20.4782C2.93266 20.9801 2.98203 21.7157 3.53328 22.1671C4.39241 22.8649 5.5914 23.3309 6.90296 23.3309C8.20937 23.3309 9.41582 22.8649 10.2801 22.1671C10.8314 21.7157 10.8658 20.9801 10.3616 20.4782C9.9539 20.0756 9.41691 20.1009 8.74727 20.5643C8.23824 20.916 7.62805 21.1275 6.90296 21.1275Z"
                     fill="currentColor" fill-opacity="0.85" />
              <path d="M6.92535 19.1539C10.7126 19.1539 12.4543 18.1327 12.4543 15.8104L12.4543 3.80605C12.4543 1.32582 10.4908 0 6.92535 0C3.36738 0 1.39121 1.33328 1.39121 3.80605L1.39121 15.8104C1.39121 18.1327 3.1455 19.1539 6.92535 19.1539ZM6.92535 17.0635C4.49049 17.0635 3.49373 16.6636 3.49373 15.7466L3.49373 3.85827C3.49373 2.71327 4.64225 2.10998 6.92535 2.10998C9.2182 2.10998 10.3518 2.71327 10.3518 3.85827L10.3518 15.7466C10.3518 16.6636 9.3625 17.0635 6.92535 17.0635ZM2.09445 8.00866L2.09445 5.70883L0.978746 5.70883C0.395781 5.70883 0 6.15222 0 6.80003L0 6.92492C0 7.56296 0.395781 8.00866 0.978746 8.00866ZM11.7488 8.07581L12.8645 8.07581C13.4498 8.07581 13.8432 7.62265 13.8432 6.98461L13.8432 6.85972C13.8432 6.21191 13.4498 5.76851 12.8645 5.76851L11.7488 5.76851ZM6.92535 8.37921C7.62331 8.37921 8.5684 8.45273 8.78797 8.45273C9.37621 8.45273 9.63988 8.20112 9.69102 7.60827L9.81567 6.26347C9.91332 5.1628 9.10168 4.74804 6.92535 4.74804C4.74901 4.74804 3.93221 5.1628 4.02987 6.26347L4.15452 7.60827C4.20565 8.20112 4.46932 8.45273 5.05526 8.45273C5.27714 8.45273 6.23144 8.37921 6.92535 8.37921ZM6.92535 15.751C9.18375 15.751 9.94723 15.365 9.79383 14.2402L9.69387 13.6059C9.56231 12.6931 8.81211 12.4002 6.92535 12.4002C5.04088 12.4002 4.28092 12.6931 4.14936 13.6059L4.05917 14.2402C3.89831 15.365 4.65948 15.751 6.92535 15.751Z"
                     fill="currentColor" fill-opacity="0.85" />
       </g>
</svg>