<?xml version="1.0" encoding="UTF-8"?>
<!--Generator: Apple Native CoreSVG 326-->
<!DOCTYPE svg PUBLIC "-//W3C//DTD SVG 1.1//EN" "http://www.w3.org/Graphics/SVG/1.1/DTD/svg11.dtd">
<svg version="1.1" xmlns="http://www.w3.org/2000/svg" xmlns:xlink="http://www.w3.org/1999/xlink"
       viewBox="0 0 37.581 18.4744">
       <g>
              <rect height="18.4744" opacity="0" width="37.581" x="0" y="0" />
              <path d="M32.5073 4.34552L34.0078 4.87802C36.1095 5.62524 37.2197 6.92219 37.2197 9.02956L37.2197 11.8316C37.2197 14.4181 35.9246 15.7769 33.48 15.7769L32.4987 15.7769C31.8184 17.0943 30.4472 17.9758 28.831 17.9758C27.22 17.9758 25.8504 17.0943 25.1705 15.7769L12.0469 15.7769C11.3672 17.0943 9.99806 17.9758 8.38867 17.9758C6.77249 17.9758 5.4013 17.0943 4.72096 15.7769L3.73963 15.7769C1.29968 15.7769 0 14.4376 0 11.9051L0 10.6626C0 7.9625 1.89945 5.96946 4.99248 5.60013L7.32052 5.31878L9.1929 7.77783L5.33701 8.24959C3.54177 8.45928 2.66899 9.35159 2.66899 10.6626L2.66899 11.8316C2.66899 12.6678 3.02813 13.1079 3.73963 13.1079L4.32341 13.1079C4.66129 11.1562 6.32531 9.71934 8.38867 9.71934C10.4434 9.71934 12.1064 11.1562 12.4442 13.1079L24.7732 13.1079C25.111 11.1562 26.7743 9.71934 28.831 9.71934C30.8943 9.71934 32.5584 11.1562 32.8962 13.1079L33.48 13.1079C34.1915 13.1079 34.5507 12.6678 34.5507 11.8316L34.5507 9.20862C34.5507 8.35483 34.0928 7.77119 33.2108 7.49193L32.198 7.16736C31.5001 6.94451 31.1516 6.78487 30.618 6.31733C28.0462 4.08046 26.1045 3.16303 23.6354 3.16303L22.0242 3.16303C18.206 3.16303 16.9656 3.46292 14.785 4.82549L13.3955 5.70023C13.366 5.66386 13.3332 5.62172 13.2957 5.57332L11.7548 3.55835L13.3558 2.54755C15.9424 0.916815 17.7489 0.494042 22.0242 0.494042L23.6354 0.494042C27.5363 0.494042 30.557 2.644 32.5073 4.34552ZM6.79706 13.8524C6.79706 14.7344 7.49691 15.4268 8.38867 15.4268C9.27067 15.4268 9.96306 14.7344 9.96306 13.8524C9.96306 12.9607 9.27067 12.2608 8.38867 12.2608C7.49691 12.2608 6.79706 12.9607 6.79706 13.8524ZM27.2543 13.8524C27.2543 14.7344 27.949 15.4268 28.831 15.4268C29.7204 15.4268 30.4226 14.7344 30.4226 13.8524C30.4226 12.9607 29.7204 12.2608 28.831 12.2608C27.949 12.2608 27.2543 12.9607 27.2543 13.8524Z"
                     fill="currentColor" fill-opacity="0.85" />
              <path d="M3.76868 3.19233L6.10388 3.19233C7.21025 3.19233 7.59056 3.36295 8.15236 4.09077L10.7122 7.4755C11.5968 8.6387 12.6014 9.1396 14.0432 9.1396L16.2565 9.1396L16.2565 9.88245C16.2565 10.663 16.9291 10.8905 17.5041 10.5212L19.9799 8.92421C20.5158 8.58417 20.5256 7.91616 19.9776 7.56636L17.5213 5.98663C16.9291 5.60007 16.2565 5.82753 16.2565 6.62534L16.2565 7.34351L14.0432 7.34351C13.1029 7.34351 12.7616 7.16081 12.1487 6.36464L9.56188 2.99198C8.69681 1.84831 7.66286 1.39624 6.10388 1.39624L3.76868 1.39624C3.27931 1.39624 2.86806 1.80003 2.86806 2.29686C2.86806 2.78624 3.27931 3.19233 3.76868 3.19233Z"
                     fill="currentColor" fill-opacity="0.85" />
       </g>
</svg>