<?xml version="1.0" encoding="UTF-8"?>
<!--Generator: Apple Native CoreSVG 326-->
<!DOCTYPE svg PUBLIC "-//W3C//DTD SVG 1.1//EN" "http://www.w3.org/Graphics/SVG/1.1/DTD/svg11.dtd">
<svg version="1.1" xmlns="http://www.w3.org/2000/svg" xmlns:xlink="http://www.w3.org/1999/xlink"
       viewBox="0 0 37.581 28.1303">
       <g>
              <rect height="28.1303" opacity="0" width="37.581" x="0" y="0" />
              <path d="M32.5073 9.17344L34.0078 9.70594C36.1095 10.4532 37.2197 11.7501 37.2197 13.8575L37.2197 16.6596C37.2197 19.246 35.9246 20.6048 33.48 20.6048L32.4987 20.6048C31.8184 21.9222 30.4472 22.8037 28.831 22.8037C27.22 22.8037 25.8504 21.9222 25.1705 20.6048L12.0469 20.6048C11.3672 21.9222 9.99806 22.8037 8.38867 22.8037C6.77249 22.8037 5.4013 21.9222 4.72096 20.6048L3.73963 20.6048C1.29968 20.6048 0 19.2655 0 16.7331L0 15.4905C0 12.7904 1.89945 10.7974 4.99248 10.428L9.35596 9.90071L13.3558 7.37547C14.305 6.77702 15.1492 6.34125 16.0494 6.03058L16.1585 8.58241C16.1631 8.68165 16.1716 8.77902 16.1847 8.87398C15.7396 9.08213 15.2873 9.33958 14.785 9.65341L11.0128 12.0281C10.5206 12.3245 9.99333 12.5059 9.37009 12.5841L5.33701 13.0775C3.54177 13.2872 2.66899 14.1795 2.66899 15.4905L2.66899 16.6596C2.66899 17.4957 3.02813 17.9358 3.73963 17.9358L4.32341 17.9358C4.66129 15.9841 6.32531 14.5473 8.38867 14.5473C10.4434 14.5473 12.1064 15.9841 12.4442 17.9358L24.7732 17.9358C25.111 15.9841 26.7743 14.5473 28.831 14.5473C30.8943 14.5473 32.5584 15.9841 32.8962 17.9358L33.48 17.9358C34.1915 17.9358 34.5507 17.4957 34.5507 16.6596L34.5507 14.0365C34.5507 13.1827 34.0928 12.5991 33.2108 12.3199L32.198 11.9953C31.5001 11.7724 31.1516 11.6128 30.618 11.1452C28.0462 8.90837 26.1045 7.99095 23.6354 7.99095L22.1876 7.99095L22.2937 5.32196L23.6354 5.32196C27.5363 5.32196 30.557 7.47192 32.5073 9.17344ZM6.79706 18.6804C6.79706 19.5624 7.49691 20.2548 8.38867 20.2548C9.27067 20.2548 9.96306 19.5624 9.96306 18.6804C9.96306 17.7886 9.27067 17.0888 8.38867 17.0888C7.49691 17.0888 6.79706 17.7886 6.79706 18.6804ZM27.2543 18.6804C27.2543 19.5624 27.949 20.2548 28.831 20.2548C29.7204 20.2548 30.4226 19.5624 30.4226 18.6804C30.4226 17.7886 29.7204 17.0888 28.831 17.0888C27.949 17.0888 27.2543 17.7886 27.2543 18.6804Z"
                     fill="currentColor" fill-opacity="0.85" />
              <path d="M19.177 14.7688C20.2732 14.7688 21.0382 14.0509 21.0382 13.0361C21.0382 12.0266 20.2755 11.3133 19.177 11.3133C18.0612 11.3133 17.2761 12.0266 17.2761 13.0361C17.2761 14.0509 18.0635 14.7688 19.177 14.7688ZM19.177 9.97028C20.0957 9.97028 20.6664 9.4345 20.7083 8.48881L20.9209 3.19373C20.9628 2.15093 20.2668 1.45726 19.162 1.45726C18.04 1.45726 17.3366 2.15093 17.386 3.19373L17.6134 8.5112C17.6553 9.4345 18.2433 9.97028 19.177 9.97028Z"
                     fill="currentColor" fill-opacity="0.85" />
       </g>
</svg>