<?xml version="1.0" encoding="UTF-8"?>
<!--Generator: Apple Native CoreSVG 326-->
<!DOCTYPE svg PUBLIC "-//W3C//DTD SVG 1.1//EN" "http://www.w3.org/Graphics/SVG/1.1/DTD/svg11.dtd">
<svg version="1.1" xmlns="http://www.w3.org/2000/svg" xmlns:xlink="http://www.w3.org/1999/xlink"
       viewBox="0 0 14.2046 27.3851">
       <g>
              <rect height="27.3851" opacity="0" width="14.2046" x="0" y="0" />
              <path d="M6.93281 2.25337C8.48226 2.25337 9.88063 2.78369 10.9699 3.746C11.5689 4.25654 12.2023 4.27838 12.6072 3.86834C13.1085 3.38194 13.1114 2.66699 12.5681 2.15644C11.0459 0.775973 9.06917 0.0499201 6.93281 0.0499201C4.79128 0.0499201 2.82202 0.783434 1.29234 2.1639C0.739337 2.66699 0.749648 3.38194 1.24582 3.86834C1.64839 4.27838 2.28182 4.24908 2.89572 3.746C3.99244 2.80607 5.37073 2.25337 6.93281 2.25337Z"
                     fill="currentColor" fill-opacity="0.85" />
              <path d="M6.93281 6.07653C7.65789 6.07653 8.26063 6.29543 8.77711 6.63966C9.44676 7.11059 9.98374 7.12836 10.3915 6.72579C10.8956 6.22392 10.8537 5.48834 10.3025 5.03925C9.4382 4.33909 8.23922 3.87307 6.93281 3.87307C5.62124 3.87307 4.41479 4.33909 3.55566 5.03925C3.01188 5.48834 2.9625 6.22392 3.47414 6.72579C3.86695 7.12836 4.41886 7.10313 5.0885 6.63966C5.59983 6.29543 6.21003 6.07653 6.93281 6.07653Z"
                     fill="currentColor" fill-opacity="0.85" />
              <path d="M6.92535 27.3851C10.7126 27.3851 12.4543 26.3639 12.4543 24.0415L12.4543 12.0372C12.4543 9.55697 10.4908 8.23115 6.92535 8.23115C3.36738 8.23115 1.39121 9.56443 1.39121 12.0372L1.39121 24.0415C1.39121 26.3639 3.1455 27.3851 6.92535 27.3851ZM6.92535 25.2946C4.49049 25.2946 3.49373 24.8873 3.49373 23.9703L3.49373 12.0894C3.49373 10.9444 4.64225 10.3337 6.92535 10.3337C9.2182 10.3337 10.3518 10.9444 10.3518 12.0894L10.3518 23.9703C10.3518 24.8873 9.3625 25.2946 6.92535 25.2946ZM2.09445 16.2398L2.09445 13.9325L0.978746 13.9325C0.395781 13.9325 0 14.3759 0 15.0312L0 15.1561C0 15.7941 0.395781 16.2398 0.978746 16.2398ZM11.7488 16.2995L12.8645 16.2995C13.4498 16.2995 13.8432 15.8538 13.8432 15.2158L13.8432 15.0909C13.8432 14.4431 13.4498 13.9997 12.8645 13.9997L11.7488 13.9997ZM6.92535 16.6104C7.62331 16.6104 8.5684 16.6764 8.78797 16.6764C9.37621 16.6764 9.63988 16.4323 9.69102 15.8394L9.81567 14.4872C9.91332 13.394 9.10168 12.9792 6.92535 12.9792C4.74901 12.9792 3.93221 13.394 4.02987 14.4872L4.15452 15.8394C4.20565 16.4323 4.46932 16.6764 5.05526 16.6764C5.27714 16.6764 6.23144 16.6104 6.92535 16.6104ZM6.92535 23.9821C9.18375 23.9821 9.94723 23.5961 9.79383 22.4713L9.69387 21.8371C9.56231 20.9168 8.81211 20.6313 6.92535 20.6313C5.04088 20.6313 4.28092 20.9168 4.14936 21.8371L4.05917 22.4713C3.89831 23.5961 4.65948 23.9821 6.92535 23.9821Z"
                     fill="currentColor" fill-opacity="0.85" />
       </g>
</svg>