<?xml version="1.0" encoding="UTF-8"?>
<!--Generator: Apple Native CoreSVG 326-->
<!DOCTYPE svg PUBLIC "-//W3C//DTD SVG 1.1//EN" "http://www.w3.org/Graphics/SVG/1.1/DTD/svg11.dtd">
<svg version="1.1" xmlns="http://www.w3.org/2000/svg" xmlns:xlink="http://www.w3.org/1999/xlink"
       viewBox="0 0 29.0246 22.131">
       <g>
              <rect height="22.131" opacity="0" width="29.0246" x="0" y="0" />
              <path d="M1.13096 14.6458L2.36197 14.6458C3.12005 14.6458 3.52032 14.2456 3.7311 13.7281L8.81724 1.0835C9.04118 0.522492 8.73056 0.00746071 8.15693 0.00746071L7.5067 0.00746071C7.07483 0.00746071 6.70561 0.223396 6.48452 0.653509L0.153002 13.0609C-0.225432 13.7908 0.0972587 14.6458 1.13096 14.6458ZM26.3013 14.6384L27.5301 14.6384C28.5661 14.6384 28.8888 13.7833 28.5178 13.0534L22.1788 0.653509C21.9502 0.215936 21.5885 0 21.1641 0L20.5138 0C19.9305 0 19.6198 0.522492 19.8461 1.07604L24.9397 13.7206C25.143 14.2381 25.541 14.6384 26.3013 14.6384ZM8.25653 11.2478C8.25653 11.6315 8.55235 11.9273 8.93091 11.9273L9.54438 11.9273C9.92063 11.9273 10.2188 11.6315 10.2188 11.2478L10.2188 10.6319L18.3922 10.6319L18.3922 11.2478C18.3922 11.6315 18.6903 11.9273 19.0666 11.9273L19.6801 11.9273C20.0563 11.9273 20.3544 11.6315 20.3544 11.2478L20.3544 7.85921C20.3544 6.92929 20.2694 6.37902 19.7616 5.81491L19.2658 5.25773L18.7506 3.83765C18.3928 2.85035 17.7736 2.48848 17.0378 2.39543C16.626 2.34145 15.666 2.30469 14.3018 2.30469C12.9375 2.30469 11.985 2.34145 11.5709 2.39543C10.8374 2.48848 10.2182 2.85035 9.8604 3.83765L9.34513 5.25773L8.84938 5.81491C8.34157 6.37902 8.25653 6.92929 8.25653 7.85921ZM11.168 5.41386C10.8441 5.41386 10.6764 5.218 10.7746 4.92855L11.0624 4.11733C11.202 3.74569 11.4449 3.63827 11.8423 3.58429C12.0998 3.55269 12.9575 3.52855 14.3018 3.52855C15.6437 3.52855 16.5014 3.55269 16.7663 3.58429C17.1638 3.63827 17.4141 3.74569 17.5388 4.11733L17.8266 4.92855C17.9271 5.218 17.7572 5.41386 17.4407 5.41386ZM10.5389 8.60249C10.1816 8.60249 9.91457 8.34057 9.91457 7.98792L9.91457 7.25604C9.91457 6.90108 10.1816 6.64147 10.5389 6.64147C10.8916 6.64147 11.1609 6.90108 11.1609 7.25604L11.1609 7.98792C11.1609 8.34288 10.8916 8.60249 10.5389 8.60249ZM13.2258 8.36811C12.9317 8.36811 12.7307 8.15733 12.7307 7.84374L12.7307 7.39792C12.7307 7.09179 12.9317 6.88331 13.2258 6.88331L15.3559 6.88331C15.6597 6.88331 15.863 7.09179 15.863 7.39792L15.863 7.84374C15.863 8.16479 15.6523 8.36811 15.3559 8.36811ZM18.1134 8.60249C17.7683 8.60249 17.4914 8.34057 17.4914 7.98792L17.4914 7.25604C17.4914 6.90854 17.7683 6.64147 18.1134 6.64147C18.4684 6.64147 18.7378 6.90108 18.7378 7.25604L18.7378 7.98792C18.7378 8.35034 18.4684 8.60249 18.1134 8.60249Z"
                     fill="currentColor" fill-opacity="0.85" />
              <path d="M9.01412 22.1236C11.0622 22.1236 12.0369 20.6291 12.0369 18.5776C12.0369 16.564 11.1024 15.0219 9.01412 15.0219C6.99937 15.0219 5.98102 16.5197 5.98102 18.5776C5.98102 20.5476 6.91379 22.1236 9.01412 22.1236ZM9.01412 20.4617C8.22475 20.4617 8.04884 19.2952 8.04884 18.5776C8.04884 17.7939 8.24143 16.6935 9.01412 16.6935C9.81788 16.6935 9.98401 17.8003 9.98401 18.5776C9.98401 19.3286 9.81381 20.4617 9.01412 20.4617ZM13.8616 22.0501C14.5869 22.0501 14.8821 21.578 14.8821 21.005L14.8821 19.5883L16.2781 19.5883C16.7869 19.5883 17.1113 19.2857 17.1113 18.7941C17.1113 18.3025 16.7892 18.0051 16.2781 18.0051L14.8821 18.0051L14.8821 16.8652L16.4292 16.8652C16.9822 16.8652 17.3267 16.5529 17.3267 16.0343C17.3267 15.5232 16.9822 15.2011 16.4292 15.2011L13.8593 15.2011C13.3413 15.2011 12.8561 15.4974 12.8561 16.2583L12.8561 21.005C12.8561 21.6303 13.2058 22.0501 13.8616 22.0501ZM19.0389 22.0501C19.7618 22.0501 20.0495 21.578 20.0495 21.005L20.0495 19.5883L21.4456 19.5883C21.9544 19.5883 22.2811 19.2857 22.2811 18.7941C22.2811 18.3025 21.9567 18.0051 21.4456 18.0051L20.0495 18.0051L20.0495 16.8652L21.5967 16.8652C22.1669 16.8652 22.504 16.5529 22.504 16.0343C22.504 15.5232 22.1669 15.2011 21.5967 15.2011L19.0366 15.2011C18.5111 15.2011 18.0259 15.4974 18.0259 16.2583L18.0259 21.005C18.0259 21.6303 18.3756 22.0501 19.0389 22.0501Z"
                     fill="currentColor" fill-opacity="0.85" />
       </g>
</svg>