<?xml version="1.0" encoding="UTF-8"?>
<!--Generator: Apple Native CoreSVG 326-->
<!DOCTYPE svg PUBLIC "-//W3C//DTD SVG 1.1//EN" "http://www.w3.org/Graphics/SVG/1.1/DTD/svg11.dtd">
<svg version="1.1" xmlns="http://www.w3.org/2000/svg" xmlns:xlink="http://www.w3.org/1999/xlink"
       viewBox="0 0 37.3639 20.6601">
       <g>
              <rect height="20.6601" opacity="0" width="37.3639" x="0" y="0" />
              <path d="M8.08218 5.91615L9.0101 5.91615C9.61071 5.91615 10.0712 5.45565 10.0712 4.85503L10.0712 1.13057C10.0712 0.529953 9.61071 0.0694513 9.0101 0.0694513L8.08218 0.0694513C7.48156 0.0694513 7.02106 0.529953 7.02106 1.13057L7.02106 4.85503C7.02106 5.45565 7.48156 5.91615 8.08218 5.91615ZM8.08218 13.2683L9.0101 13.2683C9.61071 13.2683 10.0712 12.8078 10.0712 12.2072L10.0712 8.48506C10.0712 7.88444 9.61071 7.42394 9.0101 7.42394L8.08218 7.42394C7.48156 7.42394 7.02106 7.88444 7.02106 8.48506L7.02106 12.2072C7.02106 12.8078 7.48156 13.2683 8.08218 13.2683ZM8.08218 20.6601L9.0101 20.6601C9.61071 20.6601 10.0712 20.1996 10.0712 19.6013L10.0712 15.8149C10.0712 15.2142 9.61071 14.7537 9.0101 14.7537L8.08218 14.7537C7.48156 14.7537 7.02106 15.2142 7.02106 15.8149L7.02106 19.6013C7.02106 20.1996 7.48156 20.6601 8.08218 20.6601ZM27.9976 5.91615L28.9279 5.91615C29.5285 5.91615 29.989 5.45565 29.989 4.85503L29.989 1.13057C29.989 0.529953 29.5285 0.0694513 28.9279 0.0694513L27.9976 0.0694513C27.3993 0.0694513 26.9388 0.529953 26.9388 1.13057L26.9388 4.85503C26.9388 5.45565 27.3993 5.91615 27.9976 5.91615ZM27.9976 13.2683L28.9279 13.2683C29.5285 13.2683 29.989 12.8078 29.989 12.2072L29.989 8.48506C29.989 7.88444 29.5285 7.42394 28.9279 7.42394L27.9976 7.42394C27.3993 7.42394 26.9388 7.88444 26.9388 8.48506L26.9388 12.2072C26.9388 12.8078 27.3993 13.2683 27.9976 13.2683ZM27.9976 20.6601L28.9279 20.6601C29.5285 20.6601 29.989 20.1996 29.989 19.6013L29.989 15.8149C29.989 15.2142 29.5285 14.7537 28.9279 14.7537L27.9976 14.7537C27.3993 14.7537 26.9388 15.2142 26.9388 15.8149L26.9388 19.6013C26.9388 20.1996 27.3993 20.6601 27.9976 20.6601ZM0 12.5999C0 13.3809 0.713195 13.7249 1.36616 13.3372L5.08662 11.116C5.71259 10.7455 5.70282 9.9146 5.08662 9.55163L1.36385 7.32574C0.703429 6.93062 0 7.28667 0 8.05792ZM37.0026 12.5999L37.0026 8.05792C37.0026 7.28667 36.2991 6.93293 35.6364 7.32574L31.9085 9.55163C31.2997 9.9169 31.29 10.7432 31.9085 11.116L35.6364 13.3372C36.2917 13.7151 37.0026 13.3809 37.0026 12.5999Z"
                     fill="currentColor" fill-opacity="0.85" />
              <path d="M18.5016 19.6601C22.1973 19.6601 23.8993 18.655 23.8993 16.3868L23.8993 8.86118L24.3048 8.86118C24.8711 8.86118 25.26 8.4224 25.2577 7.80104L25.2554 7.68306C25.2433 7.04447 24.8711 6.60799 24.2951 6.60799L23.8993 6.60799L23.8993 4.69963C23.8993 2.28328 21.9847 0.990271 18.5039 0.992576C15.0351 0.992576 13.1108 2.28843 13.1108 4.69963L13.1108 6.54831L12.715 6.54831C12.1389 6.54831 11.757 6.98479 11.7547 7.62107L11.7524 7.74135C11.7501 8.36271 12.1389 8.8015 12.7052 8.8015L13.1108 8.8015L13.1108 16.3868C13.1108 18.655 14.8179 19.6601 18.5016 19.6601ZM18.5039 17.6191C16.1346 17.6094 15.1735 17.2164 15.1735 16.3253L15.1735 4.76162C15.1735 3.63736 16.2795 3.05306 18.5016 3.05306C20.738 3.05306 21.8388 3.63736 21.8388 4.75186L21.8388 16.3253C21.8388 17.2164 20.8754 17.6094 18.5039 17.6191ZM18.5039 9.15767C19.1788 9.16744 20.1095 9.23119 20.3222 9.23349C20.8868 9.23349 21.1505 8.99396 21.1993 8.41263L21.3216 7.09834C21.417 6.03564 20.6238 5.6301 18.5062 5.62779C16.3885 5.62779 15.5907 6.03564 15.6884 7.10064L15.813 8.41033C15.8619 8.99396 16.1186 9.23349 16.6879 9.23119C16.9028 9.23349 17.822 9.16744 18.5039 9.15767ZM18.5039 16.3464C20.7013 16.3441 21.4509 15.965 21.2923 14.8707L21.2045 14.2554C21.0775 13.3588 20.3365 13.0802 18.5062 13.0825C16.6735 13.0802 15.9325 13.3611 15.8056 14.2554L15.7177 14.8684C15.5568 15.9673 16.3088 16.3441 18.5039 16.3464Z"
                     fill="currentColor" fill-opacity="0.85" />
       </g>
</svg>