<?xml version="1.0" encoding="UTF-8"?>
<!--Generator: Apple Native CoreSVG 326-->
<!DOCTYPE svg PUBLIC "-//W3C//DTD SVG 1.1//EN" "http://www.w3.org/Graphics/SVG/1.1/DTD/svg11.dtd">
<svg version="1.1" xmlns="http://www.w3.org/2000/svg" xmlns:xlink="http://www.w3.org/1999/xlink"
       viewBox="0 0 37.429 24.0083">
       <g>
              <rect height="24.0083" opacity="0" width="37.429" x="0" y="0" />
              <path d="M14.0176 1.71865C13.497 2.19911 13.0662 2.78507 12.7484 3.4685C12.6668 3.64762 12.5699 3.88023 12.4638 4.15558C10.3966 4.16634 9.14336 4.20349 8.67612 4.26594C7.85781 4.37907 7.41794 4.63637 7.0722 5.31918C6.87676 5.70652 6.55723 6.68521 6.39 7.36917C6.24473 7.96178 6.50828 8.31486 7.1428 8.30279C7.95426 8.27458 9.08375 8.22187 10.9713 8.19293L10.6322 8.59029C9.39156 10.1905 9.02902 11.6402 9.02902 13.8895L9.02902 18.4807C7.68127 18.4361 6.41969 18.3744 5.41064 18.3014L5.41064 20.1635C5.41064 20.9533 4.79201 21.5645 4.00967 21.5645L2.75288 21.5645C1.96823 21.5645 1.3496 20.9533 1.3496 20.1635L1.3496 13.8895C1.3496 11.9556 1.62194 10.9033 2.57491 9.67173L3.5519 8.51775C3.92069 6.75994 4.56522 4.92169 4.91448 4.19158C5.51412 2.89408 6.69388 2.09342 8.20161 1.89987C9.04989 1.78444 11.017 1.71839 13.8349 1.71839C13.897 1.71839 13.9587 1.71842 14.0176 1.71865ZM3.96127 13.4288C3.96127 14.3513 4.65111 15.0434 5.56841 15.0434C6.49087 15.0434 7.18301 14.3513 7.18301 13.4288C7.18301 12.5115 6.49087 11.8217 5.56841 11.8217C4.65111 11.8217 3.96127 12.5115 3.96127 13.4288Z"
                     fill="currentColor" fill-opacity="0.85" />
              <path d="M15.793 7.36917C15.9527 6.68521 16.2746 5.70652 16.4775 5.31918C16.8157 4.63637 17.2556 4.37907 18.0814 4.26594C18.6422 4.19067 20.3397 4.15215 23.2327 4.15215C26.1235 4.15215 27.8209 4.1786 28.3915 4.26594C29.2098 4.38137 29.6474 4.63637 29.988 5.31918C30.1932 5.70422 30.5058 6.68521 30.6702 7.36917C30.8126 7.96178 30.5594 8.31486 29.9174 8.30279C28.7738 8.26251 26.967 8.17231 23.2327 8.17231C19.5036 8.17231 17.6968 8.26251 16.5458 8.30279C15.9061 8.31486 15.6477 7.96178 15.793 7.36917ZM15.7515 15.5857C14.7113 15.5857 13.9256 14.7977 13.9256 13.7598C13.9256 12.7196 14.7113 11.9264 15.7515 11.9264C16.7894 11.9264 17.5826 12.7196 17.5826 13.7598C17.5826 14.7977 16.7894 15.5857 15.7515 15.5857ZM20.4285 15.1055C19.6525 15.1055 19.0891 14.5496 19.0891 13.7713C19.0891 12.9879 19.6525 12.4319 20.4285 12.4319L26.0347 12.4319C26.813 12.4319 27.3764 12.9879 27.3764 13.7713C27.3764 14.5496 26.813 15.1055 26.0347 15.1055ZM30.7065 15.5857C29.6686 15.5857 28.8805 14.7977 28.8805 13.7598C28.8805 12.7196 29.6686 11.9264 30.7065 11.9264C31.7518 11.9264 32.5399 12.7196 32.5399 13.7598C32.5399 14.7977 31.7518 15.5857 30.7065 15.5857ZM23.2327 18.5656C26.7453 18.5656 31.1455 18.3996 33.0233 18.1848C34.6998 17.9786 35.7106 16.9627 35.7106 15.3471L35.7106 13.8895C35.7106 11.9556 35.4382 10.9033 34.4927 9.67173L33.5158 8.51775C33.147 6.75994 32.495 4.92169 32.1532 4.19158C31.5461 2.89408 30.3738 2.09803 28.8586 1.89987C28.0103 1.78214 26.0432 1.71839 23.2327 1.71839C20.4199 1.71839 18.4529 1.78444 17.5971 1.89987C16.0894 2.09342 14.9119 2.89408 14.31 4.19158C13.9705 4.92169 13.3162 6.75994 12.9497 8.51775L11.9704 9.67173C11.0272 10.9033 10.7549 11.9556 10.7549 13.8895L10.7549 15.3471C10.7549 16.9627 11.7559 17.986 13.4421 18.1848C15.3177 18.3921 19.7202 18.5656 23.2327 18.5656ZM12.1558 21.5645L13.4052 21.5645C14.1973 21.5645 14.8061 20.9533 14.8061 20.1635L14.8061 17.523L10.7549 15.2607L10.7549 20.1635C10.7549 20.9533 11.3637 21.5645 12.1558 21.5645ZM33.0603 21.5645L34.3073 21.5645C35.0994 21.5645 35.7106 20.9533 35.7106 20.1635L35.7106 15.2607L31.657 17.523L31.657 20.1635C31.657 20.9533 32.2682 21.5645 33.0603 21.5645Z"
                     fill="currentColor" fill-opacity="0.85" />
       </g>
</svg>