<?xml version="1.0" encoding="UTF-8"?>
<!--Generator: Apple Native CoreSVG 326-->
<!DOCTYPE svg PUBLIC "-//W3C//DTD SVG 1.1//EN" "http://www.w3.org/Graphics/SVG/1.1/DTD/svg11.dtd">
<svg version="1.1" xmlns="http://www.w3.org/2000/svg" xmlns:xlink="http://www.w3.org/1999/xlink"
       viewBox="0 0 20.0362 25.208">
       <g>
              <rect height="25.208" opacity="0" width="20.0362" x="0" y="0" />
              <path d="M9.81585 2.41939C11.9178 2.41939 13.8519 3.0772 15.1951 4.29627C15.7074 4.76205 16.338 4.90962 16.8537 4.48006C17.4262 4.01604 17.5008 3.21034 16.8048 2.53106C15.0769 0.880119 12.5317 0.0367576 9.81585 0.0367576C7.12242 0.0367576 4.46532 0.954726 2.83434 2.53106C2.14067 3.21034 2.22274 4.01604 2.78551 4.48006C3.31097 4.90962 3.93925 4.76205 4.44409 4.29627C5.79472 3.0772 7.7237 2.41939 9.81585 2.41939Z"
                     fill="currentColor" fill-opacity="0.85" />
              <path d="M9.82792 6.76813C10.6719 6.76813 11.6691 7.08348 12.215 7.49036C12.7394 7.8677 13.3505 7.98204 13.8512 7.60239C14.4215 7.16821 14.4536 6.29877 13.8127 5.68608C12.8849 4.84393 11.3978 4.39296 9.82792 4.39296C8.26554 4.39296 6.77844 4.84393 5.85058 5.68608C5.19992 6.29877 5.23953 7.16821 5.81206 7.60239C6.31284 7.98204 6.91412 7.8677 7.4408 7.49036C7.99878 7.08809 8.99135 6.76813 9.82792 6.76813Z"
                     fill="currentColor" fill-opacity="0.85" />
              <path d="M0 20.8529C0 22.1601 0.810972 23.167 2.1889 23.167L17.4859 23.167C18.8615 23.167 19.6748 22.1601 19.6748 20.8529L19.6748 18.609C19.6748 17.0995 19.5266 16.1954 18.697 15.2676L17.9009 14.3658L17.0829 12.1041C16.4873 10.4781 15.458 9.86977 14.2557 9.71298C13.5768 9.6297 12.0302 9.57341 9.83253 9.57341C7.63253 9.57341 6.098 9.6297 5.41683 9.71298C4.21457 9.86977 3.18754 10.4804 2.59195 12.1041L1.76934 14.3658L0.977775 15.2676C0.148243 16.1977 0 17.0995 0 18.609ZM2.0042 20.2121L2.0042 18.3404C2.0042 17.3655 2.24076 16.8996 2.64424 16.3984L3.62881 15.1428L4.34467 13.113C4.72432 12.0183 5.23783 11.7948 5.82905 11.7143C6.42408 11.6259 7.76737 11.5725 9.83253 11.5725C11.9051 11.5725 13.2507 11.6259 13.8458 11.7143C14.437 11.7948 14.9505 12.0183 15.3302 13.113L16.0437 15.1428L17.0306 16.3984C17.4341 16.8996 17.6632 17.3655 17.6632 18.3404L17.6632 20.2121C17.6632 20.7831 17.4305 21.1031 16.8148 21.1031L2.8526 21.1031C2.24428 21.1031 2.0042 20.7831 2.0042 20.2121ZM5.1349 15.0474L14.5376 15.0474C15.0355 15.0474 15.3169 14.724 15.1549 14.26L14.7258 13.0426C14.5202 12.4676 14.125 12.297 13.5318 12.216C13.1261 12.1603 11.8495 12.1241 9.83253 12.1241C7.82299 12.1241 6.54643 12.1603 6.14076 12.216C5.54979 12.297 5.15467 12.4676 4.94905 13.0426L4.5176 14.26C4.35565 14.724 4.63182 15.0474 5.1349 15.0474ZM4.2065 19.6148C4.75501 19.6148 5.17142 19.2007 5.17142 18.6425L5.17142 17.555C5.17142 16.9892 4.75501 16.5774 4.2065 16.5774C3.64307 16.5774 3.2192 16.9915 3.2192 17.555L3.2192 18.6425C3.2192 19.1984 3.64307 19.6148 4.2065 19.6148ZM8.2326 19.2558L11.4055 19.2558C11.8885 19.2558 12.217 18.9296 12.217 18.4299L12.217 17.7577C12.217 17.2701 11.8885 16.9462 11.4055 16.9462L8.2326 16.9462C7.75706 16.9462 7.43831 17.2701 7.43831 17.7577L7.43831 18.4299C7.43831 18.9221 7.75706 19.2558 8.2326 19.2558ZM15.5367 19.6148C16.095 19.6148 16.5114 19.2007 16.5114 18.6425L16.5114 17.555C16.5114 16.9818 16.095 16.5774 15.5367 16.5774C14.9928 16.5774 14.5592 17.0087 14.5592 17.555L14.5592 18.6425C14.5592 19.191 14.9928 19.6148 15.5367 19.6148ZM1.57172 25.208L2.55398 25.208C3.19445 25.208 3.69074 24.7117 3.69074 24.0735L3.69074 22.0622L0.434964 21.1079L0.434964 24.0735C0.434964 24.7117 0.933557 25.208 1.57172 25.208ZM17.1185 25.208L18.0956 25.208C18.7413 25.208 19.2301 24.7117 19.2301 24.0735L19.2301 21.1079L15.9841 22.0622L15.9841 24.0735C15.9841 24.7117 16.4781 25.208 17.1185 25.208Z"
                     fill="currentColor" fill-opacity="0.85" />
       </g>
</svg>