<?xml version="1.0" encoding="UTF-8"?>
<!--Generator: Apple Native CoreSVG 326-->
<!DOCTYPE svg PUBLIC "-//W3C//DTD SVG 1.1//EN" "http://www.w3.org/Graphics/SVG/1.1/DTD/svg11.dtd">
<svg version="1.1" xmlns="http://www.w3.org/2000/svg" xmlns:xlink="http://www.w3.org/1999/xlink"
       viewBox="0 0 28.0575 25.4279">
       <g>
              <rect height="25.4279" opacity="0" width="28.0575" x="0" y="0" />
              <path d="M19.9789 20.5324L18.1339 21.3315C17.5818 21.5831 17.5158 22.0472 17.9995 22.3965L19.5384 23.5275C19.8635 23.7671 19.7118 24.2433 19.3063 24.2433L16.911 24.2433C16.5693 24.2433 16.2418 24.1456 15.9609 23.9331L15.1987 23.3713C13.5891 22.1742 13.7672 20.9162 15.6898 20.0856L18.3702 18.9239ZM11.733 15.3028L12.505 15.8744C14.1123 17.0715 13.9365 18.3295 12.0041 19.1527L6.98414 21.3292C6.43211 21.5785 6.36605 22.0449 6.84973 22.3919L8.39609 23.5252C8.71605 23.7648 8.56211 24.241 8.15656 24.241L5.76131 24.241C5.42182 24.241 5.0944 24.1433 4.8135 23.9308L4.04893 23.369C2.43936 22.1719 2.61745 20.9116 4.54237 20.081L9.56232 17.9067C10.1218 17.6626 10.1804 17.191 9.7042 16.8492L8.15783 15.7107C7.83787 15.4786 7.98436 14.9949 8.3899 14.9949L10.7852 14.9949C11.1344 14.9949 11.4521 15.0926 11.733 15.3028ZM22.8827 15.3074L23.6547 15.879C24.8525 16.7694 25.06 17.6961 24.2869 18.451L20.8358 14.9995L21.9349 14.9995C22.2818 14.9995 22.6018 15.0949 22.8827 15.3074ZM11.5518 12.1063L10.1628 12.1063L10.1628 12.8228C10.1628 13.3461 9.74921 13.7671 9.21847 13.7671L8.43898 13.7671C7.89847 13.7671 7.47 13.3461 7.47 12.8228L7.47 8.45312C7.47 8.30521 7.47142 8.16442 7.47524 8.03016ZM18.8764 1.33216C19.8523 1.43958 20.657 1.93642 21.1504 3.24992L21.8219 5.05208L22.459 5.7529C23.1328 6.49563 23.2299 7.23199 23.2299 8.45312L23.2299 12.8228C23.2299 13.3461 22.8089 13.7671 22.2707 13.7671L21.4912 13.7671C20.9581 13.7671 20.5446 13.3461 20.5446 12.8228L20.5446 12.1063L17.9429 12.1063L14.861 9.02414L16.7086 9.02414C17.0681 9.02414 17.2881 8.80183 17.2881 8.43765L17.2881 7.85511C17.2881 7.49324 17.0681 7.27324 16.7086 7.27324L13.9643 7.27324C13.7043 7.27324 13.5202 7.39476 13.443 7.6059L10.9669 5.12952C11.0443 5.18835 11.1588 5.22027 11.305 5.22027L19.3949 5.22027C19.7723 5.22027 19.9244 5.01574 19.8193 4.69524L19.4637 3.63812C19.3172 3.20097 19.0306 3.09179 18.5155 3.01082C18.1805 2.96199 17.0866 2.943 15.3499 2.943C13.6156 2.943 12.5246 2.96199 12.1747 3.01082C11.6744 3.09179 11.3953 3.20097 11.2413 3.63812L10.8806 4.69524C10.8264 4.84932 10.837 4.9766 10.9042 5.06684L9.42952 3.59201L9.55699 3.24992C10.0451 1.93642 10.8476 1.43958 11.8309 1.33216C12.3501 1.25118 13.6026 1.21443 15.3499 1.21443C17.0973 1.21443 18.3572 1.25118 18.8764 1.33216ZM19.5438 7.66957L19.5438 8.61344C19.5438 9.03621 19.8368 9.32687 20.2676 9.32687C20.6978 9.32687 20.9982 9.05859 20.9982 8.61344L20.9982 7.66957C20.9982 7.23418 20.6978 6.94582 20.2676 6.94582C19.8368 6.94582 19.5438 7.24625 19.5438 7.66957Z"
                     fill="currentColor" fill-opacity="0.85" />
              <path d="M25.1942 23.7704C25.5319 24.1081 26.085 24.0932 26.4079 23.7629C26.7433 23.4229 26.7456 22.887 26.4079 22.5492L5.51032 1.6517C5.17259 1.31396 4.62692 1.31166 4.28689 1.6517C3.95892 1.97966 3.95661 2.54255 4.28689 2.86536Z"
                     fill="currentColor" fill-opacity="0.85" />
       </g>
</svg>