<?xml version="1.0" encoding="UTF-8"?>
<!--Generator: Apple Native CoreSVG 326-->
<!DOCTYPE svg PUBLIC "-//W3C//DTD SVG 1.1//EN" "http://www.w3.org/Graphics/SVG/1.1/DTD/svg11.dtd">
<svg version="1.1" xmlns="http://www.w3.org/2000/svg" xmlns:xlink="http://www.w3.org/1999/xlink"
       viewBox="0 0 25.2819 17.4864">
       <g>
              <rect height="17.4864" opacity="0" width="25.2819" x="0" y="0" />
              <path d="M16.7733 12.4694L16.1959 14.2548L24.0287 14.2548C24.5151 14.2548 24.9205 13.8523 24.9205 13.3584C24.9205 12.8697 24.5151 12.4694 24.0287 12.4694ZM21.278 11.3688L23.2693 11.3688C23.3796 11.3688 23.4474 11.3297 23.5525 11.2734C24.0493 10.8599 24.3871 10.2677 24.3871 9.58991C24.3871 8.43944 23.4399 7.46761 22.2774 7.46761C21.1074 7.46761 20.1729 8.43944 20.1729 9.58991C20.1729 10.2677 20.498 10.8599 20.9948 11.2734C21.1051 11.3297 21.1655 11.3688 21.278 11.3688ZM22.2849 15.5302C22.7633 15.5302 23.0964 15.1798 23.0964 14.7089L23.0964 11.0393L21.4687 11.0393L21.4687 14.7089C21.4687 15.1798 21.8191 15.5302 22.2849 15.5302ZM10.6229 17.4817C12.9393 17.4817 14.7537 15.6673 14.7537 13.3584C14.7537 11.0397 12.9393 9.2253 10.6229 9.2253C8.31164 9.2253 6.49723 11.0397 6.49723 13.3584C6.49723 15.6673 8.31164 17.4817 10.6229 17.4817ZM10.6229 14.9328C9.73857 14.9328 9.04619 14.2404 9.04619 13.3584C9.04619 12.4666 9.73857 11.7668 10.6229 11.7668C11.5123 11.7668 12.2122 12.4666 12.2122 13.3584C12.2122 14.2404 11.5123 14.9328 10.6229 14.9328ZM0 12.6139L0 15.2828L7.85848 15.2828L7.85848 12.6139ZM0 0.201014L0 2.90961C0.968435 2.73044 2.14019 2.66899 3.81612 2.66899L5.42732 2.66899C7.89639 2.66899 9.83811 3.58641 12.4099 5.82329C12.9337 6.29082 13.292 6.45047 13.9899 6.67332L15.0004 6.99789C15.8847 7.27715 16.3403 7.86079 16.3403 8.71458L16.3403 11.3376C16.3403 12.1737 15.9834 12.6139 15.2719 12.6139L13.4008 12.6139L13.4008 15.2828L15.2719 15.2828C17.7165 15.2828 19.0092 13.924 19.0092 11.3376L19.0092 8.53552C19.0092 6.42815 17.9014 5.1312 15.7997 4.38398L14.2992 3.85148C12.3489 2.15687 9.32818 0 5.42732 0L3.81612 0C2.27108 0 1.0448 0.0539839 0 0.201014Z"
                     fill="currentColor" fill-opacity="0.85" />
       </g>
</svg>