<?xml version="1.0" encoding="UTF-8"?>
<!--Generator: Apple Native CoreSVG 326-->
<!DOCTYPE svg PUBLIC "-//W3C//DTD SVG 1.1//EN" "http://www.w3.org/Graphics/SVG/1.1/DTD/svg11.dtd">
<svg version="1.1" xmlns="http://www.w3.org/2000/svg" xmlns:xlink="http://www.w3.org/1999/xlink"
       viewBox="0 0 14.2046 27.3851">
       <g>
              <rect height="27.3851" opacity="0" width="14.2046" x="0" y="0" />
              <path d="M6.93281 2.25337C8.48226 2.25337 9.88063 2.78369 10.9699 3.746C11.5689 4.25654 12.2023 4.27838 12.6072 3.86834C13.1085 3.38194 13.1114 2.66699 12.5681 2.15644C11.0459 0.775973 9.06917 0.0499201 6.93281 0.0499201C4.79128 0.0499201 2.82202 0.783434 1.29234 2.1639C0.739337 2.66699 0.749648 3.38194 1.24582 3.86834C1.64839 4.27838 2.28182 4.24908 2.89572 3.746C3.99244 2.80607 5.37073 2.25337 6.93281 2.25337Z"
                     fill="currentColor" fill-opacity="0.85" />
              <path d="M6.93281 6.07653C7.65789 6.07653 8.26063 6.29543 8.77711 6.63966C9.44676 7.11059 9.98374 7.12836 10.3915 6.72579C10.8956 6.22392 10.8537 5.48834 10.3025 5.03925C9.4382 4.33909 8.23922 3.87307 6.93281 3.87307C5.62124 3.87307 4.41479 4.33909 3.55566 5.03925C3.01188 5.48834 2.9625 6.22392 3.47414 6.72579C3.86695 7.12836 4.41886 7.10313 5.0885 6.63966C5.59983 6.29543 6.21003 6.07653 6.93281 6.07653Z"
                     fill="currentColor" fill-opacity="0.85" />
              <path d="M6.92535 27.3851C10.7126 27.3851 12.4543 26.3639 12.4543 24.0415L12.4543 12.0372C12.4543 9.55697 10.4908 8.23115 6.92535 8.23115C3.36738 8.23115 1.39121 9.56443 1.39121 12.0372L1.39121 24.0415C1.39121 26.3639 3.1455 27.3851 6.92535 27.3851ZM2.09445 16.2398L2.09445 13.9325L0.978746 13.9325C0.395781 13.9325 0 14.3759 0 15.0312L0 15.1561C0 15.7941 0.395781 16.2398 0.978746 16.2398ZM11.7488 16.2995L12.8645 16.2995C13.4498 16.2995 13.8432 15.8538 13.8432 15.2158L13.8432 15.0909C13.8432 14.4431 13.4498 13.9997 12.8645 13.9997L11.7488 13.9997ZM6.92535 16.4846C6.18207 16.4846 5.17609 16.5656 4.92721 16.5656C4.31659 16.5656 4.02823 16.2968 3.9771 15.662L3.84268 14.2334C3.73757 13.0563 4.6112 12.6169 6.92535 12.6169C9.23949 12.6169 10.108 13.0563 10.0029 14.2334L9.86844 15.662C9.8173 16.2968 9.53871 16.5656 8.91602 16.5656C8.66945 16.5656 7.67269 16.4846 6.92535 16.4846ZM6.92535 24.337C4.51421 24.337 3.70366 23.9337 3.87198 22.7326L3.97194 22.0564C4.1035 21.077 4.91284 20.7743 6.92535 20.7743C8.9327 20.7743 9.73972 21.077 9.87359 22.0564L9.98101 22.7326C10.1516 23.9337 9.32902 24.337 6.92535 24.337Z"
                     fill="currentColor" fill-opacity="0.85" />
       </g>
</svg>