<?xml version="1.0" encoding="UTF-8"?>
<!--Generator: Apple Native CoreSVG 326-->
<!DOCTYPE svg PUBLIC "-//W3C//DTD SVG 1.1//EN" "http://www.w3.org/Graphics/SVG/1.1/DTD/svg11.dtd">
<svg version="1.1" xmlns="http://www.w3.org/2000/svg" xmlns:xlink="http://www.w3.org/1999/xlink"
       viewBox="0 0 22.141 23.0587">
       <g>
              <rect height="23.0587" opacity="0" width="22.141" x="0" y="0" />
              <path d="M4.51058 11.6383C4.51058 12.1615 4.9339 12.5826 5.47441 12.5826L6.26136 12.5826C6.78464 12.5826 7.19819 12.1615 7.19819 11.6383L7.19819 10.9217L17.5875 10.9217L17.5875 11.6383C17.5875 12.1615 18.001 12.5826 18.5318 12.5826L19.3113 12.5826C19.8518 12.5826 20.2728 12.1615 20.2728 11.6383L20.2728 7.26854C20.2728 6.04741 20.1757 5.31105 19.5019 4.56831L18.8573 3.86749L18.1933 2.06534C17.6976 0.751832 16.8952 0.254998 15.9193 0.147576C15.3926 0.0666004 14.1402 0.0298429 12.3928 0.0298429C10.6455 0.0298429 9.39073 0.0666004 8.87382 0.147576C7.89046 0.254998 7.08574 0.751832 6.59988 2.06534L5.92836 3.86749L5.28383 4.56831C4.61 5.31105 4.51058 6.04741 4.51058 7.26854ZM8.34787 4.03569C7.97053 4.03569 7.81088 3.83116 7.916 3.51065L8.27678 2.45354C8.43819 2.01639 8.70987 1.90721 9.21756 1.82623C9.56748 1.77741 10.6562 1.75842 12.3928 1.75842C14.1295 1.75842 15.2159 1.77741 15.5584 1.82623C16.0735 1.90721 16.3601 2.01639 16.5066 2.45354L16.8622 3.51065C16.9673 3.83116 16.8152 4.03569 16.4303 4.03569ZM7.53381 8.14229C7.10357 8.14229 6.79568 7.85909 6.79568 7.42885L6.79568 6.48498C6.79568 6.05936 7.10357 5.76123 7.53381 5.76123C7.96919 5.76123 8.2524 6.05705 8.2524 6.48498L8.2524 7.42885C8.2524 7.85909 7.96919 8.14229 7.53381 8.14229ZM11.0049 7.83955C10.6476 7.83955 10.4374 7.61725 10.4374 7.25307L10.4374 6.67053C10.4374 6.30866 10.6476 6.08866 11.0049 6.08866L13.744 6.08866C14.1013 6.08866 14.3236 6.30866 14.3236 6.67053L14.3236 7.25307C14.3236 7.61725 14.1013 7.83955 13.744 7.83955ZM17.3105 8.14229C16.8774 8.14229 16.577 7.85162 16.577 7.42885L16.577 6.48498C16.577 6.06166 16.8774 5.76123 17.3105 5.76123C17.7332 5.76123 18.0388 6.04959 18.0388 6.48498L18.0388 7.42885C18.0388 7.87401 17.7332 8.14229 17.3105 8.14229ZM9.54043 14.6898L8.77586 14.1182C8.49496 13.908 8.175 13.8104 7.82805 13.8104L5.4328 13.8104C5.02725 13.8104 4.87331 14.294 5.20073 14.5261L6.73963 15.6646C7.2233 16.0064 7.16471 16.478 6.60291 16.7221L1.58526 18.8964C-0.341963 19.727-0.517744 20.9873 1.08952 22.1844L1.85409 22.7462C2.13499 22.9587 2.45495 23.0564 2.80421 23.0564L5.19715 23.0564C5.605 23.0564 5.74918 22.5802 5.43153 22.3407L3.89262 21.2073C3.40895 20.8603 3.46754 20.3939 4.02703 20.1446L9.04699 17.9681C10.9719 17.1449 11.1477 15.8869 9.54043 14.6898ZM20.6902 14.6944L19.9256 14.1229C19.6447 13.9103 19.3247 13.815 18.9778 13.815L16.5825 13.815C16.177 13.815 16.023 14.2963 16.3505 14.5307L17.8894 15.6692C18.3707 16.0087 18.3121 16.4826 17.7527 16.7245L12.7327 18.901C10.8078 19.7316 10.632 20.9896 12.2393 22.1867L13.0038 22.7485C13.2847 22.9611 13.6047 23.0587 13.9516 23.0587L16.3469 23.0587C16.7524 23.0587 16.8989 22.5825 16.579 22.343L15.0401 21.2119C14.5587 20.8627 14.6173 20.3985 15.1768 20.1469L20.1967 17.9727C22.1216 17.1495 22.2974 15.8892 20.6902 14.6944Z"
                     fill="currentColor" fill-opacity="0.85" />
       </g>
</svg>