<?xml version="1.0" encoding="UTF-8"?>
<!--Generator: Apple Native CoreSVG 326-->
<!DOCTYPE svg PUBLIC "-//W3C//DTD SVG 1.1//EN" "http://www.w3.org/Graphics/SVG/1.1/DTD/svg11.dtd">
<svg version="1.1" xmlns="http://www.w3.org/2000/svg" xmlns:xlink="http://www.w3.org/1999/xlink"
       viewBox="0 0 38.9471 32.2502">
       <g>
              <rect height="32.2502" opacity="0" width="38.9471" x="0" y="0" />
              <path d="M11.6679 13.4022L6.60996 25.7811C6.38196 26.3451 5.94954 26.7827 5.1174 26.7827L3.60506 26.7827C2.47261 26.7827 2.10801 25.8461 2.51859 25.0399L8.6776 12.9326C8.93084 12.4433 9.32474 12.2148 9.79853 12.2148L10.9433 12.2148C11.5835 12.2148 11.9263 12.7844 11.6679 13.4022ZM29.8943 12.9349L31.0749 15.2557C30.7857 15.2251 30.492 15.2097 30.1949 15.2097C29.3589 15.2097 28.5502 15.3315 27.7874 15.5632L26.904 13.4022C26.6479 12.7867 26.9907 12.2148 27.6309 12.2148L28.7757 12.2148C29.2495 12.2148 29.6485 12.4457 29.8943 12.9349Z"
                     fill="currentColor" fill-opacity="0.85" />
              <path d="M22.2525 26.7758L7.70019 26.7758C7.79324 26.611 7.88168 26.4369 7.95289 26.2652L8.38488 25.1835L21.8121 25.1835C21.8988 25.7373 22.0477 26.2702 22.2525 26.7758Z"
                     fill="currentColor" fill-opacity="0.85" />
              <path d="M21.6781 23.7288L21.7053 24.2638L8.76343 24.2638L9.39929 22.6791L21.75 22.6791C21.7001 23.0216 21.6781 23.3727 21.6781 23.7288Z"
                     fill="currentColor" fill-opacity="0.85" />
              <path d="M21.9192 21.7547L9.76753 21.7547L10.416 20.17L22.4697 20.17C22.2282 20.6697 22.0425 21.2003 21.9192 21.7547Z"
                     fill="currentColor" fill-opacity="0.85" />
              <path d="M22.9659 19.2525L10.7819 19.2525L11.423 17.6506L24.2441 17.6506C23.7529 18.1266 23.3212 18.6635 22.9659 19.2525Z"
                     fill="currentColor" fill-opacity="0.85" />
              <path d="M26.5038 16.0662C26.1015 16.2503 25.721 16.4731 25.3631 16.7262L11.801 16.7262L12.4345 15.1415L26.1328 15.1415Z"
                     fill="currentColor" fill-opacity="0.85" />
              <path d="M21.8557 5.41932C22.5427 5.5026 23.1102 5.84725 23.4484 6.76333L23.927 8.07314L24.3859 8.59357C24.8495 9.11861 24.9346 9.62466 24.9346 10.4857L24.9346 13.6341C24.9346 13.9834 24.6635 14.262 24.3067 14.262L23.7449 14.262C23.3882 14.262 23.1096 13.9834 23.1096 13.6341L23.1096 13.0596L15.5346 13.0596L15.5346 13.6341C15.5346 13.9834 15.2635 14.262 14.9044 14.262L14.3449 14.262C13.9882 14.262 13.7096 13.9834 13.7096 13.6341L13.7096 10.4857C13.7096 9.62466 13.7947 9.11861 14.2634 8.59357L14.7224 8.07314L15.2032 6.76333C15.534 5.84725 16.109 5.5026 16.7885 5.41932C17.1733 5.37279 18.0598 5.33604 19.3258 5.33604C20.5895 5.33604 21.476 5.37279 21.8557 5.41932ZM15.2448 9.92673L15.2448 10.6046C15.2448 10.9377 15.4969 11.1801 15.8249 11.1801C16.1529 11.1801 16.4027 10.94 16.4027 10.6046L16.4027 9.92673C16.4027 9.59876 16.1529 9.35869 15.8249 9.35869C15.4969 9.35869 15.2448 9.59876 15.2448 9.92673ZM22.2829 9.92673L22.2829 10.6046C22.2829 10.9303 22.5327 11.1801 22.8584 11.1801C23.1887 11.1801 23.4385 10.94 23.4385 10.6046L23.4385 9.92673C23.4385 9.59876 23.1887 9.35869 22.8584 9.35869C22.5327 9.35869 22.2829 9.60853 22.2829 9.92673ZM18.3257 9.58099C18.0488 9.58099 17.8651 9.77224 17.8651 10.0611L17.8651 10.4777C17.8651 10.7666 18.0488 10.9578 18.3257 10.9578L20.299 10.9578C20.5758 10.9578 20.7694 10.774 20.7694 10.4777L20.7694 10.0611C20.7694 9.77224 20.5833 9.58099 20.299 9.58099ZM17.0376 6.51974C16.6649 6.57372 16.4392 6.67138 16.3168 7.01603L16.0485 7.76865C15.9578 8.03341 16.118 8.22181 16.4074 8.22181L22.2345 8.22181C22.5314 8.22181 22.6864 8.03341 22.5957 7.76865L22.3251 7.01603C22.2102 6.67138 21.9771 6.57372 21.6118 6.51974C21.3664 6.48583 20.5673 6.47146 19.3258 6.47146C18.0769 6.47146 17.2829 6.48583 17.0376 6.51974Z"
                     fill="currentColor" fill-opacity="0.85" />
              <path d="M37.1574 23.7288C37.1574 19.894 34.0199 16.7542 30.1949 16.7542C26.3624 16.7542 23.2226 19.894 23.2226 23.7288C23.2226 25.5078 23.9067 27.1523 25.028 28.3839C25.4748 28.8921 26.2076 28.7987 26.6 28.4086L27.8543 27.1589C28.1627 26.8528 28.1604 26.3606 27.8566 26.0568C27.5481 25.7604 27.0657 25.7529 26.7618 26.0568L26.2431 26.583C25.6668 25.7764 25.3215 24.7974 25.3215 23.7213C25.3215 21.0183 27.4942 18.8456 30.1949 18.8456C32.903 18.8456 35.066 21.0183 35.066 23.7213C35.066 24.7974 34.7304 25.7764 34.1467 26.583L33.6256 26.0568C33.3367 25.7529 32.8318 25.7604 32.5257 26.0568C32.2293 26.3606 32.2196 26.8528 32.528 27.1589L33.7799 28.4086C34.1798 28.801 34.9126 28.8921 35.3594 28.3839C36.4732 27.1523 37.1574 25.5078 37.1574 23.7288ZM26.1344 22.9448L24.9294 22.9448L24.9294 24.4904L26.1344 24.4904C26.5583 24.4904 26.9132 24.1377 26.9132 23.7213C26.9132 23.2877 26.5583 22.9448 26.1344 22.9448ZM34.2409 22.9448C33.8171 22.9448 33.4644 23.2877 33.4644 23.7213C33.4644 24.1377 33.8171 24.4904 34.2409 24.4904L35.4534 24.4904L35.4534 22.9448ZM29.4258 19.7229C29.4258 20.1542 29.7785 20.5092 30.1949 20.5092C30.6262 20.5092 30.9788 20.1542 30.9788 19.7229L30.9788 18.5201L29.4258 18.5201ZM27.8899 20.3165L27.0389 19.4557L25.939 20.5504L26.7975 21.4015C27.1013 21.7053 27.5838 21.7053 27.8922 21.4015C28.1961 21.1126 28.1961 20.6203 27.8899 20.3165ZM37.0732 15.1207C36.7935 14.8462 36.4059 14.9857 36.3197 15.3539L35.8108 17.5334C35.7224 17.9009 36.0348 18.1961 36.3777 18.1077L38.5571 17.5913C38.935 17.4954 39.0821 17.1147 38.8001 16.8401ZM29.2655 24.7672C29.7572 25.2468 30.5211 25.2468 31.0053 24.7649C31.076 24.6822 31.2029 24.5064 31.3608 24.267L32.9502 21.7974C33.1145 21.5396 33.0903 21.2967 32.9083 21.1198C32.7337 20.9326 32.4834 20.9205 32.2255 21.0727L29.7686 22.6794C29.5119 22.847 29.3534 22.9493 29.2655 23.0274C28.7463 23.4892 28.7836 24.2807 29.2655 24.7672Z"
                     fill="currentColor" fill-opacity="0.85" />
       </g>
</svg>