<?xml version="1.0" encoding="UTF-8"?>
<!--Generator: Apple Native CoreSVG 326-->
<!DOCTYPE svg PUBLIC "-//W3C//DTD SVG 1.1//EN" "http://www.w3.org/Graphics/SVG/1.1/DTD/svg11.dtd">
<svg version="1.1" xmlns="http://www.w3.org/2000/svg" xmlns:xlink="http://www.w3.org/1999/xlink"
       viewBox="0 0 25.3245 20.5716">
       <g>
              <rect height="20.5716" opacity="0" width="25.3245" x="0" y="0" />
              <path d="M5.0404 5.65078C5.20532 4.96682 5.5197 3.98814 5.7226 3.60079C6.06088 2.91798 6.50075 2.66068 7.32653 2.54756C7.88966 2.47228 9.58712 2.43377 12.4779 2.43377C15.3709 2.43377 17.0758 2.46021 17.6441 2.54756C18.455 2.66298 18.8925 2.91798 19.2406 3.60079C19.4383 3.98583 19.7607 4.96682 19.9251 5.65078C20.0652 6.24339 19.8045 6.59647 19.1723 6.5844C18.0212 6.54412 16.2219 6.45393 12.4779 6.45393C8.75103 6.45393 6.95173 6.54412 5.7932 6.5844C5.15868 6.59647 4.89282 6.24339 5.0404 5.65078ZM5.00413 13.8673C3.96624 13.8673 3.17074 13.0793 3.17074 12.0414C3.17074 11.0012 3.96624 10.208 5.00413 10.208C6.04201 10.208 6.83006 11.0012 6.83006 12.0414C6.83006 13.0793 6.04201 13.8673 5.00413 13.8673ZM9.67592 13.3872C8.89764 13.3872 8.34166 12.8312 8.34166 12.0529C8.34166 11.2695 8.89764 10.7135 9.67592 10.7135L15.2821 10.7135C16.0655 10.7135 16.6215 11.2695 16.6215 12.0529C16.6215 12.8312 16.0655 13.3872 15.2821 13.3872ZM19.9591 13.8673C18.9212 13.8673 18.128 13.0793 18.128 12.0414C18.128 11.0012 18.9212 10.208 19.9591 10.208C20.9993 10.208 21.7925 11.0012 21.7925 12.0414C21.7925 13.0793 20.9993 13.8673 19.9591 13.8673ZM12.4779 16.8472C15.9904 16.8472 20.4004 16.6812 22.2685 16.4664C23.9547 16.2602 24.9632 15.2443 24.9632 13.6287L24.9632 12.1711C24.9632 10.2372 24.6908 9.18491 23.7402 7.95334L22.7609 6.79936C22.3944 5.04155 21.7476 3.20331 21.4006 2.47319C20.7987 1.1757 19.6212 0.379646 18.1135 0.181483C17.2652 0.0637496 15.2981 0 12.4779 0C9.66736 0 7.70029 0.0660545 6.85201 0.181483C5.33682 0.375037 4.16452 1.1757 3.56488 2.47319C3.21562 3.20331 2.57109 5.04155 2.19484 6.79936L1.21785 7.95334C0.272346 9.18491 0 10.2372 0 12.1711L0 13.6287C0 15.2443 1.01077 16.2677 2.69471 16.4664C4.5651 16.6737 8.97279 16.8472 12.4779 16.8472ZM1.40328 19.8461L2.65777 19.8461C3.44241 19.8461 4.06105 19.2349 4.06105 18.4451L4.06105 15.8046L0 13.5423L0 18.4451C0 19.2349 0.618631 19.8461 1.40328 19.8461ZM22.3054 19.8461L23.5622 19.8461C24.3469 19.8461 24.9632 19.2349 24.9632 18.4451L24.9632 13.5423L20.9044 15.8046L20.9044 18.4451C20.9044 19.2349 21.5208 19.8461 22.3054 19.8461Z"
                     fill="currentColor" fill-opacity="0.85" />
       </g>
</svg>