<?xml version="1.0" encoding="UTF-8"?>
<!--Generator: Apple Native CoreSVG 326-->
<!DOCTYPE svg PUBLIC "-//W3C//DTD SVG 1.1//EN" "http://www.w3.org/Graphics/SVG/1.1/DTD/svg11.dtd">
<svg version="1.1" xmlns="http://www.w3.org/2000/svg" xmlns:xlink="http://www.w3.org/1999/xlink"
       viewBox="0 0 14.2046 27.231">
       <g>
              <rect height="27.231" opacity="0" width="14.2046" x="0" y="0" />
              <path d="M6.90296 24.9506C5.34835 24.9506 3.97006 24.3979 2.86588 23.4655C2.25944 22.9549 1.62601 22.9256 1.22343 23.3431C0.727266 23.8295 0.716954 24.537 1.26996 25.0401C2.79964 26.4206 4.7689 27.1541 6.90296 27.1541C9.04679 27.1541 11.016 26.428 12.5457 25.055C13.089 24.537 13.0861 23.8295 12.5848 23.3431C12.1799 22.9256 11.5465 22.9475 10.94 23.4655C9.85825 24.4278 8.45988 24.9506 6.90296 24.9506Z"
                     fill="currentColor" fill-opacity="0.85" />
              <path d="M6.90296 21.1275C6.18019 21.1275 5.57745 20.916 5.05866 20.5643C4.38901 20.1083 3.84456 20.0756 3.44429 20.4782C2.93266 20.9801 2.98203 21.7157 3.53328 22.1671C4.39241 22.8649 5.5914 23.3309 6.90296 23.3309C8.20937 23.3309 9.41582 22.8649 10.2801 22.1671C10.8314 21.7157 10.8658 20.9801 10.3616 20.4782C9.9539 20.0756 9.41691 20.1009 8.74727 20.5643C8.23824 20.916 7.62805 21.1275 6.90296 21.1275Z"
                     fill="currentColor" fill-opacity="0.85" />
              <path d="M6.92535 19.1539C10.7126 19.1539 12.4543 18.1327 12.4543 15.8104L12.4543 3.80605C12.4543 1.32582 10.4908 0 6.92535 0C3.36738 0 1.39121 1.33328 1.39121 3.80605L1.39121 15.8104C1.39121 18.1327 3.1455 19.1539 6.92535 19.1539ZM2.09445 8.00866L2.09445 5.70883L0.978746 5.70883C0.395781 5.70883 0 6.15222 0 6.80003L0 6.92492C0 7.56296 0.395781 8.00866 0.978746 8.00866ZM11.7488 8.07581L12.8645 8.07581C13.4498 8.07581 13.8432 7.62265 13.8432 6.98461L13.8432 6.85972C13.8432 6.21191 13.4498 5.76851 12.8645 5.76851L11.7488 5.76851ZM6.92535 8.25347C6.18207 8.25347 5.17609 8.33445 4.92721 8.33445C4.31659 8.33445 4.02823 8.06562 3.9771 7.43085L3.84268 6.00222C3.73757 4.82519 4.6112 4.38574 6.92535 4.38574C9.23949 4.38574 10.108 4.82519 10.0029 6.00222L9.86844 7.43085C9.8173 8.06562 9.53871 8.33445 8.91602 8.33445C8.66945 8.33445 7.67269 8.25347 6.92535 8.25347ZM6.92535 16.1133C4.51421 16.1133 3.70366 15.71 3.87198 14.5014L3.97194 13.8253C4.1035 12.8459 4.91284 12.5431 6.92535 12.5431C8.9327 12.5431 9.73972 12.8459 9.87359 13.8253L9.98101 14.5014C10.1516 15.71 9.32902 16.1133 6.92535 16.1133Z"
                     fill="currentColor" fill-opacity="0.85" />
       </g>
</svg>