<?xml version="1.0" encoding="UTF-8"?>
<!--Generator: Apple Native CoreSVG 326-->
<!DOCTYPE svg PUBLIC "-//W3C//DTD SVG 1.1//EN" "http://www.w3.org/Graphics/SVG/1.1/DTD/svg11.dtd">
<svg version="1.1" xmlns="http://www.w3.org/2000/svg" xmlns:xlink="http://www.w3.org/1999/xlink"
       viewBox="0 0 23.2219 26.4223">
       <g>
              <rect height="26.4223" opacity="0" width="23.2219" x="0" y="0" />
              <path d="M9.64019 26.4172L9.64019 21.4569C9.64019 19.547 8.11554 18.5165 5.36175 18.5165C2.60512 18.5165 1.07816 19.5396 1.07816 21.4569L1.07816 26.4172ZM5.36175 24.9134C4.79195 24.9134 4.00773 24.9674 3.8169 24.9674C3.34069 24.9674 3.12585 24.7571 3.07933 24.2665L2.97421 23.1676C2.88862 22.2445 3.5664 21.9079 5.36175 21.9079C7.15426 21.9079 7.82227 22.2445 7.74414 23.1676L7.64133 24.2665C7.5925 24.7571 7.38512 24.9674 6.89914 24.9674C6.71808 24.9674 5.93562 24.9134 5.36175 24.9134ZM9.0955 24.7169L9.96015 24.7169C10.4082 24.7169 10.716 24.3642 10.716 23.876L10.716 23.7794C10.716 23.274 10.4082 22.9213 9.96015 22.9213L9.0955 22.9213ZM1.62285 24.7616L1.62285 22.9735L0.758201 22.9735C0.310195 22.9735 0 23.3187 0 23.8241L0 23.9283C0 24.4164 0.310195 24.7616 0.758201 24.7616Z"
                     fill="currentColor" fill-opacity="0.85" />
              <path d="M9.30361 18.073C10.4829 19.25 11.9874 19.9376 13.5792 20.0123C14.1885 20.0421 14.5864 19.6315 14.5864 19.0613C14.5864 18.58 14.2132 18.2384 13.5797 18.1769C12.4663 18.0862 11.4368 17.6432 10.5865 16.7975C9.73851 15.9473 9.268 14.9177 9.2048 13.802C9.15082 13.1593 8.80398 12.7924 8.30375 12.7924C7.76458 12.7924 7.33732 13.1789 7.36662 13.8025C7.47919 15.4041 8.13404 16.9011 9.30361 18.073Z"
                     fill="currentColor" fill-opacity="0.85" />
              <path d="M11.4024 15.9793C12.124 16.7009 13.0542 17.1064 13.9099 17.2034C14.495 17.2631 14.9332 16.8623 14.9332 16.2766C14.9332 15.8074 14.6041 15.5036 13.9712 15.3853C13.4995 15.302 13.0668 15.0906 12.6704 14.7062C12.2958 14.3097 12.0769 13.8822 11.989 13.3869C11.8758 12.773 11.5979 12.4457 11.1052 12.4457C10.5269 12.4434 10.1043 12.9034 10.1829 13.5023C10.3104 14.4427 10.716 15.3003 11.4024 15.9793Z"
                     fill="currentColor" fill-opacity="0.85" />
              <path d="M17.5062 14.8203C20.4262 14.8203 21.7847 14.0294 21.7847 12.2378L21.7847 2.94788C21.7847 1.03055 20.26 0 17.5062 0C14.7398 0 13.2227 1.02309 13.2227 2.94788L13.2227 12.2378C13.2227 14.0294 14.5737 14.8203 17.5062 14.8203ZM17.5062 6.3946C16.9341 6.3946 16.1499 6.4532 15.9614 6.4532C15.4829 6.4532 15.2657 6.24812 15.2192 5.75753L15.1187 4.65117C15.0308 3.7355 15.7086 3.3914 17.5062 3.3914C19.2965 3.3914 19.9668 3.7355 19.8812 4.65117L19.7835 5.75753C19.7347 6.24812 19.5198 6.4532 19.0436 6.4532C18.8528 6.4532 18.0801 6.3946 17.5062 6.3946ZM17.5062 12.4753C15.6363 12.4753 15.0015 12.16 15.1359 11.2225L15.2141 10.6928C15.3215 9.9334 15.9493 9.70649 17.5062 9.70649C19.058 9.70649 19.6789 9.9334 19.7887 10.6928L19.8668 11.2225C20.0156 12.16 19.3711 12.4753 17.5062 12.4753ZM21.2377 6.20784L22.1023 6.20784C22.5526 6.20784 22.8605 5.85519 22.8605 5.35957L22.8605 5.26288C22.8605 4.7575 22.5526 4.4123 22.1023 4.4123L21.2377 4.4123ZM13.7673 6.25261L13.7673 4.46453L12.9004 4.46453C12.4547 4.46453 12.1445 4.80226 12.1445 5.30765L12.1445 5.41179C12.1445 5.90742 12.4547 6.25261 12.9004 6.25261Z"
                     fill="currentColor" fill-opacity="0.85" />
       </g>
</svg>