<?xml version="1.0" encoding="UTF-8"?>
<!--Generator: Apple Native CoreSVG 326-->
<!DOCTYPE svg PUBLIC "-//W3C//DTD SVG 1.1//EN" "http://www.w3.org/Graphics/SVG/1.1/DTD/svg11.dtd">
<svg version="1.1" xmlns="http://www.w3.org/2000/svg" xmlns:xlink="http://www.w3.org/1999/xlink"
       viewBox="0 0 25.3245 20.5716">
       <g>
              <rect height="20.5716" opacity="0" width="25.3245" x="0" y="0" />
              <path d="M5.69172 6.20972C5.56884 6.7455 5.80485 7.0762 6.3923 7.06413C7.4624 7.02385 9.13135 6.94342 12.4779 6.94342C15.8341 6.94342 17.5031 7.02385 18.5657 7.06413C19.1583 7.0762 19.3944 6.7455 19.264 6.20972C19.1192 5.56253 18.8192 4.65505 18.626 4.297C18.3199 3.67103 17.9024 3.43841 17.1558 3.33275C16.6318 3.25747 15.0601 3.21896 12.4779 3.21896C9.89798 3.21896 8.33372 3.25747 7.80735 3.33275C7.06079 3.43841 6.65076 3.67103 6.3297 4.297C6.14404 4.65505 5.8538 5.56253 5.69172 6.20972ZM5.34732 13.6957C6.39267 13.6957 7.18071 12.9002 7.18071 11.8623C7.18071 10.8221 6.39267 10.0364 5.34732 10.0364C4.30943 10.0364 3.52139 10.8221 3.52139 11.8623C3.52139 12.9002 4.30943 13.6957 5.34732 13.6957ZM9.67592 13.2156L15.2821 13.2156C16.0655 13.2156 16.6215 12.6521 16.6215 11.8738C16.6215 11.0979 16.0655 10.5344 15.2821 10.5344L9.67592 10.5344C8.89764 10.5344 8.34166 11.0979 8.34166 11.8738C8.34166 12.6521 8.89764 13.2156 9.67592 13.2156ZM19.6084 13.6957C20.6486 13.6957 21.4418 12.9002 21.4418 11.8623C21.4418 10.8221 20.6486 10.0364 19.6084 10.0364C18.5705 10.0364 17.7848 10.8221 17.7848 11.8623C17.7848 12.9002 18.5705 13.6957 19.6084 13.6957ZM12.4779 17.1083C15.9904 17.1083 20.4004 16.9349 22.2685 16.7275C23.9547 16.5288 24.9632 15.5054 24.9632 13.8898L24.9632 12.1711C24.9632 10.2372 24.7431 9.14014 23.7402 7.95334L22.7609 6.79936C22.3944 5.04155 21.7476 3.20331 21.4006 2.47319C20.7912 1.18316 19.6212 0.379646 18.1135 0.181483C17.2652 0.0637496 15.2981 0 12.4779 0C9.66736 0 7.70029 0.0660545 6.85201 0.181483C5.33682 0.375037 4.16452 1.1757 3.56488 2.47319C3.22308 3.20331 2.57109 5.04155 2.19484 6.79936L1.21785 7.95334C0.220121 9.14014 0 10.2372 0 12.1711L0 13.8898C0 15.5054 1.01077 16.5288 2.69471 16.7275C4.5651 16.9349 8.97279 17.1083 12.4779 17.1083ZM12.4779 14.6726C9.04564 14.6726 5.18324 14.494 3.54383 14.3136C2.70629 14.2234 2.35364 13.8236 2.35364 13.0665L2.35364 11.8204C2.35364 10.5571 2.68785 9.92467 3.18099 9.27177L4.39344 7.6722C4.58251 6.68891 5.17997 4.50735 5.57751 3.69098C5.93477 2.95747 6.57239 2.61962 7.33423 2.51219C8.1159 2.40423 9.82974 2.33126 12.4779 2.33126C15.1283 2.33126 16.8565 2.41915 17.6243 2.51219C18.3856 2.607 19.006 2.95978 19.388 3.72083C19.7631 4.46259 20.3606 6.62922 20.5697 7.6722L21.777 9.27177C22.2753 9.92467 22.6095 10.5571 22.6095 11.8204L22.6095 13.0665C22.6095 13.8236 22.2494 14.2234 21.4194 14.3136C19.7748 14.494 15.9175 14.6726 12.4779 14.6726ZM1.90132 19.8461L3.15581 19.8461C3.94046 19.8461 4.55909 19.2349 4.55909 18.4451L4.55909 15.83L0.498047 14.6363L0.498047 18.4451C0.498047 19.2349 1.11668 19.8461 1.90132 19.8461ZM21.8074 19.8461L23.0642 19.8461C23.8488 19.8461 24.4651 19.2349 24.4651 18.4451L24.4651 14.6363L20.4064 15.83L20.4064 18.4451C20.4064 19.2349 21.0227 19.8461 21.8074 19.8461Z"
                     fill="currentColor" fill-opacity="0.85" />
       </g>
</svg>