<?xml version="1.0" encoding="UTF-8"?>
<!--Generator: Apple Native CoreSVG 326-->
<!DOCTYPE svg PUBLIC "-//W3C//DTD SVG 1.1//EN" "http://www.w3.org/Graphics/SVG/1.1/DTD/svg11.dtd">
<svg version="1.1" xmlns="http://www.w3.org/2000/svg" xmlns:xlink="http://www.w3.org/1999/xlink"
       viewBox="0 0 24.7012 26.8464">
       <g>
              <rect height="26.8464" opacity="0" width="24.7012" x="0" y="0" />
              <path d="M12.1587 26.8464C17.4709 26.8464 19.8465 25.4491 19.8465 22.293L19.8465 5.22795C19.8465 1.81683 17.1617 0.0051558 12.1587 0.0051558C7.18052 0.0051558 4.49334 1.83921 4.49334 5.22795L4.49334 22.293C4.49334 25.4491 6.86384 26.8464 12.1587 26.8464ZM12.1587 24.2405C8.67272 24.2405 7.10901 23.6207 7.10901 22.1925L7.10901 5.31002C7.10901 3.55845 8.88484 2.62083 12.1587 2.62083C15.4499 2.62083 17.2234 3.57337 17.2234 5.31002L17.2234 22.1925C17.2234 23.6207 15.662 24.2405 12.1587 24.2405ZM12.1685 11.5827C13.1496 11.5827 14.5146 11.6734 14.8313 11.6734C15.5734 11.6734 15.8859 11.3828 15.9468 10.6211L16.118 8.70305C16.245 7.28188 15.1616 6.72294 12.1685 6.72294C9.18053 6.72294 8.10468 7.28188 8.22417 8.70305L8.39534 10.6211C8.4637 11.3828 8.77851 11.6734 9.51839 11.6734C9.83738 11.6734 11.1811 11.5827 12.1685 11.5827ZM12.1685 22.0325C15.2931 22.0325 16.3139 21.5367 16.0939 20.0713L15.9595 19.1677C15.7883 17.9735 14.7968 17.5829 12.1685 17.5829C9.55284 17.5829 8.56136 17.9735 8.39019 19.1677L8.25577 20.0713C8.03577 21.5367 9.05655 22.0325 12.1685 22.0325ZM18.5173 13.9036L18.5173 17.6012L22.4611 21.5502C22.9774 22.0664 23.8284 22.0567 24.3297 21.5427C24.8138 21.0414 24.8362 20.1933 24.3297 19.6868Z"
                     fill="currentColor" fill-opacity="0.85" />
       </g>
</svg>