<?xml version="1.0" encoding="UTF-8"?>
<!--Generator: Apple Native CoreSVG 326-->
<!DOCTYPE svg PUBLIC "-//W3C//DTD SVG 1.1//EN" "http://www.w3.org/Graphics/SVG/1.1/DTD/svg11.dtd">
<svg version="1.1" xmlns="http://www.w3.org/2000/svg" xmlns:xlink="http://www.w3.org/1999/xlink"
       viewBox="0 0 37.581 25.2158">
       <g>
              <rect height="25.2158" opacity="0" width="37.581" x="0" y="0" />
              <path d="M3.73963 19.1475L4.04151 19.1475C3.94562 18.7777 3.89909 18.3929 3.89909 17.9983C3.89909 15.4245 5.97717 13.3539 8.55329 13.3539C11.122 13.3539 13.2075 15.4245 13.2075 17.9983C13.2075 18.3929 13.1535 18.7777 13.0628 19.1475L24.1597 19.1475C24.0638 18.7777 24.0173 18.3929 24.0173 17.9983C24.0173 15.4245 26.0977 13.3539 28.6715 13.3539C31.2402 13.3539 33.328 15.4245 33.328 17.9983C33.328 18.3929 33.2666 18.7777 33.1758 19.1475L33.48 19.1475C35.9246 19.1475 37.2197 17.7887 37.2197 15.2023L37.2197 12.4002C37.2197 10.2928 36.1095 8.9959 34.0078 8.24868L32.5073 7.71618C30.557 6.02157 27.5363 3.8647 23.6354 3.8647L22.0242 3.8647C17.7489 3.8647 15.9424 4.28747 13.3558 5.91821L9.35596 8.44344L4.99248 8.97079C1.89945 9.34012 0 11.3332 0 14.0333L0 15.2758C0 17.8083 1.29968 19.1475 3.73963 19.1475ZM8.55329 21.2563C10.3529 21.2563 11.8136 19.8031 11.8136 17.9983C11.8136 16.201 10.3529 14.7478 8.55329 14.7478C6.75599 14.7478 5.29534 16.201 5.29534 17.9983C5.29534 19.8031 6.75599 21.2563 8.55329 21.2563ZM28.6715 21.2563C30.4711 21.2563 31.9318 19.8031 31.9318 17.9983C31.9318 16.201 30.4711 14.7478 28.6715 14.7478C26.8742 14.7478 25.4136 16.201 25.4136 17.9983C25.4136 19.8031 26.8742 21.2563 28.6715 21.2563ZM19.1867 14.2187C17.994 14.2187 17.1498 13.4514 17.1498 12.3552C17.1498 11.2738 17.9894 10.5037 19.1867 10.5037C20.3593 10.5037 21.1789 11.2738 21.1789 12.3552C21.1789 13.4514 20.357 14.2187 19.1867 14.2187ZM19.1867 9.07973C18.1814 9.07973 17.5463 8.5118 17.5118 7.51674L17.262 1.87252C17.2126 0.757959 17.9631 0 19.1643 0C20.3507 0 21.1086 0.757959 21.0592 1.87252L20.8295 7.49436C20.7876 8.5118 20.1697 9.07973 19.1867 9.07973Z"
                     fill="currentColor" fill-opacity="0.85" />
       </g>
</svg>