<?xml version="1.0" encoding="UTF-8"?>
<!--Generator: Apple Native CoreSVG 326-->
<!DOCTYPE svg PUBLIC "-//W3C//DTD SVG 1.1//EN" "http://www.w3.org/Graphics/SVG/1.1/DTD/svg11.dtd">
<svg version="1.1" xmlns="http://www.w3.org/2000/svg" xmlns:xlink="http://www.w3.org/1999/xlink"
       viewBox="0 0 37.581 17.4864">
       <g>
              <rect height="17.4864" opacity="0" width="37.581" x="0" y="0" />
              <path d="M3.73963 15.2828L5.6136 15.2828L5.6136 12.6139L3.73963 12.6139C3.02813 12.6139 2.66899 12.1737 2.66899 11.3376L2.66899 10.1686C2.66899 8.85755 3.54177 7.96524 5.33701 7.75555L9.37009 7.26211C9.99333 7.18399 10.5206 7.0025 11.0128 6.70614L14.785 4.33145C16.9656 2.96887 18.206 2.66899 22.0242 2.66899L23.6354 2.66899C26.1045 2.66899 28.0462 3.58641 30.618 5.82329C31.1516 6.29082 31.5001 6.45047 32.198 6.67332L33.2108 6.99789C34.0928 7.27715 34.5507 7.86079 34.5507 8.71458L34.5507 11.3376C34.5507 12.1737 34.1915 12.6139 33.48 12.6139L31.6089 12.6139L31.6089 15.2828L33.48 15.2828C35.9246 15.2828 37.2197 13.924 37.2197 11.3376L37.2197 8.53552C37.2197 6.42815 36.1095 5.1312 34.0078 4.38398L32.5073 3.85148C30.557 2.14995 27.5363 0 23.6354 0L22.0242 0C17.7489 0 15.9424 0.422773 13.3558 2.05351L9.35596 4.57874L4.99248 5.10609C1.89945 5.47542 0 7.46846 0 10.1686L0 11.4111C0 13.9436 1.29968 15.2828 3.73963 15.2828ZM10.9793 15.2828L26.0666 15.2828L26.0666 12.6139L10.9793 12.6139ZM8.38867 17.4817C10.6976 17.4817 12.512 15.6673 12.512 13.3584C12.512 11.0397 10.6976 9.2253 8.38867 9.2253C6.06997 9.2253 4.25557 11.0397 4.25557 13.3584C4.25557 15.6673 6.06997 17.4817 8.38867 17.4817ZM8.38867 14.9328C7.49691 14.9328 6.79706 14.2404 6.79706 13.3584C6.79706 12.4666 7.49691 11.7668 8.38867 11.7668C9.27067 11.7668 9.96306 12.4666 9.96306 13.3584C9.96306 14.2404 9.27067 14.9328 8.38867 14.9328ZM28.831 17.4817C31.1497 17.4817 32.9641 15.6673 32.9641 13.3584C32.9641 11.0397 31.1497 9.2253 28.831 9.2253C26.5197 9.2253 24.7053 11.0397 24.7053 13.3584C24.7053 15.6673 26.5197 17.4817 28.831 17.4817ZM28.831 14.9328C27.949 14.9328 27.2543 14.2404 27.2543 13.3584C27.2543 12.4666 27.949 11.7668 28.831 11.7668C29.7204 11.7668 30.4226 12.4666 30.4226 13.3584C30.4226 14.2404 29.7204 14.9328 28.831 14.9328Z"
                     fill="currentColor" fill-opacity="0.85" />
              <path d="M16.3437 11.0318L20.8834 11.0318C21.6472 11.0318 22.0032 10.3284 21.6156 9.66797L19.3897 5.9452C19.0216 5.329 18.1883 5.31923 17.8277 5.9452L15.6064 9.66566C15.2113 10.3186 15.5552 11.0318 16.3437 11.0318Z"
                     fill="currentColor" fill-opacity="0.85" />
       </g>
</svg>