<?xml version="1.0" encoding="UTF-8"?>
<!--Generator: Apple Native CoreSVG 326-->
<!DOCTYPE svg PUBLIC "-//W3C//DTD SVG 1.1//EN" "http://www.w3.org/Graphics/SVG/1.1/DTD/svg11.dtd">
<svg version="1.1" xmlns="http://www.w3.org/2000/svg" xmlns:xlink="http://www.w3.org/1999/xlink"
       viewBox="0 0 25.4219 26.8464">
       <g>
              <rect height="26.8464" opacity="0" width="25.4219" x="0" y="0" />
              <path d="M12.5228 26.8464C17.835 26.8464 20.2106 25.4491 20.2106 22.293L20.2106 5.22795C20.2106 1.81683 17.5183 0.0051558 12.5228 0.0051558C7.54462 0.0051558 4.84997 1.83921 4.84997 5.22795L4.84997 22.293C4.84997 25.4491 7.22794 26.8464 12.5228 26.8464ZM12.5303 11.3978C11.4688 11.3978 10.0413 11.4886 9.70507 11.4886C8.91351 11.4886 8.57632 11.1807 8.51312 10.377L8.33448 8.32583C8.19777 6.79615 9.34999 6.21021 12.5303 6.21021C15.7279 6.21021 16.8801 6.79615 16.7434 8.32583L16.5624 10.377C16.4941 11.1807 16.162 11.4886 15.3653 11.4886C15.0268 11.4886 13.5803 11.3978 12.5303 11.3978ZM12.5303 22.5452C9.20878 22.5452 8.1214 22.015 8.35863 20.4486L8.5005 19.4858C8.6889 18.225 9.73952 17.7924 12.5303 17.7924C15.3309 17.7924 16.3889 18.225 16.5699 19.4858L16.7118 20.4486C16.9564 22.015 15.8616 22.5452 12.5303 22.5452ZM6.17925 6.45368L0.374284 12.2368C-0.132194 12.7456-0.117273 13.5914 0.374284 14.0928C0.875607 14.6067 1.72146 14.6239 2.24516 14.1002L6.17925 10.1512ZM18.8814 6.45368L18.8814 10.1512L22.8155 14.1002C23.3415 14.6239 24.185 14.6067 24.6863 14.0928C25.1779 13.5914 25.2003 12.7456 24.6863 12.2368ZM6.17925 13.9036L0.374284 19.6868C-0.132194 20.1933-0.117273 21.0414 0.374284 21.5427C0.875607 22.0567 1.72146 22.0664 2.24516 21.5502L6.17925 17.6012ZM18.8814 13.9036L18.8814 17.6012L22.8155 21.5502C23.3415 22.0664 24.185 22.0567 24.6863 21.5427C25.1779 21.0414 25.2003 20.1933 24.6863 19.6868Z"
                     fill="currentColor" fill-opacity="0.85" />
       </g>
</svg>