<?xml version="1.0" encoding="UTF-8"?>
<!--Generator: Apple Native CoreSVG 326-->
<!DOCTYPE svg PUBLIC "-//W3C//DTD SVG 1.1//EN" "http://www.w3.org/Graphics/SVG/1.1/DTD/svg11.dtd">
<svg version="1.1" xmlns="http://www.w3.org/2000/svg" xmlns:xlink="http://www.w3.org/1999/xlink"
       viewBox="0 0 35.0145 26.0824">
       <g>
              <rect height="26.0824" opacity="0" width="35.0145" x="0" y="0" />
              <path d="M3.48748 21.5254L3.75776 21.5254C3.66933 21.1825 3.63027 20.8247 3.63027 20.4571C3.63027 18.0619 5.56877 16.1332 7.96627 16.1332C10.354 16.1332 12.2925 18.0619 12.2925 20.4571C12.2925 20.8247 12.2483 21.1825 12.1575 21.5254L22.4933 21.5254C22.3974 21.1825 22.3607 20.8247 22.3607 20.4571C22.3607 18.0619 24.2969 16.1332 26.6944 16.1332C29.0844 16.1332 31.0206 18.0619 31.0206 20.4571C31.0206 20.8247 30.9764 21.1825 30.8856 21.5254L31.1657 21.5254C33.4488 21.5254 34.6532 20.2573 34.6532 17.857L34.6532 15.2479C34.6532 13.2824 33.6165 12.071 31.659 11.3778L30.2659 10.8844C28.4524 9.30695 25.6321 7.30172 21.9978 7.30172L20.5014 7.30172C16.5219 7.30172 14.8475 7.69519 12.4344 9.21105L8.70803 11.5605L4.65244 12.0511C1.76734 12.3934 0 14.2521 0 16.7609L0 17.9207C0 20.2843 1.20894 21.5254 3.48748 21.5254ZM7.96627 23.4899C9.63376 23.4899 10.9991 22.1321 10.9991 20.4571C10.9991 18.777 9.63376 17.4266 7.96627 17.4266C6.28385 17.4266 4.926 18.777 4.926 20.4571C4.926 22.1321 6.28385 23.4899 7.96627 23.4899ZM26.6944 23.4899C28.3693 23.4899 29.7272 22.1321 29.7272 20.4571C29.7272 18.777 28.3693 17.4266 26.6944 17.4266C25.0194 17.4266 23.6541 18.777 23.6541 20.4571C23.6541 22.1321 25.0194 23.4899 26.6944 23.4899Z"
                     fill="currentColor" fill-opacity="0.85" />
              <path d="M15.8455 5.50848L25.6892 5.50848C26.8435 5.50848 27.3105 4.90368 27.3105 3.64264L27.3105 2.62362C27.3105 0.871871 26.5132 0 24.7286 0L22.5477 0C20.6579 0 19.5128 0.347074 17.2345 1.46879L15.2461 2.44875C14.3698 2.88917 14.0976 3.36362 14.0976 4.09689C14.0976 4.9331 14.7056 5.50848 15.8455 5.50848Z"
                     fill="currentColor" fill-opacity="0.85" />
       </g>
</svg>