<?xml version="1.0" encoding="UTF-8"?>
<!--Generator: Apple Native CoreSVG 326-->
<!DOCTYPE svg PUBLIC "-//W3C//DTD SVG 1.1//EN" "http://www.w3.org/Graphics/SVG/1.1/DTD/svg11.dtd">
<svg version="1.1" xmlns="http://www.w3.org/2000/svg" xmlns:xlink="http://www.w3.org/1999/xlink"
       viewBox="0 0 20.6157 26.8464">
       <g>
              <rect height="26.8464" opacity="0" width="20.6157" x="0" y="0" />
              <path d="M1.31272 22.9641C2.04435 22.9641 2.64036 22.398 2.64036 21.6417L2.64036 11.6575C2.64036 10.9086 2.04435 10.335 1.31272 10.335C0.590851 10.335 0 10.9086 0 11.6477L0 21.6589C0 22.398 0.590851 22.9641 1.31272 22.9641ZM1.37241 15.2501L6.02831 15.2501L6.02831 12.9338L1.37241 12.9338ZM12.5665 26.8464C17.8787 26.8464 20.2543 25.4491 20.2543 22.293L20.2543 5.22795C20.2543 1.81683 17.562 0.0051558 12.5665 0.0051558C7.58601 0.0051558 4.89367 1.83921 4.89367 5.22795L4.89367 22.293C4.89367 25.4491 7.26933 26.8464 12.5665 26.8464ZM12.5665 24.2405C9.08052 24.2405 7.51681 23.6207 7.51681 22.1925L7.51681 5.31002C7.51681 3.55845 9.29263 2.62083 12.5665 2.62083C15.8577 2.62083 17.6312 3.57337 17.6312 5.31002L17.6312 22.1925C17.6312 23.6207 16.0698 24.2405 12.5665 24.2405ZM12.574 11.5827C13.5574 11.5827 14.9201 11.6734 15.2316 11.6734C15.9789 11.6734 16.2937 11.3828 16.3523 10.6211L16.5258 8.70305C16.6528 7.28188 15.5671 6.72294 12.574 6.72294C9.58833 6.72294 8.50502 7.28188 8.62966 8.70305L8.80314 10.6211C8.86404 11.3828 9.17654 11.6734 9.92619 11.6734C10.2354 11.6734 11.5791 11.5827 12.574 11.5827ZM12.574 22.0325C15.7009 22.0325 16.7119 21.5367 16.4942 20.0713L16.3598 19.1677C16.1961 17.9735 15.1971 17.5829 12.574 17.5829C9.96064 17.5829 8.96916 17.9735 8.79798 19.1677L8.66357 20.0713C8.44357 21.5367 9.45689 22.0325 12.574 22.0325Z"
                     fill="currentColor" fill-opacity="0.85" />
       </g>
</svg>