<?xml version="1.0" encoding="UTF-8"?>
<!--Generator: Apple Native CoreSVG 326-->
<!DOCTYPE svg PUBLIC "-//W3C//DTD SVG 1.1//EN" "http://www.w3.org/Graphics/SVG/1.1/DTD/svg11.dtd">
<svg version="1.1" xmlns="http://www.w3.org/2000/svg" xmlns:xlink="http://www.w3.org/1999/xlink"
       viewBox="0 0 25.3245 20.5716">
       <g>
              <rect height="20.5716" opacity="0" width="25.3245" x="0" y="0" />
              <path d="M0 14.3268C0 15.9493 1.00101 17.1783 2.70162 17.1783L22.2639 17.1783C23.9622 17.1783 24.9632 15.9493 24.9632 14.3268L24.9632 11.4591C24.9632 9.52755 24.7759 8.40693 23.7402 7.24373L22.7165 6.08975L21.6464 3.17268C20.9032 1.13093 19.6327 0.375037 18.1135 0.181483C17.2652 0.0660545 15.2981 0 12.4779 0C9.66736 0 7.70029 0.0660545 6.85201 0.181483C5.32299 0.375037 4.05249 1.13093 3.30933 3.17268L2.24664 6.08975L1.21785 7.24373C0.187306 8.40693 0 9.52755 0 11.4591ZM2.35364 13.5035L2.35364 11.1085C2.35364 9.84751 2.66656 9.19146 3.18099 8.56215L4.43778 6.96259L5.33458 4.39047C5.84688 2.92532 6.56778 2.61962 7.33423 2.51219C8.1159 2.40423 9.82974 2.33126 12.4779 2.33126C15.1283 2.33126 16.8473 2.40423 17.629 2.51219C18.3954 2.61962 19.1088 2.92532 19.6211 4.39047L20.5179 6.96259L21.777 8.56215C22.2966 9.19146 22.6095 9.84751 22.6095 11.1085L22.6095 13.5035C22.6095 14.2675 22.2448 14.7576 21.4124 14.7576L3.55075 14.7576C2.71321 14.7576 2.35364 14.2675 2.35364 13.5035ZM6.47692 6.84134L18.4863 6.84134C19.0973 6.84134 19.4252 6.45939 19.2265 5.90748L18.6727 4.35517C18.4205 3.64579 17.9467 3.43841 17.1863 3.33044C16.6859 3.25747 15.0526 3.21896 12.4779 3.21896C9.90313 3.21896 8.27962 3.25747 7.77684 3.33044C7.0113 3.43841 6.54267 3.64579 6.28306 4.35517L5.73673 5.90748C5.54033 6.45939 5.86587 6.84134 6.47692 6.84134ZM5.28199 12.6822C5.95054 12.6822 6.46515 12.175 6.46515 11.4967L6.46515 10.0984C6.46515 9.42013 5.95054 8.91529 5.28199 8.91529C4.58875 8.91529 4.08161 9.42244 4.08161 10.0984L4.08161 11.4967C4.08161 12.1727 4.58875 12.6822 5.28199 12.6822ZM10.4253 12.2278L14.4936 12.2278C15.0645 12.2278 15.4643 11.8281 15.4643 11.2302L15.4643 10.365C15.4643 9.77454 15.0795 9.38689 14.4936 9.38689L10.4253 9.38689C9.85904 9.38689 9.46677 9.77454 9.46677 10.365L9.46677 11.2302C9.46677 11.8206 9.85904 12.2278 10.4253 12.2278ZM19.7639 12.6822C20.4497 12.6822 20.9592 12.1825 20.9592 11.4967L20.9592 10.0984C20.9592 9.41267 20.4497 8.91529 19.7639 8.91529C19.1051 8.91529 18.5808 9.4322 18.5808 10.0984L18.5808 11.4967C18.5808 12.1578 19.1051 12.6822 19.7639 12.6822ZM1.90132 19.8461L3.15581 19.8461C3.94046 19.8461 4.55909 19.2349 4.55909 18.4451L4.55909 15.9232L0.498047 14.7296L0.498047 18.4451C0.498047 19.2349 1.11668 19.8461 1.90132 19.8461ZM21.8074 19.8461L23.0642 19.8461C23.8488 19.8461 24.4651 19.2349 24.4651 18.4451L24.4651 14.7296L20.4064 15.9232L20.4064 18.4451C20.4064 19.2349 21.0227 19.8461 21.8074 19.8461Z"
                     fill="currentColor" fill-opacity="0.85" />
       </g>
</svg>