<?xml version="1.0" encoding="UTF-8"?>
<!--Generator: Apple Native CoreSVG 326-->
<!DOCTYPE svg PUBLIC "-//W3C//DTD SVG 1.1//EN" "http://www.w3.org/Graphics/SVG/1.1/DTD/svg11.dtd">
<svg version="1.1" xmlns="http://www.w3.org/2000/svg" xmlns:xlink="http://www.w3.org/1999/xlink"
       viewBox="0 0 19.351 17.4864">
       <g>
              <rect height="17.4864" opacity="0" width="19.351" x="0" y="0" />
              <path d="M13.6967 14.1336C13.6967 15.9384 12.236 17.3916 10.4439 17.3916C8.63912 17.3916 7.17846 15.9384 7.17846 14.1336C7.17846 12.3363 8.63912 10.8831 10.4439 10.8831C12.236 10.8831 13.6967 12.3363 13.6967 14.1336ZM14.2797 3.85148L15.7727 4.38398C17.8744 5.1312 18.9897 6.42815 18.9897 8.53552L18.9897 11.3376C18.9897 13.924 17.697 15.2828 15.2449 15.2828L14.9459 15.2828C15.0389 14.913 15.0906 14.5282 15.0906 14.1336C15.0906 11.5598 13.0051 9.48916 10.4439 9.48916C7.87006 9.48916 5.78222 11.5598 5.78222 14.1336C5.78222 14.5282 5.82874 14.913 5.92464 15.2828L0 15.2828L0 0.201014C1.03504 0.0539839 2.2464 0 3.78912 0L5.40033 0C9.30118 0 12.3294 2.15687 14.2797 3.85148ZM4.17878 6.83436C3.80659 6.83436 3.53261 7.12557 3.53261 7.48284C3.53261 7.8401 3.80659 8.13131 4.17878 8.13131L10.8324 8.13131C11.1972 8.13131 11.4712 7.8401 11.4712 7.48284C11.4712 7.12557 11.1972 6.83436 10.8324 6.83436ZM4.14663 3.06956C3.56937 3.06956 3.33675 3.65659 3.71355 4.05292L5.42593 5.9526C5.67292 6.22889 5.98827 6.22659 6.23757 5.9526L7.95741 4.05292C8.34627 3.61983 8.09182 3.06956 7.52663 3.06956Z"
                     fill="currentColor" fill-opacity="0.85" />
       </g>
</svg>