<?xml version="1.0" encoding="UTF-8"?>
<!--Generator: Apple Native CoreSVG 326-->
<!DOCTYPE svg PUBLIC "-//W3C//DTD SVG 1.1//EN" "http://www.w3.org/Graphics/SVG/1.1/DTD/svg11.dtd">
<svg version="1.1" xmlns="http://www.w3.org/2000/svg" xmlns:xlink="http://www.w3.org/1999/xlink"
       viewBox="0 0 37.581 18.1027">
       <g>
              <rect height="18.1027" opacity="0" width="37.581" x="0" y="0" />
              <path d="M1.26729 2.47313L4.09902 2.47313C4.58718 2.47313 4.83308 2.60579 5.11968 2.89239L8.60139 6.38672L10.8994 5.10967L6.7845 1.00222C6.07634 0.301521 5.47591 0 4.13213 0L1.26729 0C0.51218 0 0 0.519641 0 1.23053C0 1.94888 0.50472 2.47313 1.26729 2.47313ZM3.73963 15.591L4.04151 15.591C3.94562 15.2212 3.89909 14.8364 3.89909 14.4418C3.89909 11.868 5.97717 9.79735 8.55329 9.79735C11.122 9.79735 13.2075 11.868 13.2075 14.4418C13.2075 14.8364 13.1535 15.2212 13.0628 15.591L24.1597 15.591C24.0638 15.2212 24.0173 14.8364 24.0173 14.4418C24.0173 11.868 26.0977 9.79735 28.6715 9.79735C31.2402 9.79735 33.328 11.868 33.328 14.4418C33.328 14.8364 33.2666 15.2212 33.1758 15.591L33.48 15.591C35.9246 15.591 37.2197 14.2322 37.2197 11.6458L37.2197 8.84372C37.2197 6.73634 36.1095 5.43939 34.0078 4.69217L32.5073 4.15967C30.557 2.46506 27.5363 0.308194 23.6354 0.308194L22.0242 0.308194C17.7489 0.308194 15.9424 0.730967 13.3558 2.36171L9.35596 4.88694L4.99248 5.41428C1.89945 5.78362 0 7.77665 0 10.4768L0 11.7193C0 14.2518 1.29968 15.591 3.73963 15.591ZM8.55329 17.6997C10.3529 17.6997 11.8136 16.2465 11.8136 14.4418C11.8136 12.6445 10.3529 11.1913 8.55329 11.1913C6.75599 11.1913 5.29534 12.6445 5.29534 14.4418C5.29534 16.2465 6.75599 17.6997 8.55329 17.6997ZM28.6715 17.6997C30.4711 17.6997 31.9318 16.2465 31.9318 14.4418C31.9318 12.6445 30.4711 11.1913 28.6715 11.1913C26.8742 11.1913 25.4136 12.6445 25.4136 14.4418C25.4136 16.2465 26.8742 17.6997 28.6715 17.6997Z"
                     fill="currentColor" fill-opacity="0.85" />
       </g>
</svg>