<?xml version="1.0" encoding="UTF-8"?>
<!--Generator: Apple Native CoreSVG 326-->
<!DOCTYPE svg PUBLIC "-//W3C//DTD SVG 1.1//EN" "http://www.w3.org/Graphics/SVG/1.1/DTD/svg11.dtd">
<svg version="1.1" xmlns="http://www.w3.org/2000/svg" xmlns:xlink="http://www.w3.org/1999/xlink"
       viewBox="0 0 25.1488 20.8934">
       <g>
              <rect height="20.8934" opacity="0" width="25.1488" x="0" y="0" />
              <path d="M3.93086 15.7846L3.93086 19.5895C3.93086 20.1901 3.47036 20.6506 2.87204 20.6506L1.94182 20.6506C1.34121 20.6506 0.880704 20.1901 0.880704 19.5895L0.880704 15.7846C0.880704 15.184 1.34121 14.7235 1.94182 14.7235L2.87204 14.7235C3.47036 14.7235 3.93086 15.184 3.93086 15.7846ZM23.8993 15.7846L23.8993 19.5895C23.8993 20.1878 23.4388 20.6483 22.8382 20.6483L21.9103 20.6483C21.3097 20.6483 20.8492 20.1878 20.8492 19.5895L20.8492 15.7846C20.8492 15.184 21.3097 14.7235 21.9103 14.7235L22.8382 14.7235C23.4388 14.7235 23.8993 15.184 23.8993 15.7846ZM3.93086 8.43404L3.93086 12.1769C3.93086 12.7776 3.47036 13.2381 2.87204 13.2381L1.94182 13.2381C1.34121 13.2381 0.880704 12.7776 0.880704 12.1769L0.880704 8.43404C0.880704 7.83573 1.34121 7.37523 1.94182 7.37523L2.87204 7.37523C3.47036 7.37523 3.93086 7.83573 3.93086 8.43404ZM3.93086 1.06112L3.93086 4.80633C3.93086 5.40694 3.47036 5.86744 2.87204 5.86744L1.94182 5.86744C1.34121 5.86744 0.880704 5.40694 0.880704 4.80633L0.880704 1.06112C0.880704 0.460501 1.34121 0 1.94182 0L2.87204 0C3.47036 0 3.93086 0.460501 3.93086 1.06112ZM23.8993 1.06112L23.8993 4.30234C23.3766 3.76249 22.6822 3.24316 21.8275 2.75069C21.492 2.55767 21.1652 2.38812 20.8492 2.24584L20.8492 1.06112C20.8492 0.460501 21.3097 0 21.9103 0L22.8382 0C23.4388 0 23.8993 0.460501 23.8993 1.06112Z"
                     fill="currentColor" fill-opacity="0.85" />
              <path d="M12.4926 18.9183C15.6995 20.7639 17.6691 20.752 18.8069 18.7795L24.6445 8.66235C25.8662 6.5642 24.8459 4.48994 21.8275 2.75069C18.8211 1.02121 16.5177 1.17624 15.3132 3.26694L9.46591 13.3916C8.32806 15.3565 9.30517 17.0802 12.4926 18.9183ZM17.8078 9.72165C17.1794 9.35232 16.2936 8.93525 16.1028 8.81454C15.56 8.51126 15.4669 8.14939 15.7162 7.60197L16.3055 6.31587C16.7944 5.26986 17.7415 5.33185 19.6925 6.45842C21.648 7.58498 22.1678 8.37763 21.5101 9.31623L20.6984 10.4702C20.3469 10.9832 19.9701 11.0567 19.4491 10.7609C19.2583 10.6373 18.4293 10.0812 17.8078 9.72165ZM13.9729 16.3506C11.9497 15.1741 11.4539 14.4383 12.192 13.5072L12.5999 12.9868C13.2088 12.2337 14.033 12.371 15.7208 13.3465C17.4132 14.3196 17.9543 14.9704 17.585 15.8625L17.338 16.4806C16.8877 17.5829 16.0134 17.522 13.9729 16.3506ZM13.8469 7.16494L14.9686 5.20526L14.0419 4.66639C13.5417 4.3821 12.9708 4.54405 12.6813 5.10912L12.6175 5.21557C12.328 5.77834 12.42 6.33892 12.9104 6.62091ZM21.9814 11.9255L22.9155 12.4718C23.4158 12.7561 23.9913 12.5918 24.2784 12.0291L24.3325 11.9203C24.6271 11.3552 24.5398 10.8067 24.0447 10.515L23.1031 9.97841Z"
                     fill="currentColor" fill-opacity="0.85" />
       </g>
</svg>