<?xml version="1.0" encoding="UTF-8"?>
<!--Generator: Apple Native CoreSVG 326-->
<!DOCTYPE svg PUBLIC "-//W3C//DTD SVG 1.1//EN" "http://www.w3.org/Graphics/SVG/1.1/DTD/svg11.dtd">
<svg version="1.1" xmlns="http://www.w3.org/2000/svg" xmlns:xlink="http://www.w3.org/1999/xlink"
       viewBox="0 0 26.5112 19.4214">
       <g>
              <rect height="19.4214" opacity="0" width="26.5112" x="0" y="0" />
              <path d="M3.368 7.09276C4.10733 6.04147 5.08741 5.28775 6.17777 4.83162C6.95253 4.50541 7.05874 3.80932 6.80198 3.30624C6.57397 2.83882 6.0382 2.52875 5.43867 2.7573C3.92391 3.36332 2.61192 4.48515 1.63481 5.88734C0.667467 7.30675 0.0465308 8.89733 7.596e-06 10.5465C-0.00229732 11.219 0.520316 11.6164 1.06246 11.6388C1.60745 11.6635 2.1553 11.3178 2.19952 10.5172C2.25811 9.33897 2.61659 8.16127 3.368 7.09276ZM13.0787 2.10647C14.3666 2.10647 15.542 2.48447 16.552 3.10377C17.2291 3.53564 17.8303 3.27088 18.1249 2.80225C18.4029 2.34339 18.3736 1.68988 17.8234 1.30914C16.4626 0.410156 14.7985 0 13.0787 0C11.3514 0 9.68727 0.410156 8.32645 1.30914C7.7763 1.68988 7.74469 2.34339 8.02493 2.80225C8.31953 3.27088 8.92082 3.53564 9.60538 3.10377C10.6078 2.48447 11.7832 2.10647 13.0787 2.10647ZM22.7819 7.09276C23.5333 8.16127 23.8918 9.33897 23.9504 10.5172C23.9946 11.3178 24.5424 11.6635 25.0874 11.6388C25.6273 11.6164 26.1522 11.219 26.1499 10.5465C26.1033 8.89733 25.4824 7.30675 24.5151 5.88734C23.538 4.48515 22.226 3.36332 20.7112 2.7573C20.1117 2.52875 19.5759 2.83882 19.3479 3.30624C19.0911 3.80932 19.1973 4.50541 19.9721 4.83162C21.0625 5.28775 22.0425 6.04147 22.7819 7.09276Z"
                     fill="currentColor" fill-opacity="0.85" />
              <path d="M6.19026 9.1251C6.51714 8.65689 6.9319 8.29096 7.39671 8.04506C8.15249 7.62526 8.22831 6.98206 7.95839 6.51573C7.69308 6.05918 7.10156 5.7841 6.51004 6.12062C5.82645 6.47964 5.05903 7.08335 4.48231 7.88984C3.93489 8.68886 3.61954 9.63491 3.4995 10.4064C3.4036 11.0036 3.77742 11.4406 4.23968 11.5877C4.79159 11.7686 5.48823 11.5033 5.62549 10.5764C5.70131 10.0357 5.89378 9.55084 6.19026 9.1251ZM13.0787 5.58873C13.6268 5.58873 14.1036 5.6933 14.6258 5.95873C15.3839 6.33431 15.9484 6.03971 16.189 5.55616C16.4222 5.07491 16.3096 4.40933 15.698 4.11242C14.9995 3.75109 14.0512 3.47996 13.0787 3.47996C12.0987 3.47996 11.1504 3.75109 10.4593 4.11242C9.84024 4.40933 9.72766 5.07491 9.96828 5.55616C10.2014 6.03971 10.766 6.33662 11.5241 5.95873C12.0462 5.6933 12.5306 5.58873 13.0787 5.58873ZM19.9596 9.1251C20.2561 9.55084 20.4486 10.0357 20.5244 10.5764C20.6616 11.5033 21.3583 11.7686 21.9102 11.5877C22.3724 11.4406 22.7463 11.0036 22.6504 10.4064C22.5378 9.63491 22.215 8.68886 21.6676 7.88984C21.096 7.08335 20.3309 6.47964 19.6473 6.12062C19.0483 5.7841 18.4568 6.05918 18.1915 6.51573C17.9216 6.98206 17.9974 7.62526 18.7532 8.04506C19.218 8.29096 19.6327 8.65689 19.9596 9.1251Z"
                     fill="currentColor" fill-opacity="0.85" />
              <path d="M7.54453 19.4019L18.6076 19.4019L18.6076 12.1793C18.6076 9.69909 16.6441 8.38073 13.0787 8.38073C9.5207 8.38073 7.54453 9.71401 7.54453 12.1793ZM13.0787 16.6342C12.3354 16.6342 11.3294 16.7077 11.0805 16.7077C10.4699 16.7077 10.1965 16.4389 10.1304 15.8041L9.99601 14.3755C9.88858 13.1985 10.7571 12.7665 13.0787 12.7665C15.3928 12.7665 16.2613 13.1985 16.1562 14.3755L16.0218 15.8041C15.9655 16.4389 15.692 16.7077 15.0693 16.7077C14.8228 16.7077 13.826 16.6342 13.0787 16.6342ZM8.24778 16.3819L8.24778 14.0821L7.13207 14.0821C6.5491 14.0821 6.15332 14.5255 6.15332 15.1733L6.15332 15.2982C6.15332 15.9362 6.5491 16.3819 7.13207 16.3819ZM17.9021 16.4491L19.0178 16.4491C19.6031 16.4491 19.9966 16.0034 19.9966 15.3653L19.9966 15.233C19.9966 14.5852 19.6031 14.1418 19.0178 14.1418L17.9021 14.1418Z"
                     fill="currentColor" fill-opacity="0.85" />
       </g>
</svg>