<?xml version="1.0" encoding="UTF-8"?>
<!--Generator: Apple Native CoreSVG 326-->
<!DOCTYPE svg PUBLIC "-//W3C//DTD SVG 1.1//EN" "http://www.w3.org/Graphics/SVG/1.1/DTD/svg11.dtd">
<svg version="1.1" xmlns="http://www.w3.org/2000/svg" xmlns:xlink="http://www.w3.org/1999/xlink"
       viewBox="0 0 20.3204 25.9042">
       <g>
              <rect height="25.9042" opacity="0" width="20.3204" x="0" y="0" />
              <path d="M2.4957 23.294C3.9973 24.8129 5.91651 25.6855 7.97191 25.79C8.71616 25.8198 9.19971 25.3185 9.19971 24.6282C9.19971 24.0516 8.73338 23.6365 7.95292 23.5601C6.50803 23.4326 5.15443 22.8581 4.03818 21.759C2.93169 20.6502 2.31985 19.2915 2.23712 17.8443C2.16591 17.0328 1.75533 16.6021 1.14768 16.6021C0.483309 16.6021-0.0369986 17.0621 0.00206392 17.823C0.151399 19.8784 0.982023 21.7999 2.4957 23.294Z"
                     fill="currentColor" fill-opacity="0.85" />
              <path d="M5.20108 20.5864C6.12487 21.5176 7.30554 22.0306 8.39905 22.15C9.10423 22.2246 9.64802 21.7376 9.64802 21.0342C9.64802 20.4645 9.24775 20.0998 8.4483 19.9597C7.83064 19.8442 7.25435 19.5673 6.7361 19.0513C6.23223 18.5377 5.95012 17.9568 5.83524 17.3207C5.69512 16.5276 5.36091 16.1538 4.76302 16.1538C4.05729 16.1538 3.55135 16.7022 3.64956 17.4384C3.80635 18.6373 4.32909 19.7144 5.20108 20.5864Z"
                     fill="currentColor" fill-opacity="0.85" />
              <path d="M13.034 19.1539C16.8138 19.1539 18.5658 18.1252 18.5658 15.8104L18.5658 3.80605C18.5658 1.33328 16.5896 0 13.034 0C9.46623 0 7.50498 1.32582 7.50498 3.80605L7.50498 15.8104C7.50498 18.1252 9.24435 19.1539 13.034 19.1539ZM13.0317 8.25347C12.2958 8.25347 11.2875 8.33445 11.041 8.33445C10.4206 8.33445 10.1397 8.06562 10.0886 7.43085L9.95645 6.00222C9.84387 4.81773 10.7175 4.38574 13.0317 4.38574C15.3458 4.38574 16.2194 4.81773 16.1143 6.00222L15.9799 7.43085C15.9236 8.06562 15.6404 8.33445 15.0298 8.33445C14.7809 8.33445 13.7767 8.25347 13.0317 8.25347ZM13.0317 16.1058C10.6205 16.1058 9.80536 15.7026 9.97829 14.4939L10.0834 13.8178C10.2173 12.8459 11.0191 12.5431 13.0317 12.5431C15.0442 12.5431 15.8535 12.8459 15.9851 13.8178L16.085 14.4939C16.2556 15.7026 15.4428 16.1058 13.0317 16.1058ZM17.8625 8.00866L18.9783 8.00866C19.5635 8.00866 19.957 7.56296 19.957 6.92492L19.957 6.79257C19.957 6.14476 19.5635 5.70137 18.9783 5.70137L17.8625 5.70137ZM8.20822 8.06835L8.20822 5.76105L7.09252 5.76105C6.50725 5.76105 6.10631 6.20445 6.10631 6.85972L6.10631 6.98461C6.10631 7.62265 6.50725 8.06835 7.09252 8.06835Z"
                     fill="currentColor" fill-opacity="0.85" />
       </g>
</svg>