<?xml version="1.0" encoding="UTF-8"?>
<!--Generator: Apple Native CoreSVG 326-->
<!DOCTYPE svg PUBLIC "-//W3C//DTD SVG 1.1//EN" "http://www.w3.org/Graphics/SVG/1.1/DTD/svg11.dtd">
<svg version="1.1" xmlns="http://www.w3.org/2000/svg" xmlns:xlink="http://www.w3.org/1999/xlink"
       viewBox="0 0 19.3706 17.4864">
       <g>
              <rect height="17.4864" opacity="0" width="19.3706" x="0" y="0" />
              <path d="M0 0.201014L0 2.90961C0.968435 2.73044 2.14019 2.66899 3.81612 2.66899L5.42732 2.66899C7.89639 2.66899 9.83811 3.58641 12.4099 5.82329C12.9337 6.29082 13.292 6.45047 13.9899 6.67332L15.0004 6.99789C15.8847 7.27715 16.3403 7.86079 16.3403 8.71458L16.3403 11.3376C16.3403 12.1737 15.9834 12.6139 15.2719 12.6139L13.4008 12.6139L13.4008 15.2828L15.2719 15.2828C17.7165 15.2828 19.0092 13.924 19.0092 11.3376L19.0092 8.53552C19.0092 6.42815 17.9014 5.1312 15.7997 4.38398L14.2992 3.85148C12.3489 2.15687 9.32818 0 5.42732 0L3.81612 0C2.27108 0 1.0448 0.0539839 0 0.201014ZM0 12.6139L0 15.2828L7.85848 15.2828L7.85848 12.6139ZM10.6229 17.4817C12.7677 17.4817 14.4478 15.7942 14.4478 13.6643C14.4478 11.5172 12.7677 9.83708 10.6229 9.83708C8.4907 9.83708 6.80312 11.5172 6.80312 13.6643C6.80312 15.7942 8.4907 17.4817 10.6229 17.4817ZM10.6229 15.1492C9.7908 15.1492 9.14317 14.4941 9.14317 13.6643C9.14317 12.8322 9.7908 12.1771 10.6229 12.1771C11.4601 12.1771 12.1152 12.8322 12.1152 13.6643C12.1152 14.4941 11.4601 15.1492 10.6229 15.1492Z"
                     fill="currentColor" fill-opacity="0.85" />
              <path d="M5.55913 6.76521C5.7912 7.02428 6.08932 7.02428 6.32139 6.76521L7.92526 4.9815C8.2946 4.58287 8.04991 4.05729 7.52663 4.05729L4.3562 4.05729C3.81339 4.05729 3.60546 4.61963 3.9478 4.9815ZM4.38088 8.80095L10.6229 8.80095C10.9629 8.80095 11.2271 8.53443 11.2271 8.19439C11.2271 7.86182 10.9629 7.5976 10.6229 7.5976L4.38088 7.5976C4.04085 7.5976 3.77663 7.86182 3.77663 8.19439C3.77663 8.53443 4.04085 8.80095 4.38088 8.80095Z"
                     fill="currentColor" fill-opacity="0.85" />
       </g>
</svg>