<?xml version="1.0" encoding="UTF-8"?>
<!--Generator: Apple Native CoreSVG 326-->
<!DOCTYPE svg PUBLIC "-//W3C//DTD SVG 1.1//EN" "http://www.w3.org/Graphics/SVG/1.1/DTD/svg11.dtd">
<svg version="1.1" xmlns="http://www.w3.org/2000/svg" xmlns:xlink="http://www.w3.org/1999/xlink"
       viewBox="0 0 37.581 17.4864">
       <g>
              <rect height="17.4864" opacity="0" width="37.581" x="0" y="0" />
              <path d="M11.8136 14.1336C11.8136 15.9384 10.3529 17.3916 8.55329 17.3916C6.75599 17.3916 5.29534 15.9384 5.29534 14.1336C5.29534 12.3363 6.75599 10.8831 8.55329 10.8831C10.3529 10.8831 11.8136 12.3363 11.8136 14.1336ZM31.9318 14.1336C31.9318 15.9384 30.4711 17.3916 28.6715 17.3916C26.8742 17.3916 25.4136 15.9384 25.4136 14.1336C25.4136 12.3363 26.8742 10.8831 28.6715 10.8831C30.4711 10.8831 31.9318 12.3363 31.9318 14.1336ZM32.5073 3.85148L34.0078 4.38398C36.1095 5.1312 37.2197 6.42815 37.2197 8.53552L37.2197 11.3376C37.2197 13.924 35.9246 15.2828 33.48 15.2828L33.1758 15.2828C33.2666 14.913 33.328 14.5282 33.328 14.1336C33.328 11.5598 31.2402 9.48916 28.6715 9.48916C26.0977 9.48916 24.0173 11.5598 24.0173 14.1336C24.0173 14.5282 24.0638 14.913 24.1597 15.2828L13.0628 15.2828C13.1535 14.913 13.2075 14.5282 13.2075 14.1336C13.2075 11.5598 11.122 9.48916 8.55329 9.48916C5.97717 9.48916 3.89909 11.5598 3.89909 14.1336C3.89909 14.5282 3.94562 14.913 4.04151 15.2828L3.73963 15.2828C1.29968 15.2828 0 13.9436 0 11.4111L0 10.1686C0 7.46846 1.89945 5.47542 4.99248 5.10609L9.35596 4.57874L13.3558 2.05351C15.9424 0.422773 17.7489 0 22.0242 0L23.6354 0C27.5363 0 30.557 2.15687 32.5073 3.85148ZM16.8461 4.35838C14.8988 4.35838 13.5668 5.61232 13.5668 7.41314C13.5668 9.19443 14.8988 10.4363 16.8364 10.4363L20.1263 10.4363L20.1263 11.0088C20.1263 11.7789 20.7305 12.0563 21.3754 11.6543L23.6073 10.2083C24.1224 9.88439 24.142 9.20444 23.6073 8.85124L21.3875 7.3978C20.7305 6.97624 20.1263 7.26338 20.1263 8.04099L20.1263 8.57671L16.8364 8.57671C16.0348 8.57671 15.4654 8.13713 15.4654 7.48381C15.4654 6.74544 16.0394 6.2352 16.8461 6.2352L22.1655 6.2352C22.7272 6.2352 23.132 5.84985 23.132 5.30771C23.132 4.77303 22.7272 4.35838 22.1557 4.35838Z"
                     fill="currentColor" fill-opacity="0.85" />
       </g>
</svg>