<?xml version="1.0" encoding="UTF-8"?>
<!--Generator: Apple Native CoreSVG 326-->
<!DOCTYPE svg PUBLIC "-//W3C//DTD SVG 1.1//EN" "http://www.w3.org/Graphics/SVG/1.1/DTD/svg11.dtd">
<svg version="1.1" xmlns="http://www.w3.org/2000/svg" xmlns:xlink="http://www.w3.org/1999/xlink"
       viewBox="0 0 33.9431 26.8751">
       <g>
              <rect height="26.8751" opacity="0" width="33.9431" x="0" y="0" />
              <path d="M7.83365 8.91032L8.04182 9.02763C8.11995 8.74103 8.23999 8.4642 8.38932 8.19482C9.38936 6.46127 11.6105 5.87424 13.3464 6.87428C15.0822 7.87662 15.6767 10.0903 14.6767 11.8313C14.5274 12.0932 14.3361 12.3333 14.1305 12.5487L21.6453 16.8815C21.7235 16.5949 21.8435 16.3158 21.9928 16.0562C22.9929 14.3128 25.214 13.7258 26.9499 14.7356C28.6857 15.7282 29.2825 17.9493 28.2802 19.6852C28.1309 19.9448 27.9396 20.1872 27.7363 20.4003L27.9445 20.5199C29.5953 21.4786 31.0024 21.0593 32.0099 19.3183L33.0962 17.4238C33.9256 15.9976 33.6798 14.6862 32.5505 13.3651L31.7462 12.4236C31.0879 10.5083 29.885 7.87347 27.2421 6.35179L26.1547 5.72624C23.2699 4.05523 21.8798 3.63761 19.4976 3.73296L15.8004 3.87714L12.6529 2.53003C10.4127 1.57136 8.35529 2.17847 7.30073 4.001L6.8153 4.8403C5.82733 6.55201 6.18514 7.96142 7.83365 8.91032ZM10.2681 12.2116C11.4802 12.913 13.0328 12.5023 13.7342 11.2828C14.4355 10.0708 14.0174 8.51818 12.8053 7.81681C11.5835 7.11545 10.0309 7.52615 9.33186 8.74564C8.62819 9.96513 9.04635 11.5103 10.2681 12.2116ZM23.8717 20.073C25.0837 20.7669 26.6363 20.3562 27.34 19.1418C28.039 17.9247 27.6209 16.372 26.4088 15.6707C25.1894 14.967 23.6367 15.3777 22.9354 16.5972C22.234 17.8167 22.6522 19.3618 23.8717 20.073Z"
                     fill="currentColor" fill-opacity="0.85" />
              <path d="M3.4968 5.15037L5.66926 1.39425C6.13043 0.589644 5.4654-0.146599 4.65103 0.025118L1.40205 0.690818C0.838065 0.813708 0.575606 1.26511 0.761699 1.81186L1.80377 4.9442C2.06853 5.74881 3.02817 5.95267 3.4968 5.15037ZM0.188561 9.75387C-0.200184 10.4555 0.033524 11.3318 0.693281 11.7085L26.5998 26.6605C27.267 27.0446 28.1432 26.8207 28.5274 26.146C28.9236 25.4495 28.6824 24.5732 28.025 24.1966L2.11615 9.23938C1.4587 8.8604 0.580157 9.08435 0.188561 9.75387Z"
                     fill="currentColor" fill-opacity="0.85" />
       </g>
</svg>