<?xml version="1.0" encoding="UTF-8"?>
<!--Generator: Apple Native CoreSVG 326-->
<!DOCTYPE svg PUBLIC "-//W3C//DTD SVG 1.1//EN" "http://www.w3.org/Graphics/SVG/1.1/DTD/svg11.dtd">
<svg version="1.1" xmlns="http://www.w3.org/2000/svg" xmlns:xlink="http://www.w3.org/1999/xlink"
       viewBox="0 0 20.6157 26.8464">
       <g>
              <rect height="26.8464" opacity="0" width="20.6157" x="0" y="0" />
              <path d="M18.9416 22.9641C19.6635 22.9641 20.2543 22.398 20.2543 21.6589L20.2543 11.6477C20.2543 10.9086 19.6635 10.335 18.9416 10.335C18.2048 10.335 17.614 10.9086 17.614 11.6575L17.614 21.6417C17.614 22.398 18.2048 22.9641 18.9416 22.9641ZM18.8819 15.2501L18.8819 12.9338L14.226 12.9338L14.226 15.2501ZM7.66541 26.8464C12.9775 26.8464 15.3532 25.4491 15.3532 22.293L15.3532 5.22795C15.3532 1.81683 12.6683 0.0051558 7.66541 0.0051558C2.68488 0.0051558 0 1.83921 0 5.22795L0 22.293C0 25.4491 2.37566 26.8464 7.66541 26.8464ZM7.66541 24.2405C4.18454 24.2405 2.62313 23.6207 2.62313 22.1925L2.62313 5.31002C2.62313 3.55845 4.39666 2.62083 7.66541 2.62083C10.9617 2.62083 12.7375 3.57337 12.7375 5.31002L12.7375 22.1925C12.7375 23.6207 11.1664 24.2405 7.66541 24.2405ZM7.68033 11.5827C8.65392 11.5827 10.0189 11.6734 10.3379 11.6734C11.0778 11.6734 11.3926 11.3828 11.4587 10.6211L11.6321 8.70305C11.7493 7.28188 10.6735 6.72294 7.68033 6.72294C4.69466 6.72294 3.61134 7.28188 3.73599 8.70305L3.90947 10.6211C3.96806 11.3828 4.28287 11.6734 5.03251 11.6734C5.34174 11.6734 6.68545 11.5827 7.68033 11.5827ZM7.68033 22.0325C10.7974 22.0325 11.8182 21.5367 11.5982 20.0713L11.4661 19.1677C11.2949 17.9735 10.3035 17.5829 7.68033 17.5829C5.0572 17.5829 4.06802 17.9735 3.89455 19.1677L3.76244 20.0713C3.54244 21.5367 4.56322 22.0325 7.68033 22.0325Z"
                     fill="currentColor" fill-opacity="0.85" />
       </g>
</svg>