<?xml version="1.0" encoding="UTF-8"?>
<!--Generator: Apple Native CoreSVG 326-->
<!DOCTYPE svg PUBLIC "-//W3C//DTD SVG 1.1//EN" "http://www.w3.org/Graphics/SVG/1.1/DTD/svg11.dtd">
<svg version="1.1" xmlns="http://www.w3.org/2000/svg" xmlns:xlink="http://www.w3.org/1999/xlink"
       viewBox="0 0 21.5612 19.6111">
       <g>
              <rect height="19.6111" opacity="0" width="21.5612" x="0" y="0" />
              <path d="M13.2931 1.83479L20.7892 14.9335C21.0706 15.4303 21.1999 15.9685 21.1999 16.4872C21.1999 18.1529 19.9329 19.6111 18.0862 19.6111L3.12112 19.6111C1.26698 19.6111 0 18.1529 0 16.4872C0 15.9685 0.132109 15.4326 0.410702 14.9409L7.90676 1.83479C8.49433 0.7969 9.54484 0.265614 10.6074 0.265614C11.6625 0.265614 12.6883 0.781979 13.2931 1.83479ZM8.4415 8.34033C7.84119 8.40353 7.32822 8.71373 7.04447 9.51099L6.63772 10.6251L6.24303 11.0588C5.81674 11.5196 5.76615 11.9688 5.76615 12.7133L5.76615 15.3916C5.76615 15.7139 6.02752 15.9603 6.34693 15.9603L6.83236 15.9603C7.15693 15.9603 7.40338 15.7139 7.40338 15.3916L7.40338 14.941L13.8045 14.941L13.8045 15.3916C13.8045 15.7139 14.0435 15.9603 14.3681 15.9603L14.8558 15.9603C15.1752 15.9603 15.4343 15.7139 15.4343 15.3916L15.4343 12.7133C15.4343 11.9688 15.3837 11.5196 14.9597 11.0588L14.565 10.6251L14.156 9.51099C13.8722 8.71373 13.3667 8.40353 12.7612 8.34033C12.4557 8.29381 11.6731 8.28174 10.6051 8.28174C9.52737 8.28174 8.75455 8.29381 8.4415 8.34033ZM8.04536 12.2312L8.04536 12.8029C8.04536 13.0787 7.8552 13.2516 7.6013 13.2516C7.34048 13.2516 7.14286 13.0787 7.14286 12.8029L7.14286 12.2312C7.14286 11.975 7.34048 11.7849 7.6013 11.7849C7.8552 11.7849 8.04536 11.9727 8.04536 12.2312ZM14.0915 12.2312L14.0915 12.8029C14.0915 13.0861 13.9013 13.2516 13.6428 13.2516C13.3791 13.2516 13.1988 13.0787 13.1988 12.8029L13.1988 12.2312C13.1988 11.975 13.3791 11.7849 13.6428 11.7849C13.9013 11.7849 14.0915 11.9727 14.0915 12.2312ZM11.7961 12.341L11.7961 12.703C11.7961 12.9224 11.6668 13.0591 11.4422 13.0591L9.75362 13.0591C9.52385 13.0591 9.39459 12.9224 9.39459 12.703L9.39459 12.341C9.39459 12.1238 9.52385 11.9848 9.75362 11.9848L11.4422 11.9848C11.6668 11.9848 11.7961 12.1238 11.7961 12.341ZM12.5719 9.36439C12.8654 9.41091 13.0463 9.47357 13.1463 9.74646L13.36 10.4049C13.4112 10.5928 13.3302 10.7267 13.093 10.7267L8.09486 10.7267C7.87255 10.7267 7.77435 10.5928 7.83525 10.4049L8.06392 9.74646C8.15927 9.47357 8.33505 9.41091 8.62857 9.36439C8.84177 9.33509 9.52209 9.32587 10.6051 9.32587C11.6807 9.32587 12.3564 9.33509 12.5719 9.36439Z"
                     fill="currentColor" fill-opacity="0.85" />
       </g>
</svg>