<?xml version="1.0" encoding="UTF-8"?>
<!--Generator: Apple Native CoreSVG 326-->
<!DOCTYPE svg PUBLIC "-//W3C//DTD SVG 1.1//EN" "http://www.w3.org/Graphics/SVG/1.1/DTD/svg11.dtd">
<svg version="1.1" xmlns="http://www.w3.org/2000/svg" xmlns:xlink="http://www.w3.org/1999/xlink"
       viewBox="0 0 28.2152 24.7601">
       <g>
              <rect height="24.7601" opacity="0" width="28.2152" x="0" y="0" />
              <path d="M27.8539 12.093L27.8539 9.2535C27.5332 9.42128 27.2103 9.60112 26.8851 9.80741L23.2684 12.0983L19.3398 12.5642C16.5477 12.8944 14.8269 14.7065 14.8269 17.1373L14.8269 18.2603C14.8269 20.5481 15.9991 21.7524 18.2064 21.7524L19.8966 21.7524L19.8966 19.3441L18.2064 19.3441C17.5702 19.3441 17.2426 18.9551 17.2426 18.1868L17.2426 17.1373C17.2426 15.9481 18.0252 15.1505 19.6424 14.9506L23.2797 14.5135C23.8541 14.44 24.325 14.2906 24.7707 14.0138L27.5722 12.2591C27.6636 12.1965 27.755 12.1436 27.8539 12.093ZM27.8464 21.7524L27.8464 19.3441L24.7367 19.3441L24.7367 21.7524ZM22.4005 23.7411C24.4866 23.7411 26.1247 22.103 26.1247 20.0169C26.1247 17.9308 24.4866 16.2928 22.4005 16.2928C20.307 16.2928 18.6712 17.9308 18.6712 20.0169C18.6712 22.103 20.307 23.7411 22.4005 23.7411ZM22.4005 21.4408C21.5984 21.4408 20.9692 20.8139 20.9692 20.0169C20.9692 19.2177 21.5984 18.5833 22.4005 18.5833C23.1998 18.5833 23.829 19.2177 23.829 20.0169C23.829 20.8139 23.1998 21.4408 22.4005 21.4408ZM5.08649 23.7411C7.18004 23.7411 8.81581 22.103 8.81581 20.0169C8.81581 17.9308 7.18004 16.2928 5.08649 16.2928C2.99811 16.2928 1.36003 17.9308 1.36003 20.0169C1.36003 22.103 2.99811 23.7411 5.08649 23.7411ZM5.08649 21.4408C4.28723 21.4408 3.65805 20.8139 3.65805 20.0169C3.65805 19.2177 4.28723 18.5833 5.08649 18.5833C5.88861 18.5833 6.51779 19.2177 6.51779 20.0169C6.51779 20.8139 5.88861 21.4408 5.08649 21.4408ZM0 19.3441L0 21.7524L2.58401 21.7524L2.58401 19.3441ZM7.58583 21.7524L9.28062 21.7524C11.4926 21.7524 12.6578 20.5234 12.6578 18.1868L12.6578 15.6731C12.6578 13.7639 11.6505 12.5944 9.74925 11.9156L8.40499 11.4365C6.63104 9.90155 3.91765 7.96644 0.427625 7.96644L0 7.96644L0 10.377L0.427625 10.377C2.63927 10.377 4.38392 11.2112 6.70001 13.2165C7.17215 13.645 7.49145 13.7874 8.11578 13.981L9.02859 14.2786C9.82786 14.5239 10.2421 15.061 10.2421 15.8298L10.2421 18.1868C10.2421 18.9551 9.91684 19.3441 9.28062 19.3441L7.58583 19.3441Z"
                     fill="currentColor" fill-opacity="0.85" />
              <path d="M14.0475 4.11963C13.0333 5.81667 12.5208 7.76421 12.565 9.71055C12.5794 10.2975 13.044 10.7299 13.6366 10.7299C14.2338 10.7253 14.6541 10.2383 14.6616 9.56188C14.6398 8.03535 15.042 6.5087 15.8402 5.15795C16.6631 3.81235 17.7939 2.72364 19.1608 2.02403C19.7408 1.69333 19.9413 1.05881 19.6479 0.548267C19.3643 0.0325687 18.7521-0.151219 18.2295 0.134714C16.5243 1.03588 15.0518 2.43237 14.0475 4.11963Z"
                     fill="currentColor" fill-opacity="0.85" />
              <path d="M16.6226 5.63519C15.8734 6.89902 15.5091 8.33007 15.5705 9.75015C15.5975 10.3296 16.0397 10.7276 16.6197 10.7299C17.2347 10.7276 17.6671 10.2406 17.6671 9.53719C17.6304 8.5616 17.8941 7.57042 18.4372 6.67865C18.9682 5.78865 19.7049 5.08079 20.5823 4.65802C21.1944 4.30033 21.4127 3.68073 21.1067 3.14726C20.811 2.64648 20.2184 2.47531 19.7204 2.74402C18.4623 3.35167 17.3741 4.37706 16.6226 5.63519Z"
                     fill="currentColor" fill-opacity="0.85" />
              <path d="M19.215 7.16105C18.7157 7.98367 18.5025 8.95507 18.5812 9.83222C18.6185 10.3525 19.0831 10.7299 19.6481 10.7276C20.2747 10.7276 20.6749 10.2262 20.66 9.50043C20.6531 9.05109 20.7784 8.6137 21.0198 8.19421C21.2784 7.79479 21.6113 7.47755 21.9946 7.29431C22.6337 6.93147 22.8761 6.33425 22.5729 5.77949C22.2996 5.3057 21.7345 5.09723 21.2538 5.31371C20.426 5.69105 19.6924 6.3505 19.215 7.16105Z"
                     fill="currentColor" fill-opacity="0.85" />
       </g>
</svg>