<?xml version="1.0" encoding="UTF-8"?>
<!--Generator: Apple Native CoreSVG 326-->
<!DOCTYPE svg PUBLIC "-//W3C//DTD SVG 1.1//EN" "http://www.w3.org/Graphics/SVG/1.1/DTD/svg11.dtd">
<svg version="1.1" xmlns="http://www.w3.org/2000/svg" xmlns:xlink="http://www.w3.org/1999/xlink"
       viewBox="0 0 30.0292 26.8464">
       <g>
              <rect height="26.8464" opacity="0" width="30.0292" x="0" y="0" />
              <path d="M14.8328 26.8464C20.1375 26.8464 22.5154 25.4491 22.5154 22.293L22.5154 5.22795C22.5154 1.81683 19.8208 0.0051558 14.8328 0.0051558C9.85455 0.0051558 7.16221 1.83921 7.16221 5.22795L7.16221 22.293C7.16221 25.4491 9.53786 26.8464 14.8328 26.8464ZM14.8351 11.4724C13.8034 11.4724 12.4132 11.5632 12.0896 11.5632C11.3078 11.5632 10.9832 11.2702 10.9223 10.4815L10.7489 8.48997C10.6121 7.00505 11.7368 6.42657 14.8351 6.42657C17.9333 6.42657 19.0557 7.00505 18.9213 8.48997L18.7478 10.4815C18.6846 11.2702 18.3623 11.5632 17.5782 11.5632C17.2495 11.5632 15.8454 11.4724 14.8351 11.4724ZM14.8351 22.3288C11.5933 22.3288 10.5455 21.8061 10.773 20.2844L10.9074 19.3441C11.0884 18.1205 12.1166 17.6954 14.8351 17.6954C17.5438 17.6954 18.572 18.1205 18.7604 19.3441L18.8948 20.2844C19.1246 21.8061 18.0671 22.3288 14.8351 22.3288ZM8.13962 11.0128L8.13962 8.11584L6.75684 8.11584C6.03037 8.11584 5.55306 8.65568 5.55306 9.4843L5.55306 9.65693C5.55306 10.4781 6.03037 11.0128 6.75684 11.0128ZM21.5282 11.1023L22.911 11.1023C23.6398 11.1023 24.1148 10.5602 24.1148 9.74646L24.1148 9.57383C24.1148 8.74521 23.6398 8.20537 22.911 8.20537L21.5282 8.20537Z"
                     fill="currentColor" fill-opacity="0.85" />
              <path d="M30.0292 20.4351L30.0292 15.8931C30.0292 15.1293 29.3258 14.7658 28.6728 15.1609L24.9449 17.3868C24.3264 17.7572 24.3166 18.5807 24.9449 18.9511L28.6728 21.1724C29.3183 21.5526 30.0292 21.2236 30.0292 20.4351Z"
                     fill="currentColor" fill-opacity="0.85" />
       </g>
</svg>