<?xml version="1.0" encoding="UTF-8"?>
<!--Generator: Apple Native CoreSVG 326-->
<!DOCTYPE svg PUBLIC "-//W3C//DTD SVG 1.1//EN" "http://www.w3.org/Graphics/SVG/1.1/DTD/svg11.dtd">
<svg version="1.1" xmlns="http://www.w3.org/2000/svg" xmlns:xlink="http://www.w3.org/1999/xlink"
       viewBox="0 0 20.3204 25.9042">
       <g>
              <rect height="25.9042" opacity="0" width="20.3204" x="0" y="0" />
              <path d="M2.4957 23.294C3.9973 24.8129 5.91651 25.6855 7.97191 25.79C8.71616 25.8198 9.19971 25.3185 9.19971 24.6282C9.19971 24.0516 8.73338 23.6365 7.95292 23.5601C6.50803 23.4326 5.15443 22.8581 4.03818 21.759C2.93169 20.6502 2.31985 19.2915 2.23712 17.8443C2.16591 17.0328 1.75533 16.6021 1.14768 16.6021C0.483309 16.6021-0.0369986 17.0621 0.00206392 17.823C0.151399 19.8784 0.982023 21.7999 2.4957 23.294Z"
                     fill="currentColor" fill-opacity="0.85" />
              <path d="M5.20108 20.5864C6.12487 21.5176 7.30554 22.0306 8.39905 22.15C9.10423 22.2246 9.64802 21.7376 9.64802 21.0342C9.64802 20.4645 9.24775 20.0998 8.4483 19.9597C7.83064 19.8442 7.25435 19.5673 6.7361 19.0513C6.23223 18.5377 5.95012 17.9568 5.83524 17.3207C5.69512 16.5276 5.36091 16.1538 4.76302 16.1538C4.05729 16.1538 3.55135 16.7022 3.64956 17.4384C3.80635 18.6373 4.32909 19.7144 5.20108 20.5864Z"
                     fill="currentColor" fill-opacity="0.85" />
              <path d="M13.034 19.1539C16.8138 19.1539 18.5658 18.1252 18.5658 15.8104L18.5658 3.80605C18.5658 1.33328 16.5896 0 13.034 0C9.46623 0 7.50498 1.32582 7.50498 3.80605L7.50498 15.8104C7.50498 18.1252 9.24435 19.1539 13.034 19.1539ZM13.034 17.0635C10.5945 17.0635 9.60519 16.6562 9.60519 15.7392L9.60519 3.85827C9.60519 2.71327 10.7388 2.10252 13.034 2.10252C15.3171 2.10252 16.4558 2.71327 16.4558 3.85827L16.4558 15.7392C16.4558 16.6562 15.4688 17.0635 13.034 17.0635ZM13.0317 8.37921C13.7273 8.37921 14.6724 8.44526 14.9017 8.44526C15.4877 8.44526 15.7537 8.20112 15.8025 7.60827L15.9197 6.25601C16.0248 5.1628 15.208 4.74804 13.0317 4.74804C10.8553 4.74804 10.046 5.1628 10.1436 6.25601L10.2683 7.60827C10.3171 8.20112 10.5831 8.44526 11.169 8.44526C11.3886 8.44526 12.3452 8.37921 13.0317 8.37921ZM13.0317 15.7435C15.2975 15.7435 16.061 15.365 15.8978 14.2402L15.8076 13.6059C15.6761 12.6857 14.9161 12.4002 13.0317 12.4002C11.1472 12.4002 10.3947 12.6857 10.2631 13.6059L10.1632 14.2402C10.0098 15.365 10.7732 15.7435 13.0317 15.7435ZM17.8625 8.00866L18.9783 8.00866C19.5635 8.00866 19.957 7.56296 19.957 6.92492L19.957 6.79257C19.957 6.14476 19.5635 5.70137 18.9783 5.70137L17.8625 5.70137ZM8.20822 8.06835L8.20822 5.76105L7.09252 5.76105C6.50725 5.76105 6.10631 6.20445 6.10631 6.85972L6.10631 6.98461C6.10631 7.62265 6.50725 8.06835 7.09252 8.06835Z"
                     fill="currentColor" fill-opacity="0.85" />
       </g>
</svg>