<?xml version="1.0" encoding="UTF-8"?>
<!--Generator: Apple Native CoreSVG 326-->
<!DOCTYPE svg PUBLIC "-//W3C//DTD SVG 1.1//EN" "http://www.w3.org/Graphics/SVG/1.1/DTD/svg11.dtd">
<svg version="1.1" xmlns="http://www.w3.org/2000/svg" xmlns:xlink="http://www.w3.org/1999/xlink"
       viewBox="0 0 30.7518 26.8464">
       <g>
              <rect height="26.8464" opacity="0" width="30.7518" x="0" y="0" />
              <path d="M15.1941 26.8464C20.4988 26.8464 22.8744 25.4491 22.8744 22.293L22.8744 5.22795C22.8744 1.81683 20.1821 0.0051558 15.1941 0.0051558C10.2159 0.0051558 7.52123 1.83921 7.52123 5.22795L7.52123 22.293C7.52123 25.4491 9.89919 26.8464 15.1941 26.8464ZM15.1941 11.4724C14.1648 11.4724 12.7722 11.5632 12.4509 11.5632C11.6668 11.5632 11.3446 11.2702 11.2814 10.4815L11.1102 8.48997C10.9735 7.00505 12.0959 6.42657 15.1941 6.42657C18.2947 6.42657 19.417 7.00505 19.2803 8.48997L19.1091 10.4815C19.0459 11.2702 18.7214 11.5632 17.9396 11.5632C17.6085 11.5632 16.2068 11.4724 15.1941 11.4724ZM15.1941 22.3288C11.9546 22.3288 10.9046 21.8061 11.1343 20.2844L11.2687 19.3441C11.4497 18.1205 12.4779 17.6954 15.1941 17.6954C17.9051 17.6954 18.9334 18.1205 19.1218 19.3441L19.2562 20.2844C19.4859 21.8061 18.4284 22.3288 15.1941 22.3288ZM8.50095 11.0128L8.50095 8.11584L7.11817 8.11584C6.38939 8.11584 5.91439 8.65568 5.91439 9.4843L5.91439 9.65693C5.91439 10.4781 6.38939 11.0128 7.11817 11.0128ZM21.8896 11.1023L23.2723 11.1023C24.0011 11.1023 24.4761 10.5602 24.4761 9.74646L24.4761 9.57383C24.4761 8.74521 24.0011 8.20537 23.2723 8.20537L21.8896 8.20537Z"
                     fill="currentColor" fill-opacity="0.85" />
              <path d="M0 20.4351C0 21.2236 0.71089 21.5526 1.35639 21.1724L5.08431 18.9511C5.71259 18.5807 5.70282 17.7572 5.08431 17.3868L1.35639 15.1609C0.703429 14.7658 0 15.1293 0 15.8931Z"
                     fill="currentColor" fill-opacity="0.85" />
       </g>
</svg>