<?xml version="1.0" encoding="UTF-8"?>
<!--Generator: Apple Native CoreSVG 326-->
<!DOCTYPE svg PUBLIC "-//W3C//DTD SVG 1.1//EN" "http://www.w3.org/Graphics/SVG/1.1/DTD/svg11.dtd">
<svg version="1.1" xmlns="http://www.w3.org/2000/svg" xmlns:xlink="http://www.w3.org/1999/xlink"
       viewBox="0 0 19.7989 18.1027">
       <g>
              <rect height="18.1027" opacity="0" width="19.7989" x="0" y="0" />
              <path d="M19.4375 3.05761L19.4375 0.388624C16.8769 0.569561 15.3587 1.09976 13.3558 2.36171L9.35596 4.88694L4.99248 5.41428C1.89945 5.78362 0 7.77665 0 10.4768L0 11.7193C0 14.2518 1.29968 15.591 3.73963 15.591L5.6136 15.591L5.6136 12.922L3.73963 12.922C3.02813 12.922 2.66899 12.4819 2.66899 11.6458L2.66899 10.4768C2.66899 9.16574 3.54177 8.27343 5.33701 8.06374L9.37009 7.5703C9.99333 7.49218 10.5206 7.3107 11.0128 7.01433L14.785 4.63965C16.3745 3.64586 17.4672 3.22133 19.4375 3.05761ZM19.4375 15.591L19.4375 12.922L10.9793 12.922L10.9793 15.591ZM8.38867 17.7899C10.6976 17.7899 12.512 15.9755 12.512 13.6666C12.512 11.3479 10.6976 9.5335 8.38867 9.5335C6.06997 9.5335 4.25557 11.3479 4.25557 13.6666C4.25557 15.9755 6.06997 17.7899 8.38867 17.7899ZM8.38867 15.241C7.49691 15.241 6.79706 14.5486 6.79706 13.6666C6.79706 12.7748 7.49691 12.075 8.38867 12.075C9.27067 12.075 9.96306 12.7748 9.96306 13.6666C9.96306 14.5486 9.27067 15.241 8.38867 15.241ZM1.26729 2.47313L4.09902 2.47313C4.58718 2.47313 4.83308 2.60579 5.11968 2.89239L8.60139 6.38672L10.8994 5.10967L6.7845 1.00222C6.07634 0.301521 5.47591 0 4.13213 0L1.26729 0C0.51218 0 0 0.519641 0 1.23053C0 1.94888 0.50472 2.47313 1.26729 2.47313Z"
                     fill="currentColor" fill-opacity="0.85" />
       </g>
</svg>