<?xml version="1.0" encoding="UTF-8"?>
<!--Generator: Apple Native CoreSVG 326-->
<!DOCTYPE svg PUBLIC "-//W3C//DTD SVG 1.1//EN" "http://www.w3.org/Graphics/SVG/1.1/DTD/svg11.dtd">
<svg version="1.1" xmlns="http://www.w3.org/2000/svg" xmlns:xlink="http://www.w3.org/1999/xlink"
       viewBox="0 0 31.775 26.9003">
       <g>
              <rect height="26.9003" opacity="0" width="31.775" x="0" y="0" />
              <path d="M28.813 21.4708L30.1594 21.4708C31.2993 21.4708 31.6588 20.5267 31.2436 19.7303L24.3177 6.15423C24.0645 5.67474 23.6631 5.43412 23.1945 5.43412L22.4851 5.43412C21.8449 5.43412 21.5119 6.01575 21.7507 6.62152L27.3204 20.4692C27.5461 21.0309 27.9883 21.4708 28.813 21.4708Z"
                     fill="currentColor" fill-opacity="0.85" />
              <path d="M1.24911 21.4783L2.60071 21.4783C3.42539 21.4783 3.86758 21.0384 4.09328 20.4767L9.66296 6.62898C9.90413 6.02321 9.56882 5.44904 8.9286 5.44904L8.21922 5.44904C7.74313 5.44904 7.34923 5.6822 7.0983 6.16169L0.170103 19.7377C-0.252549 20.5342 0.11436 21.4783 1.24911 21.4783Z"
                     fill="currentColor" fill-opacity="0.85" />
              <path d="M15.7115 2.06146C17.0672 2.06146 18.2789 2.5165 19.2176 3.35525C19.7832 3.82212 20.3683 3.84911 20.7542 3.45576C21.2096 3.01534 21.2222 2.3412 20.7175 1.86918C19.3699 0.648474 17.6059 0 15.7115 0C13.8171 0 12.0628 0.655935 10.7152 1.87664C10.2007 2.3412 10.2208 3.01534 10.671 3.45576C11.0494 3.84911 11.6397 3.81466 12.2002 3.35525C13.1613 2.53888 14.3505 2.06146 15.7115 2.06146Z"
                     fill="currentColor" fill-opacity="0.85" />
              <path d="M15.7115 5.43758C16.3423 5.43758 16.8577 5.61742 17.3012 5.92828C17.903 6.34578 18.4164 6.36586 18.8 5.98973C19.268 5.52177 19.2358 4.82701 18.711 4.40436C17.9346 3.78694 16.8633 3.36866 15.7115 3.36866C14.5522 3.36866 13.4808 3.78694 12.7119 4.40436C12.1871 4.82701 12.1498 5.52177 12.6327 5.98973C13.0088 6.36586 13.5222 6.33832 14.1315 5.92828C14.5652 5.61742 15.0881 5.43758 15.7115 5.43758Z"
                     fill="currentColor" fill-opacity="0.85" />
              <path d="M9.05058 17.7534C9.05058 18.1716 9.37569 18.4967 9.79386 18.4967L10.4613 18.4967C10.8818 18.4967 11.2046 18.1716 11.2046 17.7534L11.2046 17.0761L20.147 17.0761L20.147 17.7534C20.147 18.1716 20.4796 18.4967 20.9 18.4967L21.5577 18.4967C21.9782 18.4967 22.3033 18.1716 22.3033 17.7534L22.3033 14.0404C22.3033 13.0146 22.2062 12.4201 21.6616 11.8043L21.1142 11.1857L20.545 9.63813C20.155 8.55724 19.4744 8.15345 18.6697 8.05064C18.216 7.99665 17.1727 7.9599 15.6758 7.9599C14.1812 7.9599 13.1379 7.99665 12.6894 8.05064C11.8772 8.15345 11.2064 8.55724 10.8066 9.63813L10.2471 11.1857L9.69741 11.8043C9.15284 12.4201 9.05058 13.0146 9.05058 14.0404ZM12.2451 11.3642C11.8965 11.3642 11.7042 11.1414 11.8196 10.8272L12.1344 9.9425C12.2814 9.53641 12.5513 9.41922 12.9832 9.35778C13.2699 9.31641 14.2086 9.29973 15.6758 9.29973C17.1452 9.29973 18.0817 9.31641 18.3684 9.35778C18.8003 9.41922 19.0851 9.53641 19.2247 9.9425L19.5343 10.8272C19.6497 11.1414 19.4626 11.3642 19.1065 11.3642ZM11.5523 14.8601C11.1629 14.8601 10.8688 14.566 10.8688 14.1766L10.8688 13.381C10.8688 12.9939 11.1629 12.7073 11.5523 12.7073C11.9417 12.7073 12.2357 12.9916 12.2357 13.381L12.2357 14.1766C12.2357 14.566 11.9417 14.8601 11.5523 14.8601ZM14.5016 14.5987C14.1731 14.5987 13.9549 14.3655 13.9549 14.025L13.9549 13.5349C13.9549 13.2018 14.1731 12.9761 14.5016 12.9761L16.8304 12.9761C17.1613 12.9761 17.387 13.2018 17.387 13.5349L17.387 14.025C17.387 14.373 17.1613 14.5987 16.8304 14.5987ZM19.8407 14.8601C19.4633 14.8601 19.1595 14.5637 19.1595 14.1766L19.1595 13.381C19.1595 13.0013 19.4633 12.7073 19.8407 12.7073C20.2376 12.7073 20.5242 12.9841 20.5242 13.381L20.5242 14.1766C20.5242 14.5735 20.2376 14.8601 19.8407 14.8601Z"
                     fill="currentColor" fill-opacity="0.85" />
       </g>
</svg>