<?xml version="1.0" encoding="UTF-8"?>
<!--Generator: Apple Native CoreSVG 326-->
<!DOCTYPE svg PUBLIC "-//W3C//DTD SVG 1.1//EN" "http://www.w3.org/Graphics/SVG/1.1/DTD/svg11.dtd">
<svg version="1.1" xmlns="http://www.w3.org/2000/svg" xmlns:xlink="http://www.w3.org/1999/xlink"
       viewBox="0 0 19.9084 18.1931">
       <g>
              <rect height="18.1931" opacity="0" width="19.9084" x="0" y="0" />
              <path d="M10.4439 17.7449C12.236 17.7449 13.6967 16.2917 13.6967 14.487C13.6967 12.6897 12.236 11.2365 10.4439 11.2365C8.63912 11.2365 7.17846 12.6897 7.17846 14.487C7.17846 16.2917 8.63912 17.7449 10.4439 17.7449ZM12.1567 3.38825L14.1275 4.9926L16.2087 2.88493C16.4907 2.59833 16.7343 2.46567 17.2109 2.46567L18.2873 2.46567C19.0424 2.46567 19.5471 1.94373 19.5471 1.22537C19.5471 0.514485 19.0349 0 18.2873 0L17.1778 0C15.8404 0 15.252 0.294061 14.5462 0.997065ZM0 0.554398L0 15.6362L5.92464 15.6362C5.82874 15.2663 5.78222 14.8815 5.78222 14.487C5.78222 11.9132 7.87006 9.84254 10.4439 9.84254C13.0051 9.84254 15.0906 11.9132 15.0906 14.487C15.0906 14.8815 15.0389 15.2663 14.9459 15.6362L15.2449 15.6362C17.697 15.6362 18.9897 14.2774 18.9897 11.691L18.9897 8.88891C18.9897 6.78153 17.8744 5.48458 15.7727 4.73736L14.2797 4.20486C12.3294 2.51025 9.30118 0.353383 5.40033 0.353383L3.78912 0.353383C2.2464 0.353383 1.03504 0.407367 0 0.554398Z"
                     fill="currentColor" fill-opacity="0.85" />
       </g>
</svg>