<?xml version="1.0" encoding="UTF-8"?>
<!--Generator: Apple Native CoreSVG 326-->
<!DOCTYPE svg PUBLIC "-//W3C//DTD SVG 1.1//EN" "http://www.w3.org/Graphics/SVG/1.1/DTD/svg11.dtd">
<svg version="1.1" xmlns="http://www.w3.org/2000/svg" xmlns:xlink="http://www.w3.org/1999/xlink"
       viewBox="0 0 20.1406 27.6299">
       <g>
              <rect height="27.6299" opacity="0" width="20.1406" x="0" y="0" />
              <path d="M9.86807 2.38263C11.97 2.38263 13.9041 3.04791 15.2473 4.26697C15.7596 4.72299 16.3902 4.87287 16.9059 4.44846C17.4784 3.97928 17.553 3.17128 16.857 2.49945C15.1291 0.841057 12.5839 0 9.86807 0C7.17464 0 4.51754 0.923125 2.88656 2.49945C2.1929 3.17128 2.27497 3.97928 2.83773 4.44846C3.3632 4.87287 3.99147 4.72299 4.49631 4.26697C5.84694 3.04791 7.77593 2.38263 9.86807 2.38263Z"
                     fill="currentColor" fill-opacity="0.85" />
              <path d="M9.88014 6.73653C10.7242 6.73653 11.7214 7.04442 12.2673 7.4513C12.7916 7.83094 13.4027 7.95043 13.9035 7.56333C14.4737 7.12915 14.5058 6.25971 13.8649 5.65678C12.9371 4.80718 11.45 4.35389 9.88014 4.35389C8.31777 4.35389 6.83066 4.80718 5.90281 5.65678C5.25215 6.25971 5.29176 7.12915 5.86429 7.56333C6.36507 7.95043 6.96635 7.82864 7.49303 7.4513C8.051 7.04903 9.04358 6.73653 9.88014 6.73653Z"
                     fill="currentColor" fill-opacity="0.85" />
              <path d="M9.88475 23.0693C12.6541 23.0693 16.1026 22.9326 17.5571 22.7643C18.9459 22.6 19.7793 21.7564 19.7793 20.4313L19.7793 19.056C19.7793 17.5368 19.6005 16.6413 18.7986 15.6843L18.0571 14.8117C17.7567 13.4479 17.254 12.0181 16.9881 11.4419C16.4964 10.4 15.5303 9.74118 14.3194 9.57978C13.6578 9.4965 12.1083 9.44021 9.88475 9.44021C7.66862 9.44021 6.12147 9.4988 5.45983 9.57978C4.24902 9.73142 3.26797 10.3925 2.79121 11.4419C2.52293 12.0181 2.02258 13.4479 1.71984 14.8117L0.980626 15.6843C0.176448 16.6413 0 17.5368 0 19.056L0 20.4313C0 21.7564 0.833354 22.6 2.22214 22.7643C3.67667 22.9326 7.12515 23.0693 9.88475 23.0693ZM9.88475 20.9951C7.18538 20.9951 4.17029 20.8556 2.89044 20.7142C2.2649 20.6436 2.00705 20.3621 2.00705 19.7906L2.00705 18.78C2.00705 17.8097 2.25052 17.326 2.63733 16.8254L3.58447 15.5698C3.73732 14.8049 4.21244 13.1012 4.51979 12.4629C4.79377 11.9028 5.26822 11.6523 5.85252 11.5765C6.45732 11.4858 7.79085 11.43 9.88475 11.43C11.9884 11.43 13.3312 11.5007 13.9124 11.5765C14.5111 11.6472 14.978 11.9126 15.2669 12.4853C15.5617 13.0639 16.0247 14.7601 16.1925 15.5698L17.1345 16.8254C17.5213 17.326 17.7722 17.8097 17.7722 18.78L17.7722 19.7906C17.7722 20.3621 17.5144 20.6459 16.8888 20.7142C15.609 20.8556 12.5939 20.9951 9.88475 20.9951ZM4.56674 14.4162C4.47084 14.8365 4.65287 15.088 5.11228 15.0834C5.94448 15.0454 7.2521 14.9845 9.88475 14.9845C12.5249 14.9845 13.8348 15.0454 14.667 15.0834C15.1241 15.088 15.3084 14.8365 15.2125 14.4162C15.0918 13.9023 14.8596 13.196 14.7102 12.9207C14.4678 12.4273 14.1462 12.2487 13.5645 12.1677C13.1524 12.112 11.9328 12.0781 9.88475 12.0781C7.84647 12.0781 6.62455 12.112 6.21252 12.1677C5.63307 12.2487 5.30917 12.4273 5.06909 12.9207C4.91448 13.196 4.6949 13.9023 4.56674 14.4162ZM4.29924 20.2481C5.11143 20.2481 5.72314 19.6266 5.72314 18.8219C5.72314 18.012 5.11143 17.4003 4.29924 17.4003C3.48936 17.4003 2.87534 18.012 2.87534 18.8219C2.87534 19.6266 3.48936 20.2481 4.29924 20.2481ZM7.67433 19.8759L12.1026 19.8759C12.7092 19.8759 13.1474 19.4377 13.1474 18.8334C13.1474 18.2291 12.7092 17.7932 12.1026 17.7932L7.67433 17.7932C7.06261 17.7932 6.63183 18.2291 6.63183 18.8334C6.63183 19.4377 7.06261 19.8759 7.67433 19.8759ZM15.4777 20.2481C16.2899 20.2481 16.9039 19.6266 16.9039 18.8219C16.9039 18.012 16.2899 17.4003 15.4777 17.4003C14.6678 17.4003 14.0561 18.012 14.0561 18.8219C14.0561 19.6266 14.6678 20.2481 15.4777 20.2481ZM1.58434 25.1689L2.64351 25.1689C3.25183 25.1689 3.74066 24.6973 3.74066 24.0839L3.74066 22.0326L0.49926 21.1082L0.49926 24.0839C0.49926 24.6973 0.970861 25.1689 1.58434 25.1689ZM17.0938 25.1689L18.153 25.1689C18.7688 25.1689 19.2381 24.6973 19.2381 24.0839L19.2381 21.1082L15.9967 22.0326L15.9967 24.0839C15.9967 24.6973 16.4855 25.1689 17.0938 25.1689Z"
                     fill="currentColor" fill-opacity="0.85" />
       </g>
</svg>