<?xml version="1.0" encoding="UTF-8"?>
<!--Generator: Apple Native CoreSVG 326-->
<!DOCTYPE svg PUBLIC "-//W3C//DTD SVG 1.1//EN" "http://www.w3.org/Graphics/SVG/1.1/DTD/svg11.dtd">
<svg version="1.1" xmlns="http://www.w3.org/2000/svg" xmlns:xlink="http://www.w3.org/1999/xlink"
       viewBox="0 0 25.4294 26.8464">
       <g>
              <rect height="26.8464" opacity="0" width="25.4294" x="0" y="0" />
              <path d="M12.5228 26.8464C17.835 26.8464 20.2106 25.4491 20.2106 22.293L20.2106 5.22795C20.2106 1.81683 17.5258 0.0051558 12.5228 0.0051558C7.54462 0.0051558 4.85744 1.83921 4.85744 5.22795L4.85744 22.293C4.85744 25.4491 7.22794 26.8464 12.5228 26.8464ZM12.5228 24.2405C9.03682 24.2405 7.47311 23.6207 7.47311 22.1925L7.47311 5.31002C7.47311 3.55845 9.24894 2.62083 12.5228 2.62083C15.814 2.62083 17.5875 3.57337 17.5875 5.31002L17.5875 22.1925C17.5875 23.6207 16.0261 24.2405 12.5228 24.2405ZM12.5326 11.5827C13.5137 11.5827 14.8787 11.6734 15.1954 11.6734C15.9375 11.6734 16.25 11.3828 16.3109 10.6211L16.4821 8.70305C16.6091 7.28188 15.5257 6.72294 12.5326 6.72294C9.54463 6.72294 8.46878 7.28188 8.58827 8.70305L8.75944 10.6211C8.8278 11.3828 9.14261 11.6734 9.88249 11.6734C10.2015 11.6734 11.5452 11.5827 12.5326 11.5827ZM12.5326 22.0325C15.6572 22.0325 16.678 21.5367 16.458 20.0713L16.3236 19.1677C16.1524 17.9735 15.1609 17.5829 12.5326 17.5829C9.91694 17.5829 8.92546 17.9735 8.75429 19.1677L8.61987 20.0713C8.39987 21.5367 9.42065 22.0325 12.5326 22.0325ZM6.18671 13.9036L0.374284 19.6868C-0.132194 20.1933-0.117273 21.0414 0.374284 21.5427C0.875607 22.0567 1.72892 22.0664 2.24516 21.5502L6.18671 17.6012Z"
                     fill="currentColor" fill-opacity="0.85" />
       </g>
</svg>