<?xml version="1.0" encoding="UTF-8"?>
<!--Generator: Apple Native CoreSVG 326-->
<!DOCTYPE svg PUBLIC "-//W3C//DTD SVG 1.1//EN" "http://www.w3.org/Graphics/SVG/1.1/DTD/svg11.dtd">
<svg version="1.1" xmlns="http://www.w3.org/2000/svg" xmlns:xlink="http://www.w3.org/1999/xlink"
       viewBox="0 0 28.2152 22.7221">
       <g>
              <rect height="22.7221" opacity="0" width="28.2152" x="0" y="0" />
              <path d="M27.8539 11.074L27.8539 8.23448C27.5332 8.40226 27.2103 8.5821 26.8851 8.7884L23.2684 11.0793L19.3398 11.5452C16.5477 11.8754 14.8269 13.6875 14.8269 16.1183L14.8269 17.2413C14.8269 19.5291 15.9991 20.7334 18.2064 20.7334L19.8966 20.7334L19.8966 18.3251L18.2064 18.3251C17.5702 18.3251 17.2426 17.9361 17.2426 17.1678L17.2426 16.1183C17.2426 14.929 18.0252 14.1315 19.6424 13.9316L23.2797 13.4945C23.8541 13.4209 24.325 13.2716 24.7707 12.9948L27.5722 11.2401C27.6636 11.1775 27.755 11.1246 27.8539 11.074ZM27.8464 20.7334L27.8464 18.3251L24.7367 18.3251L24.7367 20.7334ZM22.4005 22.7221C24.4866 22.7221 26.1247 21.084 26.1247 18.9979C26.1247 16.9118 24.4866 15.2737 22.4005 15.2737C20.307 15.2737 18.6712 16.9118 18.6712 18.9979C18.6712 21.084 20.307 22.7221 22.4005 22.7221ZM22.4005 20.4217C21.5984 20.4217 20.9692 19.7949 20.9692 18.9979C20.9692 18.1986 21.5984 17.5643 22.4005 17.5643C23.1998 17.5643 23.829 18.1986 23.829 18.9979C23.829 19.7949 23.1998 20.4217 22.4005 20.4217ZM5.08649 22.7221C7.18004 22.7221 8.81581 21.084 8.81581 18.9979C8.81581 16.9118 7.18004 15.2737 5.08649 15.2737C2.99811 15.2737 1.36003 16.9118 1.36003 18.9979C1.36003 21.084 2.99811 22.7221 5.08649 22.7221ZM5.08649 20.4217C4.28723 20.4217 3.65805 19.7949 3.65805 18.9979C3.65805 18.1986 4.28723 17.5643 5.08649 17.5643C5.88861 17.5643 6.51779 18.1986 6.51779 18.9979C6.51779 19.7949 5.88861 20.4217 5.08649 20.4217ZM0 18.3251L0 20.7334L2.58401 20.7334L2.58401 18.3251ZM7.58583 20.7334L9.28062 20.7334C11.4926 20.7334 12.6578 19.5044 12.6578 17.1678L12.6578 14.6541C12.6578 12.7449 11.6505 11.5754 9.74925 10.8966L8.40499 10.4175C6.63104 8.88253 3.91765 6.94742 0.427625 6.94742L0 6.94742L0 9.35802L0.427625 9.35802C2.63927 9.35802 4.38392 10.1922 6.70001 12.1975C7.17215 12.626 7.49145 12.7684 8.11578 12.962L9.02859 13.2595C9.82786 13.5049 10.2421 14.042 10.2421 14.8108L10.2421 17.1678C10.2421 17.9361 9.91684 18.3251 9.28062 18.3251L7.58583 18.3251Z"
                     fill="currentColor" fill-opacity="0.85" />
              <path d="M13.9344 6.73804C14.6568 6.73804 15.0795 6.34007 15.1191 5.59352L15.2856 2.163C15.3327 1.37398 14.763 0.83645 13.9246 0.83645C13.0765 0.83645 12.5189 1.37168 12.5659 2.16069L12.7302 5.60844C12.7623 6.33777 13.1999 6.73804 13.9344 6.73804ZM13.9344 10.173C14.7545 10.173 15.3547 9.69624 15.3547 8.91862C15.3547 8.15078 14.7568 7.66656 13.9344 7.66656C13.112 7.66656 12.4918 8.14562 12.4918 8.91862C12.4918 9.69393 13.1143 10.173 13.9344 10.173Z"
                     fill="currentColor" fill-opacity="0.85" />
       </g>
</svg>