<?xml version="1.0" encoding="UTF-8"?>
<!--Generator: Apple Native CoreSVG 326-->
<!DOCTYPE svg PUBLIC "-//W3C//DTD SVG 1.1//EN" "http://www.w3.org/Graphics/SVG/1.1/DTD/svg11.dtd">
<svg version="1.1" xmlns="http://www.w3.org/2000/svg" xmlns:xlink="http://www.w3.org/1999/xlink"
       viewBox="0 0 35.0145 26.0824">
       <g>
              <rect height="26.0824" opacity="0" width="35.0145" x="0" y="0" />
              <path d="M3.48748 21.5254L5.2288 21.5254L5.2288 19.0384L3.48748 19.0384C2.82196 19.0384 2.48696 18.6374 2.48696 17.857L2.48696 16.7609C2.48696 15.5378 3.29654 14.7161 4.96482 14.5185L8.71701 14.0544C9.31095 13.986 9.79165 13.8218 10.2546 13.5352L13.7678 11.334C15.7921 10.0616 16.952 9.78868 20.5014 9.78868L21.9978 9.78868C24.2985 9.78868 26.111 10.6377 28.4995 12.7207C28.9963 13.1566 29.3277 13.299 29.9767 13.5121L30.9188 13.8097C31.7399 14.0746 32.1662 14.6191 32.1662 15.412L32.1662 17.857C32.1662 18.6374 31.8289 19.0384 31.1657 19.0384L29.4221 19.0384L29.4221 21.5254L31.1657 21.5254C33.4488 21.5254 34.6532 20.2573 34.6532 17.857L34.6532 15.2479C34.6532 13.2824 33.6165 12.071 31.659 11.3778L30.2659 10.8844C28.4524 9.30003 25.6321 7.30172 21.9978 7.30172L20.5014 7.30172C16.5219 7.30172 14.8475 7.69519 12.4344 9.21105L8.70803 11.5605L4.65244 12.0511C1.76734 12.3934 0 14.2521 0 16.7609L0 17.9207C0 20.2843 1.20894 21.5254 3.48748 21.5254ZM10.2182 21.5254L24.2686 21.5254L24.2686 19.0384L10.2182 19.0384ZM7.80856 23.5703C9.9607 23.5703 11.6453 21.8857 11.6453 19.7336C11.6453 17.574 9.9607 15.8894 7.80856 15.8894C5.64896 15.8894 3.96436 17.574 3.96436 19.7336C3.96436 21.8857 5.64896 23.5703 7.80856 23.5703ZM7.80856 21.2034C6.98 21.2034 6.33128 20.5547 6.33128 19.7336C6.33128 18.9073 6.98 18.2586 7.80856 18.2586C8.62736 18.2586 9.27607 18.9073 9.27607 19.7336C9.27607 20.5547 8.62736 21.2034 7.80856 21.2034ZM26.8446 23.5703C29.0042 23.5703 30.6888 21.8857 30.6888 19.7336C30.6888 17.574 29.0042 15.8894 26.8446 15.8894C24.6925 15.8894 23.0079 17.574 23.0079 19.7336C23.0079 21.8857 24.6925 23.5703 26.8446 23.5703ZM26.8446 21.2034C26.0258 21.2034 25.3771 20.5547 25.3771 19.7336C25.3771 18.9073 26.0258 18.2586 26.8446 18.2586C27.6709 18.2586 28.3196 18.9073 28.3196 19.7336C28.3196 20.5547 27.6709 21.2034 26.8446 21.2034Z"
                     fill="currentColor" fill-opacity="0.85" />
              <path d="M15.8455 5.50848L25.6892 5.50848C26.8435 5.50848 27.3105 4.90368 27.3105 3.64264L27.3105 2.62362C27.3105 0.871871 26.5132 0 24.7286 0L22.5477 0C20.6579 0 19.5128 0.347074 17.2345 1.46879L15.2461 2.44875C14.3698 2.88917 14.0976 3.36362 14.0976 4.09689C14.0976 4.9331 14.7056 5.50848 15.8455 5.50848Z"
                     fill="currentColor" fill-opacity="0.85" />
       </g>
</svg>