<?xml version="1.0" encoding="UTF-8"?>
<!--Generator: Apple Native CoreSVG 326-->
<!DOCTYPE svg PUBLIC "-//W3C//DTD SVG 1.1//EN" "http://www.w3.org/Graphics/SVG/1.1/DTD/svg11.dtd">
<svg version="1.1" xmlns="http://www.w3.org/2000/svg" xmlns:xlink="http://www.w3.org/1999/xlink"
       viewBox="0 0 20.3163 25.9042">
       <g>
              <rect height="25.9042" opacity="0" width="20.3163" x="0" y="0" />
              <path d="M17.4613 23.294C18.975 21.7999 19.8056 19.8784 19.9549 17.823C19.994 17.0621 19.4737 16.6021 18.8093 16.6021C18.2017 16.6021 17.7911 17.0328 17.7199 17.8443C17.6371 19.2915 17.0178 20.6502 15.9188 21.759C14.8026 22.8581 13.449 23.4326 12.0041 23.5601C11.2236 23.6365 10.7573 24.0516 10.7573 24.6282C10.7573 25.3185 11.2408 25.8198 11.9776 25.79C14.0405 25.6855 15.9597 24.8129 17.4613 23.294Z"
                     fill="currentColor" fill-opacity="0.85" />
              <path d="M14.7485 20.5864C15.6279 19.7144 16.1506 18.6373 16.3074 17.4384C16.3982 16.7022 15.8997 16.1538 15.194 16.1538C14.5961 16.1538 14.2619 16.5276 14.1218 17.3207C14.0069 17.9568 13.7248 18.5377 13.2134 19.0513C12.7027 19.5673 12.1189 19.8442 11.5087 19.9597C10.7093 20.0998 10.309 20.4645 10.309 21.0342C10.309 21.7376 10.8528 22.2246 11.558 22.15C12.6515 22.0306 13.8247 21.5176 14.7485 20.5864Z"
                     fill="currentColor" fill-opacity="0.85" />
              <path d="M6.92304 19.1539C10.7126 19.1539 12.452 18.1252 12.452 15.8104L12.452 3.80605C12.452 1.32582 10.4908 0 6.92304 0C3.36738 0 1.39121 1.33328 1.39121 3.80605L1.39121 15.8104C1.39121 18.1252 3.1432 19.1539 6.92304 19.1539ZM6.92304 17.0635C4.48819 17.0635 3.49373 16.6562 3.49373 15.7392L3.49373 3.85827C3.49373 2.71327 4.63995 2.10252 6.92304 2.10252C9.2182 2.10252 10.3518 2.71327 10.3518 3.85827L10.3518 15.7392C10.3518 16.6562 9.3625 17.0635 6.92304 17.0635ZM6.92535 8.37921C7.61179 8.37921 8.5684 8.44526 8.78797 8.44526C9.37391 8.44526 9.63988 8.20112 9.68871 7.60827L9.81336 6.25601C9.91102 5.1628 9.10168 4.74804 6.92535 4.74804C4.74901 4.74804 3.93221 5.1628 4.02987 6.25601L4.15452 7.60827C4.20334 8.20112 4.46932 8.44526 5.05526 8.44526C5.27714 8.44526 6.22222 8.37921 6.92535 8.37921ZM6.92535 15.7435C9.18375 15.7435 9.94723 15.365 9.79153 14.2402L9.69387 13.6059C9.56231 12.6857 8.80981 12.4002 6.92535 12.4002C5.04088 12.4002 4.28092 12.6857 4.14936 13.6059L4.05917 14.2402C3.896 15.365 4.65948 15.7435 6.92535 15.7435ZM2.09445 8.00866L2.09445 5.70137L0.978746 5.70137C0.393476 5.70137 0 6.14476 0 6.79257L0 6.92492C0 7.56296 0.393476 8.00866 0.978746 8.00866ZM11.7488 8.06835L12.8645 8.06835C13.4498 8.06835 13.8432 7.62265 13.8432 6.98461L13.8432 6.85972C13.8432 6.20445 13.4498 5.76105 12.8645 5.76105L11.7488 5.76105Z"
                     fill="currentColor" fill-opacity="0.85" />
       </g>
</svg>