<?xml version="1.0" encoding="UTF-8"?>
<!--Generator: Apple Native CoreSVG 326-->
<!DOCTYPE svg PUBLIC "-//W3C//DTD SVG 1.1//EN" "http://www.w3.org/Graphics/SVG/1.1/DTD/svg11.dtd">
<svg version="1.1" xmlns="http://www.w3.org/2000/svg" xmlns:xlink="http://www.w3.org/1999/xlink"
       viewBox="0 0 25.6508 20.332">
       <g>
              <rect height="20.332" opacity="0" width="25.6508" x="0" y="0" />
              <path d="M5.74255 20.3199L18.8528 20.3199C22.4796 20.3199 25.2895 17.5611 25.2895 14.0045C25.2895 10.4036 22.5277 7.61616 18.7492 7.61616C17.3683 4.94104 14.9333 3.49561 11.7591 3.49561C7.73134 3.49561 4.39162 6.34553 3.81108 10.4435C1.62667 11.1941 0.300854 13.0063 0.300854 15.2034C0.300854 18.1378 2.51147 20.3199 5.74255 20.3199ZM5.82747 17.6509C4.04188 17.6509 2.97731 16.7385 2.97731 15.2597C2.97731 13.9654 3.81606 13.0789 5.44285 12.6515C6.03449 12.5073 6.22465 12.2758 6.3234 11.5751C6.79651 8.23473 8.88157 6.1646 11.7591 6.1646C13.8492 6.1646 15.5784 7.36128 16.7393 9.53277C17.0161 10.0784 17.3143 10.2444 17.9697 10.2444C20.9219 10.2444 22.6131 11.7544 22.6131 14.0659C22.6131 16.1399 21.0107 17.6509 18.7886 17.6509ZM1.50148 9.69248C2.32058 9.69248 2.98573 9.02732 2.98573 8.191C2.98573 7.36444 2.32058 6.70674 1.50148 6.70674C0.665154 6.70674 0 7.36444 0 8.191C0 9.02732 0.665154 9.69248 1.50148 9.69248ZM17.0787 2.81456C17.849 2.81456 18.4849 2.17871 18.4849 1.40843C18.4849 0.638162 17.849 0 17.0787 0C16.3085 0 15.6726 0.638162 15.6726 1.40843C15.6726 2.17871 16.3085 2.81456 17.0787 2.81456ZM21.5855 6.51428C22.7521 6.51428 23.6763 5.57514 23.6763 4.41139C23.6763 3.24249 22.7521 2.30335 21.5855 2.30335C20.4068 2.30335 19.4728 3.24249 19.4728 4.41139C19.4728 5.57514 20.4068 6.51428 21.5855 6.51428Z"
                     fill="currentColor" fill-opacity="0.85" />
              <path d="M9.96943 16.2793C11.3084 16.2793 12.1694 15.3315 12.1786 14.2981C12.181 13.8817 11.9236 13.5727 11.5291 13.5727C11.1391 13.5727 10.9479 13.7984 10.8623 14.1976C10.7698 14.5837 10.5365 15.029 9.96943 15.029C9.13693 15.029 8.87896 14.158 8.87896 13.0946C8.87896 12.1071 9.15646 11.1769 9.95967 11.1769C10.5267 11.1769 10.7233 11.6199 10.8181 12.0135C10.9111 12.4127 11.1247 12.6384 11.4923 12.6384C11.8944 12.6384 12.1517 12.3317 12.1493 11.913C12.1401 10.8721 11.2791 9.92661 9.93267 9.92661C8.25881 9.92661 7.49139 11.3506 7.49139 13.0946C7.49139 14.8018 8.19791 16.2793 9.96943 16.2793ZM14.9124 16.2793C16.403 16.2793 17.3387 15.0385 17.3387 13.1067C17.3387 11.1651 16.403 9.92661 14.9124 9.92661C13.412 9.92661 12.4515 11.1651 12.4515 13.1067C12.4515 15.0385 13.412 16.2793 14.9124 16.2793ZM14.9124 15.029C14.2453 15.029 13.834 14.3499 13.834 13.1067C13.834 11.8635 14.2453 11.1769 14.9124 11.1769C15.5622 11.1769 15.9586 11.8635 15.9586 13.1067C15.9586 14.3499 15.5622 15.029 14.9124 15.029Z"
                     fill="currentColor" fill-opacity="0.85" />
       </g>
</svg>