<?xml version="1.0" encoding="UTF-8"?>
<!--Generator: Apple Native CoreSVG 326-->
<!DOCTYPE svg PUBLIC "-//W3C//DTD SVG 1.1//EN" "http://www.w3.org/Graphics/SVG/1.1/DTD/svg11.dtd">
<svg version="1.1" xmlns="http://www.w3.org/2000/svg" xmlns:xlink="http://www.w3.org/1999/xlink"
       viewBox="0 0 25.6508 20.332">
       <g>
              <rect height="20.332" opacity="0" width="25.6508" x="0" y="0" />
              <path d="M5.74255 20.3199L18.8528 20.3199C22.4796 20.3199 25.2895 17.5611 25.2895 14.0045C25.2895 10.4036 22.5277 7.61616 18.7492 7.61616C17.3683 4.94104 14.9333 3.49561 11.7591 3.49561C7.73134 3.49561 4.39162 6.34553 3.81108 10.4435C1.62667 11.1941 0.300854 13.0063 0.300854 15.2034C0.300854 18.1378 2.51147 20.3199 5.74255 20.3199ZM5.82747 17.6509C4.04188 17.6509 2.97731 16.7385 2.97731 15.2597C2.97731 13.9654 3.81606 13.0789 5.44285 12.6515C6.03449 12.5073 6.22465 12.2758 6.3234 11.5751C6.79651 8.23473 8.88157 6.1646 11.7591 6.1646C13.8492 6.1646 15.5784 7.36128 16.7393 9.53277C17.0161 10.0784 17.3143 10.2444 17.9697 10.2444C20.9219 10.2444 22.6131 11.7544 22.6131 14.0659C22.6131 16.1399 21.0107 17.6509 18.7886 17.6509ZM1.50148 9.69248C2.32058 9.69248 2.98573 9.02732 2.98573 8.191C2.98573 7.36444 2.32058 6.70674 1.50148 6.70674C0.665154 6.70674 0 7.36444 0 8.191C0 9.02732 0.665154 9.69248 1.50148 9.69248ZM17.0787 2.81456C17.849 2.81456 18.4849 2.17871 18.4849 1.40843C18.4849 0.638162 17.849 0 17.0787 0C16.3085 0 15.6726 0.638162 15.6726 1.40843C15.6726 2.17871 16.3085 2.81456 17.0787 2.81456ZM21.5855 6.51428C22.7521 6.51428 23.6763 5.57514 23.6763 4.41139C23.6763 3.24249 22.7521 2.30335 21.5855 2.30335C20.4068 2.30335 19.4728 3.24249 19.4728 4.41139C19.4728 5.57514 20.4068 6.51428 21.5855 6.51428Z"
                     fill="currentColor" fill-opacity="0.85" />
              <path d="M9.55618 16.2793C10.9003 16.2793 11.7562 15.3315 11.7631 14.2981C11.7654 13.8817 11.5081 13.5727 11.1233 13.5727C10.7333 13.5727 10.5323 13.7984 10.4542 14.1976C10.3617 14.5837 10.1307 15.029 9.55618 15.029C8.72137 15.029 8.47086 14.158 8.47086 13.0946C8.47086 12.1071 8.74837 11.1769 9.54642 11.1769C10.1135 11.1769 10.3175 11.6199 10.41 12.0135C10.503 12.4127 10.7115 12.6384 11.0865 12.6384C11.4863 12.6384 11.7361 12.3317 11.7338 11.913C11.7269 10.8721 10.8636 9.92661 9.51942 9.92661C7.84325 9.92661 7.07583 11.3506 7.07583 13.0946C7.07583 14.8018 7.78466 16.2793 9.55618 16.2793ZM14.4991 16.2793C15.9897 16.2793 16.9306 15.0385 16.9306 13.1067C16.9306 11.1651 15.9897 9.92661 14.4968 9.92661C12.9964 9.92661 12.0457 11.1651 12.0457 13.1067C12.0457 15.0385 12.9964 16.2793 14.4991 16.2793ZM14.4991 15.029C13.8372 15.029 13.4259 14.3499 13.4259 13.1067C13.4259 11.8635 13.8372 11.1769 14.4968 11.1769C15.1489 11.1769 15.5528 11.8635 15.5528 13.1067C15.5528 14.3499 15.1489 15.029 14.4991 15.029ZM17.667 16.5058L19.2639 16.5058C19.5189 16.5058 19.7274 16.2852 19.7274 16.0302C19.7274 15.785 19.5017 15.5593 19.2639 15.5593L18.7806 15.5593L18.914 15.4213C19.3121 15.0329 19.6154 14.6716 19.6154 14.2362C19.6154 13.6222 19.1065 13.177 18.4293 13.177C17.6906 13.177 17.2207 13.7273 17.2207 14.1845C17.2207 14.5033 17.4562 14.7095 17.7187 14.7095C18.0277 14.7095 18.1575 14.4688 18.2235 14.3172C18.2746 14.1839 18.3425 14.131 18.4316 14.131C18.5034 14.131 18.5512 14.1862 18.5512 14.2632C18.5512 14.4356 18.3587 14.6746 18.1737 14.8596L17.4143 15.5938C17.304 15.7115 17.223 15.9027 17.223 16.0423C17.223 16.2973 17.4143 16.5058 17.667 16.5058Z"
                     fill="currentColor" fill-opacity="0.85" />
       </g>
</svg>