<?xml version="1.0" encoding="UTF-8"?>
<!--Generator: Apple Native CoreSVG 326-->
<!DOCTYPE svg PUBLIC "-//W3C//DTD SVG 1.1//EN" "http://www.w3.org/Graphics/SVG/1.1/DTD/svg11.dtd">
<svg version="1.1" xmlns="http://www.w3.org/2000/svg" xmlns:xlink="http://www.w3.org/1999/xlink"
       viewBox="0 0 25.6508 20.3228">
       <g>
              <rect height="20.3228" opacity="0" width="25.6508" x="0" y="0" />
              <path d="M18.7492 7.61901C22.5277 7.61901 25.2895 10.4065 25.2895 14.0073C25.2895 17.5714 22.4796 20.3228 18.8528 20.3228L5.74255 20.3228C2.51147 20.3228 0.300854 18.1407 0.300854 15.2063C0.300854 13.0091 1.62667 11.1969 3.81108 10.4538C4.39162 6.34839 7.73134 3.49846 11.7591 3.49846C14.9333 3.49846 17.3683 4.94389 18.7492 7.61901ZM7.28807 13.0975C7.28807 14.9207 8.03881 16.4917 9.9263 16.4917C11.364 16.4917 12.2767 15.4848 12.2859 14.3848C12.2883 13.9362 12.0137 13.61 11.5945 13.61C11.1873 13.61 10.9713 13.8432 10.8835 14.2768C10.7835 14.6802 10.5428 15.1501 9.9263 15.1501C9.04443 15.1501 8.77439 14.2274 8.77439 13.0975C8.77439 12.0508 9.06911 11.054 9.91654 11.054C10.5255 11.054 10.7393 11.5291 10.8318 11.94C10.9346 12.3736 11.1654 12.6068 11.5577 12.6068C11.9919 12.6068 12.2664 12.2829 12.2641 11.832C12.2549 10.7245 11.3273 9.71989 9.88955 9.71989C8.10486 9.71989 7.28807 11.2375 7.28807 13.0975ZM12.711 13.1095C12.711 15.1746 13.7231 16.4917 15.3223 16.4917C16.9139 16.4917 17.9163 15.1746 17.9163 13.1095C17.9163 11.0422 16.9139 9.71989 15.3223 9.71989C13.7231 9.71989 12.711 11.0422 12.711 13.1095ZM16.4524 13.1095C16.4524 14.4366 16.0163 15.1501 15.3223 15.1501C14.6208 15.1501 14.1899 14.4366 14.1899 13.1095C14.1899 11.7825 14.6208 11.054 15.3223 11.054C16.0163 11.054 16.4524 11.7825 16.4524 13.1095ZM2.98573 8.19385C2.98573 9.03017 2.32058 9.69533 1.50148 9.69533C0.665154 9.69533 0 9.03017 0 8.19385C0 7.37475 0.665154 6.70959 1.50148 6.70959C2.32058 6.70959 2.98573 7.37475 2.98573 8.19385ZM23.6763 4.41425C23.6763 5.58545 22.7521 6.51713 21.5855 6.51713C20.4068 6.51713 19.4728 5.58545 19.4728 4.41425C19.4728 3.24534 20.4068 2.31367 21.5855 2.31367C22.7521 2.31367 23.6763 3.24534 23.6763 4.41425ZM18.4849 1.41128C18.4849 2.18156 17.849 2.81741 17.0787 2.81741C16.3085 2.81741 15.6726 2.18156 15.6726 1.41128C15.6726 0.641013 16.3085 0.00285089 17.0787 0.00285089C17.849 0.00285089 18.4849 0.641013 18.4849 1.41128Z"
                     fill="currentColor" fill-opacity="0.85" />
       </g>
</svg>