<?xml version="1.0" encoding="UTF-8"?>
<!--Generator: Apple Native CoreSVG 326-->
<!DOCTYPE svg PUBLIC "-//W3C//DTD SVG 1.1//EN" "http://www.w3.org/Graphics/SVG/1.1/DTD/svg11.dtd">
<svg version="1.1" xmlns="http://www.w3.org/2000/svg" xmlns:xlink="http://www.w3.org/1999/xlink"
       viewBox="0 0 24.2105 30.2021">
       <g>
              <rect height="30.2021" opacity="0" width="24.2105" x="0" y="0" />
              <path d="M0.196078 17.5978C1.17482 21.1395 2.16049 22.2205 4.44079 22.2205L16.5908 22.2205C18.2898 22.2205 19.4058 21.3027 19.8343 19.5916L23.6927 3.99542C24.2809 1.61084 23.1147 0 21.1564 0C18.4854 0 16.6332 2.98446 17.5147 6.25188L18.1112 4.49346C14.8584 6.29525 13.5877 9.90908 14.5873 14.3541L14.8195 13.3235C12.7034 12.9311 10.1137 12.707 7.48742 12.707C1.62119 12.707-0.731535 14.275 0.196078 17.5978Z"
                     fill="currentColor" fill-opacity="0.85" />
              <path d="M12.594 29.1717C12.594 29.9677 13.3296 30.3117 13.9751 29.9315L17.4419 27.8669C18.0828 27.489 18.0655 26.6357 17.4419 26.2675L13.9728 24.1983C13.3123 23.8032 12.594 24.1742 12.594 24.9454Z"
                     fill="currentColor" fill-opacity="0.85" />
              <path d="M7.71961 29.1643L7.71961 24.938C7.71961 24.1742 6.98634 23.7957 6.33338 24.1909L2.86658 26.2601C2.23315 26.6357 2.23085 27.474 2.86658 27.8594L6.33338 29.924C6.97888 30.3042 7.71961 29.9677 7.71961 29.1643Z"
                     fill="currentColor" fill-opacity="0.85" />
       </g>
</svg>