<?xml version="1.0" encoding="UTF-8"?>
<!--Generator: Apple Native CoreSVG 326-->
<!DOCTYPE svg PUBLIC "-//W3C//DTD SVG 1.1//EN" "http://www.w3.org/Graphics/SVG/1.1/DTD/svg11.dtd">
<svg version="1.1" xmlns="http://www.w3.org/2000/svg" xmlns:xlink="http://www.w3.org/1999/xlink"
       viewBox="0 0 24.4281 22.4289">
       <g>
              <rect height="22.4289" opacity="0" width="24.4281" x="0" y="0" />
              <path d="M0.200922 17.7195C1.18713 21.291 2.21009 22.3996 4.5277 22.3996L16.7462 22.3996C18.475 22.3996 19.6358 21.4616 20.0717 19.7058L23.9301 4.10963C24.5045 1.79245 23.2352 0 20.8758 0C17.8423 0 15.8824 3.34161 17.0471 6.63238L17.6654 4.46156C14.8454 6.28925 13.5323 10.0694 14.1208 14.6973L15.0102 13.3228C12.8142 12.9219 10.1994 12.7093 7.57434 12.7093C1.66334 12.7093-0.749073 14.322 0.200922 17.7195ZM2.76425 16.9936C2.43155 15.834 3.45882 15.3858 7.57434 15.3858C11.3269 15.3858 13.9016 15.9217 14.9178 15.9401C15.8045 15.9424 16.4218 15.3154 16.4195 14.4287C16.4034 10.3838 17.1911 8.17832 18.8777 6.75727C19.301 6.40231 19.4538 5.96825 19.3538 5.28181C19.0976 3.65477 19.8222 2.67645 20.8385 2.67645C21.2553 2.67645 21.452 2.96627 21.337 3.43089L17.4642 19.0713C17.3504 19.5236 17.1468 19.7306 16.7462 19.7306L4.5277 19.7306C3.69508 19.7306 3.45476 19.5208 2.76425 16.9936Z"
                     fill="currentColor" fill-opacity="0.85" />
              <path d="M5.42602 9.39811C7.51671 9.39811 8.89694 8.40839 8.89694 6.88276C8.89694 5.81722 8.11515 5.07612 7.09491 5.0387L7.09491 5.03124C7.91237 4.99151 8.60858 4.2028 8.60858 3.23491C8.60858 1.87706 7.37308 0.975775 5.49438 0.975775C4.1725 0.975775 2.90891 1.55546 2.51556 2.5034C2.43404 2.69519 2.40189 2.86285 2.40189 3.06902C2.40189 3.5801 2.78778 3.95854 3.34539 3.95854C3.78988 3.95854 4.08965 3.79713 4.30898 3.43241C4.52667 3.02431 4.9341 2.72037 5.49723 2.72037C6.08626 2.72037 6.47185 3.02607 6.47185 3.491C6.47185 3.968 6.09251 4.26691 5.45071 4.26691L5.1225 4.26691C4.60856 4.26691 4.24505 4.61089 4.24505 5.08983C4.24505 5.57623 4.60625 5.91506 5.1225 5.91506L5.45707 5.91506C6.17306 5.91506 6.57369 6.20651 6.57369 6.72949C6.57369 7.24785 6.14837 7.57661 5.47539 7.57661C4.89613 7.57661 4.48409 7.30481 4.26464 6.93171C3.99078 6.54691 3.72832 6.39527 3.27867 6.39527C2.70845 6.39527 2.2904 6.78863 2.2904 7.33417C2.2904 7.51335 2.33001 7.66893 2.41153 7.86072C2.78536 8.79944 3.96239 9.39811 5.42602 9.39811Z"
                     fill="currentColor" fill-opacity="0.85" />
       </g>
</svg>