<?xml version="1.0" encoding="UTF-8"?>
<!--Generator: Apple Native CoreSVG 326-->
<!DOCTYPE svg PUBLIC "-//W3C//DTD SVG 1.1//EN" "http://www.w3.org/Graphics/SVG/1.1/DTD/svg11.dtd">
<svg version="1.1" xmlns="http://www.w3.org/2000/svg" xmlns:xlink="http://www.w3.org/1999/xlink"
       viewBox="0 0 24.2086 22.2303">
       <g>
              <rect height="22.2303" opacity="0" width="24.2086" x="0" y="0" />
              <path d="M23.6446 17.5978C24.5797 14.2824 22.2293 12.707 16.3533 12.707C13.727 12.707 11.1374 12.9311 9.02866 13.3212L9.26085 14.3541C10.2605 9.91423 8.98978 6.29525 5.73698 4.49862L6.32607 6.25934C7.20752 2.98446 5.35533 0 2.68434 0C0.733456 0-0.440178 1.60854 0.155525 4.00288L4.01392 19.5991C4.43493 21.3101 5.5584 22.2257 7.24992 22.2257L19.4074 22.2257C21.6802 22.2257 22.6734 21.1469 23.6446 17.5978Z"
                     fill="currentColor" fill-opacity="0.85" />
              <path d="M12.9682 7.06291C12.9682 8.55815 14.232 9.98108 15.622 9.98108C16.8025 9.98108 17.4584 9.00737 17.8837 7.27709L18.257 7.25064L18.257 8.93858C18.257 9.8335 18.7538 10.3355 19.6344 10.3355C21.1273 10.3355 22.5502 9.08889 22.5502 7.70405C22.5502 6.51385 21.5691 5.86769 19.829 5.44237L19.8049 5.06909L21.5003 5.06909C22.3877 5.06909 22.9023 4.58202 22.9023 3.70148C22.9023 2.2137 21.658 0.788469 20.2583 0.788469C19.0681 0.788469 18.4294 1.75933 18.0018 3.49191L17.6233 3.51375L17.6233 1.81835C17.6233 0.933194 17.1288 0.421439 16.2482 0.421439C14.7605 0.421439 13.3352 1.67781 13.3352 3.0678C13.3352 4.258 14.3136 4.88924 16.0536 5.32202L16.0657 5.68784L14.38 5.68784C13.4949 5.68784 12.9682 6.18467 12.9682 7.06291ZM17.9278 6.36737C17.3832 6.36737 16.9363 5.92046 16.9363 5.37358C16.9363 4.82901 17.3832 4.3821 17.9278 4.3821C18.4724 4.3821 18.9193 4.82901 18.9193 5.37358C18.9193 5.92046 18.4724 6.36737 17.9278 6.36737Z"
                     fill="currentColor" fill-opacity="0.85" />
       </g>
</svg>