<?xml version="1.0" encoding="UTF-8"?>
<!--Generator: Apple Native CoreSVG 326-->
<!DOCTYPE svg PUBLIC "-//W3C//DTD SVG 1.1//EN" "http://www.w3.org/Graphics/SVG/1.1/DTD/svg11.dtd">
<svg version="1.1" xmlns="http://www.w3.org/2000/svg" xmlns:xlink="http://www.w3.org/1999/xlink"
       viewBox="0 0 30.3581 22.236">
       <g>
              <rect height="22.236" opacity="0" width="30.3581" x="0" y="0" />
              <path d="M0.196078 17.6081C1.17482 21.1573 2.16049 22.236 4.44079 22.236L16.5908 22.236C18.2898 22.236 19.4058 21.3204 19.8343 19.6094L23.6927 4.01319C24.2809 1.61885 23.1147 0.0103116 21.1564 0.0103116C18.4854 0.0103116 16.6332 2.99477 17.5147 6.26966L18.1112 4.50893C14.8584 6.31302 13.5877 9.92455 14.5873 14.3644L14.8195 13.3315C12.7034 12.9414 10.1137 12.7173 7.48742 12.7173C1.62119 12.7173-0.731535 14.2928 0.196078 17.6081Z"
                     fill="currentColor" fill-opacity="0.85" />
              <path d="M24.2946 10.9935C24.1056 11.7625 24.7183 12.2736 25.4471 12.0576L29.3166 10.9105C30.0333 10.6968 30.2199 9.87566 29.7019 9.36512L26.8619 6.51289C26.3192 5.97305 25.5273 6.12984 25.3384 6.89878Z"
                     fill="currentColor" fill-opacity="0.85" />
              <path d="M13.0089 7.18641L14.0528 3.08934C14.2417 2.35255 13.6216 1.82423 12.8974 2.03271L9.02099 3.18966C8.30889 3.40329 8.10502 4.21469 8.62302 4.72754L11.4728 7.58262C12.0081 8.12246 12.8125 7.98004 13.0089 7.18641Z"
                     fill="currentColor" fill-opacity="0.85" />
       </g>
</svg>