<?xml version="1.0" encoding="UTF-8"?>
<!--Generator: Apple Native CoreSVG 326-->
<!DOCTYPE svg PUBLIC "-//W3C//DTD SVG 1.1//EN" "http://www.w3.org/Graphics/SVG/1.1/DTD/svg11.dtd">
<svg version="1.1" xmlns="http://www.w3.org/2000/svg" xmlns:xlink="http://www.w3.org/1999/xlink"
       viewBox="0 0 24.4293 22.4289">
       <g>
              <rect height="22.4289" opacity="0" width="24.4293" x="0" y="0" />
              <path d="M7.32768 5.18598C9.21908 6.92997 10.1971 9.7545 10.0706 13.1564C10.7164 13.0588 11.3919 12.9777 12.0884 12.9145C11.7529 13.4389 11.2864 14.0201 11.2864 14.9635C11.2864 15.2231 11.3174 15.4674 11.381 15.703C10.3538 15.8225 9.59916 15.932 9.14953 15.9401C8.2554 15.9424 7.64557 15.3154 7.64557 14.4287C7.66401 10.3838 6.87627 8.17832 5.18736 6.75727C4.76404 6.40231 4.61361 5.96825 4.71127 5.28181C4.96978 3.65477 4.24513 2.67645 3.22884 2.67645C2.81207 2.67645 2.61542 2.96627 2.72297 3.43089L6.60319 19.0713C6.70952 19.5236 6.92055 19.7306 7.31887 19.7306L19.5397 19.7306C20.3648 19.7306 20.6052 19.5208 21.3031 16.9936C21.5323 16.1707 21.0864 15.7061 19.3279 15.507C19.2394 15.3217 19.2047 15.1427 19.2047 14.8802C19.2047 14.3432 19.8368 13.8128 20.1639 12.9978C23.3712 13.5954 24.5863 15.145 23.8665 17.7195C22.8802 21.291 21.8573 22.3996 19.5397 22.3996L7.31887 22.3996C5.59236 22.3996 4.43158 21.4616 3.99565 19.7058L0.137255 4.10963C-0.437157 1.79245 0.832132 0 3.18177 0C5.76815 0 7.57577 2.42908 7.32768 5.18598ZM14.4786 14.9635C14.4786 15.1262 14.4905 15.283 14.5162 15.4349C13.9651 15.4621 13.4489 15.4989 12.9728 15.5406C12.872 15.3429 12.833 15.1585 12.833 14.8802C12.833 14.2972 13.578 13.722 13.8691 12.7822C14.371 12.7528 14.8796 12.7332 15.3909 12.7227C15.0631 13.3014 14.4786 13.904 14.4786 14.9635ZM18.5422 12.7856C18.2085 13.3456 17.6656 13.9424 17.6656 14.9635C17.6656 15.1149 17.6758 15.2611 17.6988 15.4027C17.3333 15.3909 16.9272 15.3858 16.4856 15.3858C16.3521 15.3858 16.2201 15.3865 16.0929 15.3892C16.0397 15.2421 16.0177 15.0871 16.0177 14.8802C16.0177 14.2844 16.7958 13.6968 17.0721 12.7197C17.5977 12.7251 18.0844 12.7486 18.5422 12.7856Z"
                     fill="currentColor" fill-opacity="0.85" />
              <path d="M13.9853 12.0263C13.9853 10.6053 12.833 9.89986 12.833 9.16271C12.833 8.71173 12.9376 8.5129 13.2472 8.08091C13.895 7.21716 12.658 6.32358 12.0027 7.16033C11.5191 7.78357 11.2864 8.38036 11.2864 9.08689C11.2864 10.5568 12.4267 11.1514 12.4267 12.0263C12.4267 12.899 11.2864 13.4885 11.2864 14.9635C11.2864 15.6746 11.5191 16.2714 12.0004 16.8924C12.6557 17.7193 13.8927 16.8257 13.2449 15.962C12.9376 15.5398 12.833 15.3358 12.833 14.8802C12.833 14.1551 13.9853 13.4422 13.9853 12.0263ZM17.17 12.0263C17.17 10.6053 16.0177 9.89986 16.0177 9.16271C16.0177 8.71173 16.1246 8.5129 16.4319 8.08091C17.0797 7.21716 15.845 6.32358 15.1897 7.16033C14.7061 7.78357 14.4786 8.38036 14.4786 9.08689C14.4786 10.5568 15.6114 11.1514 15.6114 12.0263C15.6114 12.899 14.4786 13.4885 14.4786 14.9635C14.4786 15.6746 14.7061 16.2714 15.1874 16.8924C15.8427 17.7193 17.0774 16.8257 16.4319 15.962C16.1246 15.5398 16.0177 15.3358 16.0177 14.8802C16.0177 14.1551 17.17 13.4422 17.17 12.0263ZM20.357 12.0263C20.357 10.6053 19.2047 9.89986 19.2047 9.16271C19.2047 8.71173 19.3092 8.5129 19.6189 8.08091C20.2667 7.21716 19.0297 6.32358 18.3744 7.16033C17.8907 7.78357 17.6656 8.38036 17.6656 9.08689C17.6656 10.5568 18.7984 11.1514 18.7984 12.0263C18.7984 12.899 17.6656 13.4885 17.6656 14.9635C17.6656 15.6746 17.8907 16.2714 18.3744 16.8924C19.0274 17.7193 20.2644 16.8257 19.6166 15.962C19.3092 15.5398 19.2047 15.3358 19.2047 14.8802C19.2047 14.1551 20.357 13.4422 20.357 12.0263Z"
                     fill="currentColor" fill-opacity="0.85" />
       </g>
</svg>