<?xml version="1.0" encoding="UTF-8"?>
<!--Generator: Apple Native CoreSVG 326-->
<!DOCTYPE svg PUBLIC "-//W3C//DTD SVG 1.1//EN" "http://www.w3.org/Graphics/SVG/1.1/DTD/svg11.dtd">
<svg version="1.1" xmlns="http://www.w3.org/2000/svg" xmlns:xlink="http://www.w3.org/1999/xlink"
       viewBox="0 0 30.3715 22.399">
       <g>
              <rect height="22.399" opacity="0" width="30.3715" x="0" y="0" />
              <path d="M29.8048 17.712C30.7623 14.3146 28.3424 12.7019 22.4314 12.7019C19.8063 12.7019 17.199 12.9144 14.9932 13.3153L15.8849 14.6898C16.4734 10.0619 15.1604 6.28178 12.3403 4.46156L12.9586 6.63238C14.121 3.33414 12.1611 0 9.12757 0C6.77048 0 5.50635 1.78499 6.0756 4.10217L9.94146 19.6984C10.3699 21.4542 11.5307 22.3921 13.2572 22.3921L25.478 22.3921C27.8031 22.3921 28.8261 21.2835 29.8048 17.712ZM27.2415 16.9862C26.5487 19.5208 26.3083 19.7231 25.478 19.7231L13.2572 19.7231C12.8664 19.7231 12.6553 19.5161 12.5467 19.0638L8.66877 3.42343C8.55377 2.9588 8.75788 2.66899 9.17464 2.66899C10.1909 2.66899 10.9081 3.64731 10.6571 5.27435C10.552 5.96079 10.7098 6.39485 11.1257 6.75727C12.8146 8.17832 13.6075 10.3763 13.5914 14.4212C13.5914 15.3079 14.2012 15.935 15.0879 15.9327C16.1116 15.9142 18.6862 15.3783 22.4314 15.3783C26.5469 15.3783 27.5719 15.8266 27.2415 16.9862Z"
                     fill="currentColor" fill-opacity="0.85" />
              <path d="M5.70402 11.0751L4.66019 6.9803C4.47125 6.21137 3.67939 6.05457 3.1367 6.59441L0.289196 9.44664C-0.221346 9.95718-0.0347072 10.7783 0.682005 10.992L4.5515 12.1392C5.28028 12.3551 5.89297 11.844 5.70402 11.0751Z"
                     fill="currentColor" fill-opacity="0.85" />
              <path d="M16.9822 7.26793C17.186 8.06156 17.9905 8.20398 18.5257 7.66414L21.3756 4.80906C21.8936 4.29621 21.6897 3.48481 20.9776 3.27118L17.1012 2.11423C16.377 1.90575 15.7569 2.43407 15.9458 3.17086Z"
                     fill="currentColor" fill-opacity="0.85" />
       </g>
</svg>