<?xml version="1.0" encoding="UTF-8"?>
<!--Generator: Apple Native CoreSVG 326-->
<!DOCTYPE svg PUBLIC "-//W3C//DTD SVG 1.1//EN" "http://www.w3.org/Graphics/SVG/1.1/DTD/svg11.dtd">
<svg version="1.1" xmlns="http://www.w3.org/2000/svg" xmlns:xlink="http://www.w3.org/1999/xlink"
       viewBox="0 0 24.4293 22.4289">
       <g>
              <rect height="22.4289" opacity="0" width="24.4293" x="0" y="0" />
              <path d="M23.8665 17.7195C24.8165 14.322 22.3966 12.7093 16.4856 12.7093C13.868 12.7093 11.2532 12.9219 9.04739 13.3228L9.94656 14.6973C10.5351 10.0694 9.21456 6.28925 6.402 4.46156L7.02027 6.63238C8.17752 3.34161 6.2153 0 3.18177 0C0.832132 0-0.437157 1.79245 0.137255 4.10963L3.99565 19.7058C4.43158 21.4616 5.59236 22.3996 7.31887 22.3996L19.5397 22.3996C21.8573 22.3996 22.8802 21.291 23.8665 17.7195ZM21.3031 16.9936C20.6052 19.5208 20.3648 19.7306 19.5397 19.7306L7.31887 19.7306C6.92055 19.7306 6.70952 19.5236 6.60319 19.0713L2.72297 3.43089C2.61542 2.96627 2.81207 2.67645 3.22884 2.67645C4.24513 2.67645 4.96978 3.65477 4.71127 5.28181C4.61361 5.96825 4.76404 6.40231 5.18736 6.75727C6.87627 8.17832 7.66401 10.3838 7.64557 14.4287C7.64557 15.3154 8.2554 15.9424 9.14953 15.9401C10.1658 15.9217 12.7404 15.3858 16.4856 15.3858C20.6086 15.3858 21.6261 15.834 21.3031 16.9936Z"
                     fill="currentColor" fill-opacity="0.85" />
              <path d="M12.9672 7.16221C12.9672 8.65744 14.231 10.0804 15.621 10.0804C16.8014 10.0804 17.4574 9.10666 17.8827 7.37638L18.256 7.34994L18.256 9.03787C18.256 9.93279 18.7453 10.4348 19.6333 10.4348C21.1263 10.4348 22.5492 9.18818 22.5492 7.80334C22.5492 6.61315 21.568 5.96698 19.828 5.54166L19.8038 5.16838L21.4992 5.16838C22.3867 5.16838 22.9013 4.68131 22.9013 3.80077C22.9013 2.313 21.657 0.887763 20.2572 0.887763C19.067 0.887763 18.4283 1.85862 18.0007 3.5912L17.6223 3.61304L17.6223 1.91764C17.6223 1.03249 17.1277 0.520733 16.2472 0.520733C14.7594 0.520733 13.3342 1.7771 13.3342 3.1671C13.3342 4.35729 14.3125 4.98854 16.0526 5.42132L16.0646 5.78713L14.379 5.78713C13.4938 5.78713 12.9672 6.28397 12.9672 7.16221ZM17.9268 6.46666C17.3822 6.46666 16.9353 6.01975 16.9353 5.47288C16.9353 4.92831 17.3822 4.48139 17.9268 4.48139C18.4713 4.48139 18.9183 4.92831 18.9183 5.47288C18.9183 6.01975 18.4713 6.46666 17.9268 6.46666Z"
                     fill="currentColor" fill-opacity="0.85" />
       </g>
</svg>