<?xml version="1.0" encoding="UTF-8"?>
<!--Generator: Apple Native CoreSVG 326-->
<!DOCTYPE svg PUBLIC "-//W3C//DTD SVG 1.1//EN" "http://www.w3.org/Graphics/SVG/1.1/DTD/svg11.dtd">
<svg version="1.1" xmlns="http://www.w3.org/2000/svg" xmlns:xlink="http://www.w3.org/1999/xlink"
       viewBox="0 0 24.2086 22.2303">
       <g>
              <rect height="22.2303" opacity="0" width="24.2086" x="0" y="0" />
              <path d="M23.6446 17.5978C24.5797 14.2824 22.2293 12.707 16.3533 12.707C13.727 12.707 11.1374 12.9311 9.02866 13.3212L9.26085 14.3541C10.2605 9.91423 8.98978 6.29525 5.73698 4.49862L6.32607 6.25934C7.20752 2.98446 5.35533 0 2.68434 0C0.733456 0-0.440178 1.60854 0.155525 4.00288L4.01392 19.5991C4.43493 21.3101 5.5584 22.2257 7.24992 22.2257L19.4074 22.2257C21.6802 22.2257 22.6734 21.1469 23.6446 17.5978Z"
                     fill="currentColor" fill-opacity="0.85" />
              <path d="M18.3169 9.29882C20.4076 9.29882 21.7803 8.30909 21.7803 6.78347C21.7803 5.71793 21.006 4.97683 19.9783 4.93941L19.9783 4.93194C20.7958 4.89222 21.4994 4.1035 21.4994 3.13562C21.4994 1.77777 20.2542 0.87648 18.3778 0.87648C17.0559 0.87648 15.7998 1.45617 15.3966 2.4041C15.3174 2.5959 15.2927 2.76355 15.2927 2.96972C15.2927 3.48081 15.6712 3.85924 16.2265 3.85924C16.6733 3.85924 16.9805 3.69784 17.1998 3.33311C17.4077 2.92502 17.8226 2.62107 18.3806 2.62107C18.9771 2.62107 19.3552 2.92678 19.3552 3.39171C19.3552 3.8687 18.9759 4.16762 18.3341 4.16762L18.0133 4.16762C17.4919 4.16762 17.1284 4.5116 17.1284 4.99054C17.1284 5.47694 17.4896 5.81576 18.0133 5.81576L18.3405 5.81576C19.0639 5.81576 19.4645 6.10722 19.4645 6.63019C19.4645 7.14856 19.0318 7.47731 18.3662 7.47731C17.7795 7.47731 17.3652 7.20551 17.148 6.83242C16.8719 6.44762 16.6192 6.29598 16.1672 6.29598C15.5918 6.29598 15.1738 6.68933 15.1738 7.23487C15.1738 7.41405 15.2134 7.56963 15.3001 7.76143C15.6762 8.70014 16.8509 9.29882 18.3169 9.29882Z"
                     fill="currentColor" fill-opacity="0.85" />
       </g>
</svg>