<?xml version="1.0" encoding="UTF-8"?>
<!--Generator: Apple Native CoreSVG 326-->
<!DOCTYPE svg PUBLIC "-//W3C//DTD SVG 1.1//EN" "http://www.w3.org/Graphics/SVG/1.1/DTD/svg11.dtd">
<svg version="1.1" xmlns="http://www.w3.org/2000/svg" xmlns:xlink="http://www.w3.org/1999/xlink"
       viewBox="0 0 24.2105 24.7115">
       <g>
              <rect height="24.7115" opacity="0" width="24.2105" x="0" y="0" />
              <path d="M0.196078 18.8384C1.17482 22.3876 2.16049 23.4663 4.44079 23.4663L16.5908 23.4663C18.2898 23.4663 19.4058 22.5507 19.8343 20.8397L23.6927 5.2435C24.2809 2.84916 23.1147 1.24062 21.1564 1.24062C18.4854 1.24062 16.6332 4.22508 17.5147 7.49997L18.1112 5.73924C14.8584 7.53587 13.5877 11.1549 14.5873 15.5947L14.8195 14.5618C12.7034 14.1717 10.1137 13.9476 7.48742 13.9476C1.62119 13.9476-0.731535 15.5231 0.196078 18.8384Z"
                     fill="currentColor" fill-opacity="0.85" />
              <path d="M14.4295 3.61604C14.3077 2.66525 14.6995 1.83505 15.5062 1.46966C15.9162 1.25603 16.0046 0.838535 15.8869 0.4951C15.7347 0.119517 15.2977-0.163019 14.7601 0.106901C13.4694 0.747368 12.6946 2.36319 12.9243 3.92502C13.0053 4.43095 13.5112 4.66411 13.9678 4.49701C14.3508 4.34482 14.503 3.99107 14.4295 3.61604ZM11.7985 11.0971C11.4452 9.73842 11.8715 7.90521 13.4932 7.04693C13.994 6.77185 14.0405 6.28314 13.8539 5.95178C13.6747 5.63764 13.2647 5.4487 12.7667 5.68416C10.6064 6.71065 9.79526 9.58678 10.3232 11.5266C10.4483 12.0079 10.9319 12.1721 11.3075 12.0814C11.6584 11.9906 11.9581 11.6346 11.7985 11.0971Z"
                     fill="currentColor" fill-opacity="0.85" />
       </g>
</svg>