<?xml version="1.0" encoding="UTF-8"?>
<!--Generator: Apple Native CoreSVG 326-->
<!DOCTYPE svg PUBLIC "-//W3C//DTD SVG 1.1//EN" "http://www.w3.org/Graphics/SVG/1.1/DTD/svg11.dtd">
<svg version="1.1" xmlns="http://www.w3.org/2000/svg" xmlns:xlink="http://www.w3.org/1999/xlink"
       viewBox="0 0 24.2086 22.2303">
       <g>
              <rect height="22.2303" opacity="0" width="24.2086" x="0" y="0" />
              <path d="M23.6446 17.5978C24.5797 14.2824 22.2293 12.707 16.3533 12.707C13.727 12.707 11.1374 12.9311 9.02866 13.3212L9.26085 14.3541C10.2605 9.91423 8.98978 6.29525 5.73698 4.49862L6.32607 6.25934C7.20752 2.98446 5.35533 0 2.68434 0C0.733456 0-0.440178 1.60854 0.155525 4.00288L4.01392 19.5991C4.43493 21.3101 5.5584 22.2257 7.24992 22.2257L19.4074 22.2257C21.6802 22.2257 22.6734 21.1469 23.6446 17.5978Z"
                     fill="currentColor" fill-opacity="0.85" />
              <path d="M16.201 9.21117L20.8862 9.21117C21.4363 9.21117 21.8245 8.83043 21.8245 8.29981C21.8245 7.75943 21.434 7.39361 20.8862 7.39361L18.3217 7.39361L18.3217 7.36431L20.0231 5.79538C20.8944 5.01698 21.4459 4.23179 21.4459 3.36769C21.4459 1.8616 20.1977 0.87648 18.2919 0.87648C16.8806 0.87648 15.6158 1.54867 15.293 2.63605C15.2637 2.79746 15.227 2.9548 15.227 3.11906C15.227 3.65944 15.618 4.04534 16.1854 4.04534C16.6816 4.04534 16.9968 3.82534 17.1703 3.41761C17.3427 2.97002 17.692 2.65959 18.2461 2.65959C18.8449 2.65959 19.2374 2.99119 19.2374 3.4728C19.2374 3.91359 18.9069 4.32387 18.399 4.78352L15.7065 7.22092C15.3614 7.51377 15.1765 7.85368 15.1765 8.23266C15.1765 8.82758 15.5722 9.21117 16.201 9.21117Z"
                     fill="currentColor" fill-opacity="0.85" />
       </g>
</svg>