<?xml version="1.0" encoding="UTF-8"?>
<!--Generator: Apple Native CoreSVG 326-->
<!DOCTYPE svg PUBLIC "-//W3C//DTD SVG 1.1//EN" "http://www.w3.org/Graphics/SVG/1.1/DTD/svg11.dtd">
<svg version="1.1" xmlns="http://www.w3.org/2000/svg" xmlns:xlink="http://www.w3.org/1999/xlink"
       viewBox="0 0 24.4281 29.4434">
       <g>
              <rect height="29.4434" opacity="0" width="24.4281" x="0" y="0" />
              <path d="M0.200922 17.712C1.18713 21.2835 2.21009 22.3996 4.5277 22.3996L16.7462 22.3996C18.475 22.3996 19.6358 21.4542 20.0717 19.7035L23.9301 4.10733C24.5045 1.79245 23.2352 0 20.8758 0C17.8423 0 15.8824 3.34161 17.0471 6.63007L17.6654 4.46156C14.8454 6.28925 13.5323 10.0596 14.1208 14.6898L15.0102 13.3153C12.8142 12.9121 10.1994 12.7093 7.57434 12.7093C1.66334 12.7093-0.749073 14.3146 0.200922 17.712ZM2.76425 16.9862C2.43155 15.8243 3.45882 15.3783 7.57434 15.3783C11.3269 15.3783 13.9016 15.9142 14.9178 15.9327C15.8045 15.935 16.4218 15.3154 16.4195 14.4212C16.4034 10.3763 17.1911 8.17602 18.8777 6.75496C19.301 6.40001 19.4538 5.96825 19.3538 5.27951C19.0976 3.64731 19.8222 2.66899 20.8385 2.66899C21.2553 2.66899 21.452 2.96396 21.337 3.42858L17.4642 19.069C17.3504 19.5236 17.1468 19.7231 16.7462 19.7231L4.5277 19.7231C3.69508 19.7231 3.45476 19.5208 2.76425 16.9862Z"
                     fill="currentColor" fill-opacity="0.85" />
              <path d="M5.88973 23.7146C5.10873 23.7146 4.76705 24.4353 5.1524 25.0808L7.37368 28.8087C7.74642 29.437 8.57504 29.4175 8.9357 28.8087L11.1616 25.0808C11.5567 24.4278 11.2007 23.7146 10.4294 23.7146Z"
                     fill="currentColor" fill-opacity="0.85" />
              <path d="M5.89719 11.3891L10.4369 11.3891C11.2007 11.3891 11.5642 10.6857 11.1691 10.0327L8.94316 6.30477C8.57504 5.68626 7.75157 5.6765 7.38114 6.30477L5.15986 10.0327C4.77967 10.6782 5.10873 11.3891 5.89719 11.3891Z"
                     fill="currentColor" fill-opacity="0.85" />
       </g>
</svg>