<?xml version="1.0" encoding="UTF-8"?>
<!--Generator: Apple Native CoreSVG 326-->
<!DOCTYPE svg PUBLIC "-//W3C//DTD SVG 1.1//EN" "http://www.w3.org/Graphics/SVG/1.1/DTD/svg11.dtd">
<svg version="1.1" xmlns="http://www.w3.org/2000/svg" xmlns:xlink="http://www.w3.org/1999/xlink"
       viewBox="0 0 21.365 21.006">
       <g>
              <rect height="21.006" opacity="0" width="21.365" x="0" y="0" />
              <path d="M10.4981 20.9962C16.302 20.9962 21.0037 16.2946 21.0037 10.4981C21.0037 4.70163 16.302 0 10.4981 0C4.70163 0 0 4.70163 0 10.4981C0 16.2946 4.70163 20.9962 10.4981 20.9962ZM10.4981 17.9484C6.37829 17.9484 3.04785 14.6179 3.04785 10.4981C3.04785 6.37829 6.37829 3.04785 10.4981 3.04785C14.6179 3.04785 17.9558 6.37829 17.9558 10.4981C17.9558 14.6179 14.6179 17.9484 10.4981 17.9484Z"
                     fill="currentColor" fill-opacity="0.85" />
              <path d="M8.9051 13.5251L13.7872 13.5251C14.1272 13.5251 14.4046 13.2977 14.4046 12.918C14.4046 12.5556 14.1272 12.3259 13.7872 12.3259L9.10369 12.3259C8.95993 12.3259 8.86907 12.2568 8.85239 12.1033L8.80587 11.7621L13.9596 11.7621C14.7144 11.7621 15.1279 11.3226 15.2428 10.5575L15.5066 8.69954C15.5187 8.63579 15.5284 8.5479 15.5284 8.47153C15.5284 8.10802 15.3004 7.84732 14.8307 7.84732L8.19864 7.84732L8.14059 7.47422C8.05215 6.98716 7.76258 6.70626 7.18653 6.70626L5.71289 6.70626C5.33555 6.70626 5.03348 7.00832 5.03348 7.39543C5.03348 7.78023 5.33555 8.0823 5.71289 8.0823L6.90806 8.0823L7.53033 12.3039C7.64521 13.0851 8.10826 13.5251 8.9051 13.5251ZM9.22548 15.873C9.73845 15.873 10.1417 15.4674 10.1417 14.9591C10.1417 14.4386 9.73845 14.0256 9.22548 14.0256C8.71713 14.0256 8.29666 14.4386 8.29666 14.9591C8.29666 15.4674 8.71713 15.873 9.22548 15.873ZM13.0335 15.873C13.5367 15.873 13.9497 15.4674 13.9497 14.9591C13.9497 14.4386 13.5367 14.0256 13.0335 14.0256C12.5153 14.0256 12.1 14.4386 12.1 14.9591C12.1 15.4674 12.5153 15.873 13.0335 15.873Z"
                     fill="currentColor" fill-opacity="0.85" />
       </g>
</svg>