<?xml version="1.0" encoding="UTF-8"?>
<!--Generator: Apple Native CoreSVG 326-->
<!DOCTYPE svg PUBLIC "-//W3C//DTD SVG 1.1//EN" "http://www.w3.org/Graphics/SVG/1.1/DTD/svg11.dtd">
<svg version="1.1" xmlns="http://www.w3.org/2000/svg" xmlns:xlink="http://www.w3.org/1999/xlink"
       viewBox="0 0 21.365 21.006">
       <g>
              <rect height="21.006" opacity="0" width="21.365" x="0" y="0" />
              <path d="M10.4981 20.9962C16.302 20.9962 21.0037 16.2946 21.0037 10.4981C21.0037 4.70163 16.302 0 10.4981 0C4.70163 0 0 4.70163 0 10.4981C0 16.2946 4.70163 20.9962 10.4981 20.9962ZM10.4981 17.9484C6.37829 17.9484 3.04785 14.6179 3.04785 10.4981C3.04785 6.37829 6.37829 3.04785 10.4981 3.04785C14.6179 3.04785 17.9558 6.37829 17.9558 10.4981C17.9558 14.6179 14.6179 17.9484 10.4981 17.9484Z"
                     fill="currentColor" fill-opacity="0.85" />
              <path d="M7.2763 15.7512L7.83404 15.7512C8.36423 15.7512 8.72434 15.4674 8.72434 14.9809C8.72434 14.646 8.41591 14.3703 8.03954 14.3145L8.03954 13.4629C8.03954 13.0315 8.08727 12.7632 8.20634 12.5033C8.78506 12.7286 9.40654 12.8412 10.0758 12.8412C10.7428 12.8412 11.4036 12.7665 11.8528 12.647C11.9252 12.8511 11.973 13.1488 11.973 13.4212C11.973 13.9457 11.9195 14.3532 11.9195 14.8546C11.9195 15.445 12.2153 15.7512 12.8328 15.7512L13.3199 15.7512C13.8478 15.7512 14.2252 15.4703 14.2252 14.9809C14.2252 14.6345 13.9329 14.3703 13.5824 14.3168L13.5824 13.7889C13.5824 11.4846 15.1819 12.396 15.283 9.41904C16.0528 9.30076 16.586 8.8038 16.586 8.37873C16.586 7.81056 15.9759 7.20794 15.3829 6.75751C15.2141 6.21294 14.9285 5.81771 14.7212 5.81771C14.5086 5.81771 14.2018 6.23071 13.991 6.74204C13.6526 6.97654 13.3028 7.51244 13.0834 7.89736L12.9426 8.13525C12.799 8.40299 12.6399 8.55869 12.4124 8.55869C10.8508 8.55869 10.2544 8.32717 8.65787 8.32717C7.92478 8.32717 7.43704 8.55815 7.12224 8.88217C6.96138 9.04479 6.82927 9.116 6.55638 8.97643C6.15411 8.78397 5.88801 8.35416 5.88801 7.81056C5.88801 7.01767 6.48559 6.4879 7.40544 6.4879C7.75822 6.4879 8.11099 6.5511 8.54935 6.72633C9.14208 6.98133 9.45853 6.13075 8.88247 5.90044C8.35853 5.68099 7.85872 5.59825 7.40544 5.59825C5.99337 5.59825 5.00067 6.51798 5.00067 7.81056C5.00067 8.74927 5.48325 9.49037 6.2238 9.81779C6.45532 9.91775 6.51798 10.1234 6.51798 10.2901C6.51337 10.4917 6.51337 10.6567 6.51337 10.7854C6.51337 12.1171 5.90438 12.2993 6.08708 13.0202L6.63341 15.156C6.74083 15.5811 6.92759 15.7512 7.2763 15.7512ZM15.1418 8.09255C14.9999 8.08564 14.904 7.97591 14.9109 7.83634C14.9178 7.69677 15.0275 7.59111 15.1694 7.59802C15.309 7.60724 15.4049 7.72673 15.398 7.8663C15.391 8.00587 15.2813 8.10177 15.1418 8.09255Z"
                     fill="currentColor" fill-opacity="0.85" />
       </g>
</svg>