<?xml version="1.0" encoding="UTF-8"?>
<!--Generator: Apple Native CoreSVG 326-->
<!DOCTYPE svg PUBLIC "-//W3C//DTD SVG 1.1//EN" "http://www.w3.org/Graphics/SVG/1.1/DTD/svg11.dtd">
<svg version="1.1" xmlns="http://www.w3.org/2000/svg" xmlns:xlink="http://www.w3.org/1999/xlink"
       viewBox="0 0 28.4356 24.3342">
       <g>
              <rect height="24.3342" opacity="0" width="28.4356" x="0" y="0" />
              <path d="M5.34089 24.3342L6.91522 24.3342C8.37466 24.3342 9.37458 23.3946 9.37458 22.03C9.37458 20.8703 8.67673 20.2621 7.99083 20.0662L7.99083 19.0112C7.99083 18.2538 8.0288 17.7379 8.12427 17.3132C9.27255 17.72 10.784 17.951 12.0956 17.951C13.3072 17.951 14.6383 17.8343 15.7338 17.6154C15.8109 17.9379 15.873 18.1967 15.873 18.2858C15.873 19.5617 15.7362 20.2407 15.7362 21.6095C15.7362 23.262 16.7143 24.3342 18.3599 24.3342L19.8337 24.3342C21.2391 24.3342 22.2058 23.3854 22.2058 22.03C22.2058 20.8106 21.59 20.3367 20.9018 20.0886L20.9018 19.5117C20.9018 14.9038 24.5422 16.9213 24.9287 9.50341C26.7238 9.11982 28.0743 7.79291 28.0743 6.61885C28.0743 5.16171 26.7818 3.70487 25.5054 2.76125C25.2325 1.34929 24.2927 0.291331 23.4593 0.291331C22.5715 0.291331 21.6531 1.23969 21.1964 2.38688C20.2625 3.04117 19.3498 4.35468 18.8397 5.25542L18.4765 5.89735C18.2146 6.35227 17.9871 6.60211 17.5983 6.60211C14.0136 6.60211 12.601 6.04031 8.70584 6.04031C6.62874 6.04031 5.32312 6.7532 4.51324 7.70793C4.21851 8.07278 3.90765 8.17601 3.46019 7.88426C2.62471 7.35691 2.13224 6.43191 2.13224 5.26792C2.13224 3.39795 3.56452 2.14092 5.74292 2.14092C6.58967 2.14092 7.4089 2.30924 8.43429 2.7217C9.88033 3.30861 10.6447 1.30671 9.26182 0.729571C8.00096 0.228673 6.79585 0.00867367 5.74292 0.00867367C2.38663 0.00867367 0 2.19484 0 5.26792C0 7.36741 0.991484 9.04928 2.56199 9.90107C3.06465 10.1797 3.15551 10.3716 3.1532 10.8989C3.14629 11.4374 3.14629 11.9297 3.14629 12.3513C3.14629 15.0364 1.64305 15.9624 2.14043 17.7871L3.44727 22.6043C3.76316 23.78 4.36796 24.3342 5.34089 24.3342ZM5.84057 22.284C5.57799 22.284 5.46014 22.1312 5.32342 21.6159L4.12916 17.2444C3.95623 16.6285 5.19647 15.7863 5.19647 12.3513C5.19647 10.991 5.25506 8.09049 8.70584 8.09049C12.0612 8.09049 14.916 8.64482 17.9308 8.64482C18.8319 8.64482 19.7106 7.89718 20.3015 6.88003L20.6763 6.23284C21.3345 5.103 22.0151 4.19886 22.702 3.90983C22.8707 3.18669 23.0781 2.6463 23.2906 2.45979C23.4026 2.62392 23.6193 3.10474 23.7097 3.86155C24.9378 4.73111 26.0241 5.8319 26.0241 6.56256C26.0241 6.90678 25.1492 7.65765 23.7997 7.65765L23.6579 7.65765C23.1852 7.65765 22.9032 7.94194 22.9032 8.43417L22.9032 8.61049C22.9032 14.7274 18.8591 12.7175 18.8591 19.5117L18.8591 20.9385C18.8591 21.2573 19.0653 21.4709 19.3938 21.4709L19.728 21.4709C20.0229 21.4709 20.1855 21.6289 20.1855 21.8812C20.1855 22.1306 20.0206 22.284 19.7234 22.284L18.5534 22.284C18.0295 22.284 17.7864 21.9813 17.7864 21.4797C17.7864 20.5744 17.9231 19.8879 17.9231 18.2858C17.9231 17.6867 17.4274 16.1306 17.4274 15.4331C17.4274 15.1999 17.6078 14.7213 17.8301 14.1791C18.254 13.1476 16.6171 12.444 16.1662 13.5467C15.9026 14.1959 15.6383 14.9099 15.6383 15.5475C14.7008 15.7669 13.3617 15.9083 12.0956 15.9083C10.8858 15.9083 9.62994 15.6888 8.7901 15.4015C9.18588 14.8007 9.46107 14.2664 9.58057 13.9372C9.9556 12.881 8.40432 12.1878 7.86788 13.3244C7.54847 14.0288 7.20721 14.5826 6.71269 15.4367C6.19741 16.338 5.94065 16.9784 5.94065 18.1319L5.94065 20.9385C5.94065 21.2573 6.15429 21.4709 6.47303 21.4709L6.90424 21.4709C7.18417 21.4709 7.35424 21.641 7.35424 21.8812C7.35424 22.1702 7.18186 22.284 6.90193 22.284ZM23.7476 6.18467C24.1044 6.18467 24.4048 5.89632 24.4048 5.52983C24.4048 5.17081 24.1044 4.87268 23.7476 4.87268C23.3812 4.87268 23.0905 5.17081 23.0905 5.52983C23.0905 5.89632 23.3812 6.18467 23.7476 6.18467Z"
                     fill="currentColor" fill-opacity="0.85" />
       </g>
</svg>