<?xml version="1.0" encoding="UTF-8"?>
<!--Generator: Apple Native CoreSVG 326-->
<!DOCTYPE svg PUBLIC "-//W3C//DTD SVG 1.1//EN" "http://www.w3.org/Graphics/SVG/1.1/DTD/svg11.dtd">
<svg version="1.1" xmlns="http://www.w3.org/2000/svg" xmlns:xlink="http://www.w3.org/1999/xlink"
       viewBox="0 0 25.2371 20.7933">
       <g>
              <rect height="20.7933" opacity="0" width="25.2371" x="0" y="0" />
              <path d="M24.8758 12.4367C24.8758 9.44627 23.8182 6.68788 22.0375 4.53265C21.79 4.23112 21.3535 4.23112 21.0491 4.53034L18.6193 6.95264C18.3592 7.2128 18.3569 7.55853 18.5677 7.83822C19.5288 9.12728 20.1044 10.7185 20.1044 12.4367C20.1044 14.2244 19.4989 15.8753 18.4419 17.2029C18.2306 17.4808 18.2329 17.8225 18.4764 18.0683L20.92 20.5119C21.2117 20.8036 21.6459 20.8036 21.9256 20.4849C23.766 18.3147 24.8758 15.5116 24.8758 12.4367Z"
                     fill="currentColor" fill-opacity="0.85" />
              <path d="M12.4367 4.77139C14.1745 4.77139 15.7732 5.34932 17.0646 6.32534C17.3345 6.52635 17.6779 6.50682 17.9231 6.25413L20.3454 3.82437C20.6521 3.52515 20.6424 3.07605 20.311 2.81359C18.1655 1.05754 15.422 0 12.4367 0C9.45373 0 6.71026 1.05754 4.57225 2.81359C4.24089 3.07605 4.22366 3.52515 4.53034 3.82437L6.95264 6.25413C7.19787 6.50682 7.55853 6.52635 7.84052 6.31557C9.12213 5.34932 10.7185 4.77139 12.4367 4.77139Z"
                     fill="currentColor" fill-opacity="0.85" />
              <path d="M0 12.4367C0 15.519 1.12468 18.3446 2.98003 20.5147C3.23503 20.8186 3.66405 20.8036 3.96096 20.5119L6.39709 18.0683C6.64057 17.8225 6.65264 17.4808 6.43385 17.2029C5.38432 15.8753 4.77139 14.2244 4.77139 12.4367C4.77139 10.7185 5.34471 9.12728 6.30811 7.83822C6.51658 7.55853 6.51658 7.2128 6.25643 6.95264L3.82667 4.53034C3.52745 4.23112 3.07836 4.23859 2.80844 4.56995C1.05008 6.71026 0 9.45373 0 12.4367Z"
                     fill="currentColor" fill-opacity="0.85" />
              <path d="M12.5275 16.4651C13.9349 16.4651 15.3675 15.843 15.8736 14.5642C15.9322 14.3805 15.9838 14.1668 15.9838 13.9784C15.9838 13.4272 15.5997 13.0878 15.0485 13.0878C14.5942 13.0878 14.3484 13.3061 14.171 13.7236C13.8557 14.4355 13.2935 14.8452 12.4827 14.8452C11.1116 14.8452 10.6271 13.5719 10.6271 12.299C10.6271 10.982 11.1702 9.76266 12.4804 9.76266C13.2843 9.76266 13.8441 10.2212 14.1325 10.8568C14.3271 11.2915 14.5781 11.4925 15.0524 11.4925C15.5738 11.4925 15.9304 11.1577 15.9304 10.6243C15.9304 10.3624 15.842 10.0747 15.7116 9.85182C15.0924 8.64549 13.7879 8.13525 12.4655 8.13525C9.99369 8.13525 8.56276 9.77952 8.56276 12.3065C8.56276 14.7847 9.9058 16.4651 12.5275 16.4651ZM12.427 17.486C12.585 17.486 12.6919 17.3717 12.6919 17.2212L12.6919 7.38385C12.6919 7.22814 12.585 7.1115 12.427 7.1115C12.2713 7.1115 12.1695 7.22814 12.1695 7.38385L12.1695 17.2212C12.1695 17.3694 12.2713 17.486 12.427 17.486Z"
                     fill="currentColor" fill-opacity="0.85" />
       </g>
</svg>