<?xml version="1.0" encoding="UTF-8"?>
<!--Generator: Apple Native CoreSVG 326-->
<!DOCTYPE svg PUBLIC "-//W3C//DTD SVG 1.1//EN" "http://www.w3.org/Graphics/SVG/1.1/DTD/svg11.dtd">
<svg version="1.1" xmlns="http://www.w3.org/2000/svg" xmlns:xlink="http://www.w3.org/1999/xlink"
       viewBox="0 0 24.6449 23.5952">
       <g>
              <rect height="23.5952" opacity="0" width="24.6449" x="0" y="0" />
              <path d="M1.94045 20.4256L22.5744 20.4256L22.5744 19.4355C22.5744 18.8957 22.2379 18.5718 21.7032 18.5718L21.3244 18.5718L21.3244 7.89293L22.1092 7.89293C22.9074 7.89293 23.3841 7.28595 23.3841 6.69158C23.3841 6.25686 23.136 5.85374 22.6254 5.55167L13.7186 0.416404C13.2683 0.154491 12.7462 0 12.2563 0C11.7664 0 11.242 0.154491 10.7963 0.416404L1.88944 5.55167C1.37659 5.85374 1.13081 6.25686 1.13081 6.69158C1.13081 7.28595 1.60745 7.89293 2.41314 7.89293L3.19045 7.89293L3.19045 18.5718L2.81396 18.5718C2.27927 18.5718 1.94045 18.8957 1.94045 19.4355ZM5.29922 18.5718L5.29922 6.39673L12.047 2.62732C12.1194 2.5888 12.1965 2.57212 12.2563 2.57212C12.331 2.57212 12.3931 2.5888 12.4679 2.62732L19.2157 6.39673L19.2157 18.5718ZM1.20651 23.5854L23.0673 23.5854C23.7134 23.5854 24.2836 23.0525 24.2836 22.3766C24.2836 21.7231 23.7134 21.1701 23.0673 21.1701L1.20651 21.1701C0.553002 21.1701 0 21.7231 0 22.3766C0 23.045 0.553002 23.5854 1.20651 23.5854Z"
                     fill="currentColor" fill-opacity="0.85" />
              <path d="M12.3591 15.667C13.7568 15.667 15.1968 15.0449 15.6977 13.7661C15.7638 13.5823 15.8155 13.3687 15.8155 13.1803C15.8155 12.6291 15.4216 12.2897 14.8703 12.2897C14.4258 12.2897 14.1726 12.5079 13.9929 12.9254C13.6798 13.6374 13.1228 14.0471 12.3143 14.0471C10.9358 14.0471 10.4587 12.7738 10.4587 11.5009C10.4587 10.1764 10.9996 8.96455 12.312 8.96455C13.1159 8.96455 13.6735 9.42311 13.9567 10.0587C14.1588 10.4934 14.4074 10.6944 14.8766 10.6944C15.4054 10.6944 15.7546 10.3596 15.7546 9.82616C15.7546 9.56425 15.6638 9.27656 15.5409 9.05371C14.9241 7.84738 13.6195 7.33714 12.2896 7.33714C9.81555 7.33714 8.38692 8.98141 8.38692 11.5084C8.38692 13.9866 9.72996 15.667 12.3591 15.667ZM12.2586 16.6879C12.4091 16.6879 12.5212 16.5736 12.5212 16.4231L12.5212 6.58574C12.5212 6.43003 12.4091 6.31339 12.2586 6.31339C12.1029 6.31339 11.9937 6.43003 11.9937 6.58574L11.9937 16.4231C11.9937 16.5713 12.1029 16.6879 12.2586 16.6879Z"
                     fill="currentColor" fill-opacity="0.85" />
       </g>
</svg>