<?xml version="1.0" encoding="UTF-8"?>
<!--Generator: Apple Native CoreSVG 326-->
<!DOCTYPE svg PUBLIC "-//W3C//DTD SVG 1.1//EN" "http://www.w3.org/Graphics/SVG/1.1/DTD/svg11.dtd">
<svg version="1.1" xmlns="http://www.w3.org/2000/svg" xmlns:xlink="http://www.w3.org/1999/xlink"
       viewBox="0 0 24.3303 21.006">
       <g>
              <rect height="21.006" opacity="0" width="24.3303" x="0" y="0" />
              <path d="M11.9856 20.9962C17.7821 20.9962 22.4837 16.2946 22.4837 10.4981C22.4837 4.70163 17.7821 0 11.9856 0C6.18916 0 1.48753 4.70163 1.48753 10.4981L4.53538 10.4981C4.53538 6.37829 7.86582 3.04785 11.9856 3.04785C16.1055 3.04785 19.4359 6.37829 19.4359 10.4981C19.4359 14.6179 16.1055 17.9484 11.9856 17.9484C9.86874 17.9484 8.05458 17.1034 6.64712 15.6524C5.97135 15.0132 5.0498 14.8117 4.35614 15.4438C3.73423 16.0162 3.72149 16.9286 4.44894 17.7463C6.08398 19.7011 9.21457 20.9962 11.9856 20.9962ZM0.808605 8.39698C-0.0138912 8.39698-0.212055 9.15901 0.22849 9.72826L2.75918 13.0277C3.05907 13.4322 3.60988 13.4224 3.91492 13.0277L6.43585 9.72596C6.86894 9.15901 6.66847 8.39698 5.8655 8.39698Z"
                     fill="currentColor" fill-opacity="0.85" />
              <path d="M12.0787 14.6062C13.4838 14.6062 14.9262 13.984 15.4248 12.7076C15.4834 12.5215 15.535 12.3101 15.535 12.1217C15.535 11.5682 15.1509 11.2311 14.5974 11.2311C14.1454 11.2311 13.8996 11.4419 13.7199 11.8669C13.4069 12.5713 12.8522 12.9885 12.0414 12.9885C10.6628 12.9885 10.1857 11.7152 10.1857 10.4326C10.1857 9.11782 10.7191 7.89851 12.0316 7.89851C12.8355 7.89851 13.4005 8.35707 13.6837 9.00009C13.8783 9.42735 14.1367 9.63582 14.6036 9.63582C15.125 9.63582 15.4816 9.29876 15.4816 8.76759C15.4816 8.50568 15.3909 8.21568 15.2605 7.99514C14.6511 6.78135 13.3466 6.27857 12.0167 6.27857C9.54259 6.27857 8.11396 7.92053 8.11396 10.4475C8.11396 12.9257 9.45701 14.6062 12.0787 14.6062ZM11.9782 15.6271C12.1362 15.6271 12.2482 15.515 12.2482 15.3547L12.2482 5.5197C12.2482 5.37146 12.1362 5.25482 11.9782 5.25482C11.8299 5.25482 11.7208 5.37146 11.7208 5.5197L11.7208 15.3547C11.7208 15.5127 11.8299 15.6271 11.9782 15.6271Z"
                     fill="currentColor" fill-opacity="0.85" />
       </g>
</svg>