<?xml version="1.0" encoding="UTF-8"?>
<!--Generator: Apple Native CoreSVG 326-->
<!DOCTYPE svg PUBLIC "-//W3C//DTD SVG 1.1//EN" "http://www.w3.org/Graphics/SVG/1.1/DTD/svg11.dtd">
<svg version="1.1" xmlns="http://www.w3.org/2000/svg" xmlns:xlink="http://www.w3.org/1999/xlink"
       viewBox="0 0 22.6374 22.2784">
       <g>
              <rect height="22.2784" opacity="0" width="22.6374" x="0" y="0" />
              <path d="M11.1343 22.2687C17.2722 22.2687 22.2761 17.2722 22.2761 11.1343C22.2761 4.99648 17.2722 0 11.1343 0C4.99648 0 0 4.99648 0 11.1343C0 17.2722 4.99648 22.2687 11.1343 22.2687ZM11.1343 18.2927C7.17804 18.2927 3.97601 15.0906 3.97601 11.1343C3.97601 7.17573 7.17804 3.97601 11.1343 3.97601C15.0929 3.97601 18.3001 7.17573 18.3001 11.1343C18.3001 15.0906 15.0929 18.2927 11.1343 18.2927Z"
                     fill="currentColor" fill-opacity="0.85" />
              <path d="M11.2274 15.2424C12.6325 15.2424 14.0749 14.6202 14.5735 13.3438C14.6321 13.1577 14.6837 12.9464 14.6837 12.758C14.6837 12.2044 14.2996 11.8674 13.7461 11.8674C13.2941 11.8674 13.0483 12.0781 12.8709 12.5031C12.5556 13.2076 12.0009 13.6247 11.1826 13.6247C9.81154 13.6247 9.33442 12.3515 9.33442 11.0688C9.33442 9.75404 9.86783 8.53473 11.1803 8.53473C11.9842 8.53473 12.544 8.99329 12.8324 9.63631C13.027 10.0636 13.2854 10.272 13.7523 10.272C14.2737 10.272 14.6303 9.93498 14.6303 9.40381C14.6303 9.1419 14.5396 8.8519 14.4092 8.63136C13.7923 7.41757 12.4878 6.91479 11.1654 6.91479C8.69359 6.91479 7.26265 8.55675 7.26265 11.0837C7.26265 13.5619 8.6057 15.2424 11.2274 15.2424ZM11.1269 16.2633C11.2849 16.2633 11.3894 16.1513 11.3894 15.9909L11.3894 6.15592C11.3894 6.00768 11.2849 5.89104 11.1269 5.89104C10.9712 5.89104 10.8694 6.00768 10.8694 6.15592L10.8694 15.9909C10.8694 16.1489 10.9712 16.2633 11.1269 16.2633Z"
                     fill="currentColor" fill-opacity="0.85" />
       </g>
</svg>