<?xml version="1.0" encoding="UTF-8"?>
<!--Generator: Apple Native CoreSVG 326-->
<!DOCTYPE svg PUBLIC "-//W3C//DTD SVG 1.1//EN" "http://www.w3.org/Graphics/SVG/1.1/DTD/svg11.dtd">
<svg version="1.1" xmlns="http://www.w3.org/2000/svg" xmlns:xlink="http://www.w3.org/1999/xlink"
       viewBox="0 0 19.3993 19.0529">
       <g>
              <rect height="19.0529" opacity="0" width="19.3993" x="0" y="0" />
              <path d="M3.64834 19.0379L15.3896 19.0379C17.7164 19.0379 19.0379 17.7262 19.0379 15.4011L19.0379 3.63912C19.0379 1.32151 17.7164 0 15.3896 0L3.64834 0C1.32382 0 0 1.32151 0 3.63912L0 15.4011C0 17.7262 1.32382 19.0379 3.64834 19.0379ZM4.05583 16.0183C3.37024 16.0183 3.01964 15.7096 3.01964 14.9775L3.01964 4.07021C3.01964 3.33809 3.37024 3.0271 4.05583 3.0271L14.9821 3.0271C15.6654 3.0271 16.0183 3.33809 16.0183 4.07021L16.0183 14.9775C16.0183 15.7096 15.6654 16.0183 14.9821 16.0183Z"
                     fill="currentColor" fill-opacity="0.85" />
              <path d="M9.6169 13.6296C11.0221 13.6296 12.4569 13.0074 12.963 11.731C13.0216 11.5449 13.0733 11.3336 13.0733 11.1452C13.0733 10.5916 12.6891 10.2546 12.1356 10.2546C11.6836 10.2546 11.4379 10.4654 11.2604 10.8903C10.9451 11.5948 10.3904 12.012 9.57213 12.012C8.20107 12.012 7.72395 10.7387 7.72395 9.45604C7.72395 8.14126 8.25735 6.92195 9.56983 6.92195C10.3737 6.92195 10.9336 7.38051 11.2219 8.02352C11.4166 8.45079 11.6675 8.65926 12.1418 8.65926C12.6632 8.65926 13.0198 8.3222 13.0198 7.79103C13.0198 7.52912 12.9291 7.23912 12.7987 7.01857C12.1819 5.80479 10.8773 5.30201 9.55491 5.30201C7.08311 5.30201 5.65217 6.94397 5.65217 9.47096C5.65217 11.9491 6.99522 13.6296 9.6169 13.6296ZM9.51639 14.6505C9.6744 14.6505 9.77897 14.5385 9.77897 14.3782L9.77897 4.54314C9.77897 4.3949 9.6744 4.27826 9.51639 4.27826C9.36069 4.27826 9.25897 4.3949 9.25897 4.54314L9.25897 14.3782C9.25897 14.5362 9.36069 14.6505 9.51639 14.6505Z"
                     fill="currentColor" fill-opacity="0.85" />
       </g>
</svg>