<?xml version="1.0" encoding="UTF-8"?>
<!--Generator: Apple Native CoreSVG 326-->
<!DOCTYPE svg PUBLIC "-//W3C//DTD SVG 1.1//EN" "http://www.w3.org/Graphics/SVG/1.1/DTD/svg11.dtd">
<svg version="1.1" xmlns="http://www.w3.org/2000/svg" xmlns:xlink="http://www.w3.org/1999/xlink"
       viewBox="0 0 21.365 21.006">
       <g>
              <rect height="21.006" opacity="0" width="21.365" x="0" y="0" />
              <path d="M10.4981 20.9962C16.302 20.9962 21.0037 16.2946 21.0037 10.4981C21.0037 4.70163 16.302 0 10.4981 0C4.70163 0 0 4.70163 0 10.4981C0 16.2946 4.70163 20.9962 10.4981 20.9962ZM10.4981 17.9484C6.37829 17.9484 3.04785 14.6179 3.04785 10.4981C3.04785 6.37829 6.37829 3.04785 10.4981 3.04785C14.6179 3.04785 17.9558 6.37829 17.9558 10.4981C17.9558 14.6179 14.6179 17.9484 10.4981 17.9484Z"
                     fill="currentColor" fill-opacity="0.85" />
              <path d="M10.5889 14.6062C11.994 14.6062 13.4363 13.984 13.9349 12.7076C13.9935 12.5215 14.0452 12.3101 14.0452 12.1217C14.0452 11.5682 13.6611 11.2311 13.1075 11.2311C12.6556 11.2311 12.4098 11.4419 12.2301 11.8669C11.917 12.5713 11.3623 12.9885 10.5441 12.9885C9.17302 12.9885 8.6959 11.7152 8.6959 10.4326C8.6959 9.11782 9.22931 7.89851 10.5418 7.89851C11.3457 7.89851 11.9032 8.35707 12.1939 9.00009C12.3885 9.42735 12.6469 9.63582 13.1138 9.63582C13.6352 9.63582 13.9918 9.29876 13.9918 8.76759C13.9918 8.50568 13.901 8.21568 13.7707 7.99514C13.1538 6.78135 11.8493 6.27857 10.5269 6.27857C8.05276 6.27857 6.62413 7.92053 6.62413 10.4475C6.62413 12.9257 7.96717 14.6062 10.5889 14.6062ZM10.4883 15.6271C10.6464 15.6271 10.7509 15.515 10.7509 15.3547L10.7509 5.5197C10.7509 5.37146 10.6464 5.25482 10.4883 5.25482C10.3326 5.25482 10.2309 5.37146 10.2309 5.5197L10.2309 15.3547C10.2309 15.5127 10.3326 15.6271 10.4883 15.6271Z"
                     fill="currentColor" fill-opacity="0.85" />
       </g>
</svg>