<?xml version="1.0" encoding="UTF-8"?>
<!--Generator: Apple Native CoreSVG 326-->
<!DOCTYPE svg PUBLIC "-//W3C//DTD SVG 1.1//EN" "http://www.w3.org/Graphics/SVG/1.1/DTD/svg11.dtd">
<svg version="1.1" xmlns="http://www.w3.org/2000/svg" xmlns:xlink="http://www.w3.org/1999/xlink"
       viewBox="0 0 22.7074 22.3565">
       <g>
              <rect height="22.3565" opacity="0" width="22.7074" x="0" y="0" />
              <path d="M8.48037 4.53329C9.02276 4.31492 9.59675 4.16668 10.2023 4.07879C10.482 4.03688 10.6807 3.8284 10.6807 3.54126L10.6807 0.573173C10.6807 0.224582 10.4131-0.0332668 10.0645 0.00349081C8.82593 0.125834 7.64593 0.449859 6.55097 0.95943C6.23167 1.10416 6.13347 1.45505 6.31034 1.74966L7.78835 4.31505C7.93077 4.55797 8.21045 4.64871 8.48037 4.53329Z"
                     fill="currentColor" fill-opacity="0.85" />
              <path d="M5.5237 6.77028C5.88624 6.30602 6.30452 5.88774 6.77855 5.52519C7.01171 5.34602 7.07315 5.05657 6.93073 4.81364L5.45273 2.25571C5.27585 1.94618 4.91004 1.85775 4.62289 2.06907C3.64051 2.78372 2.78222 3.64201 2.06988 4.6267C1.86601 4.9213 1.94468 5.27735 2.25652 5.45653L4.81675 6.92993C5.05968 7.07465 5.34452 7.00575 5.5237 6.77028Z"
                     fill="currentColor" fill-opacity="0.85" />
              <path d="M4.08475 10.1866C4.16518 9.59825 4.32089 9.02196 4.5444 8.49164C4.65468 8.21426 4.56624 7.93457 4.31355 7.78985L1.75331 6.31415C1.44894 6.13497 1.10035 6.23548 0.95793 6.55477C0.448359 7.64227 0.126639 8.82513 0.00199109 10.066C-0.022696 10.4146 0.225388 10.6799 0.573978 10.6799L3.54952 10.6799C3.83667 10.6799 4.0526 10.4835 4.08475 10.1866Z"
                     fill="currentColor" fill-opacity="0.85" />
              <path d="M4.53694 13.8597C4.32319 13.3271 4.16749 12.7582 4.08706 12.1527C4.0526 11.8632 3.83667 11.6668 3.54952 11.6668L0.573978 11.6668C0.225388 11.6668-0.0250009 11.9247 0.00199109 12.2807C0.124334 13.5239 0.448359 14.7016 0.960235 15.7966C1.10266 16.1182 1.44894 16.2187 1.75562 16.0395L4.31355 14.5592C4.56624 14.4145 4.64721 14.1348 4.53694 13.8597Z"
                     fill="currentColor" fill-opacity="0.85" />
              <path d="M6.77855 16.8238C6.31429 16.4636 5.88624 16.0453 5.526 15.5713C5.34682 15.3456 5.05968 15.2744 4.81444 15.4191L2.25652 16.8925C1.94468 17.0717 1.86601 17.4226 2.06757 17.7246C2.78222 18.707 3.64281 19.5728 4.6252 20.28C4.9198 20.4913 5.27816 20.3879 5.45503 20.0933L6.93073 17.5331C7.07315 17.2902 7.01171 17.003 6.77855 16.8238Z"
                     fill="currentColor" fill-opacity="0.85" />
              <path d="M10.2023 18.2702C9.59905 18.1824 9.02276 18.0266 8.48268 17.8129C8.21506 17.7003 7.93307 17.7911 7.79065 18.034L6.31265 20.5919C6.13577 20.8963 6.24144 21.2472 6.55558 21.3896C7.64823 21.8992 8.82593 22.2232 10.0645 22.3478C10.4131 22.3725 10.6807 22.1245 10.6807 21.7759L10.6807 18.8078C10.6807 18.5206 10.482 18.3122 10.2023 18.2702Z"
                     fill="currentColor" fill-opacity="0.85" />
              <path d="M13.8806 17.8106C13.3353 18.0266 12.7591 18.1824 12.1512 18.2702C11.864 18.3122 11.6653 18.5206 11.6653 18.8078L11.6653 21.7759C11.6653 22.1245 11.9329 22.3748 12.2815 22.3478C13.5201 22.2255 14.7099 21.8992 15.8025 21.3896C16.1218 21.2472 16.22 20.8888 16.0432 20.5845L14.5651 18.034C14.4227 17.7911 14.143 17.7003 13.8806 17.8106Z"
                     fill="currentColor" fill-opacity="0.85" />
              <path d="M16.8321 15.5713C16.4696 16.043 16.0564 16.459 15.5847 16.8238C15.3516 17.003 15.2803 17.2925 15.4302 17.5331L16.9082 20.091C17.0776 20.4005 17.4435 20.4913 17.7306 20.28C18.7153 19.5653 19.5787 18.7047 20.2859 17.7172C20.4898 17.4226 20.399 17.0717 20.1044 16.8925L17.5391 15.4168C17.2984 15.2721 17.0113 15.3456 16.8321 15.5713Z"
                     fill="currentColor" fill-opacity="0.85" />
              <path d="M18.271 12.1527C18.1906 12.7582 18.0424 13.3271 17.8166 13.8672C17.7011 14.1348 17.7896 14.4122 18.0348 14.5569L20.6002 16.0326C20.8971 16.2118 21.2606 16.1159 21.4053 15.7845C21.8977 14.6993 22.2217 13.5216 22.344 12.2807C22.3687 11.9247 22.1132 11.6668 21.7721 11.6668L18.8063 11.6668C18.5191 11.6668 18.3107 11.8632 18.271 12.1527Z"
                     fill="currentColor" fill-opacity="0.85" />
              <path d="M17.8166 8.48187C18.0378 9.02196 18.1906 9.59079 18.2687 10.1866C18.3107 10.4835 18.5191 10.6799 18.8063 10.6799L21.7721 10.6799C22.1132 10.6799 22.371 10.4146 22.344 10.066C22.2292 8.83489 21.8977 7.65489 21.4053 6.56223C21.2606 6.23317 20.8948 6.13497 20.6002 6.31415L18.0325 7.79215C17.7896 7.93688 17.7011 8.21426 17.8166 8.48187Z"
                     fill="currentColor" fill-opacity="0.85" />
              <path d="M15.5847 5.52519C16.0415 5.88774 16.4673 6.30371 16.8321 6.77028C17.0113 7.00344 17.2984 7.07696 17.5391 6.93223L20.1044 5.45653C20.4014 5.27735 20.4898 4.9213 20.2957 4.63416C19.581 3.64201 18.713 2.7665 17.7306 2.06907C17.4435 1.85775 17.0776 1.95364 16.9082 2.25802L15.4325 4.81364C15.2803 5.05887 15.3492 5.34602 15.5847 5.52519Z"
                     fill="currentColor" fill-opacity="0.85" />
              <path d="M12.1437 4.07879C12.7591 4.16438 13.3307 4.31492 13.8806 4.53329C14.143 4.64871 14.4227 4.55797 14.5651 4.31505L16.0432 1.74966C16.22 1.45505 16.1195 1.10416 15.7979 0.95943C14.7127 0.449859 13.5299 0.125834 12.2815 0.00349081C11.9329-0.0309619 11.6653 0.226887 11.6653 0.575478L11.6653 3.54126C11.6653 3.8284 11.864 4.03688 12.1437 4.07879Z"
                     fill="currentColor" fill-opacity="0.85" />
              <path d="M11.1793 14.5425C12.1185 14.5425 13.0329 14.2771 13.6199 13.6177C13.8802 13.3299 14.0871 12.9628 14.0871 12.5837C14.0871 12.0697 13.6885 11.7947 13.1913 11.7947C12.7612 11.7947 12.5447 12.0152 12.35 12.3224C12.0909 12.769 11.723 13.0058 11.204 13.0058C10.1731 13.0058 9.84708 12.1578 9.84708 11.1297C9.84708 10.0919 10.1875 9.27077 11.2017 9.27077C11.7161 9.27077 12.1001 9.51042 12.3403 9.95418C12.5498 10.2855 12.7779 10.4647 13.1764 10.4647C13.6708 10.4647 14.0773 10.1896 14.0773 9.67571C14.0773 9.3643 13.8733 8.96906 13.593 8.65887C13.0208 8.04715 12.1133 7.73411 11.1696 7.73411C8.99832 7.73411 7.8339 9.12774 7.8339 11.1297C7.8339 13.3028 9.16027 14.5425 11.1793 14.5425ZM11.1776 15.5083C11.3258 15.5083 11.4499 15.3842 11.4499 15.2411L11.4499 7.0257C11.4499 6.87746 11.3258 6.76082 11.1776 6.76082C11.0368 6.76082 10.9127 6.87746 10.9127 7.0257L10.9127 15.2411C10.9127 15.3842 11.0368 15.5083 11.1776 15.5083Z"
                     fill="currentColor" fill-opacity="0.85" />
       </g>
</svg>