<?xml version="1.0" encoding="UTF-8"?>
<!--Generator: Apple Native CoreSVG 326-->
<!DOCTYPE svg PUBLIC "-//W3C//DTD SVG 1.1//EN" "http://www.w3.org/Graphics/SVG/1.1/DTD/svg11.dtd">
<svg version="1.1" xmlns="http://www.w3.org/2000/svg" xmlns:xlink="http://www.w3.org/1999/xlink"
       viewBox="0 0 19.3993 19.0529">
       <g>
              <rect height="19.0529" opacity="0" width="19.3993" x="0" y="0" />
              <path d="M19.0379 3.63912L19.0379 15.4011C19.0379 17.7262 17.7164 19.0379 15.3896 19.0379L3.64834 19.0379C1.32382 19.0379 0 17.7262 0 15.4011L0 3.63912C0 1.32151 1.32382 0 3.64834 0L15.3896 0C17.7164 0 19.0379 1.32151 19.0379 3.63912ZM9.34443 5.10287L9.34443 5.8578C7.19745 5.97905 6.05839 7.42491 6.05839 9.47787C6.05839 11.6825 7.35249 12.9916 9.34443 13.1129L9.34443 13.8603C9.34443 14.0109 9.4783 14.1448 9.63631 14.1448C9.78686 14.1448 9.92072 14.0109 9.92072 13.8603L9.92072 13.1152C10.8242 13.0543 11.6835 12.7688 12.244 12.1284C12.5215 11.8211 12.7381 11.4292 12.7381 11.0329C12.7381 10.4794 12.3149 10.1796 11.7706 10.1796C11.3233 10.1796 11.0769 10.4248 10.88 10.7395C10.6524 11.1476 10.3306 11.3793 9.92072 11.4499L9.92072 7.53051C10.338 7.60118 10.6519 7.82821 10.8628 8.23345C11.0798 8.57974 11.3325 8.78361 11.7632 8.78361C12.2972 8.78361 12.7284 8.48384 12.7284 7.9303C12.7284 7.5942 12.5146 7.17197 12.2096 6.84455C11.6639 6.25413 10.819 5.92616 9.92072 5.86526L9.92072 5.10287C9.92072 4.94717 9.78686 4.8133 9.63631 4.8133C9.4783 4.8133 9.34443 4.94717 9.34443 5.10287ZM9.34443 11.4476C8.50313 11.2821 8.22254 10.4605 8.22254 9.47787C8.22254 8.48318 8.51005 7.68622 9.34443 7.52536Z"
                     fill="currentColor" fill-opacity="0.85" />
       </g>
</svg>