<?xml version="1.0" encoding="UTF-8"?>
<!--Generator: Apple Native CoreSVG 326-->
<!DOCTYPE svg PUBLIC "-//W3C//DTD SVG 1.1//EN" "http://www.w3.org/Graphics/SVG/1.1/DTD/svg11.dtd">
<svg version="1.1" xmlns="http://www.w3.org/2000/svg" xmlns:xlink="http://www.w3.org/1999/xlink"
       viewBox="0 0 21.365 21.006">
       <g>
              <rect height="21.006" opacity="0" width="21.365" x="0" y="0" />
              <path d="M10.4981 20.9962C16.302 20.9962 21.0037 16.2946 21.0037 10.4981C21.0037 4.70163 16.302 0 10.4981 0C4.70163 0 0 4.70163 0 10.4981C0 16.2946 4.70163 20.9962 10.4981 20.9962ZM10.4981 17.9484C6.37829 17.9484 3.04785 14.6179 3.04785 10.4981C3.04785 6.37829 6.37829 3.04785 10.4981 3.04785C14.6179 3.04785 17.9558 6.37829 17.9558 10.4981C17.9558 14.6179 14.6179 17.9484 10.4981 17.9484Z"
                     fill="currentColor" fill-opacity="0.85" />
              <path d="M10.5033 13.8672C11.4424 13.8672 12.3569 13.6018 12.9439 12.9425C13.2116 12.6547 13.411 12.2875 13.411 11.9084C13.411 11.3945 13.0125 11.1194 12.5152 11.1194C12.0851 11.1194 11.8709 11.34 11.6814 11.6472C11.4148 12.0938 11.047 12.3306 10.528 12.3306C9.49935 12.3306 9.17102 11.4825 9.17102 10.4544C9.17102 9.41661 9.51142 8.59551 10.5256 8.59551C11.0424 8.59551 11.424 8.83516 11.6642 9.27892C11.8738 9.61029 12.1018 9.78947 12.5003 9.78947C12.9947 9.78947 13.4012 9.51439 13.4012 9.00045C13.4012 8.68904 13.1972 8.29381 12.9169 7.98361C12.3448 7.3719 11.4372 7.05885 10.4935 7.05885C8.32225 7.05885 7.15784 8.45248 7.15784 10.4544C7.15784 12.6276 8.48421 13.8672 10.5033 13.8672ZM10.5015 14.8331C10.6497 14.8331 10.7739 14.709 10.7739 14.5659L10.7739 6.35045C10.7739 6.2022 10.6497 6.08556 10.5015 6.08556C10.3607 6.08556 10.2366 6.2022 10.2366 6.35045L10.2366 14.5659C10.2366 14.709 10.3607 14.8331 10.5015 14.8331Z"
                     fill="currentColor" fill-opacity="0.85" />
       </g>
</svg>