<?xml version="1.0" encoding="UTF-8"?>
<!--Generator: Apple Native CoreSVG 326-->
<!DOCTYPE svg PUBLIC "-//W3C//DTD SVG 1.1//EN" "http://www.w3.org/Graphics/SVG/1.1/DTD/svg11.dtd">
<svg version="1.1" xmlns="http://www.w3.org/2000/svg" xmlns:xlink="http://www.w3.org/1999/xlink"
       viewBox="0 0 16.1611 22.5796">
       <g>
              <rect height="22.5796" opacity="0" width="16.1611" x="0" y="0" />
              <path d="M3.09971 8.04439L12.7075 8.04439C14.0389 8.04439 14.6679 7.42752 14.6679 6.12541L14.6679 1.91152C14.6679 0.616872 14.0389 0 12.7075 0L3.09971 0C1.76831 0 1.1319 0.616872 1.1319 1.91152L1.1319 6.12541C1.1319 7.42752 1.76831 8.04439 3.09971 8.04439ZM3.90025 5.61293C3.68868 5.61293 3.5559 5.48476 3.5559 5.26804L3.5559 2.76658C3.5559 2.56193 3.68868 2.43146 3.90025 2.43146L11.8771 2.43146C12.0887 2.43146 12.2215 2.56193 12.2215 2.76658L12.2215 5.26804C12.2215 5.48476 12.0887 5.61293 11.8771 5.61293ZM3.43229 11.2906L5.87199 11.2906L5.87199 6.49117L3.43229 6.49117ZM9.92776 11.2906L12.3675 11.2906L12.3675 6.49117L9.92776 6.49117ZM1.94706 15.5585L13.8602 15.5585C15.1731 15.5585 15.7998 14.9537 15.7998 13.6626L15.7998 11.7604C15.7998 10.4842 15.1731 9.87195 13.8602 9.87195L1.94706 9.87195C0.634099 9.87195 0 10.4842 0 11.7604L0 13.6626C0 14.9537 0.634099 15.5585 1.94706 15.5585ZM3.0752 13.1271C2.89821 13.1271 2.78211 13.0081 2.78211 12.8432L2.78211 12.5873C2.78211 12.4224 2.89821 12.3034 3.0752 12.3034L12.7246 12.3034C12.8941 12.3034 13.0176 12.4224 13.0176 12.5873L13.0176 12.8432C13.0176 13.0081 12.8941 13.1271 12.7246 13.1271ZM2.56939 22.575L2.75276 22.575C3.44763 22.575 3.93634 22.0863 3.93634 21.3915L3.93634 14.2599L1.39327 14.2599L1.39327 21.3915C1.39327 22.0863 1.87452 22.575 2.56939 22.575ZM2.9958 18.5352L12.804 18.5352L12.804 16.419L2.9958 16.419ZM13.0395 22.575L13.2229 22.575C13.9178 22.575 14.4065 22.0863 14.4065 21.3915L14.4065 14.2599L11.8634 14.2599L11.8634 21.3915C11.8634 22.0863 12.3372 22.575 13.0395 22.575Z"
                     fill="currentColor" fill-opacity="0.85" />
       </g>
</svg>