<?xml version="1.0" encoding="UTF-8"?>
<!--Generator: Apple Native CoreSVG 326-->
<!DOCTYPE svg PUBLIC "-//W3C//DTD SVG 1.1//EN" "http://www.w3.org/Graphics/SVG/1.1/DTD/svg11.dtd">
<svg version="1.1" xmlns="http://www.w3.org/2000/svg" xmlns:xlink="http://www.w3.org/1999/xlink"
       viewBox="0 0 18.1748 21.7932">
       <g>
              <rect height="21.7932" opacity="0" width="18.1748" x="0" y="0" />
              <path d="M3.63221 21.7932L16.5174 21.7932C17.2829 21.7932 17.8135 21.2649 17.8135 20.4971C17.8135 19.7674 17.318 19.3975 16.7667 19.0439C15.6706 18.384 15.4763 16.5311 16.7395 15.5118C17.5806 14.8796 17.7836 14.3862 17.7836 13.3648L17.7836 3.66326C17.7836 1.33358 16.4719 0.00746071 14.1445 0.00746071L3.63912 0.00746071C1.31921 0.00746071 0 1.33128 0 3.66326L0 18.1489C0 20.474 1.32151 21.7932 3.63221 21.7932ZM4.39156 19.2063C3.19633 19.2063 2.6093 18.4476 2.6093 17.5348C2.6093 16.641 3.22684 15.8731 4.41977 15.8731L13.3724 15.8731C13.4397 15.8731 13.5121 15.8708 13.5725 15.8662C13.0463 16.9415 13.0498 18.1948 13.5525 19.2063ZM3.73302 14.0232C3.34822 14.0232 3.03462 13.7096 3.03462 13.3225L3.03462 2.74178C3.03462 2.35467 3.34822 2.04338 3.73302 2.04338C4.11036 2.04338 4.42626 2.35467 4.42626 2.74178L4.42626 13.3225C4.42626 13.7096 4.11036 14.0232 3.73302 14.0232ZM8.0191 11.765C7.28528 11.765 6.86724 11.3492 6.86724 10.6522C6.86724 10.473 6.90915 10.2192 7.02228 9.85976L8.5684 5.31681C8.90085 4.27073 9.50662 3.79015 10.4678 3.79015C11.4462 3.79015 12.0841 4.27819 12.4165 5.31681L13.9627 9.85976C14.0706 10.2192 14.12 10.473 14.12 10.6545C14.12 11.3492 13.6922 11.765 12.9584 11.765C12.3475 11.765 11.9587 11.4245 11.7996 10.701L11.5826 9.98933L9.4023 9.98933L9.18533 10.701C9.02623 11.4245 8.63749 11.765 8.0191 11.765ZM9.77624 8.34524L11.2087 8.34524L10.5338 5.80655L10.4436 5.80655Z"
                     fill="currentColor" fill-opacity="0.85" />
       </g>
</svg>