<?xml version="1.0" encoding="UTF-8"?>
<!--Generator: Apple Native CoreSVG 326-->
<!DOCTYPE svg PUBLIC "-//W3C//DTD SVG 1.1//EN" "http://www.w3.org/Graphics/SVG/1.1/DTD/svg11.dtd">
<svg version="1.1" xmlns="http://www.w3.org/2000/svg" xmlns:xlink="http://www.w3.org/1999/xlink"
       viewBox="0 0 22.9242 20.0881">
       <g>
              <rect height="20.0881" opacity="0" width="22.9242" x="0" y="0" />
              <path d="M22.4629 6.91807C22.4629 8.16607 21.4429 9.19352 20.1949 9.19352C19.7993 9.19352 19.427 9.09149 19.103 8.91233L15.1422 11.3065C15.148 11.3538 15.1495 11.4022 15.1495 11.451C15.1495 12.7064 14.1318 13.7264 12.8764 13.7264C11.6284 13.7264 10.6009 12.7064 10.6009 11.451C10.6009 11.3086 10.6143 11.1691 10.6414 11.0343L8.83177 9.54293C8.51938 9.70719 8.1644 9.79923 7.78951 9.79923C7.2862 9.79923 6.82074 9.6353 6.44524 9.35599L3.01964 11.3344L3.01964 8.83046L5.52123 7.38277C5.59216 6.19911 6.58191 5.25063 7.78951 5.25063C9.03751 5.25063 10.065 6.27578 10.065 7.52378C10.065 7.60932 10.0602 7.69377 10.05 7.77659L11.9768 9.36599C12.253 9.24474 12.5575 9.17781 12.8764 9.17781C13.2816 9.17781 13.662 9.28459 13.9906 9.47239L17.928 7.08624C17.9215 7.03107 17.9194 6.9748 17.9194 6.91807C17.9194 5.66261 18.9394 4.64261 20.1949 4.64261C21.4429 4.64261 22.4629 5.66261 22.4629 6.91807Z"
                     fill="currentColor" fill-opacity="0.85" />
              <path d="M0 18.9191C0 19.5296 0.409489 19.9367 1.02745 19.9367L21.0183 19.9367C21.8882 19.9367 22.5628 19.3264 22.5628 18.4318C22.5628 17.5395 21.8882 16.9194 21.0183 16.9194L3.27816 16.9194C3.11039 16.9194 3.01964 16.8287 3.01964 16.6609L3.01964 1.5497C3.01964 0.674678 2.40696 0 1.5147 0C0.612687 0 0 0.674678 0 1.5497Z"
                     fill="currentColor" fill-opacity="0.85" />
       </g>
</svg>