<?xml version="1.0" encoding="UTF-8"?>
<!--Generator: Apple Native CoreSVG 326-->
<!DOCTYPE svg PUBLIC "-//W3C//DTD SVG 1.1//EN" "http://www.w3.org/Graphics/SVG/1.1/DTD/svg11.dtd">
<svg version="1.1" xmlns="http://www.w3.org/2000/svg" xmlns:xlink="http://www.w3.org/1999/xlink"
       viewBox="0 0 23.0808 20.0881">
       <g>
              <rect height="20.0881" opacity="0" width="23.0808" x="0" y="0" />
              <path d="M22.5066 3.24819L20.9569 9.06784C20.7255 9.94638 19.7666 10.3104 19.1315 9.68283L17.8359 8.37739L13.747 12.5007C13.1957 13.052 12.6564 13.3019 12.0757 13.3019C11.4899 13.3019 10.9311 13.0595 10.3992 12.4932L7.25313 9.13238C7.18016 9.04449 7.08481 9.01058 7.0193 9.01058C6.94633 9.01058 6.85844 9.05941 6.78547 9.13238L3.01964 13.1038L3.01964 9.25143L5.35775 6.86366C5.92634 6.28015 6.44841 6.06245 7.02676 6.06245C7.61258 6.06245 8.1691 6.28991 8.70324 6.86366L11.8493 10.2245C11.9223 10.3124 12.02 10.3537 12.0832 10.3537C12.1487 10.3537 12.2463 10.3124 12.3193 10.2319L15.9357 6.47722L14.7049 5.23147C14.0623 4.58893 14.4338 3.64731 15.3198 3.4136L21.1372 1.88106C21.9571 1.66689 22.7283 2.41848 22.5066 3.24819Z"
                     fill="currentColor" fill-opacity="0.85" />
              <path d="M0 18.9191C0 19.5296 0.409489 19.9367 1.02745 19.9367L21.0183 19.9367C21.8956 19.9367 22.5628 19.3264 22.5628 18.4318C22.5628 17.5395 21.8956 16.9194 21.0183 16.9194L3.27816 16.9194C3.11039 16.9194 3.01964 16.8287 3.01964 16.6609L3.01964 1.5497C3.01964 0.674678 2.40696 0 1.5147 0C0.620148 0 0 0.674678 0 1.5497Z"
                     fill="currentColor" fill-opacity="0.85" />
       </g>
</svg>