<?xml version="1.0" encoding="UTF-8"?>
<!--Generator: Apple Native CoreSVG 326-->
<!DOCTYPE svg PUBLIC "-//W3C//DTD SVG 1.1//EN" "http://www.w3.org/Graphics/SVG/1.1/DTD/svg11.dtd">
<svg version="1.1" xmlns="http://www.w3.org/2000/svg" xmlns:xlink="http://www.w3.org/1999/xlink"
       viewBox="0 0 22.2858 14.3607">
       <g>
              <rect height="14.3607" opacity="0" width="22.2858" x="0" y="0" />
              <path d="M5.30662 14.2488C7.66001 14.2488 9.37076 13.3198 10.2509 11.8276L10.3485 11.8276C11.2085 13.3743 13.1212 14.3607 15.4683 14.3607C18.1966 14.3607 20.3884 13.3801 21.2867 11.7382C21.4693 11.416 21.5652 11.0841 21.5652 10.7637C21.5652 9.8301 20.84 9.27886 19.9787 9.27886C19.447 9.27886 19.0979 9.4282 18.661 9.856C17.6828 10.9238 16.7933 11.3686 15.5044 11.3686C13.7942 11.3686 12.6345 10.1365 12.6345 8.38352L12.6345 8.11481L20.1932 8.11481C21.3026 8.11481 21.9245 7.51298 21.9245 6.42651C21.9245 2.74675 19.2464 0.00230491 15.567 0.00230491C13.5 0.00230491 11.9725 0.753954 11.0753 1.91776L10.9823 1.91776C10.238 0.806179 8.66047 0.00230491 6.48844 0.00230491C3.68522 0.00230491 1.42633 1.08562 0.849488 2.79097C0.745463 3.05409 0.704642 3.28968 0.704642 3.58835C0.704642 4.50189 1.43209 5.13005 2.43055 5.13005C3.09031 5.13005 3.63288 4.89404 4.10994 4.40763C4.93814 3.39274 5.54233 3.06617 6.56996 3.06617C7.85502 3.06617 8.79113 3.88915 8.79113 5.02542L8.79113 5.74898L5.50248 5.9466C1.90866 6.17 0 7.59796 0 10.1114C0 12.5533 2.01093 14.2488 5.30662 14.2488ZM6.00683 11.4031C4.8494 11.4031 3.97201 10.7566 3.97201 9.84339C3.97201 8.96751 4.76502 8.42216 6.03352 8.33481L8.79113 8.14466L8.79113 9.11333C8.79113 10.3531 7.53494 11.4031 6.00683 11.4031ZM12.6868 5.69676C12.8034 4.13978 13.8867 3.0541 15.3556 3.0541C16.855 3.0541 17.8566 4.09325 17.933 5.69676Z"
                     fill="currentColor" fill-opacity="0.85" />
       </g>
</svg>