<?xml version="1.0" encoding="UTF-8"?>
<!--Generator: Apple Native CoreSVG 326-->
<!DOCTYPE svg PUBLIC "-//W3C//DTD SVG 1.1//EN" "http://www.w3.org/Graphics/SVG/1.1/DTD/svg11.dtd">
<svg version="1.1" xmlns="http://www.w3.org/2000/svg" xmlns:xlink="http://www.w3.org/1999/xlink"
       viewBox="0 0 18.145 21.7932">
       <g>
              <rect height="21.7932" opacity="0" width="18.145" x="0" y="0" />
              <path d="M0 18.1397C0 20.4717 1.31921 21.7932 3.63912 21.7932L14.1445 21.7932C16.4719 21.7932 17.7836 20.4717 17.7836 18.1397L17.7836 3.66096C17.7836 1.33128 16.4719 0.0051558 14.1445 0.0051558L3.63912 0.0051558C1.31921 0.0051558 0 1.33128 0 3.66096ZM3.01964 17.7299L3.01964 4.07075C3.01964 3.3777 3.32832 3.0248 4.0679 3.0248L13.7232 3.0248C14.4553 3.0248 14.764 3.3777 14.764 4.07075L14.764 17.7299C14.764 18.4229 14.4553 18.7735 13.7232 18.7735L4.0679 18.7735C3.32832 18.7735 3.01964 18.4229 3.01964 17.7299Z"
                     fill="currentColor" fill-opacity="0.85" />
              <path d="M4.96883 14.6296C4.50129 14.6296 4.19231 14.9432 4.19231 15.4055L4.19231 16.6261C4.19231 17.0959 4.50129 17.402 4.96883 17.402L8.96509 17.402C9.42802 17.402 9.74676 17.0959 9.74676 16.6261L9.74676 15.4055C9.74676 14.9432 9.42802 14.6296 8.96509 14.6296Z"
                     fill="currentColor" fill-opacity="0.85" />
              <path d="M4.96883 11.1819C4.50129 11.1819 4.19231 11.4708 4.19231 11.9458L4.19231 13.1784C4.19231 13.6408 4.50129 13.9521 4.96883 13.9521L11.2603 13.9521C11.7255 13.9521 12.0345 13.6408 12.0345 13.1784L12.0345 11.9458C12.0345 11.4708 11.7255 11.1819 11.2603 11.1819Z"
                     fill="currentColor" fill-opacity="0.85" />
              <path d="M4.96883 7.73201C4.50129 7.73201 4.19231 8.03814 4.19231 8.50568L4.19231 9.7285C4.19231 10.196 4.50129 10.5022 4.96883 10.5022L12.8194 10.5022C13.2921 10.5022 13.5936 10.196 13.5936 9.7262L13.5936 8.50568C13.5936 8.03814 13.2921 7.73201 12.8194 7.73201Z"
                     fill="currentColor" fill-opacity="0.85" />
              <path d="M4.96883 4.28208C4.50129 4.28208 4.19231 4.58821 4.19231 5.05805L4.19231 6.27857C4.19231 6.74095 4.50129 7.05454 4.96883 7.05454L10.1046 7.05454C10.5773 7.05454 10.8863 6.74095 10.8863 6.27857L10.8863 5.05805C10.8863 4.58821 10.5773 4.28208 10.1046 4.28208Z"
                     fill="currentColor" fill-opacity="0.85" />
       </g>
</svg>