<?xml version="1.0" encoding="UTF-8"?>
<!--Generator: Apple Native CoreSVG 326-->
<!DOCTYPE svg PUBLIC "-//W3C//DTD SVG 1.1//EN" "http://www.w3.org/Graphics/SVG/1.1/DTD/svg11.dtd">
<svg version="1.1" xmlns="http://www.w3.org/2000/svg" xmlns:xlink="http://www.w3.org/1999/xlink"
       viewBox="0 0 22.9242 20.0881">
       <g>
              <rect height="20.0881" opacity="0" width="22.9242" x="0" y="0" />
              <path d="M16.4417 4.81906L21.6546 7.83149C22.3982 8.2696 22.3954 9.33928 21.6569 9.76993L16.4589 12.8047C15.659 13.2624 14.7277 12.8651 14.7277 11.9567L14.7277 10.1617L3.01964 10.1617L3.01964 7.46215L14.7277 7.46215L14.7277 5.67456C14.7277 4.77594 15.6567 4.36372 16.4417 4.81906Z"
                     fill="currentColor" fill-opacity="0.85" />
              <path d="M0 18.9191C0 19.5296 0.409489 19.9367 1.02745 19.9367L21.0183 19.9367C21.8882 19.9367 22.5628 19.3264 22.5628 18.4318C22.5628 17.5395 21.8882 16.9194 21.0183 16.9194L3.27816 16.9194C3.11039 16.9194 3.01964 16.8287 3.01964 16.6609L3.01964 1.5497C3.01964 0.674678 2.40696 0 1.5147 0C0.612687 0 0 0.674678 0 1.5497Z"
                     fill="currentColor" fill-opacity="0.85" />
       </g>
</svg>