<?xml version="1.0" encoding="UTF-8"?>
<!--Generator: Apple Native CoreSVG 326-->
<!DOCTYPE svg PUBLIC "-//W3C//DTD SVG 1.1//EN" "http://www.w3.org/Graphics/SVG/1.1/DTD/svg11.dtd">
<svg version="1.1" xmlns="http://www.w3.org/2000/svg" xmlns:xlink="http://www.w3.org/1999/xlink"
       viewBox="0 0 23.3769 22.7958">
       <g>
              <rect height="22.7958" opacity="0" width="23.3769" x="0" y="0" />
              <path d="M23.0156 5.99015L23.0156 13.866C23.0156 16.884 21.095 18.8213 18.0654 18.8213L12.113 18.8213L8.38613 22.0888C7.80777 22.6005 7.4052 22.7958 6.92735 22.7958C6.23642 22.7958 5.80454 22.3208 5.80454 21.5587L5.80454 18.8213L4.68902 18.8213C2.09221 18.8213 0 16.8863 0 13.866L0 5.99015C0 2.96984 1.92061 1.03255 4.95014 1.03255L18.0654 1.03255C21.095 1.03255 23.0156 2.97215 23.0156 5.99015ZM9.25071 7.02913L7.44311 12.3513C7.31045 12.7699 7.26108 13.073 7.26108 13.289C7.26108 14.102 7.74802 14.5941 8.61735 14.5941C9.34425 14.5941 9.79214 14.1893 9.98799 13.3378L10.2355 12.5122L12.7899 12.5122L13.0448 13.3378C13.2332 14.1893 13.6886 14.5941 14.4103 14.5941C15.2773 14.5941 15.7717 14.102 15.7717 13.289C15.7717 13.073 15.7224 12.7699 15.5897 12.3513L13.7746 7.02913C13.3928 5.80794 12.6441 5.23838 11.4854 5.23838C10.3566 5.23838 9.64747 5.80048 9.25071 7.02913ZM12.3522 10.5827L10.6732 10.5827L11.4664 7.59875L11.5664 7.59875Z"
                     fill="currentColor" fill-opacity="0.85" />
       </g>
</svg>