<?xml version="1.0" encoding="UTF-8"?>
<!--Generator: Apple Native CoreSVG 326-->
<!DOCTYPE svg PUBLIC "-//W3C//DTD SVG 1.1//EN" "http://www.w3.org/Graphics/SVG/1.1/DTD/svg11.dtd">
<svg version="1.1" xmlns="http://www.w3.org/2000/svg" xmlns:xlink="http://www.w3.org/1999/xlink"
       viewBox="0 0 21.365 21.006">
       <g>
              <rect height="21.006" opacity="0" width="21.365" x="0" y="0" />
              <path d="M10.4981 20.9962C16.302 20.9962 21.0037 16.2946 21.0037 10.4981C21.0037 4.70163 16.302 0 10.4981 0C4.70163 0 0 4.70163 0 10.4981C0 16.2946 4.70163 20.9962 10.4981 20.9962ZM10.4981 17.9484C6.37829 17.9484 3.04785 14.6179 3.04785 10.4981C3.04785 6.37829 6.37829 3.04785 10.4981 3.04785C14.6179 3.04785 17.9558 6.37829 17.9558 10.4981C17.9558 14.6179 14.6179 17.9484 10.4981 17.9484Z"
                     fill="currentColor" fill-opacity="0.85" />
              <path d="M5.55525 13.6873C5.55525 14.303 5.96989 14.7176 6.58555 14.7176L14.5418 14.7176C14.9914 14.7176 15.3498 14.3914 15.3498 13.9194C15.3498 13.4548 14.9914 13.1286 14.5418 13.1286L7.08172 13.1286C7.03981 13.1286 7.14656 13.2354 7.14656 13.1912L7.14656 6.84583C7.14656 6.38872 6.81805 6.03267 6.35348 6.03267C5.88146 6.03267 5.55525 6.38872 5.55525 6.84583ZM6.79973 7.08542L5.77689 8.1031L7.78017 10.1552C8.04209 10.4269 8.3063 10.5343 8.59927 10.5343C8.88994 10.5343 9.16392 10.4269 9.41837 10.1552L10.6694 8.81806C10.7108 8.77439 10.7498 8.77439 10.7912 8.82036L12.1163 10.1948L11.6967 10.5972C11.3332 10.9487 11.5468 11.4937 12.0326 11.6263L14.4675 12.2749C14.9315 12.3926 15.3639 11.97 15.241 11.5083L14.5878 9.06135C14.4529 8.58065 13.8999 8.36417 13.5588 8.72537L13.134 9.17714L11.5494 7.56327C11.2949 7.29905 11.0112 7.18186 10.7205 7.18186C10.4322 7.18186 10.1456 7.30651 9.90143 7.57073L8.65501 8.89867C8.61365 8.94465 8.57228 8.94465 8.52861 8.89867Z"
                     fill="currentColor" fill-opacity="0.85" />
       </g>
</svg>