<?xml version="1.0" encoding="UTF-8"?>
<!--Generator: Apple Native CoreSVG 326-->
<!DOCTYPE svg PUBLIC "-//W3C//DTD SVG 1.1//EN" "http://www.w3.org/Graphics/SVG/1.1/DTD/svg11.dtd">
<svg version="1.1" xmlns="http://www.w3.org/2000/svg" xmlns:xlink="http://www.w3.org/1999/xlink"
       viewBox="0 0 28.0731 18.8016">
       <g>
              <rect height="18.8016" opacity="0" width="28.0731" x="0" y="0" />
              <path d="M22.4697 18.8016L24.8277 18.8016C26.638 18.8016 27.7118 17.702 27.7118 15.9676L27.7118 2.86145C27.7118 1.12705 26.638 0.025112 24.8277 0.025112L22.4697 0.025112C20.6641 0.025112 19.5902 1.12705 19.5902 2.86891L19.5902 15.9676C19.5902 17.702 20.6641 18.8016 22.4697 18.8016Z"
                     fill="currentColor" fill-opacity="0.85" />
              <path d="M12.6757 18.8016L15.0338 18.8016C16.8515 18.8016 17.923 17.702 17.923 15.9676L17.923 5.69809C17.923 3.96369 16.8515 2.86175 15.0338 2.86175L12.6757 2.86175C10.8678 2.86175 9.79395 3.96369 9.79395 5.71301L9.79395 15.9676C9.79395 17.702 10.8678 18.8016 12.6757 18.8016Z"
                     fill="currentColor" fill-opacity="0.85" />
              <path d="M2.88177 18.8016L5.23753 18.8016C7.05521 18.8016 8.12907 17.702 8.12907 15.9676L8.12907 8.58465C8.12907 6.85025 7.05521 5.74831 5.23753 5.74831L2.88177 5.74831C1.07386 5.74831 0 6.85025 0 8.59958L0 15.9676C0 17.702 1.07386 18.8016 2.88177 18.8016Z"
                     fill="currentColor" fill-opacity="0.85" />
       </g>
</svg>