<?xml version="1.0" encoding="UTF-8"?>
<!--Generator: Apple Native CoreSVG 326-->
<!DOCTYPE svg PUBLIC "-//W3C//DTD SVG 1.1//EN" "http://www.w3.org/Graphics/SVG/1.1/DTD/svg11.dtd">
<svg version="1.1" xmlns="http://www.w3.org/2000/svg" xmlns:xlink="http://www.w3.org/1999/xlink"
       viewBox="0 0 21.365 21.006">
       <g>
              <rect height="21.006" opacity="0" width="21.365" x="0" y="0" />
              <path d="M21.0037 10.5079C21.0037 16.3043 16.302 21.006 10.4981 21.006C4.70394 21.006 0 16.3043 0 10.5079C0 4.7137 4.70394 0.00976562 10.4981 0.00976562C16.302 0.00976562 21.0037 4.7137 21.0037 10.5079ZM5.14072 6.52204L5.14072 14.0083C5.14072 14.6607 5.5749 15.0926 6.21755 15.0926L14.9293 15.0926C15.3962 15.0926 15.7546 14.7342 15.7546 14.2748C15.7546 13.8056 15.3962 13.4473 14.9293 13.4473L6.89059 13.4473C6.81993 13.4473 6.78602 13.4059 6.78602 13.3352L6.78602 10.4458L12.1657 10.4458L12.1657 11.1429C12.1657 11.6437 12.6808 11.9141 13.1471 11.6442L15.5318 10.243C15.9442 10.0098 15.9516 9.38331 15.5341 9.14269L13.1448 7.7587C12.6837 7.49624 12.1657 7.7644 12.1657 8.25772L12.1657 8.9646L6.78602 8.9646L6.78602 6.52204C6.78602 6.05517 6.43743 5.67959 5.97572 5.67959C5.50138 5.67959 5.14072 6.04025 5.14072 6.52204Z"
                     fill="currentColor" fill-opacity="0.85" />
       </g>
</svg>