<?xml version="1.0" encoding="UTF-8"?>
<!--Generator: Apple Native CoreSVG 326-->
<!DOCTYPE svg PUBLIC "-//W3C//DTD SVG 1.1//EN" "http://www.w3.org/Graphics/SVG/1.1/DTD/svg11.dtd">
<svg version="1.1" xmlns="http://www.w3.org/2000/svg" xmlns:xlink="http://www.w3.org/1999/xlink"
       viewBox="0 0 21.365 21.006">
       <g>
              <rect height="21.006" opacity="0" width="21.365" x="0" y="0" />
              <path d="M10.5033 10.8901C13.4615 10.8901 15.8809 8.47529 15.8809 5.51194C15.8809 2.55144 13.4615 0.136598 10.5033 0.136598C7.5353 0.136598 5.12046 2.55144 5.12046 5.51194C5.12046 8.47529 7.53991 10.8901 10.5033 10.8901ZM10.5033 7.97142C9.11606 7.97142 8.03918 6.9043 8.03918 5.51194C8.03918 4.12474 9.11606 3.05531 10.5033 3.05531C11.8905 3.05531 12.9697 4.12474 12.9697 5.51194C12.9697 6.9043 11.8905 7.97142 10.5033 7.97142ZM10.4981 20.9962C16.302 20.9962 21.0037 16.2946 21.0037 10.4981C21.0037 4.70163 16.302 0 10.4981 0C4.70163 0 0 4.70163 0 10.4981C0 16.2946 4.70163 20.9962 10.4981 20.9962ZM10.4981 17.9484C6.37829 17.9484 3.04785 14.6179 3.04785 10.4981C3.04785 6.37829 6.37829 3.04785 10.4981 3.04785C14.6179 3.04785 17.9558 6.37829 17.9558 10.4981C17.9558 14.6179 14.6179 17.9484 10.4981 17.9484Z"
                     fill="currentColor" fill-opacity="0.85" />
       </g>
</svg>