<?xml version="1.0" encoding="UTF-8"?>
<!--Generator: Apple Native CoreSVG 326-->
<!DOCTYPE svg PUBLIC "-//W3C//DTD SVG 1.1//EN" "http://www.w3.org/Graphics/SVG/1.1/DTD/svg11.dtd">
<svg version="1.1" xmlns="http://www.w3.org/2000/svg" xmlns:xlink="http://www.w3.org/1999/xlink"
       viewBox="0 0 18.145 21.7932">
       <g>
              <rect height="21.7932" opacity="0" width="18.145" x="0" y="0" />
              <path d="M17.7836 3.66096L17.7836 18.1397C17.7836 20.4717 16.4719 21.7932 14.1445 21.7932L3.63912 21.7932C1.31921 21.7932 0 20.4717 0 18.1397L0 3.66096C0 1.33128 1.31921 0.0051558 3.63912 0.0051558L14.1445 0.0051558C16.4719 0.0051558 17.7836 1.33128 17.7836 3.66096ZM4.71516 14.893C4.21032 14.893 3.87896 15.2215 3.87896 15.7212L3.87896 17.0238C3.87896 17.5212 4.21032 17.852 4.71516 17.852L8.97255 17.852C9.47278 17.852 9.82137 17.5212 9.82137 17.0238L9.82137 15.7212C9.82137 15.2215 9.47278 14.893 8.97255 14.893ZM4.71516 11.2066C4.21032 11.2066 3.87896 11.5254 3.87896 12.0302L3.87896 13.3351C3.87896 13.8348 4.21032 14.1685 4.71516 14.1685L11.4095 14.1685C11.9121 14.1685 12.236 13.8348 12.236 13.3351L12.236 12.0302C12.236 11.5254 11.9121 11.2066 11.4095 11.2066ZM4.71516 7.53057C4.21032 7.53057 3.87896 7.86655 3.87896 8.36623L3.87896 9.66136C3.87896 10.1685 4.21032 10.497 4.71516 10.497L13.0731 10.497C13.5756 10.497 13.907 10.1685 13.907 9.66136L13.907 8.36623C13.907 7.86655 13.5756 7.53057 13.0731 7.53057ZM4.71516 3.85166C4.21032 3.85166 3.87896 4.18017 3.87896 4.67986L3.87896 5.98245C3.87896 6.47983 4.21032 6.81065 4.71516 6.81065L10.1867 6.81065C10.6892 6.81065 11.0281 6.47983 11.0281 5.98245L11.0281 4.67986C11.0281 4.18017 10.6892 3.85166 10.1867 3.85166Z"
                     fill="currentColor" fill-opacity="0.85" />
       </g>
</svg>