<?xml version="1.0" encoding="UTF-8"?>
<!--Generator: Apple Native CoreSVG 326-->
<!DOCTYPE svg PUBLIC "-//W3C//DTD SVG 1.1//EN" "http://www.w3.org/Graphics/SVG/1.1/DTD/svg11.dtd">
<svg version="1.1" xmlns="http://www.w3.org/2000/svg" xmlns:xlink="http://www.w3.org/1999/xlink"
       viewBox="0 0 25.003 20.0397">
       <g>
              <rect height="20.0397" opacity="0" width="25.003" x="0" y="0" />
              <path d="M4.98047 10.015C4.98047 10.6348 5.03876 11.2426 5.15756 11.8309C3.98195 12.0419 3.37321 12.6247 3.37321 13.4795C3.37321 14.4811 4.23228 15.1408 5.58139 15.1408C5.8647 15.1408 6.13066 15.1135 6.38209 15.0563C6.79145 15.7664 7.29354 16.4169 7.86813 16.9962C7.04962 17.5035 6.08796 17.7805 5.11616 17.7805C2.30335 17.7805 0.380859 16.0407 0.380859 13.4841C0.380859 11.1405 2.09931 9.75854 5.01584 9.32953ZM7.35776 3.58907C6.67592 4.38909 6.11976 5.2979 5.72248 6.28436C4.77261 6.42804 4.12048 6.9202 3.6111 7.87959C3.34294 8.36599 2.91974 8.61692 2.36674 8.61692C1.57718 8.61692 1.00641 8.04099 1.00641 7.24452C1.00641 6.90339 1.12414 6.51112 1.31539 6.15101C2.12066 4.57711 4.14596 3.53394 6.42584 3.53394C6.7474 3.53394 7.0595 3.55166 7.35776 3.58907Z"
                     fill="currentColor" fill-opacity="0.85" />
              <path d="M14.9955 20.0225C20.4674 20.0225 25.003 15.4869 25.003 10.015C25.003 4.55054 20.4576 0 14.9857 0C9.52124 0 4.98047 4.54308 4.98047 10.015C4.98047 15.4869 9.52355 20.0225 14.9955 20.0225ZM14.9955 17.0057C11.1031 17.0057 8.01449 13.9148 8.01449 10.015C8.01449 6.11516 11.0859 3.01449 14.9857 3.01449C18.878 3.01449 21.9764 6.12262 21.9885 10.015C22.0057 13.9073 18.8953 17.0057 14.9955 17.0057ZM14.8979 19.0765L18.174 19.042L18.174 7.24913C18.174 4.05953 16.0362 1.92219 12.5337 1.54703C12.2871 1.52059 12.0285 1.50621 11.7549 1.48898L8.14592 5.20417C10.2068 4.64274 10.7646 4.56977 11.4494 4.56977C13.5695 4.56977 14.7583 5.64368 14.7583 7.51104L14.7583 8.54371L10.3058 8.78676C8.77608 8.87695 7.43085 9.24398 6.43082 9.82586L7.10725 13.9314C8.18044 12.1624 9.20256 11.7097 10.6613 11.6148L14.7583 11.362L14.7583 12.3869C14.7583 14.8495 12.3518 16.7044 9.43972 16.1107L12.4611 18.8082C13.8374 18.3027 14.9523 17.433 15.4274 16.597L14.8979 16.597Z"
                     fill="currentColor" fill-opacity="0.85" />
       </g>
</svg>