<?xml version="1.0" encoding="UTF-8"?>
<!--Generator: Apple Native CoreSVG 326-->
<!DOCTYPE svg PUBLIC "-//W3C//DTD SVG 1.1//EN" "http://www.w3.org/Graphics/SVG/1.1/DTD/svg11.dtd">
<svg version="1.1" xmlns="http://www.w3.org/2000/svg" xmlns:xlink="http://www.w3.org/1999/xlink"
       viewBox="0 0 16.3498 22.5741">
       <g>
              <rect height="22.5741" opacity="0" width="16.3498" x="0" y="0" />
              <path d="M7.42212 22.5522C11.5749 22.5522 14.8465 19.2806 14.8465 15.1278C14.8465 10.9653 11.5749 7.68846 7.41235 7.68846C3.25214 7.68846 0 10.9653 0 15.1278C0 19.2806 3.26936 22.5522 7.42212 22.5522ZM7.42212 19.7678C4.81919 19.7678 2.77696 17.7405 2.77696 15.1278C2.77696 12.5174 4.81173 10.4729 7.41235 10.4729C10.0176 10.4729 12.0621 12.5174 12.0621 15.1278C12.0621 17.7405 10.0274 19.7678 7.42212 19.7678ZM12.0621 15.1278L14.8465 15.1278L14.8465 3.0339L12.0621 3.0339ZM13.4495 5.08547C14.8749 5.08547 15.9885 3.96212 15.9885 2.54646C15.9885 1.12335 14.8749 0 13.4495 0C12.0263 0 10.903 1.12335 10.903 2.54646C10.903 3.96212 12.0263 5.08547 13.4495 5.08547Z"
                     fill="currentColor" fill-opacity="0.85" />
       </g>
</svg>