<?xml version="1.0" encoding="UTF-8"?>
<!--Generator: Apple Native CoreSVG 326-->
<!DOCTYPE svg PUBLIC "-//W3C//DTD SVG 1.1//EN" "http://www.w3.org/Graphics/SVG/1.1/DTD/svg11.dtd">
<svg version="1.1" xmlns="http://www.w3.org/2000/svg" xmlns:xlink="http://www.w3.org/1999/xlink"
       viewBox="0 0 20.6596 21.0039">
       <g>
              <rect height="21.0039" opacity="0" width="20.6596" x="0" y="0" />
              <path d="M1.46764 21.0039C2.33981 21.0039 2.92781 20.3591 2.92781 19.5041L2.92781 1.50263C2.92781 0.649991 2.33981 0.0051558 1.46764 0.0051558C0.590305 0.0051558 0 0.649991 0 1.50263L0 19.5041C0 20.3591 0.590305 21.0039 1.46764 21.0039Z"
                     fill="currentColor" fill-opacity="0.85" />
              <path d="M5.90299 20.5647L12.9629 20.5647C13.7239 20.5647 14.2275 20.0639 14.2275 19.3208L14.2275 17.576C14.2275 16.8305 13.7239 16.3298 12.9629 16.3298L5.90299 16.3298C5.14491 16.3298 4.64359 16.8305 4.64359 17.576L4.64359 19.3208C4.64359 20.0639 5.14491 20.5647 5.90299 20.5647Z"
                     fill="currentColor" fill-opacity="0.85" />
              <path d="M5.90299 15.268L16.5385 15.268C17.3092 15.268 17.8106 14.7696 17.8106 14.0241L17.8106 12.2719C17.8106 11.519 17.3092 11.0354 16.5385 11.0354L5.90299 11.0354C5.14491 11.0354 4.64359 11.519 4.64359 12.2719L4.64359 14.0241C4.64359 14.7696 5.14491 15.268 5.90299 15.268Z"
                     fill="currentColor" fill-opacity="0.85" />
              <path d="M5.90299 9.97368L19.0285 9.97368C19.7969 9.97368 20.2982 9.48036 20.2982 8.72744L20.2982 6.99013C20.2982 6.23951 19.7969 5.73873 19.0285 5.73873L5.90299 5.73873C5.14491 5.73873 4.64359 6.23951 4.64359 6.99013L4.64359 8.72744C4.64359 9.48036 5.14491 9.97368 5.90299 9.97368Z"
                     fill="currentColor" fill-opacity="0.85" />
              <path d="M5.90299 4.67701L14.7476 4.67701C15.5136 4.67701 16.0173 4.17623 16.0173 3.43307L16.0173 1.686C16.0173 0.942839 15.5136 0.444367 14.7476 0.444367L5.90299 0.444367C5.14491 0.444367 4.64359 0.942839 4.64359 1.686L4.64359 3.43307C4.64359 4.17623 5.14491 4.67701 5.90299 4.67701Z"
                     fill="currentColor" fill-opacity="0.85" />
       </g>
</svg>