<?xml version="1.0" encoding="UTF-8"?>
<!--Generator: Apple Native CoreSVG 326-->
<!DOCTYPE svg PUBLIC "-//W3C//DTD SVG 1.1//EN" "http://www.w3.org/Graphics/SVG/1.1/DTD/svg11.dtd">
<svg version="1.1" xmlns="http://www.w3.org/2000/svg" xmlns:xlink="http://www.w3.org/1999/xlink"
       viewBox="0 0 21.365 21.006">
       <g>
              <rect height="21.006" opacity="0" width="21.365" x="0" y="0" />
              <path d="M21.0037 10.4981C21.0037 16.2923 16.302 20.9962 10.4981 20.9962C4.70394 20.9962 0 16.2923 0 10.4981C0 4.70163 4.70394 0 10.4981 0C16.302 0 21.0037 4.70163 21.0037 10.4981ZM8.23873 7.59772L6.42366 12.9273C6.291 13.3459 6.24163 13.6416 6.24163 13.8575C6.24163 14.678 6.73604 15.1627 7.60536 15.1627C8.3248 15.1627 8.78245 14.7654 8.96855 13.9064L9.22348 13.0808L11.7802 13.0808L12.0277 13.9064C12.2212 14.7631 12.6766 15.1627 13.3983 15.1627C14.2653 15.1627 14.7546 14.678 14.7546 13.8575C14.7546 13.6416 14.7029 13.3459 14.5726 12.9273L12.7626 7.59772C12.3808 6.37653 11.6344 5.80467 10.4734 5.80467C9.34461 5.80467 8.63032 6.36907 8.23873 7.59772ZM11.3402 11.1513L9.66118 11.1513L10.447 8.1748L10.5544 8.1748Z"
                     fill="currentColor" fill-opacity="0.85" />
       </g>
</svg>