<?xml version="1.0" encoding="UTF-8"?>
<!--Generator: Apple Native CoreSVG 326-->
<!DOCTYPE svg PUBLIC "-//W3C//DTD SVG 1.1//EN" "http://www.w3.org/Graphics/SVG/1.1/DTD/svg11.dtd">
<svg version="1.1" xmlns="http://www.w3.org/2000/svg" xmlns:xlink="http://www.w3.org/1999/xlink"
       viewBox="0 0 21.365 21.006">
       <g>
              <rect height="21.006" opacity="0" width="21.365" x="0" y="0" />
              <path d="M10.4981 20.9962C16.302 20.9962 21.0037 16.2946 21.0037 10.4981C21.0037 4.70163 16.302 0 10.4981 0C4.70163 0 0 4.70163 0 10.4981C0 16.2946 4.70163 20.9962 10.4981 20.9962ZM10.4981 17.9484C6.37829 17.9484 3.04785 14.6179 3.04785 10.4981C3.04785 6.37829 6.37829 3.04785 10.4981 3.04785C14.6179 3.04785 17.9558 6.37829 17.9558 10.4981C17.9558 14.6179 14.6179 17.9484 10.4981 17.9484Z"
                     fill="currentColor" fill-opacity="0.85" />
              <path d="M5.55294 13.6873C5.55294 14.303 5.96759 14.7176 6.57809 14.7176L14.5418 14.7176C14.9914 14.7176 15.3475 14.3914 15.3475 13.9194C15.3475 13.4548 14.9914 13.1286 14.5418 13.1286L7.07426 13.1286C7.10695 13.1286 7.14426 13.1682 7.14426 13.1912L7.14426 6.84583C7.14426 6.38872 6.81059 6.03267 6.34602 6.03267C5.88146 6.03267 5.55294 6.38872 5.55294 6.84583ZM11.8287 8.40353L11.8287 11.0568C11.8287 11.5552 12.3341 11.8033 12.7734 11.5581L14.9681 10.3101C15.3856 10.0844 15.408 9.46768 14.9928 9.22937L12.801 7.93897C12.3593 7.67882 11.8287 7.91483 11.8287 8.40353ZM6.24224 10.4658L12.2875 10.4658L12.2875 9.01628L6.24224 9.01628Z"
                     fill="currentColor" fill-opacity="0.85" />
       </g>
</svg>