<?xml version="1.0" encoding="UTF-8"?>
<!--Generator: Apple Native CoreSVG 326-->
<!DOCTYPE svg PUBLIC "-//W3C//DTD SVG 1.1//EN" "http://www.w3.org/Graphics/SVG/1.1/DTD/svg11.dtd">
<svg version="1.1" xmlns="http://www.w3.org/2000/svg" xmlns:xlink="http://www.w3.org/1999/xlink"
       viewBox="0 0 23.3769 22.7958">
       <g>
              <rect height="22.7958" opacity="0" width="23.3769" x="0" y="0" />
              <path d="M23.0156 5.99015L23.0156 13.866C23.0156 16.884 21.095 18.8213 18.0654 18.8213L12.113 18.8213L8.38613 22.0888C7.80777 22.6005 7.4052 22.7958 6.92735 22.7958C6.23642 22.7958 5.80454 22.3208 5.80454 21.5587L5.80454 18.8213L4.68902 18.8213C2.09221 18.8213 0 16.8863 0 13.866L0 5.99015C0 2.96984 1.92061 1.03255 4.95014 1.03255L18.0654 1.03255C21.095 1.03255 23.0156 2.97215 23.0156 5.99015ZM14.0399 6.17194L10.4272 11.8789L8.87004 10.0291C8.59836 9.71425 8.29915 9.55175 7.9138 9.55175C7.2333 9.55175 6.66252 10.0921 6.66252 10.7853C6.66252 11.1069 6.76303 11.3665 7.02143 11.6811L9.23385 14.2712C9.56467 14.6652 9.95518 14.8989 10.4462 14.8989C10.9125 14.8989 11.3449 14.6531 11.6223 14.2488L16.1301 7.47732C16.3242 7.19994 16.4138 6.90588 16.4138 6.64627C16.4138 5.96346 15.812 5.46159 15.1361 5.46159C14.6859 5.46159 14.3425 5.70737 14.0399 6.17194Z"
                     fill="currentColor" fill-opacity="0.85" />
       </g>
</svg>