<?xml version="1.0" encoding="UTF-8"?>
<!--Generator: Apple Native CoreSVG 326-->
<!DOCTYPE svg PUBLIC "-//W3C//DTD SVG 1.1//EN" "http://www.w3.org/Graphics/SVG/1.1/DTD/svg11.dtd">
<svg version="1.1" xmlns="http://www.w3.org/2000/svg" xmlns:xlink="http://www.w3.org/1999/xlink"
       viewBox="0 0 19.3993 19.0529">
       <g>
              <rect height="19.0529" opacity="0" width="19.3993" x="0" y="0" />
              <path d="M3.64834 19.0379L15.3896 19.0379C17.7164 19.0379 19.0379 17.7262 19.0379 15.4011L19.0379 3.63912C19.0379 1.32151 17.7164 0 15.3896 0L3.64834 0C1.32382 0 0 1.32151 0 3.63912L0 15.4011C0 17.7262 1.32382 19.0379 3.64834 19.0379ZM4.05583 16.0183C3.37024 16.0183 3.01964 15.7096 3.01964 14.9775L3.01964 4.07021C3.01964 3.33809 3.37024 3.0271 4.05583 3.0271L14.9821 3.0271C15.6654 3.0271 16.0183 3.33809 16.0183 4.07021L16.0183 14.9775C16.0183 15.7096 15.6654 16.0183 14.9821 16.0183Z"
                     fill="currentColor" fill-opacity="0.85" />
              <path d="M8.52654 14.1826C8.96818 14.1826 9.37591 13.9517 9.62345 13.5669L13.6835 7.38852C13.8603 7.12606 13.9477 6.85899 13.9477 6.62176C13.9477 5.97341 13.378 5.51115 12.7612 5.51115C12.3357 5.51115 12.0021 5.72709 11.727 6.17442L8.50986 11.3652L7.04114 9.62108C6.78438 9.3235 6.50985 9.17077 6.14919 9.17077C5.5106 9.17077 4.97713 9.68417 4.97713 10.3228C4.97713 10.6271 5.07249 10.862 5.32111 11.1595L7.39058 13.5968C7.70186 13.9638 8.06253 14.1826 8.52654 14.1826Z"
                     fill="currentColor" fill-opacity="0.85" />
       </g>
</svg>