<?xml version="1.0" encoding="UTF-8"?>
<!--Generator: Apple Native CoreSVG 326-->
<!DOCTYPE svg PUBLIC "-//W3C//DTD SVG 1.1//EN" "http://www.w3.org/Graphics/SVG/1.1/DTD/svg11.dtd">
<svg version="1.1" xmlns="http://www.w3.org/2000/svg" xmlns:xlink="http://www.w3.org/1999/xlink"
       viewBox="0 0 24.4719 22.4205">
       <g>
              <rect height="22.4205" opacity="0" width="24.4719" x="0" y="0" />
              <path d="M24.1106 9.80208C24.1106 16.1948 18.0699 19.5944 10.9841 19.6168C10.9317 19.6168 10.8496 19.6145 10.7375 19.6122C10.5187 19.6122 10.3372 19.6535 10.0817 19.8155C8.01121 21.2606 5.33749 22.413 4.09847 22.413C3.21968 22.413 2.86309 21.7978 3.45285 21.0782C3.87617 20.5452 4.75574 19.5157 5.40706 18.4308C5.53741 18.1798 5.48112 18.0334 5.20781 17.8732C1.78207 15.992 0 12.9868 0 9.80208C0 4.36772 5.36206 0 12.059 0C18.7485 0 24.1106 4.36772 24.1106 9.80208ZM14.5814 6.08247L10.971 11.7871L9.41382 9.93959C9.13984 9.62478 8.84293 9.45998 8.45758 9.45998C7.77708 9.45998 7.204 10.0004 7.204 10.6883C7.204 11.0151 7.29935 11.277 7.56521 11.5842L9.77764 14.1817C10.1061 14.5757 10.499 14.8071 10.9877 14.8071C11.454 14.8071 11.8864 14.5613 12.1661 14.1593L16.6739 7.38555C16.8657 7.10817 16.9553 6.8141 16.9553 6.5545C16.9553 5.874 16.3535 5.37213 15.6799 5.37213C15.2297 5.37213 14.8863 5.60814 14.5814 6.08247Z"
                     fill="currentColor" fill-opacity="0.85" />
       </g>
</svg>