<?xml version="1.0" encoding="UTF-8"?>
<!--Generator: Apple Native CoreSVG 326-->
<!DOCTYPE svg PUBLIC "-//W3C//DTD SVG 1.1//EN" "http://www.w3.org/Graphics/SVG/1.1/DTD/svg11.dtd">
<svg version="1.1" xmlns="http://www.w3.org/2000/svg" xmlns:xlink="http://www.w3.org/1999/xlink"
       viewBox="0 0 23.1638 22.8215">
       <g>
              <rect height="22.8215" opacity="0" width="23.1638" x="0" y="0" />
              <path d="M13.4667 1.04589L14.896 2.46542C15 2.5746 15.0994 2.61597 15.2523 2.61597L17.2647 2.61597C19.2164 2.61597 20.1888 3.57804 20.1888 5.54014L20.1888 7.55483C20.1888 7.70538 20.225 7.79964 20.3417 7.90882L21.7612 9.33066C23.1484 10.7253 23.1507 12.0842 21.7612 13.4713L20.3417 14.8932C20.2325 15.0047 20.1888 15.1041 20.1888 15.2495L20.1888 17.2619C20.1888 19.2211 19.2291 20.1935 17.2647 20.1935L15.2523 20.1935C15.0994 20.1935 15.0075 20.2297 14.896 20.3389L13.4667 21.7584C12.0795 23.153 10.7206 23.1553 9.33345 21.7584L7.90415 20.3389C7.79497 20.2297 7.70071 20.1935 7.55016 20.1935L5.53547 20.1935C3.57853 20.1935 2.6113 19.2263 2.6113 17.2619L2.6113 15.2495C2.6113 15.1041 2.56994 15.0047 2.46076 14.8932L1.04122 13.4713C-0.345921 12.0842-0.348226 10.7253 1.04122 9.33066L2.46076 7.90882C2.56994 7.8071 2.6113 7.70538 2.6113 7.55483L2.6113 5.54014C2.6113 3.56597 3.57107 2.61597 5.53547 2.61597L7.55016 2.61597C7.70071 2.61597 7.80243 2.5746 7.90415 2.46542L9.33345 1.05335C10.7206-0.348716 12.0721-0.351021 13.4667 1.04589ZM13.9235 7.64084L10.3206 13.3478L8.76347 11.5054C8.48948 11.1832 8.19257 11.0258 7.79976 11.0258C7.11926 11.0258 6.55364 11.5662 6.55364 12.2542C6.55364 12.5735 6.649 12.8354 6.91485 13.15L9.11982 15.7475C9.45579 16.1415 9.84114 16.3729 10.3298 16.3729C10.8036 16.3729 11.2286 16.1197 11.5083 15.7177L16.0161 8.95138C16.2153 8.66653 16.305 8.38224 16.305 8.12033C16.305 7.43983 15.6957 6.93796 15.0295 6.93796C14.5794 6.93796 14.2285 7.17397 13.9235 7.64084Z"
                     fill="currentColor" fill-opacity="0.85" />
       </g>
</svg>