<?xml version="1.0" encoding="UTF-8"?>
<!--Generator: Apple Native CoreSVG 326-->
<!DOCTYPE svg PUBLIC "-//W3C//DTD SVG 1.1//EN" "http://www.w3.org/Graphics/SVG/1.1/DTD/svg11.dtd">
<svg version="1.1" xmlns="http://www.w3.org/2000/svg" xmlns:xlink="http://www.w3.org/1999/xlink"
       viewBox="0 0 18.145 21.7932">
       <g>
              <rect height="21.7932" opacity="0" width="18.145" x="0" y="0" />
              <path d="M0 18.1397C0 20.4717 1.31921 21.7932 3.63912 21.7932L14.1445 21.7932C16.4719 21.7932 17.7836 20.4717 17.7836 18.1397L17.7836 3.66096C17.7836 1.33128 16.4719 0.0051558 14.1445 0.0051558L3.63912 0.0051558C1.31921 0.0051558 0 1.33128 0 3.66096ZM3.01964 17.7299L3.01964 4.07075C3.01964 3.3777 3.32832 3.0248 4.0679 3.0248L13.7232 3.0248C14.4553 3.0248 14.764 3.3777 14.764 4.07075L14.764 17.7299C14.764 18.4229 14.4553 18.7735 13.7232 18.7735L4.0679 18.7735C3.32832 18.7735 3.01964 18.4229 3.01964 17.7299Z"
                     fill="currentColor" fill-opacity="0.85" />
              <path d="M7.89681 15.5528C8.33845 15.5528 8.74618 15.3219 8.99887 14.9371L13.0514 8.75868C13.2283 8.49622 13.3254 8.22915 13.3254 7.99192C13.3254 7.34357 12.7557 6.88131 12.1292 6.88131C11.7112 6.88131 11.37 7.09725 11.0973 7.54458L7.88529 12.7354L6.41656 10.9912C6.16211 10.6937 5.88528 10.5409 5.52462 10.5409C4.88603 10.5409 4.35486 11.0543 4.35486 11.6929C4.35486 11.9973 4.44791 12.2322 4.68908 12.5297L6.766 14.9669C7.07959 15.334 7.43795 15.5528 7.89681 15.5528Z"
                     fill="currentColor" fill-opacity="0.85" />
       </g>
</svg>