<?xml version="1.0" encoding="UTF-8"?>
<!--Generator: Apple Native CoreSVG 326-->
<!DOCTYPE svg PUBLIC "-//W3C//DTD SVG 1.1//EN" "http://www.w3.org/Graphics/SVG/1.1/DTD/svg11.dtd">
<svg version="1.1" xmlns="http://www.w3.org/2000/svg" xmlns:xlink="http://www.w3.org/1999/xlink"
       viewBox="0 0 21.365 21.006">
       <g>
              <rect height="21.006" opacity="0" width="21.365" x="0" y="0" />
              <path d="M10.4981 20.9962C16.302 20.9962 21.0037 16.2946 21.0037 10.4981C21.0037 4.70163 16.302 0 10.4981 0C4.70163 0 0 4.70163 0 10.4981C0 16.2946 4.70163 20.9962 10.4981 20.9962ZM10.4981 17.9484C6.37829 17.9484 3.04785 14.6179 3.04785 10.4981C3.04785 6.37829 6.37829 3.04785 10.4981 3.04785C14.6179 3.04785 17.9558 6.37829 17.9558 10.4981C17.9558 14.6179 14.6179 17.9484 10.4981 17.9484Z"
                     fill="currentColor" fill-opacity="0.85" />
              <path d="M9.4985 15.1592C9.94013 15.1592 10.3479 14.9283 10.5954 14.5435L14.6554 8.36508C14.83 8.10262 14.9196 7.83555 14.9196 7.59833C14.9196 6.94997 14.3499 6.48771 13.7309 6.48771C13.3077 6.48771 12.974 6.70365 12.699 7.15099L9.48182 12.3418L8.02055 10.5976C7.7638 10.3001 7.48181 10.1473 7.11884 10.1473C6.48256 10.1473 5.94909 10.6607 5.94909 11.2993C5.94909 11.6037 6.0519 11.8386 6.29307 12.1361L8.36253 14.5733C8.68128 14.9404 9.04194 15.1592 9.4985 15.1592Z"
                     fill="currentColor" fill-opacity="0.85" />
       </g>
</svg>