<?xml version="1.0" encoding="UTF-8"?>
<!--Generator: Apple Native CoreSVG 326-->
<!DOCTYPE svg PUBLIC "-//W3C//DTD SVG 1.1//EN" "http://www.w3.org/Graphics/SVG/1.1/DTD/svg11.dtd">
<svg version="1.1" xmlns="http://www.w3.org/2000/svg" xmlns:xlink="http://www.w3.org/1999/xlink"
       viewBox="0 0 23.1615 22.8494">
       <g>
              <rect height="22.8494" opacity="0" width="23.1615" x="0" y="0" />
              <path d="M5.53547 20.1907L7.54786 20.1907C7.70071 20.1907 7.79497 20.2195 7.90415 20.3361L9.33345 21.7556C10.7206 23.1451 12.0795 23.1428 13.4667 21.7556L14.896 20.3361C15.0052 20.2195 15.0994 20.1907 15.2523 20.1907L17.2647 20.1907C19.2291 20.1907 20.1888 19.2183 20.1888 17.2591L20.1888 15.2467C20.1888 15.1013 20.2325 14.9944 20.3417 14.8904L21.7589 13.4686C23.1484 12.0814 23.146 10.7173 21.7589 9.32789L20.3417 7.90605C20.225 7.78941 20.1888 7.69515 20.1888 7.55206L20.1888 5.53737C20.1888 3.57527 19.2164 2.60574 17.2647 2.60574L15.2523 2.60574C15.0994 2.60574 14.9977 2.56438 14.896 2.46266L13.4667 1.04312C12.0721-0.361248 10.7355-0.336561 9.33345 1.05058L7.90415 2.46266C7.80243 2.56438 7.70071 2.60574 7.54786 2.60574L5.53547 2.60574C3.57107 2.60574 2.6113 3.55574 2.6113 5.53737L2.6113 7.55206C2.6113 7.69515 2.56994 7.79687 2.46076 7.90605L1.04122 9.32789C-0.348226 10.7173-0.345921 12.0814 1.04122 13.4686L2.46076 14.8904C2.56994 14.9944 2.6113 15.1013 2.6113 15.2467L2.6113 17.2591C2.6113 19.2235 3.57853 20.1907 5.53547 20.1907ZM6.08757 17.6979C5.25573 17.6979 5.11155 17.5538 5.09663 16.7145L5.09663 14.4083C5.09663 14.1303 5.03112 13.9355 4.8312 13.7356L3.18693 12.1011C2.59408 11.4985 2.59408 11.3152 3.18693 10.7126L4.8312 9.07811C5.03112 8.87819 5.09663 8.68342 5.11155 8.40307L5.11155 6.08947C5.11155 5.24786 5.2385 5.11345 6.08757 5.11345L8.40117 5.10599C8.67406 5.10599 8.88375 5.02786 9.06875 4.84056L10.7107 3.19629C11.3059 2.60344 11.4891 2.59598 12.0894 3.19629L13.7337 4.84056C13.9164 5.02786 14.1284 5.10599 14.399 5.10599L16.7126 5.11345C17.5444 5.11345 17.6886 5.25763 17.6886 6.08947L17.6886 8.40307C17.696 8.68342 17.7713 8.87819 17.9712 9.07811L19.608 10.7126C20.2084 11.3152 20.2084 11.4985 19.608 12.1011L17.9712 13.7356C17.7713 13.9355 17.696 14.1303 17.696 14.4083L17.6886 16.7145C17.6886 17.5538 17.5444 17.6979 16.7126 17.6979L14.399 17.7054C14.1284 17.7054 13.9313 17.7634 13.7337 17.9731L12.0894 19.6174C11.4966 20.2103 11.3059 20.2103 10.7107 19.6174L9.06875 17.9731C8.86883 17.7634 8.67406 17.7054 8.40117 17.7054Z"
                     fill="currentColor" fill-opacity="0.85" />
              <path d="M10.4039 16.0619C10.8455 16.0619 11.2533 15.8235 11.5008 15.4485L15.5608 9.26778C15.7354 9.00763 15.825 8.74056 15.825 8.49357C15.825 7.85498 15.2554 7.39272 14.6312 7.39272C14.2131 7.39272 13.8794 7.59889 13.6044 8.04853L10.3872 13.2394L8.9185 11.4952C8.66175 11.1976 8.38722 11.05 8.02656 11.05C7.38797 11.05 6.8545 11.556 6.8545 12.1969C6.8545 12.4989 6.94985 12.7436 7.19848 13.0336L9.26794 15.4709C9.57923 15.8454 9.93989 16.0619 10.4039 16.0619Z"
                     fill="currentColor" fill-opacity="0.85" />
       </g>
</svg>