<?xml version="1.0" encoding="UTF-8"?>
<!--Generator: Apple Native CoreSVG 326-->
<!DOCTYPE svg PUBLIC "-//W3C//DTD SVG 1.1//EN" "http://www.w3.org/Graphics/SVG/1.1/DTD/svg11.dtd">
<svg version="1.1" xmlns="http://www.w3.org/2000/svg" xmlns:xlink="http://www.w3.org/1999/xlink"
       viewBox="0 0 23.8214 19.0529">
       <g>
              <rect height="19.0529" opacity="0" width="23.8214" x="0" y="0" />
              <path d="M23.4601 3.65404L23.4601 15.416C23.4601 17.7336 22.1386 19.0529 19.8117 19.0529L3.64834 19.0529C1.32382 19.0529 0 17.7336 0 15.416L0 3.65404C0 1.32897 1.32382 0.0149214 3.64834 0.0149214L19.8117 0.0149214C22.1386 0.0149214 23.4601 1.32897 23.4601 3.65404ZM14.2621 5.78119L10.6517 11.4881L9.09228 9.63831C8.82061 9.3235 8.52139 9.16101 8.13604 9.16101C7.45554 9.16101 6.88477 9.70139 6.88477 10.387C6.88477 10.7086 6.97781 10.9683 7.24597 11.2829L9.4561 13.8804C9.78692 14.2744 10.1774 14.5081 10.6684 14.5081C11.1348 14.5081 11.5672 14.2624 11.8446 13.8506L16.3546 7.08657C16.5464 6.80689 16.6361 6.51513 16.6361 6.25552C16.6361 5.57272 16.0342 5.07085 15.3584 5.07085C14.9082 5.07085 14.5647 5.30917 14.2621 5.78119Z"
                     fill="currentColor" fill-opacity="0.85" />
       </g>
</svg>