<?xml version="1.0" encoding="UTF-8"?>
<!--Generator: Apple Native CoreSVG 326-->
<!DOCTYPE svg PUBLIC "-//W3C//DTD SVG 1.1//EN" "http://www.w3.org/Graphics/SVG/1.1/DTD/svg11.dtd">
<svg version="1.1" xmlns="http://www.w3.org/2000/svg" xmlns:xlink="http://www.w3.org/1999/xlink"
       viewBox="0 0 24.8676 27.0044">
       <g>
              <rect height="27.0044" opacity="0" width="24.8676" x="0" y="0" />
              <path d="M18.5191 3.18249C18.4514 3.17509 18.3809 3.17347 18.3098 3.17347L6.19881 3.17347C6.12684 3.17347 6.05563 3.17512 5.9872 3.18259C6.00465 2.20139 6.61348 1.61758 7.60858 1.61758L16.8977 1.61758C17.8928 1.61758 18.5016 2.20135 18.5191 3.18249Z"
                     fill="currentColor" fill-opacity="0.85" />
              <path d="M20.4203 6.45667C20.0397 6.38613 19.6355 6.35087 19.211 6.35087L5.29521 6.35087C4.87074 6.35087 4.46656 6.38613 4.08601 6.45666C4.19509 5.32722 4.9664 4.65827 6.17345 4.65827L18.3351 4.65827C19.5422 4.65827 20.3115 5.32722 20.4203 6.45667Z"
                     fill="currentColor" fill-opacity="0.85" />
              <path d="M5.29521 25.365L19.211 25.365C21.5356 25.365 22.8594 24.0435 22.8594 21.7259L22.8594 11.6369C22.8594 9.3118 21.5356 7.99775 19.211 7.99775L5.29521 7.99775C2.96323 7.99775 1.64687 9.3118 1.64687 11.6369L1.64687 21.7259C1.64687 24.0435 2.96323 25.365 5.29521 25.365ZM5.70501 22.3453C5.01941 22.3453 4.66652 22.0343 4.66652 21.2948L4.66652 12.0605C4.66652 11.3284 5.01941 11.0174 5.70501 11.0174L18.8036 11.0174C19.4845 11.0174 19.8397 11.3284 19.8397 12.0605L19.8397 21.2948C19.8397 22.0343 19.4845 22.3453 18.8036 22.3453Z"
                     fill="currentColor" fill-opacity="0.85" />
              <path d="M11.4286 21.4271C11.8702 21.4271 12.2779 21.1962 12.5232 20.8212L16.5855 14.633C16.7601 14.3803 16.8497 14.1058 16.8497 13.8662C16.8497 13.2276 16.2875 12.7579 15.661 12.7579C15.2429 12.7579 14.9018 12.9715 14.629 13.4212L11.4119 18.612L9.95063 16.8678C9.69387 16.5703 9.40958 16.4227 9.04892 16.4227C8.41263 16.4227 7.87916 16.9286 7.87916 17.5695C7.87916 17.8716 7.98197 18.1088 8.22314 18.4063L10.2903 20.8435C10.6114 21.218 10.9697 21.4271 11.4286 21.4271Z"
                     fill="currentColor" fill-opacity="0.85" />
       </g>
</svg>