<?xml version="1.0" encoding="UTF-8"?>
<!--Generator: Apple Native CoreSVG 326-->
<!DOCTYPE svg PUBLIC "-//W3C//DTD SVG 1.1//EN" "http://www.w3.org/Graphics/SVG/1.1/DTD/svg11.dtd">
<svg version="1.1" xmlns="http://www.w3.org/2000/svg" xmlns:xlink="http://www.w3.org/1999/xlink"
       viewBox="0 0 23.788 23.4308">
       <g>
              <rect height="23.4308" opacity="0" width="23.788" x="0" y="0" />
              <path d="M1.2442 14.294L9.12615 22.176C10.7804 23.8302 12.6463 23.8325 14.2908 22.1903L22.1894 14.2894C23.839 12.6398 23.8292 10.779 22.1825 9.12477L14.2954 1.23766C12.6486-0.409091 10.7827-0.413701 9.13822 1.23075L1.22982 9.12938C-0.414627 10.7813-0.410017 12.6398 1.2442 14.294ZM3.67517 12.4416C3.18095 11.9473 3.1488 11.4984 3.67748 10.9697L10.9763 3.67094C11.505 3.14226 11.9539 3.17441 12.4481 3.66864L19.7515 10.972C20.2434 11.464 20.2779 11.9227 19.7492 12.4439L12.4504 19.7501C11.9217 20.2713 11.4705 20.2444 10.9786 19.7547Z"
                     fill="currentColor" fill-opacity="0.85" />
              <path d="M10.7146 16.3716C11.1562 16.3716 11.564 16.1407 11.8167 15.7559L15.8715 9.57751C16.0461 9.31505 16.1357 9.04798 16.1357 8.81075C16.1357 8.1624 15.5735 7.70014 14.947 7.70014C14.529 7.70014 14.1878 7.91608 13.9151 8.36341L10.7054 13.5542L9.23436 11.8101C8.97991 11.5125 8.70307 11.3598 8.34241 11.3598C7.69636 11.3598 7.17266 11.8732 7.17266 12.5117C7.17266 12.8161 7.2657 13.051 7.50918 13.3485L9.5838 15.7858C9.89739 16.1528 10.2557 16.3716 10.7146 16.3716Z"
                     fill="currentColor" fill-opacity="0.85" />
       </g>
</svg>