<?xml version="1.0" encoding="UTF-8"?>
<!--Generator: Apple Native CoreSVG 326-->
<!DOCTYPE svg PUBLIC "-//W3C//DTD SVG 1.1//EN" "http://www.w3.org/Graphics/SVG/1.1/DTD/svg11.dtd">
<svg version="1.1" xmlns="http://www.w3.org/2000/svg" xmlns:xlink="http://www.w3.org/1999/xlink"
       viewBox="0 0 19.0228 17.9675">
       <g>
              <rect height="17.9675" opacity="0" width="19.0228" x="0" y="0" />
              <path d="M7.37438 17.9675C8.16734 17.9675 8.79034 17.67 9.21123 17.0401L18.2308 3.44891C18.5335 3.00157 18.6615 2.55544 18.6615 2.15924C18.6615 1.04765 17.7952 0.218604 16.6537 0.218604C15.8751 0.218604 15.3843 0.494771 14.9037 1.2389L7.33532 13.1245L3.53807 8.58501C3.12234 8.094 2.64691 7.86776 1.99692 7.86776C0.843424 7.86776 0 8.70372 0 9.82276C0 10.3234 0.142421 10.7415 0.574171 11.237L5.60523 17.1623C6.08471 17.7148 6.64857 17.9675 7.37438 17.9675Z"
                     fill="currentColor" fill-opacity="0.85" />
       </g>
</svg>