<?xml version="1.0" encoding="UTF-8"?>
<!--Generator: Apple Native CoreSVG 326-->
<!DOCTYPE svg PUBLIC "-//W3C//DTD SVG 1.1//EN" "http://www.w3.org/Graphics/SVG/1.1/DTD/svg11.dtd">
<svg version="1.1" xmlns="http://www.w3.org/2000/svg" xmlns:xlink="http://www.w3.org/1999/xlink"
       viewBox="0 0 21.365 21.006">
       <g>
              <rect height="21.006" opacity="0" width="21.365" x="0" y="0" />
              <path d="M21.0037 10.4981C21.0037 16.2923 16.302 20.9962 10.4981 20.9962C4.70394 20.9962 0 16.2923 0 10.4981C0 4.70163 4.70394 0 10.4981 0C16.302 0 21.0037 4.70163 21.0037 10.4981ZM13.0279 6.74053L9.41752 12.4475L7.86036 10.6051C7.58638 10.2828 7.28947 10.1278 6.89435 10.1278C6.21616 10.1278 5.65054 10.6682 5.65054 11.3538C5.65054 11.6754 5.74589 11.9351 6.01174 12.2497L8.21671 14.8472C8.55269 15.2412 8.9455 15.4749 9.42674 15.4749C9.90053 15.4749 10.3255 15.2217 10.6126 14.8174L15.1129 8.05337C15.3122 7.76622 15.4018 7.48193 15.4018 7.22232C15.4018 6.53951 14.8 6.03764 14.1241 6.03764C13.6762 6.03764 13.3253 6.27596 13.0279 6.74053Z"
                     fill="currentColor" fill-opacity="0.85" />
       </g>
</svg>