<?xml version="1.0" encoding="UTF-8"?>
<!--Generator: Apple Native CoreSVG 326-->
<!DOCTYPE svg PUBLIC "-//W3C//DTD SVG 1.1//EN" "http://www.w3.org/Graphics/SVG/1.1/DTD/svg11.dtd">
<svg version="1.1" xmlns="http://www.w3.org/2000/svg" xmlns:xlink="http://www.w3.org/1999/xlink"
       viewBox="0 0 18.7418 19.9175">
       <g>
              <rect height="19.9175" opacity="0" width="18.7418" x="0" y="0" />
              <path d="M0.532258 16.666C0.179724 17.0432 0 17.4669 0 17.9797C0 19.0396 0.858345 19.9077 1.90333 19.9077C2.43328 19.9077 2.91902 19.6907 3.32147 19.2784L9.54108 12.8504L8.87665 12.8504L15.0664 19.2784C15.4637 19.6981 15.9569 19.9077 16.4771 19.9077C17.5146 19.9077 18.3804 19.0396 18.3804 17.9797C18.3804 17.4595 18.2082 17.0357 17.8407 16.666L10.8044 9.46131C10.2952 8.96242 9.81227 8.73793 9.1951 8.73047C8.58308 8.73047 8.09734 8.95496 7.58352 9.46131Z"
                     fill="currentColor" fill-opacity="0.85" />
              <path d="M0.532258 7.94297C0.179724 8.32019 0 8.74394 0 9.25897C0 10.3114 0.858345 11.1847 1.90333 11.1847C2.43328 11.1847 2.91902 10.9602 3.32147 10.5577L9.54108 4.12735L8.87665 4.12735L15.0664 10.5577C15.4637 10.9676 15.9569 11.1847 16.4771 11.1847C17.5146 11.1847 18.3804 10.3114 18.3804 9.25897C18.3804 8.73647 18.2082 8.30527 17.8407 7.94528L10.8044 0.738307C10.2929 0.236559 9.81227 0.0149214 9.1951 0C8.58308 0 8.09734 0.224488 7.58352 0.738307Z"
                     fill="currentColor" fill-opacity="0.85" />
       </g>
</svg>