<?xml version="1.0" encoding="UTF-8"?>
<!--Generator: Apple Native CoreSVG 326-->
<!DOCTYPE svg PUBLIC "-//W3C//DTD SVG 1.1//EN" "http://www.w3.org/Graphics/SVG/1.1/DTD/svg11.dtd">
<svg version="1.1" xmlns="http://www.w3.org/2000/svg" xmlns:xlink="http://www.w3.org/1999/xlink"
       viewBox="0 0 21.365 21.006">
       <g>
              <rect height="21.006" opacity="0" width="21.365" x="0" y="0" />
              <path d="M21.0037 10.4981C21.0037 16.2923 16.302 20.9962 10.4981 20.9962C4.70394 20.9962 0 16.2923 0 10.4981C0 4.70163 4.70394 0 10.4981 0C16.302 0 21.0037 4.70163 21.0037 10.4981ZM9.15882 7.42382L5.47463 11.3843C5.02269 11.8609 5.02038 12.6155 5.44303 13.0232C5.94205 13.4947 6.684 13.4947 7.13134 13.0204L10.5004 9.4043L13.8746 13.0204C14.3145 13.4947 15.0639 13.4947 15.563 13.0232C15.9879 12.6155 15.9856 11.8535 15.5313 11.3694L11.8472 7.41636C11.1079 6.62546 9.89804 6.63292 9.15882 7.42382Z"
                     fill="currentColor" fill-opacity="0.85" />
       </g>
</svg>