<?xml version="1.0" encoding="UTF-8"?>
<!--Generator: Apple Native CoreSVG 326-->
<!DOCTYPE svg PUBLIC "-//W3C//DTD SVG 1.1//EN" "http://www.w3.org/Graphics/SVG/1.1/DTD/svg11.dtd">
<svg version="1.1" xmlns="http://www.w3.org/2000/svg" xmlns:xlink="http://www.w3.org/1999/xlink"
       viewBox="0 0 18.6738 18.6576">
       <g>
              <rect height="18.6576" opacity="0" width="18.6738" x="0" y="0" />
              <path d="M15.8366 17.3357C15.8366 18.0277 16.3862 18.5773 17.0708 18.5773C17.7554 18.5773 18.3124 18.0277 18.3124 17.3357C18.3124 16.6511 17.7554 16.1015 17.0708 16.1015C16.3862 16.1015 15.8366 16.6511 15.8366 17.3357ZM13.8555 15.3667C13.8555 16.0512 14.4051 16.6008 15.0897 16.6008C15.7817 16.6008 16.3313 16.0512 16.3313 15.3667C16.3313 14.6821 15.7817 14.125 15.0897 14.125C14.4051 14.125 13.8555 14.6821 13.8555 15.3667ZM11.8745 13.3879C11.8745 14.0724 12.4241 14.6221 13.1161 14.6221C13.8007 14.6221 14.3503 14.0724 14.3503 13.3879C14.3503 12.7033 13.8007 12.1537 13.1161 12.1537C12.4241 12.1537 11.8745 12.7033 11.8745 13.3879ZM9.89567 11.4114C9.89567 12.096 10.4504 12.6456 11.1373 12.6456C11.8219 12.6456 12.3715 12.096 12.3715 11.4114C12.3715 10.7268 11.8219 10.1772 11.1373 10.1772C10.4504 10.1772 9.89567 10.7268 9.89567 11.4114ZM7.92205 9.43262C7.92205 10.1172 8.47165 10.6743 9.15622 10.6743C9.84078 10.6743 10.3904 10.1172 10.3904 9.43262C10.3904 8.74806 9.84078 8.19845 9.15622 8.19845C8.47165 8.19845 7.92205 8.74806 7.92205 9.43262ZM5.94096 11.4114C5.94096 12.096 6.49056 12.6456 7.17513 12.6456C7.85969 12.6456 8.4093 12.096 8.4093 11.4114C8.4093 10.7268 7.85969 10.1772 7.17513 10.1772C6.49056 10.1772 5.94096 10.7268 5.94096 11.4114ZM3.95987 13.3879C3.95987 14.0724 4.50948 14.6221 5.19404 14.6221C5.88091 14.6221 6.42821 14.0724 6.42821 13.3879C6.42821 12.7033 5.88091 12.1537 5.19404 12.1537C4.50948 12.1537 3.95987 12.7033 3.95987 13.3879ZM1.98109 15.3667C1.98109 16.0512 2.53069 16.6008 3.21526 16.6008C3.89982 16.6008 4.44943 16.0512 4.44943 15.3667C4.44943 14.6821 3.89982 14.125 3.21526 14.125C2.53069 14.125 1.98109 14.6821 1.98109 15.3667ZM0 17.3357C0 18.0277 0.549605 18.5773 1.23417 18.5773C1.91873 18.5773 2.4758 18.0277 2.4758 17.3357C2.4758 16.6511 1.91873 16.1015 1.23417 16.1015C0.549605 16.1015 0 16.6511 0 17.3357Z"
                     fill="currentColor" fill-opacity="0.85" />
              <path d="M15.8366 9.13493C15.8366 9.81949 16.3862 10.3691 17.0708 10.3691C17.7554 10.3691 18.3124 9.81949 18.3124 9.13493C18.3124 8.45036 17.7554 7.90076 17.0708 7.90076C16.3862 7.90076 15.8366 8.45036 15.8366 9.13493ZM13.8555 7.15845C13.8555 7.84301 14.4051 8.40008 15.0897 8.40008C15.7817 8.40008 16.3313 7.84301 16.3313 7.15845C16.3313 6.47388 15.7817 5.92428 15.0897 5.92428C14.4051 5.92428 13.8555 6.47388 13.8555 7.15845ZM11.8745 5.18713C11.8745 5.87169 12.4241 6.4213 13.1161 6.4213C13.8007 6.4213 14.3503 5.87169 14.3503 5.18713C14.3503 4.4951 13.8007 3.9455 13.1161 3.9455C12.4241 3.9455 11.8745 4.4951 11.8745 5.18713ZM9.89567 3.21065C9.89567 3.89521 10.4504 4.44482 11.1373 4.44482C11.8219 4.44482 12.3715 3.89521 12.3715 3.21065C12.3715 2.52608 11.8219 1.96902 11.1373 1.96902C10.4504 1.96902 9.89567 2.52608 9.89567 3.21065ZM7.92205 1.23417C7.92205 1.91873 8.47165 2.46834 9.15622 2.46834C9.84078 2.46834 10.3904 1.91873 10.3904 1.23417C10.3904 0.5473 9.84078 0 9.15622 0C8.47165 0 7.92205 0.5473 7.92205 1.23417ZM5.94096 3.21065C5.94096 3.89521 6.49056 4.44482 7.17513 4.44482C7.85969 4.44482 8.4093 3.89521 8.4093 3.21065C8.4093 2.52608 7.85969 1.96902 7.17513 1.96902C6.49056 1.96902 5.94096 2.52608 5.94096 3.21065ZM3.95987 5.18713C3.95987 5.87169 4.50948 6.4213 5.19404 6.4213C5.88091 6.4213 6.42821 5.87169 6.42821 5.18713C6.42821 4.4951 5.88091 3.9455 5.19404 3.9455C4.50948 3.9455 3.95987 4.4951 3.95987 5.18713ZM1.98109 7.15845C1.98109 7.84301 2.53069 8.40008 3.21526 8.40008C3.89982 8.40008 4.44943 7.84301 4.44943 7.15845C4.44943 6.47388 3.89982 5.92428 3.21526 5.92428C2.53069 5.92428 1.98109 6.47388 1.98109 7.15845ZM0 9.13493C0 9.81949 0.549605 10.3691 1.23417 10.3691C1.91873 10.3691 2.4758 9.81949 2.4758 9.13493C2.4758 8.45036 1.91873 7.90076 1.23417 7.90076C0.549605 7.90076 0 8.45036 0 9.13493Z"
                     fill="currentColor" fill-opacity="0.85" />
       </g>
</svg>