<?xml version="1.0" encoding="UTF-8"?>
<!--Generator: Apple Native CoreSVG 326-->
<!DOCTYPE svg PUBLIC "-//W3C//DTD SVG 1.1//EN" "http://www.w3.org/Graphics/SVG/1.1/DTD/svg11.dtd">
<svg version="1.1" xmlns="http://www.w3.org/2000/svg" xmlns:xlink="http://www.w3.org/1999/xlink"
       viewBox="0 0 17.7377 18.5301">
       <g>
              <rect height="18.5301" opacity="0" width="17.7377" x="0" y="0" />
              <path d="M12.4246 18.5163C13.1291 18.5163 13.6625 18.0707 13.9433 17.4735L16.8291 11.1118C17.1765 10.379 17.3764 9.93662 17.3764 9.26073C17.3764 8.58483 17.1765 8.14241 16.8291 7.40968L13.9433 1.0405C13.6625 0.443275 13.1291 0 12.4246 0C11.2515 0.0149214 10.501 0.860104 10.501 1.81447C10.501 2.34387 10.8237 3.04039 11.1056 3.63749L13.8212 9.66312L13.8212 8.85833L11.1056 14.8765C10.8237 15.4811 10.501 16.1678 10.501 16.707C10.501 17.6637 11.2515 18.5088 12.4246 18.5163ZM4.94954 18.5163C6.12257 18.5088 6.86791 17.6637 6.86791 16.707C6.86791 16.1678 6.54522 15.4811 6.26104 14.8765L3.55287 8.85833L3.55287 9.66312L6.26104 3.63749C6.54522 3.04039 6.86791 2.34387 6.86791 1.81447C6.86791 0.860104 6.12257 0.0149214 4.94954 0C4.23986 0 3.71385 0.443275 3.43307 1.0405L0.539839 7.40968C0.199922 8.14241 0 8.58483 0 9.26073C0 9.93662 0.199922 10.379 0.539839 11.1118L3.43307 17.4735C3.71385 18.0707 4.23986 18.5163 4.94954 18.5163Z"
                     fill="currentColor" fill-opacity="0.85" />
       </g>
</svg>