<?xml version="1.0" encoding="UTF-8"?>
<!--Generator: Apple Native CoreSVG 326-->
<!DOCTYPE svg PUBLIC "-//W3C//DTD SVG 1.1//EN" "http://www.w3.org/Graphics/SVG/1.1/DTD/svg11.dtd">
<svg version="1.1" xmlns="http://www.w3.org/2000/svg" xmlns:xlink="http://www.w3.org/1999/xlink"
       viewBox="0 0 19.9659 18.4081">
       <g>
              <rect height="18.4081" opacity="0" width="19.9659" x="0" y="0" />
              <path d="M18.3704 2.51359C19.055 2.51359 19.6046 1.95652 19.6046 1.27196C19.6046 0.587392 19.055 0.0377876 18.3704 0.0377876C17.6859 0.0377876 17.1288 0.587392 17.1288 1.27196C17.1288 1.95652 17.6859 2.51359 18.3704 2.51359ZM16.3939 4.48721C17.0785 4.48721 17.6281 3.93761 17.6281 3.25305C17.6281 2.56848 17.0785 2.01888 16.3939 2.01888C15.7094 2.01888 15.1598 2.56848 15.1598 3.25305C15.1598 3.93761 15.7094 4.48721 16.3939 4.48721ZM14.4175 6.466C15.102 6.466 15.6516 5.9187 15.6516 5.23183C15.6516 4.54726 15.102 3.99766 14.4175 3.99766C13.7306 3.99766 13.1833 4.54726 13.1833 5.23183C13.1833 5.9187 13.7306 6.466 14.4175 6.466ZM12.4387 8.44709C13.1232 8.44709 13.6803 7.89748 13.6803 7.21292C13.6803 6.52835 13.1232 5.97875 12.4387 5.97875C11.7541 5.97875 11.2045 6.52835 11.2045 7.21292C11.2045 7.89748 11.7541 8.44709 12.4387 8.44709ZM10.4697 10.4282C11.1542 10.4282 11.7038 9.87857 11.7038 9.194C11.7038 8.50944 11.1542 7.95983 10.4697 7.95983C9.77764 7.95983 9.22803 8.50944 9.22803 9.194C9.22803 9.87857 9.77764 10.4282 10.4697 10.4282ZM12.4387 12.4093C13.1232 12.4093 13.6803 11.8597 13.6803 11.1751C13.6803 10.4882 13.1232 9.93346 12.4387 9.93346C11.7541 9.93346 11.2045 10.4882 11.2045 11.1751C11.2045 11.8597 11.7541 12.4093 12.4387 12.4093ZM14.4175 14.388C15.102 14.388 15.6516 13.8384 15.6516 13.1539C15.6516 12.4618 15.102 11.9122 14.4175 11.9122C13.7306 11.9122 13.1833 12.4618 13.1833 13.1539C13.1833 13.8384 13.7306 14.388 14.4175 14.388ZM16.3939 16.3691C17.0785 16.3691 17.6281 15.8195 17.6281 15.1275C17.6281 14.4429 17.0785 13.8933 16.3939 13.8933C15.7094 13.8933 15.1598 14.4429 15.1598 15.1275C15.1598 15.8195 15.7094 16.3691 16.3939 16.3691ZM18.3704 18.3502C19.055 18.3502 19.6046 17.7932 19.6046 17.1086C19.6046 16.424 19.055 15.8744 18.3704 15.8744C17.6859 15.8744 17.1288 16.424 17.1288 17.1086C17.1288 17.7932 17.6859 18.3502 18.3704 18.3502Z"
                     fill="currentColor" fill-opacity="0.85" />
              <path d="M9.25151 18.373C10.3114 18.373 11.1847 17.5146 11.1847 16.4771C11.1847 15.942 10.9602 15.4563 10.5503 15.0515L4.11989 8.83935L4.11989 9.50377L10.5503 3.30885C10.9676 2.91156 11.1847 2.41606 11.1847 1.89817C11.1847 0.86065 10.3114 0 9.25151 0C8.72901 0 8.30527 0.164803 7.93782 0.532258L0.733151 7.57837C0.226793 8.07035 0.00746071 8.56069 0 9.18017C0 9.78989 0.217028 10.2905 0.730846 10.7894L7.93782 17.8407C8.30527 18.2082 8.73647 18.373 9.25151 18.373Z"
                     fill="currentColor" fill-opacity="0.85" />
       </g>
</svg>