<?xml version="1.0" encoding="UTF-8"?>
<!--Generator: Apple Native CoreSVG 326-->
<!DOCTYPE svg PUBLIC "-//W3C//DTD SVG 1.1//EN" "http://www.w3.org/Graphics/SVG/1.1/DTD/svg11.dtd">
<svg version="1.1" xmlns="http://www.w3.org/2000/svg" xmlns:xlink="http://www.w3.org/1999/xlink"
       viewBox="0 0 20.383 20.071">
       <g>
              <rect height="20.071" opacity="0" width="20.383" x="0" y="0" />
              <path d="M9.80512 8.63736C10.4897 8.63736 11.0393 8.08776 11.0393 7.40319C11.0393 6.71863 10.4897 6.16902 9.80512 6.16902C9.11309 6.16902 8.56349 6.71863 8.56349 7.40319C8.56349 8.08776 9.11309 8.63736 9.80512 8.63736ZM6.94239 8.63736C7.63442 8.63736 8.18402 8.08776 8.18402 7.40319C8.18402 6.71863 7.63442 6.16902 6.94239 6.16902C6.25783 6.16902 5.70822 6.71863 5.70822 7.40319C5.70822 8.08776 6.25783 8.63736 6.94239 8.63736ZM4.08943 8.63736C4.78146 8.63736 5.33106 8.08776 5.33106 7.40319C5.33106 6.71863 4.78146 6.16902 4.08943 6.16902C3.40256 6.16902 2.85526 6.71863 2.85526 7.40319C2.85526 8.08776 3.40256 8.63736 4.08943 8.63736ZM1.23417 8.63736C1.91873 8.63736 2.4758 8.08776 2.4758 7.40319C2.4758 6.71863 1.91873 6.16902 1.23417 6.16902C0.549605 6.16902 0 6.71863 0 7.40319C0 8.08776 0.549605 8.63736 1.23417 8.63736ZM12.6581 20.0613C13.3426 20.0613 13.8922 19.5117 13.8922 18.8196C13.8922 18.1351 13.3426 17.5855 12.6581 17.5855C11.9735 17.5855 11.4164 18.1351 11.4164 18.8196C11.4164 19.5117 11.9735 20.0613 12.6581 20.0613ZM12.6581 17.2083C13.3426 17.2083 13.8922 16.6512 13.8922 15.9644C13.8922 15.2798 13.3426 14.7302 12.6581 14.7302C11.9735 14.7302 11.4164 15.2798 11.4164 15.9644C11.4164 16.6512 11.9735 17.2083 12.6581 17.2083ZM12.6581 14.353C13.3426 14.353 13.8922 13.796 13.8922 13.1114C13.8922 12.4269 13.3426 11.8772 12.6581 11.8772C11.9735 11.8772 11.4164 12.4269 11.4164 13.1114C11.4164 13.796 11.9735 14.353 12.6581 14.353ZM12.6581 11.4903C13.3426 11.4903 13.8922 10.943 13.8922 10.2562C13.8922 9.57159 13.3426 9.02198 12.6581 9.02198C11.9735 9.02198 11.4164 9.57159 11.4164 10.2562C11.4164 10.943 11.9735 11.4903 12.6581 11.4903ZM12.6581 8.63736C13.3426 8.63736 13.8922 8.08776 13.8922 7.40319C13.8922 6.71863 13.3426 6.16902 12.6581 6.16902C11.9735 6.16902 11.4164 6.71863 11.4164 7.40319C11.4164 8.08776 11.9735 8.63736 12.6581 8.63736Z"
                     fill="currentColor" fill-opacity="0.85" />
              <path d="M15.9322 2.4758C16.6168 2.4758 17.1664 1.91873 17.1664 1.23417C17.1664 0.549605 16.6168 0 15.9322 0C15.2477 0 14.6981 0.549605 14.6981 1.23417C14.6981 1.91873 15.2477 2.4758 15.9322 2.4758ZM13.0793 2.4758C13.7638 2.4758 14.3134 1.91873 14.3134 1.23417C14.3134 0.549605 13.7638 0 13.0793 0C12.3947 0 11.8451 0.549605 11.8451 1.23417C11.8451 1.91873 12.3947 2.4758 13.0793 2.4758ZM10.224 2.4758C10.9086 2.4758 11.4582 1.91873 11.4582 1.23417C11.4582 0.549605 10.9086 0 10.224 0C9.53944 0 8.98237 0.549605 8.98237 1.23417C8.98237 1.91873 9.53944 2.4758 10.224 2.4758ZM7.37105 2.4758C8.05561 2.4758 8.60522 1.91873 8.60522 1.23417C8.60522 0.549605 8.05561 0 7.37105 0C6.67902 0 6.12942 0.549605 6.12942 1.23417C6.12942 1.91873 6.67902 2.4758 7.37105 2.4758ZM18.7875 13.8922C19.4721 13.8922 20.0217 13.3426 20.0217 12.6581C20.0217 11.9735 19.4721 11.4164 18.7875 11.4164C18.1029 11.4164 17.5533 11.9735 17.5533 12.6581C17.5533 13.3426 18.1029 13.8922 18.7875 13.8922ZM18.7875 11.037C19.4721 11.037 20.0217 10.4874 20.0217 9.80281C20.0217 9.11079 19.4721 8.56118 18.7875 8.56118C18.1029 8.56118 17.5533 9.11079 17.5533 9.80281C17.5533 10.4874 18.1029 11.037 18.7875 11.037ZM18.7875 8.18402C19.4721 8.18402 20.0217 7.63442 20.0217 6.94239C20.0217 6.25783 19.4721 5.70822 18.7875 5.70822C18.1029 5.70822 17.5533 6.25783 17.5533 6.94239C17.5533 7.63442 18.1029 8.18402 18.7875 8.18402ZM18.7875 5.32876C19.4721 5.32876 20.0217 4.77915 20.0217 4.08713C20.0217 3.40256 19.4721 2.85296 18.7875 2.85296C18.1029 2.85296 17.5533 3.40256 17.5533 4.08713C17.5533 4.77915 18.1029 5.32876 18.7875 5.32876ZM18.7875 2.4758C19.4721 2.4758 20.0217 1.91873 20.0217 1.23417C20.0217 0.549605 19.4721 0 18.7875 0C18.1029 0 17.5533 0.549605 17.5533 1.23417C17.5533 1.91873 18.1029 2.4758 18.7875 2.4758Z"
                     fill="currentColor" fill-opacity="0.85" />
       </g>
</svg>