<?xml version="1.0" encoding="UTF-8"?>
<!--Generator: Apple Native CoreSVG 326-->
<!DOCTYPE svg PUBLIC "-//W3C//DTD SVG 1.1//EN" "http://www.w3.org/Graphics/SVG/1.1/DTD/svg11.dtd">
<svg version="1.1" xmlns="http://www.w3.org/2000/svg" xmlns:xlink="http://www.w3.org/1999/xlink"
       viewBox="0 0 20.269 18.385">
       <g>
              <rect height="18.385" opacity="0" width="20.269" x="0" y="0" />
              <path d="M10.6562 18.3804C11.1712 18.3804 11.595 18.2007 11.9699 17.8407L19.1745 10.7969C19.6809 10.2831 19.9077 9.79735 19.9077 9.18764C19.9002 8.56815 19.6734 8.08527 19.1745 7.57837L11.9699 0.539718C11.6001 0.172263 11.1787 0 10.6562 0C9.59627 0 8.7207 0.86065 8.7207 1.90563C8.7207 2.42352 8.94004 2.91156 9.35741 3.31631L15.7855 9.50377L15.7855 8.83935L9.35741 15.059C8.9475 15.4563 8.7207 15.9494 8.7207 16.4771C8.7207 17.5146 9.59627 18.3804 10.6562 18.3804Z"
                     fill="currentColor" fill-opacity="0.85" />
              <path d="M1.92571 18.3804C2.44074 18.3804 2.86449 18.2007 3.24171 17.8407L10.4464 10.7969C10.9602 10.2831 11.1847 9.79735 11.1847 9.18764C11.1698 8.56815 10.9527 8.08527 10.4464 7.57837L3.2394 0.539718C2.87941 0.172263 2.4482 0 1.92571 0C0.865806 0 0 0.86065 0 1.90563C0 2.42352 0.217028 2.91156 0.626942 3.31631L7.05733 9.50377L7.05733 8.83935L0.626942 15.059C0.224488 15.4563 0 15.9494 0 16.4771C0 17.5146 0.865806 18.3804 1.92571 18.3804Z"
                     fill="currentColor" fill-opacity="0.85" />
       </g>
</svg>