<?xml version="1.0" encoding="UTF-8"?>
<!--Generator: Apple Native CoreSVG 326-->
<!DOCTYPE svg PUBLIC "-//W3C//DTD SVG 1.1//EN" "http://www.w3.org/Graphics/SVG/1.1/DTD/svg11.dtd">
<svg version="1.1" xmlns="http://www.w3.org/2000/svg" xmlns:xlink="http://www.w3.org/1999/xlink"
       viewBox="0 0 21.365 21.006">
       <g>
              <rect height="21.006" opacity="0" width="21.365" x="0" y="0" />
              <path d="M21.0037 10.4981C21.0037 16.2923 16.302 20.9962 10.4981 20.9962C4.70394 20.9962 0 16.2923 0 10.4981C0 4.70163 4.70394 0 10.4981 0C16.302 0 21.0037 4.70163 21.0037 10.4981ZM8.25311 5.46256C7.76155 5.91221 7.75925 6.69376 8.23588 7.14341L11.8543 10.5079L8.23588 13.8896C7.77647 14.322 7.73917 15.0714 8.22842 15.5704C8.62123 15.9511 9.45446 15.9465 9.87942 15.5463L13.8301 11.8621C14.5905 11.1482 14.5928 9.88475 13.8301 9.16859L9.87942 5.49417C9.41024 5.04452 8.69529 5.05999 8.25311 5.46256Z"
                     fill="currentColor" fill-opacity="0.85" />
       </g>
</svg>