<?xml version="1.0" encoding="UTF-8"?>
<!--Generator: Apple Native CoreSVG 326-->
<!DOCTYPE svg PUBLIC "-//W3C//DTD SVG 1.1//EN" "http://www.w3.org/Graphics/SVG/1.1/DTD/svg11.dtd">
<svg version="1.1" xmlns="http://www.w3.org/2000/svg" xmlns:xlink="http://www.w3.org/1999/xlink"
       viewBox="0 0 15.4904 18.1165">
       <g>
              <rect height="18.1165" opacity="0" width="15.4904" x="0" y="0" />
              <path d="M15.129 16.2309C15.129 15.6286 14.877 15.1601 14.4923 14.8128L7.58093 8.49264L7.58093 9.61174L14.4923 3.29393C14.8845 2.94886 15.129 2.47059 15.129 1.87579C15.129 0.828502 14.246 0 13.2033 0C12.7606 0 12.3713 0.0976562 11.9022 0.517336L4.26255 7.55598C3.78088 7.98543 3.57647 8.45624 3.57647 9.05334C3.57647 9.64298 3.78088 10.1115 4.26485 10.5432L11.9022 17.587C12.369 18.0113 12.7606 18.1067 13.201 18.1067C14.246 18.1067 15.129 17.2684 15.129 16.2309ZM3.5983 16.2797L3.5983 1.82411C3.5983 0.749285 2.81172 0 1.80173 0C0.786589 0 0 0.749285 0 1.82411L0 16.2797C0 17.3522 0.80151 18.1067 1.80173 18.1067C2.81172 18.1067 3.5983 17.3522 3.5983 16.2797Z"
                     fill="currentColor" fill-opacity="0.85" />
       </g>
</svg>