<?xml version="1.0" encoding="UTF-8"?>
<!--Generator: Apple Native CoreSVG 326-->
<!DOCTYPE svg PUBLIC "-//W3C//DTD SVG 1.1//EN" "http://www.w3.org/Graphics/SVG/1.1/DTD/svg11.dtd">
<svg version="1.1" xmlns="http://www.w3.org/2000/svg" xmlns:xlink="http://www.w3.org/1999/xlink"
       viewBox="0 0 19.3993 19.0529">
       <g>
              <rect height="19.0529" opacity="0" width="19.3993" x="0" y="0" />
              <path d="M19.0379 3.63912L19.0379 15.4011C19.0379 17.7262 17.7164 19.0379 15.3896 19.0379L3.64834 19.0379C1.32382 19.0379 0 17.7262 0 15.4011L0 3.63912C0 1.32151 1.32382 0 3.64834 0L15.3896 0C17.7164 0 19.0379 1.32151 19.0379 3.63912ZM8.27409 6.44725L4.58475 10.4077C4.1305 10.8844 4.12819 11.6389 4.55315 12.0467C5.05217 12.5181 5.79927 12.5181 6.24891 12.0438L9.61568 8.42774L12.9825 12.0438C13.4298 12.5181 14.1717 12.5181 14.6708 12.0467C15.1032 11.6389 15.1009 10.8769 14.6466 10.3928L10.9573 6.43979C10.2158 5.6489 9.01331 5.65636 8.27409 6.44725Z"
                     fill="currentColor" fill-opacity="0.85" />
       </g>
</svg>