<?xml version="1.0" encoding="UTF-8"?>
<!--Generator: Apple Native CoreSVG 326-->
<!DOCTYPE svg PUBLIC "-//W3C//DTD SVG 1.1//EN" "http://www.w3.org/Graphics/SVG/1.1/DTD/svg11.dtd">
<svg version="1.1" xmlns="http://www.w3.org/2000/svg" xmlns:xlink="http://www.w3.org/1999/xlink"
       viewBox="0 0 14.3771 18.3804">
       <g>
              <rect height="18.3804" opacity="0" width="14.3771" x="0" y="0" />
              <path d="M0 9.18533C0 9.79505 0.214723 10.2859 0.736002 10.7923L7.92805 17.8384C8.2955 18.2082 8.72671 18.3781 9.24174 18.3781C10.3016 18.3781 11.1772 17.5123 11.1772 16.4748C11.1772 15.9448 10.9504 15.4539 10.5405 15.0567L4.46071 9.17787L10.5405 3.31401C10.9579 2.90925 11.1772 2.42352 11.1772 1.90333C11.1772 0.858345 10.3016 0 9.24174 0C8.71925 0 8.2955 0.169958 7.92805 0.537413L0.736002 7.57837C0.222183 8.08242 0.00746071 8.56815 0 9.18533Z"
                     fill="currentColor" fill-opacity="0.85" />
       </g>
</svg>