<?xml version="1.0" encoding="UTF-8"?>
<!--Generator: Apple Native CoreSVG 326-->
<!DOCTYPE svg PUBLIC "-//W3C//DTD SVG 1.1//EN" "http://www.w3.org/Graphics/SVG/1.1/DTD/svg11.dtd">
<svg version="1.1" xmlns="http://www.w3.org/2000/svg" xmlns:xlink="http://www.w3.org/1999/xlink"
       viewBox="0 0 21.365 21.006">
       <g>
              <rect height="21.006" opacity="0" width="21.365" x="0" y="0" />
              <path d="M21.0037 10.4981C21.0037 16.2923 16.302 20.9962 10.4981 20.9962C4.70394 20.9962 0 16.2923 0 10.4981C0 4.70163 4.70394 0 10.4981 0C16.302 0 21.0037 4.70163 21.0037 10.4981ZM10.9638 5.5339L7.058 9.17781C6.29992 9.88706 6.29992 11.1362 7.058 11.8454L10.9638 15.4968C11.3939 15.8924 12.2151 15.897 12.6033 15.5186C13.0926 15.0219 13.0529 14.2846 12.5981 13.847L9.02465 10.5056L12.5981 7.17622C13.0702 6.73865 13.0679 5.9594 12.5786 5.51206C12.141 5.11409 11.4382 5.09402 10.9638 5.5339Z"
                     fill="currentColor" fill-opacity="0.85" />
       </g>
</svg>