<?xml version="1.0" encoding="UTF-8"?>
<!--Generator: Apple Native CoreSVG 326-->
<!DOCTYPE svg PUBLIC "-//W3C//DTD SVG 1.1//EN" "http://www.w3.org/Graphics/SVG/1.1/DTD/svg11.dtd">
<svg version="1.1" xmlns="http://www.w3.org/2000/svg" xmlns:xlink="http://www.w3.org/1999/xlink"
       viewBox="0 0 20.383 20.071">
       <g>
              <rect height="20.071" opacity="0" width="20.383" x="0" y="0" />
              <path d="M15.9322 17.5855C15.2477 17.5855 14.6981 18.1351 14.6981 18.8196C14.6981 19.5117 15.2477 20.0613 15.9322 20.0613C16.6168 20.0613 17.1664 19.5117 17.1664 18.8196C17.1664 18.1351 16.6168 17.5855 15.9322 17.5855ZM13.0793 17.5855C12.3947 17.5855 11.8451 18.1351 11.8451 18.8196C11.8451 19.5117 12.3947 20.0613 13.0793 20.0613C13.7638 20.0613 14.3134 19.5117 14.3134 18.8196C14.3134 18.1351 13.7638 17.5855 13.0793 17.5855ZM10.224 17.5855C9.53944 17.5855 8.98237 18.1351 8.98237 18.8196C8.98237 19.5117 9.53944 20.0613 10.224 20.0613C10.9086 20.0613 11.4582 19.5117 11.4582 18.8196C11.4582 18.1351 10.9086 17.5855 10.224 17.5855ZM7.37105 17.5855C6.67902 17.5855 6.12942 18.1351 6.12942 18.8196C6.12942 19.5117 6.67902 20.0613 7.37105 20.0613C8.05561 20.0613 8.60522 19.5117 8.60522 18.8196C8.60522 18.1351 8.05561 17.5855 7.37105 17.5855ZM18.7875 6.16902C18.1029 6.16902 17.5533 6.71863 17.5533 7.40319C17.5533 8.08776 18.1029 8.63736 18.7875 8.63736C19.4721 8.63736 20.0217 8.08776 20.0217 7.40319C20.0217 6.71863 19.4721 6.16902 18.7875 6.16902ZM18.7875 9.02198C18.1029 9.02198 17.5533 9.57159 17.5533 10.2562C17.5533 10.943 18.1029 11.4903 18.7875 11.4903C19.4721 11.4903 20.0217 10.943 20.0217 10.2562C20.0217 9.57159 19.4721 9.02198 18.7875 9.02198ZM18.7875 11.8772C18.1029 11.8772 17.5533 12.4269 17.5533 13.1114C17.5533 13.796 18.1029 14.353 18.7875 14.353C19.4721 14.353 20.0217 13.796 20.0217 13.1114C20.0217 12.4269 19.4721 11.8772 18.7875 11.8772ZM18.7875 14.7302C18.1029 14.7302 17.5533 15.2798 17.5533 15.9644C17.5533 16.6512 18.1029 17.2083 18.7875 17.2083C19.4721 17.2083 20.0217 16.6512 20.0217 15.9644C20.0217 15.2798 19.4721 14.7302 18.7875 14.7302ZM18.7875 17.5855C18.1029 17.5855 17.5533 18.1351 17.5533 18.8196C17.5533 19.5117 18.1029 20.0613 18.7875 20.0613C19.4721 20.0613 20.0217 19.5117 20.0217 18.8196C20.0217 18.1351 19.4721 17.5855 18.7875 17.5855Z"
                     fill="currentColor" fill-opacity="0.85" />
              <path d="M9.80512 11.4164C9.11309 11.4164 8.56349 11.9735 8.56349 12.6581C8.56349 13.3426 9.11309 13.8922 9.80512 13.8922C10.4897 13.8922 11.0393 13.3426 11.0393 12.6581C11.0393 11.9735 10.4897 11.4164 9.80512 11.4164ZM6.94239 11.4164C6.25783 11.4164 5.70822 11.9735 5.70822 12.6581C5.70822 13.3426 6.25783 13.8922 6.94239 13.8922C7.63442 13.8922 8.18402 13.3426 8.18402 12.6581C8.18402 11.9735 7.63442 11.4164 6.94239 11.4164ZM4.08943 11.4164C3.40256 11.4164 2.85526 11.9735 2.85526 12.6581C2.85526 13.3426 3.40256 13.8922 4.08943 13.8922C4.78146 13.8922 5.33106 13.3426 5.33106 12.6581C5.33106 11.9735 4.78146 11.4164 4.08943 11.4164ZM1.23417 11.4164C0.549605 11.4164 0 11.9735 0 12.6581C0 13.3426 0.549605 13.8922 1.23417 13.8922C1.91873 13.8922 2.4758 13.3426 2.4758 12.6581C2.4758 11.9735 1.91873 11.4164 1.23417 11.4164ZM12.6581 0C11.9735 0 11.4164 0.549605 11.4164 1.23417C11.4164 1.91873 11.9735 2.4758 12.6581 2.4758C13.3426 2.4758 13.8922 1.91873 13.8922 1.23417C13.8922 0.549605 13.3426 0 12.6581 0ZM12.6581 2.85296C11.9735 2.85296 11.4164 3.40256 11.4164 4.08713C11.4164 4.77915 11.9735 5.32876 12.6581 5.32876C13.3426 5.32876 13.8922 4.77915 13.8922 4.08713C13.8922 3.40256 13.3426 2.85296 12.6581 2.85296ZM12.6581 5.70822C11.9735 5.70822 11.4164 6.25783 11.4164 6.94239C11.4164 7.63442 11.9735 8.18402 12.6581 8.18402C13.3426 8.18402 13.8922 7.63442 13.8922 6.94239C13.8922 6.25783 13.3426 5.70822 12.6581 5.70822ZM12.6581 8.56118C11.9735 8.56118 11.4164 9.11079 11.4164 9.80281C11.4164 10.4874 11.9735 11.037 12.6581 11.037C13.3426 11.037 13.8922 10.4874 13.8922 9.80281C13.8922 9.11079 13.3426 8.56118 12.6581 8.56118ZM12.6581 11.4164C11.9735 11.4164 11.4164 11.9735 11.4164 12.6581C11.4164 13.3426 11.9735 13.8922 12.6581 13.8922C13.3426 13.8922 13.8922 13.3426 13.8922 12.6581C13.8922 11.9735 13.3426 11.4164 12.6581 11.4164Z"
                     fill="currentColor" fill-opacity="0.85" />
       </g>
</svg>