<?xml version="1.0" encoding="UTF-8"?>
<!--Generator: Apple Native CoreSVG 326-->
<!DOCTYPE svg PUBLIC "-//W3C//DTD SVG 1.1//EN" "http://www.w3.org/Graphics/SVG/1.1/DTD/svg11.dtd">
<svg version="1.1" xmlns="http://www.w3.org/2000/svg" xmlns:xlink="http://www.w3.org/1999/xlink"
       viewBox="0 0 19.3993 19.0529">
       <g>
              <rect height="19.0529" opacity="0" width="19.3993" x="0" y="0" />
              <path d="M19.0379 3.63912L19.0379 15.4011C19.0379 17.7262 17.7164 19.0379 15.3896 19.0379L3.64834 19.0379C1.32382 19.0379 0 17.7262 0 15.4011L0 3.63912C0 1.32151 1.32382 0 3.64834 0L15.3896 0C17.7164 0 19.0379 1.32151 19.0379 3.63912ZM7.37068 4.486C6.87682 4.93565 6.87452 5.7172 7.34369 6.16684L10.9621 9.53131L7.34369 12.913C6.88428 13.3454 6.84698 14.0948 7.33854 14.5938C7.7365 14.9746 8.56227 14.97 8.99469 14.5697L12.9379 10.8855C13.7006 10.1717 13.7006 8.90819 12.9379 8.19203L8.99469 4.5176C8.51805 4.06796 7.8031 4.08343 7.37068 4.486Z"
                     fill="currentColor" fill-opacity="0.85" />
       </g>
</svg>