<?xml version="1.0" encoding="UTF-8"?>
<!--Generator: Apple Native CoreSVG 326-->
<!DOCTYPE svg PUBLIC "-//W3C//DTD SVG 1.1//EN" "http://www.w3.org/Graphics/SVG/1.1/DTD/svg11.dtd">
<svg version="1.1" xmlns="http://www.w3.org/2000/svg" xmlns:xlink="http://www.w3.org/1999/xlink"
       viewBox="0 0 16.0079 22.0712">
       <g>
              <rect height="22.0712" opacity="0" width="16.0079" x="0" y="0" />
              <path d="M7.82445 0C7.21243 0 6.71924 0.246871 6.21057 0.733151L0.723931 6.00265C0.3014 6.41025 0 6.89884 0 7.42825C0 8.56276 0.955334 9.34134 1.90333 9.34134C2.39422 9.34134 2.90464 9.18576 3.31116 8.79416L7.82445 4.38083L12.3354 8.79416C12.7443 9.18345 13.2524 9.34134 13.7433 9.34134C14.6913 9.34134 15.6466 8.56276 15.6466 7.42825C15.6466 6.89884 15.34 6.41025 14.9227 6.00265L9.43603 0.733151C8.92736 0.246871 8.43417 0 7.82445 0ZM7.82445 22.0615C8.43417 22.0615 8.92736 21.8123 9.43603 21.3209L14.9227 16.0514C15.34 15.6489 15.6466 15.1626 15.6466 14.6309C15.6466 13.4964 14.6913 12.7127 13.7433 12.7127C13.2524 12.7127 12.7443 12.878 12.3354 13.2673L7.82445 17.6806L3.31116 13.2673C2.90464 12.8682 2.39422 12.7127 1.90333 12.7127C0.955334 12.7127 0 13.4964 0 14.6309C0 15.1626 0.3014 15.6489 0.723931 16.0514L6.21057 21.3209C6.71924 21.8123 7.21243 22.0615 7.82445 22.0615Z"
                     fill="currentColor" fill-opacity="0.85" />
       </g>
</svg>