<?xml version="1.0" encoding="UTF-8"?>
<!--Generator: Apple Native CoreSVG 326-->
<!DOCTYPE svg PUBLIC "-//W3C//DTD SVG 1.1//EN" "http://www.w3.org/Graphics/SVG/1.1/DTD/svg11.dtd">
<svg version="1.1" xmlns="http://www.w3.org/2000/svg" xmlns:xlink="http://www.w3.org/1999/xlink"
       viewBox="0 0 13.6591 18.3804">
       <g>
              <rect height="18.3804" opacity="0" width="13.6591" x="0" y="0" />
              <path d="M13.6591 9.18533C13.6442 8.56815 13.4346 8.08242 12.9208 7.57837L5.73103 0.537413C5.36127 0.169958 4.93753 0 4.40758 0C3.35744 0 2.48186 0.858345 2.48186 1.90333C2.48186 2.42352 2.69889 2.90925 3.11627 3.31401L9.19606 9.17787L3.11627 15.0567C2.70635 15.4539 2.48186 15.9448 2.48186 16.4748C2.48186 17.5123 3.35744 18.3781 4.40758 18.3781C4.92261 18.3781 5.36127 18.2082 5.73103 17.8384L12.9208 10.7923C13.4421 10.2859 13.6591 9.79505 13.6591 9.18533Z"
                     fill="currentColor" fill-opacity="0.85" />
       </g>
</svg>