<?xml version="1.0" encoding="UTF-8"?>
<!--Generator: Apple Native CoreSVG 326-->
<!DOCTYPE svg PUBLIC "-//W3C//DTD SVG 1.1//EN" "http://www.w3.org/Graphics/SVG/1.1/DTD/svg11.dtd">
<svg version="1.1" xmlns="http://www.w3.org/2000/svg" xmlns:xlink="http://www.w3.org/1999/xlink"
       viewBox="0 0 15.4904 18.1165">
       <g>
              <rect height="18.1165" opacity="0" width="15.4904" x="0" y="0" />
              <path d="M0 16.2309C0 17.2684 0.890493 18.1067 1.92802 18.1067C2.3736 18.1067 2.76004 18.0113 3.22679 17.587L10.8642 10.5432C11.3481 10.1115 11.5577 9.64298 11.5577 9.05334C11.5577 8.45624 11.3481 7.98543 10.8665 7.55598L3.22679 0.517336C2.75773 0.0976562 2.3736 0 1.92571 0C0.890493 0 0 0.828502 0 1.87579C0 2.47059 0.244566 2.94886 0.636708 3.29393L7.5481 9.61174L7.5481 8.49264L0.636708 14.8128C0.252026 15.1601 0 15.6286 0 16.2309ZM11.5307 16.2797C11.5307 17.3522 12.3173 18.1067 13.3325 18.1067C14.3252 18.1067 15.129 17.3522 15.129 16.2797L15.129 1.82411C15.129 0.749285 14.3476 0 13.3325 0C12.3173 0 11.5307 0.749285 11.5307 1.82411Z"
                     fill="currentColor" fill-opacity="0.85" />
       </g>
</svg>