<?xml version="1.0" encoding="UTF-8"?>
<!--Generator: Apple Native CoreSVG 326-->
<!DOCTYPE svg PUBLIC "-//W3C//DTD SVG 1.1//EN" "http://www.w3.org/Graphics/SVG/1.1/DTD/svg11.dtd">
<svg version="1.1" xmlns="http://www.w3.org/2000/svg" xmlns:xlink="http://www.w3.org/1999/xlink"
       viewBox="0 0 20.9582 20.4288">
       <g>
              <rect height="20.4288" opacity="0" width="20.9582" x="0" y="0" />
              <path d="M8.2468 16.633C6.95846 16.633 6.28148 17.5677 6.28148 18.526C6.28148 19.4935 6.95846 20.4093 8.2468 20.4093L18.3141 20.4093C19.6495 20.4093 20.5969 19.4642 20.5969 18.1437L20.5969 8.15157C20.5969 6.86323 19.6668 6.19371 18.7085 6.19371C17.7386 6.19371 16.8229 6.86323 16.8229 8.15157L16.8229 18.5403L18.7227 16.633Z"
                     fill="currentColor" fill-opacity="0.85" />
              <path d="M1.96532 10.449C0.676983 10.449 0 11.3814 0 12.3421C0 13.3096 0.676983 14.2253 1.96532 14.2253L12.035 14.2253C13.3704 14.2253 14.3154 13.278 14.3154 11.9598L14.3154 1.96762C14.3154 0.679288 13.3853 0 12.427 0C11.4594 0 10.5414 0.679288 10.5414 1.96762L10.5414 12.3488L12.4412 10.449Z"
                     fill="currentColor" fill-opacity="0.85" />
       </g>
</svg>