<?xml version="1.0" encoding="UTF-8"?>
<!--Generator: Apple Native CoreSVG 326-->
<!DOCTYPE svg PUBLIC "-//W3C//DTD SVG 1.1//EN" "http://www.w3.org/Graphics/SVG/1.1/DTD/svg11.dtd">
<svg version="1.1" xmlns="http://www.w3.org/2000/svg" xmlns:xlink="http://www.w3.org/1999/xlink"
       viewBox="0 0 18.8702 17.5528">
       <g>
              <rect height="17.5528" opacity="0" width="18.8702" x="0" y="0" />
              <path d="M1.0405 14.11L7.40453 16.9958C8.13725 17.3432 8.57737 17.5431 9.25557 17.5431C9.93146 17.5431 10.3739 17.3432 11.1066 16.9958L17.4758 14.11C18.073 13.8292 18.5088 13.2958 18.5088 12.5912C18.5014 11.4182 17.6562 10.6677 16.7018 10.6677C16.1627 10.6677 15.4736 10.9904 14.8788 11.2723L8.85318 13.9879L9.65566 13.9879L3.63749 11.2723C3.03523 10.9904 2.34848 10.6677 1.80701 10.6677C0.852643 10.6677 0.00746071 11.4182 0 12.5912C0 13.2958 0.44558 13.8292 1.0405 14.11ZM1.0405 3.43307C0.44558 3.71385 0 4.23986 0 4.95184C0.00746071 6.12487 0.852643 6.86791 1.80701 6.86791C2.34848 6.86791 3.03523 6.54522 3.63749 6.26335L9.65566 3.55518L8.85318 3.55518L14.8788 6.26335C15.4736 6.54522 16.1627 6.86791 16.7018 6.86791C17.6562 6.86791 18.5014 6.12487 18.5088 4.95184C18.5088 4.23986 18.073 3.71385 17.4758 3.43307L11.1066 0.539839C10.3739 0.199922 9.93146 0 9.25557 0C8.57737 0 8.13725 0.199922 7.40453 0.539839Z"
                     fill="currentColor" fill-opacity="0.85" />
       </g>
</svg>