<?xml version="1.0" encoding="UTF-8"?>
<!--Generator: Apple Native CoreSVG 326-->
<!DOCTYPE svg PUBLIC "-//W3C//DTD SVG 1.1//EN" "http://www.w3.org/Graphics/SVG/1.1/DTD/svg11.dtd">
<svg version="1.1" xmlns="http://www.w3.org/2000/svg" xmlns:xlink="http://www.w3.org/1999/xlink"
       viewBox="0 0 19.9659 18.4081">
       <g>
              <rect height="18.4081" opacity="0" width="19.9659" x="0" y="0" />
              <path d="M10.3554 18.373C10.8681 18.373 11.2993 18.2082 11.6691 17.8407L18.8737 10.7894C19.3876 10.2905 19.6046 9.78989 19.6046 9.18017C19.5971 8.56069 19.3801 8.07035 18.8737 7.57837L11.6691 0.532258C11.2993 0.164803 10.8756 0 10.3554 0C9.29548 0 8.41991 0.86065 8.41991 1.89817C8.41991 2.41606 8.63924 2.91156 9.05662 3.30885L15.4847 9.50377L15.4847 8.83935L9.05662 15.0515C8.6467 15.4563 8.41991 15.942 8.41991 16.4771C8.41991 17.5146 9.29548 18.373 10.3554 18.373Z"
                     fill="currentColor" fill-opacity="0.85" />
              <path d="M1.23417 2.51359C1.91873 2.51359 2.4758 1.95652 2.4758 1.27196C2.4758 0.587392 1.91873 0.0377876 1.23417 0.0377876C0.549605 0.0377876 0 0.587392 0 1.27196C0 1.95652 0.549605 2.51359 1.23417 2.51359ZM3.21065 4.48721C3.89752 4.48721 4.44482 3.93761 4.44482 3.25305C4.44482 2.56848 3.89752 2.01888 3.21065 2.01888C2.52608 2.01888 1.97648 2.56848 1.97648 3.25305C1.97648 3.93761 2.52608 4.48721 3.21065 4.48721ZM5.18943 6.466C5.874 6.466 6.4236 5.9187 6.4236 5.23183C6.4236 4.54726 5.874 3.99766 5.18943 3.99766C4.50487 3.99766 3.95526 4.54726 3.95526 5.23183C3.95526 5.9187 4.50487 6.466 5.18943 6.466ZM7.16591 8.44709C7.85047 8.44709 8.40008 7.89748 8.40008 7.21292C8.40008 6.52835 7.85047 5.97875 7.16591 5.97875C6.47388 5.97875 5.92428 6.52835 5.92428 7.21292C5.92428 7.89748 6.47388 8.44709 7.16591 8.44709ZM9.13723 10.4282C9.82926 10.4282 10.3789 9.87857 10.3789 9.194C10.3789 8.50944 9.82926 7.95983 9.13723 7.95983C8.45267 7.95983 7.90306 8.50944 7.90306 9.194C7.90306 9.87857 8.45267 10.4282 9.13723 10.4282ZM7.16591 12.4093C7.85047 12.4093 8.40008 11.8597 8.40008 11.1751C8.40008 10.4882 7.85047 9.93346 7.16591 9.93346C6.47388 9.93346 5.92428 10.4882 5.92428 11.1751C5.92428 11.8597 6.47388 12.4093 7.16591 12.4093ZM5.18943 14.388C5.874 14.388 6.4236 13.8384 6.4236 13.1539C6.4236 12.4618 5.874 11.9122 5.18943 11.9122C4.50487 11.9122 3.95526 12.4618 3.95526 13.1539C3.95526 13.8384 4.50487 14.388 5.18943 14.388ZM3.21065 16.3691C3.89752 16.3691 4.44482 15.8195 4.44482 15.1275C4.44482 14.4429 3.89752 13.8933 3.21065 13.8933C2.52608 13.8933 1.97648 14.4429 1.97648 15.1275C1.97648 15.8195 2.52608 16.3691 3.21065 16.3691ZM1.23417 18.3502C1.91873 18.3502 2.4758 17.7932 2.4758 17.1086C2.4758 16.424 1.91873 15.8744 1.23417 15.8744C0.549605 15.8744 0 16.424 0 17.1086C0 17.7932 0.549605 18.3502 1.23417 18.3502Z"
                     fill="currentColor" fill-opacity="0.85" />
       </g>
</svg>