<?xml version="1.0" encoding="UTF-8"?>
<!--Generator: Apple Native CoreSVG 326-->
<!DOCTYPE svg PUBLIC "-//W3C//DTD SVG 1.1//EN" "http://www.w3.org/Graphics/SVG/1.1/DTD/svg11.dtd">
<svg version="1.1" xmlns="http://www.w3.org/2000/svg" xmlns:xlink="http://www.w3.org/1999/xlink"
       viewBox="0 0 22.6374 22.2784">
       <g>
              <rect height="22.2784" opacity="0" width="22.6374" x="0" y="0" />
              <path d="M11.1343 22.2687C17.2722 22.2687 22.2761 17.2722 22.2761 11.1343C22.2761 4.99648 17.2722 0 11.1343 0C4.99648 0 0 4.99648 0 11.1343C0 17.2722 4.99648 22.2687 11.1343 22.2687ZM11.1343 18.2927C7.17804 18.2927 3.97601 15.0906 3.97601 11.1343C3.97601 7.17573 7.17804 3.97601 11.1343 3.97601C15.0929 3.97601 18.3001 7.17573 18.3001 11.1343C18.3001 15.0906 15.0929 18.2927 11.1343 18.2927Z"
                     fill="currentColor" fill-opacity="0.85" />
              <path d="M11.1343 15.5652C11.7596 15.5652 12.1484 15.1667 12.1484 14.5316L12.1484 12.4947L14.6481 8.4002C14.7882 8.16419 14.8697 7.94661 14.8697 7.67615C14.8697 7.08991 14.4167 6.69831 13.8407 6.69831C13.4118 6.69831 13.0868 6.9251 12.8704 7.36892L11.1785 10.6388L11.132 10.6388L9.44536 7.37638C9.23119 6.9251 8.91311 6.696 8.46522 6.696C7.85429 6.696 7.40641 7.0876 7.40641 7.69853C7.40641 7.95001 7.48277 8.18887 7.61543 8.40766L10.1277 12.4947L10.1277 14.5316C10.1277 15.1667 10.5188 15.5652 11.1343 15.5652ZM7.99586 12.1432C7.99586 12.2915 8.11997 12.4156 8.26075 12.4156L14.0223 12.4156C14.1631 12.4156 14.2872 12.2915 14.2872 12.1432C14.2872 12.0001 14.1631 11.8783 14.0223 11.8783L8.26075 11.8783C8.11997 11.8783 7.99586 12.0001 7.99586 12.1432ZM7.99586 13.6163C7.99586 13.7646 8.11997 13.8887 8.26075 13.8887L14.0223 13.8887C14.1631 13.8887 14.2872 13.7646 14.2872 13.6163C14.2872 13.4755 14.1631 13.3514 14.0223 13.3514L8.26075 13.3514C8.11997 13.3514 7.99586 13.4755 7.99586 13.6163Z"
                     fill="currentColor" fill-opacity="0.85" />
       </g>
</svg>