<?xml version="1.0" encoding="UTF-8"?>
<!--Generator: Apple Native CoreSVG 326-->
<!DOCTYPE svg PUBLIC "-//W3C//DTD SVG 1.1//EN" "http://www.w3.org/Graphics/SVG/1.1/DTD/svg11.dtd">
<svg version="1.1" xmlns="http://www.w3.org/2000/svg" xmlns:xlink="http://www.w3.org/1999/xlink"
       viewBox="0 0 21.365 21.006">
       <g>
              <rect height="21.006" opacity="0" width="21.365" x="0" y="0" />
              <path d="M10.4981 20.9962C16.302 20.9962 21.0037 16.2946 21.0037 10.4981C21.0037 4.70163 16.302 0 10.4981 0C4.70163 0 0 4.70163 0 10.4981C0 16.2946 4.70163 20.9962 10.4981 20.9962ZM10.4981 17.9484C6.37829 17.9484 3.04785 14.6179 3.04785 10.4981C3.04785 6.37829 6.37829 3.04785 10.4981 3.04785C14.6179 3.04785 17.9558 6.37829 17.9558 10.4981C17.9558 14.6179 14.6179 17.9484 10.4981 17.9484Z"
                     fill="currentColor" fill-opacity="0.85" />
              <path d="M10.4958 14.929C11.1188 14.929 11.5099 14.5305 11.5099 13.8954L11.5099 11.8584L14.0095 7.76398C14.1497 7.52797 14.2312 7.31039 14.2312 7.03993C14.2312 6.45369 13.7758 6.06209 13.2022 6.06209C12.7733 6.06209 12.4483 6.28888 12.2318 6.7327L10.54 10.0026L10.4935 10.0026L8.80684 6.74016C8.59266 6.28888 8.27458 6.05978 7.8267 6.05978C7.21346 6.05978 6.76788 6.45138 6.76788 7.06231C6.76788 7.31379 6.84425 7.55265 6.9769 7.77144L9.48175 11.8584L9.48175 13.8954C9.48175 14.5305 9.88027 14.929 10.4958 14.929ZM7.35734 11.507C7.35734 11.6552 7.48144 11.7793 7.62222 11.7793L13.3838 11.7793C13.5245 11.7793 13.6486 11.6552 13.6486 11.507C13.6486 11.3639 13.5245 11.2421 13.3838 11.2421L7.62222 11.2421C7.48144 11.2421 7.35734 11.3639 7.35734 11.507ZM7.35734 12.9801C7.35734 13.1283 7.48144 13.2524 7.62222 13.2524L13.3838 13.2524C13.5245 13.2524 13.6486 13.1283 13.6486 12.9801C13.6486 12.8393 13.5245 12.7152 13.3838 12.7152L7.62222 12.7152C7.48144 12.7152 7.35734 12.8393 7.35734 12.9801Z"
                     fill="currentColor" fill-opacity="0.85" />
       </g>
</svg>