<?xml version="1.0" encoding="UTF-8"?>
<!--Generator: Apple Native CoreSVG 326-->
<!DOCTYPE svg PUBLIC "-//W3C//DTD SVG 1.1//EN" "http://www.w3.org/Graphics/SVG/1.1/DTD/svg11.dtd">
<svg version="1.1" xmlns="http://www.w3.org/2000/svg" xmlns:xlink="http://www.w3.org/1999/xlink"
       viewBox="0 0 21.365 21.006">
       <g>
              <rect height="21.006" opacity="0" width="21.365" x="0" y="0" />
              <path d="M21.0037 10.4981C21.0037 16.2923 16.302 20.9962 10.4981 20.9962C4.70394 20.9962 0 16.2923 0 10.4981C0 4.70163 4.70394 0 10.4981 0C16.302 0 21.0037 4.70163 21.0037 10.4981ZM6.51355 6.83837C6.51355 7.10477 6.60484 7.36832 6.73749 7.60203L9.00852 11.2966L7.42703 11.2966C7.26902 11.2966 7.14492 11.4259 7.14492 11.5862C7.14492 11.7442 7.26902 11.8683 7.42703 11.8683L9.34516 11.8683L9.4123 11.9877L9.4123 12.8633L7.42703 12.8633C7.26902 12.8633 7.14492 12.9972 7.14492 13.1552C7.14492 13.3035 7.26902 13.4373 7.42703 13.4373L9.4123 13.4373L9.4123 14.1193C9.4123 14.7842 9.8355 15.2321 10.4981 15.2321C11.1682 15.2321 11.5914 14.7842 11.5914 14.1193L11.5914 13.4373L13.5836 13.4373C13.7416 13.4373 13.8657 13.3035 13.8657 13.1552C13.8657 12.9972 13.7416 12.8633 13.5836 12.8633L11.5914 12.8633L11.5914 11.9877L11.6585 11.8683L13.5836 11.8683C13.7416 11.8683 13.8657 11.7442 13.8657 11.5862C13.8657 11.4259 13.7416 11.2966 13.5836 11.2966L11.99 11.2966L14.2461 7.59457C14.4011 7.33617 14.4901 7.10883 14.4901 6.81598C14.4901 6.18267 14.0049 5.76639 13.3819 5.76639C12.9232 5.76639 12.581 5.99318 12.3473 6.48407L10.5423 9.963L10.4958 9.963L8.71094 6.49153C8.47208 6.00811 8.19876 5.76409 7.65904 5.76409C6.98897 5.76409 6.51355 6.18037 6.51355 6.83837Z"
                     fill="currentColor" fill-opacity="0.85" />
       </g>
</svg>