<?xml version="1.0" encoding="UTF-8"?>
<!--Generator: Apple Native CoreSVG 326-->
<!DOCTYPE svg PUBLIC "-//W3C//DTD SVG 1.1//EN" "http://www.w3.org/Graphics/SVG/1.1/DTD/svg11.dtd">
<svg version="1.1" xmlns="http://www.w3.org/2000/svg" xmlns:xlink="http://www.w3.org/1999/xlink"
       viewBox="0 0 24.3303 21.006">
       <g>
              <rect height="21.006" opacity="0" width="24.3303" x="0" y="0" />
              <path d="M11.9856 20.9962C17.7821 20.9962 22.4837 16.2946 22.4837 10.4981C22.4837 4.70163 17.7821 0 11.9856 0C6.18916 0 1.48753 4.70163 1.48753 10.4981L4.53538 10.4981C4.53538 6.37829 7.86582 3.04785 11.9856 3.04785C16.1055 3.04785 19.4359 6.37829 19.4359 10.4981C19.4359 14.6179 16.1055 17.9484 11.9856 17.9484C9.86874 17.9484 8.05458 17.1034 6.64712 15.6524C5.97135 15.0132 5.0498 14.8117 4.35614 15.4438C3.73423 16.0162 3.72149 16.9286 4.44894 17.7463C6.08398 19.7011 9.21457 20.9962 11.9856 20.9962ZM0.808605 8.39698C-0.0138912 8.39698-0.212055 9.15901 0.22849 9.72826L2.75918 13.0277C3.05907 13.4322 3.60988 13.4224 3.91492 13.0277L6.43585 9.72596C6.86894 9.15901 6.66847 8.39698 5.8655 8.39698Z"
                     fill="currentColor" fill-opacity="0.85" />
              <path d="M11.9856 14.929C12.6086 14.929 12.9997 14.5305 12.9997 13.8954L12.9997 11.8584L15.4994 7.76398C15.6395 7.52797 15.721 7.31039 15.721 7.03993C15.721 6.45369 15.2657 6.06209 14.692 6.06209C14.2631 6.06209 13.9382 6.28888 13.7217 6.7327L12.0299 10.0026L11.9833 10.0026L10.2967 6.74016C10.0825 6.28888 9.76441 6.05978 9.31653 6.05978C8.70329 6.05978 8.25771 6.45138 8.25771 7.06231C8.25771 7.31379 8.33408 7.55265 8.46674 7.77144L10.979 11.8584L10.979 13.8954C10.979 14.5305 11.3701 14.929 11.9856 14.929ZM8.84717 11.507C8.84717 11.6552 8.97127 11.7793 9.11205 11.7793L14.8736 11.7793C15.0144 11.7793 15.1385 11.6552 15.1385 11.507C15.1385 11.3639 15.0144 11.2421 14.8736 11.2421L9.11205 11.2421C8.97127 11.2421 8.84717 11.3639 8.84717 11.507ZM8.84717 12.9801C8.84717 13.1283 8.97127 13.2524 9.11205 13.2524L14.8736 13.2524C15.0144 13.2524 15.1385 13.1283 15.1385 12.9801C15.1385 12.8393 15.0144 12.7152 14.8736 12.7152L9.11205 12.7152C8.97127 12.7152 8.84717 12.8393 8.84717 12.9801Z"
                     fill="currentColor" fill-opacity="0.85" />
       </g>
</svg>