<?xml version="1.0" encoding="UTF-8"?>
<!--Generator: Apple Native CoreSVG 326-->
<!DOCTYPE svg PUBLIC "-//W3C//DTD SVG 1.1//EN" "http://www.w3.org/Graphics/SVG/1.1/DTD/svg11.dtd">
<svg version="1.1" xmlns="http://www.w3.org/2000/svg" xmlns:xlink="http://www.w3.org/1999/xlink"
       viewBox="0 0 19.649 18.8675">
       <g>
              <rect height="18.8675" opacity="0" width="19.649" x="0" y="0" />
              <path d="M14.9105 18.8428C17.3311 18.8428 19.2877 16.8863 19.2877 14.4731C19.2877 12.0524 17.3311 10.0959 14.9105 10.0959C12.4973 10.0959 10.5333 12.0524 10.5333 14.4731C10.5333 16.8863 12.4973 18.8428 14.9105 18.8428ZM14.9105 16.2674C13.919 16.2674 13.1161 15.4645 13.1161 14.4731C13.1161 13.4742 13.919 12.6713 14.9105 12.6713C15.9094 12.6713 16.7123 13.4742 16.7123 14.4731C16.7123 15.4645 15.9094 16.2674 14.9105 16.2674Z"
                     fill="currentColor" fill-opacity="0.85" />
              <path d="M4.37718 18.8577C6.79039 18.8577 8.74691 16.8937 8.74691 14.4805C8.74691 12.0599 6.79039 10.1034 4.37718 10.1034C1.95652 10.1034 0 12.0599 0 14.4805C0 16.8937 1.95652 18.8577 4.37718 18.8577ZM4.37718 16.2749C3.3783 16.2749 2.5754 15.472 2.5754 14.4805C2.5754 13.4817 3.3783 12.6788 4.37718 12.6788C5.36861 12.6788 6.17151 13.4817 6.17151 14.4805C6.17151 15.472 5.36861 16.2749 4.37718 16.2749Z"
                     fill="currentColor" fill-opacity="0.85" />
              <path d="M14.9105 8.75437C17.3311 8.75437 19.2877 6.79039 19.2877 4.37718C19.2877 1.95652 17.3311 0 14.9105 0C12.4973 0 10.5333 1.95652 10.5333 4.37718C10.5333 6.79039 12.4973 8.75437 14.9105 8.75437ZM14.9105 6.17151C13.919 6.17151 13.1161 5.36861 13.1161 4.37718C13.1161 3.3783 13.919 2.5754 14.9105 2.5754C15.9094 2.5754 16.7123 3.3783 16.7123 4.37718C16.7123 5.36861 15.9094 6.17151 14.9105 6.17151Z"
                     fill="currentColor" fill-opacity="0.85" />
              <path d="M4.37718 8.76183C6.79039 8.76183 8.74691 6.79785 8.74691 4.38464C8.74691 1.97144 6.79039 0.00746071 4.37718 0.00746071C1.95652 0.00746071 0 1.97144 0 4.38464C0 6.79785 1.95652 8.76183 4.37718 8.76183ZM4.37718 6.17897C3.3783 6.17897 2.5754 5.37607 2.5754 4.38464C2.5754 3.39322 3.3783 2.59032 4.37718 2.59032C5.36861 2.59032 6.17151 3.39322 6.17151 4.38464C6.17151 5.37607 5.36861 6.17897 4.37718 6.17897Z"
                     fill="currentColor" fill-opacity="0.85" />
       </g>
</svg>