<?xml version="1.0" encoding="UTF-8"?>
<!--Generator: Apple Native CoreSVG 326-->
<!DOCTYPE svg PUBLIC "-//W3C//DTD SVG 1.1//EN" "http://www.w3.org/Graphics/SVG/1.1/DTD/svg11.dtd">
<svg version="1.1" xmlns="http://www.w3.org/2000/svg" xmlns:xlink="http://www.w3.org/1999/xlink"
       viewBox="0 0 21.365 21.006">
       <g>
              <rect height="21.006" opacity="0" width="21.365" x="0" y="0" />
              <path d="M10.4981 20.9962C16.302 20.9962 21.0037 16.2946 21.0037 10.4981C21.0037 4.70163 16.302 0 10.4981 0C4.70163 0 0 4.70163 0 10.4981C0 16.2946 4.70163 20.9962 10.4981 20.9962ZM10.4981 17.9484C6.37829 17.9484 3.04785 14.6179 3.04785 10.4981C3.04785 6.37829 6.37829 3.04785 10.4981 3.04785C14.6179 3.04785 17.9558 6.37829 17.9558 10.4981C17.9558 14.6179 14.6179 17.9484 10.4981 17.9484Z"
                     fill="currentColor" fill-opacity="0.85" />
              <path d="M10.4958 15.387C13.1999 15.387 15.3944 13.1948 15.3944 10.4981C15.3944 7.794 13.1999 5.59947 10.4958 5.59947C7.79916 5.59947 5.60693 7.794 5.60693 10.4981C5.60693 13.1948 7.79916 15.387 10.4958 15.387ZM10.4958 13.0452C9.08664 13.0452 7.94874 11.9073 7.94874 10.4981C7.94874 9.08895 9.08664 7.95104 10.4958 7.95104C11.905 7.95104 13.0429 9.08895 13.0429 10.4981C13.0429 11.9073 11.905 13.0452 10.4958 13.0452Z"
                     fill="currentColor" fill-opacity="0.85" />
       </g>
</svg>