<?xml version="1.0" encoding="UTF-8"?>
<!--Generator: Apple Native CoreSVG 326-->
<!DOCTYPE svg PUBLIC "-//W3C//DTD SVG 1.1//EN" "http://www.w3.org/Graphics/SVG/1.1/DTD/svg11.dtd">
<svg version="1.1" xmlns="http://www.w3.org/2000/svg" xmlns:xlink="http://www.w3.org/1999/xlink"
       viewBox="0 0 18.6419 23.9165">
       <g>
              <rect height="23.9165" opacity="0" width="18.6419" x="0" y="0" />
              <path d="M18.2805 3.4981L18.2805 20.3937C18.2805 22.5634 16.9429 23.8895 14.7473 23.8895L3.53322 23.8895C1.33765 23.8895 0 22.5634 0 20.3937L0 3.4981C0 1.32843 1.33765 0 3.53322 0L14.7473 0C16.9429 0 18.2805 1.32843 18.2805 3.4981ZM3.99736 11.9436C3.99736 14.7916 6.31806 17.0951 9.13911 17.0951C11.9699 17.0951 14.2832 14.7916 14.2832 11.9436C14.2832 9.10763 11.9699 6.80416 9.13911 6.80416C6.31806 6.80416 3.99736 9.10763 3.99736 11.9436Z"
                     fill="currentColor" fill-opacity="0.85" />
       </g>
</svg>