<?xml version="1.0" encoding="UTF-8"?>
<!--Generator: Apple Native CoreSVG 326-->
<!DOCTYPE svg PUBLIC "-//W3C//DTD SVG 1.1//EN" "http://www.w3.org/Graphics/SVG/1.1/DTD/svg11.dtd">
<svg version="1.1" xmlns="http://www.w3.org/2000/svg" xmlns:xlink="http://www.w3.org/1999/xlink"
       viewBox="0 0 19.3993 19.0529">
       <g>
              <rect height="19.0529" opacity="0" width="19.3993" x="0" y="0" />
              <path d="M3.64834 19.0379L15.3896 19.0379C17.7164 19.0379 19.0379 17.7262 19.0379 15.4011L19.0379 3.63912C19.0379 1.32151 17.7164 0 15.3896 0L3.64834 0C1.32382 0 0 1.32151 0 3.63912L0 15.4011C0 17.7262 1.32382 19.0379 3.64834 19.0379ZM4.05583 16.0183C3.37024 16.0183 3.01964 15.7096 3.01964 14.9775L3.01964 4.07021C3.01964 3.33809 3.37024 3.0271 4.05583 3.0271L14.9821 3.0271C15.6654 3.0271 16.0183 3.33809 16.0183 4.07021L16.0183 14.9775C16.0183 15.7096 15.6654 16.0183 14.9821 16.0183Z"
                     fill="currentColor" fill-opacity="0.85" />
              <path d="M9.52385 14.4104C12.2303 14.4104 14.4225 12.2182 14.4225 9.52155C14.4225 6.81744 12.2303 4.6229 9.52385 4.6229C6.8272 4.6229 4.63497 6.81744 4.63497 9.52155C4.63497 12.2182 6.8272 14.4104 9.52385 14.4104ZM9.52385 12.0686C8.11469 12.0686 6.97679 10.9307 6.97679 9.52155C6.97679 8.11239 8.11469 6.97448 9.52385 6.97448C10.933 6.97448 12.0709 8.11239 12.0709 9.52155C12.0709 10.9307 10.933 12.0686 9.52385 12.0686Z"
                     fill="currentColor" fill-opacity="0.85" />
       </g>
</svg>