<?xml version="1.0" encoding="UTF-8"?>
<!--Generator: Apple Native CoreSVG 326-->
<!DOCTYPE svg PUBLIC "-//W3C//DTD SVG 1.1//EN" "http://www.w3.org/Graphics/SVG/1.1/DTD/svg11.dtd">
<svg version="1.1" xmlns="http://www.w3.org/2000/svg" xmlns:xlink="http://www.w3.org/1999/xlink"
       viewBox="0 0 21.365 21.006">
       <g>
              <rect height="21.006" opacity="0" width="21.365" x="0" y="0" />
              <path d="M19.374 10.5056C19.374 5.41889 15.5922 1.63717 10.5004 1.63717L10.5004 19.3717C15.5922 19.3717 19.374 15.5997 19.374 10.5056ZM11.5282 2.71533L11.5282 1.11522L7.96954 1.11522L7.96954 2.71533ZM11.5282 4.84478L11.5282 3.3057L4.25642 3.3057L4.25642 4.84478ZM11.5282 6.97193L11.5282 5.4403L2.62119 5.4403L2.62119 6.97193ZM11.5282 9.1163L11.5282 7.56976L2.29996 7.56976L2.29996 9.1163ZM11.5282 11.2285L11.5282 9.6969L2.29996 9.6969L2.29996 11.2285ZM11.5282 13.3654L11.5282 11.8264L2.29996 11.8264L2.29996 13.3654ZM11.5282 15.4949L11.5282 13.9558L2.62119 13.9558L2.62119 15.4949ZM11.5282 17.6905L11.5282 16.083L4.25642 16.083L4.25642 17.6905ZM11.5282 19.881L11.5282 18.2883L7.96954 18.2883L7.96954 19.881ZM10.4981 20.9962C16.302 20.9962 21.0037 16.2946 21.0037 10.4981C21.0037 4.70163 16.302 0 10.4981 0C4.70163 0 0 4.70163 0 10.4981C0 16.2946 4.70163 20.9962 10.4981 20.9962ZM10.4981 17.9484C6.37829 17.9484 3.04785 14.6179 3.04785 10.4981C3.04785 6.37829 6.37829 3.04785 10.4981 3.04785C14.6179 3.04785 17.9558 6.37829 17.9558 10.4981C17.9558 14.6179 14.6179 17.9484 10.4981 17.9484Z"
                     fill="currentColor" fill-opacity="0.85" />
       </g>
</svg>