<?xml version="1.0" encoding="UTF-8"?>
<!--Generator: Apple Native CoreSVG 326-->
<!DOCTYPE svg PUBLIC "-//W3C//DTD SVG 1.1//EN" "http://www.w3.org/Graphics/SVG/1.1/DTD/svg11.dtd">
<svg version="1.1" xmlns="http://www.w3.org/2000/svg" xmlns:xlink="http://www.w3.org/1999/xlink"
       viewBox="0 0 21.365 21.006">
       <g>
              <rect height="21.006" opacity="0" width="21.365" x="0" y="0" />
              <path d="M21.0037 10.4981C21.0037 16.2923 16.302 20.9962 10.4981 20.9962C4.70394 20.9962 0 16.2923 0 10.4981C0 4.70163 4.70394 0 10.4981 0C16.302 0 21.0037 4.70163 21.0037 10.4981ZM5.28654 10.4981C5.28654 13.3722 7.62404 15.7171 10.4981 15.7171C13.3796 15.7171 15.7194 13.3722 15.7194 10.4981C15.7194 7.62404 13.3796 5.27678 10.4981 5.27678C7.62404 5.27678 5.28654 7.62404 5.28654 10.4981ZM13.2048 10.4981C13.2048 11.9957 11.9957 13.1974 10.4981 13.1974C9.00051 13.1974 7.79886 11.9957 7.79886 10.4981C7.79886 9.00051 9.00051 7.7914 10.4981 7.7914C11.9957 7.7914 13.2048 9.00051 13.2048 10.4981Z"
                     fill="currentColor" fill-opacity="0.85" />
       </g>
</svg>