<?xml version="1.0" encoding="UTF-8"?>
<!--Generator: Apple Native CoreSVG 326-->
<!DOCTYPE svg PUBLIC "-//W3C//DTD SVG 1.1//EN" "http://www.w3.org/Graphics/SVG/1.1/DTD/svg11.dtd">
<svg version="1.1" xmlns="http://www.w3.org/2000/svg" xmlns:xlink="http://www.w3.org/1999/xlink"
       viewBox="0 0 23.8214 19.0529">
       <g>
              <rect height="19.0529" opacity="0" width="23.8214" x="0" y="0" />
              <path d="M3.64834 19.0529L19.8117 19.0529C22.1386 19.0529 23.4601 17.7336 23.4601 15.416L23.4601 3.65404C23.4601 1.32897 22.1386 0.0149214 19.8117 0.0149214L3.64834 0.0149214C1.32382 0.0149214 0 1.32897 0 3.65404L0 15.416C0 17.7336 1.32382 19.0529 3.64834 19.0529ZM4.05583 16.0332C3.37024 16.0332 3.01964 15.7171 3.01964 14.985L3.01964 4.07767C3.01964 3.34555 3.37024 3.03457 4.05583 3.03457L19.4042 3.03457C20.0875 3.03457 20.4404 3.34555 20.4404 4.07767L20.4404 14.985C20.4404 15.7171 20.0875 16.0332 19.4042 16.0332Z"
                     fill="currentColor" fill-opacity="0.85" />
              <path d="M6.50124 8.81502L8.36763 8.81502C8.44521 8.42701 8.58951 8.06544 8.80107 7.74184L7.47222 6.41068C6.96144 7.11271 6.61843 7.92854 6.50124 8.81502ZM8.55893 5.32397L9.88494 6.64251C10.2085 6.42809 10.5707 6.27863 10.9638 6.19359L10.9638 4.31228C10.0722 4.44439 9.24605 4.80002 8.55893 5.32397ZM12.5083 4.31228L12.5083 6.19359C12.8917 6.27863 13.2487 6.42809 13.5774 6.6402L14.9011 5.32627C14.2186 4.80002 13.3902 4.4467 12.5083 4.31228ZM15.9925 6.41298L14.6613 7.74414C14.8631 8.06774 15.0172 8.42701 15.0924 8.81502L16.9588 8.81502C16.8319 7.92854 16.4912 7.11502 15.9925 6.41298ZM16.9439 10.3618L15.0603 10.3618C14.9753 10.728 14.8258 11.07 14.6211 11.3764L15.9523 12.7001C16.4562 12.0251 16.8095 11.2265 16.9439 10.3618ZM14.8484 13.7891L13.5172 12.458C13.2108 12.6621 12.8739 12.8012 12.5083 12.8816L12.5083 14.7526C13.3724 14.6257 14.1733 14.2901 14.8484 13.7891ZM10.9638 14.7526L10.9638 12.8816C10.5907 12.8012 10.2538 12.6621 9.94517 12.4603L8.61171 13.7914C9.29136 14.2924 10.0923 14.6257 10.9638 14.7526ZM7.51007 12.7047L8.84123 11.3787C8.63427 11.0723 8.48481 10.7303 8.39977 10.3618L6.51616 10.3618C6.65057 11.2288 7.0039 12.0274 7.51007 12.7047Z"
                     fill="currentColor" fill-opacity="0.85" />
       </g>
</svg>