<?xml version="1.0" encoding="UTF-8"?>
<!--Generator: Apple Native CoreSVG 326-->
<!DOCTYPE svg PUBLIC "-//W3C//DTD SVG 1.1//EN" "http://www.w3.org/Graphics/SVG/1.1/DTD/svg11.dtd">
<svg version="1.1" xmlns="http://www.w3.org/2000/svg" xmlns:xlink="http://www.w3.org/1999/xlink"
       viewBox="0 0 15.887 23.6329">
       <g>
              <rect height="23.6329" opacity="0" width="15.887" x="0" y="0" />
              <path d="M15.5257 3.19561L15.5257 20.3879C15.5257 22.2993 14.2747 23.5835 12.3994 23.5835L3.30533 23.5835C1.32558 23.5835 0 22.2993 0 20.3954L0 3.18814C0 1.27675 1.32558 0 3.30533 0L12.3994 0C14.2747 0 15.5257 1.27675 15.5257 3.19561ZM3.37236 11.7869C3.37236 14.2055 5.34532 16.1785 7.76398 16.1785C10.1826 16.1785 12.1556 14.2055 12.1556 11.7869C12.1556 9.37567 10.1826 7.40271 7.76398 7.40271C5.34532 7.40271 3.37236 9.37567 3.37236 11.7869Z"
                     fill="currentColor" fill-opacity="0.85" />
       </g>
</svg>