<?xml version="1.0" encoding="UTF-8"?>
<!--Generator: Apple Native CoreSVG 326-->
<!DOCTYPE svg PUBLIC "-//W3C//DTD SVG 1.1//EN" "http://www.w3.org/Graphics/SVG/1.1/DTD/svg11.dtd">
<svg version="1.1" xmlns="http://www.w3.org/2000/svg" xmlns:xlink="http://www.w3.org/1999/xlink"
       viewBox="0 0 19.649 18.8675">
       <g>
              <rect height="18.8675" opacity="0" width="19.649" x="0" y="0" />
              <path d="M14.9105 18.8428C17.3311 18.8428 19.2877 16.8863 19.2877 14.4731C19.2877 12.0524 17.3311 10.0959 14.9105 10.0959C12.4973 10.0959 10.5333 12.0524 10.5333 14.4731C10.5333 16.8863 12.4973 18.8428 14.9105 18.8428Z"
                     fill="currentColor" fill-opacity="0.85" />
              <path d="M4.37718 18.8577C6.79039 18.8577 8.74691 16.8937 8.74691 14.4805C8.74691 12.0599 6.79039 10.1034 4.37718 10.1034C1.95652 10.1034 0 12.0599 0 14.4805C0 16.8937 1.95652 18.8577 4.37718 18.8577Z"
                     fill="currentColor" fill-opacity="0.85" />
              <path d="M14.9105 8.75437C17.3311 8.75437 19.2877 6.79039 19.2877 4.37718C19.2877 1.95652 17.3311 0 14.9105 0C12.4973 0 10.5333 1.95652 10.5333 4.37718C10.5333 6.79039 12.4973 8.75437 14.9105 8.75437Z"
                     fill="currentColor" fill-opacity="0.85" />
              <path d="M4.37718 8.76183C6.79039 8.76183 8.74691 6.79785 8.74691 4.38464C8.74691 1.97144 6.79039 0.00746071 4.37718 0.00746071C1.95652 0.00746071 0 1.97144 0 4.38464C0 6.79785 1.95652 8.76183 4.37718 8.76183Z"
                     fill="currentColor" fill-opacity="0.85" />
       </g>
</svg>