<?xml version="1.0" encoding="UTF-8"?>
<!--Generator: Apple Native CoreSVG 326-->
<!DOCTYPE svg PUBLIC "-//W3C//DTD SVG 1.1//EN" "http://www.w3.org/Graphics/SVG/1.1/DTD/svg11.dtd">
<svg version="1.1" xmlns="http://www.w3.org/2000/svg" xmlns:xlink="http://www.w3.org/1999/xlink"
       viewBox="0 0 21.365 21.006">
       <g>
              <rect height="21.006" opacity="0" width="21.365" x="0" y="0" />
              <path d="M3.05015 10.4981C3.05015 9.78849 3.14957 9.10818 3.32887 8.45891L0.504962 7.28467C0.180391 8.29799 0 9.37737 0 10.4981C0 11.6165 0.180391 12.6908 0.507267 13.7115L3.32887 12.5298C3.14957 11.888 3.05015 11.2077 3.05015 10.4981ZM6.87088 3.97613L5.70125 1.15914C3.76019 2.1707 2.16839 3.7625 1.16429 5.70355L3.98589 6.87549C4.65523 5.65848 5.65618 4.65008 6.87088 3.97613ZM10.4958 3.04785C11.2054 3.04785 11.8857 3.14726 12.5396 3.32887L13.7092 0.507267C12.6959 0.180391 11.6142 0 10.4958 0C9.38483 0 8.30084 0.180391 7.28006 0.507267L8.46177 3.32887C9.10587 3.14726 9.78619 3.04785 10.4958 3.04785ZM17.0178 6.87318L19.8371 5.70355C18.8232 3.7625 17.2314 2.1707 15.2904 1.15683L14.1207 3.97613C15.3354 4.64777 16.3461 5.65618 17.0178 6.87318ZM17.9558 10.4981C17.9558 11.2077 17.849 11.888 17.6697 12.5321L20.489 13.7139C20.8233 12.6931 21.0037 11.6165 21.0037 10.4981C21.0037 9.37737 20.8233 8.29569 20.489 7.28237L17.6673 8.45661C17.849 9.10818 17.9558 9.78849 17.9558 10.4981ZM14.1207 17.0103L15.2904 19.8319C17.2337 18.8255 18.8255 17.2337 19.8348 15.2927L17.0201 14.123C16.3484 15.34 15.3377 16.3387 14.1207 17.0103ZM10.4981 17.9484C9.78619 17.9484 9.10587 17.849 8.46177 17.6673L7.28237 20.489C8.30315 20.8158 9.38713 20.9962 10.4981 20.9962C11.6165 20.9962 12.6982 20.8158 13.7092 20.4913L12.5373 17.6697C11.8857 17.849 11.2077 17.9484 10.4981 17.9484ZM3.98589 14.123L1.1666 15.2927C2.173 17.2337 3.76019 18.8255 5.70125 19.8296L6.87088 17.008C5.65618 16.3364 4.65523 15.3377 3.98589 14.123Z"
                     fill="currentColor" fill-opacity="0.85" />
       </g>
</svg>