<?xml version="1.0" encoding="UTF-8"?>
<!--Generator: Apple Native CoreSVG 326-->
<!DOCTYPE svg PUBLIC "-//W3C//DTD SVG 1.1//EN" "http://www.w3.org/Graphics/SVG/1.1/DTD/svg11.dtd">
<svg version="1.1" xmlns="http://www.w3.org/2000/svg" xmlns:xlink="http://www.w3.org/1999/xlink"
       viewBox="0 0 23.8214 19.0529">
       <g>
              <rect height="19.0529" opacity="0" width="23.8214" x="0" y="0" />
              <path d="M3.64834 19.0529L19.8117 19.0529C22.1386 19.0529 23.4601 17.7336 23.4601 15.416L23.4601 3.65404C23.4601 1.32897 22.1386 0.0149214 19.8117 0.0149214L3.64834 0.0149214C1.32382 0.0149214 0 1.32897 0 3.65404L0 15.416C0 17.7336 1.32382 19.0529 3.64834 19.0529ZM4.05583 16.0332C3.37024 16.0332 3.01964 15.7171 3.01964 14.985L3.01964 4.07767C3.01964 3.34555 3.37024 3.03457 4.05583 3.03457L19.4042 3.03457C20.0875 3.03457 20.4404 3.34555 20.4404 4.07767L20.4404 14.985C20.4404 15.7171 20.0875 16.0332 19.4042 16.0332Z"
                     fill="currentColor" fill-opacity="0.85" />
              <path d="M11.7208 14.8066C14.6293 14.8066 16.9938 12.4421 16.9938 9.53131C16.9938 6.62279 14.6293 4.2583 11.7208 4.2583C8.80999 4.2583 6.4455 6.62279 6.4455 9.53131C6.4455 12.4421 8.80999 14.8066 11.7208 14.8066ZM11.7208 12.9724C9.81439 12.9724 8.2872 11.4377 8.2872 9.53131C8.2872 7.62489 9.81439 6.1 11.7208 6.1C13.6272 6.1 15.1596 7.62489 15.1596 9.53131C15.1596 11.4377 13.6272 12.9724 11.7208 12.9724ZM8.30127 11.866L13.882 6.27032L12.7165 5.23122L7.87619 10.0715ZM10.7987 13.8452L15.6343 9.00955L15.207 7.21971L9.63546 12.8038Z"
                     fill="currentColor" fill-opacity="0.85" />
       </g>
</svg>