<?xml version="1.0" encoding="UTF-8"?>
<!--Generator: Apple Native CoreSVG 326-->
<!DOCTYPE svg PUBLIC "-//W3C//DTD SVG 1.1//EN" "http://www.w3.org/Graphics/SVG/1.1/DTD/svg11.dtd">
<svg version="1.1" xmlns="http://www.w3.org/2000/svg" xmlns:xlink="http://www.w3.org/1999/xlink"
       viewBox="0 0 29.4779 21.006">
       <g>
              <rect height="21.006" opacity="0" width="29.4779" x="0" y="0" />
              <path d="M0 10.513C0 11.306 0.632765 12.0553 1.53533 12.0553L27.5961 12.0553C28.4987 12.0553 29.1165 11.306 29.1165 10.513C29.1165 9.70515 28.4987 8.95817 27.5961 8.95817L1.53533 8.95817C0.632765 8.95817 0 9.70515 0 10.513ZM14.5643 20.9962C20.3608 20.9962 25.0624 16.2946 25.0624 10.4981C25.0624 4.70163 20.3608 0 14.5643 0C8.75807 0 4.05874 4.70163 4.05874 10.4981C4.05874 16.2946 8.75807 20.9962 14.5643 20.9962ZM14.5643 17.9484C10.4445 17.9484 7.10428 14.6179 7.10428 10.4981C7.10428 6.37829 10.4445 3.04785 14.5643 3.04785C18.6841 3.04785 22.0146 6.37829 22.0146 10.4981C22.0146 14.6179 18.6841 17.9484 14.5643 17.9484Z"
                     fill="currentColor" fill-opacity="0.85" />
       </g>
</svg>