<?xml version="1.0" encoding="UTF-8"?>
<!--Generator: Apple Native CoreSVG 326-->
<!DOCTYPE svg PUBLIC "-//W3C//DTD SVG 1.1//EN" "http://www.w3.org/Graphics/SVG/1.1/DTD/svg11.dtd">
<svg version="1.1" xmlns="http://www.w3.org/2000/svg" xmlns:xlink="http://www.w3.org/1999/xlink"
       viewBox="0 0 21.365 21.006">
       <g>
              <rect height="21.006" opacity="0" width="21.365" x="0" y="0" />
              <path d="M10.4981 20.9962C16.302 20.9962 21.0037 16.2946 21.0037 10.4981C21.0037 4.70163 16.302 0 10.4981 0C4.70163 0 0 4.70163 0 10.4981C0 16.2946 4.70163 20.9962 10.4981 20.9962ZM10.4981 17.9484C6.37829 17.9484 3.04785 14.6179 3.04785 10.4981C3.04785 6.37829 6.37829 3.04785 10.4981 3.04785C14.6179 3.04785 17.9558 6.37829 17.9558 10.4981C17.9558 14.6179 14.6179 17.9484 10.4981 17.9484Z"
                     fill="currentColor" fill-opacity="0.85" />
              <path d="M10.4958 7.26642C10.9633 7.26642 11.3235 6.91376 11.3235 6.44622C11.3235 5.98615 10.9633 5.62603 10.4958 5.62603C10.0357 5.62603 9.67561 5.98615 9.67561 6.44622C9.67561 6.91376 10.0357 7.26642 10.4958 7.26642ZM12.5341 7.80013C12.9965 7.80013 13.3566 7.44747 13.3566 6.97994C13.3566 6.51986 12.9965 6.15975 12.5341 6.15975C12.074 6.15975 11.7139 6.51986 11.7139 6.97994C11.7139 7.44747 12.074 7.80013 12.5341 7.80013ZM14.0237 9.29724C14.4913 9.29724 14.8514 8.93713 14.8514 8.47705C14.8514 8.00951 14.4913 7.6494 14.0237 7.6494C13.5637 7.6494 13.2035 8.00951 13.2035 8.47705C13.2035 8.93713 13.5637 9.29724 14.0237 9.29724ZM14.5649 11.3206C15.0325 11.3206 15.3926 10.9605 15.3926 10.5004C15.3926 10.0403 15.0325 9.68022 14.5649 9.68022C14.1048 9.68022 13.7447 10.0403 13.7447 10.5004C13.7447 10.9605 14.1048 11.3206 14.5649 11.3206ZM14.0237 13.3537C14.4913 13.3537 14.8514 12.9936 14.8514 12.5261C14.8514 12.0637 14.4913 11.7036 14.0237 11.7036C13.5637 11.7036 13.2035 12.0637 13.2035 12.5261C13.2035 12.9936 13.5637 13.3537 14.0237 13.3537ZM12.5341 14.8411C12.9965 14.8411 13.3566 14.481 13.3566 14.0209C13.3566 13.5534 12.9965 13.1932 12.5341 13.1932C12.074 13.1932 11.7139 13.5534 11.7139 14.0209C11.7139 14.481 12.074 14.8411 12.5341 14.8411ZM10.4958 15.3748C10.9633 15.3748 11.3235 15.0147 11.3235 14.5546C11.3235 14.0871 10.9633 13.727 10.4958 13.727C10.0357 13.727 9.67561 14.0871 9.67561 14.5546C9.67561 15.0147 10.0357 15.3748 10.4958 15.3748ZM8.46498 14.8411C8.92506 14.8411 9.28517 14.481 9.28517 14.0209C9.28517 13.5534 8.92506 13.1932 8.46498 13.1932C7.99744 13.1932 7.63733 13.5534 7.63733 14.0209C7.63733 14.481 7.99744 14.8411 8.46498 14.8411ZM6.96787 13.3537C7.4354 13.3537 7.79552 12.9936 7.79552 12.5261C7.79552 12.0637 7.4354 11.7036 6.96787 11.7036C6.50779 11.7036 6.14767 12.0637 6.14767 12.5261C6.14767 12.9936 6.50779 13.3537 6.96787 13.3537ZM6.42669 11.3206C6.89423 11.3206 7.24688 10.9605 7.24688 10.5004C7.24688 10.0403 6.89423 9.68022 6.42669 9.68022C5.96662 9.68022 5.6065 10.0403 5.6065 10.5004C5.6065 10.9605 5.96662 11.3206 6.42669 11.3206ZM6.96787 9.29724C7.4354 9.29724 7.79552 8.93713 7.79552 8.47705C7.79552 8.00951 7.4354 7.6494 6.96787 7.6494C6.50779 7.6494 6.14767 8.00951 6.14767 8.47705C6.14767 8.93713 6.50779 9.29724 6.96787 9.29724ZM8.46498 7.80013C8.92506 7.80013 9.28517 7.44747 9.28517 6.97994C9.28517 6.51986 8.92506 6.15975 8.46498 6.15975C7.99744 6.15975 7.63733 6.51986 7.63733 6.97994C7.63733 7.44747 7.99744 7.80013 8.46498 7.80013Z"
                     fill="currentColor" fill-opacity="0.85" />
       </g>
</svg>