<?xml version="1.0" encoding="UTF-8"?>
<!--Generator: Apple Native CoreSVG 326-->
<!DOCTYPE svg PUBLIC "-//W3C//DTD SVG 1.1//EN" "http://www.w3.org/Graphics/SVG/1.1/DTD/svg11.dtd">
<svg version="1.1" xmlns="http://www.w3.org/2000/svg" xmlns:xlink="http://www.w3.org/1999/xlink"
       viewBox="0 0 23.8214 19.0529">
       <g>
              <rect height="19.0529" opacity="0" width="23.8214" x="0" y="0" />
              <path d="M23.4601 3.65404L23.4601 15.416C23.4601 17.7336 22.1386 19.0529 19.8117 19.0529L3.64834 19.0529C1.32382 19.0529 0 17.7336 0 15.416L0 3.65404C0 1.32897 1.32382 0.0149214 3.64834 0.0149214L19.8117 0.0149214C22.1386 0.0149214 23.4601 1.32897 23.4601 3.65404ZM16.085 3.03457L14.2247 4.89165C13.4796 4.48762 12.6266 4.2583 11.7208 4.2583C11.6855 4.2583 11.6503 4.25865 11.6162 4.26359L12.8459 3.03457L9.1937 3.03457L3.01964 9.20862L3.01964 12.862L6.45057 9.43107C6.44582 9.46371 6.4455 9.49747 6.4455 9.53131C6.4455 10.4378 6.67483 11.2914 7.07893 12.0368L3.3044 15.8042C3.47644 15.9608 3.72779 16.0332 4.05583 16.0332L7.3299 16.0332L9.20113 14.1655C9.94992 14.5744 10.8085 14.8066 11.7208 14.8066C11.7453 14.8066 11.7698 14.8065 11.7934 14.803L10.5662 16.0332L14.2137 16.0332L20.4404 9.80482L20.4404 6.15356L16.9902 9.60383C16.9937 9.58023 16.9938 9.55579 16.9938 9.53131C16.9938 8.6232 16.7633 7.76813 16.3576 7.02155L20.1341 3.24345C19.9627 3.1003 19.7184 3.03457 19.4042 3.03457ZM17.4597 16.0332L19.4042 16.0332C20.0875 16.0332 20.4404 15.7171 20.4404 14.985L20.4404 13.0512ZM4.05583 3.03457C3.37024 3.03457 3.01964 3.34555 3.01964 4.07767L3.01964 5.95809L5.94578 3.03457Z"
                     fill="currentColor" fill-opacity="0.85" />
              <path d="M11.7208 14.8066C14.6293 14.8066 16.9938 12.4421 16.9938 9.53131C16.9938 6.62279 14.6293 4.2583 11.7208 4.2583C8.80999 4.2583 6.4455 6.62279 6.4455 9.53131C6.4455 12.4421 8.80999 14.8066 11.7208 14.8066ZM11.7208 12.9724C9.81439 12.9724 8.2872 11.4377 8.2872 9.53131C8.2872 7.62489 9.81439 6.1 11.7208 6.1C13.6272 6.1 15.1596 7.62489 15.1596 9.53131C15.1596 11.4377 13.6272 12.9724 11.7208 12.9724Z"
                     fill="currentColor" fill-opacity="0.85" />
       </g>
</svg>