<?xml version="1.0" encoding="UTF-8"?>
<!--Generator: Apple Native CoreSVG 326-->
<!DOCTYPE svg PUBLIC "-//W3C//DTD SVG 1.1//EN" "http://www.w3.org/Graphics/SVG/1.1/DTD/svg11.dtd">
<svg version="1.1" xmlns="http://www.w3.org/2000/svg" xmlns:xlink="http://www.w3.org/1999/xlink"
       viewBox="0 0 22.9589 21.9556">
       <g>
              <rect height="21.9556" opacity="0" width="22.9589" x="0" y="0" />
              <path d="M19.2834 21.9332C21.1093 21.9332 22.5952 20.4548 22.5952 18.6214C22.5952 16.788 21.1093 15.3096 19.2834 15.3096C17.45 15.3096 15.9641 16.788 15.9641 18.6214C15.9641 20.4548 17.45 21.9332 19.2834 21.9332Z"
                     fill="currentColor" fill-opacity="0.85" />
              <path d="M11.2976 21.9332C13.131 21.9332 14.6094 20.4548 14.6094 18.6214C14.6094 16.788 13.131 15.3096 11.2976 15.3096C9.46423 15.3096 7.9858 16.788 7.9858 18.6214C7.9858 20.4548 9.46423 21.9332 11.2976 21.9332Z"
                     fill="currentColor" fill-opacity="0.85" />
              <path d="M3.31182 21.9407C5.14521 21.9407 6.62595 20.4623 6.62595 18.6289C6.62595 16.7955 5.14521 15.3171 3.31182 15.3171C1.47843 15.3171 0 16.7955 0 18.6289C0 20.4623 1.47843 21.9407 3.31182 21.9407Z"
                     fill="currentColor" fill-opacity="0.85" />
              <path d="M19.2834 14.2796C21.1093 14.2796 22.5952 12.8012 22.5952 10.9678C22.5952 9.13438 21.1093 7.65595 19.2834 7.65595C17.45 7.65595 15.9641 9.13438 15.9641 10.9678C15.9641 12.8012 17.45 14.2796 19.2834 14.2796Z"
                     fill="currentColor" fill-opacity="0.85" />
              <path d="M11.2976 14.2796C13.131 14.2796 14.6094 12.8012 14.6094 10.9678C14.6094 9.13438 13.131 7.65595 11.2976 7.65595C9.46423 7.65595 7.9858 9.13438 7.9858 10.9678C7.9858 12.8012 9.46423 14.2796 11.2976 14.2796Z"
                     fill="currentColor" fill-opacity="0.85" />
              <path d="M3.31182 14.2871C5.14521 14.2871 6.62595 12.8086 6.62595 10.9752C6.62595 9.14184 5.14521 7.66341 3.31182 7.66341C1.47843 7.66341 0 9.14184 0 10.9752C0 12.8086 1.47843 14.2871 3.31182 14.2871Z"
                     fill="currentColor" fill-opacity="0.85" />
              <path d="M19.2857 6.62595C21.1191 6.62595 22.5975 5.14521 22.5975 3.31413C22.5975 1.48074 21.1191 0 19.2857 0C17.4523 0 15.9739 1.48074 15.9739 3.31413C15.9739 5.14521 17.4523 6.62595 19.2857 6.62595Z"
                     fill="currentColor" fill-opacity="0.85" />
              <path d="M11.2999 6.62595C13.1333 6.62595 14.6117 5.14521 14.6117 3.31413C14.6117 1.48074 13.1333 0 11.2999 0C9.46653 0 7.9881 1.48074 7.9881 3.31413C7.9881 5.14521 9.46653 6.62595 11.2999 6.62595Z"
                     fill="currentColor" fill-opacity="0.85" />
              <path d="M3.31413 6.63341C5.14752 6.63341 6.62825 5.15267 6.62825 3.32159C6.62825 1.4882 5.14752 0.00746071 3.31413 0.00746071C1.48074 0.00746071 0.00230491 1.4882 0.00230491 3.32159C0.00230491 5.15267 1.48074 6.63341 3.31413 6.63341Z"
                     fill="currentColor" fill-opacity="0.85" />
       </g>
</svg>