<?xml version="1.0" encoding="UTF-8"?>
<!--Generator: Apple Native CoreSVG 326-->
<!DOCTYPE svg PUBLIC "-//W3C//DTD SVG 1.1//EN" "http://www.w3.org/Graphics/SVG/1.1/DTD/svg11.dtd">
<svg version="1.1" xmlns="http://www.w3.org/2000/svg" xmlns:xlink="http://www.w3.org/1999/xlink"
       viewBox="0 0 23.6052 23.2669">
       <g>
              <rect height="23.2669" opacity="0" width="23.6052" x="0" y="0" />
              <path d="M17.2832 20.4613C15.6543 21.518 13.7111 22.1267 11.6268 22.1267C5.83035 22.1267 1.12872 17.4227 1.12872 11.6285C1.12872 9.55 1.73328 7.61224 2.7839 5.9869ZM22.1249 11.6285C22.1249 13.7063 21.52 15.6439 20.4691 17.2693L5.97814 2.7899C7.60503 1.73671 9.54534 1.13043 11.6268 1.13043C17.421 1.13043 22.1249 5.83207 22.1249 11.6285Z"
                     fill="currentColor" fill-opacity="0.85" />
              <path d="M20.3857 21.5931C20.716 21.9233 21.2714 21.9285 21.5994 21.5908C21.9222 21.2582 21.9296 20.7148 21.5994 20.3771L2.86106 1.65141C2.53078 1.32114 1.97766 1.32114 1.63762 1.65141C1.31712 1.97938 1.31712 2.54457 1.63762 2.86508Z"
                     fill="currentColor" fill-opacity="0.85" />
       </g>
</svg>