<?xml version="1.0" encoding="UTF-8"?>
<!--Generator: Apple Native CoreSVG 326-->
<!DOCTYPE svg PUBLIC "-//W3C//DTD SVG 1.1//EN" "http://www.w3.org/Graphics/SVG/1.1/DTD/svg11.dtd">
<svg version="1.1" xmlns="http://www.w3.org/2000/svg" xmlns:xlink="http://www.w3.org/1999/xlink"
       viewBox="0 0 23.4096 23.5319">
       <g>
              <rect height="23.5319" opacity="0" width="23.4096" x="0" y="0" />
              <path d="M11.5193 23.5124C13.9129 23.5124 15.889 21.5289 15.889 19.1427C15.889 16.7588 13.9129 14.7753 11.5193 14.7753C9.10836 14.7753 7.13461 16.7588 7.13461 19.1427C7.13461 21.5289 9.10836 23.5124 11.5193 23.5124ZM11.5118 20.9272C10.5008 20.9272 9.71747 20.1462 9.71747 19.1501C9.71747 18.1513 10.5008 17.3438 11.5118 17.3438C12.5153 17.3438 13.3038 18.1513 13.3038 19.1501C13.3038 20.1462 12.5153 20.9272 11.5118 20.9272Z"
                     fill="currentColor" fill-opacity="0.85" />
              <path d="M18.6809 16.1285C21.0722 16.1285 23.0483 14.1525 23.0483 11.7588C23.0483 9.37488 21.0722 7.39137 18.6809 7.39137C16.2677 7.39137 14.2939 9.37488 14.2939 11.7588C14.2939 14.1525 16.2677 16.1285 18.6809 16.1285ZM18.6734 13.5433C17.6601 13.5433 16.8716 12.7623 16.8716 11.7662C16.8716 10.7651 17.6601 9.95985 18.6734 9.95985C19.6671 9.95985 20.4631 10.7651 20.4631 11.7662C20.4631 12.7623 19.6671 13.5433 18.6734 13.5433Z"
                     fill="currentColor" fill-opacity="0.85" />
              <path d="M4.38464 16.1285C6.77831 16.1285 8.74691 14.1525 8.74691 11.7588C8.74691 9.37488 6.77831 7.39137 4.38464 7.39137C1.96398 7.39137 0 9.37488 0 11.7588C0 14.1525 1.96398 16.1285 4.38464 16.1285Z"
                     fill="currentColor" fill-opacity="0.85" />
              <path d="M11.5193 8.7446C13.9129 8.7446 15.889 6.76109 15.889 4.36742C15.889 1.98121 13.9129 0 11.5193 0C9.10836 0 7.13461 1.98121 7.13461 4.36742C7.13461 6.76109 9.10836 8.7446 11.5193 8.7446ZM11.5118 6.14967C10.5008 6.14967 9.71747 5.36861 9.71747 4.37488C9.71747 3.38115 10.5008 2.56848 11.5118 2.56848C12.5153 2.56848 13.3038 3.38115 13.3038 4.37488C13.3038 5.36861 12.5153 6.14967 11.5118 6.14967Z"
                     fill="currentColor" fill-opacity="0.85" />
       </g>
</svg>