<?xml version="1.0" encoding="UTF-8"?>
<!--Generator: Apple Native CoreSVG 326-->
<!DOCTYPE svg PUBLIC "-//W3C//DTD SVG 1.1//EN" "http://www.w3.org/Graphics/SVG/1.1/DTD/svg11.dtd">
<svg version="1.1" xmlns="http://www.w3.org/2000/svg" xmlns:xlink="http://www.w3.org/1999/xlink"
       viewBox="0 0 21.365 21.006">
       <g>
              <rect height="21.006" opacity="0" width="21.365" x="0" y="0" />
              <path d="M1.62971 10.5056C1.62971 15.5997 5.41143 19.3717 10.4958 19.3717L10.4958 1.63717C5.41143 1.63717 1.62971 5.41889 1.62971 10.5056ZM9.47551 2.70787L13.0267 2.70787L13.0267 1.10776L9.47551 1.10776ZM9.47551 4.84478L16.7398 4.84478L16.7398 3.3057L9.47551 3.3057ZM9.47551 6.97193L18.3825 6.97193L18.3825 5.4403L9.47551 5.4403ZM9.47551 9.1163L18.6963 9.1163L18.6963 7.56976L9.47551 7.56976ZM9.47551 11.2285L18.6963 11.2285L18.6963 9.6969L9.47551 9.6969ZM9.47551 13.3654L18.6963 13.3654L18.6963 11.8264L9.47551 11.8264ZM9.47551 15.4949L18.3825 15.4949L18.3825 13.9558L9.47551 13.9558ZM9.47551 17.6905L16.7398 17.6905L16.7398 16.083L9.47551 16.083ZM9.47551 19.881L13.0267 19.881L13.0267 18.2883L9.47551 18.2883ZM10.4981 20.9962C16.302 20.9962 21.0037 16.2946 21.0037 10.4981C21.0037 4.70163 16.302 0 10.4981 0C4.70163 0 0 4.70163 0 10.4981C0 16.2946 4.70163 20.9962 10.4981 20.9962ZM10.4981 17.9484C6.37829 17.9484 3.04785 14.6179 3.04785 10.4981C3.04785 6.37829 6.37829 3.04785 10.4981 3.04785C14.6179 3.04785 17.9558 6.37829 17.9558 10.4981C17.9558 14.6179 14.6179 17.9484 10.4981 17.9484Z"
                     fill="currentColor" fill-opacity="0.85" />
       </g>
</svg>