<?xml version="1.0" encoding="UTF-8"?>
<!--Generator: Apple Native CoreSVG 326-->
<!DOCTYPE svg PUBLIC "-//W3C//DTD SVG 1.1//EN" "http://www.w3.org/Graphics/SVG/1.1/DTD/svg11.dtd">
<svg version="1.1" xmlns="http://www.w3.org/2000/svg" xmlns:xlink="http://www.w3.org/1999/xlink"
       viewBox="0 0 23.6627 21.6333">
       <g>
              <rect height="21.6333" opacity="0" width="23.6627" x="0" y="0" />
              <path d="M15.62 21.6258C17.6878 21.6258 19.3592 19.9521 19.3592 17.8866C19.3592 15.8114 17.6878 14.1377 15.62 14.1377C13.5448 14.1377 11.8808 15.8114 11.8808 17.8866C11.8808 19.9521 13.5448 21.6258 15.62 21.6258Z"
                     fill="currentColor" fill-opacity="0.85" />
              <path d="M7.6813 21.6258C9.74907 21.6258 11.4205 19.9521 11.4205 17.8866C11.4205 15.8114 9.74907 14.1377 7.6813 14.1377C5.60608 14.1377 3.9421 15.8114 3.9421 17.8866C3.9421 19.9521 5.60608 21.6258 7.6813 21.6258Z"
                     fill="currentColor" fill-opacity="0.85" />
              <path d="M19.5621 14.551C21.6299 14.551 23.3013 12.8795 23.3013 10.8118C23.3013 8.73654 21.6299 7.07256 19.5621 7.07256C17.4869 7.07256 15.8132 8.73654 15.8132 10.8118C15.8132 12.8795 17.4869 14.551 19.5621 14.551Z"
                     fill="currentColor" fill-opacity="0.85" />
              <path d="M3.7392 14.551C5.81443 14.551 7.48071 12.8795 7.48071 10.8118C7.48071 8.73654 5.81443 7.07256 3.7392 7.07256C1.67374 7.07256 0 8.73654 0 10.8118C0 12.8795 1.67374 14.551 3.7392 14.551Z"
                     fill="currentColor" fill-opacity="0.85" />
              <path d="M15.62 7.47841C17.6878 7.47841 19.3592 5.81443 19.3592 3.7392C19.3592 1.67144 17.6878 0 15.62 0C13.5448 0 11.8808 1.67144 11.8808 3.7392C11.8808 5.81443 13.5448 7.47841 15.62 7.47841Z"
                     fill="currentColor" fill-opacity="0.85" />
              <path d="M7.6813 7.47841C9.74907 7.47841 11.4205 5.81443 11.4205 3.7392C11.4205 1.67144 9.74907 0 7.6813 0C5.60608 0 3.9421 1.67144 3.9421 3.7392C3.9421 5.81443 5.60608 7.47841 7.6813 7.47841Z"
                     fill="currentColor" fill-opacity="0.85" />
              <path d="M11.6481 14.551C13.721 14.551 15.3948 12.8795 15.3948 10.8118C15.3948 8.73654 13.721 7.07256 11.6481 7.07256C9.58032 7.07256 7.90658 8.73654 7.90658 10.8118C7.90658 12.8795 9.58032 14.551 11.6481 14.551Z"
                     fill="currentColor" fill-opacity="0.85" />
       </g>
</svg>