<?xml version="1.0" encoding="UTF-8"?>
<!--Generator: Apple Native CoreSVG 326-->
<!DOCTYPE svg PUBLIC "-//W3C//DTD SVG 1.1//EN" "http://www.w3.org/Graphics/SVG/1.1/DTD/svg11.dtd">
<svg version="1.1" xmlns="http://www.w3.org/2000/svg" xmlns:xlink="http://www.w3.org/1999/xlink"
       viewBox="0 0 15.887 23.6329">
       <g>
              <rect height="23.6329" opacity="0" width="15.887" x="0" y="0" />
              <path d="M0 20.3954C0 22.2993 1.32558 23.5835 3.30533 23.5835L12.3994 23.5835C14.2747 23.5835 15.5257 22.2993 15.5257 20.3879L15.5257 3.19561C15.5257 1.27675 14.2747 0 12.3994 0L3.30533 0C1.32558 0 0 1.27675 0 3.18814ZM3.01964 19.3506L3.01964 4.23289C3.01964 3.60831 3.41148 3.25093 4.03266 3.25093L11.5028 3.25093C12.1142 3.25093 12.506 3.62323 12.506 4.24035L12.506 19.3432C12.506 19.9603 12.1142 20.3326 11.5028 20.3326L4.03266 20.3326C3.41148 20.3326 3.01964 19.9752 3.01964 19.3506Z"
                     fill="currentColor" fill-opacity="0.85" />
              <path d="M7.76398 15.5614C9.84054 15.5614 11.5311 13.8634 11.5311 11.7869C11.5311 9.71777 9.84054 8.01977 7.76398 8.01977C5.68742 8.01977 3.99687 9.71777 3.99687 11.7869C3.99687 13.8634 5.68742 15.5614 7.76398 15.5614Z"
                     fill="currentColor" fill-opacity="0.85" />
       </g>
</svg>