<?xml version="1.0" encoding="UTF-8"?>
<!--Generator: Apple Native CoreSVG 326-->
<!DOCTYPE svg PUBLIC "-//W3C//DTD SVG 1.1//EN" "http://www.w3.org/Graphics/SVG/1.1/DTD/svg11.dtd">
<svg version="1.1" xmlns="http://www.w3.org/2000/svg" xmlns:xlink="http://www.w3.org/1999/xlink"
       viewBox="0 0 24.3589 21.0014">
       <g>
              <rect height="21.0014" opacity="0" width="24.3589" x="0" y="0" />
              <path d="M11.9988 0.0051558C6.94046 0.0051558 2.69429 3.62293 1.70863 8.39468L0.806858 8.39468C-0.00817724 8.39468-0.213801 9.1567 0.226744 9.72596L2.7649 13.0254C3.06478 13.4299 3.60814 13.4201 3.91318 13.0254L6.44387 9.72365C6.86719 9.1567 6.67649 8.39468 5.87122 8.39468L4.85292 8.39468C5.74499 5.30013 8.60098 3.05531 11.9988 3.05531C14.1105 3.05761 15.9253 3.9031 17.3373 5.35648C18.0108 5.99561 18.9346 6.19717 19.626 5.56277C20.2502 4.99266 20.2233 4.09744 19.4959 3.28725C17.8539 1.33704 14.9466 0.0051558 11.9988 0.0051558ZM11.9988 21.0014C17.0572 21.0014 21.3033 17.3813 22.2815 12.6119L23.181 12.6119C24.0035 12.6119 24.204 11.8498 23.7611 11.2806L21.2327 7.98112C20.9328 7.57667 20.382 7.58644 20.077 7.98112L17.5538 11.2829C17.1207 11.8498 17.3211 12.6119 18.1264 12.6119L19.1395 12.6119C18.2526 15.7041 15.3943 17.9535 11.9988 17.9535C9.87961 17.9512 8.07237 17.1034 6.66029 15.6501C5.97706 15.0109 5.06297 14.8094 4.36185 15.4415C3.7474 16.0139 3.77427 16.9091 4.49426 17.7193C6.14368 19.6695 9.05099 21.0014 11.9988 21.0014Z"
                     fill="currentColor" fill-opacity="0.85" />
              <path d="M11.9988 4.96943C11.4899 4.96943 11.0764 5.38068 11.0764 5.88958L11.0764 11.0416C11.0764 11.2834 11.1619 11.5086 11.3354 11.7406L13.542 14.647C13.9211 15.141 14.4519 15.2242 14.9292 14.9037C15.3502 14.6125 15.3892 14.0422 15.0567 13.585L11.605 8.9259L12.919 12.9263L12.919 5.88958C12.919 5.38068 12.4979 4.96943 11.9988 4.96943Z"
                     fill="currentColor" fill-opacity="0.85" />
       </g>
</svg>