<?xml version="1.0" encoding="UTF-8"?>
<!--Generator: Apple Native CoreSVG 326-->
<!DOCTYPE svg PUBLIC "-//W3C//DTD SVG 1.1//EN" "http://www.w3.org/Graphics/SVG/1.1/DTD/svg11.dtd">
<svg version="1.1" xmlns="http://www.w3.org/2000/svg" xmlns:xlink="http://www.w3.org/1999/xlink"
       viewBox="0 0 30.092 21.6323">
       <g>
              <rect height="21.6323" opacity="0" width="30.092" x="0" y="0" />
              <path d="M22.8252 2.15263C22.8252 2.75973 22.2461 3.76438 22.2461 5.17512C22.2461 7.29953 23.6518 8.67133 25.9319 8.67133C27.376 8.67133 28.1561 8.06125 28.7241 8.06125C29.0664 8.06125 29.2548 8.37199 29.2548 8.82C29.2548 10.3372 27.6387 13.1247 24.5628 13.808C24.1925 10.5487 21.7337 8.11584 18.4263 7.6941C18.1009 7.21681 17.7197 6.75963 17.2803 6.34145C17.9359 3.45959 20.6006 1.61843 22.2072 1.60235C22.6052 1.60005 22.8252 1.82751 22.8252 2.15263Z"
                     fill="currentColor" fill-opacity="0.85" />
              <path d="M6.09927 19.8171L17.7997 19.8171C20.6478 19.8171 22.8111 17.6055 22.8111 14.6841C22.8111 11.6554 20.5192 9.42268 17.3754 9.44045C16.3671 7.53646 14.4529 5.87897 11.3981 5.87897C7.90864 5.87897 5.04404 8.47651 4.75623 11.8983C2.96924 12.374 1.81526 13.8921 1.81526 15.7899C1.81526 18.1863 3.54771 19.8171 6.09927 19.8171Z"
                     fill="currentColor" fill-opacity="0.85" />
       </g>
</svg>