<?xml version="1.0" encoding="UTF-8"?>
<!--Generator: Apple Native CoreSVG 326-->
<!DOCTYPE svg PUBLIC "-//W3C//DTD SVG 1.1//EN" "http://www.w3.org/Graphics/SVG/1.1/DTD/svg11.dtd">
<svg version="1.1" xmlns="http://www.w3.org/2000/svg" xmlns:xlink="http://www.w3.org/1999/xlink"
       viewBox="0 0 21.365 21.006">
       <g>
              <rect height="21.006" opacity="0" width="21.365" x="0" y="0" />
              <path d="M10.4981 20.9962C16.302 20.9962 21.0037 16.2946 21.0037 10.4981C21.0037 4.70163 16.302 0 10.4981 0C4.70163 0 0 4.70163 0 10.4981C0 16.2946 4.70163 20.9962 10.4981 20.9962ZM10.4981 17.9484C6.37829 17.9484 3.04785 14.6179 3.04785 10.4981C3.04785 6.37829 6.37829 3.04785 10.4981 3.04785C14.6179 3.04785 17.9558 6.37829 17.9558 10.4981C17.9558 14.6179 14.6179 17.9484 10.4981 17.9484Z"
                     fill="currentColor" fill-opacity="0.85" />
              <path d="M7.72661 11.7545L12.8978 11.7545C14.322 11.7545 15.4169 10.6721 15.4169 9.28135C15.4169 7.84689 14.3231 6.76807 12.853 6.76807C12.3095 5.71271 11.3598 5.13981 10.1017 5.13981C8.49306 5.13981 7.17974 6.27287 6.95404 7.87916C6.11419 8.17553 5.58157 8.87065 5.58157 9.75999C5.58157 10.9008 6.43458 11.7545 7.72661 11.7545ZM7.92259 14.284L8.48912 13.3067C8.62353 13.0717 8.54771 12.7811 8.31564 12.649C8.07326 12.5146 7.7849 12.5852 7.65279 12.8224L7.08627 13.7975C6.95185 14.0347 7.02767 14.3254 7.2672 14.4575C7.50212 14.5919 7.79048 14.5212 7.92259 14.284ZM9.52361 15.5204L10.0827 14.5454C10.2171 14.3082 10.1413 14.0198 9.9092 13.8854C9.67428 13.7533 9.37846 13.8239 9.24635 14.0589L8.68498 15.0362C8.54541 15.266 8.62123 15.5618 8.86822 15.6962C9.09568 15.8283 9.3892 15.7577 9.52361 15.5204ZM11.852 14.2817L12.4111 13.3044C12.5455 13.0694 12.4697 12.7788 12.2376 12.6467C12.0027 12.5123 11.7069 12.5829 11.5748 12.8201L11.0082 13.7952C10.8738 14.025 10.9496 14.3231 11.1966 14.4552C11.4241 14.5896 11.7199 14.5115 11.852 14.2817ZM13.356 15.5204L13.9249 14.5454C14.057 14.3082 13.9812 14.0198 13.7491 13.8854C13.5067 13.7533 13.2184 13.8239 13.0862 14.0589L12.5197 15.0362C12.3853 15.266 12.4611 15.5618 12.7007 15.6962C12.9356 15.8283 13.2239 15.7577 13.356 15.5204Z"
                     fill="currentColor" fill-opacity="0.85" />
       </g>
</svg>