<?xml version="1.0" encoding="UTF-8"?>
<!--Generator: Apple Native CoreSVG 326-->
<!DOCTYPE svg PUBLIC "-//W3C//DTD SVG 1.1//EN" "http://www.w3.org/Graphics/SVG/1.1/DTD/svg11.dtd">
<svg version="1.1" xmlns="http://www.w3.org/2000/svg" xmlns:xlink="http://www.w3.org/1999/xlink"
       viewBox="0 0 24.2726 25.1135">
       <g>
              <rect height="25.1135" opacity="0" width="24.2726" x="0" y="0" />
              <path d="M16.2065 24.69L19.0374 19.8094C19.2556 19.4269 19.1603 18.941 18.7629 18.7274C18.3677 18.504 17.9215 18.6469 17.6958 19.0392L14.8695 23.9227C14.6489 24.2977 14.7368 24.7738 15.1319 25.0018C15.5247 25.2275 15.9905 25.0627 16.2065 24.69Z"
                     fill="currentColor" fill-opacity="0.85" />
              <path d="M12.3117 24.6951L15.1358 19.8214C15.3563 19.4343 15.2535 18.9605 14.8635 18.7348C14.4638 18.5068 14.0199 18.6544 13.7919 19.0564L10.9581 23.9348C10.7496 24.3126 10.8329 24.7813 11.2326 25.0093C11.6226 25.235 12.0935 25.0776 12.3117 24.6951Z"
                     fill="currentColor" fill-opacity="0.85" />
              <path d="M8.43993 24.6877L11.264 19.814C11.4845 19.4269 11.3817 18.9531 10.9917 18.7274C10.592 18.4919 10.1481 18.6469 9.92006 19.049L7.08627 23.9273C6.87779 24.2977 6.96107 24.7738 7.3608 25.0018C7.75075 25.2275 8.22169 25.0627 8.43993 24.6877Z"
                     fill="currentColor" fill-opacity="0.85" />
              <path d="M4.52852 24.6951L7.35485 19.8214C7.5754 19.4343 7.47774 18.9605 7.08032 18.7348C6.6829 18.5068 6.23896 18.6544 6.01096 19.0564L3.18232 23.9348C2.96639 24.3126 3.05197 24.7813 3.44939 25.0093C3.84681 25.235 4.31028 25.0776 4.52852 24.6951Z"
                     fill="currentColor" fill-opacity="0.85" />
              <path d="M5.82893 16.7769L18.1495 16.7769C21.6287 16.7769 24.2726 14.1215 24.2726 10.7555C24.2726 7.34933 21.6366 4.70836 18.132 4.70836C17.0009 2.52007 14.8919 0.788281 11.4877 0.788281C7.51741 0.788281 4.45276 3.66168 3.93652 7.32949C2.05703 7.98136 0.634766 9.63394 0.634766 11.881C0.634766 14.6431 2.70241 16.7769 5.82893 16.7769Z"
                     fill="currentColor" fill-opacity="0.85" />
       </g>
</svg>