<?xml version="1.0" encoding="UTF-8"?>
<!--Generator: Apple Native CoreSVG 326-->
<!DOCTYPE svg PUBLIC "-//W3C//DTD SVG 1.1//EN" "http://www.w3.org/Graphics/SVG/1.1/DTD/svg11.dtd">
<svg version="1.1" xmlns="http://www.w3.org/2000/svg" xmlns:xlink="http://www.w3.org/1999/xlink"
       viewBox="0 0 21.365 21.006">
       <g>
              <rect height="21.006" opacity="0" width="21.365" x="0" y="0" />
              <path d="M21.0037 10.5079C21.0037 16.3043 16.302 21.006 10.4981 21.006C4.70394 21.006 0 16.3043 0 10.5079C0 4.7137 4.70394 0.00976562 10.4981 0.00976562C16.302 0.00976562 21.0037 4.7137 21.0037 10.5079ZM8.8149 15.4094C8.8149 15.7879 9.11018 16.0907 9.48873 16.0907C9.85236 16.0907 10.1551 15.7879 10.1551 15.4094C10.1551 15.048 9.85236 14.7453 9.48873 14.7453C9.11018 14.7453 8.8149 15.048 8.8149 15.4094ZM6.43919 15.3944C6.43919 15.7655 6.74192 16.0683 7.11302 16.0683C7.47434 16.0683 7.77708 15.7655 7.77708 15.3944C7.77708 15.0331 7.47434 14.7304 7.11302 14.7304C6.74192 14.7304 6.43919 15.0331 6.43919 15.3944ZM11.1809 15.3944C11.1809 15.7655 11.4859 16.0683 11.8621 16.0683C12.2235 16.0683 12.5285 15.7655 12.5285 15.3944C12.5285 15.0331 12.2235 14.7304 11.8621 14.7304C11.4859 14.7304 11.1809 15.0331 11.1809 15.3944ZM10.3781 12.8104L9.88912 13.6768C9.76217 13.8968 9.82307 14.2144 10.0775 14.3638C10.3147 14.4982 10.6376 14.4103 10.7547 14.1731L11.2437 13.3216C11.3781 13.0941 11.3097 12.7788 11.0702 12.6271C10.8181 12.495 10.5027 12.5806 10.3781 12.8104ZM8.00236 12.7955L7.5111 13.6469C7.38645 13.8819 7.44735 14.1995 7.70181 14.3414C7.9488 14.4758 8.26184 14.3879 8.38649 14.1582L8.87774 13.3067C9.00239 13.0717 8.94149 12.7564 8.6945 12.6122C8.44005 12.4801 8.127 12.5657 8.00236 12.7955ZM12.744 12.7955L12.2528 13.6469C12.1281 13.8819 12.1965 14.1995 12.4509 14.3414C12.683 14.4758 12.996 14.3879 13.1282 14.1582L13.6194 13.3067C13.7515 13.0717 13.678 12.7564 13.4362 12.6122C13.1892 12.4801 12.8761 12.5657 12.744 12.7955ZM6.82423 7.66608C5.94763 7.97221 5.40294 8.70408 5.40294 9.61526C5.40294 10.8078 6.2927 11.7005 7.63126 11.7005L12.9857 11.7005C14.4662 11.7005 15.6077 10.5642 15.6077 9.12455C15.6077 7.63381 14.4673 6.51822 12.9408 6.51822C12.3778 5.42611 11.3989 4.82907 10.0919 4.82907C8.42701 4.82907 7.05739 5.99603 6.82423 7.66608Z"
                     fill="currentColor" fill-opacity="0.85" />
       </g>
</svg>