<?xml version="1.0" encoding="UTF-8"?>
<!--Generator: Apple Native CoreSVG 326-->
<!DOCTYPE svg PUBLIC "-//W3C//DTD SVG 1.1//EN" "http://www.w3.org/Graphics/SVG/1.1/DTD/svg11.dtd">
<svg version="1.1" xmlns="http://www.w3.org/2000/svg" xmlns:xlink="http://www.w3.org/1999/xlink"
       viewBox="0 0 21.365 21.006">
       <g>
              <rect height="21.006" opacity="0" width="21.365" x="0" y="0" />
              <path d="M21.0037 10.5079C21.0037 16.3043 16.302 21.006 10.4981 21.006C4.70394 21.006 0 16.3043 0 10.5079C0 4.7137 4.70394 0.00976562 10.4981 0.00976562C16.302 0.00976562 21.0037 4.7137 21.0037 10.5079ZM9.43705 14.5929L9.48127 14.9313L9.20893 14.7216C9.08143 14.6234 8.90049 14.6429 8.81721 14.775C8.74369 14.91 8.79822 15.0881 8.95963 15.1639L9.2865 15.28L8.95217 15.4213C8.79822 15.4845 8.73162 15.6557 8.8126 15.8027C8.89588 15.9469 9.07912 15.959 9.20893 15.8608L9.48127 15.6362L9.43936 15.9895C9.40951 16.1583 9.53471 16.3054 9.70588 16.3054C9.86268 16.3054 9.98732 16.1607 9.94541 15.9895L9.89604 15.6287L10.1936 15.8608C10.3332 15.9515 10.4917 15.9423 10.5653 15.8096C10.6606 15.6603 10.5963 15.4696 10.4228 15.4139L10.1034 15.2874L10.4303 15.1639C10.594 15.0932 10.6583 14.9192 10.5699 14.7773C10.5038 14.6452 10.3108 14.6308 10.1936 14.7239L9.89604 14.9313L9.94541 14.5929C9.98732 14.4142 9.86268 14.2695 9.70588 14.2695C9.53471 14.2695 9.4049 14.4166 9.43705 14.5929ZM7.00165 14.578L7.05103 14.9164L6.77583 14.6992C6.64603 14.601 6.46509 14.628 6.38696 14.7601C6.30829 14.8951 6.36798 15.0732 6.54145 15.1341L6.86603 15.2651L6.52653 15.4064C6.36798 15.4696 6.29392 15.6333 6.38466 15.7803C6.46278 15.932 6.64372 15.9441 6.77583 15.8458L7.05103 15.6212L7.00396 15.9746C6.98904 16.136 7.09931 16.283 7.27048 16.283C7.43704 16.283 7.55192 16.1383 7.51232 15.9746L7.46064 15.6138L7.76052 15.8458C7.89778 15.9441 8.05634 15.9199 8.13216 15.7947C8.2229 15.6379 8.16091 15.4547 7.98743 15.3989L7.66802 15.2725L7.99489 15.1341C8.1563 15.0783 8.2229 14.9043 8.13677 14.7624C8.06841 14.6303 7.88286 14.6085 7.76052 14.7015L7.46064 14.9164L7.51232 14.578C7.55192 14.3993 7.43704 14.2471 7.27048 14.2471C7.09931 14.2471 6.97697 14.4016 7.00165 14.578ZM11.8701 14.578L11.9121 14.9164L11.6443 14.6992C11.5145 14.601 11.3336 14.628 11.248 14.7601C11.1693 14.8951 11.2216 15.0732 11.395 15.1341L11.7196 15.2651L11.3876 15.4064C11.2216 15.4696 11.1624 15.6333 11.2457 15.7803C11.3313 15.932 11.5122 15.9441 11.6443 15.8458L11.9121 15.6212L11.8725 15.9746C11.8501 16.136 11.9678 16.283 12.139 16.283C12.2981 16.283 12.413 16.1383 12.3808 15.9746L12.3314 15.6138L12.6216 15.8458C12.7514 15.9441 12.9174 15.9199 13.0007 15.7947C13.0862 15.6379 13.0294 15.4547 12.8582 15.3989L12.5365 15.2725L12.8657 15.1341C13.0173 15.0783 13.0839 14.9043 13.0053 14.7624C12.922 14.6303 12.7439 14.6085 12.6216 14.7015L12.3314 14.9164L12.3808 14.578C12.413 14.3993 12.2981 14.2471 12.139 14.2471C11.9678 14.2471 11.8455 14.4016 11.8701 14.578ZM10.6078 12.6092L10.1183 13.4791C9.99139 13.7163 10.0523 14.0465 10.3142 14.1884C10.5589 14.3303 10.8817 14.2326 11.0138 14.0052L11.5108 13.1354C11.6452 12.893 11.5694 12.5679 11.3298 12.4283C11.0702 12.2767 10.7399 12.3818 10.6078 12.6092ZM8.17244 12.5869L7.68064 13.4567C7.55829 13.7014 7.61689 14.0242 7.8788 14.166C8.12579 14.3154 8.4463 14.2103 8.57841 13.9828L9.07767 13.113C9.20747 12.8781 9.13396 12.553 8.89212 12.4059C8.63251 12.2617 8.30454 12.3594 8.17244 12.5869ZM13.0409 12.5869L12.5417 13.4567C12.4193 13.7014 12.4854 14.0242 12.7398 14.166C12.9943 14.3154 13.3148 14.2103 13.4469 13.9828L13.9462 13.113C14.076 12.8781 14.0025 12.553 13.7555 12.4059C13.501 12.2617 13.173 12.3594 13.0409 12.5869ZM6.96447 7.31803C6.07295 7.63909 5.50587 8.38358 5.50587 9.3246C5.50587 10.5492 6.41802 11.4621 7.79388 11.4621L13.2953 11.4621C14.8153 11.4621 15.9843 10.3108 15.9843 8.82643C15.9843 7.28346 14.8141 6.13803 13.2504 6.13803C12.6673 5.02123 11.6659 4.41388 10.3217 4.41388C8.6097 4.41388 7.19763 5.60838 6.96447 7.31803Z"
                     fill="currentColor" fill-opacity="0.85" />
       </g>
</svg>