<?xml version="1.0" encoding="UTF-8"?>
<!--Generator: Apple Native CoreSVG 326-->
<!DOCTYPE svg PUBLIC "-//W3C//DTD SVG 1.1//EN" "http://www.w3.org/Graphics/SVG/1.1/DTD/svg11.dtd">
<svg version="1.1" xmlns="http://www.w3.org/2000/svg" xmlns:xlink="http://www.w3.org/1999/xlink"
       viewBox="0 0 21.365 21.006">
       <g>
              <rect height="21.006" opacity="0" width="21.365" x="0" y="0" />
              <path d="M21.0037 10.5079C21.0037 16.3043 16.302 21.006 10.4981 21.006C4.70394 21.006 0 16.3043 0 10.5079C0 4.7137 4.70394 0.00976562 10.4981 0.00976562C16.302 0.00976562 21.0037 4.7137 21.0037 10.5079ZM7.90167 13.9762C7.7678 13.9762 7.72413 14.0227 7.6753 14.1227L7.07608 15.5015C7.02725 15.6061 7.06115 15.694 7.19041 15.694L8.07447 15.694L7.52748 16.9989C7.48611 17.0885 7.59529 17.189 7.71533 17.0914L10.2053 14.9749C10.3053 14.8778 10.2714 14.7262 10.1174 14.7262L9.04728 14.7262L9.36396 14.1663C9.42256 14.0715 9.37373 13.9762 9.25654 13.9762ZM5.25779 9.88318C4.5133 10.1394 4.01349 10.796 4.01349 11.6307C4.01349 12.6951 4.77697 13.4293 5.91615 13.4293L10.9385 13.4293C12.2139 13.4293 13.1744 12.4561 13.1744 11.1579C13.1744 9.82919 12.1743 8.84056 10.8053 8.82619C10.3578 8.00684 9.52009 7.29747 8.19385 7.29747C6.67787 7.29747 5.42611 8.40681 5.25779 9.88318ZM14.5009 10.6773C14.285 10.8829 14.2878 11.2402 14.5084 11.451L15.0445 11.9848C15.2599 12.1927 15.6103 12.1858 15.8084 11.975C16.0192 11.7619 16.0215 11.4294 15.801 11.2088L15.2918 10.6922C15.0713 10.4814 14.7089 10.474 14.5009 10.6773ZM10.7157 7.4556C10.9231 7.66584 11.1115 7.86576 11.2551 8.08006C12.6034 8.2656 13.6421 9.23592 13.8856 10.5303C14.4331 10.131 14.8014 9.46283 14.8014 8.72635C14.8014 7.47513 13.8161 6.4922 12.5574 6.4922C11.7813 6.4922 11.0885 6.88513 10.7157 7.4556ZM15.864 8.16807C15.57 8.16807 15.3104 8.42537 15.3104 8.72635C15.3104 9.02271 15.57 9.25763 15.864 9.25763L16.6139 9.25763C16.9224 9.25763 17.1498 9.02271 17.1498 8.72635C17.1498 8.42537 16.9224 8.16807 16.6139 8.16807ZM15.0445 5.47767L14.5233 6.00404C14.3028 6.22228 14.2999 6.57724 14.5233 6.78287C14.714 6.97872 15.0787 6.99826 15.2769 6.78517L15.801 6.24903C16.0215 6.02849 16.0267 5.67353 15.8084 5.47767C15.6177 5.25943 15.2599 5.25482 15.0445 5.47767ZM9.30877 5.45298C9.0756 5.67122 9.11291 6.01872 9.31623 6.23411L9.83514 6.77771C10.0431 6.99826 10.4055 6.97872 10.6186 6.78287C10.8196 6.57724 10.8018 6.22459 10.6186 6.0115L10.0824 5.45529C9.84466 5.25712 9.50177 5.26689 9.30877 5.45298ZM12.0164 4.67501L12.0164 5.41974C12.0164 5.72357 12.2536 5.97572 12.55 5.97572C12.8584 5.97572 13.0859 5.72357 13.0859 5.41974L13.0859 4.67501C13.0859 4.36142 12.8584 4.12649 12.55 4.12649C12.2536 4.12649 12.0164 4.36142 12.0164 4.67501Z"
                     fill="currentColor" fill-opacity="0.85" />
       </g>
</svg>