<?xml version="1.0" encoding="UTF-8"?>
<!--Generator: Apple Native CoreSVG 326-->
<!DOCTYPE svg PUBLIC "-//W3C//DTD SVG 1.1//EN" "http://www.w3.org/Graphics/SVG/1.1/DTD/svg11.dtd">
<svg version="1.1" xmlns="http://www.w3.org/2000/svg" xmlns:xlink="http://www.w3.org/1999/xlink"
       viewBox="0 0 21.365 21.006">
       <g>
              <rect height="21.006" opacity="0" width="21.365" x="0" y="0" />
              <path d="M21.0037 10.5079C21.0037 16.3043 16.302 21.006 10.4981 21.006C4.70394 21.006 0 16.3043 0 10.5079C0 4.7137 4.70394 0.00976562 10.4981 0.00976562C16.302 0.00976562 21.0037 4.7137 21.0037 10.5079ZM7.25853 14.7206C6.97709 14.7206 6.74963 14.9458 6.74963 15.237C6.74963 15.523 6.97709 15.7505 7.25853 15.7505L13.7354 15.7505C14.0266 15.7505 14.2541 15.523 14.2541 15.237C14.2541 14.9458 14.0266 14.7206 13.7354 14.7206ZM7.25853 12.772C6.97709 12.772 6.74963 13.0167 6.74963 13.3004C6.74963 13.5842 6.97709 13.8168 7.25853 13.8168L13.7354 13.8168C14.0266 13.8168 14.2541 13.5842 14.2541 13.3004C14.2541 13.0144 14.0266 12.772 13.7354 12.772ZM6.75084 7.541C5.85186 7.86206 5.28248 8.59163 5.28248 9.54011C5.28248 10.7573 6.19693 11.6799 7.57279 11.6799L13.0742 11.6799C14.5942 11.6799 15.7632 10.5212 15.7632 9.03678C15.7632 7.50874 14.593 6.35585 13.0293 6.35585C12.4462 5.23389 11.4448 4.62193 10.108 4.62193C8.38861 4.62193 6.984 5.81874 6.75084 7.541Z"
                     fill="currentColor" fill-opacity="0.85" />
       </g>
</svg>