<?xml version="1.0" encoding="UTF-8"?>
<!--Generator: Apple Native CoreSVG 326-->
<!DOCTYPE svg PUBLIC "-//W3C//DTD SVG 1.1//EN" "http://www.w3.org/Graphics/SVG/1.1/DTD/svg11.dtd">
<svg version="1.1" xmlns="http://www.w3.org/2000/svg" xmlns:xlink="http://www.w3.org/1999/xlink"
       viewBox="0 0 21.365 21.006">
       <g>
              <rect height="21.006" opacity="0" width="21.365" x="0" y="0" />
              <path d="M21.0037 10.5079C21.0037 16.3043 16.302 21.006 10.4981 21.006C4.70394 21.006 0 16.3043 0 10.5079C0 4.7137 4.70394 0.00976562 10.4981 0.00976562C16.302 0.00976562 21.0037 4.7137 21.0037 10.5079ZM9.20213 14.203L8.61377 15.2246C8.47935 15.4641 8.54771 15.7697 8.80447 15.9041C9.04916 16.046 9.35244 15.9581 9.48685 15.7307L10.0729 14.7142C10.2096 14.4673 10.1338 14.1617 9.89197 14.0273C9.63983 13.8854 9.33424 13.9658 9.20213 14.203ZM13.1839 14.203L12.5978 15.2246C12.4611 15.4641 12.5392 15.7697 12.7862 15.9041C13.0309 16.046 13.3365 15.9581 13.4686 15.7307L14.0593 14.7142C14.1914 14.4673 14.1156 14.1617 13.8737 14.0273C13.6216 13.8854 13.316 13.9658 13.1839 14.203ZM7.54252 12.9178L6.95646 13.9319C6.82205 14.1766 6.89787 14.4845 7.15463 14.6264C7.39185 14.7608 7.69744 14.6901 7.82955 14.4431L8.4156 13.4215C8.55232 13.1843 8.4742 12.8787 8.23467 12.742C7.98252 12.6024 7.67694 12.6857 7.54252 12.9178ZM11.6161 12.9155L11.0375 13.9296C10.8933 14.1743 10.9617 14.4822 11.2185 14.6241C11.4631 14.7585 11.7687 14.6803 11.9008 14.4408L12.4869 13.4192C12.6236 13.182 12.5478 12.8764 12.306 12.7397C12.0613 12.6001 11.7557 12.6834 11.6161 12.9155ZM6.82423 7.79358C5.94763 8.09971 5.40294 8.81666 5.40294 9.74276C5.40294 10.9203 6.2927 11.8108 7.63126 11.8108L12.9857 11.8108C14.4662 11.8108 15.6077 10.694 15.6077 9.24459C15.6077 7.75385 14.4673 6.64057 12.9408 6.64057C12.3778 5.54615 11.3989 4.95888 10.0919 4.95888C8.42701 4.95888 7.05739 6.12353 6.82423 7.79358Z"
                     fill="currentColor" fill-opacity="0.85" />
       </g>
</svg>