<?xml version="1.0" encoding="UTF-8"?>
<!--Generator: Apple Native CoreSVG 326-->
<!DOCTYPE svg PUBLIC "-//W3C//DTD SVG 1.1//EN" "http://www.w3.org/Graphics/SVG/1.1/DTD/svg11.dtd">
<svg version="1.1" xmlns="http://www.w3.org/2000/svg" xmlns:xlink="http://www.w3.org/1999/xlink"
       viewBox="0 0 21.365 21.006">
       <g>
              <rect height="21.006" opacity="0" width="21.365" x="0" y="0" />
              <path d="M10.4981 20.9962C16.302 20.9962 21.0037 16.2946 21.0037 10.4981C21.0037 4.70163 16.302 0 10.4981 0C4.70163 0 0 4.70163 0 10.4981C0 16.2946 4.70163 20.9962 10.4981 20.9962ZM10.4981 17.9484C6.37829 17.9484 3.04785 14.6179 3.04785 10.4981C3.04785 6.37829 6.37829 3.04785 10.4981 3.04785C14.6179 3.04785 17.9558 6.37829 17.9558 10.4981C17.9558 14.6179 14.6179 17.9484 10.4981 17.9484Z"
                     fill="currentColor" fill-opacity="0.85" />
              <path d="M7.72661 11.6955L12.8978 11.6955C14.322 11.6955 15.4169 10.6131 15.4169 9.22233C15.4169 7.78787 14.3231 6.70905 12.853 6.70905C12.3095 5.66115 11.3598 5.0808 10.1017 5.0808C8.49306 5.0808 7.17974 6.21385 6.95404 7.82014C6.11419 8.11651 5.58157 8.81163 5.58157 9.70097C5.58157 10.8418 6.43458 11.6955 7.72661 11.6955ZM7.49618 15.2417C7.70466 15.2417 7.84192 15.0579 7.80231 14.8495L7.73571 14.3605L8.1247 14.6702C8.29642 14.8028 8.50435 14.7689 8.59739 14.6069C8.70997 14.4301 8.6313 14.2026 8.41821 14.1245L7.9827 13.9527L8.42567 13.7687C8.62153 13.6883 8.70536 13.4724 8.5997 13.3058C8.50896 13.1393 8.28149 13.1025 8.1247 13.2328L7.73571 13.5224L7.80231 13.0559C7.84192 12.8428 7.70466 12.6561 7.49618 12.6561C7.29056 12.6561 7.15099 12.8428 7.17567 13.0535L7.24458 13.5224L6.85844 13.2254C6.70395 13.1025 6.4811 13.1369 6.39036 13.3058C6.27493 13.4678 6.36391 13.6809 6.55977 13.771L7.00274 13.9452L6.55231 14.132C6.36161 14.2101 6.27493 14.4255 6.38575 14.6121C6.48395 14.7735 6.70165 14.8028 6.85844 14.6702L7.24458 14.368L7.17798 14.8495C7.15329 15.0579 7.29056 15.2417 7.49618 15.2417ZM10.4279 15.2417C10.6363 15.2417 10.7736 15.0579 10.734 14.8495L10.6674 14.3605L11.0564 14.6702C11.2258 14.8028 11.436 14.7689 11.5291 14.6069C11.6417 14.4301 11.563 14.2026 11.3499 14.1245L10.9144 13.9527L11.3574 13.7687C11.5532 13.6883 11.637 13.4724 11.5314 13.3058C11.4406 13.1393 11.2132 13.1025 11.0564 13.2328L10.6674 13.5224L10.734 13.0559C10.7736 12.8428 10.6363 12.6561 10.4279 12.6561C10.2222 12.6561 10.0827 12.8428 10.1074 13.0535L10.1763 13.5224L9.79013 13.2254C9.63564 13.1025 9.41279 13.1369 9.32205 13.3058C9.20662 13.4678 9.2956 13.6809 9.49146 13.771L9.93443 13.9452L9.484 14.132C9.2933 14.2101 9.20662 14.4255 9.31744 14.6121C9.41564 14.7735 9.63334 14.8028 9.79013 14.6702L10.1763 14.368L10.1097 14.8495C10.085 15.0579 10.2222 15.2417 10.4279 15.2417ZM13.3573 15.2417C13.568 15.2417 13.7053 15.0579 13.6657 14.8495L13.5991 14.3605L13.9881 14.6702C14.1575 14.7953 14.3677 14.7689 14.4608 14.6069C14.571 14.4301 14.4872 14.2026 14.2816 14.1245L13.8461 13.9527L14.2891 13.7687C14.4849 13.6883 14.5687 13.4724 14.4631 13.3058C14.37 13.1393 14.1449 13.1025 13.9881 13.2328L13.5991 13.5224L13.6657 13.0559C13.7053 12.8428 13.568 12.6561 13.3573 12.6561C13.1539 12.6561 12.9994 12.8428 13.0391 13.0535L13.1005 13.5224L12.7218 13.2254C12.5673 13.1025 12.3445 13.1369 12.2514 13.3058C12.1383 13.4678 12.225 13.6809 12.4231 13.771L12.8661 13.9452L12.4157 14.132C12.225 14.2101 12.1383 14.4255 12.2417 14.6121C12.3473 14.7735 12.565 14.8028 12.7218 14.6702L13.1005 14.368L13.0414 14.8495C13.0017 15.0579 13.1539 15.2417 13.3573 15.2417Z"
                     fill="currentColor" fill-opacity="0.85" />
       </g>
</svg>