<?xml version="1.0" encoding="UTF-8"?>
<!--Generator: Apple Native CoreSVG 326-->
<!DOCTYPE svg PUBLIC "-//W3C//DTD SVG 1.1//EN" "http://www.w3.org/Graphics/SVG/1.1/DTD/svg11.dtd">
<svg version="1.1" xmlns="http://www.w3.org/2000/svg" xmlns:xlink="http://www.w3.org/1999/xlink"
       viewBox="0 0 28.89 18.9068">
       <g>
              <rect height="18.9068" opacity="0" width="28.89" x="0" y="0" />
              <path d="M22.2785 1.30963C22.2785 1.86396 21.9143 2.63357 21.9143 3.83407C21.9143 6.07446 22.9865 7.24767 25.1708 7.24767C26.2358 7.24767 26.8412 6.91916 27.6136 6.91916C28.6589 6.91916 29.1459 7.83864 28.7565 8.93555C27.8587 11.4812 25.4742 13.2574 22.2544 13.2796C22.2371 12.4659 22.0498 11.7076 21.723 11.0354C21.9023 11.0617 22.0882 11.0733 22.2783 11.0733C24.2845 11.0733 25.7966 10.2211 26.4779 9.04109L26.3946 8.95781C25.9902 9.09683 25.4576 9.25133 24.6896 9.25133C21.8254 9.25133 19.9112 7.23512 19.9112 4.44039C19.9112 3.66606 20.0652 2.99684 20.2163 2.52063L20.0939 2.4425C18.8818 3.23515 18.0399 4.66269 18.0399 6.29962C18.0399 6.98222 18.1441 7.61606 18.3393 8.18319C17.8631 8.04017 17.3549 7.96105 16.825 7.94922C16.5646 7.47143 16.2631 7.04028 15.9211 6.66102C15.9136 6.60163 15.9129 6.53999 15.9129 6.47813C15.9129 3.59048 17.8646 0.950724 20.3304 0.127682C21.3464-0.219817 22.2785 0.277563 22.2785 1.30963Z"
                     fill="currentColor" fill-opacity="0.85" />
              <path d="M5.95282 18.9068L16.7057 18.9068C19.8264 18.9068 22.2624 16.5219 22.2624 13.4472C22.2624 10.3696 19.9114 8.01813 16.825 7.94922C15.6227 5.7434 13.5444 4.5318 10.8861 4.5318C7.46716 4.5318 4.65017 6.97727 4.10409 10.3618C2.33378 10.9367 1.19296 12.4996 1.19296 14.4337C1.19296 17.0263 3.18885 18.9068 5.95282 18.9068ZM6.01821 16.3296C4.53711 16.3296 3.78504 15.5517 3.78504 14.4653C3.78504 13.4973 4.39797 12.7681 5.74399 12.4148C6.2948 12.2752 6.4482 12.0231 6.53203 11.4579C6.9357 8.63397 8.68344 7.10896 10.8861 7.10896C12.5494 7.10896 13.9344 8.06435 14.865 9.81361C15.1172 10.2783 15.3739 10.4472 15.9466 10.4472C18.4908 10.4472 19.6755 11.7915 19.6755 13.4886C19.6755 15.0886 18.4597 16.3296 16.6306 16.3296Z"
                     fill="currentColor" fill-opacity="0.85" />
       </g>
</svg>