<?xml version="1.0" encoding="UTF-8"?>
<!--Generator: Apple Native CoreSVG 326-->
<!DOCTYPE svg PUBLIC "-//W3C//DTD SVG 1.1//EN" "http://www.w3.org/Graphics/SVG/1.1/DTD/svg11.dtd">
<svg version="1.1" xmlns="http://www.w3.org/2000/svg" xmlns:xlink="http://www.w3.org/1999/xlink"
       viewBox="0 0 21.365 21.006">
       <g>
              <rect height="21.006" opacity="0" width="21.365" x="0" y="0" />
              <path d="M21.0037 10.5079C21.0037 16.3043 16.302 21.006 10.4981 21.006C4.70394 21.006 0 16.3043 0 10.5079C0 4.7137 4.70394 0.00976562 10.4981 0.00976562C16.302 0.00976562 21.0037 4.7137 21.0037 10.5079ZM9.60343 12.0763C9.42765 12.0763 9.34952 12.1326 9.29839 12.2693L8.38855 14.3429C8.32535 14.4946 8.37879 14.6066 8.54711 14.6066L9.71886 14.6066L8.90831 16.5862C8.86179 16.6666 8.89624 16.7424 8.94738 16.7689C9.00597 16.7935 9.08179 16.7763 9.14269 16.7033L12.5537 13.6412C12.6956 13.5097 12.6467 13.319 12.4589 13.319L11.027 13.319L11.5555 12.313C11.6141 12.1837 11.5676 12.0763 11.4211 12.0763ZM6.72494 7.13382C5.82596 7.45718 5.25888 8.18444 5.25888 9.13753C5.25888 10.3599 6.17103 11.2727 7.54689 11.2727L13.0506 11.2727C14.5683 11.2727 15.7396 10.114 15.7396 8.6319C15.7396 7.10386 14.5694 5.94866 13.0057 5.94866C12.4203 4.82671 11.4189 4.21705 10.0821 4.21705C8.36502 4.21705 6.9581 5.42878 6.72494 7.13382Z"
                     fill="currentColor" fill-opacity="0.85" />
       </g>
</svg>