<?xml version="1.0" encoding="UTF-8"?>
<!--Generator: Apple Native CoreSVG 326-->
<!DOCTYPE svg PUBLIC "-//W3C//DTD SVG 1.1//EN" "http://www.w3.org/Graphics/SVG/1.1/DTD/svg11.dtd">
<svg version="1.1" xmlns="http://www.w3.org/2000/svg" xmlns:xlink="http://www.w3.org/1999/xlink"
       viewBox="0 0 21.365 21.006">
       <g>
              <rect height="21.006" opacity="0" width="21.365" x="0" y="0" />
              <path d="M10.4981 20.9962C16.302 20.9962 21.0037 16.2946 21.0037 10.4981C21.0037 4.70163 16.302 0 10.4981 0C4.70163 0 0 4.70163 0 10.4981C0 16.2946 4.70163 20.9962 10.4981 20.9962ZM10.4981 17.9484C6.37829 17.9484 3.04785 14.6179 3.04785 10.4981C3.04785 6.37829 6.37829 3.04785 10.4981 3.04785C14.6179 3.04785 17.9558 6.37829 17.9558 10.4981C17.9558 14.6179 14.6179 17.9484 10.4981 17.9484Z"
                     fill="currentColor" fill-opacity="0.85" />
              <path d="M6.21185 13.2444L10.9064 13.2444C12.1128 13.2444 13.0068 12.3206 13.0068 11.1062C13.0068 9.85619 12.0732 8.93415 10.7904 8.92724C10.3675 8.15212 9.58154 7.48466 8.34658 7.48466C6.91443 7.48466 5.7465 8.53255 5.5954 9.91763C4.88536 10.1492 4.42001 10.7713 4.42001 11.5492C4.42001 12.5522 5.13927 13.2444 6.21185 13.2444ZM9.87936 7.0022C10.0775 7.20267 10.4153 7.1906 10.6111 7.00966C10.8047 6.8138 10.7869 6.48353 10.6111 6.28767L10.1094 5.76591C9.88888 5.57751 9.57068 5.58497 9.37998 5.76591C9.1692 5.95946 9.19904 6.28973 9.3949 6.4879ZM12.4242 6.24442C12.7155 6.24442 12.9331 6.01927 12.9331 5.73036L12.9331 5.02985C12.9331 4.73348 12.7155 4.50832 12.4242 4.50832C12.1526 4.50832 11.9251 4.73348 11.9251 5.02985L11.9251 5.73036C11.9251 6.01927 12.1526 6.24442 12.4242 6.24442ZM14.2718 7.00735C14.4528 7.1906 14.8003 7.20267 14.9835 7.00966L15.4806 6.50282C15.6839 6.29719 15.6891 5.95946 15.488 5.77337C15.3048 5.57751 14.9717 5.5752 14.7735 5.77337L14.2718 6.28021C14.0737 6.48353 14.0708 6.8138 14.2718 7.00735ZM15.5287 9.33169L16.2419 9.33169C16.5256 9.33169 16.7433 9.09908 16.7433 8.82509C16.7433 8.54881 16.5256 8.31849 16.2419 8.31849L15.5287 8.31849C15.2571 8.31849 15.0221 8.54881 15.0221 8.82509C15.0221 9.09908 15.2571 9.33169 15.5287 9.33169ZM14.7735 11.8889C14.9717 12.0871 15.2973 12.0824 15.488 11.8791C15.6816 11.681 15.6839 11.3582 15.4806 11.1646L14.9984 10.675C14.7928 10.4791 14.4476 10.4717 14.2569 10.6675C14.0559 10.8485 14.0587 11.1862 14.2644 11.3844ZM14.5401 8.82509C14.5401 7.66001 13.614 6.72876 12.4317 6.72876C11.705 6.72876 11.0564 7.097 10.7082 7.64048C10.8984 7.82833 11.0719 8.01849 11.2132 8.22533C12.4851 8.40111 13.4549 9.30482 13.676 10.528C14.1966 10.1459 14.5401 9.52197 14.5401 8.82509ZM7.28795 15.1811C7.23912 15.2834 7.28049 15.3661 7.40228 15.3661L8.23467 15.3661L7.71466 16.59C7.6733 16.6797 7.78248 16.7727 7.89505 16.6802L10.2249 14.6919C10.3248 14.6068 10.2834 14.4603 10.1444 14.4603L9.13571 14.4603L9.44033 13.9298C9.49146 13.8447 9.44263 13.7471 9.34037 13.7471L8.06932 13.7471C7.94522 13.7471 7.90154 13.7959 7.86018 13.8884Z"
                     fill="currentColor" fill-opacity="0.85" />
       </g>
</svg>