<?xml version="1.0" encoding="UTF-8"?>
<!--Generator: Apple Native CoreSVG 326-->
<!DOCTYPE svg PUBLIC "-//W3C//DTD SVG 1.1//EN" "http://www.w3.org/Graphics/SVG/1.1/DTD/svg11.dtd">
<svg version="1.1" xmlns="http://www.w3.org/2000/svg" xmlns:xlink="http://www.w3.org/1999/xlink"
       viewBox="0 0 30.0783 26.8108">
       <g>
              <rect height="26.8108" opacity="0" width="30.0783" x="0" y="0" />
              <path d="M18.3178 23.1935C18.7152 23.4215 18.8203 23.905 18.5998 24.2801L17.375 26.3901C17.1568 26.7726 16.6933 26.93 16.2959 26.7043C15.8961 26.4762 15.8105 26.0076 16.0288 25.6297L17.2484 23.5151C17.4913 23.1102 17.9203 22.9678 18.3178 23.1935Z"
                     fill="currentColor" fill-opacity="0.85" />
              <path d="M15.5058 21.5509L14.2885 23.6586C14.0703 24.0336 13.5993 24.191 13.2094 23.9676C12.8097 23.7396 12.7241 23.2709 12.9348 22.8982L14.1619 20.7784C14.2098 20.6956 14.266 20.6237 14.3289 20.5643L15.3794 20.5643C15.6496 20.8139 15.696 21.2191 15.5058 21.5509Z"
                     fill="currentColor" fill-opacity="0.85" />
              <path d="M10.5466 23.1958C10.9441 23.4238 11.0417 23.9073 10.8189 24.2824L9.60155 26.3924C9.38331 26.7749 8.91238 26.9323 8.52473 26.7066C8.125 26.4786 8.03711 26.0099 8.24789 25.632L9.47496 23.5174C9.71274 23.1125 10.1492 22.9701 10.5466 23.1958Z"
                     fill="currentColor" fill-opacity="0.85" />
              <path d="M7.73468 21.5532L6.50761 23.6609C6.29683 24.0359 5.8259 24.2007 5.43078 23.9773C5.03106 23.7419 4.94317 23.2732 5.16141 22.9005L6.38848 20.7807C6.43749 20.6968 6.49495 20.6241 6.55913 20.5643L7.60216 20.5643C7.87789 20.8171 7.92595 21.2194 7.73468 21.5532Z"
                     fill="currentColor" fill-opacity="0.85" />
              <path d="M22.8201 1.08974C22.8201 1.69685 22.2461 2.7038 22.2461 4.11223C22.2461 6.23149 23.6466 7.60845 25.9342 7.60845C27.3783 7.60845 28.1486 6.99837 28.7166 6.99837C29.0664 6.99837 29.2474 7.31141 29.2474 7.75196C29.2474 9.27365 27.6369 12.0618 24.5625 12.7451C24.1909 9.48381 21.7284 7.04542 18.4263 6.62376C18.0991 6.14625 17.7155 5.68836 17.2733 5.26937C17.9298 2.38899 20.5947 0.550383 22.2095 0.534313C22.5978 0.532008 22.8201 0.764624 22.8201 1.08974Z"
                     fill="currentColor" fill-opacity="0.85" />
              <path d="M6.09927 18.7542L17.802 18.7542C20.6478 18.7542 22.8036 16.545 22.8036 13.6235C22.8036 10.585 20.5117 8.3598 17.3754 8.37011C16.3597 6.47588 14.4478 4.81839 11.3981 4.81839C7.91095 4.81839 5.03658 7.40847 4.75853 10.8354C2.97154 11.3036 1.81756 12.8292 1.81756 14.727C1.81756 17.1234 3.55002 18.7542 6.09927 18.7542Z"
                     fill="currentColor" fill-opacity="0.85" />
       </g>
</svg>