<?xml version="1.0" encoding="UTF-8"?>
<!--Generator: Apple Native CoreSVG 326-->
<!DOCTYPE svg PUBLIC "-//W3C//DTD SVG 1.1//EN" "http://www.w3.org/Graphics/SVG/1.1/DTD/svg11.dtd">
<svg version="1.1" xmlns="http://www.w3.org/2000/svg" xmlns:xlink="http://www.w3.org/1999/xlink"
       viewBox="0 0 21.365 21.006">
       <g>
              <rect height="21.006" opacity="0" width="21.365" x="0" y="0" />
              <path d="M21.0037 10.5079C21.0037 16.3043 16.302 21.006 10.4981 21.006C4.70394 21.006 0 16.3043 0 10.5079C0 4.7137 4.70394 0.00976562 10.4981 0.00976562C16.302 0.00976562 21.0037 4.7137 21.0037 10.5079ZM6.08975 9.43214C5.03221 9.81233 4.379 10.6935 4.379 11.7701C4.379 13.2268 5.4767 14.2636 7.0472 14.2636L13.4842 14.2636C15.2449 14.2636 16.6247 12.9251 16.6247 11.1812C16.6247 9.40272 15.2655 8.04882 13.4203 8.05573C12.754 6.73616 11.559 6.04037 10.0012 6.04037C8.00721 6.04037 6.36998 7.43589 6.08975 9.43214Z"
                     fill="currentColor" fill-opacity="0.85" />
       </g>
</svg>