<?xml version="1.0" encoding="UTF-8"?>
<!--Generator: Apple Native CoreSVG 326-->
<!DOCTYPE svg PUBLIC "-//W3C//DTD SVG 1.1//EN" "http://www.w3.org/Graphics/SVG/1.1/DTD/svg11.dtd">
<svg version="1.1" xmlns="http://www.w3.org/2000/svg" xmlns:xlink="http://www.w3.org/1999/xlink"
       viewBox="0 0 28.7933 26.8617">
       <g>
              <rect height="26.8617" opacity="0" width="28.7933" x="0" y="0" />
              <path d="M17.6718 23.246C18.0692 23.474 18.1744 23.9501 17.9538 24.3325L16.7267 26.4426C16.5108 26.8176 16.045 26.9824 15.6499 26.7567C15.2502 26.5287 15.1623 26.0526 15.3805 25.6822L16.6001 23.5676C16.8454 23.1627 17.2744 23.0203 17.6718 23.246Z"
                     fill="currentColor" fill-opacity="0.85" />
              <path d="M14.5853 20.5093C14.9828 20.735 15.0804 21.2185 14.8599 21.5959L13.6426 23.7036C13.4243 24.0786 12.9534 24.2434 12.5634 24.02C12.1637 23.792 12.0781 23.316 12.2889 22.9432L13.516 20.8309C13.7514 20.4237 14.1879 20.2813 14.5853 20.5093Z"
                     fill="currentColor" fill-opacity="0.85" />
              <path d="M9.90068 23.2483C10.2958 23.4763 10.3935 23.9598 10.1729 24.3349L8.9556 26.4449C8.73736 26.8199 8.26643 26.9847 7.87647 26.759C7.47905 26.531 7.39116 26.0549 7.60194 25.6845L8.82901 23.5699C9.06448 23.165 9.50096 23.0226 9.90068 23.2483Z"
                     fill="currentColor" fill-opacity="0.85" />
              <path d="M6.8142 20.5116C7.21162 20.7373 7.30697 21.2208 7.08642 21.5982L5.86166 23.7059C5.65088 24.0884 5.17994 24.2457 4.78252 24.0224C4.38511 23.7943 4.29721 23.3183 4.51546 22.9455L5.74253 20.8332C5.97799 20.426 6.41448 20.2836 6.8142 20.5116Z"
                     fill="currentColor" fill-opacity="0.85" />
              <path d="M22.1818 1.38921C22.1818 1.94354 21.8176 2.71084 21.8176 3.91365C21.8176 6.15404 22.8898 7.32495 25.0741 7.32495C26.1391 7.32495 26.7444 6.99644 27.5169 6.99644C28.5621 6.99644 29.0492 7.91823 28.6598 9.01283C27.7619 11.5659 25.3774 13.3349 22.1576 13.3569C22.14 12.5424 21.9522 11.7842 21.625 11.1125C21.8047 11.139 21.991 11.1505 22.1816 11.1505C24.1877 11.1505 25.6999 10.2984 26.3812 9.11837L26.2979 9.04255C25.8934 9.17411 25.3608 9.33091 24.5929 9.33091C21.7287 9.33091 19.8145 7.31239 19.8145 4.52743C19.8145 3.74333 19.9684 3.07411 20.1195 2.5979L19.9972 2.51978C18.785 3.31243 17.9432 4.74228 17.9432 6.3769C17.9432 7.06111 18.0476 7.69614 18.2433 8.26411C17.7669 8.12031 17.2584 8.04001 16.7283 8.0265C16.4678 7.54865 16.1662 7.11747 15.8242 6.73818C15.8168 6.67957 15.8161 6.61875 15.8161 6.55771C15.8161 3.67006 17.7679 1.03031 20.2336 0.204958C21.2497-0.140235 22.1818 0.35484 22.1818 1.38921Z"
                     fill="currentColor" fill-opacity="0.85" />
              <path d="M5.85608 18.9841L16.609 18.9841C19.7297 18.9841 22.1657 16.6015 22.1657 13.5268C22.1657 10.4469 19.8146 8.10517 16.7283 8.0265C15.526 5.82068 13.4477 4.60908 10.7894 4.60908C7.37041 4.60908 4.55343 7.05685 4.00734 10.439C2.23703 11.014 1.09621 12.5769 1.09621 14.5109C1.09621 17.1059 3.0921 18.9841 5.85608 18.9841ZM5.92146 16.4069C4.44036 16.4069 3.68829 15.6289 3.68829 14.5425C3.68829 13.5768 4.30122 12.8454 5.64724 12.4944C6.19806 12.3525 6.35145 12.1003 6.43528 11.5375C6.83895 8.71125 8.58669 7.18623 10.7894 7.18623C12.4526 7.18623 13.8377 8.14909 14.7683 9.90065C15.0204 10.3579 15.2772 10.5244 15.8498 10.5244C18.394 10.5244 19.5788 11.8688 19.5788 13.5659C19.5788 15.1682 18.363 16.4069 16.5338 16.4069Z"
                     fill="currentColor" fill-opacity="0.85" />
       </g>
</svg>