<?xml version="1.0" encoding="UTF-8"?>
<!--Generator: Apple Native CoreSVG 326-->
<!DOCTYPE svg PUBLIC "-//W3C//DTD SVG 1.1//EN" "http://www.w3.org/Graphics/SVG/1.1/DTD/svg11.dtd">
<svg version="1.1" xmlns="http://www.w3.org/2000/svg" xmlns:xlink="http://www.w3.org/1999/xlink"
       viewBox="0 0 32.1099 23.67">
       <g>
              <rect height="23.67" opacity="0" width="32.1099" x="0" y="0" />
              <path d="M27.6015 15.9285L28.8316 17.1638C29.2561 17.5957 29.2784 18.3073 28.8466 18.7294C28.4147 19.1613 27.6808 19.1733 27.2587 18.7317L26.0411 17.4889C25.6092 17.0421 25.5943 16.338 26.0187 15.9136C26.4506 15.484 27.1622 15.4915 27.6015 15.9285ZM26.4058 11.2653C26.4058 13.0099 25.5216 14.548 24.178 15.4558C23.6076 12.5259 21.2698 10.3852 18.1967 10.016C17.8695 9.53534 17.4862 9.07404 17.044 8.65196C17.9264 7.18889 19.5319 6.21264 21.3578 6.21264C24.1437 6.21264 26.4058 8.47705 26.4058 11.2653ZM31.883 11.2653C31.883 11.8786 31.3799 12.3668 30.7614 12.3668L29.0228 12.3668C28.4215 12.3668 27.8989 11.8786 27.8989 11.2653C27.8989 10.6565 28.4215 10.1489 29.0228 10.1489L30.7614 10.1489C31.3799 10.1489 31.883 10.6565 31.883 11.2653ZM28.8167 3.80866C29.2486 4.23307 29.2486 4.96185 28.8093 5.38626L27.5739 6.61182C27.1472 7.04599 26.4208 7.05861 25.9963 6.6342C25.5645 6.20233 25.5645 5.47585 26.0038 5.04628L27.2437 3.82358C27.6808 3.38425 28.3923 3.37678 28.8167 3.80866ZM15.4615 3.8012L16.6819 5.04628C17.1115 5.48846 17.1264 6.19717 16.6946 6.61928C16.2701 7.05115 15.5586 7.04369 15.1193 6.60435L13.8937 5.36903C13.4618 4.93947 13.4492 4.22561 13.8811 3.8012C14.3055 3.36932 15.0469 3.36417 15.4615 3.8012ZM22.4518 1.8272L22.4518 3.56815C22.4518 4.1769 21.9539 4.69721 21.3429 4.69721C20.7318 4.69721 20.2339 4.1769 20.2339 3.56815L20.2339 1.8272C20.2339 1.21846 20.7318 0.703308 21.3429 0.703308C21.9539 0.703308 22.4518 1.21846 22.4518 1.8272Z"
                     fill="currentColor" fill-opacity="0.85" />
              <path d="M5.95345 22.0126L17.6464 22.0126C20.5042 22.0126 22.6624 19.7988 22.6624 16.8751C22.6624 13.8366 20.3682 11.609 17.2319 11.6193C16.2208 9.73433 14.3112 8.06762 11.2425 8.06762C7.75306 8.06762 4.88615 10.6577 4.6058 14.0869C2.82057 14.5528 1.65737 16.0739 1.65737 17.9809C1.65737 20.3727 3.39268 22.0126 5.95345 22.0126Z"
                     fill="currentColor" fill-opacity="0.85" />
       </g>
</svg>