<?xml version="1.0" encoding="UTF-8"?>
<!--Generator: Apple Native CoreSVG 326-->
<!DOCTYPE svg PUBLIC "-//W3C//DTD SVG 1.1//EN" "http://www.w3.org/Graphics/SVG/1.1/DTD/svg11.dtd">
<svg version="1.1" xmlns="http://www.w3.org/2000/svg" xmlns:xlink="http://www.w3.org/1999/xlink"
       viewBox="0 0 21.365 21.006">
       <g>
              <rect height="21.006" opacity="0" width="21.365" x="0" y="0" />
              <path d="M21.0037 10.5079C21.0037 16.3043 16.302 21.006 10.4981 21.006C4.70394 21.006 0 16.3043 0 10.5079C0 4.7137 4.70394 0.00976562 10.4981 0.00976562C16.302 0.00976562 21.0037 4.7137 21.0037 10.5079ZM5.56556 10.8772C4.76993 11.1409 4.2506 11.8389 4.2506 12.7051C4.2506 13.8356 5.0629 14.6089 6.26068 14.6089L11.529 14.6089C12.8801 14.6089 13.8867 13.5869 13.8867 12.2254C13.8867 10.8209 12.8428 9.78115 11.3958 9.77424C10.9189 8.90377 10.0375 8.15763 8.64525 8.15763C7.054 8.15763 5.74134 9.33533 5.56556 10.8772ZM11.451 8.48136C11.6129 8.65307 11.7479 8.82479 11.8754 8.9862C13.3558 9.19127 14.4531 10.2667 14.6621 11.7058C16.1197 11.3957 17.0206 10.1949 17.0206 9.35335C17.0206 9.16034 16.935 9.01385 16.7713 9.01385C16.5197 9.01385 16.1635 9.28159 15.5098 9.28159C14.4411 9.28905 13.7867 8.65362 13.7867 7.67748C13.7867 7.02318 14.066 6.56244 14.066 6.29131C14.066 6.1299 13.9539 6.03225 13.7609 6.03225C12.929 6.05123 11.6394 7.05151 11.451 8.48136Z"
                     fill="currentColor" fill-opacity="0.85" />
       </g>
</svg>