<?xml version="1.0" encoding="UTF-8"?>
<!--Generator: Apple Native CoreSVG 326-->
<!DOCTYPE svg PUBLIC "-//W3C//DTD SVG 1.1//EN" "http://www.w3.org/Graphics/SVG/1.1/DTD/svg11.dtd">
<svg version="1.1" xmlns="http://www.w3.org/2000/svg" xmlns:xlink="http://www.w3.org/1999/xlink"
       viewBox="0 0 30.0762 28.3931">
       <g>
              <rect height="28.3931" opacity="0" width="30.0762" x="0" y="0" />
              <path d="M13.6288 21.4932L12.8189 23.0409L15.0616 23.0409C15.3598 23.0409 15.4356 23.3419 15.2081 23.5395L9.99545 28.2862C9.89264 28.3861 9.77776 28.4154 9.68987 28.3764C9.59967 28.3373 9.57037 28.2322 9.62897 28.0955L10.9591 24.8765L9.1362 24.8765C8.87714 24.8765 8.78464 24.7151 8.88229 24.4807L10.2293 21.4151C10.2375 21.3961 10.2458 21.378 10.2544 21.3611L13.6764 21.3611C13.6702 21.4018 13.6543 21.4463 13.6288 21.4932Z"
                     fill="currentColor" fill-opacity="0.85" />
              <path d="M22.8178 1.88144C22.8178 2.48854 22.2386 3.49319 22.2386 4.90393C22.2386 7.02835 23.6466 8.40014 25.9268 8.40014C27.376 8.40014 28.1486 7.79007 28.7166 7.79007C29.0664 7.79007 29.2474 8.10081 29.2474 8.54135C29.2474 10.065 27.6313 12.8534 24.5554 13.5368C24.1855 10.2774 21.729 7.84404 18.4263 7.41545C18.0984 6.93898 17.7154 6.48227 17.2744 6.06438C17.9322 3.18583 20.5942 1.34723 22.1997 1.33117C22.5978 1.32886 22.8178 1.55632 22.8178 1.88144Z"
                     fill="currentColor" fill-opacity="0.85" />
              <path d="M6.09181 19.5459L17.7922 19.5459C20.6478 19.5459 22.8036 17.3344 22.8036 14.4129C22.8036 11.3842 20.5117 9.15149 17.3754 9.16927C16.3597 7.26527 14.4478 5.61009 11.3907 5.61009C7.90349 5.61009 5.03658 8.19786 4.75107 11.6271C2.96178 12.0953 1.80779 13.6209 1.80779 15.5187C1.80779 17.9151 3.54771 19.5459 6.09181 19.5459Z"
                     fill="currentColor" fill-opacity="0.85" />
       </g>
</svg>