<?xml version="1.0" encoding="UTF-8"?>
<!--Generator: Apple Native CoreSVG 326-->
<!DOCTYPE svg PUBLIC "-//W3C//DTD SVG 1.1//EN" "http://www.w3.org/Graphics/SVG/1.1/DTD/svg11.dtd">
<svg version="1.1" xmlns="http://www.w3.org/2000/svg" xmlns:xlink="http://www.w3.org/1999/xlink"
       viewBox="0 0 21.365 21.006">
       <g>
              <rect height="21.006" opacity="0" width="21.365" x="0" y="0" />
              <path d="M10.4981 20.9962C16.302 20.9962 21.0037 16.2946 21.0037 10.4981C21.0037 4.70163 16.302 0 10.4981 0C4.70163 0 0 4.70163 0 10.4981C0 16.2946 4.70163 20.9962 10.4981 20.9962ZM10.4981 17.9484C6.37829 17.9484 3.04785 14.6179 3.04785 10.4981C3.04785 6.37829 6.37829 3.04785 10.4981 3.04785C14.6179 3.04785 17.9558 6.37829 17.9558 10.4981C17.9558 14.6179 14.6179 17.9484 10.4981 17.9484Z"
                     fill="currentColor" fill-opacity="0.85" />
              <path d="M7.75251 11.4798L12.9237 11.4798C14.3479 11.4798 15.4428 10.39 15.4428 8.99924C15.4428 7.56248 14.3415 6.48595 12.8789 6.48595C12.3279 5.43806 11.3857 4.86516 10.1276 4.86516C8.51896 4.86516 7.19818 5.99076 6.97994 7.59475C6.14009 7.90088 5.60747 8.58623 5.60747 9.47787C5.60747 10.6262 6.46048 11.4798 7.75251 11.4798ZM9.02556 15.2222L10.266 13.0446C10.3953 12.8126 10.3321 12.519 10.0926 12.3846C9.85534 12.2525 9.55667 12.3283 9.42971 12.5604L8.18693 14.7357C8.05998 14.958 8.12088 15.2612 8.36787 15.3957C8.59763 15.5278 8.89861 15.4445 9.02556 15.2222ZM12.9817 15.2222L14.2319 13.0446C14.3612 12.8126 14.2905 12.519 14.0584 12.3846C13.8137 12.2525 13.5151 12.3283 13.3933 12.5604L12.1453 14.7357C12.0184 14.958 12.0793 15.2612 12.3263 15.3957C12.556 15.5278 12.857 15.4445 12.9817 15.2222ZM11.0036 15.2073L12.2441 13.0222C12.3734 12.7976 12.3101 12.4967 12.0706 12.3623C11.8334 12.2301 11.5347 12.3134 11.4055 12.538L10.165 14.7207C10.038 14.943 10.0989 15.2463 10.3459 15.3807C10.5757 15.5128 10.8767 15.4296 11.0036 15.2073ZM7.0452 15.2073L8.28568 13.0222C8.41494 12.7976 8.35173 12.4967 8.1122 12.3623C7.87728 12.2301 7.57631 12.3134 7.44935 12.538L6.19911 14.7207C6.07962 14.943 6.14052 15.2463 6.38751 15.3807C6.61727 15.5128 6.91825 15.4296 7.0452 15.2073Z"
                     fill="currentColor" fill-opacity="0.85" />
       </g>
</svg>