<?xml version="1.0" encoding="UTF-8"?>
<!--Generator: Apple Native CoreSVG 326-->
<!DOCTYPE svg PUBLIC "-//W3C//DTD SVG 1.1//EN" "http://www.w3.org/Graphics/SVG/1.1/DTD/svg11.dtd">
<svg version="1.1" xmlns="http://www.w3.org/2000/svg" xmlns:xlink="http://www.w3.org/1999/xlink"
       viewBox="0 0 32.3923 30.8466">
       <g>
              <rect height="30.8466" opacity="0" width="32.3923" x="0" y="0" />
              <path d="M13.6638 23.9454L12.8566 25.4931L15.0966 25.4931C15.3948 25.4931 15.4706 25.7941 15.2431 25.9917L10.0305 30.7384C9.92764 30.8458 9.81276 30.8677 9.72487 30.8286C9.63467 30.797 9.60537 30.6844 9.66397 30.5477L10.9967 27.3287L9.1712 27.3287C8.91213 27.3287 8.81963 27.1673 8.91729 26.9329L10.2643 23.8747C10.2737 23.8521 10.2833 23.8308 10.2932 23.8111L13.7122 23.8111C13.7065 23.8528 13.6905 23.8982 13.6638 23.9454Z"
                     fill="currentColor" fill-opacity="0.85" />
              <path d="M27.7077 15.8417L28.9407 17.0696C29.38 17.494 29.38 18.2204 28.9482 18.6449C28.5238 19.0767 27.8145 19.0693 27.3752 18.6299L26.1375 17.4072C25.6982 16.9754 25.7005 16.2512 26.1301 15.8268C26.5522 15.3949 27.2735 15.4075 27.7077 15.8417ZM26.5488 11.1957C26.5488 12.8842 25.725 14.3766 24.4532 15.2895C23.8316 12.3816 21.4869 10.2637 18.4263 9.87284C18.09 9.38144 17.6941 8.91061 17.2372 8.48063C18.1298 7.07291 19.7022 6.14304 21.4961 6.14304C24.2913 6.14304 26.5488 8.40053 26.5488 11.1957ZM32.0242 11.1882C32.0242 11.8016 31.5211 12.3047 30.9026 12.3047L29.1565 12.3047C28.5478 12.3047 28.0326 11.8016 28.0326 11.1882C28.0326 10.5749 28.5478 10.0867 29.1565 10.0867L30.9026 10.0867C31.5211 10.0867 32.0242 10.5749 32.0242 11.1882ZM28.9482 3.74882C29.38 4.18069 29.38 4.89971 28.9407 5.33158L27.7077 6.55714C27.2735 6.98385 26.5522 7.00393 26.1301 6.57206C25.7005 6.14019 25.6982 5.41601 26.1375 4.9916L27.3752 3.7712C27.8145 3.32957 28.5238 3.32441 28.9482 3.74882ZM15.6102 3.7689L16.853 4.9916C17.2849 5.41601 17.2826 6.14019 16.8604 6.57206C16.4309 7.00393 15.7096 6.98385 15.2754 6.55714L14.0447 5.33158C13.603 4.8974 13.6053 4.17839 14.0372 3.74652C14.4691 3.32211 15.1783 3.32957 15.6102 3.7689ZM22.6154 1.77483L22.6154 3.51117C22.6154 4.12222 22.1198 4.63507 21.5065 4.63507C20.9006 4.63507 20.4049 4.12222 20.4049 3.51117L20.4049 1.77483C20.4049 1.15632 20.9006 0.650934 21.5065 0.650934C22.1198 0.650934 22.6154 1.15632 22.6154 1.77483Z"
                     fill="currentColor" fill-opacity="0.85" />
              <path d="M6.10158 21.9958L17.802 21.9958C20.6478 21.9958 22.8111 19.7843 22.8111 16.8703C22.8111 13.8341 20.5117 11.6089 17.3754 11.6192C16.3597 9.7152 14.4478 8.06747 11.3907 8.06747C7.91095 8.06747 5.03658 10.6552 4.75853 14.077C2.97154 14.5527 1.8101 16.0709 1.8101 17.9687C1.8101 20.3651 3.55002 21.9958 6.10158 21.9958Z"
                     fill="currentColor" fill-opacity="0.85" />
       </g>
</svg>