<?xml version="1.0" encoding="UTF-8"?>
<!--Generator: Apple Native CoreSVG 326-->
<!DOCTYPE svg PUBLIC "-//W3C//DTD SVG 1.1//EN" "http://www.w3.org/Graphics/SVG/1.1/DTD/svg11.dtd">
<svg version="1.1" xmlns="http://www.w3.org/2000/svg" xmlns:xlink="http://www.w3.org/1999/xlink"
       viewBox="0 0 31.6562 22.5493">
       <g>
              <rect height="22.5493" opacity="0" width="31.6562" x="0" y="0" />
              <path d="M27.3396 15.173L28.575 16.4009C29.0143 16.8276 29.0143 17.554 28.5824 17.9762C28.158 18.408 27.4464 18.4052 27.0071 17.9635L25.7695 16.7431C25.3302 16.3113 25.3302 15.5825 25.762 15.1506C26.1864 14.7285 26.9055 14.7434 27.3396 15.173ZM26.1715 10.5098C26.1715 12.8605 24.5901 14.8245 22.4305 15.3938C22.3418 14.596 22.0875 13.8613 21.6979 13.2218C22.9315 12.957 23.8556 11.8538 23.8556 10.5396C23.8556 9.03017 22.6329 7.7977 21.1235 7.7977C19.6215 7.7977 18.389 9.03017 18.389 10.5396C18.389 10.6186 18.3924 10.6968 18.4009 10.7736C17.9694 10.654 17.5118 10.5885 17.0367 10.5768C16.7947 10.1345 16.5174 9.73199 16.2053 9.37331C16.7152 7.13262 18.7192 5.50933 21.1235 5.50933C23.9192 5.50933 26.1715 7.70429 26.1715 10.5098ZM31.6562 10.562C31.6562 11.1753 31.1531 11.6658 30.5346 11.6658L28.7885 11.6658C28.1797 11.6658 27.6646 11.1753 27.6646 10.562C27.6646 9.95323 28.1797 9.44554 28.7885 9.44554L30.5346 9.44554C31.1531 9.44554 31.6562 9.95323 31.6562 10.562ZM28.5824 3.10304C29.0143 3.52976 29.0143 4.25854 28.575 4.68295L27.3419 5.91081C26.9055 6.34499 26.1864 6.3553 25.762 5.92573C25.3302 5.49902 25.3302 4.76508 25.7695 4.34297L27.0071 3.11796C27.4464 2.67863 28.158 2.67348 28.5824 3.10304ZM15.2249 3.08812L16.4476 4.34297C16.8697 4.78516 16.8921 5.49386 16.4602 5.91827C16.0284 6.34784 15.3145 6.34268 14.8826 5.90335L13.6571 4.66573C13.2252 4.23616 13.2126 3.5223 13.6445 3.08812C14.0689 2.66602 14.8103 2.65855 15.2249 3.08812ZM22.2198 1.1239L22.2198 2.86485C22.2198 3.47359 21.7121 3.9939 21.1086 3.9939C20.4975 3.9939 19.9996 3.47359 19.9996 2.86485L19.9996 1.1239C19.9996 0.507692 20.4975 0 21.1086 0C21.7121 0 22.2198 0.507692 22.2198 1.1239Z"
                     fill="currentColor" fill-opacity="0.85" />
              <path d="M6.16448 21.5418L16.9174 21.5418C20.0404 21.5418 22.4741 19.1518 22.4741 16.0748C22.4741 12.9972 20.123 10.6531 17.0367 10.5768C15.8344 8.37842 13.7561 7.16451 11.0978 7.16451C7.67882 7.16451 4.86183 9.60483 4.31574 12.9968C2.54313 13.5643 1.40461 15.1272 1.40461 17.0612C1.40461 19.6637 3.3982 21.5418 6.16448 21.5418ZM6.22986 18.9549C4.74876 18.9549 3.999 18.1792 3.999 17.0928C3.999 16.1346 4.60962 15.3957 5.95564 15.0446C6.50876 14.9028 6.65986 14.6506 6.74368 14.0929C7.14965 11.269 8.8974 9.73651 11.0978 9.73651C12.761 9.73651 14.1438 10.6994 15.0767 12.4509C15.3265 12.9082 15.5856 13.0747 16.1582 13.0747C18.7001 13.0747 19.8872 14.4191 19.8872 16.1161C19.8872 17.7236 18.6714 18.9549 16.8422 18.9549Z"
                     fill="currentColor" fill-opacity="0.85" />
       </g>
</svg>