<?xml version="1.0" encoding="UTF-8"?>
<!--Generator: Apple Native CoreSVG 326-->
<!DOCTYPE svg PUBLIC "-//W3C//DTD SVG 1.1//EN" "http://www.w3.org/Graphics/SVG/1.1/DTD/svg11.dtd">
<svg version="1.1" xmlns="http://www.w3.org/2000/svg" xmlns:xlink="http://www.w3.org/1999/xlink"
       viewBox="0 0 24.2726 23.5369">
       <g>
              <rect height="23.5369" opacity="0" width="24.2726" x="0" y="0" />
              <path d="M18.6875 21.632L6.42263 21.632C5.94654 21.632 5.58357 21.9628 5.58357 22.4188C5.58357 22.8673 5.94654 23.2005 6.42263 23.2005L18.6875 23.2005C19.1562 23.2005 19.5191 22.8673 19.5191 22.4188C19.5191 21.9628 19.1562 21.632 18.6875 21.632Z"
                     fill="currentColor" fill-opacity="0.85" />
              <path d="M18.6875 18.3139L6.42263 18.3139C5.94654 18.3139 5.58357 18.6522 5.58357 19.1008C5.58357 19.5493 5.94654 19.8876 6.42263 19.8876L18.6875 19.8876C19.1562 19.8876 19.5191 19.5493 19.5191 19.1008C19.5191 18.6522 19.1562 18.3139 18.6875 18.3139Z"
                     fill="currentColor" fill-opacity="0.85" />
              <path d="M5.82893 15.9886L18.1495 15.9886C21.6287 15.9886 24.2726 13.3332 24.2726 9.96725C24.2726 6.56105 21.6366 3.92008 18.132 3.92008C17.0009 1.73179 14.8919 0 11.4877 0C7.51741 0 4.45276 2.8734 3.93652 6.54121C2.05703 7.19308 0.634766 8.84566 0.634766 11.0927C0.634766 13.8548 2.70241 15.9886 5.82893 15.9886Z"
                     fill="currentColor" fill-opacity="0.85" />
       </g>
</svg>