<?xml version="1.0" encoding="UTF-8"?>
<!--Generator: Apple Native CoreSVG 326-->
<!DOCTYPE svg PUBLIC "-//W3C//DTD SVG 1.1//EN" "http://www.w3.org/Graphics/SVG/1.1/DTD/svg11.dtd">
<svg version="1.1" xmlns="http://www.w3.org/2000/svg" xmlns:xlink="http://www.w3.org/1999/xlink"
       viewBox="0 0 24.2726 25.2053">
       <g>
              <rect height="25.2053" opacity="0" width="24.2726" x="0" y="0" />
              <path d="M17.6439 20.4148L18.0967 19.6206C18.3247 19.2381 18.2145 18.7597 17.8171 18.5317C17.4196 18.306 16.9883 18.4433 16.7454 18.8533L16.2902 19.6544C16.0817 20.0249 16.165 20.501 16.5573 20.729C16.9547 20.9547 17.4256 20.7876 17.6439 20.4148ZM15.4901 23.7502C16.1633 23.7502 16.7164 23.1874 16.7164 22.5044C16.7164 21.841 16.1633 21.2856 15.4901 21.2856C14.8146 21.2856 14.2615 21.841 14.2615 22.5044C14.2615 23.1874 14.8146 23.7502 15.4901 23.7502Z"
                     fill="currentColor" fill-opacity="0.85" />
              <path d="M11.6673 21.8699L12.9819 19.5988C13.2001 19.214 13.1047 18.7379 12.7096 18.5047C12.3099 18.2767 11.8711 18.4266 11.638 18.8338L10.3211 21.1095C10.1029 21.4823 10.1908 21.9583 10.5905 22.184C10.9856 22.4097 11.4514 22.2524 11.6673 21.8699ZM9.51354 25.2053C10.1867 25.2053 10.7496 24.6499 10.7496 23.9595C10.7496 23.3036 10.189 22.743 9.51354 22.743C8.84784 22.743 8.28726 23.3036 8.28726 23.9595C8.28726 24.6499 8.84784 25.2053 9.51354 25.2053Z"
                     fill="currentColor" fill-opacity="0.85" />
              <path d="M7.4095 20.3758L7.86236 19.5815C8.09037 19.199 7.98009 18.7206 7.58268 18.4926C7.19272 18.2669 6.75393 18.4042 6.51846 18.8142L6.05584 19.6154C5.84737 19.9858 5.93065 20.4619 6.33037 20.6899C6.72033 20.9156 7.19126 20.7508 7.4095 20.3758ZM5.25573 23.7112C5.92889 23.7112 6.48201 23.1483 6.48201 22.4654C6.48201 21.8094 5.92889 21.2489 5.25573 21.2489C4.58026 21.2489 4.02714 21.8094 4.02714 22.4654C4.02714 23.1483 4.58026 23.7112 5.25573 23.7112Z"
                     fill="currentColor" fill-opacity="0.85" />
              <path d="M5.82893 16.8228L18.1495 16.8228C21.6287 16.8228 24.2726 14.1674 24.2726 10.8015C24.2726 7.39525 21.6366 4.75428 18.132 4.75428C17.0009 2.566 14.8919 0.834204 11.4877 0.834204C7.51741 0.834204 4.45276 3.7076 3.93652 7.37541C2.05703 8.02728 0.634766 9.67986 0.634766 11.9269C0.634766 14.689 2.70241 16.8228 5.82893 16.8228Z"
                     fill="currentColor" fill-opacity="0.85" />
       </g>
</svg>