<?xml version="1.0" encoding="UTF-8"?>
<!--Generator: Apple Native CoreSVG 326-->
<!DOCTYPE svg PUBLIC "-//W3C//DTD SVG 1.1//EN" "http://www.w3.org/Graphics/SVG/1.1/DTD/svg11.dtd">
<svg version="1.1" xmlns="http://www.w3.org/2000/svg" xmlns:xlink="http://www.w3.org/1999/xlink"
       viewBox="0 0 24.6449 23.5952">
       <g>
              <rect height="23.5952" opacity="0" width="24.6449" x="0" y="0" />
              <path d="M1.94045 20.4256L22.5744 20.4256L22.5744 19.4355C22.5744 18.8957 22.2379 18.5718 21.7032 18.5718L21.3244 18.5718L21.3244 7.89293L22.1092 7.89293C22.9074 7.89293 23.3841 7.28595 23.3841 6.69158C23.3841 6.25686 23.136 5.85374 22.6254 5.55167L13.7186 0.416404C13.2683 0.154491 12.7462 0 12.2563 0C11.7664 0 11.242 0.154491 10.7963 0.416404L1.88944 5.55167C1.37659 5.85374 1.13081 6.25686 1.13081 6.69158C1.13081 7.28595 1.60745 7.89293 2.41314 7.89293L3.19045 7.89293L3.19045 18.5718L2.81396 18.5718C2.27927 18.5718 1.94045 18.8957 1.94045 19.4355ZM5.29922 18.5718L5.29922 6.39673L12.047 2.62732C12.1194 2.5888 12.1965 2.57212 12.2563 2.57212C12.331 2.57212 12.3931 2.5888 12.4679 2.62732L19.2157 6.39673L19.2157 18.5718ZM1.20651 23.5854L23.0673 23.5854C23.7134 23.5854 24.2836 23.0525 24.2836 22.3766C24.2836 21.7231 23.7134 21.1701 23.0673 21.1701L1.20651 21.1701C0.553002 21.1701 0 21.7231 0 22.3766C0 23.045 0.553002 23.5854 1.20651 23.5854Z"
                     fill="currentColor" fill-opacity="0.85" />
              <path d="M12.3212 15.667C13.7408 15.667 15.1734 15.0362 15.6673 13.7495C15.7558 13.541 15.7776 13.3796 15.7776 13.1711C15.7776 12.606 15.3946 12.2707 14.8474 12.2707C14.3931 12.2707 14.1445 12.501 13.9625 12.9065C13.6678 13.6242 13.0827 14.0471 12.2839 14.0471C10.9129 14.0471 10.4283 12.7663 10.4283 11.5009C10.4283 10.1913 10.9692 8.96455 12.2742 8.96455C13.0878 8.96455 13.6304 9.43002 13.9263 10.0702C14.1186 10.4928 14.3724 10.7134 14.8462 10.7134C15.34 10.7134 15.7242 10.4188 15.7242 9.84515C15.7242 9.60168 15.6478 9.33637 15.5295 9.10781C14.8805 7.84168 13.5989 7.33945 12.2593 7.33945C9.74039 7.33945 8.35653 9.02848 8.35653 11.5084C8.35653 14.0462 9.76672 15.667 12.3212 15.667ZM10.3798 16.7536C10.516 16.7536 10.601 16.6904 10.635 16.5496L12.9882 6.67593C13.0025 6.61042 13.0048 6.58398 13.0048 6.55984C13.0048 6.40644 12.9054 6.29956 12.7474 6.29956C12.6066 6.29956 12.5216 6.36507 12.4877 6.49609L10.1345 16.3749C10.1224 16.426 10.1201 16.4548 10.1201 16.491C10.1201 16.6467 10.2218 16.7536 10.3798 16.7536ZM11.8669 16.7536C12.0105 16.7536 12.0979 16.6904 12.122 16.5496L14.4752 6.67593C14.497 6.61042 14.4993 6.58398 14.4993 6.55984C14.4993 6.40644 14.3925 6.29956 14.2419 6.29956C14.0937 6.29956 14.0086 6.36507 13.9747 6.49609L11.6215 16.3749C11.6118 16.426 11.6095 16.4548 11.6095 16.491C11.6095 16.6467 11.7163 16.7536 11.8669 16.7536Z"
                     fill="currentColor" fill-opacity="0.85" />
       </g>
</svg>