<?xml version="1.0" encoding="UTF-8"?>
<!--Generator: Apple Native CoreSVG 326-->
<!DOCTYPE svg PUBLIC "-//W3C//DTD SVG 1.1//EN" "http://www.w3.org/Graphics/SVG/1.1/DTD/svg11.dtd">
<svg version="1.1" xmlns="http://www.w3.org/2000/svg" xmlns:xlink="http://www.w3.org/1999/xlink"
       viewBox="0 0 22.6374 22.2784">
       <g>
              <rect height="22.2784" opacity="0" width="22.6374" x="0" y="0" />
              <path d="M11.1343 22.2687C17.2722 22.2687 22.2761 17.2722 22.2761 11.1343C22.2761 4.99648 17.2722 0 11.1343 0C4.99648 0 0 4.99648 0 11.1343C0 17.2722 4.99648 22.2687 11.1343 22.2687ZM11.1343 18.2927C7.17804 18.2927 3.97601 15.0906 3.97601 11.1343C3.97601 7.17573 7.17804 3.97601 11.1343 3.97601C15.0929 3.97601 18.3001 7.17573 18.3001 11.1343C18.3001 15.0906 15.0929 18.2927 11.1343 18.2927Z"
                     fill="currentColor" fill-opacity="0.85" />
              <path d="M11.197 15.2447C12.6165 15.2447 14.0416 14.6116 14.5356 13.3248C14.6241 13.1186 14.6534 12.9549 14.6534 12.739C14.6534 12.1814 14.2652 11.8461 13.7231 11.8461C13.2712 11.8461 13.0128 12.0764 12.8331 12.4841C12.536 13.1944 11.9607 13.6247 11.1597 13.6247C9.79092 13.6247 9.29657 12.3342 9.29657 11.0711C9.29657 9.7615 9.8449 8.53473 11.1499 8.53473C11.9636 8.53473 12.5085 9.00536 12.7945 9.64783C12.9943 10.0705 13.2481 10.2836 13.7145 10.2836C14.2106 10.2836 14.5925 9.99642 14.5925 9.4228C14.5925 9.17186 14.5235 8.91171 14.3978 8.68316C13.7586 7.41187 12.4672 6.91479 11.1275 6.91479C8.61613 6.91479 7.2248 8.60382 7.2248 11.086C7.2248 13.6216 8.64246 15.2447 11.197 15.2447ZM9.25557 16.3289C9.39174 16.3289 9.47909 16.2582 9.51069 16.1272L11.8639 6.24612C11.8783 6.18807 11.8806 6.15932 11.8806 6.13748C11.8806 5.98409 11.7812 5.86975 11.6255 5.86975C11.4749 5.86975 11.3899 5.94272 11.3634 6.07143L9.01022 15.9502C8.99299 16.0014 8.99068 16.0324 8.99068 16.0663C8.99068 16.2146 9.09756 16.3289 9.25557 16.3289ZM10.7426 16.3289C10.8788 16.3289 10.9661 16.2582 10.9977 16.1272L13.3509 6.24612C13.3653 6.18807 13.3676 6.15932 13.3676 6.13748C13.3676 5.98409 13.2682 5.86975 13.1125 5.86975C12.9694 5.86975 12.8844 5.94272 12.8505 6.07143L10.4973 15.9502C10.4875 16.0014 10.4852 16.0324 10.4852 16.0663C10.4852 16.2146 10.5846 16.3289 10.7426 16.3289Z"
                     fill="currentColor" fill-opacity="0.85" />
       </g>
</svg>