<?xml version="1.0" encoding="UTF-8"?>
<!--Generator: Apple Native CoreSVG 326-->
<!DOCTYPE svg PUBLIC "-//W3C//DTD SVG 1.1//EN" "http://www.w3.org/Graphics/SVG/1.1/DTD/svg11.dtd">
<svg version="1.1" xmlns="http://www.w3.org/2000/svg" xmlns:xlink="http://www.w3.org/1999/xlink"
       viewBox="0 0 21.365 21.006">
       <g>
              <rect height="21.006" opacity="0" width="21.365" x="0" y="0" />
              <path d="M21.0037 10.4981C21.0037 16.2923 16.302 20.9962 10.4981 20.9962C4.70394 20.9962 0 16.2923 0 10.4981C0 4.70163 4.70394 0 10.4981 0C16.302 0 21.0037 4.70163 21.0037 10.4981ZM12.3423 5.10736L12.0723 6.24491C11.7632 6.13858 11.4345 6.07822 11.111 6.03686L11.2868 5.28721C11.3012 5.22916 11.3035 5.20041 11.3035 5.17111C11.3035 5.01541 11.2041 4.89361 11.0363 4.89361C10.8783 4.89361 10.7858 4.96658 10.7519 5.10736L10.5376 6.00756C7.78405 6.03522 6.3371 7.82354 6.3371 10.4498C6.3371 12.3768 7.1101 13.7882 8.53728 14.4524L8.25111 15.6367C8.23904 15.6878 8.23673 15.7189 8.23673 15.7528C8.23673 15.9183 8.34076 16.0401 8.50623 16.0401C8.65962 16.0401 8.75212 15.9694 8.78834 15.8212L9.06014 14.6645C9.35717 14.7611 9.67834 14.8289 10.0237 14.8553L9.82659 15.6367C9.81682 15.6878 9.81452 15.7189 9.81452 15.7528C9.81452 15.9183 9.93116 16.0401 10.0966 16.0401C10.2426 16.0401 10.3299 15.9694 10.3638 15.8212L10.5873 14.8869L10.6344 14.8869C12.1239 14.8869 13.6196 14.1906 14.1509 12.8339C14.2393 12.6105 14.2686 12.4467 14.2686 12.2136C14.2686 11.6164 13.8557 11.2489 13.2666 11.2489C12.7802 11.2489 12.5069 11.5039 12.3174 11.9363C12.0618 12.5443 11.6128 12.9523 11.0174 13.0867L12.0938 8.58969C12.1777 8.69317 12.2278 8.7961 12.2812 8.92318C12.4885 9.37051 12.7572 9.59852 13.2729 9.59852C13.7937 9.59852 14.2077 9.28899 14.2077 8.67345C14.2077 8.41506 14.129 8.12276 13.9958 7.87928C13.6593 7.23081 13.1614 6.77413 12.5853 6.4794L12.8698 5.28721C12.8916 5.22916 12.8939 5.20041 12.8939 5.17111C12.8939 5.01541 12.7796 4.89361 12.6118 4.89361C12.4687 4.89361 12.3687 4.96658 12.3423 5.10736ZM11.6272 8.08988L10.4193 13.1361C10.0493 13.1269 9.7356 13.0102 9.49771 12.8275L10.7056 7.74863C11.071 7.78023 11.3796 7.90203 11.6272 8.08988ZM9.02599 12.3306C8.70184 11.818 8.56215 11.1285 8.56215 10.4349C8.56215 9.19024 9.03345 8.01637 10.1149 7.78769Z"
                     fill="currentColor" fill-opacity="0.85" />
       </g>
</svg>