<?xml version="1.0" encoding="UTF-8"?>
<!--Generator: Apple Native CoreSVG 326-->
<!DOCTYPE svg PUBLIC "-//W3C//DTD SVG 1.1//EN" "http://www.w3.org/Graphics/SVG/1.1/DTD/svg11.dtd">
<svg version="1.1" xmlns="http://www.w3.org/2000/svg" xmlns:xlink="http://www.w3.org/1999/xlink"
       viewBox="0 0 25.2371 20.7933">
       <g>
              <rect height="20.7933" opacity="0" width="25.2371" x="0" y="0" />
              <path d="M24.8758 12.4367C24.8758 9.44627 23.8182 6.68788 22.0375 4.53265C21.79 4.23112 21.3535 4.23112 21.0491 4.53034L18.6193 6.95264C18.3592 7.2128 18.3569 7.55853 18.5677 7.83822C19.5288 9.12728 20.1044 10.7185 20.1044 12.4367C20.1044 14.2244 19.4989 15.8753 18.4419 17.2029C18.2306 17.4808 18.2329 17.8225 18.4764 18.0683L20.92 20.5119C21.2117 20.8036 21.6459 20.8036 21.9256 20.4849C23.766 18.3147 24.8758 15.5116 24.8758 12.4367Z"
                     fill="currentColor" fill-opacity="0.85" />
              <path d="M12.4367 4.77139C14.1745 4.77139 15.7732 5.34932 17.0646 6.32534C17.3345 6.52635 17.6779 6.50682 17.9231 6.25413L20.3454 3.82437C20.6521 3.52515 20.6424 3.07605 20.311 2.81359C18.1655 1.05754 15.422 0 12.4367 0C9.45373 0 6.71026 1.05754 4.57225 2.81359C4.24089 3.07605 4.22366 3.52515 4.53034 3.82437L6.95264 6.25413C7.19787 6.50682 7.55853 6.52635 7.84052 6.31557C9.12213 5.34932 10.7185 4.77139 12.4367 4.77139Z"
                     fill="currentColor" fill-opacity="0.85" />
              <path d="M0 12.4367C0 15.519 1.12468 18.3446 2.98003 20.5147C3.23503 20.8186 3.66405 20.8036 3.96096 20.5119L6.39709 18.0683C6.64057 17.8225 6.65264 17.4808 6.43385 17.2029C5.38432 15.8753 4.77139 14.2244 4.77139 12.4367C4.77139 10.7185 5.34471 9.12728 6.30811 7.83822C6.51658 7.55853 6.51658 7.2128 6.25643 6.95264L3.82667 4.53034C3.52745 4.23112 3.07836 4.23859 2.80844 4.56995C1.05008 6.71026 0 9.45373 0 12.4367Z"
                     fill="currentColor" fill-opacity="0.85" />
              <path d="M12.4994 16.4651C13.9092 16.4651 15.3417 15.8343 15.8357 14.5476C15.9242 14.3391 15.9535 14.1777 15.9535 13.9692C15.9535 13.4041 15.5653 13.0688 15.0255 13.0688C14.5638 13.0688 14.3129 13.3066 14.1332 13.7046C13.8361 14.4223 13.2608 14.8452 12.4621 14.8452C11.091 14.8452 10.599 13.5645 10.599 12.299C10.599 10.9894 11.1473 9.76266 12.4523 9.76266C13.2637 9.76266 13.8086 10.2281 14.0946 10.8758C14.287 11.2909 14.5505 11.5115 15.0146 11.5115C15.5107 11.5115 15.8926 11.2169 15.8926 10.6433C15.8926 10.3998 15.826 10.1345 15.7002 9.90592C15.0587 8.63979 13.7673 8.13756 12.4299 8.13756C9.90877 8.13756 8.52491 9.82659 8.52491 12.3065C8.52491 14.8444 9.94256 16.4651 12.4994 16.4651ZM10.5482 17.5517C10.6918 17.5517 10.7792 17.4885 10.8131 17.3477L13.1588 7.47404C13.1784 7.40853 13.1807 7.38209 13.1807 7.35795C13.1807 7.20455 13.0738 7.09767 12.9256 7.09767C12.7773 7.09767 12.69 7.16318 12.6561 7.2942L10.3103 17.173C10.2931 17.2241 10.2908 17.2529 10.2908 17.2891C10.2908 17.4448 10.3977 17.5517 10.5482 17.5517ZM12.0427 17.5517C12.1789 17.5517 12.2662 17.4885 12.3001 17.3477L14.6534 7.47404C14.6654 7.40853 14.6677 7.38209 14.6677 7.35795C14.6677 7.20455 14.5706 7.09767 14.4126 7.09767C14.2644 7.09767 14.177 7.16318 14.1506 7.2942L11.7974 17.173C11.7876 17.2241 11.7778 17.2529 11.7778 17.2891C11.7778 17.4448 11.887 17.5517 12.0427 17.5517Z"
                     fill="currentColor" fill-opacity="0.85" />
       </g>
</svg>