<?xml version="1.0" encoding="UTF-8"?>
<!--Generator: Apple Native CoreSVG 326-->
<!DOCTYPE svg PUBLIC "-//W3C//DTD SVG 1.1//EN" "http://www.w3.org/Graphics/SVG/1.1/DTD/svg11.dtd">
<svg version="1.1" xmlns="http://www.w3.org/2000/svg" xmlns:xlink="http://www.w3.org/1999/xlink"
       viewBox="0 0 21.365 21.006">
       <g>
              <rect height="21.006" opacity="0" width="21.365" x="0" y="0" />
              <path d="M10.4981 20.9962C16.302 20.9962 21.0037 16.2946 21.0037 10.4981C21.0037 4.70163 16.302 0 10.4981 0C4.70163 0 0 4.70163 0 10.4981C0 16.2946 4.70163 20.9962 10.4981 20.9962ZM10.4981 17.9484C6.37829 17.9484 3.04785 14.6179 3.04785 10.4981C3.04785 6.37829 6.37829 3.04785 10.4981 3.04785C14.6179 3.04785 17.9558 6.37829 17.9558 10.4981C17.9558 14.6179 14.6179 17.9484 10.4981 17.9484Z"
                     fill="currentColor" fill-opacity="0.85" />
              <path d="M10.5585 14.6085C11.978 14.6085 13.4031 13.9753 13.8971 12.6886C13.9855 12.4824 14.0148 12.3187 14.0148 12.1028C14.0148 11.5452 13.6266 11.2098 13.0846 11.2098C12.6303 11.2098 12.3743 11.4402 12.1922 11.8479C11.8975 12.5582 11.3222 12.9885 10.5212 12.9885C9.15239 12.9885 8.65805 11.698 8.65805 10.4349C8.65805 9.12528 9.20638 7.89851 10.5114 7.89851C11.325 7.89851 11.8677 8.36914 12.156 9.01161C12.3558 9.43426 12.6096 9.64735 13.0759 9.64735C13.5721 9.64735 13.9539 9.3602 13.9539 8.78658C13.9539 8.53564 13.885 8.27549 13.7593 8.04694C13.1177 6.77565 11.8287 6.27857 10.489 6.27857C7.97761 6.27857 6.58628 7.9676 6.58628 10.4498C6.58628 12.9854 8.00393 14.6085 10.5585 14.6085ZM8.61704 15.6927C8.75322 15.6927 8.83826 15.622 8.87216 15.491L11.2254 5.6099C11.2398 5.55185 11.2421 5.5231 11.2421 5.50126C11.2421 5.34786 11.1426 5.23353 10.9846 5.23353C10.8364 5.23353 10.7513 5.3065 10.7249 5.43521L8.37169 15.314C8.35216 15.3651 8.34985 15.3962 8.34985 15.4301C8.34985 15.5784 8.45904 15.6927 8.61704 15.6927ZM10.1041 15.6927C10.2403 15.6927 10.3276 15.622 10.3592 15.491L12.7124 5.6099C12.7268 5.55185 12.7291 5.5231 12.7291 5.50126C12.7291 5.34786 12.6297 5.23353 12.474 5.23353C12.3309 5.23353 12.2459 5.3065 12.2119 5.43521L9.85873 15.314C9.84897 15.3651 9.84666 15.3962 9.84666 15.4301C9.84666 15.5784 9.94608 15.6927 10.1041 15.6927Z"
                     fill="currentColor" fill-opacity="0.85" />
       </g>
</svg>