<?xml version="1.0" encoding="UTF-8"?>
<!--Generator: Apple Native CoreSVG 326-->
<!DOCTYPE svg PUBLIC "-//W3C//DTD SVG 1.1//EN" "http://www.w3.org/Graphics/SVG/1.1/DTD/svg11.dtd">
<svg version="1.1" xmlns="http://www.w3.org/2000/svg" xmlns:xlink="http://www.w3.org/1999/xlink"
       viewBox="0 0 25.2371 20.7338">
       <g>
              <rect height="20.7338" opacity="0" width="25.2371" x="0" y="0" />
              <path d="M24.8758 12.3846C24.8758 5.93383 19.9627 0.631336 13.6785 0.00415235C13.2541-0.040066 12.9302 0.274072 12.9302 0.698483L12.9302 4.13058C12.9302 4.48379 13.1829 4.74109 13.5286 4.79046C17.2465 5.32405 20.1044 8.51741 20.1044 12.3846C20.1044 14.1648 19.4989 15.8157 18.4419 17.1359C18.2306 17.4138 18.2329 17.7555 18.4764 18.0012L20.9223 20.4523C21.2117 20.7567 21.6557 20.7417 21.9256 20.4328C23.7735 18.2551 24.8758 15.452 24.8758 12.3846Z"
                     fill="currentColor" fill-opacity="0.85" />
              <path d="M0 12.3846C0 15.4543 1.1023 18.2574 2.94273 20.4276C3.21265 20.7366 3.65429 20.7417 3.9535 20.4448L6.39194 17.9938C6.63541 17.748 6.63772 17.4063 6.42639 17.1284C5.38201 15.8157 4.77139 14.1648 4.77139 12.3846C4.77139 8.51741 7.63678 5.32405 11.3472 4.79046C11.7004 4.74109 11.9456 4.48379 11.9456 4.13058L11.9456 0.698483C11.9456 0.274072 11.6217-0.040066 11.1973 0.00415235C4.92054 0.631336 0 5.93383 0 12.3846Z"
                     fill="currentColor" fill-opacity="0.85" />
              <path d="M12.4994 16.4354C13.9092 16.4354 15.3417 15.8046 15.8357 14.5178C15.9242 14.3093 15.9535 14.1479 15.9535 13.9395C15.9535 13.3744 15.5653 13.0391 15.0255 13.0391C14.5638 13.0391 14.3129 13.2768 14.1332 13.6748C13.8361 14.3926 13.2608 14.8155 12.4621 14.8155C11.091 14.8155 10.599 13.5347 10.599 12.2693C10.599 10.9597 11.1473 9.7329 12.4523 9.7329C13.2637 9.7329 13.8086 10.1984 14.0946 10.846C14.287 11.2612 14.5505 11.4817 15.0146 11.4817C15.5107 11.4817 15.8926 11.1871 15.8926 10.6135C15.8926 10.37 15.826 10.1047 15.7002 9.87617C15.0587 8.61003 13.7673 8.1078 12.4299 8.1078C9.90877 8.1078 8.52491 9.79683 8.52491 12.2768C8.52491 14.8146 9.94256 16.4354 12.4994 16.4354ZM10.5482 17.5219C10.6918 17.5219 10.7792 17.4587 10.8131 17.3179L13.1588 7.44429C13.1784 7.37878 13.1807 7.35233 13.1807 7.32819C13.1807 7.17479 13.0738 7.06792 12.9256 7.06792C12.7773 7.06792 12.69 7.13342 12.6561 7.26444L10.3103 17.1432C10.2931 17.1944 10.2908 17.2231 10.2908 17.2593C10.2908 17.415 10.3977 17.5219 10.5482 17.5219ZM12.0427 17.5219C12.1789 17.5219 12.2662 17.4587 12.3001 17.3179L14.6534 7.44429C14.6654 7.37878 14.6677 7.35233 14.6677 7.32819C14.6677 7.17479 14.5706 7.06792 14.4126 7.06792C14.2644 7.06792 14.177 7.13342 14.1506 7.26444L11.7974 17.1432C11.7876 17.1944 11.7778 17.2231 11.7778 17.2593C11.7778 17.415 11.887 17.5219 12.0427 17.5219Z"
                     fill="currentColor" fill-opacity="0.85" />
       </g>
</svg>