<?xml version="1.0" encoding="UTF-8"?>
<!--Generator: Apple Native CoreSVG 326-->
<!DOCTYPE svg PUBLIC "-//W3C//DTD SVG 1.1//EN" "http://www.w3.org/Graphics/SVG/1.1/DTD/svg11.dtd">
<svg version="1.1" xmlns="http://www.w3.org/2000/svg" xmlns:xlink="http://www.w3.org/1999/xlink"
       viewBox="0 0 24.4035 24.512">
       <g>
              <rect height="24.512" opacity="0" width="24.4035" x="0" y="0" />
              <path d="M1.23901 14.2087C-0.408289 15.856-0.412898 17.8365 1.22463 19.4815L5.84299 24.0947C6.39939 24.6511 7.30492 24.6511 7.85386 24.0947C8.4028 23.536 8.4028 22.6351 7.85386 22.0861L3.44398 17.6837C2.90542 17.1451 2.87096 16.5967 3.42961 16.0404L15.5686 3.90138C16.1249 3.34505 16.6854 3.37489 17.2119 3.90369L21.6241 8.32103C22.1731 8.86997 23.0717 8.87973 23.6206 8.32333C24.1719 7.76693 24.1793 6.86601 23.6206 6.3073L19.0097 1.69641C17.3722 0.0588807 15.3842 0.0611857 13.7443 1.70333ZM2.43636 19.5123L4.45239 21.5208L21.0336 4.92471L19.025 2.91615ZM18.665 6.56267L17.3814 7.8359L19.9775 10.432C20.3158 10.7726 20.9073 10.7875 21.241 10.4343C21.5942 10.076 21.604 9.50685 21.2433 9.14619ZM16.7836 8.43658L15.4977 9.71727L18.0962 12.3134C18.427 12.6442 19.0185 12.6442 19.3671 12.3157C19.7329 11.9723 19.7278 11.3808 19.3769 11.0299ZM14.9022 10.3254L13.6187 11.6136L16.2073 14.1971C16.5456 14.5331 17.1371 14.5405 17.4857 14.1994C17.8315 13.8536 17.8487 13.2547 17.488 12.9038ZM13.0231 12.2068L11.7373 13.4852L14.3283 16.0687C14.6889 16.4144 15.2581 16.4293 15.5992 16.0761C15.9426 15.7253 15.9524 15.1487 15.6015 14.7903ZM11.1418 14.0881L9.85593 15.374L12.432 17.9598C12.7829 18.3107 13.3744 18.3107 13.7178 17.9598C14.0613 17.6066 14.086 17.03 13.7276 16.6717ZM9.25295 15.9695L7.9671 17.2554L10.5581 19.8486C10.9038 20.1921 11.4953 20.1921 11.8365 19.8486C12.1874 19.4954 12.1971 18.9114 11.8462 18.5605ZM7.37158 17.8509L6.09319 19.1367L8.67672 21.7151C9.02761 22.066 9.60421 22.0735 9.95511 21.73C10.3135 21.3791 10.3158 20.7928 9.96487 20.4419Z"
                     fill="currentColor" fill-opacity="0.85" />
       </g>
</svg>