<?xml version="1.0" encoding="UTF-8"?>
<!--Generator: Apple Native CoreSVG 326-->
<!DOCTYPE svg PUBLIC "-//W3C//DTD SVG 1.1//EN" "http://www.w3.org/Graphics/SVG/1.1/DTD/svg11.dtd">
<svg version="1.1" xmlns="http://www.w3.org/2000/svg" xmlns:xlink="http://www.w3.org/1999/xlink"
       viewBox="0 0 24.4035 24.7515">
       <g>
              <rect height="24.7515" opacity="0" width="24.4035" x="0" y="0" />
              <path d="M1.22463 19.721L5.84299 24.3342C6.39939 24.8906 7.30492 24.8906 7.85386 24.3342C8.4028 23.7755 8.40049 22.8745 7.85386 22.3331L5.28119 19.7581L19.044 5.98037L21.6241 8.5605C22.1731 9.10943 23.0717 9.1192 23.6206 8.5628C24.1719 8.0064 24.1793 7.10548 23.6206 6.54677L19.0097 1.93588C17.3722 0.29835 15.3842 0.300654 13.7443 1.9428L1.23901 14.4556C-0.408289 16.0954-0.412898 18.0834 1.22463 19.721ZM17.7028 5.84001L16.4193 7.12301L19.9775 10.6715C20.3158 11.0196 20.9073 11.027 21.241 10.6738C21.5942 10.3155 21.604 9.74632 21.2433 9.38566ZM15.8215 7.71392L14.5454 9.00438L18.0962 12.5529C18.427 12.8837 19.0185 12.8837 19.3671 12.5552C19.7329 12.2117 19.7278 11.6202 19.3769 11.2693ZM13.9424 9.60275L12.6663 10.8932L16.2073 14.4366C16.5456 14.78 17.1371 14.7874 17.4857 14.4389C17.8315 14.0931 17.8487 13.5016 17.488 13.1432ZM12.0633 11.4841L10.7849 12.77L14.3283 16.3082C14.6889 16.6688 15.2581 16.6688 15.5992 16.3156C15.9426 15.9647 15.9599 15.3858 15.6015 15.0298ZM10.182 13.3655L8.90357 14.6513L12.432 18.1993C12.7829 18.5502 13.3744 18.5502 13.7178 18.1993C14.0613 17.8461 14.086 17.2695 13.7276 16.9111ZM8.29313 15.2469L7.00728 16.5327L10.5581 20.0881C10.9038 20.4316 11.4953 20.4316 11.8365 20.0881C12.1874 19.7349 12.1971 19.1509 11.8462 18.8ZM6.41176 17.1282L5.13337 18.4141L8.67672 21.9546C9.02761 22.3055 9.60421 22.3129 9.95511 21.9695C10.3135 21.6163 10.3158 21.0322 9.96487 20.6888Z"
                     fill="currentColor" fill-opacity="0.85" />
       </g>
</svg>