<?xml version="1.0" encoding="UTF-8"?>
<!--Generator: Apple Native CoreSVG 326-->
<!DOCTYPE svg PUBLIC "-//W3C//DTD SVG 1.1//EN" "http://www.w3.org/Graphics/SVG/1.1/DTD/svg11.dtd">
<svg version="1.1" xmlns="http://www.w3.org/2000/svg" xmlns:xlink="http://www.w3.org/1999/xlink"
       viewBox="0 0 19.4726 19.1038">
       <g>
              <rect height="19.1038" opacity="0" width="19.4726" x="0" y="0" />
              <path d="M5.42684 8.09231L5.42684 11.0413L4.03842 11.0488C1.8087 11.0637 0 12.8311 0 15.0631C0 17.2802 1.80124 19.1038 4.04588 19.1038C6.26068 19.1038 8.06938 17.2727 8.06938 15.0631L8.06938 13.7143L11.0419 13.7143L11.0419 15.0631C11.0419 17.2727 12.8581 19.1038 15.0654 19.1038C17.3175 19.1038 19.1113 17.2802 19.1113 15.0631C19.1113 12.8311 17.31 11.0637 15.0803 11.0488L13.6844 11.0413L13.6844 8.09231L15.0803 8.07739C17.31 8.06247 19.1113 6.29513 19.1113 4.06311C19.1113 1.85347 17.3175 0.0200772 15.0654 0.0200772C12.8581 0.0200772 11.0419 1.86093 11.0419 4.06311L11.0419 5.41938L8.06938 5.41938L8.06938 4.06311C8.06938 1.86093 6.26068 0.0200772 4.04588 0.0200772C1.80124 0.0200772 0 1.85347 0 4.06311C0 6.29513 1.8087 8.06247 4.03842 8.07739ZM4.14287 5.43891C3.30739 5.43891 2.68731 4.82628 2.68731 4.07057C2.68731 3.32232 3.29247 2.71485 4.04588 2.71485C4.77691 2.71485 5.40445 3.33724 5.40445 4.16756L5.40445 5.43891ZM14.9684 5.43891L13.7068 5.43891L13.7068 4.16756C13.7068 3.33724 14.3344 2.71485 15.0654 2.71485C15.8188 2.71485 16.424 3.32232 16.424 4.07057C16.424 4.82628 15.8039 5.43891 14.9684 5.43891ZM8.06938 11.0413L8.06938 8.09231L11.0419 8.09231L11.0419 11.0413ZM4.14287 13.685L5.40445 13.685L5.40445 14.9563C5.40445 15.7941 4.77691 16.4067 4.04588 16.4067C3.29247 16.4067 2.68731 15.809 2.68731 15.0533C2.68731 14.2976 3.30739 13.685 4.14287 13.685ZM14.9684 13.685C15.8039 13.685 16.424 14.2976 16.424 15.0533C16.424 15.809 15.8188 16.4067 15.0654 16.4067C14.3344 16.4067 13.7068 15.7941 13.7068 14.9563L13.7068 13.685Z"
                     fill="currentColor" fill-opacity="0.85" />
       </g>
</svg>