<?xml version="1.0" encoding="UTF-8"?>
<!--Generator: Apple Native CoreSVG 326-->
<!DOCTYPE svg PUBLIC "-//W3C//DTD SVG 1.1//EN" "http://www.w3.org/Graphics/SVG/1.1/DTD/svg11.dtd">
<svg version="1.1" xmlns="http://www.w3.org/2000/svg" xmlns:xlink="http://www.w3.org/1999/xlink"
       viewBox="0 0 26.6622 30.4192">
       <g>
              <rect height="30.4192" opacity="0" width="26.6622" x="0" y="0" />
              <path d="M22.0373 9.34872L22.0373 21.0825C22.0373 23.4168 20.7256 24.7383 18.3982 24.7383L7.89284 24.7383C5.57293 24.7383 4.25372 23.4168 4.25372 21.0825L4.25372 13.5221C4.82167 13.9853 5.59048 14.1352 6.36789 13.8587L7.27336 13.5232L7.27336 20.675C7.27336 21.3681 7.58204 21.7187 8.32162 21.7187L17.9792 21.7187C18.709 21.7187 19.0177 21.3681 19.0177 20.675L19.0177 9.75621C19.0177 9.07061 18.709 8.72002 17.9769 8.72002L9.00333 8.72002C9.6722 7.95975 9.74727 6.72449 8.87971 5.85347L8.72763 5.70038L18.3982 5.70038C20.7256 5.70038 22.0373 7.01443 22.0373 9.34872Z"
                     fill="currentColor" fill-opacity="0.85" />
              <path d="M16.7053 18.7912C16.7053 19.168 16.4141 19.4518 16.0252 19.4518L10.1956 19.4518C9.79926 19.4518 9.51321 19.168 9.51321 18.7912C9.51321 18.4047 9.79926 18.1014 10.1956 18.1014L16.0252 18.1014C16.4141 18.1014 16.7053 18.4047 16.7053 18.7912Z"
                     fill="currentColor" fill-opacity="0.85" />
              <path d="M16.7053 15.2122C16.7053 15.5987 16.4141 15.902 16.0252 15.902L10.1956 15.902C9.79926 15.902 9.51321 15.5987 9.51321 15.2122C9.51321 14.8354 9.79926 14.5516 10.1956 14.5516L16.0252 14.5516C16.4141 14.5516 16.7053 14.8354 16.7053 15.2122Z"
                     fill="currentColor" fill-opacity="0.85" />
              <path d="M16.7053 11.64C16.7053 12.0266 16.4141 12.3275 16.0252 12.3275L10.1956 12.3275C9.79926 12.3275 9.51321 12.0266 9.51321 11.64C9.51321 11.2707 9.79926 10.9772 10.1956 10.9772L16.0252 10.9772C16.4141 10.9772 16.7053 11.2707 16.7053 11.64Z"
                     fill="currentColor" fill-opacity="0.85" />
              <path d="M1.55234 9.46148C1.54258 10.0415 2.18577 10.2654 2.56421 9.84968L3.67039 8.66143L4.99536 11.9807C5.13317 12.3155 5.41801 12.5526 5.84746 12.4021L6.81656 12.0488C7.25347 11.8886 7.22484 11.4448 7.11456 11.207L5.6644 7.87405L7.34621 7.90553C7.90382 7.93076 8.17889 7.34046 7.78609 6.93788L2.61819 1.73311C2.24722 1.36214 1.69476 1.58092 1.67754 2.10639Z"
                     fill="currentColor" fill-opacity="0.85" />
       </g>
</svg>