<?xml version="1.0" encoding="UTF-8"?>
<!--Generator: Apple Native CoreSVG 326-->
<!DOCTYPE svg PUBLIC "-//W3C//DTD SVG 1.1//EN" "http://www.w3.org/Graphics/SVG/1.1/DTD/svg11.dtd">
<svg version="1.1" xmlns="http://www.w3.org/2000/svg" xmlns:xlink="http://www.w3.org/1999/xlink"
       viewBox="0 0 19.1707 26.7175">
       <g>
              <rect height="26.7175" opacity="0" width="19.1707" x="0" y="0" />
              <path d="M3.64834 22.0267L8.4019 22.0267L8.4019 4.67871L3.64834 4.67871C1.32382 4.67871 0 6.00022 0 8.31783L0 18.3899C0 20.7075 1.32382 22.0267 3.64834 22.0267ZM15.1535 22.0267C17.4878 22.0267 18.8093 20.7052 18.8093 18.3899L18.8093 8.31783C18.8093 6.00022 17.4878 4.67871 15.1535 4.67871L10.4476 4.67871L10.4476 22.0267ZM9.42474 0C8.86076 0 8.4019 0.453708 8.4019 1.02284L8.4019 4.67871L10.4476 4.67871L10.4476 1.02284C10.4476 0.453708 9.99618 0 9.42474 0ZM9.42474 26.7054C9.99618 26.7054 10.4476 26.2465 10.4476 25.6826L10.4476 22.0267L8.4019 22.0267L8.4019 25.6826C8.4019 26.2465 8.86076 26.7054 9.42474 26.7054Z"
                     fill="currentColor" fill-opacity="0.85" />
       </g>
</svg>