<?xml version="1.0" encoding="UTF-8"?>
<!--Generator: Apple Native CoreSVG 326-->
<!DOCTYPE svg PUBLIC "-//W3C//DTD SVG 1.1//EN" "http://www.w3.org/Graphics/SVG/1.1/DTD/svg11.dtd">
<svg version="1.1" xmlns="http://www.w3.org/2000/svg" xmlns:xlink="http://www.w3.org/1999/xlink"
       viewBox="0 0 40.9718 27.9056">
       <g>
              <rect height="27.9056" opacity="0" width="40.9718" x="0" y="0" />
              <path d="M3.84928 21.1097L7.27495 21.4825L7.50581 18.8209L4.48149 18.4701C4.06309 18.4241 3.82981 18.1759 3.82981 17.7811L3.82981 16.3831C3.82981 14.9645 4.7411 14.14 6.91489 13.7327L13.2883 12.5413C13.8777 12.4287 14.4497 12.2961 14.9057 11.9773L21.6244 7.36041C23.1323 6.31707 21.629 4.0885 20.0699 5.16575L13.2208 9.86023L6.5233 11.1028C3.00112 11.7582 1.14589 13.4916 1.14589 16.3831L1.14589 18.0848C1.14589 19.9376 2.00909 20.9087 3.84928 21.1097ZM9.54203 23.4009C11.8533 23.4009 13.6677 21.5865 13.6677 19.2776C13.6677 16.9589 11.8533 15.1445 9.54203 15.1445C7.22333 15.1445 5.40893 16.9589 5.40893 19.2776C5.40893 21.5865 7.22333 23.4009 9.54203 23.4009ZM9.54203 20.852C8.66003 20.852 7.95788 20.1596 7.95788 19.2776C7.95788 18.3858 8.66003 17.686 9.54203 17.686C10.424 17.686 11.1262 18.3858 11.1262 19.2776C11.1262 20.1596 10.424 20.852 9.54203 20.852ZM11.623 20.9288L29.1224 20.9288L29.1224 18.2524L11.623 18.2524ZM31.0684 23.4009C33.3797 23.4009 35.1941 21.5865 35.1941 19.2776C35.1941 16.9589 33.3797 15.1445 31.0684 15.1445C28.7497 15.1445 26.9353 16.9589 26.9353 19.2776C26.9353 21.5865 28.7497 23.4009 31.0684 23.4009ZM31.0684 20.852C30.179 20.852 29.4843 20.1596 29.4843 19.2776C29.4843 18.3858 30.179 17.686 31.0684 17.686C31.9504 17.686 32.6526 18.3858 32.6526 19.2776C32.6526 20.1596 31.9504 20.852 31.0684 20.852ZM33.8412 20.7168L36.1121 20.4865C38.3526 20.2614 39.4571 19.0075 39.4571 16.6986L39.4571 14.507C39.4571 11.8195 38.4015 10.6639 35.9184 10.2141L30.0884 9.14788C29.4847 9.033 28.8007 9.0014 28.2314 9.02554L13.2369 9.86023L12.6608 12.5734L28.5773 11.6802L35.4659 12.9319C36.3968 13.1014 36.7807 13.4888 36.7807 14.507L36.7807 16.6986C36.7807 17.4135 36.4537 17.7939 35.7951 17.8617L33.8412 18.0478Z"
                     fill="currentColor" fill-opacity="0.85" />
              <path d="M28.7036 5.64785L28.672 4.18191C30.7991 4.03773 33.5952 4.19113 35.9284 5.24054L35.428 6.58699C35.1391 7.35835 35.6118 7.76214 36.3683 7.55136L40.3327 6.5014C40.9766 6.33484 41.1478 5.79609 40.7831 5.27457L38.4344 1.88966C38.0082 1.26763 37.4109 1.27279 37.1197 2.03438L36.6486 3.30501C33.9502 2.14532 30.8479 1.98446 28.6232 2.12634L28.5916 0.812042C28.5698-0.0179147 28.0092-0.209163 27.3946 0.226772L24.0655 2.66048C23.5319 3.04243 23.5439 3.58578 24.0775 3.9482L27.4917 6.28195C28.1551 6.72304 28.7209 6.48296 28.7036 5.64785Z"
                     fill="currentColor" fill-opacity="0.85" />
       </g>
</svg>