<?xml version="1.0" encoding="UTF-8"?>
<!--Generator: Apple Native CoreSVG 326-->
<!DOCTYPE svg PUBLIC "-//W3C//DTD SVG 1.1//EN" "http://www.w3.org/Graphics/SVG/1.1/DTD/svg11.dtd">
<svg version="1.1" xmlns="http://www.w3.org/2000/svg" xmlns:xlink="http://www.w3.org/1999/xlink"
       viewBox="0 0 21.5458 18.18">
       <g>
              <rect height="18.18" opacity="0" width="21.5458" x="0" y="0" />
              <path d="M1.76885 3.08715L4.60574 3.08715C5.0962 3.08715 5.33464 3.22211 5.6264 3.50641L9.10811 6.99559L11.4154 5.73521L7.28376 1.61109C6.58306 0.917848 5.98263 0.614021 4.6337 0.614021L1.76885 0.614021C1.02121 0.614021 0.506721 1.12851 0.506721 1.84686C0.506721 2.56521 1.01375 3.08715 1.76885 3.08715ZM8.63912 18.18C10.4387 18.18 11.8994 16.7268 11.8994 14.9221C11.8994 13.1248 10.4387 11.6716 8.63912 11.6716C6.84182 11.6716 5.38116 13.1248 5.38116 14.9221C5.38116 16.7268 6.84182 18.18 8.63912 18.18ZM21.1844 16.066L21.1844 4.50577L17.2653 4.72875L20.4785 2.49764C21.9491 1.45429 20.4831-0.774276 18.9217 0.302976L12.0726 4.99745L5.3774 6.23999C1.85292 6.89538 0 8.62881 0 11.5203L0 13.222C0 15.0748 0.848275 16.0362 2.70338 16.247L4.23871 16.4217C4.07851 16.0196 3.98492 15.4504 3.98492 14.9221C3.98492 12.358 6.07276 10.2776 8.63912 10.2776C11.2055 10.2776 13.2933 12.358 13.2933 14.9221C13.2933 15.3246 13.2439 15.7215 13.1504 16.066Z"
                     fill="currentColor" fill-opacity="0.85" />
       </g>
</svg>