<?xml version="1.0" encoding="UTF-8"?>
<!--Generator: Apple Native CoreSVG 326-->
<!DOCTYPE svg PUBLIC "-//W3C//DTD SVG 1.1//EN" "http://www.w3.org/Graphics/SVG/1.1/DTD/svg11.dtd">
<svg version="1.1" xmlns="http://www.w3.org/2000/svg" xmlns:xlink="http://www.w3.org/1999/xlink"
       viewBox="0 0 40.9718 27.9056">
       <g>
              <rect height="27.9056" opacity="0" width="40.9718" x="0" y="0" />
              <path d="M9.79248 23.0428C11.5846 23.0428 13.0453 21.5896 13.0453 19.7848C13.0453 17.9875 11.5846 16.5343 9.79248 16.5343C7.98772 16.5343 6.52706 17.9875 6.52706 19.7848C6.52706 21.5896 7.98772 23.0428 9.79248 23.0428ZM30.8554 23.0428C32.655 23.0428 34.1157 21.5896 34.1157 19.7848C34.1157 17.9875 32.655 16.5343 30.8554 16.5343C29.0581 16.5343 27.5975 17.9875 27.5975 19.7848C27.5975 21.5896 29.0581 23.0428 30.8554 23.0428ZM30.0884 9.14788C29.4847 9.033 28.8007 8.9991 28.2314 9.02554L18.4186 9.59152L21.6244 7.36041C23.1024 6.31707 21.629 4.0885 20.0699 5.16575L13.2208 9.86023L6.5233 11.1028C3.00112 11.7582 1.14589 13.4916 1.14589 16.3831L1.14589 18.0848C1.14589 19.9376 1.99417 20.899 3.84928 21.1097L5.3846 21.2844C5.22441 20.8824 5.13082 20.3132 5.13082 19.7848C5.13082 17.2208 7.22096 15.1404 9.79248 15.1404C12.3514 15.1404 14.4415 17.2208 14.4415 19.7848C14.4415 20.1874 14.3898 20.5843 14.2963 20.9288L26.3511 20.9288C26.2552 20.5722 26.2012 20.1897 26.2012 19.7848C26.2012 17.2208 28.2914 15.1404 30.8554 15.1404C33.4218 15.1404 35.5096 17.2818 35.5096 19.8459C35.5096 20.0996 35.4872 20.3201 35.4551 20.5566L36.1121 20.4865C38.3526 20.2539 39.4571 19.0075 39.4571 16.6986L39.4571 14.507C39.4571 11.8195 38.4112 10.6662 35.9184 10.2141Z"
                     fill="currentColor" fill-opacity="0.85" />
              <path d="M28.7036 5.64785L28.672 4.18191C30.7991 4.03773 33.5952 4.19113 35.9284 5.24054L35.428 6.58699C35.1391 7.35835 35.6118 7.76214 36.3683 7.55136L40.3327 6.5014C40.9766 6.33484 41.1478 5.79609 40.7831 5.27457L38.4344 1.88966C38.0082 1.26763 37.4109 1.27279 37.1197 2.03438L36.6486 3.30501C33.9502 2.14532 30.8479 1.98446 28.6232 2.12634L28.5916 0.812042C28.5698-0.0179147 28.0092-0.209163 27.3946 0.226772L24.0655 2.66048C23.5319 3.04243 23.5439 3.58578 24.0775 3.9482L27.4917 6.28195C28.1528 6.72765 28.7209 6.48296 28.7036 5.64785Z"
                     fill="currentColor" fill-opacity="0.85" />
       </g>
</svg>