<?xml version="1.0" encoding="UTF-8"?>
<!--Generator: Apple Native CoreSVG 326-->
<!DOCTYPE svg PUBLIC "-//W3C//DTD SVG 1.1//EN" "http://www.w3.org/Graphics/SVG/1.1/DTD/svg11.dtd">
<svg version="1.1" xmlns="http://www.w3.org/2000/svg" xmlns:xlink="http://www.w3.org/1999/xlink"
       viewBox="0 0 38.6702 23.9683">
       <g>
              <rect height="23.9683" opacity="0" width="38.6702" x="0" y="0" />
              <path d="M14.79 9.14869C14.79 9.61802 14.8696 10.0414 15.021 10.4079L12.1649 10.5682C12.1575 10.5698 12.15 10.5712 12.1424 10.5727L5.769 11.7641C3.5929 12.1714 2.68391 12.9959 2.68391 14.4144L2.68391 15.8124C2.68391 16.2072 2.91719 16.4554 3.3356 16.5014L4.32321 16.616C4.63968 14.6379 6.31473 13.1758 8.39614 13.1758C10.3507 13.1758 11.9509 14.476 12.3913 16.2837L25.9176 16.2837C26.3583 14.476 27.9597 13.1758 29.9225 13.1758C31.7624 13.1758 33.2883 14.3279 33.8289 15.9709L34.6492 15.8931C35.3003 15.8253 35.6325 15.4449 35.6325 14.73L35.6325 12.5383C35.6325 11.5202 35.2435 11.1328 34.3177 10.9633L27.4314 9.71152L25.2079 9.83629C25.251 9.6211 25.2722 9.39103 25.2722 9.14869L25.2722 7.15748L27.0781 7.05691C27.6525 7.03277 28.3291 7.06437 28.9328 7.17925L34.7725 8.24546C37.2481 8.69523 38.3089 9.85085 38.3089 12.5383L38.3089 14.73C38.3089 17.0389 37.2067 18.2927 34.9639 18.5179L33.8324 18.6324C33.2944 20.2755 31.7661 21.4323 29.9225 21.4323C28.1967 21.4323 26.7503 20.4271 26.1248 18.9602L12.1843 18.9602C11.5593 20.4271 10.1147 21.4323 8.39614 21.4323C6.83666 21.4323 5.50531 20.6115 4.80355 19.3696L2.70338 19.1411C0.863197 18.9401 0 17.9689 0 16.1161L0 14.4144C0 11.523 1.85292 9.78952 5.3774 9.13414L12.0726 7.8916L14.79 6.02907ZM6.81198 17.3089C6.81198 18.1909 7.50437 18.8833 8.39614 18.8833C9.27813 18.8833 9.97798 18.1909 9.97798 17.3089C9.97798 16.4172 9.27813 15.7173 8.39614 15.7173C7.50437 15.7173 6.81198 16.4172 6.81198 17.3089ZM28.3384 17.3089C28.3384 18.1909 29.0308 18.8833 29.9225 18.8833C30.8045 18.8833 31.5044 18.1909 31.5044 17.3089C31.5044 16.4172 30.8045 15.7173 29.9225 15.7173C29.0308 15.7173 28.3384 16.4172 28.3384 17.3089Z"
                     fill="currentColor" fill-opacity="0.85" />
              <path d="M17.5965 10.4768L22.4754 10.4768C23.3032 10.4768 23.7254 10.0523 23.7254 9.14869L23.7254 5.31007C23.7254 4.40879 23.3032 3.98425 22.4754 3.98425L17.5965 3.98425C16.759 3.98425 16.3367 4.40879 16.3367 5.31007L16.3367 9.14869C16.3367 10.0523 16.759 10.4768 17.5965 10.4768ZM21.2958 4.52907L22.7557 4.52907L22.7557 2.78484C22.7557 1.99019 23.2865 1.44264 24.0547 1.44264C24.8253 1.44264 25.3613 1.99019 25.3613 2.78484L25.3613 3.72938C25.3613 4.13426 25.6875 4.45816 26.0924 4.45816C26.4972 4.45816 26.8211 4.13426 26.8211 3.72938L26.8211 2.83895C26.8211 1.14082 25.7011 0 24.0547 0C22.4182 0 21.2958 1.14082 21.2958 2.83895Z"
                     fill="currentColor" fill-opacity="0.85" />
       </g>
</svg>