<?xml version="1.0" encoding="UTF-8"?>
<!--Generator: Apple Native CoreSVG 326-->
<!DOCTYPE svg PUBLIC "-//W3C//DTD SVG 1.1//EN" "http://www.w3.org/Graphics/SVG/1.1/DTD/svg11.dtd">
<svg version="1.1" xmlns="http://www.w3.org/2000/svg" xmlns:xlink="http://www.w3.org/1999/xlink"
       viewBox="0 0 38.6702 26.8752">
       <g>
              <rect height="26.8752" opacity="0" width="38.6702" x="0" y="0" />
              <path d="M2.70338 20.5946L6.12906 20.9673L6.35991 18.3058L3.3356 17.9549C2.91719 17.9089 2.68391 17.6607 2.68391 17.2659L2.68391 15.8679C2.68391 14.4493 3.5929 13.6248 5.769 13.2175L12.1424 12.0261C12.7295 11.9135 13.3038 11.7809 13.7598 11.4621L20.4785 6.84524C21.9864 5.8019 20.4831 3.57333 18.9217 4.65059L12.0726 9.34506L5.3774 10.5876C1.85292 11.243 0 12.9764 0 15.8679L0 17.5696C0 19.4224 0.863197 20.3936 2.70338 20.5946ZM8.39614 22.8857C10.7051 22.8857 12.5195 21.0713 12.5195 18.7624C12.5195 16.4437 10.7051 14.6293 8.39614 14.6293C6.07744 14.6293 4.26303 16.4437 4.26303 18.7624C4.26303 21.0713 6.07744 22.8857 8.39614 22.8857ZM8.39614 20.3368C7.50437 20.3368 6.81198 19.6444 6.81198 18.7624C6.81198 17.8706 7.50437 17.1708 8.39614 17.1708C9.27813 17.1708 9.97798 17.8706 9.97798 18.7624C9.97798 19.6444 9.27813 20.3368 8.39614 20.3368ZM10.4771 20.4136L27.9668 20.4136L27.9668 17.7372L10.4771 17.7372ZM29.9225 22.8857C32.2315 22.8857 34.0459 21.0713 34.0459 18.7624C34.0459 16.4437 32.2315 14.6293 29.9225 14.6293C27.6038 14.6293 25.7894 16.4437 25.7894 18.7624C25.7894 21.0713 27.6038 22.8857 29.9225 22.8857ZM29.9225 20.3368C29.0308 20.3368 28.3384 19.6444 28.3384 18.7624C28.3384 17.8706 29.0308 17.1708 29.9225 17.1708C30.8045 17.1708 31.5044 17.8706 31.5044 18.7624C31.5044 19.6444 30.8045 20.3368 29.9225 20.3368ZM32.6879 20.2017L34.9639 19.9713C37.2067 19.7462 38.3089 18.4924 38.3089 16.1834L38.3089 13.9918C38.3089 11.3043 37.2481 10.1487 34.7725 9.69893L28.9328 8.63272C28.3291 8.51783 27.6525 8.48623 27.0781 8.51037L12.091 9.34506L11.5126 12.0583L27.4314 11.165L34.3177 12.4167C35.2435 12.5863 35.6325 12.9736 35.6325 13.9918L35.6325 16.1834C35.6325 16.8983 35.3003 17.2788 34.6492 17.3466L32.6879 17.5327Z"
                     fill="currentColor" fill-opacity="0.85" />
              <path d="M29.4669 5.6599L29.4255 4.22326C32.0265 3.98549 34.7503 4.79483 36.7223 5.64619C37.2392 5.86905 37.8566 5.63873 38.0892 5.11436C38.3023 4.58769 38.0548 3.97027 37.5304 3.75718C35.4705 2.86675 32.3917 1.94714 29.3767 2.16539L29.3451 0.816637C29.3256-0.0230854 28.7724-0.214334 28.1602 0.238828L24.8287 2.66507C24.2951 3.04702 24.3072 3.59784 24.8408 3.96026L28.255 6.28424C28.9184 6.71271 29.4692 6.48756 29.4669 5.6599Z"
                     fill="currentColor" fill-opacity="0.85" />
       </g>
</svg>