<?xml version="1.0" encoding="UTF-8"?>
<!--Generator: Apple Native CoreSVG 326-->
<!DOCTYPE svg PUBLIC "-//W3C//DTD SVG 1.1//EN" "http://www.w3.org/Graphics/SVG/1.1/DTD/svg11.dtd">
<svg version="1.1" xmlns="http://www.w3.org/2000/svg" xmlns:xlink="http://www.w3.org/1999/xlink"
       viewBox="0 0 38.6725 25.211">
       <g>
              <rect height="25.211" opacity="0" width="38.6725" x="0" y="0" />
              <path d="M2.70338 19.7625L6.12906 20.1352L6.35991 17.4737L3.3356 17.1228C2.91719 17.0768 2.68391 16.8286 2.68391 16.4338L2.68391 15.0358C2.68391 13.6172 3.59521 12.7927 5.769 12.3854L12.1424 11.194C12.7318 11.0814 13.3038 10.9488 13.7598 10.63L20.4785 6.01313C21.9864 4.96979 20.4831 2.74122 18.924 3.81847L12.0749 8.51295L5.3774 9.75549C1.85523 10.4109 0 12.1443 0 15.0358L0 16.7375C0 18.5903 0.863197 19.5615 2.70338 19.7625ZM8.39614 22.0536C10.7074 22.0536 12.5218 20.2392 12.5218 17.9303C12.5218 15.6116 10.7074 13.7972 8.39614 13.7972C6.07744 13.7972 4.26303 15.6116 4.26303 17.9303C4.26303 20.2392 6.07744 22.0536 8.39614 22.0536ZM8.39614 19.5047C7.50668 19.5047 6.81198 18.8123 6.81198 17.9303C6.81198 17.0385 7.50668 16.3387 8.39614 16.3387C9.27813 16.3387 9.98029 17.0385 9.98029 17.9303C9.98029 18.8123 9.27813 19.5047 8.39614 19.5047ZM10.4771 19.5815L27.9691 19.5815L27.9691 16.9051L10.4771 16.9051ZM29.9225 22.0536C32.2338 22.0536 34.0482 20.2392 34.0482 17.9303C34.0482 15.6116 32.2338 13.7972 29.9225 13.7972C27.6038 13.7972 25.7894 15.6116 25.7894 17.9303C25.7894 20.2392 27.6038 22.0536 29.9225 22.0536ZM29.9225 19.5047C29.0331 19.5047 28.3384 18.8123 28.3384 17.9303C28.3384 17.0385 29.0331 16.3387 29.9225 16.3387C30.8045 16.3387 31.5067 17.0385 31.5067 17.9303C31.5067 18.8123 30.8045 19.5047 29.9225 19.5047ZM32.6879 19.3695L34.9662 19.1392C37.2067 18.9141 38.3112 17.6603 38.3112 15.3513L38.3112 13.1597C38.3112 10.4722 37.2481 9.31658 34.7725 8.86682L28.9351 7.80061C28.3314 7.68572 27.6548 7.65412 27.0781 7.67826L12.091 8.51295L11.5149 11.2262L27.4314 10.3329L34.32 11.5846C35.2435 11.7542 35.6348 12.1415 35.6348 13.1597L35.6348 15.3513C35.6348 16.0662 35.3003 16.4466 34.6492 16.5145L32.6879 16.7005Z"
                     fill="currentColor" fill-opacity="0.85" />
              <path d="M32.79 5.13526C32.5183 5.91639 32.9738 6.31041 33.7302 6.11455L37.6947 5.04967C38.3311 4.88541 38.5097 4.36159 38.145 3.84007L35.8038 0.437929C35.3702-0.169178 34.7654-0.171483 34.4816 0.597576L34.0106 1.85328C31.2253 0.664843 28.0317 0.523515 25.7839 0.693594C25.2205 0.740117 24.7794 1.22258 24.8236 1.79347C24.8552 2.35691 25.3624 2.79569 25.9333 2.75893C28.0805 2.59116 30.9192 2.73018 33.2978 3.78881Z"
                     fill="currentColor" fill-opacity="0.85" />
       </g>
</svg>