<?xml version="1.0" encoding="UTF-8"?>
<!--Generator: Apple Native CoreSVG 326-->
<!DOCTYPE svg PUBLIC "-//W3C//DTD SVG 1.1//EN" "http://www.w3.org/Graphics/SVG/1.1/DTD/svg11.dtd">
<svg version="1.1" xmlns="http://www.w3.org/2000/svg" xmlns:xlink="http://www.w3.org/1999/xlink"
       viewBox="0 0 35.0861 27.1578">
       <g>
              <rect height="27.1578" opacity="0" width="35.0861" x="0" y="0" />
              <path d="M7.44181 8.24419L9.60008 9.82355L10.7899 8.12209L8.89004 6.71729C8.61933 6.51901 8.56128 6.25413 8.71359 5.99033L9.25925 5.04834C9.81371 4.08537 10.7612 3.87853 12.3945 4.45646L17.1677 6.13791C17.61 6.29931 18.0442 6.42681 18.4755 6.39006L24.8216 5.89268C26.2331 5.7744 26.0878 3.6968 24.6229 3.80993L18.1659 4.31477L13.1468 2.54082C10.5142 1.60684 8.58888 2.05254 7.45443 4.0107L6.79279 5.15018C6.07026 6.40916 6.27358 7.39701 7.44181 8.24419ZM10.3972 12.0128C11.9509 12.9157 13.8842 12.3919 14.7871 10.8382C15.6901 9.26958 15.1737 7.34139 13.6125 6.44076C12.0439 5.53784 10.1157 6.0542 9.21279 7.61537C8.31217 9.17654 8.82853 11.1122 10.3972 12.0128ZM11.3808 10.2987C10.7786 9.95396 10.5746 9.20122 10.9194 8.60649C11.2739 8.0043 12.0192 7.80031 12.6214 8.15485C13.2236 8.49961 13.4201 9.24489 13.0731 9.84709C12.7283 10.4493 11.983 10.6458 11.3808 10.2987ZM12.7715 11.1618L24.5977 17.988L25.6354 16.1906L13.8092 9.36445ZM24.9612 20.4242C26.5223 21.3249 28.4482 20.8085 29.3511 19.2473C30.2541 17.6787 29.7377 15.7528 28.1765 14.8499C26.6154 13.947 24.6797 14.4633 23.7768 16.0319C22.8739 17.5856 23.4 19.5213 24.9612 20.4242ZM25.9523 18.7101C25.3426 18.3631 25.1461 17.6103 25.4909 17.0156C25.8356 16.4134 26.5884 16.2094 27.1929 16.564C27.7876 16.9087 27.9893 17.654 27.6371 18.2562C27.2923 18.8584 26.547 19.0549 25.9523 18.7101ZM27.8753 19.6891L29.4978 20.4196C31.1031 21.1416 32.3392 20.7281 33.2347 19.1692L34.0898 17.6943C35.1393 15.8769 34.8722 14.6776 33.3759 13.4139L29.8436 10.4175C29.4771 10.0975 29.0337 9.81093 28.6356 9.60816L18.1774 4.32168L16.7331 5.92319L27.8438 11.5273L32.0115 15.0637C32.5758 15.543 32.6832 15.9573 32.285 16.6469L31.4373 18.1292C31.154 18.6086 30.781 18.7442 30.3045 18.5338L28.9129 17.894Z"
                     fill="currentColor" fill-opacity="0.85" />
              <path d="M3.4968 5.15206L5.66926 1.39363C6.13043 0.591335 5.4654-0.144909 4.65103 0.0245037L1.40205 0.690204C0.838065 0.815398 0.575606 1.2668 0.761699 1.81356L1.80377 4.94589C2.06853 5.74819 3.02817 5.95436 3.4968 5.15206ZM0.188561 9.76071C-0.200184 10.4572 0.033524 11.3312 0.693281 11.7101L27.0259 26.9163C27.6857 27.2953 28.5619 27.0713 28.9483 26.3967C29.3422 25.6979 29.1085 24.8239 28.4436 24.4472L2.11615 9.24623C1.4587 8.86209 0.580157 9.08604 0.188561 9.76071Z"
                     fill="currentColor" fill-opacity="0.85" />
       </g>
</svg>