<?xml version="1.0" encoding="UTF-8"?>
<!--Generator: Apple Native CoreSVG 326-->
<!DOCTYPE svg PUBLIC "-//W3C//DTD SVG 1.1//EN" "http://www.w3.org/Graphics/SVG/1.1/DTD/svg11.dtd">
<svg version="1.1" xmlns="http://www.w3.org/2000/svg" xmlns:xlink="http://www.w3.org/1999/xlink"
       viewBox="0 0 38.6702 18.8962">
       <g>
              <rect height="18.8962" opacity="0" width="38.6702" x="0" y="0" />
              <path d="M2.70338 16.6051L6.12906 16.9778L6.35991 14.3163L3.3356 13.9654C2.91719 13.9194 2.68391 13.6712 2.68391 13.2764L2.68391 11.8784C2.68391 10.4598 3.5929 9.63534 5.769 9.22803L12.1424 8.03663C12.7295 7.92405 13.3038 7.7914 13.7598 7.47265L20.4785 2.85575C21.9864 1.8124 20.4831-0.416162 18.9217 0.661091L12.0726 5.35557L5.3774 6.59811C1.85292 7.2535 0 8.98692 0 11.8784L0 13.5801C0 15.4329 0.863197 16.4041 2.70338 16.6051ZM8.39614 18.8962C10.7051 18.8962 12.5195 17.0818 12.5195 14.7729C12.5195 12.4542 10.7051 10.6398 8.39614 10.6398C6.07744 10.6398 4.26303 12.4542 4.26303 14.7729C4.26303 17.0818 6.07744 18.8962 8.39614 18.8962ZM8.39614 16.3473C7.50437 16.3473 6.81198 15.6549 6.81198 14.7729C6.81198 13.8811 7.50437 13.1813 8.39614 13.1813C9.27813 13.1813 9.97798 13.8811 9.97798 14.7729C9.97798 15.6549 9.27813 16.3473 8.39614 16.3473ZM10.4771 16.4241L27.9668 16.4241L27.9668 13.7477L10.4771 13.7477ZM29.9225 18.8962C32.2315 18.8962 34.0459 17.0818 34.0459 14.7729C34.0459 12.4542 32.2315 10.6398 29.9225 10.6398C27.6038 10.6398 25.7894 12.4542 25.7894 14.7729C25.7894 17.0818 27.6038 18.8962 29.9225 18.8962ZM29.9225 16.3473C29.0308 16.3473 28.3384 15.6549 28.3384 14.7729C28.3384 13.8811 29.0308 13.1813 29.9225 13.1813C30.8045 13.1813 31.5044 13.8811 31.5044 14.7729C31.5044 15.6549 30.8045 16.3473 29.9225 16.3473ZM32.6879 16.2122L34.9639 15.9818C37.2067 15.7567 38.3089 14.5029 38.3089 12.1939L38.3089 10.0023C38.3089 7.31482 37.2481 6.1592 34.7725 5.70943L28.9328 4.64322C28.3291 4.52834 27.6525 4.49674 27.0781 4.52088L12.091 5.35557L11.5126 8.06878L27.4314 7.17549L34.3177 8.42725C35.2435 8.59679 35.6325 8.98414 35.6325 10.0023L35.6325 12.1939C35.6325 12.9088 35.3003 13.2893 34.6492 13.3571L32.6879 13.5432Z"
                     fill="currentColor" fill-opacity="0.85" />
       </g>
</svg>