<?xml version="1.0" encoding="UTF-8"?>
<!--Generator: Apple Native CoreSVG 326-->
<!DOCTYPE svg PUBLIC "-//W3C//DTD SVG 1.1//EN" "http://www.w3.org/Graphics/SVG/1.1/DTD/svg11.dtd">
<svg version="1.1" xmlns="http://www.w3.org/2000/svg" xmlns:xlink="http://www.w3.org/1999/xlink"
       viewBox="0 0 38.6725 25.211">
       <g>
              <rect height="25.211" opacity="0" width="38.6725" x="0" y="0" />
              <path d="M8.63912 21.6955C10.4387 21.6955 11.8994 20.2423 11.8994 18.4376C11.8994 16.6403 10.4387 15.1871 8.63912 15.1871C6.84182 15.1871 5.38116 16.6403 5.38116 18.4376C5.38116 20.2423 6.84182 21.6955 8.63912 21.6955ZM29.7095 21.6955C31.5017 21.6955 32.9623 20.2423 32.9623 18.4376C32.9623 16.6403 31.5017 15.1871 29.7095 15.1871C27.9048 15.1871 26.4441 16.6403 26.4441 18.4376C26.4441 20.2423 27.9048 21.6955 29.7095 21.6955ZM28.9351 7.80061C28.3314 7.68572 27.6548 7.65182 27.0781 7.67826L17.2653 8.24424L20.4785 6.01313C21.9491 4.96979 20.4831 2.74122 18.924 3.81847L12.0749 8.51295L5.3774 9.75549C1.85523 10.4109 0 12.1443 0 15.0358L0 16.7375C0 18.5903 0.848275 19.5517 2.70338 19.7625L4.23871 19.9372C4.07851 19.5351 3.98492 18.9659 3.98492 18.4376C3.98492 15.8735 6.07507 13.7931 8.63912 13.7931C11.2055 13.7931 13.2956 15.8735 13.2956 18.4376C13.2956 18.8401 13.2439 19.237 13.1504 19.5815L25.2052 19.5815C25.1093 19.2249 25.0479 18.8424 25.0479 18.4376C25.0479 15.8735 27.138 13.7931 29.7095 13.7931C32.2759 13.7931 34.3563 15.9345 34.3563 18.4986C34.3563 18.7524 34.3413 18.9728 34.3017 19.2093L34.9662 19.1392C37.2067 18.9066 38.3112 17.6603 38.3112 15.3513L38.3112 13.1597C38.3112 10.4722 37.2653 9.31889 34.7725 8.86682Z"
                     fill="currentColor" fill-opacity="0.85" />
              <path d="M32.79 5.13526C32.5183 5.91639 32.9738 6.31041 33.7302 6.11455L37.6947 5.04967C38.3311 4.88541 38.5097 4.36159 38.145 3.84007L35.8038 0.437929C35.3702-0.169178 34.7654-0.171483 34.4816 0.597576L34.0106 1.85328C31.2253 0.664843 28.0317 0.523515 25.7839 0.693594C25.2205 0.740117 24.7794 1.22258 24.8236 1.79347C24.8552 2.35691 25.3624 2.79569 25.9333 2.75893C28.0805 2.59116 30.9192 2.73018 33.2978 3.78881Z"
                     fill="currentColor" fill-opacity="0.85" />
       </g>
</svg>