<?xml version="1.0" encoding="UTF-8"?>
<!--Generator: Apple Native CoreSVG 326-->
<!DOCTYPE svg PUBLIC "-//W3C//DTD SVG 1.1//EN" "http://www.w3.org/Graphics/SVG/1.1/DTD/svg11.dtd">
<svg version="1.1" xmlns="http://www.w3.org/2000/svg" xmlns:xlink="http://www.w3.org/1999/xlink"
       viewBox="0 0 38.6702 18.18">
       <g>
              <rect height="18.18" opacity="0" width="38.6702" x="0" y="0" />
              <path d="M8.63912 18.18C10.4387 18.18 11.8994 16.7268 11.8994 14.9221C11.8994 13.1248 10.4387 11.6716 8.63912 11.6716C6.84182 11.6716 5.38116 13.1248 5.38116 14.9221C5.38116 16.7268 6.84182 18.18 8.63912 18.18ZM29.7095 18.18C31.5017 18.18 32.9623 16.7268 32.9623 14.9221C32.9623 13.1248 31.5017 11.6716 29.7095 11.6716C27.9025 11.6716 26.4418 13.1248 26.4418 14.9221C26.4418 16.7268 27.9025 18.18 29.7095 18.18ZM28.9328 4.28511C28.3291 4.17023 27.6525 4.13632 27.0781 4.16277L17.2653 4.72875L20.4785 2.49764C21.9491 1.45429 20.4831-0.774276 18.9217 0.302976L12.0726 4.99745L5.3774 6.23999C1.85292 6.89538 0 8.62881 0 11.5203L0 13.222C0 15.0748 0.848275 16.0362 2.70338 16.247L4.23871 16.4217C4.07851 16.0196 3.98492 15.4504 3.98492 14.9221C3.98492 12.358 6.07276 10.2776 8.63912 10.2776C11.2055 10.2776 13.2933 12.358 13.2933 14.9221C13.2933 15.3246 13.2439 15.7215 13.1504 16.066L25.2052 16.066C25.107 15.7094 25.0479 15.3269 25.0479 14.9221C25.0479 12.358 27.1357 10.2776 29.7095 10.2776C32.2759 10.2776 34.3563 12.419 34.3563 14.9831C34.3563 15.2369 34.3413 15.4573 34.3017 15.6938L34.9639 15.6237C37.2067 15.3911 38.3089 14.1448 38.3089 11.8358L38.3089 9.64419C38.3089 6.9567 37.2653 5.80339 34.7725 5.35132Z"
                     fill="currentColor" fill-opacity="0.85" />
       </g>
</svg>