<?xml version="1.0" encoding="UTF-8"?>
<!--Generator: Apple Native CoreSVG 326-->
<!DOCTYPE svg PUBLIC "-//W3C//DTD SVG 1.1//EN" "http://www.w3.org/Graphics/SVG/1.1/DTD/svg11.dtd">
<svg version="1.1" xmlns="http://www.w3.org/2000/svg" xmlns:xlink="http://www.w3.org/1999/xlink"
       viewBox="0 0 38.6702 23.9683">
       <g>
              <rect height="23.9683" opacity="0" width="38.6702" x="0" y="0" />
              <path d="M11.8994 17.8162C11.8994 19.621 10.4387 21.0742 8.63912 21.0742C6.84182 21.0742 5.38116 19.621 5.38116 17.8162C5.38116 16.0189 6.84182 14.5657 8.63912 14.5657C10.4387 14.5657 11.8994 16.0189 11.8994 17.8162ZM32.9623 17.8162C32.9623 19.621 31.5017 21.0742 29.7095 21.0742C27.9025 21.0742 26.4418 19.621 26.4418 17.8162C26.4418 16.0189 27.9025 14.5657 29.7095 14.5657C31.5017 14.5657 32.9623 16.0189 32.9623 17.8162ZM13.917 9.14869C13.917 10.9041 15.032 12.0161 16.7236 12.0161L21.6025 12.0161C23.2844 12.0161 24.3993 10.9041 24.3993 9.14869L24.3993 7.21141L27.0781 7.05691C27.6525 7.03046 28.3291 7.06437 28.9328 7.17925L34.7725 8.24546C37.2653 8.69753 38.3089 9.85085 38.3089 12.5383L38.3089 14.73C38.3089 17.0389 37.2067 18.2853 34.9639 18.5179L34.3017 18.588C34.3413 18.3514 34.3563 18.131 34.3563 17.8772C34.3563 15.3132 32.2759 13.1718 29.7095 13.1718C27.1357 13.1718 25.0479 15.2522 25.0479 17.8162C25.0479 18.2211 25.107 18.6036 25.2052 18.9602L13.1504 18.9602C13.2439 18.6157 13.2933 18.2188 13.2933 17.8162C13.2933 15.2522 11.2055 13.1718 8.63912 13.1718C6.07276 13.1718 3.98492 15.2522 3.98492 17.8162C3.98492 18.3445 4.07851 18.9138 4.23871 19.3158L2.70338 19.1411C0.848275 18.9303 0 17.9689 0 16.1161L0 14.4144C0 11.523 1.85292 9.78952 5.3774 9.13414L12.0726 7.8916L13.917 6.62737Z"
                     fill="currentColor" fill-opacity="0.85" />
              <path d="M16.7236 10.4768L21.6025 10.4768C22.4303 10.4768 22.86 10.0523 22.86 9.14869L22.86 5.31007C22.86 4.40879 22.4303 3.98425 21.6025 3.98425L16.7236 3.98425C15.8935 3.98425 15.4638 4.40879 15.4638 5.31007L15.4638 9.14869C15.4638 10.0523 15.8935 10.4768 16.7236 10.4768ZM20.4229 4.52907L21.8828 4.52907L21.8828 2.78484C21.8828 1.99019 22.4136 1.44264 23.1893 1.44264C23.9524 1.44264 24.4884 1.99019 24.4884 2.78484L24.4884 3.72938C24.4884 4.13426 24.8146 4.45816 25.2195 4.45816C25.6243 4.45816 25.9482 4.13426 25.9482 3.72938L25.9482 2.83895C25.9482 1.14082 24.8282 0 23.1893 0C21.5453 0 20.4229 1.14082 20.4229 2.83895Z"
                     fill="currentColor" fill-opacity="0.85" />
       </g>
</svg>