<?xml version="1.0" encoding="UTF-8"?>
<!--Generator: Apple Native CoreSVG 326-->
<!DOCTYPE svg PUBLIC "-//W3C//DTD SVG 1.1//EN" "http://www.w3.org/Graphics/SVG/1.1/DTD/svg11.dtd">
<svg version="1.1" xmlns="http://www.w3.org/2000/svg" xmlns:xlink="http://www.w3.org/1999/xlink"
       viewBox="0 0 38.6702 26.8752">
       <g>
              <rect height="26.8752" opacity="0" width="38.6702" x="0" y="0" />
              <path d="M8.63912 22.5276C10.4387 22.5276 11.8994 21.0744 11.8994 19.2697C11.8994 17.4724 10.4387 16.0192 8.63912 16.0192C6.84182 16.0192 5.38116 17.4724 5.38116 19.2697C5.38116 21.0744 6.84182 22.5276 8.63912 22.5276ZM29.7095 22.5276C31.5017 22.5276 32.9623 21.0744 32.9623 19.2697C32.9623 17.4724 31.5017 16.0192 29.7095 16.0192C27.9025 16.0192 26.4418 17.4724 26.4418 19.2697C26.4418 21.0744 27.9025 22.5276 29.7095 22.5276ZM28.9328 8.63272C28.3291 8.51783 27.6525 8.48393 27.0781 8.51037L17.2653 9.07636L20.4785 6.84524C21.9491 5.8019 20.4831 3.57333 18.9217 4.65059L12.0726 9.34506L5.3774 10.5876C1.85292 11.243 0 12.9764 0 15.8679L0 17.5696C0 19.4224 0.848275 20.3838 2.70338 20.5946L4.23871 20.7693C4.07851 20.3672 3.98492 19.798 3.98492 19.2697C3.98492 16.7056 6.07276 14.6252 8.63912 14.6252C11.2055 14.6252 13.2933 16.7056 13.2933 19.2697C13.2933 19.6722 13.2439 20.0691 13.1504 20.4136L25.2052 20.4136C25.107 20.057 25.0479 19.6745 25.0479 19.2697C25.0479 16.7056 27.1357 14.6252 29.7095 14.6252C32.2759 14.6252 34.3563 16.7666 34.3563 19.3307C34.3563 19.5845 34.3413 19.8049 34.3017 20.0415L34.9639 19.9713C37.2067 19.7387 38.3089 18.4924 38.3089 16.1834L38.3089 13.9918C38.3089 11.3043 37.2653 10.151 34.7725 9.69893Z"
                     fill="currentColor" fill-opacity="0.85" />
              <path d="M29.4669 5.6599L29.4255 4.22326C32.0265 3.98549 34.7503 4.79483 36.7223 5.64619C37.2392 5.86905 37.8566 5.63873 38.0892 5.11436C38.3023 4.58769 38.0548 3.97027 37.5304 3.75718C35.4705 2.86675 32.3917 1.94714 29.3767 2.16539L29.3451 0.816637C29.3256-0.0230854 28.7724-0.214334 28.1602 0.238828L24.8287 2.66507C24.2951 3.04702 24.3072 3.59784 24.8408 3.96026L28.255 6.28424C28.9184 6.71271 29.4692 6.48756 29.4669 5.6599Z"
                     fill="currentColor" fill-opacity="0.85" />
       </g>
</svg>