<?xml version="1.0" encoding="UTF-8"?>
<!--Generator: Apple Native CoreSVG 326-->
<!DOCTYPE svg PUBLIC "-//W3C//DTD SVG 1.1//EN" "http://www.w3.org/Graphics/SVG/1.1/DTD/svg11.dtd">
<svg version="1.1" xmlns="http://www.w3.org/2000/svg" xmlns:xlink="http://www.w3.org/1999/xlink"
       viewBox="0 0 25.3209 20.5771">
       <g>
              <rect height="20.5771" opacity="0" width="25.3209" x="0" y="0" />
              <path d="M3.11906 20.5771L21.8331 20.5771C23.6697 20.5771 24.9596 19.2849 24.9596 17.4277L24.9596 3.15921C24.9596 1.30198 23.6697 0.00976562 21.8331 0.00976562L3.11906 0.00976562C1.2773 0.00976562 0 1.30198 0 3.15921L0 17.4277C0 19.2849 1.2773 20.5771 3.11906 20.5771ZM6.68478 9.62127C4.99479 9.62127 3.65228 8.27646 3.65228 6.58646C3.65228 4.89646 4.99479 3.5442 6.68478 3.5442C8.36963 3.5442 9.71213 4.89646 9.71213 6.58646C9.71213 8.27646 8.36963 9.62127 6.68478 9.62127ZM14.3033 9.62127C12.611 9.62127 11.2685 8.27646 11.2685 6.58646C11.2685 4.89646 12.611 3.5442 14.3033 3.5442C15.9956 3.5442 17.3433 4.89646 17.3433 6.58646C17.3433 8.27646 15.9956 9.62127 14.3033 9.62127ZM6.68478 16.9985C4.99479 16.9985 3.65228 15.656 3.65228 13.9637C3.65228 12.2737 4.99479 10.9237 6.68478 10.9237C8.36963 10.9237 9.71213 12.2737 9.71213 13.9637C9.71213 15.656 8.36963 16.9985 6.68478 16.9985ZM14.3033 16.9985C12.611 16.9985 11.2685 15.656 11.2685 13.9637C11.2685 12.2737 12.611 10.9237 14.3033 10.9237C15.9956 10.9237 17.3433 12.2737 17.3433 13.9637C17.3433 15.656 15.9956 16.9985 14.3033 16.9985ZM20.4844 6.93111C19.9043 6.93111 19.4465 6.47334 19.4465 5.89322C19.4465 5.32518 19.9043 4.8651 20.4844 4.8651C21.0622 4.8651 21.5125 5.32518 21.5125 5.89322C21.5125 6.47334 21.0622 6.93111 20.4844 6.93111ZM20.4844 9.85158C19.9043 9.85158 19.4465 9.39611 19.4465 8.81369C19.4465 8.24565 19.9043 7.78557 20.4844 7.78557C21.0622 7.78557 21.5125 8.24565 21.5125 8.81369C21.5125 9.39611 21.0622 9.85158 20.4844 9.85158ZM20.4844 12.7841C19.9043 12.7841 19.4465 12.3166 19.4465 11.7462C19.4465 11.1661 19.9043 10.7032 20.4844 10.7032C21.0622 10.7032 21.5125 11.1661 21.5125 11.7462C21.5125 12.3166 21.0622 12.7841 20.4844 12.7841ZM20.4844 15.6971C19.9043 15.6971 19.4465 15.237 19.4465 14.6667C19.4465 14.0889 19.9043 13.6311 20.4844 13.6311C21.0622 13.6311 21.5125 14.0889 21.5125 14.6667C21.5125 15.237 21.0622 15.6971 20.4844 15.6971ZM6.68478 8.38588C7.68561 8.38588 8.47905 7.59475 8.47905 6.58646C8.47905 5.57818 7.68561 4.78704 6.68478 4.78704C5.6788 4.78704 4.88767 5.57818 4.88767 6.58646C4.88767 7.59475 5.6788 8.38588 6.68478 8.38588ZM6.68478 7.86491C5.97001 7.86491 5.41095 7.30584 5.41095 6.58646C5.41095 5.86708 5.97001 5.31032 6.68478 5.31032C7.3967 5.31032 7.95347 5.86708 7.95347 6.58646C7.95347 7.30584 7.3967 7.86491 6.68478 7.86491ZM14.3033 8.38588C15.3041 8.38588 16.1027 7.59475 16.1027 6.58646C16.1027 5.57818 15.3041 4.78704 14.3033 4.78704C13.3122 4.78704 12.5039 5.57818 12.5039 6.58646C12.5039 7.59475 13.3122 8.38588 14.3033 8.38588ZM14.3033 7.86491C13.5914 7.86491 13.0323 7.30584 13.0323 6.58646C13.0323 5.86708 13.5914 5.31032 14.3033 5.31032C15.0129 5.31032 15.572 5.86708 15.572 6.58646C15.572 7.30584 15.0129 7.86491 14.3033 7.86491ZM6.68478 15.7557C7.68561 15.7557 8.47905 14.9668 8.47905 13.9637C8.47905 12.9554 7.68561 12.1666 6.68478 12.1666C5.6788 12.1666 4.88767 12.9554 4.88767 13.9637C4.88767 14.9668 5.6788 15.7557 6.68478 15.7557ZM6.68478 15.2421C5.97001 15.2421 5.41095 14.6831 5.41095 13.9637C5.41095 13.2392 5.97001 12.6876 6.68478 12.6876C7.3967 12.6876 7.95347 13.2392 7.95347 13.9637C7.95347 14.6831 7.3967 15.2421 6.68478 15.2421ZM14.3033 15.7557C15.3041 15.7557 16.1027 14.9668 16.1027 13.9637C16.1027 12.9554 15.3041 12.1666 14.3033 12.1666C13.3122 12.1666 12.5039 12.9554 12.5039 13.9637C12.5039 14.9668 13.3122 15.7557 14.3033 15.7557ZM14.3033 15.2421C13.5914 15.2421 13.0323 14.6831 13.0323 13.9637C13.0323 13.2392 13.5914 12.6876 14.3033 12.6876C15.0129 12.6876 15.572 13.2392 15.572 13.9637C15.572 14.6831 15.0129 15.2421 14.3033 15.2421Z"
                     fill="currentColor" fill-opacity="0.85" />
       </g>
</svg>