<?xml version="1.0" encoding="UTF-8"?>
<!--Generator: Apple Native CoreSVG 326-->
<!DOCTYPE svg PUBLIC "-//W3C//DTD SVG 1.1//EN" "http://www.w3.org/Graphics/SVG/1.1/DTD/svg11.dtd">
<svg version="1.1" xmlns="http://www.w3.org/2000/svg" xmlns:xlink="http://www.w3.org/1999/xlink"
       viewBox="0 0 20.9647 20.6132">
       <g>
              <rect height="20.6132" opacity="0" width="20.9647" x="0" y="0" />
              <path d="M0 13.626C0 14.2141 0.461714 14.6856 1.0573 14.6856L1.93632 14.6856L1.93632 17.6517C1.93632 18.2697 2.34581 18.6769 2.96378 18.6769L5.92761 18.6769L5.92761 19.5633C5.92761 20.1515 6.39163 20.6132 6.97975 20.6132C7.57534 20.6132 8.03705 20.1515 8.03705 19.5633L8.03705 18.6769L9.24441 18.6769L9.24441 19.5633C9.24441 20.1515 9.71358 20.6132 10.3017 20.6132C10.8973 20.6132 11.3613 20.1515 11.3613 19.5633L11.3613 18.6769L12.5664 18.6769L12.5664 19.5633C12.5664 20.1515 13.0355 20.6132 13.6237 20.6132C14.2215 20.6132 14.6833 20.1515 14.6833 19.5633L14.6833 18.6769L17.6471 18.6769C18.2576 18.6769 18.6671 18.2697 18.6671 17.6517L18.6671 14.6833L19.5536 14.6833C20.1417 14.6833 20.6034 14.2118 20.6034 13.6237C20.6034 13.0281 20.1417 12.5664 19.5536 12.5664L18.6671 12.5664L18.6671 11.359L19.5536 11.359C20.1417 11.359 20.6034 10.8898 20.6034 10.3017C20.6034 9.70612 20.1417 9.2421 19.5536 9.2421L18.6671 9.2421L18.6671 8.03705L19.5536 8.03705C20.1417 8.03705 20.6034 7.56557 20.6034 6.97745C20.6034 6.38933 20.1417 5.92015 19.5536 5.92015L18.6671 5.92015L18.6671 2.97354C18.6671 2.35558 18.2576 1.94609 17.6471 1.94609L14.6833 1.94609L14.6833 1.06937C14.6833 0.473785 14.2215 0.00976562 13.6237 0.00976562C13.0355 0.00976562 12.5664 0.473785 12.5664 1.06937L12.5664 1.94609L11.3613 1.94609L11.3613 1.06937C11.3613 0.473785 10.8973 0.00976562 10.3017 0.00976562C9.71358 0.00976562 9.24441 0.473785 9.24441 1.06937L9.24441 1.94609L8.03705 1.94609L8.03705 1.06937C8.03705 0.473785 7.57534 0.00976562 6.97975 0.00976562C6.39163 0.00976562 5.92761 0.473785 5.92761 1.06937L5.92761 1.94609L2.96378 1.94609C2.34581 1.94609 1.93632 2.35558 1.93632 2.97354L1.93632 5.92246L1.0573 5.92246C0.461714 5.92246 0 6.39163 0 6.97975C0 7.57534 0.461714 8.03936 1.0573 8.03936L1.93632 8.03936L1.93632 9.24441L1.0573 9.24441C0.461714 9.24441 0 9.71589 0 10.304C0 10.8921 0.461714 11.3613 1.0573 11.3613L1.93632 11.3613L1.93632 12.5687L1.0573 12.5687C0.461714 12.5687 0 13.0304 0 13.626ZM6.92935 14.4203C6.464 14.4203 6.18771 14.1389 6.18771 13.6689L6.18771 6.93912C6.18771 6.47146 6.464 6.19001 6.92935 6.19001L13.6936 6.19001C14.1515 6.19001 14.4329 6.47146 14.4329 6.93912L14.4329 13.6689C14.4329 14.1389 14.1515 14.4203 13.6936 14.4203ZM8.23952 12.1691C8.23952 12.2858 8.32226 12.361 8.4389 12.361L12.1817 12.361C12.3007 12.361 12.3811 12.2858 12.3811 12.1691L12.3811 8.4412C12.3811 8.32226 12.3007 8.24183 12.1817 8.24183L8.4389 8.24183C8.32226 8.24183 8.23952 8.32226 8.23952 8.4412Z"
                     fill="currentColor" fill-opacity="0.85" />
       </g>
</svg>