<?xml version="1.0" encoding="UTF-8"?>
<!--Generator: Apple Native CoreSVG 326-->
<!DOCTYPE svg PUBLIC "-//W3C//DTD SVG 1.1//EN" "http://www.w3.org/Graphics/SVG/1.1/DTD/svg11.dtd">
<svg version="1.1" xmlns="http://www.w3.org/2000/svg" xmlns:xlink="http://www.w3.org/1999/xlink"
       viewBox="0 0 29.1535 22.2343">
       <g>
              <rect height="22.2343" opacity="0" width="29.1535" x="0" y="0" />
              <path d="M26.2053 5.95127L26.2053 11.917C25.7764 11.7806 25.3042 11.7083 24.7997 11.7083C24.2147 11.7083 23.672 11.8088 23.1857 11.9864L23.1857 9.4154L5.60426 9.4154L5.60426 15.8491C5.60426 16.5886 5.95716 16.8973 6.65021 16.8973L11.2167 16.8973C11.5071 17.2107 11.8834 17.4379 12.3087 17.537C12.3599 17.5445 12.4087 17.5473 12.4714 17.5433L12.4714 19.8065C12.4714 19.8439 12.4722 19.881 12.4767 19.917L6.24042 19.917C3.91074 19.917 2.58461 18.5978 2.58461 16.2801L2.58461 5.95127C2.58461 3.63366 3.91074 2.31215 6.24042 2.31215L22.5495 2.31215C24.8838 2.31215 26.2053 3.63366 26.2053 5.95127ZM6.65021 5.33179C5.95716 5.33179 5.60426 5.64278 5.60426 6.38235L5.60426 6.9151L23.1857 6.9151L23.1857 6.38235C23.1857 5.64278 22.8328 5.33179 22.142 5.33179Z"
                     fill="currentColor" fill-opacity="0.85" />
              <path d="M24.802 20.6898C26.4183 20.6898 27.6142 19.7116 27.6142 18.3738C27.6142 17.3043 26.813 16.4721 25.7378 16.4513L25.7378 17.2258C26.7377 17.0138 27.3333 16.2942 27.3333 15.3465C27.3333 14.1333 26.2695 13.2528 24.7997 13.2528C23.7341 13.2528 22.8294 13.7267 22.4279 14.5039C22.3102 14.7267 22.2539 14.9915 22.2539 15.2241C22.2539 15.7002 22.5927 16.039 23.0688 16.039C23.476 16.039 23.7115 15.8501 23.8367 15.5347C24.0027 15.1435 24.3336 14.8999 24.7629 14.8999C25.2927 14.8999 25.5662 15.1102 25.5662 15.4763C25.5662 15.8619 25.2708 16.0894 24.7388 16.0894L24.2803 16.0894C23.814 16.0894 23.4677 16.4306 23.4677 16.8871C23.4677 17.3437 23.814 17.69 24.2803 17.69L24.7485 17.69C25.4139 17.69 25.7931 17.9325 25.7931 18.3738C25.7931 18.7812 25.4219 19.033 24.8192 19.033C24.2871 19.033 23.9079 18.802 23.7367 18.3981C23.6115 18.0902 23.3565 17.8938 22.9666 17.8938C22.4733 17.8938 22.1074 18.2498 22.1074 18.7282C22.1074 18.9585 22.1712 19.2158 22.2987 19.4364C22.7834 20.2503 23.6657 20.6898 24.802 20.6898Z"
                     fill="currentColor" fill-opacity="0.85" />
              <path d="M17.3517 20.5847L21.0012 20.5847C21.4847 20.5847 21.8431 20.2286 21.8431 19.7623C21.8431 19.269 21.4847 18.9106 21.0012 18.9106L19.2887 18.9106L19.2887 18.8693L20.1652 18.0175C21.2715 16.9531 21.6432 16.3 21.6432 15.4832C21.6432 14.2115 20.5426 13.2528 19.0704 13.2528C17.9211 13.2528 16.928 13.9082 16.6126 14.8795C16.5563 15.0334 16.5247 15.1948 16.5247 15.3758C16.5247 15.8542 16.8733 16.2004 17.3396 16.2004C17.7543 16.2004 17.9995 15.9794 18.1471 15.5429C18.1666 15.4722 18.2085 15.3889 18.2453 15.3355C18.4182 15.0596 18.7067 14.8999 19.0704 14.8999C19.5072 14.8999 19.8738 15.2079 19.8738 15.5395C19.8738 15.9118 19.7232 16.1474 18.9528 16.8931L16.89 18.9163C16.6206 19.1834 16.488 19.4286 16.488 19.7353C16.488 20.2286 16.8463 20.5847 17.3517 20.5847Z"
                     fill="currentColor" fill-opacity="0.85" />
              <path d="M14.8871 20.6875C15.4194 20.6875 15.7853 20.3217 15.7853 19.8065L15.7853 14.2343C15.7853 13.6772 15.3924 13.2993 14.8308 13.2993C14.5562 13.2993 14.3328 13.3803 14.029 13.5762L12.5992 14.5183C12.2902 14.717 12.138 14.9771 12.138 15.2913C12.138 15.7381 12.4866 16.0671 12.9432 16.0671C13.1149 16.0671 13.2843 16.0131 13.456 15.9029L13.9745 15.5649L14.0182 15.5649L14.0182 19.8065C14.0182 20.3217 14.384 20.6875 14.8871 20.6875Z"
                     fill="currentColor" fill-opacity="0.85" />
       </g>
</svg>