<?xml version="1.0" encoding="UTF-8"?>
<!--Generator: Apple Native CoreSVG 326-->
<!DOCTYPE svg PUBLIC "-//W3C//DTD SVG 1.1//EN" "http://www.w3.org/Graphics/SVG/1.1/DTD/svg11.dtd">
<svg version="1.1" xmlns="http://www.w3.org/2000/svg" xmlns:xlink="http://www.w3.org/1999/xlink"
       viewBox="0 0 23.9746 17.61">
       <g>
              <rect height="17.61" opacity="0" width="23.9746" x="0" y="0" />
              <path d="M5.48895 13.0827L7.88153 13.0827C8.4577 13.0827 8.83856 12.6995 8.83856 12.1526L8.83856 10.346C8.83856 9.78934 8.4577 9.40848 7.88153 9.40848L5.48895 9.40848C4.91278 9.40848 4.53192 9.78934 4.53192 10.346L4.53192 12.1526C4.53192 12.6995 4.91278 13.0827 5.48895 13.0827ZM2.08918 7.10325L21.5338 7.10325L21.5338 4.60295L2.08918 4.60295ZM3.64834 17.6048L19.9649 17.6048C22.2992 17.6048 23.6132 16.2856 23.6132 13.968L23.6132 3.63912C23.6132 1.32151 22.2992 0 19.9649 0L3.64834 0C1.32382 0 0 1.32151 0 3.63912L0 13.968C0 16.2856 1.32382 17.6048 3.64834 17.6048ZM4.05583 14.5852C3.37024 14.5852 3.01964 14.2765 3.01964 13.5369L3.01964 4.07021C3.01964 3.33063 3.37024 3.01964 4.05583 3.01964L19.5574 3.01964C20.2384 3.01964 20.5936 3.33063 20.5936 4.07021L20.5936 13.5369C20.5936 14.2765 20.2384 14.5852 19.5574 14.5852Z"
                     fill="currentColor" fill-opacity="0.85" />
       </g>
</svg>