<?xml version="1.0" encoding="UTF-8"?>
<!--Generator: Apple Native CoreSVG 326-->
<!DOCTYPE svg PUBLIC "-//W3C//DTD SVG 1.1//EN" "http://www.w3.org/Graphics/SVG/1.1/DTD/svg11.dtd">
<svg version="1.1" xmlns="http://www.w3.org/2000/svg" xmlns:xlink="http://www.w3.org/1999/xlink"
       viewBox="0 0 21.365 21.006">
       <g>
              <rect height="21.006" opacity="0" width="21.365" x="0" y="0" />
              <path d="M10.4981 20.9962C16.302 20.9962 21.0037 16.2946 21.0037 10.4981C21.0037 4.70163 16.302 0 10.4981 0C4.70163 0 0 4.70163 0 10.4981C0 16.2946 4.70163 20.9962 10.4981 20.9962ZM10.4981 17.9484C6.37829 17.9484 3.04785 14.6179 3.04785 10.4981C3.04785 6.37829 6.37829 3.04785 10.4981 3.04785C14.6179 3.04785 17.9558 6.37829 17.9558 10.4981C17.9558 14.6179 14.6179 17.9484 10.4981 17.9484Z"
                     fill="currentColor" fill-opacity="0.85" />
              <path d="M6.77935 14.5112L14.2123 14.5112C15.2709 14.5112 15.8734 13.911 15.8734 12.8599L15.8734 9.65232L5.11822 9.65232L5.11822 12.8599C5.11822 13.911 5.72818 14.5112 6.77935 14.5112ZM7.08912 12.9792C6.82314 12.9792 6.64505 12.8161 6.64505 12.5599L6.64505 11.7406C6.64505 11.4844 6.82314 11.3138 7.08912 11.3138L8.17662 11.3138C8.43514 11.3138 8.61322 11.4844 8.61322 11.7406L8.61322 12.5599C8.61322 12.8161 8.43514 12.9792 8.17662 12.9792ZM5.11822 8.51842L15.8734 8.51842L15.8734 8.15357C15.8734 7.10471 15.2709 6.50451 14.2123 6.50451L6.77935 6.50451C5.72818 6.50451 5.11822 7.1024 5.11822 8.15357Z"
                     fill="currentColor" fill-opacity="0.85" />
       </g>
</svg>