<?xml version="1.0" encoding="UTF-8"?>
<!--Generator: Apple Native CoreSVG 326-->
<!DOCTYPE svg PUBLIC "-//W3C//DTD SVG 1.1//EN" "http://www.w3.org/Graphics/SVG/1.1/DTD/svg11.dtd">
<svg version="1.1" xmlns="http://www.w3.org/2000/svg" xmlns:xlink="http://www.w3.org/1999/xlink"
       viewBox="0 0 21.365 21.006">
       <g>
              <rect height="21.006" opacity="0" width="21.365" x="0" y="0" />
              <path d="M21.0037 10.4981C21.0037 16.2923 16.302 20.9962 10.4981 20.9962C4.70394 20.9962 0 16.2923 0 10.4981C0 4.70163 4.70394 0 10.4981 0C16.302 0 21.0037 4.70163 21.0037 10.4981ZM7.16385 14.4958C7.34763 14.6549 7.54349 14.7967 7.74912 14.9289L8.74927 13.9333C8.90837 13.7742 9.13353 13.7817 9.27771 13.9333C9.42704 14.0849 9.42704 14.3101 9.27771 14.4594L8.4665 15.2976C9.09447 15.5717 9.77818 15.7292 10.4958 15.7292C13.3532 15.7292 15.7171 13.3653 15.7171 10.5079C15.7171 9.79025 15.5671 9.08931 15.2856 8.45618L14.4864 9.25072C14.3348 9.40236 14.1096 9.40236 13.9528 9.25072C13.8064 9.09908 13.8064 8.86416 13.9528 8.72228L14.9191 7.74857C14.787 7.55041 14.6451 7.33963 14.4912 7.15123ZM5.28424 10.5079C5.28424 11.2255 5.43939 11.9167 5.70604 12.5423L6.52702 11.7357C6.67635 11.5789 6.90151 11.5789 7.05315 11.7357C7.20479 11.8874 7.21455 12.1074 7.05315 12.259L6.08229 13.2448C6.20463 13.4602 6.35397 13.6687 6.51537 13.8548L13.8473 6.51998C13.6589 6.35342 13.463 6.20924 13.25 6.07944L12.2619 7.05315C12.1125 7.19963 11.8799 7.19963 11.7334 7.05315C11.5841 6.90381 11.5864 6.67866 11.7334 6.51956L12.5349 5.71811C11.9144 5.45146 11.2134 5.28654 10.4958 5.28654C7.63842 5.28654 5.28424 7.65049 5.28424 10.5079ZM10.7564 12.4449C10.908 12.5994 10.908 12.8268 10.7564 12.9808L10.0561 13.681C9.90677 13.8304 9.67701 13.8304 9.53228 13.681C9.37088 13.5443 9.37088 13.2968 9.53228 13.1451L10.2251 12.4449C10.3819 12.2955 10.607 12.303 10.7564 12.4449ZM12.2299 10.969C12.3838 11.1281 12.3838 11.3481 12.2299 11.4975L11.5296 12.2075C11.378 12.3569 11.1528 12.3569 10.9914 12.2075C10.8444 12.0605 10.8444 11.821 10.9914 11.6716L11.7061 10.969C11.8456 10.822 12.0829 10.822 12.2299 10.969ZM8.52667 10.2571C8.68346 10.4064 8.68116 10.6316 8.52667 10.7809L7.84131 11.4835C7.69944 11.6374 7.44214 11.6276 7.29796 11.4835C7.14862 11.3364 7.14862 11.0992 7.29796 10.9499L8.00569 10.2571C8.15964 10.0957 8.38479 10.0957 8.52667 10.2571ZM13.7132 9.48576C13.8625 9.64486 13.8625 9.88209 13.7132 10.0314L13.0129 10.7317C12.859 10.8856 12.6287 10.8856 12.4845 10.7317C12.3277 10.5824 12.33 10.3423 12.4845 10.1929L13.1698 9.48576C13.3192 9.33642 13.569 9.33873 13.7132 9.48576ZM10.0174 8.76862C10.1644 8.92311 10.1644 9.16034 10.0174 9.29991L9.31253 10.0146C9.1655 10.1616 8.92596 10.1616 8.77893 10.0146C8.6296 9.86061 8.6296 9.62054 8.77893 9.4689L9.48151 8.76862C9.62339 8.62214 9.85831 8.62214 10.0174 8.76862ZM11.4886 7.30026C11.6477 7.44444 11.6328 7.67706 11.4886 7.8287L10.786 8.53643C10.6442 8.69323 10.3966 8.67831 10.2548 8.53643C10.0934 8.3894 10.0934 8.15448 10.2548 7.99307L10.9476 7.30026C11.1044 7.14346 11.3393 7.14346 11.4886 7.30026Z"
                     fill="currentColor" fill-opacity="0.85" />
       </g>
</svg>