<?xml version="1.0" encoding="UTF-8"?>
<!--Generator: Apple Native CoreSVG 326-->
<!DOCTYPE svg PUBLIC "-//W3C//DTD SVG 1.1//EN" "http://www.w3.org/Graphics/SVG/1.1/DTD/svg11.dtd">
<svg version="1.1" xmlns="http://www.w3.org/2000/svg" xmlns:xlink="http://www.w3.org/1999/xlink"
       viewBox="0 0 21.365 21.006">
       <g>
              <rect height="21.006" opacity="0" width="21.365" x="0" y="0" />
              <path d="M4.6021 17.6473L17.9218 4.3178L16.6956 3.08418L3.35871 16.4188ZM3.05949 13.1648L1.7159 14.5158C1.41899 14.8053 1.41899 15.2492 1.7159 15.5461C1.99789 15.8304 2.44183 15.8304 2.73359 15.5461L4.08234 14.1899C4.37409 13.9005 4.35686 13.4542 4.08234 13.1648C3.80035 12.8828 3.34894 12.8828 3.05949 13.1648ZM5.91324 10.3087L4.57195 11.6598C4.27504 11.9492 4.27504 12.3932 4.57195 12.6849C4.85394 12.9721 5.30534 12.9721 5.58964 12.6849L6.93839 11.3339C7.2353 11.037 7.22553 10.5907 6.93839 10.3087C6.6564 10.0118 6.21245 10.0118 5.91324 10.3087ZM8.78421 7.44523L7.4257 8.80374C7.13625 9.08573 7.13625 9.53198 7.4257 9.82889C7.71745 10.1109 8.16139 10.1109 8.44338 9.82889L9.8019 8.47784C10.0913 8.18093 10.0913 7.73468 9.8019 7.44523C9.51245 7.15578 9.0662 7.15578 8.78421 7.44523ZM11.6403 4.58918L10.2892 5.94023C9.9923 6.22968 9.9923 6.67593 10.2892 6.97284C10.5712 7.24506 11.0174 7.25483 11.3144 6.97284L12.6579 5.61433C12.9549 5.32487 12.9549 4.87117 12.6579 4.58918C12.376 4.29973 11.9223 4.29973 11.6403 4.58918ZM14.4963 1.73543L13.1453 3.08418C12.8558 3.36617 12.8558 3.81988 13.1453 4.10187C13.4273 4.38901 13.881 4.39878 14.1704 4.10187L15.5289 2.75827C15.8109 2.46136 15.8109 2.01742 15.5289 1.73543C15.232 1.43621 14.7858 1.43621 14.4963 1.73543ZM6.83327 16.8869L5.47706 18.2356C5.19277 18.5349 5.19277 18.9788 5.47706 19.2608C5.77167 19.5577 6.21791 19.5577 6.50737 19.2608L7.85842 17.9097C8.14041 17.6277 8.14041 17.1763 7.85842 16.8869C7.56897 16.6049 7.11526 16.5951 6.83327 16.8869ZM9.68932 14.0211L8.33827 15.3796C8.04882 15.669 8.04882 16.1227 8.33827 16.4047C8.63002 16.6867 9.08143 16.6867 9.36342 16.4047L10.7145 15.0537C11.0039 14.7642 11.0039 14.3203 10.7145 14.0211C10.425 13.7512 9.98623 13.7414 9.68932 14.0211ZM12.5528 11.1673L11.1943 12.5161C10.9123 12.8153 10.9123 13.2518 11.1943 13.5487C11.4912 13.833 11.9375 13.833 12.2195 13.5487L13.578 12.1925C13.86 11.9082 13.86 11.4642 13.578 11.1673C13.2811 10.8853 12.8423 10.8853 12.5528 11.1673ZM15.4089 8.31128L14.0578 9.66233C13.7684 9.95924 13.7781 10.3957 14.0578 10.6875C14.3473 10.9769 14.7935 10.9769 15.083 10.6875L16.4317 9.33642C16.7309 9.04697 16.7309 8.60073 16.4317 8.31128C16.1497 8.02182 15.6983 8.02182 15.4089 8.31128ZM18.2649 5.44776L16.9139 6.80628C16.6319 7.08827 16.6417 7.53451 16.9139 7.83143C17.2033 8.11342 17.657 8.11342 17.9367 7.83143L19.2878 6.48037C19.5847 6.19092 19.5847 5.74468 19.2878 5.44776C19.0058 5.16577 18.5618 5.16577 18.2649 5.44776ZM10.4981 0C4.70163 0 0 4.70163 0 10.4981C0 16.2946 4.70163 20.9962 10.4981 20.9962C16.302 20.9962 21.0037 16.2946 21.0037 10.4981C21.0037 4.70163 16.302 0 10.4981 0ZM10.4981 2.32786C15.0101 2.32786 18.6684 5.99361 18.6684 10.4981C18.6684 15.0026 15.0101 18.6684 10.4981 18.6684C5.99361 18.6684 2.33532 15.0026 2.33532 10.4981C2.33532 5.99361 5.99361 2.32786 10.4981 2.32786Z"
                     fill="currentColor" fill-opacity="0.85" />
       </g>
</svg>