<?xml version="1.0" encoding="UTF-8"?>
<!--Generator: Apple Native CoreSVG 326-->
<!DOCTYPE svg PUBLIC "-//W3C//DTD SVG 1.1//EN" "http://www.w3.org/Graphics/SVG/1.1/DTD/svg11.dtd">
<svg version="1.1" xmlns="http://www.w3.org/2000/svg" xmlns:xlink="http://www.w3.org/1999/xlink"
       viewBox="0 0 22.6801 23.0717">
       <g>
              <rect height="23.0717" opacity="0" width="22.6801" x="0" y="0" />
              <path d="M22.3188 17.2093C22.3188 16.3847 21.6579 15.7136 20.7168 15.7136L7.52263 15.7136C7.35255 15.7136 7.26181 15.6228 7.26181 15.4453L7.26181 2.10932C7.26181 1.18085 6.52405 0.565314 5.71726 0.565314C4.89039 0.565314 4.15263 1.18085 4.15263 2.10932L4.15263 17.6775C4.15263 18.288 4.55982 18.7027 5.17778 18.7027L20.7168 18.7027C21.6579 18.7027 22.3188 18.0241 22.3188 17.2093ZM0 6.42772C0 7.25459 0.660849 7.92344 1.59962 7.92344L14.7961 7.92344C14.9662 7.92344 15.057 8.01649 15.057 8.18426L15.057 21.5202C15.057 22.4487 15.7947 23.0717 16.6067 23.0717C17.4358 23.0717 18.1661 22.4487 18.1661 21.5202L18.1661 5.96176C18.1661 5.3438 17.7589 4.93431 17.1484 4.93431L1.59962 4.93431C0.660849 4.93431 0 5.61293 0 6.42772Z"
                     fill="currentColor" fill-opacity="0.85" />
       </g>
</svg>