<?xml version="1.0" encoding="UTF-8"?>
<!--Generator: Apple Native CoreSVG 326-->
<!DOCTYPE svg PUBLIC "-//W3C//DTD SVG 1.1//EN" "http://www.w3.org/Graphics/SVG/1.1/DTD/svg11.dtd">
<svg version="1.1" xmlns="http://www.w3.org/2000/svg" xmlns:xlink="http://www.w3.org/1999/xlink"
       viewBox="0 0 24.9981 21.0395">
       <g>
              <rect height="21.0395" opacity="0" width="24.9981" x="0" y="0" />
              <path d="M17.9585 2.82961L17.9585 4.10096L21.0372 4.10096C23.3497 4.10096 24.6367 5.38341 24.6367 7.69125L24.6367 17.4394C24.6367 19.7473 23.3497 21.0297 21.0372 21.0297L3.60697 21.0297C1.28937 21.0297 0 19.7473 0 17.4394L0 7.69125C0 5.38341 1.28937 4.10096 3.60697 4.10096L6.68339 4.10096L6.68339 2.82961C6.68339 0.948904 7.79261 0 9.8281 0L14.7914 0C16.8574 0 17.9585 0.948904 17.9585 2.82961ZM11.7204 7.68852C10.9566 7.68852 10.4507 8.18699 10.4507 8.95308L10.4507 10.6818L8.70985 10.6818C7.96099 10.6818 7.4476 11.1975 7.4476 11.9441L7.4476 13.167C7.4476 13.9211 7.96329 14.4368 8.71731 14.4368L10.4507 14.4368L10.4507 16.1678C10.4507 16.9316 10.9566 17.4301 11.7204 17.4301L12.9336 17.4301C13.695 17.4301 14.2033 16.9316 14.2033 16.1678L14.2033 14.4368L15.9343 14.4368C16.6907 14.4368 17.1989 13.9211 17.1989 13.167L17.1989 11.9441C17.1989 11.1975 16.6907 10.6818 15.9343 10.6818L14.2033 10.6818L14.2033 8.95308C14.2033 8.18699 13.695 7.68852 12.9336 7.68852ZM10.1592 2.30615C9.58402 2.30615 9.27886 2.6067 9.27886 3.17729L9.27886 4.10096L15.3556 4.10096L15.3556 3.17729C15.3556 2.61416 15.0527 2.30615 14.4775 2.30615Z"
                     fill="currentColor" fill-opacity="0.85" />
       </g>
</svg>