<?xml version="1.0" encoding="UTF-8"?>
<!--Generator: Apple Native CoreSVG 326-->
<!DOCTYPE svg PUBLIC "-//W3C//DTD SVG 1.1//EN" "http://www.w3.org/Graphics/SVG/1.1/DTD/svg11.dtd">
<svg version="1.1" xmlns="http://www.w3.org/2000/svg" xmlns:xlink="http://www.w3.org/1999/xlink"
       viewBox="0 0 23.4744 23.1378">
       <g>
              <rect height="23.1378" opacity="0" width="23.4744" x="0" y="0" />
              <path d="M0 13.3805C0 15.19 1.22659 16.4045 3.03833 16.4045L6.70632 16.4045L6.70632 20.0748C6.70632 21.894 7.91337 23.1034 9.72281 23.1034L13.3903 23.1034C15.1997 23.1034 16.4143 21.894 16.4143 20.0748L16.4143 16.4045L20.0846 16.4045C21.9038 16.4045 23.1131 15.19 23.1131 13.3805L23.1131 9.71304C23.1131 7.90361 21.9038 6.68909 20.0846 6.68909L16.4143 6.68909L16.4143 3.02856C16.4143 1.21682 15.1997 0 13.3903 0L9.72281 0C7.91337 0 6.70632 1.21682 6.70632 3.02856L6.70632 6.68909L3.02856 6.68909C1.21682 6.68909 0 7.90361 0 9.71304Z"
                     fill="currentColor" fill-opacity="0.85" />
       </g>
</svg>