<?xml version="1.0" encoding="UTF-8"?>
<!--Generator: Apple Native CoreSVG 326-->
<!DOCTYPE svg PUBLIC "-//W3C//DTD SVG 1.1//EN" "http://www.w3.org/Graphics/SVG/1.1/DTD/svg11.dtd">
<svg version="1.1" xmlns="http://www.w3.org/2000/svg" xmlns:xlink="http://www.w3.org/1999/xlink"
       viewBox="0 0 21.365 21.006">
       <g>
              <rect height="21.006" opacity="0" width="21.365" x="0" y="0" />
              <path d="M21.0037 10.5079C21.0037 16.3043 16.302 21.006 10.4981 21.006C4.70394 21.006 0 16.3043 0 10.5079C0 4.7137 4.70394 0.00976562 10.4981 0.00976562C16.302 0.00976562 21.0037 4.7137 21.0037 10.5079ZM9.78947 4.93401C8.92803 4.93401 8.34397 5.50314 8.34397 6.37665L8.34397 8.35889L6.34736 8.35889C5.49338 8.35889 4.90932 8.94525 4.90932 9.79923L4.90932 11.2044C4.90932 12.0733 5.49568 12.6499 6.36228 12.6499L8.34397 12.6499L8.34397 14.6443C8.34397 15.5103 8.92803 16.0846 9.78947 16.0846L11.1947 16.0846C12.0659 16.0846 12.6402 15.5103 12.6402 14.6443L12.6402 12.6499L14.6368 12.6499C15.4931 12.6499 16.0771 12.0733 16.0771 11.2044L16.0771 9.79923C16.0771 8.94525 15.4931 8.35889 14.6368 8.35889L12.6402 8.35889L12.6402 6.37665C12.6402 5.50314 12.0659 4.93401 11.1947 4.93401Z"
                     fill="currentColor" fill-opacity="0.85" />
       </g>
</svg>