<?xml version="1.0" encoding="UTF-8"?>
<!--Generator: Apple Native CoreSVG 326-->
<!DOCTYPE svg PUBLIC "-//W3C//DTD SVG 1.1//EN" "http://www.w3.org/Graphics/SVG/1.1/DTD/svg11.dtd">
<svg version="1.1" xmlns="http://www.w3.org/2000/svg" xmlns:xlink="http://www.w3.org/1999/xlink"
       viewBox="0 0 24.9981 21.0395">
       <g>
              <rect height="21.0395" opacity="0" width="24.9981" x="0" y="0" />
              <path d="M3.60697 21.0297L21.0372 21.0297C23.3497 21.0297 24.6367 19.7473 24.6367 17.4394L24.6367 7.69125C24.6367 5.38341 23.3497 4.10096 21.0372 4.10096L3.60697 4.10096C1.28937 4.10096 0 5.38341 0 7.69125L0 17.4394C0 19.7473 1.28937 21.0297 3.60697 21.0297ZM3.85033 18.2735C3.3111 18.2735 3.01964 17.9866 3.01964 17.4359L3.01964 7.70223C3.01964 7.15378 3.3111 6.85717 3.85033 6.85717L20.7939 6.85717C21.3256 6.85717 21.6171 7.15378 21.6171 7.70223L21.6171 17.4359C21.6171 17.9866 21.3256 18.2735 20.7939 18.2735ZM6.68339 4.72675L9.27886 4.72675L9.27886 3.17729C9.27886 2.6067 9.58402 2.30615 10.1592 2.30615L14.4775 2.30615C15.0527 2.30615 15.3556 2.61416 15.3556 3.17729L15.3556 4.72214L17.9585 4.72214L17.9585 2.82961C17.9585 0.948904 16.8574 0 14.7914 0L9.8281 0C7.79261 0 6.68339 0.948904 6.68339 2.82961Z"
                     fill="currentColor" fill-opacity="0.85" />
              <path d="M7.97391 13.12C7.97391 13.7822 8.42016 14.2359 9.0898 14.2359L10.6493 14.2359L10.6493 15.793C10.6493 16.4673 11.0932 16.9038 11.7652 16.9038L12.879 16.9038C13.551 16.9038 13.9949 16.4673 13.9949 15.793L13.9949 14.2359L15.5544 14.2359C16.2189 14.2359 16.6726 13.7822 16.6726 13.12L16.6726 12.0061C16.6726 11.3416 16.2189 10.8953 15.5544 10.8953L13.9949 10.8953L13.9949 9.33303C13.9949 8.65878 13.551 8.2223 12.879 8.2223L11.7652 8.2223C11.0932 8.2223 10.6493 8.65878 10.6493 9.33303L10.6493 10.8953L9.08234 10.8953C8.41785 10.8953 7.97391 11.3416 7.97391 12.0061Z"
                     fill="currentColor" fill-opacity="0.85" />
       </g>
</svg>