<?xml version="1.0" encoding="UTF-8"?>
<!--Generator: Apple Native CoreSVG 326-->
<!DOCTYPE svg PUBLIC "-//W3C//DTD SVG 1.1//EN" "http://www.w3.org/Graphics/SVG/1.1/DTD/svg11.dtd">
<svg version="1.1" xmlns="http://www.w3.org/2000/svg" xmlns:xlink="http://www.w3.org/1999/xlink"
       viewBox="0 0 15.1601 25.0954">
       <g>
              <rect height="25.0954" opacity="0" width="15.1601" x="0" y="0" />
              <path d="M13.3388 2.16924L13.3388 3.66466C13.3388 5.00761 12.5767 5.81032 11.2837 5.84477L11.2837 6.61964C13.3957 6.73717 14.7987 8.26 14.7987 10.4525L14.7987 21.2581C14.7987 23.5372 13.2727 25.0954 11.0103 25.0954L3.78846 25.0954C1.53351 25.0954 0 23.5372 0 21.2581L0 10.4525C0 8.26028 1.40958 6.73756 3.51508 6.61967L3.51508 5.84485C2.22325 5.81121 1.46739 5.00835 1.46739 3.66466L1.46739 2.16924C1.46739 0.809213 2.25883 0.000545979 3.60449 0.000545979L11.192 0.000545979C12.5399 0.000545979 13.3388 0.809213 13.3388 2.16924ZM6.93153 12.1352C6.35263 12.1352 5.96959 12.513 5.96959 13.0971L5.96959 14.4341L4.63024 14.4341C4.05595 14.4341 3.67576 14.8097 3.67576 15.3886L3.67576 16.322C3.67576 16.9009 4.05595 17.2914 4.63024 17.2914L5.96959 17.2914L5.96959 18.621C5.96959 19.1976 6.35263 19.5778 6.93153 19.5778L7.86491 19.5778C8.44381 19.5778 8.82685 19.1976 8.82685 18.621L8.82685 17.2914L10.1662 17.2914C10.7382 17.2914 11.123 16.9009 11.123 16.322L11.123 15.3886C11.123 14.8097 10.7382 14.4341 10.1662 14.4341L8.82685 14.4341L8.82685 13.0971C8.82685 12.513 8.44381 12.1352 7.86491 12.1352Z"
                     fill="currentColor" fill-opacity="0.85" />
       </g>
</svg>