<?xml version="1.0" encoding="UTF-8"?>
<!--Generator: Apple Native CoreSVG 326-->
<!DOCTYPE svg PUBLIC "-//W3C//DTD SVG 1.1//EN" "http://www.w3.org/Graphics/SVG/1.1/DTD/svg11.dtd">
<svg version="1.1" xmlns="http://www.w3.org/2000/svg" xmlns:xlink="http://www.w3.org/1999/xlink"
       viewBox="0 0 27.6334 23.2813">
       <g>
              <rect height="23.2813" opacity="0" width="27.6334" x="0" y="0" />
              <path d="M4.44827 17.2067L4.86061 18.871C5.31377 20.7301 6.40037 21.6531 8.26536 21.6531L19.0664 21.6531C20.9263 21.6531 22.0106 20.7347 22.4735 18.871L22.8858 17.2067ZM3.92457 15.0406L23.4118 15.0406L24.9867 8.6253L22.7012 7.50231L18.9901 10.0673C18.8147 10.1823 18.6871 10.1541 18.5836 10.0024L14.5692 4.43172L12.7649 4.42711L8.80095 9.92721C8.70208 10.0692 8.58138 10.1026 8.40602 9.98011L4.72311 7.43637L2.40538 8.88169ZM2.88608 10.1979C4.47357 10.1979 5.76239 8.9068 5.76239 7.30954C5.76239 5.72666 4.47357 4.43323 2.88608 4.43323C1.29113 4.43323 0 5.72436 0 7.30954C0 8.9068 1.29343 10.1979 2.88608 10.1979ZM13.6633 5.76239C15.2485 5.76239 16.5396 4.47126 16.5396 2.87631C16.5396 1.29343 15.2485 0 13.6633 0C12.0661 0 10.7772 1.29113 10.7772 2.87631C10.7772 4.47126 12.0758 5.76239 13.6633 5.76239ZM24.3935 10.1979C25.9712 10.1979 27.2721 8.9068 27.2721 7.30954C27.2721 5.72436 25.9735 4.43323 24.3935 4.43323C22.8009 4.43323 21.5097 5.72666 21.5097 7.30954C21.5097 8.9068 22.8009 10.1979 24.3935 10.1979Z"
                     fill="currentColor" fill-opacity="0.85" />
       </g>
</svg>