<?xml version="1.0" encoding="UTF-8"?>
<!--Generator: Apple Native CoreSVG 326-->
<!DOCTYPE svg PUBLIC "-//W3C//DTD SVG 1.1//EN" "http://www.w3.org/Graphics/SVG/1.1/DTD/svg11.dtd">
<svg version="1.1" xmlns="http://www.w3.org/2000/svg" xmlns:xlink="http://www.w3.org/1999/xlink"
       viewBox="0 0 27.6857 22.9381">
       <g>
              <rect height="22.9381" opacity="0" width="27.6857" x="0" y="0" />
              <path d="M3.17092 10.5885C4.90829 10.5885 6.32461 9.17223 6.32461 7.41533C6.32461 5.68026 4.90829 4.26163 3.17092 4.26163C1.41632 4.26163 0 5.67795 0 7.41533C0 9.17223 1.41862 10.5885 3.17092 10.5885ZM3.17092 8.30412C2.67627 8.30412 2.28443 7.91228 2.28443 7.41533C2.28443 6.93329 2.67627 6.54606 3.17092 6.54606C3.64834 6.54606 4.04018 6.9379 4.04018 7.41533C4.04018 7.91228 3.65295 8.30412 3.17092 8.30412ZM13.6633 6.32461C15.4082 6.32461 16.8245 4.90829 16.8245 3.15369C16.8245 1.41862 15.4082 0 13.6633 0C11.9139 0 10.4999 1.41632 10.4999 3.15369C10.4999 4.90829 11.9162 6.32461 13.6633 6.32461ZM13.6633 4.04018C13.1761 4.04018 12.7768 3.64834 12.7768 3.15369C12.7768 2.67166 13.1761 2.28443 13.6633 2.28443C14.1482 2.28443 14.54 2.67627 14.54 3.15369C14.54 3.64834 14.1528 4.04018 13.6633 4.04018ZM24.1609 10.5885C25.8983 10.5885 27.3243 9.17223 27.3243 7.41533C27.3243 5.67795 25.908 4.26163 24.1609 4.26163C22.4161 4.26163 20.9997 5.68026 20.9997 7.41533C20.9997 9.17223 22.4161 10.5885 24.1609 10.5885ZM24.1609 8.30412C23.6714 8.30412 23.2767 7.91228 23.2767 7.41533C23.2767 6.9379 23.676 6.54606 24.1609 6.54606C24.6481 6.54606 25.0399 6.93329 25.0399 7.41533C25.0399 7.91228 24.6481 8.30412 24.1609 8.30412ZM4.0346 9.84703L7.45111 11.8334C8.65059 12.5201 9.95433 12.3233 10.7406 11.2453L14.7827 5.77931L12.2149 4.66882L8.80095 9.29475C8.69978 9.43675 8.58138 9.45573 8.40602 9.34765L5.48731 7.53015ZM23.3494 9.93425L21.9042 7.61737L18.9901 9.4228C18.8101 9.54296 18.6894 9.5119 18.5836 9.3676L15.1766 4.75374L12.6111 5.86653L16.6555 11.3296C17.4372 12.4008 18.7386 12.6097 19.9242 11.9298ZM5.40682 17.2887L21.9273 17.2887L21.9273 14.5607L5.40682 14.5607ZM2.77144 10.1887L4.86061 18.6994C5.31377 20.5608 6.40037 21.4815 8.26536 21.4815L19.0664 21.4815C20.9263 21.4815 22.018 20.5608 22.4735 18.6994L24.5627 10.1887L22.0293 9.03399L19.7926 18.2228C19.7086 18.5655 19.4528 18.7535 19.0785 18.7535L8.24813 18.7535C7.87383 18.7535 7.6255 18.5655 7.54155 18.2228L5.3025 9.03399Z"
                     fill="currentColor" fill-opacity="0.85" />
       </g>
</svg>