<?xml version="1.0" encoding="UTF-8"?>
<!--Generator: Apple Native CoreSVG 326-->
<!DOCTYPE svg PUBLIC "-//W3C//DTD SVG 1.1//EN" "http://www.w3.org/Graphics/SVG/1.1/DTD/svg11.dtd">
<svg version="1.1" xmlns="http://www.w3.org/2000/svg" xmlns:xlink="http://www.w3.org/1999/xlink"
       viewBox="0 0 19.3993 19.0529">
       <g>
              <rect height="19.0529" opacity="0" width="19.3993" x="0" y="0" />
              <path d="M19.0379 3.63912L19.0379 15.4011C19.0379 17.7262 17.7164 19.0379 15.3896 19.0379L3.64834 19.0379C1.32382 19.0379 0 17.7262 0 15.4011L0 3.63912C0 1.32151 1.32382 0 3.64834 0L15.3896 0C17.7164 0 19.0379 1.32151 19.0379 3.63912ZM5.56022 9.53592C5.56022 12.1777 7.01002 13.9805 9.72935 13.9805C11.1954 13.9805 12.6642 13.3651 13.1903 12.1265C13.2415 11.9778 13.3109 11.7687 13.3109 11.5901C13.3109 11.0515 12.8872 10.7466 12.3411 10.7466C11.8794 10.7466 11.5865 10.9797 11.377 11.3921C11.0845 12.0748 10.5815 12.4036 9.96822 12.4627L9.96822 11.4064C9.96822 10.7949 10.269 10.3495 10.7537 10.1555C11.0018 9.98393 11.2677 9.89616 11.5547 9.89616C11.7844 9.89616 11.8839 9.8978 12.0032 9.81779C12.1375 9.78037 12.231 9.69072 12.1936 9.4783C12.1561 9.30088 11.9442 9.2119 11.7362 9.17459C10.8827 9.09999 10.2204 9.48897 9.99291 10.2454L9.94353 10.2454L9.94353 9.521C9.94353 9.31592 9.8315 9.18436 9.63388 9.18436C9.43626 9.18436 9.31447 9.31592 9.31447 9.521L9.31447 12.4265C8.15836 12.1484 7.79273 10.8087 7.79273 9.52846C7.79273 8.1304 8.35598 6.83988 9.85103 6.83988C10.5625 6.83988 11.1149 7.16184 11.3878 7.79346C11.6123 8.23048 11.8581 8.40912 12.345 8.40912C12.8515 8.40912 13.2523 8.10705 13.2523 7.57073C13.2523 7.33417 13.1685 7.07116 13.0428 6.84546C12.4001 5.61378 11.0198 5.09365 9.65475 5.09365C7.17943 5.09365 5.56022 6.77929 5.56022 9.53592Z"
                     fill="currentColor" fill-opacity="0.85" />
       </g>
</svg>