<?xml version="1.0" encoding="UTF-8"?>
<!--Generator: Apple Native CoreSVG 326-->
<!DOCTYPE svg PUBLIC "-//W3C//DTD SVG 1.1//EN" "http://www.w3.org/Graphics/SVG/1.1/DTD/svg11.dtd">
<svg version="1.1" xmlns="http://www.w3.org/2000/svg" xmlns:xlink="http://www.w3.org/1999/xlink"
       viewBox="0 0 21.365 21.006">
       <g>
              <rect height="21.006" opacity="0" width="21.365" x="0" y="0" />
              <path d="M10.4981 20.9962C16.302 20.9962 21.0037 16.2946 21.0037 10.4981C21.0037 4.70163 16.302 0 10.4981 0C4.70163 0 0 4.70163 0 10.4981C0 16.2946 4.70163 20.9962 10.4981 20.9962ZM10.4981 17.9484C6.37829 17.9484 3.04785 14.6179 3.04785 10.4981C3.04785 6.37829 6.37829 3.04785 10.4981 3.04785C14.6179 3.04785 17.9558 6.37829 17.9558 10.4981C17.9558 14.6179 14.6179 17.9484 10.4981 17.9484Z"
                     fill="currentColor" fill-opacity="0.85" />
              <path d="M10.5946 14.6786C11.967 14.6786 13.3445 14.1051 13.8339 12.9429C13.8948 12.8039 13.9493 12.6023 13.9493 12.4409C13.9493 11.927 13.5503 11.6444 13.0438 11.6444C12.6142 11.6444 12.3461 11.8701 12.1514 12.2578C11.8441 12.9727 11.302 13.2745 10.6192 13.2745C9.20571 13.2745 8.77336 11.8548 8.77336 10.505C8.77336 9.18794 9.30215 7.96863 10.7088 7.96863C11.3835 7.96863 11.8968 8.27852 12.16 8.87338C12.3644 9.28572 12.5929 9.45689 13.0477 9.45689C13.5123 9.45689 13.8959 9.16974 13.8959 8.67303C13.8959 8.4537 13.8167 8.20561 13.6984 7.99714C13.0953 6.83436 11.816 6.34869 10.5349 6.34869C8.21229 6.34869 6.69182 7.93096 6.69182 10.5125C6.69182 12.994 8.05033 14.6786 10.5946 14.6786ZM10.1992 13.5641L10.8185 13.5641L10.8185 12.2722C10.8185 11.6899 11.1072 11.2715 11.5701 11.0925C11.7935 10.9283 12.0444 10.848 12.3165 10.848C12.5267 10.848 12.6187 10.8497 12.7306 10.7794C12.85 10.742 12.9458 10.6472 12.9083 10.4572C12.8732 10.2872 12.6687 10.2057 12.4705 10.1758C11.6813 10.1012 11.0534 10.473 10.8357 11.1801L10.7938 11.1801L10.7938 10.4976C10.7938 10.3097 10.6869 10.1856 10.5088 10.1856C10.3187 10.1856 10.1992 10.3097 10.1992 10.4976Z"
                     fill="currentColor" fill-opacity="0.85" />
       </g>
</svg>