<?xml version="1.0" encoding="UTF-8"?>
<!--Generator: Apple Native CoreSVG 326-->
<!DOCTYPE svg PUBLIC "-//W3C//DTD SVG 1.1//EN" "http://www.w3.org/Graphics/SVG/1.1/DTD/svg11.dtd">
<svg version="1.1" xmlns="http://www.w3.org/2000/svg" xmlns:xlink="http://www.w3.org/1999/xlink"
       viewBox="0 0 22.6374 22.2784">
       <g>
              <rect height="22.2784" opacity="0" width="22.6374" x="0" y="0" />
              <path d="M11.1343 22.2687C17.2722 22.2687 22.2761 17.2722 22.2761 11.1343C22.2761 4.99648 17.2722 0 11.1343 0C4.99648 0 0 4.99648 0 11.1343C0 17.2722 4.99648 22.2687 11.1343 22.2687ZM11.1343 18.2927C7.17804 18.2927 3.97601 15.0906 3.97601 11.1343C3.97601 7.17573 7.17804 3.97601 11.1343 3.97601C15.0929 3.97601 18.3001 7.17573 18.3001 11.1343C18.3001 15.0906 15.0929 18.2927 11.1343 18.2927Z"
                     fill="currentColor" fill-opacity="0.85" />
              <path d="M11.2331 15.3148C12.6055 15.3148 13.983 14.7414 14.4747 13.5791C14.5333 13.4401 14.5878 13.2385 14.5878 13.0771C14.5878 12.5632 14.1888 12.2807 13.6823 12.2807C13.2527 12.2807 12.9846 12.5064 12.7899 12.894C12.4826 13.6089 11.9405 13.9107 11.2652 13.9107C9.84424 13.9107 9.41188 12.491 9.41188 11.1412C9.41188 9.82416 9.94068 8.60485 11.3473 8.60485C12.022 8.60485 12.5377 8.91474 12.7985 9.5096C13.0029 9.92194 13.2315 10.0931 13.6863 10.0931C14.1531 10.0931 14.5367 9.80596 14.5367 9.30925C14.5367 9.08992 14.4552 8.84183 14.3369 8.63336C13.7339 7.47058 12.4546 6.98491 11.1734 6.98491C8.85081 6.98491 7.33265 8.56718 7.33265 11.1487C7.33265 13.6303 8.68886 15.3148 11.2331 15.3148ZM10.8377 14.2004L11.457 14.2004L11.457 12.9084C11.457 12.3262 11.7532 11.9078 12.2086 11.7287C12.432 11.5646 12.6829 11.4843 12.955 11.4843C13.1676 11.4843 13.2572 11.4859 13.3691 11.4157C13.4885 11.3782 13.5843 11.2834 13.5469 11.0934C13.5117 10.9234 13.3072 10.8419 13.109 10.8121C12.3198 10.7375 11.6919 11.1092 11.4742 11.8163L11.4323 11.8163L11.4323 11.1338C11.4323 10.9459 11.3278 10.8218 11.1474 10.8218C10.9595 10.8218 10.8377 10.9459 10.8377 11.1338Z"
                     fill="currentColor" fill-opacity="0.85" />
       </g>
</svg>