<?xml version="1.0" encoding="UTF-8"?>
<!--Generator: Apple Native CoreSVG 326-->
<!DOCTYPE svg PUBLIC "-//W3C//DTD SVG 1.1//EN" "http://www.w3.org/Graphics/SVG/1.1/DTD/svg11.dtd">
<svg version="1.1" xmlns="http://www.w3.org/2000/svg" xmlns:xlink="http://www.w3.org/1999/xlink"
       viewBox="0 0 21.4158 23.4608">
       <g>
              <rect height="23.4608" opacity="0" width="21.4158" x="0" y="0" />
              <path d="M1.46393 18.651L9.05698 23.0358C9.98393 23.5803 11.0705 23.5803 11.9998 23.0358L19.5905 18.651C20.5025 18.1313 21.0544 17.1796 21.0544 16.108L21.0544 7.34305C21.0544 6.27138 20.5025 5.31975 19.5905 4.79768L11.9998 0.410066C11.0705-0.136689 9.98393-0.136689 9.05698 0.410066L1.46393 4.79768C0.55191 5.31975 0 6.27138 0 7.34305L0 16.108C0 17.1796 0.55191 18.1313 1.46393 18.651ZM9.05844 19.6419C8.96769 19.5902 8.95047 19.5805 8.86488 19.5316L3.41676 16.3784C3.11512 16.2008 2.93012 15.8992 2.93012 15.5487L2.93012 9.29982L9.05844 12.827ZM10.4836 10.2518L4.18685 6.63083C4.24314 6.58946 4.26267 6.57509 4.33564 6.53372L10.0492 3.23452C10.3508 3.04952 10.7036 3.04952 11.0053 3.23452L16.7211 6.53372C16.7918 6.57509 16.7964 6.582 16.8228 6.60099ZM11.996 19.6419L11.996 12.7748L18.1169 9.25506L18.1169 15.5487C18.1169 15.8992 17.9416 16.2008 17.64 16.3784L12.3451 19.4427C12.2079 19.5236 12.131 19.5707 11.996 19.6419Z"
                     fill="currentColor" fill-opacity="0.85" />
       </g>
</svg>