<?xml version="1.0" encoding="UTF-8"?>
<!--Generator: Apple Native CoreSVG 326-->
<!DOCTYPE svg PUBLIC "-//W3C//DTD SVG 1.1//EN" "http://www.w3.org/Graphics/SVG/1.1/DTD/svg11.dtd">
<svg version="1.1" xmlns="http://www.w3.org/2000/svg" xmlns:xlink="http://www.w3.org/1999/xlink"
       viewBox="0 0 21.4158 23.4608">
       <g>
              <rect height="23.4608" opacity="0" width="21.4158" x="0" y="0" />
              <path d="M10.4985 10.8715L20.1925 5.27213C20.0161 5.0935 19.818 4.92979 19.5905 4.79768L11.9998 0.410066C11.0705-0.136689 9.98393-0.136689 9.05698 0.410066L1.46393 4.79768C1.22901 4.93725 1.01077 5.10096 0.82468 5.28936ZM9.59615 12.5183L0.0298429 7.00799C0.00746071 7.14404 0 7.27494 0 7.41099L0 16.108C0 17.1796 0.55191 18.1313 1.46393 18.651L9.05698 23.0358C9.22924 23.1369 9.40666 23.2276 9.59615 23.2942ZM11.4956 12.4661L11.4956 23.2867C11.6828 23.2201 11.855 23.1317 12.0371 23.0283L19.6204 18.6436C20.5025 18.1387 21.0544 17.1647 21.0544 16.1005L21.0544 7.40122C21.0544 7.26517 21.0321 7.10443 21.0171 6.96838Z"
                     fill="currentColor" fill-opacity="0.85" />
       </g>
</svg>