<?xml version="1.0" encoding="UTF-8"?>
<!--Generator: Apple Native CoreSVG 326-->
<!DOCTYPE svg PUBLIC "-//W3C//DTD SVG 1.1//EN" "http://www.w3.org/Graphics/SVG/1.1/DTD/svg11.dtd">
<svg version="1.1" xmlns="http://www.w3.org/2000/svg" xmlns:xlink="http://www.w3.org/1999/xlink"
       viewBox="0 0 23.2783 22.0232">
       <g>
              <rect height="22.0232" opacity="0" width="23.2783" x="0" y="0" />
              <path d="M5.13745 8.14048C5.13745 8.37304 5.16204 8.59393 5.21517 8.80718C3.58337 9.19457 2.54962 9.78423 2.54962 10.4129C2.54962 11.4989 5.70501 12.491 9.64771 12.491C13.5956 12.491 16.751 11.4989 16.751 10.4129C16.751 9.66749 15.2942 8.97692 13.1155 8.61237C13.0495 8.45112 13.0229 8.28716 13.0229 8.0572C13.0229 7.52021 13.6421 6.9978 13.9715 6.19529C17.0962 6.83313 19.0636 8.21252 19.2707 10.0692C21.5455 10.1836 22.917 11.4893 22.917 13.5505C22.917 15.7372 21.4178 17.0606 18.933 17.0606L18.3563 17.0606C16.95 20.0869 14.0298 21.9889 10.1641 21.9889L9.1365 21.9889C3.59011 21.9889 0 18.0864 0 12.5733L0 10.4129C0 8.26228 2.26435 6.69227 5.93782 6.08038C5.60432 6.60851 5.13745 7.19355 5.13745 8.14048ZM9.64771 15.0407C6.74013 15.0407 4.31827 14.5797 2.62967 13.7647C3.05905 17.2083 5.41682 19.4393 9.1365 19.4393L10.1641 19.4393C13.8678 19.4393 16.2378 17.201 16.6702 13.7637C14.9804 14.5794 12.5564 15.0407 9.64771 15.0407ZM19.3006 12.5733C19.3006 13.3004 19.238 13.9995 19.1126 14.6632C20.0369 14.6181 20.5241 14.2165 20.5241 13.5505C20.5241 12.9372 20.1077 12.5546 19.3006 12.469ZM8.31061 8.14048L8.32038 8.37877C7.76487 8.40896 7.23481 8.45984 6.73892 8.52864C6.69482 8.39289 6.67654 8.24769 6.67654 8.0572C6.67654 7.44953 7.4695 6.86052 7.73802 5.86349C8.22835 5.82305 8.74074 5.80024 9.27552 5.79768C8.96122 6.40911 8.31061 7.02263 8.31061 8.14048ZM12.3688 5.94199C12.0363 6.50849 11.4838 7.11034 11.4838 8.14048C11.4838 8.23414 11.4878 8.32591 11.4965 8.41585C10.979 8.37123 10.4337 8.34621 9.86881 8.34332C9.85555 8.2583 9.8497 8.165 9.8497 8.0572C9.8497 7.44166 10.6633 6.84525 10.921 5.82422C11.4261 5.84541 11.9098 5.88452 12.3688 5.94199Z"
                     fill="currentColor" fill-opacity="0.85" />
              <path d="M7.82888 5.19587C7.82888 3.78228 6.67654 3.06939 6.67654 2.3397C6.67654 1.88872 6.78111 1.68474 7.09076 1.2579C7.73626 0.394157 6.50154-0.499429 5.85374 0.329861C5.3626 0.953102 5.13745 1.5499 5.13745 2.25642C5.13745 3.73376 6.27026 4.32091 6.27026 5.19587C6.27026 6.06853 5.13745 6.66545 5.13745 8.14048C5.13745 8.84415 5.3626 9.44095 5.85143 10.0619C6.49924 10.8963 7.73626 10.0027 7.08845 9.139C6.78111 8.70931 6.67654 8.51279 6.67654 8.0572C6.67654 7.32466 7.82888 6.61923 7.82888 5.19587ZM11.002 5.19587C11.002 3.78228 9.8497 3.06939 9.8497 2.3397C9.8497 1.88872 9.95427 1.68474 10.2639 1.2579C10.9094 0.394157 9.6747-0.499429 9.0269 0.329861C8.53576 0.953102 8.31061 1.5499 8.31061 2.25642C8.31061 3.73376 9.44342 4.32091 9.44342 5.19587C9.44342 6.06853 8.31061 6.66545 8.31061 8.14048C8.31061 8.84415 8.53576 9.44095 9.02459 10.0619C9.6724 10.8963 10.9094 10.0027 10.2616 9.139C9.95427 8.70931 9.8497 8.51279 9.8497 8.0572C9.8497 7.32466 11.002 6.61923 11.002 5.19587ZM14.1752 5.19587C14.1752 3.78228 13.0229 3.06939 13.0229 2.3397C13.0229 1.88872 13.1274 1.68474 13.4371 1.2579C14.0826 0.394157 12.8479-0.499429 12.2001 0.329861C11.7089 0.953102 11.4838 1.5499 11.4838 2.25642C11.4838 3.73376 12.6166 4.32091 12.6166 5.19587C12.6166 6.06853 11.4838 6.66545 11.4838 8.14048C11.4838 8.84415 11.7089 9.44095 12.1978 10.0619C12.8456 10.8963 14.0826 10.0027 13.4348 9.139C13.1274 8.70931 13.0229 8.51279 13.0229 8.0572C13.0229 7.32466 14.1752 6.61923 14.1752 5.19587Z"
                     fill="currentColor" fill-opacity="0.85" />
       </g>
</svg>