<?xml version="1.0" encoding="UTF-8"?>
<!--Generator: Apple Native CoreSVG 326-->
<!DOCTYPE svg PUBLIC "-//W3C//DTD SVG 1.1//EN" "http://www.w3.org/Graphics/SVG/1.1/DTD/svg11.dtd">
<svg version="1.1" xmlns="http://www.w3.org/2000/svg" xmlns:xlink="http://www.w3.org/1999/xlink"
       viewBox="0 0 19.3993 19.0529">
       <g>
              <rect height="19.0529" opacity="0" width="19.3993" x="0" y="0" />
              <path d="M19.0379 3.63912L19.0379 15.4011C19.0379 17.7262 17.7164 19.0379 15.3896 19.0379L3.64834 19.0379C1.32382 19.0379 0 17.7262 0 15.4011L0 3.63912C0 1.32151 1.32382 0 3.64834 0L15.3896 0C17.7164 0 19.0379 1.32151 19.0379 3.63912ZM5.1548 6.78681L5.1548 7.7906C5.1548 8.22229 5.02378 8.32347 4.75701 8.39073C3.60898 8.68995 3.60898 10.3727 4.75701 10.6868C5.02378 10.7489 5.1548 10.8799 5.1548 11.3042L5.1548 12.293C5.1548 13.9548 6.04741 14.9002 7.56897 14.9002C8.35349 14.9002 8.85943 14.5051 8.85943 13.901C8.85943 13.3192 8.48954 12.9436 7.95486 12.9436C7.45032 12.9436 7.24864 12.6731 7.24864 12.1563L7.24864 11.1002C7.24864 10.4652 6.94634 9.92632 6.404 9.56116C6.94634 9.22493 7.24864 8.66992 7.24864 7.96244L7.24864 6.92353C7.24864 6.4068 7.45032 6.13391 7.95486 6.13391C8.48954 6.13391 8.85943 5.76063 8.85943 5.17888C8.85943 4.56728 8.36095 4.16986 7.56897 4.16986C6.04741 4.16986 5.1548 5.11755 5.1548 6.78681ZM10.2078 5.17888C10.2078 5.76063 10.5777 6.13391 11.1124 6.13391C11.6169 6.13391 11.8186 6.4068 11.8186 6.92353L11.8186 7.96244C11.8186 8.66992 12.1209 9.22493 12.6632 9.56116C12.1209 9.92632 11.8186 10.4652 11.8186 11.1002L11.8186 12.1563C11.8186 12.6731 11.6169 12.9436 11.1124 12.9436C10.5777 12.9436 10.2078 13.3192 10.2078 13.901C10.2078 14.5051 10.7137 14.9002 11.4983 14.9002C13.0198 14.9002 13.9124 13.9548 13.9124 12.293L13.9124 11.3042C13.9124 10.8799 14.0435 10.7489 14.3102 10.6868C15.4732 10.4123 15.4732 8.66526 14.3102 8.39073C14.0435 8.32347 13.9124 8.22229 13.9124 7.7906L13.9124 6.78681C13.9124 5.11755 13.0198 4.16986 11.4983 4.16986C10.6988 4.16986 10.2078 4.56728 10.2078 5.17888Z"
                     fill="currentColor" fill-opacity="0.85" />
       </g>
</svg>