<?xml version="1.0" encoding="UTF-8"?>
<!--Generator: Apple Native CoreSVG 326-->
<!DOCTYPE svg PUBLIC "-//W3C//DTD SVG 1.1//EN" "http://www.w3.org/Graphics/SVG/1.1/DTD/svg11.dtd">
<svg version="1.1" xmlns="http://www.w3.org/2000/svg" xmlns:xlink="http://www.w3.org/1999/xlink"
       viewBox="0 0 19.3993 19.0529">
       <g>
              <rect height="19.0529" opacity="0" width="19.3993" x="0" y="0" />
              <path d="M3.64834 19.0379L15.3896 19.0379C17.7164 19.0379 19.0379 17.7262 19.0379 15.4011L19.0379 3.63912C19.0379 1.32151 17.7164 0 15.3896 0L3.64834 0C1.32382 0 0 1.32151 0 3.63912L0 15.4011C0 17.7262 1.32382 19.0379 3.64834 19.0379ZM4.05583 16.0183C3.37024 16.0183 3.01964 15.7096 3.01964 14.9775L3.01964 4.07021C3.01964 3.33809 3.37024 3.0271 4.05583 3.0271L14.9821 3.0271C15.6654 3.0271 16.0183 3.33809 16.0183 4.07021L16.0183 14.9775C16.0183 15.7096 15.6654 16.0183 14.9821 16.0183Z"
                     fill="currentColor" fill-opacity="0.85" />
              <path d="M7.61264 14.5701C8.34033 14.5701 8.81181 14.2071 8.81181 13.6351C8.81181 13.0953 8.46892 12.7369 7.96639 12.7369C7.4963 12.7369 7.30439 12.4836 7.30439 11.9938L7.30439 11.0066C7.30439 10.0852 6.63298 9.39077 5.50557 9.15015L5.50557 9.88033C6.63298 9.76138 7.30439 9.07439 7.30439 8.05604L7.30439 7.07856C7.30439 6.58883 7.4963 6.33316 7.96639 6.33316C8.46892 6.33316 8.81181 5.98457 8.81181 5.44473C8.81181 4.87275 8.35525 4.50747 7.61264 4.50747C6.18237 4.50747 5.34889 5.39087 5.34889 6.94931L5.34889 7.89396C5.34889 8.30612 5.2351 8.40499 4.9758 8.4648C3.89436 8.75425 3.89667 10.3158 4.9758 10.6053C5.2351 10.6749 5.34889 10.7887 5.34889 11.2008L5.34889 12.1231C5.34889 13.6815 6.18237 14.5701 7.61264 14.5701ZM11.2905 14.5701C12.7184 14.5701 13.5542 13.6815 13.5542 12.1231L13.5542 11.2008C13.5542 10.7887 13.668 10.6749 13.925 10.6053C15.0214 10.348 15.0214 8.7221 13.925 8.4648C13.668 8.40499 13.5542 8.30612 13.5542 7.89396L13.5542 6.94931C13.5542 5.39087 12.7184 4.50747 11.2905 4.50747C10.5478 4.50747 10.089 4.87275 10.089 5.44473C10.089 5.98457 10.4342 6.33316 10.9367 6.33316C11.4045 6.33316 11.5987 6.58883 11.5987 7.07856L11.5987 8.05604C11.5987 9.07439 12.2701 9.76138 13.3952 9.88033L13.3952 9.15015C12.2701 9.39077 11.5987 10.0852 11.5987 11.0066L11.5987 11.9938C11.5987 12.4836 11.4045 12.7369 10.9367 12.7369C10.4342 12.7369 10.089 13.0953 10.089 13.6351C10.089 14.2071 10.5628 14.5701 11.2905 14.5701Z"
                     fill="currentColor" fill-opacity="0.85" />
       </g>
</svg>