<?xml version="1.0" encoding="UTF-8"?>
<!--Generator: Apple Native CoreSVG 326-->
<!DOCTYPE svg PUBLIC "-//W3C//DTD SVG 1.1//EN" "http://www.w3.org/Graphics/SVG/1.1/DTD/svg11.dtd">
<svg version="1.1" xmlns="http://www.w3.org/2000/svg" xmlns:xlink="http://www.w3.org/1999/xlink"
       viewBox="0 0 27.0098 22.9529">
       <g>
              <rect height="22.9529" opacity="0" width="27.0098" x="0" y="0" />
              <path d="M3.45697 0.776761L4.17056 0.776761C4.14252 0.879537 4.12807 0.990638 4.12807 1.10831L4.12807 3.79641L3.46443 3.79641C3.11354 4.14633 2.6178 4.36469 2.08069 4.36469C0.937258 4.36469 0 3.42743 0 2.2817C0 1.14573 0.937258 0.215936 2.08069 0.215936C2.61033 0.215936 3.10608 0.436602 3.45697 0.776761ZM26.6485 2.2817C26.6485 3.42743 25.7187 4.36469 24.5827 4.36469C24.0456 4.36469 23.5424 4.14633 23.184 3.79641L22.5204 3.79641L22.5204 1.10831C22.5204 0.990638 22.5062 0.879538 22.4785 0.776761L23.1989 0.776761C23.5573 0.436602 24.0456 0.215936 24.5827 0.215936C25.7187 0.215936 26.6485 1.14573 26.6485 2.2817ZM18.2557 1.10831L18.2557 3.79641L8.3928 3.79641L8.3928 1.10831C8.3928 0.990638 8.37859 0.879538 8.351 0.776761L18.2981 0.776761C18.2701 0.879537 18.2557 0.990638 18.2557 1.10831Z"
                     fill="currentColor" fill-opacity="0.85" />
              <path d="M5.23923 22.2033L7.29656 22.2033C7.95062 22.2033 8.3928 21.7536 8.3928 21.0973L8.3928 1.10831C8.3928 0.451949 7.95062 0 7.30402 0L5.23177 0C4.57771 0 4.12807 0.451949 4.12807 1.10831L4.12807 21.0973C4.12807 21.7536 4.58517 22.2033 5.23923 22.2033ZM19.3519 22.2033L21.4167 22.2033C22.0707 22.2033 22.5204 21.7536 22.5204 21.0973L22.5204 1.10831C22.5204 0.451949 22.0782 0 21.4241 0L19.3519 0C18.7053 0 18.2557 0.451949 18.2557 1.10831L18.2557 21.0973C18.2557 21.7536 18.6978 22.2033 19.3519 22.2033Z"
                     fill="currentColor" fill-opacity="0.85" />
       </g>
</svg>