<?xml version="1.0" encoding="UTF-8"?>
<!--Generator: Apple Native CoreSVG 326-->
<!DOCTYPE svg PUBLIC "-//W3C//DTD SVG 1.1//EN" "http://www.w3.org/Graphics/SVG/1.1/DTD/svg11.dtd">
<svg version="1.1" xmlns="http://www.w3.org/2000/svg" xmlns:xlink="http://www.w3.org/1999/xlink"
       viewBox="0 0 18.4414 21.7894">
       <g>
              <rect height="21.7894" opacity="0" width="18.4414" x="0" y="0" />
              <path d="M9.04006 15.7105C12.4396 15.7105 15.6365 14.7993 17.4377 13.3396L16.3173 11.168C14.8031 12.3302 12.0335 13.0496 9.04006 13.0496C6.05408 13.0496 3.27701 12.3302 1.76279 11.168L0.642409 13.3396C2.45111 14.7993 5.64053 15.7105 9.04006 15.7105ZM9.04006 21.755C14.5118 21.755 18.0801 19.5821 18.0801 16.3645L18.0801 4.854L15.3067 4.854L15.3067 16.3645C15.3067 17.7683 13.1692 19.0941 9.04006 19.0941C4.91096 19.0941 2.77344 17.7683 2.77344 16.3645L2.77344 4.854L0 4.854L0 16.3645C0 19.5821 3.56827 21.755 9.04006 21.755ZM9.04006 9.7057C14.482 9.7057 18.0801 7.7775 18.0801 4.854C18.0801 1.9305 14.482 0 9.04006 0C3.60558 0 0 1.9305 0 4.854C0 7.7775 3.60558 9.7057 9.04006 9.7057ZM9.04006 7.04484C5.40337 7.04484 2.77344 6.098 2.77344 4.854C2.77344 3.52673 5.37352 2.54082 9.04006 2.54082C12.7066 2.54082 15.3067 3.52673 15.3067 4.854C15.3067 6.098 12.6842 7.04484 9.04006 7.04484Z"
                     fill="currentColor" fill-opacity="0.85" />
       </g>
</svg>