<?xml version="1.0" encoding="UTF-8"?>
<!--Generator: Apple Native CoreSVG 326-->
<!DOCTYPE svg PUBLIC "-//W3C//DTD SVG 1.1//EN" "http://www.w3.org/Graphics/SVG/1.1/DTD/svg11.dtd">
<svg version="1.1" xmlns="http://www.w3.org/2000/svg" xmlns:xlink="http://www.w3.org/1999/xlink"
       viewBox="0 0 21.365 21.006">
       <g>
              <rect height="21.006" opacity="0" width="21.365" x="0" y="0" />
              <path d="M10.4981 20.9962C16.302 20.9962 21.0037 16.2946 21.0037 10.4981C21.0037 4.70163 16.302 0 10.4981 0C4.70163 0 0 4.70163 0 10.4981C0 16.2946 4.70163 20.9962 10.4981 20.9962ZM10.4981 17.9484C6.37829 17.9484 3.04785 14.6179 3.04785 10.4981C3.04785 6.37829 6.37829 3.04785 10.4981 3.04785C14.6179 3.04785 17.9558 6.37829 17.9558 10.4981C17.9558 14.6179 14.6179 17.9484 10.4981 17.9484Z"
                     fill="currentColor" fill-opacity="0.85" />
              <path d="M8.2058 14.8014L10.5916 14.8014C13.2606 14.8014 14.7708 13.2492 14.7708 10.4854C14.7708 7.72334 13.2652 6.17345 10.5916 6.17345L8.2058 6.17345C7.17058 6.17345 6.63832 6.73392 6.63832 7.78351L6.63832 13.1913C6.63832 14.2409 7.15566 14.8014 8.2058 14.8014ZM9.32848 12.7175L9.32848 8.25729L10.1248 8.25729C11.3502 8.25729 11.9102 8.94993 11.9102 10.4923C11.9102 12.0513 11.3525 12.7175 10.1248 12.7175Z"
                     fill="currentColor" fill-opacity="0.85" />
       </g>
</svg>