<?xml version="1.0" encoding="UTF-8"?>
<!--Generator: Apple Native CoreSVG 326-->
<!DOCTYPE svg PUBLIC "-//W3C//DTD SVG 1.1//EN" "http://www.w3.org/Graphics/SVG/1.1/DTD/svg11.dtd">
<svg version="1.1" xmlns="http://www.w3.org/2000/svg" xmlns:xlink="http://www.w3.org/1999/xlink"
       viewBox="0 0 24.6449 23.5952">
       <g>
              <rect height="23.5952" opacity="0" width="24.6449" x="0" y="0" />
              <path d="M13.7186 0.416404L22.6254 5.55167C23.136 5.85374 23.3841 6.25686 23.3841 6.69158C23.3841 7.28595 22.9074 7.89293 22.1092 7.89293L21.3244 7.89293L21.3244 19.392L21.7032 19.392C22.2379 19.392 22.5744 19.7159 22.5744 20.2632L22.5744 21.1701L23.0673 21.1701C23.7134 21.1701 24.2836 21.7231 24.2836 22.3766C24.2836 23.0525 23.7134 23.5854 23.0673 23.5854L1.20651 23.5854C0.553002 23.5854 0 23.045 0 22.3766C0 21.7231 0.553002 21.1701 1.20651 21.1701L1.94045 21.1701L1.94045 20.2632C1.94045 19.7159 2.27927 19.392 2.81396 19.392L3.19045 19.392L3.19045 7.89293L2.41314 7.89293C1.60745 7.89293 1.13081 7.28595 1.13081 6.69158C1.13081 6.25686 1.37659 5.85374 1.88944 5.55167L10.7963 0.416404C11.242 0.154491 11.7664 0 12.2563 0C12.7462 0 13.2683 0.154491 13.7186 0.416404ZM7.40416 9.72614L7.40416 15.6502C7.40416 16.1688 7.75846 16.5328 8.25747 16.5328C8.7668 16.5328 9.11594 16.1688 9.11594 15.6502L9.11594 14.7391L9.52622 14.3438L10.5241 15.9558C10.7062 16.2934 10.9669 16.5328 11.3711 16.5328C11.8161 16.5328 12.21 16.2107 12.21 15.7927C12.21 15.4843 12.1216 15.3373 11.9815 15.1231L10.8257 13.3733L11.909 12.2864C12.133 12.0527 12.2363 11.8626 12.2363 11.6243C12.2363 11.1937 11.9119 10.8767 11.4789 10.8767C11.1981 10.8767 10.9501 11.0168 10.7726 11.2287L9.14524 13.0336L9.11594 13.0336L9.11594 9.72845C9.11594 9.2099 8.7668 8.8533 8.25747 8.8533C7.75846 8.8533 7.40416 9.20759 7.40416 9.72614ZM14.8008 12.0221L14.7221 12.0221L14.7221 11.73C14.7221 11.2132 14.4298 10.8767 13.9647 10.8767C13.4875 10.8767 13.1729 11.2132 13.1729 11.73L13.1729 15.6502C13.1729 16.1688 13.503 16.5328 13.9843 16.5328C14.4453 16.5328 14.7985 16.1947 14.7985 15.6502L14.7985 13.4661C14.7985 12.9162 14.933 12.5195 15.5473 12.4897C15.8023 12.4897 16.0975 12.4403 16.2887 12.2778C16.4507 12.1498 16.5414 11.9356 16.5414 11.6801C16.5414 11.189 16.2875 10.8767 15.824 10.8767C15.2134 10.8767 14.8951 11.4241 14.8008 12.0221ZM16.0888 15.5898C16.0888 16.1221 16.4592 16.4977 17.0014 16.4977C17.524 16.4977 17.9019 16.1221 17.9019 15.5898C17.9019 15.0671 17.524 14.6967 17.0014 14.6967C16.4592 14.6967 16.0888 15.0671 16.0888 15.5898Z"
                     fill="currentColor" fill-opacity="0.85" />
       </g>
</svg>