<?xml version="1.0" encoding="UTF-8"?>
<!--Generator: Apple Native CoreSVG 326-->
<!DOCTYPE svg PUBLIC "-//W3C//DTD SVG 1.1//EN" "http://www.w3.org/Graphics/SVG/1.1/DTD/svg11.dtd">
<svg version="1.1" xmlns="http://www.w3.org/2000/svg" xmlns:xlink="http://www.w3.org/1999/xlink"
       viewBox="0 0 21.365 21.006">
       <g>
              <rect height="21.006" opacity="0" width="21.365" x="0" y="0" />
              <path d="M21.0037 10.4981C21.0037 16.2923 16.302 20.9962 10.4981 20.9962C4.70394 20.9962 0 16.2923 0 10.4981C0 4.70163 4.70394 0 10.4981 0C16.302 0 21.0037 4.70163 21.0037 10.4981ZM5.5211 7.17774L5.5211 13.2797C5.5211 13.8029 5.88746 14.1716 6.39109 14.1716C6.9171 14.1716 7.276 13.8029 7.276 13.2797L7.276 12.3289L7.6955 11.9243L8.73775 13.5899C8.92208 13.9298 9.17532 14.1716 9.5916 14.1716C10.0436 14.1716 10.4472 13.8471 10.4472 13.4222C10.4472 13.1041 10.3588 12.9547 10.2187 12.7383L9.01853 10.9325L10.1416 9.79383C10.3679 9.56012 10.4735 9.36778 10.4735 9.12486C10.4735 8.68443 10.1445 8.36283 9.69945 8.36283C9.41637 8.36283 9.15852 8.50295 8.98625 8.72689L7.29783 10.5929L7.276 10.5929L7.276 7.18004C7.276 6.64942 6.9171 6.27845 6.39109 6.27845C5.88746 6.27845 5.5211 6.64712 5.5211 7.17774ZM13.0967 9.53647L13.0232 9.53647L13.0232 9.23282C13.0232 8.71142 12.7188 8.36283 12.2491 8.36283C11.7599 8.36283 11.4406 8.71142 11.4406 9.23282L11.4406 13.2797C11.4406 13.8052 11.7753 14.1716 12.2687 14.1716C12.7343 14.1716 13.0921 13.8311 13.0921 13.2797L13.0921 11.0207C13.0921 10.4496 13.241 10.0391 13.8691 10.0092C14.1287 10.0092 14.4285 9.95985 14.6295 9.78759C14.7938 9.667 14.8845 9.44821 14.8845 9.1829C14.8845 8.68728 14.6185 8.36283 14.1505 8.36283C13.526 8.36283 13.191 8.92694 13.0967 9.53647ZM14.4273 13.2146C14.4273 13.7516 14.8023 14.1364 15.3514 14.1364C15.8884 14.1364 16.2783 13.7516 16.2783 13.2146C16.2783 12.6754 15.8884 12.2929 15.3514 12.2929C14.8023 12.2929 14.4273 12.6754 14.4273 13.2146Z"
                     fill="currentColor" fill-opacity="0.85" />
       </g>
</svg>