<?xml version="1.0" encoding="UTF-8"?>
<!--Generator: Apple Native CoreSVG 326-->
<!DOCTYPE svg PUBLIC "-//W3C//DTD SVG 1.1//EN" "http://www.w3.org/Graphics/SVG/1.1/DTD/svg11.dtd">
<svg version="1.1" xmlns="http://www.w3.org/2000/svg" xmlns:xlink="http://www.w3.org/1999/xlink"
       viewBox="0 0 21.365 21.006">
       <g>
              <rect height="21.006" opacity="0" width="21.365" x="0" y="0" />
              <path d="M10.4981 20.9962C16.302 20.9962 21.0037 16.2946 21.0037 10.4981C21.0037 4.70163 16.302 0 10.4981 0C4.70163 0 0 4.70163 0 10.4981C0 16.2946 4.70163 20.9962 10.4981 20.9962ZM10.4981 17.9484C6.37829 17.9484 3.04785 14.6179 3.04785 10.4981C3.04785 6.37829 6.37829 3.04785 10.4981 3.04785C14.6179 3.04785 17.9558 6.37829 17.9558 10.4981C17.9558 14.6179 14.6179 17.9484 10.4981 17.9484Z"
                     fill="currentColor" fill-opacity="0.85" />
              <path d="M6.6701 13.935C7.15651 13.935 7.49072 13.5962 7.49072 13.1L7.49072 12.1957L7.89299 11.8106L8.86919 13.393C9.04606 13.7082 9.28954 13.935 9.67598 13.935C10.0935 13.935 10.4673 13.6255 10.4673 13.2327C10.4673 12.9467 10.3863 12.7974 10.2611 12.5981L9.11958 10.8929L10.1864 9.81797C10.3954 9.59919 10.5011 9.41661 10.5011 9.18861C10.5011 8.78779 10.1892 8.48342 9.77636 8.48342C9.5082 8.48342 9.27504 8.61607 9.10278 8.81533L7.52002 10.5756L7.49072 10.5756L7.49072 7.36438C7.49072 6.86821 7.15651 6.52708 6.6701 6.52708C6.20093 6.52708 5.85695 6.8659 5.85695 7.36207L5.85695 13.1C5.85695 13.5962 6.20093 13.935 6.6701 13.935ZM12.1779 13.935C12.6063 13.935 12.9469 13.6244 12.9469 13.1L12.9469 10.9737C12.9469 10.437 13.086 10.0385 13.6773 10.0236C13.9197 10.0236 14.2046 9.96676 14.3809 9.81173C14.5451 9.69114 14.6359 9.49704 14.6359 9.24665C14.6359 8.78318 14.3774 8.48342 13.9363 8.48342C13.3537 8.48342 13.0434 9.01307 12.9515 9.58069L12.8779 9.58069L12.8779 9.29657C12.8779 8.80732 12.596 8.48342 12.1509 8.48342C11.7036 8.48342 11.4067 8.80732 11.4067 9.29657L11.4067 13.1C11.4067 13.5985 11.7191 13.935 12.1779 13.935ZM15.0631 13.8999C15.568 13.8999 15.9258 13.5398 15.9258 13.0372C15.9258 12.5375 15.568 12.1797 15.0631 12.1797C14.556 12.1797 14.1982 12.5375 14.1982 13.0372C14.1982 13.5398 14.556 13.8999 15.0631 13.8999Z"
                     fill="currentColor" fill-opacity="0.85" />
       </g>
</svg>