<?xml version="1.0" encoding="UTF-8"?>
<!--Generator: Apple Native CoreSVG 326-->
<!DOCTYPE svg PUBLIC "-//W3C//DTD SVG 1.1//EN" "http://www.w3.org/Graphics/SVG/1.1/DTD/svg11.dtd">
<svg version="1.1" xmlns="http://www.w3.org/2000/svg" xmlns:xlink="http://www.w3.org/1999/xlink"
       viewBox="0 0 24.6449 23.5952">
       <g>
              <rect height="23.5952" opacity="0" width="24.6449" x="0" y="0" />
              <path d="M1.94045 20.4256L22.5744 20.4256L22.5744 19.4355C22.5744 18.8957 22.2379 18.5718 21.7032 18.5718L21.3244 18.5718L21.3244 7.89293L22.1092 7.89293C22.9074 7.89293 23.3841 7.28595 23.3841 6.69158C23.3841 6.25686 23.136 5.85374 22.6254 5.55167L13.7186 0.416404C13.2683 0.154491 12.7462 0 12.2563 0C11.7664 0 11.242 0.154491 10.7963 0.416404L1.88944 5.55167C1.37659 5.85374 1.13081 6.25686 1.13081 6.69158C1.13081 7.28595 1.60745 7.89293 2.41314 7.89293L3.19045 7.89293L3.19045 18.5718L2.81396 18.5718C2.27927 18.5718 1.94045 18.8957 1.94045 19.4355ZM5.29922 18.5718L5.29922 6.39673L12.047 2.62732C12.1194 2.5888 12.1965 2.57212 12.2563 2.57212C12.331 2.57212 12.3931 2.5888 12.4679 2.62732L19.2157 6.39673L19.2157 18.5718ZM1.20651 23.5854L23.0673 23.5854C23.7134 23.5854 24.2836 23.0525 24.2836 22.3766C24.2836 21.7231 23.7134 21.1701 23.0673 21.1701L1.20651 21.1701C0.553002 21.1701 0 21.7231 0 22.3766C0 23.045 0.553002 23.5854 1.20651 23.5854Z"
                     fill="currentColor" fill-opacity="0.85" />
              <path d="M8.53419 14.9049C9.00621 14.9049 9.33582 14.5655 9.33582 14.0814L9.33582 13.2145L9.72887 12.8387L10.663 14.36C10.8376 14.6804 11.0736 14.9049 11.4531 14.9049C11.866 14.9049 12.2301 14.6 12.2301 14.2118C12.2301 13.9281 12.1566 13.7909 12.0239 13.5916L10.9267 11.9423L11.9538 10.9094C12.168 10.6929 12.2639 10.5201 12.2639 10.2944C12.2639 9.8907 11.9566 9.59609 11.5484 9.59609C11.29 9.59609 11.0591 9.72875 10.8892 9.9257L9.35766 11.6324L9.33582 11.6324L9.33582 8.51909C9.33582 8.03499 9.00621 7.69101 8.53419 7.69101C8.06962 7.69101 7.73771 8.02522 7.73771 8.51678L7.73771 14.0814C7.73771 14.5655 8.06962 14.9049 8.53419 14.9049ZM13.901 14.9049C14.3196 14.9049 14.6555 14.5891 14.6555 14.0814L14.6555 12.0276C14.6555 11.5025 14.7878 11.1201 15.3578 11.1052C15.5956 11.1052 15.8758 11.0558 16.0498 10.9008C16.2043 10.7825 16.2951 10.5907 16.2951 10.3426C16.2951 9.89355 16.0486 9.59609 15.6121 9.59609C15.0509 9.59609 14.7475 10.1091 14.6578 10.6652L14.5843 10.6652L14.5843 10.3926C14.5843 9.91769 14.3069 9.59609 13.874 9.59609C13.4336 9.59609 13.139 9.91769 13.139 10.3926L13.139 14.0814C13.139 14.5655 13.449 14.9049 13.901 14.9049ZM16.7154 14.8646C17.2133 14.8646 17.5591 14.5189 17.5591 14.0233C17.5591 13.5328 17.2133 13.1847 16.7154 13.1847C16.2175 13.1847 15.8694 13.5328 15.8694 14.0233C15.8694 14.5189 16.2175 14.8646 16.7154 14.8646Z"
                     fill="currentColor" fill-opacity="0.85" />
       </g>
</svg>