<?xml version="1.0" encoding="UTF-8"?>
<!--Generator: Apple Native CoreSVG 326-->
<!DOCTYPE svg PUBLIC "-//W3C//DTD SVG 1.1//EN" "http://www.w3.org/Graphics/SVG/1.1/DTD/svg11.dtd">
<svg version="1.1" xmlns="http://www.w3.org/2000/svg" xmlns:xlink="http://www.w3.org/1999/xlink"
       viewBox="0 0 25.9088 18.1026">
       <g>
              <rect height="18.1026" opacity="0" width="25.9088" x="0" y="0" />
              <path d="M14.6538 2.75852C15.3991 2.75852 15.9946 2.09591 15.9946 1.38041C15.9946 0.64253 15.4066 0 14.6538 0L1.33565 0C0.582845 0 0 0.620148 0 1.38041C0 2.11083 0.590305 2.75852 1.33565 2.75852ZM14.6538 7.86825C15.3991 7.86825 15.9946 7.20333 15.9946 6.48783C15.9946 5.74995 15.4066 5.10973 14.6538 5.10973L1.33565 5.10973C0.582845 5.10973 0 5.73503 0 6.48783C0 7.21825 0.590305 7.86825 1.33565 7.86825ZM14.6538 12.9831C15.3991 12.9831 15.9946 12.3131 15.9946 11.605C15.9946 10.8574 15.4066 10.2246 14.6538 10.2246L1.33565 10.2246C0.582845 10.2246 0 10.8425 0 11.605C0 12.3354 0.590305 12.9831 1.33565 12.9831ZM8.7981 18.0906C9.53598 18.0906 10.1314 17.4279 10.1314 16.7124C10.1314 15.9746 9.54344 15.332 8.7981 15.332L1.33565 15.332C0.582845 15.332 0 15.9522 0 16.7124C0 17.4429 0.590305 18.0906 1.33565 18.0906Z"
                     fill="currentColor" fill-opacity="0.85" />
              <path d="M23.7159 12.627C24.5728 13.1927 25.5498 12.8768 25.5475 11.8361L25.5475 6.27457C25.5498 5.20453 24.6021 4.8691 23.7159 5.47391L19.8418 8.11135C19.1733 8.56912 19.1388 9.56334 19.8418 10.0435Z"
                     fill="currentColor" fill-opacity="0.85" />
       </g>
</svg>