<?xml version="1.0" encoding="UTF-8"?>
<!--Generator: Apple Native CoreSVG 326-->
<!DOCTYPE svg PUBLIC "-//W3C//DTD SVG 1.1//EN" "http://www.w3.org/Graphics/SVG/1.1/DTD/svg11.dtd">
<svg version="1.1" xmlns="http://www.w3.org/2000/svg" xmlns:xlink="http://www.w3.org/1999/xlink"
       viewBox="0 0 21.2527 17.6386">
       <g>
              <rect height="17.6386" opacity="0" width="21.2527" x="0" y="0" />
              <path d="M11.1255 17.6093C12.5052 17.6093 13.286 16.7492 13.286 15.3696L13.286 10.5418L18.4915 10.5418C19.5985 10.5418 20.2978 9.89931 20.2978 8.89163C20.2978 7.88626 19.5985 7.24373 18.4915 7.24373L13.286 7.24373L13.286 3.47147L18.9783 3.47147C20.1375 3.47147 20.8913 2.78933 20.8913 1.72943C20.8913 0.676983 20.1375 0 18.9783 0L11.1255 0C9.739 0 8.97018 0.825651 8.97018 2.24434L8.97018 15.3696C8.97018 16.7618 9.73154 17.6093 11.1255 17.6093ZM3.29187 7.75603C5.14315 7.75603 6.58604 6.31314 6.58604 4.46932C6.58604 2.6255 5.14315 1.17515 3.29187 1.17515C1.45035 1.17515 0 2.6255 0 4.46932C0 6.31314 1.45035 7.75603 3.29187 7.75603ZM3.29187 5.75984C2.56502 5.75984 1.99619 5.19101 1.99619 4.46932C1.99619 3.74248 2.56502 3.17134 3.29187 3.17134C4.02101 3.17134 4.58238 3.74248 4.58238 4.46932C4.58238 5.19101 4.02101 5.75984 3.29187 5.75984Z"
                     fill="currentColor" fill-opacity="0.85" />
       </g>
</svg>