<?xml version="1.0" encoding="UTF-8"?>
<!--Generator: Apple Native CoreSVG 326-->
<!DOCTYPE svg PUBLIC "-//W3C//DTD SVG 1.1//EN" "http://www.w3.org/Graphics/SVG/1.1/DTD/svg11.dtd">
<svg version="1.1" xmlns="http://www.w3.org/2000/svg" xmlns:xlink="http://www.w3.org/1999/xlink"
       viewBox="0 0 24.1996 17.8624">
       <g>
              <rect height="17.8624" opacity="0" width="24.1996" x="0" y="0" />
              <path d="M16.5791 17.8624C19.9612 17.8624 22.6413 16.2259 23.5999 13.7512C23.7498 13.3613 23.8383 12.9489 23.8383 12.5567C23.8406 11.452 23.081 10.7199 21.9269 10.7199C21.0312 10.7199 20.5534 11.115 20.1263 12.0257C19.44 13.646 18.256 14.527 16.6611 14.527C14.1345 14.527 12.7051 12.3854 12.7051 8.85973C12.7051 5.40986 14.01 3.34464 16.4821 3.34464C18.1565 3.34464 19.3405 4.22172 20.0516 5.80236C20.5034 6.71196 21.0236 7.1007 21.9417 7.1007C23.0212 7.1007 23.7211 6.40595 23.7188 5.33628C23.7165 4.81949 23.5804 4.29985 23.3163 3.80259C22.1292 1.4438 19.6706 0.0166804 16.4746 0.0166804C11.4556 0.0166804 8.46674 3.32504 8.46674 8.91195C8.46674 14.5523 11.451 17.8624 16.5791 17.8624ZM3.29187 7.86794C5.14315 7.86794 6.58604 6.42506 6.58604 4.58123C6.58604 2.73741 5.14315 1.28706 3.29187 1.28706C1.45035 1.28706 0 2.73741 0 4.58123C0 6.42506 1.45035 7.86794 3.29187 7.86794ZM3.29187 5.87175C2.56502 5.87175 1.99619 5.30292 1.99619 4.58123C1.99619 3.85439 2.56502 3.28325 3.29187 3.28325C4.02101 3.28325 4.58238 3.85439 4.58238 4.58123C4.58238 5.30292 4.02101 5.87175 3.29187 5.87175Z"
                     fill="currentColor" fill-opacity="0.85" />
       </g>
</svg>