<?xml version="1.0" encoding="UTF-8"?>
<!--Generator: Apple Native CoreSVG 326-->
<!DOCTYPE svg PUBLIC "-//W3C//DTD SVG 1.1//EN" "http://www.w3.org/Graphics/SVG/1.1/DTD/svg11.dtd">
<svg version="1.1" xmlns="http://www.w3.org/2000/svg" xmlns:xlink="http://www.w3.org/1999/xlink"
       viewBox="0 0 24.6466 30.0291">
       <g>
              <rect height="30.0291" opacity="0" width="24.6466" x="0" y="0" />
              <path d="M14.6952 5.34046C14.2209 6.34026 13.7641 7.54713 13.7641 8.79725C13.7641 11.9449 15.9962 14.1609 19.2054 14.1609C19.7751 14.1609 20.3139 14.0912 20.813 13.9557L20.813 21.9959C20.813 23.6245 20.1582 24.7578 18.9585 25.2833L18.9585 26.6258C18.9585 27.3557 18.4371 27.8794 17.705 27.8794C16.9751 27.8794 16.4611 27.3557 16.4611 26.6258L16.4611 25.6235L7.82415 25.6235L7.82415 26.6258C7.82415 27.3557 7.31021 27.8794 6.58033 27.8794C5.85046 27.8794 5.32675 27.3557 5.32675 26.6258L5.32675 25.2826C4.12759 24.7567 3.47226 23.6237 3.47226 21.9959L3.47226 5.76287C3.47226 3.45448 4.80069 2.13758 7.11653 2.13758L16.4965 2.13758C15.838 3.17847 15.1734 4.30969 14.6952 5.34046ZM7.97585 20.942C7.49746 20.942 7.13219 21.3296 7.13219 21.8029C7.13219 22.2738 7.49746 22.654 7.97585 22.654L10.5549 22.654C11.0281 22.654 11.4009 22.2738 11.4009 21.8029C11.4009 21.3296 11.0281 20.942 10.5549 20.942ZM13.7304 20.942C13.2572 20.942 12.8844 21.3296 12.8844 21.8029C12.8844 22.2738 13.2572 22.654 13.7304 22.654L16.3094 22.654C16.7878 22.654 17.1531 22.2738 17.1531 21.8029C17.1531 21.3296 16.7878 20.942 16.3094 20.942ZM7.97585 18.3949C7.49746 18.3949 7.13219 18.7728 7.13219 19.246C7.13219 19.7267 7.49746 20.0972 7.97585 20.0972L10.5549 20.0972C11.0281 20.0972 11.4009 19.7267 11.4009 19.246C11.4009 18.7728 11.0281 18.3949 10.5549 18.3949ZM13.7304 18.3949C13.2572 18.3949 12.8844 18.7728 12.8844 19.246C12.8844 19.7267 13.2572 20.0972 13.7304 20.0972L16.3094 20.0972C16.7878 20.0972 17.1531 19.7267 17.1531 19.246C17.1531 18.7728 16.7878 18.3949 16.3094 18.3949ZM7.97585 15.8381C7.49746 15.8381 7.13219 16.2257 7.13219 16.6967C7.13219 17.1699 7.49746 17.5478 7.97585 17.5478L10.5549 17.5478C11.0281 17.5478 11.4009 17.1699 11.4009 16.6967C11.4009 16.2257 11.0281 15.8381 10.5549 15.8381ZM13.7304 15.8381C13.2572 15.8381 12.8844 16.2257 12.8844 16.6967C12.8844 17.1699 13.2572 17.5478 13.7304 17.5478L16.3094 17.5478C16.7878 17.5478 17.1531 17.1699 17.1531 16.6967C17.1531 16.2257 16.7878 15.8381 16.3094 15.8381ZM7.17883 7.18107C7.17883 8.07654 7.89566 8.8106 8.79628 8.8106C9.68944 8.8106 10.416 8.07654 10.416 7.18107C10.416 6.30514 9.68944 5.56592 8.79628 5.56592C7.89566 5.56592 7.17883 6.30514 7.17883 7.18107Z"
                     fill="currentColor" fill-opacity="0.85" />
              <path d="M19.2054 12.6216C21.565 12.6216 23.1021 11.0908 23.1021 8.79725C23.1021 7.8717 22.7522 6.90381 22.3129 5.97687C21.7293 4.75386 20.8836 3.38249 20.088 2.14971C19.8175 1.77358 19.5246 1.54679 19.2054 1.54679C18.8884 1.54679 18.5932 1.77358 18.325 2.14971C17.5145 3.38249 16.6665 4.76132 16.0978 5.98433C15.6608 6.91873 15.3109 7.8717 15.3109 8.79725C15.3109 11.0908 16.8457 12.6216 19.2054 12.6216Z"
                     fill="currentColor" fill-opacity="0.85" />
       </g>
</svg>