<?xml version="1.0" encoding="UTF-8"?>
<!--Generator: Apple Native CoreSVG 326-->
<!DOCTYPE svg PUBLIC "-//W3C//DTD SVG 1.1//EN" "http://www.w3.org/Graphics/SVG/1.1/DTD/svg11.dtd">
<svg version="1.1" xmlns="http://www.w3.org/2000/svg" xmlns:xlink="http://www.w3.org/1999/xlink"
       viewBox="0 0 24.6466 30.0291">
       <g>
              <rect height="30.0291" opacity="0" width="24.6466" x="0" y="0" />
              <path d="M14.784 5.15722L7.52402 5.15722C6.8448 5.15722 6.4919 5.4659 6.4919 6.19396L6.4919 21.5746C6.4919 22.2929 6.8448 22.6038 7.52402 22.6038L16.7613 22.6038C17.433 22.6038 17.7934 22.2929 17.7934 21.5746L17.7934 14.0005C18.2352 14.1078 18.7086 14.1609 19.2054 14.1609C19.7751 14.1609 20.3139 14.0912 20.813 13.9557L20.813 21.9959C20.813 23.6245 20.1582 24.7578 18.9585 25.2833L18.9585 26.6258C18.9585 27.3557 18.4371 27.8794 17.705 27.8794C16.9751 27.8794 16.4611 27.3557 16.4611 26.6258L16.4611 25.6235L7.82415 25.6235L7.82415 26.6258C7.82415 27.3557 7.31021 27.8794 6.58033 27.8794C5.85046 27.8794 5.32675 27.3557 5.32675 26.6258L5.32675 25.2826C4.12759 24.7567 3.47226 23.6237 3.47226 21.9959L3.47226 5.76287C3.47226 3.45448 4.80069 2.13758 7.11653 2.13758L16.4965 2.13758C15.8765 3.11756 15.2511 4.17779 14.784 5.15722ZM11.6069 20.6019C11.6069 21.0407 11.2663 21.3962 10.8178 21.3962L8.40123 21.3962C7.95499 21.3962 7.60694 21.0407 7.60694 20.6019C7.60694 20.1533 7.95499 19.7978 8.40123 19.7978L10.8178 19.7978C11.2663 19.7978 11.6069 20.1533 11.6069 20.6019ZM16.6784 20.6019C16.6784 21.0407 16.3303 21.3962 15.8841 21.3962L13.4675 21.3962C13.019 21.3962 12.6709 21.0407 12.6709 20.6019C12.6709 20.1533 13.019 19.7978 13.4675 19.7978L15.8841 19.7978C16.3303 19.7978 16.6784 20.1533 16.6784 20.6019ZM11.6069 18.2052C11.6069 18.6463 11.2663 18.9995 10.8178 18.9995L8.40123 18.9995C7.95499 18.9995 7.60694 18.6463 7.60694 18.2052C7.60694 17.7642 7.95499 17.411 8.40123 17.411L10.8178 17.411C11.2663 17.411 11.6069 17.7642 11.6069 18.2052ZM16.6784 18.2052C16.6784 18.6463 16.3303 18.9995 15.8841 18.9995L13.4675 18.9995C13.019 18.9995 12.6709 18.6463 12.6709 18.2052C12.6709 17.7642 13.019 17.411 13.4675 17.411L15.8841 17.411C16.3303 17.411 16.6784 17.7642 16.6784 18.2052ZM11.6069 15.8161C11.6069 16.2572 11.2663 16.6029 10.8178 16.6029L8.40123 16.6029C7.95499 16.6029 7.60694 16.2572 7.60694 15.8161C7.60694 15.3698 7.95499 15.0143 8.40123 15.0143L10.8178 15.0143C11.2663 15.0143 11.6069 15.3698 11.6069 15.8161ZM16.6784 15.8161C16.6784 16.2572 16.3303 16.6029 15.8841 16.6029L13.4675 16.6029C13.019 16.6029 12.6709 16.2572 12.6709 15.8161C12.6709 15.3698 13.019 15.0143 13.4675 15.0143L15.8841 15.0143C16.3303 15.0143 16.6784 15.3698 16.6784 15.8161ZM10.6507 7.8623C10.6507 8.70609 9.96604 9.39077 9.13948 9.39077C8.29569 9.39077 7.62077 8.70609 7.62077 7.8623C7.62077 7.0432 8.29569 6.36082 9.13948 6.36082C9.96604 6.36082 10.6507 7.0432 10.6507 7.8623Z"
                     fill="currentColor" fill-opacity="0.85" />
              <path d="M19.2054 12.6216C21.565 12.6216 23.1021 11.0908 23.1021 8.79725C23.1021 7.8717 22.7522 6.90381 22.3129 5.97687C21.7293 4.75386 20.8836 3.38249 20.088 2.14971C19.8175 1.77358 19.5246 1.54679 19.2054 1.54679C18.8884 1.54679 18.5932 1.77358 18.325 2.14971C17.5145 3.38249 16.6665 4.76132 16.0978 5.98433C15.6608 6.91873 15.3109 7.8717 15.3109 8.79725C15.3109 11.0908 16.8457 12.6216 19.2054 12.6216Z"
                     fill="currentColor" fill-opacity="0.85" />
       </g>
</svg>