<?xml version="1.0" encoding="UTF-8"?>
<!--Generator: Apple Native CoreSVG 326-->
<!DOCTYPE svg PUBLIC "-//W3C//DTD SVG 1.1//EN" "http://www.w3.org/Graphics/SVG/1.1/DTD/svg11.dtd">
<svg version="1.1" xmlns="http://www.w3.org/2000/svg" xmlns:xlink="http://www.w3.org/1999/xlink"
       viewBox="0 0 21.9106 19.0575">
       <g>
              <rect height="19.0575" opacity="0" width="21.9106" x="0" y="0" />
              <path d="M15.9397 1.74405L20.7441 7.28043C21.6945 8.38983 21.9106 8.8937 21.9106 9.53131C21.9106 10.1741 21.6796 10.6952 20.7441 11.7971L15.9374 17.3117C14.8083 18.6439 13.9563 19.0552 12.1124 19.0552L3.78506 19.0575C1.45538 19.0575 0.129258 18.0591 0.129258 15.7392L0.129258 3.65865C0.129258 1.33128 1.45538 0.0195312 3.78506 0.0195312L12.1073 0.0195312C13.9511 0.0195312 14.8181 0.424411 15.9397 1.74405ZM11.212 5.72326L9.18406 7.73911L7.16821 5.72557C6.90751 5.46717 6.61236 5.34944 6.21616 5.34944C5.49089 5.34944 4.93789 5.90244 4.93789 6.63517C4.93789 6.95446 5.0757 7.27661 5.32894 7.51492L7.36255 9.56576L5.32894 11.6068C5.0757 11.8452 4.93789 12.1673 4.93789 12.4866C4.93789 13.2291 5.49089 13.7844 6.21616 13.7844C6.61236 13.7844 6.92189 13.6592 7.17513 13.4083L9.18406 11.3999L11.2027 13.4083C11.4537 13.6592 11.7655 13.7844 12.1594 13.7844C12.887 13.7844 13.4423 13.2291 13.4423 12.4866C13.4423 12.165 13.3045 11.8429 13.0512 11.6045L11.0228 9.56576L13.0535 7.51262C13.3091 7.26969 13.4446 6.95216 13.4446 6.63056C13.4446 5.90014 12.8893 5.33737 12.164 5.33737C11.7724 5.33737 11.475 5.46026 11.212 5.72326Z"
                     fill="currentColor" fill-opacity="0.85" />
       </g>
</svg>