<?xml version="1.0" encoding="UTF-8"?>
<!--Generator: Apple Native CoreSVG 326-->
<!DOCTYPE svg PUBLIC "-//W3C//DTD SVG 1.1//EN" "http://www.w3.org/Graphics/SVG/1.1/DTD/svg11.dtd">
<svg version="1.1" xmlns="http://www.w3.org/2000/svg" xmlns:xlink="http://www.w3.org/1999/xlink"
       viewBox="0 0 21.9106 19.0575">
       <g>
              <rect height="19.0575" opacity="0" width="21.9106" x="0" y="0" />
              <path d="M3.78506 19.0575L12.1124 19.0552C13.9563 19.0552 14.8083 18.6439 15.9374 17.3117L20.7441 11.7971C21.6796 10.6952 21.9106 10.1741 21.9106 9.53131C21.9106 8.8937 21.6945 8.38983 20.7441 7.28043L15.9397 1.74405C14.8181 0.424411 13.9511 0.0195312 12.1073 0.0195312L3.78506 0.0195312C1.45538 0.0195312 0.129258 1.33128 0.129258 3.65865L0.129258 15.7392C0.129258 18.0591 1.45538 19.0575 3.78506 19.0575ZM4.19485 16.0378C3.5018 16.0378 3.1489 15.7217 3.1489 14.9896L3.1489 4.07997C3.1489 3.34785 3.5018 3.03918 4.19485 3.03918L12.3604 3.03918C12.8541 3.03918 13.2155 3.16613 13.5793 3.58672L18.3596 9.08173C18.5177 9.25193 18.5677 9.38186 18.5677 9.53131C18.5677 9.671 18.5125 9.83077 18.3596 9.98605L13.5769 15.4541C13.2109 15.877 12.8541 16.0378 12.3506 16.0378Z"
                     fill="currentColor" fill-opacity="0.85" />
              <path d="M6.35154 13.56C6.7179 13.56 7.00274 13.4498 7.24622 13.204L9.18175 11.2713L11.1294 13.204C11.3654 13.4474 11.6554 13.56 12.0217 13.56C12.6999 13.56 13.2133 13.042 13.2133 12.3587C13.2133 12.052 13.083 11.7545 12.8521 11.526L10.8993 9.56576L12.8544 7.59347C13.0876 7.36031 13.2156 7.06746 13.2156 6.77055C13.2156 6.0849 12.7022 5.56404 12.024 5.56404C11.6623 5.56404 11.3844 5.66971 11.1437 5.91779L9.18175 7.86024L7.23415 5.92009C6.99813 5.68178 6.7179 5.56865 6.35154 5.56865C5.67565 5.56865 5.15995 6.0872 5.15995 6.77286C5.15995 7.06977 5.29261 7.36723 5.52116 7.59578L7.48138 9.56576L5.52116 11.5283C5.29261 11.7545 5.15995 12.0543 5.15995 12.3587C5.15995 13.042 5.67565 13.56 6.35154 13.56Z"
                     fill="currentColor" fill-opacity="0.85" />
       </g>
</svg>