<?xml version="1.0" encoding="UTF-8"?>
<!--Generator: Apple Native CoreSVG 326-->
<!DOCTYPE svg PUBLIC "-//W3C//DTD SVG 1.1//EN" "http://www.w3.org/Graphics/SVG/1.1/DTD/svg11.dtd">
<svg version="1.1" xmlns="http://www.w3.org/2000/svg" xmlns:xlink="http://www.w3.org/1999/xlink"
       viewBox="0 0 22.6482 19.0575">
       <g>
              <rect height="19.0575" opacity="0" width="22.6482" x="0" y="0" />
              <path d="M21.7813 3.65865L21.7813 15.7392C21.7813 18.0591 20.4575 19.0575 18.133 19.0575L9.80566 19.0552C7.96177 19.0552 7.11204 18.6439 5.98069 17.3117L1.17394 11.7971C0.238439 10.6952 0 10.1741 0 9.53131C0 8.8937 0.218362 8.38983 1.17394 7.28043L5.97092 1.74405C7.09997 0.424411 7.96693 0.0195312 9.81081 0.0195312L18.133 0.0195312C20.4575 0.0195312 21.7813 1.33128 21.7813 3.65865ZM14.774 5.72326L12.7461 7.73911L10.7302 5.72557C10.4695 5.46717 10.1669 5.34944 9.77818 5.34944C9.05292 5.34944 8.49761 5.90244 8.49761 6.63517C8.49761 6.95446 8.63773 7.27661 8.8812 7.51492L10.9246 9.56576L8.8812 11.6068C8.63773 11.8452 8.49761 12.1673 8.49761 12.4866C8.49761 13.2291 9.05292 13.7844 9.77818 13.7844C10.1669 13.7844 10.4765 13.6592 10.7372 13.4083L12.7461 11.3999L14.7573 13.4083C15.0157 13.6592 15.3252 13.7844 15.714 13.7844C16.4416 13.7844 17.002 13.2291 17.002 12.4866C17.002 12.165 16.8665 11.8429 16.611 11.6045L14.5848 9.56576L16.6133 7.51262C16.8711 7.26969 17.0043 6.95216 17.0043 6.63056C17.0043 5.90014 16.4439 5.33737 15.7261 5.33737C15.3322 5.33737 15.037 5.46026 14.774 5.72326Z"
                     fill="currentColor" fill-opacity="0.85" />
       </g>
</svg>