<?xml version="1.0" encoding="UTF-8"?>
<!--Generator: Apple Native CoreSVG 326-->
<!DOCTYPE svg PUBLIC "-//W3C//DTD SVG 1.1//EN" "http://www.w3.org/Graphics/SVG/1.1/DTD/svg11.dtd">
<svg version="1.1" xmlns="http://www.w3.org/2000/svg" xmlns:xlink="http://www.w3.org/1999/xlink"
       viewBox="0 0 25.4331 22.0325">
       <g>
              <rect height="22.0325" opacity="0" width="25.4331" x="0" y="0" />
              <path d="M3.22321 13.0803C2.96754 13.0803 2.84805 12.9803 2.84805 12.7051L2.84805 3.6976C2.84805 3.32529 3.06926 3.10638 3.4318 3.10638L21.64 3.10638C22.0026 3.10638 22.2238 3.32529 22.2238 3.6976L22.2238 12.7051C22.2238 12.9803 22.0945 13.0803 21.8463 13.0803Z"
                     fill="currentColor" fill-opacity="0.2125" />
              <path d="M3.04439 18.2971L22.0251 18.2971C23.9387 18.2971 25.0718 17.164 25.0718 15.2505L25.0718 3.30272C25.0718 1.39661 23.9387 0.265794 22.0251 0.265794L3.04439 0.265794C1.13312 0.265794 0 1.39661 0 3.30272L0 15.2505C0 17.164 1.13312 18.2971 3.04439 18.2971ZM3.22321 13.0803C2.96754 13.0803 2.84805 12.9803 2.84805 12.7051L2.84805 3.6976C2.84805 3.32529 3.06926 3.10638 3.4318 3.10638L21.64 3.10638C22.0026 3.10638 22.2238 3.32529 22.2238 3.6976L22.2238 12.7051C22.2238 12.9803 22.0945 13.0803 21.8463 13.0803ZM9.03217 20.2334L16.0396 20.2334L16.0396 17.8643L9.03217 17.8643ZM9.01834 22.0325L16.0535 22.0325C16.7219 22.0325 17.2525 21.4646 17.2525 20.8386C17.2525 20.2127 16.7219 19.6522 16.0535 19.6522L9.01834 19.6522C8.34991 19.6522 7.81699 20.2127 7.81699 20.8386C7.81699 21.4646 8.34991 22.0325 9.01834 22.0325Z"
                     fill="currentColor" fill-opacity="0.85" />
       </g>
</svg>