<?xml version="1.0" encoding="UTF-8"?>
<!--Generator: Apple Native CoreSVG 326-->
<!DOCTYPE svg PUBLIC "-//W3C//DTD SVG 1.1//EN" "http://www.w3.org/Graphics/SVG/1.1/DTD/svg11.dtd">
<svg version="1.1" xmlns="http://www.w3.org/2000/svg" xmlns:xlink="http://www.w3.org/1999/xlink"
       viewBox="0 0 23.9064 20.5217">
       <g>
              <rect height="20.5217" opacity="0" width="23.9064" x="0" y="0" />
              <path d="M4.44761 20.4769C5.19307 20.4769 5.80642 19.871 5.80642 19.1181C5.80642 18.3727 5.19307 17.7593 4.44761 17.7593C3.69468 17.7593 3.08879 18.3727 3.08879 19.1181C3.08879 19.871 3.69468 20.4769 4.44761 20.4769ZM1.35882 13.1228C2.10428 13.1228 2.71764 12.5094 2.71764 11.7639C2.71764 11.0133 2.10428 10.4074 1.35882 10.4074C0.605894 10.4074 0 11.0133 0 11.7639C0 12.5094 0.605894 13.1228 1.35882 13.1228ZM4.44761 5.76803C5.19307 5.76803 5.80642 5.16213 5.80642 4.40921C5.80642 3.66375 5.19307 3.05039 4.44761 3.05039C3.69468 3.05039 3.08879 3.66375 3.08879 4.40921C3.08879 5.16213 3.69468 5.76803 4.44761 5.76803ZM11.7737 2.71764C12.5243 2.71764 13.1302 2.10428 13.1302 1.35882C13.1302 0.605894 12.5243 0 11.7737 0C11.0282 0 10.4149 0.605894 10.4149 1.35882C10.4149 2.10428 11.0282 2.71764 11.7737 2.71764ZM19.0975 5.76803C19.8504 5.76803 20.4563 5.16213 20.4563 4.40921C20.4563 3.66375 19.8504 3.05039 19.0975 3.05039C18.352 3.05039 17.7387 3.66375 17.7387 4.40921C17.7387 5.16213 18.352 5.76803 19.0975 5.76803ZM22.1863 13.1228C22.9392 13.1228 23.5451 12.5094 23.5451 11.7639C23.5451 11.0133 22.9392 10.4074 22.1863 10.4074C21.4408 10.4074 20.8275 11.0133 20.8275 11.7639C20.8275 12.5094 21.4408 13.1228 22.1863 13.1228ZM19.0975 20.4769C19.8504 20.4769 20.4563 19.871 20.4563 19.1181C20.4563 18.3727 19.8504 17.7593 19.0975 17.7593C18.352 17.7593 17.7387 18.3727 17.7387 19.1181C17.7387 19.871 18.352 20.4769 19.0975 20.4769Z"
                     fill="currentColor" fill-opacity="0.85" />
              <path d="M11.7737 18.9778C15.7592 18.9778 18.9852 15.7517 18.9852 11.7662C18.9852 7.77847 15.7592 4.55242 11.7737 4.55242C7.78593 4.55242 4.55988 7.77847 4.55988 11.7662C4.55988 15.7517 7.78593 18.9778 11.7737 18.9778ZM11.7812 16.3289C9.2617 16.3289 7.21625 14.2834 7.21625 11.7662C7.21625 9.24677 9.2617 7.20133 11.7812 7.20133C14.2983 7.20133 16.3438 9.24677 16.3438 11.7662C16.3438 14.2834 14.2983 16.3289 11.7812 16.3289ZM9.00185 15.8273L12.6069 12.5281C13.0864 12.1009 13.0566 11.4101 12.6069 10.9334C12.2038 10.5182 11.447 10.4884 11.0467 10.9334L7.7624 14.5586Z"
                     fill="currentColor" fill-opacity="0.85" />
       </g>
</svg>