<?xml version="1.0" encoding="UTF-8"?>
<!--Generator: Apple Native CoreSVG 326-->
<!DOCTYPE svg PUBLIC "-//W3C//DTD SVG 1.1//EN" "http://www.w3.org/Graphics/SVG/1.1/DTD/svg11.dtd">
<svg version="1.1" xmlns="http://www.w3.org/2000/svg" xmlns:xlink="http://www.w3.org/1999/xlink"
       viewBox="0 0 23.788 23.4308">
       <g>
              <rect height="23.4308" opacity="0" width="23.788" x="0" y="0" />
              <path d="M1.2442 14.294L9.12615 22.176C10.7804 23.8302 12.6463 23.8325 14.2908 22.1903L22.1894 14.2894C23.839 12.6398 23.8292 10.779 22.1825 9.12477L14.2954 1.23766C12.6486-0.409091 10.7827-0.413701 9.13822 1.23075L1.22982 9.12938C-0.414627 10.7813-0.410017 12.6398 1.2442 14.294ZM20.1371 11.7105C20.1371 11.945 20.0061 12.1968 19.7492 12.4439L12.4504 19.7501C11.9217 20.2713 11.4682 20.2444 10.9786 19.7547L3.67517 12.4416C3.4206 12.1944 3.28958 11.9525 3.28958 11.7105Z"
                     fill="currentColor" fill-opacity="0.85" />
       </g>
</svg>