<?xml version="1.0" encoding="UTF-8"?>
<!--Generator: Apple Native CoreSVG 326-->
<!DOCTYPE svg PUBLIC "-//W3C//DTD SVG 1.1//EN" "http://www.w3.org/Graphics/SVG/1.1/DTD/svg11.dtd">
<svg version="1.1" xmlns="http://www.w3.org/2000/svg" xmlns:xlink="http://www.w3.org/1999/xlink"
       viewBox="0 0 23.788 23.4308">
       <g>
              <rect height="23.4308" opacity="0" width="23.788" x="0" y="0" />
              <path d="M1.2442 14.294L9.12615 22.176C10.7804 23.8302 12.6463 23.8325 14.2908 22.1903L22.1894 14.2894C23.839 12.6398 23.8292 10.779 22.1825 9.12477L14.2954 1.23766C12.6486-0.409091 10.7827-0.413701 9.13822 1.23075L1.22982 9.12938C-0.414627 10.7813-0.410017 12.6398 1.2442 14.294ZM11.6998 3.29051C11.9516 3.2882 12.1912 3.41406 12.4481 3.66864L19.7515 10.972C20.2434 11.464 20.2779 11.9227 19.7492 12.4439L12.4504 19.7501C12.1838 20.007 11.9516 20.1306 11.6998 20.1306Z"
                     fill="currentColor" fill-opacity="0.85" />
       </g>
</svg>