<?xml version="1.0" encoding="UTF-8"?>
<!--Generator: Apple Native CoreSVG 326-->
<!DOCTYPE svg PUBLIC "-//W3C//DTD SVG 1.1//EN" "http://www.w3.org/Graphics/SVG/1.1/DTD/svg11.dtd">
<svg version="1.1" xmlns="http://www.w3.org/2000/svg" xmlns:xlink="http://www.w3.org/1999/xlink"
       viewBox="0 0 21.365 21.006">
       <g>
              <rect height="21.006" opacity="0" width="21.365" x="0" y="0" />
              <path d="M21.0037 10.4981C21.0037 16.2923 16.302 20.9962 10.4981 20.9962C4.70394 20.9962 0 16.2923 0 10.4981C0 4.70163 4.70394 0 10.4981 0C16.302 0 21.0037 4.70163 21.0037 10.4981ZM9.57104 5.49908L5.48931 9.58596C4.93959 10.1455 4.9442 10.8605 5.50885 11.4401L9.56128 15.5C10.1357 16.0669 10.8485 16.079 11.4154 15.5121L15.5023 11.4252C16.0641 10.8559 16.052 10.1431 15.4902 9.56874L11.4326 5.51115C10.8582 4.95166 10.1455 4.93213 9.57104 5.49908Z"
                     fill="currentColor" fill-opacity="0.85" />
       </g>
</svg>