<?xml version="1.0" encoding="UTF-8"?>
<!--Generator: Apple Native CoreSVG 326-->
<!DOCTYPE svg PUBLIC "-//W3C//DTD SVG 1.1//EN" "http://www.w3.org/Graphics/SVG/1.1/DTD/svg11.dtd">
<svg version="1.1" xmlns="http://www.w3.org/2000/svg" xmlns:xlink="http://www.w3.org/1999/xlink"
       viewBox="0 0 25.8038 25.9549">
       <g>
              <rect height="25.9549" opacity="0" width="25.8038" x="0" y="0" />
              <path d="M18.4785 5.37474L18.4785 5.399L10.6198 5.399C7.33902 5.399 5.2479 7.4832 5.2479 10.7542L5.2479 18.8519L5.01056 18.8519C2.67857 18.8519 1.35475 17.5304 1.35475 15.2128L1.35475 5.37474C1.35475 3.04967 2.67857 1.73561 5.01056 1.73561L14.8227 1.73561C17.1524 1.73561 18.4785 3.04967 18.4785 5.37474Z"
                     fill="currentColor" fill-opacity="0.85" />
              <path d="M24.0877 10.7542L24.0877 20.5997C24.0877 22.9173 22.7616 24.2388 20.4319 24.2388L10.6198 24.2388C8.2878 24.2388 6.96399 22.9173 6.96399 20.5997L6.96399 10.7542C6.96399 8.43429 8.2878 7.11508 10.6198 7.11508L20.4319 7.11508C22.7616 7.11508 24.0877 8.43659 24.0877 10.7542ZM10.4592 19.2329C10.4592 20.0388 11.1066 20.6908 11.8976 20.6908C12.6863 20.6908 13.3286 20.0314 13.3286 19.2329C13.3286 18.4568 12.6789 17.8094 11.8976 17.8094C11.1066 17.8094 10.4592 18.4493 10.4592 19.2329ZM17.5642 19.2329C17.5642 20.0314 18.2064 20.6908 18.9951 20.6908C19.7913 20.6908 20.4358 20.0314 20.4358 19.2329C20.4358 18.4493 19.7838 17.8094 18.9951 17.8094C18.2064 17.8094 17.5642 18.4493 17.5642 19.2329ZM14.0143 15.6807C14.0143 16.4889 14.649 17.1335 15.4527 17.1335C16.2414 17.1335 16.8859 16.474 16.8859 15.6807C16.8859 14.892 16.2265 14.2595 15.4527 14.2595C14.664 14.2595 14.0143 14.8845 14.0143 15.6807ZM10.4569 12.1383C10.4569 12.9316 11.1066 13.5715 11.9126 13.5813C12.6863 13.6008 13.3458 12.939 13.3458 12.1383C13.3458 11.3495 12.6938 10.6924 11.9126 10.6924C11.1066 10.6924 10.4569 11.3421 10.4569 12.1383ZM17.547 12.1383C17.547 12.9316 18.1989 13.5715 18.9951 13.5813C19.7838 13.6008 20.4358 12.939 20.4358 12.1383C20.4358 11.3421 19.7913 10.6924 18.9951 10.6924C18.1989 10.6924 17.547 11.3421 17.547 12.1383Z"
                     fill="currentColor" fill-opacity="0.85" />
       </g>
</svg>