<?xml version="1.0" encoding="UTF-8"?>
<!--Generator: Apple Native CoreSVG 326-->
<!DOCTYPE svg PUBLIC "-//W3C//DTD SVG 1.1//EN" "http://www.w3.org/Graphics/SVG/1.1/DTD/svg11.dtd">
<svg version="1.1" xmlns="http://www.w3.org/2000/svg" xmlns:xlink="http://www.w3.org/1999/xlink"
       viewBox="0 0 19.3993 19.0529">
       <g>
              <rect height="19.0529" opacity="0" width="19.3993" x="0" y="0" />
              <path d="M19.0379 3.63912L19.0379 15.4011C19.0379 17.7262 17.7164 19.0379 15.3896 19.0379L3.64834 19.0379C1.32382 19.0379 0 17.7262 0 15.4011L0 3.63912C0 1.32151 1.32382 0 3.64834 0L15.3896 0C17.7164 0 19.0379 1.32151 19.0379 3.63912ZM3.78931 13.6C3.78931 14.5306 4.53435 15.2779 5.44255 15.2779C6.3536 15.2779 7.08833 14.5231 7.08833 13.6C7.08833 12.7067 6.34614 11.9691 5.44255 11.9691C4.53435 11.9691 3.78931 12.6993 3.78931 13.6ZM11.9542 13.6C11.9542 14.5231 12.6843 15.2779 13.6 15.2779C14.5036 15.2779 15.2509 14.5231 15.2509 13.6C15.2509 12.6993 14.4961 11.9691 13.6 11.9691C12.6843 11.9691 11.9542 12.6993 11.9542 13.6ZM3.787 5.45286C3.787 6.36337 4.53435 7.09864 5.46493 7.11071C6.3536 7.1377 7.11071 6.37829 7.11071 5.45286C7.11071 4.55442 6.36106 3.80192 5.46493 3.80192C4.53435 3.80192 3.787 4.54696 3.787 5.45286ZM11.9272 5.45286C11.9272 6.36337 12.6769 7.09864 13.6 7.11071C14.4961 7.1377 15.2509 6.37829 15.2509 5.45286C15.2509 4.54696 14.5036 3.80192 13.6 3.80192C12.6769 3.80192 11.9272 4.54696 11.9272 5.45286Z"
                     fill="currentColor" fill-opacity="0.85" />
       </g>
</svg>