<?xml version="1.0" encoding="UTF-8"?>
<!--Generator: Apple Native CoreSVG 326-->
<!DOCTYPE svg PUBLIC "-//W3C//DTD SVG 1.1//EN" "http://www.w3.org/Graphics/SVG/1.1/DTD/svg11.dtd">
<svg version="1.1" xmlns="http://www.w3.org/2000/svg" xmlns:xlink="http://www.w3.org/1999/xlink"
       viewBox="0 0 19.3993 19.0529">
       <g>
              <rect height="19.0529" opacity="0" width="19.3993" x="0" y="0" />
              <path d="M3.64834 19.0379L15.3896 19.0379C17.7164 19.0379 19.0379 17.7262 19.0379 15.4011L19.0379 3.63912C19.0379 1.32151 17.7164 0 15.3896 0L3.64834 0C1.32382 0 0 1.32151 0 3.63912L0 15.4011C0 17.7262 1.32382 19.0379 3.64834 19.0379ZM4.05583 16.0183C3.37024 16.0183 3.01964 15.7096 3.01964 14.9775L3.01964 4.07021C3.01964 3.33809 3.37024 3.0271 4.05583 3.0271L14.9821 3.0271C15.6654 3.0271 16.0183 3.33809 16.0183 4.07021L16.0183 14.9775C16.0183 15.7096 15.6654 16.0183 14.9821 16.0183Z"
                     fill="currentColor" fill-opacity="0.85" />
              <path d="M13.3439 7.25829C14.1884 7.27551 14.8938 6.56778 14.8938 5.70895C14.8938 4.84727 14.2033 4.15907 13.3439 4.15907C12.4874 4.15907 11.7946 4.84727 11.7946 5.70895C11.7946 6.56032 12.4874 7.24622 13.3439 7.25829ZM9.53131 11.0858C10.3758 11.0858 11.076 10.3804 11.076 9.52155C11.076 8.68225 10.3683 7.99405 9.53131 7.99405C8.67479 7.99405 7.97912 8.67479 7.97912 9.52155C7.97912 10.3878 8.66733 11.0858 9.53131 11.0858ZM5.69864 14.9208C6.54309 14.9208 7.24337 14.2154 7.24337 13.3588C7.24337 12.5172 6.53563 11.8141 5.69864 11.8141C4.84212 11.8141 4.15391 12.5098 4.15391 13.3588C4.15391 14.2228 4.84212 14.9208 5.69864 14.9208Z"
                     fill="currentColor" fill-opacity="0.85" />
       </g>
</svg>