<?xml version="1.0" encoding="UTF-8"?>
<!--Generator: Apple Native CoreSVG 326-->
<!DOCTYPE svg PUBLIC "-//W3C//DTD SVG 1.1//EN" "http://www.w3.org/Graphics/SVG/1.1/DTD/svg11.dtd">
<svg version="1.1" xmlns="http://www.w3.org/2000/svg" xmlns:xlink="http://www.w3.org/1999/xlink"
       viewBox="0 0 25.8775 21.3226">
       <g>
              <rect height="21.3226" opacity="0" width="25.8775" x="0" y="0" />
              <path d="M14.7828 10.6564C14.7828 17.2384 16.7818 21.3128 20.1481 21.3128C23.5145 21.3128 25.5157 17.2384 25.5157 10.6564C25.5157 4.07214 23.5145 0 20.1481 0C16.7818 0 14.7828 4.07214 14.7828 10.6564ZM17.6308 10.6564C17.6308 5.99676 18.6415 3.01964 20.1481 3.01964C21.6621 3.01964 22.6677 5.99676 22.6677 10.6564C22.6677 15.3138 21.6621 18.2857 20.1481 18.2857C18.6415 18.2857 17.6308 15.3138 17.6308 10.6564ZM9.19975 10.6564C9.19975 17.3212 11.3191 21.3128 15.9331 21.3128L20.1481 21.3128L20.1481 18.2857L15.9331 18.2857C13.3648 18.2857 12.2194 15.3823 12.2194 10.6564C12.2194 5.93059 13.3648 3.01964 15.9331 3.01964L20.1481 3.01964L20.1481 0L15.9331 0C11.3191 0 9.19975 3.98929 9.19975 10.6564ZM14.7561 6.1074L16.4256 6.1074L16.4256 4.5446L14.7561 4.5446C14.3299 4.5446 13.9698 4.90471 13.9698 5.33088C13.9698 5.75705 14.3225 6.1074 14.7561 6.1074ZM14.2114 8.65781L15.8884 8.65781L15.8884 7.08008L14.2114 7.08008C13.7778 7.08008 13.4251 7.43043 13.4251 7.86406C13.4251 8.29769 13.7778 8.65781 14.2114 8.65781ZM13.9948 11.3978L15.6718 11.3978L15.6718 9.83502L13.9948 9.83502C13.5612 9.83502 13.2183 10.1877 13.2183 10.6213C13.2183 11.0475 13.5612 11.3978 13.9948 11.3978ZM14.2114 14.1551L15.8884 14.1551L15.8884 12.5773L14.2114 12.5773C13.7778 12.5773 13.4251 12.9375 13.4251 13.3711C13.4251 13.8047 13.7778 14.1551 14.2114 14.1551ZM14.7561 16.6905L16.4256 16.6905L16.4256 15.1277L14.7561 15.1277C14.3225 15.1277 13.9698 15.4781 13.9698 15.9117C13.9698 16.3304 14.3299 16.6905 14.7561 16.6905Z"
                     fill="currentColor" fill-opacity="0.85" />
              <path d="M4.08371 2.16081C3.58184 2.16081 3.0679 2.40944 2.85373 3.01467C2.17935 4.95803 1.81572 7.10822 1.81572 9.31416C1.81572 11.7416 2.23673 14.0709 3.0477 16.1038L5.52599 15.2275C4.80115 13.433 4.42436 11.4562 4.42436 9.31416C4.42436 7.36377 4.72654 5.55864 5.32455 3.89091C5.70353 2.85502 4.8985 2.16081 4.08371 2.16081ZM0.887013 13.913C-0.23094 14.2346-0.218323 15.4514 0.513857 15.9607L3.92576 18.3351C4.65903 18.8501 5.56796 18.5922 5.89351 17.8423L7.51357 13.979C7.8311 14.3991 7.23552 12.0582 6.10835 12.3821Z"
                     fill="currentColor" fill-opacity="0.85" />
       </g>
</svg>