<?xml version="1.0" encoding="UTF-8"?>
<!--Generator: Apple Native CoreSVG 326-->
<!DOCTYPE svg PUBLIC "-//W3C//DTD SVG 1.1//EN" "http://www.w3.org/Graphics/SVG/1.1/DTD/svg11.dtd">
<svg version="1.1" xmlns="http://www.w3.org/2000/svg" xmlns:xlink="http://www.w3.org/1999/xlink"
       viewBox="0 0 27.7869 21.3226">
       <g>
              <rect height="21.3226" opacity="0" width="27.7869" x="0" y="0" />
              <path d="M6.8747 3.14945L5.44607 3.14945C5.02736 3.14945 4.66209 3.50956 4.66209 3.93573C4.66209 4.3619 5.01244 4.71225 5.44607 4.71225L6.36294 4.71225C6.22162 5.2442 6.10958 5.79569 6.01193 6.38623L4.90138 6.38623C4.46775 6.38623 4.1174 6.73658 4.1174 7.17021C4.1174 7.59638 4.46775 7.96396 4.90138 7.96396L5.804 7.96396C5.75056 8.56888 5.70919 9.19049 5.69943 9.83502L4.68708 9.83502C4.25345 9.83502 3.90825 10.1877 3.90825 10.6213C3.90825 11.0475 4.25345 11.3978 4.68708 11.3978L5.69712 11.3978C5.70689 12.0331 5.74826 12.6737 5.79939 13.2786L4.90138 13.2786C4.46775 13.2786 4.1174 13.6388 4.1174 14.0649C4.1174 14.4986 4.46775 14.8489 4.90138 14.8489L5.99525 14.8489C6.09806 15.4256 6.20779 15.9938 6.34681 16.5229L5.44607 16.5229C5.01244 16.5229 4.66209 16.8732 4.66209 17.3069C4.66209 17.7256 5.02736 18.0857 5.44607 18.0857L6.84649 18.0857C7.39907 19.4833 8.14005 20.5753 9.05219 21.3128L7.90907 21.3128C3.30479 21.3128 1.1757 17.3212 1.1757 10.6564C1.1757 3.98929 3.30479 0 7.90907 0L9.05219 0C8.15157 0.718592 7.42497 1.78468 6.8747 3.14945ZM16.5295 6.45245L13.8904 8.75643C12.7227 9.78225 12.7204 11.5111 13.8904 12.5392L16.5282 14.863C15.8784 18.5552 14.3078 20.6635 12.1338 20.6635C9.22676 20.6635 7.40805 16.9129 7.40805 10.6564C7.40805 4.39253 9.22676 0.639558 12.1338 0.639558C14.3092 0.639558 15.8804 2.75198 16.5295 6.45245Z"
                     fill="currentColor" fill-opacity="0.85" />
              <path d="M14.9134 11.379L18.3998 14.4438C19.1378 15.0957 20.1418 14.6908 20.1418 13.6667L20.1418 11.9812L24.9251 11.9812C25.7296 11.9812 26.2401 11.3938 26.2401 10.6587C26.2401 9.91909 25.7296 9.33394 24.9251 9.33394L20.1418 9.33394L20.1418 7.61397C20.1418 6.63414 19.1298 6.21773 18.3998 6.86445L14.9134 9.91666C14.4435 10.3354 14.4435 10.9654 14.9134 11.379Z"
                     fill="currentColor" fill-opacity="0.85" />
       </g>
</svg>