<?xml version="1.0" encoding="UTF-8"?>
<!--Generator: Apple Native CoreSVG 326-->
<!DOCTYPE svg PUBLIC "-//W3C//DTD SVG 1.1//EN" "http://www.w3.org/Graphics/SVG/1.1/DTD/svg11.dtd">
<svg version="1.1" xmlns="http://www.w3.org/2000/svg" xmlns:xlink="http://www.w3.org/1999/xlink"
       viewBox="0 0 25.2357 21.3226">
       <g>
              <rect height="21.3226" opacity="0" width="25.2357" x="0" y="0" />
              <path d="M15.4223 10.6564C15.4223 16.9129 17.241 20.6635 20.1481 20.6635C23.0552 20.6635 24.8739 16.9129 24.8739 10.6564C24.8739 4.39253 23.0552 0.639558 20.1481 0.639558C17.241 0.639558 15.4223 4.39253 15.4223 10.6564ZM9.19975 10.6564C9.19975 17.3212 11.3191 21.3128 15.9331 21.3128L17.0665 21.3128C16.1566 20.5753 15.4208 19.4833 14.8705 18.0857L13.4701 18.0857C13.0439 18.0857 12.6838 17.7256 12.6838 17.3069C12.6838 16.8732 13.0365 16.5229 13.4701 16.5229L14.3634 16.5229C14.2221 15.9938 14.1123 15.4256 14.017 14.8489L12.918 14.8489C12.4918 14.8489 12.1391 14.4986 12.1391 14.0649C12.1391 13.6388 12.4918 13.2786 12.918 13.2786L13.816 13.2786C13.7625 12.6737 13.7309 12.0331 13.7137 11.3978L12.7088 11.3978C12.2752 11.3978 11.9323 11.0475 11.9323 10.6213C11.9323 10.1877 12.2752 9.83502 12.7088 9.83502L13.716 9.83502C13.7332 9.19049 13.7648 8.56888 13.828 7.96396L12.918 7.96396C12.4918 7.96396 12.1391 7.59638 12.1391 7.17021C12.1391 6.73658 12.4918 6.38623 12.918 6.38623L14.0262 6.38623C14.1239 5.79569 14.2434 5.2442 14.387 4.71225L13.4701 4.71225C13.0365 4.71225 12.6838 4.3619 12.6838 3.93573C12.6838 3.50956 13.0439 3.14945 13.4701 3.14945L14.8987 3.14945C15.4467 1.78468 16.1756 0.718592 17.0665 0L15.9331 0C11.3191 0 9.19975 3.98929 9.19975 10.6564Z"
                     fill="currentColor" fill-opacity="0.85" />
              <path d="M4.10215 2.14929C3.60028 2.14929 3.08865 2.39792 2.87447 3.00084C2.18396 4.95572 1.81572 7.09439 1.81572 9.31416C1.81572 11.7554 2.24134 14.0755 3.06845 16.1199L5.54443 15.2414C4.80346 13.4353 4.42436 11.4701 4.42436 9.31416C4.42436 7.34994 4.72885 5.55864 5.34299 3.87938C5.72428 2.8435 4.91925 2.14929 4.10215 2.14929ZM0.887013 13.9268C-0.23094 14.2461-0.218323 15.4652 0.513857 15.9746L3.92576 18.3489C4.65903 18.8639 5.56796 18.6061 5.89351 17.8561L7.51357 13.9928C7.8311 14.413 7.23552 12.072 6.10835 12.3936Z"
                     fill="currentColor" fill-opacity="0.85" />
       </g>
</svg>