<?xml version="1.0" encoding="UTF-8"?>
<!--Generator: Apple Native CoreSVG 326-->
<!DOCTYPE svg PUBLIC "-//W3C//DTD SVG 1.1//EN" "http://www.w3.org/Graphics/SVG/1.1/DTD/svg11.dtd">
<svg version="1.1" xmlns="http://www.w3.org/2000/svg" xmlns:xlink="http://www.w3.org/1999/xlink"
       viewBox="0 0 21.6667 25.5348">
       <g>
              <rect height="25.5348" opacity="0" width="21.6667" x="0" y="0" />
              <path d="M10.6564 10.733C17.2384 10.733 21.3054 8.74145 21.3054 5.36764C21.3054 2.00129 17.2384 0 10.6564 0C4.07214 0 0 2.00129 0 5.36764C0 8.74145 4.07214 10.733 10.6564 10.733ZM10.6564 7.89238C5.99676 7.89238 3.01964 6.88167 3.01964 5.36764C3.01964 3.86106 5.99676 2.84805 10.6564 2.84805C15.3161 2.84805 18.2857 3.86106 18.2857 5.36764C18.2857 6.88167 15.3161 7.89238 10.6564 7.89238ZM10.6564 16.3235C17.3138 16.3235 21.3054 14.1967 21.3054 9.59009L21.3054 5.36764L18.2857 5.36764L18.2857 9.59009C18.2857 12.1584 15.3823 13.3038 10.6564 13.3038C5.93059 13.3038 3.01964 12.1584 3.01964 9.59009L3.01964 5.36764L0 5.36764L0 9.59009C0 14.1967 3.98929 16.3235 10.6564 16.3235ZM6.1074 10.7597L6.1074 9.09762L4.5446 9.09762L4.5446 10.7597C4.5446 11.1858 4.90471 11.5459 5.32342 11.5459C5.75705 11.5459 6.1074 11.1933 6.1074 10.7597ZM8.65781 11.3118L8.65781 9.63485L7.08008 9.63485L7.08008 11.3118C7.08008 11.738 7.43043 12.0906 7.86406 12.0906C8.29769 12.0906 8.65781 11.738 8.65781 11.3118ZM11.3978 11.5284L11.3978 9.85146L9.83502 9.85146L9.83502 11.5284C9.83502 11.9546 10.1877 12.2975 10.6138 12.2975C11.0475 12.2975 11.3978 11.9546 11.3978 11.5284ZM14.1551 11.3118L14.1551 9.63485L12.5773 9.63485L12.5773 11.3118C12.5773 11.738 12.9375 12.0906 13.3711 12.0906C13.8047 12.0906 14.1551 11.738 14.1551 11.3118ZM16.6905 10.7597L16.6905 9.09762L15.1277 9.09762L15.1277 10.7597C15.1277 11.1933 15.4781 11.5459 15.9043 11.5459C16.3304 11.5459 16.6905 11.1858 16.6905 10.7597Z"
                     fill="currentColor" fill-opacity="0.85" />
              <path d="M2.11605 21.432C2.11605 21.9339 2.36468 22.4478 2.97221 22.662C4.91326 23.3364 7.06346 23.7075 9.2694 23.7075C11.6969 23.7075 14.0261 23.279 16.059 22.468L15.1828 19.9972C13.3882 20.7221 11.4115 21.0914 9.2694 21.0914C7.319 21.0914 5.51388 20.7892 3.84614 20.1987C2.81026 19.8122 2.11605 20.6247 2.11605 21.432ZM13.6748 24.5071C13.912 25.6399 15.1288 25.7191 15.6927 25.0317L18.2702 21.7909C18.8375 21.0949 18.6565 20.1808 17.929 19.7984L14.1948 17.923C13.4735 17.5509 12.2665 18.0569 12.4986 19.199Z"
                     fill="currentColor" fill-opacity="0.85" />
       </g>
</svg>