<?xml version="1.0" encoding="UTF-8"?>
<!--Generator: Apple Native CoreSVG 326-->
<!DOCTYPE svg PUBLIC "-//W3C//DTD SVG 1.1//EN" "http://www.w3.org/Graphics/SVG/1.1/DTD/svg11.dtd">
<svg version="1.1" xmlns="http://www.w3.org/2000/svg" xmlns:xlink="http://www.w3.org/1999/xlink"
       viewBox="0 0 25.9481 27.3311">
       <g>
              <rect height="27.3311" opacity="0" width="25.9481" x="0" y="0" />
              <path d="M11.6781 25.0577L6.09121 25.0577C4.36821 25.0577 3.1765 23.8315 3.1765 22.0844L3.1765 21.6045L10.0424 21.6045C10.241 22.9237 10.8252 24.1134 11.6781 25.0577ZM22.4103 14.5827C21.4452 14.0542 20.3373 13.7542 19.1597 13.7542C18.7459 13.7542 18.3409 13.7912 17.9496 13.868C17.5584 13.7912 17.1534 13.7542 16.7399 13.7542C13.2415 13.7542 10.3624 16.3985 9.99407 19.7989L3.1765 19.7989L3.1765 9.61648L22.4103 9.61648ZM10.4341 10.9039C9.96725 10.9039 9.61296 11.2582 9.61296 11.7176C9.61296 12.1845 9.96725 12.5261 10.4341 12.5261L15.155 12.5261C15.6219 12.5261 15.9738 12.1845 15.9738 11.7176C15.9738 11.2582 15.6219 10.9039 15.155 10.9039ZM22.4103 5.19774L22.4103 7.81087L3.1765 7.81087L3.1765 5.19774C3.1765 3.4506 4.36821 2.22214 6.09121 2.22214L19.4904 2.22214C21.2037 2.22214 22.4103 3.4506 22.4103 5.19774ZM6.39 5.36072C6.39 6.0183 6.9396 6.57021 7.59202 6.57021C8.24444 6.57021 8.78428 6.0183 8.78428 5.36072C8.78428 4.706 8.24444 4.1564 7.59202 4.1564C6.9396 4.1564 6.39 4.706 6.39 5.36072ZM9.6172 5.36072C9.6172 6.0183 10.157 6.57021 10.8169 6.57021C11.4768 6.57021 12.0092 6.0183 12.0092 5.36072C12.0092 4.706 11.4768 4.1564 10.8169 4.1564C10.157 4.1564 9.6172 4.706 9.6172 5.36072Z"
                     fill="currentColor" fill-opacity="0.85" />
              <path d="M24.7258 20.5426C24.7258 23.6281 22.2377 26.1139 19.1597 26.1139C18.744 26.1139 18.3389 26.0683 17.9506 25.9783C19.2028 25.7048 20.2945 25.0075 21.0696 24.0426C22.3181 23.4048 23.1128 22.1255 23.1128 20.5426C23.1128 18.9552 22.3151 17.6735 21.0623 17.0371C20.2873 16.0781 19.1987 15.3847 17.9506 15.1121C18.3389 15.0221 18.744 14.9765 19.1597 14.9765C22.2377 14.9765 24.7258 17.4623 24.7258 20.5426Z"
                     fill="currentColor" fill-opacity="0.85" />
              <path d="M16.7399 26.1139C19.8156 26.1139 22.3037 23.6281 22.3037 20.5426C22.3037 17.4623 19.8156 14.9765 16.7399 14.9765C13.6619 14.9765 11.1738 17.4623 11.1738 20.5426C11.1738 23.6281 13.6619 26.1139 16.7399 26.1139ZM16.7399 24.4859C14.4463 24.4859 12.7868 22.8316 12.7868 20.5426C12.7868 18.2514 14.4463 16.597 16.7399 16.597C19.0289 16.597 20.6907 18.2514 20.6907 20.5426C20.6907 22.8316 19.0289 24.4859 16.7399 24.4859ZM16.7399 23.6342C18.431 23.6342 19.8314 22.236 19.8314 20.5426C19.8314 18.8492 18.431 17.4511 16.7399 17.4511C15.0442 17.4511 13.6461 18.8492 13.6461 20.5426C13.6461 22.236 15.0442 23.6342 16.7399 23.6342ZM16.7399 22.3575C15.6604 22.3575 14.9227 21.6124 14.9227 20.5426C14.9227 19.4706 15.6604 18.7277 16.7399 18.7277C17.8194 18.7277 18.5548 19.4706 18.5548 20.5426C18.5548 21.6147 17.8171 22.3575 16.7399 22.3575Z"
                     fill="currentColor" fill-opacity="0.85" />
       </g>
</svg>