<?xml version="1.0" encoding="UTF-8"?>
<!--Generator: Apple Native CoreSVG 326-->
<!DOCTYPE svg PUBLIC "-//W3C//DTD SVG 1.1//EN" "http://www.w3.org/Graphics/SVG/1.1/DTD/svg11.dtd">
<svg version="1.1" xmlns="http://www.w3.org/2000/svg" xmlns:xlink="http://www.w3.org/1999/xlink"
       viewBox="0 0 21.365 21.006">
       <g>
              <rect height="21.006" opacity="0" width="21.365" x="0" y="0" />
              <path d="M10.4981 20.9962C16.302 20.9962 21.0037 16.2946 21.0037 10.4981C21.0037 4.70163 16.302 0 10.4981 0C4.70163 0 0 4.70163 0 10.4981C0 16.2946 4.70163 20.9962 10.4981 20.9962ZM10.4981 17.9484C6.37829 17.9484 3.04785 14.6179 3.04785 10.4981C3.04785 6.37829 6.37829 3.04785 10.4981 3.04785C14.6179 3.04785 17.9558 6.37829 17.9558 10.4981C17.9558 14.6179 14.6179 17.9484 10.4981 17.9484Z"
                     fill="currentColor" fill-opacity="0.85" />
              <path d="M13.4177 5.50005L7.56005 5.50005C6.81216 5.50005 6.29865 6.0331 6.29865 6.79536L6.29865 7.95595L14.6791 7.95595L14.6791 6.79536C14.6791 6.0331 14.1656 5.50005 13.4177 5.50005ZM7.99192 7.25259C7.77665 7.18926 7.65279 6.9618 7.71381 6.74423C7.77483 6.52896 8.00229 6.4051 8.21756 6.46842C8.43283 6.52714 8.55669 6.7569 8.49567 6.97217C8.43465 7.18975 8.20719 7.3113 7.99192 7.25259ZM9.46732 7.36541C9.18873 7.36541 8.96357 7.13564 8.96357 6.85935C8.96357 6.58076 9.18873 6.3533 9.46732 6.3533C9.74361 6.3533 9.97107 6.58076 9.97107 6.85935C9.97107 7.13564 9.74361 7.36541 9.46732 7.36541ZM6.29865 13.1745L14.6791 13.1745L14.6791 8.75376L6.29865 8.75376ZM9.43002 10.2376C9.23416 10.2376 9.09689 10.098 9.09689 9.90216C9.09689 9.71377 9.23416 9.5742 9.43002 9.5742L11.5598 9.5742C11.7482 9.5742 11.8855 9.71377 11.8855 9.90216C11.8855 10.098 11.7482 10.2376 11.5598 10.2376ZM14.6791 13.9723L6.29865 13.9723L6.29865 14.1842C6.29865 14.9464 6.81216 15.4772 7.56005 15.4772L13.4177 15.4772C14.1656 15.4772 14.6791 14.9464 14.6791 14.1842Z"
                     fill="currentColor" fill-opacity="0.85" />
       </g>
</svg>