<?xml version="1.0" encoding="UTF-8"?>
<!--Generator: Apple Native CoreSVG 326-->
<!DOCTYPE svg PUBLIC "-//W3C//DTD SVG 1.1//EN" "http://www.w3.org/Graphics/SVG/1.1/DTD/svg11.dtd">
<svg version="1.1" xmlns="http://www.w3.org/2000/svg" xmlns:xlink="http://www.w3.org/1999/xlink"
       viewBox="0 0 25.9481 27.3311">
       <g>
              <rect height="27.3311" opacity="0" width="25.9481" x="0" y="0" />
              <path d="M22.4103 5.19774L22.4103 14.5827C21.5772 14.1264 20.6377 13.8405 19.6369 13.7783L19.6369 10.524L5.94248 10.524L5.94248 19.1261L10.1017 19.1261C10.0025 19.5824 9.95148 20.0565 9.95148 20.5426C9.95148 20.6701 9.95498 20.7968 9.97051 20.9202L5.94248 20.9202L5.94248 21.7963C5.94248 22.0934 6.15053 22.2992 6.44307 22.2992L10.1887 22.2992C10.4589 23.3424 10.9771 24.2835 11.6781 25.0577L6.09121 25.0577C4.36821 25.0577 3.1765 23.8315 3.1765 22.0844L3.1765 5.19774C3.1765 3.4506 4.36821 2.22214 6.09121 2.22214L19.4979 2.22214C21.2111 2.22214 22.4103 3.4506 22.4103 5.19774ZM15.9456 12.2811C15.9456 12.7457 15.6011 13.0925 15.1365 13.0925L10.4526 13.0925C9.98799 13.0925 9.64116 12.7457 9.64116 12.2811C9.64116 11.8165 9.98799 11.4795 10.4526 11.4795L15.1365 11.4795C15.6011 11.4795 15.9456 11.8165 15.9456 12.2811ZM6.44307 4.98065C6.15053 4.98065 5.94248 5.18124 5.94248 5.48586L5.94248 8.72987L19.6369 8.72987L19.6369 5.48586C19.6369 5.18124 19.4386 4.98065 19.1363 4.98065ZM9.35887 6.81307C9.35887 7.42588 8.85118 7.93588 8.23837 7.93588C7.62787 7.93588 7.11787 7.42588 7.11787 6.81307C7.11787 6.20257 7.62787 5.69257 8.23837 5.69257C8.85118 5.69257 9.35887 6.20257 9.35887 6.81307ZM12.3788 6.81307C12.3788 7.42588 11.8711 7.93588 11.2509 7.93588C10.6404 7.93588 10.1327 7.42588 10.1327 6.81307C10.1327 6.20257 10.6404 5.69257 11.2509 5.69257C11.8711 5.69257 12.3788 6.20257 12.3788 6.81307Z"
                     fill="currentColor" fill-opacity="0.85" />
              <path d="M24.7258 20.5426C24.7258 23.6281 22.2377 26.1139 19.1597 26.1139C18.744 26.1139 18.3389 26.0683 17.9506 25.9783C19.2028 25.7048 20.2945 25.0075 21.0696 24.0426C22.3181 23.4048 23.1128 22.1255 23.1128 20.5426C23.1128 18.9552 22.3151 17.6735 21.0623 17.0371C20.2873 16.0781 19.1987 15.3847 17.9506 15.1121C18.3389 15.0221 18.744 14.9765 19.1597 14.9765C22.2377 14.9765 24.7258 17.4623 24.7258 20.5426Z"
                     fill="currentColor" fill-opacity="0.85" />
              <path d="M16.7399 26.1139C19.8156 26.1139 22.3037 23.6281 22.3037 20.5426C22.3037 17.4623 19.8156 14.9765 16.7399 14.9765C13.6619 14.9765 11.1738 17.4623 11.1738 20.5426C11.1738 23.6281 13.6619 26.1139 16.7399 26.1139ZM16.7399 24.4859C14.4463 24.4859 12.7868 22.8316 12.7868 20.5426C12.7868 18.2514 14.4463 16.597 16.7399 16.597C19.0289 16.597 20.6907 18.2514 20.6907 20.5426C20.6907 22.8316 19.0289 24.4859 16.7399 24.4859ZM16.7399 23.6342C18.431 23.6342 19.8314 22.236 19.8314 20.5426C19.8314 18.8492 18.431 17.4511 16.7399 17.4511C15.0442 17.4511 13.6461 18.8492 13.6461 20.5426C13.6461 22.236 15.0442 23.6342 16.7399 23.6342ZM16.7399 22.3575C15.6604 22.3575 14.9227 21.6124 14.9227 20.5426C14.9227 19.4706 15.6604 18.7277 16.7399 18.7277C17.8194 18.7277 18.5548 19.4706 18.5548 20.5426C18.5548 21.6147 17.8171 22.3575 16.7399 22.3575Z"
                     fill="currentColor" fill-opacity="0.85" />
       </g>
</svg>