<?xml version="1.0" encoding="UTF-8"?>
<!--Generator: Apple Native CoreSVG 326-->
<!DOCTYPE svg PUBLIC "-//W3C//DTD SVG 1.1//EN" "http://www.w3.org/Graphics/SVG/1.1/DTD/svg11.dtd">
<svg version="1.1" xmlns="http://www.w3.org/2000/svg" xmlns:xlink="http://www.w3.org/1999/xlink"
       viewBox="0 0 21.365 21.006">
       <g>
              <rect height="21.006" opacity="0" width="21.365" x="0" y="0" />
              <path d="M21.0037 10.5079C21.0037 16.3043 16.302 21.006 10.4981 21.006C4.70394 21.006 0 16.3043 0 10.5079C0 4.7137 4.70394 0.00976562 10.4981 0.00976562C16.302 0.00976562 21.0037 4.7137 21.0037 10.5079ZM6.01272 14.206L6.01272 14.4403C6.01272 15.2519 6.5733 15.8194 7.37287 15.8194L13.6049 15.8194C14.4045 15.8194 14.9576 15.2519 14.9576 14.4403L14.9576 14.206ZM6.01272 8.64525L6.01272 13.3565L14.9576 13.3565L14.9576 8.64525ZM11.9791 9.87748C11.9791 10.0883 11.8344 10.2376 11.6362 10.2376L9.36857 10.2376C9.14803 10.2376 9.0033 10.0883 9.0033 9.87748C9.0033 9.67185 9.14803 9.52482 9.36857 9.52482L11.6362 9.52482C11.8344 9.52482 11.9791 9.67185 11.9791 9.87748ZM7.37287 5.18197C6.5733 5.18197 6.01272 5.75462 6.01272 6.56626L6.01272 7.79576L14.9576 7.79576L14.9576 6.56626C14.9576 5.75462 14.4045 5.18197 13.6049 5.18197ZM9.93662 6.63486C9.93662 6.92607 9.69939 7.17076 9.39842 7.17076C9.1026 7.17076 8.86252 6.92607 8.86252 6.63486C8.86252 6.33158 9.1026 6.08459 9.39842 6.08459C9.69939 6.08459 9.93662 6.33158 9.93662 6.63486ZM8.05967 6.20433C8.29733 6.26535 8.42865 6.5198 8.36532 6.74999C8.302 6.98018 8.06477 7.11666 7.82712 7.05564C7.59693 6.98255 7.45299 6.74532 7.52378 6.51513C7.5871 6.28494 7.82948 6.1387 8.05967 6.20433Z"
                     fill="currentColor" fill-opacity="0.85" />
       </g>
</svg>