<?xml version="1.0" encoding="UTF-8"?>
<!--Generator: Apple Native CoreSVG 326-->
<!DOCTYPE svg PUBLIC "-//W3C//DTD SVG 1.1//EN" "http://www.w3.org/Graphics/SVG/1.1/DTD/svg11.dtd">
<svg version="1.1" xmlns="http://www.w3.org/2000/svg" xmlns:xlink="http://www.w3.org/1999/xlink"
       viewBox="0 0 26.3664 27.8271">
       <g>
              <rect height="27.8271" opacity="0" width="26.3664" x="0" y="0" />
              <path d="M8.33608 12.775L17.6541 12.775C19.3777 12.775 20.4574 11.6976 20.4574 10.0032L20.4574 7.12194C20.4574 5.43503 19.3777 4.36512 17.6541 4.36512L8.33608 4.36512C6.6348 4.36512 5.5402 5.43503 5.5402 7.12194L5.5402 10.0032C5.5402 11.6976 6.6348 12.775 8.33608 12.775ZM8.93755 9.91266C8.6111 9.91266 8.39504 9.70406 8.39504 9.35808L8.39504 7.77684C8.39504 7.42855 8.6111 7.21996 8.93755 7.21996L17.0526 7.21996C17.4014 7.21996 17.5951 7.42855 17.5951 7.77684L17.5951 9.35808C17.5951 9.70406 17.4014 9.91266 17.0526 9.91266ZM5.12526 27.8174L20.8798 27.8174C22.596 27.8174 23.6832 26.74 23.6832 25.0456L23.6832 22.1718C23.6832 20.4849 22.596 19.4075 20.8798 19.4075L5.12526 19.4075C3.40905 19.4075 2.32191 20.4849 2.32191 22.1718L2.32191 25.0456C2.32191 26.74 3.40905 27.8174 5.12526 27.8174ZM5.71926 24.9625C5.38535 24.9625 5.18422 24.7539 5.18422 24.3982L5.18422 22.8244C5.18422 22.4784 5.38535 22.2698 5.71926 22.2698L20.2709 22.2698C20.6197 22.2698 20.8209 22.4784 20.8209 22.8244L20.8209 24.3982C20.8209 24.7539 20.6197 24.9625 20.2709 24.9625Z"
                     fill="currentColor" fill-opacity="0.85" />
              <path d="M1.41474 2.84562L24.5978 2.84562C25.3741 2.84562 26.0051 2.19794 26.0051 1.42166C26.0051 0.645381 25.3741 0 24.5978 0L1.41474 0C0.628701 0 0 0.645381 0 1.42166C0 2.19794 0.628701 2.84562 1.41474 2.84562ZM1.41474 17.8857L24.5978 17.8857C25.3741 17.8857 26.0051 17.2403 26.0051 16.4715C26.0051 15.6878 25.3741 15.0401 24.5978 15.0401L1.41474 15.0401C0.628701 15.0401 0 15.6878 0 16.4715C0 17.2403 0.628701 17.8857 1.41474 17.8857Z"
                     fill="currentColor" fill-opacity="0.85" />
       </g>
</svg>