<?xml version="1.0" encoding="UTF-8"?>
<!--Generator: Apple Native CoreSVG 326-->
<!DOCTYPE svg PUBLIC "-//W3C//DTD SVG 1.1//EN" "http://www.w3.org/Graphics/SVG/1.1/DTD/svg11.dtd">
<svg version="1.1" xmlns="http://www.w3.org/2000/svg" xmlns:xlink="http://www.w3.org/1999/xlink"
       viewBox="0 0 23.342 26.2425">
       <g>
              <rect height="26.2425" opacity="0" width="23.342" x="0" y="0" />
              <path d="M6.0889 24.8278C6.0889 25.6041 5.44352 26.2402 4.66724 26.2402C3.89097 26.2402 3.24328 25.6041 3.24328 24.8278L3.24328 23.0986L6.0889 23.0986ZM19.7546 24.8278C19.7546 25.6041 19.1069 26.2402 18.3306 26.2402C17.5544 26.2402 16.909 25.6041 16.909 24.8278L16.909 20.0565L19.7546 20.0565ZM19.7546 1.40498L19.7546 6.18377L16.909 6.18377L16.909 1.40498C16.909 0.628701 17.5544 0 18.3306 0C19.1069 0 19.7546 0.628701 19.7546 1.40498ZM6.0889 1.40498L6.0889 3.14393L3.24328 3.14393L3.24328 1.40498C3.24328 0.628701 3.89097 0 4.66724 0C5.44352 0 6.0889 0.628701 6.0889 1.40498Z"
                     fill="currentColor" fill-opacity="0.85" />
              <path d="M2.77174 23.0986L6.55814 23.0986C8.24504 23.0986 9.32241 22.0092 9.32241 20.293L9.32241 5.94727C9.32241 4.23107 8.24504 3.14393 6.55814 3.14393L2.77174 3.14393C1.07737 3.14393 0 4.23107 0 5.94727L0 20.293C0 22.0092 1.07737 23.0986 2.77174 23.0986ZM3.41918 20.2363C3.06344 20.2363 2.85484 20.0329 2.85484 19.684L2.85484 6.54127C2.85484 6.20736 3.06344 6.00623 3.41918 6.00623L5.90554 6.00623C6.25152 6.00623 6.46011 6.20736 6.46011 6.54127L6.46011 19.684C6.46011 20.0329 6.25152 20.2363 5.90554 20.2363ZM16.4374 20.0565L20.2238 20.0565C21.9107 20.0565 22.9806 18.9619 22.9806 17.2531L22.9806 8.97965C22.9806 7.26344 21.9107 6.18377 20.2238 6.18377L16.4374 6.18377C14.7356 6.18377 13.6657 7.26344 13.6657 8.97965L13.6657 17.2531C13.6657 18.9619 14.7356 20.0565 16.4374 20.0565ZM17.0751 17.1942C16.7291 17.1942 16.5205 16.9856 16.5205 16.6442L16.5205 9.58342C16.5205 9.2472 16.7291 9.03861 17.0751 9.03861L19.5689 9.03861C19.9172 9.03861 20.1258 9.2472 20.1258 9.58342L20.1258 16.6442C20.1258 16.9856 19.9172 17.1942 19.5689 17.1942Z"
                     fill="currentColor" fill-opacity="0.85" />
       </g>
</svg>