<?xml version="1.0" encoding="UTF-8"?>
<!--Generator: Apple Native CoreSVG 326-->
<!DOCTYPE svg PUBLIC "-//W3C//DTD SVG 1.1//EN" "http://www.w3.org/Graphics/SVG/1.1/DTD/svg11.dtd">
<svg version="1.1" xmlns="http://www.w3.org/2000/svg" xmlns:xlink="http://www.w3.org/1999/xlink"
       viewBox="0 0 30.4765 26.2425">
       <g>
              <rect height="26.2425" opacity="0" width="30.4765" x="0" y="0" />
              <path d="M7.13686 23.6277L10.9233 23.6277C12.6102 23.6277 13.6875 22.5383 13.6875 20.8221L13.6875 5.41817C13.6875 3.70196 12.6102 2.61482 10.9233 2.61482L7.13686 2.61482C5.44479 2.61482 4.36512 3.70196 4.36512 5.41817L4.36512 20.8221C4.36512 22.5383 5.44479 23.6277 7.13686 23.6277ZM23.5645 20.4071L27.3584 20.4071C29.0453 20.4071 30.1152 19.3125 30.1152 17.5963L30.1152 8.62899C30.1152 6.92025 29.0453 5.83311 27.3584 5.83311L23.5645 5.83311C21.8702 5.83311 20.8002 6.92025 20.8002 8.62899L20.8002 17.5963C20.8002 19.3125 21.8702 20.4071 23.5645 20.4071Z"
                     fill="currentColor" fill-opacity="0.85" />
              <path d="M1.42912 26.2402C2.20024 26.2402 2.84562 25.6041 2.84562 24.8278L2.84562 1.40498C2.84562 0.628701 2.20024 0 1.42912 0C0.645381 0 0 0.628701 0 1.40498L0 24.8278C0 25.6041 0.645381 26.2402 1.42912 26.2402ZM17.8568 26.2402C18.6331 26.2402 19.2784 25.6041 19.2784 24.8278L19.2784 1.40498C19.2784 0.628701 18.6331 0 17.8568 0C17.073 0 16.4254 0.628701 16.4254 1.40498L16.4254 24.8278C16.4254 25.6041 17.073 26.2402 17.8568 26.2402Z"
                     fill="currentColor" fill-opacity="0.85" />
       </g>
</svg>