<?xml version="1.0" encoding="UTF-8"?>
<!--Generator: Apple Native CoreSVG 326-->
<!DOCTYPE svg PUBLIC "-//W3C//DTD SVG 1.1//EN" "http://www.w3.org/Graphics/SVG/1.1/DTD/svg11.dtd">
<svg version="1.1" xmlns="http://www.w3.org/2000/svg" xmlns:xlink="http://www.w3.org/1999/xlink"
       viewBox="0 0 30.4765 26.2425">
       <g>
              <rect height="26.2425" opacity="0" width="30.4765" x="0" y="0" />
              <path d="M2.76428 23.6277L6.55067 23.6277C8.24504 23.6277 9.32241 22.5383 9.32241 20.8221L9.32241 5.41817C9.32241 3.70196 8.24504 2.61482 6.55067 2.61482L2.76428 2.61482C1.07737 2.61482 0 3.70196 0 5.41817L0 20.8221C0 22.5383 1.07737 23.6277 2.76428 23.6277ZM3.41918 20.7654C3.06344 20.7654 2.85484 20.562 2.85484 20.2131L2.85484 6.01217C2.85484 5.67826 3.06344 5.47713 3.41918 5.47713L5.90554 5.47713C6.25152 5.47713 6.46011 5.67826 6.46011 6.01217L6.46011 20.2131C6.46011 20.562 6.25152 20.7654 5.90554 20.7654ZM19.1919 20.4071L22.976 20.4071C24.6704 20.4071 25.7501 19.3125 25.7501 17.5963L25.7501 8.62899C25.7501 6.92025 24.6704 5.83311 22.976 5.83311L19.1919 5.83311C17.505 5.83311 16.4254 6.92025 16.4254 8.62899L16.4254 17.5963C16.4254 19.3125 17.505 20.4071 19.1919 20.4071ZM19.8445 17.5374C19.4986 17.5374 19.2877 17.3362 19.2877 16.9949L19.2877 9.23277C19.2877 8.89655 19.4986 8.68795 19.8445 8.68795L22.3309 8.68795C22.6843 8.68795 22.8952 8.89655 22.8952 9.23277L22.8952 16.9949C22.8952 17.3362 22.6843 17.5374 22.3309 17.5374Z"
                     fill="currentColor" fill-opacity="0.85" />
              <path d="M12.2584 26.2402C13.0422 26.2402 13.6875 25.6041 13.6875 24.8278L13.6875 1.40498C13.6875 0.628701 13.0422 0 12.2584 0C11.4896 0 10.8419 0.628701 10.8419 1.40498L10.8419 24.8278C10.8419 25.6041 11.4896 26.2402 12.2584 26.2402ZM28.6912 26.2402C29.4675 26.2402 30.1152 25.6041 30.1152 24.8278L30.1152 1.40498C30.1152 0.628701 29.4675 0 28.6912 0C27.915 0 27.2696 0.628701 27.2696 1.40498L27.2696 24.8278C27.2696 25.6041 27.915 26.2402 28.6912 26.2402Z"
                     fill="currentColor" fill-opacity="0.85" />
       </g>
</svg>