<?xml version="1.0" encoding="UTF-8"?>
<!--Generator: Apple Native CoreSVG 326-->
<!DOCTYPE svg PUBLIC "-//W3C//DTD SVG 1.1//EN" "http://www.w3.org/Graphics/SVG/1.1/DTD/svg11.dtd">
<svg version="1.1" xmlns="http://www.w3.org/2000/svg" xmlns:xlink="http://www.w3.org/1999/xlink"
       viewBox="0 0 27.7298 21.8651">
       <g>
              <rect height="21.8651" opacity="0" width="27.7298" x="0" y="0" />
              <path d="M3.27021 18.6311L1.41474 18.6311C0.628701 18.6311 0 17.9908 0 17.2146C0 16.4308 0.628701 15.7854 1.41474 15.7854L3.27021 15.7854ZM27.3684 17.2146C27.3684 17.9908 26.7374 18.6311 25.9612 18.6311L24.0908 18.6311L24.0908 15.7854L25.9612 15.7854C26.7374 15.7854 27.3684 16.4308 27.3684 17.2146ZM6.49596 6.06246L1.41474 6.06246C0.628701 6.06246 0 5.41707 0 4.64826C0 3.86452 0.628701 3.21683 1.41474 3.21683L6.49596 3.21683ZM27.251 4.64826C27.251 5.41707 26.62 6.06246 25.8437 6.06246L20.8725 6.06246L20.8725 3.21683L25.8437 3.21683C26.62 3.21683 27.251 3.86452 27.251 4.64826Z"
                     fill="currentColor" fill-opacity="0.85" />
              <path d="M9.2993 9.29421L18.0691 9.29421C19.7853 9.29421 20.8725 8.21684 20.8725 6.52247L20.8725 2.76428C20.8725 1.07737 19.7853 0 18.0691 0L9.2993 0C7.5831 0 6.49596 1.07737 6.49596 2.76428L6.49596 6.52247C6.49596 8.21684 7.5831 9.29421 9.2993 9.29421ZM9.89561 6.43191C9.5594 6.43191 9.35826 6.22331 9.35826 5.87733L9.35826 3.41918C9.35826 3.06344 9.5594 2.8623 9.89561 2.8623L17.4654 2.8623C17.809 2.8623 18.0102 3.06344 18.0102 3.41918L18.0102 5.87733C18.0102 6.22331 17.809 6.43191 17.4654 6.43191ZM6.07355 21.8554L21.2874 21.8554C23.0036 21.8554 24.0908 20.7757 24.0908 19.0836L24.0908 15.3254C24.0908 13.6385 23.0036 12.5588 21.2874 12.5588L6.07355 12.5588C4.35735 12.5588 3.27021 13.6385 3.27021 15.3254L3.27021 19.0836C3.27021 20.7757 4.35735 21.8554 6.07355 21.8554ZM6.67733 18.993C6.34111 18.993 6.13251 18.7821 6.13251 18.4362L6.13251 15.978C6.13251 15.6246 6.34111 15.4211 6.67733 15.4211L20.6762 15.4211C21.0199 15.4211 21.2285 15.6246 21.2285 15.978L21.2285 18.4362C21.2285 18.7821 21.0199 18.993 20.6762 18.993Z"
                     fill="currentColor" fill-opacity="0.85" />
       </g>
</svg>