<?xml version="1.0" encoding="UTF-8"?>
<!--Generator: Apple Native CoreSVG 326-->
<!DOCTYPE svg PUBLIC "-//W3C//DTD SVG 1.1//EN" "http://www.w3.org/Graphics/SVG/1.1/DTD/svg11.dtd">
<svg version="1.1" xmlns="http://www.w3.org/2000/svg" xmlns:xlink="http://www.w3.org/1999/xlink"
       viewBox="0 0 21.365 21.006">
       <g>
              <rect height="21.006" opacity="0" width="21.365" x="0" y="0" />
              <path d="M21.0037 10.4981C21.0037 16.2923 16.302 20.9962 10.4981 20.9962C4.70394 20.9962 0 16.2923 0 10.4981C0 4.70163 4.70394 0 10.4981 0C16.302 0 21.0037 4.70163 21.0037 10.4981ZM8.91183 13.9749C8.91183 14.7715 9.59585 15.3591 10.4935 15.3591C11.4199 15.3591 12.0769 14.7715 12.0769 13.9749C12.0769 13.1576 11.4222 12.5625 10.4935 12.5625C9.59585 12.5625 8.91183 13.1576 8.91183 13.9749ZM6.76115 9.35468C6.07592 9.35468 5.59522 9.84393 5.59522 10.5176C5.59522 11.204 6.08053 11.6783 6.76115 11.6783L14.2374 11.6783C14.9157 11.6783 15.401 11.204 15.401 10.5176C15.401 9.84393 14.9203 9.35468 14.2374 9.35468ZM8.91183 7.05642C8.91183 7.84556 9.59585 8.43829 10.4935 8.43829C11.4199 8.43829 12.0769 7.84556 12.0769 7.05642C12.0769 6.23678 11.4222 5.63428 10.4935 5.63428C9.59585 5.63428 8.91183 6.23908 8.91183 7.05642Z"
                     fill="currentColor" fill-opacity="0.85" />
       </g>
</svg>