<?xml version="1.0" encoding="UTF-8"?>
<!--Generator: Apple Native CoreSVG 326-->
<!DOCTYPE svg PUBLIC "-//W3C//DTD SVG 1.1//EN" "http://www.w3.org/Graphics/SVG/1.1/DTD/svg11.dtd">
<svg version="1.1" xmlns="http://www.w3.org/2000/svg" xmlns:xlink="http://www.w3.org/1999/xlink"
       viewBox="0 0 21.365 21.006">
       <g>
              <rect height="21.006" opacity="0" width="21.365" x="0" y="0" />
              <path d="M10.4981 20.9962C16.302 20.9962 21.0037 16.2946 21.0037 10.4981C21.0037 4.70163 16.302 0 10.4981 0C4.70163 0 0 4.70163 0 10.4981C0 16.2946 4.70163 20.9962 10.4981 20.9962ZM10.4981 17.9484C6.37829 17.9484 3.04785 14.6179 3.04785 10.4981C3.04785 6.37829 6.37829 3.04785 10.4981 3.04785C14.6179 3.04785 17.9558 6.37829 17.9558 10.4981C17.9558 14.6179 14.6179 17.9484 10.4981 17.9484Z"
                     fill="currentColor" fill-opacity="0.85" />
              <path d="M8.24104 15.461L13.0701 15.461C14.169 15.461 14.7807 14.8373 14.7807 13.7435L14.7807 9.97701L10.9508 9.97701C10.4038 9.97701 10.1263 9.70182 10.1263 9.15482L10.1263 5.30134L8.24104 5.30134C7.1519 5.30134 6.53041 5.92513 6.53041 7.01888L6.53041 13.7435C6.53041 14.8396 7.1519 15.461 8.24104 15.461ZM11.2752 9.12631L14.7445 9.12631C14.7301 8.8667 14.5142 8.61456 14.2155 8.31589L11.7651 5.84415C11.4911 5.56786 11.2367 5.35193 10.977 5.34501L10.977 8.82073C10.977 9.02866 11.0822 9.12631 11.2752 9.12631Z"
                     fill="currentColor" fill-opacity="0.85" />
       </g>
</svg>