<?xml version="1.0" encoding="UTF-8"?>
<!--Generator: Apple Native CoreSVG 326-->
<!DOCTYPE svg PUBLIC "-//W3C//DTD SVG 1.1//EN" "http://www.w3.org/Graphics/SVG/1.1/DTD/svg11.dtd">
<svg version="1.1" xmlns="http://www.w3.org/2000/svg" xmlns:xlink="http://www.w3.org/1999/xlink"
       viewBox="0 0 25.2265 29.1669">
       <g>
              <rect height="29.1669" opacity="0" width="25.2265" x="0" y="0" />
              <path d="M15.8189 7.67463C15.8189 8.58581 16.5316 9.29627 17.4428 9.29627L23.1491 9.29627L23.1491 18.3475C23.1491 20.5948 21.9136 21.9093 19.7283 21.9879L19.7283 16.6397C19.738 14.7187 19.2263 13.3345 18.0667 12.1703L13.1578 7.23087C11.9378 6.00404 10.5927 5.46299 8.7261 5.46299L6.85529 5.45471L6.85529 5.34653C6.85529 3.05943 8.1768 1.72409 10.4944 1.72409L15.8189 1.72409ZM18.6313 2.87916L22.0459 6.44653C22.5094 6.93008 22.8488 7.3005 22.8626 7.70253L17.9342 7.70253C17.5809 7.70253 17.4172 7.53652 17.4172 7.18089L17.4149 2.09464C17.8295 2.11878 18.2172 2.43807 18.6313 2.87916Z"
                     fill="currentColor" fill-opacity="0.85" />
              <path d="M11.0867 14.9288L17.814 14.9139C17.6768 14.3987 17.3328 13.8681 16.8509 13.3816L11.9419 8.44211C11.4502 7.94297 11.012 7.60524 10.4768 7.43067L10.4768 14.289C10.4768 14.6956 10.7025 14.9288 11.0867 14.9288ZM5.3552 27.4434L14.3708 27.4434C16.6907 27.4434 18.0099 26.1172 18.0099 23.795L18.0099 16.6472L10.6563 16.6472C9.43384 16.6472 8.75837 15.9694 8.75837 14.7493L8.75837 7.17161L5.3552 7.17161C3.0376 7.17161 1.71608 8.48797 1.71608 10.82L1.71608 23.795C1.71608 26.127 3.0376 27.4434 5.3552 27.4434Z"
                     fill="currentColor" fill-opacity="0.85" />
       </g>
</svg>