<?xml version="1.0" encoding="UTF-8"?>
<!--Generator: Apple Native CoreSVG 326-->
<!DOCTYPE svg PUBLIC "-//W3C//DTD SVG 1.1//EN" "http://www.w3.org/Graphics/SVG/1.1/DTD/svg11.dtd">
<svg version="1.1" xmlns="http://www.w3.org/2000/svg" xmlns:xlink="http://www.w3.org/1999/xlink"
       viewBox="0 0 25.2265 29.1669">
       <g>
              <rect height="29.1669" opacity="0" width="25.2265" x="0" y="0" />
              <path d="M23.1491 5.37243L23.1491 18.3475C23.1491 20.5948 21.9136 21.9093 19.7283 21.9879L19.7283 16.6397C19.7283 14.7394 19.2891 13.3996 18.0667 12.1703L13.1578 7.23087C11.8182 5.87697 10.7224 5.44807 8.75837 5.44807L6.85529 5.44807L6.85529 5.37243C6.85529 3.04045 8.1745 1.72409 10.4944 1.72409L19.51 1.72409C21.8299 1.72409 23.1491 3.04045 23.1491 5.37243ZM12.9178 3.91772C12.3986 3.91772 12.1436 4.38513 12.1436 4.68041L12.1436 4.93025C12.1436 5.32767 12.4657 5.69294 12.9178 5.69294L17.094 5.69294C17.5363 5.69294 17.8682 5.32767 17.8682 4.93025L17.8682 4.68041C17.8682 4.38513 17.6109 3.91772 17.094 3.91772Z"
                     fill="currentColor" fill-opacity="0.85" />
              <path d="M1.71608 23.795C1.71608 26.127 3.0376 27.4434 5.3552 27.4434L14.3708 27.4434C16.6907 27.4434 18.0099 26.1172 18.0099 23.795L18.0099 16.6472L10.6563 16.6472C9.43384 16.6472 8.75837 15.9694 8.75837 14.7493L8.75837 7.17161L5.3552 7.17161C3.0376 7.17161 1.71608 8.48797 1.71608 10.82ZM11.0867 14.9288L17.814 14.9139C17.6768 14.3987 17.3328 13.8681 16.8509 13.3816L11.9419 8.44211C11.4502 7.94297 11.012 7.60524 10.4768 7.43067L10.4768 14.289C10.4768 14.6956 10.7025 14.9288 11.0867 14.9288Z"
                     fill="currentColor" fill-opacity="0.85" />
       </g>
</svg>