<?xml version="1.0" encoding="UTF-8"?>
<!--Generator: Apple Native CoreSVG 326-->
<!DOCTYPE svg PUBLIC "-//W3C//DTD SVG 1.1//EN" "http://www.w3.org/Graphics/SVG/1.1/DTD/svg11.dtd">
<svg version="1.1" xmlns="http://www.w3.org/2000/svg" xmlns:xlink="http://www.w3.org/1999/xlink"
       viewBox="0 0 21.7869 25.7198">
       <g>
              <rect height="25.7198" opacity="0" width="21.7869" x="0" y="0" />
              <path d="M21.4255 3.64889L21.4255 16.6239C21.4255 18.9462 20.1115 20.2723 17.7864 20.2723L16.2938 20.2723L16.2938 14.9145C16.2938 13.4183 16.0652 12.5954 15.1273 11.6529L10.1195 6.61454C9.19079 5.68123 8.34427 5.44807 6.89987 5.44807L5.13921 5.44807L5.13921 3.64889C5.13921 1.3169 6.45096 0.000545979 8.77833 0.000545979L17.7864 0.000545979C20.1115 0.000545979 21.4255 1.3169 21.4255 3.64889ZM11.2017 2.19417C10.675 2.19417 10.4275 2.66159 10.4275 2.95686L10.4275 3.2067C10.4275 3.60412 10.7497 3.96939 11.2017 3.96939L15.3705 3.96939C15.8128 3.96939 16.1447 3.60412 16.1447 3.2067L16.1447 2.95686C16.1447 2.66159 15.8949 2.19417 15.3705 2.19417Z"
                     fill="currentColor" fill-opacity="0.85" />
              <path d="M0 22.0715C0 24.4034 1.31921 25.7198 3.63912 25.7198L12.6547 25.7198C14.9746 25.7198 16.2938 24.3937 16.2938 22.0715L16.2938 14.9145C16.2938 13.4183 16.0652 12.5954 15.1273 11.6529L10.1195 6.61454C9.19079 5.68123 8.34427 5.44807 6.89987 5.44807L3.63912 5.44807C1.32151 5.44807 0 6.76443 0 9.09641ZM3.01964 21.6617L3.01964 9.5039C3.01964 8.82291 3.32832 8.46771 4.0679 8.46771L6.41304 8.46771L6.41304 12.7814C6.41304 14.7281 7.32155 15.6268 9.25618 15.6268L13.2667 15.6268L13.2667 21.6617C13.2667 22.3473 12.9557 22.7002 12.2259 22.7002L4.0656 22.7002C3.32832 22.7002 3.01964 22.3473 3.01964 21.6617ZM9.45665 13.2495C9.0138 13.2495 8.7904 13.0335 8.7904 12.5832L8.7904 8.88873L13.1206 13.2495Z"
                     fill="currentColor" fill-opacity="0.85" />
       </g>
</svg>