<?xml version="1.0" encoding="UTF-8"?>
<!--Generator: Apple Native CoreSVG 326-->
<!DOCTYPE svg PUBLIC "-//W3C//DTD SVG 1.1//EN" "http://www.w3.org/Graphics/SVG/1.1/DTD/svg11.dtd">
<svg version="1.1" xmlns="http://www.w3.org/2000/svg" xmlns:xlink="http://www.w3.org/1999/xlink"
       viewBox="0 0 20.4449 20.1008">
       <g>
              <rect height="20.1008" opacity="0" width="20.4449" x="0" y="0" />
              <path d="M1.5124 7.49133C2.49254 7.49133 3.01964 6.95216 3.01964 5.96686L3.01964 4.07997C3.01964 3.34785 3.37024 3.03918 4.05583 3.03918L5.96401 3.03918C6.95907 3.03918 7.48848 2.50231 7.48848 1.52447C7.48848 0.546633 6.95907 0.0195312 5.96401 0.0195312L3.64834 0.0195312C1.32382 0.0195312 0 1.33128 0 3.65635L0 5.96686C0 6.95962 0.536867 7.49133 1.5124 7.49133ZM18.5763 7.49133C19.5564 7.49133 20.0835 6.95962 20.0835 5.96686L20.0835 3.65635C20.0835 1.33128 18.7672 0.0195312 16.4352 0.0195312L14.1172 0.0195312C13.1319 0.0195312 12.595 0.546633 12.595 1.52447C12.595 2.50231 13.1394 3.03918 14.1172 3.03918L16.0254 3.03918C16.7087 3.03918 17.0639 3.34785 17.0639 4.07997L17.0639 5.96686C17.0639 6.95962 17.6007 7.49133 18.5763 7.49133ZM3.64834 20.1008L5.96401 20.1008C6.95907 20.1008 7.48848 19.5639 7.48848 18.5884C7.48848 17.6105 6.94415 17.0811 5.96401 17.0811L4.05583 17.0811C3.37024 17.0811 3.01964 16.7724 3.01964 16.0329L3.01964 14.146C3.01964 13.1584 2.49024 12.6215 1.5124 12.6215C0.527102 12.6215 0 13.1584 0 14.146L0 16.4616C0 18.7815 1.32382 20.1008 3.64834 20.1008ZM14.1172 20.1008L16.4352 20.1008C18.7672 20.1008 20.0835 18.7792 20.0835 16.4616L20.0835 14.146C20.0835 13.1584 19.5541 12.6215 18.5763 12.6215C17.5984 12.6215 17.0639 13.1658 17.0639 14.146L17.0639 16.0329C17.0639 16.7724 16.7087 17.0811 16.0254 17.0811L14.1172 17.0811C13.1319 17.0811 12.595 17.6105 12.595 18.5884C12.595 19.5639 13.1319 20.1008 14.1172 20.1008Z"
                     fill="currentColor" fill-opacity="0.85" />
              <path d="M7.70314 15.3667L12.7751 15.3667C13.9533 15.3667 14.5979 14.7101 14.5979 13.5147L14.5979 9.39678C14.5979 8.63045 14.4732 8.26627 14.0389 7.81475L11.5809 5.29813C11.161 4.87821 10.748 4.72426 10.0621 4.72426L7.70314 4.72426C6.53466 4.72426 5.88036 5.38086 5.88036 6.57403L5.88036 13.5147C5.88036 14.7101 6.53466 15.3667 7.70314 15.3667ZM7.7422 13.8355C7.51966 13.8355 7.40926 13.7228 7.40926 13.5049L7.40926 6.5861C7.40926 6.36816 7.52196 6.248 7.75943 6.248L9.5728 6.248L9.5728 8.54474C9.5728 9.33115 10.0473 9.8056 10.8434 9.8056L13.0764 9.8056L13.0764 13.5049C13.0764 13.7228 12.9586 13.8355 12.7262 13.8355ZM11.1816 8.34045C11.0868 8.34045 11.0454 8.30139 11.0454 8.20658L11.0454 6.89175L12.4527 8.34045Z"
                     fill="currentColor" fill-opacity="0.85" />
       </g>
</svg>