<?xml version="1.0" encoding="UTF-8"?>
<!--Generator: Apple Native CoreSVG 326-->
<!DOCTYPE svg PUBLIC "-//W3C//DTD SVG 1.1//EN" "http://www.w3.org/Graphics/SVG/1.1/DTD/svg11.dtd">
<svg version="1.1" xmlns="http://www.w3.org/2000/svg" xmlns:xlink="http://www.w3.org/1999/xlink"
       viewBox="0 0 21.365 21.006">
       <g>
              <rect height="21.006" opacity="0" width="21.365" x="0" y="0" />
              <path d="M21.0037 10.4981C21.0037 16.2923 16.302 20.9962 10.4981 20.9962C4.70394 20.9962 0 16.2923 0 10.4981C0 4.70163 4.70394 0 10.4981 0C16.302 0 21.0037 4.70163 21.0037 10.4981ZM8.09061 4.97119C6.9251 4.97119 6.26171 5.62943 6.26171 6.8047L6.26171 13.9577C6.26171 15.1376 6.9251 15.7912 8.09061 15.7912L13.2251 15.7912C14.4004 15.7912 15.054 15.133 15.054 13.9577L15.054 9.95979L10.9704 9.95979C10.3964 9.95979 10.0942 9.6599 10.0942 9.07615L10.0942 4.97119ZM11.0017 8.71967C11.0017 8.93737 11.1166 9.04248 11.3245 9.04248L15.0155 9.04248C15.0012 8.76565 14.7778 8.48882 14.4619 8.17292L11.8489 5.55361C11.5502 5.25263 11.2786 5.02178 11.0017 5.0074Z"
                     fill="currentColor" fill-opacity="0.85" />
       </g>
</svg>