<?xml version="1.0" encoding="UTF-8"?>
<!--Generator: Apple Native CoreSVG 326-->
<!DOCTYPE svg PUBLIC "-//W3C//DTD SVG 1.1//EN" "http://www.w3.org/Graphics/SVG/1.1/DTD/svg11.dtd">
<svg version="1.1" xmlns="http://www.w3.org/2000/svg" xmlns:xlink="http://www.w3.org/1999/xlink"
       viewBox="0 0 24.6449 23.5952">
       <g>
              <rect height="23.5952" opacity="0" width="24.6449" x="0" y="0" />
              <path d="M1.94045 20.4256L22.5744 20.4256L22.5744 19.4355C22.5744 18.8957 22.2379 18.5718 21.7032 18.5718L21.3244 18.5718L21.3244 7.89293L22.1092 7.89293C22.9074 7.89293 23.3841 7.28595 23.3841 6.69158C23.3841 6.25686 23.136 5.85374 22.6254 5.55167L13.7186 0.416404C13.2683 0.154491 12.7462 0 12.2563 0C11.7664 0 11.242 0.154491 10.7963 0.416404L1.88944 5.55167C1.37659 5.85374 1.13081 6.25686 1.13081 6.69158C1.13081 7.28595 1.60745 7.89293 2.41314 7.89293L3.19045 7.89293L3.19045 18.5718L2.81396 18.5718C2.27927 18.5718 1.94045 18.8957 1.94045 19.4355ZM5.29922 18.5718L5.29922 6.39673L12.047 2.62732C12.1194 2.5888 12.1965 2.57212 12.2563 2.57212C12.331 2.57212 12.3931 2.5888 12.4679 2.62732L19.2157 6.39673L19.2157 18.5718ZM1.20651 23.5854L23.0673 23.5854C23.7134 23.5854 24.2836 23.0525 24.2836 22.3766C24.2836 21.7231 23.7134 21.1701 23.0673 21.1701L1.20651 21.1701C0.553002 21.1701 0 21.7231 0 22.3766C0 23.045 0.553002 23.5854 1.20651 23.5854Z"
                     fill="currentColor" fill-opacity="0.85" />
              <path d="M12.1863 15.6974C13.9285 15.6974 15.647 14.9506 15.647 13.1366C15.647 11.662 14.5922 11.118 13.1126 10.7906L12.2221 10.5981C11.283 10.3879 10.8364 10.1534 10.8364 9.65105C10.8364 9.10381 11.4221 8.83541 12.2161 8.83541C12.8197 8.83541 13.3569 9.04643 13.628 9.55109C13.8451 9.90605 14.1425 10.1122 14.5554 10.1122C15.001 10.1122 15.411 9.87159 15.411 9.39551C15.411 8.16789 13.899 7.3389 12.1863 7.3389C10.5021 7.3389 8.9145 8.17304 8.9145 9.83593C8.9145 11.2985 10.0308 11.9349 11.3961 12.2204L12.2963 12.4128C13.0908 12.5732 13.7349 12.7514 13.7349 13.3514C13.7349 13.9533 13.0975 14.2032 12.223 14.2032C11.4616 14.2032 10.9875 14.0055 10.7329 13.4783C10.5113 13.101 10.2557 12.8943 9.83538 12.8943C9.31344 12.8943 8.93731 13.1843 8.93731 13.7154C8.93731 13.9003 8.98668 14.0823 9.07567 14.2644C9.47891 15.1506 10.6757 15.6974 12.1863 15.6974ZM12.2511 16.7402C12.3971 16.7402 12.5212 16.6161 12.5212 16.4776L12.5212 6.54328C12.5212 6.39503 12.3971 6.27324 12.2511 6.27324C12.1127 6.27324 11.9886 6.39503 11.9886 6.54328L11.9886 16.4776C11.9886 16.6161 12.1127 16.7402 12.2511 16.7402Z"
                     fill="currentColor" fill-opacity="0.85" />
       </g>
</svg>