<?xml version="1.0" encoding="UTF-8"?>
<!--Generator: Apple Native CoreSVG 326-->
<!DOCTYPE svg PUBLIC "-//W3C//DTD SVG 1.1//EN" "http://www.w3.org/Graphics/SVG/1.1/DTD/svg11.dtd">
<svg version="1.1" xmlns="http://www.w3.org/2000/svg" xmlns:xlink="http://www.w3.org/1999/xlink"
       viewBox="0 0 25.2371 20.7933">
       <g>
              <rect height="20.7933" opacity="0" width="25.2371" x="0" y="0" />
              <path d="M24.8758 12.4367C24.8758 9.44627 23.8182 6.68788 22.0375 4.53265C21.79 4.23112 21.3535 4.23112 21.0491 4.53034L18.6193 6.95264C18.3592 7.2128 18.3569 7.55853 18.5677 7.83822C19.5288 9.12728 20.1044 10.7185 20.1044 12.4367C20.1044 14.2244 19.4989 15.8753 18.4419 17.2029C18.2306 17.4808 18.2329 17.8225 18.4764 18.0683L20.92 20.5119C21.2117 20.8036 21.6459 20.8036 21.9256 20.4849C23.766 18.3147 24.8758 15.5116 24.8758 12.4367Z"
                     fill="currentColor" fill-opacity="0.85" />
              <path d="M12.4367 4.77139C14.1745 4.77139 15.7732 5.34932 17.0646 6.32534C17.3345 6.52635 17.6779 6.50682 17.9231 6.25413L20.3454 3.82437C20.6521 3.52515 20.6424 3.07605 20.311 2.81359C18.1655 1.05754 15.422 0 12.4367 0C9.45373 0 6.71026 1.05754 4.57225 2.81359C4.24089 3.07605 4.22366 3.52515 4.53034 3.82437L6.95264 6.25413C7.19787 6.50682 7.55853 6.52635 7.84052 6.31557C9.12213 5.34932 10.7185 4.77139 12.4367 4.77139Z"
                     fill="currentColor" fill-opacity="0.85" />
              <path d="M0 12.4367C0 15.519 1.12468 18.3446 2.98003 20.5147C3.23503 20.8186 3.66405 20.8036 3.96096 20.5119L6.39709 18.0683C6.64057 17.8225 6.65264 17.4808 6.43385 17.2029C5.38432 15.8753 4.77139 14.2244 4.77139 12.4367C4.77139 10.7185 5.34471 9.12728 6.30811 7.83822C6.51658 7.55853 6.51658 7.2128 6.25643 6.95264L3.82667 4.53034C3.52745 4.23112 3.07836 4.23859 2.80844 4.56995C1.05008 6.71026 0 9.45373 0 12.4367Z"
                     fill="currentColor" fill-opacity="0.85" />
              <path d="M12.3644 16.4955C14.0969 16.4955 15.8252 15.7487 15.8252 13.9348C15.8252 12.4601 14.7681 11.9236 13.2833 11.5887L12.3905 11.3962C11.4588 11.186 11.0122 10.9515 11.0122 10.4492C11.0122 9.90192 11.5905 9.63352 12.3868 9.63352C12.988 9.63352 13.5253 9.84454 13.7964 10.3492C14.0209 10.7042 14.3109 10.9178 14.7238 10.9178C15.1791 10.9178 15.5868 10.6697 15.5868 10.1936C15.5868 8.966 14.0674 8.13701 12.3644 8.13701C10.6728 8.13701 9.08288 8.97115 9.08288 10.634C9.08288 12.0966 10.2089 12.733 11.5667 13.0185L12.4744 13.211C13.2615 13.3713 13.9107 13.5495 13.9107 14.1495C13.9107 14.7514 13.2733 15.0013 12.3914 15.0013C11.6323 15.0013 11.1559 14.8036 10.9036 14.2764C10.6797 13.8991 10.4339 13.6924 10.0135 13.6924C9.48928 13.6924 9.10569 13.9824 9.10569 14.5135C9.10569 14.6984 9.15737 14.8804 9.24635 15.0625C9.64729 15.9487 10.8539 16.4955 12.3644 16.4955ZM12.427 17.5383C12.5678 17.5383 12.6919 17.4142 12.6919 17.2757L12.6919 7.34139C12.6919 7.19314 12.5678 7.07135 12.427 7.07135C12.281 7.07135 12.1569 7.19314 12.1569 7.34139L12.1569 17.2757C12.1569 17.4142 12.281 17.5383 12.427 17.5383Z"
                     fill="currentColor" fill-opacity="0.85" />
       </g>
</svg>