<?xml version="1.0" encoding="UTF-8"?>
<!--Generator: Apple Native CoreSVG 326-->
<!DOCTYPE svg PUBLIC "-//W3C//DTD SVG 1.1//EN" "http://www.w3.org/Graphics/SVG/1.1/DTD/svg11.dtd">
<svg version="1.1" xmlns="http://www.w3.org/2000/svg" xmlns:xlink="http://www.w3.org/1999/xlink"
       viewBox="0 0 25.2371 20.7338">
       <g>
              <rect height="20.7338" opacity="0" width="25.2371" x="0" y="0" />
              <path d="M24.8758 12.3846C24.8758 5.93383 19.9627 0.631336 13.6785 0.00415235C13.2541-0.040066 12.9302 0.274072 12.9302 0.698483L12.9302 4.13058C12.9302 4.48379 13.1829 4.74109 13.5286 4.79046C17.2465 5.32405 20.1044 8.51741 20.1044 12.3846C20.1044 14.1648 19.4989 15.8157 18.4419 17.1359C18.2306 17.4138 18.2329 17.7555 18.4764 18.0012L20.9223 20.4523C21.2117 20.7567 21.6557 20.7417 21.9256 20.4328C23.7735 18.2551 24.8758 15.452 24.8758 12.3846Z"
                     fill="currentColor" fill-opacity="0.85" />
              <path d="M0 12.3846C0 15.4543 1.1023 18.2574 2.94273 20.4276C3.21265 20.7366 3.65429 20.7417 3.9535 20.4448L6.39194 17.9938C6.63541 17.748 6.63772 17.4063 6.42639 17.1284C5.38201 15.8157 4.77139 14.1648 4.77139 12.3846C4.77139 8.51741 7.63678 5.32405 11.3472 4.79046C11.7004 4.74109 11.9456 4.48379 11.9456 4.13058L11.9456 0.698483C11.9456 0.274072 11.6217-0.040066 11.1973 0.00415235C4.92054 0.631336 0 5.93383 0 12.3846Z"
                     fill="currentColor" fill-opacity="0.85" />
              <path d="M12.3644 16.4658C14.0969 16.4658 15.8252 15.719 15.8252 13.905C15.8252 12.4304 14.7681 11.8938 13.2833 11.5589L12.3905 11.3665C11.4588 11.1563 11.0122 10.9218 11.0122 10.4194C11.0122 9.87217 11.5905 9.60376 12.3868 9.60376C12.988 9.60376 13.5253 9.81479 13.7964 10.3194C14.0209 10.6744 14.3109 10.888 14.7238 10.888C15.1791 10.888 15.5868 10.64 15.5868 10.1639C15.5868 8.93624 14.0674 8.10726 12.3644 8.10726C10.6728 8.10726 9.08288 8.9414 9.08288 10.6043C9.08288 12.0668 10.2089 12.7032 11.5667 12.9887L12.4744 13.1812C13.2615 13.3415 13.9107 13.5197 13.9107 14.1197C13.9107 14.7216 13.2733 14.9716 12.3914 14.9716C11.6323 14.9716 11.1559 14.7738 10.9036 14.2467C10.6797 13.8693 10.4339 13.6626 10.0135 13.6626C9.48928 13.6626 9.10569 13.9526 9.10569 14.4838C9.10569 14.6687 9.15737 14.8507 9.24635 15.0327C9.64729 15.9189 10.8539 16.4658 12.3644 16.4658ZM12.427 17.5085C12.5678 17.5085 12.6919 17.3844 12.6919 17.2459L12.6919 7.31163C12.6919 7.16339 12.5678 7.04159 12.427 7.04159C12.281 7.04159 12.1569 7.16339 12.1569 7.31163L12.1569 17.2459C12.1569 17.3844 12.281 17.5085 12.427 17.5085Z"
                     fill="currentColor" fill-opacity="0.85" />
       </g>
</svg>