<?xml version="1.0" encoding="UTF-8"?>
<!--Generator: Apple Native CoreSVG 326-->
<!DOCTYPE svg PUBLIC "-//W3C//DTD SVG 1.1//EN" "http://www.w3.org/Graphics/SVG/1.1/DTD/svg11.dtd">
<svg version="1.1" xmlns="http://www.w3.org/2000/svg" xmlns:xlink="http://www.w3.org/1999/xlink"
       viewBox="0 0 19.3993 19.0529">
       <g>
              <rect height="19.0529" opacity="0" width="19.3993" x="0" y="0" />
              <path d="M3.64834 19.0379L15.3896 19.0379C17.7164 19.0379 19.0379 17.7262 19.0379 15.4011L19.0379 3.63912C19.0379 1.32151 17.7164 0 15.3896 0L3.64834 0C1.32382 0 0 1.32151 0 3.63912L0 15.4011C0 17.7262 1.32382 19.0379 3.64834 19.0379ZM4.05583 16.0183C3.37024 16.0183 3.01964 15.7096 3.01964 14.9775L3.01964 4.07021C3.01964 3.33809 3.37024 3.0271 4.05583 3.0271L14.9821 3.0271C15.6654 3.0271 16.0183 3.33809 16.0183 4.07021L16.0183 14.9775C16.0183 15.7096 15.6654 16.0183 14.9821 16.0183Z"
                     fill="currentColor" fill-opacity="0.85" />
              <path d="M9.45385 13.6623C11.1863 13.6623 12.9123 12.9132 12.9123 11.0917C12.9123 9.61944 11.8575 9.08288 10.3727 8.75546L9.47994 8.56069C8.54826 8.35046 8.10165 8.1085 8.10165 7.61592C8.10165 7.06868 8.67994 6.79797 9.47624 6.79797C10.0775 6.79797 10.6147 7.00899 10.8858 7.51595C11.1103 7.86861 11.4003 8.07478 11.8132 8.07478C12.2685 8.07478 12.6763 7.83646 12.6763 7.35291C12.6763 6.12529 11.1568 5.30377 9.45385 5.30377C7.76222 5.30377 6.1723 6.13791 6.1723 7.79849C6.1723 9.26103 7.29832 9.89974 8.65617 10.1829L9.56152 10.3702C10.3509 10.538 11.0002 10.7162 11.0002 11.3139C11.0002 11.9107 10.3627 12.1681 9.48085 12.1681C8.72174 12.1681 8.24528 11.968 7.99071 11.4409C7.76907 11.0658 7.52099 10.8568 7.10295 10.8568C6.5787 10.8568 6.19511 11.1417 6.19511 11.678C6.19511 11.8652 6.24448 12.0449 6.33577 12.2292C6.73671 13.108 7.94097 13.6623 9.45385 13.6623ZM9.51639 14.705C9.65487 14.705 9.77897 14.5809 9.77897 14.4425L9.77897 4.50584C9.77897 4.3599 9.65487 4.2358 9.51639 4.2358C9.37045 4.2358 9.25381 4.3599 9.25381 4.50584L9.25381 14.4425C9.25381 14.5809 9.37045 14.705 9.51639 14.705Z"
                     fill="currentColor" fill-opacity="0.85" />
       </g>
</svg>