<?xml version="1.0" encoding="UTF-8"?>
<!--Generator: Apple Native CoreSVG 326-->
<!DOCTYPE svg PUBLIC "-//W3C//DTD SVG 1.1//EN" "http://www.w3.org/Graphics/SVG/1.1/DTD/svg11.dtd">
<svg version="1.1" xmlns="http://www.w3.org/2000/svg" xmlns:xlink="http://www.w3.org/1999/xlink"
       viewBox="0 0 21.365 21.006">
       <g>
              <rect height="21.006" opacity="0" width="21.365" x="0" y="0" />
              <path d="M21.0037 10.4981C21.0037 16.2923 16.302 20.9962 10.4981 20.9962C4.70394 20.9962 0 16.2923 0 10.4981C0 4.70163 4.70394 0 10.4981 0C16.302 0 21.0037 4.70163 21.0037 10.4981ZM10.1959 5.14479L10.1959 6.00416C8.4728 6.07889 6.90715 6.96526 6.90715 8.66423C6.90715 10.2204 8.09977 10.9061 9.56382 11.214L10.1959 11.3421L10.1959 13.2997C9.52822 13.2589 9.10696 13.037 8.86161 12.553C8.63021 12.1458 8.35974 11.9195 7.90725 11.9195C7.34569 11.9195 6.94488 12.2291 6.94488 12.7975C6.94488 13.0019 6.99425 13.1891 7.093 13.3958C7.50425 14.2785 8.66933 14.8547 10.1959 14.9076L10.1959 15.7492C10.1959 15.8951 10.3275 16.029 10.4832 16.029C10.6389 16.029 10.7705 15.8951 10.7705 15.7492L10.7705 14.9001C12.4919 14.8024 14.111 13.9965 14.111 12.1791C14.111 10.5983 12.9799 10.0348 11.4038 9.68265L10.7705 9.53968L10.7705 7.62696C11.27 7.685 11.7044 7.91841 11.9336 8.36447C12.173 8.73435 12.4877 8.96521 12.9402 8.96521C13.4179 8.96521 13.8601 8.70967 13.8601 8.18651C13.8601 6.97041 12.4538 6.12365 10.7705 6.01162L10.7705 5.14479C10.7705 4.99885 10.6389 4.87244 10.4832 4.87244C10.3275 4.87244 10.1959 4.99885 10.1959 5.14479ZM10.8756 11.488C11.5381 11.6432 12.0554 11.861 12.0554 12.4162C12.0554 12.9721 11.5317 13.2486 10.7705 13.3095L10.7705 11.4662ZM10.1959 9.41327L10.0828 9.37882C9.35486 9.18867 8.98001 8.93694 8.98001 8.46443C8.98001 7.95517 9.47029 7.67469 10.1959 7.61203Z"
                     fill="currentColor" fill-opacity="0.85" />
       </g>
</svg>