<?xml version="1.0" encoding="UTF-8"?>
<!--Generator: Apple Native CoreSVG 326-->
<!DOCTYPE svg PUBLIC "-//W3C//DTD SVG 1.1//EN" "http://www.w3.org/Graphics/SVG/1.1/DTD/svg11.dtd">
<svg version="1.1" xmlns="http://www.w3.org/2000/svg" xmlns:xlink="http://www.w3.org/1999/xlink"
       viewBox="0 0 15.4573 19.2985">
       <g>
              <rect height="19.2985" opacity="0" width="15.4573" x="0" y="0" />
              <path d="M5.39851 16.8132C7.06188 16.8132 8.57719 16.1621 9.20856 14.835L9.30446 14.835L9.31192 15.3588C9.45367 16.3809 10.168 16.9334 11.2129 16.931C12.3348 16.931 13.1461 16.2988 13.1461 14.9433L13.1461 3.03207L14.5358 3.02977C14.8524 3.02977 15.096 2.79594 15.096 2.48914C15.096 2.17488 14.8524 1.94852 14.5358 1.94852L13.1312 1.95082L13.1163 1.59865C13.0044 0.522067 12.216 0 11.1963 0C10.1071 0 9.41054 0.581753 9.28371 1.60611L9.27625 1.95082L6.01284 1.95082C5.69627 1.95082 5.45268 2.17719 5.45268 2.49145C5.45268 2.80055 5.69627 3.03207 6.01284 3.03207L9.26133 3.03207L9.26133 6.6476L9.18035 6.6476C8.60637 5.189 7.02664 4.60173 5.39851 4.60173C2.18453 4.60173 0 7.16888 0 10.6802C0 14.2158 2.15711 16.8132 5.39851 16.8132ZM6.61903 13.7923C4.9789 13.7923 3.95314 12.3852 3.95314 10.6802C3.95314 8.96181 4.955 7.53822 6.61903 7.53822C8.2676 7.53822 9.2711 8.97752 9.2711 10.6802C9.2711 12.3685 8.22514 13.7923 6.61903 13.7923ZM0.991484 18.7337C0.991484 19.0452 1.22762 19.279 1.54649 19.279L13.1598 19.279C13.4787 19.279 13.7223 19.0428 13.7223 18.7337C13.7223 18.4172 13.4787 18.181 13.1598 18.181L1.54649 18.181C1.22762 18.181 0.991484 18.4172 0.991484 18.7337Z"
                     fill="currentColor" fill-opacity="0.85" />
       </g>
</svg>