<?xml version="1.0" encoding="UTF-8"?>
<!--Generator: Apple Native CoreSVG 326-->
<!DOCTYPE svg PUBLIC "-//W3C//DTD SVG 1.1//EN" "http://www.w3.org/Graphics/SVG/1.1/DTD/svg11.dtd">
<svg version="1.1" xmlns="http://www.w3.org/2000/svg" xmlns:xlink="http://www.w3.org/1999/xlink"
       viewBox="0 0 25.2371 20.7933">
       <g>
              <rect height="20.7933" opacity="0" width="25.2371" x="0" y="0" />
              <path d="M24.8758 12.4367C24.8758 9.44627 23.8182 6.68788 22.0375 4.53265C21.79 4.23112 21.3535 4.23112 21.0491 4.53034L18.6193 6.95264C18.3592 7.2128 18.3569 7.55853 18.5677 7.83822C19.5288 9.12728 20.1044 10.7185 20.1044 12.4367C20.1044 14.2244 19.4989 15.8753 18.4419 17.2029C18.2306 17.4808 18.2329 17.8225 18.4764 18.0683L20.92 20.5119C21.2117 20.8036 21.6459 20.8036 21.9256 20.4849C23.766 18.3147 24.8758 15.5116 24.8758 12.4367Z"
                     fill="currentColor" fill-opacity="0.85" />
              <path d="M12.4367 4.77139C14.1745 4.77139 15.7732 5.34932 17.0646 6.32534C17.3345 6.52635 17.6779 6.50682 17.9231 6.25413L20.3454 3.82437C20.6521 3.52515 20.6424 3.07605 20.311 2.81359C18.1655 1.05754 15.422 0 12.4367 0C9.45373 0 6.71026 1.05754 4.57225 2.81359C4.24089 3.07605 4.22366 3.52515 4.53034 3.82437L6.95264 6.25413C7.19787 6.50682 7.55853 6.52635 7.84052 6.31557C9.12213 5.34932 10.7185 4.77139 12.4367 4.77139Z"
                     fill="currentColor" fill-opacity="0.85" />
              <path d="M0 12.4367C0 15.519 1.12468 18.3446 2.98003 20.5147C3.23503 20.8186 3.66405 20.8036 3.96096 20.5119L6.39709 18.0683C6.64057 17.8225 6.65264 17.4808 6.43385 17.2029C5.38432 15.8753 4.77139 14.2244 4.77139 12.4367C4.77139 10.7185 5.34471 9.12728 6.30811 7.83822C6.51658 7.55853 6.51658 7.2128 6.25643 6.95264L3.82667 4.53034C3.52745 4.23112 3.07836 4.23859 2.80844 4.56995C1.05008 6.71026 0 9.45373 0 12.4367Z"
                     fill="currentColor" fill-opacity="0.85" />
              <path d="M11.4627 15.7238C12.1907 15.7238 12.9495 15.4589 13.2828 14.7919L13.3195 14.7919L13.3344 15.0353C13.4091 15.5096 13.768 15.779 14.2572 15.779C14.8509 15.779 15.1949 15.4126 15.1949 14.8189L15.1949 9.11588L15.8504 9.11588C16.0061 9.11588 16.1227 9.0067 16.1227 8.8533C16.1227 8.71252 16.0061 8.60048 15.8504 8.60048L15.1874 8.60048L15.1725 8.43138C15.1054 7.91798 14.7809 7.66584 14.2451 7.66584C13.7191 7.66584 13.3947 7.91798 13.3201 8.43138L13.3126 8.60048L11.7607 8.60048C11.605 8.60048 11.4958 8.71252 11.4958 8.8533C11.4958 9.00154 11.605 9.11588 11.7607 9.11588L13.3051 9.11588L13.3051 10.832L13.2638 10.832C12.9891 10.1398 12.228 9.87026 11.4627 9.87026C9.88081 9.87026 8.87823 11.1029 8.87823 12.781C8.87823 14.4744 9.90077 15.7238 11.4627 15.7238ZM12.057 14.2566C11.2995 14.2566 10.7921 13.6383 10.7921 12.781C10.7921 11.9024 11.3179 11.2904 12.057 11.2904C12.8173 11.2904 13.3051 11.9398 13.3051 12.781C13.3051 13.6429 12.7914 14.2566 12.057 14.2566ZM9.34128 16.6494C9.34128 16.7999 9.46022 16.9142 9.61593 16.9142L15.1885 16.9142C15.3442 16.9142 15.4632 16.7976 15.4632 16.6494C15.4632 16.4937 15.3442 16.377 15.1885 16.377L9.61593 16.377C9.46022 16.377 9.34128 16.4937 9.34128 16.6494Z"
                     fill="currentColor" fill-opacity="0.85" />
       </g>
</svg>