<?xml version="1.0" encoding="UTF-8"?>
<!--Generator: Apple Native CoreSVG 326-->
<!DOCTYPE svg PUBLIC "-//W3C//DTD SVG 1.1//EN" "http://www.w3.org/Graphics/SVG/1.1/DTD/svg11.dtd">
<svg version="1.1" xmlns="http://www.w3.org/2000/svg" xmlns:xlink="http://www.w3.org/1999/xlink"
       viewBox="0 0 24.6449 23.5952">
       <g>
              <rect height="23.5952" opacity="0" width="24.6449" x="0" y="0" />
              <path d="M13.7186 0.416404L22.6254 5.55167C23.136 5.85374 23.3841 6.25686 23.3841 6.69158C23.3841 7.28595 22.9074 7.89293 22.1092 7.89293L21.3244 7.89293L21.3244 19.392L21.7032 19.392C22.2379 19.392 22.5744 19.7159 22.5744 20.2632L22.5744 21.1701L23.0673 21.1701C23.7134 21.1701 24.2836 21.7231 24.2836 22.3766C24.2836 23.0525 23.7134 23.5854 23.0673 23.5854L1.20651 23.5854C0.553002 23.5854 0 23.045 0 22.3766C0 21.7231 0.553002 21.1701 1.20651 21.1701L1.94045 21.1701L1.94045 20.2632C1.94045 19.7159 2.27927 19.392 2.81396 19.392L3.19045 19.392L3.19045 7.89293L2.41314 7.89293C1.60745 7.89293 1.13081 7.28595 1.13081 6.69158C1.13081 6.25686 1.37659 5.85374 1.88944 5.55167L10.7963 0.416404C11.242 0.154491 11.7664 0 12.2563 0C12.7462 0 13.2683 0.154491 13.7186 0.416404ZM9.24259 17.2539C9.07482 17.2539 8.95356 17.3729 8.95356 17.5309C8.95356 17.6963 9.07482 17.8228 9.24259 17.8228L15.2102 17.8228C15.3733 17.8228 15.4946 17.6963 15.4946 17.5309C15.4946 17.3729 15.3733 17.2539 15.2102 17.2539ZM13.1959 8.77603L13.1884 8.94744L11.5332 8.94744C11.3775 8.94744 11.2534 9.07154 11.2534 9.22494C11.2534 9.37549 11.3775 9.49959 11.5332 9.49959L13.181 9.49959L13.181 11.334L13.1419 11.334C12.8403 10.5901 12.0297 10.3033 11.2105 10.3033C9.53216 10.3033 8.46067 11.6221 8.46067 13.4087C8.46067 15.2181 9.54751 16.5439 11.2105 16.5439C11.9901 16.5439 12.803 16.2692 13.1511 15.5603L13.1977 15.5603L13.2051 15.8083C13.2947 16.3222 13.6782 16.6186 14.1996 16.6186C14.8404 16.6186 15.2091 16.2178 15.2091 15.577L15.2091 9.49959L15.914 9.49959C16.0771 9.49959 16.1938 9.38065 16.1938 9.22494C16.1938 9.07154 16.0771 8.94744 15.914 8.94744L15.1942 8.94744L15.1867 8.77603C15.1196 8.22533 14.7607 7.95365 14.1876 7.95365C13.6197 7.95365 13.2705 8.22533 13.1959 8.77603ZM13.1833 13.4087C13.1833 14.3223 12.6328 14.9728 11.8541 14.9728C11.0427 14.9728 10.5083 14.3177 10.5083 13.4087C10.5083 12.4784 11.0709 11.832 11.8541 11.832C12.661 11.832 13.1833 12.5158 13.1833 13.4087Z"
                     fill="currentColor" fill-opacity="0.85" />
       </g>
</svg>