<?xml version="1.0" encoding="UTF-8"?>
<!--Generator: Apple Native CoreSVG 326-->
<!DOCTYPE svg PUBLIC "-//W3C//DTD SVG 1.1//EN" "http://www.w3.org/Graphics/SVG/1.1/DTD/svg11.dtd">
<svg version="1.1" xmlns="http://www.w3.org/2000/svg" xmlns:xlink="http://www.w3.org/1999/xlink"
       viewBox="0 0 26.4467 21.7425">
       <g>
              <rect height="21.7425" opacity="0" width="26.4467" x="0" y="0" />
              <path d="M1.5124 21.7425C2.33981 21.7425 3.01964 21.0626 3.01964 20.2301L3.01964 3.60206C3.01964 3.2448 3.23964 3.0248 3.58484 3.0248L22.5005 3.0248C22.8457 3.0248 23.0657 3.2448 23.0657 3.60206L23.0657 20.2301C23.0657 21.0626 23.7455 21.7425 24.5706 21.7425C25.4055 21.7425 26.0853 21.0626 26.0853 20.2301L26.0853 3.16868C26.0853 1.20135 24.892 0.0051558 22.908 0.0051558L3.1825 0.0051558C1.19335 0.0051558 0 1.20135 0 3.16868L0 20.2301C0 21.0626 0.679834 21.7425 1.5124 21.7425Z"
                     fill="currentColor" fill-opacity="0.85" />
              <path d="M4.24429 20.8086C4.24429 21.0911 4.43784 21.2072 4.76514 21.1383L10.3395 19.9227C10.5922 19.8687 10.7186 19.6895 10.7186 19.4718L10.7186 5.82038C10.7186 5.60499 10.5945 5.42581 10.3418 5.37183L4.76284 4.16131C4.43784 4.08725 4.24429 4.20104 4.24429 4.48588ZM8.99875 15.7002C9.23992 15.6755 9.41219 15.8357 9.41219 16.0941L9.41219 18.3736C9.41219 18.6096 9.24223 18.7973 9.00336 18.8415L5.96644 19.4058C5.72757 19.45 5.56277 19.3294 5.56277 19.0612L5.56277 16.3675C5.56277 16.124 5.72757 15.9466 5.96644 15.9294ZM5.56277 14.1288L5.56277 11.1881C5.56277 10.9274 5.72757 10.7746 5.96644 10.7844L9.00106 10.955C9.24223 10.9648 9.41219 11.1422 9.41219 11.3932L9.41219 13.9163C9.41219 14.1747 9.23992 14.3423 9.00106 14.3595L5.96644 14.5325C5.72527 14.5422 5.56277 14.3872 5.56277 14.1288ZM8.9936 9.61672L5.96413 9.38519C5.72527 9.36051 5.56277 9.22731 5.56277 8.96661L5.56277 6.23096C5.56277 5.97026 5.72757 5.84221 5.96644 5.88643L9.02344 6.44374C9.29215 6.49311 9.41219 6.67338 9.41219 6.9117L9.41219 9.19352C9.41219 9.46684 9.24223 9.63394 8.9936 9.61672ZM21.841 20.8086L21.841 4.48588C21.841 4.20104 21.6475 4.08725 21.3225 4.16131L15.7435 5.37183C15.4908 5.42581 15.3667 5.60499 15.3667 5.82038L15.3667 19.4718C15.3667 19.6895 15.4908 19.8687 15.7458 19.9227L21.3202 21.1383C21.6475 21.2072 21.841 21.0911 21.841 20.8086ZM17.0866 15.7002L20.1166 15.9294C20.3578 15.9466 20.5226 16.124 20.5226 16.3675L20.5226 19.0612C20.5226 19.3294 20.3578 19.45 20.1189 19.4058L17.082 18.8415C16.8431 18.7973 16.6731 18.6096 16.6731 18.3736L16.6731 16.0941C16.6731 15.8357 16.8454 15.6755 17.0866 15.7002ZM20.5226 14.1288C20.5226 14.3872 20.3601 14.5422 20.1189 14.5325L17.0843 14.3595C16.8431 14.3423 16.6731 14.1747 16.6731 13.9163L16.6731 11.3932C16.6731 11.1422 16.8431 10.9648 17.0843 10.955L20.1189 10.7844C20.3578 10.7746 20.5226 10.9274 20.5226 11.1881ZM17.0917 9.61672C16.8431 9.63394 16.6731 9.46684 16.6731 9.19352L16.6731 6.9117C16.6731 6.67338 16.7932 6.49311 17.0619 6.44374L20.1189 5.88643C20.3554 5.84221 20.5226 5.97026 20.5226 6.23096L20.5226 8.96661C20.5226 9.22731 20.3601 9.36051 20.1212 9.38519Z"
                     fill="currentColor" fill-opacity="0.85" />
       </g>
</svg>