<?xml version="1.0" encoding="UTF-8"?>
<!--Generator: Apple Native CoreSVG 326-->
<!DOCTYPE svg PUBLIC "-//W3C//DTD SVG 1.1//EN" "http://www.w3.org/Graphics/SVG/1.1/DTD/svg11.dtd">
<svg version="1.1" xmlns="http://www.w3.org/2000/svg" xmlns:xlink="http://www.w3.org/1999/xlink"
       viewBox="0 0 17.7062 21.7425">
       <g>
              <rect height="21.7425" opacity="0" width="17.7062" x="0" y="0" />
              <path d="M17.3448 20.2301L17.3448 3.16868C17.3448 1.20135 16.1538 0.0051558 14.1698 0.0051558L3.1825 0.0051558C1.19335 0.0051558 0 1.20135 0 3.16868L0 20.2301C0 21.0626 0.679834 21.7425 1.5124 21.7425C2.33981 21.7425 3.01964 21.0626 3.01964 20.2301L3.01964 3.60206C3.01964 3.2448 3.23964 3.0248 3.58484 3.0248L13.76 3.0248C14.1052 3.0248 14.3252 3.2448 14.3252 3.60206L14.3252 20.2301C14.3252 21.0626 15.005 21.7425 15.8399 21.7425C16.6725 21.7425 17.3448 21.0626 17.3448 20.2301Z"
                     fill="currentColor" fill-opacity="0.85" />
              <path d="M13.108 20.7531L13.108 4.55897C13.108 4.27413 12.8921 4.13917 12.5797 4.26206L9.66021 5.48004C9.40345 5.57769 9.29087 5.71781 9.29087 5.95449L9.29087 19.3553C9.29087 19.5868 9.40345 19.7246 9.66251 19.832L12.5797 21.0403C12.8921 21.1706 13.108 21.0356 13.108 20.7531Z"
                     fill="currentColor" fill-opacity="0.85" />
       </g>
</svg>