<?xml version="1.0" encoding="UTF-8"?>
<!--Generator: Apple Native CoreSVG 326-->
<!DOCTYPE svg PUBLIC "-//W3C//DTD SVG 1.1//EN" "http://www.w3.org/Graphics/SVG/1.1/DTD/svg11.dtd">
<svg version="1.1" xmlns="http://www.w3.org/2000/svg" xmlns:xlink="http://www.w3.org/1999/xlink"
       viewBox="0 0 32.0449 21.7425">
       <g>
              <rect height="21.7425" opacity="0" width="32.0449" x="0" y="0" />
              <path d="M1.5124 21.7425C2.33981 21.7425 3.01964 21.0626 3.01964 20.2301L3.01964 3.60206C3.01964 3.2448 3.23964 3.0248 3.58484 3.0248L28.0913 3.0248C28.4439 3.0248 28.6639 3.2448 28.6639 3.60206L28.6639 20.2301C28.6639 21.0626 29.3438 21.7425 30.1712 21.7425C31.0037 21.7425 31.6836 21.0626 31.6836 20.2301L31.6836 3.16868C31.6836 1.20135 30.4925 0.0051558 28.5011 0.0051558L3.1825 0.0051558C1.19335 0.0051558 0 1.20135 0 3.16868L0 20.2301C0 21.0626 0.679834 21.7425 1.5124 21.7425Z"
                     fill="currentColor" fill-opacity="0.85" />
              <path d="M4.51664 9.09884L27.1692 9.09884C27.3152 9.09884 27.4393 8.97474 27.4393 8.8288L27.4393 4.52695C27.4393 4.37124 27.3152 4.24714 27.1692 4.24714L4.51664 4.24714C4.36839 4.24714 4.24429 4.37124 4.24429 4.52695L4.24429 8.8288C4.24429 8.97474 4.36839 9.09884 4.51664 9.09884ZM13.7646 7.3406C13.3918 7.3406 13.0921 7.04084 13.0921 6.67041C13.0921 6.29768 13.3918 6.00538 13.7646 6.00538L17.9213 6.00538C18.2917 6.00538 18.5915 6.29768 18.5915 6.67041C18.5915 7.04084 18.2917 7.3406 17.9213 7.3406Z"
                     fill="currentColor" fill-opacity="0.85" />
       </g>
</svg>