<?xml version="1.0" encoding="UTF-8"?>
<!--Generator: Apple Native CoreSVG 326-->
<!DOCTYPE svg PUBLIC "-//W3C//DTD SVG 1.1//EN" "http://www.w3.org/Graphics/SVG/1.1/DTD/svg11.dtd">
<svg version="1.1" xmlns="http://www.w3.org/2000/svg" xmlns:xlink="http://www.w3.org/1999/xlink"
       viewBox="0 0 17.7062 21.7425">
       <g>
              <rect height="21.7425" opacity="0" width="17.7062" x="0" y="0" />
              <path d="M1.5124 21.7425C2.33981 21.7425 3.01964 21.0626 3.01964 20.2301L3.01964 3.60206C3.01964 3.2448 3.23964 3.0248 3.58484 3.0248L13.76 3.0248C14.1052 3.0248 14.3252 3.2448 14.3252 3.60206L14.3252 20.2301C14.3252 21.0626 15.005 21.7425 15.8399 21.7425C16.6725 21.7425 17.3448 21.0626 17.3448 20.2301L17.3448 3.16868C17.3448 1.20135 16.1538 0.0051558 14.1698 0.0051558L3.1825 0.0051558C1.19335 0.0051558 0 1.20135 0 3.16868L0 20.2301C0 21.0626 0.679834 21.7425 1.5124 21.7425Z"
                     fill="currentColor" fill-opacity="0.85" />
              <path d="M4.51664 21.0873L12.8305 21.0873C12.9839 21.0873 13.108 20.9609 13.108 20.8075L13.108 4.52695C13.108 4.37124 12.9839 4.24714 12.8305 4.24714L4.51664 4.24714C4.36839 4.24714 4.24429 4.37124 4.24429 4.52695L4.24429 20.8075C4.24429 20.9609 4.36839 21.0873 4.51664 21.0873ZM10.7167 13.1089C10.2795 13.1089 9.9354 12.7424 9.9354 12.3128C9.9354 11.8733 10.2795 11.5166 10.7167 11.5166C11.1636 11.5166 11.5128 11.8733 11.5128 12.3128C11.5128 12.7424 11.1636 13.1089 10.7167 13.1089Z"
                     fill="currentColor" fill-opacity="0.85" />
       </g>
</svg>