<?xml version="1.0" encoding="UTF-8"?>
<!--Generator: Apple Native CoreSVG 326-->
<!DOCTYPE svg PUBLIC "-//W3C//DTD SVG 1.1//EN" "http://www.w3.org/Graphics/SVG/1.1/DTD/svg11.dtd">
<svg version="1.1" xmlns="http://www.w3.org/2000/svg" xmlns:xlink="http://www.w3.org/1999/xlink"
       viewBox="0 0 26.4467 21.7425">
       <g>
              <rect height="21.7425" opacity="0" width="26.4467" x="0" y="0" />
              <path d="M1.5124 21.7425C2.33981 21.7425 3.01964 21.0626 3.01964 20.2301L3.01964 3.60206C3.01964 3.2448 3.23964 3.0248 3.58484 3.0248L22.5005 3.0248C22.8457 3.0248 23.0657 3.2448 23.0657 3.60206L23.0657 20.2301C23.0657 21.0626 23.7455 21.7425 24.5706 21.7425C25.4055 21.7425 26.0853 21.0626 26.0853 20.2301L26.0853 3.16868C26.0853 1.20135 24.892 0.0051558 22.908 0.0051558L3.1825 0.0051558C1.19335 0.0051558 0 1.20135 0 3.16868L0 20.2301C0 21.0626 0.679834 21.7425 1.5124 21.7425Z"
                     fill="currentColor" fill-opacity="0.85" />
              <path d="M4.51664 21.0873L21.5687 21.0873C21.7169 21.0873 21.841 20.9609 21.841 20.8075L21.841 4.52695C21.841 4.37124 21.7169 4.24714 21.5687 4.24714L4.51664 4.24714C4.36839 4.24714 4.24429 4.37124 4.24429 4.52695L4.24429 20.8075C4.24429 20.9609 4.36839 21.0873 4.51664 21.0873ZM11.0216 19.3101C10.6488 19.3101 10.3588 19.0178 10.3588 18.6474C10.3588 18.2672 10.6488 17.9749 11.0216 17.9749L15.0638 17.9749C15.4365 17.9749 15.7265 18.2672 15.7265 18.6474C15.7265 19.0178 15.4365 19.3101 15.0638 19.3101ZM6.27233 9.93389C5.93526 9.93389 5.72163 9.72772 5.72163 9.39065L5.72163 6.25443C5.72163 5.90991 5.93526 5.70143 6.27233 5.70143L9.22348 5.70143C9.56055 5.70143 9.77418 5.90991 9.77418 6.25443L9.77418 9.39065C9.77418 9.72772 9.56055 9.93389 9.22348 9.93389ZM11.5829 9.93389C11.2384 9.93389 11.0322 9.72772 11.0322 9.39065L11.0322 6.25443C11.0322 5.90991 11.2384 5.70143 11.5829 5.70143L14.5243 5.70143C14.8613 5.70143 15.0773 5.90991 15.0773 6.25443L15.0773 9.39065C15.0773 9.72772 14.8613 9.93389 14.5243 9.93389ZM16.8762 9.93389C16.5317 9.93389 16.3232 9.72772 16.3232 9.39065L16.3232 6.25443C16.3232 5.90991 16.5317 5.70143 16.8762 5.70143L19.813 5.70143C20.1501 5.70143 20.3637 5.90991 20.3637 6.25443L20.3637 9.39065C20.3637 9.72772 20.1501 9.93389 19.8314 9.93389Z"
                     fill="currentColor" fill-opacity="0.85" />
       </g>
</svg>