<?xml version="1.0" encoding="UTF-8"?>
<!--Generator: Apple Native CoreSVG 326-->
<!DOCTYPE svg PUBLIC "-//W3C//DTD SVG 1.1//EN" "http://www.w3.org/Graphics/SVG/1.1/DTD/svg11.dtd">
<svg version="1.1" xmlns="http://www.w3.org/2000/svg" xmlns:xlink="http://www.w3.org/1999/xlink"
       viewBox="0 0 26.4467 21.7425">
       <g>
              <rect height="21.7425" opacity="0" width="26.4467" x="0" y="0" />
              <path d="M1.5124 21.7425C2.33981 21.7425 3.01964 21.0626 3.01964 20.2301L3.01964 3.60206C3.01964 3.2448 3.23964 3.0248 3.58484 3.0248L22.5005 3.0248C22.8457 3.0248 23.0657 3.2448 23.0657 3.60206L23.0657 20.2301C23.0657 21.0626 23.7455 21.7425 24.5706 21.7425C25.4055 21.7425 26.0853 21.0626 26.0853 20.2301L26.0853 3.16868C26.0853 1.20135 24.892 0.0051558 22.908 0.0051558L3.1825 0.0051558C1.19335 0.0051558 0 1.20135 0 3.16868L0 20.2301C0 21.0626 0.679834 21.7425 1.5124 21.7425Z"
                     fill="currentColor" fill-opacity="0.85" />
              <path d="M4.51664 21.0896L12.1543 21.0896C12.31 21.0896 12.4341 20.9655 12.4341 20.8098L12.4341 4.53156C12.4341 4.37585 12.31 4.25175 12.1543 4.25175L4.51664 4.25175C4.36839 4.25175 4.24429 4.37585 4.24429 4.53156L4.24429 20.8098C4.24429 20.9655 4.36839 21.0896 4.51664 21.0896ZM6.27979 9.52288C5.96401 9.52288 5.76937 9.32078 5.76937 9.00039L5.76937 6.359C5.76937 6.03116 5.96401 5.83651 6.27979 5.83651L10.3911 5.83651C10.7143 5.83651 10.909 6.03116 10.909 6.359L10.909 9.00039C10.909 9.32078 10.7143 9.52288 10.3911 9.52288ZM6.27979 14.509C5.96401 14.509 5.76937 14.3143 5.76937 13.9865L5.76937 11.36C5.76937 11.0322 5.96401 10.8398 6.27979 10.8398L10.3911 10.8398C10.7143 10.8398 10.909 11.0322 10.909 11.36L10.909 13.9865C10.909 14.3143 10.7143 14.509 10.3911 14.509ZM6.27979 19.5049C5.96401 19.5049 5.76937 19.3102 5.76937 18.9824L5.76937 16.3484C5.76937 16.0281 5.96401 15.8357 6.27979 15.8357L10.3911 15.8357C10.7143 15.8357 10.909 16.0281 10.909 16.3484L10.909 18.9824C10.909 19.3102 10.7143 19.5049 10.3911 19.5049ZM13.9288 21.0873L21.5687 21.0873C21.7169 21.0873 21.841 20.9609 21.841 20.8075L21.841 4.52695C21.841 4.37124 21.7169 4.24714 21.5687 4.24714L13.9288 4.24714C13.7754 4.24714 13.6513 4.37124 13.6513 4.52695L13.6513 20.8075C13.6513 20.9609 13.7754 21.0873 13.9288 21.0873ZM15.6942 9.51827C15.371 9.51827 15.1763 9.31617 15.1763 8.99578L15.1763 6.35439C15.1763 6.02655 15.371 5.83421 15.6942 5.83421L19.8055 5.83421C20.1213 5.83421 20.3137 6.02655 20.3137 6.35439L20.3137 8.99578C20.3137 9.31617 20.1213 9.51827 19.8055 9.51827ZM15.6942 14.5044C15.371 14.5044 15.1763 14.3097 15.1763 13.9842L15.1763 11.3554C15.1763 11.0299 15.371 10.8352 15.6942 10.8352L19.8055 10.8352C20.1213 10.8352 20.3137 11.0299 20.3137 11.3554L20.3137 13.9842C20.3137 14.3097 20.1213 14.5044 19.8055 14.5044ZM15.6942 19.5003C15.371 19.5003 15.1763 19.3056 15.1763 18.9801L15.1763 16.3438C15.1763 16.0258 15.371 15.8311 15.6942 15.8311L19.8055 15.8311C20.1213 15.8311 20.3137 16.0258 20.3137 16.3438L20.3137 18.9801C20.3137 19.3056 20.1213 19.5003 19.8055 19.5003Z"
                     fill="currentColor" fill-opacity="0.85" />
       </g>
</svg>