<?xml version="1.0" encoding="UTF-8"?>
<!--Generator: Apple Native CoreSVG 326-->
<!DOCTYPE svg PUBLIC "-//W3C//DTD SVG 1.1//EN" "http://www.w3.org/Graphics/SVG/1.1/DTD/svg11.dtd">
<svg version="1.1" xmlns="http://www.w3.org/2000/svg" xmlns:xlink="http://www.w3.org/1999/xlink"
       viewBox="0 0 32.0449 21.7425">
       <g>
              <rect height="21.7425" opacity="0" width="32.0449" x="0" y="0" />
              <path d="M1.5124 21.7425C2.33981 21.7425 3.01964 21.0626 3.01964 20.2301L3.01964 3.60206C3.01964 3.2448 3.23964 3.0248 3.58484 3.0248L28.0913 3.0248C28.4439 3.0248 28.6639 3.2448 28.6639 3.60206L28.6639 20.2301C28.6639 21.0626 29.3438 21.7425 30.1712 21.7425C31.0037 21.7425 31.6836 21.0626 31.6836 20.2301L31.6836 3.16868C31.6836 1.20135 30.4925 0.0051558 28.5011 0.0051558L3.1825 0.0051558C1.19335 0.0051558 0 1.20135 0 3.16868L0 20.2301C0 21.0626 0.679834 21.7425 1.5124 21.7425Z"
                     fill="currentColor" fill-opacity="0.85" />
              <path d="M4.51664 21.0873L27.1692 21.0873C27.3152 21.0873 27.4393 20.9609 27.4393 20.8075L27.4393 4.52695C27.4393 4.37124 27.3152 4.24714 27.1692 4.24714L4.51664 4.24714C4.36839 4.24714 4.24429 4.37124 4.24429 4.52695L4.24429 20.8075C4.24429 20.9609 4.36839 21.0873 4.51664 21.0873ZM6.27233 9.93389C5.93526 9.93389 5.72163 9.72772 5.72163 9.39065L5.72163 6.25443C5.72163 5.90991 5.93526 5.70143 6.27233 5.70143L9.2307 5.70143C9.56777 5.70143 9.7837 5.90991 9.7837 6.25443L9.7837 9.39065C9.7837 9.72772 9.56777 9.93389 9.2307 9.93389ZM11.6819 9.93389C11.3449 9.93389 11.1289 9.72772 11.1289 9.39065L11.1289 6.25443C11.1289 5.90991 11.3449 5.70143 11.6819 5.70143L14.638 5.70143C14.9751 5.70143 15.191 5.90991 15.191 6.25443L15.191 9.39065C15.191 9.72772 14.9751 9.93389 14.638 9.93389ZM17.072 9.93389C16.7349 9.93389 16.5213 9.72772 16.5213 9.39065L16.5213 6.25443C16.5213 5.90991 16.7349 5.70143 17.072 5.70143L20.0258 5.70143C20.3605 5.70143 20.5765 5.90991 20.5765 6.25443L20.5765 9.39065C20.5765 9.72772 20.3605 9.93389 20.0442 9.93389ZM22.4575 9.93389C22.1204 9.93389 21.9068 9.72772 21.9068 9.39065L21.9068 6.25443C21.9068 5.90991 22.1204 5.70143 22.4575 5.70143L25.4113 5.70143C25.7483 5.70143 25.9545 5.90991 25.9545 6.25443L25.9545 9.39065C25.9545 9.72772 25.7483 9.93389 25.4297 9.93389ZM13.7646 19.3101C13.3918 19.3101 13.0921 19.0178 13.0921 18.6474C13.0921 18.2672 13.3918 17.9749 13.7646 17.9749L17.9213 17.9749C18.2917 17.9749 18.5915 18.2672 18.5915 18.6474C18.5915 19.0178 18.2917 19.3101 17.9213 19.3101Z"
                     fill="currentColor" fill-opacity="0.85" />
       </g>
</svg>