<?xml version="1.0" encoding="UTF-8"?>
<!--Generator: Apple Native CoreSVG 326-->
<!DOCTYPE svg PUBLIC "-//W3C//DTD SVG 1.1//EN" "http://www.w3.org/Graphics/SVG/1.1/DTD/svg11.dtd">
<svg version="1.1" xmlns="http://www.w3.org/2000/svg" xmlns:xlink="http://www.w3.org/1999/xlink"
       viewBox="0 0 26.4467 21.7425">
       <g>
              <rect height="21.7425" opacity="0" width="26.4467" x="0" y="0" />
              <path d="M24.5706 21.7425C25.4055 21.7425 26.0853 21.0626 26.0853 20.2301L26.0853 3.16868C26.0853 1.20135 24.892 0.0051558 22.908 0.0051558L3.1825 0.0051558C1.19335 0.0051558 0 1.20135 0 3.16868L0 20.2301C0 21.0626 0.679834 21.7425 1.5124 21.7425C2.33981 21.7425 3.01964 21.0626 3.01964 20.2301L3.01964 3.60206C3.01964 3.2448 3.23964 3.0248 3.58484 3.0248L22.5005 3.0248C22.8457 3.0248 23.0657 3.2448 23.0657 3.60206L23.0657 20.2301C23.0657 21.0626 23.7455 21.7425 24.5706 21.7425Z"
                     fill="currentColor" fill-opacity="0.85" />
              <path d="M12.747 21.0873C12.8952 21.0873 13.0268 20.9609 13.0268 20.8075L13.0268 4.52695C13.0268 4.37124 12.8952 4.24714 12.747 4.24714L4.51664 4.24714C4.36839 4.24714 4.24429 4.37124 4.24429 4.52695L4.24429 20.8075C4.24429 20.9609 4.36839 21.0873 4.51664 21.0873ZM10.7675 13.7677C10.4321 13.7677 10.1622 13.4978 10.1622 13.1549L10.1622 11.4608C10.1622 11.118 10.4321 10.8503 10.7675 10.8503C11.1081 10.8503 11.378 11.118 11.378 11.4608L11.378 13.1549C11.378 13.4978 11.1081 13.7677 10.7675 13.7677Z"
                     fill="currentColor" fill-opacity="0.85" />
       </g>
</svg>