<?xml version="1.0" encoding="UTF-8"?>
<!--Generator: Apple Native CoreSVG 326-->
<!DOCTYPE svg PUBLIC "-//W3C//DTD SVG 1.1//EN" "http://www.w3.org/Graphics/SVG/1.1/DTD/svg11.dtd">
<svg version="1.1" xmlns="http://www.w3.org/2000/svg" xmlns:xlink="http://www.w3.org/1999/xlink"
       viewBox="0 0 19.3993 19.0575">
       <g>
              <rect height="19.0575" opacity="0" width="19.3993" x="0" y="0" />
              <path d="M19.0379 1.03722L19.0379 18.03C19.0379 18.648 18.6308 19.0575 18.0128 19.0575L1.02745 19.0575C0.409489 19.0575 0 18.648 0 18.03L0 1.03722C0 0.426716 0.409489 0.0195312 1.02745 0.0195312L18.0128 0.0195312C18.6308 0.0195312 19.0379 0.426716 19.0379 1.03722ZM6.11304 9.53362C6.11304 11.4211 7.64382 12.9467 9.52385 12.9467C11.4113 12.9467 12.937 11.4211 12.937 9.53362C12.937 7.65589 11.4113 6.1228 9.52385 6.1228C7.64382 6.1228 6.11304 7.65589 6.11304 9.53362Z"
                     fill="currentColor" fill-opacity="0.85" />
       </g>
</svg>