<?xml version="1.0" encoding="UTF-8"?>
<!--Generator: Apple Native CoreSVG 326-->
<!DOCTYPE svg PUBLIC "-//W3C//DTD SVG 1.1//EN" "http://www.w3.org/Graphics/SVG/1.1/DTD/svg11.dtd">
<svg version="1.1" xmlns="http://www.w3.org/2000/svg" xmlns:xlink="http://www.w3.org/1999/xlink"
       viewBox="0 0 31.0173 17.7642">
       <g>
              <rect height="17.7642" opacity="0" width="31.0173" x="0" y="0" />
              <path d="M0 16.081C0 16.9947 0.766633 17.7539 1.67053 17.7539L28.978 17.7539C29.8893 17.7539 30.6559 16.9947 30.6559 16.081C30.6559 15.1674 29.8893 14.4156 28.978 14.4156L27.1377 14.4156L27.1377 3.14466C27.1377 1.14331 25.9875 0 23.9884 0L6.6675 0C4.68459 0 3.51077 1.14331 3.51077 3.14466L3.51077 14.4156L1.67053 14.4156C0.766633 14.4156 0 15.1674 0 16.081ZM6.53042 14.4156L6.53042 3.84523C6.53042 3.265 6.80561 3.01964 7.35601 3.01964L23.2999 3.01964C23.8429 3.01964 24.1181 3.265 24.1181 3.84523L24.1181 14.4156Z"
                     fill="currentColor" fill-opacity="0.85" />
              <path d="M15.328 12.6983C17.535 12.6983 19.3147 10.9186 19.3147 8.71161C19.3147 6.50458 17.535 4.7077 15.328 4.7077C13.133 4.7077 11.3361 6.50458 11.3361 8.71161C11.3361 10.9186 13.133 12.6983 15.328 12.6983ZM15.328 11.417C13.7957 11.417 12.6518 10.2657 12.6518 8.71161C12.6518 7.15008 13.7957 5.98894 15.328 5.98894C16.8625 5.98894 18.0064 7.15008 18.0064 8.71161C18.0064 10.2657 16.8723 11.417 15.328 11.417ZM15.328 3.73168C15.0064 3.73168 14.729 3.9993 14.729 4.3209L14.729 6.53957C14.729 6.88817 15.0064 7.14086 15.328 7.14086C15.6593 7.14086 15.9269 6.86348 15.9269 6.53957L15.9269 4.3209C15.9269 4.00676 15.684 3.73168 15.328 3.73168ZM17.4828 9.31059L19.7015 9.31059C20.038 9.31059 20.3027 9.01828 20.3027 8.71161C20.3027 8.39516 20.038 8.11493 19.7015 8.11493L17.4828 8.11493C17.1686 8.11493 16.8936 8.35556 16.8936 8.71161C16.8936 9.03321 17.1612 9.31059 17.4828 9.31059ZM15.3303 13.6743C15.6616 13.6743 15.9269 13.3992 15.9269 13.0753L15.9269 10.8566C15.9269 10.5425 15.6863 10.2674 15.3303 10.2674C15.0064 10.2674 14.7313 10.535 14.7313 10.8566L14.7313 13.0753C14.7313 13.4165 15.0064 13.6743 15.3303 13.6743ZM10.9666 9.31059L13.1829 9.31059C13.5068 9.31059 13.7744 9.03321 13.7744 8.71161C13.7744 8.35556 13.4919 8.11493 13.1829 8.11493L10.9666 8.11493C10.6403 8.11493 10.3578 8.37278 10.3578 8.71161C10.3578 9.03321 10.6157 9.31059 10.9666 9.31059ZM15.3377 9.5375C15.7886 9.5375 16.1636 9.16246 16.1636 8.70184C16.1636 8.25099 15.7886 7.87079 15.3377 7.87079C14.8771 7.87079 14.5044 8.25099 14.5044 8.70184C14.5044 9.16246 14.8771 9.5375 15.3377 9.5375Z"
                     fill="currentColor" fill-opacity="0.85" />
       </g>
</svg>