<?xml version="1.0" encoding="UTF-8"?>
<!--Generator: Apple Native CoreSVG 326-->
<!DOCTYPE svg PUBLIC "-//W3C//DTD SVG 1.1//EN" "http://www.w3.org/Graphics/SVG/1.1/DTD/svg11.dtd">
<svg version="1.1" xmlns="http://www.w3.org/2000/svg" xmlns:xlink="http://www.w3.org/1999/xlink"
       viewBox="0 0 16.9502 16.7485">
       <g>
              <rect height="16.7485" opacity="0" width="16.9502" x="0" y="0" />
              <path d="M0.0345737 1.20651C0.0345737 1.87494 0.574959 2.41533 1.24339 2.41533C8.46146 2.41533 14.1736 8.12743 14.1736 15.3455C14.1736 16.0139 14.7139 16.5543 15.3824 16.5543C16.0508 16.5543 16.5889 16.0139 16.5889 15.3455C16.5889 6.79803 9.79086 0 1.24339 0C0.574959 0 0.0345737 0.53808 0.0345737 1.20651Z"
                     fill="currentColor" fill-opacity="0.85" />
              <path d="M0.0345737 5.62834C0.0345737 6.29677 0.574959 6.83485 1.24339 6.83485C6.02424 6.83485 9.75404 10.5647 9.75404 15.3455C9.75404 16.0139 10.2921 16.5543 10.9606 16.5543C11.629 16.5543 12.1619 16.0139 12.1619 15.3455C12.1619 9.22779 7.3611 4.42698 1.24339 4.42698C0.574959 4.42698 0.0345737 4.96737 0.0345737 5.62834Z"
                     fill="currentColor" fill-opacity="0.85" />
              <path d="M0.0345737 9.97532C0.0345737 10.6437 0.574959 11.1818 1.24339 11.1818C3.53261 11.1818 5.40706 13.0563 5.40706 15.3455C5.40706 16.0139 5.94514 16.5543 6.61357 16.5543C7.27454 16.5543 7.81493 16.0139 7.81493 15.3455C7.81493 11.7246 4.85455 8.77396 1.24339 8.77396C0.574959 8.77396 0.0345737 9.31435 0.0345737 9.97532Z"
                     fill="currentColor" fill-opacity="0.85" />
              <path d="M1.65015 16.5889C2.54616 16.5889 3.28077 15.852 3.28077 14.9583C3.28077 14.06 2.55593 13.3179 1.65015 13.3179C0.754137 13.3179 0 14.0818 0 14.9876C0 15.852 0.766208 16.5889 1.65015 16.5889Z"
                     fill="currentColor" fill-opacity="0.85" />
       </g>
</svg>