<?xml version="1.0" encoding="UTF-8"?>
<!--Generator: Apple Native CoreSVG 326-->
<!DOCTYPE svg PUBLIC "-//W3C//DTD SVG 1.1//EN" "http://www.w3.org/Graphics/SVG/1.1/DTD/svg11.dtd">
<svg version="1.1" xmlns="http://www.w3.org/2000/svg" xmlns:xlink="http://www.w3.org/1999/xlink"
       viewBox="0 0 25.4331 22.0325">
       <g>
              <rect height="22.0325" opacity="0" width="25.4331" x="0" y="0" />
              <path d="M3.04439 18.2971L22.0251 18.2971C23.9387 18.2971 25.0718 17.164 25.0718 15.2505L25.0718 3.30272C25.0718 1.39661 23.9387 0.265794 22.0251 0.265794L3.04439 0.265794C1.13312 0.265794 0 1.39661 0 3.30272L0 15.2505C0 17.164 1.13312 18.2971 3.04439 18.2971ZM3.4318 15.4491C3.06926 15.4491 2.84805 15.2279 2.84805 14.8653L2.84805 3.6976C2.84805 3.32529 3.06926 3.10638 3.4318 3.10638L21.64 3.10638C22.0026 3.10638 22.2238 3.32529 22.2238 3.6976L22.2238 14.8653C22.2238 15.2279 22.0026 15.4491 21.64 15.4491ZM9.03217 20.2334L16.0396 20.2334L16.0396 17.8643L9.03217 17.8643ZM9.01834 22.0325L16.0535 22.0325C16.7219 22.0325 17.2525 21.4646 17.2525 20.8386C17.2525 20.2127 16.7219 19.6522 16.0535 19.6522L9.01834 19.6522C8.34991 19.6522 7.81699 20.2127 7.81699 20.8386C7.81699 21.4646 8.34991 22.0325 9.01834 22.0325Z"
                     fill="currentColor" fill-opacity="0.85" />
              <path d="M12.5359 13.2658C14.7429 13.2658 16.5226 11.4787 16.5226 9.27401C16.5226 7.06698 14.7429 5.2701 12.5359 5.2701C10.3386 5.2701 8.54177 7.06698 8.54177 9.27401C8.54177 11.4787 10.3386 13.2658 12.5359 13.2658ZM12.5359 11.9794C11.0037 11.9794 9.86723 10.8332 9.86723 9.27401C9.86723 7.71248 11.0037 6.5565 12.5359 6.5565C14.0681 6.5565 15.2218 7.71248 15.2218 9.27401C15.2218 10.8332 14.0779 11.9794 12.5359 11.9794ZM12.5359 4.29924C12.212 4.29924 11.9369 4.5617 11.9369 4.8833L11.9369 7.10198C11.9369 7.45057 12.212 7.70842 12.5359 7.70842C12.8673 7.70842 13.1326 7.43334 13.1326 7.10198L13.1326 4.8833C13.1326 4.57662 12.892 4.29924 12.5359 4.29924ZM14.6907 9.87068L16.9094 9.87068C17.2534 9.87068 17.5084 9.58069 17.5084 9.27401C17.5084 8.95526 17.2534 8.67503 16.9094 8.67503L14.6907 8.67503C14.3766 8.67503 14.0992 8.91565 14.0992 9.27401C14.0992 9.59561 14.3691 9.87068 14.6907 9.87068ZM12.5359 14.2367C12.8673 14.2367 13.1349 13.9616 13.1349 13.6354L13.1349 11.419C13.1349 11.1026 12.892 10.8275 12.5359 10.8275C12.2143 10.8275 11.9392 11.0951 11.9392 11.419L11.9392 13.6354C11.9392 13.9863 12.2143 14.2367 12.5359 14.2367ZM8.17219 9.87068L10.3909 9.87068C10.7125 9.87068 10.9801 9.59561 10.9801 9.27401C10.9801 8.91565 10.705 8.67503 10.3909 8.67503L8.17219 8.67503C7.84829 8.67503 7.57321 8.94034 7.57321 9.27401C7.57321 9.59561 7.8236 9.87068 8.17219 9.87068ZM12.5457 10.0976C12.9965 10.0976 13.3693 9.72256 13.3693 9.26424C13.3693 8.81339 12.9965 8.43835 12.5457 8.43835C12.0851 8.43835 11.71 8.81339 11.71 9.26424C11.71 9.72256 12.0851 10.0976 12.5457 10.0976Z"
                     fill="currentColor" fill-opacity="0.85" />
       </g>
</svg>