<?xml version="1.0" encoding="UTF-8"?>
<!--Generator: Apple Native CoreSVG 326-->
<!DOCTYPE svg PUBLIC "-//W3C//DTD SVG 1.1//EN" "http://www.w3.org/Graphics/SVG/1.1/DTD/svg11.dtd">
<svg version="1.1" xmlns="http://www.w3.org/2000/svg" xmlns:xlink="http://www.w3.org/1999/xlink"
       viewBox="0 0 21.365 21.006">
       <g>
              <rect height="21.006" opacity="0" width="21.365" x="0" y="0" />
              <path d="M10.4981 20.9962C16.302 20.9962 21.0037 16.2946 21.0037 10.4981C21.0037 4.70163 16.302 0 10.4981 0C4.70163 0 0 4.70163 0 10.4981C0 16.2946 4.70163 20.9962 10.4981 20.9962ZM10.4981 17.9484C6.37829 17.9484 3.04785 14.6179 3.04785 10.4981C3.04785 6.37829 6.37829 3.04785 10.4981 3.04785C14.6179 3.04785 17.9558 6.37829 17.9558 10.4981C17.9558 14.6179 14.6179 17.9484 10.4981 17.9484Z"
                     fill="currentColor" fill-opacity="0.85" />
              <path d="M10.4958 13.8865C12.3532 13.8865 13.8865 12.3508 13.8865 10.4906C13.8865 8.64307 12.3532 7.10228 10.4958 7.10228C8.64537 7.10228 7.10228 8.64307 7.10228 10.4906C7.10228 12.3508 8.64537 13.8865 10.4958 13.8865ZM12.1543 5.54469L10.8589 3.95223C10.671 3.72071 10.3269 3.72071 10.1419 3.95223L8.8442 5.54469C8.53916 5.91063 8.71725 6.39145 9.21014 6.39145L11.7958 6.39145C12.2715 6.39145 12.4571 5.90602 12.1543 5.54469ZM15.4538 12.1543L17.0463 10.8589C17.2778 10.671 17.2778 10.3246 17.0463 10.1419L15.4538 8.8442C15.0879 8.53916 14.6071 8.71494 14.6071 9.21014L14.6071 11.7935C14.6071 12.2692 15.0925 12.4548 15.4538 12.1543ZM12.1543 15.4538C12.4571 15.0925 12.2715 14.6071 11.7958 14.6071L9.21014 14.6071C8.71725 14.6071 8.53916 15.0879 8.8442 15.4538L10.1419 17.0388C10.3269 17.2778 10.671 17.2778 10.8589 17.0388ZM5.54469 12.1543C5.90833 12.4548 6.39145 12.2692 6.39145 11.7935L6.39145 9.21014C6.39145 8.71494 5.91294 8.53916 5.54469 8.8442L3.95969 10.1419C3.72071 10.3246 3.72071 10.671 3.95969 10.8589Z"
                     fill="currentColor" fill-opacity="0.85" />
       </g>
</svg>