<?xml version="1.0" encoding="UTF-8"?>
<!--Generator: Apple Native CoreSVG 326-->
<!DOCTYPE svg PUBLIC "-//W3C//DTD SVG 1.1//EN" "http://www.w3.org/Graphics/SVG/1.1/DTD/svg11.dtd">
<svg version="1.1" xmlns="http://www.w3.org/2000/svg" xmlns:xlink="http://www.w3.org/1999/xlink"
       viewBox="0 0 35.6899 25.2621">
       <g>
              <rect height="25.2621" opacity="0" width="35.6899" x="0" y="0" />
              <path d="M12.7378 14.2857L22.5885 14.2857C23.9977 14.2857 24.4823 13.3502 23.8615 12.2183L21.3357 7.60749C20.7757 6.58015 20.1342 6.07082 18.8222 6.07082L16.5604 6.07082C15.1731 6.07082 14.5431 6.58762 13.9929 7.60749L11.4671 12.2183C10.8612 13.3278 11.3235 14.2857 12.7378 14.2857ZM6.91322 23.293L14.3097 20.7831L12.2346 17.405L6.66271 19.2775C6.3388 19.385 6.2113 19.3624 6.2113 19.1098L6.2113 17.5787C6.2113 16.9716 5.88103 16.5197 5.23947 16.5197L3.39559 16.5197C2.77356 16.5197 2.42606 16.9716 2.42606 17.5787L2.42606 20.5369C2.42606 23.3164 4.35159 24.1587 6.91322 23.293ZM3.26621 16.7794L5.35678 16.7794L5.35678 13.9733C5.35678 13.3972 4.89846 12.9045 4.31034 12.9045C3.71706 12.9045 3.26621 13.3972 3.26621 13.9733ZM0.7673 15.5815L7.87522 15.5815C8.33354 15.5815 8.63506 15.1869 8.63506 14.7826C8.63506 14.3708 8.33354 13.986 7.87522 13.986L0.7673 13.986C0.303826 13.986 0 14.3708 0 14.7826C0 15.1869 0.303826 15.5815 0.7673 15.5815ZM16.1907 25.2621L19.1379 25.2621C19.7938 25.2621 20.22 24.7578 20.22 24.0921L20.22 21.5247L15.1086 21.5247L15.1086 24.0921C15.1086 24.7578 15.5347 25.2621 16.1907 25.2621ZM17.6703 24.2259C17.2401 24.2259 16.8908 23.8789 16.8908 23.4538C16.8908 23.0282 17.2401 22.6962 17.6703 22.6962C18.0833 22.6962 18.4401 23.0282 18.4401 23.4538C18.4401 23.8789 18.0759 24.2259 17.6703 24.2259ZM15.4709 22.2304L19.86 22.2304C20.5895 22.2304 21.2184 22.0047 21.5659 21.3688L24.0495 16.8477C24.3269 16.3446 24.0415 15.8324 23.4811 15.8324L11.8475 15.8324C11.2894 15.8324 11.0017 16.3446 11.2791 16.8477L13.7627 21.3688C14.1079 22.0001 14.7391 22.2304 15.4709 22.2304ZM10.4318 11.0251L12.2518 7.70454L11.3234 7.17137C11.1895 7.08633 11.116 6.99789 11.116 6.79973L11.116 5.50157C11.116 4.8847 10.7834 4.44251 10.1442 4.44251L8.31006 4.44251C7.68573 4.44251 7.33077 4.8847 7.33077 5.50157L7.33077 8.01983C7.33077 9.05826 7.68045 9.62794 8.70196 10.1362ZM28.4154 23.293C30.9816 24.161 32.9025 23.3164 32.9025 20.5369L32.9025 17.5787C32.9025 16.9716 32.5573 16.5197 31.933 16.5197L30.0914 16.5197C29.4499 16.5197 29.1173 16.9716 29.1173 17.5787L29.1173 19.1098C29.1173 19.3624 28.9921 19.385 28.6682 19.2775L23.1384 17.4263L21.005 20.7687ZM8.16861 4.89458L10.2592 4.89458L10.2592 1.93068C10.2592 1.35233 9.80087 0.867019 9.21044 0.867019C8.61947 0.867019 8.16861 1.35233 8.16861 1.93068ZM5.6674 3.5061L12.7753 3.5061C13.2313 3.5061 13.5352 3.119 13.5352 2.71466C13.5352 2.30517 13.2313 1.91061 12.7753 1.91061L5.6674 1.91061C5.20162 1.91061 4.9001 2.30517 4.9001 2.71466C4.9001 3.119 5.20162 3.5061 5.6674 3.5061ZM27.4534 15.5815L34.5613 15.5815C35.0271 15.5815 35.3286 15.1869 35.3286 14.7826C35.3286 14.3708 35.0271 13.986 34.5613 13.986L27.4534 13.986C26.9974 13.986 26.6935 14.3708 26.6935 14.7826C26.6935 15.1869 26.9974 15.5815 27.4534 15.5815ZM29.9718 16.723L32.0624 16.723L32.0624 13.9733C32.0624 13.3972 31.6115 12.9045 31.0205 12.9045C30.4301 12.9045 29.9718 13.3972 29.9718 13.9733ZM24.8939 11.0556L26.6335 10.1621C27.6918 9.63431 28.0093 9.07724 28.0093 8.02444L28.0093 5.51079C28.0093 4.88931 27.6595 4.44251 27.0306 4.44251L25.1775 4.44251C24.5239 4.44251 24.189 4.88931 24.189 5.51079L24.189 6.79742C24.189 6.99789 24.1178 7.09379 23.9793 7.17367L23.0377 7.6477ZM25.0694 4.89458L27.16 4.89458L27.16 1.93068C27.16 1.35233 26.7091 0.867019 26.1158 0.867019C25.5277 0.867019 25.0694 1.35233 25.0694 1.93068ZM22.5533 3.5061L29.6612 3.5061C30.1247 3.5061 30.4285 3.119 30.4285 2.71466C30.4285 2.30517 30.1247 1.91061 29.6612 1.91061L22.5533 1.91061C22.0949 1.91061 21.7934 2.30517 21.7934 2.71466C21.7934 3.119 22.0949 3.5061 22.5533 3.5061Z"
                     fill="currentColor" fill-opacity="0.85" />
       </g>
</svg>