<?xml version="1.0" encoding="UTF-8"?>
<!--Generator: Apple Native CoreSVG 326-->
<!DOCTYPE svg PUBLIC "-//W3C//DTD SVG 1.1//EN" "http://www.w3.org/Graphics/SVG/1.1/DTD/svg11.dtd">
<svg version="1.1" xmlns="http://www.w3.org/2000/svg" xmlns:xlink="http://www.w3.org/1999/xlink"
       viewBox="0 0 25.2104 26.668">
       <g>
              <rect height="26.668" opacity="0" width="25.2104" x="0" y="0" />
              <path d="M15.7719 22.0881C14.4803 23.2639 12.6815 23.9282 10.5404 23.9282C6.03767 23.9282 3.04909 20.9907 3.04909 16.5931C3.04909 14.7844 3.69987 12.79 4.57249 10.9105ZM12.4929 3.90619C13.8664 6.01623 15.2534 8.27585 16.2685 10.3981C17.2601 12.4504 18.0316 14.6325 18.0316 16.5931C18.0316 17.0372 18.0011 17.4664 17.9338 17.8748L6.80128 6.75318C7.37469 5.79305 7.97943 4.83673 8.58037 3.90619C9.07139 3.16479 9.68583 2.70538 10.5404 2.70538C11.3828 2.70538 12.0093 3.16479 12.4929 3.90619ZM21.8 3.29417C21.8 5.14315 20.3571 6.58604 18.5133 6.58604C16.6718 6.58604 15.2214 5.14315 15.2214 3.29417C15.2214 1.45035 16.6718 0 18.5133 0C20.3571 0 21.8 1.45035 21.8 3.29417ZM17.2176 3.29417C17.2176 4.02101 17.7865 4.58238 18.5133 4.58238C19.235 4.58238 19.8038 4.02101 19.8038 3.29417C19.8038 2.56502 19.235 1.99619 18.5133 1.99619C17.7865 1.99619 17.2176 2.56502 17.2176 3.29417Z"
                     fill="currentColor" fill-opacity="0.85" />
              <path d="M19.2396 23.5837C19.5796 23.914 20.1327 23.9214 20.4533 23.5837C20.7761 23.2511 20.7933 22.7078 20.4533 22.37L2.86445 4.79613C2.52672 4.4584 1.98105 4.4584 1.64102 4.79613C1.32051 5.11895 1.31074 5.67953 1.64102 6.0098Z"
                     fill="currentColor" fill-opacity="0.85" />
       </g>
</svg>