<?xml version="1.0" encoding="UTF-8"?>
<!--Generator: Apple Native CoreSVG 326-->
<!DOCTYPE svg PUBLIC "-//W3C//DTD SVG 1.1//EN" "http://www.w3.org/Graphics/SVG/1.1/DTD/svg11.dtd">
<svg version="1.1" xmlns="http://www.w3.org/2000/svg" xmlns:xlink="http://www.w3.org/1999/xlink"
       viewBox="0 0 19.1197 26.668">
       <g>
              <rect height="26.668" opacity="0" width="19.1197" x="0" y="0" />
              <path d="M7.49127 23.9282C12.0014 23.9282 14.9825 20.9907 14.9825 16.5931C14.9825 14.6325 14.2134 12.4504 13.2194 10.3981C12.2043 8.27585 10.8173 6.01623 9.45125 3.90619C8.96024 3.16479 8.34349 2.70538 7.49127 2.70538C6.64651 2.70538 6.0223 3.16479 5.53875 3.90619C4.12043 6.09084 2.6887 8.41761 1.67362 10.5995C0.734181 12.5698 0 14.6848 0 16.5931C0 20.9907 2.98859 23.9282 7.49127 23.9282ZM15.4665 6.58604C17.3155 6.58604 18.7584 5.14315 18.7584 3.29417C18.7584 1.45035 17.3155 0 15.4665 0C13.6227 0 12.1723 1.45035 12.1723 3.29417C12.1723 5.14315 13.6227 6.58604 15.4665 6.58604ZM15.4665 4.58238C14.7397 4.58238 14.1685 4.02101 14.1685 3.29417C14.1685 2.56502 14.7397 1.99619 15.4665 1.99619C16.1934 1.99619 16.7547 2.56502 16.7547 3.29417C16.7547 4.02101 16.1934 4.58238 15.4665 4.58238Z"
                     fill="currentColor" fill-opacity="0.85" />
       </g>
</svg>