<?xml version="1.0" encoding="UTF-8"?>
<!--Generator: Apple Native CoreSVG 326-->
<!DOCTYPE svg PUBLIC "-//W3C//DTD SVG 1.1//EN" "http://www.w3.org/Graphics/SVG/1.1/DTD/svg11.dtd">
<svg version="1.1" xmlns="http://www.w3.org/2000/svg" xmlns:xlink="http://www.w3.org/1999/xlink"
       viewBox="0 0 22.8408 17.3716">
       <g>
              <rect height="17.3716" opacity="0" width="22.8408" x="0" y="0" />
              <path d="M3.64834 17.3716L18.8335 17.3716C21.158 17.3716 22.4795 16.0501 22.4795 13.7325L22.4795 3.65119C22.4795 1.33358 21.158 0.0120705 18.8335 0.0120705L3.64834 0.0120705C1.32382 0.0120705 0 1.33358 0 3.65119L0 13.7325C0 16.0501 1.32382 17.3716 3.64834 17.3716ZM4.05583 14.352C3.37024 14.352 3.01964 14.041 3.01964 13.3014L3.01964 4.08228C3.01964 3.35016 3.37024 3.03171 4.05583 3.03171L18.4237 3.03171C19.107 3.03171 19.4599 3.35016 19.4599 4.08228L19.4599 13.3014C19.4599 14.041 19.107 14.352 18.4237 14.352Z"
                     fill="currentColor" fill-opacity="0.85" />
              <path d="M13.4424 7.05958C14.0823 7.05958 14.6223 6.5047 14.6223 5.86478C14.6223 5.21739 14.0823 4.67743 13.4424 4.67743C12.7927 4.67743 12.2551 5.21739 12.2551 5.86478C12.2551 6.5047 12.7927 7.05958 13.4424 7.05958ZM16.578 7.05958C17.2179 7.05958 17.7653 6.5047 17.7653 5.86478C17.7653 5.21739 17.2179 4.67743 16.578 4.67743C15.938 4.67743 15.3906 5.21739 15.3906 5.86478C15.3906 6.5047 15.938 7.05958 16.578 7.05958ZM13.4424 9.8608C14.0823 9.8608 14.6223 9.32084 14.6223 8.68091C14.6223 8.03353 14.0823 7.49357 13.4424 7.49357C12.7927 7.49357 12.2551 8.03353 12.2551 8.68091C12.2551 9.32084 12.7927 9.8608 13.4424 9.8608ZM16.578 9.8608C17.2179 9.8608 17.7653 9.32084 17.7653 8.68091C17.7653 8.03353 17.2179 7.49357 16.578 7.49357C15.938 7.49357 15.3906 8.03353 15.3906 8.68091C15.3906 9.32084 15.938 9.8608 16.578 9.8608ZM13.4424 12.6769C14.0823 12.6769 14.6223 12.137 14.6223 11.4971C14.6223 10.8497 14.0823 10.3023 13.4424 10.3023C12.7927 10.3023 12.2551 10.8497 12.2551 11.4971C12.2551 12.137 12.7927 12.6769 13.4424 12.6769ZM16.578 12.6769C17.2179 12.6769 17.7653 12.137 17.7653 11.4971C17.7653 10.8497 17.2179 10.3023 16.578 10.3023C15.938 10.3023 15.3906 10.8497 15.3906 11.4971C15.3906 12.137 15.938 12.6769 16.578 12.6769ZM7.91568 12.3542C9.47424 12.3542 10.5031 11.3495 10.5031 9.83229C10.5031 9.1681 10.2233 8.47244 9.90459 7.81826C9.52713 7.04259 8.97837 6.18637 8.48251 5.41071C8.3131 5.16778 8.119 5.0202 7.91568 5.0202C7.7049 5.0202 7.5108 5.16778 7.34139 5.41071C6.84783 6.18637 6.29907 7.04259 5.92677 7.82572C5.60056 8.4799 5.32821 9.1681 5.32821 9.83229C5.32821 11.3495 6.35712 12.3542 7.91568 12.3542Z"
                     fill="currentColor" fill-opacity="0.85" />
       </g>
</svg>