<?xml version="1.0" encoding="UTF-8"?>
<!--Generator: Apple Native CoreSVG 326-->
<!DOCTYPE svg PUBLIC "-//W3C//DTD SVG 1.1//EN" "http://www.w3.org/Graphics/SVG/1.1/DTD/svg11.dtd">
<svg version="1.1" xmlns="http://www.w3.org/2000/svg" xmlns:xlink="http://www.w3.org/1999/xlink"
       viewBox="0 0 21.365 21.006">
       <g>
              <rect height="21.006" opacity="0" width="21.365" x="0" y="0" />
              <path d="M21.0037 10.4981C21.0037 16.2923 16.302 20.9962 10.4981 20.9962C4.70394 20.9962 0 16.2923 0 10.4981C0 4.70163 4.70394 0 10.4981 0C16.302 0 21.0037 4.70163 21.0037 10.4981ZM9.6821 5.72842C8.9307 6.88022 8.13155 8.17061 7.59729 9.31495C7.19241 10.1753 6.85225 11.0789 6.85225 11.9332C6.85225 14.0769 8.30327 15.4969 10.4981 15.4969C12.7004 15.4969 14.1514 14.0769 14.1514 11.9332C14.1514 11.0789 13.8113 10.1678 13.4064 9.30003C12.867 8.15569 12.0581 6.88022 11.3216 5.72842C11.0781 5.38213 10.8002 5.1628 10.4981 5.1628C10.2035 5.1628 9.92788 5.38213 9.6821 5.72842Z"
                     fill="currentColor" fill-opacity="0.85" />
       </g>
</svg>