<?xml version="1.0" encoding="UTF-8"?>
<!--Generator: Apple Native CoreSVG 326-->
<!DOCTYPE svg PUBLIC "-//W3C//DTD SVG 1.1//EN" "http://www.w3.org/Graphics/SVG/1.1/DTD/svg11.dtd">
<svg version="1.1" xmlns="http://www.w3.org/2000/svg" xmlns:xlink="http://www.w3.org/1999/xlink"
       viewBox="0 0 21.365 21.006">
       <g>
              <rect height="21.006" opacity="0" width="21.365" x="0" y="0" />
              <path d="M10.4981 20.9962C16.302 20.9962 21.0037 16.2946 21.0037 10.4981C21.0037 4.70163 16.302 0 10.4981 0C4.70163 0 0 4.70163 0 10.4981C0 16.2946 4.70163 20.9962 10.4981 20.9962ZM10.4981 17.9484C6.37829 17.9484 3.04785 14.6179 3.04785 10.4981C3.04785 6.37829 6.37829 3.04785 10.4981 3.04785C14.6179 3.04785 17.9558 6.37829 17.9558 10.4981C17.9558 14.6179 14.6179 17.9484 10.4981 17.9484Z"
                     fill="currentColor" fill-opacity="0.85" />
              <path d="M13.4177 5.50005L7.56005 5.50005C6.81216 5.50005 6.29865 6.0331 6.29865 6.79536L6.29865 7.95595L14.6791 7.95595L14.6791 6.79536C14.6791 6.0331 14.1656 5.50005 13.4177 5.50005ZM8.10474 7.36541C7.82845 7.36541 7.60099 7.13564 7.60099 6.85935C7.60099 6.58076 7.82845 6.3533 8.10474 6.3533C8.38103 6.3533 8.60849 6.58076 8.60849 6.85935C8.60849 7.13564 8.38103 7.36541 8.10474 7.36541ZM9.46732 7.36541C9.18873 7.36541 8.96357 7.13564 8.96357 6.85935C8.96357 6.58076 9.18873 6.3533 9.46732 6.3533C9.74361 6.3533 9.97107 6.58076 9.97107 6.85935C9.97107 7.13564 9.74361 7.36541 9.46732 7.36541ZM12.0853 7.19478C11.882 7.19478 11.7424 7.05521 11.7424 6.85935C11.7424 6.67095 11.882 6.53139 12.0853 6.53139L13.0541 6.53139C13.25 6.53139 13.3895 6.67095 13.3895 6.85935C13.3895 7.05521 13.25 7.19478 13.0541 7.19478ZM7.56005 15.4772L13.4177 15.4772C14.1656 15.4772 14.6791 14.9464 14.6791 14.1842L14.6791 8.75376L6.29865 8.75376L6.29865 14.1842C6.29865 14.9464 6.81216 15.4772 7.56005 15.4772ZM8.6706 14.2189C8.33275 14.2189 8.07708 13.9805 8.07708 13.6203L8.07708 10.4817C8.07708 10.129 8.33275 9.88075 8.6706 9.88075L12.3072 9.88075C12.645 9.88075 12.9007 10.129 12.9007 10.4817L12.9007 13.6203C12.9007 13.9805 12.645 14.2189 12.3072 14.2189ZM8.98978 13.4666L11.988 13.4666C12.0777 13.4666 12.1162 13.4108 12.1162 13.3309L12.1162 10.7711C12.1162 10.6912 12.0777 10.6331 11.988 10.6331L8.98978 10.6331C8.90013 10.6331 8.86161 10.6912 8.86161 10.7711L8.86161 13.3309C8.86161 13.4108 8.90013 13.4666 8.98978 13.4666Z"
                     fill="currentColor" fill-opacity="0.85" />
       </g>
</svg>