<?xml version="1.0" encoding="UTF-8"?>
<!--Generator: Apple Native CoreSVG 326-->
<!DOCTYPE svg PUBLIC "-//W3C//DTD SVG 1.1//EN" "http://www.w3.org/Graphics/SVG/1.1/DTD/svg11.dtd">
<svg version="1.1" xmlns="http://www.w3.org/2000/svg" xmlns:xlink="http://www.w3.org/1999/xlink"
       viewBox="0 0 24.3144 26.4774">
       <g>
              <rect height="26.4774" opacity="0" width="24.3144" x="0" y="0" />
              <path d="M21.5934 13.9521C20.738 13.6069 19.7164 13.8369 19.1201 14.6787C18.9616 14.4613 18.7567 14.2744 18.515 14.131C18.1936 13.9281 17.8319 13.8175 17.4685 13.8037L17.4685 13.2632C17.4685 12.4745 16.9015 11.9173 16.1151 11.9173L7.83798 11.9173C7.05157 11.9173 6.48692 12.4745 6.48692 13.2632L6.48692 20.4593C6.48692 21.248 7.05157 21.8052 7.83798 21.8052L12.9196 21.8052C13.1344 22.175 13.2831 22.4972 13.2831 22.8203C13.2831 22.9938 13.232 23.1604 13.1194 23.3683C12.8784 23.7953 12.7989 24.2383 12.8516 24.6516L5.27435 24.6516C3.55135 24.6516 2.35964 23.4254 2.35964 21.676L2.35964 9.28215L21.5934 9.28215ZM15.6585 13.9687L15.6585 14.6088C15.5105 14.422 15.327 14.2607 15.1154 14.1333C14.1465 13.5193 12.811 13.7439 12.1602 14.8794C11.6955 15.6549 11.4606 16.5641 11.4606 17.4475C11.4606 18.5322 11.6806 19.3752 11.9694 20.0572L8.58823 20.0572C8.41354 20.0572 8.2946 19.9233 8.2946 19.7538L8.2946 13.9687C8.2946 13.7991 8.41354 13.6653 8.58823 13.6653L15.3648 13.6653C15.5321 13.6653 15.6585 13.7991 15.6585 13.9687ZM21.5934 4.79165L21.5934 7.40939L2.35964 7.40939L2.35964 4.79165C2.35964 3.04221 3.55135 1.81605 5.27435 1.81605L18.681 1.81605C20.3943 1.81605 21.5934 3.04221 21.5934 4.79165ZM5.36424 4.94554C5.36424 5.58073 5.884 6.11026 6.52896 6.11026C7.16645 6.11026 7.68391 5.58073 7.68391 4.94554C7.68391 4.30574 7.16645 3.78082 6.52896 3.78082C5.884 3.78082 5.36424 4.30574 5.36424 4.94554ZM8.49446 4.94554C8.49446 5.58073 9.01938 6.11026 9.65687 6.11026C10.2944 6.11026 10.8193 5.58073 10.8193 4.94554C10.8193 4.30574 10.2944 3.78082 9.65687 3.78082C9.01938 3.78082 8.49446 4.30574 8.49446 4.94554ZM15.5771 4.18176C15.1251 4.18176 14.803 4.50105 14.803 4.94554C14.803 5.39749 15.1251 5.71448 15.5771 5.71448L17.7631 5.71448C18.2099 5.71448 18.532 5.39749 18.532 4.94554C18.532 4.50105 18.2099 4.18176 17.7631 4.18176Z"
                     fill="currentColor" fill-opacity="0.85" />
              <path d="M14.432 25.0719C14.8122 25.3418 15.3928 25.3246 15.7087 24.7606C16.0591 24.1833 16.2475 23.4883 16.2475 22.8203C16.2475 20.3781 14.4077 19.2362 14.4077 17.4475C14.4077 17.0472 14.4858 16.7266 14.7374 16.2792C15.0073 15.818 14.8063 15.3895 14.4606 15.1788C14.0781 14.941 13.5244 14.9703 13.2229 15.4998C12.8656 16.0822 12.6893 16.7623 12.6893 17.4475C12.6893 19.8731 14.5193 21.0076 14.5193 22.8203C14.5193 23.2207 14.4509 23.5217 14.1919 23.9789C13.9271 24.4424 14.1253 24.8634 14.432 25.0719ZM17.8436 25.0696C18.2307 25.3418 18.8091 25.32 19.1181 24.7583C19.4633 24.181 19.6591 23.4883 19.6591 22.8203C19.6591 20.3683 17.8194 19.2339 17.8194 17.4452C17.8194 17.0472 17.89 16.7266 18.1468 16.2769C18.419 15.8157 18.2082 15.3895 17.8625 15.1788C17.4874 14.9433 16.9263 14.9703 16.6248 15.49C16.2773 16.0822 16.101 16.76 16.101 17.4452C16.101 19.8731 17.931 21.0053 17.931 22.8203C17.931 23.2184 17.8551 23.5194 17.6035 23.9692C17.3388 24.4424 17.5272 24.8536 17.8436 25.0696ZM21.2702 25.0673C21.6573 25.3395 22.2357 25.3177 22.5446 24.756C22.8898 24.1713 23.0857 23.486 23.0857 22.818C23.0857 20.366 21.2459 19.2316 21.2459 17.4429C21.2459 17.0448 21.3166 16.7243 21.5734 16.2746C21.8456 15.8134 21.6348 15.3872 21.2891 15.1765C20.914 14.941 20.3529 14.968 20.0514 15.4877C19.7039 16.0799 19.5276 16.7577 19.5276 17.4429C19.5276 19.8708 21.3575 21.003 21.3575 22.818C21.3575 23.2161 21.2817 23.5171 21.0301 23.9669C20.7654 24.4401 20.9538 24.8513 21.2702 25.0673Z"
                     fill="currentColor" fill-opacity="0.85" />
       </g>
</svg>