<?xml version="1.0" encoding="UTF-8"?>
<!--Generator: Apple Native CoreSVG 326-->
<!DOCTYPE svg PUBLIC "-//W3C//DTD SVG 1.1//EN" "http://www.w3.org/Graphics/SVG/1.1/DTD/svg11.dtd">
<svg version="1.1" xmlns="http://www.w3.org/2000/svg" xmlns:xlink="http://www.w3.org/1999/xlink"
       viewBox="0 0 32.0763 23.152">
       <g>
              <rect height="23.152" opacity="0" width="32.0763" x="0" y="0" />
              <path d="M8.49585 8.85276L11.1167 8.85276L11.1167 5.13345C11.1167 3.55317 12.3029 2.62829 14.3891 2.62829L17.3258 2.62829C19.4218 2.62829 20.6006 3.55317 20.6006 5.13345L20.6006 8.85276L23.2214 8.85276L23.2214 5.13345C23.2214 1.99007 20.9229 0 17.3258 0L14.3891 0C10.8018 0 8.49585 1.99007 8.49585 5.13345ZM4.00779 23.1325L27.7071 23.1325C30.0523 23.1325 31.7149 21.4894 31.7149 19.1735L31.7149 12.729C31.7149 9.23695 29.2137 6.75751 25.6923 6.75751L6.02266 6.75751C2.50127 6.75751 0 9.23695 0 12.729L0 19.1735C0 21.4894 1.66264 23.1325 4.00779 23.1325ZM6.27651 23.1325L6.27651 6.75751L8.49585 6.75751L8.49585 23.1325ZM11.1167 23.1325L11.1167 6.75751L13.336 6.75751L13.336 23.1325ZM13.336 15.0251L13.336 12.8058L18.3812 12.8058L18.3812 15.0251ZM18.3812 23.1325L18.3812 6.75751L20.6006 6.75751L20.6006 23.1325ZM23.2214 23.1325L23.2214 6.75751L25.4482 6.75751L25.4482 23.1325Z"
                     fill="currentColor" fill-opacity="0.85" />
       </g>
</svg>