<?xml version="1.0" encoding="UTF-8"?>
<!--Generator: Apple Native CoreSVG 326-->
<!DOCTYPE svg PUBLIC "-//W3C//DTD SVG 1.1//EN" "http://www.w3.org/Graphics/SVG/1.1/DTD/svg11.dtd">
<svg version="1.1" xmlns="http://www.w3.org/2000/svg" xmlns:xlink="http://www.w3.org/1999/xlink"
       viewBox="0 0 21.365 21.006">
       <g>
              <rect height="21.006" opacity="0" width="21.365" x="0" y="0" />
              <path d="M10.4981 20.9962C16.302 20.9962 21.0037 16.2946 21.0037 10.4981C21.0037 4.70163 16.302 0 10.4981 0C4.70163 0 0 4.70163 0 10.4981C0 16.2946 4.70163 20.9962 10.4981 20.9962ZM10.4981 17.9484C6.37829 17.9484 3.04785 14.6179 3.04785 10.4981C3.04785 6.37829 6.37829 3.04785 10.4981 3.04785C14.6179 3.04785 17.9558 6.37829 17.9558 10.4981C17.9558 14.6179 14.6179 17.9484 10.4981 17.9484Z"
                     fill="currentColor" fill-opacity="0.85" />
              <path d="M8.52576 14.8014L12.4287 14.8014C13.1653 14.8014 13.5954 14.4155 13.5954 13.7488C13.5954 13.0798 13.1653 12.6939 12.4287 12.6939L9.62266 12.6939L9.62266 11.3353L12.3687 11.3353C12.9786 11.3353 13.3565 11.0085 13.3565 10.4412C13.3565 9.87663 12.9786 9.54011 12.3687 9.54011L9.62266 9.54011L9.62266 8.28089L12.4287 8.28089C13.1653 8.28089 13.5954 7.89269 13.5954 7.22602C13.5954 6.55704 13.1653 6.17345 12.4287 6.17345L8.52576 6.17345C7.48823 6.17345 6.95598 6.73392 6.95598 7.78351L6.95598 13.1913C6.95598 14.2409 7.47331 14.8014 8.52576 14.8014Z"
                     fill="currentColor" fill-opacity="0.85" />
       </g>
</svg>