<?xml version="1.0" encoding="UTF-8"?>
<!--Generator: Apple Native CoreSVG 326-->
<!DOCTYPE svg PUBLIC "-//W3C//DTD SVG 1.1//EN" "http://www.w3.org/Graphics/SVG/1.1/DTD/svg11.dtd">
<svg version="1.1" xmlns="http://www.w3.org/2000/svg" xmlns:xlink="http://www.w3.org/1999/xlink"
       viewBox="0 0 19.3993 19.0529">
       <g>
              <rect height="19.0529" opacity="0" width="19.3993" x="0" y="0" />
              <path d="M19.0379 3.63912L19.0379 15.4011C19.0379 17.7262 17.7164 19.0379 15.3896 19.0379L3.64834 19.0379C1.32382 19.0379 0 17.7262 0 15.4011L0 3.63912C0 1.32151 1.32382 0 3.64834 0L15.3896 0C17.7164 0 19.0379 1.32151 19.0379 3.63912ZM7.50783 4.91096C6.39855 4.91096 5.82153 5.51103 5.82153 6.63984L5.82153 12.3744C5.82153 13.5181 6.39109 14.1107 7.50783 14.1107L11.6617 14.1107C12.4552 14.1107 12.9226 13.7001 12.9226 12.9789C12.9226 12.2681 12.4552 11.8523 11.6617 11.8523L8.69371 11.8523L8.69371 10.4156L11.6069 10.4156C12.2661 10.4156 12.6664 10.0716 12.6664 9.46459C12.6664 8.85815 12.2661 8.49925 11.6069 8.49925L8.69371 8.49925L8.69371 7.16937L11.6617 7.16937C12.4552 7.16937 12.9226 6.75648 12.9226 6.03528C12.9226 5.32439 12.4552 4.91096 11.6617 4.91096Z"
                     fill="currentColor" fill-opacity="0.85" />
       </g>
</svg>