<?xml version="1.0" encoding="UTF-8"?>
<!--Generator: Apple Native CoreSVG 326-->
<!DOCTYPE svg PUBLIC "-//W3C//DTD SVG 1.1//EN" "http://www.w3.org/Graphics/SVG/1.1/DTD/svg11.dtd">
<svg version="1.1" xmlns="http://www.w3.org/2000/svg" xmlns:xlink="http://www.w3.org/1999/xlink"
       viewBox="0 0 16.5746 22.4684">
       <g>
              <rect height="22.4684" opacity="0" width="16.5746" x="0" y="0" />
              <path d="M0.38832 16.8912C0.38832 20.1334 2.29183 21.9767 5.44849 21.9767C7.82172 21.9767 9.53277 20.7965 10.6321 18.7037L11.4662 17.1314C12.9523 14.3042 16.5746 13.0377 16.5746 8.13659C16.5746 3.25808 13.3395 0 8.50307 0C3.64124 0 0.38832 3.29253 0.38832 8.24049ZM2.87013 16.8607L2.87013 8.24049C2.87013 4.78091 5.12732 2.48181 8.50307 2.48181C11.8563 2.48181 14.0928 4.74361 14.0928 8.13659C14.0928 12.0676 10.9562 12.7558 9.15561 16.1987L8.4776 17.4897C7.829 18.7529 6.96665 19.4782 5.56162 19.4782C3.87435 19.4782 2.87013 18.5021 2.87013 16.8607ZM5.03973 13.0769C5.58934 13.0769 5.98336 12.6829 5.98336 12.1258L5.98336 8.20428C5.98336 6.63517 6.9786 5.60383 8.50077 5.60383C10.067 5.60383 11.1012 6.61048 11.1012 8.13713C11.1012 8.66436 11.5228 9.08076 12.05 9.08076C12.5623 9.08076 12.9862 8.66436 12.9862 8.13713C12.9862 5.49744 11.195 3.72635 8.50077 3.72635C5.86556 3.72635 4.09841 5.51982 4.09841 8.20428L4.09841 12.1258C4.09841 12.6829 4.48267 13.0769 5.03973 13.0769ZM4.87954 10.557L7.47901 10.557C8.0237 10.557 8.36902 10.8753 8.36902 11.3568C8.36902 11.6596 8.24261 11.9503 8.03062 12.2186L7.11987 13.3575C6.94815 13.5757 6.85741 13.8112 6.85741 14.0266C6.85741 14.524 7.26635 14.9231 7.80104 14.9231C8.10025 14.9231 8.35986 14.7761 8.54826 14.5412L9.55667 13.2581C10.0018 12.7056 10.273 11.9261 10.273 11.2833C10.273 9.7433 9.1385 8.69444 7.45202 8.69444L4.87954 8.69444Z"
                     fill="currentColor" fill-opacity="0.85" />
       </g>
</svg>