<?xml version="1.0" encoding="UTF-8"?>
<!--Generator: Apple Native CoreSVG 326-->
<!DOCTYPE svg PUBLIC "-//W3C//DTD SVG 1.1//EN" "http://www.w3.org/Graphics/SVG/1.1/DTD/svg11.dtd">
<svg version="1.1" xmlns="http://www.w3.org/2000/svg" xmlns:xlink="http://www.w3.org/1999/xlink"
       viewBox="0 0 25.5273 17.1646">
       <g>
              <rect height="17.1646" opacity="0" width="25.5273" x="0" y="0" />
              <path d="M6.68193 17.1595L18.484 17.1595C23.0464 17.1595 25.166 15.0514 25.166 10.5144L25.166 6.65197C25.166 2.11035 23.0556 0 18.5094 0L6.65658 0C2.10519 0 0 2.11035 0 6.65197L0 10.5144C0 15.0514 2.1121 17.1595 6.68193 17.1595ZM6.59987 14.1398C4.13778 14.1398 3.01964 13.0355 3.01964 10.604L3.01964 6.56244C3.01964 4.12625 4.12856 3.01964 6.57451 3.01964L18.584 3.01964C21.0397 3.01964 22.1389 4.12625 22.1389 6.56244L22.1389 10.604C22.1389 13.0355 21.0305 14.1398 18.5586 14.1398ZM1.5147 7.4331L23.6513 7.4331L23.6513 6.25279L1.5147 6.25279ZM12.583 11.0958C13.1752 11.0883 13.6571 10.6213 13.6571 10.0366C13.6571 9.43693 13.1752 8.96478 12.583 8.96478C11.9983 8.96478 11.5112 9.43693 11.5112 10.0366C11.5112 10.6213 11.9983 11.1032 12.583 11.0958Z"
                     fill="currentColor" fill-opacity="0.85" />
       </g>
</svg>