<?xml version="1.0" encoding="UTF-8"?>
<!--Generator: Apple Native CoreSVG 326-->
<!DOCTYPE svg PUBLIC "-//W3C//DTD SVG 1.1//EN" "http://www.w3.org/Graphics/SVG/1.1/DTD/svg11.dtd">
<svg version="1.1" xmlns="http://www.w3.org/2000/svg" xmlns:xlink="http://www.w3.org/1999/xlink"
       viewBox="0 0 21.8196 21.1119">
       <g>
              <rect height="21.1119" opacity="0" width="21.8196" x="0" y="0" />
              <path d="M4.93104 9.13602C7.57431 9.16301 9.82816 7.07517 9.79832 4.54963C9.76102 2.04593 7.55192 0 4.93104 0C2.94334 0 1.38569 1.04516 0.375037 2.49054C0.132655 2.87018 0 3.33135 0 3.81666L0 5.33428C0 5.78974 0.127499 6.23599 0.367576 6.63056C1.26917 8.03117 2.91349 9.11418 4.93104 9.13602ZM2.39658 6.4404C2.07784 6.4404 1.8303 6.1854 1.8303 5.85689L1.8303 3.27682C1.8303 2.94831 2.07784 2.69331 2.39658 2.69331C2.7274 2.69331 2.98009 2.94831 2.98009 3.27682L2.98009 5.85689C2.98009 6.1854 2.7274 6.4404 2.39658 6.4404ZM6.46072 17.2196L7.33556 17.2196C8.20731 17.2196 8.76492 16.7103 8.76492 15.8856L8.76492 9.20589C7.68755 10.018 6.39479 10.4608 5.03366 10.4643L5.03366 15.8856C5.03366 16.7103 5.6085 17.2196 6.46072 17.2196ZM6.13639 21.0975L7.65989 21.0975L7.65989 15.7753L6.13639 15.7753ZM16.5347 9.13602C18.5448 9.11418 20.1966 8.03117 21.0907 6.63056C21.3383 6.23599 21.4583 5.78974 21.4583 5.33428L21.4583 3.81666C21.4583 3.33135 21.3331 2.87018 21.0833 2.49054C20.0726 1.04516 18.5224 0 16.5347 0C13.9064 0 11.6973 2.04593 11.66 4.54963C11.6376 7.07517 13.8915 9.16301 16.5347 9.13602ZM19.0594 6.4404C18.7309 6.4404 18.4782 6.1854 18.4782 5.85689L18.4782 3.27682C18.4782 2.94831 18.7309 2.69331 19.0594 2.69331C19.3805 2.69331 19.6355 2.94831 19.6355 3.27682L19.6355 5.85689C19.6355 6.1854 19.3805 6.4404 19.0594 6.4404ZM14.1227 17.2196L15.005 17.2196C15.8498 17.2196 16.4321 16.7103 16.4321 15.8856L16.4321 10.4643C15.0635 10.4608 13.7782 10.018 12.6934 9.20589L12.6934 15.8856C12.6934 16.7103 13.2584 17.2196 14.1227 17.2196ZM15.3294 21.0975L15.3294 15.7753L13.7984 15.7753L13.7984 21.0975Z"
                     fill="currentColor" fill-opacity="0.85" />
       </g>
</svg>