<?xml version="1.0" encoding="UTF-8"?>
<!--Generator: Apple Native CoreSVG 326-->
<!DOCTYPE svg PUBLIC "-//W3C//DTD SVG 1.1//EN" "http://www.w3.org/Graphics/SVG/1.1/DTD/svg11.dtd">
<svg version="1.1" xmlns="http://www.w3.org/2000/svg" xmlns:xlink="http://www.w3.org/1999/xlink"
       viewBox="0 0 21.365 21.006">
       <g>
              <rect height="21.006" opacity="0" width="21.365" x="0" y="0" />
              <path d="M21.0037 10.4981C21.0037 16.2923 16.302 20.9962 10.4981 20.9962C4.70394 20.9962 0 16.2923 0 10.4981C0 4.70163 4.70394 0 10.4981 0C16.302 0 21.0037 4.70163 21.0037 10.4981ZM6.70432 11.5419C6.07185 11.5419 5.6583 11.956 5.6583 12.5563L5.6583 13.7133C5.6583 14.3733 6.07185 14.7426 6.70432 14.7426L14.2994 14.7426C14.9318 14.7426 15.3454 14.3733 15.3454 13.7133L15.3454 12.5563C15.3454 11.956 14.9318 11.5419 14.2994 11.5419ZM9.453 5.51467L5.96565 8.76826C5.73479 8.97673 5.59698 9.27188 5.59928 9.50735C5.6062 10.0351 5.98803 10.4141 6.55716 10.4141L14.4442 10.4141C15.011 10.4141 15.4044 10.0351 15.4044 9.50735C15.4044 9.27188 15.2643 8.97904 15.0357 8.76826L11.5507 5.51467C11.1086 5.12307 10.8415 4.95366 10.5056 4.95366C10.1621 4.95366 9.89276 5.12999 9.453 5.51467Z"
                     fill="currentColor" fill-opacity="0.85" />
       </g>
</svg>