<?xml version="1.0" encoding="UTF-8"?>
<!--Generator: Apple Native CoreSVG 326-->
<!DOCTYPE svg PUBLIC "-//W3C//DTD SVG 1.1//EN" "http://www.w3.org/Graphics/SVG/1.1/DTD/svg11.dtd">
<svg version="1.1" xmlns="http://www.w3.org/2000/svg" xmlns:xlink="http://www.w3.org/1999/xlink"
       viewBox="0 0 19.9028 19.4994">
       <g>
              <rect height="19.4994" opacity="0" width="19.9028" x="0" y="0" />
              <path d="M1.9421 10.8686L17.6022 10.8686C18.7267 10.8686 19.5368 10.0779 19.5368 9.07354C19.5368 8.56475 19.2486 7.98421 18.7812 7.57187L11.8649 1.15987C10.9509 0.365817 10.4582 0.0172263 9.76843 0.0172263C9.08332 0.0172263 8.58594 0.370427 7.67428 1.15987L0.755668 7.57187C0.288252 7.98421-0.0022913 8.56475 1.3613e-05 9.07354C0.00231852 10.0779 0.810197 10.8686 1.9421 10.8686ZM2.04788 19.4994L17.4936 19.4994C18.6911 19.4994 19.4062 18.7946 19.4062 17.612L19.4062 14.6955C19.4062 13.5129 18.6911 12.8081 17.4936 12.8081L2.04788 12.8081C0.850352 12.8081 0.135277 13.5129 0.135277 14.6955L0.135277 17.612C0.135277 18.7946 0.850352 19.4994 2.04788 19.4994Z"
                     fill="currentColor" fill-opacity="0.85" />
       </g>
</svg>