<?xml version="1.0" encoding="UTF-8"?>
<!--Generator: Apple Native CoreSVG 326-->
<!DOCTYPE svg PUBLIC "-//W3C//DTD SVG 1.1//EN" "http://www.w3.org/Graphics/SVG/1.1/DTD/svg11.dtd">
<svg version="1.1" xmlns="http://www.w3.org/2000/svg" xmlns:xlink="http://www.w3.org/1999/xlink"
       viewBox="0 0 21.365 21.006">
       <g>
              <rect height="21.006" opacity="0" width="21.365" x="0" y="0" />
              <path d="M10.4981 20.9962C16.302 20.9962 21.0037 16.2946 21.0037 10.4981C21.0037 4.70163 16.302 0 10.4981 0C4.70163 0 0 4.70163 0 10.4981C0 16.2946 4.70163 20.9962 10.4981 20.9962ZM10.4981 17.9484C6.37829 17.9484 3.04785 14.6179 3.04785 10.4981C3.04785 6.37829 6.37829 3.04785 10.4981 3.04785C14.6179 3.04785 17.9558 6.37829 17.9558 10.4981C17.9558 14.6179 14.6179 17.9484 10.4981 17.9484Z"
                     fill="currentColor" fill-opacity="0.85" />
              <path d="M6.93111 14.4842L14.068 14.4842C14.6585 14.4842 15.0474 14.1321 15.0474 13.514L15.0474 12.4437C15.0474 11.8779 14.6585 11.4959 14.068 11.4959L6.93111 11.4959C6.34056 11.4959 5.9517 11.8779 5.9517 12.4437L5.9517 13.514C5.9517 14.1321 6.34056 14.4842 6.93111 14.4842ZM6.79372 10.4221L14.203 10.4221C14.7303 10.4221 15.1064 10.0604 15.1064 9.57965C15.1064 9.35395 14.9663 9.08349 14.755 8.88993L11.4841 5.80806C11.0644 5.44861 10.822 5.28666 10.4958 5.28666C10.1771 5.28666 9.93237 5.45322 9.51499 5.80806L6.24181 8.88993C6.02818 9.08118 5.89037 9.35395 5.89268 9.57965C5.90705 10.0604 6.2642 10.4221 6.79372 10.4221Z"
                     fill="currentColor" fill-opacity="0.85" />
       </g>
</svg>