<?xml version="1.0" encoding="UTF-8"?>
<!--Generator: Apple Native CoreSVG 326-->
<!DOCTYPE svg PUBLIC "-//W3C//DTD SVG 1.1//EN" "http://www.w3.org/Graphics/SVG/1.1/DTD/svg11.dtd">
<svg version="1.1" xmlns="http://www.w3.org/2000/svg" xmlns:xlink="http://www.w3.org/1999/xlink"
       viewBox="0 0 24.3189 15.5319">
       <g>
              <rect height="15.5319" opacity="0" width="24.3189" x="0" y="0" />
              <path d="M0 12.5977C0 14.4509 1.07531 15.517 2.94855 15.517L21.0067 15.517C22.8823 15.517 23.9576 14.4509 23.9576 12.5977L23.9576 2.91465C23.9576 1.06379 22.8823 0 21.0067 0L2.94855 0C1.07531 0 0 1.06379 0 2.91465ZM3.10917 11.7283L3.10917 3.79149C3.10917 3.15254 3.46371 2.81293 4.0952 2.81293L19.8624 2.81293C20.4939 2.81293 20.8484 3.15254 20.8484 3.79149L20.8484 11.7283C20.8484 12.3225 20.4939 12.7069 19.8624 12.7069L4.0952 12.7069C3.46371 12.7069 3.10917 12.3225 3.10917 11.7283Z"
                     fill="currentColor" fill-opacity="0.85" />
              <path d="M16.6535 9.39114C17.5444 9.39114 18.2859 8.65938 18.2859 7.75876C18.2859 6.85814 17.5444 6.12638 16.6535 6.12638C15.7529 6.12638 15.0137 6.85814 15.0137 7.75876C15.0137 8.65938 15.7529 9.39114 16.6535 9.39114Z"
                     fill="currentColor" fill-opacity="0.85" />
              <path d="M11.9886 9.39114C12.8892 9.39114 13.6209 8.65938 13.6209 7.75876C13.6209 6.85814 12.8892 6.12638 11.9886 6.12638C11.0879 6.12638 10.3562 6.85814 10.3562 7.75876C10.3562 8.65938 11.0879 9.39114 11.9886 9.39114Z"
                     fill="currentColor" fill-opacity="0.85" />
              <path d="M7.33332 9.39114C8.23164 9.39114 8.96339 8.65938 8.96339 7.75876C8.96339 6.85814 8.22933 6.12638 7.33332 6.12638C6.4327 6.12638 5.70094 6.85814 5.70094 7.75876C5.70094 8.65938 6.4327 9.39114 7.33332 9.39114Z"
                     fill="currentColor" fill-opacity="0.85" />
       </g>
</svg>