<?xml version="1.0" encoding="UTF-8"?>
<!--Generator: Apple Native CoreSVG 326-->
<!DOCTYPE svg PUBLIC "-//W3C//DTD SVG 1.1//EN" "http://www.w3.org/Graphics/SVG/1.1/DTD/svg11.dtd">
<svg version="1.1" xmlns="http://www.w3.org/2000/svg" xmlns:xlink="http://www.w3.org/1999/xlink"
       viewBox="0 0 23.3769 22.7532">
       <g>
              <rect height="22.7532" opacity="0" width="23.3769" x="0" y="0" />
              <path d="M7.19957 22.7532C7.95414 22.7532 8.59206 22.4471 9.53095 21.6363L12.7882 18.8023L18.0654 18.8023C21.095 18.8023 23.0156 16.8627 23.0156 13.8447L23.0156 5.96886C23.0156 2.95086 21.095 1.01126 18.0654 1.01126L4.95014 1.01126C1.92061 1.01126 0 2.94855 0 5.96886L0 13.8447C0 16.8651 2.09221 18.8023 4.68902 18.8023L5.39651 18.8023L5.39651 20.7819C5.39651 22.0038 6.08326 22.7532 7.19957 22.7532ZM7.91331 19.4218L7.91331 16.7763C7.91331 16.0549 7.53664 15.7827 6.91977 15.7827L5.18142 15.7827C3.74594 15.7827 3.01964 15.0604 3.01964 13.6186L3.01964 6.19268C3.01964 4.75095 3.74594 4.0309 5.18142 4.0309L17.8342 4.0309C19.2673 4.0309 19.9959 4.75095 19.9959 6.19268L19.9959 13.6186C19.9959 15.0604 19.2673 15.7827 17.8342 15.7827L12.5431 15.7827C11.7948 15.7827 11.484 15.9354 10.9339 16.473Z"
                     fill="currentColor" fill-opacity="0.85" />
              <path d="M11.5176 7.74493C12.2896 7.74493 12.9151 7.12454 12.9151 6.34736C12.9151 5.56786 12.2896 4.94747 11.5176 4.94747C10.7381 4.94747 10.1125 5.56786 10.1125 6.34736C10.1125 7.12454 10.7381 7.74493 11.5176 7.74493Z"
                     fill="currentColor" fill-opacity="0.85" />
              <path d="M11.5176 11.3081C12.2896 11.3081 12.9151 10.6826 12.9151 9.91053C12.9151 9.13104 12.2896 8.5055 11.5176 8.5055C10.7381 8.5055 10.1125 9.13104 10.1125 9.91053C10.1125 10.6826 10.7381 11.3081 11.5176 11.3081Z"
                     fill="currentColor" fill-opacity="0.85" />
              <path d="M11.5176 14.8638C12.2896 14.8638 12.9151 14.2457 12.9151 13.4663C12.9151 12.6868 12.2896 12.0687 11.5176 12.0687C10.7381 12.0687 10.1125 12.6868 10.1125 13.4663C10.1125 14.2457 10.7381 14.8638 11.5176 14.8638Z"
                     fill="currentColor" fill-opacity="0.85" />
       </g>
</svg>