<?xml version="1.0" encoding="UTF-8"?>
<!--Generator: Apple Native CoreSVG 326-->
<!DOCTYPE svg PUBLIC "-//W3C//DTD SVG 1.1//EN" "http://www.w3.org/Graphics/SVG/1.1/DTD/svg11.dtd">
<svg version="1.1" xmlns="http://www.w3.org/2000/svg" xmlns:xlink="http://www.w3.org/1999/xlink"
       viewBox="0 0 24.4719 22.4205">
       <g>
              <rect height="22.4205" opacity="0" width="24.4719" x="0" y="0" />
              <path d="M24.1106 9.80208C24.1106 16.1948 18.0699 19.5944 10.9841 19.6168C10.9317 19.6168 10.8496 19.6145 10.7375 19.6122C10.5187 19.6122 10.3372 19.6535 10.0817 19.8155C8.01121 21.2606 5.33749 22.413 4.09847 22.413C3.21968 22.413 2.86309 21.7978 3.45285 21.0782C3.87617 20.5452 4.75574 19.5157 5.40706 18.4308C5.53741 18.1798 5.48112 18.0334 5.20781 17.8732C1.78207 15.992 0 12.9868 0 9.80208C0 4.36772 5.36206 0 12.059 0C18.7485 0 24.1106 4.36772 24.1106 9.80208ZM15.2863 9.83029C15.2863 10.7975 16.0749 11.5786 17.0346 11.5786C17.9898 11.5786 18.7755 10.7975 18.7755 9.83029C18.7755 8.87053 17.9898 8.0894 17.0346 8.0894C16.0749 8.0894 15.2863 8.87053 15.2863 9.83029ZM10.3107 9.83029C10.3107 10.7975 11.0918 11.5786 12.059 11.5786C13.0188 11.5786 13.7999 10.7975 13.7999 9.83029C13.7999 8.87053 13.0188 8.0894 12.059 8.0894C11.0918 8.0894 10.3107 8.87053 10.3107 9.83029ZM5.33737 9.83029C5.33737 10.7975 6.1208 11.5786 7.08572 11.5786C8.04318 11.5786 8.82431 10.7975 8.82431 9.83029C8.82431 8.87053 8.04087 8.0894 7.08572 8.0894C6.1208 8.0894 5.33737 8.87053 5.33737 9.83029Z"
                     fill="currentColor" fill-opacity="0.85" />
       </g>
</svg>