<?xml version="1.0" encoding="UTF-8"?>
<!--Generator: Apple Native CoreSVG 326-->
<!DOCTYPE svg PUBLIC "-//W3C//DTD SVG 1.1//EN" "http://www.w3.org/Graphics/SVG/1.1/DTD/svg11.dtd">
<svg version="1.1" xmlns="http://www.w3.org/2000/svg" xmlns:xlink="http://www.w3.org/1999/xlink"
       viewBox="0 0 21.365 21.006">
       <g>
              <rect height="21.006" opacity="0" width="21.365" x="0" y="0" />
              <path d="M21.0037 10.4981C21.0037 16.2923 16.302 20.9962 10.4981 20.9962C4.70394 20.9962 0 16.2923 0 10.4981C0 4.70163 4.70394 0 10.4981 0C16.302 0 21.0037 4.70163 21.0037 10.4981ZM13.7328 10.4958C13.7328 11.4556 14.514 12.2367 15.4812 12.2367C16.4363 12.2367 17.2198 11.4556 17.2198 10.4958C17.2198 9.53604 16.4363 8.74745 15.4812 8.74745C14.514 8.74745 13.7328 9.53604 13.7328 10.4958ZM8.75722 10.4958C8.75722 11.4556 9.53835 12.2367 10.4981 12.2367C11.4653 12.2367 12.2465 11.4556 12.2465 10.4958C12.2465 9.53604 11.4653 8.74745 10.4981 8.74745C9.53835 8.74745 8.75722 9.53604 8.75722 10.4958ZM3.78391 10.4958C3.78391 11.4556 4.56734 12.2367 5.5248 12.2367C6.48225 12.2367 7.27084 11.4556 7.27084 10.4958C7.27084 9.53604 6.47995 8.74745 5.5248 8.74745C4.56734 8.74745 3.78391 9.53604 3.78391 10.4958Z"
                     fill="currentColor" fill-opacity="0.85" />
       </g>
</svg>