<?xml version="1.0" encoding="UTF-8"?>
<!--Generator: Apple Native CoreSVG 326-->
<!DOCTYPE svg PUBLIC "-//W3C//DTD SVG 1.1//EN" "http://www.w3.org/Graphics/SVG/1.1/DTD/svg11.dtd">
<svg version="1.1" xmlns="http://www.w3.org/2000/svg" xmlns:xlink="http://www.w3.org/1999/xlink"
       viewBox="0 0 24.3189 15.5319">
       <g>
              <rect height="15.5319" opacity="0" width="24.3189" x="0" y="0" />
              <path d="M23.9576 2.91465L23.9576 12.5977C23.9576 14.4509 22.8823 15.517 21.0067 15.517L2.94855 15.517C1.07531 15.517 0 14.4509 0 12.5977L0 2.91465C0 1.06379 1.07531 0 2.94855 0L21.0067 0C22.8823 0 23.9576 1.06379 23.9576 2.91465ZM15.2233 7.75876C15.2233 8.71852 16.0044 9.49965 16.9642 9.49965C17.9268 9.49965 18.7125 8.71852 18.7125 7.75876C18.7125 6.799 17.9268 6.01041 16.9642 6.01041C16.0044 6.01041 15.2233 6.799 15.2233 7.75876ZM10.2477 7.75876C10.2477 8.71852 11.0288 9.49965 11.9886 9.49965C12.9483 9.49965 13.7369 8.71852 13.7369 7.75876C13.7369 6.799 12.9483 6.01041 11.9886 6.01041C11.0288 6.01041 10.2477 6.799 10.2477 7.75876ZM5.26689 7.75876C5.26689 8.71852 6.05778 9.49965 7.01524 9.49965C7.9727 9.49965 8.76129 8.71852 8.76129 7.75876C8.76129 6.799 7.97039 6.01041 7.01524 6.01041C6.05778 6.01041 5.26689 6.799 5.26689 7.75876Z"
                     fill="currentColor" fill-opacity="0.85" />
       </g>
</svg>