<?xml version="1.0" encoding="UTF-8"?>
<!--Generator: Apple Native CoreSVG 326-->
<!DOCTYPE svg PUBLIC "-//W3C//DTD SVG 1.1//EN" "http://www.w3.org/Graphics/SVG/1.1/DTD/svg11.dtd">
<svg version="1.1" xmlns="http://www.w3.org/2000/svg" xmlns:xlink="http://www.w3.org/1999/xlink"
       viewBox="0 0 24.4719 22.5181">
       <g>
              <rect height="22.5181" opacity="0" width="24.4719" x="0" y="0" />
              <path d="M5.03658 22.5181C6.50415 22.5181 9.38598 21.2497 11.6967 19.5875C18.8614 19.5268 24.1106 15.3296 24.1106 9.80208C24.1106 4.36772 18.7485 0 12.059 0C5.36206 0 0 4.36772 0 9.80208C0 13.0052 1.83442 15.9515 4.80845 17.6309C4.45106 18.2343 3.92918 19.1554 3.54195 19.6719C2.60657 20.9225 3.40402 22.5181 5.03658 22.5181ZM6.65883 19.39C6.4091 19.4864 6.31266 19.3905 6.48832 19.1655C6.83376 18.7304 7.48071 17.8938 7.91719 17.0972C8.2727 16.4402 8.06259 15.9015 7.42267 15.5861C4.69945 14.2797 3.06847 12.1834 3.06847 9.80208C3.06847 6.08914 7.07141 3.06617 12.059 3.06617C17.0415 3.06617 21.0444 6.08914 21.0444 9.80208C21.0444 13.5127 17.0415 16.5357 12.059 16.5357C11.9234 16.5357 11.755 16.5334 11.5583 16.5311C11.1183 16.5311 10.7984 16.6357 10.3527 16.9958C9.25594 17.8649 7.47289 19.066 6.65883 19.39Z"
                     fill="currentColor" fill-opacity="0.85" />
              <path d="M16.7166 11.4627C17.6172 11.4627 18.3489 10.7309 18.3489 9.83029C18.3489 8.92967 17.6172 8.19791 16.7166 8.19791C15.8159 8.19791 15.0842 8.92967 15.0842 9.83029C15.0842 10.7309 15.8159 11.4627 16.7166 11.4627Z"
                     fill="currentColor" fill-opacity="0.85" />
              <path d="M12.059 11.4627C12.9597 11.4627 13.6914 10.7309 13.6914 9.83029C13.6914 8.92967 12.9597 8.19791 12.059 8.19791C11.1584 8.19791 10.4192 8.92967 10.4192 9.83029C10.4192 10.7309 11.1584 11.4627 12.059 11.4627Z"
                     fill="currentColor" fill-opacity="0.85" />
              <path d="M7.39634 11.4627C8.29466 11.4627 9.03387 10.7309 9.03387 9.83029C9.03387 8.92967 8.29235 8.19791 7.39634 8.19791C6.49572 8.19791 5.76396 8.92967 5.76396 9.83029C5.76396 10.7309 6.49572 11.4627 7.39634 11.4627Z"
                     fill="currentColor" fill-opacity="0.85" />
       </g>
</svg>