<?xml version="1.0" encoding="UTF-8"?>
<!--Generator: Apple Native CoreSVG 326-->
<!DOCTYPE svg PUBLIC "-//W3C//DTD SVG 1.1//EN" "http://www.w3.org/Graphics/SVG/1.1/DTD/svg11.dtd">
<svg version="1.1" xmlns="http://www.w3.org/2000/svg" xmlns:xlink="http://www.w3.org/1999/xlink"
       viewBox="0 0 31.5102 19.6335">
       <g>
              <rect height="19.6335" opacity="0" width="31.5102" x="0" y="0" />
              <path d="M11.8612 19.6162L21.4773 19.6162C23.0574 19.6162 24.0974 18.6152 24.0974 17.045L24.0974 15.6257C24.0974 15.5545 24.1417 15.5201 24.2031 15.5201L24.9027 15.5201C24.9664 15.5201 25.0083 15.5545 25.0083 15.6257L25.0083 16.2345C25.0083 17.7559 26.0242 18.7356 27.5887 18.7356L28.5708 18.7356C30.133 18.7356 31.1489 17.7582 31.1489 16.2345L31.1489 9.43742C31.1489 7.89888 30.1553 6.93639 28.5708 6.93639L27.5887 6.93639C26.0019 6.93639 25.0083 7.90118 25.0083 9.43742L25.0083 10.0248C25.0083 10.0863 24.9664 10.1305 24.9027 10.1305L24.2031 10.1305C24.1417 10.1305 24.0974 10.0863 24.0974 10.0248L24.0974 8.61086C24.0974 7.03435 23.0844 6.05572 21.4912 6.05572L20.9957 6.05572L19.4819 4.41036C19.0265 3.91584 18.5016 3.67521 17.8738 3.67521L10.1666 3.67521C9.54399 3.67521 9.01161 3.92045 8.55615 4.41036L7.04235 6.05572L6.26656 6.05572C4.70036 6.05572 3.6626 7.05673 3.6626 8.61086L3.6626 14.6611C3.6626 16.21 4.69806 17.2185 6.26656 17.2185L8.74442 17.2185L10.2605 18.8811C10.7234 19.3882 11.2317 19.6162 11.8612 19.6162ZM12.2677 17.0368C12.1246 17.0368 12.0735 17 11.9838 16.9104L9.88312 14.6241L6.46285 14.6241C6.33862 14.6241 6.25698 14.5425 6.25698 14.4136L6.25698 8.86058C6.25698 8.71683 6.33862 8.63518 6.46285 8.63518L8.19312 8.63518L10.2743 6.38569C10.3639 6.28397 10.4248 6.25467 10.5536 6.25467L17.492 6.25467C17.623 6.25467 17.6862 6.28397 17.7736 6.38569L19.857 8.63518L21.2949 8.63518C21.4191 8.63518 21.5031 8.71913 21.5031 8.86058L21.5031 11.7379C21.5031 12.106 21.6966 12.2996 22.0624 12.2996L27.0382 12.2996C27.404 12.2996 27.5975 12.106 27.5975 11.7379L27.5975 9.68484C27.5975 9.58366 27.6625 9.52331 27.7873 9.52331L28.3745 9.52331C28.497 9.52331 28.5694 9.58597 28.5694 9.68484L28.5694 15.9848C28.5694 16.086 28.497 16.1486 28.3745 16.1486L27.7873 16.1486C27.6625 16.1486 27.5975 16.0883 27.5975 15.9848L27.5975 13.9178C27.5975 13.5497 27.404 13.3561 27.0382 13.3561L22.0624 13.3561C21.6966 13.3561 21.5031 13.5497 21.5031 13.9178L21.5031 16.7998C21.5031 16.9505 21.4191 17.0368 21.2811 17.0368ZM1.28858 15.9669C2.00408 15.9669 2.58692 15.3794 2.58692 14.6611L2.58692 12.7713L5.21163 12.7713L5.21163 10.5127L2.58692 10.5127L2.58692 8.62062C2.58692 7.90743 2.00177 7.32458 1.28858 7.32458C0.582845 7.32458 0 7.90973 0 8.62062L0 14.6611C0 15.3817 0.58515 15.9669 1.28858 15.9669ZM13.792 5.59413L16.0455 5.59413L16.0455 2.58692L18.9776 2.58692C19.6983 2.58692 20.2662 2.00693 20.2662 1.29604C20.2662 0.582845 19.6983 0 18.9776 0L10.8553 0C10.1272 0 9.56674 0.58515 9.56674 1.29834C9.56674 2.019 10.1444 2.58692 10.8553 2.58692L13.792 2.58692Z"
                     fill="currentColor" fill-opacity="0.85" />
       </g>
</svg>