<?xml version="1.0" encoding="UTF-8"?>
<!--Generator: Apple Native CoreSVG 326-->
<!DOCTYPE svg PUBLIC "-//W3C//DTD SVG 1.1//EN" "http://www.w3.org/Graphics/SVG/1.1/DTD/svg11.dtd">
<svg version="1.1" xmlns="http://www.w3.org/2000/svg" xmlns:xlink="http://www.w3.org/1999/xlink"
       viewBox="0 0 29.1152 19.1122">
       <g>
              <rect height="19.1122" opacity="0" width="29.1152" x="0" y="0" />
              <path d="M23.9679 16.0611C23.9679 17.817 22.6923 19.1122 20.9818 19.1122C19.642 19.1122 18.5305 18.252 18.0913 17.0587C17.8634 16.4965 18.0616 15.9016 18.598 15.7007C19.1298 15.4998 19.6695 15.748 19.8848 16.266C20.0887 16.8252 20.4714 17.1413 20.9818 17.1413C21.5891 17.1413 21.9948 16.7357 21.9948 16.0611C21.9948 14.7802 19.8151 13.4937 15.9814 13.4937L14.6527 13.4937L14.6527 11.528L15.9814 11.528C21.0703 11.528 23.9679 13.4646 23.9679 16.0611ZM2.32483 13.4937C1.78905 13.4937 1.34687 13.0441 1.34687 12.506C1.34687 11.9605 1.78905 11.528 2.32483 11.528L6.95549 11.528L6.95549 13.4937ZM28.7538 8.9384C28.7538 10.897 27.2754 12.2136 25.0872 12.2136C22.2498 12.2136 20.9317 10.4246 16.8017 10.4246L14.6527 10.4246L14.6527 8.45891L16.8184 8.45891C21.15 8.45891 22.9131 10.2531 25.1858 10.2554C26.2136 10.2577 26.7881 9.63364 26.7881 8.91711C26.7881 8.0914 26.136 7.58061 25.4236 7.58061C25.053 7.58061 24.7009 7.70987 24.4918 7.87479C23.9922 8.24401 23.4507 8.21307 23.0826 7.81917C22.6795 7.39258 22.8166 6.75915 23.338 6.34626C23.9261 5.87466 24.7227 5.58915 25.4534 5.58915C27.3586 5.58915 28.7538 6.98879 28.7538 8.9384ZM0.972803 10.4246C0.442183 10.4246 0 9.98472 0 9.44433C0 8.89879 0.442183 8.45891 0.972803 8.45891L6.95549 8.45891L6.95549 10.4246ZM6.95549 7.37038L2.32483 7.37038C1.78905 7.37038 1.34687 6.92304 1.34687 6.38496C1.34687 5.83942 1.78905 5.4047 2.32483 5.4047L6.95549 5.4047ZM22.9842 3.84972C22.9842 5.80691 21.4797 7.37038 17.1119 7.37038L14.6527 7.37038L14.6527 5.4047L16.7481 5.4047C20.0449 5.4047 21.011 4.77199 21.011 3.84972C21.011 3.15788 20.5599 2.75912 19.9158 2.75912C19.4946 2.75912 19.0912 3.01546 18.8941 3.37921C18.5777 3.93628 17.9725 4.1137 17.4809 3.82315C17.0123 3.53546 16.8917 2.98531 17.1547 2.48168C17.6693 1.47418 18.7652 0.785981 19.9158 0.785981C21.6435 0.785981 22.9842 2.07426 22.9842 3.84972Z"
                     fill="currentColor" fill-opacity="0.85" />
              <path d="M10.829 16.2009C11.9201 16.2009 12.6828 15.4853 12.6828 14.4706C12.6828 13.461 11.9224 12.7477 10.829 12.7477C9.70812 12.7477 8.93051 13.461 8.93051 14.4706C8.93051 15.4853 9.71043 16.2009 10.829 16.2009ZM10.829 11.395C11.7403 11.395 12.3208 10.869 12.3627 9.91581L12.5753 4.62818C12.6172 3.58538 11.9138 2.88941 10.8067 2.88941C9.69211 2.88941 8.98353 3.58538 9.0329 4.62818L9.26782 9.94565C9.30973 10.869 9.88797 11.395 10.829 11.395Z"
                     fill="currentColor" fill-opacity="0.85" />
       </g>
</svg>