<?xml version="1.0" encoding="UTF-8"?>
<!--Generator: Apple Native CoreSVG 326-->
<!DOCTYPE svg PUBLIC "-//W3C//DTD SVG 1.1//EN" "http://www.w3.org/Graphics/SVG/1.1/DTD/svg11.dtd">
<svg version="1.1" xmlns="http://www.w3.org/2000/svg" xmlns:xlink="http://www.w3.org/1999/xlink"
       viewBox="0 0 20.129 21.6814">
       <g>
              <rect height="21.6814" opacity="0" width="20.129" x="0" y="0" />
              <path d="M17.8423 3.46753L17.8423 12.7695L14.8227 12.7695L14.8227 3.8963C14.8227 3.33578 14.5071 3.01964 13.9581 3.01964L5.80212 3.01964C5.25828 3.01964 4.93522 3.33578 4.93522 3.8963L4.93522 17.7834C4.93522 18.3439 5.25828 18.6526 5.80212 18.6526L13.9581 18.6526C14.5071 18.6526 14.8227 18.3439 14.8227 17.7834L14.8227 17.2958L17.8423 17.2958L17.8423 18.2122C17.8423 20.4253 16.5954 21.6722 14.3679 21.6722L5.39232 21.6722C3.17456 21.6722 1.91558 20.4276 1.91558 18.2122L1.91558 3.46753C1.91558 1.25206 3.17456 0 5.39232 0L14.3679 0C16.5954 0 17.8423 1.25437 17.8423 3.46753Z"
                     fill="currentColor" fill-opacity="0.85" />
              <path d="M8.29241 10.1775C8.29241 10.8169 7.7823 11.3195 7.16015 11.3195C6.53054 11.3195 6.02042 10.8169 6.02042 10.1775C6.02042 9.5651 6.53054 9.03775 7.16015 9.03775C7.7823 9.03775 8.29241 9.5651 8.29241 10.1775ZM10.98 10.1775C10.98 10.8169 10.4647 11.3195 9.83047 11.3195C9.20832 11.3195 8.69305 10.8169 8.69305 10.1775C8.69305 9.5651 9.20832 9.03775 9.83047 9.03775C10.4647 9.03775 10.98 9.5651 10.98 10.1775ZM13.6503 10.1775C13.6503 10.8169 13.1425 11.3195 12.5129 11.3195C11.8884 11.3195 11.3806 10.8169 11.3806 10.1775C11.3806 9.5651 11.8884 9.03775 12.5129 9.03775C13.1425 9.03775 13.6503 9.5651 13.6503 10.1775ZM8.29241 7.59966C8.29241 8.23673 7.7823 8.73939 7.16015 8.73939C6.53054 8.73939 6.02042 8.23673 6.02042 7.59966C6.02042 6.96028 6.53054 6.45017 7.16015 6.45017C7.7823 6.45017 8.29241 6.96028 8.29241 7.59966ZM10.98 7.59966C10.98 8.23673 10.4647 8.73939 9.83047 8.73939C9.20832 8.73939 8.69305 8.23673 8.69305 7.59966C8.69305 6.96028 9.20832 6.45017 9.83047 6.45017C10.4647 6.45017 10.98 6.96028 10.98 7.59966ZM13.6503 7.59966C13.6503 8.23673 13.1425 8.73939 12.5129 8.73939C11.8884 8.73939 11.3806 8.23673 11.3806 7.59966C11.3806 6.96028 11.8884 6.45017 12.5129 6.45017C13.1425 6.45017 13.6503 6.96028 13.6503 7.59966ZM8.29241 5.03907C8.29241 5.64914 7.7823 6.16157 7.16015 6.16157C6.53054 6.16157 6.02042 5.64914 6.02042 5.03907C6.02042 4.39969 6.53054 3.88957 7.16015 3.88957C7.7823 3.88957 8.29241 4.39969 8.29241 5.03907ZM10.98 5.03907C10.98 5.64914 10.4647 6.16157 9.83047 6.16157C9.20832 6.16157 8.69305 5.64914 8.69305 5.03907C8.69305 4.39969 9.20832 3.88957 9.83047 3.88957C10.4647 3.88957 10.98 4.39969 10.98 5.03907ZM13.6503 5.03907C13.6503 5.64914 13.1425 6.16157 12.5129 6.16157C11.8884 6.16157 11.3806 5.64914 11.3806 5.03907C11.3806 4.39969 11.8884 3.88957 12.5129 3.88957C13.1425 3.88957 13.6503 4.39969 13.6503 5.03907Z"
                     fill="currentColor" fill-opacity="0.85" />
              <path d="M9.83047 17.8452C11.3873 17.8452 12.6516 16.5957 12.6516 15.0338C12.6516 13.4816 11.3873 12.2321 9.83047 12.2321C8.26852 12.2321 7.00414 13.4816 7.00414 15.0338C7.00414 16.5957 8.26852 17.8452 9.83047 17.8452ZM10.1405 16.3135L17.8722 16.3135C18.562 16.3135 19.1445 15.7483 19.1445 15.0412C19.1445 14.3267 18.562 13.7541 17.8722 13.7541L10.1405 13.7541C9.42832 13.7541 8.86082 14.3267 8.86082 15.0412C8.86082 15.7483 9.42832 16.3135 10.1405 16.3135Z"
                     fill="currentColor" fill-opacity="0.85" />
       </g>
</svg>