<?xml version="1.0" encoding="UTF-8"?>
<!--Generator: Apple Native CoreSVG 326-->
<!DOCTYPE svg PUBLIC "-//W3C//DTD SVG 1.1//EN" "http://www.w3.org/Graphics/SVG/1.1/DTD/svg11.dtd">
<svg version="1.1" xmlns="http://www.w3.org/2000/svg" xmlns:xlink="http://www.w3.org/1999/xlink"
       viewBox="0 0 25.3881 25.6508">
       <g>
              <rect height="25.6508" opacity="0" width="25.3881" x="0" y="0" />
              <path d="M25.0268 11.1856L25.0268 22.0117C25.0268 24.3293 23.7029 25.6508 21.4699 25.6508L3.64834 25.6508C1.32612 25.6508 0 24.3293 0 22.0117L0 11.1856C0 8.86058 1.32382 7.54653 3.55681 7.54653L9.65305 7.54653L9.65305 10.3836L4.66615 10.3836L11.8172 16.8375C12.0453 17.0437 12.2683 17.1483 12.5085 17.1483C12.7562 17.1483 12.9791 17.0437 13.2073 16.8375L20.3583 10.3836L15.3714 10.3836L15.3714 7.54653L21.371 7.54653C23.7006 7.54653 25.0268 8.86058 25.0268 11.1856ZM14.6686 18.671C13.9479 19.3183 13.32 19.5848 12.5085 19.5848C11.7044 19.5848 11.0691 19.3183 10.3558 18.671L9.31421 17.7338L4.24349 22.8063L20.7829 22.8063L15.71 17.7333ZM2.76992 20.9484L7.56153 16.1568L2.76992 11.8454ZM17.463 16.1546L22.2568 20.9484L22.2568 11.8377Z"
                     fill="currentColor" fill-opacity="0.85" />
              <path d="M12.5085 12.6375C13.2808 12.6375 13.8269 12.0593 13.8269 11.2651L13.8269 7.23888C13.8269 5.87442 14.8207 4.83332 16.6597 4.51906L16.8723 5.50945C17.017 6.18492 17.6677 6.25965 18.172 5.68821L20.5142 3.01182C20.9134 2.54834 20.7957 1.96198 20.2271 1.7219L16.9838 0.301521C16.2653-0.00976562 15.7301 0.333123 15.8748 1.02121L16.1298 2.20327C14.7779 2.4687 13.2624 3.20137 12.5085 4.26758C11.7345 3.17898 10.1891 2.43886 8.80514 2.18835L9.06244 1.02121C9.21463 0.333123 8.6794-0.00976562 7.96093 0.301521L4.70782 1.7219C4.14899 1.96198 4.0215 2.54834 4.42298 3.01182L6.76527 5.68821C7.26957 6.25965 7.9053 6.18492 8.06495 5.50945L8.29241 4.50414C10.1687 4.81094 11.1998 5.8595 11.1998 7.23888L11.1998 11.2651C11.1998 12.0593 11.7436 12.6375 12.5085 12.6375Z"
                     fill="currentColor" fill-opacity="0.85" />
       </g>
</svg>