<?xml version="1.0" encoding="UTF-8"?>
<!--Generator: Apple Native CoreSVG 326-->
<!DOCTYPE svg PUBLIC "-//W3C//DTD SVG 1.1//EN" "http://www.w3.org/Graphics/SVG/1.1/DTD/svg11.dtd">
<svg version="1.1" xmlns="http://www.w3.org/2000/svg" xmlns:xlink="http://www.w3.org/1999/xlink"
       viewBox="0 0 25.3881 18.114">
       <g>
              <rect height="18.114" opacity="0" width="25.3881" x="0" y="0" />
              <path d="M3.64834 18.114L21.4699 18.114C23.7029 18.114 25.0268 16.7925 25.0268 14.4749L25.0268 3.64889C25.0268 1.33128 23.7006 0.00976562 21.371 0.00976562L3.55681 0.00976562C1.32382 0.00976562 0 1.33128 0 3.64889L0 14.4749C0 16.7925 1.32612 18.114 3.64834 18.114ZM3.82103 15.3441C3.1452 15.3441 2.76992 14.9711 2.76992 14.2786L2.76992 3.84056C2.76992 3.15036 3.1452 2.77969 3.82103 2.77969L21.196 2.77969C21.8718 2.77969 22.2568 3.15036 22.2568 3.84287L22.2568 14.2809C22.2568 14.9711 21.8718 15.3441 21.196 15.3441ZM12.5085 12.0481C13.32 12.0481 13.9479 11.7838 14.6686 11.1343L23.597 3.09407L21.9397 1.42706L13.2073 9.30816C12.9791 9.50699 12.7562 9.61902 12.5085 9.61902C12.2683 9.61902 12.0453 9.50699 11.8172 9.30816L3.08473 1.42706L1.42002 3.09407L10.3558 11.1343C11.0691 11.7838 11.7044 12.0481 12.5085 12.0481ZM3.29836 16.2224L10.135 9.38349L8.43295 7.74863L1.63365 14.5479ZM21.7307 16.2247L23.3954 14.5502L16.5938 7.74863L14.8895 9.38349Z"
                     fill="currentColor" fill-opacity="0.85" />
       </g>
</svg>