<?xml version="1.0" encoding="UTF-8"?>
<!--Generator: Apple Native CoreSVG 326-->
<!DOCTYPE svg PUBLIC "-//W3C//DTD SVG 1.1//EN" "http://www.w3.org/Graphics/SVG/1.1/DTD/svg11.dtd">
<svg version="1.1" xmlns="http://www.w3.org/2000/svg" xmlns:xlink="http://www.w3.org/1999/xlink"
       viewBox="0 0 25.3881 18.114">
       <g>
              <rect height="18.114" opacity="0" width="25.3881" x="0" y="0" />
              <path d="M12.5085 9.60125C12.7711 9.60125 12.994 9.49668 13.3042 9.22324L23.1795 0.375825C22.667 0.128712 22.084 0.00976562 21.371 0.00976562L3.64834 0.00976562C2.94279 0.00976562 2.3597 0.128712 1.83752 0.375825L11.7202 9.22324C12.0252 9.49668 12.2557 9.60125 12.5085 9.60125ZM0.224063 15.9501L7.54762 8.63627L0.249296 2.09288C0.0971103 2.49193 0 3.01982 0 3.64889L0 14.4749C0 15.0477 0.0827348 15.5267 0.224063 15.9501ZM3.55681 18.114L21.4699 18.114C22.1754 18.114 22.7842 17.9755 23.2598 17.744L15.7162 10.2005L14.6709 11.1343C13.9479 11.7815 13.3177 12.0504 12.5085 12.0504C11.709 12.0504 11.0789 11.7815 10.3558 11.1343L9.31052 10.2005L1.76697 17.744C2.24252 17.9755 2.84908 18.114 3.55681 18.114ZM24.8027 15.9501C24.9417 15.5267 25.0268 15.0477 25.0268 14.4749L25.0268 3.64889C25.0268 3.01982 24.9296 2.49193 24.7775 2.09288L17.4717 8.63627Z"
                     fill="currentColor" fill-opacity="0.85" />
       </g>
</svg>