<?xml version="1.0" encoding="UTF-8"?>
<!--Generator: Apple Native CoreSVG 326-->
<!DOCTYPE svg PUBLIC "-//W3C//DTD SVG 1.1//EN" "http://www.w3.org/Graphics/SVG/1.1/DTD/svg11.dtd">
<svg version="1.1" xmlns="http://www.w3.org/2000/svg" xmlns:xlink="http://www.w3.org/1999/xlink"
       viewBox="0 0 25.3881 25.6508">
       <g>
              <rect height="25.6508" opacity="0" width="25.3881" x="0" y="0" />
              <path d="M21.371 7.54653L3.64834 7.54653C2.94279 7.54653 2.3597 7.65801 1.83752 7.90512L11.7202 16.76C12.0252 17.0334 12.2557 17.1305 12.5085 17.1305C12.7711 17.1305 12.994 17.0334 13.3042 16.76L23.1795 7.90512C22.667 7.65801 22.084 7.54653 21.371 7.54653ZM0.224063 23.4845L7.54762 16.1656L0.249296 9.62218C0.0971103 10.0189 0 10.5543 0 11.1856L0 22.0117C0 22.577 0.0827348 23.0635 0.224063 23.4845ZM3.55681 25.6508L21.4699 25.6508C22.1754 25.6508 22.7842 25.5048 23.2598 25.2733L15.7162 17.7298L14.6709 18.671C13.9479 19.316 13.3177 19.5871 12.5085 19.5871C11.709 19.5871 11.0789 19.316 10.3558 18.671L9.31052 17.7298L1.76697 25.2733C2.24252 25.5048 2.84908 25.6508 3.55681 25.6508ZM24.8027 23.4845C24.9417 23.0635 25.0268 22.577 25.0268 22.0117L25.0268 11.1856C25.0268 10.5543 24.9296 10.0189 24.7775 9.62218L17.4717 16.1656ZM4.42298 3.01182C4.0215 2.54834 4.14899 1.96198 4.70782 1.7219L7.96093 0.301521C8.6794-0.00976562 9.21463 0.333123 9.06244 1.02121L8.80514 2.18835C10.1891 2.43886 11.7345 3.17898 12.5085 4.26758C13.2624 3.20137 14.7779 2.4687 16.1298 2.20327L15.8748 1.02121C15.7301 0.333123 16.2653-0.00976562 16.9838 0.301521L20.2271 1.7219C20.7957 1.96198 20.9134 2.54834 20.5142 3.01182L18.172 5.68821C17.6677 6.25965 17.017 6.18492 16.8723 5.50945L16.6597 4.51906C14.8207 4.83332 13.8269 5.87442 13.8269 7.23888L13.8269 11.2651C13.8269 12.0593 13.2808 12.6375 12.5085 12.6375C11.7436 12.6375 11.1998 12.0593 11.1998 11.2651L11.1998 7.23888C11.1998 5.8595 10.1687 4.81094 8.29241 4.50414L8.06495 5.50945C7.9053 6.18492 7.26957 6.25965 6.76527 5.68821Z"
                     fill="currentColor" fill-opacity="0.85" />
       </g>
</svg>