<?xml version="1.0" encoding="UTF-8"?>
<!--Generator: Apple Native CoreSVG 326-->
<!DOCTYPE svg PUBLIC "-//W3C//DTD SVG 1.1//EN" "http://www.w3.org/Graphics/SVG/1.1/DTD/svg11.dtd">
<svg version="1.1" xmlns="http://www.w3.org/2000/svg" xmlns:xlink="http://www.w3.org/1999/xlink"
       viewBox="0 0 21.365 21.006">
       <g>
              <rect height="21.006" opacity="0" width="21.365" x="0" y="0" />
              <path d="M21.0037 10.5079C21.0037 16.3043 16.302 21.006 10.4981 21.006C4.70394 21.006 0 16.3043 0 10.5079C0 4.7137 4.70394 0.00976562 10.4981 0.00976562C16.302 0.00976562 21.0037 4.7137 21.0037 10.5079ZM11.4706 11.4551C11.1478 11.7538 10.8554 11.8584 10.4981 11.8584C10.1408 11.8584 9.85588 11.7538 9.53538 11.4551L9.04631 11.0367L5.63489 14.4384C5.84512 14.5504 6.12602 14.6062 6.44774 14.6062L14.5559 14.6062C14.8777 14.6062 15.1511 14.5481 15.3688 14.4384L11.9499 11.0367ZM4.85267 8.06216L4.85267 12.9685C4.85267 13.2288 4.87911 13.4436 4.94462 13.6315L8.25893 10.3275L4.95493 7.37111C4.89119 7.53822 4.85267 7.78466 4.85267 8.06216ZM12.7424 10.3275L16.0614 13.6315C16.1171 13.4436 16.1487 13.2265 16.1487 12.9685L16.1487 8.06216C16.1487 7.78466 16.1125 7.53822 16.0487 7.37341ZM6.48978 6.43197C6.16684 6.43197 5.91118 6.47795 5.66012 6.5992L10.1436 10.5937C10.2751 10.723 10.3815 10.7666 10.4981 10.7666C10.6245 10.7666 10.7211 10.723 10.8526 10.5937L15.3459 6.6015C15.0925 6.48025 14.8345 6.43197 14.5087 6.43197Z"
                     fill="currentColor" fill-opacity="0.85" />
       </g>
</svg>