<?xml version="1.0" encoding="UTF-8"?>
<!--Generator: Apple Native CoreSVG 326-->
<!DOCTYPE svg PUBLIC "-//W3C//DTD SVG 1.1//EN" "http://www.w3.org/Graphics/SVG/1.1/DTD/svg11.dtd">
<svg version="1.1" xmlns="http://www.w3.org/2000/svg" xmlns:xlink="http://www.w3.org/1999/xlink"
       viewBox="0 0 21.365 21.006">
       <g>
              <rect height="21.006" opacity="0" width="21.365" x="0" y="0" />
              <path d="M10.4981 20.9962C16.302 20.9962 21.0037 16.2946 21.0037 10.4981C21.0037 4.70163 16.302 0 10.4981 0C4.70163 0 0 4.70163 0 10.4981C0 16.2946 4.70163 20.9962 10.4981 20.9962ZM10.4981 17.9484C6.37829 17.9484 3.04785 14.6179 3.04785 10.4981C3.04785 6.37829 6.37829 3.04785 10.4981 3.04785C14.6179 3.04785 17.9558 6.37829 17.9558 10.4981C17.9558 14.6179 14.6179 17.9484 10.4981 17.9484Z"
                     fill="currentColor" fill-opacity="0.85" />
              <path d="M7.44086 13.467L13.5484 13.467C14.33 13.467 14.8457 13.0438 14.8457 12.3467C14.8457 11.6472 14.3421 11.2217 13.5559 11.2217L7.44086 11.2217C6.63978 11.2217 6.13615 11.6397 6.13615 12.3467C6.13615 13.0438 6.65185 13.467 7.44086 13.467ZM7.44086 9.81876L13.5484 9.81876C14.33 9.81876 14.8457 9.3881 14.8457 8.69608C14.8457 7.99659 14.3421 7.57109 13.5559 7.57109L7.44086 7.57109C6.63978 7.57109 6.13615 7.98913 6.13615 8.69608C6.13615 9.3881 6.65185 9.81876 7.44086 9.81876Z"
                     fill="currentColor" fill-opacity="0.85" />
       </g>
</svg>