<?xml version="1.0" encoding="UTF-8"?>
<!--Generator: Apple Native CoreSVG 326-->
<!DOCTYPE svg PUBLIC "-//W3C//DTD SVG 1.1//EN" "http://www.w3.org/Graphics/SVG/1.1/DTD/svg11.dtd">
<svg version="1.1" xmlns="http://www.w3.org/2000/svg" xmlns:xlink="http://www.w3.org/1999/xlink"
       viewBox="0 0 19.3993 19.0529">
       <g>
              <rect height="19.0529" opacity="0" width="19.3993" x="0" y="0" />
              <path d="M3.64834 19.0379L15.3896 19.0379C17.7164 19.0379 19.0379 17.7262 19.0379 15.4011L19.0379 3.63912C19.0379 1.32151 17.7164 0 15.3896 0L3.64834 0C1.32382 0 0 1.32151 0 3.63912L0 15.4011C0 17.7262 1.32382 19.0379 3.64834 19.0379ZM4.05583 16.0183C3.37024 16.0183 3.01964 15.7096 3.01964 14.9775L3.01964 4.07021C3.01964 3.33809 3.37024 3.0271 4.05583 3.0271L14.9821 3.0271C15.6654 3.0271 16.0183 3.33809 16.0183 4.07021L16.0183 14.9775C16.0183 15.7096 15.6654 16.0183 14.9821 16.0183Z"
                     fill="currentColor" fill-opacity="0.85" />
              <path d="M6.46145 12.4905L12.569 12.4905C13.358 12.4905 13.8737 12.0673 13.8737 11.3701C13.8737 10.6706 13.3701 10.2451 12.5839 10.2451L6.46145 10.2451C5.66783 10.2451 5.1642 10.6632 5.1642 11.3701C5.1642 12.0673 5.6799 12.4905 6.46145 12.4905ZM6.46145 8.8422L12.569 8.8422C13.358 8.8422 13.8737 8.41154 13.8737 7.71952C13.8737 7.02003 13.3701 6.59453 12.5839 6.59453L6.46145 6.59453C5.66783 6.59453 5.1642 7.01257 5.1642 7.71952C5.1642 8.41154 5.6799 8.8422 6.46145 8.8422Z"
                     fill="currentColor" fill-opacity="0.85" />
       </g>
</svg>