<?xml version="1.0" encoding="UTF-8"?>
<!--Generator: Apple Native CoreSVG 326-->
<!DOCTYPE svg PUBLIC "-//W3C//DTD SVG 1.1//EN" "http://www.w3.org/Graphics/SVG/1.1/DTD/svg11.dtd">
<svg version="1.1" xmlns="http://www.w3.org/2000/svg" xmlns:xlink="http://www.w3.org/1999/xlink"
       viewBox="0 0 24.3303 21.006">
       <g>
              <rect height="21.006" opacity="0" width="24.3303" x="0" y="0" />
              <path d="M11.9856 20.9962C17.7821 20.9962 22.4837 16.2946 22.4837 10.4981C22.4837 4.70163 17.7821 0 11.9856 0C6.18916 0 1.48753 4.70163 1.48753 10.4981L4.53538 10.4981C4.53538 6.37829 7.86582 3.04785 11.9856 3.04785C16.1055 3.04785 19.4359 6.37829 19.4359 10.4981C19.4359 14.6179 16.1055 17.9484 11.9856 17.9484C9.86874 17.9484 8.05458 17.1034 6.64712 15.6524C5.97135 15.0132 5.0498 14.8117 4.35614 15.4438C3.73423 16.0162 3.72149 16.9286 4.44894 17.7463C6.08398 19.7011 9.21457 20.9962 11.9856 20.9962ZM0.808605 8.39698C-0.0138912 8.39698-0.212055 9.15901 0.22849 9.72826L2.75918 13.0277C3.05907 13.4322 3.60988 13.4224 3.91492 13.0277L6.43585 9.72596C6.86894 9.15901 6.66847 8.39698 5.8655 8.39698Z"
                     fill="currentColor" fill-opacity="0.85" />
              <path d="M8.30187 13.8372L10.7139 13.8372C11.1538 13.8372 11.4312 13.6167 11.4312 13.1745C11.4312 12.7622 11.1463 12.5215 10.7139 12.5215L9.11733 12.5215L9.11733 11.0729L10.6662 11.0729C11.0567 11.0729 11.2996 10.865 11.2996 10.4745C11.2996 10.0691 11.0343 9.87323 10.6662 9.87323L9.11733 9.87323L9.11733 8.46953L10.7139 8.46953C11.1538 8.46953 11.4312 8.23637 11.4312 7.80911C11.4312 7.37438 11.1538 7.15845 10.7139 7.15845L8.30187 7.15845C7.77586 7.15845 7.48587 7.4829 7.48587 8.00375L7.48587 12.9822C7.48587 13.503 7.77356 13.8372 8.30187 13.8372ZM13.1045 13.8372L16.1112 13.8372C16.5189 13.8372 16.7446 13.5822 16.7446 13.1745C16.7446 12.7668 16.5189 12.5215 16.1112 12.5215L14.1112 12.5215L14.1112 12.4727L16.4408 8.53504C16.5338 8.38855 16.6269 8.20477 16.6269 7.92223C16.6269 7.44505 16.3294 7.15845 15.824 7.15845L12.9908 7.15845C12.5584 7.15845 12.2661 7.38415 12.2661 7.80911C12.2661 8.24152 12.5584 8.46953 12.9908 8.46953L14.8265 8.46953L14.8265 8.51836L12.4654 12.4779C12.3626 12.6542 12.2913 12.8902 12.2913 13.1084C12.2913 13.5868 12.6422 13.8372 13.1045 13.8372Z"
                     fill="currentColor" fill-opacity="0.85" />
       </g>
</svg>