<?xml version="1.0" encoding="UTF-8"?>
<!--Generator: Apple Native CoreSVG 326-->
<!DOCTYPE svg PUBLIC "-//W3C//DTD SVG 1.1//EN" "http://www.w3.org/Graphics/SVG/1.1/DTD/svg11.dtd">
<svg version="1.1" xmlns="http://www.w3.org/2000/svg" xmlns:xlink="http://www.w3.org/1999/xlink"
       viewBox="0 0 25.2371 20.7933">
       <g>
              <rect height="20.7933" opacity="0" width="25.2371" x="0" y="0" />
              <path d="M24.8758 12.4367C24.8758 9.44627 23.8182 6.68788 22.0375 4.53265C21.79 4.23112 21.3535 4.23112 21.0491 4.53034L18.6193 6.95264C18.3592 7.2128 18.3569 7.55853 18.5677 7.83822C19.5288 9.12728 20.1044 10.7185 20.1044 12.4367C20.1044 14.2244 19.4989 15.8753 18.4419 17.2029C18.2306 17.4808 18.2329 17.8225 18.4764 18.0683L20.92 20.5119C21.2117 20.8036 21.6459 20.8036 21.9256 20.4849C23.766 18.3147 24.8758 15.5116 24.8758 12.4367Z"
                     fill="currentColor" fill-opacity="0.85" />
              <path d="M12.4367 4.77139C14.1745 4.77139 15.7732 5.34932 17.0646 6.32534C17.3345 6.52635 17.6779 6.50682 17.9231 6.25413L20.3454 3.82437C20.6521 3.52515 20.6424 3.07605 20.311 2.81359C18.1655 1.05754 15.422 0 12.4367 0C9.45373 0 6.71026 1.05754 4.57225 2.81359C4.24089 3.07605 4.22366 3.52515 4.53034 3.82437L6.95264 6.25413C7.19787 6.50682 7.55853 6.52635 7.84052 6.31557C9.12213 5.34932 10.7185 4.77139 12.4367 4.77139Z"
                     fill="currentColor" fill-opacity="0.85" />
              <path d="M0 12.4367C0 15.519 1.12468 18.3446 2.98003 20.5147C3.23503 20.8186 3.66405 20.8036 3.96096 20.5119L6.39709 18.0683C6.64057 17.8225 6.65264 17.4808 6.43385 17.2029C5.38432 15.8753 4.77139 14.2244 4.77139 12.4367C4.77139 10.7185 5.34471 9.12728 6.30811 7.83822C6.51658 7.55853 6.51658 7.2128 6.25643 6.95264L3.82667 4.53034C3.52745 4.23112 3.07836 4.23859 2.80844 4.56995C1.05008 6.71026 0 9.45373 0 12.4367Z"
                     fill="currentColor" fill-opacity="0.85" />
              <path d="M13.5535 16.5025C13.924 16.5025 14.3381 16.4628 14.6563 16.3446C15.0015 16.2068 15.2508 15.9707 15.2508 15.5509C15.2508 15.037 14.8494 14.8458 14.3355 14.8458C14.2295 14.8458 14.172 14.855 14.0523 14.855C12.0548 14.855 11.0717 14.0366 11.0717 12.3232C11.0717 10.6414 12.0663 9.81148 14.0752 9.81148C14.1858 9.81148 14.2871 9.8207 14.3578 9.8207C14.8643 9.8207 15.2508 9.61223 15.2508 9.10575C15.2508 8.69056 15.0227 8.44994 14.6563 8.31728C14.3622 8.20877 13.9849 8.17432 13.5908 8.17432C11.0501 8.17432 9.04928 9.48873 9.04928 12.3283C9.04928 14.9796 10.7905 16.5025 13.5535 16.5025ZM8.14872 11.636C8.14872 11.7819 8.26536 11.8911 8.4113 11.8911L13.6699 11.8911C13.8159 11.8911 13.9251 11.7819 13.9251 11.636C13.9251 11.4952 13.8159 11.3785 13.6699 11.3785L8.4113 11.3785C8.26536 11.3785 8.14872 11.4952 8.14872 11.636ZM8.14872 13.0781C8.14872 13.2241 8.26536 13.3407 8.4113 13.3407L13.6699 13.3407C13.8159 13.3407 13.9251 13.2241 13.9251 13.0781C13.9251 12.9396 13.8159 12.823 13.6699 12.823L8.4113 12.823C8.26536 12.823 8.14872 12.9396 8.14872 13.0781Z"
                     fill="currentColor" fill-opacity="0.85" />
       </g>
</svg>