<?xml version="1.0" encoding="UTF-8"?>
<!--Generator: Apple Native CoreSVG 326-->
<!DOCTYPE svg PUBLIC "-//W3C//DTD SVG 1.1//EN" "http://www.w3.org/Graphics/SVG/1.1/DTD/svg11.dtd">
<svg version="1.1" xmlns="http://www.w3.org/2000/svg" xmlns:xlink="http://www.w3.org/1999/xlink"
       viewBox="0 0 24.6449 23.5952">
       <g>
              <rect height="23.5952" opacity="0" width="24.6449" x="0" y="0" />
              <path d="M13.7186 0.416404L22.6254 5.55167C23.136 5.85374 23.3841 6.25686 23.3841 6.69158C23.3841 7.28595 22.9074 7.89293 22.1092 7.89293L21.3244 7.89293L21.3244 19.392L21.7032 19.392C22.2379 19.392 22.5744 19.7159 22.5744 20.2632L22.5744 21.1701L23.0673 21.1701C23.7134 21.1701 24.2836 21.7231 24.2836 22.3766C24.2836 23.0525 23.7134 23.5854 23.0673 23.5854L1.20651 23.5854C0.553002 23.5854 0 23.045 0 22.3766C0 21.7231 0.553002 21.1701 1.20651 21.1701L1.94045 21.1701L1.94045 20.2632C1.94045 19.7159 2.27927 19.392 2.81396 19.392L3.19045 19.392L3.19045 7.89293L2.41314 7.89293C1.60745 7.89293 1.13081 7.28595 1.13081 6.69158C1.13081 6.25686 1.37659 5.85374 1.88944 5.55167L10.7963 0.416404C11.242 0.154491 11.7664 0 12.2563 0C12.7462 0 13.2683 0.154491 13.7186 0.416404ZM8.37745 9.44088C7.8193 9.44088 7.51668 9.79517 7.51668 10.3533L7.51668 15.5497C7.51668 16.1102 7.81699 16.457 8.37745 16.457L10.9123 16.457C11.3791 16.457 11.6668 16.2239 11.6668 15.7593C11.6668 15.3269 11.3717 15.0616 10.9123 15.0616L9.2503 15.0616L9.2503 13.5677L10.8668 13.5677C11.27 13.5677 11.5301 13.3471 11.5301 12.9342C11.5301 12.5064 11.2476 12.2957 10.8668 12.2957L9.2503 12.2957L9.2503 10.834L10.9123 10.834C11.3791 10.834 11.6668 10.5836 11.6668 10.1363C11.6668 9.67173 11.3791 9.44088 10.9123 9.44088ZM13.3137 9.44088C12.8612 9.44088 12.5442 9.68896 12.5442 10.1363C12.5442 10.5888 12.8612 10.834 13.3137 10.834L15.2297 10.834L15.2297 10.8829L12.7584 15.0254C12.6504 15.2091 12.5769 15.4601 12.5769 15.6858C12.5769 16.1992 12.9502 16.457 13.4348 16.457L16.5913 16.457C17.0191 16.457 17.2671 16.1969 17.2671 15.7593C17.2671 15.3315 17.0191 15.0616 16.5913 15.0616L14.5064 15.0616L14.5064 15.0127L16.9461 10.9047C17.0414 10.7433 17.1396 10.552 17.1396 10.2569C17.1396 9.7424 16.8198 9.44088 16.2892 9.44088Z"
                     fill="currentColor" fill-opacity="0.85" />
       </g>
</svg>