<?xml version="1.0" encoding="UTF-8"?>
<!--Generator: Apple Native CoreSVG 326-->
<!DOCTYPE svg PUBLIC "-//W3C//DTD SVG 1.1//EN" "http://www.w3.org/Graphics/SVG/1.1/DTD/svg11.dtd">
<svg version="1.1" xmlns="http://www.w3.org/2000/svg" xmlns:xlink="http://www.w3.org/1999/xlink"
       viewBox="0 0 24.3303 21.006">
       <g>
              <rect height="21.006" opacity="0" width="24.3303" x="0" y="0" />
              <path d="M11.9856 20.9962C17.7821 20.9962 22.4837 16.2946 22.4837 10.4981C22.4837 4.70163 17.7821 0 11.9856 0C6.18916 0 1.48753 4.70163 1.48753 10.4981L4.53538 10.4981C4.53538 6.37829 7.86582 3.04785 11.9856 3.04785C16.1055 3.04785 19.4359 6.37829 19.4359 10.4981C19.4359 14.6179 16.1055 17.9484 11.9856 17.9484C9.86874 17.9484 8.05458 17.1034 6.64712 15.6524C5.97135 15.0132 5.0498 14.8117 4.35614 15.4438C3.73423 16.0162 3.72149 16.9286 4.44894 17.7463C6.08398 19.7011 9.21457 20.9962 11.9856 20.9962ZM0.808605 8.39698C-0.0138912 8.39698-0.212055 9.15901 0.22849 9.72826L2.75918 13.0277C3.05907 13.4322 3.60988 13.4224 3.91492 13.0277L6.43585 9.72596C6.86894 9.15901 6.66847 8.39698 5.8655 8.39698Z"
                     fill="currentColor" fill-opacity="0.85" />
              <path d="M13.0278 14.3623C13.3684 14.3623 13.755 14.3203 14.0485 14.2095C14.3661 14.0792 14.5908 13.8679 14.5908 13.4854C14.5908 13.0087 14.229 12.8324 13.7524 12.8324C13.6465 12.8324 13.5964 12.8416 13.4744 12.8416C11.621 12.8416 10.6975 12.0755 10.6975 10.474C10.6975 8.8943 11.6249 8.10917 13.4973 8.10917C13.6101 8.10917 13.7114 8.11839 13.7747 8.11839C14.2439 8.11839 14.5908 7.9323 14.5908 7.46312C14.5908 7.08754 14.3874 6.86184 14.0485 6.73665C13.7717 6.63559 13.4218 6.6063 13.0577 6.6063C10.6983 6.6063 8.83922 7.83118 8.83922 10.4791C8.83922 12.9438 10.4536 14.3623 13.0278 14.3623ZM7.98859 9.82173C7.98859 9.96021 8.09777 10.0619 8.23109 10.0619L13.1316 10.0619C13.2626 10.0619 13.3718 9.96021 13.3718 9.82173C13.3718 9.69072 13.2626 9.58154 13.1316 9.58154L8.23109 9.58154C8.09777 9.58154 7.98859 9.69072 7.98859 9.82173ZM7.98859 11.1767C7.98859 11.3077 8.09777 11.4169 8.23109 11.4169L13.1316 11.4169C13.2626 11.4169 13.3718 11.3077 13.3718 11.1767C13.3718 11.0433 13.2626 10.9342 13.1316 10.9342L8.23109 10.9342C8.09777 10.9342 7.98859 11.0433 7.98859 11.1767Z"
                     fill="currentColor" fill-opacity="0.85" />
       </g>
</svg>