<?xml version="1.0" encoding="UTF-8"?>
<!--Generator: Apple Native CoreSVG 326-->
<!DOCTYPE svg PUBLIC "-//W3C//DTD SVG 1.1//EN" "http://www.w3.org/Graphics/SVG/1.1/DTD/svg11.dtd">
<svg version="1.1" xmlns="http://www.w3.org/2000/svg" xmlns:xlink="http://www.w3.org/1999/xlink"
       viewBox="0 0 21.365 21.006">
       <g>
              <rect height="21.006" opacity="0" width="21.365" x="0" y="0" />
              <path d="M10.4981 20.9962C16.302 20.9962 21.0037 16.2946 21.0037 10.4981C21.0037 4.70163 16.302 0 10.4981 0C4.70163 0 0 4.70163 0 10.4981C0 16.2946 4.70163 20.9962 10.4981 20.9962ZM10.4981 17.9484C6.37829 17.9484 3.04785 14.6179 3.04785 10.4981C3.04785 6.37829 6.37829 3.04785 10.4981 3.04785C14.6179 3.04785 17.9558 6.37829 17.9558 10.4981C17.9558 14.6179 14.6179 17.9484 10.4981 17.9484Z"
                     fill="currentColor" fill-opacity="0.85" />
              <path d="M6.75563 13.8793L9.2028 13.8793C9.64729 13.8793 9.92467 13.6587 9.92467 13.2142C9.92467 12.7996 9.63983 12.5567 9.2028 12.5567L7.58316 12.5567L7.58316 11.0827L9.15506 11.0827C9.54787 11.0827 9.7931 10.8673 9.7931 10.4745C9.7931 10.0668 9.52549 9.86862 9.15506 9.86862L7.58316 9.86862L7.58316 8.43441L9.2028 8.43441C9.64729 8.43441 9.92467 8.19894 9.92467 7.76938C9.92467 7.32489 9.64729 7.11411 9.2028 7.11411L6.75563 7.11411C6.22732 7.11411 5.93502 7.44317 5.93502 7.96402L5.93502 13.0196C5.93502 13.5525 6.22501 13.8793 6.75563 13.8793ZM11.6216 13.8793L14.6726 13.8793C15.0826 13.8793 15.3181 13.6243 15.3181 13.2142C15.3181 12.8042 15.0826 12.5567 14.6726 12.5567L12.6427 12.5567L12.6427 12.5004L15.0096 8.49992C15.105 8.35113 15.1957 8.16734 15.1957 7.8825C15.1957 7.39555 14.8983 7.11411 14.3831 7.11411L11.5079 7.11411C11.0732 7.11411 10.7786 7.34212 10.7786 7.76938C10.7786 8.2041 11.0732 8.43441 11.5079 8.43441L13.3787 8.43441L13.3787 8.48554L10.9801 12.513C10.8773 12.6893 10.8038 12.9276 10.8038 13.1482C10.8038 13.6289 11.157 13.8793 11.6216 13.8793Z"
                     fill="currentColor" fill-opacity="0.85" />
       </g>
</svg>