<?xml version="1.0" encoding="UTF-8"?>
<!--Generator: Apple Native CoreSVG 326-->
<!DOCTYPE svg PUBLIC "-//W3C//DTD SVG 1.1//EN" "http://www.w3.org/Graphics/SVG/1.1/DTD/svg11.dtd">
<svg version="1.1" xmlns="http://www.w3.org/2000/svg" xmlns:xlink="http://www.w3.org/1999/xlink"
       viewBox="0 0 26.2686 17.9785">
       <g>
              <rect height="17.9785" opacity="0" width="26.2686" x="0" y="0" />
              <path d="M2.14844 17.9664L9.14323 17.9664C10.225 17.9664 11.0316 17.3911 11.0316 16.2267C11.0316 15.1123 10.2525 14.4921 9.14323 14.4921L4.31356 14.4921L4.31356 10.5144L8.97073 10.5144C9.99509 10.5144 10.6582 9.91721 10.6582 8.91875C10.6582 7.88759 9.94232 7.33053 8.97073 7.33053L4.31356 7.33053L4.31356 3.46401L9.14323 3.46401C10.1831 3.46401 11.0316 2.90124 11.0316 1.72712C11.0316 0.607532 10.2623 0 9.14323 0L2.14844 0C0.783738 0 0 0.80612 0 2.24434L0 15.717C0 17.2792 0.922641 17.9664 2.14844 17.9664ZM15.5245 17.9664L24.2025 17.9664C25.2544 17.9664 25.9072 17.2797 25.9072 16.2267C25.9072 15.1622 25.2498 14.4847 24.2025 14.4847L18.2277 14.4847L18.2277 14.4019L25.0372 3.63233C25.3645 3.11839 25.5638 2.65789 25.5638 2.01075C25.5638 0.745342 24.7181 0 23.4319 0L15.2255 0C14.1386 0 13.3101 0.563313 13.3101 1.72712C13.3101 2.93109 14.1713 3.47893 15.2255 3.47893L20.7368 3.47893L20.7368 3.55936L13.8762 14.3858C13.519 14.9227 13.3772 15.3878 13.3772 16.0326C13.3772 17.2884 14.3131 17.9664 15.5245 17.9664Z"
                     fill="currentColor" fill-opacity="0.85" />
       </g>
</svg>