<?xml version="1.0" encoding="UTF-8"?>
<!--Generator: Apple Native CoreSVG 326-->
<!DOCTYPE svg PUBLIC "-//W3C//DTD SVG 1.1//EN" "http://www.w3.org/Graphics/SVG/1.1/DTD/svg11.dtd">
<svg version="1.1" xmlns="http://www.w3.org/2000/svg" xmlns:xlink="http://www.w3.org/1999/xlink"
       viewBox="0 0 24.6449 23.5952">
       <g>
              <rect height="23.5952" opacity="0" width="24.6449" x="0" y="0" />
              <path d="M1.94045 20.4256L22.5744 20.4256L22.5744 19.4355C22.5744 18.8957 22.2379 18.5718 21.7032 18.5718L21.3244 18.5718L21.3244 7.89293L22.1092 7.89293C22.9074 7.89293 23.3841 7.28595 23.3841 6.69158C23.3841 6.25686 23.136 5.85374 22.6254 5.55167L13.7186 0.416404C13.2683 0.154491 12.7462 0 12.2563 0C11.7664 0 11.242 0.154491 10.7963 0.416404L1.88944 5.55167C1.37659 5.85374 1.13081 6.25686 1.13081 6.69158C1.13081 7.28595 1.60745 7.89293 2.41314 7.89293L3.19045 7.89293L3.19045 18.5718L2.81396 18.5718C2.27927 18.5718 1.94045 18.8957 1.94045 19.4355ZM5.29922 18.5718L5.29922 6.39673L12.047 2.62732C12.1194 2.5888 12.1965 2.57212 12.2563 2.57212C12.331 2.57212 12.3931 2.5888 12.4679 2.62732L19.2157 6.39673L19.2157 18.5718ZM1.20651 23.5854L23.0673 23.5854C23.7134 23.5854 24.2836 23.0525 24.2836 22.3766C24.2836 21.7231 23.7134 21.1701 23.0673 21.1701L1.20651 21.1701C0.553002 21.1701 0 21.7231 0 22.3766C0 23.045 0.553002 23.5854 1.20651 23.5854Z"
                     fill="currentColor" fill-opacity="0.85" />
              <path d="M13.3829 15.7043C13.7533 15.7043 14.1674 15.6647 14.4856 15.5465C14.8331 15.4086 15.0726 15.1726 15.0726 14.7528C15.0726 14.2389 14.681 14.0476 14.1671 14.0476C14.0537 14.0476 14.0037 14.0569 13.8816 14.0569C11.879 14.0569 10.9033 13.2385 10.9033 11.5251C10.9033 9.84327 11.8904 9.01337 13.9046 9.01337C14.0174 9.01337 14.1187 9.02259 14.1895 9.02259C14.6959 9.02259 15.0726 8.81412 15.0726 8.30764C15.0726 7.89245 14.8469 7.65183 14.4856 7.51917C14.1841 7.41066 13.8067 7.3762 13.4127 7.3762C10.8743 7.3762 8.8809 8.69062 8.8809 11.5302C8.8809 14.1814 10.6147 15.7043 13.3829 15.7043ZM7.97803 10.8378C7.97803 10.9838 8.09468 11.093 8.23546 11.093L13.5016 11.093C13.64 11.093 13.7567 10.9838 13.7567 10.8378C13.7567 10.6971 13.64 10.5804 13.5016 10.5804L8.23546 10.5804C8.09468 10.5804 7.97803 10.6971 7.97803 10.8378ZM7.97803 12.28C7.97803 12.4259 8.09468 12.5426 8.23546 12.5426L13.5016 12.5426C13.64 12.5426 13.7567 12.4259 13.7567 12.28C13.7567 12.1415 13.64 12.0249 13.5016 12.0249L8.23546 12.0249C8.09468 12.0249 7.97803 12.1415 7.97803 12.28Z"
                     fill="currentColor" fill-opacity="0.85" />
       </g>
</svg>