<?xml version="1.0" encoding="UTF-8"?>
<!--Generator: Apple Native CoreSVG 326-->
<!DOCTYPE svg PUBLIC "-//W3C//DTD SVG 1.1//EN" "http://www.w3.org/Graphics/SVG/1.1/DTD/svg11.dtd">
<svg version="1.1" xmlns="http://www.w3.org/2000/svg" xmlns:xlink="http://www.w3.org/1999/xlink"
       viewBox="0 0 22.6374 22.2784">
       <g>
              <rect height="22.2784" opacity="0" width="22.6374" x="0" y="0" />
              <path d="M11.1343 22.2687C17.2722 22.2687 22.2761 17.2722 22.2761 11.1343C22.2761 4.99648 17.2722 0 11.1343 0C4.99648 0 0 4.99648 0 11.1343C0 17.2722 4.99648 22.2687 11.1343 22.2687ZM11.1343 18.2927C7.17804 18.2927 3.97601 15.0906 3.97601 11.1343C3.97601 7.17573 7.17804 3.97601 11.1343 3.97601C15.0929 3.97601 18.3001 7.17573 18.3001 11.1343C18.3001 15.0906 15.0929 18.2927 11.1343 18.2927Z"
                     fill="currentColor" fill-opacity="0.85" />
              <path d="M12.2511 15.282C12.6216 15.282 13.038 15.2401 13.3562 15.1143C13.7014 14.9765 13.9483 14.7428 13.9483 14.3305C13.9483 13.8165 13.5493 13.6253 13.0354 13.6253C12.9294 13.6253 12.8794 13.6345 12.7499 13.6345C10.7547 13.6345 9.77157 12.8161 9.77157 11.1027C9.77157 9.41861 10.7661 8.58126 12.7803 8.58126C12.8931 8.58126 12.9944 8.59794 13.0652 8.59794C13.5717 8.59794 13.9483 8.38946 13.9483 7.88298C13.9483 7.4701 13.7226 7.22948 13.3562 7.09682C13.0621 6.98831 12.6825 6.95155 12.2884 6.95155C9.75004 6.95155 7.75664 8.26597 7.75664 11.1079C7.75664 13.7591 9.49043 15.282 12.2511 15.282ZM6.85608 10.4132C6.85608 10.5517 6.96526 10.6683 7.1112 10.6683L12.3773 10.6683C12.5158 10.6683 12.6324 10.5517 12.6324 10.4132C12.6324 10.2747 12.5158 10.1581 12.3773 10.1581L7.1112 10.1581C6.96526 10.1581 6.85608 10.2747 6.85608 10.4132ZM6.85608 11.8577C6.85608 12.0036 6.96526 12.1128 7.1112 12.1128L12.3773 12.1128C12.5158 12.1128 12.6324 12.0036 12.6324 11.8577C12.6324 11.7169 12.5158 11.6002 12.3773 11.6002L7.1112 11.6002C6.96526 11.6002 6.85608 11.7169 6.85608 11.8577Z"
                     fill="currentColor" fill-opacity="0.85" />
       </g>
</svg>