<?xml version="1.0" encoding="UTF-8"?>
<!--Generator: Apple Native CoreSVG 326-->
<!DOCTYPE svg PUBLIC "-//W3C//DTD SVG 1.1//EN" "http://www.w3.org/Graphics/SVG/1.1/DTD/svg11.dtd">
<svg version="1.1" xmlns="http://www.w3.org/2000/svg" xmlns:xlink="http://www.w3.org/1999/xlink"
       viewBox="0 0 21.365 21.006">
       <g>
              <rect height="21.006" opacity="0" width="21.365" x="0" y="0" />
              <path d="M10.4981 20.9962C16.302 20.9962 21.0037 16.2946 21.0037 10.4981C21.0037 4.70163 16.302 0 10.4981 0C4.70163 0 0 4.70163 0 10.4981C0 16.2946 4.70163 20.9962 10.4981 20.9962ZM10.4981 17.9484C6.37829 17.9484 3.04785 14.6179 3.04785 10.4981C3.04785 6.37829 6.37829 3.04785 10.4981 3.04785C14.6179 3.04785 17.9558 6.37829 17.9558 10.4981C17.9558 14.6179 14.6179 17.9484 10.4981 17.9484Z"
                     fill="currentColor" fill-opacity="0.85" />
              <path d="M11.6126 14.6458C11.983 14.6458 12.3994 14.6039 12.7153 14.4781C13.0628 14.3403 13.3098 14.1066 13.3098 13.6943C13.3098 13.1803 12.9108 12.9891 12.3968 12.9891C12.2909 12.9891 12.2409 12.9983 12.1114 12.9983C10.1162 12.9983 9.13305 12.1799 9.13305 10.4665C9.13305 8.78239 10.1276 7.94504 12.1418 7.94504C12.2546 7.94504 12.3484 7.96172 12.4267 7.96172C12.9331 7.96172 13.3098 7.75324 13.3098 7.24676C13.3098 6.83388 13.0841 6.59325 12.7153 6.4606C12.4236 6.35209 12.0439 6.31533 11.6499 6.31533C9.11151 6.31533 7.11811 7.62975 7.11811 10.4717C7.11811 13.1229 8.8519 14.6458 11.6126 14.6458ZM6.21525 9.77697C6.21525 9.91545 6.32443 10.0321 6.47267 10.0321L11.7388 10.0321C11.8772 10.0321 11.9939 9.91545 11.9939 9.77697C11.9939 9.63849 11.8772 9.52185 11.7388 9.52185L6.47267 9.52185C6.32443 9.52185 6.21525 9.63849 6.21525 9.77697ZM6.21525 11.2214C6.21525 11.3674 6.32443 11.4766 6.47267 11.4766L11.7388 11.4766C11.8772 11.4766 11.9939 11.3674 11.9939 11.2214C11.9939 11.0806 11.8772 10.964 11.7388 10.964L6.47267 10.964C6.32443 10.964 6.21525 11.0806 6.21525 11.2214Z"
                     fill="currentColor" fill-opacity="0.85" />
       </g>
</svg>