<?xml version="1.0" encoding="UTF-8"?>
<!--Generator: Apple Native CoreSVG 326-->
<!DOCTYPE svg PUBLIC "-//W3C//DTD SVG 1.1//EN" "http://www.w3.org/Graphics/SVG/1.1/DTD/svg11.dtd">
<svg version="1.1" xmlns="http://www.w3.org/2000/svg" xmlns:xlink="http://www.w3.org/1999/xlink"
       viewBox="0 0 19.3993 19.0529">
       <g>
              <rect height="19.0529" opacity="0" width="19.3993" x="0" y="0" />
              <path d="M3.64834 19.0379L15.3896 19.0379C17.7164 19.0379 19.0379 17.7262 19.0379 15.4011L19.0379 3.63912C19.0379 1.32151 17.7164 0 15.3896 0L3.64834 0C1.32382 0 0 1.32151 0 3.63912L0 15.4011C0 17.7262 1.32382 19.0379 3.64834 19.0379ZM4.05583 16.0183C3.37024 16.0183 3.01964 15.7096 3.01964 14.9775L3.01964 4.07021C3.01964 3.33809 3.37024 3.0271 4.05583 3.0271L14.9821 3.0271C15.6654 3.0271 16.0183 3.33809 16.0183 4.07021L16.0183 14.9775C16.0183 15.7096 15.6654 16.0183 14.9821 16.0183Z"
                     fill="currentColor" fill-opacity="0.85" />
              <path d="M5.78598 12.9027L8.23085 12.9027C8.67533 12.9027 8.95271 12.6822 8.95271 12.2377C8.95271 11.823 8.66787 11.5801 8.23085 11.5801L6.61121 11.5801L6.61121 10.1061L8.18311 10.1061C8.57592 10.1061 8.82115 9.89076 8.82115 9.49795C8.82115 9.09022 8.55354 8.89206 8.18311 8.89206L6.61121 8.89206L6.61121 7.45785L8.23085 7.45785C8.67533 7.45785 8.95271 7.22238 8.95271 6.79281C8.95271 6.34833 8.67533 6.13755 8.23085 6.13755L5.78598 6.13755C5.25536 6.13755 4.9556 6.46661 4.9556 6.98746L4.9556 12.043C4.9556 12.5759 5.25306 12.9027 5.78598 12.9027ZM10.6496 12.9027L13.7006 12.9027C14.1107 12.9027 14.3387 12.6477 14.3387 12.2377C14.3387 11.8276 14.1107 11.5801 13.7006 11.5801L11.673 11.5801L11.673 11.5238L14.0377 7.52336C14.133 7.37457 14.2238 7.19078 14.2238 6.90594C14.2238 6.41899 13.9189 6.13755 13.4112 6.13755L10.536 6.13755C10.1012 6.13755 9.79917 6.36555 9.79917 6.79281C9.79917 7.22754 10.1012 7.45785 10.536 7.45785L12.4068 7.45785L12.4068 7.50898L10.0082 11.5364C9.90538 11.7127 9.83186 11.9511 9.83186 12.1716C9.83186 12.6523 10.1851 12.9027 10.6496 12.9027Z"
                     fill="currentColor" fill-opacity="0.85" />
       </g>
</svg>