<?xml version="1.0" encoding="UTF-8"?>
<!--Generator: Apple Native CoreSVG 326-->
<!DOCTYPE svg PUBLIC "-//W3C//DTD SVG 1.1//EN" "http://www.w3.org/Graphics/SVG/1.1/DTD/svg11.dtd">
<svg version="1.1" xmlns="http://www.w3.org/2000/svg" xmlns:xlink="http://www.w3.org/1999/xlink"
       viewBox="0 0 19.3993 19.0529">
       <g>
              <rect height="19.0529" opacity="0" width="19.3993" x="0" y="0" />
              <path d="M19.0379 3.63912L19.0379 15.4011C19.0379 17.7262 17.7164 19.0379 15.3896 19.0379L3.64834 19.0379C1.32382 19.0379 0 17.7262 0 15.4011L0 3.63912C0 1.32151 1.32382 0 3.64834 0L15.3896 0C17.7164 0 19.0379 1.32151 19.0379 3.63912ZM5.61942 5.91591C5.04689 5.91591 4.73221 6.27481 4.73221 6.83758L4.73221 12.1929C4.73221 12.7677 5.04458 13.1243 5.61942 13.1243L8.22678 13.1243C8.69826 13.1243 8.99802 12.8814 8.99802 12.4122C8.99802 11.9654 8.6908 11.6978 8.22678 11.6978L6.50148 11.6978L6.50148 10.1383L8.17905 10.1383C8.58908 10.1383 8.859 9.91545 8.859 9.49795C8.859 9.06553 8.5667 8.85014 8.17905 8.85014L6.50148 8.85014L6.50148 7.33496L8.22678 7.33496C8.69826 7.33496 8.99802 7.0725 8.99802 6.61825C8.99802 6.14907 8.69826 5.91591 8.22678 5.91591ZM10.6846 5.91591C10.2178 5.91591 9.89846 6.15884 9.89846 6.61825C9.89846 7.07766 10.2178 7.33496 10.6846 7.33496L12.6634 7.33496L12.6634 7.38379L10.1149 11.6542C10.0121 11.8454 9.93116 12.1009 9.93116 12.3289C9.93116 12.859 10.309 13.1243 10.8058 13.1243L14.056 13.1243C14.4907 13.1243 14.7411 12.8544 14.7411 12.4122C14.7411 11.97 14.4907 11.6978 14.056 11.6978L11.9009 11.6978L11.9009 11.649L14.4155 7.40562C14.5131 7.24191 14.6113 7.04836 14.6113 6.74114C14.6113 6.22204 14.2892 5.91591 13.7419 5.91591Z"
                     fill="currentColor" fill-opacity="0.85" />
       </g>
</svg>