<?xml version="1.0" encoding="UTF-8"?>
<!--Generator: Apple Native CoreSVG 326-->
<!DOCTYPE svg PUBLIC "-//W3C//DTD SVG 1.1//EN" "http://www.w3.org/Graphics/SVG/1.1/DTD/svg11.dtd">
<svg version="1.1" xmlns="http://www.w3.org/2000/svg" xmlns:xlink="http://www.w3.org/1999/xlink"
       viewBox="0 0 25.2371 20.7933">
       <g>
              <rect height="20.7933" opacity="0" width="25.2371" x="0" y="0" />
              <path d="M24.8758 12.4367C24.8758 9.44627 23.8182 6.68788 22.0375 4.53265C21.79 4.23112 21.3535 4.23112 21.0491 4.53034L18.6193 6.95264C18.3592 7.2128 18.3569 7.55853 18.5677 7.83822C19.5288 9.12728 20.1044 10.7185 20.1044 12.4367C20.1044 14.2244 19.4989 15.8753 18.4419 17.2029C18.2306 17.4808 18.2329 17.8225 18.4764 18.0683L20.92 20.5119C21.2117 20.8036 21.6459 20.8036 21.9256 20.4849C23.766 18.3147 24.8758 15.5116 24.8758 12.4367Z"
                     fill="currentColor" fill-opacity="0.85" />
              <path d="M12.4367 4.77139C14.1745 4.77139 15.7732 5.34932 17.0646 6.32534C17.3345 6.52635 17.6779 6.50682 17.9231 6.25413L20.3454 3.82437C20.6521 3.52515 20.6424 3.07605 20.311 2.81359C18.1655 1.05754 15.422 0 12.4367 0C9.45373 0 6.71026 1.05754 4.57225 2.81359C4.24089 3.07605 4.22366 3.52515 4.53034 3.82437L6.95264 6.25413C7.19787 6.50682 7.55853 6.52635 7.84052 6.31557C9.12213 5.34932 10.7185 4.77139 12.4367 4.77139Z"
                     fill="currentColor" fill-opacity="0.85" />
              <path d="M0 12.4367C0 15.519 1.12468 18.3446 2.98003 20.5147C3.23503 20.8186 3.66405 20.8036 3.96096 20.5119L6.39709 18.0683C6.64057 17.8225 6.65264 17.4808 6.43385 17.2029C5.38432 15.8753 4.77139 14.2244 4.77139 12.4367C4.77139 10.7185 5.34471 9.12728 6.30811 7.83822C6.51658 7.55853 6.51658 7.2128 6.25643 6.95264L3.82667 4.53034C3.52745 4.23112 3.07836 4.23859 2.80844 4.56995C1.05008 6.71026 0 9.45373 0 12.4367Z"
                     fill="currentColor" fill-opacity="0.85" />
              <path d="M8.88157 15.5728L11.2098 15.5728C11.6273 15.5728 11.8949 15.3597 11.8949 14.9422C11.8949 14.5448 11.6198 14.3116 11.2098 14.3116L9.67234 14.3116L9.67234 12.9147L11.1621 12.9147C11.5376 12.9147 11.7731 12.7068 11.7731 12.341C11.7731 11.9505 11.5153 11.7546 11.1621 11.7546L9.67234 11.7546L9.67234 10.3951L11.2098 10.3951C11.6273 10.3951 11.8949 10.1694 11.8949 9.76454C11.8949 9.34704 11.6273 9.13857 11.2098 9.13857L8.88157 9.13857C8.37794 9.13857 8.10286 9.45555 8.10286 9.95172L8.10286 14.755C8.10286 15.2535 8.37563 15.5728 8.88157 15.5728ZM13.5039 15.5728L16.4067 15.5728C16.7995 15.5728 17.0103 15.3327 17.0103 14.9422C17.0103 14.5494 16.7995 14.3116 16.4067 14.3116L14.4733 14.3116L14.4733 14.2628L16.7191 10.4658C16.8144 10.3193 16.8977 10.1453 16.8977 9.8702C16.8977 9.4154 16.6151 9.13857 16.127 9.13857L13.3926 9.13857C12.9825 9.13857 12.6977 9.35681 12.6977 9.76454C12.6977 10.1746 12.9825 10.3951 13.3926 10.3951L15.1766 10.3951L15.1766 10.4439L12.8969 14.2679C12.7964 14.4368 12.7304 14.6654 12.7304 14.8761C12.7304 15.3373 13.0663 15.5728 13.5039 15.5728Z"
                     fill="currentColor" fill-opacity="0.85" />
       </g>
</svg>