<?xml version="1.0" encoding="UTF-8"?>
<!--Generator: Apple Native CoreSVG 326-->
<!DOCTYPE svg PUBLIC "-//W3C//DTD SVG 1.1//EN" "http://www.w3.org/Graphics/SVG/1.1/DTD/svg11.dtd">
<svg version="1.1" xmlns="http://www.w3.org/2000/svg" xmlns:xlink="http://www.w3.org/1999/xlink"
       viewBox="0 0 21.365 21.006">
       <g>
              <rect height="21.006" opacity="0" width="21.365" x="0" y="0" />
              <path d="M21.0037 10.4981C21.0037 16.2923 16.302 20.9962 10.4981 20.9962C4.70394 20.9962 0 16.2923 0 10.4981C0 4.70163 4.70394 0 10.4981 0C16.302 0 21.0037 4.70163 21.0037 10.4981ZM7.02233 9.45294L6.24818 9.45294C6.1074 9.45294 5.98099 9.57705 5.98099 9.73275C5.98099 9.88846 6.1074 9.99764 6.24818 9.99764L6.95222 9.99764C6.94015 10.1533 6.93784 10.3039 6.93784 10.4717C6.93784 10.6497 6.94015 10.8301 6.95222 10.9985L6.24818 10.9985C6.1074 10.9985 5.98099 11.1226 5.98099 11.2657C5.98099 11.419 6.1074 11.5455 6.24818 11.5455L7.03726 11.5455C7.45378 13.7071 9.17253 14.9242 11.7355 14.9242C12.1381 14.9242 12.5792 14.8749 12.9197 14.7417C13.2845 14.5964 13.5487 14.3529 13.5487 13.9084C13.5487 13.3549 13.1249 13.139 12.5714 13.139C12.4557 13.139 12.4057 13.1579 12.279 13.1579C10.6274 13.1579 9.63 12.6355 9.2623 11.5455L11.8766 11.5455C12.0151 11.5455 12.1415 11.419 12.1415 11.2657C12.1415 11.1226 12.0151 10.9985 11.8766 10.9985L9.13535 10.9985C9.11352 10.8301 9.10605 10.6521 9.10605 10.4665C9.10605 10.2987 9.11352 10.1533 9.12789 9.99764L11.8766 9.99764C12.0151 9.99764 12.1415 9.88846 12.1415 9.73275C12.1415 9.57705 12.0151 9.45294 11.8766 9.45294L9.24223 9.45294C9.5927 8.33997 10.6084 7.79516 12.302 7.79516C12.4171 7.79516 12.5207 7.80438 12.5938 7.80438C13.1399 7.80438 13.5487 7.57867 13.5487 7.03259C13.5487 6.59501 13.3058 6.3297 12.9197 6.18959C12.601 6.08107 12.1915 6.03916 11.7728 6.03916C9.37815 6.03916 7.44577 7.12885 7.02233 9.45294Z"
                     fill="currentColor" fill-opacity="0.85" />
       </g>
</svg>