<?xml version="1.0" encoding="UTF-8"?>
<!--Generator: Apple Native CoreSVG 326-->
<!DOCTYPE svg PUBLIC "-//W3C//DTD SVG 1.1//EN" "http://www.w3.org/Graphics/SVG/1.1/DTD/svg11.dtd">
<svg version="1.1" xmlns="http://www.w3.org/2000/svg" xmlns:xlink="http://www.w3.org/1999/xlink"
       viewBox="0 0 21.365 21.006">
       <g>
              <rect height="21.006" opacity="0" width="21.365" x="0" y="0" />
              <path d="M21.0037 10.4981C21.0037 16.2923 16.302 20.9962 10.4981 20.9962C4.70394 20.9962 0 16.2923 0 10.4981C0 4.70163 4.70394 0 10.4981 0C16.302 0 21.0037 4.70163 21.0037 10.4981ZM6.50185 6.89247C5.93908 6.89247 5.6244 7.25137 5.6244 7.81414L5.6244 13.1695C5.6244 13.7443 5.93677 14.1009 6.50185 14.1009L9.11151 14.1009C9.59045 14.1009 9.88275 13.858 9.88275 13.3888C9.88275 12.942 9.58299 12.6744 9.11151 12.6744L7.39367 12.6744L7.39367 11.1149L9.06377 11.1149C9.47381 11.1149 9.74373 10.892 9.74373 10.4745C9.74373 10.0421 9.45889 9.82671 9.06377 9.82671L7.39367 9.82671L7.39367 8.31152L9.11151 8.31152C9.59045 8.31152 9.88275 8.04906 9.88275 7.59481C9.88275 7.12563 9.59045 6.89247 9.11151 6.89247ZM11.5694 6.89247C11.1099 6.89247 10.7907 7.1354 10.7907 7.59481C10.7907 8.05422 11.1099 8.31152 11.5694 8.31152L13.5556 8.31152L13.5556 8.36035L11.0071 12.6307C10.8969 12.822 10.8233 13.0775 10.8233 13.3055C10.8233 13.8356 11.2012 14.1009 11.6979 14.1009L14.9407 14.1009C15.3829 14.1009 15.6258 13.831 15.6258 13.3888C15.6258 12.9466 15.3829 12.6744 14.9407 12.6744L12.7908 12.6744L12.7908 12.6256L15.3002 8.38219C15.3978 8.21847 15.5035 8.02492 15.5035 7.7177C15.5035 7.1986 15.1814 6.89247 14.6266 6.89247Z"
                     fill="currentColor" fill-opacity="0.85" />
       </g>
</svg>