<?xml version="1.0" encoding="UTF-8"?>
<!--Generator: Apple Native CoreSVG 326-->
<!DOCTYPE svg PUBLIC "-//W3C//DTD SVG 1.1//EN" "http://www.w3.org/Graphics/SVG/1.1/DTD/svg11.dtd">
<svg version="1.1" xmlns="http://www.w3.org/2000/svg" xmlns:xlink="http://www.w3.org/1999/xlink"
       viewBox="0 0 32.4898 22.8465">
       <g>
              <rect height="22.8465" opacity="0" width="32.4898" x="0" y="0" />
              <path d="M15.6886 22.0297L15.6886 2.91319C15.6886 1.0505 14.6381 0 12.7777 0L4.5933 0C2.73577 0 1.69218 1.0505 1.69218 2.91319L1.69218 22.0297ZM5.1147 9.18339C4.50111 9.18339 4.0938 8.82261 4.0938 8.28022L4.0938 3.31686C4.0938 2.7647 4.49365 2.40908 5.1147 2.40908L12.2563 2.40908C12.8849 2.40908 13.287 2.7647 13.287 3.31686L13.287 8.28022C13.287 8.82261 12.8699 9.18339 12.2563 9.18339ZM0 21.5436C0 22.2591 0.58054 22.8442 1.28627 22.8442L16.0899 22.8442C16.7957 22.8442 17.3808 22.2591 17.3808 21.5436C17.3808 20.8401 16.7957 20.2573 16.0899 20.2573L1.28627 20.2573C0.582845 20.2573 0 20.8378 0 21.5436ZM20.7663 10.455L20.7663 16.1632C20.7663 17.365 20.2745 18.0401 19.3978 18.0401C18.5665 18.0401 18.0673 17.5339 18.0673 16.6664C18.0673 15.1936 18.3016 13.4459 18.3016 11.668C18.3016 9.84715 17.4021 8.45879 15.093 7.74535L14.4952 9.12546C16.1868 9.5816 16.7992 10.4962 16.7992 11.668C16.7992 13.2305 16.5648 14.9856 16.5648 16.6664C16.5648 18.4207 17.67 19.5448 19.3978 19.5448C21.2354 19.5448 22.2688 18.3259 22.2688 16.1632L22.2688 10.455C22.2688 9.79244 22.662 9.50584 23.1938 9.03205C23.8337 8.47608 24.1881 7.79194 24.1881 6.99292L24.1881 5.95806C24.1881 5.71568 24.0164 5.5342 23.7809 5.5342L23.2007 5.5342L23.2007 3.93822C23.2007 3.63724 22.9537 3.39771 22.6504 3.39771C22.3569 3.39771 22.1002 3.63724 22.1002 3.93822L22.1025 5.5342L20.9655 5.5342L20.9655 3.93822C20.9655 3.63724 20.7133 3.39771 20.4123 3.39771C20.1068 3.39771 19.8695 3.63724 19.8695 3.93822L19.8695 5.5342L19.2542 5.5342C19.0015 5.5342 18.8372 5.71568 18.8372 5.95806L18.8372 6.99292C18.8372 7.79194 19.1939 8.47608 19.8316 9.03205C20.3657 9.50584 20.7663 9.79244 20.7663 10.455Z"
                     fill="currentColor" fill-opacity="0.85" />
              <path d="M31.6438 10.5892L27.154 7.93897C26.4598 7.52784 25.6684 7.89991 25.6684 8.69802L25.6684 14.1416C25.6684 14.9495 26.4678 15.3164 27.154 14.9081L31.6438 12.2625C32.303 11.8663 32.2835 10.9682 31.6438 10.5892Z"
                     fill="currentColor" fill-opacity="0.85" />
       </g>
</svg>