<?xml version="1.0" encoding="UTF-8"?>
<!--Generator: Apple Native CoreSVG 326-->
<!DOCTYPE svg PUBLIC "-//W3C//DTD SVG 1.1//EN" "http://www.w3.org/Graphics/SVG/1.1/DTD/svg11.dtd">
<svg version="1.1" xmlns="http://www.w3.org/2000/svg" xmlns:xlink="http://www.w3.org/1999/xlink"
       viewBox="0 0 23.8463 22.4739">
       <g>
              <rect height="22.4739" opacity="0" width="23.8463" x="0" y="0" />
              <path d="M11.7462 22.4618C18.2279 22.4618 23.485 17.1973 23.485 10.7156C23.485 6.30241 21.0564 2.45906 17.6302 0.547967C16.9668 0.186093 16.2712 0 15.5176 0L7.96736 0C7.22123 0 6.51822 0.186093 5.86229 0.547967C2.42855 2.45906 0 6.30241 0 10.7156C0 17.1973 5.25706 22.4618 11.7462 22.4618ZM11.7462 19.4042C6.80282 19.4042 3.05015 15.6613 3.05015 10.7156C3.05015 7.44165 4.68859 4.74094 7.21571 3.26391C7.46106 3.12082 7.73341 3.05015 8.05689 3.05015L15.4356 3.05015C15.7665 3.05015 16.0538 3.12828 16.3141 3.28629C18.7987 4.74094 20.4348 7.44165 20.4348 10.7156C20.4348 15.6613 16.6896 19.4042 11.7462 19.4042Z"
                     fill="currentColor" fill-opacity="0.85" />
              <path d="M8.65447 7.15875C9.37197 7.15875 9.96767 6.57281 9.96767 5.85531C9.96767 5.13781 9.37197 4.54211 8.65447 4.54211C7.94673 4.54211 7.35849 5.13781 7.35849 5.85531C7.35849 6.57281 7.94673 7.15875 8.65447 7.15875ZM11.7462 7.15875C12.4637 7.15875 13.0571 6.57281 13.0571 5.85531C13.0571 5.13781 12.4637 4.54211 11.7462 4.54211C11.0287 4.54211 10.4428 5.13781 10.4428 5.85531C10.4428 6.57281 11.0287 7.15875 11.7462 7.15875ZM14.8305 7.15875C15.548 7.15875 16.1414 6.57281 16.1414 5.85531C16.1414 5.13781 15.548 4.54211 14.8305 4.54211C14.113 4.54211 13.5248 5.13781 13.5248 5.85531C13.5248 6.57281 14.113 7.15875 14.8305 7.15875ZM11.7462 10.2431C12.4637 10.2431 13.0571 9.65481 13.0571 8.94707C13.0571 8.22957 12.4637 7.63387 11.7462 7.63387C11.0287 7.63387 10.4428 8.22957 10.4428 8.94707C10.4428 9.65481 11.0287 10.2431 11.7462 10.2431ZM7.02701 13.5488C8.58896 13.5488 9.85795 12.2724 9.85795 10.7156C9.85795 9.15361 8.58896 7.88462 7.02701 7.88462C5.47021 7.88462 4.20122 9.15361 4.20122 10.7156C4.20122 12.2724 5.47021 13.5488 7.02701 13.5488ZM16.458 13.5488C18.0222 13.5488 19.2912 12.2724 19.2912 10.7156C19.2912 9.15361 18.0222 7.88462 16.458 7.88462C14.9035 7.88462 13.6271 9.15361 13.6271 10.7156C13.6271 12.2724 14.9035 13.5488 16.458 13.5488ZM7.91095 16.8338C8.56009 16.8338 9.10466 16.2892 9.10466 15.6499C9.10466 14.9956 8.56009 14.4487 7.91095 14.4487C7.26411 14.4487 6.71954 14.9956 6.71954 15.6499C6.71954 16.2892 7.26411 16.8338 7.91095 16.8338ZM11.7462 17.6065C12.8073 17.6065 13.7029 16.7184 13.7029 15.6499C13.7029 14.5739 12.8073 13.6858 11.7462 13.6858C10.6777 13.6858 9.78213 14.5739 9.78213 15.6499C9.78213 16.7184 10.6777 17.6065 11.7462 17.6065ZM15.574 16.8338C16.2209 16.8338 16.7729 16.2892 16.7729 15.6499C16.7729 14.9956 16.2209 14.4487 15.574 14.4487C14.9324 14.4487 14.3878 14.9956 14.3878 15.6499C14.3878 16.2892 14.9324 16.8338 15.574 16.8338Z"
                     fill="currentColor" fill-opacity="0.85" />
       </g>
</svg>