<?xml version="1.0" encoding="UTF-8"?>
<!--Generator: Apple Native CoreSVG 326-->
<!DOCTYPE svg PUBLIC "-//W3C//DTD SVG 1.1//EN" "http://www.w3.org/Graphics/SVG/1.1/DTD/svg11.dtd">
<svg version="1.1" xmlns="http://www.w3.org/2000/svg" xmlns:xlink="http://www.w3.org/1999/xlink"
       viewBox="0 0 21.365 21.006">
       <g>
              <rect height="21.006" opacity="0" width="21.365" x="0" y="0" />
              <path d="M21.0037 10.4981C21.0037 16.2923 16.302 20.9962 10.4981 20.9962C4.70394 20.9962 0 16.2923 0 10.4981C0 4.70163 4.70394 0 10.4981 0C16.302 0 21.0037 4.70163 21.0037 10.4981ZM8.23018 15.1418C8.23018 16.3918 9.23834 17.4074 10.4958 17.4074C11.7533 17.4074 12.7689 16.3918 12.7689 15.1418C12.7689 13.8941 11.7533 12.8687 10.4958 12.8687C9.23834 12.8687 8.23018 13.8941 8.23018 15.1418ZM4.10247 12.7071C4.10247 13.6084 4.84236 14.3581 5.74365 14.3581C6.657 14.3581 7.38712 13.6084 7.38712 12.7071C7.38712 11.7938 6.657 11.0637 5.74365 11.0637C4.84236 11.0637 4.10247 11.7938 4.10247 12.7071ZM13.6045 12.7071C13.6045 13.6084 14.3346 14.3581 15.248 14.3581C16.1516 14.3581 16.8989 13.6084 16.8989 12.7071C16.8989 11.7938 16.1516 11.0637 15.248 11.0637C14.3346 11.0637 13.6045 11.7938 13.6045 12.7071ZM4.82756 7.59353C4.82756 8.83607 5.83572 9.85685 7.09318 9.85685C8.34549 9.85685 9.36627 8.83607 9.36627 7.59353C9.36627 6.33607 8.34549 5.32045 7.09318 5.32045C5.83572 5.32045 4.82756 6.33607 4.82756 7.59353ZM11.6328 7.59353C11.6328 8.83607 12.6484 9.85685 13.8984 9.85685C15.1559 9.85685 16.1641 8.83607 16.1641 7.59353C16.1641 6.33607 15.1559 5.32045 13.8984 5.32045C12.6484 5.32045 11.6328 6.33607 11.6328 7.59353Z"
                     fill="currentColor" fill-opacity="0.85" />
       </g>
</svg>