<?xml version="1.0" encoding="UTF-8"?>
<!--Generator: Apple Native CoreSVG 326-->
<!DOCTYPE svg PUBLIC "-//W3C//DTD SVG 1.1//EN" "http://www.w3.org/Graphics/SVG/1.1/DTD/svg11.dtd">
<svg version="1.1" xmlns="http://www.w3.org/2000/svg" xmlns:xlink="http://www.w3.org/1999/xlink"
       viewBox="0 0 18.1624 27.1216">
       <g>
              <rect height="27.1216" opacity="0" width="18.1624" x="0" y="0" />
              <path d="M8.9017 15.4826C13.3924 15.4826 16.9371 11.9402 16.9371 7.68155C16.9371 5.46432 15.9618 3.41312 14.5585 2.10804C13.9221 1.49347 13.1502 1.19941 12.1956 1.19941L5.60553 1.19941C4.65323 1.19941 3.88132 1.49347 3.24492 2.10804C1.83933 3.41312 0.86629 5.46432 0.86629 7.68155C0.86629 11.9402 4.4012 15.4826 8.9017 15.4826ZM8.9017 12.9899C5.50654 12.9899 3.34919 10.8423 3.34919 7.68155C3.34919 6.06494 3.91396 4.8722 4.85334 4.00348C5.09299 3.77821 5.28994 3.69208 5.62791 3.69208L12.1732 3.69208C12.5037 3.69208 12.7179 3.78567 12.9552 4.01094C13.8871 4.8722 14.4542 6.06494 14.4542 7.68155C14.4542 10.8423 12.2969 12.9899 8.9017 12.9899ZM5.54057 27.1216L12.2582 27.1216C15.3668 27.1216 17.8011 24.6356 17.8011 21.5638C17.8011 18.4919 15.3668 16.006 12.2582 16.006L5.54057 16.006C2.43425 16.006 0 18.4919 0 21.5638C0 24.6356 2.43425 27.1216 5.54057 27.1216ZM5.54057 24.6289C3.75498 24.6289 2.47313 23.3494 2.47313 21.5638C2.47313 19.7782 3.75498 18.4986 5.54057 18.4986L12.2582 18.4986C14.0461 18.4986 15.328 19.7782 15.328 21.5638C15.328 23.3494 14.0461 24.6289 12.2582 24.6289Z"
                     fill="currentColor" fill-opacity="0.85" />
              <path d="M7.16615 6.36743C7.78369 6.36743 8.2892 5.86192 8.2892 5.24439C8.2892 4.62685 7.78369 4.12134 7.16615 4.12134C6.55607 4.12134 6.0431 4.62685 6.0431 5.24439C6.0431 5.86192 6.55607 6.36743 7.16615 6.36743ZM10.6373 6.36743C11.245 6.36743 11.758 5.86192 11.758 5.24439C11.758 4.62685 11.245 4.12134 10.6373 4.12134C10.0197 4.12134 9.51421 4.62685 9.51421 5.24439C9.51421 5.86192 10.0197 6.36743 10.6373 6.36743ZM5.4306 9.27565C6.29689 9.27565 6.99716 8.57022 6.99716 7.70908C6.99716 6.84279 6.29689 6.14482 5.4306 6.14482C4.57177 6.14482 3.8715 6.84279 3.8715 7.70908C3.8715 8.57022 4.57177 9.27565 5.4306 9.27565ZM8.9017 9.27565C9.76053 9.27565 10.466 8.57022 10.466 7.70908C10.466 6.84279 9.76053 6.14482 8.9017 6.14482C8.04057 6.14482 7.33514 6.84279 7.33514 7.70908C7.33514 8.57022 8.04057 9.27565 8.9017 9.27565ZM12.363 9.27565C13.2316 9.27565 13.9296 8.57022 13.9296 7.70908C13.9296 6.84279 13.2316 6.14482 12.363 6.14482C11.5042 6.14482 10.8062 6.84279 10.8062 7.70908C10.8062 8.57022 11.5042 9.27565 12.363 9.27565ZM7.16615 12.2889C8.02498 12.2889 8.73041 11.5834 8.73041 10.7223C8.73041 9.86346 8.02498 9.15803 7.16615 9.15803C6.30732 9.15803 5.59959 9.86346 5.59959 10.7223C5.59959 11.5834 6.30732 12.2889 7.16615 12.2889ZM10.6373 12.2889C11.4961 12.2889 12.2015 11.5834 12.2015 10.7223C12.2015 9.86346 11.4961 9.15803 10.6373 9.15803C9.76866 9.15803 9.07069 9.86346 9.07069 10.7223C9.07069 11.5834 9.76866 12.2889 10.6373 12.2889ZM5.53826 23.9698C6.85674 23.9698 7.94655 22.8897 7.94655 21.5638C7.94655 20.2378 6.85674 19.1555 5.53826 19.1555C4.21232 19.1555 3.13228 20.2378 3.13228 21.5638C3.13228 22.8897 4.21232 23.9698 5.53826 23.9698ZM12.2605 23.9698C13.5888 23.9698 14.6688 22.8897 14.6688 21.5638C14.6688 20.2378 13.5888 19.1555 12.2605 19.1555C10.9421 19.1555 9.85455 20.2378 9.85455 21.5638C9.85455 22.8897 10.9421 23.9698 12.2605 23.9698Z"
                     fill="currentColor" fill-opacity="0.85" />
       </g>
</svg>