<?xml version="1.0" encoding="UTF-8"?>
<!--Generator: Apple Native CoreSVG 326-->
<!DOCTYPE svg PUBLIC "-//W3C//DTD SVG 1.1//EN" "http://www.w3.org/Graphics/SVG/1.1/DTD/svg11.dtd">
<svg version="1.1" xmlns="http://www.w3.org/2000/svg" xmlns:xlink="http://www.w3.org/1999/xlink"
       viewBox="0 0 21.365 21.006">
       <g>
              <rect height="21.006" opacity="0" width="21.365" x="0" y="0" />
              <path d="M10.4981 20.9962C16.302 20.9962 21.0037 16.2946 21.0037 10.4981C21.0037 4.70163 16.302 0 10.4981 0C4.70163 0 0 4.70163 0 10.4981C0 16.2946 4.70163 20.9962 10.4981 20.9962ZM10.4981 17.9484C6.37829 17.9484 3.04785 14.6179 3.04785 10.4981C3.04785 6.37829 6.37829 3.04785 10.4981 3.04785C14.6179 3.04785 17.9558 6.37829 17.9558 10.4981C17.9558 14.6179 14.6179 17.9484 10.4981 17.9484Z"
                     fill="currentColor" fill-opacity="0.85" />
              <path d="M7.30505 9.94529C8.48099 9.94529 9.42771 8.99857 9.42771 7.82494C9.42771 6.649 8.48099 5.70228 7.30505 5.70228C6.13142 5.70228 5.18239 6.649 5.18239 7.82494C5.18239 8.99857 6.13142 9.94529 7.30505 9.94529ZM13.6866 9.94529C14.8676 9.94529 15.8167 8.99857 15.8167 7.82494C15.8167 6.649 14.8676 5.70228 13.6866 5.70228C12.5129 5.70228 11.5639 6.649 11.5639 7.82494C11.5639 8.99857 12.5129 9.94529 13.6866 9.94529ZM10.4958 17.0353C11.6694 17.0353 12.6185 16.0863 12.6185 14.9052C12.6185 13.7316 11.6694 12.7825 10.4958 12.7825C9.32217 12.7825 8.37315 13.7316 8.37315 14.9052C8.37315 16.0863 9.32217 17.0353 10.4958 17.0353ZM6.03419 14.1709C6.88841 14.1709 7.58407 13.4729 7.58407 12.621C7.58407 11.7743 6.88841 11.0786 6.03419 11.0786C5.18973 11.0786 4.49177 11.7743 4.49177 12.621C4.49177 13.4729 5.18973 14.1709 6.03419 14.1709ZM14.9574 14.1709C15.8116 14.1709 16.4998 13.4729 16.4998 12.621C16.4998 11.7743 15.8116 11.0786 14.9574 11.0786C14.1032 11.0786 13.415 11.7743 13.415 12.621C13.415 13.4729 14.1032 14.1709 14.9574 14.1709Z"
                     fill="currentColor" fill-opacity="0.85" />
       </g>
</svg>