<?xml version="1.0" encoding="UTF-8"?>
<!--Generator: Apple Native CoreSVG 326-->
<!DOCTYPE svg PUBLIC "-//W3C//DTD SVG 1.1//EN" "http://www.w3.org/Graphics/SVG/1.1/DTD/svg11.dtd">
<svg version="1.1" xmlns="http://www.w3.org/2000/svg" xmlns:xlink="http://www.w3.org/1999/xlink"
       viewBox="0 0 26.5015 23.1588">
       <g>
              <rect height="23.1588" opacity="0" width="26.5015" x="0" y="0" />
              <path d="M13.0663 23.1318C20.4023 23.1318 26.1402 17.4111 26.1402 10.4831C26.1402 6.80737 24.5393 3.53546 22.2915 1.40492C21.2439 0.43824 20.125 0 18.5983 0L7.52693 0C6.00022 0 4.88882 0.43824 3.84117 1.40492C1.59343 3.53546 0 6.80737 0 10.4831C0 17.4111 5.73042 23.1318 13.0663 23.1318ZM13.0663 20.0816C7.05564 20.0816 3.05015 16.0762 3.05015 10.4831C3.05015 7.54634 4.11473 5.35454 5.93587 3.62305C6.38806 3.20992 6.79439 3.05761 7.52693 3.05761L18.5983 3.05761C19.336 3.05761 19.7372 3.20992 20.1894 3.62305C22.0254 5.35454 23.09 7.54634 23.09 10.4831C23.09 16.0762 19.0696 20.0816 13.0663 20.0816Z"
                     fill="currentColor" fill-opacity="0.85" />
              <path d="M9.96021 7.86048C10.9885 7.86048 11.8461 7.00056 11.8461 5.96716C11.8461 4.92916 10.9885 4.079 9.96021 4.079C8.91474 4.079 8.06459 4.92916 8.06459 5.96716C8.06459 7.00056 8.91474 7.86048 9.96021 7.86048ZM16.165 7.86048C17.2128 7.86048 18.0532 7.00056 18.0532 5.96716C18.0532 4.92916 17.2128 4.079 16.165 4.079C15.1293 4.079 14.2717 4.92916 14.2717 5.96716C14.2717 7.00056 15.1293 7.86048 16.165 7.86048ZM6.85693 13.0594C8.28325 13.0594 9.43329 11.9019 9.43329 10.4831C9.43329 9.04697 8.28325 7.89924 6.85693 7.89924C5.44037 7.89924 4.2731 9.04697 4.2731 10.4831C4.2731 11.9019 5.44037 13.0594 6.85693 13.0594ZM13.0663 13.0594C14.4927 13.0594 15.6427 11.9019 15.6427 10.4831C15.6427 9.04697 14.4927 7.89924 13.0663 7.89924C11.6475 7.89924 10.4825 9.04697 10.4825 10.4831C10.4825 11.9019 11.6475 13.0594 13.0663 13.0594ZM19.2758 13.0594C20.6946 13.0594 21.8521 11.9019 21.8521 10.4831C21.8521 9.04697 20.6946 7.89924 19.2758 7.89924C17.8494 7.89924 16.6919 9.04697 16.6919 10.4831C16.6919 11.9019 17.8494 13.0594 19.2758 13.0594ZM9.96767 18.3221C11.3865 18.3221 12.544 17.1595 12.544 15.7383C12.544 14.312 11.3865 13.1619 9.96767 13.1619C8.53904 13.1619 7.38385 14.312 7.38385 15.7383C7.38385 17.1595 8.53904 18.3221 9.96767 18.3221ZM16.165 18.3221C17.5937 18.3221 18.7414 17.1595 18.7414 15.7383C18.7414 14.312 17.5937 13.1619 16.165 13.1619C14.7462 13.1619 13.5835 14.312 13.5835 15.7383C13.5835 17.1595 14.7462 18.3221 16.165 18.3221Z"
                     fill="currentColor" fill-opacity="0.85" />
       </g>
</svg>