<?xml version="1.0" encoding="UTF-8"?>
<!--Generator: Apple Native CoreSVG 326-->
<!DOCTYPE svg PUBLIC "-//W3C//DTD SVG 1.1//EN" "http://www.w3.org/Graphics/SVG/1.1/DTD/svg11.dtd">
<svg version="1.1" xmlns="http://www.w3.org/2000/svg" xmlns:xlink="http://www.w3.org/1999/xlink"
       viewBox="0 0 23.8463 22.4739">
       <g>
              <rect height="22.4739" opacity="0" width="23.8463" x="0" y="0" />
              <path d="M17.6302 0.547967C21.0564 2.45906 23.485 6.30241 23.485 10.7156C23.485 17.1973 18.2279 22.4618 11.7462 22.4618C5.25706 22.4618 0 17.1973 0 10.7156C0 6.30241 2.42855 2.45906 5.86229 0.547967C6.51822 0.186093 7.22123 0 7.96736 0L15.5176 0C16.2712 0 16.9668 0.186093 17.6302 0.547967ZM9.64892 15.9479C9.64892 17.0905 10.6013 18.0452 11.7462 18.0452C12.8837 18.0452 13.8361 17.0905 13.8361 15.9479C13.8361 14.803 12.8837 13.8557 11.7462 13.8557C10.6013 13.8557 9.64892 14.803 9.64892 15.9479ZM6.29986 15.9479C6.29986 16.6366 6.87888 17.2231 7.5774 17.2231C8.25869 17.2231 8.83771 16.6366 8.83771 15.9479C8.83771 15.2591 8.25869 14.6703 7.5774 14.6703C6.87888 14.6703 6.29986 15.2591 6.29986 15.9479ZM14.6473 15.9479C14.6473 16.6366 15.2263 17.2231 15.9099 17.2231C16.6136 17.2231 17.1851 16.6366 17.1851 15.9479C17.1851 15.2591 16.6136 14.6703 15.9099 14.6703C15.2263 14.6703 14.6473 15.2591 14.6473 15.9479ZM3.69596 10.6909C3.69596 12.3562 5.05107 13.709 6.70893 13.709C8.37939 13.709 9.73221 12.3562 9.73221 10.6909C9.73221 9.03533 8.37939 7.66759 6.70893 7.66759C5.05107 7.66759 3.69596 9.03533 3.69596 10.6909ZM13.7528 10.6909C13.7528 12.3562 15.1056 13.709 16.7761 13.709C18.4414 13.709 19.7965 12.3562 19.7965 10.6909C19.7965 9.03533 18.4414 7.66759 16.7761 7.66759C15.1056 7.66759 13.7528 9.03533 13.7528 10.6909ZM10.359 8.80926C10.359 9.56637 10.9794 10.1965 11.7462 10.1965C12.5131 10.1965 13.1484 9.56637 13.1484 8.80926C13.1484 8.04239 12.5131 7.40477 11.7462 7.40477C10.9794 7.40477 10.359 8.04239 10.359 8.80926ZM6.8935 5.42587C6.8935 6.19274 7.5162 6.82059 8.28077 6.82059C9.04764 6.82059 9.68526 6.19274 9.68526 5.42587C9.68526 4.65899 9.04764 4.02138 8.28077 4.02138C7.5162 4.02138 6.8935 4.65899 6.8935 5.42587ZM10.359 5.42587C10.359 6.19274 10.9794 6.82059 11.7462 6.82059C12.5131 6.82059 13.1484 6.19274 13.1484 5.42587C13.1484 4.65899 12.5131 4.02138 11.7462 4.02138C10.9794 4.02138 10.359 4.65899 10.359 5.42587ZM13.8221 5.42587C13.8221 6.19274 14.4448 6.82059 15.2117 6.82059C15.9786 6.82059 16.6139 6.19274 16.6139 5.42587C16.6139 4.65899 15.9786 4.02138 15.2117 4.02138C14.4448 4.02138 13.8221 4.65899 13.8221 5.42587Z"
                     fill="currentColor" fill-opacity="0.85" />
       </g>
</svg>