<?xml version="1.0" encoding="UTF-8"?>
<!--Generator: Apple Native CoreSVG 326-->
<!DOCTYPE svg PUBLIC "-//W3C//DTD SVG 1.1//EN" "http://www.w3.org/Graphics/SVG/1.1/DTD/svg11.dtd">
<svg version="1.1" xmlns="http://www.w3.org/2000/svg" xmlns:xlink="http://www.w3.org/1999/xlink"
       viewBox="0 0 18.1624 27.1457">
       <g>
              <rect height="27.1457" opacity="0" width="18.1624" x="0" y="0" />
              <path d="M17.8011 21.5758C17.8011 24.6477 15.3668 27.1336 12.2582 27.1336L5.54057 27.1336C2.43425 27.1336 0 24.6477 0 21.5758C0 18.504 2.43425 16.0181 5.54057 16.0181L12.2582 16.0181C15.3668 16.0181 17.8011 18.504 17.8011 21.5758ZM2.74529 21.5758C2.74529 22.9805 3.9017 24.1346 5.31147 24.1346C6.71608 24.1346 7.87479 22.9805 7.87479 21.5758C7.87479 20.1638 6.71608 19.0148 5.31147 19.0148C3.9017 19.0148 2.74529 20.1638 2.74529 21.5758ZM9.9263 21.5758C9.9263 22.9805 11.0827 24.1346 12.4873 24.1346C13.8994 24.1346 15.0558 22.9805 15.0558 21.5758C15.0558 20.1638 13.8994 19.0148 12.4873 19.0148C11.0827 19.0148 9.9263 20.1638 9.9263 21.5758ZM16.666 7.74936C16.666 11.9885 13.1506 15.5062 8.91147 15.5062C4.67234 15.5062 1.16211 11.9885 1.16211 7.74936C1.16211 3.52515 4.66027 0 8.8994 0C13.1259 0 16.666 3.51023 16.666 7.74936ZM7.24155 11.0051C7.24155 11.9328 7.98889 12.6727 8.90686 12.6727C9.83459 12.6727 10.5745 11.9328 10.5745 11.0051C10.5745 10.0946 9.83459 9.33976 8.90686 9.33976C7.98889 9.33976 7.24155 10.0946 7.24155 11.0051ZM4.50978 9.27753C4.50978 9.93698 5.04744 10.4844 5.69943 10.4844C6.35888 10.4844 6.9063 9.93698 6.9063 9.27753C6.9063 8.61807 6.35888 8.08557 5.69943 8.08557C5.04744 8.08557 4.50978 8.61807 4.50978 9.27753ZM10.9097 9.27753C10.9097 9.93698 11.4571 10.4844 12.1166 10.4844C12.7686 10.4844 13.3062 9.93698 13.3062 9.27753C13.3062 8.61807 12.7686 8.08557 12.1166 8.08557C11.4571 8.08557 10.9097 8.61807 10.9097 9.27753ZM4.87232 5.75869C4.87232 6.6692 5.61966 7.424 6.53994 7.424C7.45791 7.424 8.20525 6.6692 8.20525 5.75869C8.20525 4.83095 7.45791 4.09107 6.53994 4.09107C5.61966 4.09107 4.87232 4.83095 4.87232 5.75869ZM9.61077 5.75869C9.61077 6.6692 10.3581 7.424 11.2761 7.424C12.1964 7.424 12.9512 6.6692 12.9512 5.75869C12.9512 4.83095 12.1964 4.09107 11.2761 4.09107C10.3581 4.09107 9.61077 4.83095 9.61077 5.75869Z"
                     fill="currentColor" fill-opacity="0.85" />
       </g>
</svg>