<?xml version="1.0" encoding="UTF-8"?>
<!--Generator: Apple Native CoreSVG 326-->
<!DOCTYPE svg PUBLIC "-//W3C//DTD SVG 1.1//EN" "http://www.w3.org/Graphics/SVG/1.1/DTD/svg11.dtd">
<svg version="1.1" xmlns="http://www.w3.org/2000/svg" xmlns:xlink="http://www.w3.org/1999/xlink"
       viewBox="0 0 23.8314 20.4404">
       <g>
              <rect height="20.4404" opacity="0" width="23.8314" x="0" y="0" />
              <path d="M20.4637 16.9341C18.3665 19.1282 15.3017 20.4307 11.7313 20.4307C8.16607 20.4307 5.09153 19.1282 3.00411 16.9318C5.24341 14.5336 8.24037 13.1298 11.7313 13.1298C15.2199 13.1298 18.202 14.5262 20.4637 16.9341ZM10.3416 16.592C10.3416 17.3526 10.9707 17.9817 11.7313 17.9817C12.4994 17.9817 13.1285 17.3526 13.1285 16.592C13.1285 15.8314 12.4994 15.2023 11.7313 15.2023C10.9707 15.2023 10.3416 15.8314 10.3416 16.592ZM6.85044 16.592C6.85044 17.043 7.21122 17.4014 7.6622 17.4014C8.11317 17.4014 8.47911 17.043 8.47911 16.592C8.47911 16.141 8.11317 15.7825 7.6622 15.7825C7.21122 15.7825 6.85044 16.141 6.85044 16.592ZM14.991 16.592C14.991 17.043 15.3494 17.4014 15.8079 17.4014C16.2589 17.4014 16.6173 17.043 16.6173 16.592C16.6173 16.141 16.2589 15.7825 15.8079 15.7825C15.3494 15.7825 14.991 16.141 14.991 16.592ZM16.9292 0.479729C14.9945 1.18261 13.6078 3.0362 13.6078 5.22182C13.6078 8.0029 15.8679 10.2728 18.6662 10.2728C20.7894 10.2728 22.6092 8.93234 23.2981 7.07092C23.4103 7.70539 23.4701 8.40711 23.4701 9.17041C23.4701 11.7901 22.6804 14.1059 21.3095 15.9359C18.9381 13.3896 15.5128 11.8084 11.7313 11.8084C7.95498 11.8084 4.53198 13.3896 2.15827 15.9359C0.789682 14.1059 0 11.7901 0 9.17041C0 8.40711 0.0598067 7.70539 0.169654 7.07092C0.860892 8.93234 2.67323 10.2728 4.8039 10.2728C7.5999 10.2728 9.86231 8.0029 9.86231 5.22182C9.86231 3.0362 8.47329 1.18261 6.5386 0.479729C7.99083 0.158555 9.7154 0 11.7313 0C13.7524 0 15.4769 0.158555 16.9292 0.479729Z"
                     fill="currentColor" fill-opacity="0.85" />
              <path d="M4.8039 9.30203C7.0594 9.30203 8.88411 7.46986 8.88411 5.22182C8.88411 2.95886 7.0594 1.13184 4.8039 1.13184C2.55586 1.13184 0.723686 2.95886 0.723686 5.22182C0.723686 7.46986 2.55586 9.30203 4.8039 9.30203ZM4.8039 7.34084C3.62578 7.34084 2.67742 6.39994 2.67742 5.22182C2.67742 4.0437 3.62578 3.08788 4.8039 3.08788C5.98202 3.08788 6.93784 4.0437 6.93784 5.22182C6.93784 6.39994 5.98202 7.34084 4.8039 7.34084ZM4.8039 6.26486C5.38917 6.26486 5.8544 5.79217 5.8544 5.22182C5.8544 4.63655 5.38917 4.17132 4.8039 4.17132C4.23355 4.17132 3.7534 4.63655 3.7534 5.22182C3.7534 5.79217 4.23355 6.26486 4.8039 6.26486ZM18.6662 9.30203C20.9142 9.30203 22.7464 7.46986 22.7464 5.22182C22.7464 2.95886 20.9142 1.13184 18.6662 1.13184C16.4032 1.13184 14.5785 2.95886 14.5785 5.22182C14.5785 7.46986 16.4032 9.30203 18.6662 9.30203ZM18.6662 7.34084C17.4881 7.34084 16.5322 6.39994 16.5322 5.22182C16.5322 4.0437 17.4881 3.08788 18.6662 3.08788C19.8443 3.08788 20.7927 4.0437 20.7927 5.22182C20.7927 6.39994 19.8443 7.34084 18.6662 7.34084ZM18.6662 6.26486C19.2365 6.26486 19.7167 5.79217 19.7167 5.22182C19.7167 4.63655 19.2365 4.17132 18.6662 4.17132C18.0809 4.17132 17.6157 4.63655 17.6157 5.22182C17.6157 5.79217 18.0809 6.26486 18.6662 6.26486Z"
                     fill="currentColor" fill-opacity="0.85" />
       </g>
</svg>