<?xml version="1.0" encoding="UTF-8"?>
<!--Generator: Apple Native CoreSVG 326-->
<!DOCTYPE svg PUBLIC "-//W3C//DTD SVG 1.1//EN" "http://www.w3.org/Graphics/SVG/1.1/DTD/svg11.dtd">
<svg version="1.1" xmlns="http://www.w3.org/2000/svg" xmlns:xlink="http://www.w3.org/1999/xlink"
       viewBox="0 0 23.8314 20.4404">
       <g>
              <rect height="20.4404" opacity="0" width="23.8314" x="0" y="0" />
              <path d="M11.7313 20.4307C18.498 20.4307 23.4701 15.7814 23.4701 9.17041C23.4701 2.58073 20.0283 0 11.7313 0C3.43944 0 0 2.58073 0 9.17041C0 15.7814 4.9721 20.4307 11.7313 20.4307ZM11.7313 17.373C6.2531 17.373 3.05015 14.3896 3.05015 9.17041C3.05015 4.44633 5.02548 3.05015 11.7313 3.05015C18.4446 3.05015 20.4199 4.44633 20.4199 9.17041C20.4199 14.3896 17.217 17.373 11.7313 17.373ZM6.03813 11.1892C8.57398 11.1892 10.6302 9.12546 10.6302 6.59938C10.6302 4.06353 8.57398 2.00729 6.03813 2.00729C3.51205 2.00729 1.45581 4.06353 1.45581 6.59938C1.45581 9.12546 3.51205 11.1892 6.03813 11.1892ZM6.03813 9.05868C4.6818 9.05868 3.57883 7.96317 3.57883 6.59938C3.57883 5.23559 4.6818 4.13778 6.03813 4.13778C7.40192 4.13778 8.49974 5.23559 8.49974 6.59938C8.49974 7.96317 7.40192 9.05868 6.03813 9.05868ZM17.4296 11.1892C19.958 11.1892 22.0143 9.12546 22.0143 6.59938C22.0143 4.06353 19.958 2.00729 17.4296 2.00729C14.8961 2.00729 12.8399 4.06353 12.8399 6.59938C12.8399 9.12546 14.8961 11.1892 17.4296 11.1892ZM17.4296 9.05868C16.0658 9.05868 14.9703 7.96317 14.9703 6.59938C14.9703 5.23559 16.0658 4.13778 17.4296 4.13778C18.786 4.13778 19.8838 5.23559 19.8838 6.59938C19.8838 7.96317 18.786 9.05868 17.4296 9.05868ZM11.7313 19.3228C15.3926 19.3228 18.3953 17.797 20.1757 15.2848C17.9421 13.2563 14.9887 12.0315 11.7313 12.0315C8.47911 12.0315 5.51825 13.2563 3.29211 15.275C5.08219 17.797 8.07751 19.3228 11.7313 19.3228ZM7.6622 16.0958C7.21122 16.0958 6.85044 15.7373 6.85044 15.2864C6.85044 14.8279 7.21122 14.4694 7.6622 14.4694C8.11317 14.4694 8.47911 14.8279 8.47911 15.2864C8.47911 15.7373 8.11317 16.0958 7.6622 16.0958ZM11.7313 16.676C10.9707 16.676 10.3416 16.047 10.3416 15.2864C10.3416 14.5257 10.9707 13.8892 11.7313 13.8892C12.4994 13.8892 13.1285 14.5257 13.1285 15.2864C13.1285 16.047 12.4994 16.676 11.7313 16.676ZM15.8079 16.0958C15.3494 16.0958 14.991 15.7373 14.991 15.2864C14.991 14.8279 15.3494 14.4694 15.8079 14.4694C16.2589 14.4694 16.6173 14.8279 16.6173 15.2864C16.6173 15.7373 16.2589 16.0958 15.8079 16.0958Z"
                     fill="currentColor" fill-opacity="0.85" />
              <path d="M6.03813 7.87935C6.74762 7.87935 7.3204 7.30141 7.3204 6.59938C7.3204 5.89735 6.74762 5.31711 6.03813 5.31711C5.3361 5.31711 4.76563 5.89735 4.76563 6.59938C4.76563 7.30141 5.3361 7.87935 6.03813 7.87935ZM17.4296 7.87935C18.1317 7.87935 18.7044 7.30141 18.7044 6.59938C18.7044 5.89735 18.1317 5.31711 17.4296 5.31711C16.7201 5.31711 16.1497 5.89735 16.1497 6.59938C16.1497 7.30141 16.7201 7.87935 17.4296 7.87935Z"
                     fill="currentColor" fill-opacity="0.85" />
       </g>
</svg>