<?xml version="1.0" encoding="UTF-8"?>
<!--Generator: Apple Native CoreSVG 326-->
<!DOCTYPE svg PUBLIC "-//W3C//DTD SVG 1.1//EN" "http://www.w3.org/Graphics/SVG/1.1/DTD/svg11.dtd">
<svg version="1.1" xmlns="http://www.w3.org/2000/svg" xmlns:xlink="http://www.w3.org/1999/xlink"
       viewBox="0 0 21.365 21.006">
       <g>
              <rect height="21.006" opacity="0" width="21.365" x="0" y="0" />
              <path d="M21.0037 10.4981C21.0037 16.2923 16.302 20.9962 10.4981 20.9962C4.70394 20.9962 0 16.2923 0 10.4981C0 4.70163 4.70394 0 10.4981 0C16.302 0 21.0037 4.70163 21.0037 10.4981ZM11.1463 13.9014L10.4958 14.5467L9.85279 13.9014C9.57771 13.6286 9.17514 13.6189 8.90006 13.9014C8.62499 14.1713 8.62729 14.5739 8.90006 14.849L9.558 15.4994L8.90006 16.1476C8.62729 16.4227 8.62499 16.835 8.90006 17.1026C9.16768 17.3777 9.57771 17.3754 9.85279 17.1026L10.4958 16.4424L11.1463 17.1026C11.4214 17.3754 11.8314 17.3777 12.099 17.1026C12.3815 16.835 12.3718 16.4227 12.099 16.1476L11.4411 15.4994L12.099 14.849C12.3718 14.5739 12.3815 14.1713 12.099 13.9014C11.8239 13.6189 11.4214 13.6286 11.1463 13.9014ZM3.68279 10.4981C3.68279 12.1634 5.03561 13.5139 6.70092 13.5139C8.36393 13.5139 9.7242 12.1634 9.7242 10.4981C9.7242 8.8328 8.36393 7.48229 6.70092 7.48229C5.03561 7.48229 3.68279 8.8328 3.68279 10.4981ZM11.2795 10.4981C11.2795 12.1634 12.6398 13.5139 14.3051 13.5139C15.9681 13.5139 17.3209 12.1634 17.3209 10.4981C17.3209 8.8328 15.9681 7.48229 14.3051 7.48229C12.6398 7.48229 11.2795 8.8328 11.2795 10.4981ZM11.1463 3.89127L10.4958 4.55151L9.85279 3.89127C9.57541 3.61619 9.15276 3.61619 8.90006 3.89127C8.63475 4.15888 8.63475 4.57869 8.90006 4.8463L9.558 5.48701L8.90006 6.14495C8.63475 6.4051 8.63475 6.8249 8.90006 7.09251C9.16768 7.35782 9.58517 7.35782 9.85279 7.09251L10.4958 6.43973L11.1463 7.09251C11.4139 7.35782 11.8239 7.36529 12.099 7.09998C12.3815 6.8249 12.3741 6.42233 12.099 6.14495L11.4411 5.48701L12.099 4.8463C12.3741 4.56892 12.3815 4.15888 12.099 3.89127C11.8314 3.61619 11.4237 3.61619 11.1463 3.89127Z"
                     fill="currentColor" fill-opacity="0.85" />
       </g>
</svg>