<?xml version="1.0" encoding="UTF-8"?>
<!--Generator: Apple Native CoreSVG 326-->
<!DOCTYPE svg PUBLIC "-//W3C//DTD SVG 1.1//EN" "http://www.w3.org/Graphics/SVG/1.1/DTD/svg11.dtd">
<svg version="1.1" xmlns="http://www.w3.org/2000/svg" xmlns:xlink="http://www.w3.org/1999/xlink"
       viewBox="0 0 18.1624 27.1457">
       <g>
              <rect height="27.1457" opacity="0" width="18.1624" x="0" y="0" />
              <path d="M8.91147 15.5062C13.1506 15.5062 16.666 11.9885 16.666 7.74936C16.666 3.51023 13.1259 0 8.8994 0C4.66027 0 1.16211 3.52515 1.16211 7.74936C1.16211 11.9885 4.67234 15.5062 8.91147 15.5062ZM8.91147 13.0135C5.92009 13.0135 3.66454 10.7482 3.66454 7.74936C3.66454 4.76029 5.92009 2.49266 8.8994 2.49266C11.8982 2.49266 14.1733 4.76029 14.1733 7.74936C14.1733 10.7482 11.908 13.0135 8.91147 13.0135ZM5.54057 27.1336L12.2582 27.1336C15.3668 27.1336 17.8011 24.6477 17.8011 21.5758C17.8011 18.504 15.3668 16.0181 12.2582 16.0181L5.54057 16.0181C2.43425 16.0181 0 18.504 0 21.5758C0 24.6477 2.43425 27.1336 5.54057 27.1336ZM5.54057 24.641C3.75498 24.641 2.47313 23.3614 2.47313 21.5758C2.47313 19.7903 3.75498 18.5107 5.54057 18.5107L12.2582 18.5107C14.0461 18.5107 15.328 19.7903 15.328 21.5758C15.328 23.3614 14.0461 24.641 12.2582 24.641Z"
                     fill="currentColor" fill-opacity="0.85" />
              <path d="M6.68521 7.47798C7.54404 7.47798 8.24947 6.78001 8.24947 5.92119C8.24947 5.05259 7.54404 4.35462 6.68521 4.35462C5.82408 4.35462 5.11865 5.05259 5.11865 5.92119C5.11865 6.78001 5.82408 7.47798 6.68521 7.47798ZM11.1308 7.47798C11.9919 7.47798 12.6974 6.78001 12.6974 5.92119C12.6974 5.05259 11.9919 4.35462 11.1308 4.35462C10.272 4.35462 9.56655 5.05259 9.56655 5.92119C9.56655 6.78001 10.272 7.47798 11.1308 7.47798ZM5.90384 10.3489C6.51392 10.3489 7.02689 9.83593 7.02689 9.22585C7.02689 8.60831 6.51392 8.1028 5.90384 8.1028C5.2863 8.1028 4.78079 8.60831 4.78079 9.22585C4.78079 9.83593 5.2863 10.3489 5.90384 10.3489ZM11.9196 10.3489C12.5297 10.3489 13.0352 9.83593 13.0352 9.22585C13.0352 8.60831 12.5297 8.1028 11.9196 8.1028C11.3021 8.1028 10.7966 8.60831 10.7966 9.22585C10.7966 9.83593 11.3021 10.3489 11.9196 10.3489ZM8.90686 12.4166C9.76799 12.4166 10.4734 11.7112 10.4734 10.85C10.4734 9.98374 9.76799 9.28578 8.90686 9.28578C8.04803 9.28578 7.3426 9.98374 7.3426 10.85C7.3426 11.7112 8.04803 12.4166 8.90686 12.4166ZM5.53826 23.9818C6.85674 23.9818 7.94655 22.9018 7.94655 21.5758C7.94655 20.2499 6.85674 19.1676 5.53826 19.1676C4.21232 19.1676 3.13228 20.2499 3.13228 21.5758C3.13228 22.9018 4.21232 23.9818 5.53826 23.9818ZM12.2605 23.9818C13.5888 23.9818 14.6688 22.9018 14.6688 21.5758C14.6688 20.2499 13.5888 19.1676 12.2605 19.1676C10.9421 19.1676 9.85455 20.2499 9.85455 21.5758C9.85455 22.9018 10.9421 23.9818 12.2605 23.9818Z"
                     fill="currentColor" fill-opacity="0.85" />
       </g>
</svg>