<?xml version="1.0" encoding="UTF-8"?>
<!--Generator: Apple Native CoreSVG 326-->
<!DOCTYPE svg PUBLIC "-//W3C//DTD SVG 1.1//EN" "http://www.w3.org/Graphics/SVG/1.1/DTD/svg11.dtd">
<svg version="1.1" xmlns="http://www.w3.org/2000/svg" xmlns:xlink="http://www.w3.org/1999/xlink"
       viewBox="0 0 21.5612 19.6111">
       <g>
              <rect height="19.6111" opacity="0" width="21.5612" x="0" y="0" />
              <path d="M13.2931 1.83479L20.7892 14.9335C21.0706 15.4303 21.1999 15.9685 21.1999 16.4872C21.1999 18.1529 19.9329 19.6111 18.0862 19.6111L3.12112 19.6111C1.26698 19.6111 0 18.1529 0 16.4872C0 15.9685 0.132109 15.4326 0.410702 14.9409L7.90676 1.83479C8.49433 0.7969 9.54484 0.265614 10.6074 0.265614C11.6625 0.265614 12.6883 0.781979 13.2931 1.83479ZM9.07578 14.7099C9.07578 15.5398 9.74027 16.0533 10.6172 16.0533C11.4918 16.0533 12.1413 15.5421 12.1413 14.7099C12.1413 13.8904 11.5015 13.3717 10.6172 13.3717C9.73797 13.3717 9.07578 13.8853 9.07578 14.7099ZM9.15227 7.53167L9.32399 11.173C9.37106 11.9517 9.83332 12.3864 10.6172 12.3864C11.3867 12.3864 11.8415 11.954 11.8885 11.158L12.0649 7.53397C12.1119 6.68066 11.5078 6.10582 10.6074 6.10582C9.70242 6.10582 9.1052 6.67836 9.15227 7.53167Z"
                     fill="currentColor" fill-opacity="0.85" />
       </g>
</svg>