<?xml version="1.0" encoding="UTF-8"?>
<!--Generator: Apple Native CoreSVG 326-->
<!DOCTYPE svg PUBLIC "-//W3C//DTD SVG 1.1//EN" "http://www.w3.org/Graphics/SVG/1.1/DTD/svg11.dtd">
<svg version="1.1" xmlns="http://www.w3.org/2000/svg" xmlns:xlink="http://www.w3.org/1999/xlink"
       viewBox="0 0 23.3769 22.7958">
       <g>
              <rect height="22.7958" opacity="0" width="23.3769" x="0" y="0" />
              <path d="M23.0156 5.99015L23.0156 13.866C23.0156 16.884 21.095 18.8213 18.0654 18.8213L12.113 18.8213L8.38613 22.0888C7.80777 22.6005 7.4052 22.7958 6.92735 22.7958C6.23642 22.7958 5.80454 22.3208 5.80454 21.5587L5.80454 18.8213L4.68902 18.8213C2.09221 18.8213 0 16.8863 0 13.866L0 5.99015C0 2.96984 1.92061 1.03255 4.95014 1.03255L18.0654 1.03255C21.095 1.03255 23.0156 2.97215 23.0156 5.99015ZM9.98362 13.5248C9.98362 14.357 10.6481 14.8682 11.525 14.8682C12.3996 14.8682 13.0417 14.3593 13.0417 13.5248C13.0417 12.7076 12.4019 12.189 11.525 12.189C10.6458 12.189 9.98362 12.7025 9.98362 13.5248ZM10.0601 6.34141L10.2318 9.99017C10.2714 10.7689 10.7412 11.1938 11.525 11.1938C12.2945 11.1938 12.7493 10.7712 12.7964 9.96779L12.9727 6.34372C13.0198 5.49787 12.4105 4.92072 11.5153 4.92072C10.6103 4.92072 10.013 5.49556 10.0601 6.34141Z"
                     fill="currentColor" fill-opacity="0.85" />
       </g>
</svg>