<?xml version="1.0" encoding="UTF-8"?>
<!--Generator: Apple Native CoreSVG 326-->
<!DOCTYPE svg PUBLIC "-//W3C//DTD SVG 1.1//EN" "http://www.w3.org/Graphics/SVG/1.1/DTD/svg11.dtd">
<svg version="1.1" xmlns="http://www.w3.org/2000/svg" xmlns:xlink="http://www.w3.org/1999/xlink"
       viewBox="0 0 28.3924 27.8348">
       <g>
              <rect height="27.8348" opacity="0" width="28.3924" x="0" y="0" />
              <path d="M15.386 24.6692L15.386 26.4727C15.386 27.2375 14.779 27.8348 14.029 27.8348C13.2716 27.8348 12.6744 27.2375 12.6744 26.4727L12.6744 24.6692C12.6744 23.9118 13.2716 23.3146 14.029 23.3146C14.779 23.3146 15.386 23.9118 15.386 24.6692ZM22.6418 20.6251L23.9172 21.9051C24.4559 22.4415 24.4559 23.2868 23.9172 23.8179C23.3935 24.3491 22.5505 24.3491 22.0044 23.8179L20.7318 22.535C20.1932 22.0113 20.1932 21.1562 20.7318 20.6251C21.263 20.0939 22.1181 20.0939 22.6418 20.6251ZM7.29693 20.6251C7.83555 21.1562 7.83555 22.0113 7.29693 22.535L6.02661 23.8179C5.48052 24.3491 4.63522 24.3491 4.11151 23.8179C3.57288 23.2868 3.57288 22.4415 4.11151 21.9051L5.38929 20.6251C5.92046 20.0939 6.77322 20.0939 7.29693 20.6251ZM18.1203 4.59197L18.1203 7.28025C20.3279 8.66915 21.8272 11.1346 21.8272 13.9125C21.8272 18.1758 18.2728 21.7302 14.002 21.7302C9.73876 21.7302 6.18431 18.1758 6.18431 13.9125C6.18431 11.1323 7.69568 8.65477 9.93771 7.26071L9.93771 4.59197C9.93771 3.07799 10.9112 2.10452 12.4326 2.10452L15.6254 2.10452C17.1469 2.10452 18.1203 3.07799 18.1203 4.59197ZM12.6443 16.7598C12.6443 17.4927 13.167 17.9712 14.0365 17.9712C14.891 17.9712 15.4137 17.495 15.4137 16.7598C15.4137 16.0172 14.8784 15.5485 14.0365 15.5485C13.1647 15.5485 12.6443 16.0195 12.6443 16.7598ZM28.0311 13.9125C28.0311 14.6625 27.4315 15.2671 26.6667 15.2671L24.8655 15.2671C24.1155 15.2671 23.516 14.6625 23.516 13.9125C23.516 13.1551 24.1155 12.5556 24.8655 12.5556L26.6667 12.5556C27.4315 12.5556 28.0311 13.1551 28.0311 13.9125ZM4.52252 13.9125C4.52252 14.6625 3.91553 15.2671 3.16558 15.2671L1.36209 15.2671C0.59722 15.2671 0 14.6625 0 13.9125C0 13.1551 0.59722 12.5556 1.36209 12.5556L3.16558 12.5556C3.91553 12.5556 4.52252 13.1551 4.52252 13.9125ZM12.738 10.9106L12.8874 13.5426C12.9442 14.2467 13.3295 14.6217 14.0388 14.6217C14.736 14.6217 15.1139 14.2564 15.1707 13.5351L15.3223 10.9129C15.3642 10.1548 14.8273 9.63734 14.029 9.63734C13.2285 9.63734 12.6961 10.1525 12.738 10.9106ZM23.9172 4.00476C24.4559 4.53592 24.4559 5.37376 23.9172 5.91985L22.6418 7.19017C22.1181 7.7288 21.263 7.7288 20.7318 7.19017C20.1932 6.66647 20.1932 5.8114 20.7318 5.28254L22.0044 4.00476C22.5505 3.46613 23.3935 3.46613 23.9172 4.00476ZM6.02661 4.00476L7.29693 5.28254C7.83555 5.8114 7.83555 6.66647 7.29693 7.19017C6.77322 7.7288 5.92046 7.7288 5.38929 7.19017L4.11151 5.91985C3.57288 5.37376 3.57288 4.53592 4.11151 4.00476C4.63522 3.46613 5.48052 3.46613 6.02661 4.00476Z"
                     fill="currentColor" fill-opacity="0.85" />
       </g>
</svg>