<?xml version="1.0" encoding="UTF-8"?>
<!--Generator: Apple Native CoreSVG 326-->
<!DOCTYPE svg PUBLIC "-//W3C//DTD SVG 1.1//EN" "http://www.w3.org/Graphics/SVG/1.1/DTD/svg11.dtd">
<svg version="1.1" xmlns="http://www.w3.org/2000/svg" xmlns:xlink="http://www.w3.org/1999/xlink"
       viewBox="0 0 26.5012 20.9071">
       <g>
              <rect height="20.9071" opacity="0" width="26.5012" x="0" y="0" />
              <path d="M20.1474 18.4723C23.4697 18.4723 26.1399 16.0082 26.1399 12.9197C26.1399 10.7496 24.9434 8.7335 22.9197 7.89542C22.9094 3.30121 19.5657 0 15.1911 0C12.7236 0 10.5927 1.12505 9.19698 3.07278C6.51112 2.53379 3.94616 4.43456 3.71828 7.24355C1.4068 7.76671 0 9.9035 0 12.5027C0 15.7841 2.86042 18.4723 6.50615 18.4723ZM20.1549 15.4526L6.52107 15.4526C4.58239 15.4526 3.10917 14.1069 3.10917 12.5027C3.10917 10.5868 4.38034 9.42207 6.15223 9.42207C6.31133 9.42207 6.39 9.33133 6.37508 9.16707C6.12887 6.52484 7.99095 5.27805 10.3585 5.95473C10.4906 5.98633 10.5888 5.95703 10.6623 5.83469C11.6767 4.11539 13.005 3.01964 15.1388 3.01964C17.857 3.01964 19.9171 5.14837 20.0384 7.81748C20.0752 8.53528 20.016 9.23422 19.9471 9.74543C19.9299 9.90969 19.9936 9.98551 20.1556 10.0073C21.918 10.2114 23.0307 11.3163 23.0307 12.9197C23.0307 14.3258 21.7649 15.4526 20.1549 15.4526Z"
                     fill="currentColor" fill-opacity="0.85" />
              <path d="M13.076 11.1136C13.7238 11.1136 14.0845 10.7656 14.1338 10.0937L14.2706 7.62132C14.3125 6.91261 13.8151 6.42961 13.0662 6.42961C12.3151 6.42961 11.8223 6.91031 11.8642 7.61901L12.0009 10.1011C12.0503 10.7633 12.4236 11.1136 13.076 11.1136ZM13.0737 14.2438C13.8714 14.2438 14.3597 13.802 14.3597 13.1163C14.3597 12.423 13.8513 11.9813 13.0737 11.9813C12.2588 11.9813 11.7728 12.4328 11.7728 13.1163C11.7728 13.7997 12.2685 14.2438 13.0737 14.2438Z"
                     fill="currentColor" fill-opacity="0.85" />
       </g>
</svg>