<?xml version="1.0" encoding="UTF-8"?>
<!--Generator: Apple Native CoreSVG 326-->
<!DOCTYPE svg PUBLIC "-//W3C//DTD SVG 1.1//EN" "http://www.w3.org/Graphics/SVG/1.1/DTD/svg11.dtd">
<svg version="1.1" xmlns="http://www.w3.org/2000/svg" xmlns:xlink="http://www.w3.org/1999/xlink"
       viewBox="0 0 23.3769 22.7532">
       <g>
              <rect height="22.7532" opacity="0" width="23.3769" x="0" y="0" />
              <path d="M7.19957 22.7532C7.95414 22.7532 8.59206 22.4471 9.53095 21.6363L12.7882 18.8023L18.0654 18.8023C21.095 18.8023 23.0156 16.8627 23.0156 13.8447L23.0156 5.96886C23.0156 2.95086 21.095 1.01126 18.0654 1.01126L4.95014 1.01126C1.92061 1.01126 0 2.94855 0 5.96886L0 13.8447C0 16.8651 2.09221 18.8023 4.68902 18.8023L5.39651 18.8023L5.39651 20.7819C5.39651 22.0038 6.08326 22.7532 7.19957 22.7532ZM7.91331 19.4218L7.91331 16.7763C7.91331 16.0549 7.53664 15.7827 6.91977 15.7827L5.18142 15.7827C3.74594 15.7827 3.01964 15.0604 3.01964 13.6186L3.01964 6.19268C3.01964 4.75095 3.74594 4.0309 5.18142 4.0309L17.8342 4.0309C19.2673 4.0309 19.9959 4.75095 19.9959 6.19268L19.9959 13.6186C19.9959 15.0604 19.2673 15.7827 17.8342 15.7827L12.5431 15.7827C11.7948 15.7827 11.484 15.9354 10.9339 16.473Z"
                     fill="currentColor" fill-opacity="0.85" />
              <path d="M11.5227 11.1088C12.2451 11.1088 12.6678 10.7108 12.7074 9.96427L12.8739 6.53145C12.921 5.74474 12.3513 5.2072 11.5129 5.2072C10.6648 5.2072 10.1072 5.74243 10.1542 6.52914L10.311 9.97919C10.3507 10.7085 10.7882 11.1088 11.5227 11.1088ZM11.5227 14.5437C12.3428 14.5437 12.943 14.067 12.943 13.2894C12.943 12.5215 12.3451 12.0373 11.5227 12.0373C10.7003 12.0373 10.0801 12.5164 10.0801 13.2894C10.0801 14.0647 10.7026 14.5437 11.5227 14.5437Z"
                     fill="currentColor" fill-opacity="0.85" />
       </g>
</svg>