<?xml version="1.0" encoding="UTF-8"?>
<!--Generator: Apple Native CoreSVG 326-->
<!DOCTYPE svg PUBLIC "-//W3C//DTD SVG 1.1//EN" "http://www.w3.org/Graphics/SVG/1.1/DTD/svg11.dtd">
<svg version="1.1" xmlns="http://www.w3.org/2000/svg" xmlns:xlink="http://www.w3.org/1999/xlink"
       viewBox="0 0 26.5012 20.937">
       <g>
              <rect height="20.937" opacity="0" width="26.5012" x="0" y="0" />
              <path d="M22.9197 7.89542C24.9434 8.72604 26.1399 10.7496 26.1399 12.9197C26.1399 16.0082 23.4697 18.4648 20.1474 18.4648L6.50615 18.4648C2.86042 18.4648 0 15.7841 0 12.5027C0 9.89604 1.4068 7.76671 3.71828 7.23609C3.94616 4.43456 6.51112 2.53379 9.19698 3.07278C10.5927 1.11759 12.7236 0 15.1911 0C19.5657 0 22.9094 3.30121 22.9197 7.89542ZM11.689 13.3109C11.689 14.0438 12.2117 14.5223 13.0811 14.5223C13.9282 14.5223 14.4509 14.0461 14.4509 13.3109C14.4509 12.5683 13.9156 12.0996 13.0811 12.0996C12.2094 12.0996 11.689 12.5706 11.689 13.3109ZM11.7827 7.46167L11.9269 10.0937C11.9837 10.7978 12.3742 11.1728 13.0835 11.1728C13.7732 11.1728 14.1511 10.8075 14.2154 10.0862L14.3595 7.46397C14.4014 6.70589 13.8645 6.18844 13.0662 6.18844C12.2731 6.18844 11.7408 6.70359 11.7827 7.46167Z"
                     fill="currentColor" fill-opacity="0.85" />
       </g>
</svg>