<?xml version="1.0" encoding="UTF-8"?>
<!--Generator: Apple Native CoreSVG 326-->
<!DOCTYPE svg PUBLIC "-//W3C//DTD SVG 1.1//EN" "http://www.w3.org/Graphics/SVG/1.1/DTD/svg11.dtd">
<svg version="1.1" xmlns="http://www.w3.org/2000/svg" xmlns:xlink="http://www.w3.org/1999/xlink"
       viewBox="0 0 24.3303 21.006">
       <g>
              <rect height="21.006" opacity="0" width="24.3303" x="0" y="0" />
              <path d="M11.9856 20.9962C17.7821 20.9962 22.4837 16.2946 22.4837 10.4981C22.4837 4.70163 17.7821 0 11.9856 0C6.18916 0 1.48753 4.70163 1.48753 10.4981L4.53538 10.4981C4.53538 6.37829 7.86582 3.04785 11.9856 3.04785C16.1055 3.04785 19.4359 6.37829 19.4359 10.4981C19.4359 14.6179 16.1055 17.9484 11.9856 17.9484C9.86874 17.9484 8.05458 17.1034 6.64712 15.6524C5.97135 15.0132 5.0498 14.8117 4.35614 15.4438C3.73423 16.0162 3.72149 16.9286 4.44894 17.7463C6.08398 19.7011 9.21457 20.9962 11.9856 20.9962ZM0.808605 8.39698C-0.0138912 8.39698-0.212055 9.15901 0.22849 9.72826L2.75918 13.0277C3.05907 13.4322 3.60988 13.4224 3.91492 13.0277L6.43585 9.72596C6.86894 9.15901 6.66847 8.39698 5.8655 8.39698Z"
                     fill="currentColor" fill-opacity="0.85" />
              <path d="M12.0006 11.6964C12.7132 11.6964 13.1433 11.2984 13.1755 10.5518L13.3443 7.11902C13.3914 6.33001 12.8292 5.79478 11.9833 5.79478C11.1426 5.79478 10.5776 6.3277 10.6246 7.11672L10.7889 10.5668C10.8285 11.2961 11.2586 11.6964 12.0006 11.6964ZM12.0006 15.1313C12.8109 15.1313 13.4185 14.6597 13.4185 13.8844C13.4185 13.1166 12.8206 12.63 12.0006 12.63C11.1782 12.63 10.5579 13.1114 10.5579 13.8844C10.5579 14.6574 11.1805 15.1313 12.0006 15.1313Z"
                     fill="currentColor" fill-opacity="0.85" />
       </g>
</svg>