<?xml version="1.0" encoding="UTF-8"?>
<!--Generator: Apple Native CoreSVG 326-->
<!DOCTYPE svg PUBLIC "-//W3C//DTD SVG 1.1//EN" "http://www.w3.org/Graphics/SVG/1.1/DTD/svg11.dtd">
<svg version="1.1" xmlns="http://www.w3.org/2000/svg" xmlns:xlink="http://www.w3.org/1999/xlink"
       viewBox="0 0 15.1164 20.9311">
       <g>
              <rect height="20.9311" opacity="0" width="15.1164" x="0" y="0" />
              <path d="M12.7253 5.50375L12.7253 7.68327C14.0741 7.82381 14.7551 8.66269 14.7551 10.2641L14.7551 17.7909C14.7551 19.5801 13.9262 20.421 12.2892 20.421L2.46585 20.421C0.821404 20.421 0 19.5801 0 17.7909L0 10.2641C0 8.65907 0.677876 7.82002 2.03726 7.6823L2.03726 5.50375C2.03726 2.12284 4.35753 0 7.37638 0C10.3975 0 12.7253 2.12284 12.7253 5.50375ZM6.17558 16.7789C6.17558 17.4497 6.69073 17.9229 7.38154 17.9229C8.07181 17.9229 8.58696 17.4497 8.58696 16.7789C8.58696 16.1334 8.04942 15.6625 7.38154 15.6625C6.69588 15.6625 6.17558 16.1208 6.17558 16.7789ZM6.27269 11.3963L6.36288 13.9906C6.38011 14.558 6.79639 14.9393 7.36892 14.9393C7.934 14.9393 8.34282 14.558 8.36004 13.9906L8.47262 11.3986C8.49731 10.7715 7.99314 10.3368 7.36892 10.3368C6.7051 10.3368 6.248 10.7842 6.27269 11.3963ZM4.76132 5.43066L4.76132 7.65868L10.0035 7.65868L10.0035 5.43066C10.0035 3.71579 8.8519 2.63848 7.37638 2.63848C5.88594 2.63848 4.76132 3.71579 4.76132 5.43066Z"
                     fill="currentColor" fill-opacity="0.85" />
       </g>
</svg>