<?xml version="1.0" encoding="UTF-8"?>
<!--Generator: Apple Native CoreSVG 326-->
<!DOCTYPE svg PUBLIC "-//W3C//DTD SVG 1.1//EN" "http://www.w3.org/Graphics/SVG/1.1/DTD/svg11.dtd">
<svg version="1.1" xmlns="http://www.w3.org/2000/svg" xmlns:xlink="http://www.w3.org/1999/xlink"
       viewBox="0 0 23.437 24.2912">
       <g>
              <rect height="24.2912" opacity="0" width="23.437" x="0" y="0" />
              <path d="M12.7126 19.1918C13.2162 19.4486 13.6277 19.8606 13.8838 20.3645L20.7628 20.3645C21.4387 20.3645 21.9866 20.9199 21.9866 21.5957C21.9866 22.2716 21.4387 22.8172 20.7628 22.8172L13.8843 22.8172C13.4386 23.6919 12.529 24.2912 11.4837 24.2912C10.4368 24.2912 9.5304 23.6919 9.08675 22.8172L2.21722 22.8172C1.54133 22.8172 0.99579 22.2716 0.99579 21.5957C0.99579 20.9199 1.54133 20.3645 2.21722 20.3645L9.08721 20.3645C9.34304 19.8589 9.75485 19.4459 10.26 19.1894L10.26 17.6472L12.7126 17.6472Z"
                     fill="currentColor" fill-opacity="0.85" />
              <path d="M0 12.7779C0 15.6645 2.02585 17.6472 4.97228 17.6472L18.1108 17.6472C21.0498 17.6472 23.0756 15.6645 23.0756 12.7779C23.0756 11.9497 22.8775 11.1428 22.5088 10.3497L19.3231 3.30121C18.553 1.61376 17.1401 0.697668 15.2481 0.697668L7.84993 0.697668C5.95279 0.697668 4.54272 1.59884 3.77257 3.30121L0.65636 10.2229C0.322691 10.9534 0 11.8028 0 12.7779ZM4.82538 7.68142L6.45757 3.94726C6.65816 3.48967 7.11563 3.22127 7.71915 3.22127L15.3812 3.22127C15.9847 3.22127 16.4422 3.48967 16.6353 3.94726L18.26 7.68142C18.2149 7.78806 18.0309 7.91368 17.7378 7.91368L5.35278 7.91368C5.05223 7.91368 4.87566 7.78806 4.82538 7.68142ZM2.90312 12.7779C2.90312 11.6034 3.72829 10.8191 4.97228 10.8191L18.1108 10.8191C19.3548 10.8191 20.18 11.6034 20.18 12.7779C20.18 13.9828 19.3853 14.7441 18.1108 14.7441L4.97228 14.7441C3.72829 14.7441 2.90312 13.9523 2.90312 12.7779ZM16.633 12.7779C16.633 13.5096 17.2252 14.0892 17.9444 14.0794C18.6664 14.0771 19.2608 13.5073 19.2608 12.7779C19.2608 12.0783 18.6491 11.4689 17.9444 11.4689C17.2373 11.4689 16.633 12.0783 16.633 12.7779Z"
                     fill="currentColor" fill-opacity="0.85" />
       </g>
</svg>