<?xml version="1.0" encoding="UTF-8"?>
<!--Generator: Apple Native CoreSVG 326-->
<!DOCTYPE svg PUBLIC "-//W3C//DTD SVG 1.1//EN" "http://www.w3.org/Graphics/SVG/1.1/DTD/svg11.dtd">
<svg version="1.1" xmlns="http://www.w3.org/2000/svg" xmlns:xlink="http://www.w3.org/1999/xlink"
       viewBox="0 0 19.3993 19.0529">
       <g>
              <rect height="19.0529" opacity="0" width="19.3993" x="0" y="0" />
              <path d="M3.64834 19.0379L15.3896 19.0379C17.7164 19.0379 19.0379 17.7262 19.0379 15.4011L19.0379 3.63912C19.0379 1.32151 17.7164 0 15.3896 0L3.64834 0C1.32382 0 0 1.32151 0 3.63912L0 15.4011C0 17.7262 1.32382 19.0379 3.64834 19.0379ZM4.05583 16.0183C3.37024 16.0183 3.01964 15.7096 3.01964 14.9775L3.01964 4.07021C3.01964 3.33809 3.37024 3.0271 4.05583 3.0271L14.9821 3.0271C15.6654 3.0271 16.0183 3.33809 16.0183 4.07021L16.0183 14.9775C16.0183 15.7096 15.6654 16.0183 14.9821 16.0183Z"
                     fill="currentColor" fill-opacity="0.85" />
              <path d="M9.52385 13.3018C13.1471 13.3018 15.447 10.396 15.447 9.52385C15.447 8.64197 13.1448 5.74365 9.52385 5.74365C5.94017 5.74365 3.59836 8.64197 3.59836 9.52385C3.59836 10.396 5.94709 13.3018 9.52385 13.3018ZM9.52385 11.8984C8.22138 11.8984 7.13958 10.8022 7.13958 9.53131C7.13728 8.20416 8.22138 7.15451 9.52385 7.15451C10.8464 7.15451 11.9156 8.20416 11.9156 9.53131C11.9156 10.8022 10.8464 11.8984 9.52385 11.8984ZM9.52846 10.5488C10.0938 10.5488 10.5586 10.0892 10.5586 9.53131C10.5586 8.96369 10.0938 8.49658 9.52846 8.49658C8.94877 8.49658 8.50404 8.96369 8.50404 9.53131C8.50404 10.0892 8.94877 10.5488 9.52846 10.5488Z"
                     fill="currentColor" fill-opacity="0.85" />
       </g>
</svg>