<?xml version="1.0" encoding="UTF-8"?>
<!--Generator: Apple Native CoreSVG 326-->
<!DOCTYPE svg PUBLIC "-//W3C//DTD SVG 1.1//EN" "http://www.w3.org/Graphics/SVG/1.1/DTD/svg11.dtd">
<svg version="1.1" xmlns="http://www.w3.org/2000/svg" xmlns:xlink="http://www.w3.org/1999/xlink"
       viewBox="0 0 21.365 21.006">
       <g>
              <rect height="21.006" opacity="0" width="21.365" x="0" y="0" />
              <path d="M21.0037 10.4981C21.0037 16.2946 16.302 20.9962 10.4981 20.9962C4.70163 20.9962 0 16.2946 0 10.4981C0 4.70163 4.70163 0 10.4981 0C16.302 0 21.0037 4.70163 21.0037 10.4981ZM3.04785 10.4981C3.04785 14.6179 6.37829 17.9484 10.4981 17.9484C14.6179 17.9484 17.9558 14.6179 17.9558 10.4981C17.9558 6.37829 14.6179 3.04785 10.4981 3.04785C6.37829 3.04785 3.04785 6.37829 3.04785 10.4981Z"
                     fill="currentColor" fill-opacity="0.85" />
              <path d="M8.08023 10.0078C8.04665 10.1691 8.02918 10.3363 8.02947 10.5079C8.02947 11.831 9.14857 12.957 10.4958 12.957C10.6619 12.957 10.8241 12.9404 10.9806 12.9081L12.2513 14.1788C11.7103 14.3286 11.1222 14.4126 10.4958 14.4126C6.79967 14.4126 4.37634 11.4024 4.37634 10.5004C4.37634 10.0305 5.02897 8.99376 6.18026 8.10779ZM16.6204 10.5004C16.6204 10.9701 15.9765 12.0115 14.8249 12.9003L12.9129 10.9889C12.9453 10.8328 12.9621 10.6719 12.9621 10.5079C12.9621 9.14342 11.8631 8.049 10.4958 8.049C10.3331 8.049 10.1736 8.06497 10.0193 8.0962L8.7508 6.82811C9.29027 6.67778 9.87495 6.59338 10.4958 6.59338C14.2436 6.59338 16.6204 9.59615 16.6204 10.5004Z"
                     fill="currentColor" fill-opacity="0.85" />
              <path d="M13.8198 14.7013C14.0604 14.9345 14.4653 14.9443 14.7059 14.7013C14.9563 14.4584 14.9563 14.0581 14.7059 13.8077L7.20054 6.30004C6.94785 6.04966 6.54012 6.04966 6.29719 6.30004C6.0468 6.54297 6.0468 6.94555 6.29719 7.18617Z"
                     fill="currentColor" fill-opacity="0.85" />
       </g>
</svg>