<?xml version="1.0" encoding="UTF-8"?>
<!--Generator: Apple Native CoreSVG 326-->
<!DOCTYPE svg PUBLIC "-//W3C//DTD SVG 1.1//EN" "http://www.w3.org/Graphics/SVG/1.1/DTD/svg11.dtd">
<svg version="1.1" xmlns="http://www.w3.org/2000/svg" xmlns:xlink="http://www.w3.org/1999/xlink"
       viewBox="0 0 27.6626 17.4643">
       <g>
              <rect height="17.4643" opacity="0" width="27.6626" x="0" y="0" />
              <path d="M13.648 17.4643C22.0311 17.4643 27.3012 10.7591 27.3012 8.74448C27.3012 6.74253 22.0288 0.0396085 13.648 0.0396085C5.40973 0.0396085 0 6.74253 0 8.74448C0 10.7591 5.40743 17.4643 13.648 17.4643ZM13.648 14.5187C8.01079 14.5187 3.84275 10.0543 3.84275 8.74448C3.84275 7.6719 8.01079 2.98519 13.648 2.98519C19.2784 2.98519 23.4585 7.6719 23.4585 8.74448C23.4585 10.0543 19.2784 14.5187 13.648 14.5187ZM13.6555 13.3306C16.2128 13.3306 18.2537 11.245 18.2537 8.73241C18.2537 6.19001 16.2128 4.14918 13.6555 4.14918C11.1056 4.14918 9.05504 6.18255 9.05504 8.73241C9.05504 11.245 11.1056 13.3306 13.6555 13.3306ZM13.6406 10.0886C12.9108 10.0886 12.324 9.47199 12.324 8.74218C12.324 8.01236 12.9108 7.41072 13.6406 7.41072C14.3928 7.41072 14.987 8.01236 14.987 8.74218C14.987 9.47199 14.3928 10.0886 13.6406 10.0886Z"
                     fill="currentColor" fill-opacity="0.85" />
       </g>
</svg>