<?xml version="1.0" encoding="UTF-8"?>
<!--Generator: Apple Native CoreSVG 326-->
<!DOCTYPE svg PUBLIC "-//W3C//DTD SVG 1.1//EN" "http://www.w3.org/Graphics/SVG/1.1/DTD/svg11.dtd">
<svg version="1.1" xmlns="http://www.w3.org/2000/svg" xmlns:xlink="http://www.w3.org/1999/xlink"
       viewBox="0 0 21.365 21.006">
       <g>
              <rect height="21.006" opacity="0" width="21.365" x="0" y="0" />
              <path d="M21.0037 10.5079C21.0037 16.3043 16.302 21.006 10.4981 21.006C4.70394 21.006 0 16.3043 0 10.5079C0 4.7137 4.70394 0.00976562 10.4981 0.00976562C16.302 0.00976562 21.0037 4.7137 21.0037 10.5079ZM5.99688 6.02157C5.7465 6.27942 5.74134 6.7216 5.99688 6.97945L14.0438 15.0091C14.2918 15.2595 14.7363 15.2595 15.0016 15.0091C15.252 14.7415 15.2595 14.3188 15.0016 14.0512L6.97199 6.02157C6.70668 5.75396 6.2645 5.76142 5.99688 6.02157ZM4.03545 10.5102C4.03545 11.4644 6.59307 14.6313 10.4981 14.6313C11.1488 14.6313 11.7604 14.5457 12.3236 14.3922L10.984 13.0529C10.8269 13.085 10.6643 13.101 10.4981 13.101C9.08373 13.101 7.90494 11.9079 7.90494 10.5176C7.90467 10.3484 7.92099 10.183 7.95353 10.0233L5.92962 7.99998C4.72047 8.93154 4.03545 10.0184 4.03545 10.5102ZM8.68279 6.63698L10.0255 7.97973C10.1787 7.94923 10.3369 7.93424 10.4981 7.93424C11.9326 7.93424 13.0987 9.08834 13.0987 10.5176C13.0987 10.6831 13.0822 10.8458 13.0496 11.0038L15.0785 13.0327C16.289 12.0986 16.9659 11.0058 16.9659 10.5102C16.9659 9.56115 14.4548 6.39655 10.4981 6.39655C9.85278 6.39655 9.2445 6.48266 8.68279 6.63698Z"
                     fill="currentColor" fill-opacity="0.85" />
       </g>
</svg>