<?xml version="1.0" encoding="UTF-8"?>
<!--Generator: Apple Native CoreSVG 326-->
<!DOCTYPE svg PUBLIC "-//W3C//DTD SVG 1.1//EN" "http://www.w3.org/Graphics/SVG/1.1/DTD/svg11.dtd">
<svg version="1.1" xmlns="http://www.w3.org/2000/svg" xmlns:xlink="http://www.w3.org/1999/xlink"
       viewBox="0 0 27.6626 21.9619">
       <g>
              <rect height="21.9619" opacity="0" width="27.6626" x="0" y="0" />
              <path d="M6.92997 7.50238C5.00097 8.85819 3.84275 10.4279 3.84275 10.9933C3.84275 12.3031 8.01079 16.7675 13.648 16.7675C14.4507 16.7675 15.2238 16.6768 15.9552 16.5096L18.4007 18.9501C16.9666 19.4291 15.3732 19.7131 13.648 19.7131C5.40743 19.7131 0 13.0079 0 10.9933C0 9.87254 1.69551 7.2784 4.63555 5.21255ZM27.3012 10.9933C27.3012 12.1156 25.6657 14.6935 22.7639 16.7556L20.4936 14.4885C22.3475 13.1822 23.4585 11.6686 23.4585 10.9933C23.4585 9.92072 19.2784 5.23401 13.648 5.23401C12.8907 5.23401 12.1599 5.3186 11.4649 5.4728L9.01704 3.02844C10.4254 2.56367 11.9786 2.28843 13.648 2.28843C22.0288 2.28843 27.3012 8.99135 27.3012 10.9933ZM14.8582 15.4147C14.4769 15.5238 14.0731 15.5794 13.6555 15.5794C11.1056 15.5794 9.05504 13.4938 9.05504 10.9812C9.05504 10.5657 9.10949 10.164 9.21672 9.78456ZM18.2537 10.9812C18.2537 11.3692 18.205 11.7469 18.108 12.1064L12.5329 6.53929C12.8905 6.44516 13.2672 6.398 13.6555 6.398C16.2128 6.398 18.2537 8.43884 18.2537 10.9812Z"
                     fill="currentColor" fill-opacity="0.85" />
              <path d="M21.6406 20.1293C21.9806 20.4693 22.5217 20.4739 22.8542 20.1293C23.1914 19.7846 23.1943 19.2556 22.8542 18.9156L5.63828 1.70941C5.30055 1.37168 4.75489 1.37168 4.41485 1.70941C4.08688 2.03738 4.08688 2.60257 4.41485 2.92308Z"
                     fill="currentColor" fill-opacity="0.85" />
       </g>
</svg>