<?xml version="1.0" encoding="UTF-8"?>
<!--Generator: Apple Native CoreSVG 326-->
<!DOCTYPE svg PUBLIC "-//W3C//DTD SVG 1.1//EN" "http://www.w3.org/Graphics/SVG/1.1/DTD/svg11.dtd">
<svg version="1.1" xmlns="http://www.w3.org/2000/svg" xmlns:xlink="http://www.w3.org/1999/xlink"
       viewBox="0 0 25.9538 19.2053">
       <g>
              <rect height="19.2053" opacity="0" width="25.9538" x="0" y="0" />
              <path d="M6.07525 19.2053C9.64832 19.2053 12.1407 15.3459 12.1407 9.59779C12.1407 3.84741 9.64832 0 6.07525 0C2.49988 0 0 3.84741 0 9.59779C0 15.3459 2.49988 19.2053 6.07525 19.2053ZM6.07525 16.4183C4.19024 16.4355 2.80886 13.6974 2.80886 9.59779C2.80886 5.53493 4.19024 2.7991 6.07525 2.78703C7.97979 2.7698 9.36117 5.50563 9.36117 9.59779C9.36117 13.6607 7.97979 16.4062 6.07525 16.4183ZM4.52543 12.7466C6.20105 12.7466 7.29996 11.5914 7.29996 9.84284C7.29996 8.12355 6.20105 6.95858 4.52543 6.95858C2.85496 6.95858 1.7486 8.12355 1.7486 9.84284C1.7486 11.5914 2.85496 12.7466 4.52543 12.7466ZM3.75395 9.48097C3.40238 9.42468 3.18008 9.01222 3.2582 8.57507C3.34609 8.14023 3.69305 7.83519 4.02508 7.89608C4.3841 7.95698 4.59895 8.3723 4.51105 8.79968C4.41801 9.23683 4.1032 9.53956 3.75395 9.48097ZM19.5172 19.2053C23.0926 19.2053 25.5925 15.3459 25.5925 9.59779C25.5925 3.84741 23.0926 0 19.5172 0C15.9442 0 13.4443 3.84741 13.4443 9.59779C13.4443 15.3459 15.9442 19.2053 19.5172 19.2053ZM19.5172 16.416C17.6299 16.4235 16.2462 13.6951 16.2462 9.59779C16.2462 5.53493 17.6276 2.7991 19.5172 2.78933C21.4172 2.78187 22.8009 5.51024 22.8009 9.59779C22.8009 13.663 21.4172 16.4062 19.5172 16.416ZM17.9651 12.7466C19.6333 12.7466 20.7443 11.5914 20.7443 9.84284C20.7443 8.12355 19.6333 6.95858 17.9651 6.95858C16.297 6.95858 15.1883 8.12355 15.1883 9.84284C15.1883 11.5914 16.297 12.7466 17.9651 12.7466ZM17.1936 9.48097C16.8444 9.42237 16.6198 9.01222 16.7002 8.57507C16.7806 8.14023 17.1327 7.83519 17.4671 7.89608C17.8261 7.94722 18.0386 8.3723 17.9507 8.79968C17.8652 9.23683 17.5429 9.53956 17.1936 9.48097Z"
                     fill="currentColor" fill-opacity="0.85" />
       </g>
</svg>