<?xml version="1.0" encoding="UTF-8"?>
<!--Generator: Apple Native CoreSVG 326-->
<!DOCTYPE svg PUBLIC "-//W3C//DTD SVG 1.1//EN" "http://www.w3.org/Graphics/SVG/1.1/DTD/svg11.dtd">
<svg version="1.1" xmlns="http://www.w3.org/2000/svg" xmlns:xlink="http://www.w3.org/1999/xlink"
       viewBox="0 0 21.365 21.006">
       <g>
              <rect height="21.006" opacity="0" width="21.365" x="0" y="0" />
              <path d="M21.0037 10.5079C21.0037 16.3043 16.302 21.006 10.4981 21.006C4.70394 21.006 0 16.3043 0 10.5079C0 4.7137 4.70394 0.00976562 10.4981 0.00976562C16.302 0.00976562 21.0037 4.7137 21.0037 10.5079ZM8.61474 5.90244C7.50776 5.90244 6.92844 6.50712 6.92844 7.62617L6.92844 13.6047C6.92844 14.6515 7.47792 15.2762 8.44545 15.2762C9.40551 15.2762 9.96476 14.6486 9.96476 13.6047L9.96476 11.6855L12.7023 11.6855C13.354 11.6855 13.7566 11.3065 13.7566 10.68C13.7566 10.046 13.354 9.67222 12.7023 9.67222L9.93492 9.67222L9.93492 8.16316L12.7945 8.16316C13.588 8.16316 14.0577 7.75027 14.0577 7.03883C14.0577 6.32048 13.588 5.90244 12.7945 5.90244Z"
                     fill="currentColor" fill-opacity="0.85" />
       </g>
</svg>