<?xml version="1.0" encoding="UTF-8"?>
<!--Generator: Apple Native CoreSVG 326-->
<!DOCTYPE svg PUBLIC "-//W3C//DTD SVG 1.1//EN" "http://www.w3.org/Graphics/SVG/1.1/DTD/svg11.dtd">
<svg version="1.1" xmlns="http://www.w3.org/2000/svg" xmlns:xlink="http://www.w3.org/1999/xlink"
       viewBox="0 0 14.2804 17.8783">
       <g>
              <rect height="17.8783" opacity="0" width="14.2804" x="0" y="0" />
              <path d="M3.11099 17.6044C5.73813 17.6044 7.47902 16.0737 7.91265 13.1369L9.09835 4.99685C9.30519 3.55063 9.76848 3.10456 10.6811 3.10456C11.4884 3.10456 12.0149 3.21659 12.4302 3.21659C13.3053 3.21659 13.9191 2.61719 13.9191 1.72548C13.9191 0.458742 12.5601 0 10.8081 0C8.18093 0 6.44004 1.53066 6.00641 4.46744L4.82301 12.6098C4.62363 14.0486 4.15803 14.4998 3.23794 14.4998C2.43298 14.4998 1.90873 14.3878 1.49111 14.3878C0.613779 14.3878 0 14.9872 0 15.8789C0 17.148 1.35894 17.6044 3.11099 17.6044ZM2.59802 9.6818L12.1097 9.6818C13.0038 9.6818 13.679 9.01634 13.679 8.1344C13.679 7.25246 12.994 6.5847 12.0925 6.5847L2.5808 6.5847C1.68679 6.5847 1.01156 7.25016 1.01156 8.1344C1.01156 9.01634 1.70401 9.6818 2.59802 9.6818Z"
                     fill="currentColor" fill-opacity="0.85" />
       </g>
</svg>