<?xml version="1.0" encoding="UTF-8"?>
<!--Generator: Apple Native CoreSVG 326-->
<!DOCTYPE svg PUBLIC "-//W3C//DTD SVG 1.1//EN" "http://www.w3.org/Graphics/SVG/1.1/DTD/svg11.dtd">
<svg version="1.1" xmlns="http://www.w3.org/2000/svg" xmlns:xlink="http://www.w3.org/1999/xlink"
       viewBox="0 0 19.3993 19.0529">
       <g>
              <rect height="19.0529" opacity="0" width="19.3993" x="0" y="0" />
              <path d="M3.64834 19.0379L15.3896 19.0379C17.7164 19.0379 19.0379 17.7262 19.0379 15.4011L19.0379 3.63912C19.0379 1.32151 17.7164 0 15.3896 0L3.64834 0C1.32382 0 0 1.32151 0 3.63912L0 15.4011C0 17.7262 1.32382 19.0379 3.64834 19.0379ZM4.05583 16.0183C3.37024 16.0183 3.01964 15.7096 3.01964 14.9775L3.01964 4.07021C3.01964 3.33809 3.37024 3.0271 4.05583 3.0271L14.9821 3.0271C15.6654 3.0271 16.0183 3.33809 16.0183 4.07021L16.0183 14.9775C16.0183 15.7096 15.6654 16.0183 14.9821 16.0183Z"
                     fill="currentColor" fill-opacity="0.85" />
              <path d="M7.59177 13.9867C8.48754 13.9867 9.00949 13.3987 9.00949 12.4289L9.00949 10.6102L11.5851 10.6102C12.1972 10.6102 12.5751 10.2634 12.5751 9.67877C12.5751 9.09186 12.1972 8.73296 11.5851 8.73296L8.98711 8.73296L8.98711 7.30433L11.6824 7.30433C12.4214 7.30433 12.8515 6.91613 12.8515 6.24946C12.8515 5.58048 12.4214 5.19689 11.6824 5.19689L7.74614 5.19689C6.71093 5.19689 6.18613 5.75735 6.18613 6.80695L6.18613 12.4289C6.18613 13.4016 6.696 13.9867 7.59177 13.9867Z"
                     fill="currentColor" fill-opacity="0.85" />
       </g>
</svg>