<?xml version="1.0" encoding="UTF-8"?>
<!--Generator: Apple Native CoreSVG 326-->
<!DOCTYPE svg PUBLIC "-//W3C//DTD SVG 1.1//EN" "http://www.w3.org/Graphics/SVG/1.1/DTD/svg11.dtd">
<svg version="1.1" xmlns="http://www.w3.org/2000/svg" xmlns:xlink="http://www.w3.org/1999/xlink"
       viewBox="0 0 32.9082 16.8003">
       <g>
              <rect height="16.8003" opacity="0" width="32.9082" x="0" y="0" />
              <path d="M5.21867 5.53845L5.21867 5.93629L3.79022 5.93629C3.02134 5.93629 2.55708 6.47352 2.55708 7.30384C2.55708 8.93263 3.59412 10.1802 5.23109 10.5862C5.2569 11.578 5.60475 12.4829 6.23048 13.2728C2.48576 13.052 0 10.6688 0 7.30384C0 4.92764 1.47776 3.37921 3.79022 3.37921L5.89673 3.37921C5.44841 4.02107 5.21867 4.74574 5.21867 5.53845ZM32.5468 7.30384C32.5468 10.6646 30.0672 13.0462 26.3322 13.2718C26.9583 12.4808 27.306 11.5747 27.331 10.5815C28.9609 10.1702 29.9898 8.92617 29.9898 7.30384C29.9898 6.47352 29.518 5.93629 28.7566 5.93629L27.3431 5.93629L27.3431 5.53845C27.3431 4.74574 27.1133 4.02107 26.6651 3.37921L28.7566 3.37921C31.0639 3.37921 32.5468 4.92764 32.5468 7.30384ZM21.7172 10.0864C21.7172 10.6504 21.2388 11.1213 20.6748 11.1213L11.9065 11.1213C11.335 11.1213 10.8566 10.6504 10.8566 10.0864C10.8566 9.50747 11.3276 9.03424 11.9065 9.03424L20.6748 9.03424C21.2537 9.03424 21.7172 9.50747 21.7172 10.0864ZM21.7172 6.32958C21.7172 6.90848 21.2537 7.38172 20.6748 7.38172L11.9065 7.38172C11.3276 7.38172 10.8566 6.90848 10.8566 6.32958C10.8566 5.76045 11.335 5.29467 11.9065 5.29467L20.6748 5.29467C21.2388 5.29467 21.7172 5.76045 21.7172 6.32958Z"
                     fill="currentColor" fill-opacity="0.85" />
              <path d="M16.282 16.7934C22.8266 16.7934 27.3431 14.2018 27.3431 10.4213L27.3431 5.53845C27.3431 2.14619 23.1359 0 16.282 0C9.42583 0 5.21867 2.14619 5.21867 5.53845L5.21867 10.4213C5.21867 14.2018 9.73518 16.7934 16.282 16.7934ZM16.282 13.9528C11.56 13.9528 8.06902 12.3558 8.06902 10.4213L8.06902 5.53845C8.06902 3.88035 11.1623 2.84805 16.282 2.84805C21.3995 2.84805 24.495 3.88035 24.495 5.53845L24.495 10.4213C24.495 12.3558 21.0018 13.9528 16.282 13.9528Z"
                     fill="currentColor" fill-opacity="0.85" />
       </g>
</svg>