<?xml version="1.0" encoding="UTF-8"?>
<!--Generator: Apple Native CoreSVG 326-->
<!DOCTYPE svg PUBLIC "-//W3C//DTD SVG 1.1//EN" "http://www.w3.org/Graphics/SVG/1.1/DTD/svg11.dtd">
<svg version="1.1" xmlns="http://www.w3.org/2000/svg" xmlns:xlink="http://www.w3.org/1999/xlink"
       viewBox="0 0 28.6464 25.0682">
       <g>
              <rect height="25.0682" opacity="0" width="28.6464" x="0" y="0" />
              <path d="M14.1451 17.8163C15.5424 17.8163 16.5788 17.3906 16.5788 17.002C16.5788 16.6135 15.5424 16.1877 14.1451 16.1877C12.7427 16.1877 11.704 16.6135 11.704 17.002C11.704 17.3906 12.7427 17.8163 14.1451 17.8163ZM14.1377 6.18728C16.8711 6.18728 19.3705 4.31253 19.3705 2.06831C19.3705 1.25273 18.9219 0.745584 17.9575 0.461835C16.8627 0.149335 15.5685 0 14.1377 0C12.7166 0 11.4224 0.149335 10.3275 0.461835C9.36317 0.745584 8.91462 1.25273 8.91462 2.06831C8.91462 4.31253 11.4117 6.18728 14.1377 6.18728ZM14.1377 4.3932C12.4578 4.3932 11.1491 3.571 10.7707 2.32319C10.7535 2.25483 10.7977 2.19108 10.8753 2.15948C11.9552 1.91588 13.0502 1.78432 14.1377 1.78432C15.2349 1.78432 16.335 1.91588 17.4098 2.15948C17.4874 2.19108 17.5316 2.25483 17.5144 2.32319C17.1434 3.56354 15.8347 4.3932 14.1377 4.3932ZM13.0654 4.92855L13.0654 11.801L15.2196 11.801L15.2196 4.92855ZM14.1377 12.4363C15.0671 12.4363 16.0569 12.7344 16.6968 13.1847L18.3479 12.093C17.4042 11.1298 15.7885 10.5222 14.1377 10.5222C12.5138 10.5222 10.9274 11.1201 9.98369 12.0712L11.6911 13.121C12.331 12.6977 13.257 12.4363 14.1377 12.4363ZM14.1377 20.4381C17.1711 20.4381 19.193 19.0612 19.193 17.002C19.193 14.9428 17.1711 13.566 14.1377 13.566C11.114 13.566 9.08974 14.9428 9.08974 17.002C9.08974 19.0612 11.114 20.4381 14.1377 20.4381ZM14.1377 18.5239C12.2476 18.5239 10.9964 17.8954 10.9964 17.002C10.9964 16.1086 12.2476 15.4801 14.1377 15.4801C16.0352 15.4801 17.2864 16.1086 17.2864 17.002C17.2864 17.8954 16.0352 18.5239 14.1377 18.5239ZM14.8017 13.9092L4.20025 8.50246C0.561008 6.65239-1.6664 11.492 1.55468 13.0486L10.2893 17.2634L10.7143 15.2708L2.40975 11.277C1.45005 10.8069 2.01154 9.61095 3.15175 10.192L12.2249 14.8113ZM9.9923 17.856L9.9923 15.6692L3.6942 18.6726C0.189915 20.3446 2.69592 25.0716 5.93423 23.402L12.8067 19.8586L10.9077 18.613L5.02517 21.6378C4.06778 22.1349 3.42016 20.9786 4.48443 20.4838ZM13.4811 13.9092L16.0602 14.8113L25.1333 10.192C26.2735 9.61095 26.835 10.8069 25.8753 11.277L17.5708 15.2708L17.9934 17.2634L26.7304 13.0486C29.9515 11.492 27.7241 6.65239 24.0848 8.50246ZM18.2905 17.856L23.8007 20.4838C24.8649 20.9786 24.215 22.1349 23.2576 21.6378L17.3751 18.613L15.476 19.8586L22.3509 23.402C25.5892 25.0716 28.0929 20.3446 24.5886 18.6726L18.2905 15.6692Z"
                     fill="currentColor" fill-opacity="0.85" />
       </g>
</svg>