<?xml version="1.0" encoding="UTF-8"?>
<!--Generator: Apple Native CoreSVG 326-->
<!DOCTYPE svg PUBLIC "-//W3C//DTD SVG 1.1//EN" "http://www.w3.org/Graphics/SVG/1.1/DTD/svg11.dtd">
<svg version="1.1" xmlns="http://www.w3.org/2000/svg" xmlns:xlink="http://www.w3.org/1999/xlink"
       viewBox="0 0 17.9915 24.6988">
       <g>
              <rect height="24.6988" opacity="0" width="17.9915" x="0" y="0" />
              <path d="M4.10205 24.6988L13.5304 24.6988C14.1753 24.6988 14.5215 24.1591 14.5215 23.5097C14.5215 22.5236 13.6573 21.8643 12.5729 21.8643L10.1955 21.8643L10.1955 17.524C14.4146 16.8624 17.6302 13.2236 17.6302 8.82255C17.6302 3.9512 13.6887 0 8.81509 0C3.94143 0 0 3.9512 0 8.82255C0 13.2236 3.22539 16.8648 7.43698 17.524L7.43698 21.8643L5.06478 21.8643C3.98037 21.8643 3.11608 22.5236 3.11608 23.5097C3.11608 24.1591 3.45491 24.6988 4.10205 24.6988ZM8.81739 15.1823C5.30177 15.1823 2.44505 12.3307 2.44505 8.80763C2.44505 5.29431 5.30177 2.43528 8.81739 2.43528C12.3405 2.43528 15.1897 5.29431 15.1897 8.80763C15.1897 12.3307 12.3405 15.1823 8.81739 15.1823Z"
                     fill="currentColor" fill-opacity="0.85" />
              <path d="M6.91825 8.73763L8.49106 6.85626L8.49106 5.15055C8.49106 4.23149 7.99192 3.69329 7.08493 3.69329C5.53735 3.69329 4.07184 4.98763 4.07184 6.42536C4.07184 7.66669 5.08231 8.32723 6.91825 8.73763ZM8.89485 6.91595L10.7837 8.48876L12.4917 8.48876C13.4084 8.48876 13.9466 7.98962 13.9466 7.08263C13.9466 5.54251 12.6546 4.07184 11.2146 4.07184C9.97325 4.07184 9.31501 5.08001 8.89485 6.91595ZM10.724 8.90001L9.15118 10.7814L9.15118 12.4894C9.15118 13.4061 9.65032 13.9443 10.5596 13.9443C12.0974 13.9443 13.5704 12.6523 13.5704 11.2146C13.5704 9.97325 12.5525 9.31271 10.724 8.90001ZM8.73993 10.7217L6.85856 9.15118L5.15286 9.15118C4.2338 9.15118 3.69559 9.64802 3.69559 10.5573C3.69559 12.1026 4.98763 13.5681 6.42766 13.5681C7.66899 13.5681 8.32954 12.5576 8.73993 10.7217ZM11.0347 8.82255C11.0347 7.59899 10.0335 6.60751 8.81739 6.60751C7.6013 6.60751 6.60751 7.59899 6.60751 8.82255C6.60751 10.0386 7.6013 11.0324 8.81739 11.0324C10.0335 11.0324 11.0347 10.0386 11.0347 8.82255ZM8.81739 9.89161C8.23661 9.89161 7.74833 9.40333 7.74833 8.82255C7.74833 8.2343 8.23661 7.74602 8.81739 7.74602C9.40563 7.74602 9.88645 8.2343 9.88645 8.82255C9.88645 9.40333 9.40563 9.89161 8.81739 9.89161Z"
                     fill="currentColor" fill-opacity="0.85" />
       </g>
</svg>