<?xml version="1.0" encoding="UTF-8"?>
<!--Generator: Apple Native CoreSVG 326-->
<!DOCTYPE svg PUBLIC "-//W3C//DTD SVG 1.1//EN" "http://www.w3.org/Graphics/SVG/1.1/DTD/svg11.dtd">
<svg version="1.1" xmlns="http://www.w3.org/2000/svg" xmlns:xlink="http://www.w3.org/1999/xlink"
       viewBox="0 0 21.1477 24.9296">
       <g>
              <rect height="24.9296" opacity="0" width="21.1477" x="0" y="0" />
              <path d="M10.392 24.9296C16.2042 24.9296 20.7863 23.6716 20.7863 21.3281C20.7863 19.7784 18.8019 18.7198 15.8419 18.1752L14.6663 20.0158C17.2971 20.3427 18.7596 20.9063 18.7596 21.3281C18.7596 21.9952 15.457 22.9029 10.392 22.9029C5.32936 22.9029 2.0267 21.9952 2.0267 21.3281C2.0267 20.9063 3.48924 20.3427 6.12748 20.0158L4.94214 18.1752C1.98448 18.7198 0 19.7784 0 21.3281C0 23.6716 4.58214 24.9296 10.392 24.9296ZM3.97382 17.939L5.06976 20.6666C5.26846 21.1702 5.93744 21.2759 6.30041 20.6988L7.57103 18.7223C7.88978 18.2238 7.73244 17.6518 7.10416 17.4893L4.79905 16.9243C4.12655 16.7618 3.76765 17.4233 3.97382 17.939ZM16.82 17.939C17.0187 17.4233 16.6575 16.7618 15.9873 16.9243L13.6822 17.4893C13.0539 17.6518 12.904 18.2238 13.2205 18.7223L14.4859 20.6988C14.8489 21.2759 15.5156 21.1702 15.7143 20.6666Z"
                     fill="currentColor" fill-opacity="0.85" />
              <path d="M2.21219 10.7873C2.21219 13.3044 4.48285 15.9467 6.70983 15.9467C8.46195 15.9467 9.55679 14.5655 10.4587 12.3575C10.5036 12.3575 10.537 12.3552 10.575 12.3505L10.575 13.8881C10.575 15.4752 11.4566 16.3763 12.9948 16.3763C15.5096 16.3763 18.1542 14.1131 18.1542 11.881C18.1542 10.1795 16.7853 9.06905 14.565 8.1321C14.565 8.09698 14.5627 8.05385 14.5558 8.02334L16.0762 8.02334C17.6684 8.02334 18.5839 7.1394 18.5839 5.60347C18.5839 3.08867 16.3087 0.444063 14.0765 0.444063C12.3485 0.444063 11.2663 1.84079 10.3374 4.01604C10.2999 4.01604 10.2591 4.01834 10.2309 4.02295L10.2309 2.50491C10.2309 0.910387 9.34698 0.00460982 7.79151 0.00460982C5.29394 0.0166804 2.64934 2.27757 2.64934 4.50226C2.64934 6.25437 3.98055 7.32683 6.20924 8.2437C6.20924 8.28628 6.21154 8.32195 6.21615 8.35762L4.71019 8.35762C3.12312 8.35762 2.21219 9.25132 2.21219 10.7873ZM10.3943 9.62296C9.6044 9.62296 8.96557 8.98183 8.96557 8.18675C8.96557 7.39682 9.6044 6.75053 10.3943 6.75053C11.1894 6.75053 11.8305 7.39682 11.8305 8.18675C11.8305 8.98183 11.1894 9.62296 10.3943 9.62296Z"
                     fill="currentColor" fill-opacity="0.85" />
       </g>
</svg>