<?xml version="1.0" encoding="UTF-8"?>
<!--Generator: Apple Native CoreSVG 326-->
<!DOCTYPE svg PUBLIC "-//W3C//DTD SVG 1.1//EN" "http://www.w3.org/Graphics/SVG/1.1/DTD/svg11.dtd">
<svg version="1.1" xmlns="http://www.w3.org/2000/svg" xmlns:xlink="http://www.w3.org/1999/xlink"
       viewBox="0 0 26.2316 22.6549">
       <g>
              <rect height="22.6549" opacity="0" width="26.2316" x="0" y="0" />
              <path d="M20.0758 2.38081L20.0758 2.60706L5.79217 2.60706L5.79217 2.38081C5.79217 0.851247 6.77322 0 8.5095 0L17.3607 0C19.097 0 20.0758 0.851247 20.0758 2.38081Z"
                     fill="currentColor" fill-opacity="0.85" />
              <path d="M24.3234 7.6568L24.3234 15.2106C24.3234 17.4581 23.049 18.7135 20.8113 18.7135L20.1001 18.7135L20.1001 16.1019C20.1001 14.236 19.2192 13.3787 17.3672 13.3787L8.50077 13.3787C6.65106 13.3787 5.77755 14.236 5.77755 16.1019L5.77755 18.7135L5.05896 18.7135C2.82124 18.7135 1.54679 17.4581 1.54679 15.2106L1.54679 7.6568C1.54679 5.40931 2.85175 4.15154 5.05896 4.15154L20.8113 4.15154C23.049 4.15154 24.3234 5.40931 24.3234 7.6568ZM7.7715 10.3343C7.42861 10.3343 7.22299 10.5399 7.22299 10.8903L7.22299 11.8702C7.22299 12.2183 7.42861 12.4141 7.7715 12.4141L8.74169 12.4141C9.0995 12.4141 9.29536 12.2183 9.29536 11.8702L9.29536 10.8903C9.29536 10.5399 9.0995 10.3343 8.74169 10.3343ZM10.9081 10.3343C10.5653 10.3343 10.3545 10.5399 10.3545 10.8903L10.3545 11.8702C10.3545 12.2183 10.5653 12.4141 10.9081 12.4141L11.8783 12.4141C12.2212 12.4141 12.4269 12.2183 12.4269 11.8702L12.4269 10.8903C12.4269 10.5399 12.2212 10.3343 11.8783 10.3343ZM14.0396 10.3343C13.6916 10.3343 13.4934 10.5399 13.4934 10.8903L13.4934 11.8702C13.4934 12.2183 13.6916 12.4141 14.0396 12.4141L15.0047 12.4141C15.355 12.4141 15.5658 12.2183 15.5658 11.8702L15.5658 10.8903C15.5658 10.5399 15.355 10.3343 15.0047 10.3343ZM17.1711 10.3343C16.8208 10.3343 16.6175 10.5399 16.6175 10.8903L16.6175 11.8702C16.6175 12.2183 16.8208 12.4141 17.1711 12.4141L18.1413 12.4141C18.4917 12.4141 18.6898 12.2183 18.6898 11.8702L18.6898 10.8903C18.6898 10.5399 18.4917 10.3343 18.1413 10.3343ZM7.7715 7.09712C7.42861 7.09712 7.22299 7.29298 7.22299 7.64333L7.22299 8.62099C7.22299 8.97134 7.42861 9.17696 7.7715 9.17696L8.74169 9.17696C9.0995 9.17696 9.29536 8.97134 9.29536 8.62099L9.29536 7.64333C9.29536 7.29298 9.0995 7.09712 8.74169 7.09712ZM10.9081 7.09712C10.5653 7.09712 10.3545 7.29298 10.3545 7.64333L10.3545 8.62099C10.3545 8.97134 10.5653 9.17696 10.9081 9.17696L11.8783 9.17696C12.2212 9.17696 12.4269 8.97134 12.4269 8.62099L12.4269 7.64333C12.4269 7.29298 12.2212 7.09712 11.8783 7.09712ZM14.0396 7.09712C13.6916 7.09712 13.4934 7.29298 13.4934 7.64333L13.4934 8.62099C13.4934 8.97134 13.6916 9.17696 14.0396 9.17696L15.0047 9.17696C15.355 9.17696 15.5658 8.97134 15.5658 8.62099L15.5658 7.64333C15.5658 7.29298 15.355 7.09712 15.0047 7.09712ZM17.1711 7.09712C16.8208 7.09712 16.6175 7.29298 16.6175 7.64333L16.6175 8.62099C16.6175 8.97134 16.8208 9.17696 17.1711 9.17696L18.1413 9.17696C18.4917 9.17696 18.6898 8.97134 18.6898 8.62099L18.6898 7.64333C18.6898 7.29298 18.4917 7.09712 18.1413 7.09712Z"
                     fill="currentColor" fill-opacity="0.85" />
              <path d="M10.371 18.927L15.5441 18.927C16.0886 18.927 16.5325 18.4831 16.5325 17.9288C16.5325 17.3867 16.0886 16.9428 15.5441 16.9428L10.371 16.9428C9.81676 16.9428 9.37282 17.3867 9.37282 17.9288C9.37282 18.4831 9.81676 18.927 10.371 18.927ZM20.1001 19.7679L20.1001 16.1019C20.1001 14.236 19.2192 13.3787 17.3672 13.3787L8.50077 13.3787C6.65106 13.3787 5.77755 14.236 5.77755 16.1019L5.77755 19.7679C5.77755 21.6412 6.65106 22.4985 8.50077 22.4985L17.3672 22.4985C19.2192 22.4985 20.1001 21.6412 20.1001 19.7679ZM8.18772 19.6533L8.18772 16.2165C8.18772 15.9055 8.3521 15.7486 8.66078 15.7486L17.2192 15.7486C17.5204 15.7486 17.6825 15.9055 17.6825 16.2165L17.6825 19.6533C17.6825 19.9643 17.5204 20.1287 17.2192 20.1287L8.66078 20.1287C8.3521 20.1287 8.18772 19.9643 8.18772 19.6533Z"
                     fill="currentColor" fill-opacity="0.85" />
       </g>
</svg>