<?xml version="1.0" encoding="UTF-8"?>
<!--Generator: Apple Native CoreSVG 326-->
<!DOCTYPE svg PUBLIC "-//W3C//DTD SVG 1.1//EN" "http://www.w3.org/Graphics/SVG/1.1/DTD/svg11.dtd">
<svg version="1.1" xmlns="http://www.w3.org/2000/svg" xmlns:xlink="http://www.w3.org/1999/xlink"
       viewBox="0 0 25.7563 19.8328">
       <g>
              <rect height="19.8328" opacity="0" width="25.7563" x="0" y="0" />
              <path d="M0 1.53478C0 2.36735 0.679834 3.03972 1.5124 3.03972L23.8825 3.03972C24.7151 3.03972 25.3949 2.36735 25.3949 1.53478C25.3949 0.702216 24.7151 0.0200772 23.8825 0.0200772L1.5124 0.0200772C0.679834 0.0200772 0 0.702216 0 1.53478ZM3.99887 11.3436L16.4067 11.3436L16.4067 13.891C16.4067 15.1439 17.9473 15.7491 18.8356 14.8338L22.4756 11.118C23.4897 10.1017 22.9012 8.48172 21.4058 8.48172L9.00543 8.48172L9.00543 5.94181C9.00543 4.6889 7.45736 4.09113 6.56905 4.99897L2.93139 8.71476C1.91503 9.73111 2.496 11.3436 3.99887 11.3436ZM0 18.3255C0 19.1581 0.679834 19.8328 1.5124 19.8328L23.8825 19.8328C24.7151 19.8328 25.3949 19.1581 25.3949 18.3255C25.3949 17.493 24.7151 16.8131 23.8825 16.8131L1.5124 16.8131C0.679834 16.8131 0 17.493 0 18.3255Z"
                     fill="currentColor" fill-opacity="0.85" />
       </g>
</svg>