<?xml version="1.0" encoding="UTF-8"?>
<!--Generator: Apple Native CoreSVG 326-->
<!DOCTYPE svg PUBLIC "-//W3C//DTD SVG 1.1//EN" "http://www.w3.org/Graphics/SVG/1.1/DTD/svg11.dtd">
<svg version="1.1" xmlns="http://www.w3.org/2000/svg" xmlns:xlink="http://www.w3.org/1999/xlink"
       viewBox="0 0 23.3143 21.6677">
       <g>
              <rect height="21.6677" opacity="0" width="23.3143" x="0" y="0" />
              <path d="M15.3181 4.77491C16.634 4.77491 17.7081 3.70827 17.7081 2.39234C17.7081 1.0764 16.634 0 15.3181 0C14.0021 0 12.9332 1.0764 12.9332 2.39234C12.9332 3.70827 14.0021 4.77491 15.3181 4.77491ZM7.05979 18.5602C7.62323 18.9105 8.41412 18.7342 8.77424 18.1684L11.2363 14.2238L13.5676 14.3554L12.0114 16.821C11.6317 17.4212 11.8058 18.2247 12.4157 18.5602C13.0085 18.903 13.7528 18.7439 14.1204 18.161L16.7541 13.9389C17.2538 13.1383 16.8374 12.0798 15.7306 11.9672L11.2691 11.4738C10.9559 11.4399 10.8496 11.1571 11.0197 10.914L12.832 8.19063C12.917 8.05962 13.0797 8.02055 13.2181 8.10329L19.924 12.1415C20.4995 12.4844 21.3105 12.3006 21.6213 11.7251C21.9618 11.1152 21.793 10.3633 21.1928 10.0032L7.87756 2.01924C7.62201 1.85674 7.43877 1.81022 7.10632 1.81022L2.9003 1.81022C2.20476 1.81022 1.64879 2.35643 1.64879 3.0399C1.64879 3.72568 2.20476 4.28165 2.9003 4.28165L6.83573 4.28165L8.60046 5.34841C8.75847 5.43345 8.79983 5.60068 8.71249 5.73631L6.42108 9.16107C5.15277 11.0578 6.11671 13.5847 8.40011 14.0371L6.65315 16.821C6.28327 17.4212 6.44984 18.1903 7.05979 18.5602ZM3.33515 21.6384L19.6178 21.6384C20.7936 21.6384 21.824 21.384 22.5995 20.7062C23.0715 20.3203 23.0095 19.8213 22.7689 19.4871C22.5059 19.1357 21.9775 18.9881 21.5107 19.3567C20.9908 19.7543 20.5358 19.9128 19.6178 19.9128L3.33515 19.9128C2.4321 19.9128 1.96214 19.7543 1.44971 19.3567C1.00984 19.0225 0.535506 19.1161 0.240353 19.3987C-0.0565583 19.7254-0.140385 20.2836 0.351172 20.7062C1.1289 21.384 2.15933 21.6384 3.33515 21.6384Z"
                     fill="currentColor" fill-opacity="0.85" />
       </g>
</svg>