<?xml version="1.0" encoding="UTF-8"?>
<!--Generator: Apple Native CoreSVG 326-->
<!DOCTYPE svg PUBLIC "-//W3C//DTD SVG 1.1//EN" "http://www.w3.org/Graphics/SVG/1.1/DTD/svg11.dtd">
<svg version="1.1" xmlns="http://www.w3.org/2000/svg" xmlns:xlink="http://www.w3.org/1999/xlink"
       viewBox="0 0 12.8298 23.4653">
       <g>
              <rect height="23.4653" opacity="0" width="12.8298" x="0" y="0" />
              <path d="M6.23424 4.7726C7.55018 4.7726 8.62428 3.70596 8.62428 2.39003C8.62428 1.0741 7.55018 0 6.23424 0C4.92062 0 3.84652 1.0741 3.84652 2.39003C3.84652 3.70596 4.92062 4.7726 6.23424 4.7726ZM4.81319 23.3871C5.44729 23.3871 5.9642 22.8776 5.9642 22.2384L5.9642 17.9743C5.9642 17.8135 6.08085 17.6871 6.23424 17.6871C6.38018 17.6871 6.50659 17.8135 6.50659 17.9743L6.50659 22.2384C6.50659 22.8776 7.0235 23.3871 7.64783 23.3871C8.27963 23.3871 8.79138 22.8851 8.79138 22.2384L8.79138 17.9743L9.92323 17.9743C10.5275 17.9743 10.7865 17.4631 10.6033 16.8686L8.4992 10.1872C8.3378 9.6835 9.02248 9.46811 9.19365 10.0063L10.547 14.2598C10.9698 15.5724 12.8234 15.0668 12.4081 13.7394L11.0936 9.61993C10.282 7.05642 9.35524 5.79866 6.89904 5.79866L5.5643 5.79866C3.11555 5.79866 2.18648 7.05642 1.37484 9.61993L0.0604278 13.7394C-0.354884 15.0668 1.49124 15.5724 1.92148 14.2598L3.27484 10.0063C3.44601 9.46811 4.133 9.6835 3.96929 10.1872L1.86519 16.8686C1.68425 17.4631 1.94101 17.9743 2.5378 17.9743L3.67195 17.9743L3.67195 22.2384C3.67195 22.8851 4.18886 23.3871 4.81319 23.3871Z"
                     fill="currentColor" fill-opacity="0.85" />
       </g>
</svg>