<?xml version="1.0" encoding="UTF-8"?>
<!--Generator: Apple Native CoreSVG 326-->
<!DOCTYPE svg PUBLIC "-//W3C//DTD SVG 1.1//EN" "http://www.w3.org/Graphics/SVG/1.1/DTD/svg11.dtd">
<svg version="1.1" xmlns="http://www.w3.org/2000/svg" xmlns:xlink="http://www.w3.org/1999/xlink"
       viewBox="0 0 21.365 21.006">
       <g>
              <rect height="21.006" opacity="0" width="21.365" x="0" y="0" />
              <path d="M10.4981 20.9962C16.302 20.9962 21.0037 16.2946 21.0037 10.4981C21.0037 4.70163 16.302 0 10.4981 0C4.70163 0 0 4.70163 0 10.4981C0 16.2946 4.70163 20.9962 10.4981 20.9962ZM10.4981 17.9484C6.37829 17.9484 3.04785 14.6179 3.04785 10.4981C3.04785 6.37829 6.37829 3.04785 10.4981 3.04785C14.6179 3.04785 17.9558 6.37829 17.9558 10.4981C17.9558 14.6179 14.6179 17.9484 10.4981 17.9484Z"
                     fill="currentColor" fill-opacity="0.85" />
              <path d="M14.3867 8.79568C14.9743 8.83025 15.4741 8.38576 15.5064 7.79588C15.5409 7.22092 15.0941 6.7085 14.5089 6.67393C13.9241 6.64166 13.4192 7.09876 13.3869 7.67372C13.3523 8.26591 13.802 8.76341 14.3867 8.79568ZM9.99545 12.7633L11.7288 14.0244L10.7136 16.045C10.5769 16.3236 10.6941 16.6706 10.975 16.8096C11.2415 16.9417 11.5885 16.851 11.7298 16.558L12.9455 14.1169C13.0403 13.925 13.0483 13.6389 12.8357 13.4356L12.0565 12.7001L13.4166 12.7001C13.7441 12.7001 13.9957 12.456 13.9957 12.1383L13.9957 10.1821C13.9957 9.33357 13.3028 8.62869 12.4423 8.62869L10.7513 8.62869L11.026 7.63927C11.1139 7.33884 10.9502 7.02118 10.6497 6.94075C10.3493 6.8454 10.0414 7.02118 9.95354 7.32677L9.45889 9.03424C9.35377 9.40302 9.591 9.75744 9.97932 9.75744L11.3999 9.75744C11.4194 9.75744 11.4464 9.7965 11.4096 9.81373L10.1833 10.439C9.2785 10.8951 9.15154 12.1486 9.99545 12.7633ZM12.0681 11.6357L12.8387 11.265C12.8801 11.2529 12.9237 11.2673 12.9237 11.3184L12.9237 11.6357ZM9.23428 12.669L8.86252 13.7666L6.45181 13.7666C6.13184 13.7666 5.8877 14.0279 5.8877 14.333C5.8877 14.6506 6.13184 14.9171 6.45181 14.9171L9.2583 14.9171C9.47314 14.9171 9.68338 14.785 9.78103 14.5897L10.2936 13.5819L9.69733 13.1591C9.46811 12.9833 9.30955 12.815 9.23428 12.669ZM10.2465 6.41329L10.733 6.41329C11.0329 6.05997 11.4115 5.42059 11.4115 4.98114C11.4115 4.44403 11.0255 4.05571 10.4958 4.05571C9.94893 4.05571 9.56291 4.44403 9.56291 4.98114C9.56291 5.46196 9.93916 6.10133 10.2465 6.41329ZM10.0817 11.4897L10.895 11.4897L10.895 6.06185L10.0817 6.06185Z"
                     fill="currentColor" fill-opacity="0.85" />
       </g>
</svg>