<?xml version="1.0" encoding="UTF-8"?>
<!--Generator: Apple Native CoreSVG 326-->
<!DOCTYPE svg PUBLIC "-//W3C//DTD SVG 1.1//EN" "http://www.w3.org/Graphics/SVG/1.1/DTD/svg11.dtd">
<svg version="1.1" xmlns="http://www.w3.org/2000/svg" xmlns:xlink="http://www.w3.org/1999/xlink"
       viewBox="0 0 27.7656 21.6659">
       <g>
              <rect height="21.6659" opacity="0" width="27.7656" x="0" y="0" />
              <path d="M18.6863 4.77494C20.0022 4.76803 21.0643 3.68471 21.0574 2.36877C21.0407 1.05284 19.9597-0.00688109 18.6437 3.36475e-05C17.3278 0.016714 16.2681 1.09542 16.275 2.41136C16.2894 3.72729 17.3704 4.78932 18.6863 4.77494ZM9.19928 6.42751L15.1237 11.9659C15.6136 12.4191 16.3804 12.3823 16.8335 11.8947C17.2694 11.4145 17.235 10.6552 16.7623 10.2193L14.8413 8.41036L15.6732 8.00075C15.7967 7.93294 15.9146 7.95938 16.0042 8.04673L17.9302 9.93532L17.9302 14.0098C17.9302 14.6588 18.4741 15.1929 19.1232 15.1929C19.7796 15.1929 20.3235 14.6588 20.3235 14.0098L20.3235 9.36442C20.3235 9.02153 20.1248 8.70794 19.8089 8.39435L15.4003 4.0996C14.5421 3.25526 13.2893 3.09276 12.0171 3.55339L9.59439 4.42878C8.83225 4.70045 8.42046 5.69291 9.19928 6.42751ZM8.34937 6.7354L8.03323 6.89693C6.10273 7.87052 5.68171 10.4924 7.576 11.9008L11.3827 14.7444L9.22791 18.8946C8.92694 19.4828 9.16471 20.203 9.75283 20.5212C10.2158 20.7659 11.0072 20.6728 11.3622 19.9819L13.9621 14.9448C14.197 14.4819 14.1384 13.938 13.776 13.5486L10.828 10.3685L11.6388 9.94902L8.81229 7.31837C8.6262 7.14204 8.46195 6.94618 8.34937 6.7354ZM1.19292 16.5726L6.30932 16.5726C6.78202 16.5726 7.18635 16.2688 7.37014 15.8966L8.34967 13.9278L6.88562 12.8318C6.58925 12.6216 6.3371 12.3741 6.12632 12.1173L5.44722 14.1718L1.19292 14.1718C0.536442 14.1718 0 14.7037 0 15.3797C0 16.0362 0.536442 16.5726 1.19292 16.5726ZM25.4009 19.8673C26.6059 19.8604 27.4186 18.9805 27.4042 17.8295C27.4019 17.1238 26.8679 16.6625 26.3423 16.6671C25.9403 16.6694 25.5963 16.9439 25.6061 17.4625L25.6084 17.7801C25.6107 18.1036 25.2636 18.2261 24.9878 17.9744L13.1006 7.47662L12.0175 8.32653L23.6479 19.1821C24.1522 19.6496 24.7742 19.8696 25.4009 19.8673ZM20.1835 21.663C21.0773 21.663 21.8119 20.9479 21.8119 20.0617C21.8119 19.168 21.0773 18.4259 20.1835 18.4259C19.2973 18.4259 18.5822 19.168 18.5822 20.0617C18.5822 20.9479 19.2973 21.663 20.1835 21.663Z"
                     fill="currentColor" fill-opacity="0.85" />
       </g>
</svg>