<?xml version="1.0" encoding="UTF-8"?>
<!--Generator: Apple Native CoreSVG 326-->
<!DOCTYPE svg PUBLIC "-//W3C//DTD SVG 1.1//EN" "http://www.w3.org/Graphics/SVG/1.1/DTD/svg11.dtd">
<svg version="1.1" xmlns="http://www.w3.org/2000/svg" xmlns:xlink="http://www.w3.org/1999/xlink"
       viewBox="0 0 21.365 21.006">
       <g>
              <rect height="21.006" opacity="0" width="21.365" x="0" y="0" />
              <path d="M21.0037 10.4981C21.0037 16.2923 16.302 20.9962 10.4981 20.9962C4.70394 20.9962 0 16.2923 0 10.4981C0 4.70163 4.70394 0 10.4981 0C16.302 0 21.0037 4.70163 21.0037 10.4981ZM7.39986 7.6722C7.00462 7.6722 6.73119 7.76986 6.46521 8.03869L5.08067 9.42553C4.87275 9.62369 4.84575 9.91436 4.98532 10.159L5.95279 11.8527L5.95279 14.616C5.95279 14.9412 6.22392 15.2198 6.54673 15.2198C6.88392 15.2198 7.16021 14.9412 7.16021 14.616L7.16021 12.3317L10.0517 12.546L11.8333 13.5698L14.7719 15.1416C15.1263 15.3323 15.4784 15.1485 15.603 14.9021C15.7547 14.6011 15.6346 14.2323 15.3537 14.0807L12.3761 12.4675L10.4211 11.1071C10.3021 11.0272 10.1929 10.9353 10.0958 10.8335C10.2659 10.6744 10.3389 10.4429 10.2728 10.216L9.89998 8.66084C9.75865 8.07775 9.21924 7.6722 8.61377 7.6722ZM7.6585 10.8181L7.18962 11.0778L6.90345 11.0778L6.2611 9.96088L7.03623 9.18345ZM6.91795 5.96771C6.91795 6.62892 7.46482 7.17349 8.11627 7.17349C8.78033 7.17349 9.31974 6.62892 9.31974 5.96771C9.31974 5.31857 8.78033 4.77915 8.11627 4.77915C7.46482 4.77915 6.91795 5.31857 6.91795 5.96771Z"
                     fill="currentColor" fill-opacity="0.85" />
       </g>
</svg>