<?xml version="1.0" encoding="UTF-8"?>
<!--Generator: Apple Native CoreSVG 326-->
<!DOCTYPE svg PUBLIC "-//W3C//DTD SVG 1.1//EN" "http://www.w3.org/Graphics/SVG/1.1/DTD/svg11.dtd">
<svg version="1.1" xmlns="http://www.w3.org/2000/svg" xmlns:xlink="http://www.w3.org/1999/xlink"
       viewBox="0 0 21.365 21.006">
       <g>
              <rect height="21.006" opacity="0" width="21.365" x="0" y="0" />
              <path d="M21.0037 10.4981C21.0037 16.2923 16.302 20.9962 10.4981 20.9962C4.70394 20.9962 0 16.2923 0 10.4981C0 4.70163 4.70394 0 10.4981 0C16.302 0 21.0037 4.70163 21.0037 10.4981ZM4.49067 13.8202C4.49067 14.0206 4.65208 14.1746 4.84048 14.1746C5.03348 14.1746 5.19259 14.0206 5.19259 13.8202C5.19259 13.6295 5.03348 13.4681 4.84048 13.4681C4.65208 13.4681 4.49067 13.6295 4.49067 13.8202ZM15.8111 13.8202C15.8111 14.0206 15.9702 14.1746 16.1632 14.1746C16.3516 14.1746 16.5153 14.0206 16.5153 13.8202C16.5153 13.6295 16.3516 13.4681 16.1632 13.4681C15.9702 13.4681 15.8111 13.6295 15.8111 13.8202ZM10.146 13.8202C10.146 14.0206 10.3051 14.1746 10.4981 14.1746C10.6986 14.1746 10.8502 14.0206 10.8502 13.8202C10.8502 13.6295 10.6986 13.4681 10.4981 13.4681C10.3051 13.4681 10.146 13.6295 10.146 13.8202ZM5.4363 13.6421C5.4363 13.8403 5.59771 13.9942 5.79587 13.9942C5.99403 13.9942 6.14798 13.8403 6.14798 13.6421C6.14798 13.4491 5.99403 13.29 5.79587 13.29C5.59771 13.29 5.4363 13.4491 5.4363 13.6421ZM9.17283 13.6421C9.17283 13.8403 9.32447 13.9942 9.52264 13.9942C9.71565 13.9942 9.87475 13.8403 9.87475 13.6421C9.87475 13.4491 9.71565 13.29 9.52264 13.29C9.32447 13.29 9.17283 13.4491 9.17283 13.6421ZM14.858 13.6421C14.858 13.8403 15.0096 13.9942 15.2101 13.9942C15.406 13.9942 15.5697 13.8403 15.5697 13.6421C15.5697 13.4491 15.406 13.29 15.2101 13.29C15.0096 13.29 14.858 13.4491 14.858 13.6421ZM11.1289 13.6421C11.1289 13.8403 11.2903 13.9942 11.481 13.9942C11.6792 13.9942 11.8331 13.8403 11.8331 13.6421C11.8331 13.4491 11.6792 13.29 11.481 13.29C11.2903 13.29 11.1289 13.4491 11.1289 13.6421ZM6.35548 13.2181C6.35548 13.4186 6.50943 13.5725 6.70013 13.5725C6.89829 13.5725 7.05454 13.4186 7.05454 13.2181C7.05454 13.0199 6.89829 12.866 6.70013 12.866C6.50943 12.866 6.35548 13.0199 6.35548 13.2181ZM8.26857 13.2181C8.26857 13.4186 8.42021 13.5725 8.61322 13.5725C8.81369 13.5725 8.96533 13.4186 8.96533 13.2181C8.96533 13.0199 8.81369 12.866 8.61322 12.866C8.42021 12.866 8.26857 13.0199 8.26857 13.2181ZM13.9463 13.2181C13.9463 13.4186 14.1054 13.5725 14.2984 13.5725C14.4943 13.5725 14.6482 13.4186 14.6482 13.2181C14.6482 13.0199 14.4943 12.866 14.2984 12.866C14.1054 12.866 13.9463 13.0199 13.9463 13.2181ZM12.0309 13.2181C12.0309 13.4186 12.1923 13.5725 12.383 13.5725C12.5835 13.5725 12.7351 13.4186 12.7351 13.2181C12.7351 13.0199 12.5835 12.866 12.383 12.866C12.1923 12.866 12.0309 13.0199 12.0309 13.2181ZM7.30572 12.9539C7.30572 13.1446 7.46482 13.306 7.65783 13.306C7.85599 13.306 8.0174 13.1446 8.0174 12.9539C8.0174 12.746 7.85599 12.5943 7.65783 12.5943C7.46482 12.5943 7.30572 12.746 7.30572 12.9539ZM12.9863 12.9539C12.9863 13.1446 13.1425 13.306 13.3458 13.306C13.5389 13.306 13.698 13.1446 13.698 12.9539C13.698 12.746 13.5389 12.5943 13.3458 12.5943C13.1425 12.5943 12.9863 12.746 12.9863 12.9539ZM10.4958 11.7311C9.62478 11.7311 9.18654 10.8952 7.90306 10.8952C6.48759 10.8952 6.19341 11.7311 5.32239 11.7311L4.7686 11.7311C4.53083 11.7311 4.32981 11.9247 4.32981 12.1624C4.32981 12.3928 4.52337 12.5938 4.7686 12.5938L5.32239 12.5938C6.79876 12.5938 7.05388 11.7653 7.90306 11.7653C8.63518 11.7653 9.01713 12.5938 10.4958 12.5938C11.9745 12.5938 12.3639 11.7653 13.0885 11.7653C13.9377 11.7653 14.2003 12.5938 15.6767 12.5938L16.223 12.5938C16.4757 12.5938 16.6618 12.3928 16.6618 12.1624C16.6618 11.9247 16.4682 11.7311 16.223 11.7311L15.6767 11.7311C14.7982 11.7311 14.5115 10.8952 13.0885 10.8952C11.8051 10.8952 11.3766 11.7311 10.4958 11.7311ZM8.72865 7.0267L6.70529 8.4526C6.30435 8.72143 6.35087 9.15913 6.5904 9.3935C6.77365 9.6135 7.11083 9.69909 7.43595 9.47678L9.02678 8.36107L9.85358 9.21487C9.96846 9.30737 9.97022 9.45561 9.83174 9.54296L8.66448 10.2972C9.42892 10.5161 9.8201 11.0227 10.4958 11.0227C11.2635 11.0227 11.666 10.365 12.6769 10.2225L9.68392 7.09737C9.42256 6.83369 9.04631 6.8044 8.72865 7.0267ZM12.1996 8.3601C12.1996 9.02132 12.7442 9.55612 13.398 9.55612C14.062 9.55612 14.6014 9.02132 14.6014 8.3601C14.6014 7.70866 14.062 7.16639 13.398 7.16639C12.7442 7.16639 12.1996 7.70866 12.1996 8.3601Z"
                     fill="currentColor" fill-opacity="0.85" />
       </g>
</svg>