<?xml version="1.0" encoding="UTF-8"?>
<!--Generator: Apple Native CoreSVG 326-->
<!DOCTYPE svg PUBLIC "-//W3C//DTD SVG 1.1//EN" "http://www.w3.org/Graphics/SVG/1.1/DTD/svg11.dtd">
<svg version="1.1" xmlns="http://www.w3.org/2000/svg" xmlns:xlink="http://www.w3.org/1999/xlink"
       viewBox="0 0 30.2049 26.3357">
       <g>
              <rect height="26.3357" opacity="0" width="30.2049" x="0" y="0" />
              <path d="M9.2063 5.78768C10.8152 5.78768 12.1116 4.46483 12.1116 2.91968C12.1116 1.29816 10.8152 0 9.2063 0C7.60486 0 6.3383 1.29816 6.3383 2.91968C6.3383 4.47175 7.60486 5.78768 9.2063 5.78768ZM3.626 16.4613L11.7637 7.42873C11.0066 7.17768 10.1713 7.04326 9.2063 7.04326C5.48475 7.04326 3.26928 8.85033 3.26928 11.8504C3.26928 12.5644 3.30835 13.5352 3.42608 14.5352ZM14.7814 16.4636L14.994 14.5352C15.114 13.5352 15.1456 12.5644 15.1456 11.8504C15.1456 10.4184 14.6522 9.25521 13.7147 8.44357L7.47239 15.4114C8.05208 15.3315 8.63407 15.3022 9.2063 15.3022C11.0524 15.3022 12.8986 15.5469 14.7814 16.4636ZM6.15955 26.245C7.00442 26.1324 7.5604 25.5224 7.45013 24.4817L6.95669 19.8387L11.4657 19.8387L10.9722 24.4817C10.8694 25.5224 11.4179 26.1324 12.2605 26.245C13.1324 26.3306 13.7935 25.7993 13.9037 24.7706L14.5391 18.7735C12.8543 17.7953 10.9961 17.4312 9.2063 17.4312C7.42623 17.4312 5.56057 17.7953 3.86838 18.7735L4.51862 24.7706C4.62143 25.7993 5.28252 26.3306 6.15955 26.245ZM13.7147 8.44126L16.1071 5.78228C16.6097 5.21369 16.5804 4.60088 16.0727 4.16671C15.6092 3.7796 15.0234 3.77214 14.5065 4.3505L11.7637 7.42873C12.5017 7.67111 13.1587 8.02892 13.7147 8.44126ZM0.301018 20.275C0.75703 20.7632 1.36984 20.731 1.90683 20.2067C2.51339 19.6219 3.12741 19.1452 3.86838 18.7735L3.626 16.4613C2.43363 17.0196 1.41297 17.783 0.40383 18.7134C-0.113627 19.1964-0.118237 19.8414 0.301018 20.275ZM18.1064 20.275C18.5257 19.8437 18.5211 19.1987 18.0134 18.7157C17.0019 17.783 15.9738 17.0219 14.7814 16.4636L14.5391 18.7735C15.28 19.1452 15.9015 19.6219 16.5081 20.2067C17.0451 20.731 17.6504 20.7632 18.1064 20.275Z"
                     fill="currentColor" fill-opacity="0.85" />
              <path d="M24.1836 13.2387C27.3553 13.2387 29.8417 10.6275 29.8417 7.57819C29.8417 4.38925 27.3478 1.84188 24.1836 1.84188C21.0245 1.84188 18.4645 4.38925 18.4645 7.57819C18.4645 10.6275 21.0245 13.2387 24.1836 13.2387Z"
                     fill="currentColor" fill-opacity="0.85" />
       </g>
</svg>