<?xml version="1.0" encoding="UTF-8"?>
<!--Generator: Apple Native CoreSVG 326-->
<!DOCTYPE svg PUBLIC "-//W3C//DTD SVG 1.1//EN" "http://www.w3.org/Graphics/SVG/1.1/DTD/svg11.dtd">
<svg version="1.1" xmlns="http://www.w3.org/2000/svg" xmlns:xlink="http://www.w3.org/1999/xlink"
       viewBox="0 0 21.365 21.006">
       <g>
              <rect height="21.006" opacity="0" width="21.365" x="0" y="0" />
              <path d="M21.0037 10.4981C21.0037 16.2923 16.302 20.9962 10.4981 20.9962C4.70394 20.9962 0 16.2923 0 10.4981C0 4.70163 4.70394 0 10.4981 0C16.302 0 21.0037 4.70163 21.0037 10.4981ZM9.04655 7.39416L5.87248 8.05482C4.66209 8.29381 4.35013 9.73111 5.20896 10.5221L7.07389 12.2353L7.07389 14.9136C7.07389 15.2508 7.35249 15.5443 7.69713 15.5443C8.03202 15.5443 8.32784 15.2508 8.32784 14.9136L8.32784 11.9958C8.32784 11.7884 8.27155 11.6609 8.14229 11.5121L6.77771 10.0631C6.7122 9.99018 6.73865 9.89822 6.82138 9.88846L8.85233 9.50869C8.97479 9.46963 9.0403 9.53052 9.0403 9.64092L9.0403 10.8721C9.0403 11.2167 9.31659 11.4953 9.66124 11.4953L12.0793 11.4953C12.4314 11.4953 12.7025 11.2167 12.7025 10.8721C12.7025 10.5222 12.4314 10.266 12.0793 10.266L10.2868 10.266L10.2868 8.41494C10.2868 7.71412 9.69854 7.25744 9.04655 7.39416ZM5.96783 13.254L4.94881 13.254C4.70643 13.254 4.50541 13.435 4.50541 13.7072C4.50541 13.93 4.70873 14.1431 4.94881 14.1431L5.96783 14.1431C6.16842 14.1431 6.3667 14.131 6.55807 14.1195L6.55807 13.2281C6.35924 13.2396 6.17818 13.254 5.96783 13.254ZM14.9483 7.85205C13.1036 7.85205 11.9575 8.33178 10.7235 9.73299L11.89 9.73299C11.9417 9.73299 11.9807 9.73299 12.0054 9.73299C12.8448 9.00779 13.694 8.74345 14.9483 8.74345L15.7501 8.74345L15.7501 12.9493L14.9627 12.9493C14.8271 12.9493 14.7426 12.9062 14.6966 12.7797L14.2186 11.8462C14.0986 11.6084 13.8585 11.5694 13.6673 11.6308C13.4496 11.7215 13.2807 11.9639 13.418 12.2454L13.8982 13.1864C14.101 13.5845 14.5209 13.8458 14.9627 13.8458L16.0568 13.8458C16.3893 13.8458 16.6242 13.6035 16.6242 13.2732L16.6242 8.4247C16.6242 8.1042 16.3893 7.85205 16.0614 7.85205ZM8.85112 12.115L8.85112 13.3084C9.36936 12.9505 9.7612 12.5081 10.1438 12.0111L9.66354 12.0111C9.44937 12.0111 9.29026 11.9669 9.10593 11.8607C9.02253 11.9705 8.92421 12.0516 8.85112 12.115ZM10.1387 6.64044C10.1387 7.30912 10.6706 7.84623 11.3393 7.84623C11.9959 7.84623 12.5405 7.30912 12.5405 6.64044C12.5405 5.9913 11.9959 5.45189 11.3393 5.45189C10.6706 5.45189 10.1387 5.9913 10.1387 6.64044Z"
                     fill="currentColor" fill-opacity="0.85" />
       </g>
</svg>