<?xml version="1.0" encoding="UTF-8"?>
<!--Generator: Apple Native CoreSVG 326-->
<!DOCTYPE svg PUBLIC "-//W3C//DTD SVG 1.1//EN" "http://www.w3.org/Graphics/SVG/1.1/DTD/svg11.dtd">
<svg version="1.1" xmlns="http://www.w3.org/2000/svg" xmlns:xlink="http://www.w3.org/1999/xlink"
       viewBox="0 0 21.365 21.006">
       <g>
              <rect height="21.006" opacity="0" width="21.365" x="0" y="0" />
              <path d="M21.0037 10.4981C21.0037 16.2923 16.302 20.9962 10.4981 20.9962C4.70394 20.9962 0 16.2923 0 10.4981C0 4.70163 4.70394 0 10.4981 0C16.302 0 21.0037 4.70163 21.0037 10.4981ZM11.0474 5.9113L10.5579 7.6067L6.14282 9.54623C5.8131 9.68526 5.68845 9.95408 5.73958 10.3154L6.05154 12.182C6.18364 12.9563 7.24864 12.8001 7.13146 12.0355L6.87064 10.4671L7.88353 10.0752C8.01224 10.0315 8.12603 10.066 8.17201 10.1798L9.13947 12.0826C9.44912 12.68 9.69272 12.8604 9.93916 13.0333L13.0828 15.3434C13.7055 15.7955 14.4431 14.8942 13.7498 14.3812L11.303 12.5876C11.2282 12.5325 11.2282 12.4164 11.3248 12.3755L12.957 11.4402L15.1131 12.4634C15.8019 12.8006 16.366 11.8011 15.5503 11.4105L13.223 10.3069C12.9328 10.1701 12.6473 10.1966 12.3785 10.358L11.2795 10.9865C11.1829 11.052 11.1128 11.0353 11.0668 10.9532L10.1896 9.15955C10.1315 9.02853 10.151 8.89521 10.2792 8.83947L11.0858 8.47177C11.3713 8.33505 11.4787 8.23224 11.5592 7.96396L12.071 6.1922C12.291 5.44024 11.2599 5.15649 11.0474 5.9113ZM6.58416 6.92419C6.58416 7.58771 7.11841 8.14435 7.78939 8.14435C8.45291 8.14435 8.99463 7.58771 8.99463 6.92419C8.99463 6.26814 8.45291 5.71896 7.78939 5.71896C7.11841 5.71896 6.58416 6.26814 6.58416 6.92419Z"
                     fill="currentColor" fill-opacity="0.85" />
       </g>
</svg>