<?xml version="1.0" encoding="UTF-8"?>
<!--Generator: Apple Native CoreSVG 326-->
<!DOCTYPE svg PUBLIC "-//W3C//DTD SVG 1.1//EN" "http://www.w3.org/Graphics/SVG/1.1/DTD/svg11.dtd">
<svg version="1.1" xmlns="http://www.w3.org/2000/svg" xmlns:xlink="http://www.w3.org/1999/xlink"
       viewBox="0 0 21.365 21.006">
       <g>
              <rect height="21.006" opacity="0" width="21.365" x="0" y="0" />
              <path d="M10.4981 20.9962C16.302 20.9962 21.0037 16.2946 21.0037 10.4981C21.0037 4.70163 16.302 0 10.4981 0C4.70163 0 0 4.70163 0 10.4981C0 16.2946 4.70163 20.9962 10.4981 20.9962ZM10.4981 17.9484C6.37829 17.9484 3.04785 14.6179 3.04785 10.4981C3.04785 6.37829 6.37829 3.04785 10.4981 3.04785C14.6179 3.04785 17.9558 6.37829 17.9558 10.4981C17.9558 14.6179 14.6179 17.9484 10.4981 17.9484Z"
                     fill="currentColor" fill-opacity="0.85" />
              <path d="M11.6955 6.65239C12.3148 6.65239 12.8174 6.15489 12.8174 5.53044C12.8174 4.91345 12.3148 4.41079 11.6955 4.41079C11.0808 4.41079 10.5758 4.91345 10.5758 5.53044C10.5758 6.15489 11.0808 6.65239 11.6955 6.65239ZM6.84201 10.2751C7.17919 10.4239 7.48939 10.2774 7.60888 10.0161L8.47584 8.28732L9.44627 8.28732C9.53077 8.28732 9.56413 8.35459 9.52792 8.41724L8.62705 10.2241C8.25135 10.9485 8.70002 11.8832 9.66858 11.8223L12.0242 11.6712L11.1653 13.5982C11.0309 13.8987 11.163 14.2675 11.4536 14.3726C11.7759 14.4995 12.074 14.4019 12.2182 14.0819L13.4971 11.2657C13.6631 10.9089 13.4385 10.4402 12.9841 10.4402L10.8428 10.4402L11.7718 8.59181C11.8057 8.52169 11.8684 8.51193 11.9241 8.5579L13.0657 9.65353C13.3443 9.92236 13.8228 9.87584 14.0061 9.50705L15.0195 7.45087C15.1586 7.16767 15.0684 6.81325 14.7656 6.66907C14.475 6.53236 14.1303 6.64724 13.9741 6.9379L13.3173 8.24904L12.8146 7.74627C12.3975 7.34412 11.9735 7.12466 11.3128 7.12466L8.11681 7.12466C7.89451 7.12466 7.7015 7.25162 7.60154 7.45439L6.56341 9.48588C6.41923 9.78401 6.53927 10.1287 6.84201 10.2751ZM5.85907 14.9908C6.04232 15.3768 6.43064 15.3768 6.63857 15.2912L8.73611 14.3749C8.86076 14.3261 8.96588 14.2284 9.02447 14.1014L9.90241 12.3381L9.68811 12.3479C9.22627 12.3772 8.82412 12.2428 8.54783 12.0084L8.0376 13.4029L6.1572 14.2067C5.84415 14.3388 5.71028 14.6806 5.85907 14.9908ZM14.0468 15.7077C14.6787 15.7077 15.1837 15.2051 15.1837 14.5806C15.1837 13.9464 14.6787 13.4489 14.0468 13.4489C13.4223 13.4489 12.9271 13.9464 12.9271 14.5806C12.9271 15.2051 13.4223 15.7077 14.0468 15.7077Z"
                     fill="currentColor" fill-opacity="0.85" />
       </g>
</svg>