<?xml version="1.0" encoding="UTF-8"?>
<!--Generator: Apple Native CoreSVG 326-->
<!DOCTYPE svg PUBLIC "-//W3C//DTD SVG 1.1//EN" "http://www.w3.org/Graphics/SVG/1.1/DTD/svg11.dtd">
<svg version="1.1" xmlns="http://www.w3.org/2000/svg" xmlns:xlink="http://www.w3.org/1999/xlink"
       viewBox="0 0 21.365 21.006">
       <g>
              <rect height="21.006" opacity="0" width="21.365" x="0" y="0" />
              <path d="M21.0037 10.4981C21.0037 16.2923 16.302 20.9962 10.4981 20.9962C4.70394 20.9962 0 16.2923 0 10.4981C0 4.70163 4.70394 0 10.4981 0C16.302 0 21.0037 4.70163 21.0037 10.4981ZM14.0755 7.13673C14.0755 7.87049 14.5572 8.60722 14.997 9.2842L14.997 9.86741C14.9557 9.8651 14.912 9.8651 14.8706 9.8651L13.0966 9.8651L10.9008 7.67912C10.6101 7.40338 10.2442 7.24943 9.84897 7.24943L5.48052 7.24943C5.1531 7.24943 4.87681 7.52342 4.87681 7.85084C4.87681 8.18572 5.1531 8.45455 5.48052 8.45455L8.46304 8.45455C8.53655 8.45455 8.54862 8.52236 8.49233 8.56142L7.77853 8.9074C7.23451 9.18315 6.95131 9.70303 6.95131 10.2155C6.95131 10.6693 7.16615 11.111 7.56885 11.4161L9.43487 12.7828L8.35822 14.9338C8.14053 15.3468 8.36799 15.6892 8.67818 15.8041C8.93725 15.8919 9.26982 15.831 9.4433 15.4841L10.7669 12.8512C10.8721 12.6289 10.86 12.3526 10.6423 12.1498L9.1399 10.6325L11.049 9.69029C11.1169 9.65639 11.1669 9.67592 11.2152 9.7242L12.4147 10.9088C12.5273 11.0237 12.6812 11.0823 12.8375 11.0823L15.2462 11.0823C15.5713 11.0823 15.8574 10.8284 15.8574 10.4786L15.8574 9.26412C16.3047 8.61413 16.7789 7.88025 16.7789 7.13673C16.7789 6.35779 16.1924 5.77877 15.4209 5.77877C14.6666 5.77877 14.0755 6.35779 14.0755 7.13673ZM6.35955 12.5003L4.32411 12.5003C3.99669 12.5003 3.72271 12.7766 3.72271 13.1115C3.72271 13.4389 3.99669 13.7226 4.32411 13.7226L6.80185 13.7226C7.03162 13.7226 7.23669 13.5905 7.34697 13.3751L7.8842 12.2961L7.2535 11.8365C6.94846 11.6119 6.8215 11.4367 6.75314 11.3195ZM15.9087 7.13673C15.9087 7.43565 15.6696 7.98495 15.4209 8.39456C15.1773 7.98495 14.948 7.43565 14.948 7.13673C14.948 6.87009 15.1422 6.6638 15.4209 6.6638C15.7071 6.6638 15.9087 6.87009 15.9087 7.13673ZM11.1152 6.58658C11.1152 7.25525 11.6472 7.7849 12.3112 7.7849C12.965 7.7849 13.5021 7.25525 13.5021 6.58658C13.5021 5.92998 12.965 5.39803 12.3112 5.39803C11.6472 5.39803 11.1152 5.92998 11.1152 6.58658Z"
                     fill="currentColor" fill-opacity="0.85" />
       </g>
</svg>