<?xml version="1.0" encoding="UTF-8"?>
<!--Generator: Apple Native CoreSVG 326-->
<!DOCTYPE svg PUBLIC "-//W3C//DTD SVG 1.1//EN" "http://www.w3.org/Graphics/SVG/1.1/DTD/svg11.dtd">
<svg version="1.1" xmlns="http://www.w3.org/2000/svg" xmlns:xlink="http://www.w3.org/1999/xlink"
       viewBox="0 0 21.365 21.006">
       <g>
              <rect height="21.006" opacity="0" width="21.365" x="0" y="0" />
              <path d="M21.0037 10.4981C21.0037 16.2923 16.302 20.9962 10.4981 20.9962C4.70394 20.9962 0 16.2923 0 10.4981C0 4.70163 4.70394 0 10.4981 0C16.302 0 21.0037 4.70163 21.0037 10.4981ZM8.36271 14.002C8.01697 14.002 7.77405 14.2352 7.77405 14.5861L7.77405 15.9151C7.77405 16.2511 8.01697 16.4917 8.36271 16.4917L12.1694 16.4917C12.5254 16.4917 12.7557 16.2511 12.7557 15.9151L12.7557 14.5861C12.7557 14.2352 12.5254 14.002 12.1694 14.002ZM9.57147 6.96514C9.18315 6.96514 8.8149 7.17998 8.58053 7.50455L7.42006 9.10623C6.76576 9.99206 7.34939 11.2248 8.6333 11.037L10.3684 10.7692L9.70655 12.787C9.42565 13.6107 10.5865 13.9577 10.8531 13.173L11.8033 10.2655C11.9452 9.85249 11.6861 9.44924 11.2122 9.44924L9.51384 9.44924L10.3918 8.27428C10.4694 8.17486 10.493 8.16049 10.6073 8.16049L14.4616 8.16049C14.7844 8.16049 15.048 7.90373 15.048 7.56885C15.048 7.24373 14.789 6.96514 14.4616 6.96514ZM9.25787 5.26986C9.25787 5.93392 9.79729 6.47103 10.4539 6.47103C11.103 6.47103 11.6424 5.93392 11.6424 5.26986C11.6424 4.62588 11.103 4.07154 10.4539 4.07154C9.79729 4.07154 9.25787 4.62588 9.25787 5.26986Z"
                     fill="currentColor" fill-opacity="0.85" />
       </g>
</svg>