<?xml version="1.0" encoding="UTF-8"?>
<!--Generator: Apple Native CoreSVG 326-->
<!DOCTYPE svg PUBLIC "-//W3C//DTD SVG 1.1//EN" "http://www.w3.org/Graphics/SVG/1.1/DTD/svg11.dtd">
<svg version="1.1" xmlns="http://www.w3.org/2000/svg" xmlns:xlink="http://www.w3.org/1999/xlink"
       viewBox="0 0 21.365 21.006">
       <g>
              <rect height="21.006" opacity="0" width="21.365" x="0" y="0" />
              <path d="M21.0037 10.4981C21.0037 16.2923 16.302 20.9962 10.4981 20.9962C4.70394 20.9962 0 16.2923 0 10.4981C0 4.70163 4.70394 0 10.4981 0C16.302 0 21.0037 4.70163 21.0037 10.4981ZM5.97978 14.9227C5.79423 15.1864 5.85513 15.5948 6.14349 15.778L8.2078 17.1362C8.491 17.3195 8.87987 17.2241 9.04358 16.9702C9.24405 16.6744 9.17799 16.3125 8.87987 16.1144L7.42442 15.1473L8.27549 14.2858C8.02158 14.1635 7.75276 13.9756 7.53791 13.7068L7.13983 13.2381ZM13.7453 5.70313L11.6409 8.88575C11.4048 9.24368 11.0176 9.40915 10.6062 9.40915C10.1529 9.40915 9.70533 9.21208 9.42037 8.77087L7.37924 5.70313C7.18623 5.40731 6.81228 5.33664 6.51646 5.52735C6.23557 5.71289 6.16205 6.0966 6.34529 6.39012L8.8644 10.1501C8.96151 10.2909 8.99663 10.4287 8.8644 10.6334L8.34439 11.4378L6.86845 10.1566C6.61685 9.95154 6.22568 9.92455 5.97177 10.2031L4.13505 12.0473C3.88575 12.2989 3.88575 12.6803 4.13505 12.9199C4.40618 13.1617 4.76805 13.1376 4.99782 12.9199L6.40431 11.5157L7.94115 13.3645C8.60522 14.1601 9.66166 14.0406 10.2085 13.245L14.7867 6.39012C14.9871 6.0966 14.8941 5.71289 14.6155 5.52735C14.3294 5.33664 13.9457 5.40731 13.7453 5.70313ZM9.40788 7.66681C9.40788 8.33317 9.94729 8.86282 10.6062 8.86282C11.2628 8.86282 11.7948 8.33317 11.7948 7.66681C11.7948 7.0079 11.2628 6.46102 10.6062 6.46102C9.94729 6.46102 9.40788 7.0079 9.40788 7.66681ZM5.47548 5.22255C5.23256 5.22255 5.04361 5.4138 5.04361 5.64927C5.04361 5.87958 5.23256 6.06852 5.47548 6.06852L5.7169 6.06852C5.72205 5.75899 5.85064 5.43509 6.09982 5.22255ZM7.62241 5.22255C7.71369 5.2886 7.77799 5.37759 7.84974 5.45626L8.25869 6.06852L12.8687 6.06852L13.2822 5.45626C13.3488 5.37528 13.4183 5.2863 13.4923 5.22255ZM15.0321 5.22255C15.2739 5.43048 15.4197 5.74692 15.4151 6.06852L15.6564 6.06852C15.8918 6.06852 16.0882 5.87958 16.0882 5.64927C16.0882 5.4138 15.8895 5.22255 15.6564 5.22255Z"
                     fill="currentColor" fill-opacity="0.85" />
       </g>
</svg>