<?xml version="1.0" encoding="UTF-8"?>
<!--Generator: Apple Native CoreSVG 326-->
<!DOCTYPE svg PUBLIC "-//W3C//DTD SVG 1.1//EN" "http://www.w3.org/Graphics/SVG/1.1/DTD/svg11.dtd">
<svg version="1.1" xmlns="http://www.w3.org/2000/svg" xmlns:xlink="http://www.w3.org/1999/xlink"
       viewBox="0 0 21.365 21.006">
       <g>
              <rect height="21.006" opacity="0" width="21.365" x="0" y="0" />
              <path d="M10.4981 20.9962C16.302 20.9962 21.0037 16.2946 21.0037 10.4981C21.0037 4.70163 16.302 0 10.4981 0C4.70163 0 0 4.70163 0 10.4981C0 16.2946 4.70163 20.9962 10.4981 20.9962ZM10.4981 17.9484C6.37829 17.9484 3.04785 14.6179 3.04785 10.4981C3.04785 6.37829 6.37829 3.04785 10.4981 3.04785C14.6179 3.04785 17.9558 6.37829 17.9558 10.4981C17.9558 14.6179 14.6179 17.9484 10.4981 17.9484Z"
                     fill="currentColor" fill-opacity="0.85" />
              <path d="M9.46878 9.0272C10.076 9.0272 10.5884 8.532 10.5884 7.90525C10.5884 7.29056 10.076 6.7879 9.46878 6.7879C8.84432 6.7879 8.34913 7.29056 8.34913 7.90525C8.34913 8.532 8.84432 9.0272 9.46878 9.0272ZM7.48005 16.4073L9.64037 16.4073C9.98217 16.4073 10.1533 16.2339 10.2022 15.9409L10.621 13.679L12.4228 13.679L12.0603 15.7284C11.9868 16.1339 12.2533 16.378 12.544 16.4073C12.81 16.4343 13.1253 16.3022 13.1839 15.9409L13.6688 13.2539C13.7469 12.8363 13.4901 12.5726 13.1851 12.5358L11.508 12.3508L11.6517 10.8087C11.654 10.7432 11.6999 10.6995 11.758 10.6995L13.1191 10.6995C13.4293 10.6995 13.6906 10.4359 13.6906 10.1182L13.6906 7.39962C13.6906 7.16524 13.5464 6.9527 13.3316 6.86712C13.1191 6.77407 12.8772 6.81829 12.706 6.99177L9.98514 9.71037C9.72662 9.97119 9.56807 10.2808 9.53647 10.6761L9.11018 15.2717L7.48005 15.2717C7.16009 15.2717 6.91825 15.5158 6.91825 15.8358C6.91825 16.1534 7.16009 16.4073 7.48005 16.4073ZM12.5848 8.68298L12.5848 9.58396L11.6838 9.58396ZM11.4342 7.06934L12.6693 8.18263L13.0518 7.75591L11.819 6.65009ZM8.74139 5.09238L11.2721 7.37954C11.4628 7.55817 11.7248 7.52887 11.8982 7.34794L12.139 7.09227C12.3199 6.90157 12.2981 6.62759 12.1148 6.47364L9.5594 4.16926C9.37615 4.00039 9.10448 4.01016 8.9333 4.20832L8.70463 4.47606C8.55069 4.66676 8.55069 4.91375 8.74139 5.09238Z"
                     fill="currentColor" fill-opacity="0.85" />
       </g>
</svg>