<?xml version="1.0" encoding="UTF-8"?>
<!--Generator: Apple Native CoreSVG 326-->
<!DOCTYPE svg PUBLIC "-//W3C//DTD SVG 1.1//EN" "http://www.w3.org/Graphics/SVG/1.1/DTD/svg11.dtd">
<svg version="1.1" xmlns="http://www.w3.org/2000/svg" xmlns:xlink="http://www.w3.org/1999/xlink"
       viewBox="0 0 27.6211 24.1872">
       <g>
              <rect height="24.1872" opacity="0" width="27.6211" x="0" y="0" />
              <path d="M23.4085 7.66347L26.102 11.6677C26.1922 11.8067 26.3122 11.9606 26.3852 12.1146C26.6499 12.5603 26.5029 13.2093 25.9079 13.5327C25.4576 13.7848 24.9016 13.7188 24.5489 13.327C24.2778 13.0145 23.0667 11.3019 22.2672 10.1497C22.1919 10.0503 22.0534 10.094 22.0534 10.2204C22.0609 11.4099 22.0999 13.3242 22.266 14.3089C22.4762 15.5818 23.9542 21.7684 24.03 22.032C24.2282 22.7666 23.7652 23.445 23.0209 23.445C22.4873 23.445 22.0927 23.1388 21.8969 22.4438C21.5499 21.1904 20.5314 16.9196 20.1868 15.896C19.9473 15.1779 19.8283 14.9791 19.4951 14.9791C19.1693 14.9791 19.0503 15.1779 18.8108 15.896C18.4638 16.9196 17.4477 21.1904 17.1007 22.4438C16.9049 23.1388 16.5103 23.445 15.9767 23.445C15.2323 23.445 14.7694 22.7666 14.9676 22.032C15.0434 21.7684 16.5191 15.5818 16.7293 14.3089C16.8953 13.3242 16.9367 11.4122 16.9442 10.2227C16.9442 10.094 16.8034 10.0526 16.7304 10.1497C16.3402 10.7131 15.8514 11.409 15.4221 12.0094C15.3926 11.9212 15.3535 11.8357 15.3068 11.7533C15.2138 11.5775 15.0794 11.3942 14.9869 11.2552L14.0806 9.90601L15.5891 7.66347C16.3824 6.48929 17.3859 5.83511 19.4951 5.83511C21.6117 5.83511 22.6129 6.48929 23.4085 7.66347ZM21.8805 2.58328C21.8805 3.89691 20.8087 4.95894 19.4951 4.95894C18.1814 4.95894 17.1171 3.89691 17.1171 2.58328C17.1171 1.26965 18.1814 0.197859 19.4951 0.197859C20.8087 0.197859 21.8805 1.26965 21.8805 2.58328Z"
                     fill="currentColor" fill-opacity="0.85" />
              <path d="M7.76472 4.95894C9.07835 4.95894 10.1427 3.89691 10.1427 2.58328C10.1427 1.26965 9.07835 0.197859 7.76472 0.197859C6.4511 0.197859 5.3793 1.26965 5.3793 2.58328C5.3793 3.89691 6.4511 4.95894 7.76472 4.95894ZM7.76472 14.9791C8.09051 14.9791 8.20945 15.1779 8.44898 15.896C8.79594 16.9196 9.81957 21.1904 10.1591 22.4438C10.3624 23.1388 10.7495 23.445 11.2831 23.445C12.0274 23.445 12.4904 22.7666 12.2922 22.032C12.2164 21.7684 10.7482 15.5818 10.5305 14.3089C10.3644 13.3242 10.3231 11.4099 10.3156 10.2204C10.3156 10.094 10.4541 10.0503 10.5294 10.1497C11.3289 11.3019 12.5423 13.0145 12.8134 13.327C13.1638 13.7188 13.7221 13.7848 14.1724 13.5327C14.7674 13.2093 14.9121 12.5603 14.6548 12.1146C14.5767 11.9606 14.4544 11.8067 14.3642 11.6677L11.6707 7.66347C10.8774 6.48929 9.87386 5.83511 7.76472 5.83511C5.64813 5.83511 4.65204 6.48929 3.85125 7.66347L1.15782 11.6677C1.06763 11.8067 0.952744 11.9606 0.874619 12.1146C0.609855 12.5603 0.756886 13.2093 1.35938 13.5327C1.79993 13.7848 2.36567 13.7188 2.71086 13.327C2.98199 13.0145 4.19305 11.3042 4.99262 10.1497C5.06559 10.0526 5.20637 10.094 5.20637 10.2227C5.19891 11.4122 5.15985 13.3242 5.00129 14.3089C4.78129 15.5818 3.30559 21.7684 3.22977 22.032C3.03161 22.7666 3.49454 23.445 4.24637 23.445C4.7725 23.445 5.16707 23.1388 5.36293 22.4438C5.70988 21.1904 6.72605 16.9196 7.073 15.896C7.31999 15.1779 7.43148 14.9791 7.76472 14.9791Z"
                     fill="currentColor" fill-opacity="0.85" />
       </g>
</svg>