<?xml version="1.0" encoding="UTF-8"?>
<!--Generator: Apple Native CoreSVG 326-->
<!DOCTYPE svg PUBLIC "-//W3C//DTD SVG 1.1//EN" "http://www.w3.org/Graphics/SVG/1.1/DTD/svg11.dtd">
<svg version="1.1" xmlns="http://www.w3.org/2000/svg" xmlns:xlink="http://www.w3.org/1999/xlink"
       viewBox="0 0 21.365 21.006">
       <g>
              <rect height="21.006" opacity="0" width="21.365" x="0" y="0" />
              <path d="M21.0037 10.4981C21.0037 16.2923 16.302 20.9962 10.4981 20.9962C4.70394 20.9962 0 16.2923 0 10.4981C0 4.70163 4.70394 0 10.4981 0C16.302 0 21.0037 4.70163 21.0037 10.4981ZM5.4656 5.48798C5.28697 5.6936 5.28697 5.93368 5.4656 6.13931C5.83615 6.52884 6.39345 6.80919 6.96392 6.86317L6.96392 8.53037C6.96392 8.91177 7.27927 9.15822 7.66298 9.09962L9.40545 8.8388C9.51924 8.82673 9.60889 8.89455 9.60889 9.03533L9.60889 11.0427L8.78045 13.324L6.91564 15.186C6.59799 15.5059 6.6715 15.8948 6.91103 16.1125C7.10634 16.298 7.48544 16.3296 7.77611 16.0464L9.71104 14.1213C9.77994 14.0426 9.78971 14.0254 9.82877 13.9473L10.7991 12.156C10.9255 11.9175 11.2312 11.9129 11.4478 12.0784L13.5896 13.6985L13.5896 15.9086C13.5896 16.3044 13.8314 16.5663 14.2105 16.5663C14.577 16.5663 14.8217 16.3044 14.8217 15.9086L14.8217 13.3981C14.8217 13.2269 14.743 13.0753 14.5868 12.9213L12.1595 10.8376L12.1595 8.61365C12.1595 8.51423 12.2324 8.40451 12.3612 8.39013L15.8221 7.86388C16.1644 7.81505 16.3867 7.49739 16.343 7.17228C16.2793 6.82763 15.9812 6.59786 15.6365 6.65415L8.18857 7.77963L8.18857 6.64087C8.46607 6.51161 8.70967 6.33638 8.90443 6.12438C9.08592 5.93368 9.08592 5.6936 8.90213 5.48798C8.49713 5.03415 7.82439 4.74403 7.17525 4.74403C6.53818 4.74403 5.8729 5.03415 5.4656 5.48798ZM9.76745 5.63337C9.76745 6.29744 10.3069 6.83685 10.956 6.83685C11.6224 6.83685 12.152 6.29744 12.152 5.63337C12.152 4.97677 11.6224 4.43736 10.956 4.43736C10.3069 4.43736 9.76745 4.97677 9.76745 5.63337Z"
                     fill="currentColor" fill-opacity="0.85" />
       </g>
</svg>