<?xml version="1.0" encoding="UTF-8"?>
<!--Generator: Apple Native CoreSVG 326-->
<!DOCTYPE svg PUBLIC "-//W3C//DTD SVG 1.1//EN" "http://www.w3.org/Graphics/SVG/1.1/DTD/svg11.dtd">
<svg version="1.1" xmlns="http://www.w3.org/2000/svg" xmlns:xlink="http://www.w3.org/1999/xlink"
       viewBox="0 0 18.9642 25.0748">
       <g>
              <rect height="25.0748" opacity="0" width="18.9642" x="0" y="0" />
              <path d="M7.48599 4.77491C8.79962 4.77491 9.86626 3.6985 9.86626 2.38027C9.86626 1.06664 8.79962 0 7.48599 0C6.16776 0 5.09135 1.06664 5.09135 2.38027C5.09135 3.6985 6.16776 4.77491 7.48599 4.77491ZM12.1676 24.9082C12.8533 24.9082 13.3823 24.362 13.3823 23.6883L13.3823 17.9027C13.3823 17.6012 13.2404 17.1945 12.8533 16.9372L9.20681 14.512L9.20681 8.46935C9.20681 8.30509 9.29931 8.21775 9.45841 8.21775L17.3816 8.21775C18.0651 8.21775 18.6015 7.66408 18.6015 6.99037C18.6015 6.33158 18.0651 5.77792 17.3816 5.77792L5.86611 5.77792C4.82416 5.77792 4.23428 6.16963 3.71846 6.8101L0.993976 10.1527C0.257065 11.0636 0.861867 12.3909 1.86639 12.3909L4.68526 12.3909L4.68526 13.6485C4.68526 14.6686 5.25276 15.6227 6.1626 16.1069L10.9476 18.6838L10.9476 23.6883C10.9476 24.362 11.4938 24.9082 12.1676 24.9082ZM3.98299 10.1067L4.83338 9.04485L4.83338 10.1067ZM0.295461 24.4918C0.750927 25.011 1.51768 25.0455 2.02713 24.5946L6.1222 21.0102C6.3399 20.827 6.44041 20.7116 6.53115 20.4887L7.47908 18.1298L5.61639 17.1287C5.4303 17.0259 5.25167 16.8611 5.07534 16.6566L4.32163 19.3595L0.408038 22.7722C-0.0893416 23.2059-0.13817 24.0019 0.295461 24.4918Z"
                     fill="currentColor" fill-opacity="0.85" />
       </g>
</svg>