<?xml version="1.0" encoding="UTF-8"?>
<!--Generator: Apple Native CoreSVG 326-->
<!DOCTYPE svg PUBLIC "-//W3C//DTD SVG 1.1//EN" "http://www.w3.org/Graphics/SVG/1.1/DTD/svg11.dtd">
<svg version="1.1" xmlns="http://www.w3.org/2000/svg" xmlns:xlink="http://www.w3.org/1999/xlink"
       viewBox="0 0 21.365 21.006">
       <g>
              <rect height="21.006" opacity="0" width="21.365" x="0" y="0" />
              <path d="M21.0037 10.4981C21.0037 16.2923 16.302 20.9962 10.4981 20.9962C4.70394 20.9962 0 16.2923 0 10.4981C0 4.70163 4.70394 0 10.4981 0C16.302 0 21.0037 4.70163 21.0037 10.4981ZM5.78052 5.62876L5.78052 8.12373C5.78052 8.33342 5.80982 8.48275 5.98099 8.65623L7.16615 9.84654C7.4149 10.0729 7.43158 10.1482 7.51201 10.3895L9.06948 15.0688L7.03853 14.5575C6.71802 14.4793 6.40037 14.6873 6.31709 14.9951C6.24873 15.3105 6.43197 15.6459 6.75248 15.7241L9.80069 16.4847C10.2947 16.6093 10.6296 16.2451 10.5687 15.7879L10.2831 13.934L12.5829 13.934L14.4431 15.8235C14.6803 16.0607 15.052 16.0607 15.2892 15.8235C15.5362 15.6012 15.5264 15.2071 15.2892 14.9774L13.2969 12.9678C13.1504 12.8191 13.0694 12.7748 12.8178 12.7432L10.6951 12.5186L10.139 10.9129C10.1223 10.8307 10.1603 10.7933 10.2424 10.8174L14.2294 11.6222C14.535 11.6711 14.8675 11.5074 14.9336 11.1403C14.9899 10.825 14.7894 10.5096 14.4689 10.4436L8.94295 9.33885C8.45521 9.24119 8.21677 9.18545 8.0197 8.98322L6.98618 7.95717L6.98618 5.62876C6.98618 5.30134 6.7122 5.02966 6.38708 5.02966C6.04474 5.02966 5.78052 5.30134 5.78052 5.62876ZM8.37248 7.7533C8.37248 8.4076 8.90213 8.93494 9.55642 8.93494C10.2084 8.93494 10.7381 8.4076 10.7381 7.7533C10.7381 7.10131 10.2084 6.57397 9.55642 6.57397C8.90213 6.57397 8.37248 7.10131 8.37248 7.7533ZM7.30044 5.01365C7.30044 5.42205 7.61579 5.72478 8.01158 5.72478C8.40275 5.72478 8.73763 5.42205 8.73763 5.01365C8.73763 4.61787 8.40275 4.30252 8.01158 4.30252C7.61579 4.30252 7.30044 4.61787 7.30044 5.01365Z"
                     fill="currentColor" fill-opacity="0.85" />
       </g>
</svg>