<?xml version="1.0" encoding="UTF-8"?>
<!--Generator: Apple Native CoreSVG 326-->
<!DOCTYPE svg PUBLIC "-//W3C//DTD SVG 1.1//EN" "http://www.w3.org/Graphics/SVG/1.1/DTD/svg11.dtd">
<svg version="1.1" xmlns="http://www.w3.org/2000/svg" xmlns:xlink="http://www.w3.org/1999/xlink"
       viewBox="0 0 26.8002 24.615">
       <g>
              <rect height="24.615" opacity="0" width="26.8002" x="0" y="0" />
              <path d="M5.49672 4.63861L11.2807 4.63861C11.7046 4.63861 12.0526 4.27334 12.0526 3.83225C12.0526 3.39116 11.7046 3.02358 11.2807 3.02358L5.49672 3.02358C5.06309 3.02358 4.71735 3.39116 4.71735 3.83225C4.71735 4.27334 5.06309 4.63861 5.49672 4.63861ZM0.754683 9.74009L8.54086 9.74009C8.96703 9.74009 9.30531 9.37482 9.30531 8.93373C9.30531 8.49264 8.96703 8.12506 8.54086 8.12506L0.754683 8.12506C0.338279 8.12506 0 8.49494 0 8.93373C0 9.37252 0.338279 9.74009 0.754683 9.74009ZM4.62212 14.8416L8.79046 14.8416C9.21433 14.8416 9.55261 14.4763 9.55261 14.0352C9.55261 13.5941 9.21433 13.2265 8.79046 13.2265L4.62212 13.2265C4.19595 13.2265 3.85021 13.5941 3.85021 14.0352C3.85021 14.4763 4.19595 14.8416 4.62212 14.8416ZM1.33007 19.9218L7.29317 19.9218C7.71703 19.9218 8.06277 19.5565 8.06277 19.1154C8.06277 18.6743 7.71703 18.3067 7.29317 18.3067L1.33007 18.3067C0.906202 18.3067 0.560462 18.6743 0.560462 19.1154C0.560462 19.5565 0.906202 19.9218 1.33007 19.9218Z"
                     fill="currentColor" fill-opacity="0.85" />
              <path d="M13.6775 23.5325L16.9178 19.6764C17.2504 19.2726 17.2969 19.16 17.4365 18.774L17.5561 18.4399L15.6073 15.9891L15.1419 18.1756L11.9682 21.9432C10.8126 23.3119 12.7178 24.676 13.6775 23.5325ZM21.3267 23.185C22.0711 24.6979 24.3312 23.7576 23.5208 22.1173L21.3265 17.6626C21.1702 17.3254 20.9433 16.9836 20.6981 16.6356L19.3602 14.7261L19.4206 14.5124C19.7618 13.3533 19.9461 12.6789 20.0168 11.5794L20.2368 8.44884C20.3494 6.84862 19.3776 5.68487 17.8152 5.68487C16.6193 5.68487 15.8048 6.30635 14.7565 7.33514L13.097 8.95271C12.5496 9.47545 12.3537 9.95275 12.2974 10.7138L12.0895 13.2625C12.0332 13.9873 12.4645 14.5163 13.1354 14.5359C13.8212 14.5898 14.2525 14.1608 14.3185 13.4021L14.5529 10.6638L15.2004 10.0846C15.3992 9.90762 15.7009 10.014 15.679 10.2874L15.513 12.4463C15.4251 13.6089 15.6814 14.2356 16.5619 15.3389L18.7367 18.0807C18.9417 18.3294 18.9785 18.4145 19.0738 18.6155ZM25.2045 9.90744L22.7867 9.90744L21.4004 8.39013L21.1994 11.3653L21.4812 11.6397C21.8827 11.9964 22.2055 12.1388 22.8856 12.1388L25.2045 12.1388C25.9466 12.1388 26.4388 11.6977 26.4388 11.0171C26.4388 10.3583 25.9368 9.90744 25.2045 9.90744ZM19.1667 4.78182C20.4849 4.78182 21.5613 3.71288 21.5613 2.39464C21.5613 1.0764 20.4849 0 19.1667 0C17.8484 0 16.7795 1.0764 16.7795 2.39464C16.7795 3.71288 17.8484 4.78182 19.1667 4.78182Z"
                     fill="currentColor" fill-opacity="0.85" />
       </g>
</svg>