<?xml version="1.0" encoding="UTF-8"?>
<!--Generator: Apple Native CoreSVG 326-->
<!DOCTYPE svg PUBLIC "-//W3C//DTD SVG 1.1//EN" "http://www.w3.org/Graphics/SVG/1.1/DTD/svg11.dtd">
<svg version="1.1" xmlns="http://www.w3.org/2000/svg" xmlns:xlink="http://www.w3.org/1999/xlink"
       viewBox="0 0 28.6445 22.652">
       <g>
              <rect height="22.652" opacity="0" width="28.6445" x="0" y="0" />
              <path d="M10.2686 6.27451C8.60236 6.27451 7.2612 4.90459 7.2612 3.2946C7.2612 1.62601 8.60236 0.275621 10.2686 0.275621C11.9372 0.275621 13.2532 1.62601 13.2532 3.2946C13.2532 4.9115 11.9372 6.27451 10.2686 6.27451ZM12.0895 17.5108C11.6277 17.1466 11.1303 16.6003 10.7397 15.8851L8.71901 12.228C7.77702 10.5152 8.07053 8.80289 9.69029 7.96657C11.2388 7.09294 12.8414 7.7311 13.7954 9.44852L15.7605 13.007ZM27.8439 22.0276C27.2041 22.6766 26.1708 22.6278 25.3966 21.8289L20.787 17.0602C20.6107 16.8765 20.478 16.8523 20.2161 16.9477L16.7383 18.2408C15.855 18.5785 14.9107 18.5945 14.2059 18.4475L17.2665 14.6689L19.2368 13.9398C20.648 13.408 21.8461 13.582 22.9879 14.7703L27.7411 19.7297C28.5032 20.5188 28.4297 21.4567 27.8439 22.0276ZM9.84357 22.0851C9.30143 21.6458 9.24459 21.0158 9.74998 20.4001L12.0895 17.5108C12.6995 17.9295 13.3956 18.2408 14.2059 18.4475L11.4867 21.81C10.9687 22.4509 10.3433 22.4717 9.84357 22.0851Z"
                     fill="currentColor" fill-opacity="0.85" />
              <path d="M1.01702 22.4762L5.70968 22.4762C6.25752 22.4762 6.64803 22.088 6.64803 21.5648C6.64803 21.0244 6.25752 20.6586 5.70968 20.6586L3.1452 20.6586L3.1452 20.6293L4.84654 19.0604C5.71787 18.2745 6.26935 17.4968 6.26935 16.6327C6.26935 15.1168 5.02123 14.1415 3.11311 14.1415C1.70413 14.1415 0.439332 14.8137 0.10906 15.9011C0.0849187 16.0527 0.0504661 16.2198 0.0504661 16.3841C0.0504661 16.917 0.434055 17.3103 1.00889 17.3103C1.50276 17.3103 1.81052 17.0903 1.99377 16.6826C2.16615 16.2276 2.50807 15.9246 3.06726 15.9246C3.66605 15.9246 4.06086 16.2562 4.06086 16.7303C4.06086 17.1786 3.73035 17.5814 3.22023 18.0411L0.527648 20.4859C0.18488 20.7788 0 21.1112 0 21.4977C0 22.0851 0.39566 22.4762 1.01702 22.4762Z"
                     fill="currentColor" fill-opacity="0.85" />
              <path d="M22.5756 11.3968C19.4039 11.3968 16.9175 8.78567 16.9175 5.73631C16.9175 2.54737 19.4114 0 22.5756 0C25.7347 0 28.2924 2.54737 28.2924 5.73631C28.2924 8.78567 25.7347 11.3968 22.5756 11.3968Z"
                     fill="currentColor" fill-opacity="0.85" />
       </g>
</svg>