<?xml version="1.0" encoding="UTF-8"?>
<!--Generator: Apple Native CoreSVG 326-->
<!DOCTYPE svg PUBLIC "-//W3C//DTD SVG 1.1//EN" "http://www.w3.org/Graphics/SVG/1.1/DTD/svg11.dtd">
<svg version="1.1" xmlns="http://www.w3.org/2000/svg" xmlns:xlink="http://www.w3.org/1999/xlink"
       viewBox="0 0 21.365 21.006">
       <g>
              <rect height="21.006" opacity="0" width="21.365" x="0" y="0" />
              <path d="M21.0037 10.4981C21.0037 16.2923 16.302 20.9962 10.4981 20.9962C4.70394 20.9962 0 16.2923 0 10.4981C0 4.70163 4.70394 0 10.4981 0C16.302 0 21.0037 4.70163 21.0037 10.4981ZM13.5573 10.8731L13.1128 10.8731L13.1128 15.8473C13.1128 16.0707 13.2771 16.2522 13.5051 16.2522C13.7359 16.2522 13.895 16.0707 13.895 15.8473L13.895 10.8243C13.7853 10.8536 13.6555 10.8731 13.5573 10.8731ZM8.16861 6.39576C7.50916 6.39576 7.11854 6.77146 7.11854 7.43838L7.11854 9.95991C7.11854 10.4217 7.45342 10.7515 7.9101 10.7515L8.54092 10.7515C8.55069 11.0549 8.63112 11.2715 8.79604 11.5312L8.36799 13.3742L6.80197 15.2234C6.22295 15.9047 7.18568 16.6014 7.66189 16.0247L9.20486 14.1595C9.3531 14.0015 9.41916 13.8694 9.52604 13.6752L10.4228 11.723C10.6803 11.2012 10.7762 10.6815 10.8227 10.0386L10.8761 9.31635L11.576 10.0471C11.7587 10.2424 11.935 10.301 12.2768 10.301L13.5573 10.301C13.9215 10.301 14.1559 10.0736 14.1559 9.73409C14.1559 9.3992 13.914 9.18666 13.5573 9.18666L12.2187 9.18666L10.6986 7.51771C10.4498 7.25689 10.1327 7.05588 9.71225 7.05588C9.63182 7.05588 9.54162 7.06049 9.47096 7.07771C9.41873 6.67787 9.09186 6.39576 8.66787 6.39576ZM10.2671 13.4428C10.3069 13.5067 10.3356 13.5498 10.3644 13.5901L11.4645 15.8489C11.8505 16.6135 12.9815 16.1275 12.5685 15.3164L11.4931 13.111C11.4052 12.9381 11.2857 12.7652 11.176 12.5992L10.8657 12.1527ZM13.1128 8.20228L13.1128 8.6071L13.5573 8.6071C13.6555 8.6071 13.7807 8.61686 13.895 8.66108L13.895 8.20228C13.895 7.96912 13.7359 7.81462 13.5051 7.81462C13.2771 7.81462 13.1128 7.96912 13.1128 8.20228ZM9.25151 5.40713C9.25151 6.0758 9.79838 6.60775 10.4596 6.60775C11.126 6.60775 11.6654 6.0758 11.6654 5.40713C11.6654 4.74822 11.126 4.20134 10.4596 4.20134C9.79838 4.20134 9.25151 4.74822 9.25151 5.40713Z"
                     fill="currentColor" fill-opacity="0.85" />
       </g>
</svg>