<?xml version="1.0" encoding="UTF-8"?>
<!--Generator: Apple Native CoreSVG 326-->
<!DOCTYPE svg PUBLIC "-//W3C//DTD SVG 1.1//EN" "http://www.w3.org/Graphics/SVG/1.1/DTD/svg11.dtd">
<svg version="1.1" xmlns="http://www.w3.org/2000/svg" xmlns:xlink="http://www.w3.org/1999/xlink"
       viewBox="0 0 14.388 23.7914">
       <g>
              <rect height="23.7914" opacity="0" width="14.388" x="0" y="0" />
              <path d="M7.00961 4.76108C8.32324 4.76108 9.39504 3.69905 9.39504 2.38542C9.39504 1.07179 8.32324 0 7.00961 0C5.69599 0 4.63165 1.07179 4.63165 2.38542C4.63165 3.69905 5.69599 4.76108 7.00961 4.76108ZM7.00961 14.7812C7.34286 14.7812 7.4618 14.98 7.70134 15.6981C8.04829 16.7217 9.06446 20.9926 9.41141 22.246C9.60727 22.941 10.0018 23.2471 10.5354 23.2471C11.2798 23.2471 11.7427 22.5688 11.5446 21.8342C11.4687 21.5705 9.99304 15.384 9.7805 14.111C9.61449 13.1263 9.57543 11.212 9.56797 10.0225C9.56797 9.8961 9.70644 9.85243 9.78172 9.95184C10.5813 11.1041 11.7923 12.8167 12.0635 13.1292C12.4161 13.5209 12.9744 13.587 13.4224 13.3348C14.0175 13.0115 14.1645 12.3624 13.8997 11.9167C13.8291 11.7628 13.7067 11.6088 13.6165 11.4698L10.9231 7.46561C10.1298 6.29143 9.12621 5.63725 7.00961 5.63725C4.90048 5.63725 3.89693 6.29143 3.10361 7.46561L0.410173 11.4698C0.319978 11.6088 0.197635 11.7628 0.12697 11.9167C-0.137794 12.3624 0.00693189 13.0115 0.604273 13.3348C1.05228 13.587 1.61056 13.5209 1.96091 13.1292C2.23204 12.8167 3.4454 11.1064 4.24497 9.95184C4.31794 9.85473 4.45872 9.8961 4.45872 10.0248C4.45126 11.2143 4.40989 13.1263 4.24388 14.111C4.02618 15.384 2.55794 21.5705 2.48212 21.8342C2.28396 22.5688 2.74689 23.2471 3.49126 23.2471C4.02485 23.2471 4.41942 22.941 4.61528 22.246C4.96223 20.9926 5.9784 16.7217 6.32535 15.6981C6.56488 14.98 6.68383 14.7812 7.00961 14.7812Z"
                     fill="currentColor" fill-opacity="0.85" />
       </g>
</svg>