<?xml version="1.0" encoding="UTF-8"?>
<!--Generator: Apple Native CoreSVG 326-->
<!DOCTYPE svg PUBLIC "-//W3C//DTD SVG 1.1//EN" "http://www.w3.org/Graphics/SVG/1.1/DTD/svg11.dtd">
<svg version="1.1" xmlns="http://www.w3.org/2000/svg" xmlns:xlink="http://www.w3.org/1999/xlink"
       viewBox="0 0 21.365 21.006">
       <g>
              <rect height="21.006" opacity="0" width="21.365" x="0" y="0" />
              <path d="M10.4981 20.9962C16.302 20.9962 21.0037 16.2946 21.0037 10.4981C21.0037 4.70163 16.302 0 10.4981 0C4.70163 0 0 4.70163 0 10.4981C0 16.2946 4.70163 20.9962 10.4981 20.9962ZM10.4981 17.9484C6.37829 17.9484 3.04785 14.6179 3.04785 10.4981C3.04785 6.37829 6.37829 3.04785 10.4981 3.04785C14.6179 3.04785 17.9558 6.37829 17.9558 10.4981C17.9558 14.6179 14.6179 17.9484 10.4981 17.9484Z"
                     fill="currentColor" fill-opacity="0.85" />
              <path d="M7.33587 7.26502C7.95056 7.26502 8.45552 6.76752 8.45552 6.14307C8.45552 5.52838 7.95056 5.02342 7.33587 5.02342C6.71372 5.02342 6.21391 5.52838 6.21391 6.14307C6.21391 6.76752 6.71372 7.26502 7.33587 7.26502ZM6.19669 13.7739C6.43052 13.613 6.71032 13.3879 7.32204 13.2707L7.40993 12.6525C7.41739 12.6014 7.47544 12.5991 7.50012 12.6307L7.7897 13.215C7.90634 13.2126 8.03274 13.1954 8.16146 13.1954C8.53649 13.1954 8.8277 13.2448 9.077 13.3114L8.45321 11.6847L8.45321 8.79834C8.45321 8.22502 8.04306 7.7419 7.33587 7.7419L7.10665 7.7419C6.70965 7.7419 6.24145 7.78557 5.81692 8.2101L4.7282 9.29651C4.51566 9.50675 4.51797 9.87323 4.7282 10.0685L6.19669 11.5175ZM6.24145 10.0923L5.82887 9.68999L6.14258 9.35905C6.1811 9.32799 6.24145 9.34467 6.24145 9.3878ZM5.46172 12.2936L14.6178 6.69146C14.8165 6.56626 14.878 6.28888 14.7505 6.08041C14.6253 5.8817 14.3577 5.82025 14.1589 5.94029L5.00285 11.5573C4.79668 11.6848 4.7427 11.9599 4.86789 12.1586C4.99539 12.3648 5.25324 12.4211 5.46172 12.2936ZM10.5917 15.3658C11.9791 15.3658 12.3438 14.5891 13.0294 14.5891C13.8195 14.5891 14.0746 15.3658 15.4597 15.3658L15.4866 15.3658C15.7095 15.3658 15.8956 15.1797 15.8956 14.9592C15.8956 14.7386 15.7095 14.5525 15.4866 14.5525L15.4597 14.5525C14.6357 14.5525 14.3536 13.7735 13.0294 13.7735C11.8171 13.7735 11.4208 14.5525 10.5917 14.5525C9.77005 14.5525 9.36857 13.7735 8.16146 13.7735C6.83212 13.7735 6.55286 14.5525 5.72606 14.5525L5.70422 14.5525C5.47906 14.5525 5.29758 14.7386 5.29758 14.9592C5.29758 15.1797 5.47906 15.3658 5.70422 15.3658L5.72606 15.3658C7.10883 15.3658 7.36626 14.5891 8.16146 14.5891C8.83959 14.5891 9.20662 15.3658 10.5917 15.3658Z"
                     fill="currentColor" fill-opacity="0.85" />
       </g>
</svg>