<?xml version="1.0" encoding="UTF-8"?>
<!--Generator: Apple Native CoreSVG 326-->
<!DOCTYPE svg PUBLIC "-//W3C//DTD SVG 1.1//EN" "http://www.w3.org/Graphics/SVG/1.1/DTD/svg11.dtd">
<svg version="1.1" xmlns="http://www.w3.org/2000/svg" xmlns:xlink="http://www.w3.org/1999/xlink"
       viewBox="0 0 21.365 21.006">
       <g>
              <rect height="21.006" opacity="0" width="21.365" x="0" y="0" />
              <path d="M21.0037 10.4981C21.0037 16.2923 16.302 20.9962 10.4981 20.9962C4.70394 20.9962 0 16.2923 0 10.4981C0 4.70163 4.70394 0 10.4981 0C16.302 0 21.0037 4.70163 21.0037 10.4981ZM7.92544 4.47048L6.19626 8.9572C6.08599 9.23634 6.17157 9.49595 6.35306 9.66767L7.61009 10.9517C7.84962 11.1838 8.2431 11.1838 8.48033 10.9517L9.04048 10.4013C9.09107 10.3358 9.14342 10.3433 9.15779 10.418L9.45482 11.559L7.68591 12.8896C7.53943 13.0045 7.45845 13.1854 7.42916 13.3365L6.97642 15.8948C6.92013 16.2274 7.14243 16.5548 7.47732 16.6283C7.80474 16.6794 8.11778 16.4594 8.18384 16.1073L8.61243 13.784L10.4935 12.7595C10.5819 12.7153 10.6428 12.7274 10.6773 12.8061L11.6637 15.1754C11.7246 15.3271 11.847 15.4494 11.9642 15.5103L13.8848 16.5692C14.2467 16.7748 14.5816 16.6232 14.7183 16.3394C14.8918 16.051 14.7867 15.6771 14.4811 15.5036L12.7637 14.5424L11.3085 8.71701C11.2229 8.33845 10.8737 8.06271 10.4584 8.06271L7.45305 8.06271L8.91802 4.94723C9.15009 4.4584 8.8129 4.11837 8.4338 4.11837C8.23849 4.11837 8.0231 4.23094 7.92544 4.47048ZM8.0524 9.71607L7.54622 9.22482L8.5465 9.22482ZM9.07275 6.35767C9.07275 7.02403 9.60701 7.55138 10.2711 7.55138C10.9202 7.55138 11.4619 7.02403 11.4619 6.35767C11.4619 5.70107 10.9202 5.16165 10.2711 5.16165C9.60701 5.16165 9.07275 5.70107 9.07275 6.35767Z"
                     fill="currentColor" fill-opacity="0.85" />
       </g>
</svg>