<?xml version="1.0" encoding="UTF-8"?>
<!--Generator: Apple Native CoreSVG 326-->
<!DOCTYPE svg PUBLIC "-//W3C//DTD SVG 1.1//EN" "http://www.w3.org/Graphics/SVG/1.1/DTD/svg11.dtd">
<svg version="1.1" xmlns="http://www.w3.org/2000/svg" xmlns:xlink="http://www.w3.org/1999/xlink"
       viewBox="0 0 21.365 21.006">
       <g>
              <rect height="21.006" opacity="0" width="21.365" x="0" y="0" />
              <path d="M21.0037 10.4981C21.0037 16.2923 16.302 20.9962 10.4981 20.9962C4.70394 20.9962 0 16.2923 0 10.4981C0 4.70163 4.70394 0 10.4981 0C16.302 0 21.0037 4.70163 21.0037 10.4981ZM10.4981 14.0198C9.59725 14.0198 9.04709 13.1862 7.90537 13.1862C6.65403 13.1862 6.22556 14.0198 5.32469 14.0198L5.18458 14.0198C4.97149 14.0198 4.79571 14.2007 4.79571 14.4064C4.79571 14.6241 4.97149 14.7952 5.18458 14.7952L5.32469 14.7952C6.7563 14.7952 7.0338 13.9691 7.90537 13.9691C8.66733 13.9691 9.04928 14.7952 10.4981 14.7952C11.9544 14.7952 12.3364 13.9691 13.0909 13.9691C13.9699 13.9691 14.2474 14.7952 15.679 14.7952L15.8214 14.7952C16.0322 14.7952 16.2154 14.6241 16.2154 14.4064C16.2154 14.2007 16.0322 14.0198 15.8214 14.0198L15.679 14.0198C14.7781 14.0198 14.3496 13.1862 13.0909 13.1862C11.9566 13.1862 11.4013 14.0198 10.4981 14.0198ZM10.4981 12.4568C9.59725 12.4568 9.16647 11.6404 7.90537 11.6404C6.53466 11.6404 6.22556 12.4568 5.32469 12.4568L5.18458 12.4568C4.97149 12.4568 4.79571 12.6452 4.79571 12.8605C4.79571 13.0731 4.97149 13.2396 5.18458 13.2396L5.32469 13.2396C6.7563 13.2396 7.0338 12.4135 7.90537 12.4135C8.66733 12.4135 9.04928 13.2396 10.4981 13.2396C11.9544 13.2396 12.3364 12.4135 13.0909 12.4135C13.9699 12.4135 14.2474 13.2396 15.679 13.2396L15.8214 13.2396C16.0322 13.2396 16.2154 13.0731 16.2154 12.8605C16.2154 12.6452 16.0322 12.4568 15.8214 12.4568L15.679 12.4568C14.7781 12.4568 14.469 11.6404 13.0909 11.6404C11.8372 11.6404 11.4013 12.4568 10.4981 12.4568ZM8.73096 7.70011L6.70759 9.13347C6.31412 9.4046 6.35318 9.83483 6.59271 10.0744C6.77595 10.2944 7.11314 10.38 7.43825 10.1502L9.02162 9.0494L9.85588 9.89573C9.9633 10.0129 9.97252 10.1365 9.83405 10.2215L8.66678 10.9855C9.43123 11.2044 9.82986 11.7059 10.4981 11.7059C11.2732 11.7059 11.6683 11.0534 12.6792 10.9034L9.67877 7.78569C9.42486 7.51456 9.04631 7.48011 8.73096 7.70011ZM12.2019 9.04843C12.2019 9.69757 12.7465 10.237 13.4003 10.237C14.0643 10.237 14.6037 9.69757 14.6037 9.04843C14.6037 8.37976 14.0643 7.85241 13.4003 7.85241C12.7465 7.85241 12.2019 8.37976 12.2019 9.04843ZM11.2035 6.30702C10.7968 5.95655 10.3866 5.81752 9.82361 5.81752C9.61053 5.81752 9.44166 6.00131 9.44166 6.21955C9.44166 6.43264 9.60822 6.60896 9.82361 6.60896C10.2746 6.60896 10.5176 6.6917 10.7877 6.98127C10.9123 7.12315 11.0542 7.20643 11.2035 7.20643C11.3626 7.20643 11.4999 7.12315 11.6366 6.98127C11.8946 6.6917 12.1376 6.60896 12.5858 6.60896C12.8063 6.60896 12.9803 6.43264 12.9803 6.21955C12.9803 6.00131 12.8063 5.81752 12.5835 5.81752C12.0279 5.81752 11.6252 5.95655 11.2035 6.30702Z"
                     fill="currentColor" fill-opacity="0.85" />
       </g>
</svg>