<?xml version="1.0" encoding="UTF-8"?>
<!--Generator: Apple Native CoreSVG 326-->
<!DOCTYPE svg PUBLIC "-//W3C//DTD SVG 1.1//EN" "http://www.w3.org/Graphics/SVG/1.1/DTD/svg11.dtd">
<svg version="1.1" xmlns="http://www.w3.org/2000/svg" xmlns:xlink="http://www.w3.org/1999/xlink"
       viewBox="0 0 17.6686 25.8846">
       <g>
              <rect height="25.8846" opacity="0" width="17.6686" x="0" y="0" />
              <path d="M6.15292 4.78237C7.46654 4.78237 8.54525 3.71343 8.54525 2.3998C8.54525 1.08617 7.46654 0.00746071 6.15292 0.00746071C4.84675 0.00746071 3.77034 1.08617 3.77034 2.3998C3.77034 3.71343 4.84675 4.78237 6.15292 4.78237ZM7.70213 20.5725C8.24834 20.6507 8.81869 20.3761 9.03177 19.6834L10.4024 15.0754C10.6229 14.3506 10.3093 13.7061 9.62353 13.4563L6.19064 12.2258L6.691 8.74291C6.70537 8.62966 6.78701 8.59345 6.89795 8.64173L8.63909 9.4379C8.88608 9.56025 9.10662 9.58208 9.42197 9.61884L13.9324 10.0807C14.5986 10.1542 15.1988 9.6815 15.2453 9.01756C15.3016 8.37084 14.8289 7.77811 14.165 7.71436L9.59654 7.26229L6.13963 5.68432C4.54971 4.96518 2.88113 5.76245 2.66574 7.38221L2.09648 11.7363C1.91785 13.0988 2.77656 14.3366 4.10225 14.6497L7.80573 15.5067L6.73897 18.9925C6.4719 19.877 7.06518 20.4697 7.70213 20.5725ZM0.580503 23.7606C1.06527 24.03 1.78319 23.9714 2.23635 23.2954L4.99475 19.1687C5.12455 18.9752 5.21299 18.7448 5.25205 18.4956L5.6249 16.1901L3.8398 15.7811C3.56066 15.7099 3.29128 15.6169 3.03683 15.4871L2.85874 18.0861L0.25945 21.9727C-0.252305 22.7463 0.0664428 23.4643 0.580503 23.7606ZM17.2236 6.69127C17.0025 6.24909 16.496 6.06706 16.0486 6.28585C15.7016 6.45077 15.377 6.61909 15.0599 6.77995C15.6278 7.04757 16.0752 7.54198 16.271 8.13974C16.4509 8.04263 16.6255 7.94783 16.8279 7.84435C17.2431 7.62556 17.44 7.11162 17.2236 6.69127ZM3.28006 25.8846L7.09193 25.8846C7.56626 25.8846 7.95216 25.501 7.95216 25.0192L7.95216 23.515L10.9136 23.515C11.3781 23.515 11.7715 23.1119 11.7715 22.6301L11.7715 21.1185L13.3482 21.1185C13.8202 21.1185 14.1986 20.7349 14.2159 20.268L14.58 10.9269C14.2436 10.9269 14.2149 10.9292 14.092 10.9292C13.6521 10.9338 13.2226 10.8747 12.8544 10.8207L12.5075 19.3682L10.9136 19.3682C10.4145 19.3682 10.0459 19.7495 10.0459 20.2336L10.0459 21.7722L7.09193 21.7722C6.60268 21.7722 6.22655 22.1558 6.22655 22.6301L6.22655 24.1515L3.28006 24.1515C2.79827 24.1515 2.40261 24.5546 2.40261 25.0192C2.40261 25.4837 2.8155 25.8846 3.28006 25.8846Z"
                     fill="currentColor" fill-opacity="0.85" />
       </g>
</svg>