<?xml version="1.0" encoding="UTF-8"?>
<!--Generator: Apple Native CoreSVG 326-->
<!DOCTYPE svg PUBLIC "-//W3C//DTD SVG 1.1//EN" "http://www.w3.org/Graphics/SVG/1.1/DTD/svg11.dtd">
<svg version="1.1" xmlns="http://www.w3.org/2000/svg" xmlns:xlink="http://www.w3.org/1999/xlink"
       viewBox="0 0 21.365 21.006">
       <g>
              <rect height="21.006" opacity="0" width="21.365" x="0" y="0" />
              <path d="M10.4981 20.9962C16.302 20.9962 21.0037 16.2946 21.0037 10.4981C21.0037 4.70163 16.302 0 10.4981 0C4.70163 0 0 4.70163 0 10.4981C0 16.2946 4.70163 20.9962 10.4981 20.9962ZM10.4981 17.9484C6.37829 17.9484 3.04785 14.6179 3.04785 10.4981C3.04785 6.37829 6.37829 3.04785 10.4981 3.04785C14.6179 3.04785 17.9558 6.37829 17.9558 10.4981C17.9558 14.6179 14.6179 17.9484 10.4981 17.9484Z"
                     fill="currentColor" fill-opacity="0.85" />
              <path d="M12.2246 7.1095C12.8318 7.1095 13.3419 6.60684 13.3419 5.99731C13.3419 5.37286 12.8318 4.8702 12.2246 4.8702C11.6001 4.8702 11.1026 5.37286 11.1026 5.99731C11.1026 6.60684 11.6001 7.1095 12.2246 7.1095ZM10.2972 15.5595C12.4791 15.5595 13.9544 14.1141 13.9544 12.0366C13.9544 10.9083 13.4006 10.2774 12.4165 10.2774L11.7736 10.2774C11.6788 10.2774 11.623 10.2045 11.6569 10.1028L12.1005 8.75322C12.3199 8.10693 12.0028 7.54677 11.3082 7.3836L9.32557 6.87688C9.14287 6.82805 8.99178 6.85735 8.80623 6.96708L6.877 8.05349C6.63571 8.19251 6.57196 8.524 6.74775 8.75322C6.9063 8.9899 7.1815 9.03872 7.44747 8.8997L9.20838 7.96669L10.2362 8.23958C10.431 8.29071 10.4942 8.41197 10.4333 8.59697L9.89264 10.1097C9.63182 10.8456 10.0455 11.4695 10.7699 11.4695L12.3191 11.4695C12.6942 11.4695 12.935 11.6838 12.935 12.0366C12.935 13.4989 11.8589 14.5475 10.2995 14.5475C8.66557 14.5475 7.59463 13.4318 7.59463 11.8776C7.59463 11.4242 7.70787 11.0219 7.89869 10.6576C8.22041 10.058 7.32046 9.56115 6.96659 10.2773C6.72002 10.7663 6.57518 11.2978 6.57518 11.8776C6.57518 14.0469 8.04299 15.5595 10.2972 15.5595ZM13.9912 15.5595C14.3134 15.5595 14.5771 15.3033 14.5771 14.9787C14.5771 14.6541 14.3134 14.3979 13.9912 14.3979C13.6666 14.3979 13.4104 14.6541 13.4104 14.9787C13.4104 15.3033 13.6666 15.5595 13.9912 15.5595Z"
                     fill="currentColor" fill-opacity="0.85" />
       </g>
</svg>