<?xml version="1.0" encoding="UTF-8"?>
<!--Generator: Apple Native CoreSVG 326-->
<!DOCTYPE svg PUBLIC "-//W3C//DTD SVG 1.1//EN" "http://www.w3.org/Graphics/SVG/1.1/DTD/svg11.dtd">
<svg version="1.1" xmlns="http://www.w3.org/2000/svg" xmlns:xlink="http://www.w3.org/1999/xlink"
       viewBox="0 0 24.8756 23.3782">
       <g>
              <rect height="23.3782" opacity="0" width="24.8756" x="0" y="0" />
              <path d="M12.0735 4.26382C13.2493 4.26382 14.2051 3.30515 14.2051 2.13164C14.2051 0.953513 13.2493 0 12.0735 0C10.9 0 9.93898 0.953513 9.93898 2.13164C9.93898 3.30515 10.9 4.26382 12.0735 4.26382ZM8.81078 12.3163L12.1536 14.1902L10.0263 16.0296C9.53058 16.4645 9.45312 17.0814 9.82355 17.4857C10.2181 17.9072 10.8298 17.9257 11.3554 17.4834L14.5303 14.7824C15.0272 14.359 14.9439 13.4705 14.3517 13.0914L10.9803 10.8947L11.6294 8.60546C11.7047 8.36295 11.9587 8.31928 12.1116 8.55487L13.1277 10.0226C13.3994 10.4264 13.9014 10.5562 14.3293 10.3678L17.2377 9.06608C17.8201 8.80417 18.0505 8.26772 17.7811 7.74905C17.5462 7.22292 17.0223 7.07128 16.4548 7.32804L14.234 8.29429L12.7088 6.18831C11.8437 5.00042 10.7632 4.52421 9.06062 4.64886L5.8225 4.88324C5.26246 4.9223 4.86328 5.30656 4.78 5.88382L4.35031 9.1564C4.26703 9.79741 4.59039 10.2701 5.18027 10.3287C5.74777 10.3827 6.13257 10.03 6.22562 9.39132L6.59616 6.83151L7.80085 6.74132C8.02207 6.72924 8.19336 6.87233 8.13301 7.11944L7.39082 9.74464C6.92898 11.4075 8.00484 11.8694 8.81078 12.3163ZM2.62926 20.2188C3.06804 20.5887 3.66539 20.5681 4.14675 20.0965L7.12351 17.1565C7.39749 16.8923 7.44632 16.7964 7.5928 16.4081L8.68953 13.5712L8.23758 13.3133C7.57988 12.9417 7.04453 12.5821 6.68321 12.153L5.71059 15.6028L2.64133 18.6376C2.13297 19.131 2.16864 19.8168 2.62926 20.2188ZM18.2471 11.8202C18.4291 12.2308 18.9626 12.4174 19.4122 12.2135L24.0153 10.0645C24.4528 9.85321 24.6372 9.33697 24.4281 8.88963C24.2363 8.47905 23.7201 8.29472 23.2705 8.50604L18.66 10.655C18.2299 10.8589 18.0283 11.3826 18.2471 11.8202ZM18.7825 19.4539L19.9696 19.3803C20.1717 19.3729 20.3473 19.378 20.535 19.4102L22.2325 9.70394L20.3496 10.5372ZM0.828623 23.3685L20.2936 23.3685C21.0781 23.3685 21.7058 22.7333 21.7058 21.9367C21.7058 21.0149 20.9724 20.4802 20.0564 20.544L0.821162 21.6917C0.366363 21.7285 0 22.0753 0 22.5399C0 22.9947 0.373824 23.3685 0.828623 23.3685Z"
                     fill="currentColor" fill-opacity="0.85" />
       </g>
</svg>