<?xml version="1.0" encoding="UTF-8"?>
<!--Generator: Apple Native CoreSVG 326-->
<!DOCTYPE svg PUBLIC "-//W3C//DTD SVG 1.1//EN" "http://www.w3.org/Graphics/SVG/1.1/DTD/svg11.dtd">
<svg version="1.1" xmlns="http://www.w3.org/2000/svg" xmlns:xlink="http://www.w3.org/1999/xlink"
       viewBox="0 0 21.365 21.006">
       <g>
              <rect height="21.006" opacity="0" width="21.365" x="0" y="0" />
              <path d="M21.0037 10.4981C21.0037 16.2923 16.302 20.9962 10.4981 20.9962C4.70394 20.9962 0 16.2923 0 10.4981C0 4.70163 4.70394 0 10.4981 0C16.302 0 21.0037 4.70163 21.0037 10.4981ZM7.36795 7.09306C7.20424 7.09306 7.03307 7.14935 6.92795 7.26654L5.36303 8.83892C5.11604 9.08592 5.11834 9.46216 5.36303 9.69423C5.5951 9.93146 5.97135 9.93146 6.21088 9.69423L7.60979 8.30048L8.40444 8.30048C8.4671 8.30048 8.48609 8.34076 8.45503 8.36205L7.09858 9.72135C6.35639 10.4561 6.75448 11.7032 7.91889 11.7032L10.3009 11.7032L9.8964 13.9053C9.74245 14.7095 10.9573 14.8928 11.1015 14.0886L11.6329 11.2023C11.6892 10.887 11.4864 10.5596 11.132 10.5107L9.55315 10.2821L10.511 9.32369C10.5885 9.24611 10.6753 9.2438 10.7575 9.32369L13.3474 11.921C13.5772 12.1531 13.9684 12.183 14.2154 11.921C14.4377 11.6717 14.44 11.3225 14.2004 11.068L10.6356 7.49576C10.3817 7.23439 10.0227 7.09306 9.65444 7.09306ZM6.80331 13.3746L5.06314 13.3746C4.7185 13.3746 4.44221 13.6509 4.44221 13.9835C4.44221 14.3109 4.7185 14.5872 5.06314 14.5872L7.36795 14.5872C7.65862 14.5872 7.9033 14.3499 7.9619 14.0593L8.29514 12.2265L7.91889 12.2265C7.52081 12.2265 7.16639 12.1265 6.91995 11.9307ZM14.6855 12.0356C14.5017 12.0356 14.357 12.1826 14.357 12.3739C14.357 12.5577 14.5017 12.7122 14.6855 12.7122L15.2663 12.7122C15.3703 12.7122 15.4548 12.7846 15.4548 12.9007L15.4548 13.1184L14.4694 13.1184C14.0639 13.1184 13.7388 13.4533 13.7388 13.8565C13.7388 14.2598 14.0639 14.5872 14.4694 14.5872L16.0418 14.5872C16.4451 14.5872 16.78 14.2598 16.78 13.8565C16.78 13.4757 16.4824 13.1632 16.1239 13.1333L16.1193 13.1333L16.1193 12.9007C16.1193 12.3746 15.7729 12.0356 15.2663 12.0356ZM10.7103 6.35888C10.7103 7.00802 11.2498 7.54744 11.9087 7.54744C12.5727 7.54744 13.1098 7.00802 13.1098 6.35888C13.1098 5.69482 12.5727 5.16517 11.9087 5.16517C11.2498 5.16517 10.7103 5.69482 10.7103 6.35888Z"
                     fill="currentColor" fill-opacity="0.85" />
       </g>
</svg>