<?xml version="1.0" encoding="UTF-8"?>
<!--Generator: Apple Native CoreSVG 326-->
<!DOCTYPE svg PUBLIC "-//W3C//DTD SVG 1.1//EN" "http://www.w3.org/Graphics/SVG/1.1/DTD/svg11.dtd">
<svg version="1.1" xmlns="http://www.w3.org/2000/svg" xmlns:xlink="http://www.w3.org/1999/xlink"
       viewBox="0 0 23.788 23.4308">
       <g>
              <rect height="23.4308" opacity="0" width="23.788" x="0" y="0" />
              <path d="M1.2442 14.294L9.12615 22.176C10.7804 23.8302 12.6463 23.8325 14.2908 22.1903L22.1894 14.2894C23.839 12.6398 23.8292 10.779 22.1825 9.12477L14.2954 1.23766C12.6486-0.409091 10.7827-0.413701 9.13822 1.23075L1.22982 9.12938C-0.414627 10.7813-0.410017 12.6398 1.2442 14.294ZM3.67517 12.4416C3.18095 11.9473 3.1488 11.4984 3.67748 10.9697L10.9763 3.67094C11.505 3.14226 11.9539 3.17441 12.4481 3.66864L19.7515 10.972C20.2434 11.464 20.2779 11.9227 19.7492 12.4439L12.4504 19.7501C11.9217 20.2713 11.4705 20.2444 10.9786 19.7547Z"
                     fill="currentColor" fill-opacity="0.85" />
              <path d="M9.56269 16.8243L11.0978 15.0094C11.2489 14.8215 11.2759 14.7578 11.3368 14.5825L11.3816 14.4404L10.4809 13.303L10.2597 14.3011L8.77398 16.0844C8.2271 16.7191 9.11347 17.3665 9.56269 16.8243ZM13.1811 16.6657C13.5303 17.3688 14.585 16.9317 14.2093 16.1602L13.1712 14.0627C13.0982 13.9041 12.9862 13.7386 12.8788 13.5847L12.2508 12.6718L12.2698 12.57C12.4375 12.0289 12.5208 11.7146 12.5599 11.1883L12.6622 9.71647C12.711 8.96276 12.2595 8.42158 11.5109 8.42158C10.9623 8.42158 10.5768 8.71686 10.0798 9.19428L9.29277 9.95436C9.03941 10.2077 8.95152 10.4272 8.92222 10.7787L8.82457 11.9846C8.79757 12.3316 9.0055 12.566 9.3157 12.5757C9.63796 12.6125 9.83843 12.4046 9.86773 12.0582L9.97976 10.7551L10.2878 10.4833C10.382 10.3988 10.5274 10.4397 10.5154 10.5758L10.4424 11.5997C10.3936 12.1478 10.5177 12.4454 10.9324 12.9676L11.9556 14.2539C12.0579 14.3757 12.0751 14.4194 12.1165 14.5096ZM15.0045 10.4146L13.86 10.4146L13.2314 9.71295L13.1263 11.1002L13.2494 11.2233C13.4424 11.3791 13.5935 11.4503 13.9106 11.4503L15.0045 11.4503C15.344 11.4503 15.5761 11.2423 15.5761 10.9298C15.5761 10.6173 15.344 10.4146 15.0045 10.4146ZM12.1629 7.98838C12.7724 7.98838 13.2848 7.48111 13.2848 6.86412C13.2848 6.24713 12.7724 5.74216 12.1629 5.74216C11.5361 5.74216 11.0237 6.24713 11.0237 6.86412C11.0237 7.48111 11.5361 7.98838 12.1629 7.98838Z"
                     fill="currentColor" fill-opacity="0.85" />
       </g>
</svg>