<?xml version="1.0" encoding="UTF-8"?>
<!--Generator: Apple Native CoreSVG 326-->
<!DOCTYPE svg PUBLIC "-//W3C//DTD SVG 1.1//EN" "http://www.w3.org/Graphics/SVG/1.1/DTD/svg11.dtd">
<svg version="1.1" xmlns="http://www.w3.org/2000/svg" xmlns:xlink="http://www.w3.org/1999/xlink"
       viewBox="0 0 21.365 21.006">
       <g>
              <rect height="21.006" opacity="0" width="21.365" x="0" y="0" />
              <path d="M21.0037 10.4981C21.0037 16.2923 16.302 20.9962 10.4981 20.9962C4.70394 20.9962 0 16.2923 0 10.4981C0 4.70163 4.70394 0 10.4981 0C16.302 0 21.0037 4.70163 21.0037 10.4981ZM10.9764 6.30029L9.33903 7.39416C8.68067 7.84513 9.29021 8.66897 9.91181 8.25189L11.2567 7.33841L12.1874 7.9767C12.3288 8.07666 12.3408 8.17892 12.2581 8.30303L11.4831 9.41928C11.047 10.0478 11.4004 10.7148 12.0777 10.9228L13.8486 11.4169C14.091 11.4932 14.2105 11.6317 14.2105 11.8609C14.2105 13.1813 13.1424 14.2172 11.6883 14.2172C10.1544 14.2172 9.08634 13.1216 9.08634 11.6577C9.08634 11.2187 9.1829 10.8257 9.37888 10.493C9.69029 9.88409 8.8012 9.3878 8.44041 10.1109C8.20076 10.5682 8.06338 11.0854 8.06338 11.6577C8.06338 13.7293 9.53701 15.2356 11.6883 15.2356C13.7598 15.2356 15.2386 13.7815 15.2386 11.8219C15.2386 10.9251 14.8755 10.3667 14.0735 10.1087L13.3278 9.85303C13.2256 9.81627 13.2112 9.76514 13.2842 9.67725L13.7495 8.98553C14.1494 8.42021 14.0006 7.94225 13.4157 7.53318L11.6491 6.31005C11.4423 6.17103 11.1786 6.15611 10.9764 6.30029ZM14.6836 14.66C14.6836 14.9868 14.9324 15.2356 15.2564 15.2356C15.5833 15.2356 15.8516 14.9868 15.8516 14.66C15.8516 14.3405 15.5833 14.0774 15.2564 14.0774C14.9324 14.0774 14.6836 14.3405 14.6836 14.66ZM5.64587 12.2049C5.4138 12.2049 5.25755 12.3807 5.25755 12.6128C5.25755 12.8644 5.4138 13.0355 5.64587 13.0355L6.9729 13.0355C7.20497 13.0355 7.38591 12.8644 7.38591 12.6128C7.38591 12.3807 7.20497 12.2049 6.9729 12.2049ZM4.20395 10.3706C3.98911 10.3706 3.80071 10.5883 3.80071 10.7859C3.80071 11.0278 3.98911 11.1989 4.20395 11.1989L6.9729 11.1989C7.20497 11.1989 7.38591 11.0278 7.38591 10.7859C7.38591 10.5613 7.20497 10.3706 6.9729 10.3706ZM4.65778 8.54893C4.41825 8.54893 4.262 8.7494 4.262 8.96424C4.262 9.194 4.41825 9.37955 4.65778 9.37955L6.9729 9.37955C7.20497 9.37955 7.38591 9.20377 7.38591 8.96424C7.38591 8.73963 7.20497 8.54893 6.9729 8.54893ZM13.5231 6.54564C13.5231 7.13795 14.0057 7.61306 14.598 7.61306C15.1949 7.61306 15.6557 7.13795 15.6557 6.54564C15.6557 5.95103 15.1949 5.47306 14.598 5.47306C14.0057 5.47306 13.5231 5.95103 13.5231 6.54564Z"
                     fill="currentColor" fill-opacity="0.85" />
       </g>
</svg>