<?xml version="1.0" encoding="UTF-8"?>
<!--Generator: Apple Native CoreSVG 326-->
<!DOCTYPE svg PUBLIC "-//W3C//DTD SVG 1.1//EN" "http://www.w3.org/Graphics/SVG/1.1/DTD/svg11.dtd">
<svg version="1.1" xmlns="http://www.w3.org/2000/svg" xmlns:xlink="http://www.w3.org/1999/xlink"
       viewBox="0 0 21.365 21.006">
       <g>
              <rect height="21.006" opacity="0" width="21.365" x="0" y="0" />
              <path d="M21.0037 10.4981C21.0037 16.2923 16.302 20.9962 10.4981 20.9962C4.70394 20.9962 0 16.2923 0 10.4981C0 4.70163 4.70394 0 10.4981 0C16.302 0 21.0037 4.70163 21.0037 10.4981ZM13.6674 14.9406L13.6674 15.3968C13.6674 15.661 14.0879 15.8614 14.586 15.8614C15.084 15.8614 15.4919 15.661 15.4919 15.3968L15.4919 14.9406C15.4919 14.6689 15.0765 14.4857 14.586 14.4857C14.0879 14.4857 13.6674 14.6689 13.6674 14.9406ZM10.5221 14.6946C10.3728 14.6946 10.2631 14.8192 10.2631 14.9537C10.2631 15.0978 10.3728 15.2225 10.5221 15.2225L12.5954 15.2225C12.7396 15.2225 12.8642 15.0978 12.8642 14.9537C12.8642 14.8192 12.7419 14.6946 12.5954 14.6946ZM4.21111 12.2446L4.21111 14.3156C4.21111 14.4696 4.33576 14.5919 4.47763 14.5919C4.61435 14.5919 4.739 14.4696 4.739 14.3156L4.739 12.2446C4.739 12.1005 4.61435 11.993 4.47763 11.993C4.33576 11.993 4.21111 12.1005 4.21111 12.2446ZM9.01185 6.51713L7.34357 7.20248C6.77146 7.43225 6.87427 8.07041 7.31888 8.30248L7.89111 8.59436L7.57455 9.22749C7.08627 10.204 7.47974 11.0187 8.48045 11.3173L10.3481 11.8699L10.3481 13.9071C10.3481 14.1518 10.4974 14.2988 10.7542 14.2988L12.1881 14.2988C12.6482 14.2988 12.6729 13.6377 12.2639 13.5056L11.536 13.2792L11.536 11.3225C11.536 11.068 11.3597 10.863 11.1276 10.7504L9.73615 10.03L10.0688 9.36408L12.1066 11.3179C12.1341 11.6092 12.3623 11.8068 12.6374 11.8321L14.8217 13.93C14.9417 14.0501 15.0325 14.0621 15.1473 14.0621L16.6084 14.0621C16.8318 14.0621 17.0328 13.8709 17.0328 13.6377L17.0328 13.3844C17.0328 13.1535 16.8318 12.9525 16.6084 12.9525L15.0611 12.9525L13.2801 11.2532C13.2824 11.2216 13.2847 11.2072 13.2847 11.1733L13.2847 8.97522C13.2847 8.7403 13.2135 8.58295 13.0159 8.43647L10.7375 6.74405C10.2349 6.36549 9.60756 6.25807 9.01185 6.51713ZM7.31142 12.0683L5.51904 12.0683C5.26458 12.0683 5.14224 12.2349 5.14224 12.4721L5.14224 13.9083C5.14224 14.3735 5.79587 14.3959 5.92567 13.9893L6.15204 13.266L7.75373 13.266C8.00072 13.266 8.19888 13.1269 8.29423 12.9535L8.78834 11.9699L8.33111 11.8326C8.00369 11.7321 7.74287 11.5879 7.53263 11.4265ZM10.6974 8.37545L12.0991 9.27741L12.0991 10.1153L10.4714 8.58132L10.5525 8.41397C10.5841 8.34846 10.6244 8.33924 10.6974 8.37545ZM10.1906 5.15565C10.1906 5.82201 10.7301 6.35397 11.389 6.35397C12.0479 6.35397 12.5873 5.82201 12.5873 5.15565C12.5873 4.5042 12.0479 3.96709 11.389 3.96709C10.7301 3.96709 10.1906 4.5042 10.1906 5.15565Z"
                     fill="currentColor" fill-opacity="0.85" />
       </g>
</svg>