<?xml version="1.0" encoding="UTF-8"?>
<!--Generator: Apple Native CoreSVG 326-->
<!DOCTYPE svg PUBLIC "-//W3C//DTD SVG 1.1//EN" "http://www.w3.org/Graphics/SVG/1.1/DTD/svg11.dtd">
<svg version="1.1" xmlns="http://www.w3.org/2000/svg" xmlns:xlink="http://www.w3.org/1999/xlink"
       viewBox="0 0 21.365 21.006">
       <g>
              <rect height="21.006" opacity="0" width="21.365" x="0" y="0" />
              <path d="M10.4981 20.9962C16.302 20.9962 21.0037 16.2946 21.0037 10.4981C21.0037 4.70163 16.302 0 10.4981 0C4.70163 0 0 4.70163 0 10.4981C0 16.2946 4.70163 20.9962 10.4981 20.9962ZM10.4981 17.9484C6.37829 17.9484 3.04785 14.6179 3.04785 10.4981C3.04785 6.37829 6.37829 3.04785 10.4981 3.04785C14.6179 3.04785 17.9558 6.37829 17.9558 10.4981C17.9558 14.6179 14.6179 17.9484 10.4981 17.9484Z"
                     fill="currentColor" fill-opacity="0.85" />
              <path d="M10.956 7.05103C11.573 7.05103 12.078 6.55353 12.078 5.93884C12.078 5.32415 11.573 4.81919 10.956 4.81919C10.3413 4.81919 9.83635 5.32415 9.83635 5.93884C9.83635 6.55353 10.3413 7.05103 10.956 7.05103ZM7.15451 14.9029C6.86154 15.2056 6.92759 15.5549 7.1499 15.7651C7.33775 15.9409 7.69216 15.98 7.9656 15.7065L9.77994 13.8922C9.84139 13.8233 9.85861 13.806 9.89021 13.7354L10.8014 12.0549C10.9203 11.8262 11.214 11.8216 11.4059 11.9773L13.4196 13.5039L13.4196 15.5762C13.4196 15.9473 13.6591 16.1845 13.9986 16.1845C14.3479 16.1845 14.5777 15.9473 14.5777 15.5762L14.5777 13.2207C14.5777 13.0569 14.5041 12.9128 14.3577 12.776L12.0831 10.8204L12.0831 8.73423C12.0831 8.62736 12.1486 8.53486 12.2676 8.52048L15.5218 8.02868C15.8394 7.97985 16.0468 7.67942 16.0054 7.37153C15.9491 7.05157 15.6659 6.83673 15.3483 6.89302L8.35107 7.94212L8.35107 6.38751L7.20279 6.38751L7.20279 8.65095C7.20279 9.00767 7.50091 9.23689 7.85994 9.18576L9.49158 8.9347C9.60537 8.92263 9.68526 8.9979 9.68526 9.114L9.68526 11.0082L8.9108 13.1466ZM7.40665 7.09458C8.00411 7.09458 8.63494 6.82169 9.02502 6.39024C9.19904 6.2093 9.19904 5.98415 9.02502 5.79575C8.63494 5.37407 8.00411 5.09372 7.40665 5.09372C6.80403 5.09372 6.18067 5.37407 5.79805 5.79575C5.62919 5.98415 5.62919 6.2093 5.79805 6.3977C6.18067 6.82169 6.80403 7.09458 7.40665 7.09458Z"
                     fill="currentColor" fill-opacity="0.85" />
       </g>
</svg>