<?xml version="1.0" encoding="UTF-8"?>
<!--Generator: Apple Native CoreSVG 326-->
<!DOCTYPE svg PUBLIC "-//W3C//DTD SVG 1.1//EN" "http://www.w3.org/Graphics/SVG/1.1/DTD/svg11.dtd">
<svg version="1.1" xmlns="http://www.w3.org/2000/svg" xmlns:xlink="http://www.w3.org/1999/xlink"
       viewBox="0 0 32.6202 22.4668">
       <g>
              <rect height="22.4668" opacity="0" width="32.6202" x="0" y="0" />
              <path d="M5.39505 6.25585C3.72877 6.25585 2.38529 4.88593 2.38529 3.2834C2.38529 1.60735 3.72877 0.259269 5.39505 0.259269C7.06364 0.259269 8.37957 1.60735 8.37957 3.2834C8.37957 4.89515 7.06364 6.25585 5.39505 6.25585ZM22.9703 22.021C22.3282 22.6677 21.2949 22.6212 20.523 21.8126L15.9111 17.0439C15.7296 16.8601 15.5947 16.8434 15.3425 16.9388L11.9494 18.2014C9.63855 19.0642 7.08165 18.0873 5.95994 16.0495L3.8431 12.2116C2.91088 10.5011 3.22678 8.83877 4.81439 7.95022C6.36524 7.08635 7.97008 7.71245 8.91953 9.43217L11.9024 14.8402L14.3609 13.9234C15.7744 13.3991 16.9725 13.5656 18.1143 14.7539L22.8675 19.7208C23.6221 20.5099 23.5561 21.4404 22.9703 22.021Z"
                     fill="currentColor" fill-opacity="0.85" />
              <path d="M21.6027 4.38115L24.1895 7.65792C24.3762 7.89623 24.6489 7.90315 24.8918 7.80549C25.5117 7.5033 26.343 7.26377 26.9962 7.26377C27.6666 7.26377 28.5025 7.5033 29.1103 7.80549C29.3607 7.90315 29.6231 7.88877 29.8052 7.65792L32.404 4.38115C32.74 3.94237 32.6786 3.45136 32.2593 3.1303C31.1455 2.25546 29.0821 1.658 26.9962 1.658C24.9172 1.658 22.8641 2.25546 21.7526 3.1303C21.3259 3.45136 21.257 3.94983 21.6027 4.38115ZM24.4014 9.60303C24.0986 9.2101 23.9717 8.85393 23.9717 8.45354C23.9717 7.54303 24.7064 7.36088 24.7064 6.81631C24.7064 6.2769 23.9717 6.08213 23.9717 5.14979C23.9717 4.77408 24.0986 4.41791 24.4014 4.01983C24.7506 3.60221 25.3808 4.05658 25.0338 4.50119C24.8316 4.78901 24.7879 4.94756 24.7879 5.14979C24.7879 5.79147 25.5003 5.95463 25.5003 6.81631C25.5003 7.67569 24.7879 7.8337 24.7879 8.45354C24.7879 8.6776 24.8316 8.83901 25.0338 9.12167C25.3785 9.57143 24.7483 10.0356 24.4014 9.60303ZM26.7187 9.60303C26.4108 9.2101 26.2913 8.85393 26.2913 8.45354C26.2913 7.54303 27.0088 7.36088 27.0088 6.81631C27.0088 6.2769 26.2913 6.08213 26.2913 5.14979C26.2913 4.77408 26.4108 4.41791 26.7187 4.01983C27.0679 3.60221 27.7004 4.05658 27.3609 4.50119C27.1512 4.78901 27.0926 4.94756 27.0926 5.14979C27.0926 5.79147 27.805 5.95463 27.805 6.81631C27.805 7.67569 27.0926 7.8337 27.0926 8.45354C27.0926 8.6776 27.1512 8.83901 27.3609 9.12167C27.6981 9.57143 27.0656 10.0356 26.7187 9.60303ZM29.0429 9.60303C28.7379 9.2101 28.6109 8.85393 28.6109 8.45354C28.6109 7.54303 29.3382 7.36088 29.3382 6.81631C29.3382 6.2769 28.6109 6.08213 28.6109 5.14979C28.6109 4.77408 28.7379 4.41791 29.0429 4.01983C29.3973 3.60221 30.02 4.05658 29.6805 4.50119C29.4754 4.78901 29.4145 4.94756 29.4145 5.14979C29.4145 5.79147 30.132 5.95463 30.132 6.81631C30.132 7.67569 29.4145 7.8337 29.4145 8.45354C29.4145 8.6776 29.4754 8.83901 29.6805 9.12167C30.0177 9.57143 29.3973 10.0356 29.0429 9.60303ZM17.6823 5.16635C17.6823 4.74479 17.3268 4.38698 16.9007 4.38698L14.5153 4.38698L14.5153 3.17131C14.5153 2.41432 13.7663 2.10534 13.2098 2.61533L10.9683 4.61729C10.5984 4.94811 10.6013 5.37658 10.9683 5.71716L13.2098 7.74435C13.7336 8.22911 14.5153 7.9356 14.5153 7.166L14.5153 5.95779L16.9007 5.95779C17.3245 5.95779 17.6823 5.60459 17.6823 5.16635ZM19.128 6.28642C18.699 6.28873 18.3366 6.64423 18.3366 7.07786L18.3366 9.45576L17.1209 9.45576C16.3662 9.45576 16.0572 10.1932 16.5598 10.7543L18.5623 13.0051C18.8879 13.3772 19.3216 13.3629 19.6547 13.0027L21.6985 10.759C22.1787 10.2472 21.8944 9.45576 21.1156 9.45576L19.9074 9.45576L19.9074 7.07786C19.9074 6.64193 19.5542 6.28642 19.128 6.28642Z"
                     fill="currentColor" fill-opacity="0.85" />
       </g>
</svg>