<?xml version="1.0" encoding="UTF-8"?>
<!--Generator: Apple Native CoreSVG 326-->
<!DOCTYPE svg PUBLIC "-//W3C//DTD SVG 1.1//EN" "http://www.w3.org/Graphics/SVG/1.1/DTD/svg11.dtd">
<svg version="1.1" xmlns="http://www.w3.org/2000/svg" xmlns:xlink="http://www.w3.org/1999/xlink"
       viewBox="0 0 33.3419 22.4668">
       <g>
              <rect height="22.4668" opacity="0" width="33.3419" x="0" y="0" />
              <path d="M27.2246 6.25585C28.8984 6.25585 30.2344 4.88593 30.2344 3.2834C30.2344 1.60735 28.8984 0.259269 27.2246 0.259269C25.5561 0.259269 24.2401 1.60735 24.2401 3.2834C24.2401 4.89515 25.5561 6.25585 27.2246 6.25585ZM9.64942 22.021C10.2915 22.6677 11.3323 22.6212 12.0967 21.8126L16.7086 17.0439C16.8901 16.8601 17.025 16.8434 17.2772 16.9388L20.6703 18.2014C22.9811 19.0642 25.538 18.0873 26.6598 16.0495L28.7766 12.2116C29.7088 10.5011 29.3929 8.83877 27.8128 7.95022C26.2544 7.08635 24.6496 7.71245 23.7002 9.43217L20.7173 14.8402L18.2588 13.9234C16.843 13.3991 15.6472 13.5656 14.5054 14.7539L9.75224 19.7208C8.99755 20.5099 9.06361 21.4404 9.64942 22.021Z"
                     fill="currentColor" fill-opacity="0.85" />
              <path d="M0.215651 4.38115L2.80475 7.65792C2.98909 7.89623 3.26416 7.90315 3.50479 7.80549C4.12463 7.5033 4.95823 7.26377 5.61889 7.26377C6.28932 7.26377 7.11546 7.5033 7.72323 7.80549C7.97593 7.90315 8.23608 7.88877 8.41811 7.65792L11.017 4.38115C11.3627 3.94237 11.2915 3.45136 10.8746 3.1303C9.76073 2.25546 7.70249 1.658 5.61889 1.658C3.5376 1.658 1.47936 2.25546 0.375297 3.1303C-0.0611838 3.45136-0.120324 3.94983 0.215651 4.38115ZM3.01432 9.60303C2.71159 9.2101 2.59209 8.85393 2.59209 8.45354C2.59209 7.54303 3.31936 7.36088 3.31936 6.81631C3.31936 6.2769 2.59209 6.08213 2.59209 5.14979C2.59209 4.77408 2.71159 4.41791 3.01432 4.01983C3.36358 3.60221 4.0012 4.05658 3.65424 4.50119C3.44686 4.78901 3.40319 4.94756 3.40319 5.14979C3.40319 5.79147 4.11323 5.95463 4.11323 6.81631C4.11323 7.67569 3.40319 7.8337 3.40319 8.45354C3.40319 8.6776 3.44686 8.83901 3.65424 9.12167C3.99889 9.57143 3.36358 10.0356 3.01432 9.60303ZM5.33163 9.60303C5.02604 9.2101 4.90424 8.85393 4.90424 8.45354C4.90424 7.54303 5.63151 7.36088 5.63151 6.81631C5.63151 6.2769 4.90424 6.08213 4.90424 5.14979C4.90424 4.77408 5.02373 4.41791 5.33163 4.01983C5.68088 3.60221 6.31334 4.05658 5.98362 4.50119C5.76647 4.78901 5.71534 4.94756 5.71534 5.14979C5.71534 5.79147 6.42768 5.95463 6.42768 6.81631C6.42768 7.67569 5.71534 7.8337 5.71534 8.45354C5.71534 8.6776 5.76647 8.83901 5.98131 9.12167C6.31104 9.57143 5.68088 10.0356 5.33163 9.60303ZM7.65584 9.60303C7.35311 9.2101 7.22385 8.85393 7.22385 8.45354C7.22385 7.54303 7.96088 7.36088 7.96088 6.81631C7.96088 6.2769 7.22385 6.08213 7.22385 5.14979C7.22385 4.77408 7.3508 4.41791 7.65815 4.01983C8.01256 3.60221 8.63295 4.05658 8.30323 4.50119C8.08838 4.78901 8.03494 4.94756 8.03494 5.14979C8.03494 5.79147 8.75475 5.95463 8.75475 6.81631C8.75475 7.67569 8.03494 7.8337 8.03494 8.45354C8.03494 8.6776 8.08838 8.83901 8.30092 9.12167C8.63295 9.57143 8.01026 10.0356 7.65584 9.60303ZM14.9374 5.16635C14.9374 5.60459 15.2952 5.95779 15.7242 5.95779L18.1044 5.95779L18.1044 7.166C18.1044 7.9356 18.8935 8.22911 19.4099 7.74435L21.6514 5.71716C22.0184 5.37658 22.0213 4.94811 21.6514 4.61729L19.4099 2.61533C18.8534 2.10534 18.1044 2.41432 18.1044 3.17131L18.1044 4.38698L15.7242 4.38698C15.2929 4.38698 14.9374 4.74479 14.9374 5.16635ZM13.4991 6.28642C13.0655 6.28642 12.7123 6.64193 12.7123 7.07786L12.7123 9.45576L11.5041 9.45576C10.723 9.45576 10.4484 10.2472 10.9211 10.759L12.9627 13.0027C13.2981 13.3629 13.7318 13.3772 14.0574 13.0051L16.0599 10.7543C16.5625 10.1932 16.2535 9.45576 15.4988 9.45576L14.2831 9.45576L14.2831 7.07786C14.2831 6.64423 13.9207 6.28873 13.4991 6.28642Z"
                     fill="currentColor" fill-opacity="0.85" />
       </g>
</svg>