<?xml version="1.0" encoding="UTF-8"?>
<!--Generator: Apple Native CoreSVG 326-->
<!DOCTYPE svg PUBLIC "-//W3C//DTD SVG 1.1//EN" "http://www.w3.org/Graphics/SVG/1.1/DTD/svg11.dtd">
<svg version="1.1" xmlns="http://www.w3.org/2000/svg" xmlns:xlink="http://www.w3.org/1999/xlink"
       viewBox="0 0 21.365 21.006">
       <g>
              <rect height="21.006" opacity="0" width="21.365" x="0" y="0" />
              <path d="M10.4981 20.9962C16.302 20.9962 21.0037 16.2946 21.0037 10.4981C21.0037 4.70163 16.302 0 10.4981 0C4.70163 0 0 4.70163 0 10.4981C0 16.2946 4.70163 20.9962 10.4981 20.9962ZM10.4981 17.9484C6.37829 17.9484 3.04785 14.6179 3.04785 10.4981C3.04785 6.37829 6.37829 3.04785 10.4981 3.04785C14.6179 3.04785 17.9558 6.37829 17.9558 10.4981C17.9558 14.6179 14.6179 17.9484 10.4981 17.9484Z"
                     fill="currentColor" fill-opacity="0.85" />
              <path d="M12.8403 7.64157C13.4596 7.64157 13.96 7.13661 13.96 6.51962C13.96 5.89286 13.4596 5.39251 12.8403 5.39251C12.2233 5.39251 11.7184 5.89286 11.7184 6.51962C11.7184 7.13661 12.2233 7.64157 12.8403 7.64157ZM9.52889 16.3631C9.84654 16.3631 10.1028 16.1041 10.1028 15.7864L10.1028 11.3298C11.1966 11.1345 12.1417 10.3986 12.6071 9.40466C12.641 9.32708 12.691 9.29833 12.8611 9.35923L15.297 10.1802C15.683 10.3072 15.9467 10.0849 16.0346 9.81603C16.1202 9.55236 16.0225 9.2031 15.6635 9.08822L8.35744 6.64481C7.97427 6.52016 7.69798 6.74016 7.61986 7.00384C7.53197 7.27497 7.62962 7.62192 7.99611 7.73911L10.6222 8.62099C10.7067 8.65489 10.7355 8.72908 10.6774 8.81357C10.412 9.24447 10.0328 9.48521 9.52889 9.48521L7.11872 9.48521L7.11872 7.05782C7.11872 6.72579 6.87919 6.49372 6.52993 6.49372C6.1979 6.49372 5.96583 6.72579 5.96583 7.05782L5.96583 10.0229C5.96583 10.3865 6.15884 10.5697 6.44204 10.6163L8.59939 10.9742L8.94986 13.0948L8.94986 15.7864C8.94986 16.1041 9.20893 16.3631 9.52889 16.3631Z"
                     fill="currentColor" fill-opacity="0.85" />
       </g>
</svg>