<?xml version="1.0" encoding="UTF-8"?>
<!--Generator: Apple Native CoreSVG 326-->
<!DOCTYPE svg PUBLIC "-//W3C//DTD SVG 1.1//EN" "http://www.w3.org/Graphics/SVG/1.1/DTD/svg11.dtd">
<svg version="1.1" xmlns="http://www.w3.org/2000/svg" xmlns:xlink="http://www.w3.org/1999/xlink"
       viewBox="0 0 21.365 21.006">
       <g>
              <rect height="21.006" opacity="0" width="21.365" x="0" y="0" />
              <path d="M10.4981 20.9962C16.302 20.9962 21.0037 16.2946 21.0037 10.4981C21.0037 4.70163 16.302 0 10.4981 0C4.70163 0 0 4.70163 0 10.4981C0 16.2946 4.70163 20.9962 10.4981 20.9962ZM10.4981 17.9484C6.37829 17.9484 3.04785 14.6179 3.04785 10.4981C3.04785 6.37829 6.37829 3.04785 10.4981 3.04785C14.6179 3.04785 17.9558 6.37829 17.9558 10.4981C17.9558 14.6179 14.6179 17.9484 10.4981 17.9484Z"
                     fill="currentColor" fill-opacity="0.85" />
              <path d="M11.8649 6.61903C12.4457 6.61903 12.919 6.15544 12.919 5.57235C12.919 4.99157 12.4457 4.51821 11.8649 4.51821C11.2818 4.51821 10.8084 4.99157 10.8084 5.57235C10.8084 6.15544 11.2818 6.61903 11.8649 6.61903ZM7.2999 10.0332C7.61755 10.1699 7.90822 10.0332 8.0254 9.78388L8.83662 8.16892L9.75131 8.16892C9.82889 8.16892 9.85249 8.23157 9.82604 8.29423L8.97346 9.97986C8.61959 10.6681 9.04643 11.5418 9.94947 11.4832L12.1695 11.3396L11.3617 13.1454C11.2296 13.4389 11.3617 13.7709 11.6403 13.8835C11.9407 13.9984 12.2291 13.903 12.3635 13.5951L13.5648 10.9582C13.7089 10.6285 13.4964 10.1838 13.0713 10.1838L11.0679 10.1838L11.9366 8.44181C11.9631 8.39122 12.0332 8.37685 12.0792 8.42513L13.153 9.45294C13.4069 9.69709 13.8641 9.65056 14.0376 9.3013L14.9855 7.38591C15.1222 7.11478 15.0366 6.77013 14.746 6.63571C14.4771 6.51622 14.1423 6.61618 14.0055 6.89478L13.3902 8.12603L12.9139 7.6474C12.5335 7.26193 12.1285 7.06947 11.5018 7.06947L8.49943 7.06947C8.30181 7.06947 8.09619 7.19411 8.0083 7.36243L7.04084 9.30021C6.90642 9.56619 7.01154 9.89877 7.2999 10.0332ZM5.96364 14.6356C6.14458 14.9998 6.51853 15.0021 6.69431 14.9314L9.08482 13.8933C9.1974 13.8347 9.30252 13.7416 9.36111 13.6244L10.1712 11.9772L9.98854 11.987C9.53647 12.0237 9.17744 11.8819 8.90401 11.6619L8.41791 12.9621L6.2497 13.9003C5.97111 14.025 5.82693 14.3524 5.96364 14.6356ZM14.0783 15.1313C14.6711 15.1313 15.1422 14.6677 15.1422 14.0674C15.1422 13.4792 14.6711 13.0058 14.0783 13.0058C13.49 13.0058 13.0264 13.4792 13.0264 14.0674C13.0264 14.6677 13.49 15.1313 14.0783 15.1313ZM6.62279 5.06606C6.62279 5.25961 6.77959 5.42156 6.98806 5.42156C7.39021 5.42156 7.61373 5.48707 7.85963 5.75481C7.97451 5.89438 8.11178 5.95813 8.24158 5.95813C8.37885 5.95813 8.51611 5.89438 8.62353 5.75481C8.8792 5.48707 9.10272 5.42156 9.50487 5.42156C9.70588 5.42156 9.86783 5.25961 9.86783 5.06606C9.86783 4.85989 9.70588 4.7054 9.50487 4.7054C8.98553 4.7054 8.6219 4.81743 8.24158 5.14606C7.86127 4.81743 7.49994 4.7054 6.98806 4.7054C6.77959 4.7054 6.62279 4.85989 6.62279 5.06606ZM6.68521 16.3303C6.85869 16.3303 7.00802 16.1884 7.00802 16.015C7.00802 15.8363 6.85869 15.6921 6.68521 15.6921C6.50427 15.6921 6.36986 15.8363 6.36986 16.015C6.36986 16.1884 6.50427 16.3303 6.68521 16.3303ZM7.53373 16.3303C7.7072 16.3303 7.84908 16.1884 7.84908 16.015C7.84908 15.8363 7.7072 15.6921 7.53373 15.6921C7.35279 15.6921 7.21838 15.8363 7.21838 16.015C7.21838 16.1884 7.35279 16.3303 7.53373 16.3303ZM8.38224 16.3303C8.55572 16.3303 8.6976 16.1884 8.6976 16.015C8.6976 15.8363 8.55572 15.6921 8.38224 15.6921C8.20361 15.6921 8.06689 15.8363 8.06689 16.015C8.06689 16.1884 8.20361 16.3303 8.38224 16.3303ZM9.22561 16.3303C9.39678 16.3303 9.54611 16.1884 9.54611 16.015C9.54611 15.8363 9.39678 15.6921 9.22561 15.6921C9.04467 15.6921 8.91025 15.8363 8.91025 16.015C8.91025 16.1884 9.04467 16.3303 9.22561 16.3303ZM10.0741 16.3303C10.2528 16.3303 10.3895 16.1884 10.3895 16.015C10.3895 15.8363 10.2528 15.6921 10.0741 15.6921C9.89319 15.6921 9.75877 15.8363 9.75877 16.015C9.75877 16.1884 9.89319 16.3303 10.0741 16.3303ZM10.9226 16.3303C11.1036 16.3303 11.238 16.1884 11.238 16.015C11.238 15.8363 11.1036 15.6921 10.9226 15.6921C10.7417 15.6921 10.6073 15.8363 10.6073 16.015C10.6073 16.1884 10.7417 16.3303 10.9226 16.3303ZM11.7637 16.3303C11.9521 16.3303 12.0865 16.1884 12.0865 16.015C12.0865 15.8363 11.9521 15.6921 11.7637 15.6921C11.5977 15.6921 11.4483 15.8363 11.4483 16.015C11.4483 16.1884 11.5977 16.3303 11.7637 16.3303ZM12.6122 16.3303C12.7932 16.3303 12.9276 16.1884 12.9276 16.015C12.9276 15.8363 12.7932 15.6921 12.6122 15.6921C12.4387 15.6921 12.2969 15.8363 12.2969 16.015C12.2969 16.1884 12.4387 16.3303 12.6122 16.3303ZM13.4607 16.3303C13.6417 16.3303 13.7761 16.1884 13.7761 16.015C13.7761 15.8363 13.6417 15.6921 13.4607 15.6921C13.2896 15.6921 13.1454 15.8363 13.1454 16.015C13.1454 16.1884 13.2896 16.3303 13.4607 16.3303ZM14.3041 16.3303C14.4902 16.3303 14.6269 16.1884 14.6269 16.015C14.6269 15.8363 14.4902 15.6921 14.3041 15.6921C14.1381 15.6921 13.9887 15.8363 13.9887 16.015C13.9887 16.1884 14.1381 16.3303 14.3041 16.3303Z"
                     fill="currentColor" fill-opacity="0.85" />
       </g>
</svg>