<?xml version="1.0" encoding="UTF-8"?>
<!--Generator: Apple Native CoreSVG 326-->
<!DOCTYPE svg PUBLIC "-//W3C//DTD SVG 1.1//EN" "http://www.w3.org/Graphics/SVG/1.1/DTD/svg11.dtd">
<svg version="1.1" xmlns="http://www.w3.org/2000/svg" xmlns:xlink="http://www.w3.org/1999/xlink"
       viewBox="0 0 21.3972 23.6313">
       <g>
              <rect height="23.6313" opacity="0" width="21.3972" x="0" y="0" />
              <path d="M18.0261 6.61432C19.6998 6.61432 21.0358 5.23694 21.0358 3.63441C21.0358 1.95836 19.6998 0.617737 18.0261 0.617737C16.3575 0.617737 15.0416 1.95836 15.0416 3.63441C15.0416 5.24616 16.3575 6.61432 18.0261 6.61432ZM0.450857 22.372C1.09296 23.0188 2.1337 22.9722 2.90561 22.171L7.51001 17.4024C7.69149 17.2186 7.82645 17.1944 8.08606 17.2898L11.4718 18.5524C13.79 19.4152 16.3395 18.4458 17.4612 16.408L19.578 12.5701C20.5102 10.8596 20.2018 9.18977 18.6142 8.30868C17.0656 7.44482 15.451 8.07091 14.5016 9.78317L11.5262 15.1987L9.0602 14.2819C7.64673 13.7501 6.44865 13.9241 5.30686 15.1124L0.553669 20.0718C-0.201014 20.8609-0.127499 21.7988 0.450857 22.372Z"
                     fill="currentColor" fill-opacity="0.85" />
              <path d="M0 3.658C0 4.28343 0.510542 4.78881 1.13597 4.78881L5.48871 4.78881L5.48871 6.34464C5.48871 7.24241 6.38878 7.63874 7.05163 7.03448L10.0703 4.31284C10.508 3.92398 10.508 3.40585 10.0703 3.00492L7.05163 0.283279C6.42554-0.284219 5.48871 0.0288272 5.48871 0.973121L5.48871 2.5318L1.13597 2.5318C0.510542 2.5318 0 3.03488 0 3.658Z"
                     fill="currentColor" fill-opacity="0.85" />
       </g>
</svg>