<?xml version="1.0" encoding="UTF-8"?>
<!--Generator: Apple Native CoreSVG 326-->
<!DOCTYPE svg PUBLIC "-//W3C//DTD SVG 1.1//EN" "http://www.w3.org/Graphics/SVG/1.1/DTD/svg11.dtd">
<svg version="1.1" xmlns="http://www.w3.org/2000/svg" xmlns:xlink="http://www.w3.org/1999/xlink"
       viewBox="0 0 22.3764 19.5132">
       <g>
              <rect height="19.5132" opacity="0" width="22.3764" x="0" y="0" />
              <path d="M0.390277 9.16732L3.81098 12.5903C4.34972 13.1291 5.23882 13.1463 5.7678 12.495L7.71644 10.0977C7.83077 9.94887 7.97847 10.0218 7.97847 10.1948L7.97847 14.1927L4.30945 13.7751C2.78625 13.5987 2.27165 15.8445 3.75347 16.3344L7.98769 17.7509C7.86468 18.7096 8.73601 19.4966 9.71475 19.1761L11.0113 18.7561L12.3078 19.1761C13.2791 19.4966 14.1504 18.7096 14.0274 17.7509L18.2714 16.3344C19.7457 15.8445 19.2363 13.5987 17.7131 13.7751L14.0441 14.1927L14.0441 10.1948C14.0441 10.0218 14.1941 9.96379 14.3061 10.0977L16.2547 12.495C16.7763 13.1463 17.6654 13.1291 18.2041 12.5903L21.6248 9.16732C22.144 8.64579 22.1538 7.83021 21.6248 7.31846C21.1303 6.79409 20.2952 6.80155 19.776 7.31846L17.3788 9.70303L14.9253 6.70037C14.4704 6.14264 13.7805 5.78538 13.0367 5.78538L8.98815 5.78538C8.23456 5.78538 7.54703 6.14264 7.0898 6.70037L4.63632 9.70303L2.2466 7.31846C1.71992 6.80155 0.884806 6.79409 0.390277 7.31846C-0.131244 7.83021-0.128939 8.64579 0.390277 9.16732ZM11.0113 4.78237C12.3249 4.78237 13.3915 3.70596 13.3915 2.38773C13.3915 1.0741 12.3249 0 11.0113 0C9.69304 0 8.61663 1.0741 8.61663 2.38773C8.61663 3.70596 9.69304 4.78237 11.0113 4.78237Z"
                     fill="currentColor" fill-opacity="0.85" />
       </g>
</svg>