<?xml version="1.0" encoding="UTF-8"?>
<!--Generator: Apple Native CoreSVG 326-->
<!DOCTYPE svg PUBLIC "-//W3C//DTD SVG 1.1//EN" "http://www.w3.org/Graphics/SVG/1.1/DTD/svg11.dtd">
<svg version="1.1" xmlns="http://www.w3.org/2000/svg" xmlns:xlink="http://www.w3.org/1999/xlink"
       viewBox="0 0 21.4023 22.652">
       <g>
              <rect height="22.652" opacity="0" width="21.4023" x="0" y="0" />
              <path d="M3.00745 6.27451C4.67834 6.27451 5.99197 4.9115 5.99197 3.2946C5.99197 1.62601 4.67834 0.275621 3.00745 0.275621C1.33601 0.275621 0 1.62601 0 3.2946C0 4.90459 1.33601 6.27451 3.00745 6.27451ZM4.82834 17.5108L8.50162 13.007L6.53424 9.44852C5.58994 7.7311 3.97018 7.09294 2.42163 7.96657C0.809334 8.80289 0.515819 10.5152 1.45781 12.228L3.47104 15.8851C3.86913 16.6003 4.36651 17.1466 4.82834 17.5108ZM20.5827 22.0276C21.1633 21.4567 21.242 20.5188 20.4799 19.7297L15.729 14.7703C14.5923 13.582 13.3943 13.408 11.9756 13.9398L10.0076 14.6689L6.93954 18.4475C7.65176 18.5945 8.60121 18.5785 9.47945 18.2408L12.9498 16.9477C13.2168 16.8523 13.3495 16.8765 13.5258 17.0602L18.1279 21.8289C18.9096 22.6278 19.9429 22.6766 20.5827 22.0276ZM2.57491 22.0851C3.08436 22.4717 3.70748 22.4509 4.21802 21.81L6.93954 18.4475C6.13439 18.2408 5.43084 17.9295 4.82834 17.5108L2.48132 20.4001C1.99085 21.0158 2.04253 21.6458 2.57491 22.0851Z"
                     fill="currentColor" fill-opacity="0.85" />
              <path d="M15.3144 11.3968C18.481 11.3968 21.0387 8.78567 21.0387 5.73631C21.0387 2.54737 18.481 0 15.3144 0C12.1577 0 9.65626 2.54737 9.65626 5.73631C9.65626 8.78567 12.1502 11.3968 15.3144 11.3968Z"
                     fill="currentColor" fill-opacity="0.85" />
       </g>
</svg>