<?xml version="1.0" encoding="UTF-8"?>
<!--Generator: Apple Native CoreSVG 326-->
<!DOCTYPE svg PUBLIC "-//W3C//DTD SVG 1.1//EN" "http://www.w3.org/Graphics/SVG/1.1/DTD/svg11.dtd">
<svg version="1.1" xmlns="http://www.w3.org/2000/svg" xmlns:xlink="http://www.w3.org/1999/xlink"
       viewBox="0 0 21.365 21.006">
       <g>
              <rect height="21.006" opacity="0" width="21.365" x="0" y="0" />
              <path d="M21.0037 10.4981C21.0037 16.2923 16.302 20.9962 10.4981 20.9962C4.70394 20.9962 0 16.2923 0 10.4981C0 4.70163 4.70394 0 10.4981 0C16.302 0 21.0037 4.70163 21.0037 10.4981ZM8.46267 13.463L6.72712 15.1693C6.45138 15.4376 6.47267 15.8287 6.72712 16.0487C6.97181 16.2521 7.30439 16.2366 7.57267 15.9781L9.23525 14.3253C9.39381 14.169 9.43802 14.1323 9.51845 13.8956L10.1775 12.1967L9.92764 12.0617C9.59154 11.8744 9.25951 11.6693 9.03951 11.3712ZM10.3337 7.31142L8.5149 7.43322C8.2047 7.46021 7.97494 7.67275 7.92842 8.00248L7.68482 9.84315C7.63599 10.1924 7.8267 10.4515 8.15412 10.4957C8.47177 10.5175 8.68947 10.3171 8.74806 9.96779L8.95029 8.52576L9.6317 8.46716C9.75064 8.4574 9.86158 8.54474 9.81791 8.69244L9.39623 10.1649C9.13025 11.0897 9.74549 11.3534 10.1942 11.6022L12.0671 12.6667L10.8841 13.6992C10.6009 13.9433 10.5711 14.2753 10.7715 14.508C10.9869 14.7452 11.3167 14.7544 11.6194 14.5057L13.4089 12.9867C13.6801 12.7569 13.6312 12.2635 13.3061 12.0435L11.4079 10.8106L11.7756 9.52197C11.8119 9.38404 11.9642 9.37197 12.044 9.48806L12.622 10.3171C12.7736 10.5445 13.0545 10.6077 13.2987 10.5101L14.9273 9.78103C15.2622 9.63455 15.3742 9.33873 15.2301 9.04807C15.1008 8.74994 14.8148 8.65689 14.485 8.80107L13.2378 9.36639L12.3852 8.17025C11.9021 7.50158 11.292 7.2356 10.3337 7.31142ZM10.8278 5.89068C10.8278 6.54212 11.3649 7.09646 12.0313 7.09646C12.6902 7.09646 13.225 6.54212 13.225 5.89068C13.225 5.22661 12.6902 4.69466 12.0313 4.69466C11.3649 4.69466 10.8278 5.22661 10.8278 5.89068Z"
                     fill="currentColor" fill-opacity="0.85" />
       </g>
</svg>