<?xml version="1.0" encoding="UTF-8"?>
<!--Generator: Apple Native CoreSVG 326-->
<!DOCTYPE svg PUBLIC "-//W3C//DTD SVG 1.1//EN" "http://www.w3.org/Graphics/SVG/1.1/DTD/svg11.dtd">
<svg version="1.1" xmlns="http://www.w3.org/2000/svg" xmlns:xlink="http://www.w3.org/1999/xlink"
       viewBox="0 0 27.4323 22.3959">
       <g>
              <rect height="22.3959" opacity="0" width="27.4323" x="0" y="0" />
              <path d="M21.046 5.99658C22.7174 5.99658 24.0534 4.6192 24.0534 3.01667C24.0534 1.34062 22.7174 0 21.046 0C19.3751 0 18.0614 1.34062 18.0614 3.01667C18.0614 4.62842 19.3751 5.99658 21.046 5.99658ZM3.46843 21.7543C4.11053 22.401 5.15127 22.3545 5.91802 21.5533L10.5276 16.7846C10.7091 16.6008 10.844 16.5767 11.0985 16.672L14.4916 17.9347C16.8001 18.7974 19.3593 17.828 20.4788 15.7902L22.5956 11.9523C23.5278 10.2418 23.2142 8.57204 21.6318 7.69095C20.0758 6.82708 18.4686 7.45318 17.5192 9.16544L14.5386 14.5809L12.0778 13.6642C10.6643 13.1323 9.46622 13.3064 8.32443 14.4947L3.57124 19.454C2.81656 20.2432 2.88261 21.1811 3.46843 21.7543Z"
                     fill="currentColor" fill-opacity="0.85" />
              <path d="M0.303515 3.96005L3.79815 8.41336C4.05424 8.72344 4.43322 8.75504 4.7749 8.59309C5.58654 8.20762 6.70783 7.86703 7.60966 7.86703C8.5138 7.86703 9.63509 8.20762 10.4467 8.59309C10.7861 8.75504 11.1823 8.72344 11.4235 8.41336L14.9181 3.96005C15.3896 3.37084 15.3109 2.70472 14.724 2.25277C13.2209 1.07246 10.4288 0.265977 7.60966 0.265977C4.79279 0.265977 2.00073 1.07246 0.49531 2.25277C-0.0892939 2.70472-0.160504 3.37084 0.303515 3.96005ZM4.08694 11.0355C3.68085 10.4996 3.50967 10.0153 3.50967 9.49207C3.50967 8.2468 4.49764 7.99574 4.49764 7.25938C4.49764 6.53048 3.50967 6.28173 3.50967 5.01693C3.50967 4.51087 3.68085 4.02896 4.08924 3.49076C4.55678 2.91064 5.42119 3.53498 4.95596 4.13462C4.6699 4.53325 4.609 4.74579 4.609 5.01693C4.609 5.88255 5.57228 6.10485 5.57228 7.25938C5.57228 8.42367 4.609 8.64367 4.609 9.49207C4.609 9.78273 4.6699 9.99297 4.95596 10.3841C5.42119 10.9889 4.55447 11.6133 4.08694 11.0355ZM7.22134 11.0355C6.81525 10.4996 6.64408 10.0153 6.64408 9.49207C6.64408 8.2468 7.62228 7.99574 7.62228 7.25938C7.62228 6.53048 6.64408 6.28173 6.64408 5.01693C6.64408 4.51087 6.81294 4.02896 7.22134 3.49076C7.69634 2.91064 8.55559 3.53498 8.09782 4.13462C7.80431 4.53325 7.74341 4.74579 7.74341 5.01693C7.74341 5.88255 8.70438 6.10485 8.70438 7.25938C8.70438 8.42367 7.74341 8.64367 7.74341 9.49207C7.74341 9.78273 7.80431 9.99297 8.09782 10.3841C8.55329 10.9889 7.69634 11.6133 7.22134 11.0355ZM10.373 11.0355C9.96457 10.4996 9.79571 10.0153 9.79571 9.49207C9.79571 8.2468 10.7814 7.99574 10.7814 7.25938C10.7814 6.53048 9.79571 6.28173 9.79571 5.01693C9.79571 4.51087 9.96457 4.02896 10.373 3.49076C10.8405 2.91064 11.7072 3.53498 11.242 4.13462C10.9536 4.53325 10.895 4.74579 10.895 5.01693C10.895 5.88255 11.856 6.10485 11.856 7.25938C11.856 8.42367 10.895 8.64367 10.895 9.49207C10.895 9.78273 10.9536 9.99297 11.2397 10.3841C11.7049 10.9889 10.8382 11.6133 10.373 11.0355Z"
                     fill="currentColor" fill-opacity="0.85" />
       </g>
</svg>