<?xml version="1.0" encoding="UTF-8"?>
<!--Generator: Apple Native CoreSVG 326-->
<!DOCTYPE svg PUBLIC "-//W3C//DTD SVG 1.1//EN" "http://www.w3.org/Graphics/SVG/1.1/DTD/svg11.dtd">
<svg version="1.1" xmlns="http://www.w3.org/2000/svg" xmlns:xlink="http://www.w3.org/1999/xlink"
       viewBox="0 0 20.5191 19.7678">
       <g>
              <rect height="19.7678" opacity="0" width="20.5191" x="0" y="0" />
              <path d="M4.0694 5.27612C5.38533 5.27612 6.45197 4.20202 6.45197 2.88609C6.45197 1.57246 5.38533 0.503517 4.0694 0.503517C2.75346 0.503517 1.67937 1.57246 1.67937 2.88609C1.67937 4.20202 2.75346 5.27612 4.0694 5.27612ZM0.0295214 9.5642L0.633231 13.2319C0.895144 14.7746 3.02599 14.4513 2.77615 12.9332L2.2781 9.87834L4.25306 9.09939C4.50357 9.00459 4.72248 9.06603 4.82705 9.29701L6.72037 13.0446C7.31947 14.2181 7.80599 14.58 8.28505 14.9246L14.4722 19.4672C15.7088 20.3781 17.1952 18.5757 15.8167 17.5522L10.9979 14.0287C10.8404 13.9224 10.86 13.7167 11.022 13.6247L14.2417 11.7831L18.473 13.8033C19.8612 14.4621 20.9755 12.4881 19.3546 11.7144L14.7753 9.52471C14.2009 9.25588 13.6282 9.31909 13.1016 9.63268L10.9463 10.8786C10.7475 10.9976 10.6119 10.9642 10.5441 10.8113L8.81161 7.27292C8.6852 7.01264 8.73919 6.76959 8.98399 6.6558L10.5625 5.9349C11.1352 5.67069 11.3431 5.45991 11.5022 4.92171L12.504 1.43956C12.9376-0.0566413 10.8998-0.612615 10.4713 0.876128L9.5063 4.22277L0.812955 8.03409C0.164481 8.32299-0.0928219 8.83475 0.0295214 9.5642Z"
                     fill="currentColor" fill-opacity="0.85" />
       </g>
</svg>