<?xml version="1.0" encoding="UTF-8"?>
<!--Generator: Apple Native CoreSVG 326-->
<!DOCTYPE svg PUBLIC "-//W3C//DTD SVG 1.1//EN" "http://www.w3.org/Graphics/SVG/1.1/DTD/svg11.dtd">
<svg version="1.1" xmlns="http://www.w3.org/2000/svg" xmlns:xlink="http://www.w3.org/1999/xlink"
       viewBox="0 0 20.5221 24.8646">
       <g>
              <rect height="24.8646" opacity="0" width="20.5221" x="0" y="0" />
              <path d="M2.39464 4.77491C3.70596 4.77491 4.77491 3.70596 4.77491 2.38027C4.77491 1.0741 3.70596 0 2.39464 0C1.0764 0 0 1.0741 0 2.38027C0 3.70596 1.0764 4.77491 2.39464 4.77491ZM1.3462 13.3732L5.516 13.3732L5.72284 13.58C6.25588 14.1206 6.99455 14.3945 7.70623 14.3945C8.29557 14.3945 8.88775 14.2136 9.39896 13.8345L14.4981 10.0255L19.5605 6.97126C20.1412 6.62322 20.3273 5.89092 19.9965 5.32518C19.6438 4.74452 18.9115 4.57565 18.3383 4.91854L8.78439 10.6347L6.18619 8.0342C6.09545 7.94576 6.00768 8.18614 6.12541 8.18614L8.59084 8.18614C9.26455 8.18614 9.81076 7.64224 9.81076 6.97599L9.81076 2.45815C9.81076 1.78214 9.26455 1.24569 8.59084 1.24569C7.91713 1.24569 7.38815 1.78214 7.38815 2.45815L7.38815 5.77561L2.37499 5.77561C1.15156 5.77561 0.143512 6.77389 0.143512 8.00709L0.143512 12.1705C0.143512 12.8247 0.685111 13.3732 1.3462 13.3732ZM2.3887 11.0964L2.3887 10.2932C2.3887 10.2013 2.50764 10.1404 2.59784 10.2306L3.44878 11.0964ZM7.83033 24.752C8.45752 24.8571 9.1433 24.4579 9.28056 23.7917L10.3117 18.6167C10.3335 18.4748 10.3335 18.3398 10.3214 18.2031L10.1433 14.7339C9.35759 15.2716 8.51096 15.5484 7.70623 15.5484C7.58104 15.5484 7.45354 15.5484 7.31858 15.5386L7.87928 18.3691L6.88725 23.3115C6.75745 23.9755 7.18362 24.6147 7.83033 24.752ZM9.11873 4.17896C10.0584 4.17896 10.8516 3.41275 10.8516 2.45815C10.8516 1.50124 10.0584 0.735031 9.11873 0.735031C8.16643 0.735031 7.38815 1.50124 7.38815 2.45815C7.38815 3.41275 8.16643 4.17896 9.11873 4.17896Z"
                     fill="currentColor" fill-opacity="0.85" />
       </g>
</svg>