<?xml version="1.0" encoding="UTF-8"?>
<!--Generator: Apple Native CoreSVG 326-->
<!DOCTYPE svg PUBLIC "-//W3C//DTD SVG 1.1//EN" "http://www.w3.org/Graphics/SVG/1.1/DTD/svg11.dtd">
<svg version="1.1" xmlns="http://www.w3.org/2000/svg" xmlns:xlink="http://www.w3.org/1999/xlink"
       viewBox="0 0 21.365 21.006">
       <g>
              <rect height="21.006" opacity="0" width="21.365" x="0" y="0" />
              <path d="M10.4981 20.9962C16.302 20.9962 21.0037 16.2946 21.0037 10.4981C21.0037 4.70163 16.302 0 10.4981 0C4.70163 0 0 4.70163 0 10.4981C0 16.2946 4.70163 20.9962 10.4981 20.9962ZM10.4981 17.9484C6.37829 17.9484 3.04785 14.6179 3.04785 10.4981C3.04785 6.37829 6.37829 3.04785 10.4981 3.04785C14.6179 3.04785 17.9558 6.37829 17.9558 10.4981C17.9558 14.6179 14.6179 17.9484 10.4981 17.9484Z"
                     fill="currentColor" fill-opacity="0.85" />
              <path d="M9.55291 8.24431C10.1676 8.24431 10.6749 7.74681 10.6749 7.12005C10.6749 6.50536 10.1676 6.0004 9.55291 6.0004C8.93591 6.0004 8.43326 6.50536 8.43326 7.12005C8.43326 7.74681 8.93591 8.24431 9.55291 8.24431ZM6.68388 10.6474C6.68388 11.0897 7.15087 11.2948 7.49266 11.119L9.12607 10.2986C9.19904 10.2647 9.25939 10.2935 9.28123 10.359L9.74373 12.2601L8.99627 14.1101L7.24337 14.1101C6.94294 14.1101 6.68388 14.3617 6.68388 14.6598C6.68388 14.9603 6.94294 15.2044 7.24337 15.2044L9.35298 15.2044C9.60228 15.2044 9.76599 15.0993 9.88318 14.8845L10.8266 13.1435L11.3196 14.445L9.54951 15.6257C9.2956 15.7917 9.22955 16.1461 9.39326 16.3902C9.55927 16.6246 9.8867 16.7102 10.1555 16.5344L12.314 15.1021C12.4995 14.9775 12.5949 14.7891 12.507 14.4668L11.2304 9.39271C11.216 9.31052 11.2281 9.24041 11.3126 9.20189L14.1031 7.81384C14.3742 7.67942 14.4891 7.3497 14.3524 7.07856C14.2157 6.80513 13.8808 6.69485 13.6022 6.82927L7.80055 9.73639L7.80055 8.25517C7.80055 7.9622 7.5438 7.7129 7.24337 7.7129C6.94294 7.7129 6.68388 7.9622 6.68388 8.25517ZM12.9087 6.57172C13.47 6.57172 13.9215 6.1202 13.9215 5.55664C13.9215 5.00285 13.47 4.54903 12.9087 4.54903C12.3526 4.54903 11.9011 5.00285 11.9011 5.55664C11.9011 6.1202 12.3526 6.57172 12.9087 6.57172Z"
                     fill="currentColor" fill-opacity="0.85" />
       </g>
</svg>