<?xml version="1.0" encoding="UTF-8"?>
<!--Generator: Apple Native CoreSVG 326-->
<!DOCTYPE svg PUBLIC "-//W3C//DTD SVG 1.1//EN" "http://www.w3.org/Graphics/SVG/1.1/DTD/svg11.dtd">
<svg version="1.1" xmlns="http://www.w3.org/2000/svg" xmlns:xlink="http://www.w3.org/1999/xlink"
       viewBox="0 0 21.365 21.006">
       <g>
              <rect height="21.006" opacity="0" width="21.365" x="0" y="0" />
              <path d="M10.4981 20.9962C16.302 20.9962 21.0037 16.2946 21.0037 10.4981C21.0037 4.70163 16.302 0 10.4981 0C4.70163 0 0 4.70163 0 10.4981C0 16.2946 4.70163 20.9962 10.4981 20.9962ZM10.4981 17.9484C6.37829 17.9484 3.04785 14.6179 3.04785 10.4981C3.04785 6.37829 6.37829 3.04785 10.4981 3.04785C14.6179 3.04785 17.9558 6.37829 17.9558 10.4981C17.9558 14.6179 14.6179 17.9484 10.4981 17.9484Z"
                     fill="currentColor" fill-opacity="0.85" />
              <path d="M12.7427 6.99122C13.3499 6.99122 13.8623 6.49602 13.8623 5.86926C13.8623 5.25688 13.3499 4.74961 12.7427 4.74961C12.1182 4.74961 11.6133 5.25688 11.6133 5.86926C11.6133 6.49602 12.1182 6.99122 12.7427 6.99122ZM10.2591 14.5305C10.5791 14.5305 10.8428 14.2714 10.8428 13.9537L10.8428 11.4374C10.8428 11.2932 10.7939 11.1737 10.7083 11.0783L9.58572 9.68514C9.54259 9.63224 9.55181 9.56728 9.60471 9.5483L10.9612 8.8422C11.021 8.80599 11.0836 8.83013 11.0882 8.89224L11.21 9.7299C11.237 9.94474 11.364 10.0912 11.5811 10.2038L12.9577 10.8858C13.3678 11.1006 13.6924 10.9346 13.8147 10.6709C13.9221 10.417 13.8566 10.0724 13.5022 9.88912L12.3043 9.27553L12.117 7.86103C12.0073 7.03665 11.0876 6.52653 10.2293 6.9729L8.41439 7.92314C7.53373 8.38158 7.41193 9.40127 8.06799 10.0499L9.69963 11.6792L9.69963 13.9537C9.69963 14.2714 9.961 14.5305 10.2591 14.5305ZM6.40013 11.5589C6.60751 11.9272 6.98837 12.0346 7.37153 11.9616L8.40912 11.7278C8.58775 11.7008 8.70779 11.544 8.70779 11.3608C8.70779 11.1747 8.57798 11.0328 8.39704 11.011L6.62122 10.699C6.25188 10.6306 6.06349 10.9414 6.2272 11.2447ZM7.14419 11.4838L8.4449 15.3561L9.22603 15.0815L7.94255 11.2362ZM10.2494 16.2994C11.3983 16.2994 12.2985 15.3796 12.2985 14.2577C12.2985 13.4672 11.8544 12.7888 11.2053 12.4401L11.2053 13.5714C11.3467 13.7553 11.4158 13.9921 11.4158 14.2577C11.4158 14.919 10.9205 15.4166 10.2494 15.4166C9.6024 15.4166 9.08755 14.9093 9.08755 14.2577C9.08755 13.9847 9.18357 13.7358 9.34455 13.5467L9.34455 12.4378C8.68104 12.7572 8.20998 13.4649 8.20998 14.2577C8.20998 15.3796 9.13947 16.2994 10.2494 16.2994ZM11.2652 15.1476L12.0636 15.4146L13.2391 11.829C13.3126 11.6084 13.2 11.366 12.9893 11.2925C12.7469 11.2265 12.5436 11.3563 12.47 11.5544ZM7.5515 15.7038C7.28443 15.8801 7.37287 16.3017 7.70369 16.3017L12.8123 16.3017C13.1356 16.3017 13.2166 15.8778 12.9593 15.7038L11.7718 14.9259L10.7262 15.6573L9.79201 15.6573L8.73896 14.9259Z"
                     fill="currentColor" fill-opacity="0.85" />
       </g>
</svg>