<?xml version="1.0" encoding="UTF-8"?>
<!--Generator: Apple Native CoreSVG 326-->
<!DOCTYPE svg PUBLIC "-//W3C//DTD SVG 1.1//EN" "http://www.w3.org/Graphics/SVG/1.1/DTD/svg11.dtd">
<svg version="1.1" xmlns="http://www.w3.org/2000/svg" xmlns:xlink="http://www.w3.org/1999/xlink"
       viewBox="0 0 21.365 21.006">
       <g>
              <rect height="21.006" opacity="0" width="21.365" x="0" y="0" />
              <path d="M21.0037 10.4981C21.0037 16.2923 16.302 20.9962 10.4981 20.9962C4.70394 20.9962 0 16.2923 0 10.4981C0 4.70163 4.70394 0 10.4981 0C16.302 0 21.0037 4.70163 21.0037 10.4981ZM10.4786 14.8923C9.58057 14.8923 9.28123 14.0587 7.8933 14.0587C6.49275 14.0587 6.19857 14.8923 5.30055 14.8923L5.2638 14.8923C5.04325 14.8923 4.86231 15.0733 4.86231 15.2961C4.86231 15.5167 5.04325 15.6976 5.2638 15.6976L5.30055 15.6976C6.75169 15.6976 7.02173 14.864 7.8933 14.864C8.74994 14.864 9.02975 15.6976 10.4786 15.6976C11.9349 15.6976 12.2124 14.864 13.069 14.864C13.9429 14.864 14.2106 15.6976 15.6595 15.6976L15.6887 15.6976C15.9041 15.6976 16.0851 15.5167 16.0851 15.2961C16.0851 15.0733 15.9041 14.8923 15.6887 14.8923L15.6595 14.8923C14.7637 14.8923 14.4696 14.0587 13.069 14.0587C11.6759 14.0587 11.372 14.8923 10.4786 14.8923ZM9.60252 3.77275L4.75908 12.5537C4.52931 12.9667 4.76884 13.3648 5.179 13.3648L12.2319 13.3648L14.3208 11.2696C14.4184 11.1771 14.5541 11.1719 14.6517 11.2696L15.4176 12.0229L14.58 12.8605C14.0348 13.4057 14.8562 14.2098 15.3916 13.6768L16.64 12.4336C16.872 12.1917 16.8697 11.8494 16.64 11.6173L15.1894 10.1742C14.8843 9.86917 14.4989 9.69569 14.0939 9.69569L10.5699 9.69569L10.5699 3.92954C10.5699 3.45794 9.87826 3.2724 9.60252 3.77275ZM9.70721 5.65733L9.70721 12.4924L5.92543 12.4924C5.85653 12.4924 5.84907 12.443 5.8686 12.3988L9.60386 5.63495C9.63085 5.57636 9.70721 5.59589 9.70721 5.65733ZM11.4675 10.9905L10.5699 11.8783L10.5699 10.8692L11.4117 10.8692C11.4944 10.8692 11.506 10.9496 11.4675 10.9905ZM12.5394 7.9958C12.5394 8.65241 13.0862 9.19182 13.7451 9.19182C14.4092 9.19182 14.936 8.65241 14.936 7.9958C14.936 7.33459 14.4092 6.79748 13.7451 6.79748C13.0862 6.79748 12.5394 7.33459 12.5394 7.9958Z"
                     fill="currentColor" fill-opacity="0.85" />
       </g>
</svg>