<?xml version="1.0" encoding="UTF-8"?>
<!--Generator: Apple Native CoreSVG 326-->
<!DOCTYPE svg PUBLIC "-//W3C//DTD SVG 1.1//EN" "http://www.w3.org/Graphics/SVG/1.1/DTD/svg11.dtd">
<svg version="1.1" xmlns="http://www.w3.org/2000/svg" xmlns:xlink="http://www.w3.org/1999/xlink"
       viewBox="0 0 21.365 21.006">
       <g>
              <rect height="21.006" opacity="0" width="21.365" x="0" y="0" />
              <path d="M10.4981 20.9962C16.302 20.9962 21.0037 16.2946 21.0037 10.4981C21.0037 4.70163 16.302 0 10.4981 0C4.70163 0 0 4.70163 0 10.4981C0 16.2946 4.70163 20.9962 10.4981 20.9962ZM10.4981 17.9484C6.37829 17.9484 3.04785 14.6179 3.04785 10.4981C3.04785 6.37829 6.37829 3.04785 10.4981 3.04785C14.6179 3.04785 17.9558 6.37829 17.9558 10.4981C17.9558 14.6179 14.6179 17.9484 10.4981 17.9484Z"
                     fill="currentColor" fill-opacity="0.85" />
              <path d="M11.9601 7.29341C12.5696 7.29341 13.0798 6.78845 13.0798 6.17145C13.0798 5.5493 12.5696 5.0518 11.9601 5.0518C11.338 5.0518 10.8405 5.5493 10.8405 6.17145C10.8405 6.78845 11.338 7.29341 11.9601 7.29341ZM10.2338 11.5258L12.0033 12.5312L10.8841 13.5022C10.6233 13.7291 10.5883 14.0439 10.779 14.2616C10.9846 14.4816 11.2994 14.4909 11.5752 14.2593L13.2539 12.8265C13.5078 12.6042 13.459 12.1452 13.1585 11.9499L11.381 10.7934L11.7217 9.57365C11.7579 9.44548 11.8953 9.43341 11.9728 9.5472L12.5112 10.3268C12.6628 10.5371 12.9167 10.6003 13.1436 10.5026L14.6787 9.82295C14.9889 9.68623 15.0986 9.40017 14.9642 9.12674C14.835 8.8533 14.5661 8.76771 14.2685 8.90213L13.0925 9.42553L12.2893 8.30806C11.8406 7.6813 11.265 7.43255 10.3682 7.49861L8.66763 7.62787C8.37236 7.6474 8.15236 7.83525 8.12076 8.14775L7.87947 9.8776C7.83294 10.2022 8.01388 10.4515 8.32177 10.4882C8.6222 10.5101 8.82497 10.3268 8.8738 10.0022L9.07087 8.63888L9.70576 8.58775C9.82701 8.57798 9.91842 8.66533 9.88221 8.7958L9.48752 10.1821C9.24623 11.0553 9.81955 11.2943 10.2338 11.5258ZM6.98837 15.6991C7.20837 15.8949 7.52372 15.8795 7.76962 15.6307L9.34607 14.0864C9.48509 13.9399 9.52185 13.9032 9.60228 13.6912L10.2096 12.0881L9.99193 11.9606C9.67307 11.7831 9.35826 11.5855 9.15779 11.3046L8.6131 13.2759L6.98837 14.8787C6.72239 15.1298 6.74368 15.4888 6.98837 15.6991Z"
                     fill="currentColor" fill-opacity="0.85" />
       </g>
</svg>