<?xml version="1.0" encoding="UTF-8"?>
<!--Generator: Apple Native CoreSVG 326-->
<!DOCTYPE svg PUBLIC "-//W3C//DTD SVG 1.1//EN" "http://www.w3.org/Graphics/SVG/1.1/DTD/svg11.dtd">
<svg version="1.1" xmlns="http://www.w3.org/2000/svg" xmlns:xlink="http://www.w3.org/1999/xlink"
       viewBox="0 0 34.5092 21.7667">
       <g>
              <rect height="21.7667" opacity="0" width="34.5092" x="0" y="0" />
              <path d="M16.7184 6.8767L16.7184 9.56079C16.7184 10.319 17.2859 10.894 18.0641 10.894L20.2749 10.894C21.0382 10.894 21.6057 10.319 21.6057 9.56079L21.6057 6.8767C21.6057 6.09612 21.0382 5.52116 20.2749 5.52116L18.0641 5.52116C17.2859 5.52116 16.7184 6.09612 16.7184 6.8767ZM22.9883 6.8767L22.9883 9.56079C22.9883 10.319 23.5558 10.894 24.3214 10.894L26.5299 10.894C27.3104 10.894 27.8808 10.319 27.8808 9.56079L27.8808 6.8767C27.8808 6.09612 27.3104 5.52116 26.5299 5.52116L24.3214 5.52116C23.5558 5.52116 22.9883 6.09612 22.9883 6.8767ZM29.2484 6.8767L29.2484 9.56079C29.2484 10.319 29.8159 10.894 30.5816 10.894L32.7974 10.894C33.5855 10.894 34.1455 10.319 34.1455 9.56079L34.1455 6.8767C34.1455 6.09612 33.5855 5.52116 32.7974 5.52116L30.5816 5.52116C29.8159 5.52116 29.2484 6.09612 29.2484 6.8767ZM16.7184 14.5661L16.7184 17.2451C16.7184 18.0107 17.2859 18.5857 18.0641 18.5857L20.2749 18.5857C21.0382 18.5857 21.6057 18.0107 21.6057 17.2451L21.6057 14.5661C21.6057 13.7855 21.0382 13.2054 20.2749 13.2054L18.0641 13.2054C17.2859 13.2054 16.7184 13.7855 16.7184 14.5661ZM22.9883 14.5661L22.9883 17.2451C22.9883 18.0107 23.5558 18.5857 24.3214 18.5857L26.5299 18.5857C27.3104 18.5857 27.8808 18.0107 27.8808 17.2451L27.8808 14.5661C27.8808 13.7855 27.3104 13.2054 26.5299 13.2054L24.3214 13.2054C23.5558 13.2054 22.9883 13.7855 22.9883 14.5661ZM29.2484 14.5661L29.2484 17.2451C29.2484 18.0107 29.8159 18.5857 30.5816 18.5857L32.7974 18.5857C33.5855 18.5857 34.1455 18.0107 34.1455 17.2451L34.1455 14.5661C34.1455 13.7855 33.5855 13.2054 32.7974 13.2054L30.5816 13.2054C29.8159 13.2054 29.2484 13.7855 29.2484 14.5661ZM23.2834 3.87441L27.5437 3.87441C27.8964 3.87441 27.9475 3.50968 27.7005 3.33105L25.8853 2.06504C25.5683 1.85601 25.2812 1.85601 24.9665 2.06504L23.1364 3.33105C22.8819 3.50968 22.9382 3.87441 23.2834 3.87441Z"
                     fill="currentColor" fill-opacity="0.85" />
              <path d="M6.64607 4.78819C7.95454 4.78819 9.04817 3.6928 9.04817 2.41132C9.04817 1.0684 7.95454 0 6.64607 0C5.31345 0 4.26174 1.0684 4.26174 2.41132C4.26174 3.69741 5.31345 4.78819 6.64607 4.78819ZM2.02104 13.6328L8.75192 6.14604C8.12923 5.9415 7.43532 5.82147 6.64607 5.82147C3.55982 5.82147 1.73038 7.31834 1.73038 9.80548C1.73038 10.3897 1.75506 11.2018 1.84526 12.0261ZM11.2516 13.6328L11.4348 12.0261C11.5302 11.2018 11.5669 10.3897 11.5669 9.80548C11.5669 8.61759 11.1516 7.65947 10.3773 6.98685L5.20918 12.7466C5.68145 12.6885 6.16634 12.6718 6.64607 12.6718C8.16247 12.6718 9.6961 12.8648 11.2516 13.6328ZM4.11689 21.7179C4.81013 21.6323 5.28282 21.1401 5.18977 20.2556L4.76931 16.4208L8.50099 16.4208L8.09775 20.2556C8.0047 21.1401 8.46763 21.6323 9.16833 21.7179C9.88856 21.7914 10.4348 21.3681 10.5278 20.5055L11.058 15.5407C9.65418 14.7337 8.11825 14.4206 6.64607 14.4206C5.15435 14.4206 3.60865 14.7337 2.22436 15.5407L2.76717 20.5055C2.85791 21.3681 3.3892 21.7914 4.11689 21.7179ZM10.3773 6.98455L12.3573 4.78225C12.7742 4.30901 12.7472 3.79671 12.3303 3.45327C11.9403 3.12245 11.455 3.10523 11.0162 3.598L8.75192 6.14604C9.35782 6.35166 9.91434 6.6285 10.3773 6.98455ZM0.513979 14.5271C-0.086092 14.9451-0.103318 15.5343 0.169452 15.895C0.40777 16.2453 0.903391 16.3821 1.39386 16.0381C1.65807 15.8468 1.92284 15.6826 2.22436 15.5407L2.02104 13.6328C1.49206 13.8804 0.982062 14.1646 0.513979 14.5271ZM12.7758 14.5271C12.298 14.1646 11.7955 13.8804 11.2516 13.6328L11.0632 15.5407C11.3498 15.6826 11.6294 15.8468 11.8764 16.0381C12.3669 16.3821 12.8602 16.2476 13.1008 15.8996C13.3736 15.5366 13.3662 14.9474 12.7758 14.5271Z"
                     fill="currentColor" fill-opacity="0.85" />
       </g>
</svg>