<?xml version="1.0" encoding="UTF-8"?>
<!--Generator: Apple Native CoreSVG 326-->
<!DOCTYPE svg PUBLIC "-//W3C//DTD SVG 1.1//EN" "http://www.w3.org/Graphics/SVG/1.1/DTD/svg11.dtd">
<svg version="1.1" xmlns="http://www.w3.org/2000/svg" xmlns:xlink="http://www.w3.org/1999/xlink"
       viewBox="0 0 21.365 21.006">
       <g>
              <rect height="21.006" opacity="0" width="21.365" x="0" y="0" />
              <path d="M10.4981 20.9962C16.302 20.9962 21.0037 16.2946 21.0037 10.4981C21.0037 4.70163 16.302 0 10.4981 0C4.70163 0 0 4.70163 0 10.4981C0 16.2946 4.70163 20.9962 10.4981 20.9962ZM10.4981 17.9484C6.37829 17.9484 3.04785 14.6179 3.04785 10.4981C3.04785 6.37829 6.37829 3.04785 10.4981 3.04785C14.6179 3.04785 17.9558 6.37829 17.9558 10.4981C17.9558 14.6179 14.6179 17.9484 10.4981 17.9484Z"
                     fill="currentColor" fill-opacity="0.85" />
              <path d="M12.1832 7.96232C12.8025 7.96232 13.3051 7.46713 13.3051 6.84037C13.3051 6.22568 12.8025 5.72072 12.1832 5.72072C11.561 5.72072 11.0635 6.22568 11.0635 6.84037C11.0635 7.46713 11.561 7.96232 12.1832 7.96232ZM8.77178 15.4814C9.01361 15.5693 9.32896 15.5084 9.49498 15.1861L10.7325 12.7157C10.8301 12.5106 10.8181 12.2492 10.6176 12.0562L9.20134 10.6325L10.9974 9.74428C11.0652 9.71037 11.1152 9.7299 11.1612 9.77818L12.2844 10.8939C12.382 10.9915 12.536 11.0576 12.6825 11.0576L14.9407 11.0576C15.2486 11.0576 15.5175 10.806 15.5175 10.4883C15.5175 10.1758 15.2486 9.90932 14.9407 9.90932L12.9168 9.90932L10.8589 7.85884C10.5929 7.60033 10.2442 7.45384 9.87365 7.45384L5.77106 7.45384C5.46833 7.45384 5.20696 7.7129 5.20696 8.0231C5.20696 8.34076 5.46833 8.5849 5.77106 8.5849L8.57901 8.5849C8.64507 8.5849 8.65714 8.65271 8.60085 8.68201L7.93127 9.01076C7.42169 9.26928 7.16318 9.75471 7.16318 10.2424C7.16318 10.6618 7.35334 11.0789 7.7388 11.3667L9.48424 12.6473L8.46904 14.6777C8.27604 15.0563 8.48627 15.3739 8.77178 15.4814ZM4.69848 13.5205L7.00626 13.5205C7.22857 13.5205 7.43134 13.4057 7.52669 13.2052L8.02947 12.1876L7.44068 11.7625C7.16033 11.5528 7.03337 11.3873 6.97248 11.2701L6.59841 12.382L4.69848 12.382C4.38829 12.382 4.12922 12.6411 4.12922 12.9587C4.12922 13.2689 4.38829 13.5205 4.69848 13.5205ZM15.1057 6.07677C14.3933 6.07677 13.8367 6.62364 13.8367 7.34345C13.8367 8.13186 14.4356 8.93991 14.8489 9.58681L15.3527 9.58681C15.7832 8.94738 16.3723 8.14678 16.3723 7.34345C16.3723 6.62364 15.8255 6.07677 15.1057 6.07677ZM15.1057 6.89751C15.3746 6.89751 15.5591 7.09403 15.5591 7.34345C15.5591 7.6326 15.3372 8.1549 15.1057 8.53006C14.8793 8.1549 14.6597 7.6326 14.6597 7.34345C14.6597 7.09403 14.8442 6.89751 15.1057 6.89751ZM14.7065 10.4883L15.5175 10.4883L15.5175 9.13947L14.7065 9.13947Z"
                     fill="currentColor" fill-opacity="0.85" />
       </g>
</svg>