<?xml version="1.0" encoding="UTF-8"?>
<!--Generator: Apple Native CoreSVG 326-->
<!DOCTYPE svg PUBLIC "-//W3C//DTD SVG 1.1//EN" "http://www.w3.org/Graphics/SVG/1.1/DTD/svg11.dtd">
<svg version="1.1" xmlns="http://www.w3.org/2000/svg" xmlns:xlink="http://www.w3.org/1999/xlink"
       viewBox="0 0 21.2646 24.0179">
       <g>
              <rect height="24.0179" opacity="0" width="21.2646" x="0" y="0" />
              <path d="M13.4511 4.77491C14.767 4.77491 15.8337 3.70827 15.8337 2.39234C15.8337 1.0764 14.767 0 13.4511 0C12.1329 0 11.0588 1.0764 11.0588 2.39234C11.0588 3.70827 12.1329 4.77491 13.4511 4.77491ZM3.15115 12.4691C3.87368 12.8022 4.5227 12.4714 4.80184 11.9131L6.62625 8.27403L8.6754 8.27403C8.84032 8.27403 8.92196 8.39935 8.84208 8.54474L6.91485 12.3624C6.13943 13.8961 7.09349 15.8782 9.14118 15.7484L14.1378 15.4359L12.3098 19.502C12.0232 20.1412 12.3001 20.92 12.9319 21.175C13.6297 21.4295 14.2569 21.2089 14.5705 20.5232L17.2801 14.5664C17.6304 13.8168 17.1405 12.8031 16.1704 12.8031L11.665 12.8031L13.6216 8.89958C13.6848 8.76856 13.825 8.74212 13.9245 8.8513L16.3394 11.1588C16.9298 11.7297 17.966 11.6292 18.3577 10.8332L20.5078 6.49857C20.8139 5.87654 20.6278 5.11725 19.9541 4.80366C19.3321 4.52221 18.5825 4.75944 18.2689 5.38662L16.8833 8.14866L15.8234 7.09385C14.9652 6.23569 14.0433 5.78077 12.6423 5.78077L5.8572 5.78077C5.39196 5.78077 4.95087 6.0576 4.74755 6.46654L2.56072 10.8035C2.25459 11.4306 2.49467 12.1532 3.15115 12.4691ZM0.12459 22.8789C0.528924 23.687 1.38357 23.6967 1.78275 23.5204L7.17774 21.1773C7.44481 21.0573 7.67512 20.854 7.80492 20.5846L9.63746 16.8828L9.21469 16.9121C8.20786 16.9684 7.36814 16.6818 6.75873 16.1844L5.68614 19.0758L0.773611 21.1937C0.12459 21.4729-0.193611 22.2126 0.12459 22.8789ZM18.4563 23.9874C19.8067 23.9874 20.8733 22.9305 20.8733 21.5802C20.8733 20.2493 19.8067 19.1752 18.4563 19.1752C17.1329 19.1752 16.0611 20.2493 16.0611 21.5802C16.0611 22.9305 17.1329 23.9874 18.4563 23.9874Z"
                     fill="currentColor" fill-opacity="0.85" />
       </g>
</svg>