<?xml version="1.0" encoding="UTF-8"?>
<!--Generator: Apple Native CoreSVG 326-->
<!DOCTYPE svg PUBLIC "-//W3C//DTD SVG 1.1//EN" "http://www.w3.org/Graphics/SVG/1.1/DTD/svg11.dtd">
<svg version="1.1" xmlns="http://www.w3.org/2000/svg" xmlns:xlink="http://www.w3.org/1999/xlink"
       viewBox="0 0 21.365 21.006">
       <g>
              <rect height="21.006" opacity="0" width="21.365" x="0" y="0" />
              <path d="M10.4981 20.9962C16.302 20.9962 21.0037 16.2946 21.0037 10.4981C21.0037 4.70163 16.302 0 10.4981 0C4.70163 0 0 4.70163 0 10.4981C0 16.2946 4.70163 20.9962 10.4981 20.9962ZM10.4981 17.9484C6.37829 17.9484 3.04785 14.6179 3.04785 10.4981C3.04785 6.37829 6.37829 3.04785 10.4981 3.04785C14.6179 3.04785 17.9558 6.37829 17.9558 10.4981C17.9558 14.6179 14.6179 17.9484 10.4981 17.9484Z"
                     fill="currentColor" fill-opacity="0.85" />
              <path d="M8.51326 15.5766L9.88639 15.5766C10.1851 15.5766 10.3522 15.3612 10.2787 15.0132L9.79662 12.9052L11.2214 11.1466L15.4573 10.3819L15.786 11.0053C15.9646 11.3453 16.5637 11.2155 16.4954 10.7996L16.2638 9.47885C16.2173 9.21693 16.041 9.0992 15.786 9.14572L12.8801 9.66221L11.06 9.56971C10.5435 9.47951 9.71104 9.11928 9.52834 8.65447C9.48982 8.55275 9.53525 8.48318 9.6249 8.45157L12.3734 7.97646C12.7691 7.90064 12.9035 7.57321 12.8524 7.29978C12.7887 7.01888 12.5371 6.78911 12.1757 6.85517L4.51184 8.24892C4.15051 8.31498 4.0138 8.63033 4.05516 8.90377C4.11376 9.18466 4.36305 9.44373 4.73415 9.36791L6.98333 8.95599C7.12357 8.92439 7.18392 8.96751 7.21322 9.05486C7.47404 10.0344 8.41912 10.7364 9.40557 11.1363L8.7167 12.2923C8.59721 12.4899 8.54838 12.6949 8.61674 12.9586L9.01143 14.6604L8.43744 14.8477C8.04627 14.9798 8.08533 15.5766 8.51326 15.5766ZM7.69471 7.23306C8.32147 7.23306 8.81666 6.72809 8.81666 6.1111C8.81666 5.48434 8.32147 4.98915 7.69471 4.98915C7.07771 4.98915 6.57506 5.48434 6.57506 6.1111C6.57506 6.72809 7.07771 7.23306 7.69471 7.23306ZM8.16807 16.4388L10.1133 16.4388C10.2477 16.4388 10.3626 16.3337 10.3626 16.1993C10.3626 16.0626 10.2477 15.9477 10.1133 15.9477L8.16807 15.9477C8.03365 15.9477 7.91877 16.0626 7.91877 16.1993C7.91877 16.3337 8.03365 16.4388 8.16807 16.4388ZM17.411 11.0237L17.0795 9.1026C17.0502 8.96818 16.9181 8.88029 16.7837 8.90959C16.6521 8.93658 16.5591 9.05377 16.5861 9.19049L16.9297 11.1093C16.9492 11.2385 17.0836 11.3339 17.218 11.3144C17.345 11.2874 17.438 11.153 17.411 11.0237Z"
                     fill="currentColor" fill-opacity="0.85" />
       </g>
</svg>