<?xml version="1.0" encoding="UTF-8"?>
<!--Generator: Apple Native CoreSVG 326-->
<!DOCTYPE svg PUBLIC "-//W3C//DTD SVG 1.1//EN" "http://www.w3.org/Graphics/SVG/1.1/DTD/svg11.dtd">
<svg version="1.1" xmlns="http://www.w3.org/2000/svg" xmlns:xlink="http://www.w3.org/1999/xlink"
       viewBox="0 0 18.6456 25.849">
       <g>
              <rect height="25.849" opacity="0" width="18.6456" x="0" y="0" />
              <path d="M8.95469 4.77721C10.2683 4.77721 11.3447 3.70596 11.3447 2.39234C11.3447 1.07871 10.2683 0 8.95469 0C7.64106 0 6.56981 1.07871 6.56981 2.39234C6.56981 3.70596 7.64106 4.77721 8.95469 4.77721ZM0.978174 12.8821C1.57551 12.9774 2.25668 12.696 2.41348 11.9585L3.25102 8.22521L4.59133 8.22521C4.70973 8.22521 4.78677 8.31431 4.75286 8.44017L3.74415 12.3211C3.28923 14.0655 4.44661 15.7829 6.61379 15.2424L10.0933 14.3761L9.41489 17.7138C9.27762 18.3754 9.71125 19.0319 10.3654 19.164C10.9139 19.2766 11.6663 18.9164 11.8082 18.2037L12.8491 12.9896C13.0254 12.1252 12.2908 11.444 11.5361 11.5176L8.45695 11.8151L9.34222 8.45443C9.37382 8.33032 9.49277 8.26997 9.60195 8.31364L13.314 9.71528C14.1123 10.0214 14.9578 9.55103 14.9578 8.70099L14.9578 3.87526C14.9578 3.20901 14.4139 2.65534 13.7281 2.65534C13.0693 2.65534 12.5082 3.20901 12.5082 3.87526L12.5082 6.81022L10.7996 6.14725C10.1419 5.8928 9.42562 5.78307 8.7168 5.78307L2.25395 5.78307C1.69567 5.78307 1.19829 6.18225 1.07079 6.73592L0.029937 11.4295C-0.119398 12.0883 0.304466 12.7695 0.978174 12.8821ZM5.67411 25.4264C6.245 25.5315 6.96984 25.1667 7.10711 24.466L8.12558 19.3341C8.16003 19.1716 8.16749 19.0567 8.16749 18.924L8.16749 16.0436L6.89062 16.3618C6.34672 16.5014 5.84704 16.5307 5.39157 16.479L5.73282 18.9556L4.72872 23.9664C4.59892 24.6177 5.00786 25.2816 5.67411 25.4264ZM10.0423 23.0904L16.4744 23.0904C16.9487 23.0904 17.3421 22.6971 17.3421 22.2227C17.3421 21.741 16.9487 21.3574 16.4744 21.3574L10.0423 21.3574C9.56792 21.3574 9.17457 21.741 9.17457 22.2227C9.17457 22.6971 9.56792 23.0904 10.0423 23.0904ZM8.9021 25.8174L17.416 25.8174C17.8978 25.8174 18.2837 25.4315 18.2837 24.9497C18.2837 24.4754 17.8978 24.0843 17.416 24.0843L8.9021 24.0843C8.42777 24.0843 8.03672 24.4754 8.03672 24.9497C8.03672 25.4315 8.42777 25.8174 8.9021 25.8174Z"
                     fill="currentColor" fill-opacity="0.85" />
       </g>
</svg>