<?xml version="1.0" encoding="UTF-8"?>
<!--Generator: Apple Native CoreSVG 326-->
<!DOCTYPE svg PUBLIC "-//W3C//DTD SVG 1.1//EN" "http://www.w3.org/Graphics/SVG/1.1/DTD/svg11.dtd">
<svg version="1.1" xmlns="http://www.w3.org/2000/svg" xmlns:xlink="http://www.w3.org/1999/xlink"
       viewBox="0 0 26.9255 21.3782">
       <g>
              <rect height="21.3782" opacity="0" width="26.9255" x="0" y="0" />
              <path d="M1.76273 8.22502L6.75557 8.22502C7.20182 8.22502 7.55502 7.86491 7.55502 7.41636C7.55502 6.96034 7.20182 6.60253 6.75557 6.60253L1.76273 6.60253C1.31648 6.60253 0.963279 6.96034 0.963279 7.41636C0.963279 7.86491 1.31648 8.22502 1.76273 8.22502ZM0.799447 12.1058L6.75557 12.1058C7.20182 12.1058 7.55502 11.748 7.55502 11.2994C7.55502 10.8434 7.20182 10.4833 6.75557 10.4833L0.799447 10.4833C0.3532 10.4833 0 10.8457 0 11.2994C0 11.7457 0.3532 12.1058 0.799447 12.1058ZM3.89952 15.9889L6.75557 15.9889C7.20182 15.9889 7.55502 15.6288 7.55502 15.1728C7.55502 14.7242 7.20182 14.3664 6.75557 14.3664L3.89952 14.3664C3.45327 14.3664 3.09777 14.7242 3.09777 15.1728C3.09777 15.6288 3.45327 15.9889 3.89952 15.9889Z"
                     fill="currentColor" fill-opacity="0.85" />
              <path d="M23.868 4.636C25.1466 4.636 26.1834 3.59921 26.1834 2.32288C26.1834 1.03679 25.1466 0 23.868 0C22.5819 0 21.5526 1.03679 21.5526 2.32288C21.5526 3.59921 22.5819 4.636 23.868 4.636ZM17.4657 21.3409C22.012 21.3409 25.2219 18.1809 25.2219 13.8734C25.2219 11.9181 24.42 10.725 22.6824 10.1385L21.0648 9.59397C20.8385 9.51584 20.7999 9.38768 20.9436 9.17338L21.9867 7.65631C22.8277 6.43628 22.5221 5.41901 21.2486 4.51948L17.3787 1.80992C16.9508 1.5164 16.3879 1.49171 15.9525 1.79039L12.3583 4.20183C10.947 5.15819 12.2607 6.91983 13.5599 6.04159L16.547 4.02417L18.5885 5.4528C18.9229 5.68202 18.947 5.89577 18.7299 6.20081L17.0514 8.64155C16.1002 10.0132 16.8779 11.4476 18.3472 11.8737L22.1793 12.9629C22.7525 13.13 23.0213 13.4661 23.0213 13.986C23.0213 16.8658 20.6895 19.138 17.468 19.138C14.0727 19.138 11.746 16.7092 11.746 13.5078C11.746 12.5718 11.9536 11.7106 12.3633 10.9654C13.0428 9.65256 11.0967 8.57804 10.3356 10.1561C9.82361 11.1637 9.54545 12.2938 9.54545 13.5078C9.54545 18.0317 12.7479 21.3409 17.4657 21.3409ZM25.3258 21.3409C26.0208 21.3409 26.5641 20.7952 26.5641 20.1002C26.5641 19.4001 26.0208 18.8544 25.3258 18.8544C24.6331 18.8544 24.0874 19.4001 24.0874 20.1002C24.0874 20.7952 24.6331 21.3409 25.3258 21.3409Z"
                     fill="currentColor" fill-opacity="0.85" />
       </g>
</svg>