<?xml version="1.0" encoding="UTF-8"?>
<!--Generator: Apple Native CoreSVG 326-->
<!DOCTYPE svg PUBLIC "-//W3C//DTD SVG 1.1//EN" "http://www.w3.org/Graphics/SVG/1.1/DTD/svg11.dtd">
<svg version="1.1" xmlns="http://www.w3.org/2000/svg" xmlns:xlink="http://www.w3.org/1999/xlink"
       viewBox="0 0 21.365 21.006">
       <g>
              <rect height="21.006" opacity="0" width="21.365" x="0" y="0" />
              <path d="M10.4981 20.9962C16.302 20.9962 21.0037 16.2946 21.0037 10.4981C21.0037 4.70163 16.302 0 10.4981 0C4.70163 0 0 4.70163 0 10.4981C0 16.2946 4.70163 20.9962 10.4981 20.9962ZM10.4981 17.9484C6.37829 17.9484 3.04785 14.6179 3.04785 10.4981C3.04785 6.37829 6.37829 3.04785 10.4981 3.04785C14.6179 3.04785 17.9558 6.37829 17.9558 10.4981C17.9558 14.6179 14.6179 17.9484 10.4981 17.9484Z"
                     fill="currentColor" fill-opacity="0.85" />
              <path d="M11.2951 8.00872C11.9098 8.00872 12.4147 7.51353 12.4147 6.88677C12.4147 6.27208 11.9098 5.76712 11.2951 5.76712C10.6683 5.76712 10.1708 6.27208 10.1708 6.88677C10.1708 7.51353 10.6683 8.00872 11.2951 8.00872ZM11.9857 11.4287C12.3206 11.4287 12.5745 11.1748 12.5745 10.8548C12.5745 10.5222 12.3206 10.2758 11.9857 10.2758L10.304 10.2758L10.304 8.54298C10.304 7.88408 9.75022 7.45439 9.14014 7.58134L6.16072 8.20009C5.02669 8.42931 4.73196 9.77533 5.54142 10.5221L7.29322 12.1245L7.29322 14.6403C7.29322 14.9603 7.55459 15.2291 7.87455 15.2291C8.19221 15.2291 8.46334 14.9603 8.46334 14.6403L8.46334 11.9022C8.46334 11.7046 8.41451 11.5845 8.28756 11.4455L7.00911 10.0827C6.9436 10.0246 6.97005 9.93267 7.05279 9.91545L8.95569 9.56267C9.07585 9.53853 9.13389 9.58451 9.13389 9.70006L9.13389 10.8548C9.13389 11.1748 9.40042 11.4287 9.72038 11.4287ZM14.6968 13.6363L15.7094 13.6363C16.0247 13.6363 16.2522 13.4037 16.2522 13.1055L16.2522 8.55275C16.2522 8.24947 16.0247 8.02201 15.714 8.02201L14.6825 8.02201C12.9486 8.02201 11.8714 8.46728 10.7063 9.78237L11.8062 9.78237C11.8504 9.78237 11.8894 9.78237 11.9141 9.78237C12.7019 9.09392 13.5068 8.85427 14.6825 8.85427L15.4274 8.85427L15.4274 12.7989L14.6968 12.7989C14.5612 12.7989 14.4939 12.7557 14.448 12.6368L14.0021 11.7549C13.8844 11.5344 13.6593 11.5028 13.4778 11.5642C13.2773 11.6475 13.1234 11.8726 13.2532 12.1369L13.699 13.0187C13.8868 13.3921 14.2798 13.6363 14.6968 13.6363ZM8.95447 13.131C9.44573 12.7903 9.81803 12.3823 10.176 11.9198L9.72268 11.9198C9.52343 11.9198 9.36663 11.8756 9.19722 11.7769C9.12358 11.8769 9.03272 11.958 8.95447 12.0191ZM5.29619 13.914L6.24861 13.914C6.43197 13.914 6.62795 13.9019 6.80209 13.8904L6.80209 13.0582C6.62049 13.0771 6.4492 13.0841 6.24861 13.0841L5.29619 13.0841C5.07103 13.0841 4.88494 13.2552 4.88494 13.5028C4.88494 13.7182 5.07334 13.914 5.29619 13.914Z"
                     fill="currentColor" fill-opacity="0.85" />
       </g>
</svg>