<?xml version="1.0" encoding="UTF-8"?>
<!--Generator: Apple Native CoreSVG 326-->
<!DOCTYPE svg PUBLIC "-//W3C//DTD SVG 1.1//EN" "http://www.w3.org/Graphics/SVG/1.1/DTD/svg11.dtd">
<svg version="1.1" xmlns="http://www.w3.org/2000/svg" xmlns:xlink="http://www.w3.org/1999/xlink"
       viewBox="0 0 21.365 21.006">
       <g>
              <rect height="21.006" opacity="0" width="21.365" x="0" y="0" />
              <path d="M10.4981 20.9962C16.302 20.9962 21.0037 16.2946 21.0037 10.4981C21.0037 4.70163 16.302 0 10.4981 0C4.70163 0 0 4.70163 0 10.4981C0 16.2946 4.70163 20.9962 10.4981 20.9962ZM10.4981 17.9484C6.37829 17.9484 3.04785 14.6179 3.04785 10.4981C3.04785 6.37829 6.37829 3.04785 10.4981 3.04785C14.6179 3.04785 17.9558 6.37829 17.9558 10.4981C17.9558 14.6179 14.6179 17.9484 10.4981 17.9484Z"
                     fill="currentColor" fill-opacity="0.85" />
              <path d="M8.00248 8.30806C8.61201 8.30806 9.12443 7.79564 9.12443 7.18841C9.12443 6.57142 8.61201 6.06646 8.00248 6.06646C7.38033 6.06646 6.88283 6.57142 6.88283 7.18841C6.88283 7.79564 7.38033 8.30806 8.00248 8.30806ZM6.09685 10.3252L6.38181 12.0573C6.50415 12.7777 7.49564 12.6312 7.37845 11.9206L7.14462 10.4671L8.08169 10.1045C8.20064 10.0608 8.30467 10.0953 8.3581 10.1993L9.24975 11.9677C9.5324 12.5209 9.76393 12.6892 9.98569 12.8524L12.9094 14.9988C13.4855 15.4164 14.1743 14.5789 13.5298 14.1027L11.2616 12.4412C11.1892 12.3808 11.1892 12.2819 11.276 12.2411L12.7933 11.3667L14.788 12.3216C15.4377 12.6317 15.9553 11.7058 15.2033 11.3421L13.0397 10.3166C12.7766 10.1897 12.5106 10.2213 12.2516 10.3655L11.2381 10.9474C11.1439 11.013 11.0812 10.9963 11.045 10.9239L10.2263 9.2549C10.1683 9.12619 10.1878 9.00263 10.3062 8.95435L11.0542 8.60849C11.3225 8.489 11.4201 8.39365 11.4983 8.13744L11.9734 6.49778C12.1687 5.79466 11.2186 5.5356 11.0158 6.23642L10.5654 7.81462L6.46563 9.61229C6.15544 9.74155 6.03825 9.98338 6.09685 10.3252Z"
                     fill="currentColor" fill-opacity="0.85" />
       </g>
</svg>