<?xml version="1.0" encoding="UTF-8"?>
<!--Generator: Apple Native CoreSVG 326-->
<!DOCTYPE svg PUBLIC "-//W3C//DTD SVG 1.1//EN" "http://www.w3.org/Graphics/SVG/1.1/DTD/svg11.dtd">
<svg version="1.1" xmlns="http://www.w3.org/2000/svg" xmlns:xlink="http://www.w3.org/1999/xlink"
       viewBox="0 0 22.4083 24.615">
       <g>
              <rect height="24.615" opacity="0" width="22.4083" x="0" y="0" />
              <path d="M0 22.4273C0 23.2645 0.684444 23.9489 1.51931 23.9489C2.34903 23.9489 3.03347 23.2645 3.03347 22.4273L3.03347 1.51931C3.03347 0.682139 2.34903 0 1.51931 0C0.684444 0 0 0.682139 0 1.51931Z"
                     fill="currentColor" fill-opacity="0.85" />
              <path d="M19.9827 23.5325L16.7424 19.6764C16.4098 19.2726 16.3633 19.16 16.214 18.774L16.1041 18.4399L18.0455 15.9891L18.5183 18.1756L21.6822 21.9432C22.8453 23.3119 20.9425 24.676 19.9827 23.5325ZM12.3335 23.185C11.5794 24.6979 9.32672 23.7576 10.1395 22.1173L12.3263 17.6626C12.49 17.3254 12.7146 16.9836 12.9547 16.6356L14.2977 14.7261L14.2322 14.5124C13.8984 13.3533 13.7118 12.6789 13.636 11.5794L13.416 8.44884C13.3085 6.84862 14.2729 5.68487 15.8451 5.68487C17.0335 5.68487 17.8457 6.30635 18.8963 7.33514L20.5558 8.95271C21.1032 9.47545 21.3065 9.95275 21.3628 10.7138L21.5633 13.2625C21.627 13.9873 21.1883 14.5163 20.5249 14.5359C19.8391 14.5898 19.398 14.1608 19.3394 13.4021L19.0999 10.6638L18.4598 10.0846C18.2535 9.90762 17.9519 10.014 17.9789 10.2874L18.1397 12.4463C18.2276 13.6089 17.9766 14.2356 17.0909 15.3389L14.9161 18.0807C14.7087 18.3294 14.6817 18.4145 14.5864 18.6155ZM8.4557 9.90744L10.8735 9.90744L12.2598 8.39013L12.4534 11.3653L12.1692 11.6397C11.7701 11.9964 11.4473 12.1388 10.7672 12.1388L8.4557 12.1388C7.71363 12.1388 7.2191 11.6977 7.2191 11.0171C7.2191 10.3583 7.7234 9.90744 8.4557 9.90744ZM14.4861 4.78182C13.1679 4.78182 12.0915 3.71288 12.0915 2.39464C12.0915 1.0764 13.1679 0 14.4861 0C15.8044 0 16.8808 1.0764 16.8808 2.39464C16.8808 3.71288 15.8044 4.78182 14.4861 4.78182Z"
                     fill="currentColor" fill-opacity="0.85" />
       </g>
</svg>