<?xml version="1.0" encoding="UTF-8"?>
<!--Generator: Apple Native CoreSVG 326-->
<!DOCTYPE svg PUBLIC "-//W3C//DTD SVG 1.1//EN" "http://www.w3.org/Graphics/SVG/1.1/DTD/svg11.dtd">
<svg version="1.1" xmlns="http://www.w3.org/2000/svg" xmlns:xlink="http://www.w3.org/1999/xlink"
       viewBox="0 0 21.365 21.006">
       <g>
              <rect height="21.006" opacity="0" width="21.365" x="0" y="0" />
              <path d="M21.0037 10.4981C21.0037 16.2923 16.302 20.9962 10.4981 20.9962C4.70394 20.9962 0 16.2923 0 10.4981C0 4.70163 4.70394 0 10.4981 0C16.302 0 21.0037 4.70163 21.0037 10.4981ZM13.0896 14.8712C13.0896 15.5375 13.6193 16.0821 14.2833 16.0821C14.9618 16.0821 15.5041 15.5375 15.5041 14.8712C15.5041 14.195 14.9618 13.6705 14.2833 13.6705C13.6193 13.6705 13.0896 14.195 13.0896 14.8712ZM7.87971 13.6171L5.87873 14.48C5.54615 14.6196 5.40482 14.986 5.56107 15.3135C5.75923 15.719 6.16939 15.719 6.38478 15.6311L8.62529 14.6557C8.7574 14.6068 8.86252 14.5017 8.94064 14.365L9.87026 12.4885L9.64619 12.5058C9.14991 12.5276 8.71561 12.3857 8.42209 12.1416ZM14.2078 6.74095L13.5045 8.13076L12.9598 7.60099C12.533 7.16439 12.0694 6.93517 11.372 6.93517L7.96639 6.93517C7.73201 6.93517 7.51432 7.07189 7.41666 7.28443L6.30732 9.45889C6.15568 9.76678 6.27802 10.1361 6.6106 10.2901C6.95755 10.4561 7.29244 10.2924 7.42916 10.0138L8.3501 8.16673L9.38198 8.16673C9.47393 8.16673 9.50499 8.24377 9.46878 8.31388L8.50131 10.2316C8.11584 11.0151 8.58174 12.0089 9.6169 11.9331L12.1299 11.7722L11.2095 13.8296C11.0653 14.145 11.2072 14.5408 11.5225 14.6534C11.8695 14.7878 12.1871 14.6826 12.3388 14.338L13.7038 11.3495C13.875 10.9681 13.628 10.4574 13.1466 10.4574L10.8697 10.4574L11.8654 8.49591C11.8919 8.4258 11.962 8.41603 12.02 8.46201L13.238 9.62654C13.5241 9.92006 14.0519 9.86607 14.245 9.4726L15.3175 7.28607C15.4738 6.97818 15.3687 6.60654 15.0412 6.44744C14.7385 6.30095 14.3617 6.4256 14.2078 6.74095ZM10.5804 5.23244C10.5804 5.8988 11.1152 6.43076 11.7741 6.43076C12.4428 6.43076 12.965 5.8988 12.965 5.23244C12.965 4.58099 12.4428 4.02896 11.7741 4.02896C11.1152 4.02896 10.5804 4.58099 10.5804 5.23244Z"
                     fill="currentColor" fill-opacity="0.85" />
       </g>
</svg>