<?xml version="1.0" encoding="UTF-8"?>
<!--Generator: Apple Native CoreSVG 326-->
<!DOCTYPE svg PUBLIC "-//W3C//DTD SVG 1.1//EN" "http://www.w3.org/Graphics/SVG/1.1/DTD/svg11.dtd">
<svg version="1.1" xmlns="http://www.w3.org/2000/svg" xmlns:xlink="http://www.w3.org/1999/xlink"
       viewBox="0 0 21.365 21.006">
       <g>
              <rect height="21.006" opacity="0" width="21.365" x="0" y="0" />
              <path d="M21.0037 10.4981C21.0037 16.2923 16.302 20.9962 10.4981 20.9962C4.70394 20.9962 0 16.2923 0 10.4981C0 4.70163 4.70394 0 10.4981 0C16.302 0 21.0037 4.70163 21.0037 10.4981ZM16.1218 7.67681C15.4273 7.79631 13.9767 7.91119 12.9259 7.96693C12.0653 7.98646 11.1174 8.01576 10.5176 8.01576C9.9058 8.01576 8.91596 7.98646 8.04099 7.96693C7.01724 7.92326 5.56204 7.81584 4.8577 7.69174C4.77673 7.64982 4.69114 7.64521 4.63309 7.64521C4.34649 7.64521 4.1288 7.88013 4.1288 8.19087C4.1288 8.4597 4.29021 8.6797 4.53489 8.73138C4.78364 8.78482 6.4313 8.99966 6.63869 9.04849C6.77662 9.07494 6.86627 9.18873 6.87373 9.38295C6.88119 9.75119 6.87373 10.9599 6.77607 11.4937C6.69103 12.0394 6.0522 14.6919 6.02806 14.7918C5.91779 15.1439 6.16248 15.4914 6.52204 15.4914C6.81556 15.4914 6.99935 15.3398 7.08954 15.017C7.23087 14.4833 7.67724 12.6478 7.8381 12.2135C7.91568 11.9193 7.95419 11.8664 8.03353 11.8664C8.1324 11.8664 8.18299 11.9342 8.27549 12.2089C8.41221 12.6305 8.8701 14.4586 8.99705 15.017C9.07057 15.33 9.26643 15.4914 9.53756 15.4914C9.91436 15.4914 10.159 15.1462 10.0442 14.7941C10.0298 14.6919 9.38349 12.0394 9.2933 11.4937C9.22033 10.9599 9.22033 9.75119 9.22263 9.40478C9.2324 9.18642 9.30998 9.08701 9.50881 9.0531C9.74264 9.01173 10.1448 8.9899 10.4883 8.99966C10.8894 8.99966 11.2456 9.0215 11.4753 9.0531C11.6816 9.08701 11.7615 9.20134 11.7638 9.40478C11.7759 9.75119 11.7638 10.9599 11.6759 11.4937C11.5834 12.0394 10.9544 14.6919 10.9228 14.7918C10.8079 15.1462 11.0526 15.4914 11.4219 15.4914C11.7056 15.4914 11.8964 15.33 11.9894 15.017C12.1284 14.4833 12.5696 12.6478 12.7184 12.2135C12.8155 11.917 12.8541 11.8664 12.9334 11.8664C13.0374 11.8664 13.0782 11.9342 13.1558 12.206C13.2994 12.6305 13.7579 14.4586 13.8871 15.017C13.9653 15.3323 14.1514 15.4914 14.4449 15.4914C14.8044 15.4914 15.0468 15.1439 14.9366 14.7941C14.9124 14.6919 14.281 12.0394 14.1908 11.4937C14.103 10.9599 14.1127 9.75119 14.1127 9.38295C14.1127 9.18357 14.1903 9.06748 14.3357 9.04103C14.523 8.9899 16.1953 8.82904 16.4665 8.73138C16.7135 8.6481 16.8502 8.44017 16.8502 8.19087C16.8502 7.8899 16.6204 7.64521 16.3436 7.64521C16.2781 7.64521 16.185 7.65728 16.1218 7.67681ZM6.95416 6.56802C6.95416 7.16372 7.4476 7.65486 8.03353 7.65486C8.62177 7.65486 9.12037 7.16372 9.12037 6.56802C9.12037 5.96947 8.64646 5.4858 8.03353 5.4858C7.44013 5.4858 6.95416 5.96947 6.95416 6.56802ZM11.8563 6.56802C11.8563 7.16372 12.3475 7.65486 12.9334 7.65486C13.5268 7.65486 14.0225 7.16142 14.0225 6.56802C14.0225 5.96947 13.5342 5.4858 12.9334 5.4858C12.3302 5.4858 11.8563 5.96947 11.8563 6.56802Z"
                     fill="currentColor" fill-opacity="0.85" />
       </g>
</svg>