<?xml version="1.0" encoding="UTF-8"?>
<!--Generator: Apple Native CoreSVG 326-->
<!DOCTYPE svg PUBLIC "-//W3C//DTD SVG 1.1//EN" "http://www.w3.org/Graphics/SVG/1.1/DTD/svg11.dtd">
<svg version="1.1" xmlns="http://www.w3.org/2000/svg" xmlns:xlink="http://www.w3.org/1999/xlink"
       viewBox="0 0 33.3419 28.2505">
       <g>
              <rect height="28.2505" opacity="0" width="33.3419" x="0" y="0" />
              <path d="M27.2246 9.14772C28.8984 9.14772 30.2344 7.7778 30.2344 6.17527C30.2344 4.49922 28.8984 3.15114 27.2246 3.15114C25.5561 3.15114 24.2401 4.49922 24.2401 6.17527C24.2401 7.78702 25.5561 9.14772 27.2246 9.14772ZM9.64942 24.9129C10.2915 25.5596 11.3323 25.5131 12.0967 24.7044L16.7086 19.9358C16.8901 19.752 17.025 19.7353 17.2772 19.8307L20.6703 21.0933C22.9811 21.956 25.538 20.9792 26.6598 18.9414L28.7766 15.1035C29.7088 13.393 29.3929 11.7306 27.8128 10.8421C26.2544 9.97822 24.6496 10.6043 23.7002 12.324L20.7173 17.7321L18.2588 16.8153C16.843 16.2909 15.6472 16.4575 14.5054 17.6458L9.75224 22.6126C8.99755 23.4018 9.06361 24.3322 9.64942 24.9129Z"
                     fill="currentColor" fill-opacity="0.85" />
              <path d="M0.215651 7.27302L2.80475 10.5498C2.98909 10.7881 3.26416 10.795 3.50479 10.6974C4.12463 10.3952 4.95823 10.1556 5.61889 10.1556C6.28932 10.1556 7.11546 10.3952 7.72323 10.6974C7.97593 10.795 8.23608 10.7806 8.41811 10.5498L11.017 7.27302C11.3627 6.83424 11.2915 6.34323 10.8746 6.02217C9.76073 5.14733 7.70249 4.54987 5.61889 4.54987C3.5376 4.54987 1.47936 5.14733 0.375297 6.02217C-0.0611838 6.34323-0.120324 6.8417 0.215651 7.27302ZM3.01432 12.4949C2.71159 12.102 2.59209 11.7458 2.59209 11.3454C2.59209 10.4349 3.31936 10.2528 3.31936 9.70818C3.31936 9.16877 2.59209 8.974 2.59209 8.04166C2.59209 7.66595 2.71159 7.30978 3.01432 6.9117C3.36358 6.49408 4.0012 6.94845 3.65424 7.39306C3.44686 7.68088 3.40319 7.83943 3.40319 8.04166C3.40319 8.68334 4.11323 8.8465 4.11323 9.70818C4.11323 10.5676 3.40319 10.7256 3.40319 11.3454C3.40319 11.5695 3.44686 11.7309 3.65424 12.0135C3.99889 12.4633 3.36358 12.9274 3.01432 12.4949ZM5.33163 12.4949C5.02604 12.102 4.90424 11.7458 4.90424 11.3454C4.90424 10.4349 5.63151 10.2528 5.63151 9.70818C5.63151 9.16877 4.90424 8.974 4.90424 8.04166C4.90424 7.66595 5.02373 7.30978 5.33163 6.9117C5.68088 6.49408 6.31334 6.94845 5.98362 7.39306C5.76647 7.68088 5.71534 7.83943 5.71534 8.04166C5.71534 8.68334 6.42768 8.8465 6.42768 9.70818C6.42768 10.5676 5.71534 10.7256 5.71534 11.3454C5.71534 11.5695 5.76647 11.7309 5.98131 12.0135C6.31104 12.4633 5.68088 12.9274 5.33163 12.4949ZM7.65584 12.4949C7.35311 12.102 7.22385 11.7458 7.22385 11.3454C7.22385 10.4349 7.96088 10.2528 7.96088 9.70818C7.96088 9.16877 7.22385 8.974 7.22385 8.04166C7.22385 7.66595 7.3508 7.30978 7.65815 6.9117C8.01256 6.49408 8.63295 6.94845 8.30323 7.39306C8.08838 7.68088 8.03494 7.83943 8.03494 8.04166C8.03494 8.68334 8.75475 8.8465 8.75475 9.70818C8.75475 10.5676 8.03494 10.7256 8.03494 11.3454C8.03494 11.5695 8.08838 11.7309 8.30092 12.0135C8.63295 12.4633 8.01026 12.9274 7.65584 12.4949ZM13.5015 6.99267C13.9253 6.99267 14.2808 6.63717 14.2808 6.20354L14.2808 3.82333L15.4988 3.82333C16.2558 3.82333 16.5671 3.08588 16.0599 2.52244L14.0597 0.276349C13.7318-0.0958371 13.2958-0.0883764 12.9604 0.276349L10.9234 2.52244C10.4508 3.03189 10.7276 3.82333 11.5041 3.82333L12.7123 3.82333L12.7146 6.20354C12.7146 6.63717 13.0678 6.99728 13.5015 6.99267ZM14.9374 8.05822C14.9374 8.49646 15.2952 8.84966 15.7242 8.84966L18.1044 8.84966L18.1044 10.0579C18.1044 10.8275 18.8935 11.121 19.4099 10.6362L21.6514 8.60904C22.0184 8.26845 22.0213 7.83998 21.6514 7.50916L19.4099 5.50721C18.8534 4.99721 18.1044 5.30619 18.1044 6.06318L18.1044 7.27885L15.7242 7.27885C15.2929 7.27885 14.9374 7.63666 14.9374 8.05822ZM13.4991 9.17829C13.0655 9.17829 12.7123 9.5338 12.7123 9.96973L12.7123 12.3476L11.5041 12.3476C10.723 12.3476 10.4484 13.1391 10.9211 13.6508L12.9627 15.8946C13.2981 16.2547 13.7318 16.2691 14.0574 15.8969L16.0599 13.6462C16.5625 13.0851 16.2535 12.3476 15.4988 12.3476L14.2808 12.3476L14.2808 9.96973C14.2808 9.5361 13.9207 9.1806 13.4991 9.17829Z"
                     fill="currentColor" fill-opacity="0.85" />
       </g>
</svg>