<?xml version="1.0" encoding="UTF-8"?>
<!--Generator: Apple Native CoreSVG 326-->
<!DOCTYPE svg PUBLIC "-//W3C//DTD SVG 1.1//EN" "http://www.w3.org/Graphics/SVG/1.1/DTD/svg11.dtd">
<svg version="1.1" xmlns="http://www.w3.org/2000/svg" xmlns:xlink="http://www.w3.org/1999/xlink"
       viewBox="0 0 21.365 21.006">
       <g>
              <rect height="21.006" opacity="0" width="21.365" x="0" y="0" />
              <path d="M10.4981 20.9962C16.302 20.9962 21.0037 16.2946 21.0037 10.4981C21.0037 4.70163 16.302 0 10.4981 0C4.70163 0 0 4.70163 0 10.4981C0 16.2946 4.70163 20.9962 10.4981 20.9962ZM10.4981 17.9484C6.37829 17.9484 3.04785 14.6179 3.04785 10.4981C3.04785 6.37829 6.37829 3.04785 10.4981 3.04785C14.6179 3.04785 17.9558 6.37829 17.9558 10.4981C17.9558 14.6179 14.6179 17.9484 10.4981 17.9484Z"
                     fill="currentColor" fill-opacity="0.85" />
              <path d="M10.2632 6.32661C10.8802 6.32661 11.3851 5.82165 11.3851 5.20696C11.3851 4.58251 10.8802 4.08501 10.2632 4.08501C9.64104 4.08501 9.14354 4.58251 9.14354 5.20696C9.14354 5.82165 9.64104 6.32661 10.2632 6.32661ZM6.49724 10.1344C6.77813 10.1757 7.09349 10.0465 7.17161 9.70928L7.56345 7.94431L8.20986 7.94431C8.26506 7.94431 8.30357 7.98743 8.2915 8.04033L7.80431 9.88397C7.58947 10.6963 8.13865 11.4914 9.15088 11.2426L10.8027 10.8364L10.4839 12.4199C10.4253 12.7301 10.6183 13.0282 10.9262 13.0966C11.1875 13.1551 11.5345 12.9817 11.6028 12.6519L12.09 10.1965C12.1756 9.78862 11.8287 9.46865 11.4817 9.50026L10.0223 9.64619L10.4406 8.04888C10.455 7.99314 10.5056 7.95692 10.5688 7.98107L12.3119 8.64349C12.6979 8.78767 13.0862 8.56997 13.0862 8.16443L13.0862 5.89395C13.0862 5.58376 12.8323 5.32469 12.5049 5.32469C12.2022 5.32469 11.9431 5.58376 11.9431 5.89395L11.9431 7.27521L11.1243 6.96665C10.8147 6.85462 10.4832 6.80118 10.1396 6.80118L7.09931 6.80118C6.83794 6.80118 6.60587 6.98673 6.53982 7.24064L6.05263 9.45022C5.98427 9.76787 6.18704 10.0855 6.49724 10.1344ZM8.71658 16.049C8.97795 16.0978 9.31513 15.9295 9.38349 15.6095L9.86553 13.1839C9.87529 13.1052 9.88045 13.0541 9.88045 12.9926L9.88045 11.5752L9.2606 11.724C8.93888 11.8021 8.70166 11.8193 8.56955 11.7653L8.74709 13.0024L8.27197 15.37C8.21338 15.6727 8.39892 15.9829 8.71658 16.049ZM10.764 14.9645L13.2253 14.9645C13.4579 14.9645 13.6394 14.7807 13.6394 14.5601C13.6394 14.335 13.4481 14.1512 13.2253 14.1512L10.764 14.1512C10.5434 14.1512 10.3499 14.3327 10.3499 14.5601C10.3499 14.7807 10.5434 14.9645 10.764 14.9645ZM10.232 16.2351L13.6752 16.2351C13.9032 16.2351 14.0892 16.0588 14.0892 15.8284C14.0892 15.6079 13.9032 15.4218 13.6752 15.4218L10.232 15.4218C10.0046 15.4218 9.82537 15.6079 9.82537 15.8284C9.82537 16.0588 10.0046 16.2351 10.232 16.2351Z"
                     fill="currentColor" fill-opacity="0.85" />
       </g>
</svg>