<?xml version="1.0" encoding="UTF-8"?>
<!--Generator: Apple Native CoreSVG 326-->
<!DOCTYPE svg PUBLIC "-//W3C//DTD SVG 1.1//EN" "http://www.w3.org/Graphics/SVG/1.1/DTD/svg11.dtd">
<svg version="1.1" xmlns="http://www.w3.org/2000/svg" xmlns:xlink="http://www.w3.org/1999/xlink"
       viewBox="0 0 21.365 21.006">
       <g>
              <rect height="21.006" opacity="0" width="21.365" x="0" y="0" />
              <path d="M21.0037 10.4981C21.0037 16.2923 16.302 20.9962 10.4981 20.9962C4.70394 20.9962 0 16.2923 0 10.4981C0 4.70163 4.70394 0 10.4981 0C16.302 0 21.0037 4.70163 21.0037 10.4981ZM6.95701 8.45843L6.95701 12.5144C6.95701 12.754 7.11095 12.9763 7.35334 13.0596C7.64169 13.1647 7.96912 13.0033 8.084 12.6977C8.23509 12.2444 8.59587 11.2206 9.08549 10.3339C9.10733 10.2851 9.17283 10.2874 9.17283 10.3534L9.17283 16.9876C9.17283 17.288 9.44912 17.5597 9.74494 17.5597C10.0752 17.5597 10.3268 17.288 10.3268 16.9876L10.3268 14.528L10.4958 13.1934L10.6648 14.528L10.6648 16.9876C10.6648 17.288 10.9239 17.5597 11.249 17.5597C11.5523 17.5597 11.8262 17.288 11.8262 16.9876L11.8262 10.3534C11.8262 10.2874 11.8843 10.2851 11.9159 10.3339C12.3957 11.2206 12.7588 12.2444 12.9151 12.6977C13.0225 13.0033 13.3574 13.1647 13.6457 13.0596C13.8807 12.9763 14.0421 12.754 14.0421 12.5144L14.0421 8.45843C14.0421 5.399 12.7065 3.5152 10.4958 3.5152C8.28513 3.5152 6.95701 5.399 6.95701 8.45843ZM13.1622 8.45843L13.1622 10.2589C12.8531 9.61308 12.4623 8.90334 12.0354 8.42294C11.7912 8.14951 11.4374 7.97603 11.0467 7.97603L9.95233 7.97603C9.55424 7.97603 9.20037 8.14951 8.96369 8.42294C8.52927 8.90334 8.14599 9.61308 7.83689 10.2589L7.83689 8.45843C7.83689 5.92567 8.8365 4.38531 10.4958 4.38531C12.1626 4.38531 13.1622 5.92567 13.1622 8.45843ZM9.30955 6.36282C9.30955 7.02689 9.8369 7.54907 10.4958 7.54907C11.1501 7.54907 11.6872 7.02689 11.6872 6.36282C11.6872 5.70622 11.1501 5.17657 10.4958 5.17657C9.8369 5.17657 9.30955 5.70622 9.30955 6.36282Z"
                     fill="currentColor" fill-opacity="0.85" />
       </g>
</svg>