<?xml version="1.0" encoding="UTF-8"?>
<!--Generator: Apple Native CoreSVG 326-->
<!DOCTYPE svg PUBLIC "-//W3C//DTD SVG 1.1//EN" "http://www.w3.org/Graphics/SVG/1.1/DTD/svg11.dtd">
<svg version="1.1" xmlns="http://www.w3.org/2000/svg" xmlns:xlink="http://www.w3.org/1999/xlink"
       viewBox="0 0 23.9882 23.1171">
       <g>
              <rect height="23.1171" opacity="0" width="23.9882" x="0" y="0" />
              <path d="M13.1369 4.78237C14.4505 4.78237 15.5269 3.70366 15.5269 2.39003C15.5269 1.0764 14.4505 0 13.1369 0C11.8233 0 10.752 1.0764 10.752 2.39003C10.752 3.70366 11.8233 4.78237 13.1369 4.78237ZM15.9631 22.8551C16.5322 22.6891 16.9888 22.1326 16.7706 21.3728L15.2288 15.9875C15.1432 15.6986 14.9766 15.4511 14.69 15.292L11.5915 13.4704L13.0713 9.06505C13.1488 8.82255 13.3363 8.80587 13.5282 8.99032L15.8104 11.2627C16.0355 11.4781 16.3296 11.6154 16.6432 11.6154C16.9591 11.6154 17.2554 11.4977 17.4881 11.2627L20.5693 8.17923C21.0299 7.714 21.0517 6.97654 20.5693 6.48893C20.1138 6.026 19.3568 6.00877 18.8767 6.48893L16.6432 8.7224L14.7957 6.80658C13.8445 5.82608 12.8198 5.62561 10.9087 5.62561L1.25491 5.62561C0.598433 5.62561 0.052225 6.16205 0.052225 6.83576C0.052225 7.49224 0.598433 8.02868 1.25491 8.02868L8.41627 8.02868C8.65471 8.02868 8.79155 8.15114 8.69214 8.45224L7.48987 12.0292C7.03726 13.3819 7.67827 14.8299 8.98444 15.3974L13.0635 17.1977L14.4754 22C14.7081 22.7978 15.3853 23.0235 15.9631 22.8551ZM2.868 22.4537C3.18905 22.877 3.77663 23.0947 4.42049 22.7346L8.99924 20.2059C9.27377 20.0589 9.46732 19.8039 9.56267 19.5127L10.3204 17.2612L8.52381 16.468C8.2935 16.3652 8.07296 16.24 7.87479 16.1004L7.38991 18.3468L3.25687 20.66C2.47519 21.1034 2.47804 21.9368 2.868 22.4537ZM17.1538 14.4244L23.6269 14.4244L23.6269 12.6988L17.1538 12.6988C16.6795 12.6988 16.2959 13.0824 16.2959 13.5568C16.2959 14.0385 16.6795 14.4244 17.1538 14.4244ZM1.36258 6.27505L2.82639 6.27505L2.82639 4.4803L1.36258 4.4803ZM2.09937 0.364179C0.924762 0.364179 0 1.30386 0 2.48077C0 3.5451 0.917302 4.81737 2.09937 5.0592C3.27397 4.81737 4.19643 3.5451 4.19643 2.48077C4.19643 1.30386 3.26651 0.364179 2.09937 0.364179Z"
                     fill="currentColor" fill-opacity="0.85" />
       </g>
</svg>