<?xml version="1.0" encoding="UTF-8"?>
<!--Generator: Apple Native CoreSVG 326-->
<!DOCTYPE svg PUBLIC "-//W3C//DTD SVG 1.1//EN" "http://www.w3.org/Graphics/SVG/1.1/DTD/svg11.dtd">
<svg version="1.1" xmlns="http://www.w3.org/2000/svg" xmlns:xlink="http://www.w3.org/1999/xlink"
       viewBox="0 0 26.0957 21.7667">
       <g>
              <rect height="21.7667" opacity="0" width="26.0957" x="0" y="0" />
              <path d="M16.7072 5.62725L16.7072 7.84283C16.7072 8.45115 17.1765 8.91068 17.7923 8.91068L19.5631 8.91068C20.2111 8.91068 20.6729 8.45115 20.6729 7.84283L20.6729 5.62725C20.6729 4.99654 20.2111 4.53471 19.5631 4.53471L17.7923 4.53471C17.1765 4.53471 16.7072 4.99654 16.7072 5.62725ZM21.7631 5.62725L21.7631 7.84283C21.7631 8.45115 22.2376 8.91068 22.8482 8.91068L24.619 8.91068C25.2767 8.91068 25.734 8.45115 25.734 7.84283L25.734 5.62725C25.734 4.99654 25.2767 4.53471 24.619 4.53471L22.8482 4.53471C22.2376 4.53471 21.7631 4.99654 21.7631 5.62725ZM16.7072 11.7452L16.7072 13.9459C16.7072 14.5616 17.1765 15.0189 17.7946 15.0189L19.5654 15.0189C20.2157 15.0189 20.6729 14.5616 20.6729 13.9459L20.6729 11.7452C20.6729 11.107 20.2157 10.6452 19.5654 10.6452L17.7946 10.6452C17.1765 10.6452 16.7072 11.107 16.7072 11.7452ZM21.7631 11.7452L21.7631 13.9459C21.7631 14.5616 22.2376 15.0189 22.8482 15.0189L24.619 15.0189C25.2744 15.0189 25.7317 14.5616 25.7317 13.9459L25.7317 11.7452C25.7317 11.107 25.2744 10.6452 24.619 10.6452L22.8482 10.6452C22.2376 10.6452 21.7631 11.107 21.7631 11.7452ZM16.7072 17.8511L16.7072 20.0517C16.7072 20.675 17.1765 21.1271 17.7923 21.1271L19.5631 21.1271C20.2111 21.1271 20.6729 20.675 20.6729 20.0517L20.6729 17.8511C20.6729 17.2129 20.2111 16.7534 19.5631 16.7534L17.7923 16.7534C17.1765 16.7534 16.7072 17.2129 16.7072 17.8511ZM21.7631 17.8511L21.7631 20.0517C21.7631 20.675 22.2376 21.1271 22.8482 21.1271L24.619 21.1271C25.2767 21.1271 25.734 20.675 25.734 20.0517L25.734 17.8511C25.734 17.2129 25.2767 16.7534 24.619 16.7534L22.8482 16.7534C22.2376 16.7534 21.7631 17.2129 21.7631 17.8511ZM19.0525 3.21241L23.3151 3.21241C23.6603 3.21241 23.7091 2.84768 23.4621 2.66905L21.6469 1.4105C21.3322 1.19402 21.0451 1.19402 20.7281 1.4105L18.898 2.66905C18.651 2.84768 18.7021 3.21241 19.0525 3.21241Z"
                     fill="currentColor" fill-opacity="0.85" />
              <path d="M6.6418 4.78819C7.96981 4.78819 9.0439 3.6928 9.0439 2.41132C9.0439 1.0684 7.96981 0 6.6418 0C5.31149 0 4.25978 1.0684 4.25978 2.41132C4.25978 3.69741 5.31149 4.78819 6.6418 4.78819ZM2.01908 13.6328L8.75512 6.14604C8.12727 5.9415 7.43106 5.82147 6.6418 5.82147C3.55556 5.82147 1.72842 7.31834 1.72842 9.80548C1.72842 10.3897 1.75311 11.2018 1.841 12.0261ZM11.2548 13.6328L11.4328 12.0261C11.5259 11.2018 11.5626 10.3897 11.5626 9.80548C11.5626 8.61759 11.1496 7.65947 10.373 6.98685L5.19746 12.7466C5.67949 12.6885 6.16954 12.6718 6.6418 12.6718C8.16051 12.6718 9.7016 12.8648 11.2548 13.6328ZM4.12239 21.7179C4.81048 21.6323 5.2711 21.1401 5.18036 20.2556L4.76735 16.4208L8.49903 16.4208L8.09579 20.2556C7.99528 21.1401 8.46337 21.6323 9.16637 21.7179C9.8889 21.7914 10.4253 21.3681 10.5259 20.5055L11.056 15.5407C9.65453 14.7337 8.11399 14.4206 6.6418 14.4206C5.16731 14.4206 3.60439 14.7337 2.21264 15.5407L2.76291 20.5055C2.85595 21.3681 3.3924 21.7914 4.12239 21.7179ZM10.373 6.98455L12.353 4.78225C12.782 4.31647 12.7527 3.79671 12.326 3.45327C11.9286 3.12245 11.4507 3.10523 11.0217 3.598L8.75512 6.14604C9.35586 6.35166 9.91238 6.6285 10.373 6.98455ZM0.517177 14.5271C-0.0857446 14.9451-0.102971 15.5343 0.167495 15.895C0.408117 16.2453 0.899129 16.3821 1.3942 16.0381C1.65612 15.8468 1.92604 15.6826 2.21264 15.5407L2.01908 13.6328C1.4901 13.8804 0.98526 14.1646 0.517177 14.5271ZM12.7716 14.5271C12.296 14.1646 11.7935 13.8804 11.2548 13.6328L11.0612 15.5407C11.3478 15.6826 11.6252 15.8468 11.8745 16.0381C12.3649 16.3821 12.856 16.2476 13.1063 15.8996C13.3791 15.5366 13.3717 14.9474 12.7716 14.5271Z"
                     fill="currentColor" fill-opacity="0.85" />
       </g>
</svg>