<?xml version="1.0" encoding="UTF-8"?>
<!--Generator: Apple Native CoreSVG 326-->
<!DOCTYPE svg PUBLIC "-//W3C//DTD SVG 1.1//EN" "http://www.w3.org/Graphics/SVG/1.1/DTD/svg11.dtd">
<svg version="1.1" xmlns="http://www.w3.org/2000/svg" xmlns:xlink="http://www.w3.org/1999/xlink"
       viewBox="0 0 26.341 30.5526">
       <g>
              <rect height="30.5526" opacity="0" width="26.341" x="0" y="0" />
              <path d="M20.5285 10.0749C22.1999 10.0749 23.536 8.69755 23.536 7.09502C23.536 5.41897 22.1999 4.07835 20.5285 4.07835C18.8576 4.07835 17.544 5.41897 17.544 7.09502C17.544 8.70677 18.8576 10.0749 20.5285 10.0749ZM2.95098 25.8327C3.59309 26.4794 4.63383 26.4328 5.40058 25.6316L10.0101 20.863C10.1916 20.6792 10.3266 20.6551 10.581 20.7504L13.9719 22.013C16.2827 22.8758 18.8419 21.9064 19.9613 19.8686L22.0781 16.0307C23.0104 14.3202 22.6968 12.6504 21.1069 11.7693C19.5583 10.9054 17.9512 11.5315 17.0017 13.2438L14.0211 18.6593L11.5603 17.7425C10.1469 17.2107 8.94878 17.3847 7.80699 18.573L3.0538 23.5324C2.29911 24.3215 2.36517 25.2595 2.95098 25.8327Z"
                     fill="currentColor" fill-opacity="0.85" />
              <path d="M0.248635 6.58775C0.606445 6.92318 1.19226 6.92318 1.55007 6.58775L4.17078 3.94982L5.15031 4.95174C5.7482 5.54963 6.64015 5.19412 6.6769 4.35155L6.8619 0.868191C6.88144 0.319678 6.54601-0.0255157 5.98773 0.0014763L2.49461 0.169251C1.69856 0.208313 1.28676 1.04628 1.90418 1.68838L2.89633 2.67538L0.258401 5.28862C-0.0844883 5.65389-0.0844883 6.23971 0.248635 6.58775ZM0.248635 10.1401C-0.0844883 10.4882-0.0844883 11.0717 0.258401 11.4318L2.89633 14.0451L1.90418 15.032C1.28676 15.6816 1.69856 16.5121 2.49461 16.5512L5.98773 16.7241C6.54601 16.7459 6.88144 16.4082 6.8619 15.8522L6.6769 12.3763C6.64015 11.5338 5.7482 11.1783 5.15031 11.7687L4.17078 12.7706L1.55007 10.1401C1.19226 9.79725 0.606445 9.79725 0.248635 10.1401Z"
                     fill="currentColor" fill-opacity="0.85" />
       </g>
</svg>