<?xml version="1.0" encoding="UTF-8"?>
<!--Generator: Apple Native CoreSVG 326-->
<!DOCTYPE svg PUBLIC "-//W3C//DTD SVG 1.1//EN" "http://www.w3.org/Graphics/SVG/1.1/DTD/svg11.dtd">
<svg version="1.1" xmlns="http://www.w3.org/2000/svg" xmlns:xlink="http://www.w3.org/1999/xlink"
       viewBox="0 0 21.365 21.006">
       <g>
              <rect height="21.006" opacity="0" width="21.365" x="0" y="0" />
              <path d="M21.0037 10.4981C21.0037 16.2923 16.302 20.9962 10.4981 20.9962C4.70394 20.9962 0 16.2923 0 10.4981C0 4.70163 4.70394 0 10.4981 0C16.302 0 21.0037 4.70163 21.0037 10.4981ZM6.50348 4.59524C6.17091 4.59524 5.90954 4.87153 5.90954 5.19895C5.90954 5.5436 6.17091 5.81473 6.50348 5.81473L8.16673 5.81473C8.71021 6.20481 9.17787 6.59204 9.59955 7.03095C9.63576 7.06431 9.64553 7.09251 9.61623 7.14595L7.83931 10.1758C7.57509 10.6107 7.89044 11.0949 8.3672 11.0949L10.651 11.0949L9.43584 13.3132L9.38701 13.4034L7.98295 15.9748C7.81638 16.2855 7.91174 16.6618 8.21502 16.8209C8.49361 16.9674 8.86525 16.9088 9.04619 16.5641L10.4795 13.9657L11.9894 11.8836L12.9362 13.6021C13.2654 15.1693 13.297 16.0833 13.297 16.2637C13.297 16.6227 13.5682 16.8841 13.9203 16.8841C14.2574 16.8841 14.5142 16.6003 14.5142 16.2534C14.5142 15.9012 14.4826 14.5661 14.1144 13.2649L14.0851 13.1598C13.4899 11.0806 12.2932 7.10173 8.79228 4.76357C8.60904 4.64638 8.43326 4.59524 8.23564 4.59524ZM9.87529 9.29221L10.289 9.91502L9.35583 9.91502L9.70861 9.30943C9.75689 9.20947 9.83908 9.23416 9.87529 9.29221ZM6.14197 7.55138C6.14197 8.21775 6.67678 8.74224 7.34545 8.74224C8.00436 8.74224 8.54662 8.21775 8.54662 7.55138C8.54662 6.89478 8.00436 6.35536 7.34545 6.35536C6.67678 6.35536 6.14197 6.89478 6.14197 7.55138Z"
                     fill="currentColor" fill-opacity="0.85" />
       </g>
</svg>