<?xml version="1.0" encoding="UTF-8"?>
<!--Generator: Apple Native CoreSVG 326-->
<!DOCTYPE svg PUBLIC "-//W3C//DTD SVG 1.1//EN" "http://www.w3.org/Graphics/SVG/1.1/DTD/svg11.dtd">
<svg version="1.1" xmlns="http://www.w3.org/2000/svg" xmlns:xlink="http://www.w3.org/1999/xlink"
       viewBox="0 0 25.3649 24.8556">
       <g>
              <rect height="24.8556" opacity="0" width="25.3649" x="0" y="0" />
              <path d="M10.5008 4.82331C11.807 4.82331 12.8811 3.75667 12.8811 2.44074C12.8811 1.12711 11.807 0.053013 10.5008 0.053013C9.17514 0.053013 8.1085 1.12711 8.1085 2.44074C8.1085 3.75667 9.17514 4.82331 10.5008 4.82331ZM11.1752 14.6498L16.7925 16.3845L22.1531 18.8081C23.7498 19.5306 24.6951 17.255 23.1766 16.5669L14.0379 12.431L14.0379 7.59541C14.0379 7.354 14.1207 7.26787 14.3293 7.18283L17.1147 6.04662C17.4318 5.91736 17.5058 5.83924 17.7315 5.56932L20.6611 2.16815C21.1068 1.6564 21.031 0.879877 20.5215 0.446247C20.0121-0.0120705 19.2258 0.0763661 18.7922 0.578356L16.0268 3.8055L3.19761 9.0437C2.93557 9.15057 2.64382 9.30452 2.43765 9.48831L8.65835 9.48831L9.3215 9.21857C9.48994 9.14615 9.58245 9.22373 9.58245 9.35705L9.58245 12.4625C9.58245 13.6073 10.1258 14.3293 11.1752 14.6498ZM10.1299 23.337C9.86049 24.2801 10.6175 24.8556 11.3475 24.8556C11.8397 24.8556 12.3342 24.5937 12.5059 23.9763L13.9937 18.5497C14.0282 18.4222 14.0379 18.3021 14.0379 18.224L14.0379 16.7387L11.3011 15.8915L11.5665 18.143ZM0.867686 12.3845L8.42167 12.3845L8.42167 10.6514L0.867686 10.6514C0.383589 10.6514 0 11.0424 0 11.5168C0 11.9986 0.383589 12.3845 0.867686 12.3845ZM24.1382 12.3845C24.6125 12.3845 25.0036 11.9986 25.0036 11.5168C25.0036 11.0424 24.6125 10.6514 24.1382 10.6514L15.3801 10.6514L15.3801 11.6375L16.7976 12.3845Z"
                     fill="currentColor" fill-opacity="0.85" />
       </g>
</svg>