<?xml version="1.0" encoding="UTF-8"?>
<!--Generator: Apple Native CoreSVG 326-->
<!DOCTYPE svg PUBLIC "-//W3C//DTD SVG 1.1//EN" "http://www.w3.org/Graphics/SVG/1.1/DTD/svg11.dtd">
<svg version="1.1" xmlns="http://www.w3.org/2000/svg" xmlns:xlink="http://www.w3.org/1999/xlink"
       viewBox="0 0 17.8057 26.3503">
       <g>
              <rect height="26.3503" opacity="0" width="17.8057" x="0" y="0" />
              <path d="M6.08471 8.37909C7.39088 8.37909 8.46959 7.30269 8.46959 5.98445C8.46959 4.67082 7.39088 3.60418 6.08471 3.60418C4.76878 3.60418 3.69468 4.67082 3.69468 5.98445C3.69468 7.30269 4.76878 8.37909 6.08471 8.37909ZM0 13.4781C0 14.4189 0.977533 14.8623 1.72706 14.4901L5.17487 12.749C5.31851 12.6686 5.45183 12.7289 5.49089 12.8749L6.48698 16.8816L4.90956 20.8028L1.18316 20.8028C0.543903 20.8028 0 21.322 0 21.9836C0 22.6304 0.543903 23.1496 1.18316 23.1496L5.65448 23.1496C6.18346 23.1496 6.53151 22.9216 6.78365 22.4638L8.78166 18.7803L9.80948 21.5035L6.05839 24.0138C5.52941 24.3739 5.36515 25.1234 5.73273 25.6478C6.08538 26.167 6.77631 26.3508 7.35928 25.9689L11.926 22.9267C12.3251 22.6746 12.5261 22.2628 12.3498 21.5724L9.64486 10.7996C9.60119 10.6445 9.65232 10.5163 9.81439 10.4341L16.7879 6.94736C17.3783 6.66307 17.6109 5.95776 17.3146 5.36733C17.0182 4.77691 16.3175 4.55406 15.7271 4.84066L2.37147 11.5259L2.37147 8.4008C2.37147 7.76155 1.83964 7.23487 1.18316 7.23487C0.543903 7.23487 0 7.76155 0 8.4008ZM14.2502 4.30901C15.4443 4.30901 16.4035 3.34233 16.4035 2.15566C16.4035 0.971286 15.4443 0 14.2502 0C13.0612 0 12.102 0.971286 12.102 2.15566C12.102 3.34233 13.0612 4.30901 14.2502 4.30901Z"
                     fill="currentColor" fill-opacity="0.85" />
       </g>
</svg>