<?xml version="1.0" encoding="UTF-8"?>
<!--Generator: Apple Native CoreSVG 326-->
<!DOCTYPE svg PUBLIC "-//W3C//DTD SVG 1.1//EN" "http://www.w3.org/Graphics/SVG/1.1/DTD/svg11.dtd">
<svg version="1.1" xmlns="http://www.w3.org/2000/svg" xmlns:xlink="http://www.w3.org/1999/xlink"
       viewBox="0 0 16.7138 24.5464">
       <g>
              <rect height="24.5464" opacity="0" width="16.7138" x="0" y="0" />
              <path d="M13.9313 4.78237C15.245 4.78237 16.3214 3.70596 16.3214 2.38773C16.3214 1.0741 15.245 0 13.9313 0C12.6131 0 11.5441 1.0741 11.5441 2.38773C11.5441 3.70596 12.6131 4.78237 13.9313 4.78237ZM8.68063 20.7707C9.3641 20.7707 9.92984 20.2073 9.92984 19.541L9.92984 14.1925C9.92984 13.9036 9.81211 13.6366 9.63578 13.416L7.24672 10.4847C7.15992 10.3738 7.18637 10.2531 7.28754 10.2002L10.162 8.70548C10.285 8.63536 10.4006 8.67618 10.4247 8.80841L10.6763 10.5817C10.7475 11.0372 11.0146 11.3605 11.477 11.5931L14.3773 13.0493C15.2733 13.4973 15.966 13.14 16.2112 12.5795C16.4639 12.0333 16.3025 11.2906 15.5455 10.8961L13.018 9.61908L12.6176 6.61764C12.3878 4.85885 10.4257 3.77269 8.59395 4.73136L4.75279 6.74241C2.87681 7.72576 2.62236 9.87341 4.02158 11.2675L7.47794 14.7043L7.47794 19.541C7.47794 20.2073 8.02415 20.7707 8.68063 20.7707ZM0.50025 14.4896C0.933334 15.2702 1.75814 15.5201 2.55825 15.3414L4.76461 14.8578C5.14711 14.7768 5.40727 14.4724 5.40727 14.0704C5.40727 13.6632 5.11781 13.3663 4.73016 13.2951L0.969971 12.6477C0.185445 12.5104-0.231505 13.1778 0.133766 13.8325ZM2.05256 14.3113L4.80865 22.5312L6.49465 21.9363L3.78277 13.7852ZM8.65879 24.5125C11.0902 24.5125 13.0109 22.5624 13.0109 20.1701C13.0109 18.5015 12.0638 17.0529 10.6812 16.3165L10.6812 18.7737C10.9675 19.1477 11.1211 19.6247 11.1211 20.1701C11.1211 21.5603 10.0588 22.6226 8.65879 22.6226C7.28524 22.6226 6.20113 21.531 6.20113 20.1701C6.20113 19.6075 6.39371 19.096 6.71446 18.6973L6.71446 16.297C5.30494 16.9892 4.31873 18.482 4.31873 20.1701C4.31873 22.5624 6.29575 24.5125 8.65879 24.5125ZM10.7983 22.0736L12.5038 22.6461L14.9894 15.0463C15.1467 14.5892 14.9159 14.0408 14.4462 13.9007C13.9523 13.7508 13.4677 14.0287 13.3229 14.4709ZM2.93189 23.2273C2.34498 23.6029 2.53678 24.5194 3.24427 24.5194L14.0756 24.5194C14.7808 24.5194 14.9577 23.5982 14.3903 23.2273L11.8865 21.5965L9.65204 23.1291L7.67762 23.1291L5.4311 21.5965Z"
                     fill="currentColor" fill-opacity="0.85" />
       </g>
</svg>