<?xml version="1.0" encoding="UTF-8"?>
<!--Generator: Apple Native CoreSVG 326-->
<!DOCTYPE svg PUBLIC "-//W3C//DTD SVG 1.1//EN" "http://www.w3.org/Graphics/SVG/1.1/DTD/svg11.dtd">
<svg version="1.1" xmlns="http://www.w3.org/2000/svg" xmlns:xlink="http://www.w3.org/1999/xlink"
       viewBox="0 0 27.2083 22.3132">
       <g>
              <rect height="22.3132" opacity="0" width="27.2083" x="0" y="0" />
              <path d="M17.5053 4.7703C18.8166 4.7703 19.893 3.70135 19.893 2.38773C19.893 1.0764 18.8166 0 17.5053 0C16.1917 0 15.1227 1.0764 15.1227 2.38773C15.1227 3.70135 16.1917 4.7703 17.5053 4.7703ZM21.5083 18.8958C21.4739 19.3202 21.8173 19.6561 22.178 19.7004C22.5852 19.7348 22.9556 19.4281 22.99 19.0135L23.9063 7.35467L22.4418 7.23924ZM16.993 13.8316L14.455 11.8135L16.3204 8.54122L19.4833 10.9476C20.0318 11.3663 20.6545 11.3548 21.1198 10.8482L23.6197 8.04275C24.5748 6.96241 22.9706 5.19738 21.8638 6.49256L20.1904 8.43198L17.4158 6.16975C16.4863 5.41089 15.2921 4.5987 13.6412 4.67683L9.00694 4.8819C8.41991 4.9089 7.87085 5.28569 7.82433 6.05244L7.58995 9.87475C7.49921 11.3198 9.82822 11.7673 9.93104 9.87014L10.0873 7.11787L12.3915 7.03513L10.6308 10.2373C9.98284 11.416 10.3033 12.7147 11.4918 13.4166L15.1464 15.5334L15.1464 20.4725C15.1464 21.1238 15.6656 21.6505 16.3244 21.6505C16.9758 21.6505 17.495 21.1238 17.495 20.4725L17.495 14.762C17.495 14.4243 17.3945 14.1498 16.993 13.8316ZM0.702337 17.4282C0.422652 17.7004 0.430112 18.1788 0.685111 18.4585C0.974562 18.7456 1.46042 18.7456 1.75733 18.4636L9.54623 10.8374L8.48609 9.82713ZM10.1724 13.8582L9.76623 15.4371L5.58776 19.3272C4.38331 20.4461 6.01908 22.1726 7.25798 21.0072L11.576 16.9724C11.8426 16.7277 11.9333 16.5439 12.0482 16.2825L12.4556 15.3194L10.9111 14.4136C10.6348 14.2448 10.3878 14.0638 10.1724 13.8582ZM23.8068 22.2873C24.8402 22.2873 25.5777 21.9738 26.3233 21.6515C26.7878 21.4425 26.9354 20.9458 26.7953 20.565C26.6454 20.1475 26.1338 19.8202 25.571 20.1102C25.0167 20.3934 24.6145 20.5543 23.8068 20.5543L6.47655 20.5543C6.01945 20.5543 5.61633 20.9206 5.61633 21.3927C5.61633 21.8521 5.9873 22.2873 6.47655 22.2873ZM18.2917 22.2873L18.2917 20.5543L0.867686 20.5543C0.408276 20.5543 0 20.9206 0 21.3927C0 21.8521 0.368668 22.2873 0.867686 22.2873Z"
                     fill="currentColor" fill-opacity="0.85" />
       </g>
</svg>