<?xml version="1.0" encoding="UTF-8"?>
<!--Generator: Apple Native CoreSVG 326-->
<!DOCTYPE svg PUBLIC "-//W3C//DTD SVG 1.1//EN" "http://www.w3.org/Graphics/SVG/1.1/DTD/svg11.dtd">
<svg version="1.1" xmlns="http://www.w3.org/2000/svg" xmlns:xlink="http://www.w3.org/1999/xlink"
       viewBox="0 0 22.081 26.2017">
       <g>
              <rect height="26.2017" opacity="0" width="22.081" x="0" y="0" />
              <path d="M2.16488 1.56165C2.16488 2.00614 2.52093 2.35242 2.96542 2.35242C3.85178 2.35242 4.32175 2.50352 4.86346 3.08891C5.11561 3.37551 5.40506 3.51793 5.71174 3.51793C6.01611 3.51793 6.30556 3.37551 6.55025 3.08891C7.09943 2.50352 7.56939 2.35242 8.45576 2.35242C8.90025 2.35242 9.24884 2.00614 9.24884 1.56165C9.24884 1.11716 8.90025 0.761111 8.45576 0.761111C7.33217 0.761111 6.5349 1.02248 5.71174 1.72736C4.88627 1.02248 4.08901 0.761111 2.96772 0.761111C2.52093 0.761111 2.16488 1.11716 2.16488 1.56165ZM13.7316 5.13065C14.9953 5.13065 16.0344 4.10132 16.0344 2.83015C16.0344 1.56644 14.9953 0.527341 13.7316 0.527341C12.4605 0.527341 11.4311 1.56644 11.4311 2.83015C11.4311 4.10132 12.4605 5.13065 13.7316 5.13065ZM3.80702 12.5562C4.49971 12.867 5.12635 12.5585 5.39803 12.0152L7.14783 8.50295L9.12983 8.50295C9.29475 8.50295 9.35917 8.6208 9.29651 8.76619L7.43643 12.4421C6.69085 13.931 7.6076 15.8311 9.57323 15.7088L14.3982 15.4037L12.6374 19.3355C12.3583 19.9523 12.6277 20.7013 13.2371 20.9414C13.9028 21.1884 14.5099 20.9827 14.816 20.317L17.4286 14.5715C17.764 13.8443 17.2965 12.8753 16.3614 12.8753L12.0149 12.8753L13.9021 9.10611C13.9602 8.98255 14.093 8.95611 14.1998 9.05783L16.5253 11.2908C17.0858 11.8393 18.0921 11.7313 18.4764 10.9726L20.5444 6.78717C20.8356 6.19498 20.6495 5.45807 20.0056 5.1594C19.4135 4.89288 18.6863 5.12264 18.3779 5.71999L17.0468 8.38503L16.0241 7.36753C15.1958 6.54667 14.3037 6.09921 12.955 6.09921L6.41608 6.09921C5.96577 6.09921 5.54706 6.36858 5.3512 6.75514L3.23151 10.9503C2.93284 11.5476 3.17292 12.2478 3.80702 12.5562ZM0.884912 22.5855C1.28178 23.3713 2.09913 23.3736 2.48338 23.2122L7.6844 20.9437C7.944 20.8386 8.17432 20.6278 8.2892 20.3808L10.0397 16.8431L9.64674 16.8724C8.68467 16.9287 7.87479 16.6495 7.27284 16.1671L6.25018 18.9242L1.51671 20.9675C0.892373 21.2392 0.581632 21.9491 0.884912 22.5855ZM18.5601 23.6642C19.8582 23.6642 20.8876 22.6372 20.8876 21.339C20.8876 20.053 19.8582 19.0236 18.5601 19.0236C17.2815 19.0236 16.2544 20.053 16.2544 21.339C16.2544 22.6372 17.2815 23.6642 18.5601 23.6642ZM0.700699 26.2017C1.08265 26.2017 1.39624 25.8904 1.39624 25.5084C1.39624 25.119 1.08265 24.8077 0.700699 24.8077C0.313592 24.8077 0 25.119 0 25.5084C0 25.8904 0.313592 26.2017 0.700699 26.2017ZM2.54234 26.2017C2.93175 26.2017 3.24304 25.8904 3.24304 25.5084C3.24304 25.119 2.93175 24.8077 2.54234 24.8077C2.16039 24.8077 1.8491 25.119 1.8491 25.5084C1.8491 25.8904 2.16039 26.2017 2.54234 26.2017ZM4.39144 26.2017C4.77855 26.2017 5.09214 25.8904 5.09214 25.5084C5.09214 25.119 4.77855 24.8077 4.39144 24.8077C4.00949 24.8077 3.6959 25.119 3.6959 25.5084C3.6959 25.8904 4.00949 26.2017 4.39144 26.2017ZM6.23823 26.2017C6.62765 26.2017 6.94124 25.8904 6.94124 25.5084C6.94124 25.119 6.62765 24.8077 6.23823 24.8077C5.85859 24.8077 5.545 25.119 5.545 25.5084C5.545 25.8904 5.85859 26.2017 6.23823 26.2017ZM8.08733 26.2017C8.47675 26.2017 8.78803 25.8904 8.78803 25.5084C8.78803 25.119 8.47675 24.8077 8.08733 24.8077C7.70538 24.8077 7.3941 25.119 7.3941 25.5084C7.3941 25.8904 7.70538 26.2017 8.08733 26.2017ZM9.93643 26.2017C10.3235 26.2017 10.6371 25.8904 10.6371 25.5084C10.6371 25.119 10.3235 24.8077 9.93643 24.8077C9.55448 24.8077 9.24089 25.119 9.24089 25.5084C9.24089 25.8904 9.55448 26.2017 9.93643 26.2017ZM11.7832 26.2017C12.1726 26.2017 12.4862 25.8904 12.4862 25.5084C12.4862 25.119 12.1726 24.8077 11.7832 24.8077C11.3961 24.8077 11.09 25.119 11.09 25.5084C11.09 25.8904 11.3961 26.2017 11.7832 26.2017ZM13.6323 26.2017C14.0217 26.2017 14.3256 25.8904 14.3256 25.5084C14.3256 25.119 14.0217 24.8077 13.6323 24.8077C13.2429 24.8077 12.9316 25.119 12.9316 25.5084C12.9316 25.8904 13.2429 26.2017 13.6323 26.2017ZM15.4814 26.2017C15.8634 26.2017 16.1747 25.8904 16.1747 25.5084C16.1747 25.119 15.8634 24.8077 15.4814 24.8077C15.092 24.8077 14.7807 25.119 14.7807 25.5084C14.7807 25.8904 15.092 26.2017 15.4814 26.2017ZM17.3305 26.2017C17.7102 26.2017 18.0238 25.8904 18.0238 25.5084C18.0238 25.119 17.7102 24.8077 17.3305 24.8077C16.9411 24.8077 16.6275 25.119 16.6275 25.5084C16.6275 25.8904 16.9411 26.2017 17.3305 26.2017ZM19.1773 26.2017C19.5593 26.2017 19.8706 25.8904 19.8706 25.5084C19.8706 25.119 19.5593 24.8077 19.1773 24.8077C18.7902 24.8077 18.4766 25.119 18.4766 25.5084C18.4766 25.8904 18.7902 26.2017 19.1773 26.2017ZM21.0264 26.2017C21.4084 26.2017 21.7197 25.8904 21.7197 25.5084C21.7197 25.119 21.4084 24.8077 21.0264 24.8077C20.637 24.8077 20.3257 25.119 20.3257 25.5084C20.3257 25.8904 20.637 26.2017 21.0264 26.2017Z"
                     fill="currentColor" fill-opacity="0.85" />
       </g>
</svg>