<?xml version="1.0" encoding="UTF-8"?>
<!--Generator: Apple Native CoreSVG 326-->
<!DOCTYPE svg PUBLIC "-//W3C//DTD SVG 1.1//EN" "http://www.w3.org/Graphics/SVG/1.1/DTD/svg11.dtd">
<svg version="1.1" xmlns="http://www.w3.org/2000/svg" xmlns:xlink="http://www.w3.org/1999/xlink"
       viewBox="0 0 21.365 21.006">
       <g>
              <rect height="21.006" opacity="0" width="21.365" x="0" y="0" />
              <path d="M21.0037 10.4981C21.0037 16.2923 16.302 20.9962 10.4981 20.9962C4.70394 20.9962 0 16.2923 0 10.4981C0 4.70163 4.70394 0 10.4981 0C16.302 0 21.0037 4.70163 21.0037 10.4981ZM6.44459 5.48895C6.44459 5.82044 6.5733 6.1054 6.76752 6.32255L5.45244 8.64131C5.31802 8.88084 5.36454 9.14736 5.55755 9.35013L7.20345 10.969C7.3574 11.1351 7.65552 11.2281 7.96111 11.0667L9.71225 10.1848C9.83635 10.1216 9.94838 10.1751 9.96791 10.2773L10.4839 12.3766L9.63643 14.4811L7.64345 14.4811C7.29135 14.4811 7.01275 14.7551 7.01275 15.1043C7.01275 15.449 7.29135 15.7327 7.64345 15.7327L10.0299 15.7327C10.2471 15.7327 10.482 15.6253 10.6066 15.3904L11.6092 13.5358C11.6506 13.4703 11.731 13.4703 11.7626 13.5605L12.2705 14.87L10.2385 16.1977C9.96221 16.3809 9.89901 16.7818 10.0823 17.0679C10.2655 17.3413 10.6469 17.4246 10.9376 17.2391L13.285 15.6764C13.5561 15.4955 13.6807 15.2071 13.6101 14.9067L12.1692 9.19279C12.1353 9.05255 12.1618 8.96521 12.2635 8.91923L15.646 7.22165C15.9637 7.06771 16.086 6.684 15.9321 6.38587C15.7707 6.08029 15.4065 5.95564 15.0986 6.10958L7.77556 9.78346L6.64657 8.65216C6.6029 8.60619 6.54946 8.56482 6.50348 8.52345L7.53306 6.7102C7.58365 6.72227 7.62677 6.72458 7.66759 6.72458C8.34658 6.72458 8.90091 6.1777 8.90091 5.48895C8.90091 4.80766 8.34658 4.27055 7.66759 4.27055C6.984 4.27055 6.44459 4.80766 6.44459 5.48895ZM9.22791 6.58416C9.22791 7.24822 9.76502 7.78533 10.4314 7.78533C11.0903 7.78533 11.6274 7.24822 11.6274 6.58416C11.6274 5.93271 11.0903 5.3956 10.4314 5.3956C9.76502 5.3956 9.22791 5.93271 9.22791 6.58416ZM8.10432 5.48895C8.10432 5.74122 7.91986 5.92798 7.66759 5.92798C7.42279 5.92798 7.22857 5.74122 7.22857 5.48895C7.22857 5.25391 7.42279 5.05969 7.66759 5.05969C7.91986 5.05969 8.10432 5.25391 8.10432 5.48895Z"
                     fill="currentColor" fill-opacity="0.85" />
       </g>
</svg>