<?xml version="1.0" encoding="UTF-8"?>
<!--Generator: Apple Native CoreSVG 326-->
<!DOCTYPE svg PUBLIC "-//W3C//DTD SVG 1.1//EN" "http://www.w3.org/Graphics/SVG/1.1/DTD/svg11.dtd">
<svg version="1.1" xmlns="http://www.w3.org/2000/svg" xmlns:xlink="http://www.w3.org/1999/xlink"
       viewBox="0 0 21.365 21.006">
       <g>
              <rect height="21.006" opacity="0" width="21.365" x="0" y="0" />
              <path d="M21.0037 10.4981C21.0037 16.2923 16.302 20.9962 10.4981 20.9962C4.70394 20.9962 0 16.2923 0 10.4981C0 4.70163 4.70394 0 10.4981 0C16.302 0 21.0037 4.70163 21.0037 10.4981ZM7.2299 13.6773L5.90681 15.2319C5.69427 15.4789 5.70865 15.8747 5.97286 16.0947C6.27099 16.3319 6.64493 16.2389 6.82818 16.0264L8.30291 14.308C8.39826 14.1885 8.44248 14.0415 8.45455 13.9392L8.71482 12.2989L8.0749 12.265C7.75724 12.2553 7.48381 12.1697 7.2299 12.0427ZM5.45517 5.73673C5.13005 5.73673 4.85607 6.02278 4.85607 6.35536C4.85607 6.68278 5.13005 6.96138 5.45517 6.96138L7.37002 6.96138L8.19846 7.4997C8.28811 7.5629 8.29733 7.65431 8.23928 7.74857L7.02306 9.57201C6.41759 10.4676 6.94494 11.6906 8.1042 11.7492L10.3455 11.8635L9.21475 12.9943C8.97752 13.2241 8.97752 13.6152 9.21475 13.845C9.44682 14.0845 9.82076 14.0845 10.0678 13.845L12.1762 11.7291C12.5185 11.3942 12.306 10.7733 11.7976 10.7245L9.41576 10.4637C9.32775 10.4567 9.29845 10.3843 9.34158 10.3297L10.1849 9.0474C10.2505 8.95544 10.3292 8.94107 10.4338 9.00658L11.9355 9.99127C12.0257 10.0424 12.1383 10.0912 12.2607 10.0912L14.3513 10.0912C14.6741 10.0912 14.9429 9.82986 14.9429 9.49728C14.9429 9.16756 14.6741 8.88896 14.3513 8.88896L12.4364 8.88896L7.88814 5.84185C7.79794 5.78841 7.6756 5.73673 7.5458 5.73673ZM14.2692 8.05185C14.2692 8.47001 14.9091 8.79228 15.6456 8.79228C16.4096 8.79228 17.0519 8.47001 17.0519 8.05185C17.0519 7.63884 16.4096 7.32404 15.6456 7.32404C14.9091 7.32404 14.2692 7.63884 14.2692 8.05185ZM9.87814 5.86029C9.87814 6.52665 10.4124 7.05861 11.0765 7.05861C11.7331 7.05861 12.2725 6.52665 12.2725 5.86029C12.2725 5.21115 11.7331 4.66943 11.0765 4.66943C10.4124 4.66943 9.87814 5.21115 9.87814 5.86029Z"
                     fill="currentColor" fill-opacity="0.85" />
       </g>
</svg>