<?xml version="1.0" encoding="UTF-8"?>
<!--Generator: Apple Native CoreSVG 326-->
<!DOCTYPE svg PUBLIC "-//W3C//DTD SVG 1.1//EN" "http://www.w3.org/Graphics/SVG/1.1/DTD/svg11.dtd">
<svg version="1.1" xmlns="http://www.w3.org/2000/svg" xmlns:xlink="http://www.w3.org/1999/xlink"
       viewBox="0 0 34.5092 21.7667">
       <g>
              <rect height="21.7667" opacity="0" width="34.5092" x="0" y="0" />
              <path d="M16.7184 9.61653L16.7184 12.3029C16.7184 13.0686 17.2859 13.6412 18.0641 13.6412L20.2749 13.6412C21.0382 13.6412 21.6057 13.0686 21.6057 12.3029L21.6057 9.61653C21.6057 8.83595 21.0382 8.26845 20.2749 8.26845L18.0641 8.26845C17.2859 8.26845 16.7184 8.83595 16.7184 9.61653ZM22.9883 9.61653L22.9883 12.3029C22.9883 13.0686 23.5558 13.6412 24.3214 13.6412L26.5299 13.6412C27.3104 13.6412 27.8808 13.0686 27.8808 12.3029L27.8808 9.61653C27.8808 8.83595 27.3104 8.26845 26.5299 8.26845L24.3214 8.26845C23.5558 8.26845 22.9883 8.83595 22.9883 9.61653ZM29.2484 9.61653L29.2484 12.3029C29.2484 13.0686 29.8159 13.6412 30.5816 13.6412L32.7974 13.6412C33.5855 13.6412 34.1455 13.0686 34.1455 12.3029L34.1455 9.61653C34.1455 8.83595 33.5855 8.26845 32.7974 8.26845L30.5816 8.26845C29.8159 8.26845 29.2484 8.83595 29.2484 9.61653ZM23.276 6.6217L27.5363 6.6217C27.8889 6.6217 27.94 6.24952 27.6931 6.08065L25.8779 4.81233C25.5609 4.59585 25.2737 4.59585 24.959 4.81233L23.1289 6.08065C22.8745 6.24952 22.9233 6.6217 23.276 6.6217Z"
                     fill="currentColor" fill-opacity="0.85" />
              <path d="M6.64607 4.78819C7.95454 4.78819 9.04817 3.6928 9.04817 2.41132C9.04817 1.0684 7.95454 0 6.64607 0C5.31345 0 4.26174 1.0684 4.26174 2.41132C4.26174 3.69741 5.31345 4.78819 6.64607 4.78819ZM2.02104 13.6328L8.75192 6.14604C8.12923 5.9415 7.43532 5.82147 6.64607 5.82147C3.55982 5.82147 1.73038 7.31834 1.73038 9.80548C1.73038 10.3897 1.75506 11.2018 1.84526 12.0261ZM11.2516 13.6328L11.4348 12.0261C11.5302 11.2018 11.5669 10.3897 11.5669 9.80548C11.5669 8.61759 11.1516 7.65947 10.3773 6.98685L5.20918 12.7466C5.68145 12.6885 6.16634 12.6718 6.64607 12.6718C8.16247 12.6718 9.6961 12.8648 11.2516 13.6328ZM4.11689 21.7179C4.81013 21.6323 5.28282 21.1401 5.18977 20.2556L4.76931 16.4208L8.50099 16.4208L8.09775 20.2556C8.0047 21.1401 8.46763 21.6323 9.16833 21.7179C9.88856 21.7914 10.4348 21.3681 10.5278 20.5055L11.058 15.5407C9.65418 14.7337 8.11825 14.4206 6.64607 14.4206C5.15435 14.4206 3.60865 14.7337 2.22436 15.5407L2.76717 20.5055C2.85791 21.3681 3.3892 21.7914 4.11689 21.7179ZM10.3773 6.98455L12.3573 4.78225C12.7742 4.30901 12.7472 3.79671 12.3303 3.45327C11.9403 3.12245 11.455 3.10523 11.0162 3.598L8.75192 6.14604C9.35782 6.35166 9.91434 6.6285 10.3773 6.98455ZM0.513979 14.5271C-0.086092 14.9451-0.103318 15.5343 0.169452 15.895C0.40777 16.2453 0.903391 16.3821 1.39386 16.0381C1.65807 15.8468 1.92284 15.6826 2.22436 15.5407L2.02104 13.6328C1.49206 13.8804 0.982062 14.1646 0.513979 14.5271ZM12.7758 14.5271C12.298 14.1646 11.7955 13.8804 11.2516 13.6328L11.0632 15.5407C11.3498 15.6826 11.6294 15.8468 11.8764 16.0381C12.3669 16.3821 12.8602 16.2476 13.1008 15.8996C13.3736 15.5366 13.3662 14.9474 12.7758 14.5271Z"
                     fill="currentColor" fill-opacity="0.85" />
       </g>
</svg>