<?xml version="1.0" encoding="UTF-8"?>
<!--Generator: Apple Native CoreSVG 326-->
<!DOCTYPE svg PUBLIC "-//W3C//DTD SVG 1.1//EN" "http://www.w3.org/Graphics/SVG/1.1/DTD/svg11.dtd">
<svg version="1.1" xmlns="http://www.w3.org/2000/svg" xmlns:xlink="http://www.w3.org/1999/xlink"
       viewBox="0 0 21.365 21.006">
       <g>
              <rect height="21.006" opacity="0" width="21.365" x="0" y="0" />
              <path d="M21.0037 10.4981C21.0037 16.2923 16.302 20.9962 10.4981 20.9962C4.70394 20.9962 0 16.2923 0 10.4981C0 4.70163 4.70394 0 10.4981 0C16.302 0 21.0037 4.70163 21.0037 10.4981ZM9.62029 6.91334C9.11018 6.91334 8.80744 7.10634 8.54377 7.42345L7.17131 9.10557C6.80998 9.55994 7.1081 10.2222 7.61416 10.2222L9.02866 10.2222L9.02866 10.864C9.02866 11.3742 9.31932 11.855 9.77315 12.0991L12.1832 13.3832L12.1832 15.9052C12.1832 16.2424 12.4543 16.5187 12.7817 16.5187C13.1241 16.5187 13.4027 16.2424 13.4027 15.9052L13.4027 12.9994C13.4027 12.8478 13.3223 12.6502 13.1241 12.5204L11.304 11.2921L11.304 8.25001C11.304 8.16443 11.3477 8.13337 11.4333 8.13337L15.4072 8.13337C15.7495 8.13337 16.016 7.84962 16.016 7.51474C16.016 7.19193 15.7495 6.91334 15.4072 6.91334ZM8.85342 13.7371L6.8915 15.4532C6.63474 15.6657 6.61291 16.0592 6.81799 16.3159C7.05521 16.5652 7.43892 16.5871 7.69568 16.3625L9.75064 14.5534C9.85291 14.4632 9.90689 14.4069 9.95342 14.292L10.4567 13.0544L9.5187 12.5564C9.37967 12.4708 9.27455 12.4047 9.2378 12.3754ZM9.11248 9.07627L8.67861 9.07627L9.11248 8.53837ZM9.23604 5.20884C9.23604 5.86029 9.78061 6.41693 10.4418 6.41693C11.0984 6.41693 11.6304 5.86029 11.6304 5.20884C11.6304 4.54708 11.0984 4.01282 10.4418 4.01282C9.78061 4.01282 9.23604 4.54708 9.23604 5.20884Z"
                     fill="currentColor" fill-opacity="0.85" />
       </g>
</svg>