<?xml version="1.0" encoding="UTF-8"?>
<!--Generator: Apple Native CoreSVG 326-->
<!DOCTYPE svg PUBLIC "-//W3C//DTD SVG 1.1//EN" "http://www.w3.org/Graphics/SVG/1.1/DTD/svg11.dtd">
<svg version="1.1" xmlns="http://www.w3.org/2000/svg" xmlns:xlink="http://www.w3.org/1999/xlink"
       viewBox="0 0 21.365 21.006">
       <g>
              <rect height="21.006" opacity="0" width="21.365" x="0" y="0" />
              <path d="M21.0037 10.4981C21.0037 16.2923 16.302 20.9962 10.4981 20.9962C4.70394 20.9962 0 16.2923 0 10.4981C0 4.70163 4.70394 0 10.4981 0C16.302 0 21.0037 4.70163 21.0037 10.4981ZM7.99811 16.2974C7.85393 16.2974 7.73389 16.4197 7.73389 16.5564C7.73389 16.7006 7.85393 16.8207 7.99811 16.8207L10.0765 16.8207C10.2207 16.8207 10.3282 16.7006 10.3282 16.5564C10.3282 16.4197 10.2207 16.2974 10.0765 16.2974ZM12.267 6.59392L4.10072 8.08873C3.72447 8.15478 3.57052 8.49482 3.61419 8.78549C3.67794 9.08131 3.9347 9.35759 4.33509 9.28177L6.72724 8.83771C6.8824 8.8038 6.94506 8.8567 6.98182 8.9515C7.2524 9.99248 8.26639 10.7364 9.31198 11.1707L8.57889 12.4031C8.45194 12.603 8.40311 12.823 8.47147 13.1039L8.89084 14.909L8.27494 15.1135C7.86655 15.2554 7.90791 15.8918 8.36568 15.8918L9.82725 15.8918C10.1408 15.8918 10.3349 15.669 10.2419 15.2888L9.73518 13.0505L11.2559 11.1787L15.7628 10.3572L16.1161 11.0225C16.3068 11.3872 16.953 11.2476 16.8697 10.7996L16.6284 9.39502C16.5744 9.11588 16.3907 8.99815 16.1161 9.04467L13.0156 9.59561L11.0773 9.48588C10.5315 9.39569 9.64959 9.01076 9.44221 8.51896C9.40369 8.40748 9.44912 8.3379 9.556 8.3063L12.4842 7.79673C12.9023 7.71345 13.0465 7.36134 12.9856 7.07068C12.9219 6.78001 12.6502 6.53302 12.267 6.59392ZM17.1805 8.78385C17.0437 8.8183 16.9484 8.94295 16.9702 9.08943L17.3287 11.134C17.3557 11.273 17.4999 11.3758 17.6515 11.3563C17.7859 11.3293 17.879 11.1874 17.852 11.0484L17.4935 9.00154C17.474 8.85736 17.3246 8.76201 17.1805 8.78385ZM6.29659 5.80564C6.29659 6.46454 6.83885 7.00165 7.50006 7.00165C8.16643 7.00165 8.69838 6.46454 8.69838 5.80564C8.69838 5.13696 8.16643 4.61478 7.50006 4.61478C6.83885 4.61478 6.29659 5.13696 6.29659 5.80564Z"
                     fill="currentColor" fill-opacity="0.85" />
       </g>
</svg>