<?xml version="1.0" encoding="UTF-8"?>
<!--Generator: Apple Native CoreSVG 326-->
<!DOCTYPE svg PUBLIC "-//W3C//DTD SVG 1.1//EN" "http://www.w3.org/Graphics/SVG/1.1/DTD/svg11.dtd">
<svg version="1.1" xmlns="http://www.w3.org/2000/svg" xmlns:xlink="http://www.w3.org/1999/xlink"
       viewBox="0 0 18.339 22.8759">
       <g>
              <rect height="22.8759" opacity="0" width="18.339" x="0" y="0" />
              <path d="M7.06187 21.1745C7.48003 21.0596 7.76663 20.92 7.96764 20.5599L10.1758 16.6107C10.2148 16.5423 10.274 16.5055 10.3544 16.5055L15.5486 16.5055L15.5486 21.5015C15.5486 22.1873 16.1023 22.7139 16.7513 22.7139C17.4371 22.7139 17.981 22.1873 17.981 21.5015L17.981 15.4103C17.981 14.6366 17.5324 14.149 16.7369 14.0829L12.2683 13.6751L12.2683 8.02892C12.2683 6.81065 11.4022 5.77792 9.90015 5.77792L9.40901 5.77792C8.55831 5.77792 7.87824 5.92956 7.02984 6.56772L3.59192 9.14057C2.92106 9.64025 2.95266 10.6568 3.66313 11.1198L7.77379 13.8604L7.77379 14.0099L5.9959 18.9506L0.893206 20.3551C0.246491 20.5314-0.133156 21.1954 0.0431714 21.8271C0.236725 22.5106 0.854143 22.861 1.525 22.6846ZM6.42862 10.0469L7.53996 9.20965C7.65715 9.12407 7.77379 9.1752 7.77379 9.30676L7.77379 10.9404ZM9.90015 4.77491C11.2115 4.77491 12.2879 3.70596 12.2879 2.38773C12.2879 1.0764 11.2115 0 9.90015 0C8.58191 0 7.5055 1.0764 7.5055 2.38773C7.5055 3.70596 8.58191 4.77491 9.90015 4.77491Z"
                     fill="currentColor" fill-opacity="0.85" />
       </g>
</svg>