<?xml version="1.0" encoding="UTF-8"?>
<!--Generator: Apple Native CoreSVG 326-->
<!DOCTYPE svg PUBLIC "-//W3C//DTD SVG 1.1//EN" "http://www.w3.org/Graphics/SVG/1.1/DTD/svg11.dtd">
<svg version="1.1" xmlns="http://www.w3.org/2000/svg" xmlns:xlink="http://www.w3.org/1999/xlink"
       viewBox="0 0 15.3923 24.615">
       <g>
              <rect height="24.615" opacity="0" width="15.3923" x="0" y="0" />
              <path d="M7.65636 4.78182C8.9746 4.78182 10.0435 3.71288 10.0435 2.39464C10.0435 1.0764 8.9746 0 7.65636 0C6.33812 0 5.26172 1.0764 5.26172 2.39464C5.26172 3.71288 6.33812 4.78182 7.65636 4.78182ZM2.58496 13.047L4.09172 13.047C4.99695 13.047 5.69941 12.3342 5.69941 11.4606L5.69941 5.94314C5.69941 5.0569 4.99695 4.34928 4.09172 4.34928L3.0761 4.34928C1.76192 4.34928 0.991104 5.11494 0.991104 6.45381L0.991104 11.4606C0.991104 12.3808 1.65966 13.047 2.58496 13.047ZM2.0777 23.5371L5.18741 19.8151C5.46261 19.4939 5.59987 19.251 5.78487 18.8517L7.5903 14.9623C8.06948 13.9309 8.29397 12.8622 8.38186 11.6099L8.48413 10.1846L9.8532 11.6397C10.2122 12.0239 10.5752 12.1388 11.2553 12.1388L13.7953 12.1388C14.5374 12.1388 15.0296 11.6977 15.0296 11.0171C15.0296 10.3583 14.5276 9.90744 13.7953 9.90744L11.1587 9.90744L8.13081 6.61588C7.63683 6.07537 7.00612 5.68256 6.16355 5.68256C5.49379 5.68256 4.94867 5.88303 4.41332 6.22252L3.85449 12.4768C3.77637 13.3425 3.90047 13.8997 4.31469 14.581L3.47364 18.2487L0.366104 21.9409C-0.801586 23.3189 1.11278 24.6807 2.0777 23.5371ZM11.8599 22.1075L9.69616 17.7259C9.53014 17.3865 9.30784 17.0424 9.06776 16.692L8.46272 15.8388L7.27034 18.4148C7.34574 18.5235 7.38601 18.5925 7.42914 18.6811L9.65152 23.1873C10.4057 24.7025 12.6629 23.7576 11.8599 22.1075ZM13.7058 7.19587C13.2435 7.19587 12.907 7.53239 12.907 7.99465L12.907 8.75127L13.7953 8.75127C14.0267 8.75127 14.2599 8.77827 14.4971 8.84717L14.4971 7.99465C14.4971 7.53239 14.168 7.19587 13.7058 7.19587ZM13.7035 23.9707C14.1657 23.9707 14.4971 23.6394 14.4971 23.1771L14.4971 13.2065C14.2668 13.268 14.0313 13.295 13.7953 13.295L12.907 13.295L12.907 23.1771C12.907 23.6394 13.2412 23.9707 13.7035 23.9707Z"
                     fill="currentColor" fill-opacity="0.85" />
       </g>
</svg>