<?xml version="1.0" encoding="UTF-8"?>
<!--Generator: Apple Native CoreSVG 326-->
<!DOCTYPE svg PUBLIC "-//W3C//DTD SVG 1.1//EN" "http://www.w3.org/Graphics/SVG/1.1/DTD/svg11.dtd">
<svg version="1.1" xmlns="http://www.w3.org/2000/svg" xmlns:xlink="http://www.w3.org/1999/xlink"
       viewBox="0 0 21.365 21.006">
       <g>
              <rect height="21.006" opacity="0" width="21.365" x="0" y="0" />
              <path d="M10.4981 20.9962C16.302 20.9962 21.0037 16.2946 21.0037 10.4981C21.0037 4.70163 16.302 0 10.4981 0C4.70163 0 0 4.70163 0 10.4981C0 16.2946 4.70163 20.9962 10.4981 20.9962ZM10.4981 17.9484C6.37829 17.9484 3.04785 14.6179 3.04785 10.4981C3.04785 6.37829 6.37829 3.04785 10.4981 3.04785C14.6179 3.04785 17.9558 6.37829 17.9558 10.4981C17.9558 14.6179 14.6179 17.9484 10.4981 17.9484Z"
                     fill="currentColor" fill-opacity="0.85" />
              <path d="M10.4631 7.27764C11.1829 7.27764 11.7614 6.69685 11.7614 5.97935C11.7614 5.25955 11.1829 4.67877 10.4631 4.67877C9.74561 4.67877 9.16252 5.25955 9.16252 5.97935C9.16252 6.69685 9.74561 7.27764 10.4631 7.27764ZM10.4608 11.8797C10.644 11.8797 10.7733 11.9796 10.8244 12.1698L11.7028 15.5367C11.8907 16.3031 12.9499 16.0371 12.8351 15.3047C12.7937 15.0416 12.0348 12.1968 11.9274 11.5402C11.847 11.0594 11.886 9.84381 11.886 9.3767C11.886 9.20322 12.0228 9.11533 12.1962 9.19115L13.6594 9.77885C14.0472 9.92994 14.3253 9.75471 14.4183 9.50135C14.5286 9.24514 14.4189 8.89303 14.0208 8.73678L12.4203 8.0658C12.0744 7.93424 11.7774 7.84404 11.4315 7.80268C11.138 7.95432 10.8129 8.0376 10.4608 8.0376C10.1087 8.0376 9.78589 7.95432 9.49007 7.80268C9.15167 7.84404 8.84717 7.93424 8.50877 8.0658L6.90084 8.73678C6.50506 8.89303 6.40049 9.24514 6.50561 9.50135C6.59865 9.75471 6.8767 9.92994 7.26447 9.77885L8.73284 9.19115C8.89885 9.11533 9.04534 9.20322 9.04534 9.3767C9.04534 9.84381 9.07463 11.0594 9.00397 11.5402C8.88678 12.1968 8.12791 15.0416 8.08655 15.3047C7.97912 16.0371 9.03842 16.3031 9.22627 15.5367L10.0972 12.1698C10.1483 11.9796 10.2776 11.8797 10.4608 11.8797Z"
                     fill="currentColor" fill-opacity="0.85" />
       </g>
</svg>