<?xml version="1.0" encoding="UTF-8"?>
<!--Generator: Apple Native CoreSVG 326-->
<!DOCTYPE svg PUBLIC "-//W3C//DTD SVG 1.1//EN" "http://www.w3.org/Graphics/SVG/1.1/DTD/svg11.dtd">
<svg version="1.1" xmlns="http://www.w3.org/2000/svg" xmlns:xlink="http://www.w3.org/1999/xlink"
       viewBox="0 0 21.365 21.006">
       <g>
              <rect height="21.006" opacity="0" width="21.365" x="0" y="0" />
              <path d="M21.0037 10.4981C21.0037 16.2923 16.302 20.9962 10.4981 20.9962C4.70394 20.9962 0 16.2923 0 10.4981C0 4.70163 4.70394 0 10.4981 0C16.302 0 21.0037 4.70163 21.0037 10.4981ZM7.25853 6.93529C7.00177 6.93529 6.80646 7.06971 6.71111 7.27248L5.70173 9.26655C5.55525 9.56467 5.65521 9.93631 5.97572 10.0828C6.28361 10.2247 6.65525 10.127 6.80173 9.81397L7.62271 8.16455L8.60861 8.16455C8.67818 8.16455 8.71155 8.21459 8.68049 8.28932L7.91525 9.83471C7.62744 10.4029 7.56424 11.0589 7.70557 11.6811L8.0635 13.0892L6.06537 15.0776C5.82583 15.3148 5.82583 15.7106 6.06767 15.9576C6.29744 16.1724 6.67884 16.2092 6.92814 15.9576L9.17326 13.7222C9.33697 13.5683 9.37373 13.4287 9.3542 13.2064L9.24732 12.0049C9.23756 11.8871 9.35529 11.8532 9.42595 11.9267L10.821 13.1271L11.6472 15.7008C11.7598 16.0478 12.1165 16.1971 12.4198 16.0943C12.7569 15.9966 12.9207 15.6595 12.823 15.3366L11.9503 12.5894C11.9159 12.5038 11.8671 12.4062 11.7987 12.335L10.1102 10.6562L11.1869 8.50295C11.2133 8.45006 11.261 8.43799 11.3019 8.48627L12.5497 9.72662C12.6106 9.80244 12.7185 9.85873 12.7892 9.88057L15.2952 10.6366C15.5347 10.6975 15.9356 10.5998 16.07 10.2064C16.1579 9.88354 15.9598 9.54635 15.6398 9.44354L13.2924 8.75874L11.9596 7.40119C11.635 7.07662 11.2616 6.93529 10.8273 6.93529ZM14.1652 12.4657C14.1652 13.193 14.7586 13.7715 15.4686 13.7715C16.1959 13.7715 16.7698 13.193 16.7698 12.4657C16.7698 11.7528 16.1959 11.1721 15.4686 11.1721C14.7586 11.1721 14.1652 11.7528 14.1652 12.4657ZM9.66057 5.23541C9.66057 5.89431 10.1977 6.43373 10.8589 6.43373C11.523 6.43373 12.0451 5.89431 12.0451 5.23541C12.0451 4.57881 11.523 4.03424 10.8589 4.03424C10.1977 4.03424 9.66057 4.57881 9.66057 5.23541Z"
                     fill="currentColor" fill-opacity="0.85" />
       </g>
</svg>