<?xml version="1.0" encoding="UTF-8"?>
<!--Generator: Apple Native CoreSVG 326-->
<!DOCTYPE svg PUBLIC "-//W3C//DTD SVG 1.1//EN" "http://www.w3.org/Graphics/SVG/1.1/DTD/svg11.dtd">
<svg version="1.1" xmlns="http://www.w3.org/2000/svg" xmlns:xlink="http://www.w3.org/1999/xlink"
       viewBox="0 0 21.365 21.006">
       <g>
              <rect height="21.006" opacity="0" width="21.365" x="0" y="0" />
              <path d="M21.0037 10.4981C21.0037 16.2923 16.302 20.9962 10.4981 20.9962C4.70394 20.9962 0 16.2923 0 10.4981C0 4.70163 4.70394 0 10.4981 0C16.302 0 21.0037 4.70163 21.0037 10.4981ZM8.99596 11.998L8.47365 13.4901C8.44666 13.566 8.4369 13.5953 8.42713 13.6516L7.93939 15.9208C7.84404 16.3487 8.10826 16.6199 8.40408 16.6687C8.6976 16.7273 9.01525 16.5831 9.10314 16.1776L9.57826 13.9962L10.4958 12.5136L11.4133 13.9962L11.8936 16.1776C11.9815 16.5854 12.3038 16.7273 12.6019 16.6664C12.8954 16.613 13.1527 16.3464 13.0522 15.9208L12.5696 13.6516C12.5524 13.5953 12.5426 13.5562 12.5254 13.4901L12.0031 11.998ZM9.87651 6.8565C9.32502 6.8565 8.8735 7.13224 8.63682 7.61537L7.15287 10.6023L6.17606 10.6023L6.17606 9.68865C6.17606 9.40436 5.97735 9.20565 5.69536 9.20565L5.44309 9.20565C5.15364 9.20565 4.95493 9.40436 4.95493 9.68865L4.95493 10.6023L4.65032 10.6023C4.40509 10.6023 4.21899 10.7912 4.21899 11.041C4.21899 11.2886 4.40509 11.4724 4.65032 11.4724L4.95493 11.4724L4.95493 12.3957C4.95493 12.6777 5.15364 12.8862 5.44309 12.8862L5.69536 12.8862C5.97735 12.8862 6.17606 12.6777 6.17606 12.3957L6.17606 11.4724L6.73416 11.4724L6.70771 11.5471C6.63298 11.8154 6.77025 12.1176 7.01669 12.2371C7.2999 12.3985 7.68415 12.264 7.82087 11.9682L8.05646 11.4724L12.9328 11.4724L13.1759 11.9682C13.3126 12.264 13.6842 12.3985 13.9726 12.2371C14.2288 12.1176 14.3586 11.8154 14.2741 11.5471L14.2477 11.4724L14.8132 11.4724L14.8132 12.3957C14.8132 12.6777 15.0045 12.8862 15.2865 12.8862L15.5387 12.8862C15.8282 12.8862 16.0269 12.6777 16.0269 12.3957L16.0269 11.4724L16.3315 11.4724C16.5842 11.4724 16.7703 11.2886 16.7703 11.041C16.7703 10.7912 16.5842 10.6023 16.3315 10.6023L16.0269 10.6023L16.0269 9.68865C16.0269 9.40436 15.8282 9.20565 15.5387 9.20565L15.2865 9.20565C15.0045 9.20565 14.8132 9.40436 14.8132 9.68865L14.8132 10.6023L13.8336 10.6023L12.3571 7.61537C12.1106 7.13224 11.6764 6.8565 11.1151 6.8565ZM9.28256 9.22888L9.28256 10.0767L11.709 10.0767L11.709 9.22888C11.709 9.17083 11.7861 9.15185 11.8246 9.21912L12.509 10.6023L8.48779 10.6023L9.17447 9.21912C9.20553 9.15185 9.28256 9.16853 9.28256 9.22888ZM9.30494 5.16353C9.30494 5.82474 9.82944 6.36416 10.4958 6.36416C11.1524 6.36416 11.6918 5.82474 11.6918 5.16353C11.6918 4.49947 11.1524 3.96236 10.4958 3.96236C9.82944 3.96236 9.30494 4.49947 9.30494 5.16353Z"
                     fill="currentColor" fill-opacity="0.85" />
       </g>
</svg>