<?xml version="1.0" encoding="UTF-8"?>
<!--Generator: Apple Native CoreSVG 326-->
<!DOCTYPE svg PUBLIC "-//W3C//DTD SVG 1.1//EN" "http://www.w3.org/Graphics/SVG/1.1/DTD/svg11.dtd">
<svg version="1.1" xmlns="http://www.w3.org/2000/svg" xmlns:xlink="http://www.w3.org/1999/xlink"
       viewBox="0 0 21.365 21.006">
       <g>
              <rect height="21.006" opacity="0" width="21.365" x="0" y="0" />
              <path d="M10.4981 20.9962C16.302 20.9962 21.0037 16.2946 21.0037 10.4981C21.0037 4.70163 16.302 0 10.4981 0C4.70163 0 0 4.70163 0 10.4981C0 16.2946 4.70163 20.9962 10.4981 20.9962ZM10.4981 17.9484C6.37829 17.9484 3.04785 14.6179 3.04785 10.4981C3.04785 6.37829 6.37829 3.04785 10.4981 3.04785C14.6179 3.04785 17.9558 6.37829 17.9558 10.4981C17.9558 14.6179 14.6179 17.9484 10.4981 17.9484Z"
                     fill="currentColor" fill-opacity="0.85" />
              <path d="M13.4256 8.98268C14.0426 8.98268 14.5453 8.47026 14.5453 7.86072C14.5453 7.23627 14.0426 6.74107 13.4256 6.74107C12.8086 6.74107 12.3037 7.23627 12.3037 7.86072C12.3037 8.47026 12.8086 8.98268 13.4256 8.98268ZM10.0154 16.3611C10.2768 16.4857 10.6237 16.4173 10.7777 16.1095L11.9738 13.7172C12.091 13.5 12.1105 13.2289 11.8515 12.9773L10.5013 11.6242L12.2703 10.736C12.333 10.7021 12.3882 10.7067 12.4439 10.7601L15.0091 13.3253C15.2389 13.5551 15.5979 13.5356 15.7932 13.3253C16.0155 13.103 16.0155 12.7463 15.7932 12.524L12.01 8.74084C11.8319 8.56276 11.6366 8.45533 11.3804 8.45533L9.5247 8.45533L8.40426 7.32283L8.68243 7.04696C9.25751 6.92517 10.0762 6.70571 10.476 6.30126C11.2171 5.55731 11.2441 4.94954 10.7415 4.45665C10.2537 3.95629 9.63334 3.98098 8.89685 4.72954C8.4924 5.13169 8.2804 5.9406 8.16091 6.52775L7.42728 7.26654C7.21813 7.46822 7.24688 7.78763 7.44165 7.96517L8.90662 9.42268C9.01173 9.52033 9.14615 9.58639 9.3024 9.58639L9.94389 9.58639C9.9755 9.58639 9.99503 9.63522 9.95596 9.64959L9.24326 10.0048C8.34822 10.4437 8.13107 11.6587 9.05541 12.3194L10.7865 13.5879L9.77357 15.6063C9.63685 15.8774 9.74428 16.2341 10.0154 16.3611ZM10.2222 4.97817C10.4308 5.18215 10.3803 5.35114 9.95166 5.77689C9.73615 5.98779 9.34134 6.11189 8.99141 6.209C9.08622 5.85446 9.21263 5.46426 9.43329 5.24129C9.85673 4.82762 10.0062 4.77934 10.2222 4.97817ZM5.32512 13.8993C5.32512 14.2118 5.57672 14.4709 5.88461 14.4709L8.32802 14.4709C8.56239 14.4709 8.76286 14.2974 8.86052 14.1021L9.3363 13.1356L8.75728 12.7151C8.43502 12.4808 8.32298 12.332 8.27931 12.24L7.91271 13.3375L5.88461 13.3375C5.57672 13.3375 5.32512 13.584 5.32512 13.8993Z"
                     fill="currentColor" fill-opacity="0.85" />
       </g>
</svg>