<?xml version="1.0" encoding="UTF-8"?>
<!--Generator: Apple Native CoreSVG 326-->
<!DOCTYPE svg PUBLIC "-//W3C//DTD SVG 1.1//EN" "http://www.w3.org/Graphics/SVG/1.1/DTD/svg11.dtd">
<svg version="1.1" xmlns="http://www.w3.org/2000/svg" xmlns:xlink="http://www.w3.org/1999/xlink"
       viewBox="0 0 21.365 21.006">
       <g>
              <rect height="21.006" opacity="0" width="21.365" x="0" y="0" />
              <path d="M21.0037 10.4981C21.0037 16.2923 16.302 20.9962 10.4981 20.9962C4.70394 20.9962 0 16.2923 0 10.4981C0 4.70163 4.70394 0 10.4981 0C16.302 0 21.0037 4.70163 21.0037 10.4981ZM6.91983 12L5.19459 13.728C4.95275 13.9624 4.95275 14.3806 5.19459 14.615C5.44388 14.8619 5.84943 14.8619 6.08666 14.615L7.99283 12.7088C8.12264 12.5864 8.14447 12.4813 8.18123 12.3107L8.27033 11.7687L6.91983 10.6847ZM10.4414 7.04096L7.64533 7.74299C6.47861 8.0285 6.27354 9.47557 7.19096 10.2298L9.38956 12.0039L9.38956 14.1727C9.38956 14.5173 9.663 14.7959 10.0002 14.7959C10.3621 14.7959 10.6332 14.5173 10.6332 14.1727L10.6332 11.7764C10.6332 11.5197 10.5212 11.3514 10.3695 11.1974L8.88951 9.72256L10.604 9.27728C10.6867 9.25775 10.7396 9.30373 10.7396 9.38877L10.7396 10.3477C10.7396 10.4993 10.8132 10.6705 10.9303 10.7951L12.5636 12.4359C12.8106 12.6777 13.2087 12.6777 13.4557 12.4359C13.6975 12.1889 13.6975 11.7931 13.4557 11.5364L11.9936 10.0938L11.9936 9.30416L12.6808 10.0833C12.798 10.2252 12.9715 10.2861 13.1547 10.2861L15.6021 10.2861C15.9565 10.2861 16.2351 10.0098 16.2351 9.65541C16.2351 9.31362 15.9565 9.03963 15.6021 9.03963L13.4259 9.03963L12.1516 7.55568C11.7219 7.07256 11.0658 6.87494 10.4414 7.04096ZM12.4877 6.66635C12.4877 7.32295 13.0248 7.86236 13.686 7.86236C14.3426 7.86236 14.8746 7.32295 14.8746 6.66635C14.8746 5.99767 14.3426 5.47779 13.686 5.47779C13.0248 5.47779 12.4877 5.99767 12.4877 6.66635Z"
                     fill="currentColor" fill-opacity="0.85" />
       </g>
</svg>