<?xml version="1.0" encoding="UTF-8"?>
<!--Generator: Apple Native CoreSVG 326-->
<!DOCTYPE svg PUBLIC "-//W3C//DTD SVG 1.1//EN" "http://www.w3.org/Graphics/SVG/1.1/DTD/svg11.dtd">
<svg version="1.1" xmlns="http://www.w3.org/2000/svg" xmlns:xlink="http://www.w3.org/1999/xlink"
       viewBox="0 0 21.365 21.006">
       <g>
              <rect height="21.006" opacity="0" width="21.365" x="0" y="0" />
              <path d="M10.4981 20.9962C16.302 20.9962 21.0037 16.2946 21.0037 10.4981C21.0037 4.70163 16.302 0 10.4981 0C4.70163 0 0 4.70163 0 10.4981C0 16.2946 4.70163 20.9962 10.4981 20.9962ZM10.4981 17.9484C6.37829 17.9484 3.04785 14.6179 3.04785 10.4981C3.04785 6.37829 6.37829 3.04785 10.4981 3.04785C14.6179 3.04785 17.9558 6.37829 17.9558 10.4981C17.9558 14.6179 14.6179 17.9484 10.4981 17.9484Z"
                     fill="currentColor" fill-opacity="0.85" />
              <path d="M10.0798 6.31903C10.6382 6.31903 11.0892 5.87036 11.0892 5.31711C11.0892 4.75641 10.6382 4.30774 10.0798 4.30774C9.52889 4.30774 9.07791 4.75641 9.07791 5.31711C9.07791 5.87036 9.52889 6.31903 10.0798 6.31903ZM10.8647 13.3921C11.1674 14.0021 12.0607 13.6264 11.731 12.9698L10.9812 11.4485C10.918 11.3146 10.833 11.1658 10.7353 11.0268L10.1826 10.258L10.2142 10.1758C10.3854 9.71795 10.436 9.43529 10.4653 8.98717L10.548 7.73814C10.5894 7.09185 10.2039 6.62649 9.57541 6.62649C9.09283 6.62649 8.76365 6.87524 8.33736 7.28661L7.67263 7.93927C7.45833 8.14611 7.37275 8.34142 7.35091 8.63615L7.27048 9.67373C7.25095 9.9667 7.41466 10.1741 7.68064 10.1838C7.95407 10.1936 8.12985 10.0299 8.15685 9.73233L8.25165 8.62002L8.51599 8.37982C8.60564 8.31486 8.7315 8.35337 8.72174 8.46025L8.64877 9.3451C8.6097 9.81221 8.72174 10.0759 9.07275 10.5073L9.94662 11.6127C10.0247 11.7052 10.0466 11.7512 10.0931 11.8293ZM11.6207 9.21463L12.5532 9.21463C12.8536 9.21463 13.0512 9.03885 13.0512 8.7631C13.0512 8.49713 12.8536 8.32135 12.5532 8.32135L11.5799 8.32135L11.0392 7.72716L10.961 8.91571L11.0549 9.0147C11.2134 9.1658 11.3427 9.21463 11.6207 9.21463ZM7.91895 13.7811L9.21341 12.2533C9.34498 12.0948 9.37943 12.0557 9.41564 11.8851L9.45076 11.7895L8.68498 10.8135L8.50283 11.6553L7.24282 13.1417C6.77923 13.6909 7.54325 14.2326 7.91895 13.7811ZM14.4461 10.0659L16.6201 9.06044C16.8332 8.95017 16.9142 8.70779 16.8257 8.49701C16.7327 8.30115 16.4829 8.21556 16.2698 8.31091L14.0957 9.32611C13.8878 9.42892 13.7994 9.67646 13.8999 9.87978C13.9832 10.0831 14.233 10.1687 14.4461 10.0659ZM14.1314 13.5513L14.7184 13.5122C14.804 13.5122 14.8855 13.5122 14.9665 13.5197L15.7846 8.8792L14.8858 9.27607ZM5.93793 15.3239L14.8564 15.3239C15.228 15.3239 15.5215 15.0304 15.5215 14.6662C15.5215 14.2285 15.1815 13.9764 14.7564 14.0034L5.93793 14.5486C5.72945 14.5658 5.56004 14.7278 5.56004 14.946C5.56004 15.1522 5.73691 15.3239 5.93793 15.3239Z"
                     fill="currentColor" fill-opacity="0.85" />
       </g>
</svg>