<?xml version="1.0" encoding="UTF-8"?>
<!--Generator: Apple Native CoreSVG 326-->
<!DOCTYPE svg PUBLIC "-//W3C//DTD SVG 1.1//EN" "http://www.w3.org/Graphics/SVG/1.1/DTD/svg11.dtd">
<svg version="1.1" xmlns="http://www.w3.org/2000/svg" xmlns:xlink="http://www.w3.org/1999/xlink"
       viewBox="0 0 21.6414 24.1872">
       <g>
              <rect height="24.1872" opacity="0" width="21.6414" x="0" y="0" />
              <path d="M11.3067 7.66347L12.6653 9.68323C12.2457 9.70037 11.8198 9.87187 11.4902 10.2021C11.1776 10.5192 11.0123 10.9231 10.9996 11.3411C10.7087 10.9292 10.4166 10.5118 10.1653 10.1497C10.09 10.0503 9.95155 10.094 9.95155 10.2204C9.95902 11.4099 10.0004 13.3242 10.1664 14.3089C10.3841 15.5818 11.8523 21.7684 11.9282 22.032C12.1263 22.7666 11.6634 23.445 10.919 23.445C10.3854 23.445 9.99832 23.1388 9.795 22.4438C9.45551 21.1904 8.43188 16.9196 8.08492 15.896C7.84539 15.1779 7.72645 14.9791 7.40066 14.9791C7.06742 14.9791 6.95593 15.1779 6.70894 15.896C6.36199 16.9196 5.34582 21.1904 4.99887 22.4438C4.80301 23.1388 4.40844 23.445 3.88231 23.445C3.13048 23.445 2.66755 22.7666 2.86571 22.032C2.94153 21.7684 4.41723 15.5818 4.63723 14.3089C4.79579 13.3242 4.83485 11.4122 4.84231 10.2227C4.84231 10.094 4.70153 10.0526 4.62856 10.1497C3.82899 11.3042 2.61793 13.0145 2.3468 13.327C2.00161 13.7188 1.43587 13.7848 0.995323 13.5327C0.392826 13.2093 0.245796 12.5603 0.510559 12.1146C0.588684 11.9606 0.703567 11.8067 0.793763 11.6677L3.4872 7.66347C4.28798 6.48929 5.28407 5.83511 7.40066 5.83511C9.5098 5.83511 10.5134 6.48929 11.3067 7.66347ZM9.77862 2.58328C9.77862 3.89691 8.71429 4.95894 7.40066 4.95894C6.08704 4.95894 5.01524 3.89691 5.01524 2.58328C5.01524 1.26965 6.08704 0.197859 7.40066 0.197859C8.71429 0.197859 9.77862 1.26965 9.77862 2.58328Z"
                     fill="currentColor" fill-opacity="0.85" />
              <path d="M15.9866 11.61C16.9803 11.61 17.7827 10.8099 17.7827 9.81621C17.7827 8.83 16.9803 8.02243 15.9866 8.02243C14.9929 8.02243 14.1928 8.83 14.1928 9.81621C14.1928 10.8099 14.9929 11.61 15.9866 11.61ZM13.6843 23.445C14.1226 23.445 14.4948 23.1854 14.6418 22.6075C14.8692 21.8154 15.5172 19.0646 15.7423 18.3972C15.8194 18.1684 15.8636 18.1242 15.9486 18.1242C16.0262 18.1242 16.0704 18.1684 16.1475 18.3972C16.3703 19.0646 17.0205 21.8154 17.2555 22.6075C17.395 23.1854 17.7672 23.445 18.2129 23.445C18.8665 23.445 19.2783 22.8304 19.1043 22.2032C19.0704 22.1043 18.1163 18.0859 17.9796 17.257C17.9113 16.7957 17.8797 16.1246 17.8797 15.8052C17.8797 15.6863 18.0181 15.6449 18.0911 15.742L19.3187 17.5188C19.6346 17.9743 20.1613 17.9915 20.5191 17.764C20.8625 17.5435 21.0492 17.0852 20.7304 16.6022L19.1042 14.0723C18.411 13.0041 17.5246 12.6324 16.3799 12.6324L15.9486 12.6324C15.3092 12.6324 14.9738 12.4273 14.512 11.9287L13.3351 10.6611C13.0266 10.3354 12.4121 10.3406 12.0221 10.7346C11.7062 11.0528 11.6258 11.5502 11.8877 11.9442C12.0175 12.1251 13.0278 13.2951 13.8056 14.2412C13.9618 14.4141 14.0423 14.6146 14.0423 14.9127C14.0423 15.4532 14.0153 16.5919 13.9102 17.257C13.7734 18.0859 12.8194 22.1043 12.7855 22.2032C12.6114 22.8304 13.0232 23.445 13.6843 23.445Z"
                     fill="currentColor" fill-opacity="0.85" />
       </g>
</svg>