<?xml version="1.0" encoding="UTF-8"?>
<!--Generator: Apple Native CoreSVG 326-->
<!DOCTYPE svg PUBLIC "-//W3C//DTD SVG 1.1//EN" "http://www.w3.org/Graphics/SVG/1.1/DTD/svg11.dtd">
<svg version="1.1" xmlns="http://www.w3.org/2000/svg" xmlns:xlink="http://www.w3.org/1999/xlink"
       viewBox="0 0 29.8648 23.6902">
       <g>
              <rect height="23.6902" opacity="0" width="29.8648" x="0" y="0" />
              <path d="M25.099 6.78113L25.099 8.83355C25.099 9.64046 24.4863 10.2249 23.7456 10.2249C22.9853 10.2249 22.3749 9.63354 22.3749 8.83355L22.3749 6.71035C22.3749 4.99318 21.2256 3.91817 19.7501 3.91817C18.2671 3.91817 17.1402 4.99318 17.1402 6.71035L17.1402 9.06379C18.4877 9.20736 19.1596 10.0478 19.1596 11.6436L19.1596 19.1704C19.1596 20.9596 18.3382 21.8005 16.6937 21.8005L11.3471 21.8005C11.3814 21.5353 11.3641 21.2439 11.2873 20.9304L10.8547 19.1546L15.6848 19.1546C16.045 19.1546 16.2197 18.9581 16.2197 18.5542L16.2197 12.2748C16.2197 11.8634 16.045 11.6841 15.6848 11.6841L12.5076 11.6841C12.332 11.5475 12.1303 11.4316 11.9049 11.3406L9.69953 10.4158C9.85523 10.0424 9.94027 9.63737 9.94027 9.21053C9.94027 9.15234 9.93875 9.09452 9.93165 9.0382L14.411 9.0382L14.411 6.78113C14.411 3.40023 16.729 1.27969 19.7501 1.27969C22.7713 1.27969 25.099 3.40023 25.099 6.78113Z"
                     fill="currentColor" fill-opacity="0.85" />
              <path d="M6.71731 10.8867C7.65305 10.8867 8.39348 10.1365 8.39348 9.21053C8.39348 8.27709 7.65305 7.53206 6.71731 7.53206C5.79364 7.53206 5.03884 8.27709 5.03884 9.21053C5.03884 10.1365 5.79364 10.8867 6.71731 10.8867ZM6.71501 16.8378C6.95223 16.8378 7.12056 16.9647 7.18661 17.2163L8.3102 21.5717C8.55665 22.5614 9.92778 22.2145 9.7836 21.2661C9.72501 20.9295 8.7502 17.2433 8.60602 16.4052C8.50091 15.782 8.54743 14.2058 8.54743 13.5991C8.54743 13.3912 8.73583 13.2642 8.96329 13.3596L10.8509 14.1265C11.3513 14.3166 11.7103 14.0949 11.8378 13.7703C11.975 13.4308 11.836 12.973 11.315 12.7726L9.24364 11.9052C8.80473 11.7322 8.40719 11.6197 7.96828 11.5662C7.60125 11.7672 7.17278 11.8724 6.71501 11.8724C6.25724 11.8724 5.83107 11.7672 5.46173 11.5662C5.01537 11.6197 4.62529 11.7322 4.18638 11.9052L2.10751 12.7726C1.5963 12.973 1.45728 13.4308 1.59455 13.7703C1.71228 14.0949 2.0713 14.3166 2.57911 14.1265L4.46904 13.3596C4.69419 13.2642 4.87513 13.3912 4.87513 13.5991C4.87513 14.2058 4.92396 15.782 4.8263 16.4052C4.68212 17.2433 3.69755 20.9295 3.64642 21.2661C3.50224 22.2145 4.86821 22.5614 5.11982 21.5717L6.24341 17.2163C6.31177 16.9647 6.47778 16.8378 6.71501 16.8378Z"
                     fill="currentColor" fill-opacity="0.85" />
       </g>
</svg>