<?xml version="1.0" encoding="UTF-8"?>
<!--Generator: Apple Native CoreSVG 326-->
<!DOCTYPE svg PUBLIC "-//W3C//DTD SVG 1.1//EN" "http://www.w3.org/Graphics/SVG/1.1/DTD/svg11.dtd">
<svg version="1.1" xmlns="http://www.w3.org/2000/svg" xmlns:xlink="http://www.w3.org/1999/xlink"
       viewBox="0 0 14.4608 28.4328">
       <g>
              <rect height="28.4328" opacity="0" width="14.4608" x="0" y="0" />
              <path d="M7.04975 8.07247C8.35877 8.07247 9.4231 7.00068 9.4231 5.68705C9.4231 4.38319 8.35877 3.3137 7.04975 3.3137C5.73612 3.3137 4.67179 4.38319 4.67179 5.68705C4.67179 7.00068 5.73612 8.07247 7.04975 8.07247ZM5.56659 28.4328C6.20123 28.4328 6.73768 27.8889 6.73768 27.2692L6.73768 21.9282L7.04975 19.3678L7.36698 21.9282L7.36698 27.2692C7.36698 27.8889 7.89596 28.4328 8.53061 28.4328C9.1601 28.4328 9.68677 27.8889 9.68677 27.2692L9.68677 13.6685C9.68677 13.5215 9.82064 13.5244 9.86947 13.6146C10.8147 15.359 11.5402 17.4138 11.8458 18.2955C12.0439 18.8934 12.7153 19.234 13.3081 19.0232C13.7882 18.8664 14.0995 18.4207 14.0995 17.9331C14.0995 17.8205 14.08 17.6907 14.0358 17.5632C13.9473 17.2835 12.2395 12.2016 10.0964 9.78498C9.62939 9.23701 8.91256 8.89928 8.13944 8.89928L5.95776 8.89928C5.18464 8.89928 4.4678 9.23701 4.00312 9.78498C1.85765 12.2016 0.152186 17.2835 0.0637496 17.5632C0.0172263 17.6907 0 17.8228 0 17.9354C0 18.4207 0.311287 18.8664 0.791441 19.0232C1.38417 19.234 2.05327 18.8934 2.25143 18.2955C2.55932 17.4138 3.28252 15.359 4.22257 13.6369C4.28632 13.5244 4.41273 13.5364 4.41273 13.6835L4.41273 27.2692C4.41273 27.8889 4.94687 28.4328 5.56659 28.4328ZM7.04975 1.74799C10.3616 1.74799 12.3664 4.81627 12.3664 9.83289L12.3664 17.9429L14.0995 17.9429L14.0995 9.83289C14.0995 3.74757 11.4378 0.0149214 7.04975 0.0149214C2.67148 0.0149214 0.00230491 3.74757 0.00230491 9.83289L0.00230491 17.9452L1.73537 17.9452L1.73537 9.83289C1.73537 4.81627 3.73787 1.74799 7.04975 1.74799Z"
                     fill="currentColor" fill-opacity="0.85" />
       </g>
</svg>