<?xml version="1.0" encoding="UTF-8"?>
<!--Generator: Apple Native CoreSVG 326-->
<!DOCTYPE svg PUBLIC "-//W3C//DTD SVG 1.1//EN" "http://www.w3.org/Graphics/SVG/1.1/DTD/svg11.dtd">
<svg version="1.1" xmlns="http://www.w3.org/2000/svg" xmlns:xlink="http://www.w3.org/1999/xlink"
       viewBox="0 0 21.365 21.006">
       <g>
              <rect height="21.006" opacity="0" width="21.365" x="0" y="0" />
              <path d="M21.0037 10.4981C21.0037 16.2923 16.302 20.9962 10.4981 20.9962C4.70394 20.9962 0 16.2923 0 10.4981C0 4.70163 4.70394 0 10.4981 0C16.302 0 21.0037 4.70163 21.0037 10.4981ZM7.95826 5.34677C7.3597 5.34677 7.16154 6.00908 7.55271 6.39279L8.21756 7.06971L4.54059 7.06971C4.30798 7.06971 4.10927 7.27072 4.10927 7.50334C4.10927 7.74857 4.30798 7.94212 4.54059 7.94212L7.61033 7.94212L7.57697 7.99041C7.2299 8.43447 7.30912 9.11588 7.72334 9.51287L8.61268 10.3924L8.61268 10.8133L7.88462 10.0852C7.72783 9.92612 7.43607 9.9112 7.27697 10.0852C7.10525 10.2569 7.10756 10.5338 7.27697 10.7078L8.61268 12.0435L8.61268 12.5963L6.47146 10.4603C6.29228 10.2937 6.02291 10.2885 5.85634 10.4603C5.67717 10.6291 5.68463 10.906 5.85634 11.0754L11.4094 16.6359C11.726 16.9525 12.0598 17.119 12.4619 17.119C12.737 17.119 12.9305 16.9232 12.9305 16.6802C12.9305 16.4327 12.7347 16.2294 12.4918 16.2294C12.2997 16.2294 12.1768 16.1679 11.9269 15.9203L9.65869 13.6475C9.73396 13.5745 9.79486 13.4653 9.80978 13.3562L9.81725 13.2607L12.8352 16.2809C13.1644 16.6124 13.5722 16.7394 14.0168 16.7394C14.2471 16.7394 14.4556 16.5458 14.4556 16.308C14.4556 16.0726 14.2471 15.8693 14.0168 15.8693C13.7054 15.8693 13.6049 15.8055 13.3573 15.5579L11.2178 13.4161C11.2684 13.3259 11.3092 13.2288 11.3092 13.1075L11.3092 10.6355C11.3092 10.4792 11.2385 10.3328 11.126 10.2104L9.8201 8.90971L10.9846 7.75779C11.0352 7.70205 11.0927 7.69744 11.1531 7.75779L11.9964 8.60861C12.1016 8.71373 12.2555 8.78209 12.4117 8.78209L14.6364 8.78209L14.6364 13.247C14.6364 13.4871 14.8276 13.6881 15.0752 13.6881C15.3129 13.6881 15.499 13.4871 15.499 13.247L15.499 8.1617C15.499 7.83658 15.2261 7.56029 14.8912 7.56029L12.6737 7.56029L10.8531 5.74947C10.5992 5.50818 10.2453 5.34677 9.89143 5.34677ZM10.0799 10.8923L10.0799 12.2782L9.83217 12.0328L9.83217 10.637ZM11.5167 5.18252C11.5167 5.84888 12.051 6.3906 12.7173 6.3906C13.3665 6.3906 13.9059 5.84888 13.9059 5.18252C13.9059 4.52591 13.3665 3.9865 12.7173 3.9865C12.051 3.9865 11.5167 4.52591 11.5167 5.18252Z"
                     fill="currentColor" fill-opacity="0.85" />
       </g>
</svg>