<?xml version="1.0" encoding="UTF-8"?>
<!--Generator: Apple Native CoreSVG 326-->
<!DOCTYPE svg PUBLIC "-//W3C//DTD SVG 1.1//EN" "http://www.w3.org/Graphics/SVG/1.1/DTD/svg11.dtd">
<svg version="1.1" xmlns="http://www.w3.org/2000/svg" xmlns:xlink="http://www.w3.org/1999/xlink"
       viewBox="0 0 26.8653 20.964">
       <g>
              <rect height="20.964" opacity="0" width="26.8653" x="0" y="0" />
              <path d="M17.417 4.78237C18.7329 4.78237 19.8093 3.70596 19.8093 2.39003C19.8093 1.0741 18.7329 0 17.417 0C16.101 0 15.0344 1.0741 15.0344 2.39003C15.0344 3.70596 16.101 4.78237 17.417 4.78237ZM10.1885 20.7424C10.71 20.9359 11.3911 20.7987 11.734 20.1106L14.3459 14.8793C14.5786 14.4238 14.5297 13.8702 14.1231 13.4658L11.1354 10.4758L14.9015 8.59387C15.0474 8.52606 15.1481 8.54505 15.2549 8.64446L17.6273 11.0122C17.8404 11.2253 18.1615 11.3723 18.4774 11.3723L23.4591 11.3723C24.1179 11.3723 24.6716 10.8284 24.6716 10.1501C24.6716 9.48388 24.1179 8.93021 23.4591 8.93021L18.977 8.93021L14.6263 4.56971C14.0835 4.01197 13.3104 3.69893 12.5229 3.69893L3.83929 3.69893C3.16558 3.69893 2.61937 4.24514 2.61937 4.91884C2.61937 5.59486 3.16558 6.14106 3.83929 6.14106L9.73578 6.14106C9.87305 6.14106 9.90465 6.25485 9.76969 6.32607L8.40432 7.0076C7.31354 7.5481 6.76327 8.58775 6.76327 9.6297C6.76327 10.5223 7.16936 11.4126 7.98616 12.0094L11.7005 14.7127L9.54405 19.0205C9.13741 19.8361 9.58596 20.5098 10.1885 20.7424ZM1.22738 16.5962L6.4512 16.5962C6.91643 16.5962 7.34029 16.3343 7.55338 15.9225L8.56682 13.8663L7.30499 12.9502C6.8989 12.6567 6.57148 12.312 6.32218 11.9427L5.5914 14.1615L1.22738 14.1615C0.553669 14.1615 0 14.7077 0 15.3739C0 16.0477 0.553669 16.5962 1.22738 16.5962ZM23.8085 0.803936C22.2938 0.803936 21.1204 1.9601 21.1204 3.48221C21.1204 5.11792 22.337 6.78086 23.2738 8.23473L24.3409 8.23473C25.2874 6.81817 26.504 5.15522 26.504 3.48221C26.504 1.9601 25.3306 0.803936 23.8085 0.803936ZM23.8085 2.537C24.3624 2.537 24.7709 2.94783 24.7709 3.48221C24.7709 4.08628 24.2945 5.18421 23.8085 6.01538C23.33 5.18421 22.8535 4.08628 22.8535 3.48221C22.8535 2.94783 23.262 2.537 23.8085 2.537ZM22.9557 10.1501L24.6716 10.1501L24.6716 7.28455L22.9557 7.28455Z"
                     fill="currentColor" fill-opacity="0.85" />
       </g>
</svg>