<?xml version="1.0" encoding="UTF-8"?>
<!--Generator: Apple Native CoreSVG 326-->
<!DOCTYPE svg PUBLIC "-//W3C//DTD SVG 1.1//EN" "http://www.w3.org/Graphics/SVG/1.1/DTD/svg11.dtd">
<svg version="1.1" xmlns="http://www.w3.org/2000/svg" xmlns:xlink="http://www.w3.org/1999/xlink"
       viewBox="0 0 21.365 21.006">
       <g>
              <rect height="21.006" opacity="0" width="21.365" x="0" y="0" />
              <path d="M10.4981 20.9962C16.302 20.9962 21.0037 16.2946 21.0037 10.4981C21.0037 4.70163 16.302 0 10.4981 0C4.70163 0 0 4.70163 0 10.4981C0 16.2946 4.70163 20.9962 10.4981 20.9962ZM10.4981 17.9484C6.37829 17.9484 3.04785 14.6179 3.04785 10.4981C3.04785 6.37829 6.37829 3.04785 10.4981 3.04785C14.6179 3.04785 17.9558 6.37829 17.9558 10.4981C17.9558 14.6179 14.6179 17.9484 10.4981 17.9484Z"
                     fill="currentColor" fill-opacity="0.85" />
              <path d="M9.26728 6.55474C9.7188 6.55474 10.0801 6.20833 10.0801 5.74189C10.0801 5.29036 9.7188 4.92673 9.26728 4.92673C8.80829 4.92673 8.4372 5.29036 8.4372 5.74189C8.4372 6.20833 8.80829 6.55474 9.26728 6.55474ZM5.11179 13.3562L7.29395 13.3562C7.44274 13.3562 7.51856 13.3343 7.62313 13.3148L10.1167 12.7115C10.2028 12.6943 10.2666 12.7483 10.2568 12.8367L10.1137 13.9729L9.29997 13.4016C9.05353 13.2258 8.69911 13.2867 8.51357 13.5383C8.33032 13.7974 8.37915 14.1489 8.64567 14.3396L10.124 15.3704C10.517 15.6485 11.015 15.556 11.1276 15.1309L12.4329 9.86541C12.4548 9.78959 12.491 9.77291 12.5616 9.78267L16.3875 10.5394C16.8074 10.6272 17.0642 10.3073 17.0642 9.98732C17.0642 9.75295 16.92 9.49389 16.6098 9.43529L12.7851 8.65623C11.516 8.40287 10.7169 8.29084 9.80572 8.29084L8.67673 8.29084L8.67673 7.1377C8.67673 6.81774 8.42282 6.55868 8.10286 6.55868C7.78521 6.55868 7.53361 6.81774 7.53361 7.1377L7.53361 8.86009C7.53361 9.16283 7.78521 9.42419 8.10286 9.42419L10.0798 9.42419C10.1499 9.42419 10.1959 9.4874 10.1764 9.56498L9.79432 11.018C9.73857 11.2467 9.6001 11.3995 9.37888 11.4823L7.26696 12.2251L5.11179 12.2251C4.79414 12.2251 4.55 12.4692 4.55 12.7846C4.55 13.1069 4.79414 13.3562 5.11179 13.3562ZM11.8883 8.01333C12.503 8.01333 13.008 7.50607 13.008 6.88907C13.008 6.26693 12.503 5.76942 11.8883 5.76942C11.269 5.76942 10.7641 6.26693 10.7641 6.88907C10.7641 7.50607 11.269 8.01333 11.8883 8.01333Z"
                     fill="currentColor" fill-opacity="0.85" />
       </g>
</svg>