<?xml version="1.0" encoding="UTF-8"?>
<!--Generator: Apple Native CoreSVG 326-->
<!DOCTYPE svg PUBLIC "-//W3C//DTD SVG 1.1//EN" "http://www.w3.org/Graphics/SVG/1.1/DTD/svg11.dtd">
<svg version="1.1" xmlns="http://www.w3.org/2000/svg" xmlns:xlink="http://www.w3.org/1999/xlink"
       viewBox="0 0 23.788 23.4308">
       <g>
              <rect height="23.4308" opacity="0" width="23.788" x="0" y="0" />
              <path d="M14.2954 1.23766L22.1825 9.12477C23.8292 10.779 23.839 12.6398 22.1894 14.2894L14.2908 22.1903C12.6463 23.8325 10.7804 23.8302 9.12615 22.176L1.2442 14.294C-0.410017 12.6398-0.414627 10.7813 1.22982 9.12938L9.13822 1.23075C10.7827-0.413701 12.6486-0.409091 14.2954 1.23766ZM10.1316 14.4883L8.55004 16.3922C7.97332 17.0688 8.91422 17.7581 9.40019 17.1716L11.0266 15.2482C11.1949 15.0506 11.2242 14.9794 11.2828 14.7944L11.3351 14.6425L10.3775 13.4287ZM9.94203 9.04901L9.10559 9.86077C8.835 10.1388 8.73734 10.368 8.71551 10.7368L8.60293 12.0266C8.5834 12.3907 8.79879 12.6498 9.13367 12.6596C9.47316 12.6963 9.69086 12.4786 9.72015 12.0926L9.83218 10.7109L10.1672 10.4294C10.2614 10.3299 10.4241 10.3857 10.412 10.5242L10.3367 11.6169C10.2804 12.1995 10.4143 12.5218 10.8612 13.0686L11.9482 14.4411C12.0481 14.5703 12.0751 14.6163 12.1165 14.714L13.2477 17.0154C13.6216 17.7604 14.7527 17.2963 14.3448 16.4754L13.2452 14.2326C13.155 14.0741 13.043 13.8988 12.9304 13.73L12.2559 12.7556L12.2749 12.6539C12.4525 12.0708 12.5455 11.7318 12.5823 11.1786L12.7018 9.61311C12.7506 8.80772 12.2669 8.22463 11.469 8.22463C10.8836 8.22463 10.4734 8.53713 9.94203 9.04901ZM13.198 11.0807L13.3258 11.2061C13.5211 11.3791 13.6848 11.4577 14.0289 11.4577L15.1894 11.4577C15.5582 11.4577 15.8029 11.2326 15.8029 10.9028C15.8029 10.5657 15.5582 10.348 15.1894 10.348L13.9686 10.348L13.298 9.60959ZM10.9525 6.57358C10.9525 7.22502 11.4994 7.76674 12.168 7.76674C12.8195 7.76674 13.3589 7.22502 13.3589 6.57358C13.3589 5.91467 12.8195 5.37525 12.168 5.37525C11.4994 5.37525 10.9525 5.91467 10.9525 6.57358Z"
                     fill="currentColor" fill-opacity="0.85" />
       </g>
</svg>