<?xml version="1.0" encoding="UTF-8"?>
<!--Generator: Apple Native CoreSVG 326-->
<!DOCTYPE svg PUBLIC "-//W3C//DTD SVG 1.1//EN" "http://www.w3.org/Graphics/SVG/1.1/DTD/svg11.dtd">
<svg version="1.1" xmlns="http://www.w3.org/2000/svg" xmlns:xlink="http://www.w3.org/1999/xlink"
       viewBox="0 0 22.5771 19.3133">
       <g>
              <rect height="19.3133" opacity="0" width="22.5771" x="0" y="0" />
              <path d="M11.1567 4.77491C12.4703 4.77491 13.5467 3.6985 13.5467 2.38027C13.5467 1.06664 12.4703 0 11.1567 0C9.83847 0 8.77183 1.06664 8.77183 2.38027C8.77183 3.6985 9.83847 4.77491 11.1567 4.77491ZM1.64196 14.487L6.76812 14.927C7.41575 14.9828 8.08624 15.116 8.73957 15.2981L14.9698 17.0524L20.5871 19.1123C21.1379 19.3082 21.9293 19.1123 22.1522 18.3748C22.3458 17.7603 22.0666 17.0596 21.4297 16.8293L15.8221 14.7866C15.7342 14.7573 15.5585 14.6964 15.4826 14.6597L11.3053 13.1483C11.8768 12.0316 12.6064 10.3002 12.8017 8.42986C12.8212 8.28216 12.861 8.24935 12.9966 8.24935L20.4928 8.24935C21.1614 8.24935 21.703 7.69568 21.703 7.03689C21.703 6.36088 21.1614 5.81698 20.4928 5.81698L12.2734 5.81698C10.9028 5.81698 10.8005 5.82213 9.31277 5.40913L1.54539 3.25159C0.888913 3.0678 0.232432 3.45491 0.046339 4.0867C-0.137449 4.74318 0.242198 5.41689 0.888913 5.59322L8.15078 7.59681C8.28179 7.63818 8.31691 7.68537 8.29738 7.8233C8.07277 9.55642 7.25301 11.231 6.77395 12.0696L2.96238 12.0696L2.96238 8.07029C2.96238 7.40404 2.38172 6.8653 1.74016 6.8653C1.07391 6.8653 0.520245 7.40404 0.520245 8.07029L0.520245 13.2723C0.520245 13.9627 0.858524 14.4187 1.64196 14.487Z"
                     fill="currentColor" fill-opacity="0.85" />
       </g>
</svg>