<?xml version="1.0" encoding="UTF-8"?>
<!--Generator: Apple Native CoreSVG 326-->
<!DOCTYPE svg PUBLIC "-//W3C//DTD SVG 1.1//EN" "http://www.w3.org/Graphics/SVG/1.1/DTD/svg11.dtd">
<svg version="1.1" xmlns="http://www.w3.org/2000/svg" xmlns:xlink="http://www.w3.org/1999/xlink"
       viewBox="0 0 21.3949 22.3959">
       <g>
              <rect height="22.3959" opacity="0" width="21.3949" x="0" y="0" />
              <path d="M3.00745 5.99658C4.67834 5.99658 5.99197 4.62842 5.99197 3.01667C5.99197 1.34062 4.67834 0 3.00745 0C1.33601 0 0 1.34062 0 3.01667C0 4.6192 1.33601 5.99658 3.00745 5.99658ZM20.585 21.7543C21.1633 21.1811 21.2368 20.2432 20.4822 19.454L15.729 14.4947C14.5872 13.3064 13.3891 13.1323 11.9756 13.6642L9.50735 14.5809L6.53424 9.16544C5.58479 7.45318 3.97018 6.82708 2.42163 7.69095C0.831716 8.57204 0.525585 10.2418 1.45781 11.9523L3.57464 15.7902C4.69405 17.828 7.24579 18.7974 9.55661 17.9347L12.9498 16.672C13.2094 16.5767 13.3443 16.6008 13.5258 16.7846L18.1279 21.5533C18.9021 22.3545 19.9429 22.401 20.585 21.7543Z"
                     fill="currentColor" fill-opacity="0.85" />
              <path d="M12.5211 9.7171C13.2308 9.7171 13.6614 9.3175 13.8378 8.5027L14.0806 7.70587L16.5546 7.70587L16.7975 8.5027C16.9738 9.3175 17.4142 9.7171 18.1165 9.7171C18.9416 9.7171 19.421 9.24738 19.421 8.46134C19.421 8.2454 19.3694 7.95947 19.239 7.55811L17.5044 2.41581C17.1225 1.244 16.4083 0.696818 15.2892 0.696818C14.2023 0.696818 13.5202 1.23654 13.1407 2.41581L11.3962 7.55811C11.2682 7.95947 11.2165 8.2454 11.2165 8.45903C11.2165 9.24968 11.7012 9.7171 12.5211 9.7171ZM14.5482 5.78046L15.2651 3.04567L15.3725 3.04567L16.0968 5.78046Z"
                     fill="currentColor" fill-opacity="0.85" />
       </g>
</svg>