<?xml version="1.0" encoding="UTF-8"?>
<!--Generator: Apple Native CoreSVG 326-->
<!DOCTYPE svg PUBLIC "-//W3C//DTD SVG 1.1//EN" "http://www.w3.org/Graphics/SVG/1.1/DTD/svg11.dtd">
<svg version="1.1" xmlns="http://www.w3.org/2000/svg" xmlns:xlink="http://www.w3.org/1999/xlink"
       viewBox="0 0 21.365 21.006">
       <g>
              <rect height="21.006" opacity="0" width="21.365" x="0" y="0" />
              <path d="M10.4981 20.9962C16.302 20.9962 21.0037 16.2946 21.0037 10.4981C21.0037 4.70163 16.302 0 10.4981 0C4.70163 0 0 4.70163 0 10.4981C0 16.2946 4.70163 20.9962 10.4981 20.9962ZM10.4981 17.9484C6.37829 17.9484 3.04785 14.6179 3.04785 10.4981C3.04785 6.37829 6.37829 3.04785 10.4981 3.04785C14.6179 3.04785 17.9558 6.37829 17.9558 10.4981C17.9558 14.6179 14.6179 17.9484 10.4981 17.9484Z"
                     fill="currentColor" fill-opacity="0.85" />
              <path d="M7.53033 8.86282C8.14502 8.86282 8.64767 8.36532 8.64767 7.74087C8.64767 7.12618 8.14502 6.62122 7.53033 6.62122C6.90357 6.62122 6.40091 7.12618 6.40091 7.74087C6.40091 8.36532 6.90357 8.86282 7.53033 8.86282ZM10.4623 13.7687L11.886 11.817L12.764 13.4223C13.0759 14.896 13.1075 15.7583 13.1075 15.9313C13.1075 16.2707 13.3614 16.5097 13.6814 16.5097C14.0088 16.5097 14.2507 16.2409 14.2507 15.9186C14.2507 15.5836 14.2265 14.3347 13.868 13.1024L13.8462 13.0145C13.2855 11.056 12.1652 7.32337 8.87841 5.13047C8.70263 5.02075 8.54407 4.96961 8.36368 4.96961L6.73489 4.96961C6.427 4.96961 6.16563 5.23098 6.16563 5.54118C6.16563 5.86114 6.427 6.1225 6.73489 6.1225L8.29478 6.1225C8.8038 6.47583 9.24447 6.84813 9.64146 7.25489C9.67021 7.28595 9.68744 7.31415 9.65814 7.36759L7.98458 10.2103C7.74275 10.6181 8.04087 11.0702 8.47802 11.0702L10.624 11.0702L9.48521 13.1507L9.43639 13.2409L8.11845 15.6573C7.95935 15.9433 8.0547 16.2949 8.34076 16.4391C8.59466 16.5758 8.94908 16.527 9.12255 16.207ZM9.40751 9.97416L9.74306 9.3881C9.78904 9.30306 9.86377 9.32775 9.89252 9.37834L10.2867 9.97416Z"
                     fill="currentColor" fill-opacity="0.85" />
       </g>
</svg>