<?xml version="1.0" encoding="UTF-8"?>
<!--Generator: Apple Native CoreSVG 326-->
<!DOCTYPE svg PUBLIC "-//W3C//DTD SVG 1.1//EN" "http://www.w3.org/Graphics/SVG/1.1/DTD/svg11.dtd">
<svg version="1.1" xmlns="http://www.w3.org/2000/svg" xmlns:xlink="http://www.w3.org/1999/xlink"
       viewBox="0 0 17.588 25.4849">
       <g>
              <rect height="25.4849" opacity="0" width="17.588" x="0" y="0" />
              <path d="M8.51381 5.33616C9.82744 5.33616 10.9038 4.26952 10.9038 2.94898C10.9038 1.63765 9.82744 0.56125 8.51381 0.56125C7.19557 0.56125 6.12147 1.63765 6.12147 2.94898C6.12147 4.26952 7.19557 5.33616 8.51381 5.33616ZM1.13785 25.196C1.6496 25.458 2.4089 25.3626 2.76155 24.7159L5.34932 20.0734L6.73725 16.966C6.79639 16.8231 6.96119 16.7863 7.07947 16.8748L10.8141 19.58L10.8141 24.1232C10.8141 24.7917 11.358 25.3282 12.0317 25.3282C12.7003 25.3282 13.2344 24.7917 13.2344 24.1232L13.2344 19.0361C13.2344 18.7081 13.1414 18.3405 12.8645 18.0832L8.67291 14.1236L8.98662 11.5651C8.99639 11.4703 9.13772 11.4605 9.17678 11.5582L9.87608 13.2464C10.0771 13.7093 10.5033 13.9861 10.9932 13.9861L15.3692 13.9861C16.0354 13.9861 16.5718 13.4572 16.5718 12.7834C16.5718 12.1097 16.0354 11.5808 15.3692 11.5808L11.7869 11.5808L10.3508 8.21799C9.9499 7.27654 9.32096 6.7435 7.98143 6.3644L7.37772 6.19323C5.95315 5.78999 4.92843 5.73139 3.73769 6.23975L2.41284 6.80967L2.41284 3.24455C2.41284 2.59553 1.86663 2.05163 1.20269 2.05163C0.536442 2.05163 0 2.59553 0 3.24455L0 8.77396C0 9.64868 0.904018 10.1041 1.68284 9.76126L4.37136 8.59278C4.49085 8.54395 4.57074 8.61462 4.55121 8.72149L3.12257 19.1033L0.650233 23.5448C0.336641 24.1232 0.5325 24.8848 1.13785 25.196ZM14.3768 9.6889L16.1099 9.6889L16.1099 0.865381C16.1099 0.39105 15.7165 0 15.2422 0C14.7679 0 14.3768 0.39105 14.3768 0.865381ZM13.8498 10.5985L16.6272 10.5985C17.0986 10.5985 17.3323 10.1908 17.1727 9.74858C16.8987 8.94901 16.1354 8.35913 15.2422 8.35913C14.3416 8.35913 13.5857 8.94901 13.2968 9.7635C13.1446 10.2281 13.4156 10.5985 13.8498 10.5985Z"
                     fill="currentColor" fill-opacity="0.85" />
       </g>
</svg>