<?xml version="1.0" encoding="UTF-8"?>
<!--Generator: Apple Native CoreSVG 326-->
<!DOCTYPE svg PUBLIC "-//W3C//DTD SVG 1.1//EN" "http://www.w3.org/Graphics/SVG/1.1/DTD/svg11.dtd">
<svg version="1.1" xmlns="http://www.w3.org/2000/svg" xmlns:xlink="http://www.w3.org/1999/xlink"
       viewBox="0 0 21.365 21.006">
       <g>
              <rect height="21.006" opacity="0" width="21.365" x="0" y="0" />
              <path d="M10.4981 20.9962C16.302 20.9962 21.0037 16.2946 21.0037 10.4981C21.0037 4.70163 16.302 0 10.4981 0C4.70163 0 0 4.70163 0 10.4981C0 16.2946 4.70163 20.9962 10.4981 20.9962ZM10.4981 17.9484C6.37829 17.9484 3.04785 14.6179 3.04785 10.4981C3.04785 6.37829 6.37829 3.04785 10.4981 3.04785C14.6179 3.04785 17.9558 6.37829 17.9558 10.4981C17.9558 14.6179 14.6179 17.9484 10.4981 17.9484Z"
                     fill="currentColor" fill-opacity="0.85" />
              <path d="M9.56225 6.48747C10.1867 6.48747 10.6842 5.98997 10.6842 5.36782C10.6842 4.76059 10.1867 4.24587 9.56225 4.24587C8.95502 4.24587 8.4426 4.76059 8.4426 5.36782C8.4426 5.98997 8.95502 6.48747 9.56225 6.48747ZM12.1136 14.2238C12.3457 14.1141 12.4996 13.8429 12.3532 13.4667L11.5006 11.3473C11.4661 11.2617 11.4001 11.1957 11.2903 11.1227L9.77588 9.9903L9.88275 8.44181C9.89482 8.35161 9.96318 8.30509 10.0557 8.32923L10.9601 8.63548C11.0698 8.67224 11.1967 8.68201 11.3237 8.67224L13.1897 8.46025C13.9543 8.37236 13.8176 7.25853 13.0628 7.34642L11.2703 7.54349L9.43123 6.9322C8.71142 6.69552 8.08697 7.10798 8.02838 7.83009L7.88474 9.51342C7.83592 10.05 8.11627 10.5693 8.57471 10.8376L10.5281 11.9677L11.3002 13.8894C11.4542 14.2778 11.8425 14.3582 12.1136 14.2238ZM7.49236 15.0689C7.72212 15.2085 8.04033 15.1918 8.25056 14.8787L9.51967 12.9737C9.56619 12.8978 9.61271 12.7927 9.61732 12.683L9.65353 12.0342L8.42822 11.319L8.48396 12.5072L7.31482 14.2411C7.07814 14.5927 7.23154 14.9219 7.49236 15.0689ZM11.493 15.9299L13.386 15.3014C13.5819 15.2353 13.6921 15.0809 13.6921 14.8459L13.6921 8.80041C13.5572 8.87962 13.4211 8.93415 13.2339 8.95138L12.8639 8.99275L12.8639 14.6156L11.2431 15.1534C10.9565 15.2464 10.8928 15.5061 10.9738 15.6996C11.0473 15.8811 11.2408 16.0155 11.493 15.9299ZM7.43364 16.2988L9.36693 16.2988C9.59725 16.2988 9.78564 16.103 9.78564 15.8847C9.78564 15.6619 9.59725 15.4781 9.36693 15.4781L7.43364 15.4781C7.20333 15.4781 7.02185 15.6642 7.02185 15.8847C7.02185 16.103 7.20333 16.2988 7.43364 16.2988Z"
                     fill="currentColor" fill-opacity="0.85" />
       </g>
</svg>