<?xml version="1.0" encoding="UTF-8"?>
<!--Generator: Apple Native CoreSVG 326-->
<!DOCTYPE svg PUBLIC "-//W3C//DTD SVG 1.1//EN" "http://www.w3.org/Graphics/SVG/1.1/DTD/svg11.dtd">
<svg version="1.1" xmlns="http://www.w3.org/2000/svg" xmlns:xlink="http://www.w3.org/1999/xlink"
       viewBox="0 0 21.365 21.006">
       <g>
              <rect height="21.006" opacity="0" width="21.365" x="0" y="0" />
              <path d="M21.0037 10.4981C21.0037 16.2923 16.302 20.9962 10.4981 20.9962C4.70394 20.9962 0 16.2923 0 10.4981C0 4.70163 4.70394 0 10.4981 0C16.302 0 21.0037 4.70163 21.0037 10.4981ZM5.38232 14.5906C5.23529 14.7548 5.20083 15.0489 5.43115 15.2522C5.83384 15.5963 6.35142 15.7284 6.93681 15.7284L14.0129 15.7284C14.608 15.7284 15.1182 15.5963 15.5209 15.2522C15.7414 15.0564 15.7242 14.8163 15.5921 14.6423C15.4669 14.4682 15.1946 14.3873 14.9597 14.571C14.6989 14.7607 14.4685 14.8583 14.0129 14.8583L6.93681 14.8583C6.48868 14.8583 6.26056 14.7583 6.00204 14.571C5.77458 14.3993 5.53911 14.4458 5.38232 14.5906ZM6.16872 5.77349C5.82408 5.77349 5.54548 6.05724 5.54548 6.38466C5.54548 6.72185 5.82408 7.01767 6.16872 7.01767L8.14271 7.01767L9.03151 7.54853C9.11885 7.5922 9.14069 7.67439 9.10448 7.73935L7.94685 9.46744C7.30056 10.4182 7.79006 11.6936 8.94022 11.9072L8.05658 13.3166C7.87795 13.6124 7.96123 14.0058 8.26682 14.1891C8.54541 14.358 8.94865 14.2649 9.12213 13.9938L10.3453 12.01L11.541 12.0635L10.7378 13.3166C10.5643 13.6124 10.6573 14.0156 10.9555 14.1891C11.2461 14.358 11.6155 14.2747 11.8062 13.9714L13.1321 11.8607C13.3739 11.4649 13.1712 10.929 12.6042 10.8733L10.3689 10.6394C10.2165 10.6176 10.1585 10.4728 10.2458 10.332L11.1524 8.97267C11.1984 8.90716 11.2829 8.88763 11.3535 8.929L14.7316 10.9518C15.0027 11.1253 15.4134 11.0299 15.5771 10.7513C15.7409 10.4509 15.6604 10.0695 15.3646 9.88858L8.67861 5.87169C8.54135 5.79587 8.44599 5.77349 8.28119 5.77349ZM11.2076 6.08095C11.2076 6.7324 11.7522 7.26951 12.3985 7.26951C13.0625 7.26951 13.6019 6.7324 13.6019 6.08095C13.6019 5.41974 13.0625 4.87517 12.3985 4.87517C11.7522 4.87517 11.2076 5.41974 11.2076 6.08095Z"
                     fill="currentColor" fill-opacity="0.85" />
       </g>
</svg>