<?xml version="1.0" encoding="UTF-8"?>
<!--Generator: Apple Native CoreSVG 326-->
<!DOCTYPE svg PUBLIC "-//W3C//DTD SVG 1.1//EN" "http://www.w3.org/Graphics/SVG/1.1/DTD/svg11.dtd">
<svg version="1.1" xmlns="http://www.w3.org/2000/svg" xmlns:xlink="http://www.w3.org/1999/xlink"
       viewBox="0 0 28.5516 24.1533">
       <g>
              <rect height="24.1533" opacity="0" width="28.5516" x="0" y="0" />
              <path d="M9.47577 22.4962L12.3842 22.4962C13.0222 22.4962 13.4087 22.0345 13.2318 21.2731L12.2087 16.8171L15.2279 13.0919L24.2062 11.4651L24.9047 12.784C25.3045 13.5295 26.5921 13.2618 26.4278 12.3447L25.9315 9.55357C25.8333 8.98905 25.4526 8.74327 24.9099 8.83917L18.7457 9.93631L14.8919 9.73584C13.7999 9.53307 12.0295 8.76389 11.6389 7.79709C11.5613 7.58104 11.6504 7.43158 11.8446 7.39021L17.6807 6.35397C18.5135 6.20694 18.8099 5.50624 18.6876 4.9112C18.5601 4.33339 18.0334 3.81648 17.235 3.95835L0.987626 6.93268C0.211107 7.07225-0.0777982 7.72643 0.0175531 8.32147C0.130131 8.93142 0.654503 9.46556 1.47008 9.31853L6.2234 8.44599C6.53426 8.3851 6.64805 8.45928 6.69688 8.65174C7.26152 10.7317 9.27949 12.2275 11.3537 13.0615L9.90613 15.5173C9.66144 15.9257 9.55402 16.3616 9.68613 16.9343L10.5139 20.5314L9.30406 20.9266C8.48047 21.1914 8.55344 22.4962 9.47577 22.4962ZM7.73379 4.77491C9.05203 4.77491 10.1261 3.70827 10.1261 2.39003C10.1261 1.0741 9.05203 0 7.73379 0C6.41786 0 5.34376 1.0741 5.34376 2.39003C5.34376 3.70827 6.41786 4.77491 7.73379 4.77491ZM8.73438 24.1435L12.8684 24.1435C13.1234 24.1435 13.3198 23.9351 13.3198 23.6898C13.3198 23.4302 13.1234 23.2315 12.8684 23.2315L8.73438 23.2315C8.48684 23.2315 8.27836 23.4302 8.27836 23.6898C8.27836 23.9351 8.48684 24.1435 8.73438 24.1435ZM28.1825 12.8651L27.4662 8.78737C27.4197 8.54213 27.1866 8.38018 26.9413 8.4267C26.6915 8.47092 26.5272 8.69662 26.5737 8.95162L27.2826 13.0196C27.3291 13.2746 27.5623 13.4411 27.8219 13.3923C28.0573 13.3504 28.2291 13.1201 28.1825 12.8651Z"
                     fill="currentColor" fill-opacity="0.85" />
       </g>
</svg>