<?xml version="1.0" encoding="UTF-8"?>
<!--Generator: Apple Native CoreSVG 326-->
<!DOCTYPE svg PUBLIC "-//W3C//DTD SVG 1.1//EN" "http://www.w3.org/Graphics/SVG/1.1/DTD/svg11.dtd">
<svg version="1.1" xmlns="http://www.w3.org/2000/svg" xmlns:xlink="http://www.w3.org/1999/xlink"
       viewBox="0 0 21.365 21.006">
       <g>
              <rect height="21.006" opacity="0" width="21.365" x="0" y="0" />
              <path d="M21.0037 10.4981C21.0037 16.2923 16.302 20.9962 10.4981 20.9962C4.70394 20.9962 0 16.2923 0 10.4981C0 4.70163 4.70394 0 10.4981 0C16.302 0 21.0037 4.70163 21.0037 10.4981ZM15.1714 10.566C15.0169 10.72 14.9899 10.9876 15.2569 11.2151C15.6126 11.5391 15.8338 11.9867 15.8338 12.5078C15.8338 13.4942 15.0473 14.2509 14.0734 14.2509C13.0921 14.2509 12.3331 13.4942 12.3331 12.5078C12.3331 12.2716 12.3693 12.0355 12.4693 11.8091C12.614 11.5179 12.4618 11.2825 12.2413 11.2015C12.0403 11.1308 11.8002 11.1796 11.6848 11.449C11.5412 11.7833 11.4556 12.1395 11.4556 12.5078C11.4556 13.9669 12.6292 15.1308 14.0734 15.1308C15.5176 15.1308 16.6987 13.9669 16.6987 12.5078C16.6987 11.7196 16.3426 11.0245 15.7985 10.5391C15.578 10.338 15.3109 10.4064 15.1714 10.566ZM4.18412 12.5008C4.18412 13.9525 5.35545 15.1239 6.79736 15.1239C8.24158 15.1239 9.43244 13.9525 9.43244 12.5008C9.43244 11.0492 8.24158 9.86807 6.79736 9.86807C5.35545 9.86807 4.18412 11.0492 4.18412 12.5008ZM8.56233 12.5008C8.56233 13.4821 7.77866 14.244 6.79736 14.244C5.82583 14.244 5.05423 13.4821 5.05423 12.5008C5.05423 11.5196 5.82583 10.7382 6.79736 10.7382C7.77866 10.7382 8.56233 11.5196 8.56233 12.5008ZM8.94459 6.05815C8.3931 6.05815 7.90252 6.38502 7.68537 6.89283C7.46306 7.41502 7.58771 7.9958 7.9881 8.39619L9.8426 10.2702L9.8426 12.5878C9.8426 12.9203 10.1114 13.1966 10.4388 13.1966C10.7617 13.1966 11.0379 12.9203 11.0379 12.5878L11.0379 10.0112C11.0379 9.86698 10.9742 9.72511 10.8668 9.61769L9.56091 8.15327C9.51548 8.09061 9.554 8.01643 9.60865 8.01643L11.219 8.01643C11.3569 8.01643 11.3828 8.09061 11.3828 8.21702L11.3828 9.49182C11.3828 9.81464 11.6568 10.0932 11.9894 10.0932L14.0564 10.0932C14.3816 10.0932 14.6481 9.81464 14.6481 9.49182C14.6481 9.17186 14.3816 8.88811 14.0564 8.88811L12.5931 8.88811L12.5931 7.15651C12.5931 6.54643 12.0928 6.05815 11.4724 6.05815ZM12.9856 6.35627C12.9856 7.02033 13.5227 7.55229 14.1839 7.55229C14.8503 7.55229 15.3702 7.02033 15.3702 6.35627C15.3702 5.70252 14.8503 5.15049 14.1839 5.15049C13.5227 5.15049 12.9856 5.70252 12.9856 6.35627Z"
                     fill="currentColor" fill-opacity="0.85" />
       </g>
</svg>