<?xml version="1.0" encoding="UTF-8"?>
<!--Generator: Apple Native CoreSVG 326-->
<!DOCTYPE svg PUBLIC "-//W3C//DTD SVG 1.1//EN" "http://www.w3.org/Graphics/SVG/1.1/DTD/svg11.dtd">
<svg version="1.1" xmlns="http://www.w3.org/2000/svg" xmlns:xlink="http://www.w3.org/1999/xlink"
       viewBox="0 0 21.365 21.006">
       <g>
              <rect height="21.006" opacity="0" width="21.365" x="0" y="0" />
              <path d="M10.4981 20.9962C16.302 20.9962 21.0037 16.2946 21.0037 10.4981C21.0037 4.70163 16.302 0 10.4981 0C4.70163 0 0 4.70163 0 10.4981C0 16.2946 4.70163 20.9962 10.4981 20.9962ZM10.4981 17.9484C6.37829 17.9484 3.04785 14.6179 3.04785 10.4981C3.04785 6.37829 6.37829 3.04785 10.4981 3.04785C14.6179 3.04785 17.9558 6.37829 17.9558 10.4981C17.9558 14.6179 14.6179 17.9484 10.4981 17.9484Z"
                     fill="currentColor" fill-opacity="0.85" />
              <path d="M5.11598 12.4732L5.62785 12.4732C7.01293 12.4732 7.26575 11.689 8.06325 11.689C8.74369 11.689 9.10842 12.4732 10.4935 12.4732C11.8786 12.4732 12.2433 11.689 12.9312 11.689C13.7212 11.689 13.9741 12.4732 15.3591 12.4732L15.8785 12.4732C16.1065 12.4732 16.2851 12.2745 16.2851 12.0591C16.2851 11.846 16.099 11.6525 15.8785 11.6525L15.3591 11.6525C14.5398 11.6525 14.2554 10.8757 12.9312 10.8757C11.7189 10.8757 11.3226 11.6525 10.4935 11.6525C9.67416 11.6525 9.26807 10.8757 8.06325 10.8757C6.73161 10.8757 6.45466 11.6525 5.62785 11.6525L5.11598 11.6525C4.89543 11.6525 4.70934 11.846 4.70934 12.0591C4.70934 12.2745 4.88797 12.4732 5.11598 12.4732ZM5.18039 13.9455C5.36364 13.9455 5.51528 13.8013 5.51528 13.6181C5.51528 13.4348 5.36364 13.2832 5.18039 13.2832C4.99946 13.2832 4.85528 13.4348 4.85528 13.6181C4.85528 13.8013 4.99946 13.9455 5.18039 13.9455ZM6.07665 13.7749C6.25758 13.7749 6.41153 13.6307 6.41153 13.4474C6.41153 13.2642 6.25758 13.1126 6.07665 13.1126C5.89341 13.1126 5.74923 13.2642 5.74923 13.4474C5.74923 13.6307 5.89341 13.7749 6.07665 13.7749ZM6.92923 13.3779C7.11763 13.3779 7.26411 13.2337 7.26411 13.0505C7.26411 12.8672 7.11763 12.723 6.92923 12.723C6.74599 12.723 6.60181 12.8672 6.60181 13.0505C6.60181 13.2337 6.74599 13.3779 6.92923 13.3779ZM7.83294 13.1286C8.01619 13.1286 8.16036 12.9844 8.16036 12.7937C8.16036 12.6105 8.01619 12.4663 7.83294 12.4663C7.6497 12.4663 7.49806 12.6105 7.49806 12.7937C7.49806 12.9844 7.6497 13.1286 7.83294 13.1286ZM8.7292 13.3779C8.91244 13.3779 9.05662 13.2337 9.05662 13.0505C9.05662 12.8672 8.91244 12.723 8.7292 12.723C8.54595 12.723 8.39431 12.8672 8.39431 13.0505C8.39431 13.2337 8.54595 13.3779 8.7292 13.3779ZM9.57947 13.7749C9.76272 13.7749 9.90689 13.6307 9.90689 13.4474C9.90689 13.2642 9.76272 13.1126 9.57947 13.1126C9.39854 13.1126 9.2469 13.2642 9.2469 13.4474C9.2469 13.6307 9.39854 13.7749 9.57947 13.7749ZM15.8112 13.9455C15.9922 13.9455 16.1461 13.8013 16.1461 13.6181C16.1461 13.4348 15.9922 13.2832 15.8112 13.2832C15.628 13.2832 15.4838 13.4348 15.4838 13.6181C15.4838 13.8013 15.628 13.9455 15.8112 13.9455ZM14.9173 13.7749C15.0982 13.7749 15.2521 13.6307 15.2521 13.4474C15.2521 13.2642 15.0982 13.1126 14.9173 13.1126C14.734 13.1126 14.5898 13.2642 14.5898 13.4474C14.5898 13.6307 14.734 13.7749 14.9173 13.7749ZM14.0647 13.3779C14.2456 13.3779 14.3973 13.2337 14.3973 13.0505C14.3973 12.8672 14.2456 12.723 14.0647 12.723C13.8814 12.723 13.7373 12.8672 13.7373 13.0505C13.7373 13.2337 13.8814 13.3779 14.0647 13.3779ZM13.1661 13.1286C13.3494 13.1286 13.4935 12.9844 13.4935 12.7937C13.4935 12.6105 13.3494 12.4663 13.1661 12.4663C12.9852 12.4663 12.8312 12.6105 12.8312 12.7937C12.8312 12.9844 12.9852 13.1286 13.1661 13.1286ZM12.2699 13.3779C12.4531 13.3779 12.5973 13.2337 12.5973 13.0505C12.5973 12.8672 12.4531 12.723 12.2699 12.723C12.0866 12.723 11.935 12.8672 11.935 13.0505C11.935 13.2337 12.0866 13.3779 12.2699 13.3779ZM11.4196 13.7749C11.6005 13.7749 11.747 13.6307 11.747 13.4474C11.747 13.2642 11.6005 13.1126 11.4196 13.1126C11.2364 13.1126 11.0847 13.2642 11.0847 13.4474C11.0847 13.6307 11.2364 13.7749 11.4196 13.7749ZM10.4958 13.9455C10.679 13.9455 10.8307 13.8013 10.8307 13.6181C10.8307 13.4348 10.679 13.2832 10.4958 13.2832C10.3126 13.2832 10.1684 13.4348 10.1684 13.6181C10.1684 13.8013 10.3126 13.9455 10.4958 13.9455ZM13.2182 9.61526C13.8404 9.61526 14.3379 9.1126 14.3379 8.49561C14.3379 7.88608 13.8404 7.37596 13.2182 7.37596C12.5989 7.37596 12.0963 7.88608 12.0963 8.49561C12.0963 9.1126 12.5989 9.61526 13.2182 9.61526ZM8.77299 10.3121C9.48806 10.5213 9.86201 10.9883 10.4935 10.9883C11.2169 10.9883 11.5874 10.38 12.5391 10.2472L9.72584 7.30924C9.4817 7.06279 9.12267 7.0335 8.8297 7.24603L6.93438 8.58581C6.5656 8.83971 6.60466 9.24295 6.82696 9.46987C7.00274 9.67264 7.3227 9.75077 7.62313 9.53592L9.1106 8.49658L9.89319 9.2987C9.99315 9.3912 9.9926 9.52221 9.86389 9.6021Z"
                     fill="currentColor" fill-opacity="0.85" />
       </g>
</svg>