<?xml version="1.0" encoding="UTF-8"?>
<!--Generator: Apple Native CoreSVG 326-->
<!DOCTYPE svg PUBLIC "-//W3C//DTD SVG 1.1//EN" "http://www.w3.org/Graphics/SVG/1.1/DTD/svg11.dtd">
<svg version="1.1" xmlns="http://www.w3.org/2000/svg" xmlns:xlink="http://www.w3.org/1999/xlink"
       viewBox="0 0 21.365 21.006">
       <g>
              <rect height="21.006" opacity="0" width="21.365" x="0" y="0" />
              <path d="M21.0037 10.4981C21.0037 16.2923 16.302 20.9962 10.4981 20.9962C4.70394 20.9962 0 16.2923 0 10.4981C0 4.70163 4.70394 0 10.4981 0C16.302 0 21.0037 4.70163 21.0037 10.4981ZM5.89838 13.1878L5.99834 13.3682C6.20572 13.7216 6.47861 13.9588 6.89514 13.9329L6.90205 13.9329L7.02846 14.5264L6.03564 15.1814C5.65315 15.4266 5.81279 15.9998 6.27056 15.9998L8.49385 15.9998C8.75861 15.9998 8.9424 15.7867 8.9424 15.5489C8.9424 15.3261 8.75861 15.1078 8.49385 15.1078C8.24158 15.1078 8.04736 14.9711 7.97955 14.6907L7.77217 13.764L8.08479 13.6887C8.27604 13.652 8.40584 13.478 8.40584 13.2919C8.40584 13.0857 8.24904 12.9168 8.06756 12.8875L6.33201 12.59C5.92537 12.5262 5.74389 12.9208 5.89838 13.1878ZM13.179 7.96857C13.179 8.55912 13.5031 9.08131 14.0006 9.34267L12.8625 13.9323C12.6872 14.6482 12.0863 15.1078 11.3313 15.1078C11.0913 15.1078 10.9 15.3284 10.9 15.5489C10.9 15.7844 11.089 15.9998 11.3313 15.9998L14.2274 15.9998C14.6759 15.9998 14.8109 15.4191 14.4456 15.1814L13.5579 14.5976C13.628 14.454 13.6815 14.296 13.7228 14.1357L14.8804 9.519C15.6583 9.44494 16.2971 8.77396 16.2971 7.96857C16.2971 7.11896 15.5842 6.40837 14.7369 6.40837C13.8724 6.40837 13.179 7.11896 13.179 7.96857ZM6.67368 8.47541L6.50075 10.9256C6.44216 11.6868 6.82302 12.275 7.68185 12.402L9.93971 12.7162L9.33588 14.9327C9.24053 15.2871 9.441 15.5853 9.76842 15.6709C10.0568 15.749 10.4014 15.6048 10.4968 15.2481L11.2821 12.44C11.3895 12.0367 11.2109 11.7311 10.8053 11.6237L8.61529 10.99L8.76814 9.21463C8.77044 9.14627 8.83134 9.12213 8.88247 9.16349L9.82877 9.83744C10.039 9.98623 10.3153 9.99369 10.5353 9.83744L12.3587 8.53564C12.6299 8.33517 12.6936 7.95607 12.5029 7.69471C12.3099 7.41096 11.9187 7.35752 11.6448 7.54822L10.1832 8.60534L8.98244 7.73553C8.70439 7.53561 8.36259 7.39658 7.95759 7.39658C7.24986 7.39658 6.70759 7.85326 6.67368 8.47541ZM15.4098 7.96857C15.4098 8.34494 15.1133 8.64889 14.7369 8.64889C14.341 8.64889 14.0492 8.34494 14.0492 7.96857C14.0492 7.58474 14.341 7.28079 14.7369 7.28079C15.1133 7.28079 15.4098 7.58474 15.4098 7.96857ZM6.78287 5.69439C6.78287 6.3556 7.32228 6.88525 7.98119 6.88525C8.64525 6.88525 9.17205 6.3556 9.17205 5.69439C9.17205 5.03779 8.64525 4.49838 7.98119 4.49838C7.32228 4.49838 6.78287 5.03779 6.78287 5.69439Z"
                     fill="currentColor" fill-opacity="0.85" />
       </g>
</svg>