<?xml version="1.0" encoding="UTF-8"?>
<!--Generator: Apple Native CoreSVG 326-->
<!DOCTYPE svg PUBLIC "-//W3C//DTD SVG 1.1//EN" "http://www.w3.org/Graphics/SVG/1.1/DTD/svg11.dtd">
<svg version="1.1" xmlns="http://www.w3.org/2000/svg" xmlns:xlink="http://www.w3.org/1999/xlink"
       viewBox="0 0 21.365 21.006">
       <g>
              <rect height="21.006" opacity="0" width="21.365" x="0" y="0" />
              <path d="M21.0037 10.4981C21.0037 16.2923 16.302 20.9962 10.4981 20.9962C4.70394 20.9962 0 16.2923 0 10.4981C0 4.70163 4.70394 0 10.4981 0C16.302 0 21.0037 4.70163 21.0037 10.4981ZM9.61283 7.41939C9.08088 7.41939 8.60697 7.70259 8.35822 8.19318L6.09236 12.7324L4.86286 11.5029C4.61356 11.2582 4.23216 11.2657 4.00985 11.5029C3.77263 11.7573 3.77032 12.1215 4.00985 12.3559L5.86259 14.2161C6.10443 14.4751 6.51513 14.4458 6.73282 14.1328L8.24662 11.9147C8.30467 11.8153 8.41045 11.813 8.5001 11.8687L10.3523 13.282L10.3523 15.8431C10.3523 16.1855 10.6062 16.4445 10.9388 16.4445C11.2811 16.4445 11.5523 16.1855 11.5523 15.8431L11.5523 12.9741C11.5523 12.8201 11.4839 12.6662 11.3713 12.5536L9.6001 10.7749L10.5526 8.86986C10.6428 8.70439 10.7612 8.62681 10.9365 8.62681L14.7651 8.62681C15.1 8.62681 15.3786 8.35798 15.3786 8.0231C15.3786 7.68591 15.1 7.41939 14.7651 7.41939ZM11.0782 9.15239C11.0242 9.15239 10.9944 9.16732 10.9674 9.21384L10.5503 10.0405L11.3008 10.7933C11.4208 10.9133 11.5696 10.9719 11.7212 10.9719L13.4684 10.9719C13.8033 10.9719 14.0624 10.7031 14.0624 10.3756C14.0624 10.0333 13.8033 9.76678 13.4684 9.76678L11.9803 9.76678L11.3734 9.15239ZM14.6688 9.90271C14.6688 10.4668 15.2961 10.8988 16.0573 10.8988C16.8064 10.8988 17.4337 10.4668 17.4337 9.90271C17.4337 9.34552 16.8064 8.91123 16.0573 8.91123C15.2961 8.91123 14.6688 9.34552 14.6688 9.90271ZM9.4917 5.7172C9.4917 6.37841 10.0214 6.90806 10.69 6.90806C11.3466 6.90806 11.8814 6.37841 11.8814 5.7172C11.8814 5.0606 11.3466 4.52349 10.69 4.52349C10.0214 4.52349 9.4917 5.0606 9.4917 5.7172Z"
                     fill="currentColor" fill-opacity="0.85" />
       </g>
</svg>