<?xml version="1.0" encoding="UTF-8"?>
<!--Generator: Apple Native CoreSVG 326-->
<!DOCTYPE svg PUBLIC "-//W3C//DTD SVG 1.1//EN" "http://www.w3.org/Graphics/SVG/1.1/DTD/svg11.dtd">
<svg version="1.1" xmlns="http://www.w3.org/2000/svg" xmlns:xlink="http://www.w3.org/1999/xlink"
       viewBox="0 0 21.365 21.006">
       <g>
              <rect height="21.006" opacity="0" width="21.365" x="0" y="0" />
              <path d="M21.0037 10.4981C21.0037 16.2923 16.302 20.9962 10.4981 20.9962C4.70394 20.9962 0 16.2923 0 10.4981C0 4.70163 4.70394 0 10.4981 0C16.302 0 21.0037 4.70163 21.0037 10.4981ZM9.72365 3.49349C9.59615 3.49349 9.45373 3.54978 9.37045 3.66521L6.07349 8.22029C5.80588 8.57349 5.90693 9.01173 6.27912 9.17083L8.0951 9.96076C8.19561 9.99982 8.27143 9.99982 8.39092 9.99982L9.61744 9.99982C9.76514 9.99982 9.80366 10.0694 9.80366 10.1958L9.80366 11.5803L8.57713 13.9013C8.5283 13.9943 8.51108 14.0874 8.51108 14.1873L8.51108 16.7593C8.51108 17.0844 8.7753 17.3607 9.11248 17.3607C9.43299 17.3607 9.71674 17.0844 9.71674 16.7593L9.71674 14.3585L10.7125 12.8841C10.7814 12.7933 10.9233 12.8203 10.9405 12.9404L11.0911 14.2023C11.1083 14.2924 11.1181 14.3562 11.1594 14.4539L12.1028 16.977C12.2469 17.3412 12.6042 17.4096 12.873 17.3291C13.1516 17.2166 13.3693 16.9253 13.2274 16.5589L12.2916 14.0529L12.2916 9.21802C12.2916 8.65677 12.0474 8.03638 11.4908 7.80947L11.1542 7.67045C10.5515 7.40677 9.95584 7.50212 9.44342 7.86576L8.26396 8.71889L7.13146 8.2374L9.74658 4.60368L10.5699 4.60368C10.876 4.60368 11.1184 4.34868 11.1184 4.05231C11.1184 3.73872 10.876 3.49349 10.5699 3.49349ZM10.6382 6.0556C10.6382 6.71451 11.1753 7.24931 11.8394 7.24931C12.4862 7.24931 13.0285 6.71451 13.0285 6.0556C13.0285 5.39384 12.4862 4.8688 11.8394 4.8688C11.1753 4.8688 10.6382 5.39384 10.6382 6.0556Z"
                     fill="currentColor" fill-opacity="0.85" />
       </g>
</svg>