<?xml version="1.0" encoding="UTF-8"?>
<!--Generator: Apple Native CoreSVG 326-->
<!DOCTYPE svg PUBLIC "-//W3C//DTD SVG 1.1//EN" "http://www.w3.org/Graphics/SVG/1.1/DTD/svg11.dtd">
<svg version="1.1" xmlns="http://www.w3.org/2000/svg" xmlns:xlink="http://www.w3.org/1999/xlink"
       viewBox="0 0 26.0739 25.112">
       <g>
              <rect height="25.112" opacity="0" width="26.0739" x="0" y="0" />
              <path d="M2.83922 1.73307L4.13489 1.73307C4.1113 1.09569 4.35926 0.453708 4.81679 0L2.83922 0C2.36489 0 1.97153 0.393355 1.97153 0.867686C1.97153 1.34202 2.36489 1.73307 2.83922 1.73307ZM9.48737 1.73307L18.3794 1.73307L19.2408 0.436906C19.347 0.276167 19.4756 0.133201 19.6191 0L8.24992 0C8.38597 0.133201 8.52203 0.276167 8.62823 0.439211ZM23.7267 1.73307L24.8477 1.73307C25.3221 1.73307 25.7131 1.34202 25.7131 0.867686C25.7131 0.393355 25.3221 0 24.8477 0L23.0522 0C23.5098 0.461168 23.7503 1.09339 23.7267 1.73307ZM14.0055 7.28025C15.3214 7.28025 16.3978 6.21361 16.3978 4.89767C16.3978 3.58174 15.3214 2.50534 14.0055 2.50534C12.6895 2.50534 11.6154 3.58174 11.6154 4.89767C11.6154 6.21361 12.6895 7.28025 14.0055 7.28025ZM8.45664 16.6437C9.77257 18.2238 11.9007 17.9987 12.9696 16.399L22.369 2.31063C22.7635 1.72767 22.5918 0.953454 22.0335 0.581269C21.4701 0.201622 20.6936 0.356113 20.3042 0.931618L16.0528 7.33071C15.5939 8.02638 14.8378 8.37509 14.0055 8.37509C13.1093 8.37509 12.2459 7.97755 11.6697 7.11817L7.56487 0.931618C7.17777 0.356113 6.41847 0.201622 5.83551 0.581269C5.27723 0.953454 5.10551 1.72767 5.48516 2.31063L10.5234 9.8557C10.7331 10.1579 10.7354 10.5101 10.5234 10.837L9.23777 12.7839L6.323 10.2597C5.82332 9.82149 5.06918 9.78704 4.52297 10.3258L0.361844 14.5064C-0.120615 14.9987-0.120615 15.7631 0.361844 16.2456C0.898286 16.7476 1.64551 16.6913 2.09121 16.2456L5.39484 12.9689ZM11.2469 24.5208C11.634 23.9401 11.4721 23.2026 10.9041 22.8207L7.32983 20.4356L9.04882 18.5413C8.51008 18.2892 8.00293 17.9124 7.56985 17.3834L6.79211 16.4587L4.43453 19.9824C4.06235 20.5384 4.20192 21.3224 4.77512 21.7043L9.54687 24.8711C10.1275 25.2531 10.8943 25.0693 11.2469 24.5208Z"
                     fill="currentColor" fill-opacity="0.85" />
       </g>
</svg>