<?xml version="1.0" encoding="UTF-8"?>
<!--Generator: Apple Native CoreSVG 326-->
<!DOCTYPE svg PUBLIC "-//W3C//DTD SVG 1.1//EN" "http://www.w3.org/Graphics/SVG/1.1/DTD/svg11.dtd">
<svg version="1.1" xmlns="http://www.w3.org/2000/svg" xmlns:xlink="http://www.w3.org/1999/xlink"
       viewBox="0 0 27.0021 19.9877">
       <g>
              <rect height="19.9877" opacity="0" width="27.0021" x="0" y="0" />
              <path d="M17.6477 4.77491C18.9636 4.77491 20.04 3.70596 20.04 2.39003C20.04 1.0741 18.9636 0 17.6477 0C16.3318 0 15.2651 1.0741 15.2651 2.39003C15.2651 3.70596 16.3318 4.77491 17.6477 4.77491ZM9.85819 19.7137C10.3137 19.9659 11.1149 19.863 11.4652 19.1698L14.0283 14.0729C14.2362 13.61 14.1702 13.0638 13.798 12.6939L10.8861 9.76478L14.5695 7.92939C14.6953 7.86903 14.7885 7.8731 14.9028 7.97997L16.8542 9.94111L16.8542 14.3903C16.8542 15.0468 17.4004 15.5907 18.0643 15.5907C18.7208 15.5907 19.2573 15.0468 19.2573 14.3903L19.2573 9.45119C19.2573 9.15021 19.1763 8.84869 18.9069 8.58393L14.2989 4.00288C13.7337 3.44514 13.0048 3.15163 12.2345 3.15163L8.30545 3.15163C7.11999 3.15163 6.76218 4.45482 7.49218 5.17506L8.53722 6.20287L8.2676 6.31612C6.3112 7.14553 5.71902 9.73318 7.58522 11.1031L11.4317 13.9064L9.32405 18.1067C9.02022 18.6971 9.26776 19.4076 9.85819 19.7137ZM1.19292 15.7605L6.30932 15.7605C6.78202 15.7605 7.18404 15.4567 7.37014 15.0868L8.35659 13.0967L6.90175 12.0364C6.60593 11.8187 6.34171 11.5717 6.12632 11.3075L5.44722 13.3649L1.19292 13.3649C0.536442 13.3649 0 13.8939 0 14.5676C0 15.2241 0.536442 15.7605 1.19292 15.7605ZM22.6741 19.5108L25.7852 19.5108C26.24 19.5108 26.6408 19.1175 26.6408 18.6529L26.6408 18.1348C26.6408 17.6679 26.24 17.2671 25.7852 17.2671L22.5109 17.2671L12.5136 7.29456L10.9798 8.17947L22.0315 19.2386C22.267 19.4741 22.4662 19.5108 22.6741 19.5108Z"
                     fill="currentColor" fill-opacity="0.85" />
       </g>
</svg>