<?xml version="1.0" encoding="UTF-8"?>
<!--Generator: Apple Native CoreSVG 326-->
<!DOCTYPE svg PUBLIC "-//W3C//DTD SVG 1.1//EN" "http://www.w3.org/Graphics/SVG/1.1/DTD/svg11.dtd">
<svg version="1.1" xmlns="http://www.w3.org/2000/svg" xmlns:xlink="http://www.w3.org/1999/xlink"
       viewBox="0 0 21.4022 24.0822">
       <g>
              <rect height="24.0822" opacity="0" width="21.4022" x="0" y="0" />
              <path d="M16.0824 4.7726C17.396 4.7726 18.4627 3.6985 18.4627 2.38027C18.4627 1.06664 17.396 0 16.0824 0C14.7642 0 13.6901 1.06664 13.6901 2.38027C13.6901 3.6985 14.7642 4.7726 16.0824 4.7726ZM8.51866 13.6168L13.6237 17.5103L12.0359 22.3729C11.774 23.2057 12.3081 23.7985 12.9227 23.9553C13.4787 24.0776 14.1352 23.845 14.3925 23.0662L16.1956 17.4856C16.3449 17.0204 16.2616 16.5184 15.9285 16.1876L12.5588 12.8179L16.4415 8.92548C16.5478 8.81915 16.7122 8.81915 16.8111 8.92548L18.0795 10.1767L16.3079 11.9558C15.8179 12.4555 15.8203 13.2245 16.3079 13.6898C16.7536 14.1406 17.5422 14.1872 18.0395 13.6898L20.6733 11.0486C21.1707 10.5512 21.1534 9.80681 20.6733 9.31689L18.1274 6.73658C17.4967 6.09842 16.6966 5.77561 15.7747 5.77561L3.52394 5.77561C2.85023 5.77561 2.29425 6.32182 2.29425 7.00529C2.29425 7.67384 2.85023 8.22982 3.52394 8.22982L10.5606 8.22982C10.798 8.22982 10.8647 8.40232 10.7101 8.56439L8.66745 10.607C7.69155 11.5979 7.80358 13.0781 8.51866 13.6168ZM8.09886 14.7529L7.65534 17.4083L2.91046 17.4083C2.21492 17.4083 1.66871 17.962 1.66871 18.6403C1.66871 19.3237 2.21492 19.8774 2.91046 19.8774L8.65241 19.8774C9.29166 19.8774 9.71037 19.5466 9.87693 18.9883L10.5859 16.6523ZM2.46585 11.7654C3.8237 11.7654 4.93916 10.6522 4.93916 9.29955C4.93916 7.9417 3.8237 6.82623 2.46585 6.82623C1.1057 6.82623 0 7.9417 0 9.29955C0 10.6522 1.1057 11.7654 2.46585 11.7654Z"
                     fill="currentColor" fill-opacity="0.85" />
       </g>
</svg>