<?xml version="1.0" encoding="UTF-8"?>
<!--Generator: Apple Native CoreSVG 326-->
<!DOCTYPE svg PUBLIC "-//W3C//DTD SVG 1.1//EN" "http://www.w3.org/Graphics/SVG/1.1/DTD/svg11.dtd">
<svg version="1.1" xmlns="http://www.w3.org/2000/svg" xmlns:xlink="http://www.w3.org/1999/xlink"
       viewBox="0 0 21.365 21.006">
       <g>
              <rect height="21.006" opacity="0" width="21.365" x="0" y="0" />
              <path d="M21.0037 10.4981C21.0037 16.2923 16.302 20.9962 10.4981 20.9962C4.70394 20.9962 0 16.2923 0 10.4981C0 4.70163 4.70394 0 10.4981 0C16.302 0 21.0037 4.70163 21.0037 10.4981ZM9.47666 8.51326C9.10326 8.51326 8.75916 8.6965 8.52479 8.96478L7.29013 10.4873L6.08708 9.27674C5.82802 9.03029 5.40525 9.03029 5.16341 9.27674C4.89458 9.54326 4.89689 9.9465 5.16341 10.2056L6.88689 11.9314C7.14826 12.2002 7.59572 12.2076 7.86685 11.8877L8.83729 10.6685C8.89818 10.5955 8.97291 10.6346 8.97291 10.7145L8.97291 12.7375L7.11951 12.5232C6.36701 12.4526 6.11025 13.5767 6.84837 13.8065L8.97752 14.5154C8.92002 15.006 9.34971 15.3886 9.83799 15.2347L10.4981 15.0204L11.1536 15.2347C11.6442 15.3886 12.0641 15.006 12.0066 14.5154L14.1381 13.8065C14.8762 13.5767 14.6292 12.4526 13.8646 12.5232L12.0135 12.7375L12.0135 10.7145C12.0135 10.6346 12.0934 10.603 12.1469 10.6685L13.1294 11.8877C13.3959 12.2076 13.8457 12.2002 14.107 11.9314L15.8282 10.2056C16.0798 9.9465 16.0821 9.54326 15.8282 9.27674C15.5789 9.03029 15.1636 9.03029 14.9045 9.27674L13.7015 10.4873L12.4594 8.96478C12.2348 8.6965 11.8832 8.51326 11.5098 8.51326ZM9.29748 6.80877C9.29748 7.47744 9.82944 8.00709 10.4981 8.00709C11.1547 8.00709 11.6941 7.47744 11.6941 6.80877C11.6941 6.15962 11.1547 5.61275 10.4981 5.61275C9.82944 5.61275 9.29748 6.15962 9.29748 6.80877Z"
                     fill="currentColor" fill-opacity="0.85" />
       </g>
</svg>