<?xml version="1.0" encoding="UTF-8"?>
<!--Generator: Apple Native CoreSVG 326-->
<!DOCTYPE svg PUBLIC "-//W3C//DTD SVG 1.1//EN" "http://www.w3.org/Graphics/SVG/1.1/DTD/svg11.dtd">
<svg version="1.1" xmlns="http://www.w3.org/2000/svg" xmlns:xlink="http://www.w3.org/1999/xlink"
       viewBox="0 0 21.3949 22.3959">
       <g>
              <rect height="22.3959" opacity="0" width="21.3949" x="0" y="0" />
              <path d="M3.00745 5.99658C1.33601 5.99658 0 4.6192 0 3.01667C0 1.34062 1.33601 0 3.00745 0C4.67834 0 5.99197 1.34062 5.99197 3.01667C5.99197 4.62842 4.67834 5.99658 3.00745 5.99658ZM20.585 21.7543C19.9429 22.401 18.9021 22.3545 18.1279 21.5533L13.5258 16.7846C13.3443 16.6008 13.2094 16.5767 12.9498 16.672L9.55661 17.9347C7.24579 18.7974 4.69405 17.828 3.57464 15.7902L1.45781 11.9523C0.525585 10.2418 0.831716 8.57204 2.42163 7.69095C3.97018 6.82708 5.58479 7.45318 6.53424 9.16544L9.50735 14.5809L11.9756 13.6642C13.3891 13.1323 14.5872 13.3064 15.729 14.4947L20.4822 19.454C21.2368 20.2432 21.1633 21.1811 20.585 21.7543Z"
                     fill="currentColor" fill-opacity="0.85" />
              <path d="M16.54 10.6749C17.1654 10.6749 17.6685 10.1643 17.6685 9.53889L17.6685 5.18615L19.2243 5.18615C20.1221 5.18615 20.5184 4.28838 19.9142 3.62553L17.1925 0.606865C16.8037 0.166866 16.2855 0.166866 15.8846 0.606865L13.163 3.62553C12.5955 4.25163 12.9085 5.18615 13.8528 5.18615L15.4115 5.18615L15.4115 9.53889C15.4115 10.1643 15.9146 10.6749 16.54 10.6749Z"
                     fill="currentColor" fill-opacity="0.85" />
       </g>
</svg>