<?xml version="1.0" encoding="UTF-8"?>
<!--Generator: Apple Native CoreSVG 326-->
<!DOCTYPE svg PUBLIC "-//W3C//DTD SVG 1.1//EN" "http://www.w3.org/Graphics/SVG/1.1/DTD/svg11.dtd">
<svg version="1.1" xmlns="http://www.w3.org/2000/svg" xmlns:xlink="http://www.w3.org/1999/xlink"
       viewBox="0 0 23.0858 25.1242">
       <g>
              <rect height="25.1242" opacity="0" width="23.0858" x="0" y="0" />
              <path d="M15.3657 4.7703C16.6816 4.7703 17.7557 3.70366 17.7557 2.39003C17.7557 1.0741 16.6816 0 15.3657 0C14.0498 0 12.9831 1.0741 12.9831 2.39003C12.9831 3.70366 14.0498 4.7703 15.3657 4.7703ZM4.30228 15.6359L10.166 15.6359L15.5777 16.3981C17.7076 16.7014 19.2854 15.7473 19.2854 13.6904L19.2854 10.2121C19.2854 10.1109 19.374 10.0724 19.4464 10.1448L20.264 10.9722L20.264 14.3866C20.264 15.0724 20.8395 15.6359 21.5034 15.6359C22.1869 15.6359 22.7257 15.0724 22.7257 14.3866L22.7257 10.453C22.7257 10.1296 22.6131 9.81373 22.3558 9.56619L19.7829 7.01803C18.9908 6.23053 17.9638 5.77331 16.8293 5.77331L6.75048 5.77331C6.07678 5.77331 5.51104 6.34651 5.51104 7.00529C5.51104 7.69107 6.06471 8.24474 6.75048 8.24474L14.4983 8.24474C14.7391 8.24474 14.8644 8.37236 14.8644 8.60334L14.8644 13.157L4.30228 13.157C3.59928 13.157 3.04561 13.7106 3.04561 14.3866C3.04561 15.0724 3.61881 15.6359 4.30228 15.6359ZM17.2109 24.6216C17.6836 25.0943 18.4601 25.1092 18.9253 24.6216C19.4227 24.1564 19.4055 23.3799 18.9253 22.89L15.6407 19.5588L16.6513 17.606C16.2572 17.6278 15.8391 17.606 15.4186 17.5497L13.7088 17.3096L12.9561 19.3773C12.797 19.8282 12.8924 20.3181 13.2525 20.6707ZM1.09194 11.0733C2.49576 12.4673 4.09314 12.3007 4.71978 11.6988C5.32689 11.0624 5.38087 9.57244 3.98166 8.16861C2.57322 6.76248 1.0735 6.80155 0.454324 7.44541C-0.172314 8.07205-0.311884 9.63497 1.09194 11.0733Z"
                     fill="currentColor" fill-opacity="0.85" />
       </g>
</svg>