<?xml version="1.0" encoding="UTF-8"?>
<!--Generator: Apple Native CoreSVG 326-->
<!DOCTYPE svg PUBLIC "-//W3C//DTD SVG 1.1//EN" "http://www.w3.org/Graphics/SVG/1.1/DTD/svg11.dtd">
<svg version="1.1" xmlns="http://www.w3.org/2000/svg" xmlns:xlink="http://www.w3.org/1999/xlink"
       viewBox="0 0 15.1896 24.615">
       <g>
              <rect height="24.615" opacity="0" width="15.1896" x="0" y="0" />
              <path d="M2.06562 23.5325L5.30593 19.6764C5.64597 19.2726 5.69249 19.16 5.83437 18.774L5.95168 18.4399L4.00286 15.9891L3.53004 18.1756L0.366101 21.9432C-0.799285 23.3119 1.10586 24.676 2.06562 23.5325ZM9.71484 23.185C10.4667 24.6979 12.7193 23.7576 11.9164 22.1173L9.72206 17.6626C9.55835 17.3254 9.33143 16.9836 9.09366 16.6356L7.74831 14.7261L7.81612 14.5124C8.14991 13.3533 8.33425 12.6789 8.41237 11.5794L8.63237 8.44884C8.73979 6.84862 7.77542 5.68487 6.20328 5.68487C5.01484 5.68487 4.20035 6.30635 3.15203 7.33514L1.49254 8.95271C0.945123 9.47545 0.741804 9.95275 0.685515 10.7138L0.485047 13.2625C0.421297 13.9873 0.860084 14.5163 1.52348 14.5359C2.21672 14.5898 2.64804 14.1608 2.70894 13.4021L2.94847 10.6638L3.58851 10.0846C3.79481 9.90762 4.09645 10.014 4.06946 10.2874L3.9086 12.4463C3.82071 13.6089 4.07176 14.2356 4.95746 15.3389L7.13222 18.0807C7.33961 18.3294 7.3666 18.4145 7.46195 18.6155ZM13.5926 9.90744L11.1748 9.90744L9.78854 8.39013L9.59498 11.3653L9.87909 11.6397C10.2783 11.9964 10.6011 12.1388 11.2812 12.1388L13.5926 12.1388C14.3347 12.1388 14.8269 11.6977 14.8269 11.0171C14.8269 10.3583 14.3249 9.90744 13.5926 9.90744ZM7.56222 4.78182C8.88045 4.78182 9.95686 3.71288 9.95686 2.39464C9.95686 1.0764 8.88045 0 7.56222 0C6.24398 0 5.16757 1.0764 5.16757 2.39464C5.16757 3.71288 6.24398 4.78182 7.56222 4.78182Z"
                     fill="currentColor" fill-opacity="0.85" />
       </g>
</svg>