<?xml version="1.0" encoding="UTF-8"?>
<!--Generator: Apple Native CoreSVG 326-->
<!DOCTYPE svg PUBLIC "-//W3C//DTD SVG 1.1//EN" "http://www.w3.org/Graphics/SVG/1.1/DTD/svg11.dtd">
<svg version="1.1" xmlns="http://www.w3.org/2000/svg" xmlns:xlink="http://www.w3.org/1999/xlink"
       viewBox="0 0 20.6721 24.678">
       <g>
              <rect height="24.678" opacity="0" width="20.6721" x="0" y="0" />
              <path d="M9.91569 7.81638C11.2316 7.81638 12.3006 6.74744 12.3006 5.43151C12.3006 4.11557 11.2316 3.04148 9.91569 3.04148C8.59976 3.04148 7.52566 4.11557 7.52566 5.43151C7.52566 6.74744 8.59976 7.81638 9.91569 7.81638ZM19.1081 24.6341C19.7668 24.6341 20.3107 24.0879 20.3107 23.424L20.3107 18.249C20.3107 17.8154 20.0804 17.4995 19.7892 17.2548L15.817 13.9788L15.0404 9.73833C14.9646 9.31841 15.0209 8.95302 15.2185 8.55032L18.5927 1.80428C18.8965 1.20408 18.6466 0.474089 18.0465 0.170262C17.4463-0.118642 16.7163 0.113974 16.4274 0.7044L13.1043 7.36256C12.8872 7.78939 12.5873 8.0749 12.1237 8.26275L6.36385 10.6467L4.09307 8.81763C4.00912 8.75783 3.93318 8.72392 3.84924 8.69408L3.84924 5.48628L2.11617 5.48628L2.11617 9.75896C2.11617 10.1283 2.26605 10.4861 2.56472 10.721L5.44546 13.013C5.82456 13.3139 6.31502 13.3093 6.79694 13.1112L10.0103 11.7647C10.2683 11.6463 10.4533 11.7786 10.4873 12.0044L12.0457 20.5927L7.79424 22.2948C7.17683 22.5349 6.87069 23.2379 7.10331 23.8674C7.37499 24.4958 8.03838 24.7938 8.68334 24.5313L13.8583 22.4617C14.385 22.256 14.6618 21.7242 14.6251 21.2004L14.327 17.1811C14.3126 16.8857 14.6097 16.6938 14.8672 16.8662L17.8904 18.9032L17.8904 23.424C17.8904 24.0879 18.432 24.6341 19.1081 24.6341ZM2.98385 0C1.31703 0 0 1.33425 0 3.01085C0 4.52834 1.32218 6.16017 2.98385 6.68576C4.65299 6.16017 5.95794 4.52834 5.95794 3.01085C5.95794 1.33425 4.64838 0 2.98385 0ZM2.98385 1.73307C3.70718 1.73307 4.22488 2.26284 4.22488 3.04014C4.22488 3.79792 3.70663 4.54945 2.98385 4.82749C2.25362 4.54945 1.73307 3.79792 1.73307 3.04014C1.73307 2.26284 2.2433 1.73307 2.98385 1.73307Z"
                     fill="currentColor" fill-opacity="0.85" />
       </g>
</svg>