<?xml version="1.0" encoding="UTF-8"?>
<!--Generator: Apple Native CoreSVG 326-->
<!DOCTYPE svg PUBLIC "-//W3C//DTD SVG 1.1//EN" "http://www.w3.org/Graphics/SVG/1.1/DTD/svg11.dtd">
<svg version="1.1" xmlns="http://www.w3.org/2000/svg" xmlns:xlink="http://www.w3.org/1999/xlink"
       viewBox="0 0 25.6183 22.3959">
       <g>
              <rect height="22.3959" opacity="0" width="25.6183" x="0" y="0" />
              <path d="M5.09214 5.99658C3.42586 5.99658 2.08239 4.6192 2.08239 3.01667C2.08239 1.34062 3.42586 0 5.09214 0C6.76073 0 8.07666 1.34062 8.07666 3.01667C8.07666 4.62842 6.76073 5.99658 5.09214 5.99658ZM22.6674 21.7543C22.0253 22.401 20.992 22.3545 20.2201 21.5533L15.6082 16.7846C15.4267 16.6008 15.2918 16.5767 15.0396 16.672L11.6465 17.9347C9.33564 18.7974 6.77875 17.828 5.65703 15.7902L3.5402 11.9523C2.60797 10.2418 2.92387 8.57204 4.51148 7.69095C6.06234 6.82708 7.66718 7.45318 8.61662 9.16544L11.5995 14.5809L14.058 13.6642C15.4715 13.1323 16.6696 13.3064 17.8114 14.4947L22.5645 19.454C23.3192 20.2432 23.2532 21.1811 22.6674 21.7543Z"
                     fill="currentColor" fill-opacity="0.85" />
              <path d="M21.5746 4.28444C21.5746 3.78191 21.1778 3.3948 20.6632 3.3948L16.9493 3.3948L16.9493 2.0005C16.9493 1.09878 16.0625 0.80988 15.4697 1.33886L12.8807 3.67448C12.4471 4.05413 12.4793 4.55151 12.8807 4.926L15.4697 7.26908C16.0895 7.83252 16.9493 7.43279 16.9493 6.60745L16.9493 5.19592L20.6632 5.19592C21.1778 5.19592 21.5746 4.80651 21.5746 4.28444ZM25.3697 6.06179C25.0119 5.7189 24.4284 5.7189 24.0706 6.06179L21.455 8.69226L20.4703 7.69034C19.8701 7.09991 18.9805 7.45542 18.9414 8.29799L18.7662 11.7739C18.7369 12.3299 19.0821 12.6676 19.6306 12.6458L23.1237 12.4728C23.9198 12.4338 24.3339 11.6033 23.7142 10.9537L22.7243 9.9667L25.3599 7.35346C25.7028 6.99334 25.7028 6.40983 25.3697 6.06179Z"
                     fill="currentColor" fill-opacity="0.85" />
       </g>
</svg>