<?xml version="1.0" encoding="UTF-8"?>
<!--Generator: Apple Native CoreSVG 326-->
<!DOCTYPE svg PUBLIC "-//W3C//DTD SVG 1.1//EN" "http://www.w3.org/Graphics/SVG/1.1/DTD/svg11.dtd">
<svg version="1.1" xmlns="http://www.w3.org/2000/svg" xmlns:xlink="http://www.w3.org/1999/xlink"
       viewBox="0 0 21.365 21.006">
       <g>
              <rect height="21.006" opacity="0" width="21.365" x="0" y="0" />
              <path d="M10.4981 20.9962C16.302 20.9962 21.0037 16.2946 21.0037 10.4981C21.0037 4.70163 16.302 0 10.4981 0C4.70163 0 0 4.70163 0 10.4981C0 16.2946 4.70163 20.9962 10.4981 20.9962ZM10.4981 17.9484C6.37829 17.9484 3.04785 14.6179 3.04785 10.4981C3.04785 6.37829 6.37829 3.04785 10.4981 3.04785C14.6179 3.04785 17.9558 6.37829 17.9558 10.4981C17.9558 14.6179 14.6179 17.9484 10.4981 17.9484Z"
                     fill="currentColor" fill-opacity="0.85" />
              <path d="M10.4429 6.79263C11.0674 6.79263 11.5626 6.29513 11.5626 5.67068C11.5626 5.06345 11.0674 4.55103 10.4429 4.55103C9.82592 4.55103 9.32096 5.06345 9.32096 5.67068C9.32096 6.29513 9.82592 6.79263 10.4429 6.79263ZM6.97411 16.1622C7.20618 16.2817 7.55775 16.2329 7.72892 15.9348L8.94689 13.7424L9.60361 12.2738C9.64037 12.1974 9.70182 12.1854 9.77303 12.2296L11.541 13.5086L11.541 15.6516C11.541 15.9618 11.7851 16.2231 12.1102 16.2231C12.413 16.2231 12.672 15.9618 12.672 15.6516L12.672 13.2518C12.672 13.103 12.6232 12.9296 12.4985 12.8124L10.5136 10.9371L10.6664 9.7131C10.6687 9.66943 10.7492 9.66943 10.7612 9.71079L11.0951 10.5217C11.183 10.7417 11.3858 10.8784 11.6081 10.8784L13.6815 10.8784C13.994 10.8784 14.2382 10.6194 14.2382 10.3092C14.2382 9.9892 13.994 9.74737 13.6815 9.74737L11.9918 9.74737L11.3076 8.15994C11.1174 7.71127 10.8296 7.45275 10.1908 7.28213L9.90811 7.2017C9.23822 7.01669 8.76025 6.98224 8.18978 7.22869L7.56345 7.50049L7.56345 5.80727C7.56345 5.50684 7.30208 5.24548 6.99419 5.24548C6.69146 5.24548 6.43239 5.50684 6.43239 5.80727L6.43239 8.42131C6.43239 8.81939 6.85747 9.03709 7.2165 8.88314L8.5058 8.32122C8.55693 8.29193 8.59029 8.33099 8.58053 8.37927L7.91119 13.288L6.74204 15.3925C6.59786 15.6516 6.68576 16.0106 6.97411 16.1622ZM13.2088 8.87429L14.0296 8.87429L14.0296 4.89028C14.0296 4.66227 13.8509 4.47618 13.6229 4.47618C13.4024 4.47618 13.2088 4.66227 13.2088 4.89028ZM12.9628 9.28202L14.2681 9.28202C14.491 9.28202 14.5966 9.09823 14.5306 8.89491C14.4013 8.50713 14.0377 8.2337 13.6229 8.2337C13.1984 8.2337 12.8445 8.50713 12.7078 8.89491C12.6418 9.10569 12.7549 9.28202 12.9628 9.28202Z"
                     fill="currentColor" fill-opacity="0.85" />
       </g>
</svg>