<?xml version="1.0" encoding="UTF-8"?>
<!--Generator: Apple Native CoreSVG 326-->
<!DOCTYPE svg PUBLIC "-//W3C//DTD SVG 1.1//EN" "http://www.w3.org/Graphics/SVG/1.1/DTD/svg11.dtd">
<svg version="1.1" xmlns="http://www.w3.org/2000/svg" xmlns:xlink="http://www.w3.org/1999/xlink"
       viewBox="0 0 21.2228 22.9478">
       <g>
              <rect height="22.9478" opacity="0" width="21.2228" x="0" y="0" />
              <path d="M4.30372 4.77491C5.61966 4.77491 6.69375 3.70827 6.69375 2.39234C6.69375 1.0764 5.61966 0 4.30372 0C2.98779 0 1.91885 1.0764 1.91885 2.39234C1.91885 3.70827 2.98779 4.77491 4.30372 4.77491ZM7.85708 22.2619C8.44004 22.4284 9.13559 22.1246 9.32914 21.4118L10.8709 15.8215C11.0937 15.0186 10.7509 14.4109 9.93297 14.1783L5.57641 12.9352L5.9159 9.1433C5.92051 9.07087 5.83341 9.10696 5.89892 9.15525L7.98063 10.6407C8.4068 10.9543 8.96047 10.9543 9.39641 10.6407L13.0273 8.05579C13.5661 7.67615 13.7034 6.90939 13.3065 6.37065C12.9268 5.80952 12.1526 5.7044 11.6064 6.08405L8.6934 8.17905L6.31059 6.4626C5.76032 6.06912 5.0877 5.77792 4.2686 5.77792C2.85216 5.77792 1.77806 6.68084 1.69248 7.94564L1.35299 12.8104C1.24041 14.3389 2.00377 15.4911 3.71833 15.7381L8.19614 16.3901L6.99728 20.78C6.80372 21.4853 7.20806 22.093 7.85708 22.2619ZM17.7648 10.0326C19.4736 10.0326 20.8613 8.64489 20.8613 6.9413C20.8613 5.23025 19.4736 3.84717 17.7648 3.84717C16.0515 3.84717 14.6735 5.23025 14.6735 6.9413C14.6735 8.64489 16.0515 10.0326 17.7648 10.0326ZM17.7648 8.29951C17.0007 8.29951 16.4066 7.70544 16.4066 6.9413C16.4066 6.18176 17.0007 5.58024 17.7648 5.58024C18.5341 5.58024 19.1282 6.18176 19.1282 6.9413C19.1282 7.70544 18.5341 8.29951 17.7648 8.29951ZM11.0262 22.9242L16.7705 22.9242C17.6479 22.9242 17.9385 21.7958 17.2058 21.3141L15.4214 20.1243C15.5645 19.8491 15.6616 19.5446 15.742 19.2332L18.1741 9.53422L16.4559 9.1311L14.0411 18.8151C13.6872 20.2427 12.4974 21.1716 11.0262 21.1716C10.5272 21.1716 10.1436 21.5897 10.1436 22.0491C10.1436 22.5062 10.5272 22.9242 11.0262 22.9242ZM2.44006 18.7582L4.48272 18.3233C4.87607 18.247 5.11209 17.8881 5.11209 17.5171C5.11209 17.114 4.80717 16.7918 4.4408 16.7327L1.00057 16.1439C0.200036 16.0113-0.137576 16.7784 0.14035 17.3188L0.340818 17.7025C0.749761 18.5026 1.44816 18.9713 2.44006 18.7582ZM0.894912 22.9242L5.31741 22.9242C5.81873 22.9242 6.19486 22.5062 6.19486 22.0491C6.19486 21.5897 5.81873 21.1716 5.31741 21.1716C4.79455 21.1716 4.40041 20.8953 4.28662 20.3425L3.61346 17.3271L1.89762 17.7181L2.40883 20.0066L0.41312 21.3141C-0.32191 21.7958-0.0239068 22.9242 0.894912 22.9242Z"
                     fill="currentColor" fill-opacity="0.85" />
       </g>
</svg>