<?xml version="1.0" encoding="UTF-8"?>
<!--Generator: Apple Native CoreSVG 326-->
<!DOCTYPE svg PUBLIC "-//W3C//DTD SVG 1.1//EN" "http://www.w3.org/Graphics/SVG/1.1/DTD/svg11.dtd">
<svg version="1.1" xmlns="http://www.w3.org/2000/svg" xmlns:xlink="http://www.w3.org/1999/xlink"
       viewBox="0 0 21.365 21.006">
       <g>
              <rect height="21.006" opacity="0" width="21.365" x="0" y="0" />
              <path d="M10.4981 20.9962C16.302 20.9962 21.0037 16.2946 21.0037 10.4981C21.0037 4.70163 16.302 0 10.4981 0C4.70163 0 0 4.70163 0 10.4981C0 16.2946 4.70163 20.9962 10.4981 20.9962ZM10.4981 17.9484C6.37829 17.9484 3.04785 14.6179 3.04785 10.4981C3.04785 6.37829 6.37829 3.04785 10.4981 3.04785C14.6179 3.04785 17.9558 6.37829 17.9558 10.4981C17.9558 14.6179 14.6179 17.9484 10.4981 17.9484Z"
                     fill="currentColor" fill-opacity="0.85" />
              <path d="M12.2939 7.39931C12.9011 7.39931 13.4061 6.89435 13.4061 6.27736C13.4061 5.6529 12.9011 5.1554 12.2939 5.1554C11.6769 5.1554 11.1645 5.6529 11.1645 6.27736C11.1645 6.89435 11.6769 7.39931 12.2939 7.39931ZM8.62748 14.4347C8.83255 14.5519 9.21627 14.503 9.37252 14.1831L10.5784 11.7787C10.691 11.5587 10.6468 11.3071 10.471 11.1337L9.09611 9.7467L10.8335 8.87799C10.9014 8.84177 10.9439 8.84869 10.9974 8.90213L11.9275 9.82483L11.9275 11.9199C11.9275 12.2301 12.1791 12.4794 12.4819 12.4794C12.7972 12.4794 13.0488 12.2301 13.0488 11.9199L13.0488 9.60252C13.0488 9.45604 13.0121 9.31932 12.8851 9.19698L10.7048 7.02877C10.4388 6.77771 10.1074 6.63869 9.74142 6.63869L7.88747 6.63869C7.33314 6.63869 7.17404 7.2447 7.51122 7.57673L8.00424 8.07205L7.87486 8.12494C6.96314 8.54541 6.67478 9.73233 7.55775 10.3712L9.36924 11.6932L8.36841 13.6822C8.234 13.9608 8.34888 14.2957 8.62748 14.4347ZM4.68113 12.5761L6.9447 12.5761C7.1647 12.5761 7.3554 12.4319 7.44329 12.2562L7.92368 11.2977L7.2447 10.8019C7.0913 10.6922 6.95974 10.5681 6.869 10.4509L6.54661 11.4474L4.68113 11.4474C4.37094 11.4474 4.1291 11.7041 4.1291 12.0069C4.1291 12.3148 4.37094 12.5761 4.68113 12.5761ZM14.6593 14.341L16.0346 14.341C16.2431 14.341 16.4246 14.1595 16.4246 13.9412L16.4246 13.6925C16.4246 13.4743 16.2431 13.2979 16.0346 13.2979L14.588 13.2979L9.87584 8.59327L9.15967 9.00276L14.3635 14.2089C14.4858 14.3214 14.5668 14.341 14.6593 14.341Z"
                     fill="currentColor" fill-opacity="0.85" />
       </g>
</svg>