<?xml version="1.0" encoding="UTF-8"?>
<!--Generator: Apple Native CoreSVG 326-->
<!DOCTYPE svg PUBLIC "-//W3C//DTD SVG 1.1//EN" "http://www.w3.org/Graphics/SVG/1.1/DTD/svg11.dtd">
<svg version="1.1" xmlns="http://www.w3.org/2000/svg" xmlns:xlink="http://www.w3.org/1999/xlink"
       viewBox="0 0 15.7931 26.1034">
       <g>
              <rect height="26.1034" opacity="0" width="15.7931" x="0" y="0" />
              <path d="M8.61027 4.77491C9.9239 4.77491 10.9905 3.6985 10.9905 2.38027C10.9905 1.06664 9.9239 0 8.61027 0C7.28457 0 6.21563 1.06664 6.21563 2.38027C6.21563 3.6985 7.28457 4.77491 8.61027 4.77491ZM10.8656 11.0227C11.363 11.5247 12.2986 11.5028 12.7322 10.8193L15.2172 6.84662C16.1063 5.41362 14.0145 4.25229 13.1914 5.57272L11.5025 8.28647L10.2519 7.01857C8.85605 5.6176 7.3132 5.34647 5.20625 5.57854L1.58047 5.98409C1.01934 6.04783 0.593173 6.49123 0.529424 7.02537L0.0112997 11.0349C-0.182254 12.5488 2.17199 12.9308 2.38277 11.3215L2.7734 8.25505L4.53012 8.05743C4.70942 8.04536 4.77329 8.09201 4.74168 8.30806L4.26778 12.2394C4.02079 14.2033 5.18047 15.3779 7.1248 15.236L10.6365 14.9821L9.58465 18.8384C9.14125 20.4328 11.4708 21.0112 11.8872 19.4559L13.3629 14.0023C13.5835 13.189 13.0223 12.4958 12.1384 12.4958L8.46475 12.4958L8.91858 9.34486C8.94503 9.17411 9.02679 9.1718 9.15781 9.30743ZM5.24204 16.1274L5.03004 19.4398L3.1195 24.2087C2.73009 25.1932 3.45032 25.8939 4.205 25.8939C4.66047 25.8939 5.12339 25.6441 5.35601 25.0513L7.31308 20.1354C7.34007 20.0521 7.37683 19.9591 7.38659 19.8683L7.90362 16.3457L7.20062 16.3922C6.47348 16.4387 5.81754 16.3457 5.24204 16.1274Z"
                     fill="currentColor" fill-opacity="0.85" />
       </g>
</svg>