<?xml version="1.0" encoding="UTF-8"?>
<!--Generator: Apple Native CoreSVG 326-->
<!DOCTYPE svg PUBLIC "-//W3C//DTD SVG 1.1//EN" "http://www.w3.org/Graphics/SVG/1.1/DTD/svg11.dtd">
<svg version="1.1" xmlns="http://www.w3.org/2000/svg" xmlns:xlink="http://www.w3.org/1999/xlink"
       viewBox="0 0 27.7987 22.3959">
       <g>
              <rect height="22.3959" opacity="0" width="27.7987" x="0" y="0" />
              <path d="M6.21051 5.99658C4.54422 5.99658 3.20075 4.6192 3.20075 3.01667C3.20075 1.34062 4.54422 0 6.21051 0C7.8791 0 9.19503 1.34062 9.19503 3.01667C9.19503 4.62842 7.8791 5.99658 6.21051 5.99658ZM23.7857 21.7543C23.1436 22.401 22.1103 22.3545 21.3384 21.5533L16.7266 16.7846C16.5451 16.6008 16.4101 16.5767 16.158 16.672L12.7648 17.9347C10.454 18.7974 7.89711 17.828 6.7754 15.7902L4.65856 11.9523C3.72634 10.2418 4.04224 8.57204 5.62985 7.69095C7.1807 6.82708 8.78554 7.45318 9.73499 9.16544L12.7179 14.5809L15.1764 13.6642C16.5899 13.1323 17.7879 13.3064 18.9297 14.4947L23.6829 19.454C24.4376 20.2432 24.3715 21.1811 23.7857 21.7543Z"
                     fill="currentColor" fill-opacity="0.85" />
              <path d="M22.5139 4.28444C22.5139 3.77445 22.1096 3.37242 21.5875 3.37242L18.2168 3.37242L18.2168 1.72445C18.2168 0.822738 17.3226 0.518912 16.7149 1.06282L13.8275 3.67448C13.4013 4.06159 13.4037 4.55151 13.8275 4.926L16.7149 7.53767C17.357 8.11603 18.2168 7.73122 18.2168 6.87603L18.2168 5.21084L21.5875 5.21084C22.1096 5.21084 22.5139 4.80651 22.5139 4.28444ZM24.2742 5.96704C23.7693 5.96704 23.3576 6.37138 23.3576 6.89114L23.3576 10.2619L21.7147 10.2619C20.8148 10.2619 20.4971 11.1515 21.0531 11.7563L23.6573 14.6535C24.0421 15.0699 24.5343 15.0722 24.9065 14.6535L27.5205 11.7563C28.0966 11.1286 27.7307 10.2665 26.8566 10.2642L25.1937 10.2619L25.1937 6.89114C25.1937 6.37138 24.7916 5.96704 24.2742 5.96704Z"
                     fill="currentColor" fill-opacity="0.85" />
       </g>
</svg>