<?xml version="1.0" encoding="UTF-8"?>
<!--Generator: Apple Native CoreSVG 326-->
<!DOCTYPE svg PUBLIC "-//W3C//DTD SVG 1.1//EN" "http://www.w3.org/Graphics/SVG/1.1/DTD/svg11.dtd">
<svg version="1.1" xmlns="http://www.w3.org/2000/svg" xmlns:xlink="http://www.w3.org/1999/xlink"
       viewBox="0 0 21.365 21.006">
       <g>
              <rect height="21.006" opacity="0" width="21.365" x="0" y="0" />
              <path d="M10.4981 20.9962C16.302 20.9962 21.0037 16.2946 21.0037 10.4981C21.0037 4.70163 16.302 0 10.4981 0C4.70163 0 0 4.70163 0 10.4981C0 16.2946 4.70163 20.9962 10.4981 20.9962ZM10.4981 17.9484C6.37829 17.9484 3.04785 14.6179 3.04785 10.4981C3.04785 6.37829 6.37829 3.04785 10.4981 3.04785C14.6179 3.04785 17.9558 6.37829 17.9558 10.4981C17.9558 14.6179 14.6179 17.9484 10.4981 17.9484Z"
                     fill="currentColor" fill-opacity="0.85" />
              <path d="M10.4883 9.07833C10.8699 9.07833 11.2014 9.0904 11.4162 9.12947C11.6053 9.16337 11.6851 9.26509 11.6875 9.46392C11.6972 9.78795 11.6875 10.918 11.5996 11.4271C11.5145 11.9361 10.9274 14.4186 10.8958 14.5185C10.7907 14.8482 11.0181 15.1687 11.3702 15.1687C11.6367 15.1687 11.8102 15.0171 11.8883 14.719C12.0199 14.2197 12.4416 12.5048 12.5829 12.1003C12.6703 11.8159 12.7088 11.7751 12.7807 11.7751C12.8824 11.7751 12.9232 11.8331 12.9933 12.0854C13.1272 12.4853 13.5609 14.21 13.6804 14.719C13.7511 15.0194 13.9297 15.1687 14.1986 15.1687C14.5409 15.1687 14.766 14.8459 14.6632 14.5208C14.6414 14.4186 14.0519 11.9361 13.9618 11.4271C13.8813 10.918 13.8911 9.78795 13.8911 9.43693C13.8911 9.25248 13.9612 9.13638 14.0968 9.1197C14.2767 9.06626 15.8457 8.91517 16.0996 8.82497C16.3293 8.74169 16.4661 8.55099 16.4661 8.32122C16.4661 8.04263 16.2461 7.81287 15.9841 7.81287C15.9209 7.81287 15.8354 7.82724 15.7796 7.83701C15.1218 7.9588 13.77 8.05877 12.7732 8.1099C11.9717 8.13173 11.0755 8.15873 10.5176 8.15873C9.94026 8.15873 9.00955 8.13173 8.19373 8.1099C7.23142 8.06853 5.86004 7.96857 5.20739 7.84447C5.12641 7.81978 5.04829 7.81287 4.99254 7.81287C4.72086 7.81287 4.51293 8.03517 4.51293 8.32122C4.51293 8.57798 4.67204 8.77329 4.9018 8.82497C5.13332 8.87841 6.68509 9.07833 6.87755 9.12716C7.00572 9.14384 7.0879 9.25994 7.09537 9.43693C7.10283 9.78795 7.09537 10.918 7.00517 11.4271C6.92013 11.9361 6.32552 14.4186 6.30138 14.5185C6.19857 14.8459 6.42603 15.1687 6.76837 15.1687C7.0372 15.1687 7.21352 15.0269 7.30372 14.719C7.42782 14.2197 7.8495 12.5048 7.99314 12.1003C8.07818 11.8182 8.11669 11.7751 8.1788 11.7751C8.28513 11.7751 8.32596 11.8331 8.40353 12.0906C8.53279 12.4853 8.97115 14.21 9.09065 14.719C9.1567 15.0171 9.33533 15.1687 9.5967 15.1687C9.94881 15.1687 10.1763 14.8482 10.0712 14.5208C10.0493 14.4186 9.4524 11.9361 9.36966 11.4271C9.28923 10.918 9.28923 9.78795 9.29154 9.46392C9.3013 9.25763 9.37888 9.16337 9.57541 9.12947C9.78686 9.0881 10.1695 9.06626 10.4883 9.07833ZM8.1788 7.81735C8.74005 7.81735 9.2065 7.36068 9.2065 6.79942C9.2065 6.24048 8.75728 5.78896 8.1788 5.78896C7.62732 5.78896 7.1758 6.24048 7.1758 6.79942C7.1758 7.36068 7.63478 7.81735 8.1788 7.81735ZM12.7807 7.81735C13.3396 7.81735 13.8009 7.35091 13.8009 6.79942C13.8009 6.24048 13.3471 5.78896 12.7807 5.78896C12.2194 5.78896 11.7702 6.24048 11.7702 6.79942C11.7702 7.36068 12.2292 7.81735 12.7807 7.81735Z"
                     fill="currentColor" fill-opacity="0.85" />
       </g>
</svg>