<?xml version="1.0" encoding="UTF-8"?>
<!--Generator: Apple Native CoreSVG 326-->
<!DOCTYPE svg PUBLIC "-//W3C//DTD SVG 1.1//EN" "http://www.w3.org/Graphics/SVG/1.1/DTD/svg11.dtd">
<svg version="1.1" xmlns="http://www.w3.org/2000/svg" xmlns:xlink="http://www.w3.org/1999/xlink"
       viewBox="0 0 25.0107 18.3916">
       <g>
              <rect height="18.3916" opacity="0" width="25.0107" x="0" y="0" />
              <path d="M11.7553 4.77721C13.0713 4.77721 14.1402 3.70827 14.1402 2.39234C14.1402 1.0764 13.0713 0 11.7553 0C10.4394 0 9.36529 1.0764 9.36529 2.39234C9.36529 3.70827 10.4394 4.77721 11.7553 4.77721ZM0.709796 3.41682L8.20834 7.44353C8.41287 7.5481 8.49737 7.69525 8.43416 7.91416L7.73334 10.4658C9.93771 10.5758 10.7917 12.077 12.525 12.077C12.7021 12.077 12.8505 12.0391 13.0115 11.9747L14.0035 8.27713C14.0937 7.93072 14.1764 7.79509 14.5177 7.61701L22.3804 3.41682C23.0219 3.07908 23.2718 2.25604 22.9312 1.60702C22.559 0.965463 21.7779 0.698394 21.1191 1.05105L13.3224 5.19264C12.1207 5.82511 11.0447 5.89577 9.62357 5.14382L1.96362 1.05105C1.31229 0.698394 0.496711 0.965463 0.161283 1.61448C-0.191372 2.25604 0.053315 3.07162 0.709796 3.41682ZM1.08641 15.17L2.22941 15.17C5.09796 15.17 5.6489 13.5139 7.37347 13.5139C8.84438 13.5139 9.64898 15.17 12.525 15.17C15.4108 15.17 16.2131 13.5139 17.6788 13.5139C19.4034 13.5139 19.952 15.17 22.8303 15.17L23.9659 15.17C24.4104 15.17 24.7664 14.8162 24.7664 14.3717C24.7664 13.9272 24.4104 13.5712 23.9659 13.5712L22.8303 13.5712C21.0374 13.5712 20.4399 11.9226 17.6788 11.9226C15.1765 11.9226 14.3179 13.5712 12.525 13.5712C10.7395 13.5712 9.87578 11.9226 7.37347 11.9226C4.61235 11.9226 4.01489 13.5712 2.22941 13.5712L1.08641 13.5712C0.647079 13.5712 0.293333 13.9272 0.293333 14.3717C0.293333 14.8162 0.647079 15.17 1.08641 15.17ZM1.22841 18.3847C1.61036 18.3847 1.92395 18.0711 1.92395 17.6817C1.92395 17.302 1.61036 16.9884 1.22841 16.9884C0.8413 16.9884 0.527708 17.302 0.527708 17.6817C0.527708 18.0711 0.8413 18.3847 1.22841 18.3847ZM3.17626 18.0377C3.5559 18.0377 3.86949 17.7241 3.86949 17.337C3.86949 16.9551 3.5559 16.6415 3.17626 16.6415C2.78684 16.6415 2.47325 16.9551 2.47325 17.337C2.47325 17.7241 2.78684 18.0377 3.17626 18.0377ZM4.95985 17.1899C5.34926 17.1899 5.66285 16.8786 5.66285 16.4966C5.66285 16.1072 5.34926 15.7959 4.95985 15.7959C4.5802 15.7959 4.26661 16.1072 4.26661 16.4966C4.26661 16.8786 4.5802 17.1899 4.95985 17.1899ZM6.88016 16.6408C7.26211 16.6408 7.5757 16.3272 7.5757 15.9453C7.5757 15.5582 7.26211 15.2446 6.88016 15.2446C6.49305 15.2446 6.17946 15.5582 6.17946 15.9453C6.17946 16.3272 6.49305 16.6408 6.88016 16.6408ZM8.78555 17.1899C9.1675 17.1899 9.47878 16.8786 9.47878 16.4966C9.47878 16.1072 9.1675 15.7959 8.78555 15.7959C8.39613 15.7959 8.08485 16.1072 8.08485 16.4966C8.08485 16.8786 8.39613 17.1899 8.78555 17.1899ZM10.5812 18.0377C10.9632 18.0377 11.2768 17.7241 11.2768 17.337C11.2768 16.9551 10.9632 16.6415 10.5812 16.6415C10.1941 16.6415 9.88051 16.9551 9.88051 17.337C9.88051 17.7241 10.1941 18.0377 10.5812 18.0377ZM12.5296 18.3847C12.9167 18.3847 13.2303 18.0711 13.2303 17.6817C13.2303 17.302 12.9167 16.9884 12.5296 16.9884C12.1477 16.9884 11.8341 17.302 11.8341 17.6817C11.8341 18.0711 12.1477 18.3847 12.5296 18.3847ZM14.4832 18.0377C14.8726 18.0377 15.1839 17.7241 15.1839 17.337C15.1839 16.9551 14.8726 16.6415 14.4832 16.6415C14.0937 16.6415 13.7899 16.9551 13.7899 17.337C13.7899 17.7241 14.0937 18.0377 14.4832 18.0377ZM16.2788 17.1899C16.6608 17.1899 16.9744 16.8786 16.9744 16.4966C16.9744 16.1072 16.6608 15.7959 16.2788 15.7959C15.8917 15.7959 15.5781 16.1072 15.5781 16.4966C15.5781 16.8786 15.8917 17.1899 16.2788 17.1899ZM18.1842 16.6408C18.5736 16.6408 18.8849 16.3272 18.8849 15.9453C18.8849 15.5582 18.5736 15.2446 18.1842 15.2446C17.7948 15.2446 17.491 15.5582 17.491 15.9453C17.491 16.3272 17.7948 16.6408 18.1842 16.6408ZM20.1045 17.1899C20.4865 17.1899 20.7978 16.8786 20.7978 16.4966C20.7978 16.1072 20.4865 15.7959 20.1045 15.7959C19.7151 15.7959 19.4038 16.1072 19.4038 16.4966C19.4038 16.8786 19.7151 17.1899 20.1045 17.1899ZM21.8904 18.0377C22.2798 18.0377 22.5911 17.7241 22.5911 17.337C22.5911 16.9551 22.2798 16.6415 21.8904 16.6415C21.5085 16.6415 21.1972 16.9551 21.1972 17.337C21.1972 17.7241 21.5085 18.0377 21.8904 18.0377ZM23.8336 18.3847C24.2231 18.3847 24.5292 18.0711 24.5292 17.6817C24.5292 17.302 24.2231 16.9884 23.8336 16.9884C23.4465 16.9884 23.1329 17.302 23.1329 17.6817C23.1329 18.0711 23.4465 18.3847 23.8336 18.3847Z"
                     fill="currentColor" fill-opacity="0.85" />
       </g>
</svg>