<?xml version="1.0" encoding="UTF-8"?>
<!--Generator: Apple Native CoreSVG 326-->
<!DOCTYPE svg PUBLIC "-//W3C//DTD SVG 1.1//EN" "http://www.w3.org/Graphics/SVG/1.1/DTD/svg11.dtd">
<svg version="1.1" xmlns="http://www.w3.org/2000/svg" xmlns:xlink="http://www.w3.org/1999/xlink"
       viewBox="0 0 21.365 21.006">
       <g>
              <rect height="21.006" opacity="0" width="21.365" x="0" y="0" />
              <path d="M21.0037 10.4981C21.0037 16.2923 16.302 20.9962 10.4981 20.9962C4.70394 20.9962 0 16.2923 0 10.4981C0 4.70163 4.70394 0 10.4981 0C16.302 0 21.0037 4.70163 21.0037 10.4981ZM3.83353 12.6058C3.83353 12.8511 4.02708 13.0297 4.26485 13.0297C5.78786 13.0297 7.43443 13.595 8.39444 16.0976C8.53631 16.4646 8.97971 16.5358 9.23701 16.286C10.3527 15.1726 11.5971 14.7997 13.4689 15.3409C13.7015 15.3897 13.9076 15.2846 14.003 15.0715C14.3707 14.2166 15.1153 13.7783 16.0581 13.7783C16.3033 13.7783 16.4969 13.5922 16.4969 13.3469C16.4969 13.1092 16.3033 12.9156 16.0581 12.9156C14.9637 12.9156 13.9198 13.447 13.3511 14.3973C11.5925 14.0031 10.1718 14.3415 9.01416 15.3056C7.83361 12.791 5.87345 12.1671 4.26485 12.1671C4.02708 12.1671 3.83353 12.3635 3.83353 12.6058ZM13.944 4.74349L10.3724 8.32771C10.2426 8.45982 10.1788 8.60631 10.1788 8.80447L10.1788 10.7049L8.42537 10.7049C7.91471 10.7049 7.55053 11.0617 7.55053 11.562L7.55053 12.56C8.16346 12.9794 8.74479 13.582 9.23307 14.4046C9.50365 14.2363 9.79147 14.0898 10.0942 13.968L10.0942 12.0043C10.0942 11.9486 10.1304 11.9026 10.1787 11.9026L10.7923 11.9026C11.1174 11.9026 11.3885 11.6338 11.3885 11.3087L11.3885 8.51708L11.7918 8.119L11.7918 10.0444C11.7918 10.389 12.0629 10.6332 12.3903 10.6332C12.7327 10.6332 13.0038 10.389 13.0038 10.0444L13.0038 6.90927L14.5545 5.35399C14.7285 5.17997 14.7308 4.90544 14.5545 4.74349C14.3925 4.56947 14.1105 4.56947 13.944 4.74349ZM7.38627 9.07748C7.38627 9.73123 7.91822 10.2706 8.5869 10.2706C9.23604 10.2706 9.79037 9.73123 9.79037 9.07748C9.79037 8.41342 9.23604 7.88147 8.5869 7.88147C7.91822 7.88147 7.38627 8.41342 7.38627 9.07748Z"
                     fill="currentColor" fill-opacity="0.85" />
       </g>
</svg>