<?xml version="1.0" encoding="UTF-8"?>
<!--Generator: Apple Native CoreSVG 326-->
<!DOCTYPE svg PUBLIC "-//W3C//DTD SVG 1.1//EN" "http://www.w3.org/Graphics/SVG/1.1/DTD/svg11.dtd">
<svg version="1.1" xmlns="http://www.w3.org/2000/svg" xmlns:xlink="http://www.w3.org/1999/xlink"
       viewBox="0 0 28.5193 22.3959">
       <g>
              <rect height="22.3959" opacity="0" width="28.5193" x="0" y="0" />
              <path d="M21.5894 5.99658C23.2609 5.99658 24.5969 4.6192 24.5969 3.01667C24.5969 1.34062 23.2609 0 21.5894 0C19.9185 0 18.6049 1.34062 18.6049 3.01667C18.6049 4.62842 19.9185 5.99658 21.5894 5.99658ZM4.01191 21.7543C4.65402 22.401 5.69476 22.3545 6.46151 21.5533L11.0711 16.7846C11.2526 16.6008 11.3875 16.5767 11.642 16.672L15.0351 17.9347C17.3436 18.7974 19.9028 17.828 21.0222 15.7902L23.1391 11.9523C24.0713 10.2418 23.7577 8.57204 22.1753 7.69095C20.6192 6.82708 19.0121 7.45318 18.0627 9.16544L15.0821 14.5809L12.6213 13.6642C11.2078 13.1323 10.0097 13.3064 8.86792 14.4947L4.11473 19.454C3.36004 20.2432 3.4261 21.1811 4.01191 21.7543Z"
                     fill="currentColor" fill-opacity="0.85" />
              <path d="M5.286 4.28444C5.286 4.80651 5.69549 5.21084 6.21009 5.21084L9.58311 5.21084L9.58311 6.87603C9.58311 7.73122 10.4406 8.11603 11.085 7.53767L13.9799 4.926C14.3963 4.55151 14.3963 4.06159 13.9799 3.67448L11.085 1.06282C10.4751 0.518912 9.58311 0.822738 9.58311 1.72445L9.58311 3.37242L6.21009 3.37242C5.69549 3.37242 5.286 3.77445 5.286 4.28444ZM3.52345 5.96704C3.006 5.96704 2.60397 6.37138 2.60397 6.89114L2.60397 10.2619L0.941081 10.2642C0.0669054 10.2665-0.296607 11.1286 0.277139 11.7563L2.89111 14.6535C3.2633 15.0722 3.75552 15.0699 4.14263 14.6535L6.75199 11.7563C7.30051 11.1515 6.98516 10.2619 6.09036 10.2619L4.44009 10.2619L4.44009 6.89114C4.44009 6.37138 4.03575 5.96704 3.52345 5.96704Z"
                     fill="currentColor" fill-opacity="0.85" />
       </g>
</svg>