<?xml version="1.0" encoding="UTF-8"?>
<!--Generator: Apple Native CoreSVG 326-->
<!DOCTYPE svg PUBLIC "-//W3C//DTD SVG 1.1//EN" "http://www.w3.org/Graphics/SVG/1.1/DTD/svg11.dtd">
<svg version="1.1" xmlns="http://www.w3.org/2000/svg" xmlns:xlink="http://www.w3.org/1999/xlink"
       viewBox="0 0 22.7046 18.7827">
       <g>
              <rect height="18.7827" opacity="0" width="22.7046" x="0" y="0" />
              <path d="M17.2881 4.77491C18.6041 4.77491 19.6805 3.70827 19.6805 2.39234C19.6805 1.0764 18.6041 0 17.2881 0C15.9722 0 14.8981 1.0764 14.8981 2.39234C14.8981 3.70827 15.9722 4.77491 17.2881 4.77491ZM9.95356 18.6035C10.6589 18.6035 11.2125 18.0206 11.2125 17.3273L11.2125 12.5751C11.2125 12.0708 10.9725 11.7084 10.6887 11.4172L7.7532 8.47189L11.1295 7.61131C11.3001 7.56994 11.4116 7.67681 11.4116 7.82506L11.4116 9.72365C11.4116 10.0568 11.5339 10.3801 11.7815 10.6202L15.0362 13.8795C15.5284 14.3694 16.3267 14.3694 16.819 13.8795C17.3164 13.4045 17.3187 12.5815 16.819 12.0915L13.9296 9.2142L13.9296 7.68173L15.2533 9.19049C15.4957 9.48224 15.846 9.63388 16.2062 9.63388L21.0928 9.63388C21.7883 9.63388 22.342 9.07791 22.342 8.36514C22.342 7.6696 21.7883 7.12339 21.0928 7.12339L16.7742 7.12339L14.2243 4.18515C13.3782 3.19949 12.0674 2.81062 10.8129 3.12367L5.24446 4.52124C2.91587 5.10827 2.50978 8.00951 4.349 9.49892L8.69458 13.0409L8.69458 17.3273C8.69458 18.0206 9.25801 18.6035 9.95356 18.6035ZM0.371111 18.2336C0.86103 18.7236 1.66915 18.7236 2.15391 18.2336L5.95832 14.4367C6.19609 14.1892 6.26215 13.9611 6.3282 13.6263L6.49543 12.7332L3.80794 10.55L3.80794 13.0186L0.371111 16.4457C-0.128574 16.9431-0.118809 17.7437 0.371111 18.2336Z"
                     fill="currentColor" fill-opacity="0.85" />
       </g>
</svg>