<?xml version="1.0" encoding="UTF-8"?>
<!--Generator: Apple Native CoreSVG 326-->
<!DOCTYPE svg PUBLIC "-//W3C//DTD SVG 1.1//EN" "http://www.w3.org/Graphics/SVG/1.1/DTD/svg11.dtd">
<svg version="1.1" xmlns="http://www.w3.org/2000/svg" xmlns:xlink="http://www.w3.org/1999/xlink"
       viewBox="0 0 21.365 21.006">
       <g>
              <rect height="21.006" opacity="0" width="21.365" x="0" y="0" />
              <path d="M10.4981 20.9962C16.302 20.9962 21.0037 16.2946 21.0037 10.4981C21.0037 4.70163 16.302 0 10.4981 0C4.70163 0 0 4.70163 0 10.4981C0 16.2946 4.70163 20.9962 10.4981 20.9962ZM10.4981 17.9484C6.37829 17.9484 3.04785 14.6179 3.04785 10.4981C3.04785 6.37829 6.37829 3.04785 10.4981 3.04785C14.6179 3.04785 17.9558 6.37829 17.9558 10.4981C17.9558 14.6179 14.6179 17.9484 10.4981 17.9484Z"
                     fill="currentColor" fill-opacity="0.85" />
              <path d="M10.4935 6.64833C11.1156 6.64833 11.6131 6.1336 11.6131 5.52407C11.6131 4.90423 11.1156 4.40442 10.4935 4.40442C9.87651 4.40442 9.37154 4.90423 9.37154 5.52407C9.37154 6.1336 9.87651 6.64833 10.4935 6.64833ZM12.7031 16.1346C13.023 16.1346 13.2746 15.8755 13.2746 15.5555L13.2746 12.8369C13.2746 12.6928 13.2063 12.4975 13.023 12.3826L11.304 11.233L11.304 8.3706C11.304 8.29478 11.3477 8.26372 11.4258 8.26372L15.1586 8.26372C15.4785 8.26372 15.7376 8.00466 15.7376 7.687C15.7376 7.37911 15.4785 7.11775 15.1586 7.11775L9.73111 7.11775C9.24568 7.11775 8.96994 7.29583 8.72119 7.60318L7.43486 9.18193C7.09822 9.60416 7.37165 10.2246 7.84556 10.2246L9.18139 10.2246L9.18139 10.8296C9.18139 11.3001 9.44967 11.7539 9.86905 11.9808L12.1338 13.196L12.1338 15.5555C12.1338 15.8755 12.3929 16.1346 12.7031 16.1346ZM8.83365 9.15264L9.24799 8.64173L9.24799 9.15264ZM7.10853 15.9341C7.3113 16.1811 7.68525 16.1955 7.91962 15.9806L9.84654 14.2898C9.95396 14.1996 10.0005 14.1508 10.047 14.0457L10.5084 12.877L9.63697 12.4134C9.50772 12.3353 9.4026 12.2692 9.3733 12.2399L9.01361 13.523L7.16482 15.1379C6.93275 15.3332 6.90345 15.702 7.10853 15.9341Z"
                     fill="currentColor" fill-opacity="0.85" />
       </g>
</svg>