<?xml version="1.0" encoding="UTF-8"?>
<!--Generator: Apple Native CoreSVG 326-->
<!DOCTYPE svg PUBLIC "-//W3C//DTD SVG 1.1//EN" "http://www.w3.org/Graphics/SVG/1.1/DTD/svg11.dtd">
<svg version="1.1" xmlns="http://www.w3.org/2000/svg" xmlns:xlink="http://www.w3.org/1999/xlink"
       viewBox="0 0 21.365 21.006">
       <g>
              <rect height="21.006" opacity="0" width="21.365" x="0" y="0" />
              <path d="M21.0037 10.4981C21.0037 16.2923 16.302 20.9962 10.4981 20.9962C4.70394 20.9962 0 16.2923 0 10.4981C0 4.70163 4.70394 0 10.4981 0C16.302 0 21.0037 4.70163 21.0037 10.4981ZM6.82939 7.33611C6.51689 7.33611 6.25322 7.56017 6.21591 7.86006C5.57708 7.89736 5.05544 8.43392 5.05544 9.09513C5.05544 9.77127 5.61439 10.34 6.29052 10.34C6.97411 10.34 7.5256 9.77127 7.5256 9.09513C7.5256 8.90091 7.47962 8.71361 7.39743 8.5556L10.3539 8.5556C10.4821 8.5556 10.5178 8.65107 10.4333 8.7258L9.40951 9.75932C8.92408 10.2476 8.97237 10.9898 9.32678 11.2684L11.9 13.2177L11.1008 15.6616C10.9664 16.0844 11.233 16.3802 11.5408 16.4486C11.8217 16.5221 12.1446 16.3998 12.279 16.0212L13.1809 13.2005C13.2614 12.9758 13.2102 12.7266 13.0563 12.5577L11.3483 10.8697L13.3022 8.90377C13.3677 8.84572 13.447 8.84572 13.5022 8.90377L14.1423 9.53865L13.2489 10.4297C12.9996 10.679 13.0019 11.0628 13.2489 11.2925C13.4689 11.5223 13.8623 11.5493 14.1042 11.2925L15.4353 9.97865C15.6846 9.72189 15.6673 9.3531 15.4353 9.11127L14.1455 7.81923C13.8434 7.4872 13.4332 7.33611 12.9719 7.33611ZM8.90225 13.1741L6.51974 13.1741C6.16763 13.1741 5.88904 13.4527 5.88904 13.7951C5.88904 14.1323 6.16763 14.4011 6.51974 14.4011L9.406 14.4011C9.71619 14.4011 9.92873 14.2299 10.0069 13.9685L10.3838 12.7315L9.13323 11.7716ZM11.9502 5.62876C11.9502 6.29513 12.4873 6.81962 13.141 6.81962C13.7976 6.81962 14.3347 6.29513 14.3347 5.62876C14.3347 4.97216 13.7976 4.42529 13.141 4.42529C12.4873 4.42529 11.9502 4.97216 11.9502 5.62876Z"
                     fill="currentColor" fill-opacity="0.85" />
       </g>
</svg>