<?xml version="1.0" encoding="UTF-8"?>
<!--Generator: Apple Native CoreSVG 326-->
<!DOCTYPE svg PUBLIC "-//W3C//DTD SVG 1.1//EN" "http://www.w3.org/Graphics/SVG/1.1/DTD/svg11.dtd">
<svg version="1.1" xmlns="http://www.w3.org/2000/svg" xmlns:xlink="http://www.w3.org/1999/xlink"
       viewBox="0 0 25.1384 24.8746">
       <g>
              <rect height="24.8746" opacity="0" width="25.1384" x="0" y="0" />
              <path d="M18.6538 11.9037C19.9697 11.9037 21.0438 10.8371 21.0438 9.52112C21.0438 8.20519 19.9697 7.12879 18.6538 7.12879C17.3356 7.12879 16.2689 8.20519 16.2689 9.52112C16.2689 10.8371 17.3356 11.9037 18.6538 11.9037ZM11.3444 20.1941L15.6472 20.1941L19.7906 16.0507C19.9859 15.8629 20.2634 15.8554 20.4564 16.0507L21.9627 17.5473L20.3083 19.2115C19.2377 20.2993 20.8768 21.9334 21.9497 20.8455L24.4198 18.3704C24.8925 17.8827 24.8827 17.1872 24.4198 16.7243L21.5367 13.8435C20.9474 13.2542 20.1547 12.9142 19.3282 12.9142L11.6408 12.9142L11.6408 15.2437L13.9812 15.2437C14.1644 15.2437 14.1903 15.412 14.103 15.5017L11.3444 18.2579ZM1.49171 20.1941L12.331 20.1941L12.331 1.29167C12.331 0.360115 10.9928-0.026992 10.4293 0.997065L0.656056 18.6015C0.195433 19.4343 0.670977 20.1941 1.49171 20.1941ZM3.05282 18.4685C2.88341 18.4685 2.85927 18.3238 2.92071 18.2106L10.3859 4.77916C10.4393 4.67689 10.5979 4.71365 10.5979 4.83314L10.5979 18.4685ZM0.800539 24.8746L1.85401 24.8746C4.73979 24.8746 5.28096 23.2185 7.00784 23.2185C8.73241 23.2185 9.28104 24.8746 12.1594 24.8746C15.0428 24.8746 15.5938 23.2185 17.3109 23.2185C19.0354 23.2185 19.5864 24.8746 22.4624 24.8746L23.5256 24.8746C23.9701 24.8746 24.3239 24.5209 24.3239 24.0764C24.3239 23.6394 23.9701 23.2833 23.5256 23.2833L22.4624 23.2833C20.6769 23.2833 20.0795 21.6272 17.3109 21.6272C14.5498 21.6272 13.9448 23.2833 12.1594 23.2833C10.3664 23.2833 9.76896 21.6272 7.00784 21.6272C4.24441 21.6272 3.64925 23.2833 1.85401 23.2833L0.800539 23.2833C0.356051 23.2833 0 23.6394 0 24.0764C0 24.5209 0.356051 24.8746 0.800539 24.8746Z"
                     fill="currentColor" fill-opacity="0.85" />
       </g>
</svg>