<?xml version="1.0" encoding="UTF-8"?>
<!--Generator: Apple Native CoreSVG 326-->
<!DOCTYPE svg PUBLIC "-//W3C//DTD SVG 1.1//EN" "http://www.w3.org/Graphics/SVG/1.1/DTD/svg11.dtd">
<svg version="1.1" xmlns="http://www.w3.org/2000/svg" xmlns:xlink="http://www.w3.org/1999/xlink"
       viewBox="0 0 21.365 21.006">
       <g>
              <rect height="21.006" opacity="0" width="21.365" x="0" y="0" />
              <path d="M10.4981 20.9962C16.302 20.9962 21.0037 16.2946 21.0037 10.4981C21.0037 4.70163 16.302 0 10.4981 0C4.70163 0 0 4.70163 0 10.4981C0 16.2946 4.70163 20.9962 10.4981 20.9962ZM10.4981 17.9484C6.37829 17.9484 3.04785 14.6179 3.04785 10.4981C3.04785 6.37829 6.37829 3.04785 10.4981 3.04785C14.6179 3.04785 17.9558 6.37829 17.9558 10.4981C17.9558 14.6179 14.6179 17.9484 10.4981 17.9484Z"
                     fill="currentColor" fill-opacity="0.85" />
              <path d="M5.50727 13.0599L5.63016 13.0599C6.9854 13.0599 7.23821 12.278 8.06556 12.278C8.77584 12.278 9.14057 13.0599 10.4958 13.0599C11.8585 13.0599 12.2232 12.278 12.9335 12.278C13.7534 12.278 14.0137 13.0599 15.3614 13.0599L15.4941 13.0599C15.69 13.0599 15.8634 12.9031 15.8634 12.7055C15.8634 12.4999 15.69 12.3287 15.4941 12.3287L15.3614 12.3287C14.5123 12.3287 14.2278 11.5543 12.9335 11.5543C11.7511 11.5543 11.3473 12.3287 10.4958 12.3287C9.64662 12.3287 9.24799 11.5543 8.06556 11.5543C6.77122 11.5543 6.47934 12.3287 5.63016 12.3287L5.50727 12.3287C5.30165 12.3287 5.13563 12.4999 5.13563 12.7055C5.13563 12.9031 5.30165 13.0599 5.50727 13.0599ZM5.50727 14.5144L5.63016 14.5144C6.9854 14.5144 7.23821 13.74 8.06556 13.74C8.77584 13.74 9.14057 14.5144 10.4958 14.5144C11.8585 14.5144 12.2232 13.74 12.9335 13.74C13.7534 13.74 14.0137 14.5144 15.3614 14.5144L15.4941 14.5144C15.69 14.5144 15.8634 14.353 15.8634 14.16C15.8634 13.9544 15.69 13.7907 15.4941 13.7907L15.3614 13.7907C14.5123 13.7907 14.1159 13.0088 12.9335 13.0088C11.863 13.0088 11.3473 13.7907 10.4958 13.7907C9.64662 13.7907 9.13608 13.0088 8.06556 13.0088C6.88313 13.0088 6.47934 13.7907 5.63016 13.7907L5.50727 13.7907C5.30165 13.7907 5.13563 13.9544 5.13563 14.16C5.13563 14.353 5.30165 14.5144 5.50727 14.5144ZM9.4985 6.46818C9.4985 6.67896 9.66506 6.83806 9.86322 6.83806C10.2821 6.83806 10.5153 6.91334 10.7607 7.18568C10.8853 7.3201 11.0174 7.39361 11.1593 7.39361C11.3012 7.39361 11.431 7.3201 11.558 7.18568C11.8085 6.91334 12.0343 6.83806 12.4554 6.83806C12.6587 6.83806 12.8253 6.67896 12.8253 6.46818C12.8253 6.27232 12.6587 6.0983 12.4531 6.0983C11.9246 6.0983 11.5465 6.22756 11.1593 6.55334C10.7772 6.22756 10.3918 6.0983 9.86322 6.0983C9.66736 6.0983 9.4985 6.27232 9.4985 6.46818ZM8.78276 10.9413C9.49037 11.1528 9.86431 11.6198 10.4958 11.6198C11.2192 11.6198 11.5897 11.0091 12.5414 10.8689L9.72814 7.94588C9.484 7.69198 9.12267 7.65752 8.83201 7.86776L6.93669 9.20753C6.5679 9.4712 6.60696 9.86698 6.82927 10.0991C7.00505 10.2944 7.32501 10.38 7.6329 10.1576L9.11291 9.12577L9.89549 9.92788C9.98799 10.0301 9.99491 10.1439 9.86619 10.229ZM13.2205 10.2444C13.8427 10.2444 14.3402 9.73948 14.3402 9.12479C14.3402 8.49804 13.8427 8.00284 13.2205 8.00284C12.6012 8.00284 12.0986 8.49804 12.0986 9.12479C12.0986 9.73948 12.6012 10.2444 13.2205 10.2444Z"
                     fill="currentColor" fill-opacity="0.85" />
       </g>
</svg>