<?xml version="1.0" encoding="UTF-8"?>
<!--Generator: Apple Native CoreSVG 326-->
<!DOCTYPE svg PUBLIC "-//W3C//DTD SVG 1.1//EN" "http://www.w3.org/Graphics/SVG/1.1/DTD/svg11.dtd">
<svg version="1.1" xmlns="http://www.w3.org/2000/svg" xmlns:xlink="http://www.w3.org/1999/xlink"
       viewBox="0 0 21.365 21.006">
       <g>
              <rect height="21.006" opacity="0" width="21.365" x="0" y="0" />
              <path d="M21.0037 10.4981C21.0037 16.2923 16.302 20.9962 10.4981 20.9962C4.70394 20.9962 0 16.2923 0 10.4981C0 4.70163 4.70394 0 10.4981 0C16.302 0 21.0037 4.70163 21.0037 10.4981ZM6.16884 5.50927L6.16884 8.29326C6.16884 8.7235 6.61861 8.95096 7.00978 8.78955L8.37029 8.19087C8.42889 8.16904 8.46455 8.20064 8.45994 8.25869L7.74869 13.485L6.50318 15.7175C6.34177 16.0012 6.43197 16.3775 6.74271 16.5389C6.99947 16.6733 7.36826 16.6245 7.54919 16.3017L8.85099 13.9641L9.55194 12.3921C9.58869 12.3232 9.65014 12.3111 9.72881 12.3553L11.6024 13.7205L11.6024 16.0012C11.6024 16.3287 11.8712 16.6073 12.2136 16.6073C12.541 16.6073 12.8173 16.3287 12.8173 16.0012L12.8173 13.4488C12.8173 13.2828 12.7587 13.1018 12.6341 12.9674L10.5136 10.9791L10.6739 9.67634C10.6762 9.63267 10.7664 9.63267 10.7859 9.67404L11.1371 10.5315C11.2273 10.7664 11.4449 10.9054 11.6845 10.9054L13.8934 10.9054C14.2231 10.9054 14.4919 10.6366 14.4919 10.3092C14.4919 9.97198 14.2231 9.70546 13.8934 9.70546L12.0854 9.70546L11.3592 8.01467C11.1593 7.53385 10.8468 7.26557 10.1735 7.08517L9.86619 6.99728C9.15209 6.79506 8.64943 6.76807 8.04451 7.01682L7.37396 7.3133L7.37396 5.50927C7.37396 5.19161 7.09537 4.91533 6.76279 4.91533C6.43537 4.91533 6.16884 5.19161 6.16884 5.50927ZM13.3886 4.53083L13.3886 8.19409C13.1403 8.31643 12.953 8.52096 12.8605 8.78639C12.7796 9.02186 12.9076 9.20565 13.1178 9.20565L14.5093 9.20565C14.7545 9.20565 14.8676 9.0144 14.7941 8.78639C14.7091 8.52096 14.5069 8.30897 14.2587 8.19409L14.2587 4.53083C14.2587 4.29536 14.0651 4.08458 13.8199 4.08458C13.5919 4.08458 13.3886 4.29536 13.3886 4.53083ZM9.24459 5.36521C9.24459 6.02412 9.7817 6.56353 10.4429 6.56353C11.1093 6.56353 11.6292 6.02412 11.6292 5.36521C11.6292 4.71607 11.1093 4.1692 10.4429 4.1692C9.7817 4.1692 9.24459 4.71607 9.24459 5.36521Z"
                     fill="currentColor" fill-opacity="0.85" />
       </g>
</svg>