<?xml version="1.0" encoding="UTF-8"?>
<!--Generator: Apple Native CoreSVG 326-->
<!DOCTYPE svg PUBLIC "-//W3C//DTD SVG 1.1//EN" "http://www.w3.org/Graphics/SVG/1.1/DTD/svg11.dtd">
<svg version="1.1" xmlns="http://www.w3.org/2000/svg" xmlns:xlink="http://www.w3.org/1999/xlink"
       viewBox="0 0 21.365 21.006">
       <g>
              <rect height="21.006" opacity="0" width="21.365" x="0" y="0" />
              <path d="M10.4981 20.9962C16.302 20.9962 21.0037 16.2946 21.0037 10.4981C21.0037 4.70163 16.302 0 10.4981 0C4.70163 0 0 4.70163 0 10.4981C0 16.2946 4.70163 20.9962 10.4981 20.9962ZM10.4981 17.9484C6.37829 17.9484 3.04785 14.6179 3.04785 10.4981C3.04785 6.37829 6.37829 3.04785 10.4981 3.04785C14.6179 3.04785 17.9558 6.37829 17.9558 10.4981C17.9558 14.6179 14.6179 17.9484 10.4981 17.9484Z"
                     fill="currentColor" fill-opacity="0.85" />
              <path d="M14.3144 7.78302C14.8671 7.78302 15.3129 7.3349 15.3129 6.77704C15.3129 6.22434 14.8671 5.77106 14.3144 5.77106C13.7566 5.77106 13.3061 6.22434 13.3061 6.77704C13.3061 7.3349 13.7566 7.78302 14.3144 7.78302ZM11.5821 14.945C13.5256 14.945 14.9108 13.5771 14.9108 11.7283C14.9108 10.8906 14.5649 10.3667 13.8146 10.1185L13.1206 9.88748C13.0258 9.85073 13.0039 9.79959 13.0769 9.71916L13.5153 9.07166C13.883 8.5408 13.7491 8.09498 13.2062 7.70544L11.5429 6.55122C11.3458 6.41966 11.1069 6.4122 10.9069 6.54145L9.37064 7.57388C8.75419 7.99041 9.32927 8.77232 9.90896 8.37994L11.1701 7.51814L12.0468 8.12197C12.1806 8.21447 12.1927 8.31443 12.11 8.43107L11.3867 9.47096C10.9753 10.0725 11.3039 10.6976 11.9468 10.8883L13.6121 11.3554C13.8395 11.4169 13.9493 11.5553 13.9493 11.7673C13.9493 13.009 12.9501 13.9858 11.5821 13.9858C10.132 13.9858 9.13286 12.9493 9.13286 11.5791C9.13286 11.167 9.22943 10.801 9.41564 10.478C9.70752 9.91854 8.8701 9.44694 8.53401 10.123C8.31158 10.5533 8.1765 11.0435 8.1765 11.5791C8.1765 13.5248 9.56401 14.945 11.5821 14.945ZM14.9285 14.945C15.2382 14.945 15.4818 14.6986 15.4818 14.4039C15.4818 14.1017 15.2382 13.8483 14.9285 13.8483C14.6241 13.8483 14.3902 14.1017 14.3902 14.4039C14.3902 14.6986 14.6241 14.945 14.9285 14.945ZM4.97762 9.441L7.15493 9.441C7.36977 9.441 7.54325 9.27267 7.54325 9.05037C7.54325 8.83553 7.36977 8.65975 7.15493 8.65975L4.97762 8.65975C4.75301 8.65975 4.61399 8.84529 4.61399 9.05037C4.61399 9.26291 4.75301 9.441 4.97762 9.441ZM4.55594 11.1496L7.15493 11.1496C7.36977 11.1496 7.54325 10.9858 7.54325 10.7612C7.54325 10.5464 7.36977 10.3706 7.15493 10.3706L4.55594 10.3706C4.35086 10.3706 4.17739 10.5659 4.17739 10.7612C4.17739 10.9858 4.35086 11.1496 4.55594 11.1496ZM5.91172 12.8679L7.15493 12.8679C7.36977 12.8679 7.54325 12.7042 7.54325 12.4698C7.54325 12.255 7.36977 12.0889 7.15493 12.0889L5.91172 12.0889C5.68942 12.0889 5.5504 12.255 5.5504 12.4698C5.5504 12.7042 5.68942 12.8679 5.91172 12.8679Z"
                     fill="currentColor" fill-opacity="0.85" />
       </g>
</svg>