<?xml version="1.0" encoding="UTF-8"?>
<!--Generator: Apple Native CoreSVG 326-->
<!DOCTYPE svg PUBLIC "-//W3C//DTD SVG 1.1//EN" "http://www.w3.org/Graphics/SVG/1.1/DTD/svg11.dtd">
<svg version="1.1" xmlns="http://www.w3.org/2000/svg" xmlns:xlink="http://www.w3.org/1999/xlink"
       viewBox="0 0 21.365 21.006">
       <g>
              <rect height="21.006" opacity="0" width="21.365" x="0" y="0" />
              <path d="M10.4981 20.9962C16.302 20.9962 21.0037 16.2946 21.0037 10.4981C21.0037 4.70163 16.302 0 10.4981 0C4.70163 0 0 4.70163 0 10.4981C0 16.2946 4.70163 20.9962 10.4981 20.9962ZM10.4981 17.9484C6.37829 17.9484 3.04785 14.6179 3.04785 10.4981C3.04785 6.37829 6.37829 3.04785 10.4981 3.04785C14.6179 3.04785 17.9558 6.37829 17.9558 10.4981C17.9558 14.6179 14.6179 17.9484 10.4981 17.9484Z"
                     fill="currentColor" fill-opacity="0.85" />
              <path d="M12.5376 6.63923C13.1471 6.63923 13.6596 6.13943 13.6596 5.51497C13.6596 4.90028 13.1471 4.39302 12.5376 4.39302C11.9132 4.39302 11.4059 4.90028 11.4059 5.51497C11.4059 6.13943 11.9132 6.63923 12.5376 6.63923ZM10.632 13.5189C10.9542 13.5189 11.2156 13.2725 11.2156 12.9548L11.2156 10.6355C11.2156 10.4792 11.1472 10.3402 11.0421 10.2351L9.8201 9.01307L10.9083 7.92259C10.9589 7.87431 11.0164 7.87201 11.0669 7.92259L11.8586 8.72174C11.954 8.83662 12.1102 8.88545 12.2492 8.88545L14.576 8.88545C14.896 8.88545 15.1424 8.63385 15.1424 8.32135C15.1424 8.01115 14.896 7.74748 14.576 7.74748L12.4962 7.74748L10.7865 6.04001C10.5572 5.80849 10.2206 5.66946 9.88397 5.66946L8.06908 5.66946C7.50498 5.66946 7.3315 6.29216 7.68822 6.64888L8.43975 7.4004L7.84392 7.9767C7.40732 8.411 7.41478 9.14748 7.84392 9.58178L8.68158 10.4022L8.68158 13.0668C8.68158 13.3793 8.93318 13.6407 9.25314 13.6407C9.56334 13.6407 9.83217 13.3793 9.83217 13.0668L9.83217 10.6319L10.0627 10.875L10.0627 12.9548C10.0627 13.2725 10.3218 13.5189 10.632 13.5189ZM4.86559 8.10462L9.65924 8.10462L9.65924 7.28388L4.86559 7.28388C4.64043 7.28388 4.45895 7.47513 4.45895 7.69798C4.45895 7.92083 4.64043 8.10462 4.86559 8.10462ZM14.7358 13.486C14.9661 13.486 15.1424 13.3022 15.1424 13.0793L15.1424 8.30927L14.3291 8.30927L14.3291 13.0793C14.3291 13.3022 14.5129 13.486 14.7358 13.486ZM12.2971 16.7125C12.5573 16.7125 12.741 16.5241 12.741 16.3059C12.741 16.0732 12.555 15.8872 12.3344 15.8872C12.1395 15.8872 12.0316 15.8182 11.8063 15.5953L6.66841 10.47C6.50415 10.3132 6.252 10.3058 6.09521 10.47C5.93841 10.6217 5.94587 10.8813 6.09521 11.0358L11.3135 16.2615C11.6054 16.5609 11.9219 16.7125 12.2971 16.7125ZM13.7533 16.3575C13.9738 16.3575 14.1599 16.1789 14.1599 15.9509C14.1599 15.7304 13.9738 15.5443 13.7533 15.5443C13.4666 15.5443 13.3735 15.488 13.1356 15.2575L8.00521 10.1197C7.84841 9.96804 7.58134 9.95311 7.4297 10.1197C7.26775 10.2816 7.28267 10.5361 7.4297 10.7003L12.648 15.9238C12.9525 16.2381 13.3408 16.3575 13.7533 16.3575Z"
                     fill="currentColor" fill-opacity="0.85" />
       </g>
</svg>