<?xml version="1.0" encoding="UTF-8"?>
<!--Generator: Apple Native CoreSVG 326-->
<!DOCTYPE svg PUBLIC "-//W3C//DTD SVG 1.1//EN" "http://www.w3.org/Graphics/SVG/1.1/DTD/svg11.dtd">
<svg version="1.1" xmlns="http://www.w3.org/2000/svg" xmlns:xlink="http://www.w3.org/1999/xlink"
       viewBox="0 0 21.3949 22.3959">
       <g>
              <rect height="22.3959" opacity="0" width="21.3949" x="0" y="0" />
              <path d="M3.00745 5.99658C4.67834 5.99658 5.99197 4.62842 5.99197 3.01667C5.99197 1.34062 4.67834 0 3.00745 0C1.33601 0 0 1.34062 0 3.01667C0 4.6192 1.33601 5.99658 3.00745 5.99658ZM20.585 21.7543C21.1633 21.1811 21.2368 20.2432 20.4822 19.454L15.729 14.4947C14.5872 13.3064 13.3891 13.1323 11.9756 13.6642L9.50735 14.5809L6.53424 9.16544C5.58479 7.45318 3.97018 6.82708 2.42163 7.69095C0.831716 8.57204 0.525585 10.2418 1.45781 11.9523L3.57464 15.7902C4.69405 17.828 7.24579 18.7974 9.55661 17.9347L12.9498 16.672C13.2094 16.5767 13.3443 16.6008 13.5258 16.7846L18.1279 21.5533C18.9021 22.3545 19.9429 22.401 20.585 21.7543Z"
                     fill="currentColor" fill-opacity="0.85" />
       </g>
</svg>