<?xml version="1.0" encoding="UTF-8"?>
<!--Generator: Apple Native CoreSVG 326-->
<!DOCTYPE svg PUBLIC "-//W3C//DTD SVG 1.1//EN" "http://www.w3.org/Graphics/SVG/1.1/DTD/svg11.dtd">
<svg version="1.1" xmlns="http://www.w3.org/2000/svg" xmlns:xlink="http://www.w3.org/1999/xlink"
       viewBox="0 0 25.6977 23.5467">
       <g>
              <rect height="23.5467" opacity="0" width="25.6977" x="0" y="0" />
              <path d="M12.939 4.77491C14.2504 4.77491 15.3216 3.6962 15.3216 2.38257C15.3216 1.07125 14.2504 0 12.939 0C11.6254 0 10.5467 1.07125 10.5467 2.38257C10.5467 3.6962 11.6254 4.77491 12.939 4.77491ZM9.20741 18.2834C9.68756 18.7561 10.4371 18.7561 10.9172 18.2834L15.1197 14.0735C15.8032 13.3998 15.3673 12.1431 14.3507 12.0426L9.62029 11.5394C9.43341 11.5153 9.39951 11.3928 9.48345 11.268L11.1596 8.73423C11.2809 8.55208 11.4493 8.51587 11.6366 8.64974L14.6076 10.624C14.7913 10.7291 15.0291 10.8222 15.2715 10.8222L19.9628 10.8222C20.6193 10.8222 21.1655 10.276 21.1655 9.61951C21.1655 8.94349 20.6193 8.39729 19.9628 8.39729L15.6218 8.39729L6.57002 2.35776C6.38393 2.23542 6.14616 2.14468 5.90378 2.14468L1.20269 2.14468C0.546208 2.14468 0 2.70065 0 3.37436C0 4.02338 0.546208 4.57705 1.20269 4.57705L5.54366 4.57705L7.17507 5.65642C7.35722 5.78283 7.39573 5.96619 7.26702 6.14834L4.84812 9.78158C3.64707 11.5645 4.69648 13.9741 7.00553 14.1062L11.4382 14.3429L9.20741 16.5661C8.72495 17.0538 8.72495 17.8182 9.20741 18.2834ZM5.26288 14.8023L5.26288 17.9504L2.4246 21.2333C1.99097 21.7353 2.03004 22.5463 2.56417 22.9822C3.15691 23.4475 3.89667 23.2884 4.27862 22.8352L7.40635 19.1922C7.60967 18.9596 7.66596 18.685 7.70271 18.4576L8.22951 15.3312L6.94409 15.26C6.31515 15.2307 5.75741 15.0642 5.26288 14.8023ZM19.7838 6.74853C19.7838 7.5888 21.0709 8.22005 22.565 8.22005C24.0664 8.22005 25.3364 7.5888 25.3364 6.74853C25.3364 5.90827 24.0664 5.27471 22.565 5.27471C21.0709 5.27471 19.7838 5.90827 19.7838 6.74853Z"
                     fill="currentColor" fill-opacity="0.85" />
       </g>
</svg>