<?xml version="1.0" encoding="UTF-8"?>
<!--Generator: Apple Native CoreSVG 326-->
<!DOCTYPE svg PUBLIC "-//W3C//DTD SVG 1.1//EN" "http://www.w3.org/Graphics/SVG/1.1/DTD/svg11.dtd">
<svg version="1.1" xmlns="http://www.w3.org/2000/svg" xmlns:xlink="http://www.w3.org/1999/xlink"
       viewBox="0 0 21.365 21.006">
       <g>
              <rect height="21.006" opacity="0" width="21.365" x="0" y="0" />
              <path d="M10.4981 20.9962C16.302 20.9962 21.0037 16.2946 21.0037 10.4981C21.0037 4.70163 16.302 0 10.4981 0C4.70163 0 0 4.70163 0 10.4981C0 16.2946 4.70163 20.9962 10.4981 20.9962ZM10.4981 17.9484C6.37829 17.9484 3.04785 14.6179 3.04785 10.4981C3.04785 6.37829 6.37829 3.04785 10.4981 3.04785C14.6179 3.04785 17.9558 6.37829 17.9558 10.4981C17.9558 14.6179 14.6179 17.9484 10.4981 17.9484Z"
                     fill="currentColor" fill-opacity="0.85" />
              <path d="M10.0208 8.28337C10.643 8.28337 11.1405 7.78587 11.1405 7.16372C11.1405 6.54673 10.643 6.04177 10.0208 6.04177C9.41127 6.04177 8.89885 6.54673 8.89885 7.16372C8.89885 7.78587 9.41127 8.28337 10.0208 8.28337ZM14.3537 16.1776C14.6639 16.1776 14.9207 15.9237 14.9207 15.6083L14.9207 13.2052C14.9207 13.0024 14.8081 12.8536 14.6714 12.7364L12.7984 11.1921L12.4382 9.19279C12.3968 8.99572 12.4284 8.82334 12.5209 8.62111L14.0623 5.53845C14.199 5.25755 14.0916 4.92036 13.8032 4.77618C13.5246 4.63946 13.1851 4.75435 13.0507 5.03294L11.5289 8.07423C11.4318 8.28107 11.2933 8.40748 11.0595 8.50228L8.34658 9.62721L7.27794 8.76541C7.23251 8.73205 7.19454 8.71998 7.14911 8.70275L7.14911 7.55095L6.3422 7.55095L6.3422 9.19564C6.3422 9.37373 6.42318 9.53513 6.55989 9.64486L7.9192 10.7364C8.08982 10.8755 8.32705 10.8634 8.55166 10.7657L10.0621 10.1395C10.192 10.0866 10.2816 10.1441 10.296 10.2579L11.0291 14.3152L9.02053 15.1138C8.73963 15.2235 8.59315 15.5532 8.69311 15.8514C8.82752 16.1489 9.14232 16.2793 9.4433 16.1667L11.8867 15.1872C12.1234 15.0895 12.2607 14.8379 12.236 14.5961L12.0969 12.6985C12.0849 12.5611 12.2343 12.4617 12.3602 12.5439L13.7919 13.5056L13.7919 15.6083C13.7919 15.9237 14.0361 16.1776 14.3537 16.1776ZM6.74938 4.96852C5.97329 4.96852 5.35059 5.59583 5.35059 6.37423C5.35059 7.08942 5.97098 7.8529 6.74938 8.10165C7.53755 7.8529 8.13556 7.08942 8.13556 6.37423C8.13556 5.59583 7.53524 4.96852 6.74938 4.96852ZM6.74938 5.76281C7.09646 5.76281 7.34357 6.01739 7.34357 6.39145C7.34357 6.75345 7.09361 7.10974 6.74938 7.24591C6.39254 7.10974 6.1575 6.75345 6.1575 6.39145C6.1575 6.01739 6.39715 5.76281 6.74938 5.76281Z"
                     fill="currentColor" fill-opacity="0.85" />
       </g>
</svg>