<?xml version="1.0" encoding="UTF-8"?>
<!--Generator: Apple Native CoreSVG 326-->
<!DOCTYPE svg PUBLIC "-//W3C//DTD SVG 1.1//EN" "http://www.w3.org/Graphics/SVG/1.1/DTD/svg11.dtd">
<svg version="1.1" xmlns="http://www.w3.org/2000/svg" xmlns:xlink="http://www.w3.org/1999/xlink"
       viewBox="0 0 26.1761 23.7497">
       <g>
              <rect height="23.7497" opacity="0" width="26.1761" x="0" y="0" />
              <path d="M14.3822 4.77491C15.6959 4.77491 16.7723 3.6985 16.7723 2.38257C16.7723 1.06664 15.6959 0 14.3822 0C13.0663 0 11.9973 1.06664 11.9973 2.38257C11.9973 3.6985 13.0663 4.77491 14.3822 4.77491ZM12.3007 15.7998L12.3007 19.83C12.3007 20.3497 12.6149 20.622 13.1272 20.622L15.9648 20.622C16.8917 20.622 16.9388 19.3148 16.1342 19.0524L14.6964 18.5934L14.6964 14.6976C14.6964 14.1732 14.3334 13.7889 13.8831 13.5535L11.1155 12.1043L12.7302 8.89673C12.7934 8.75825 12.8647 8.74673 12.986 8.81454L15.7868 10.6251L15.7868 14.5185C15.7868 15.1899 16.3158 15.7189 16.9872 15.7189C17.6437 15.7189 18.1801 15.1899 18.1801 14.5185L18.1801 10.0168C18.1801 9.55103 18.0004 9.22087 17.6311 8.94459L13.1036 5.54924C12.1007 4.79104 10.8457 4.60495 9.64177 5.09432L6.30963 6.45108C5.18561 6.90654 5.36424 8.18044 6.27287 8.6606L7.40514 9.25114L6.77783 10.5081C5.80424 12.4432 6.58537 14.0888 8.58138 14.6873ZM6.65209 14.998L6.25279 16.1735L2.42952 16.1735C1.91206 16.1735 1.63984 16.4877 1.63984 17L1.63984 19.845C1.63984 20.7622 2.95444 20.819 3.20943 20.007L3.67588 18.5691L7.14935 18.5691C7.63927 18.5691 8.03614 18.2854 8.21247 17.9327L9.14657 16.0691L8.25001 15.7917C7.62107 15.6028 7.08517 15.3357 6.65209 14.998ZM12.6568 22.2693L16.7885 22.2693C17.036 22.2693 17.2468 22.0608 17.2468 21.8156C17.2468 21.556 17.036 21.3572 16.7885 21.3572L12.6568 21.3572C12.4018 21.3572 12.2031 21.556 12.2031 21.8156C12.2031 22.0608 12.4018 22.2693 12.6568 22.2693ZM0 16.5296L0 20.6613C0 20.9088 0.198709 21.1196 0.453708 21.1196C0.713316 21.1196 0.90972 20.9088 0.90972 20.6613L0.90972 16.5296C0.90972 16.2723 0.713316 16.0759 0.453708 16.0759C0.198709 16.0759 0 16.2723 0 16.5296ZM21.8504 20.1653L24.9591 20.1653C25.4139 20.1653 25.8147 19.7719 25.8147 19.2999L25.8147 18.7892C25.8147 18.3224 25.4139 17.9216 24.9591 17.9216L21.6922 17.9216L11.3122 7.99107L9.7709 8.87368L21.2129 19.8856C21.4507 20.1211 21.6499 20.1653 21.8504 20.1653ZM18.9283 22.8015C18.9283 23.3557 19.7559 23.7399 20.7519 23.7399C21.7502 23.7399 22.5876 23.3557 22.5876 22.8015L22.5876 21.8968C22.5876 21.3546 21.7427 20.9876 20.7519 20.9876C19.7634 20.9876 18.9283 21.3546 18.9283 21.8968Z"
                     fill="currentColor" fill-opacity="0.85" />
       </g>
</svg>