<?xml version="1.0" encoding="UTF-8"?>
<!--Generator: Apple Native CoreSVG 326-->
<!DOCTYPE svg PUBLIC "-//W3C//DTD SVG 1.1//EN" "http://www.w3.org/Graphics/SVG/1.1/DTD/svg11.dtd">
<svg version="1.1" xmlns="http://www.w3.org/2000/svg" xmlns:xlink="http://www.w3.org/1999/xlink"
       viewBox="0 0 21.365 21.006">
       <g>
              <rect height="21.006" opacity="0" width="21.365" x="0" y="0" />
              <path d="M21.0037 10.4981C21.0037 16.2923 16.302 20.9962 10.4981 20.9962C4.70394 20.9962 0 16.2923 0 10.4981C0 4.70163 4.70394 0 10.4981 0C16.302 0 21.0037 4.70163 21.0037 10.4981ZM10.2464 14.7883C10.2464 14.9762 10.3952 15.125 10.5853 15.125C10.768 15.125 10.9168 14.9762 10.9168 14.7883C10.9168 14.6033 10.768 14.4545 10.5853 14.4545C10.3952 14.4545 10.2464 14.6033 10.2464 14.7883ZM9.2606 14.6154C9.2606 14.8055 9.41455 14.9543 9.59725 14.9543C9.78225 14.9543 9.93619 14.8055 9.93619 14.6154C9.93619 14.4327 9.78225 14.2839 9.59725 14.2839C9.41455 14.2839 9.2606 14.4327 9.2606 14.6154ZM11.2293 14.6154C11.2293 14.8055 11.3781 14.9543 11.5608 14.9543C11.751 14.9543 11.8997 14.8055 11.8997 14.6154C11.8997 14.4327 11.751 14.2839 11.5608 14.2839C11.3781 14.2839 11.2293 14.4327 11.2293 14.6154ZM4.63473 14.4884C4.63473 14.6688 4.79329 14.8274 4.97368 14.8274C5.15868 14.8274 5.31493 14.6688 5.31493 14.4884C5.31493 14.3057 5.15868 14.1472 4.97368 14.1472C4.79329 14.1472 4.63473 14.3057 4.63473 14.4884ZM5.54645 14.4884C5.54645 14.6688 5.69524 14.8274 5.87794 14.8274C6.06809 14.8274 6.21688 14.6688 6.21688 14.4884C6.21688 14.3057 6.06809 14.1472 5.87794 14.1472C5.69524 14.1472 5.54645 14.3057 5.54645 14.4884ZM14.9486 14.4884C14.9486 14.6688 15.0923 14.8274 15.2899 14.8274C15.4703 14.8274 15.6139 14.6688 15.6139 14.4884C15.6139 14.3057 15.4703 14.1472 15.2899 14.1472C15.0923 14.1472 14.9486 14.3057 14.9486 14.4884ZM15.8529 14.4884C15.8529 14.6688 16.0114 14.8274 16.1941 14.8274C16.3745 14.8274 16.5331 14.6688 16.5331 14.4884C16.5331 14.3057 16.3745 14.1472 16.1941 14.1472C16.0114 14.1472 15.8529 14.3057 15.8529 14.4884ZM6.44325 14.1885C6.44325 14.3764 6.59204 14.5275 6.7822 14.5275C6.96489 14.5275 7.11368 14.3764 7.11368 14.1885C7.11368 14.0058 6.96489 13.8548 6.7822 13.8548C6.59204 13.8548 6.44325 14.0058 6.44325 14.1885ZM8.3638 14.1885C8.3638 14.3764 8.51259 14.5275 8.70275 14.5275C8.88545 14.5275 9.0417 14.3764 9.0417 14.1885C9.0417 14.0058 8.88545 13.8548 8.70275 13.8548C8.51259 13.8548 8.3638 14.0058 8.3638 14.1885ZM12.1261 14.1885C12.1261 14.3764 12.2726 14.5275 12.4553 14.5275C12.6478 14.5275 12.7942 14.3764 12.7942 14.1885C12.7942 14.0058 12.6478 13.8548 12.4553 13.8548C12.2726 13.8548 12.1261 14.0058 12.1261 14.1885ZM14.0467 14.1885C14.0467 14.3764 14.1955 14.5275 14.3879 14.5275C14.5683 14.5275 14.7194 14.3764 14.7194 14.1885C14.7194 14.0058 14.5683 13.8548 14.3879 13.8548C14.1955 13.8548 14.0467 14.0058 14.0467 14.1885ZM7.39865 13.9123C7.39865 14.1001 7.5572 14.2489 7.7399 14.2489C7.93521 14.2489 8.07884 14.1001 8.07884 13.9123C8.07884 13.7273 7.93521 13.5808 7.7399 13.5808C7.5572 13.5808 7.39865 13.7273 7.39865 13.9123ZM13.0838 13.9123C13.0838 14.1001 13.2401 14.2489 13.4228 14.2489C13.6055 14.2489 13.7617 14.1001 13.7617 13.9123C13.7617 13.7273 13.6055 13.5808 13.4228 13.5808C13.2401 13.5808 13.0838 13.7273 13.0838 13.9123ZM10.5853 12.7566C9.68447 12.7566 9.24623 11.9184 7.99259 11.9184C6.60696 11.9184 6.30532 12.7566 5.40446 12.7566L5.0236 12.7566C4.80821 12.7566 4.63473 12.9353 4.63473 13.1432C4.63473 13.3563 4.80821 13.5298 5.0236 13.5298L5.40446 13.5298C6.84352 13.5298 7.11356 12.7013 7.99259 12.7013C8.73963 12.7013 9.1365 13.5298 10.5853 13.5298C12.0267 13.5298 12.4161 12.7013 13.1781 12.7013C14.0422 12.7013 14.3197 13.5298 15.7587 13.5298L16.1391 13.5298C16.3521 13.5298 16.5331 13.3563 16.5331 13.1432C16.5331 12.9353 16.3521 12.7566 16.1391 12.7566L15.7587 12.7566C14.8579 12.7566 14.5488 11.9184 13.1781 11.9184C11.917 11.9184 11.4885 12.7566 10.5853 12.7566ZM14.4977 6.66865L10.9971 8.53589C10.3829 8.87253 9.87214 8.89897 9.14366 8.51405L5.67923 6.66865C5.36157 6.49287 4.95833 6.62959 4.78486 6.96216C4.61368 7.27982 4.72111 7.6756 5.05599 7.85423L8.42276 9.65772C8.52733 9.70885 8.57792 9.78819 8.54401 9.89737L8.19585 11.1528C9.31944 11.2069 9.73178 11.9559 10.5928 11.9559C10.6831 11.9559 10.7671 11.9271 10.8435 11.9035L11.3359 10.0835C11.3773 9.90823 11.4255 9.83811 11.591 9.75307L15.1307 7.85423C15.4507 7.69052 15.573 7.27982 15.4042 6.94724C15.2186 6.62959 14.8326 6.48541 14.4977 6.66865ZM9.01452 7.13182C9.01452 7.79588 9.54417 8.32784 10.2128 8.32784C10.8694 8.32784 11.4089 7.79588 11.4089 7.13182C11.4089 6.47291 10.8694 5.9335 10.2128 5.9335C9.54417 5.9335 9.01452 6.47291 9.01452 7.13182Z"
                     fill="currentColor" fill-opacity="0.85" />
       </g>
</svg>