<?xml version="1.0" encoding="UTF-8"?>
<!--Generator: Apple Native CoreSVG 326-->
<!DOCTYPE svg PUBLIC "-//W3C//DTD SVG 1.1//EN" "http://www.w3.org/Graphics/SVG/1.1/DTD/svg11.dtd">
<svg version="1.1" xmlns="http://www.w3.org/2000/svg" xmlns:xlink="http://www.w3.org/1999/xlink"
       viewBox="0 0 28.2313 21.7667">
       <g>
              <rect height="21.7667" opacity="0" width="28.2313" x="0" y="0" />
              <path d="M19.8533 6.85432L19.8533 9.54587C19.8533 10.319 20.4134 10.894 21.1939 10.894L23.4024 10.894C24.1657 10.894 24.7482 10.319 24.7482 9.54587L24.7482 6.85432C24.7482 6.09612 24.1657 5.52116 23.4024 5.52116L21.1939 5.52116C20.4134 5.52116 19.8533 6.09612 19.8533 6.85432ZM16.7086 14.5661L16.7086 17.2451C16.7086 18.0107 17.2687 18.5857 18.0567 18.5857L20.2726 18.5857C21.0308 18.5857 21.6057 18.0107 21.6057 17.2451L21.6057 14.5661C21.6057 13.7855 21.0308 13.2054 20.2726 13.2054L18.0567 13.2054C17.2687 13.2054 16.7086 13.7855 16.7086 14.5661ZM22.9734 14.5661L22.9734 17.2451C22.9734 18.0107 23.5535 18.5857 24.3117 18.5857L26.5276 18.5857C27.3081 18.5857 27.8682 18.0107 27.8682 17.2451L27.8682 14.5661C27.8682 13.7855 27.3081 13.2054 26.5276 13.2054L24.3117 13.2054C23.5535 13.2054 22.9734 13.7855 22.9734 14.5661ZM22.303 9.4097C21.642 9.4097 21.0837 8.86865 21.0837 8.19033C21.0837 7.54646 21.642 7.00772 22.303 7.00772C22.9446 7.00772 23.5178 7.54646 23.5178 8.19033C23.5178 8.86865 22.9446 9.4097 22.303 9.4097ZM19.1681 17.1089C18.4972 17.1089 17.9413 16.5678 17.9413 15.8821C17.9413 15.2307 18.4972 14.6897 19.1681 14.6897C19.8194 14.6897 20.3777 15.2307 20.3777 15.8821C20.3777 16.5678 19.8194 17.1089 19.1681 17.1089ZM25.4282 17.1089C24.7671 17.1089 24.2014 16.5678 24.2014 15.8821C24.2014 15.2307 24.7671 14.6897 25.4282 14.6897C26.0796 14.6897 26.6378 15.2307 26.6378 15.8821C26.6378 16.5678 26.0796 17.1089 25.4282 17.1089ZM20.1508 3.87441L24.4111 3.87441C24.7637 3.87441 24.8149 3.50968 24.5679 3.33105L22.7504 2.06504C22.4357 1.85601 22.1486 1.85601 21.8339 2.06504L20.0014 3.33105C19.747 3.50968 19.8056 3.87441 20.1508 3.87441Z"
                     fill="currentColor" fill-opacity="0.85" />
              <path d="M6.65068 4.78819C7.96377 4.78819 9.04763 3.6928 9.04763 2.41132C9.04763 1.0684 7.96377 0 6.65068 0C5.31291 0 4.25374 1.0684 4.25374 2.41132C4.25374 3.69741 5.31291 4.78819 6.65068 4.78819ZM2.0205 13.6328L8.75654 6.14604C8.12869 5.9415 7.43994 5.82147 6.65068 5.82147C3.55698 5.82147 1.72238 7.31834 1.72238 9.80548C1.72238 10.3897 1.76199 11.2018 1.84988 12.0261ZM11.2585 13.6328L11.4417 12.0261C11.5371 11.2018 11.5664 10.3897 11.5664 9.80548C11.5664 8.61759 11.1585 7.65947 10.3819 6.98685L5.19888 12.7466C5.68091 12.6885 6.17326 12.6718 6.65068 12.6718C8.16939 12.6718 9.70302 12.8648 11.2585 13.6328ZM4.12381 21.7179C4.81705 21.6323 5.27482 21.1401 5.18178 20.2556L4.77623 16.4208L8.51022 16.4208L8.09721 20.2556C8.00416 21.1401 8.47224 21.6323 9.17755 21.7179C9.89778 21.7914 10.4365 21.3681 10.5273 20.5055L11.05 15.5407C9.66341 14.7337 8.12517 14.4206 6.65068 14.4206C5.16127 14.4206 3.61327 14.7337 2.21636 15.5407L2.75917 20.5055C2.84991 21.3681 3.39612 21.7914 4.12381 21.7179ZM10.3819 6.98455L12.3493 4.78225C12.776 4.30901 12.7541 3.79671 12.3297 3.45327C11.9375 3.12245 11.4619 3.10523 11.0231 3.598L8.75654 6.14604C9.35728 6.35166 9.9138 6.6285 10.3819 6.98455ZM0.511136 14.5271C-0.0917862 14.9451-0.101552 15.5343 0.17407 15.895C0.416997 16.2453 0.910313 16.3821 1.40308 16.0381C1.65754 15.8468 1.92976 15.6826 2.21636 15.5407L2.0205 13.6328C1.48406 13.8804 0.988984 14.1646 0.511136 14.5271ZM12.773 14.5271C12.29 14.1646 11.7875 13.8804 11.2585 13.6328L11.0626 15.5407C11.3492 15.6826 11.6364 15.8468 11.8811 16.0381C12.3738 16.3821 12.8574 16.2476 13.1078 15.8996C13.3805 15.5366 13.3731 14.9474 12.773 14.5271Z"
                     fill="currentColor" fill-opacity="0.85" />
       </g>
</svg>