<?xml version="1.0" encoding="UTF-8"?>
<!--Generator: Apple Native CoreSVG 326-->
<!DOCTYPE svg PUBLIC "-//W3C//DTD SVG 1.1//EN" "http://www.w3.org/Graphics/SVG/1.1/DTD/svg11.dtd">
<svg version="1.1" xmlns="http://www.w3.org/2000/svg" xmlns:xlink="http://www.w3.org/1999/xlink"
       viewBox="0 0 21.5612 19.6111">
       <g>
              <rect height="19.6111" opacity="0" width="21.5612" x="0" y="0" />
              <path d="M3.12112 19.6111L18.0862 19.6111C19.9329 19.6111 21.1999 18.1529 21.1999 16.4872C21.1999 15.9685 21.0706 15.4303 20.7892 14.9335L13.2931 1.83479C12.6883 0.781979 11.6625 0.265614 10.6074 0.265614C9.54484 0.265614 8.49433 0.7969 7.90676 1.83479L0.410702 14.9409C0.132109 15.4326 0 15.9685 0 16.4872C0 18.1529 1.26698 19.6111 3.12112 19.6111ZM3.79489 16.7798C3.40226 16.7798 3.15624 16.4688 3.15624 16.1118C3.15624 16.0158 3.17292 15.871 3.22812 15.7554L10.0504 3.72592C10.1585 3.52127 10.3953 3.43963 10.6074 3.43963C10.8121 3.43963 11.0316 3.52873 11.1472 3.73338L17.9769 15.7801C18.0321 15.8882 18.0511 16.0233 18.0511 16.1118C18.0511 16.4688 17.8005 16.7798 17.4102 16.7798Z"
                     fill="currentColor" fill-opacity="0.85" />
              <path d="M8.45182 15.6196L9.80311 14.0425C9.93467 13.8742 9.95651 13.8253 10.0053 13.6794L10.0479 13.5344L9.26261 12.5492L9.06323 13.4226L7.76131 14.9877C7.28564 15.5415 8.05658 16.1004 8.45182 15.6196ZM11.6193 15.4978C11.9244 16.1027 12.8441 15.727 12.5224 15.056L11.6094 13.2135C11.5485 13.0722 11.4514 12.936 11.3584 12.797L10.8039 12.0041L10.8258 11.9121C10.9712 11.437 11.0349 11.1595 11.074 10.7045L11.159 9.41407C11.2101 8.75109 10.808 8.27598 10.16 8.27598C9.67507 8.27598 9.35104 8.53449 8.90807 8.96309L8.22381 9.63012C7.99744 9.84903 7.91932 10.0317 7.89748 10.3414L7.80959 11.3928C7.7826 11.6932 7.96584 11.9081 8.23182 11.9104C8.52479 11.9471 8.69826 11.7662 8.7201 11.4565L8.8149 10.3201L9.09131 10.085C9.1735 10.0103 9.29421 10.0511 9.2896 10.158L9.22639 11.0595C9.18503 11.5462 9.2919 11.807 9.66015 12.2557L10.5559 13.3778C10.6409 13.4846 10.653 13.526 10.692 13.6041ZM13.2171 10.0289L12.2173 10.0289L11.6571 9.41285L11.5692 10.6135L11.6877 10.7245C11.8462 10.8659 11.9853 10.9319 12.2582 10.9319L13.2171 10.9319C13.5123 10.9319 13.7226 10.751 13.7226 10.4804C13.7226 10.2047 13.5123 10.0289 13.2171 10.0289ZM10.7235 7.90191C11.2595 7.90191 11.703 7.45839 11.703 6.91722C11.703 6.3789 11.2595 5.93769 10.7235 5.93769C10.1777 5.93769 9.73421 6.3789 9.73421 6.91722C9.73421 7.45839 10.1777 7.90191 10.7235 7.90191Z"
                     fill="currentColor" fill-opacity="0.85" />
       </g>
</svg>