<?xml version="1.0" encoding="UTF-8"?>
<!--Generator: Apple Native CoreSVG 326-->
<!DOCTYPE svg PUBLIC "-//W3C//DTD SVG 1.1//EN" "http://www.w3.org/Graphics/SVG/1.1/DTD/svg11.dtd">
<svg version="1.1" xmlns="http://www.w3.org/2000/svg" xmlns:xlink="http://www.w3.org/1999/xlink"
       viewBox="0 0 21.365 21.006">
       <g>
              <rect height="21.006" opacity="0" width="21.365" x="0" y="0" />
              <path d="M10.4981 20.9962C16.302 20.9962 21.0037 16.2946 21.0037 10.4981C21.0037 4.70163 16.302 0 10.4981 0C4.70163 0 0 4.70163 0 10.4981C0 16.2946 4.70163 20.9962 10.4981 20.9962ZM10.4981 17.9484C6.37829 17.9484 3.04785 14.6179 3.04785 10.4981C3.04785 6.37829 6.37829 3.04785 10.4981 3.04785C14.6179 3.04785 17.9558 6.37829 17.9558 10.4981C17.9558 14.6179 14.6179 17.9484 10.4981 17.9484Z"
                     fill="currentColor" fill-opacity="0.85" />
              <path d="M10.4958 8.18748C11.1105 8.18748 11.6155 7.68021 11.6155 7.06322C11.6155 6.44337 11.1105 5.94357 10.4958 5.94357C9.87135 5.94357 9.37385 6.44337 9.37385 7.06322C9.37385 7.68021 9.87135 8.18748 10.4958 8.18748ZM6.00598 12.7651L8.4224 12.9696C8.73678 13.0012 9.03818 13.0529 9.34795 13.1425L12.2981 13.9756L14.5698 14.8132C14.8311 14.9086 15.1999 14.8132 15.305 14.4686C15.3929 14.1756 15.2637 13.8534 14.9679 13.7408L12.6887 12.9203C12.6473 12.9031 12.5646 12.8618 12.533 12.852L10.5514 12.139C10.8243 11.6053 11.1673 10.7946 11.2598 9.91096C11.2696 9.83854 11.2955 9.81494 11.3605 9.81494L14.8954 9.81494C15.2079 9.81494 15.4572 9.56334 15.4572 9.25314C15.4572 8.93549 15.2079 8.67643 14.8954 8.67643L11.0221 8.67643C10.3665 8.67643 10.3206 8.68158 9.61908 8.48912L5.9554 7.46822C5.64981 7.38263 5.33962 7.56357 5.25173 7.8663C5.16383 8.16443 5.34708 8.47462 5.64981 8.56251L9.07275 9.50529C9.14057 9.52713 9.1567 9.55818 9.14693 9.62315C9.04982 10.4407 8.65568 11.2365 8.43162 11.634L6.61661 11.634L6.61661 9.74033C6.61661 9.42498 6.34778 9.17108 6.05481 9.17108C5.73485 9.17108 5.47579 9.42498 5.47579 9.74033L5.47579 12.1958C5.47579 12.5158 5.63719 12.7306 6.00598 12.7651Z"
                     fill="currentColor" fill-opacity="0.85" />
       </g>
</svg>