<?xml version="1.0" encoding="UTF-8"?>
<!--Generator: Apple Native CoreSVG 326-->
<!DOCTYPE svg PUBLIC "-//W3C//DTD SVG 1.1//EN" "http://www.w3.org/Graphics/SVG/1.1/DTD/svg11.dtd">
<svg version="1.1" xmlns="http://www.w3.org/2000/svg" xmlns:xlink="http://www.w3.org/1999/xlink"
       viewBox="0 0 23.8214 19.0529">
       <g>
              <rect height="19.0529" opacity="0" width="23.8214" x="0" y="0" />
              <path d="M23.4601 3.65404L23.4601 15.416C23.4601 17.7336 22.1386 19.0529 19.8117 19.0529L3.64834 19.0529C1.32382 19.0529 0 17.7336 0 15.416L0 3.65404C0 1.32897 1.32382 0.0149214 3.64834 0.0149214L19.8117 0.0149214C22.1386 0.0149214 23.4601 1.32897 23.4601 3.65404ZM4.05583 3.03457C3.37024 3.03457 3.01964 3.34555 3.01964 4.07767L3.01964 14.985C3.01964 15.7171 3.37024 16.0332 4.05583 16.0332L19.4042 16.0332C20.0875 16.0332 20.4404 15.7171 20.4404 14.985L20.4404 4.07767C20.4404 3.34555 20.0875 3.03457 19.4042 3.03457ZM14.0491 13.5427C14.0491 13.9195 13.7579 14.2033 13.369 14.2033L6.3607 14.2033C5.95691 14.2033 5.67316 13.9195 5.67316 13.5427C5.67316 13.1562 5.95691 12.8529 6.3607 12.8529L13.369 12.8529C13.7579 12.8529 14.0491 13.1562 14.0491 13.5427ZM14.0491 5.51758C14.0491 5.90414 13.7579 6.20512 13.369 6.20512L6.3607 6.20512C5.95691 6.20512 5.67316 5.90414 5.67316 5.51758C5.67316 5.14825 5.95691 4.85473 6.3607 4.85473L13.369 4.85473C13.7579 4.85473 14.0491 5.14825 14.0491 5.51758Z"
                     fill="currentColor" fill-opacity="0.85" />
              <path d="M19.3718 8.67467L19.3718 10.3759C19.3718 11.2662 18.856 11.7964 17.9783 11.7964L5.49156 11.7964C4.62133 11.7964 4.09805 11.2662 4.09805 10.3759L4.09805 8.67467C4.09805 7.78436 4.62133 7.25416 5.49156 7.25416L17.9783 7.25416C18.856 7.25416 19.3718 7.78436 19.3718 8.67467ZM6.36301 8.86616C5.96668 8.86616 5.67316 9.15221 5.67316 9.52901C5.67316 9.91557 5.96668 10.2165 6.36301 10.2165L10.5858 10.2165C10.9746 10.2165 11.2584 9.91557 11.2584 9.52901C11.2584 9.15221 10.9746 8.86616 10.5858 8.86616Z"
                     fill="currentColor" fill-opacity="0.85" />
       </g>
</svg>