<?xml version="1.0" encoding="UTF-8"?>
<!--Generator: Apple Native CoreSVG 326-->
<!DOCTYPE svg PUBLIC "-//W3C//DTD SVG 1.1//EN" "http://www.w3.org/Graphics/SVG/1.1/DTD/svg11.dtd">
<svg version="1.1" xmlns="http://www.w3.org/2000/svg" xmlns:xlink="http://www.w3.org/1999/xlink"
       viewBox="0 0 21.365 21.006">
       <g>
              <rect height="21.006" opacity="0" width="21.365" x="0" y="0" />
              <path d="M21.0037 10.4981C21.0037 16.2923 16.302 20.9962 10.4981 20.9962C4.70394 20.9962 0 16.2923 0 10.4981C0 4.70163 4.70394 0 10.4981 0C16.302 0 21.0037 4.70163 21.0037 10.4981ZM5.98791 6.13221C5.3526 6.13221 4.93959 6.53314 4.93959 7.15123L4.93959 13.8519C4.93959 14.4677 5.3526 14.8709 5.98791 14.8709L15.0227 14.8709C15.6557 14.8709 16.071 14.4677 16.071 13.8519L16.071 7.15123C16.071 6.53314 15.6557 6.13221 15.0227 6.13221ZM7.01111 13.1142L7.01111 13.7083C7.01111 13.8766 6.89623 13.9961 6.73537 13.9961L6.06549 13.9961C5.86787 13.9961 5.76045 13.8766 5.76045 13.7037L5.76045 13.1142C5.76045 12.9384 5.86787 12.8212 6.06318 12.8212L6.73537 12.8212C6.89623 12.8212 7.01111 12.9384 7.01111 13.1142ZM15.2427 13.1142L15.2427 13.7037C15.2427 13.8766 15.1427 13.9961 14.96 13.9961L14.2878 13.9961C14.1144 13.9961 13.9995 13.8766 13.9995 13.7083L13.9995 13.1142C13.9995 12.9384 14.1144 12.8212 14.2878 12.8212L14.9623 12.8212C15.1427 12.8212 15.2427 12.9384 15.2427 13.1142ZM13.1767 11.211L13.1767 13.7203C13.1767 13.8766 13.0768 13.9961 12.9108 13.9961L8.11706 13.9961C7.9292 13.9961 7.83155 13.8766 7.83155 13.7203L7.83155 11.211C7.83155 11.0473 7.9292 10.9157 8.11706 10.9157L12.9108 10.9157C13.0768 10.9157 13.1767 11.0473 13.1767 11.211ZM7.01111 11.1524L7.01111 11.7292C7.01111 11.8907 6.89623 12.0124 6.73537 12.0124L6.06318 12.0124C5.86787 12.0124 5.76045 11.8907 5.76045 11.7292L5.76045 11.1524C5.76045 10.9646 5.86787 10.8571 6.06318 10.8571L6.73537 10.8571C6.89623 10.8571 7.01111 10.9646 7.01111 11.1524ZM15.2427 11.1524L15.2427 11.7292C15.2427 11.8907 15.1427 12.0124 14.9623 12.0124L14.2878 12.0124C14.1144 12.0124 13.9995 11.8907 13.9995 11.7292L13.9995 11.1524C13.9995 10.9646 14.1144 10.8571 14.2878 10.8571L14.9623 10.8571C15.1427 10.8571 15.2427 10.9646 15.2427 11.1524ZM7.01111 9.20037L7.01111 9.8019C7.01111 9.9633 6.89623 10.0702 6.73537 10.0702L6.06318 10.0702C5.86787 10.0702 5.76045 9.9633 5.76045 9.8019L5.76045 9.20037C5.76045 9.01483 5.86787 8.92002 6.06318 8.92002L6.73537 8.92002C6.89623 8.92002 7.01111 9.01483 7.01111 9.20037ZM15.2427 9.20037L15.2427 9.8019C15.2427 9.9633 15.1427 10.0702 14.9623 10.0702L14.2878 10.0702C14.1144 10.0702 13.9995 9.9633 13.9995 9.8019L13.9995 9.20037C13.9995 9.01483 14.1144 8.92002 14.2878 8.92002L14.9623 8.92002C15.1427 8.92002 15.2427 9.01483 15.2427 9.20037ZM13.1767 7.29256L13.1767 9.79959C13.1767 9.95354 13.0768 10.0679 12.9108 10.0679L8.11706 10.0679C7.9292 10.0679 7.83155 9.95354 7.83155 9.79959L7.83155 7.29256C7.83155 7.12424 7.9292 6.98982 8.11706 6.98982L12.9108 6.98982C13.0768 6.98982 13.1767 7.12424 13.1767 7.29256ZM7.01111 7.29256L7.01111 7.88432C7.01111 8.0308 6.89623 8.16006 6.73537 8.16006L6.06318 8.16006C5.86787 8.16006 5.76045 8.0308 5.76045 7.88432L5.76045 7.29256C5.76045 7.12424 5.86787 6.98982 6.06318 6.98982L6.73537 6.98982C6.89623 6.98982 7.01111 7.12424 7.01111 7.29256ZM15.2427 7.29256L15.2427 7.88432C15.2427 8.0308 15.1427 8.16006 14.9623 8.16006L14.2878 8.16006C14.1144 8.16006 13.9995 8.0308 13.9995 7.88432L13.9995 7.29256C13.9995 7.12424 14.1144 6.98982 14.2878 6.98982L14.9623 6.98982C15.1427 6.98982 15.2427 7.12424 15.2427 7.29256Z"
                     fill="currentColor" fill-opacity="0.85" />
       </g>
</svg>