<?xml version="1.0" encoding="UTF-8"?>
<!--Generator: Apple Native CoreSVG 326-->
<!DOCTYPE svg PUBLIC "-//W3C//DTD SVG 1.1//EN" "http://www.w3.org/Graphics/SVG/1.1/DTD/svg11.dtd">
<svg version="1.1" xmlns="http://www.w3.org/2000/svg" xmlns:xlink="http://www.w3.org/1999/xlink"
       viewBox="0 0 21.365 21.006">
       <g>
              <rect height="21.006" opacity="0" width="21.365" x="0" y="0" />
              <path d="M10.4981 20.9962C16.302 20.9962 21.0037 16.2946 21.0037 10.4981C21.0037 4.70163 16.302 0 10.4981 0C4.70163 0 0 4.70163 0 10.4981C0 16.2946 4.70163 20.9962 10.4981 20.9962ZM10.4981 17.9484C6.37829 17.9484 3.04785 14.6179 3.04785 10.4981C3.04785 6.37829 6.37829 3.04785 10.4981 3.04785C14.6179 3.04785 17.9558 6.37829 17.9558 10.4981C17.9558 14.6179 14.6179 17.9484 10.4981 17.9484Z"
                     fill="currentColor" fill-opacity="0.85" />
              <path d="M6.26407 14.5999L14.7419 14.5999C15.333 14.5999 15.7288 14.2214 15.7288 13.6475L15.7288 7.35564C15.7288 6.77947 15.333 6.39576 14.7419 6.39576L6.26407 6.39576C5.67068 6.39576 5.2772 6.77947 5.2772 7.35564L5.2772 13.6475C5.2772 14.2214 5.67068 14.5999 6.26407 14.5999ZM6.33419 13.7842C6.1538 13.7842 6.05384 13.6647 6.05384 13.509L6.05384 12.954C6.05384 12.7857 6.1538 12.6708 6.33189 12.6708L6.96963 12.6708C7.12072 12.6708 7.22068 12.7857 7.22068 12.954L7.22068 13.5136C7.22068 13.6647 7.12072 13.7842 6.96963 13.7842ZM6.33189 11.9189C6.1538 11.9189 6.05384 11.8068 6.05384 11.6529L6.05384 11.1105C6.05384 10.9399 6.1538 10.8399 6.33189 10.8399L6.96963 10.8399C7.12072 10.8399 7.22068 10.9399 7.22068 11.1105L7.22068 11.6529C7.22068 11.8068 7.12072 11.9189 6.96963 11.9189ZM6.33189 10.1023C6.1538 10.1023 6.05384 9.9903 6.05384 9.84381L6.05384 9.2842C6.05384 9.10842 6.1538 9.01361 6.33189 9.01361L6.96963 9.01361C7.12072 9.01361 7.22068 9.10842 7.22068 9.2842L7.22068 9.84381C7.22068 9.9903 7.12072 10.1023 6.96963 10.1023ZM6.33189 8.30303C6.1538 8.30303 6.05384 8.18353 6.05384 8.04451L6.05384 7.4872C6.05384 7.33611 6.1538 7.20916 6.33189 7.20916L6.96963 7.20916C7.12072 7.20916 7.22068 7.33611 7.22068 7.4872L7.22068 8.04451C7.22068 8.18353 7.12072 8.30303 6.96963 8.30303ZM14.0415 13.7842C13.8853 13.7842 13.7778 13.6647 13.7778 13.5136L13.7778 12.954C13.7778 12.7857 13.8853 12.6708 14.0415 12.6708L14.6816 12.6708C14.8522 12.6708 14.9521 12.7857 14.9521 12.954L14.9521 13.509C14.9521 13.6647 14.8522 13.7842 14.6793 13.7842ZM14.0415 11.9189C13.8853 11.9189 13.7778 11.8068 13.7778 11.6529L13.7778 11.1105C13.7778 10.9399 13.8853 10.8399 14.0415 10.8399L14.6816 10.8399C14.8522 10.8399 14.9521 10.9399 14.9521 11.1105L14.9521 11.6529C14.9521 11.8068 14.8522 11.9189 14.6816 11.9189ZM14.0415 10.1023C13.8853 10.1023 13.7778 9.9903 13.7778 9.84381L13.7778 9.2842C13.7778 9.10842 13.8853 9.01361 14.0415 9.01361L14.6816 9.01361C14.8522 9.01361 14.9521 9.10842 14.9521 9.2842L14.9521 9.84381C14.9521 9.9903 14.8522 10.1023 14.6816 10.1023ZM14.0415 8.30303C13.8853 8.30303 13.7778 8.18353 13.7778 8.04451L13.7778 7.4872C13.7778 7.33611 13.8853 7.20916 14.0415 7.20916L14.6816 7.20916C14.8522 7.20916 14.9521 7.33611 14.9521 7.4872L14.9521 8.04451C14.9521 8.18353 14.8522 8.30303 14.6816 8.30303ZM8.26518 10.1C8.08709 10.1 7.98944 9.98053 7.98944 9.84151L7.98944 7.4872C7.98944 7.33611 8.08709 7.20916 8.26518 7.20916L12.758 7.20916C12.9068 7.20916 13.0142 7.33611 13.0142 7.4872L13.0142 9.84151C13.0142 9.98053 12.9068 10.1 12.758 10.1ZM8.26518 13.7842C8.08709 13.7842 7.98944 13.6647 7.98944 13.5257L7.98944 11.1691C7.98944 11.0203 8.08709 10.891 8.26518 10.891L12.758 10.891C12.9068 10.891 13.0142 11.0203 13.0142 11.1691L13.0142 13.5257C13.0142 13.6647 12.9068 13.7842 12.758 13.7842Z"
                     fill="currentColor" fill-opacity="0.85" />
       </g>
</svg>