<?xml version="1.0" encoding="UTF-8"?>
<!--Generator: Apple Native CoreSVG 326-->
<!DOCTYPE svg PUBLIC "-//W3C//DTD SVG 1.1//EN" "http://www.w3.org/Graphics/SVG/1.1/DTD/svg11.dtd">
<svg version="1.1" xmlns="http://www.w3.org/2000/svg" xmlns:xlink="http://www.w3.org/1999/xlink"
       viewBox="0 0 26.417 23.066">
       <g>
              <rect height="23.066" opacity="0" width="26.417" x="0" y="0" />
              <path d="M1.50573 7.25975L24.5499 7.25975C25.389 7.25975 25.9805 6.66823 25.9805 5.82687L25.9805 1.42081C25.9805 0.576597 25.389 0 24.5499 0L1.50573 0C0.659211 0 0.0751531 0.576597 0.0751531 1.42081L0.0751531 5.82687C0.0751531 6.66823 0.659211 7.25975 1.50573 7.25975ZM3.07266 4.50123C2.93363 4.50123 2.83367 4.40127 2.83367 4.25994L2.83367 3.00727C2.83367 2.85848 2.93363 2.75852 3.07266 2.75852L22.983 2.75852C23.122 2.75852 23.222 2.85848 23.222 3.00727L23.222 4.25994C23.222 4.40127 23.122 4.50123 22.983 4.50123ZM2.66444 21.5369L5.42296 21.5369L5.42296 5.89195L2.66444 5.89195ZM20.6402 21.5369L23.3987 21.5369L23.3987 5.89195L20.6402 5.89195ZM6.96374 21.5369L8.78361 21.5369L8.78361 10.8331C8.78361 10.5728 8.95423 10.4022 9.21966 10.4022L16.8435 10.4022C17.1014 10.4022 17.2721 10.5728 17.2721 10.8331L17.2721 21.5369L19.0919 21.5369L19.0919 9.9667C19.0919 9.12456 18.5497 8.59206 17.7173 8.59206L8.34585 8.59206C7.50601 8.59206 6.96374 9.12456 6.96374 9.9667ZM1.5147 23.0516L24.5484 23.0516C25.381 23.0516 26.0557 22.3695 26.0557 21.5369C26.0557 20.7043 25.381 20.032 24.5484 20.032L1.5147 20.032C0.682139 20.032 0 20.7043 0 21.5369C0 22.3695 0.682139 23.0516 1.5147 23.0516ZM12.9238 19.1979C14.7633 19.1979 15.961 17.9634 15.961 16.1291C15.961 13.058 13.3535 11.7872 11.5732 11.7872C11.07 11.7872 10.85 12.0704 11.1113 12.4272C11.5083 12.9264 11.9087 13.4768 11.9093 14.3236C11.7094 13.953 11.3658 13.6945 11.0533 13.6945C10.9068 13.6945 10.8138 13.7824 10.8138 13.934C10.8138 14.0145 10.8138 14.1776 10.8138 14.3069C10.8138 15.1456 10.2479 15.6069 10.2479 16.8438C10.2479 18.261 11.3262 19.1979 12.9238 19.1979ZM13.0289 18.2369C12.3872 18.2369 11.9455 17.8588 11.9455 17.2585C11.9455 16.6559 12.3872 16.4313 12.4504 15.997C12.6435 16.124 12.748 16.2871 12.8434 16.5387C13.0335 16.2681 13.1754 15.7925 13.0508 15.1307C13.577 15.3083 14.2537 16.0281 14.2537 16.9437C14.2537 17.6342 13.8585 18.2369 13.0289 18.2369Z"
                     fill="currentColor" fill-opacity="0.85" />
       </g>
</svg>