<?xml version="1.0" encoding="UTF-8"?>
<!--Generator: Apple Native CoreSVG 326-->
<!DOCTYPE svg PUBLIC "-//W3C//DTD SVG 1.1//EN" "http://www.w3.org/Graphics/SVG/1.1/DTD/svg11.dtd">
<svg version="1.1" xmlns="http://www.w3.org/2000/svg" xmlns:xlink="http://www.w3.org/1999/xlink"
       viewBox="0 0 27.0021 25.2524">
       <g>
              <rect height="25.2524" opacity="0" width="27.0021" x="0" y="0" />
              <path d="M22.3384 9.89028C22.5985 9.89028 22.7926 9.7111 22.8294 9.43317C23.1494 7.01427 23.212 6.95701 25.6704 6.59447C25.9707 6.55025 26.1499 6.36592 26.1499 6.10115C26.1499 5.841 25.9684 5.65666 25.7151 5.60268C23.1873 5.10124 23.142 5.1662 22.8294 2.76398C22.7926 2.49351 22.5985 2.31433 22.3384 2.31433C22.0661 2.31433 21.8743 2.49121 21.845 2.75652C21.5077 5.23049 21.4245 5.25737 18.9713 5.60268C18.7233 5.64174 18.5366 5.841 18.5366 6.10115C18.5366 6.35845 18.706 6.54279 18.9639 6.59447C21.4543 7.08669 21.5077 7.03896 21.845 9.45555C21.8743 9.7134 22.0736 9.89028 22.3384 9.89028ZM11.5991 25.2524C11.8001 25.2524 11.9425 25.0927 11.9718 24.894C12.2184 23.0352 12.2781 23.0352 14.1622 22.7037C14.3982 22.6595 14.528 22.5245 14.528 22.3137C14.528 22.1127 14.3982 21.9754 14.1995 21.941C12.2557 21.5401 12.2706 21.555 11.9718 19.7506C11.9351 19.537 11.8001 19.3848 11.5991 19.3848C11.3883 19.3848 11.2384 19.537 11.2091 19.7432C10.9649 21.6296 10.9276 21.6221 9.00615 21.941C8.79768 21.9754 8.65295 22.1127 8.65295 22.3137C8.65295 22.5245 8.79022 22.6595 8.99869 22.7037C10.9276 23.0799 10.8903 23.0897 11.2091 24.909C11.2459 25.0927 11.3883 25.2524 11.5991 25.2524ZM5.93902 22.1532C6.11304 22.1532 6.23593 22.0377 6.248 21.866C6.45374 20.3541 6.49105 20.3541 8.0305 20.0761C8.21714 20.0393 8.33487 19.9411 8.33487 19.7648C8.33487 19.5982 8.21714 19.4879 8.04542 19.461C6.47613 19.1381 6.48359 19.1456 6.248 17.671C6.22101 17.4993 6.11304 17.3764 5.93902 17.3764C5.77015 17.3764 5.65472 17.4993 5.62773 17.671C5.42198 19.2053 5.39214 19.1978 3.83777 19.461C3.65859 19.473 3.55578 19.5982 3.55578 19.7648C3.55578 19.9411 3.65859 20.0393 3.83031 20.0761C5.39214 20.3914 5.3623 20.3989 5.62773 21.8735C5.65472 22.0377 5.77015 22.1532 5.93902 22.1532Z"
                     fill="currentColor" fill-opacity="0.85" />
              <path d="M21.029 21.2559C21.4087 21.2559 21.6999 20.9596 21.6999 20.5874L21.6999 19.6207L22.1403 20.0513C22.4096 20.3206 22.826 20.3229 23.0782 20.0513C23.3596 19.7916 23.3596 19.3827 23.0782 19.1036L22.6573 18.673L23.6218 18.673C23.994 18.673 24.2926 18.3743 24.2926 17.9947C24.2926 17.6225 23.994 17.3261 23.6218 17.3261L22.6401 17.3261L23.0879 16.8857C23.3499 16.6238 23.3573 16.2074 23.0879 15.9455C22.826 15.6761 22.4022 15.6813 22.1403 15.9455L21.6999 16.3836L21.6999 15.4117C21.6999 15.032 21.4087 14.7408 21.029 14.7408C20.6568 14.7408 20.3605 15.032 20.3605 15.4117L20.3605 16.391L19.9224 15.9455C19.6605 15.6836 19.2418 15.6761 18.9799 15.9455C18.7082 16.2074 18.7157 16.6238 18.9776 16.8857L19.4254 17.3261L18.4438 17.3261C18.0664 17.3261 17.7775 17.6225 17.7775 17.9947C17.7775 18.3743 18.0664 18.673 18.4438 18.673L19.403 18.673L18.9799 19.1036C18.7082 19.3827 18.7082 19.7916 18.9799 20.0513C19.2418 20.3229 19.6507 20.3229 19.9224 20.0513L20.3605 19.6132L20.3605 20.5874C20.3605 20.9596 20.6568 21.2559 21.029 21.2559ZM21.0313 14.1629C21.5236 14.1629 21.913 13.7563 21.913 13.2692C21.913 12.777 21.5236 12.3927 21.0313 12.3927C20.5368 12.3927 20.1474 12.777 20.1474 13.2692C20.1474 13.7563 20.5368 14.1629 21.0313 14.1629ZM24.2138 15.6203C24.6618 15.6203 25.0415 15.2504 25.0415 14.8001C25.0415 14.3446 24.6618 13.9822 24.2138 13.9822C23.7584 13.9822 23.396 14.3446 23.396 14.8001C23.396 15.2504 23.7584 15.6203 24.2138 15.6203ZM25.7568 18.8786C26.249 18.8786 26.6407 18.4869 26.6407 17.9947C26.6407 17.5024 26.249 17.1205 25.7568 17.1205C25.2697 17.1205 24.8803 17.5024 24.8803 17.9947C24.8803 18.4869 25.2697 18.8786 25.7568 18.8786ZM24.2138 22.0169C24.6618 22.0169 25.0415 21.6522 25.0415 21.199C25.0415 20.7487 24.6618 20.3788 24.2138 20.3788C23.7584 20.3788 23.396 20.7487 23.396 21.199C23.396 21.6522 23.7584 22.0169 24.2138 22.0169ZM21.0313 23.6041C21.5236 23.6041 21.913 23.2147 21.913 22.7224C21.913 22.2428 21.5236 21.8362 21.0313 21.8362C20.5368 21.8362 20.1474 22.2428 20.1474 22.7224C20.1474 23.2147 20.5368 23.6041 21.0313 23.6041ZM17.8465 22.0146C18.302 22.0146 18.6644 21.6522 18.6644 21.199C18.6644 20.7487 18.302 20.3788 17.8465 20.3788C17.3985 20.3788 17.0263 20.7487 17.0263 21.199C17.0263 21.6522 17.3985 22.0146 17.8465 22.0146ZM16.3036 18.8786C16.7906 18.8786 17.1973 18.4869 17.1875 17.9947C17.1973 17.5024 16.7906 17.1205 16.3036 17.1205C15.8113 17.1205 15.4219 17.5024 15.4219 17.9947C15.4219 18.4869 15.8113 18.8786 16.3036 18.8786ZM17.8465 15.6203C18.302 15.6203 18.6644 15.2504 18.6644 14.8001C18.6644 14.3446 18.302 13.9822 17.8465 13.9822C17.3985 13.9822 17.0263 14.3446 17.0263 14.8001C17.0263 15.2504 17.3985 15.6203 17.8465 15.6203Z"
                     fill="currentColor" fill-opacity="0.85" />
              <path d="M8.08557 11.1382C8.48991 11.1382 8.87295 10.8045 8.85057 10.3755L8.8408 9.86365L9.21917 10.2271C9.52355 10.5212 9.98647 10.5286 10.2955 10.2271C10.5774 9.9428 10.5872 9.45003 10.2955 9.15082L9.92224 8.79198L10.4415 8.79198C10.8608 8.79198 11.199 8.44624 11.199 8.02698C11.199 7.60027 10.8608 7.26429 10.4415 7.26429L9.91478 7.26429L10.2857 6.89799C10.5872 6.59647 10.5774 6.12092 10.2857 5.8194C9.99163 5.53741 9.50863 5.51042 9.19964 5.8194L8.84311 6.18801L8.8408 5.67334C8.8408 5.24202 8.5146 4.91581 8.07581 4.91581C7.67378 4.91581 7.2982 5.24202 7.31312 5.6808L7.32288 6.18801L6.95428 5.8194C6.6453 5.53511 6.17952 5.52765 5.86823 5.8194C5.58624 6.11116 5.57648 6.60623 5.86823 6.89799L6.24145 7.26429L5.72217 7.26429C5.31038 7.26429 4.96464 7.60027 4.96464 8.02698C4.96464 8.44624 5.31038 8.79198 5.72217 8.79198L6.24891 8.79198L5.88546 9.15082C5.57648 9.4598 5.58624 9.93304 5.88546 10.2271C6.16975 10.5189 6.65276 10.5384 6.96174 10.2271L7.32058 9.86365L7.32288 10.3829C7.32288 10.8045 7.65655 11.1382 8.08557 11.1382ZM8.08788 3.97983C8.5812 3.97983 8.98377 3.57495 8.98377 3.08163L8.98377 0.905656C8.98377 0.41234 8.5812 0.00976562 8.08788 0.00976562C7.59456 0.00976562 7.18968 0.41234 7.18968 0.905656L7.18968 3.08163C7.18968 3.57495 7.59456 3.97983 8.08788 3.97983ZM10.1445 4.52385C10.5764 4.77654 11.1213 4.62436 11.3666 4.19995L12.4632 2.32671C12.7136 1.88737 12.5516 1.34007 12.1318 1.10461C11.7074 0.844454 11.1624 0.99664 10.9097 1.42851L9.82058 3.30406C9.56273 3.73362 9.73214 4.29069 10.1445 4.52385ZM11.6571 6.02897C11.9023 6.4683 12.4645 6.5935 12.8792 6.36033L14.7622 5.28096C15.1768 5.04034 15.3365 4.47581 15.0861 4.05371C14.8431 3.62183 14.2809 3.49433 13.8663 3.7298L11.981 4.80918C11.5686 5.04234 11.4067 5.61663 11.6571 6.02897ZM12.2034 8.08788C12.2034 8.59842 12.6157 8.98377 13.0993 8.98377L15.2678 9.001C15.7611 9.001 16.1683 8.5812 16.1832 8.10511C16.1683 7.59456 15.7611 7.20691 15.285 7.20691L13.0993 7.18968C12.6157 7.18968 12.2034 7.61179 12.2034 8.08788ZM11.6496 10.1445C11.4067 10.5936 11.5784 11.1311 11.981 11.3666L13.8565 12.4632C14.2884 12.7136 14.8431 12.5516 15.0861 12.149C15.3365 11.6999 15.167 11.1624 14.7622 10.9195L12.8792 9.82058C12.4743 9.58742 11.8902 9.72468 11.6496 10.1445ZM10.1445 11.6571C9.70746 11.927 9.58742 12.4668 9.82058 12.8792L10.9 14.7622C11.1354 15.1768 11.7097 15.3462 12.1318 15.1033C12.5688 14.8454 12.6866 14.2981 12.446 13.876L11.3666 11.981C11.1311 11.5784 10.574 11.4067 10.1445 11.6571ZM8.08788 12.2132C7.59456 12.2132 7.18968 12.6157 7.18968 13.109L7.18968 15.285C7.18968 15.7783 7.59456 16.1809 8.08788 16.1809C8.5812 16.1809 8.98377 15.7783 8.98377 15.285L8.98377 13.109C8.98377 12.6157 8.5812 12.2132 8.08788 12.2132ZM6.02897 11.6668C5.60456 11.4067 5.05956 11.5686 4.80918 11.9907L3.72004 13.8663C3.45988 14.3056 3.62929 14.8529 4.04394 15.0861C4.47581 15.3462 5.02081 15.194 5.26373 14.7622L6.36033 12.8889C6.61303 12.4571 6.45108 11.9 6.02897 11.6668ZM4.52385 10.1542C4.27346 9.72468 3.7164 9.59718 3.30406 9.83035L1.41875 10.9097C0.99664 11.1452 0.846758 11.7172 1.08738 12.1318C1.34007 12.5688 1.89484 12.6963 2.30948 12.4632L4.19995 11.3838C4.61459 11.1409 4.76678 10.5764 4.52385 10.1542ZM3.97983 8.10511C3.96491 7.59226 3.55772 7.20691 3.08163 7.20691L0.907961 7.18968C0.41234 7.18968 0.00746071 7.61179 0 8.08788C0.00746071 8.59842 0.41234 8.98377 0.898196 8.98377L3.08163 9.001C3.55772 9.001 3.97983 8.5812 3.97983 8.10511ZM4.53131 6.0462C4.76678 5.5971 4.59737 5.05956 4.19995 4.81894L2.32671 3.7298C1.88737 3.46965 1.34007 3.63906 1.08738 4.04394C0.846758 4.49304 1.01387 5.03057 1.41875 5.26373L3.30406 6.3701C3.70663 6.60326 4.29069 6.4683 4.53131 6.0462ZM6.02897 4.53362C6.4683 4.266 6.5958 3.72386 6.36033 3.31382L5.28096 1.42851C5.03288 0.998945 4.47351 0.851914 4.04394 1.08738C3.62699 1.34754 3.48687 1.88737 3.7298 2.31694L4.80918 4.20971C5.04234 4.61459 5.60917 4.77654 6.02897 4.53362Z"
                     fill="currentColor" fill-opacity="0.85" />
       </g>
</svg>