<?xml version="1.0" encoding="UTF-8"?>
<!--Generator: Apple Native CoreSVG 326-->
<!DOCTYPE svg PUBLIC "-//W3C//DTD SVG 1.1//EN" "http://www.w3.org/Graphics/SVG/1.1/DTD/svg11.dtd">
<svg version="1.1" xmlns="http://www.w3.org/2000/svg" xmlns:xlink="http://www.w3.org/1999/xlink"
       viewBox="0 0 30.8687 24.5334">
       <g>
              <rect height="24.5334" opacity="0" width="30.8687" x="0" y="0" />
              <path d="M0.0300818 18.8674C0.104143 19.5708 0.616323 19.9871 1.31229 19.9773C3.85002 19.9383 6.02412 18.79 7.90185 16.7507C9.74063 18.4828 11.8328 19.569 14.01 20.1417L13.6831 22.8325C13.543 23.9604 14.2269 24.716 15.5391 24.4949C18.2817 24.0865 21.3817 22.0308 23.0089 19.6719C26.9366 18.3721 30.5065 15.8718 30.5065 12.7736C30.5065 9.68581 26.9569 7.20164 23.0489 5.89032C21.6365 1.40189 15.7333-0.61893 11.5332 1.71087C10.8745 2.05255 10.7362 2.68531 11.272 3.39796C12.0659 4.45277 12.3589 5.07382 12.5347 5.88164C10.8791 6.51695 9.32587 7.46652 7.90185 8.79356C6.02412 6.75946 3.85002 5.61864 1.31229 5.57211C0.616323 5.56235 0.104143 5.97863 0.0300818 6.68952C-0.182457 8.88206 0.749887 11.2435 2.23711 12.7736C0.749887 14.306-0.182457 16.6622 0.0300818 18.8674ZM24.3293 13.5259C23.6533 13.5259 23.0801 12.9527 23.0801 12.2767C23.0801 11.6007 23.6533 11.0275 24.3293 11.0275C25.0076 11.0275 25.5808 11.6007 25.5808 12.2767C25.5808 12.9527 25.0076 13.5259 24.3293 13.5259Z"
                     fill="currentColor" fill-opacity="0.85" />
       </g>
</svg>