<?xml version="1.0" encoding="UTF-8"?>
<!--Generator: Apple Native CoreSVG 326-->
<!DOCTYPE svg PUBLIC "-//W3C//DTD SVG 1.1//EN" "http://www.w3.org/Graphics/SVG/1.1/DTD/svg11.dtd">
<svg version="1.1" xmlns="http://www.w3.org/2000/svg" xmlns:xlink="http://www.w3.org/1999/xlink"
       viewBox="0 0 21.365 21.006">
       <g>
              <rect height="21.006" opacity="0" width="21.365" x="0" y="0" />
              <path d="M21.0037 10.5079C21.0037 16.3043 16.302 21.006 10.4981 21.006C4.70394 21.006 0 16.3043 0 10.5079C0 4.7137 4.70394 0.00976562 10.4981 0.00976562C16.302 0.00976562 21.0037 4.7137 21.0037 10.5079ZM6.16163 15.1061C6.16163 15.5092 6.49815 15.836 6.89381 15.836C7.309 15.836 7.60415 15.519 7.60415 15.1061L7.60415 12.4656C7.81438 12.4024 8.12294 12.3374 8.47935 12.3374C9.30819 12.3374 9.99627 12.549 10.692 12.761L6.16163 8.23192ZM5.99688 6.02157C5.7465 6.27942 5.74134 6.7216 5.99688 6.97945L14.0438 15.0091C14.2918 15.2595 14.7363 15.2595 15.0016 15.0091C15.252 14.7415 15.2595 14.3188 15.0016 14.0512L6.97199 6.02157C6.70668 5.75396 6.2645 5.76142 5.99688 6.02157ZM7.62846 5.58265L14.7856 12.7398C15.0919 12.4977 15.2326 12.1664 15.2326 11.7167L15.2326 6.94463C15.2326 6.47776 14.942 6.18085 14.4125 6.18085C14.0748 6.18085 13.6577 6.38824 12.9171 6.38824C11.3648 6.38824 10.2521 5.5271 8.43799 5.5271C8.10511 5.5271 7.84819 5.54531 7.62846 5.58265Z"
                     fill="currentColor" fill-opacity="0.85" />
       </g>
</svg>