<?xml version="1.0" encoding="UTF-8"?>
<!--Generator: Apple Native CoreSVG 326-->
<!DOCTYPE svg PUBLIC "-//W3C//DTD SVG 1.1//EN" "http://www.w3.org/Graphics/SVG/1.1/DTD/svg11.dtd">
<svg version="1.1" xmlns="http://www.w3.org/2000/svg" xmlns:xlink="http://www.w3.org/1999/xlink"
       viewBox="0 0 19.3993 19.0529">
       <g>
              <rect height="19.0529" opacity="0" width="19.3993" x="0" y="0" />
              <path d="M19.0379 3.63912L19.0379 15.4011C19.0379 17.7262 17.7164 19.0379 15.3896 19.0379L3.64834 19.0379C1.32382 19.0379 0 17.7262 0 15.4011L0 3.63912C0 1.32151 1.32382 0 3.64834 0L15.3896 0C17.7164 0 19.0379 1.32151 19.0379 3.63912ZM6.03619 4.80214C5.52904 5.02499 5.27174 5.43679 5.27174 5.9933L5.27174 14.1198C5.27174 14.5206 5.61572 14.8496 6.00162 14.8496C6.41681 14.8496 6.72172 14.5303 6.72172 14.1198L6.72172 11.4793C6.92219 11.4086 7.23306 11.3511 7.59463 11.3511C9.2549 11.3511 10.343 12.2002 12.0663 12.2002C12.8005 12.2002 13.175 12.137 13.5908 11.9388C14.1152 11.6838 14.3478 11.3088 14.3478 10.7304L14.3478 5.956C14.3478 5.49144 14.0573 5.19452 13.5278 5.19452C13.1826 5.19452 12.7655 5.40191 12.0249 5.40191C10.4824 5.40191 9.36736 4.53331 7.55326 4.53331C6.81677 4.53331 6.44974 4.6212 6.03619 4.80214Z"
                     fill="currentColor" fill-opacity="0.85" />
       </g>
</svg>