<?xml version="1.0" encoding="UTF-8"?>
<!--Generator: Apple Native CoreSVG 326-->
<!DOCTYPE svg PUBLIC "-//W3C//DTD SVG 1.1//EN" "http://www.w3.org/Graphics/SVG/1.1/DTD/svg11.dtd">
<svg version="1.1" xmlns="http://www.w3.org/2000/svg" xmlns:xlink="http://www.w3.org/1999/xlink"
       viewBox="0 0 18.9484 19.9711">
       <g>
              <rect height="19.9711" opacity="0" width="18.9484" x="0" y="0" />
              <path d="M2.0335 19.9659C2.80923 19.9659 3.45461 19.3378 3.45461 18.5471L3.45461 13.4755C3.77336 13.398 4.33321 13.2702 5.03761 13.2702C8.39722 13.2702 11.118 15.0751 14.5778 15.0751C16.0192 15.0751 17.0482 14.8195 17.8426 14.4353C18.6134 14.0654 18.9484 13.3338 18.9484 12.3906L18.9484 3.1947C18.9484 2.21971 18.3201 1.53648 17.3732 1.53648C16.6037 1.53648 15.7948 1.80488 14.5404 1.80488C11.2596 1.80488 8.3621 0 5.00018 0C3.64834 0 2.69913 0.225701 1.77043 0.654722C1.01453 1.00968 0.627305 1.51003 0.627305 2.39124L0.627305 18.5471C0.627305 19.328 1.26753 19.9659 2.0335 19.9659ZM14.4361 12.1456C11.5049 12.1456 8.6407 10.3706 5.15698 10.3706C4.55279 10.3706 4.0164 10.423 3.61874 10.5431L3.61874 3.25329C3.90468 3.08024 4.38695 2.89961 5.11955 2.89961C8.15418 2.89961 11.0161 4.68211 14.3987 4.68211C14.9931 4.68211 15.5363 4.64468 15.9593 4.5412L15.9593 11.8218C15.7032 11.9949 15.1836 12.1456 14.4361 12.1456Z"
                     fill="currentColor" fill-opacity="0.85" />
       </g>
</svg>