<?xml version="1.0" encoding="UTF-8"?>
<!--Generator: Apple Native CoreSVG 326-->
<!DOCTYPE svg PUBLIC "-//W3C//DTD SVG 1.1//EN" "http://www.w3.org/Graphics/SVG/1.1/DTD/svg11.dtd">
<svg version="1.1" xmlns="http://www.w3.org/2000/svg" xmlns:xlink="http://www.w3.org/1999/xlink"
       viewBox="0 0 21.365 21.006">
       <g>
              <rect height="21.006" opacity="0" width="21.365" x="0" y="0" />
              <path d="M21.0037 10.5079C21.0037 16.3043 16.302 21.006 10.4981 21.006C4.70394 21.006 0 16.3043 0 10.5079C0 4.7137 4.70394 0.00976562 10.4981 0.00976562C16.302 0.00976562 21.0037 4.7137 21.0037 10.5079ZM6.91346 5.78331C6.41377 6.02108 6.15416 6.41565 6.15416 6.97963L6.15416 15.1061C6.15416 15.5092 6.49815 15.836 6.88634 15.836C7.30154 15.836 7.59669 15.519 7.59669 15.1061L7.59669 12.4656C7.81438 12.4024 8.11548 12.3449 8.47935 12.3449C10.1322 12.3449 11.2351 13.194 12.9585 13.194C13.7001 13.194 14.0499 13.1158 14.4905 12.9274C15.0074 12.7 15.2475 12.2951 15.2475 11.7167L15.2475 6.94463C15.2475 6.4703 14.9495 6.17339 14.4125 6.17339C14.0748 6.17339 13.6577 6.38824 12.9171 6.38824C11.3648 6.38824 10.2521 5.5271 8.43799 5.5271C7.69174 5.5271 7.34193 5.59261 6.91346 5.78331ZM10.6618 7.5054L10.6618 8.71088C11.1502 8.86658 11.7884 9.01022 12.2459 9.0665L12.2459 7.88341C12.487 7.9104 12.7253 7.93278 12.9711 7.93278C13.2695 7.93278 13.5373 7.90919 13.7546 7.8563L13.7546 9.04916C13.5581 9.09513 13.2735 9.12334 12.9711 9.12334C12.8275 9.12334 12.5817 9.12103 12.2459 9.0665L12.2459 10.3755C12.5966 10.4225 12.9222 10.4248 13.1054 10.4248C13.3963 10.4248 13.5746 10.3961 13.7546 10.3432L13.7546 11.5027C13.6243 11.6039 13.3633 11.6816 12.9947 11.6816C12.7323 11.6816 12.4968 11.642 12.2459 11.5954L12.2459 10.3755C11.6765 10.2847 11.1698 10.1503 10.6618 9.99515L10.6618 11.1933C10.1453 11.0473 9.62193 10.9112 9.06517 10.8377L9.06517 9.5953C8.88939 9.56831 8.64076 9.53616 8.32947 9.53616C7.96833 9.53616 7.70739 9.61671 7.56958 9.70297L7.56958 8.42385C7.70739 8.33245 7.96833 8.23982 8.32947 8.23982C8.45819 8.23982 8.80732 8.24959 9.06517 8.29611L9.06517 7.10841C9.6024 7.19169 10.1086 7.35485 10.6618 7.5054ZM9.06517 9.5953C9.64431 9.69351 10.0873 9.83714 10.6618 9.99515L10.6618 8.71088C10.1263 8.54025 9.64431 8.39947 9.06517 8.29611Z"
                     fill="currentColor" fill-opacity="0.85" />
       </g>
</svg>