<?xml version="1.0" encoding="UTF-8"?>
<!--Generator: Apple Native CoreSVG 326-->
<!DOCTYPE svg PUBLIC "-//W3C//DTD SVG 1.1//EN" "http://www.w3.org/Graphics/SVG/1.1/DTD/svg11.dtd">
<svg version="1.1" xmlns="http://www.w3.org/2000/svg" xmlns:xlink="http://www.w3.org/1999/xlink"
       viewBox="0 0 38.9349 23.5087">
       <g>
              <rect height="23.5087" opacity="0" width="38.9349" x="0" y="0" />
              <path d="M18.4795 18.2832L16.8032 21.1833C16.3915 21.9028 15.4895 22.1617 14.7775 21.7403C14.0753 21.3188 13.829 20.4122 14.2355 19.71L16.7704 15.322ZM26.2181 1.41077C26.9286 1.47913 27.8045 1.81171 28.7016 2.32632C30.9416 3.63042 32.0163 5.80815 34.0312 6.9739C34.9171 7.48754 35.7582 7.71215 36.2326 7.98613C37.0963 8.488 37.4426 9.409 36.9435 10.2818L33.0551 17.0363C32.6081 17.798 31.9108 18.0725 31.0809 17.9892C30.363 17.9283 29.4893 17.5883 28.5997 17.0714C26.3523 15.7673 25.2828 13.5918 23.2701 12.4238C22.8573 12.1909 22.4727 12.0363 22.1704 11.8978L21.8053 12.5294L20.0946 9.56766L24.2463 2.38097C24.6932 1.60433 25.383 1.34241 26.2181 1.41077ZM23.673 9.3014C24.0145 9.43987 24.4107 9.66812 24.7412 9.86125C27.3273 11.3433 28.1293 13.4068 30.1103 14.5037C30.2799 14.5979 30.5945 14.7768 30.8947 14.8308L33.6209 10.1135C33.2771 9.96528 32.8832 9.73934 32.5527 9.54621C29.9666 8.05668 29.1623 6.01038 27.1835 4.91124C27.0117 4.80206 26.7045 4.62834 26.3991 4.5692Z"
                     fill="currentColor" fill-opacity="0.85" />
              <path d="M24.3357 19.71L14.3273 2.38097C13.8729 1.60433 13.1905 1.34241 12.3531 1.41077C11.6426 1.47913 10.7667 1.81171 9.87188 2.32632C7.63192 3.63042 6.55497 5.80815 4.54003 6.9739C3.65409 7.48754 2.81304 7.71215 2.33858 7.98613C1.47496 8.488 1.12352 9.409 1.62769 10.2818L5.51617 17.0363C5.96309 17.798 6.65293 18.0725 7.49035 17.9892C8.20081 17.9283 9.08421 17.5883 9.97154 17.0714C12.2213 15.7673 13.2885 13.5918 15.3034 12.4238C15.7139 12.1909 16.1008 12.0363 16.4031 11.8978L21.768 21.1833C22.182 21.9028 23.084 22.1617 23.796 21.7403C24.4959 21.3188 24.7348 20.4122 24.3357 19.71ZM14.8982 9.3014C14.5493 9.43987 14.1606 9.66812 13.8301 9.86125C11.2365 11.3433 10.4345 13.4068 8.46321 14.5037C8.29137 14.5979 7.97675 14.7768 7.67881 14.8308L4.94522 10.1135C5.29648 9.96528 5.69032 9.73934 6.01337 9.54621C8.60696 8.05668 9.40896 6.01038 11.3877 4.91124C11.5595 4.80206 11.8667 4.62834 12.1669 4.5692Z"
                     fill="currentColor" fill-opacity="0.85" />
       </g>
</svg>