<?xml version="1.0" encoding="UTF-8"?>
<!--Generator: Apple Native CoreSVG 326-->
<!DOCTYPE svg PUBLIC "-//W3C//DTD SVG 1.1//EN" "http://www.w3.org/Graphics/SVG/1.1/DTD/svg11.dtd">
<svg version="1.1" xmlns="http://www.w3.org/2000/svg" xmlns:xlink="http://www.w3.org/1999/xlink"
       viewBox="0 0 21.365 21.006">
       <g>
              <rect height="21.006" opacity="0" width="21.365" x="0" y="0" />
              <path d="M10.4981 20.9962C16.302 20.9962 21.0037 16.2946 21.0037 10.4981C21.0037 4.70163 16.302 0 10.4981 0C4.70163 0 0 4.70163 0 10.4981C0 16.2946 4.70163 20.9962 10.4981 20.9962ZM10.4981 17.9484C6.37829 17.9484 3.04785 14.6179 3.04785 10.4981C3.04785 6.37829 6.37829 3.04785 10.4981 3.04785C14.6179 3.04785 17.9558 6.37829 17.9558 10.4981C17.9558 14.6179 14.6179 17.9484 10.4981 17.9484Z"
                     fill="currentColor" fill-opacity="0.85" />
              <path d="M7.1206 15.5058C7.50364 15.5058 7.78387 15.2037 7.78387 14.8253L7.78387 12.3399C7.97688 12.2767 8.26821 12.2266 8.61256 12.2266C10.1718 12.2266 11.1984 13.0189 12.8207 13.0189C13.5107 13.0189 13.8432 12.9556 14.2516 12.7724C14.7364 12.557 14.9518 12.1843 14.9518 11.6478L14.9518 7.16166C14.9518 6.72178 14.6785 6.44956 14.1811 6.44956C13.8606 6.44956 13.4757 6.63972 12.7793 6.63972C11.3206 6.63972 10.2768 5.83026 8.57119 5.83026C7.87662 5.83026 7.54404 5.90323 7.15517 6.08186C6.68017 6.29495 6.43779 6.67459 6.43779 7.19897L6.43779 14.8253C6.43779 15.194 6.75709 15.5058 7.1206 15.5058ZM7.75676 9.75519L7.75676 8.54213C7.88711 8.46795 8.12337 8.37763 8.47244 8.37763C8.59885 8.37763 8.9233 8.39486 9.15646 8.42931L9.15646 7.31512C9.66154 7.38864 10.1482 7.53688 10.6595 7.68512L10.6595 8.81424C11.1209 8.96248 11.7172 9.09404 12.1551 9.15264L12.1551 8.03099C12.3739 8.06313 12.595 8.07805 12.8258 8.07805C13.1047 8.07805 13.3651 8.06653 13.5703 8.01364L13.5703 9.13529C13.3835 9.18127 13.1087 9.20947 12.8258 9.20947C12.6897 9.20947 12.4611 9.20717 12.1551 9.15264L12.1551 10.3829C12.4835 10.43 12.7769 10.4323 12.9527 10.4323C13.2315 10.4323 13.4024 10.4035 13.5703 10.3507L13.5703 11.4487C13.4474 11.5327 13.2037 11.6081 12.8471 11.6081C12.6019 11.6081 12.3911 11.5834 12.1551 11.5391L12.1551 10.3829C11.6127 10.2996 11.1479 10.1727 10.6595 10.0273L10.6595 11.1542C10.1775 11.0157 9.68853 10.887 9.15646 10.8233L9.15646 9.6596C8.99044 9.62515 8.7665 9.59069 8.47244 9.59069C8.12337 9.59069 7.88711 9.68101 7.75676 9.75519ZM9.15646 9.6596C9.70345 9.75034 10.1269 9.87159 10.6595 10.0273L10.6595 8.81424C10.151 8.65107 9.70345 8.52005 9.15646 8.42931Z"
                     fill="currentColor" fill-opacity="0.85" />
       </g>
</svg>