<?xml version="1.0" encoding="UTF-8"?>
<!--Generator: Apple Native CoreSVG 326-->
<!DOCTYPE svg PUBLIC "-//W3C//DTD SVG 1.1//EN" "http://www.w3.org/Graphics/SVG/1.1/DTD/svg11.dtd">
<svg version="1.1" xmlns="http://www.w3.org/2000/svg" xmlns:xlink="http://www.w3.org/1999/xlink"
       viewBox="0 0 22.0078 26.1537">
       <g>
              <rect height="26.1537" opacity="0" width="22.0078" x="0" y="0" />
              <path d="M15.1976 18.1215C12.1558 17.858 9.62643 16.3615 6.56732 16.3615C5.86293 16.3615 5.30307 16.4893 4.98432 16.5669L4.98432 21.6384C4.98432 22.4291 4.33894 23.0572 3.56321 23.0572C2.79725 23.0572 2.15702 22.4193 2.15702 21.6384L2.15702 5.48258C2.15702 5.35455 2.16519 5.23455 2.18247 5.12276ZM16.0701 4.89622C17.3246 4.89622 18.1335 4.62782 18.9029 4.62782C19.8498 4.62782 20.4781 5.31105 20.4781 6.28603L20.4781 15.4819C20.4781 15.9636 20.3907 16.3901 20.2019 16.741L6.55111 3.09202C9.90411 3.09898 12.7963 4.89622 16.0701 4.89622Z"
                     fill="currentColor" fill-opacity="0.85" />
              <path d="M19.1449 20.0904C19.4924 20.4356 20.053 20.4132 20.3586 20.0904C20.7038 19.7429 20.6911 19.1995 20.3586 18.8767L3.12709 1.64524C2.7819 1.3075 2.22647 1.32242 1.8962 1.64524C1.57569 1.9732 1.59061 2.5384 1.8962 2.8589Z"
                     fill="currentColor" fill-opacity="0.85" />
       </g>
</svg>