<?xml version="1.0" encoding="UTF-8"?>
<!--Generator: Apple Native CoreSVG 326-->
<!DOCTYPE svg PUBLIC "-//W3C//DTD SVG 1.1//EN" "http://www.w3.org/Graphics/SVG/1.1/DTD/svg11.dtd">
<svg version="1.1" xmlns="http://www.w3.org/2000/svg" xmlns:xlink="http://www.w3.org/1999/xlink"
       viewBox="0 0 17.9738 24.0643">
       <g>
              <rect height="24.0643" opacity="0" width="17.9738" x="0" y="0" />
              <path d="M8.3174 22.2869C13.8915 22.2869 17.6125 18.5544 17.6125 12.9647C17.6125 3.84402 9.71595 0 4.3858 0C3.11718 0 2.24773 0.546087 2.24773 1.5292C2.24773 1.90763 2.41484 2.31076 2.68706 2.63466C4.03569 4.2825 4.9889 5.63446 4.99351 7.36431C4.99351 7.52772 4.98199 7.66468 4.89331 7.8609L5.22491 7.74833C4.45719 5.97705 3.60382 5.46875 2.77756 5.46875C2.13097 5.46875 1.6934 5.88855 1.6934 6.61151C1.6934 7.06686 1.76922 7.43128 1.76922 8.0624C1.76922 10.4513 0 11.2084 0 15.0546C0 19.3919 3.32523 22.2869 8.3174 22.2869ZM8.58678 18.4311C6.79045 18.4311 5.60189 17.3798 5.60189 15.7914C5.60189 14.1697 6.71815 13.7484 6.85947 12.3539C6.87154 12.1541 7.09427 12.0204 7.29693 12.2058C7.66408 12.5838 7.9272 13.0646 8.12658 13.7131C8.57701 12.7787 8.59733 11.6226 8.38655 10.3568C8.33202 10.0898 8.55475 9.9664 8.77693 10.0554C10.7888 10.9046 11.9692 12.8768 11.9692 14.9751C11.9692 16.9758 10.6946 18.4311 8.58678 18.4311Z"
                     fill="currentColor" fill-opacity="0.85" />
       </g>
</svg>