<?xml version="1.0" encoding="UTF-8"?>
<!--Generator: Apple Native CoreSVG 326-->
<!DOCTYPE svg PUBLIC "-//W3C//DTD SVG 1.1//EN" "http://www.w3.org/Graphics/SVG/1.1/DTD/svg11.dtd">
<svg version="1.1" xmlns="http://www.w3.org/2000/svg" xmlns:xlink="http://www.w3.org/1999/xlink"
       viewBox="0 0 21.365 21.006">
       <g>
              <rect height="21.006" opacity="0" width="21.365" x="0" y="0" />
              <path d="M21.0037 10.5079C21.0037 16.3043 16.302 21.006 10.4981 21.006C4.70394 21.006 0 16.3043 0 10.5079C0 4.7137 4.70394 0.00976562 10.4981 0.00976562C16.302 0.00976562 21.0037 4.7137 21.0037 10.5079ZM7.73049 6.17169L7.73049 6.50791C7.73049 7.01342 7.9212 7.40459 8.18717 7.80959L8.49221 8.29787C8.68698 8.5949 8.80878 8.9603 8.80878 9.53077L8.80878 15.7665C8.80878 16.5592 9.22233 16.975 10.0006 16.975L11.0082 16.975C11.7888 16.975 12.2047 16.5592 12.2047 15.7665L12.2047 9.53077C12.2047 8.9603 12.3167 8.5949 12.5189 8.29787L12.824 7.80959C13.0899 7.40459 13.2806 7.01342 13.2806 6.50791L13.2806 6.17169ZM11.5246 9.98866L11.5246 11.7957C11.5246 12.3575 11.0748 12.8073 10.513 12.8073C9.93631 12.8073 9.48655 12.3575 9.48655 11.7957L9.48655 9.98866C9.48655 9.41886 9.93631 8.96964 10.513 8.96964C11.0748 8.96964 11.5246 9.41886 11.5246 9.98866ZM9.84557 9.98866C9.84557 10.3626 10.1339 10.6435 10.513 10.6435C10.8795 10.6435 11.1656 10.3626 11.1656 9.98866C11.1656 9.62448 10.8841 9.3212 10.513 9.3212C10.1316 9.3212 9.84557 9.62448 9.84557 9.98866ZM8.91201 4.03327C8.14174 4.03327 7.73049 4.44682 7.73049 5.24924L7.73049 5.36248L13.2806 5.36248L13.2806 5.24924C13.2806 4.44682 12.8694 4.03327 12.0968 4.03327Z"
                     fill="currentColor" fill-opacity="0.85" />
       </g>
</svg>