<?xml version="1.0" encoding="UTF-8"?>
<!--Generator: Apple Native CoreSVG 326-->
<!DOCTYPE svg PUBLIC "-//W3C//DTD SVG 1.1//EN" "http://www.w3.org/Graphics/SVG/1.1/DTD/svg11.dtd">
<svg version="1.1" xmlns="http://www.w3.org/2000/svg" xmlns:xlink="http://www.w3.org/1999/xlink"
       viewBox="0 0 10.5606 23.797">
       <g>
              <rect height="23.797" opacity="0" width="10.5606" x="0" y="0" />
              <path d="M0 2.44984L10.1993 2.44984L10.1993 2.22972C10.1993 0.759293 9.44518 0 8.02358 0L2.18089 0C0.759293 0 0 0.759293 0 2.22972ZM4.17538 23.7798L6.02394 23.7798C7.44838 23.7798 8.20713 23.021 8.20713 21.5501L8.20713 10.1026C8.20713 9.05589 8.42889 8.39061 8.79713 7.82245L9.36123 6.94585C9.85467 6.17897 10.1993 5.48222 10.1993 4.53847L10.1993 3.9333L0 3.9333L0 4.53847C0 5.48222 0.352108 6.17897 0.845546 6.94585L1.40219 7.82245C1.77043 8.39061 1.99219 9.05589 1.99219 10.1026L1.99219 21.5501C1.99219 23.021 2.7584 23.7798 4.17538 23.7798ZM3.22308 10.9333C3.22308 9.88676 4.04218 9.05789 5.10827 9.05789C6.15714 9.05789 6.97624 9.88676 6.97624 10.9333L6.97624 14.2481C6.97624 15.297 6.15714 16.1161 5.10827 16.1161C4.04218 16.1161 3.22308 15.297 3.22308 14.2481ZM5.10827 15.4658C5.79757 15.4658 6.326 14.9374 6.326 14.2481C6.326 13.568 5.79065 13.0327 5.10827 13.0327C4.42359 13.0327 3.88077 13.568 3.88077 14.2481C3.88077 14.9374 4.41898 15.4658 5.10827 15.4658Z"
                     fill="currentColor" fill-opacity="0.85" />
       </g>
</svg>