<?xml version="1.0" encoding="UTF-8"?>
<!--Generator: Apple Native CoreSVG 326-->
<!DOCTYPE svg PUBLIC "-//W3C//DTD SVG 1.1//EN" "http://www.w3.org/Graphics/SVG/1.1/DTD/svg11.dtd">
<svg version="1.1" xmlns="http://www.w3.org/2000/svg" xmlns:xlink="http://www.w3.org/1999/xlink"
       viewBox="0 0 20.779 22.4229">
       <g>
              <rect height="22.4229" opacity="0" width="20.779" x="0" y="0" />
              <path d="M15.8139 1.31788C15.8139 2.00512 15.3134 2.56269 14.6417 2.63813L14.6417 9.42389L19.8265 17.6025C20.2705 18.3038 20.4177 18.8634 20.4177 19.3764C20.4177 20.9974 19.2178 22.3735 17.4234 22.3735L2.99429 22.3735C1.19238 22.3735 0 20.9974 0 19.3764C0 18.8634 0.137932 18.3153 0.563009 17.6473L5.77597 9.42389L5.77597 2.63867C5.09763 2.56471 4.60379 2.00637 4.60379 1.31788C4.60379 0.570228 5.16711 0 5.93144 0L14.4839 0C15.2483 0 15.8139 0.570228 15.8139 1.31788ZM8.35313 9.24514L8.35313 10.6563L10.088 10.6563C10.4923 10.6563 10.7962 10.345 10.7962 9.93838C10.7962 9.55357 10.49 9.24514 10.088 9.24514ZM8.35313 6.65591L8.35313 8.06708L10.088 8.06708C10.4923 8.06708 10.7962 7.75348 10.7962 7.34685C10.7962 6.96204 10.4877 6.65591 10.0857 6.65591ZM8.35313 4.06438L8.35313 5.47555L10.0857 5.47555C10.49 5.47555 10.7939 5.16426 10.7939 4.75762C10.7939 4.37282 10.4854 4.06438 10.0834 4.06438Z"
                     fill="currentColor" fill-opacity="0.85" />
       </g>
</svg>