<?xml version="1.0" encoding="UTF-8"?>
<!--Generator: Apple Native CoreSVG 326-->
<!DOCTYPE svg PUBLIC "-//W3C//DTD SVG 1.1//EN" "http://www.w3.org/Graphics/SVG/1.1/DTD/svg11.dtd">
<svg version="1.1" xmlns="http://www.w3.org/2000/svg" xmlns:xlink="http://www.w3.org/1999/xlink"
       viewBox="0 0 19.3993 19.0529">
       <g>
              <rect height="19.0529" opacity="0" width="19.3993" x="0" y="0" />
              <path d="M19.0379 3.63912L19.0379 15.4011C19.0379 17.7262 17.7164 19.0379 15.3896 19.0379L3.64834 19.0379C1.32382 19.0379 0 17.7262 0 15.4011L0 3.63912C0 1.32151 1.32382 0 3.64834 0L15.3896 0C17.7164 0 19.0379 1.32151 19.0379 3.63912ZM8.79531 7.63247L8.58156 8.87877L6.88604 8.87877C6.55237 8.87877 6.32437 9.09186 6.32437 9.39854C6.32437 9.70982 6.55237 9.92806 6.88604 9.92806L8.41215 9.92806L8.19664 11.1625C8.06046 11.9675 7.65777 12.3956 6.84819 12.3956C6.4851 12.3956 6.27093 12.3892 6.03413 12.419C5.69815 12.4862 5.51206 12.7119 5.51206 13.0708C5.51206 13.3517 5.66085 13.5653 5.90729 13.7175C6.23757 13.9391 6.69534 14.0258 7.15705 14.0258C9.03236 14.0258 10.0403 13.26 10.3464 11.4261L10.609 9.92806L12.4688 9.92806C12.7973 9.92806 13.0425 9.70982 13.0425 9.39854C13.0425 9.09186 12.7973 8.87877 12.4688 8.87877L10.7807 8.87877L10.9451 7.87704C11.0813 7.08129 11.4852 6.67223 12.3056 6.67223C12.7737 6.67223 13.1022 6.66829 13.3337 6.55638C13.54 6.45478 13.644 6.2756 13.644 5.9947C13.644 5.70349 13.4539 5.46287 13.1971 5.31529C12.864 5.13096 12.3942 5.04713 11.9939 5.04713C10.1525 5.04713 9.10144 5.78823 8.79531 7.63247Z"
                     fill="currentColor" fill-opacity="0.85" />
       </g>
</svg>