<?xml version="1.0" encoding="UTF-8"?>
<!--Generator: Apple Native CoreSVG 326-->
<!DOCTYPE svg PUBLIC "-//W3C//DTD SVG 1.1//EN" "http://www.w3.org/Graphics/SVG/1.1/DTD/svg11.dtd">
<svg version="1.1" xmlns="http://www.w3.org/2000/svg" xmlns:xlink="http://www.w3.org/1999/xlink"
       viewBox="0 0 16.2822 17.5993">
       <g>
              <rect height="17.5993" opacity="0" width="16.2822" x="0" y="0" />
              <path d="M3.24741 17.597C6.88137 17.597 8.85409 16.1107 9.4692 12.4941L9.97144 9.5526L13.6341 9.5526C14.2997 9.5526 14.7339 9.15518 14.7339 8.53898C14.7339 7.92562 14.2997 7.51383 13.6341 7.51383L10.3126 7.51383L10.639 5.55118C10.9039 4.00215 11.6881 3.18172 13.3038 3.18172C13.9409 3.18172 14.2403 3.21574 14.8285 3.15606C15.5211 3.03669 15.9208 2.63642 15.9208 1.88186C15.9208 1.33389 15.5457 0.840027 15.0414 0.556945C14.3034 0.0884366 13.3993 0 12.6855 0C9.07457 0 7.03052 1.51028 6.43779 5.07697L6.01259 7.51383L2.69847 7.51383C2.02543 7.51383 1.59125 7.92562 1.59125 8.53898C1.59125 9.15518 2.02543 9.5526 2.69847 9.5526L5.67892 9.5526L5.26282 11.9963C4.99563 13.5844 4.29875 14.4181 2.44317 14.4181C1.92722 14.4181 1.42675 14.3985 1.01714 14.4731C0.42156 14.5999 0 14.9606 0 15.7226C0 16.3629 0.397419 16.8275 0.995852 17.1399C1.61909 17.4563 2.45081 17.597 3.24741 17.597Z"
                     fill="currentColor" fill-opacity="0.85" />
       </g>
</svg>