<?xml version="1.0" encoding="UTF-8"?>
<!--Generator: Apple Native CoreSVG 326-->
<!DOCTYPE svg PUBLIC "-//W3C//DTD SVG 1.1//EN" "http://www.w3.org/Graphics/SVG/1.1/DTD/svg11.dtd">
<svg version="1.1" xmlns="http://www.w3.org/2000/svg" xmlns:xlink="http://www.w3.org/1999/xlink"
       viewBox="0 0 19.3993 19.0529">
       <g>
              <rect height="19.0529" opacity="0" width="19.3993" x="0" y="0" />
              <path d="M3.64834 19.0379L15.3896 19.0379C17.7164 19.0379 19.0379 17.7262 19.0379 15.4011L19.0379 3.63912C19.0379 1.32151 17.7164 0 15.3896 0L3.64834 0C1.32382 0 0 1.32151 0 3.63912L0 15.4011C0 17.7262 1.32382 19.0379 3.64834 19.0379ZM4.05583 16.0183C3.37024 16.0183 3.01964 15.7096 3.01964 14.9775L3.01964 4.07021C3.01964 3.33809 3.37024 3.0271 4.05583 3.0271L14.9821 3.0271C15.6654 3.0271 16.0183 3.33809 16.0183 4.07021L16.0183 14.9775C16.0183 15.7096 15.6654 16.0183 14.9821 16.0183Z"
                     fill="currentColor" fill-opacity="0.85" />
              <path d="M7.22772 13.7399C8.97728 13.7399 9.91345 13.0235 10.2098 11.3055L10.4477 9.89592L12.1967 9.89592C12.5079 9.89592 12.7285 9.70236 12.7285 9.4083C12.7285 9.12401 12.5079 8.92069 12.1967 8.92069L10.612 8.92069L10.7666 7.97524C10.893 7.22141 11.2797 6.8468 12.041 6.8468C12.4844 6.8468 12.7882 6.84286 12.9956 6.73841C13.199 6.64888 13.2956 6.47255 13.2956 6.21634C13.2956 5.93489 13.1226 5.71896 12.8808 5.57884C12.5724 5.40197 12.1272 5.3256 11.7516 5.3256C10.0262 5.3256 9.04922 6.03225 8.76031 7.7456L8.56379 8.92069L6.97163 8.92069C6.66264 8.92069 6.4421 9.12401 6.4421 9.4083C6.4421 9.70236 6.66264 9.89592 6.97163 9.89592L8.40183 9.89592L8.19609 11.0666C8.07714 11.8199 7.69913 12.221 6.93378 12.221C6.58792 12.221 6.39612 12.2146 6.17885 12.2445C5.8601 12.3041 5.68147 12.5224 5.68147 12.8491C5.68147 13.1203 5.8228 13.3115 6.05202 13.4614C6.36507 13.6704 6.79815 13.7399 7.22772 13.7399Z"
                     fill="currentColor" fill-opacity="0.85" />
       </g>
</svg>