<?xml version="1.0" encoding="UTF-8"?>
<!--Generator: Apple Native CoreSVG 326-->
<!DOCTYPE svg PUBLIC "-//W3C//DTD SVG 1.1//EN" "http://www.w3.org/Graphics/SVG/1.1/DTD/svg11.dtd">
<svg version="1.1" xmlns="http://www.w3.org/2000/svg" xmlns:xlink="http://www.w3.org/1999/xlink"
       viewBox="0 0 22.8197 25.1313">
       <g>
              <rect height="25.1313" opacity="0" width="22.8197" x="0" y="0" />
              <path d="M2.83385 8.82321L19.6245 8.82321C21.343 8.82321 22.4584 7.71764 22.4584 6.02096L22.4584 2.79479C22.4584 1.10558 21.343 0 19.6245 0L2.83385 0C1.11534 0 0 1.10558 0 2.79479L0 6.02096C0 7.71764 1.11534 8.82321 2.83385 8.82321ZM3.43016 5.96091C3.08242 5.96091 2.85484 5.73849 2.85484 5.37352L2.85484 3.44739C2.85484 3.08473 3.08242 2.8623 3.43016 2.8623L19.0133 2.8623C19.376 2.8623 19.5961 3.08473 19.5961 3.44739L19.5961 5.37352C19.5961 5.73849 19.376 5.96091 19.0133 5.96091ZM9.92175 11.5055L12.5412 11.5055L12.5412 7.2259L9.92175 7.2259ZM2.83385 18.799L19.6245 18.799C21.343 18.799 22.4584 17.7009 22.4584 16.0042L22.4584 12.7781C22.4584 11.0888 21.343 9.98326 19.6245 9.98326L2.83385 9.98326C1.11534 9.98326 0 11.0888 0 12.7781L0 16.0042C0 17.7009 1.11534 18.799 2.83385 18.799ZM3.43016 15.9442C3.08242 15.9442 2.85484 15.7217 2.85484 15.3591L2.85484 13.433C2.85484 13.068 3.08242 12.8456 3.43016 12.8456L19.0133 12.8456C19.376 12.8456 19.5961 13.068 19.5961 13.433L19.5961 15.3591C19.5961 15.7217 19.376 15.9442 19.0133 15.9442ZM9.91945 21.4145L12.5412 21.4145L12.5412 16.8611L9.91945 16.8611ZM10.5848 24.8071C10.9449 25.2356 11.5451 25.2281 11.9052 24.8071L14.6563 21.5287C15.2651 20.805 14.9641 19.9527 13.9947 19.9527L8.50792 19.9527C7.4966 19.9527 7.18586 20.7878 7.81414 21.5287Z"
                     fill="currentColor" fill-opacity="0.85" />
       </g>
</svg>