<?xml version="1.0" encoding="UTF-8"?>
<!--Generator: Apple Native CoreSVG 326-->
<!DOCTYPE svg PUBLIC "-//W3C//DTD SVG 1.1//EN" "http://www.w3.org/Graphics/SVG/1.1/DTD/svg11.dtd">
<svg version="1.1" xmlns="http://www.w3.org/2000/svg" xmlns:xlink="http://www.w3.org/1999/xlink"
       viewBox="0 0 19.9941 15.2228">
       <g>
              <rect height="15.2228" opacity="0" width="19.9941" x="0" y="0" />
              <path d="M3.42677 15.2228C4.53429 15.2228 5.17967 14.5602 5.17967 13.4159L5.17967 6.49032L6.21652 6.49032C6.96702 6.49032 7.46658 5.9856 7.46658 5.22249C7.46658 4.46914 6.96471 3.96957 6.21652 3.96957L5.09014 3.96957L5.09014 3.38139C5.09014 2.68021 5.46584 2.35552 6.34135 2.31822C6.62225 2.31076 6.87209 2.26884 7.06104 2.19017C7.42115 2.04545 7.60264 1.77267 7.60264 1.37526C7.60264 0.489252 6.70632 0.0195312 5.0142 0.0195312C2.74851 0.0195312 1.68133 1.04777 1.68133 3.21605L1.68133 3.96957L1.25006 3.96957C0.501869 3.96957 0 4.4766 0 5.22249C0 5.9856 0.499564 6.49032 1.25006 6.49032L1.68133 6.49032L1.68133 13.4159C1.68133 14.5602 2.32671 15.2228 3.42677 15.2228ZM10.5766 15.2228C11.6669 15.2228 12.3169 14.5556 12.3169 13.4211L12.3169 8.68413C12.3169 7.37275 13.1071 6.49008 14.2766 6.49008C15.4799 6.49008 16.1493 7.24052 16.1493 8.59369L16.1493 13.4211C16.1493 14.5579 16.797 15.2228 17.8948 15.2228C19 15.2228 19.6327 14.563 19.6327 13.4211L19.6327 7.85199C19.6327 5.19137 18.207 3.6427 15.7358 3.6427C14.0517 3.6427 12.8923 4.43208 12.3558 5.95188L12.2887 5.95188L12.2887 5.37783C12.2887 4.29269 11.6135 3.61286 10.5226 3.61286C9.45416 3.61286 8.83116 4.26285 8.83116 5.36291L8.83116 13.4211C8.83116 14.5556 9.47885 15.2228 10.5766 15.2228Z"
                     fill="currentColor" fill-opacity="0.85" />
       </g>
</svg>