<?xml version="1.0" encoding="UTF-8"?>
<!--Generator: Apple Native CoreSVG 326-->
<!DOCTYPE svg PUBLIC "-//W3C//DTD SVG 1.1//EN" "http://www.w3.org/Graphics/SVG/1.1/DTD/svg11.dtd">
<svg version="1.1" xmlns="http://www.w3.org/2000/svg" xmlns:xlink="http://www.w3.org/1999/xlink"
       viewBox="0 0 23.397 19.6245">
       <g>
              <rect height="19.6245" opacity="0" width="23.397" x="0" y="0" />
              <path d="M0 15.5749C0 17.8948 1.32382 19.214 3.64834 19.214L19.4789 19.214C21.7119 19.214 23.0357 17.8925 23.0357 15.5749L23.0357 8.52952L0 8.52952ZM0 6.73543L23.0357 6.73543L23.0357 5.48592C23.0357 3.16831 21.7096 1.8468 19.3874 1.8468L11.2359 1.8468C10.4301 1.8468 9.93274 1.66816 9.25048 1.15125L8.80399 0.812185C7.99532 0.198163 7.46743 0 6.26189 0L3.56076 0C1.38175 0 0 1.34214 0 3.6706Z"
                     fill="currentColor" fill-opacity="0.85" />
       </g>
</svg>