<?xml version="1.0" encoding="UTF-8"?>
<!--Generator: Apple Native CoreSVG 326-->
<!DOCTYPE svg PUBLIC "-//W3C//DTD SVG 1.1//EN" "http://www.w3.org/Graphics/SVG/1.1/DTD/svg11.dtd">
<svg version="1.1" xmlns="http://www.w3.org/2000/svg" xmlns:xlink="http://www.w3.org/1999/xlink"
       viewBox="0 0 23.397 19.6245">
       <g>
              <rect height="19.6245" opacity="0" width="23.397" x="0" y="0" />
              <path d="M3.64834 19.214L19.4789 19.214C21.7119 19.214 23.0357 17.8925 23.0357 15.5749L23.0357 5.48592C23.0357 3.16831 21.7096 1.8468 19.3874 1.8468L11.2359 1.8468C10.4301 1.8468 9.93274 1.66816 9.25048 1.15125L8.80399 0.812185C7.99532 0.198163 7.46743 0 6.26189 0L3.56076 0C1.38175 0 0 1.34214 0 3.6706L0 15.5749C0 17.8948 1.32382 19.214 3.64834 19.214ZM4.05583 16.1944C3.37024 16.1944 3.01964 15.8857 3.01964 15.1461L3.01964 4.08677C3.01964 3.4184 3.44539 3.01734 4.12922 3.01734L5.43624 3.01734C6.23745 3.01734 6.71014 3.19082 7.40962 3.71519L7.84865 4.05656C8.66994 4.67343 9.20244 4.8739 10.408 4.8739L18.9776 4.8739C19.6609 4.8739 20.0161 5.18488 20.0161 5.917L20.0161 15.1484C20.0161 15.8857 19.6609 16.1944 18.9776 16.1944ZM1.96423 8.90322L21.1363 8.90322L21.1363 6.52587L1.96423 6.52587Z"
                     fill="currentColor" fill-opacity="0.85" />
       </g>
</svg>