<?xml version="1.0" encoding="UTF-8"?>
<!--Generator: Apple Native CoreSVG 326-->
<!DOCTYPE svg PUBLIC "-//W3C//DTD SVG 1.1//EN" "http://www.w3.org/Graphics/SVG/1.1/DTD/svg11.dtd">
<svg version="1.1" xmlns="http://www.w3.org/2000/svg" xmlns:xlink="http://www.w3.org/1999/xlink"
       viewBox="0 0 21.365 21.006">
       <g>
              <rect height="21.006" opacity="0" width="21.365" x="0" y="0" />
              <path d="M21.0037 10.4981C21.0037 16.2923 16.302 20.9962 10.4981 20.9962C4.70394 20.9962 0 16.2923 0 10.4981C0 4.70163 4.70394 0 10.4981 0C16.302 0 21.0037 4.70163 21.0037 10.4981ZM8.08127 4.8984L8.0376 7.87455C8.0376 8.05033 7.9181 8.17213 7.74287 8.17213C7.57455 8.17213 7.48259 8.05033 7.48259 7.85733L7.53142 4.99376C7.53142 4.71001 7.38724 4.53137 7.12302 4.53137C6.88349 4.53137 6.71463 4.7077 6.70486 4.98399L6.56353 7.94061C6.50724 8.98377 6.84443 9.34795 7.56885 9.68514C7.76701 9.78564 7.8176 9.86729 7.8176 10.1074L7.71533 15.8152C7.6981 16.269 8.01576 16.5453 8.48451 16.5453C8.97795 16.5453 9.28068 16.2615 9.26861 15.8152L9.17842 10.1074C9.17842 9.86729 9.21924 9.78564 9.40248 9.68514C10.1395 9.34795 10.479 8.98377 10.4227 7.94061L10.2716 4.98399C10.2521 4.69278 10.1028 4.53137 9.86092 4.53137C9.599 4.53137 9.46229 4.71001 9.46229 4.99376L9.50365 7.85733C9.50365 8.05033 9.39678 8.17213 9.23877 8.17213C9.06584 8.17213 8.94404 8.05033 8.94404 7.87455L8.90498 4.8984C8.90498 4.62958 8.73896 4.45555 8.48451 4.45555C8.24498 4.45555 8.08127 4.62958 8.08127 4.8984ZM12.8763 4.80657C12.0404 5.94411 11.4051 8.36138 11.4051 10.2838L11.4051 10.6348C11.4051 11.0203 11.524 11.2788 11.8744 11.4988L12.0474 11.6064C12.2451 11.7356 12.3129 11.8769 12.3031 12.1888L12.2209 15.8082C12.2112 16.269 12.5311 16.5453 12.9976 16.5453C13.4933 16.5453 13.7863 16.2661 13.7863 15.8221L13.7863 4.87548C13.7863 4.61981 13.6185 4.45555 13.391 4.45555C13.186 4.45555 13.0446 4.56528 12.8763 4.80657Z"
                     fill="currentColor" fill-opacity="0.85" />
       </g>
</svg>