<?xml version="1.0" encoding="UTF-8"?>
<!--Generator: Apple Native CoreSVG 326-->
<!DOCTYPE svg PUBLIC "-//W3C//DTD SVG 1.1//EN" "http://www.w3.org/Graphics/SVG/1.1/DTD/svg11.dtd">
<svg version="1.1" xmlns="http://www.w3.org/2000/svg" xmlns:xlink="http://www.w3.org/1999/xlink"
       viewBox="0 0 36.3936 18.4078">
       <g>
              <rect height="18.4078" opacity="0" width="36.3936" x="0" y="0" />
              <path d="M5.61086 18.4078C8.80714 18.4078 10.9674 16.6053 11.2354 13.7384C11.37 13.7804 11.5109 13.7965 11.6731 13.7965L24.3592 13.7965C24.5288 13.7965 24.6697 13.7804 24.8043 13.7384C25.0648 16.6053 27.2251 18.4078 30.4214 18.4078C34.2619 18.4078 36.4503 16.0083 35.9678 12.1296L35.0987 5.1019C34.7093 1.96762 32.9075 0.329543 29.7841 0.329543L6.24818 0.329543C3.12475 0.329543 1.32296 1.96762 0.93355 5.1019L0.0667147 12.1296C-0.418049 16.0083 1.7703 18.4078 5.61086 18.4078ZM11.9201 11.0984C11.5136 11.0984 11.2653 10.8477 11.2653 10.4125L11.2653 3.71124C11.2653 3.2858 11.5136 3.02771 11.9201 3.02771L24.1196 3.02771C24.5284 3.02771 24.767 3.2858 24.767 3.71124L24.767 10.4125C24.767 10.8477 24.5284 11.0984 24.1196 11.0984ZM5.63961 14.7694C5.17329 14.7694 4.85224 14.4386 4.85224 13.9751L4.85224 13.1804L4.00875 13.1804C3.54759 13.1804 3.22423 12.8772 3.22423 12.4235C3.22423 11.9772 3.54759 11.6762 4.00875 11.6762L4.85224 11.6762L4.85224 10.889C4.85224 10.4302 5.17329 10.0971 5.63961 10.0971C6.09848 10.0971 6.41437 10.4302 6.41437 10.889L6.41437 11.6762L7.1895 11.6762C7.69258 11.6762 8.03777 11.9772 8.03777 12.4235C8.03777 12.8772 7.69258 13.1804 7.1895 13.1804L6.41437 13.1804L6.41437 13.9751C6.41437 14.4386 6.09848 14.7694 5.63961 14.7694ZM31.4663 12.4838C30.7742 12.4838 30.2285 11.9559 30.2285 11.2661C30.2285 10.559 30.7742 10.0162 31.4663 10.0162C32.1607 10.0162 32.7208 10.559 32.7208 11.2661C32.7208 11.9485 32.1607 12.4838 31.4663 12.4838ZM29.3105 14.6017C28.6333 14.6017 28.0606 14.0515 28.0606 13.3616C28.0606 12.6746 28.6333 12.1341 29.3105 12.1341C30.0078 12.1341 30.5506 12.6746 30.5506 13.3616C30.5506 14.0515 30.0078 14.6017 29.3105 14.6017Z"
                     fill="currentColor" fill-opacity="0.85" />
       </g>
</svg>