<?xml version="1.0" encoding="UTF-8"?>
<!--Generator: Apple Native CoreSVG 326-->
<!DOCTYPE svg PUBLIC "-//W3C//DTD SVG 1.1//EN" "http://www.w3.org/Graphics/SVG/1.1/DTD/svg11.dtd">
<svg version="1.1" xmlns="http://www.w3.org/2000/svg" xmlns:xlink="http://www.w3.org/1999/xlink"
       viewBox="0 0 21.365 21.006">
       <g>
              <rect height="21.006" opacity="0" width="21.365" x="0" y="0" />
              <path d="M10.4981 20.9962C16.302 20.9962 21.0037 16.2946 21.0037 10.4981C21.0037 4.70163 16.302 0 10.4981 0C4.70163 0 0 4.70163 0 10.4981C0 16.2946 4.70163 20.9962 10.4981 20.9962ZM10.4981 17.9484C6.37829 17.9484 3.04785 14.6179 3.04785 10.4981C3.04785 6.37829 6.37829 3.04785 10.4981 3.04785C14.6179 3.04785 17.9558 6.37829 17.9558 10.4981C17.9558 14.6179 14.6179 17.9484 10.4981 17.9484Z"
                     fill="currentColor" fill-opacity="0.85" />
              <path d="M11.8882 13.6591C12.0962 13.6591 12.2822 13.608 12.4678 13.4931L16.4471 11.1668C16.782 10.9738 17.018 10.7319 17.018 10.381C17.018 10.0227 16.782 9.80323 16.4471 9.60276L12.4678 7.27642C12.2822 7.169 12.0962 7.11041 11.8808 7.11041C11.4621 7.11041 11.0996 7.42861 11.0996 7.9938L11.0996 12.7757C11.0996 13.3409 11.4695 13.6591 11.8882 13.6591ZM6.00665 13.6591C6.20712 13.6591 6.38806 13.608 6.58622 13.4931L10.5655 11.1668C10.9027 10.9738 11.1215 10.7319 11.1215 10.381C11.1215 10.0227 10.9027 9.80323 10.5655 9.60276L6.58622 7.27642C6.38806 7.169 6.19966 7.11041 5.99919 7.11041C5.56556 7.11041 5.20544 7.42861 5.20544 7.9938L5.20544 12.7757C5.20544 13.3409 5.57302 13.6591 6.00665 13.6591Z"
                     fill="currentColor" fill-opacity="0.85" />
       </g>
</svg>