<?xml version="1.0" encoding="UTF-8"?>
<!--Generator: Apple Native CoreSVG 326-->
<!DOCTYPE svg PUBLIC "-//W3C//DTD SVG 1.1//EN" "http://www.w3.org/Graphics/SVG/1.1/DTD/svg11.dtd">
<svg version="1.1" xmlns="http://www.w3.org/2000/svg" xmlns:xlink="http://www.w3.org/1999/xlink"
       viewBox="0 0 37.002 17.2445">
       <g>
              <rect height="17.2445" opacity="0" width="37.002" x="0" y="0" />
              <path d="M0 15.1685C0 16.5192 0.855615 17.2347 1.87088 17.2347C2.30099 17.2347 2.74317 17.1095 3.17559 16.8637L14.0114 10.5514C14.8879 10.0471 15.4322 9.47866 15.4322 8.61735C15.4322 7.74857 14.8879 7.18756 14.0114 6.68327L3.17559 0.370973C2.74317 0.122889 2.30099 0 1.87088 0C0.855615 0 0 0.705734 0 2.06388ZM15.3834 15.1685C15.3834 16.5192 16.239 17.2347 17.252 17.2347C17.6769 17.2347 18.1266 17.1095 18.5515 16.8637L29.3948 10.5514C30.269 10.0471 30.8133 9.47866 30.8133 8.61735C30.8133 7.74857 30.269 7.18756 29.3948 6.68327L18.5515 0.370973C18.1266 0.122889 17.6769 0 17.252 0C16.239 0 15.3834 0.705734 15.3834 2.06388ZM32.4312 17.2134L34.9315 17.2134C36.067 17.2134 36.6407 16.6374 36.6407 15.5019L36.6407 1.723C36.6407 0.615659 36.067 0.0189853 34.9315 0.0189853L32.4312 0.0189853C31.3033 0.0189853 30.7272 0.587575 30.7272 1.723L30.7272 15.5019C30.7272 16.6374 31.2734 17.2134 32.4312 17.2134Z"
                     fill="currentColor" fill-opacity="0.85" />
       </g>
</svg>