<?xml version="1.0" encoding="UTF-8"?>
<!--Generator: Apple Native CoreSVG 326-->
<!DOCTYPE svg PUBLIC "-//W3C//DTD SVG 1.1//EN" "http://www.w3.org/Graphics/SVG/1.1/DTD/svg11.dtd">
<svg version="1.1" xmlns="http://www.w3.org/2000/svg" xmlns:xlink="http://www.w3.org/1999/xlink"
       viewBox="0 0 21.365 21.006">
       <g>
              <rect height="21.006" opacity="0" width="21.365" x="0" y="0" />
              <path d="M21.0037 10.4981C21.0037 16.2923 16.302 20.9962 10.4981 20.9962C4.70394 20.9962 0 16.2923 0 10.4981C0 4.70163 4.70394 0 10.4981 0C16.302 0 21.0037 4.70163 21.0037 10.4981ZM13.0648 6.92134C12.5973 6.92134 12.3652 7.17119 12.3652 7.61349L12.3652 10.0755C12.267 9.91175 12.1028 9.78249 11.8902 9.6653L7.66001 7.18623C7.45439 7.07135 7.25623 7.02021 7.04314 7.02021C6.57275 7.02021 6.18795 7.36826 6.18795 7.9679L6.18795 13.0427C6.18795 13.6446 6.58767 13.9978 7.04314 13.9978C7.25623 13.9978 7.45439 13.9392 7.66001 13.8244L11.8902 11.3453C12.0953 11.2281 12.2596 11.0914 12.3652 10.9277L12.3652 13.3902C12.3652 13.8549 12.5973 14.0823 13.0648 14.0823L14.1041 14.0823C14.5716 14.0823 14.8111 13.8549 14.8111 13.3902L14.8111 7.61349C14.8111 7.15111 14.5641 6.92134 14.1041 6.92134Z"
                     fill="currentColor" fill-opacity="0.85" />
       </g>
</svg>