<?xml version="1.0" encoding="UTF-8"?>
<!--Generator: Apple Native CoreSVG 326-->
<!DOCTYPE svg PUBLIC "-//W3C//DTD SVG 1.1//EN" "http://www.w3.org/Graphics/SVG/1.1/DTD/svg11.dtd">
<svg version="1.1" xmlns="http://www.w3.org/2000/svg" xmlns:xlink="http://www.w3.org/1999/xlink"
       viewBox="0 0 21.6209 17.2445">
       <g>
              <rect height="17.2445" opacity="0" width="21.6209" x="0" y="0" />
              <path d="M0 15.1685C0 16.5192 0.855615 17.2347 1.87088 17.2347C2.30099 17.2347 2.74317 17.1095 3.17559 16.8637L14.0114 10.5514C14.8879 10.0471 15.4322 9.47866 15.4322 8.61735C15.4322 7.74857 14.8879 7.18756 14.0114 6.68327L3.17559 0.370973C2.74317 0.122889 2.30099 0 1.87088 0C0.855615 0 0 0.705734 0 2.06388ZM17.0553 17.2134L19.5556 17.2134C20.691 17.2134 21.2596 16.6374 21.2596 15.5019L21.2596 1.723C21.2596 0.615659 20.691 0.0189853 19.5556 0.0189853L17.0553 0.0189853C15.9199 0.0189853 15.3461 0.587575 15.3461 1.723L15.3461 15.5019C15.3461 16.6374 15.89 17.2134 17.0553 17.2134Z"
                     fill="currentColor" fill-opacity="0.85" />
       </g>
</svg>