<?xml version="1.0" encoding="UTF-8"?>
<!--Generator: Apple Native CoreSVG 326-->
<!DOCTYPE svg PUBLIC "-//W3C//DTD SVG 1.1//EN" "http://www.w3.org/Graphics/SVG/1.1/DTD/svg11.dtd">
<svg version="1.1" xmlns="http://www.w3.org/2000/svg" xmlns:xlink="http://www.w3.org/1999/xlink"
       viewBox="0 0 24.6449 23.5952">
       <g>
              <rect height="23.5952" opacity="0" width="24.6449" x="0" y="0" />
              <path d="M1.94045 20.4256L22.5744 20.4256L22.5744 19.4355C22.5744 18.8957 22.2379 18.5718 21.7032 18.5718L21.3244 18.5718L21.3244 7.89293L22.1092 7.89293C22.9074 7.89293 23.3841 7.28595 23.3841 6.69158C23.3841 6.25686 23.136 5.85374 22.6254 5.55167L13.7186 0.416404C13.2683 0.154491 12.7462 0 12.2563 0C11.7664 0 11.242 0.154491 10.7963 0.416404L1.88944 5.55167C1.37659 5.85374 1.13081 6.25686 1.13081 6.69158C1.13081 7.28595 1.60745 7.89293 2.41314 7.89293L3.19045 7.89293L3.19045 18.5718L2.81396 18.5718C2.27927 18.5718 1.94045 18.8957 1.94045 19.4355ZM5.29922 18.5718L5.29922 6.39673L12.047 2.62732C12.1194 2.5888 12.1965 2.57212 12.2563 2.57212C12.331 2.57212 12.3931 2.5888 12.4679 2.62732L19.2157 6.39673L19.2157 18.5718ZM1.20651 23.5854L23.0673 23.5854C23.7134 23.5854 24.2836 23.0525 24.2836 22.3766C24.2836 21.7231 23.7134 21.1701 23.0673 21.1701L1.20651 21.1701C0.553002 21.1701 0 21.7231 0 22.3766C0 23.045 0.553002 23.5854 1.20651 23.5854Z"
                     fill="currentColor" fill-opacity="0.85" />
              <path d="M10.8819 15.906C11.5124 15.906 11.9281 15.4851 11.9281 14.8128L11.9281 14.4565L13.9434 14.4565C14.0842 14.4565 14.206 14.337 14.206 14.1939C14.206 14.0457 14.0842 13.9314 13.9434 13.9314L11.9281 13.9314L11.9281 12.5322L14.3996 12.5322C14.9261 12.5322 15.2753 12.2152 15.2753 11.7283C15.2753 11.2436 14.9261 10.9266 14.3996 10.9266L11.9281 10.9266L11.9281 9.14657L14.622 9.14657C15.1882 9.14657 15.5522 8.82213 15.5522 8.30534C15.5522 7.7937 15.1882 7.46925 14.622 7.46925L10.8819 7.46925C10.1998 7.46925 9.82598 7.88038 9.82598 8.55736L9.82598 13.9314L8.91832 13.9314C8.76778 13.9314 8.64598 14.0457 8.64598 14.1939C8.64598 14.337 8.76778 14.4565 8.91832 14.4565L9.82598 14.4565L9.82598 14.8128C9.82598 15.4851 10.2394 15.906 10.8819 15.906Z"
                     fill="currentColor" fill-opacity="0.85" />
       </g>
</svg>