<?xml version="1.0" encoding="UTF-8"?>
<!--Generator: Apple Native CoreSVG 326-->
<!DOCTYPE svg PUBLIC "-//W3C//DTD SVG 1.1//EN" "http://www.w3.org/Graphics/SVG/1.1/DTD/svg11.dtd">
<svg version="1.1" xmlns="http://www.w3.org/2000/svg" xmlns:xlink="http://www.w3.org/1999/xlink"
       viewBox="0 0 21.365 21.006">
       <g>
              <rect height="21.006" opacity="0" width="21.365" x="0" y="0" />
              <path d="M10.4981 20.9962C16.302 20.9962 21.0037 16.2946 21.0037 10.4981C21.0037 4.70163 16.302 0 10.4981 0C4.70163 0 0 4.70163 0 10.4981C0 16.2946 4.70163 20.9962 10.4981 20.9962ZM10.4981 17.9484C6.37829 17.9484 3.04785 14.6179 3.04785 10.4981C3.04785 6.37829 6.37829 3.04785 10.4981 3.04785C14.6179 3.04785 17.9558 6.37829 17.9558 10.4981C17.9558 14.6179 14.6179 17.9484 10.4981 17.9484Z"
                     fill="currentColor" fill-opacity="0.85" />
              <path d="M9.11169 14.84C9.74961 14.84 10.1654 14.4168 10.1654 13.7542L10.1654 13.398L12.1731 13.398C12.3214 13.398 12.4357 13.2762 12.4357 13.1354C12.4357 12.9871 12.3214 12.8653 12.1731 12.8653L10.1654 12.8653L10.1654 11.4736L12.6293 11.4736C13.1633 11.4736 13.505 11.1567 13.505 10.6697C13.505 10.1851 13.1633 9.86807 12.6293 9.86807L10.1654 9.86807L10.1654 8.088L12.8517 8.088C13.4254 8.088 13.782 7.76125 13.782 7.24676C13.782 6.73513 13.4254 6.40837 12.8517 6.40837L9.11169 6.40837C8.43702 6.40837 8.06319 6.8195 8.06319 7.49649L8.06319 12.8653L7.14807 12.8653C7.00499 12.8653 6.88319 12.9871 6.88319 13.1354C6.88319 13.2762 7.00499 13.398 7.14807 13.398L8.06319 13.398L8.06319 13.7542C8.06319 14.4168 8.47662 14.84 9.11169 14.84Z"
                     fill="currentColor" fill-opacity="0.85" />
       </g>
</svg>