<?xml version="1.0" encoding="UTF-8"?>
<!--Generator: Apple Native CoreSVG 326-->
<!DOCTYPE svg PUBLIC "-//W3C//DTD SVG 1.1//EN" "http://www.w3.org/Graphics/SVG/1.1/DTD/svg11.dtd">
<svg version="1.1" xmlns="http://www.w3.org/2000/svg" xmlns:xlink="http://www.w3.org/1999/xlink"
       viewBox="0 0 24.3303 21.006">
       <g>
              <rect height="21.006" opacity="0" width="24.3303" x="0" y="0" />
              <path d="M11.9856 20.9962C17.7821 20.9962 22.4837 16.2946 22.4837 10.4981C22.4837 4.70163 17.7821 0 11.9856 0C6.18916 0 1.48753 4.70163 1.48753 10.4981L4.53538 10.4981C4.53538 6.37829 7.86582 3.04785 11.9856 3.04785C16.1055 3.04785 19.4359 6.37829 19.4359 10.4981C19.4359 14.6179 16.1055 17.9484 11.9856 17.9484C9.86874 17.9484 8.05458 17.1034 6.64712 15.6524C5.97135 15.0132 5.0498 14.8117 4.35614 15.4438C3.73423 16.0162 3.72149 16.9286 4.44894 17.7463C6.08398 19.7011 9.21457 20.9962 11.9856 20.9962ZM0.808605 8.39698C-0.0138912 8.39698-0.212055 9.15901 0.22849 9.72826L2.75918 13.0277C3.05907 13.4322 3.60988 13.4224 3.91492 13.0277L6.43585 9.72596C6.86894 9.15901 6.66847 8.39698 5.8655 8.39698Z"
                     fill="currentColor" fill-opacity="0.85" />
              <path d="M10.6015 14.84C11.2394 14.84 11.6552 14.4168 11.6552 13.7542L11.6552 13.398L13.663 13.398C13.8112 13.398 13.933 13.2762 13.933 13.1354C13.933 12.9871 13.8112 12.8653 13.663 12.8653L11.6552 12.8653L11.6552 11.4736L14.1192 11.4736C14.6532 11.4736 14.9948 11.1567 14.9948 10.6697C14.9948 10.1851 14.6532 9.86807 14.1192 9.86807L11.6552 9.86807L11.6552 8.088L14.3416 8.088C14.9152 8.088 15.2793 7.76125 15.2793 7.24676C15.2793 6.73513 14.9152 6.40837 14.3416 6.40837L10.6015 6.40837C9.92685 6.40837 9.55302 6.8195 9.55302 7.49649L9.55302 12.8653L8.63791 12.8653C8.49482 12.8653 8.37302 12.9871 8.37302 13.1354C8.37302 13.2762 8.49482 13.398 8.63791 13.398L9.55302 13.398L9.55302 13.7542C9.55302 14.4168 9.96646 14.84 10.6015 14.84Z"
                     fill="currentColor" fill-opacity="0.85" />
       </g>
</svg>