<?xml version="1.0" encoding="UTF-8"?>
<!--Generator: Apple Native CoreSVG 326-->
<!DOCTYPE svg PUBLIC "-//W3C//DTD SVG 1.1//EN" "http://www.w3.org/Graphics/SVG/1.1/DTD/svg11.dtd">
<svg version="1.1" xmlns="http://www.w3.org/2000/svg" xmlns:xlink="http://www.w3.org/1999/xlink"
       viewBox="0 0 24.6449 23.5952">
       <g>
              <rect height="23.5952" opacity="0" width="24.6449" x="0" y="0" />
              <path d="M13.7186 0.416404L22.6254 5.55167C23.136 5.85374 23.3841 6.25686 23.3841 6.69158C23.3841 7.28595 22.9074 7.89293 22.1092 7.89293L21.3244 7.89293L21.3244 19.392L21.7032 19.392C22.2379 19.392 22.5744 19.7159 22.5744 20.2632L22.5744 21.1701L23.0673 21.1701C23.7134 21.1701 24.2836 21.7231 24.2836 22.3766C24.2836 23.0525 23.7134 23.5854 23.0673 23.5854L1.20651 23.5854C0.553002 23.5854 0 23.045 0 22.3766C0 21.7231 0.553002 21.1701 1.20651 21.1701L1.94045 21.1701L1.94045 20.2632C1.94045 19.7159 2.27927 19.392 2.81396 19.392L3.19045 19.392L3.19045 7.89293L2.41314 7.89293C1.60745 7.89293 1.13081 7.28595 1.13081 6.69158C1.13081 6.25686 1.37659 5.85374 1.88944 5.55167L10.7963 0.416404C11.242 0.154491 11.7664 0 12.2563 0C12.7462 0 13.2683 0.154491 13.7186 0.416404ZM10.8056 8.57986C10.0666 8.57986 9.66809 9.02314 9.66809 9.76442L9.66809 15.4755L8.69384 15.4755C8.54329 15.4755 8.41172 15.6047 8.41172 15.7553C8.41172 15.9133 8.54329 16.0426 8.69384 16.0426L9.66809 16.0426L9.66809 16.4057C9.66809 17.1326 10.1137 17.5805 10.8056 17.5805C11.4906 17.5805 11.931 17.1326 11.931 16.4057L11.931 16.0426L14.072 16.0426C14.2225 16.0426 14.3518 15.9133 14.3518 15.7553C14.3518 15.6047 14.2225 15.4755 14.072 15.4755L11.931 15.4755L11.931 13.9977L14.5523 13.9977C15.1185 13.9977 15.4848 13.6462 15.4848 13.1369C15.4848 12.6126 15.1185 12.2687 14.5523 12.2687L11.931 12.2687L11.931 10.3858L14.7845 10.3858C15.3903 10.3858 15.7865 10.0366 15.7865 9.48024C15.7865 8.93646 15.3903 8.57986 14.7845 8.57986Z"
                     fill="currentColor" fill-opacity="0.85" />
       </g>
</svg>