<?xml version="1.0" encoding="UTF-8"?>
<!--Generator: Apple Native CoreSVG 326-->
<!DOCTYPE svg PUBLIC "-//W3C//DTD SVG 1.1//EN" "http://www.w3.org/Graphics/SVG/1.1/DTD/svg11.dtd">
<svg version="1.1" xmlns="http://www.w3.org/2000/svg" xmlns:xlink="http://www.w3.org/1999/xlink"
       viewBox="0 0 14.7676 17.6386">
       <g>
              <rect height="17.6386" opacity="0" width="14.7676" x="0" y="0" />
              <path d="M4.64043 17.6093C6.02236 17.6093 6.80094 16.7492 6.80094 15.3696L6.80094 14.5771L11.0181 14.5771C11.3495 14.5771 11.6034 14.3358 11.6034 14.0296C11.6034 13.7182 11.3495 13.4746 11.0181 13.4746L6.80094 13.4746L6.80094 10.5418L12.0064 10.5418C13.1134 10.5418 13.8127 9.89931 13.8127 8.89163C13.8127 7.88626 13.1134 7.24373 12.0064 7.24373L6.80094 7.24373L6.80094 3.47147L12.4931 3.47147C13.6621 3.47147 14.4062 2.78933 14.4062 1.72943C14.4062 0.676983 13.6621 0 12.4931 0L4.64043 0C3.2539 0 2.48508 0.825651 2.48508 2.24434L2.48508 13.4746L0.582541 13.4746C0.246446 13.4746 0 13.7182 0 14.0296C0 14.3358 0.246446 14.5771 0.582541 14.5771L2.48508 14.5771L2.48508 15.3696C2.48508 16.7618 3.24643 17.6093 4.64043 17.6093Z"
                     fill="currentColor" fill-opacity="0.85" />
       </g>
</svg>