<?xml version="1.0" encoding="UTF-8"?>
<!--Generator: Apple Native CoreSVG 326-->
<!DOCTYPE svg PUBLIC "-//W3C//DTD SVG 1.1//EN" "http://www.w3.org/Graphics/SVG/1.1/DTD/svg11.dtd">
<svg version="1.1" xmlns="http://www.w3.org/2000/svg" xmlns:xlink="http://www.w3.org/1999/xlink"
       viewBox="0 0 21.365 21.0404">
       <g>
              <rect height="21.0404" opacity="0" width="21.365" x="0" y="0" />
              <path d="M21.0037 10.5349C21.0037 16.3388 16.302 21.0404 10.4981 21.0404C4.70394 21.0404 0 16.3388 0 10.5349C0 4.7407 4.70394 0.0367576 10.4981 0.0367576C16.302 0.0367576 21.0037 4.7407 21.0037 10.5349ZM7.82682 4.93213C6.93705 4.93213 6.44022 5.43357 6.44022 6.3308L6.44022 14.6582L6.24642 14.6582C5.9076 14.6582 5.62276 14.9356 5.62276 15.2893C5.62276 15.623 5.9076 15.9107 6.24642 15.9107L13.3503 15.9107C13.6817 15.9107 13.9614 15.623 13.9614 15.2893C13.9614 14.9379 13.6817 14.6582 13.3503 14.6582L13.1485 14.6582L13.1485 9.56237C13.5306 9.7962 13.6789 10.1421 13.6789 10.5362C13.6789 11.2997 13.5691 12.1368 13.5691 12.9393C13.5691 13.7907 14.1011 14.3129 14.9358 14.3129C15.8411 14.3129 16.3535 13.7223 16.3535 12.6464C16.3535 11.4589 16.1444 10.0635 15.6756 7.98495L15.5883 7.58498C15.478 7.07662 15.3172 6.63662 15.0167 6.25807L14.5049 5.63471C14.2217 5.24584 13.6099 5.691 13.95 6.08963L14.5957 6.91346C14.6348 6.95482 14.6371 7.00311 14.5957 7.07377L14.2229 7.77295C14.0982 8.01248 14.1178 8.17389 14.3182 8.39158L15.2706 9.4049C15.516 10.6539 15.6344 11.7547 15.6344 12.6464C15.6344 13.2823 15.3862 13.611 14.9358 13.611C14.5365 13.611 14.2883 13.3605 14.2883 12.9393C14.2883 12.2368 14.4031 11.3922 14.4031 10.5362C14.4031 9.73366 14.047 9.11151 13.1485 8.75764L13.1485 6.3308C13.1485 5.43357 12.6471 4.93213 11.755 4.93213ZM12.0103 6.51282L12.0103 8.91311C12.0103 9.17799 11.8132 9.35323 11.5115 9.35323L8.08236 9.35323C7.77611 9.35323 7.57849 9.17799 7.57849 8.91311L7.57849 6.51282C7.57849 6.2531 7.77611 6.08532 8.08236 6.08532L11.5115 6.08532C11.8207 6.08532 12.0103 6.2531 12.0103 6.51282Z"
                     fill="currentColor" fill-opacity="0.85" />
       </g>
</svg>