<?xml version="1.0" encoding="UTF-8"?>
<!--Generator: Apple Native CoreSVG 326-->
<!DOCTYPE svg PUBLIC "-//W3C//DTD SVG 1.1//EN" "http://www.w3.org/Graphics/SVG/1.1/DTD/svg11.dtd">
<svg version="1.1" xmlns="http://www.w3.org/2000/svg" xmlns:xlink="http://www.w3.org/1999/xlink"
       viewBox="0 0 30.0721 22.8465">
       <g>
              <rect height="22.8465" opacity="0" width="30.0721" x="0" y="0" />
              <path d="M23.0271 22.0297L23.0271 2.91319C23.0271 1.0505 21.9766 0 20.114 0L11.9318 0C10.0743 0 9.0307 1.0505 9.0307 2.91319L9.0307 22.0297ZM12.4532 9.18339C11.8373 9.18339 11.4323 8.82261 11.4323 8.28022L11.4323 3.31686C11.4323 2.7647 11.8299 2.40908 12.4532 2.40908L19.5926 2.40908C20.2234 2.40908 20.6255 2.7647 20.6255 3.31686L20.6255 8.28022C20.6255 8.82261 20.2085 9.18339 19.5926 9.18339ZM7.33852 21.5436C7.33852 22.2591 7.91906 22.8442 8.62479 22.8442L23.4284 22.8442C24.1342 22.8442 24.7193 22.2591 24.7193 21.5436C24.7193 20.8401 24.1342 20.2573 23.4284 20.2573L8.62479 20.2573C7.92136 20.2573 7.33852 20.8378 7.33852 21.5436ZM26.7386 19.5448C28.6377 19.5448 29.7084 18.2788 29.7084 16.0575C29.7084 13.5765 29.2746 10.6647 28.2993 6.34074L28.1143 5.52425C27.8719 4.44554 27.5416 3.53 26.9207 2.76258L25.8619 1.43785C25.237 0.648716 24.0114 1.56535 24.6903 2.39585L26.0523 4.10945C26.1178 4.20425 26.135 4.31574 26.0569 4.43754L25.259 5.90875C25.0068 6.39351 25.0534 6.74156 25.4698 7.19702L27.4354 9.29475C27.9686 11.9041 28.2082 14.2083 28.2082 16.0575C28.2082 17.3627 27.6917 18.0401 26.7386 18.0401C25.9073 18.0401 25.4035 17.5362 25.4035 16.6664C25.4035 15.1936 25.6378 13.4459 25.6378 11.668C25.6378 9.84715 24.7383 8.45879 22.4316 7.74535L21.8337 9.12546C23.5253 9.5816 24.1377 10.4962 24.1377 11.668C24.1377 13.2305 23.9033 14.9856 23.9033 16.6664C23.9033 18.423 25.0131 19.5448 26.7386 19.5448Z"
                     fill="currentColor" fill-opacity="0.85" />
              <path d="M0.487111 10.5892C-0.152568 10.9682-0.172099 11.8663 0.487111 12.2625L4.97693 14.9081C5.66313 15.3164 6.46246 14.9495 6.46246 14.1416L6.46246 8.69802C6.46246 7.89991 5.67114 7.52784 4.97693 7.93897Z"
                     fill="currentColor" fill-opacity="0.85" />
       </g>
</svg>