<?xml version="1.0" encoding="UTF-8"?>
<!--Generator: Apple Native CoreSVG 326-->
<!DOCTYPE svg PUBLIC "-//W3C//DTD SVG 1.1//EN" "http://www.w3.org/Graphics/SVG/1.1/DTD/svg11.dtd">
<svg version="1.1" xmlns="http://www.w3.org/2000/svg" xmlns:xlink="http://www.w3.org/1999/xlink"
       viewBox="0 0 21.365 21.006">
       <g>
              <rect height="21.006" opacity="0" width="21.365" x="0" y="0" />
              <path d="M10.4981 20.9962C16.302 20.9962 21.0037 16.2946 21.0037 10.4981C21.0037 4.70163 16.302 0 10.4981 0C4.70163 0 0 4.70163 0 10.4981C0 16.2946 4.70163 20.9962 10.4981 20.9962ZM10.4981 17.9484C6.37829 17.9484 3.04785 14.6179 3.04785 10.4981C3.04785 6.37829 6.37829 3.04785 10.4981 3.04785C14.6179 3.04785 17.9558 6.37829 17.9558 10.4981C17.9558 14.6179 14.6179 17.9484 10.4981 17.9484Z"
                     fill="currentColor" fill-opacity="0.85" />
              <path d="M10.4603 14.9961C12.9401 14.9961 14.5128 13.4728 14.5128 11.4611L14.5128 11.1809C14.5128 10.3701 14.0958 9.93819 13.2896 9.93819L11.255 9.93819C10.6572 9.93819 10.3379 10.2621 10.3379 10.7657C10.3379 11.2676 10.6647 11.5984 11.255 11.5984L11.9304 11.5984L11.9304 11.8228C11.9304 12.5052 11.4298 12.9908 10.5619 12.9908C9.55661 12.9908 8.91456 11.9663 8.91456 10.4848C8.91456 9.03782 9.54684 8.06605 10.5549 8.06605C11.1959 8.06605 11.5686 8.37703 11.8347 8.82158C12.073 9.13869 12.3504 9.4097 13.0387 9.4097C13.7548 9.4097 14.1826 9.02896 14.1826 8.41736C14.1826 8.19912 14.1407 7.9901 14.0499 7.79655C13.5984 6.70037 12.2175 5.97123 10.4533 5.97123C7.84944 5.97123 6.13136 7.7601 6.13136 10.4848C6.13136 13.2193 7.84944 14.9961 10.4603 14.9961Z"
                     fill="currentColor" fill-opacity="0.85" />
       </g>
</svg>