<?xml version="1.0" encoding="UTF-8"?>
<!--Generator: Apple Native CoreSVG 326-->
<!DOCTYPE svg PUBLIC "-//W3C//DTD SVG 1.1//EN" "http://www.w3.org/Graphics/SVG/1.1/DTD/svg11.dtd">
<svg version="1.1" xmlns="http://www.w3.org/2000/svg" xmlns:xlink="http://www.w3.org/1999/xlink"
       viewBox="0 0 30.211 19.0182">
       <g>
              <rect height="19.0182" opacity="0" width="30.211" x="0" y="0" />
              <path d="M6.21585 7.7749C6.21585 7.06564 6.69249 6.61139 7.42127 6.61139L8.81011 6.61139L8.81011 5.30868C8.81011 4.55982 9.2896 4.06826 10.0212 4.06826C10.758 4.06826 11.2324 4.55982 11.2324 5.30868L11.2324 6.61139L12.5264 6.61139C13.3166 6.61139 13.8151 7.06564 13.8151 7.7749C13.8151 8.48876 13.3166 8.94532 12.5264 8.94532L11.2324 8.94532L11.2324 10.2555C11.2324 10.9969 10.758 11.4907 10.0212 11.4907C9.2896 11.4907 8.81011 10.9969 8.81011 10.2555L8.81011 8.94532L7.42127 8.94532C6.69249 8.94532 6.21585 8.48876 6.21585 7.7749ZM21.5401 7.79661C20.605 7.79661 19.8492 7.06771 19.8492 6.13033C19.8492 5.18318 20.605 4.43936 21.5401 4.43936C22.4873 4.43936 23.2236 5.18318 23.2236 6.13033C23.2236 7.06771 22.4873 7.79661 21.5401 7.79661ZM18.3499 11.0586C17.4222 11.0586 16.6738 10.3223 16.6738 9.38489C16.6738 8.44005 17.4222 7.70884 18.3499 7.70884C19.2947 7.70884 20.0408 8.44005 20.0408 9.38489C20.0408 10.3223 19.2947 11.0586 18.3499 11.0586ZM4.11612 19.0182C5.90165 19.0182 7.11805 18.3135 8.14726 17.283L9.78055 15.6218C10.0195 15.3862 10.1633 15.277 10.4936 15.277L19.3561 15.277C19.6863 15.277 19.8301 15.3862 20.0691 15.6218L21.7098 17.283C22.739 18.3061 23.948 19.0182 25.7335 19.0182C28.0818 19.0182 29.8496 17.5039 29.8496 14.8532C29.8496 13.6827 29.6399 12.403 29.2292 11.0387C28.6112 8.98456 27.5588 6.23011 26.5701 4.15057C25.7005 2.34054 25.1365 1.26371 22.7677 0.727812C20.7602 0.270587 18.092 0.00230491 14.9297 0.00230491C11.7599 0.00230491 9.08943 0.270587 7.0819 0.727812C4.71316 1.26371 4.14918 2.34054 3.28695 4.15057C2.29832 6.23011 1.23848 8.98456 0.627851 11.0387C0.217149 12.403 0 13.6827 0 14.8532C0 17.5039 1.76788 19.0182 4.11612 19.0182Z"
                     fill="currentColor" fill-opacity="0.85" />
       </g>
</svg>