<?xml version="1.0" encoding="UTF-8"?>
<!--Generator: Apple Native CoreSVG 326-->
<!DOCTYPE svg PUBLIC "-//W3C//DTD SVG 1.1//EN" "http://www.w3.org/Graphics/SVG/1.1/DTD/svg11.dtd">
<svg version="1.1" xmlns="http://www.w3.org/2000/svg" xmlns:xlink="http://www.w3.org/1999/xlink"
       viewBox="0 0 21.365 21.006">
       <g>
              <rect height="21.006" opacity="0" width="21.365" x="0" y="0" />
              <path d="M10.4981 20.9962C16.302 20.9962 21.0037 16.2946 21.0037 10.4981C21.0037 4.70163 16.302 0 10.4981 0C4.70163 0 0 4.70163 0 10.4981C0 16.2946 4.70163 20.9962 10.4981 20.9962ZM10.4981 17.9484C6.37829 17.9484 3.04785 14.6179 3.04785 10.4981C3.04785 6.37829 6.37829 3.04785 10.4981 3.04785C14.6179 3.04785 17.9558 6.37829 17.9558 10.4981C17.9558 14.6179 14.6179 17.9484 10.4981 17.9484Z"
                     fill="currentColor" fill-opacity="0.85" />
              <path d="M6.3593 13.5746C7.02731 13.5746 7.48969 13.3053 7.88317 12.9106L8.51751 12.2571C8.60255 12.1652 8.66235 12.1192 8.79161 12.1192L12.2 12.1192C12.3293 12.1192 12.3965 12.1652 12.4816 12.2571L13.1182 12.9106C13.5019 13.2978 13.9643 13.5746 14.6323 13.5746C15.5314 13.5746 16.2029 12.9852 16.2029 11.977C16.2029 11.5301 16.1202 11.0493 15.9691 10.5253C15.733 9.73597 15.3239 8.68686 14.9418 7.88135C14.6155 7.18962 14.4001 6.78353 13.4971 6.57845C12.7341 6.40783 11.7132 6.30326 10.4958 6.30326C9.28584 6.30326 8.25747 6.40783 7.502 6.57845C6.5915 6.78353 6.38357 7.18962 6.04978 7.88135C5.67517 8.68686 5.26841 9.73597 5.03227 10.5253C4.87372 11.0493 4.78868 11.5301 4.78868 11.977C4.78868 12.9852 5.4602 13.5746 6.3593 13.5746ZM7.16427 9.25775C7.16427 8.99354 7.3406 8.8149 7.62204 8.8149L8.15939 8.8149L8.15939 8.30685C8.15939 8.0254 8.34088 7.83931 8.62002 7.83931C8.89916 7.83931 9.08064 8.0254 9.08064 8.30685L9.08064 8.8149L9.58639 8.8149C9.8799 8.8149 10.0735 8.99354 10.0735 9.25775C10.0735 9.5392 9.8799 9.70806 9.58639 9.70806L9.08064 9.70806L9.08064 10.2133C9.08064 10.4999 8.89916 10.686 8.62002 10.686C8.34088 10.686 8.15939 10.4999 8.15939 10.2133L8.15939 9.70806L7.62204 9.70806C7.3406 9.70806 7.16427 9.5392 7.16427 9.25775ZM13.0276 9.26861C12.6761 9.26861 12.3808 8.99287 12.3808 8.62924C12.3808 8.27021 12.6761 7.99217 13.0276 7.99217C13.389 7.99217 13.667 8.27021 13.667 8.62924C13.667 8.99287 13.389 9.26861 13.0276 9.26861ZM11.8137 10.517C11.4524 10.517 11.1744 10.2315 11.1744 9.8776C11.1744 9.51627 11.4524 9.24799 11.8137 9.24799C12.1676 9.24799 12.4531 9.51627 12.4531 9.8776C12.4531 10.2315 12.1676 10.517 11.8137 10.517Z"
                     fill="currentColor" fill-opacity="0.85" />
       </g>
</svg>