<?xml version="1.0" encoding="UTF-8"?>
<!--Generator: Apple Native CoreSVG 326-->
<!DOCTYPE svg PUBLIC "-//W3C//DTD SVG 1.1//EN" "http://www.w3.org/Graphics/SVG/1.1/DTD/svg11.dtd">
<svg version="1.1" xmlns="http://www.w3.org/2000/svg" xmlns:xlink="http://www.w3.org/1999/xlink"
       viewBox="0 0 21.365 21.006">
       <g>
              <rect height="21.006" opacity="0" width="21.365" x="0" y="0" />
              <path d="M10.4981 20.9962C16.302 20.9962 21.0037 16.2946 21.0037 10.4981C21.0037 4.70163 16.302 0 10.4981 0C4.70163 0 0 4.70163 0 10.4981C0 16.2946 4.70163 20.9962 10.4981 20.9962ZM10.4981 17.9484C6.37829 17.9484 3.04785 14.6179 3.04785 10.4981C3.04785 6.37829 6.37829 3.04785 10.4981 3.04785C14.6179 3.04785 17.9558 6.37829 17.9558 10.4981C17.9558 14.6179 14.6179 17.9484 10.4981 17.9484Z"
                     fill="currentColor" fill-opacity="0.85" />
              <path d="M6.96083 15.1966C7.60633 15.1966 8.13641 14.6665 8.13641 14.021C8.13641 13.3755 7.60633 12.8454 6.96083 12.8454C6.31533 12.8454 5.78525 13.3755 5.78525 14.021C5.78525 14.6665 6.31533 15.1966 6.96083 15.1966ZM5.42981 11.6737C6.08277 11.6737 6.60539 11.1436 6.60539 10.4981C6.60539 9.85261 6.08277 9.32253 5.42981 9.32253C4.78431 9.32253 4.2617 9.85261 4.2617 10.4981C4.2617 11.1436 4.78431 11.6737 5.42981 11.6737ZM10.4958 6.51586C11.1413 6.51586 11.6714 5.98579 11.6714 5.34028C11.6714 4.69478 11.1413 4.16471 10.4958 4.16471C9.8503 4.16471 9.32023 4.69478 9.32023 5.34028C9.32023 5.98579 9.8503 6.51586 10.4958 6.51586ZM14.0428 8.15078C14.6883 8.15078 15.211 7.62071 15.211 6.97521C15.211 6.3274 14.6883 5.79963 14.0428 5.79963C13.3899 5.79963 12.8673 6.3274 12.8673 6.97521C12.8673 7.62071 13.3899 8.15078 14.0428 8.15078ZM15.5664 11.6737C16.2194 11.6737 16.742 11.1436 16.742 10.4981C16.742 9.85261 16.2194 9.32253 15.5664 9.32253C14.9209 9.32253 14.3983 9.85261 14.3983 10.4981C14.3983 11.1436 14.9209 11.6737 15.5664 11.6737ZM14.0428 15.1966C14.6883 15.1966 15.211 14.6665 15.211 14.021C15.211 13.3755 14.6883 12.8454 14.0428 12.8454C13.3899 12.8454 12.8673 13.3755 12.8673 14.021C12.8673 14.6665 13.3899 15.1966 14.0428 15.1966ZM12.0084 12.1288C12.735 11.4097 12.735 10.2754 12.0084 9.54132C11.8912 9.43905 11.6373 9.26097 11.2572 9.01925L7.52063 6.57876C7.15196 6.3479 6.79075 6.38181 6.51743 6.64536C6.25388 6.91121 6.22744 7.27012 6.4606 7.63878L8.88617 11.3828C9.12043 11.7554 9.31343 12.0191 9.42316 12.1288C10.1423 12.8531 11.2766 12.8531 12.0084 12.1288Z"
                     fill="currentColor" fill-opacity="0.85" />
       </g>
</svg>