<?xml version="1.0" encoding="UTF-8"?>
<!--Generator: Apple Native CoreSVG 326-->
<!DOCTYPE svg PUBLIC "-//W3C//DTD SVG 1.1//EN" "http://www.w3.org/Graphics/SVG/1.1/DTD/svg11.dtd">
<svg version="1.1" xmlns="http://www.w3.org/2000/svg" xmlns:xlink="http://www.w3.org/1999/xlink"
       viewBox="0 0 21.365 21.006">
       <g>
              <rect height="21.006" opacity="0" width="21.365" x="0" y="0" />
              <path d="M10.4981 20.9962C16.302 20.9962 21.0037 16.2946 21.0037 10.4981C21.0037 4.70163 16.302 0 10.4981 0C4.70163 0 0 4.70163 0 10.4981C0 16.2946 4.70163 20.9962 10.4981 20.9962ZM10.4981 17.9484C6.37829 17.9484 3.04785 14.6179 3.04785 10.4981C3.04785 6.37829 6.37829 3.04785 10.4981 3.04785C14.6179 3.04785 17.9558 6.37829 17.9558 10.4981C17.9558 14.6179 14.6179 17.9484 10.4981 17.9484Z"
                     fill="currentColor" fill-opacity="0.85" />
              <path d="M10.4958 15.4991C10.5855 15.4991 10.663 15.4991 10.7527 15.4968L11.0089 15.9668C11.1163 16.1575 11.2949 16.2431 11.5075 16.2063C11.7103 16.177 11.8567 16.0156 11.8786 15.8105L11.9544 15.2843C12.1216 15.2332 12.294 15.1751 12.4515 15.1073L12.8439 15.4578C13.0053 15.6094 13.2132 15.6192 13.4039 15.5215C13.5871 15.4089 13.655 15.2159 13.6136 15.0206L13.5067 14.5041C13.6498 14.395 13.7831 14.2858 13.9118 14.1645L14.4013 14.3593C14.5943 14.43 14.8023 14.3834 14.9441 14.2272C15.0785 14.0658 15.078 13.8412 14.9757 13.6775L14.6908 13.2316C14.7902 13.0885 14.8775 12.9357 14.9551 12.7708L15.4814 12.7874C15.6939 12.7972 15.8748 12.68 15.9507 12.487C16.019 12.2866 15.953 12.074 15.7893 11.9568L15.3802 11.6253C15.4141 11.453 15.4405 11.2783 15.4675 11.111L15.9691 10.9479C16.1719 10.8893 16.3017 10.7083 16.3017 10.4981C16.3017 10.2879 16.1696 10.1144 15.9691 10.0558L15.4675 9.89264C15.4405 9.71795 15.4141 9.55072 15.3802 9.37834L15.7841 9.04916C15.9553 8.90498 16.0093 8.72174 15.9581 8.51896C15.8846 8.32596 15.6887 8.20877 15.4963 8.20646L14.9551 8.22545C14.885 8.06283 14.7977 7.91744 14.7005 7.77204L14.9706 7.33599C15.0832 7.13552 15.0734 6.94251 14.9464 6.77134C14.812 6.61509 14.5943 6.58118 14.4065 6.64208L13.9141 6.84146C13.7831 6.72021 13.6521 6.60872 13.5142 6.49954L13.6234 6.00028C13.6526 5.77798 13.5843 5.59704 13.4085 5.4747C13.2178 5.37704 13.0053 5.40688 12.8513 5.53845L12.4538 5.88892C12.2963 5.82341 12.1291 5.76306 11.9619 5.70216L11.8958 5.20059C11.8544 4.98059 11.7223 4.82895 11.5098 4.78243C11.2996 4.75313 11.1163 4.8588 11.0164 5.03688L10.7601 5.49938C10.6728 5.49708 10.5855 5.49477 10.4958 5.49477C10.4062 5.49477 10.3211 5.49708 10.2315 5.49938L9.99018 5.03688C9.8776 4.84618 9.70182 4.76059 9.50135 4.78243C9.28881 4.82149 9.14232 4.98575 9.11303 5.18567L9.04697 5.70216C8.87228 5.76306 8.6976 5.8211 8.53498 5.88892L8.15751 5.53845C7.99611 5.39427 7.78357 5.37704 7.60263 5.47239C7.41939 5.57981 7.33666 5.78544 7.37802 5.98306L7.49236 6.49208C7.35158 6.59896 7.21595 6.7179 7.08724 6.83915L6.60005 6.64439C6.39958 6.56396 6.18935 6.61509 6.05493 6.76904C5.92052 6.93275 5.91591 7.16021 6.02333 7.31876L6.30083 7.77204C6.20142 7.91513 6.11407 8.06799 6.02903 8.2306L5.51024 8.20877C5.2977 8.20646 5.11677 8.31849 5.05071 8.5092C4.97259 8.70967 5.0461 8.9199 5.20235 9.04685L5.62118 9.37603C5.58497 9.55072 5.55337 9.71795 5.53153 9.89264L5.02481 10.0558C4.8295 10.1144 4.69739 10.2879 4.69739 10.4981C4.69739 10.7083 4.8295 10.8893 5.02481 10.9479L5.53153 11.111C5.55337 11.2783 5.58497 11.4455 5.62118 11.6179L5.19489 11.9419C5.02141 12.0861 4.97774 12.2819 5.05356 12.4749C5.11907 12.6829 5.2977 12.7823 5.49532 12.78L6.02903 12.761C6.11407 12.9185 6.20142 13.0811 6.30314 13.2242L6.00841 13.67C5.88892 13.8555 5.91821 14.0612 6.05032 14.2226C6.18935 14.3863 6.39728 14.4323 6.57767 14.3593L7.07001 14.1548C7.20103 14.276 7.34181 14.3875 7.4849 14.4967L7.37056 15.0206C7.32919 15.2257 7.41709 15.4066 7.59802 15.5215C7.78126 15.6243 7.99611 15.602 8.13513 15.4704L8.53498 15.0998C8.6976 15.1751 8.85506 15.2309 9.02975 15.2843L9.10557 15.8105C9.14232 16.0231 9.2865 16.1673 9.49443 16.2063C9.69721 16.2431 9.89021 16.15 9.98271 15.9743L10.224 15.4968C10.3113 15.4991 10.4062 15.4991 10.4958 15.4991ZM10.4958 14.1615C8.4745 14.1615 6.83012 12.5194 6.83012 10.4981C6.83012 8.46935 8.4745 6.83242 10.4958 6.83242C12.5246 6.83242 14.1615 8.46935 14.1615 10.4981C14.1615 12.5194 12.5246 14.1615 10.4958 14.1615ZM9.3246 9.6858L10.3481 9.07299L8.84262 6.47407L7.76919 6.99735ZM11.6323 9.883L11.6323 11.096L14.7923 11.096L14.7923 9.883ZM10.3355 11.9278L9.32921 11.2806L7.70829 13.9598L8.7668 14.4975ZM10.4958 12.1278C11.3925 12.1278 12.1329 11.3948 12.1329 10.4981C12.1329 9.60143 11.3925 8.861 10.4958 8.861C9.59913 8.861 8.86616 9.60143 8.86616 10.4981C8.86616 11.3948 9.59913 12.1278 10.4958 12.1278ZM10.4958 11.0347C10.1982 11.0347 9.95924 10.7957 9.95924 10.4981C9.95924 10.1931 10.1982 9.95408 10.4958 9.95408C10.8008 9.95408 11.0398 10.1931 11.0398 10.4981C11.0398 10.7957 10.8008 11.0347 10.4958 11.0347Z"
                     fill="currentColor" fill-opacity="0.85" />
       </g>
</svg>