<?xml version="1.0" encoding="UTF-8"?>
<!--Generator: Apple Native CoreSVG 326-->
<!DOCTYPE svg PUBLIC "-//W3C//DTD SVG 1.1//EN" "http://www.w3.org/Graphics/SVG/1.1/DTD/svg11.dtd">
<svg version="1.1" xmlns="http://www.w3.org/2000/svg" xmlns:xlink="http://www.w3.org/1999/xlink"
       viewBox="0 0 28.5478 22.5007">
       <g>
              <rect height="22.5007" opacity="0" width="28.5478" x="0" y="0" />
              <path d="M7.39913 16.1166L8.71979 16.1166C9.21948 16.1166 9.59506 15.8151 9.7151 15.3246L10.0908 13.8103C10.3046 13.7276 10.516 13.6448 10.7131 13.5529L12.0396 14.3646C12.4588 14.6271 12.9665 14.5754 13.3071 14.2274L14.2446 13.295C14.5903 12.9395 14.6242 12.4146 14.3669 12.0005L13.5575 10.6884C13.6523 10.4965 13.7396 10.2948 13.8028 10.0983L15.3246 9.73002C15.8197 9.61229 16.1189 9.2344 16.1189 8.73702L16.1189 7.43358C16.1189 6.93105 15.8197 6.55832 15.3246 6.44058L13.8224 6.06257C13.7546 5.85167 13.6597 5.64999 13.577 5.46499L14.3744 4.10866C14.6369 3.65495 14.6145 3.18171 14.2567 2.84113L13.3071 1.91109C12.9516 1.56766 12.4634 1.51422 12.0666 1.76176L10.7131 2.5982C10.5183 2.50109 10.3143 2.41605 10.0908 2.34308L9.7151 0.791987C9.60252 0.308982 9.21948 0 8.71979 0L7.39913 0C6.89945 0 6.52156 0.308982 6.40382 0.791987L6.02812 2.31609C5.81437 2.39883 5.60062 2.48156 5.39608 2.58844L4.05983 1.75429C3.6555 1.50676 3.16734 1.56535 2.81183 1.91109L1.86226 2.84113C1.51191 3.18171 1.48207 3.65495 1.74453 4.10866L2.54191 5.46499C2.45918 5.64999 2.37183 5.85167 2.29656 6.06257L0.791987 6.44058C0.299217 6.55832 0 6.93105 0 7.43358L0 8.73702C0 9.2344 0.299217 9.61229 0.791987 9.73002L2.31609 10.0983C2.37929 10.2948 2.46664 10.4965 2.56144 10.6884L1.75199 12.0005C1.50215 12.4146 1.52859 12.9395 1.88179 13.295L2.81183 14.2274C3.15988 14.5754 3.66011 14.6271 4.07936 14.3646L5.40585 13.5529C5.60292 13.6448 5.81437 13.7276 6.02812 13.8103L6.40382 15.3246C6.52156 15.8151 6.89945 16.1166 7.39913 16.1166ZM8.06319 10.1838C6.88483 10.1838 5.93053 9.23179 5.93053 8.05112C5.93053 6.88022 6.88483 5.92822 8.06319 5.92822C9.2341 5.92822 10.1884 6.88022 10.1884 8.05112C10.1884 9.23179 9.2341 10.1838 8.06319 10.1838ZM20.638 22.4955L21.7662 22.4955C22.217 22.4955 22.5731 22.2158 22.6713 21.784L22.9786 20.4845C23.1579 20.4166 23.3229 20.3534 23.4981 20.2661L24.6218 20.9756C24.9922 21.2111 25.4488 21.1617 25.7526 20.8579L26.5488 20.0519C26.8601 19.7332 26.9066 19.272 26.6688 18.8941L25.984 17.7727C26.0616 17.6199 26.1197 17.4549 26.1829 17.29L27.4847 16.9804C27.9263 16.8822 28.1864 16.5336 28.1864 16.085L28.1864 14.9666C28.1864 14.5106 27.9263 14.1769 27.4847 14.0689L26.1926 13.7518C26.1271 13.5651 26.0691 13.4001 25.9938 13.2594L26.6838 12.111C26.9215 11.7061 26.8894 11.2765 26.5683 10.9652L25.7452 10.1765C25.4264 9.88475 24.9945 9.8187 24.6316 10.0444L23.4832 10.7562C23.3401 10.6809 23.1579 10.6033 22.9786 10.5499L22.6713 9.22112C22.5731 8.78925 22.217 8.50726 21.7662 8.50726L20.638 8.50726C20.1894 8.50726 19.8483 8.78925 19.7403 9.22112L19.4158 10.5304C19.2411 10.5959 19.0715 10.6591 18.9038 10.739L17.7628 10.0369C17.4022 9.821 16.9554 9.86753 16.6441 10.1765L15.8381 10.9652C15.5171 11.2765 15.4924 11.7061 15.7279 12.111L16.4006 13.2668C16.3426 13.4001 16.2771 13.5651 16.2041 13.7518L14.9218 14.0689C14.4853 14.1769 14.208 14.5255 14.208 14.9666L14.208 16.085C14.208 16.5261 14.4853 16.8822 14.9218 16.9804L16.2311 17.29C16.2845 17.4549 16.35 17.6199 16.4276 17.7727L15.7353 18.8941C15.4901 19.2496 15.5315 19.7332 15.8405 20.0519L16.6441 20.8579C16.9554 21.1617 17.4045 21.2111 17.7824 20.9756L18.9135 20.2736C19.0738 20.3534 19.2485 20.4166 19.4158 20.4845L19.7403 21.784C19.8483 22.2158 20.1894 22.4955 20.638 22.4955ZM21.2021 17.1836C20.2696 17.1836 19.5175 16.4338 19.5175 15.4991C19.5175 14.5666 20.2696 13.8145 21.2021 13.8145C22.1369 13.8145 22.8866 14.5666 22.8866 15.4991C22.8866 16.4338 22.1369 17.1836 21.2021 17.1836Z"
                     fill="currentColor" fill-opacity="0.85" />
       </g>
</svg>