<?xml version="1.0" encoding="UTF-8"?>
<!--Generator: Apple Native CoreSVG 326-->
<!DOCTYPE svg PUBLIC "-//W3C//DTD SVG 1.1//EN" "http://www.w3.org/Graphics/SVG/1.1/DTD/svg11.dtd">
<svg version="1.1" xmlns="http://www.w3.org/2000/svg" xmlns:xlink="http://www.w3.org/1999/xlink"
       viewBox="0 0 28.205 22.1792">
       <g>
              <rect height="22.1792" opacity="0" width="28.205" x="0" y="0" />
              <path d="M7.21655 15.8813L8.65726 15.8813C9.37694 15.8813 10.0047 15.4183 10.1339 14.7303L10.2208 14.3084C10.2278 13.8808 10.237 13.7293 10.2588 13.6748L11.2504 14.2619C11.8455 14.6094 12.5875 14.5359 13.0746 14.0391L14.0707 13.0281C14.5922 12.514 14.6806 11.7817 14.2935 11.1792L13.4929 9.92078C13.4952 10.5159 13.4998 9.96433 13.5021 10.3878L14.7377 10.0799C15.4109 9.91108 15.8738 9.31835 15.8738 8.60097L15.8738 7.2803C15.8738 6.56292 15.4207 5.97019 14.7377 5.80133L13.5021 5.49344C13.4998 5.66327 13.4952 5.65636 13.4929 5.96049L14.2935 4.70206C14.6806 4.09726 14.5922 3.36726 14.0707 2.8532L13.0746 1.84219C12.5875 1.34535 11.8455 1.26438 11.2504 1.61933L9.91563 2.40792C10.5331 2.40562 9.96664 2.40331 10.3827 2.40101L10.1339 1.15101C9.99206 0.470388 9.3844 0 8.65726 0L7.21655 0C6.49687 0 5.89152 0.470388 5.73988 1.15101L5.48137 2.40101C5.63628 2.40331 5.62937 2.40562 5.94842 2.40792L4.63085 1.61933C4.03581 1.25691 3.28628 1.34535 2.79922 1.84219L1.80312 2.8532C1.29652 3.3598 1.20293 4.09956 1.58027 4.70206L2.38093 5.96049C2.37863 5.36539 2.37402 5.91694 2.37171 5.49344L1.13378 5.80133C0.453162 5.97019 0 6.56292 0 7.2803L0 8.60097C0 9.31835 0.453162 9.91108 1.13378 10.0799L2.37171 10.3878C2.37402 10.218 2.37863 10.2249 2.38093 9.92078L1.58027 11.1792C1.20063 11.7817 1.2816 12.514 1.80312 13.0281L2.79922 14.0391C3.29375 14.5359 4.01112 14.6094 4.61362 14.2619L5.62245 13.6748C5.62937 13.6472 5.64605 13.6496 5.65296 14.3084L5.73988 14.7303C5.86914 15.4183 6.49687 15.8813 7.21655 15.8813ZM7.43194 13.9769C7.36413 13.9769 7.50928 14.0848 7.48745 14.0146L7.03022 12.1271C6.45702 12.0272 5.96019 11.7601 5.57362 11.5373L3.92336 12.5247C3.863 12.5511 4.02593 12.5884 3.97995 12.5425L3.27506 11.8473C3.22909 11.8014 3.26409 11.9792 3.29284 11.9212L4.27049 10.3105C4.17569 9.98023 3.80987 9.45125 3.72252 8.82406L1.8471 8.3766C1.77929 8.36223 1.88713 8.50738 1.88713 8.4321L1.88713 7.44917C1.88713 7.3739 1.77929 7.51905 1.8471 7.50467L3.72252 7.05721C3.80987 6.43003 4.17569 5.90105 4.27049 5.57077L3.29284 3.96011C3.26409 3.90207 3.22909 4.07991 3.27506 4.03393L3.97995 3.33881C4.02593 3.29284 3.863 3.32268 3.92336 3.35659L5.57362 4.34401C5.96019 4.12116 6.45702 3.85409 7.03022 3.75413L7.48745 1.86663C7.50928 1.79651 7.36413 1.90436 7.43194 1.90436L8.44187 1.90436C8.50968 1.90436 8.37199 1.79651 8.38637 1.86663L8.84359 3.75413C9.41679 3.85409 9.91363 4.12116 10.3076 4.34401L11.9505 3.35659C12.0085 3.32268 11.8479 3.29284 11.8939 3.33881L12.5987 4.03393C12.6447 4.07991 12.6172 3.90207 12.581 3.96011L11.6033 5.57077C11.6981 5.90105 12.0714 6.43003 12.1587 7.05721L14.0267 7.50467C14.0945 7.51905 13.9867 7.3739 13.9867 7.44917L13.9867 8.4321C13.9867 8.50738 14.0945 8.36223 14.0267 8.3766L12.1587 8.82406C12.0714 9.45125 11.6981 9.98023 11.6033 10.3105L12.581 11.9212C12.6172 11.9792 12.6447 11.8014 12.5987 11.8473L11.8939 12.5425C11.8479 12.5884 12.0085 12.5511 11.9505 12.5247L10.3076 11.5373C9.91363 11.7601 9.41679 12.0272 8.84359 12.1271L8.38637 14.0146C8.37199 14.0848 8.50968 13.9769 8.44187 13.9769ZM20.5536 22.1597L21.6916 22.1597C22.3676 22.1597 22.9483 21.7404 23.0585 21.1281L23.2291 20.1717C23.0765 20.1694 23.0835 20.167 22.7696 20.1647L23.8011 20.7942C24.3473 21.1297 25.0308 21.0561 25.496 20.5788L26.3019 19.7654C26.7746 19.2755 26.8527 18.5921 26.4978 18.0533L25.8511 17.0884C25.8534 17.6611 25.8557 17.1268 25.8603 17.5354L26.8122 17.3377C27.4147 17.2229 27.8437 16.6468 27.8437 15.9857L27.8437 14.8771C27.8437 14.2183 27.4147 13.6399 26.8122 13.525L25.8603 13.3372C25.8557 13.4921 25.8534 13.4852 25.8511 13.7744L26.4978 12.8095C26.8527 12.2707 26.7746 11.5896 26.3019 11.0996L25.496 10.2839C25.0308 9.80893 24.3473 9.73311 23.8011 10.0685L22.7696 10.698C23.3744 10.6957 22.8229 10.6934 23.2291 10.6911L23.0585 9.73694C22.9483 9.12237 22.3676 8.70311 21.6916 8.70311L20.5536 8.70311C19.8776 8.70311 19.2969 9.12237 19.1918 9.73694L19.0137 10.6911C19.1686 10.6934 19.1617 10.6957 19.4733 10.698L18.4418 10.0685C17.8956 9.73311 17.2144 9.80893 16.7567 10.2839L15.9507 11.0996C15.4706 11.5896 15.3999 12.2707 15.7451 12.8095L16.3918 13.7744C16.3895 13.2017 16.3872 13.7458 16.3849 13.3372L15.4405 13.525C14.8282 13.6399 14.4067 14.2183 14.4067 14.8771L14.4067 15.9857C14.4067 16.6468 14.8282 17.2229 15.4405 17.3377L16.3849 17.5354C16.3872 17.373 16.3895 17.3776 16.3918 17.0884L15.7451 18.0533C15.3999 18.5921 15.4706 19.2755 15.9507 19.7654L16.7567 20.5788C17.2144 21.0561 17.8956 21.1297 18.4418 20.7942L19.4733 20.1647C18.8708 20.167 19.4223 20.1694 19.0137 20.1717L19.1918 21.1281C19.2969 21.7404 19.8776 22.1597 20.5536 22.1597ZM20.8523 20.346C20.7649 20.346 20.8705 20.3994 20.8561 20.3315L20.4695 18.8283C19.9968 18.7404 19.6005 18.5813 19.1697 18.2775L17.8348 19.1012C17.8313 19.0978 17.8829 19.1477 17.842 19.1092L17.4324 18.6875C17.3893 18.6444 17.4318 18.7006 17.4307 18.6947L18.2027 17.4488C18.1917 17.1921 17.7863 16.6528 17.7185 16.0698L16.2026 15.7028C16.1497 15.6907 16.2105 15.7916 16.2105 15.7238L16.2105 15.139C16.2105 15.0712 16.1497 15.1721 16.2026 15.16L17.7185 14.793C17.7863 14.21 18.1917 13.673 18.2027 13.4214L17.4307 12.168C17.4318 12.1645 17.3893 12.2184 17.4324 12.1752L17.842 11.7559C17.8829 11.7151 17.8313 11.765 17.8348 11.7639L19.1697 12.5853C19.6005 12.2838 19.9968 12.1224 20.4695 12.0345L20.8561 10.5312C20.8705 10.4634 20.7649 10.5167 20.8523 10.5167L21.3906 10.5167C21.4779 10.5167 21.3724 10.4634 21.3942 10.5312L21.7733 12.0345C22.2535 12.1224 22.6424 12.2838 23.0731 12.5853L24.4081 11.7639C24.4213 11.765 24.3675 11.7151 24.4008 11.7559L24.8128 12.1752C24.8536 12.2184 24.8111 12.1645 24.8145 12.168L24.0402 13.4214C24.0609 13.673 24.464 14.21 24.5244 14.793L26.0403 15.16C26.1006 15.1721 26.0398 15.0712 26.0398 15.139L26.0398 15.7238C26.0398 15.7916 26.1006 15.6907 26.0403 15.7028L24.5244 16.0698C24.464 16.6528 24.0609 17.1921 24.0402 17.4488L24.8145 18.6947C24.8111 18.7006 24.8536 18.6444 24.8128 18.6875L24.4008 19.1092C24.3675 19.1477 24.4213 19.0978 24.4081 19.1012L23.0731 18.2775C22.6424 18.5813 22.2535 18.7404 21.7733 18.8283L21.3942 20.3315C21.3724 20.3994 21.4779 20.346 21.3906 20.346ZM7.93691 10.8264C9.5207 10.8264 10.819 9.53046 10.819 7.93691C10.819 6.35081 9.5207 5.05483 7.93691 5.05483C6.35081 5.05483 5.05253 6.35081 5.05253 7.93691C5.05253 9.53046 6.35081 10.8264 7.93691 10.8264ZM7.93691 9.01731C7.33866 9.01731 6.86166 8.53516 6.86166 7.93691C6.86166 7.33866 7.33866 6.86396 7.93691 6.86396C8.53285 6.86396 9.01731 7.33866 9.01731 7.93691C9.01731 8.53516 8.53285 9.01731 7.93691 9.01731ZM21.1229 17.7114C22.3826 17.7114 23.4029 16.6912 23.4029 15.4314C23.4029 14.1716 22.3826 13.1537 21.1229 13.1537C19.8556 13.1537 18.8452 14.1716 18.8452 15.4314C18.8452 16.6912 19.8556 17.7114 21.1229 17.7114ZM21.1229 16.1429C20.7332 16.1429 20.4137 15.821 20.4137 15.4314C20.4137 15.0492 20.7332 14.7222 21.1229 14.7222C21.5051 14.7222 21.8269 15.0492 21.8269 15.4314C21.8269 15.821 21.5051 16.1429 21.1229 16.1429Z"
                     fill="currentColor" fill-opacity="0.85" />
       </g>
</svg>