<?xml version="1.0" encoding="UTF-8"?>
<!--Generator: Apple Native CoreSVG 326-->
<!DOCTYPE svg PUBLIC "-//W3C//DTD SVG 1.1//EN" "http://www.w3.org/Graphics/SVG/1.1/DTD/svg11.dtd">
<svg version="1.1" xmlns="http://www.w3.org/2000/svg" xmlns:xlink="http://www.w3.org/1999/xlink"
       viewBox="0 0 21.365 21.006">
       <g>
              <rect height="21.006" opacity="0" width="21.365" x="0" y="0" />
              <path d="M10.4981 20.9962C16.302 20.9962 21.0037 16.2946 21.0037 10.4981C21.0037 4.70163 16.302 0 10.4981 0C4.70163 0 0 4.70163 0 10.4981C0 16.2946 4.70163 20.9962 10.4981 20.9962ZM10.4981 17.9484C6.37829 17.9484 3.04785 14.6179 3.04785 10.4981C3.04785 6.37829 6.37829 3.04785 10.4981 3.04785C14.6179 3.04785 17.9558 6.37829 17.9558 10.4981C17.9558 14.6179 14.6179 17.9484 10.4981 17.9484Z"
                     fill="currentColor" fill-opacity="0.85" />
              <path d="M10.085 15.5195L10.9141 15.5195C11.2644 15.5195 11.5441 15.2915 11.6251 14.9486L11.836 14.0831C11.9292 14.0446 12.0246 14.0089 12.1109 13.9733L12.8672 14.4387C13.1635 14.6174 13.5391 14.5904 13.7792 14.3429L14.3457 13.7666C14.5955 13.5116 14.6248 13.1388 14.4364 12.8425L13.9807 12.0885C14.0164 12.0074 14.0498 11.924 14.0883 11.8308L14.9635 11.632C15.3064 11.5487 15.5321 11.269 15.5321 10.9015L15.5321 10.1017C15.5321 9.75131 15.3064 9.45901 14.9635 9.38319L14.098 9.17975C14.0572 9.08197 14.0216 8.99111 13.983 8.91232L14.4485 8.1486C14.6398 7.83962 14.6099 7.48411 14.3503 7.22681L13.7717 6.65282C13.5242 6.42997 13.1957 6.37368 12.8844 6.54255L12.1109 7.02525C12.0246 6.98443 11.9315 6.94876 11.8435 6.91024L11.6251 6.03273C11.5367 5.68238 11.2644 5.45668 10.9141 5.45668L10.085 5.45668C9.72717 5.45668 9.44749 5.68238 9.37397 6.04019L9.16307 6.90794C9.06244 6.93899 8.96697 6.97982 8.87841 7.01779L8.10723 6.54255C7.80571 6.37368 7.46974 6.41274 7.21989 6.65282L6.64129 7.22681C6.38915 7.48411 6.35184 7.83962 6.54309 8.1486L7.00857 8.91232C6.97005 8.99111 6.93438 9.08197 6.89356 9.17975L6.03558 9.38319C5.6927 9.45901 5.4693 9.75131 5.4693 10.1017L5.4693 10.9015C5.4693 11.269 5.6927 11.5487 6.03558 11.632L6.90333 11.8308C6.94185 11.924 6.97521 12.0074 7.01087 12.0885L6.56262 12.8425C6.37423 13.1388 6.39606 13.5116 6.65337 13.7666L7.21243 14.3429C7.45481 14.5904 7.8304 14.6174 8.13192 14.4387L8.88072 13.9733C8.97443 14.0089 9.06244 14.0446 9.16307 14.0831L9.37397 14.9486C9.44749 15.2915 9.72717 15.5195 10.085 15.5195ZM10.4958 12.034C9.64771 12.034 8.95017 11.3364 8.95017 10.4883C8.95017 9.63279 9.64771 8.94271 10.4958 8.94271C11.3514 8.94271 12.0414 9.63279 12.0414 10.4883C12.0414 11.3364 11.3514 12.034 10.4958 12.034Z"
                     fill="currentColor" fill-opacity="0.85" />
       </g>
</svg>