<?xml version="1.0" encoding="UTF-8"?>
<!--Generator: Apple Native CoreSVG 326-->
<!DOCTYPE svg PUBLIC "-//W3C//DTD SVG 1.1//EN" "http://www.w3.org/Graphics/SVG/1.1/DTD/svg11.dtd">
<svg version="1.1" xmlns="http://www.w3.org/2000/svg" xmlns:xlink="http://www.w3.org/1999/xlink"
       viewBox="0 0 25.93 19.7775">
       <g>
              <rect height="19.7775" opacity="0" width="25.93" x="0" y="0" />
              <path d="M24.0332 0C23.1891 0 22.488 0.701124 22.488 1.53775L22.488 8.33863L18.0727 8.33863L18.0727 1.53775C18.0727 0.701124 17.3738 0 16.5372 0C15.6931 0 14.992 0.701124 14.992 1.53775L14.992 8.33863L10.5767 8.33863L10.5767 1.53775C10.5767 0.701124 9.87784 0 9.04121 0C8.19712 0 7.496 0.701124 7.496 1.53775L7.496 8.33863L3.08066 8.33863L3.08066 1.53775C3.08066 0.701124 2.38184 0 1.54291 0C0.698819 0 0 0.701124 0 1.53775L0 9.88385C0 10.7205 0.698819 11.4193 1.54291 11.4193L7.496 11.4193L7.496 18.2225C7.496 19.0666 8.19712 19.7654 9.04121 19.7654C9.87784 19.7654 10.5767 19.0666 10.5767 18.2225L10.5767 11.4193L14.992 11.4193L14.992 18.2225C14.992 19.0666 15.6931 19.7654 16.5372 19.7654C17.3738 19.7654 18.0727 19.0666 18.0727 18.2225L18.0727 11.4193L22.488 11.4193L22.488 18.2225C22.488 19.0666 23.1891 19.7654 24.0332 19.7654C24.8698 19.7654 25.5687 19.0666 25.5687 18.2225L25.5687 1.53775C25.5687 0.701124 24.8698 0 24.0332 0Z"
                     fill="currentColor" fill-opacity="0.85" />
       </g>
</svg>