<?xml version="1.0" encoding="UTF-8"?>
<!--Generator: Apple Native CoreSVG 326-->
<!DOCTYPE svg PUBLIC "-//W3C//DTD SVG 1.1//EN" "http://www.w3.org/Graphics/SVG/1.1/DTD/svg11.dtd">
<svg version="1.1" xmlns="http://www.w3.org/2000/svg" xmlns:xlink="http://www.w3.org/1999/xlink"
       viewBox="0 0 23.9746 17.61">
       <g>
              <rect height="17.61" opacity="0" width="23.9746" x="0" y="0" />
              <path d="M2.08039 8.2932L2.08039 9.74791L10.0309 9.74791C9.55921 10.5961 8.35568 11.6004 7.36383 11.8215C6.73149 11.9972 6.38114 12.347 6.38114 12.8903C6.38114 13.4618 6.80501 14.0412 7.58547 13.9109C8.86555 13.6765 10.3675 12.4656 10.9672 10.8493L11.0281 10.8493L11.0281 16.9722L12.5828 16.9722L12.5828 10.8493L12.6535 10.8493C13.2458 12.4656 14.7477 13.6765 16.0352 13.9109C16.8082 14.0412 17.2395 13.4618 17.2395 12.8903C17.2395 12.347 16.8892 11.9972 16.2545 11.8215C15.2575 11.6004 14.0517 10.5961 13.5823 9.74791L21.5023 9.74791L21.5023 8.2932L15.9404 8.2932C16.7181 7.7664 17.2044 6.95222 17.2044 5.99779C17.2044 4.75107 16.2416 3.75837 14.9248 3.75837C13.9429 3.75837 13.1154 4.29857 12.5828 5.16808L12.5828 0.949391L11.0281 0.949391L11.0281 5.16808C10.4978 4.29857 9.6778 3.75837 8.69353 3.75837C7.37911 3.75837 6.41396 4.75107 6.41396 5.99779C6.41396 6.95222 6.89514 7.7664 7.6705 8.2932ZM10.6937 8.2437C9.30701 8.2437 8.1341 7.21631 8.1341 6.31412C8.1341 5.79575 8.45649 5.49574 8.95071 5.49574C9.97077 5.49574 10.8747 6.72658 10.8747 8.04487L10.8747 8.2437ZM12.9173 8.2437L12.7437 8.2437L12.7437 8.04487C12.7437 6.72658 13.6402 5.49574 14.6602 5.49574C15.1642 5.49574 15.4843 5.79575 15.4843 6.31412C15.4843 7.21631 14.3137 8.2437 12.9173 8.2437ZM3.64834 17.6048L19.9649 17.6048C22.2992 17.6048 23.6132 16.2856 23.6132 13.968L23.6132 3.63912C23.6132 1.32151 22.2992 0 19.9649 0L3.64834 0C1.32382 0 0 1.32151 0 3.63912L0 13.968C0 16.2856 1.32382 17.6048 3.64834 17.6048ZM4.05583 14.5852C3.37024 14.5852 3.01964 14.2765 3.01964 13.5369L3.01964 4.07021C3.01964 3.33063 3.37024 3.01964 4.05583 3.01964L19.5574 3.01964C20.2384 3.01964 20.5936 3.33063 20.5936 4.07021L20.5936 13.5369C20.5936 14.2765 20.2384 14.5852 19.5574 14.5852Z"
                     fill="currentColor" fill-opacity="0.85" />
       </g>
</svg>