<?xml version="1.0" encoding="UTF-8"?>
<!--Generator: Apple Native CoreSVG 326-->
<!DOCTYPE svg PUBLIC "-//W3C//DTD SVG 1.1//EN" "http://www.w3.org/Graphics/SVG/1.1/DTD/svg11.dtd">
<svg version="1.1" xmlns="http://www.w3.org/2000/svg" xmlns:xlink="http://www.w3.org/1999/xlink"
       viewBox="0 0 20.4239 22.4526">
       <g>
              <rect height="22.4526" opacity="0" width="20.4239" x="0" y="0" />
              <path d="M4.16082 21.5953L15.9017 21.5953C17.775 21.5953 18.8503 20.5315 18.8503 18.6858L18.8503 13.2941L18.8664 13.2941C19.681 12.9071 20.0625 12.072 20.0625 10.8073L20.0625 8.61195C20.0625 6.86845 19.0777 5.81807 17.3864 5.81807L16.5478 5.81807C17.0803 5.24081 17.4054 4.48546 17.4054 3.62268C17.4054 1.51179 15.7023 0 13.6064 0C11.9557 0 10.4722 1.00562 10.0264 2.79916C9.59549 1.00562 8.10686 0 6.4464 0C4.3602 0 2.65485 1.51179 2.65485 3.62268C2.65485 4.48546 2.97997 5.24081 3.51478 5.81807L2.67615 5.81807C1.00386 5.81807 0 6.86845 0 8.61195L0 10.8073C0 12.072 0.379221 12.9071 1.19383 13.2941L1.20997 13.2941L1.20997 18.6858C1.20997 20.5315 2.28528 21.5953 4.16082 21.5953ZM8.6723 18.9591L5.14849 18.9591C4.50208 18.9591 4.14008 18.5748 4.14008 17.9731L4.14008 13.5937L8.6723 13.5937ZM11.3879 18.9591L11.3879 13.5937L15.9202 13.5937L15.9202 17.9731C15.9202 18.5748 15.5432 18.9591 14.9043 18.9591ZM8.67976 11.0447L3.53164 11.0447C3.14035 11.0447 2.94504 10.8471 2.94504 10.4558L2.94504 8.96855C2.94504 8.57726 3.14035 8.37448 3.53164 8.37448L8.67976 8.37448ZM11.3879 11.0447L11.3879 8.37448L16.5332 8.37448C16.9245 8.37448 17.1175 8.57726 17.1175 8.96855L17.1175 10.523C17.1175 10.9143 16.9245 11.0447 16.5332 11.0447ZM8.71828 5.81807L7.41866 5.81807C6.05705 5.81807 5.28545 5.1056 5.28545 4.09107C5.28545 3.16607 5.85034 2.51122 6.84995 2.51122C7.87031 2.51122 8.71828 3.44982 8.71828 4.634ZM11.342 5.81807L11.342 4.634C11.342 3.44982 12.1974 2.51122 13.2103 2.51122C14.2099 2.51122 14.7748 3.16607 14.7748 4.09107C14.7748 5.1056 14.0055 5.81807 12.6416 5.81807Z"
                     fill="currentColor" fill-opacity="0.85" />
       </g>
</svg>