<?xml version="1.0" encoding="UTF-8"?>
<!--Generator: Apple Native CoreSVG 326-->
<!DOCTYPE svg PUBLIC "-//W3C//DTD SVG 1.1//EN" "http://www.w3.org/Graphics/SVG/1.1/DTD/svg11.dtd">
<svg version="1.1" xmlns="http://www.w3.org/2000/svg" xmlns:xlink="http://www.w3.org/1999/xlink"
       viewBox="0 0 21.365 21.006">
       <g>
              <rect height="21.006" opacity="0" width="21.365" x="0" y="0" />
              <path d="M10.7665 17.7169C12.6294 17.7169 14.1546 14.9371 14.5401 14.3178C15.0479 13.4579 14.821 12.6278 14.821 12.1843C14.821 12.0308 15.8039 11.1967 15.8039 10.3528C15.8039 9.44694 13.9064 8.60776 13.9064 8.44787C13.9064 8.31795 14.0271 8.13173 14.0956 8.13173C14.3422 8.13173 15.4043 9.42201 16.0638 9.42201C16.5141 9.42201 16.676 9.1026 16.6905 9.1026C16.8199 9.1026 16.9728 12.003 18.507 12.4569L19.0812 11.2153C17.7739 11.4004 18.3597 7.71733 16.798 7.71733C16.3459 7.71733 16.03 8.09073 15.9834 8.09073C15.9655 8.09073 15.3907 7.62968 15.2175 7.4892C14.9492 7.27206 14.6264 6.94694 14.0468 6.94694C13.3426 6.94694 12.6653 7.70174 12.6653 8.4651C12.6653 9.51463 14.5043 10.1906 14.5043 10.3528C14.5043 10.5028 14.4387 10.6264 14.1296 10.9843C13.692 11.4783 13.5213 11.796 13.5213 12.1843C13.5213 12.3578 13.5409 12.5066 13.5506 12.6456C13.5995 13.2178 13.5702 13.4097 13.4294 13.6625C13.0175 14.2813 11.8426 16.4172 10.7665 16.4172C9.9092 16.4172 9.99193 15.1038 9.99193 13.7135C9.99193 12.2505 8.8442 11.1613 7.30299 11.1613C6.31248 11.1613 5.86029 10.7143 5.86029 9.76975C5.86029 8.5149 7.17834 7.67548 8.64209 7.67548C9.60034 7.67548 10.3736 8.05877 11.1371 8.05877C11.7839 8.05877 12.3623 7.11951 12.3623 6.27002C12.3623 5.30959 10.3862 4.27389 9.80026 4.27389C9.26952 4.27389 9.01222 4.57947 8.98808 5.16486L9.28784 5.11549L9.04995 4.93104C8.73678 4.68799 8.4369 4.53459 8.11057 4.53459C7.40435 4.53459 6.85796 5.68244 6.56881 5.68244C6.50154 5.68244 6.45842 5.63932 6.45842 5.56228C6.45842 5.28927 7.53318 4.4029 7.55041 3.28896L7.56017 2.34873L6.33401 2.34873L6.33401 3.38431C6.33401 4.33982 5.34877 4.71728 5.34877 5.72709C5.34877 6.27111 5.7417 6.62728 6.33456 6.62728C7.31015 6.62728 7.7624 5.56095 8.14908 5.56095C8.3635 5.56325 8.71112 6.1108 9.43839 6.1108C9.79808 6.1108 10.0651 5.85052 10.1501 5.39317L9.89155 5.48853C10.6141 5.77052 11.1361 6.10497 11.1361 6.33553C11.1361 6.50737 11.0734 6.75909 10.9057 6.75909C10.6573 6.75909 9.60604 6.38326 8.64209 6.38326C6.4771 6.38326 4.56061 7.80389 4.56061 9.76975C4.56061 11.4425 5.5894 12.461 7.30299 12.461C8.1085 12.461 8.6848 12.9913 8.6848 13.7135C8.6848 15.0768 8.52624 17.7169 10.7665 17.7169ZM13.3212 4.90896C13.4912 4.90896 13.6567 5.10657 14.0703 5.10657C14.3546 5.10657 14.5803 4.84927 14.5803 4.51099C14.5803 3.98025 13.9984 3.57416 13.243 3.57416C12.3682 3.57416 11.8375 3.87744 11.8375 4.4231C11.8375 4.80275 12.1315 5.07958 12.5037 5.07958C12.8931 5.07958 13.0098 4.90896 13.3212 4.90896ZM10.4981 20.9962C16.302 20.9962 21.0037 16.2946 21.0037 10.4981C21.0037 4.70163 16.302 0 10.4981 0C4.70163 0 0 4.70163 0 10.4981C0 16.2946 4.70163 20.9962 10.4981 20.9962ZM10.4981 18.6684C5.99361 18.6684 2.33532 15.0026 2.33532 10.4981C2.33532 5.99361 5.99361 2.32786 10.4981 2.32786C15.0101 2.32786 18.6684 5.99361 18.6684 10.4981C18.6684 15.0026 15.0101 18.6684 10.4981 18.6684Z"
                     fill="currentColor" fill-opacity="0.85" />
       </g>
</svg>