<?xml version="1.0" encoding="UTF-8"?>
<!--Generator: Apple Native CoreSVG 326-->
<!DOCTYPE svg PUBLIC "-//W3C//DTD SVG 1.1//EN" "http://www.w3.org/Graphics/SVG/1.1/DTD/svg11.dtd">
<svg version="1.1" xmlns="http://www.w3.org/2000/svg" xmlns:xlink="http://www.w3.org/1999/xlink"
       viewBox="0 0 21.365 21.006">
       <g>
              <rect height="21.006" opacity="0" width="21.365" x="0" y="0" />
              <path d="M11.536 16.4707C12.4602 16.4707 12.9479 15.5999 12.9479 13.8237C12.9479 12.4397 14.5553 11.204 15.0782 11.204C15.8601 11.204 15.936 13.9367 18.919 13.9569C19.3372 12.6576 19.5659 11.5432 19.5464 10.5205C19.4435 5.45231 15.2836 1.47037 10.6502 1.53642C8.9549 1.56341 7.35552 2.13212 5.85732 3.22763C6.40419 3.90443 6.47431 4.09216 6.47431 4.39259C6.47431 4.92552 5.75626 5.03524 5.63907 5.67747C5.56095 6.03079 5.33974 6.20954 5.06739 6.20954C4.71868 6.20954 4.24071 5.67947 3.99669 4.80966C2.53294 6.18728 1.76606 8.1549 1.76606 10.501C1.76606 12.1714 2.24798 13.7575 3.25099 15.2799C4.82786 14.999 5.39766 14.4859 5.39766 13.1234C5.39766 12.0491 6.30017 12.0846 6.30017 11.1804C6.30017 10.6784 5.75341 10.2913 5.01747 9.65244L4.39532 9.11533C4.30798 9.04752 4.26661 8.94295 4.26661 8.85099C4.26661 8.64185 4.4447 8.43502 4.66075 8.43502C4.81646 8.43502 4.89634 8.52236 5.38462 8.93482C6.04814 9.49838 6.37787 9.78904 6.79833 9.78904C7.25325 9.78904 7.39919 9.53798 7.62787 9.53798C7.80025 9.53798 7.8922 9.61502 7.97494 9.83393L8.29205 10.7174C8.71021 11.903 9.50935 11.5551 9.71443 12.7367C10.2079 15.605 10.6077 16.4707 11.536 16.4707ZM10.4981 20.9962C16.302 20.9962 21.0037 16.2946 21.0037 10.4981C21.0037 4.70163 16.302 0 10.4981 0C4.70163 0 0 4.70163 0 10.4981C0 16.2946 4.70163 20.9962 10.4981 20.9962ZM10.4981 18.6684C5.99361 18.6684 2.33532 15.0026 2.33532 10.4981C2.33532 5.99361 5.99361 2.32786 10.4981 2.32786C15.0101 2.32786 18.6684 5.99361 18.6684 10.4981C18.6684 15.0026 15.0101 18.6684 10.4981 18.6684Z"
                     fill="currentColor" fill-opacity="0.85" />
       </g>
</svg>