<?xml version="1.0" encoding="UTF-8"?>
<!--Generator: Apple Native CoreSVG 326-->
<!DOCTYPE svg PUBLIC "-//W3C//DTD SVG 1.1//EN" "http://www.w3.org/Graphics/SVG/1.1/DTD/svg11.dtd">
<svg version="1.1" xmlns="http://www.w3.org/2000/svg" xmlns:xlink="http://www.w3.org/1999/xlink"
       viewBox="0 0 20.8425 23.8774">
       <g>
              <rect height="23.8774" opacity="0" width="20.8425" x="0" y="0" />
              <path d="M5.41537 5.60032L7.2225 3.80065L3.84505 0.432963C3.34834-0.0585938 2.53464-0.0660545 2.05284 0.432963C1.55613 0.922216 1.56359 1.73361 2.05284 2.22517ZM18.9444 16.8126L17.1493 14.9808C15.5966 16.6873 13.4459 17.6943 10.9293 17.6943C6.19693 17.6943 2.54962 14.0544 2.54962 9.31459C2.54962 6.80779 3.55657 4.67197 5.2436 3.11408L3.39225 1.3684C1.29234 3.34379 0 6.16405 0 9.31459C0 15.4211 4.83769 20.2439 10.9293 20.2439C14.1068 20.2439 16.9518 18.9395 18.9444 16.8126ZM16.3381 12.926L14.4598 14.6447L18.3151 18.4926C18.8118 18.9744 19.6157 18.9818 20.105 18.4926C20.604 18.0033 20.604 17.1896 20.105 16.6929ZM9.65335 19.3339L9.65335 22.7149L12.203 22.7149L12.203 19.3339ZM7.19217 23.8774L14.6785 23.8774C15.3768 23.8774 15.9522 23.3021 15.9522 22.6038C15.9522 21.9055 15.3768 21.3353 14.6785 21.3353L7.19217 21.3353C6.50136 21.3353 5.91621 21.9055 5.91621 22.6038C5.91621 23.3021 6.50136 23.8774 7.19217 23.8774ZM10.9293 16.7087C15.0187 16.7087 18.3286 13.3988 18.3286 9.31459C18.3286 5.23268 15.0187 1.91534 10.9293 1.91534C6.8451 1.91534 3.53522 5.23268 3.53522 9.31459C3.53522 13.3988 6.8451 16.7087 10.9293 16.7087Z"
                     fill="currentColor" fill-opacity="0.85" />
       </g>
</svg>