<?xml version="1.0" encoding="UTF-8"?>
<!--Generator: Apple Native CoreSVG 326-->
<!DOCTYPE svg PUBLIC "-//W3C//DTD SVG 1.1//EN" "http://www.w3.org/Graphics/SVG/1.1/DTD/svg11.dtd">
<svg version="1.1" xmlns="http://www.w3.org/2000/svg" xmlns:xlink="http://www.w3.org/1999/xlink"
       viewBox="0 0 21.365 21.006">
       <g>
              <rect height="21.006" opacity="0" width="21.365" x="0" y="0" />
              <path d="M10.4981 20.9962C16.302 20.9962 21.0037 16.2946 21.0037 10.4981C21.0037 4.70163 16.302 0 10.4981 0C4.70163 0 0 4.70163 0 10.4981C0 16.2946 4.70163 20.9962 10.4981 20.9962ZM10.4981 17.9484C6.37829 17.9484 3.04785 14.6179 3.04785 10.4981C3.04785 6.37829 6.37829 3.04785 10.4981 3.04785C14.6179 3.04785 17.9558 6.37829 17.9558 10.4981C17.9558 14.6179 14.6179 17.9484 10.4981 17.9484Z"
                     fill="currentColor" fill-opacity="0.85" />
              <path d="M15.7461 7.90421L11.7165 6.06464C11.2575 5.8521 10.8617 5.75214 10.4958 5.75444C10.1299 5.75214 9.73639 5.8521 9.2751 6.06464L5.25524 7.90421C4.90259 8.07077 4.69642 8.36714 4.69642 8.70366C4.69642 9.04995 4.90259 9.34916 5.25524 9.50826L6.56838 10.0818L9.43432 8.76632C9.42971 8.74218 9.42741 8.7278 9.42741 8.70366C9.42741 8.29417 9.9576 8.0271 10.5004 8.0271C11.0507 8.0271 11.5786 8.29417 11.5786 8.70366C11.5786 9.13038 11.0507 9.39229 10.5004 9.39229C10.3292 9.39229 10.1529 9.37276 10.0013 9.31877L7.41842 10.5011L9.2751 11.3501C9.73639 11.5673 10.1299 11.6626 10.4958 11.6454C10.8617 11.6626 11.2575 11.5673 11.7165 11.3501L15.7461 9.50826C16.0913 9.3417 16.3026 9.04995 16.3026 8.70366C16.3026 8.36714 16.0913 8.07077 15.7461 7.90421ZM10.4958 14.1907C12.9099 14.1907 14.8152 13.133 14.8152 11.7084L14.8152 10.7325L12.0175 12.0205C11.4729 12.2646 10.9548 12.3915 10.4958 12.3795C10.0368 12.3915 9.53362 12.2721 8.98159 12.0205L7.4115 11.3012L7.4115 13.4559C8.19045 13.9149 9.28189 14.1907 10.4958 14.1907ZM6.17643 10.7325L6.17643 11.7084C6.17643 12.0618 6.32643 12.4284 6.57299 12.7565L6.57299 10.9089ZM6.57299 14.2775L7.4115 14.2775L7.4115 13.4559C7.06291 13.2647 6.78323 13.0241 6.57299 12.7565ZM6.1239 14.5363L6.1239 15.3212C6.1239 15.7548 6.40073 16.0339 6.82175 16.0339L7.15529 16.0339C7.57631 16.0339 7.87037 15.7548 7.87037 15.3212L7.87037 14.5363C7.87037 14.1078 7.57631 13.8235 7.15529 13.8235L6.82175 13.8235C6.40073 13.8235 6.1239 14.1078 6.1239 14.5363Z"
                     fill="currentColor" fill-opacity="0.85" />
       </g>
</svg>