<?xml version="1.0" encoding="UTF-8"?>
<!--Generator: Apple Native CoreSVG 326-->
<!DOCTYPE svg PUBLIC "-//W3C//DTD SVG 1.1//EN" "http://www.w3.org/Graphics/SVG/1.1/DTD/svg11.dtd">
<svg version="1.1" xmlns="http://www.w3.org/2000/svg" xmlns:xlink="http://www.w3.org/1999/xlink"
       viewBox="0 0 28.7046 28.9177">
       <g>
              <rect height="28.9177" opacity="0" width="28.7046" x="0" y="0" />
              <path d="M14.1668 18.5445C15.0812 18.5617 16.0381 18.317 17.1777 17.8035L26.9461 13.3344C27.8196 12.9444 28.3433 12.1766 28.3433 11.2997C28.3433 10.4251 27.8196 9.65723 26.9461 9.25981L17.1777 4.79068C16.0381 4.27716 15.0812 4.03993 14.1668 4.0497C13.2621 4.03993 12.3052 4.27716 11.1633 4.79068L1.38975 9.25981C0.523705 9.65723 0 10.4251 0 11.2997C0 12.1766 0.523705 12.9444 1.38975 13.3344L11.1633 17.8035C12.3052 18.317 13.2621 18.5617 14.1668 18.5445ZM14.1668 15.5616C13.6267 15.5616 13.1188 15.418 12.3409 15.067L4.50317 11.5049C4.38708 11.4566 4.33879 11.3916 4.33879 11.2997C4.33879 11.21 4.38708 11.1376 4.50317 11.0893L12.3409 7.52724C13.1188 7.18368 13.6267 7.03259 14.1668 7.03259C14.7166 7.03259 15.2222 7.18368 15.9949 7.52724L23.8401 11.0893C23.9539 11.1376 24.0045 11.21 24.0045 11.2997C24.0045 11.3916 23.9539 11.4566 23.8401 11.5049L15.9949 15.067C15.2222 15.418 14.7166 15.5616 14.1668 15.5616ZM3.93543 18.2853C3.93543 21.9215 8.48942 24.4295 14.1668 24.4295C19.8539 24.4295 24.4079 21.9215 24.4079 18.2853L24.4079 13.323L21.6344 13.323L21.6344 18.2853C21.6344 20.11 18.5112 21.7686 14.1668 21.7686C9.83211 21.7686 6.70887 20.11 6.70887 18.2853L6.70887 13.323L3.93543 13.323ZM14.1835 12.9352C15.4918 12.9352 16.7163 12.2851 16.7163 11.2997C16.7163 10.3114 15.4843 9.68598 14.1835 9.68598C12.8774 9.68598 11.6333 10.3263 11.6333 11.2997C11.6333 12.2851 12.8699 12.9352 14.1835 12.9352ZM9.26807 14.6479L13.7982 12.3798L12.8359 10.8293L7.31215 13.6085ZM7.31215 24.1011L9.26807 24.1086L9.26807 14.6479L7.31215 13.6275ZM6.19001 24.4457L6.19001 27.2229C6.19001 28.2406 6.86712 28.9177 7.88481 28.9177L8.68565 28.9177C9.70334 28.9177 10.3804 28.2406 10.3804 27.2229L10.3804 24.4457C10.3804 23.428 9.70334 22.7509 8.68565 22.7509L7.88481 22.7509C6.86712 22.7509 6.19001 23.428 6.19001 24.4457Z"
                     fill="currentColor" fill-opacity="0.85" />
       </g>
</svg>