<?xml version="1.0" encoding="UTF-8"?>
<!--Generator: Apple Native CoreSVG 326-->
<!DOCTYPE svg PUBLIC "-//W3C//DTD SVG 1.1//EN" "http://www.w3.org/Graphics/SVG/1.1/DTD/svg11.dtd">
<svg version="1.1" xmlns="http://www.w3.org/2000/svg" xmlns:xlink="http://www.w3.org/1999/xlink"
       viewBox="0 0 21.365 21.0014">
       <g>
              <rect height="21.0014" opacity="0" width="21.365" x="0" y="0" />
              <path d="M21.0037 10.5033C21.0037 16.2997 16.302 21.0014 10.4981 21.0014C4.70394 21.0014 0 16.2997 0 10.5033C0 4.70909 4.70394 0.0051558 10.4981 0.0051558C16.302 0.0051558 21.0037 4.70909 21.0037 10.5033ZM6.18722 14.1393C5.88515 14.2346 5.69105 14.512 5.69105 14.8824L5.69105 15.7414C5.69105 16.2244 5.99027 16.5259 6.46812 16.5259L6.83151 16.5259C7.29213 16.5259 7.61834 16.2244 7.61834 15.7414L7.61834 14.8824C7.61834 14.5143 7.41448 14.2369 7.10725 14.1416L7.10725 13.7229C6.73167 13.5093 6.41238 13.2365 6.18722 12.9442ZM12.1633 12.1594C11.5694 12.4282 11.0019 12.5551 10.4958 12.5454C9.98975 12.5551 9.43717 12.4356 8.83577 12.1594L7.10725 11.366L7.10725 13.7229C7.96311 14.2238 9.16822 14.5196 10.4958 14.5196C13.1396 14.5196 15.2354 13.3655 15.2354 11.7877L15.2354 10.7405ZM5.7562 11.7877C5.7562 12.1829 5.91366 12.5891 6.18722 12.9442L6.18722 10.9365L5.7562 10.7405ZM9.16143 5.62257L4.75119 7.6275C4.37385 7.80152 4.13784 8.1375 4.13784 8.51132C4.13784 8.89721 4.37385 9.23604 4.75119 9.4026L6.18261 10.0278L9.33042 8.57628C9.32581 8.55445 9.3235 8.53546 9.3235 8.51132C9.3235 8.05476 9.90307 7.77277 10.5004 7.77277C11.115 7.77277 11.6825 8.05476 11.6825 8.51132C11.6825 8.97764 11.115 9.27916 10.5004 9.27916C10.3069 9.27916 10.1133 9.24471 9.95421 9.19073L7.11932 10.4867L9.16143 11.4196C9.66463 11.6494 10.0903 11.7619 10.4958 11.7522C10.9014 11.7619 11.3367 11.6494 11.8376 11.4196L16.2427 9.4026C16.6275 9.22858 16.8612 8.89721 16.8612 8.51132C16.8612 8.1375 16.6275 7.80152 16.2427 7.6275L11.8376 5.62257C11.3293 5.39281 10.9014 5.27047 10.4958 5.27277C10.0903 5.27047 9.67209 5.39281 9.16143 5.62257Z"
                     fill="currentColor" fill-opacity="0.85" />
       </g>
</svg>