<?xml version="1.0" encoding="UTF-8"?>
<!--Generator: Apple Native CoreSVG 326-->
<!DOCTYPE svg PUBLIC "-//W3C//DTD SVG 1.1//EN" "http://www.w3.org/Graphics/SVG/1.1/DTD/svg11.dtd">
<svg version="1.1" xmlns="http://www.w3.org/2000/svg" xmlns:xlink="http://www.w3.org/1999/xlink"
       viewBox="0 0 13.5379 19.0316">
       <g>
              <rect height="19.0316" opacity="0" width="13.5379" x="0" y="0" />
              <path d="M13.1766 17.1766C13.1766 16.1161 12.4404 15.3823 11.3823 15.3823L1.80173 15.3823C0.736123 15.3823 0 16.1161 0 17.1766C0 18.2468 0.736123 18.9806 1.80173 18.9806L11.3823 18.9806C12.4404 18.9806 13.1766 18.2468 13.1766 17.1766ZM1.97951 13.1594C2.51407 13.1594 3.00551 13.0239 3.46195 12.7994L11.218 9.08974C12.4783 8.48057 13.1766 7.79152 13.1766 6.5622C13.1766 5.35011 12.4708 4.67137 11.218 4.0645L3.46195 0.327846C3.04742 0.120584 2.57837 0 2.09318 0C1.01835 0 0.261609 0.829048 0.261609 1.90618C0.261609 2.81796 0.737032 3.38006 1.71936 3.77221L8.12633 6.45763L8.12633 6.56505L1.70444 9.24774C0.642347 9.66973 0.261609 10.2421 0.261609 11.1987C0.261609 12.273 0.926521 13.1594 1.97951 13.1594Z"
                     fill="currentColor" fill-opacity="0.85" />
       </g>
</svg>