<?xml version="1.0" encoding="UTF-8"?>
<!--Generator: Apple Native CoreSVG 326-->
<!DOCTYPE svg PUBLIC "-//W3C//DTD SVG 1.1//EN" "http://www.w3.org/Graphics/SVG/1.1/DTD/svg11.dtd">
<svg version="1.1" xmlns="http://www.w3.org/2000/svg" xmlns:xlink="http://www.w3.org/1999/xlink"
       viewBox="0 0 19.3993 19.0529">
       <g>
              <rect height="19.0529" opacity="0" width="19.3993" x="0" y="0" />
              <path d="M19.0379 3.63912L19.0379 15.4011C19.0379 17.7262 17.7164 19.0379 15.3896 19.0379L3.64834 19.0379C1.32382 19.0379 0 17.7262 0 15.4011L0 3.63912C0 1.32151 1.32382 0 3.64834 0L15.3896 0C17.7164 0 19.0379 1.32151 19.0379 3.63912ZM5.90499 6.73828C5.90499 7.35789 6.20991 7.72886 6.98564 8.02862L10.3846 9.47787L10.3846 9.58123L6.98564 11.0092C6.2076 11.309 5.90499 11.6753 5.90499 12.2972C5.90499 13.0621 6.43791 13.5927 7.18502 13.5927C7.45724 13.5927 7.69095 13.5364 7.93673 13.4158L13.4278 10.731C13.9797 10.464 14.2846 10.1131 14.2846 9.56631C14.2846 8.99893 13.99 8.61874 13.4278 8.33445L7.93673 5.62427C7.68864 5.50885 7.45724 5.4451 7.17294 5.4451C6.43561 5.4451 5.90499 5.97572 5.90499 6.73828Z"
                     fill="currentColor" fill-opacity="0.85" />
       </g>
</svg>