<?xml version="1.0" encoding="UTF-8"?>
<!--Generator: Apple Native CoreSVG 326-->
<!DOCTYPE svg PUBLIC "-//W3C//DTD SVG 1.1//EN" "http://www.w3.org/Graphics/SVG/1.1/DTD/svg11.dtd">
<svg version="1.1" xmlns="http://www.w3.org/2000/svg" xmlns:xlink="http://www.w3.org/1999/xlink"
       viewBox="0 0 18.0185 23.8906">
       <g>
              <rect height="23.8906" opacity="0" width="18.0185" x="0" y="0" />
              <path d="M2.56939 21.8659L13.6036 23.8178C16.0549 24.2417 17.6572 22.787 17.6572 20.1301L17.6572 8.33554C17.6572 5.87685 16.5612 4.78061 13.9929 4.33436L3.30849 2.44851C1.39776 2.11484 0 3.2892 0 5.22286L0 18.8939C0 20.5129 0.921124 21.5765 2.56939 21.8659ZM3.38497 9.17157L3.38497 7.10356C3.38497 6.33844 3.8715 5.96395 4.65845 6.09837L6.65361 6.44708C7.61962 6.6211 7.37669 8.26652 6.27056 8.06781L5.33216 7.90804C5.15625 7.87413 5.05969 7.9391 5.05969 8.10578L5.05969 9.23531C5.05969 10.2381 3.38497 10.2381 3.38497 9.17157ZM12.5641 10.6515L12.5641 9.63504C12.5641 9.33461 12.4762 9.16956 12.094 9.10921L11.3133 8.97019C10.1859 8.76171 10.453 7.12606 11.6177 7.33454L12.6706 7.51778C13.7994 7.72055 14.2463 8.20938 14.2463 9.17727L14.2463 10.6515C14.2463 11.8185 12.5641 11.7329 12.5641 10.6515ZM5.05969 15.728L5.05969 16.7444C5.05969 17.0448 5.15504 17.2099 5.53723 17.2777L6.31048 17.4167C7.44535 17.6154 7.17828 19.2534 6.01357 19.0449L4.96064 18.8617C3.82443 18.6664 3.38497 18.1701 3.38497 17.2022L3.38497 15.728C3.38497 14.561 5.05969 14.6466 5.05969 15.728ZM14.2463 17.2079L14.2463 19.2834C14.2463 20.041 13.7598 20.4155 12.9728 20.2811L10.98 19.9324C10.0065 19.7658 10.2546 18.1204 11.3532 18.3116L12.2991 18.4789C12.4676 18.5053 12.5641 18.4404 12.5641 18.2811L12.5641 17.1516C12.5641 16.1414 14.2463 16.1414 14.2463 17.2079ZM6.51119 1.5414L14.2422 2.89894C15.2961 3.08273 16.1611 3.38425 16.8618 3.79889L16.8543 3.49458C16.6902 1.19529 14.8581 0.0695158 12.111 0.546818Z"
                     fill="currentColor" fill-opacity="0.85" />
       </g>
</svg>