<?xml version="1.0" encoding="UTF-8"?>
<!--Generator: Apple Native CoreSVG 326-->
<!DOCTYPE svg PUBLIC "-//W3C//DTD SVG 1.1//EN" "http://www.w3.org/Graphics/SVG/1.1/DTD/svg11.dtd">
<svg version="1.1" xmlns="http://www.w3.org/2000/svg" xmlns:xlink="http://www.w3.org/1999/xlink"
       viewBox="0 0 24.6449 23.5952">
       <g>
              <rect height="23.5952" opacity="0" width="24.6449" x="0" y="0" />
              <path d="M13.7186 0.416404L22.6254 5.55167C23.136 5.85374 23.3841 6.25686 23.3841 6.69158C23.3841 7.28595 22.9074 7.89293 22.1092 7.89293L21.3244 7.89293L21.3244 19.392L21.7032 19.392C22.2379 19.392 22.5744 19.7159 22.5744 20.2632L22.5744 21.1701L23.0673 21.1701C23.7134 21.1701 24.2836 21.7231 24.2836 22.3766C24.2836 23.0525 23.7134 23.5854 23.0673 23.5854L1.20651 23.5854C0.553002 23.5854 0 23.045 0 22.3766C0 21.7231 0.553002 21.1701 1.20651 21.1701L1.94045 21.1701L1.94045 20.2632C1.94045 19.7159 2.27927 19.392 2.81396 19.392L3.19045 19.392L3.19045 7.89293L2.41314 7.89293C1.60745 7.89293 1.13081 7.28595 1.13081 6.69158C1.13081 6.25686 1.37659 5.85374 1.88944 5.55167L10.7963 0.416404C11.242 0.154491 11.7664 0 12.2563 0C12.7462 0 13.2683 0.154491 13.7186 0.416404ZM12.0459 7.85017L12.0459 8.48627C9.5748 8.62475 8.23758 10.3575 8.23758 12.9142C8.23758 15.5088 9.55879 17.1933 12.0459 17.349L12.0459 17.9725C12.0459 18.1356 12.1775 18.2523 12.3303 18.2523C12.4884 18.2523 12.6125 18.1356 12.6125 17.9725L12.6125 17.3587C14.8348 17.2765 16.2351 15.8985 16.2351 13.7632L16.2351 13.6199C16.2351 12.9355 15.8516 12.4675 15.1792 12.4675L12.6125 12.4675L12.6125 10.2227C13.2595 10.3003 13.732 10.6481 14.0307 11.1745C14.2673 11.5146 14.5383 11.7385 15.0195 11.7385C15.5708 11.7385 15.9325 11.3716 15.9325 10.8204C15.9325 10.6263 15.8832 10.408 15.7924 10.2099C15.2215 9.0787 13.8797 8.55409 12.6125 8.48627L12.6125 7.85017C12.6125 7.6847 12.4884 7.56806 12.3303 7.56806C12.1775 7.56806 12.0459 7.6847 12.0459 7.85017ZM14.0905 14.1887C14.0681 15.0101 13.4929 15.5648 12.6125 15.6102L12.6125 13.9192L14.1129 13.9192ZM12.0459 15.5855C10.8984 15.346 10.4701 14.1526 10.4701 12.882C10.4701 11.6517 10.8449 10.425 12.0459 10.2474Z"
                     fill="currentColor" fill-opacity="0.85" />
       </g>
</svg>