<?xml version="1.0" encoding="UTF-8"?>
<!--Generator: Apple Native CoreSVG 326-->
<!DOCTYPE svg PUBLIC "-//W3C//DTD SVG 1.1//EN" "http://www.w3.org/Graphics/SVG/1.1/DTD/svg11.dtd">
<svg version="1.1" xmlns="http://www.w3.org/2000/svg" xmlns:xlink="http://www.w3.org/1999/xlink"
       viewBox="0 0 24.6449 23.5952">
       <g>
              <rect height="23.5952" opacity="0" width="24.6449" x="0" y="0" />
              <path d="M1.94045 20.4256L22.5744 20.4256L22.5744 19.4355C22.5744 18.8957 22.2379 18.5718 21.7032 18.5718L21.3244 18.5718L21.3244 7.89293L22.1092 7.89293C22.9074 7.89293 23.3841 7.28595 23.3841 6.69158C23.3841 6.25686 23.136 5.85374 22.6254 5.55167L13.7186 0.416404C13.2683 0.154491 12.7462 0 12.2563 0C11.7664 0 11.242 0.154491 10.7963 0.416404L1.88944 5.55167C1.37659 5.85374 1.13081 6.25686 1.13081 6.69158C1.13081 7.28595 1.60745 7.89293 2.41314 7.89293L3.19045 7.89293L3.19045 18.5718L2.81396 18.5718C2.27927 18.5718 1.94045 18.8957 1.94045 19.4355ZM5.29922 18.5718L5.29922 6.39673L12.047 2.62732C12.1194 2.5888 12.1965 2.57212 12.2563 2.57212C12.331 2.57212 12.3931 2.5888 12.4679 2.62732L19.2157 6.39673L19.2157 18.5718ZM1.20651 23.5854L23.0673 23.5854C23.7134 23.5854 24.2836 23.0525 24.2836 22.3766C24.2836 21.7231 23.7134 21.1701 23.0673 21.1701L1.20651 21.1701C0.553002 21.1701 0 21.7231 0 22.3766C0 23.045 0.553002 23.5854 1.20651 23.5854Z"
                     fill="currentColor" fill-opacity="0.85" />
              <path d="M12.4142 15.6889C14.6045 15.6889 15.9762 14.3728 15.9762 12.3179L15.9762 12.174C15.9762 11.5343 15.6248 11.1008 14.9995 11.1008L12.52 11.1008L12.52 12.4538L13.9975 12.4538L13.99 12.7061C13.9676 13.5338 13.3665 14.0638 12.4463 14.0638C11.0667 14.0638 10.5706 12.8192 10.5706 11.4906C10.5706 10.2321 10.9886 8.97892 12.3671 8.97892C13.0946 8.97892 13.612 9.32897 13.9325 9.88652C14.1444 10.2019 14.4005 10.4109 14.8547 10.4109C15.3664 10.4109 15.6983 10.0664 15.6983 9.55473C15.6983 9.36809 15.6564 9.17453 15.5656 8.99129C14.9976 7.85375 13.616 7.36128 12.3522 7.36128C9.84703 7.36128 8.48906 9.02914 8.48906 11.5153C8.48906 14.0693 9.85801 15.6889 12.4142 15.6889ZM12.328 16.5284C12.4711 16.5284 12.5855 16.4141 12.5855 16.2658L12.5855 6.76655C12.5855 6.6137 12.4711 6.50167 12.328 6.50167C12.1775 6.50167 12.0557 6.6137 12.0557 6.76655L12.0557 16.2658C12.0557 16.4141 12.1775 16.5284 12.328 16.5284Z"
                     fill="currentColor" fill-opacity="0.85" />
       </g>
</svg>