<?xml version="1.0" encoding="UTF-8"?>
<!--Generator: Apple Native CoreSVG 326-->
<!DOCTYPE svg PUBLIC "-//W3C//DTD SVG 1.1//EN" "http://www.w3.org/Graphics/SVG/1.1/DTD/svg11.dtd">
<svg version="1.1" xmlns="http://www.w3.org/2000/svg" xmlns:xlink="http://www.w3.org/1999/xlink"
       viewBox="0 0 15.9604 21.6805">
       <g>
              <rect height="21.6805" opacity="0" width="15.9604" x="0" y="0" />
              <path d="M8.16752 19.5314C12.6872 19.5314 15.5991 16.8395 15.5991 12.5053L15.5991 12.2071C15.5991 10.8647 14.8761 9.98053 13.5832 9.98053L8.39741 9.98053L8.39741 12.7644L11.5289 12.7644L11.5065 13.3103C11.4841 15.1012 10.1533 16.1919 8.25189 16.1919C5.3691 16.1919 4.27177 13.6126 4.27177 10.7693C4.27177 7.94267 5.29625 5.47476 8.06307 5.47476C9.49583 5.47476 10.6753 6.11814 11.3766 7.40265C11.8382 8.13374 12.4209 8.50186 13.2857 8.50186C14.3204 8.50186 15.0249 7.76234 15.0249 6.72767C15.0249 6.34747 14.9141 5.89783 14.7418 5.55494C13.6356 3.22872 10.6683 2.14043 8.05561 2.14043C2.93921 2.14043 0 5.43302 0 10.8215C0 16.1223 2.798 19.5314 8.16752 19.5314ZM7.98264 21.6455C8.29635 21.6455 8.53764 21.4019 8.53764 21.0807L8.53764 0.562463C8.53764 0.24129 8.29635 0 7.98264 0C7.66893 0 7.42533 0.24129 7.42533 0.562463L7.42533 21.0807C7.42533 21.4019 7.66893 21.6455 7.98264 21.6455Z"
                     fill="currentColor" fill-opacity="0.85" />
       </g>
</svg>