<?xml version="1.0" encoding="UTF-8"?>
<!--Generator: Apple Native CoreSVG 326-->
<!DOCTYPE svg PUBLIC "-//W3C//DTD SVG 1.1//EN" "http://www.w3.org/Graphics/SVG/1.1/DTD/svg11.dtd">
<svg version="1.1" xmlns="http://www.w3.org/2000/svg" xmlns:xlink="http://www.w3.org/1999/xlink"
       viewBox="0 0 25.2371 20.7933">
       <g>
              <rect height="20.7933" opacity="0" width="25.2371" x="0" y="0" />
              <path d="M24.8758 12.4367C24.8758 9.44627 23.8182 6.68788 22.0375 4.53265C21.79 4.23112 21.3535 4.23112 21.0491 4.53034L18.6193 6.95264C18.3592 7.2128 18.3569 7.55853 18.5677 7.83822C19.5288 9.12728 20.1044 10.7185 20.1044 12.4367C20.1044 14.2244 19.4989 15.8753 18.4419 17.2029C18.2306 17.4808 18.2329 17.8225 18.4764 18.0683L20.92 20.5119C21.2117 20.8036 21.6459 20.8036 21.9256 20.4849C23.766 18.3147 24.8758 15.5116 24.8758 12.4367Z"
                     fill="currentColor" fill-opacity="0.85" />
              <path d="M12.4367 4.77139C14.1745 4.77139 15.7732 5.34932 17.0646 6.32534C17.3345 6.52635 17.6779 6.50682 17.9231 6.25413L20.3454 3.82437C20.6521 3.52515 20.6424 3.07605 20.311 2.81359C18.1655 1.05754 15.422 0 12.4367 0C9.45373 0 6.71026 1.05754 4.57225 2.81359C4.24089 3.07605 4.22366 3.52515 4.53034 3.82437L6.95264 6.25413C7.19787 6.50682 7.55853 6.52635 7.84052 6.31557C9.12213 5.34932 10.7185 4.77139 12.4367 4.77139Z"
                     fill="currentColor" fill-opacity="0.85" />
              <path d="M0 12.4367C0 15.519 1.12468 18.3446 2.98003 20.5147C3.23503 20.8186 3.66405 20.8036 3.96096 20.5119L6.39709 18.0683C6.64057 17.8225 6.65264 17.4808 6.43385 17.2029C5.38432 15.8753 4.77139 14.2244 4.77139 12.4367C4.77139 10.7185 5.34471 9.12728 6.30811 7.83822C6.51658 7.55853 6.51658 7.2128 6.25643 6.95264L3.82667 4.53034C3.52745 4.23112 3.07836 4.23859 2.80844 4.56995C1.05008 6.71026 0 9.45373 0 12.4367Z"
                     fill="currentColor" fill-opacity="0.85" />
              <path d="M12.5826 16.487C14.7729 16.487 16.1469 15.1709 16.1469 13.116L16.1469 12.9721C16.1469 12.3324 15.8006 11.8989 15.1678 11.8989L12.6958 11.8989L12.6958 13.2519L14.1733 13.2519L14.1659 13.5042C14.136 14.3319 13.5349 14.8619 12.6222 14.8619C11.2351 14.8619 10.7464 13.6173 10.7464 12.2887C10.7464 11.0302 11.1644 9.77703 12.5355 9.77703C13.263 9.77703 13.7878 10.1271 14.1009 10.6846C14.3225 11 14.5689 11.209 15.0231 11.209C15.5347 11.209 15.8667 10.8645 15.8667 10.3528C15.8667 10.1662 15.8345 9.97265 15.7415 9.7894C15.166 8.65186 13.7867 8.15939 12.528 8.15939C10.0229 8.15939 8.66721 9.82725 8.66721 12.3134C8.66721 14.8674 10.0264 16.487 12.5826 16.487ZM12.4987 17.3265C12.647 17.3265 12.7538 17.2122 12.7538 17.0639L12.7538 7.56466C12.7538 7.41181 12.647 7.29978 12.4987 7.29978C12.3533 7.29978 12.2338 7.41181 12.2338 7.56466L12.2338 17.0639C12.2338 17.2122 12.3533 17.3265 12.4987 17.3265Z"
                     fill="currentColor" fill-opacity="0.85" />
       </g>
</svg>