<?xml version="1.0" encoding="UTF-8"?>
<!--Generator: Apple Native CoreSVG 326-->
<!DOCTYPE svg PUBLIC "-//W3C//DTD SVG 1.1//EN" "http://www.w3.org/Graphics/SVG/1.1/DTD/svg11.dtd">
<svg version="1.1" xmlns="http://www.w3.org/2000/svg" xmlns:xlink="http://www.w3.org/1999/xlink"
       viewBox="0 0 19.3993 19.0529">
       <g>
              <rect height="19.0529" opacity="0" width="19.3993" x="0" y="0" />
              <path d="M19.0379 3.63912L19.0379 15.4011C19.0379 17.7262 17.7164 19.0379 15.3896 19.0379L3.64834 19.0379C1.32382 19.0379 0 17.7262 0 15.4011L0 3.63912C0 1.32151 1.32382 0 3.64834 0L15.3896 0C17.7164 0 19.0379 1.32151 19.0379 3.63912ZM9.39326 4.41619L9.39326 5.05744C6.92213 5.19076 5.58491 6.92116 5.58491 9.48018C5.58491 12.08 6.90612 13.7644 9.39326 13.9127L9.39326 14.5362C9.39326 14.7016 9.52482 14.8183 9.67998 14.8183C9.83568 14.8183 9.95979 14.7016 9.95979 14.5362L9.95979 13.9299C12.1822 13.85 13.5825 12.472 13.5825 10.3344L13.5825 10.1859C13.5825 9.49916 13.1989 9.0312 12.5265 9.0312L9.95979 9.0312L9.95979 6.78645C10.6092 6.86402 11.0794 7.21177 11.378 7.73826C11.6169 8.0783 11.8856 8.30454 12.3743 8.30454C12.9181 8.30454 13.2799 7.93533 13.2799 7.38409C13.2799 7.18999 13.2328 6.97175 13.1397 6.78104C12.5688 5.64987 11.227 5.1178 9.95979 5.05744L9.95979 4.41619C9.95979 4.24841 9.83568 4.13177 9.67998 4.13177C9.52482 4.13177 9.39326 4.24841 9.39326 4.41619ZM11.4453 10.7524C11.4155 11.5761 10.8403 12.1285 9.95979 12.1814L9.95979 10.4853L11.4602 10.4853ZM9.39326 12.1492C8.24571 11.9172 7.81742 10.7186 7.81742 9.44803C7.81742 8.21544 8.19458 6.98867 9.39326 6.81344Z"
                     fill="currentColor" fill-opacity="0.85" />
       </g>
</svg>