<?xml version="1.0" encoding="UTF-8"?>
<!--Generator: Apple Native CoreSVG 326-->
<!DOCTYPE svg PUBLIC "-//W3C//DTD SVG 1.1//EN" "http://www.w3.org/Graphics/SVG/1.1/DTD/svg11.dtd">
<svg version="1.1" xmlns="http://www.w3.org/2000/svg" xmlns:xlink="http://www.w3.org/1999/xlink"
       viewBox="0 0 21.365 21.006">
       <g>
              <rect height="21.006" opacity="0" width="21.365" x="0" y="0" />
              <path d="M10.4981 20.9962C16.302 20.9962 21.0037 16.2946 21.0037 10.4981C21.0037 4.70163 16.302 0 10.4981 0C4.70163 0 0 4.70163 0 10.4981C0 16.2946 4.70163 20.9962 10.4981 20.9962ZM10.4981 17.9484C6.37829 17.9484 3.04785 14.6179 3.04785 10.4981C3.04785 6.37829 6.37829 3.04785 10.4981 3.04785C14.6179 3.04785 17.9558 6.37829 17.9558 10.4981C17.9558 14.6179 14.6179 17.9484 10.4981 17.9484Z"
                     fill="currentColor" fill-opacity="0.85" />
              <path d="M7.77544 14.9633C8.70105 14.9633 9.24538 14.3575 9.24538 13.3406L9.24538 11.5728L11.7416 11.5728L11.7416 13.3406C11.7416 14.3627 12.2882 14.9633 13.2144 14.9633C14.14 14.9633 14.6843 14.3575 14.6843 13.3406L14.6843 7.62671C14.6843 6.60981 14.14 6.00404 13.2144 6.00404C12.2882 6.00404 11.7416 6.60466 11.7416 7.62671L11.7416 9.3673L9.24538 9.3673L9.24538 7.62671C9.24538 6.60981 8.70105 6.00404 7.77544 6.00404C6.84928 6.00404 6.30495 6.60466 6.30495 7.62671L6.30495 13.3406C6.30495 14.3627 6.84928 14.9633 7.77544 14.9633Z"
                     fill="currentColor" fill-opacity="0.85" />
       </g>
</svg>