<?xml version="1.0" encoding="UTF-8"?>
<!--Generator: Apple Native CoreSVG 326-->
<!DOCTYPE svg PUBLIC "-//W3C//DTD SVG 1.1//EN" "http://www.w3.org/Graphics/SVG/1.1/DTD/svg11.dtd">
<svg version="1.1" xmlns="http://www.w3.org/2000/svg" xmlns:xlink="http://www.w3.org/1999/xlink"
       viewBox="0 0 21.365 21.006">
       <g>
              <rect height="21.006" opacity="0" width="21.365" x="0" y="0" />
              <path d="M21.0037 10.4981C21.0037 16.2923 16.302 20.9962 10.4981 20.9962C4.70394 20.9962 0 16.2923 0 10.4981C0 4.70163 4.70394 0 10.4981 0C16.302 0 21.0037 4.70163 21.0037 10.4981ZM11.8123 7.45215L11.8123 9.28578L9.18679 9.28578L9.18679 7.45215C9.18679 6.36118 8.58793 5.70834 7.59802 5.70834C6.60011 5.70834 6.02363 6.35603 6.02363 7.45215L6.02363 13.5152C6.02363 14.6188 6.60011 15.2665 7.59802 15.2665C8.58793 15.2665 9.18679 14.6136 9.18679 13.5152L9.18679 11.6595L11.8123 11.6595L11.8123 13.5152C11.8123 14.6188 12.3985 15.2665 13.3964 15.2665C14.3863 15.2665 14.9777 14.6136 14.9777 13.5152L14.9777 7.45215C14.9777 6.36118 14.3863 5.70834 13.3964 5.70834C12.3985 5.70834 11.8123 6.35603 11.8123 7.45215Z"
                     fill="currentColor" fill-opacity="0.85" />
       </g>
</svg>