<?xml version="1.0" encoding="UTF-8"?>
<!--Generator: Apple Native CoreSVG 326-->
<!DOCTYPE svg PUBLIC "-//W3C//DTD SVG 1.1//EN" "http://www.w3.org/Graphics/SVG/1.1/DTD/svg11.dtd">
<svg version="1.1" xmlns="http://www.w3.org/2000/svg" xmlns:xlink="http://www.w3.org/1999/xlink"
       viewBox="0 0 26.5265 25.9308">
       <g>
              <rect height="25.9308" opacity="0" width="26.5265" x="0" y="0" />
              <path d="M24.4491 10.7421L24.4491 20.5876C24.4491 22.9052 23.1252 24.2268 20.7933 24.2268L10.9811 24.2268C8.65144 24.2268 7.32531 22.9052 7.32531 20.5876L7.32531 20.5559L15.184 20.5559C18.4648 20.5559 20.5559 18.4769 20.5559 15.2007L20.5559 7.10301L20.7933 7.10301C23.1252 7.10301 24.4491 8.42222 24.4491 10.7421Z"
                     fill="currentColor" fill-opacity="0.85" />
              <path d="M18.8398 5.36267L18.8398 15.2007C18.8398 17.5183 17.516 18.8398 15.184 18.8398L5.37188 18.8398C3.04221 18.8398 1.71608 17.5183 1.71608 15.2007L1.71608 5.36267C1.71608 3.0376 3.04221 1.72354 5.37188 1.72354L15.184 1.72354C17.516 1.72354 18.8398 3.0376 18.8398 5.36267ZM11.5884 7.23573L11.5884 9.07166L8.96291 9.07166L8.96291 7.23573C8.96291 6.14477 8.37151 5.49423 7.37645 5.49423C6.38369 5.49423 5.79975 6.13961 5.79975 7.23573L5.79975 13.2988C5.79975 14.4047 6.38369 15.05 7.37645 15.05C8.37151 15.05 8.96291 14.3995 8.96291 13.2988L8.96291 11.4431L11.5884 11.4431L11.5884 13.2988C11.5884 14.4047 12.1821 15.05 13.1726 15.05C14.1699 15.05 14.7539 14.3995 14.7539 13.2988L14.7539 7.23573C14.7539 6.14477 14.1699 5.49423 13.1726 5.49423C12.1821 5.49423 11.5884 6.13961 11.5884 7.23573Z"
                     fill="currentColor" fill-opacity="0.85" />
       </g>
</svg>