<?xml version="1.0" encoding="UTF-8"?>
<!--Generator: Apple Native CoreSVG 326-->
<!DOCTYPE svg PUBLIC "-//W3C//DTD SVG 1.1//EN" "http://www.w3.org/Graphics/SVG/1.1/DTD/svg11.dtd">
<svg version="1.1" xmlns="http://www.w3.org/2000/svg" xmlns:xlink="http://www.w3.org/1999/xlink"
       viewBox="0 0 19.3993 19.0529">
       <g>
              <rect height="19.0529" opacity="0" width="19.3993" x="0" y="0" />
              <path d="M3.64834 19.0379L15.3896 19.0379C17.7164 19.0379 19.0379 17.7262 19.0379 15.4011L19.0379 3.63912C19.0379 1.32151 17.7164 0 15.3896 0L3.64834 0C1.32382 0 0 1.32151 0 3.63912L0 15.4011C0 17.7262 1.32382 19.0379 3.64834 19.0379ZM4.05583 16.0183C3.37024 16.0183 3.01964 15.7096 3.01964 14.9775L3.01964 4.07021C3.01964 3.33809 3.37024 3.0271 4.05583 3.0271L14.9821 3.0271C15.6654 3.0271 16.0183 3.33809 16.0183 4.07021L16.0183 14.9775C16.0183 15.7096 15.6654 16.0183 14.9821 16.0183Z"
                     fill="currentColor" fill-opacity="0.85" />
              <path d="M6.79603 13.9867C7.72164 13.9867 8.27343 13.381 8.27343 12.3641L8.27343 10.5963L10.7697 10.5963L10.7697 12.3641C10.7697 13.3861 11.3163 13.9867 12.235 13.9867C13.1606 13.9867 13.7124 13.381 13.7124 12.3641L13.7124 6.65015C13.7124 5.63325 13.1606 5.02748 12.235 5.02748C11.3163 5.02748 10.7697 5.6281 10.7697 6.65015L10.7697 8.39073L8.27343 8.39073L8.27343 6.65015C8.27343 5.63325 7.72164 5.02748 6.79603 5.02748C5.86987 5.02748 5.333 5.6281 5.333 6.65015L5.333 12.3641C5.333 13.3861 5.86987 13.9867 6.79603 13.9867Z"
                     fill="currentColor" fill-opacity="0.85" />
       </g>
</svg>