<?xml version="1.0" encoding="UTF-8"?>
<!--Generator: Apple Native CoreSVG 326-->
<!DOCTYPE svg PUBLIC "-//W3C//DTD SVG 1.1//EN" "http://www.w3.org/Graphics/SVG/1.1/DTD/svg11.dtd">
<svg version="1.1" xmlns="http://www.w3.org/2000/svg" xmlns:xlink="http://www.w3.org/1999/xlink"
       viewBox="0 0 30.1887 27.1744">
       <g>
              <rect height="27.1744" opacity="0" width="30.1887" x="0" y="0" />
              <path d="M1.16379 6.711L3.48619 7.21202C4.01451 7.31999 4.32403 7.81154 4.23329 8.33009C4.14486 8.85095 3.61654 9.18055 3.10776 9.07719L0.775594 8.5934C0.274271 8.4952-0.0674046 8.01856 0.0112664 7.50978C0.0973981 6.95678 0.608486 6.59557 1.16379 6.711ZM3.83242 2.43014L5.51762 4.11304C5.89606 4.49147 5.87883 5.08123 5.51762 5.45967C5.15642 5.84556 4.53967 5.84556 4.16123 5.45967L2.48579 3.78423C2.09759 3.40349 2.0999 2.81603 2.48579 2.43014C2.86422 2.0517 3.45168 2.0494 3.83242 2.43014ZM8.64159 0.761429L9.13515 3.07637C9.25058 3.57538 8.91176 4.09624 8.40067 4.21682C7.86489 4.33225 7.35841 3.98597 7.25045 3.46226L6.75689 1.16455C6.64146 0.651156 6.98774 0.127452 7.50629 0.0217886C8.03-0.091335 8.53363 0.248036 8.64159 0.761429Z"
                     fill="currentColor" fill-opacity="0.85" />
              <path d="M25.8423 6.99463C26.1219 7.26685 26.3672 7.61029 26.5659 8.03931L28.855 12.8771C30.7837 16.9523 30.2835 20.5145 27.3669 23.4386C25.2391 25.5575 22.7182 26.4158 20.2537 25.9809C21.5075 25.5658 22.7179 24.8056 23.8224 23.7057C24.4176 23.1075 24.9121 22.4828 25.3004 21.8313C25.3626 21.7812 25.423 21.7226 25.483 21.6626C27.7076 19.438 28.0995 17.127 26.653 13.9239L24.4172 8.98203C24.3068 8.7394 24.1016 8.66807 23.9044 8.74456C23.7268 8.8262 23.5929 9.02855 23.6992 9.29641L24.5909 11.6176L23.0214 8.29897C22.8227 7.87972 22.5774 7.52652 22.2978 7.25429C22.2829 7.2395 22.268 7.22493 22.2519 7.21253C22.3074 7.1309 22.3717 7.05396 22.4447 6.98201C23.4485 5.98046 24.8935 6.03838 25.8423 6.99463ZM17.4008 4.96865L19.3279 6.89989C19.1786 6.99467 19.0354 7.10976 18.9002 7.24398C18.3694 7.77242 18.2976 8.55246 18.3885 9.33371L18.4993 9.61577L15.8125 6.93464C15.708 6.82519 15.5698 6.79009 15.443 6.82404L13.854 5.23063C13.8015 5.17803 13.748 5.12811 13.6928 5.08304C13.7114 5.06208 13.7309 5.04162 13.7511 5.02143C14.8434 3.92913 16.3291 3.89183 17.4008 4.96865Z"
                     fill="currentColor" fill-opacity="0.85" />
              <path d="M23.8224 23.7057C26.7367 20.7765 27.2392 17.212 25.3105 13.1391L23.0214 8.29897C22.8227 7.87972 22.5774 7.52652 22.2978 7.25429C21.3467 6.30551 19.904 6.24759 18.9002 7.24398C18.3694 7.77242 18.2976 8.55246 18.3885 9.33371L18.5705 9.79718C18.5826 9.82878 18.5826 9.84546 18.5682 9.87476C18.5389 9.8989 18.505 9.88913 18.4832 9.87245L13.854 5.23063C12.7846 4.15895 11.2989 4.19626 10.2066 5.28109C9.99804 5.48969 9.85672 5.72934 9.75742 5.98852C8.82235 5.57473 7.84415 5.78078 7.0561 6.57113C6.30997 7.3098 6.10908 8.31729 6.48612 9.23284C6.25393 9.3149 6.03896 9.44877 5.85966 9.62807C4.84088 10.6469 4.82542 12.0711 5.83334 13.0813L6.07281 13.3208C5.86585 13.3856 5.66174 13.5017 5.4956 13.6701C4.47682 14.6889 4.4912 16.1992 5.52611 17.2244L11.894 23.6021C15.5592 27.2672 20.2459 27.2672 23.8224 23.7057ZM21.9385 21.9223C19.3703 24.4905 16.2017 24.4721 13.4707 21.7336L7.47202 15.7275C7.30589 15.5613 7.30128 15.3423 7.46511 15.1762C7.61402 15.0273 7.85488 15.0198 8.01356 15.1785L11.6509 18.8255C12.0689 19.2436 12.7333 19.2269 13.1444 18.8158C13.5578 18.4023 13.567 17.738 13.149 17.3274L7.64944 11.8204C7.48331 11.6542 7.4787 11.4352 7.64483 11.2863C7.79374 11.1225 8.02484 11.1225 8.19098 11.2811L13.3068 16.4044C13.7249 16.8225 14.3967 16.8007 14.8078 16.3872C15.2063 15.9738 15.223 15.3094 14.8124 14.8988L8.75514 8.849C8.59647 8.69033 8.59416 8.46669 8.75053 8.30286C8.91436 8.14649 9.138 8.14364 9.29668 8.30977L15.0182 14.0239C15.434 14.4373 16.0983 14.4275 16.5118 14.0216C16.9252 13.6058 16.9321 12.9415 16.5164 12.5257L11.734 7.73584C11.5678 7.56971 11.5678 7.35583 11.7167 7.19946C11.8731 7.04079 12.1094 7.03563 12.268 7.20407L19.4081 14.3292C19.9663 14.8874 20.6748 14.7829 21.1073 14.3258C21.4656 13.9698 21.6453 13.4162 21.4053 12.8137L20.1547 9.56353C20.0484 9.29798 20.1748 9.08587 20.3576 9.00422C20.5571 8.9352 20.7623 8.99907 20.8727 9.24915L23.1085 14.1933C24.555 17.3964 24.1631 19.7052 21.9385 21.9223Z"
                     fill="currentColor" fill-opacity="0.85" />
       </g>
</svg>