<?xml version="1.0" encoding="UTF-8"?>
<!--Generator: Apple Native CoreSVG 326-->
<!DOCTYPE svg PUBLIC "-//W3C//DTD SVG 1.1//EN" "http://www.w3.org/Graphics/SVG/1.1/DTD/svg11.dtd">
<svg version="1.1" xmlns="http://www.w3.org/2000/svg" xmlns:xlink="http://www.w3.org/1999/xlink"
       viewBox="0 0 18.0946 22.0092">
       <g>
              <rect height="22.0092" opacity="0" width="18.0946" x="0" y="0" />
              <path d="M7.60591 0.112032C2.80807 0.112032 0 3.1264 0 8.19482L0 10.3459C0 12.2511 0.932223 13.6019 2.16069 13.6019C2.50983 13.6019 2.72916 13.3901 2.72916 13.0358L2.72916 12.1759C2.72916 11.8598 2.85963 11.6944 3.03432 11.6944C3.22854 11.6944 3.35671 11.8524 3.35671 12.1759L3.35671 12.7377C3.35671 13.9375 4.1453 14.7806 5.23826 14.7806C5.78786 14.7806 6.08302 14.505 6.08302 14.014L6.08302 12.814C6.08302 12.4905 6.20372 12.3325 6.37841 12.3325C6.58009 12.3325 6.71056 12.4831 6.71056 12.814L6.71056 13.9261C6.71056 15.2081 7.44693 15.9616 8.58004 15.9616C9.10781 15.9616 9.4248 15.6814 9.4248 15.2024L9.4248 12.814C9.4248 12.498 9.55297 12.3325 9.7202 12.3325C9.91442 12.3325 10.0449 12.4905 10.0449 12.814L10.0449 20.4723C10.0449 21.3666 10.6479 22.0092 11.4646 22.0092C12.3129 22.0092 12.9113 21.374 12.9113 20.4723L12.9113 9.60034C12.9113 9.40382 13.005 9.3021 13.1263 9.3021C13.2326 9.3021 13.3246 9.36245 13.3821 9.51651L14.7654 12.8231C15.025 13.4331 15.4592 13.8964 16.1971 13.8964C17.0947 13.8964 17.7333 13.2957 17.7333 12.4332C17.7333 12.1638 17.6919 11.9036 17.6109 11.7026L15.7179 6.32928C14.1912 2.01148 11.3851 0.112032 7.60591 0.112032Z"
                     fill="currentColor" fill-opacity="0.85" />
       </g>
</svg>