<?xml version="1.0" encoding="UTF-8"?>
<!--Generator: Apple Native CoreSVG 326-->
<!DOCTYPE svg PUBLIC "-//W3C//DTD SVG 1.1//EN" "http://www.w3.org/Graphics/SVG/1.1/DTD/svg11.dtd">
<svg version="1.1" xmlns="http://www.w3.org/2000/svg" xmlns:xlink="http://www.w3.org/1999/xlink"
       viewBox="0 0 23.3061 18.8829">
       <g>
              <rect height="18.8829" opacity="0" width="23.3061" x="0" y="0" />
              <path d="M23.1889 10.6371C23.1964 6.56638 21.0143 3.59921 16.8981 2.10519L11.7752 0.246325C11.3639 0.0895286 10.8792 0.00624776 10.4496 0.00855267C8.98104 0.00855267 8.01054 1.05906 8.01054 2.49533C8.01285 3.27998 8.35816 3.94283 8.9925 4.38907L9.49394 4.61756C9.52555 4.64225 9.53762 4.65893 9.53762 4.69053C9.53762 4.73421 9.50086 4.75374 9.43711 4.75374L2.83713 4.75374C1.14058 4.75374 0 5.89662 0 7.57989C0 9.19601 1.14058 10.309 2.83713 10.309L4.88002 10.309C4.85643 10.3891 4.84721 10.4691 4.84721 10.5468C4.84721 11.4877 5.33264 12.2086 6.18279 12.614C6.1322 12.8151 6.10345 13.0358 6.10345 13.2587C6.10345 14.2277 6.57736 15.0243 7.35916 15.3855C7.46075 17.5435 9.07876 18.8829 11.6211 18.8829L14.6408 18.8829C20.04 18.8829 23.1815 15.8161 23.1889 10.6371ZM20.5069 10.7106C20.5069 14.2889 18.2848 16.384 14.4375 16.384L11.3412 16.384C10.4863 16.384 10.071 16.1126 10.071 15.5528L10.6535 15.5528C11.226 15.5528 11.6688 15.0957 11.6688 14.545C11.6688 13.9868 11.226 13.5153 10.6535 13.5153L9.05195 13.5153C8.79319 13.5153 8.61783 13.332 8.61783 13.083C8.61783 12.9697 8.63682 12.8375 8.65756 12.7214L10.2629 12.7214C10.8153 12.7214 11.2408 12.2769 11.2408 11.7337C11.2408 11.1979 10.8153 10.7534 10.2629 10.7534L7.798 10.7534C7.53694 10.7534 7.35928 10.558 7.35928 10.3188C7.35928 10.198 7.37311 10.0658 7.39901 9.95202L9.81257 9.95202C10.3656 9.95202 10.8204 9.49262 10.8204 8.94192C10.8204 8.38661 10.3656 7.9272 9.81257 7.9272L2.69471 7.9272C2.46646 7.9272 2.29571 7.75591 2.29571 7.52766C2.29571 7.30172 2.46646 7.14304 2.69471 7.14304L13.2847 7.13558C14.0496 7.13558 14.5033 6.58664 14.5033 5.9779C14.5033 5.52704 14.285 5.07794 13.7549 4.80627L10.6299 3.21065C10.482 3.13877 10.3791 3.03068 10.3791 2.8731C10.3791 2.642 10.5401 2.51262 10.7224 2.51262C10.8086 2.51262 10.8782 2.52469 10.965 2.5609L15.9513 4.57875C19.037 5.82129 20.5069 7.79473 20.5069 10.7106Z"
                     fill="currentColor" fill-opacity="0.85" />
       </g>
</svg>