<?xml version="1.0" encoding="UTF-8"?>
<!--Generator: Apple Native CoreSVG 326-->
<!DOCTYPE svg PUBLIC "-//W3C//DTD SVG 1.1//EN" "http://www.w3.org/Graphics/SVG/1.1/DTD/svg11.dtd">
<svg version="1.1" xmlns="http://www.w3.org/2000/svg" xmlns:xlink="http://www.w3.org/1999/xlink"
       viewBox="0 0 21.027 20.8797">
       <g>
              <rect height="20.8797" opacity="0" width="21.027" x="0" y="0" />
              <path d="M18.2967 18.4563C20.1583 16.5896 20.8588 14.5484 20.563 12.1623C20.3731 9.8836 18.8739 7.10379 18.303 5.98694C17.7184 4.84472 16.969 3.3786 16.5922 2.82275C16.1615 2.18307 15.4499 2.00862 14.8578 2.39409C14.1722 2.83355 14.0425 3.54741 14.3298 4.31507L15.5859 7.53287C15.6778 7.79667 15.6612 7.89499 15.541 8.03644C13.9714 9.65104 14.0481 11.7158 15.1361 12.8511C15.4336 13.1526 15.4238 13.639 15.1195 13.9336C14.8197 14.2431 14.3241 14.2483 14.0243 13.9416C12.6437 12.5258 11.6755 9.88718 14.3304 7.02973L7.71887 0.420465C7.1618-0.138905 6.35368-0.138905 5.79661 0.413004C5.2447 0.962609 5.2447 1.78565 5.80407 2.33756L11.5021 8.05051C11.3079 8.14532 11.1114 8.24704 10.9074 8.3706L4.40165 1.87233C3.84228 1.32272 3.04392 1.32272 2.47709 1.87233C1.92748 2.4317 1.92748 3.23982 2.47709 3.79689L8.92192 10.2245C8.78399 10.3917 8.62828 10.571 8.49726 10.748L2.56025 4.81099C2.00834 4.26885 1.1876 4.26139 0.635692 4.81099C0.0837818 5.35544 0.0912425 6.18595 0.643152 6.73555L7.06614 13.1511C6.96157 13.3861 6.89837 13.6212 6.82255 13.8516L2.33303 9.36954C1.78112 8.81763 0.975305 8.80271 0.423395 9.35462C-0.141132 9.90422-0.141132 10.725 0.423395 11.2769L7.702 18.5555C10.9578 21.8187 15.2915 21.4518 18.2967 18.4563Z"
                     fill="currentColor" fill-opacity="0.85" />
       </g>
</svg>