<?xml version="1.0" encoding="UTF-8"?>
<!--Generator: Apple Native CoreSVG 326-->
<!DOCTYPE svg PUBLIC "-//W3C//DTD SVG 1.1//EN" "http://www.w3.org/Graphics/SVG/1.1/DTD/svg11.dtd">
<svg version="1.1" xmlns="http://www.w3.org/2000/svg" xmlns:xlink="http://www.w3.org/1999/xlink"
       viewBox="0 0 21.365 21.006">
       <g>
              <rect height="21.006" opacity="0" width="21.365" x="0" y="0" />
              <path d="M10.4981 20.9962C16.302 20.9962 21.0037 16.2946 21.0037 10.4981C21.0037 4.70163 16.302 0 10.4981 0C4.70163 0 0 4.70163 0 10.4981C0 16.2946 4.70163 20.9962 10.4981 20.9962ZM10.4981 17.9484C6.37829 17.9484 3.04785 14.6179 3.04785 10.4981C3.04785 6.37829 6.37829 3.04785 10.4981 3.04785C14.6179 3.04785 17.9558 6.37829 17.9558 10.4981C17.9558 14.6179 14.6179 17.9484 10.4981 17.9484Z"
                     fill="currentColor" fill-opacity="0.85" />
              <path d="M7.45518 8.39334L8.65083 8.39334L8.65083 7.80498C8.65083 6.76849 9.38865 6.06688 10.4814 6.06688C11.5742 6.06688 12.312 6.76849 12.312 7.80498L12.312 8.39334L13.5077 8.39334L13.5077 7.80498C13.5077 6.04092 12.2966 4.86607 10.4814 4.86607C8.6737 4.86607 7.45518 6.04092 7.45518 7.80498ZM10.4814 10.4346C12.0675 10.4346 13.2219 9.77515 13.9699 8.18499C13.8147 8.12749 13.613 8.09358 13.4073 8.09358L7.55556 8.09358C7.34982 8.09358 7.1556 8.12749 6.99298 8.18499C7.74099 9.77515 8.89533 10.4346 10.4814 10.4346ZM15.3885 12.8726L14.9984 9.53592C14.9766 9.33369 14.9255 9.16076 14.8502 9.00967C14.0523 10.4367 12.9715 11.1961 11.5596 11.4626L11.5596 11.6431C11.5596 12.0894 11.3471 12.2944 10.9008 12.2944L10.0695 12.2944C9.61581 12.2944 9.41073 12.0894 9.41073 11.6431L9.41073 11.4626C8.00624 11.1961 6.92553 10.4367 6.12014 9.00967C6.04486 9.16076 5.99373 9.34116 5.96443 9.53592L5.58181 12.8726C5.43533 14.0848 6.15095 14.94 7.28267 14.94L13.6802 14.94C14.8119 14.94 15.5275 14.0848 15.3885 12.8726Z"
                     fill="currentColor" fill-opacity="0.85" />
       </g>
</svg>