<?xml version="1.0" encoding="UTF-8"?>
<!--Generator: Apple Native CoreSVG 326-->
<!DOCTYPE svg PUBLIC "-//W3C//DTD SVG 1.1//EN" "http://www.w3.org/Graphics/SVG/1.1/DTD/svg11.dtd">
<svg version="1.1" xmlns="http://www.w3.org/2000/svg" xmlns:xlink="http://www.w3.org/1999/xlink"
       viewBox="0 0 24.4 27.5733">
       <g>
              <rect height="27.5733" opacity="0" width="24.4" x="0" y="0" />
              <path d="M4.43469 8.55833C4.43469 8.02025 3.99996 7.58783 3.46188 7.58783L0.972803 7.58783C0.439878 7.58783 0 8.02025 0 8.55833C0 9.09641 0.439878 9.53113 0.972803 9.53113L3.46188 9.53113C3.99996 9.53113 4.43469 9.09641 4.43469 8.55833ZM5.61984 5.62906C6.00574 5.24833 6.00804 4.62927 5.61984 4.24338L3.86737 2.49145C3.48663 2.10555 2.86988 2.10786 2.48168 2.49145C2.11071 2.86703 2.1084 3.49124 2.48168 3.86221L4.24162 5.62906C4.62466 6.0075 5.24657 6.00519 5.61984 5.62906ZM8.56063 4.43469C9.09871 4.43469 9.53113 3.99996 9.53113 3.46188L9.53343 0.977958C9.53343 0.439878 9.09871 0 8.56063 0C8.02255 0 7.58267 0.439878 7.58267 0.977958L7.58037 3.46188C7.58037 3.99996 8.02255 4.43469 8.56063 4.43469ZM11.4716 5.62906C11.8449 6.00519 12.4668 6.0075 12.8475 5.62906L14.6097 3.86452C14.983 3.49355 14.9807 2.86703 14.6097 2.49375C14.2215 2.11016 13.6048 2.10786 13.2315 2.49375L11.4716 4.24338C11.0908 4.62927 11.0931 5.24833 11.4716 5.62906Z"
                     fill="currentColor" fill-opacity="0.85" />
              <path d="M18.9727 25.8857C23.4793 24.2464 25.0932 20.4584 23.354 15.6835L22.6199 13.6645C21.9668 11.8816 20.6251 10.9248 19.4776 11.3418C19.148 11.4647 19.0125 11.7431 19.1331 12.0727L19.4312 12.8838C19.5381 13.1803 19.4708 13.3722 19.3082 13.4354C19.1238 13.5009 18.9445 13.401 18.8376 13.097L18.6446 12.572C18.2356 11.4382 17.2018 10.9185 16.1801 11.2883C15.6672 11.4773 15.4852 11.8413 15.6546 12.303L16.0578 13.4272C16.1722 13.7311 16.1049 13.9231 15.9423 13.9788C15.7527 14.0518 15.5808 13.9593 15.4665 13.6479L15.0903 12.6018C14.6474 11.3956 13.6974 10.9357 12.6378 11.3256C12.137 11.5048 11.9406 11.8712 12.1026 12.3254L12.9217 14.5696C13.0286 14.8661 12.9636 15.0655 12.8061 15.1213C12.624 15.1868 12.4447 15.0868 12.3378 14.7829L9.71668 7.58868C9.41285 6.74095 8.62086 6.34584 7.85817 6.62783C7.05642 6.91958 6.71068 7.71672 7.02197 8.57191L10.7404 18.7896C10.8082 18.9689 10.753 19.1022 10.6392 19.1384C10.5426 19.1747 10.4386 19.1482 10.3231 19.0229L7.89536 16.3873C7.44219 15.8973 6.87482 15.6229 6.18861 15.8739C5.33749 16.1829 4.95159 16.9605 5.24159 17.769C5.33464 18.0286 5.46444 18.252 5.60171 18.4163L9.21966 22.8126C12.1376 26.3527 15.4237 27.1814 18.9727 25.8857Z"
                     fill="currentColor" fill-opacity="0.85" />
       </g>
</svg>