<?xml version="1.0" encoding="UTF-8"?>
<!--Generator: Apple Native CoreSVG 326-->
<!DOCTYPE svg PUBLIC "-//W3C//DTD SVG 1.1//EN" "http://www.w3.org/Graphics/SVG/1.1/DTD/svg11.dtd">
<svg version="1.1" xmlns="http://www.w3.org/2000/svg" xmlns:xlink="http://www.w3.org/1999/xlink"
       viewBox="0 0 18.0946 21.9805">
       <g>
              <rect height="21.9805" opacity="0" width="18.0946" x="0" y="0" />
              <path d="M10.1274 21.9805C14.9252 21.9805 17.7333 18.9736 17.7333 13.8977L17.7333 11.7467C17.7333 9.84139 16.7913 8.49057 15.5726 8.49057C15.2235 8.49057 15.0041 8.70991 15.0041 9.05674L15.0041 9.92412C15.0041 10.2327 14.8737 10.3981 14.699 10.3981C14.5047 10.3981 14.3766 10.2401 14.3766 9.92412L14.3766 9.36232C14.3766 8.15503 13.5805 7.31191 12.495 7.31191C11.9454 7.31191 11.6503 7.58983 11.6503 8.086L11.6503 9.28596C11.6503 9.60198 11.5296 9.75999 11.3549 9.75999C11.1532 9.75999 11.0153 9.6169 11.0153 9.28596L11.0153 8.16643C11.0153 6.8844 10.2766 6.13093 9.15324 6.13093C8.62317 6.13093 8.30849 6.41116 8.30849 6.8901L8.30849 9.28596C8.30849 9.59452 8.17802 9.75999 8.01079 9.75999C7.81657 9.75999 7.6884 9.60198 7.6884 9.28596L7.6884 1.62018C7.6884 0.725932 7.08305 0.0855857 6.26868 0.0855857C5.42041 0.0855857 4.81967 0.718471 4.81967 1.62018L4.81967 12.4996C4.81967 12.691 4.72826 12.7979 4.60701 12.7979C4.50068 12.7979 4.40873 12.7301 4.34376 12.576L2.9679 9.2694C2.70829 8.65944 2.27181 8.19839 1.53393 8.19839C0.638587 8.19839 0 8.79913 0 9.66682C0 9.92873 0.0413674 10.1889 0.120038 10.3899L2.01542 15.7632C3.54213 20.0885 6.34814 21.9805 10.1274 21.9805Z"
                     fill="currentColor" fill-opacity="0.85" />
       </g>
</svg>