<?xml version="1.0" encoding="UTF-8"?>
<!--Generator: Apple Native CoreSVG 326-->
<!DOCTYPE svg PUBLIC "-//W3C//DTD SVG 1.1//EN" "http://www.w3.org/Graphics/SVG/1.1/DTD/svg11.dtd">
<svg version="1.1" xmlns="http://www.w3.org/2000/svg" xmlns:xlink="http://www.w3.org/1999/xlink"
       viewBox="0 0 19.0738 23.3927">
       <g>
              <rect height="23.3927" opacity="0" width="19.0738" x="0" y="0" />
              <path d="M8.63096 22.9008C11.2664 22.9008 13.1902 21.96 14.6733 20.0614C16.1466 18.3177 17.0585 15.2887 17.435 14.0902C17.8307 12.867 18.3435 11.3073 18.4704 10.6445C18.6196 9.89337 18.2439 9.26576 17.5552 9.11655C16.7586 8.94495 16.1586 9.35796 15.819 10.1066L14.4191 13.2715C14.3174 13.502 14.2282 13.5669 14.1168 13.5669C13.9961 13.5669 13.8777 13.4945 13.8966 13.2497L14.8694 2.69859C14.9377 1.88246 14.3313 1.33977 13.5767 1.31672C12.8204 1.28621 12.2718 1.76394 12.1867 2.42855L11.1853 10.7476C10.9738 10.6723 10.7554 10.6091 10.525 10.558L10.525 1.31405C10.525 0.570895 9.95181 0 9.16674 0C8.38167 0 7.81593 0.570895 7.81593 1.31405L7.81593 10.458C7.59296 10.4775 7.36253 10.504 7.14186 10.5304L6.30014 2.06055C6.22717 1.38441 5.67799 0.861922 4.91936 0.890127C4.16019 0.916027 3.53476 1.48516 3.60543 2.31621L4.42532 11.2169C4.19258 11.3134 3.97652 11.4198 3.77023 11.5359L2.66429 4.95378C2.54995 4.22257 2.0553 3.79937 1.30359 3.81781C0.546724 3.84602-0.0815515 4.41515 0.00864406 5.29042L1.05369 15.4857C1.52826 20.1011 4.38844 22.9008 8.63096 22.9008Z"
                     fill="currentColor" fill-opacity="0.85" />
       </g>
</svg>