<?xml version="1.0" encoding="UTF-8"?>
<!--Generator: Apple Native CoreSVG 326-->
<!DOCTYPE svg PUBLIC "-//W3C//DTD SVG 1.1//EN" "http://www.w3.org/Graphics/SVG/1.1/DTD/svg11.dtd">
<svg version="1.1" xmlns="http://www.w3.org/2000/svg" xmlns:xlink="http://www.w3.org/1999/xlink"
       viewBox="0 0 22.6011 23.0187">
       <g>
              <rect height="23.0187" opacity="0" width="22.6011" x="0" y="0" />
              <path d="M0 15.583C0 19.078 2.12745 21.8132 4.94474 21.8132L6.58143 21.8132C4.77139 20.2504 3.80999 18.0258 3.84729 15.4705C3.86452 12.9694 4.5432 11.0721 5.72624 9.33103L4.54611 9.33103C1.95058 9.33103 0 12.0478 0 15.583ZM5.52322 15.49C5.48592 19.7408 8.9182 22.8155 14.0188 22.8379L15.4887 22.8454C16.8081 22.8528 17.9247 22.7575 18.5938 22.6035C19.7285 22.3359 20.5132 21.5837 20.5132 20.5016C20.5132 20.1356 20.4304 19.8324 20.3282 19.5974C20.2799 19.5078 20.2994 19.4624 20.3569 19.4284C21.1116 18.9955 21.5574 18.3172 21.5574 17.4935C21.5574 17.0316 21.4454 16.5962 21.2305 16.243C21.1828 16.1637 21.2 16.0867 21.2737 16.0412C21.778 15.6679 22.1054 15.0017 22.1054 14.2625C22.1054 13.7065 21.9514 13.1832 21.6901 12.8593C21.6233 12.7823 21.6377 12.7219 21.7119 12.6575C22.0594 12.3216 22.2398 11.7478 22.2398 11.1539C22.2398 9.90301 21.2612 8.92263 20.0258 8.92263L16.2152 8.92263C15.4133 8.92263 14.9341 8.54056 14.9341 7.95219C14.9341 6.60114 16.7589 3.93021 16.7589 1.92795C16.7589 0.781008 15.9865 0 14.9188 0C14.0889 0 13.583 0.478516 13.0328 1.53175C11.436 4.61514 9.33078 7.1465 7.68458 9.32344C6.17345 11.3268 5.55306 13.0085 5.52322 15.49Z"
                     fill="currentColor" fill-opacity="0.85" />
       </g>
</svg>