<?xml version="1.0" encoding="UTF-8"?>
<!--Generator: Apple Native CoreSVG 326-->
<!DOCTYPE svg PUBLIC "-//W3C//DTD SVG 1.1//EN" "http://www.w3.org/Graphics/SVG/1.1/DTD/svg11.dtd">
<svg version="1.1" xmlns="http://www.w3.org/2000/svg" xmlns:xlink="http://www.w3.org/1999/xlink"
       viewBox="0 0 21.365 21.006">
       <g>
              <rect height="21.006" opacity="0" width="21.365" x="0" y="0" />
              <path d="M21.0037 10.4981C21.0037 16.2923 16.302 20.9962 10.4981 20.9962C4.70394 20.9962 0 16.2923 0 10.4981C0 4.70163 4.70394 0 10.4981 0C16.302 0 21.0037 4.70163 21.0037 10.4981ZM11.0451 5.48228C10.3092 6.91279 9.35201 8.07502 8.60631 9.08155C7.92041 9.98459 7.62338 10.7509 7.61131 11.8908C7.58201 13.8158 9.15373 15.2302 11.489 15.2423L12.1739 15.252C12.7628 15.252 13.2729 15.2107 13.5808 15.1348C14.0874 15.0102 14.4625 14.684 14.4625 14.1813C14.4625 14.0233 14.4189 13.8774 14.3752 13.7625C14.3436 13.7217 14.351 13.6929 14.3821 13.6734C14.7193 13.5017 14.9302 13.1794 14.9302 12.8094C14.9302 12.5951 14.8744 12.4078 14.7848 12.2389C14.756 12.1958 14.7658 12.1624 14.794 12.136C15.0278 11.9574 15.1841 11.6816 15.1841 11.3329C15.1841 11.0739 15.1083 10.8354 14.9991 10.6763C14.9485 10.6602 14.9606 10.6263 15.0135 10.5878C15.1623 10.424 15.2398 10.1678 15.2398 9.90702C15.2398 9.3326 14.8073 8.88799 14.2352 8.88799L12.5076 8.88799C12.1267 8.88799 11.8962 8.70869 11.8962 8.44029C11.8962 7.7974 12.7224 6.58634 12.7224 5.66892C12.7224 5.14849 12.3754 4.78607 11.8883 4.78607C11.5201 4.78607 11.2875 5.02736 11.0451 5.48228ZM7.15572 9.07815C5.97001 9.07815 5.08935 10.3144 5.08935 11.9224C5.08935 13.5309 6.03837 14.7764 7.32865 14.7764L8.10377 14.7764C7.26435 14.0612 6.82951 13.0466 6.84904 11.881C6.86111 10.7227 7.19448 9.85522 7.70569 9.07815Z"
                     fill="currentColor" fill-opacity="0.85" />
       </g>
</svg>