<?xml version="1.0" encoding="UTF-8"?>
<!--Generator: Apple Native CoreSVG 326-->
<!DOCTYPE svg PUBLIC "-//W3C//DTD SVG 1.1//EN" "http://www.w3.org/Graphics/SVG/1.1/DTD/svg11.dtd">
<svg version="1.1" xmlns="http://www.w3.org/2000/svg" xmlns:xlink="http://www.w3.org/1999/xlink"
       viewBox="0 0 22.0798 21.9274">
       <g>
              <rect height="21.9274" opacity="0" width="22.0798" x="0" y="0" />
              <path d="M19.0806 19.2691C21.9972 16.345 22.4998 12.7828 20.5687 8.70764L18.2819 3.86983C18.0832 3.44311 17.8357 3.09737 17.556 2.82515C16.6072 1.86891 15.1622 1.81098 14.1607 2.81253C13.63 3.33581 13.5581 4.12331 13.6468 4.8948L13.831 5.36057C13.8431 5.39217 13.8431 5.41631 13.8287 5.43815C13.7971 5.46745 13.7581 5.45022 13.7414 5.43585L9.11447 0.801482C8.04511-0.277651 6.55946-0.240347 5.46716 0.851948C5.25856 1.05078 5.11724 1.29274 5.01794 1.55192C4.08287 1.13812 3.10467 1.35163 2.31662 2.13222C1.56819 2.87319 1.3696 3.88069 1.74433 4.80369C1.51214 4.8783 1.29948 5.01217 1.12018 5.19147C0.101403 6.21771 0.0836306 7.63445 1.09155 8.64237L1.33333 8.88415C1.12406 8.95645 0.922261 9.06508 0.756125 9.23868C-0.26496 10.2598-0.24828 11.7626 0.78433 12.7878L7.15455 19.1655C10.8197 22.8306 15.5042 22.8306 19.0806 19.2691ZM17.199 17.4931C14.6308 20.0614 11.4599 20.0355 8.73125 17.3045L2.72508 11.2909C2.5641 11.1247 2.5618 10.9034 2.71817 10.747C2.87454 10.5906 3.1131 10.5832 3.27178 10.7493L6.91138 14.3866C7.32942 14.8047 7.99148 14.7903 8.40261 14.3792C8.81835 13.9657 8.82526 13.3088 8.40722 12.8908L2.9025 7.38376C2.74383 7.21762 2.73922 6.99859 2.89559 6.84968C3.05196 6.68355 3.28536 6.68355 3.4515 6.84968L8.56735 11.9678C8.98539 12.3859 9.65722 12.3692 10.0609 11.9581C10.4669 11.5446 10.4835 10.8728 10.073 10.4697L4.01566 4.41986C3.85699 4.25372 3.85238 4.03008 4.01105 3.86625C4.16512 3.71734 4.39852 3.70473 4.5572 3.87086L10.2788 9.59243C10.6922 10.0082 11.3566 9.99094 11.77 9.58497C12.1857 9.16923 12.1903 8.50256 11.7769 8.08913L6.98702 3.29924C6.82835 3.1331 6.82604 2.92669 6.97495 2.76055C7.13363 2.60418 7.36988 2.59903 7.52856 2.76516L14.6686 9.89031C15.2268 10.4508 15.9354 10.344 16.3678 9.89668C16.7238 9.53317 16.9059 8.97962 16.6658 8.38228L15.4152 5.12693C15.3089 4.85907 15.4353 4.65672 15.6107 4.57508C15.8176 4.49859 16.0228 4.56992 16.1332 4.81255L18.369 9.75438C19.8132 12.9575 19.4213 15.2686 17.199 17.4931Z"
                     fill="currentColor" fill-opacity="0.85" />
       </g>
</svg>