<?xml version="1.0" encoding="UTF-8"?>
<!--Generator: Apple Native CoreSVG 326-->
<!DOCTYPE svg PUBLIC "-//W3C//DTD SVG 1.1//EN" "http://www.w3.org/Graphics/SVG/1.1/DTD/svg11.dtd">
<svg version="1.1" xmlns="http://www.w3.org/2000/svg" xmlns:xlink="http://www.w3.org/1999/xlink"
       viewBox="0 0 22.0331 29.0567">
       <g>
              <rect height="29.0567" opacity="0" width="22.0331" x="0" y="0" />
              <path d="M6.27797 0C2.82166 0 0 2.79928 0 6.24812C0 7.46246 0.410156 8.88733 1.06906 9.84654C1.35445 10.268 1.74374 10.4356 2.11581 10.4356C3.01958 10.4356 3.63864 9.48127 3.04942 8.61996C2.61907 7.98004 2.30888 7.11211 2.30888 6.24812C2.30888 4.06942 4.0918 2.31634 6.27051 2.31634C8.14332 2.31634 9.76727 3.65162 10.1254 5.52443C10.1403 5.56811 10.1478 5.6267 10.1552 5.67729C10.2918 6.23611 10.5946 6.64032 11.2353 6.64032C11.9708 6.64032 12.4176 6.15689 12.4245 5.51667C12.4268 5.41101 12.4119 5.18136 12.3746 5.03949C11.8001 2.06813 9.21202 0 6.27797 0Z"
                     fill="currentColor" fill-opacity="0.85" />
              <path d="M16.6058 23.9098C21.1198 22.2705 22.724 18.4751 20.9848 13.7076L20.253 11.6887C19.5976 9.89828 18.2582 8.94895 17.1107 9.3659C16.7788 9.48879 16.6508 9.76211 16.7713 10.0894L17.062 10.908C17.1689 11.197 17.1039 11.3964 16.939 11.4619C16.7568 11.5251 16.585 11.4251 16.4707 11.1212L16.2777 10.591C15.8664 9.46235 14.8424 8.94259 13.8131 9.31247C13.3003 9.50141 13.116 9.85801 13.2854 10.3272L13.6984 11.4513C13.803 11.7553 13.7455 11.9397 13.5754 12.0052C13.3909 12.0707 13.2116 11.9834 13.1047 11.672L12.7233 10.6208C12.2805 9.41977 11.3305 8.95981 10.2686 9.34977C9.77527 9.52895 9.57371 9.89762 9.74082 10.3496L10.5548 12.5938C10.6616 12.8903 10.5944 13.0896 10.4392 13.1477C10.2548 13.2132 10.0829 13.1109 9.96858 12.807L7.34976 5.61281C7.04593 4.76508 6.26141 4.37227 5.49872 4.65196C4.69696 4.94371 4.35122 5.74086 4.65505 6.58859L8.37345 16.8063C8.43896 16.993 8.39122 17.1189 8.27974 17.1626C8.18317 17.1988 8.06938 17.1649 7.9636 17.047L5.52844 14.4114C5.08274 13.9238 4.51306 13.6396 3.81939 13.8928C2.97803 14.1995 2.58468 14.9846 2.88213 15.7954C2.96772 16.0453 3.09752 16.2761 3.23994 16.4404L6.8602 20.8368C9.76836 24.3791 13.0568 25.1981 16.6058 23.9098Z"
                     fill="currentColor" fill-opacity="0.85" />
       </g>
</svg>