<?xml version="1.0" encoding="UTF-8"?>
<!--Generator: Apple Native CoreSVG 326-->
<!DOCTYPE svg PUBLIC "-//W3C//DTD SVG 1.1//EN" "http://www.w3.org/Graphics/SVG/1.1/DTD/svg11.dtd">
<svg version="1.1" xmlns="http://www.w3.org/2000/svg" xmlns:xlink="http://www.w3.org/1999/xlink"
       viewBox="0 0 29.7839 24.3909">
       <g>
              <rect height="24.3909" opacity="0" width="29.7839" x="0" y="0" />
              <path d="M9.16801 2.41863L2.79708 2.41863C2.30662 2.41863 1.9092 2.01891 1.9092 1.53075C1.9092 1.04259 2.30662 0.652629 2.79708 0.652629L10.8971 0.652629C10.1194 1.07984 9.53119 1.69373 9.16801 2.41863Z"
                     fill="currentColor" fill-opacity="0.85" />
              <path d="M9.01736 5.89756L9.06988 6.04344L2.79708 6.04344C2.30662 6.04344 1.9092 5.64602 1.9092 5.1504C1.9092 4.6697 2.30662 4.26997 2.79708 4.26997L8.72781 4.26997C8.72204 4.79816 8.81719 5.34703 9.01736 5.89756Z"
                     fill="currentColor" fill-opacity="0.85" />
              <path d="M9.04618 8.77751C9.04618 9.26567 8.64876 9.66309 8.1606 9.66309L2.80455 9.66309C2.329 9.66309 1.9092 9.26567 1.9092 8.77751C1.9092 8.28704 2.329 7.88962 2.80455 7.88962L8.1606 7.88962C8.64876 7.88962 9.04618 8.28704 9.04618 8.77751Z"
                     fill="currentColor" fill-opacity="0.85" />
              <path d="M22.7848 22.2482C27.5892 20.4913 29.3738 16.5486 27.5502 11.5355L26.5268 8.72783C25.6658 6.36995 23.8848 5.32175 21.8401 5.95475C21.2468 5.35159 20.3422 5.18382 19.4537 5.51178C19.2428 5.5796 19.0508 5.68132 18.871 5.79741C18.214 5.14312 17.3851 4.93858 16.5074 5.25393C16.4366 5.27983 16.3658 5.32242 16.3025 5.36214L15.6243 3.49406C15.0477 1.92161 13.6349 1.23189 12.1331 1.77919C10.5693 2.35118 9.89451 3.79898 10.4613 5.37143L12.6798 11.4535C12.6994 11.5172 12.6873 11.5637 12.6459 11.5758C12.6241 11.5879 12.6023 11.5758 12.573 11.5517L12.1965 11.1843C11.5779 10.7505 10.8369 10.6568 10.1155 10.921C8.77917 11.3999 8.12608 12.6599 8.62401 14.0238C8.77389 14.4264 9.01397 14.8526 9.29596 15.1759L12.7465 19.2952C15.5277 22.6065 19.0129 23.6313 22.7848 22.2482ZM21.9419 19.723C19.2467 20.7052 16.9213 20.0029 14.7303 17.5692L11.185 13.6337C11.1224 13.5687 11.0839 13.5135 11.0574 13.4319C10.9901 13.2663 11.0523 13.0789 11.2764 13.0018C11.415 12.9443 11.5496 12.9944 11.6594 13.1163L14.2011 15.4652C14.6319 15.8708 15.1131 15.9173 15.5347 15.7628C16.1021 15.5566 16.462 14.9571 16.2013 14.2364L12.6399 4.42629C12.5582 4.21702 12.6519 4.01006 12.8612 3.93819C13.0705 3.86346 13.2826 3.95487 13.3596 4.16874L15.7557 10.7544C15.94 11.2707 16.5252 11.529 17.0391 11.3424C17.5531 11.1529 17.8258 10.5798 17.6415 10.0636L16.8274 7.83855C16.9269 7.77875 17.0378 7.71894 17.1487 7.68273C17.3741 7.59878 17.6006 7.6971 17.6869 7.93688L18.518 10.215C18.7047 10.7284 19.2675 10.9747 19.7739 10.7927C20.2781 10.6084 20.5457 10.0623 20.3591 9.55118L19.8161 8.06425C19.9133 8.01191 20.0265 7.9521 20.1351 7.90612C20.3628 7.82964 20.5968 7.92796 20.683 8.16258L21.223 9.65035C21.4073 10.1764 21.9948 10.4376 22.5162 10.2458C23.0278 10.0638 23.3081 9.48555 23.1163 8.95954L22.9219 8.4271C23.4289 8.23858 23.8176 8.52445 24.101 9.30807L25.1541 12.1941C26.4496 15.7512 25.2587 18.5189 21.9419 19.723Z"
                     fill="currentColor" fill-opacity="0.85" />
       </g>
</svg>