<?xml version="1.0" encoding="UTF-8"?>
<!--Generator: Apple Native CoreSVG 326-->
<!DOCTYPE svg PUBLIC "-//W3C//DTD SVG 1.1//EN" "http://www.w3.org/Graphics/SVG/1.1/DTD/svg11.dtd">
<svg version="1.1" xmlns="http://www.w3.org/2000/svg" xmlns:xlink="http://www.w3.org/1999/xlink"
       viewBox="0 0 25.8038 25.9549">
       <g>
              <rect height="25.9549" opacity="0" width="25.8038" x="0" y="0" />
              <path d="M18.4785 5.37474L18.4785 5.399L10.6198 5.399C7.33902 5.399 5.2479 7.4832 5.2479 10.7542L5.2479 18.8519L5.01056 18.8519C2.67857 18.8519 1.35475 17.5304 1.35475 15.2128L1.35475 5.37474C1.35475 3.04967 2.67857 1.73561 5.01056 1.73561L14.8227 1.73561C17.1524 1.73561 18.4785 3.04967 18.4785 5.37474Z"
                     fill="currentColor" fill-opacity="0.85" />
              <path d="M24.0877 10.7542L24.0877 20.5997C24.0877 22.9173 22.7616 24.2388 20.4319 24.2388L10.6198 24.2388C8.2878 24.2388 6.96399 22.9173 6.96399 20.5997L6.96399 10.7542C6.96399 8.43429 8.2878 7.11508 10.6198 7.11508L20.4319 7.11508C22.7616 7.11508 24.0877 8.43659 24.0877 10.7542ZM14.9845 10.8263L14.9845 15.0137C14.8805 15.0234 14.7764 15.028 14.6822 15.0424L14.6822 11.186C14.6822 10.8338 14.411 10.565 14.0486 10.565C13.6988 10.565 13.4351 10.8338 13.4351 11.186L13.4351 15.3687C13.3116 15.4049 13.2242 15.463 13.1248 15.5113L13.1248 12.6108C13.1248 12.2409 12.8537 11.9772 12.5085 11.9772C12.1443 11.9772 11.8703 12.2409 11.8703 12.6108L11.8703 17.3231C11.8703 19.4469 13.4 20.7665 15.3676 20.7665C16.5818 20.7665 17.4793 20.328 18.1749 19.4055C18.8387 18.6042 19.2362 17.2437 19.4316 16.6665C19.5982 16.1077 19.8382 15.4042 19.8979 15.1003C19.9576 14.7477 19.7801 14.4628 19.4624 14.4031C19.0908 14.336 18.818 14.521 18.6611 14.875L18.0182 16.3364C17.9745 16.433 17.9435 16.4715 17.8877 16.4715C17.813 16.4715 17.7865 16.4307 17.7865 16.3267L17.7865 11.4342C17.7865 11.0717 17.5154 10.8178 17.1605 10.8178C16.7934 10.8178 16.5321 11.0867 16.5321 11.4342L16.5321 15.1447C16.4424 15.1205 16.3384 15.0889 16.2315 15.0625L16.2315 10.8263C16.2315 10.4615 15.9604 10.2002 15.6054 10.2002C15.2435 10.2002 14.9845 10.4615 14.9845 10.8263Z"
                     fill="currentColor" fill-opacity="0.85" />
       </g>
</svg>