<?xml version="1.0" encoding="UTF-8"?>
<!--Generator: Apple Native CoreSVG 326-->
<!DOCTYPE svg PUBLIC "-//W3C//DTD SVG 1.1//EN" "http://www.w3.org/Graphics/SVG/1.1/DTD/svg11.dtd">
<svg version="1.1" xmlns="http://www.w3.org/2000/svg" xmlns:xlink="http://www.w3.org/1999/xlink"
       viewBox="0 0 21.365 21.006">
       <g>
              <rect height="21.006" opacity="0" width="21.365" x="0" y="0" />
              <path d="M10.4981 20.9962C16.302 20.9962 21.0037 16.2946 21.0037 10.4981C21.0037 4.70163 16.302 0 10.4981 0C4.70163 0 0 4.70163 0 10.4981C0 16.2946 4.70163 20.9962 10.4981 20.9962ZM10.4981 17.9484C6.37829 17.9484 3.04785 14.6179 3.04785 10.4981C3.04785 6.37829 6.37829 3.04785 10.4981 3.04785C14.6179 3.04785 17.9558 6.37829 17.9558 10.4981C17.9558 14.6179 14.6179 17.9484 10.4981 17.9484Z"
                     fill="currentColor" fill-opacity="0.85" />
              <path d="M15.5835 9.08877C15.5835 7.59111 14.7011 6.42427 13.482 6.42427L12.7563 6.42427C13.544 7.09524 13.9542 8.04087 13.9272 9.13244C13.9226 10.2218 13.6139 11.0302 13.1297 11.763L13.6452 11.763C14.7597 11.763 15.5835 10.5979 15.5835 9.08877ZM13.2241 9.12267C13.2533 7.31361 11.7752 6.01751 9.58287 5.98075L8.94228 5.97098C8.38782 5.95376 7.90239 6.01235 7.61919 6.08071C7.13958 6.19559 6.78911 6.49942 6.78911 6.97739C6.78911 7.11817 6.83279 7.25665 6.87646 7.36923C6.90806 7.40774 6.89829 7.42903 6.86954 7.45087C6.54958 7.61282 6.34614 7.91271 6.34614 8.26087C6.34614 8.46255 6.40935 8.64009 6.49153 8.79919C6.51282 8.84002 6.50306 8.87338 6.47485 8.89467C6.25825 9.06353 6.11462 9.33181 6.11462 9.65353C6.11462 9.88791 6.18528 10.124 6.29216 10.2659C6.32782 10.2844 6.32552 10.316 6.28009 10.3493C6.13876 10.4958 6.06349 10.7474 6.06349 10.9858C6.06349 11.5281 6.46903 11.9406 7.00899 11.9406L8.62572 11.9406C8.98717 11.9406 9.20783 12.1078 9.20783 12.3664C9.20783 12.9651 8.42592 14.0998 8.42592 14.973C8.42592 15.4538 8.74818 15.7841 9.2031 15.7841C9.55412 15.7841 9.76951 15.575 9.99982 15.1373C10.6887 13.8003 11.5919 12.7019 12.2882 11.7596C12.9373 10.918 13.212 10.1913 13.2241 9.12267Z"
                     fill="currentColor" fill-opacity="0.85" />
       </g>
</svg>