<?xml version="1.0" encoding="UTF-8"?>
<!--Generator: Apple Native CoreSVG 326-->
<!DOCTYPE svg PUBLIC "-//W3C//DTD SVG 1.1//EN" "http://www.w3.org/Graphics/SVG/1.1/DTD/svg11.dtd">
<svg version="1.1" xmlns="http://www.w3.org/2000/svg" xmlns:xlink="http://www.w3.org/1999/xlink"
       viewBox="0 0 24.2053 27.5733">
       <g>
              <rect height="27.5733" opacity="0" width="24.2053" x="0" y="0" />
              <path d="M4.43469 8.55833C4.43469 8.02025 3.99996 7.58783 3.46188 7.58783L0.972803 7.58783C0.439878 7.58783 0 8.02025 0 8.55833C0 9.09641 0.439878 9.53113 0.972803 9.53113L3.46188 9.53113C3.99996 9.53113 4.43469 9.09641 4.43469 8.55833ZM5.61984 5.62906C6.00574 5.24833 6.00804 4.62927 5.61984 4.24338L3.86737 2.49145C3.48663 2.10555 2.86988 2.10786 2.48168 2.49145C2.11071 2.86703 2.1084 3.49124 2.48168 3.86221L4.24162 5.62906C4.62466 6.0075 5.24657 6.00519 5.61984 5.62906ZM8.56063 4.43469C9.09871 4.43469 9.53113 3.99996 9.53113 3.46188L9.53343 0.977958C9.53343 0.439878 9.09871 0 8.56063 0C8.02255 0 7.58267 0.439878 7.58267 0.977958L7.58037 3.46188C7.58037 3.99996 8.02255 4.43469 8.56063 4.43469ZM11.4716 5.62906C11.8449 6.00519 12.4668 6.0075 12.8475 5.62906L14.6097 3.86452C14.983 3.49355 14.9807 2.86703 14.6097 2.49375C14.2215 2.11016 13.6048 2.10786 13.2315 2.49375L11.4716 4.24338C11.0908 4.62927 11.0931 5.24833 11.4716 5.62906Z"
                     fill="currentColor" fill-opacity="0.85" />
              <path d="M18.383 26.557C23.1851 24.8001 24.9698 20.8551 23.1485 15.8443L22.1251 13.0343C21.2641 10.6787 19.4807 9.63054 17.436 10.2635C16.845 9.66784 15.9382 9.49261 15.0422 9.81827C14.8336 9.89585 14.6416 9.98781 14.467 10.1062C13.8048 9.45191 12.9811 9.24738 12.1057 9.57019C12.0326 9.59609 11.9618 9.63121 11.9008 9.67094L11.2202 7.80286C10.6436 6.23041 9.23313 5.54069 7.72158 6.08799C6.1578 6.65997 5.483 8.10777 6.0596 9.68022L8.27809 15.7623C8.29532 15.826 8.28555 15.8725 8.24419 15.8846C8.22004 15.8944 8.19821 15.8846 8.16891 15.8679L7.79479 15.4931C7.16639 15.0593 6.43518 14.9655 5.71143 15.2298C4.37512 15.7139 3.72203 16.9687 4.21996 18.3326C4.36984 18.7427 4.61222 19.1591 4.89421 19.4847L8.33729 23.6039C11.1162 26.9153 14.6111 27.9401 18.383 26.557ZM17.5378 24.0317C14.845 25.014 12.5172 24.3117 10.3285 21.878L6.77352 17.9499C6.71317 17.8775 6.68211 17.8223 6.65336 17.7384C6.5884 17.5728 6.65051 17.3854 6.8747 17.3083C7.01329 17.2606 7.14552 17.3106 7.25537 17.4251L9.79704 19.7717C10.2301 20.1772 10.7114 20.2238 11.1306 20.079C11.698 19.8654 12.058 19.2636 11.7921 18.5452L8.23582 8.74254C8.15648 8.53097 8.24043 8.32632 8.45946 8.24698C8.66642 8.16995 8.87853 8.26366 8.95556 8.47753L11.3517 15.0632C11.5383 15.5794 12.1211 15.843 12.6374 15.6512C13.1513 15.4692 13.4241 14.8886 13.2398 14.3724L12.4234 12.1473C12.5228 12.0875 12.6337 12.0254 12.7447 11.9915C12.9724 11.9053 13.1966 12.0036 13.2828 12.2457L14.114 14.5238C14.3006 15.0372 14.8634 15.2835 15.3699 15.1015C15.8764 14.9171 16.144 14.3711 15.9499 13.8577L15.4121 12.3805C15.5092 12.3207 15.6225 12.2609 15.7311 12.2224C15.9611 12.1384 16.1853 12.2368 16.279 12.4765L16.8138 13.9591C17.0056 14.4926 17.5907 14.7464 18.1121 14.5546C18.6238 14.3726 18.8989 13.8018 18.7145 13.2683L18.5202 12.7359C19.0248 12.5525 19.4061 12.8309 19.697 13.6169L20.7501 16.5029C22.0455 20.06 20.8495 22.8254 17.5378 24.0317Z"
                     fill="currentColor" fill-opacity="0.85" />
       </g>
</svg>