<?xml version="1.0" encoding="UTF-8"?>
<!--Generator: Apple Native CoreSVG 326-->
<!DOCTYPE svg PUBLIC "-//W3C//DTD SVG 1.1//EN" "http://www.w3.org/Graphics/SVG/1.1/DTD/svg11.dtd">
<svg version="1.1" xmlns="http://www.w3.org/2000/svg" xmlns:xlink="http://www.w3.org/1999/xlink"
       viewBox="0 0 21.365 21.006">
       <g>
              <rect height="21.006" opacity="0" width="21.365" x="0" y="0" />
              <path d="M21.0037 10.4981C21.0037 16.2923 16.302 20.9962 10.4981 20.9962C4.70394 20.9962 0 16.2923 0 10.4981C0 4.70163 4.70394 0 10.4981 0C16.302 0 21.0037 4.70163 21.0037 10.4981ZM10.0713 5.0834L10.0713 9.74021C9.95518 9.75228 9.84139 9.75689 9.7276 9.77873L9.7276 5.477C9.7276 5.0956 9.42486 4.79001 9.02107 4.79001C8.63967 4.79001 8.33924 5.0956 8.33924 5.477L8.33924 10.1315C8.20592 10.1798 8.11166 10.2401 8.00248 10.2907L8.00248 7.06674C8.00248 6.65549 7.69974 6.36021 7.31318 6.36021C6.90478 6.36021 6.59689 6.65549 6.59689 7.06674L6.59689 12.3122C6.59689 14.6745 8.30181 16.1349 10.4883 16.1349C11.8404 16.1349 12.8448 15.6533 13.6255 14.6198C14.3507 13.7283 14.8044 12.2231 15.024 11.574C15.2101 10.9566 15.4697 10.1698 15.5294 9.83666C15.604 9.4547 15.4046 9.13311 15.0502 9.0585C14.6447 8.98389 14.3328 9.19588 14.1639 9.58839L13.448 11.2101C13.3923 11.3285 13.3589 11.3648 13.2934 11.3648C13.2261 11.3648 13.1801 11.3239 13.1801 11.2004L13.1801 5.76142C13.1801 5.36509 12.8797 5.06466 12.4931 5.06466C12.0871 5.06466 11.7889 5.37255 11.7889 5.76142L11.7889 9.8856C11.6924 9.854 11.5711 9.82525 11.4573 9.79135L11.4573 5.0834C11.4573 4.68192 11.1592 4.37919 10.7606 4.37919C10.3619 4.37919 10.0713 4.68192 10.0713 5.0834Z"
                     fill="currentColor" fill-opacity="0.85" />
       </g>
</svg>