<?xml version="1.0" encoding="UTF-8"?>
<!--Generator: Apple Native CoreSVG 326-->
<!DOCTYPE svg PUBLIC "-//W3C//DTD SVG 1.1//EN" "http://www.w3.org/Graphics/SVG/1.1/DTD/svg11.dtd">
<svg version="1.1" xmlns="http://www.w3.org/2000/svg" xmlns:xlink="http://www.w3.org/1999/xlink"
       viewBox="0 0 19.2346 18.883">
       <g>
              <rect height="18.883" opacity="0" width="19.2346" x="0" y="0" />
              <path d="M17.5442 1.33886C18.5701 2.35734 18.8733 3.69929 18.8733 5.8467L18.8733 13.0243C18.8733 15.1717 18.5701 16.501 17.5442 17.5344C16.5182 18.5603 15.1567 18.8733 13.0243 18.8733L5.8467 18.8733C3.72398 18.8733 2.36995 18.5603 1.3291 17.5344C0.303159 16.5085 0 15.1717 0 13.0243L0 5.84209C0 3.7016 0.303159 2.3648 1.3291 1.33886C2.36249 0.312925 3.72398 0 5.84209 0L13.0243 0C15.1567 0 16.5108 0.312925 17.5442 1.33886ZM8.92475 4.05243L8.92475 8.70924C8.81612 8.72131 8.69487 8.72592 8.58854 8.74776L8.58854 4.44603C8.58854 4.06462 8.2858 3.75904 7.88201 3.75904C7.49315 3.75904 7.20018 4.06462 7.20018 4.44603L7.20018 9.10053C7.06686 9.14881 6.9726 9.20917 6.85596 9.25975L6.85596 6.03576C6.85596 5.62452 6.55322 5.32924 6.17412 5.32924C5.76572 5.32924 5.45783 5.62452 5.45783 6.03576L5.45783 11.2812C5.45783 13.6435 7.15529 15.1114 9.34928 15.1114C10.6939 15.1114 11.7057 14.6223 12.479 13.5888C13.2117 12.6973 13.6654 11.1921 13.8775 10.5431C14.0711 9.92564 14.333 9.13881 14.3927 8.80568C14.4598 8.42373 14.2679 8.10213 13.9112 8.03499C13.4982 7.95292 13.1938 8.16491 13.0173 8.55742L12.3015 10.1792C12.2555 10.2976 12.2124 10.3338 12.1543 10.3338C12.0796 10.3338 12.0411 10.293 12.0411 10.1694L12.0411 4.73791C12.0411 4.33412 11.7406 4.03369 11.3466 4.03369C10.9405 4.03369 10.6499 4.34158 10.6499 4.73791L10.6499 8.85463C10.5458 8.82303 10.4321 8.79428 10.3108 8.76037L10.3108 4.05243C10.3108 3.65095 10.0127 3.34822 9.62151 3.34822C9.22288 3.34822 8.92475 3.65095 8.92475 4.05243Z"
                     fill="currentColor" fill-opacity="0.85" />
       </g>
</svg>