<?xml version="1.0" encoding="UTF-8"?>
<!--Generator: Apple Native CoreSVG 326-->
<!DOCTYPE svg PUBLIC "-//W3C//DTD SVG 1.1//EN" "http://www.w3.org/Graphics/SVG/1.1/DTD/svg11.dtd">
<svg version="1.1" xmlns="http://www.w3.org/2000/svg" xmlns:xlink="http://www.w3.org/1999/xlink"
       viewBox="0 0 30.3907 27.579">
       <g>
              <rect height="27.579" opacity="0" width="30.3907" x="0" y="0" />
              <path d="M1.16954 6.91334L3.49193 7.41436C4.01279 7.52232 4.32232 8.01388 4.23157 8.53243C4.22692 8.55985 4.22105 8.58673 4.21336 8.61274C4.04595 8.78358 3.90226 8.96851 3.78479 9.16444C3.58593 9.28156 3.34385 9.32784 3.10604 9.27953L0.773876 8.79574C0.272554 8.69754-0.0616615 8.2209 0.00954872 7.71212C0.0956804 7.15911 0.606769 6.79791 1.16954 6.91334ZM3.83816 2.63247L5.51591 4.31538C5.89434 4.69381 5.87711 5.28357 5.51591 5.662C5.1547 6.0479 4.54541 6.0479 4.15951 5.662L2.48407 3.98656C2.09587 3.60582 2.10564 3.01837 2.48407 2.63247C2.86251 2.25404 3.44996 2.25174 3.83816 2.63247ZM8.63988 0.963766L9.1409 3.2787C9.24886 3.77772 8.9175 4.29857 8.39895 4.41916C7.87063 4.53459 7.36416 4.1883 7.24873 3.6646L6.75517 1.36689C6.63974 0.853493 6.98603 0.329788 7.50458 0.224125C8.02828 0.111002 8.53191 0.450373 8.63988 0.963766Z"
                     fill="currentColor" fill-opacity="0.85" />
              <path d="M25.9482 7.83009C26.3175 8.3911 27.0669 9.84976 27.6516 10.992C28.2322 12.1111 29.7291 14.8984 29.9138 17.1651C30.2148 19.5609 29.5142 21.5923 27.6527 23.4562C26.2935 24.8177 24.6569 25.637 22.969 25.8149C23.4432 25.482 23.8963 25.0982 24.3251 24.6697C26.5503 22.4497 27.4208 19.9104 27.0674 17.0253C26.8609 14.3728 25.2182 11.3117 24.6352 10.2051C24.3084 9.5711 23.9368 8.84425 23.5939 8.20762C23.6798 7.88959 23.8815 7.61213 24.2138 7.39913C24.8082 7.01597 25.5174 7.19787 25.9482 7.83009ZM17.0771 5.43296L18.1307 6.48582C17.7905 6.85539 17.5616 7.30202 17.4473 7.82384L17.5095 7.9719L15.0622 5.52463C15.0902 5.49065 15.1205 5.45763 15.1526 5.4255C15.7096 4.86844 16.5178 4.86844 17.0771 5.43296Z"
                     fill="currentColor" fill-opacity="0.85" />
              <path d="M12.5019 23.5703C15.7651 26.8238 20.1086 26.4568 23.1041 23.4562C24.9656 21.5923 25.6662 19.5609 25.3726 17.1651C25.1805 14.8984 23.6812 12.1111 23.103 10.992C22.516 9.84976 21.7764 8.3911 21.3996 7.83009C20.9688 7.19787 20.2573 7.01597 19.6652 7.39913C18.9796 7.83858 18.8499 8.55244 19.1371 9.32757L20.3933 12.5523C20.4829 12.7827 20.4634 12.8885 20.3835 12.9758C20.299 13.0529 20.1806 13.0799 20.0013 12.9029L12.5285 5.43296C11.9692 4.86844 11.161 4.86844 10.604 5.4255C10.0595 5.97741 10.0595 6.79069 10.6114 7.35006L16.3169 13.0556C16.1153 13.1504 15.9187 13.2544 15.7147 13.3854L9.20901 6.87967C8.65941 6.3203 7.85129 6.3203 7.29192 6.87967C6.73485 7.43904 6.73485 8.24486 7.29192 8.79677L13.727 15.2318C13.5839 15.4065 13.4356 15.5858 13.3046 15.7628L7.36762 9.81834C6.81571 9.27389 5.99497 9.26643 5.44306 9.81834C4.89345 10.3628 4.90091 11.191 5.45052 11.7429L11.8712 18.1636C11.7764 18.3912 11.6983 18.6262 11.6299 18.8566L7.14786 14.3746C6.59079 13.8152 5.77521 13.8077 5.23076 14.3597C4.6737 14.919 4.6737 15.73 5.23076 16.2894Z"
                     fill="currentColor" fill-opacity="0.85" />
       </g>
</svg>