<?xml version="1.0" encoding="UTF-8"?>
<!--Generator: Apple Native CoreSVG 326-->
<!DOCTYPE svg PUBLIC "-//W3C//DTD SVG 1.1//EN" "http://www.w3.org/Graphics/SVG/1.1/DTD/svg11.dtd">
<svg version="1.1" xmlns="http://www.w3.org/2000/svg" xmlns:xlink="http://www.w3.org/1999/xlink"
       viewBox="0 0 21.365 21.006">
       <g>
              <rect height="21.006" opacity="0" width="21.365" x="0" y="0" />
              <path d="M10.4981 20.9962C16.302 20.9962 21.0037 16.2946 21.0037 10.4981C21.0037 4.70163 16.302 0 10.4981 0C4.70163 0 0 4.70163 0 10.4981C0 16.2946 4.70163 20.9962 10.4981 20.9962ZM10.4981 17.9484C6.37829 17.9484 3.04785 14.6179 3.04785 10.4981C3.04785 6.37829 6.37829 3.04785 10.4981 3.04785C14.6179 3.04785 17.9558 6.37829 17.9558 10.4981C17.9558 14.6179 14.6179 17.9484 10.4981 17.9484Z"
                     fill="currentColor" fill-opacity="0.85" />
              <path d="M5.40227 11.7943C5.40227 13.3018 6.29216 14.4686 7.50376 14.4686L8.22951 14.4686C7.44177 13.7976 7.03162 12.8497 7.05861 11.753C7.06322 10.671 7.36959 9.86268 7.85611 9.12983L7.3406 9.12983C6.2238 9.12983 5.40227 10.2949 5.40227 11.7943ZM7.76173 11.7702C7.73244 13.5769 9.21056 14.9 11.4104 14.9098L12.0435 14.9196C12.6054 14.9219 13.0834 14.8805 13.3741 14.8121C13.8462 14.695 14.1967 14.3934 14.1967 13.9155C14.1967 13.7747 14.153 13.6362 14.1093 13.5236C14.0777 13.4851 14.0852 13.4638 14.1162 13.442C14.4362 13.28 14.6373 12.9802 14.6373 12.6297C14.6373 12.4228 14.5764 12.2453 14.5017 12.0937C14.473 12.0528 14.4827 12.0172 14.5109 11.9982C14.7275 11.8293 14.8689 11.561 14.8689 11.2393C14.8689 11.005 14.808 10.7688 14.6913 10.6269C14.658 10.6085 14.6603 10.5769 14.7057 10.5435C14.8545 10.3971 14.9223 10.1455 14.9223 9.90702C14.9223 9.36475 14.5168 8.95229 13.9768 8.95229L12.3601 8.95229C12.0061 8.95229 11.7854 8.78506 11.7854 8.52642C11.7854 7.92775 12.5599 6.79306 12.5599 5.91755C12.5599 5.43673 12.2376 5.1013 11.7827 5.1013C11.4317 5.1013 11.2237 5.3179 10.9911 5.75559C10.2971 7.09251 9.39908 8.18353 8.6976 9.13092C8.05361 9.96737 7.7738 10.7015 7.76173 11.7702Z"
                     fill="currentColor" fill-opacity="0.85" />
       </g>
</svg>