<?xml version="1.0" encoding="UTF-8"?>
<!--Generator: Apple Native CoreSVG 326-->
<!DOCTYPE svg PUBLIC "-//W3C//DTD SVG 1.1//EN" "http://www.w3.org/Graphics/SVG/1.1/DTD/svg11.dtd">
<svg version="1.1" xmlns="http://www.w3.org/2000/svg" xmlns:xlink="http://www.w3.org/1999/xlink"
       viewBox="0 0 19.2346 19.0933">
       <g>
              <rect height="19.0933" opacity="0" width="19.2346" x="0" y="0" />
              <path d="M17.5442 1.56117C16.5108 0.527769 15.1567 0.214844 13.0243 0.214844L5.84209 0.214844C3.72398 0.214844 2.36249 0.527769 1.3291 1.56117C0.303159 2.5871 0 3.9216 0 6.05463L0 13.2466C0 15.3865 0.303159 16.7285 1.3291 17.7469C2.36995 18.7729 3.72398 19.0933 5.8467 19.0933L13.0243 19.0933C15.1567 19.0933 16.5182 18.7729 17.5442 17.7469C18.5701 16.721 18.8733 15.3865 18.8733 13.2466L18.8733 6.06154C18.8733 3.9216 18.5701 2.57734 17.5442 1.56117ZM15.8536 5.78811L15.8536 13.5177C15.8536 14.5609 15.7192 15.1357 15.3249 15.53C14.933 15.9145 14.3409 16.0662 13.3051 16.0662L5.57557 16.0662C4.53986 16.0662 3.94028 15.9145 3.54602 15.53C3.16152 15.1357 3.01964 14.5609 3.01964 13.5177L3.01964 5.79502C3.01964 4.74725 3.16152 4.17005 3.54602 3.77063C3.94028 3.38382 4.54217 3.23449 5.58248 3.23449L13.3051 3.23449C14.3409 3.23449 14.933 3.38613 15.3249 3.77063C15.7192 4.17235 15.8536 4.74494 15.8536 5.78811Z"
                     fill="currentColor" fill-opacity="0.85" />
              <path d="M5.82571 11.321C5.82571 13.468 7.35497 14.7952 9.34401 14.7952C10.5801 14.7952 11.5081 14.348 12.2096 13.3984C12.8631 12.5884 13.2697 11.2319 13.4721 10.6293C13.6409 10.0762 13.8759 9.36857 13.9281 9.0676C13.9878 8.72525 13.8131 8.4358 13.4908 8.36866C13.1272 8.30151 12.8452 8.49628 12.686 8.85433L12.0367 10.3303C11.9884 10.4389 11.9476 10.4677 11.8896 10.4677C11.8321 10.4677 11.7861 10.4343 11.7861 10.3205L11.7861 5.36552C11.7861 5.0088 11.5178 4.74052 11.1611 4.74052C10.7969 4.74052 10.5309 5.01626 10.5309 5.36552L10.5309 9.11424C10.4344 9.08264 10.3303 9.04643 10.2165 9.03205L10.2165 4.74434C10.2165 4.38246 9.95057 4.11188 9.599 4.11188C9.23483 4.11188 8.96654 4.38246 8.96654 4.74434L8.96654 8.97861C8.86021 8.99068 8.75388 9.00276 8.65501 9.01713L8.65501 5.11325C8.65501 4.75653 8.37927 4.48309 8.01509 4.48309C7.66584 4.48309 7.39755 4.75653 7.39755 5.11325L7.39755 9.33545C7.28146 9.38374 7.1872 9.43663 7.08317 9.48721L7.08317 6.55486C7.08317 6.18322 6.81489 5.91263 6.46048 5.91263C6.10146 5.91263 5.82571 6.18322 5.82571 6.55486Z"
                     fill="currentColor" fill-opacity="0.85" />
       </g>
</svg>