<?xml version="1.0" encoding="UTF-8"?>
<!--Generator: Apple Native CoreSVG 326-->
<!DOCTYPE svg PUBLIC "-//W3C//DTD SVG 1.1//EN" "http://www.w3.org/Graphics/SVG/1.1/DTD/svg11.dtd">
<svg version="1.1" xmlns="http://www.w3.org/2000/svg" xmlns:xlink="http://www.w3.org/1999/xlink"
       viewBox="0 0 19.6087 24.4895">
       <g>
              <rect height="24.4895" opacity="0" width="19.6087" x="0" y="0" />
              <path d="M9.05122 23.968C13.1803 23.968 16.0572 21.7992 17.5724 17.5551L19.3807 12.5123C19.5352 12.0758 19.6087 11.6565 19.6087 11.2591C19.6087 9.91806 18.626 8.85221 17.2196 8.85221C16.4637 8.85221 15.7165 9.24514 15.3695 9.9644L15.1824 10.4227C15.1629 10.4543 15.1485 10.4687 15.1169 10.4687C15.0755 10.4687 15.0635 10.4445 15.0635 10.4106L15.0635 3.86185C15.0635 2.34624 13.9924 1.31769 12.4436 1.31769C12.1626 1.31769 11.8908 1.38211 11.6397 1.49426C11.2666 0.548088 10.4281 0 9.32696 0C8.26033 0 7.40975 0.560158 7.02452 1.48219C6.81022 1.37234 6.55565 1.31769 6.30853 1.31769C4.86765 1.31769 3.84317 2.30663 3.84317 3.68904L3.84317 4.07918C3.6541 3.9848 3.42531 3.92038 3.18675 3.92038C1.74586 3.92038 0.699545 4.99084 0.699545 6.45247L0.699545 15.4678C0.699545 20.6425 4.01015 23.968 9.05122 23.968ZM8.98001 21.3819C5.35138 21.3819 3.1301 19.118 3.1301 15.2594L3.1301 6.76825C3.1301 6.5423 3.28932 6.37847 3.51296 6.37847C3.73429 6.37847 3.89297 6.5423 3.89297 6.76825L3.89297 11.9152C3.89297 12.5003 4.37991 12.9608 4.95354 12.9608C5.53923 12.9608 6.02103 12.5003 6.02103 11.9152L6.02103 4.13341C6.02103 3.90747 6.17279 3.74133 6.39412 3.74133C6.61776 3.74133 6.78159 3.90747 6.78159 4.13341L6.78159 11.3723C6.78159 11.965 7.26854 12.418 7.84447 12.418C8.43016 12.418 8.90219 11.965 8.90219 11.3723L8.90219 2.81056C8.90219 2.58462 9.06602 2.42364 9.28966 2.42364C9.50869 2.42364 9.67252 2.58462 9.67252 2.81056L9.67252 10.9023C9.67252 11.4829 10.1474 11.948 10.7354 11.948C11.3136 11.948 11.7931 11.4829 11.7931 10.9023L11.7931 4.13341C11.7931 3.90747 11.942 3.74133 12.1634 3.74133C12.3847 3.74133 12.556 3.90747 12.556 4.13341L12.556 13.4274C9.91587 13.7618 8.62014 15.5231 8.62014 17.2686C8.62014 17.8612 9.06857 18.3464 9.62442 18.3389C10.2245 18.3464 10.6971 17.9031 10.7045 17.33C10.6971 15.7783 12.0191 15.4245 13.7268 15.4245C14.2724 15.4245 14.7892 15.1563 15.0511 14.5636L16.4573 11.3766C16.5757 11.1133 16.8102 11.0564 16.9953 11.1237C17.1897 11.2082 17.2845 11.4128 17.1908 11.6675L15.2768 16.7398C14.0332 20.0251 12.1224 21.3819 8.98001 21.3819Z"
                     fill="currentColor" fill-opacity="0.85" />
       </g>
</svg>