<?xml version="1.0" encoding="UTF-8"?>
<!--Generator: Apple Native CoreSVG 326-->
<!DOCTYPE svg PUBLIC "-//W3C//DTD SVG 1.1//EN" "http://www.w3.org/Graphics/SVG/1.1/DTD/svg11.dtd">
<svg version="1.1" xmlns="http://www.w3.org/2000/svg" xmlns:xlink="http://www.w3.org/1999/xlink"
       viewBox="0 0 21.365 21.006">
       <g>
              <rect height="21.006" opacity="0" width="21.365" x="0" y="0" />
              <path d="M10.4981 20.9962C16.302 20.9962 21.0037 16.2946 21.0037 10.4981C21.0037 4.70163 16.302 0 10.4981 0C4.70163 0 0 4.70163 0 10.4981C0 16.2946 4.70163 20.9962 10.4981 20.9962ZM10.4981 17.9484C6.37829 17.9484 3.04785 14.6179 3.04785 10.4981C3.04785 6.37829 6.37829 3.04785 10.4981 3.04785C14.6179 3.04785 17.9558 6.37829 17.9558 10.4981C17.9558 14.6179 14.6179 17.9484 10.4981 17.9484Z"
                     fill="currentColor" fill-opacity="0.85" />
              <path d="M6.87537 12.1767C6.87537 14.396 8.46431 15.7628 10.5205 15.7628C11.7939 15.7628 12.7443 15.3082 13.4681 14.3362C14.1515 13.4963 14.573 12.0853 14.7754 11.4753C14.9517 10.8998 15.1941 10.1646 15.2538 9.85619C15.3135 9.49892 15.1313 9.19455 14.8016 9.1274C14.423 9.06026 14.1336 9.25502 13.9744 9.61823L13.2953 11.1464C13.247 11.255 13.2062 11.2936 13.1481 11.2936C13.0906 11.2936 13.0446 11.2527 13.0446 11.1366L13.0446 6.02497C13.0446 5.65563 12.7689 5.37989 12.3996 5.37989C12.0181 5.37989 11.7447 5.66309 11.7447 6.02497L11.7447 9.89307C11.6481 9.86892 11.5367 9.83271 11.4229 9.81088L11.4229 5.38371C11.4229 5.01207 11.1494 4.73633 10.7755 4.73633C10.4038 4.73633 10.1304 5.01207 10.1304 5.38371L10.1304 9.75744C10.0218 9.77927 9.90799 9.78158 9.81142 9.79595L9.81142 5.76008C9.81142 5.3936 9.51845 5.1127 9.14681 5.1127C8.78263 5.1127 8.50689 5.3936 8.50689 5.76008L8.50689 10.1292C8.38334 10.1775 8.28908 10.2304 8.18736 10.281L8.18736 7.25162C8.18736 6.87252 7.90185 6.58931 7.53997 6.58931C7.16603 6.58931 6.87537 6.87252 6.87537 7.25162Z"
                     fill="currentColor" fill-opacity="0.85" />
       </g>
</svg>