<?xml version="1.0" encoding="UTF-8"?>
<!--Generator: Apple Native CoreSVG 326-->
<!DOCTYPE svg PUBLIC "-//W3C//DTD SVG 1.1//EN" "http://www.w3.org/Graphics/SVG/1.1/DTD/svg11.dtd">
<svg version="1.1" xmlns="http://www.w3.org/2000/svg" xmlns:xlink="http://www.w3.org/1999/xlink"
       viewBox="0 0 26.2835 29.0917">
       <g>
              <rect height="29.0917" opacity="0" width="26.2835" x="0" y="0" />
              <path d="M3.36769 22.333C3.65617 24.1925 3.64464 24.1868 5.66667 24.5872C5.87284 24.6314 6.00319 24.7594 6.00319 24.9656C6.00319 25.1718 5.87284 25.2998 5.63683 25.3464C3.66472 25.6899 3.65956 25.6991 3.36769 27.6057C3.34069 27.8171 3.19542 27.9572 2.99671 27.9572C2.79285 27.9572 2.65734 27.8171 2.62574 27.6281C2.3241 25.7439 2.34824 25.7444 0.33652 25.3464C0.132655 25.2998 0 25.1718 0 24.9656C0 24.7594 0.140116 24.6239 0.343981 24.5872C2.34824 24.2838 2.3298 24.2596 2.62574 22.3255C2.65734 22.1142 2.79285 21.9741 2.99671 21.9741C3.19542 21.9741 3.34069 22.1142 3.36769 22.333ZM18.0026 0.455709C18.2485 2.58649 18.3232 2.53943 20.5723 3.00357C20.7882 3.04032 20.933 3.19767 20.933 3.40614C20.933 3.6393 20.7882 3.79664 20.5258 3.82364C18.3261 4.16204 18.2485 4.24301 18.0026 6.35888C17.9779 6.6018 17.8137 6.75399 17.5828 6.75399C17.3766 6.75399 17.1998 6.6018 17.1825 6.38587C16.8976 4.26024 16.8614 4.29985 14.6031 3.82364C14.3871 3.78172 14.2424 3.62954 14.2424 3.40614C14.2424 3.19767 14.4021 3.03056 14.618 3.00357C16.8464 2.70653 16.8999 2.64563 17.1825 0.445943C17.1998 0.227702 17.3692 0.0755161 17.5828 0.0755161C17.8137 0.0755161 17.9779 0.227702 18.0026 0.455709ZM10.3192 0.254998C10.5175 1.55625 10.5158 1.54364 11.9158 1.82914C12.0651 1.85844 12.1656 1.95149 12.1656 2.10828C12.1656 2.24785 12.0651 2.3409 11.8934 2.37766C10.5307 2.61379 10.5232 2.6161 10.3192 3.96157C10.2974 4.1109 10.1871 4.2068 10.0499 4.2068C9.90283 4.2068 9.79256 4.1086 9.78049 3.96903C9.56443 2.64594 9.5765 2.6557 8.18166 2.37766C8.02486 2.3409 7.93182 2.24555 7.93182 2.10828C7.93182 1.95379 8.03232 1.85098 8.18912 1.82914C9.5765 1.61824 9.56498 1.60848 9.78049 0.247537C9.79256 0.100507 9.90283 0 10.0499 0C10.1894 0 10.2974 0.0982022 10.3192 0.254998Z"
                     fill="currentColor" fill-opacity="0.85" />
              <path d="M21.926 7.95328C22.2056 8.22551 22.4509 8.56894 22.6496 8.99796L24.9387 13.8358C26.8674 17.9109 26.3649 21.4732 23.4506 24.3972C21.3212 26.5164 18.8002 27.3746 16.336 26.9395C17.5894 26.5243 18.7994 25.7641 19.9038 24.6643C20.4987 24.0669 20.9932 23.4429 21.3815 22.7923C21.4446 22.7415 21.5058 22.6821 21.5667 22.6213C23.7913 20.3967 24.1809 18.0856 22.7367 14.8825L20.5009 9.94068C20.3905 9.69806 20.1853 9.62673 19.9784 9.70321C19.803 9.78486 19.6766 9.9872 19.7829 10.2551L20.6815 12.5941L19.1051 9.25763C18.9064 8.83837 18.6611 8.48517 18.3792 8.21295C18.3648 8.19858 18.3503 8.18441 18.3347 8.17238C18.3905 8.0903 18.455 8.01296 18.5284 7.94067C19.5299 6.93911 20.9749 6.99704 21.926 7.95328ZM13.4821 5.92731L15.4105 7.85879C15.2615 7.95353 15.1187 8.06854 14.9839 8.20264C14.4531 8.73107 14.3813 9.51111 14.4722 10.2924L14.583 10.5744L11.8962 7.8933C11.7915 7.78367 11.653 7.74863 11.5261 7.78285L9.93765 6.18928C9.88508 6.1366 9.8315 6.08659 9.77625 6.04144C9.79481 6.02057 9.8145 6.00019 9.83484 5.98008C10.9271 4.88779 12.4128 4.85048 13.4821 5.92731Z"
                     fill="currentColor" fill-opacity="0.85" />
              <path d="M19.9038 24.6643C22.8204 21.7351 23.3229 18.1706 21.3919 14.0977L19.1051 9.25763C18.9064 8.83837 18.6611 8.48517 18.3792 8.21295C17.4304 7.26417 15.9854 7.20624 14.9839 8.20264C14.4531 8.73107 14.3813 9.51111 14.4722 10.2924L14.6542 10.7558C14.6663 10.7874 14.6663 10.8041 14.6519 10.8334C14.6226 10.8576 14.5812 10.8478 14.5646 10.8311L9.93765 6.18928C8.86828 5.11761 7.38263 5.15491 6.29034 6.23975C6.08174 6.44834 5.94041 6.688 5.84112 6.94718C4.90604 6.53338 3.92784 6.73943 3.1398 7.52978C2.39137 8.26845 2.19278 9.27595 2.56235 10.1915C2.33532 10.2736 2.12266 10.4074 1.94336 10.5867C0.92458 11.6055 0.906807 13.0297 1.91703 14.0399L2.1565 14.2794C1.94724 14.3442 1.74544 14.4603 1.5793 14.6288C0.558217 15.6476 0.574897 17.1579 1.60981 18.1831L7.97773 24.5607C11.6429 28.2259 16.3273 28.2259 19.9038 24.6643ZM18.0222 22.8809C15.454 25.4492 12.2854 25.4307 9.55442 22.6923L3.54826 16.6861C3.38958 16.52 3.38497 16.301 3.54135 16.1348C3.69772 15.9859 3.93628 15.9784 4.09495 16.1371L7.73456 19.7842C8.1526 20.2022 8.81466 20.1855 9.22809 19.7744C9.64153 19.361 9.65075 18.6966 9.2327 18.286L3.72568 12.779C3.567 12.6129 3.56239 12.3939 3.71876 12.2449C3.87744 12.0811 4.10854 12.0811 4.27468 12.2398L9.39053 17.3631C9.80857 17.7811 10.4804 17.7593 10.8841 17.3459C11.29 16.9324 11.3067 16.2681 10.8961 15.8575L4.83884 9.80766C4.68016 9.64898 4.67786 9.42535 4.83423 9.26151C4.9883 9.10514 5.2217 9.10229 5.38038 9.26843L11.1019 14.9825C11.5177 15.396 12.1797 15.3862 12.5955 14.9802C13.0089 14.5645 13.0135 13.9001 12.6001 13.4844L7.8102 8.6945C7.65152 8.52836 7.64922 8.31449 7.80043 8.15812C7.9568 7.99944 8.1856 7.99429 8.35173 8.16273L15.4843 15.2879C16.05 15.846 16.7511 15.7416 17.191 15.2845C17.547 14.9284 17.729 14.3749 17.489 13.7724L16.2384 10.5222C16.1321 10.2566 16.2585 10.0445 16.4339 9.96288C16.6408 9.89385 16.846 9.95772 16.9564 10.2078L19.1847 15.1519C20.6364 18.3551 20.237 20.6638 18.0222 22.8809Z"
                     fill="currentColor" fill-opacity="0.85" />
       </g>
</svg>