<?xml version="1.0" encoding="UTF-8"?>
<!--Generator: Apple Native CoreSVG 326-->
<!DOCTYPE svg PUBLIC "-//W3C//DTD SVG 1.1//EN" "http://www.w3.org/Graphics/SVG/1.1/DTD/svg11.dtd">
<svg version="1.1" xmlns="http://www.w3.org/2000/svg" xmlns:xlink="http://www.w3.org/1999/xlink"
       viewBox="0 0 22.7115 22.8605">
       <g>
              <rect height="22.8605" opacity="0" width="22.7115" x="0" y="0" />
              <path d="M4.30544 7.99162L7.04904 7.99162L7.04904 6.65482C7.04904 4.32532 8.7135 2.75852 11.1751 2.75852C13.6367 2.75852 15.2937 4.32532 15.2937 6.65482L15.2937 7.99162L18.0448 7.99162L18.0448 6.65482C18.0448 2.65328 15.3036 0 11.1751 0C7.04892 0 4.30544 2.65328 4.30544 6.65482ZM11.1751 12.62C14.7949 12.62 17.3797 11.0996 19.0846 7.5239C18.6997 7.37444 18.2693 7.29456 17.8108 7.29456L4.53946 7.29456C4.0809 7.29456 3.65054 7.37444 3.26562 7.5239C4.97284 11.0996 7.55527 12.62 11.1751 12.62ZM22.3109 18.149L21.4412 10.5793C21.3826 10.1381 21.2654 9.73481 21.0925 9.37294C19.2803 12.6327 16.8354 14.3581 13.6356 14.976L13.6356 15.3635C13.6356 16.3857 13.1554 16.8612 12.1258 16.8612L10.2244 16.8612C9.18735 16.8612 8.71465 16.3857 8.71465 15.3635L8.71465 14.976C5.51486 14.3581 3.0774 12.635 1.26518 9.38271C1.08709 9.74227 0.969906 10.1455 0.918773 10.5793L0.0393205 18.149C-0.278335 20.8821 1.35665 22.8507 3.93114 22.8507L18.4116 22.8507C20.9884 22.8507 22.6286 20.8821 22.3109 18.149Z"
                     fill="currentColor" fill-opacity="0.85" />
       </g>
</svg>