<?xml version="1.0" encoding="UTF-8"?>
<!--Generator: Apple Native CoreSVG 326-->
<!DOCTYPE svg PUBLIC "-//W3C//DTD SVG 1.1//EN" "http://www.w3.org/Graphics/SVG/1.1/DTD/svg11.dtd">
<svg version="1.1" xmlns="http://www.w3.org/2000/svg" xmlns:xlink="http://www.w3.org/1999/xlink"
       viewBox="0 0 27.6231 24.3873">
       <g>
              <rect height="24.3873" opacity="0" width="27.6231" x="0" y="0" />
              <path d="M6.84041 5.90323L6.93778 6.16938C4.47509 7.84475 3.19605 10.543 3.12244 13.7568C3.11268 14.3023 2.7044 14.7301 2.16862 14.7324C1.64261 14.7348 1.18551 14.2903 1.18551 13.7298C1.18551 9.63106 3.11176 6.04392 6.55147 4.08754C6.52205 4.67304 6.61507 5.28684 6.84041 5.90323Z"
                     fill="currentColor" fill-opacity="0.85" />
              <path d="M20.6176 22.2464C25.4271 20.4895 27.2044 16.5469 25.3807 11.5338L24.3573 8.72604C23.4986 6.36816 21.7153 5.31996 19.6706 5.95297C19.0773 5.3498 18.1727 5.18203 17.2842 5.50769C17.0756 5.57781 16.8814 5.67953 16.709 5.79562C16.0468 5.14363 15.2156 4.9368 14.3402 5.25215C14.2671 5.27805 14.1964 5.32063 14.1353 5.36036L13.4548 3.49227C12.8782 1.91983 11.4654 1.2301 9.9636 1.7774C8.39982 2.34939 7.72502 3.79719 8.29416 5.36964L10.5103 11.4517C10.5299 11.5154 10.5201 11.562 10.4787 11.574C10.4546 11.5838 10.4328 11.574 10.4035 11.5499L10.0345 11.1826C9.40841 10.7487 8.66744 10.6527 7.94599 10.9169C6.60968 11.3981 5.9589 12.6581 6.45452 14.022C6.6044 14.4246 6.84448 14.8485 7.12877 15.1765L10.5793 19.2934C13.3559 22.6048 16.8457 23.6295 20.6176 22.2464ZM19.7724 19.7212C17.0795 20.7034 14.7518 20.0011 12.5631 17.5675L9.01554 13.6319C8.95519 13.5669 8.91667 13.5117 8.88792 13.4278C8.82296 13.2645 8.89253 13.0748 9.10695 12.9977C9.24785 12.9426 9.38008 12.9926 9.49224 13.1145L12.0316 15.4634C12.4647 15.869 12.9459 15.9155 13.3652 15.761C13.9349 15.5571 14.2926 14.953 14.0319 14.2346L10.4704 4.4245C10.391 4.21293 10.4848 4.00597 10.6917 3.9364C10.901 3.85937 11.1108 3.95538 11.1901 4.16695L13.5862 10.7526C13.7706 11.2689 14.3557 11.5273 14.8719 11.3429C15.3859 11.1511 15.6564 10.5781 15.472 10.0641L14.658 7.83676C14.7574 7.77696 14.8683 7.71715 14.9792 7.67863C15.2069 7.59469 15.4311 7.69531 15.5248 7.93509L16.3509 10.2132C16.5352 10.7266 17.098 10.9729 17.6044 10.7886C18.1086 10.6066 18.3785 10.0605 18.1919 9.54708L17.6467 8.06247C17.7461 8.01012 17.857 7.95031 17.968 7.90434C18.1957 7.82785 18.4273 7.92848 18.5136 8.16079L19.0535 9.64626C19.2476 10.1746 19.8253 10.4358 20.3467 10.244C20.8583 10.062 21.1409 9.48376 20.9491 8.95775L20.7524 8.42531C21.2594 8.23679 21.6504 8.52036 21.9315 9.30628L22.9869 12.1923C24.2801 15.7494 23.0892 18.5171 19.7724 19.7212Z"
                     fill="currentColor" fill-opacity="0.85" />
       </g>
</svg>