<?xml version="1.0" encoding="UTF-8"?>
<!--Generator: Apple Native CoreSVG 326-->
<!DOCTYPE svg PUBLIC "-//W3C//DTD SVG 1.1//EN" "http://www.w3.org/Graphics/SVG/1.1/DTD/svg11.dtd">
<svg version="1.1" xmlns="http://www.w3.org/2000/svg" xmlns:xlink="http://www.w3.org/1999/xlink"
       viewBox="0 0 23.0517 23.9852">
       <g>
              <rect height="23.9852" opacity="0" width="23.0517" x="0" y="0" />
              <path d="M0 15.9291C0 19.7997 2.4112 22.8588 5.92355 22.8588L9.07609 22.8588C10.4506 23.5056 12.0142 23.8492 13.6641 23.8492L15.0473 23.8492C16.4579 23.8492 17.6153 23.7584 18.3413 23.5626C20.0006 23.1657 21.0969 21.8919 21.0969 20.3889C21.0969 20.2194 21.0728 20.0642 21.0291 19.9091C21.696 19.3014 22.0648 18.4766 22.0648 17.576C22.0648 17.2101 22.0016 16.8591 21.8873 16.5638C22.3267 16.0176 22.5634 15.3185 22.5634 14.5678C22.5634 14.091 22.4634 13.6372 22.2853 13.2506C22.549 12.7653 22.6903 12.1611 22.6903 11.5051C22.6903 9.67361 21.3481 8.31413 19.5315 8.31413L16.1237 8.31413C16.0133 8.31413 15.9288 8.25377 15.9587 8.12045C16.1676 7.27642 17.5006 5.04283 17.5006 3.07654C17.5006 1.31054 16.2245 0 14.5096 0C13.276 0 12.3899 0.657573 11.6254 2.12042C10.3485 4.60865 8.69038 6.74544 6.94876 8.9455L5.54961 8.9455C2.22565 8.9455 0 11.9828 0 15.9291ZM7.21401 15.7684C7.21401 13.8318 7.64315 12.5927 8.94253 10.8389C10.4257 8.84742 12.5005 6.41766 13.9911 3.43356C14.1338 3.15339 14.2488 3.07175 14.4264 3.07175C14.6403 3.07175 14.7645 3.23558 14.7645 3.47942C14.7645 4.51791 13.1555 6.97927 13.1555 8.70239C13.1555 10.0825 14.1911 11.0501 15.8065 11.0501L19.3599 11.0501C19.7042 11.0501 19.9543 11.2928 19.9543 11.617C19.9543 11.8424 19.875 11.9988 19.6853 12.2132C19.1961 12.7201 19.1244 13.5794 19.5767 14.0261C19.7377 14.244 19.8125 14.3981 19.8125 14.5827C19.8125 14.7909 19.6969 14.9777 19.4687 15.1433C18.8836 15.5452 18.7188 16.3266 19.0271 16.9851C19.1444 17.2082 19.202 17.3536 19.202 17.5238C19.202 17.8204 19.014 18.0595 18.6661 18.2544C18.0857 18.5902 17.91 19.3629 18.1471 19.941C18.2398 20.1688 18.2616 20.2343 18.2541 20.3516C18.2541 20.5994 18.0639 20.8115 17.5892 20.9202C17.04 21.0494 16.114 21.1229 14.6467 21.1155L13.7118 21.108C9.82265 21.0782 7.21401 18.9422 7.21401 15.7684ZM2.63157 15.9291C2.63157 13.6169 3.63427 11.868 4.95275 11.6218C5.07182 11.6144 5.19835 11.6069 5.31741 11.592C4.73597 12.8857 4.47053 14.2305 4.47053 15.851C4.47053 17.5244 4.99108 19.0703 5.97238 20.3816C5.84342 20.3816 5.67201 20.3741 5.51321 20.3667C3.87774 20.113 2.63157 18.3073 2.63157 15.9291Z"
                     fill="currentColor" fill-opacity="0.85" />
       </g>
</svg>