<?xml version="1.0" encoding="UTF-8"?>
<!--Generator: Apple Native CoreSVG 326-->
<!DOCTYPE svg PUBLIC "-//W3C//DTD SVG 1.1//EN" "http://www.w3.org/Graphics/SVG/1.1/DTD/svg11.dtd">
<svg version="1.1" xmlns="http://www.w3.org/2000/svg" xmlns:xlink="http://www.w3.org/1999/xlink"
       viewBox="0 0 21.365 21.006">
       <g>
              <rect height="21.006" opacity="0" width="21.365" x="0" y="0" />
              <path d="M10.4981 20.9962C16.302 20.9962 21.0037 16.2946 21.0037 10.4981C21.0037 4.70163 16.302 0 10.4981 0C4.70163 0 0 4.70163 0 10.4981C0 16.2946 4.70163 20.9962 10.4981 20.9962ZM10.4981 17.9484C6.37829 17.9484 3.04785 14.6179 3.04785 10.4981C3.04785 6.37829 6.37829 3.04785 10.4981 3.04785C14.6179 3.04785 17.9558 6.37829 17.9558 10.4981C17.9558 14.6179 14.6179 17.9484 10.4981 17.9484Z"
                     fill="currentColor" fill-opacity="0.85" />
              <path d="M10.8428 14.551C11.1203 14.551 11.4333 14.4096 11.9716 14.4096C12.5076 14.4096 12.6811 14.551 13.093 14.551C13.6773 14.551 14.0438 14.3022 14.0438 13.8386C14.0438 13.1474 13.4134 12.5231 12.1633 12.5231C11.4969 12.5231 11.2292 12.6414 10.8409 12.7167L10.3601 11.6608C9.87638 10.6416 8.966 10.1497 8.01916 10.1497L7.51705 10.1497C7.2965 10.1497 7.16439 10.0515 7.16439 9.84587C7.16439 9.51045 7.54525 9.43463 7.97779 9.43463C9.26861 9.43463 10.3519 10.0701 10.9895 11.4477L11.2573 12.0303C11.5227 11.9792 11.8197 11.9499 12.1242 11.9499C12.3581 11.9499 12.5873 11.9694 12.8337 12.0286C13.102 11.9056 13.3921 11.7728 13.6571 11.6274C14.1449 11.9417 14.6464 12.273 15.5251 12.273C16.4021 12.273 16.9386 11.9078 16.9386 10.8059C16.9386 9.51208 16.0578 8.34603 14.5615 8.42525L13.6496 7.03083C13.0951 6.19438 12.3046 5.82207 11.5463 5.82207C10.9545 5.82207 9.86607 6.14325 9.86607 6.61552C9.86607 6.91946 10.5388 7.37505 11.0478 7.72661L13.2644 9.20134C13.0967 9.35189 12.9708 9.45185 12.694 9.45185C12.3327 9.45185 11.9243 9.18709 11.5042 8.96181C10.1875 8.12142 9.36463 7.47447 7.93193 7.47447C6.62486 7.47447 5.46275 8.18924 4.91466 9.86607C4.47114 9.846 4.12989 10.1212 4.12989 10.5251C4.12989 10.983 4.50505 11.2628 5.02154 11.2576C5.64829 12.3294 6.49068 12.6982 7.77975 12.6982C7.86303 12.6982 7.93885 12.6959 8.01236 12.6959L9.7037 14.1195C10.1076 14.4751 10.4912 14.551 10.8428 14.551ZM7.57182 14.8974C8.28659 14.8974 8.77147 14.7761 9.17362 14.5107L7.96135 13.488C7.91307 13.488 7.84471 13.5053 7.76944 13.5053C7.58213 13.5053 7.19557 13.4317 6.86979 13.4317C6.41935 13.4317 6.15162 13.6581 6.15162 14.0086C6.15162 14.5417 6.71463 14.8974 7.57182 14.8974ZM15.1095 10.6955C14.8746 10.6955 14.6885 10.5025 14.6885 10.2722C14.6885 10.0275 14.8769 9.82185 15.1118 9.82185C15.3467 9.82185 15.5328 10.0103 15.5328 10.2429C15.5328 10.4927 15.3369 10.6955 15.1095 10.6955Z"
                     fill="currentColor" fill-opacity="0.85" />
       </g>
</svg>