<?xml version="1.0" encoding="UTF-8"?>
<!--Generator: Apple Native CoreSVG 326-->
<!DOCTYPE svg PUBLIC "-//W3C//DTD SVG 1.1//EN" "http://www.w3.org/Graphics/SVG/1.1/DTD/svg11.dtd">
<svg version="1.1" xmlns="http://www.w3.org/2000/svg" xmlns:xlink="http://www.w3.org/1999/xlink"
       viewBox="0 0 29.2171 18.6886">
       <g>
              <rect height="18.6886" opacity="0" width="29.2171" x="0" y="0" />
              <path d="M14.4253 18.6361C23.212 18.6361 28.8557 15.4976 28.8557 11.1817C28.8557 7.78539 24.9765 5.31505 20.3447 4.75665L20.0698 7.20631C22.8881 7.54986 25.7512 9.01889 25.7512 11.0094C25.7512 13.7027 20.6524 15.904 14.4253 15.904C8.20562 15.904 3.10687 13.7027 3.10687 11.0094C3.10687 9.01889 5.96765 7.54986 8.77851 7.20631L8.51102 4.75665C3.8815 5.31505 0 7.78539 0 11.1817C0 15.4976 5.63859 18.6361 14.4253 18.6361ZM14.4253 12.9858C17.3691 12.9858 20.2344 12.1667 21.4341 10.6621C21.6565 10.3984 21.7456 10.1203 21.7921 9.64644C22.3534 3.63554 19.5038 0 14.4253 0C9.35189 0 6.50233 3.63554 7.05612 9.64644C7.10495 10.1203 7.20897 10.4305 7.50085 10.7763C8.7625 12.2138 11.5561 12.9858 14.4253 12.9858ZM14.4253 9.07797C12.5676 9.07797 10.9537 8.63488 9.81058 8.02237C9.66354 4.54247 11.393 2.62762 14.4253 2.62762C17.4553 2.62762 19.187 4.54247 19.0521 8.02007C17.9043 8.63488 16.2882 9.07797 14.4253 9.07797Z"
                     fill="currentColor" fill-opacity="0.85" />
       </g>
</svg>