<?xml version="1.0" encoding="UTF-8"?>
<!--Generator: Apple Native CoreSVG 326-->
<!DOCTYPE svg PUBLIC "-//W3C//DTD SVG 1.1//EN" "http://www.w3.org/Graphics/SVG/1.1/DTD/svg11.dtd">
<svg version="1.1" xmlns="http://www.w3.org/2000/svg" xmlns:xlink="http://www.w3.org/1999/xlink"
       viewBox="0 0 28.795 17.4609">
       <g>
              <rect height="17.4609" opacity="0" width="28.795" x="0" y="0" />
              <path d="M1.79682 16.3128C6.27754 16.1851 17.6633 14.4961 21.2037 10.8042C19.3206 6.1407 16.9768 0.520733 8.14702 2.05667C1.18407 3.26979-1.06172 9.18266 0.447344 15.126C0.698824 16.0998 1.02449 16.3249 1.79682 16.3128ZM2.92454 13.6439C1.98801 9.17817 3.82364 5.36 8.61159 4.50578C14.4307 3.47578 16.3307 6.27578 17.8755 9.88021C15.227 11.7248 8.12204 13.34 2.92454 13.6439ZM6.33329 3.05864L9.97853 2.13315L9.87057 1.28488C9.77983 0.62039 9.07342 0.230432 8.29175 0.350471L7.35273 0.512422C6.55559 0.647382 6.07489 1.24527 6.1754 1.92929ZM22.5587 17.4609C25.6003 17.4609 27.6313 14.9687 28.2241 13.546C28.7255 12.3007 28.2925 11.6444 27.3055 11.3515L19.1603 8.8869L19.0715 11.3973L25.3128 13.2402C24.8632 14.1956 23.7887 14.9411 22.4616 14.9411C20.3912 14.9411 17.8018 13.9583 14.918 12.6324L11.2332 13.6304C14.7455 15.2995 18.8264 17.4609 22.5587 17.4609Z"
                     fill="currentColor" fill-opacity="0.85" />
       </g>
</svg>