<?xml version="1.0" encoding="UTF-8"?>
<!--Generator: Apple Native CoreSVG 326-->
<!DOCTYPE svg PUBLIC "-//W3C//DTD SVG 1.1//EN" "http://www.w3.org/Graphics/SVG/1.1/DTD/svg11.dtd">
<svg version="1.1" xmlns="http://www.w3.org/2000/svg" xmlns:xlink="http://www.w3.org/1999/xlink"
       viewBox="0 0 29.3261 18.7542">
       <g>
              <rect height="18.7542" opacity="0" width="29.3261" x="0" y="0" />
              <path d="M14.4775 18.6384C23.3164 18.6384 28.9648 15.4999 28.9648 11.1817C28.9648 8.11918 25.7456 5.64641 21.1765 5.10906C20.3241 1.78098 18.0752 0 14.4775 0C10.8821 0 8.63318 1.78098 7.77853 5.10906C3.20943 5.64641 0 8.11918 0 11.1817C0 15.4999 5.64089 18.6384 14.4775 18.6384ZM14.4729 12.9271C11.4716 12.9271 9.08076 12.197 7.66772 11.0153C7.51092 9.83678 7.50631 8.3205 7.64873 7.23378C9.73336 8.69729 12.0475 9.21402 14.4729 9.21402C16.9081 9.21402 19.2147 8.69729 21.3068 7.23378C21.4493 8.3205 21.4446 9.83678 21.2781 11.0153C19.8748 12.197 17.4765 12.9271 14.4729 12.9271Z"
                     fill="currentColor" fill-opacity="0.85" />
       </g>
</svg>