<?xml version="1.0" encoding="UTF-8"?>
<!--Generator: Apple Native CoreSVG 326-->
<!DOCTYPE svg PUBLIC "-//W3C//DTD SVG 1.1//EN" "http://www.w3.org/Graphics/SVG/1.1/DTD/svg11.dtd">
<svg version="1.1" xmlns="http://www.w3.org/2000/svg" xmlns:xlink="http://www.w3.org/1999/xlink"
       viewBox="0 0 21.5612 19.6111">
       <g>
              <rect height="19.6111" opacity="0" width="21.5612" x="0" y="0" />
              <path d="M13.2931 1.83479L20.7892 14.9335C21.0706 15.4303 21.1999 15.9685 21.1999 16.4872C21.1999 18.1529 19.9329 19.6111 18.0862 19.6111L3.12112 19.6111C1.26698 19.6111 0 18.1529 0 16.4872C0 15.9685 0.132109 15.4326 0.410702 14.9409L7.90676 1.83479C8.49433 0.7969 9.54484 0.265614 10.6074 0.265614C11.6625 0.265614 12.6883 0.781979 13.2931 1.83479ZM10.0784 5.84767L4.77758 15.2111C4.54781 15.6241 4.83441 16.0996 5.29679 16.0996L15.8933 16.0996C16.3557 16.0996 16.64 15.6195 16.42 15.2111L11.1192 5.84767C10.8768 5.43182 10.3133 5.43182 10.0784 5.84767ZM10.6873 9.35214L13.2446 13.8454C13.2957 13.9402 13.2572 14.0103 13.1722 14.0103L8.04033 14.0103C7.96275 14.0103 7.91677 13.9379 7.96791 13.843L10.5275 9.35214C10.5689 9.28202 10.6534 9.28202 10.6873 9.35214Z"
                     fill="currentColor" fill-opacity="0.85" />
       </g>
</svg>