<?xml version="1.0" encoding="UTF-8"?>
<!--Generator: Apple Native CoreSVG 326-->
<!DOCTYPE svg PUBLIC "-//W3C//DTD SVG 1.1//EN" "http://www.w3.org/Graphics/SVG/1.1/DTD/svg11.dtd">
<svg version="1.1" xmlns="http://www.w3.org/2000/svg" xmlns:xlink="http://www.w3.org/1999/xlink"
       viewBox="0 0 21.365 21.006">
       <g>
              <rect height="21.006" opacity="0" width="21.365" x="0" y="0" />
              <path d="M21.0037 10.5079C21.0037 16.3043 16.302 21.006 10.4981 21.006C4.70394 21.006 0 16.3043 0 10.5079C0 4.7137 4.70394 0.00976562 10.4981 0.00976562C16.302 0.00976562 21.0037 4.7137 21.0037 10.5079ZM5.53923 9.73803L5.53923 10.2861C5.31462 10.4694 5.21005 10.7675 5.20259 11.0874L5.2049 12.7892C5.21236 13.5497 5.82068 13.8478 6.29744 13.8702C6.45423 14.1264 6.74259 14.2948 7.07693 14.2948C7.5979 14.2948 8.01145 13.9059 7.99653 13.3924L7.99653 10.6732C8.01145 10.1522 7.62028 9.76338 7.07693 9.76338C7.0361 9.76338 6.98782 9.76569 6.94185 9.7703L6.94931 9.71565C6.94931 7.58189 8.33736 6.22598 10.4906 6.22598C12.6612 6.22598 14.0567 7.58189 14.0492 9.70819L14.0567 9.7726C14.0107 9.76569 13.955 9.76338 13.9067 9.76338C13.3909 9.76338 13.0095 10.1643 12.9945 10.6732L12.9945 13.3924C13.0095 13.7693 13.2193 14.0933 13.5486 14.1978C13.6192 14.2276 13.6526 14.2276 13.7037 14.25C13.652 14.2782 13.621 14.2828 13.4882 14.3069L11.4449 14.6666C11.2715 14.5397 11.0589 14.4788 10.8366 14.5155L9.96452 14.6712C9.52682 14.7448 9.22585 15.1727 9.31143 15.6178C9.37749 16.0285 9.79796 16.3491 10.2408 16.2635L11.1055 16.1003C11.3375 16.071 11.538 15.9171 11.6603 15.7292L14.037 15.3196C14.6695 15.2173 15.1462 14.848 15.1388 13.9542L15.1388 13.8162C15.5541 13.679 15.8034 13.3366 15.7885 12.9041L15.7885 11.0874C15.8034 10.7526 15.6741 10.4694 15.4593 10.2861L15.4593 9.73803C15.4667 6.79439 13.4664 4.8113 10.4906 4.8113C7.53209 4.8113 5.54669 6.79439 5.53923 9.73803Z"
                     fill="currentColor" fill-opacity="0.85" />
       </g>
</svg>