<?xml version="1.0" encoding="UTF-8"?>
<!--Generator: Apple Native CoreSVG 326-->
<!DOCTYPE svg PUBLIC "-//W3C//DTD SVG 1.1//EN" "http://www.w3.org/Graphics/SVG/1.1/DTD/svg11.dtd">
<svg version="1.1" xmlns="http://www.w3.org/2000/svg" xmlns:xlink="http://www.w3.org/1999/xlink"
       viewBox="0 0 31.089 21.3478">
       <g>
              <rect height="21.3478" opacity="0" width="31.089" x="0" y="0" />
              <path d="M10.7527 16.8584C10.8699 17.2502 11.0045 17.6142 11.1573 17.9509L3.0026 20.1411C2.1303 20.3719 1.4791 19.8683 1.4791 19.0649C1.4791 18.5251 1.82023 18.0284 2.50643 17.8463L10.4781 15.7181C10.5536 16.0976 10.6462 16.4783 10.7527 16.8584ZM10.228 14.273L3.01006 16.1997C2.14292 16.4305 1.4791 15.9269 1.4791 15.1384C1.4791 14.6009 1.82023 14.1019 2.50643 13.9198L10.0292 11.8998C10.055 12.6681 10.1158 13.4642 10.228 14.273ZM10.0091 10.3906L3.01006 12.2755C2.14753 12.504 1.4791 12.0004 1.4791 11.2068C1.4791 10.6669 1.82023 10.1702 2.50643 9.98587L10.1293 7.93715C10.0441 8.77859 10.0108 9.60058 10.0091 10.3906ZM10.514 5.5046C10.4479 5.79842 10.3896 6.09139 10.3411 6.38253L2.92799 8.37132C2.09815 8.59242 1.47164 8.08133 1.47164 7.30262C1.47164 6.75532 1.81277 6.24369 2.50643 6.06166L11.0175 3.7828C10.8111 4.29566 10.6452 4.87073 10.514 5.5046Z"
                     fill="currentColor" fill-opacity="0.85" />
              <path d="M11.8453 10.669C11.8378 12.5124 11.9722 14.4115 12.5197 16.3426C13.2026 18.6258 14.4852 19.4953 17.1721 19.4953L17.766 19.4953C23.9564 19.4953 29.2561 15.4418 29.2561 10.669C29.2561 5.89862 23.9564 1.84273 17.766 1.84273L17.1721 1.84273C14.5024 1.84273 13.2198 2.7123 12.5197 4.99545C11.9722 6.92892 11.8378 8.82794 11.8453 10.669ZM14.6159 10.669C14.6009 8.66994 14.7721 7.22802 15.1846 5.7781C15.4443 4.89149 15.8989 4.61332 17.1721 4.61332L17.766 4.61332C22.3572 4.61332 26.4929 7.46852 26.4929 10.669C26.4929 13.8696 22.3572 16.7248 17.766 16.7248L17.1721 16.7248C15.892 16.7248 15.4443 16.4466 15.1846 15.5623C14.7721 14.1078 14.6009 12.6704 14.6159 10.669Z"
                     fill="currentColor" fill-opacity="0.85" />
       </g>
</svg>