<?xml version="1.0" encoding="UTF-8"?>
<!--Generator: Apple Native CoreSVG 326-->
<!DOCTYPE svg PUBLIC "-//W3C//DTD SVG 1.1//EN" "http://www.w3.org/Graphics/SVG/1.1/DTD/svg11.dtd">
<svg version="1.1" xmlns="http://www.w3.org/2000/svg" xmlns:xlink="http://www.w3.org/1999/xlink"
       viewBox="0 0 31.7694 17.7361">
       <g>
              <rect height="17.7361" opacity="0" width="31.7694" x="0" y="0" />
              <path d="M1.22046 4.45034C1.87979 4.45034 2.42139 3.90128 2.42139 3.23734C2.42139 2.57054 1.87979 2.02895 1.22046 2.02895C0.549059 2.02895 0 2.56824 0 3.23734C0 3.90874 0.541598 4.45034 1.22046 4.45034ZM1.22046 10.0762C1.87979 10.0762 2.42139 9.52713 2.42139 8.86319C2.42139 8.19409 1.87979 7.65995 1.22046 7.65995C0.549059 7.65995 0 8.19409 0 8.86319C0 9.54205 0.541598 10.0762 1.22046 10.0762ZM1.22046 15.7072C1.87979 15.7072 2.42139 15.1581 2.42139 14.4867C2.42139 13.8274 1.87979 13.2858 1.22046 13.2858C0.549059 13.2858 0 13.8274 0 14.4867C0 15.1656 0.541598 15.7072 1.22046 15.7072Z"
                     fill="currentColor" fill-opacity="0.85" />
              <path d="M5.32657 4.93916C6.2645 4.93916 7.0261 4.1701 7.0261 3.23734C7.0261 2.30172 6.2645 1.54012 5.32657 1.54012C4.38865 1.54012 3.62705 2.30172 3.62705 3.23734C3.62705 4.17757 4.38119 4.93916 5.32657 4.93916ZM5.32657 10.5725C6.2645 10.5725 7.0261 9.80342 7.0261 8.86319C7.0261 7.92526 6.2645 7.16366 5.32657 7.16366C4.38865 7.16366 3.62705 7.92526 3.62705 8.86319C3.62705 9.81088 4.38119 10.5725 5.32657 10.5725ZM5.32657 16.196C6.2645 16.196 7.0261 15.427 7.0261 14.4867C7.0261 13.5586 6.2645 12.797 5.32657 12.797C4.38865 12.797 3.62705 13.5586 3.62705 14.4867C3.62705 15.4344 4.38119 16.196 5.32657 16.196Z"
                     fill="currentColor" fill-opacity="0.85" />
              <path d="M10.4293 5.43491C11.6384 5.43491 12.6171 4.44354 12.6171 3.23734C12.6171 2.02828 11.6384 1.04438 10.4293 1.04438C9.21797 1.04438 8.2243 2.02828 8.2243 3.23734C8.2243 4.45846 9.2105 5.43491 10.4293 5.43491ZM10.4293 11.0682C11.6384 11.0682 12.6171 10.0745 12.6171 8.86319C12.6171 7.65413 11.6384 6.66792 10.4293 6.66792C9.21797 6.66792 8.2243 7.65413 8.2243 8.86319C8.2243 10.082 9.2105 11.0682 10.4293 11.0682ZM10.4293 16.6918C11.6384 16.6918 12.6171 15.7004 12.6171 14.4867C12.6171 13.2777 11.6384 12.3012 10.4293 12.3012C9.21797 12.3012 8.2243 13.2777 8.2243 14.4867C8.2243 15.7079 9.2105 16.6918 10.4293 16.6918Z"
                     fill="currentColor" fill-opacity="0.85" />
              <path d="M13.9258 8.86319C13.9138 10.7181 14.0551 12.6217 14.6025 14.5644C15.2878 16.8522 16.5772 17.7218 19.2734 17.7218L19.8576 17.7218C26.0733 17.7218 31.4081 13.6543 31.4081 8.86319C31.4081 4.07202 26.0733 0 19.8576 0L19.2734 0C16.587 0 15.305 0.871871 14.6025 3.15964C14.0551 5.10463 13.9138 7.00826 13.9258 8.86319Z"
                     fill="currentColor" fill-opacity="0.85" />
       </g>
</svg>