<?xml version="1.0" encoding="UTF-8"?>
<!--Generator: Apple Native CoreSVG 326-->
<!DOCTYPE svg PUBLIC "-//W3C//DTD SVG 1.1//EN" "http://www.w3.org/Graphics/SVG/1.1/DTD/svg11.dtd">
<svg version="1.1" xmlns="http://www.w3.org/2000/svg" xmlns:xlink="http://www.w3.org/1999/xlink"
       viewBox="0 0 21.365 21.006">
       <g>
              <rect height="21.006" opacity="0" width="21.365" x="0" y="0" />
              <path d="M21.0037 10.5079C21.0037 16.3043 16.302 21.006 10.4981 21.006C4.70394 21.006 0 16.3043 0 10.5079C0 4.7137 4.70394 0.00976562 10.4981 0.00976562C16.302 0.00976562 21.0037 4.7137 21.0037 10.5079ZM5.23025 10.5056C5.23025 12.3926 5.67201 13.726 6.42111 15.0042C6.6365 15.3638 7.04775 15.4908 7.42685 15.3116C7.71521 15.5896 8.11791 15.6971 8.5522 15.5506C9.22603 15.3748 9.55345 14.7986 9.35814 14.1346L8.68771 11.7838C8.4924 11.1025 7.91622 10.7802 7.24986 10.9681C7.08154 11.0192 6.93275 11.0899 6.82072 11.1801C6.79142 10.9658 6.79142 10.7417 6.79142 10.5056C6.79142 8.04154 8.2656 6.42603 10.5153 6.42603C12.7674 6.42603 14.2588 8.05877 14.2588 10.5056C14.2588 10.7417 14.2416 10.983 14.2295 11.1921C14.1025 11.0996 13.9514 11.0192 13.771 10.9681C13.1242 10.7802 12.548 11.1025 12.3453 11.7838L11.6651 14.1443C11.487 14.8084 11.8046 15.3748 12.471 15.5506C12.9225 15.6798 13.3229 15.5896 13.5964 15.3116C13.9755 15.4908 14.4016 15.3713 14.6193 15.0042C15.3782 13.6721 15.8125 12.3484 15.8125 10.5056C15.8125 7.14607 13.6824 4.86486 10.5153 4.86486C7.35061 4.86486 5.23025 7.13631 5.23025 10.5056Z"
                     fill="currentColor" fill-opacity="0.85" />
       </g>
</svg>