<?xml version="1.0" encoding="UTF-8"?>
<!--Generator: Apple Native CoreSVG 326-->
<!DOCTYPE svg PUBLIC "-//W3C//DTD SVG 1.1//EN" "http://www.w3.org/Graphics/SVG/1.1/DTD/svg11.dtd">
<svg version="1.1" xmlns="http://www.w3.org/2000/svg" xmlns:xlink="http://www.w3.org/1999/xlink"
       viewBox="0 0 24.0116 23.7482">
       <g>
              <rect height="23.7482" opacity="0" width="24.0116" x="0" y="0" />
              <path d="M4.84576 8.26634C4.33423 9.42017 4.06123 10.7712 4.06123 12.2707C4.06123 12.9908 4.11808 13.7239 4.23427 14.4573C4.48682 14.195 4.81936 13.9853 5.22291 13.8461C6.52217 13.4194 7.67087 13.9841 8.10735 15.2615L9.53368 19.4825C9.97532 20.7696 9.41298 21.9253 8.12349 22.3744C7.12388 22.7032 6.21233 22.449 5.64516 21.7272C5.60638 21.7538 5.56555 21.7787 5.52292 21.802C4.7925 22.2028 3.96794 21.9812 3.55966 21.2778C2.0742 18.6762 1.18498 15.3071 1.18498 12.2707C1.18498 9.8969 1.70487 7.80106 2.66447 6.08788ZM18.5643 21.9671C18.416 21.9364 18.2675 21.8814 18.1227 21.802C18.0794 21.7785 18.038 21.7534 17.9987 21.7267C17.4329 22.4489 16.5163 22.7033 15.5147 22.3744C14.2275 21.9253 13.6703 20.7719 14.1068 19.4825L14.6057 18.0136ZM22.4555 12.2707C22.4555 14.2765 22.0707 16.4273 21.3741 18.4023L16.8164 13.8465C17.2878 13.6628 17.8411 13.6548 18.4227 13.8461C18.8271 13.9862 19.1601 14.1973 19.4124 14.4618C19.5294 13.7269 19.5867 12.9923 19.5867 12.2707C19.5867 7.21635 16.4827 3.84927 11.8202 3.84927C10.3069 3.84927 8.95778 4.20479 7.82987 4.86341L5.6954 2.72978C7.36802 1.59622 9.44618 0.973021 11.8202 0.973021C18.2071 0.973021 22.4555 5.4868 22.4555 12.2707Z"
                     fill="currentColor" fill-opacity="0.85" />
              <path d="M20.6774 22.1116C21.0174 22.4344 21.5706 22.4419 21.8911 22.1116C22.2213 21.7716 22.2311 21.2282 21.8911 20.8979L2.86867 1.87837C2.53094 1.53834 1.98297 1.54064 1.64524 1.87837C1.32473 2.19888 1.31496 2.76177 1.64524 3.09204Z"
                     fill="currentColor" fill-opacity="0.85" />
       </g>
</svg>