<?xml version="1.0" encoding="UTF-8"?>
<!--Generator: Apple Native CoreSVG 326-->
<!DOCTYPE svg PUBLIC "-//W3C//DTD SVG 1.1//EN" "http://www.w3.org/Graphics/SVG/1.1/DTD/svg11.dtd">
<svg version="1.1" xmlns="http://www.w3.org/2000/svg" xmlns:xlink="http://www.w3.org/1999/xlink"
       viewBox="0 0 24.883 23.8242">
       <g>
              <rect height="23.8242" opacity="0" width="24.883" x="0" y="0" />
              <path d="M5.40896 8.59991C5.37909 8.78582 5.3657 8.98039 5.3657 9.18083C5.3657 12.0676 8.20385 15.5658 12.3926 18.3552C12.4455 18.3938 12.484 18.4202 12.5208 18.4202C12.5599 18.4202 12.5984 18.3938 12.6513 18.3552C13.1639 18.0144 13.6563 17.6631 14.125 17.3032L16.3452 19.5202C15.637 20.0812 14.8769 20.6272 14.0768 21.1573C13.5038 21.5305 12.9199 21.891 12.5208 21.891C12.1315 21.891 11.5378 21.5305 10.9672 21.1573C5.66079 17.6417 2.11477 13.4305 2.11477 9.21813C2.11477 8.013 2.36749 6.93062 2.81403 6.00877ZM22.9291 9.21813C22.9291 11.6765 21.7214 14.1345 19.6543 16.4529L17.4096 14.2094C18.8499 12.494 19.6857 10.7474 19.6857 9.18083C19.6857 7.0905 18.2224 5.63803 16.2976 5.63803C14.7699 5.63803 14.0005 6.46441 13.3788 7.2573C13.0807 7.65308 12.8522 7.85234 12.5208 7.85234C12.1917 7.85234 11.9362 7.66285 11.6576 7.2573C11.0872 6.4837 10.3095 5.67252 8.83684 5.64119L6.11706 2.92285C6.77963 2.66279 7.49506 2.52886 8.23382 2.52886C10.2517 2.52886 11.6815 3.36815 12.5208 4.54992C13.3647 3.36585 14.7997 2.52886 16.8078 2.52886C20.101 2.52886 22.9291 5.18662 22.9291 9.21813Z"
                     fill="currentColor" fill-opacity="0.85" />
              <path d="M20.1279 21.3293C20.4656 21.6544 21.021 21.6619 21.3415 21.3293C21.6718 20.9916 21.6793 20.4482 21.3415 20.1157L2.86636 1.65025C2.52863 1.31252 1.98297 1.31252 1.64293 1.65025C1.31496 1.97076 1.31496 2.53595 1.64293 2.86392Z"
                     fill="currentColor" fill-opacity="0.85" />
       </g>
</svg>