<?xml version="1.0" encoding="UTF-8"?>
<!--Generator: Apple Native CoreSVG 326-->
<!DOCTYPE svg PUBLIC "-//W3C//DTD SVG 1.1//EN" "http://www.w3.org/Graphics/SVG/1.1/DTD/svg11.dtd">
<svg version="1.1" xmlns="http://www.w3.org/2000/svg" xmlns:xlink="http://www.w3.org/1999/xlink"
       viewBox="0 0 23.3289 22.4535">
       <g>
              <rect height="22.4535" opacity="0" width="23.3289" x="0" y="0" />
              <path d="M7.15008 16.8912C7.15008 20.1334 9.05128 21.9767 12.2102 21.9767C14.5737 21.9767 16.2945 20.7965 17.3916 18.7037L18.2182 17.1314C19.7192 14.3042 23.3289 13.0377 23.3289 8.13659C23.3289 3.25808 20.1013 0 15.2551 0C10.4007 0 7.15008 3.29999 7.15008 8.24049ZM10.6283 14.3055C10.6283 12.555 12.4077 12.6775 12.4077 11.6606C12.4077 10.7811 10.6283 10.098 10.6283 7.77853C10.6283 5.20623 12.4804 3.32959 15.2453 3.32959C18.1244 3.32959 20.0338 5.21897 20.0338 8.03608C20.0338 8.59029 19.5876 9.04631 19.0334 9.04631C18.474 9.04631 18.0157 8.59029 18.0157 8.03608C18.0157 6.40837 16.9224 5.33282 15.2453 5.33282C13.687 5.33282 12.6465 6.3308 12.6465 7.77853C12.639 9.99115 15.4655 10.4972 15.4655 13.2507C15.4655 14.924 14.3483 16.1035 12.6756 16.1058C11.4515 16.1058 10.6283 15.3504 10.6283 14.3055Z"
                     fill="currentColor" fill-opacity="0.85" />
              <path d="M2.27745 4.9348C3.31764 4.9348 4.17174 4.083 4.17174 3.04281C4.17174 2.00032 3.31764 1.14852 2.27745 1.14852C1.23496 1.14852 0.383164 2.00032 0.383164 3.04281C0.383164 4.083 1.23496 4.9348 2.27745 4.9348Z"
                     fill="currentColor" fill-opacity="0.85" />
              <path d="M2.27745 10.386C3.31764 10.386 4.17174 9.53416 4.17174 8.49397C4.17174 7.45148 3.31764 6.59968 2.27745 6.59968C1.23496 6.59968 0.383164 7.45148 0.383164 8.49397C0.383164 9.53416 1.23496 10.386 2.27745 10.386Z"
                     fill="currentColor" fill-opacity="0.85" />
              <path d="M2.27745 15.8417C3.31764 15.8417 4.17174 14.9899 4.17174 13.9497C4.17174 12.9072 3.31764 12.0555 2.27745 12.0555C1.23496 12.0555 0.383164 12.9072 0.383164 13.9497C0.383164 14.9899 1.23496 15.8417 2.27745 15.8417Z"
                     fill="currentColor" fill-opacity="0.85" />
              <path d="M2.27745 21.2929C3.31764 21.2929 4.17174 20.4411 4.17174 19.4009C4.17174 18.3584 3.31764 17.5066 2.27745 17.5066C1.23496 17.5066 0.383164 18.3584 0.383164 19.4009C0.383164 20.4411 1.23496 21.2929 2.27745 21.2929Z"
                     fill="currentColor" fill-opacity="0.85" />
       </g>
</svg>