<?xml version="1.0" encoding="UTF-8"?>
<!--Generator: Apple Native CoreSVG 326-->
<!DOCTYPE svg PUBLIC "-//W3C//DTD SVG 1.1//EN" "http://www.w3.org/Graphics/SVG/1.1/DTD/svg11.dtd">
<svg version="1.1" xmlns="http://www.w3.org/2000/svg" xmlns:xlink="http://www.w3.org/1999/xlink"
       viewBox="0 0 16.5746 22.4684">
       <g>
              <rect height="22.4684" opacity="0" width="16.5746" x="0" y="0" />
              <path d="M0.38832 16.8912C0.38832 20.1334 2.29183 21.9767 5.44849 21.9767C7.82172 21.9767 9.53277 20.7965 10.6321 18.7037L11.4662 17.1314C12.9598 14.3042 16.5746 13.0377 16.5746 8.13659C16.5746 3.25808 13.3395 0 8.50307 0C3.64124 0 0.38832 3.29253 0.38832 8.24049ZM2.87013 16.8607L2.87013 8.24049C2.87013 4.78091 5.12732 2.48181 8.50307 2.48181C11.8563 2.48181 14.0928 4.74361 14.0928 8.13659C14.0928 12.0676 10.9562 12.7558 9.15561 16.1987L8.4776 17.4897C7.829 18.7529 6.96665 19.4782 5.56162 19.4782C3.87435 19.4782 2.87013 18.5021 2.87013 16.8607Z"
                     fill="currentColor" fill-opacity="0.85" />
              <path d="M4.15713 14.0196C4.15713 14.9979 4.93377 15.7015 6.0838 15.7015C7.64794 15.6992 8.69111 14.591 8.69111 13.0262C8.69111 10.4375 6.04207 9.97622 6.04953 7.88935C6.04953 6.53521 7.03095 5.60383 8.50077 5.60383C10.067 5.60383 11.1012 6.61048 11.1012 8.13713C11.1012 8.66436 11.5228 9.08076 12.05 9.08076C12.5623 9.08076 12.9862 8.66436 12.9862 8.13713C12.9862 5.49744 11.195 3.72635 8.50077 3.72635C5.89838 3.72635 4.15713 5.4847 4.15713 7.88935C4.15713 10.0682 5.83827 10.7168 5.83827 11.5372C5.83827 12.4949 4.15713 12.3724 4.15713 14.0196Z"
                     fill="currentColor" fill-opacity="0.85" />
       </g>
</svg>