<?xml version="1.0" encoding="UTF-8"?>
<!--Generator: Apple Native CoreSVG 326-->
<!DOCTYPE svg PUBLIC "-//W3C//DTD SVG 1.1//EN" "http://www.w3.org/Graphics/SVG/1.1/DTD/svg11.dtd">
<svg version="1.1" xmlns="http://www.w3.org/2000/svg" xmlns:xlink="http://www.w3.org/1999/xlink"
       viewBox="0 0 21.5816 20.9144">
       <g>
              <rect height="20.9144" opacity="0" width="21.5816" x="0" y="0" />
              <path d="M0.183987 3.44841C-0.255891 4.03992 0.125393 4.95929 0.982767 4.95929L1.99512 4.95929L1.99512 5.10401C1.99512 8.65925 3.8632 8.9191 3.8632 10.6414C3.8632 12.3212 1.50168 12.8272 1.50168 16.4076C1.50168 17.5875 1.85894 18.5587 2.69187 19.6312C3.70835 20.8981 5.72177 19.5744 4.65877 18.1628C4.11529 17.4314 3.94982 16.9913 3.94982 16.2605C3.94982 14.1527 6.3188 13.278 6.3188 10.6414C6.3188 8.00477 4.43349 7.60765 4.43349 5.10401L4.43349 4.95929L5.35631 4.95929C6.20623 4.95929 6.60704 4.07207 6.1574 3.44841L4.07283 0.537157C3.60827-0.115806 2.87948-0.16518 2.35578 0.537157ZM7.74107 3.44149C7.31611 4.04047 7.68247 4.95007 8.53239 4.95007L9.46267 4.95007L9.46267 5.08964C9.46267 8.65003 11.3382 8.90988 11.3382 10.6321C11.3382 12.312 8.96923 12.818 8.96923 16.3932C8.96923 17.5708 9.3265 18.5495 10.1594 19.622C11.1759 20.8911 13.1893 19.5675 12.1263 18.1536C11.5828 17.4222 11.4174 16.9821 11.4174 16.2536C11.4174 14.1435 13.7864 13.2687 13.7864 10.6321C13.7864 7.99555 11.901 7.59328 11.901 5.08964L11.901 4.95007L12.8313 4.95007C13.6738 4.95007 14.0746 4.0577 13.6249 3.44149L11.5404 0.527938C11.0758-0.132486 10.3321-0.189321 9.82333 0.527938ZM15.134 3.42481C14.7016 4.03125 15.068 4.94315 15.9253 4.94315L16.8579 4.94315L16.8579 5.08042C16.8579 8.63565 18.7237 8.90296 18.7237 10.6252C18.7237 12.305 16.3547 12.8111 16.3547 16.384C16.3547 17.5639 16.712 18.5426 17.5524 19.6076C18.5614 20.8819 20.5748 19.5508 19.5193 18.1443C18.9758 17.4153 18.8103 16.9752 18.8103 16.2444C18.8103 14.1366 21.1793 13.2618 21.1793 10.6252C21.1793 7.98117 19.2963 7.58406 19.2963 5.08042L19.2963 4.94315L20.2168 4.94315C21.0667 4.94315 21.4601 4.04848 21.0179 3.42481L18.9356 0.511257C18.4613-0.141706 17.7251-0.19854 17.2163 0.511257Z"
                     fill="currentColor" fill-opacity="0.85" />
       </g>
</svg>