<?xml version="1.0" encoding="UTF-8"?>
<!--Generator: Apple Native CoreSVG 326-->
<!DOCTYPE svg PUBLIC "-//W3C//DTD SVG 1.1//EN" "http://www.w3.org/Graphics/SVG/1.1/DTD/svg11.dtd">
<svg version="1.1" xmlns="http://www.w3.org/2000/svg" xmlns:xlink="http://www.w3.org/1999/xlink"
       viewBox="0 0 13.428 26.6527">
       <g>
              <rect height="26.6527" opacity="0" width="13.428" x="0" y="0" />
              <path d="M3.70839 6.29361C3.70839 4.70885 2.40441 3.90807 2.40441 3.08588C2.40441 2.58377 2.52851 2.35564 2.87492 1.87252C3.60139 0.91057 2.21164-0.0909835 1.49262 0.836509C0.935437 1.52811 0.680985 2.20072 0.680985 3.00029C0.680985 4.65857 1.95052 5.31638 1.95052 6.29361C1.95052 7.26623 0.680985 7.92635 0.680985 9.58978C0.680985 10.3819 0.935437 11.047 1.49032 11.7461C2.20934 12.6638 3.59909 11.6697 2.87261 10.7101C2.52851 10.2293 2.40441 10.0012 2.40441 9.48697C2.40441 8.68662 3.70839 7.87607 3.70839 6.29361ZM7.98968 6.29361C7.98968 4.70885 6.68569 3.90807 6.68569 3.08588C6.68569 2.58377 6.81495 2.35564 7.14874 1.87252C7.87522 0.91057 6.49293-0.0909835 5.7693 0.836509C5.21672 1.52811 4.95997 2.20072 4.95997 3.00029C4.95997 4.65857 6.23465 5.31638 6.23465 6.29361C6.23465 7.26623 4.95997 7.92635 4.95997 9.58978C4.95997 10.3819 5.21672 11.047 5.7693 11.7461C6.48832 12.6638 7.87291 11.6697 7.14644 10.7101C6.81495 10.2293 6.68569 10.0012 6.68569 9.48697C6.68569 8.68662 7.98968 7.87607 7.98968 6.29361ZM12.2514 6.29361C12.2514 4.70885 10.9549 3.90807 10.9549 3.08588C10.9549 2.58377 11.079 2.35564 11.4277 1.87252C12.1617 0.91057 10.7696-0.0909835 10.0408 0.836509C9.4934 1.52811 9.23895 2.20072 9.23895 3.00029C9.23895 4.65857 10.5085 5.31638 10.5085 6.29361C10.5085 7.26623 9.23895 7.92635 9.23895 9.58978C9.23895 10.3819 9.4934 11.047 10.0385 11.7461C10.7673 12.6638 12.1594 11.6697 11.4254 10.7101C11.079 10.2293 10.9549 10.0012 10.9549 9.48697C10.9549 8.68662 12.2514 7.87607 12.2514 6.29361Z"
                     fill="currentColor" fill-opacity="0.85" />
              <path d="M8.75722 26.6527C10.731 26.6527 12.5997 25.0143 12.5997 23.1969C12.5997 21.6258 11.3117 20.774 9.01331 20.2165L8.99202 19.7255L11.22 19.7255C12.3832 19.7255 13.0667 19.0868 13.0667 17.923C13.0667 15.9642 11.4254 14.0931 9.57589 14.0931C8.01976 14.0931 7.19035 15.3685 6.61042 17.6469L6.12171 17.6882L6.12171 15.4481C6.12171 14.2821 5.47324 13.6112 4.3118 13.6112C2.35066 13.6112 0.474452 15.2548 0.474452 17.0946C0.474452 18.6559 1.75727 19.4824 4.05801 20.0601L4.07239 20.5338L1.85929 20.5338C0.685778 20.5338 0 21.1921 0 22.3438C0 24.3072 1.65106 26.1811 3.48336 26.1811C5.03718 26.1811 5.89359 24.8954 6.46145 22.6268L6.945 22.6055L6.945 24.8186C6.945 25.9945 7.59347 26.6527 8.75722 26.6527ZM6.51355 21.4282C5.79089 21.4282 5.21242 20.8497 5.21242 20.1271C5.21242 19.4044 5.79089 18.8185 6.51355 18.8185C7.23621 18.8185 7.82214 19.4044 7.82214 20.1271C7.82214 20.8497 7.23621 21.4282 6.51355 21.4282Z"
                     fill="currentColor" fill-opacity="0.85" />
       </g>
</svg>