<?xml version="1.0" encoding="UTF-8"?>
<!--Generator: Apple Native CoreSVG 326-->
<!DOCTYPE svg PUBLIC "-//W3C//DTD SVG 1.1//EN" "http://www.w3.org/Graphics/SVG/1.1/DTD/svg11.dtd">
<svg version="1.1" xmlns="http://www.w3.org/2000/svg" xmlns:xlink="http://www.w3.org/1999/xlink"
       viewBox="0 0 29.8718 16.4113">
       <g>
              <rect height="16.4113" opacity="0" width="29.8718" x="0" y="0" />
              <path d="M15.5331 4.70904L16.9462 7.8054L18.0921 5.36127C18.4458 4.61471 19.4479 4.60495 19.8137 5.38311L20.7001 7.27855L25.2986 7.27855L23.7501 9.24314L20.0755 9.24314C19.666 9.24314 19.4076 9.04958 19.2307 8.66138L18.9518 8.05573L17.7128 10.7222C17.4056 11.3831 16.5011 11.3906 16.1818 10.7003L14.759 7.61143L13.3286 10.7003C13.0093 11.3906 12.1049 11.3906 11.7954 10.7296L10.5639 8.05573L10.2872 8.66138C10.1104 9.04958 9.84219 9.24314 9.4327 9.24314L5.75984 9.24314L4.21022 7.27855L8.8122 7.27855L9.7042 5.38311C10.07 4.60495 11.0698 4.61471 11.4161 5.36127L12.5695 7.8054L13.9849 4.70904C14.3042 4.01131 15.204 4.01131 15.5331 4.70904Z"
                     fill="currentColor" fill-opacity="0.85" />
              <path d="M14.759 14.6725C16.5336 14.6725 18.6976 15.333 20.3004 16.0902C20.9585 16.4015 21.6953 16.3262 22.1673 15.729L28.9296 7.1354C29.8227 6.00459 29.6705 4.72796 28.5569 3.84984C25.6383 1.56371 20.2197 0 14.759 0C9.29077 0 3.87218 1.56371 0.951284 3.84984C-0.162301 4.72796-0.314487 6.00459 0.580858 7.1354L7.35062 15.729C7.82265 16.3262 8.55713 16.4015 9.21525 16.0902C10.8106 15.333 12.9844 14.6725 14.759 14.6725ZM14.759 11.9139C12.9942 11.9139 10.8889 12.3827 9.12803 13.1135C8.95849 13.1738 8.84361 13.1543 8.7229 12.9997L3.34453 6.18104C3.23359 6.04135 3.26289 5.87412 3.41465 5.77294C6.45321 3.87762 10.4987 2.75852 14.759 2.75852C19.0117 2.75852 23.0573 3.87762 26.1033 5.77294C26.2625 5.87412 26.2769 6.02642 26.1636 6.18104L20.795 12.9922C20.6669 13.1543 20.5594 13.1813 20.3825 13.1135C18.6215 12.3827 16.5139 11.9139 14.759 11.9139Z"
                     fill="currentColor" fill-opacity="0.85" />
       </g>
</svg>