<?xml version="1.0" encoding="UTF-8"?>
<!--Generator: Apple Native CoreSVG 326-->
<!DOCTYPE svg PUBLIC "-//W3C//DTD SVG 1.1//EN" "http://www.w3.org/Graphics/SVG/1.1/DTD/svg11.dtd">
<svg version="1.1" xmlns="http://www.w3.org/2000/svg" xmlns:xlink="http://www.w3.org/1999/xlink"
       viewBox="0 0 21.4158 23.4608">
       <g>
              <rect height="23.4608" opacity="0" width="21.4158" x="0" y="0" />
              <path d="M1.46393 18.651L9.05698 23.0358C9.98393 23.5803 11.0705 23.5803 11.9998 23.0358L19.5905 18.651C20.5025 18.1313 21.0544 17.1796 21.0544 16.108L21.0544 7.34305C21.0544 6.27138 20.5025 5.31975 19.5905 4.79768L11.9998 0.410066C11.0705-0.136689 9.98393-0.136689 9.05698 0.410066L1.46393 4.79768C0.55191 5.31975 0 6.27138 0 7.34305L0 16.108C0 17.1796 0.55191 18.1313 1.46393 18.651ZM10.5284 20.3527L10.5284 3.09088C10.6938 3.09088 10.8593 3.13456 11.0053 3.23452L17.64 7.07265C17.9416 7.25019 18.1169 7.55183 18.1169 7.9023L18.1169 15.5487C18.1169 15.8992 17.9416 16.2008 17.64 16.3784L11.0076 20.2165C10.8616 20.3016 10.6938 20.3527 10.5284 20.3527Z"
                     fill="currentColor" fill-opacity="0.85" />
       </g>
</svg>