<?xml version="1.0" encoding="UTF-8"?>
<!--Generator: Apple Native CoreSVG 326-->
<!DOCTYPE svg PUBLIC "-//W3C//DTD SVG 1.1//EN" "http://www.w3.org/Graphics/SVG/1.1/DTD/svg11.dtd">
<svg version="1.1" xmlns="http://www.w3.org/2000/svg" xmlns:xlink="http://www.w3.org/1999/xlink"
       viewBox="0 0 27.6894 27.2802">
       <g>
              <rect height="27.2802" opacity="0" width="27.6894" x="0" y="0" />
              <path d="M14.0391 3.0459L12.9903 3.0459C11.1188 3.0459 9.65164 3.7634 8.78323 5.01749C8.51311 4.86454 8.19981 4.77849 7.86588 4.77849C6.83709 4.77849 6.00186 5.59528 6.00186 6.63559C6.00186 7.66899 6.83018 8.49731 7.86588 8.49731C7.87104 8.49731 7.8762 8.49729 7.88116 8.49655L7.88116 9.91653C7.87619 9.91576 7.87104 9.91575 7.86588 9.91575C6.1367 9.91575 4.73954 11.3204 4.73954 13.0421C4.73954 14.7759 6.1367 16.1684 7.86588 16.1684C7.87104 16.1684 7.87619 16.1684 7.88116 16.1676L7.88116 18.9125L4.27801 18.9125C2.42467 18.9125 1.35706 17.8472 1.35706 15.9869L1.35706 4.59973C1.35706 2.74408 2.42467 1.67878 4.27801 1.67878L11.4514 1.67878C12.7011 1.67878 13.5923 2.16187 14.0391 3.0459ZM7.88116 12.0148L7.88116 14.0814C7.8762 14.0822 7.87104 14.0822 7.86588 14.0822C7.29122 14.0822 6.83552 13.619 6.83552 13.0444C6.83552 12.4697 7.29122 12.014 7.86588 12.014C7.87104 12.014 7.8762 12.0141 7.88116 12.0148ZM8.22238 6.09884C8.09327 6.44662 8.00065 6.82183 7.94962 7.22374C7.92243 7.22803 7.8944 7.2299 7.86588 7.2299C7.51759 7.2299 7.24403 6.95404 7.24403 6.60575C7.24403 6.25285 7.51759 5.99137 7.86588 5.99137C7.99945 5.99137 8.12223 6.03034 8.22238 6.09884Z"
                     fill="currentColor" fill-opacity="0.85" />
              <path d="M7.88116 9.91653L7.88116 12.0148C7.8762 12.0141 7.87104 12.014 7.86588 12.014C7.29122 12.014 6.83552 12.4697 6.83552 13.0444C6.83552 13.619 7.29122 14.0822 7.86588 14.0822C7.87104 14.0822 7.8762 14.0822 7.88116 14.0814L7.88116 16.1676C7.87619 16.1684 7.87104 16.1684 7.86588 16.1684C6.1367 16.1684 4.73954 14.7759 4.73954 13.0421C4.73954 11.3204 6.1367 9.91575 7.86588 9.91575C7.87104 9.91575 7.87619 9.91576 7.88116 9.91653ZM8.78323 5.01749C8.55092 5.33949 8.36361 5.70185 8.22238 6.09884C8.12223 6.03034 7.99945 5.99137 7.86588 5.99137C7.51759 5.99137 7.24403 6.25285 7.24403 6.60575C7.24403 6.95404 7.51759 7.2299 7.86588 7.2299C7.8944 7.2299 7.92243 7.22803 7.94962 7.22374C7.90263 7.51902 7.88116 7.83068 7.88116 8.15454L7.88116 8.49655C7.8762 8.49729 7.87104 8.49731 7.86588 8.49731C6.83018 8.49731 6.00186 7.66899 6.00186 6.63559C6.00186 5.59528 6.83709 4.77849 7.86588 4.77849C8.19981 4.77849 8.51311 4.86454 8.78323 5.01749Z"
                     fill="currentColor" fill-opacity="0.2125" />
              <path d="M9.59955 8.15454L9.59955 22.1716C9.59955 24.3248 10.8366 25.5619 12.9927 25.5619L22.5877 25.5619C24.7438 25.5619 25.9636 24.3248 25.9636 22.1716L25.9636 8.15454C25.9636 5.98409 24.7461 4.76199 22.5877 4.76199L12.9927 4.76199C10.8366 4.76199 9.59955 5.98409 9.59955 8.15454ZM17.7804 12.8699C16.43 12.8699 15.3662 11.8159 15.3662 10.4609C15.3662 9.10072 16.43 8.03177 17.7804 8.03177C19.1256 8.03177 20.2044 9.10072 20.2044 10.4609C20.2044 11.8136 19.1256 12.8699 17.7804 12.8699ZM17.7879 22.2921C15.6446 22.2921 13.9189 20.571 13.9189 18.4231C13.9189 16.258 15.6446 14.5593 17.7879 14.5593C19.9185 14.5593 21.6517 16.258 21.6517 18.4231C21.6517 20.571 19.9185 22.2921 17.7879 22.2921ZM17.7879 11.2235C18.204 11.2235 18.5505 10.8724 18.5505 10.4609C18.5505 10.0247 18.1942 9.68562 17.7879 9.68562C17.3592 9.68562 17.0201 10.0126 17.0201 10.4609C17.0201 10.8724 17.3592 11.2235 17.7879 11.2235ZM17.7879 19.6431C18.4666 19.6431 19.0228 19.0874 19.0228 18.4231C19.0228 17.7146 18.4666 17.1859 17.7879 17.1859C17.0989 17.1859 16.5553 17.7146 16.5553 18.4231C16.5553 19.0874 17.1035 19.6431 17.7879 19.6431Z"
                     fill="currentColor" fill-opacity="0.85" />
              <path d="M17.7804 12.8699C16.43 12.8699 15.3662 11.8159 15.3662 10.4609C15.3662 9.10072 16.43 8.03177 17.7804 8.03177C19.1256 8.03177 20.2044 9.10072 20.2044 10.4609C20.2044 11.8136 19.1256 12.8699 17.7804 12.8699ZM17.7879 22.2921C15.6446 22.2921 13.9189 20.571 13.9189 18.4231C13.9189 16.258 15.6446 14.5593 17.7879 14.5593C19.9185 14.5593 21.6517 16.258 21.6517 18.4231C21.6517 20.571 19.9185 22.2921 17.7879 22.2921ZM17.7879 11.2235C18.204 11.2235 18.5505 10.8724 18.5505 10.4609C18.5505 10.0247 18.1942 9.68562 17.7879 9.68562C17.3592 9.68562 17.0201 10.0126 17.0201 10.4609C17.0201 10.8724 17.3592 11.2235 17.7879 11.2235ZM17.7879 19.6431C18.4666 19.6431 19.0228 19.0874 19.0228 18.4231C19.0228 17.7146 18.4666 17.1859 17.7879 17.1859C17.0989 17.1859 16.5553 17.7146 16.5553 18.4231C16.5553 19.0874 17.1035 19.6431 17.7879 19.6431Z"
                     fill="currentColor" fill-opacity="0.2125" />
       </g>
</svg>