<?xml version="1.0" encoding="UTF-8"?>
<!--Generator: Apple Native CoreSVG 326-->
<!DOCTYPE svg PUBLIC "-//W3C//DTD SVG 1.1//EN" "http://www.w3.org/Graphics/SVG/1.1/DTD/svg11.dtd">
<svg version="1.1" xmlns="http://www.w3.org/2000/svg" xmlns:xlink="http://www.w3.org/1999/xlink"
       viewBox="0 0 31.8722 14.9424">
       <g>
              <rect height="14.9424" opacity="0" width="31.8722" x="0" y="0" />
              <path d="M3.60697 12.9362L27.9015 12.9362C30.2169 12.9362 31.5108 11.6446 31.5108 9.33849L31.5108 3.59775C31.5108 1.29913 30.2169 0 27.9015 0L3.60697 0C1.29628 0 0 1.29913 0 3.59775L0 9.33849C0 11.6446 1.29628 12.9362 3.60697 12.9362ZM6.06682 8.82376C4.75659 8.82376 3.69796 7.77259 3.69796 6.46466C3.69796 5.15443 4.75659 4.10326 6.06682 4.10326C7.35752 4.10326 8.40869 5.15443 8.40869 6.46466C8.40869 7.77259 7.35752 8.82376 6.06682 8.82376ZM11.542 8.65447C10.9544 8.65447 10.5851 8.28744 10.5851 7.70732L10.5851 5.23122C10.5851 4.65111 10.9544 4.28177 11.542 4.28177L19.974 4.28177C20.5564 4.28177 20.9234 4.65111 20.9234 5.23122L20.9234 7.70732C20.9234 8.28744 20.5564 8.65447 19.974 8.65447ZM25.444 8.82376C24.1533 8.82376 23.1096 7.77259 23.1096 6.46466C23.1096 5.15443 24.1533 4.10326 25.444 4.10326C26.7519 4.10326 27.8106 5.15443 27.8106 6.46466C27.8106 7.77259 26.7519 8.82376 25.444 8.82376ZM8.49719 11.6071L2.22765 11.6071L2.22765 13.5723C2.22765 14.3567 2.7812 14.9178 3.57307 14.9178L7.15178 14.9178C7.95341 14.9178 8.49719 14.3567 8.49719 13.5723ZM23.0136 11.6071L23.0136 13.5723C23.0136 14.3567 23.5649 14.9178 24.3591 14.9178L27.9355 14.9178C28.7296 14.9178 29.2832 14.3567 29.2832 13.5723L29.2832 11.6071Z"
                     fill="currentColor" fill-opacity="0.85" />
       </g>
</svg>