<?xml version="1.0" encoding="UTF-8"?>
<!--Generator: Apple Native CoreSVG 326-->
<!DOCTYPE svg PUBLIC "-//W3C//DTD SVG 1.1//EN" "http://www.w3.org/Graphics/SVG/1.1/DTD/svg11.dtd">
<svg version="1.1" xmlns="http://www.w3.org/2000/svg" xmlns:xlink="http://www.w3.org/1999/xlink"
       viewBox="0 0 27.595 27.3953">
       <g>
              <rect height="27.3953" opacity="0" width="27.595" x="0" y="0" />
              <path d="M15.8052 4.71122L15.8052 8.22691L14.6347 8.22691C12.4798 8.22691 11.0551 8.66042 9.93722 9.77085C9.80238 9.90569 9.67761 10.0452 9.56279 10.1903C9.25363 10.0967 8.92552 10.0476 8.58599 10.0476C6.67411 10.0476 5.13793 11.5912 5.13793 13.4956C5.13793 15.3368 6.58429 16.8491 8.40536 16.9397L8.40536 20.1438L4.45094 20.1438C2.48842 20.1438 1.35475 19.0078 1.35475 17.043L1.35475 4.71122C1.35475 2.74869 2.48842 1.61272 4.45094 1.61272L12.709 1.61272C14.679 1.61272 15.8052 2.74869 15.8052 4.71122ZM8.40536 14.4488L8.40536 14.5928C7.88335 14.5099 7.48605 14.0585 7.48605 13.5128C7.48605 12.9178 7.97423 12.419 8.57875 12.4176C8.45908 13.0131 8.40536 13.6843 8.40536 14.4488ZM6.47388 6.48365C6.47388 7.66462 7.40501 8.58599 8.58368 8.58599C9.76235 8.58599 10.686 7.66462 10.686 6.48365C10.686 5.30498 9.76466 4.36639 8.58368 4.36639C7.40501 4.36639 6.47388 5.30498 6.47388 6.48365ZM9.25436 6.48134C9.25436 6.84916 8.95381 7.1371 8.58368 7.1371C8.2084 7.1371 7.92047 6.84916 7.92047 6.48134C7.92047 6.08653 8.2084 5.79344 8.58368 5.79344C8.94404 5.79344 9.25436 6.0986 9.25436 6.48134Z"
                     fill="currentColor" fill-opacity="0.85" />
              <path d="M14.6393 25.6792L21.3657 25.6792C22.994 25.6792 24.0614 25.4328 24.8519 24.6424C25.6424 23.8398 25.8714 22.8017 25.8714 21.1562L25.8714 14.4534C25.8714 12.8078 25.6424 11.7674 24.8519 10.9844C24.0442 10.1865 22.994 9.94529 21.3657 9.94529L14.6347 9.94529C13.0087 9.94529 11.951 10.1865 11.1531 10.9844C10.3626 11.7772 10.1237 12.8078 10.1237 14.4488L10.1237 21.1562C10.1237 22.8017 10.3626 23.8421 11.1531 24.6424C11.951 25.4328 13.0087 25.6792 14.6393 25.6792ZM14.7782 16.2234C14.7587 15.6604 15.1919 15.1519 15.7664 15.1128C15.8227 15.6362 15.3499 16.2717 14.7782 16.2234ZM16.7747 18.7163C16.6575 19.0639 16.4265 19.5396 16.0927 19.8211C15.9928 19.9039 15.8566 19.982 15.6814 19.982C15.5182 19.982 15.4159 19.9062 15.2625 19.8625C15.1649 19.8481 15.0408 19.7775 14.8925 19.7775C14.5346 19.7775 14.3789 19.9843 14.0842 19.9843C13.8871 19.9843 13.7239 19.8625 13.5073 19.6241C13.0885 19.1564 12.8184 18.4285 12.8184 17.808C12.8184 17.4259 12.9207 17.053 13.1517 16.7537C13.3488 16.4883 13.6728 16.3349 14.0526 16.3349C14.4156 16.3349 14.6225 16.5492 14.8 16.5492C15.0166 16.5492 15.2798 16.3251 15.7227 16.3251C16.0973 16.3251 16.4334 16.486 16.6477 16.7951C16.3679 16.9657 16.2582 17.1628 16.2048 17.3282C16.1123 17.5644 16.0927 17.8442 16.2048 18.1314C16.3019 18.3969 16.4897 18.5796 16.7747 18.7163ZM18.7218 15.4708L18.7218 16.3251L19.4331 16.3251L19.4331 16.8973L18.7218 16.8973L18.7218 18.9134C18.7218 19.2345 18.8729 19.3609 19.1848 19.3609C19.2555 19.3609 19.3819 19.3609 19.4009 19.3391L19.4009 19.9452C19.3526 19.955 19.1848 19.982 19.0068 19.982C18.2668 19.982 17.987 19.7091 17.987 18.9984L17.987 16.8973L17.4705 16.8973L17.4705 16.3251L17.987 16.3251L17.987 15.4708ZM21.8846 19.9452L21.0883 19.9452L19.764 16.3251L20.5603 16.3251L21.4876 19.2345L22.3764 16.3251L23.1871 16.3251Z"
                     fill="currentColor" fill-opacity="0.85" />
       </g>
</svg>