<?xml version="1.0" encoding="UTF-8"?>
<!--Generator: Apple Native CoreSVG 326-->
<!DOCTYPE svg PUBLIC "-//W3C//DTD SVG 1.1//EN" "http://www.w3.org/Graphics/SVG/1.1/DTD/svg11.dtd">
<svg version="1.1" xmlns="http://www.w3.org/2000/svg" xmlns:xlink="http://www.w3.org/1999/xlink"
       viewBox="0 0 22.6942 21.8464">
       <g>
              <rect height="21.8464" opacity="0" width="22.6942" x="0" y="0" />
              <path d="M2.572 3.56943L2.572 18.2822C2.572 20.5531 3.863 21.8464 6.12936 21.8464L16.2035 21.8464C18.4698 21.8464 19.7608 20.5531 19.7608 18.2822L19.7608 3.56943C19.7608 1.29847 18.4698 0.0051558 16.2035 0.0051558L6.12936 0.0051558C3.863 0.0051558 2.572 1.29847 2.572 3.56943ZM11.159 8.5243C9.74767 8.5243 8.6276 7.41169 8.6276 5.98548C8.6276 4.56443 9.74998 3.4392 11.159 3.4415C12.5777 3.45873 13.6955 4.56674 13.7052 5.98548C13.7173 7.41169 12.5754 8.5243 11.159 8.5243ZM11.1664 6.78948C11.6095 6.78948 11.9704 6.42627 11.9704 5.98548C11.9704 5.53493 11.5997 5.17403 11.1664 5.17403C10.721 5.17403 10.3624 5.52055 10.3624 5.98548C10.3624 6.42627 10.7233 6.78948 11.1664 6.78948ZM1.11237 15.4466C0.500777 15.4466 0 14.9435 0 14.2997C0 13.6485 0.500777 13.1477 1.11237 13.1477L9.5964 13.1477L10.5813 13.2287L10.1418 12.8931L9.5597 12.3289C9.35869 12.125 9.22834 11.8379 9.22834 11.5553C9.22834 10.9363 9.67798 10.4843 10.2999 10.4843C10.6117 10.4843 10.85 10.5998 11.0562 10.791L13.4658 13.2335C13.8081 13.5705 13.9585 13.9179 13.9585 14.2997C13.9585 14.6741 13.8081 15.0215 13.4658 15.366L11.0562 17.7987C10.85 17.9997 10.6117 18.1077 10.2999 18.1077C9.67798 18.1077 9.22834 17.6557 9.22834 17.0367C9.22834 16.7541 9.36615 16.4595 9.5597 16.2631L10.1418 15.6989L10.5813 15.3633L9.5964 15.4442Z"
                     fill="currentColor" fill-opacity="0.85" />
       </g>
</svg>