<?xml version="1.0" encoding="UTF-8"?>
<!--Generator: Apple Native CoreSVG 326-->
<!DOCTYPE svg PUBLIC "-//W3C//DTD SVG 1.1//EN" "http://www.w3.org/Graphics/SVG/1.1/DTD/svg11.dtd">
<svg version="1.1" xmlns="http://www.w3.org/2000/svg" xmlns:xlink="http://www.w3.org/1999/xlink"
       viewBox="0 0 27.1403 27.8806">
       <g>
              <rect height="27.8806" opacity="0" width="27.1403" x="0" y="0" />
              <path d="M14.6648 4.32684L12.882 4.32684C12.641 4.32684 12.4067 4.33931 12.1824 4.36819C12.0587 4.17983 11.838 4.08598 11.504 4.08598L4.5247 4.08598C3.96266 4.08598 3.71949 4.35383 3.71949 4.88888L3.71949 15.2766C3.71949 15.8191 3.96266 16.0823 4.5247 16.0823L7.89269 16.0823L7.89269 18.4471L4.20783 18.4471C2.38002 18.4471 1.35475 17.4069 1.35475 15.5969L1.35475 4.58123C1.35475 2.74881 2.38233 1.72124 4.20783 1.72124L11.8208 1.72124C13.5617 1.72124 14.5745 2.65334 14.6648 4.32684ZM7.89269 9.33509L7.89269 11.2071C7.35597 11.2683 6.94755 11.722 6.94755 12.2674C6.94755 12.8087 7.35419 13.2622 7.89269 13.3233L7.89269 15.2367C6.29071 15.1749 5.02821 13.8714 5.02821 12.2628C5.02821 10.6509 6.29392 9.34468 7.89478 9.28376ZM9.43969 5.52242C9.13894 5.7821 8.88106 6.08645 8.6659 6.42758C8.55804 6.16873 8.3101 5.98918 8.01807 5.98918C7.61755 5.98918 7.30439 6.31442 7.30439 6.72009C7.30439 7.12575 7.61755 7.44638 8.01807 7.44638C8.08034 7.44638 8.14061 7.43833 8.1976 7.42235C8.06982 7.77961 7.98304 8.16655 7.94061 8.58035C6.94238 8.54201 6.16138 7.72627 6.16138 6.72009C6.16138 5.68548 6.98345 4.85364 8.01807 4.85364C8.59283 4.85364 9.10223 5.11294 9.43969 5.52242Z"
                     fill="currentColor" fill-opacity="0.85" />
              <path d="M9.61107 9.33509L9.61107 22.8821C9.61107 24.9705 10.8033 26.1622 12.882 26.1622L22.1487 26.1622C24.2371 26.1622 25.4242 24.9705 25.4242 22.8821L25.4242 9.33509C25.4242 7.25186 24.2371 6.05269 22.1487 6.05269L12.882 6.05269C10.801 6.05269 9.61107 7.25186 9.61107 9.33509ZM12.3897 9.70297C12.3897 9.12492 12.6512 8.83359 13.2688 8.83359L21.7768 8.83359C22.3893 8.83359 22.6433 9.12492 22.6433 9.70297L22.6433 22.5194C22.6433 23.09 22.387 23.3739 21.7768 23.3739L13.2688 23.3739C12.6512 23.3739 12.3897 23.09 12.3897 22.5194ZM17.5079 14.2532C18.7441 14.2532 19.7258 13.2813 19.7258 12.0525C19.7258 10.8261 18.7464 9.85134 17.5079 9.85134C16.2889 9.85134 15.3245 10.8238 15.3245 12.0525C15.3245 13.2836 16.2889 14.2532 17.5079 14.2532ZM17.5228 12.7417C17.1332 12.7417 16.8234 12.4445 16.8234 12.0525C16.8234 11.6531 17.1309 11.3583 17.5228 11.3583C17.8901 11.3583 18.2096 11.6727 18.2096 12.0525C18.2096 12.4445 17.8998 12.7417 17.5228 12.7417ZM17.5228 22.3085C19.4652 22.3085 21.0399 20.7361 21.0399 18.7914C21.0399 16.8192 19.4652 15.2692 17.5228 15.2692C15.5678 15.2692 14.0006 16.8215 14.0006 18.7914C14.0006 20.7338 15.5678 22.3085 17.5228 22.3085ZM17.5228 19.8937C16.9073 19.8937 16.3982 19.3966 16.3982 18.7914C16.3982 18.1392 16.905 17.6622 17.5228 17.6622C18.1452 17.6622 18.6348 18.1392 18.6348 18.7914C18.6348 19.3966 18.1452 19.8937 17.5228 19.8937Z"
                     fill="currentColor" fill-opacity="0.85" />
       </g>
</svg>