<?xml version="1.0" encoding="UTF-8"?>
<!--Generator: Apple Native CoreSVG 326-->
<!DOCTYPE svg PUBLIC "-//W3C//DTD SVG 1.1//EN" "http://www.w3.org/Graphics/SVG/1.1/DTD/svg11.dtd">
<svg version="1.1" xmlns="http://www.w3.org/2000/svg" xmlns:xlink="http://www.w3.org/1999/xlink"
       viewBox="0 0 29.0005 27.2816">
       <g>
              <rect height="27.2816" opacity="0" width="29.0005" x="0" y="0" />
              <path d="M15.0916 2.3132C12.8912 2.71334 11.271 3.56397 10.0775 4.92236C9.70652 4.42203 9.11023 4.09568 8.44369 4.09568C7.3258 4.09568 6.41529 5.01365 6.41529 6.12408C6.41529 7.2449 7.32219 8.14888 8.43711 8.15215C8.31941 8.65345 8.24364 9.1664 8.20529 9.66941C6.4516 9.78866 5.06618 11.2512 5.06618 13.0372C5.06618 14.7794 6.42769 16.2352 8.15951 16.3779L8.15951 18.6618C8.15951 18.8774 8.16439 19.0888 8.18404 19.2879L4.17017 19.2879C2.38221 19.2879 1.35706 18.2604 1.35706 16.4627L1.35706 4.0258C1.35706 2.23554 2.38221 1.20063 4.17017 1.20063L12.7195 1.20063C13.8201 1.20063 14.6317 1.59279 15.0916 2.3132ZM8.15951 14.0711C7.71308 13.9432 7.38852 13.5195 7.38852 13.0326C7.38852 12.5395 7.71308 12.1199 8.15951 11.9934ZM9.13796 6.12408C9.13796 6.1864 9.12943 6.24689 9.1127 6.30415C9.06751 6.3779 9.02807 6.45605 8.9943 6.53804C8.869 6.69917 8.67079 6.80343 8.44369 6.80343C8.05403 6.80343 7.75919 6.49651 7.75919 6.12408C7.75919 5.74189 8.05403 5.43958 8.44369 5.43958C8.83334 5.43958 9.13796 5.74189 9.13796 6.12408Z"
                     fill="currentColor" fill-opacity="0.85" />
              <path d="M8.15951 10.6781L8.15951 11.9934C7.71308 12.1199 7.38852 12.5395 7.38852 13.0326C7.38852 13.5195 7.71308 13.9432 8.15951 14.0711L8.15951 16.3779C6.42769 16.2352 5.06618 14.7794 5.06618 13.0372C5.06618 11.2512 6.4516 9.78866 8.20529 9.66941C8.17274 10.0125 8.15951 10.3505 8.15951 10.6781ZM10.0775 4.92236C9.81598 5.21737 9.57564 5.53762 9.35401 5.88261C9.26667 6.01758 9.18491 6.15724 9.1127 6.30415C9.12943 6.24689 9.13796 6.1864 9.13796 6.12408C9.13796 5.74189 8.83334 5.43958 8.44369 5.43958C8.05403 5.43958 7.75919 5.74189 7.75919 6.12408C7.75919 6.49651 8.05403 6.80343 8.44369 6.80343C8.67079 6.80343 8.869 6.69917 8.9943 6.53804C8.7477 7.04114 8.56624 7.58938 8.43711 8.15215C7.32219 8.14888 6.41529 7.2449 6.41529 6.12408C6.41529 5.01365 7.3258 4.09568 8.44369 4.09568C9.11023 4.09568 9.70652 4.42203 10.0775 4.92236Z"
                     fill="currentColor" fill-opacity="0.2125" />
              <path d="M18.58 25.558C24.595 25.558 27.2821 23.4127 27.2821 18.6618L27.2821 10.6781C27.2821 9.28978 27.0142 7.8108 26.3656 6.81253C26.0268 6.28081 25.3498 6.11207 24.6241 6.47328C23.2189 7.2339 21.0065 7.72067 18.58 7.72067C16.161 7.72067 13.9411 7.2339 12.5433 6.47328C11.8176 6.11207 11.1309 6.28081 10.792 6.81253C10.1458 7.8108 9.88306 9.28978 9.88306 10.6781L9.88306 18.6618C9.88306 23.4127 12.565 25.558 18.58 25.558Z"
                     fill="currentColor" fill-opacity="0.425" />
              <path d="M18.5501 6.34547C21.2292 6.34547 23.2633 5.88813 23.2633 5.05071C23.2633 4.20122 21.2367 3.75364 18.5501 3.75364C15.9285 3.75364 13.8944 4.20122 13.8944 5.05071C13.8944 5.88813 15.9359 6.34547 18.5501 6.34547Z"
                     fill="currentColor" fill-opacity="0.85" />
       </g>
</svg>