<?xml version="1.0" encoding="UTF-8"?>
<!--Generator: Apple Native CoreSVG 326-->
<!DOCTYPE svg PUBLIC "-//W3C//DTD SVG 1.1//EN" "http://www.w3.org/Graphics/SVG/1.1/DTD/svg11.dtd">
<svg version="1.1" xmlns="http://www.w3.org/2000/svg" xmlns:xlink="http://www.w3.org/1999/xlink"
       viewBox="0 0 21.365 21.006">
       <g>
              <rect height="21.006" opacity="0" width="21.365" x="0" y="0" />
              <path d="M10.4981 20.9962C16.302 20.9962 21.0037 16.2946 21.0037 10.4981C21.0037 4.70163 16.302 0 10.4981 0C4.70163 0 0 4.70163 0 10.4981C0 16.2946 4.70163 20.9962 10.4981 20.9962ZM10.4981 17.9484C6.37829 17.9484 3.04785 14.6179 3.04785 10.4981C3.04785 6.37829 6.37829 3.04785 10.4981 3.04785C14.6179 3.04785 17.9558 6.37829 17.9558 10.4981C17.9558 14.6179 14.6179 17.9484 10.4981 17.9484Z"
                     fill="currentColor" fill-opacity="0.85" />
              <path d="M10.4981 11.3097C13.2734 11.3097 15.5184 10.2751 15.5184 8.9051C15.5184 7.57412 13.2734 6.56135 10.4981 6.56135C7.71533 6.56135 5.48525 7.57412 5.48525 8.9051C5.48525 10.2751 7.71533 11.3097 10.4981 11.3097ZM10.4981 14.4326C13.3004 14.4326 15.5184 13.1417 15.5184 11.4908L15.5184 10.5106C14.5275 11.4992 12.5932 12.0404 10.4981 12.0404C8.40529 12.0404 6.47103 11.4992 5.48525 10.5106L5.48525 11.4908C5.48525 13.1417 7.69349 14.4326 10.4981 14.4326Z"
                     fill="currentColor" fill-opacity="0.85" />
       </g>
</svg>