<?xml version="1.0" encoding="UTF-8"?>
<!--Generator: Apple Native CoreSVG 326-->
<!DOCTYPE svg PUBLIC "-//W3C//DTD SVG 1.1//EN" "http://www.w3.org/Graphics/SVG/1.1/DTD/svg11.dtd">
<svg version="1.1" xmlns="http://www.w3.org/2000/svg" xmlns:xlink="http://www.w3.org/1999/xlink"
       viewBox="0 0 22.4389 17.3459">
       <g>
              <rect height="17.3459" opacity="0" width="22.4389" x="0" y="0" />
              <path d="M11.029 10.452C17.1413 10.452 22.0776 8.18942 22.0776 5.16135C22.0776 2.2137 17.1413 0 11.029 0C4.91163 0 0 2.2137 0 5.16135C0 8.18942 4.91163 10.452 11.029 10.452ZM11.029 17.3361C17.1729 17.3361 22.0776 14.4986 22.0776 10.8686L22.0776 8.56622C19.8926 10.754 15.6421 11.9987 11.029 11.9987C6.41541 11.9987 2.17234 10.7563 0 8.56622L0 10.8686C0 14.4986 4.88002 17.3361 11.029 17.3361Z"
                     fill="currentColor" fill-opacity="0.85" />
       </g>
</svg>