<?xml version="1.0" encoding="UTF-8"?>
<!--Generator: Apple Native CoreSVG 326-->
<!DOCTYPE svg PUBLIC "-//W3C//DTD SVG 1.1//EN" "http://www.w3.org/Graphics/SVG/1.1/DTD/svg11.dtd">
<svg version="1.1" xmlns="http://www.w3.org/2000/svg" xmlns:xlink="http://www.w3.org/1999/xlink"
       viewBox="0 0 30.9185 27.193">
       <g>
              <rect height="27.193" opacity="0" width="30.9185" x="0" y="0" />
              <path d="M5.41465 4.05037C6.80761 4.98678 8.60874 5.46705 11.0821 5.46705C11.1097 5.46705 11.1373 5.46699 11.1624 5.46507C10.2022 6.09788 9.37704 6.88106 8.67503 7.79946C7.12405 9.78801 6.24108 12.4429 6.24108 15.4882C6.24108 16.7288 6.42338 17.9522 6.78107 19.1157C5.9186 18.828 5.23418 18.3966 4.56904 17.7807C2.5535 15.934 1.39206 13.2803 1.39206 10.4876C1.39206 8.33063 2.09233 6.18583 3.50659 4.36275C4.0699 3.6094 4.72505 3.60764 5.41465 4.05037Z"
                     fill="currentColor" fill-opacity="0.425" />
              <path d="M15.4133 2.92471C15.4133 3.68862 13.5803 4.1046 11.0821 4.1046C8.64816 4.1046 6.82266 3.68862 6.82266 2.92471C6.82266 2.14589 8.64816 1.73968 11.0821 1.73968C13.5878 1.73968 15.4133 2.14589 15.4133 2.92471Z"
                     fill="currentColor" fill-opacity="0.85" />
              <path d="M18.5462 25.4746C22.3149 25.4746 24.0651 24.9732 25.6825 23.4683C27.8888 21.4579 29.1651 18.5326 29.1651 15.4882C29.1651 13.1279 28.3959 10.7757 26.838 8.76941C26.223 7.94716 25.5064 7.9477 24.7577 8.43004C23.2303 9.45665 21.2396 9.98344 18.5462 9.98344C15.8454 9.98344 13.8621 9.45665 12.3347 8.43004C11.5785 7.9477 10.8642 7.94716 10.2492 8.76941C8.68904 10.7757 7.92963 13.1279 7.92963 15.4882C7.92963 18.5326 9.19619 21.4579 11.4047 23.4683C13.0297 24.9732 14.7775 25.4746 18.5462 25.4746Z"
                     fill="currentColor" fill-opacity="0.425" />
              <path d="M18.5462 8.48888C21.2834 8.48888 23.2922 8.02407 23.2922 7.18665C23.2922 6.34177 21.2909 5.89419 18.5462 5.89419C15.8687 5.89419 13.8674 6.34177 13.8674 7.18665C13.8674 8.02407 15.8761 8.48888 18.5462 8.48888Z"
                     fill="currentColor" fill-opacity="0.85" />
       </g>
</svg>