<?xml version="1.0" encoding="UTF-8"?>
<!--Generator: Apple Native CoreSVG 326-->
<!DOCTYPE svg PUBLIC "-//W3C//DTD SVG 1.1//EN" "http://www.w3.org/Graphics/SVG/1.1/DTD/svg11.dtd">
<svg version="1.1" xmlns="http://www.w3.org/2000/svg" xmlns:xlink="http://www.w3.org/1999/xlink"
       viewBox="0 0 17.7603 21.844">
       <g>
              <rect height="21.844" opacity="0" width="17.7603" x="0" y="0" />
              <path d="M8.70208 21.844C14.7171 21.844 17.399 19.6987 17.399 14.9478L17.399 6.95658C17.399 5.56829 17.1386 4.08931 16.49 3.0985C16.1437 2.55932 15.4644 2.39804 14.7411 2.75178C13.341 3.51241 11.1211 3.99918 8.70208 3.99918C6.2756 3.99918 4.05571 3.51241 2.65795 2.75178C1.93226 2.39804 1.25528 2.55932 0.908991 3.0985C0.260396 4.08931 0 5.56829 0 6.95658L0 14.9478C0 19.6987 2.6796 21.844 8.70208 21.844Z"
                     fill="currentColor" fill-opacity="0.425" />
              <path d="M8.66478 2.62398C11.3646 2.62398 13.3802 2.16663 13.3802 1.32922C13.3802 0.479729 11.372 0.0321478 8.66478 0.0321478C6.02466 0.0321478 4.01877 0.479729 4.01877 1.32922C4.01877 2.16663 6.03213 2.62398 8.66478 2.62398Z"
                     fill="currentColor" fill-opacity="0.85" />
       </g>
</svg>