<?xml version="1.0" encoding="UTF-8"?>
<!--Generator: Apple Native CoreSVG 326-->
<!DOCTYPE svg PUBLIC "-//W3C//DTD SVG 1.1//EN" "http://www.w3.org/Graphics/SVG/1.1/DTD/svg11.dtd">
<svg version="1.1" xmlns="http://www.w3.org/2000/svg" xmlns:xlink="http://www.w3.org/1999/xlink"
       viewBox="0 0 30.8812 27.193">
       <g>
              <rect height="27.193" opacity="0" width="30.8812" x="0" y="0" />
              <path d="M5.46426 4.07979C6.79676 4.9701 8.69826 5.45959 11.0448 5.45959C11.0763 5.45959 11.1077 5.4595 11.1372 5.45717C10.1718 6.0913 9.34269 6.8772 8.63773 7.79946C8.58173 7.87125 8.52661 7.94391 8.47891 8.0237C7.1911 7.86145 6.04051 7.55917 5.07406 7.09185C4.33624 8.33494 4.081 9.41413 4.081 10.5324C4.081 12.4719 4.83802 14.2908 6.2113 15.6331C6.2182 16.8148 6.39676 17.9786 6.73644 19.0879C5.87547 18.8017 5.18966 18.3725 4.52428 17.7583C2.52366 15.9191 1.35475 13.258 1.35475 10.4652C1.35475 8.31571 2.05503 6.17837 3.42956 4.40424C4.00494 3.64167 4.73494 3.62323 5.46426 4.07979Z"
                     fill="currentColor" fill-opacity="0.425" />
              <path d="M15.3611 2.90979C15.3611 3.68116 13.5281 4.09714 11.0448 4.09714C8.63324 4.09714 6.80027 3.68116 6.80027 2.90979C6.80027 2.14589 8.61832 1.73968 11.0448 1.73968C13.543 1.73968 15.3611 2.14589 15.3611 2.90979Z"
                     fill="currentColor" fill-opacity="0.85" />
              <path d="M18.5387 25.4746C22.3149 25.4746 24.0576 24.9732 25.6825 23.4683C27.8888 21.4579 29.1651 18.5326 29.1651 15.4882C29.1651 13.1279 28.3959 10.7757 26.8852 8.83043C26.2604 7.99896 25.4569 7.98052 24.6564 8.48415C23.209 9.44512 21.2396 9.98344 18.5387 9.98344C15.8454 9.98344 13.8759 9.44512 12.4286 8.48415C11.628 7.98052 10.8268 7.99896 10.1997 8.83043C8.68904 10.7757 7.92217 13.1279 7.92217 15.4882C7.92217 18.5326 9.19619 21.4579 11.4047 23.4683C13.0297 24.9732 14.77 25.4746 18.5387 25.4746ZM18.5387 22.4998C15.5027 22.4998 14.4232 22.232 13.4167 21.2864C11.7944 19.7933 10.8896 17.7178 10.8896 15.4882C10.8896 13.8692 11.3384 12.3679 12.9488 10.1415L11.0221 11.2298C12.863 12.3908 15.4703 12.9509 18.5387 12.9509C21.6147 12.9509 24.222 12.3908 26.0651 11.2298L24.1361 10.1415C25.7466 12.3679 26.1902 13.8692 26.1902 15.4882C26.1902 17.7178 25.2831 19.7933 23.6682 21.2864C22.6543 22.232 21.5771 22.4998 18.5387 22.4998Z"
                     fill="currentColor" fill-opacity="0.425" />
              <path d="M18.5387 8.48888C21.276 8.48888 23.2922 8.02407 23.2922 7.18665C23.2922 6.34177 21.2909 5.89419 18.5387 5.89419C15.8687 5.89419 13.8599 6.34177 13.8599 7.18665C13.8599 8.02407 15.8761 8.48888 18.5387 8.48888Z"
                     fill="currentColor" fill-opacity="0.85" />
       </g>
</svg>