<?xml version="1.0" encoding="UTF-8"?>
<!--Generator: Apple Native CoreSVG 326-->
<!DOCTYPE svg PUBLIC "-//W3C//DTD SVG 1.1//EN" "http://www.w3.org/Graphics/SVG/1.1/DTD/svg11.dtd">
<svg version="1.1" xmlns="http://www.w3.org/2000/svg" xmlns:xlink="http://www.w3.org/1999/xlink"
       viewBox="0 0 21.5968 19.6701">
       <g>
              <rect height="19.6701" opacity="0" width="21.5968" x="0" y="0" />
              <path d="M10.6189 19.6701C14.3876 19.6701 16.1354 19.1687 17.7603 17.6638C19.9614 15.6534 21.2354 12.7355 21.2354 9.68138C21.2354 7.32107 20.476 4.97119 18.9158 2.96487C18.3008 2.14261 17.5791 2.14086 16.8304 2.6255C15.303 3.6521 13.3197 4.17659 10.6189 4.17659C7.91574 4.17659 5.93247 3.6521 4.40739 2.6255C3.65865 2.14086 2.94206 2.14261 2.32707 2.96487C0.761719 4.97119 0 7.32107 0 9.68138C0 12.7355 1.27402 15.6534 3.47511 17.6638C5.10002 19.1687 6.84783 19.6701 10.6189 19.6701Z"
                     fill="currentColor" fill-opacity="0.425" />
              <path d="M10.6189 2.68433C13.3561 2.68433 15.37 2.21953 15.37 1.38211C15.37 0.534925 13.3636 0.0896496 10.6189 0.0896496C7.93903 0.0896496 5.94005 0.534925 5.94005 1.38211C5.94005 2.21953 7.94649 2.68433 10.6189 2.68433Z"
                     fill="currentColor" fill-opacity="0.85" />
       </g>
</svg>