<?xml version="1.0" encoding="UTF-8"?>
<!--Generator: Apple Native CoreSVG 326-->
<!DOCTYPE svg PUBLIC "-//W3C//DTD SVG 1.1//EN" "http://www.w3.org/Graphics/SVG/1.1/DTD/svg11.dtd">
<svg version="1.1" xmlns="http://www.w3.org/2000/svg" xmlns:xlink="http://www.w3.org/1999/xlink"
       viewBox="0 0 37.8638 19.3373">
       <g>
              <rect height="19.3373" opacity="0" width="37.8638" x="0" y="0" />
              <path d="M27.8577 5.39892C28.1896 5.97661 28.9689 6.18563 29.5563 5.85142L35.6673 2.33579C36.2622 1.98896 36.4586 1.21717 36.1221 0.619954C35.7827 0.0348048 35.0012-0.174216 34.416 0.165155L28.3102 3.68078C27.7176 4.02015 27.5137 4.79424 27.8577 5.39892ZM27.964 9.66377C27.964 10.3471 28.5319 10.9076 29.2153 10.9076L36.2563 10.9076C36.9397 10.9076 37.5024 10.3471 37.5024 9.66377C37.5024 8.98042 36.9397 8.41019 36.2563 8.41019L29.2153 8.41019C28.5319 8.41019 27.964 8.98042 27.964 9.66377ZM27.8577 13.9286C27.5137 14.5184 27.7176 15.2879 28.3102 15.6393L34.416 19.1549C34.9937 19.5115 35.7753 19.3002 36.1221 18.7076C36.4586 18.1178 36.2622 17.3483 35.6673 16.9969L29.5563 13.4813C28.9763 13.1321 28.1971 13.336 27.8577 13.9286Z"
                     fill="currentColor" fill-opacity="0.85" />
              <path d="M1.5124 13.4579L11.9725 13.4579C12.8798 13.4579 14.3318 14.3126 15.1393 14.6292C17.0758 15.4385 18.9553 16.7129 20.7447 18.3893C22.8103 20.3012 25.5849 19.1217 25.5849 16.3375L25.5849 2.99009C25.5849 0.198395 22.8103-0.973663 20.7447 0.938277C17.3915 4.05278 13.6981 5.86961 9.92831 5.86961L1.5124 5.86961ZM1.42287 15.0206C2.21298 15.0206 2.84805 14.3832 2.84805 13.5954L2.84805 5.72004C2.84805 4.93223 2.21298 4.29717 1.42287 4.29717C0.63507 4.29717 0 4.93223 0 5.72004L0 13.5954C0 14.3832 0.63507 15.0206 1.42287 15.0206ZM3.68704 14.3994C3.68704 16.2053 5.17239 17.6883 6.97824 17.6883L12.5153 17.6883C14.3212 17.6883 15.7991 16.2053 15.7991 14.3994C15.7991 12.5936 14.3212 11.1157 12.5153 11.1157L6.97824 11.1157C5.17239 11.1157 3.68704 12.5936 3.68704 14.3994ZM6.09491 14.3994C6.09491 13.9253 6.49663 13.5236 6.97824 13.5236L12.5153 13.5236C12.9895 13.5236 13.3912 13.9253 13.3912 14.3994C13.3912 14.8736 12.9895 15.2707 12.5153 15.2707L6.97824 15.2707C6.49663 15.2707 6.09491 14.8736 6.09491 14.3994Z"
                     fill="currentColor" fill-opacity="0.85" />
       </g>
</svg>