<?xml version="1.0" encoding="UTF-8"?>
<!--Generator: Apple Native CoreSVG 326-->
<!DOCTYPE svg PUBLIC "-//W3C//DTD SVG 1.1//EN" "http://www.w3.org/Graphics/SVG/1.1/DTD/svg11.dtd">
<svg version="1.1" xmlns="http://www.w3.org/2000/svg" xmlns:xlink="http://www.w3.org/1999/xlink"
       viewBox="0 0 12.7243 18.9633">
       <g>
              <rect height="18.9633" opacity="0" width="12.7243" x="0" y="0" />
              <path d="M12.363 2.09627L12.363 2.23245C12.363 4.83678 9.73845 7.37924 8.72938 8.3837C8.09176 9.02878 8.07278 9.88397 8.72938 10.5406C9.73845 11.5473 12.363 14.107 12.363 16.6918L12.363 16.8498C12.363 18.1708 11.5635 18.9513 10.2788 18.9513L2.0842 18.9513C0.791987 18.9513 0 18.1708 0 16.8498L0 16.6918C0 14.107 2.62683 11.5473 3.62614 10.5406C4.29251 9.88397 4.27352 9.02878 3.62614 8.3837C2.62683 7.37924 0 4.83678 0 2.23245L0 2.09627C0 0.782767 0.791987 0 2.0842 0L10.2788 0C11.5635 0 12.363 0.782767 12.363 2.09627ZM3.65744 4.92C3.12342 4.92 2.98671 5.43393 3.32268 5.80721C3.81624 6.35245 4.57753 7.07116 5.08261 7.53081C5.50417 7.91847 5.65175 8.28483 5.65175 8.8758L5.65175 12.4484C5.65175 12.9404 5.60292 12.9818 5.31414 13.2757L2.7883 15.8118C2.42303 16.1799 2.61767 16.795 3.14205 16.795L9.22093 16.795C9.74531 16.795 9.93995 16.1799 9.57468 15.8118L7.04884 13.2757C6.76006 12.9818 6.71354 12.9404 6.71354 12.4484L6.71354 8.8758C6.71354 8.28483 6.85881 7.91847 7.27291 7.53081C7.78775 7.07116 8.54905 6.35245 9.0403 5.80721C9.37627 5.43393 9.23956 4.92 8.69808 4.92Z"
                     fill="currentColor" fill-opacity="0.85" />
       </g>
</svg>