<?xml version="1.0" encoding="UTF-8"?>
<!--Generator: Apple Native CoreSVG 326-->
<!DOCTYPE svg PUBLIC "-//W3C//DTD SVG 1.1//EN" "http://www.w3.org/Graphics/SVG/1.1/DTD/svg11.dtd">
<svg version="1.1" xmlns="http://www.w3.org/2000/svg" xmlns:xlink="http://www.w3.org/1999/xlink"
       viewBox="0 0 22.2514 27.4797">
       <g>
              <rect height="27.4797" opacity="0" width="22.2514" x="0" y="0" />
              <path d="M17.1254 6.35445L17.1254 6.49062C17.1254 9.09495 14.5009 11.6374 13.4918 12.6419C12.8542 13.287 12.8352 14.1421 13.4918 14.7987C13.7441 15.0505 14.0975 15.3994 14.4857 15.8216C13.6997 16.5272 13.1868 17.5615 13.0882 18.816L11.8113 17.5339C11.5225 17.24 11.4759 17.1986 11.4759 16.7066L11.4759 13.134C11.4759 12.543 11.6212 12.1766 12.0353 11.789C12.5502 11.3293 13.3115 10.6106 13.8027 10.0654C14.1387 9.69211 14.002 9.17817 13.4605 9.17817L8.41985 9.17817C7.88584 9.17817 7.74912 9.69211 8.08509 10.0654C8.57865 10.6106 9.33994 11.3293 9.84502 11.789C10.2666 12.1766 10.4142 12.543 10.4142 13.134L10.4142 16.7066C10.4142 17.1986 10.3653 17.24 10.0765 17.5339L7.55071 20.0699C7.18544 20.4381 7.38009 21.0532 7.90446 21.0532L12.3721 21.0532C12.3644 21.1441 12.3609 21.2374 12.3609 21.3326L12.3609 23.2094L6.84662 23.2094C5.5544 23.2094 4.76241 22.429 4.76241 21.108L4.76241 20.95C4.76241 18.3652 7.38924 15.8055 8.38855 14.7987C9.05492 14.1421 9.03593 13.287 8.38855 12.6419C7.38924 11.6374 4.76241 9.09495 4.76241 6.49062L4.76241 6.35445C4.76241 5.04094 5.5544 4.25818 6.84662 4.25818L15.0412 4.25818C16.3259 4.25818 17.1254 5.04094 17.1254 6.35445Z"
                     fill="currentColor" fill-opacity="0.85" />
              <path d="M14.8741 26.3674L19.7456 26.3674C20.5757 26.3674 21.0054 25.9405 21.0054 25.0369L21.0054 21.1983C21.0054 20.3045 20.5757 19.8725 19.7456 19.8725L14.8741 19.8725C14.0366 19.8725 13.6069 20.3045 13.6069 21.1983L13.6069 25.0369C13.6069 25.9405 14.0366 26.3674 14.8741 26.3674ZM14.5386 20.4173L16.0134 20.4173L16.0134 18.6731C16.0134 17.8784 16.5368 17.3309 17.305 17.3309C18.068 17.3309 18.5989 17.8784 18.5989 18.6731L18.5989 20.4173L20.0714 20.4173L20.0714 18.7272C20.0714 17.0314 18.9513 15.8882 17.305 15.8882C15.6633 15.8882 14.5386 17.0314 14.5386 18.7272Z"
                     fill="currentColor" fill-opacity="0.85" />
       </g>
</svg>