<?xml version="1.0" encoding="UTF-8"?>
<!--Generator: Apple Native CoreSVG 326-->
<!DOCTYPE svg PUBLIC "-//W3C//DTD SVG 1.1//EN" "http://www.w3.org/Graphics/SVG/1.1/DTD/svg11.dtd">
<svg version="1.1" xmlns="http://www.w3.org/2000/svg" xmlns:xlink="http://www.w3.org/1999/xlink"
       viewBox="0 0 25.9124 22.1831">
       <g>
              <rect height="22.1831" opacity="0" width="25.9124" x="0" y="0" />
              <path d="M10.0903 19.323L10.0903 14.0359C10.0903 13.5568 10.408 13.2564 10.887 13.2564L14.6738 13.2564C15.1552 13.2564 15.4607 13.5568 15.4607 14.0359L15.4607 19.323ZM3.5169 19.6197C3.5169 21.1636 4.59834 22.1635 6.26626 22.1635L19.2647 22.1635C20.9327 22.1635 22.0043 21.1636 22.0043 19.6197L22.0043 13.067L13.4249 5.86096C13.0165 5.51115 12.5248 5.52092 12.1187 5.86096L3.5169 13.067ZM1.51131 11.9442C1.91158 11.9442 2.33017 11.7604 2.677 11.4601L12.1316 3.53819C12.3434 3.36077 12.5599 3.26718 12.7718 3.26718C12.9934 3.26718 13.2076 3.36077 13.4195 3.53819L22.8764 11.4601C23.2209 11.7604 23.6395 11.9442 24.0398 11.9442C24.9551 11.9442 25.5511 11.3545 25.5511 10.5139C25.5511 10.0878 25.3289 9.62964 24.9401 9.30464L14.7644 0.767179C14.162 0.2607 13.4632 0 12.7718 0C12.0879 0 11.3891 0.2607 10.7867 0.767179L0.610929 9.30464C0.224488 9.62964 0 10.0878 0 10.5139C0 11.3545 0.596007 11.9442 1.51131 11.9442ZM18.4578 4.73681L22.2146 7.86655L22.2146 2.70126C22.2146 2.2268 21.9113 1.92352 21.4443 1.92352L19.243 1.92352C18.7783 1.92352 18.4578 2.2268 18.4578 2.70126Z"
                     fill="currentColor" fill-opacity="0.85" />
       </g>
</svg>