<?xml version="1.0" encoding="UTF-8"?>
<!--Generator: Apple Native CoreSVG 326-->
<!DOCTYPE svg PUBLIC "-//W3C//DTD SVG 1.1//EN" "http://www.w3.org/Graphics/SVG/1.1/DTD/svg11.dtd">
<svg version="1.1" xmlns="http://www.w3.org/2000/svg" xmlns:xlink="http://www.w3.org/1999/xlink"
       viewBox="0 0 21.365 21.006">
       <g>
              <rect height="21.006" opacity="0" width="21.365" x="0" y="0" />
              <path d="M21.0037 10.5079C21.0037 16.3043 16.302 21.006 10.4981 21.006C4.70394 21.006 0 16.3043 0 10.5079C0 4.7137 4.70394 0.00976562 10.4981 0.00976562C16.302 0.00976562 21.0037 4.7137 21.0037 10.5079ZM6.96028 11.1644C6.75181 11.3217 6.56748 11.4222 6.37338 11.451L6.37338 12.4549C6.37338 13.0414 6.74041 13.4038 7.34466 13.4038L13.659 13.4038C14.2558 13.4038 14.6378 13.0414 14.6378 12.4549L14.6378 11.451C14.4414 11.4222 14.2519 11.3217 14.0485 11.1644L10.4981 8.24025ZM4.08974 12.4549C4.08974 13.0414 4.45677 13.4038 5.06563 13.4038L6.12396 13.4038C5.92294 13.1373 5.82244 12.8167 5.82244 12.4549L5.82244 11.4815L4.08974 11.4763ZM15.1887 11.4815L15.1887 12.4549C15.1887 12.8167 15.0859 13.1373 14.8872 13.4038L15.9306 13.4038C16.5544 13.4038 16.9289 13.0414 16.9289 12.4549L16.9289 11.4763ZM11.496 10.9119L11.496 12.3541L9.50541 12.3541L9.50541 10.9119C9.50541 10.7482 9.61514 10.6459 9.78862 10.6459L11.2225 10.6459C11.3983 10.6459 11.496 10.7482 11.496 10.9119ZM9.80432 6.75842L5.84646 10.0273C5.29576 10.4849 5.94696 11.2832 6.5511 10.7819L10.2799 7.71454C10.3436 7.6531 10.4269 7.62611 10.4981 7.62611C10.5819 7.62611 10.6675 7.6531 10.729 7.71454L14.4503 10.7819C15.0642 11.2832 15.7154 10.4924 15.1624 10.0273L11.212 6.75842C11.0035 6.59647 10.7359 6.50342 10.4981 6.50342C10.2678 6.50342 10.0151 6.59416 9.80432 6.75842ZM5.97857 8.36186L3.68625 10.0021C3.26997 10.3052 3.43993 10.9225 3.98832 10.9225L5.23177 10.9225C4.99806 10.5383 5.00498 9.99842 5.50005 9.59585L7.18677 8.20507L6.4754 8.19015C6.28931 8.19015 6.12044 8.25905 5.97857 8.36186ZM13.8169 8.20507L15.5111 9.59585C15.9964 9.99096 16.0108 10.5383 15.7696 10.9225L17.028 10.9225C17.5764 10.9225 17.7435 10.3098 17.33 10.0021L15.0303 8.36186C14.8861 8.25905 14.7144 8.19015 14.5334 8.19015Z"
                     fill="currentColor" fill-opacity="0.85" />
       </g>
</svg>