<?xml version="1.0" encoding="UTF-8"?>
<!--Generator: Apple Native CoreSVG 326-->
<!DOCTYPE svg PUBLIC "-//W3C//DTD SVG 1.1//EN" "http://www.w3.org/Graphics/SVG/1.1/DTD/svg11.dtd">
<svg version="1.1" xmlns="http://www.w3.org/2000/svg" xmlns:xlink="http://www.w3.org/1999/xlink"
       viewBox="0 0 21.365 21.006">
       <g>
              <rect height="21.006" opacity="0" width="21.365" x="0" y="0" />
              <path d="M21.0037 10.5079C21.0037 16.3043 16.302 21.006 10.4981 21.006C4.70394 21.006 0 16.3043 0 10.5079C0 4.7137 4.70394 0.00976562 10.4981 0.00976562C16.302 0.00976562 21.0037 4.7137 21.0037 10.5079ZM13.8027 5.99755C13.6315 6.06361 13.5385 6.21755 13.5385 6.40595L13.5385 9.46089L9.8429 7.48417C9.43396 7.26362 9.07099 7.26362 8.66951 7.48417L4.81076 9.54593C4.13662 9.9203 4.62181 10.9562 5.41083 10.5404L9.1433 8.58435C9.21627 8.55275 9.299 8.55275 9.35189 8.58435L13.0728 10.5335C13.2503 10.6248 13.4007 10.6541 13.5385 10.6266L13.5385 13.863L12.8565 13.863C12.8761 13.8096 12.8784 13.7487 12.8784 13.6906L12.8784 11.094C12.7578 11.0572 12.6521 11.0107 12.5465 10.959L9.25763 9.26091L5.95388 10.959C5.84076 11.0107 5.72248 11.0572 5.62427 11.094L5.62427 13.6906C5.62427 13.7487 5.62658 13.8096 5.64611 13.863L4.86947 13.863C4.64892 13.863 4.44275 14.0543 4.44275 14.292C4.44275 14.5149 4.64892 14.7061 4.86947 14.7061L15.8044 14.7061C16.0422 14.7061 16.2409 14.5149 16.2409 14.292C16.2409 14.0543 16.0422 13.863 15.8044 13.863L14.3891 13.863L14.3891 8.25814C14.4058 8.25584 14.4397 8.25584 14.461 8.25584C14.9632 8.25584 15.3332 8.55803 15.8951 8.55803C16.1433 8.55803 16.2829 8.52127 16.4219 8.46552C16.6103 8.38224 16.681 8.25014 16.681 8.04221L16.681 6.38357C16.681 6.23423 16.5828 6.13142 16.3892 6.13142C16.2749 6.13142 16.1358 6.19693 15.8807 6.19693C15.3504 6.19693 14.9408 5.90736 14.322 5.90736C14.0738 5.90736 13.9567 5.92404 13.8027 5.99755ZM10.4158 11.4931L10.4158 13.6392L8.09947 13.6392L8.09947 11.4931C8.09947 11.3202 8.22642 11.1955 8.40451 11.1955L10.1131 11.1955C10.2837 11.1955 10.4158 11.3202 10.4158 11.4931Z"
                     fill="currentColor" fill-opacity="0.85" />
       </g>
</svg>