<?xml version="1.0" encoding="UTF-8"?>
<!--Generator: Apple Native CoreSVG 326-->
<!DOCTYPE svg PUBLIC "-//W3C//DTD SVG 1.1//EN" "http://www.w3.org/Graphics/SVG/1.1/DTD/svg11.dtd">
<svg version="1.1" xmlns="http://www.w3.org/2000/svg" xmlns:xlink="http://www.w3.org/1999/xlink"
       viewBox="0 0 22.6374 22.2784">
       <g>
              <rect height="22.2784" opacity="0" width="22.6374" x="0" y="0" />
              <path d="M11.1343 22.2687C17.2722 22.2687 22.2761 17.2722 22.2761 11.1343C22.2761 4.99648 17.2722 0 11.1343 0C4.99648 0 0 4.99648 0 11.1343C0 17.2722 4.99648 22.2687 11.1343 22.2687ZM11.1343 18.2927C7.17804 18.2927 3.97601 15.0906 3.97601 11.1343C3.97601 7.17573 7.17804 3.97601 11.1343 3.97601C15.0929 3.97601 18.3001 7.17573 18.3001 11.1343C18.3001 15.0906 15.0929 18.2927 11.1343 18.2927Z"
                     fill="currentColor" fill-opacity="0.85" />
              <path d="M11.1452 6.86827C10.178 6.86827 9.04527 7.1078 8.46504 7.98331C8.3507 8.17347 8.2548 8.36647 8.2548 8.66053C8.2548 9.10787 8.60449 9.39041 9.05644 9.39041C9.41479 9.39041 9.64104 9.25314 9.88506 9.00615C10.232 8.60091 10.6355 8.43192 11.0901 8.43192C11.7107 8.43192 12.2694 8.71064 12.2694 9.26412C12.2694 9.63983 12.0046 9.9812 11.4554 10.1122L13.8007 10.1922C14.0767 9.94577 14.2705 9.54987 14.2705 9.08901C14.2705 7.58686 12.7253 6.86827 11.1452 6.86827ZM7.34781 10.3517C7.34781 10.4925 7.46961 10.6143 7.61555 10.6143L14.7627 10.6143C14.9035 10.6143 15.0253 10.4925 15.0253 10.3517C15.0253 10.2012 14.9035 10.0794 14.7627 10.0794L7.61555 10.0794C7.46961 10.0794 7.34781 10.2012 7.34781 10.3517ZM7.34781 11.7398C7.34781 11.888 7.46961 12.0098 7.61555 12.0098L14.7627 12.0098C14.9035 12.0098 15.0253 11.888 15.0253 11.7398C15.0253 11.5967 14.9035 11.4749 14.7627 11.4749L7.61555 11.4749C7.46961 11.4749 7.34781 11.5967 7.34781 11.7398ZM11.2164 15.301C12.3888 15.301 13.603 14.9729 14.0735 13.9425C14.1534 13.7793 14.1989 13.6172 14.1989 13.4592C14.1989 13.0245 13.8273 12.727 13.3828 12.727C13.017 12.727 12.8109 12.8517 12.5519 13.1159C12.2572 13.512 11.8473 13.7276 11.2835 13.7276C10.6221 13.7276 10.0692 13.4476 10.0692 12.8035C10.0692 12.439 10.3215 11.9875 11.0218 11.9362L8.61498 11.8775C8.28028 12.1165 8.05828 12.6393 8.05828 13.071C8.05828 14.5657 9.67355 15.301 11.2164 15.301Z"
                     fill="currentColor" fill-opacity="0.85" />
       </g>
</svg>