<?xml version="1.0" encoding="UTF-8"?>
<!--Generator: Apple Native CoreSVG 326-->
<!DOCTYPE svg PUBLIC "-//W3C//DTD SVG 1.1//EN" "http://www.w3.org/Graphics/SVG/1.1/DTD/svg11.dtd">
<svg version="1.1" xmlns="http://www.w3.org/2000/svg" xmlns:xlink="http://www.w3.org/1999/xlink"
       viewBox="0 0 21.365 21.006">
       <g>
              <rect height="21.006" opacity="0" width="21.365" x="0" y="0" />
              <path d="M10.4981 20.9962C16.302 20.9962 21.0037 16.2946 21.0037 10.4981C21.0037 4.70163 16.302 0 10.4981 0C4.70163 0 0 4.70163 0 10.4981C0 16.2946 4.70163 20.9962 10.4981 20.9962ZM10.4981 17.9484C6.37829 17.9484 3.04785 14.6179 3.04785 10.4981C3.04785 6.37829 6.37829 3.04785 10.4981 3.04785C14.6179 3.04785 17.9558 6.37829 17.9558 10.4981C17.9558 14.6179 14.6179 17.9484 10.4981 17.9484Z"
                     fill="currentColor" fill-opacity="0.85" />
              <path d="M10.5067 6.23205C9.53198 6.23205 8.40675 6.47158 7.82651 7.34709C7.71218 7.53724 7.61628 7.73025 7.61628 8.02431C7.61628 8.47165 7.96596 8.75419 8.41791 8.75419C8.77627 8.75419 9.00251 8.61692 9.24423 8.36993C9.59349 7.96469 9.99697 7.7957 10.4516 7.7957C11.0722 7.7957 11.6309 8.07442 11.6309 8.6279C11.6309 9.00361 11.3661 9.34498 10.8169 9.47599L13.1622 9.556C13.4382 9.30955 13.6297 8.91365 13.6297 8.45279C13.6297 6.95064 12.0868 6.23205 10.5067 6.23205ZM6.70929 9.71552C6.70929 9.85631 6.83109 9.9781 6.97702 9.9781L14.1219 9.9781C14.265 9.9781 14.3868 9.85631 14.3868 9.71552C14.3868 9.56498 14.265 9.44318 14.1219 9.44318L6.97702 9.44318C6.83109 9.44318 6.70929 9.56498 6.70929 9.71552ZM6.70929 11.1036C6.70929 11.2518 6.83109 11.3736 6.97702 11.3736L14.1219 11.3736C14.265 11.3736 14.3868 11.2518 14.3868 11.1036C14.3868 10.9605 14.265 10.8387 14.1219 10.8387L6.97702 10.8387C6.83109 10.8387 6.70929 10.9605 6.70929 11.1036ZM10.5779 14.6648C11.7503 14.6648 12.9645 14.3367 13.435 13.3062C13.5149 13.1431 13.5603 12.981 13.5603 12.823C13.5603 12.3883 13.1888 12.0908 12.7443 12.0908C12.3785 12.0908 12.1723 12.2155 11.9134 12.4797C11.6187 12.8758 11.2088 13.0913 10.645 13.0913C9.98356 13.0913 9.43062 12.8114 9.43062 12.1673C9.43062 11.8028 9.68301 11.3512 10.3833 11.3L7.97645 11.2413C7.64175 11.4803 7.41975 12.0031 7.41975 12.4348C7.41975 13.9295 9.03502 14.6648 10.5779 14.6648Z"
                     fill="currentColor" fill-opacity="0.85" />
       </g>
</svg>