<?xml version="1.0" encoding="UTF-8"?>
<!--Generator: Apple Native CoreSVG 326-->
<!DOCTYPE svg PUBLIC "-//W3C//DTD SVG 1.1//EN" "http://www.w3.org/Graphics/SVG/1.1/DTD/svg11.dtd">
<svg version="1.1" xmlns="http://www.w3.org/2000/svg" xmlns:xlink="http://www.w3.org/1999/xlink"
       viewBox="0 0 24.6449 23.5952">
       <g>
              <rect height="23.5952" opacity="0" width="24.6449" x="0" y="0" />
              <path d="M1.94045 20.4256L22.5744 20.4256L22.5744 19.4355C22.5744 18.8957 22.2379 18.5718 21.7032 18.5718L21.3244 18.5718L21.3244 7.89293L22.1092 7.89293C22.9074 7.89293 23.3841 7.28595 23.3841 6.69158C23.3841 6.25686 23.136 5.85374 22.6254 5.55167L13.7186 0.416404C13.2683 0.154491 12.7462 0 12.2563 0C11.7664 0 11.242 0.154491 10.7963 0.416404L1.88944 5.55167C1.37659 5.85374 1.13081 6.25686 1.13081 6.69158C1.13081 7.28595 1.60745 7.89293 2.41314 7.89293L3.19045 7.89293L3.19045 18.5718L2.81396 18.5718C2.27927 18.5718 1.94045 18.8957 1.94045 19.4355ZM5.29922 18.5718L5.29922 6.39673L12.047 2.62732C12.1194 2.5888 12.1965 2.57212 12.2563 2.57212C12.331 2.57212 12.3931 2.5888 12.4679 2.62732L19.2157 6.39673L19.2157 18.5718ZM1.20651 23.5854L23.0673 23.5854C23.7134 23.5854 24.2836 23.0525 24.2836 22.3766C24.2836 21.7231 23.7134 21.1701 23.0673 21.1701L1.20651 21.1701C0.553002 21.1701 0 21.7231 0 22.3766C0 23.045 0.553002 23.5854 1.20651 23.5854Z"
                     fill="currentColor" fill-opacity="0.85" />
              <path d="M12.2769 7.29062C11.3022 7.29062 10.1695 7.53015 9.59676 8.40566C9.47496 8.59582 9.37907 8.78882 9.37907 9.08288C9.37907 9.53022 9.73621 9.81506 10.1807 9.81506C10.5391 9.81506 10.7653 9.67549 11.007 9.43081C11.3563 9.02557 11.7598 8.85427 12.2218 8.85427C12.8425 8.85427 13.4011 9.14275 13.4011 9.68647C13.4011 10.0696 13.1289 10.4133 12.5797 10.5346L14.925 10.6146C15.2084 10.3681 15.3999 9.97968 15.3999 9.52112C15.3999 8.01152 13.8496 7.29062 12.2769 7.29062ZM8.47954 10.7741C8.47954 10.9246 8.60133 11.0367 8.73981 11.0367L15.8847 11.0367C16.0352 11.0367 16.157 10.9246 16.157 10.7741C16.157 10.6235 16.0352 10.5092 15.8847 10.5092L8.73981 10.5092C8.60133 10.5092 8.47954 10.6235 8.47954 10.7741ZM8.47954 12.1696C8.47954 12.3104 8.60133 12.4322 8.73981 12.4322L15.8847 12.4322C16.0352 12.4322 16.157 12.3104 16.157 12.1696C16.157 12.0191 16.0352 11.8973 15.8847 11.8973L8.73981 11.8973C8.60133 11.8973 8.47954 12.0191 8.47954 12.1696ZM12.3407 15.7308C13.5108 15.7308 14.7348 15.3952 15.1978 14.3671C15.2777 14.2016 15.3231 14.0396 15.3231 13.8816C15.3231 13.4491 14.9516 13.1517 14.5146 13.1517C14.1488 13.1517 13.9351 13.2763 13.6836 13.5406C13.3866 13.9419 12.9716 14.1522 12.413 14.1522C11.7538 14.1522 11.2009 13.87 11.2009 13.2259C11.2009 12.8613 11.4533 12.4121 12.1461 12.3586L9.7467 12.2998C9.40454 12.5388 9.18254 13.064 9.18254 13.4934C9.18254 14.9881 10.7978 15.7308 12.3407 15.7308Z"
                     fill="currentColor" fill-opacity="0.85" />
       </g>
</svg>