<?xml version="1.0" encoding="UTF-8"?>
<!--Generator: Apple Native CoreSVG 326-->
<!DOCTYPE svg PUBLIC "-//W3C//DTD SVG 1.1//EN" "http://www.w3.org/Graphics/SVG/1.1/DTD/svg11.dtd">
<svg version="1.1" xmlns="http://www.w3.org/2000/svg" xmlns:xlink="http://www.w3.org/1999/xlink"
       viewBox="0 0 16.8439 23.8239">
       <g>
              <rect height="23.8239" opacity="0" width="16.8439" x="0" y="0" />
              <path d="M2.96663 2.90045C3.4967 2.90045 3.92111 2.47604 3.92111 1.94597C3.92111 1.42336 3.4967 0.991484 2.96663 0.991484C2.44402 0.991484 2.0196 1.42336 2.0196 1.94597C2.0196 2.47604 2.44402 2.90045 2.96663 2.90045ZM8.25335 1.91412C8.78342 1.91412 9.20783 1.48971 9.20783 0.967101C9.20783 0.434722 8.78342 0.0103116 8.25335 0.0103116C7.73074 0.0103116 7.30633 0.434722 7.30633 0.967101C7.30633 1.48971 7.73074 1.91412 8.25335 1.91412ZM13.5401 2.90045C14.0701 2.90045 14.4946 2.47604 14.4946 1.94597C14.4946 1.42336 14.0701 0.991484 13.5401 0.991484C13.0175 0.991484 12.5856 1.42336 12.5856 1.94597C12.5856 2.47604 13.0175 2.90045 13.5401 2.90045Z"
                     fill="currentColor" fill-opacity="0.85" />
              <path d="M4.83811 5.46166C5.36072 5.46166 5.78513 5.03724 5.78513 4.50717C5.78513 3.98456 5.36072 3.55269 4.83811 3.55269C4.30573 3.55269 3.88132 3.98456 3.88132 4.50717C3.88132 5.03724 4.30573 5.46166 4.83811 5.46166ZM8.25335 5.06302C8.78342 5.06302 9.20783 4.63861 9.20783 4.10854C9.20783 3.58593 8.78342 3.15405 8.25335 3.15405C7.73074 3.15405 7.30633 3.58593 7.30633 4.10854C7.30633 4.63861 7.73074 5.06302 8.25335 5.06302ZM11.6784 5.46166C12.2084 5.46166 12.6328 5.03724 12.6328 4.50717C12.6328 3.98456 12.2084 3.55269 11.6784 3.55269C11.1534 3.55269 10.7239 3.98456 10.7239 4.50717C10.7239 5.03724 11.1534 5.46166 11.6784 5.46166Z"
                     fill="currentColor" fill-opacity="0.85" />
              <path d="M6.18182 23.8239L10.3007 23.8239C14.3504 23.8239 16.4826 21.6682 16.4826 17.9724C16.4826 15.0705 14.1555 11.5508 11.5026 8.03681C10.9007 7.25392 10.4544 6.72154 9.24374 6.72154L7.23882 6.72154C6.03043 6.72154 5.58418 7.25392 4.97992 8.03681C2.32707 11.5508 0 15.0705 0 17.9724C0 21.6682 2.12472 23.8239 6.18182 23.8239ZM2.43825 17.9724C2.43825 15.8986 4.08767 13.265 6.9783 9.35984C7.09154 9.20808 7.18404 9.1621 7.40756 9.1621L9.075 9.1621C9.29851 9.1621 9.39101 9.20808 9.50426 9.35984C12.3949 13.265 14.0443 15.8986 14.0443 17.9724C14.0443 20.256 12.9382 21.3857 10.3007 21.3857L6.18182 21.3857C3.54432 21.3857 2.43825 20.256 2.43825 17.9724ZM3.7648 10.854L3.26809 13.0088L13.2265 13.0088L12.7321 10.854ZM1.19129 18.699L7.06674 18.699L7.06674 16.5368L1.19129 16.5368ZM8.25104 20.161C9.66518 20.161 10.7956 19.0358 10.7956 17.6044C10.7956 16.1954 9.66518 15.0576 8.25104 15.0576C6.81507 15.0576 5.69445 16.1954 5.69445 17.6044C5.69445 19.0358 6.81507 20.161 8.25104 20.161ZM8.25104 18.446C7.76331 18.446 7.40944 18.0973 7.40944 17.6044C7.40944 17.1287 7.76331 16.7628 8.25104 16.7628C8.73417 16.7628 9.09034 17.1287 9.09034 17.6044C9.09034 18.0973 8.73417 18.446 8.25104 18.446ZM9.43305 18.699L15.3177 18.699L15.3177 16.5368L9.43305 16.5368Z"
                     fill="currentColor" fill-opacity="0.85" />
       </g>
</svg>