<?xml version="1.0" encoding="UTF-8"?>
<!--Generator: Apple Native CoreSVG 326-->
<!DOCTYPE svg PUBLIC "-//W3C//DTD SVG 1.1//EN" "http://www.w3.org/Graphics/SVG/1.1/DTD/svg11.dtd">
<svg version="1.1" xmlns="http://www.w3.org/2000/svg" xmlns:xlink="http://www.w3.org/1999/xlink"
       viewBox="0 0 19.7528 20.4163">
       <g>
              <rect height="20.4163" opacity="0" width="19.7528" x="0" y="0" />
              <path d="M3.5889 4.69199L15.8002 4.69199C15.0948 3.65046 14.3216 2.59456 13.5339 1.54382C12.8045 0.589213 12.3066 0 10.9162 0L8.48275 0C7.09233 0 6.60187 0.589213 5.87242 1.54382C5.06757 2.59456 4.29663 3.65046 3.5889 4.69199ZM9.72299 10.3329C11.0366 10.3329 12.1526 11.1049 12.6213 12.2365L19.3748 12.2365C19.1203 10.678 18.3947 8.97049 17.3726 7.19575L2.02403 7.19575C1.01168 8.97049 0.278593 10.678 0.0292969 12.2365L6.81495 12.2365C7.29104 11.1049 8.39444 10.3329 9.72299 10.3329ZM9.72299 14.7113C10.4169 14.7113 10.962 14.1662 10.962 13.4775C10.962 12.7933 10.4169 12.2361 9.72299 12.2361C9.03654 12.2361 8.48912 12.7933 8.48912 13.4775C8.48912 14.1662 9.03654 14.7113 9.72299 14.7113ZM7.26041 20.3818L12.1436 20.3818C16.4811 20.3818 18.9389 18.3334 19.3914 14.7328L12.6138 14.7328C12.14 15.85 11.0389 16.6221 9.72299 16.6221C8.40936 16.6221 7.2962 15.85 6.82241 14.7328L0 14.7328C0.45765 18.3334 2.92296 20.3818 7.26041 20.3818Z"
                     fill="currentColor" fill-opacity="0.85" />
       </g>
</svg>