<?xml version="1.0" encoding="UTF-8"?>
<!--Generator: Apple Native CoreSVG 326-->
<!DOCTYPE svg PUBLIC "-//W3C//DTD SVG 1.1//EN" "http://www.w3.org/Graphics/SVG/1.1/DTD/svg11.dtd">
<svg version="1.1" xmlns="http://www.w3.org/2000/svg" xmlns:xlink="http://www.w3.org/1999/xlink"
       viewBox="0 0 26.6362 22.9342">
       <g>
              <rect height="22.9342" opacity="0" width="26.6362" x="0" y="0" />
              <path d="M14.359 16.891L14.3839 17.3786C12.408 18.4467 10.4596 19.8108 7.64552 19.8108C6.33583 19.8108 5.10372 19.4708 3.9629 18.8188C3.22436 18.3892 3.04815 17.5761 3.46904 16.9559C3.81357 16.4219 4.48255 16.2433 5.07922 16.5746C5.99325 17.106 6.73841 17.3134 7.64552 17.3134C10.3839 17.3134 12.324 15.4994 14.8428 14.4178C14.5653 15.1703 14.359 16.0115 14.359 16.891Z"
                     fill="currentColor" fill-opacity="0.85" />
              <path d="M16.4193 11.2277C13.6208 12.1427 11.4066 14.5764 7.64782 14.5764C6.33814 14.5764 5.10603 14.2341 3.96521 13.5844C3.22666 13.1525 3.05045 12.3417 3.47135 11.7215C3.81587 11.1875 4.48485 11.0089 5.08152 11.3403C5.99555 11.8694 6.74817 12.079 7.64782 12.079C11.3914 12.079 13.643 8.68886 17.9205 8.41528Z"
                     fill="currentColor" fill-opacity="0.85" />
              <path d="M22.1639 4.14299C22.9122 4.57717 23.0884 5.40294 22.6578 6.02309C22.2886 6.53988 21.6368 6.70359 21.0401 6.37969C20.1336 5.85058 19.3786 5.65066 18.4813 5.65066C14.5611 5.65066 12.2747 9.3323 7.64552 9.3323C6.33583 9.3323 5.10372 8.99972 3.9629 8.35004C3.22436 7.91817 3.04815 7.10732 3.46904 6.48717C3.81357 5.95315 4.48255 5.77452 5.07922 6.10588C5.99325 6.63499 6.73841 6.84237 7.64552 6.84237C11.5519 6.84237 13.8336 3.15327 18.4813 3.15327C19.7835 3.15327 21.0231 3.48584 22.1639 4.14299Z"
                     fill="currentColor" fill-opacity="0.85" />
              <path d="M20.4976 21.3875C23.0526 21.3875 25.0917 19.3874 25.0917 16.891C25.0917 15.5245 24.4196 14.2022 23.8825 13.1963L21.7048 9.15106C21.4331 8.637 21.0392 8.37685 20.4976 8.37685C19.9463 8.37685 19.5547 8.64446 19.283 9.15106L17.115 13.1963C16.5704 14.2022 15.9058 15.5245 15.9058 16.891C15.9058 19.3874 17.9524 21.3875 20.4976 21.3875Z"
                     fill="currentColor" fill-opacity="0.85" />
       </g>
</svg>