<?xml version="1.0" encoding="UTF-8"?>
<!--Generator: Apple Native CoreSVG 326-->
<!DOCTYPE svg PUBLIC "-//W3C//DTD SVG 1.1//EN" "http://www.w3.org/Graphics/SVG/1.1/DTD/svg11.dtd">
<svg version="1.1" xmlns="http://www.w3.org/2000/svg" xmlns:xlink="http://www.w3.org/1999/xlink"
       viewBox="0 0 19.9233 20.4163">
       <g>
              <rect height="20.4163" opacity="0" width="19.9233" x="0" y="0" />
              <path d="M7.33447 20.3818L12.2252 20.3818C17.0496 20.3818 19.5619 17.8413 19.5619 13.4511C19.5619 10.0025 16.8243 5.78495 13.608 1.54382C12.886 0.589213 12.3881 0 10.9977 0L8.56427 0C7.17385 0 6.67593 0.589213 5.95394 1.54382C2.73765 5.78495 0 10.0025 0 13.4511C0 17.8413 2.51237 20.3818 7.33447 20.3818ZM2.66899 13.4511C2.66899 10.9075 4.66239 7.68227 8.14575 2.97876C8.30552 2.77071 8.4813 2.67645 8.77263 2.67645L10.7893 2.67645C11.0806 2.67645 11.2541 2.77071 11.4139 2.97876C14.8996 7.68227 16.893 10.9075 16.893 13.4511C16.893 16.2632 15.4692 17.7128 12.2252 17.7128L7.33447 17.7128C4.08294 17.7128 2.66899 16.2632 2.66899 13.4511ZM4.47745 4.99976L3.9532 7.32556L15.6237 7.32556L15.092 4.99976ZM1.43652 14.1829L8.22211 14.1829L8.22211 11.8646L1.43652 11.8646ZM9.78959 15.9636C11.4369 15.9636 12.7269 14.6662 12.7269 13.0091C12.7269 11.3716 11.4369 10.0718 9.78959 10.0718C8.13483 10.0718 6.84249 11.3716 6.84249 13.0091C6.84249 14.6662 8.13483 15.9636 9.78959 15.9636ZM9.78959 14.1689C9.14505 14.1689 8.62978 13.6559 8.62978 13.0091C8.62978 12.3669 9.14505 11.8516 9.78959 11.8516C10.4341 11.8516 10.9471 12.3669 10.9471 13.0091C10.9471 13.6559 10.4341 14.1689 9.78959 14.1689ZM11.3473 14.1829L18.1444 14.1829L18.1444 11.8646L11.3473 11.8646Z"
                     fill="currentColor" fill-opacity="0.85" />
       </g>
</svg>