<?xml version="1.0" encoding="UTF-8"?>
<!--Generator: Apple Native CoreSVG 326-->
<!DOCTYPE svg PUBLIC "-//W3C//DTD SVG 1.1//EN" "http://www.w3.org/Graphics/SVG/1.1/DTD/svg11.dtd">
<svg version="1.1" xmlns="http://www.w3.org/2000/svg" xmlns:xlink="http://www.w3.org/1999/xlink"
       viewBox="0 0 26.0934 22.9342">
       <g>
              <rect height="22.9342" opacity="0" width="26.0934" x="0" y="0" />
              <path d="M13.8162 16.891L13.8411 17.3786C11.8652 18.4467 9.91683 19.8108 7.10271 19.8108C5.79302 19.8108 4.56092 19.4708 3.4201 18.8188C2.68155 18.3892 2.50534 17.5761 2.92623 16.9559C3.27076 16.4219 3.93974 16.2433 4.53641 16.5746C5.45044 17.106 6.1956 17.3134 7.10271 17.3134C9.84113 17.3134 11.7812 15.4994 14.3 14.4178C14.0225 15.1703 13.8162 16.0115 13.8162 16.891Z"
                     fill="currentColor" fill-opacity="0.85" />
              <path d="M15.8765 11.2277C13.078 12.1427 10.8638 14.5764 7.10501 14.5764C5.79533 14.5764 4.56322 14.2341 3.4224 13.5844C2.68385 13.1525 2.50765 12.3417 2.92854 11.7215C3.27307 11.1875 3.94204 11.0089 4.53872 11.3403C5.45274 11.8694 6.20536 12.079 7.10501 12.079C10.8486 12.079 13.1002 8.68886 17.3776 8.41528Z"
                     fill="currentColor" fill-opacity="0.85" />
              <path d="M21.6211 4.14299C22.3694 4.57717 22.5456 5.40294 22.115 6.02309C21.7457 6.53988 21.094 6.70359 20.4973 6.37969C19.5908 5.85058 18.8358 5.65066 17.9385 5.65066C14.0183 5.65066 11.7319 9.3323 7.10271 9.3323C5.79302 9.3323 4.56092 8.99972 3.4201 8.35004C2.68155 7.91817 2.50534 7.10732 2.92623 6.48717C3.27076 5.95315 3.93974 5.77452 4.53641 6.10588C5.45044 6.63499 6.1956 6.84237 7.10271 6.84237C11.0091 6.84237 13.2908 3.15327 17.9385 3.15327C19.2407 3.15327 20.4803 3.48584 21.6211 4.14299Z"
                     fill="currentColor" fill-opacity="0.85" />
              <path d="M19.9548 21.3875C22.5098 21.3875 24.5489 19.3874 24.5489 16.891C24.5489 15.5245 23.8768 14.2022 23.3397 13.1963L21.162 9.15106C20.8903 8.637 20.4964 8.37685 19.9548 8.37685C19.4035 8.37685 19.0119 8.64446 18.7402 9.15106L16.5722 13.1963C16.0276 14.2022 15.363 15.5245 15.363 16.891C15.363 19.3874 17.4096 21.3875 19.9548 21.3875ZM19.9548 18.9121C18.5776 18.9121 17.4877 17.8561 17.4877 16.5404C17.4877 15.678 17.9335 14.8524 18.4683 13.8466L19.8595 11.2533C19.9083 11.1557 20.0134 11.1557 20.0622 11.2533L21.439 13.8466C21.9687 14.8524 22.4168 15.678 22.4168 16.5404C22.4168 17.8561 21.332 18.9121 19.9548 18.9121Z"
                     fill="currentColor" fill-opacity="0.85" />
       </g>
</svg>