<?xml version="1.0" encoding="UTF-8"?>
<!--Generator: Apple Native CoreSVG 326-->
<!DOCTYPE svg PUBLIC "-//W3C//DTD SVG 1.1//EN" "http://www.w3.org/Graphics/SVG/1.1/DTD/svg11.dtd">
<svg version="1.1" xmlns="http://www.w3.org/2000/svg" xmlns:xlink="http://www.w3.org/1999/xlink"
       viewBox="0 0 14.0934 22.6489">
       <g>
              <rect height="22.6489" opacity="0" width="14.0934" x="0" y="0" />
              <path d="M0 21.4866C0 22.1206 0.464019 22.6392 1.16975 22.6392C7.32756 22.6392 12.4844 17.9236 12.4844 11.3196C12.4844 8.23455 9.94505 5.69518 6.86232 5.69518C6.14228 5.69518 5.44582 5.85562 4.83277 6.14367C6.50476 3.74545 9.35766 2.31021 12.5624 2.31021C13.2606 2.31021 13.7321 1.80658 13.7321 1.14276C13.7321 0.508783 13.2606 0 12.5624 0C6.40455 0 1.25 4.71322 1.25 11.3196C1.25 14.4023 3.78937 16.9417 6.86232 16.9417C7.59214 16.9417 8.27882 16.7812 8.89934 16.4955C7.22735 18.8862 4.36469 20.3289 1.16975 20.3289C0.464019 20.3289 0 20.8303 0 21.4866ZM5.35678 11.3196C5.35678 10.5085 6.02369 9.84387 6.83248 9.84387C7.64357 9.84387 8.30818 10.5085 8.30818 11.3196C8.30818 12.1186 7.64357 12.7953 6.83248 12.7953C6.02369 12.7953 5.35678 12.1284 5.35678 11.3196Z"
                     fill="currentColor" fill-opacity="0.85" />
       </g>
</svg>