<?xml version="1.0" encoding="UTF-8"?>
<!--Generator: Apple Native CoreSVG 326-->
<!DOCTYPE svg PUBLIC "-//W3C//DTD SVG 1.1//EN" "http://www.w3.org/Graphics/SVG/1.1/DTD/svg11.dtd">
<svg version="1.1" xmlns="http://www.w3.org/2000/svg" xmlns:xlink="http://www.w3.org/1999/xlink"
       viewBox="0 0 19.3993 19.0529">
       <g>
              <rect height="19.0529" opacity="0" width="19.3993" x="0" y="0" />
              <path d="M19.0379 3.63912L19.0379 15.4011C19.0379 17.7262 17.7164 19.0379 15.3896 19.0379L3.64834 19.0379C1.32382 19.0379 0 17.7262 0 15.4011L0 3.63912C0 1.32151 1.32382 0 3.64834 0L15.3896 0C17.7164 0 19.0379 1.32151 19.0379 3.63912ZM7.96723 6.5525L7.96723 12.4617C7.96723 13.6032 8.55633 14.2899 9.61107 14.2899C10.6532 14.2899 11.2595 13.6026 11.2595 12.4617L11.2595 6.5525C11.2595 5.41161 10.6532 4.73178 9.61107 4.73178C8.55633 4.73178 7.96723 5.41853 7.96723 6.5525Z"
                     fill="currentColor" fill-opacity="0.85" />
       </g>
</svg>