<?xml version="1.0" encoding="UTF-8"?>
<!--Generator: Apple Native CoreSVG 326-->
<!DOCTYPE svg PUBLIC "-//W3C//DTD SVG 1.1//EN" "http://www.w3.org/Graphics/SVG/1.1/DTD/svg11.dtd">
<svg version="1.1" xmlns="http://www.w3.org/2000/svg" xmlns:xlink="http://www.w3.org/1999/xlink"
       viewBox="0 0 26.5012 26.676">
       <g>
              <rect height="26.676" opacity="0" width="26.5012" x="0" y="0" />
              <path d="M0 14.9723C0 17.862 2.27733 20.2038 5.66698 20.2038L20.8004 20.2038C24.0148 20.2038 26.1399 18.3598 26.1399 15.5563C26.1399 13.2107 24.9434 11.3807 22.9197 10.6092C22.9094 6.01496 19.5657 2.71375 15.1911 2.71375C12.7236 2.71375 10.5927 3.8388 9.19698 5.78653C6.56984 5.28036 3.94616 7.14832 3.71828 9.95961C1.4068 10.4655 0 12.4811 0 14.9723ZM12.8838 26.676C12.5295 26.676 12.1718 26.5456 11.8175 26.2109L8.61371 23.1623C8.388 22.9509 8.26742 22.7103 8.26742 22.3835C8.26742 21.7467 8.81405 21.3045 9.38835 21.3045C9.71565 21.3045 10.0103 21.4521 10.2313 21.6807L11.2532 22.7323L11.6836 23.5227L11.5728 22.1026L11.5728 13.7759C11.5728 13.0822 12.143 12.477 12.8838 12.477C13.6245 12.477 14.1999 13.0822 14.1999 13.7759L14.1999 22.1026L14.0891 23.5204L14.5121 22.7323L15.5339 21.6807C15.755 21.4521 16.0547 21.3045 16.382 21.3045C16.954 21.3045 17.5053 21.7467 17.5053 22.3835C17.5053 22.7103 17.3824 22.9509 17.159 23.1623L13.9477 26.2109C13.6009 26.5456 13.2432 26.676 12.8838 26.676Z"
                     fill="currentColor" fill-opacity="0.85" />
       </g>
</svg>