<?xml version="1.0" encoding="UTF-8"?>
<!--Generator: Apple Native CoreSVG 326-->
<!DOCTYPE svg PUBLIC "-//W3C//DTD SVG 1.1//EN" "http://www.w3.org/Graphics/SVG/1.1/DTD/svg11.dtd">
<svg version="1.1" xmlns="http://www.w3.org/2000/svg" xmlns:xlink="http://www.w3.org/1999/xlink"
       viewBox="0 0 19.3993 19.0529">
       <g>
              <rect height="19.0529" opacity="0" width="19.3993" x="0" y="0" />
              <path d="M19.0379 3.63912L19.0379 15.4011C19.0379 17.7262 17.7164 19.0379 15.3896 19.0379L3.64834 19.0379C1.32382 19.0379 0 17.7262 0 15.4011L0 3.63912C0 1.32151 1.32382 0 3.64834 0L15.3896 0C17.7164 0 19.0379 1.32151 19.0379 3.63912ZM7.55053 6.44089C7.24967 6.41159 6.9689 6.43682 6.71742 6.50397C5.91124 6.67556 5.26361 7.32307 5.09475 8.20155C4.11994 8.59733 3.47881 9.50553 3.47881 10.7508C3.47881 12.2468 4.56225 13.2698 6.00471 13.2698L13.5691 13.2698C14.8076 13.2698 15.7526 12.2829 15.7526 11.0066C15.7526 9.9485 15.0638 9.20565 14.2325 8.89382C14.2348 8.68941 14.2222 8.50968 14.1774 8.31734C13.9685 6.47776 12.4421 5.05405 10.4642 5.05405C9.30834 5.05405 8.2169 5.5803 7.55053 6.44089Z"
                     fill="currentColor" fill-opacity="0.85" />
       </g>
</svg>