<?xml version="1.0" encoding="UTF-8"?>
<!--Generator: Apple Native CoreSVG 326-->
<!DOCTYPE svg PUBLIC "-//W3C//DTD SVG 1.1//EN" "http://www.w3.org/Graphics/SVG/1.1/DTD/svg11.dtd">
<svg version="1.1" xmlns="http://www.w3.org/2000/svg" xmlns:xlink="http://www.w3.org/1999/xlink"
       viewBox="0 0 19.3993 19.0529">
       <g>
              <rect height="19.0529" opacity="0" width="19.3993" x="0" y="0" />
              <path d="M3.64834 19.0379L15.3896 19.0379C17.7164 19.0379 19.0379 17.7262 19.0379 15.4011L19.0379 3.63912C19.0379 1.32151 17.7164 0 15.3896 0L3.64834 0C1.32382 0 0 1.32151 0 3.63912L0 15.4011C0 17.7262 1.32382 19.0379 3.64834 19.0379ZM4.05583 16.0183C3.37024 16.0183 3.01964 15.7096 3.01964 14.9775L3.01964 4.07021C3.01964 3.33809 3.37024 3.0271 4.05583 3.0271L14.9821 3.0271C15.6654 3.0271 16.0183 3.33809 16.0183 4.07021L16.0183 14.9775C16.0183 15.7096 15.6654 16.0183 14.9821 16.0183Z"
                     fill="currentColor" fill-opacity="0.85" />
              <path d="M6.26134 12.8966L13.1162 12.8966C14.241 12.8966 15.097 11.9987 15.097 10.8435C15.097 9.88936 14.4725 9.21311 13.7153 8.93112C13.7176 8.7514 13.7125 8.58659 13.6752 8.40917C13.4812 6.74756 12.0931 5.44958 10.3006 5.44958C9.25096 5.44958 8.25596 5.92646 7.65389 6.70553C7.39264 6.68369 7.14171 6.70146 6.92007 6.76115C6.17533 6.91783 5.58685 7.50103 5.4329 8.29799C4.54708 8.65932 3.96278 9.48085 3.96278 10.605C3.96278 11.9776 4.95724 12.8966 6.26134 12.8966Z"
                     fill="currentColor" fill-opacity="0.85" />
       </g>
</svg>