<?xml version="1.0" encoding="UTF-8"?>
<!--Generator: Apple Native CoreSVG 326-->
<!DOCTYPE svg PUBLIC "-//W3C//DTD SVG 1.1//EN" "http://www.w3.org/Graphics/SVG/1.1/DTD/svg11.dtd">
<svg version="1.1" xmlns="http://www.w3.org/2000/svg" xmlns:xlink="http://www.w3.org/1999/xlink"
       viewBox="0 0 21.365 21.006">
       <g>
              <rect height="21.006" opacity="0" width="21.365" x="0" y="0" />
              <path d="M21.0037 10.5079C21.0037 16.3043 16.302 21.006 10.4981 21.006C4.70394 21.006 0 16.3043 0 10.5079C0 4.7137 4.70394 0.00976562 10.4981 0.00976562C16.302 0.00976562 21.0037 4.7137 21.0037 10.5079ZM8.44272 7.42721C8.14186 7.39792 7.86109 7.42545 7.60961 7.4926C6.79597 7.67166 6.1558 8.3117 5.98694 9.18788C5.00467 9.58596 4.36354 10.4919 4.36354 11.7394C4.36354 13.2429 5.45444 14.2636 6.88944 14.2636L14.4539 14.2636C15.6998 14.2636 16.6448 13.279 16.6448 11.9929C16.6448 10.9348 15.956 10.1943 15.1172 9.88991C15.1196 9.67804 15.1121 9.49601 15.0673 9.30367C14.8584 7.47155 13.3269 6.04037 11.3489 6.04037C10.2005 6.04037 9.10909 6.56893 8.44272 7.42721Z"
                     fill="currentColor" fill-opacity="0.85" />
       </g>
</svg>