<?xml version="1.0" encoding="UTF-8"?>
<!--Generator: Apple Native CoreSVG 326-->
<!DOCTYPE svg PUBLIC "-//W3C//DTD SVG 1.1//EN" "http://www.w3.org/Graphics/SVG/1.1/DTD/svg11.dtd">
<svg version="1.1" xmlns="http://www.w3.org/2000/svg" xmlns:xlink="http://www.w3.org/1999/xlink"
       viewBox="0 0 26.5012 23.3737">
       <g>
              <rect height="23.3737" opacity="0" width="26.5012" x="0" y="0" />
              <path d="M6.42042 9.22915C6.35074 9.57841 6.33506 9.97097 6.37508 10.4004C6.39 10.5646 6.31133 10.6554 6.15223 10.6554C4.38034 10.6554 3.10917 11.8202 3.10917 13.736C3.10917 15.3402 4.58239 16.6859 6.52107 16.6859L13.8858 16.6859L16.909 19.7056L6.50615 19.7056C2.86042 19.7056 0 17.0174 0 13.736C0 11.1368 1.4068 9.00001 3.71828 8.47685C3.76347 7.91979 3.90058 7.39844 4.11545 6.92683ZM22.9197 9.12872C24.9434 9.9668 26.1399 11.9829 26.1399 14.153C26.1399 16.3737 24.7593 18.2717 22.7449 19.1571L20.2674 16.681C21.824 16.6325 23.0307 15.5259 23.0307 14.153C23.0307 12.5496 21.918 11.4448 20.1556 11.2406C19.9936 11.2188 19.9299 11.143 19.9471 10.9787C20.016 10.4675 20.0752 9.76858 20.0384 9.05078C19.9171 6.38167 17.857 4.25295 15.1388 4.25295C13.005 4.25295 11.6767 5.3487 10.6623 7.06799C10.6606 7.07087 10.6588 7.07369 10.657 7.0762L7.82157 4.24239C8.26801 4.19246 8.73067 4.2125 9.19698 4.30608C10.5927 2.35835 12.7236 1.2333 15.1911 1.2333C19.5657 1.2333 22.9094 4.53451 22.9197 9.12872Z"
                     fill="currentColor" fill-opacity="0.85" />
              <path d="M20.9049 21.7235C21.245 22.0612 21.8032 22.0612 22.1186 21.7235C22.4563 21.4081 22.4586 20.8475 22.1186 20.5098L5.21776 3.61642C4.87026 3.26892 4.31483 3.29591 3.99432 3.61642C3.66636 3.94439 3.68358 4.51934 3.99432 4.83009Z"
                     fill="currentColor" fill-opacity="0.85" />
       </g>
</svg>