<?xml version="1.0" encoding="UTF-8"?>
<!--Generator: Apple Native CoreSVG 326-->
<!DOCTYPE svg PUBLIC "-//W3C//DTD SVG 1.1//EN" "http://www.w3.org/Graphics/SVG/1.1/DTD/svg11.dtd">
<svg version="1.1" xmlns="http://www.w3.org/2000/svg" xmlns:xlink="http://www.w3.org/1999/xlink"
       viewBox="0 0 25.9088 18.1026">
       <g>
              <rect height="18.1026" opacity="0" width="25.9088" x="0" y="0" />
              <path d="M10.896 2.75852L24.2118 2.75852C24.9572 2.75852 25.5475 2.11083 25.5475 1.38041C25.5475 0.620148 24.9646 0 24.2118 0L10.896 0C10.1409 0 9.56037 0.64253 9.56037 1.38041C9.56037 2.09591 10.1558 2.75852 10.896 2.75852ZM10.896 7.86825L24.2118 7.86825C24.9572 7.86825 25.5475 7.21825 25.5475 6.48783C25.5475 5.73503 24.9646 5.10973 24.2118 5.10973L10.896 5.10973C10.1409 5.10973 9.56037 5.74995 9.56037 6.48783C9.56037 7.20333 10.1558 7.86825 10.896 7.86825ZM10.896 12.9831L24.2118 12.9831C24.9572 12.9831 25.5475 12.3354 25.5475 11.605C25.5475 10.8425 24.9646 10.2246 24.2118 10.2246L10.896 10.2246C10.1409 10.2246 9.56037 10.8574 9.56037 11.605C9.56037 12.3131 10.1558 12.9831 10.896 12.9831ZM10.896 18.0906L18.3562 18.0906C19.1015 18.0906 19.6941 17.4429 19.6941 16.7124C19.6941 15.9522 19.109 15.332 18.3562 15.332L10.896 15.332C10.1409 15.332 9.56037 15.9746 9.56037 16.7124C9.56037 17.4279 10.1558 18.0906 10.896 18.0906Z"
                     fill="currentColor" fill-opacity="0.85" />
              <path d="M1.83164 12.627L5.70568 10.0435C6.40868 9.56334 6.38169 8.56912 5.70568 8.11135L1.83164 5.47391C0.94539 4.8691-0.00230072 5.20453 4.196e-06 6.27457L4.196e-06 11.8361C-0.00230072 12.8768 0.982147 13.1927 1.83164 12.627Z"
                     fill="currentColor" fill-opacity="0.85" />
       </g>
</svg>