<?xml version="1.0" encoding="UTF-8"?>
<!--Generator: Apple Native CoreSVG 326-->
<!DOCTYPE svg PUBLIC "-//W3C//DTD SVG 1.1//EN" "http://www.w3.org/Graphics/SVG/1.1/DTD/svg11.dtd">
<svg version="1.1" xmlns="http://www.w3.org/2000/svg" xmlns:xlink="http://www.w3.org/1999/xlink"
       viewBox="0 0 24.3303 21.006">
       <g>
              <rect height="21.006" opacity="0" width="24.3303" x="0" y="0" />
              <path d="M11.9856 20.9962C17.7821 20.9962 22.4837 16.2946 22.4837 10.4981C22.4837 4.70163 17.7821 0 11.9856 0C6.18916 0 1.48753 4.70163 1.48753 10.4981L4.53538 10.4981C4.53538 6.37829 7.86582 3.04785 11.9856 3.04785C16.1055 3.04785 19.4359 6.37829 19.4359 10.4981C19.4359 14.6179 16.1055 17.9484 11.9856 17.9484C9.86874 17.9484 8.05458 17.1034 6.64712 15.6524C5.97135 15.0132 5.0498 14.8117 4.35614 15.4438C3.73423 16.0162 3.72149 16.9286 4.44894 17.7463C6.08398 19.7011 9.21457 20.9962 11.9856 20.9962ZM0.808605 8.39698C-0.0138912 8.39698-0.212055 9.15901 0.22849 9.72826L2.75918 13.0277C3.05907 13.4322 3.60988 13.4224 3.91492 13.0277L6.43585 9.72596C6.86894 9.15901 6.66847 8.39698 5.8655 8.39698Z"
                     fill="currentColor" fill-opacity="0.85" />
              <path d="M11.6816 11.5296C13.2022 11.4028 14.1055 10.3483 14.2434 9.20486L15.2514 9.20486C15.4094 9.20486 15.5237 9.08822 15.5237 8.94228C15.5237 8.79634 15.4094 8.6797 15.2514 8.6797L14.248 8.6797C14.2067 7.92326 13.9034 7.26041 13.2785 6.82787L15.2514 6.82787C15.4094 6.82787 15.5237 6.71123 15.5237 6.56529C15.5237 6.41705 15.4094 6.31017 15.2514 6.31017L9.37348 6.31017C8.9629 6.31017 8.67466 6.57318 8.67466 6.96599L8.67466 6.99704C8.67466 7.38009 8.9629 7.65055 9.37348 7.65055L10.6743 7.65055C11.4621 7.65055 12.1291 7.92411 12.2606 8.6797L9.07099 8.6797C8.91298 8.6797 8.79634 8.79634 8.79634 8.94228C8.79634 9.08076 8.91298 9.20486 9.07099 9.20486L12.2681 9.20486C12.1389 9.97483 11.4965 10.2317 10.672 10.2317L9.57055 10.2317C9.09271 10.2317 8.68158 10.4563 8.68158 11.0024L8.68158 11.0765C8.68158 11.4567 8.91068 11.7122 9.20989 12.0045L11.7291 14.4655C11.9622 14.6964 12.2011 14.8882 12.5594 14.8882C13.0292 14.8882 13.5275 14.477 13.5275 13.9648C13.5275 13.7122 13.3725 13.4411 13.1738 13.2545L11.3827 11.5445Z"
                     fill="currentColor" fill-opacity="0.85" />
       </g>
</svg>