<?xml version="1.0" encoding="UTF-8"?>
<!--Generator: Apple Native CoreSVG 326-->
<!DOCTYPE svg PUBLIC "-//W3C//DTD SVG 1.1//EN" "http://www.w3.org/Graphics/SVG/1.1/DTD/svg11.dtd">
<svg version="1.1" xmlns="http://www.w3.org/2000/svg" xmlns:xlink="http://www.w3.org/1999/xlink"
       viewBox="0 0 21.365 21.006">
       <g>
              <rect height="21.006" opacity="0" width="21.365" x="0" y="0" />
              <path d="M10.4981 20.9962C16.302 20.9962 21.0037 16.2946 21.0037 10.4981C21.0037 4.70163 16.302 0 10.4981 0C4.70163 0 0 4.70163 0 10.4981C0 16.2946 4.70163 20.9962 10.4981 20.9962ZM10.4981 17.9484C6.37829 17.9484 3.04785 14.6179 3.04785 10.4981C3.04785 6.37829 6.37829 3.04785 10.4981 3.04785C14.6179 3.04785 17.9558 6.37829 17.9558 10.4981C17.9558 14.6179 14.6179 17.9484 10.4981 17.9484Z"
                     fill="currentColor" fill-opacity="0.85" />
              <path d="M10.1918 11.5296C11.7124 11.4028 12.6157 10.3483 12.7536 9.20486L13.7615 9.20486C13.9195 9.20486 14.0264 9.08822 14.0264 8.94228C14.0264 8.79634 13.9195 8.6797 13.7615 8.6797L12.7605 8.6797C12.7168 7.92326 12.4136 7.26041 11.7887 6.82787L13.7615 6.82787C13.9195 6.82787 14.0264 6.71123 14.0264 6.56529C14.0264 6.41705 13.9195 6.31017 13.7615 6.31017L7.88365 6.31017C7.47307 6.31017 7.17737 6.57318 7.17737 6.96599L7.17737 6.99704C7.17737 7.38009 7.47307 7.65055 7.88365 7.65055L9.18448 7.65055C9.97222 7.65055 10.6393 7.92411 10.7708 8.6797L7.5737 8.6797C7.42315 8.6797 7.30651 8.79634 7.30651 8.94228C7.30651 9.08076 7.42315 9.20486 7.5737 9.20486L10.7783 9.20486C10.649 9.97483 10.0067 10.2317 9.18218 10.2317L8.08072 10.2317C7.60287 10.2317 7.19175 10.4563 7.19175 11.0024L7.19175 11.0765C7.19175 11.4567 7.42085 11.7122 7.72006 12.0045L10.2392 14.4655C10.4724 14.6964 10.7113 14.8882 11.0696 14.8882C11.5393 14.8882 12.0377 14.477 12.0377 13.9648C12.0377 13.7122 11.8826 13.4411 11.6839 13.2545L9.89289 11.5445Z"
                     fill="currentColor" fill-opacity="0.85" />
       </g>
</svg>