<?xml version="1.0" encoding="UTF-8"?>
<!--Generator: Apple Native CoreSVG 326-->
<!DOCTYPE svg PUBLIC "-//W3C//DTD SVG 1.1//EN" "http://www.w3.org/Graphics/SVG/1.1/DTD/svg11.dtd">
<svg version="1.1" xmlns="http://www.w3.org/2000/svg" xmlns:xlink="http://www.w3.org/1999/xlink"
       viewBox="0 0 19.3993 19.0529">
       <g>
              <rect height="19.0529" opacity="0" width="19.3993" x="0" y="0" />
              <path d="M3.64834 19.0379L15.3896 19.0379C17.7164 19.0379 19.0379 17.7262 19.0379 15.4011L19.0379 3.63912C19.0379 1.32151 17.7164 0 15.3896 0L3.64834 0C1.32382 0 0 1.32151 0 3.63912L0 15.4011C0 17.7262 1.32382 19.0379 3.64834 19.0379ZM4.05583 16.0183C3.37024 16.0183 3.01964 15.7096 3.01964 14.9775L3.01964 4.07021C3.01964 3.33809 3.37024 3.0271 4.05583 3.0271L14.9821 3.0271C15.6654 3.0271 16.0183 3.33809 16.0183 4.07021L16.0183 14.9775C16.0183 15.7096 15.6654 16.0183 14.9821 16.0183Z"
                     fill="currentColor" fill-opacity="0.85" />
              <path d="M9.22215 10.5531C10.733 10.4262 11.646 9.37179 11.7742 8.2283L12.7896 8.2283C12.9476 8.2283 13.0568 8.11166 13.0568 7.96572C13.0568 7.81978 12.9476 7.70314 12.7896 7.70314L11.7886 7.70314C11.7449 6.9467 11.4416 6.28385 10.8167 5.85131L12.7896 5.85131C12.9476 5.85131 13.0568 5.73467 13.0568 5.58873C13.0568 5.44049 12.9476 5.33361 12.7896 5.33361L6.90424 5.33361C6.50112 5.33361 6.20542 5.59662 6.20542 5.98942L6.20542 6.02048C6.20542 6.40352 6.50112 6.67399 6.90424 6.67399L8.21483 6.67399C8.99511 6.67399 9.66215 6.94755 9.79371 7.70314L6.60175 7.70314C6.4512 7.70314 6.33456 7.81978 6.33456 7.96572C6.33456 8.1042 6.4512 8.2283 6.60175 8.2283L9.80633 8.2283C9.67707 8.99827 9.02726 9.25514 8.21022 9.25514L7.10877 9.25514C6.62577 9.25514 6.21979 9.47975 6.21979 10.0258L6.21979 10.0999C6.21979 10.4801 6.44889 10.7356 6.74811 11.0279L9.26727 13.4889C9.50044 13.7198 9.7393 13.9116 10.0977 13.9116C10.5674 13.9116 11.0583 13.5005 11.0583 12.9883C11.0583 12.7356 10.9107 12.4646 10.7143 12.2779L8.92324 10.568Z"
                     fill="currentColor" fill-opacity="0.85" />
       </g>
</svg>