<?xml version="1.0" encoding="UTF-8"?>
<!--Generator: Apple Native CoreSVG 326-->
<!DOCTYPE svg PUBLIC "-//W3C//DTD SVG 1.1//EN" "http://www.w3.org/Graphics/SVG/1.1/DTD/svg11.dtd">
<svg version="1.1" xmlns="http://www.w3.org/2000/svg" xmlns:xlink="http://www.w3.org/1999/xlink"
       viewBox="0 0 24.6449 23.5952">
       <g>
              <rect height="23.5952" opacity="0" width="24.6449" x="0" y="0" />
              <path d="M1.94045 20.4256L22.5744 20.4256L22.5744 19.4355C22.5744 18.8957 22.2379 18.5718 21.7032 18.5718L21.3244 18.5718L21.3244 7.89293L22.1092 7.89293C22.9074 7.89293 23.3841 7.28595 23.3841 6.69158C23.3841 6.25686 23.136 5.85374 22.6254 5.55167L13.7186 0.416404C13.2683 0.154491 12.7462 0 12.2563 0C11.7664 0 11.242 0.154491 10.7963 0.416404L1.88944 5.55167C1.37659 5.85374 1.13081 6.25686 1.13081 6.69158C1.13081 7.28595 1.60745 7.89293 2.41314 7.89293L3.19045 7.89293L3.19045 18.5718L2.81396 18.5718C2.27927 18.5718 1.94045 18.8957 1.94045 19.4355ZM5.29922 18.5718L5.29922 6.39673L12.047 2.62732C12.1194 2.5888 12.1965 2.57212 12.2563 2.57212C12.331 2.57212 12.3931 2.5888 12.4679 2.62732L19.2157 6.39673L19.2157 18.5718ZM1.20651 23.5854L23.0673 23.5854C23.7134 23.5854 24.2836 23.0525 24.2836 22.3766C24.2836 21.7231 23.7134 21.1701 23.0673 21.1701L1.20651 21.1701C0.553002 21.1701 0 21.7231 0 22.3766C0 23.045 0.553002 23.5854 1.20651 23.5854Z"
                     fill="currentColor" fill-opacity="0.85" />
              <path d="M11.9546 12.5905C13.4752 12.4711 14.3859 11.4069 14.5164 10.2634L15.5243 10.2634C15.68 10.2634 15.7967 10.1468 15.7967 10.0009C15.7967 9.85491 15.68 9.74573 15.5243 9.74573L14.521 9.74573C14.4796 8.98183 14.1838 8.31898 13.5515 7.88875L15.5243 7.88875C15.68 7.88875 15.7967 7.77957 15.7967 7.62617C15.7967 7.47562 15.68 7.36874 15.5243 7.36874L9.64644 7.36874C9.23586 7.36874 8.94762 7.63921 8.94762 8.02456L8.94762 8.05561C8.94762 8.44842 9.23586 8.71889 9.64644 8.71889L10.9473 8.71889C11.735 8.71889 12.402 8.99014 12.5336 9.74573L9.34164 9.74573C9.18594 9.74573 9.0693 9.85491 9.0693 10.0009C9.0693 10.1393 9.18594 10.2634 9.34164 10.2634L12.5411 10.2634C12.4118 11.0357 11.7695 11.2903 10.9524 11.2903L9.84867 11.2903C9.36566 11.2903 8.95454 11.5247 8.95454 12.061L8.95454 12.1373C8.95454 12.5152 9.18363 12.7708 9.49031 13.0631L12.002 15.5264C12.2352 15.7572 12.474 15.949 12.8324 15.949C13.3096 15.949 13.8005 15.5431 13.8005 15.0309C13.8005 14.7707 13.6529 14.502 13.4467 14.3131L11.6631 12.6054Z"
                     fill="currentColor" fill-opacity="0.85" />
       </g>
</svg>