<?xml version="1.0" encoding="UTF-8"?>
<!--Generator: Apple Native CoreSVG 326-->
<!DOCTYPE svg PUBLIC "-//W3C//DTD SVG 1.1//EN" "http://www.w3.org/Graphics/SVG/1.1/DTD/svg11.dtd">
<svg version="1.1" xmlns="http://www.w3.org/2000/svg" xmlns:xlink="http://www.w3.org/1999/xlink"
       viewBox="0 0 23.3769 22.7958">
       <g>
              <rect height="22.7958" opacity="0" width="23.3769" x="0" y="0" />
              <path d="M23.0156 5.99015L23.0156 13.866C23.0156 16.884 21.095 18.8213 18.0654 18.8213L12.113 18.8213L8.38613 22.0888C7.80777 22.6005 7.4052 22.7958 6.92735 22.7958C6.23642 22.7958 5.80454 22.3208 5.80454 21.5587L5.80454 18.8213L4.68902 18.8213C2.09221 18.8213 0 16.8863 0 13.866L0 5.99015C0 2.96984 1.92061 1.03255 4.95014 1.03255L18.0654 1.03255C21.095 1.03255 23.0156 2.97215 23.0156 5.99015ZM9.95342 8.38873C9.38604 8.38873 8.95647 8.816 8.95647 9.34892C8.95647 9.9186 9.38604 10.3114 9.95342 10.3114L10.7555 10.3114L10.7555 13.1218L9.75986 13.1218C9.19764 13.1218 8.77038 13.5491 8.77038 14.082C8.77038 14.6592 9.19764 15.0468 9.75986 15.0468L13.6235 15.0468C14.1858 15.0468 14.613 14.6592 14.613 14.082C14.613 13.5491 14.1858 13.1218 13.6235 13.1218L12.9338 13.1218L12.9338 9.63892C12.9338 8.87975 12.5605 8.38873 11.8455 8.38873ZM10.0224 5.71229C10.0224 6.53017 10.7111 7.22626 11.5341 7.22626C12.3595 7.22626 13.0458 6.53017 13.0458 5.71229C13.0458 4.8571 12.3595 4.18339 11.5341 4.18339C10.7111 4.18339 10.0224 4.8571 10.0224 5.71229Z"
                     fill="currentColor" fill-opacity="0.85" />
       </g>
</svg>