<?xml version="1.0" encoding="UTF-8"?>
<!--Generator: Apple Native CoreSVG 326-->
<!DOCTYPE svg PUBLIC "-//W3C//DTD SVG 1.1//EN" "http://www.w3.org/Graphics/SVG/1.1/DTD/svg11.dtd">
<svg version="1.1" xmlns="http://www.w3.org/2000/svg" xmlns:xlink="http://www.w3.org/1999/xlink"
       viewBox="0 0 23.3769 22.7532">
       <g>
              <rect height="22.7532" opacity="0" width="23.3769" x="0" y="0" />
              <path d="M7.19957 22.7532C7.95414 22.7532 8.59206 22.4471 9.53095 21.6363L12.7882 18.8023L18.0654 18.8023C21.095 18.8023 23.0156 16.8627 23.0156 13.8447L23.0156 5.96886C23.0156 2.95086 21.095 1.01126 18.0654 1.01126L4.95014 1.01126C1.92061 1.01126 0 2.94855 0 5.96886L0 13.8447C0 16.8651 2.09221 18.8023 4.68902 18.8023L5.39651 18.8023L5.39651 20.7819C5.39651 22.0038 6.08326 22.7532 7.19957 22.7532ZM7.91331 19.4218L7.91331 16.7763C7.91331 16.0549 7.53664 15.7827 6.91977 15.7827L5.18142 15.7827C3.74594 15.7827 3.01964 15.0604 3.01964 13.6186L3.01964 6.19268C3.01964 4.75095 3.74594 4.0309 5.18142 4.0309L17.8342 4.0309C19.2673 4.0309 19.9959 4.75095 19.9959 6.19268L19.9959 13.6186C19.9959 15.0604 19.2673 15.7827 17.8342 15.7827L12.5431 15.7827C11.7948 15.7827 11.484 15.9354 10.9339 16.473Z"
                     fill="currentColor" fill-opacity="0.85" />
              <path d="M10.0176 14.3597L13.3486 14.3597C13.8167 14.3597 14.1842 14.0363 14.1842 13.5458C14.1842 13.095 13.8167 12.7395 13.3486 12.7395L12.7329 12.7395L12.7329 9.68192C12.7329 9.03697 12.4216 8.61771 11.8134 8.61771L10.1888 8.61771C9.71322 8.61771 9.34564 8.98298 9.34564 9.43153C9.34564 9.922 9.71322 10.2528 10.1888 10.2528L10.8944 10.2528L10.8944 12.7395L10.0176 12.7395C9.54951 12.7395 9.18424 13.095 9.18424 13.5458C9.18424 14.0363 9.54951 14.3597 10.0176 14.3597ZM11.5364 7.60621C12.2527 7.60621 12.83 7.01172 12.83 6.32012C12.83 5.58891 12.2527 5.01911 11.5364 5.01911C10.8448 5.01911 10.2429 5.58891 10.2429 6.32012C10.2429 7.01172 10.8448 7.60621 11.5364 7.60621Z"
                     fill="currentColor" fill-opacity="0.85" />
       </g>
</svg>