<?xml version="1.0" encoding="UTF-8"?>
<!--Generator: Apple Native CoreSVG 326-->
<!DOCTYPE svg PUBLIC "-//W3C//DTD SVG 1.1//EN" "http://www.w3.org/Graphics/SVG/1.1/DTD/svg11.dtd">
<svg version="1.1" xmlns="http://www.w3.org/2000/svg" xmlns:xlink="http://www.w3.org/1999/xlink"
       viewBox="0 0 21.365 21.006">
       <g>
              <rect height="21.006" opacity="0" width="21.365" x="0" y="0" />
              <path d="M10.4981 20.9962C16.302 20.9962 21.0037 16.2946 21.0037 10.4981C21.0037 4.70163 16.302 0 10.4981 0C4.70163 0 0 4.70163 0 10.4981C0 16.2946 4.70163 20.9962 10.4981 20.9962ZM10.4981 17.9484C6.37829 17.9484 3.04785 14.6179 3.04785 10.4981C3.04785 6.37829 6.37829 3.04785 10.4981 3.04785C14.6179 3.04785 17.9558 6.37829 17.9558 10.4981C17.9558 14.6179 14.6179 17.9484 10.4981 17.9484Z"
                     fill="currentColor" fill-opacity="0.85" />
              <path d="M8.79659 15.564L12.5847 15.564C13.1194 15.564 13.5438 15.1815 13.5438 14.6244C13.5438 14.1093 13.1194 13.7021 12.5847 13.7021L11.896 13.7021L11.896 10.2459C11.896 9.50966 11.5279 9.03126 10.8358 9.03126L8.98498 9.03126C8.44284 9.03126 8.02589 9.44591 8.02589 9.96106C8.02589 10.5181 8.44284 10.9006 8.98498 10.9006L9.7837 10.9006L9.7837 13.7021L8.79659 13.7021C8.2619 13.7021 7.83749 14.1093 7.83749 14.6244C7.83749 15.1815 8.2619 15.564 8.79659 15.564ZM10.5221 7.8802C11.3395 7.8802 12.0006 7.20934 12.0006 6.41438C12.0006 5.58212 11.3395 4.92618 10.5221 4.92618C9.72948 4.92618 9.05116 5.58212 9.05116 6.41438C9.05116 7.20934 9.72948 7.8802 10.5221 7.8802Z"
                     fill="currentColor" fill-opacity="0.85" />
       </g>
</svg>