<?xml version="1.0" encoding="UTF-8"?>
<!--Generator: Apple Native CoreSVG 326-->
<!DOCTYPE svg PUBLIC "-//W3C//DTD SVG 1.1//EN" "http://www.w3.org/Graphics/SVG/1.1/DTD/svg11.dtd">
<svg version="1.1" xmlns="http://www.w3.org/2000/svg" xmlns:xlink="http://www.w3.org/1999/xlink"
       viewBox="0 0 10.1945 18.3224">
       <g>
              <rect height="18.3224" opacity="0" width="10.1945" x="0" y="0" />
              <path d="M0.000220107 14.7216C0.0151415 15.8193 0.759817 16.4848 1.94886 16.4848L7.87684 16.4848C9.07334 16.4848 9.81055 15.8193 9.83294 14.7216C9.84786 13.5814 9.10318 12.8861 7.87684 12.8861L7.00321 12.8861L7.00321 7.41199C7.00321 6.29525 6.28838 5.64526 5.18371 5.64526L2.20738 5.64526C0.983334 5.64526 0.236354 6.33826 0.251275 7.47847C0.273658 8.57853 1.01318 9.25145 2.20738 9.25145L3.33139 9.25145L3.33139 12.8861L1.94886 12.8861C0.729974 12.8861-0.0147013 13.5814 0.000220107 14.7216ZM2.73545 2.08002C2.73545 3.24177 3.65141 4.16519 4.8057 4.16519C5.97721 4.16519 6.87365 3.24177 6.87365 2.08002C6.87365 0.915968 5.97721 0 4.8057 0C3.65141 0 2.73545 0.915968 2.73545 2.08002Z"
                     fill="currentColor" fill-opacity="0.85" />
       </g>
</svg>