<?xml version="1.0" encoding="UTF-8"?>
<!--Generator: Apple Native CoreSVG 326-->
<!DOCTYPE svg PUBLIC "-//W3C//DTD SVG 1.1//EN" "http://www.w3.org/Graphics/SVG/1.1/DTD/svg11.dtd">
<svg version="1.1" xmlns="http://www.w3.org/2000/svg" xmlns:xlink="http://www.w3.org/1999/xlink"
       viewBox="0 0 17.0304 24.2112">
       <g>
              <rect height="24.2112" opacity="0" width="17.0304" x="0" y="0" />
              <path d="M10.2357 23.8118L10.0054 20.4144C9.92674 19.2543 10.11 18.8051 10.8354 18.1653L13.6909 15.6803L12.2878 15.3792C12.0775 15.3304 11.9231 15.2127 11.865 14.9673L9.47583 5.83415C9.17594 4.70243 8.15067 4.10994 7.02302 4.60471C4.73871 5.5524 3.92695 5.94945 2.2065 5.96789C1.07193 5.98348 0.0828694 6.91668 0.562477 8.65362L3.9156 20.8591C4.24873 22.0693 5.02009 22.8078 6.46286 23.087ZM11.8779 24.1179C12.9025 24.3344 13.5704 24.1794 14.1493 23.5953L16.0573 21.6953C16.4817 21.2634 16.6661 20.8454 16.6661 20.1516L16.6638 17.688C16.6638 16.644 16.1883 16.2214 15.4688 16.0566L15.2847 16.0181L12.1409 18.8885C11.4673 19.4932 11.365 19.8039 11.4437 20.7854L11.6815 24.076ZM1.66138 7.794L7.99643 5.4565L7.01701 2.09888C6.44424 2.69338 5.3053 3.20798 4.00386 3.56579C2.46368 3.98098 1.08764 3.9788 0.503216 3.86052ZM3.52668 2.30857C5.36929 1.85135 6.70342 1.05135 6.55178 0.481551C6.40014-0.0612602 4.79354-0.090436 3.01426 0.389718C1.12215 0.873389-0.14174 1.64991 0.0127511 2.20982C0.16154 2.74057 1.74278 2.77896 3.52668 2.30857Z"
                     fill="currentColor" fill-opacity="0.85" />
       </g>
</svg>