<?xml version="1.0" encoding="UTF-8"?>
<!--Generator: Apple Native CoreSVG 326-->
<!DOCTYPE svg PUBLIC "-//W3C//DTD SVG 1.1//EN" "http://www.w3.org/Graphics/SVG/1.1/DTD/svg11.dtd">
<svg version="1.1" xmlns="http://www.w3.org/2000/svg" xmlns:xlink="http://www.w3.org/1999/xlink"
       viewBox="0 0 17.1561 23.9556">
       <g>
              <rect height="23.9556" opacity="0" width="17.1561" x="0" y="0" />
              <path d="M11.2675 23.8755C12.3007 24.0714 12.9755 23.9146 13.5786 23.3334L16.1842 20.8501C16.6207 20.4257 16.7976 19.9858 16.7976 19.2851L16.7976 16.7162C16.7976 15.6532 16.3319 15.2156 15.5911 15.0611L12.1483 14.3511C12.0752 14.3321 12.055 14.3142 12.0268 14.2232L9.84149 5.94446C9.38833 4.22662 7.98135 3.54951 6.41515 4.44662C4.96062 5.27384 3.53011 5.54904 2.39038 5.56627C0.767345 5.57834-0.33417 7.04797 0.124148 8.7216L3.39345 20.5694C3.73864 21.8083 4.50594 22.5486 5.95508 22.8375ZM9.82748 23.0563L11.2411 21.2158L6.57929 20.3328C6.03108 20.2311 5.93846 20.1241 5.81721 19.6552L2.70701 8.47363C2.60814 8.09429 2.57271 8.15198 2.73096 8.15198C4.17561 8.13245 6.21135 7.57987 7.27811 6.97209C7.72393 6.70381 7.44867 6.74463 7.50102 6.94425L9.70356 15.4384C9.89711 16.208 10.2285 16.5319 10.9567 16.6766L14.0733 17.3056L13.2313 15.4283L10.0888 18.1985C9.57193 18.6442 9.55525 19.0376 9.58455 19.5999ZM12.7683 21.1732C12.612 21.3294 12.4753 21.2708 12.4581 21.0681L12.3972 19.6701C12.3851 19.3972 12.4265 19.2192 12.685 18.9825L14.2984 17.4914C14.3863 17.4035 14.5328 17.4253 14.5328 17.589L14.5627 19.2002C14.5627 19.3564 14.5018 19.4977 14.4162 19.5661ZM1.02938 6.66438L3.01107 5.88799L2.66861 4.59692C3.48807 4.57114 4.77519 4.26083 5.47328 3.84703L5.84274 5.1404L8.02424 4.6167L7.03627 1.19788C6.69623 0.0238187 4.91737-0.125517 2.75426 0.489051C0.650157 1.11229-0.27964 2.16292 0.0730145 3.37767ZM2.18554 2.70573C2.06187 2.54092 2.38049 2.19858 3.34432 1.91877C4.09275 1.69241 4.93842 1.62338 5.0621 1.79795C5.21738 2.0581 4.50527 2.45904 3.84242 2.64119C3.10606 2.8308 2.34082 2.94635 2.18554 2.70573Z"
                     fill="currentColor" fill-opacity="0.85" />
       </g>
</svg>