<?xml version="1.0" encoding="UTF-8"?>
<!--Generator: Apple Native CoreSVG 326-->
<!DOCTYPE svg PUBLIC "-//W3C//DTD SVG 1.1//EN" "http://www.w3.org/Graphics/SVG/1.1/DTD/svg11.dtd">
<svg version="1.1" xmlns="http://www.w3.org/2000/svg" xmlns:xlink="http://www.w3.org/1999/xlink"
       viewBox="0 0 32.8806 22.1315">
       <g>
              <rect height="22.1315" opacity="0" width="32.8806" x="0" y="0" />
              <path d="M27.3135 5.19337L27.3135 6.59052C26.6954 6.26024 26.0053 6.07986 25.3011 6.07986C24.9546 6.07986 24.6169 6.12197 24.2939 6.20575L24.2939 5.617C24.2939 4.88488 23.941 4.5739 23.2577 4.5739L7.90931 4.5739C7.22371 4.5739 6.87312 4.88488 6.87312 5.617L6.87312 16.5243C6.87312 17.2564 7.22371 17.5725 7.90931 17.5725L18.1705 17.5725C17.8734 18.1751 17.7193 18.7986 17.7193 19.4033C17.7193 19.8399 17.8124 20.2412 17.9863 20.5922L7.50182 20.5922C5.1773 20.5922 3.85348 19.273 3.85348 16.9554L3.85348 5.19337C3.85348 2.8683 5.1773 1.55425 7.50182 1.55425L23.6652 1.55425C25.992 1.55425 27.3135 2.8683 27.3135 5.19337Z"
                     fill="currentColor" fill-opacity="0.85" />
              <path d="M22.5778 6.79069L22.5778 7.06567C21.5216 7.91915 20.8397 9.25714 20.8397 10.751C20.8397 12.0955 21.3572 13.2937 22.1897 14.1457C21.0904 14.5453 20.1552 15.1437 19.4322 15.849L9.07554 15.849C8.75249 15.849 8.59151 15.676 8.59151 15.3506L8.59151 6.79069C8.59151 6.46533 8.75249 6.29228 9.07554 6.29228L22.0915 6.29228C22.4145 6.29228 22.5778 6.46533 22.5778 6.79069Z"
                     fill="currentColor" fill-opacity="0.2125" />
              <path d="M20.7261 20.5922L29.8738 20.5922C30.7802 20.5922 31.3338 20.1459 31.3338 19.4033C31.3338 17.6018 28.9586 15.1541 25.3011 15.1541C21.6413 15.1541 19.2586 17.6018 19.2586 19.4033C19.2586 20.1459 19.8197 20.5922 20.7261 20.5922ZM25.3011 13.9339C26.9244 13.9339 28.2157 12.5266 28.2157 10.7464C28.2157 9.04024 26.9146 7.62665 25.3011 7.62665C23.6876 7.62665 22.3841 9.04485 22.3841 10.751C22.3841 12.5266 23.6778 13.9339 25.3011 13.9339Z"
                     fill="currentColor" fill-opacity="0.85" />
       </g>
</svg>