<?xml version="1.0" encoding="UTF-8"?>
<!--Generator: Apple Native CoreSVG 326-->
<!DOCTYPE svg PUBLIC "-//W3C//DTD SVG 1.1//EN" "http://www.w3.org/Graphics/SVG/1.1/DTD/svg11.dtd">
<svg version="1.1" xmlns="http://www.w3.org/2000/svg" xmlns:xlink="http://www.w3.org/1999/xlink"
       viewBox="0 0 23.8214 19.0529">
       <g>
              <rect height="19.0529" opacity="0" width="23.8214" x="0" y="0" />
              <path d="M3.64834 19.0529L19.8117 19.0529C22.1386 19.0529 23.4601 17.7336 23.4601 15.416L23.4601 3.65404C23.4601 1.32897 22.1386 0.0149214 19.8117 0.0149214L3.64834 0.0149214C1.32382 0.0149214 0 1.32897 0 3.65404L0 15.416C0 17.7336 1.32382 19.0529 3.64834 19.0529ZM4.05583 16.0332C3.37024 16.0332 3.01964 15.7171 3.01964 14.985L3.01964 4.07767C3.01964 3.34555 3.37024 3.03457 4.05583 3.03457L19.4042 3.03457C20.0875 3.03457 20.4404 3.34555 20.4404 4.07767L20.4404 14.985C20.4404 15.7171 20.0875 16.0332 19.4042 16.0332Z"
                     fill="currentColor" fill-opacity="0.85" />
              <path d="M5.22207 14.3097L18.238 14.3097C18.5846 14.3097 18.7243 14.1602 18.7243 13.8113L18.7243 10.7908C18.7243 10.4441 18.5772 10.3021 18.2305 10.3021L5.22953 10.3021C4.88518 10.3021 4.73803 10.4441 4.73803 10.7931L4.73803 13.8113C4.73803 14.1602 4.87772 14.3097 5.22207 14.3097Z"
                     fill="currentColor" fill-opacity="0.2125" />
              <path d="M5.2416 8.74557L18.2185 8.74557C18.5674 8.74557 18.7243 8.60588 18.7243 8.26669L18.7243 5.24906C18.7243 4.90241 18.5846 4.75295 18.238 4.75295L5.22207 4.75295C4.87772 4.75295 4.73803 4.90241 4.73803 5.25136L4.73803 8.26669C4.73803 8.60588 4.89495 8.74557 5.2416 8.74557Z"
                     fill="currentColor" fill-opacity="0.85" />
       </g>
</svg>