<?xml version="1.0" encoding="UTF-8"?>
<!--Generator: Apple Native CoreSVG 326-->
<!DOCTYPE svg PUBLIC "-//W3C//DTD SVG 1.1//EN" "http://www.w3.org/Graphics/SVG/1.1/DTD/svg11.dtd">
<svg version="1.1" xmlns="http://www.w3.org/2000/svg" xmlns:xlink="http://www.w3.org/1999/xlink"
       viewBox="0 0 24.5525 19.0575">
       <g>
              <rect height="19.0575" opacity="0" width="24.5525" x="0" y="0" />
              <path d="M4.4968 16.0378L4.4968 3.03918L19.687 3.03918L19.687 16.0378Z" fill="currentColor"
                     fill-opacity="0.2125" />
              <path d="M3.66326 19.0575L20.5429 19.0575C22.8697 19.0575 24.1912 17.7285 24.1912 15.4034L24.1912 3.65865C24.1912 1.33358 22.8697 0.0195312 20.5429 0.0195312L3.64834 0.0195312C1.32382 0.0195312 0 1.33128 0 3.65865L0 15.4034C0 17.7308 1.33128 19.0575 3.66326 19.0575ZM2.37651 10.2274C1.99401 10.2297 1.68272 9.91611 1.68042 9.52385C1.67811 9.14366 1.98424 8.83237 2.3742 8.83237C2.77392 8.83237 3.07545 9.14366 3.07545 9.52385C3.07545 9.91611 2.76416 10.2251 2.37651 10.2274ZM4.4968 16.0378L4.4968 3.03918L19.687 3.03918L19.687 16.0378ZM21.8055 10.6271C21.2024 10.6271 20.7143 10.1344 20.7143 9.52385C20.7143 8.92311 21.2048 8.43034 21.8078 8.43034C22.4258 8.43034 22.9088 8.92311 22.9088 9.52385C22.9088 10.1344 22.4258 10.6271 21.8055 10.6271Z"
                     fill="currentColor" fill-opacity="0.85" />
       </g>
</svg>