<?xml version="1.0" encoding="UTF-8"?>
<!--Generator: Apple Native CoreSVG 326-->
<!DOCTYPE svg PUBLIC "-//W3C//DTD SVG 1.1//EN" "http://www.w3.org/Graphics/SVG/1.1/DTD/svg11.dtd">
<svg version="1.1" xmlns="http://www.w3.org/2000/svg" xmlns:xlink="http://www.w3.org/1999/xlink"
       viewBox="0 0 18.6419 23.9165">
       <g>
              <rect height="23.9165" opacity="0" width="18.6419" x="0" y="0" />
              <path d="M3.01964 19.4002L3.01964 4.49911L15.2609 4.49911L15.2609 19.4002Z" fill="currentColor"
                     fill-opacity="0.2125" />
              <path d="M3.53322 23.8895L14.7473 23.8895C16.9429 23.8895 18.2805 22.5634 18.2805 20.3937L18.2805 3.4981C18.2805 1.32843 16.9429 0 14.7473 0L3.53322 0C1.33765 0 0 1.32843 0 3.4981L0 20.3937C0 22.5634 1.33765 23.8895 3.53322 23.8895ZM3.01964 19.4002L3.01964 4.49911L15.2609 4.49911L15.2609 19.4002ZM9.15118 22.6243C8.53837 22.6243 8.04791 22.1315 8.04791 21.521C8.04791 20.9128 8.53837 20.4275 9.15118 20.4275C9.75938 20.4275 10.2447 20.9128 10.2447 21.521C10.2447 22.1315 9.75938 22.6243 9.15118 22.6243ZM9.14657 3.07775C8.75661 3.07775 8.44763 2.77392 8.44763 2.37651C8.44763 1.99631 8.75661 1.68272 9.14657 1.68272C9.53653 1.68272 9.84036 1.99631 9.84036 2.37651C9.84036 2.77392 9.53653 3.07775 9.14657 3.07775Z"
                     fill="currentColor" fill-opacity="0.85" />
       </g>
</svg>