<?xml version="1.0" encoding="UTF-8"?>
<!--Generator: Apple Native CoreSVG 326-->
<!DOCTYPE svg PUBLIC "-//W3C//DTD SVG 1.1//EN" "http://www.w3.org/Graphics/SVG/1.1/DTD/svg11.dtd">
<svg version="1.1" xmlns="http://www.w3.org/2000/svg" xmlns:xlink="http://www.w3.org/1999/xlink"
       viewBox="0 0 24.684 26.4759">
       <g>
              <rect height="26.4759" opacity="0" width="24.684" x="0" y="0" />
              <path d="M15.848 4.38465L11.3167 4.38465C8.78324 4.38465 7.08997 6.06925 7.08997 8.59576L7.08997 22.1496L5.06751 22.1496C4.38434 22.1496 4.08028 21.8226 4.08028 21.1934L4.08028 5.26531C4.08028 4.62867 4.38434 4.29937 5.06751 4.29937L15.344 4.29937C15.5445 4.29937 15.7121 4.32771 15.848 4.38465Z"
                     fill="currentColor" fill-opacity="0.2125" />
              <path d="M19.3331 4.38465L15.848 4.38465C15.7121 4.32771 15.5445 4.29937 15.344 4.29937L5.06751 4.29937C4.38434 4.29937 4.08028 4.62867 4.08028 5.26531L4.08028 21.1934C4.08028 21.8226 4.38434 22.1496 5.06751 22.1496L7.08997 22.1496L7.08997 22.2723C7.08997 23.4546 7.45856 24.4487 8.11288 25.1692L4.60131 25.1692C2.40805 25.1692 1.06063 23.8431 1.06063 21.6734L1.06063 4.77782C1.06063 2.60815 2.40805 1.27972 4.60131 1.27972L15.8079 1.27972C17.8676 1.27972 19.1788 2.44872 19.3331 4.38465Z"
                     fill="currentColor" fill-opacity="0.85" />
              <path d="M11.1627 21.6108L11.1627 9.24981C11.1627 8.7602 11.473 8.44988 11.9667 8.44988L19.8096 8.44988C20.3061 8.44988 20.6188 8.7602 20.6188 9.24981L20.6188 21.6108C20.6188 22.0952 20.3061 22.4033 19.8096 22.4033L11.9667 22.4033C11.473 22.4033 11.1627 22.0952 11.1627 21.6108Z"
                     fill="currentColor" fill-opacity="0.2125" />
              <path d="M8.40414 22.2723C8.40414 24.0722 9.50293 25.1618 11.3167 25.1618L20.4498 25.1618C22.271 25.1618 23.3773 24.0722 23.3773 22.2723L23.3773 8.59576C23.3773 6.79585 22.271 5.69136 20.4498 5.69136L11.3167 5.69136C9.50293 5.69136 8.40414 6.79585 8.40414 8.59576ZM11.1627 21.6108L11.1627 9.24981C11.1627 8.7602 11.473 8.44988 11.9667 8.44988L19.8096 8.44988C20.3061 8.44988 20.6188 8.7602 20.6188 9.24981L20.6188 21.6108C20.6188 22.0952 20.3061 22.4033 19.8096 22.4033L11.9667 22.4033C11.473 22.4033 11.1627 22.0952 11.1627 21.6108Z"
                     fill="currentColor" fill-opacity="0.85" />
       </g>
</svg>