<?xml version="1.0" encoding="UTF-8"?>
<!--Generator: Apple Native CoreSVG 326-->
<!DOCTYPE svg PUBLIC "-//W3C//DTD SVG 1.1//EN" "http://www.w3.org/Graphics/SVG/1.1/DTD/svg11.dtd">
<svg version="1.1" xmlns="http://www.w3.org/2000/svg" xmlns:xlink="http://www.w3.org/1999/xlink"
       viewBox="0 0 25.5193 26.4483">
       <g>
              <rect height="26.4483" opacity="0" width="25.5193" x="0" y="0" />
              <path d="M21.723 4.76399L21.723 9.31447L17.6757 9.31447L17.6757 5.87836C17.6757 5.33282 17.2134 4.87572 16.6753 4.87572C16.1149 4.87572 15.6727 5.33282 15.6727 5.87836L15.6727 9.46846C14.2284 9.89014 13.326 11.1434 13.326 12.6884L13.326 23.0692C13.326 23.8701 13.5653 24.5901 13.9975 25.1554L6.97569 25.1554C4.78243 25.1554 3.43502 23.8293 3.43502 21.6596L3.43502 4.76399C3.43502 2.59432 4.78243 1.26589 6.97569 1.26589L18.1823 1.26589C20.3779 1.26589 21.723 2.59432 21.723 4.76399ZM9.98575 5.87836L9.98575 20.5452C9.98575 21.0908 10.448 21.5479 10.9861 21.5479C11.5466 21.5479 11.9887 21.0908 11.9887 20.5452L11.9887 5.87836C11.9887 5.33282 11.5466 4.87572 10.9861 4.87572C10.448 4.87572 9.98575 5.33282 9.98575 5.87836Z"
                     fill="currentColor" fill-opacity="0.85" />
              <path d="M16.7809 25.1416L22.1815 25.1416C23.4148 25.1416 24.2126 24.3283 24.2126 23.0617L24.2126 12.6959C24.2126 11.4368 23.4125 10.6286 22.1815 10.6286L16.7809 10.6286C15.4804 10.6286 14.6378 11.4368 14.6378 12.6884L14.6378 23.0692C14.6378 24.3283 15.4804 25.1416 16.7809 25.1416ZM17.2232 15.5558C16.7671 15.5558 16.4885 15.287 16.4885 14.8601L16.4885 13.318C16.4885 12.898 16.7671 12.6297 17.2232 12.6297L18.6551 12.6297C19.1164 12.6297 19.4048 12.898 19.4048 13.318L19.4048 14.8601C19.4048 15.287 19.1164 15.5558 18.6551 15.5558Z"
                     fill="currentColor" fill-opacity="0.85" />
       </g>
</svg>