<?xml version="1.0" encoding="UTF-8"?>
<!--Generator: Apple Native CoreSVG 326-->
<!DOCTYPE svg PUBLIC "-//W3C//DTD SVG 1.1//EN" "http://www.w3.org/Graphics/SVG/1.1/DTD/svg11.dtd">
<svg version="1.1" xmlns="http://www.w3.org/2000/svg" xmlns:xlink="http://www.w3.org/1999/xlink"
       viewBox="0 0 24.5525 19.0575">
       <g>
              <rect height="19.0575" opacity="0" width="24.5525" x="0" y="0" />
              <path d="M4.07075 16.0378C3.3777 16.0378 3.0271 15.7217 3.0271 14.9896L3.0271 4.07997C3.0271 3.34785 3.37024 3.03918 4.05583 3.03918L20.1354 3.03918C20.8187 3.03918 21.1716 3.34785 21.1716 4.07997L21.1716 14.9896C21.1716 15.7217 20.8187 16.0378 20.1354 16.0378Z"
                     fill="currentColor" fill-opacity="0.2125" />
              <path d="M8.28877 15.174L15.9122 15.174C16.2356 15.174 16.4808 14.9534 16.4808 14.6054C16.4808 14.2573 16.2356 14.027 15.9122 14.027L8.28877 14.027C7.96542 14.027 7.72534 14.2573 7.72534 14.6054C7.72534 14.9534 7.96542 15.174 8.28877 15.174ZM3.66326 19.0575L20.5429 19.0575C22.8697 19.0575 24.1912 17.7285 24.1912 15.4034L24.1912 3.65865C24.1912 1.33358 22.8697 0.0195312 20.5429 0.0195312L3.64834 0.0195312C1.32382 0.0195312 0 1.33128 0 3.65865L0 15.4034C0 17.7308 1.33128 19.0575 3.66326 19.0575ZM4.07075 16.0378C3.3777 16.0378 3.0271 15.7217 3.0271 14.9896L3.0271 4.07997C3.0271 3.34785 3.37024 3.03918 4.05583 3.03918L20.1354 3.03918C20.8187 3.03918 21.1716 3.34785 21.1716 4.07997L21.1716 14.9896C21.1716 15.7217 20.8187 16.0378 20.1354 16.0378Z"
                     fill="currentColor" fill-opacity="0.85" />
       </g>
</svg>