<?xml version="1.0" encoding="UTF-8"?>
<!--Generator: Apple Native CoreSVG 326-->
<!DOCTYPE svg PUBLIC "-//W3C//DTD SVG 1.1//EN" "http://www.w3.org/Graphics/SVG/1.1/DTD/svg11.dtd">
<svg version="1.1" xmlns="http://www.w3.org/2000/svg" xmlns:xlink="http://www.w3.org/1999/xlink"
       viewBox="0 0 18.6419 23.9165">
       <g>
              <rect height="23.9165" opacity="0" width="18.6419" x="0" y="0" />
              <path d="M3.01964 19.9137L3.01964 3.98559C3.01964 3.34895 3.32141 3.01964 3.99712 3.01964L14.2834 3.01964C14.9568 3.01964 15.2609 3.34895 15.2609 3.98559L15.2609 19.9137C15.2609 20.5429 14.9568 20.8699 14.2834 20.8699L3.99712 20.8699C3.32141 20.8699 3.01964 20.5429 3.01964 19.9137Z"
                     fill="currentColor" fill-opacity="0.2125" />
              <path d="M5.98002 19.8666L12.3154 19.8666C12.6709 19.8666 12.9236 19.6213 12.9236 19.2509C12.9236 18.8805 12.6709 18.6301 12.3154 18.6301L5.98002 18.6301C5.62682 18.6301 5.36667 18.8805 5.36667 19.2509C5.36667 19.6213 5.62682 19.8666 5.98002 19.8666ZM0 20.3937C0 22.5634 1.33765 23.8895 3.53322 23.8895L14.7473 23.8895C16.9429 23.8895 18.2805 22.5634 18.2805 20.3937L18.2805 3.4981C18.2805 1.32843 16.9429 0 14.7473 0L3.53322 0C1.33765 0 0 1.32843 0 3.4981ZM3.01964 19.9137L3.01964 3.98559C3.01964 3.34895 3.32141 3.01964 3.99712 3.01964L14.2834 3.01964C14.9568 3.01964 15.2609 3.34895 15.2609 3.98559L15.2609 19.9137C15.2609 20.5429 14.9568 20.8699 14.2834 20.8699L3.99712 20.8699C3.32141 20.8699 3.01964 20.5429 3.01964 19.9137Z"
                     fill="currentColor" fill-opacity="0.85" />
       </g>
</svg>