<?xml version="1.0" encoding="UTF-8"?>
<!--Generator: Apple Native CoreSVG 326-->
<!DOCTYPE svg PUBLIC "-//W3C//DTD SVG 1.1//EN" "http://www.w3.org/Graphics/SVG/1.1/DTD/svg11.dtd">
<svg version="1.1" xmlns="http://www.w3.org/2000/svg" xmlns:xlink="http://www.w3.org/1999/xlink"
       viewBox="0 0 25.263 24.4079">
       <g>
              <rect height="24.4079" opacity="0" width="25.263" x="0" y="0" />
              <path d="M2.33763 3.51927L2.33763 20.8393C2.33763 22.2654 2.97808 23.4072 4.0008 23.971L3.30533 23.971C1.32558 23.971 0 22.6868 0 20.7829L0 3.57568C0 1.66428 1.32558 0.387532 3.30533 0.387532L4.0008 0.387532C2.97808 0.95135 2.33763 2.09313 2.33763 3.51927Z"
                     fill="currentColor" fill-opacity="0.85" />
              <path d="M7.00548 3.51927L7.00548 20.8393C7.00548 22.2654 7.64593 23.4072 8.66865 23.971L7.98064 23.971C6.00089 23.971 4.67531 22.6868 4.67531 20.7829L4.67531 3.57568C4.67531 1.66428 6.00089 0.387532 7.98064 0.387532L8.66865 0.387532C7.64593 0.95135 7.00548 2.09313 7.00548 3.51927Z"
                     fill="currentColor" fill-opacity="0.85" />
              <path d="M9.37598 20.7852C9.37598 22.6966 10.709 23.9733 12.6813 23.9733L21.7754 23.9733C23.6507 23.9733 24.9016 22.6966 24.9016 20.7777L24.9016 3.58314C24.9016 1.66428 23.6507 0.387532 21.7754 0.387532L12.6813 0.387532C10.709 0.387532 9.37598 1.66428 9.37598 3.57568ZM12.3956 19.1259L12.3956 5.23499L21.882 5.23499L21.882 19.1259ZM17.1497 22.5291C16.5369 22.5291 16.0441 22.0363 16.0441 21.4183C16.0441 20.8176 16.5369 20.3323 17.1497 20.3323C17.7579 20.3323 18.2432 20.8176 18.2432 21.4183C18.2432 22.0363 17.7579 22.5291 17.1497 22.5291ZM14.7399 2.88735C14.7399 2.55083 14.9856 2.32228 15.3124 2.32228L18.975 2.32228C19.3017 2.32228 19.5401 2.55083 19.5401 2.88735C19.5401 3.23133 19.3017 3.44266 18.975 3.44266L15.3124 3.44266C14.9856 3.44266 14.7399 3.23133 14.7399 2.88735Z"
                     fill="currentColor" fill-opacity="0.85" />
       </g>
</svg>