<?xml version="1.0" encoding="UTF-8"?>
<!--Generator: Apple Native CoreSVG 326-->
<!DOCTYPE svg PUBLIC "-//W3C//DTD SVG 1.1//EN" "http://www.w3.org/Graphics/SVG/1.1/DTD/svg11.dtd">
<svg version="1.1" xmlns="http://www.w3.org/2000/svg" xmlns:xlink="http://www.w3.org/1999/xlink"
       viewBox="0 0 21.365 21.006">
       <g>
              <rect height="21.006" opacity="0" width="21.365" x="0" y="0" />
              <path d="M10.4981 20.9962C16.302 20.9962 21.0037 16.2946 21.0037 10.4981C21.0037 4.70163 16.302 0 10.4981 0C4.70163 0 0 4.70163 0 10.4981C0 16.2946 4.70163 20.9962 10.4981 20.9962ZM10.4981 17.9484C6.37829 17.9484 3.04785 14.6179 3.04785 10.4981C3.04785 6.37829 6.37829 3.04785 10.4981 3.04785C14.6179 3.04785 17.9558 6.37829 17.9558 10.4981C17.9558 14.6179 14.6179 17.9484 10.4981 17.9484Z"
                     fill="currentColor" fill-opacity="0.85" />
              <path d="M5.3879 12.8912C5.53208 12.7326 5.50794 12.5 5.33677 12.2995C4.90235 11.8117 4.66676 11.1704 4.66676 10.4981C4.66676 9.8258 4.90235 9.18454 5.33677 8.69669C5.50794 8.48876 5.53208 8.2613 5.3879 8.09759C5.25348 7.91434 4.96227 7.91434 4.76927 8.10735C4.19813 8.74454 3.87696 9.59088 3.87696 10.4981C3.87696 11.3956 4.19813 12.2494 4.76927 12.8889C4.96227 13.0744 5.25348 13.0744 5.3879 12.8912ZM15.6181 12.8912C15.7548 13.0744 16.0386 13.0744 16.2367 12.8889C16.8079 12.2494 17.1313 11.3956 17.1313 10.4981C17.1313 9.59088 16.8079 8.74454 16.2367 8.10735C16.0386 7.91434 15.7548 7.91434 15.6181 8.09759C15.4664 8.2613 15.498 8.48876 15.6715 8.69669C16.1036 9.18454 16.3415 9.8258 16.3415 10.4981C16.3415 11.1704 16.1036 11.8117 15.6715 12.2995C15.498 12.5 15.4664 12.7326 15.6181 12.8912Z"
                     fill="currentColor" fill-opacity="0.85" />
              <path d="M6.60763 11.9213C6.74435 11.7553 6.7179 11.5623 6.57142 11.3371C6.40189 11.1216 6.30708 10.8331 6.30708 10.4981C6.30708 10.1556 6.40189 9.87232 6.57142 9.65912C6.7179 9.43396 6.74435 9.23349 6.60763 9.07494C6.44622 8.86185 6.13548 8.87677 5.97177 9.10193C5.67529 9.49607 5.50521 9.98271 5.50521 10.4981C5.50521 11.0037 5.67529 11.5001 5.97177 11.8845C6.13548 12.1171 6.44622 12.1344 6.60763 11.9213ZM14.3984 11.9213C14.5598 12.1344 14.8705 12.1171 15.0267 11.8845C15.3307 11.5001 15.5031 11.0037 15.5031 10.4981C15.5031 9.98271 15.3307 9.49607 15.0267 9.10193C14.8705 8.87677 14.5598 8.86185 14.3984 9.07494C14.2616 9.23349 14.2881 9.43396 14.4346 9.65912C14.6041 9.87232 14.7012 10.1556 14.7012 10.4981C14.7012 10.8331 14.6041 11.1216 14.4346 11.3371C14.2881 11.5623 14.2616 11.7553 14.3984 11.9213Z"
                     fill="currentColor" fill-opacity="0.85" />
              <path d="M7.25119 14.2944C7.25119 15.1096 7.85721 15.6909 8.71142 15.6909L12.2923 15.6909C13.139 15.6909 13.7525 15.1096 13.7525 14.2944L13.7525 6.70177C13.7525 5.88661 13.139 5.30528 12.2923 5.30528L8.71142 5.30528C7.85721 5.30528 7.25119 5.88661 7.25119 6.70177ZM8.42106 13.7351L8.42106 7.26114L12.5826 7.26114L12.5826 13.7351ZM10.5153 15.0545C10.2787 15.0545 10.0885 14.8569 10.0885 14.6277C10.0885 14.3985 10.2787 14.2158 10.5153 14.2158C10.7371 14.2158 10.9152 14.3985 10.9152 14.6277C10.9152 14.8569 10.7371 15.0545 10.5153 15.0545ZM9.49225 6.32716C9.49225 6.20766 9.57498 6.1347 9.67495 6.1347L11.3287 6.1347C11.4385 6.1347 11.5114 6.20766 11.5114 6.32716C11.5114 6.43919 11.4385 6.51731 11.3287 6.51731L9.67495 6.51731C9.57498 6.51731 9.49225 6.43919 9.49225 6.32716Z"
                     fill="currentColor" fill-opacity="0.85" />
       </g>
</svg>