<?xml version="1.0" encoding="UTF-8"?>
<!--Generator: Apple Native CoreSVG 326-->
<!DOCTYPE svg PUBLIC "-//W3C//DTD SVG 1.1//EN" "http://www.w3.org/Graphics/SVG/1.1/DTD/svg11.dtd">
<svg version="1.1" xmlns="http://www.w3.org/2000/svg" xmlns:xlink="http://www.w3.org/1999/xlink"
       viewBox="0 0 21.365 21.006">
       <g>
              <rect height="21.006" opacity="0" width="21.365" x="0" y="0" />
              <path d="M10.4981 20.9962C16.302 20.9962 21.0037 16.2946 21.0037 10.4981C21.0037 4.70163 16.302 0 10.4981 0C4.70163 0 0 4.70163 0 10.4981C0 16.2946 4.70163 20.9962 10.4981 20.9962ZM10.4981 17.9484C6.37829 17.9484 3.04785 14.6179 3.04785 10.4981C3.04785 6.37829 6.37829 3.04785 10.4981 3.04785C14.6179 3.04785 17.9558 6.37829 17.9558 10.4981C17.9558 14.6179 14.6179 17.9484 10.4981 17.9484Z"
                     fill="currentColor" fill-opacity="0.85" />
              <path d="M8.4415 16.4513L12.5599 16.4513C13.5318 16.4513 14.2286 15.7839 14.2286 14.8487L14.2286 6.14525C14.2286 5.20259 13.5318 4.5449 12.5599 4.5449L8.4415 4.5449C7.47186 4.5449 6.76764 5.20259 6.76764 6.14525L6.76764 14.8487C6.76764 15.7839 7.47186 16.4513 8.4415 16.4513ZM8.61322 14.9273C8.29423 14.9273 8.11032 14.748 8.11032 14.4359L8.11032 6.55055C8.11032 6.24594 8.29423 6.06664 8.61322 6.06664L12.3979 6.06664C12.7094 6.06664 12.8934 6.2534 12.8934 6.56547L12.8934 14.4284C12.8934 14.7405 12.7094 14.9273 12.3979 14.9273ZM9.34455 14.485L11.6591 14.485C11.8251 14.485 11.9573 14.3701 11.9573 14.2041C11.9573 14.0134 11.8251 13.8962 11.6591 13.8962L9.34455 13.8962C9.17854 13.8962 9.04643 14.0134 9.04643 14.2041C9.04643 14.3701 9.17854 14.485 9.34455 14.485ZM9.85236 7.36777L11.1565 7.36777C11.4207 7.36777 11.6137 7.18223 11.6137 6.92547C11.6137 6.66356 11.4132 6.47055 11.1565 6.47055L9.85236 6.47055C9.59561 6.47055 9.39514 6.66356 9.39514 6.92547C9.39514 7.18223 9.58815 7.36777 9.85236 7.36777Z"
                     fill="currentColor" fill-opacity="0.85" />
       </g>
</svg>