<?xml version="1.0" encoding="UTF-8"?>
<!--Generator: Apple Native CoreSVG 326-->
<!DOCTYPE svg PUBLIC "-//W3C//DTD SVG 1.1//EN" "http://www.w3.org/Graphics/SVG/1.1/DTD/svg11.dtd">
<svg version="1.1" xmlns="http://www.w3.org/2000/svg" xmlns:xlink="http://www.w3.org/1999/xlink"
       viewBox="0 0 31.1833 23.6329">
       <g>
              <rect height="23.6329" opacity="0" width="31.1833" x="0" y="0" />
              <path d="M11.5091 20.3977C11.5091 22.3091 12.8346 23.5858 14.8144 23.5858L23.9084 23.5858C25.7837 23.5858 27.0347 22.3091 27.0347 20.3902L27.0347 3.19561C27.0347 1.27675 25.7837 0 23.9084 0L14.8144 0C12.8346 0 11.5091 1.27675 11.5091 3.18814ZM14.5287 18.7384L14.5287 4.84745L24.0151 4.84745L24.0151 18.7384ZM19.2828 22.1415C18.6723 22.1415 18.1795 21.6488 18.1795 21.0308C18.1795 20.4301 18.6723 19.9447 19.2828 19.9447C19.8835 19.9447 20.3763 20.4301 20.3763 21.0308C20.3763 21.6488 19.8835 22.1415 19.2828 22.1415ZM16.8729 2.49982C16.8729 2.1633 17.1113 1.93475 17.438 1.93475L21.1006 1.93475C21.4274 1.93475 21.6731 2.1633 21.6731 2.49982C21.6731 2.8438 21.4274 3.05513 21.1006 3.05513L17.438 3.05513C17.1113 3.05513 16.8729 2.8438 16.8729 2.49982Z"
                     fill="currentColor" fill-opacity="0.85" />
              <path d="M0 7.68676C0 8.40511 0.565618 8.96843 1.28397 8.96843L4.74882 8.96843L4.74882 10.6613C4.74882 11.6152 5.73721 12.0172 6.44592 11.3895L9.85692 8.40523C10.3175 8.0009 10.325 7.38524 9.85692 6.98091L6.44592 3.9794C5.72921 3.34136 4.74882 3.73933 4.74882 4.73979L4.74882 6.40279L1.28397 6.40279C0.565618 6.40279 0 6.97587 0 7.68676Z"
                     fill="currentColor" fill-opacity="0.85" />
       </g>
</svg>