<?xml version="1.0" encoding="UTF-8"?>
<!--Generator: Apple Native CoreSVG 326-->
<!DOCTYPE svg PUBLIC "-//W3C//DTD SVG 1.1//EN" "http://www.w3.org/Graphics/SVG/1.1/DTD/svg11.dtd">
<svg version="1.1" xmlns="http://www.w3.org/2000/svg" xmlns:xlink="http://www.w3.org/1999/xlink"
       viewBox="0 0 23.942 15.5733">
       <g>
              <rect height="15.5733" opacity="0" width="23.942" x="0" y="0" />
              <path d="M18.7384 12.5536L4.83999 12.5536L4.83999 3.06726L18.7384 3.06726ZM22.1341 7.80183C22.1341 8.41233 21.6436 8.9051 21.0308 8.9051C20.4301 8.9051 19.9373 8.41233 19.9373 7.80183C19.9373 7.19132 20.4301 6.70832 21.0308 6.70832C21.6436 6.70832 22.1341 7.19132 22.1341 7.80183ZM2.49982 10.2094C2.1633 10.2094 1.93705 9.96592 1.93705 9.63916L1.93705 5.97426C1.93705 5.64751 2.1633 5.41149 2.49982 5.41149C2.83634 5.41149 3.05743 5.64751 3.05743 5.97426L3.05743 9.63916C3.05743 9.96592 2.83634 10.2094 2.49982 10.2094Z"
                     fill="currentColor" fill-opacity="0.2125" />
              <path d="M20.3977 15.5733C22.3016 15.5733 23.5807 14.2402 23.5807 12.2679L23.5807 3.17389C23.5807 1.29859 22.3016 0.0476152 20.3902 0.0476152L3.18814 0.0476152C1.27675 0.0476152 0 1.29859 0 3.17389L0 12.2679C0 14.2402 1.27675 15.5733 3.18068 15.5733ZM18.7384 12.5536L4.83999 12.5536L4.83999 3.06726L18.7384 3.06726ZM22.1341 7.80183C22.1341 8.41233 21.6436 8.9051 21.0308 8.9051C20.4301 8.9051 19.9373 8.41233 19.9373 7.80183C19.9373 7.19132 20.4301 6.70832 21.0308 6.70832C21.6436 6.70832 22.1341 7.19132 22.1341 7.80183ZM2.49982 10.2094C2.1633 10.2094 1.93705 9.96592 1.93705 9.63916L1.93705 5.97426C1.93705 5.64751 2.1633 5.41149 2.49982 5.41149C2.83634 5.41149 3.05743 5.64751 3.05743 5.97426L3.05743 9.63916C3.05743 9.96592 2.83634 10.2094 2.49982 10.2094Z"
                     fill="currentColor" fill-opacity="0.85" />
       </g>
</svg>