<?xml version="1.0" encoding="UTF-8"?>
<!--Generator: Apple Native CoreSVG 326-->
<!DOCTYPE svg PUBLIC "-//W3C//DTD SVG 1.1//EN" "http://www.w3.org/Graphics/SVG/1.1/DTD/svg11.dtd">
<svg version="1.1" xmlns="http://www.w3.org/2000/svg" xmlns:xlink="http://www.w3.org/1999/xlink"
       viewBox="0 0 21.365 21.006">
       <g>
              <rect height="21.006" opacity="0" width="21.365" x="0" y="0" />
              <path d="M21.0037 10.5079C21.0037 16.3043 16.302 21.006 10.4981 21.006C4.70394 21.006 0 16.3043 0 10.5079C0 4.7137 4.70394 0.00976562 10.4981 0.00976562C16.302 0.00976562 21.0037 4.7137 21.0037 10.5079ZM6.52593 15.1467C6.52593 16.1485 7.27206 16.8578 8.3083 16.8578L12.6977 16.8578C13.4201 16.8578 14.001 16.5146 14.2869 15.968C13.9966 15.9224 13.718 15.7861 13.4935 15.5617L12.958 15.0263C12.8708 15.1525 12.7233 15.2224 12.5283 15.2224L8.48748 15.2224C8.15127 15.2224 7.95759 15.0311 7.95759 14.7018L7.95759 10.0274L6.52593 8.59611ZM5.99688 6.02157C5.7465 6.27942 5.74134 6.7216 5.99688 6.97945L14.0438 15.0091C14.2918 15.2595 14.7363 15.2595 15.0016 15.0091C15.252 14.7415 15.2595 14.3188 15.0016 14.0512L6.97199 6.02157C6.70668 5.75396 6.2645 5.76142 5.99688 6.02157ZM9.27049 14.1224C9.09701 14.1224 8.95514 14.2545 8.95514 14.4475C8.95514 14.6285 9.09701 14.7531 9.27049 14.7531L11.7378 14.7531C11.9113 14.7531 12.0531 14.6285 12.0531 14.4475C12.0531 14.2545 11.9113 14.1224 11.7378 14.1224ZM8.3083 4.15791C7.58172 4.15791 6.99776 4.50554 6.71488 5.06026C7.00606 5.10664 7.287 5.24413 7.51711 5.4713L8.04233 5.99652C8.12925 5.86504 8.28166 5.79332 8.48748 5.79332L12.5283 5.79332C12.857 5.79332 13.0507 5.99215 13.0507 6.32146L13.0507 11.0049L14.4824 12.4366L14.4824 5.86908C14.4824 4.86498 13.7362 4.15791 12.6977 4.15791ZM9.81276 6.22192C9.53877 6.22192 9.32108 6.43215 9.32108 6.71129C9.32108 6.97782 9.53131 7.18574 9.81276 7.18574L11.2007 7.18574C11.4821 7.18574 11.6924 6.97782 11.6924 6.71129C11.6924 6.43215 11.4747 6.22192 11.2007 6.22192Z"
                     fill="currentColor" fill-opacity="0.85" />
       </g>
</svg>