<?xml version="1.0" encoding="UTF-8"?>
<!--Generator: Apple Native CoreSVG 326-->
<!DOCTYPE svg PUBLIC "-//W3C//DTD SVG 1.1//EN" "http://www.w3.org/Graphics/SVG/1.1/DTD/svg11.dtd">
<svg version="1.1" xmlns="http://www.w3.org/2000/svg" xmlns:xlink="http://www.w3.org/1999/xlink"
       viewBox="0 0 21.365 21.006">
       <g>
              <rect height="21.006" opacity="0" width="21.365" x="0" y="0" />
              <path d="M21.0037 10.4981C21.0037 16.2946 16.302 20.9962 10.4981 20.9962C4.70163 20.9962 0 16.2946 0 10.4981C0 4.70163 4.70163 0 10.4981 0C16.302 0 21.0037 4.70163 21.0037 10.4981ZM3.04785 10.4981C3.04785 14.6179 6.37829 17.9484 10.4981 17.9484C14.6179 17.9484 17.9558 14.6179 17.9558 10.4981C17.9558 6.37829 14.6179 3.04785 10.4981 3.04785C6.37829 3.04785 3.04785 6.37829 3.04785 10.4981Z"
                     fill="currentColor" fill-opacity="0.85" />
              <path d="M8.11032 10.0379L8.11032 14.4359C8.11032 14.748 8.29423 14.9273 8.61322 14.9273L12.3979 14.9273C12.5856 14.9273 12.727 14.8595 12.8093 14.7369L13.3017 15.2292C13.5126 15.4392 13.7761 15.5662 14.0502 15.6077C13.7849 16.1248 13.2397 16.4513 12.5599 16.4513L8.4415 16.4513C7.47186 16.4513 6.76764 15.7839 6.76764 14.8487L6.76764 8.69517ZM11.9573 14.2041C11.9573 14.3701 11.8251 14.485 11.6591 14.485L9.34455 14.485C9.17854 14.485 9.04643 14.3701 9.04643 14.2041C9.04643 14.0134 9.17854 13.8962 9.34455 13.8962L11.6591 13.8962C11.8251 13.8962 11.9573 14.0134 11.9573 14.2041ZM14.2286 6.14525L14.2286 12.3042L12.8934 10.9694L12.8934 6.56547C12.8934 6.2534 12.7094 6.06664 12.3979 6.06664L8.61322 6.06664C8.41409 6.06664 8.26761 6.13651 8.18566 6.26314L7.7089 5.78653C7.4913 5.56799 7.22094 5.43773 6.94092 5.3973C7.20525 4.87237 7.7573 4.5449 8.4415 4.5449L12.5599 4.5449C13.5318 4.5449 14.2286 5.20259 14.2286 6.14525ZM11.6137 6.92547C11.6137 7.18223 11.4207 7.36777 11.1565 7.36777L9.85236 7.36777C9.58815 7.36777 9.39514 7.18223 9.39514 6.92547C9.39514 6.66356 9.59561 6.47055 9.85236 6.47055L11.1565 6.47055C11.4132 6.47055 11.6137 6.66356 11.6137 6.92547Z"
                     fill="currentColor" fill-opacity="0.85" />
              <path d="M13.8198 14.7013C14.0604 14.9345 14.4653 14.9443 14.7059 14.7013C14.9563 14.4584 14.9563 14.0581 14.7059 13.8077L7.20054 6.30004C6.94785 6.04966 6.54012 6.04966 6.29719 6.30004C6.0468 6.54297 6.0468 6.94555 6.29719 7.18617Z"
                     fill="currentColor" fill-opacity="0.85" />
       </g>
</svg>