<?xml version="1.0" encoding="UTF-8"?>
<!--Generator: Apple Native CoreSVG 326-->
<!DOCTYPE svg PUBLIC "-//W3C//DTD SVG 1.1//EN" "http://www.w3.org/Graphics/SVG/1.1/DTD/svg11.dtd">
<svg version="1.1" xmlns="http://www.w3.org/2000/svg" xmlns:xlink="http://www.w3.org/1999/xlink"
       viewBox="0 0 23.2354 23.6329">
       <g>
              <rect height="23.6329" opacity="0" width="23.2354" x="0" y="0" />
              <path d="M6.69758 10.3282L6.69758 18.7384L15.1225 18.7384L18.6754 22.285C18.1437 23.1036 17.2298 23.5858 16.0773 23.5858L6.98327 23.5858C5.00352 23.5858 3.67048 22.3091 3.67048 20.3977L3.67048 7.30638ZM10.3484 21.0308C10.3484 21.6488 10.8337 22.1415 11.4517 22.1415C12.0524 22.1415 12.5452 21.6488 12.5452 21.0308C12.5452 20.4301 12.0524 19.9447 11.4517 19.9447C10.8337 19.9447 10.3484 20.4301 10.3484 21.0308ZM19.1961 3.19561L19.1961 16.4382L16.1765 13.4202L16.1765 4.84745L7.59917 4.84745L4.15653 1.40665C4.7109 0.52462 5.71422 0 6.98327 0L16.0773 0C17.9526 0 19.1961 1.27675 19.1961 3.19561ZM9.60689 1.93475C9.28014 1.93475 9.04182 2.1633 9.04182 2.49982C9.04182 2.8438 9.28014 3.05513 9.60689 3.05513L13.2695 3.05513C13.5985 3.05513 13.8346 2.8438 13.8346 2.49982C13.8346 2.1633 13.5985 1.93475 13.2695 1.93475Z"
                     fill="currentColor" fill-opacity="0.85" />
              <path d="M19.9704 21.6152C20.3081 21.9477 20.8636 21.9529 21.1841 21.6152C21.5143 21.2797 21.5218 20.7415 21.1841 20.4015L2.86867 2.09585C2.53094 1.75812 1.97551 1.75581 1.64524 2.09585C1.31727 2.41636 1.31727 2.98155 1.64524 3.30952Z"
                     fill="currentColor" fill-opacity="0.85" />
       </g>
</svg>