<?xml version="1.0" encoding="UTF-8"?>
<!--Generator: Apple Native CoreSVG 326-->
<!DOCTYPE svg PUBLIC "-//W3C//DTD SVG 1.1//EN" "http://www.w3.org/Graphics/SVG/1.1/DTD/svg11.dtd">
<svg version="1.1" xmlns="http://www.w3.org/2000/svg" xmlns:xlink="http://www.w3.org/1999/xlink"
       viewBox="0 0 28.3496 23.6329">
       <g>
              <rect height="23.6329" opacity="0" width="28.3496" x="0" y="0" />
              <path d="M21.7532 3.19561L21.7532 8.61989L18.7336 8.61989L18.7336 4.24035C18.7336 3.62323 18.3492 3.25093 17.7303 3.25093L10.2677 3.25093C9.63904 3.25093 9.25466 3.60831 9.25466 4.23289L9.25466 19.3506C9.25466 19.9752 9.63904 20.3326 10.2677 20.3326L17.7303 20.3326C18.3492 20.3326 18.7336 19.9603 18.7336 19.3432L18.7336 14.9911L21.7532 14.9911L21.7532 20.3879C21.7532 22.2993 20.5097 23.5835 18.6344 23.5835L9.54035 23.5835C7.5606 23.5835 6.22756 22.2993 6.22756 20.3954L6.22756 3.18814C6.22756 1.27675 7.5606 0 9.54035 0L18.6344 0C20.5097 0 21.7532 1.27675 21.7532 3.19561Z"
                     fill="currentColor" fill-opacity="0.85" />
              <path d="M14.6005 11.8093C14.6005 12.55 15.2057 13.1179 15.8994 13.1179L23.7762 13.1179L25.1962 13.0071L24.4312 13.4145L23.3347 14.4409C23.1038 14.6523 22.966 14.9566 22.966 15.2839C22.966 15.8582 23.4082 16.4049 24.0473 16.4049C24.3718 16.4049 24.6027 16.282 24.8237 16.0609L27.8844 12.8755C28.2215 12.5235 28.3496 12.1687 28.3496 11.8093C28.3496 11.4475 28.2215 11.0875 27.8844 10.743L24.8237 7.55017C24.6027 7.32907 24.3718 7.21364 24.0473 7.21364C23.4082 7.21364 22.966 7.75512 22.966 8.32941C22.966 8.65671 23.1038 8.95878 23.3347 9.17757L24.4312 10.204L25.1939 10.6114L23.7762 10.4908L15.8994 10.4908C15.2057 10.4908 14.6005 11.0685 14.6005 11.8093Z"
                     fill="currentColor" fill-opacity="0.85" />
       </g>
</svg>