<?xml version="1.0" encoding="UTF-8"?>
<!--Generator: Apple Native CoreSVG 326-->
<!DOCTYPE svg PUBLIC "-//W3C//DTD SVG 1.1//EN" "http://www.w3.org/Graphics/SVG/1.1/DTD/svg11.dtd">
<svg version="1.1" xmlns="http://www.w3.org/2000/svg" xmlns:xlink="http://www.w3.org/1999/xlink"
       viewBox="0 0 25.263 23.6329">
       <g>
              <rect height="23.6329" opacity="0" width="25.263" x="0" y="0" />
              <path d="M2.33763 5.48865L2.33763 18.0949C2.33763 19.5125 2.97507 20.6542 3.99341 21.2214L3.30533 21.2214C1.32558 21.2214 0 19.9424 0 18.0384L0 5.54506C0 3.64112 1.32558 2.36207 3.30533 2.36207L3.99341 2.36207C2.97507 2.92927 2.33763 4.07103 2.33763 5.48865Z"
                     fill="currentColor" fill-opacity="0.85" />
              <path d="M7.00548 4.02678L7.00548 19.5567C7.00548 20.9744 7.64292 22.1161 8.66126 22.6833L7.98064 22.6833C6.00089 22.6833 4.67531 21.4043 4.67531 19.5003L4.67531 4.08319C4.67531 2.17925 6.00089 0.900196 7.98064 0.900196L8.66126 0.900196C7.64292 1.4674 7.00548 2.60915 7.00548 4.02678Z"
                     fill="currentColor" fill-opacity="0.85" />
              <path d="M12.6813 23.5835L21.7754 23.5835C23.6507 23.5835 24.9016 22.2993 24.9016 20.3879L24.9016 3.19561C24.9016 1.27675 23.6507 0 21.7754 0L12.6813 0C10.709 0 9.37598 1.27675 9.37598 3.18814L9.37598 20.3954C9.37598 22.2993 10.709 23.5835 12.6813 23.5835ZM13.4063 20.3326C12.7875 20.3326 12.3956 19.9752 12.3956 19.3506L12.3956 4.23289C12.3956 3.60831 12.7875 3.25093 13.4063 3.25093L20.8764 3.25093C21.4901 3.25093 21.882 3.62323 21.882 4.24035L21.882 19.3432C21.882 19.9603 21.4901 20.3326 20.8764 20.3326Z"
                     fill="currentColor" fill-opacity="0.85" />
       </g>
</svg>