<?xml version="1.0" encoding="UTF-8"?>
<!--Generator: Apple Native CoreSVG 326-->
<!DOCTYPE svg PUBLIC "-//W3C//DTD SVG 1.1//EN" "http://www.w3.org/Graphics/SVG/1.1/DTD/svg11.dtd">
<svg version="1.1" xmlns="http://www.w3.org/2000/svg" xmlns:xlink="http://www.w3.org/1999/xlink"
       viewBox="0 0 21.365 21.006">
       <g>
              <rect height="21.006" opacity="0" width="21.365" x="0" y="0" />
              <path d="M13.9835 17.9564L16.0882 17.9564L16.0882 8.67497C16.0882 7.29856 15.1788 6.38345 13.8259 6.38345L7.2851 6.38345C5.87248 6.38345 4.91314 7.29856 4.91314 8.67497L4.91314 17.9564L7.01785 17.9564L7.01785 9.36961C7.01785 8.90061 7.30578 8.62991 7.77653 8.62991L8.77451 8.62991C8.8963 8.62991 8.95951 8.70057 8.95951 8.80745L8.95951 9.05729C8.95951 9.406 9.18127 9.63752 9.52767 9.63752L11.4662 9.63752C11.8126 9.63752 12.0344 9.406 12.0344 9.05729L12.0344 8.80745C12.0344 8.70057 12.1051 8.62991 12.2269 8.62991L13.2151 8.62991C13.6858 8.62991 13.9835 8.91553 13.9835 9.37707ZM10.4981 20.9962C16.302 20.9962 21.0037 16.2946 21.0037 10.4981C21.0037 4.70163 16.302 0 10.4981 0C4.70163 0 0 4.70163 0 10.4981C0 16.2946 4.70163 20.9962 10.4981 20.9962ZM10.4981 17.9484C6.37829 17.9484 3.04785 14.6179 3.04785 10.4981C3.04785 6.37829 6.37829 3.04785 10.4981 3.04785C14.6179 3.04785 17.9558 6.37829 17.9558 10.4981C17.9558 14.6179 14.6179 17.9484 10.4981 17.9484Z"
                     fill="currentColor" fill-opacity="0.85" />
       </g>
</svg>