<?xml version="1.0" encoding="UTF-8"?>
<!--Generator: Apple Native CoreSVG 326-->
<!DOCTYPE svg PUBLIC "-//W3C//DTD SVG 1.1//EN" "http://www.w3.org/Graphics/SVG/1.1/DTD/svg11.dtd">
<svg version="1.1" xmlns="http://www.w3.org/2000/svg" xmlns:xlink="http://www.w3.org/1999/xlink"
       viewBox="0 0 21.365 21.006">
       <g>
              <rect height="21.006" opacity="0" width="21.365" x="0" y="0" />
              <path d="M21.0037 10.5079C21.0037 16.3043 16.302 21.006 10.4981 21.006C4.70394 21.006 0 16.3043 0 10.5079C0 4.7137 4.70394 0.00976562 10.4981 0.00976562C16.302 0.00976562 21.0037 4.7137 21.0037 10.5079ZM8.306 4.16768C7.25999 4.16768 6.52362 4.86729 6.52362 5.86678L6.52362 15.1513C6.52362 16.1485 7.25999 16.8578 8.306 16.8578L12.6977 16.8578C13.7362 16.8578 14.4801 16.1485 14.4801 15.1513L14.4801 5.86678C14.4801 4.86729 13.7362 4.16768 12.6977 4.16768ZM11.0134 15.5609C11.0134 15.8516 10.7888 16.0785 10.5153 16.0785C10.2247 16.0785 9.9903 15.8516 9.9903 15.5609C9.9903 15.28 10.2247 15.0508 10.5153 15.0508C10.7888 15.0508 11.0134 15.28 11.0134 15.5609ZM13.0461 14.4564L7.95759 14.4564L7.95759 6.56165L13.0461 6.56165ZM11.7474 5.41119C11.7474 5.54045 11.6572 5.64041 11.5131 5.64041L9.49292 5.64041C9.3562 5.64041 9.25624 5.54045 9.25624 5.41119C9.25624 5.25494 9.3562 5.17451 9.49292 5.17451L11.5131 5.17451C11.6572 5.17451 11.7474 5.25494 11.7474 5.41119Z"
                     fill="currentColor" fill-opacity="0.85" />
       </g>
</svg>