<?xml version="1.0" encoding="UTF-8"?>
<!--Generator: Apple Native CoreSVG 326-->
<!DOCTYPE svg PUBLIC "-//W3C//DTD SVG 1.1//EN" "http://www.w3.org/Graphics/SVG/1.1/DTD/svg11.dtd">
<svg version="1.1" xmlns="http://www.w3.org/2000/svg" xmlns:xlink="http://www.w3.org/1999/xlink"
       viewBox="0 0 38.9051 23.6329">
       <g>
              <rect height="23.6329" opacity="0" width="38.9051" x="0" y="0" />
              <path d="M14.8144 23.5835L23.9084 23.5835C25.7837 23.5835 27.0347 22.2993 27.0347 20.3879L27.0347 3.19561C27.0347 1.27675 25.7837 0 23.9084 0L14.8144 0C12.8421 0 11.5091 1.27675 11.5091 3.18814L11.5091 20.3954C11.5091 22.2993 12.8421 23.5835 14.8144 23.5835ZM15.5394 20.3326C14.9205 20.3326 14.5287 19.9752 14.5287 19.3506L14.5287 4.23289C14.5287 3.60831 14.9205 3.25093 15.5394 3.25093L23.0095 3.25093C23.6232 3.25093 24.0151 3.62323 24.0151 4.24035L24.0151 19.3432C24.0151 19.9603 23.6232 20.3326 23.0095 20.3326ZM17.061 19.4183L21.4851 19.4183C21.8383 19.4183 22.1008 19.1805 22.1008 18.8101C22.1008 18.4322 21.8383 18.1892 21.4851 18.1892L17.061 18.1892C16.7078 18.1892 16.4528 18.4322 16.4528 18.8101C16.4528 19.1805 16.7078 19.4183 17.061 19.4183ZM17.8974 5.97032L20.6487 5.97032C21.1937 5.97032 21.5934 5.5706 21.5934 5.0233C21.5934 4.4783 21.1862 4.07112 20.6487 4.07112L17.8974 4.07112C17.3576 4.07112 16.9504 4.4783 16.9504 5.0233C16.9504 5.5706 17.3501 5.97032 17.8974 5.97032Z"
                     fill="currentColor" fill-opacity="0.85" />
              <path d="M38.5438 7.68676C38.5438 6.97587 37.9782 6.40279 37.2598 6.40279L33.795 6.40279L33.795 4.73979C33.795 3.73933 32.8146 3.34136 32.0904 3.9794L28.6869 6.98091C28.2188 7.38524 28.2188 8.0009 28.6869 8.40523L32.0904 11.3895C32.8066 12.0172 33.795 11.6152 33.795 10.6613L33.795 8.96843L37.2598 8.96843C37.9782 8.96843 38.5438 8.40511 38.5438 7.68676Z"
                     fill="currentColor" fill-opacity="0.85" />
              <path d="M0 7.68676C0 8.40511 0.563313 8.96843 1.28166 8.96843L4.74882 8.96843L4.74882 10.6613C4.74882 11.6152 5.73721 12.0172 6.45338 11.3895L9.86438 8.40523C10.3227 8.0009 10.325 7.38524 9.86438 6.98091L6.45338 3.9794C5.72921 3.34136 4.74882 3.73933 4.74882 4.73979L4.74882 6.40279L1.28166 6.40279C0.563313 6.40279 0 6.97587 0 7.68676Z"
                     fill="currentColor" fill-opacity="0.85" />
       </g>
</svg>