<?xml version="1.0" encoding="UTF-8"?>
<!--Generator: Apple Native CoreSVG 326-->
<!DOCTYPE svg PUBLIC "-//W3C//DTD SVG 1.1//EN" "http://www.w3.org/Graphics/SVG/1.1/DTD/svg11.dtd">
<svg version="1.1" xmlns="http://www.w3.org/2000/svg" xmlns:xlink="http://www.w3.org/1999/xlink"
       viewBox="0 0 21.365 21.006">
       <g>
              <rect height="21.006" opacity="0" width="21.365" x="0" y="0" />
              <path d="M21.0037 10.5079C21.0037 16.3043 16.302 21.006 10.4981 21.006C4.70394 21.006 0 16.3043 0 10.5079C0 4.7137 4.70394 0.00976562 10.4981 0.00976562C16.302 0.00976562 21.0037 4.7137 21.0037 10.5079ZM8.64252 4.97744C7.72916 4.97744 7.07893 5.59607 7.07893 6.46751L7.07893 14.5557C7.07893 15.4248 7.72916 16.0383 8.64252 16.0383L12.4478 16.0383C13.3612 16.0383 14.0189 15.4248 14.0189 14.5557L14.0189 6.46751C14.0189 5.59607 13.3612 4.97744 12.4478 4.97744ZM12.7698 6.85329L12.7698 14.1602C12.7698 14.4406 12.5905 14.6176 12.3031 14.6176L8.80217 14.6176C8.49986 14.6176 8.33548 14.4556 8.33548 14.1751L8.33548 6.84583C8.33548 6.56535 8.49986 6.39813 8.80217 6.39813L12.3031 6.39813C12.5905 6.39813 12.7698 6.57281 12.7698 6.85329ZM9.47205 13.66C9.32096 13.66 9.19861 13.7824 9.19861 13.9409C9.19861 14.1047 9.32096 14.2069 9.47205 14.2069L11.6304 14.2069C11.7792 14.2069 11.8917 14.1047 11.8917 13.9409C11.8917 13.7824 11.7792 13.66 11.6304 13.66ZM4.41091 7.96954C3.79786 8.65095 3.452 9.55127 3.452 10.5079C3.452 11.4668 3.79786 12.3671 4.41091 13.0537C4.62114 13.2564 4.91982 13.2564 5.07146 13.056C5.2231 12.8848 5.19895 12.6476 5.01286 12.415C4.55145 11.9076 4.29864 11.2244 4.29864 10.5079C4.29864 9.79135 4.55145 9.10818 5.01286 8.60079C5.19895 8.37563 5.2231 8.13325 5.07146 7.95978C4.91982 7.75931 4.62114 7.75931 4.41091 7.96954ZM15.9971 7.95978C15.8454 8.13325 15.8696 8.37563 16.058 8.60079C16.5171 9.10818 16.7722 9.79135 16.7722 10.5079C16.7722 11.2244 16.5171 11.9076 16.058 12.415C15.8696 12.6476 15.8454 12.8848 15.9971 13.056C16.151 13.2564 16.4497 13.2564 16.6576 13.0537C17.2707 12.3671 17.6188 11.4668 17.6188 10.5079C17.6188 9.55127 17.2707 8.65095 16.6576 7.96954C16.4497 7.75931 16.151 7.75931 15.9971 7.95978ZM5.68978 9.03533C5.36861 9.44439 5.19107 9.96779 5.19107 10.5079C5.19107 11.0503 5.36861 11.5714 5.68978 11.9902C5.86556 12.2326 6.19123 12.2475 6.3624 12.0321C6.50658 11.8586 6.48759 11.6409 6.32388 11.3985C6.14689 11.1733 6.04978 10.8676 6.04978 10.5079C6.04978 10.1482 6.14689 9.84017 6.32388 9.6172C6.48759 9.38228 6.50658 9.16459 6.3624 8.99111C6.19123 8.76826 5.86556 8.78549 5.68978 9.03533ZM14.7061 8.99111C14.5619 9.16459 14.5809 9.38228 14.7446 9.6172C14.9216 9.84017 15.021 10.1482 15.021 10.5079C15.021 10.8676 14.9216 11.1733 14.7446 11.3985C14.5809 11.6409 14.5619 11.8586 14.7061 12.0321C14.8773 12.2475 15.2053 12.2326 15.3787 11.9902C15.6999 11.5714 15.8798 11.0503 15.8798 10.5079C15.8798 9.96779 15.6999 9.44439 15.3787 9.03533C15.2053 8.78549 14.8773 8.76826 14.7061 8.99111ZM9.92357 6.80543C9.6915 6.80543 9.51287 6.98121 9.51287 7.2259C9.51287 7.47059 9.6915 7.64637 9.92357 7.64637L11.1547 7.64637C11.3868 7.64637 11.5677 7.47059 11.5677 7.2259C11.5677 6.98121 11.3868 6.80543 11.1547 6.80543Z"
                     fill="currentColor" fill-opacity="0.85" />
       </g>
</svg>