<?xml version="1.0" encoding="UTF-8"?>
<!--Generator: Apple Native CoreSVG 326-->
<!DOCTYPE svg PUBLIC "-//W3C//DTD SVG 1.1//EN" "http://www.w3.org/Graphics/SVG/1.1/DTD/svg11.dtd">
<svg version="1.1" xmlns="http://www.w3.org/2000/svg" xmlns:xlink="http://www.w3.org/1999/xlink"
       viewBox="0 0 15.887 23.6329">
       <g>
              <rect height="23.6329" opacity="0" width="15.887" x="0" y="0" />
              <path d="M4.03266 20.3326C3.41148 20.3326 3.01964 19.9752 3.01964 19.3506L3.01964 4.23289C3.01964 3.60831 3.41148 3.25093 4.03266 3.25093L11.5028 3.25093C12.1142 3.25093 12.506 3.62323 12.506 4.24035L12.506 19.3432C12.506 19.9603 12.1142 20.3326 11.5028 20.3326Z"
                     fill="currentColor" fill-opacity="0.2125" />
              <path d="M3.30533 23.5835L12.3994 23.5835C14.2747 23.5835 15.5257 22.2993 15.5257 20.3879L15.5257 3.19561C15.5257 1.27675 14.2747 0 12.3994 0L3.30533 0C1.32558 0 0 1.27675 0 3.18814L0 20.3954C0 22.2993 1.32558 23.5835 3.30533 23.5835ZM4.03266 20.3326C3.41148 20.3326 3.01964 19.9752 3.01964 19.3506L3.01964 4.23289C3.01964 3.60831 3.41148 3.25093 4.03266 3.25093L11.5028 3.25093C12.1142 3.25093 12.506 3.62323 12.506 4.24035L12.506 19.3432C12.506 19.9603 12.1142 20.3326 11.5028 20.3326ZM5.55191 19.4183L9.97835 19.4183C10.3316 19.4183 10.5842 19.1805 10.5842 18.8101C10.5842 18.4322 10.3316 18.1892 9.97835 18.1892L5.55191 18.1892C5.19871 18.1892 4.93625 18.4322 4.93625 18.8101C4.93625 19.1805 5.19871 19.4183 5.55191 19.4183ZM6.38836 5.97032L9.1396 5.97032C9.68459 5.97032 10.0843 5.5706 10.0843 5.0233C10.0843 4.4783 9.67713 4.07112 9.1396 4.07112L6.38836 4.07112C5.84852 4.07112 5.44134 4.4783 5.44134 5.0233C5.44134 5.5706 5.84106 5.97032 6.38836 5.97032Z"
                     fill="currentColor" fill-opacity="0.85" />
       </g>
</svg>