<?xml version="1.0" encoding="UTF-8"?>
<!--Generator: Apple Native CoreSVG 326-->
<!DOCTYPE svg PUBLIC "-//W3C//DTD SVG 1.1//EN" "http://www.w3.org/Graphics/SVG/1.1/DTD/svg11.dtd">
<svg version="1.1" xmlns="http://www.w3.org/2000/svg" xmlns:xlink="http://www.w3.org/1999/xlink"
       viewBox="0 0 21.365 21.006">
       <g>
              <rect height="21.006" opacity="0" width="21.365" x="0" y="0" />
              <path d="M21.0037 10.5079C21.0037 16.3043 16.302 21.006 10.4981 21.006C4.70394 21.006 0 16.3043 0 10.5079C0 4.7137 4.70394 0.00976562 10.4981 0.00976562C16.302 0.00976562 21.0037 4.7137 21.0037 10.5079ZM8.3083 4.15791C7.27206 4.15791 6.52593 4.86498 6.52593 5.86908L6.52593 15.1467C6.52593 16.1485 7.27206 16.8578 8.3083 16.8578L12.6977 16.8578C13.7362 16.8578 14.4824 16.1485 14.4824 15.1467L14.4824 5.86908C14.4824 4.86498 13.7362 4.15791 12.6977 4.15791ZM13.0507 6.32146L13.0507 14.6943C13.0507 15.0236 12.857 15.2224 12.5283 15.2224L8.48748 15.2224C8.15127 15.2224 7.95759 15.0311 7.95759 14.7018L7.95759 6.31399C7.95759 5.98469 8.15127 5.79332 8.48748 5.79332L12.5283 5.79332C12.857 5.79332 13.0507 5.99215 13.0507 6.32146ZM9.27049 14.1224C9.09701 14.1224 8.95514 14.2545 8.95514 14.4475C8.95514 14.6285 9.09701 14.7531 9.27049 14.7531L11.7378 14.7531C11.9113 14.7531 12.0531 14.6285 12.0531 14.4475C12.0531 14.2545 11.9113 14.1224 11.7378 14.1224ZM9.81276 6.22192C9.53877 6.22192 9.32108 6.43215 9.32108 6.71129C9.32108 6.97782 9.53131 7.18574 9.81276 7.18574L11.2007 7.18574C11.4821 7.18574 11.6924 6.97782 11.6924 6.71129C11.6924 6.43215 11.4747 6.22192 11.2007 6.22192Z"
                     fill="currentColor" fill-opacity="0.85" />
       </g>
</svg>