<?xml version="1.0" encoding="UTF-8"?>
<!--Generator: Apple Native CoreSVG 326-->
<!DOCTYPE svg PUBLIC "-//W3C//DTD SVG 1.1//EN" "http://www.w3.org/Graphics/SVG/1.1/DTD/svg11.dtd">
<svg version="1.1" xmlns="http://www.w3.org/2000/svg" xmlns:xlink="http://www.w3.org/1999/xlink"
       viewBox="0 0 23.942 22.8841">
       <g>
              <rect height="22.8841" opacity="0" width="23.942" x="0" y="0" />
              <path d="M4.83999 7.72815L4.83999 16.2039L13.3306 16.2039L16.3555 19.2235L3.18068 19.2235C1.27675 19.2235 0 17.8956 0 15.9159L0 6.82183C0 5.66212 0.488279 4.74117 1.31396 4.2083ZM23.5807 6.82183L23.5807 15.9159C23.5807 17.1648 23.0716 18.1543 22.217 18.7136L18.7384 15.2364L18.7384 6.72266L10.2212 6.72266L7.19283 3.69556L20.3902 3.69556C22.3016 3.69556 23.5807 4.94653 23.5807 6.82183ZM1.93705 9.62967L1.93705 13.2946C1.93705 13.6213 2.1633 13.8573 2.49982 13.8573C2.83634 13.8573 3.05743 13.6213 3.05743 13.2946L3.05743 9.62967C3.05743 9.30291 2.83634 9.0669 2.49982 9.0669C2.1633 9.0669 1.93705 9.30291 1.93705 9.62967ZM19.9373 11.4498C19.9373 12.0677 20.4301 12.553 21.0308 12.553C21.6436 12.553 22.1341 12.0677 22.1341 11.4498C22.1341 10.8467 21.6436 10.3563 21.0308 10.3563C20.4301 10.3563 19.9373 10.8467 19.9373 11.4498Z"
                     fill="currentColor" fill-opacity="0.85" />
              <path d="M20.3423 21.2408C20.6801 21.5733 21.2332 21.5785 21.556 21.2408C21.884 20.9053 21.8937 20.3671 21.556 20.0271L3.23831 1.72145C2.90057 1.38372 2.34745 1.38141 2.01487 1.72145C1.68691 2.04196 1.68691 2.60715 2.01487 2.93512Z"
                     fill="currentColor" fill-opacity="0.85" />
       </g>
</svg>