<?xml version="1.0" encoding="UTF-8"?>
<!--Generator: Apple Native CoreSVG 326-->
<!DOCTYPE svg PUBLIC "-//W3C//DTD SVG 1.1//EN" "http://www.w3.org/Graphics/SVG/1.1/DTD/svg11.dtd">
<svg version="1.1" xmlns="http://www.w3.org/2000/svg" xmlns:xlink="http://www.w3.org/1999/xlink"
       viewBox="0 0 21.365 21.006">
       <g>
              <rect height="21.006" opacity="0" width="21.365" x="0" y="0" />
              <path d="M21.0037 10.5079C21.0037 16.3043 16.302 21.006 10.4981 21.006C4.70394 21.006 0 16.3043 0 10.5079C0 4.7137 4.70394 0.00976562 10.4981 0.00976562C16.302 0.00976562 21.0037 4.7137 21.0037 10.5079ZM8.306 4.15791C7.26745 4.15791 6.52362 4.87244 6.52362 5.87654L6.52362 15.1392C6.52362 16.141 7.26745 16.8578 8.306 16.8578L12.6879 16.8578C13.7265 16.8578 14.4726 16.141 14.4726 15.1392L14.4726 5.87654C14.4726 4.87244 13.7265 4.15791 12.6879 4.15791ZM9.37955 5.92028L9.37955 6.08684C9.37955 6.35797 9.53811 6.50907 9.78971 6.50907L11.2042 6.50907C11.4558 6.50907 11.6167 6.35797 11.6167 6.08684L11.6167 5.92028C11.6167 5.83985 11.6632 5.80078 11.7362 5.80078L12.5185 5.80078C12.8398 5.80078 13.0409 5.99961 13.0409 6.32146L13.0409 14.6943C13.0409 15.0161 12.8398 15.215 12.5185 15.215L8.48518 15.215C8.15412 15.215 7.95529 15.0236 7.95529 14.7018L7.95529 6.31399C7.95529 5.99215 8.15412 5.80078 8.48518 5.80078L9.26006 5.80078C9.33303 5.80078 9.37955 5.83985 9.37955 5.92028ZM9.26819 14.1224C9.09471 14.1224 8.95284 14.2471 8.95284 14.4475C8.95284 14.6285 9.09471 14.7531 9.26819 14.7531L11.7355 14.7531C11.9015 14.7531 12.0508 14.6285 12.0508 14.4475C12.0508 14.2471 11.9015 14.1224 11.7355 14.1224Z"
                     fill="currentColor" fill-opacity="0.85" />
       </g>
</svg>