<?xml version="1.0" encoding="UTF-8"?>
<!--Generator: Apple Native CoreSVG 326-->
<!DOCTYPE svg PUBLIC "-//W3C//DTD SVG 1.1//EN" "http://www.w3.org/Graphics/SVG/1.1/DTD/svg11.dtd">
<svg version="1.1" xmlns="http://www.w3.org/2000/svg" xmlns:xlink="http://www.w3.org/1999/xlink"
       viewBox="0 0 21.365 21.006">
       <g>
              <rect height="21.006" opacity="0" width="21.365" x="0" y="0" />
              <path d="M21.0037 10.4981C21.0037 16.2946 16.302 20.9962 10.4981 20.9962C4.70163 20.9962 0 16.2946 0 10.4981C0 4.70163 4.70163 0 10.4981 0C16.302 0 21.0037 4.70163 21.0037 10.4981ZM3.04785 10.4981C3.04785 14.6179 6.37829 17.9484 10.4981 17.9484C14.6179 17.9484 17.9558 14.6179 17.9558 10.4981C17.9558 6.37829 14.6179 3.04785 10.4981 3.04785C6.37829 3.04785 3.04785 6.37829 3.04785 10.4981Z"
                     fill="currentColor" fill-opacity="0.85" />
              <path d="M8.11263 10.0402L8.11263 14.2055L12.2779 14.2055L13.3017 15.2292C13.5128 15.4394 13.7766 15.5665 14.051 15.6079C13.7866 16.1245 13.2423 16.4513 12.5622 16.4513L8.4415 16.4513C7.46955 16.4513 6.76764 15.7839 6.76764 14.851L6.76764 8.69517ZM10.0247 15.2382C10.0247 15.5042 10.2494 15.7213 10.5153 15.7213C10.7641 15.7213 10.9789 15.5042 10.9789 15.2382C10.9789 14.9722 10.7641 14.7551 10.5153 14.7551C10.2494 14.7551 10.0247 14.9722 10.0247 15.2382ZM14.2286 6.14525L14.2286 12.3042L12.891 10.9671L12.891 6.79075L8.71343 6.79075L7.7089 5.78653C7.49169 5.56839 7.22191 5.4382 6.94243 5.39753C7.20709 4.87555 7.75741 4.5449 8.4415 4.5449L12.5622 4.5449C13.5341 4.5449 14.2286 5.21236 14.2286 6.14525ZM9.55206 5.49489C9.4228 5.49489 9.3326 5.56786 9.3326 5.70689C9.3326 5.83615 9.4228 5.92634 9.55206 5.92634L11.4539 5.92634C11.5906 5.92634 11.6636 5.83615 11.6636 5.70689C11.6636 5.56786 11.5906 5.49489 11.4539 5.49489Z"
                     fill="currentColor" fill-opacity="0.85" />
              <path d="M13.8198 14.7013C14.0604 14.9345 14.4653 14.9443 14.7059 14.7013C14.9563 14.4584 14.9563 14.0581 14.7059 13.8077L7.20054 6.30004C6.94785 6.04966 6.54012 6.04966 6.29719 6.30004C6.0468 6.54297 6.0468 6.94555 6.29719 7.18617Z"
                     fill="currentColor" fill-opacity="0.85" />
       </g>
</svg>