<?xml version="1.0" encoding="UTF-8"?>
<!--Generator: Apple Native CoreSVG 326-->
<!DOCTYPE svg PUBLIC "-//W3C//DTD SVG 1.1//EN" "http://www.w3.org/Graphics/SVG/1.1/DTD/svg11.dtd">
<svg version="1.1" xmlns="http://www.w3.org/2000/svg" xmlns:xlink="http://www.w3.org/1999/xlink"
       viewBox="0 0 36.8068 23.6329">
       <g>
              <rect height="23.6329" opacity="0" width="36.8068" x="0" y="0" />
              <path d="M4.18733 18.4689C4.5819 17.983 4.46186 17.3823 4.02823 16.8998C2.87631 15.6313 2.23342 13.7993 2.23342 11.8116C2.23342 9.83132 2.86885 7.99186 4.02823 6.73076C4.46932 6.24831 4.59682 5.64757 4.18733 5.16171C3.75546 4.6414 2.99222 4.54672 2.36747 5.20308C0.888126 6.77437 0 9.25988 0 11.8116C0 14.3782 0.783676 16.7942 2.36747 18.4275C3.00715 19.0764 3.76292 18.9943 4.18733 18.4689ZM32.2582 18.4689C32.6826 18.9943 33.4384 19.0764 34.0803 18.4275C35.6716 16.7942 36.4455 14.3782 36.4455 11.8116C36.4455 9.25988 35.5671 6.77437 34.0803 5.20308C33.4607 4.54672 32.6975 4.6414 32.2582 5.16171C31.8561 5.64757 31.9762 6.24831 32.4173 6.73076C33.5841 7.99932 34.2121 9.83132 34.2121 11.8116C34.2121 13.7993 33.5692 15.6313 32.4173 16.8998C31.9911 17.3823 31.8636 17.983 32.2582 18.4689Z"
                     fill="currentColor" fill-opacity="0.425" />
              <path d="M7.40665 15.6185C7.76392 15.1476 7.65189 14.5738 7.29462 14.0718C6.90266 13.5483 6.612 12.6108 6.612 11.8116C6.612 11.0123 6.90266 10.065 7.29462 9.53635C7.64442 9.04182 7.76392 8.47554 7.40665 7.99714C6.99486 7.46191 6.17018 7.43207 5.5971 8.03566C4.79971 8.92621 4.37858 10.3238 4.37858 11.8116C4.37858 13.2993 4.79971 14.6969 5.5971 15.5725C6.17018 16.1836 6.99486 16.1514 7.40665 15.6185ZM29.0389 15.6185C29.4506 16.1514 30.2753 16.1836 30.8484 15.5725C31.6533 14.6969 32.0692 13.2993 32.0692 11.8116C32.0692 10.3238 31.6533 8.92621 30.8484 8.03566C30.2753 7.43207 29.4506 7.46191 29.0389 7.99714C28.6816 8.47554 28.8034 9.04182 29.1509 9.53635C29.5428 10.065 29.8358 11.0123 29.8358 11.8116C29.8358 12.6108 29.5428 13.5483 29.1509 14.0718C28.7959 14.5738 28.6816 15.1476 29.0389 15.6185Z"
                     fill="currentColor" fill-opacity="0.425" />
              <path d="M14.49 20.3326C13.8688 20.3326 13.477 19.9752 13.477 19.3506L13.477 4.23289C13.477 3.60831 13.8688 3.25093 14.49 3.25093L21.9601 3.25093C22.5715 3.25093 22.9634 3.62323 22.9634 4.24035L22.9634 19.3432C22.9634 19.9603 22.5715 20.3326 21.9601 20.3326Z"
                     fill="currentColor" fill-opacity="0.2125" />
              <path d="M13.7627 23.5835L22.8567 23.5835C24.732 23.5835 25.983 22.2993 25.983 20.3879L25.983 3.19561C25.983 1.27675 24.732 0 22.8567 0L13.7627 0C11.7829 0 10.4573 1.27675 10.4573 3.18814L10.4573 20.3954C10.4573 22.2993 11.7829 23.5835 13.7627 23.5835ZM14.49 20.3326C13.8688 20.3326 13.477 19.9752 13.477 19.3506L13.477 4.23289C13.477 3.60831 13.8688 3.25093 14.49 3.25093L21.9601 3.25093C22.5715 3.25093 22.9634 3.62323 22.9634 4.24035L22.9634 19.3432C22.9634 19.9603 22.5715 20.3326 21.9601 20.3326ZM16.0093 19.4183L20.4357 19.4183C20.7889 19.4183 21.0416 19.1805 21.0416 18.8101C21.0416 18.4322 20.7889 18.1892 20.4357 18.1892L16.0093 18.1892C15.6561 18.1892 15.3936 18.4322 15.3936 18.8101C15.3936 19.1805 15.6561 19.4183 16.0093 19.4183ZM16.8457 5.97032L19.5969 5.97032C20.1419 5.97032 20.5417 5.5706 20.5417 5.0233C20.5417 4.4783 20.1345 4.07112 19.5969 4.07112L16.8457 4.07112C16.3059 4.07112 15.8987 4.4783 15.8987 5.0233C15.8987 5.5706 16.2984 5.97032 16.8457 5.97032Z"
                     fill="currentColor" fill-opacity="0.85" />
       </g>
</svg>