<?xml version="1.0" encoding="UTF-8"?>
<!--Generator: Apple Native CoreSVG 326-->
<!DOCTYPE svg PUBLIC "-//W3C//DTD SVG 1.1//EN" "http://www.w3.org/Graphics/SVG/1.1/DTD/svg11.dtd">
<svg version="1.1" xmlns="http://www.w3.org/2000/svg" xmlns:xlink="http://www.w3.org/1999/xlink"
       viewBox="0 0 23.942 22.8841">
       <g>
              <rect height="22.8841" opacity="0" width="23.942" x="0" y="0" />
              <path d="M3.91136 6.71922C3.49422 6.83563 3.25323 7.18324 3.25323 7.68115L3.25323 9.05052C3.25323 9.20447 3.34112 9.29236 3.49507 9.29236L3.83905 9.29236C4.31405 9.29236 4.64947 9.60825 4.64947 10.0907L4.64947 12.7394C4.64947 13.2144 4.31405 13.5303 3.83905 13.5303L3.49507 13.5303C3.34112 13.5303 3.25323 13.6182 3.25323 13.7796L3.25323 15.1438C3.25323 15.7701 3.61062 16.1568 4.2375 16.1568L13.3655 16.1568L16.3905 19.1764L3.18529 19.1764C1.28136 19.1764 0 17.8486 0 15.8688L0 6.77477C0 5.6051 0.498481 4.68123 1.33942 4.15179ZM23.5807 6.77477L23.5807 15.8688C23.5807 17.1056 23.0823 18.0881 22.244 18.6511L19.7004 16.1085C20.1113 15.9882 20.3372 15.6418 20.3372 15.1438L20.3372 7.68115C20.3372 7.06228 19.9649 6.6756 19.3403 6.6756L10.2636 6.6756L7.24274 3.65595L20.3925 3.65595C22.3039 3.65595 23.5807 4.89946 23.5807 6.77477ZM12.4473 15.2402L9.25351 15.2402C8.90031 15.2402 8.64016 15.0024 8.64016 14.632C8.64016 14.2615 8.90031 14.0112 9.25351 14.0112L11.2161 14.0112Z"
                     fill="currentColor" fill-opacity="0.85" />
              <path d="M20.4319 21.2408C20.7696 21.5733 21.3227 21.5785 21.6455 21.2408C21.9661 20.9053 21.9833 20.3671 21.6455 20.0271L3.32784 1.72145C2.9901 1.38372 2.43698 1.38141 2.09694 1.72145C1.77643 2.04196 1.77643 2.60715 2.09694 2.93512Z"
                     fill="currentColor" fill-opacity="0.85" />
       </g>
</svg>