<?xml version="1.0" encoding="UTF-8"?>
<!--Generator: Apple Native CoreSVG 326-->
<!DOCTYPE svg PUBLIC "-//W3C//DTD SVG 1.1//EN" "http://www.w3.org/Graphics/SVG/1.1/DTD/svg11.dtd">
<svg version="1.1" xmlns="http://www.w3.org/2000/svg" xmlns:xlink="http://www.w3.org/1999/xlink"
       viewBox="0 0 25.263 24.4079">
       <g>
              <rect height="24.4079" opacity="0" width="25.263" x="0" y="0" />
              <path d="M2.33763 3.51927L2.33763 20.8393C2.33763 22.2654 2.97808 23.4072 4.0008 23.971L3.30533 23.971C1.32558 23.971 0 22.6868 0 20.7829L0 3.57568C0 1.66428 1.32558 0.387532 3.30533 0.387532L4.0008 0.387532C2.97808 0.95135 2.33763 2.09313 2.33763 3.51927Z"
                     fill="currentColor" fill-opacity="0.85" />
              <path d="M7.00548 3.51927L7.00548 20.8393C7.00548 22.2654 7.64593 23.4072 8.66865 23.971L7.98064 23.971C6.00089 23.971 4.67531 22.6868 4.67531 20.7829L4.67531 3.57568C4.67531 1.66428 6.00089 0.387532 7.98064 0.387532L8.66865 0.387532C7.64593 0.95135 7.00548 2.09313 7.00548 3.51927Z"
                     fill="currentColor" fill-opacity="0.85" />
              <path d="M12.6813 23.971L21.7754 23.971C23.6507 23.971 24.9016 22.6868 24.9016 20.7754L24.9016 3.58314C24.9016 1.66428 23.6507 0.387532 21.7754 0.387532L12.6813 0.387532C10.709 0.387532 9.37598 1.66428 9.37598 3.57568L9.37598 20.7829C9.37598 22.6868 10.709 23.971 12.6813 23.971ZM13.4063 20.7201C12.7875 20.7201 12.3956 20.3627 12.3956 19.7382L12.3956 4.62042C12.3956 3.99584 12.7875 3.63846 13.4063 3.63846L20.8764 3.63846C21.4901 3.63846 21.882 4.01076 21.882 4.62788L21.882 19.7307C21.882 20.3478 21.4901 20.7201 20.8764 20.7201ZM14.9256 19.8058L19.352 19.8058C19.7052 19.8058 19.9677 19.568 19.9677 19.1976C19.9677 18.8197 19.7052 18.5768 19.352 18.5768L14.9256 18.5768C14.5724 18.5768 14.3197 18.8197 14.3197 19.1976C14.3197 19.568 14.5724 19.8058 14.9256 19.8058ZM15.7643 6.35785L18.5156 6.35785C19.0606 6.35785 19.4603 5.95813 19.4603 5.41083C19.4603 4.86583 19.0531 4.45865 18.5156 4.45865L15.7643 4.45865C15.2245 4.45865 14.8173 4.86583 14.8173 5.41083C14.8173 5.95813 15.217 6.35785 15.7643 6.35785Z"
                     fill="currentColor" fill-opacity="0.85" />
       </g>
</svg>