<?xml version="1.0" encoding="UTF-8"?>
<!--Generator: Apple Native CoreSVG 326-->
<!DOCTYPE svg PUBLIC "-//W3C//DTD SVG 1.1//EN" "http://www.w3.org/Graphics/SVG/1.1/DTD/svg11.dtd">
<svg version="1.1" xmlns="http://www.w3.org/2000/svg" xmlns:xlink="http://www.w3.org/1999/xlink"
       viewBox="0 0 15.887 23.6329">
       <g>
              <rect height="23.6329" opacity="0" width="15.887" x="0" y="0" />
              <path d="M3.01964 18.7384L3.01964 4.84745L12.506 4.84745L12.506 18.7384ZM7.77374 22.1415C7.16324 22.1415 6.67047 21.6488 6.67047 21.0308C6.67047 20.4301 7.16324 19.9447 7.77374 19.9447C8.37448 19.9447 8.86725 20.4301 8.86725 21.0308C8.86725 21.6488 8.37448 22.1415 7.77374 22.1415ZM7.77374 3.16661C7.35449 3.16661 7.02367 2.82833 7.02367 2.40908C7.02367 1.99959 7.35449 1.67108 7.77374 1.67108C8.18323 1.67108 8.51175 1.99959 8.51175 2.40908C8.51175 2.82833 8.18323 3.16661 7.77374 3.16661Z"
                     fill="currentColor" fill-opacity="0.2125" />
              <path d="M0 20.3977C0 22.3091 1.32558 23.5858 3.30533 23.5858L12.3994 23.5858C14.2747 23.5858 15.5257 22.3091 15.5257 20.3902L15.5257 3.19561C15.5257 1.27675 14.2747 0 12.3994 0L3.30533 0C1.32558 0 0 1.27675 0 3.18814ZM3.01964 18.7384L3.01964 4.84745L12.506 4.84745L12.506 18.7384ZM7.77374 22.1415C7.16324 22.1415 6.67047 21.6488 6.67047 21.0308C6.67047 20.4301 7.16324 19.9447 7.77374 19.9447C8.37448 19.9447 8.86725 20.4301 8.86725 21.0308C8.86725 21.6488 8.37448 22.1415 7.77374 22.1415ZM7.77374 3.16661C7.35449 3.16661 7.02367 2.82833 7.02367 2.40908C7.02367 1.99959 7.35449 1.67108 7.77374 1.67108C8.18323 1.67108 8.51175 1.99959 8.51175 2.40908C8.51175 2.82833 8.18323 3.16661 7.77374 3.16661Z"
                     fill="currentColor" fill-opacity="0.85" />
       </g>
</svg>