<?xml version="1.0" encoding="UTF-8"?>
<!--Generator: Apple Native CoreSVG 326-->
<!DOCTYPE svg PUBLIC "-//W3C//DTD SVG 1.1//EN" "http://www.w3.org/Graphics/SVG/1.1/DTD/svg11.dtd">
<svg version="1.1" xmlns="http://www.w3.org/2000/svg" xmlns:xlink="http://www.w3.org/1999/xlink"
       viewBox="0 0 15.7808 21.6908">
       <g>
              <rect height="21.6908" opacity="0" width="15.7808" x="0" y="0" />
              <path d="M2.95996 8.05318L2.95996 3.97176C2.95996 3.33973 3.3518 2.98234 3.97297 2.98234L11.454 2.98234C12.0654 2.98234 12.4595 3.36211 12.4595 3.97922L12.4595 8.04572C12.4595 8.66514 12.0654 9.04491 11.454 9.04491L3.97297 9.04491C3.3518 9.04491 2.95996 8.68753 2.95996 8.05318ZM7.7109 19.3474C5.35138 19.3474 3.43756 17.4531 3.43756 15.0861C3.43756 12.7168 5.35138 10.8226 7.7109 10.8226C10.0681 10.8226 11.9819 12.7168 11.9819 15.0861C11.9819 17.4531 10.0681 19.3474 7.7109 19.3474ZM7.7109 17.3587C6.44653 17.3587 5.42629 16.3459 5.42629 15.0861C5.42629 13.8315 6.44653 12.8188 7.7109 12.8188C8.97297 12.8188 9.9909 13.8315 9.9909 15.0861C9.9909 16.3459 8.97297 17.3587 7.7109 17.3587Z"
                     fill="currentColor" fill-opacity="0.2125" />
              <path d="M0 18.4653C0 20.3693 1.32558 21.646 3.30533 21.646L12.2909 21.646C14.1662 21.646 15.4195 20.3693 15.4195 18.4579L15.4195 3.18814C15.4195 1.27675 14.1662 0 12.2909 0L3.30533 0C1.32558 0 0 1.27675 0 3.18068ZM2.95996 8.05318L2.95996 3.97176C2.95996 3.33973 3.3518 2.98234 3.97297 2.98234L11.454 2.98234C12.0654 2.98234 12.4595 3.36211 12.4595 3.97922L12.4595 8.04572C12.4595 8.66514 12.0654 9.04491 11.454 9.04491L3.97297 9.04491C3.3518 9.04491 2.95996 8.68753 2.95996 8.05318ZM7.7109 19.3474C5.35138 19.3474 3.43756 17.4531 3.43756 15.0861C3.43756 12.7168 5.35138 10.8226 7.7109 10.8226C10.0681 10.8226 11.9819 12.7168 11.9819 15.0861C11.9819 17.4531 10.0681 19.3474 7.7109 19.3474ZM7.7109 17.3587C6.44653 17.3587 5.42629 16.3459 5.42629 15.0861C5.42629 13.8315 6.44653 12.8188 7.7109 12.8188C8.97297 12.8188 9.9909 13.8315 9.9909 15.0861C9.9909 16.3459 8.97297 17.3587 7.7109 17.3587Z"
                     fill="currentColor" fill-opacity="0.85" />
       </g>
</svg>