<?xml version="1.0" encoding="UTF-8"?>
<!--Generator: Apple Native CoreSVG 326-->
<!DOCTYPE svg PUBLIC "-//W3C//DTD SVG 1.1//EN" "http://www.w3.org/Graphics/SVG/1.1/DTD/svg11.dtd">
<svg version="1.1" xmlns="http://www.w3.org/2000/svg" xmlns:xlink="http://www.w3.org/1999/xlink"
       viewBox="0 0 16.8335 28.1912">
       <g>
              <rect height="28.1912" opacity="0" width="16.8335" x="0" y="0" />
              <path d="M10.8182 2.5649L10.8182 2.59596L12.9338 2.59596C15.165 2.59596 16.4721 3.91517 16.4721 6.15332L16.4721 20.2329C16.4721 22.4688 15.165 23.7903 12.9338 23.7903L9.41655 23.7903L9.41655 24.3757C9.41655 25.0288 9.80621 25.3558 10.504 25.3558L15.105 25.3558C15.8612 25.3558 16.4721 25.969 16.4721 26.7424C16.4721 27.4986 15.8612 28.1095 15.105 28.1095L10.4145 28.1095C8.06768 28.1095 6.6553 26.7673 6.6553 24.4653L6.6553 23.7903L3.54583 23.7903C1.3146 23.7903 0 22.4688 0 20.2329L0 6.15332C0 3.91517 1.3146 2.59596 3.54583 2.59596L5.66139 2.59596L5.66139 2.5649C5.66139 1.02976 6.69346 0 8.23606 0C9.78613 0 10.8182 1.02976 10.8182 2.5649ZM4.83423 7.59881C4.21153 7.59881 3.82607 7.96936 3.83353 8.57999L3.83353 19.1782C3.82607 19.7912 4.21153 20.1571 4.83423 20.1571L11.6425 20.1571C12.2652 20.1571 12.6581 19.7912 12.6507 19.1782L12.6507 8.57999C12.6581 7.96936 12.2652 7.59881 11.6425 7.59881ZM7.53809 2.57467C7.53809 2.9676 7.85059 3.2824 8.24352 3.2824C8.62899 3.2824 8.94895 2.9676 8.94895 2.57467C8.94895 2.1915 8.62899 1.8767 8.24352 1.8767C7.85059 1.8767 7.53809 2.1915 7.53809 2.57467Z"
                     fill="currentColor" fill-opacity="0.85" />
              <path d="M6.95337 18.3882L9.53829 18.3882C9.91333 18.3882 10.1729 18.1234 10.1729 17.7903C10.1729 17.4325 9.91333 17.1384 9.53829 17.1384L6.95337 17.1384C6.58349 17.1384 6.31873 17.4325 6.31873 17.7903C6.31873 18.1234 6.58349 18.3882 6.95337 18.3882ZM6.18189 15.9902L10.3092 15.9902C10.6745 15.9902 10.9416 15.7133 10.9416 15.348C10.9416 15 10.6745 14.7255 10.3092 14.7255L6.18189 14.7255C5.80454 14.7255 5.53978 15 5.53978 15.348C5.53978 15.7133 5.80454 15.9902 6.18189 15.9902ZM8.24352 13.4535C9.06044 13.4535 9.73087 12.817 9.73087 11.9978C9.73087 11.5393 9.49189 11.0907 9.27989 10.6885L8.63118 9.50541C8.39571 9.06147 8.10395 9.07124 7.86333 9.50541L7.20716 10.6885C6.99516 11.0907 6.75618 11.5393 6.75618 11.9978C6.75618 12.817 7.43637 13.4535 8.24352 13.4535Z"
                     fill="currentColor" fill-opacity="0.85" />
       </g>
</svg>