<?xml version="1.0" encoding="UTF-8"?>
<!--Generator: Apple Native CoreSVG 326-->
<!DOCTYPE svg PUBLIC "-//W3C//DTD SVG 1.1//EN" "http://www.w3.org/Graphics/SVG/1.1/DTD/svg11.dtd">
<svg version="1.1" xmlns="http://www.w3.org/2000/svg" xmlns:xlink="http://www.w3.org/1999/xlink"
       viewBox="0 0 21.365 21.006">
       <g>
              <rect height="21.006" opacity="0" width="21.365" x="0" y="0" />
              <path d="M21.0037 10.4981C21.0037 16.2923 16.302 20.9962 10.4981 20.9962C4.70394 20.9962 0 16.2923 0 10.4981C0 4.70163 4.70394 0 10.4981 0C16.302 0 21.0037 4.70163 21.0037 10.4981ZM10.7888 7.58644L10.7888 11.5305C10.7888 12.2752 10.5398 12.6046 10.038 12.6046C9.62927 12.6046 9.37512 12.3977 9.24289 12.0269C9.05965 11.3998 8.64106 11.0921 7.90385 11.0921C7.1189 11.0995 6.58488 11.6209 6.58488 12.3961C6.58488 12.6166 6.62164 12.8303 6.68769 13.0238C7.05418 14.2553 8.37691 15.0433 10.1166 15.0433C12.3653 15.0433 13.723 13.8021 13.723 11.6246L13.723 7.58644C13.723 6.57469 13.1764 5.96201 12.2536 5.96201C11.3257 5.96201 10.7888 6.57184 10.7888 7.58644Z"
                     fill="currentColor" fill-opacity="0.85" />
       </g>
</svg>