<?xml version="1.0" encoding="UTF-8"?>
<!--Generator: Apple Native CoreSVG 326-->
<!DOCTYPE svg PUBLIC "-//W3C//DTD SVG 1.1//EN" "http://www.w3.org/Graphics/SVG/1.1/DTD/svg11.dtd">
<svg version="1.1" xmlns="http://www.w3.org/2000/svg" xmlns:xlink="http://www.w3.org/1999/xlink"
       viewBox="0 0 21.365 21.006">
       <g>
              <rect height="21.006" opacity="0" width="21.365" x="0" y="0" />
              <path d="M10.4981 20.9962C16.302 20.9962 21.0037 16.2946 21.0037 10.4981C21.0037 4.70163 16.302 0 10.4981 0C4.70163 0 0 4.70163 0 10.4981C0 16.2946 4.70163 20.9962 10.4981 20.9962ZM10.4981 17.9484C6.37829 17.9484 3.04785 14.6179 3.04785 10.4981C3.04785 6.37829 6.37829 3.04785 10.4981 3.04785C14.6179 3.04785 17.9558 6.37829 17.9558 10.4981C17.9558 14.6179 14.6179 17.9484 10.4981 17.9484Z"
                     fill="currentColor" fill-opacity="0.85" />
              <path d="M10.1166 14.9938C12.3515 14.9938 13.6925 13.7595 13.6925 11.6131L13.6925 7.62156C13.6925 6.61442 13.1482 6.00404 12.23 6.00404C11.3067 6.00404 10.7796 6.61157 10.7796 7.62156L10.7796 11.5189C10.7796 12.2493 10.5352 12.5741 10.038 12.5741C9.64134 12.5741 9.38204 12.3769 9.25957 12.0033C9.07118 11.386 8.65489 11.0731 7.92744 11.0731C7.1471 11.0805 6.62285 11.6071 6.62285 12.3702C6.62285 12.5884 6.65215 12.8021 6.7159 12.9933C7.08008 14.2104 8.39589 14.9938 10.1166 14.9938Z"
                     fill="currentColor" fill-opacity="0.85" />
       </g>
</svg>