<?xml version="1.0" encoding="UTF-8"?>
<!--Generator: Apple Native CoreSVG 326-->
<!DOCTYPE svg PUBLIC "-//W3C//DTD SVG 1.1//EN" "http://www.w3.org/Graphics/SVG/1.1/DTD/svg11.dtd">
<svg version="1.1" xmlns="http://www.w3.org/2000/svg" xmlns:xlink="http://www.w3.org/1999/xlink"
       viewBox="0 0 19.3993 19.0529">
       <g>
              <rect height="19.0529" opacity="0" width="19.3993" x="0" y="0" />
              <path d="M3.64834 19.0379L15.3896 19.0379C17.7164 19.0379 19.0379 17.7262 19.0379 15.4011L19.0379 3.63912C19.0379 1.32151 17.7164 0 15.3896 0L3.64834 0C1.32382 0 0 1.32151 0 3.63912L0 15.4011C0 17.7262 1.32382 19.0379 3.64834 19.0379ZM4.05583 16.0183C3.37024 16.0183 3.01964 15.7096 3.01964 14.9775L3.01964 4.07021C3.01964 3.33809 3.37024 3.0271 4.05583 3.0271L14.9821 3.0271C15.6654 3.0271 16.0183 3.33809 16.0183 4.07021L16.0183 14.9775C16.0183 15.7096 15.6654 16.0183 14.9821 16.0183Z"
                     fill="currentColor" fill-opacity="0.85" />
              <path d="M9.14463 14.0173C11.372 14.0173 12.7205 12.783 12.7205 10.6365L12.7205 6.645C12.7205 5.63786 12.1785 5.02748 11.2581 5.02748C10.3348 5.02748 9.80766 5.63501 9.80766 6.645L9.80766 10.5424C9.80766 11.2727 9.56328 11.5976 9.06608 11.5976C8.66193 11.5976 8.41239 11.4004 8.28016 11.0267C8.09922 10.4094 7.68294 10.0965 6.95549 10.0965C6.17515 10.104 5.64344 10.6305 5.64344 11.3936C5.64344 11.6119 5.6802 11.8255 5.73649 12.0168C6.10813 13.2338 7.41648 14.0173 9.14463 14.0173Z"
                     fill="currentColor" fill-opacity="0.85" />
       </g>
</svg>