<?xml version="1.0" encoding="UTF-8"?>
<!--Generator: Apple Native CoreSVG 326-->
<!DOCTYPE svg PUBLIC "-//W3C//DTD SVG 1.1//EN" "http://www.w3.org/Graphics/SVG/1.1/DTD/svg11.dtd">
<svg version="1.1" xmlns="http://www.w3.org/2000/svg" xmlns:xlink="http://www.w3.org/1999/xlink"
       viewBox="0 0 23.0845 22.5228">
       <g>
              <rect height="22.5228" opacity="0" width="23.0845" x="0" y="0" />
              <path d="M22.7232 8.68747L22.7232 18.8836C22.7232 21.2012 21.4092 22.5228 19.0772 22.5228L8.91438 22.5228C6.5824 22.5228 5.25858 21.2012 5.25858 18.8836L5.25858 17.4865L8.27822 17.4865L8.27822 18.4525C8.27822 19.1847 8.63342 19.5031 9.32187 19.5031L18.6674 19.5031C19.353 19.5031 19.7036 19.1847 19.7036 18.4525L19.7036 9.11855C19.7036 8.38643 19.353 8.07545 18.6674 8.07545L17.4646 8.07545L17.4646 5.04834L19.0772 5.04834C21.4092 5.04834 22.7232 6.36755 22.7232 8.68747Z"
                     fill="currentColor" fill-opacity="0.85" />
              <path d="M13.8186 0.0195312L3.64834 0.0195312C1.32382 0.0195312 0 1.33358 0 3.65865L0 13.8474C0 16.165 1.32382 17.4865 3.64834 17.4865L13.8186 17.4865C16.1431 17.4865 17.4646 16.165 17.4646 13.8474L17.4646 3.65865C17.4646 1.33358 16.1431 0.0195312 13.8186 0.0195312ZM13.4088 3.03918C14.0944 3.03918 14.445 3.35016 14.445 4.08228L14.445 13.4163C14.445 14.1559 14.0944 14.4668 13.4088 14.4668L4.05583 14.4668C3.37485 14.4668 3.01964 14.1559 3.01964 13.4163L3.01964 4.08228C3.01964 3.35016 3.37485 3.03918 4.05583 3.03918Z"
                     fill="currentColor" fill-opacity="0.85" />
              <path d="M8.35798 13.2524C10.5952 13.2524 11.9339 12.0181 11.9339 9.86656L11.9339 5.88018C11.9339 4.87305 11.3919 4.26497 10.4714 4.26497C9.54811 4.26497 9.02101 4.8702 9.02101 5.88018L9.02101 9.77242C9.02101 10.5079 8.77663 10.8253 8.27943 10.8253C7.88274 10.8253 7.62574 10.6281 7.49351 10.2619C7.31258 9.63715 6.89629 9.32423 6.16884 9.32423C5.3885 9.33915 4.85679 9.85825 4.85679 10.6288C4.85679 10.8396 4.89355 11.0532 4.9573 11.2445C5.32148 12.469 6.63729 13.2524 8.35798 13.2524Z"
                     fill="currentColor" fill-opacity="0.85" />
       </g>
</svg>