<?xml version="1.0" encoding="UTF-8"?>
<!--Generator: Apple Native CoreSVG 326-->
<!DOCTYPE svg PUBLIC "-//W3C//DTD SVG 1.1//EN" "http://www.w3.org/Graphics/SVG/1.1/DTD/svg11.dtd">
<svg version="1.1" xmlns="http://www.w3.org/2000/svg" xmlns:xlink="http://www.w3.org/1999/xlink"
       viewBox="0 0 32.2584 24.006">
       <g>
              <rect height="24.006" opacity="0" width="32.2584" x="0" y="0" />
              <path d="M9.76262 23.1271L22.1345 23.1271C24.2532 23.1271 25.5715 21.5374 25.46 20.5022L25.3082 19.0298L24.6838 16.1416L24.0576 12.1631C23.9589 11.4759 23.7229 11.1423 23.3405 11.1423C22.8743 11.1423 22.6383 11.5867 22.6629 12.2486L22.9042 18.9813C22.9335 19.7568 22.494 20.4748 21.2736 20.4748L10.6258 20.4748C9.40311 20.4748 8.96584 19.7568 8.99283 18.9813L9.24158 12.2486C9.25881 11.5867 9.0251 11.1423 8.5589 11.1423C8.17422 11.1423 7.9382 11.4759 7.83946 12.1631L7.21555 16.1416L6.59115 19.0298L6.43709 20.5022C6.32791 21.5374 7.64614 23.1271 9.76262 23.1271ZM4.90091 23.6012C6.27981 23.9837 7.49499 23.5141 7.80167 22.2419L8.73092 18.3627L7.61921 14.4671L6.17226 20.4212C6.02414 21.0258 5.53732 21.194 5.00397 21.0556L3.16215 20.5809C2.65743 20.458 2.43985 19.9987 2.62243 19.3155L6.117 6.5218C6.35532 5.63974 6.70106 5.26173 7.4293 5.02166L10.0053 4.15549L10.6731 1.54036L6.43818 2.9659C5.0662 3.42652 4.39941 4.28104 4.05027 5.57939L0.134254 19.7359C-0.270626 21.1837 0.232456 22.3065 1.74971 22.7263ZM14.7952 21.142L17.1065 21.142L17.1065 5.79108L14.7952 5.79108ZM26.9985 23.6012L30.1497 22.7263C31.6669 22.3065 32.1677 21.1837 31.7628 19.7359L27.8491 5.57939C27.4977 4.28104 26.8309 3.42652 25.4589 2.9659L21.2263 1.54036L21.8992 4.15549L24.4701 5.02166C25.2058 5.26173 25.5417 5.63974 25.7801 6.5218L29.2746 19.3155C29.4595 19.9987 29.2419 20.458 28.7349 20.5809L26.8931 21.0556C26.3621 21.194 25.8752 21.0258 25.7346 20.4212L24.2853 14.4671L23.1662 18.3627L24.1052 22.2419C24.4021 23.5141 25.627 23.9837 26.9985 23.6012ZM14.4087 7.89439L16.3778 5.76154L15.5239 5.76154L17.5005 7.89439C18.429 8.88903 19.6012 8.77414 20.3346 7.73814L23.1003 3.82261C23.4237 3.36198 23.5116 2.77671 22.9179 2.26223L21.1008 0.668551C20.5306 0.172384 20.1246 0 19.2217 0L12.6875 0C11.7771 0 11.3711 0.172384 10.8009 0.668551L8.98379 2.26223C8.39009 2.77671 8.47798 3.36198 8.80134 3.82261L11.5745 7.73814C12.3005 8.77414 13.4801 8.88903 14.4087 7.89439ZM13.5135 6.22277C13.2636 6.47722 12.9264 6.46976 12.7386 6.21355L10.9587 3.7776C10.8042 3.56682 10.8541 3.32729 11.0425 3.17565L12.3065 2.0708C12.5546 1.86463 12.8412 1.85486 13.0347 2.07541L14.9117 4.1046C15.1042 4.29706 15.072 4.57796 14.8641 4.79796ZM18.3905 6.22277L17.0399 4.79796C16.832 4.57796 16.8073 4.29706 16.9923 4.1046L18.8716 2.07541C19.0651 1.85486 19.3517 1.85486 19.5998 2.0708L20.8615 3.17565C21.0499 3.32959 21.1044 3.56452 20.9453 3.7776L19.1677 6.21355C18.9775 6.46976 18.6427 6.47722 18.3905 6.22277ZM11.5571 16.9434L13.1131 15.8178C13.5151 15.5312 13.6133 14.977 13.3141 14.5675C13.0298 14.1678 12.4635 14.0845 12.0638 14.3763L10.5176 15.4921C10.1156 15.7862 10.0174 16.3329 10.3166 16.7349C10.6009 17.1519 11.1476 17.2375 11.5571 16.9434ZM20.3497 16.9434C20.7517 17.2375 21.2985 17.1519 21.5926 16.7349C21.882 16.3329 21.7861 15.7862 21.3818 15.4921L19.8356 14.3763C19.4284 14.092 18.8696 14.1678 18.5876 14.5675C18.2884 14.977 18.3843 15.5312 18.7886 15.8178Z"
                     fill="currentColor" fill-opacity="0.85" />
       </g>
</svg>