<?xml version="1.0" encoding="UTF-8"?>
<!--Generator: Apple Native CoreSVG 326-->
<!DOCTYPE svg PUBLIC "-//W3C//DTD SVG 1.1//EN" "http://www.w3.org/Graphics/SVG/1.1/DTD/svg11.dtd">
<svg version="1.1" xmlns="http://www.w3.org/2000/svg" xmlns:xlink="http://www.w3.org/1999/xlink"
       viewBox="0 0 19.3993 19.0529">
       <g>
              <rect height="19.0529" opacity="0" width="19.3993" x="0" y="0" />
              <path d="M3.64834 19.0379L15.3896 19.0379C17.7164 19.0379 19.0379 17.7262 19.0379 15.4011L19.0379 3.63912C19.0379 1.32151 17.7164 0 15.3896 0L3.64834 0C1.32382 0 0 1.32151 0 3.63912L0 15.4011C0 17.7262 1.32382 19.0379 3.64834 19.0379ZM4.05583 16.0183C3.37024 16.0183 3.01964 15.7096 3.01964 14.9775L3.01964 4.07021C3.01964 3.33809 3.37024 3.0271 4.05583 3.0271L14.9821 3.0271C15.6654 3.0271 16.0183 3.33809 16.0183 4.07021L16.0183 14.9775C16.0183 15.7096 15.6654 16.0183 14.9821 16.0183Z"
                     fill="currentColor" fill-opacity="0.85" />
              <path d="M6.95264 13.8599C7.78126 13.8599 8.30321 13.3339 8.30321 12.4364L8.30321 11.6884L9.09174 10.7787L10.8317 13.1806C11.1911 13.6756 11.5081 13.8599 11.9979 13.8599C12.7507 13.8599 13.3094 13.331 13.3094 12.6351C13.3094 12.2831 13.2238 12.0533 12.9677 11.6962L11.0923 9.16853L12.8154 7.198C13.1083 6.85578 13.199 6.63007 13.199 6.25856C13.199 5.6361 12.6403 5.16177 11.9489 5.16177C11.4884 5.16177 11.1956 5.33173 10.8292 5.81L8.39165 8.73605L8.30321 8.73605L8.30321 6.65246C8.30321 5.71762 7.81111 5.16177 6.95264 5.16177C6.09363 5.16177 5.60668 5.71016 5.60668 6.65246L5.60668 12.3618C5.60668 13.3115 6.09363 13.8599 6.95264 13.8599Z"
                     fill="currentColor" fill-opacity="0.85" />
       </g>
</svg>