<?xml version="1.0" encoding="UTF-8"?>
<!--Generator: Apple Native CoreSVG 326-->
<!DOCTYPE svg PUBLIC "-//W3C//DTD SVG 1.1//EN" "http://www.w3.org/Graphics/SVG/1.1/DTD/svg11.dtd">
<svg version="1.1" xmlns="http://www.w3.org/2000/svg" xmlns:xlink="http://www.w3.org/1999/xlink"
       viewBox="0 0 19.3993 19.0529">
       <g>
              <rect height="19.0529" opacity="0" width="19.3993" x="0" y="0" />
              <path d="M19.0379 3.63912L19.0379 15.4011C19.0379 17.7262 17.7164 19.0379 15.3896 19.0379L3.64834 19.0379C1.32382 19.0379 0 17.7262 0 15.4011L0 3.63912C0 1.32151 1.32382 0 3.64834 0L15.3896 0C17.7164 0 19.0379 1.32151 19.0379 3.63912ZM10.9871 5.56137L8.40997 8.67921L8.32899 8.67921L8.32899 6.48535C8.32899 5.46153 7.78982 4.86607 6.86706 4.86607C5.95121 4.86607 5.42465 5.45407 5.42465 6.48535L5.42465 12.5363C5.42465 13.5601 5.95121 14.1481 6.86706 14.1481C7.75997 14.1481 8.32899 13.59 8.32899 12.6259L8.32899 11.8514L9.15658 10.8803L10.997 13.4195C11.3811 13.9391 11.7154 14.1481 12.2522 14.1481C13.0544 14.1481 13.6527 13.5871 13.6527 12.8343C13.6527 12.4577 13.5574 12.213 13.2938 11.8386L11.3007 9.149L13.1243 7.06304C13.4418 6.68867 13.5475 6.44805 13.5475 6.04438C13.5475 5.38747 12.9342 4.86607 12.1935 4.86607C11.7032 4.86607 11.3856 5.06818 10.9871 5.56137Z"
                     fill="currentColor" fill-opacity="0.85" />
       </g>
</svg>