<?xml version="1.0" encoding="UTF-8"?>
<!--Generator: Apple Native CoreSVG 326-->
<!DOCTYPE svg PUBLIC "-//W3C//DTD SVG 1.1//EN" "http://www.w3.org/Graphics/SVG/1.1/DTD/svg11.dtd">
<svg version="1.1" xmlns="http://www.w3.org/2000/svg" xmlns:xlink="http://www.w3.org/1999/xlink"
       viewBox="0 0 13.209 15.4626">
       <g>
              <rect height="15.4626" opacity="0" width="13.209" x="0" y="0" />
              <path d="M2.07493 15.4626C3.37018 15.4626 4.15677 14.7082 4.15677 13.4577L4.15677 11.1955L5.48119 9.6667L8.83898 14.2432C9.44991 15.1342 9.96318 15.4626 10.7876 15.4626C11.999 15.4626 12.8476 14.7007 12.8476 13.6254C12.8476 13.0007 12.7155 12.6521 12.2126 11.946L8.48391 6.95495L11.7673 3.29612C12.3058 2.6807 12.4907 2.29371 12.4907 1.78044C12.4907 0.833658 11.7265 0.0889826 10.7774 0.0889826C10.1257 0.0889826 9.63716 0.346165 9.15943 0.938108L4.24466 6.71748L4.15677 6.71748L4.15677 2.09907C4.15677 0.843424 3.37018 0.0889826 2.07493 0.0889826C0.781979 0.0889826 0 0.843424 0 2.09907L0 13.4577C0 14.7082 0.781979 15.4626 2.07493 15.4626Z"
                     fill="currentColor" fill-opacity="0.85" />
       </g>
</svg>