<?xml version="1.0" encoding="UTF-8"?>
<!--Generator: Apple Native CoreSVG 326-->
<!DOCTYPE svg PUBLIC "-//W3C//DTD SVG 1.1//EN" "http://www.w3.org/Graphics/SVG/1.1/DTD/svg11.dtd">
<svg version="1.1" xmlns="http://www.w3.org/2000/svg" xmlns:xlink="http://www.w3.org/1999/xlink"
       viewBox="0 0 31.8162 19.5308">
       <g>
              <rect height="19.5308" opacity="0" width="31.8162" x="0" y="0" />
              <path d="M6.25407 16.8094L9.1846 19.0558C9.82155 19.5435 10.6274 19.2638 10.6274 18.4338L10.6274 17.1464L24.8425 17.1464L24.8425 18.4338C24.8425 19.2517 25.6461 19.5481 26.2951 19.0558L29.2256 16.8094C29.6392 16.4935 29.6294 15.9111 29.2256 15.5975L26.2951 13.3557C25.6386 12.8486 24.8425 13.145 24.8425 13.9904L24.8425 15.2451L10.6274 15.2451L10.6274 13.9904C10.6274 13.145 9.83362 12.8486 9.1846 13.3557L6.25407 15.5975C5.84797 15.9134 5.83305 16.4935 6.25407 16.8094Z"
                     fill="currentColor" fill-opacity="0.85" />
              <path d="M15.0838 9.3169L19.9814 9.3169C22.6098 9.3169 23.3726 8.31073 24.4771 6.00974L24.8805 5.47567C25.575 4.02374 26.1473 3.20222 27.2301 3.20222C28.1414 3.20222 28.7213 4.03442 28.7213 4.81494C28.7213 5.49956 28.3533 5.82941 27.5098 5.82941C26.3067 5.82941 24.8913 5.29315 23.9369 4.36881L22.7989 7.25404C23.7314 8.57677 25.5142 9.3169 27.2457 9.3169C29.9563 9.3169 31.4548 7.51317 31.4548 4.75064C31.4548 2.26199 29.8169 0 27.5855 0C25.8728 0 24.719 1.08089 23.7397 2.71636L23.2129 3.61613C22.3899 5.00109 21.9542 5.52692 20.3007 5.52692L15.4031 5.52692C13.4823 5.52692 13.0187 4.88105 12.403 3.29441C11.6708 1.47418 10.5417 0 8.61401 0C5.84524 0 4.13893 2.82748 3.8556 5.54482L6.09151 5.58303C6.50397 4.25879 7.34284 3.20222 8.39699 3.20222C9.34559 3.20222 9.9132 4.00907 9.96215 4.71419C10.0226 5.47651 9.57183 5.84609 8.68073 5.84609C7.45014 5.84609 6.05214 5.25312 5.14606 4.43038L3.97673 7.1203C4.86219 8.53826 6.5921 9.3169 8.24613 9.3169C10.5491 9.3169 11.8927 8.02983 11.853 6.03656L10.9222 6.42936C11.2519 7.94479 12.2779 9.3169 15.0838 9.3169ZM1.47158 16.5467C2.33223 16.5467 2.93624 15.933 2.93624 15.0752L2.93624 8.92014C2.93624 8.11506 3.19027 7.92666 3.91426 7.85709L6.22229 7.63533L5.34101 4.34886L3.75922 4.56831C1.19104 4.90604 0 5.79041 0 8.92014L0.00230491 15.0775C0.00230491 15.9353 0.608624 16.5467 1.47158 16.5467Z"
                     fill="currentColor" fill-opacity="0.85" />
       </g>
</svg>