<?xml version="1.0" encoding="UTF-8"?>
<!--Generator: Apple Native CoreSVG 326-->
<!DOCTYPE svg PUBLIC "-//W3C//DTD SVG 1.1//EN" "http://www.w3.org/Graphics/SVG/1.1/DTD/svg11.dtd">
<svg version="1.1" xmlns="http://www.w3.org/2000/svg" xmlns:xlink="http://www.w3.org/1999/xlink"
       viewBox="0 0 15.2776 21.7932">
       <g>
              <rect height="21.7932" opacity="0" width="15.2776" x="0" y="0" />
              <path d="M0 18.1702C0 20.3473 1.30253 21.7932 3.73065 21.7932L11.1856 21.7932C13.6138 21.7932 14.9163 20.3473 14.9163 18.1702L14.9163 3.63045C14.9163 1.45332 13.6138 0.0051558 11.1856 0.0051558L3.73065 0.0051558C1.30253 0.0051558 0 1.45332 0 3.63045ZM3.01964 17.7604L3.01964 4.04024C3.01964 3.47438 3.2909 3.0248 4.15943 3.0248L10.7569 3.0248C11.6254 3.0248 11.8967 3.47438 11.8967 4.04024L11.8967 17.7604C11.8967 18.3337 11.6254 18.7735 10.7569 18.7735L4.15943 18.7735C3.2909 18.7735 3.01964 18.3337 3.01964 17.7604ZM4.28117 5.15965L10.6351 5.15965C10.8688 5.15965 11.0583 4.96786 11.0583 4.73415L11.0583 4.48649C11.0583 4.14063 10.7808 3.86313 10.4373 3.86313L4.47903 3.86313C4.13547 3.86313 3.85797 4.14063 3.85797 4.48649L3.85797 4.73415C3.85797 4.96786 4.04746 5.15965 4.28117 5.15965Z"
                     fill="currentColor" fill-opacity="0.85" />
              <path d="M7.41684 7.12436C5.86981 7.12436 4.63989 8.35428 4.63989 9.88924C4.63989 10.9716 5.25118 11.9494 6.22556 12.4014L6.22556 16.0176C6.22556 16.1893 6.27954 16.3541 6.4145 16.4816L7.167 17.1544C7.31458 17.2945 7.58965 17.3066 7.76653 17.1395L8.99657 15.9043C9.19813 15.705 9.18836 15.3972 8.98911 15.1957L8.45461 14.6658L9.27177 13.8389C9.47618 13.6419 9.47618 13.3267 9.27177 13.1349L8.54129 12.3946C9.59622 11.8403 10.1892 10.9389 10.1892 9.88924C10.1892 8.35659 8.9495 7.12436 7.41684 7.12436ZM7.41454 9.57808C7.03993 9.57808 6.73313 9.26897 6.73313 8.90643C6.73313 8.52667 7.03762 8.22733 7.41454 8.22733C7.792 8.22733 8.08388 8.53413 8.08388 8.90643C8.08388 9.26897 7.792 9.57808 7.41454 9.57808Z"
                     fill="currentColor" fill-opacity="0.85" />
       </g>
</svg>