<?xml version="1.0" encoding="UTF-8"?>
<!--Generator: Apple Native CoreSVG 326-->
<!DOCTYPE svg PUBLIC "-//W3C//DTD SVG 1.1//EN" "http://www.w3.org/Graphics/SVG/1.1/DTD/svg11.dtd">
<svg version="1.1" xmlns="http://www.w3.org/2000/svg" xmlns:xlink="http://www.w3.org/1999/xlink"
       viewBox="0 0 15.2776 21.7932">
       <g>
              <rect height="21.7932" opacity="0" width="15.2776" x="0" y="0" />
              <path d="M14.9163 3.63045L14.9163 18.1702C14.9163 20.3473 13.6138 21.7932 11.1856 21.7932L3.73065 21.7932C1.30253 21.7932 0 20.3473 0 18.1702L0 3.63045C0 1.45332 1.30253 0.0051558 3.73065 0.0051558L11.1856 0.0051558C13.6138 0.0051558 14.9163 1.45332 14.9163 3.63045ZM4.45501 10.3621C4.45501 11.5208 5.10075 12.5577 6.13658 13.0494L6.13658 16.8919C6.13658 17.0785 6.20548 17.2582 6.3479 17.3932L7.14231 18.1027C7.30712 18.2577 7.59711 18.2698 7.78375 18.0878L9.10508 16.7762C9.30895 16.5597 9.30434 16.2296 9.09016 16.0108L8.52121 15.4539L9.39751 14.573C9.60938 14.3611 9.60938 14.0212 9.39751 13.8219L8.61535 13.0375C9.74664 12.4487 10.3741 11.4807 10.3741 10.3621C10.3741 8.72841 9.05801 7.41235 7.41684 7.41235C5.76876 7.41235 4.45501 8.7261 4.45501 10.3621ZM8.12579 9.32017C8.12579 9.7074 7.80923 10.0337 7.41454 10.0337C7.00778 10.0337 6.68375 9.7074 6.68375 9.32017C6.68375 8.90825 7.00547 8.59915 7.41454 8.59915C7.80923 8.59915 8.12579 8.92318 8.12579 9.32017ZM4.27923 3.42962C3.91098 3.42962 3.62141 3.72434 3.62141 4.09489L3.62141 4.35232C3.62141 4.60095 3.82067 4.80997 4.0693 4.80997L10.847 4.80997C11.0956 4.80997 11.3023 4.60095 11.3023 4.35232L11.3023 4.09489C11.3023 3.72434 11.0053 3.42962 10.6445 3.42962Z"
                     fill="currentColor" fill-opacity="0.85" />
       </g>
</svg>