<?xml version="1.0" encoding="UTF-8"?>
<!--Generator: Apple Native CoreSVG 326-->
<!DOCTYPE svg PUBLIC "-//W3C//DTD SVG 1.1//EN" "http://www.w3.org/Graphics/SVG/1.1/DTD/svg11.dtd">
<svg version="1.1" xmlns="http://www.w3.org/2000/svg" xmlns:xlink="http://www.w3.org/1999/xlink"
       viewBox="0 0 25.5111 13.8819">
       <g>
              <rect height="13.8819" opacity="0" width="25.5111" x="0" y="0" />
              <path d="M0.395423 5.97129C-0.105354 6.55819-0.154182 7.35588 0.385657 7.89342L3.40093 10.911C3.94077 11.4508 4.78268 11.4388 5.32537 10.9012L6.54577 9.68829L8.46183 11.5946C8.99706 12.1247 9.84643 12.1298 10.384 11.5923L12.0491 9.93923C13.4328 12.4681 15.6599 13.8699 18.2255 13.8699C22.0551 13.8699 25.1495 10.7806 25.1495 6.93608C25.1495 3.07429 22.0649 0 18.2255 0C15.5509 0 13.1423 1.48898 11.9803 3.87695L2.97561 3.87695C2.55636 3.87695 2.05843 4.01937 1.7546 4.37949ZM2.70454 6.93608L3.699 5.93647L13.7077 5.93647C14.1007 3.91529 15.9764 2.30857 18.2255 2.30857C20.7658 2.30857 22.8237 4.37615 22.8237 6.93608C22.8237 9.4937 20.7682 11.5441 18.2255 11.5441C15.9908 11.5441 14.0933 9.92758 13.6789 7.54355L11.1519 7.54355L9.4094 9.26364L7.66451 7.49175L5.44886 7.49175L4.3778 8.5875ZM18.3767 6.93608C18.3767 7.80007 19.0896 8.5055 19.9461 8.5055C20.8175 8.5055 21.5132 7.80007 21.5132 6.93608C21.5132 6.06233 20.825 5.36897 19.9461 5.36897C19.0896 5.36897 18.3767 6.06464 18.3767 6.93608Z"
                     fill="currentColor" fill-opacity="0.85" />
       </g>
</svg>