<?xml version="1.0" encoding="UTF-8"?>
<!--Generator: Apple Native CoreSVG 326-->
<!DOCTYPE svg PUBLIC "-//W3C//DTD SVG 1.1//EN" "http://www.w3.org/Graphics/SVG/1.1/DTD/svg11.dtd">
<svg version="1.1" xmlns="http://www.w3.org/2000/svg" xmlns:xlink="http://www.w3.org/1999/xlink"
       viewBox="0 0 23.453 25.4863">
       <g>
              <rect height="25.4863" opacity="0" width="23.453" x="0" y="0" />
              <path d="M19.1174 13.6821C19.5608 14.1799 20.2861 14.2361 20.8906 13.5941C22.3644 11.9724 23.0917 9.55686 23.0917 7.02538C23.0917 4.51628 22.2623 2.02156 20.8906 0.471554C20.301-0.175586 19.5683-0.106802 19.1174 0.376082C18.6964 0.829122 18.7721 1.42986 19.197 1.91232C20.2913 3.19471 20.8842 5.05721 20.8842 7.02538C20.8842 9.01077 20.2643 10.8635 19.197 12.1534C18.7893 12.6358 18.7038 13.2366 19.1174 13.6821Z"
                     fill="currentColor" fill-opacity="0.85" />
              <path d="M15.6286 10.9193C16.0353 11.405 16.8225 11.4089 17.3697 10.8215C18.1417 9.95968 18.5462 8.52698 18.5462 7.02538C18.5462 5.52378 18.1417 4.09339 17.3697 3.23159C16.8225 2.64183 16.0353 2.65554 15.6286 3.14358C15.2455 3.59607 15.304 4.17158 15.6514 4.66149C16.0336 5.204 16.3387 6.19846 16.3387 7.02538C16.3387 7.85976 16.0313 8.84445 15.6514 9.38181C15.2988 9.87403 15.2455 10.4645 15.6286 10.9193Z"
                     fill="currentColor" fill-opacity="0.85" />
              <path d="M6.84455 0.183679C3.03226 0.183679 0 3.2234 0 7.01616C0 9.68327 1.51028 12.0849 3.91438 13.2141L3.91438 22.1739C3.91438 22.5672 4.05219 22.999 4.37718 23.289L6.23933 24.9669C6.6217 25.3045 7.27454 25.3459 7.70344 24.917L10.7469 21.8735C11.228 21.3901 11.2108 20.6443 10.732 20.1557L9.39011 18.8133L11.4374 16.7608C11.9065 16.282 11.9139 15.5288 11.4328 15.0453L9.59385 13.2017C12.2309 11.8364 13.6868 9.60987 13.6868 7.01616C13.6868 3.23547 10.635 0.183679 6.84455 0.183679ZM6.84455 6.11524C5.94381 6.11524 5.20623 5.38281 5.20623 4.47692C5.20623 3.56871 5.93404 2.84606 6.84455 2.84606C7.74299 2.84606 8.48287 3.57617 8.48287 4.47692C8.48287 5.38281 7.74299 6.11524 6.84455 6.11524Z"
                     fill="currentColor" fill-opacity="0.85" />
       </g>
</svg>