<?xml version="1.0" encoding="UTF-8"?>
<!--Generator: Apple Native CoreSVG 326-->
<!DOCTYPE svg PUBLIC "-//W3C//DTD SVG 1.1//EN" "http://www.w3.org/Graphics/SVG/1.1/DTD/svg11.dtd">
<svg version="1.1" xmlns="http://www.w3.org/2000/svg" xmlns:xlink="http://www.w3.org/1999/xlink"
       viewBox="0 0 25.8228 21.7932">
       <g>
              <rect height="21.7932" opacity="0" width="25.8228" x="0" y="0" />
              <path d="M21.4872 17.5485C21.938 18.0388 22.6558 18.0927 23.2627 17.453C24.7365 15.8387 25.4615 13.4157 25.4615 10.8917C25.4615 8.38261 24.6344 5.88788 23.2627 4.33788C22.6782 3.69074 21.9455 3.75952 21.4872 4.24241C21.0736 4.69545 21.1493 5.28872 21.5668 5.77118C22.6611 7.05873 23.254 8.91608 23.254 10.8917C23.254 12.8748 22.6416 14.7275 21.5668 16.0197C21.1591 16.5021 21.0811 17.0954 21.4872 17.5485Z"
                     fill="currentColor" fill-opacity="0.85" />
              <path d="M18.0059 14.7758C18.4125 15.269 19.1998 15.2678 19.7469 14.678C20.5213 13.826 20.9234 12.3933 20.9234 10.8917C20.9234 9.3901 20.5213 7.95971 19.7469 7.09045C19.1998 6.50069 18.4125 6.5121 18.0059 7.0076C17.6153 7.46009 17.6737 8.0379 18.0212 8.52782C18.4109 9.07033 18.7159 10.0573 18.7159 10.8917C18.7159 11.7261 18.4086 12.7108 18.0212 13.2481C17.6686 13.7404 17.6153 14.321 18.0059 14.7758Z"
                     fill="currentColor" fill-opacity="0.85" />
              <path d="M0 18.1702C0 20.3473 1.30253 21.7932 3.73065 21.7932L11.1856 21.7932C13.6138 21.7932 14.9163 20.3473 14.9163 18.1702L14.9163 3.63045C14.9163 1.45332 13.6138 0.0051558 11.1856 0.0051558L3.73065 0.0051558C1.30253 0.0051558 0 1.45332 0 3.63045ZM4.0693 4.80997C3.82067 4.80997 3.62141 4.60095 3.62141 4.35232L3.62141 4.09489C3.62141 3.72434 3.91098 3.42962 4.27923 3.42962L10.6445 3.42962C11.0053 3.42962 11.3023 3.72434 11.3023 4.09489L11.3023 4.35232C11.3023 4.60095 11.0956 4.80997 10.847 4.80997ZM7.41684 7.41235C9.05801 7.41235 10.3741 8.72841 10.3741 10.3621C10.3741 11.4807 9.74664 12.4487 8.61535 13.0375L9.39751 13.8219C9.60938 14.0212 9.60938 14.3611 9.39751 14.573L8.52121 15.4539L9.09016 16.0108C9.30434 16.2296 9.30895 16.5597 9.10508 16.7762L7.78375 18.0878C7.59711 18.2698 7.30712 18.2577 7.14231 18.1027L6.3479 17.3932C6.20548 17.2582 6.13658 17.0785 6.13658 16.8919L6.13658 13.0494C5.10075 12.5577 4.45501 11.5208 4.45501 10.3621C4.45501 8.7261 5.76876 7.41235 7.41684 7.41235ZM7.41454 10.0337C7.80923 10.0337 8.12579 9.7074 8.12579 9.32017C8.12579 8.92318 7.80923 8.59915 7.41454 8.59915C7.00547 8.59915 6.68375 8.90825 6.68375 9.32017C6.68375 9.7074 7.00778 10.0337 7.41454 10.0337Z"
                     fill="currentColor" fill-opacity="0.85" />
       </g>
</svg>