<?xml version="1.0" encoding="UTF-8"?>
<!--Generator: Apple Native CoreSVG 326-->
<!DOCTYPE svg PUBLIC "-//W3C//DTD SVG 1.1//EN" "http://www.w3.org/Graphics/SVG/1.1/DTD/svg11.dtd">
<svg version="1.1" xmlns="http://www.w3.org/2000/svg" xmlns:xlink="http://www.w3.org/1999/xlink"
       viewBox="0 0 18.7858 27.1916">
       <g>
              <rect height="27.1916" opacity="0" width="18.7858" x="0" y="0" />
              <path d="M15.1177 25.9466C15.8079 26.1924 16.5051 25.9828 16.817 25.3275L18.3089 22.1121C18.5886 21.4838 18.3336 20.754 17.6829 20.4421L16.5214 19.8801L17.3846 17.9849C17.6918 17.3263 17.4466 16.5946 16.7833 16.2851L15.1908 15.5546C16.7077 13.7324 17.1438 11.6119 16.42 9.60865C15.3067 6.56177 11.9226 4.9815 8.85567 6.10455C5.76172 7.22814 4.20153 10.5754 5.31997 13.6596C6.0909 15.7524 7.93903 17.234 10.1439 17.4924L12.6626 24.4353C12.7975 24.7983 13.0824 25.1929 13.5091 25.3474ZM15.193 23.5279L14.3327 23.1308L11.4682 15.2487C9.70261 15.5773 8.02213 14.5477 7.40623 12.8804C6.70814 10.9734 7.68319 8.86707 9.61254 8.16152C11.5115 7.47604 13.6305 8.45339 14.309 10.3678C14.9198 12.03 14.2149 13.9839 12.4299 14.9424L13.2122 17.0633L14.971 17.8942L14.1189 19.691L14.7908 21.5328L15.893 22.0414ZM2.70011 25.9389L5.91094 24.4372C6.54898 24.1552 6.80968 23.3937 6.52023 22.7551L5.96335 21.5862L7.87801 20.6829C8.53152 20.3756 8.79453 19.6589 8.4873 19.0031L7.74421 17.4157C8.56385 17.2504 9.32436 16.9748 9.96944 16.5963L7.84223 15.1297C7.29778 15.2853 6.68388 15.3025 6.0274 15.159L5.25494 17.2972L6.07374 19.0583L4.27231 19.8863L3.60783 21.7379L4.10897 22.8304L2.62484 23.5253L2.21511 22.6679L5.09445 14.7733C3.52139 13.9096 2.90034 12.0228 3.50132 10.3578C4.1282 8.62772 5.93302 7.65728 7.69756 8.01424L10.139 6.67235C9.78462 6.44489 9.39059 6.24157 8.96497 6.09739C5.87333 4.97665 2.52603 6.52708 1.39267 9.61356C0.641807 11.7213 1.11353 14.041 2.63424 15.6449L0.0954775 22.5856C-0.0320216 22.9606-0.0487019 23.4367 0.150007 23.8267L1.01806 25.3227C1.3718 25.9538 2.05461 26.2484 2.70011 25.9389ZM10.822 11.5128C11.4993 11.2468 11.8406 10.4914 11.5895 9.81864C11.3482 9.16082 10.6025 8.80235 9.92 9.04364C9.2375 9.29985 8.89855 10.0381 9.13984 10.7108C9.3909 11.3859 10.132 11.7564 10.822 11.5128ZM3.22309 5.69566C3.22309 6.49863 3.37988 7.25453 3.66648 7.9346L5.16444 6.94469C5.02597 6.55516 4.97022 6.13633 4.97022 5.69566C4.97022 3.50453 6.69831 1.7546 8.89461 1.7546C11.0834 1.7546 12.8581 3.50453 12.8581 5.69566C12.8581 7.13982 12.0337 8.65022 10.46 9.31349L10.9624 10.9963C13.2381 10.1045 14.615 7.96626 14.615 5.69566C14.615 2.5632 12.0518 0 8.89691 0C5.73692 0 3.22309 2.55574 3.22309 5.69566Z"
                     fill="currentColor" fill-opacity="0.85" />
       </g>
</svg>