<?xml version="1.0" encoding="UTF-8"?>
<!--Generator: Apple Native CoreSVG 326-->
<!DOCTYPE svg PUBLIC "-//W3C//DTD SVG 1.1//EN" "http://www.w3.org/Graphics/SVG/1.1/DTD/svg11.dtd">
<svg version="1.1" xmlns="http://www.w3.org/2000/svg" xmlns:xlink="http://www.w3.org/1999/xlink"
       viewBox="0 0 34.3956 25.4863">
       <g>
              <rect height="25.4863" opacity="0" width="34.3956" x="0" y="0" />
              <path d="M26.452 0.471554C27.8311 2.02156 28.6508 4.51628 28.6508 7.02538C28.6508 9.55686 27.9258 11.9724 26.452 13.5941C25.8526 14.2361 25.1273 14.1799 24.6839 13.6821C24.2704 13.2366 24.3484 12.6358 24.7636 12.1534C25.8309 10.8635 26.4433 9.01077 26.4433 7.02538C26.4433 5.05721 25.8504 3.19471 24.7636 1.91232C24.3386 1.42986 24.2629 0.829122 24.6839 0.376082C25.1348-0.106802 25.8675-0.175586 26.452 0.471554Z"
                     fill="currentColor" fill-opacity="0.85" />
              <path d="M22.9363 3.23159C23.7106 4.09339 24.115 5.52378 24.115 7.02538C24.115 8.52698 23.7106 9.95968 22.9363 10.8215C22.3891 11.4089 21.6018 11.405 21.1952 10.9193C20.812 10.4645 20.8579 9.87403 21.2128 9.38181C21.5979 8.84445 21.9075 7.85976 21.9075 7.02538C21.9075 6.19846 21.6002 5.204 21.2128 4.66149C20.863 4.17158 20.812 3.59607 21.1952 3.14358C21.6018 2.65554 22.3891 2.64183 22.9363 3.23159Z"
                     fill="currentColor" fill-opacity="0.85" />
              <path d="M11.3199 15.9342L11.3199 21.5541L12.3121 22.5463L13.9635 20.873L12.8678 19.8043L12.8678 17.5863L12.9212 17.5338L16.6432 21.2519C16.5852 21.4693 16.4691 21.6753 16.2945 21.8499L13.2769 24.8675C12.7394 25.405 11.9417 25.3562 11.3548 24.8577L9.75551 23.4985C9.39539 23.1924 9.25297 22.6945 9.25297 22.2752L9.25297 13.8694ZM19.2459 7.02538C19.2459 9.56803 17.8715 11.7744 15.3875 13.1618L13.6241 11.3986C15.6241 10.7692 16.9275 9.03416 16.9275 7.02538C16.9275 4.48498 14.8697 2.42717 12.3121 2.42717C10.2274 2.42717 8.47412 3.7919 7.89565 5.67086L6.12276 3.89819C7.25541 1.64223 9.59126 0.10883 12.3121 0.10883C16.1641 0.10883 19.2459 3.19804 19.2459 7.02538ZM13.889 5.30475C13.889 6.16127 13.1835 6.87417 12.3121 6.87417C11.4481 6.87417 10.745 6.16127 10.745 5.30475C10.745 4.42815 11.4458 3.73995 12.3121 3.73995C13.1835 3.73995 13.889 4.43561 13.889 5.30475Z"
                     fill="currentColor" fill-opacity="0.85" />
              <path d="M1.7893 4.20469L20.2984 22.6942C20.6436 23.032 21.199 23.0096 21.512 22.6942C21.8549 22.3467 21.8423 21.8258 21.512 21.4955L3.0202 3.01341C2.675 2.66821 2.12188 2.66821 1.7893 2.99102C1.4688 3.31899 1.47626 3.89164 1.7893 4.20469Z"
                     fill="currentColor" fill-opacity="0.85" />
       </g>
</svg>