<?xml version="1.0" encoding="UTF-8"?>
<!--Generator: Apple Native CoreSVG 326-->
<!DOCTYPE svg PUBLIC "-//W3C//DTD SVG 1.1//EN" "http://www.w3.org/Graphics/SVG/1.1/DTD/svg11.dtd">
<svg version="1.1" xmlns="http://www.w3.org/2000/svg" xmlns:xlink="http://www.w3.org/1999/xlink"
       viewBox="0 0 33.6552 16.9913">
       <g>
              <rect height="16.9913" opacity="0" width="33.6552" x="0" y="0" />
              <path d="M11.1305 16.9591L29.645 16.9591C31.9746 16.9591 33.2933 15.6451 33.2933 13.32L33.2933 3.63682C33.2933 1.32151 31.9746 0 29.645 0L11.1305 0C8.79625 0 7.4822 1.31921 7.4822 3.63682L7.4822 13.32C7.4822 15.6451 8.79625 16.9591 11.1305 16.9591ZM12.1257 6.33353C11.7828 6.33353 11.5721 6.1279 11.5721 5.78732L11.5721 4.80736C11.5721 4.45185 11.7828 4.25369 12.1257 4.25369L13.0959 4.25369C13.4463 4.25369 13.6444 4.45185 13.6444 4.80736L13.6444 5.78732C13.6444 6.1279 13.4463 6.33353 13.0959 6.33353ZM15.2313 6.33353C14.881 6.33353 14.6851 6.1279 14.6851 5.78732L14.6851 4.80736C14.6851 4.45185 14.881 4.25369 15.2313 4.25369L16.2038 4.25369C16.5542 4.25369 16.7598 4.45185 16.7598 4.80736L16.7598 5.78732C16.7598 6.1279 16.5542 6.33353 16.2038 6.33353ZM18.3392 6.33353C17.9986 6.33353 17.7855 6.1279 17.7855 5.78732L17.7855 4.80736C17.7855 4.45185 17.9986 4.25369 18.3392 4.25369L19.3094 4.25369C19.6598 4.25369 19.8579 4.45185 19.8579 4.80736L19.8579 5.78732C19.8579 6.1279 19.6598 6.33353 19.3094 6.33353ZM21.4494 6.33353C21.0991 6.33353 20.9009 6.1279 20.9009 5.78732L20.9009 4.80736C20.9009 4.45185 21.0991 4.25369 21.4494 4.25369L22.4196 4.25369C22.7602 4.25369 22.9733 4.45185 22.9733 4.80736L22.9733 5.78732C22.9733 6.1279 22.7602 6.33353 22.4196 6.33353ZM24.6445 6.33353C24.242 6.33353 23.999 6.1279 23.999 5.78732L23.999 4.80736C23.999 4.45185 24.242 4.25369 24.6445 4.25369L25.5275 4.25369C25.8755 4.25369 26.0737 4.45185 26.0737 4.80736L26.0737 5.78732C26.0737 6.1279 25.8755 6.33353 25.5275 6.33353ZM27.6629 6.33353C27.3125 6.33353 27.1144 6.1279 27.1144 5.78732L27.1144 4.80736C27.1144 4.45185 27.3125 4.25369 27.6629 4.25369L28.6331 4.25369C28.976 4.25369 29.1868 4.45185 29.1868 4.80736L29.1868 5.78732C29.1868 6.1279 28.976 6.33353 28.6331 6.33353ZM12.1257 9.53841C11.7828 9.53841 11.5721 9.33279 11.5721 8.98474L11.5721 8.00478C11.5721 7.6642 11.7828 7.45111 12.1257 7.45111L13.0959 7.45111C13.4463 7.45111 13.6444 7.6642 13.6444 8.00478L13.6444 8.98474C13.6444 9.33279 13.4463 9.53841 13.0959 9.53841ZM15.2313 9.53841C14.881 9.53841 14.6851 9.33279 14.6851 8.98474L14.6851 8.00478C14.6851 7.6642 14.881 7.45111 15.2313 7.45111L16.2038 7.45111C16.5542 7.45111 16.7598 7.6642 16.7598 8.00478L16.7598 8.98474C16.7598 9.33279 16.5542 9.53841 16.2038 9.53841ZM18.3392 9.53841C17.9986 9.53841 17.7855 9.33279 17.7855 8.98474L17.7855 8.00478C17.7855 7.6642 17.9986 7.45111 18.3392 7.45111L19.3094 7.45111C19.6598 7.45111 19.8579 7.6642 19.8579 8.00478L19.8579 8.98474C19.8579 9.33279 19.6598 9.53841 19.3094 9.53841ZM21.4494 9.53841C21.0991 9.53841 20.9009 9.33279 20.9009 8.98474L20.9009 8.00478C20.9009 7.6642 21.0991 7.45111 21.4494 7.45111L22.4196 7.45111C22.7602 7.45111 22.9733 7.6642 22.9733 8.00478L22.9733 8.98474C22.9733 9.33279 22.7602 9.53841 22.4196 9.53841ZM24.6445 9.53841C24.242 9.53841 23.999 9.33279 23.999 8.98474L23.999 8.00478C23.999 7.6642 24.242 7.45111 24.6445 7.45111L25.5275 7.45111C25.8755 7.45111 26.0737 7.6642 26.0737 8.00478L26.0737 8.98474C26.0737 9.33279 25.8755 9.53841 25.5275 9.53841ZM27.6629 9.53841C27.3125 9.53841 27.1144 9.33279 27.1144 8.98474L27.1144 8.00478C27.1144 7.6642 27.3125 7.45111 27.6629 7.45111L28.6331 7.45111C28.976 7.45111 29.1868 7.6642 29.1868 8.00478L29.1868 8.98474C29.1868 9.33279 28.976 9.53841 28.6331 9.53841ZM12.1257 12.7358C11.7828 12.7358 11.5721 12.5377 11.5721 12.1822L11.5721 11.2022C11.5721 10.8616 11.7828 10.656 12.1257 10.656L13.0959 10.656C13.4463 10.656 13.6444 10.8616 13.6444 11.2022L13.6444 12.1822C13.6444 12.5377 13.4463 12.7358 13.0959 12.7358ZM15.2641 12.7358C14.8976 12.7358 14.6851 12.5308 14.6851 12.1493L14.6851 11.2327C14.6851 10.8685 14.8976 10.656 15.2641 10.656L25.4947 10.656C25.8589 10.656 26.0737 10.8685 26.0737 11.2327L26.0737 12.1493C26.0737 12.5308 25.8589 12.7358 25.4947 12.7358ZM27.6629 12.7358C27.3125 12.7358 27.1144 12.5377 27.1144 12.1822L27.1144 11.2022C27.1144 10.8616 27.3125 10.656 27.6629 10.656L28.6331 10.656C28.976 10.656 29.1868 10.8616 29.1868 11.2022L29.1868 12.1822C29.1868 12.5377 28.976 12.7358 28.6331 12.7358Z"
                     fill="currentColor" fill-opacity="0.85" />
              <path d="M2.8741 13.111C3.96518 14.6695 6.01918 13.1994 5.06997 11.8442L2.7207 8.48099L5.06997 5.12981C6.0341 3.75455 3.96518 2.29711 2.8741 3.8556L0.299793 7.51389C-0.0999309 8.09279-0.0999309 8.8738 0.299793 9.4504Z"
                     fill="currentColor" fill-opacity="0.85" />
       </g>
</svg>