<?xml version="1.0" encoding="UTF-8"?>
<!--Generator: Apple Native CoreSVG 326-->
<!DOCTYPE svg PUBLIC "-//W3C//DTD SVG 1.1//EN" "http://www.w3.org/Graphics/SVG/1.1/DTD/svg11.dtd">
<svg version="1.1" xmlns="http://www.w3.org/2000/svg" xmlns:xlink="http://www.w3.org/1999/xlink"
       viewBox="0 0 26.1799 16.9913">
       <g>
              <rect height="16.9913" opacity="0" width="26.1799" x="0" y="0" />
              <path d="M25.8186 3.63682L25.8186 13.32C25.8186 15.6451 24.4924 16.9591 22.1628 16.9591L3.64834 16.9591C1.32151 16.9591 0 15.6451 0 13.32L0 3.63682C0 1.31921 1.32151 0 3.64834 0L22.1628 0C24.4924 0 25.8186 1.32151 25.8186 3.63682ZM4.47927 10.6606C4.24896 10.6606 4.10193 10.8174 4.10193 11.0276L4.10193 12.3619C4.10193 12.5819 4.24896 12.7289 4.47927 12.7289L5.17669 12.7289C5.39724 12.7289 5.54196 12.5819 5.54196 12.3619L5.54196 11.0276C5.54196 10.8174 5.39724 10.6606 5.17669 10.6606ZM6.59908 10.6606C6.38138 10.6606 6.2292 10.8174 6.2292 11.0276L6.2292 12.3619C6.2292 12.5819 6.38138 12.7289 6.59908 12.7289L13.6812 12.7289C13.9069 12.7289 14.0539 12.5819 14.0539 12.3619L14.0539 11.0276C14.0539 10.8174 13.9069 10.6606 13.6812 10.6606ZM15.1162 10.6606C14.8933 10.6606 14.7388 10.8174 14.7388 11.0276L14.7388 12.3619C14.7388 12.5819 14.8933 12.7289 15.1162 12.7289L15.8113 12.7289C16.0393 12.7289 16.1886 12.5819 16.1886 12.3619L16.1886 11.0276C16.1886 10.8174 16.0393 10.6606 15.8113 10.6606ZM20.5162 5.5245L17.9326 7.77514C17.472 8.17892 17.472 8.7779 17.9326 9.17423L20.5162 11.4346C21.0222 11.8763 21.7051 11.6523 21.7051 11.0309L21.7051 5.93344C21.7051 5.3068 21.0222 5.09032 20.5162 5.5245ZM4.47927 7.45803C4.24896 7.45803 4.10193 7.60275 4.10193 7.83252L4.10193 9.157C4.10193 9.38677 4.24896 9.53149 4.47927 9.53149L5.17669 9.53149C5.39724 9.53149 5.54196 9.38677 5.54196 9.157L5.54196 7.83252C5.54196 7.60275 5.39724 7.45803 5.17669 7.45803ZM6.59908 7.45803C6.38138 7.45803 6.2292 7.60275 6.2292 7.83252L6.2292 9.157C6.2292 9.38677 6.38138 9.53149 6.59908 9.53149L7.2942 9.53149C7.52451 9.53149 7.67669 9.38677 7.67669 9.157L7.67669 7.83252C7.67669 7.60275 7.52451 7.45803 7.2942 7.45803ZM8.7315 7.45803C8.50865 7.45803 8.36162 7.60275 8.36162 7.83252L8.36162 9.157C8.36162 9.38677 8.50865 9.53149 8.7315 9.53149L9.42892 9.53149C9.65693 9.53149 9.80166 9.38677 9.80166 9.157L9.80166 7.83252C9.80166 7.60275 9.65693 7.45803 9.42892 7.45803ZM10.8639 7.45803C10.6336 7.45803 10.4814 7.60275 10.4814 7.83252L10.4814 9.157C10.4814 9.38677 10.6336 9.53149 10.8639 9.53149L11.559 9.53149C11.7819 9.53149 11.9289 9.38677 11.9289 9.157L11.9289 7.83252C11.9289 7.60275 11.7819 7.45803 11.559 7.45803ZM13.0463 7.45803C12.7884 7.45803 12.6115 7.60275 12.6115 7.83252L12.6115 9.157C12.6115 9.38677 12.7884 9.53149 13.0463 9.53149L13.6812 9.53149C13.9069 9.53149 14.0539 9.38677 14.0539 9.157L14.0539 7.83252C14.0539 7.60275 13.9069 7.45803 13.6812 7.45803ZM15.1162 7.45803C14.8933 7.45803 14.7388 7.60275 14.7388 7.83252L14.7388 9.157C14.7388 9.38677 14.8933 9.53149 15.1162 9.53149L15.8113 9.53149C16.0393 9.53149 16.1886 9.38677 16.1886 9.157L16.1886 7.83252C16.1886 7.60275 16.0393 7.45803 15.8113 7.45803ZM4.47927 4.2606C4.24896 4.2606 4.10193 4.40763 4.10193 4.62763L4.10193 5.96189C4.10193 6.17212 4.24896 6.32892 4.47927 6.32892L5.17669 6.32892C5.39724 6.32892 5.54196 6.17212 5.54196 5.96189L5.54196 4.62763C5.54196 4.40763 5.39724 4.2606 5.17669 4.2606ZM6.59908 4.2606C6.38138 4.2606 6.2292 4.40763 6.2292 4.62763L6.2292 5.96189C6.2292 6.17212 6.38138 6.32892 6.59908 6.32892L7.2942 6.32892C7.52451 6.32892 7.67669 6.17212 7.67669 5.96189L7.67669 4.62763C7.67669 4.40763 7.52451 4.2606 7.2942 4.2606ZM8.7315 4.2606C8.50865 4.2606 8.36162 4.40763 8.36162 4.62763L8.36162 5.96189C8.36162 6.17212 8.50865 6.32892 8.7315 6.32892L9.42892 6.32892C9.65693 6.32892 9.80166 6.17212 9.80166 5.96189L9.80166 4.62763C9.80166 4.40763 9.65693 4.2606 9.42892 4.2606ZM10.8639 4.2606C10.6336 4.2606 10.4814 4.40763 10.4814 4.62763L10.4814 5.96189C10.4814 6.17212 10.6336 6.32892 10.8639 6.32892L11.559 6.32892C11.7819 6.32892 11.9289 6.17212 11.9289 5.96189L11.9289 4.62763C11.9289 4.40763 11.7819 4.2606 11.559 4.2606ZM13.0463 4.2606C12.7884 4.2606 12.6115 4.40763 12.6115 4.62763L12.6115 5.96189C12.6115 6.17212 12.7884 6.32892 13.0463 6.32892L13.6812 6.32892C13.9069 6.32892 14.0539 6.17212 14.0539 5.96189L14.0539 4.62763C14.0539 4.40763 13.9069 4.2606 13.6812 4.2606ZM15.1162 4.2606C14.8933 4.2606 14.7388 4.40763 14.7388 4.62763L14.7388 5.96189C14.7388 6.17212 14.8933 6.32892 15.1162 6.32892L15.8113 6.32892C16.0393 6.32892 16.1886 6.17212 16.1886 5.96189L16.1886 4.62763C16.1886 4.40763 16.0393 4.2606 15.8113 4.2606Z"
                     fill="currentColor" fill-opacity="0.85" />
       </g>
</svg>