<?xml version="1.0" encoding="UTF-8"?>
<!--Generator: Apple Native CoreSVG 326-->
<!DOCTYPE svg PUBLIC "-//W3C//DTD SVG 1.1//EN" "http://www.w3.org/Graphics/SVG/1.1/DTD/svg11.dtd">
<svg version="1.1" xmlns="http://www.w3.org/2000/svg" xmlns:xlink="http://www.w3.org/1999/xlink"
       viewBox="0 0 33.6552 16.9913">
       <g>
              <rect height="16.9913" opacity="0" width="33.6552" x="0" y="0" />
              <path d="M11.1305 16.9591L29.645 16.9591C31.9746 16.9591 33.2933 15.6451 33.2933 13.32L33.2933 3.63682C33.2933 1.32151 31.9746 0 29.645 0L11.1305 0C8.79625 0 7.4822 1.31921 7.4822 3.63682L7.4822 13.32C7.4822 15.6451 8.79625 16.9591 11.1305 16.9591ZM11.538 13.9395C10.8547 13.9395 10.5018 13.6285 10.5018 12.8964L10.5018 4.0679C10.5018 3.32832 10.8547 3.01964 11.538 3.01964L29.2352 3.01964C29.9184 3.01964 30.2737 3.32832 30.2737 4.0679L30.2737 12.8964C30.2737 13.6285 29.9184 13.9395 29.2352 13.9395ZM12.6431 6.46903L13.5467 6.46903C13.8723 6.46903 14.0607 6.28063 14.0607 5.94982L14.0607 5.03646C14.0607 4.71079 13.8723 4.51494 13.5467 4.51494L12.6431 4.51494C12.3099 4.51494 12.1215 4.71079 12.1215 5.03646L12.1215 5.94982C12.1215 6.28063 12.3099 6.46903 12.6431 6.46903ZM15.554 6.46903L16.4599 6.46903C16.7856 6.46903 16.9814 6.28063 16.9814 5.94982L16.9814 5.03646C16.9814 4.71079 16.7856 4.51494 16.4599 4.51494L15.554 4.51494C15.2283 4.51494 15.0325 4.71079 15.0325 5.03646L15.0325 5.94982C15.0325 6.28063 15.2283 6.46903 15.554 6.46903ZM18.4673 6.46903L19.3783 6.46903C19.704 6.46903 19.8924 6.28063 19.8924 5.94982L19.8924 5.03646C19.8924 4.71079 19.704 4.51494 19.3783 4.51494L18.4673 4.51494C18.1416 4.51494 17.9532 4.71079 17.9532 5.03646L17.9532 5.94982C17.9532 6.28063 18.1416 6.46903 18.4673 6.46903ZM21.3805 6.46903L22.2916 6.46903C22.6172 6.46903 22.8056 6.28063 22.8056 5.94982L22.8056 5.03646C22.8056 4.71079 22.6172 4.51494 22.2916 4.51494L21.3805 4.51494C21.0548 4.51494 20.8664 4.71079 20.8664 5.03646L20.8664 5.94982C20.8664 6.28063 21.0548 6.46903 21.3805 6.46903ZM24.381 6.46903L25.2048 6.46903C25.5282 6.46903 25.7189 6.28063 25.7189 5.94982L25.7189 5.03646C25.7189 4.71079 25.5282 4.51494 25.2048 4.51494L24.381 4.51494C24.0031 4.51494 23.7774 4.71079 23.7774 5.03646L23.7774 5.94982C23.7774 6.28063 24.0031 6.46903 24.381 6.46903ZM27.2122 6.46903L28.1158 6.46903C28.4414 6.46903 28.6373 6.28063 28.6373 5.94982L28.6373 5.03646C28.6373 4.71079 28.4414 4.51494 28.1158 4.51494L27.2122 4.51494C26.8865 4.51494 26.6981 4.71079 26.6981 5.03646L26.6981 5.94982C26.6981 6.28063 26.8865 6.46903 27.2122 6.46903ZM12.6431 9.47181L13.5467 9.47181C13.8723 9.47181 14.0607 9.27595 14.0607 8.95029L14.0607 8.03923C14.0607 7.71357 13.8723 7.51771 13.5467 7.51771L12.6431 7.51771C12.3099 7.51771 12.1215 7.71357 12.1215 8.03923L12.1215 8.95029C12.1215 9.27595 12.3099 9.47181 12.6431 9.47181ZM15.554 9.47181L16.4599 9.47181C16.7856 9.47181 16.9814 9.27595 16.9814 8.95029L16.9814 8.03923C16.9814 7.71357 16.7856 7.51771 16.4599 7.51771L15.554 7.51771C15.2283 7.51771 15.0325 7.71357 15.0325 8.03923L15.0325 8.95029C15.0325 9.27595 15.2283 9.47181 15.554 9.47181ZM18.4673 9.47181L19.3783 9.47181C19.704 9.47181 19.8924 9.27595 19.8924 8.95029L19.8924 8.03923C19.8924 7.71357 19.704 7.51771 19.3783 7.51771L18.4673 7.51771C18.1416 7.51771 17.9532 7.71357 17.9532 8.03923L17.9532 8.95029C17.9532 9.27595 18.1416 9.47181 18.4673 9.47181ZM21.3805 9.47181L22.2916 9.47181C22.6172 9.47181 22.8056 9.27595 22.8056 8.95029L22.8056 8.03923C22.8056 7.71357 22.6172 7.51771 22.2916 7.51771L21.3805 7.51771C21.0548 7.51771 20.8664 7.71357 20.8664 8.03923L20.8664 8.95029C20.8664 9.27595 21.0548 9.47181 21.3805 9.47181ZM24.381 9.47181L25.2048 9.47181C25.5282 9.47181 25.7189 9.27595 25.7189 8.95029L25.7189 8.03923C25.7189 7.71357 25.5282 7.51771 25.2048 7.51771L24.381 7.51771C24.0031 7.51771 23.7774 7.71357 23.7774 8.03923L23.7774 8.95029C23.7774 9.27595 24.0031 9.47181 24.381 9.47181ZM27.2122 9.47181L28.1158 9.47181C28.4414 9.47181 28.6373 9.27595 28.6373 8.95029L28.6373 8.03923C28.6373 7.71357 28.4414 7.51771 28.1158 7.51771L27.2122 7.51771C26.8865 7.51771 26.6981 7.71357 26.6981 8.03923L26.6981 8.95029C26.6981 9.27595 26.8865 9.47181 27.2122 9.47181ZM12.6431 12.4746L13.5467 12.4746C13.8723 12.4746 14.0607 12.2787 14.0607 11.9531L14.0607 11.0397C14.0607 10.7163 13.8723 10.5205 13.5467 10.5205L12.6431 10.5205C12.3099 10.5205 12.1215 10.7163 12.1215 11.0397L12.1215 11.9531C12.1215 12.2787 12.3099 12.4746 12.6431 12.4746ZM15.5845 12.4746L25.1743 12.4746C25.5213 12.4746 25.7189 12.2718 25.7189 11.9226L25.7189 11.0702C25.7189 10.7233 25.5213 10.5205 25.1743 10.5205L15.5845 10.5205C15.2353 10.5205 15.0325 10.7233 15.0325 11.0702L15.0325 11.9226C15.0325 12.2718 15.2353 12.4746 15.5845 12.4746ZM27.2122 12.4746L28.1158 12.4746C28.4414 12.4746 28.6373 12.2787 28.6373 11.9531L28.6373 11.0397C28.6373 10.7163 28.4414 10.5205 28.1158 10.5205L27.2122 10.5205C26.8865 10.5205 26.6981 10.7163 26.6981 11.0397L26.6981 11.9531C26.6981 12.2787 26.8865 12.4746 27.2122 12.4746Z"
                     fill="currentColor" fill-opacity="0.85" />
              <path d="M2.8741 13.111C3.96518 14.6695 6.01918 13.1994 5.06997 11.8442L2.7207 8.48099L5.06997 5.12981C6.0341 3.75455 3.96518 2.29711 2.8741 3.8556L0.299793 7.51389C-0.0999309 8.09279-0.0999309 8.8738 0.299793 9.4504Z"
                     fill="currentColor" fill-opacity="0.85" />
       </g>
</svg>