<?xml version="1.0" encoding="UTF-8"?>
<!--Generator: Apple Native CoreSVG 326-->
<!DOCTYPE svg PUBLIC "-//W3C//DTD SVG 1.1//EN" "http://www.w3.org/Graphics/SVG/1.1/DTD/svg11.dtd">
<svg version="1.1" xmlns="http://www.w3.org/2000/svg" xmlns:xlink="http://www.w3.org/1999/xlink"
       viewBox="0 0 26.1799 16.9913">
       <g>
              <rect height="16.9913" opacity="0" width="26.1799" x="0" y="0" />
              <path d="M3.64834 16.9591L22.1628 16.9591C24.4924 16.9591 25.8186 15.6451 25.8186 13.32L25.8186 3.63682C25.8186 1.32151 24.4924 0 22.1628 0L3.64834 0C1.32151 0 0 1.31921 0 3.63682L0 13.32C0 15.6451 1.32151 16.9591 3.64834 16.9591ZM4.05583 13.9395C3.37024 13.9395 3.01964 13.6285 3.01964 12.8964L3.01964 4.0679C3.01964 3.32832 3.37024 3.01964 4.05583 3.01964L21.753 3.01964C22.4437 3.01964 22.7989 3.32832 22.7989 4.0679L22.7989 12.8964C22.7989 13.6285 22.4437 13.9395 21.753 13.9395Z"
                     fill="currentColor" fill-opacity="0.85" />
              <path d="M4.99661 6.46442L5.65212 6.46442C5.8629 6.46442 6.00016 6.32485 6.00016 6.11462L6.00016 4.87165C6.00016 4.66888 5.8629 4.52185 5.65212 4.52185L4.99661 4.52185C4.79098 4.52185 4.65141 4.66888 4.65141 4.87165L4.65141 6.11462C4.65141 6.32485 4.79098 6.46442 4.99661 6.46442ZM6.99583 6.46442L7.64903 6.46442C7.86212 6.46442 7.99938 6.32485 7.99938 6.11462L7.99938 4.87165C7.99938 4.66888 7.86212 4.52185 7.64903 4.52185L6.99583 4.52185C6.78044 4.52185 6.64317 4.66888 6.64317 4.87165L6.64317 6.11462C6.64317 6.32485 6.78044 6.46442 6.99583 6.46442ZM8.99275 6.46442L9.64826 6.46442C9.85158 6.46442 9.98884 6.32485 9.98884 6.11462L9.98884 4.87165C9.98884 4.66888 9.85158 4.52185 9.64826 4.52185L8.99275 4.52185C8.77966 4.52185 8.64009 4.66888 8.64009 4.87165L8.64009 6.11462C8.64009 6.32485 8.77966 6.46442 8.99275 6.46442ZM10.9822 6.46442L11.6354 6.46442C11.8485 6.46442 11.9881 6.32485 11.9881 6.11462L11.9881 4.87165C11.9881 4.66888 11.8485 4.52185 11.6354 4.52185L10.9822 4.52185C10.7766 4.52185 10.6393 4.66888 10.6393 4.87165L10.6393 6.11462C10.6393 6.32485 10.7766 6.46442 10.9822 6.46442ZM13.0388 6.46442L13.6369 6.46442C13.8477 6.46442 13.985 6.32485 13.985 6.11462L13.985 4.87165C13.985 4.66888 13.8477 4.52185 13.6369 4.52185L13.0388 4.52185C12.7959 4.52185 12.6288 4.66888 12.6288 4.87165L12.6288 6.11462C12.6288 6.32485 12.7959 6.46442 13.0388 6.46442ZM14.9807 6.46442L15.6316 6.46442C15.8372 6.46442 15.9767 6.32485 15.9767 6.11462L15.9767 4.87165C15.9767 4.66888 15.8372 4.52185 15.6316 4.52185L14.9807 4.52185C14.7653 4.52185 14.628 4.66888 14.628 4.87165L14.628 6.11462C14.628 6.32485 14.7653 6.46442 14.9807 6.46442ZM4.99661 9.46489L5.65212 9.46489C5.8629 9.46489 6.00016 9.32763 6.00016 9.11509L6.00016 7.87443C6.00016 7.66189 5.8629 7.52463 5.65212 7.52463L4.99661 7.52463C4.79098 7.52463 4.65141 7.66189 4.65141 7.87443L4.65141 9.11509C4.65141 9.32763 4.79098 9.46489 4.99661 9.46489ZM6.99583 9.46489L7.64903 9.46489C7.86212 9.46489 7.99938 9.32763 7.99938 9.11509L7.99938 7.87443C7.99938 7.66189 7.86212 7.52463 7.64903 7.52463L6.99583 7.52463C6.78044 7.52463 6.64317 7.66189 6.64317 7.87443L6.64317 9.11509C6.64317 9.32763 6.78044 9.46489 6.99583 9.46489ZM8.99275 9.46489L9.64826 9.46489C9.85158 9.46489 9.98884 9.32763 9.98884 9.11509L9.98884 7.87443C9.98884 7.66189 9.85158 7.52463 9.64826 7.52463L8.99275 7.52463C8.77966 7.52463 8.64009 7.66189 8.64009 7.87443L8.64009 9.11509C8.64009 9.32763 8.77966 9.46489 8.99275 9.46489ZM10.9822 9.46489L11.6354 9.46489C11.8485 9.46489 11.9881 9.32763 11.9881 9.11509L11.9881 7.87443C11.9881 7.66189 11.8485 7.52463 11.6354 7.52463L10.9822 7.52463C10.7766 7.52463 10.6393 7.66189 10.6393 7.87443L10.6393 9.11509C10.6393 9.32763 10.7766 9.46489 10.9822 9.46489ZM13.0388 9.46489L13.6369 9.46489C13.8477 9.46489 13.985 9.32763 13.985 9.11509L13.985 7.87443C13.985 7.66189 13.8477 7.52463 13.6369 7.52463L13.0388 7.52463C12.7959 7.52463 12.6288 7.66189 12.6288 7.87443L12.6288 9.11509C12.6288 9.32763 12.7959 9.46489 13.0388 9.46489ZM14.9807 9.46489L15.6316 9.46489C15.8372 9.46489 15.9767 9.32763 15.9767 9.11509L15.9767 7.87443C15.9767 7.66189 15.8372 7.52463 15.6316 7.52463L14.9807 7.52463C14.7653 7.52463 14.628 7.66189 14.628 7.87443L14.628 9.11509C14.628 9.32763 14.7653 9.46489 14.9807 9.46489ZM4.99661 12.4677L5.65212 12.4677C5.8629 12.4677 6.00016 12.3281 6.00016 12.1179L6.00016 10.8749C6.00016 10.6647 5.8629 10.5251 5.65212 10.5251L4.99661 10.5251C4.79098 10.5251 4.65141 10.6647 4.65141 10.8749L4.65141 12.1179C4.65141 12.3281 4.79098 12.4677 4.99661 12.4677ZM6.99583 12.4677L13.6369 12.4677C13.8477 12.4677 13.985 12.3281 13.985 12.1179L13.985 10.8749C13.985 10.6647 13.8477 10.5251 13.6369 10.5251L6.99583 10.5251C6.78044 10.5251 6.64317 10.6647 6.64317 10.8749L6.64317 12.1179C6.64317 12.3281 6.78044 12.4677 6.99583 12.4677ZM14.9807 12.4677L15.6316 12.4677C15.8372 12.4677 15.9767 12.3281 15.9767 12.1179L15.9767 10.8749C15.9767 10.6647 15.8372 10.5251 15.6316 10.5251L14.9807 10.5251C14.7653 10.5251 14.628 10.6647 14.628 10.8749L14.628 12.1179C14.628 12.3281 14.7653 12.4677 14.9807 12.4677ZM17.6197 7.82451C17.1837 8.20361 17.1837 8.76068 17.6197 9.13232L20.0483 11.2549C20.5295 11.6644 21.1556 11.4628 21.1556 10.8758L21.1556 6.08102C21.1556 5.50375 20.5295 5.29473 20.0483 5.70422Z"
                     fill="currentColor" fill-opacity="0.85" />
       </g>
</svg>