<?xml version="1.0" encoding="UTF-8"?>
<!--Generator: Apple Native CoreSVG 326-->
<!DOCTYPE svg PUBLIC "-//W3C//DTD SVG 1.1//EN" "http://www.w3.org/Graphics/SVG/1.1/DTD/svg11.dtd">
<svg version="1.1" xmlns="http://www.w3.org/2000/svg" xmlns:xlink="http://www.w3.org/1999/xlink"
       viewBox="0 0 26.1799 16.9913">
       <g>
              <rect height="16.9913" opacity="0" width="26.1799" x="0" y="0" />
              <path d="M3.64834 16.9591L22.1628 16.9591C24.4924 16.9591 25.8186 15.6451 25.8186 13.32L25.8186 3.63682C25.8186 1.32151 24.4924 0 22.1628 0L3.64834 0C1.32151 0 0 1.31921 0 3.63682L0 13.32C0 15.6451 1.32151 16.9591 3.64834 16.9591ZM4.64868 6.33353C4.30064 6.33353 4.09732 6.1279 4.09732 5.78732L4.09732 4.80736C4.09732 4.45185 4.30064 4.25369 4.64868 4.25369L5.62118 4.25369C5.96407 4.25369 6.16969 4.45185 6.16969 4.80736L6.16969 5.78732C6.16969 6.1279 5.96407 6.33353 5.62118 6.33353ZM7.74912 6.33353C7.40623 6.33353 7.20291 6.1279 7.20291 5.78732L7.20291 4.80736C7.20291 4.45185 7.40623 4.25369 7.74912 4.25369L8.72162 4.25369C9.07712 4.25369 9.27528 4.45185 9.27528 4.80736L9.27528 5.78732C9.27528 6.1279 9.07712 6.33353 8.72162 6.33353ZM10.8645 6.33353C10.5164 6.33353 10.3108 6.1279 10.3108 5.78732L10.3108 4.80736C10.3108 4.45185 10.5164 4.25369 10.8645 4.25369L11.8347 4.25369C12.1776 4.25369 12.3832 4.45185 12.3832 4.80736L12.3832 5.78732C12.3832 6.1279 12.1776 6.33353 11.8347 6.33353ZM13.9649 6.33353C13.6243 6.33353 13.4187 6.1279 13.4187 5.78732L13.4187 4.80736C13.4187 4.45185 13.6243 4.25369 13.9649 4.25369L14.9374 4.25369C15.278 4.25369 15.4911 4.45185 15.4911 4.80736L15.4911 5.78732C15.4911 6.1279 15.278 6.33353 14.9374 6.33353ZM17.1623 6.33353C16.7672 6.33353 16.5243 6.1279 16.5243 5.78732L16.5243 4.80736C16.5243 4.45185 16.7672 4.25369 17.1623 4.25369L18.0528 4.25369C18.3933 4.25369 18.5892 4.45185 18.5892 4.80736L18.5892 5.78732C18.5892 6.1279 18.3933 6.33353 18.0528 6.33353ZM20.1807 6.33353C19.8378 6.33353 19.6322 6.1279 19.6322 5.78732L19.6322 4.80736C19.6322 4.45185 19.8378 4.25369 20.1807 4.25369L21.1509 4.25369C21.4938 4.25369 21.7046 4.45185 21.7046 4.80736L21.7046 5.78732C21.7046 6.1279 21.4938 6.33353 21.1509 6.33353ZM4.64868 9.53841C4.30064 9.53841 4.09732 9.33279 4.09732 8.98474L4.09732 8.00478C4.09732 7.6642 4.30064 7.45111 4.64868 7.45111L5.62118 7.45111C5.96407 7.45111 6.16969 7.6642 6.16969 8.00478L6.16969 8.98474C6.16969 9.33279 5.96407 9.53841 5.62118 9.53841ZM7.74912 9.53841C7.40623 9.53841 7.20291 9.33279 7.20291 8.98474L7.20291 8.00478C7.20291 7.6642 7.40623 7.45111 7.74912 7.45111L8.72162 7.45111C9.07712 7.45111 9.27528 7.6642 9.27528 8.00478L9.27528 8.98474C9.27528 9.33279 9.07712 9.53841 8.72162 9.53841ZM10.8645 9.53841C10.5164 9.53841 10.3108 9.33279 10.3108 8.98474L10.3108 8.00478C10.3108 7.6642 10.5164 7.45111 10.8645 7.45111L11.8347 7.45111C12.1776 7.45111 12.3832 7.6642 12.3832 8.00478L12.3832 8.98474C12.3832 9.33279 12.1776 9.53841 11.8347 9.53841ZM13.9649 9.53841C13.6243 9.53841 13.4187 9.33279 13.4187 8.98474L13.4187 8.00478C13.4187 7.6642 13.6243 7.45111 13.9649 7.45111L14.9374 7.45111C15.278 7.45111 15.4911 7.6642 15.4911 8.00478L15.4911 8.98474C15.4911 9.33279 15.278 9.53841 14.9374 9.53841ZM17.1623 9.53841C16.7672 9.53841 16.5243 9.33279 16.5243 8.98474L16.5243 8.00478C16.5243 7.6642 16.7672 7.45111 17.1623 7.45111L18.0528 7.45111C18.3933 7.45111 18.5892 7.6642 18.5892 8.00478L18.5892 8.98474C18.5892 9.33279 18.3933 9.53841 18.0528 9.53841ZM20.1807 9.53841C19.8378 9.53841 19.6322 9.33279 19.6322 8.98474L19.6322 8.00478C19.6322 7.6642 19.8378 7.45111 20.1807 7.45111L21.1509 7.45111C21.4938 7.45111 21.7046 7.6642 21.7046 8.00478L21.7046 8.98474C21.7046 9.33279 21.4938 9.53841 21.1509 9.53841ZM4.64868 12.7358C4.30064 12.7358 4.09732 12.5377 4.09732 12.1822L4.09732 11.2022C4.09732 10.8616 4.30064 10.656 4.64868 10.656L5.62118 10.656C5.96407 10.656 6.16969 10.8616 6.16969 11.2022L6.16969 12.1822C6.16969 12.5377 5.96407 12.7358 5.62118 12.7358ZM7.78193 12.7358C7.41545 12.7358 7.20291 12.5308 7.20291 12.1493L7.20291 11.2327C7.20291 10.8685 7.41545 10.656 7.78193 10.656L18.0125 10.656C18.3841 10.656 18.5892 10.8685 18.5892 11.2327L18.5892 12.1493C18.5892 12.5308 18.3841 12.7358 18.0125 12.7358ZM20.1807 12.7358C19.8378 12.7358 19.6322 12.5377 19.6322 12.1822L19.6322 11.2022C19.6322 10.8616 19.8378 10.656 20.1807 10.656L21.1509 10.656C21.4938 10.656 21.7046 10.8616 21.7046 11.2022L21.7046 12.1822C21.7046 12.5377 21.4938 12.7358 21.1509 12.7358Z"
                     fill="currentColor" fill-opacity="0.85" />
       </g>
</svg>