<?xml version="1.0" encoding="UTF-8"?>
<!--Generator: Apple Native CoreSVG 326-->
<!DOCTYPE svg PUBLIC "-//W3C//DTD SVG 1.1//EN" "http://www.w3.org/Graphics/SVG/1.1/DTD/svg11.dtd">
<svg version="1.1" xmlns="http://www.w3.org/2000/svg" xmlns:xlink="http://www.w3.org/1999/xlink"
       viewBox="0 0 23.8214 19.0575">
       <g>
              <rect height="19.0575" opacity="0" width="23.8214" x="0" y="0" />
              <path d="M5.03603 9.03066L5.8265 9.03066C6.11025 9.03066 6.28142 8.86695 6.28142 8.5832L6.28142 7.7755C6.28142 7.49406 6.11025 7.33035 5.8265 7.33035L5.03603 7.33035C4.7299 7.33035 4.57365 7.49406 4.57365 7.7755L4.57365 8.5832C4.57365 8.86695 4.7299 9.03066 5.03603 9.03066ZM7.54659 9.03066L8.34682 9.03066C8.63803 9.03066 8.79944 8.86695 8.79944 8.5832L8.79944 7.7755C8.79944 7.49406 8.63803 7.33035 8.34682 7.33035L7.54659 7.33035C7.26514 7.33035 7.09397 7.49406 7.09397 7.7755L7.09397 8.5832C7.09397 8.86695 7.26514 9.03066 7.54659 9.03066ZM10.0721 9.03066L10.8775 9.03066C11.1537 9.03066 11.3249 8.86695 11.3249 8.5832L11.3249 7.7755C11.3249 7.49406 11.1537 7.33035 10.8775 7.33035L10.0721 7.33035C9.78831 7.33035 9.61944 7.49406 9.61944 7.7755L9.61944 8.5832C9.61944 8.86695 9.78831 9.03066 10.0721 9.03066ZM12.5901 9.03066L13.3978 9.03066C13.6867 9.03066 13.8481 8.86695 13.8481 8.5832L13.8481 7.7755C13.8481 7.49406 13.6867 7.33035 13.3978 7.33035L12.5901 7.33035C12.3138 7.33035 12.1426 7.49406 12.1426 7.7755L12.1426 8.5832C12.1426 8.86695 12.3138 9.03066 12.5901 9.03066ZM15.1879 9.03066L15.9209 9.03066C16.2047 9.03066 16.3759 8.86695 16.3759 8.5832L16.3759 7.7755C16.3759 7.49406 16.2047 7.33035 15.9209 7.33035L15.1879 7.33035C14.8616 7.33035 14.6704 7.49406 14.6704 7.7755L14.6704 8.5832C14.6704 8.86695 14.8616 9.03066 15.1879 9.03066ZM17.641 9.03066L18.4315 9.03066C18.7376 9.03066 18.8939 8.86695 18.8939 8.5832L18.8939 7.7755C18.8939 7.49406 18.7376 7.33035 18.4315 7.33035L17.641 7.33035C17.3573 7.33035 17.1861 7.49406 17.1861 7.7755L17.1861 8.5832C17.1861 8.86695 17.3573 9.03066 17.641 9.03066ZM5.03603 11.6307L5.8265 11.6307C6.11025 11.6307 6.28142 11.467 6.28142 11.1833L6.28142 10.3779C6.28142 10.089 6.11025 9.93273 5.8265 9.93273L5.03603 9.93273C4.7299 9.93273 4.57365 10.089 4.57365 10.3779L4.57365 11.1833C4.57365 11.467 4.7299 11.6307 5.03603 11.6307ZM7.54659 11.6307L8.34682 11.6307C8.63803 11.6307 8.79944 11.467 8.79944 11.1833L8.79944 10.3779C8.79944 10.089 8.63803 9.93273 8.34682 9.93273L7.54659 9.93273C7.26514 9.93273 7.09397 10.089 7.09397 10.3779L7.09397 11.1833C7.09397 11.467 7.26514 11.6307 7.54659 11.6307ZM10.0721 11.6307L10.8775 11.6307C11.1537 11.6307 11.3249 11.467 11.3249 11.1833L11.3249 10.3779C11.3249 10.089 11.1537 9.93273 10.8775 9.93273L10.0721 9.93273C9.78831 9.93273 9.61944 10.089 9.61944 10.3779L9.61944 11.1833C9.61944 11.467 9.78831 11.6307 10.0721 11.6307ZM12.5901 11.6307L13.3978 11.6307C13.6867 11.6307 13.8481 11.467 13.8481 11.1833L13.8481 10.3779C13.8481 10.089 13.6867 9.93273 13.3978 9.93273L12.5901 9.93273C12.3138 9.93273 12.1426 10.089 12.1426 10.3779L12.1426 11.1833C12.1426 11.467 12.3138 11.6307 12.5901 11.6307ZM15.1879 11.6307L15.9209 11.6307C16.2047 11.6307 16.3759 11.467 16.3759 11.1833L16.3759 10.3779C16.3759 10.089 16.2047 9.93273 15.9209 9.93273L15.1879 9.93273C14.8616 9.93273 14.6704 10.089 14.6704 10.3779L14.6704 11.1833C14.6704 11.467 14.8616 11.6307 15.1879 11.6307ZM17.641 11.6307L18.4315 11.6307C18.7376 11.6307 18.8939 11.467 18.8939 11.1833L18.8939 10.3779C18.8939 10.089 18.7376 9.93273 18.4315 9.93273L17.641 9.93273C17.3573 9.93273 17.1861 10.089 17.1861 10.3779L17.1861 11.1833C17.1861 11.467 17.3573 11.6307 17.641 11.6307ZM5.03603 14.2257L5.8265 14.2257C6.11025 14.2257 6.28142 14.0694 6.28142 13.7857L6.28142 12.9728C6.28142 12.6891 6.11025 12.5328 5.8265 12.5328L5.03603 12.5328C4.7299 12.5328 4.57365 12.6891 4.57365 12.9728L4.57365 13.7857C4.57365 14.0694 4.7299 14.2257 5.03603 14.2257ZM7.57479 14.2257L15.8927 14.2257C16.2001 14.2257 16.3759 14.055 16.3759 13.7575L16.3759 13.001C16.3759 12.696 16.2001 12.5328 15.8927 12.5328L7.57479 12.5328C7.26975 12.5328 7.09397 12.696 7.09397 13.001L7.09397 13.7575C7.09397 14.055 7.26975 14.2257 7.57479 14.2257ZM17.641 14.2257L18.4315 14.2257C18.7376 14.2257 18.8939 14.0694 18.8939 13.7857L18.8939 12.9728C18.8939 12.6891 18.7376 12.5328 18.4315 12.5328L17.641 12.5328C17.3573 12.5328 17.1861 12.6891 17.1861 12.9728L17.1861 13.7857C17.1861 14.0694 17.3573 14.2257 17.641 14.2257ZM0 15.4183C0 17.7383 1.32382 19.0575 3.64834 19.0575L19.8117 19.0575C22.1386 19.0575 23.4601 17.736 23.4601 15.4183L23.4601 3.65865C23.4601 1.33358 22.1386 0.0195312 19.8117 0.0195312L3.64834 0.0195312C1.32382 0.0195312 0 1.33128 0 3.65865ZM4.28196 3.79725C3.70645 3.79725 3.24868 3.32741 3.24868 2.76398C3.24868 2.20054 3.70645 1.73816 4.28196 1.73816C4.85 1.73816 5.31008 2.20054 5.31008 2.76398C5.31008 3.32741 4.85 3.79725 4.28196 3.79725ZM7.4055 3.79725C6.83 3.79725 6.37223 3.32741 6.37223 2.76398C6.37223 2.20054 6.83 1.73816 7.4055 1.73816C7.96609 1.73816 8.43362 2.20054 8.43362 2.76398C8.43362 3.32741 7.96609 3.79725 7.4055 3.79725ZM10.5216 3.79725C9.95354 3.79725 9.48831 3.32741 9.48831 2.76398C9.48831 2.20054 9.95354 1.73816 10.5216 1.73816C11.0896 1.73816 11.5474 2.20054 11.5474 2.76398C11.5474 3.32741 11.0896 3.79725 10.5216 3.79725ZM3.01964 14.9896L3.01964 5.52334L20.4404 5.52334L20.4404 14.9896C20.4404 15.7217 20.0875 16.0378 19.4042 16.0378L4.05583 16.0378C3.37024 16.0378 3.01964 15.7217 3.01964 14.9896Z"
                     fill="currentColor" fill-opacity="0.85" />
       </g>
</svg>