<?xml version="1.0" encoding="UTF-8"?>
<!--Generator: Apple Native CoreSVG 326-->
<!DOCTYPE svg PUBLIC "-//W3C//DTD SVG 1.1//EN" "http://www.w3.org/Graphics/SVG/1.1/DTD/svg11.dtd">
<svg version="1.1" xmlns="http://www.w3.org/2000/svg" xmlns:xlink="http://www.w3.org/1999/xlink"
       viewBox="0 0 26.1799 28.3439">
       <g>
              <rect height="28.3439" opacity="0" width="26.1799" x="0" y="0" />
              <path d="M3.64834 22.6354L22.1628 22.6354C24.4924 22.6354 25.8186 21.3214 25.8186 18.9963L25.8186 9.31313C25.8186 6.99783 24.4924 5.67632 22.1628 5.67632L3.64834 5.67632C1.32151 5.67632 0 6.99553 0 9.31313L0 18.9963C0 21.3214 1.32151 22.6354 3.64834 22.6354ZM4.64868 12.0098C4.30064 12.0098 4.09732 11.8042 4.09732 11.4636L4.09732 10.4837C4.09732 10.1282 4.30064 9.93001 4.64868 9.93001L5.62118 9.93001C5.96407 9.93001 6.16969 10.1282 6.16969 10.4837L6.16969 11.4636C6.16969 11.8042 5.96407 12.0098 5.62118 12.0098ZM7.74912 12.0098C7.40623 12.0098 7.20291 11.8042 7.20291 11.4636L7.20291 10.4837C7.20291 10.1282 7.40623 9.93001 7.74912 9.93001L8.72162 9.93001C9.07712 9.93001 9.27528 10.1282 9.27528 10.4837L9.27528 11.4636C9.27528 11.8042 9.07712 12.0098 8.72162 12.0098ZM10.8645 12.0098C10.5164 12.0098 10.3108 11.8042 10.3108 11.4636L10.3108 10.4837C10.3108 10.1282 10.5164 9.93001 10.8645 9.93001L11.8347 9.93001C12.1776 9.93001 12.3832 10.1282 12.3832 10.4837L12.3832 11.4636C12.3832 11.8042 12.1776 12.0098 11.8347 12.0098ZM13.9649 12.0098C13.6243 12.0098 13.4187 11.8042 13.4187 11.4636L13.4187 10.4837C13.4187 10.1282 13.6243 9.93001 13.9649 9.93001L14.9374 9.93001C15.278 9.93001 15.4911 10.1282 15.4911 10.4837L15.4911 11.4636C15.4911 11.8042 15.278 12.0098 14.9374 12.0098ZM17.1623 12.0098C16.7672 12.0098 16.5243 11.8042 16.5243 11.4636L16.5243 10.4837C16.5243 10.1282 16.7672 9.93001 17.1623 9.93001L18.0528 9.93001C18.3933 9.93001 18.5892 10.1282 18.5892 10.4837L18.5892 11.4636C18.5892 11.8042 18.3933 12.0098 18.0528 12.0098ZM20.1807 12.0098C19.8378 12.0098 19.6322 11.8042 19.6322 11.4636L19.6322 10.4837C19.6322 10.1282 19.8378 9.93001 20.1807 9.93001L21.1509 9.93001C21.4938 9.93001 21.7046 10.1282 21.7046 10.4837L21.7046 11.4636C21.7046 11.8042 21.4938 12.0098 21.1509 12.0098ZM4.64868 15.2147C4.30064 15.2147 4.09732 15.0091 4.09732 14.6611L4.09732 13.6811C4.09732 13.3405 4.30064 13.1274 4.64868 13.1274L5.62118 13.1274C5.96407 13.1274 6.16969 13.3405 6.16969 13.6811L6.16969 14.6611C6.16969 15.0091 5.96407 15.2147 5.62118 15.2147ZM7.74912 15.2147C7.40623 15.2147 7.20291 15.0091 7.20291 14.6611L7.20291 13.6811C7.20291 13.3405 7.40623 13.1274 7.74912 13.1274L8.72162 13.1274C9.07712 13.1274 9.27528 13.3405 9.27528 13.6811L9.27528 14.6611C9.27528 15.0091 9.07712 15.2147 8.72162 15.2147ZM10.8645 15.2147C10.5164 15.2147 10.3108 15.0091 10.3108 14.6611L10.3108 13.6811C10.3108 13.3405 10.5164 13.1274 10.8645 13.1274L11.8347 13.1274C12.1776 13.1274 12.3832 13.3405 12.3832 13.6811L12.3832 14.6611C12.3832 15.0091 12.1776 15.2147 11.8347 15.2147ZM13.9649 15.2147C13.6243 15.2147 13.4187 15.0091 13.4187 14.6611L13.4187 13.6811C13.4187 13.3405 13.6243 13.1274 13.9649 13.1274L14.9374 13.1274C15.278 13.1274 15.4911 13.3405 15.4911 13.6811L15.4911 14.6611C15.4911 15.0091 15.278 15.2147 14.9374 15.2147ZM17.1623 15.2147C16.7672 15.2147 16.5243 15.0091 16.5243 14.6611L16.5243 13.6811C16.5243 13.3405 16.7672 13.1274 17.1623 13.1274L18.0528 13.1274C18.3933 13.1274 18.5892 13.3405 18.5892 13.6811L18.5892 14.6611C18.5892 15.0091 18.3933 15.2147 18.0528 15.2147ZM20.1807 15.2147C19.8378 15.2147 19.6322 15.0091 19.6322 14.6611L19.6322 13.6811C19.6322 13.3405 19.8378 13.1274 20.1807 13.1274L21.1509 13.1274C21.4938 13.1274 21.7046 13.3405 21.7046 13.6811L21.7046 14.6611C21.7046 15.0091 21.4938 15.2147 21.1509 15.2147ZM4.64868 18.4121C4.30064 18.4121 4.09732 18.214 4.09732 17.8585L4.09732 16.8785C4.09732 16.5379 4.30064 16.3323 4.64868 16.3323L5.62118 16.3323C5.96407 16.3323 6.16969 16.5379 6.16969 16.8785L6.16969 17.8585C6.16969 18.214 5.96407 18.4121 5.62118 18.4121ZM7.78193 18.4121C7.41545 18.4121 7.20291 18.2071 7.20291 17.8257L7.20291 16.909C7.20291 16.5449 7.41545 16.3323 7.78193 16.3323L18.0125 16.3323C18.3841 16.3323 18.5892 16.5449 18.5892 16.909L18.5892 17.8257C18.5892 18.2071 18.3841 18.4121 18.0125 18.4121ZM20.1807 18.4121C19.8378 18.4121 19.6322 18.214 19.6322 17.8585L19.6322 16.8785C19.6322 16.5379 19.8378 16.3323 20.1807 16.3323L21.1509 16.3323C21.4938 16.3323 21.7046 16.5379 21.7046 16.8785L21.7046 17.8585C21.7046 18.214 21.4938 18.4121 21.1509 18.4121Z"
                     fill="currentColor" fill-opacity="0.85" />
              <path d="M12.9044 28.3439C13.3524 28.3439 13.8108 28.1538 14.3059 27.9947L18.7275 26.5174C19.3769 26.3061 19.7323 25.7479 19.7323 25.2398C19.7323 24.4204 19.1839 23.8633 18.3903 23.8633C17.9373 23.8633 17.6305 24.0075 17.2268 24.1551L11.212 26.3357L14.6089 26.3357L8.59175 24.1551C8.18809 24.0075 7.8859 23.8633 7.43055 23.8633C6.64384 23.8633 6.08854 24.4158 6.08854 25.2398C6.08854 25.7479 6.43415 26.3061 7.09336 26.5174L11.5126 27.9947C12.0123 28.1561 12.4662 28.3439 12.9044 28.3439Z"
                     fill="currentColor" fill-opacity="0.85" />
       </g>
</svg>