<?xml version="1.0" encoding="UTF-8"?>
<!--Generator: Apple Native CoreSVG 326-->
<!DOCTYPE svg PUBLIC "-//W3C//DTD SVG 1.1//EN" "http://www.w3.org/Graphics/SVG/1.1/DTD/svg11.dtd">
<svg version="1.1" xmlns="http://www.w3.org/2000/svg" xmlns:xlink="http://www.w3.org/1999/xlink"
       viewBox="0 0 21.365 21.006">
       <g>
              <rect height="21.006" opacity="0" width="21.365" x="0" y="0" />
              <path d="M21.0037 10.4981C21.0037 16.2923 16.302 20.9962 10.4981 20.9962C4.70394 20.9962 0 16.2923 0 10.4981C0 4.70163 4.70394 0 10.4981 0C16.302 0 21.0037 4.70163 21.0037 10.4981ZM12.2149 6.46861L9.79353 9.96112L9.44512 9.96112L9.44512 7.01754C9.44512 6.33541 9.02423 5.90705 8.35932 5.90705C7.68233 5.90705 7.26375 6.33541 7.26375 7.01754L7.26375 9.96112L6.49578 9.96112C6.328 9.96112 6.21367 10.068 6.21367 10.2432C6.21367 10.4012 6.328 10.5253 6.49578 10.5253L7.26375 10.5253L7.27867 13.9322C7.27867 14.6166 7.69725 15.0449 8.36678 15.0449C9.03169 15.0449 9.45258 14.6166 9.45258 13.9322L9.44512 10.5253L9.74646 10.5253L12.1059 14.4013C12.347 14.8233 12.6203 15.0449 13.1009 15.0449C13.907 15.0449 14.17 14.461 14.17 14.0797C14.17 13.7519 14.0965 13.5153 13.8847 13.2219L11.9285 10.5253L14.2044 10.5253C14.3698 10.5253 14.4888 10.3989 14.4888 10.2335C14.4888 10.068 14.3698 9.96112 14.2044 9.96112L11.963 9.96112L13.8847 7.44711C14.0271 7.24786 14.1155 7.01645 14.1155 6.79251C14.1155 6.23611 13.5729 5.90705 13.1084 5.90705C12.6869 5.90705 12.4515 6.10576 12.2149 6.46861Z"
                     fill="currentColor" fill-opacity="0.85" />
       </g>
</svg>