<?xml version="1.0" encoding="UTF-8"?>
<!--Generator: Apple Native CoreSVG 326-->
<!DOCTYPE svg PUBLIC "-//W3C//DTD SVG 1.1//EN" "http://www.w3.org/Graphics/SVG/1.1/DTD/svg11.dtd">
<svg version="1.1" xmlns="http://www.w3.org/2000/svg" xmlns:xlink="http://www.w3.org/1999/xlink"
       viewBox="0 0 24.3303 21.006">
       <g>
              <rect height="21.006" opacity="0" width="24.3303" x="0" y="0" />
              <path d="M11.9856 20.9962C17.7821 20.9962 22.4837 16.2946 22.4837 10.4981C22.4837 4.70163 17.7821 0 11.9856 0C6.18916 0 1.48753 4.70163 1.48753 10.4981L4.53538 10.4981C4.53538 6.37829 7.86582 3.04785 11.9856 3.04785C16.1055 3.04785 19.4359 6.37829 19.4359 10.4981C19.4359 14.6179 16.1055 17.9484 11.9856 17.9484C9.86874 17.9484 8.05458 17.1034 6.64712 15.6524C5.97135 15.0132 5.0498 14.8117 4.35614 15.4438C3.73423 16.0162 3.72149 16.9286 4.44894 17.7463C6.08398 19.7011 9.21457 20.9962 11.9856 20.9962ZM0.808605 8.39698C-0.0138912 8.39698-0.212055 9.15901 0.22849 9.72826L2.75918 13.0277C3.05907 13.4322 3.60988 13.4224 3.91492 13.0277L6.43585 9.72596C6.86894 9.15901 6.66847 8.39698 5.8655 8.39698Z"
                     fill="currentColor" fill-opacity="0.85" />
              <path d="M9.98235 14.7642C10.6002 14.7642 10.9964 14.3605 10.9964 13.7231L10.9889 10.523L11.2633 10.523L13.4975 14.1602C13.714 14.5523 13.9724 14.7642 14.4208 14.7642C15.1798 14.7642 15.4182 14.2198 15.4182 13.8632C15.4182 13.5601 15.3446 13.3384 15.15 13.0623L13.3093 10.523L15.4473 10.523C15.5956 10.523 15.7122 10.4064 15.7122 10.2558C15.7122 10.1001 15.5956 9.98581 15.4473 9.98581L13.3437 9.98581L15.15 7.62398C15.2827 7.43965 15.3636 7.22317 15.3636 7.01645C15.3636 6.49966 14.8607 6.18783 14.4357 6.18783C14.039 6.18783 13.811 6.37677 13.5991 6.70978L11.3104 9.98581L10.9889 9.98581L10.9889 7.2191C10.9889 6.5915 10.5927 6.18783 9.97489 6.18783C9.34728 6.18783 8.95853 6.5915 8.95853 7.2191L8.95853 9.98581L8.23248 9.98581C8.07447 9.98581 7.9699 10.1001 7.9699 10.2582C7.9699 10.4162 8.07447 10.523 8.23248 10.523L8.95853 10.523L8.96599 13.7231C8.96599 14.3605 9.35474 14.7642 9.98235 14.7642Z"
                     fill="currentColor" fill-opacity="0.85" />
       </g>
</svg>