<?xml version="1.0" encoding="UTF-8"?>
<!--Generator: Apple Native CoreSVG 326-->
<!DOCTYPE svg PUBLIC "-//W3C//DTD SVG 1.1//EN" "http://www.w3.org/Graphics/SVG/1.1/DTD/svg11.dtd">
<svg version="1.1" xmlns="http://www.w3.org/2000/svg" xmlns:xlink="http://www.w3.org/1999/xlink"
       viewBox="0 0 19.3993 19.0529">
       <g>
              <rect height="19.0529" opacity="0" width="19.3993" x="0" y="0" />
              <path d="M19.0379 3.63912L19.0379 15.4011C19.0379 17.7262 17.7164 19.0379 15.3896 19.0379L3.64834 19.0379C1.32382 19.0379 0 17.7262 0 15.4011L0 3.63912C0 1.32151 1.32382 0 3.64834 0L15.3896 0C17.7164 0 19.0379 1.32151 19.0379 3.63912ZM11.3227 5.49204L8.90134 8.98456L8.56039 8.98456L8.56039 6.04098C8.56039 5.35884 8.1418 4.93049 7.46713 4.93049C6.7976 4.93049 6.37902 5.35884 6.37902 6.04098L6.37902 8.98456L5.60359 8.98456C5.43812 8.98456 5.32148 9.09143 5.32148 9.26667C5.32148 9.42468 5.43812 9.54878 5.60359 9.54878L6.37902 9.54878L6.38648 12.9556C6.38648 13.64 6.80506 14.0684 7.48205 14.0684C8.14927 14.0684 8.56785 13.64 8.56785 12.9556L8.56039 9.54878L8.85427 9.54878L11.2137 13.4248C11.4548 13.8467 11.7282 14.0684 12.2087 14.0684C13.0223 14.0684 13.2779 13.4844 13.2779 13.1032C13.2779 12.7753 13.2118 12.5388 12.9925 12.2454L11.0386 9.54878L13.3122 9.54878C13.4777 9.54878 13.5966 9.42237 13.5966 9.2569C13.5966 9.09143 13.4777 8.98456 13.3122 8.98456L11.0731 8.98456L12.9925 6.47055C13.1372 6.27129 13.2233 6.03989 13.2233 5.81595C13.2233 5.25955 12.6882 4.93049 12.2237 4.93049C11.8022 4.93049 11.5593 5.1292 11.3227 5.49204Z"
                     fill="currentColor" fill-opacity="0.85" />
       </g>
</svg>