<?xml version="1.0" encoding="UTF-8"?>
<!--Generator: Apple Native CoreSVG 326-->
<!DOCTYPE svg PUBLIC "-//W3C//DTD SVG 1.1//EN" "http://www.w3.org/Graphics/SVG/1.1/DTD/svg11.dtd">
<svg version="1.1" xmlns="http://www.w3.org/2000/svg" xmlns:xlink="http://www.w3.org/1999/xlink"
       viewBox="0 0 25.2371 20.7338">
       <g>
              <rect height="20.7338" opacity="0" width="25.2371" x="0" y="0" />
              <path d="M24.8758 12.3846C24.8758 5.93383 19.9627 0.631336 13.6785 0.00415235C13.2541-0.040066 12.9302 0.274072 12.9302 0.698483L12.9302 4.13058C12.9302 4.48379 13.1829 4.74109 13.5286 4.79046C17.2465 5.32405 20.1044 8.51741 20.1044 12.3846C20.1044 14.1648 19.4989 15.8157 18.4419 17.1359C18.2306 17.4138 18.2329 17.7555 18.4764 18.0012L20.9223 20.4523C21.2117 20.7567 21.6557 20.7417 21.9256 20.4328C23.7735 18.2551 24.8758 15.452 24.8758 12.3846Z"
                     fill="currentColor" fill-opacity="0.85" />
              <path d="M0 12.3846C0 15.4543 1.1023 18.2574 2.94273 20.4276C3.21265 20.7366 3.65429 20.7417 3.9535 20.4448L6.39194 17.9938C6.63541 17.748 6.63772 17.4063 6.42639 17.1284C5.38201 15.8157 4.77139 14.1648 4.77139 12.3846C4.77139 8.51741 7.63678 5.32405 11.3472 4.79046C11.7004 4.74109 11.9456 4.48379 11.9456 4.13058L11.9456 0.698483C11.9456 0.274072 11.6217-0.040066 11.1973 0.00415235C4.92054 0.631336 0 5.93383 0 12.3846Z"
                     fill="currentColor" fill-opacity="0.85" />
              <path d="M10.4311 16.5934C11.0513 16.5934 11.4377 16.1874 11.4377 15.5598L11.4303 12.35L11.7121 12.35L13.9388 15.9871C14.1628 16.3815 14.4212 16.5934 14.8696 16.5934C15.6212 16.5934 15.8595 16.0468 15.8595 15.6999C15.8595 15.387 15.7934 15.1654 15.5988 14.8967L13.7604 12.35L15.8887 12.35C16.0444 12.35 16.161 12.2408 16.161 12.0851C16.161 11.9294 16.0444 11.8225 15.8887 11.8225L13.7874 11.8225L15.6011 9.45322C15.7338 9.26658 15.805 9.05756 15.805 8.84338C15.805 8.32659 15.3095 8.01706 14.8771 8.01706C14.4901 8.01706 14.2598 8.20601 14.0404 8.53901L11.7591 11.8225L11.4303 11.8225L11.4303 9.04834C11.4303 8.41842 11.0438 8.01706 10.4162 8.01706C9.79608 8.01706 9.40733 8.41842 9.40733 9.04834L9.40733 11.8225L8.68128 11.8225C8.52557 11.8225 8.41124 11.9271 8.41124 12.0874C8.41124 12.2431 8.52557 12.35 8.68128 12.35L9.40733 12.35L9.41479 15.5598C9.41479 16.1874 9.80354 16.5934 10.4311 16.5934Z"
                     fill="currentColor" fill-opacity="0.85" />
       </g>
</svg>