<?xml version="1.0" encoding="UTF-8"?>
<!--Generator: Apple Native CoreSVG 326-->
<!DOCTYPE svg PUBLIC "-//W3C//DTD SVG 1.1//EN" "http://www.w3.org/Graphics/SVG/1.1/DTD/svg11.dtd">
<svg version="1.1" xmlns="http://www.w3.org/2000/svg" xmlns:xlink="http://www.w3.org/1999/xlink"
       viewBox="0 0 24.6449 23.5952">
       <g>
              <rect height="23.5952" opacity="0" width="24.6449" x="0" y="0" />
              <path d="M13.7186 0.416404L22.6254 5.55167C23.136 5.85374 23.3841 6.25686 23.3841 6.69158C23.3841 7.28595 22.9074 7.89293 22.1092 7.89293L21.3244 7.89293L21.3244 19.392L21.7032 19.392C22.2379 19.392 22.5744 19.7159 22.5744 20.2632L22.5744 21.1701L23.0673 21.1701C23.7134 21.1701 24.2836 21.7231 24.2836 22.3766C24.2836 23.0525 23.7134 23.5854 23.0673 23.5854L1.20651 23.5854C0.553002 23.5854 0 23.045 0 22.3766C0 21.7231 0.553002 21.1701 1.20651 21.1701L1.94045 21.1701L1.94045 20.2632C1.94045 19.7159 2.27927 19.392 2.81396 19.392L3.19045 19.392L3.19045 7.89293L2.41314 7.89293C1.60745 7.89293 1.13081 7.28595 1.13081 6.69158C1.13081 6.25686 1.37659 5.85374 1.88944 5.55167L10.7963 0.416404C11.242 0.154491 11.7664 0 12.2563 0C12.7462 0 13.2683 0.154491 13.7186 0.416404ZM13.9731 8.92833L11.5517 12.4208L11.2131 12.4208L11.2131 9.46981C11.2131 8.79283 10.7922 8.35932 10.1198 8.35932C9.45028 8.35932 9.03169 8.79283 9.03169 9.46981L9.03169 12.4208L8.25626 12.4208C8.08849 12.4208 7.97415 12.5277 7.97415 12.6955C7.97415 12.861 8.08849 12.9828 8.25626 12.9828L9.03169 12.9828L9.03915 16.3919C9.03915 17.0689 9.45774 17.4972 10.1273 17.4972C10.7996 17.4972 11.2205 17.0689 11.2205 16.3919L11.2131 12.9828L11.5046 12.9828L13.864 16.8587C14.1075 17.283 14.3808 17.4972 14.8614 17.4972C15.675 17.4972 15.9305 16.9207 15.9305 16.5395C15.9305 16.2116 15.8645 15.9727 15.6451 15.6793L13.689 12.9828L15.9626 12.9828C16.1303 12.9828 16.2493 12.8564 16.2493 12.6932C16.2493 12.5277 16.1303 12.4208 15.9626 12.4208L13.7234 12.4208L15.6451 9.90684C15.7876 9.70758 15.876 9.46641 15.876 9.24993C15.876 8.69584 15.3409 8.35932 14.8763 8.35932C14.4549 8.35932 14.212 8.56549 13.9731 8.92833Z"
                     fill="currentColor" fill-opacity="0.85" />
       </g>
</svg>