<?xml version="1.0" encoding="UTF-8"?>
<!--Generator: Apple Native CoreSVG 326-->
<!DOCTYPE svg PUBLIC "-//W3C//DTD SVG 1.1//EN" "http://www.w3.org/Graphics/SVG/1.1/DTD/svg11.dtd">
<svg version="1.1" xmlns="http://www.w3.org/2000/svg" xmlns:xlink="http://www.w3.org/1999/xlink"
       viewBox="0 0 25.2371 20.7933">
       <g>
              <rect height="20.7933" opacity="0" width="25.2371" x="0" y="0" />
              <path d="M24.8758 12.4367C24.8758 9.44627 23.8182 6.68788 22.0375 4.53265C21.79 4.23112 21.3535 4.23112 21.0491 4.53034L18.6193 6.95264C18.3592 7.2128 18.3569 7.55853 18.5677 7.83822C19.5288 9.12728 20.1044 10.7185 20.1044 12.4367C20.1044 14.2244 19.4989 15.8753 18.4419 17.2029C18.2306 17.4808 18.2329 17.8225 18.4764 18.0683L20.92 20.5119C21.2117 20.8036 21.6459 20.8036 21.9256 20.4849C23.766 18.3147 24.8758 15.5116 24.8758 12.4367Z"
                     fill="currentColor" fill-opacity="0.85" />
              <path d="M12.4367 4.77139C14.1745 4.77139 15.7732 5.34932 17.0646 6.32534C17.3345 6.52635 17.6779 6.50682 17.9231 6.25413L20.3454 3.82437C20.6521 3.52515 20.6424 3.07605 20.311 2.81359C18.1655 1.05754 15.422 0 12.4367 0C9.45373 0 6.71026 1.05754 4.57225 2.81359C4.24089 3.07605 4.22366 3.52515 4.53034 3.82437L6.95264 6.25413C7.19787 6.50682 7.55853 6.52635 7.84052 6.31557C9.12213 5.34932 10.7185 4.77139 12.4367 4.77139Z"
                     fill="currentColor" fill-opacity="0.85" />
              <path d="M0 12.4367C0 15.519 1.12468 18.3446 2.98003 20.5147C3.23503 20.8186 3.66405 20.8036 3.96096 20.5119L6.39709 18.0683C6.64057 17.8225 6.65264 17.4808 6.43385 17.2029C5.38432 15.8753 4.77139 14.2244 4.77139 12.4367C4.77139 10.7185 5.34471 9.12728 6.30811 7.83822C6.51658 7.55853 6.51658 7.2128 6.25643 6.95264L3.82667 4.53034C3.52745 4.23112 3.07836 4.23859 2.80844 4.56995C1.05008 6.71026 0 9.45373 0 12.4367Z"
                     fill="currentColor" fill-opacity="0.85" />
              <path d="M10.4311 16.6232C11.0513 16.6232 11.4377 16.2172 11.4377 15.5896L11.4303 12.3797L11.7121 12.3797L13.9388 16.0168C14.1628 16.4113 14.4212 16.6232 14.8696 16.6232C15.6212 16.6232 15.8595 16.0765 15.8595 15.7297C15.8595 15.4168 15.7934 15.1951 15.5988 14.9264L13.7604 12.3797L15.8887 12.3797C16.0444 12.3797 16.161 12.2705 16.161 12.1148C16.161 11.9591 16.0444 11.8523 15.8887 11.8523L13.7874 11.8523L15.6011 9.48297C15.7338 9.29633 15.805 9.08731 15.805 8.87313C15.805 8.35634 15.3095 8.04682 14.8771 8.04682C14.4901 8.04682 14.2598 8.23576 14.0404 8.56876L11.7591 11.8523L11.4303 11.8523L11.4303 9.07809C11.4303 8.44818 11.0438 8.04682 10.4162 8.04682C9.79608 8.04682 9.40733 8.44818 9.40733 9.07809L9.40733 11.8523L8.68128 11.8523C8.52557 11.8523 8.41124 11.9568 8.41124 12.1171C8.41124 12.2728 8.52557 12.3797 8.68128 12.3797L9.40733 12.3797L9.41479 15.5896C9.41479 16.2172 9.80354 16.6232 10.4311 16.6232Z"
                     fill="currentColor" fill-opacity="0.85" />
       </g>
</svg>