<?xml version="1.0" encoding="UTF-8"?>
<!--Generator: Apple Native CoreSVG 326-->
<!DOCTYPE svg PUBLIC "-//W3C//DTD SVG 1.1//EN" "http://www.w3.org/Graphics/SVG/1.1/DTD/svg11.dtd">
<svg version="1.1" xmlns="http://www.w3.org/2000/svg" xmlns:xlink="http://www.w3.org/1999/xlink"
       viewBox="0 0 21.365 21.006">
       <g>
              <rect height="21.006" opacity="0" width="21.365" x="0" y="0" />
              <path d="M10.4981 20.9962C16.302 20.9962 21.0037 16.2946 21.0037 10.4981C21.0037 4.70163 16.302 0 10.4981 0C4.70163 0 0 4.70163 0 10.4981C0 16.2946 4.70163 20.9962 10.4981 20.9962ZM10.4981 17.9484C6.37829 17.9484 3.04785 14.6179 3.04785 10.4981C3.04785 6.37829 6.37829 3.04785 10.4981 3.04785C14.6179 3.04785 17.9558 6.37829 17.9558 10.4981C17.9558 14.6179 14.6179 17.9484 10.4981 17.9484Z"
                     fill="currentColor" fill-opacity="0.85" />
              <path d="M8.49252 14.7642C9.11036 14.7642 9.50657 14.3605 9.50657 13.7231L9.49164 10.523L9.77345 10.523L12.0002 14.1602C12.2241 14.5523 12.4825 14.7642 12.931 14.7642C13.6826 14.7642 13.9283 14.2198 13.9283 13.8632C13.9283 13.5601 13.8548 13.3384 13.6602 13.0623L11.8194 10.523L13.9575 10.523C14.1058 10.523 14.2224 10.4064 14.2224 10.2558C14.2224 10.1001 14.1058 9.98581 13.9575 9.98581L11.8539 9.98581L13.6602 7.62398C13.7928 7.43965 13.8738 7.22317 13.8738 7.01645C13.8738 6.49966 13.3708 6.18783 12.9459 6.18783C12.5491 6.18783 12.3211 6.37677 12.1018 6.70978L9.82052 9.98581L9.49164 9.98581L9.49164 7.2191C9.49164 6.5915 9.1029 6.18783 8.48506 6.18783C7.85745 6.18783 7.4687 6.5915 7.4687 7.2191L7.4687 9.98581L6.74265 9.98581C6.58464 9.98581 6.48007 10.1001 6.48007 10.2582C6.48007 10.4162 6.58464 10.523 6.74265 10.523L7.4687 10.523L7.47616 13.7231C7.47616 14.3605 7.86491 14.7642 8.49252 14.7642Z"
                     fill="currentColor" fill-opacity="0.85" />
       </g>
</svg>