<?xml version="1.0" encoding="UTF-8"?>
<!--Generator: Apple Native CoreSVG 326-->
<!DOCTYPE svg PUBLIC "-//W3C//DTD SVG 1.1//EN" "http://www.w3.org/Graphics/SVG/1.1/DTD/svg11.dtd">
<svg version="1.1" xmlns="http://www.w3.org/2000/svg" xmlns:xlink="http://www.w3.org/1999/xlink"
       viewBox="0 0 23.868 18.3346">
       <g>
              <rect height="18.3346" opacity="0" width="23.868" x="0" y="0" />
              <path d="M8.34257 18.3346L15.1641 18.3346C21.0594 18.3346 23.5067 15.8167 23.5067 9.89525L23.5067 3.62814C23.5067 1.32206 22.1851 0.0051558 19.8744 0.0051558L3.63221 0.0051558C1.32151 0.0051558 0 1.32206 0 3.62814L0 9.89525C0 15.8167 2.44723 18.3346 8.34257 18.3346ZM8.48433 15.3149C4.62102 15.3149 3.01964 13.6935 3.01964 9.87353L3.01964 4.05923C3.01964 3.39601 3.3857 3.03226 4.04431 3.03226L19.4623 3.03226C20.1089 3.03226 20.487 3.39601 20.487 4.05923L20.487 9.87353C20.487 13.6935 18.8782 15.3149 15.02 15.3149Z"
                     fill="currentColor" fill-opacity="0.85" />
              <path d="M10.3883 12.9867L13.5598 12.9867C13.9981 12.9867 14.3726 12.6335 14.3726 12.1734C14.3726 11.7208 13.9981 11.363 13.5598 11.363L11.4026 11.363L11.4026 6.31157C11.4026 5.73946 10.9684 5.2886 10.3957 5.2886C9.81561 5.2886 9.39065 5.74177 9.39065 6.31157L9.39065 11.9236C9.39065 12.5904 9.73354 12.9867 10.3883 12.9867Z"
                     fill="currentColor" fill-opacity="0.85" />
       </g>
</svg>