<?xml version="1.0" encoding="UTF-8"?>
<!--Generator: Apple Native CoreSVG 326-->
<!DOCTYPE svg PUBLIC "-//W3C//DTD SVG 1.1//EN" "http://www.w3.org/Graphics/SVG/1.1/DTD/svg11.dtd">
<svg version="1.1" xmlns="http://www.w3.org/2000/svg" xmlns:xlink="http://www.w3.org/1999/xlink"
       viewBox="0 0 24.3741 31.4126">
       <g>
              <rect height="31.4126" opacity="0" width="24.3741" x="0" y="0" />
              <path d="M8.00018 6.76632C4.59184 8.29568 2.22135 11.7266 2.22135 15.7014C2.22135 21.1052 6.6026 25.4939 12.0064 25.4939C17.4079 25.4939 21.7914 21.1052 21.7914 15.7014C21.7914 11.7265 19.4196 8.2956 16.0115 6.76627C16.4874 6.16349 16.6596 5.34243 16.4259 4.53996C20.8664 6.29748 24.0128 10.6385 24.0128 15.7014C24.0128 22.3278 18.623 27.7153 12.0064 27.7153C5.37249 27.7153 0 22.3255 0 15.7014C0 10.6382 3.13668 6.29701 7.58052 4.53969C7.34796 5.33821 7.52334 6.16149 8.00018 6.76632Z"
                     fill="currentColor" fill-opacity="0.85" />
              <path d="M10.0001 5.98892L13.9932 5.98892C14.7738 5.98892 15.0552 5.24794 14.5854 4.64369L12.5636 2.00897C12.2729 1.62295 11.7301 1.61549 11.4343 2.00897L9.41303 4.64599C8.96503 5.23818 9.22979 5.98892 10.0001 5.98892Z"
                     fill="currentColor" fill-opacity="0.85" />
              <path d="M12.0064 23.7653C16.4399 23.7653 20.053 20.1349 20.053 15.7014C20.053 11.2582 16.4399 7.64731 12.0064 7.64731C7.56545 7.64731 3.95229 11.2582 3.95229 15.7014C3.95229 20.1349 7.56545 23.7653 12.0064 23.7653ZM10.6615 19.4245C10.0263 19.4245 9.69545 19.038 9.69545 18.3982L9.69545 12.9299C9.69545 12.3722 10.1083 11.9311 10.6689 11.9311C11.2295 11.9311 11.6539 12.3699 11.6539 12.9299L11.6539 17.8445L13.7416 17.8445C14.1776 17.8445 14.54 18.1926 14.54 18.6331C14.54 19.0886 14.1776 19.4245 13.7416 19.4245Z"
                     fill="currentColor" fill-opacity="0.85" />
       </g>
</svg>