<?xml version="1.0" encoding="UTF-8"?>
<!--Generator: Apple Native CoreSVG 326-->
<!DOCTYPE svg PUBLIC "-//W3C//DTD SVG 1.1//EN" "http://www.w3.org/Graphics/SVG/1.1/DTD/svg11.dtd">
<svg version="1.1" xmlns="http://www.w3.org/2000/svg" xmlns:xlink="http://www.w3.org/1999/xlink"
       viewBox="0 0 31.7567 24.0271">
       <g>
              <rect height="24.0271" opacity="0" width="31.7567" x="0" y="0" />
              <path d="M27.7176 12.0087C27.7176 18.6277 22.3278 24.0128 15.7014 24.0128C10.6384 24.0128 6.30363 20.8739 4.54508 16.4392C5.34591 16.6671 6.16618 16.4916 6.76737 16.0127C8.29572 19.4213 11.7259 21.7914 15.7014 21.7914C21.1052 21.7914 25.4962 17.4125 25.4962 12.0087C25.4962 6.6049 21.1052 2.22135 15.7014 2.22135C11.7255 2.22135 8.29299 4.59643 6.76516 8.00917C6.16307 7.5318 5.34198 7.35458 4.54129 7.5848C6.29698 3.14203 10.6345 0 15.7014 0C22.3278 0 27.7176 5.38226 27.7176 12.0087Z"
                     fill="currentColor" fill-opacity="0.85" />
              <path d="M4.63623 9.42741L2.00897 11.4366C1.61549 11.7324 1.62526 12.2775 2.00897 12.5733L4.64599 14.5923C5.24564 15.0575 5.99122 14.7904 5.99122 14.0001L5.99122 10.0047C5.99122 9.24132 5.24048 8.96733 4.63623 9.42741Z"
                     fill="currentColor" fill-opacity="0.85" />
              <path d="M15.7014 20.0553C20.1349 20.0553 23.7653 16.4422 23.7653 12.0087C23.7653 7.56545 20.1349 3.95229 15.7014 3.95229C11.2605 3.95229 7.64731 7.56545 7.64731 12.0087C7.64731 16.4422 11.2605 20.0553 15.7014 20.0553ZM14.3588 15.7318C13.7236 15.7318 13.4002 15.3453 13.4002 14.7055L13.4002 9.23719C13.4002 8.67946 13.8131 8.23837 14.3737 8.23837C14.9343 8.23837 15.3512 8.67715 15.3512 9.23719L15.3512 14.1518L17.4464 14.1518C17.8824 14.1518 18.2373 14.4998 18.2373 14.9404C18.2373 15.3958 17.8824 15.7318 17.4464 15.7318Z"
                     fill="currentColor" fill-opacity="0.85" />
       </g>
</svg>