<?xml version="1.0" encoding="UTF-8"?>
<!--Generator: Apple Native CoreSVG 326-->
<!DOCTYPE svg PUBLIC "-//W3C//DTD SVG 1.1//EN" "http://www.w3.org/Graphics/SVG/1.1/DTD/svg11.dtd">
<svg version="1.1" xmlns="http://www.w3.org/2000/svg" xmlns:xlink="http://www.w3.org/1999/xlink"
       viewBox="0 0 24.3741 31.3819">
       <g>
              <rect height="31.3819" opacity="0" width="24.3741" x="0" y="0" />
              <path d="M24.0128 15.6861C24.0128 20.7483 20.8673 25.0874 16.4278 26.8448C16.6632 26.0424 16.4882 25.2187 16.0076 24.615C19.4178 23.0893 21.7914 19.6625 21.7914 15.6861C21.7914 10.2823 17.4079 5.8838 12.0064 5.8838C6.6026 5.8838 2.22135 10.2823 2.22135 15.6861C2.22135 19.662 4.5932 23.0885 8.00307 24.6145C7.52218 25.2191 7.34375 26.0438 7.57671 26.8441C3.13491 25.0858 0 20.7461 0 15.6861C0 9.05963 5.37249 3.66992 12.0064 3.66992C18.623 3.66992 24.0128 9.05963 24.0128 15.6861Z"
                     fill="currentColor" fill-opacity="0.85" />
              <path d="M10.0001 25.3888C9.22979 25.3888 8.96503 26.1493 9.41303 26.7415L11.4343 29.371C11.7301 29.7622 12.2729 29.7571 12.5636 29.371L14.5854 26.7438C15.0552 26.1321 14.7738 25.3888 13.9932 25.3888Z"
                     fill="currentColor" fill-opacity="0.85" />
              <path d="M12.0064 7.6222C7.56545 7.6222 3.95229 11.2451 3.95229 15.6861C3.95229 20.1218 7.56545 23.7327 12.0064 23.7327C16.4399 23.7327 20.053 20.1218 20.053 15.6861C20.053 11.2451 16.4399 7.6222 12.0064 7.6222ZM10.6615 19.4092C10.0263 19.4092 9.69545 19.0226 9.69545 18.3828L9.69545 12.9146C9.69545 12.3568 10.1083 11.9157 10.6689 11.9157C11.2295 11.9157 11.6539 12.3545 11.6539 12.9146L11.6539 17.8292L13.7416 17.8292C14.1776 17.8292 14.54 18.1772 14.54 18.6178C14.54 19.0732 14.1776 19.4092 13.7416 19.4092Z"
                     fill="currentColor" fill-opacity="0.85" />
       </g>
</svg>