<?xml version="1.0" encoding="UTF-8"?>
<!--Generator: Apple Native CoreSVG 326-->
<!DOCTYPE svg PUBLIC "-//W3C//DTD SVG 1.1//EN" "http://www.w3.org/Graphics/SVG/1.1/DTD/svg11.dtd">
<svg version="1.1" xmlns="http://www.w3.org/2000/svg" xmlns:xlink="http://www.w3.org/1999/xlink"
       viewBox="0 0 31.7567 24.0271">
       <g>
              <rect height="24.0271" opacity="0" width="31.7567" x="0" y="0" />
              <path d="M27.7176 12.0087C27.7176 18.6277 22.3278 24.0128 15.7014 24.0128C10.6384 24.0128 6.30363 20.8739 4.54508 16.4392C5.34591 16.6671 6.16618 16.4916 6.76737 16.0127C8.29572 19.4213 11.7259 21.7914 15.7014 21.7914C21.1052 21.7914 25.4962 17.4125 25.4962 12.0087C25.4962 6.6049 21.1052 2.22135 15.7014 2.22135C11.7255 2.22135 8.29299 4.59643 6.76516 8.00917C6.16307 7.5318 5.34198 7.35458 4.54129 7.5848C6.29698 3.14203 10.6345 0 15.7014 0C22.3278 0 27.7176 5.38226 27.7176 12.0087Z"
                     fill="currentColor" fill-opacity="0.85" />
              <path d="M4.63623 9.42741L2.00897 11.4366C1.61549 11.7324 1.62526 12.2775 2.00897 12.5733L4.64599 14.5923C5.24564 15.0575 5.99122 14.7904 5.99122 14.0001L5.99122 10.0047C5.99122 9.24132 5.24048 8.96733 4.63623 9.42741Z"
                     fill="currentColor" fill-opacity="0.85" />
              <path d="M15.7014 20.0553C20.1349 20.0553 23.7653 16.4422 23.7653 12.0087C23.7653 7.56545 20.1349 3.95229 15.7014 3.95229C11.2605 3.95229 7.64731 7.56545 7.64731 12.0087C7.64731 16.4422 11.2605 20.0553 15.7014 20.0553ZM15.7014 17.5281C12.657 17.5281 10.182 15.0531 10.182 12.0087C10.182 8.962 12.657 6.48699 15.7014 6.48699C18.7556 6.48699 21.2306 8.962 21.2306 12.0087C21.2306 15.0531 18.7556 17.5281 15.7014 17.5281ZM14.4449 15.5027L17.3505 15.5027C17.7543 15.5027 18.092 15.184 18.092 14.7607C18.092 14.3523 17.7543 14.0214 17.3505 14.0214L15.3708 14.0214L15.3708 9.40715C15.3708 8.88157 14.9808 8.46747 14.4598 8.46747C13.9262 8.46747 13.5455 8.88387 13.5455 9.40715L13.5455 14.5355C13.5455 15.1408 13.8516 15.5027 14.4449 15.5027Z"
                     fill="currentColor" fill-opacity="0.85" />
       </g>
</svg>