<?xml version="1.0" encoding="UTF-8"?>
<!--Generator: Apple Native CoreSVG 326-->
<!DOCTYPE svg PUBLIC "-//W3C//DTD SVG 1.1//EN" "http://www.w3.org/Graphics/SVG/1.1/DTD/svg11.dtd">
<svg version="1.1" xmlns="http://www.w3.org/2000/svg" xmlns:xlink="http://www.w3.org/1999/xlink"
       viewBox="0 0 19.3993 19.0529">
       <g>
              <rect height="19.0529" opacity="0" width="19.3993" x="0" y="0" />
              <path d="M19.0379 3.63912L19.0379 15.4011C19.0379 17.7262 17.7164 19.0379 15.3896 19.0379L3.64834 19.0379C1.32382 19.0379 0 17.7262 0 15.4011L0 3.63912C0 1.32151 1.32382 0 3.64834 0L15.3896 0C17.7164 0 19.0379 1.32151 19.0379 3.63912ZM6.19153 6.55765L6.19153 12.2923C6.19153 13.4337 6.78808 14.1107 7.83537 14.1107L11.9667 14.1107C12.8199 14.1107 13.3568 13.6479 13.3568 12.8274C13.3568 12.0293 12.8199 11.559 11.9667 11.559L9.49128 11.559L9.49128 6.55765C9.49128 5.42654 8.88727 4.73694 7.83537 4.73694C6.78808 4.73694 6.19153 5.40876 6.19153 6.55765Z"
                     fill="currentColor" fill-opacity="0.85" />
       </g>
</svg>