<?xml version="1.0" encoding="UTF-8"?>
<!--Generator: Apple Native CoreSVG 326-->
<!DOCTYPE svg PUBLIC "-//W3C//DTD SVG 1.1//EN" "http://www.w3.org/Graphics/SVG/1.1/DTD/svg11.dtd">
<svg version="1.1" xmlns="http://www.w3.org/2000/svg" xmlns:xlink="http://www.w3.org/1999/xlink"
       viewBox="0 0 23.868 18.3346">
       <g>
              <rect height="18.3346" opacity="0" width="23.868" x="0" y="0" />
              <path d="M23.5067 3.62814L23.5067 9.89525C23.5067 15.8167 21.0594 18.3346 15.1641 18.3346L8.34257 18.3346C2.44723 18.3346 0 15.8167 0 9.89525L0 3.62814C0 1.32206 1.32151 0.0051558 3.63221 0.0051558L19.8744 0.0051558C22.1851 0.0051558 23.5067 1.32206 23.5067 3.62814ZM13.1898 5.60935L12.3417 6.27014C12.0713 6.46939 11.9346 6.69455 11.9346 7.00068C11.9346 7.46009 12.2492 7.66517 12.5571 7.66517C12.7358 7.66517 12.8633 7.61865 13.0155 7.49576L13.6183 7.02907L13.6183 12.2394C13.6183 12.774 14.0376 13.1858 14.5625 13.1858C15.0851 13.1858 15.5141 12.774 15.5141 12.2394L15.5141 6.19626C15.5141 5.5117 15.0874 5.14412 14.4005 5.14412C13.8957 5.14412 13.5436 5.35381 13.1898 5.60935ZM7.79042 6.08314L7.79042 12.0946C7.79042 12.6954 8.11894 13.0807 8.72483 13.0807L11.135 13.0807C11.5543 13.0807 11.9 12.7275 11.9 12.3157C11.9 11.8867 11.5543 11.5484 11.135 11.5484L9.67646 11.5484L9.67646 6.08314C9.67646 5.55822 9.25951 5.14643 8.74206 5.14643C8.21198 5.14643 7.79042 5.55822 7.79042 6.08314Z"
                     fill="currentColor" fill-opacity="0.85" />
       </g>
</svg>