<?xml version="1.0" encoding="UTF-8"?>
<!--Generator: Apple Native CoreSVG 326-->
<!DOCTYPE svg PUBLIC "-//W3C//DTD SVG 1.1//EN" "http://www.w3.org/Graphics/SVG/1.1/DTD/svg11.dtd">
<svg version="1.1" xmlns="http://www.w3.org/2000/svg" xmlns:xlink="http://www.w3.org/1999/xlink"
       viewBox="0 0 21.365 21.006">
       <g>
              <rect height="21.006" opacity="0" width="21.365" x="0" y="0" />
              <path d="M10.4981 20.9962C16.302 20.9962 21.0037 16.2946 21.0037 10.4981C21.0037 4.70163 16.302 0 10.4981 0C4.70163 0 0 4.70163 0 10.4981C0 16.2946 4.70163 20.9962 10.4981 20.9962ZM10.4981 17.9484C6.37829 17.9484 3.04785 14.6179 3.04785 10.4981C3.04785 6.37829 6.37829 3.04785 10.4981 3.04785C14.6179 3.04785 17.9558 6.37829 17.9558 10.4981C17.9558 14.6179 14.6179 17.9484 10.4981 17.9484Z"
                     fill="currentColor" fill-opacity="0.85" />
              <path d="M7.60845 14.2144L9.90386 14.2144C10.3007 14.2144 10.6339 13.8911 10.6339 13.4919C10.6339 13.095 10.3007 12.7642 9.90386 12.7642L8.5004 12.7642L8.5004 7.55653C8.5004 7.07122 8.11099 6.67435 7.62568 6.67435C7.12545 6.67435 6.72627 7.07122 6.72627 7.55653L6.72627 13.288C6.72627 13.8589 7.03986 14.2144 7.60845 14.2144ZM13.1592 14.3196C13.6543 14.3196 14.0512 13.9227 14.0512 13.4276L14.0512 7.67196C14.0512 7.0247 13.6566 6.67205 13.007 6.67205C12.5223 6.67205 12.1902 6.87427 11.8589 7.1172L11.0458 7.74584C10.7977 7.94225 10.6684 8.15763 10.6684 8.44138C10.6684 8.87841 10.963 9.07087 11.256 9.07087C11.4272 9.07087 11.5398 9.02204 11.6896 8.91638L12.2673 8.46231L12.2673 13.4276C12.2673 13.9227 12.6641 14.3196 13.1592 14.3196Z"
                     fill="currentColor" fill-opacity="0.85" />
       </g>
</svg>