<?xml version="1.0" encoding="UTF-8"?>
<!--Generator: Apple Native CoreSVG 326-->
<!DOCTYPE svg PUBLIC "-//W3C//DTD SVG 1.1//EN" "http://www.w3.org/Graphics/SVG/1.1/DTD/svg11.dtd">
<svg version="1.1" xmlns="http://www.w3.org/2000/svg" xmlns:xlink="http://www.w3.org/1999/xlink"
       viewBox="0 0 19.1892 22.2994">
       <g>
              <rect height="22.2994" opacity="0" width="19.1892" x="0" y="0" />
              <path d="M6.53424 22.2896L15.2003 22.2896C17.4736 22.2896 18.8181 20.9422 18.8181 18.6736L18.8279 3.62299C18.8279 1.37792 17.45 0 15.2072 0L12.1569 0C10.4745 0 9.00124 0.445155 7.64339 1.69788L1.47152 7.36425C0.484763 8.27519 0 9.55084 0 11.0753L0 15.7405C0 19.6785 2.5962 22.2896 6.53424 22.2896ZM6.56584 19.2625C4.12243 19.2625 3.01218 18.1546 3.01218 15.7261L3.01218 11.0948C3.01218 10.2525 3.1398 9.94032 3.55008 9.57141L9.71219 3.91711C10.462 3.23801 11.0895 3.01964 12.1811 3.01964L14.7974 3.01964C15.4232 3.01964 15.8008 3.40699 15.8008 4.03048L15.7985 18.2638C15.7985 18.9483 15.4629 19.2625 14.7905 19.2625Z"
                     fill="currentColor" fill-opacity="0.85" />
              <path d="M6.06834 17.0206L8.29811 17.0206C8.68061 17.0206 9.00166 16.6996 9.00166 16.3096C9.00166 15.9248 8.68061 15.6061 8.29811 15.6061L6.93899 15.6061L6.93899 10.5412C6.93899 10.0702 6.54904 9.68028 6.0781 9.68028C5.58994 9.68028 5.20745 10.0702 5.20745 10.5412L5.20745 16.1132C5.20745 16.6674 5.50897 17.0206 6.06834 17.0206ZM10.3671 17.0109L13.3429 17.0109C13.8046 17.0109 13.9999 16.6916 13.9999 16.3418C13.9999 15.9776 13.8023 15.6652 13.3429 15.6652L11.5922 15.6652L11.5922 15.5871L12.6546 14.3149C13.4061 13.4082 13.8781 12.7166 13.8781 11.7368C13.8781 10.399 12.9585 9.59985 11.666 9.59985C10.5062 9.59985 9.56249 10.4674 9.56249 11.4645C9.56249 11.901 9.81749 12.2175 10.2712 12.2175C10.6238 12.2175 10.8989 12.0434 11.0264 11.6311C11.1328 11.2345 11.2902 10.9283 11.6637 10.9283C12.0912 10.9283 12.2522 11.327 12.2522 11.7954C12.2522 12.4658 11.7989 13.1236 11.2607 13.8037L10.0116 15.3901C9.69636 15.7892 9.56764 16.0362 9.56764 16.3343C9.56764 16.7564 9.84502 17.0109 10.3671 17.0109Z"
                     fill="currentColor" fill-opacity="0.85" />
       </g>
</svg>