<?xml version="1.0" encoding="UTF-8"?>
<!--Generator: Apple Native CoreSVG 326-->
<!DOCTYPE svg PUBLIC "-//W3C//DTD SVG 1.1//EN" "http://www.w3.org/Graphics/SVG/1.1/DTD/svg11.dtd">
<svg version="1.1" xmlns="http://www.w3.org/2000/svg" xmlns:xlink="http://www.w3.org/1999/xlink"
       viewBox="0 0 23.868 18.3346">
       <g>
              <rect height="18.3346" opacity="0" width="23.868" x="0" y="0" />
              <path d="M23.5067 8.44448L23.5067 14.7093C23.5067 17.0154 22.1851 18.3346 19.8744 18.3346L3.63221 18.3346C1.32151 18.3346 0 17.0177 0 14.7093L0 8.44448C0 2.52305 2.44723 0.0051558 8.34257 0.0051558L15.1641 0.0051558C21.0594 0.0051558 23.5067 2.52305 23.5067 8.44448ZM7.10374 6.03595L7.10374 12.1395C7.10374 12.7523 7.43225 13.1274 8.04275 13.1274L10.488 13.1274C10.9171 13.1274 11.2651 12.7845 11.2651 12.3555C11.2651 11.9264 10.9171 11.5835 10.488 11.5835L9.01107 11.5835L9.01107 6.03595C9.01107 5.52134 8.57974 5.09232 8.05252 5.09232C7.5253 5.09232 7.10374 5.52134 7.10374 6.03595ZM11.8765 7.05873C11.8765 7.52451 12.151 7.87025 12.6484 7.87025C13.0401 7.87025 13.3399 7.68415 13.4772 7.23506C13.5979 6.79997 13.7599 6.45981 14.172 6.45981C14.6483 6.45981 14.8185 6.89993 14.8185 7.41138C14.8185 8.13756 14.3267 8.86834 13.7322 9.61162L12.3744 11.3481C12.015 11.7914 11.8794 12.0527 11.8794 12.3727C11.8794 12.8413 12.1786 13.1176 12.7518 13.1176L16.0166 13.1176C16.5248 13.1176 16.7345 12.7765 16.7345 12.3876C16.7345 11.9867 16.5225 11.6501 16.0166 11.6501L14.1038 11.6501L14.1038 11.5623L15.253 10.1717C16.0821 9.16556 16.5983 8.42567 16.5983 7.35048C16.5983 5.88631 15.5909 5.01189 14.1818 5.01189C12.9151 5.01189 11.8765 5.94951 11.8765 7.05873Z"
                     fill="currentColor" fill-opacity="0.85" />
       </g>
</svg>