<?xml version="1.0" encoding="UTF-8"?>
<!--Generator: Apple Native CoreSVG 326-->
<!DOCTYPE svg PUBLIC "-//W3C//DTD SVG 1.1//EN" "http://www.w3.org/Graphics/SVG/1.1/DTD/svg11.dtd">
<svg version="1.1" xmlns="http://www.w3.org/2000/svg" xmlns:xlink="http://www.w3.org/1999/xlink"
       viewBox="0 0 27.0075 18.9522">
       <g>
              <rect height="18.9522" opacity="0" width="27.0075" x="0" y="0" />
              <path d="M26.6462 10.5174L26.6462 4.02127C26.6462 1.77852 25.2781 0.408052 23.033 0.408052L3.60861 0.410357C1.37562 0.410357 0 1.78313 0 4.02819L0 10.5174C0 13.3749 1.30781 15.2261 4.21366 16.0871L12.6035 18.5555C15.0781 19.2867 16.8017 18.9857 19.0097 17.8289L24.4085 14.9992C26.1477 14.0865 26.6462 12.8683 26.6462 10.5174ZM23.6266 10.5174C23.6266 11.6046 23.3904 12.1573 22.5917 12.5652L17.3865 15.26C15.8635 16.0499 14.8885 16.1884 12.9617 15.6053L5.12028 13.2546C3.53801 12.7847 3.01964 12.0261 3.01964 10.5174L3.01964 4.43052C3.01964 3.80243 3.40238 3.42254 4.01841 3.42254L22.6255 3.41278C23.2415 3.41278 23.6266 3.79782 23.6266 4.42361Z"
                     fill="currentColor" fill-opacity="0.85" />
              <path d="M9.63352 12.5012L11.9289 12.5012C12.3258 12.5012 12.6589 12.1681 12.6589 11.7712C12.6589 11.3744 12.3258 11.0487 11.9289 11.0487L10.5255 11.0487L10.5255 5.84332C10.5255 5.35801 10.1286 4.96114 9.64328 4.96114C9.14821 4.96114 8.75134 5.35801 8.75134 5.84332L8.75134 11.5725C8.75134 12.1434 9.06493 12.5012 9.63352 12.5012ZM15.6331 12.6747C17.0594 12.6747 18.0762 11.8331 18.0762 10.4578C18.0762 9.45576 17.5005 8.80783 16.6951 8.70501L16.6951 8.66595C17.3278 8.49872 17.8568 7.82938 17.8568 6.95685C17.8568 5.66142 16.9158 4.90485 15.5716 4.90485C14.6255 4.90485 13.7242 5.40411 13.4656 6.28071C13.4145 6.43642 13.3875 6.6122 13.3875 6.78568C13.3875 7.12056 13.5949 7.48122 14.1175 7.48122C14.4742 7.48122 14.8015 7.35942 14.9141 6.96024C15.0032 6.60789 15.1963 6.26664 15.594 6.26664C16.0371 6.26664 16.2055 6.69985 16.2055 7.14294C16.2055 7.65439 15.9865 8.13467 15.3958 8.13467L15.2958 8.13467C14.8593 8.13467 14.6318 8.36959 14.6318 8.74177C14.6318 9.11626 14.8467 9.35634 15.2958 9.35634L15.4131 9.35634C16.0566 9.35634 16.3589 9.70857 16.3589 10.359C16.3589 10.824 16.1468 11.3083 15.6181 11.3083C15.1962 11.3083 14.9807 11.0089 14.8612 10.6813C14.7286 10.2867 14.4615 10.0909 14.0744 10.0909C13.5965 10.0909 13.2904 10.3752 13.2904 10.8553C13.2904 11.0386 13.3122 11.2144 13.3685 11.3706C13.6368 12.2266 14.5784 12.6747 15.6331 12.6747Z"
                     fill="currentColor" fill-opacity="0.85" />
       </g>
</svg>