<?xml version="1.0" encoding="UTF-8"?>
<!--Generator: Apple Native CoreSVG 326-->
<!DOCTYPE svg PUBLIC "-//W3C//DTD SVG 1.1//EN" "http://www.w3.org/Graphics/SVG/1.1/DTD/svg11.dtd">
<svg version="1.1" xmlns="http://www.w3.org/2000/svg" xmlns:xlink="http://www.w3.org/1999/xlink"
       viewBox="0 0 21.365 21.006">
       <g>
              <rect height="21.006" opacity="0" width="21.365" x="0" y="0" />
              <path d="M21.0037 10.5079C21.0037 16.3043 16.302 21.006 10.4981 21.006C4.70394 21.006 0 16.3043 0 10.5079C0 4.7137 4.70394 0.00976562 10.4981 0.00976562C16.302 0.00976562 21.0037 4.7137 21.0037 10.5079ZM14.6287 7.67287L13.4703 8.57744C13.3466 8.52497 13.2586 8.53243 13.1798 8.57325C12.4215 8.92712 11.5206 9.10696 10.4981 9.10696C9.46811 9.10696 8.56725 8.92712 7.81408 8.57325C7.73529 8.53012 7.64958 8.52497 7.53336 8.57744L6.36755 7.67287C6.08326 7.45979 5.75014 7.43795 5.52959 7.69756C5.33604 7.93248 5.37225 8.31267 5.65424 8.51599L6.57099 9.23119C6.28603 9.71783 6.10103 10.3056 6.0183 10.8814L5.2288 10.8912C4.87845 10.8986 4.65275 11.1169 4.65275 11.4551C4.65275 11.7762 4.87845 12.0042 5.2288 12.0042L5.94709 12.0042C5.98154 12.7701 6.16138 13.4728 6.46764 14.0738L5.83615 14.6082C5.56162 14.831 5.51048 15.194 5.7138 15.4392C5.92458 15.6862 6.26001 15.6891 6.53454 15.4513L7.09767 14.983C7.70666 15.669 8.52479 16.1166 9.50553 16.2929C9.83186 16.3446 10.0622 16.2027 10.0622 15.912L10.0622 10.5596C10.0622 10.3046 10.2408 10.1283 10.4981 10.1283C10.7531 10.1283 10.9317 10.3046 10.9317 10.5596L10.9317 15.912C10.9317 16.2027 11.1644 16.3446 11.4907 16.2929C12.4691 16.1166 13.2896 15.669 13.8962 14.983L14.4617 15.4513C14.7362 15.6891 15.0843 15.6862 15.2824 15.4392C15.4857 15.194 15.4346 14.831 15.1601 14.6082L14.5263 14.0738C14.8348 13.4728 15.0147 12.7701 15.0491 12.0042L15.7651 12.0042C16.1178 12.0042 16.3435 11.7762 16.3435 11.4551C16.3435 11.1169 16.1178 10.8986 15.7651 10.8912L14.9756 10.8814C14.8952 10.3056 14.7079 9.71783 14.4252 9.23119L15.342 8.51599C15.6217 8.31267 15.6602 7.93248 15.4643 7.69756C15.2438 7.43795 14.913 7.45979 14.6287 7.67287ZM9.2142 13.3958C9.2142 13.8984 8.80229 14.3183 8.3094 14.3183C7.80674 14.3183 7.38451 13.8984 7.38451 13.3958C7.38451 12.9155 7.80674 12.4933 8.3094 12.4933C8.80975 12.4933 9.2142 12.9304 9.2142 13.3958ZM13.6094 13.3958C13.6094 13.8984 13.1895 14.3183 12.6845 14.3183C12.1939 14.3183 11.782 13.8984 11.782 13.3958C11.782 12.9304 12.1865 12.4933 12.6845 12.4933C13.1895 12.4933 13.6094 12.9155 13.6094 13.3958ZM8.96776 10.857C8.96776 11.2913 8.58174 11.6745 8.13998 11.6745C7.70338 11.6745 7.32998 11.2913 7.32998 10.857C7.32998 10.4153 7.70338 10.0419 8.13998 10.0419C8.58174 10.0419 8.96776 10.4153 8.96776 10.857ZM13.6662 10.857C13.6662 11.2913 13.3003 11.6745 12.8562 11.6745C12.4145 11.6745 12.0262 11.2913 12.0262 10.857C12.0262 10.4153 12.4145 10.0419 12.8562 10.0419C13.3003 10.0419 13.6662 10.4153 13.6662 10.857ZM8.29029 5.2527L8.57646 5.33489C8.73393 5.3734 8.78221 5.45043 8.76783 5.55391L8.73338 5.66309C8.06295 6.06349 7.6924 6.66841 7.6924 7.36407C7.6924 7.63696 7.79236 7.8145 8.22599 8.06259C8.76432 8.35841 9.60537 8.50204 10.4981 8.50204C11.3885 8.50204 12.2296 8.35841 12.7679 8.06259C13.2015 7.8145 13.3015 7.63696 13.3015 7.36407C13.3015 6.66841 12.931 6.05602 12.2554 5.65563L12.2209 5.55391C12.2042 5.45043 12.2451 5.3734 12.4123 5.33489L12.6962 5.2527C13.3923 5.09129 13.0517 4.0104 12.3533 4.24532L11.9787 4.36142C11.5346 4.51997 11.2589 4.81755 11.2112 5.24954L11.2038 5.30583C10.9682 5.26501 10.7429 5.24833 10.4981 5.24833C10.251 5.24833 10.0033 5.26501 9.78267 5.30583L9.77752 5.24954C9.7299 4.82731 9.45416 4.51997 8.99287 4.36142L8.64294 4.24532C7.93709 3.99548 7.59651 5.09129 8.29029 5.2527Z"
                     fill="currentColor" fill-opacity="0.85" />
       </g>
</svg>