<?xml version="1.0" encoding="UTF-8"?>
<!--Generator: Apple Native CoreSVG 326-->
<!DOCTYPE svg PUBLIC "-//W3C//DTD SVG 1.1//EN" "http://www.w3.org/Graphics/SVG/1.1/DTD/svg11.dtd">
<svg version="1.1" xmlns="http://www.w3.org/2000/svg" xmlns:xlink="http://www.w3.org/1999/xlink"
       viewBox="0 0 24.1488 24.6381">
       <g>
              <rect height="24.6381" opacity="0" width="24.1488" x="0" y="0" />
              <path d="M4.97248 21.9098L3.85845 22.8495C3.3083 23.3163 2.60312 23.3106 2.17355 22.8001C1.75375 22.2895 1.86117 21.5746 2.40671 21.11L3.68519 20.0293C4.03145 20.7277 4.46318 21.3579 4.97248 21.9098ZM21.3785 21.11C21.9263 21.5746 22.0337 22.2895 21.6139 22.8001C21.1918 23.3106 20.4769 23.3163 19.929 22.8495L18.8162 21.9119C19.3256 21.3598 19.7573 20.7296 20.1034 20.031ZM2.61707 15.2494L2.63721 15.8066L1.21343 15.8155C0.491557 15.8155 0 15.3561 0 14.683C0 14.0123 0.491557 13.5454 1.21112 13.5454L2.75979 13.5358C2.66397 14.1272 2.61707 14.71 2.61707 15.2494ZM22.5764 13.5454C23.2936 13.5454 23.7875 14.0123 23.7875 14.683C23.7875 15.3561 23.2936 15.8155 22.5741 15.8155L21.1503 15.8066C21.1663 15.6256 21.1704 15.4386 21.1704 15.2494C21.1704 14.71 21.1235 14.1272 21.0277 13.5358ZM3.48487 7.01028L5.55524 8.62942C5.38132 8.66398 5.19358 8.7464 5.01104 8.89687C4.58847 9.23624 4.22446 9.67949 3.9181 10.189L2.0429 8.72733C1.48243 8.28515 1.38017 7.55297 1.80743 7.05965C2.22723 6.54911 2.90718 6.55833 3.48487 7.01028ZM21.9801 7.05965C22.4073 7.55297 22.3051 8.28515 21.7446 8.72733L19.8694 10.189C19.563 9.67949 19.199 9.23624 18.7764 8.89687C18.5939 8.7464 18.4062 8.66398 18.2322 8.62942L20.3026 7.01028C20.8803 6.55833 21.5603 6.54911 21.9801 7.05965Z"
                     fill="currentColor" fill-opacity="0.85" />
              <path d="M18.7764 8.89687C20.4121 10.2105 21.1704 13.0804 21.1704 15.2494C21.1704 20.205 18.3368 23.767 13.9286 24.5429C13.272 24.6657 12.7908 24.3717 12.7908 23.7743L12.7908 12.952C12.7908 12.4513 12.3934 12.0561 11.8926 12.0561C11.3918 12.0561 10.9967 12.4513 10.9967 12.952L10.9967 23.7743C10.9967 24.3717 10.5229 24.6657 9.85885 24.5429C5.4582 23.767 2.61707 20.205 2.61707 15.2494C2.61707 13.0804 3.37539 10.2105 5.01104 8.89687C5.42945 8.55198 5.87515 8.56459 6.11941 8.691C7.66917 9.55935 9.62217 9.97697 11.8926 9.97697C14.1653 9.97697 16.1183 9.55935 17.6681 8.691C17.9123 8.56459 18.358 8.55198 18.7764 8.89687ZM6.72991 20.4662C6.72991 21.1365 7.28303 21.6747 7.95334 21.6747C8.62596 21.6747 9.16416 21.1365 9.16416 20.4662C9.16416 19.8034 8.62596 19.2502 7.95334 19.2502C7.28303 19.2502 6.72991 19.8034 6.72991 20.4662ZM14.6233 20.4662C14.6233 21.1365 15.169 21.6747 15.8341 21.6747C16.5045 21.6747 17.0576 21.1365 17.0576 20.4662C17.0576 19.8034 16.5045 19.2502 15.8341 19.2502C15.169 19.2502 14.6233 19.8034 14.6233 20.4662ZM5.08413 16.4543C5.08413 17.3343 5.79811 18.0483 6.68327 18.0483C7.5512 18.0483 8.26002 17.3343 8.26002 16.4543C8.26002 15.6013 7.5512 14.8873 6.68327 14.8873C5.79811 14.8873 5.08413 15.5938 5.08413 16.4543ZM15.5275 16.4543C15.5275 17.3343 16.2363 18.0483 17.1117 18.0483C17.9894 18.0483 18.7034 17.3343 18.7034 16.4543C18.7034 15.5938 17.9894 14.8873 17.1117 14.8873C16.2363 14.8873 15.5275 15.6013 15.5275 16.4543ZM6.24691 12.2909C6.24691 13.0393 6.87069 13.6775 7.6312 13.6775C8.39171 13.6775 9.0178 13.0416 9.0178 12.2909C9.0178 11.5304 8.39171 10.8968 7.6312 10.8968C6.87069 10.8968 6.24691 11.5304 6.24691 12.2909ZM14.7697 12.2909C14.7697 13.0416 15.3958 13.6775 16.1638 13.6775C16.9168 13.6775 17.5406 13.0393 17.5406 12.2909C17.5406 11.5304 16.9168 10.8968 16.1638 10.8968C15.3958 10.8968 14.7697 11.5304 14.7697 12.2909Z"
                     fill="currentColor" fill-opacity="0.85" />
              <path d="M6.1848 6.41979C6.1848 6.97698 6.36749 7.34237 7.276 7.8494C8.3726 8.45189 10.0832 8.76209 11.8926 8.76209C13.7043 8.76209 15.4149 8.45189 16.5115 7.8494C17.42 7.34237 17.6027 6.97698 17.6027 6.41979C17.6027 4.04007 15.4825 2.09981 11.8926 2.09981C8.30503 2.09981 6.1848 4.04007 6.1848 6.41979ZM7.43158 2.15046L7.99119 2.31253C8.32159 2.40679 8.413 2.53441 8.35725 2.73445L8.158 3.49362L10.4068 3.4764L10.4751 2.77691C10.5975 1.5909 10.0163 0.70126 8.84802 0.307239L8.14368 0.0693457C6.69194-0.4119 5.98675 1.75534 7.43158 2.15046ZM16.341 2.15046C17.7858 1.75534 17.0806-0.4119 15.6289 0.0693457L14.9245 0.307239C13.7563 0.70126 13.1751 1.5909 13.2974 2.77691L13.3658 3.4764L15.6146 3.49362L15.4079 2.73445C15.3596 2.53441 15.4435 2.40679 15.7814 2.31253Z"
                     fill="currentColor" fill-opacity="0.85" />
       </g>
</svg>