<?xml version="1.0" encoding="UTF-8"?>
<!--Generator: Apple Native CoreSVG 326-->
<!DOCTYPE svg PUBLIC "-//W3C//DTD SVG 1.1//EN" "http://www.w3.org/Graphics/SVG/1.1/DTD/svg11.dtd">
<svg version="1.1" xmlns="http://www.w3.org/2000/svg" xmlns:xlink="http://www.w3.org/1999/xlink"
       viewBox="0 0 20.6998 25.0943">
       <g>
              <rect height="25.0943" opacity="0" width="20.6998" x="0" y="0" />
              <path d="M11.8227 13.9091L19.6814 6.04286C20.8875 4.83908 20.3488 3.09085 18.6868 2.56539C16.7916 1.95816 14.5852 1.75254 12.1157 1.87433L11.8951 1.64906C10.612 0.352108 8.7315 0.305585 7.40241 1.62261C6.07792 2.96893 6.11698 4.92576 7.43631 6.14743L7.65413 6.35318C7.53233 8.85021 7.73795 11.0147 8.32565 12.8898C8.8758 14.6459 10.6986 15.028 11.8227 13.9091ZM10.5649 12.1193C10.4758 12.2084 10.3689 12.2113 10.2919 11.9859C9.79207 10.3739 9.65305 8.46728 9.82653 6.1706C9.84606 5.72897 9.66457 5.28217 9.32344 4.97034L8.87884 4.56479C8.44387 4.17635 8.4295 3.61268 8.91614 3.12658C9.4097 2.6474 9.94123 2.65201 10.3469 3.09904L10.7524 3.54365C11.074 3.8997 11.5627 4.08864 12.0165 4.03697C14.2419 3.80095 16.1434 4.03697 17.7479 4.53162C17.9738 4.60865 17.9859 4.71322 17.894 4.80517ZM15.252 13.1839C17.2876 13.1839 19.0458 11.4654 19.0458 9.41716C19.0458 8.35119 18.5794 7.29959 17.7082 6.54546L16.6596 8.61395C16.8228 8.87993 16.8981 9.15743 16.8981 9.43208C16.8981 10.3106 16.1357 11.046 15.267 11.046C14.9774 11.046 14.6901 10.9707 14.4316 10.8247L12.5497 12.033C13.3193 12.8209 14.2871 13.1839 15.252 13.1839ZM7.67451 3.50665L9.23992 1.86542L7.78739 0.422652C7.34521-0.0195312 6.64979-0.0120705 6.20014 0.422652C5.76026 0.86253 5.75796 1.55795 6.20014 2.0076ZM2.36049 15.1536L9.12407 8.94028L8.51302 6.27402L0.736486 13.4141ZM2.01584 15.8235C3.1415 15.8235 4.03169 14.9356 4.03169 13.8076C4.03169 12.6894 3.13404 11.7918 2.01584 11.7918C0.887884 11.7918 0 12.682 0 13.8076C0 14.9356 0.887884 15.8235 2.01584 15.8235ZM6.19705 19.5365L7.87734 17.8487L2.23299 12.2187L0.547542 13.9117ZM6.5124 20.567C7.64036 20.567 8.52824 19.6958 8.52824 18.5512C8.52824 17.433 7.62829 16.5353 6.5124 16.5353C5.38444 16.5353 4.49656 17.4255 4.49656 18.5512C4.49656 19.6866 5.38444 20.567 6.5124 20.567ZM5.31105 23.6428L7.70399 23.6428L7.70399 18.2993L5.31105 18.2993ZM1.24988 25.0943L12.9387 25.0943C13.5835 25.0943 13.9321 24.5621 13.9321 23.9052C13.9321 22.9191 13.0511 22.2672 11.9529 22.2672L2.24312 22.2672C1.13742 22.2672 0.263914 22.9191 0.263914 23.9052C0.263914 24.5621 0.605044 25.0943 1.24988 25.0943Z"
                     fill="currentColor" fill-opacity="0.85" />
       </g>
</svg>