<?xml version="1.0" encoding="UTF-8"?>
<!--Generator: Apple Native CoreSVG 326-->
<!DOCTYPE svg PUBLIC "-//W3C//DTD SVG 1.1//EN" "http://www.w3.org/Graphics/SVG/1.1/DTD/svg11.dtd">
<svg version="1.1" xmlns="http://www.w3.org/2000/svg" xmlns:xlink="http://www.w3.org/1999/xlink"
       viewBox="0 0 19.9003 25.0195">
       <g>
              <rect height="25.0195" opacity="0" width="19.9003" x="0" y="0" />
              <path d="M11.2448 13.245L19.1341 5.35575C19.9066 4.5856 19.5149 3.55936 18.3984 3.20846C16.5803 2.63514 14.444 2.42436 11.8045 2.58061L11.3242 2.0785C10.3822 1.07792 8.98419 1.07792 7.96354 2.06413C6.94233 3.05494 6.96756 4.51955 7.97791 5.44716L8.4651 5.90044C8.31401 8.54056 8.5001 10.6791 9.06596 12.4967C9.44154 13.6453 10.458 14.0244 11.2448 13.245ZM8.70372 4.41394L10.3134 2.80947L8.14751 0.685536C7.70532 0.243353 7.0099 0.235892 6.56026 0.685536C6.12784 1.11795 6.11061 1.82084 6.56026 2.27048ZM15.741 12.8312C17.3728 12.8312 18.7209 11.4958 18.7209 9.87602C18.7209 9.22864 18.5112 8.60079 18.0941 8.07005L13.935 12.2217C14.4583 12.6365 15.0936 12.8312 15.741 12.8312ZM2.36049 15.0489L9.51148 8.47869L8.70584 5.99549L0.736486 13.3095ZM2.01584 15.7188C3.1415 15.7188 4.03169 14.8309 4.03169 13.7029C4.03169 12.5847 3.13404 11.6871 2.01584 11.6871C0.887884 11.6871 0 12.5773 0 13.7029C0 14.8309 0.887884 15.7188 2.01584 15.7188ZM6.19705 19.4318L7.87734 17.7463L2.23299 12.114L0.547542 13.807ZM6.5124 20.4623C7.63806 20.4623 8.52824 19.5819 8.52824 18.4465C8.52824 17.3283 7.62829 16.4306 6.5124 16.4306C5.38444 16.4306 4.49656 17.3208 4.49656 18.4465C4.49656 19.5819 5.38444 20.4623 6.5124 20.4623ZM5.31105 23.2769L7.70399 23.2769L7.70399 18.1946L5.31105 18.1946ZM1.24988 25.0195L12.9387 25.0195C13.5835 25.0195 13.9321 24.4798 13.9321 23.8303C13.9321 22.8442 13.0511 22.1849 11.9529 22.1849L2.24312 22.1849C1.13742 22.1849 0.263914 22.8442 0.263914 23.8303C0.263914 24.4798 0.605044 25.0195 1.24988 25.0195Z"
                     fill="currentColor" fill-opacity="0.85" />
       </g>
</svg>