<?xml version="1.0" encoding="UTF-8"?>
<!--Generator: Apple Native CoreSVG 326-->
<!DOCTYPE svg PUBLIC "-//W3C//DTD SVG 1.1//EN" "http://www.w3.org/Graphics/SVG/1.1/DTD/svg11.dtd">
<svg version="1.1" xmlns="http://www.w3.org/2000/svg" xmlns:xlink="http://www.w3.org/1999/xlink"
       viewBox="0 0 16.1286 25.3083">
       <g>
              <rect height="25.3083" opacity="0" width="16.1286" x="0" y="0" />
              <path d="M7.88851 14.0835C10.1466 14.0835 12.3082 13.9491 14.0814 13.6802C15.5634 13.4602 16.0981 12.3396 15.5668 10.7044L12.9364 2.5478C12.4327 0.956122 11.134 0.157767 9.25867 0.157767L6.50858 0.157767C4.63328 0.157767 3.33457 0.956122 2.83082 2.5478L0.200474 10.7044C-0.330813 12.3396 0.203871 13.4602 1.68582 13.6802C3.4591 13.9491 5.62816 14.0835 7.88851 14.0835ZM6.62001 12.9048L6.62001 24.5823L9.16217 24.5823L9.16217 12.9048ZM3.34476 25.3083L12.4225 25.3083C13.0449 25.3083 13.4756 24.8455 13.4756 24.211C13.4756 23.1555 12.6165 22.429 11.3754 22.429L4.39187 22.429C3.15078 22.429 2.30142 23.1555 2.30142 24.211C2.30142 24.8455 2.72231 25.3083 3.34476 25.3083Z"
                     fill="currentColor" fill-opacity="0.85" />
       </g>
</svg>