<?xml version="1.0" encoding="UTF-8"?>
<!--Generator: Apple Native CoreSVG 326-->
<!DOCTYPE svg PUBLIC "-//W3C//DTD SVG 1.1//EN" "http://www.w3.org/Graphics/SVG/1.1/DTD/svg11.dtd">
<svg version="1.1" xmlns="http://www.w3.org/2000/svg" xmlns:xlink="http://www.w3.org/1999/xlink"
       viewBox="0 0 16.4787 25.3509">
       <g>
              <rect height="25.3509" opacity="0" width="16.4787" x="0" y="0" />
              <path d="M8.05986 14.2838C10.2955 14.2838 12.472 14.1494 14.2826 13.8731C15.8839 13.6382 16.4709 12.4057 15.9097 10.6735L13.2794 2.51686C12.7458 0.858041 11.3874 0 9.43748 0L6.67994 0C4.73003 0 3.37163 0.858041 2.83804 2.51686L0.207692 10.6735C-0.353438 12.4057 0.233471 13.6382 1.83479 13.8731C3.64537 14.1494 5.8219 14.2838 8.05986 14.2838ZM8.05986 11.9082C6.24061 11.9082 4.46502 11.8031 2.83677 11.6181C2.54817 11.5968 2.48958 11.4037 2.58098 11.0956L5.01954 3.41154C5.23845 2.7163 5.80728 2.36583 6.67994 2.36583L9.43748 2.36583C10.3101 2.36583 10.879 2.7163 11.1002 3.41154L13.5364 11.0956C13.6278 11.4037 13.5693 11.5968 13.2806 11.6181C11.6524 11.8031 9.87681 11.9082 8.05986 11.9082ZM6.79136 12.926L6.79136 24.6036L9.33352 24.6036L9.33352 12.926ZM3.51612 25.3296L12.6013 25.3296C13.2163 25.3296 13.647 24.8668 13.647 24.2323C13.647 23.1767 12.7878 22.4503 11.5542 22.4503L4.56322 22.4503C3.3296 22.4503 2.48023 23.1767 2.48023 24.2323C2.48023 24.8668 2.90112 25.3296 3.51612 25.3296Z"
                     fill="currentColor" fill-opacity="0.85" />
       </g>
</svg>