<?xml version="1.0" encoding="UTF-8"?>
<!--Generator: Apple Native CoreSVG 326-->
<!DOCTYPE svg PUBLIC "-//W3C//DTD SVG 1.1//EN" "http://www.w3.org/Graphics/SVG/1.1/DTD/svg11.dtd">
<svg version="1.1" xmlns="http://www.w3.org/2000/svg" xmlns:xlink="http://www.w3.org/1999/xlink"
       viewBox="0 0 21.0924 24.6969">
       <g>
              <rect height="24.6969" opacity="0" width="21.0924" x="0" y="0" />
              <path d="M10.3865 6.62067C13.1722 6.62067 15.5673 4.79608 15.687 2.52554C15.7365 1.62546 15.2466 1.01999 14.2518 0.735698C11.9695 0.107847 8.8035 0.107847 6.5235 0.735698C5.52128 1.01999 5.03882 1.62546 5.08085 2.52554C5.20059 4.79608 7.60081 6.62067 10.3865 6.62067ZM9.22476 9.8469L11.5506 9.8469L11.5506 5.19034L9.22476 5.19034ZM10.3618 24.6969C16.6101 24.6969 20.7601 22.7492 20.7308 19.755L20.7308 19.6057C20.655 16.8353 18.2212 13.4957 15.1091 11.8857C14.4302 9.86098 12.5072 8.46231 10.3618 8.46231C8.22393 8.46231 6.29343 9.86098 5.61457 11.8857C2.5145 13.486 0.0852815 16.821 0.00024178 19.5867L0.00024178 19.755C-0.0365158 22.7492 4.12097 24.6969 10.3618 24.6969ZM2.38209 19.755C2.38439 18.2807 5.62712 17.1927 10.3618 17.1927C15.1063 17.1927 18.3467 18.2807 18.349 19.755C18.3467 21.227 15.1063 22.3225 10.3618 22.3225C5.62712 22.3225 2.38439 21.227 2.38209 19.755ZM10.3618 20.6889C12.2264 20.6889 13.8458 19.7145 14.0473 18.461C12.9519 18.2823 11.6807 18.1772 10.3618 18.1772C9.04291 18.1772 7.77174 18.2823 6.67635 18.461C6.87779 19.7145 8.50471 20.6889 10.3618 20.6889Z"
                     fill="currentColor" fill-opacity="0.85" />
       </g>
</svg>