<?xml version="1.0" encoding="UTF-8"?>
<!--Generator: Apple Native CoreSVG 326-->
<!DOCTYPE svg PUBLIC "-//W3C//DTD SVG 1.1//EN" "http://www.w3.org/Graphics/SVG/1.1/DTD/svg11.dtd">
<svg version="1.1" xmlns="http://www.w3.org/2000/svg" xmlns:xlink="http://www.w3.org/1999/xlink"
       viewBox="0 0 31.0173 24.6473">
       <g>
              <rect height="24.6473" opacity="0" width="31.0173" x="0" y="0" />
              <path d="M6.60559 6.85225C6.55531 6.96806 6.53042 7.11228 6.53042 7.28679L6.53042 17.8572L17.6134 17.8572L20.9524 21.1954L1.67053 21.1954C0.766633 21.1954 0 20.4362 0 19.5226C0 18.6089 0.766633 17.8572 1.67053 17.8572L3.51077 17.8572L3.51077 6.58621C3.51077 5.68755 3.74744 4.9619 4.18954 4.43682ZM27.1377 6.58621L27.1377 17.8572L28.978 17.8572C29.8893 17.8572 30.6559 18.6089 30.6559 19.5226C30.6559 20.4362 29.8893 21.1954 28.978 21.1954L27.2589 21.1954C27.1719 21.052 27.0655 20.9172 26.9417 20.7931L24.0062 17.8572L24.1181 17.8572L24.1181 7.28679C24.1181 6.70656 23.8429 6.4612 23.2999 6.4612L12.6115 6.4612L9.5922 3.44156L23.9884 3.44156C25.9875 3.44156 27.1377 4.58487 27.1377 6.58621Z"
                     fill="currentColor" fill-opacity="0.85" />
              <path d="M24.7362 23.0015C25.0739 23.3415 25.6219 23.3266 25.9498 22.994C26.2801 22.6638 26.2899 22.1204 25.9521 21.7804L5.89158 1.71753C5.55385 1.3798 4.99842 1.37749 4.66069 1.71753C4.33788 2.03804 4.33788 2.60093 4.66069 2.9312Z"
                     fill="currentColor" fill-opacity="0.85" />
       </g>
</svg>