<?xml version="1.0" encoding="UTF-8"?>
<!--Generator: Apple Native CoreSVG 326-->
<!DOCTYPE svg PUBLIC "-//W3C//DTD SVG 1.1//EN" "http://www.w3.org/Graphics/SVG/1.1/DTD/svg11.dtd">
<svg version="1.1" xmlns="http://www.w3.org/2000/svg" xmlns:xlink="http://www.w3.org/1999/xlink"
       viewBox="0 0 21.365 21.006">
       <g>
              <rect height="21.006" opacity="0" width="21.365" x="0" y="0" />
              <path d="M21.0037 10.4981C21.0037 16.2923 16.302 20.9962 10.4981 20.9962C4.70394 20.9962 0 16.2923 0 10.4981C0 4.70163 4.70394 0 10.4981 0C16.302 0 21.0037 4.70163 21.0037 10.4981ZM11.2277 5.26252L11.2277 6.12135C11.0329 6.09205 10.8358 6.08975 10.6313 6.08975C10.4515 6.08975 10.2814 6.09205 10.1015 6.11389L10.1015 5.26252C10.1015 5.10451 9.97228 4.97525 9.81197 4.97525C9.66888 4.97525 9.53962 5.10451 9.53962 5.26252L9.53962 6.20584C7.7072 6.59714 6.24545 7.9753 6.24545 9.96397C6.24545 11.2545 6.77534 12.6001 7.98082 13.2826L7.98082 13.3417L7.0247 13.3417C6.46315 13.3417 6.12378 13.6392 6.12378 14.1462C6.12378 14.6756 6.46315 14.9702 7.0247 14.9702L13.6702 14.9702C14.2467 14.9702 14.5958 14.6532 14.5958 14.1164C14.5958 13.5646 14.2467 13.2499 13.6702 13.2499L11.3672 13.2499C9.53883 13.2499 8.18348 11.9696 8.18348 10.3211C8.18348 9.23446 8.67715 8.38067 9.53962 8.00321L9.53962 10.0735C9.53962 10.2338 9.66888 10.3556 9.81197 10.3556C9.97228 10.3556 10.1015 10.2338 10.1015 10.0735L10.1015 7.82281C10.2814 7.79352 10.4664 7.77168 10.6612 7.77168C10.8582 7.77168 11.0478 7.79352 11.2277 7.83258L11.2277 10.0735C11.2277 10.2338 11.3592 10.3556 11.5149 10.3556C11.6753 10.3556 11.7994 10.2338 11.7994 10.0735L11.7994 8.02504C12.4293 8.30552 12.8863 8.85045 13.0148 9.56831C13.1216 10.0169 13.4013 10.4154 13.9422 10.4154C14.5055 10.4154 14.9069 10.0892 14.9069 9.52355C14.9046 8.12276 13.5771 6.68842 11.7994 6.2403L11.7994 5.26252C11.7994 5.10451 11.6753 4.97525 11.5149 4.97525C11.3592 4.97525 11.2277 5.10451 11.2277 5.26252Z"
                     fill="currentColor" fill-opacity="0.85" />
       </g>
</svg>