<?xml version="1.0" encoding="UTF-8"?>
<!--Generator: Apple Native CoreSVG 326-->
<!DOCTYPE svg PUBLIC "-//W3C//DTD SVG 1.1//EN" "http://www.w3.org/Graphics/SVG/1.1/DTD/svg11.dtd">
<svg version="1.1" xmlns="http://www.w3.org/2000/svg" xmlns:xlink="http://www.w3.org/1999/xlink"
       viewBox="0 0 24.6449 23.5952">
       <g>
              <rect height="23.5952" opacity="0" width="24.6449" x="0" y="0" />
              <path d="M13.7186 0.416404L22.6254 5.55167C23.136 5.85374 23.3841 6.25686 23.3841 6.69158C23.3841 7.28595 22.9074 7.89293 22.1092 7.89293L21.3244 7.89293L21.3244 19.392L21.7032 19.392C22.2379 19.392 22.5744 19.7159 22.5744 20.2632L22.5744 21.1701L23.0673 21.1701C23.7134 21.1701 24.2836 21.7231 24.2836 22.3766C24.2836 23.0525 23.7134 23.5854 23.0673 23.5854L1.20651 23.5854C0.553002 23.5854 0 23.045 0 22.3766C0 21.7231 0.553002 21.1701 1.20651 21.1701L1.94045 21.1701L1.94045 20.2632C1.94045 19.7159 2.27927 19.392 2.81396 19.392L3.19045 19.392L3.19045 7.89293L2.41314 7.89293C1.60745 7.89293 1.13081 7.28595 1.13081 6.69158C1.13081 6.25686 1.37659 5.85374 1.88944 5.55167L10.7963 0.416404C11.242 0.154491 11.7664 0 12.2563 0C12.7462 0 13.2683 0.154491 13.7186 0.416404ZM12.9956 7.72225L12.9956 8.57362C12.7934 8.55178 12.5963 8.54717 12.3918 8.54717C12.2119 8.54717 12.0493 8.55178 11.8695 8.56616L11.8695 7.72225C11.8695 7.56193 11.7402 7.43498 11.5799 7.43498C11.4294 7.43498 11.3001 7.56193 11.3001 7.72225L11.3001 8.66557C9.46769 9.05456 8.00594 10.435 8.00594 12.4214C8.00594 13.7119 8.53583 15.0575 9.7413 15.7349L9.7413 15.8015L8.78518 15.8015C8.22363 15.8015 7.88942 16.0989 7.88942 16.6059C7.88942 17.1279 8.22363 17.4299 8.78518 17.4299L15.4307 17.4299C16.0071 17.4299 16.3563 17.113 16.3563 16.5686C16.3563 16.0243 16.0071 15.7096 15.4307 15.7096L13.1277 15.7096C11.2993 15.7096 9.94396 14.4293 9.94396 12.7734C9.94396 11.6867 10.4451 10.8329 11.3001 10.4629L11.3001 12.5332C11.3001 12.6935 11.4294 12.8078 11.5799 12.8078C11.7402 12.8078 11.8695 12.6935 11.8695 12.5332L11.8695 10.2728C12.0493 10.2509 12.2343 10.2239 12.4216 10.2239C12.6187 10.2239 12.8158 10.2509 12.9956 10.2923L12.9956 12.5332C12.9956 12.6935 13.1272 12.8078 13.2754 12.8078C13.4357 12.8078 13.5598 12.6935 13.5598 12.5332L13.5598 10.4773C14.1898 10.7652 14.6542 11.3102 14.7753 12.0206C14.8821 12.4691 15.1618 12.8751 15.7027 12.8751C16.266 12.8751 16.6674 12.5489 16.6674 11.9758C16.6651 10.5825 15.3451 9.14815 13.5598 8.69256L13.5598 7.72225C13.5598 7.56193 13.4357 7.43498 13.2754 7.43498C13.1272 7.43498 12.9956 7.56193 12.9956 7.72225Z"
                     fill="currentColor" fill-opacity="0.85" />
       </g>
</svg>