<?xml version="1.0" encoding="UTF-8"?>
<!--Generator: Apple Native CoreSVG 326-->
<!DOCTYPE svg PUBLIC "-//W3C//DTD SVG 1.1//EN" "http://www.w3.org/Graphics/SVG/1.1/DTD/svg11.dtd">
<svg version="1.1" xmlns="http://www.w3.org/2000/svg" xmlns:xlink="http://www.w3.org/1999/xlink"
       viewBox="0 0 19.3993 19.0529">
       <g>
              <rect height="19.0529" opacity="0" width="19.3993" x="0" y="0" />
              <path d="M19.0379 3.63912L19.0379 15.4011C19.0379 17.7262 17.7164 19.0379 15.3896 19.0379L3.64834 19.0379C1.32382 19.0379 0 17.7262 0 15.4011L0 3.63912C0 1.32151 1.32382 0 3.64834 0L15.3896 0C17.7164 0 19.0379 1.32151 19.0379 3.63912ZM10.343 4.28596L10.343 5.14479C10.1407 5.11549 9.94365 5.11319 9.74658 5.11319C9.56674 5.11319 9.39666 5.11549 9.21681 5.13733L9.21681 4.28596C9.21681 4.12795 9.08755 3.99869 8.92724 3.99869C8.77669 3.99869 8.64743 4.12795 8.64743 4.28596L8.64743 5.22928C6.82247 5.62057 5.35326 6.99874 5.35326 8.98741C5.35326 10.2779 5.88315 11.6235 7.09094 12.306L7.09094 12.3652L6.13251 12.3652C5.57096 12.3652 5.23905 12.6626 5.23905 13.1696C5.23905 13.699 5.57096 13.9937 6.13251 13.9937L12.778 13.9937C13.3619 13.9937 13.7036 13.6767 13.7036 13.1398C13.7036 12.588 13.3619 12.2733 12.778 12.2733L10.4774 12.2733C8.64664 12.2733 7.29129 10.993 7.29129 9.34455C7.29129 8.2579 7.79243 7.40411 8.64743 7.02664L8.64743 9.09689C8.64743 9.25721 8.77669 9.379 8.92724 9.379C9.08755 9.379 9.21681 9.25721 9.21681 9.09689L9.21681 6.84625C9.39666 6.81696 9.58166 6.79512 9.76896 6.79512C9.9758 6.79512 10.1631 6.81696 10.343 6.85602L10.343 9.09689C10.343 9.25721 10.4745 9.379 10.6302 9.379C10.7928 9.379 10.9072 9.25721 10.9072 9.09689L10.9072 7.04848C11.5371 7.32895 12.0015 7.87389 12.1227 8.59175C12.2294 9.0403 12.5166 9.43881 13.05 9.43881C13.6208 9.43881 14.0147 9.1126 14.0147 8.54698C14.0124 7.14619 12.6924 5.71186 10.9072 5.26373L10.9072 4.28596C10.9072 4.12795 10.7928 3.99869 10.6302 3.99869C10.4745 3.99869 10.343 4.12795 10.343 4.28596Z"
                     fill="currentColor" fill-opacity="0.85" />
       </g>
</svg>