<?xml version="1.0" encoding="UTF-8"?>
<!--Generator: Apple Native CoreSVG 326-->
<!DOCTYPE svg PUBLIC "-//W3C//DTD SVG 1.1//EN" "http://www.w3.org/Graphics/SVG/1.1/DTD/svg11.dtd">
<svg version="1.1" xmlns="http://www.w3.org/2000/svg" xmlns:xlink="http://www.w3.org/1999/xlink"
       viewBox="0 0 19.3993 19.0529">
       <g>
              <rect height="19.0529" opacity="0" width="19.3993" x="0" y="0" />
              <path d="M3.64834 19.0379L15.3896 19.0379C17.7164 19.0379 19.0379 17.7262 19.0379 15.4011L19.0379 3.63912C19.0379 1.32151 17.7164 0 15.3896 0L3.64834 0C1.32382 0 0 1.32151 0 3.63912L0 15.4011C0 17.7262 1.32382 19.0379 3.64834 19.0379ZM4.05583 16.0183C3.37024 16.0183 3.01964 15.7096 3.01964 14.9775L3.01964 4.07021C3.01964 3.33809 3.37024 3.0271 4.05583 3.0271L14.9821 3.0271C15.6654 3.0271 16.0183 3.33809 16.0183 4.07021L16.0183 14.9775C16.0183 15.7096 15.6654 16.0183 14.9821 16.0183Z"
                     fill="currentColor" fill-opacity="0.85" />
              <path d="M6.25716 13.6807L12.4938 13.6807C13.0381 13.6807 13.3551 13.3884 13.3551 12.8837C13.3551 12.3715 13.0381 12.0792 12.4938 12.0792L10.3362 12.0792C8.62087 12.0792 7.34187 10.8799 7.34187 9.31987C7.34187 7.90161 8.24189 6.92777 9.67197 6.92777C10.7697 6.92777 11.6927 7.57279 11.8907 8.61644C11.99 9.038 12.2525 9.41182 12.7538 9.41182C13.2775 9.41182 13.6467 9.1103 13.6467 8.58659C13.6444 6.9817 11.8325 5.34974 9.64959 5.34974C7.48259 5.34974 5.54221 6.76709 5.54221 8.98741C5.54221 10.1993 6.02788 11.4662 7.17422 12.1045L7.17422 12.1636L6.25716 12.1636C5.73521 12.1636 5.42799 12.4387 5.42799 12.921C5.42799 13.4034 5.73521 13.6807 6.25716 13.6807ZM8.88193 9.35432C9.03248 9.35432 9.15427 9.23252 9.15427 9.08943L9.15427 4.5742C9.15427 4.43341 9.03248 4.31162 8.88193 4.31162C8.74115 4.31162 8.61935 4.43341 8.61935 4.5742L8.61935 9.08943C8.61935 9.23252 8.74115 9.35432 8.88193 9.35432ZM10.4815 9.35432C10.6269 9.35432 10.7464 9.23252 10.7464 9.08943L10.7464 4.5742C10.7464 4.43341 10.6269 4.31162 10.4815 4.31162C10.3333 4.31162 10.2115 4.43341 10.2115 4.5742L10.2115 9.08943C10.2115 9.23252 10.3333 9.35432 10.4815 9.35432Z"
                     fill="currentColor" fill-opacity="0.85" />
       </g>
</svg>