<?xml version="1.0" encoding="UTF-8"?>
<!--Generator: Apple Native CoreSVG 326-->
<!DOCTYPE svg PUBLIC "-//W3C//DTD SVG 1.1//EN" "http://www.w3.org/Graphics/SVG/1.1/DTD/svg11.dtd">
<svg version="1.1" xmlns="http://www.w3.org/2000/svg" xmlns:xlink="http://www.w3.org/1999/xlink"
       viewBox="0 0 25.2719 24.9278">
       <g>
              <rect height="24.9278" opacity="0" width="25.2719" x="0" y="0" />
              <path d="M1.08878 11.3702C0.481791 11.3702 0 11.8543 0 12.459C0 13.0637 0.481791 13.5455 1.08878 13.5455L23.8315 13.5455C24.4385 13.5455 24.9105 13.0637 24.9105 12.459C24.9105 11.8543 24.4385 11.3702 23.8315 11.3702ZM13.5455 1.08647C13.5455 0.479487 13.0637 0 12.459 0C11.8469 0 11.3702 0.479487 11.3702 1.08647L11.3702 23.8292C11.3702 24.4339 11.8469 24.918 12.459 24.918C13.0637 24.918 13.5455 24.4339 13.5455 23.8292ZM17.288 3.64919C17.5143 3.07896 17.2489 2.46221 16.7006 2.23597C16.1429 2.01718 15.5038 2.2578 15.2753 2.81365L7.62999 21.2688C7.40374 21.8316 7.66159 22.4558 8.20998 22.682C8.78251 22.9008 9.41188 22.6527 9.64274 22.102ZM22.4116 4.02247C22.8348 3.60958 22.8348 2.93369 22.407 2.51104C21.9918 2.09069 21.301 2.093 20.8881 2.51104L2.49151 20.8783C2.06601 21.3084 2.08323 21.9843 2.5185 22.3995C2.92623 22.8198 3.60958 22.8325 4.02993 22.407ZM22.1118 9.64043C22.6602 9.41188 22.9008 8.77505 22.6723 8.22951C22.4558 7.67651 21.8316 7.41351 21.2688 7.63975L2.79873 15.2753C2.25034 15.5038 2.01718 16.1332 2.24573 16.6885C2.46221 17.2415 3.07896 17.5022 3.64919 17.2759ZM21.2688 17.288C21.8167 17.5143 22.4311 17.2415 22.682 16.6885C22.9008 16.1332 22.6401 15.5136 22.0848 15.285L3.64919 7.62999C3.10135 7.40374 2.47944 7.67651 2.23597 8.22951C2.01718 8.78251 2.27788 9.40212 2.83319 9.63067ZM20.8881 22.4093C21.3159 22.8348 21.9768 22.8348 22.407 22.3995C22.8273 21.9918 22.8348 21.3205 22.407 20.8978L4.02993 2.49897C3.60958 2.06601 2.93369 2.09069 2.5185 2.51104C2.09815 2.92623 2.07577 3.59751 2.51104 4.02016ZM15.2753 22.1118C15.5038 22.67 16.1452 22.9008 16.6885 22.6723C17.2415 22.4558 17.5022 21.8367 17.2759 21.2786L9.64274 2.79873C9.41188 2.24804 8.78021 2.01718 8.22951 2.24573C7.67651 2.46221 7.41351 3.0692 7.64206 3.63943Z"
                     fill="currentColor" fill-opacity="0.85" />
       </g>
</svg>