<?xml version="1.0" encoding="UTF-8"?>
<!--Generator: Apple Native CoreSVG 326-->
<!DOCTYPE svg PUBLIC "-//W3C//DTD SVG 1.1//EN" "http://www.w3.org/Graphics/SVG/1.1/DTD/svg11.dtd">
<svg version="1.1" xmlns="http://www.w3.org/2000/svg" xmlns:xlink="http://www.w3.org/1999/xlink"
       viewBox="0 0 24.9981 21.0395">
       <g>
              <rect height="21.0395" opacity="0" width="24.9981" x="0" y="0" />
              <path d="M1.68054 11.8603L22.9562 11.8603L22.9562 9.55012L1.68054 9.55012ZM6.55031 13.0266L8.82297 13.0266C9.76254 13.0266 10.3173 12.4667 10.3173 11.5294L10.3173 9.87815C10.3173 8.94835 9.76254 8.38613 8.82297 8.38613L6.55031 8.38613C5.61305 8.38613 5.06575 8.94835 5.06575 9.87815L5.06575 11.5294C5.06575 12.4667 5.61305 13.0266 6.55031 13.0266ZM15.8115 13.0266L18.0841 13.0266C19.0237 13.0266 19.5784 12.4667 19.5784 11.5294L19.5784 9.87815C19.5784 8.94835 19.0237 8.38613 18.0841 8.38613L15.8115 8.38613C14.8719 8.38613 14.3246 8.94835 14.3246 9.87815L14.3246 11.5294C14.3246 12.4667 14.8719 13.0266 15.8115 13.0266ZM3.60697 21.0297L21.0372 21.0297C23.3497 21.0297 24.6367 19.7473 24.6367 17.4394L24.6367 7.69125C24.6367 5.38341 23.3497 4.10096 21.0372 4.10096L3.60697 4.10096C1.28937 4.10096 0 5.38341 0 7.69125L0 17.4394C0 19.7473 1.28937 21.0297 3.60697 21.0297ZM3.85033 18.2735C3.3111 18.2735 3.01964 17.9866 3.01964 17.4359L3.01964 7.70223C3.01964 7.15378 3.3111 6.85717 3.85033 6.85717L20.7939 6.85717C21.3256 6.85717 21.6171 7.15378 21.6171 7.70223L21.6171 17.4359C21.6171 17.9866 21.3256 18.2735 20.7939 18.2735ZM6.68339 4.72675L9.27886 4.72675L9.27886 3.17729C9.27886 2.6067 9.58402 2.30615 10.1592 2.30615L14.4775 2.30615C15.0527 2.30615 15.3556 2.61416 15.3556 3.17729L15.3556 4.72214L17.9585 4.72214L17.9585 2.82961C17.9585 0.948904 16.8574 0 14.7914 0L9.8281 0C7.79261 0 6.68339 0.948904 6.68339 2.82961Z"
                     fill="currentColor" fill-opacity="0.85" />
       </g>
</svg>