<?xml version="1.0" encoding="UTF-8"?>
<!--Generator: Apple Native CoreSVG 326-->
<!DOCTYPE svg PUBLIC "-//W3C//DTD SVG 1.1//EN" "http://www.w3.org/Graphics/SVG/1.1/DTD/svg11.dtd">
<svg version="1.1" xmlns="http://www.w3.org/2000/svg" xmlns:xlink="http://www.w3.org/1999/xlink"
       viewBox="0 0 24.9981 21.0395">
       <g>
              <rect height="21.0395" opacity="0" width="24.9981" x="0" y="0" />
              <path d="M0 11.8603L0 9.55012L4.41667 9.55012L4.41667 9.47527C4.55096 8.79167 5.06096 8.38613 5.85647 8.38613L8.12913 8.38613C8.91201 8.38613 9.42947 8.79167 9.56376 9.47527L9.56376 9.55012L15.0707 9.55012L15.0707 9.47527C15.205 8.79167 15.715 8.38613 16.5128 8.38613L18.7854 8.38613C19.5683 8.38613 20.0932 8.79167 20.2201 9.47527L20.2201 9.55012L24.6367 9.55012L24.6367 11.8603L20.2201 11.8603L20.2201 11.9323C20.0932 12.6234 19.5683 13.0266 18.7854 13.0266L16.5128 13.0266C15.715 13.0266 15.205 12.6234 15.0707 11.9323L15.0707 11.8603L9.56376 11.8603L9.56376 11.9323C9.42947 12.6234 8.91201 13.0266 8.12913 13.0266L5.85647 13.0266C5.06096 13.0266 4.55096 12.6234 4.41667 11.9323L4.41667 11.8603ZM3.60697 21.0297L21.0372 21.0297C23.3497 21.0297 24.6367 19.7473 24.6367 17.4394L24.6367 7.69125C24.6367 5.38341 23.3497 4.10096 21.0372 4.10096L3.60697 4.10096C1.28937 4.10096 0 5.38341 0 7.69125L0 17.4394C0 19.7473 1.28937 21.0297 3.60697 21.0297ZM6.68339 4.72675L9.27886 4.72675L9.27886 3.17729C9.27886 2.6067 9.58402 2.30615 10.1592 2.30615L14.4775 2.30615C15.0527 2.30615 15.3556 2.61416 15.3556 3.17729L15.3556 4.72214L17.9585 4.72214L17.9585 2.82961C17.9585 0.948904 16.8574 0 14.7914 0L9.8281 0C7.79261 0 6.68339 0.948904 6.68339 2.82961Z"
                     fill="currentColor" fill-opacity="0.85" />
       </g>
</svg>