<?xml version="1.0" encoding="UTF-8"?>
<!--Generator: Apple Native CoreSVG 326-->
<!DOCTYPE svg PUBLIC "-//W3C//DTD SVG 1.1//EN" "http://www.w3.org/Graphics/SVG/1.1/DTD/svg11.dtd">
<svg version="1.1" xmlns="http://www.w3.org/2000/svg" xmlns:xlink="http://www.w3.org/1999/xlink"
       viewBox="0 0 11.1957 22.4451">
       <g>
              <rect height="22.4451" opacity="0" width="11.1957" x="0" y="0" />
              <path d="M7.32168 20.3289C6.65083 20.2726 5.82087 20.496 5.24536 20.8859C5.05521 21.0255 5.02591 21.2334 5.19423 21.4046C5.68591 21.9094 6.47911 22.2868 7.17465 22.3482C7.89719 22.4338 8.73691 22.1886 9.29003 21.7228C9.44628 21.5855 9.44859 21.3971 9.30956 21.253C8.81273 20.7407 8.01953 20.3754 7.32168 20.3289ZM9.39485 16.849C9.00028 17.4096 8.74989 18.2321 8.78434 18.9179C8.83087 19.633 9.17145 20.4359 9.65676 20.9081C9.79117 21.0546 9.97727 21.0546 10.1117 20.9058C10.6119 20.3894 10.8991 19.5422 10.8181 18.8025C10.7716 18.1092 10.4137 17.316 9.91121 16.8146C9.74234 16.6388 9.53672 16.656 9.39485 16.849ZM4.51555 17.6003C3.87399 17.3752 3.01474 17.378 2.34849 17.6186C2.12619 17.7019 2.06013 17.8828 2.16986 18.0931C2.52197 18.7105 3.19513 19.2889 3.85161 19.5289C4.5104 19.8058 5.38688 19.7685 6.05543 19.4371C6.23351 19.3464 6.2898 19.185 6.18984 19.0092C5.86242 18.3843 5.18926 17.8232 4.51555 17.6003ZM7.41012 14.7725C6.88575 15.1906 6.42743 15.9275 6.2827 16.6036C6.12591 17.2939 6.25856 18.1532 6.61176 18.7557C6.70481 18.9412 6.8909 18.9855 7.06438 18.8683C7.66742 18.4817 8.16019 17.75 8.27277 17.0251C8.40488 16.3342 8.255 15.4675 7.90926 14.8655C7.79899 14.6507 7.59106 14.6139 7.41012 14.7725ZM0.00134502 13.7016C0.0720093 14.4023 0.443649 15.2007 0.945639 15.6855C1.44532 16.2121 2.26091 16.535 2.99321 16.5023C3.20344 16.4971 3.32578 16.3552 3.29649 16.145C3.23613 15.4299 2.84957 14.6609 2.34012 14.2054C1.84559 13.7304 1.05185 13.3806 0.358609 13.3421C0.124234 13.3277-0.0153353 13.4696 0.00134502 13.7016ZM6.14168 12.7797C5.47028 12.9504 4.75981 13.4323 4.35317 13.9957C3.94193 14.5666 3.72193 15.4092 3.79368 16.1042C3.80575 16.3121 3.96255 16.4172 4.16532 16.3954C4.89301 16.2736 5.63508 15.8014 6.01473 15.1817C6.41906 14.6165 6.64137 13.7665 6.55008 13.0635C6.53516 12.8291 6.36629 12.7165 6.14168 12.7797ZM4.21239 10.4946C3.64896 10.9477 3.21587 11.6996 3.12107 12.3877C3.09177 12.5858 3.20435 12.73 3.39736 12.7547C4.1222 12.8264 4.96477 12.5553 5.50867 12.0602C6.04512 11.5973 6.47304 10.8357 6.58508 10.1425C6.60691 9.90524 6.4748 9.75876 6.2525 9.76106C5.54719 9.75767 4.72415 10.0563 4.21239 10.4946ZM0.0633356 9.09591C-0.0474831 9.78399 0.116228 10.6386 0.480953 11.2584C0.833607 11.8902 1.55153 12.4237 2.25969 12.5651C2.45786 12.6087 2.61411 12.5036 2.64856 12.3009C2.75192 11.6248 2.57844 10.7702 2.20625 10.1654C1.85645 9.59505 1.17298 9.06661 0.506186 8.83169C0.278725 8.75126 0.0977883 8.85407 0.0633356 9.09591ZM4.80919 7.07903C4.1481 7.30419 3.47494 7.85555 3.13259 8.46782C3.03263 8.64645 3.09869 8.82739 3.26701 8.91297C3.92064 9.24203 4.80227 9.27933 5.48575 9.0025C6.14914 8.74289 6.82461 8.16969 7.15257 7.54481C7.26976 7.34665 7.19625 7.16571 6.97394 7.08243C6.32031 6.85157 5.4559 6.84642 4.80919 7.07903ZM1.40111 4.34884C1.05021 4.96056 0.91525 5.82497 1.04505 6.51075C1.17486 7.23328 1.65271 7.97019 2.27528 8.3516C2.45161 8.46879 2.61532 8.41996 2.72044 8.23672C3.06387 7.62445 3.19653 6.76004 3.04719 6.08688C2.8927 5.39365 2.43208 4.6642 1.90255 4.23627C1.72392 4.09955 1.51599 4.14607 1.40111 4.34884ZM6.67375 4.14716C5.98567 4.27697 5.24646 4.74505 4.82544 5.31364C4.70826 5.47274 4.74501 5.65368 4.90872 5.76856C5.50837 6.17575 6.37508 6.33309 7.07809 6.13207C7.76617 5.98274 8.50539 5.51235 8.92871 4.96329C9.07519 4.77259 9.03613 4.57442 8.82359 4.47161C8.21648 4.14771 7.36184 4.01505 6.67375 4.14716ZM3.68845 0.960293C3.25942 1.52549 2.98951 2.37267 3.02857 3.07337C3.03833 3.78844 3.41337 4.58164 3.96989 5.0561C4.1313 5.20027 4.31969 5.17328 4.44204 5.00957C4.86875 4.45184 5.13121 3.61958 5.06746 2.92634C5.02094 2.23541 4.6752 1.44451 4.19965 0.940762C4.02848 0.764981 3.83032 0.777051 3.68845 0.960293ZM9.10054 0.00380813C8.41477 0.0693166 7.62848 0.440956 7.1288 0.930876C6.63657 1.42826 6.28446 2.22145 6.24595 2.90723C6.23388 3.11747 6.34876 3.24958 6.55899 3.24727C7.28899 3.25528 8.08734 2.89801 8.57957 2.35696C9.05972 1.85728 9.41929 1.06123 9.47734 0.355917C9.48195 0.116386 9.34238-0.0254887 9.10054 0.00380813Z"
                     fill="currentColor" fill-opacity="0.85" />
       </g>
</svg>