<?xml version="1.0" encoding="UTF-8"?>
<!--Generator: Apple Native CoreSVG 326-->
<!DOCTYPE svg PUBLIC "-//W3C//DTD SVG 1.1//EN" "http://www.w3.org/Graphics/SVG/1.1/DTD/svg11.dtd">
<svg version="1.1" xmlns="http://www.w3.org/2000/svg" xmlns:xlink="http://www.w3.org/1999/xlink"
       viewBox="0 0 23.868 18.3346">
       <g>
              <rect height="18.3346" opacity="0" width="23.868" x="0" y="0" />
              <path d="M23.5067 3.62814L23.5067 9.89525C23.5067 15.8167 21.0594 18.3346 15.1641 18.3346L8.34257 18.3346C2.44723 18.3346 0 15.8167 0 9.89525L0 3.62814C0 1.32206 1.32151 0.0051558 3.63221 0.0051558L19.8744 0.0051558C22.1851 0.0051558 23.5067 1.32206 23.5067 3.62814ZM12.7472 5.28084C12.0868 5.28084 11.7978 5.70009 11.7978 6.26177L11.7978 12.0946C11.7978 12.6707 12.0965 13.083 12.7472 13.083L14.8226 13.083C16.1502 13.083 16.8615 12.0905 16.8615 10.8387C16.8615 9.89143 16.2405 9.02229 15.3897 8.9717L15.3897 8.92803C16.1594 8.80107 16.6896 8.04045 16.6896 7.2265C16.6896 5.99373 15.9342 5.28084 14.7468 5.28084ZM6.84886 6.08314L6.84886 12.0946C6.84886 12.6954 7.17737 13.0807 7.78096 13.0807L10.1911 13.0807C10.6029 13.0807 10.9584 12.735 10.9584 12.3157C10.9584 11.8867 10.6029 11.5484 10.1911 11.5484L8.72744 11.5484L8.72744 6.08314C8.72744 5.56568 8.29842 5.14643 7.79303 5.14643C7.27042 5.14643 6.84886 5.56568 6.84886 6.08314ZM14.9857 10.667C14.9857 11.2715 14.7541 11.7328 14.1594 11.7328L13.677 11.7328L13.677 9.64025L14.1375 9.64025C14.7064 9.64025 14.9857 10.0584 14.9857 10.667ZM14.9219 7.53834C14.9219 8.10947 14.6684 8.48178 14.0875 8.48178L13.677 8.48178L13.677 6.63341L14.1674 6.63341C14.7357 6.63341 14.9219 7.00287 14.9219 7.53834Z"
                     fill="currentColor" fill-opacity="0.85" />
       </g>
</svg>