<?xml version="1.0" encoding="UTF-8"?>
<!--Generator: Apple Native CoreSVG 326-->
<!DOCTYPE svg PUBLIC "-//W3C//DTD SVG 1.1//EN" "http://www.w3.org/Graphics/SVG/1.1/DTD/svg11.dtd">
<svg version="1.1" xmlns="http://www.w3.org/2000/svg" xmlns:xlink="http://www.w3.org/1999/xlink"
       viewBox="0 0 23.868 18.3346">
       <g>
              <rect height="18.3346" opacity="0" width="23.868" x="0" y="0" />
              <path d="M8.34257 18.3346L15.1641 18.3346C21.0594 18.3346 23.5067 15.8167 23.5067 9.89525L23.5067 3.62814C23.5067 1.32206 22.1851 0.0051558 19.8744 0.0051558L3.63221 0.0051558C1.32151 0.0051558 0 1.32206 0 3.62814L0 9.89525C0 15.8167 2.44723 18.3346 8.34257 18.3346ZM8.48433 15.3149C4.62102 15.3149 3.01964 13.6935 3.01964 9.87353L3.01964 4.05923C3.01964 3.39601 3.3857 3.03226 4.04431 3.03226L19.4623 3.03226C20.1089 3.03226 20.487 3.39601 20.487 4.05923L20.487 9.87353C20.487 13.6935 18.8782 15.3149 15.02 15.3149Z"
                     fill="currentColor" fill-opacity="0.85" />
              <path d="M7.97318 12.881L10.2709 12.881C10.6678 12.881 11.0009 12.5554 11.0009 12.1585C11.0009 11.7616 10.6678 11.4285 10.2709 11.4285L8.86743 11.4285L8.86743 6.22313C8.86743 5.73552 8.47802 5.33864 7.99041 5.33864C7.49018 5.33864 7.0933 5.73552 7.0933 6.22313L7.0933 11.9523C7.0933 12.5232 7.40689 12.881 7.97318 12.881ZM12.6949 12.881L14.6683 12.881C15.9356 12.881 16.6073 11.9407 16.6073 10.7515C16.6073 9.84666 16.0236 9.02975 15.2153 8.97686L15.2153 8.93549C15.9448 8.816 16.4527 8.09037 16.4527 7.31888C16.4527 6.14865 15.7247 5.4656 14.5948 5.4656L12.6949 5.4656C12.0793 5.4656 11.8053 5.86247 11.8053 6.3943L11.8053 11.9523C11.8053 12.4911 12.0816 12.881 12.6949 12.881ZM13.5748 8.50932L13.5748 6.74356L14.0452 6.74356C14.5911 6.74356 14.7721 7.1004 14.7721 7.60833C14.7721 8.15193 14.5238 8.50932 13.9802 8.50932ZM13.5748 11.6031L13.5748 9.6081L14.0205 9.6081C14.5641 9.6081 14.836 10.0062 14.836 10.597C14.836 11.1716 14.6118 11.6031 14.0371 11.6031Z"
                     fill="currentColor" fill-opacity="0.85" />
       </g>
</svg>