<?xml version="1.0" encoding="UTF-8"?>
<!--Generator: Apple Native CoreSVG 326-->
<!DOCTYPE svg PUBLIC "-//W3C//DTD SVG 1.1//EN" "http://www.w3.org/Graphics/SVG/1.1/DTD/svg11.dtd">
<svg version="1.1" xmlns="http://www.w3.org/2000/svg" xmlns:xlink="http://www.w3.org/1999/xlink"
       viewBox="0 0 21.365 21.006">
       <g>
              <rect height="21.006" opacity="0" width="21.365" x="0" y="0" />
              <path d="M21.0037 10.4981C21.0037 16.2923 16.302 20.9962 10.4981 20.9962C4.70394 20.9962 0 16.2923 0 10.4981C0 4.70163 4.70394 0 10.4981 0C16.302 0 21.0037 4.70163 21.0037 10.4981ZM5.77561 7.53021L5.77561 13.3241C5.77561 13.9002 6.09436 14.2655 6.6681 14.2655L8.99675 14.2655C9.39132 14.2655 9.7319 13.9398 9.7319 13.5303C9.7319 13.1237 9.39132 12.7928 8.99675 12.7928L7.57497 12.7928L7.57497 7.53021C7.57497 7.03744 7.17064 6.63541 6.67787 6.63541C6.17994 6.63541 5.77561 7.03744 5.77561 7.53021ZM11.4489 6.76006C10.8183 6.76006 10.5392 7.16209 10.5392 7.70138L10.5392 13.3241C10.5392 13.8755 10.8206 14.2655 11.4489 14.2655L13.4503 14.2655C14.7233 14.2655 15.4099 13.3148 15.4099 12.1078C15.4099 11.2024 14.8137 10.3655 13.995 10.3149L13.995 10.2712C14.74 10.1517 15.2478 9.41576 15.2478 8.63397C15.2478 7.44826 14.5148 6.76006 13.3693 6.76006ZM13.6134 11.9458C13.6134 12.5257 13.3818 12.9697 12.8117 12.9697L12.3391 12.9697L12.3391 10.9513L12.7899 10.9513C13.334 10.9513 13.6134 11.362 13.6134 11.9458ZM13.5421 8.93834C13.5421 9.48479 13.2961 9.83987 12.7398 9.83987L12.3391 9.83987L12.3391 8.06556L12.8197 8.06556C13.3633 8.06556 13.5421 8.42009 13.5421 8.93834Z"
                     fill="currentColor" fill-opacity="0.85" />
       </g>
</svg>