<?xml version="1.0" encoding="UTF-8"?>
<!--Generator: Apple Native CoreSVG 326-->
<!DOCTYPE svg PUBLIC "-//W3C//DTD SVG 1.1//EN" "http://www.w3.org/Graphics/SVG/1.1/DTD/svg11.dtd">
<svg version="1.1" xmlns="http://www.w3.org/2000/svg" xmlns:xlink="http://www.w3.org/1999/xlink"
       viewBox="0 0 21.365 21.006">
       <g>
              <rect height="21.006" opacity="0" width="21.365" x="0" y="0" />
              <path d="M21.0037 10.4981C21.0037 16.2923 16.302 20.9962 10.4981 20.9962C4.70394 20.9962 0 16.2923 0 10.4981C0 4.70163 4.70394 0 10.4981 0C16.302 0 21.0037 4.70163 21.0037 10.4981ZM5.62561 6.77443C5.53772 7.21104 5.47166 7.80904 5.47166 8.21174C5.47166 11.543 7.48569 13.749 10.5366 13.749C11.9883 13.749 12.8587 13.1544 13.3503 12.6499C13.6664 13.1377 13.829 13.6369 14.0582 14.3212C14.1242 14.5435 14.3052 14.6664 14.5114 14.6664C14.8882 14.6664 15.2012 14.3287 15.2012 13.8984C15.2012 13.2734 14.2804 12.1923 13.8242 11.7701C11.8372 9.91921 8.84717 11.0703 8.17037 9.12631C8.13416 9.02459 8.22326 8.97225 8.32444 9.03436C10.0574 10.3907 11.8814 9.3451 13.675 11.0105C13.891 11.219 14.1712 11.1162 14.2326 10.8727C14.2596 10.7435 14.2619 10.5585 14.2619 10.3608C14.2619 8.24104 12.8286 7.04975 10.5636 7.04975C9.84381 7.04975 8.99881 7.25022 8.35483 7.25022C7.69701 7.25022 6.97369 7.20709 6.32455 6.57803C6.06209 6.32303 5.69166 6.39479 5.62561 6.77443Z"
                     fill="currentColor" fill-opacity="0.85" />
       </g>
</svg>