<?xml version="1.0" encoding="UTF-8"?>
<!--Generator: Apple Native CoreSVG 326-->
<!DOCTYPE svg PUBLIC "-//W3C//DTD SVG 1.1//EN" "http://www.w3.org/Graphics/SVG/1.1/DTD/svg11.dtd">
<svg version="1.1" xmlns="http://www.w3.org/2000/svg" xmlns:xlink="http://www.w3.org/1999/xlink"
       viewBox="0 0 22.7659 19.3908">
       <g>
              <rect height="19.3908" opacity="0" width="22.7659" x="0" y="0" />
              <path d="M0.313046 1.2264C0.0855857 2.23742 0 3.60339 0 4.53968C0 12.2174 4.63667 17.2804 11.6951 17.2804C16.5469 17.2804 18.5586 14.343 19.1697 13.5101L16.9865 13.2868C18.5993 15.0029 19.0612 16.3839 19.7505 18.577C19.9194 19.1129 20.3163 19.3908 20.8073 19.3908C21.6941 19.3908 22.4045 18.6166 22.4045 17.6155C22.4045 16.1858 20.2919 13.6928 19.2263 12.7008C14.6356 8.43465 7.74893 11.0969 6.211 6.65191C6.12135 6.40194 6.37592 6.28057 6.54151 6.45593C9.9778 10.2876 14.7315 7.17725 18.8831 10.9595C19.4092 11.4315 20.0609 11.2231 20.1643 10.6551C20.2131 10.3794 20.2498 9.94511 20.2498 9.45573C20.2498 4.60058 16.9445 1.85055 11.7319 1.85055C10.0724 1.85055 8.1119 2.29856 6.64651 2.29856C5.13393 2.29856 3.4335 2.22383 1.98994 0.749769C1.37319 0.138174 0.521521 0.345982 0.313046 1.2264Z"
                     fill="currentColor" fill-opacity="0.85" />
       </g>
</svg>