<?xml version="1.0" encoding="UTF-8"?>
<!--Generator: Apple Native CoreSVG 326-->
<!DOCTYPE svg PUBLIC "-//W3C//DTD SVG 1.1//EN" "http://www.w3.org/Graphics/SVG/1.1/DTD/svg11.dtd">
<svg version="1.1" xmlns="http://www.w3.org/2000/svg" xmlns:xlink="http://www.w3.org/1999/xlink"
       viewBox="0 0 21.365 21.006">
       <g>
              <rect height="21.006" opacity="0" width="21.365" x="0" y="0" />
              <path d="M21.0037 10.4981C21.0037 16.2923 16.302 20.9962 10.4981 20.9962C4.70394 20.9962 0 16.2923 0 10.4981C0 4.70163 4.70394 0 10.4981 0C16.302 0 21.0037 4.70163 21.0037 10.4981ZM7.08372 7.53421L7.08372 13.2689C7.08372 14.4103 7.67281 15.0873 8.72756 15.0873L12.8589 15.0873C13.7121 15.0873 14.2415 14.6245 14.2415 13.804C14.2415 13.0059 13.7121 12.5356 12.8589 12.5356L10.376 12.5356L10.376 7.53421C10.376 6.4031 9.772 5.7135 8.72756 5.7135C7.67281 5.7135 7.08372 6.38533 7.08372 7.53421Z"
                     fill="currentColor" fill-opacity="0.85" />
       </g>
</svg>