<?xml version="1.0" encoding="UTF-8"?>
<!--Generator: Apple Native CoreSVG 326-->
<!DOCTYPE svg PUBLIC "-//W3C//DTD SVG 1.1//EN" "http://www.w3.org/Graphics/SVG/1.1/DTD/svg11.dtd">
<svg version="1.1" xmlns="http://www.w3.org/2000/svg" xmlns:xlink="http://www.w3.org/1999/xlink"
       viewBox="0 0 21.365 21.006">
       <g>
              <rect height="21.006" opacity="0" width="21.365" x="0" y="0" />
              <path d="M10.4981 20.9962C16.302 20.9962 21.0037 16.2946 21.0037 10.4981C21.0037 4.70163 16.302 0 10.4981 0C4.70163 0 0 4.70163 0 10.4981C0 16.2946 4.70163 20.9962 10.4981 20.9962ZM10.4981 17.9484C6.37829 17.9484 3.04785 14.6179 3.04785 10.4981C3.04785 6.37829 6.37829 3.04785 10.4981 3.04785C14.6179 3.04785 17.9558 6.37829 17.9558 10.4981C17.9558 14.6179 14.6179 17.9484 10.4981 17.9484Z"
                     fill="currentColor" fill-opacity="0.85" />
              <path d="M6.66198 14.2753C6.66198 14.853 7.13346 15.2941 7.76513 15.2941L12.9023 15.2941C13.534 15.2941 13.9957 14.853 13.9957 14.2753C13.9957 13.6856 13.534 13.2439 12.9023 13.2439L7.76513 13.2439C7.13346 13.2439 6.66198 13.6856 6.66198 14.2753ZM12.6001 12.1877C13.2313 12.1877 13.6138 11.5922 13.6138 11.1264C13.6138 10.7365 13.3881 10.3833 12.993 10.2064L9.9755 8.89733L9.9755 8.86804L12.993 7.5538C13.3881 7.37232 13.6138 7.01912 13.6138 6.63893C13.6138 6.16569 13.2313 5.57253 12.6001 5.57253C12.4405 5.57253 12.286 5.60699 12.0838 5.69718L7.46385 7.81808C6.94518 8.06277 6.70225 8.41488 6.70225 8.90765C6.70225 9.38725 6.95034 9.69745 7.46385 9.93753L12.0838 12.0607C12.286 12.1509 12.4405 12.1877 12.6001 12.1877Z"
                     fill="currentColor" fill-opacity="0.85" />
       </g>
</svg>