<?xml version="1.0" encoding="UTF-8"?>
<!--Generator: Apple Native CoreSVG 326-->
<!DOCTYPE svg PUBLIC "-//W3C//DTD SVG 1.1//EN" "http://www.w3.org/Graphics/SVG/1.1/DTD/svg11.dtd">
<svg version="1.1" xmlns="http://www.w3.org/2000/svg" xmlns:xlink="http://www.w3.org/1999/xlink"
       viewBox="0 0 19.3993 19.0529">
       <g>
              <rect height="19.0529" opacity="0" width="19.3993" x="0" y="0" />
              <path d="M3.64834 19.0379L15.3896 19.0379C17.7164 19.0379 19.0379 17.7262 19.0379 15.4011L19.0379 3.63912C19.0379 1.32151 17.7164 0 15.3896 0L3.64834 0C1.32382 0 0 1.32151 0 3.63912L0 15.4011C0 17.7262 1.32382 19.0379 3.64834 19.0379ZM4.05583 16.0183C3.37024 16.0183 3.01964 15.7096 3.01964 14.9775L3.01964 4.07021C3.01964 3.33809 3.37024 3.0271 4.05583 3.0271L14.9821 3.0271C15.6654 3.0271 16.0183 3.33809 16.0183 4.07021L16.0183 14.9775C16.0183 15.7096 15.6654 16.0183 14.9821 16.0183Z"
                     fill="currentColor" fill-opacity="0.85" />
              <path d="M5.69002 13.2988C5.69002 13.8765 6.1615 14.3176 6.79318 14.3176L11.9304 14.3176C12.5621 14.3176 13.0238 13.8765 13.0238 13.2988C13.0238 12.709 12.5621 12.2674 11.9304 12.2674L6.79318 12.2674C6.1615 12.2674 5.69002 12.709 5.69002 13.2988ZM11.6282 11.2111C12.2593 11.2111 12.6418 10.6157 12.6418 10.1499C12.6418 9.75992 12.4161 9.40672 12.0135 9.22985L9.00585 7.92077L9.00585 7.89147L12.0135 6.57724C12.4161 6.39576 12.6418 6.04256 12.6418 5.66237C12.6418 5.18913 12.2593 4.59597 11.6282 4.59597C11.4685 4.59597 11.3141 4.63042 11.1141 4.72062L6.4942 6.84152C5.97323 7.0862 5.7303 7.43831 5.7303 7.93108C5.7303 8.41069 5.97838 8.72089 6.4942 8.96096L11.1141 11.0842C11.3141 11.1744 11.4685 11.2111 11.6282 11.2111Z"
                     fill="currentColor" fill-opacity="0.85" />
       </g>
</svg>