<?xml version="1.0" encoding="UTF-8"?>
<!--Generator: Apple Native CoreSVG 326-->
<!DOCTYPE svg PUBLIC "-//W3C//DTD SVG 1.1//EN" "http://www.w3.org/Graphics/SVG/1.1/DTD/svg11.dtd">
<svg version="1.1" xmlns="http://www.w3.org/2000/svg" xmlns:xlink="http://www.w3.org/1999/xlink"
       viewBox="0 0 13.5379 19.0316">
       <g>
              <rect height="19.0316" opacity="0" width="13.5379" x="0" y="0" />
              <path d="M0 17.1766C0 18.2468 0.736123 18.9806 1.80173 18.9806L11.3823 18.9806C12.4404 18.9806 13.1766 18.2468 13.1766 17.1766C13.1766 16.1161 12.4404 15.3823 11.3823 15.3823L1.80173 15.3823C0.736123 15.3823 0 16.1161 0 17.1766ZM11.197 13.1594C12.2598 13.1594 12.9224 12.273 12.9224 11.1987C12.9224 10.2421 12.5342 9.66973 11.4744 9.24774L5.05769 6.56505L5.05769 6.45763L11.467 3.77221C12.447 3.38006 12.9224 2.81796 12.9224 1.90618C12.9224 0.829048 12.168 0 11.0908 0C10.5982 0 10.1291 0.120584 9.72207 0.327846L1.95853 4.0645C0.713195 4.67137 0 5.35011 0 6.5622C0 7.79152 0.705734 8.48057 1.95853 9.08974L9.72207 12.7994C10.1711 13.0239 10.6699 13.1594 11.197 13.1594Z"
                     fill="currentColor" fill-opacity="0.85" />
       </g>
</svg>