<?xml version="1.0" encoding="UTF-8"?>
<!--Generator: Apple Native CoreSVG 326-->
<!DOCTYPE svg PUBLIC "-//W3C//DTD SVG 1.1//EN" "http://www.w3.org/Graphics/SVG/1.1/DTD/svg11.dtd">
<svg version="1.1" xmlns="http://www.w3.org/2000/svg" xmlns:xlink="http://www.w3.org/1999/xlink"
       viewBox="0 0 21.365 21.006">
       <g>
              <rect height="21.006" opacity="0" width="21.365" x="0" y="0" />
              <path d="M21.0037 10.4981C21.0037 16.2923 16.302 20.9962 10.4981 20.9962C4.70394 20.9962 0 16.2923 0 10.4981C0 4.70163 4.70394 0 10.4981 0C16.302 0 21.0037 4.70163 21.0037 10.4981ZM7.58771 13.4162C6.90666 13.4162 6.4105 13.8825 6.4105 14.5291C6.4105 15.139 6.90666 15.6122 7.58771 15.6122L13.0574 15.6122C13.7384 15.6122 14.2323 15.139 14.2323 14.5291C14.2323 13.8825 13.7384 13.4162 13.0574 13.4162ZM12.1871 5.37164L7.26405 7.62805C6.71093 7.88996 6.44562 8.26675 6.44562 8.79913C6.44562 9.30573 6.71608 9.64061 7.26405 9.89792L12.1871 12.1618C12.4066 12.2617 12.5685 12.306 12.738 12.306C13.4162 12.306 13.8331 11.6537 13.8331 11.1557C13.8331 10.7411 13.5902 10.3632 13.1555 10.1789L9.95366 8.78136L9.95366 8.75952L13.1555 7.35916C13.5902 7.16045 13.8331 6.78256 13.8331 6.37768C13.8331 5.8723 13.4162 5.23953 12.738 5.23953C12.5685 5.23953 12.4066 5.27398 12.1871 5.37164Z"
                     fill="currentColor" fill-opacity="0.85" />
       </g>
</svg>