<?xml version="1.0" encoding="UTF-8"?>
<!--Generator: Apple Native CoreSVG 326-->
<!DOCTYPE svg PUBLIC "-//W3C//DTD SVG 1.1//EN" "http://www.w3.org/Graphics/SVG/1.1/DTD/svg11.dtd">
<svg version="1.1" xmlns="http://www.w3.org/2000/svg" xmlns:xlink="http://www.w3.org/1999/xlink"
       viewBox="0 0 19.3993 19.0529">
       <g>
              <rect height="19.0529" opacity="0" width="19.3993" x="0" y="0" />
              <path d="M19.0379 3.63912L19.0379 15.4011C19.0379 17.7262 17.7164 19.0379 15.3896 19.0379L3.64834 19.0379C1.32382 19.0379 0 17.7262 0 15.4011L0 3.63912C0 1.32151 1.32382 0 3.64834 0L15.3896 0C17.7164 0 19.0379 1.32151 19.0379 3.63912ZM6.69552 12.4396C6.01447 12.4396 5.51831 12.906 5.51831 13.5526C5.51831 14.1624 6.01447 14.6356 6.69552 14.6356L12.1726 14.6356C12.8537 14.6356 13.3475 14.1624 13.3475 13.5526C13.3475 12.906 12.8537 12.4396 12.1726 12.4396ZM11.3047 4.39508L6.37416 6.65148C5.81874 6.9134 5.56089 7.29019 5.56089 7.82257C5.56089 8.32917 5.83135 8.66405 6.37416 8.92135L11.3047 11.1852C11.5144 11.2852 11.6838 11.3294 11.8458 11.3294C12.524 11.3294 12.9484 10.6771 12.9484 10.1792C12.9484 9.76453 12.698 9.38665 12.2707 9.20231L9.07124 7.8048L9.07124 7.78296L12.2707 6.3826C12.698 6.18389 12.9484 5.806 12.9484 5.40112C12.9484 4.89573 12.524 4.26297 11.8458 4.26297C11.6838 4.26297 11.5144 4.29742 11.3047 4.39508Z"
                     fill="currentColor" fill-opacity="0.85" />
       </g>
</svg>