<?xml version="1.0" encoding="UTF-8"?>
<!--Generator: Apple Native CoreSVG 326-->
<!DOCTYPE svg PUBLIC "-//W3C//DTD SVG 1.1//EN" "http://www.w3.org/Graphics/SVG/1.1/DTD/svg11.dtd">
<svg version="1.1" xmlns="http://www.w3.org/2000/svg" xmlns:xlink="http://www.w3.org/1999/xlink"
       viewBox="0 0 25.9118 12.1327">
       <g>
              <rect height="12.1327" opacity="0" width="25.9118" x="0" y="0" />
              <path d="M5.82315 9.46366L4.50432 9.46366L4.50432 2.67879L5.82901 2.67879ZM21.0461 9.46366L19.7207 9.46366L19.7207 2.67879L21.0461 2.67879ZM12.779 6.72934C9.99122 6.72934 7.881 5.12936 7.35903 2.67879L8.77838 2.67879C9.22227 4.4023 10.7563 5.5124 12.779 5.5124C14.7987 5.5124 16.332 4.39778 16.7766 2.67879L18.1916 2.67879C17.6755 5.12936 15.56 6.72934 12.779 6.72934Z"
                     fill="currentColor" fill-opacity="0.85" />
              <path d="M3.13143 12.1326L22.419 12.1326C24.3685 12.1401 25.5505 10.9731 25.5505 9.03567L25.5505 3.09932C25.5505 1.17682 24.3587 0.00234047 22.4018 0.00234047L3.13659 0.00234047C1.17964 0.00234047 0 1.17682 0 3.09932L0 9.03567C0 10.9731 1.17448 12.1326 3.13143 12.1326ZM3.44041 9.46366C2.96845 9.46366 2.66153 9.16881 2.66153 8.64801L2.66153 3.48697C2.66153 2.97364 2.96099 2.67879 3.44272 2.67879L22.1077 2.67879C22.5895 2.67879 22.8866 2.97364 22.8792 3.48697L22.8792 8.64801C22.8792 9.16881 22.5745 9.46366 22.098 9.46366ZM12.779 4.29837C14.1817 4.29837 15.1956 3.38622 15.2433 2.02947L10.3072 2.02947C10.3601 3.38622 11.3739 4.29837 12.779 4.29837Z"
                     fill="currentColor" fill-opacity="0.85" />
       </g>
</svg>