<?xml version="1.0" encoding="UTF-8"?>
<!--Generator: Apple Native CoreSVG 326-->
<!DOCTYPE svg PUBLIC "-//W3C//DTD SVG 1.1//EN" "http://www.w3.org/Graphics/SVG/1.1/DTD/svg11.dtd">
<svg version="1.1" xmlns="http://www.w3.org/2000/svg" xmlns:xlink="http://www.w3.org/1999/xlink"
       viewBox="0 0 25.9192 12.1429">
       <g>
              <rect height="12.1429" opacity="0" width="25.9192" x="0" y="0" />
              <path d="M3.1412 12.1303L4.34249 12.1303L4.34249 0L3.12913 0C1.18941 0 0 1.18194 0 3.10444L0.0172263 9.04079C0.0172263 10.9805 1.20433 12.1303 3.1412 12.1303ZM5.61572 12.1303L19.9497 12.1303L19.9497 0L18.7102 0C18.5401 3.15108 16.1012 5.29291 12.7887 5.29291C9.45385 5.29291 7.02246 3.15108 6.85007 0L5.61572 0ZM21.2229 12.1303L22.4242 12.1303C24.3811 12.1303 25.5435 10.9805 25.5458 9.04079L25.5579 3.10444C25.5602 1.18194 24.3685 0 22.4265 0L21.2229 0ZM12.7887 3.98413C15.3012 3.98413 17.0963 2.36777 17.2027 0L15.5398 0C15.48 1.5073 14.3495 2.53894 12.7887 2.53894C11.2108 2.53894 10.0826 1.5073 10.0227 0L8.35756 0C8.45643 2.37523 10.2665 3.98413 12.7887 3.98413Z"
                     fill="currentColor" fill-opacity="0.85" />
       </g>
</svg>