<?xml version="1.0" encoding="UTF-8"?>
<!--Generator: Apple Native CoreSVG 326-->
<!DOCTYPE svg PUBLIC "-//W3C//DTD SVG 1.1//EN" "http://www.w3.org/Graphics/SVG/1.1/DTD/svg11.dtd">
<svg version="1.1" xmlns="http://www.w3.org/2000/svg" xmlns:xlink="http://www.w3.org/1999/xlink"
       viewBox="0 0 32.9503 23.7994">
       <g>
              <rect height="23.7994" opacity="0" width="32.9503" x="0" y="0" />
              <path d="M16.2933 23.7994C20.628 23.7994 24.0246 21.6557 24.0246 18.8853C24.0246 16.105 20.628 13.9636 16.2933 13.9636C11.9339 13.9636 8.52011 16.1027 8.52011 18.8853C8.52011 21.658 11.9339 23.7994 16.2933 23.7994ZM16.291 21.6765C13.6508 21.6765 11.6138 20.4863 11.6138 18.9554C11.6138 17.4268 13.6508 16.2343 16.291 16.2343C18.941 16.2343 20.9579 17.4268 20.9579 18.9554C20.9579 20.4863 18.941 21.6765 16.291 21.6765ZM16.291 19.5538C17.5406 19.5538 18.755 19.0569 19.4397 18.2646C18.8657 17.7321 17.641 17.415 16.291 17.415C14.9164 17.415 13.6916 17.7396 13.1176 18.2939C13.8121 19.0643 15.0512 19.5538 16.291 19.5538Z"
                     fill="currentColor" fill-opacity="0.85" />
              <path d="M24.8502 13.8668C29.1728 13.8668 32.5889 11.7254 32.5889 8.95496C32.5889 6.18219 29.1728 4.03102 24.8502 4.03102C20.4885 4.03102 17.0844 6.17242 17.0844 8.95496C17.0844 11.7277 20.4885 13.8668 24.8502 13.8668ZM24.8456 11.7513C22.2053 11.7513 20.1609 10.5537 20.1609 9.02738C20.1609 7.49418 22.2053 6.31144 24.8456 6.31144C27.4979 6.31144 29.5101 7.49418 29.5101 9.02738C29.5101 10.5537 27.4979 11.7513 24.8456 11.7513ZM24.8479 9.63327C26.0951 9.63327 27.3096 9.12425 27.9966 8.33202C27.4128 7.80929 26.1955 7.48241 24.8479 7.48241C23.4612 7.48241 22.2387 7.81675 21.6745 8.36132C22.3689 9.13171 23.6058 9.63327 24.8479 9.63327Z"
                     fill="currentColor" fill-opacity="0.85" />
              <path d="M7.76573 13.8668C12.1079 13.8668 15.5045 11.7254 15.5045 8.95496C15.5045 6.18219 12.1079 4.03102 7.76573 4.03102C3.42124 4.03102 0 6.17242 0 8.95496C0 11.7277 3.42124 13.8668 7.76573 13.8668ZM7.76343 11.7513C5.12319 11.7513 3.0937 10.5537 3.0937 9.02738C3.0937 7.49418 5.12319 6.31144 7.76343 6.31144C10.4232 6.31144 12.4303 7.49418 12.4303 9.02738C12.4303 10.5537 10.4232 11.7513 7.76343 11.7513ZM7.76343 9.63327C9.013 9.63327 10.2252 9.12425 10.9196 8.33202C10.3456 7.80929 9.12085 7.48241 7.76343 7.48241C6.39394 7.48241 5.16401 7.81675 4.59003 8.36132C5.29424 9.13171 6.53108 9.63327 7.76343 9.63327Z"
                     fill="currentColor" fill-opacity="0.85" />
       </g>
</svg>