<?xml version="1.0" encoding="UTF-8"?>
<!--Generator: Apple Native CoreSVG 326-->
<!DOCTYPE svg PUBLIC "-//W3C//DTD SVG 1.1//EN" "http://www.w3.org/Graphics/SVG/1.1/DTD/svg11.dtd">
<svg version="1.1" xmlns="http://www.w3.org/2000/svg" xmlns:xlink="http://www.w3.org/1999/xlink"
       viewBox="0 0 27.4168 22.6831">
       <g>
              <rect height="22.6831" opacity="0" width="27.4168" x="0" y="0" />
              <path d="M10.3951 20.4895C9.86165 21.0132 9.13353 21.0034 8.62475 20.4895C8.11081 19.9733 8.1085 19.2377 8.62475 18.7214L14.5636 12.7871C14.9346 12.8255 15.316 12.8437 15.706 12.8437C16.6408 12.8437 17.5269 12.7386 18.3494 12.5267ZM12.9051 12.4897L7.64903 17.7457C7.11787 18.2694 6.38229 18.2597 5.87351 17.7457C5.35726 17.2295 5.34004 16.4916 5.87351 15.9754L10.4055 11.4505C11.1545 11.9139 11.992 12.2644 12.9051 12.4897ZM9.2606 10.6505L4.91272 15.0019C4.37409 15.5406 3.65344 15.5159 3.13719 15.0019C2.62325 14.4932 2.60603 13.7553 3.12973 13.2316L7.59256 8.77581C8.05693 9.48698 8.61867 10.1134 9.2606 10.6505ZM6.88586 7.53258L2.16148 12.2582C1.63777 12.7893 0.907353 12.7646 0.376187 12.2507C-0.135447 11.727-0.117675 10.9817 0.383648 10.4878L6.04089 4.84557C6.20955 5.81235 6.49311 6.71361 6.88586 7.53258Z"
                     fill="currentColor" fill-opacity="0.85" />
              <path d="M25.811 4.1311C26.4898 4.1311 27.0554 3.55572 27.0554 2.87698C27.0554 2.19308 26.4995 1.63031 25.811 1.63031L5.59116 1.62801C4.90495 1.62801 4.34679 2.19078 4.34679 2.87698C4.34679 3.55572 4.91241 4.1288 5.59116 4.1288ZM15.706 11.2993C20.8013 11.2993 24.177 7.7479 23.9858 2.54586L21.4799 2.54586C21.671 6.29737 19.341 8.79847 15.706 8.79847C12.0612 8.79847 9.73348 6.29737 9.93207 2.54586L7.42843 2.54586C7.22523 7.74044 10.6032 11.2993 15.706 11.2993Z"
                     fill="currentColor" fill-opacity="0.85" />
       </g>
</svg>