<?xml version="1.0" encoding="UTF-8"?>
<!--Generator: Apple Native CoreSVG 326-->
<!DOCTYPE svg PUBLIC "-//W3C//DTD SVG 1.1//EN" "http://www.w3.org/Graphics/SVG/1.1/DTD/svg11.dtd">
<svg version="1.1" xmlns="http://www.w3.org/2000/svg" xmlns:xlink="http://www.w3.org/1999/xlink"
       viewBox="0 0 19.722 27.8811">
       <g>
              <rect height="27.8811" opacity="0" width="19.722" x="0" y="0" />
              <path d="M4.17963 24.8028L15.1788 24.8028C17.6709 24.8028 19.3607 23.0297 19.3607 20.4399L19.3607 15.3739C19.3607 12.8769 19.0821 10.1737 18.6128 8.23794C18.0378 5.71526 16.2877 4.05358 13.9311 3.80144C13.4083 3.75261 11.6144 3.61589 9.67919 3.61589C7.48951 3.61589 5.9449 3.75261 5.42963 3.80144C3.07296 4.05358 1.32285 5.71526 0.747889 8.23794C0.278593 10.1984 0 12.7793 0 15.2568L0 20.4399C0 23.0297 1.68976 24.8028 4.17963 24.8028ZM4.43869 22.4417C3.05173 22.4417 2.3611 21.7308 2.3611 20.4399L2.3611 15.2568C2.3611 12.9418 2.60524 10.5676 3.04008 8.76966C3.40317 7.22711 4.33333 6.29641 5.66103 6.16254C6.16193 6.11371 7.57334 5.97699 9.67919 5.97699C11.5283 5.97699 13.2062 6.11371 13.6997 6.16254C15.0274 6.29641 15.9575 7.22711 16.3206 8.76966C16.7405 10.5527 16.9996 13.0245 16.9996 15.3739L16.9996 20.4399C16.9996 21.7308 16.309 22.4417 14.9197 22.4417ZM9.67919 17.5232C11.9462 17.5135 13.5749 17.4284 14.5028 17.3239C15.141 17.248 15.4798 16.815 15.4798 16.1935L15.4798 14.6467C15.4798 12.9771 15.2971 11.4422 15.2028 10.9521C15.1201 10.4328 14.7594 10.0607 14.2505 9.99691C13.2957 9.88488 11.9551 9.81421 9.67919 9.80445C7.3907 9.81421 6.05008 9.88488 5.11762 9.99691C4.60125 10.0607 4.24059 10.4328 4.15785 10.9521C4.07106 11.4422 3.8809 12.9771 3.8809 14.6467L3.8809 16.1935C3.8809 16.815 4.21742 17.248 4.85789 17.3239C5.77082 17.4284 7.39962 17.5135 9.67919 17.5232ZM5.36267 21.2058C6.13184 21.2058 6.70802 20.6394 6.70802 19.8656C6.70802 19.1016 6.13645 18.5277 5.36267 18.5277C4.6061 18.5277 4.03224 19.1016 4.03224 19.8656C4.03224 20.6394 4.59864 21.2058 5.36267 21.2058ZM13.9785 21.2156C14.7379 21.2156 15.3187 20.6371 15.3187 19.8656C15.3187 19.1039 14.7402 18.5254 13.9785 18.5254C13.2219 18.5254 12.6435 19.1039 12.6435 19.8656C12.6435 20.6371 13.2145 21.2156 13.9785 21.2156ZM7.40477 8.90346L11.9485 8.90346C12.459 8.90346 12.8351 8.52734 12.8351 8.00933C12.8351 7.49133 12.459 7.11751 11.9485 7.11751L7.40477 7.11751C6.89423 7.11751 6.52556 7.49133 6.52556 8.00933C6.52556 8.5348 6.89423 8.90346 7.40477 8.90346ZM0.839177 2.38585C0.839177 3.01006 1.25382 3.44818 1.89866 3.44818C2.26557 3.44818 2.61009 3.24607 2.89778 2.93654C3.28568 2.49685 3.66733 2.31755 4.39265 2.31755L14.968 2.31755C15.6934 2.31755 16.0727 2.49685 16.4629 2.93654C16.7483 3.24607 17.0877 3.44818 17.462 3.44818C18.1069 3.44818 18.5215 3.01006 18.5215 2.38585C18.5215 1.95858 18.2992 1.52156 17.9586 1.18328C17.0815 0.320507 16.0275 0.0321478 14.7815 0.0321478L4.57917 0.0321478C3.33323 0.0321478 2.27691 0.320507 1.40207 1.18328C1.05918 1.52156 0.839177 1.95858 0.839177 2.38585ZM9.13402 4.46095L6.70856 1.46175L3.87004 1.46175L6.31272 4.46095ZM10.2267 4.46095L13.048 4.46095L15.4907 1.46175L12.6521 1.46175ZM4.15179 23.2568L2.08766 26.5638C1.75169 27.1059 1.98606 27.8811 2.7584 27.8811L3.55893 27.8811C3.98159 27.8811 4.23998 27.7335 4.46853 27.3723L7.02422 23.2568ZM12.3462 23.2568L14.9094 27.3723C15.1379 27.7335 15.3889 27.8811 15.8115 27.8811L16.4405 27.8811C17.2128 27.8811 17.6193 27.1036 17.2013 26.4369L15.2238 23.2568Z"
                     fill="currentColor" fill-opacity="0.85" />
       </g>
</svg>