<?xml version="1.0" encoding="UTF-8"?>
<!--Generator: Apple Native CoreSVG 326-->
<!DOCTYPE svg PUBLIC "-//W3C//DTD SVG 1.1//EN" "http://www.w3.org/Graphics/SVG/1.1/DTD/svg11.dtd">
<svg version="1.1" xmlns="http://www.w3.org/2000/svg" xmlns:xlink="http://www.w3.org/1999/xlink"
       viewBox="0 0 14.3752 24.8073">
       <g>
              <rect height="24.8073" opacity="0" width="14.3752" x="0" y="0" />
              <path d="M0 6.49311C0 10.0864 2.05958 11.5364 2.54282 17.4458C2.60427 18.245 3.13531 18.7307 3.93913 18.7307L10.0673 18.7307C10.8734 18.7307 11.4045 18.245 11.4659 17.4458C11.9417 11.5364 14.0139 10.0939 14.0139 6.50057C14.0139 2.76586 10.8421 0 7.00323 0C3.16437 0 0 2.7584 0 6.49311ZM2.45942 6.49311C2.45942 4.09513 4.55006 2.45942 7.00323 2.45942C9.44894 2.46688 11.5545 4.09513 11.5545 6.49311C11.5545 8.72137 9.93031 9.53465 9.20808 16.2788L4.80069 16.2788C4.07615 9.53465 2.45942 8.72137 2.45942 6.49311ZM3.73077 21.4966L10.2705 21.4966C10.7271 21.4966 11.0831 21.1159 11.0831 20.6966C11.0831 20.2648 10.7271 19.8915 10.2705 19.8915L3.73077 19.8915C3.27421 19.8915 2.91586 20.2648 2.91586 20.6966C2.91586 21.1159 3.27421 21.4966 3.73077 21.4966ZM7.00323 24.6196C8.65119 24.6196 9.85127 23.8401 9.97131 22.6649L3.99269 22.6649C4.09835 23.8401 5.3455 24.6196 7.00323 24.6196Z"
                     fill="currentColor" fill-opacity="0.85" />
       </g>
</svg>