<?xml version="1.0" encoding="UTF-8"?>
<!--Generator: Apple Native CoreSVG 326-->
<!DOCTYPE svg PUBLIC "-//W3C//DTD SVG 1.1//EN" "http://www.w3.org/Graphics/SVG/1.1/DTD/svg11.dtd">
<svg version="1.1" xmlns="http://www.w3.org/2000/svg" xmlns:xlink="http://www.w3.org/1999/xlink"
       viewBox="0 0 21.365 21.006">
       <g>
              <rect height="21.006" opacity="0" width="21.365" x="0" y="0" />
              <path d="M21.0037 10.4981C21.0037 16.2923 16.302 20.9962 10.4981 20.9962C4.70394 20.9962 0 16.2923 0 10.4981C0 4.70163 4.70394 0 10.4981 0C16.302 0 21.0037 4.70163 21.0037 10.4981ZM9.13268 15.488C9.18151 16.028 9.75077 16.3773 10.513 16.3773C11.2828 16.3773 11.8124 16.028 11.871 15.488ZM8.97752 14.1128C8.74545 14.1128 8.55244 14.3059 8.55244 14.5155C8.55244 14.7327 8.74545 14.9257 8.97752 14.9257L12.0262 14.9257C12.2582 14.9257 12.461 14.7327 12.461 14.5155C12.461 14.3059 12.2582 14.1128 12.0262 14.1128ZM7.14947 7.68033C7.14947 9.41085 8.271 10.0931 8.38139 12.9499C8.39346 13.3317 8.65241 13.5407 9.02447 13.5407L11.9671 13.5407C12.3438 13.5407 12.62 13.3317 12.6297 12.9499C12.7355 10.0931 13.8617 9.42983 13.8617 7.69186C13.8617 5.90299 12.3514 4.57935 10.4958 4.57935C8.65744 4.57935 7.14947 5.884 7.14947 7.68033Z"
                     fill="currentColor" fill-opacity="0.85" />
       </g>
</svg>