<?xml version="1.0" encoding="UTF-8"?>
<!--Generator: Apple Native CoreSVG 326-->
<!DOCTYPE svg PUBLIC "-//W3C//DTD SVG 1.1//EN" "http://www.w3.org/Graphics/SVG/1.1/DTD/svg11.dtd">
<svg version="1.1" xmlns="http://www.w3.org/2000/svg" xmlns:xlink="http://www.w3.org/1999/xlink"
       viewBox="0 0 16.3042 21.9947">
       <g>
              <rect height="21.9947" opacity="0" width="16.3042" x="0" y="0" />
              <path d="M15.9428 3.6535L15.9428 18.3486C15.9428 20.6783 14.6288 21.9947 12.3037 21.9947L3.63912 21.9947C1.31921 21.9947 0 20.6783 0 18.3486L0 3.6535C0 1.32151 1.31921 0.0051558 3.63912 0.0051558L12.3037 0.0051558C14.6288 0.0051558 15.9428 1.32151 15.9428 3.6535ZM4.26279 3.74145C3.84723 3.74145 3.67309 3.92075 3.67309 4.34376L3.67309 9.65293C3.67309 10.0685 3.84723 10.2478 4.26279 10.2478L11.6685 10.2478C12.0864 10.2478 12.2605 10.0685 12.2605 9.65293L12.2605 4.34376C12.2605 3.92075 12.0864 3.74145 11.6685 3.74145Z"
                     fill="currentColor" fill-opacity="0.85" />
       </g>
</svg>