<?xml version="1.0" encoding="UTF-8"?>
<!--Generator: Apple Native CoreSVG 326-->
<!DOCTYPE svg PUBLIC "-//W3C//DTD SVG 1.1//EN" "http://www.w3.org/Graphics/SVG/1.1/DTD/svg11.dtd">
<svg version="1.1" xmlns="http://www.w3.org/2000/svg" xmlns:xlink="http://www.w3.org/1999/xlink"
       viewBox="0 0 29.5241 18.4594">
       <g>
              <rect height="18.4594" opacity="0" width="29.5241" x="0" y="0" />
              <path d="M14.5593 18.4473C23.1447 18.4473 29.1628 14.3994 29.1628 9.22482C29.1628 4.05019 23.1447 0 14.5593 0C6.00835 0 0 4.05019 0 9.22482C0 14.3994 6.00835 18.4473 14.5593 18.4473ZM14.5593 14.538C9.26697 14.538 5.60286 12.2805 5.60286 9.40642C5.60286 6.55935 9.26697 4.30931 14.5593 4.30931C19.8809 4.30931 23.5622 6.55935 23.5622 9.40642C23.5622 12.2782 19.8786 14.538 14.5593 14.538ZM14.5794 9.99466C17.6199 9.99466 20.093 8.76638 21.1511 6.92122C19.8051 5.93204 17.5497 5.29904 14.5593 5.29904C11.5963 5.29904 9.35881 5.93435 8.00533 6.9379C9.07548 8.77329 11.5463 9.99466 14.5794 9.99466Z"
                     fill="currentColor" fill-opacity="0.85" />
       </g>
</svg>