<?xml version="1.0" encoding="UTF-8"?>
<!--Generator: Apple Native CoreSVG 326-->
<!DOCTYPE svg PUBLIC "-//W3C//DTD SVG 1.1//EN" "http://www.w3.org/Graphics/SVG/1.1/DTD/svg11.dtd">
<svg version="1.1" xmlns="http://www.w3.org/2000/svg" xmlns:xlink="http://www.w3.org/1999/xlink"
       viewBox="0 0 24.4397 25.5905">
       <g>
              <rect height="25.5905" opacity="0" width="24.4397" x="0" y="0" />
              <path d="M6.84389 23.179C5.41592 23.179 4.35201 22.4708 4.29748 21.4075L9.35298 21.4075C9.31107 22.4708 8.25747 23.179 6.84389 23.179ZM10.2414 19.7506C10.2414 20.1452 9.9129 20.484 9.49826 20.484L4.18491 20.484C3.77026 20.484 3.43659 20.1354 3.43659 19.7506C3.43659 19.356 3.77026 19.0149 4.18491 19.0149L9.49826 19.0149C9.9129 19.0149 10.2414 19.3537 10.2414 19.7506ZM9.86949 3.40967C9.08827 4.54913 8.63664 5.92329 8.63664 7.4351C8.63664 10.9116 10.06 12.4002 10.7118 15.7111C10.6531 16.0852 10.6061 16.4947 10.5702 16.935C10.526 17.6504 10.042 18.0839 9.3272 18.0839L4.34619 18.0839C3.63136 18.0839 3.14738 17.6504 3.10316 16.935C2.71703 12.1896 1.03261 11.0176 1.03261 8.02862C1.03261 4.91714 3.65932 2.63265 6.83928 2.63265C7.94663 2.63265 8.98731 2.91058 9.86949 3.40967Z"
                     fill="currentColor" fill-opacity="0.85" />
              <path d="M16.5307 1.39624C12.9692 1.39624 10.0306 3.95823 10.0306 7.4351C10.0306 10.7763 11.9259 12.0954 12.3626 17.4603C12.4241 18.2497 12.943 18.7257 13.7319 18.7257L19.337 18.7257C20.1086 18.7257 20.6374 18.2497 20.7114 17.4603C21.1407 12.0954 23.0458 10.7763 23.0458 7.45002C23.0458 3.96569 20.0974 1.39624 16.5307 1.39624ZM13.546 21.2849L19.5229 21.2849C19.9795 21.2849 20.3356 20.9088 20.3356 20.4895C20.3356 20.0553 19.9795 19.6867 19.5229 19.6867L13.546 19.6867C13.0894 19.6867 12.7357 20.0553 12.7357 20.4895C12.7357 20.9088 13.0894 21.2849 13.546 21.2849ZM16.5307 24.177C18.108 24.177 19.2616 23.4096 19.3299 22.2459L13.7017 22.2459C13.7752 23.4096 14.9586 24.177 16.5307 24.177Z"
                     fill="currentColor" fill-opacity="0.85" />
       </g>
</svg>