<?xml version="1.0" encoding="UTF-8"?>
<!--Generator: Apple Native CoreSVG 326-->
<!DOCTYPE svg PUBLIC "-//W3C//DTD SVG 1.1//EN" "http://www.w3.org/Graphics/SVG/1.1/DTD/svg11.dtd">
<svg version="1.1" xmlns="http://www.w3.org/2000/svg" xmlns:xlink="http://www.w3.org/1999/xlink"
       viewBox="0 0 23.9904 22.7961">
       <g>
              <rect height="22.7961" opacity="0" width="23.9904" x="0" y="0" />
              <path d="M1.35882 13.3229C2.10428 13.3229 2.71764 12.717 2.71764 11.9664C2.71764 11.2209 2.10428 10.615 1.35882 10.615C0.605894 10.615 0 11.2209 0 11.9664C0 12.717 0.605894 13.3229 1.35882 13.3229ZM4.11115 5.66394C4.85661 5.66394 5.46997 5.04829 5.46997 4.30513C5.46997 3.5522 4.85661 2.94631 4.11115 2.94631C3.36053 2.94631 2.75233 3.5522 2.75233 4.30513C2.75233 5.04829 3.36053 5.66394 4.11115 5.66394ZM11.812 2.71764C12.5626 2.71764 13.1685 2.11174 13.1685 1.35882C13.1685 0.615659 12.5626 0 11.812 0C11.0665 0 10.4532 0.615659 10.4532 1.35882C10.4532 2.11174 11.0665 2.71764 11.812 2.71764ZM19.518 5.66394C20.2634 5.66394 20.8768 5.04829 20.8768 4.30513C20.8768 3.5522 20.2634 2.94631 19.518 2.94631C18.765 2.94631 18.1592 3.5522 18.1592 4.30513C18.1592 5.04829 18.765 5.66394 19.518 5.66394ZM22.2726 13.3229C23.0158 13.3229 23.6291 12.717 23.6291 11.9664C23.6291 11.2209 23.0158 10.615 22.2726 10.615C21.5197 10.615 20.9138 11.2209 20.9138 11.9664C20.9138 12.717 21.5197 13.3229 22.2726 13.3229Z"
                     fill="currentColor" fill-opacity="0.85" />
              <path d="M16.1081 19.7343L18.7771 19.7343L18.7771 11.8419C18.7771 7.9343 15.7173 4.88197 11.812 4.88197C7.90434 4.88197 4.84915 7.9343 4.84915 11.8419L4.84915 19.7343L7.5256 19.7343L7.5256 11.8419C7.5256 9.43014 9.40248 7.55096 11.812 7.55096C14.2312 7.55096 16.1081 9.43014 16.1081 11.8419ZM20.0058 21.055C20.7339 21.055 21.3438 20.4498 21.3438 19.7217C21.3438 18.9912 20.7339 18.3762 20.0058 18.3762L3.62329 18.3762C2.89518 18.3762 2.29225 18.9912 2.29225 19.7217C2.29225 20.4498 2.89518 21.055 3.62329 21.055ZM13.1551 12.5268C13.1551 11.7987 12.5401 11.1912 11.812 11.1912C11.0839 11.1912 10.4786 11.7987 10.4786 12.5268L10.4786 19.7343L13.1551 19.7343Z"
                     fill="currentColor" fill-opacity="0.85" />
       </g>
</svg>