<?xml version="1.0" encoding="UTF-8"?>
<!--Generator: Apple Native CoreSVG 326-->
<!DOCTYPE svg PUBLIC "-//W3C//DTD SVG 1.1//EN" "http://www.w3.org/Graphics/SVG/1.1/DTD/svg11.dtd">
<svg version="1.1" xmlns="http://www.w3.org/2000/svg" xmlns:xlink="http://www.w3.org/1999/xlink"
       viewBox="0 0 21.365 20.9968">
       <g>
              <rect height="20.9968" opacity="0" width="21.365" x="0" y="0" />
              <path d="M21.0037 10.4935C21.0037 8.49136 20.4265 6.61673 19.4347 5.03494L19.4347 15.9544C20.4265 14.3726 21.0037 12.4933 21.0037 10.4935Z"
                     fill="currentColor" fill-opacity="0.85" />
              <path d="M17.2778 18.4857C17.8549 18.005 18.3804 17.4554 18.8392 16.8638L18.8392 4.12546C18.3804 3.53394 17.8549 2.98203 17.2778 2.50133Z"
                     fill="currentColor" fill-opacity="0.85" />
              <path d="M15.111 19.9098C15.6709 19.6399 16.1889 19.3234 16.6799 18.9674L16.6799 2.01214C16.1889 1.66355 15.6709 1.34711 15.111 1.07719Z"
                     fill="currentColor" fill-opacity="0.85" />
              <path d="M12.9615 20.6997C13.4944 20.5699 14.0147 20.4005 14.5155 20.1869L14.5155 0.792654C14.0147 0.586483 13.4944 0.417071 12.9615 0.289572Z"
                     fill="currentColor" fill-opacity="0.85" />
              <path d="M10.8022 20.987C11.3374 20.9772 11.8479 20.9232 12.3562 20.8199L12.3562 0.161952C11.8479 0.0637496 11.3374 0.00976562 10.8022 0Z"
                     fill="currentColor" fill-opacity="0.85" />
              <path d="M8.64003 20.8199C9.15573 20.9232 9.66627 20.9772 10.2015 20.987L10.2015 0C9.66627 0.00976562 9.15573 0.0637496 8.64003 0.159647Z"
                     fill="currentColor" fill-opacity="0.85" />
              <path d="M6.4882 20.1869C6.98897 20.4005 7.50182 20.5699 8.03475 20.6997L8.03475 0.287267C7.50182 0.414766 6.98897 0.586483 6.4882 0.790349Z"
                     fill="currentColor" fill-opacity="0.85" />
              <path d="M4.32375 18.9674C4.8096 19.3234 5.33276 19.6399 5.88522 19.9098L5.88522 1.06743C5.33276 1.33734 4.8096 1.65379 4.32375 2.00984Z"
                     fill="currentColor" fill-opacity="0.85" />
              <path d="M2.16445 16.8638C2.62331 17.4554 3.14878 18.005 3.71846 18.4857L3.71846 2.49903C3.14878 2.97973 2.62331 3.53164 2.16445 4.12316Z"
                     fill="currentColor" fill-opacity="0.85" />
              <path d="M0 10.4935C0 12.4933 0.577143 14.3726 1.56893 15.9544L1.56893 5.03263C0.577143 6.61442 0 8.49136 0 10.4935Z"
                     fill="currentColor" fill-opacity="0.85" />
       </g>
</svg>