<?xml version="1.0" encoding="UTF-8"?>
<!--Generator: Apple Native CoreSVG 326-->
<!DOCTYPE svg PUBLIC "-//W3C//DTD SVG 1.1//EN" "http://www.w3.org/Graphics/SVG/1.1/DTD/svg11.dtd">
<svg version="1.1" xmlns="http://www.w3.org/2000/svg" xmlns:xlink="http://www.w3.org/1999/xlink"
       viewBox="0 0 17.7468 24.4618">
       <g>
              <rect height="24.4618" opacity="0" width="17.7468" x="0" y="0" />
              <path d="M0 4.83138C0 8.63269 5.24184 11.0699 5.24184 16.2772L5.24184 17.5796C5.24184 18.1974 5.6139 18.5695 6.23405 18.5695L11.1588 18.5695C11.7715 18.5695 12.1436 18.1974 12.1436 17.5796L12.1436 16.2772C12.1436 11.0555 17.3854 8.71082 17.3854 4.83138C17.3854 1.93366 14.1969 0.31335 8.6976 0.31335C3.19597 0.31335 0 1.93366 0 4.83138ZM2.45942 4.83138C2.45942 3.69778 4.86789 2.77277 8.6976 2.77277C12.5175 2.77277 14.9335 3.69778 14.9335 4.83138C14.9335 6.87725 9.69393 10.8911 9.69393 15.7212L9.69393 17.8565L11.728 16.5279L5.65739 16.5279L7.69895 17.8565L7.69895 15.7287C7.69895 10.8934 2.45942 6.87264 2.45942 4.83138ZM1.69049 7.25968L15.7047 7.25968L15.7047 5.11494L1.69049 5.11494ZM6.36986 21.3354L11.0253 21.3354C11.4721 21.3354 11.8305 20.957 11.8305 20.5377C11.8305 20.1035 11.4721 19.7326 11.0253 19.7326L6.36986 19.7326C5.9133 19.7326 5.55494 20.1035 5.55494 20.5377C5.55494 20.957 5.9133 21.3354 6.36986 21.3354ZM8.6976 24.4618C10.1279 24.4618 11.1922 23.6766 11.3227 22.5036L6.06276 22.5036C6.18862 23.6766 7.25295 24.4618 8.6976 24.4618Z"
                     fill="currentColor" fill-opacity="0.85" />
       </g>
</svg>