<?xml version="1.0" encoding="UTF-8"?>
<!--Generator: Apple Native CoreSVG 326-->
<!DOCTYPE svg PUBLIC "-//W3C//DTD SVG 1.1//EN" "http://www.w3.org/Graphics/SVG/1.1/DTD/svg11.dtd">
<svg version="1.1" xmlns="http://www.w3.org/2000/svg" xmlns:xlink="http://www.w3.org/1999/xlink"
       viewBox="0 0 23.0487 25.575">
       <g>
              <rect height="25.575" opacity="0" width="23.0487" x="0" y="0" />
              <path d="M11.3411 25.0035C9.69082 25.0035 8.43391 24.224 8.32824 23.0487L14.3069 23.0487C14.1966 24.224 12.9867 25.0035 11.3411 25.0035ZM15.421 21.0805C15.421 21.4998 15.0701 21.8805 14.6135 21.8805L8.06633 21.8805C7.61723 21.8805 7.26118 21.4998 7.26118 21.0805C7.26118 20.6486 7.61723 20.2754 8.06633 20.2754L14.6135 20.2754C15.0701 20.2754 15.421 20.6486 15.421 21.0805Z"
                     fill="currentColor" fill-opacity="0.85" />
              <path d="M15.482 18.687C15.2332 18.962 14.8547 19.1146 14.4029 19.1146L8.27699 19.1146C7.47087 19.1146 6.90022 18.6288 6.87838 17.8296C6.65797 12.3167 4.6357 10.6849 4.36691 7.57191ZM18.3518 6.88443C18.3518 9.33481 17.2757 10.785 16.5168 13.3357L5.91224 2.72518C7.20006 1.27241 9.16231 0.383863 11.3411 0.383863C15.18 0.383863 18.3518 3.14972 18.3518 6.88443Z"
                     fill="currentColor" fill-opacity="0.85" />
              <path d="M19.0157 20.2415C19.3558 20.5839 19.9066 20.5741 20.2294 20.2415C20.5447 19.9038 20.5597 19.3604 20.2294 19.0278L2.86271 1.6537C2.51751 1.3062 1.96209 1.32573 1.63927 1.6537C1.31131 1.9742 1.32853 2.54916 1.63927 2.86737Z"
                     fill="currentColor" fill-opacity="0.85" />
       </g>
</svg>