<?xml version="1.0" encoding="UTF-8"?>
<!--Generator: Apple Native CoreSVG 326-->
<!DOCTYPE svg PUBLIC "-//W3C//DTD SVG 1.1//EN" "http://www.w3.org/Graphics/SVG/1.1/DTD/svg11.dtd">
<svg version="1.1" xmlns="http://www.w3.org/2000/svg" xmlns:xlink="http://www.w3.org/1999/xlink"
       viewBox="0 0 29.5241 18.4594">
       <g>
              <rect height="18.4594" opacity="0" width="29.5241" x="0" y="0" />
              <path d="M14.5593 18.4473C23.1447 18.4473 29.1628 14.3994 29.1628 9.22482C29.1628 4.05019 23.1447 0 14.5593 0C6.00835 0 0 4.05019 0 9.22482C0 14.3994 6.00835 18.4473 14.5593 18.4473ZM14.5593 15.7813C7.33205 15.7813 2.67348 12.635 2.67348 9.22482C2.67348 5.80715 7.33205 2.66832 14.5593 2.66832C21.8284 2.66832 26.4967 5.80715 26.4967 9.22482C26.4967 12.635 21.8284 15.7813 14.5593 15.7813ZM14.5593 14.538C19.8786 14.538 23.5622 12.2782 23.5622 9.40642C23.5622 6.55935 19.8809 4.30931 14.5593 4.30931C9.26697 4.30931 5.60286 6.55935 5.60286 9.40642C5.60286 12.2805 9.26697 14.538 14.5593 14.538ZM14.5593 12.474C10.6527 12.474 7.74894 10.9733 7.74894 9.40642C7.74894 7.86934 10.6504 6.38078 14.5593 6.38078C18.4952 6.38078 21.4236 7.86934 21.4236 9.40642C21.4236 10.9733 18.4906 12.474 14.5593 12.474ZM14.5794 9.99466C17.6808 9.99466 20.1855 8.71525 21.2097 6.79942C19.6761 5.68287 17.2944 5.00291 14.5593 4.97932C11.8201 5.00291 9.46077 5.67541 7.93236 6.79427C8.94392 8.71755 11.4636 9.99466 14.5794 9.99466Z"
                     fill="currentColor" fill-opacity="0.85" />
       </g>
</svg>