<?xml version="1.0" encoding="UTF-8"?>
<!--Generator: Apple Native CoreSVG 326-->
<!DOCTYPE svg PUBLIC "-//W3C//DTD SVG 1.1//EN" "http://www.w3.org/Graphics/SVG/1.1/DTD/svg11.dtd">
<svg version="1.1" xmlns="http://www.w3.org/2000/svg" xmlns:xlink="http://www.w3.org/1999/xlink"
       viewBox="0 0 27.4167 22.6831">
       <g>
              <rect height="22.6831" opacity="0" width="27.4167" x="0" y="0" />
              <path d="M11.3569 12.8437C11.7444 12.8437 12.1236 12.8257 12.4925 12.7878L18.4307 18.7214C18.9567 19.2377 18.9446 19.9733 18.4307 20.4895C17.9219 21.0034 17.1938 21.0132 16.6603 20.4895L8.70378 12.5244C9.52925 12.7378 10.4185 12.8437 11.3569 12.8437ZM21.1842 15.9754C21.7154 16.4916 21.7056 17.2295 21.1842 17.7457C20.6731 18.2597 19.9375 18.2694 19.4064 17.7457L14.1523 12.4904C15.0655 12.2652 15.9034 11.9148 16.6529 11.4512ZM23.9257 13.2316C24.4591 13.7553 24.4321 14.4932 23.9182 15.0019C23.4117 15.5159 22.6813 15.5406 22.1427 15.0019L17.7973 10.6519C18.4395 10.1152 19.0016 9.48912 19.4665 8.77829ZM26.6717 10.4878C27.1731 10.9817 27.1931 11.727 26.6792 12.2507C26.1555 12.7646 25.4251 12.7893 24.8939 12.2582L20.1741 7.53596C20.5679 6.71628 20.8523 5.81421 21.0215 4.84645Z"
                     fill="currentColor" fill-opacity="0.85" />
              <path d="M1.24436 4.1311L3.1264 4.1311C3.60588 8.45067 6.79154 11.2993 11.3569 11.2993C15.9171 11.2993 19.1079 8.4432 19.5776 4.1288L21.4642 4.1288C22.143 4.1288 22.7161 3.55572 22.7161 2.87698C22.7161 2.19078 22.1504 1.62801 21.4642 1.62801L1.24436 1.63031C0.555853 1.63031 0 2.19308 0 2.87698C0 3.55572 0.565618 4.1311 1.24436 4.1311Z"
                     fill="currentColor" fill-opacity="0.85" />
       </g>
</svg>