<?xml version="1.0" encoding="UTF-8"?>
<!--Generator: Apple Native CoreSVG 326-->
<!DOCTYPE svg PUBLIC "-//W3C//DTD SVG 1.1//EN" "http://www.w3.org/Graphics/SVG/1.1/DTD/svg11.dtd">
<svg version="1.1" xmlns="http://www.w3.org/2000/svg" xmlns:xlink="http://www.w3.org/1999/xlink"
       viewBox="0 0 17.5013 17.0878">
       <g>
              <rect height="17.0878" opacity="0" width="17.5013" x="0" y="0" />
              <path d="M0.925612 2.72801L16.212 2.72801C16.7707 2.72801 17.1399 2.3611 17.1399 1.8024L17.1399 0.923308C17.1399 0.366909 16.7707 0 16.212 0L0.925612 0C0.366909 0 0 0.366909 0 0.923308L0 1.8024C0 2.3611 0.366909 2.72801 0.925612 2.72801ZM1.1646 8.68067L15.9753 8.68067C16.6754 8.68067 17.1399 8.21095 17.1399 7.48108L17.1399 6.21349C17.1399 5.48877 16.6754 5.01905 15.9753 5.01905L1.1646 5.01905C0.46226 5.01905 0 5.48877 0 6.21349L0 7.48108C0 8.21095 0.46226 8.68067 1.1646 8.68067ZM1.1646 16.8656L15.9753 16.8656C16.6754 16.8656 17.1399 16.3959 17.1399 15.6637L17.1399 12.1598C17.1399 11.4276 16.6754 10.9579 15.9753 10.9579L1.1646 10.9579C0.46226 10.9579 0 11.4276 0 12.1598L0 15.6637C0 16.3959 0.46226 16.8656 1.1646 16.8656Z"
                     fill="currentColor" fill-opacity="0.85" />
       </g>
</svg>