<?xml version="1.0" encoding="UTF-8"?>
<!--Generator: Apple Native CoreSVG 326-->
<!DOCTYPE svg PUBLIC "-//W3C//DTD SVG 1.1//EN" "http://www.w3.org/Graphics/SVG/1.1/DTD/svg11.dtd">
<svg version="1.1" xmlns="http://www.w3.org/2000/svg" xmlns:xlink="http://www.w3.org/1999/xlink"
       viewBox="0 0 25.7563 19.8328">
       <g>
              <rect height="19.8328" opacity="0" width="25.7563" x="0" y="0" />
              <path d="M0 18.3255C0 19.1581 0.679834 19.8328 1.5124 19.8328L23.8825 19.8328C24.7151 19.8328 25.3949 19.1581 25.3949 18.3255C25.3949 17.493 24.7151 16.8131 23.8825 16.8131L1.5124 16.8131C0.679834 16.8131 0 17.493 0 18.3255ZM0 1.53478C0 2.36735 0.679834 3.03972 1.5124 3.03972L23.8825 3.03972C24.7151 3.03972 25.3949 2.36735 25.3949 1.53478C25.3949 0.702216 24.7151 0.0200772 23.8825 0.0200772L1.5124 0.0200772C0.679834 0.0200772 0 0.702216 0 1.53478Z"
                     fill="currentColor" fill-opacity="0.85" />
              <path d="M10.5398 13.8918L12.7035 12.3072L14.8575 13.8918C15.3756 14.2605 15.9965 13.9509 15.7444 13.2243L14.9073 10.7055L17.0825 9.15361C17.5502 8.8049 17.465 8.08521 16.7499 8.08521L14.0564 8.10013L13.2532 5.57848C13.0378 4.93516 12.3617 4.93516 12.1486 5.57848L11.3408 8.10013L8.64501 8.08521C7.94485 8.08521 7.81493 8.81236 8.29751 9.15361L10.4923 10.713L9.64541 13.2243C9.40072 13.9136 10.0142 14.268 10.5398 13.8918Z"
                     fill="currentColor" fill-opacity="0.85" />
       </g>
</svg>