<?xml version="1.0" encoding="UTF-8"?>
<!--Generator: Apple Native CoreSVG 326-->
<!DOCTYPE svg PUBLIC "-//W3C//DTD SVG 1.1//EN" "http://www.w3.org/Graphics/SVG/1.1/DTD/svg11.dtd">
<svg version="1.1" xmlns="http://www.w3.org/2000/svg" xmlns:xlink="http://www.w3.org/1999/xlink"
       viewBox="0 0 21.365 21.006">
       <g>
              <rect height="21.006" opacity="0" width="21.365" x="0" y="0" />
              <path d="M10.4981 20.9962C16.302 20.9962 21.0037 16.2946 21.0037 10.4981C21.0037 4.70163 16.302 0 10.4981 0C4.70163 0 0 4.70163 0 10.4981C0 16.2946 4.70163 20.9962 10.4981 20.9962ZM10.4981 17.9484C6.37829 17.9484 3.04785 14.6179 3.04785 10.4981C3.04785 6.37829 6.37829 3.04785 10.4981 3.04785C14.6179 3.04785 17.9558 6.37829 17.9558 10.4981C17.9558 14.6179 14.6179 17.9484 10.4981 17.9484Z"
                     fill="currentColor" fill-opacity="0.85" />
              <path d="M6.78487 8.31486L14.2234 8.31486C14.8695 8.31486 15.3237 7.90713 15.3237 7.30069C15.3237 6.68909 14.8695 6.2739 14.2234 6.2739L6.78487 6.2739C6.12906 6.2739 5.67711 6.68909 5.67711 7.30069C5.67711 7.90713 6.12906 8.31486 6.78487 8.31486ZM6.78487 11.51L14.2234 11.51C14.8695 11.51 15.3237 11.1022 15.3237 10.4958C15.3237 9.88421 14.8695 9.46902 14.2234 9.46902L6.78487 9.46902C6.12906 9.46902 5.67711 9.88421 5.67711 10.4958C5.67711 11.1022 6.12906 11.51 6.78487 11.51ZM6.78487 14.7074L14.2234 14.7074C14.8695 14.7074 15.3237 14.2974 15.3237 13.6932C15.3237 13.0816 14.8695 12.6664 14.2234 12.6664L6.78487 12.6664C6.12906 12.6664 5.67711 13.0816 5.67711 13.6932C5.67711 14.2974 6.12906 14.7074 6.78487 14.7074Z"
                     fill="currentColor" fill-opacity="0.85" />
       </g>
</svg>