<?xml version="1.0" encoding="UTF-8"?>
<!--Generator: Apple Native CoreSVG 326-->
<!DOCTYPE svg PUBLIC "-//W3C//DTD SVG 1.1//EN" "http://www.w3.org/Graphics/SVG/1.1/DTD/svg11.dtd">
<svg version="1.1" xmlns="http://www.w3.org/2000/svg" xmlns:xlink="http://www.w3.org/1999/xlink"
       viewBox="0 0 21.199 12.4615">
       <g>
              <rect height="12.4615" opacity="0" width="21.199" x="0" y="0" />
              <path d="M1.32182 12.4615L19.521 12.4615C20.2594 12.4615 20.8377 11.8161 20.8377 11.0903C20.8377 10.3444 20.2669 9.73118 19.521 9.73118L1.32182 9.73118C0.583391 9.73118 0 10.3593 0 11.0903C0 11.7937 0.590851 12.4615 1.32182 12.4615Z"
                     fill="currentColor" fill-opacity="0.85" />
              <path d="M1.32182 7.58959L19.521 7.58959C20.2594 7.58959 20.8377 6.95398 20.8377 6.23047C20.8377 5.48228 20.2669 4.85928 19.521 4.85928L1.32182 4.85928C0.583391 4.85928 0 5.4972 0 6.23047C0 6.9316 0.590851 7.58959 1.32182 7.58959Z"
                     fill="currentColor" fill-opacity="0.85" />
              <path d="M1.32182 2.73492L19.521 2.73492C20.2594 2.73492 20.8377 2.09931 20.8377 1.3758C20.8377 0.629914 20.2669 0.0143754 19.521 0.0143754L1.32182 0.0143754C0.583391 0.0143754 0 0.644835 0 1.3758C0 2.07693 0.590851 2.73492 1.32182 2.73492Z"
                     fill="currentColor" fill-opacity="0.85" />
       </g>
</svg>