<?xml version="1.0" encoding="UTF-8"?>
<!--Generator: Apple Native CoreSVG 326-->
<!DOCTYPE svg PUBLIC "-//W3C//DTD SVG 1.1//EN" "http://www.w3.org/Graphics/SVG/1.1/DTD/svg11.dtd">
<svg version="1.1" xmlns="http://www.w3.org/2000/svg" xmlns:xlink="http://www.w3.org/1999/xlink"
       viewBox="0 0 26.3448 19.6929">
       <g>
              <rect height="19.6929" opacity="0" width="26.3448" x="0" y="0" />
              <path d="M24.239 15.6346C25.4179 15.6346 25.9835 15.0764 25.9835 13.8999L25.9835 5.79302C25.9835 4.61647 25.4179 4.05832 24.239 4.05832C23.055 4.05832 22.4969 4.61647 22.4969 5.79302L22.4969 13.8999C22.4969 15.0764 23.055 15.6346 24.239 15.6346Z"
                     fill="currentColor" fill-opacity="0.85" />
              <path d="M18.6116 13.0617C19.7882 13.0617 20.3464 12.5036 20.3464 11.3247L20.3464 8.36817C20.3464 7.18932 19.7882 6.63116 18.6116 6.63116C17.4351 6.63116 16.8769 7.18932 16.8769 8.36817L16.8769 11.3247C16.8769 12.5036 17.4351 13.0617 18.6116 13.0617Z"
                     fill="currentColor" fill-opacity="0.85" />
              <path d="M12.9917 19.6929C14.1683 19.6929 14.7288 19.1347 14.7288 17.9433L14.7288 1.74963C14.7288 0.558158 14.1683 0 12.9917 0C11.8152 0 11.2473 0.558158 11.2473 1.74963L11.2473 17.9433C11.2473 19.1347 11.8152 19.6929 12.9917 19.6929Z"
                     fill="currentColor" fill-opacity="0.85" />
              <path d="M7.37184 13.0617C8.54838 13.0617 9.10654 12.5036 9.10654 11.3247L9.10654 8.36817C9.10654 7.18932 8.54838 6.63116 7.37184 6.63116C6.18783 6.63116 5.62967 7.18932 5.62967 8.36817L5.62967 11.3247C5.62967 12.5036 6.18783 13.0617 7.37184 13.0617Z"
                     fill="currentColor" fill-opacity="0.85" />
              <path d="M1.73701 15.6346C2.92848 15.6346 3.48664 15.0764 3.48664 13.8999L3.48664 5.79302C3.48664 4.61647 2.92848 4.05832 1.73701 4.05832C0.558158 4.05832 0 4.61647 0 5.79302L0 13.8999C0 15.0764 0.558158 15.6346 1.73701 15.6346Z"
                     fill="currentColor" fill-opacity="0.85" />
       </g>
</svg>