<?xml version="1.0" encoding="UTF-8"?>
<!--Generator: Apple Native CoreSVG 326-->
<!DOCTYPE svg PUBLIC "-//W3C//DTD SVG 1.1//EN" "http://www.w3.org/Graphics/SVG/1.1/DTD/svg11.dtd">
<svg version="1.1" xmlns="http://www.w3.org/2000/svg" xmlns:xlink="http://www.w3.org/1999/xlink"
       viewBox="0 0 26.5012 20.937">
       <g>
              <rect height="20.937" opacity="0" width="26.5012" x="0" y="0" />
              <path d="M22.9197 7.89542C24.9434 8.72604 26.1399 10.7496 26.1399 12.9197C26.1399 16.0082 23.4697 18.4648 20.1474 18.4648L6.50615 18.4648C2.86042 18.4648 0 15.7841 0 12.5027C0 9.89604 1.4068 7.76671 3.71828 7.23609C3.94616 4.43456 6.51112 2.53379 9.19698 3.07278C10.5927 1.11759 12.7236 0 15.1911 0C19.5657 0 22.9094 3.30121 22.9197 7.89542ZM13.3287 8.40414C13.2333 8.50926 13.1265 8.6259 13.0196 8.75176C13.3104 8.75285 13.542 8.8718 13.7742 9.09938C14.3757 9.68938 14.3809 10.5224 13.7817 11.124L11.8498 13.0558C11.2455 13.6602 10.4296 13.6429 9.82525 13.0483C9.21111 12.429 9.2358 11.6281 9.82525 11.0238L10.3047 10.5294C10.0733 10.0928 9.93613 9.43062 10.186 8.75176L8.8294 10.1135C7.69034 11.2525 7.69034 12.8879 8.8294 14.0419C9.97823 15.1884 11.6187 15.1884 12.7676 14.0419L14.7775 12.0342C15.9189 10.8952 15.9533 9.2179 14.7701 8.10353C14.5476 7.89087 14.3234 7.73056 14.1051 7.63751ZM13.5519 5.38353L11.5494 7.39349C10.4029 8.53255 10.3707 10.2173 11.5517 11.3242C11.7764 11.5368 12.0029 11.7046 12.2167 11.7902L12.9931 11.031C13.1069 10.9029 13.1809 10.8093 13.2837 10.6926C13.0096 10.6777 12.7728 10.5513 12.5453 10.3283C11.9363 9.73833 11.9334 8.91044 12.5401 8.30376L14.4696 6.37423C15.0763 5.76754 15.8898 5.79969 16.4867 6.38684C17.1083 6.98376 17.106 7.80189 16.4942 8.40396L16.0073 8.896C16.2462 9.33491 16.3833 10.012 16.1335 10.6834L17.4826 9.31938C18.6291 8.17286 18.6268 6.53751 17.4975 5.40076C16.3412 4.23701 14.7082 4.23701 13.5519 5.38353Z"
                     fill="currentColor" fill-opacity="0.85" />
       </g>
</svg>