<?xml version="1.0" encoding="UTF-8"?>
<!--Generator: Apple Native CoreSVG 326-->
<!DOCTYPE svg PUBLIC "-//W3C//DTD SVG 1.1//EN" "http://www.w3.org/Graphics/SVG/1.1/DTD/svg11.dtd">
<svg version="1.1" xmlns="http://www.w3.org/2000/svg" xmlns:xlink="http://www.w3.org/1999/xlink"
       viewBox="0 0 21.365 21.006">
       <g>
              <rect height="21.006" opacity="0" width="21.365" x="0" y="0" />
              <path d="M21.0037 10.5079C21.0037 16.3043 16.302 21.006 10.4981 21.006C4.70394 21.006 0 16.3043 0 10.5079C0 4.7137 4.70394 0.00976562 10.4981 0.00976562C16.302 0.00976562 21.0037 4.7137 21.0037 10.5079ZM9.95178 9.56619C10.2093 9.65463 10.5833 9.89525 10.7826 10.0923C11.5341 10.8311 11.4146 11.8187 10.4339 12.7872L9.3542 13.8618C8.37302 14.8183 7.40501 14.9504 6.65876 14.2139C5.91767 13.4849 6.03255 12.4773 7.00341 11.5259L7.62823 10.9206C7.42491 10.5897 7.34054 9.7151 7.49679 9.15506L6.02818 10.6116C4.50596 12.1436 4.38131 13.8278 5.71283 15.157C7.0449 16.489 8.709 16.3466 10.241 14.8347L11.4092 13.7159C12.9704 12.177 13.0825 10.4555 11.7188 9.15615C11.439 8.86197 11.0685 8.60522 10.8151 8.46686C10.4647 8.74424 10.0633 9.24447 9.95178 9.56619ZM10.391 6.1965L9.22518 7.31761C7.66389 8.84675 7.55186 10.578 8.91553 11.8774C9.19534 12.1618 9.56589 12.4283 9.81694 12.5667C10.1673 12.2893 10.5711 11.7816 10.6826 11.4673C10.425 11.3766 10.0511 11.136 9.84424 10.9412C9.10029 10.1926 9.21748 9.20741 10.2004 8.23655L11.2727 7.16943C12.2613 6.20548 13.2293 6.07337 13.9756 6.81732C14.7144 7.54634 14.6018 8.5465 13.6309 9.50529L13.0061 10.1129C13.2094 10.4415 13.2938 11.3184 13.1376 11.8687L14.6039 10.4145C16.1284 8.88763 16.253 7.19599 14.9215 5.86678C13.5871 4.54217 11.9253 4.68459 10.391 6.1965Z"
                     fill="currentColor" fill-opacity="0.85" />
       </g>
</svg>