<?xml version="1.0" encoding="UTF-8"?>
<!--Generator: Apple Native CoreSVG 326-->
<!DOCTYPE svg PUBLIC "-//W3C//DTD SVG 1.1//EN" "http://www.w3.org/Graphics/SVG/1.1/DTD/svg11.dtd">
<svg version="1.1" xmlns="http://www.w3.org/2000/svg" xmlns:xlink="http://www.w3.org/1999/xlink"
       viewBox="0 0 24.3303 21.006">
       <g>
              <rect height="21.006" opacity="0" width="24.3303" x="0" y="0" />
              <path d="M11.9856 20.9962C17.7821 20.9962 22.4837 16.2946 22.4837 10.4981C22.4837 4.70163 17.7821 0 11.9856 0C6.18916 0 1.48753 4.70163 1.48753 10.4981L4.53538 10.4981C4.53538 6.37829 7.86582 3.04785 11.9856 3.04785C16.1055 3.04785 19.4359 6.37829 19.4359 10.4981C19.4359 14.6179 16.1055 17.9484 11.9856 17.9484C9.86874 17.9484 8.05458 17.1034 6.64712 15.6524C5.97135 15.0132 5.0498 14.8117 4.35614 15.4438C3.73423 16.0162 3.72149 16.9286 4.44894 17.7463C6.08398 19.7011 9.21457 20.9962 11.9856 20.9962ZM0.808605 8.39698C-0.0138912 8.39698-0.212055 9.15901 0.22849 9.72826L2.75918 13.0277C3.05907 13.4322 3.60988 13.4224 3.91492 13.0277L6.43585 9.72596C6.86894 9.15901 6.66847 8.39698 5.8655 8.39698Z"
                     fill="currentColor" fill-opacity="0.85" />
              <path d="M9.23555 14.5774L14.4366 14.5774C14.9586 14.5774 15.2905 14.253 15.2905 13.7632C15.2905 13.2659 14.9586 12.9415 14.4366 12.9415L11.0273 12.9415L11.0273 12.8852C11.4848 12.6163 11.7216 12.1468 11.8146 11.629C11.8244 11.5686 11.8342 11.4934 11.8342 11.4405L13.9106 11.4405C14.0732 11.4405 14.1944 11.3192 14.1944 11.1589C14.1944 11.0037 14.0732 10.8923 13.9106 10.8923L11.833 10.8923C11.7944 10.4993 11.6899 10.2 11.602 9.88112L13.9106 9.88112C14.0732 9.88112 14.1944 9.76217 14.1944 9.59955C14.1944 9.45416 14.0732 9.33521 13.9106 9.33521L11.4923 9.33521C11.4802 9.25248 11.4802 9.15767 11.4802 9.06287C11.4802 8.17911 12.2736 7.83707 13.1746 7.83707C13.4636 7.83707 13.8434 7.88305 14.0199 7.9118C14.2088 7.93594 14.353 7.94055 14.5029 7.94055C14.9422 7.94055 15.1937 7.69532 15.1937 7.31403C15.1937 6.86384 14.9083 6.62037 14.5075 6.4831C14.0243 6.30787 13.4063 6.26365 12.8261 6.26365C11.0602 6.26365 9.45264 7.05084 9.45264 8.77135C9.45264 8.96084 9.48248 9.14803 9.50717 9.33521L8.54674 9.33521C8.38643 9.33521 8.26517 9.45416 8.26517 9.59955C8.26517 9.76217 8.38643 9.88112 8.54674 9.88112L9.62205 9.88112C9.71225 10.2218 9.8019 10.5435 9.84733 10.8923L8.54674 10.8923C8.38643 10.8923 8.26517 11.0037 8.26517 11.1589C8.26517 11.3192 8.38643 11.4405 8.54674 11.4405L9.87323 11.4405C9.87323 11.4882 9.856 11.5698 9.84393 11.6446C9.75428 12.1688 9.44154 12.6089 8.99274 12.8788C8.65962 13.1033 8.39431 13.3491 8.39431 13.7637C8.39431 14.2673 8.75552 14.5774 9.23555 14.5774Z"
                     fill="currentColor" fill-opacity="0.85" />
       </g>
</svg>