<?xml version="1.0" encoding="UTF-8"?>
<!--Generator: Apple Native CoreSVG 326-->
<!DOCTYPE svg PUBLIC "-//W3C//DTD SVG 1.1//EN" "http://www.w3.org/Graphics/SVG/1.1/DTD/svg11.dtd">
<svg version="1.1" xmlns="http://www.w3.org/2000/svg" xmlns:xlink="http://www.w3.org/1999/xlink"
       viewBox="0 0 19.3993 19.0529">
       <g>
              <rect height="19.0529" opacity="0" width="19.3993" x="0" y="0" />
              <path d="M19.0379 3.63912L19.0379 15.4011C19.0379 17.7262 17.7164 19.0379 15.3896 19.0379L3.64834 19.0379C1.32382 19.0379 0 17.7262 0 15.4011L0 3.63912C0 1.32151 1.32382 0 3.64834 0L15.3896 0C17.7164 0 19.0379 1.32151 19.0379 3.63912ZM6.91503 7.67882C6.91503 7.89069 6.94488 8.08533 6.97702 8.28228L5.9523 8.28228C5.77992 8.28228 5.65866 8.40869 5.65866 8.57131C5.65866 8.74369 5.77992 8.86264 5.9523 8.86264L7.09421 8.86264C7.19187 9.2378 7.28152 9.57674 7.34187 9.94268L5.9523 9.94268C5.77992 9.94268 5.65866 10.0616 5.65866 10.2266C5.65866 10.3966 5.77992 10.5253 5.9523 10.5253L7.36261 10.5253C7.36492 10.5828 7.35285 10.6645 7.32355 10.749C7.2339 11.3002 6.90909 11.7673 6.43561 12.0596C6.0778 12.3013 5.79526 12.5695 5.79526 12.9939C5.79526 13.5394 6.1737 13.8793 6.69334 13.8793L12.2292 13.8793C12.7982 13.8793 13.1548 13.5302 13.1548 12.991C13.1548 12.4714 12.7982 12.1171 12.2292 12.1171L8.60625 12.1171L8.60625 12.0608C9.09817 11.7747 9.3522 11.2782 9.44755 10.7311C9.45731 10.6558 9.47454 10.588 9.47454 10.5253L11.6715 10.5253C11.8439 10.5253 11.9824 10.3966 11.9824 10.2266C11.9824 10.0616 11.8439 9.94268 11.6715 9.94268L9.47563 9.94268C9.43481 9.52506 9.31301 9.2062 9.21766 8.86264L11.6715 8.86264C11.8439 8.86264 11.9824 8.74369 11.9824 8.57131C11.9824 8.40869 11.8439 8.28228 11.6715 8.28228L9.10563 8.28228C9.09356 8.19724 9.09356 8.09498 9.09356 8.00017C9.09356 7.06243 9.93868 6.6934 10.9011 6.6934C11.1924 6.6934 11.6118 6.74168 11.7906 6.77789C11.9967 6.80949 12.1484 6.8141 12.3057 6.8141C12.7818 6.8141 13.0459 6.54418 13.0459 6.13075C13.0459 5.65588 12.7433 5.39002 12.3201 5.24529C11.8025 5.06029 11.1351 5.00861 10.5205 5.00861C8.64373 5.00861 6.91503 5.84749 6.91503 7.67882Z"
                     fill="currentColor" fill-opacity="0.85" />
       </g>
</svg>