<?xml version="1.0" encoding="UTF-8"?>
<!--Generator: Apple Native CoreSVG 326-->
<!DOCTYPE svg PUBLIC "-//W3C//DTD SVG 1.1//EN" "http://www.w3.org/Graphics/SVG/1.1/DTD/svg11.dtd">
<svg version="1.1" xmlns="http://www.w3.org/2000/svg" xmlns:xlink="http://www.w3.org/1999/xlink"
       viewBox="0 0 25.2371 20.7338">
       <g>
              <rect height="20.7338" opacity="0" width="25.2371" x="0" y="0" />
              <path d="M24.8758 12.3846C24.8758 5.93383 19.9627 0.631336 13.6785 0.00415235C13.2541-0.040066 12.9302 0.274072 12.9302 0.698483L12.9302 4.13058C12.9302 4.48379 13.1829 4.74109 13.5286 4.79046C17.2465 5.32405 20.1044 8.51741 20.1044 12.3846C20.1044 14.1648 19.4989 15.8157 18.4419 17.1359C18.2306 17.4138 18.2329 17.7555 18.4764 18.0012L20.9223 20.4523C21.2117 20.7567 21.6557 20.7417 21.9256 20.4328C23.7735 18.2551 24.8758 15.452 24.8758 12.3846Z"
                     fill="currentColor" fill-opacity="0.85" />
              <path d="M0 12.3846C0 15.4543 1.1023 18.2574 2.94273 20.4276C3.21265 20.7366 3.65429 20.7417 3.9535 20.4448L6.39194 17.9938C6.63541 17.748 6.63772 17.4063 6.42639 17.1284C5.38201 15.8157 4.77139 14.1648 4.77139 12.3846C4.77139 8.51741 7.63678 5.32405 11.3472 4.79046C11.7004 4.74109 11.9456 4.48379 11.9456 4.13058L11.9456 0.698483C11.9456 0.274072 11.6217-0.040066 11.1973 0.00415235C4.92054 0.631336 0 5.93383 0 12.3846Z"
                     fill="currentColor" fill-opacity="0.85" />
              <path d="M9.68435 16.4118L14.8803 16.4118C15.4097 16.4118 15.7416 16.0799 15.7416 15.5901C15.7416 15.0928 15.4097 14.7684 14.8803 14.7684L11.4687 14.7684L11.4687 14.7121C11.9336 14.4433 12.1727 13.976 12.2583 13.4559C12.2755 13.3956 12.283 13.3226 12.283 13.2674L14.3542 13.2674C14.5145 13.2674 14.6358 13.1484 14.6358 12.9858C14.6358 12.8404 14.5145 12.7215 14.3542 12.7215L12.2841 12.7215C12.2456 12.3286 12.1312 12.0367 12.0433 11.708L14.3542 11.708C14.5145 11.708 14.6358 11.5966 14.6358 11.4362C14.6358 11.2811 14.5145 11.1621 14.3542 11.1621L11.9411 11.1621C11.929 11.0794 11.929 10.9846 11.929 10.8996C11.929 10.006 12.7224 9.664 13.6234 9.664C13.905 9.664 14.2922 9.70997 14.4635 9.73872C14.6501 9.77033 14.7943 9.77724 14.9517 9.77724C15.3858 9.77724 15.6425 9.52224 15.6425 9.14326C15.6425 8.69307 15.3571 8.4473 14.9563 8.31234C14.4731 8.1348 13.8476 8.09288 13.2772 8.09288C11.509 8.09288 9.90143 8.87777 9.90143 10.5983C9.90143 10.7952 9.92382 10.975 9.95596 11.1621L8.99784 11.1621C8.83522 11.1621 8.71397 11.2811 8.71397 11.4362C8.71397 11.5966 8.83522 11.708 8.99784 11.708L10.0732 11.708C10.1536 12.0487 10.253 12.3705 10.2961 12.7215L8.99784 12.7215C8.83522 12.7215 8.71397 12.8404 8.71397 12.9858C8.71397 13.1484 8.83522 13.2674 8.99784 13.2674L10.3146 13.2674C10.3169 13.3151 10.3048 13.3968 10.2927 13.4715C10.1956 13.998 9.89034 14.4358 9.44154 14.7155C9.10842 14.9302 8.84311 15.1835 8.84311 15.5929C8.84311 16.0943 9.20432 16.4118 9.68435 16.4118Z"
                     fill="currentColor" fill-opacity="0.85" />
       </g>
</svg>