<?xml version="1.0" encoding="UTF-8"?>
<!--Generator: Apple Native CoreSVG 326-->
<!DOCTYPE svg PUBLIC "-//W3C//DTD SVG 1.1//EN" "http://www.w3.org/Graphics/SVG/1.1/DTD/svg11.dtd">
<svg version="1.1" xmlns="http://www.w3.org/2000/svg" xmlns:xlink="http://www.w3.org/1999/xlink"
       viewBox="0 0 21.365 21.006">
       <g>
              <rect height="21.006" opacity="0" width="21.365" x="0" y="0" />
              <path d="M21.0037 10.4981C21.0037 16.2923 16.302 20.9962 10.4981 20.9962C4.70394 20.9962 0 16.2923 0 10.4981C0 4.70163 4.70394 0 10.4981 0C16.302 0 21.0037 4.70163 21.0037 10.4981ZM7.80722 8.65538C7.80722 8.86725 7.82961 9.0619 7.86921 9.25885L6.83472 9.25885C6.66465 9.25885 6.54339 9.38525 6.54339 9.54787C6.54339 9.72026 6.66465 9.8392 6.83472 9.8392L7.9864 9.8392C8.08406 10.2144 8.17371 10.5533 8.2266 10.9192L6.83472 10.9192C6.66465 10.9192 6.54339 11.0382 6.54339 11.2031C6.54339 11.3732 6.66465 11.5019 6.83472 11.5019L8.2548 11.5019C8.2548 11.5594 8.24504 11.641 8.21574 11.7255C8.11863 12.2767 7.80128 12.7438 7.32034 13.0361C6.96253 13.2779 6.67999 13.546 6.67999 13.9704C6.67999 14.516 7.06589 14.8559 7.58553 14.8559L13.1139 14.8559C13.6904 14.8559 14.0372 14.5067 14.0372 13.9676C14.0372 13.4479 13.6904 13.0936 13.1139 13.0936L9.49098 13.0936L9.49098 13.0374C9.99036 12.7513 10.2369 12.2548 10.3397 11.7077C10.3495 11.6324 10.3593 11.5646 10.3593 11.5019L12.5637 11.5019C12.7361 11.5019 12.8671 11.3732 12.8671 11.2031C12.8671 11.0382 12.7361 10.9192 12.5637 10.9192L10.3581 10.9192C10.3172 10.5016 10.2052 10.1828 10.1024 9.8392L12.5637 9.8392C12.7361 9.8392 12.8671 9.72026 12.8671 9.54787C12.8671 9.38525 12.7361 9.25885 12.5637 9.25885L9.99782 9.25885C9.98575 9.17381 9.98575 9.07154 9.98575 8.97673C9.98575 8.03899 10.8309 7.66996 11.7858 7.66996C12.0846 7.66996 12.4965 7.71824 12.6828 7.75446C12.8815 7.78606 13.0331 7.79067 13.1979 7.79067C13.6642 7.79067 13.9381 7.52075 13.9381 7.10732C13.9381 6.63244 13.628 6.36658 13.2048 6.22186C12.6947 6.03686 12.0272 5.98518 11.4127 5.98518C9.52846 5.98518 7.80722 6.82405 7.80722 8.65538Z"
                     fill="currentColor" fill-opacity="0.85" />
       </g>
</svg>