<?xml version="1.0" encoding="UTF-8"?>
<!--Generator: Apple Native CoreSVG 326-->
<!DOCTYPE svg PUBLIC "-//W3C//DTD SVG 1.1//EN" "http://www.w3.org/Graphics/SVG/1.1/DTD/svg11.dtd">
<svg version="1.1" xmlns="http://www.w3.org/2000/svg" xmlns:xlink="http://www.w3.org/1999/xlink"
       viewBox="0 0 22.6374 22.2784">
       <g>
              <rect height="22.2784" opacity="0" width="22.6374" x="0" y="0" />
              <path d="M11.1343 22.2687C17.2722 22.2687 22.2761 17.2722 22.2761 11.1343C22.2761 4.99648 17.2722 0 11.1343 0C4.99648 0 0 4.99648 0 11.1343C0 17.2722 4.99648 22.2687 11.1343 22.2687ZM11.1343 18.2927C7.17804 18.2927 3.97601 15.0906 3.97601 11.1343C3.97601 7.17573 7.17804 3.97601 11.1343 3.97601C15.0929 3.97601 18.3001 7.17573 18.3001 11.1343C18.3001 15.0906 15.0929 18.2927 11.1343 18.2927Z"
                     fill="currentColor" fill-opacity="0.85" />
              <path d="M8.38425 15.2136L13.5853 15.2136C14.1073 15.2136 14.4415 14.8892 14.4415 14.3994C14.4415 13.9021 14.1073 13.5777 13.5853 13.5777L10.1686 13.5777L10.1686 13.5214C10.6335 13.2526 10.8703 12.783 10.9559 12.2652C10.9731 12.2048 10.9829 12.1296 10.9829 12.0767L13.0592 12.0767C13.2219 12.0767 13.3431 11.9554 13.3431 11.7951C13.3431 11.64 13.2219 11.5285 13.0592 11.5285L10.9817 11.5285C10.9454 11.1355 10.8386 10.8362 10.7507 10.5173L13.0592 10.5173C13.2219 10.5173 13.3431 10.3984 13.3431 10.2358C13.3431 10.0904 13.2219 9.97143 13.0592 9.97143L10.641 9.97143C10.6289 9.8887 10.6289 9.79389 10.6289 9.69909C10.6289 8.81533 11.4223 8.47329 12.3233 8.47329C12.6123 8.47329 12.9921 8.51927 13.1686 8.54802C13.3575 8.57216 13.5017 8.57677 13.6516 8.57677C14.0909 8.57677 14.3424 8.33154 14.3424 7.95025C14.3424 7.50006 14.057 7.25659 13.6562 7.11932C13.173 6.94409 12.555 6.89987 11.9748 6.89987C10.2089 6.89987 8.60133 7.68706 8.60133 9.40757C8.60133 9.59706 8.63117 9.78425 8.65586 9.97143L7.69774 9.97143C7.53512 9.97143 7.41387 10.0904 7.41387 10.2358C7.41387 10.3984 7.53512 10.5173 7.69774 10.5173L8.77305 10.5173C8.86094 10.858 8.95059 11.1798 8.99602 11.5285L7.69774 11.5285C7.53512 11.5285 7.41387 11.64 7.41387 11.7951C7.41387 11.9554 7.53512 12.0767 7.69774 12.0767L9.02192 12.0767C9.02423 12.1244 9.00469 12.2061 8.99262 12.2808C8.89551 12.805 8.59023 13.2451 8.14144 13.515C7.80832 13.7395 7.54301 13.9853 7.54301 14.3999C7.54301 14.9036 7.90421 15.2136 8.38425 15.2136Z"
                     fill="currentColor" fill-opacity="0.85" />
       </g>
</svg>