<?xml version="1.0" encoding="UTF-8"?>
<!--Generator: Apple Native CoreSVG 326-->
<!DOCTYPE svg PUBLIC "-//W3C//DTD SVG 1.1//EN" "http://www.w3.org/Graphics/SVG/1.1/DTD/svg11.dtd">
<svg version="1.1" xmlns="http://www.w3.org/2000/svg" xmlns:xlink="http://www.w3.org/1999/xlink"
       viewBox="0 0 22.7074 22.3565">
       <g>
              <rect height="22.3565" opacity="0" width="22.7074" x="0" y="0" />
              <path d="M8.48037 4.53329C9.02276 4.31492 9.59675 4.16668 10.2023 4.07879C10.482 4.03688 10.6807 3.8284 10.6807 3.54126L10.6807 0.573173C10.6807 0.224582 10.4131-0.0332668 10.0645 0.00349081C8.82593 0.125834 7.64593 0.449859 6.55097 0.95943C6.23167 1.10416 6.13347 1.45505 6.31034 1.74966L7.78835 4.31505C7.93077 4.55797 8.21045 4.64871 8.48037 4.53329Z"
                     fill="currentColor" fill-opacity="0.85" />
              <path d="M5.5237 6.77028C5.88624 6.30602 6.30452 5.88774 6.77855 5.52519C7.01171 5.34602 7.07315 5.05657 6.93073 4.81364L5.45273 2.25571C5.27585 1.94618 4.91004 1.85775 4.62289 2.06907C3.64051 2.78372 2.78222 3.64201 2.06988 4.6267C1.86601 4.9213 1.94468 5.27735 2.25652 5.45653L4.81675 6.92993C5.05968 7.07465 5.34452 7.00575 5.5237 6.77028Z"
                     fill="currentColor" fill-opacity="0.85" />
              <path d="M4.08475 10.1866C4.16518 9.59825 4.32089 9.02196 4.5444 8.49164C4.65468 8.21426 4.56624 7.93457 4.31355 7.78985L1.75331 6.31415C1.44894 6.13497 1.10035 6.23548 0.95793 6.55477C0.448359 7.64227 0.126639 8.82513 0.00199109 10.066C-0.022696 10.4146 0.225388 10.6799 0.573978 10.6799L3.54952 10.6799C3.83667 10.6799 4.0526 10.4835 4.08475 10.1866Z"
                     fill="currentColor" fill-opacity="0.85" />
              <path d="M4.53694 13.8597C4.32319 13.3271 4.16749 12.7582 4.08706 12.1527C4.0526 11.8632 3.83667 11.6668 3.54952 11.6668L0.573978 11.6668C0.225388 11.6668-0.0250009 11.9247 0.00199109 12.2807C0.124334 13.5239 0.448359 14.7016 0.960235 15.7966C1.10266 16.1182 1.44894 16.2187 1.75562 16.0395L4.31355 14.5592C4.56624 14.4145 4.64721 14.1348 4.53694 13.8597Z"
                     fill="currentColor" fill-opacity="0.85" />
              <path d="M6.77855 16.8238C6.31429 16.4636 5.88624 16.0453 5.526 15.5713C5.34682 15.3456 5.05968 15.2744 4.81444 15.4191L2.25652 16.8925C1.94468 17.0717 1.86601 17.4226 2.06757 17.7246C2.78222 18.707 3.64281 19.5728 4.6252 20.28C4.9198 20.4913 5.27816 20.3879 5.45503 20.0933L6.93073 17.5331C7.07315 17.2902 7.01171 17.003 6.77855 16.8238Z"
                     fill="currentColor" fill-opacity="0.85" />
              <path d="M10.2023 18.2702C9.59905 18.1824 9.02276 18.0266 8.48268 17.8129C8.21506 17.7003 7.93307 17.7911 7.79065 18.034L6.31265 20.5919C6.13577 20.8963 6.24144 21.2472 6.55558 21.3896C7.64823 21.8992 8.82593 22.2232 10.0645 22.3478C10.4131 22.3725 10.6807 22.1245 10.6807 21.7759L10.6807 18.8078C10.6807 18.5206 10.482 18.3122 10.2023 18.2702Z"
                     fill="currentColor" fill-opacity="0.85" />
              <path d="M13.8806 17.8106C13.3353 18.0266 12.7591 18.1824 12.1512 18.2702C11.864 18.3122 11.6653 18.5206 11.6653 18.8078L11.6653 21.7759C11.6653 22.1245 11.9329 22.3748 12.2815 22.3478C13.5201 22.2255 14.7099 21.8992 15.8025 21.3896C16.1218 21.2472 16.22 20.8888 16.0432 20.5845L14.5651 18.034C14.4227 17.7911 14.143 17.7003 13.8806 17.8106Z"
                     fill="currentColor" fill-opacity="0.85" />
              <path d="M16.8321 15.5713C16.4696 16.043 16.0564 16.459 15.5847 16.8238C15.3516 17.003 15.2803 17.2925 15.4302 17.5331L16.9082 20.091C17.0776 20.4005 17.4435 20.4913 17.7306 20.28C18.7153 19.5653 19.5787 18.7047 20.2859 17.7172C20.4898 17.4226 20.399 17.0717 20.1044 16.8925L17.5391 15.4168C17.2984 15.2721 17.0113 15.3456 16.8321 15.5713Z"
                     fill="currentColor" fill-opacity="0.85" />
              <path d="M18.271 12.1527C18.1906 12.7582 18.0424 13.3271 17.8166 13.8672C17.7011 14.1348 17.7896 14.4122 18.0348 14.5569L20.6002 16.0326C20.8971 16.2118 21.2606 16.1159 21.4053 15.7845C21.8977 14.6993 22.2217 13.5216 22.344 12.2807C22.3687 11.9247 22.1132 11.6668 21.7721 11.6668L18.8063 11.6668C18.5191 11.6668 18.3107 11.8632 18.271 12.1527Z"
                     fill="currentColor" fill-opacity="0.85" />
              <path d="M17.8166 8.48187C18.0378 9.02196 18.1906 9.59079 18.2687 10.1866C18.3107 10.4835 18.5191 10.6799 18.8063 10.6799L21.7721 10.6799C22.1132 10.6799 22.371 10.4146 22.344 10.066C22.2292 8.83489 21.8977 7.65489 21.4053 6.56223C21.2606 6.23317 20.8948 6.13497 20.6002 6.31415L18.0325 7.79215C17.7896 7.93688 17.7011 8.21426 17.8166 8.48187Z"
                     fill="currentColor" fill-opacity="0.85" />
              <path d="M15.5847 5.52519C16.0415 5.88774 16.4673 6.30371 16.8321 6.77028C17.0113 7.00344 17.2984 7.07696 17.5391 6.93223L20.1044 5.45653C20.4014 5.27735 20.4898 4.9213 20.2957 4.63416C19.581 3.64201 18.713 2.7665 17.7306 2.06907C17.4435 1.85775 17.0776 1.95364 16.9082 2.25802L15.4325 4.81364C15.2803 5.05887 15.3492 5.34602 15.5847 5.52519Z"
                     fill="currentColor" fill-opacity="0.85" />
              <path d="M12.1437 4.07879C12.7591 4.16438 13.3307 4.31492 13.8806 4.53329C14.143 4.64871 14.4227 4.55797 14.5651 4.31505L16.0432 1.74966C16.22 1.45505 16.1195 1.10416 15.7979 0.95943C14.7127 0.449859 13.5299 0.125834 12.2815 0.00349081C11.9329-0.0309619 11.6653 0.226887 11.6653 0.575478L11.6653 3.54126C11.6653 3.8284 11.864 4.03688 12.1437 4.07879Z"
                     fill="currentColor" fill-opacity="0.85" />
              <path d="M8.42178 15.2527L13.6154 15.2527C14.1448 15.2527 14.4767 14.9282 14.4767 14.4384C14.4767 13.9412 14.1448 13.6167 13.6154 13.6167L10.2061 13.6167L10.2061 13.5604C10.671 13.2916 10.9078 12.8221 10.9934 12.3042C11.0106 12.2439 11.0204 12.1686 11.0204 12.1157L13.0968 12.1157C13.2519 12.1157 13.3732 11.9945 13.3732 11.8342C13.3732 11.679 13.2519 11.5675 13.0968 11.5675L11.0192 11.5675C10.9807 11.1746 10.8686 10.8752 10.7785 10.5564L13.0968 10.5564C13.2519 10.5564 13.3732 10.4374 13.3732 10.2748C13.3732 10.1294 13.2519 10.0105 13.0968 10.0105L10.6785 10.0105C10.6664 9.92773 10.6641 9.83293 10.6641 9.73812C10.6641 8.85436 11.4599 8.51233 12.3608 8.51233C12.6424 8.51233 13.0296 8.5583 13.2061 8.58705C13.3853 8.61119 13.5392 8.6158 13.6891 8.6158C14.1284 8.6158 14.3799 8.37057 14.3799 7.98929C14.3799 7.5391 14.0945 7.29562 13.6937 7.15836C13.2106 6.98312 12.585 6.93891 12.0124 6.93891C10.2464 6.93891 8.63887 7.7261 8.63887 9.44661C8.63887 9.6361 8.66871 9.82328 8.69109 10.0105L7.73297 10.0105C7.57266 10.0105 7.4514 10.1294 7.4514 10.2748C7.4514 10.4374 7.57266 10.5564 7.73297 10.5564L8.80828 10.5564C8.89848 10.8971 8.98813 11.2188 9.03125 11.5675L7.73297 11.5675C7.57266 11.5675 7.4514 11.679 7.4514 11.8342C7.4514 11.9945 7.57266 12.1157 7.73297 12.1157L9.05946 12.1157C9.05946 12.1635 9.04223 12.2451 9.03016 12.3198C8.93305 12.844 8.62777 13.2841 8.17897 13.5541C7.84355 13.7785 7.57824 14.0243 7.57824 14.439C7.57824 14.9426 7.93944 15.2527 8.42178 15.2527Z"
                     fill="currentColor" fill-opacity="0.85" />
       </g>
</svg>