<?xml version="1.0" encoding="UTF-8"?>
<!--Generator: Apple Native CoreSVG 326-->
<!DOCTYPE svg PUBLIC "-//W3C//DTD SVG 1.1//EN" "http://www.w3.org/Graphics/SVG/1.1/DTD/svg11.dtd">
<svg version="1.1" xmlns="http://www.w3.org/2000/svg" xmlns:xlink="http://www.w3.org/1999/xlink"
       viewBox="0 0 24.6449 23.5952">
       <g>
              <rect height="23.5952" opacity="0" width="24.6449" x="0" y="0" />
              <path d="M13.7186 0.416404L22.6254 5.55167C23.136 5.85374 23.3841 6.25686 23.3841 6.69158C23.3841 7.28595 22.9074 7.89293 22.1092 7.89293L21.3244 7.89293L21.3244 19.392L21.7032 19.392C22.2379 19.392 22.5744 19.7159 22.5744 20.2632L22.5744 21.1701L23.0673 21.1701C23.7134 21.1701 24.2836 21.7231 24.2836 22.3766C24.2836 23.0525 23.7134 23.5854 23.0673 23.5854L1.20651 23.5854C0.553002 23.5854 0 23.045 0 22.3766C0 21.7231 0.553002 21.1701 1.20651 21.1701L1.94045 21.1701L1.94045 20.2632C1.94045 19.7159 2.27927 19.392 2.81396 19.392L3.19045 19.392L3.19045 7.89293L2.41314 7.89293C1.60745 7.89293 1.13081 7.28595 1.13081 6.69158C1.13081 6.25686 1.37659 5.85374 1.88944 5.55167L10.7963 0.416404C11.242 0.154491 11.7664 0 12.2563 0C12.7462 0 13.2683 0.154491 13.7186 0.416404ZM9.56771 11.1151C9.56771 11.3247 9.59755 11.5193 9.6297 11.7186L8.60267 11.7186C8.42513 11.7186 8.31134 11.8427 8.31134 12.0076C8.31134 12.1777 8.42513 12.2989 8.60267 12.2989L9.74458 12.2989C9.84454 12.6666 9.93419 13.013 9.98478 13.379L8.60267 13.379C8.42513 13.379 8.31134 13.4979 8.31134 13.6628C8.31134 13.8329 8.42513 13.9593 8.60267 13.9593L10.0153 13.9593C10.0153 14.0094 10.0055 14.091 9.97622 14.1755C9.88658 14.729 9.56176 15.1961 9.08828 15.4959C8.73047 15.7376 8.44047 15.9983 8.44047 16.4302C8.44047 16.9757 8.82637 17.3133 9.34601 17.3133L14.8818 17.3133C15.4509 17.3133 15.7977 16.9567 15.7977 16.4273C15.7977 15.9054 15.4509 15.5511 14.8818 15.5511L11.2589 15.5511L11.2589 15.4971C11.7508 15.2036 12.0049 14.707 12.1002 14.1674C12.11 14.0921 12.1272 14.0168 12.1272 13.9593L14.3242 13.9593C14.4966 13.9593 14.6276 13.8329 14.6276 13.6628C14.6276 13.4979 14.4966 13.379 14.3242 13.379L12.1185 13.379C12.0777 12.9614 11.9657 12.6425 11.8703 12.2989L14.3242 12.2989C14.4966 12.2989 14.6276 12.1777 14.6276 12.0076C14.6276 11.8427 14.4966 11.7186 14.3242 11.7186L11.7583 11.7186C11.7462 11.6312 11.7462 11.5313 11.7462 11.4365C11.7462 10.4964 12.5914 10.1274 13.5538 10.1274C13.8451 10.1274 14.2645 10.1757 14.4432 10.2142C14.6396 10.2458 14.8011 10.2504 14.9584 10.2504C15.4322 10.2504 15.6986 9.97817 15.6986 9.56704C15.6986 9.09217 15.396 8.82631 14.9728 8.68158C14.4552 8.48912 13.7877 8.43744 13.1732 8.43744C11.2964 8.43744 9.56771 9.28378 9.56771 11.1151Z"
                     fill="currentColor" fill-opacity="0.85" />
       </g>
</svg>