<?xml version="1.0" encoding="UTF-8"?>
<!--Generator: Apple Native CoreSVG 326-->
<!DOCTYPE svg PUBLIC "-//W3C//DTD SVG 1.1//EN" "http://www.w3.org/Graphics/SVG/1.1/DTD/svg11.dtd">
<svg version="1.1" xmlns="http://www.w3.org/2000/svg" xmlns:xlink="http://www.w3.org/1999/xlink"
       viewBox="0 0 23.8214 19.0529">
       <g>
              <rect height="19.0529" opacity="0" width="23.8214" x="0" y="0" />
              <path d="M23.4601 3.65404L23.4601 15.416C23.4601 17.7336 22.1386 19.0529 19.8117 19.0529L3.64834 19.0529C1.32382 19.0529 0 17.7336 0 15.416L0 3.65404C0 1.32897 1.32382 0.0149214 3.64834 0.0149214L19.8117 0.0149214C22.1386 0.0149214 23.4601 1.32897 23.4601 3.65404ZM3.9862 14.2412C3.9862 14.8012 4.46811 15.2757 5.01838 15.2757C5.60541 15.2757 6.06264 14.8185 6.06264 14.2412C6.06264 13.6714 5.60541 13.2044 5.01838 13.2044C4.46811 13.2044 3.9862 13.6812 3.9862 14.2412ZM7.98088 13.4222C7.5151 13.4222 7.1596 13.8001 7.1596 14.2412C7.1596 14.6897 7.53233 15.0625 7.98088 15.0625L14.0296 15.0625C14.4758 15.0625 14.8485 14.6897 14.8485 14.2412C14.8485 13.8001 14.4856 13.4222 14.0296 13.4222ZM3.9862 10.9939C3.9862 11.5734 4.45088 12.0134 5.01838 12.0134C5.60541 12.0134 6.06264 11.5734 6.06264 10.9939C6.06264 10.4264 5.61287 9.97659 5.01838 9.97659C4.45088 9.97659 3.9862 10.4287 3.9862 10.9939ZM7.98088 10.1921C7.5151 10.1921 7.1596 10.5401 7.1596 10.9939C7.1596 11.4396 7.5151 11.81 7.98088 11.81L18.6515 11.81C19.1024 11.81 19.4653 11.4396 19.4653 10.9939C19.4653 10.5401 19.1024 10.1921 18.6515 10.1921ZM3.9862 7.90506C3.9862 8.47256 4.46811 8.94701 5.01838 8.94701C5.60541 8.94701 6.06264 8.47487 6.06264 7.90506C6.06264 7.32549 5.60541 6.87057 5.01838 6.87057C4.46811 6.87057 3.9862 7.33526 3.9862 7.90506ZM7.98088 7.08378C7.51741 7.08378 7.1596 7.45882 7.1596 7.90506C7.1596 8.34385 7.53233 8.7315 7.98088 8.7315L14.0296 8.7315C14.4758 8.7315 14.8485 8.34385 14.8485 7.90506C14.8485 7.45882 14.4833 7.08378 14.0296 7.08378ZM3.9862 4.80651C3.9862 5.36424 4.46811 5.83354 5.01838 5.83354C5.60541 5.83354 6.06264 5.37401 6.06264 4.80651C6.06264 4.22694 5.60541 3.77202 5.01838 3.77202C4.46811 3.77202 3.9862 4.24417 3.9862 4.80651ZM7.98088 3.98292C7.53233 3.98292 7.1596 4.35565 7.1596 4.80651C7.1596 5.24529 7.5151 5.62318 7.98088 5.62318L18.6515 5.62318C19.1024 5.62318 19.4653 5.24529 19.4653 4.80651C19.4653 4.35565 19.0926 3.98292 18.6515 3.98292Z"
                     fill="currentColor" fill-opacity="0.85" />
       </g>
</svg>