<?xml version="1.0" encoding="UTF-8"?>
<!--Generator: Apple Native CoreSVG 326-->
<!DOCTYPE svg PUBLIC "-//W3C//DTD SVG 1.1//EN" "http://www.w3.org/Graphics/SVG/1.1/DTD/svg11.dtd">
<svg version="1.1" xmlns="http://www.w3.org/2000/svg" xmlns:xlink="http://www.w3.org/1999/xlink"
       viewBox="0 0 18.145 21.7932">
       <g>
              <rect height="21.7932" opacity="0" width="18.145" x="0" y="0" />
              <path d="M0 18.1397C0 20.4717 1.31921 21.7932 3.63912 21.7932L14.1445 21.7932C16.4719 21.7932 17.7836 20.4717 17.7836 18.1397L17.7836 3.66096C17.7836 1.33128 16.4719 0.0051558 14.1445 0.0051558L3.63912 0.0051558C1.31921 0.0051558 0 1.33128 0 3.66096ZM3.01964 17.7299L3.01964 4.07075C3.01964 3.3777 3.32832 3.0248 4.0679 3.0248L13.7232 3.0248C14.4553 3.0248 14.764 3.3777 14.764 4.07075L14.764 17.7299C14.764 18.4229 14.4553 18.7735 13.7232 18.7735L4.0679 18.7735C3.32832 18.7735 3.01964 18.4229 3.01964 17.7299Z"
                     fill="currentColor" fill-opacity="0.85" />
              <path d="M5.04665 11.7983C5.55446 11.7983 5.96231 11.3881 5.96231 10.8826C5.96231 10.3748 5.55446 9.9744 5.04665 9.9744C4.54344 9.9744 4.12352 10.3846 4.12352 10.8826C4.12352 11.3783 4.54344 11.7983 5.04665 11.7983ZM7.50212 11.6L12.9427 11.6C13.3344 11.6 13.6601 11.2743 13.6601 10.8826C13.6601 10.4909 13.3442 10.1652 12.9427 10.1652L7.50212 10.1652C7.10064 10.1652 6.78475 10.4909 6.78475 10.8826C6.78475 11.2743 7.11041 11.6 7.50212 11.6Z"
                     fill="currentColor" fill-opacity="0.85" />
              <path d="M5.04665 8.97916C5.55446 8.97916 5.96231 8.57646 5.96231 8.07096C5.96231 7.57061 5.56192 7.16506 5.04665 7.16506C4.53368 7.16506 4.12352 7.57291 4.12352 8.07096C4.12352 8.57646 4.53368 8.97916 5.04665 8.97916ZM7.50212 8.78834L12.9427 8.78834C13.3442 8.78834 13.6601 8.46498 13.6601 8.07096C13.6601 7.66947 13.3442 7.36104 12.9427 7.36104L7.50212 7.36104C7.10064 7.36104 6.78475 7.66947 6.78475 8.07096C6.78475 8.46498 7.10064 8.78834 7.50212 8.78834Z"
                     fill="currentColor" fill-opacity="0.85" />
              <path d="M5.04665 6.31915C5.55446 6.31915 5.96231 5.89638 5.96231 5.39603C5.96231 4.89052 5.55446 4.48036 5.04665 4.48036C4.54344 4.48036 4.12352 4.89282 4.12352 5.39603C4.12352 5.89407 4.54344 6.31915 5.04665 6.31915ZM7.50212 6.12317L12.9427 6.12317C13.3344 6.12317 13.6601 5.79005 13.6601 5.39603C13.6601 5.00431 13.3419 4.67119 12.9427 4.67119L7.50212 4.67119C7.10295 4.67119 6.78475 5.00431 6.78475 5.39603C6.78475 5.79005 7.11041 6.12317 7.50212 6.12317Z"
                     fill="currentColor" fill-opacity="0.85" />
       </g>
</svg>