<?xml version="1.0" encoding="UTF-8"?>
<!--Generator: Apple Native CoreSVG 326-->
<!DOCTYPE svg PUBLIC "-//W3C//DTD SVG 1.1//EN" "http://www.w3.org/Graphics/SVG/1.1/DTD/svg11.dtd">
<svg version="1.1" xmlns="http://www.w3.org/2000/svg" xmlns:xlink="http://www.w3.org/1999/xlink"
       viewBox="0 0 18.145 21.7932">
       <g>
              <rect height="21.7932" opacity="0" width="18.145" x="0" y="0" />
              <path d="M17.7836 3.66096L17.7836 18.1397C17.7836 20.4717 16.4719 21.7932 14.1445 21.7932L3.63912 21.7932C1.31921 21.7932 0 20.4717 0 18.1397L0 3.66096C0 1.33128 1.31921 0.0051558 3.63912 0.0051558L14.1445 0.0051558C16.4719 0.0051558 17.7836 1.33128 17.7836 3.66096ZM3.64646 11.0623C3.64646 11.5828 4.09107 12.0446 4.62873 12.0446C5.16869 12.0446 5.61099 11.6 5.61099 11.0623C5.61099 10.5201 5.16869 10.0875 4.62873 10.0875C4.09107 10.0875 3.64646 10.5298 3.64646 11.0623ZM7.57497 10.2858C7.15396 10.2858 6.80591 10.6362 6.80591 11.0623C6.80591 11.4787 7.16372 11.8291 7.57497 11.8291L13.3704 11.8291C13.7868 11.8291 14.1372 11.4787 14.1372 11.0623C14.1372 10.6362 13.7966 10.2858 13.3704 10.2858ZM3.64646 8.07096C3.64646 8.60861 4.08131 9.0383 4.62873 9.0383C5.16869 9.0383 5.61099 8.60861 5.61099 8.07096C5.61099 7.52869 5.17615 7.09846 4.62873 7.09846C4.08131 7.09846 3.64646 7.531 3.64646 8.07096ZM7.57497 7.3019C7.15396 7.3019 6.80591 7.63502 6.80591 8.07096C6.80591 8.48221 7.15396 8.83771 7.57497 8.83771L13.3704 8.83771C13.7966 8.83771 14.1372 8.48221 14.1372 8.07096C14.1372 7.63502 13.7966 7.3019 13.3704 7.3019ZM3.64646 5.2163C3.64646 5.7488 4.09107 6.19857 4.62873 6.19857C5.16869 6.19857 5.61099 5.75111 5.61099 5.2163C5.61099 4.67865 5.16869 4.23404 4.62873 4.23404C4.09107 4.23404 3.64646 4.68095 3.64646 5.2163ZM7.57497 4.44209C7.15626 4.44209 6.80591 4.7999 6.80591 5.2163C6.80591 5.64478 7.16372 5.99513 7.57497 5.99513L13.3704 5.99513C13.7868 5.99513 14.1372 5.64478 14.1372 5.2163C14.1372 4.7999 13.7943 4.44209 13.3704 4.44209Z"
                     fill="currentColor" fill-opacity="0.85" />
       </g>
</svg>