<?xml version="1.0" encoding="UTF-8"?>
<!--Generator: Apple Native CoreSVG 326-->
<!DOCTYPE svg PUBLIC "-//W3C//DTD SVG 1.1//EN" "http://www.w3.org/Graphics/SVG/1.1/DTD/svg11.dtd">
<svg version="1.1" xmlns="http://www.w3.org/2000/svg" xmlns:xlink="http://www.w3.org/1999/xlink"
       viewBox="0 0 21.365 21.006">
       <g>
              <rect height="21.006" opacity="0" width="21.365" x="0" y="0" />
              <path d="M10.4981 20.9962C16.302 20.9962 21.0037 16.2946 21.0037 10.4981C21.0037 4.70163 16.302 0 10.4981 0C4.70163 0 0 4.70163 0 10.4981C0 16.2946 4.70163 20.9962 10.4981 20.9962ZM10.4981 17.9484C6.37829 17.9484 3.04785 14.6179 3.04785 10.4981C3.04785 6.37829 6.37829 3.04785 10.4981 3.04785C14.6179 3.04785 17.9558 6.37829 17.9558 10.4981C17.9558 14.6179 14.6179 17.9484 10.4981 17.9484Z"
                     fill="currentColor" fill-opacity="0.85" />
              <path d="M8.84645 8.3911L14.6934 8.3911C15.1075 8.3911 15.4309 8.06259 15.4309 7.65595C15.4309 7.24701 15.1075 6.92595 14.6934 6.92595L8.84645 6.92595C8.43981 6.92595 8.12622 7.24931 8.12622 7.65595C8.12622 8.06028 8.44957 8.3911 8.84645 8.3911ZM8.84645 14.0726L14.6934 14.0726C15.1075 14.0726 15.4309 13.7515 15.4309 13.3449C15.4309 12.9285 15.1075 12.6074 14.6934 12.6074L8.84645 12.6074C8.44957 12.6074 8.12622 12.9405 8.12622 13.3449C8.12622 13.7515 8.44727 14.0726 8.84645 14.0726ZM8.84645 11.2356L14.6934 11.2356C15.1075 11.2356 15.4309 10.9071 15.4309 10.5004C15.4309 10.0915 15.1075 9.76296 14.6934 9.76296L8.84645 9.76296C8.44211 9.76296 8.12622 10.0961 8.12622 10.5004C8.12622 10.9047 8.44957 11.2356 8.84645 11.2356ZM6.49293 8.59278C6.99668 8.59278 7.42976 8.15739 7.42976 7.65595C7.42976 7.1499 6.99898 6.72658 6.49293 6.72658C5.98688 6.72658 5.5561 7.1499 5.5561 7.65595C5.5561 8.16716 5.98688 8.59278 6.49293 8.59278ZM6.49293 11.4372C6.99668 11.4372 7.42976 11.0019 7.42976 10.5004C7.42976 9.99667 6.99668 9.56358 6.49293 9.56358C5.98688 9.56358 5.5561 9.99436 5.5561 10.5004C5.5561 11.0042 5.98688 11.4372 6.49293 11.4372ZM6.49293 14.2743C6.99898 14.2743 7.42976 13.8486 7.42976 13.3449C7.42976 12.8411 6.99668 12.408 6.49293 12.408C5.98688 12.408 5.5561 12.8314 5.5561 13.3449C5.5561 13.8486 5.98688 14.2743 6.49293 14.2743Z"
                     fill="currentColor" fill-opacity="0.85" />
       </g>
</svg>