<?xml version="1.0" encoding="UTF-8"?>
<!--Generator: Apple Native CoreSVG 326-->
<!DOCTYPE svg PUBLIC "-//W3C//DTD SVG 1.1//EN" "http://www.w3.org/Graphics/SVG/1.1/DTD/svg11.dtd">
<svg version="1.1" xmlns="http://www.w3.org/2000/svg" xmlns:xlink="http://www.w3.org/1999/xlink"
       viewBox="0 0 18.0107 28.1349">
       <g>
              <rect height="28.1349" opacity="0" width="18.0107" x="0" y="0" />
              <path d="M3.61456 4.51936L3.61456 5.54475C3.61456 6.88713 4.54108 7.83834 5.83693 7.83834L11.8049 7.83834C13.1083 7.83834 14.0273 6.88713 14.0273 5.54475L14.0273 4.51936C14.0273 4.19102 13.9737 3.88737 13.8727 3.61637L13.9878 3.61637C16.2406 3.61637 17.6493 5.03488 17.6493 7.3244L17.6493 22.0046C17.6493 24.2941 16.2406 25.7126 13.9878 25.7126L3.65404 25.7126C1.40128 25.7126 0 24.2941 0 22.0046L0 7.3244C0 5.03488 1.40128 3.61637 3.65404 3.61637L3.77024 3.61637C3.66859 3.88737 3.61456 4.19102 3.61456 4.51936ZM4.96325 18.8127C4.40278 18.8127 3.94798 19.2601 3.94798 19.8182C3.94798 20.3764 4.40509 20.8335 4.96325 20.8335L9.1897 20.8335C9.74786 20.8335 10.2027 20.3764 10.2027 19.8182C10.2027 19.2601 9.75016 18.8127 9.1897 18.8127ZM4.96325 14.9537C4.40278 14.9537 3.94798 15.3987 3.94798 15.9592C3.94798 16.5271 4.38786 16.9744 4.96325 16.9744L12.6936 16.9744C13.2615 16.9744 13.7088 16.5271 13.7088 15.9592C13.7088 15.3987 13.254 14.9537 12.6936 14.9537ZM4.96325 11.2876C4.40509 11.2876 3.94798 11.7447 3.94798 12.3052C3.94798 12.8633 4.40509 13.3181 4.96325 13.3181L12.6936 13.3181C13.2517 13.3181 13.7088 12.8633 13.7088 12.3052C13.7088 11.7447 13.2517 11.2876 12.6936 11.2876Z"
                     fill="currentColor" fill-opacity="0.85" />
              <path d="M11.2049 3.40335L11.8049 3.40335C12.4609 3.40335 12.8549 3.8169 12.8549 4.51936L12.8549 5.54475C12.8549 6.23975 12.4609 6.66076 11.8049 6.66076L5.83693 6.66076C5.18846 6.66076 4.79444 6.23975 4.79444 5.54475L4.79444 4.51936C4.79444 3.8169 5.18846 3.40335 5.83693 3.40335L6.4444 3.40335C6.53515 2.16554 7.55756 1.17758 8.82467 1.17758C10.0918 1.17758 11.1142 2.16554 11.2049 3.40335ZM7.92283 3.4964C7.92283 3.97776 8.32608 4.39077 8.82467 4.39077C9.32326 4.39077 9.71904 3.97776 9.71904 3.4964C9.71904 3.00296 9.32326 2.59972 8.82467 2.59972C8.32608 2.59972 7.92283 3.00296 7.92283 3.4964Z"
                     fill="currentColor" fill-opacity="0.85" />
       </g>
</svg>