<?xml version="1.0" encoding="UTF-8"?>
<!--Generator: Apple Native CoreSVG 326-->
<!DOCTYPE svg PUBLIC "-//W3C//DTD SVG 1.1//EN" "http://www.w3.org/Graphics/SVG/1.1/DTD/svg11.dtd">
<svg version="1.1" xmlns="http://www.w3.org/2000/svg" xmlns:xlink="http://www.w3.org/1999/xlink"
       viewBox="0 0 23.8214 19.0529">
       <g>
              <rect height="19.0529" opacity="0" width="23.8214" x="0" y="0" />
              <path d="M3.64834 19.0529L19.8117 19.0529C22.1386 19.0529 23.4601 17.7336 23.4601 15.416L23.4601 3.65404C23.4601 1.32897 22.1386 0.0149214 19.8117 0.0149214L3.64834 0.0149214C1.32382 0.0149214 0 1.32897 0 3.65404L0 15.416C0 17.7336 1.32382 19.0529 3.64834 19.0529ZM4.05583 16.0332C3.37024 16.0332 3.01964 15.7171 3.01964 14.985L3.01964 4.07767C3.01964 3.34555 3.37024 3.03457 4.05583 3.03457L19.4042 3.03457C20.0875 3.03457 20.4404 3.34555 20.4404 4.07767L20.4404 14.985C20.4404 15.7171 20.0875 16.0332 19.4042 16.0332Z"
                     fill="currentColor" fill-opacity="0.85" />
              <path d="M5.94969 6.48407L6.85529 6.48407C7.28783 6.48407 7.65201 6.12736 7.65201 5.68736C7.65201 5.24736 7.28552 4.89064 6.85529 4.89064L5.94969 4.89064C5.51485 4.89064 5.15528 5.24736 5.15528 5.68736C5.15528 6.12736 5.51716 6.48407 5.94969 6.48407ZM5.94969 9.51967L6.85529 9.51967C7.28552 9.51967 7.65201 9.16525 7.65201 8.72525C7.65201 8.28525 7.28783 7.93084 6.85529 7.93084L5.94969 7.93084C5.51485 7.93084 5.15528 8.28525 5.15528 8.72525C5.15528 9.16525 5.51485 9.51967 5.94969 9.51967ZM9.39569 6.4145L17.5627 6.4145C17.9642 6.4145 18.2801 6.08884 18.2801 5.68736C18.2801 5.29333 17.9642 4.97744 17.5627 4.97744L9.39569 4.97744C9.00166 4.97744 8.67831 5.28587 8.67831 5.68736C8.67831 6.08884 8.98674 6.4145 9.39569 6.4145ZM9.39569 9.44494L17.5627 9.44494C17.9642 9.44494 18.2801 9.1365 18.2801 8.72525C18.2801 8.32377 17.9642 8.00557 17.5627 8.00557L9.39569 8.00557C9.00397 8.00557 8.67831 8.32147 8.67831 8.72525C8.67831 9.11928 8.98674 9.44494 9.39569 9.44494Z"
                     fill="currentColor" fill-opacity="0.85" />
       </g>
</svg>