<?xml version="1.0" encoding="UTF-8"?>
<!--Generator: Apple Native CoreSVG 326-->
<!DOCTYPE svg PUBLIC "-//W3C//DTD SVG 1.1//EN" "http://www.w3.org/Graphics/SVG/1.1/DTD/svg11.dtd">
<svg version="1.1" xmlns="http://www.w3.org/2000/svg" xmlns:xlink="http://www.w3.org/1999/xlink"
       viewBox="0 0 18.0107 28.1349">
       <g>
              <rect height="28.1349" opacity="0" width="18.0107" x="0" y="0" />
              <path d="M17.6493 7.32671L17.6493 22.0046C17.6493 24.2941 16.2406 25.7126 13.9878 25.7126L3.65404 25.7126C1.40128 25.7126 0 24.2941 0 22.0046L0 7.32671C0 5.03718 1.40128 3.61868 3.65404 3.61868L3.76948 3.61868C3.66829 3.88905 3.61456 4.19193 3.61456 4.51936L3.61456 5.54475C3.61456 5.87929 3.6721 6.18952 3.77867 6.46673L3.75455 6.46673C3.17911 6.46673 2.84805 6.8047 2.84805 7.34624L2.84805 21.985C2.84805 22.5289 3.17911 22.8645 3.75455 22.8645L13.8948 22.8645C14.4628 22.8645 14.8013 22.5289 14.8013 21.985L14.8013 7.34624C14.8013 6.8047 14.4628 6.46673 13.8948 6.46673L13.8642 6.46673C13.9702 6.18952 14.0273 5.87929 14.0273 5.54475L14.0273 4.51936C14.0273 4.19193 13.974 3.88905 13.8735 3.61868L13.9878 3.61868C16.2406 3.61868 17.6493 5.03718 17.6493 7.32671Z"
                     fill="currentColor" fill-opacity="0.85" />
              <path d="M5.83693 6.66076L11.8049 6.66076C12.4609 6.66076 12.8549 6.23975 12.8549 5.54475L12.8549 4.51936C12.8549 3.8169 12.4609 3.40335 11.8049 3.40335L11.2049 3.40335C11.1142 2.16554 10.0918 1.17758 8.82467 1.17758C7.55756 1.17758 6.53515 2.16554 6.4444 3.40335L5.83693 3.40335C5.18846 3.40335 4.79444 3.8169 4.79444 4.51936L4.79444 5.54475C4.79444 6.23975 5.18846 6.66076 5.83693 6.66076ZM8.82467 4.39077C8.32608 4.39077 7.92283 3.97776 7.92283 3.4964C7.92283 3.00296 8.32608 2.59972 8.82467 2.59972C9.32326 2.59972 9.71904 3.00296 9.71904 3.4964C9.71904 3.97776 9.32326 4.39077 8.82467 4.39077Z"
                     fill="currentColor" fill-opacity="0.85" />
              <path d="M5.19695 19.4082L9.15986 19.4082C9.6784 19.4082 10.1085 18.9855 10.1085 18.4595C10.1085 17.941 9.68817 17.5258 9.15986 17.5258L5.19695 17.5258C4.6761 17.5258 4.24599 17.941 4.24599 18.4595C4.24599 18.9855 4.6784 19.4082 5.19695 19.4082Z"
                     fill="currentColor" fill-opacity="0.85" />
              <path d="M5.19695 15.7931L12.4598 15.7931C12.9882 15.7931 13.4034 15.3779 13.4034 14.8496C13.4034 14.3236 12.9807 13.9107 12.4598 13.9107L5.19695 13.9107C4.6761 13.9107 4.24599 14.3236 4.24599 14.8496C4.24599 15.3779 4.66118 15.7931 5.19695 15.7931Z"
                     fill="currentColor" fill-opacity="0.85" />
              <path d="M5.19695 12.3711L12.4598 12.3711C12.9784 12.3711 13.4034 11.941 13.4034 11.4224C13.4034 10.8964 12.9784 10.4715 12.4598 10.4715L5.19695 10.4715C4.6784 10.4715 4.24599 10.8964 4.24599 11.4224C4.24599 11.941 4.6784 12.3711 5.19695 12.3711Z"
                     fill="currentColor" fill-opacity="0.85" />
       </g>
</svg>