<?xml version="1.0" encoding="UTF-8"?>
<!--Generator: Apple Native CoreSVG 326-->
<!DOCTYPE svg PUBLIC "-//W3C//DTD SVG 1.1//EN" "http://www.w3.org/Graphics/SVG/1.1/DTD/svg11.dtd">
<svg version="1.1" xmlns="http://www.w3.org/2000/svg" xmlns:xlink="http://www.w3.org/1999/xlink"
       viewBox="0 0 23.7703 23.4397">
       <g>
              <rect height="23.4397" opacity="0" width="23.7703" x="0" y="0" />
              <path d="M12.2387 22.5319C12.2387 22.8576 11.9768 23.1195 11.6511 23.1195C11.3157 23.1195 11.0612 22.8576 11.0612 22.5319C11.0612 22.1965 11.3157 21.9421 11.6511 21.9421C11.9768 21.9421 12.2387 22.1965 12.2387 22.5319ZM10.3598 22.3659C10.3598 22.6939 10.1053 22.9535 9.76987 22.9535C9.44421 22.9535 9.1823 22.6939 9.1823 22.3659C9.1823 22.038 9.44421 21.7783 9.76987 21.7783C10.1053 21.7783 10.3598 22.038 10.3598 22.3659ZM14.1102 22.3659C14.1102 22.6939 13.8483 22.9535 13.5226 22.9535C13.1946 22.9535 12.935 22.6939 12.935 22.3659C12.935 22.038 13.1946 21.7783 13.5226 21.7783C13.8483 21.7783 14.1102 22.038 14.1102 22.3659ZM8.54686 21.8771C8.54686 22.2102 8.29241 22.4647 7.95698 22.4647C7.63132 22.4647 7.36941 22.2102 7.36941 21.8771C7.36941 21.5491 7.63132 21.2872 7.95698 21.2872C8.29241 21.2872 8.54686 21.5491 8.54686 21.8771ZM15.9231 21.8771C15.9231 22.2102 15.6612 22.4647 15.3355 22.4647C15.0075 22.4647 14.7456 22.2102 14.7456 21.8771C14.7456 21.5491 15.0075 21.2872 15.3355 21.2872C15.6612 21.2872 15.9231 21.5491 15.9231 21.8771ZM6.84655 21.0809C6.84655 21.4089 6.58464 21.6685 6.25898 21.6685C5.92355 21.6685 5.66394 21.4089 5.66394 21.0809C5.66394 20.7455 5.92355 20.4933 6.25898 20.4933C6.58464 20.4933 6.84655 20.7455 6.84655 21.0809ZM17.6308 21.0809C17.6308 21.4089 17.3689 21.6685 17.041 21.6685C16.7153 21.6685 16.4534 21.4089 16.4534 21.0809C16.4534 20.7455 16.7153 20.4933 17.041 20.4933C17.3689 20.4933 17.6308 20.7455 17.6308 21.0809ZM5.3048 20.0108C5.3048 20.3364 5.04289 20.5983 4.70976 20.5983C4.38179 20.5983 4.11988 20.3364 4.11988 20.0108C4.11988 19.6828 4.38179 19.4209 4.70976 19.4209C5.04289 19.4209 5.3048 19.6828 5.3048 20.0108ZM3.97328 18.6643C3.97328 18.9998 3.71367 19.2519 3.3857 19.2519C3.05773 19.2519 2.79813 18.9998 2.79813 18.6643C2.79813 18.3364 3.05773 18.0768 3.3857 18.0768C3.71367 18.0768 3.97328 18.3364 3.97328 18.6643ZM2.90828 17.1277C2.90828 17.4632 2.64636 17.7153 2.31324 17.7153C1.98527 17.7153 1.72336 17.4632 1.72336 17.1277C1.72336 16.7998 1.98527 16.5402 2.31324 16.5402C2.64636 16.5402 2.90828 16.7998 2.90828 17.1277ZM21.5691 17.1277C21.5691 17.4632 21.3072 17.7153 20.9792 17.7153C20.9573 17.7153 20.9356 17.7142 20.9144 17.7117L20.3951 17.1927C20.3928 17.1715 20.3917 17.1498 20.3917 17.1277C20.3917 16.7998 20.6536 16.5402 20.9792 16.5402C21.3072 16.5402 21.5691 16.7998 21.5691 17.1277ZM2.10179 15.4297C2.10179 15.7577 1.84219 16.0196 1.51422 16.0196C1.17879 16.0196 0.926643 15.7577 0.926643 15.4297C0.926643 15.0966 1.17879 14.8421 1.51422 14.8421C1.84219 14.8421 2.10179 15.0966 2.10179 15.4297ZM22.3733 15.4297C22.3733 15.7577 22.1137 16.0196 21.7857 16.0196C21.4503 16.0196 21.1981 15.7577 21.1981 15.4297C21.1981 15.0966 21.4503 14.8421 21.7857 14.8421C22.1137 14.8421 22.3733 15.0966 22.3733 15.4297ZM22.8472 13.6191C22.8472 13.9471 22.5951 14.2067 22.2596 14.2067C21.934 14.2067 21.672 13.9471 21.672 13.6191C21.672 13.2837 21.934 13.0316 22.2596 13.0316C22.5951 13.0316 22.8472 13.2837 22.8472 13.6191ZM1.62043 13.6191C1.62043 13.9471 1.36082 14.2067 1.03285 14.2067C0.704885 14.2067 0.445277 13.9471 0.445277 13.6191C0.445277 13.2837 0.704885 13.0316 1.03285 13.0316C1.36082 13.0316 1.62043 13.2837 1.62043 13.6191ZM23.0058 11.715C23.0058 12.0429 22.7438 12.3025 22.4159 12.3025C22.0827 12.3025 21.8283 12.0429 21.8283 11.715C21.8283 11.387 22.0827 11.1274 22.4159 11.1274C22.7438 11.1274 23.0058 11.387 23.0058 11.715ZM1.47164 11.715C1.47164 12.0429 1.21203 12.3025 0.884063 12.3025C0.548635 12.3025 0.296487 12.0429 0.296487 11.715C0.296487 11.387 0.548635 11.1274 0.884063 11.1274C1.21203 11.1274 1.47164 11.387 1.47164 11.715ZM22.8472 9.81079C22.8472 10.1388 22.5951 10.3984 22.2596 10.3984C21.934 10.3984 21.672 10.1388 21.672 9.81079C21.672 9.48282 21.934 9.22321 22.2596 9.22321C22.5951 9.22321 22.8472 9.48282 22.8472 9.81079ZM1.62043 9.81079C1.62043 10.1388 1.36082 10.3984 1.03285 10.3984C0.704885 10.3984 0.445277 10.1388 0.445277 9.81079C0.445277 9.48282 0.704885 9.22321 1.03285 9.22321C1.36082 9.22321 1.62043 9.48282 1.62043 9.81079ZM22.3733 7.9979C22.3733 8.32586 22.1137 8.58778 21.7857 8.58778C21.4503 8.58778 21.1981 8.32586 21.1981 7.9979C21.1981 7.67223 21.4503 7.41032 21.7857 7.41032C22.1137 7.41032 22.3733 7.67223 22.3733 7.9979ZM2.10179 7.9979C2.10179 8.32586 1.84219 8.58778 1.51422 8.58778C1.17879 8.58778 0.926643 8.32586 0.926643 7.9979C0.926643 7.67223 1.17879 7.41032 1.51422 7.41032C1.84219 7.41032 2.10179 7.67223 2.10179 7.9979ZM21.5691 6.29474C21.5691 6.62786 21.3072 6.88231 20.9792 6.88231C20.6536 6.88231 20.3917 6.62786 20.3917 6.29474C20.3917 5.96677 20.6536 5.70486 20.9792 5.70486C21.3072 5.70486 21.5691 5.96677 21.5691 6.29474ZM2.5669 5.76046L2.85381 6.04685C2.88904 6.12182 2.90828 6.20585 2.90828 6.29474C2.90828 6.62786 2.64636 6.88231 2.31324 6.88231C1.98527 6.88231 1.72336 6.62786 1.72336 6.29474C1.72336 5.96677 1.98527 5.70486 2.31324 5.70486C2.40457 5.70486 2.49055 5.72454 2.5669 5.76046ZM20.4967 4.75814C20.4967 5.09126 20.2422 5.34571 19.9068 5.34571C19.5811 5.34571 19.3192 5.09126 19.3192 4.75814C19.3192 4.43017 19.5811 4.16826 19.9068 4.16826C20.2422 4.16826 20.4967 4.43017 20.4967 4.75814ZM19.1726 3.41915C19.1726 3.74712 18.9107 4.00673 18.5827 4.00673C18.2571 4.00673 17.9951 3.74712 17.9951 3.41915C17.9951 3.08372 18.2571 2.83158 18.5827 2.83158C18.9107 2.83158 19.1726 3.08372 19.1726 3.41915ZM6.84655 2.349C6.84655 2.67466 6.58464 2.93657 6.25898 2.93657C6.20861 2.93657 6.15995 2.93067 6.11391 2.91887L5.68026 2.48544C5.66937 2.44185 5.66394 2.39609 5.66394 2.349C5.66394 2.02103 5.92355 1.75912 6.25898 1.75912C6.58464 1.75912 6.84655 2.02103 6.84655 2.349ZM17.6308 2.349C17.6308 2.67466 17.3689 2.93657 17.041 2.93657C16.7153 2.93657 16.4534 2.67466 16.4534 2.349C16.4534 2.02103 16.7153 1.75912 17.041 1.75912C17.3689 1.75912 17.6308 2.02103 17.6308 2.349ZM15.9231 1.54537C15.9231 1.88079 15.6612 2.13294 15.3355 2.13294C15.0075 2.13294 14.7456 1.88079 14.7456 1.54537C14.7456 1.2174 15.0075 0.95779 15.3355 0.95779C15.6612 0.95779 15.9231 1.2174 15.9231 1.54537ZM8.54686 1.54537C8.54686 1.88079 8.29241 2.13294 7.95698 2.13294C7.63132 2.13294 7.36941 1.88079 7.36941 1.54537C7.36941 1.2174 7.63132 0.95779 7.95698 0.95779C8.29241 0.95779 8.54686 1.2174 8.54686 1.54537ZM14.1102 1.064C14.1102 1.38966 13.8483 1.65157 13.5226 1.65157C13.1946 1.65157 12.935 1.38966 12.935 1.064C12.935 0.728571 13.1946 0.474119 13.5226 0.474119C13.8483 0.474119 14.1102 0.728571 14.1102 1.064ZM10.3598 1.064C10.3598 1.38966 10.1053 1.65157 9.76987 1.65157C9.44421 1.65157 9.1823 1.38966 9.1823 1.064C9.1823 0.728571 9.44421 0.474119 9.76987 0.474119C10.1053 0.474119 10.3598 0.728571 10.3598 1.064ZM12.2387 0.897984C12.2387 1.22595 11.9768 1.48556 11.6511 1.48556C11.3157 1.48556 11.0612 1.22595 11.0612 0.897984C11.0612 0.570016 11.3157 0.310408 11.6511 0.310408C11.9768 0.310408 12.2387 0.570016 12.2387 0.897984Z"
                     fill="currentColor" fill-opacity="0.85" />
              <path d="M5.48431 8.67257C5.02408 9.59061 4.76975 10.6294 4.76975 11.7299C4.76975 15.5971 7.83616 18.6635 11.7033 18.6635C12.8083 18.6635 13.851 18.4069 14.7716 17.943L15.8214 18.9909C14.6099 19.6866 13.2036 20.0808 11.7033 20.0808C7.05515 20.0808 3.35016 16.3758 3.35016 11.7299C3.35016 10.2341 3.74054 8.83101 4.43057 7.62074ZM20.0468 11.7299C20.0468 13.2063 19.666 14.5921 18.9938 15.7921L17.9387 14.7376C18.3827 13.8315 18.6272 12.8101 18.6272 11.7299C18.6272 7.91668 15.5142 4.80375 11.7033 4.80375C10.621 4.80375 9.59793 5.04908 8.69087 5.4945L7.63032 4.4345C8.83184 3.75929 10.221 3.37669 11.7033 3.37669C16.3079 3.37669 20.0468 7.14028 20.0468 11.7299Z"
                     fill="currentColor" fill-opacity="0.85" />
              <path d="M12.8406 16.0154C12.4635 16.1248 12.064 16.1809 11.6511 16.1809C9.18351 16.1809 7.20473 14.1998 7.20473 11.7345C7.20473 11.3243 7.2599 10.9274 7.36781 10.5526ZM16.0877 11.7345C16.0877 12.0898 16.0465 12.4351 15.9642 12.7641L10.6173 7.41996C10.9476 7.33707 11.2943 7.29556 11.6511 7.29556C14.0992 7.29556 16.0877 9.28641 16.0877 11.7345Z"
                     fill="currentColor" fill-opacity="0.85" />
              <path d="M20.5926 21.7857C20.9205 22.1062 21.4783 22.1234 21.7988 21.7857C22.129 21.448 22.1365 20.9098 21.7988 20.572L2.86867 1.6517C2.53094 1.31396 1.98297 1.31166 1.64524 1.6517C1.31727 1.9722 1.31727 2.5374 1.64524 2.86536Z"
                     fill="currentColor" fill-opacity="0.85" />
       </g>
</svg>