<?xml version="1.0" encoding="UTF-8"?>
<!--Generator: Apple Native CoreSVG 326-->
<!DOCTYPE svg PUBLIC "-//W3C//DTD SVG 1.1//EN" "http://www.w3.org/Graphics/SVG/1.1/DTD/svg11.dtd">
<svg version="1.1" xmlns="http://www.w3.org/2000/svg" xmlns:xlink="http://www.w3.org/1999/xlink"
       viewBox="0 0 23.0706 22.8189">
       <g>
              <rect height="22.8189" opacity="0" width="23.0706" x="0" y="0" />
              <path d="M11.3546 1.17515C11.6826 1.17515 11.9422 0.915543 11.9422 0.587575C11.9422 0.259608 11.6826 0 11.3546 0C11.0267 0 10.7671 0.259608 10.7671 0.587575C10.7671 0.915543 11.0267 1.17515 11.3546 1.17515ZM13.2261 1.34117C13.5615 1.34117 13.8235 1.07925 13.8235 0.753591C13.8235 0.418163 13.5615 0.163711 13.2261 0.163711C12.9005 0.163711 12.6385 0.418163 12.6385 0.753591C12.6385 1.07925 12.9005 1.34117 13.2261 1.34117ZM15.039 1.82253C15.3744 1.82253 15.634 1.57039 15.634 1.23496C15.634 0.90699 15.3744 0.647382 15.039 0.647382C14.711 0.647382 14.4514 0.90699 14.4514 1.23496C14.4514 1.57039 14.711 1.82253 15.039 1.82253ZM16.7468 2.62617C17.0724 2.62617 17.3344 2.36425 17.3344 2.03859C17.3344 1.71062 17.0724 1.44871 16.7468 1.44871C16.4188 1.44871 16.1569 1.71062 16.1569 2.03859C16.1569 2.36425 16.4188 2.62617 16.7468 2.62617ZM18.2885 3.69632C18.624 3.69632 18.8761 3.43671 18.8761 3.10874C18.8761 2.77332 18.624 2.52117 18.2885 2.52117C17.9606 2.52117 17.701 2.77332 17.701 3.10874C17.701 3.43671 17.9606 3.69632 18.2885 3.69632ZM19.6201 5.0353C19.9457 5.0353 20.2076 4.78085 20.2076 4.44773C20.2076 4.11976 19.9457 3.85785 19.6201 3.85785C19.2846 3.85785 19.0227 4.11976 19.0227 4.44773C19.0227 4.78085 19.2846 5.0353 19.6201 5.0353ZM20.6851 6.5719C21.0205 6.5719 21.2726 6.31745 21.2726 5.98433C21.2726 5.65636 21.0205 5.39445 20.6851 5.39445C20.3571 5.39445 20.0975 5.65636 20.0975 5.98433C20.0975 6.31745 20.3571 6.5719 20.6851 6.5719ZM21.4892 8.27737C21.8172 8.27737 22.0791 8.01546 22.0791 7.68749C22.0791 7.36183 21.8172 7.09991 21.4892 7.09991C21.1636 7.09991 20.9017 7.36183 20.9017 7.68749C20.9017 8.01546 21.1636 8.27737 21.4892 8.27737ZM21.9729 10.088C22.2986 10.088 22.5605 9.82834 22.5605 9.50038C22.5605 9.17241 22.2986 8.9128 21.9729 8.9128C21.6375 8.9128 21.3756 9.17241 21.3756 9.50038C21.3756 9.82834 21.6375 10.088 21.9729 10.088ZM22.1217 11.9921C22.4474 11.9921 22.7093 11.7325 22.7093 11.4046C22.7093 11.0766 22.4474 10.817 22.1217 10.817C21.7937 10.817 21.5318 11.0766 21.5318 11.4046C21.5318 11.7325 21.7937 11.9921 22.1217 11.9921ZM21.9729 13.8963C22.2986 13.8963 22.5605 13.6367 22.5605 13.3087C22.5605 12.9733 22.2986 12.7212 21.9729 12.7212C21.6375 12.7212 21.3756 12.9733 21.3756 13.3087C21.3756 13.6367 21.6375 13.8963 21.9729 13.8963ZM21.4892 15.7092C21.8172 15.7092 22.0791 15.4473 22.0791 15.1193C22.0791 14.7862 21.8172 14.5317 21.4892 14.5317C21.1636 14.5317 20.9017 14.7862 20.9017 15.1193C20.9017 15.4473 21.1636 15.7092 21.4892 15.7092ZM20.6851 17.4049C21.0205 17.4049 21.2726 17.1527 21.2726 16.8173C21.2726 16.4894 21.0205 16.2297 20.6851 16.2297C20.3571 16.2297 20.0975 16.4894 20.0975 16.8173C20.0975 17.1527 20.3571 17.4049 20.6851 17.4049ZM19.6201 18.9415C19.9457 18.9415 20.2076 18.6893 20.2076 18.3539C20.2076 18.026 19.9457 17.7663 19.6201 17.7663C19.2846 17.7663 19.0227 18.026 19.0227 18.3539C19.0227 18.6893 19.2846 18.9415 19.6201 18.9415ZM18.2885 20.2879C18.624 20.2879 18.8761 20.026 18.8761 19.7004C18.8761 19.3724 18.624 19.1105 18.2885 19.1105C17.9606 19.1105 17.701 19.3724 17.701 19.7004C17.701 20.026 17.9606 20.2879 18.2885 20.2879ZM16.7468 21.3581C17.0724 21.3581 17.3344 21.0985 17.3344 20.7705C17.3344 20.4351 17.0724 20.1829 16.7468 20.1829C16.4188 20.1829 16.1569 20.4351 16.1569 20.7705C16.1569 21.0985 16.4188 21.3581 16.7468 21.3581ZM15.039 22.1543C15.3744 22.1543 15.634 21.8998 15.634 21.5667C15.634 21.2387 15.3744 20.9768 15.039 20.9768C14.711 20.9768 14.4514 21.2387 14.4514 21.5667C14.4514 21.8998 14.711 22.1543 15.039 22.1543ZM13.2261 22.6431C13.5615 22.6431 13.8235 22.3835 13.8235 22.0555C13.8235 21.7275 13.5615 21.4679 13.2261 21.4679C12.9005 21.4679 12.6385 21.7275 12.6385 22.0555C12.6385 22.3835 12.9005 22.6431 13.2261 22.6431ZM11.3546 22.8091C11.6826 22.8091 11.9422 22.5472 11.9422 22.2215C11.9422 21.8861 11.6826 21.6317 11.3546 21.6317C11.0267 21.6317 10.7671 21.8861 10.7671 22.2215C10.7671 22.5472 11.0267 22.8091 11.3546 22.8091ZM9.48315 22.6431C9.80881 22.6431 10.0707 22.3835 10.0707 22.0555C10.0707 21.7275 9.80881 21.4679 9.48315 21.4679C9.14772 21.4679 8.89327 21.7275 8.89327 22.0555C8.89327 22.3835 9.14772 22.6431 9.48315 22.6431ZM7.67026 22.1543C7.99823 22.1543 8.25784 21.8998 8.25784 21.5667C8.25784 21.2387 7.99823 20.9768 7.67026 20.9768C7.33483 20.9768 7.07523 21.2387 7.07523 21.5667C7.07523 21.8998 7.33483 22.1543 7.67026 22.1543ZM5.96249 21.3581C6.29046 21.3581 6.55237 21.0985 6.55237 20.7705C6.55237 20.4351 6.29046 20.1829 5.96249 20.1829C5.63683 20.1829 5.37492 20.4351 5.37492 20.7705C5.37492 21.0985 5.63683 21.3581 5.96249 21.3581ZM4.42074 20.2879C4.7487 20.2879 5.00831 20.026 5.00831 19.7004C5.00831 19.3724 4.7487 19.1105 4.42074 19.1105C4.08531 19.1105 3.83316 19.3724 3.83316 19.7004C3.83316 20.026 4.08531 20.2879 4.42074 20.2879ZM3.08921 18.9415C3.42464 18.9415 3.68655 18.6893 3.68655 18.3539C3.68655 18.026 3.42464 17.7663 3.08921 17.7663C2.76355 17.7663 2.50164 18.026 2.50164 18.3539C2.50164 18.6893 2.76355 18.9415 3.08921 18.9415ZM2.02421 17.4049C2.35218 17.4049 2.61179 17.1527 2.61179 16.8173C2.61179 16.4894 2.35218 16.2297 2.02421 16.2297C1.68879 16.2297 1.43664 16.4894 1.43664 16.8173C1.43664 17.1527 1.68879 17.4049 2.02421 17.4049ZM1.22004 15.7092C1.5457 15.7092 1.80761 15.4473 1.80761 15.1193C1.80761 14.7862 1.5457 14.5317 1.22004 14.5317C0.892069 14.5317 0.630156 14.7862 0.630156 15.1193C0.630156 15.4473 0.892069 15.7092 1.22004 15.7092ZM0.736365 13.8963C1.07179 13.8963 1.33371 13.6367 1.33371 13.3087C1.33371 12.9733 1.07179 12.7212 0.736365 12.7212C0.410702 12.7212 0.148789 12.9733 0.148789 13.3087C0.148789 13.6367 0.410702 13.8963 0.736365 13.8963ZM0.587575 11.9921C0.915543 11.9921 1.17746 11.7325 1.17746 11.4046C1.17746 11.0766 0.915543 10.817 0.587575 10.817C0.261913 10.817 0 11.0766 0 11.4046C0 11.7325 0.261913 11.9921 0.587575 11.9921ZM0.736365 10.088C1.07179 10.088 1.33371 9.82834 1.33371 9.50038C1.33371 9.17241 1.07179 8.9128 0.736365 8.9128C0.410702 8.9128 0.148789 9.17241 0.148789 9.50038C0.148789 9.82834 0.410702 10.088 0.736365 10.088ZM1.22004 8.27737C1.5457 8.27737 1.80761 8.01546 1.80761 7.68749C1.80761 7.36183 1.5457 7.09991 1.22004 7.09991C0.892069 7.09991 0.630156 7.36183 0.630156 7.68749C0.630156 8.01546 0.892069 8.27737 1.22004 8.27737ZM2.02421 6.5719C2.35218 6.5719 2.61179 6.31745 2.61179 5.98433C2.61179 5.65636 2.35218 5.39445 2.02421 5.39445C1.68879 5.39445 1.43664 5.65636 1.43664 5.98433C1.43664 6.31745 1.68879 6.5719 2.02421 6.5719ZM3.08921 5.0353C3.42464 5.0353 3.68655 4.78085 3.68655 4.44773C3.68655 4.11976 3.42464 3.85785 3.08921 3.85785C2.76355 3.85785 2.50164 4.11976 2.50164 4.44773C2.50164 4.78085 2.76355 5.0353 3.08921 5.0353ZM4.42074 3.69632C4.7487 3.69632 5.00831 3.43671 5.00831 3.10874C5.00831 2.77332 4.7487 2.52117 4.42074 2.52117C4.08531 2.52117 3.83316 2.77332 3.83316 3.10874C3.83316 3.43671 4.08531 3.69632 4.42074 3.69632ZM5.96249 2.62617C6.29046 2.62617 6.55237 2.36425 6.55237 2.03859C6.55237 1.71062 6.29046 1.44871 5.96249 1.44871C5.63683 1.44871 5.37492 1.71062 5.37492 2.03859C5.37492 2.36425 5.63683 2.62617 5.96249 2.62617ZM7.67026 1.82253C7.99823 1.82253 8.25784 1.57039 8.25784 1.23496C8.25784 0.90699 7.99823 0.647382 7.67026 0.647382C7.33483 0.647382 7.07523 0.90699 7.07523 1.23496C7.07523 1.57039 7.33483 1.82253 7.67026 1.82253ZM9.48315 1.34117C9.80881 1.34117 10.0707 1.07925 10.0707 0.753591C10.0707 0.418163 9.80881 0.163711 9.48315 0.163711C9.14772 0.163711 8.89327 0.418163 8.89327 0.753591C8.89327 1.07925 9.14772 1.34117 9.48315 1.34117Z"
                     fill="currentColor" fill-opacity="0.85" />
              <path d="M11.4069 19.7704C16.0235 19.7704 19.76 16.0384 19.76 11.4195C19.76 6.82987 16.0114 3.06629 11.4069 3.06629C6.78565 3.06629 3.05367 6.80058 3.05367 11.4195C3.05367 16.0654 6.76097 19.7704 11.4069 19.7704ZM11.4069 18.3531C7.53967 18.3531 4.47326 15.2867 4.47326 11.4195C4.47326 7.58158 7.56897 4.49334 11.4069 4.49334C15.2275 4.49334 18.3405 7.60627 18.3405 11.4195C18.3405 15.2574 15.2447 18.3531 11.4069 18.3531Z"
                     fill="currentColor" fill-opacity="0.85" />
              <path d="M9.00803 14.0917C9.00803 14.6008 9.48873 14.8385 9.97077 14.5685L14.596 11.9646C15.0395 11.7187 15.0321 11.1398 14.596 10.9037L9.97077 8.28022C9.49104 8.01248 9.00803 8.25541 9.00803 8.76444Z"
                     fill="currentColor" fill-opacity="0.85" />
       </g>
</svg>