<?xml version="1.0" encoding="UTF-8"?>
<!--Generator: Apple Native CoreSVG 326-->
<!DOCTYPE svg PUBLIC "-//W3C//DTD SVG 1.1//EN" "http://www.w3.org/Graphics/SVG/1.1/DTD/svg11.dtd">
<svg version="1.1" xmlns="http://www.w3.org/2000/svg" xmlns:xlink="http://www.w3.org/1999/xlink"
       viewBox="0 0 21.365 21.006">
       <g>
              <rect height="21.006" opacity="0" width="21.365" x="0" y="0" />
              <path d="M10.4981 20.9962C16.302 20.9962 21.0037 16.2946 21.0037 10.4981C21.0037 4.70163 16.302 0 10.4981 0C4.70163 0 0 4.70163 0 10.4981C0 16.2946 4.70163 20.9962 10.4981 20.9962ZM10.4981 17.9484C6.37829 17.9484 3.04785 14.6179 3.04785 10.4981C3.04785 6.37829 6.37829 3.04785 10.4981 3.04785C14.6179 3.04785 17.9558 6.37829 17.9558 10.4981C17.9558 14.6179 14.6179 17.9484 10.4981 17.9484Z"
                     fill="currentColor" fill-opacity="0.85" />
              <path d="M11.4906 15.4594C14.4532 15.4594 15.9112 12.7869 15.9112 11.3386C15.9112 10.7097 15.1278 10.6827 15.0445 11.2726C14.84 12.9536 13.5444 14.125 12.0731 14.125C11.2337 14.125 10.4793 13.7774 9.98235 13.223L10.415 12.5203L10.8707 12.6777L10.9195 13.4223C10.9885 13.883 11.7087 13.7968 11.5909 13.2581C11.557 13.1477 11.6646 13.0804 11.7755 13.1649C12.185 13.4687 12.5451 12.7531 12.1236 12.5843C12.0006 12.5337 12.0247 12.4043 12.1747 12.356C12.6032 12.209 12.3556 11.5353 11.9145 11.7484L11.321 12.0259L10.527 11.5317C10.268 11.3657 9.90095 11.422 9.72517 11.6713L9.40563 12.1345C9.35966 11.9552 9.33321 11.7638 9.33321 11.5724C9.33321 10.9191 9.54642 10.2635 9.90501 9.72802L9.90732 10.0035C9.90732 10.3458 10.1715 10.5434 10.4794 10.5853L11.3849 10.6864L11.721 11.2776C11.9611 11.7112 12.5515 11.2971 12.2844 10.9249C12.1976 10.7968 12.2597 10.6915 12.3851 10.718C12.8336 10.8087 12.9439 10.0271 12.4316 10.0368C12.289 10.0368 12.2488 9.9442 12.3551 9.84533C12.764 9.46053 12.2006 8.99014 11.9088 9.33303L11.3975 9.90987L10.9395 9.72432L11.0199 8.81994C11.2314 8.7372 11.4377 8.70099 11.5987 8.70099C12.0944 8.70099 12.1369 8.90443 12.6166 8.90443C13.3657 8.90443 14.9558 7.85939 14.9558 7.00517C14.9558 6.41869 14.0867 6.08205 12.7872 6.08205C11.8261 6.08205 11.4573 6.36064 11.3815 6.81962C11.3424 7.09658 11.2143 7.2299 10.9471 7.2299C10.7402 7.2299 10.5036 7.24943 10.2916 7.28619L9.3918 6.84837L9.49122 6.37313L10.2456 6.23181C10.6965 6.14337 10.5592 5.42083 10.0251 5.59716C9.90489 5.63568 9.84048 5.54997 9.90313 5.42927C10.1604 5.0054 9.43275 4.68665 9.28056 5.14036C9.24204 5.25075 9.12759 5.24845 9.05977 5.10821C8.87368 4.69181 8.20458 5.0031 8.47165 5.42927L8.81982 5.99864L8.41821 6.80931C8.28149 7.0856 8.34009 7.43025 8.62845 7.59165L8.89861 7.76064C7.68349 8.45861 6.85559 9.73057 6.85559 11.2312C6.85559 11.4323 6.86997 11.6116 6.89641 11.7932L6.8411 11.761C6.54758 11.6145 6.20754 11.7098 6.03407 11.9884L5.55719 12.7382L4.87808 12.7284C4.37609 12.7112 4.44961 13.4389 4.90508 13.4073C5.05738 13.3855 5.10457 13.4781 5.03039 13.5672C4.70188 13.925 5.36121 14.4224 5.59613 13.9692C5.66394 13.841 5.7784 13.8606 5.80485 13.971C5.93235 14.5465 6.64281 14.2817 6.48371 13.8532L6.21828 13.1425L6.57227 12.8081L7.43868 13.4119C8.20216 14.6769 9.66482 15.4594 11.4906 15.4594Z"
                     fill="currentColor" fill-opacity="0.85" />
       </g>
</svg>