<?xml version="1.0" encoding="UTF-8"?>
<!--Generator: Apple Native CoreSVG 326-->
<!DOCTYPE svg PUBLIC "-//W3C//DTD SVG 1.1//EN" "http://www.w3.org/Graphics/SVG/1.1/DTD/svg11.dtd">
<svg version="1.1" xmlns="http://www.w3.org/2000/svg" xmlns:xlink="http://www.w3.org/1999/xlink"
       viewBox="0 0 24.187 18.9124">
       <g>
              <rect height="18.9124" opacity="0" width="24.187" x="0" y="0" />
              <path d="M23.8256 7.90385L23.8256 11.0137C23.8256 16.9023 21.8839 18.9124 15.9811 18.9124L7.84453 18.9124C1.94918 18.9124 0 16.9023 0 11.0137L0 7.90385C0 2.01524 1.94918 0.00285089 7.84453 0.00285089L15.9811 0.00285089C21.8839 0.00285089 23.8256 2.01524 23.8256 7.90385ZM15.2719 6.40243L14.3748 10.7693L14.3558 10.7693L13.4488 6.40243C13.3098 5.64951 12.8584 5.38869 12.16 5.38869C11.3387 5.38869 10.854 5.839 10.854 6.67005L10.854 12.6685C10.854 13.2101 11.1326 13.5432 11.6747 13.5432C12.2094 13.5432 12.5006 13.2101 12.5006 12.6685L12.5006 8.20871L12.5592 8.20871L13.5011 12.5662C13.6137 13.0688 13.8802 13.3818 14.3851 13.3818C14.8647 13.3818 15.1392 13.1009 15.2615 12.5565L16.196 8.20871L16.2374 8.20871L16.2374 12.6685C16.2374 13.2101 16.5188 13.5432 17.0633 13.5432C17.6123 13.5432 17.8989 13.2101 17.8989 12.6685L17.8989 6.67005C17.8989 5.84185 17.4016 5.38869 16.578 5.38869C15.8451 5.38869 15.4086 5.69427 15.2719 6.40243ZM5.80952 6.32255L5.80952 12.421C5.80952 13.0338 6.14034 13.414 6.75084 13.414L9.19382 13.414C9.61538 13.414 9.97319 13.0585 9.97319 12.6398C9.97319 12.2107 9.61538 11.8552 9.19382 11.8552L7.70939 11.8552L7.70939 6.32255C7.70939 5.79532 7.27806 5.38123 6.7606 5.38123C6.24084 5.38123 5.80952 5.79532 5.80952 6.32255Z"
                     fill="currentColor" fill-opacity="0.85" />
       </g>
</svg>