<?xml version="1.0" encoding="UTF-8"?>
<!--Generator: Apple Native CoreSVG 326-->
<!DOCTYPE svg PUBLIC "-//W3C//DTD SVG 1.1//EN" "http://www.w3.org/Graphics/SVG/1.1/DTD/svg11.dtd">
<svg version="1.1" xmlns="http://www.w3.org/2000/svg" xmlns:xlink="http://www.w3.org/1999/xlink"
       viewBox="0 0 24.187 18.9124">
       <g>
              <rect height="18.9124" opacity="0" width="24.187" x="0" y="0" />
              <path d="M7.84453 18.9124L15.9811 18.9124C21.8839 18.9124 23.8256 16.9023 23.8256 11.0137L23.8256 7.90385C23.8256 2.01524 21.8839 0.00285089 15.9811 0.00285089L7.84453 0.00285089C1.94918 0.00285089 0 2.01524 0 7.90385L0 11.0137C0 16.9023 1.94918 18.9124 7.84453 18.9124ZM7.84453 15.8927C4.12298 15.8927 3.01964 14.7791 3.01964 11.0137L3.01964 7.90385C3.01964 4.1459 4.12298 3.02249 7.84453 3.02249L15.9811 3.02249C19.7027 3.02249 20.806 4.1459 20.806 7.90385L20.806 11.0137C20.806 14.7791 19.7027 15.8927 15.9811 15.8927Z"
                     fill="currentColor" fill-opacity="0.85" />
              <path d="M7.06607 13.1676L9.36147 13.1676C9.75835 13.1676 10.084 12.8443 10.084 12.4451C10.084 12.0482 9.75835 11.7174 9.36147 11.7174L7.95802 11.7174L7.95802 6.50973C7.95802 6.02442 7.56114 5.62755 7.07583 5.62755C6.58076 5.62755 6.18389 6.02442 6.18389 6.50973L6.18389 12.2412C6.18389 12.8121 6.49748 13.1676 7.06607 13.1676ZM11.6822 13.2969C12.1922 13.2969 12.4587 12.981 12.4587 12.4641L12.4587 8.27246L12.5098 8.27246L13.4052 12.3791C13.5029 12.8471 13.7522 13.1355 14.2323 13.1355C14.6775 13.1355 14.9273 12.8718 15.0422 12.3693L15.9302 8.27246L15.9715 8.27246L15.9715 12.4641C15.9715 12.981 16.2357 13.2969 16.7406 13.2969C17.2552 13.2969 17.5246 12.981 17.5246 12.4641L17.5246 6.84C17.5246 6.06349 17.0542 5.64247 16.2874 5.64247C15.5965 5.64247 15.1922 5.92337 15.0652 6.58962L14.2146 10.7032L14.203 10.7032L13.3478 6.58962C13.2111 5.88607 12.7844 5.64247 12.1428 5.64247C11.3634 5.64247 10.9131 6.06063 10.9131 6.84L10.9131 12.4641C10.9131 12.981 11.1819 13.2969 11.6822 13.2969Z"
                     fill="currentColor" fill-opacity="0.85" />
       </g>
</svg>