<?xml version="1.0" encoding="UTF-8"?>
<!--Generator: Apple Native CoreSVG 326-->
<!DOCTYPE svg PUBLIC "-//W3C//DTD SVG 1.1//EN" "http://www.w3.org/Graphics/SVG/1.1/DTD/svg11.dtd">
<svg version="1.1" xmlns="http://www.w3.org/2000/svg" xmlns:xlink="http://www.w3.org/1999/xlink"
       viewBox="0 0 22.3389 23.4478">
       <g>
              <rect height="23.4478" opacity="0" width="22.3389" x="0" y="0" />
              <path d="M7.95783 9.36731L6.11588 10.2013C6.04698 10.2358 6.0642 10.2748 6.12565 10.2748L8.84604 10.2544L11.8789 13.2836L11.8633 15.9999C11.8633 16.0538 11.9 16.0711 11.927 16.0171L12.7658 14.1694L15.0182 16.4191L13.0706 20.6959C12.0731 22.9027 8.97399 22.4278 8.97168 20.0791L8.96707 13.2349C8.96707 13.1923 8.9527 13.1705 8.91012 13.1705L2.05441 13.1636C-0.28795 13.1613-0.788181 10.0789 1.39508 9.09574L5.71721 7.12941ZM20.1881 5.06636L17.0155 12.0332L14.7593 9.77809L16.6811 5.54494C16.7351 5.43697 16.6736 5.4249 16.6001 5.4542L12.356 7.37587L10.11 5.13093L17.0551 1.97132C19.4731 0.872234 21.2872 2.6437 20.1881 5.06636Z"
                     fill="currentColor" fill-opacity="0.85" />
              <path d="M19.4383 18.8604C19.776 19.1981 20.3315 19.1981 20.652 18.8604C20.9725 18.5227 20.9897 17.9845 20.652 17.6467L4.64303 1.64524C4.3076 1.31496 3.75963 1.31496 3.41959 1.64524C3.09163 1.9732 3.09163 2.5384 3.41959 2.8589Z"
                     fill="currentColor" fill-opacity="0.85" />
       </g>
</svg>