<?xml version="1.0" encoding="UTF-8"?>
<!--Generator: Apple Native CoreSVG 326-->
<!DOCTYPE svg PUBLIC "-//W3C//DTD SVG 1.1//EN" "http://www.w3.org/Graphics/SVG/1.1/DTD/svg11.dtd">
<svg version="1.1" xmlns="http://www.w3.org/2000/svg" xmlns:xlink="http://www.w3.org/1999/xlink"
       viewBox="0 0 21.365 21.006">
       <g>
              <rect height="21.006" opacity="0" width="21.365" x="0" y="0" />
              <path d="M21.0037 10.4981C21.0037 16.2946 16.302 20.9962 10.4981 20.9962C4.70163 20.9962 0 16.2946 0 10.4981C0 4.70163 4.70163 0 10.4981 0C16.302 0 21.0037 4.70163 21.0037 10.4981ZM3.04785 10.4981C3.04785 14.6179 6.37829 17.9484 10.4981 17.9484C14.6179 17.9484 17.9558 14.6179 17.9558 10.4981C17.9558 6.37829 14.6179 3.04785 10.4981 3.04785C6.37829 3.04785 3.04785 6.37829 3.04785 10.4981Z"
                     fill="currentColor" fill-opacity="0.85" />
              <path d="M11.824 13.7515L11.1922 15.1353C10.7127 16.208 9.52616 15.8142 9.52616 14.8704L9.52616 11.6034C9.52616 11.52 9.50386 11.4478 9.4637 11.3912ZM9.38872 11.3163C9.33186 11.2758 9.25937 11.2536 9.17635 11.2536L5.89777 11.2513C4.94887 11.2513 4.55279 10.0745 5.64265 9.58523L7.02411 8.95164ZM14.6925 7.46895L13.0313 11.1073L9.66389 7.74091L13.2947 6.07568C14.228 5.65466 15.121 6.53048 14.6925 7.46895Z"
                     fill="currentColor" fill-opacity="0.85" />
              <path d="M13.8198 14.7013C14.0604 14.9345 14.4653 14.9443 14.7059 14.7013C14.9563 14.4584 14.9563 14.0581 14.7059 13.8077L7.20054 6.30004C6.94785 6.04966 6.54012 6.04966 6.29719 6.30004C6.0468 6.54297 6.0468 6.94555 6.29719 7.18617Z"
                     fill="currentColor" fill-opacity="0.85" />
       </g>
</svg>