<?xml version="1.0" encoding="UTF-8"?>
<!--Generator: Apple Native CoreSVG 326-->
<!DOCTYPE svg PUBLIC "-//W3C//DTD SVG 1.1//EN" "http://www.w3.org/Graphics/SVG/1.1/DTD/svg11.dtd">
<svg version="1.1" xmlns="http://www.w3.org/2000/svg" xmlns:xlink="http://www.w3.org/1999/xlink"
       viewBox="0 0 21.365 21.006">
       <g>
              <rect height="21.006" opacity="0" width="21.365" x="0" y="0" />
              <path d="M21.0037 10.4981C21.0037 16.2923 16.302 20.9962 10.4981 20.9962C4.70394 20.9962 0 16.2923 0 10.4981C0 4.70163 4.70394 0 10.4981 0C16.302 0 21.0037 4.70163 21.0037 10.4981ZM13.5209 5.76045L5.36703 9.49625C4.20541 10.0177 4.63364 11.276 5.64684 11.276L9.13444 11.2783C9.35213 11.2783 9.50147 11.4351 9.50147 11.6528L9.50147 15.1214C9.50147 16.1466 10.7793 16.5628 11.2909 15.4109L15.0175 7.25247C15.4684 6.24739 14.5208 5.30729 13.5209 5.76045Z"
                     fill="currentColor" fill-opacity="0.85" />
       </g>
</svg>