<?xml version="1.0" encoding="UTF-8"?>
<!--Generator: Apple Native CoreSVG 326-->
<!DOCTYPE svg PUBLIC "-//W3C//DTD SVG 1.1//EN" "http://www.w3.org/Graphics/SVG/1.1/DTD/svg11.dtd">
<svg version="1.1" xmlns="http://www.w3.org/2000/svg" xmlns:xlink="http://www.w3.org/1999/xlink"
       viewBox="0 0 21.365 21.006">
       <g>
              <rect height="21.006" opacity="0" width="21.365" x="0" y="0" />
              <path d="M21.0037 10.5079C21.0037 16.3043 16.302 21.006 10.4981 21.006C4.70394 21.006 0 16.3043 0 10.5079C0 4.7137 4.70394 0.00976562 10.4981 0.00976562C16.302 0.00976562 21.0037 4.7137 21.0037 10.5079ZM9.45234 5.66977L6.08041 14.2143C5.6153 15.3833 6.81544 15.9796 7.59711 15.2002L10.2293 12.5681C10.393 12.402 10.6107 12.402 10.7669 12.5681L13.4066 15.2002C14.1785 15.9796 15.3786 15.3833 14.9135 14.2143L11.5416 5.66516C11.1562 4.67567 9.84515 4.68774 9.45234 5.66977Z"
                     fill="currentColor" fill-opacity="0.85" />
       </g>
</svg>