<?xml version="1.0" encoding="UTF-8"?>
<!--Generator: Apple Native CoreSVG 326-->
<!DOCTYPE svg PUBLIC "-//W3C//DTD SVG 1.1//EN" "http://www.w3.org/Graphics/SVG/1.1/DTD/svg11.dtd">
<svg version="1.1" xmlns="http://www.w3.org/2000/svg" xmlns:xlink="http://www.w3.org/1999/xlink"
       viewBox="0 0 22.3091 23.4164">
       <g>
              <rect height="23.4164" opacity="0" width="22.3091" x="0" y="0" />
              <path d="M14.9815 16.4063L13.0356 20.6755C12.0381 22.8749 8.97695 22.3839 8.97695 20.0634L8.97234 13.2491C8.97234 13.1772 8.93844 13.1433 8.86656 13.1433L2.03839 13.1364C-0.306277 13.1266-0.766778 10.0632 1.38597 9.09157L5.69485 7.13098ZM20.1628 5.0386L16.9802 12.0212L10.0886 5.13178L17.0437 1.96715C19.4404 0.884745 21.2573 2.628 20.1628 5.0386Z"
                     fill="currentColor" fill-opacity="0.85" />
              <path d="M19.4223 18.866C19.76 19.2037 20.3155 19.2037 20.636 18.866C20.9565 18.5283 20.9737 17.9901 20.636 17.6523L4.627 1.65083C4.28927 1.3131 3.7413 1.3131 3.40357 1.65083C3.0756 1.9788 3.0756 2.54399 3.40357 2.8645Z"
                     fill="currentColor" fill-opacity="0.85" />
       </g>
</svg>