<?xml version="1.0" encoding="UTF-8"?>
<!--Generator: Apple Native CoreSVG 326-->
<!DOCTYPE svg PUBLIC "-//W3C//DTD SVG 1.1//EN" "http://www.w3.org/Graphics/SVG/1.1/DTD/svg11.dtd">
<svg version="1.1" xmlns="http://www.w3.org/2000/svg" xmlns:xlink="http://www.w3.org/1999/xlink"
       viewBox="0 0 15.2605 25.8502">
       <g>
              <rect height="25.8502" opacity="0" width="15.2605" x="0" y="0" />
              <path d="M1.85826 25.3554C2.52614 25.3554 3.22848 24.9574 3.84808 24.335L7.21201 21.0045C7.29705 20.9046 7.36771 20.8632 7.4533 20.8632C7.53888 20.8632 7.60209 20.9046 7.68713 21.0045L11.0585 24.335C11.6707 24.9574 12.3781 25.3554 13.0483 25.3554C14.1078 25.3554 14.8991 24.5611 14.8991 23.4442C14.8991 22.8746 14.7354 22.2509 14.4184 21.4951L9.76339 10.2964C9.19261 8.96187 8.57695 8.12306 7.4533 8.12306C6.32964 8.12306 5.72144 8.92457 5.14321 10.2964L0.4807 21.4951C0.163711 22.2509 0 22.8746 0 23.4442C0 24.5611 0.789015 25.3554 1.85826 25.3554ZM7.4533 6.4196C8.2354 6.4196 8.7568 5.89359 8.7568 5.0925L8.7568 1.31733C8.7568 0.523705 8.2354 0 7.4533 0C6.66374 0 6.14003 0.523705 6.14003 1.31733L6.14003 5.0925C6.14003 5.89359 6.66374 6.4196 7.4533 6.4196Z"
                     fill="currentColor" fill-opacity="0.85" />
       </g>
</svg>