<?xml version="1.0" encoding="UTF-8"?>
<!--Generator: Apple Native CoreSVG 326-->
<!DOCTYPE svg PUBLIC "-//W3C//DTD SVG 1.1//EN" "http://www.w3.org/Graphics/SVG/1.1/DTD/svg11.dtd">
<svg version="1.1" xmlns="http://www.w3.org/2000/svg" xmlns:xlink="http://www.w3.org/1999/xlink"
       viewBox="0 0 19.2346 18.883">
       <g>
              <rect height="18.883" opacity="0" width="19.2346" x="0" y="0" />
              <path d="M17.5442 1.33886C18.5701 2.35734 18.8733 3.69929 18.8733 5.8467L18.8733 13.0243C18.8733 15.1717 18.5701 16.501 17.5442 17.5344C16.5182 18.5603 15.1567 18.8733 13.0243 18.8733L5.8467 18.8733C3.72398 18.8733 2.36995 18.5603 1.3291 17.5344C0.303159 16.5085 0 15.1717 0 13.0243L0 5.84209C0 3.7016 0.303159 2.3648 1.3291 1.33886C2.36249 0.312925 3.72398 0 5.84209 0L13.0243 0C15.1567 0 16.5108 0.312925 17.5442 1.33886ZM12.4548 4.6915L4.3084 8.42731C3.14908 8.94871 3.56755 10.207 4.58305 10.207L8.07065 10.2093C8.28604 10.2093 8.44284 10.3661 8.44284 10.5838L8.44514 14.0524C8.44514 15.0702 9.71322 15.4939 10.2249 14.342L13.9514 6.18352C14.4023 5.17845 13.4622 4.23834 12.4548 4.6915Z"
                     fill="currentColor" fill-opacity="0.85" />
       </g>
</svg>