<?xml version="1.0" encoding="UTF-8"?>
<!--Generator: Apple Native CoreSVG 326-->
<!DOCTYPE svg PUBLIC "-//W3C//DTD SVG 1.1//EN" "http://www.w3.org/Graphics/SVG/1.1/DTD/svg11.dtd">
<svg version="1.1" xmlns="http://www.w3.org/2000/svg" xmlns:xlink="http://www.w3.org/1999/xlink"
       viewBox="0 0 15.1164 20.9311">
       <g>
              <rect height="20.9311" opacity="0" width="15.1164" x="0" y="0" />
              <path d="M2.46585 20.421L12.2892 20.421C13.9262 20.421 14.7551 19.5801 14.7551 17.7909L14.7551 10.2641C14.7551 8.49731 13.9262 7.65868 12.2892 7.65868L2.46585 7.65868C0.821404 7.65868 0 8.49731 0 10.2641L0 17.7909C0 19.5801 0.821404 20.421 2.46585 20.421ZM2.03726 8.7016L4.76132 8.7016L4.76132 5.43066C4.76132 3.71579 5.88594 2.63848 7.37638 2.63848C8.8519 2.63848 10.0035 3.71579 10.0035 5.43066L10.0035 8.7016L12.7253 8.7016L12.7253 5.50375C12.7253 2.12284 10.3975 0 7.37638 0C4.35753 0 2.03726 2.12284 2.03726 5.50375Z"
                     fill="currentColor" fill-opacity="0.85" />
       </g>
</svg>