<?xml version="1.0" encoding="UTF-8"?>
<!--Generator: Apple Native CoreSVG 326-->
<!DOCTYPE svg PUBLIC "-//W3C//DTD SVG 1.1//EN" "http://www.w3.org/Graphics/SVG/1.1/DTD/svg11.dtd">
<svg version="1.1" xmlns="http://www.w3.org/2000/svg" xmlns:xlink="http://www.w3.org/1999/xlink"
       viewBox="0 0 23.6805 24.8469">
       <g>
              <rect height="24.8469" opacity="0" width="23.6805" x="0" y="0" />
              <path d="M17.2676 21.621C16.8625 22.1327 16.2156 22.3789 15.3299 22.3789L5.49676 22.3789C3.86208 22.3789 3.04067 21.538 3.04067 19.7488L3.04067 12.222C3.04067 10.614 3.72102 9.77487 5.07793 9.63941L5.07793 9.45372ZM15.766 7.46164L15.766 9.64119C17.1135 9.78178 17.7883 10.6207 17.7883 12.222L17.7883 15.7735L11.6282 9.61657L13.0367 9.61657L13.0367 7.38855C13.0367 5.67369 11.8926 4.59637 10.4171 4.59637C9.36155 4.59637 8.48952 5.13667 8.07281 6.06305L6.08438 4.07566C7.03547 2.72494 8.59653 1.95789 10.4171 1.95789C13.4382 1.95789 15.766 4.08073 15.766 7.46164Z"
                     fill="currentColor" fill-opacity="0.85" />
              <path d="M20.8255 23.2024C21.1632 23.5326 21.7163 23.5401 22.0391 23.2024C22.3596 22.8721 22.3769 22.3264 22.0391 21.9962L3.29907 3.26588C2.96133 2.92815 2.41337 2.92815 2.07563 3.26588C1.75513 3.59615 1.75513 4.15904 2.07563 4.47955Z"
                     fill="currentColor" fill-opacity="0.85" />
       </g>
</svg>