<?xml version="1.0" encoding="UTF-8"?>
<!--Generator: Apple Native CoreSVG 326-->
<!DOCTYPE svg PUBLIC "-//W3C//DTD SVG 1.1//EN" "http://www.w3.org/Graphics/SVG/1.1/DTD/svg11.dtd">
<svg version="1.1" xmlns="http://www.w3.org/2000/svg" xmlns:xlink="http://www.w3.org/1999/xlink"
       viewBox="0 0 17.3824 20.239">
       <g>
              <rect height="20.239" opacity="0" width="17.3824" x="0" y="0" />
              <path d="M10.1492 0.536442C10.9165 0.770392 14.3151 1.88216 15.1593 2.23154C16.5615 2.827 17.0211 3.51484 17.0211 5.07279L17.0211 12.0257C17.0211 15.5241 15.0027 17.2254 9.28189 20.0162C9.02283 20.1431 8.73393 20.239 8.51053 20.239C8.2946 20.239 8.00053 20.1455 7.73917 20.0162C2.05636 17.1713 0 15.5241 0 12.0257L0 5.07279C0 3.51484 0.469296 2.81723 1.86924 2.23154C2.71339 1.88446 6.10461 0.765783 6.87415 0.536442C7.38172 0.391171 8.02073 0.287813 8.51053 0.287813C9.00779 0.287813 9.6468 0.388866 10.1492 0.536442ZM5.63956 7.58249L5.63956 8.57015C5.14315 8.68382 4.88748 9.05777 4.88748 9.71843L4.88748 13.4911C4.88748 14.3325 5.26428 14.7139 6.03971 14.7139L11.0083 14.7139C11.7689 14.7139 12.1456 14.3325 12.1456 13.4911L12.1456 9.71843C12.1456 9.05777 11.8974 8.68382 11.4085 8.57762L11.4085 7.58249C11.4085 5.66734 10.243 4.38003 8.5203 4.38003C6.80506 4.38003 5.63956 5.66734 5.63956 7.58249ZM9.75695 7.51007L9.75695 8.50816L7.28364 8.50816L7.28364 7.51007C7.28364 6.58955 7.7658 5.99482 8.51284 5.99482C9.26734 5.99482 9.75695 6.58209 9.75695 7.51007Z"
                     fill="currentColor" fill-opacity="0.85" />
       </g>
</svg>