<?xml version="1.0" encoding="UTF-8"?>
<!--Generator: Apple Native CoreSVG 326-->
<!DOCTYPE svg PUBLIC "-//W3C//DTD SVG 1.1//EN" "http://www.w3.org/Graphics/SVG/1.1/DTD/svg11.dtd">
<svg version="1.1" xmlns="http://www.w3.org/2000/svg" xmlns:xlink="http://www.w3.org/1999/xlink"
       viewBox="0 0 28.9689 25.2415">
       <g>
              <rect height="25.2415" opacity="0" width="28.9689" x="0" y="0" />
              <path d="M21.9446 5.02881L10.3071 5.02881C7.02403 5.02881 4.93522 7.11532 4.93522 10.384L4.93522 18.484C2.65085 18.4566 1.35706 17.1411 1.35706 14.8477L1.35706 5.34774C1.35706 3.03014 2.68088 1.70862 5.01286 1.70862L18.3005 1.70862C20.5225 1.70862 21.8292 2.90847 21.9446 5.02881Z"
                     fill="currentColor" fill-opacity="0.85" />
              <path d="M27.2505 10.384L27.2505 19.8765C27.2505 22.2016 25.9267 23.5156 23.6022 23.5156L10.3071 23.5156C7.97512 23.5156 6.65876 22.2039 6.65876 19.8765L6.65876 10.384C6.65876 8.06641 7.97512 6.74489 10.3071 6.74489L23.6022 6.74489C25.9267 6.74489 27.2505 8.06641 27.2505 10.384ZM14.0739 13.0767L14.0739 14.0643C13.5775 14.1855 13.3293 14.5594 13.3293 15.2201L13.3293 18.9927C13.3293 19.8342 13.7061 20.2081 14.4815 20.2081L19.4427 20.2081C20.213 20.2081 20.5898 19.8342 20.5898 18.9927L20.5898 15.2201C20.5898 14.5594 20.3341 14.1855 19.8428 14.0718L19.8428 13.0767C19.8428 11.169 18.6773 9.88166 16.9546 9.88166C15.2417 9.88166 14.0739 11.169 14.0739 13.0767ZM18.1913 13.0042L18.1913 14.0098L15.718 14.0098L15.718 13.0042C15.718 12.0912 16.2001 11.4941 16.9472 11.4941C17.704 11.4941 18.1913 12.0763 18.1913 13.0042Z"
                     fill="currentColor" fill-opacity="0.85" />
       </g>
</svg>