<?xml version="1.0" encoding="UTF-8"?>
<!--Generator: Apple Native CoreSVG 326-->
<!DOCTYPE svg PUBLIC "-//W3C//DTD SVG 1.1//EN" "http://www.w3.org/Graphics/SVG/1.1/DTD/svg11.dtd">
<svg version="1.1" xmlns="http://www.w3.org/2000/svg" xmlns:xlink="http://www.w3.org/1999/xlink"
       viewBox="0 0 18.6419 23.9165">
       <g>
              <rect height="23.9165" opacity="0" width="18.6419" x="0" y="0" />
              <path d="M0 20.3937C0 22.5634 1.33765 23.8895 3.53322 23.8895L14.7473 23.8895C16.9429 23.8895 18.2805 22.5634 18.2805 20.3937L18.2805 3.4981C18.2805 1.32843 16.9429 0 14.7473 0L3.53322 0C1.33765 0 0 1.32843 0 3.4981ZM3.01964 19.9137L3.01964 3.98559C3.01964 3.34895 3.32141 3.01964 3.99712 3.01964L14.2834 3.01964C14.9568 3.01964 15.2609 3.34895 15.2609 3.98559L15.2609 19.9137C15.2609 20.5429 14.9568 20.8699 14.2834 20.8699L3.99712 20.8699C3.32141 20.8699 3.01964 20.5429 3.01964 19.9137Z"
                     fill="currentColor" fill-opacity="0.85" />
              <path d="M7.41411 15.3632L10.8836 15.3632C11.473 15.3632 11.7539 15.0702 11.7539 14.4367L11.7539 11.7518C11.7539 11.2056 11.5259 10.9172 11.0722 10.8494L11.0722 10.1544C11.0722 8.98244 10.2886 8.16091 9.14888 8.16091C8.01661 8.16091 7.22559 8.98244 7.22559 10.1544L7.22559 10.8517C6.77189 10.9172 6.55134 11.2056 6.55134 11.7518L6.55134 14.4367C6.55134 15.0702 6.83224 15.3632 7.41411 15.3632ZM8.3043 10.8327L8.3043 10.1262C8.3043 9.57747 8.64786 9.20056 9.14888 9.20056C9.65505 9.20056 10.0009 9.57747 10.0009 10.1262L10.0009 10.8327Z"
                     fill="currentColor" fill-opacity="0.85" />
       </g>
</svg>