<?xml version="1.0" encoding="UTF-8"?>
<!--Generator: Apple Native CoreSVG 326-->
<!DOCTYPE svg PUBLIC "-//W3C//DTD SVG 1.1//EN" "http://www.w3.org/Graphics/SVG/1.1/DTD/svg11.dtd">
<svg version="1.1" xmlns="http://www.w3.org/2000/svg" xmlns:xlink="http://www.w3.org/1999/xlink"
       viewBox="0 0 26.2548 21.8242">
       <g>
              <rect height="21.8242" opacity="0" width="26.2548" x="0" y="0" />
              <path d="M3.01964 12.7103C3.01964 13.4424 3.37024 13.7586 4.05583 13.7586L5.29424 13.7586L5.29424 16.7782L3.64834 16.7782C1.32151 16.7782 0 15.459 0 13.1391L0 11.8022L3.01964 11.8022ZM3.01964 10.7287L0 10.7287L0 6.05178L3.01964 6.05178ZM20.5895 3.63912L20.5895 5.03627L17.5698 5.03627L17.5698 4.07021C17.5698 3.33809 17.2169 3.01964 16.5313 3.01964L15.6278 3.01964L15.6278 0L16.9411 0C19.2731 0 20.5895 1.32151 20.5895 3.63912ZM4.96167 3.01964L4.05583 3.01964C3.37024 3.01964 3.01964 3.33809 3.01964 4.07021L3.01964 4.97835L0 4.97835L0 3.63912C0 1.32151 1.32151 0 3.64834 0L4.96167 0ZM14.5446 3.01964L10.8352 3.01964L10.8352 0L14.5446 0ZM9.75428 3.01964L6.04256 3.01964L6.04256 0L9.75428 0Z"
                     fill="currentColor" fill-opacity="0.85" />
              <path d="M8.95005 21.807L22.2377 21.807C24.5673 21.807 25.8935 20.493 25.8935 18.1679L25.8935 8.6754C25.8935 6.35779 24.5673 5.03627 22.2377 5.03627L8.95005 5.03627C6.61576 5.03627 5.29424 6.35779 5.29424 8.6754L5.29424 18.1679C5.29424 20.4953 6.61576 21.807 8.95005 21.807ZM9.35753 18.7874C8.66448 18.7874 8.31389 18.4787 8.31389 17.7466L8.31389 9.10648C8.31389 8.3669 8.66448 8.05592 9.35753 8.05592L21.8279 8.05592C22.5186 8.05592 22.8738 8.3669 22.8738 9.10648L22.8738 17.7466C22.8738 18.4787 22.5186 18.7874 21.8279 18.7874Z"
                     fill="currentColor" fill-opacity="0.85" />
              <path d="M13.4917 17.9871L17.7281 17.9871C18.4451 17.9871 18.8156 17.6165 18.8156 16.8261L18.8156 13.4973C18.8156 12.7166 18.4451 12.3438 17.7281 12.3438L13.4917 12.3438C12.7599 12.3438 12.3893 12.7166 12.3893 13.4973L12.3893 16.8261C12.3893 17.6165 12.7599 17.9871 13.4917 17.9871ZM13.2027 12.8225L14.4777 12.8225L14.4777 11.3017C14.4777 10.6052 14.9299 10.1237 15.6074 10.1237C16.2676 10.1237 16.737 10.6052 16.737 11.3017L16.737 12.8225L18.0045 12.8225L18.0045 11.3437C18.0045 9.87414 17.0372 8.87859 15.6074 8.87859C14.1798 8.87859 13.2027 9.87414 13.2027 11.3437Z"
                     fill="currentColor" fill-opacity="0.85" />
       </g>
</svg>