<?xml version="1.0" encoding="UTF-8"?>
<!--Generator: Apple Native CoreSVG 326-->
<!DOCTYPE svg PUBLIC "-//W3C//DTD SVG 1.1//EN" "http://www.w3.org/Graphics/SVG/1.1/DTD/svg11.dtd">
<svg version="1.1" xmlns="http://www.w3.org/2000/svg" xmlns:xlink="http://www.w3.org/1999/xlink"
       viewBox="0 0 19.2346 18.8646">
       <g>
              <rect height="18.8646" opacity="0" width="19.2346" x="0" y="0" />
              <path d="M1.3291 1.35839C0.401908 2.28558 0.00746071 3.45703 0.00746071 5.2032L0.00746071 5.23371L3.0271 5.23371L3.0271 5.18191C3.0271 4.44002 3.20628 3.92251 3.54602 3.57531C3.91044 3.21835 4.45264 3.04664 5.26167 3.04664L5.31808 3.04664L5.31808 0.026992L5.2755 0.026992C3.48457 0.026992 2.27351 0.413978 1.3291 1.35839ZM7.03647 3.03171L11.8442 3.03171L11.8442 0.0120705L7.03647 0.0120705ZM17.5442 1.35839C16.6072 0.413978 15.3961 0.026992 13.5908 0.026992L13.5603 0.026992L13.5603 3.04664L13.626 3.04664C14.4229 3.04664 14.9703 3.22066 15.3249 3.57531C15.6744 3.92481 15.8462 4.43772 15.8462 5.17499L15.8462 5.23371L18.8658 5.23371L18.8658 5.21011C18.8658 3.45473 18.4713 2.28328 17.5442 1.35839ZM15.8536 11.9246L18.8733 11.9246L18.8733 6.9521L15.8536 6.9521ZM17.5442 17.5183C18.4713 16.5911 18.8658 15.4219 18.8658 13.6665L18.8658 13.6429L15.8462 13.6429L15.8462 13.6994C15.8462 14.4389 15.6744 14.9518 15.3249 15.3088C14.9703 15.656 14.4229 15.8375 13.626 15.8375L13.5603 15.8375L13.5603 18.8571L13.5908 18.8571C15.3961 18.8571 16.6072 18.4627 17.5442 17.5183ZM7.03647 18.8646L11.8442 18.8646L11.8442 15.8449L7.03647 15.8449ZM1.3291 17.5183C2.27351 18.4627 3.48457 18.8571 5.28011 18.8571L5.31808 18.8571L5.31808 15.8375L5.25476 15.8375C4.45034 15.8375 3.91044 15.656 3.54602 15.3088C3.20628 14.9518 3.0271 14.4389 3.0271 13.6994L3.0271 13.6429L0.00746071 13.6429L0.00746071 13.6665C0.00746071 15.4219 0.401908 16.5911 1.3291 17.5183ZM0 11.9246L3.01964 11.9246L3.01964 6.9521L0 6.9521Z"
                     fill="currentColor" fill-opacity="0.85" />
              <path d="M6.03061 13.0289C6.03061 13.806 6.39018 14.1702 7.11623 14.1702L11.7794 14.1702C12.5003 14.1702 12.8599 13.806 12.8599 13.0289L12.8599 9.47787C12.8599 8.86889 12.614 8.51447 12.1549 8.41573L12.1549 7.46998C12.1549 5.68056 11.0583 4.46447 9.44409 4.46447C7.83221 4.46447 6.74077 5.68056 6.74077 7.46998L6.74077 8.4008C6.26905 8.51447 6.03061 8.86889 6.03061 9.47787ZM8.27864 8.35374L8.27864 7.39986C8.27864 6.53333 8.73381 5.97305 9.44409 5.97305C10.1641 5.97305 10.6095 6.52587 10.6095 7.39986L10.6095 8.35374Z"
                     fill="currentColor" fill-opacity="0.85" />
       </g>
</svg>