<?xml version="1.0" encoding="UTF-8"?>
<!--Generator: Apple Native CoreSVG 326-->
<!DOCTYPE svg PUBLIC "-//W3C//DTD SVG 1.1//EN" "http://www.w3.org/Graphics/SVG/1.1/DTD/svg11.dtd">
<svg version="1.1" xmlns="http://www.w3.org/2000/svg" xmlns:xlink="http://www.w3.org/1999/xlink"
       viewBox="0 0 18.145 21.7932">
       <g>
              <rect height="21.7932" opacity="0" width="18.145" x="0" y="0" />
              <path d="M8.01709 8.07587C8.01709 9.21396 8.60534 9.8022 9.73597 9.8022L17.7836 9.8022L17.7836 18.1397C17.7836 20.4694 16.4719 21.7932 14.1445 21.7932L3.63912 21.7932C1.31921 21.7932 0 20.4717 0 18.1397L0 3.66096C0 1.33128 1.32151 0.0051558 3.63912 0.0051558L8.01709 0.0051558ZM6.76048 13.9522L6.76048 14.74C6.36404 14.814 6.16466 15.1018 6.16466 15.6258L6.16466 18.4393C6.16466 19.0769 6.45017 19.3648 7.04642 19.3648L10.7791 19.3648C11.3576 19.3648 11.6385 19.0769 11.6385 18.4393L11.6385 15.6258C11.6385 15.1018 11.4391 14.8066 11.0501 14.7325L11.0501 13.9522C11.0501 12.5258 10.1672 11.5825 8.90158 11.5825C7.63599 11.5825 6.76048 12.5258 6.76048 13.9522ZM9.82574 13.9016L9.82574 14.7078L7.96251 14.7078L7.96251 13.9016C7.96251 13.2034 8.31771 12.7678 8.89412 12.7678C9.46307 12.7678 9.82574 13.2034 9.82574 13.9016ZM11.4228 1.15671L16.5948 6.35918C17.2277 7.00183 17.6825 7.52675 17.7112 8.08382L10.377 8.08382C9.94857 8.08382 9.73548 7.87073 9.73548 7.44456L9.73548 0.0827348C10.2949 0.121251 10.8295 0.56859 11.4228 1.15671Z"
                     fill="currentColor" fill-opacity="0.85" />
       </g>
</svg>