<?xml version="1.0" encoding="UTF-8"?>
<!--Generator: Apple Native CoreSVG 326-->
<!DOCTYPE svg PUBLIC "-//W3C//DTD SVG 1.1//EN" "http://www.w3.org/Graphics/SVG/1.1/DTD/svg11.dtd">
<svg version="1.1" xmlns="http://www.w3.org/2000/svg" xmlns:xlink="http://www.w3.org/1999/xlink"
       viewBox="0 0 21.365 21.006">
       <g>
              <rect height="21.006" opacity="0" width="21.365" x="0" y="0" />
              <path d="M21.0037 10.5079C21.0037 16.3043 16.302 21.006 10.4981 21.006C4.70394 21.006 0 16.3043 0 10.5079C0 4.7137 4.70394 0.00976562 10.4981 0.00976562C16.302 0.00976562 21.0037 4.7137 21.0037 10.5079ZM7.61737 8.45685L7.61737 9.44682C7.12096 9.56049 6.87276 9.93213 6.87276 10.5928L6.87276 14.3677C6.87276 15.2092 7.24955 15.5883 8.02498 15.5883L12.9862 15.5883C13.7541 15.5883 14.1309 15.2092 14.1309 14.3677L14.1309 10.5928C14.1309 9.93213 13.8753 9.56049 13.3938 9.45428L13.3938 8.45685C13.3938 6.5417 12.2283 5.2567 10.4981 5.2567C8.78288 5.2567 7.61737 6.5417 7.61737 8.45685ZM11.7422 8.38443L11.7422 9.39229L9.26145 9.39229L9.26145 8.38443C9.26145 7.46622 9.74361 6.86918 10.4906 6.86918C11.2451 6.86918 11.7422 7.45876 11.7422 8.38443Z"
                     fill="currentColor" fill-opacity="0.85" />
       </g>
</svg>