<?xml version="1.0" encoding="UTF-8"?>
<!--Generator: Apple Native CoreSVG 326-->
<!DOCTYPE svg PUBLIC "-//W3C//DTD SVG 1.1//EN" "http://www.w3.org/Graphics/SVG/1.1/DTD/svg11.dtd">
<svg version="1.1" xmlns="http://www.w3.org/2000/svg" xmlns:xlink="http://www.w3.org/1999/xlink"
       viewBox="0 0 19.3993 19.0529">
       <g>
              <rect height="19.0529" opacity="0" width="19.3993" x="0" y="0" />
              <path d="M19.0379 3.63912L19.0379 15.4011C19.0379 17.7262 17.7164 19.0379 15.3896 19.0379L3.64834 19.0379C1.32382 19.0379 0 17.7262 0 15.4011L0 3.63912C0 1.32151 1.32382 0 3.64834 0L15.3896 0C17.7164 0 19.0379 1.32151 19.0379 3.63912ZM6.73264 7.47052L6.73264 8.45072C6.23623 8.57185 5.98057 8.9458 5.98057 9.60647L5.98057 13.3791C5.98057 14.2206 6.35736 14.5945 7.13279 14.5945L12.1014 14.5945C12.8642 14.5945 13.241 14.2206 13.241 13.3791L13.241 9.60647C13.241 8.9458 12.9928 8.57185 12.5016 8.46565L12.5016 7.47052C12.5016 5.55537 11.3361 4.27037 9.61338 4.27037C7.89815 4.27037 6.73264 5.55537 6.73264 7.47052ZM10.85 7.3981L10.85 8.39619L8.37673 8.39619L8.37673 7.3981C8.37673 6.47989 8.85888 5.88285 9.60592 5.88285C10.3604 5.88285 10.85 6.47243 10.85 7.3981Z"
                     fill="currentColor" fill-opacity="0.85" />
       </g>
</svg>