<?xml version="1.0" encoding="UTF-8"?>
<!--Generator: Apple Native CoreSVG 326-->
<!DOCTYPE svg PUBLIC "-//W3C//DTD SVG 1.1//EN" "http://www.w3.org/Graphics/SVG/1.1/DTD/svg11.dtd">
<svg version="1.1" xmlns="http://www.w3.org/2000/svg" xmlns:xlink="http://www.w3.org/1999/xlink"
       viewBox="0 0 23.6097 21.006">
       <g>
              <rect height="21.006" opacity="0" width="23.6097" x="0" y="0" />
              <path d="M11.6253 20.9962C14.3941 20.9962 17.5247 19.7011 19.162 17.7463C19.8895 16.9286 19.8767 16.0162 19.2525 15.4438C18.5589 14.8117 17.6448 15.0132 16.9638 15.6524C15.5541 17.1034 13.7422 17.9484 11.6253 17.9484C7.50551 17.9484 4.17507 14.6179 4.17507 10.4981C4.17507 6.37829 7.50551 3.04785 11.6253 3.04785C15.7451 3.04785 19.0756 6.37829 19.0756 10.4981L22.1234 10.4981C22.1234 4.70163 17.4218 0 11.6253 0C5.82886 0 1.12722 4.70163 1.12722 10.4981C1.12722 16.2946 5.82886 20.9962 11.6253 20.9962ZM22.8001 8.39698L17.7455 8.39698C16.9402 8.39698 16.7397 9.15901 17.1728 9.72596L19.696 13.0277C20.0011 13.4224 20.5519 13.4322 20.8495 13.0277L23.3802 9.72826C23.823 9.15901 23.6226 8.39698 22.8001 8.39698Z"
                     fill="currentColor" fill-opacity="0.85" />
              <path d="M9.20794 15.2484L13.8786 15.2484C14.5972 15.2484 14.9567 14.8842 14.9567 14.107L14.9567 10.5807C14.9567 9.80354 14.5972 9.44166 13.8786 9.44166L10.3778 9.43936L10.3778 8.47802C10.3778 7.61149 10.833 7.05867 11.6253 7.05867C12.261 7.05867 12.7087 7.40192 12.7087 7.96299L12.7087 8.05561C12.7087 8.54717 13.0825 8.79471 13.4823 8.79471C13.8774 8.79471 14.254 8.53225 14.254 8.02577L14.254 7.91076C14.254 6.53763 13.1597 5.55009 11.6253 5.55009C9.92908 5.55009 8.83248 6.75872 8.83248 8.54814L8.83248 9.48643C8.36822 9.59264 8.12978 9.94705 8.12978 10.556L8.12978 14.107C8.12978 14.8842 8.48935 15.2484 9.20794 15.2484Z"
                     fill="currentColor" fill-opacity="0.85" />
       </g>
</svg>