<?xml version="1.0" encoding="UTF-8"?>
<!--Generator: Apple Native CoreSVG 326-->
<!DOCTYPE svg PUBLIC "-//W3C//DTD SVG 1.1//EN" "http://www.w3.org/Graphics/SVG/1.1/DTD/svg11.dtd">
<svg version="1.1" xmlns="http://www.w3.org/2000/svg" xmlns:xlink="http://www.w3.org/1999/xlink"
       viewBox="0 0 23.8214 19.0529">
       <g>
              <rect height="19.0529" opacity="0" width="23.8214" x="0" y="0" />
              <path d="M23.4601 3.65404L23.4601 15.416C23.4601 17.7336 22.1386 19.0529 19.8117 19.0529L3.64834 19.0529C1.32382 19.0529 0 17.7336 0 15.416L0 3.65404C0 1.32897 1.32382 0.0149214 3.64834 0.0149214L19.8117 0.0149214C22.1386 0.0149214 23.4601 1.32897 23.4601 3.65404ZM8.85906 7.48029L8.85906 8.46795C8.36035 8.58162 8.10468 8.95557 8.10468 9.61623L8.10468 13.3889C8.10468 14.2303 8.48148 14.6117 9.25921 14.6117L14.2204 14.6117C14.9884 14.6117 15.3651 14.2303 15.3651 13.3889L15.3651 9.61623C15.3651 8.95557 15.1169 8.58162 14.628 8.47541L14.628 7.48029C14.628 5.56513 13.4625 4.28014 11.7398 4.28014C10.0171 4.28014 8.85906 5.56513 8.85906 7.48029ZM12.9765 7.40787L12.9765 8.41342L10.4957 8.41342L10.4957 7.40787C10.4957 6.48965 10.9755 5.89262 11.7249 5.89262C12.4868 5.89262 12.9765 6.48219 12.9765 7.40787Z"
                     fill="currentColor" fill-opacity="0.85" />
       </g>
</svg>