<?xml version="1.0" encoding="UTF-8"?>
<!--Generator: Apple Native CoreSVG 326-->
<!DOCTYPE svg PUBLIC "-//W3C//DTD SVG 1.1//EN" "http://www.w3.org/Graphics/SVG/1.1/DTD/svg11.dtd">
<svg version="1.1" xmlns="http://www.w3.org/2000/svg" xmlns:xlink="http://www.w3.org/1999/xlink"
       viewBox="0 0 26.2548 21.8242">
       <g>
              <rect height="21.8242" opacity="0" width="26.2548" x="0" y="0" />
              <path d="M20.5918 3.63912L20.5918 5.03627L17.5721 5.03627L17.5721 4.07021C17.5721 3.33809 17.2169 3.01964 16.5336 3.01964L4.05583 3.01964C3.37024 3.01964 3.01964 3.33809 3.01964 4.07021L3.01964 12.7103C3.01964 13.4424 3.37024 13.7586 4.05583 13.7586L5.29424 13.7586L5.29424 16.7782L3.64834 16.7782C1.32151 16.7782 0 15.459 0 13.1391L0 3.63912C0 1.32151 1.32151 0 3.64834 0L16.9434 0C19.2731 0 20.5918 1.32151 20.5918 3.63912Z"
                     fill="currentColor" fill-opacity="0.85" />
              <path d="M8.95005 21.807L22.2377 21.807C24.5673 21.807 25.8935 20.493 25.8935 18.1679L25.8935 8.6754C25.8935 6.35779 24.5673 5.03627 22.2377 5.03627L8.95005 5.03627C6.61576 5.03627 5.29424 6.35779 5.29424 8.6754L5.29424 18.1679C5.29424 20.4953 6.61576 21.807 8.95005 21.807ZM9.35753 18.7874C8.66448 18.7874 8.31389 18.4787 8.31389 17.7466L8.31389 9.10648C8.31389 8.3669 8.66448 8.05592 9.35753 8.05592L21.8279 8.05592C22.5186 8.05592 22.8738 8.3669 22.8738 9.10648L22.8738 17.7466C22.8738 18.4787 22.5186 18.7874 21.8279 18.7874Z"
                     fill="currentColor" fill-opacity="0.85" />
              <path d="M12.1841 17.028C12.1841 17.8052 12.5437 18.1693 13.2697 18.1693L17.9404 18.1693C18.6538 18.1693 19.0134 17.8052 19.0134 17.028L19.0134 13.477C19.0134 12.8605 18.7749 12.5113 18.3158 12.4051L18.3158 11.4691C18.3158 9.67222 17.2118 8.46359 15.5976 8.46359C13.9857 8.46359 12.8943 9.67222 12.8943 11.4691L12.8943 12.3976C12.43 12.5113 12.1841 12.8605 12.1841 13.477ZM14.4396 12.3505L14.4396 11.399C14.4396 10.5301 14.8873 9.97216 15.5976 9.97216C16.3176 9.97216 16.7705 10.5227 16.7705 11.399L16.7705 12.3505Z"
                     fill="currentColor" fill-opacity="0.85" />
       </g>
</svg>