<?xml version="1.0" encoding="UTF-8"?>
<!--Generator: Apple Native CoreSVG 326-->
<!DOCTYPE svg PUBLIC "-//W3C//DTD SVG 1.1//EN" "http://www.w3.org/Graphics/SVG/1.1/DTD/svg11.dtd">
<svg version="1.1" xmlns="http://www.w3.org/2000/svg" xmlns:xlink="http://www.w3.org/1999/xlink"
       viewBox="0 0 26.5012 20.937">
       <g>
              <rect height="20.937" opacity="0" width="26.5012" x="0" y="0" />
              <path d="M22.9197 7.89542C24.9434 8.72604 26.1399 10.7496 26.1399 12.9197C26.1399 16.0082 23.4697 18.4648 20.1474 18.4648L6.50615 18.4648C2.86042 18.4648 0 15.7841 0 12.5027C0 9.89604 1.4068 7.76671 3.71828 7.23609C3.94616 4.43456 6.51112 2.53379 9.19698 3.07278C10.5927 1.11759 12.7236 0 15.1911 0C19.5657 0 22.9094 3.30121 22.9197 7.89542ZM10.5703 8.31188L10.5703 9.22021C10.1026 9.30634 9.87626 9.64868 9.87626 10.249L9.87626 13.5351C9.87626 14.2835 10.2037 14.6282 10.8935 14.6282L15.2636 14.6282C15.9408 14.6282 16.2636 14.2835 16.2636 13.5351L16.2636 10.249C16.2636 9.64868 16.0447 9.29888 15.5794 9.21275L15.5794 8.31188C15.5794 6.62935 14.5609 5.52352 13.0662 5.52352C11.5813 5.52352 10.5703 6.62935 10.5703 8.31188ZM14.1426 8.24177L14.1426 9.17314L12.0048 9.17314L12.0048 8.24177C12.0048 7.42813 12.4088 6.91613 13.0662 6.91613C13.7185 6.91613 14.1426 7.42813 14.1426 8.24177Z"
                     fill="currentColor" fill-opacity="0.85" />
       </g>
</svg>