<?xml version="1.0" encoding="UTF-8"?>
<!--Generator: Apple Native CoreSVG 326-->
<!DOCTYPE svg PUBLIC "-//W3C//DTD SVG 1.1//EN" "http://www.w3.org/Graphics/SVG/1.1/DTD/svg11.dtd">
<svg version="1.1" xmlns="http://www.w3.org/2000/svg" xmlns:xlink="http://www.w3.org/1999/xlink"
       viewBox="0 0 21.365 21.006">
       <g>
              <rect height="21.006" opacity="0" width="21.365" x="0" y="0" />
              <path d="M10.4981 20.9962C16.302 20.9962 21.0037 16.2946 21.0037 10.4981C21.0037 4.70163 16.302 0 10.4981 0C4.70163 0 0 4.70163 0 10.4981C0 16.2946 4.70163 20.9962 10.4981 20.9962ZM10.4981 17.9484C6.37829 17.9484 3.04785 14.6179 3.04785 10.4981C3.04785 6.37829 6.37829 3.04785 10.4981 3.04785C14.6179 3.04785 17.9558 6.37829 17.9558 10.4981C17.9558 14.6179 14.6179 17.9484 10.4981 17.9484Z"
                     fill="currentColor" fill-opacity="0.85" />
              <path d="M7.08232 14.0996C7.08232 14.8767 7.44189 15.2409 8.16795 15.2409L12.8386 15.2409C13.5497 15.2409 13.9093 14.8767 13.9093 14.0996L13.9093 10.5486C13.9093 9.93959 13.6708 9.58517 13.214 9.48643L13.214 8.54068C13.214 6.75126 12.11 5.53517 10.4958 5.53517C8.88162 5.53517 7.79248 6.75126 7.79248 8.54068L7.79248 9.47151C7.32822 9.58517 7.08232 9.93959 7.08232 10.5486ZM9.33782 9.42444L9.33782 8.47056C9.33782 7.60403 9.78552 7.04375 10.4958 7.04375C11.221 7.04375 11.6687 7.59657 11.6687 8.47056L11.6687 9.42444Z"
                     fill="currentColor" fill-opacity="0.85" />
       </g>
</svg>