<?xml version="1.0" encoding="UTF-8"?>
<!--Generator: Apple Native CoreSVG 326-->
<!DOCTYPE svg PUBLIC "-//W3C//DTD SVG 1.1//EN" "http://www.w3.org/Graphics/SVG/1.1/DTD/svg11.dtd">
<svg version="1.1" xmlns="http://www.w3.org/2000/svg" xmlns:xlink="http://www.w3.org/1999/xlink"
       viewBox="0 0 20.6187 20.4742">
       <g>
              <rect height="20.4742" opacity="0" width="20.6187" x="0" y="0" />
              <path d="M0.399573 13.0852C-1.30323 17.4434 2.52848 20.4742 10.1361 20.4742C17.7438 20.4742 21.5405 17.3464 19.8727 13.0778L17.4465 6.81338L17.4465 3.82594C17.4465 1.77049 14.4666 0.282961 10.1361 0.282961C5.82295 0.282961 2.83789 1.77049 2.83789 3.82594L2.83789 6.78923ZM3.25902 14.051L5.00531 9.70194C6.21953 10.33 7.98328 10.7179 10.1361 10.7179C12.2798 10.7179 14.0654 10.33 15.2767 9.70425L17.0133 14.051C17.7641 15.9327 15.1147 17.4522 10.1361 17.4522C5.15016 17.4522 2.47832 16.0148 3.25902 14.051ZM5.79785 3.82594C5.79785 3.34785 7.53352 2.83937 10.1361 2.83937C12.7508 2.83937 14.4791 3.34785 14.4791 3.82594C14.4791 4.29427 12.7508 4.81251 10.1361 4.81251C7.53352 4.81251 5.79785 4.29427 5.79785 3.82594Z"
                     fill="currentColor" fill-opacity="0.85" />
       </g>
</svg>