<?xml version="1.0" encoding="UTF-8"?>
<!--Generator: Apple Native CoreSVG 326-->
<!DOCTYPE svg PUBLIC "-//W3C//DTD SVG 1.1//EN" "http://www.w3.org/Graphics/SVG/1.1/DTD/svg11.dtd">
<svg version="1.1" xmlns="http://www.w3.org/2000/svg" xmlns:xlink="http://www.w3.org/1999/xlink"
       viewBox="0 0 27.0075 18.9522">
       <g>
              <rect height="18.9522" opacity="0" width="27.0075" x="0" y="0" />
              <path d="M26.6462 10.5174L26.6462 4.02127C26.6462 1.77852 25.2781 0.408052 23.033 0.408052L3.60861 0.410357C1.37562 0.410357 0 1.78313 0 4.02819L0 10.5174C0 13.3749 1.30781 15.2261 4.21366 16.0871L12.6035 18.5555C15.0781 19.2867 16.8017 18.9857 19.0097 17.8289L24.4085 14.9992C26.1477 14.0865 26.6462 12.8683 26.6462 10.5174ZM23.6266 10.5174C23.6266 11.6046 23.3904 12.1573 22.5917 12.5652L17.3865 15.26C15.8635 16.0499 14.8885 16.1884 12.9617 15.6053L5.12028 13.2546C3.53801 12.7847 3.01964 12.0261 3.01964 10.5174L3.01964 4.43052C3.01964 3.80243 3.40238 3.42254 4.01841 3.42254L22.6255 3.41278C23.2415 3.41278 23.6266 3.79782 23.6266 4.42361Z"
                     fill="currentColor" fill-opacity="0.85" />
              <path d="M7.16718 12.3042L9.35517 12.3042C9.72735 12.3042 10.0409 11.9957 10.0409 11.6161C10.0409 11.2387 9.72735 10.9228 9.35517 10.9228L8.01491 10.9228L8.01491 5.96676C8.01491 5.50098 7.63527 5.1288 7.17695 5.1288C6.70141 5.1288 6.32922 5.50098 6.32922 5.96676L6.32922 11.4197C6.32922 11.9636 6.62559 12.3042 7.16718 12.3042ZM12.8457 12.4702C14.2709 12.4702 15.1022 11.6401 15.1022 10.3113C15.1022 9.16006 14.5243 8.63841 13.6394 8.24834L13.1718 8.04556C12.6684 7.81865 12.3185 7.57845 12.3185 7.0286C12.3185 6.66133 12.4761 6.38031 12.8365 6.38031C13.2135 6.38031 13.3768 6.66825 13.4693 7.00731C13.5819 7.3818 13.8214 7.52883 14.2435 7.52883C14.7242 7.51391 14.9413 7.20724 14.9413 6.84075C14.9413 6.74024 14.919 6.58751 14.8776 6.45419C14.5571 5.46556 13.7396 5.04321 12.8439 5.04321C11.6122 5.04321 10.6598 5.80099 10.6598 7.18079C10.6598 8.26544 11.2482 8.87552 12.0858 9.25407L12.5512 9.46661C13.0471 9.69353 13.451 9.91419 13.451 10.4658C13.451 10.8474 13.2342 11.1405 12.848 11.1405C12.4715 11.1405 12.272 10.8423 12.1944 10.5732C12.0641 10.1517 11.7625 9.99772 11.3978 9.99772C10.9768 9.99772 10.6753 10.3062 10.6753 10.7272C10.6753 10.9379 10.7224 11.1085 10.7936 11.2819C11.0917 12.0668 11.8782 12.4702 12.8457 12.4702ZM16.8831 12.3042L18.7708 12.3042C19.9721 12.3042 20.6144 11.4103 20.6144 10.2774C20.6144 9.41912 20.0578 8.63896 19.281 8.58837L19.281 8.54701C19.979 8.43497 20.4621 7.74095 20.4621 7.00622C20.4621 5.89227 19.771 5.24598 18.6898 5.24598L16.8831 5.24598C16.3019 5.24598 16.0353 5.62332 16.0353 6.13047L16.0353 11.4197C16.0353 11.9412 16.3042 12.3042 16.8831 12.3042ZM17.7187 8.14783L17.7187 6.4625L18.1724 6.4625C18.6913 6.4625 18.8603 6.79981 18.8603 7.28591C18.8603 7.80021 18.624 8.14783 18.1097 8.14783ZM17.7187 11.0899L17.7187 9.19263L18.15 9.19263C18.662 9.19263 18.9241 9.57118 18.9241 10.1327C18.9241 10.6757 18.7097 11.0899 18.1644 11.0899Z"
                     fill="currentColor" fill-opacity="0.85" />
       </g>
</svg>