<?xml version="1.0" encoding="UTF-8"?>
<!--Generator: Apple Native CoreSVG 326-->
<!DOCTYPE svg PUBLIC "-//W3C//DTD SVG 1.1//EN" "http://www.w3.org/Graphics/SVG/1.1/DTD/svg11.dtd">
<svg version="1.1" xmlns="http://www.w3.org/2000/svg" xmlns:xlink="http://www.w3.org/1999/xlink"
       viewBox="0 0 23.868 18.3346">
       <g>
              <rect height="18.3346" opacity="0" width="23.868" x="0" y="0" />
              <path d="M8.34257 0.0051558C2.44723 0.0051558 0 2.52305 0 8.44448L0 14.7093C0 17.0177 1.32151 18.3346 3.63221 18.3346L19.8744 18.3346C22.1851 18.3346 23.5067 17.0154 23.5067 14.7093L23.5067 8.44448C23.5067 2.52305 21.0594 0.0051558 15.1641 0.0051558ZM8.48433 3.03226L15.02 3.03226C18.8782 3.03226 20.487 4.64626 20.487 8.46389L20.487 14.2805C20.487 14.9437 20.1089 15.3149 19.4623 15.3149L4.04431 15.3149C3.3857 15.3149 3.01964 14.9437 3.01964 14.2805L3.01964 8.46389C3.01964 4.64626 4.62102 3.03226 8.48433 3.03226Z"
                     fill="currentColor" fill-opacity="0.85" />
              <path d="M8.55396 12.881L10.8517 12.881C11.2485 12.881 11.5719 12.5554 11.5719 12.1585C11.5719 11.7616 11.2485 11.4285 10.8517 11.4285L9.44821 11.4285L9.44821 6.22313C9.44821 5.73552 9.05134 5.33864 8.56373 5.33864C8.07096 5.33864 7.67408 5.73552 7.67408 6.22313L7.67408 11.9523C7.67408 12.5232 7.98537 12.881 8.55396 12.881ZM13.8192 12.9982C14.3068 12.9982 14.7014 12.6014 14.7014 12.0965L14.7014 6.90606L15.4526 6.90606C15.842 6.90606 16.1631 6.57755 16.1631 6.17606C16.1631 5.79411 15.842 5.4656 15.4526 5.4656L12.1691 5.4656C11.7602 5.4656 11.4466 5.79411 11.4466 6.17606C11.4466 6.57755 11.7602 6.90606 12.1691 6.90606L12.9273 6.90606L12.9273 12.0965C12.9273 12.6014 13.3218 12.9982 13.8192 12.9982Z"
                     fill="currentColor" fill-opacity="0.85" />
       </g>
</svg>