<?xml version="1.0" encoding="UTF-8"?>
<!--Generator: Apple Native CoreSVG 326-->
<!DOCTYPE svg PUBLIC "-//W3C//DTD SVG 1.1//EN" "http://www.w3.org/Graphics/SVG/1.1/DTD/svg11.dtd">
<svg version="1.1" xmlns="http://www.w3.org/2000/svg" xmlns:xlink="http://www.w3.org/1999/xlink"
       viewBox="0 0 21.365 21.006">
       <g>
              <rect height="21.006" opacity="0" width="21.365" x="0" y="0" />
              <path d="M10.4981 20.9962C16.302 20.9962 21.0037 16.2946 21.0037 10.4981C21.0037 4.70163 16.302 0 10.4981 0C4.70163 0 0 4.70163 0 10.4981C0 16.2946 4.70163 20.9962 10.4981 20.9962ZM10.4981 17.9484C6.37829 17.9484 3.04785 14.6179 3.04785 10.4981C3.04785 6.37829 6.37829 3.04785 10.4981 3.04785C14.6179 3.04785 17.9558 6.37829 17.9558 10.4981C17.9558 14.6179 14.6179 17.9484 10.4981 17.9484Z"
                     fill="currentColor" fill-opacity="0.85" />
              <path d="M7.29529 14.2144L9.593 14.2144C9.98987 14.2144 10.3132 13.8911 10.3132 13.4919C10.3132 13.095 9.98987 12.7642 9.593 12.7642L8.18954 12.7642L8.18954 7.55653C8.18954 7.07122 7.79267 6.67435 7.30505 6.67435C6.81228 6.67435 6.41541 7.07122 6.41541 7.55653L6.41541 13.288C6.41541 13.8589 6.7267 14.2144 7.29529 14.2144ZM12.5605 14.3316C13.0481 14.3316 13.4427 13.9371 13.4427 13.4322L13.4427 8.24177L14.1939 8.24177C14.5834 8.24177 14.9044 7.91095 14.9044 7.51177C14.9044 7.12982 14.5834 6.799 14.1939 6.799L10.903 6.799C10.5038 6.799 10.1879 7.12982 10.1879 7.51177C10.1879 7.91095 10.5038 8.24177 10.903 8.24177L11.6611 8.24177L11.6611 13.4322C11.6611 13.9371 12.0557 14.3316 12.5605 14.3316Z"
                     fill="currentColor" fill-opacity="0.85" />
       </g>
</svg>