<?xml version="1.0" encoding="UTF-8"?>
<!--Generator: Apple Native CoreSVG 326-->
<!DOCTYPE svg PUBLIC "-//W3C//DTD SVG 1.1//EN" "http://www.w3.org/Graphics/SVG/1.1/DTD/svg11.dtd">
<svg version="1.1" xmlns="http://www.w3.org/2000/svg" xmlns:xlink="http://www.w3.org/1999/xlink"
       viewBox="0 0 28.7063 19.8572">
       <g>
              <rect height="19.8572" opacity="0" width="28.7063" x="0" y="0" />
              <path d="M7.87989 18.5894L4.46726 19.2346C1.26935 19.8497-0.620212 17.8826 0.185604 14.8029L3.17455 3.30515C3.72998 1.19547 5.22697 0 7.35321 0C9.67773 0 11.3009 1.49742 11.3009 3.75874L11.3009 10.7272L10.6857 10.8692L7.86157 8.30818C7.28279 7.78854 6.33765 7.83561 5.80594 8.41669C5.27883 9.01501 5.33282 9.95038 5.92882 10.4723L7.20436 11.6128L5.77858 11.9083C5.01492 12.061 4.5079 12.8414 4.65317 13.6096C4.79844 14.3951 5.60577 14.9148 6.37404 14.7448L11.3009 13.7015L11.3009 14.3464C11.3009 16.7824 10.2039 18.1442 7.87989 18.5894ZM20.9918 0C23.118 0 24.615 1.19547 25.163 3.30515L28.1594 14.8029C28.9652 17.8826 27.0757 19.8497 23.8777 19.2346L20.4651 18.5894C18.1411 18.1442 17.0441 16.7824 17.0441 14.3464L17.0441 13.7015L21.971 14.7448C22.7392 14.9148 23.5466 14.3951 23.6918 13.6096C23.8371 12.8414 23.3301 12.061 22.559 11.9083L21.1406 11.6128L22.4162 10.4723C23.0122 9.95038 23.0662 9.01501 22.5391 8.41669C22.0074 7.83561 21.0622 7.78854 20.4834 8.30818L17.6593 10.8692L17.0441 10.7272L17.0441 3.75874C17.0441 1.49742 18.6673 0 20.9918 0Z"
                     fill="currentColor" fill-opacity="0.85" />
              <path d="M14.1688 13.087L17.0441 13.7015L17.0441 10.7272L15.6192 10.4307L15.6192 1.7378C15.6192 0.949996 14.9715 0.292544 14.1688 0.292544C13.3735 0.292544 12.7235 0.949996 12.7235 1.7378L12.7235 10.4307L11.3009 10.7272L11.3009 13.7015Z"
                     fill="currentColor" fill-opacity="0.85" />
       </g>
</svg>