<?xml version="1.0" encoding="UTF-8"?>
<!--Generator: Apple Native CoreSVG 326-->
<!DOCTYPE svg PUBLIC "-//W3C//DTD SVG 1.1//EN" "http://www.w3.org/Graphics/SVG/1.1/DTD/svg11.dtd">
<svg version="1.1" xmlns="http://www.w3.org/2000/svg" xmlns:xlink="http://www.w3.org/1999/xlink"
       viewBox="0 0 29.0114 20.1854">
       <g>
              <rect height="20.1854" opacity="0" width="29.0114" x="0" y="0" />
              <path d="M8.17791 19.0669L4.6459 19.7419C1.32116 20.3794-0.657924 18.3377 0.200117 15.1312L3.29351 3.43198C3.87879 1.24023 5.42054 0 7.61393 0C10.0354 0 11.7183 1.54964 11.7183 3.90049L11.7183 10.6675L10.842 10.8543L8.81055 9.02232L8.81055 4.05716C8.81055 3.35774 8.3071 2.90773 7.57662 2.90773C6.87665 2.90773 6.33809 3.35149 6.15242 4.04127L3.07855 15.6618C2.88081 16.3896 3.25743 17.0485 4.2588 16.8509L7.64104 16.2034C8.50429 16.0367 8.81055 15.6374 8.81055 14.6672L8.81055 14.2493L11.7183 13.6269L11.7183 14.6672C11.7183 17.1928 10.569 18.6068 8.17791 19.0669ZM21.0361 0C23.237 0 24.7713 1.24023 25.3566 3.43198L28.45 15.1312C29.308 18.3377 27.3289 20.3794 24.0042 19.7419L20.4722 19.0669C18.081 18.6068 16.9393 17.1928 16.9393 14.6672L16.9393 13.6269L19.8395 14.2486L19.8395 14.6672C19.8395 15.6374 20.1458 16.0367 21.009 16.2034L24.3913 16.8509C25.3926 17.0485 25.7693 16.3896 25.5715 15.6618L22.4977 4.04127C22.312 3.35149 21.7734 2.90773 21.0734 2.90773C20.3407 2.90773 19.8395 3.35774 19.8395 4.05716L19.8395 9.02232L17.8081 10.8543L16.9393 10.6675L16.9393 3.90049C16.9393 1.54964 18.6146 0 21.0361 0Z"
                     fill="currentColor" fill-opacity="0.85" />
              <path d="M6.53031 14.7374L11.7183 13.6269L11.7183 10.6675L10.842 10.8543L8.01038 8.30072C7.43906 7.78108 6.48645 7.82815 5.9622 8.40177C5.42764 9.00008 5.48908 9.93546 6.08509 10.4649L7.35316 11.5979L5.93485 11.8934C5.16372 12.0536 4.6567 12.8339 4.80943 13.5947C4.9547 14.3802 5.75458 14.8999 6.53031 14.7374ZM22.1198 14.7374C22.8955 14.8999 23.6954 14.3802 23.8406 13.5947C23.9934 12.8339 23.4863 12.0536 22.7152 11.8934L21.2969 11.5979L22.5724 10.4649C23.161 9.93546 23.2224 9.00008 22.6879 8.40177C22.1636 7.82815 21.211 7.78108 20.6397 8.30072L17.8081 10.8543L16.9393 10.6675L16.9393 13.6269Z"
                     fill="currentColor" fill-opacity="0.85" />
              <path d="M14.325 13.0795L16.9393 13.6269L16.9393 10.6675L15.768 10.4158L15.768 1.90193C15.768 1.11413 15.1203 0.456679 14.325 0.456679C13.5298 0.456679 12.8798 1.11413 12.8798 1.90193L12.8798 10.4158L11.7183 10.6675L11.7183 13.6269Z"
                     fill="currentColor" fill-opacity="0.85" />
       </g>
</svg>