<?xml version="1.0" encoding="UTF-8"?>
<!--Generator: Apple Native CoreSVG 326-->
<!DOCTYPE svg PUBLIC "-//W3C//DTD SVG 1.1//EN" "http://www.w3.org/Graphics/SVG/1.1/DTD/svg11.dtd">
<svg version="1.1" xmlns="http://www.w3.org/2000/svg" xmlns:xlink="http://www.w3.org/1999/xlink"
       viewBox="0 0 21.365 21.006">
       <g>
              <rect height="21.006" opacity="0" width="21.365" x="0" y="0" />
              <path d="M10.4981 20.9962C16.302 20.9962 21.0037 16.2946 21.0037 10.4981C21.0037 4.70163 16.302 0 10.4981 0C4.70163 0 0 4.70163 0 10.4981C0 16.2946 4.70163 20.9962 10.4981 20.9962ZM10.4981 17.9484C6.37829 17.9484 3.04785 14.6179 3.04785 10.4981C3.04785 6.37829 6.37829 3.04785 10.4981 3.04785C14.6179 3.04785 17.9558 6.37829 17.9558 10.4981C17.9558 14.6179 14.6179 17.9484 10.4981 17.9484Z"
                     fill="currentColor" fill-opacity="0.85" />
              <path d="M7.03271 14.9846C7.68337 14.9846 8.06641 14.5797 8.06641 13.863L8.06641 9.68308L8.16176 9.68308L9.52749 13.6443C9.68144 14.1302 9.98065 14.3708 10.4711 14.3708C10.9742 14.3708 11.2631 14.1526 11.4297 13.6518L12.8298 9.68308L12.9229 9.68308L12.9229 13.863C12.9229 14.5774 13.3059 14.9846 13.952 14.9846C14.5975 14.9846 14.988 14.5797 14.988 13.863L14.988 7.42703C14.988 6.57657 14.4057 6.00404 13.5254 6.00404C12.7209 6.00404 12.2219 6.4054 11.9715 7.21328L10.5326 11.4991L10.4688 11.4991L9.0178 7.21328C8.76972 6.39794 8.2707 6.00404 7.46622 6.00404C6.58361 6.00404 6.00877 6.57657 6.00877 7.42703L6.00877 13.863C6.00877 14.5774 6.38666 14.9846 7.03271 14.9846Z"
                     fill="currentColor" fill-opacity="0.85" />
       </g>
</svg>