<?xml version="1.0" encoding="UTF-8"?>
<!--Generator: Apple Native CoreSVG 326-->
<!DOCTYPE svg PUBLIC "-//W3C//DTD SVG 1.1//EN" "http://www.w3.org/Graphics/SVG/1.1/DTD/svg11.dtd">
<svg version="1.1" xmlns="http://www.w3.org/2000/svg" xmlns:xlink="http://www.w3.org/1999/xlink"
       viewBox="0 0 19.3993 19.0529">
       <g>
              <rect height="19.0529" opacity="0" width="19.3993" x="0" y="0" />
              <path d="M3.64834 19.0379L15.3896 19.0379C17.7164 19.0379 19.0379 17.7262 19.0379 15.4011L19.0379 3.63912C19.0379 1.32151 17.7164 0 15.3896 0L3.64834 0C1.32382 0 0 1.32151 0 3.63912L0 15.4011C0 17.7262 1.32382 19.0379 3.64834 19.0379ZM4.05583 16.0183C3.37024 16.0183 3.01964 15.7096 3.01964 14.9775L3.01964 4.07021C3.01964 3.33809 3.37024 3.0271 4.05583 3.0271L14.9821 3.0271C15.6654 3.0271 16.0183 3.33809 16.0183 4.07021L16.0183 14.9775C16.0183 15.7096 15.6654 16.0183 14.9821 16.0183Z"
                     fill="currentColor" fill-opacity="0.85" />
              <path d="M6.06076 14.008C6.71141 14.008 7.09676 13.6032 7.09676 12.8864L7.09676 8.70651L7.18981 8.70651L8.54808 12.6678C8.70948 13.1536 9.011 13.3943 9.49916 13.3943C10.0022 13.3943 10.2912 13.176 10.4577 12.6752L11.8579 8.70651L11.9509 8.70651L11.9509 12.8864C11.9509 13.6008 12.3265 14.008 12.98 14.008C13.6255 14.008 14.016 13.6032 14.016 12.8864L14.016 6.45047C14.016 5.60001 13.4337 5.02748 12.5534 5.02748C11.7415 5.02748 11.2499 5.42884 10.9995 6.23672L9.56061 10.5225L9.49686 10.5225L8.04585 6.23672C7.7903 5.42138 7.29875 5.02748 6.49426 5.02748C5.61166 5.02748 5.03166 5.60001 5.03166 6.45047L5.03166 12.8864C5.03166 13.6008 5.41471 14.008 6.06076 14.008Z"
                     fill="currentColor" fill-opacity="0.85" />
       </g>
</svg>