<?xml version="1.0" encoding="UTF-8"?>
<!--Generator: Apple Native CoreSVG 326-->
<!DOCTYPE svg PUBLIC "-//W3C//DTD SVG 1.1//EN" "http://www.w3.org/Graphics/SVG/1.1/DTD/svg11.dtd">
<svg version="1.1" xmlns="http://www.w3.org/2000/svg" xmlns:xlink="http://www.w3.org/1999/xlink"
       viewBox="0 0 24.187 18.9124">
       <g>
              <rect height="18.9124" opacity="0" width="24.187" x="0" y="0" />
              <path d="M7.84453 18.9124L15.9811 18.9124C21.8839 18.9124 23.8256 16.9023 23.8256 11.0137L23.8256 7.90385C23.8256 2.01524 21.8839 0.00285089 15.9811 0.00285089L7.84453 0.00285089C1.94918 0.00285089 0 2.01524 0 7.90385L0 11.0137C0 16.9023 1.94918 18.9124 7.84453 18.9124ZM7.84453 15.8927C4.12298 15.8927 3.01964 14.7791 3.01964 11.0137L3.01964 7.90385C3.01964 4.1459 4.12298 3.02249 7.84453 3.02249L15.9811 3.02249C19.7027 3.02249 20.806 4.1459 20.806 7.90385L20.806 11.0137C20.806 14.7791 19.7027 15.8927 15.9811 15.8927Z"
                     fill="currentColor" fill-opacity="0.85" />
              <path d="M6.58197 13.2969C7.09197 13.2969 7.35849 12.981 7.35849 12.4641L7.35849 8.27246L7.40962 8.27246L8.30503 12.3791C8.40038 12.8471 8.65198 13.1355 9.12467 13.1355C9.57729 13.1355 9.82713 12.8718 9.94201 12.3693L10.83 8.27246L10.8713 8.27246L10.8713 12.4641C10.8713 12.981 11.1355 13.2969 11.6404 13.2969C12.155 13.2969 12.4244 12.981 12.4244 12.4641L12.4244 6.84C12.4244 6.06349 11.9517 5.64247 11.1872 5.64247C10.494 5.64247 10.092 5.92337 9.9627 6.58962L9.11436 10.7032L9.10284 10.7032L8.24759 6.58962C8.11087 5.88607 7.68415 5.64247 7.03513 5.64247C6.26322 5.64247 5.81291 6.06063 5.81291 6.84L5.81291 12.4641C5.81291 12.981 6.07944 13.2969 6.58197 13.2969ZM14.2013 13.1579L17.2617 13.1579C17.7303 13.1579 17.9279 12.8363 17.9279 12.4721C17.9279 12.101 17.728 11.784 17.2617 11.784L15.4523 11.784L15.4523 11.7059L16.5498 10.3842C17.3249 9.44931 17.8038 8.74903 17.8038 7.7479C17.8038 6.36986 16.8606 5.55458 15.5354 5.55458C14.3473 5.55458 13.3754 6.44052 13.3754 7.46361C13.3754 7.907 13.635 8.23552 14.1031 8.23552C14.4626 8.23552 14.7423 8.05919 14.8698 7.63247C14.9882 7.22438 15.1405 6.90375 15.5354 6.90375C15.9795 6.90375 16.1474 7.31688 16.1474 7.80134C16.1474 8.49306 15.6752 9.16471 15.1277 9.86607L13.8389 11.4969C13.5139 11.9103 13.388 12.1619 13.388 12.4646C13.388 12.9011 13.67 13.1579 14.2013 13.1579Z"
                     fill="currentColor" fill-opacity="0.85" />
       </g>
</svg>