<?xml version="1.0" encoding="UTF-8"?>
<!--Generator: Apple Native CoreSVG 326-->
<!DOCTYPE svg PUBLIC "-//W3C//DTD SVG 1.1//EN" "http://www.w3.org/Graphics/SVG/1.1/DTD/svg11.dtd">
<svg version="1.1" xmlns="http://www.w3.org/2000/svg" xmlns:xlink="http://www.w3.org/1999/xlink"
       viewBox="0 0 24.187 18.9124">
       <g>
              <rect height="18.9124" opacity="0" width="24.187" x="0" y="0" />
              <path d="M7.84453 18.9124L15.9811 18.9124C21.8839 18.9124 23.8256 16.9023 23.8256 11.0137L23.8256 7.90385C23.8256 2.01524 21.8839 0.00285089 15.9811 0.00285089L7.84453 0.00285089C1.94918 0.00285089 0 2.01524 0 7.90385L0 11.0137C0 16.9023 1.94918 18.9124 7.84453 18.9124ZM7.84453 15.8927C4.12298 15.8927 3.01964 14.7791 3.01964 11.0137L3.01964 7.90385C3.01964 4.1459 4.12298 3.02249 7.84453 3.02249L15.9811 3.02249C19.7027 3.02249 20.806 4.1459 20.806 7.90385L20.806 11.0137C20.806 14.7791 19.7027 15.8927 15.9811 15.8927Z"
                     fill="currentColor" fill-opacity="0.85" />
              <path d="M6.50197 13.2969C7.0022 13.2969 7.27849 12.981 7.27849 12.4641L7.27849 8.27246L7.32962 8.27246L8.22502 12.3791C8.32037 12.8471 8.56967 13.1355 9.04467 13.1355C9.48982 13.1355 9.74713 12.8718 9.8597 12.3693L10.7402 8.27246L10.7913 8.27246L10.7913 12.4641C10.7913 12.981 11.0481 13.2969 11.5581 13.2969C12.075 13.2969 12.3421 12.981 12.3421 12.4641L12.3421 6.84C12.3421 6.06349 11.8717 5.64247 11.1072 5.64247C10.414 5.64247 10.0119 5.92337 9.88269 6.58962L9.03205 10.7032L9.02283 10.7032L8.16758 6.58962C8.03086 5.88607 7.60184 5.64247 6.95513 5.64247C6.18091 5.64247 5.73291 6.06063 5.73291 6.84L5.73291 12.4641C5.73291 12.981 5.99943 13.2969 6.50197 13.2969ZM16.814 13.2923C17.2821 13.2923 17.6496 13.0378 17.6496 12.4348L17.6496 11.8611L17.7848 11.8611C18.3 11.8611 18.4534 11.5349 18.4534 11.1656C18.4534 10.7412 18.2501 10.4821 17.7923 10.4821L17.6496 10.4821L17.6496 6.91121C17.6496 6.09563 17.1132 5.64017 16.3068 5.64017C15.2255 5.64017 14.8883 6.40953 14.5776 7.2612L13.5854 9.79686C13.4343 10.1852 13.3533 10.551 13.3533 10.8985C13.3533 11.5239 13.7129 11.8611 14.363 11.8611L15.9835 11.8611L15.9835 12.4348C15.9835 13.0344 16.377 13.2923 16.814 13.2923ZM16.0352 10.5338L14.7932 10.5338L14.7932 10.458L15.9961 7.01985L16.0352 7.01985Z"
                     fill="currentColor" fill-opacity="0.85" />
       </g>
</svg>