<?xml version="1.0" encoding="UTF-8"?>
<!--Generator: Apple Native CoreSVG 326-->
<!DOCTYPE svg PUBLIC "-//W3C//DTD SVG 1.1//EN" "http://www.w3.org/Graphics/SVG/1.1/DTD/svg11.dtd">
<svg version="1.1" xmlns="http://www.w3.org/2000/svg" xmlns:xlink="http://www.w3.org/1999/xlink"
       viewBox="0 0 33.8334 21.6059">
       <g>
              <rect height="21.6059" opacity="0" width="33.8334" x="0" y="0" />
              <path d="M24.9811 4.96585L23.8554 4.96585C21.8765 4.96585 20.5192 6.29616 20.5192 8.24116L20.5192 16.3365L7.93733 16.3365L7.93733 5.76609C7.93733 5.18585 8.21253 4.9405 8.76523 4.9405L24.7069 4.9405C24.8075 4.9405 24.899 4.9487 24.9811 4.96585Z"
                     fill="currentColor" fill-opacity="0.2125" />
              <path d="M28.5507 4.96585L24.9811 4.96585C24.899 4.9487 24.8075 4.9405 24.7069 4.9405L8.76523 4.9405C8.21253 4.9405 7.93733 5.18585 7.93733 5.76609L7.93733 16.3365L20.5192 16.3365L20.5192 18.3403C20.5192 18.8281 20.6046 19.2766 20.7639 19.6747L3.08491 19.6747C2.17355 19.6747 1.40692 18.9155 1.40692 18.0019C1.40692 17.0882 2.17355 16.3365 3.08491 16.3365L4.91769 16.3365L4.91769 5.06551C4.91769 3.06416 6.09897 1.92086 8.07442 1.92086L25.3977 1.92086C27.3626 1.92086 28.5146 3.02549 28.5507 4.96585Z"
                     fill="currentColor" fill-opacity="0.85" />
              <path d="M24.2205 18.2232C23.9325 18.2232 23.7751 18.0709 23.7751 17.7732L23.7751 9.20329C23.7751 8.90328 23.9325 8.75098 24.2205 8.75098L28.4382 8.75098C28.7187 8.75098 28.8739 8.92567 28.8739 9.21075L28.8739 17.7657C28.8739 18.0485 28.7187 18.2232 28.4382 18.2232Z"
                     fill="currentColor" fill-opacity="0.2125" />
              <path d="M23.8554 20.271L28.8905 20.271C30.0492 20.271 30.7873 19.5099 30.7873 18.3329L30.7873 8.64361C30.7873 7.46658 30.0492 6.70323 28.8905 6.70323L23.8554 6.70323C22.6468 6.70323 21.8616 7.46658 21.8616 8.63615L21.8616 18.3403C21.8616 19.5099 22.6445 20.271 23.8554 20.271ZM24.2205 18.2232C23.9325 18.2232 23.7751 18.0709 23.7751 17.7732L23.7751 9.20329C23.7751 8.90328 23.9325 8.75098 24.2205 8.75098L28.4382 8.75098C28.7187 8.75098 28.8739 8.92567 28.8739 9.21075L28.8739 17.7657C28.8739 18.0485 28.7187 18.2232 28.4382 18.2232ZM25.0224 17.6356L27.6465 17.6356C27.8568 17.6356 28.0205 17.4915 28.0205 17.264C28.0205 17.0411 27.8568 16.8797 27.6465 16.8797L25.0224 16.8797C24.8024 16.8797 24.6382 17.0411 24.6382 17.264C24.6382 17.4938 24.8001 17.6356 25.0224 17.6356ZM25.5768 10.1848L27.0578 10.1848C27.3639 10.1848 27.5764 9.96477 27.5764 9.68102C27.5764 9.37719 27.3415 9.1595 27.0578 9.1595L25.5768 9.1595C25.2781 9.1595 25.053 9.37719 25.053 9.68102C25.053 9.96477 25.2707 10.1848 25.5768 10.1848Z"
                     fill="currentColor" fill-opacity="0.85" />
       </g>
</svg>