<?xml version="1.0" encoding="UTF-8"?>
<!--Generator: Apple Native CoreSVG 326-->
<!DOCTYPE svg PUBLIC "-//W3C//DTD SVG 1.1//EN" "http://www.w3.org/Graphics/SVG/1.1/DTD/svg11.dtd">
<svg version="1.1" xmlns="http://www.w3.org/2000/svg" xmlns:xlink="http://www.w3.org/1999/xlink"
       viewBox="0 0 15.7916 25.1492">
       <g>
              <rect height="25.1492" opacity="0" width="15.7916" x="0" y="0" />
              <path d="M7.71139 25.1492C12.5548 25.1492 15.4302 23.3007 15.4302 20.176L15.4302 6.60939C15.4302 5.46166 15.2066 4.38701 14.7468 3.60819C14.2983 2.74469 13.5529 2.36189 12.4773 2.94473C11.5815 3.62014 9.74585 4.04776 7.71139 4.04776C5.68438 4.04776 3.84645 3.62014 2.95068 2.94473C1.875 2.36189 1.12966 2.74469 0.683411 3.60819C0.223638 4.38701 0 5.46166 0 6.60939L0 20.176C0 23.3007 2.868 25.1492 7.71139 25.1492ZM7.71139 22.1817C4.45107 22.1817 2.96511 21.298 2.96511 19.6347L2.96511 6.64451C2.96511 6.48462 2.98816 6.34833 3.03426 6.21379C4.30422 6.74096 5.96923 7.01749 7.71139 7.01749C9.46101 7.01749 11.1186 6.74096 12.3885 6.21379C12.4421 6.34833 12.4651 6.48462 12.4651 6.64451L12.4651 19.6347C12.4651 21.298 10.9792 22.1817 7.71139 22.1817ZM7.71139 2.74335C10.1319 2.74335 12.0952 2.12703 12.0952 1.37914C12.0952 0.628397 10.1319 0.0172263 7.71139 0.0172263C5.29831 0.0172263 3.33499 0.628397 3.33499 1.37914C3.33499 2.12703 5.29831 2.74335 7.71139 2.74335Z"
                     fill="currentColor" fill-opacity="0.85" />
       </g>
</svg>