<?xml version="1.0" encoding="UTF-8"?>
<!--Generator: Apple Native CoreSVG 326-->
<!DOCTYPE svg PUBLIC "-//W3C//DTD SVG 1.1//EN" "http://www.w3.org/Graphics/SVG/1.1/DTD/svg11.dtd">
<svg version="1.1" xmlns="http://www.w3.org/2000/svg" xmlns:xlink="http://www.w3.org/1999/xlink"
       viewBox="0 0 21.8204 26.8779">
       <g>
              <rect height="26.8779" opacity="0" width="21.8204" x="0" y="0" />
              <path d="M9.59045 16.197C10.0471 16.197 10.2694 15.8966 10.8238 15.8966C11.4223 15.8966 11.559 16.197 12.0622 16.197C12.585 16.197 12.917 15.7134 13.237 15.2665C13.6132 14.7437 13.7304 14.2285 13.7499 14.1917C13.7206 14.1796 12.7412 13.7936 12.7412 12.6798C12.7412 11.7176 13.5081 11.273 13.5644 11.2437C13.0417 10.5159 12.2846 10.4889 12.0622 10.4889C11.4907 10.4889 11.0363 10.8381 10.7359 10.8381C10.4331 10.8381 10.0178 10.5159 9.5244 10.5159C8.58405 10.5159 7.6437 11.2828 7.6437 12.7556C7.6437 13.6667 7.99065 14.6265 8.4278 15.2395C8.79659 15.7599 9.11655 16.197 9.59045 16.197ZM10.7922 10.4303C11.1219 10.4303 11.559 10.1959 11.8009 9.88573C12.0427 9.59737 12.199 9.21881 12.199 8.83049C12.199 8.7719 12.199 8.72307 12.1869 8.68401C11.8009 8.69608 11.3563 8.93561 11.0731 9.23834C10.8508 9.48994 10.6773 9.88573 10.6773 10.2666C10.6773 10.3326 10.6773 10.3912 10.6871 10.401C10.7066 10.4205 10.7359 10.4303 10.7922 10.4303ZM3.64834 22.8567L17.8107 22.8567C20.1352 22.8567 21.459 21.5352 21.459 19.2199L21.459 6.47225C21.459 4.15233 20.1352 2.83312 17.8107 2.83312L3.64834 2.83312C1.32151 2.83312 0 4.15233 0 6.47225L0 19.2199C0 21.5375 1.32151 22.8567 3.64834 22.8567ZM4.05583 19.8371C3.37024 19.8371 3.01964 19.5284 3.01964 18.7888L3.01964 6.90102C3.01964 6.16891 3.37024 5.86023 4.05583 5.86023L17.4032 5.86023C18.0888 5.86023 18.4394 6.16891 18.4394 6.90102L18.4394 18.7888C18.4394 19.5284 18.0865 19.8371 17.4032 19.8371ZM2.61203 26.339L6.95986 26.339C7.6013 26.339 8.11754 25.8205 8.11754 25.1791C8.11754 24.5227 7.6013 24.0042 6.95986 24.0042L2.61203 24.0042C1.9729 24.0042 1.44689 24.5227 1.44689 25.1791C1.44689 25.8205 1.9729 26.339 2.61203 26.339ZM3.61965 25.4883L5.94478 25.4883L5.94478 21.1314L3.61965 21.1314ZM14.4171 26.339L18.7649 26.339C19.4064 26.339 19.9226 25.8205 19.9226 25.1791C19.9226 24.5227 19.4064 24.0042 18.7649 24.0042L14.4171 24.0042C13.778 24.0042 13.2594 24.5227 13.2594 25.1791C13.2594 25.8205 13.778 26.339 14.4171 26.339ZM15.4247 25.4883L17.7573 25.4883L17.7573 21.1314L15.4247 21.1314ZM3.61965 4.4006L5.94478 4.4006L5.94478 1.16514C5.94478 0.52601 5.42854 0 4.7871 0C4.1382 0 3.61965 0.52601 3.61965 1.16514ZM15.4247 4.4006L17.7573 4.4006L17.7573 1.16514C17.7573 0.52601 17.2411 0 16.5996 0C15.941 0 15.4247 0.52601 15.4247 1.16514Z"
                     fill="currentColor" fill-opacity="0.85" />
       </g>
</svg>