<?xml version="1.0" encoding="UTF-8"?>
<!--Generator: Apple Native CoreSVG 326-->
<!DOCTYPE svg PUBLIC "-//W3C//DTD SVG 1.1//EN" "http://www.w3.org/Graphics/SVG/1.1/DTD/svg11.dtd">
<svg version="1.1" xmlns="http://www.w3.org/2000/svg" xmlns:xlink="http://www.w3.org/1999/xlink"
       viewBox="0 0 22.171 24.6831">
       <g>
              <rect height="24.6831" opacity="0" width="22.171" x="0" y="0" />
              <path d="M0 22.255C0 23.7653 0.863743 24.6779 2.30056 24.6779L4.64407 24.6779C5.54106 24.6779 6.19972 24.1961 6.41796 23.3681L6.74726 22.1131L15.0624 22.1131L15.3917 23.3681C15.61 24.1961 16.2709 24.6779 17.1679 24.6779L19.5091 24.6779C20.9459 24.6779 21.8097 23.7653 21.8097 22.255L21.8097 2.41545C21.8097 0.912571 20.9459 0 19.5091 0L17.1679 0C16.2709 0 15.61 0.481791 15.3917 1.30987L15.0624 2.56484L6.74726 2.56484L6.41796 1.30987C6.19972 0.481791 5.54106 0 4.64407 0L2.30056 0C0.863743 0 0 0.912571 0 2.41545ZM9.74537 16.0657C9.23931 16.0657 8.89467 15.6038 8.50119 15.0392C8.03936 14.3769 7.66541 13.3676 7.66541 12.39C7.66541 10.8161 8.67236 9.99982 9.67185 9.99982C10.2095 9.99982 10.6397 10.337 10.9672 10.337C11.2848 10.337 11.776 9.97283 12.3797 9.97283C12.6192 9.97283 13.4257 9.99982 13.9806 10.777C13.9317 10.7988 13.1155 11.2779 13.1155 12.3118C13.1155 13.502 14.154 13.9076 14.1759 13.9248C14.1661 13.9639 14.0294 14.5113 13.6359 15.0759C13.2987 15.5475 12.9345 16.0657 12.3797 16.0657C11.842 16.0657 11.6955 15.748 11.0625 15.748C10.4686 15.748 10.2365 16.0657 9.74537 16.0657ZM11.0235 9.91193C10.9672 9.91193 10.9304 9.8947 10.9183 9.88263C10.9011 9.86541 10.9011 9.79935 10.9011 9.74076C10.9011 9.32775 11.0918 8.90498 11.3239 8.63846C11.6295 8.31103 12.1034 8.05197 12.5141 8.04221C12.5313 8.08127 12.5313 8.13756 12.5313 8.19615C12.5313 8.61662 12.3578 9.02217 12.1034 9.32775C11.842 9.65517 11.3802 9.91193 11.0235 9.91193Z"
                     fill="currentColor" fill-opacity="0.85" />
       </g>
</svg>