<?xml version="1.0" encoding="UTF-8"?>
<!--Generator: Apple Native CoreSVG 326-->
<!DOCTYPE svg PUBLIC "-//W3C//DTD SVG 1.1//EN" "http://www.w3.org/Graphics/SVG/1.1/DTD/svg11.dtd">
<svg version="1.1" xmlns="http://www.w3.org/2000/svg" xmlns:xlink="http://www.w3.org/1999/xlink"
       viewBox="0 0 21.8204 26.8779">
       <g>
              <rect height="26.8779" opacity="0" width="21.8204" x="0" y="0" />
              <path d="M3.64834 22.8567L17.8107 22.8567C20.1352 22.8567 21.459 21.5352 21.459 19.2199L21.459 6.47225C21.459 4.15233 20.1352 2.83312 17.8107 2.83312L3.64834 2.83312C1.32151 2.83312 0 4.15233 0 6.47225L0 19.2199C0 21.5375 1.32151 22.8567 3.64834 22.8567ZM9.51409 16.4485C9.01549 16.4485 8.66338 15.9867 8.27737 15.4244C7.80577 14.7695 7.44159 13.7505 7.44159 12.7728C7.44159 11.1989 8.44108 10.3827 9.44803 10.3827C9.98338 10.3827 10.4085 10.7296 10.7359 10.7296C11.061 10.7296 11.5498 10.3631 12.1535 10.3631C12.3856 10.3631 13.1944 10.3827 13.7567 11.1599C13.7079 11.1892 12.8842 11.6682 12.8842 12.7045C12.8842 13.8849 13.9302 14.2904 13.952 14.3174C13.94 14.3467 13.8056 14.9016 13.4121 15.4588C13.0674 15.9402 12.7033 16.4485 12.1535 16.4485C11.6182 16.4485 11.4717 16.1309 10.8387 16.1309C10.2373 16.1309 10.0052 16.4485 9.51409 16.4485ZM10.7996 10.2971C10.7359 10.2971 10.7066 10.285 10.6871 10.2655C10.6773 10.2483 10.6773 10.1897 10.6773 10.1236C10.6773 9.71061 10.8582 9.2953 11.0903 9.02878C11.3982 8.69389 11.8772 8.4446 12.2879 8.42507C12.3 8.46413 12.3 8.52788 12.3 8.58647C12.3 9.00178 12.1265 9.40503 11.8772 9.71061C11.6182 10.038 11.154 10.2971 10.7996 10.2971ZM2.61203 26.339L6.95986 26.339C7.6013 26.339 8.11754 25.8205 8.11754 25.1791C8.11754 24.5227 7.6013 24.0042 6.95986 24.0042L2.61203 24.0042C1.9729 24.0042 1.44689 24.5227 1.44689 25.1791C1.44689 25.8205 1.9729 26.339 2.61203 26.339ZM3.61965 25.4883L5.94478 25.4883L5.94478 21.1314L3.61965 21.1314ZM14.4171 26.339L18.7649 26.339C19.4064 26.339 19.9226 25.8205 19.9226 25.1791C19.9226 24.5227 19.4064 24.0042 18.7649 24.0042L14.4171 24.0042C13.778 24.0042 13.2594 24.5227 13.2594 25.1791C13.2594 25.8205 13.778 26.339 14.4171 26.339ZM15.4247 25.4883L17.7573 25.4883L17.7573 21.1314L15.4247 21.1314ZM3.61965 4.4006L5.94478 4.4006L5.94478 1.16514C5.94478 0.52601 5.42854 0 4.7871 0C4.1382 0 3.61965 0.52601 3.61965 1.16514ZM15.4247 4.4006L17.7573 4.4006L17.7573 1.16514C17.7573 0.52601 17.2411 0 16.5996 0C15.941 0 15.4247 0.52601 15.4247 1.16514Z"
                     fill="currentColor" fill-opacity="0.85" />
       </g>
</svg>