<?xml version="1.0" encoding="UTF-8"?>
<!--Generator: Apple Native CoreSVG 326-->
<!DOCTYPE svg PUBLIC "-//W3C//DTD SVG 1.1//EN" "http://www.w3.org/Graphics/SVG/1.1/DTD/svg11.dtd">
<svg version="1.1" xmlns="http://www.w3.org/2000/svg" xmlns:xlink="http://www.w3.org/1999/xlink"
       viewBox="0 0 14.4813 24.7556">
       <g>
              <rect height="24.7556" opacity="0" width="14.4813" x="0" y="0" />
              <path d="M7.05998 24.7436C11.2045 24.7436 13.5565 22.7075 13.8616 18.7433C14.208 14.2315 14.2057 10.5639 13.857 5.94157C13.5589 2.03835 11.2045 0 7.05998 0C2.91547 0 0.561105 2.03835 0.262981 5.94157C-0.0857309 10.5639-0.0880358 14.2315 0.258371 18.7433C0.56341 22.7075 2.91547 24.7436 7.05998 24.7436ZM7.06514 19.7761C6.74748 19.7761 6.64006 19.9473 6.381 19.9473C6.12193 19.9473 5.95076 19.7152 5.74799 19.4194C5.49869 19.0799 5.30799 18.5543 5.30799 18.0632C5.30799 17.2567 5.83588 16.8437 6.34654 16.8437C6.6033 16.8437 6.79631 17.0074 7.01631 17.0074C7.23631 17.0074 7.41955 16.8437 7.74697 16.8437C7.86185 16.8437 8.28463 16.8437 8.55345 17.2274C8.53392 17.2469 8.12838 17.479 8.12838 18.0167C8.12838 18.6278 8.6488 18.8306 8.66603 18.8501C8.66603 18.8599 8.58275 19.1483 8.37998 19.4366C8.19904 19.6882 8.0158 19.9473 7.74697 19.9473C7.46838 19.9473 7.39025 19.7761 7.06514 19.7761ZM6.97724 16.7851C6.97724 16.2205 7.38049 15.8149 7.7958 15.8149C7.88138 16.2693 7.46838 16.8046 6.97724 16.7851Z"
                     fill="currentColor" fill-opacity="0.85" />
       </g>
</svg>