<?xml version="1.0" encoding="UTF-8"?>
<!--Generator: Apple Native CoreSVG 326-->
<!DOCTYPE svg PUBLIC "-//W3C//DTD SVG 1.1//EN" "http://www.w3.org/Graphics/SVG/1.1/DTD/svg11.dtd">
<svg version="1.1" xmlns="http://www.w3.org/2000/svg" xmlns:xlink="http://www.w3.org/1999/xlink"
       viewBox="0 0 14.4813 24.7556">
       <g>
              <rect height="24.7556" opacity="0" width="14.4813" x="0" y="0" />
              <path d="M7.05998 24.7436C11.2045 24.7436 13.5565 22.7075 13.8616 18.7433C14.208 14.2315 14.2057 10.5639 13.857 5.94157C13.5589 2.03835 11.2045 0 7.05998 0C2.91547 0 0.561105 2.03835 0.262981 5.94157C-0.0857309 10.5639-0.0880358 14.2315 0.258371 18.7433C0.56341 22.7075 2.91547 24.7436 7.05998 24.7436ZM7.05998 21.7612C4.72873 21.7612 3.40333 20.7587 3.24071 18.7433C2.89661 14.2292 2.89891 10.5541 3.25278 5.94157C3.40103 3.9848 4.72873 2.98234 7.05998 2.98234C9.39869 2.98234 10.7189 3.9848 10.8746 5.94157C11.221 10.5541 11.2308 14.2292 10.8792 18.7433C10.7166 20.7587 9.39869 21.7612 7.05998 21.7612ZM7.05998 19.6383C7.37017 19.6383 7.42877 19.7923 7.68783 19.7923C7.94404 19.7923 8.11006 19.5504 8.27377 19.3184C8.45931 19.0547 8.53514 18.7933 8.53514 18.7835C8.52537 18.7738 8.02963 18.5785 8.02963 18.0144C8.02963 17.5186 8.41049 17.3061 8.43978 17.2843C8.18818 16.9327 7.7901 16.9327 7.68783 16.9327C7.39201 16.9327 7.1674 17.0815 7.02092 17.0815C6.86982 17.0815 6.64982 16.9327 6.39822 16.9327C5.93178 16.9327 5.4458 17.3233 5.4458 18.0534C5.4458 18.5222 5.62158 18.9961 5.84389 19.3063C6.03689 19.5797 6.20291 19.7923 6.43728 19.7923C6.67166 19.7923 6.77678 19.6383 7.05998 19.6383ZM7.73896 15.9923C7.36041 15.9923 6.98185 16.3634 6.98185 16.8764C7.42877 16.8982 7.81709 16.4025 7.73896 15.9923Z"
                     fill="currentColor" fill-opacity="0.85" />
       </g>
</svg>