<?xml version="1.0" encoding="UTF-8"?>
<!--Generator: Apple Native CoreSVG 326-->
<!DOCTYPE svg PUBLIC "-//W3C//DTD SVG 1.1//EN" "http://www.w3.org/Graphics/SVG/1.1/DTD/svg11.dtd">
<svg version="1.1" xmlns="http://www.w3.org/2000/svg" xmlns:xlink="http://www.w3.org/1999/xlink"
       viewBox="0 0 31.7487 23.4777">
       <g>
              <rect height="23.4777" opacity="0" width="31.7487" x="0" y="0" />
              <path d="M8.45697 18.5643C9.24635 18.5643 10.0105 18.4561 10.7321 18.2456L10.7964 18.2456L13.8131 21.2653L7.61458 21.2653C5.28491 21.2653 3.95878 19.9461 3.95878 17.6285L3.95878 17.2615C5.25701 18.0895 6.8007 18.5643 8.45697 18.5643ZM27.4212 5.86647L27.4212 17.6285C27.4212 19.9461 26.1048 21.2653 23.7728 21.2653L21.2704 21.2653C21.5264 20.7423 21.6665 20.1498 21.6665 19.52C21.6665 19.0683 21.5938 18.6401 21.4621 18.2456L23.363 18.2456C24.0463 18.2456 24.4015 17.9295 24.4015 17.1974L24.4015 6.2901C24.4015 5.55798 24.0463 5.24699 23.363 5.24699L15.3736 5.24699C14.4251 3.8883 13.0837 2.82712 11.5121 2.22735L23.7728 2.22735C26.1048 2.22735 27.4212 3.5414 27.4212 5.86647Z"
                     fill="currentColor" fill-opacity="0.85" />
              <path d="M22.6968 9.93225C22.6968 11.2236 21.6495 12.276 20.3702 12.276C19.0714 12.276 18.0265 11.2236 18.0265 9.93225C18.0265 8.63342 19.0714 7.5885 20.3702 7.5885C21.6495 7.5885 22.6968 8.63342 22.6968 9.93225Z"
                     fill="currentColor" fill-opacity="0.85" />
              <path d="M8.45697 18.5643C13.1269 18.5643 16.9139 14.7773 16.9139 10.1074C16.9139 5.42769 13.1269 1.65039 8.45697 1.65039C3.7796 1.65039 0 5.42769 0 10.1074C0 14.7773 3.7796 18.5643 8.45697 18.5643ZM8.45697 15.1859C5.65254 15.1859 3.37096 12.9118 3.37096 10.1074C3.37096 7.29317 5.65254 5.02136 8.45697 5.02136C11.2614 5.02136 13.5355 7.29317 13.5355 10.1074C13.5355 12.9118 11.2614 15.1859 8.45697 15.1859ZM14.7321 13.095L11.2292 16.4946L15.9829 21.2431C16.4485 21.7087 17.0749 21.9332 17.7134 21.9332C19.0937 21.9332 20.122 20.8831 20.122 19.52C20.122 18.8867 19.9055 18.2752 19.4341 17.8016Z"
                     fill="currentColor" fill-opacity="0.85" />
              <path d="M6.07113 9.6838L10.8405 9.6838C11.2908 9.6838 11.636 9.28408 11.636 8.87338C11.636 8.41045 11.3057 8.04803 10.8405 8.04803L6.07113 8.04803C5.61336 8.04803 5.27047 8.41791 5.27047 8.87338C5.27047 9.29154 5.62082 9.6838 6.07113 9.6838ZM6.07113 12.1569L9.41964 12.1569C9.86019 12.1569 10.21 11.7819 10.21 11.3488C10.21 10.891 9.86765 10.5212 9.41964 10.5212L6.07113 10.5212C5.61336 10.5212 5.27047 10.906 5.27047 11.3488C5.27047 11.7819 5.62082 12.1569 6.07113 12.1569Z"
                     fill="currentColor" fill-opacity="0.85" />
       </g>
</svg>