<?xml version="1.0" encoding="UTF-8"?>
<!--Generator: Apple Native CoreSVG 326-->
<!DOCTYPE svg PUBLIC "-//W3C//DTD SVG 1.1//EN" "http://www.w3.org/Graphics/SVG/1.1/DTD/svg11.dtd">
<svg version="1.1" xmlns="http://www.w3.org/2000/svg" xmlns:xlink="http://www.w3.org/1999/xlink"
       viewBox="0 0 21.365 21.006">
       <g>
              <rect height="21.006" opacity="0" width="21.365" x="0" y="0" />
              <path d="M21.0037 10.4981C21.0037 16.2923 16.302 20.9962 10.4981 20.9962C4.70394 20.9962 0 16.2923 0 10.4981C0 4.70163 4.70394 0 10.4981 0C16.302 0 21.0037 4.70163 21.0037 10.4981ZM14.4424 7.70508L13.4112 11.7499L13.3905 11.7499L12.3599 7.70278C12.1928 7.02173 11.7684 6.77298 11.1717 6.77298C10.4028 6.77298 9.96858 7.18247 9.96858 7.9491L9.96858 13.3952C9.96858 13.8965 10.2333 14.2083 10.7398 14.2083C11.2388 14.2083 11.5059 13.8965 11.5059 13.3952L11.5059 9.38428L11.5869 9.38428L12.6461 13.4007C12.7489 13.8005 12.989 14.0693 13.4123 14.0693C13.8236 14.0693 14.0562 13.8223 14.1636 13.3961L15.2229 9.38428L15.2964 9.38428L15.2964 13.3952C15.2964 13.8965 15.5709 14.2083 16.0699 14.2083C16.5741 14.2083 16.8337 13.8965 16.8337 13.3952L16.8337 7.9491C16.8337 7.16009 16.3869 6.77298 15.6329 6.77298C15.0041 6.77298 14.5946 7.05903 14.4424 7.70508ZM5.05951 6.89017C4.48643 6.89017 4.16483 7.23415 4.16483 7.81184L4.16483 13.2895C4.16483 13.8672 4.48412 14.206 5.06412 14.206C5.63204 14.206 5.93872 13.8672 5.93872 13.2895L5.93872 11.5348L6.54995 11.5348L7.33277 13.4257C7.53203 13.9029 7.79964 14.206 8.28944 14.206C8.75006 14.206 9.13189 13.8947 9.10951 13.3602C9.10951 13.1316 9.03545 12.922 8.91772 12.6797L8.24516 11.2086C8.94489 10.7124 9.20595 10.0551 9.20595 9.23282C9.20595 7.63423 8.2306 6.89017 6.68017 6.89017ZM7.40222 9.27474C7.40222 9.82483 7.14237 10.3258 6.52053 10.3258L5.93872 10.3258L5.93872 8.21793L6.52568 8.21793C7.08323 8.21793 7.40222 8.63973 7.40222 9.27474Z"
                     fill="currentColor" fill-opacity="0.85" />
       </g>
</svg>