<?xml version="1.0" encoding="UTF-8"?>
<!--Generator: Apple Native CoreSVG 326-->
<!DOCTYPE svg PUBLIC "-//W3C//DTD SVG 1.1//EN" "http://www.w3.org/Graphics/SVG/1.1/DTD/svg11.dtd">
<svg version="1.1" xmlns="http://www.w3.org/2000/svg" xmlns:xlink="http://www.w3.org/1999/xlink"
       viewBox="0 0 33.8047 18.5517">
       <g>
              <rect height="18.5517" opacity="0" width="33.8047" x="0" y="0" />
              <path d="M2.17774 18.5327C3.58666 18.5327 4.32333 17.6646 4.32333 16.2907L4.32333 11.8298L5.92537 11.8298C6.00295 11.8298 6.07537 11.8275 6.15295 11.8275L8.3197 16.6268C8.82321 17.7722 9.28547 18.535 10.6317 18.535C11.9396 18.535 12.7452 17.6991 12.7079 16.4727C12.7079 15.9296 12.4587 15.3251 12.2193 14.8537L10.3374 11.0392C12.1076 10.1185 12.9592 8.23085 12.9592 6.13275C12.9592 2.19211 10.4085 0.2866 6.4959 0.2866L2.18059 0.2866C0.779128 0.2866 0 1.12487 0 2.5384L0 16.2907C0 17.7008 0.802723 18.5327 2.17774 18.5327ZM4.32333 8.86973L4.32333 3.54456L6.09739 3.54456C7.62495 3.54456 8.55438 4.65105 8.55438 6.21373C8.55438 7.80449 7.68421 8.86973 6.0986 8.86973ZM17.7598 18.5396C18.9925 18.5396 19.6454 17.7829 19.6454 16.5502L19.6454 6.39886L19.8199 6.39886L22.8441 16.6468C23.1238 17.6397 23.7205 18.1721 24.6835 18.1721C25.5966 18.1721 26.1985 17.6626 26.4884 16.6497L29.5098 6.39886L29.6723 6.39886L29.6723 16.5502C29.6723 17.7921 30.3269 18.5396 31.5481 18.5396C32.7906 18.5396 33.4434 17.8001 33.4434 16.5502L33.4434 2.85187C33.4434 1.0146 32.3869 0 30.5496 0C28.9224 0 28.0061 0.680501 27.6024 2.24852L24.6962 12.6068L24.6427 12.6068L21.6831 2.24622C21.2599 0.653509 20.3676 0 18.7531 0C16.9066 0 15.8765 1.03534 15.8765 2.84956L15.8765 16.5502C15.8765 17.7783 16.5294 18.5396 17.7598 18.5396Z"
                     fill="currentColor" fill-opacity="0.85" />
       </g>
</svg>