<?xml version="1.0" encoding="UTF-8"?>
<!--Generator: Apple Native CoreSVG 326-->
<!DOCTYPE svg PUBLIC "-//W3C//DTD SVG 1.1//EN" "http://www.w3.org/Graphics/SVG/1.1/DTD/svg11.dtd">
<svg version="1.1" xmlns="http://www.w3.org/2000/svg" xmlns:xlink="http://www.w3.org/1999/xlink"
       viewBox="0 0 24.3303 21.006">
       <g>
              <rect height="21.006" opacity="0" width="24.3303" x="0" y="0" />
              <path d="M11.9856 20.9962C17.7821 20.9962 22.4837 16.2946 22.4837 10.4981C22.4837 4.70163 17.7821 0 11.9856 0C6.18916 0 1.48753 4.70163 1.48753 10.4981L4.53538 10.4981C4.53538 6.37829 7.86582 3.04785 11.9856 3.04785C16.1055 3.04785 19.4359 6.37829 19.4359 10.4981C19.4359 14.6179 16.1055 17.9484 11.9856 17.9484C9.86874 17.9484 8.05458 17.1034 6.64712 15.6524C5.97135 15.0132 5.0498 14.8117 4.35614 15.4438C3.73423 16.0162 3.72149 16.9286 4.44894 17.7463C6.08398 19.7011 9.21457 20.9962 11.9856 20.9962ZM0.808605 8.39698C-0.0138912 8.39698-0.212055 9.15901 0.22849 9.72826L2.75918 13.0277C3.05907 13.4322 3.60988 13.4224 3.91492 13.0277L6.43585 9.72596C6.86894 9.15901 6.66847 8.39698 5.8655 8.39698Z"
                     fill="currentColor" fill-opacity="0.85" />
              <path d="M7.87789 13.3139C8.30284 13.3139 8.53085 13.0538 8.53085 12.6214L8.53085 11.2792L9.00985 11.2792L9.60822 12.7282C9.74088 13.0797 9.94705 13.3139 10.326 13.3139C10.6638 13.3139 10.9491 13.0762 10.9417 12.68C10.9417 12.5031 10.8751 12.3527 10.7918 12.1643L10.2693 11.0317C10.8076 10.6636 11.006 10.1626 11.006 9.54247C11.006 8.33845 10.2661 7.77016 9.10508 7.77016L7.86812 7.77016C7.44547 7.77016 7.20254 8.03032 7.20254 8.46274L7.20254 12.6214C7.20254 13.0538 7.44317 13.3139 7.87789 13.3139ZM8.53085 10.3678L8.53085 8.76832L8.98735 8.76832C9.41157 8.76832 9.65529 9.08786 9.65529 9.56947C9.65529 9.99369 9.45349 10.3678 8.98219 10.3678ZM12.1631 13.3162C12.5438 13.3162 12.7397 13.0808 12.7397 12.7L12.7397 9.64183L12.7959 9.64183L13.6075 12.7074C13.6833 13.0037 13.8671 13.2014 14.1848 13.2014C14.5053 13.2014 14.6667 13.0233 14.7546 12.7028L15.5662 9.64183L15.615 9.64183L15.615 12.7C15.615 13.0808 15.8183 13.3162 16.1967 13.3162C16.5677 13.3162 16.771 13.0808 16.771 12.7L16.771 8.56555C16.771 7.97118 16.4351 7.68227 15.8728 7.68227C15.3893 7.68227 15.0952 7.90227 14.9752 8.37606L14.194 11.4682L14.1704 11.4682L13.3771 8.37606C13.252 7.87243 12.9332 7.68227 12.4818 7.68227C11.9173 7.68227 11.5888 7.99356 11.5888 8.56555L11.5888 12.7C11.5888 13.0808 11.7921 13.3162 12.1631 13.3162Z"
                     fill="currentColor" fill-opacity="0.85" />
       </g>
</svg>