<?xml version="1.0" encoding="UTF-8"?>
<!--Generator: Apple Native CoreSVG 326-->
<!DOCTYPE svg PUBLIC "-//W3C//DTD SVG 1.1//EN" "http://www.w3.org/Graphics/SVG/1.1/DTD/svg11.dtd">
<svg version="1.1" xmlns="http://www.w3.org/2000/svg" xmlns:xlink="http://www.w3.org/1999/xlink"
       viewBox="0 0 21.365 21.006">
       <g>
              <rect height="21.006" opacity="0" width="21.365" x="0" y="0" />
              <path d="M10.4981 20.9962C16.302 20.9962 21.0037 16.2946 21.0037 10.4981C21.0037 4.70163 16.302 0 10.4981 0C4.70163 0 0 4.70163 0 10.4981C0 16.2946 4.70163 20.9962 10.4981 20.9962ZM10.4981 17.9484C6.37829 17.9484 3.04785 14.6179 3.04785 10.4981C3.04785 6.37829 6.37829 3.04785 10.4981 3.04785C14.6179 3.04785 17.9558 6.37829 17.9558 10.4981C17.9558 14.6179 14.6179 17.9484 10.4981 17.9484Z"
                     fill="currentColor" fill-opacity="0.85" />
              <path d="M5.57332 13.8702C6.08672 13.8702 6.35148 13.556 6.35148 13.0403L6.35148 11.4309L6.92595 11.4309L7.64964 13.169C7.80929 13.5917 8.06198 13.8702 8.50471 13.8702C8.91596 13.8702 9.26048 13.591 9.2381 13.111C9.2381 12.8997 9.16404 12.7199 9.06123 12.4948L8.44035 11.1294C9.07579 10.6952 9.32708 10.0971 9.32708 9.3488C9.32708 7.90349 8.43841 7.22371 7.04126 7.22371L5.56125 7.22371C5.05763 7.22371 4.76071 7.53039 4.76071 8.04379L4.76071 13.0403C4.76071 13.556 5.05532 13.8702 5.57332 13.8702ZM6.35148 10.3408L6.35148 8.41773L6.904 8.41773C7.40987 8.41773 7.71163 8.79762 7.71163 9.38325C7.71163 9.88912 7.46901 10.3408 6.89884 10.3408ZM10.7151 13.8725C11.1671 13.8725 11.402 13.5928 11.402 13.1385L11.402 9.4578L11.4681 9.4578L12.4412 13.1464C12.5365 13.4991 12.7519 13.7357 13.1356 13.7357C13.5147 13.7357 13.7152 13.5209 13.8226 13.1343L14.7957 9.4578L14.8543 9.4578L14.8543 13.1385C14.8543 13.5928 15.0967 13.8725 15.5486 13.8725C16.0006 13.8725 16.2332 13.5928 16.2332 13.1385L16.2332 8.16613C16.2332 7.46379 15.8335 7.11629 15.1587 7.11629C14.5844 7.11629 14.2317 7.37766 14.087 7.95195L13.142 11.6591L13.1212 11.6591L12.1693 7.94965C12.0171 7.34036 11.6323 7.11629 11.0999 7.11629C10.4154 7.11629 10.0231 7.49363 10.0231 8.16613L10.0231 13.1385C10.0231 13.5928 10.2632 13.8725 10.7151 13.8725Z"
                     fill="currentColor" fill-opacity="0.85" />
       </g>
</svg>