<?xml version="1.0" encoding="UTF-8"?>
<!--Generator: Apple Native CoreSVG 326-->
<!DOCTYPE svg PUBLIC "-//W3C//DTD SVG 1.1//EN" "http://www.w3.org/Graphics/SVG/1.1/DTD/svg11.dtd">
<svg version="1.1" xmlns="http://www.w3.org/2000/svg" xmlns:xlink="http://www.w3.org/1999/xlink"
       viewBox="0 0 19.3993 19.0529">
       <g>
              <rect height="19.0529" opacity="0" width="19.3993" x="0" y="0" />
              <path d="M19.0379 3.63912L19.0379 15.4011C19.0379 17.7262 17.7164 19.0379 15.3896 19.0379L3.64834 19.0379C1.32382 19.0379 0 17.7262 0 15.4011L0 3.63912C0 1.32151 1.32382 0 3.64834 0L15.3896 0C17.7164 0 19.0379 1.32151 19.0379 3.63912ZM13.5502 6.72852L12.5265 10.7733L12.4983 10.7733L11.4677 6.72621C11.3081 6.04517 10.8762 5.79642 10.2795 5.79642C9.51057 5.79642 9.08385 6.20591 9.08385 6.97254L9.08385 12.4186C9.08385 12.9199 9.34862 13.2318 9.85509 13.2318C10.3467 13.2318 10.6137 12.9199 10.6137 12.4186L10.6137 8.40772L10.6947 8.40772L11.7562 12.4242C11.8642 12.8239 12.0968 13.0927 12.5276 13.0927C12.9412 13.0927 13.1663 12.8457 13.2789 12.4196L14.3381 8.40772L14.4042 8.40772L14.4042 12.4186C14.4042 12.9199 14.6787 13.2318 15.1777 13.2318C15.6842 13.2318 15.9415 12.9199 15.9415 12.4186L15.9415 6.97254C15.9415 6.18352 15.4947 5.79642 14.7482 5.79642C14.1119 5.79642 13.7098 6.08247 13.5502 6.72852ZM4.16962 5.9136C3.604 5.9136 3.27264 6.25758 3.27264 6.83527L3.27264 12.3129C3.27264 12.8906 3.59424 13.2294 4.17193 13.2294C4.74731 13.2294 5.04653 12.8906 5.04653 12.3129L5.04653 10.5582L5.66522 10.5582L6.44804 12.4491C6.63984 12.9263 6.90745 13.2294 7.40471 13.2294C7.85787 13.2294 8.2397 12.9182 8.22478 12.3836C8.22478 12.155 8.14326 11.9455 8.03299 11.7031L7.35297 10.232C8.05501 9.73584 8.32122 9.07858 8.32122 8.25626C8.32122 6.65767 7.33841 5.9136 5.79545 5.9136ZM6.51003 8.29818C6.51003 8.84826 6.25249 9.34928 5.63064 9.34928L5.04653 9.34928L5.04653 7.24137L5.63349 7.24137C6.19104 7.24137 6.51003 7.66317 6.51003 8.29818Z"
                     fill="currentColor" fill-opacity="0.85" />
       </g>
</svg>