<?xml version="1.0" encoding="UTF-8"?>
<!--Generator: Apple Native CoreSVG 326-->
<!DOCTYPE svg PUBLIC "-//W3C//DTD SVG 1.1//EN" "http://www.w3.org/Graphics/SVG/1.1/DTD/svg11.dtd">
<svg version="1.1" xmlns="http://www.w3.org/2000/svg" xmlns:xlink="http://www.w3.org/1999/xlink"
       viewBox="0 0 24.6449 23.5952">
       <g>
              <rect height="23.5952" opacity="0" width="24.6449" x="0" y="0" />
              <path d="M13.7186 0.416404L22.6254 5.55167C23.136 5.85374 23.3841 6.25686 23.3841 6.69158C23.3841 7.28595 22.9074 7.89293 22.1092 7.89293L21.3244 7.89293L21.3244 19.392L21.7032 19.392C22.2379 19.392 22.5744 19.7159 22.5744 20.2632L22.5744 21.1701L23.0673 21.1701C23.7134 21.1701 24.2836 21.7231 24.2836 22.3766C24.2836 23.0525 23.7134 23.5854 23.0673 23.5854L1.20651 23.5854C0.553002 23.5854 0 23.045 0 22.3766C0 21.7231 0.553002 21.1701 1.20651 21.1701L1.94045 21.1701L1.94045 20.2632C1.94045 19.7159 2.27927 19.392 2.81396 19.392L3.19045 19.392L3.19045 7.89293L2.41314 7.89293C1.60745 7.89293 1.13081 7.28595 1.13081 6.69158C1.13081 6.25686 1.37659 5.85374 1.88944 5.55167L10.7963 0.416404C11.242 0.154491 11.7664 0 12.2563 0C12.7462 0 13.2683 0.154491 13.7186 0.416404ZM11.7767 8.48724L11.7767 9.5133C9.48309 9.72584 8.22302 11.4837 8.22302 13.9376L8.22302 16.379C8.22302 17.0485 8.63184 17.4545 9.30883 17.4545C9.91866 17.4545 10.382 17.1157 10.382 16.379L10.382 13.8768C10.382 12.6264 10.7429 11.615 11.7767 11.3807L11.7767 16.8854C11.7767 17.2162 11.9651 17.4097 12.2661 17.4097C12.5573 17.4097 12.7508 17.2162 12.7508 16.8854L12.7508 11.3784C13.8007 11.5984 14.1518 12.6241 14.1518 13.8768L14.1518 16.379C14.1518 17.0485 14.563 17.4545 15.2302 17.4545C15.8624 17.4545 16.3108 17.0858 16.3108 16.379L16.3108 13.9376C16.3108 11.4767 15.049 9.71377 12.7508 9.5133L12.7508 8.48724C12.7508 8.16619 12.5573 7.95025 12.2661 7.95025C11.9651 7.95025 11.7767 8.16619 11.7767 8.48724Z"
                     fill="currentColor" fill-opacity="0.85" />
       </g>
</svg>