<?xml version="1.0" encoding="UTF-8"?>
<!--Generator: Apple Native CoreSVG 326-->
<!DOCTYPE svg PUBLIC "-//W3C//DTD SVG 1.1//EN" "http://www.w3.org/Graphics/SVG/1.1/DTD/svg11.dtd">
<svg version="1.1" xmlns="http://www.w3.org/2000/svg" xmlns:xlink="http://www.w3.org/1999/xlink"
       viewBox="0 0 24.3303 21.006">
       <g>
              <rect height="21.006" opacity="0" width="24.3303" x="0" y="0" />
              <path d="M11.9856 20.9962C17.7821 20.9962 22.4837 16.2946 22.4837 10.4981C22.4837 4.70163 17.7821 0 11.9856 0C6.18916 0 1.48753 4.70163 1.48753 10.4981L4.53538 10.4981C4.53538 6.37829 7.86582 3.04785 11.9856 3.04785C16.1055 3.04785 19.4359 6.37829 19.4359 10.4981C19.4359 14.6179 16.1055 17.9484 11.9856 17.9484C9.86874 17.9484 8.05458 17.1034 6.64712 15.6524C5.97135 15.0132 5.0498 14.8117 4.35614 15.4438C3.73423 16.0162 3.72149 16.9286 4.44894 17.7463C6.08398 19.7011 9.21457 20.9962 11.9856 20.9962ZM0.808605 8.39698C-0.0138912 8.39698-0.212055 9.15901 0.22849 9.72826L2.75918 13.0277C3.05907 13.4322 3.60988 13.4224 3.91492 13.0277L6.43585 9.72596C6.86894 9.15901 6.66847 8.39698 5.8655 8.39698Z"
                     fill="currentColor" fill-opacity="0.85" />
              <path d="M9.21329 14.7037C9.79098 14.7037 10.2147 14.3947 10.2147 13.7L10.2147 11.3528C10.2147 10.0001 10.6635 8.94507 11.9879 8.94507C13.3314 8.94507 13.7658 10.0024 13.7658 11.3528L13.7658 13.7C13.7658 14.3276 14.1447 14.7037 14.7747 14.7037C15.3552 14.7037 15.7738 14.3574 15.7738 13.7L15.7738 11.4061C15.7738 8.93658 14.4315 7.23099 11.9879 7.23099C9.55181 7.23099 8.21416 8.95096 8.21416 11.4061L8.21416 13.7C8.21416 14.3276 8.59314 14.7037 9.21329 14.7037ZM11.9856 14.6664C12.2671 14.6664 12.4457 14.4803 12.4457 14.1742L12.4457 6.29337C12.4457 5.98954 12.2671 5.79599 11.9856 5.79599C11.7093 5.79599 11.5307 5.98954 11.5307 6.29337L11.5307 14.1742C11.5307 14.4803 11.7093 14.6664 11.9856 14.6664Z"
                     fill="currentColor" fill-opacity="0.85" />
       </g>
</svg>