<?xml version="1.0" encoding="UTF-8"?>
<!--Generator: Apple Native CoreSVG 326-->
<!DOCTYPE svg PUBLIC "-//W3C//DTD SVG 1.1//EN" "http://www.w3.org/Graphics/SVG/1.1/DTD/svg11.dtd">
<svg version="1.1" xmlns="http://www.w3.org/2000/svg" xmlns:xlink="http://www.w3.org/1999/xlink"
       viewBox="0 0 19.3993 19.0529">
       <g>
              <rect height="19.0529" opacity="0" width="19.3993" x="0" y="0" />
              <path d="M3.64834 19.0379L15.3896 19.0379C17.7164 19.0379 19.0379 17.7262 19.0379 15.4011L19.0379 3.63912C19.0379 1.32151 17.7164 0 15.3896 0L3.64834 0C1.32382 0 0 1.32151 0 3.63912L0 15.4011C0 17.7262 1.32382 19.0379 3.64834 19.0379ZM4.05583 16.0183C3.37024 16.0183 3.01964 15.7096 3.01964 14.9775L3.01964 4.07021C3.01964 3.33809 3.37024 3.0271 4.05583 3.0271L14.9821 3.0271C15.6654 3.0271 16.0183 3.33809 16.0183 4.07021L16.0183 14.9775C16.0183 15.7096 15.6654 16.0183 14.9821 16.0183Z"
                     fill="currentColor" fill-opacity="0.85" />
              <path d="M6.75151 13.7271C7.32919 13.7271 7.75294 13.4182 7.75294 12.7234L7.75294 10.3762C7.75294 9.02356 8.20173 7.96851 9.52846 7.96851C10.8696 7.96851 11.304 9.02587 11.304 10.3762L11.304 12.7234C11.304 13.351 11.683 13.7271 12.3054 13.7271C12.8934 13.7271 13.312 13.3808 13.312 12.7234L13.312 10.4295C13.312 7.96002 11.9697 6.25443 9.52846 6.25443C7.09003 6.25443 5.75238 7.97439 5.75238 10.4295L5.75238 12.7234C5.75238 13.351 6.13366 13.7271 6.75151 13.7271ZM9.52385 13.6898C9.79783 13.6898 9.97647 13.5037 9.97647 13.1976L9.97647 5.31681C9.97647 5.01298 9.79783 4.81943 9.52385 4.81943C9.24756 4.81943 9.06893 5.01298 9.06893 5.31681L9.06893 13.1976C9.06893 13.5037 9.24756 13.6898 9.52385 13.6898Z"
                     fill="currentColor" fill-opacity="0.85" />
       </g>
</svg>