<?xml version="1.0" encoding="UTF-8"?>
<!--Generator: Apple Native CoreSVG 326-->
<!DOCTYPE svg PUBLIC "-//W3C//DTD SVG 1.1//EN" "http://www.w3.org/Graphics/SVG/1.1/DTD/svg11.dtd">
<svg version="1.1" xmlns="http://www.w3.org/2000/svg" xmlns:xlink="http://www.w3.org/1999/xlink"
       viewBox="0 0 19.3993 19.0529">
       <g>
              <rect height="19.0529" opacity="0" width="19.3993" x="0" y="0" />
              <path d="M19.0379 3.63912L19.0379 15.4011C19.0379 17.7262 17.7164 19.0379 15.3896 19.0379L3.64834 19.0379C1.32382 19.0379 0 17.7262 0 15.4011L0 3.63912C0 1.32151 1.32382 0 3.64834 0L15.3896 0C17.7164 0 19.0379 1.32151 19.0379 3.63912ZM9.12401 5.05095L9.12401 6.07701C6.83272 6.29185 5.57781 8.04736 5.57781 10.5013L5.57781 12.945C5.57781 13.6123 5.98148 14.0205 6.65615 14.0205C7.26599 14.0205 7.72934 13.6869 7.72934 12.945L7.72934 10.4428C7.72934 9.19758 8.09025 8.17874 9.12401 7.94437L9.12401 13.4589C9.12401 13.7822 9.3124 13.9758 9.61338 13.9758C9.91205 13.9758 10.0981 13.7822 10.0981 13.4589L10.0981 7.94207C11.148 8.16206 11.4992 9.18782 11.4992 10.4428L11.4992 12.945C11.4992 13.6123 11.9103 14.0205 12.5798 14.0205C13.2097 14.0205 13.6582 13.6496 13.6582 12.945L13.6582 10.5013C13.6582 8.04045 12.3986 6.28494 10.0981 6.07701L10.0981 5.05095C10.0981 4.7299 9.91205 4.51396 9.61338 4.51396C9.3124 4.51396 9.12401 4.7299 9.12401 5.05095Z"
                     fill="currentColor" fill-opacity="0.85" />
       </g>
</svg>