<?xml version="1.0" encoding="UTF-8"?>
<!--Generator: Apple Native CoreSVG 326-->
<!DOCTYPE svg PUBLIC "-//W3C//DTD SVG 1.1//EN" "http://www.w3.org/Graphics/SVG/1.1/DTD/svg11.dtd">
<svg version="1.1" xmlns="http://www.w3.org/2000/svg" xmlns:xlink="http://www.w3.org/1999/xlink"
       viewBox="0 0 24.6449 23.5952">
       <g>
              <rect height="23.5952" opacity="0" width="24.6449" x="0" y="0" />
              <path d="M1.94045 20.4256L22.5744 20.4256L22.5744 19.4355C22.5744 18.8957 22.2379 18.5718 21.7032 18.5718L21.3244 18.5718L21.3244 7.89293L22.1092 7.89293C22.9074 7.89293 23.3841 7.28595 23.3841 6.69158C23.3841 6.25686 23.136 5.85374 22.6254 5.55167L13.7186 0.416404C13.2683 0.154491 12.7462 0 12.2563 0C11.7664 0 11.242 0.154491 10.7963 0.416404L1.88944 5.55167C1.37659 5.85374 1.13081 6.25686 1.13081 6.69158C1.13081 7.28595 1.60745 7.89293 2.41314 7.89293L3.19045 7.89293L3.19045 18.5718L2.81396 18.5718C2.27927 18.5718 1.94045 18.8957 1.94045 19.4355ZM5.29922 18.5718L5.29922 6.39673L12.047 2.62732C12.1194 2.5888 12.1965 2.57212 12.2563 2.57212C12.331 2.57212 12.3931 2.5888 12.4679 2.62732L19.2157 6.39673L19.2157 18.5718ZM1.20651 23.5854L23.0673 23.5854C23.7134 23.5854 24.2836 23.0525 24.2836 22.3766C24.2836 21.7231 23.7134 21.1701 23.0673 21.1701L1.20651 21.1701C0.553002 21.1701 0 21.7231 0 22.3766C0 23.045 0.553002 23.5854 1.20651 23.5854Z"
                     fill="currentColor" fill-opacity="0.85" />
              <path d="M9.49371 15.7623C10.0639 15.7623 10.4877 15.4556 10.4877 14.7585L10.4877 12.4113C10.4877 11.061 10.9365 10.0036 12.2684 10.0036C13.6118 10.0036 14.0387 11.0633 14.0387 12.4113L14.0387 14.7585C14.0387 15.3884 14.4177 15.7623 15.0453 15.7623C15.6356 15.7623 16.0542 15.4183 16.0542 14.7585L16.0542 12.4646C16.0542 10.0049 14.7045 8.28956 12.2684 8.28956C9.82477 8.28956 8.48712 10.0095 8.48712 12.4646L8.48712 14.7585C8.48712 15.3884 8.8661 15.7623 9.49371 15.7623ZM12.2661 15.725C12.54 15.725 12.7187 15.5389 12.7187 15.2327L12.7187 7.35194C12.7187 7.05558 12.54 6.85456 12.2661 6.85456C11.9823 6.85456 11.8037 7.05558 11.8037 7.35194L11.8037 15.2327C11.8037 15.5389 11.9823 15.725 12.2661 15.725Z"
                     fill="currentColor" fill-opacity="0.85" />
       </g>
</svg>