<?xml version="1.0" encoding="UTF-8"?>
<!--Generator: Apple Native CoreSVG 326-->
<!DOCTYPE svg PUBLIC "-//W3C//DTD SVG 1.1//EN" "http://www.w3.org/Graphics/SVG/1.1/DTD/svg11.dtd">
<svg version="1.1" xmlns="http://www.w3.org/2000/svg" xmlns:xlink="http://www.w3.org/1999/xlink"
       viewBox="0 0 21.365 21.006">
       <g>
              <rect height="21.006" opacity="0" width="21.365" x="0" y="0" />
              <path d="M21.0037 10.4981C21.0037 16.2923 16.302 20.9962 10.4981 20.9962C4.70394 20.9962 0 16.2923 0 10.4981C0 4.70163 4.70394 0 10.4981 0C16.302 0 21.0037 4.70163 21.0037 10.4981ZM9.25818 13.9363L11.1213 14.9828C11.336 15.0964 11.4985 15.1705 11.731 15.205L11.731 7.18283L9.91903 6.13797C9.64977 5.98985 9.43505 5.8538 9.25818 5.81188ZM13.9325 6.03716L12.5357 6.80167L12.5357 15.1653C12.592 15.1533 12.6781 15.1188 12.7666 15.0671L14.919 13.8651C15.3733 13.6124 15.5496 13.2988 15.5496 12.8302L15.5496 6.75211C15.5496 6.1279 15.1236 5.85568 14.5809 5.85568C14.3695 5.85568 14.1209 5.92458 13.9325 6.03716ZM7.86952 6.0411L6.03583 7.04908C5.6338 7.27709 5.45978 7.6056 5.45978 8.06162L5.45978 14.2716C5.45978 14.8786 5.85368 15.148 6.30914 15.148C6.51301 15.148 6.70195 15.0969 6.86797 15.0015L8.45576 14.1458L8.45576 5.80279C8.29326 5.82923 8.10377 5.91021 7.86952 6.0411Z"
                     fill="currentColor" fill-opacity="0.85" />
       </g>
</svg>