<?xml version="1.0" encoding="UTF-8"?>
<!--Generator: Apple Native CoreSVG 326-->
<!DOCTYPE svg PUBLIC "-//W3C//DTD SVG 1.1//EN" "http://www.w3.org/Graphics/SVG/1.1/DTD/svg11.dtd">
<svg version="1.1" xmlns="http://www.w3.org/2000/svg" xmlns:xlink="http://www.w3.org/1999/xlink"
       viewBox="0 0 21.365 21.006">
       <g>
              <rect height="21.006" opacity="0" width="21.365" x="0" y="0" />
              <path d="M10.4981 20.9962C16.302 20.9962 21.0037 16.2946 21.0037 10.4981C21.0037 4.70163 16.302 0 10.4981 0C4.70163 0 0 4.70163 0 10.4981C0 16.2946 4.70163 20.9962 10.4981 20.9962ZM10.4981 17.9484C6.37829 17.9484 3.04785 14.6179 3.04785 10.4981C3.04785 6.37829 6.37829 3.04785 10.4981 3.04785C14.6179 3.04785 17.9558 6.37829 17.9558 10.4981C17.9558 14.6179 14.6179 17.9484 10.4981 17.9484Z"
                     fill="currentColor" fill-opacity="0.85" />
              <path d="M5.76008 14.0379C5.76008 14.5979 6.13676 14.8575 6.56754 14.8575C6.74902 14.8575 6.9282 14.8086 7.07929 14.7207L8.57634 13.9018L8.57634 6.07841C8.42877 6.11001 8.2565 6.18122 8.02971 6.30696L6.31891 7.25119C5.9295 7.46658 5.76008 7.77095 5.76008 8.19943ZM9.33685 13.7072L11.0995 14.6974C11.2895 14.8059 11.4445 14.8725 11.6546 14.907L11.6546 7.37978L9.95063 6.39867C9.6963 6.25801 9.66809 6.24879 9.33685 6.09497ZM12.4077 14.865C12.4714 14.8553 12.5426 14.8208 12.6236 14.7841L14.6509 13.6532C15.085 13.408 15.2418 13.126 15.2418 12.6849L15.2418 6.96629C15.2418 6.37884 14.8479 6.12899 14.3374 6.12899C14.1335 6.12899 13.917 6.2002 13.7361 6.29556L12.4077 7.02846Z"
                     fill="currentColor" fill-opacity="0.85" />
       </g>
</svg>