<?xml version="1.0" encoding="UTF-8"?>
<!--Generator: Apple Native CoreSVG 326-->
<!DOCTYPE svg PUBLIC "-//W3C//DTD SVG 1.1//EN" "http://www.w3.org/Graphics/SVG/1.1/DTD/svg11.dtd">
<svg version="1.1" xmlns="http://www.w3.org/2000/svg" xmlns:xlink="http://www.w3.org/1999/xlink"
       viewBox="0 0 19.3993 19.0529">
       <g>
              <rect height="19.0529" opacity="0" width="19.3993" x="0" y="0" />
              <path d="M19.0379 3.63912L19.0379 15.4011C19.0379 17.7262 17.7164 19.0379 15.3896 19.0379L3.64834 19.0379C1.32382 19.0379 0 17.7262 0 15.4011L0 3.63912C0 1.32151 1.32382 0 3.64834 0L15.3896 0C17.7164 0 19.0379 1.32151 19.0379 3.63912ZM6.86851 6.27427C6.86851 7.41157 7.55956 8.39031 8.54468 8.80265L8.54468 13.3815C8.54468 14.4159 9.04995 15.779 9.61338 15.779C10.1567 15.779 10.6649 14.4354 10.6649 13.3815L10.6649 8.81011C11.662 8.40008 12.3582 7.41387 12.3582 6.27427C12.3582 4.74361 11.1217 3.52424 9.61338 3.53916C8.09249 3.54662 6.86851 4.77345 6.86851 6.27427ZM9.89931 5.50697C9.89931 5.98942 9.50014 6.39837 9.01022 6.39837C8.55475 6.39837 8.14581 5.98942 8.14581 5.50697C8.1435 5.03427 8.55475 4.63279 9.01022 4.63279C9.50014 4.63279 9.90162 5.03427 9.89931 5.50697Z"
                     fill="currentColor" fill-opacity="0.85" />
       </g>
</svg>