<?xml version="1.0" encoding="UTF-8"?>
<!--Generator: Apple Native CoreSVG 326-->
<!DOCTYPE svg PUBLIC "-//W3C//DTD SVG 1.1//EN" "http://www.w3.org/Graphics/SVG/1.1/DTD/svg11.dtd">
<svg version="1.1" xmlns="http://www.w3.org/2000/svg" xmlns:xlink="http://www.w3.org/1999/xlink"
       viewBox="0 0 21.365 21.006">
       <g>
              <rect height="21.006" opacity="0" width="21.365" x="0" y="0" />
              <path d="M21.0037 10.5079C21.0037 16.3043 16.302 21.006 10.4981 21.006C4.70394 21.006 0 16.3043 0 10.5079C0 4.7137 4.70394 0.00976562 10.4981 0.00976562C16.302 0.00976562 21.0037 4.7137 21.0037 10.5079ZM9.43687 14.3678C9.43687 15.4022 9.93467 16.7676 10.4981 16.7676C11.0489 16.7676 11.557 15.424 11.557 14.3678L11.557 13.6258L9.43687 11.5062ZM5.99688 6.02157C5.7465 6.27942 5.74134 6.7216 5.99688 6.97945L14.0438 15.0091C14.2918 15.2595 14.7363 15.2595 15.0016 15.0091C15.252 14.7415 15.2595 14.3188 15.0016 14.0512L6.97199 6.02157C6.70668 5.75396 6.2645 5.76142 5.99688 6.02157ZM8.06397 6.01817L11.7571 9.71133C12.6435 9.26001 13.243 8.33107 13.243 7.26059C13.243 5.7374 12.0138 4.51803 10.4981 4.52549C9.43562 4.53073 8.51579 5.13694 8.06397 6.01817ZM10.784 6.50306C10.784 6.97575 10.3923 7.3847 9.90241 7.3847C9.44694 7.3847 9.038 6.97575 9.038 6.50306C9.03569 6.0206 9.44694 5.61912 9.90241 5.61912C10.3923 5.61912 10.784 6.0206 10.784 6.50306Z"
                     fill="currentColor" fill-opacity="0.85" />
       </g>
</svg>