<?xml version="1.0" encoding="UTF-8"?>
<!--Generator: Apple Native CoreSVG 326-->
<!DOCTYPE svg PUBLIC "-//W3C//DTD SVG 1.1//EN" "http://www.w3.org/Graphics/SVG/1.1/DTD/svg11.dtd">
<svg version="1.1" xmlns="http://www.w3.org/2000/svg" xmlns:xlink="http://www.w3.org/1999/xlink"
       viewBox="0 0 21.365 21.006">
       <g>
              <rect height="21.006" opacity="0" width="21.365" x="0" y="0" />
              <path d="M10.4981 20.9962C16.302 20.9962 21.0037 16.2946 21.0037 10.4981C21.0037 4.70163 16.302 0 10.4981 0C4.70163 0 0 4.70163 0 10.4981C0 16.2946 4.70163 20.9962 10.4981 20.9962ZM10.4981 17.9484C6.37829 17.9484 3.04785 14.6179 3.04785 10.4981C3.04785 6.37829 6.37829 3.04785 10.4981 3.04785C14.6179 3.04785 17.9558 6.37829 17.9558 10.4981C17.9558 14.6179 14.6179 17.9484 10.4981 17.9484Z"
                     fill="currentColor" fill-opacity="0.85" />
              <path d="M7.92605 7.44262C7.92605 8.51102 8.58035 9.42547 9.50117 9.81312L9.50117 14.1209C9.50117 15.0991 9.97428 16.376 10.4958 16.376C11.0122 16.376 11.4807 15.1111 11.4807 14.1209L11.4807 9.82058C12.4187 9.4427 13.0656 8.51332 13.0656 7.44262C13.0656 6.01817 11.9128 4.86541 10.4958 4.87287C9.08112 4.88779 7.92605 6.0331 7.92605 7.44262ZM9.12698 6.73216C9.12467 6.28415 9.50377 5.90736 9.94201 5.90736C10.3923 5.90736 10.7668 6.28415 10.7668 6.73216C10.7668 7.18016 10.3923 7.55696 9.94201 7.55696C9.50377 7.55696 9.12698 7.18016 9.12698 6.73216Z"
                     fill="currentColor" fill-opacity="0.85" />
       </g>
</svg>