<?xml version="1.0" encoding="UTF-8"?>
<!--Generator: Apple Native CoreSVG 326-->
<!DOCTYPE svg PUBLIC "-//W3C//DTD SVG 1.1//EN" "http://www.w3.org/Graphics/SVG/1.1/DTD/svg11.dtd">
<svg version="1.1" xmlns="http://www.w3.org/2000/svg" xmlns:xlink="http://www.w3.org/1999/xlink"
       viewBox="0 0 21.365 21.006">
       <g>
              <rect height="21.006" opacity="0" width="21.365" x="0" y="0" />
              <path d="M21.0037 10.5079C21.0037 16.3043 16.302 21.006 10.4981 21.006C4.70394 21.006 0 16.3043 0 10.5079C0 4.7137 4.70394 0.00976562 10.4981 0.00976562C16.302 0.00976562 21.0037 4.7137 21.0037 10.5079ZM12.0408 11.8807C13.1977 11.9828 14.2787 12.4574 14.2787 13.0447C14.2787 13.8094 12.738 14.3495 10.5429 14.3495C8.34549 14.3495 6.80185 13.8117 6.80185 13.0447C6.80185 12.4574 7.88808 11.9828 9.03745 11.8807L9.03745 10.6172C7.12836 10.7791 5.38486 11.7624 5.38486 13.0896C5.38486 14.5312 7.44299 15.6291 10.5429 15.6291C13.6428 15.6291 15.7009 14.5312 15.7009 13.0896C15.7009 11.7624 13.9499 10.7791 12.0408 10.6172ZM8.42088 6.72646C8.42088 7.66857 9.03557 8.47396 9.88694 8.76001L9.88694 11.6241C9.88694 12.5841 10.2872 13.4699 10.5503 13.4699C10.8307 13.4699 11.2086 12.5864 11.2086 11.6241L11.2086 8.76001C12.0651 8.48142 12.6872 7.66857 12.6872 6.72646C12.6872 5.55689 11.7371 4.597 10.5503 4.597C9.371 4.597 8.42088 5.55689 8.42088 6.72646ZM10.6778 6.13306C10.6778 6.52884 10.3527 6.86372 9.9644 6.86372C9.5853 6.86372 9.2458 6.52884 9.2458 6.13306C9.2458 5.73958 9.5853 5.42193 9.9644 5.42193C10.3527 5.42193 10.6778 5.73958 10.6778 6.13306Z"
                     fill="currentColor" fill-opacity="0.85" />
       </g>
</svg>