<?xml version="1.0" encoding="UTF-8"?>
<!--Generator: Apple Native CoreSVG 326-->
<!DOCTYPE svg PUBLIC "-//W3C//DTD SVG 1.1//EN" "http://www.w3.org/Graphics/SVG/1.1/DTD/svg11.dtd">
<svg version="1.1" xmlns="http://www.w3.org/2000/svg" xmlns:xlink="http://www.w3.org/1999/xlink"
       viewBox="0 0 21.365 21.006">
       <g>
              <rect height="21.006" opacity="0" width="21.365" x="0" y="0" />
              <path d="M10.4981 20.9962C16.302 20.9962 21.0037 16.2946 21.0037 10.4981C21.0037 4.70163 16.302 0 10.4981 0C4.70163 0 0 4.70163 0 10.4981C0 16.2946 4.70163 20.9962 10.4981 20.9962ZM10.4981 17.9484C6.37829 17.9484 3.04785 14.6179 3.04785 10.4981C3.04785 6.37829 6.37829 3.04785 10.4981 3.04785C14.6179 3.04785 17.9558 6.37829 17.9558 10.4981C17.9558 14.6179 14.6179 17.9484 10.4981 17.9484Z"
                     fill="currentColor" fill-opacity="0.85" />
              <path d="M8.55408 6.92341C8.55408 7.80638 9.12686 8.56009 9.92655 8.82661L9.92655 11.5254C9.92655 12.4244 10.2947 13.2511 10.548 13.2511C10.8037 13.2511 11.1644 12.429 11.1644 11.5254L11.1644 8.82661C11.9617 8.56755 12.542 7.80638 12.542 6.92341C12.542 5.82274 11.6585 4.922 10.548 4.922C9.4376 4.922 8.55408 5.82274 8.55408 6.92341ZM9.99654 7.04114C9.64213 7.04114 9.32733 6.72579 9.32733 6.36446C9.32733 5.99567 9.64213 5.69524 9.99654 5.69524C10.3602 5.69524 10.6681 5.99567 10.6681 6.36446C10.6681 6.72579 10.3602 7.04114 9.99654 7.04114ZM10.5406 15.2771C13.4533 15.2771 15.3782 14.2384 15.3782 12.8955C15.3782 11.6545 13.7254 10.7302 11.9398 10.5833L11.9398 11.7578C13.0226 11.8525 14.0473 12.3024 14.0473 12.8581C14.0473 13.5757 12.5927 14.0813 10.5406 14.0813C8.47123 14.0813 7.02864 13.5757 7.02864 12.8581C7.02864 12.3024 8.05112 11.8525 9.13389 11.7578L9.13389 10.5833C7.34824 10.7302 5.69548 11.6545 5.69548 12.8955C5.69548 14.2384 7.62787 15.2771 10.5406 15.2771Z"
                     fill="currentColor" fill-opacity="0.85" />
       </g>
</svg>