<?xml version="1.0" encoding="UTF-8"?>
<!--Generator: Apple Native CoreSVG 326-->
<!DOCTYPE svg PUBLIC "-//W3C//DTD SVG 1.1//EN" "http://www.w3.org/Graphics/SVG/1.1/DTD/svg11.dtd">
<svg version="1.1" xmlns="http://www.w3.org/2000/svg" xmlns:xlink="http://www.w3.org/1999/xlink"
       viewBox="0 0 20.1438 23.6038">
       <g>
              <rect height="23.6038" opacity="0" width="20.1438" x="0" y="0" />
              <path d="M11.237 19.0034C11.0704 20.7052 10.2825 22.162 9.89495 22.162C9.44979 22.162 8.5018 20.3137 8.5018 18.3654L8.5018 16.2676ZM14.3777 4.50978C14.3777 6.51204 13.079 8.21101 11.2709 8.78816L11.2709 12.6544L8.5018 9.88427L8.5018 8.78816C6.7011 8.20125 5.4047 6.51204 5.4047 4.50978C5.4047 2.02573 7.39883 0 9.89495 0C12.3888 0 14.3777 2.02573 14.3777 4.50978ZM7.09785 3.23643C7.09785 4.06923 7.81808 4.782 8.63136 4.782C9.48139 4.782 10.1672 4.06923 10.1672 3.23643C10.1672 2.40592 9.48139 1.70292 8.63136 1.70292C7.81808 1.70292 7.09785 2.40592 7.09785 3.23643Z"
                     fill="currentColor" fill-opacity="0.85" />
              <path d="M15.7332 21.521C16.0709 21.8513 16.6114 21.8513 16.9468 21.521C17.2822 21.1833 17.2771 20.6325 16.9468 20.3074L2.86867 6.22404C2.5384 5.89608 1.97551 5.88631 1.64524 6.22404C1.31727 6.54455 1.31727 7.10974 1.64524 7.43025Z"
                     fill="currentColor" fill-opacity="0.85" />
       </g>
</svg>