<?xml version="1.0" encoding="UTF-8"?>
<!--Generator: Apple Native CoreSVG 326-->
<!DOCTYPE svg PUBLIC "-//W3C//DTD SVG 1.1//EN" "http://www.w3.org/Graphics/SVG/1.1/DTD/svg11.dtd">
<svg version="1.1" xmlns="http://www.w3.org/2000/svg" xmlns:xlink="http://www.w3.org/1999/xlink"
       viewBox="0 0 19.3993 19.0529">
       <g>
              <rect height="19.0529" opacity="0" width="19.3993" x="0" y="0" />
              <path d="M3.64834 19.0379L15.3896 19.0379C17.7164 19.0379 19.0379 17.7262 19.0379 15.4011L19.0379 3.63912C19.0379 1.32151 17.7164 0 15.3896 0L3.64834 0C1.32382 0 0 1.32151 0 3.63912L0 15.4011C0 17.7262 1.32382 19.0379 3.64834 19.0379ZM4.05583 16.0183C3.37024 16.0183 3.01964 15.7096 3.01964 14.9775L3.01964 4.07021C3.01964 3.33809 3.37024 3.0271 4.05583 3.0271L14.9821 3.0271C15.6654 3.0271 16.0183 3.33809 16.0183 4.07021L16.0183 14.9775C16.0183 15.7096 15.6654 16.0183 14.9821 16.0183Z"
                     fill="currentColor" fill-opacity="0.85" />
              <path d="M7.04362 6.56305C7.04362 7.59414 7.67554 8.47875 8.56652 8.84402L8.56652 13.0175C8.56652 13.9658 9.01725 15.198 9.52385 15.198C10.0178 15.198 10.4714 13.9779 10.4714 13.0175L10.4714 8.85894C11.3745 8.48852 12.0041 7.59645 12.0041 6.56305C12.0041 5.18337 10.8886 4.07536 9.52385 4.08282C8.15393 4.09028 7.04362 5.19829 7.04362 6.56305ZM8.19979 5.87497C8.19749 5.44188 8.56166 5.07255 8.98498 5.07255C9.42037 5.07255 9.78225 5.44188 9.77994 5.87497C9.77994 6.30059 9.42037 6.66992 8.98498 6.66992C8.56166 6.66992 8.19979 6.30059 8.19979 5.87497Z"
                     fill="currentColor" fill-opacity="0.85" />
       </g>
</svg>