<?xml version="1.0" encoding="UTF-8"?>
<!--Generator: Apple Native CoreSVG 326-->
<!DOCTYPE svg PUBLIC "-//W3C//DTD SVG 1.1//EN" "http://www.w3.org/Graphics/SVG/1.1/DTD/svg11.dtd">
<svg version="1.1" xmlns="http://www.w3.org/2000/svg" xmlns:xlink="http://www.w3.org/1999/xlink"
       viewBox="0 0 23.9422 27.3487">
       <g>
              <rect height="27.3487" opacity="0" width="23.9422" x="0" y="0" />
              <path d="M8.54608 16.8375L8.55482 17.1633C5.17955 17.5244 2.96954 18.4684 2.96954 19.7268C2.96954 21.3593 6.66792 22.4612 11.7916 22.4612C16.9107 22.4612 20.6137 21.3547 20.6137 19.7268C20.6137 18.4745 18.4159 17.5316 15.0611 17.1671C15.0679 17.0616 15.0698 16.9506 15.0698 16.8375L15.0698 14.496C20.2445 15.0635 23.5809 17.0165 23.5809 19.7268C23.5809 22.9775 18.788 25.1382 11.7939 25.1382C4.79747 25.1382 0 22.9775 0 19.7268C0 17.0115 3.35222 15.0561 8.54608 14.493Z"
                     fill="currentColor" fill-opacity="0.85" />
              <path d="M16.3042 6.38223C16.3042 8.38449 15.0055 10.0835 13.1974 10.6606L13.1974 16.7154C13.1974 18.666 12.3389 20.512 11.814 20.512C11.2942 20.512 10.4283 18.6562 10.4283 16.7154L10.4283 10.6606C8.6276 10.0737 7.32889 8.38449 7.32889 6.38223C7.32889 3.89818 9.32533 1.87245 11.814 1.87245C14.3153 1.87245 16.3042 3.89818 16.3042 6.38223ZM9.02435 5.10888C9.02435 5.94169 9.74458 6.65446 10.5579 6.65446C11.4004 6.65446 12.0937 5.94169 12.0937 5.10888C12.0937 4.27838 11.4004 3.57537 10.5579 3.57537C9.74458 3.57537 9.02435 4.27838 9.02435 5.10888Z"
                     fill="currentColor" fill-opacity="0.85" />
       </g>
</svg>