<?xml version="1.0" encoding="UTF-8"?>
<!--Generator: Apple Native CoreSVG 326-->
<!DOCTYPE svg PUBLIC "-//W3C//DTD SVG 1.1//EN" "http://www.w3.org/Graphics/SVG/1.1/DTD/svg11.dtd">
<svg version="1.1" xmlns="http://www.w3.org/2000/svg" xmlns:xlink="http://www.w3.org/1999/xlink"
       viewBox="0 0 21.365 21.006">
       <g>
              <rect height="21.006" opacity="0" width="21.365" x="0" y="0" />
              <path d="M21.0037 10.4981C21.0037 16.2946 16.302 20.9962 10.4981 20.9962C4.70163 20.9962 0 16.2946 0 10.4981C0 4.70163 4.70163 0 10.4981 0C16.302 0 21.0037 4.70163 21.0037 10.4981ZM3.04785 10.4981C3.04785 14.6179 6.37829 17.9484 10.4981 17.9484C14.6179 17.9484 17.9558 14.6179 17.9558 10.4981C17.9558 6.37829 14.6179 3.04785 10.4981 3.04785C6.37829 3.04785 3.04785 6.37829 3.04785 10.4981Z"
                     fill="currentColor" fill-opacity="0.85" />
              <path d="M11.4807 13.4082L11.4807 14.1209C11.4807 15.1111 11.0122 16.376 10.4958 16.376C9.97428 16.376 9.50117 15.0991 9.50117 14.1209L9.50117 11.4287ZM13.0656 7.44262C13.0656 8.44275 12.5012 9.31957 11.6621 9.73848L8.20786 6.28533C8.63171 5.4547 9.49936 4.88338 10.4958 4.87287C11.9128 4.86541 13.0656 6.01817 13.0656 7.44262ZM9.12698 6.73216C9.12698 7.18016 9.50377 7.55696 9.94201 7.55696C10.3923 7.55696 10.7668 7.18016 10.7668 6.73216C10.7668 6.28415 10.3923 5.90736 9.94201 5.90736C9.50377 5.90736 9.12467 6.28415 9.12698 6.73216Z"
                     fill="currentColor" fill-opacity="0.85" />
              <path d="M13.8198 14.7013C14.0604 14.9345 14.4653 14.9443 14.7059 14.7013C14.9563 14.4584 14.9563 14.0581 14.7059 13.8077L7.20054 6.30004C6.94785 6.04966 6.54012 6.04966 6.29719 6.30004C6.0468 6.54297 6.0468 6.94555 6.29719 7.18617Z"
                     fill="currentColor" fill-opacity="0.85" />
       </g>
</svg>