<?xml version="1.0" encoding="UTF-8"?>
<!--Generator: Apple Native CoreSVG 326-->
<!DOCTYPE svg PUBLIC "-//W3C//DTD SVG 1.1//EN" "http://www.w3.org/Graphics/SVG/1.1/DTD/svg11.dtd">
<svg version="1.1" xmlns="http://www.w3.org/2000/svg" xmlns:xlink="http://www.w3.org/1999/xlink"
       viewBox="0 0 9.33667 23.6038">
       <g>
              <rect height="23.6038" opacity="0" width="9.33667" x="0" y="0" />
              <path d="M8.97534 4.50978C8.97534 6.51204 7.67663 8.21101 5.86848 8.78816L5.86848 18.3654C5.86848 20.3235 4.92794 22.162 4.48279 22.162C4.0474 22.162 3.0971 20.3137 3.0971 18.3654L3.0971 8.78816C1.2964 8.20125 0 6.51204 0 4.50978C0 2.02573 1.99643 0 4.48279 0C6.98637 0 8.97534 2.02573 8.97534 4.50978ZM1.69315 3.23643C1.69315 4.06923 2.41338 4.782 3.22897 4.782C4.0767 4.782 4.76247 4.06923 4.76247 3.23643C4.76247 2.40592 4.0767 1.70292 3.22897 1.70292C2.41338 1.70292 1.69315 2.40592 1.69315 3.23643Z"
                     fill="currentColor" fill-opacity="0.85" />
       </g>
</svg>