<?xml version="1.0" encoding="UTF-8"?>
<!--Generator: Apple Native CoreSVG 326-->
<!DOCTYPE svg PUBLIC "-//W3C//DTD SVG 1.1//EN" "http://www.w3.org/Graphics/SVG/1.1/DTD/svg11.dtd">
<svg version="1.1" xmlns="http://www.w3.org/2000/svg" xmlns:xlink="http://www.w3.org/1999/xlink"
       viewBox="0 0 20.8093 23.2855">
       <g>
              <rect height="23.2855" opacity="0" width="20.8093" x="0" y="0" />
              <path d="M10.5959 11.5015L20.4186 6.17911L20.4186 6.15375C20.3285 5.24052 19.8925 4.64615 18.988 4.16138L12.2753 0.547194C10.9818-0.151321 9.46617-0.149016 8.17262 0.547194L1.4623 4.15447C0.550272 4.64439 0.112032 5.23591 0.0120705 6.17274L0.0120705 6.19809L9.88136 11.5113C10.0795 11.6261 10.3903 11.6089 10.5959 11.5015ZM10.5551 8.57047C10.2892 8.70828 10.1088 8.7232 9.82574 8.57047L4.71935 5.78551C4.49256 5.67469 4.49771 5.39567 4.69466 5.29232L9.27455 2.81889C9.89968 2.48619 10.5483 2.48388 11.1757 2.81889L15.7384 5.28201C15.9376 5.38536 15.9451 5.66899 15.7257 5.77981ZM1.52386 19.0305L8.70208 22.8712C9.74136 23.4224 10.6991 23.4247 11.7407 22.8712L18.9166 19.0213C19.9941 18.444 20.4479 17.7962 20.4479 16.4743L20.4479 7.71613L10.8406 12.8794C10.4735 13.0724 9.99624 13.0724 9.63667 12.8817L0 7.75059L0 16.4743C0 17.7962 0.456133 18.463 1.52386 19.0305ZM1.52659 11.5265C1.16417 11.3358 0.882728 10.8752 0.882728 10.5277C0.882728 10.1825 1.16187 10.0625 1.52198 10.2509C1.85972 10.4341 2.15839 10.912 2.15839 11.2572C2.15839 11.6024 1.86202 11.7075 1.52659 11.5265ZM4.75986 13.2061L2.68803 12.1044L2.68803 10.861L4.75986 11.9553ZM6.08271 13.9495C5.72029 13.7588 5.44115 13.2959 5.44115 12.9507C5.44115 12.598 5.72029 12.4832 6.08041 12.6739C6.41814 12.8548 6.71451 13.3252 6.71451 13.6778C6.71451 14.0156 6.42045 14.1305 6.08271 13.9495ZM9.30852 15.6314L7.24415 14.5371L7.24415 13.2937L9.30852 14.388ZM11.7941 15.5507C11.434 15.7465 11.1548 15.6265 11.1548 15.2738C11.1548 14.9361 11.4409 14.4709 11.7987 14.275C12.1364 14.0918 12.4305 14.2043 12.4305 14.5421C12.4305 14.8947 12.1341 15.3674 11.7941 15.5507ZM13.0974 20.1187L13.0974 14.2071C13.0974 13.7253 13.1686 13.5834 13.5494 13.3698L15.0292 12.566C15.4128 12.3645 15.677 12.6435 15.677 12.9198L15.677 18.7486ZM16.761 12.9093C16.4009 13.1052 16.1218 12.9874 16.1218 12.6348C16.1218 12.2971 16.4032 11.8318 16.7656 11.6411C17.1108 11.4602 17.3974 11.5653 17.3974 11.9105C17.3974 12.2557 17.1659 12.6985 16.761 12.9093ZM19.731 11.3219L17.9651 12.2572L17.9651 11.0087L19.731 10.0584Z"
                     fill="currentColor" fill-opacity="0.85" />
       </g>
</svg>