<?xml version="1.0" encoding="UTF-8"?>
<!--Generator: Apple Native CoreSVG 326-->
<!DOCTYPE svg PUBLIC "-//W3C//DTD SVG 1.1//EN" "http://www.w3.org/Graphics/SVG/1.1/DTD/svg11.dtd">
<svg version="1.1" xmlns="http://www.w3.org/2000/svg" xmlns:xlink="http://www.w3.org/1999/xlink"
       viewBox="0 0 16.2839 26.7996">
       <g>
              <rect height="26.7996" opacity="0" width="16.2839" x="0" y="0" />
              <path d="M3.60527 14.0466L1.14058 12.3592C0.34113 11.8124 0 11.152 0 10.1027L0 3.77618C0 2.46565 0.987178 1.47101 2.29025 1.47101L3.60527 1.47101ZM15.9225 3.77618L15.9225 10.1027C15.9225 11.1348 15.5912 11.7975 14.7819 12.3592L12.3149 14.0414L12.3149 1.47101L13.6248 1.47101C14.933 1.47101 15.9225 2.46565 15.9225 3.77618ZM9.75962 13.8249C8.89842 12.4805 7.01655 12.4802 6.15313 13.8311L6.15313 1.47101L9.75962 1.47101Z"
                     fill="currentColor" fill-opacity="0.85" />
              <path d="M5.32755 25.1117L7.95868 23.178L10.5973 25.1117C11.2532 25.5936 11.993 25.1742 11.7035 24.3013L10.6798 21.2071L13.3253 19.305C13.8802 18.9017 13.8209 17.9684 12.9117 17.9857L9.64407 18.0224L8.63931 14.9012C8.382 14.0926 7.5279 14.0926 7.2706 14.9012L6.28075 18.0224L3.01309 17.9857C2.13376 17.9684 2.02743 18.8994 2.59208 19.305L5.24505 21.222L4.21384 24.3013C3.93185 25.1369 4.67161 25.6011 5.32755 25.1117Z"
                     fill="currentColor" fill-opacity="0.85" />
       </g>
</svg>