<?xml version="1.0" encoding="UTF-8"?>
<!--Generator: Apple Native CoreSVG 326-->
<!DOCTYPE svg PUBLIC "-//W3C//DTD SVG 1.1//EN" "http://www.w3.org/Graphics/SVG/1.1/DTD/svg11.dtd">
<svg version="1.1" xmlns="http://www.w3.org/2000/svg" xmlns:xlink="http://www.w3.org/1999/xlink"
       viewBox="0 0 21.0142 24.0385">
       <g>
              <rect height="24.0385" opacity="0" width="21.0142" x="0" y="0" />
              <path d="M4.43296 14.5992L6.33586 12.5081L2.97867 6.06239L3.98392 4.57541L7.69467 11.7529L10.2736 10.6536L6.01299 2.93594L14.6399 2.93594L10.3868 10.6536L12.9582 11.7529L16.6764 4.57541L17.684 6.06239L14.317 12.5081L16.2199 14.5992L20.4516 6.89793C20.7491 6.3593 20.7244 5.71216 20.385 5.21545L17.5147 0.916514C17.1828 0.446793 16.7298 0.207929 16.1176 0.207929L4.53759 0.207929C3.9306 0.207929 3.4701 0.446793 3.14796 0.916514L0.267886 5.21545C-0.0617195 5.71216-0.0938672 6.3593 0.208746 6.89793ZM6.16366 7.26915L14.5065 7.26915L14.5065 4.72019L6.16366 4.72019ZM10.3313 24.0385C14.2619 24.0385 17.4515 20.8489 17.4515 16.9184C17.4515 12.9855 14.2619 9.80335 10.3313 9.80335C6.39846 9.80335 3.20886 12.9855 3.20886 16.9184C3.20886 20.8489 6.39846 24.0385 10.3313 24.0385ZM10.3313 21.3105C7.90515 21.3105 5.93687 19.3446 5.93687 16.9184C5.93687 14.4997 7.90285 12.5314 10.3313 12.5314C12.7477 12.5314 14.7235 14.4973 14.7235 16.9184C14.7235 19.3422 12.7501 21.3105 10.3313 21.3105ZM8.78418 19.9595L10.3336 18.8266L11.8636 19.9595C12.3018 20.2829 12.7699 19.9572 12.5959 19.4277L11.992 17.6105L13.5461 16.4948C13.9504 16.2105 13.8029 15.6299 13.2767 15.6373L11.3619 15.6568L10.7747 13.8299C10.6105 13.3153 10.0447 13.3153 9.88048 13.8299L9.28587 15.6568L7.38594 15.6373C6.85465 15.6299 6.695 16.2082 7.10395 16.4971L8.65571 17.618L8.05418 19.4277C7.8727 19.9423 8.34825 20.2754 8.78418 19.9595Z"
                     fill="currentColor" fill-opacity="0.85" />
       </g>
</svg>