<?xml version="1.0" encoding="UTF-8"?>
<!--Generator: Apple Native CoreSVG 326-->
<!DOCTYPE svg PUBLIC "-//W3C//DTD SVG 1.1//EN" "http://www.w3.org/Graphics/SVG/1.1/DTD/svg11.dtd">
<svg version="1.1" xmlns="http://www.w3.org/2000/svg" xmlns:xlink="http://www.w3.org/1999/xlink"
       viewBox="0 0 23.3317 23.2662">
       <g>
              <rect height="23.2662" opacity="0" width="23.3317" x="0" y="0" />
              <path d="M14.6473 1.82621L21.4549 8.62867L21.5411 8.53508C23.5058 6.57267 23.4144 3.84788 21.4175 1.85333C19.4281-0.128611 16.6959-0.220019 14.7409 1.73262ZM2.39547 18.1223L5.14392 20.8633L5.96921 20.0306C8.2287 17.7286 11.3632 18.7152 14.2449 15.8335L20.2857 9.80018L13.481 2.98796L7.44017 9.03106C4.35921 12.112 5.5101 15.0077 3.23568 17.2821ZM10.4573 12.8354C9.77034 12.1558 9.76749 11.1821 10.4573 10.4997L13.5408 7.40415C14.2307 6.71431 15.1895 6.71716 15.8472 7.40415C16.5565 8.08192 16.5491 9.02348 15.8621 9.71793L12.7637 12.8307C12.0887 13.4907 11.1225 13.508 10.4573 12.8354ZM8.09944 14.0684C7.81108 13.7772 7.86222 13.3562 8.1069 13.1018C8.36136 12.8375 8.77776 12.8105 9.06381 13.1018L10.1593 14.18C10.4752 14.4862 10.4287 14.9072 10.1593 15.1639C9.91464 15.4012 9.50339 15.4528 9.19265 15.1444ZM11.4141 11.8665C11.5389 11.9913 11.7212 12.0223 11.8505 11.8878L14.9289 8.78243C15.0583 8.65306 15.0249 8.50063 14.9151 8.36324C14.7708 8.23847 14.6011 8.21664 14.4643 8.35348L11.4141 11.4283C11.2796 11.5554 11.2796 11.732 11.4141 11.8665ZM0.619582 22.6392C1.43735 23.4765 2.57495 23.4765 3.38756 22.6317L3.86553 22.1486L1.11993 19.3955L0.619582 19.8959C-0.202793 20.7183-0.210254 21.8237 0.619582 22.6392Z"
                     fill="currentColor" fill-opacity="0.85" />
       </g>
</svg>