<?xml version="1.0" encoding="UTF-8"?>
<!--Generator: Apple Native CoreSVG 326-->
<!DOCTYPE svg PUBLIC "-//W3C//DTD SVG 1.1//EN" "http://www.w3.org/Graphics/SVG/1.1/DTD/svg11.dtd">
<svg version="1.1" xmlns="http://www.w3.org/2000/svg" xmlns:xlink="http://www.w3.org/1999/xlink"
       viewBox="0 0 23.3666 23.3001">
       <g>
              <rect height="23.3001" opacity="0" width="23.3666" x="0" y="0" />
              <path d="M2.38842 18.1605L5.13917 20.9113L5.92188 20.1113C8.19575 17.7932 11.3821 18.8168 14.2874 15.9114L21.5173 8.67403C23.5241 6.67244 23.4868 3.88378 21.4502 1.84949C19.4234-0.187096 16.6249-0.2244 14.6257 1.78235L7.38823 9.02723C4.28653 12.1364 5.49898 15.0867 3.19811 17.3606ZM7.27796 14.942C7.6934 13.5948 8.03234 12.2486 9.32098 10.96L16.5584 3.72255C17.4122 2.86645 18.6361 2.8986 19.5197 3.77993C20.4085 4.67103 20.4407 5.9001 19.5921 6.74874L12.3472 13.9862C11.0488 15.2846 9.76122 15.67 8.46797 16.132ZM0.626904 19.9295C-0.207542 20.7565-0.210393 21.855 0.626904 22.6825C1.43721 23.5101 2.56274 23.5049 3.38742 22.6728L3.86539 22.1897L1.11749 19.4389ZM11.3663 11.9552C11.997 12.5808 12.8967 12.5785 13.5297 11.9455L16.4231 9.03244C17.0682 8.37991 17.0808 7.49748 16.4231 6.86909C15.7976 6.22401 14.9077 6.22346 14.2598 6.86909L11.3663 9.77233C10.7258 10.4105 10.7161 11.3199 11.3663 11.9552ZM12.2375 11.0742C12.1104 10.9472 12.1104 10.7729 12.2375 10.6435L15.131 7.73283C15.2511 7.61267 15.4139 7.62298 15.5387 7.73623C15.6767 7.84892 15.6859 8.02725 15.5594 8.16124L12.6757 11.0719C12.5463 11.199 12.3623 11.199 12.2375 11.0742ZM9.3356 12.9352L10.357 13.9469C10.6483 14.2381 11.0297 14.1915 11.2646 13.9641C11.519 13.7171 11.5483 13.3305 11.2646 13.0468L10.2431 12.0351C9.96169 11.7709 9.57282 11.7806 9.3356 12.0351C9.10814 12.2649 9.06162 12.671 9.3356 12.9352ZM14.1999 3.68173L19.6105 9.09231L20.8325 7.87549L15.407 2.44768Z"
                     fill="currentColor" fill-opacity="0.85" />
       </g>
</svg>