<?xml version="1.0" encoding="UTF-8"?>
<!--Generator: Apple Native CoreSVG 326-->
<!DOCTYPE svg PUBLIC "-//W3C//DTD SVG 1.1//EN" "http://www.w3.org/Graphics/SVG/1.1/DTD/svg11.dtd">
<svg version="1.1" xmlns="http://www.w3.org/2000/svg" xmlns:xlink="http://www.w3.org/1999/xlink"
       viewBox="0 0 24.1088 22.042">
       <g>
              <rect height="22.042" opacity="0" width="24.1088" x="0" y="0" />
              <path d="M0 10.8255C0 13.7474 1.6846 15.3752 4.70358 15.3752L7.97288 15.3752C11.4637 15.8105 14.9713 17.0134 18.4331 19.0772L18.4331 16.093C15.1688 14.2048 11.7215 13.1094 7.95905 12.7062L4.70358 12.7062C3.15521 12.7062 2.66899 12.2441 2.66899 10.8255L2.66899 9.49443C2.66899 8.07357 3.15521 7.61379 4.70358 7.61379L7.84877 7.61379C11.6498 7.22778 15.1976 6.10825 18.4331 4.2247L18.4331 1.2204C15.3818 3.17747 11.2919 4.58293 8.04639 4.93734L4.70358 4.93734C1.6846 4.93734 0 6.58288 0 9.49443ZM10.2086 14.3678L7.61258 14.3678L8.49258 18.7593C8.51848 18.9301 8.42816 19.0492 8.3171 19.0895C8.18651 19.1395 8.01048 19.0993 7.92763 18.9215L5.67583 14.1748L2.9104 14.1748L5.42738 19.7642C6.37738 21.8871 8.15951 22.084 9.42759 21.5971C10.5861 21.16 11.3063 20.0252 11.03 18.5921ZM6.08004 5.77652L6.08004 14.5434L8.7588 14.5434L8.7588 5.77652ZM17.4289 17.086C17.4289 18.8595 18.8232 20.2516 20.587 20.2516C22.3704 20.2516 23.7475 18.8595 23.7475 17.086L23.7475 3.15072C23.7475 1.3846 22.3555 0 20.587 0C18.8232 0 17.4289 1.37714 17.4289 3.15072ZM20.1076 17.086L20.1076 3.15072C20.1076 2.87419 20.303 2.66899 20.587 2.66899C20.871 2.66899 21.0711 2.87419 21.0711 3.15072L21.0711 17.086C21.0711 17.37 20.871 17.5677 20.587 17.5677C20.303 17.5677 20.1076 17.37 20.1076 17.086Z"
                     fill="currentColor" fill-opacity="0.85" />
       </g>
</svg>