<?xml version="1.0" encoding="UTF-8"?>
<!--Generator: Apple Native CoreSVG 326-->
<!DOCTYPE svg PUBLIC "-//W3C//DTD SVG 1.1//EN" "http://www.w3.org/Graphics/SVG/1.1/DTD/svg11.dtd">
<svg version="1.1" xmlns="http://www.w3.org/2000/svg" xmlns:xlink="http://www.w3.org/1999/xlink"
       viewBox="0 0 24.1088 22.1925">
       <g>
              <rect height="22.1925" opacity="0" width="24.1088" x="0" y="0" />
              <path d="M4.48721 15.1089L6.10188 15.1089L6.10188 5.13132L4.48721 5.13132C1.60484 5.13132 0 6.6971 0 9.48182L0 10.7658C0 13.5483 1.60484 15.1089 4.48721 15.1089ZM7.73074 15.1186C10.6735 15.4811 14.1827 16.4334 17.3234 17.9979C17.3085 17.8331 17.301 17.6586 17.301 17.4938L17.301 2.69367C17.301 2.53918 17.3085 2.39676 17.3159 2.24973C14.3698 3.74945 10.4592 4.8355 7.73074 5.13132ZM21.3002 20.1495C22.6707 20.1495 23.7475 19.0703 23.7475 17.6896L23.7475 2.46221C23.7475 1.07913 22.6707 0 21.3002 0C19.9195 0 18.8478 1.07913 18.8478 2.46221L18.8478 17.6896C18.8478 19.0703 19.9195 20.1495 21.3002 20.1495ZM8.74697 22.1902C10.1668 22.1902 11.2718 20.9825 10.8176 19.3443L10.2409 17.1725C8.93167 16.859 7.3059 16.6816 4.69344 16.658C4.54004 16.658 4.36414 16.6534 4.17847 16.6459L6.10261 20.3269C6.72518 21.5182 7.37541 22.1902 8.74697 22.1902Z"
                     fill="currentColor" fill-opacity="0.85" />
       </g>
</svg>