<?xml version="1.0" encoding="UTF-8"?>
<!--Generator: Apple Native CoreSVG 326-->
<!DOCTYPE svg PUBLIC "-//W3C//DTD SVG 1.1//EN" "http://www.w3.org/Graphics/SVG/1.1/DTD/svg11.dtd">
<svg version="1.1" xmlns="http://www.w3.org/2000/svg" xmlns:xlink="http://www.w3.org/1999/xlink"
       viewBox="0 0 26.0805 21.0014">
       <g>
              <rect height="21.0014" opacity="0" width="26.0805" x="0" y="0" />
              <path d="M12.8607 21.0014C18.6572 21.0014 23.3588 16.29 23.3588 10.5033C23.3588 4.70679 18.6572 0.0051558 12.8607 0.0051558C7.06425 0.0051558 2.36261 4.70679 2.36261 10.5033L3.9074 10.4958L2.07893 7.76901C1.85553 7.43995 1.51155 7.25616 1.13651 7.25616C0.53808 7.25616 0 7.68288 0 8.33354C0 8.6333 0.0958973 8.91584 0.287692 9.14439L2.58698 11.8527C2.97924 12.3254 3.35998 12.5293 3.8849 12.5293C4.2358 12.5293 4.55794 12.4013 4.85431 12.1956L7.73887 10.1094C8.0507 9.88603 8.23503 9.51736 8.23503 9.13662C8.23503 8.55081 7.77672 8.01734 7.10544 8.01734C6.83036 8.01734 6.56735 8.11323 6.35372 8.32511L4.08895 10.4958L5.41046 10.5033C5.41046 6.38345 8.7409 3.053 12.8607 3.053C16.9805 3.053 20.311 6.38345 20.311 10.5033C20.311 14.6231 16.9805 17.9535 12.8607 17.9535C10.2862 17.9535 8.24504 16.6406 7.10598 15.2288C6.76431 14.8033 6.3015 14.6161 5.86338 14.6161C5.10487 14.6161 4.39059 15.2047 4.39059 16.0493C4.39059 16.4604 4.54848 16.9284 4.97222 17.4285C6.52568 19.2444 9.34486 21.0014 12.8607 21.0014Z"
                     fill="currentColor" fill-opacity="0.85" />
              <path d="M10.2987 13.7064C10.2987 14.1757 10.8318 14.4181 11.2689 14.1716L16.6502 11.0535C17.046 10.8215 17.0437 10.2247 16.6502 9.9926L11.2689 6.85959C10.8462 6.6103 10.2987 6.86069 10.2987 7.32483Z"
                     fill="currentColor" fill-opacity="0.85" />
       </g>
</svg>