<?xml version="1.0" encoding="UTF-8"?>
<!--Generator: Apple Native CoreSVG 326-->
<!DOCTYPE svg PUBLIC "-//W3C//DTD SVG 1.1//EN" "http://www.w3.org/Graphics/SVG/1.1/DTD/svg11.dtd">
<svg version="1.1" xmlns="http://www.w3.org/2000/svg" xmlns:xlink="http://www.w3.org/1999/xlink"
       viewBox="0 0 23.8214 19.0529">
       <g>
              <rect height="19.0529" opacity="0" width="23.8214" x="0" y="0" />
              <path d="M1.37319 4.55188L1.37319 6.6376L22.0869 6.6376L22.0869 4.55188ZM3.64834 19.0529L19.8117 19.0529C22.1386 19.0529 23.4601 17.7336 23.4601 15.416L23.4601 3.65404C23.4601 1.32897 22.1386 0.0149214 19.8117 0.0149214L3.64834 0.0149214C1.32382 0.0149214 0 1.32897 0 3.65404L0 15.416C0 17.7336 1.32382 19.0529 3.64834 19.0529ZM4.05583 16.0332C3.37024 16.0332 3.01964 15.7171 3.01964 14.985L3.01964 4.07767C3.01964 3.34555 3.37024 3.03457 4.05583 3.03457L19.4042 3.03457C20.0875 3.03457 20.4404 3.34555 20.4404 4.07767L20.4404 14.985C20.4404 15.7171 20.0875 16.0332 19.4042 16.0332Z"
                     fill="currentColor" fill-opacity="0.85" />
              <path d="M11.7398 15.0699C12.4059 15.0699 12.8769 14.6139 12.8769 13.965L12.8769 11.7794L12.8108 10.7655L13.0687 11.0326L13.8757 11.9963C14.0371 12.195 14.3271 12.3202 14.6045 12.3202C15.196 12.3202 15.6628 11.8654 15.6628 11.2761C15.6628 10.9918 15.5451 10.7438 15.347 10.56L12.5673 7.92059C12.2951 7.65067 12.0396 7.55247 11.7398 7.55247C11.4377 7.55247 11.177 7.65067 10.9048 7.92059L8.1378 10.56C7.92702 10.7512 7.81675 10.9918 7.81675 11.2761C7.81675 11.8579 8.27385 12.3202 8.86306 12.3202C9.14044 12.3202 9.43275 12.195 9.59646 11.9963L10.4109 11.0326L10.6539 10.7804L10.593 11.7794L10.593 13.965C10.593 14.6139 11.0662 15.0699 11.7398 15.0699Z"
                     fill="currentColor" fill-opacity="0.85" />
       </g>
</svg>