<?xml version="1.0" encoding="UTF-8"?>
<!--Generator: Apple Native CoreSVG 326-->
<!DOCTYPE svg PUBLIC "-//W3C//DTD SVG 1.1//EN" "http://www.w3.org/Graphics/SVG/1.1/DTD/svg11.dtd">
<svg version="1.1" xmlns="http://www.w3.org/2000/svg" xmlns:xlink="http://www.w3.org/1999/xlink"
       viewBox="0 0 18.2182 24.1436">
       <g>
              <rect height="24.1436" opacity="0" width="18.2182" x="0" y="0" />
              <path d="M2.58783 22.0909L13.766 24.0687C16.2431 24.5023 17.8569 23.0257 17.8569 20.3407L17.8569 8.45459C17.8569 5.97745 16.7494 4.86684 14.1478 4.41313L3.339 2.50883C1.40698 2.17055 0 3.3616 0 5.31139L0 19.0832C0 20.7235 0.928038 21.7916 2.58783 22.0909ZM3.75207 19.0758C3.35101 19.0052 3.19124 18.7346 3.19124 18.3961L3.19124 6.4032C3.19124 5.97284 3.46074 5.73902 3.91007 5.82175L13.8085 7.56761C14.3621 7.66363 14.6582 7.92973 14.6582 8.43505L14.6582 20.0926C14.6582 20.6515 14.3121 20.947 13.7647 20.8412ZM14.2218 7.11391L16.9803 7.11391L16.9803 4.16475C16.9803 1.56187 15.1482 0.209969 12.2146 0.732036L2.0617 2.51629L2.83416 5.01521L12.9801 3.26607C13.703 3.13735 14.2218 3.41322 14.2218 4.01662ZM5.40136 10.2305L11.9011 11.3871C12.5167 11.5025 12.9715 11.0925 12.9715 10.4883C12.9715 9.98294 12.7039 9.66079 12.2129 9.57005L5.75972 8.43305C5.13144 8.31762 4.66227 8.71559 4.66227 9.3025C4.66227 9.79351 4.93735 10.157 5.40136 10.2305ZM5.40136 13.8899L11.9011 15.0539C12.5167 15.1693 12.9715 14.7518 12.9715 14.1477C12.9715 13.6423 12.7039 13.3276 12.2129 13.2369L5.75972 12.0999C5.13144 11.9845 4.66227 12.3824 4.66227 12.9693C4.66227 13.4529 4.95227 13.8164 5.40136 13.8899Z"
                     fill="currentColor" fill-opacity="0.85" />
       </g>
</svg>