<?xml version="1.0" encoding="UTF-8"?>
<!--Generator: Apple Native CoreSVG 326-->
<!DOCTYPE svg PUBLIC "-//W3C//DTD SVG 1.1//EN" "http://www.w3.org/Graphics/SVG/1.1/DTD/svg11.dtd">
<svg version="1.1" xmlns="http://www.w3.org/2000/svg" xmlns:xlink="http://www.w3.org/1999/xlink"
       viewBox="0 0 21.365 21.006">
       <g>
              <rect height="21.006" opacity="0" width="21.365" x="0" y="0" />
              <path d="M21.0037 10.5079C21.0037 16.3043 16.302 21.006 10.4981 21.006C4.70394 21.006 0 16.3043 0 10.5079C0 4.7137 4.70394 0.00976562 10.4981 0.00976562C16.302 0.00976562 21.0037 4.7137 21.0037 10.5079ZM5.39427 10.3021C5.39427 11.6678 6.18146 12.8387 7.35764 13.6533C7.46967 13.7366 7.46221 13.8239 7.3887 13.9687C7.19284 14.3455 6.94463 14.7027 6.72463 14.9744C6.46381 15.3064 6.60162 15.6706 7.06346 15.6706C7.60518 15.6706 8.55135 15.2134 9.56237 14.6102C9.69217 14.5321 9.78061 14.5028 9.88057 14.52C10.061 14.5373 10.2884 14.547 10.513 14.547C13.3844 14.547 15.6243 12.6552 15.6243 10.3021C15.6243 7.94158 13.3844 6.05208 10.513 6.05208C7.63423 6.05208 5.39427 7.94158 5.39427 10.3021Z"
                     fill="currentColor" fill-opacity="0.85" />
       </g>
</svg>