<?xml version="1.0" encoding="UTF-8"?>
<!--Generator: Apple Native CoreSVG 326-->
<!DOCTYPE svg PUBLIC "-//W3C//DTD SVG 1.1//EN" "http://www.w3.org/Graphics/SVG/1.1/DTD/svg11.dtd">
<svg version="1.1" xmlns="http://www.w3.org/2000/svg" xmlns:xlink="http://www.w3.org/1999/xlink"
       viewBox="0 0 24.4719 22.4205">
       <g>
              <rect height="22.4205" opacity="0" width="24.4719" x="0" y="0" />
              <path d="M4.09847 22.413C5.33749 22.413 8.01121 21.2606 10.0817 19.8155C10.3372 19.6535 10.5187 19.6122 10.7375 19.6122C10.8496 19.6145 10.9317 19.6168 10.9841 19.6168C18.0699 19.5944 24.1106 16.1948 24.1106 9.80208C24.1106 4.36772 18.7485 0 12.059 0C5.36206 0 0 4.36772 0 9.80208C0 12.9868 1.78207 15.992 5.20781 17.8732C5.48112 18.0334 5.53741 18.1798 5.40706 18.4308C4.75574 19.5157 3.87617 20.5452 3.45285 21.0782C2.86309 21.7978 3.21968 22.413 4.09847 22.413Z"
                     fill="currentColor" fill-opacity="0.85" />
       </g>
</svg>