<?xml version="1.0" encoding="UTF-8"?>
<!--Generator: Apple Native CoreSVG 326-->
<!DOCTYPE svg PUBLIC "-//W3C//DTD SVG 1.1//EN" "http://www.w3.org/Graphics/SVG/1.1/DTD/svg11.dtd">
<svg version="1.1" xmlns="http://www.w3.org/2000/svg" xmlns:xlink="http://www.w3.org/1999/xlink"
       viewBox="0 0 22.3285 19.6111">
       <g>
              <rect height="19.6111" opacity="0" width="22.3285" x="0" y="0" />
              <path d="M13.6768 1.83479L21.1728 14.9335C21.4566 15.4303 21.5835 15.9685 21.5835 16.4872C21.5835 18.1529 20.3166 19.6111 18.4722 19.6111L3.50475 19.6111C1.65062 19.6111 0.383635 18.1529 0.383635 16.4872C0.383635 15.9685 0.518049 15.4326 0.794337 14.9409L3.66422 9.92321L5.73552 12.0106L5.56385 12.3134L3.90302 12.3134L2.56495 14.5656L4.28677 14.5652L3.61175 15.7554C3.55656 15.871 3.53988 16.0158 3.53988 16.1118C3.53988 16.4688 3.79566 16.7798 4.17852 16.7798L17.7938 16.7798C18.1864 16.7798 18.4445 16.4688 18.4445 16.1118C18.4445 16.0233 18.4158 15.8882 18.3606 15.7801L17.6697 14.5615L19.4591 14.561L17.9718 12.3134L16.3951 12.3134L11.5308 3.73338C11.4227 3.52873 11.2032 3.43963 10.991 3.43963C10.7789 3.43963 10.5496 3.52127 10.434 3.72592L8.43558 7.24974L6.37944 5.17591L8.29039 1.83479C8.88027 0.7969 9.93078 0.265614 10.991 0.265614C12.0462 0.265614 13.0743 0.781979 13.6768 1.83479Z"
                     fill="currentColor" fill-opacity="0.85" />
              <path d="M11.929 6.70256L11.929 10.7732L10.048 8.87599L10.048 6.70256C10.048 6.11729 10.4155 5.73764 10.991 5.73764C11.5763 5.73764 11.929 6.11729 11.929 6.70256Z"
                     fill="currentColor" fill-opacity="0.85" />
              <path d="M19.4591 14.561L2.56495 14.5656L3.90302 12.3134L8.2191 12.3134L10.0827 14.1912L11.6264 12.6526L11.2895 12.3134L17.9718 12.3134Z"
                     fill="currentColor" fill-opacity="0.85" />
              <path d="M10.0827 14.1912L11.6264 12.6526L3.42244 4.39132C2.98596 3.93476 2.36976 3.91753 1.89367 4.36894C1.40781 4.85995 1.44227 5.48076 1.89367 5.93962Z"
                     fill="currentColor" fill-opacity="0.85" />
       </g>
</svg>