<?xml version="1.0" encoding="UTF-8"?>
<!--Generator: Apple Native CoreSVG 326-->
<!DOCTYPE svg PUBLIC "-//W3C//DTD SVG 1.1//EN" "http://www.w3.org/Graphics/SVG/1.1/DTD/svg11.dtd">
<svg version="1.1" xmlns="http://www.w3.org/2000/svg" xmlns:xlink="http://www.w3.org/1999/xlink"
       viewBox="0 0 22.4225 19.6111">
       <g>
              <rect height="19.6111" opacity="0" width="22.4225" x="0" y="0" />
              <path d="M21.2245 14.9335C21.5059 15.4303 21.6352 15.9685 21.6352 16.4872C21.6352 18.1529 20.3682 19.6111 18.5215 19.6111L3.55408 19.6111C1.70225 19.6111 0.435268 18.1529 0.435268 16.4872C0.435268 15.9685 0.567377 15.4326 0.845971 14.9409L0.975337 14.7147L21.0993 14.7147ZM13.7284 1.83479L20.1279 13.0173L14.25 13.0151L11.976 10.7296L11.976 6.45302C11.976 5.87521 11.6233 5.4881 11.0329 5.4881C10.4551 5.4881 10.095 5.87521 10.095 6.45302L10.095 8.83909L6.43806 5.16369L8.34203 1.83479C8.9296 0.7969 9.98011 0.265614 11.0427 0.265614C12.0955 0.265614 13.1236 0.781979 13.7284 1.83479ZM6.7877 13.0123L1.95005 13.0105L3.7194 9.91701Z"
                     fill="currentColor" fill-opacity="0.85" />
              <path d="M9.05219 13.1062L12.1126 13.0867L3.48439 4.39132C3.05021 3.93476 2.43401 3.91753 1.95561 4.36894C1.47206 4.85995 1.50652 5.48076 1.95561 5.93962Z"
                     fill="currentColor" fill-opacity="0.85" />
       </g>
</svg>