<?xml version="1.0" encoding="UTF-8"?>
<!--Generator: Apple Native CoreSVG 326-->
<!DOCTYPE svg PUBLIC "-//W3C//DTD SVG 1.1//EN" "http://www.w3.org/Graphics/SVG/1.1/DTD/svg11.dtd">
<svg version="1.1" xmlns="http://www.w3.org/2000/svg" xmlns:xlink="http://www.w3.org/1999/xlink"
       viewBox="0 0 21.365 21.006">
       <g>
              <rect height="21.006" opacity="0" width="21.365" x="0" y="0" />
              <path d="M10.4981 20.9962C16.302 20.9962 21.0037 16.2946 21.0037 10.4981C21.0037 4.70163 16.302 0 10.4981 0C4.70163 0 0 4.70163 0 10.4981C0 16.2946 4.70163 20.9962 10.4981 20.9962ZM10.4981 17.9484C6.37829 17.9484 3.04785 14.6179 3.04785 10.4981C3.04785 6.37829 6.37829 3.04785 10.4981 3.04785C14.6179 3.04785 17.9558 6.37829 17.9558 10.4981C17.9558 14.6179 14.6179 17.9484 10.4981 17.9484Z"
                     fill="currentColor" fill-opacity="0.85" />
              <path d="M8.19439 16.1733L12.7995 16.1733C13.1923 16.1733 13.526 15.8448 13.526 15.4669C13.526 15.0792 13.1946 14.7455 12.7995 14.7455L11.1672 14.7455L11.1672 14.1173C13.1008 13.8554 14.5661 12.4703 14.5661 10.4506L14.5661 9.36991C14.5661 8.98456 14.2399 8.6905 13.8471 8.6905C13.4594 8.6905 13.1206 8.98456 13.1206 9.36991L13.1206 10.4357C13.1206 11.7985 11.943 12.8619 10.4958 12.8619C9.06353 12.8619 7.87334 11.7985 7.87334 10.4357L7.87334 9.36991C7.87334 8.98456 7.53967 8.6905 7.14456 8.6905C6.75921 8.6905 6.42784 8.98456 6.42784 9.36991L6.42784 10.4506C6.42784 12.4703 7.89311 13.8577 9.82901 14.1173L9.82901 14.7455L8.19439 14.7455C7.80674 14.7455 7.46561 15.0792 7.46561 15.4669C7.46561 15.8471 7.80674 16.1733 8.19439 16.1733ZM10.5107 12.0248C11.4454 12.0248 12.296 11.305 12.296 10.2193L12.296 6.57451C12.296 5.49865 11.4454 4.76623 10.5107 4.76623C9.56862 4.76623 8.70311 5.49119 8.70311 6.56705L8.70311 10.2193C8.70311 11.305 9.56862 12.0248 10.5107 12.0248Z"
                     fill="currentColor" fill-opacity="0.85" />
       </g>
</svg>