<?xml version="1.0" encoding="UTF-8"?>
<!--Generator: Apple Native CoreSVG 326-->
<!DOCTYPE svg PUBLIC "-//W3C//DTD SVG 1.1//EN" "http://www.w3.org/Graphics/SVG/1.1/DTD/svg11.dtd">
<svg version="1.1" xmlns="http://www.w3.org/2000/svg" xmlns:xlink="http://www.w3.org/1999/xlink"
       viewBox="0 0 21.365 21.006">
       <g>
              <rect height="21.006" opacity="0" width="21.365" x="0" y="0" />
              <path d="M21.0037 10.4981C21.0037 16.2923 16.302 20.9962 10.4981 20.9962C4.70394 20.9962 0 16.2923 0 10.4981C0 4.70163 4.70394 0 10.4981 0C16.302 0 21.0037 4.70163 21.0037 10.4981ZM6.16375 9.28608L6.16375 10.4432C6.16375 12.5984 7.72776 14.0696 9.78194 14.3464L9.78194 15.0114L8.05143 15.0114C7.63162 15.0114 7.27327 15.3698 7.27327 15.7821C7.27327 16.187 7.63162 16.5356 8.05143 16.5356L12.9546 16.5356C13.3721 16.5356 13.7304 16.1847 13.7304 15.7821C13.7304 15.768 13.73 15.754 13.7282 15.7402C13.6451 15.6868 13.5664 15.6239 13.4935 15.5519L12.9528 15.0114L11.2189 15.0114L11.2189 14.3464C11.5206 14.3055 11.8116 14.2391 12.087 14.1458L10.9121 12.9713C10.7777 12.9926 10.6391 13.002 10.4981 13.002C8.97225 13.002 7.70569 11.8772 7.70569 10.4133L7.70569 9.76577L6.57727 8.63768C6.33091 8.75675 6.16375 8.99905 6.16375 9.28608ZM5.99688 6.00204C5.7465 6.26966 5.74134 6.71184 5.99688 6.95992L14.0438 14.9919C14.2918 15.2474 14.7363 15.2497 15.0016 14.9919C15.252 14.7317 15.2595 14.2993 15.0016 14.0415L6.97199 6.00204C6.70668 5.74419 6.2645 5.75165 5.99688 6.00204ZM13.3003 9.28608L13.3003 10.4133C13.3003 10.6651 13.263 10.9069 13.1909 11.1337L14.3754 12.3179C14.675 11.7793 14.8422 11.1479 14.8422 10.4432L14.8422 9.28608C14.8422 8.87604 14.4913 8.5573 14.0738 8.5573C13.654 8.5573 13.3003 8.87604 13.3003 9.28608ZM9.98017 12.0396L8.66205 10.7219C8.84228 11.3943 9.35915 11.8672 9.98017 12.0396ZM8.58944 6.29834L8.58944 6.53356L12.4062 10.3492C12.4121 10.295 12.4142 10.239 12.4142 10.182L12.4142 6.31327C12.4142 5.16335 11.5143 4.38901 10.513 4.38901C9.50432 4.38901 8.58944 5.15589 8.58944 6.29834Z"
                     fill="currentColor" fill-opacity="0.85" />
       </g>
</svg>