<?xml version="1.0" encoding="UTF-8"?>
<!--Generator: Apple Native CoreSVG 326-->
<!DOCTYPE svg PUBLIC "-//W3C//DTD SVG 1.1//EN" "http://www.w3.org/Graphics/SVG/1.1/DTD/svg11.dtd">
<svg version="1.1" xmlns="http://www.w3.org/2000/svg" xmlns:xlink="http://www.w3.org/1999/xlink"
       viewBox="0 0 22.5319 25.5538">
       <g>
              <rect height="25.5538" opacity="0" width="22.5319" x="0" y="0" />
              <path d="M5.29768 9.99168L5.29768 11.6842C5.29768 15.0068 7.80139 17.1318 11.0815 17.1318C12.1919 17.1318 13.213 16.8894 14.0748 16.4353L16.2612 18.6171C15.1756 19.3027 13.892 19.745 12.4877 19.9194L12.4877 21.0607L15.9466 21.0607C16.7597 21.0607 17.4699 21.721 17.4699 22.5415C17.4699 23.3397 16.7597 24.0126 15.9466 24.0126L6.2239 24.0126C5.41087 24.0126 4.69318 23.3397 4.69318 22.5415C4.69318 21.721 5.41087 21.0607 6.2239 21.0607L9.68512 21.0607L9.68512 19.9194C5.42494 19.3905 2.27871 16.3991 2.27871 11.7727L2.27871 9.99168C2.27871 9.17865 2.95163 8.55795 3.77958 8.55795C4.60008 8.55795 5.29768 9.17865 5.29768 9.99168ZM12.6656 15.0291C12.1732 15.2414 11.634 15.353 11.0815 15.353C8.99643 15.353 7.08867 13.7711 7.08867 11.3553L7.08867 9.4641ZM19.8941 9.99168L19.8941 11.7727C19.8941 13.0446 19.6562 14.193 19.2153 15.1953L16.7775 12.7603C16.8432 12.4193 16.8752 12.0594 16.8752 11.6842L16.8752 9.99168C16.8752 9.17865 17.563 8.55795 18.391 8.55795C19.2189 8.55795 19.8941 9.17865 19.8941 9.99168ZM15.052 4.65049L15.052 11.0368L7.30753 3.30105C7.86039 1.66004 9.41427 0.645307 11.0815 0.645307C13.1615 0.645307 15.052 2.23983 15.052 4.65049Z"
                     fill="currentColor" fill-opacity="0.85" />
              <path d="M19.6768 20.058C20.0145 20.3883 20.5602 20.3958 20.8905 20.058C21.211 19.7255 21.2282 19.1821 20.8905 18.8444L3.67914 1.65025C3.34887 1.31483 2.79344 1.31252 2.4557 1.65025C2.1352 1.98053 2.1352 2.54342 2.4557 2.86392Z"
                     fill="currentColor" fill-opacity="0.85" />
       </g>
</svg>