<?xml version="1.0" encoding="UTF-8"?>
<!--Generator: Apple Native CoreSVG 326-->
<!DOCTYPE svg PUBLIC "-//W3C//DTD SVG 1.1//EN" "http://www.w3.org/Graphics/SVG/1.1/DTD/svg11.dtd">
<svg version="1.1" xmlns="http://www.w3.org/2000/svg" xmlns:xlink="http://www.w3.org/1999/xlink"
       viewBox="0 0 24.7414 24.2632">
       <g>
              <rect height="24.2632" opacity="0" width="24.7414" x="0" y="0" />
              <path d="M6.76461 11.1274C6.76461 15.7538 9.91084 18.7452 14.171 19.2741L14.171 20.4154L10.7121 20.4154C9.89907 20.4154 9.17908 21.0757 9.17908 21.8962C9.17908 22.6943 9.89907 23.3673 10.7121 23.3673L20.4325 23.3673C21.2456 23.3673 21.9581 22.6943 21.9581 21.8962C21.9581 21.0757 21.2456 20.4154 20.4325 20.4154L16.9736 20.4154L16.9736 19.2741C21.2315 18.7452 24.38 15.7538 24.38 11.1274L24.38 9.34637C24.38 8.53334 23.7071 7.91264 22.8769 7.91264C22.0489 7.91264 21.3611 8.53334 21.3611 9.34637L21.3611 11.0389C21.3611 14.3615 18.8574 16.4865 15.5674 16.4865C12.2873 16.4865 9.78358 14.3615 9.78358 11.0389L9.78358 9.34637C9.78358 8.53334 9.09344 7.91264 8.26548 7.91264C7.43753 7.91264 6.76461 8.53334 6.76461 9.34637ZM15.5674 14.7077C17.6474 14.7077 19.5379 13.1258 19.5379 10.71L19.5379 4.00518C19.5379 1.59453 17.6474 0 15.5674 0C13.4823 0 11.5769 1.58707 11.5769 3.99772L11.5769 10.71C11.5769 13.1258 13.4823 14.7077 15.5674 14.7077Z"
                     fill="currentColor" fill-opacity="0.85" />
              <path d="M1.89429 5.83966C2.93448 5.83966 3.78627 4.98787 3.78627 3.94768C3.78627 2.90518 2.93448 2.05339 1.89429 2.05339C0.851793 2.05339 0 2.90518 0 3.94768C0 4.98787 0.851793 5.83966 1.89429 5.83966Z"
                     fill="currentColor" fill-opacity="0.85" />
              <path d="M1.89429 11.2908C2.93448 11.2908 3.78627 10.439 3.78627 9.39884C3.78627 8.35634 2.93448 7.50455 1.89429 7.50455C0.851793 7.50455 0 8.35634 0 9.39884C0 10.439 0.851793 11.2908 1.89429 11.2908Z"
                     fill="currentColor" fill-opacity="0.85" />
              <path d="M1.89429 16.7466C2.93448 16.7466 3.78627 15.8948 3.78627 14.8546C3.78627 13.8121 2.93448 12.9603 1.89429 12.9603C0.851793 12.9603 0 13.8121 0 14.8546C0 15.8948 0.851793 16.7466 1.89429 16.7466Z"
                     fill="currentColor" fill-opacity="0.85" />
              <path d="M1.89429 22.1978C2.93448 22.1978 3.78627 21.346 3.78627 20.3058C3.78627 19.2633 2.93448 18.4115 1.89429 18.4115C0.851793 18.4115 0 19.2633 0 20.3058C0 21.346 0.851793 22.1978 1.89429 22.1978Z"
                     fill="currentColor" fill-opacity="0.85" />
       </g>
</svg>