<?xml version="1.0" encoding="UTF-8"?>
<!--Generator: Apple Native CoreSVG 326-->
<!DOCTYPE svg PUBLIC "-//W3C//DTD SVG 1.1//EN" "http://www.w3.org/Graphics/SVG/1.1/DTD/svg11.dtd">
<svg version="1.1" xmlns="http://www.w3.org/2000/svg" xmlns:xlink="http://www.w3.org/1999/xlink"
       viewBox="0 0 25.8704 17.4053">
       <g>
              <rect height="17.4053" opacity="0" width="25.8704" x="0" y="0" />
              <path d="M2.92162 17.4053L22.5725 17.4053C24.3076 17.4053 25.509 16.1815 25.509 14.4389L25.509 2.97615C25.509 1.23362 24.3076 0.0172263 22.5725 0.0172263L2.92162 0.0172263C1.19402 0.0172263 0 1.23362 0 2.97615L0 14.4389C0 16.1815 1.19402 17.4053 2.92162 17.4053ZM3.26196 14.6468C2.96942 14.6468 2.76598 14.4388 2.76598 14.1393L2.76598 3.28325C2.76598 2.97633 2.96942 2.77575 3.26196 2.77575L22.3291 2.77575C22.5769 2.77575 22.7431 2.93903 22.7431 3.19373L22.7431 14.2214C22.7431 14.4761 22.5769 14.6468 22.3291 14.6468ZM4.81391 13.2557L13.901 13.2557C14.4055 13.2557 14.7369 12.9242 14.7369 12.4273L14.7369 4.98781C14.7369 4.49086 14.4055 4.15937 13.901 4.15937L4.81391 4.15937C4.30203 4.15937 3.97801 4.49086 3.97801 4.98781L3.97801 12.4273C3.97801 12.9242 4.30203 13.2557 4.81391 13.2557ZM5.81061 11.6047C5.70889 11.6047 5.62155 11.5197 5.62155 11.4157L5.62155 5.99943C5.62155 5.89541 5.70889 5.81037 5.81061 5.81037L12.8969 5.81037C13.0061 5.81037 13.0934 5.89541 13.0934 5.99943L13.0934 11.4157C13.0934 11.5197 13.0061 11.6047 12.8969 11.6047ZM15.9818 15.0211L17.7148 15.0211L17.7148 2.38421L15.9818 2.38421ZM16.861 12.7488L23.3349 12.7488L23.3349 11.0157L16.861 11.0157ZM18.8029 6.03383L21.3939 6.03383C21.5811 6.03383 21.7436 5.87363 21.7436 5.69391L21.7436 4.50905C21.7436 4.32187 21.5811 4.15937 21.3939 4.15937L18.8029 4.15937C18.6082 4.15937 18.4532 4.32187 18.4532 4.50905L18.4532 5.69391C18.4532 5.87363 18.6082 6.03383 18.8029 6.03383ZM19.1378 7.88851L21.059 7.88851C21.4564 7.88851 21.7436 7.60366 21.7436 7.20625C21.7436 6.80652 21.4564 6.52168 21.059 6.52168L19.1378 6.52168C18.7329 6.52168 18.4532 6.80652 18.4532 7.20625C18.4532 7.60366 18.7329 7.88851 19.1378 7.88851ZM19.1378 9.76272L21.059 9.76272C21.4564 9.76272 21.7436 9.48303 21.7436 9.07815C21.7436 8.68073 21.4564 8.40335 21.059 8.40335L19.1378 8.40335C18.7329 8.40335 18.4532 8.68073 18.4532 9.07815C18.4532 9.48303 18.7329 9.76272 19.1378 9.76272Z"
                     fill="currentColor" fill-opacity="0.85" />
       </g>
</svg>