<?xml version="1.0" encoding="UTF-8"?>
<!--Generator: Apple Native CoreSVG 326-->
<!DOCTYPE svg PUBLIC "-//W3C//DTD SVG 1.1//EN" "http://www.w3.org/Graphics/SVG/1.1/DTD/svg11.dtd">
<svg version="1.1" xmlns="http://www.w3.org/2000/svg" xmlns:xlink="http://www.w3.org/1999/xlink"
       viewBox="0 0 21.1113 20.7471">
       <g>
              <rect height="20.7471" opacity="0" width="21.1113" x="0" y="0" />
              <path d="M10.3715 15.849C13.4015 15.849 15.8542 13.3964 15.8542 10.3664C15.8542 7.33866 13.4015 4.88603 10.3715 4.88603C7.34381 4.88603 4.89119 7.33866 4.89119 10.3664C4.89119 13.3964 7.34381 15.849 10.3715 15.849ZM10.3761 2.71764C11.1267 2.71764 11.7326 2.10428 11.7326 1.35882C11.7326 0.605894 11.1267 0 10.3761 0C9.63067 0 9.01731 0.605894 9.01731 1.35882C9.01731 2.10428 9.63067 2.71764 10.3761 2.71764ZM14.8862 3.92803C15.6368 3.92803 16.2427 3.31467 16.2427 2.56921C16.2427 1.81629 15.6368 1.21039 14.8862 1.21039C14.1407 1.21039 13.5274 1.81629 13.5274 2.56921C13.5274 3.31467 14.1407 3.92803 14.8862 3.92803ZM18.1905 7.23002C18.9337 7.23002 19.5396 6.62413 19.5396 5.8712C19.5396 5.11828 18.9337 4.51239 18.1905 4.51239C17.4376 4.51239 16.8317 5.11828 16.8317 5.8712C16.8317 6.62413 17.4376 7.23002 18.1905 7.23002ZM19.3934 11.7275C20.1441 11.7275 20.75 11.1141 20.75 10.3687C20.75 9.61574 20.1441 9.00985 19.3934 9.00985C18.648 9.00985 18.0346 9.61574 18.0346 10.3687C18.0346 11.1141 18.648 11.7275 19.3934 11.7275ZM18.1905 16.2249C18.9337 16.2249 19.5396 15.6116 19.5396 14.8661C19.5396 14.1132 18.9337 13.5073 18.1905 13.5073C17.4376 13.5073 16.8317 14.1132 16.8317 14.8661C16.8317 15.6116 17.4376 16.2249 18.1905 16.2249ZM14.8862 19.5269C15.6368 19.5269 16.2427 18.9211 16.2427 18.1681C16.2427 17.4227 15.6368 16.8093 14.8862 16.8093C14.1407 16.8093 13.5274 17.4227 13.5274 18.1681C13.5274 18.9211 14.1407 19.5269 14.8862 19.5269ZM10.3761 20.7373C11.1267 20.7373 11.7326 20.1217 11.7326 19.3785C11.7326 18.6256 11.1267 18.0197 10.3761 18.0197C9.63067 18.0197 9.01731 18.6256 9.01731 19.3785C9.01731 20.1217 9.63067 20.7373 10.3761 20.7373ZM5.86605 19.5269C6.61667 19.5269 7.22487 18.9211 7.22487 18.1681C7.22487 17.4227 6.61667 16.8093 5.86605 16.8093C5.12058 16.8093 4.50723 17.4227 4.50723 18.1681C4.50723 18.9211 5.12058 19.5269 5.86605 19.5269ZM2.56921 16.2249C3.31237 16.2249 3.92803 15.6116 3.92803 14.8661C3.92803 14.1132 3.31237 13.5073 2.56921 13.5073C1.81629 13.5073 1.21039 14.1132 1.21039 14.8661C1.21039 15.6116 1.81629 16.2249 2.56921 16.2249ZM1.35882 11.7275C2.10428 11.7275 2.71764 11.1141 2.71764 10.3687C2.71764 9.61574 2.10428 9.00985 1.35882 9.00985C0.605894 9.00985 0 9.61574 0 10.3687C0 11.1141 0.605894 11.7275 1.35882 11.7275ZM2.56921 7.23002C3.31237 7.23002 3.92803 6.62413 3.92803 5.8712C3.92803 5.11828 3.31237 4.51239 2.56921 4.51239C1.81629 4.51239 1.21039 5.11828 1.21039 5.8712C1.21039 6.62413 1.81629 7.23002 2.56921 7.23002ZM5.86605 3.92803C6.61667 3.92803 7.22487 3.31467 7.22487 2.56921C7.22487 1.81629 6.61667 1.21039 5.86605 1.21039C5.12058 1.21039 4.50723 1.81629 4.50723 2.56921C4.50723 3.31467 5.12058 3.92803 5.86605 3.92803Z"
                     fill="currentColor" fill-opacity="0.85" />
       </g>
</svg>