<?xml version="1.0" encoding="UTF-8"?>
<!--Generator: Apple Native CoreSVG 326-->
<!DOCTYPE svg PUBLIC "-//W3C//DTD SVG 1.1//EN" "http://www.w3.org/Graphics/SVG/1.1/DTD/svg11.dtd">
<svg version="1.1" xmlns="http://www.w3.org/2000/svg" xmlns:xlink="http://www.w3.org/1999/xlink"
       viewBox="0 0 17.9842 24.2198">
       <g>
              <rect height="24.2198" opacity="0" width="17.9842" x="0" y="0" />
              <path d="M0 11.1056C0 15.7321 3.156 18.7235 7.41387 19.2524L7.41387 20.3937L3.9475 20.3937C3.13446 20.3937 2.42194 21.054 2.42194 21.8745C2.42194 22.6726 3.13446 23.3456 3.9475 23.3456L13.6679 23.3456C14.4884 23.3456 15.201 22.6726 15.201 21.8745C15.201 21.054 14.4884 20.3937 13.6679 20.3937L10.209 20.3937L10.209 19.2524C14.4692 18.7235 17.6229 15.7321 17.6229 11.1056L17.6229 9.32466C17.6229 8.51162 16.9425 7.89093 16.1146 7.89093C15.2941 7.89093 14.5965 8.51162 14.5965 9.32466L14.5965 11.0172C14.5965 14.3398 12.1002 16.4648 8.8126 16.4648C5.52268 16.4648 3.02644 14.3398 3.02644 11.0172L3.02644 9.32466C3.02644 8.51162 2.33114 7.89093 1.50088 7.89093C0.672919 7.89093 0 8.51162 0 9.32466ZM4.48946 10.4258C4.48946 13.0972 6.32273 14.9552 8.8126 14.9552C11.2927 14.9552 13.1334 13.0972 13.1334 10.4258L13.1334 4.52197C13.1334 1.87069 11.2927 0 8.8126 0C6.32273 0 4.48946 1.87069 4.48946 4.52197ZM7.54574 10.5601L7.54574 4.39514C7.54574 3.55414 7.9804 2.80547 8.8126 2.80547C9.6448 2.80547 10.0697 3.53922 10.0697 4.39514L10.0697 10.5601C10.0697 11.4086 9.6448 12.1423 8.8126 12.1423C7.9804 12.1423 7.54574 11.4086 7.54574 10.5601Z"
                     fill="currentColor" fill-opacity="0.85" />
       </g>
</svg>