<?xml version="1.0" encoding="UTF-8"?>
<!--Generator: Apple Native CoreSVG 326-->
<!DOCTYPE svg PUBLIC "-//W3C//DTD SVG 1.1//EN" "http://www.w3.org/Graphics/SVG/1.1/DTD/svg11.dtd">
<svg version="1.1" xmlns="http://www.w3.org/2000/svg" xmlns:xlink="http://www.w3.org/1999/xlink"
       viewBox="0 0 22.5319 25.5538">
       <g>
              <rect height="25.5538" opacity="0" width="22.5319" x="0" y="0" />
              <path d="M5.29768 9.99168L5.29768 11.6842C5.29768 15.0068 7.80139 17.1318 11.0815 17.1318C12.1919 17.1318 13.213 16.8894 14.0748 16.4353L16.2612 18.6171C15.1756 19.3027 13.892 19.745 12.4877 19.9194L12.4877 21.0607L15.9466 21.0607C16.7597 21.0607 17.4699 21.721 17.4699 22.5415C17.4699 23.3397 16.7597 24.0126 15.9466 24.0126L6.2239 24.0126C5.41087 24.0126 4.69318 23.3397 4.69318 22.5415C4.69318 21.721 5.41087 21.0607 6.2239 21.0607L9.68512 21.0607L9.68512 19.9194C5.42494 19.3905 2.27871 16.3991 2.27871 11.7727L2.27871 9.99168C2.27871 9.17865 2.95163 8.55795 3.77958 8.55795C4.60008 8.55795 5.29768 9.17865 5.29768 9.99168ZM12.8886 15.2517C12.3474 15.4934 11.7372 15.6223 11.0815 15.6223C8.60144 15.6223 6.76586 13.7642 6.76586 11.0928L6.76586 9.14198ZM19.8941 9.99168L19.8941 11.7727C19.8941 13.0446 19.6562 14.193 19.2153 15.1953L16.7775 12.7603C16.8432 12.4193 16.8752 12.0594 16.8752 11.6842L16.8752 9.99168C16.8752 9.17865 17.563 8.55795 18.391 8.55795C19.2189 8.55795 19.8941 9.17865 19.8941 9.99168ZM15.4047 5.18899L15.4047 11.0928C15.4047 11.1894 15.4023 11.2848 15.3924 11.3768L12.3484 8.33621L12.3484 5.06216C12.3484 4.20625 11.9137 3.47249 11.0815 3.47249C10.2493 3.47249 9.82214 4.22117 9.82214 5.06216L9.82214 5.81281L7.17679 3.17046C7.84568 1.63588 9.29671 0.667023 11.0815 0.667023C13.5714 0.667023 15.4047 2.53772 15.4047 5.18899Z"
                     fill="currentColor" fill-opacity="0.85" />
              <path d="M19.6768 20.058C20.0145 20.3883 20.5602 20.3958 20.8905 20.058C21.211 19.7255 21.2282 19.1821 20.8905 18.8444L3.67914 1.65025C3.34887 1.31483 2.79344 1.31252 2.4557 1.65025C2.1352 1.98053 2.1352 2.54342 2.4557 2.86392Z"
                     fill="currentColor" fill-opacity="0.85" />
       </g>
</svg>