<?xml version="1.0" encoding="UTF-8"?>
<!--Generator: Apple Native CoreSVG 326-->
<!DOCTYPE svg PUBLIC "-//W3C//DTD SVG 1.1//EN" "http://www.w3.org/Graphics/SVG/1.1/DTD/svg11.dtd">
<svg version="1.1" xmlns="http://www.w3.org/2000/svg" xmlns:xlink="http://www.w3.org/1999/xlink"
       viewBox="0 0 19.3993 19.0529">
       <g>
              <rect height="19.0529" opacity="0" width="19.3993" x="0" y="0" />
              <path d="M3.64834 19.0379L15.3896 19.0379C17.7164 19.0379 19.0379 17.7262 19.0379 15.4011L19.0379 3.63912C19.0379 1.32151 17.7164 0 15.3896 0L3.64834 0C1.32382 0 0 1.32151 0 3.63912L0 15.4011C0 17.7262 1.32382 19.0379 3.64834 19.0379ZM4.05583 16.0183C3.37024 16.0183 3.01964 15.7096 3.01964 14.9775L3.01964 4.07021C3.01964 3.33809 3.37024 3.0271 4.05583 3.0271L14.9821 3.0271C15.6654 3.0271 16.0183 3.33809 16.0183 4.07021L16.0183 14.9775C16.0183 15.7096 15.6654 16.0183 14.9821 16.0183Z"
                     fill="currentColor" fill-opacity="0.85" />
              <path d="M7.30451 15.0027L11.753 15.0027C12.1308 15.0027 12.4594 14.6817 12.4594 14.3262C12.4594 13.946 12.1332 13.6272 11.753 13.6272L10.1729 13.6272L10.1729 13.0214C12.0491 12.7669 13.4598 11.4266 13.4598 9.47405L13.4598 8.43065C13.4598 8.06022 13.1411 7.77362 12.7632 7.77362C12.383 7.77362 12.0666 8.06022 12.0666 8.43065L12.0666 9.45913C12.0666 10.7846 10.9286 11.8107 9.52385 11.8107C8.13634 11.8107 6.99092 10.7846 6.99092 9.45913L6.99092 8.43065C6.99092 8.06022 6.66701 7.77362 6.29428 7.77362C5.91409 7.77362 5.59765 8.06022 5.59765 8.43065L5.59765 9.47405C5.59765 11.4266 7.01069 12.7693 8.8869 13.0214L8.8869 13.6272L7.30451 13.6272C6.92432 13.6272 6.59811 13.946 6.59811 14.3262C6.59811 14.6914 6.92432 15.0027 7.30451 15.0027ZM9.53877 10.996C10.4436 10.996 11.2569 10.2985 11.2569 9.25023L11.2569 5.72478C11.2569 4.68623 10.4436 3.98365 9.53877 3.98365C8.62651 3.98365 7.79085 4.67877 7.79085 5.71732L7.79085 9.25023C7.79085 10.2985 8.62651 10.996 9.53877 10.996Z"
                     fill="currentColor" fill-opacity="0.85" />
       </g>
</svg>