<?xml version="1.0" encoding="UTF-8"?>
<!--Generator: Apple Native CoreSVG 326-->
<!DOCTYPE svg PUBLIC "-//W3C//DTD SVG 1.1//EN" "http://www.w3.org/Graphics/SVG/1.1/DTD/svg11.dtd">
<svg version="1.1" xmlns="http://www.w3.org/2000/svg" xmlns:xlink="http://www.w3.org/1999/xlink"
       viewBox="0 0 25.2371 20.7338">
       <g>
              <rect height="20.7338" opacity="0" width="25.2371" x="0" y="0" />
              <path d="M24.8758 12.3846C24.8758 5.93383 19.9627 0.631336 13.6785 0.00415235C13.2541-0.040066 12.9302 0.274072 12.9302 0.698483L12.9302 4.13058C12.9302 4.48379 13.1829 4.74109 13.5286 4.79046C17.2465 5.32405 20.1044 8.51741 20.1044 12.3846C20.1044 14.1648 19.4989 15.8157 18.4419 17.1359C18.2306 17.4138 18.2329 17.7555 18.4764 18.0012L20.9223 20.4523C21.2117 20.7567 21.6557 20.7417 21.9256 20.4328C23.7735 18.2551 24.8758 15.452 24.8758 12.3846Z"
                     fill="currentColor" fill-opacity="0.85" />
              <path d="M0 12.3846C0 15.4543 1.1023 18.2574 2.94273 20.4276C3.21265 20.7366 3.65429 20.7417 3.9535 20.4448L6.39194 17.9938C6.63541 17.748 6.63772 17.4063 6.42639 17.1284C5.38201 15.8157 4.77139 14.1648 4.77139 12.3846C4.77139 8.51741 7.63678 5.32405 11.3472 4.79046C11.7004 4.74109 11.9456 4.48379 11.9456 4.13058L11.9456 0.698483C11.9456 0.274072 11.6217-0.040066 11.1973 0.00415235C4.92054 0.631336 0 5.93383 0 12.3846Z"
                     fill="currentColor" fill-opacity="0.85" />
              <path d="M9.41279 15.6802C9.89404 15.6802 10.2041 15.3288 10.2041 14.8568L10.2041 11.7819C10.2041 11.2486 10.4363 10.705 10.9817 10.705C11.4787 10.705 11.7172 11.1181 11.7172 11.6949L11.7172 14.8568C11.7172 15.3012 12.0118 15.6802 12.4614 15.6802C12.8985 15.6802 13.1931 15.3012 13.1931 14.8568L13.1931 11.756C13.1931 11.2617 13.373 10.705 13.9511 10.705C14.5194 10.705 14.6837 11.1623 14.6837 11.7231L14.6837 14.8568C14.6837 15.3162 15.0157 15.6802 15.4774 15.6802C15.9442 15.6802 16.2687 15.3162 16.2687 14.8568L16.2687 11.2305C16.2687 10.1241 15.7264 9.12585 14.597 9.12585C13.8289 9.12585 13.2309 9.6239 13.035 10.2673L12.9983 10.2673C12.8076 9.53316 12.3566 9.12585 11.6081 9.12585C10.8636 9.12585 10.3604 9.71859 10.2167 10.3574L10.1553 10.3574L10.1553 9.94417C10.1553 9.44515 9.82798 9.13046 9.38349 9.13046C8.91662 9.13046 8.61171 9.47499 8.61171 9.94417L8.61171 14.8568C8.61171 15.3139 8.9367 15.6802 9.41279 15.6802ZM9.99212 17.5592C10.1082 17.5592 10.1915 17.5035 10.2398 17.3874L14.8044 7.40983C14.8337 7.3564 14.8383 7.31788 14.8383 7.27421C14.8383 7.10589 14.709 7.0237 14.5855 7.0237C14.4418 7.0237 14.3815 7.10358 14.3355 7.19784L9.77321 17.1754C9.74907 17.2139 9.7393 17.265 9.7393 17.311C9.7393 17.4793 9.86856 17.5592 9.99212 17.5592Z"
                     fill="currentColor" fill-opacity="0.85" />
       </g>
</svg>