<?xml version="1.0" encoding="UTF-8"?>
<!--Generator: Apple Native CoreSVG 326-->
<!DOCTYPE svg PUBLIC "-//W3C//DTD SVG 1.1//EN" "http://www.w3.org/Graphics/SVG/1.1/DTD/svg11.dtd">
<svg version="1.1" xmlns="http://www.w3.org/2000/svg" xmlns:xlink="http://www.w3.org/1999/xlink"
       viewBox="0 0 24.3303 21.006">
       <g>
              <rect height="21.006" opacity="0" width="24.3303" x="0" y="0" />
              <path d="M11.9856 20.9962C17.7821 20.9962 22.4837 16.2946 22.4837 10.4981C22.4837 4.70163 17.7821 0 11.9856 0C6.18916 0 1.48753 4.70163 1.48753 10.4981L4.53538 10.4981C4.53538 6.37829 7.86582 3.04785 11.9856 3.04785C16.1055 3.04785 19.4359 6.37829 19.4359 10.4981C19.4359 14.6179 16.1055 17.9484 11.9856 17.9484C9.86874 17.9484 8.05458 17.1034 6.64712 15.6524C5.97135 15.0132 5.0498 14.8117 4.35614 15.4438C3.73423 16.0162 3.72149 16.9286 4.44894 17.7463C6.08398 19.7011 9.21457 20.9962 11.9856 20.9962ZM0.808605 8.39698C-0.0138912 8.39698-0.212055 9.15901 0.22849 9.72826L2.75918 13.0277C3.05907 13.4322 3.60988 13.4224 3.91492 13.0277L6.43585 9.72596C6.86894 9.15901 6.66847 8.39698 5.8655 8.39698Z"
                     fill="currentColor" fill-opacity="0.85" />
              <path d="M8.96169 13.8458C9.4527 13.8458 9.75531 13.4996 9.75531 13.0201L9.75531 9.94517C9.75531 9.41188 9.99266 8.87574 10.5306 8.87574C11.0299 8.87574 11.2758 9.28372 11.2758 9.86571L11.2758 13.0201C11.2758 13.472 11.563 13.8458 12.0103 13.8458C12.4571 13.8458 12.7443 13.472 12.7443 13.0201L12.7443 9.92903C12.7443 9.4325 12.9242 8.87574 13.5023 8.87574C14.0683 8.87574 14.2349 9.32793 14.2349 9.89392L14.2349 13.0201C14.2349 13.4795 14.5669 13.8458 15.0263 13.8458C15.4954 13.8458 15.8273 13.4795 15.8273 13.0201L15.8273 9.40127C15.8273 8.2972 15.2851 7.29893 14.1482 7.29893C13.3801 7.29893 12.7873 7.79467 12.5863 8.43295L12.5547 8.43295C12.3588 7.70623 11.9055 7.29893 11.1593 7.29893C10.4125 7.29893 9.91902 7.88935 9.77539 8.53049L9.70649 8.53049L9.70649 8.11724C9.70649 7.61822 9.37919 7.30123 8.9347 7.30123C8.46783 7.30123 8.17037 7.6406 8.17037 8.11724L8.17037 13.0201C8.17037 13.4772 8.49537 13.8458 8.96169 13.8458ZM9.54332 15.7323C9.65711 15.7323 9.7427 15.6766 9.79098 15.5605L14.3556 5.5806C14.3849 5.52947 14.3872 5.49095 14.3872 5.44728C14.3872 5.27665 14.2602 5.19677 14.1344 5.19677C13.9982 5.19677 13.9327 5.27435 13.8867 5.36861L9.32211 15.3485C9.30773 15.387 9.29051 15.4381 9.29051 15.4841C9.29051 15.6524 9.41746 15.7323 9.54332 15.7323Z"
                     fill="currentColor" fill-opacity="0.85" />
       </g>
</svg>