<?xml version="1.0" encoding="UTF-8"?>
<!--Generator: Apple Native CoreSVG 326-->
<!DOCTYPE svg PUBLIC "-//W3C//DTD SVG 1.1//EN" "http://www.w3.org/Graphics/SVG/1.1/DTD/svg11.dtd">
<svg version="1.1" xmlns="http://www.w3.org/2000/svg" xmlns:xlink="http://www.w3.org/1999/xlink"
       viewBox="0 0 21.365 21.006">
       <g>
              <rect height="21.006" opacity="0" width="21.365" x="0" y="0" />
              <path d="M21.0037 10.4981C21.0037 16.2923 16.302 20.9962 10.4981 20.9962C4.70394 20.9962 0 16.2923 0 10.4981C0 4.70163 4.70394 0 10.4981 0C16.302 0 21.0037 4.70163 21.0037 10.4981ZM12.5301 5.03615L11.0808 8.21053C10.866 7.49084 10.3852 7.08705 9.62521 7.08705C8.82904 7.08705 8.29369 7.71939 8.13513 8.40244L8.07369 8.40244L8.07369 7.9622C8.07369 7.43104 7.71424 7.09682 7.24506 7.09682C6.74605 7.09682 6.41644 7.45342 6.41644 7.9622L6.41644 13.19C6.41644 13.6867 6.77358 14.0778 7.27206 14.0778C7.79521 14.0778 8.12252 13.7017 8.12252 13.19L8.12252 9.92333C8.12252 9.35559 8.37709 8.785 8.94198 8.785C9.47581 8.785 9.73894 9.21536 9.73894 9.83411L9.73894 11.1172L7.66232 15.6712C7.64564 15.7097 7.62841 15.7683 7.62841 15.8142C7.62841 15.9998 7.75767 16.0722 7.90076 16.0722C8.02201 16.0722 8.10759 16.0165 8.15818 15.8929L9.73894 12.4444L9.73894 13.19C9.73894 13.6816 10.0433 14.0778 10.5228 14.0778C10.9943 14.0778 11.3136 13.6816 11.3136 13.19L11.3136 9.89974C11.3136 9.36876 11.5033 8.785 12.1233 8.785C12.7162 8.785 12.8927 9.26188 12.8927 9.86231L12.8927 13.19C12.8927 13.689 13.2493 14.0778 13.7483 14.0778C14.2496 14.0778 14.5988 13.689 14.5988 13.19L14.5988 9.33236C14.5988 8.15939 14.0146 7.08705 12.8088 7.08705C12.5647 7.08705 12.3401 7.13588 12.1373 7.22147L13.0334 5.25791C13.0552 5.20678 13.0576 5.15334 13.0576 5.10967C13.0576 4.92928 12.9231 4.84939 12.795 4.84939C12.6513 4.84939 12.5835 4.92697 12.5301 5.03615Z"
                     fill="currentColor" fill-opacity="0.85" />
       </g>
</svg>