<?xml version="1.0" encoding="UTF-8"?>
<!--Generator: Apple Native CoreSVG 326-->
<!DOCTYPE svg PUBLIC "-//W3C//DTD SVG 1.1//EN" "http://www.w3.org/Graphics/SVG/1.1/DTD/svg11.dtd">
<svg version="1.1" xmlns="http://www.w3.org/2000/svg" xmlns:xlink="http://www.w3.org/1999/xlink"
       viewBox="0 0 19.3993 19.0529">
       <g>
              <rect height="19.0529" opacity="0" width="19.3993" x="0" y="0" />
              <path d="M3.64834 19.0379L15.3896 19.0379C17.7164 19.0379 19.0379 17.7262 19.0379 15.4011L19.0379 3.63912C19.0379 1.32151 17.7164 0 15.3896 0L3.64834 0C1.32382 0 0 1.32151 0 3.63912L0 15.4011C0 17.7262 1.32382 19.0379 3.64834 19.0379ZM4.05583 16.0183C3.37024 16.0183 3.01964 15.7096 3.01964 14.9775L3.01964 4.07021C3.01964 3.33809 3.37024 3.0271 4.05583 3.0271L14.9821 3.0271C15.6654 3.0271 16.0183 3.33809 16.0183 4.07021L16.0183 14.9775C16.0183 15.7096 15.6654 16.0183 14.9821 16.0183Z"
                     fill="currentColor" fill-opacity="0.85" />
              <path d="M6.4999 12.8693C6.99092 12.8693 7.29353 12.523 7.29353 12.0435L7.29353 8.96861C7.29353 8.43532 7.52572 7.89918 8.06877 7.89918C8.56815 7.89918 8.80659 8.30715 8.80659 8.88915L8.80659 12.0435C8.80659 12.4955 9.1012 12.8693 9.55084 12.8693C9.98787 12.8693 10.2825 12.4955 10.2825 12.0435L10.2825 8.95247C10.2825 8.45594 10.4624 7.89918 11.0405 7.89918C11.6088 7.89918 11.7732 8.35137 11.7732 8.91735L11.7732 12.0435C11.7732 12.5029 12.1051 12.8693 12.5645 12.8693C13.0337 12.8693 13.3581 12.5029 13.3581 12.0435L13.3581 8.4247C13.3581 7.32064 12.8158 6.32236 11.6864 6.32236C10.9183 6.32236 10.3203 6.81811 10.1245 7.45639L10.0854 7.45639C9.89701 6.72967 9.44603 6.32236 8.69747 6.32236C7.95298 6.32236 7.45724 6.91279 7.30615 7.55392L7.2447 7.55392L7.2447 7.14068C7.2447 6.64166 6.9174 6.32467 6.47291 6.32467C6.00604 6.32467 5.70112 6.66404 5.70112 7.14068L5.70112 12.0435C5.70112 12.5006 6.02612 12.8693 6.4999 12.8693ZM7.08154 14.7557C7.19533 14.7557 7.28091 14.7 7.32919 14.5839L11.8938 4.60404C11.9231 4.55291 11.9277 4.51439 11.9277 4.47072C11.9277 4.30009 11.7985 4.22021 11.6726 4.22021C11.529 4.22021 11.4709 4.29779 11.4249 4.39205L6.86032 14.3719C6.83849 14.4104 6.82872 14.4616 6.82872 14.5075C6.82872 14.6759 6.95798 14.7557 7.08154 14.7557Z"
                     fill="currentColor" fill-opacity="0.85" />
       </g>
</svg>