<?xml version="1.0" encoding="UTF-8"?>
<!--Generator: Apple Native CoreSVG 326-->
<!DOCTYPE svg PUBLIC "-//W3C//DTD SVG 1.1//EN" "http://www.w3.org/Graphics/SVG/1.1/DTD/svg11.dtd">
<svg version="1.1" xmlns="http://www.w3.org/2000/svg" xmlns:xlink="http://www.w3.org/1999/xlink"
       viewBox="0 0 29.9515 23.8067">
       <g>
              <rect height="23.8067" opacity="0" width="29.9515" x="0" y="0" />
              <path d="M29.5902 11.875L29.5902 22.109C29.5902 23.1371 28.9365 23.8067 27.9049 23.8067L8.46759 23.8067C7.38779 23.8067 6.71123 23.144 6.71123 22.1274L6.71123 22.0597L27.3531 22.0597C27.6553 22.0597 27.8408 21.8788 27.8408 21.5668L27.8408 10.2182C28.9082 10.22 29.5902 10.8599 29.5902 11.875Z"
                     fill="currentColor" fill-opacity="0.85" />
              <path d="M26.4784 8.59812L26.4784 18.9249C26.4784 20.0052 25.7874 20.6972 24.726 20.6972L5.06654 20.6972C3.93967 20.6972 3.22581 20.0121 3.22581 18.9433L3.22581 18.7957L24.0794 18.7957C24.389 18.7957 24.5746 18.6148 24.5746 18.3028L24.5746 6.86657L24.6423 6.86657C25.7645 6.86657 26.4784 7.5316 26.4784 8.59812Z"
                     fill="currentColor" fill-opacity="0.85" />
              <path d="M8.95193 1.66283L8.95193 2.53276L14.2249 2.53276L14.2249 1.66283C14.2249 0.648111 14.8147 0.0485861 15.8294 0.0485861L17.3533 0.0485861C18.3606 0.0485861 18.9452 0.648111 18.9452 1.66283L18.9452 2.53276L19.7873 2.53276C21.8559 2.53276 23.1396 3.7722 23.1396 5.79138L23.1396 13.7193C23.1396 16.4832 22.3492 17.3584 19.4838 17.3584L3.64834 17.3584C1.32382 17.3584 0 16.0392 0 13.7193L0 6.17188C0 3.85427 1.32382 2.53276 3.64834 2.53276L4.23167 2.53276L4.23167 1.66283C4.23167 0.648111 4.82143 0.0485861 5.82122 0.0485861L7.35261 0.0485861C8.36963 0.0485861 8.95193 0.648111 8.95193 1.66283ZM15.3702 8.14617L15.3702 9.04564L14.4759 9.04564C13.978 9.04564 13.5806 9.45052 13.5806 9.94614C13.5806 10.4366 13.978 10.8438 14.4759 10.8438L15.3702 10.8438L15.3702 11.726C15.3702 12.2188 15.7728 12.6237 16.2857 12.6237C16.7761 12.6237 17.1759 12.2188 17.1759 11.726L17.1759 10.8438L18.0581 10.8438C18.5486 10.8438 18.9557 10.4366 18.9557 9.94614C18.9557 9.45052 18.5486 9.04564 18.0581 9.04564L17.1759 9.04564L17.1759 8.14617C17.1759 7.6534 16.7687 7.25083 16.2782 7.25083C15.7728 7.25083 15.3702 7.6534 15.3702 8.14617ZM5.36576 9.04564C4.86553 9.04564 4.46065 9.45052 4.46065 9.93868C4.46065 10.4291 4.86553 10.8363 5.36576 10.8363L8.43956 10.8363C8.95241 10.8363 9.34467 10.4291 9.34467 9.93868C9.34467 9.45052 8.95241 9.04564 8.43956 9.04564Z"
                     fill="currentColor" fill-opacity="0.85" />
       </g>
</svg>