<?xml version="1.0" encoding="UTF-8"?>
<!--Generator: Apple Native CoreSVG 326-->
<!DOCTYPE svg PUBLIC "-//W3C//DTD SVG 1.1//EN" "http://www.w3.org/Graphics/SVG/1.1/DTD/svg11.dtd">
<svg version="1.1" xmlns="http://www.w3.org/2000/svg" xmlns:xlink="http://www.w3.org/1999/xlink"
       viewBox="0 0 29.9515 32.182">
       <g>
              <rect height="32.182" opacity="0" width="29.9515" x="0" y="0" />
              <path d="M29.5902 16.0626L29.5902 26.2966C29.5902 27.3247 28.9365 27.9944 27.9049 27.9944L8.46759 27.9944C7.38779 27.9944 6.71123 27.3316 6.71123 26.315L6.71123 26.2473L27.3531 26.2473C27.6553 26.2473 27.8408 26.0664 27.8408 25.7544L27.8408 14.4059C28.9082 14.4076 29.5902 15.0476 29.5902 16.0626Z"
                     fill="currentColor" fill-opacity="0.85" />
              <path d="M26.4784 12.7858L26.4784 23.1125C26.4784 24.1929 25.7874 24.8849 24.726 24.8849L5.06654 24.8849C3.93967 24.8849 3.22581 24.1998 3.22581 23.1309L3.22581 22.9834L24.0794 22.9834C24.389 22.9834 24.5746 22.8024 24.5746 22.4905L24.5746 11.0542L24.6423 11.0542C25.7645 11.0542 26.4784 11.7192 26.4784 12.7858Z"
                     fill="currentColor" fill-opacity="0.85" />
              <path d="M7.78108 5.85046L7.78108 6.72039L8.71598 6.72039L8.78551 9.74003L4.05583 9.74003C3.37485 9.74003 3.01964 10.051 3.01964 10.7883L3.01964 17.4782C3.01964 18.2154 3.37024 18.5264 4.05583 18.5264L19.2679 18.5264C19.9474 18.5264 20.1176 18.3315 20.1176 17.6796L20.1176 10.8107C20.1176 10.1331 19.7176 9.74003 19.0717 9.74003L14.4302 9.74003L14.4941 6.72039L15.3516 6.72039L15.3516 5.85046C15.3516 4.83574 15.9339 4.23622 16.9509 4.23622L18.0093 4.23622C19.0114 4.23622 19.6011 4.83574 19.6011 5.85046L19.6011 6.72039L19.7873 6.72039C21.8559 6.72039 23.1396 7.95983 23.1396 9.97901L23.1396 17.9069C23.1396 20.6708 22.3492 21.5461 19.4838 21.5461L3.64834 21.5461C1.32382 21.5461 0 20.2269 0 17.9069L0 10.3595C0 8.10905 1.30144 6.72039 3.38722 6.72039L3.53152 6.72039L3.53152 5.85046C3.53152 4.83574 4.11382 4.23622 5.12107 4.23622L6.18176 4.23622C7.19878 4.23622 7.78108 4.83574 7.78108 5.85046ZM17.2942 12.7554L17.2942 13.4807L18.0344 13.4807C18.3889 13.4807 18.6921 13.7742 18.6921 14.1338C18.6921 14.4807 18.3889 14.7765 18.0344 14.7765L17.2942 14.7765L17.2942 15.5093C17.2942 15.8735 17.0231 16.1498 16.6686 16.1498C16.2919 16.1498 16.0156 15.8735 16.0156 15.5093L16.0156 14.7765L15.273 14.7765C14.9186 14.7765 14.6153 14.4807 14.6153 14.1338C14.6153 13.7742 14.9163 13.4807 15.273 13.4807L16.0156 13.4807L16.0156 12.7554C16.0156 12.3837 16.2919 12.1051 16.6612 12.1051C17.0231 12.1051 17.2942 12.3837 17.2942 12.7554ZM8.20713 14.1263C8.20713 14.4807 7.91877 14.7765 7.56666 14.7765L5.30886 14.7765C4.95445 14.7765 4.66324 14.4807 4.66324 14.1263C4.66324 13.7742 4.95445 13.4807 5.30886 13.4807L7.56666 13.4807C7.91877 13.4807 8.20713 13.7742 8.20713 14.1263Z"
                     fill="currentColor" fill-opacity="0.85" />
              <path d="M11.6118 12.1437C12.3434 12.1437 12.8465 11.7055 12.8585 10.9417L13.0286 2.96135C13.0481 2.11308 12.4968 1.54679 11.5968 1.54679C10.6917 1.54679 10.1478 2.11308 10.1673 2.96135L10.3598 10.9566C10.3868 11.7055 10.86 12.1437 11.6118 12.1437ZM11.6118 16.3694C12.4509 16.3694 13.1333 15.7266 13.1333 14.9363C13.1333 14.1241 12.4607 13.5181 11.6118 13.5181C10.7651 13.5181 10.1 14.1241 10.1 14.9363C10.1 15.7266 10.7749 16.3694 11.6118 16.3694Z"
                     fill="currentColor" fill-opacity="0.85" />
       </g>
</svg>