<?xml version="1.0" encoding="UTF-8"?>
<!--Generator: Apple Native CoreSVG 326-->
<!DOCTYPE svg PUBLIC "-//W3C//DTD SVG 1.1//EN" "http://www.w3.org/Graphics/SVG/1.1/DTD/svg11.dtd">
<svg version="1.1" xmlns="http://www.w3.org/2000/svg" xmlns:xlink="http://www.w3.org/1999/xlink"
       viewBox="0 0 23.788 23.4308">
       <g>
              <rect height="23.4308" opacity="0" width="23.788" x="0" y="0" />
              <path d="M14.2954 1.23766L22.1825 9.12477C23.8292 10.779 23.839 12.6398 22.1894 14.2894L14.2908 22.1903C12.6463 23.8325 10.7804 23.8302 9.12615 22.176L1.2442 14.294C-0.410017 12.6398-0.414627 10.7813 1.22982 9.12938L9.13822 1.23075C10.7827-0.413701 12.6486-0.409091 14.2954 1.23766ZM8.19932 10.4156C7.44179 10.4156 6.88933 10.9668 6.88933 11.7301C6.88933 12.491 7.4464 13.0399 8.19932 13.0399L15.2394 13.0399C15.9924 13.0399 16.5397 12.491 16.5397 11.7301C16.5397 10.9668 15.9993 10.4156 15.2394 10.4156Z"
                     fill="currentColor" fill-opacity="0.85" />
       </g>
</svg>