<?xml version="1.0" encoding="UTF-8"?>
<!--Generator: Apple Native CoreSVG 326-->
<!DOCTYPE svg PUBLIC "-//W3C//DTD SVG 1.1//EN" "http://www.w3.org/Graphics/SVG/1.1/DTD/svg11.dtd">
<svg version="1.1" xmlns="http://www.w3.org/2000/svg" xmlns:xlink="http://www.w3.org/1999/xlink"
       viewBox="0 0 23.8214 25.9401">
       <g>
              <rect height="25.9401" opacity="0" width="23.8214" x="0" y="0" />
              <path d="M7.78108 5.96904L7.78108 6.84413L8.86155 6.84413L8.9348 9.86377L4.05583 9.86377C3.37485 9.86377 3.01964 10.1748 3.01964 10.9069L3.01964 17.8059C3.01964 18.5455 3.37024 18.8541 4.05583 18.8541L19.3945 18.8541C20.0852 18.8541 20.4381 18.5455 20.4381 17.8059L20.4381 10.9367C20.4381 10.2494 20.0405 9.86377 19.3945 9.86377L14.5655 9.86377L14.6303 6.84413L15.6744 6.84413L15.6744 5.96904C15.6744 4.95948 16.2567 4.36226 17.2714 4.36226L18.3321 4.36226C19.3393 4.36226 19.9216 4.95948 19.9216 5.96904L19.9216 6.84413L20.1078 6.84413C22.1787 6.84413 23.4601 8.08357 23.4601 10.0953L23.4601 18.2347C23.4601 20.5523 22.1362 21.8738 19.8117 21.8738L3.64834 21.8738C1.32382 21.8738 0 20.5546 0 18.2347L0 10.4832C0 8.23279 1.30144 6.84413 3.38722 6.84413L3.53152 6.84413L3.53152 5.96904C3.53152 4.95948 4.11382 4.36226 5.12107 4.36226L6.18176 4.36226C7.19878 4.36226 7.78108 4.95948 7.78108 5.96904ZM17.5404 13.0756L17.5404 13.8084L18.2806 13.8084C18.6351 13.8084 18.9383 14.0968 18.9383 14.4638C18.9383 14.8108 18.6351 15.1043 18.2806 15.1043L17.5404 15.1043L17.5404 15.8371C17.5404 16.1938 17.2693 16.4775 16.9074 16.4775C16.5381 16.4775 16.2543 16.1938 16.2543 15.8371L16.2543 15.1043L15.5192 15.1043C15.1648 15.1043 14.8615 14.8108 14.8615 14.4638C14.8615 14.0968 15.1625 13.8084 15.5192 13.8084L16.2543 13.8084L16.2543 13.0756C16.2543 12.7114 16.5381 12.4277 16.8999 12.4277C17.2693 12.4277 17.5404 12.7114 17.5404 13.0756ZM8.20713 14.454C8.20713 14.8085 7.91877 15.1043 7.56666 15.1043L5.30886 15.1043C4.95445 15.1043 4.66324 14.8085 4.66324 14.454C4.66324 14.0945 4.95445 13.8084 5.30886 13.8084L7.56666 13.8084C7.91877 13.8084 8.20713 14.0945 8.20713 14.454Z"
                     fill="currentColor" fill-opacity="0.85" />
              <path d="M11.7346 16.6896C12.5738 16.6896 13.2487 16.0543 13.2487 15.264C13.2487 14.4443 12.5836 13.8406 11.7346 13.8406C10.888 13.8406 10.2154 14.4443 10.2154 15.264C10.2154 16.0543 10.8978 16.6896 11.7346 16.6896ZM11.7496 12.4714C12.4887 12.4714 12.9843 12.0332 12.9963 11.2694L13.1664 3.28908C13.186 2.4408 12.6346 1.87452 11.7346 1.87452C10.837 1.87452 10.2856 2.4408 10.3126 3.28908L10.4976 11.2843C10.5246 12.0332 11.0053 12.4714 11.7496 12.4714Z"
                     fill="currentColor" fill-opacity="0.85" />
       </g>
</svg>