<?xml version="1.0" encoding="UTF-8"?>
<!--Generator: Apple Native CoreSVG 326-->
<!DOCTYPE svg PUBLIC "-//W3C//DTD SVG 1.1//EN" "http://www.w3.org/Graphics/SVG/1.1/DTD/svg11.dtd">
<svg version="1.1" xmlns="http://www.w3.org/2000/svg" xmlns:xlink="http://www.w3.org/1999/xlink"
       viewBox="0 0 23.8214 19.0529">
       <g>
              <rect height="19.0529" opacity="0" width="23.8214" x="0" y="0" />
              <path d="M23.4601 3.65404L23.4601 15.416C23.4601 17.7336 22.1386 19.0529 19.8117 19.0529L3.64834 19.0529C1.32382 19.0529 0 17.7336 0 15.416L0 3.65404C0 1.32897 1.32382 0.0149214 3.64834 0.0149214L19.8117 0.0149214C22.1386 0.0149214 23.4601 1.32897 23.4601 3.65404ZM8.21975 8.24383C7.46221 8.24383 6.90976 8.79507 6.90976 9.5583C6.90976 10.3192 7.46682 10.8682 8.21975 10.8682L15.2599 10.8682C16.0128 10.8682 16.5601 10.3192 16.5601 9.5583C16.5601 8.79507 16.0197 8.24383 15.2599 8.24383Z"
                     fill="currentColor" fill-opacity="0.85" />
       </g>
</svg>