<?xml version="1.0" encoding="UTF-8"?>
<!--Generator: Apple Native CoreSVG 326-->
<!DOCTYPE svg PUBLIC "-//W3C//DTD SVG 1.1//EN" "http://www.w3.org/Graphics/SVG/1.1/DTD/svg11.dtd">
<svg version="1.1" xmlns="http://www.w3.org/2000/svg" xmlns:xlink="http://www.w3.org/1999/xlink"
       viewBox="0 0 23.8214 17.8075">
       <g>
              <rect height="17.8075" opacity="0" width="23.8214" x="0" y="0" />
              <path d="M4.18327 16.5311L19.2837 16.5311C20.56 16.5311 21.4733 15.6184 21.4733 14.3179L21.4733 14.0564C20.7756 14.0518 20.0798 13.7657 19.5875 13.322C19.2234 12.9809 18.9942 12.9906 18.6227 13.322C18.1263 13.7772 17.404 14.0564 16.6433 14.0564C15.89 14.0564 15.1752 13.7772 14.6639 13.322C14.3073 12.9906 14.0781 12.9809 13.714 13.322C13.2171 13.7703 12.5075 14.0564 11.73 14.0564C10.9526 14.0564 10.243 13.7703 9.74603 13.322C9.38198 12.9809 9.15506 12.9906 8.7887 13.322C8.28483 13.7772 7.57752 14.0564 6.81677 14.0564C6.04856 14.0564 5.3361 13.7772 4.83738 13.322C4.46587 12.9906 4.23665 12.9809 3.87259 13.322C3.38024 13.7657 2.68676 14.0518 1.98679 14.0564L1.98679 14.3179C1.98679 15.6184 2.90003 16.5311 4.18327 16.5311ZM3.64834 17.8075L19.8117 17.8075C22.1386 17.8075 23.4601 16.486 23.4601 14.1683L23.4601 6.40771C23.4601 4.08494 22.1386 2.77089 19.8117 2.77089L18.9739 2.77089L18.9739 1.79057C18.9739 0.675345 18.3279 0.00976562 17.2178 0.00976562L15.9362 0.00976562C14.8359 0.00976562 14.1898 0.675345 14.1898 1.79057L14.1898 2.77089L9.27255 2.77089L9.27255 1.79057C9.27255 0.675345 8.62651 0.00976562 7.51644 0.00976562L6.24224 0.00976562C5.13217 0.00976562 4.48612 0.675345 4.48612 1.79057L4.48612 2.77089L3.64834 2.77089C1.32382 2.77089 0 4.08264 0 6.40771L0 14.1683C0 16.4883 1.32382 17.8075 3.64834 17.8075ZM3.01964 13.7396L3.01964 6.83133C3.01964 6.09921 3.37024 5.79053 4.05583 5.79053L19.4042 5.79053C20.0875 5.79053 20.4404 6.09921 20.4404 6.83133L20.4404 13.7396C20.4404 14.4768 20.0875 14.7878 19.4042 14.7878L4.05583 14.7878C3.37024 14.7878 3.01964 14.4768 3.01964 13.7396Z"
                     fill="currentColor" fill-opacity="0.85" />
              <path d="M5.83329 10.8762L9.07742 10.8762C9.58972 10.8762 9.99921 10.4644 9.99921 9.95208C9.99921 9.44724 9.58972 9.03775 9.07742 9.03775L5.83329 9.03775C5.32099 9.03775 4.9092 9.44724 4.9092 9.95208C4.9092 10.4644 5.32099 10.8762 5.83329 10.8762ZM16.0236 12.7297C16.5285 12.7297 16.9305 12.3202 16.9305 11.8154L16.9305 10.8762L17.8697 10.8762C18.3745 10.8762 18.7938 10.4644 18.7938 9.95208C18.7938 9.44724 18.3745 9.03775 17.8697 9.03775L16.9305 9.03775L16.9305 8.0911C16.9305 7.58626 16.521 7.167 16.0162 7.167C15.5039 7.167 15.0921 7.58626 15.0921 8.0911L15.0921 9.03775L14.1454 9.03775C13.6406 9.03775 13.2311 9.44724 13.2311 9.95208C13.2311 10.4644 13.6406 10.8762 14.1454 10.8762L15.0921 10.8762L15.0921 11.8154C15.0921 12.3202 15.5039 12.7297 16.0236 12.7297Z"
                     fill="currentColor" fill-opacity="0.85" />
       </g>
</svg>