<?xml version="1.0" encoding="UTF-8"?>
<!--Generator: Apple Native CoreSVG 326-->
<!DOCTYPE svg PUBLIC "-//W3C//DTD SVG 1.1//EN" "http://www.w3.org/Graphics/SVG/1.1/DTD/svg11.dtd">
<svg version="1.1" xmlns="http://www.w3.org/2000/svg" xmlns:xlink="http://www.w3.org/1999/xlink"
       viewBox="0 0 23.788 23.4308">
       <g>
              <rect height="23.4308" opacity="0" width="23.788" x="0" y="0" />
              <path d="M1.2442 14.294L9.12615 22.176C10.7804 23.8302 12.6463 23.8325 14.2908 22.1903L22.1894 14.2894C23.839 12.6398 23.8292 10.779 22.1825 9.12477L14.2954 1.23766C12.6486-0.409091 10.7827-0.413701 9.13822 1.23075L1.22982 9.12938C-0.414627 10.7813-0.410017 12.6398 1.2442 14.294ZM3.67517 12.4416C3.18095 11.9473 3.1488 11.4984 3.67748 10.9697L10.9763 3.67094C11.505 3.14226 11.9539 3.17441 12.4481 3.66864L19.7515 10.972C20.2434 11.464 20.2779 11.9227 19.7492 12.4439L12.4504 19.7501C11.9217 20.2713 11.4705 20.2444 10.9786 19.7547Z"
                     fill="currentColor" fill-opacity="0.85" />
              <path d="M8.4135 12.951L15.0253 12.951C15.7288 12.951 16.2514 12.4416 16.2514 11.7301C16.2514 11.0162 15.7357 10.5046 15.0253 10.5046L8.4135 10.5046C7.69788 10.5046 7.18503 11.0162 7.18503 11.7301C7.18503 12.4416 7.70995 12.951 8.4135 12.951Z"
                     fill="currentColor" fill-opacity="0.85" />
       </g>
</svg>