<?xml version="1.0" encoding="UTF-8"?>
<!--Generator: Apple Native CoreSVG 326-->
<!DOCTYPE svg PUBLIC "-//W3C//DTD SVG 1.1//EN" "http://www.w3.org/Graphics/SVG/1.1/DTD/svg11.dtd">
<svg version="1.1" xmlns="http://www.w3.org/2000/svg" xmlns:xlink="http://www.w3.org/1999/xlink"
       viewBox="0 0 29.6545 16.9324">
       <g>
              <rect height="16.9324" opacity="0" width="29.6545" x="0" y="0" />
              <path d="M24.712 4.69357L24.4489 7.09233C24.3708 7.7869 24.6965 8.07878 25.246 8.07878L27.2456 8.07878C28.4267 8.07878 29.2932 8.94756 29.2932 10.1189L29.2932 14.6475C29.2932 16.4161 28.1469 16.9181 26.5172 16.4851C25.3706 16.1898 24.2405 16.103 22.6993 16.103L7.38779 16.103C2.81268 16.103 0 13.4599 0 9.04267C0 4.28432 2.86557 1.07707 7.55514 0.537655C11.051 0.141875 16.9859 0.00230491 20.0472 0C23.2481 0 25.0233 1.81835 24.712 4.69357ZM7.87837 3.44769C4.77363 3.78324 2.90027 5.90875 2.90027 9.04267C2.90027 11.6787 4.61168 13.2326 7.38087 13.2326L18.8741 13.2326C20.4024 13.2326 20.8593 12.8458 21.0076 11.4961L21.8089 4.36111C21.9353 3.27052 21.5054 2.90027 20.0472 2.90027C17.0181 2.90027 11.2531 3.06398 7.87837 3.44769Z"
                     fill="currentColor" fill-opacity="0.85" />
       </g>
</svg>