<?xml version="1.0" encoding="UTF-8"?>
<!--Generator: Apple Native CoreSVG 326-->
<!DOCTYPE svg PUBLIC "-//W3C//DTD SVG 1.1//EN" "http://www.w3.org/Graphics/SVG/1.1/DTD/svg11.dtd">
<svg version="1.1" xmlns="http://www.w3.org/2000/svg" xmlns:xlink="http://www.w3.org/1999/xlink"
       viewBox="0 0 29.6545 16.9324">
       <g>
              <rect height="16.9324" opacity="0" width="29.6545" x="0" y="0" />
              <path d="M21.7306 0.537655C26.4253 1.07707 29.2932 4.28432 29.2932 9.04267C29.2932 13.4507 26.4713 16.103 21.8979 16.103L6.59392 16.103C5.05271 16.103 3.91517 16.1898 2.77368 16.4851C1.13651 16.9181 0 16.4161 0 14.6475L0 10.1189C0 8.94756 0.866473 8.07878 2.04763 8.07878L4.04491 8.07878C4.58918 8.07878 4.91496 7.7869 4.84199 7.09233L4.57887 4.69357C4.26242 1.81835 6.0451 0 9.24599 0C12.2975 0.00230491 18.2399 0.141875 21.7306 0.537655ZM7.48199 4.36111L8.27816 11.4961C8.43386 12.8458 8.89079 13.2326 10.4168 13.2326L21.9123 13.2326C24.6746 13.2326 26.3929 11.6717 26.3929 9.04267C26.3929 5.90875 24.5121 3.78324 21.4148 3.44769C18.0326 3.06398 12.2751 2.90027 9.24599 2.90027C7.78551 2.90027 7.35789 3.27052 7.48199 4.36111Z"
                     fill="currentColor" fill-opacity="0.85" />
       </g>
</svg>