<?xml version="1.0" encoding="UTF-8"?>
<!--Generator: Apple Native CoreSVG 326-->
<!DOCTYPE svg PUBLIC "-//W3C//DTD SVG 1.1//EN" "http://www.w3.org/Graphics/SVG/1.1/DTD/svg11.dtd">
<svg version="1.1" xmlns="http://www.w3.org/2000/svg" xmlns:xlink="http://www.w3.org/1999/xlink"
       viewBox="0 0 35.5003 16.9324">
       <g>
              <rect height="16.9324" opacity="0" width="35.5003" x="0" y="0" />
              <path d="M24.3484 0.537655C27.8685 0.942551 30.3609 2.85059 31.3847 5.78968L28.1211 5.78968C27.2858 4.48185 25.8737 3.64748 24.0251 3.44769C20.6504 3.06398 14.8854 2.90027 11.8563 2.90027C10.3982 2.90027 9.96822 3.27052 10.0946 4.36111L10.896 11.4961C11.0442 12.8458 11.5011 13.2326 13.0294 13.2326L24.5226 13.2326C26.535 13.2326 27.9932 12.4042 28.6327 10.9348L31.7013 10.9348C30.9987 14.2005 28.3827 16.103 24.5157 16.103L9.20426 16.103C7.66305 16.103 6.53297 16.1898 5.38402 16.4851C3.75662 16.9181 2.61034 16.4161 2.61034 14.6475L2.61034 10.1189C2.61034 8.94756 3.47681 8.07878 4.65797 8.07878L6.65525 8.07878C7.19951 8.07878 7.53276 7.7869 7.45463 7.09233L7.19151 4.69357C6.87276 1.81835 8.65544 0 11.8563 0C14.9176 0.00230491 20.8502 0.141875 24.3484 0.537655Z"
                     fill="currentColor" fill-opacity="0.85" />
              <path d="M35.5003 5.37868L35.5003 4.25375C35.5003 3.67539 35.0397 3.205 34.4613 3.205C33.883 3.205 33.4149 3.67539 33.4149 4.25375L33.4149 5.37868C33.4149 6.56808 32.5925 7.33417 31.325 7.33417L25.5724 7.33417L25.5724 6.52338C25.5724 5.68026 24.9097 5.33682 24.2015 5.82674L21.5711 7.65237C20.995 8.05209 21.0025 8.73842 21.5711 9.13068L24.2211 10.9638C24.9022 11.4342 25.5724 11.0953 25.5724 10.2597L25.5724 9.39029L31.325 9.39029C33.8538 9.39029 35.5003 7.81499 35.5003 5.37868Z"
                     fill="currentColor" fill-opacity="0.85" />
       </g>
</svg>