<?xml version="1.0" encoding="UTF-8"?>
<!--Generator: Apple Native CoreSVG 326-->
<!DOCTYPE svg PUBLIC "-//W3C//DTD SVG 1.1//EN" "http://www.w3.org/Graphics/SVG/1.1/DTD/svg11.dtd">
<svg version="1.1" xmlns="http://www.w3.org/2000/svg" xmlns:xlink="http://www.w3.org/1999/xlink"
       viewBox="0 0 36.223 16.9324">
       <g>
              <rect height="16.9324" opacity="0" width="36.223" x="0" y="0" />
              <path d="M28.3013 4.69357L28.0457 7.09233C27.9675 7.7869 28.2933 8.07878 28.8451 8.07878L30.8349 8.07878C32.0235 8.07878 32.8825 8.94756 32.8825 10.1189L32.8825 14.6475C32.8825 16.4161 31.7437 16.9181 30.1088 16.4851C28.9673 16.1898 27.8373 16.103 26.296 16.103L10.9846 16.103C7.1072 16.103 4.50021 14.2089 3.79909 10.9422L6.86732 10.9422C7.50437 12.4096 8.95695 13.2326 10.9777 13.2326L22.4709 13.2326C23.9917 13.2326 24.4561 12.8458 24.6043 11.4961L25.4057 4.36111C25.5321 3.27052 25.1021 2.90027 23.644 2.90027C20.6149 2.90027 14.8499 3.06398 11.4752 3.44769C9.62302 3.64787 8.2091 4.48504 7.37437 5.79714L4.11333 5.79714C5.13535 2.85373 7.62894 0.942884 11.1519 0.537655C14.6501 0.141875 20.5827 0.00230491 23.644 0C26.8449 0 28.6201 1.81835 28.3013 4.69357Z"
                     fill="currentColor" fill-opacity="0.85" />
              <path d="M0 5.38614C0 7.82245 1.63905 9.39775 4.17532 9.39775L9.92788 9.39775L9.92788 10.2671C9.92788 11.1028 10.5981 11.4491 11.2792 10.9712L13.9292 9.13814C14.4978 8.75334 14.5053 8.05955 13.9292 7.65983L11.2913 5.8342C10.5832 5.34428 9.92788 5.69518 9.92788 6.5383L9.92788 7.34163L4.17532 7.34163C2.90779 7.34163 2.08542 6.57554 2.08542 5.38614L2.08542 4.26121C2.08542 3.68285 1.61733 3.21993 1.03898 3.21993C0.460622 3.21993 0 3.68285 0 4.26121Z"
                     fill="currentColor" fill-opacity="0.85" />
       </g>
</svg>