<?xml version="1.0" encoding="UTF-8"?>
<!--Generator: Apple Native CoreSVG 326-->
<!DOCTYPE svg PUBLIC "-//W3C//DTD SVG 1.1//EN" "http://www.w3.org/Graphics/SVG/1.1/DTD/svg11.dtd">
<svg version="1.1" xmlns="http://www.w3.org/2000/svg" xmlns:xlink="http://www.w3.org/1999/xlink"
       viewBox="0 0 21.365 21.006">
       <g>
              <rect height="21.006" opacity="0" width="21.365" x="0" y="0" />
              <path d="M21.0037 10.5079C21.0037 16.3043 16.302 21.006 10.4981 21.006C4.70394 21.006 0 16.3043 0 10.5079C0 4.7137 4.70394 0.00976562 10.4981 0.00976562C16.302 0.00976562 21.0037 4.7137 21.0037 10.5079ZM6.36088 15.6645C6.36088 16.0028 6.63772 16.2773 6.96623 16.2773C7.30451 16.2773 7.58134 16.0028 7.58134 15.6645C7.58134 15.336 7.30451 15.0591 6.96623 15.0591C6.63772 15.0591 6.36088 15.336 6.36088 15.6645ZM8.7369 15.6645C8.7369 16.0028 9.01143 16.2773 9.34225 16.2773C9.68053 16.2773 9.95506 16.0028 9.95506 15.6645C9.95506 15.336 9.68053 15.0591 9.34225 15.0591C9.01143 15.0591 8.7369 15.336 8.7369 15.6645ZM11.0934 15.6645C11.0934 16.0028 11.3702 16.2773 11.701 16.2773C12.0393 16.2773 12.3138 16.0028 12.3138 15.6645C12.3138 15.336 12.0393 15.0591 11.701 15.0591C11.3702 15.0591 11.0934 15.336 11.0934 15.6645ZM13.4447 15.6645C13.4447 16.0028 13.729 16.2773 14.0598 16.2773C14.3883 16.2773 14.6652 16.0028 14.6652 15.6645C14.6652 15.336 14.3883 15.0591 14.0598 15.0591C13.729 15.0591 13.4447 15.336 13.4447 15.6645ZM5.16772 14.1877C5.16772 14.526 5.45201 14.8028 5.78283 14.8028C6.11365 14.8028 6.38818 14.526 6.38818 14.1877C6.38818 13.8569 6.11365 13.5823 5.78283 13.5823C5.45201 13.5823 5.16772 13.8569 5.16772 14.1877ZM7.5512 14.1877C7.5512 14.526 7.82572 14.8028 8.15654 14.8028C8.48736 14.8028 8.76189 14.526 8.76189 14.1877C8.76189 13.8569 8.48736 13.5823 8.15654 13.5823C7.82572 13.5823 7.5512 13.8569 7.5512 14.1877ZM9.90022 14.1877C9.90022 14.526 10.1771 14.8028 10.5153 14.8028C10.8462 14.8028 11.123 14.526 11.123 14.1877C11.123 13.8569 10.8462 13.5823 10.5153 13.5823C10.1771 13.5823 9.90022 13.8569 9.90022 14.1877ZM12.2762 14.1877C12.2762 14.526 12.5508 14.8028 12.889 14.8028C13.2199 14.8028 13.4944 14.526 13.4944 14.1877C13.4944 13.8569 13.2199 13.5823 12.889 13.5823C12.5508 13.5823 12.2762 13.8569 12.2762 14.1877ZM14.635 14.1877C14.635 14.526 14.9119 14.8028 15.2404 14.8028C15.5787 14.8028 15.8532 14.526 15.8532 14.1877C15.8532 13.8569 15.5787 13.5823 15.2404 13.5823C14.9119 13.5823 14.635 13.8569 14.635 14.1877ZM5.5325 11.216C5.06333 11.216 4.71528 11.6071 4.71528 12.039C4.71528 12.4634 5.08055 12.8642 5.5325 12.8642L15.4614 12.8642C15.938 12.8642 16.2884 12.4708 16.2884 12.039C16.2884 11.5996 15.9404 11.216 15.4614 11.216ZM8.86337 4.33776C7.28012 4.97428 6.21161 6.58343 6.21161 8.36671C6.21161 9.11551 6.38751 9.81658 6.71748 10.4314L14.3203 10.4314C14.3985 10.3215 14.4457 10.2272 14.4929 10.1259C14.6302 9.80711 14.6032 9.50505 14.4441 9.35341C14.2718 9.19837 14.014 9.18399 13.732 9.30688C13.4137 9.45052 12.9828 9.52118 12.526 9.52118C10.5954 9.52118 9.38938 8.36453 9.38938 6.49717C9.38938 6.02139 9.46981 5.51861 9.64559 5.12459C9.78516 4.8076 9.76563 4.57268 9.62321 4.40381C9.47102 4.23725 9.2045 4.20795 8.86337 4.33776Z"
                     fill="currentColor" fill-opacity="0.85" />
       </g>
</svg>