<?xml version="1.0" encoding="UTF-8"?>
<!--Generator: Apple Native CoreSVG 326-->
<!DOCTYPE svg PUBLIC "-//W3C//DTD SVG 1.1//EN" "http://www.w3.org/Graphics/SVG/1.1/DTD/svg11.dtd">
<svg version="1.1" xmlns="http://www.w3.org/2000/svg" xmlns:xlink="http://www.w3.org/1999/xlink"
       viewBox="0 0 22.4612 25.8303">
       <g>
              <rect height="25.8303" opacity="0" width="22.4612" x="0" y="0" />
              <path d="M16.7087 4.54581L14.6785 4.54581L14.6785 4.48952L17.0434 1.61084C17.3007 1.3001 17.3937 1.10655 17.3937 0.789015C17.3937 0.31984 17.0475 0 16.5587 0L13.2248 0C12.7058 0 12.3865 0.287146 12.3865 0.754016C12.3865 1.20827 12.7281 1.50057 13.2248 1.50057L15.1879 1.50057L15.1879 1.5494L12.8459 4.41085C12.596 4.71928 12.5053 4.94784 12.5053 5.24244C12.5053 5.7047 12.8395 6.02169 13.3207 6.02169L16.7087 6.02169C17.2129 6.02169 17.5546 5.73916 17.5546 5.2826C17.5546 4.82319 17.2353 4.54581 16.7087 4.54581ZM21.6596 8.55463L20.4701 8.55463L20.4701 8.50811L21.9569 6.77462C22.2096 6.50809 22.3026 6.287 22.3026 5.97462C22.3026 5.53475 21.9736 5.23213 21.5142 5.23213L19.1589 5.23213C18.6766 5.23213 18.367 5.48713 18.367 5.90232C18.367 6.31927 18.684 6.57943 19.1589 6.57943L20.2891 6.57943L20.2891 6.62595L18.8591 8.29514C18.599 8.5892 18.4784 8.84244 18.4784 9.14966C18.4784 9.58493 18.7954 9.8847 19.2548 9.8847L21.6596 9.8847C22.1465 9.8847 22.4612 9.63431 22.4612 9.21966C22.4612 8.80732 22.154 8.55463 21.6596 8.55463ZM17.0023 12.0414L15.9651 12.0414L15.9651 11.9949L17.2749 10.497C17.4955 10.2528 17.5736 10.049 17.5736 9.77103C17.5736 9.37822 17.2841 9.10775 16.8643 9.10775L14.623 9.10775C14.1877 9.10775 13.9178 9.34322 13.9178 9.74349C13.9178 10.1334 14.2026 10.3741 14.623 10.3741L15.6158 10.3741L15.6158 10.4229L14.3628 11.8588C14.105 12.1506 14.0217 12.3493 14.0142 12.6467C13.9993 13.0275 14.2916 13.3025 14.7091 13.3025L17.0023 13.3025C17.4398 13.3025 17.7224 13.0498 17.7224 12.672C17.7224 12.2717 17.4548 12.0414 17.0023 12.0414Z"
                     fill="currentColor" fill-opacity="0.85" />
              <path d="M10.0991 24.5136C14.0135 24.5136 17.4349 22.1427 18.8807 18.7425C19.1414 18.1023 19.1247 17.5855 18.8071 17.2978C18.5114 17.0268 18.0188 16.9998 17.5072 17.2318C16.6863 17.6063 15.5319 17.8744 14.3974 17.8744C10.1711 17.8744 7.2817 15.0878 7.2817 11.0068C7.2817 9.81088 7.60221 8.41451 8.02893 7.48933C8.30916 6.8864 8.27701 6.4293 8.01115 6.13415C7.75045 5.81946 7.23136 5.7804 6.58937 6.0411C3.02431 7.48914 0.552335 10.9767 0.552335 14.9623C0.552335 20.2333 4.80263 24.5136 10.0991 24.5136Z"
                     fill="currentColor" fill-opacity="0.85" />
       </g>
</svg>