<?xml version="1.0" encoding="UTF-8"?>
<!--Generator: Apple Native CoreSVG 326-->
<!DOCTYPE svg PUBLIC "-//W3C//DTD SVG 1.1//EN" "http://www.w3.org/Graphics/SVG/1.1/DTD/svg11.dtd">
<svg version="1.1" xmlns="http://www.w3.org/2000/svg" xmlns:xlink="http://www.w3.org/1999/xlink"
       viewBox="0 0 21.365 21.006">
       <g>
              <rect height="21.006" opacity="0" width="21.365" x="0" y="0" />
              <path d="M21.0037 10.5079C21.0037 16.3043 16.302 21.006 10.4981 21.006C4.70394 21.006 0 16.3043 0 10.5079C0 4.7137 4.70394 0.00976562 10.4981 0.00976562C16.302 0.00976562 21.0037 4.7137 21.0037 10.5079ZM5.66115 14.6637C5.38893 14.6637 5.18276 14.8773 5.18276 15.1421C5.18276 15.4143 5.38893 15.6354 5.66115 15.6354L15.0019 15.6354C15.2742 15.6354 15.4878 15.4143 15.4878 15.1421C15.4878 14.8773 15.2742 14.6637 15.0019 14.6637ZM5.99197 13.0233C5.71975 13.0233 5.50381 13.2318 5.50381 13.5017C5.50381 13.7739 5.71975 13.9898 5.99197 13.9898L15.323 13.9898C15.5952 13.9898 15.8088 13.7739 15.8088 13.5017C15.8088 13.2318 15.5952 13.0233 15.323 13.0233ZM5.66115 11.3703C5.38893 11.3703 5.18276 11.5839 5.18276 11.8561C5.18276 12.1284 5.38893 12.342 5.66115 12.342L15.0019 12.342C15.2742 12.342 15.4878 12.1284 15.4878 11.8561C15.4878 11.5839 15.2742 11.3703 15.0019 11.3703ZM9.00439 4.61459C7.44189 5.23674 6.39467 6.80792 6.39467 8.56585C6.39467 9.29566 6.57287 9.9852 6.89132 10.5833L14.36 10.5833C14.436 10.493 14.4855 10.3912 14.5303 10.2847C14.6555 9.97289 14.636 9.68059 14.4741 9.52379C14.3069 9.37621 14.0537 9.35438 13.774 9.47727C13.4603 9.62606 13.0438 9.69672 12.5939 9.69672C10.7105 9.69672 9.51603 8.5562 9.51603 6.73889C9.51603 6.26486 9.59876 5.77646 9.77224 5.38705C9.9095 5.07752 9.88997 4.83975 9.74986 4.67319C9.59767 4.50147 9.33806 4.47963 9.00439 4.61459Z"
                     fill="currentColor" fill-opacity="0.85" />
       </g>
</svg>