<?xml version="1.0" encoding="UTF-8"?>
<!--Generator: Apple Native CoreSVG 326-->
<!DOCTYPE svg PUBLIC "-//W3C//DTD SVG 1.1//EN" "http://www.w3.org/Graphics/SVG/1.1/DTD/svg11.dtd">
<svg version="1.1" xmlns="http://www.w3.org/2000/svg" xmlns:xlink="http://www.w3.org/1999/xlink"
       viewBox="0 0 21.365 21.006">
       <g>
              <rect height="21.006" opacity="0" width="21.365" x="0" y="0" />
              <path d="M10.4981 20.9962C16.302 20.9962 21.0037 16.2946 21.0037 10.4981C21.0037 4.70163 16.302 0 10.4981 0C4.70163 0 0 4.70163 0 10.4981C0 16.2946 4.70163 20.9962 10.4981 20.9962ZM10.4981 17.9484C6.37829 17.9484 3.04785 14.6179 3.04785 10.4981C3.04785 6.37829 6.37829 3.04785 10.4981 3.04785C14.6179 3.04785 17.9558 6.37829 17.9558 10.4981C17.9558 14.6179 14.6179 17.9484 10.4981 17.9484Z"
                     fill="currentColor" fill-opacity="0.85" />
              <path d="M12.6852 9.25842C13.0206 9.25842 13.2951 8.95975 13.2951 8.62948L13.2951 6.95622L13.2681 6.72172L13.2585 6.68224L13.6229 7.10349C13.7384 7.24591 13.8946 7.36189 14.1139 7.36189C14.4298 7.36189 14.69 7.10173 14.69 6.80306C14.69 6.59635 14.5689 6.44186 14.4293 6.30459L13.1366 5.0797C12.9919 4.94244 12.8546 4.87869 12.6852 4.87869C12.5135 4.87869 12.3785 4.94244 12.2315 5.0797L10.9388 6.30459C10.7992 6.44186 10.6855 6.59635 10.6855 6.80306C10.6855 7.10173 10.948 7.36189 11.2616 7.36189C11.4758 7.36189 11.6326 7.24361 11.7451 7.10349L12.1332 6.67302L12.0999 6.7361L12.0729 6.95622L12.0729 8.62948C12.0729 8.95975 12.3549 9.25842 12.6852 9.25842ZM6.05239 14.7969L14.9392 14.7969C15.3493 14.7969 15.6628 14.4529 15.6628 14.0652C15.6628 13.6701 15.3516 13.3359 14.9392 13.3359L6.05239 13.3359C5.64235 13.3359 5.32876 13.6776 5.32876 14.0652C5.32876 14.4454 5.65958 14.7969 6.05239 14.7969ZM6.94421 12.6029L13.9421 12.6029C14.0106 12.5103 14.0578 12.4182 14.1027 12.3216C14.2278 12.0246 14.2009 11.7519 14.0538 11.6077C13.9039 11.4699 13.6582 11.4555 13.4032 11.5635C13.1067 11.7025 12.7074 11.7657 12.2919 11.7657C10.5119 11.7657 9.39611 10.6964 9.39611 8.98013C9.39611 8.54286 9.47654 8.07915 9.64256 7.71442C9.7649 7.42958 9.75283 7.20673 9.62017 7.04993C9.47545 6.89314 9.23307 6.86384 8.92408 6.99365C7.45518 7.57904 6.46709 9.05662 6.46709 10.7037C6.46709 11.3916 6.64299 12.0467 6.94421 12.6029Z"
                     fill="currentColor" fill-opacity="0.85" />
       </g>
</svg>