<?xml version="1.0" encoding="UTF-8"?>
<!--Generator: Apple Native CoreSVG 326-->
<!DOCTYPE svg PUBLIC "-//W3C//DTD SVG 1.1//EN" "http://www.w3.org/Graphics/SVG/1.1/DTD/svg11.dtd">
<svg version="1.1" xmlns="http://www.w3.org/2000/svg" xmlns:xlink="http://www.w3.org/1999/xlink"
       viewBox="0 0 28.4819 24.4747">
       <g>
              <rect height="24.4747" opacity="0" width="28.4819" x="0" y="0" />
              <path d="M12.4326 8.21987C12.1046 9.00955 11.8921 10.0299 11.8996 10.9578C11.8996 14.6284 13.8285 16.5647 17.5066 16.5647C18.4344 16.5722 19.4502 16.3574 20.237 16.034C21.4044 15.5677 22.2957 16.4997 21.8512 17.612C21.7119 17.9581 21.55 18.2917 21.3636 18.6087L6.36526 18.6087C5.81601 17.4716 5.52375 16.141 5.52819 14.6671C5.52819 11.1056 7.65807 7.90148 10.8546 6.61309C11.9693 6.15883 12.9271 7.01269 12.4326 8.21987Z"
                     fill="currentColor" fill-opacity="0.85" />
              <path d="M2.90373 22.8507L25.2191 22.8507C25.9766 22.8507 26.5761 22.2007 26.5761 21.4726C26.5761 20.7146 25.984 20.0945 25.2191 20.0945L2.90373 20.0945C2.14401 20.0945 1.54679 20.737 1.54679 21.4726C1.54679 22.1783 2.15147 22.8507 2.90373 22.8507Z"
                     fill="currentColor" fill-opacity="0.85" />
              <path d="M20.2439 1.61187C19.6426 1.61187 19.147 2.13679 19.147 2.75706L19.1545 6.86056L19.3589 8.5963L18.7884 7.68997L17.9475 6.74235C17.719 6.46387 17.4514 6.25661 17.0621 6.25661C16.4775 6.25661 16.0474 6.70164 16.0474 7.24664C16.0474 7.60093 16.25 7.9064 16.5279 8.1671L19.4107 10.9044C19.6904 11.1721 19.9338 11.2777 20.2439 11.2777C20.5637 11.2777 20.7974 11.1721 21.0846 10.9044L23.9673 8.1671C24.2453 7.9064 24.4479 7.60093 24.4479 7.24664C24.4479 6.70164 24.0178 6.25661 23.4332 6.25661C23.0462 6.25661 22.7763 6.46387 22.55 6.74235L21.7374 7.65946L21.1289 8.5963L21.3431 6.86056L21.3506 2.75706C21.3506 2.13679 20.8526 1.61187 20.2439 1.61187Z"
                     fill="currentColor" fill-opacity="0.85" />
       </g>
</svg>