<?xml version="1.0" encoding="UTF-8"?>
<!--Generator: Apple Native CoreSVG 326-->
<!DOCTYPE svg PUBLIC "-//W3C//DTD SVG 1.1//EN" "http://www.w3.org/Graphics/SVG/1.1/DTD/svg11.dtd">
<svg version="1.1" xmlns="http://www.w3.org/2000/svg" xmlns:xlink="http://www.w3.org/1999/xlink"
       viewBox="0 0 21.365 21.006">
       <g>
              <rect height="21.006" opacity="0" width="21.365" x="0" y="0" />
              <path d="M10.4981 20.9962C16.302 20.9962 21.0037 16.2923 21.0037 10.4981C21.0037 4.70163 16.302 0 10.4981 0C4.70394 0 0 4.70163 0 10.4981C0 16.2923 4.70394 20.9962 10.4981 20.9962Z"
                     fill="currentColor" fill-opacity="0.2125" />
              <path d="M3.04785 10.5056C3.05015 6.4236 6.30653 3.05531 10.3736 3.05531C10.4772 3.05531 10.5808 3.05992 10.6821 3.06914C8.6444 4.86128 7.43716 7.48047 7.43716 10.5056C7.43716 13.5284 8.64209 16.1452 10.6826 17.942C10.5888 17.9512 10.495 17.9558 10.3937 17.9558C6.31169 17.9558 3.04554 14.595 3.04785 10.5056ZM10.4981 20.9962C16.302 20.9962 21.0037 16.2923 21.0037 10.4981C21.0037 4.70163 16.302 0 10.4981 0C4.70394 0 0 4.70163 0 10.4981C0 16.2923 4.70394 20.9962 10.4981 20.9962Z"
                     fill="currentColor" fill-opacity="0.85" />
       </g>
</svg>