<?xml version="1.0" encoding="UTF-8"?>
<!--Generator: Apple Native CoreSVG 326-->
<!DOCTYPE svg PUBLIC "-//W3C//DTD SVG 1.1//EN" "http://www.w3.org/Graphics/SVG/1.1/DTD/svg11.dtd">
<svg version="1.1" xmlns="http://www.w3.org/2000/svg" xmlns:xlink="http://www.w3.org/1999/xlink"
       viewBox="0 0 26.7975 23.5609">
       <g>
              <rect height="23.5609" opacity="0" width="26.7975" x="0" y="0" />
              <path d="M11.2686 1.66258C11.546 1.97957 11.5535 2.43558 11.3105 3.00866C10.9998 3.72713 10.824 4.66015 10.824 5.50988C10.824 8.88563 13.0175 10.9958 16.5184 10.9958C17.3463 10.9958 18.1201 10.8539 18.7222 10.5851C19.2258 10.3537 19.7202 10.383 20.0303 10.6632C20.3473 10.9727 20.384 11.4988 20.1136 12.096C20.0365 12.2719 19.9523 12.4458 19.859 12.616L5.84237 12.616C5.28273 11.5234 4.99303 10.2567 4.99303 8.89175C4.99303 5.63871 6.94373 2.70629 9.85364 1.54024C10.4802 1.29216 10.9666 1.34329 11.2686 1.66258Z"
                     fill="currentColor" fill-opacity="0.85" />
              <path d="M4.15185 18.8246C4.47982 18.8246 4.74173 18.5627 4.74173 18.237C4.74173 17.9091 4.47982 17.6472 4.15185 17.6472C3.82619 17.6472 3.56427 17.9091 3.56427 18.237C3.56427 18.5627 3.82619 18.8246 4.15185 18.8246ZM8.27525 18.8246C8.60837 18.8246 8.87028 18.5627 8.87028 18.237C8.87028 17.9091 8.60837 17.6472 8.27525 17.6472C7.94728 17.6472 7.68767 17.9091 7.68767 18.237C7.68767 18.5627 7.94728 18.8246 8.27525 18.8246ZM12.4038 18.8246C12.7318 18.8246 12.9937 18.5627 12.9937 18.237C12.9937 17.9091 12.7318 17.6472 12.4038 17.6472C12.0781 17.6472 11.8162 17.9091 11.8162 18.237C11.8162 18.5627 12.0781 18.8246 12.4038 18.8246ZM16.5272 18.8246C16.8603 18.8246 17.1222 18.5627 17.1222 18.237C17.1222 17.9091 16.8603 17.6472 16.5272 17.6472C16.1992 17.6472 15.9373 17.9091 15.9373 18.237C15.9373 18.5627 16.1992 18.8246 16.5272 18.8246ZM20.6558 18.8246C20.9837 18.8246 21.2456 18.5627 21.2456 18.237C21.2456 17.9091 20.9837 17.6472 20.6558 17.6472C20.3301 17.6472 20.0682 17.9091 20.0682 18.237C20.0682 18.5627 20.3301 18.8246 20.6558 18.8246ZM2.90415 21.1953C3.23728 21.1953 3.49173 20.9357 3.49173 20.6078C3.49173 20.2723 3.23728 20.0202 2.90415 20.0202C2.57619 20.0202 2.31427 20.2723 2.31427 20.6078C2.31427 20.9357 2.57619 21.1953 2.90415 21.1953ZM7.03271 21.1953C7.36068 21.1953 7.62028 20.9357 7.62028 20.6078C7.62028 20.2723 7.36068 20.0202 7.03271 20.0202C6.70474 20.0202 6.44513 20.2723 6.44513 20.6078C6.44513 20.9357 6.70474 21.1953 7.03271 21.1953ZM11.1561 21.1953C11.4892 21.1953 11.7437 20.9357 11.7437 20.6078C11.7437 20.2723 11.4892 20.0202 11.1561 20.0202C10.8281 20.0202 10.5662 20.2723 10.5662 20.6078C10.5662 20.9357 10.8281 21.1953 11.1561 21.1953ZM15.2847 21.1953C15.6126 21.1953 15.8722 20.9357 15.8722 20.6078C15.8722 20.2723 15.6126 20.0202 15.2847 20.0202C14.9567 20.0202 14.6971 20.2723 14.6971 20.6078C14.6971 20.9357 14.9567 21.1953 15.2847 21.1953ZM19.4081 21.1953C19.7412 21.1953 19.9956 20.9357 19.9956 20.6078C19.9956 20.2723 19.7412 20.0202 19.4081 20.0202C19.0801 20.0202 18.8182 20.2723 18.8182 20.6078C18.8182 20.9357 19.0801 21.1953 19.4081 21.1953ZM23.5366 21.1953C23.8646 21.1953 24.1242 20.9357 24.1242 20.6078C24.1242 20.2723 23.8646 20.0202 23.5366 20.0202C23.2012 20.0202 22.949 20.2723 22.949 20.6078C22.949 20.9357 23.2012 21.1953 23.5366 21.1953ZM5.78501 23.5609C6.11814 23.5609 6.37259 23.3065 6.37259 22.9734C6.37259 22.6454 6.11814 22.3835 5.78501 22.3835C5.45705 22.3835 5.19513 22.6454 5.19513 22.9734C5.19513 23.3065 5.45705 23.5609 5.78501 23.5609ZM9.91357 23.5609C10.2415 23.5609 10.5011 23.3065 10.5011 22.9734C10.5011 22.6454 10.2415 22.3835 9.91357 22.3835C9.57814 22.3835 9.32599 22.6454 9.32599 22.9734C9.32599 23.3065 9.57814 23.5609 9.91357 23.5609ZM14.0347 23.5609C14.3626 23.5609 14.6245 23.3065 14.6245 22.9734C14.6245 22.6454 14.3626 22.3835 14.0347 22.3835C13.709 22.3835 13.4471 22.6454 13.4471 22.9734C13.4471 23.3065 13.709 23.5609 14.0347 23.5609ZM18.1655 23.5609C18.4935 23.5609 18.7531 23.3065 18.7531 22.9734C18.7531 22.6454 18.4935 22.3835 18.1655 22.3835C17.8301 22.3835 17.5779 22.6454 17.5779 22.9734C17.5779 23.3065 17.8301 23.5609 18.1655 23.5609ZM22.2866 23.5609C22.6146 23.5609 22.8765 23.3065 22.8765 22.9734C22.8765 22.6454 22.6146 22.3835 22.2866 22.3835C21.961 22.3835 21.699 22.6454 21.699 22.9734C21.699 23.3065 21.961 23.5609 22.2866 23.5609ZM3.51399 15.668L22.9078 15.668C23.3764 15.668 23.7394 15.3297 23.7394 14.8812C23.7394 14.4326 23.3764 14.0943 22.9078 14.0943L3.51399 14.0943C3.0356 14.0943 2.67493 14.4326 2.67493 14.8812C2.67493 15.3297 3.0356 15.668 3.51399 15.668Z"
                     fill="currentColor" fill-opacity="0.85" />
       </g>
</svg>