<?xml version="1.0" encoding="UTF-8"?>
<!--Generator: Apple Native CoreSVG 326-->
<!DOCTYPE svg PUBLIC "-//W3C//DTD SVG 1.1//EN" "http://www.w3.org/Graphics/SVG/1.1/DTD/svg11.dtd">
<svg version="1.1" xmlns="http://www.w3.org/2000/svg" xmlns:xlink="http://www.w3.org/1999/xlink"
       viewBox="0 0 21.365 21.006">
       <g>
              <rect height="21.006" opacity="0" width="21.365" x="0" y="0" />
              <path d="M10.4981 20.9962C16.302 20.9962 21.0037 16.2923 21.0037 10.4981C21.0037 4.70163 16.302 0 10.4981 0C4.70394 0 0 4.70163 0 10.4981C0 16.2923 4.70394 20.9962 10.4981 20.9962Z"
                     fill="currentColor" fill-opacity="0.2125" />
              <path d="M13.593 10.5056C13.593 13.6403 12.4964 16.2033 10.4777 17.9345C6.21082 17.8159 3.04554 14.6159 3.04785 10.5056C3.05015 6.3849 6.22113 3.20216 10.4662 3.0766C12.4844 4.81476 13.593 7.38239 13.593 10.5056ZM10.4981 20.9962C16.302 20.9962 21.0037 16.2923 21.0037 10.4981C21.0037 4.70163 16.302 0 10.4981 0C4.70394 0 0 4.70163 0 10.4981C0 16.2923 4.70394 20.9962 10.4981 20.9962Z"
                     fill="currentColor" fill-opacity="0.85" />
       </g>
</svg>