<?xml version="1.0" encoding="UTF-8"?>
<!--Generator: Apple Native CoreSVG 326-->
<!DOCTYPE svg PUBLIC "-//W3C//DTD SVG 1.1//EN" "http://www.w3.org/Graphics/SVG/1.1/DTD/svg11.dtd">
<svg version="1.1" xmlns="http://www.w3.org/2000/svg" xmlns:xlink="http://www.w3.org/1999/xlink"
       viewBox="0 0 21.365 21.006">
       <g>
              <rect height="21.006" opacity="0" width="21.365" x="0" y="0" />
              <path d="M10.4981 20.9962C16.302 20.9962 21.0037 16.2946 21.0037 10.4981C21.0037 4.70163 16.302 0 10.4981 0C4.70163 0 0 4.70163 0 10.4981C0 16.2946 4.70163 20.9962 10.4981 20.9962ZM10.4981 17.9484C6.37829 17.9484 3.04785 14.6179 3.04785 10.4981C3.04785 6.37829 6.37829 3.04785 10.4981 3.04785C14.6179 3.04785 17.9558 6.37829 17.9558 10.4981C17.9558 14.6179 14.6179 17.9484 10.4981 17.9484Z"
                     fill="currentColor" fill-opacity="0.85" />
              <path d="M12.6852 4.87869C12.3549 4.87869 12.0729 5.17506 12.0729 5.51279L12.0729 7.18089L12.0999 7.40847L12.1332 7.46925L11.7451 7.04108C11.6326 6.90096 11.4758 6.77522 11.2616 6.77522C10.948 6.77522 10.6855 7.03538 10.6855 7.3392C10.6855 7.54076 10.7992 7.70271 10.9388 7.83998L12.2315 9.06256C12.3785 9.19983 12.5135 9.25842 12.6852 9.25842C12.8546 9.25842 12.9919 9.19983 13.1366 9.06256L14.4293 7.83998C14.5689 7.70041 14.69 7.54076 14.69 7.3392C14.69 7.03538 14.4298 6.77522 14.1139 6.77522C13.8946 6.77522 13.7384 6.89866 13.6229 7.03877L13.2585 7.45257L13.2681 7.41539L13.2951 7.18089L13.2951 5.51279C13.2951 5.17506 13.0206 4.87869 12.6852 4.87869ZM6.05239 14.7969L14.9392 14.7969C15.3493 14.7969 15.6628 14.4529 15.6628 14.0652C15.6628 13.6701 15.3516 13.3359 14.9392 13.3359L6.05239 13.3359C5.64235 13.3359 5.32876 13.6776 5.32876 14.0652C5.32876 14.4454 5.65958 14.7969 6.05239 14.7969ZM6.94421 12.6029L13.9421 12.6029C14.0106 12.5103 14.0578 12.4182 14.1027 12.3216C14.2278 12.0246 14.2009 11.7519 14.0538 11.6077C13.9039 11.4699 13.6582 11.4555 13.4032 11.5635C13.1067 11.7025 12.7074 11.7657 12.2919 11.7657C10.5119 11.7657 9.39611 10.6964 9.39611 8.98013C9.39611 8.54286 9.47654 8.07915 9.64256 7.71442C9.7649 7.42958 9.75283 7.20673 9.62017 7.04993C9.47545 6.89314 9.23307 6.86384 8.92408 6.99365C7.45518 7.57904 6.46709 9.05662 6.46709 10.7037C6.46709 11.3916 6.64299 12.0467 6.94421 12.6029Z"
                     fill="currentColor" fill-opacity="0.85" />
       </g>
</svg>