<?xml version="1.0" encoding="UTF-8"?>
<!--Generator: Apple Native CoreSVG 326-->
<!DOCTYPE svg PUBLIC "-//W3C//DTD SVG 1.1//EN" "http://www.w3.org/Graphics/SVG/1.1/DTD/svg11.dtd">
<svg version="1.1" xmlns="http://www.w3.org/2000/svg" xmlns:xlink="http://www.w3.org/1999/xlink"
       viewBox="0 0 20.493 20.2575">
       <g>
              <rect height="20.2575" opacity="0" width="20.493" x="0" y="0" />
              <path d="M15.1535 12.5679C10.6083 12.5679 7.77004 9.84793 7.77004 5.43369C7.77004 4.21044 7.98094 3.0436 8.34227 2.37778C8.57082 1.96028 8.67473 1.59974 8.67473 1.24776C8.67473 0.544995 8.19294 0 7.40975 0C7.1451 0 6.8178 0.0740612 6.43245 0.226247C2.58789 1.78808 0 5.60577 0 9.83253C0 15.5764 4.64953 20.2236 10.3836 20.2236C14.4707 20.2236 18.1619 17.8501 19.8606 14.0933C20.0547 13.6678 20.1316 13.2888 20.1316 12.9949C20.1316 12.2513 19.6481 11.7914 18.9723 11.7914C18.6221 11.7914 18.2512 11.928 17.8005 12.1054C17.1811 12.353 16.1613 12.5679 15.1535 12.5679ZM3.01042 9.8164C3.01042 7.86855 3.81654 5.97481 5.22673 4.63953C5.12313 5.08517 5.06903 5.43448 5.06903 5.92853C5.06903 11.659 8.67606 15.2247 14.5335 15.2247C14.8753 15.2247 15.1803 15.1896 15.491 15.1078C14.2379 16.4622 12.3482 17.2252 10.4146 17.2252C6.26056 17.2252 3.01042 13.9699 3.01042 9.8164Z"
                     fill="currentColor" fill-opacity="0.85" />
       </g>
</svg>