<?xml version="1.0" encoding="UTF-8"?>
<!--Generator: Apple Native CoreSVG 326-->
<!DOCTYPE svg PUBLIC "-//W3C//DTD SVG 1.1//EN" "http://www.w3.org/Graphics/SVG/1.1/DTD/svg11.dtd">
<svg version="1.1" xmlns="http://www.w3.org/2000/svg" xmlns:xlink="http://www.w3.org/1999/xlink"
       viewBox="0 0 21.365 21.006">
       <g>
              <rect height="21.006" opacity="0" width="21.365" x="0" y="0" />
              <path d="M10.4981 20.9962C16.302 20.9962 21.0037 16.2923 21.0037 10.4981C21.0037 4.70163 16.302 0 10.4981 0C4.70394 0 0 4.70163 0 10.4981C0 16.2923 4.70394 20.9962 10.4981 20.9962Z"
                     fill="currentColor" fill-opacity="0.2125" />
              <path d="M7.41072 10.5056C7.41072 7.38239 8.51187 4.81476 10.5398 3.0766C14.7825 3.20216 17.9461 6.3849 17.9558 10.5056C17.9581 14.6159 14.7929 17.8159 10.5259 17.9345C8.50726 16.2033 7.41072 13.6403 7.41072 10.5056ZM10.4981 20.9962C16.302 20.9962 21.0037 16.2923 21.0037 10.4981C21.0037 4.70163 16.302 0 10.4981 0C4.70394 0 0 4.70163 0 10.4981C0 16.2923 4.70394 20.9962 10.4981 20.9962Z"
                     fill="currentColor" fill-opacity="0.85" />
       </g>
</svg>