<?xml version="1.0" encoding="UTF-8"?>
<!--Generator: Apple Native CoreSVG 326-->
<!DOCTYPE svg PUBLIC "-//W3C//DTD SVG 1.1//EN" "http://www.w3.org/Graphics/SVG/1.1/DTD/svg11.dtd">
<svg version="1.1" xmlns="http://www.w3.org/2000/svg" xmlns:xlink="http://www.w3.org/1999/xlink"
       viewBox="0 0 22.4704 25.9996">
       <g>
              <rect height="25.9996" opacity="0" width="22.4704" x="0" y="0" />
              <path d="M16.7254 4.54581L14.6877 4.54581L14.6877 4.49698L17.0526 1.61084C17.3099 1.3001 17.403 1.10655 17.403 0.789015C17.403 0.31984 17.0641 0 16.568 0L13.2415 0C12.715 0 12.3957 0.294607 12.3957 0.754016C12.3957 1.20827 12.7374 1.50057 13.2415 1.50057L15.1971 1.50057L15.1971 1.5494L12.8551 4.41085C12.6052 4.71928 12.5145 4.94784 12.5145 5.24244C12.5145 5.7047 12.8487 6.02169 13.3374 6.02169L16.7254 6.02169C17.2221 6.02169 17.5638 5.73916 17.5638 5.2826C17.5638 4.82319 17.2445 4.54581 16.7254 4.54581ZM21.6762 8.55463L20.4793 8.55463L20.4793 8.50811L21.9736 6.77462C22.2188 6.50809 22.3119 6.287 22.3119 5.97462C22.3119 5.53475 21.9828 5.23213 21.5234 5.23213L19.1756 5.23213C18.6858 5.23213 18.3762 5.48713 18.3762 5.90232C18.3762 6.31927 18.6932 6.57943 19.1756 6.57943L20.2983 6.57943L20.2983 6.62595L18.8683 8.29514C18.6082 8.5892 18.4951 8.84244 18.4951 9.14966C18.4951 9.58493 18.8046 9.8847 19.264 9.8847L21.6762 9.8847C22.1557 9.8847 22.4704 9.63431 22.4704 9.21966C22.4704 8.80732 22.1632 8.55463 21.6762 8.55463ZM17.0115 12.0414L15.9743 12.0414L15.9743 11.9949L17.2841 10.497C17.5047 10.2528 17.5903 10.049 17.5903 9.77103C17.5903 9.37822 17.2934 9.10775 16.8736 9.10775L14.6322 9.10775C14.1969 9.10775 13.927 9.34322 13.927 9.74349C13.927 10.1334 14.2118 10.3741 14.6322 10.3741L15.625 10.3741L15.625 10.4229L14.3795 11.8663C14.1142 12.1506 14.0309 12.3493 14.0234 12.6467C14.016 13.0275 14.3008 13.3025 14.7183 13.3025L17.0115 13.3025C17.4491 13.3025 17.7316 13.0498 17.7316 12.672C17.7316 12.2717 17.464 12.0414 17.0115 12.0414Z"
                     fill="currentColor" fill-opacity="0.85" />
              <path d="M10.4471 24.5136C14.3016 24.5136 17.8565 22.2542 19.448 18.6804C19.8327 17.8226 19.7144 17.1549 19.3125 16.7828C18.9204 16.413 18.2618 16.3464 17.5746 16.6622C16.8496 16.9976 15.8989 17.1809 14.9102 17.1809C10.6643 17.1809 8.03912 14.6837 8.03912 10.5407C8.03912 9.41127 8.29357 8.28186 8.63361 7.49503C8.97067 6.70383 8.9213 6.12329 8.56876 5.71908C8.16686 5.28041 7.49163 5.2149 6.69692 5.53244C3.02741 7.01141 0.608745 10.6805 0.608745 14.6493C0.608745 20.1048 4.98017 24.5136 10.4471 24.5136ZM10.4396 21.5199C6.52132 21.5199 3.59272 18.5561 3.59272 14.6706C3.59272 12.9433 4.2509 11.2042 5.44631 9.94432C5.38529 10.3007 5.34501 10.7199 5.34501 11.1299C5.34501 16.4591 8.77645 19.84 14.2407 19.84C14.491 19.84 14.7372 19.8192 14.9104 19.7864C13.7638 20.8812 12.1579 21.5199 10.4396 21.5199Z"
                     fill="currentColor" fill-opacity="0.85" />
       </g>
</svg>