<?xml version="1.0" encoding="UTF-8"?>
<!--Generator: Apple Native CoreSVG 326-->
<!DOCTYPE svg PUBLIC "-//W3C//DTD SVG 1.1//EN" "http://www.w3.org/Graphics/SVG/1.1/DTD/svg11.dtd">
<svg version="1.1" xmlns="http://www.w3.org/2000/svg" xmlns:xlink="http://www.w3.org/1999/xlink"
       viewBox="0 0 21.365 21.006">
       <g>
              <rect height="21.006" opacity="0" width="21.365" x="0" y="0" />
              <path d="M21.0037 10.5079C21.0037 16.3043 16.302 21.006 10.4981 21.006C4.70394 21.006 0 16.3043 0 10.5079C0 4.7137 4.70394 0.00976562 10.4981 0.00976562C16.302 0.00976562 21.0037 4.7137 21.0037 10.5079ZM5.77161 13.5696C5.33689 13.5696 4.99115 13.9457 4.99115 14.3581C4.99115 14.763 5.34665 15.1345 5.77161 15.1345L15.2246 15.1345C15.6668 15.1345 16.0125 14.7704 16.0125 14.3581C16.0125 13.936 15.6691 13.5696 15.2246 13.5696ZM8.82534 6.81623C7.25538 7.44584 6.20069 9.0147 6.20069 10.7726C6.20069 11.5048 6.39382 12.1943 6.69734 12.785L14.1735 12.785C14.242 12.6923 14.2915 12.6003 14.3364 12.4915C14.469 12.1894 14.4495 11.8897 14.2875 11.738C14.1279 11.5905 13.8672 11.5709 13.5875 11.6766C13.2738 11.8351 12.8573 11.9035 12.4148 11.9035C10.5142 11.9035 9.32951 10.7653 9.32951 8.93822C9.32951 8.48142 9.41971 7.97809 9.59318 7.58638C9.72299 7.28431 9.71092 7.04884 9.5708 6.88974C9.41861 6.71802 9.15154 6.68127 8.82534 6.81623ZM12.3521 4.77139L10.9755 6.0778C10.8262 6.22483 10.6976 6.39424 10.6976 6.62049C10.6976 6.94154 10.9773 7.21662 11.3156 7.21662C11.5521 7.21662 11.7187 7.08342 11.8313 6.93584L12.2463 6.48068L12.2056 6.54145L12.186 6.7788L12.186 8.55772C12.186 8.91268 12.4755 9.23373 12.8402 9.23373C13.1854 9.23373 13.4823 8.91268 13.4823 8.55772L13.4823 6.7788L13.4553 6.53454L13.4457 6.4899L13.8296 6.93814C13.9451 7.08572 14.1185 7.21662 14.3528 7.21662C14.6934 7.21662 14.9708 6.94154 14.9708 6.62049C14.9708 6.39424 14.8422 6.22713 14.6928 6.0778L13.3163 4.77139C13.1618 4.62666 13.0096 4.56061 12.8402 4.56061C12.6587 4.56061 12.5089 4.62666 12.3521 4.77139Z"
                     fill="currentColor" fill-opacity="0.85" />
       </g>
</svg>