<?xml version="1.0" encoding="UTF-8"?>
<!--Generator: Apple Native CoreSVG 326-->
<!DOCTYPE svg PUBLIC "-//W3C//DTD SVG 1.1//EN" "http://www.w3.org/Graphics/SVG/1.1/DTD/svg11.dtd">
<svg version="1.1" xmlns="http://www.w3.org/2000/svg" xmlns:xlink="http://www.w3.org/1999/xlink"
       viewBox="0 0 21.365 21.006">
       <g>
              <rect height="21.006" opacity="0" width="21.365" x="0" y="0" />
              <path d="M10.4981 20.9962C16.302 20.9962 21.0037 16.2923 21.0037 10.4981C21.0037 4.70163 16.302 0 10.4981 0C4.70394 0 0 4.70163 0 10.4981C0 16.2923 4.70394 20.9962 10.4981 20.9962Z"
                     fill="currentColor" fill-opacity="0.2125" />
              <path d="M17.9558 10.5056C17.9581 14.595 14.692 17.9558 10.6026 17.9558C10.5087 17.9558 10.4149 17.9512 10.3136 17.942C12.3616 16.1452 13.5665 13.5284 13.5665 10.5056C13.5665 7.48047 12.3593 4.86128 10.3141 3.06914C10.4252 3.05992 10.519 3.05531 10.6301 3.05531C14.6971 3.05531 17.9461 6.4236 17.9558 10.5056ZM10.4981 20.9962C16.302 20.9962 21.0037 16.2923 21.0037 10.4981C21.0037 4.70163 16.302 0 10.4981 0C4.70394 0 0 4.70163 0 10.4981C0 16.2923 4.70394 20.9962 10.4981 20.9962Z"
                     fill="currentColor" fill-opacity="0.85" />
       </g>
</svg>