<?xml version="1.0" encoding="UTF-8"?>
<!--Generator: Apple Native CoreSVG 326-->
<!DOCTYPE svg PUBLIC "-//W3C//DTD SVG 1.1//EN" "http://www.w3.org/Graphics/SVG/1.1/DTD/svg11.dtd">
<svg version="1.1" xmlns="http://www.w3.org/2000/svg" xmlns:xlink="http://www.w3.org/1999/xlink"
       viewBox="0 0 21.365 21.006">
       <g>
              <rect height="21.006" opacity="0" width="21.365" x="0" y="0" />
              <path d="M21.0037 10.5079C21.0037 16.3043 16.302 21.006 10.4981 21.006C4.70394 21.006 0 16.3043 0 10.5079C0 4.7137 4.70394 0.00976562 10.4981 0.00976562C16.302 0.00976562 21.0037 4.7137 21.0037 10.5079ZM5.77161 13.5696C5.33689 13.5696 4.99115 13.9457 4.99115 14.3581C4.99115 14.763 5.34665 15.1345 5.77161 15.1345L15.2246 15.1345C15.6668 15.1345 16.0125 14.7704 16.0125 14.3581C16.0125 13.936 15.6691 13.5696 15.2246 13.5696ZM8.82534 6.81623C7.25538 7.44584 6.20069 9.0147 6.20069 10.7726C6.20069 11.5048 6.39382 12.1943 6.69734 12.785L14.1735 12.785C14.242 12.6923 14.2915 12.6003 14.3364 12.4915C14.469 12.1894 14.4495 11.8897 14.2875 11.738C14.1279 11.5905 13.8672 11.5709 13.5875 11.6766C13.2738 11.8351 12.8573 11.9035 12.4148 11.9035C10.5142 11.9035 9.32951 10.7653 9.32951 8.93822C9.32951 8.48142 9.41971 7.97809 9.59318 7.58638C9.72299 7.28431 9.71092 7.04884 9.5708 6.88974C9.41861 6.71802 9.15154 6.68127 8.82534 6.81623ZM12.186 5.23893L12.186 7.01554L12.2056 7.24543L12.2463 7.31597L11.8313 6.8585C11.7187 6.71093 11.5521 6.57773 11.3156 6.57773C10.9773 6.57773 10.6976 6.8528 10.6976 7.17616C10.6976 7.4001 10.8262 7.56951 10.9755 7.71654L12.3521 9.02526C12.5089 9.16998 12.6587 9.23373 12.8402 9.23373C13.0096 9.23373 13.1618 9.16998 13.3163 9.02526L14.6928 7.71654C14.8422 7.56951 14.9708 7.4001 14.9708 7.17616C14.9708 6.8528 14.6934 6.57773 14.3528 6.57773C14.1185 6.57773 13.9451 6.70862 13.8296 6.8585L13.4457 7.30675L13.4553 7.2598L13.4823 7.01554L13.4823 5.23893C13.4823 4.88397 13.1854 4.56061 12.8402 4.56061C12.4755 4.56061 12.186 4.88397 12.186 5.23893Z"
                     fill="currentColor" fill-opacity="0.85" />
       </g>
</svg>