<?xml version="1.0" encoding="UTF-8"?>
<!--Generator: Apple Native CoreSVG 326-->
<!DOCTYPE svg PUBLIC "-//W3C//DTD SVG 1.1//EN" "http://www.w3.org/Graphics/SVG/1.1/DTD/svg11.dtd">
<svg version="1.1" xmlns="http://www.w3.org/2000/svg" xmlns:xlink="http://www.w3.org/1999/xlink"
       viewBox="0 0 28.4819 27.3944">
       <g>
              <rect height="27.3944" opacity="0" width="28.4819" x="0" y="0" />
              <path d="M12.4326 9.67974C12.1046 10.4694 11.8921 11.4898 11.8996 12.4176C11.8996 16.0882 13.8285 18.0246 17.5066 18.0246C18.4344 18.0321 19.4502 17.8172 20.237 17.4939C21.4044 17.0275 22.2957 17.9595 21.8512 19.0719C21.478 19.9988 20.9432 20.8362 20.2809 21.5544L16.0959 21.5544C16.9887 21.2418 17.7851 20.7422 18.3939 20.109C17.96 20.1798 17.4008 20.2108 16.9966 20.2108C12.3838 20.2108 9.71334 17.5381 9.71334 12.9202C9.71334 12.5211 9.73924 11.9544 9.81518 11.5228C8.66927 12.6197 7.96184 14.3307 7.96184 16.0918C7.96184 18.7716 9.28093 20.7485 11.4584 21.5544L7.28806 21.5544C6.15678 20.152 5.52166 18.2944 5.52819 16.1269C5.52819 12.5654 7.65807 9.36135 10.8546 8.07296C11.9693 7.6187 12.9271 8.47256 12.4326 9.67974Z"
                     fill="currentColor" fill-opacity="0.85" />
              <path d="M2.90373 24.3106L25.2191 24.3106C25.9766 24.3106 26.5761 23.6606 26.5761 22.9325C26.5761 22.1745 25.984 21.5544 25.2191 21.5544L2.90373 21.5544C2.14401 21.5544 1.54679 22.1969 1.54679 22.9325C1.54679 23.6382 2.15147 24.3106 2.90373 24.3106Z"
                     fill="currentColor" fill-opacity="0.85" />
              <path d="M20.2439 3.07175C19.6426 3.07175 19.147 3.59666 19.147 4.21693L19.1545 8.32043L19.3589 10.0562L18.7884 9.14984L17.9475 8.20222C17.719 7.92374 17.4514 7.71648 17.0621 7.71648C16.4775 7.71648 16.0474 8.16152 16.0474 8.70651C16.0474 9.0608 16.25 9.36627 16.5279 9.62697L19.4107 12.3643C19.6904 12.6319 19.9338 12.7376 20.2439 12.7376C20.5637 12.7376 20.7974 12.6319 21.0846 12.3643L23.9673 9.62697C24.2453 9.36627 24.4479 9.0608 24.4479 8.70651C24.4479 8.16152 24.0178 7.71648 23.4332 7.71648C23.0462 7.71648 22.7763 7.92374 22.55 8.20222L21.7374 9.11933L21.1289 10.0562L21.3431 8.32043L21.3506 4.21693C21.3506 3.59666 20.8526 3.07175 20.2439 3.07175Z"
                     fill="currentColor" fill-opacity="0.85" />
       </g>
</svg>