<?xml version="1.0" encoding="UTF-8"?>
<!--Generator: Apple Native CoreSVG 326-->
<!DOCTYPE svg PUBLIC "-//W3C//DTD SVG 1.1//EN" "http://www.w3.org/Graphics/SVG/1.1/DTD/svg11.dtd">
<svg version="1.1" xmlns="http://www.w3.org/2000/svg" xmlns:xlink="http://www.w3.org/1999/xlink"
       viewBox="0 0 36.1041 22.0663">
       <g>
              <rect height="22.0663" opacity="0" width="36.1041" x="0" y="0" />
              <path d="M6.62461 16.8991L14.1153 11.0374C17.1113 8.68292 18.5992 7.99647 20.1869 7.99647C21.7228 7.99647 22.4289 8.94331 22.4289 10.0045C22.4289 11.2644 21.3604 12.4173 19.2905 12.4173C17.2312 12.4173 15.7477 11.5728 14.1199 9.74688L12.1335 11.2394C13.8091 13.2585 16.0662 14.6891 19.1619 14.6891C22.6255 14.6891 24.8592 12.8412 24.8592 9.97247C24.8592 7.51395 23.2968 5.7488 20.4361 5.72466C18.2885 5.70513 16.305 6.47091 13.1552 8.93664L5.26646 15.1085ZM5.93283 22.014C9.19649 22.014 11.8364 19.3644 11.8364 16.0933C11.8364 12.8198 9.19649 10.1604 5.93283 10.1604C2.64218 10.1604 0 12.8198 0 16.0933C0 19.3667 2.64218 22.014 5.93283 22.014ZM5.92307 19.7394C3.89521 19.7394 2.25744 18.1165 2.25744 16.076C2.25744 14.058 3.90267 12.4276 5.92307 12.4276C7.93369 12.4276 9.57893 14.0505 9.57893 16.076C9.57893 18.1091 7.93369 19.7394 5.92307 19.7394ZM7.058 8.10317L12.0151 8.10317C12.6588 8.10317 13.1797 7.57716 13.1797 6.93341C13.1797 6.29198 12.6565 5.76136 12.0151 5.76136L7.058 5.76136C6.41656 5.76136 5.88825 6.29198 5.88825 6.93341C5.88825 7.57716 6.41426 8.10317 7.058 8.10317ZM29.8393 22.014C33.1104 22.014 35.7428 19.3644 35.7428 16.0933C35.7428 12.8198 33.1104 10.1604 29.8393 10.1604C26.5486 10.1604 23.9064 12.8198 23.9064 16.0933C23.9064 19.3667 26.5486 22.014 29.8393 22.014ZM29.8295 19.7394C27.8016 19.7394 26.1639 18.1165 26.1639 16.076C26.1639 14.058 27.8091 12.4276 29.8295 12.4276C31.8476 12.4276 33.4854 14.0505 33.4854 16.076C33.4854 18.1091 31.8476 19.7394 29.8295 19.7394ZM29.8324 17.7932C30.7817 17.7932 31.5421 17.0328 31.5421 16.0835C31.5421 15.1244 30.7914 14.3715 29.8324 14.3715C28.8733 14.3715 28.1416 15.1072 28.1244 16.076C28.1146 17.0328 28.856 17.7932 29.8324 17.7932ZM28.8056 16.7786L31.0348 16.1485L26.4884 0.930343C26.3006 0.289997 25.7551 0 24.9947 0L21.6995 0C21.046 0 20.5275 0.528315 20.5275 1.17206C20.5275 1.82326 21.046 2.34181 21.6995 2.34181L24.4383 2.34181C24.5411 2.34181 24.6025 2.37626 24.6244 2.46701ZM31.1598 8.27179C31.6307 8.31831 31.849 7.94558 31.7582 7.49188L31.0323 4.00178C30.9416 3.54808 30.5907 3.32984 30.1714 3.55784C29.828 3.74679 29.519 4.02878 29.2933 4.37221C28.5134 5.51509 28.8494 7.12891 29.9997 7.86461C30.3334 8.09031 30.7354 8.23734 31.1598 8.27179ZM5.92361 17.7955C6.86548 17.7955 7.62586 17.0328 7.62586 16.0835C7.62586 15.1244 6.88271 14.3738 5.92361 14.3738C4.95706 14.3738 4.22312 15.1072 4.21335 16.076C4.20359 17.0328 4.94729 17.7955 5.92361 17.7955ZM14.4489 18.5894L17.364 18.5894C17.9848 18.5894 18.307 18.3999 18.6344 17.9835L22.7145 12.7231L19.5015 13.1908L17.1683 16.1034C17.0804 16.2211 17.0223 16.255 16.8316 16.255L14.4489 16.255C13.8052 16.255 13.2792 16.7736 13.2792 17.4248C13.2792 18.0685 13.8052 18.5894 14.4489 18.5894Z"
                     fill="currentColor" fill-opacity="0.85" />
       </g>
</svg>