<?xml version="1.0" encoding="UTF-8"?>
<!--Generator: Apple Native CoreSVG 326-->
<!DOCTYPE svg PUBLIC "-//W3C//DTD SVG 1.1//EN" "http://www.w3.org/Graphics/SVG/1.1/DTD/svg11.dtd">
<svg version="1.1" xmlns="http://www.w3.org/2000/svg" xmlns:xlink="http://www.w3.org/1999/xlink"
       viewBox="0 0 39.0593 21.7512">
       <g>
              <rect height="21.7512" opacity="0" width="39.0593" x="0" y="0" />
              <path d="M8.38011 13.616C9.81511 13.616 10.4309 12.5284 11.2191 12.5284C11.6896 12.5284 12.0991 12.9183 12.6612 13.2306L11.3259 14.9738C10.0346 16.6507 10.0555 18.825 11.1837 20.2515L3.49784 20.2515C1.41109 20.2515 0.434464 17.9398 1.69575 16.2978L4.68263 12.4453C6.3639 12.4591 6.75398 13.616 8.38011 13.616ZM14.0328 7.57158L15.5183 9.50079L13.6111 11.9905C12.8802 11.742 12.2166 10.9842 11.2191 10.9842C10.0142 10.9842 9.2985 12.0717 8.38011 12.0717C7.38098 12.0717 6.86164 11.1057 5.73762 11.0355L8.40534 7.57158C9.20181 6.52878 10.1929 6.00738 11.2191 6.00738C12.2429 6.00738 13.234 6.52878 14.0328 7.57158Z"
                     fill="currentColor" fill-opacity="0.85" />
              <path d="M21.2647 9.72323C22.3376 9.72323 23.2704 8.34288 24.7027 8.34288C26.2147 8.34288 27.0728 9.72323 28.1383 9.72323C29.0922 9.72323 30.0645 8.47468 31.1422 8.39292L27.4739 3.59224C25.8753 1.51179 23.5151 1.5221 21.9216 3.61462L18.2608 8.39292C19.2714 8.47699 20.3056 9.72323 21.2647 9.72323ZM14.5592 20.2515L34.8461 20.2515C37.5015 20.2515 38.2595 17.6828 36.8882 15.8888L32.5066 10.1697C30.529 10.195 30.0583 11.5408 28.1383 11.5408C26.1998 11.5408 25.4588 10.1604 24.7027 10.1604C23.9442 10.1604 23.2032 11.5408 21.2647 11.5408C19.3447 11.5408 18.874 10.195 16.8987 10.1697L12.5148 15.8888C11.1435 17.6828 11.894 20.2515 14.5592 20.2515Z"
                     fill="currentColor" fill-opacity="0.85" />
       </g>
</svg>