<?xml version="1.0" encoding="UTF-8"?>
<!--Generator: Apple Native CoreSVG 326-->
<!DOCTYPE svg PUBLIC "-//W3C//DTD SVG 1.1//EN" "http://www.w3.org/Graphics/SVG/1.1/DTD/svg11.dtd">
<svg version="1.1" xmlns="http://www.w3.org/2000/svg" xmlns:xlink="http://www.w3.org/1999/xlink"
       viewBox="0 0 21.365 21.006">
       <g>
              <rect height="21.006" opacity="0" width="21.365" x="0" y="0" />
              <path d="M21.0037 10.5079C21.0037 16.3043 16.302 21.006 10.4981 21.006C4.70394 21.006 0 16.3043 0 10.5079C0 4.7137 4.70394 0.00976562 10.4981 0.00976562C16.302 0.00976562 21.0037 4.7137 21.0037 10.5079ZM10.6818 10.2004C9.85643 10.2004 9.56213 9.30792 8.80538 9.99333L7.36735 11.8636C6.84989 12.5355 7.13473 13.4964 8.12258 13.4964L15.8481 13.4964C16.8262 13.4964 17.111 12.5355 16.5987 11.8636L15.1481 9.99333C14.3936 9.30792 14.0947 10.2004 13.2791 10.2004C12.5421 10.2004 12.2738 9.67131 11.9779 9.67131C11.6969 9.67131 11.4211 10.2004 10.6818 10.2004ZM6.91085 8.68947L4.3522 12.0093C3.86567 12.6354 4.23258 13.4964 5.03336 13.4964L6.5511 13.4964C6.16806 12.879 6.18989 12.041 6.70965 11.3622L8.85451 8.5778L8.78142 8.48803C8.2249 7.901 7.44729 8.00545 6.91085 8.68947ZM10.9545 7.18587L9.55818 9.00451C9.99709 9.09647 10.3245 9.51002 10.6818 9.51002C11.0776 9.51002 11.4366 8.98838 11.9779 8.98838C12.5565 8.98838 12.8833 9.51002 13.2866 9.51002C13.6415 9.51002 13.9489 9.08155 14.4274 9.00451L13.011 7.1784C12.4121 6.40771 11.5558 6.41286 10.9545 7.18587Z"
                     fill="currentColor" fill-opacity="0.85" />
       </g>
</svg>