<?xml version="1.0" encoding="UTF-8"?>
<!--Generator: Apple Native CoreSVG 326-->
<!DOCTYPE svg PUBLIC "-//W3C//DTD SVG 1.1//EN" "http://www.w3.org/Graphics/SVG/1.1/DTD/svg11.dtd">
<svg version="1.1" xmlns="http://www.w3.org/2000/svg" xmlns:xlink="http://www.w3.org/1999/xlink"
       viewBox="0 0 20.4411 24.9394">
       <g>
              <rect height="24.9394" opacity="0" width="20.4411" x="0" y="0" />
              <path d="M2.16615 8.85597L17.9136 8.85597C19.9253 8.85597 20.3357 6.35233 18.7642 5.29921L12.1769 0.729693C10.7338-0.243231 9.34601-0.243231 7.90282 0.729693L1.30811 5.29921C-0.241048 6.34487 0.132109 8.85597 2.16615 8.85597ZM6.5115 5.96097C6.39649 5.96097 6.33559 5.81437 6.454 5.72011L9.70157 3.4093C9.91939 3.25469 10.1604 3.25699 10.3759 3.4093L13.6183 5.72011C13.7442 5.81437 13.6833 5.96097 13.5683 5.96097ZM1.53139 14.0381L18.5409 14.0381C19.393 14.0381 20.0798 13.2968 20.0798 12.4574C20.0798 11.588 19.4005 10.8668 18.5409 10.8668L1.53139 10.8668C0.686749 10.8668 0 11.603 0 12.4574C0 13.2819 0.694209 14.0381 1.53139 14.0381ZM2.16615 16.0513C0.14703 16.0513-0.26343 18.5526 1.30811 19.608L7.90282 24.1776C9.34601 25.158 10.7338 25.158 12.1769 24.1776L18.7642 19.608C20.3208 18.5601 19.9477 16.0513 17.9136 16.0513ZM6.5115 18.9463L13.5683 18.9463C13.6833 18.9463 13.7442 19.0981 13.6183 19.1946L10.3759 21.5054C10.1604 21.6503 9.91939 21.6526 9.70157 21.5054L6.454 19.1946C6.33559 19.0981 6.39649 18.9463 6.5115 18.9463Z"
                     fill="currentColor" fill-opacity="0.85" />
       </g>
</svg>