<?xml version="1.0" encoding="UTF-8"?>
<!--Generator: Apple Native CoreSVG 326-->
<!DOCTYPE svg PUBLIC "-//W3C//DTD SVG 1.1//EN" "http://www.w3.org/Graphics/SVG/1.1/DTD/svg11.dtd">
<svg version="1.1" xmlns="http://www.w3.org/2000/svg" xmlns:xlink="http://www.w3.org/1999/xlink"
       viewBox="0 0 22.8953 25.8749">
       <g>
              <rect height="25.8749" opacity="0" width="22.8953" x="0" y="0" />
              <path d="M20.9051 2.35215L21.3753 4.06272C21.6539 5.14779 21.1656 6.00662 20.0914 6.28237L15.7328 7.45988L20.7199 7.45988C21.8533 7.45988 22.534 8.14808 22.534 9.26191L22.534 19.1492C22.534 21.2721 21.3285 22.48 19.1866 22.48L4.36289 22.48C2.22325 22.48 1.02056 21.2744 1.02056 19.1492L1.02056 11.2361L0.161306 8.09543C-0.38666 6.04829 0.475444 4.57853 2.53466 4.0185L16.8562 0.169385C18.8506-0.373426 20.3893 0.397391 20.9051 2.35215ZM7.99316 10.4456L6.13072 10.4733L4.68201 13.0112L6.99961 13.0112L8.46445 10.4456ZM11.346 10.4456L9.88344 13.0112L12.2638 13.0112L13.7287 10.4456ZM16.6102 10.4456L15.1477 13.0112L17.4555 13.0112L18.9203 10.4456ZM4.80392 6.16148L4.16849 8.84617L6.41828 8.25253L7.03188 5.53799ZM9.81059 4.80381L9.18208 7.50343L11.4826 6.89311L12.1186 4.19865ZM16.5173 2.99899L14.9024 3.44955L14.2716 6.13424L16.5042 5.53545L17.1304 2.8479C16.9184 2.89673 16.7265 2.94556 16.5173 2.99899Z"
                     fill="currentColor" fill-opacity="0.85" />
       </g>
</svg>