<?xml version="1.0" encoding="UTF-8"?>
<!--Generator: Apple Native CoreSVG 326-->
<!DOCTYPE svg PUBLIC "-//W3C//DTD SVG 1.1//EN" "http://www.w3.org/Graphics/SVG/1.1/DTD/svg11.dtd">
<svg version="1.1" xmlns="http://www.w3.org/2000/svg" xmlns:xlink="http://www.w3.org/1999/xlink"
       viewBox="0 0 21.365 21.006">
       <g>
              <rect height="21.006" opacity="0" width="21.365" x="0" y="0" />
              <path d="M10.4981 20.9962C16.302 20.9962 21.0037 16.2946 21.0037 10.4981C21.0037 4.70163 16.302 0 10.4981 0C4.70163 0 0 4.70163 0 10.4981C0 16.2946 4.70163 20.9962 10.4981 20.9962ZM10.4981 17.9484C6.37829 17.9484 3.04785 14.6179 3.04785 10.4981C3.04785 6.37829 6.37829 3.04785 10.4981 3.04785C14.6179 3.04785 17.9558 6.37829 17.9558 10.4981C17.9558 14.6179 14.6179 17.9484 10.4981 17.9484Z"
                     fill="currentColor" fill-opacity="0.85" />
              <path d="M4.63091 13.2341C5.05763 13.2341 5.21849 12.9693 5.21849 12.6L5.21849 9.7552L5.25009 9.7552L5.80642 12.543C5.88224 12.9049 6.06779 13.1243 6.41474 13.1243C6.764 13.1243 6.9547 12.89 7.02306 12.543L7.57194 9.7552L7.60354 9.7552L7.60354 12.6C7.60354 12.967 7.77186 13.2341 8.18881 13.2341C8.62299 13.2341 8.77869 12.9693 8.77869 12.6L8.77869 8.67024C8.77869 8.0752 8.42658 7.75985 7.83901 7.75985C7.37487 7.75985 7.01421 7.91786 6.91886 8.47384L6.40959 11.2273L6.40728 11.2273L5.88364 8.47384C5.78598 7.94825 5.46548 7.75985 4.97325 7.75985C4.35978 7.75985 4.03357 8.10341 4.03357 8.67024L4.03357 12.6C4.03357 12.967 4.20419 13.2341 4.63091 13.2341ZM10.077 13.2294C10.5209 13.2294 10.7553 12.9842 10.7553 12.5241L10.7553 11.6027L11.1783 11.6027C12.2314 11.6027 12.7926 10.7656 12.7926 9.73384C12.7926 8.67509 12.2434 7.85005 11.2765 7.85005L10.077 7.85005C9.65256 7.85005 9.40327 8.09298 9.40327 8.56282L9.40327 12.5241C9.40327 12.9911 9.65432 13.2294 10.077 13.2294ZM10.7553 10.5798L10.7553 8.89024L10.9089 8.89024C11.3325 8.89024 11.4503 9.2879 11.4503 9.73384C11.4503 10.1798 11.34 10.5798 10.8917 10.5798ZM13.9426 13.2341C14.3958 13.2341 14.6284 12.9578 14.6284 12.5144L14.6284 11.0202L15.528 11.0202L15.528 12.5144C15.528 12.956 15.7486 13.2341 16.2138 13.2341C16.6646 13.2341 16.8898 12.9773 16.8898 12.5144L16.8898 8.47493C16.8898 8.02692 16.6549 7.75985 16.2138 7.75985C15.7583 7.75985 15.528 8.03384 15.528 8.47493L15.528 9.926L14.6284 9.926L14.6284 8.47493C14.6284 8.03153 14.3958 7.75985 13.9426 7.75985C13.4992 7.75985 13.2666 8.03153 13.2666 8.47493L13.2666 12.5144C13.2666 12.9727 13.4918 13.2341 13.9426 13.2341Z"
                     fill="currentColor" fill-opacity="0.85" />
       </g>
</svg>