<?xml version="1.0" encoding="UTF-8"?>
<!--Generator: Apple Native CoreSVG 326-->
<!DOCTYPE svg PUBLIC "-//W3C//DTD SVG 1.1//EN" "http://www.w3.org/Graphics/SVG/1.1/DTD/svg11.dtd">
<svg version="1.1" xmlns="http://www.w3.org/2000/svg" xmlns:xlink="http://www.w3.org/1999/xlink"
       viewBox="0 0 21.365 21.006">
       <g>
              <rect height="21.006" opacity="0" width="21.365" x="0" y="0" />
              <path d="M21.0037 10.4981C21.0037 16.2923 16.302 20.9962 10.4981 20.9962C4.70394 20.9962 0 16.2923 0 10.4981C0 4.70163 4.70394 0 10.4981 0C16.302 0 21.0037 4.70163 21.0037 10.4981ZM6.6846 8.34349L6.14088 11.2664L6.13858 11.2664L5.5954 8.34349C5.48052 7.79091 5.14279 7.58013 4.61841 7.58013C3.96303 7.58013 3.61213 7.94837 3.61213 8.55712L3.61213 12.7303C3.61213 13.122 3.79252 13.4138 4.24392 13.4138C4.70279 13.4138 4.88087 13.1243 4.88087 12.7303L4.88087 9.71613L4.90501 9.71613L5.4958 12.6734C5.57908 13.0674 5.78186 13.2966 6.14604 13.2966C6.51252 13.2966 6.72791 13.0375 6.79627 12.6734L7.3819 9.71613L7.41351 9.71613L7.41351 12.7303C7.41351 13.122 7.58929 13.4138 8.04069 13.4138C8.49955 13.4138 8.67018 13.1243 8.67018 12.7303L8.67018 8.55712C8.67018 7.92017 8.30084 7.58013 7.66389 7.58013C7.17507 7.58013 6.78226 7.7479 6.6846 8.34349ZM15.8702 8.34458L15.8702 9.88409L14.9092 9.88409L14.9092 8.34458C14.9092 7.87649 14.6594 7.58013 14.189 7.58013C13.7037 7.58013 13.4561 7.87649 13.4561 8.34458L13.4561 12.6447C13.4561 13.1277 13.6962 13.4138 14.189 13.4138C14.6594 13.4138 14.9092 13.1203 14.9092 12.6447L14.9092 11.0621L15.8702 11.0621L15.8702 12.6447C15.8702 13.1185 16.1005 13.4138 16.5905 13.4138C17.0735 13.4138 17.3158 13.1323 17.3158 12.6447L17.3158 8.34458C17.3158 7.87188 17.0562 7.58013 16.5905 7.58013C16.1103 7.58013 15.8702 7.8788 15.8702 8.34458ZM10.0523 7.67779C9.60319 7.67779 9.32921 7.9454 9.32921 8.43993L9.32921 12.647C9.32921 13.1559 9.59749 13.4017 10.0523 13.4017C10.5307 13.4017 10.7897 13.1467 10.7897 12.647L10.7897 11.6716L11.23 11.6716C12.3445 11.6716 12.9551 10.7805 12.9551 9.68962C12.9551 8.55451 12.364 7.67779 11.3305 7.67779ZM11.5141 9.68962C11.5141 10.1551 11.4014 10.5798 10.9285 10.5798L10.7897 10.5798L10.7897 8.78458L10.9382 8.78458C11.3939 8.78458 11.5141 9.20923 11.5141 9.68962Z"
                     fill="currentColor" fill-opacity="0.85" />
       </g>
</svg>