<?xml version="1.0" encoding="UTF-8"?>
<!--Generator: Apple Native CoreSVG 326-->
<!DOCTYPE svg PUBLIC "-//W3C//DTD SVG 1.1//EN" "http://www.w3.org/Graphics/SVG/1.1/DTD/svg11.dtd">
<svg version="1.1" xmlns="http://www.w3.org/2000/svg" xmlns:xlink="http://www.w3.org/1999/xlink"
       viewBox="0 0 14.3786 14.0448">
       <g>
              <rect height="14.0448" opacity="0" width="14.3786" x="0" y="0" />
              <path d="M0.507283 13.5309C1.19743 14.2234 2.4003 14.1912 3.03822 13.5608L7.00864 9.58059L10.9739 13.5459C11.6417 14.2136 12.8049 14.2159 13.4951 13.5235C14.1898 12.831 14.1875 11.6678 13.5175 11L9.56196 7.02727L13.5175 3.07177C14.1875 2.39654 14.1898 1.23098 13.4951 0.548291C12.8049-0.144159 11.6417-0.141855 10.9739 0.518448L7.00864 4.47625L3.03822 0.510987C2.4003-0.126933 1.19743-0.15162 0.507283 0.53337C-0.177707 1.22352-0.15302 2.42639 0.484901 3.06431L4.46509 7.02727L0.484901 11.0075C-0.15302 11.6454-0.177707 12.8385 0.507283 13.5309Z"
                     fill="currentColor" fill-opacity="0.85" />
       </g>
</svg>