<?xml version="1.0" encoding="UTF-8"?>
<!--Generator: Apple Native CoreSVG 326-->
<!DOCTYPE svg PUBLIC "-//W3C//DTD SVG 1.1//EN" "http://www.w3.org/Graphics/SVG/1.1/DTD/svg11.dtd">
<svg version="1.1" xmlns="http://www.w3.org/2000/svg" xmlns:xlink="http://www.w3.org/1999/xlink"
       viewBox="0 0 21.365 21.006">
       <g>
              <rect height="21.006" opacity="0" width="21.365" x="0" y="0" />
              <path d="M10.4981 20.9962C16.302 20.9962 21.0037 16.2946 21.0037 10.4981C21.0037 4.70163 16.302 0 10.4981 0C4.70163 0 0 4.70163 0 10.4981C0 16.2946 4.70163 20.9962 10.4981 20.9962ZM10.4981 17.9484C6.37829 17.9484 3.04785 14.6179 3.04785 10.4981C3.04785 6.37829 6.37829 3.04785 10.4981 3.04785C14.6179 3.04785 17.9558 6.37829 17.9558 10.4981C17.9558 14.6179 14.6179 17.9484 10.4981 17.9484Z"
                     fill="currentColor" fill-opacity="0.85" />
              <path d="M10.6124 8.20592L6.35943 12.7657C6.13997 13.0122 6.11529 13.3247 6.27329 13.5614L5.77458 14.2112C5.65454 14.3777 5.67177 14.5908 5.8211 14.7304L5.96759 14.8619C6.11462 14.9941 6.29556 15.021 6.46442 14.8987L7.13146 14.4C7.36583 14.5655 7.67087 14.5333 7.90755 14.3087L9.98108 12.3886L9.98108 14.5851C9.98108 14.92 10.2476 15.1963 10.5997 15.1963C10.9271 15.1963 11.196 14.9125 11.196 14.5851L11.196 11.2444L12.4576 10.0729C13.0528 10.1263 13.6083 9.8799 14.0834 9.37779L11.303 6.58986C10.8031 7.07705 10.559 7.63545 10.6124 8.20592ZM7.22098 13.2615L11.0208 9.25763C11.0817 9.34267 11.1449 9.39556 11.2076 9.47545C11.2582 9.52834 11.3358 9.58639 11.4059 9.64729L7.4365 13.4569ZM14.6051 6.07568C13.7537 5.23177 12.5921 5.27083 11.7339 6.15896L14.5143 8.94689C15.4197 8.09607 15.4415 6.91958 14.6051 6.07568Z"
                     fill="currentColor" fill-opacity="0.85" />
       </g>
</svg>