<?xml version="1.0" encoding="UTF-8"?>
<!--Generator: Apple Native CoreSVG 326-->
<!DOCTYPE svg PUBLIC "-//W3C//DTD SVG 1.1//EN" "http://www.w3.org/Graphics/SVG/1.1/DTD/svg11.dtd">
<svg version="1.1" xmlns="http://www.w3.org/2000/svg" xmlns:xlink="http://www.w3.org/1999/xlink"
       viewBox="0 0 13.4318 20.8443">
       <g>
              <rect height="20.8443" opacity="0" width="13.4318" x="0" y="0" />
              <path d="M13.0705 5.19101L13.0705 1.57136C13.0705 0.762811 12.3969 0.214419 11.6153 0.379221L6.53612 1.48789C5.68729 1.66938 5.21867 2.16785 5.21867 2.91616L5.22328 13.6039C5.24226 13.8959 5.12956 14.0443 4.90131 14.0949L3.30382 14.4246C1.11941 14.8721 0 16.0472 0 17.8128C0 19.6128 1.34632 20.8443 3.28077 20.8443C5.42508 20.8443 7.37954 19.2002 7.37954 16.5748L7.37954 7.58698C7.37954 7.2783 7.31306 7.33502 7.61537 7.25974L12.2051 6.2608C12.7311 6.14767 13.0705 5.72217 13.0705 5.19101Z"
                     fill="currentColor" fill-opacity="0.85" />
       </g>
</svg>