<?xml version="1.0" encoding="UTF-8"?>
<!--Generator: Apple Native CoreSVG 326-->
<!DOCTYPE svg PUBLIC "-//W3C//DTD SVG 1.1//EN" "http://www.w3.org/Graphics/SVG/1.1/DTD/svg11.dtd">
<svg version="1.1" xmlns="http://www.w3.org/2000/svg" xmlns:xlink="http://www.w3.org/1999/xlink"
       viewBox="0 0 29.5992 12.2858">
       <g>
              <rect height="12.2858" opacity="0" width="29.5992" x="0" y="0" />
              <path d="M8.086 12.2858C10.6234 12.2858 12.8471 11.516 14.619 10.1148C16.3833 11.516 18.6145 12.2858 21.1519 12.2858C25.7059 12.2858 29.2379 9.47642 29.2379 5.82784C29.2379 4.07554 28.4528 2.9941 27.109 2.9941C26.5249 2.9941 26.0218 3.25195 25.5853 3.75503C25.2274 4.15949 24.8038 4.36008 24.2476 4.36008C22.1844 4.36008 20.9615 1.01332 17.2984 1.01332C16.1687 1.01332 15.2038 1.4239 14.619 2.12163C14.0341 1.4239 13.0692 1.01332 11.932 1.01332C8.269 1.01332 7.05351 4.36008 4.9903 4.36008C4.43408 4.36008 4.00306 4.15949 3.65259 3.75503C3.20865 3.25195 2.70557 2.9941 2.12897 2.9941C0.785072 2.9941 0 4.07554 0 5.82784C0 9.47642 3.53206 12.2858 8.086 12.2858ZM8.086 9.60938C5.37571 9.60938 3.20616 8.26233 2.66153 6.48953C2.62423 6.35039 2.74153 6.27117 2.88286 6.34129C3.44642 6.68157 4.18994 6.85747 4.9903 6.85747C6.89326 6.85747 8.19021 5.93774 9.14954 5.11513C10.1456 4.26782 10.8363 3.68231 11.9544 3.68231C12.7105 3.68231 13.2019 4.03278 13.5879 4.46041C14.3611 5.16887 14.8768 5.17117 15.6477 4.46041C16.0262 4.03278 16.5274 3.68231 17.2835 3.68231C18.4017 3.68231 19.0923 4.26782 20.0884 5.11513C21.0477 5.93774 22.3447 6.85747 24.2476 6.85747C25.048 6.85747 25.7915 6.67927 26.362 6.33207C26.5131 6.25965 26.6062 6.33656 26.5764 6.48953C26.0318 8.26233 23.8548 9.60938 21.1519 9.60938C18.4306 9.60938 16.5237 8.52933 15.6885 7.16682C15.0697 6.26832 14.1682 6.26601 13.5494 7.16682C12.7165 8.52933 10.8096 9.60938 8.086 9.60938Z"
                     fill="currentColor" fill-opacity="0.85" />
       </g>
</svg>