<?xml version="1.0" encoding="UTF-8"?>
<!--Generator: Apple Native CoreSVG 326-->
<!DOCTYPE svg PUBLIC "-//W3C//DTD SVG 1.1//EN" "http://www.w3.org/Graphics/SVG/1.1/DTD/svg11.dtd">
<svg version="1.1" xmlns="http://www.w3.org/2000/svg" xmlns:xlink="http://www.w3.org/1999/xlink"
       viewBox="0 0 29.2395 11.1511">
       <g>
              <rect height="11.1511" opacity="0" width="29.2395" x="0" y="0" />
              <path d="M0 5.20417C0 8.54959 3.39832 11.1511 7.6955 11.1511C10.5838 11.1511 12.9551 10.1751 14.4417 8.36951C15.9305 10.1751 18.292 11.1511 21.1804 11.1511C25.4873 11.1511 28.8782 8.54959 28.8782 5.20417C28.8782 3.9612 28.4738 3.08363 27.5883 3.08363C27.2443 3.08363 26.9031 3.29496 26.7021 3.60394C26.2615 4.25429 25.4865 4.60992 24.5064 4.60992C21.7012 4.60992 20.8763 1.00586 17.0749 1.00586C14.882 1.00586 13.3956 2.40944 13.3207 4.61423L15.5551 4.61423C15.4803 2.40944 13.9961 1.00586 11.801 1.00586C8.00933 1.00586 7.17695 4.60992 4.37179 4.60992C3.46753 4.60992 2.69998 4.2566 2.15651 3.57179C1.9285 3.2875 1.61667 3.08363 1.28761 3.08363C0.402029 3.08363 0 3.9612 0 5.20417Z"
                     fill="currentColor" fill-opacity="0.85" />
       </g>
</svg>