<?xml version="1.0" encoding="UTF-8"?>
<!--Generator: Apple Native CoreSVG 326-->
<!DOCTYPE svg PUBLIC "-//W3C//DTD SVG 1.1//EN" "http://www.w3.org/Graphics/SVG/1.1/DTD/svg11.dtd">
<svg version="1.1" xmlns="http://www.w3.org/2000/svg" xmlns:xlink="http://www.w3.org/1999/xlink"
       viewBox="0 0 21.365 21.006">
       <g>
              <rect height="21.006" opacity="0" width="21.365" x="0" y="0" />
              <path d="M10.4981 20.9962C16.302 20.9962 21.0037 16.2946 21.0037 10.4981C21.0037 4.70163 16.302 0 10.4981 0C4.70163 0 0 4.70163 0 10.4981C0 16.2946 4.70163 20.9962 10.4981 20.9962ZM10.4981 17.9484C6.37829 17.9484 3.04785 14.6179 3.04785 10.4981C3.04785 6.37829 6.37829 3.04785 10.4981 3.04785C14.6179 3.04785 17.9558 6.37829 17.9558 10.4981C17.9558 14.6179 14.6179 17.9484 10.4981 17.9484Z"
                     fill="currentColor" fill-opacity="0.85" />
              <path d="M7.81517 14.9633C8.58235 14.9633 9.02738 14.4712 9.02738 13.6449L9.02738 10.2368L9.10836 10.2368L12.0979 14.2633C12.5107 14.8037 12.7956 14.9633 13.3044 14.9633C13.9694 14.9633 14.3817 14.536 14.3817 13.8319L14.3817 7.32246C14.3817 6.49845 13.9367 6.00404 13.1695 6.00404C12.4121 6.00404 11.9694 6.4956 11.9694 7.32246L11.9694 10.644L11.8786 10.644L8.96606 6.76376C8.50325 6.16599 8.24365 6.00404 7.7274 6.00404C7.04745 6.00404 6.61733 6.48298 6.61733 7.19739L6.61733 13.6449C6.61733 14.4741 7.0526 14.9633 7.81517 14.9633Z"
                     fill="currentColor" fill-opacity="0.85" />
       </g>
</svg>