<?xml version="1.0" encoding="UTF-8"?>
<!--Generator: Apple Native CoreSVG 326-->
<!DOCTYPE svg PUBLIC "-//W3C//DTD SVG 1.1//EN" "http://www.w3.org/Graphics/SVG/1.1/DTD/svg11.dtd">
<svg version="1.1" xmlns="http://www.w3.org/2000/svg" xmlns:xlink="http://www.w3.org/1999/xlink"
       viewBox="0 0 21.365 21.006">
       <g>
              <rect height="21.006" opacity="0" width="21.365" x="0" y="0" />
              <path d="M10.4981 20.9962C16.302 20.9962 21.0037 16.2946 21.0037 10.4981C21.0037 4.70163 16.302 0 10.4981 0C4.70163 0 0 4.70163 0 10.4981C0 16.2946 4.70163 20.9962 10.4981 20.9962ZM10.4981 17.9484C6.37829 17.9484 3.04785 14.6179 3.04785 10.4981C3.04785 6.37829 6.37829 3.04785 10.4981 3.04785C14.6179 3.04785 17.9558 6.37829 17.9558 10.4981C17.9558 14.6179 14.6179 17.9484 10.4981 17.9484Z"
                     fill="currentColor" fill-opacity="0.85" />
              <path d="M8.1651 14.7688C8.73356 14.7688 9.05001 14.4225 9.05001 13.842L9.05001 9.1746L9.09368 9.1746L11.0336 13.8368C11.2616 14.4196 11.6745 14.7688 12.3412 14.7688C13.0648 14.7688 13.5856 14.3231 13.5856 13.5887L13.5856 7.10489C13.5856 6.52435 13.2737 6.18783 12.6932 6.18783C12.115 6.18783 11.8031 6.51689 11.8031 7.10489L11.8031 11.7792L11.7595 11.7792L9.80973 7.11465C9.59895 6.55935 9.19122 6.18783 8.50962 6.18783C7.82397 6.18783 7.26526 6.60247 7.26526 7.35297L7.26526 13.842C7.26526 14.4225 7.5817 14.7688 8.1651 14.7688ZM6.4128 10.4556C6.4128 10.5964 6.5369 10.7205 6.68515 10.7205L14.2501 10.7205C14.3908 10.7205 14.5149 10.5964 14.5149 10.4556C14.5149 10.3074 14.3908 10.1833 14.2501 10.1833L6.68515 10.1833C6.5369 10.1833 6.4128 10.3074 6.4128 10.4556Z"
                     fill="currentColor" fill-opacity="0.85" />
       </g>
</svg>