<?xml version="1.0" encoding="UTF-8"?>
<!--Generator: Apple Native CoreSVG 326-->
<!DOCTYPE svg PUBLIC "-//W3C//DTD SVG 1.1//EN" "http://www.w3.org/Graphics/SVG/1.1/DTD/svg11.dtd">
<svg version="1.1" xmlns="http://www.w3.org/2000/svg" xmlns:xlink="http://www.w3.org/1999/xlink"
       viewBox="0 0 25.2371 20.7338">
       <g>
              <rect height="20.7338" opacity="0" width="25.2371" x="0" y="0" />
              <path d="M24.8758 12.3846C24.8758 5.93383 19.9627 0.631336 13.6785 0.00415235C13.2541-0.040066 12.9302 0.274072 12.9302 0.698483L12.9302 4.13058C12.9302 4.48379 13.1829 4.74109 13.5286 4.79046C17.2465 5.32405 20.1044 8.51741 20.1044 12.3846C20.1044 14.1648 19.4989 15.8157 18.4419 17.1359C18.2306 17.4138 18.2329 17.7555 18.4764 18.0012L20.9223 20.4523C21.2117 20.7567 21.6557 20.7417 21.9256 20.4328C23.7735 18.2551 24.8758 15.452 24.8758 12.3846Z"
                     fill="currentColor" fill-opacity="0.85" />
              <path d="M0 12.3846C0 15.4543 1.1023 18.2574 2.94273 20.4276C3.21265 20.7366 3.65429 20.7417 3.9535 20.4448L6.39194 17.9938C6.63541 17.748 6.63772 17.4063 6.42639 17.1284C5.38201 15.8157 4.77139 14.1648 4.77139 12.3846C4.77139 8.51741 7.63678 5.32405 11.3472 4.79046C11.7004 4.74109 11.9456 4.48379 11.9456 4.13058L11.9456 0.698483C11.9456 0.274072 11.6217-0.040066 11.1973 0.00415235C4.92054 0.631336 0 5.93383 0 12.3846Z"
                     fill="currentColor" fill-opacity="0.85" />
              <path d="M10.0963 16.5957C10.6745 16.5957 10.9886 16.2494 10.9886 15.6712L10.9886 11.009L11.0323 11.009L12.9746 15.666C13.2003 16.2466 13.6155 16.5957 14.2724 16.5957C15.0035 16.5957 15.5167 16.15 15.5167 15.4156L15.5167 8.93412C15.5167 8.35874 15.2124 8.01706 14.6318 8.01706C14.0536 8.01706 13.7441 8.34382 13.7441 8.93412L13.7441 13.6159L13.6981 13.6159L11.7484 8.94158C11.5399 8.38858 11.1298 8.01706 10.4506 8.01706C9.76259 8.01706 9.2062 8.43171 9.2062 9.18967L9.2062 15.6712C9.2062 16.2494 9.52033 16.5957 10.0963 16.5957ZM8.35143 12.2826C8.35143 12.4308 8.47553 12.5549 8.61632 12.5549L16.191 12.5549C16.3318 12.5549 16.4559 12.4308 16.4559 12.2826C16.4559 12.1418 16.3318 12.0177 16.191 12.0177L8.61632 12.0177C8.47553 12.0177 8.35143 12.1418 8.35143 12.2826Z"
                     fill="currentColor" fill-opacity="0.85" />
       </g>
</svg>