<?xml version="1.0" encoding="UTF-8"?>
<!--Generator: Apple Native CoreSVG 326-->
<!DOCTYPE svg PUBLIC "-//W3C//DTD SVG 1.1//EN" "http://www.w3.org/Graphics/SVG/1.1/DTD/svg11.dtd">
<svg version="1.1" xmlns="http://www.w3.org/2000/svg" xmlns:xlink="http://www.w3.org/1999/xlink"
       viewBox="0 0 24.6449 23.5952">
       <g>
              <rect height="23.5952" opacity="0" width="24.6449" x="0" y="0" />
              <path d="M1.94045 20.4256L22.5744 20.4256L22.5744 19.4355C22.5744 18.8957 22.2379 18.5718 21.7032 18.5718L21.3244 18.5718L21.3244 7.89293L22.1092 7.89293C22.9074 7.89293 23.3841 7.28595 23.3841 6.69158C23.3841 6.25686 23.136 5.85374 22.6254 5.55167L13.7186 0.416404C13.2683 0.154491 12.7462 0 12.2563 0C11.7664 0 11.242 0.154491 10.7963 0.416404L1.88944 5.55167C1.37659 5.85374 1.13081 6.25686 1.13081 6.69158C1.13081 7.28595 1.60745 7.89293 2.41314 7.89293L3.19045 7.89293L3.19045 18.5718L2.81396 18.5718C2.27927 18.5718 1.94045 18.8957 1.94045 19.4355ZM5.29922 18.5718L5.29922 6.39673L12.047 2.62732C12.1194 2.5888 12.1965 2.57212 12.2563 2.57212C12.331 2.57212 12.3931 2.5888 12.4679 2.62732L19.2157 6.39673L19.2157 18.5718ZM1.20651 23.5854L23.0673 23.5854C23.7134 23.5854 24.2836 23.0525 24.2836 22.3766C24.2836 21.7231 23.7134 21.1701 23.0673 21.1701L1.20651 21.1701C0.553002 21.1701 0 21.7231 0 22.3766C0 23.045 0.553002 23.5854 1.20651 23.5854Z"
                     fill="currentColor" fill-opacity="0.85" />
              <path d="M9.92788 15.8274C10.4964 15.8274 10.8128 15.4811 10.8128 14.9028L10.8128 10.2406L10.8565 10.2406L12.8039 14.8977C13.0319 15.4782 13.4448 15.8274 14.104 15.8274C14.8253 15.8274 15.3484 15.3817 15.3484 14.6473L15.3484 8.16577C15.3484 7.59038 15.0365 7.24871 14.4634 7.24871C13.8777 7.24871 13.5659 7.57546 13.5659 8.16577L13.5659 12.8475L13.5222 12.8475L11.58 8.17323C11.3617 7.62022 10.954 7.24871 10.2799 7.24871C9.59421 7.24871 9.03551 7.66335 9.03551 8.42131L9.03551 14.9028C9.03551 15.4811 9.35195 15.8274 9.92788 15.8274ZM8.17559 11.5142C8.17559 11.6625 8.29969 11.7866 8.44794 11.7866L16.0128 11.7866C16.1611 11.7866 16.2852 11.6625 16.2852 11.5142C16.2852 11.3734 16.1611 11.2493 16.0128 11.2493L8.44794 11.2493C8.29969 11.2493 8.17559 11.3734 8.17559 11.5142Z"
                     fill="currentColor" fill-opacity="0.85" />
       </g>
</svg>