<?xml version="1.0" encoding="UTF-8"?>
<!--Generator: Apple Native CoreSVG 326-->
<!DOCTYPE svg PUBLIC "-//W3C//DTD SVG 1.1//EN" "http://www.w3.org/Graphics/SVG/1.1/DTD/svg11.dtd">
<svg version="1.1" xmlns="http://www.w3.org/2000/svg" xmlns:xlink="http://www.w3.org/1999/xlink"
       viewBox="0 0 19.3993 19.0529">
       <g>
              <rect height="19.0529" opacity="0" width="19.3993" x="0" y="0" />
              <path d="M3.64834 19.0379L15.3896 19.0379C17.7164 19.0379 19.0379 17.7262 19.0379 15.4011L19.0379 3.63912C19.0379 1.32151 17.7164 0 15.3896 0L3.64834 0C1.32382 0 0 1.32151 0 3.63912L0 15.4011C0 17.7262 1.32382 19.0379 3.64834 19.0379ZM4.05583 16.0183C3.37024 16.0183 3.01964 15.7096 3.01964 14.9775L3.01964 4.07021C3.01964 3.33809 3.37024 3.0271 4.05583 3.0271L14.9821 3.0271C15.6654 3.0271 16.0183 3.33809 16.0183 4.07021L16.0183 14.9775C16.0183 15.7096 15.6654 16.0183 14.9821 16.0183Z"
                     fill="currentColor" fill-opacity="0.85" />
              <path d="M7.19314 13.7922C7.76392 13.7922 8.07805 13.4459 8.07805 12.8654L8.07805 8.19803L8.12173 8.19803L10.064 12.8602C10.2897 13.4431 10.7026 13.7922 11.3618 13.7922C12.0929 13.7922 12.6136 13.3465 12.6136 12.6122L12.6136 6.12833C12.6136 5.54779 12.3018 5.21127 11.7212 5.21127C11.143 5.21127 10.8312 5.54033 10.8312 6.12833L10.8312 10.8026L10.7875 10.8026L8.83777 6.13809C8.62699 5.58279 8.21926 5.21127 7.53767 5.21127C6.85201 5.21127 6.29331 5.62591 6.29331 6.37641L6.29331 12.8654C6.29331 13.4459 6.60975 13.7922 7.19314 13.7922ZM5.44085 9.47909C5.44085 9.61987 5.56495 9.74397 5.70573 9.74397L13.2781 9.74397C13.4212 9.74397 13.5453 9.61987 13.5453 9.47909C13.5453 9.33084 13.4212 9.20674 13.2781 9.20674L5.70573 9.20674C5.56495 9.20674 5.44085 9.33084 5.44085 9.47909Z"
                     fill="currentColor" fill-opacity="0.85" />
       </g>
</svg>