<?xml version="1.0" encoding="UTF-8"?>
<!--Generator: Apple Native CoreSVG 326-->
<!DOCTYPE svg PUBLIC "-//W3C//DTD SVG 1.1//EN" "http://www.w3.org/Graphics/SVG/1.1/DTD/svg11.dtd">
<svg version="1.1" xmlns="http://www.w3.org/2000/svg" xmlns:xlink="http://www.w3.org/1999/xlink"
       viewBox="0 0 24.6449 23.5952">
       <g>
              <rect height="23.5952" opacity="0" width="24.6449" x="0" y="0" />
              <path d="M13.7186 0.416404L22.6254 5.55167C23.136 5.85374 23.3841 6.25686 23.3841 6.69158C23.3841 7.28595 22.9074 7.89293 22.1092 7.89293L21.3244 7.89293L21.3244 19.392L21.7032 19.392C22.2379 19.392 22.5744 19.7159 22.5744 20.2632L22.5744 21.1701L23.0673 21.1701C23.7134 21.1701 24.2836 21.7231 24.2836 22.3766C24.2836 23.0525 23.7134 23.5854 23.0673 23.5854L1.20651 23.5854C0.553002 23.5854 0 23.045 0 22.3766C0 21.7231 0.553002 21.1701 1.20651 21.1701L1.94045 21.1701L1.94045 20.2632C1.94045 19.7159 2.27927 19.392 2.81396 19.392L3.19045 19.392L3.19045 7.89293L2.41314 7.89293C1.60745 7.89293 1.13081 7.28595 1.13081 6.69158C1.13081 6.25686 1.37659 5.85374 1.88944 5.55167L10.7963 0.416404C11.242 0.154491 11.7664 0 12.2563 0C12.7462 0 13.2683 0.154491 13.7186 0.416404ZM13.6469 9.34813L13.6469 12.6235L12.877 12.6235L11.5484 9.3556C11.3129 8.75552 10.8753 8.35932 10.1518 8.35932C9.41449 8.35932 8.81102 8.80611 8.81102 9.61344L8.81102 12.6235L8.18384 12.6235C8.04075 12.6235 7.90688 12.7551 7.90688 12.9154C7.90688 13.0659 8.04075 13.19 8.18384 13.19L8.81102 13.19L8.81102 16.5107C8.81102 17.1458 9.15215 17.507 9.77515 17.507C10.3907 17.507 10.7244 17.1458 10.7244 16.5107L10.7244 13.19L11.477 13.19L12.828 16.5055C13.0733 17.1406 13.5085 17.507 14.2246 17.507C15.005 17.507 15.5654 17.0268 15.5654 16.2454L15.5654 13.19L16.2769 13.19C16.4275 13.19 16.5614 13.0659 16.5614 12.9154C16.5614 12.7551 16.4275 12.6235 16.2769 12.6235L15.5654 12.6235L15.5654 9.34813C15.5654 8.72053 15.2214 8.35932 14.6087 8.35932C13.9909 8.35932 13.6469 8.71307 13.6469 9.34813ZM13.6469 14.3096L13.6032 14.3096L13.1069 13.19L13.6469 13.19ZM11.2495 12.6235L10.7244 12.6235L10.7244 11.5711L10.768 11.5711Z"
                     fill="currentColor" fill-opacity="0.85" />
       </g>
</svg>