<?xml version="1.0" encoding="UTF-8"?>
<!--Generator: Apple Native CoreSVG 326-->
<!DOCTYPE svg PUBLIC "-//W3C//DTD SVG 1.1//EN" "http://www.w3.org/Graphics/SVG/1.1/DTD/svg11.dtd">
<svg version="1.1" xmlns="http://www.w3.org/2000/svg" xmlns:xlink="http://www.w3.org/1999/xlink"
       viewBox="0 0 23.461 21.7932">
       <g>
              <rect height="21.7932" opacity="0" width="23.461" x="0" y="0" />
              <path d="M0 10.1906L0 18.5383C0 19.6242 0.838389 20.0235 1.46976 20.0235C2.09367 20.0212 2.92459 19.6242 2.92459 18.5383L2.92459 7.08638L2.79673 7.08638C1.43373 7.08638 0 8.12579 0 10.1906ZM3.96478 21.7932L19.4513 21.7932C21.7856 21.7932 23.0996 20.474 23.0996 18.1564L23.0996 3.64428C23.0996 1.32667 21.7856 0.0051558 19.4513 0.0051558L8.47723 0.0051558C6.14525 0.0051558 4.82143 1.32667 4.82143 3.64428L4.82143 20.1527C4.82143 21.0037 4.57729 21.5075 3.96478 21.7932ZM9.68496 6.93711C9.22894 6.93711 8.86828 6.57415 8.86828 6.12044C8.86828 5.66904 9.22148 5.31814 9.68496 5.31814L18.2407 5.31814C18.7094 5.31814 19.0626 5.66904 19.0626 6.12044C19.0626 6.57415 18.7019 6.93711 18.2407 6.93711ZM9.68496 10.106C9.22148 10.106 8.86828 9.75283 8.86828 9.30143C8.86828 8.84772 9.22894 8.48706 9.68496 8.48706L18.2407 8.48706C18.7019 8.48706 19.0626 8.84772 19.0626 9.30143C19.0626 9.75283 18.7094 10.106 18.2407 10.106ZM15.2472 13.2772C14.7838 13.2772 14.4254 12.9264 14.4254 12.4824C14.4254 12.0189 14.7763 11.6657 15.2472 11.6657L18.2407 11.6657C18.7019 11.6657 19.0453 12.0189 19.0453 12.4824C19.0453 12.9264 18.7019 13.2772 18.2407 13.2772ZM15.2472 16.3527C14.7763 16.3527 14.4254 16.0018 14.4254 15.5504C14.4254 15.0967 14.7838 14.7337 15.2472 14.7337L18.2407 14.7337C18.7019 14.7337 19.0453 15.0967 19.0453 15.5504C19.0453 16.0018 18.7019 16.3527 18.2407 16.3527ZM10.1004 16.3642C9.33297 16.3642 8.85852 15.8823 8.85852 15.1172L8.85852 12.9001C8.85852 12.1402 9.33297 11.6657 10.1004 11.6657L12.1315 11.6657C12.8966 11.6657 13.3785 12.1402 13.3785 12.9001L13.3785 15.1172C13.3785 15.8823 12.8966 16.3642 12.1315 16.3642Z"
                     fill="currentColor" fill-opacity="0.85" />
       </g>
</svg>