<?xml version="1.0" encoding="UTF-8"?>
<!--Generator: Apple Native CoreSVG 326-->
<!DOCTYPE svg PUBLIC "-//W3C//DTD SVG 1.1//EN" "http://www.w3.org/Graphics/SVG/1.1/DTD/svg11.dtd">
<svg version="1.1" xmlns="http://www.w3.org/2000/svg" xmlns:xlink="http://www.w3.org/1999/xlink"
       viewBox="0 0 21.365 21.006">
       <g>
              <rect height="21.006" opacity="0" width="21.365" x="0" y="0" />
              <path d="M10.4981 20.9962C16.302 20.9962 21.0037 16.2946 21.0037 10.4981C21.0037 4.70163 16.302 0 10.4981 0C4.70163 0 0 4.70163 0 10.4981C0 16.2946 4.70163 20.9962 10.4981 20.9962ZM10.4981 17.9484C6.37829 17.9484 3.04785 14.6179 3.04785 10.4981C3.04785 6.37829 6.37829 3.04785 10.4981 3.04785C14.6179 3.04785 17.9558 6.37829 17.9558 10.4981C17.9558 14.6179 14.6179 17.9484 10.4981 17.9484Z"
                     fill="currentColor" fill-opacity="0.85" />
              <path d="M5.67759 10.2079L5.67759 13.6977C5.67759 14.1537 6.01872 14.314 6.2813 14.314C6.54388 14.3117 6.89478 14.1514 6.89478 13.6977L6.89478 8.93585L6.81192 8.93585C6.24782 8.93585 5.67759 9.37749 5.67759 10.2079ZM7.31985 15.0493L13.7918 15.0493C14.766 15.0493 15.3043 14.5134 15.3043 13.5437L15.3043 7.46974C15.3043 6.49778 14.766 5.96419 13.7918 5.96419L9.19892 5.96419C8.22466 5.96419 7.679 6.49778 7.679 7.46974L7.679 14.3608C7.679 14.7223 7.57673 14.936 7.31985 15.0493ZM9.70321 8.83747C9.50274 8.83747 9.35856 8.68813 9.35856 8.49513C9.35856 8.30673 9.50044 8.16485 9.70321 8.16485L13.2973 8.16485C13.488 8.16485 13.6298 8.30673 13.6298 8.49513C13.6298 8.68813 13.4805 8.83747 13.2973 8.83747ZM9.70321 10.1676C9.50274 10.1676 9.35856 10.0257 9.35856 9.83502C9.35856 9.63685 9.50044 9.49498 9.70321 9.49498L13.2973 9.49498C13.4805 9.49498 13.6298 9.63685 13.6298 9.83502C13.6298 10.0257 13.488 10.1676 13.2973 10.1676ZM12.04 11.5046C11.8395 11.5046 11.6902 11.3628 11.6902 11.1818C11.6902 10.9762 11.8395 10.8297 12.04 10.8297L13.2973 10.8297C13.4805 10.8297 13.6224 10.9762 13.6224 11.1818C13.6224 11.3628 13.4805 11.5046 13.2973 11.5046ZM12.04 12.7998C11.8395 12.7998 11.6902 12.6579 11.6902 12.4597C11.6902 12.269 11.8395 12.1197 12.04 12.1197L13.2973 12.1197C13.4805 12.1197 13.6224 12.269 13.6224 12.4597C13.6224 12.6579 13.4805 12.7998 13.2973 12.7998ZM9.87329 12.7998C9.54642 12.7998 9.3511 12.597 9.3511 12.285L9.3511 11.3467C9.3511 11.0371 9.54642 10.8297 9.87329 10.8297L10.7272 10.8297C11.0541 10.8297 11.2517 11.0371 11.2517 11.3467L11.2517 12.285C11.2517 12.597 11.0541 12.7998 10.7272 12.7998Z"
                     fill="currentColor" fill-opacity="0.85" />
       </g>
</svg>