<?xml version="1.0" encoding="UTF-8"?>
<!--Generator: Apple Native CoreSVG 326-->
<!DOCTYPE svg PUBLIC "-//W3C//DTD SVG 1.1//EN" "http://www.w3.org/Graphics/SVG/1.1/DTD/svg11.dtd">
<svg version="1.1" xmlns="http://www.w3.org/2000/svg" xmlns:xlink="http://www.w3.org/1999/xlink"
       viewBox="0 0 21.365 21.006">
       <g>
              <rect height="21.006" opacity="0" width="21.365" x="0" y="0" />
              <path d="M21.0037 10.5079C21.0037 16.3043 16.302 21.006 10.4981 21.006C4.70394 21.006 0 16.3043 0 10.5079C0 4.7137 4.70394 0.00976562 10.4981 0.00976562C16.302 0.00976562 21.0037 4.7137 21.0037 10.5079ZM9.13001 5.70185C8.09376 5.70185 7.5108 6.2699 7.5108 7.29638L7.5108 14.6105C7.5108 14.9892 7.40107 15.2081 7.12697 15.3386L13.9921 15.3386C15.0284 15.3386 15.5987 14.7654 15.5987 13.7366L15.5987 7.29638C15.5987 6.2699 15.0284 5.70185 13.9921 5.70185ZM6.59204 8.85148C5.99579 8.85148 5.38311 9.3178 5.38311 10.2004L5.38311 13.9003C5.38311 14.3862 5.75408 14.5562 6.03388 14.5562C6.30392 14.5562 6.6772 14.3839 6.6772 13.9003L6.6772 8.85148ZM13.8078 12.5906C13.8078 12.7911 13.6585 12.9479 13.4557 12.9479L12.1341 12.9479C11.9262 12.9479 11.7694 12.7911 11.7694 12.5906C11.7694 12.3775 11.9262 12.2184 12.1341 12.2184L13.4557 12.2184C13.6585 12.2184 13.8078 12.3775 13.8078 12.5906ZM11.2988 11.4082L11.2988 12.4062C11.2988 12.7279 11.0839 12.9479 10.7473 12.9479L9.83653 12.9479C9.49704 12.9479 9.29196 12.7279 9.29196 12.4062L9.29196 11.4082C9.29196 11.079 9.49704 10.8665 9.83653 10.8665L10.7473 10.8665C11.0839 10.8665 11.2988 11.079 11.2988 11.4082ZM13.8078 11.2312C13.8078 11.4196 13.6585 11.5787 13.4557 11.5787L12.1341 11.5787C11.9262 11.5787 11.7694 11.4196 11.7694 11.2312C11.7694 11.0181 11.9262 10.8665 12.1341 10.8665L13.4557 10.8665C13.6585 10.8665 13.8078 11.0181 13.8078 11.2312ZM13.8153 9.80517C13.8153 10.0108 13.6659 10.1624 13.4557 10.1624L9.65899 10.1624C9.45107 10.1624 9.30173 10.0108 9.30173 9.80517C9.30173 9.60471 9.45107 9.44791 9.65899 9.44791L13.4557 9.44791C13.6585 9.44791 13.8153 9.60471 13.8153 9.80517ZM13.8153 8.39122C13.8153 8.59169 13.6585 8.75079 13.4557 8.75079L9.65899 8.75079C9.45107 8.75079 9.30173 8.59169 9.30173 8.39122C9.30173 8.19536 9.45107 8.04603 9.65899 8.04603L13.4557 8.04603C13.6659 8.04603 13.8153 8.19536 13.8153 8.39122Z"
                     fill="currentColor" fill-opacity="0.85" />
       </g>
</svg>