<?xml version="1.0" encoding="UTF-8"?>
<!--Generator: Apple Native CoreSVG 326-->
<!DOCTYPE svg PUBLIC "-//W3C//DTD SVG 1.1//EN" "http://www.w3.org/Graphics/SVG/1.1/DTD/svg11.dtd">
<svg version="1.1" xmlns="http://www.w3.org/2000/svg" xmlns:xlink="http://www.w3.org/1999/xlink"
       viewBox="0 0 24.3303 21.006">
       <g>
              <rect height="21.006" opacity="0" width="24.3303" x="0" y="0" />
              <path d="M11.9856 20.9962C17.7821 20.9962 22.4837 16.2946 22.4837 10.4981C22.4837 4.70163 17.7821 0 11.9856 0C6.18916 0 1.48753 4.70163 1.48753 10.4981L4.53538 10.4981C4.53538 6.37829 7.86582 3.04785 11.9856 3.04785C16.1055 3.04785 19.4359 6.37829 19.4359 10.4981C19.4359 14.6179 16.1055 17.9484 11.9856 17.9484C9.86874 17.9484 8.05458 17.1034 6.64712 15.6524C5.97135 15.0132 5.0498 14.8117 4.35614 15.4438C3.73423 16.0162 3.72149 16.9286 4.44894 17.7463C6.08398 19.7011 9.21457 20.9962 11.9856 20.9962ZM0.808605 8.39698C-0.0138912 8.39698-0.212055 9.15901 0.22849 9.72826L2.75918 13.0277C3.05907 13.4322 3.60988 13.4224 3.91492 13.0277L6.43585 9.72596C6.86894 9.15901 6.66847 8.39698 5.8655 8.39698Z"
                     fill="currentColor" fill-opacity="0.85" />
              <path d="M9.05164 13.7112C9.49097 13.7112 9.80281 13.3947 9.80281 12.9359L9.80281 12.0763L10.185 11.7211L11.1067 13.2065C11.2686 13.5068 11.492 13.7112 11.8463 13.7112C12.234 13.7112 12.5802 13.424 12.5802 13.0611C12.5802 12.7975 12.5044 12.6631 12.3867 12.4788L11.3123 10.8705L12.3194 9.85528C12.5135 9.65141 12.6043 9.49122 12.6043 9.27813C12.6043 8.8997 12.3246 8.62517 11.9392 8.62517C11.6958 8.62517 11.4752 8.74291 11.3179 8.92724L9.82464 10.5831L9.80281 10.5831L9.80281 7.57328C9.80281 7.11441 9.49097 6.79567 9.05164 6.79567C8.61001 6.79567 8.29587 7.11211 8.29587 7.57097L8.29587 12.9359C8.29587 13.3947 8.61001 13.7112 9.05164 13.7112ZM14.1692 13.7112C14.5625 13.7112 14.8807 13.4229 14.8807 12.9359L14.8807 10.9438C14.8807 10.437 15.0101 10.0609 15.5665 10.046C15.7916 10.046 16.0541 9.99661 16.2155 9.84903C16.3648 9.74337 16.4504 9.56419 16.4504 9.32872C16.4504 8.90255 16.2143 8.62517 15.8082 8.62517C15.2652 8.62517 14.9699 9.11006 14.8831 9.64783L14.817 9.64783L14.817 9.37118C14.817 8.92669 14.5574 8.62517 14.1497 8.62517C13.7247 8.62517 13.4576 8.92669 13.4576 9.37118L13.4576 12.9359C13.4576 13.397 13.7402 13.7112 14.1692 13.7112Z"
                     fill="currentColor" fill-opacity="0.85" />
       </g>
</svg>