<?xml version="1.0" encoding="UTF-8"?>
<!--Generator: Apple Native CoreSVG 326-->
<!DOCTYPE svg PUBLIC "-//W3C//DTD SVG 1.1//EN" "http://www.w3.org/Graphics/SVG/1.1/DTD/svg11.dtd">
<svg version="1.1" xmlns="http://www.w3.org/2000/svg" xmlns:xlink="http://www.w3.org/1999/xlink"
       viewBox="0 0 24.6449 23.5952">
       <g>
              <rect height="23.5952" opacity="0" width="24.6449" x="0" y="0" />
              <path d="M1.94045 20.4256L22.5744 20.4256L22.5744 19.4355C22.5744 18.8957 22.2379 18.5718 21.7032 18.5718L21.3244 18.5718L21.3244 7.89293L22.1092 7.89293C22.9074 7.89293 23.3841 7.28595 23.3841 6.69158C23.3841 6.25686 23.136 5.85374 22.6254 5.55167L13.7186 0.416404C13.2683 0.154491 12.7462 0 12.2563 0C11.7664 0 11.242 0.154491 10.7963 0.416404L1.88944 5.55167C1.37659 5.85374 1.13081 6.25686 1.13081 6.69158C1.13081 7.28595 1.60745 7.89293 2.41314 7.89293L3.19045 7.89293L3.19045 18.5718L2.81396 18.5718C2.27927 18.5718 1.94045 18.8957 1.94045 19.4355ZM5.29922 18.5718L5.29922 6.39673L12.047 2.62732C12.1194 2.5888 12.1965 2.57212 12.2563 2.57212C12.331 2.57212 12.3931 2.5888 12.4679 2.62732L19.2157 6.39673L19.2157 18.5718ZM1.20651 23.5854L23.0673 23.5854C23.7134 23.5854 24.2836 23.0525 24.2836 22.3766C24.2836 21.7231 23.7134 21.1701 23.0673 21.1701L1.20651 21.1701C0.553002 21.1701 0 21.7231 0 22.3766C0 23.045 0.553002 23.5854 1.20651 23.5854Z"
                     fill="currentColor" fill-opacity="0.85" />
              <path d="M9.10078 14.9936C9.57741 14.9936 9.91909 14.6571 9.91909 14.1586L9.91909 13.2543L10.3237 12.8692L11.2976 14.4515C11.4744 14.7742 11.7127 14.9936 12.1043 14.9936C12.5218 14.9936 12.8957 14.6915 12.8957 14.2912C12.8957 14.0053 12.8147 13.8657 12.682 13.6567L11.5479 11.9515L12.6073 10.8789C12.8238 10.6578 12.922 10.4826 12.922 10.2569C12.922 9.84636 12.6125 9.54199 12.1973 9.54199C11.9366 9.54199 11.6959 9.67695 11.5311 9.8739L9.94093 11.6365L9.91909 11.6365L9.91909 8.42525C9.91909 7.93424 9.57741 7.58796 9.10078 7.58796C8.6293 7.58796 8.28532 7.92448 8.28532 8.42295L8.28532 14.1586C8.28532 14.6571 8.6293 14.9936 9.10078 14.9936ZM14.6063 14.9936C15.0369 14.9936 15.3775 14.683 15.3775 14.1586L15.3775 12.0345C15.3775 11.4955 15.5144 11.0994 16.1005 11.0845C16.3481 11.0845 16.6329 11.0328 16.8093 10.8703C16.966 10.7572 17.0591 10.5579 17.0591 10.3075C17.0591 9.84921 16.808 9.54199 16.3646 9.54199C15.7844 9.54199 15.4741 10.0739 15.3798 10.6393L15.3063 10.6393L15.3063 10.3575C15.3063 9.86589 15.0243 9.54199 14.5793 9.54199C14.1245 9.54199 13.835 9.86589 13.835 10.3575L13.835 14.1586C13.835 14.6571 14.14 14.9936 14.6063 14.9936Z"
                     fill="currentColor" fill-opacity="0.85" />
       </g>
</svg>