<?xml version="1.0" encoding="UTF-8"?>
<!--Generator: Apple Native CoreSVG 326-->
<!DOCTYPE svg PUBLIC "-//W3C//DTD SVG 1.1//EN" "http://www.w3.org/Graphics/SVG/1.1/DTD/svg11.dtd">
<svg version="1.1" xmlns="http://www.w3.org/2000/svg" xmlns:xlink="http://www.w3.org/1999/xlink"
       viewBox="0 0 24.6449 23.5952">
       <g>
              <rect height="23.5952" opacity="0" width="24.6449" x="0" y="0" />
              <path d="M13.7186 0.416404L22.6254 5.55167C23.136 5.85374 23.3841 6.25686 23.3841 6.69158C23.3841 7.28595 22.9074 7.89293 22.1092 7.89293L21.3244 7.89293L21.3244 19.392L21.7032 19.392C22.2379 19.392 22.5744 19.7159 22.5744 20.2632L22.5744 21.1701L23.0673 21.1701C23.7134 21.1701 24.2836 21.7231 24.2836 22.3766C24.2836 23.0525 23.7134 23.5854 23.0673 23.5854L1.20651 23.5854C0.553002 23.5854 0 23.045 0 22.3766C0 21.7231 0.553002 21.1701 1.20651 21.1701L1.94045 21.1701L1.94045 20.2632C1.94045 19.7159 2.27927 19.392 2.81396 19.392L3.19045 19.392L3.19045 7.89293L2.41314 7.89293C1.60745 7.89293 1.13081 7.28595 1.13081 6.69158C1.13081 6.25686 1.37659 5.85374 1.88944 5.55167L10.7963 0.416404C11.242 0.154491 11.7664 0 12.2563 0C12.7462 0 13.2683 0.154491 13.7186 0.416404ZM7.99192 9.63977L7.99192 15.7418C7.99192 16.2649 8.35313 16.6336 8.86422 16.6336C9.373 16.6336 9.73936 16.2649 9.73936 15.7418L9.73936 14.7886L10.1709 14.3766L11.1937 16.0497C11.3878 16.3919 11.641 16.6336 12.0573 16.6336C12.5144 16.6336 12.9054 16.3091 12.9054 15.8842C12.9054 15.5661 12.8245 15.4168 12.682 15.2003L11.4767 13.3848L12.6073 12.2559C12.8312 12.0222 12.9467 11.8298 12.9467 11.5869C12.9467 11.1465 12.6125 10.8226 12.1726 10.8226C11.8723 10.8226 11.6317 10.965 11.4422 11.1866L9.7612 13.0474L9.73936 13.0474L9.73936 9.64207C9.73936 9.10915 9.373 8.74048 8.86422 8.74048C8.35313 8.74048 7.99192 9.10685 7.99192 9.63977ZM15.5699 11.9985L15.4889 11.9985L15.4889 11.6949C15.4889 11.1735 15.1822 10.8226 14.7125 10.8226C14.2181 10.8226 13.9039 11.1735 13.9039 11.6949L13.9039 15.7418C13.9039 16.2649 14.2485 16.6336 14.732 16.6336C15.1948 16.6336 15.5676 16.2908 15.5676 15.7418L15.5676 13.4828C15.5676 12.9116 15.7067 12.5011 16.3273 12.4713C16.5921 12.4713 16.9016 12.4219 17.0854 12.2496C17.2669 12.1216 17.3599 11.9102 17.3599 11.6449C17.3599 11.147 17.0917 10.8226 16.6087 10.8226C16.0014 10.8226 15.6641 11.3815 15.5699 11.9985Z"
                     fill="currentColor" fill-opacity="0.85" />
       </g>
</svg>