<?xml version="1.0" encoding="UTF-8"?>
<!--Generator: Apple Native CoreSVG 326-->
<!DOCTYPE svg PUBLIC "-//W3C//DTD SVG 1.1//EN" "http://www.w3.org/Graphics/SVG/1.1/DTD/svg11.dtd">
<svg version="1.1" xmlns="http://www.w3.org/2000/svg" xmlns:xlink="http://www.w3.org/1999/xlink"
       viewBox="0 0 21.365 21.006">
       <g>
              <rect height="21.006" opacity="0" width="21.365" x="0" y="0" />
              <path d="M21.0037 10.4981C21.0037 16.2923 16.302 20.9962 10.4981 20.9962C4.70394 20.9962 0 16.2923 0 10.4981C0 4.70163 4.70394 0 10.4981 0C16.302 0 21.0037 4.70163 21.0037 10.4981ZM6.22398 7.18004L6.22398 13.282C6.22398 13.8127 6.58519 14.1813 7.09627 14.1813C7.61252 14.1813 7.97888 13.8127 7.97888 13.282L7.97888 12.3312L8.40299 11.9266L9.43317 13.5922C9.62727 13.9322 9.87305 14.1813 10.2893 14.1813C10.7464 14.1813 11.1472 13.8494 11.1472 13.4245C11.1472 13.1064 11.064 12.957 10.9215 12.7406L9.71625 10.9348L10.8468 9.8036C11.0708 9.56243 11.1787 9.37009 11.1787 9.12716C11.1787 8.68674 10.852 8.36514 10.4046 8.36514C10.1141 8.36514 9.87117 8.50525 9.68168 8.7292L8.00072 10.5952L7.97888 10.5952L7.97888 7.18235C7.97888 6.65919 7.61252 6.28075 7.09627 6.28075C6.58519 6.28075 6.22398 6.64942 6.22398 7.18004ZM13.8019 9.53877L13.7284 9.53877L13.7284 9.23513C13.7284 8.71373 13.4217 8.36514 12.952 8.36514C12.4576 8.36514 12.1435 8.71373 12.1435 9.23513L12.1435 13.282C12.1435 13.815 12.4805 14.1813 12.9715 14.1813C13.4343 14.1813 13.7996 13.8334 13.7996 13.282L13.7996 11.023C13.7996 10.4594 13.9462 10.0414 14.5669 10.0115C14.8316 10.0115 15.1411 9.96215 15.3249 9.78989C15.499 9.66931 15.592 9.45052 15.592 9.18521C15.592 8.68959 15.3237 8.36514 14.8482 8.36514C14.2335 8.36514 13.8962 8.92924 13.8019 9.53877Z"
                     fill="currentColor" fill-opacity="0.85" />
       </g>
</svg>