<?xml version="1.0" encoding="UTF-8"?>
<!--Generator: Apple Native CoreSVG 326-->
<!DOCTYPE svg PUBLIC "-//W3C//DTD SVG 1.1//EN" "http://www.w3.org/Graphics/SVG/1.1/DTD/svg11.dtd">
<svg version="1.1" xmlns="http://www.w3.org/2000/svg" xmlns:xlink="http://www.w3.org/1999/xlink"
       viewBox="0 0 22.6374 22.2784">
       <g>
              <rect height="22.2784" opacity="0" width="22.6374" x="0" y="0" />
              <path d="M11.1343 22.2687C17.2722 22.2687 22.2761 17.2722 22.2761 11.1343C22.2761 4.99648 17.2722 0 11.1343 0C4.99648 0 0 4.99648 0 11.1343C0 17.2722 4.99648 22.2687 11.1343 22.2687ZM11.1343 18.2927C7.17804 18.2927 3.97601 15.0906 3.97601 11.1343C3.97601 7.17573 7.17804 3.97601 11.1343 3.97601C15.0929 3.97601 18.3001 7.17573 18.3001 11.1343C18.3001 15.0906 15.0929 18.2927 11.1343 18.2927Z"
                     fill="currentColor" fill-opacity="0.85" />
              <path d="M7.97651 14.5712C8.45315 14.5712 8.78737 14.2324 8.78737 13.7362L8.78737 12.8319L9.1994 12.4469L10.1733 14.0292C10.3502 14.3444 10.5885 14.5712 10.9726 14.5712C11.3901 14.5712 11.7737 14.2617 11.7737 13.8689C11.7737 13.583 11.6904 13.4336 11.5578 13.2344L10.4162 11.5291L11.483 10.4542C11.6995 10.2354 11.7977 10.0528 11.7977 9.82483C11.7977 9.42401 11.4882 9.11964 11.073 9.11964C10.8072 9.11964 10.5717 9.25229 10.3994 9.45155L8.81666 11.2118L8.78737 11.2118L8.78737 8.0006C8.78737 7.50443 8.45315 7.1633 7.97651 7.1633C7.49757 7.1633 7.16105 7.50212 7.16105 7.99829L7.16105 13.7362C7.16105 14.2324 7.49757 14.5712 7.97651 14.5712ZM13.4746 14.5712C13.9052 14.5712 14.2458 14.2606 14.2458 13.7362L14.2458 11.6099C14.2458 11.0732 14.3826 10.6747 14.9763 10.6598C15.2164 10.6598 15.5087 10.603 15.6775 10.4479C15.8418 10.3274 15.9348 10.1333 15.9348 9.88287C15.9348 9.4194 15.6763 9.11964 15.2404 9.11964C14.6601 9.11964 14.3424 9.64929 14.2481 10.2169L14.1821 10.2169L14.1821 9.93279C14.1821 9.44354 13.8926 9.11964 13.455 9.11964C13.0002 9.11964 12.7033 9.44354 12.7033 9.93279L12.7033 13.7362C12.7033 14.2347 13.0157 14.5712 13.4746 14.5712Z"
                     fill="currentColor" fill-opacity="0.85" />
       </g>
</svg>