<?xml version="1.0" encoding="UTF-8"?>
<!--Generator: Apple Native CoreSVG 326-->
<!DOCTYPE svg PUBLIC "-//W3C//DTD SVG 1.1//EN" "http://www.w3.org/Graphics/SVG/1.1/DTD/svg11.dtd">
<svg version="1.1" xmlns="http://www.w3.org/2000/svg" xmlns:xlink="http://www.w3.org/1999/xlink"
       viewBox="0 0 21.6138 20.1323">
       <g>
              <rect height="20.1323" opacity="0" width="21.6138" x="0" y="0" />
              <path d="M0 15.2525C0 18.141 2.01718 20.1323 5.01771 20.1323C6.06239 20.1323 7.17313 19.7619 8.10796 18.9787C7.12848 18.6312 6.39412 17.9858 5.84154 17.269C5.55725 17.4338 5.2769 17.4797 5.004 17.4797C4.15615 17.4797 3.5869 16.9513 3.5869 16.1753C3.5869 15.4212 4.1601 14.9146 4.94529 14.9146C5.61275 14.9146 6.07744 15.3282 6.58118 15.8509C7.45791 16.7707 8.42009 17.9335 10.6225 17.9335C12.8324 17.9335 13.802 16.7782 14.6713 15.8509C15.1676 15.3207 15.6397 14.9146 16.3072 14.9146C17.0826 14.9146 17.6656 15.4212 17.6656 16.1753C17.6656 16.9513 17.0963 17.4797 16.2462 17.4797C15.9756 17.4797 15.6952 17.4338 15.4086 17.269C14.8584 17.9858 14.124 18.6312 13.1445 18.9787C14.0794 19.7619 15.1901 20.1323 16.2273 20.1323C19.2279 20.1323 21.2525 18.141 21.2525 15.2525C21.2525 12.4141 19.1429 10.4324 16.6893 10.276C15.6806 7.92198 14.985 5.63198 14.5305 3.71052C13.9768 1.3476 12.6702 0.113853 10.6225 0.113853C8.58229 0.113853 7.28316 1.3476 6.71457 3.71052C6.26007 5.63198 5.56441 7.92198 4.56316 10.276C2.10956 10.4324 0 12.4141 0 15.2525Z"
                     fill="currentColor" fill-opacity="0.85" />
       </g>
</svg>