<?xml version="1.0" encoding="UTF-8"?>
<!--Generator: Apple Native CoreSVG 326-->
<!DOCTYPE svg PUBLIC "-//W3C//DTD SVG 1.1//EN" "http://www.w3.org/Graphics/SVG/1.1/DTD/svg11.dtd">
<svg version="1.1" xmlns="http://www.w3.org/2000/svg" xmlns:xlink="http://www.w3.org/1999/xlink"
       viewBox="0 0 19.2346 18.883">
       <g>
              <rect height="18.883" opacity="0" width="19.2346" x="0" y="0" />
              <path d="M17.5442 1.33886C16.5108 0.312925 15.1567 0 13.0243 0L5.84209 0C3.72398 0 2.36249 0.312925 1.3291 1.33886C0.303159 2.3648 0 3.7016 0 5.84209L0 13.0243C0 15.1717 0.303159 16.5085 1.3291 17.5344C2.36995 18.5603 3.72398 18.8733 5.8467 18.8733L13.0243 18.8733C15.1567 18.8733 16.5182 18.5603 17.5442 17.5344C18.5701 16.501 18.8733 15.1717 18.8733 13.0243L18.8733 5.8467C18.8733 3.69929 18.5701 2.35734 17.5442 1.33886ZM15.8536 5.57557L15.8536 13.2977C15.8536 14.3409 15.7192 14.9232 15.3249 15.3152C14.933 15.702 14.3409 15.8536 13.3051 15.8536L5.57557 15.8536C4.53986 15.8536 3.94028 15.702 3.54602 15.3152C3.16152 14.9232 3.01964 14.3409 3.01964 13.2977L3.01964 5.58248C3.01964 4.52494 3.16152 3.95005 3.54602 3.55578C3.94028 3.17128 4.54217 3.01964 5.58248 3.01964L13.3051 3.01964C14.3409 3.01964 14.933 3.17128 15.3249 3.55809C15.7192 3.95005 15.8536 4.52494 15.8536 5.57557Z"
                     fill="currentColor" fill-opacity="0.85" />
              <path d="M9.44409 14.3203C12.143 14.3203 14.3353 12.1258 14.3353 9.42917C14.3353 6.72506 12.143 4.53052 9.44409 4.53052C6.73998 4.53052 4.54775 6.72506 4.54775 9.42917C4.54775 12.1258 6.73998 14.3203 9.44409 14.3203ZM9.44639 12.1806C7.91895 12.1806 6.69722 10.9491 6.69722 9.42917C6.69722 7.90173 7.91895 6.67023 9.44639 6.67023C10.9687 6.67023 12.1979 7.90173 12.1979 9.42917C12.1979 10.9491 10.9687 12.1806 9.44639 12.1806ZM11.2189 12.6122L12.6219 11.1443L7.69914 6.22895L6.2588 7.66183Z"
                     fill="currentColor" fill-opacity="0.85" />
       </g>
</svg>