<?xml version="1.0" encoding="UTF-8"?>
<!--Generator: Apple Native CoreSVG 326-->
<!DOCTYPE svg PUBLIC "-//W3C//DTD SVG 1.1//EN" "http://www.w3.org/Graphics/SVG/1.1/DTD/svg11.dtd">
<svg version="1.1" xmlns="http://www.w3.org/2000/svg" xmlns:xlink="http://www.w3.org/1999/xlink"
       viewBox="0 0 19.2346 18.883">
       <g>
              <rect height="18.883" opacity="0" width="19.2346" x="0" y="0" />
              <path d="M17.5442 1.33886C18.5701 2.35734 18.8733 3.69929 18.8733 5.8467L18.8733 13.0243C18.8733 15.1717 18.5701 16.501 17.5442 17.5344C16.5182 18.5603 15.1567 18.8733 13.0243 18.8733L5.8467 18.8733C3.72398 18.8733 2.36995 18.5603 1.3291 17.5344C0.303159 16.5085 0 15.1717 0 13.0243L0 5.84209C0 3.7016 0.303159 2.3648 1.3291 1.33886C2.36249 0.312925 3.72398 0 5.84209 0L13.0243 0C15.1567 0 16.5108 0.312925 17.5442 1.33886ZM4.22045 9.42917C4.22045 12.3032 6.55795 14.643 9.43948 14.643C12.3158 14.643 14.6534 12.3032 14.6534 9.42917C14.6534 6.54764 12.3158 4.20783 9.43948 4.20783C6.55795 4.20783 4.22045 6.54764 4.22045 9.42917ZM10.5802 12.0843C10.2335 12.2528 9.84945 12.3478 9.44178 12.3478C7.82591 12.3478 6.5255 11.0376 6.5255 9.42917C6.5255 9.01404 6.62043 8.62996 6.78669 8.29078ZM12.3627 9.42917C12.3627 9.82937 12.2654 10.2083 12.1043 10.5326L8.33093 6.75915C8.66266 6.60551 9.04388 6.51058 9.44178 6.51058C11.0525 6.51058 12.3627 7.81329 12.3627 9.42917Z"
                     fill="currentColor" fill-opacity="0.85" />
       </g>
</svg>