<?xml version="1.0" encoding="UTF-8"?>
<!--Generator: Apple Native CoreSVG 326-->
<!DOCTYPE svg PUBLIC "-//W3C//DTD SVG 1.1//EN" "http://www.w3.org/Graphics/SVG/1.1/DTD/svg11.dtd">
<svg version="1.1" xmlns="http://www.w3.org/2000/svg" xmlns:xlink="http://www.w3.org/1999/xlink"
       viewBox="0 0 21.365 21.006">
       <g>
              <rect height="21.006" opacity="0" width="21.365" x="0" y="0" />
              <path d="M21.0037 10.4981C21.0037 16.2923 16.302 20.9962 10.4981 20.9962C4.70394 20.9962 0 16.2923 0 10.4981C0 4.70163 4.70394 0 10.4981 0C16.302 0 21.0037 4.70163 21.0037 10.4981ZM11.9958 5.46086L11.0196 7.18477L7.07462 7.18477C6.16448 7.18477 5.58909 7.6648 5.58909 8.46589C5.58909 9.26697 6.18401 9.7447 7.07462 9.7447L9.64801 9.7447L8.71791 11.3084L7.07462 11.3084C6.16448 11.3084 5.58909 11.7907 5.58909 12.5918C5.58909 13.3906 6.18401 13.8683 7.07462 13.8683L7.34405 13.8683L7.09385 14.2633C6.75666 14.8572 6.94033 15.4533 7.49224 15.7635C8.07399 16.0886 8.6902 15.8773 9.00039 15.3081L9.82974 13.8683L13.9118 13.8683C14.8099 13.8683 15.4048 13.3906 15.4048 12.5918C15.4048 11.8056 14.822 11.3084 13.9268 11.3084L11.2162 11.3084L12.1389 9.7447L13.9118 9.7447C14.8099 9.7447 15.4048 9.26697 15.4048 8.46589C15.4048 7.67972 14.822 7.18477 13.9268 7.18477L13.5081 7.18477L13.8978 6.4982C14.22 5.90669 14.0582 5.32548 13.4891 5.00036C12.9125 4.68271 12.3158 4.87966 11.9958 5.46086Z"
                     fill="currentColor" fill-opacity="0.85" />
       </g>
</svg>