<?xml version="1.0" encoding="UTF-8"?>
<!--Generator: Apple Native CoreSVG 326-->
<!DOCTYPE svg PUBLIC "-//W3C//DTD SVG 1.1//EN" "http://www.w3.org/Graphics/SVG/1.1/DTD/svg11.dtd">
<svg version="1.1" xmlns="http://www.w3.org/2000/svg" xmlns:xlink="http://www.w3.org/1999/xlink"
       viewBox="0 0 19.3993 19.0529">
       <g>
              <rect height="19.0529" opacity="0" width="19.3993" x="0" y="0" />
              <path d="M3.64834 19.0379L15.3896 19.0379C17.7164 19.0379 19.0379 17.7262 19.0379 15.4011L19.0379 3.63912C19.0379 1.32151 17.7164 0 15.3896 0L3.64834 0C1.32382 0 0 1.32151 0 3.63912L0 15.4011C0 17.7262 1.32382 19.0379 3.64834 19.0379ZM4.05583 16.0183C3.37024 16.0183 3.01964 15.7096 3.01964 14.9775L3.01964 4.07021C3.01964 3.33809 3.37024 3.0271 4.05583 3.0271L14.9821 3.0271C15.6654 3.0271 16.0183 3.33809 16.0183 4.07021L16.0183 14.9775C16.0183 15.7096 15.6654 16.0183 14.9821 16.0183Z"
                     fill="currentColor" fill-opacity="0.85" />
              <path d="M6.30477 12.6621L12.7332 12.6621C13.5669 12.6621 14.1199 12.209 14.1199 11.4746C14.1199 10.7378 13.579 10.2824 12.7406 10.2824L6.30477 10.2824C5.45893 10.2824 4.91799 10.7228 4.91799 11.4746C4.91799 12.209 5.471 12.6621 6.30477 12.6621ZM6.30477 8.8049L12.7332 8.8049C13.5669 8.8049 14.1199 8.35186 14.1199 7.61507C14.1199 6.87082 13.579 6.41547 12.7406 6.41547L6.30477 6.41547C5.45893 6.41547 4.91799 6.86335 4.91799 7.61507C4.91799 8.35186 5.471 8.8049 6.30477 8.8049ZM6.70001 14.4465C7.23239 14.7543 7.81645 14.543 8.10941 14.0158L12.7214 5.77082C13.0144 5.21891 12.8675 4.65723 12.3328 4.36426C11.8055 4.05637 11.2336 4.26078 10.9383 4.80008L6.324 13.0376C6.01381 13.5918 6.17279 14.1609 6.70001 14.4465Z"
                     fill="currentColor" fill-opacity="0.85" />
       </g>
</svg>