<?xml version="1.0" encoding="UTF-8"?>
<!--Generator: Apple Native CoreSVG 326-->
<!DOCTYPE svg PUBLIC "-//W3C//DTD SVG 1.1//EN" "http://www.w3.org/Graphics/SVG/1.1/DTD/svg11.dtd">
<svg version="1.1" xmlns="http://www.w3.org/2000/svg" xmlns:xlink="http://www.w3.org/1999/xlink"
       viewBox="0 0 18.2292 19.4372">
       <g>
              <rect height="19.4372" opacity="0" width="18.2292" x="0" y="0" />
              <path d="M3.88241 19.3741C4.86595 19.3741 5.47633 18.8814 5.67844 17.8434L8.82673 1.92244C8.86118 1.77431 8.88818 1.52799 8.88818 1.36373C8.88818 0.534562 8.34264 0 7.41132 0C6.40188 0 5.81224 0.511634 5.61244 1.54509L2.46415 17.4614C2.4297 17.6262 2.41017 17.8702 2.41017 18.0201C2.41017 18.8493 2.95856 19.3741 3.88241 19.3741ZM10.2823 19.3741C11.2756 19.3741 11.8837 18.8814 12.0932 17.8434L15.2364 1.92244C15.2611 1.77431 15.2881 1.52799 15.2881 1.36373C15.2881 0.534562 14.7425 0 13.821 0C12.8018 0 12.2294 0.526556 12.0221 1.54509L8.87149 17.4614C8.8445 17.6262 8.81981 17.8702 8.81981 18.0201C8.81981 18.8493 9.36075 19.3741 10.2823 19.3741ZM2.74463 7.96754L16.0047 7.96754C17.1611 7.96754 17.8679 7.26357 17.8679 6.19905C17.8679 5.35902 17.2914 4.81348 16.3372 4.81348L3.08454 4.81348C1.92304 4.81348 1.21391 5.50715 1.21391 6.57397C1.21391 7.4163 1.80015 7.96754 2.74463 7.96754ZM1.53072 14.2485L14.7684 14.2485C15.9374 14.2485 16.639 13.5819 16.639 12.5173C16.639 11.6773 16.0603 11.1169 15.1158 11.1169L1.86317 11.1169C0.699365 11.1169 0 11.8031 0 12.8699C0 13.7197 0.569015 14.2485 1.53072 14.2485Z"
                     fill="currentColor" fill-opacity="0.85" />
       </g>
</svg>