<?xml version="1.0" encoding="UTF-8"?>
<!--Generator: Apple Native CoreSVG 326-->
<!DOCTYPE svg PUBLIC "-//W3C//DTD SVG 1.1//EN" "http://www.w3.org/Graphics/SVG/1.1/DTD/svg11.dtd">
<svg version="1.1" xmlns="http://www.w3.org/2000/svg" xmlns:xlink="http://www.w3.org/1999/xlink"
       viewBox="0 0 19.3993 19.0529">
       <g>
              <rect height="19.0529" opacity="0" width="19.3993" x="0" y="0" />
              <path d="M3.64834 19.0379L15.3896 19.0379C17.7164 19.0379 19.0379 17.7262 19.0379 15.4011L19.0379 3.63912C19.0379 1.32151 17.7164 0 15.3896 0L3.64834 0C1.32382 0 0 1.32151 0 3.63912L0 15.4011C0 17.7262 1.32382 19.0379 3.64834 19.0379ZM4.05583 16.0183C3.37024 16.0183 3.01964 15.7096 3.01964 14.9775L3.01964 4.07021C3.01964 3.33809 3.37024 3.0271 4.05583 3.0271L14.9821 3.0271C15.6654 3.0271 16.0183 3.33809 16.0183 4.07021L16.0183 14.9775C16.0183 15.7096 15.6654 16.0183 14.9821 16.0183Z"
                     fill="currentColor" fill-opacity="0.85" />
              <path d="M7.13346 14.1156C7.75306 14.1156 8.11427 13.8233 8.24462 13.2008L8.49755 11.9219L9.52312 11.9219L9.30925 13.0302C9.19898 13.6544 9.57171 14.1156 10.2108 14.1156C10.8402 14.1156 11.2209 13.8009 11.3438 13.1784L11.6042 11.9196L12.1051 11.9196C12.7321 11.9196 13.1622 11.4872 13.1622 10.8773C13.1622 10.3513 12.816 10.0027 12.3146 10.0027L12.0022 10.0027L12.2132 8.90813L12.6865 8.90813C13.321 8.90813 13.7586 8.47572 13.7586 7.86588C13.7586 7.33987 13.4123 6.98382 12.911 6.98382L12.5716 6.98382L12.7585 6.00817C12.8813 5.4138 12.4466 4.91533 11.8373 4.91533C11.2327 4.91533 10.8468 5.20763 10.7388 5.82493L10.5128 6.98382L9.45743 6.98382L9.65693 6.00817C9.77466 5.4161 9.35717 4.91533 8.73296 4.91533C8.12597 4.91533 7.755 5.20763 7.63957 5.82493L7.41593 6.98382L6.92541 6.98382C6.30065 6.98382 5.86823 7.40877 5.86823 8.02607C5.86823 8.54462 6.20706 8.90813 6.70322 8.90813L7.06043 8.90813L6.82933 10.0027L6.35142 10.0027C5.7169 10.0027 5.27932 10.4351 5.27932 11.045C5.27932 11.5635 5.62561 11.9196 6.12693 11.9196L6.45605 11.9196L6.23472 13.0227C6.10437 13.6469 6.49432 14.1156 7.13346 14.1156ZM8.65841 10.2915L8.96588 8.72095L10.3715 8.72095L10.0767 10.2915Z"
                     fill="currentColor" fill-opacity="0.85" />
       </g>
</svg>