<?xml version="1.0" encoding="UTF-8"?>
<!--Generator: Apple Native CoreSVG 326-->
<!DOCTYPE svg PUBLIC "-//W3C//DTD SVG 1.1//EN" "http://www.w3.org/Graphics/SVG/1.1/DTD/svg11.dtd">
<svg version="1.1" xmlns="http://www.w3.org/2000/svg" xmlns:xlink="http://www.w3.org/1999/xlink"
       viewBox="0 0 21.365 21.006">
       <g>
              <rect height="21.006" opacity="0" width="21.365" x="0" y="0" />
              <path d="M10.4981 20.9962C16.302 20.9962 21.0037 16.2946 21.0037 10.4981C21.0037 4.70163 16.302 0 10.4981 0C4.70163 0 0 4.70163 0 10.4981C0 16.2946 4.70163 20.9962 10.4981 20.9962ZM10.4981 17.9484C6.37829 17.9484 3.04785 14.6179 3.04785 10.4981C3.04785 6.37829 6.37829 3.04785 10.4981 3.04785C14.6179 3.04785 17.9558 6.37829 17.9558 10.4981C17.9558 14.6179 14.6179 17.9484 10.4981 17.9484Z"
                     fill="currentColor" fill-opacity="0.85" />
              <path d="M8.1031 15.0921C8.72501 15.0921 9.08622 14.7998 9.21426 14.1774L9.4695 12.8985L10.4951 12.8985L10.2812 14.0068C10.1709 14.631 10.5437 15.0921 11.1828 15.0921C11.8122 15.0921 12.1929 14.7775 12.3158 14.155L12.5762 12.8961L13.077 12.8961C13.7041 12.8961 14.1342 12.4637 14.1342 11.8539C14.1342 11.3279 13.7954 10.9793 13.294 10.9793L12.9742 10.9793L13.1852 9.8847L13.6585 9.8847C14.293 9.8847 14.7306 9.45228 14.7306 8.84244C14.7306 8.31643 14.3843 7.96038 13.883 7.96038L13.5435 7.96038L13.7304 6.98473C13.851 6.39036 13.4186 5.89189 12.8093 5.89189C12.2046 5.89189 11.8187 6.18419 11.7107 6.80149L11.4923 7.96038L10.4294 7.96038L10.6363 6.98473C10.7466 6.39267 10.3291 5.89189 9.70491 5.89189C9.09792 5.89189 8.72695 6.18419 8.61152 6.80149L8.38558 7.96038L7.89736 7.96038C7.2703 7.96038 6.84018 8.38534 6.84018 9.00263C6.84018 9.52118 7.18647 9.8847 7.67518 9.8847L8.03238 9.8847L7.80128 10.9793L7.32337 10.9793C6.68885 10.9793 6.25874 11.4117 6.25874 12.0215C6.25874 12.5401 6.59756 12.8961 7.09888 12.8961L7.4257 12.8961L7.20667 13.9993C7.07632 14.6235 7.46628 15.0921 8.1031 15.0921ZM9.63036 11.2681L9.93783 9.69751L11.3435 9.69751L11.0463 11.2681Z"
                     fill="currentColor" fill-opacity="0.85" />
       </g>
</svg>