<?xml version="1.0" encoding="UTF-8"?>
<!--Generator: Apple Native CoreSVG 326-->
<!DOCTYPE svg PUBLIC "-//W3C//DTD SVG 1.1//EN" "http://www.w3.org/Graphics/SVG/1.1/DTD/svg11.dtd">
<svg version="1.1" xmlns="http://www.w3.org/2000/svg" xmlns:xlink="http://www.w3.org/1999/xlink"
       viewBox="0 0 19.3993 19.0529">
       <g>
              <rect height="19.0529" opacity="0" width="19.3993" x="0" y="0" />
              <path d="M19.0379 3.63912L19.0379 15.4011C19.0379 17.7262 17.7164 19.0379 15.3896 19.0379L3.64834 19.0379C1.32382 19.0379 0 17.7262 0 15.4011L0 3.63912C0 1.32151 1.32382 0 3.64834 0L15.3896 0C17.7164 0 19.0379 1.32151 19.0379 3.63912ZM4.96694 9.50826C4.96694 12.5217 6.94803 14.3227 9.60592 14.3227C12.2736 14.3227 14.2472 12.5217 14.2472 9.50826C14.2472 6.49256 12.2736 4.69897 9.60592 4.69897C6.94803 4.69897 4.96694 6.49256 4.96694 9.50826ZM11.2533 9.50826C11.2533 11.0874 10.5573 11.9117 9.60592 11.9117C8.66199 11.9117 7.96596 11.0874 7.96596 9.50826C7.96596 7.92684 8.66199 7.10253 9.60592 7.10253C10.5573 7.10253 11.2533 7.92684 11.2533 9.50826Z"
                     fill="currentColor" fill-opacity="0.85" />
       </g>
</svg>