<?xml version="1.0" encoding="UTF-8"?>
<!--Generator: Apple Native CoreSVG 326-->
<!DOCTYPE svg PUBLIC "-//W3C//DTD SVG 1.1//EN" "http://www.w3.org/Graphics/SVG/1.1/DTD/svg11.dtd">
<svg version="1.1" xmlns="http://www.w3.org/2000/svg" xmlns:xlink="http://www.w3.org/1999/xlink"
       viewBox="0 0 19.3993 19.0529">
       <g>
              <rect height="19.0529" opacity="0" width="19.3993" x="0" y="0" />
              <path d="M3.64834 19.0379L15.3896 19.0379C17.7164 19.0379 19.0379 17.7262 19.0379 15.4011L19.0379 3.63912C19.0379 1.32151 17.7164 0 15.3896 0L3.64834 0C1.32382 0 0 1.32151 0 3.63912L0 15.4011C0 17.7262 1.32382 19.0379 3.64834 19.0379ZM4.05583 16.0183C3.37024 16.0183 3.01964 15.7096 3.01964 14.9775L3.01964 4.07021C3.01964 3.33809 3.37024 3.0271 4.05583 3.0271L14.9821 3.0271C15.6654 3.0271 16.0183 3.33809 16.0183 4.07021L16.0183 14.9775C16.0183 15.7096 15.6654 16.0183 14.9821 16.0183Z"
                     fill="currentColor" fill-opacity="0.85" />
              <path d="M9.52385 14.0196C12.0164 14.0196 13.8643 12.3293 13.8643 9.50826C13.8643 6.69237 12.0164 4.99466 9.52385 4.99466C7.02616 4.99466 5.17827 6.69237 5.17827 9.50826C5.17827 12.3293 7.02616 14.0196 9.52385 14.0196ZM9.52385 11.7744C8.62129 11.7744 7.96202 10.9989 7.96202 9.50826C7.96202 8.01528 8.62129 7.24725 9.52385 7.24725C10.419 7.24725 11.0782 8.01528 11.0782 9.50826C11.0782 10.9989 10.419 11.7744 9.52385 11.7744Z"
                     fill="currentColor" fill-opacity="0.85" />
       </g>
</svg>