<?xml version="1.0" encoding="UTF-8"?>
<!--Generator: Apple Native CoreSVG 326-->
<!DOCTYPE svg PUBLIC "-//W3C//DTD SVG 1.1//EN" "http://www.w3.org/Graphics/SVG/1.1/DTD/svg11.dtd">
<svg version="1.1" xmlns="http://www.w3.org/2000/svg" xmlns:xlink="http://www.w3.org/1999/xlink"
       viewBox="0 0 22.2788 19.4112">
       <g>
              <rect height="19.4112" opacity="0" width="22.2788" x="0" y="0" />
              <path d="M18.8479 2.09849L17.0373 0.287908C16.6486-0.093376 16.033-0.0910711 15.6615 0.287908C15.29 0.651966 15.2802 1.27497 15.6615 1.65394L17.4721 3.46683C17.8683 3.86073 18.4614 3.84351 18.8479 3.46683C19.2269 3.07809 19.2366 2.48493 18.8479 2.09849ZM5.21871 12.539L6.58705 13.9148L18.3031 2.20852L16.9347 0.83272ZM0.894179 18.2342C1.85394 19.1916 3.08241 19.4518 3.83072 18.6839L7.70349 14.7991C8.38587 14.1213 8.76091 13.443 8.86603 12.7331L9.18884 10.7067L8.43427 9.9395L6.40042 10.2623C5.70026 10.3726 5.02195 10.7499 4.34187 11.43L0.44957 15.3051C-0.30851 16.0534-0.0730427 17.2819 0.894179 18.2342ZM3.06955 2.09849C2.67565 2.48493 2.69288 3.07809 3.06955 3.46683C3.45829 3.84351 4.05145 3.86073 4.43789 3.46683L6.24847 1.65394C6.63722 1.27497 6.61999 0.651966 6.24847 0.287908C5.87696-0.0910711 5.26888-0.100837 4.88013 0.287908ZM16.6987 12.539L4.9827 0.83272L3.6069 2.20852L15.3229 13.9148ZM21.0158 18.2342C21.9905 17.2819 22.2334 16.0459 21.4604 15.3051L17.5756 11.43C16.903 10.7425 16.2195 10.3875 15.5096 10.2623L13.4832 9.9395L12.7234 10.7067L13.0514 12.7331C13.164 13.443 13.5166 14.1288 14.2065 14.7991L18.0793 18.6839C18.8201 19.4592 20.0583 19.1916 21.0158 18.2342Z"
                     fill="currentColor" fill-opacity="0.85" />
       </g>
</svg>