<?xml version="1.0" encoding="UTF-8"?>
<!--Generator: Apple Native CoreSVG 326-->
<!DOCTYPE svg PUBLIC "-//W3C//DTD SVG 1.1//EN" "http://www.w3.org/Graphics/SVG/1.1/DTD/svg11.dtd">
<svg version="1.1" xmlns="http://www.w3.org/2000/svg" xmlns:xlink="http://www.w3.org/1999/xlink"
       viewBox="0 0 21.365 21.006">
       <g>
              <rect height="21.006" opacity="0" width="21.365" x="0" y="0" />
              <path d="M21.0037 10.4981C21.0037 16.2923 16.302 20.9962 10.4981 20.9962C4.70394 20.9962 0 16.2923 0 10.4981C0 4.70163 4.70394 0 10.4981 0C16.302 0 21.0037 4.70163 21.0037 10.4981ZM7.43947 5.4531L6.51568 6.35221C6.32673 6.54631 6.3365 6.84091 6.51568 7.02986C6.72185 7.23603 7.0113 7.24579 7.22262 7.02986L7.31755 6.93724L9.81124 9.40854L8.861 10.3565L8.20834 10.4685C7.85909 10.5196 7.53166 10.7103 7.18241 11.0521L5.23486 13.0048C4.85291 13.3673 4.97295 13.9813 5.46408 14.4529C5.93568 14.9291 6.5497 15.0641 6.91958 14.6844L8.86713 12.7294C9.20146 12.3853 9.38986 12.0579 9.441 11.6937L9.55072 11.0583L10.5033 10.0983L11.446 11.0508L11.5483 11.6937C11.6069 12.0579 11.7804 12.4002 12.1371 12.7294L14.0795 14.6844C14.4396 15.0641 15.0611 14.9291 15.5401 14.4529C16.0164 13.9813 16.1439 13.3673 15.7642 13.0048L13.8069 11.0521C13.4651 10.7029 13.1302 10.5271 12.781 10.4685L12.1432 10.3565L11.1855 9.40854L13.6792 6.93724L13.7741 7.02986C13.978 7.24579 14.2749 7.23603 14.4736 7.02986C14.6626 6.84091 14.6649 6.54631 14.4736 6.35221L13.5619 5.4531C13.3632 5.24693 13.0514 5.24924 12.8722 5.4531C12.6809 5.63459 12.6786 5.94642 12.8722 6.1279L12.982 6.23259L10.4958 8.72398L8.00957 6.24752L8.12458 6.1279C8.31813 5.94642 8.30837 5.63459 8.12458 5.4531C7.93794 5.24924 7.63357 5.23947 7.43947 5.4531Z"
                     fill="currentColor" fill-opacity="0.85" />
       </g>
</svg>