<?xml version="1.0" encoding="UTF-8"?>
<!--Generator: Apple Native CoreSVG 326-->
<!DOCTYPE svg PUBLIC "-//W3C//DTD SVG 1.1//EN" "http://www.w3.org/Graphics/SVG/1.1/DTD/svg11.dtd">
<svg version="1.1" xmlns="http://www.w3.org/2000/svg" xmlns:xlink="http://www.w3.org/1999/xlink"
       viewBox="0 0 21.5312 20.2486">
       <g>
              <rect height="20.2486" opacity="0" width="21.5312" x="0" y="0" />
              <path d="M7.52408 20.2389L13.6458 20.2389C14.9905 20.2389 15.9644 19.7489 16.7357 18.8467L20.1877 14.8325C20.9666 13.9181 21.1699 13.3449 21.1699 12.1319L21.1699 8.10923C21.1699 6.89393 20.9666 6.32303 20.1877 5.4087L16.7357 1.39448C15.9644 0.492224 14.9905 0 13.6458 0L7.52408 0C6.1794 0 5.21066 0.492224 4.43414 1.39448L0.989604 5.4087C0.21078 6.32303 0 6.89393 0 8.10923L0 12.1319C0 13.3449 0.21078 13.9181 0.989604 14.8325L4.43414 18.8467C5.21066 19.7489 6.1794 20.2389 7.52408 20.2389ZM10.5875 2.93012L13.3497 2.93012C14.1323 2.93012 14.4953 3.15758 14.9153 3.63391L17.6089 6.73646C17.9921 7.16615 18.0875 7.49982 18.0875 8.22763L18.0875 12.0061C18.0875 12.7339 17.9921 13.0676 17.6089 13.5047L14.9153 16.6073C14.4953 17.0813 14.1323 17.3111 13.3497 17.3111L10.5875 17.3111Z"
                     fill="currentColor" fill-opacity="0.85" />
       </g>
</svg>