<?xml version="1.0" encoding="UTF-8"?>
<!--Generator: Apple Native CoreSVG 326-->
<!DOCTYPE svg PUBLIC "-//W3C//DTD SVG 1.1//EN" "http://www.w3.org/Graphics/SVG/1.1/DTD/svg11.dtd">
<svg version="1.1" xmlns="http://www.w3.org/2000/svg" xmlns:xlink="http://www.w3.org/1999/xlink"
       viewBox="0 0 35.3268 16.7536">
       <g>
              <rect height="16.7536" opacity="0" width="35.3268" x="0" y="0" />
              <path d="M0.69256 7.23815L5.79932 14.8537C6.49947 15.8962 7.45692 16.4721 9.01621 16.4721L17.4239 16.4721C19.0948 16.4721 20.2458 16.0316 21.0189 15.0454L27.5166 6.72209L30.6416 5.87521L31.7953 6.87088C33.2601 8.12379 35.1555 6.15089 33.6884 4.86122L32.1243 3.48263C31.6253 3.0376 31.1108 2.93017 30.3067 3.14842L18.9076 6.23842L17.5597 4.93189C17.0456 4.44482 16.4575 4.25533 15.6529 4.25533L9.01621 4.25533C8.6957 4.25533 8.40449 4.27486 8.12536 4.32369L3.85141 2.65552C0.945254 1.50803-1.14762 4.51688 0.69256 7.23815ZM8.10971 12.8078L8.10971 7.9346C8.10971 7.25987 8.39546 6.96435 9.04551 6.96435L15.2267 6.96435C15.614 6.96435 15.7451 6.99595 15.9647 7.20346L17.4387 8.62869C17.8861 9.07834 18.4201 9.20353 19.073 9.02435L23.1573 7.91411L19.2827 12.8518C18.7845 13.4959 18.226 13.7631 17.4239 13.7631L9.04551 13.7631C8.39546 13.7631 8.10971 13.475 8.10971 12.8078ZM2.70671 5.73176C2.44971 5.34823 2.76245 4.96009 3.1891 5.12338L5.71913 6.13179C5.50416 6.60054 5.40068 7.17046 5.40068 7.8341L5.40068 9.739ZM8.13912 1.33729C8.13912 2.04126 8.72482 2.60973 9.42133 2.60973L15.4241 2.60973C16.1206 2.60973 16.7063 2.04126 16.7063 1.33729C16.7063 0.640771 16.1206 0.0648415 15.4241 0.0648415L9.42133 0.0648415C8.72482 0.0648415 8.13912 0.640771 8.13912 1.33729ZM11.0596 5.91136L13.7835 5.91136L13.7835 0.797688L11.0596 0.797688ZM32.7308 16.7536C33.9522 16.7536 34.9638 15.8057 34.9638 14.582C34.9638 13.8823 34.6151 13.2142 34.2739 12.5903L32.9405 10.1211C32.8916 10.0234 32.8336 9.96713 32.7308 9.96713C32.6308 9.96713 32.5797 10.0234 32.5234 10.1234L31.1854 12.5903C30.8464 13.2142 30.4977 13.8823 30.4977 14.582C30.4977 15.8057 31.5146 16.7536 32.7308 16.7536Z"
                     fill="currentColor" fill-opacity="0.85" />
       </g>
</svg>