<?xml version="1.0" encoding="UTF-8"?>
<!--Generator: Apple Native CoreSVG 326-->
<!DOCTYPE svg PUBLIC "-//W3C//DTD SVG 1.1//EN" "http://www.w3.org/Graphics/SVG/1.1/DTD/svg11.dtd">
<svg version="1.1" xmlns="http://www.w3.org/2000/svg" xmlns:xlink="http://www.w3.org/1999/xlink"
       viewBox="0 0 35.3268 25.7396">
       <g>
              <rect height="25.7396" opacity="0" width="35.3268" x="0" y="0" />
              <path d="M32.9405 17.6446L34.2739 20.1138C34.6151 20.7377 34.9638 21.4058 34.9638 22.1079C34.9638 23.3292 33.9522 24.2772 32.7308 24.2772C31.5146 24.2772 30.4977 23.3292 30.4977 22.1079C30.4977 21.4058 30.8464 20.7377 31.1854 20.1138L32.5234 17.6469C32.5797 17.547 32.6308 17.4907 32.7308 17.4907C32.8336 17.4907 32.8916 17.547 32.9405 17.6446ZM3.85141 10.1791L8.12536 11.8472C8.40449 11.8007 8.6957 11.7789 9.01621 11.7789L10.173 11.7789C9.78101 12.4622 9.52396 13.2742 9.52396 14.2029C9.52396 14.2992 9.52658 14.3948 9.53824 14.4879L9.04551 14.4879C8.39546 14.4879 8.10971 14.7834 8.10971 15.4581L8.10971 20.3313C8.10971 21.0009 8.39546 21.2866 9.04551 21.2866L17.4239 21.2866C18.226 21.2866 18.7845 21.0194 19.2827 20.3753L23.1573 15.4376L19.1981 16.5139C19.5523 15.8227 19.7492 15.037 19.7492 14.2029C19.7492 13.9766 19.7339 13.7573 19.7038 13.5458L30.3067 10.6668C31.1108 10.456 31.6253 10.5611 32.1243 11.0062L33.6884 12.3848C35.1555 13.6744 33.2601 15.6473 31.7953 14.3944L30.6416 13.3987L27.5166 14.2479L21.0189 22.5689C20.2458 23.5574 19.0948 23.9957 17.4239 23.9957L9.01621 23.9957C7.45692 23.9957 6.49947 23.4123 5.79932 22.3795L0.69256 14.7617C-1.14762 12.0404 0.945254 9.03157 3.85141 10.1791ZM2.70671 13.2576L5.40068 17.2625L5.40068 15.3576C5.40068 14.694 5.50416 14.1241 5.71913 13.6553L3.1891 12.6469C2.76245 12.4836 2.44971 12.8718 2.70671 13.2576Z"
                     fill="currentColor" fill-opacity="0.85" />
              <path d="M14.6343 17.8681C16.655 17.8681 18.2868 16.2385 18.2868 14.2029C18.2868 12.7813 17.4224 11.733 16.4975 11.0863C16.2303 10.9157 16.0792 10.6376 16.0792 10.279L16.0792 2.91252C16.0792 2.11999 15.4217 1.46242 14.6366 1.46242C13.8492 1.46242 13.1865 2.11999 13.1865 2.91252L13.1865 10.279C13.1865 10.633 13.0406 10.9013 12.7613 11.0742C11.8387 11.7209 10.9789 12.7813 10.9789 14.2029C10.9789 16.2385 12.6084 17.8681 14.6343 17.8681ZM18.452 4.20826L20.683 4.20826C21.0994 4.20826 21.3786 3.91474 21.3786 3.52994C21.3786 3.14514 21.0994 2.84186 20.683 2.84186L18.452 2.84186C18.0356 2.84186 17.7639 3.14514 17.7639 3.52994C17.7639 3.91474 18.0356 4.20826 18.452 4.20826ZM18.452 6.83115L20.683 6.83115C21.0994 6.83115 21.3786 6.53017 21.3786 6.14537C21.3786 5.76057 21.0994 5.46705 20.683 5.46705L18.452 5.46705C18.0356 5.46705 17.7639 5.76057 17.7639 6.14537C17.7639 6.53017 18.0356 6.83115 18.452 6.83115ZM18.452 9.44658L20.683 9.44658C21.0994 9.44658 21.3786 9.1456 21.3786 8.7608C21.3786 8.38346 21.0994 8.08248 20.683 8.08248L18.452 8.08248C18.0356 8.08248 17.7639 8.38346 17.7639 8.7608C17.7639 9.1456 18.0356 9.44658 18.452 9.44658Z"
                     fill="currentColor" fill-opacity="0.85" />
       </g>
</svg>