<?xml version="1.0" encoding="UTF-8"?>
<!--Generator: Apple Native CoreSVG 326-->
<!DOCTYPE svg PUBLIC "-//W3C//DTD SVG 1.1//EN" "http://www.w3.org/Graphics/SVG/1.1/DTD/svg11.dtd">
<svg version="1.1" xmlns="http://www.w3.org/2000/svg" xmlns:xlink="http://www.w3.org/1999/xlink"
       viewBox="0 0 21.101 17.9601">
       <g>
              <rect height="17.9601" opacity="0" width="21.101" x="0" y="0" />
              <path d="M6.13979 0L1.69388 0C0.736123 0 0 0.724052 0 1.64736C0 2.57813 0.728662 3.28956 1.69388 3.28956L5.40136 3.28956C5.61863 3.28956 5.79047 3.38613 5.87727 3.5741L12.0368 16.3038C12.607 17.4673 13.3668 17.9601 14.5861 17.9601L19.0533 17.9601C20.0013 17.9601 20.7397 17.2337 20.7397 16.3127C20.7397 15.3843 20.0087 14.6705 19.0533 14.6705L15.324 14.6705C15.09 14.6705 14.9279 14.5763 14.8388 14.3883L8.69371 1.66835C8.1677 0.593277 7.26314 0 6.13979 0ZM19.0533 0L13.3989 0C12.4412 0 11.7125 0.721747 11.7125 1.64505C11.7125 2.57582 12.4337 3.28495 13.3989 3.28495L19.0533 3.28495C20.011 3.28495 20.7374 2.57582 20.7374 1.64505C20.7374 0.706826 20.011 0 19.0533 0Z"
                     fill="currentColor" fill-opacity="0.85" />
       </g>
</svg>