<?xml version="1.0" encoding="UTF-8"?>
<!--Generator: Apple Native CoreSVG 326-->
<!DOCTYPE svg PUBLIC "-//W3C//DTD SVG 1.1//EN" "http://www.w3.org/Graphics/SVG/1.1/DTD/svg11.dtd">
<svg version="1.1" xmlns="http://www.w3.org/2000/svg" xmlns:xlink="http://www.w3.org/1999/xlink"
       viewBox="0 0 24.3863 17.3644">
       <g>
              <rect height="17.3644" opacity="0" width="24.3863" x="0" y="0" />
              <path d="M12.0013 17.3472C18.4104 17.3472 24.025 12.8085 24.025 8.67733C24.025 4.54617 18.4104 0 12.0013 0C5.60195 0 0 4.54617 0 8.67733C0 12.8085 5.60195 17.3472 12.0013 17.3472ZM12.0013 14.4568C6.63705 14.4568 2.90015 10.9319 2.90015 8.67733C2.90015 6.42045 6.63705 2.89039 12.0013 2.89039C17.373 2.89039 21.1369 6.42045 21.1369 8.67733C21.1369 10.9319 17.373 14.4568 12.0013 14.4568Z"
                     fill="currentColor" fill-opacity="0.85" />
              <path d="M12.0013 13.51C15.2142 13.51 16.7368 10.6107 16.7391 9.51105C16.7391 9.21808 16.495 8.96933 16.1997 8.96933C15.9435 8.96933 15.712 9.11472 15.6482 9.40363C15.3006 11.1337 13.809 12.407 12.0013 12.407C11.2359 12.407 10.5315 12.1979 9.91897 11.7922C9.82646 11.7261 9.72365 11.7043 9.62139 11.7043C9.29912 11.7043 9.08197 11.9657 9.08197 12.2633C9.08197 12.4316 9.1601 12.5999 9.31865 12.7073C10.0799 13.2279 11.0165 13.51 12.0013 13.51ZM7.15887 8.67733C7.15887 9.65984 7.44844 10.5866 7.93169 11.298C8.06896 11.5088 8.24474 11.5943 8.4056 11.5943C8.65665 11.5943 8.98692 11.399 8.98692 11.0526C8.98692 10.9331 8.95017 10.8257 8.87435 10.7131C8.47845 10.1397 8.2693 9.44269 8.2693 8.67733C8.2693 7.90452 8.48075 7.21728 8.87435 6.62431C8.94271 6.52665 8.96454 6.41462 8.96454 6.3072C8.96454 5.98494 8.7181 5.75802 8.4056 5.75802C8.24704 5.75802 8.07126 5.84361 7.96899 5.98724C7.44844 6.76807 7.15887 7.68506 7.15887 8.67733ZM12.0013 3.84238C11.0165 3.84238 10.0799 4.1268 9.31865 4.64735C9.15779 4.75477 9.08197 4.92309 9.08197 5.09141C9.08197 5.40622 9.32381 5.66243 9.61854 5.66243C9.74088 5.66243 9.84084 5.63083 9.9408 5.56247C10.5338 5.16887 11.2457 4.94535 12.0013 4.94535C13.809 4.94535 15.2983 6.22095 15.6505 7.94358C15.7143 8.23994 15.9435 8.37788 16.1997 8.37788C16.4973 8.37788 16.7414 8.12397 16.7414 7.84362C16.7345 6.73701 15.2096 3.84238 12.0013 3.84238Z"
                     fill="currentColor" fill-opacity="0.85" />
              <path d="M12.0013 11.8058C12.7723 11.8058 13.4756 11.5088 13.9761 11.091C14.1547 10.9468 14.2179 10.7757 14.2179 10.6171C14.2179 10.3195 13.9915 10.0679 13.6739 10.0679C13.5372 10.0679 13.4004 10.1368 13.3028 10.2293C12.9747 10.523 12.5305 10.7028 12.0352 10.7028C10.8452 10.7028 9.96603 9.77023 9.96603 8.66757C9.96603 7.78612 10.532 7.04775 11.3261 6.76619C11.5358 6.69783 11.6995 6.47837 11.6995 6.25837C11.6995 5.9338 11.4433 5.70458 11.148 5.70458C10.3862 5.70458 8.86306 6.96975 8.86306 8.69687C8.86306 10.397 10.2426 11.8058 12.0013 11.8058ZM15.1177 8.67733C15.1177 6.93068 13.5968 5.70458 12.862 5.70458C12.557 5.70458 12.3007 5.9338 12.3007 6.25837C12.3007 6.47837 12.4645 6.69783 12.6592 6.76619C13.4585 7.04775 14.0119 7.78612 14.0119 8.67733C14.0119 8.80374 13.9682 9.04449 13.9682 9.13183C13.9659 9.51499 14.2221 9.70054 14.5145 9.70054C14.8758 9.70054 15.0149 9.46847 15.0809 9.20765C15.1177 9.04679 15.1177 8.85487 15.1177 8.67733Z"
                     fill="currentColor" fill-opacity="0.85" />
              <path d="M11.999 10.0821C12.778 10.0821 13.4112 9.4564 13.4112 8.67733C13.4112 7.89827 12.778 7.26514 11.999 7.26514C11.2199 7.26514 10.5942 7.89827 10.5942 8.67733C10.5942 9.4564 11.2199 10.0821 11.999 10.0821Z"
                     fill="currentColor" fill-opacity="0.85" />
       </g>
</svg>