<?xml version="1.0" encoding="UTF-8"?>
<!--Generator: Apple Native CoreSVG 326-->
<!DOCTYPE svg PUBLIC "-//W3C//DTD SVG 1.1//EN" "http://www.w3.org/Graphics/SVG/1.1/DTD/svg11.dtd">
<svg version="1.1" xmlns="http://www.w3.org/2000/svg" xmlns:xlink="http://www.w3.org/1999/xlink"
       viewBox="0 0 22.6412 19.6555">
       <g>
              <rect height="19.6555" opacity="0" width="22.6412" x="0" y="0" />
              <path d="M2.92162 19.6234L19.3433 19.6234C21.0783 19.6234 22.2798 18.4047 22.2798 16.6645L22.2798 2.96639C22.2798 1.22616 21.0783 0 19.3433 0L2.92162 0C1.19402 0 0 1.22616 0 2.96639L0 16.6645C0 18.4047 1.19402 19.6234 2.92162 19.6234ZM3.26196 16.8649C2.96942 16.8649 2.76598 16.662 2.76598 16.3551L2.76598 3.26833C2.76598 2.96141 2.96942 2.75852 3.26196 2.75852L19.0948 2.75852C19.3477 2.75852 19.5138 2.93157 19.5138 3.1788L19.5138 16.4446C19.5138 16.6993 19.3477 16.8649 19.0948 16.8649ZM5.32645 5.80073C5.91457 5.80073 6.41481 5.32288 6.41481 4.72499C6.41481 4.12195 5.91457 3.6441 5.32645 3.6441C4.72857 3.6441 4.24326 4.12195 4.24326 4.72499C4.24326 5.32288 4.72857 5.80073 5.32645 5.80073ZM8.06004 5.80073C8.65793 5.80073 9.14324 5.32288 9.14324 4.72499C9.14324 4.12195 8.65793 3.6441 8.06004 3.6441C7.47192 3.6441 6.97169 4.12195 6.97169 4.72499C6.97169 5.32288 7.47192 5.80073 8.06004 5.80073ZM10.7885 5.80073C11.3766 5.80073 11.8768 5.32288 11.8768 4.72499C11.8768 4.12195 11.3766 3.6441 10.7885 3.6441C10.198 3.6441 9.70528 4.12195 9.70528 4.72499C9.70528 5.32288 10.198 5.80073 10.7885 5.80073ZM14.809 5.55131L17.289 5.55131C17.7387 5.55131 18.0981 5.18955 18.0981 4.73991C18.0981 4.29773 17.7387 3.93828 17.289 3.93828L14.809 3.93828C14.3594 3.93828 13.9976 4.29773 13.9976 4.73991C13.9976 5.18955 14.3594 5.55131 14.809 5.55131ZM2.03653 8.33918L20.2554 8.33918L20.2554 6.5451L2.03653 6.5451ZM5.0663 15.7658L17.2233 15.7658C17.765 15.7658 18.1166 15.4217 18.1166 14.88L18.1166 10.1294C18.1166 9.58767 17.765 9.2338 17.2233 9.2338L5.0663 9.2338C4.52458 9.2338 4.17071 9.58767 4.17071 10.1294L4.17071 14.88C4.17071 15.4217 4.52458 15.7658 5.0663 15.7658ZM5.93617 14.2118C5.82699 14.2118 5.73449 14.1193 5.73449 14.0102L5.73449 10.9097C5.73449 10.7982 5.82699 10.7057 5.93617 10.7057L16.3534 10.7057C16.4626 10.7057 16.5551 10.7982 16.5551 10.9097L16.5551 14.0102C16.5551 14.1193 16.4626 14.2118 16.3534 14.2118ZM5.18852 12.503L17.116 12.503L17.116 11.3742L5.18852 11.3742Z"
                     fill="currentColor" fill-opacity="0.85" />
       </g>
</svg>