<?xml version="1.0" encoding="UTF-8"?>
<!--Generator: Apple Native CoreSVG 326-->
<!DOCTYPE svg PUBLIC "-//W3C//DTD SVG 1.1//EN" "http://www.w3.org/Graphics/SVG/1.1/DTD/svg11.dtd">
<svg version="1.1" xmlns="http://www.w3.org/2000/svg" xmlns:xlink="http://www.w3.org/1999/xlink"
       viewBox="0 0 21.365 21.006">
       <g>
              <rect height="21.006" opacity="0" width="21.365" x="0" y="0" />
              <path d="M10.4981 20.9962C16.302 20.9962 21.0037 16.2946 21.0037 10.4981C21.0037 4.70163 16.302 0 10.4981 0C4.70163 0 0 4.70163 0 10.4981C0 16.2946 4.70163 20.9962 10.4981 20.9962ZM10.4981 17.9484C6.37829 17.9484 3.04785 14.6179 3.04785 10.4981C3.04785 6.37829 6.37829 3.04785 10.4981 3.04785C14.6179 3.04785 17.9558 6.37829 17.9558 10.4981C17.9558 14.6179 14.6179 17.9484 10.4981 17.9484Z"
                     fill="currentColor" fill-opacity="0.85" />
              <path d="M8.32905 14.9633C9.22712 14.9633 9.74676 14.3753 9.74676 13.4055L9.74676 12.6545L10.9767 12.6545C13.0303 12.6545 14.3618 11.3885 14.3618 9.41255C14.3618 7.43662 13.0503 6.17345 11.0164 6.17345L8.48342 6.17345C7.4482 6.17345 6.9234 6.73392 6.9234 7.78351L6.9234 13.4055C6.9234 14.3782 7.43558 14.9633 8.32905 14.9633ZM9.74676 10.6275L9.74676 8.20046L10.6052 8.20046C11.3449 8.20046 11.7295 8.61031 11.7295 9.42001C11.7295 10.2027 11.3398 10.6275 10.6052 10.6275Z"
                     fill="currentColor" fill-opacity="0.85" />
       </g>
</svg>