<?xml version="1.0" encoding="UTF-8"?>
<!--Generator: Apple Native CoreSVG 326-->
<!DOCTYPE svg PUBLIC "-//W3C//DTD SVG 1.1//EN" "http://www.w3.org/Graphics/SVG/1.1/DTD/svg11.dtd">
<svg version="1.1" xmlns="http://www.w3.org/2000/svg" xmlns:xlink="http://www.w3.org/1999/xlink"
       viewBox="0 0 19.3993 19.0529">
       <g>
              <rect height="19.0529" opacity="0" width="19.3993" x="0" y="0" />
              <path d="M19.0379 3.63912L19.0379 15.4011C19.0379 17.7262 17.7164 19.0379 15.3896 19.0379L3.64834 19.0379C1.32382 19.0379 0 17.7262 0 15.4011L0 3.63912C0 1.32151 1.32382 0 3.64834 0L15.3896 0C17.7164 0 19.0379 1.32151 19.0379 3.63912ZM7.4701 4.91611C6.35336 4.91611 5.78895 5.51849 5.78895 6.63984L5.78895 12.6109C5.78895 13.6628 6.34074 14.2899 7.30596 14.2899C8.25341 14.2899 8.82758 13.66 8.82758 12.6109L8.82758 11.8312L10.1213 11.8312C12.3201 11.8312 13.7331 10.4814 13.7331 8.36478C13.7331 6.2631 12.3453 4.91611 10.1609 4.91611ZM10.9155 8.37224C10.9155 9.21639 10.5062 9.66069 9.71995 9.66069L8.82758 9.66069L8.82758 7.08894L9.71995 7.08894C10.5113 7.08894 10.9155 7.52578 10.9155 8.37224Z"
                     fill="currentColor" fill-opacity="0.85" />
       </g>
</svg>