<?xml version="1.0" encoding="UTF-8"?>
<!--Generator: Apple Native CoreSVG 326-->
<!DOCTYPE svg PUBLIC "-//W3C//DTD SVG 1.1//EN" "http://www.w3.org/Graphics/SVG/1.1/DTD/svg11.dtd">
<svg version="1.1" xmlns="http://www.w3.org/2000/svg" xmlns:xlink="http://www.w3.org/1999/xlink"
       viewBox="0 0 24.187 18.9124">
       <g>
              <rect height="18.9124" opacity="0" width="24.187" x="0" y="0" />
              <path d="M7.84453 18.9124L15.9811 18.9124C21.8839 18.9124 23.8256 16.9023 23.8256 11.0137L23.8256 7.90385C23.8256 2.01524 21.8839 0.00285089 15.9811 0.00285089L7.84453 0.00285089C1.94918 0.00285089 0 2.01524 0 7.90385L0 11.0137C0 16.9023 1.94918 18.9124 7.84453 18.9124ZM7.84453 15.8927C4.12298 15.8927 3.01964 14.7791 3.01964 11.0137L3.01964 7.90385C3.01964 4.1459 4.12298 3.02249 7.84453 3.02249L15.9811 3.02249C19.7027 3.02249 20.806 4.1459 20.806 7.90385L20.806 11.0137C20.806 14.7791 19.7027 15.8927 15.9811 15.8927Z"
                     fill="currentColor" fill-opacity="0.85" />
              <path d="M7.71709 13.2779C8.30521 13.2779 8.61419 12.935 8.61419 12.359L8.61419 10.951L9.2987 10.951C10.7779 10.951 11.5627 9.78837 11.5627 8.36653C11.5627 6.912 10.79 5.75505 9.42389 5.75505L7.72971 5.75505C7.16287 5.75505 6.8326 6.10309 6.8326 6.68606L6.8326 12.359C6.8326 12.9896 7.20588 13.2779 7.71709 13.2779ZM8.61419 9.5967L8.61419 7.13121L8.95065 7.13121C9.58445 7.13121 9.79601 7.68731 9.79601 8.36653C9.79601 9.03424 9.60113 9.5967 8.94089 9.5967ZM13.1189 13.1579L16.1793 13.1579C16.6554 13.1579 16.8479 12.8363 16.8479 12.4721C16.8479 12.101 16.6531 11.784 16.1793 11.784L14.3797 11.784L14.3797 11.7059L15.4697 10.3842C16.2448 9.44931 16.7312 8.74903 16.7312 7.7479C16.7312 6.36986 15.7806 5.55458 14.4628 5.55458C13.2725 5.55458 12.3028 6.44052 12.3028 7.46361C12.3028 7.907 12.5624 8.23552 13.023 8.23552C13.3826 8.23552 13.6674 8.05919 13.7949 7.63247C13.9059 7.22438 14.068 6.90375 14.453 6.90375C14.8995 6.90375 15.0651 7.31688 15.0651 7.80134C15.0651 8.49306 14.6026 9.16471 14.0477 9.86607L12.7588 11.4969C12.4315 11.9103 12.308 12.1619 12.308 12.4646C12.308 12.9011 12.5876 13.1579 13.1189 13.1579Z"
                     fill="currentColor" fill-opacity="0.85" />
       </g>
</svg>