<?xml version="1.0" encoding="UTF-8"?>
<!--Generator: Apple Native CoreSVG 326-->
<!DOCTYPE svg PUBLIC "-//W3C//DTD SVG 1.1//EN" "http://www.w3.org/Graphics/SVG/1.1/DTD/svg11.dtd">
<svg version="1.1" xmlns="http://www.w3.org/2000/svg" xmlns:xlink="http://www.w3.org/1999/xlink"
       viewBox="0 0 24.187 18.9124">
       <g>
              <rect height="18.9124" opacity="0" width="24.187" x="0" y="0" />
              <path d="M7.84453 18.9124L15.9811 18.9124C21.8839 18.9124 23.8256 16.9023 23.8256 11.0137L23.8256 7.90385C23.8256 2.01524 21.8839 0.00285089 15.9811 0.00285089L7.84453 0.00285089C1.94918 0.00285089 0 2.01524 0 7.90385L0 11.0137C0 16.9023 1.94918 18.9124 7.84453 18.9124ZM7.84453 15.8927C4.12298 15.8927 3.01964 14.7791 3.01964 11.0137L3.01964 7.90385C3.01964 4.1459 4.12298 3.02249 7.84453 3.02249L15.9811 3.02249C19.7027 3.02249 20.806 4.1459 20.806 7.90385L20.806 11.0137C20.806 14.7791 19.7027 15.8927 15.9811 15.8927Z"
                     fill="currentColor" fill-opacity="0.85" />
              <path d="M7.69635 13.2779C8.27701 13.2779 8.58829 12.935 8.58829 12.359L8.58829 10.951L9.28026 10.951C10.7572 10.951 11.5442 9.78837 11.5442 8.36653C11.5442 6.912 10.7715 5.75505 9.40315 5.75505L7.7015 5.75505C7.14213 5.75505 6.81186 6.10309 6.81186 6.68606L6.81186 12.359C6.81186 12.9896 7.17768 13.2779 7.69635 13.2779ZM8.58829 9.5967L8.58829 7.13121L8.92991 7.13121C9.5637 7.13121 9.77757 7.68731 9.77757 8.36653C9.77757 9.03424 9.58038 9.5967 8.92014 9.5967ZM14.6988 13.3411C16.1251 13.3411 17.1396 12.4995 17.1396 11.1242C17.1396 10.1222 16.5737 9.47424 15.7608 9.37142L15.7608 9.33467C16.401 9.16744 16.9202 8.49579 16.9202 7.62326C16.9202 6.32782 15.9889 5.57126 14.6448 5.57126C13.6963 5.57126 12.7899 6.07052 12.5291 6.94712C12.4802 7.10283 12.4607 7.27861 12.4607 7.45208C12.4607 7.78927 12.6606 8.14763 13.1832 8.14763C13.5376 8.14763 13.8747 8.02813 13.9798 7.62665C14.0689 7.2743 14.2695 6.93536 14.6597 6.93536C15.1028 6.93536 15.2713 7.36626 15.2713 7.80935C15.2713 8.3208 15.0522 8.80107 14.469 8.80107L14.3689 8.80107C13.925 8.80107 13.705 9.04346 13.705 9.41049C13.705 9.79244 13.9198 10.0227 14.3689 10.0227L14.4788 10.0227C15.1298 10.0227 15.4247 10.3773 15.4247 11.0255C15.4247 11.4978 15.22 11.977 14.6913 11.977C14.2619 11.977 14.0539 11.6776 13.9344 11.3477C13.8017 10.9606 13.5347 10.7573 13.1401 10.7573C12.6623 10.7573 12.3561 11.0514 12.3561 11.5217C12.3561 11.7124 12.3854 11.8808 12.4342 12.037C12.7002 12.893 13.6516 13.3411 14.6988 13.3411Z"
                     fill="currentColor" fill-opacity="0.85" />
       </g>
</svg>