<?xml version="1.0" encoding="UTF-8"?>
<!--Generator: Apple Native CoreSVG 326-->
<!DOCTYPE svg PUBLIC "-//W3C//DTD SVG 1.1//EN" "http://www.w3.org/Graphics/SVG/1.1/DTD/svg11.dtd">
<svg version="1.1" xmlns="http://www.w3.org/2000/svg" xmlns:xlink="http://www.w3.org/1999/xlink"
       viewBox="0 0 16.715 27.4374">
       <g>
              <rect height="27.4374" opacity="0" width="16.715" x="0" y="0" />
              <path d="M16.3537 15.8358C16.3537 11.5994 14.6775 5.71611 10.5295 1.37283C9.58809 0.392326 8.01036-0.44673 6.18795 0.26604L5.23322 0.637133C3.08515 1.47225 2.4132 3.04876 3.29999 5.09172C4.82058 8.52582 5.18652 11.1297 5.18652 13.0986C5.18652 13.6963 4.88651 14.0319 4.26467 14.0319L1.86232 14.0319C0.838389 14.0319 0 14.8525 0 15.9678L0 18.1996C0 19.2367 0.755108 20.0056 1.66877 20.0056L3.47026 20.0056C3.82667 20.0056 4.00894 20.1712 4.00894 20.5046C4.00894 20.8419 3.81703 21.1827 3.81703 21.9633C3.81703 23.7106 4.8187 25.0402 6.75096 25.9771L8.72416 26.9295C10.6701 27.8743 12.6643 27.3183 13.7906 25.4769C15.5839 22.5428 16.3537 19.5638 16.3537 15.8358ZM13.5056 15.8358C13.5056 19.182 12.9179 21.4328 11.3709 23.9926C11.0301 24.534 10.4347 24.6863 9.81567 24.3743L8.0527 23.4781C6.75375 22.8175 6.5548 22.5593 6.5548 21.6302C6.5548 20.468 8.06156 17.1103 8.06156 12.5419C8.06156 10.8732 7.68992 7.91665 6.01593 4.16083C5.80788 3.72344 5.92398 3.41706 6.34645 3.25269L7.09688 2.96366C7.67518 2.74924 8.02565 2.86424 8.4153 3.26136C12.1809 7.19757 13.5056 12.1725 13.5056 15.8358Z"
                     fill="currentColor" fill-opacity="0.85" />
       </g>
</svg>