<?xml version="1.0" encoding="UTF-8"?>
<!--Generator: Apple Native CoreSVG 326-->
<!DOCTYPE svg PUBLIC "-//W3C//DTD SVG 1.1//EN" "http://www.w3.org/Graphics/SVG/1.1/DTD/svg11.dtd">
<svg version="1.1" xmlns="http://www.w3.org/2000/svg" xmlns:xlink="http://www.w3.org/1999/xlink"
       viewBox="0 0 26.677 22.1433">
       <g>
              <rect height="22.1433" opacity="0" width="26.677" x="0" y="0" />
              <path d="M13.9423 22.0375C18.9042 22.0375 22.2153 20.2318 22.2153 17.5387C22.2153 15.3314 20.6344 14.9614 20.6344 13.7465C20.6344 12.0945 26.3157 11.9685 26.3157 7.48478C26.3157 2.98276 21.6569 0 14.6799 0C5.88819 0 0 4.63346 0 11.1523C0 17.6779 5.59237 22.0375 13.9423 22.0375ZM13.9423 18.7635C7.53245 18.7635 3.26651 15.7217 3.26651 11.1523C3.26651 6.41808 7.82081 3.26651 14.6799 3.26651C19.7099 3.26651 23.0492 4.96027 23.0492 7.48478C23.0492 10.4826 17.3661 10.4415 17.3661 13.3981C17.3661 15.165 18.8817 15.4462 18.8817 16.8C18.8817 17.9805 16.9078 18.7635 13.9423 18.7635ZM12.9923 16.7349C14.708 16.7349 15.9212 15.5291 15.9212 13.8186C15.9212 12.2172 14.611 10.8995 12.9923 10.8995C11.3886 10.8995 10.0858 12.2172 10.0858 13.8186C10.0858 15.4321 11.3886 16.7349 12.9923 16.7349ZM12.9923 14.9978C12.3396 14.9978 11.8155 14.4737 11.8155 13.8037C11.8155 13.0532 12.3786 12.6561 12.9654 12.6389C13.5791 12.6291 14.1841 13.0239 14.1841 13.8037C14.1841 14.4737 13.6624 14.9978 12.9923 14.9978Z"
                     fill="currentColor" fill-opacity="0.85" />
              <path d="M6.573 12.3858C7.44905 12.3858 8.15679 11.6585 8.15679 10.7825C8.15679 9.90641 7.44905 9.19868 6.573 9.19868C5.70671 9.19868 4.98175 9.90641 4.98175 10.7825C4.98175 11.6585 5.70671 12.3858 6.573 12.3858Z"
                     fill="currentColor" fill-opacity="0.85" />
              <path d="M9.91363 9.41C10.9793 9.41 11.86 8.55402 11.86 7.46883C11.86 6.398 10.977 5.55179 9.91363 5.55179C8.8382 5.55179 7.96499 6.398 7.96499 7.46883C7.96499 8.55402 8.8382 9.41 9.91363 9.41Z"
                     fill="currentColor" fill-opacity="0.85" />
              <path d="M14.5664 7.9548C15.447 7.9548 16.1548 7.24476 16.1548 6.3641C16.1548 5.47828 15.447 4.7757 14.5664 4.7757C13.6903 4.7757 12.9682 5.47828 12.9682 6.3641C12.9682 7.24476 13.6903 7.9548 14.5664 7.9548Z"
                     fill="currentColor" fill-opacity="0.85" />
              <path d="M18.7383 8.5425C19.4633 8.5425 20.0417 7.96918 20.0417 7.24191C20.0417 6.51695 19.4633 5.93617 18.7383 5.93617C18.0185 5.93617 17.4354 6.51695 17.4354 7.24191C17.4354 7.96918 18.0185 8.5425 18.7383 8.5425Z"
                     fill="currentColor" fill-opacity="0.85" />
       </g>
</svg>