<?xml version="1.0" encoding="UTF-8"?>
<!--Generator: Apple Native CoreSVG 326-->
<!DOCTYPE svg PUBLIC "-//W3C//DTD SVG 1.1//EN" "http://www.w3.org/Graphics/SVG/1.1/DTD/svg11.dtd">
<svg version="1.1" xmlns="http://www.w3.org/2000/svg" xmlns:xlink="http://www.w3.org/1999/xlink"
       viewBox="0 0 24.2351 22.2439">
       <g>
              <rect height="22.2439" opacity="0" width="24.2351" x="0" y="0" />
              <path d="M0.771495 20.103C2.96191 22.5139 6.99814 22.9565 9.4222 20.7432C11.3771 18.9685 11.4435 16.4023 9.70735 14.4974C8.14521 12.7758 5.73795 12.4689 4.09296 13.997C2.68823 15.2613 3.23061 16.5897 2.54041 17.1958C1.83716 17.8288 0.947639 17.4055 0.32737 17.9665C-0.305941 18.5423 0.0543572 19.3461 0.771495 20.103ZM10.7499 13.1342C11.6344 14.0187 12.2237 15.0704 12.4551 16.103C13.0895 15.9686 13.6347 15.702 14.1645 15.2692C14.2719 15.1864 14.377 15.0939 14.4821 14.9917C14.1867 12.198 11.7464 9.68244 8.89474 9.40943C8.80739 9.50709 8.70743 9.59959 8.62985 9.70701C8.17469 10.2517 7.89543 10.8239 7.77594 11.4462C8.80624 11.6701 9.87518 12.2572 10.7499 13.1342ZM20.2648 0.441067C19.7742 0.794934 14.4564 4.40373 10.9324 7.47747C13.5199 8.38719 15.5095 10.3895 16.4141 12.9615C19.4924 9.44491 23.1064 4.12944 23.4528 3.62909C24.9185 1.48059 22.3547-1.03209 20.2648 0.441067Z"
                     fill="currentColor" fill-opacity="0.85" />
       </g>
</svg>