<?xml version="1.0" encoding="UTF-8"?>
<!--Generator: Apple Native CoreSVG 326-->
<!DOCTYPE svg PUBLIC "-//W3C//DTD SVG 1.1//EN" "http://www.w3.org/Graphics/SVG/1.1/DTD/svg11.dtd">
<svg version="1.1" xmlns="http://www.w3.org/2000/svg" xmlns:xlink="http://www.w3.org/1999/xlink"
       viewBox="0 0 24.4201 22.5184">
       <g>
              <rect height="22.5184" opacity="0" width="24.4201" x="0" y="0" />
              <path d="M0.84643 20.2444C3.19255 22.8672 7.62784 23.2925 10.2597 20.8408C12.4229 18.8394 12.5318 16.0457 10.493 13.8492C8.634 11.8324 6.16827 11.6122 4.34574 13.3104C2.86706 14.6619 3.30718 16.2129 2.65155 16.7955C2.02128 17.3596 1.11156 16.8979 0.425233 17.5468C-0.316045 18.2547-0.032659 19.2762 0.84643 20.2444ZM3.89804 19.3122C3.80839 19.2277 3.79577 19.1283 3.88366 19.0554C4.04276 18.9284 4.32851 18.8073 4.57684 18.5664C5.65094 17.4872 5.11231 16.3639 6.16876 15.3725C6.86806 14.7244 7.92639 14.8314 8.73869 15.6641C9.6435 16.6133 9.51291 17.9778 8.43329 18.9636C7.12282 20.163 5.10855 20.3024 3.89804 19.3122ZM10.9045 17.3979C12.2353 17.3255 13.4298 16.7012 14.7094 15.429C18.1725 11.9832 23.2038 4.54108 23.5641 4.03721C25.2422 1.68661 22.3867-1.17915 20.0114 0.506968C19.5397 0.849978 12.1848 5.80443 8.72408 9.27953C7.4267 10.5792 6.7553 11.7715 6.67311 13.0827L9.45225 13.8831C9.26289 13.0135 9.50199 12.3351 10.514 11.3179C13.08 8.75371 18.15 5.0711 20.3531 3.51266C20.5284 3.38789 20.6757 3.57532 20.571 3.73521C19.2502 6.02371 15.3747 10.9354 12.7979 13.5123C11.8926 14.4101 11.255 14.7099 10.417 14.706ZM12.6405 14.141L14.465 13.7665C14.5596 11.7297 12.4126 9.52355 10.42 9.59858L9.85828 11.4454C11.265 11.6101 12.3943 12.6723 12.6405 14.141Z"
                     fill="currentColor" fill-opacity="0.85" />
       </g>
</svg>