<?xml version="1.0" encoding="UTF-8"?>
<!--Generator: Apple Native CoreSVG 326-->
<!DOCTYPE svg PUBLIC "-//W3C//DTD SVG 1.1//EN" "http://www.w3.org/Graphics/SVG/1.1/DTD/svg11.dtd">
<svg version="1.1" xmlns="http://www.w3.org/2000/svg" xmlns:xlink="http://www.w3.org/1999/xlink"
       viewBox="0 0 21.365 21.006">
       <g>
              <rect height="21.006" opacity="0" width="21.365" x="0" y="0" />
              <path d="M10.4981 20.9962C16.302 20.9962 21.0037 16.2946 21.0037 10.4981C21.0037 4.70163 16.302 0 10.4981 0C4.70163 0 0 4.70163 0 10.4981C0 16.2946 4.70163 20.9962 10.4981 20.9962ZM10.4981 17.9484C6.37829 17.9484 3.04785 14.6179 3.04785 10.4981C3.04785 6.37829 6.37829 3.04785 10.4981 3.04785C14.6179 3.04785 17.9558 6.37829 17.9558 10.4981C17.9558 14.6179 14.6179 17.9484 10.4981 17.9484Z"
                     fill="currentColor" fill-opacity="0.85" />
              <path d="M6.52259 15.0297C7.7601 16.2529 9.60986 16.2861 10.8881 15.0102L14.4196 11.4809C14.6672 11.2334 14.6643 10.8227 14.4122 10.5826C14.1773 10.3551 13.7838 10.3551 13.5414 10.5924L10.0437 14.0952C9.23998 14.9013 8.1449 14.8714 7.41521 14.144C6.68606 13.4195 6.65567 12.3267 7.47434 11.5183L12.3106 6.68958C12.7525 6.25516 13.4212 6.12141 13.8642 6.56954C14.3244 7.0372 14.1861 7.68415 13.7419 8.12834L8.93561 12.9346C8.80459 13.0702 8.70166 13.053 8.60795 12.9564C8.51939 12.8823 8.49931 12.75 8.62517 12.619L11.9539 9.28287C12.2158 9.02095 12.2278 8.67115 11.9734 8.419C11.7264 8.17947 11.3691 8.18178 11.1147 8.43623L7.77107 11.7971C7.17537 12.3853 7.1983 13.2981 7.73486 13.8444C8.31103 14.4229 9.16986 14.4108 9.77018 13.8105L14.5983 8.96005C15.6036 7.9622 15.6053 6.6231 14.6982 5.71599C13.7791 4.80141 12.425 4.7911 11.4272 5.79642L6.55935 10.6769C5.28114 11.9625 5.32591 13.8302 6.52259 15.0297Z"
                     fill="currentColor" fill-opacity="0.85" />
       </g>
</svg>