<?xml version="1.0" encoding="UTF-8"?>
<!--Generator: Apple Native CoreSVG 326-->
<!DOCTYPE svg PUBLIC "-//W3C//DTD SVG 1.1//EN" "http://www.w3.org/Graphics/SVG/1.1/DTD/svg11.dtd">
<svg version="1.1" xmlns="http://www.w3.org/2000/svg" xmlns:xlink="http://www.w3.org/1999/xlink"
       viewBox="0 0 20.5479 22.7608">
       <g>
              <rect height="22.7608" opacity="0" width="20.5479" x="0" y="0" />
              <path d="M16.5069 11.7175L9.21725 19.0072C7.47885 20.7554 5.14814 20.622 3.65103 19.1054C2.13669 17.6083 2.01083 15.2896 3.75669 13.5415L13.8277 3.47281C14.7642 2.54374 16.2131 2.23827 17.1904 3.22066C18.1802 4.21512 17.8673 5.64684 16.9331 6.58337L6.93749 16.6013C6.65296 16.883 6.32814 16.8037 6.13787 16.6209C5.96251 16.4357 5.88548 16.1155 6.16255 15.8264L13.1131 8.88788C13.6001 8.39116 13.6121 7.66305 13.135 7.19333C12.6652 6.73337 11.9297 6.73798 11.4427 7.22493L4.46515 14.2025C3.26016 15.4075 3.3216 17.289 4.40195 18.3619C5.57534 19.5353 7.34893 19.5083 8.55622 18.301L18.6207 8.23655C20.7005 6.15672 20.6672 3.40372 18.7993 1.53588C16.9706-0.285444 14.171-0.365328 12.0912 1.70705L1.94902 11.8739C-0.709294 14.5322-0.568512 18.4122 1.88527 20.8735C4.35397 23.3249 8.23396 23.4732 10.8923 20.8172L18.2457 13.4638C18.7154 13.0164 18.7005 12.1482 18.221 11.698C17.7736 11.2162 16.9938 11.2478 16.5069 11.7175Z"
                     fill="currentColor" fill-opacity="0.85" />
       </g>
</svg>