<?xml version="1.0" encoding="UTF-8"?>
<!--Generator: Apple Native CoreSVG 326-->
<!DOCTYPE svg PUBLIC "-//W3C//DTD SVG 1.1//EN" "http://www.w3.org/Graphics/SVG/1.1/DTD/svg11.dtd">
<svg version="1.1" xmlns="http://www.w3.org/2000/svg" xmlns:xlink="http://www.w3.org/1999/xlink"
       viewBox="0 0 19.0862 21.2674">
       <g>
              <rect height="21.2674" opacity="0" width="19.0862" x="0" y="0" />
              <path d="M0 6.39066C0 9.58378 2.39858 11.7137 6.0206 11.7137L6.52829 11.7137L6.52829 19.4215C6.52829 20.5727 7.17598 21.2674 8.25487 21.2674C9.33891 21.2674 9.99867 20.5727 9.99867 19.4215L9.99867 4.60004L11.6179 4.60004L11.6179 19.4215C11.6179 20.5727 12.2656 21.2674 13.3497 21.2674C14.4286 21.2674 15.0883 20.5727 15.0883 19.4215L15.0883 4.60004L16.1269 4.60004C17.2879 4.60004 17.9826 3.93798 17.9826 2.85393C17.9826 1.77735 17.2879 1.12966 16.1269 1.12966L5.74049 1.12966C2.28952 1.12966 0 3.22739 0 6.39066Z"
                     fill="currentColor" fill-opacity="0.85" />
       </g>
</svg>