<?xml version="1.0" encoding="UTF-8"?>
<!--Generator: Apple Native CoreSVG 326-->
<!DOCTYPE svg PUBLIC "-//W3C//DTD SVG 1.1//EN" "http://www.w3.org/Graphics/SVG/1.1/DTD/svg11.dtd">
<svg version="1.1" xmlns="http://www.w3.org/2000/svg" xmlns:xlink="http://www.w3.org/1999/xlink"
       viewBox="0 0 16.8843 23.1484">
       <g>
              <rect height="23.1484" opacity="0" width="16.8843" x="0" y="0" />
              <path d="M9.80676 14.196C11.297 14.1822 12.7854 13.4165 13.9722 12.2223C15.1567 11.0452 15.9275 9.47703 15.9465 8.06144C15.9534 7.49691 15.6054 7.16664 15.1643 7.17355C14.7157 7.18562 14.4504 7.50843 14.4383 7.9989C14.3826 9.12898 13.8306 10.2509 12.9183 11.1557C11.9986 12.0852 10.8668 12.6252 9.73391 12.6884C9.27098 12.7154 8.91372 12.9755 8.91372 13.4385C8.91141 13.8693 9.22731 14.2006 9.80676 14.196Z"
                     fill="currentColor" fill-opacity="0.85" />
              <path d="M9.63407 11.3786C10.4085 11.3504 11.2627 10.8857 11.944 10.2039C12.6305 9.51512 13.1055 8.66606 13.136 7.87898C13.1475 7.35692 12.7902 6.98703 12.379 6.99164C11.9477 6.99625 11.6996 7.35867 11.6186 7.78715C11.5479 8.20895 11.2573 8.77305 10.8855 9.1402C10.5184 9.5045 9.95658 9.81239 9.53477 9.86583C9.09884 9.93189 8.73181 10.2127 8.73181 10.6429C8.7295 11.0685 9.09016 11.3976 9.63407 11.3786Z"
                     fill="currentColor" fill-opacity="0.85" />
              <path d="M2.30075 13.2011C3.34573 13.2011 3.94865 12.5832 3.94865 11.4986L3.94865 9.17211L6.028 9.17211C8.91869 9.17211 10.9031 7.35649 10.9031 4.5967C10.9031 1.8266 9.01052 0.00121295 6.22429 0.00121295L2.30075 0.00121295C1.26322 0.00121295 0.660303 0.626517 0.660303 1.72087L0.660303 11.4986C0.660303 12.5832 1.26322 13.2011 2.30075 13.2011ZM3.94865 6.65233L3.94865 2.57321L5.39415 2.57321C6.76673 2.57321 7.5831 3.28162 7.5831 4.60416C7.5831 5.94163 6.76673 6.65233 5.37922 6.65233Z"
                     fill="currentColor" fill-opacity="0.85" />
              <path d="M3.03541 23.1484C5.08122 23.1484 6.0559 21.6539 6.0559 19.6024C6.0559 17.5887 5.12884 16.0467 3.03541 16.0467C1.02582 16.0467 0 17.5445 0 19.6024C0 21.5724 0.94023 23.1484 3.03541 23.1484ZM3.03541 21.4865C2.24373 21.4865 2.06783 20.32 2.06783 19.6024C2.06783 18.8187 2.26787 17.7183 3.03541 17.7183C3.83917 17.7183 4.01046 18.8251 4.01046 19.6024C4.01046 20.3534 3.84026 21.4865 3.03541 21.4865ZM7.88062 23.0748C8.60589 23.0748 8.9085 22.6028 8.9085 22.0297L8.9085 20.6131L10.2971 20.6131C10.8059 20.6131 11.1303 20.3104 11.1303 19.8189C11.1303 19.3273 10.8082 19.0299 10.2971 19.0299L8.9085 19.0299L8.9085 17.8877L10.4557 17.8877C11.0087 17.8877 11.3457 17.5776 11.3457 17.0591C11.3457 16.5457 11.0087 16.2259 10.4557 16.2259L7.87832 16.2259C7.36031 16.2259 6.87743 16.5274 6.87743 17.283L6.87743 22.0297C6.87743 22.655 7.22481 23.0748 7.88062 23.0748ZM13.0653 23.0748C13.7808 23.0748 14.076 22.6028 14.076 22.0297L14.076 20.6131L15.4646 20.6131C15.9734 20.6131 16.3001 20.3104 16.3001 19.8189C16.3001 19.3273 15.9757 19.0299 15.4646 19.0299L14.076 19.0299L14.076 17.8877L15.6231 17.8877C16.1859 17.8877 16.523 17.5776 16.523 17.0591C16.523 16.5457 16.1859 16.2259 15.6231 16.2259L13.0556 16.2259C12.5301 16.2259 12.0449 16.5274 12.0449 17.283L12.0449 22.0297C12.0449 22.655 12.3946 23.0748 13.0653 23.0748Z"
                     fill="currentColor" fill-opacity="0.85" />
       </g>
</svg>