<?xml version="1.0" encoding="UTF-8"?>
<!--Generator: Apple Native CoreSVG 326-->
<!DOCTYPE svg PUBLIC "-//W3C//DTD SVG 1.1//EN" "http://www.w3.org/Graphics/SVG/1.1/DTD/svg11.dtd">
<svg version="1.1" xmlns="http://www.w3.org/2000/svg" xmlns:xlink="http://www.w3.org/1999/xlink"
       viewBox="0 0 34.9731 20.1992">
       <g>
              <rect height="20.1992" opacity="0" width="34.9731" x="0" y="0" />
              <path d="M4.18733 13.7232C4.5819 13.2448 4.46186 12.6441 4.02823 12.1616C2.87631 10.8856 2.23342 9.06107 2.23342 7.07338C2.23342 5.09314 2.86139 3.26114 4.02823 1.99258C4.46932 1.50266 4.59682 0.909386 4.18733 0.423531C3.75546-0.104238 2.99222-0.191462 2.36747 0.464898C0.888126 2.03619 0 4.5217 0 7.07338C0 9.63998 0.783676 12.0583 2.36747 13.6819C3.00715 14.3382 3.76292 14.2561 4.18733 13.7232ZM30.4245 13.7232C30.8489 14.2561 31.6047 14.3382 32.2443 13.6819C33.8379 12.0583 34.6118 9.63998 34.6118 7.07338C34.6118 4.5217 33.7335 2.03619 32.2443 0.464898C31.627-0.191462 30.8638-0.104238 30.4245 0.423531C30.0225 0.909386 30.1425 1.50266 30.591 1.99258C31.7504 3.26114 32.3784 5.09314 32.3784 7.07338C32.3784 9.06107 31.7355 10.8856 30.591 12.1616C30.1574 12.6441 30.0299 13.2448 30.4245 13.7232Z"
                     fill="currentColor" fill-opacity="0.85" />
              <path d="M7.40665 10.8803C7.76392 10.4094 7.65189 9.83565 7.29462 9.33366C6.90266 8.81014 6.612 7.87264 6.612 7.07338C6.612 6.27411 6.90266 5.32685 7.29462 4.79817C7.64442 4.30364 7.76392 3.73735 7.40665 3.25896C6.99486 2.72373 6.17018 2.68643 5.5971 3.29748C4.79971 4.18803 4.37858 5.5856 4.37858 7.07338C4.37858 8.56115 4.79971 9.95872 5.5971 10.8344C6.17018 11.4454 6.99486 11.4133 7.40665 10.8803ZM27.2126 10.8803C27.617 11.4133 28.4416 11.4454 29.0147 10.8344C29.8196 9.95872 30.2332 8.56115 30.2332 7.07338C30.2332 5.5856 29.8196 4.18803 29.0147 3.29748C28.4416 2.68643 27.617 2.72373 27.2126 3.25896C26.8479 3.73735 26.9674 4.30364 27.3172 4.79817C27.7092 5.32685 27.9998 6.27411 27.9998 7.07338C27.9998 7.87264 27.7092 8.81014 27.3172 9.33366C26.9599 9.83565 26.8479 10.4094 27.2126 10.8803Z"
                     fill="currentColor" fill-opacity="0.85" />
              <path d="M12.0669 20.195C13.6326 20.195 14.5438 19.2419 14.5438 17.6044L14.5438 14.0266L17.7597 14.0266C22.1603 14.0266 25.1688 11.2616 25.1688 7.07338C25.1688 2.83582 22.2969 0.0851277 18.053 0.0851277L12.0669 0.0851277C10.5011 0.0851277 9.58991 1.02851 9.58991 2.67575L9.58991 17.6044C9.58991 19.2442 10.5011 20.195 12.0669 20.195ZM14.5438 10.2333L14.5438 3.94098L16.798 3.94098C18.9072 3.94098 20.1563 5.03782 20.1563 7.08084C20.1563 9.13416 18.9049 10.2333 16.7682 10.2333Z"
                     fill="currentColor" fill-opacity="0.85" />
       </g>
</svg>