<?xml version="1.0" encoding="UTF-8"?>
<!--Generator: Apple Native CoreSVG 326-->
<!DOCTYPE svg PUBLIC "-//W3C//DTD SVG 1.1//EN" "http://www.w3.org/Graphics/SVG/1.1/DTD/svg11.dtd">
<svg version="1.1" xmlns="http://www.w3.org/2000/svg" xmlns:xlink="http://www.w3.org/1999/xlink"
       viewBox="0 0 21.365 21.006">
       <g>
              <rect height="21.006" opacity="0" width="21.365" x="0" y="0" />
              <path d="M21.0037 10.4981C21.0037 16.2923 16.302 20.9962 10.4981 20.9962C4.70394 20.9962 0 16.2923 0 10.4981C0 4.70163 4.70394 0 10.4981 0C16.302 0 21.0037 4.70163 21.0037 10.4981ZM8.35252 5.89268C7.24555 5.89268 6.68114 6.49505 6.68114 7.6164L6.68114 13.5875C6.68114 14.6394 7.22547 15.2665 8.19069 15.2665C9.1456 15.2665 9.71231 14.6365 9.71231 13.5875L9.71231 12.8078L11.0135 12.8078C13.21 12.8078 14.6179 11.4579 14.6179 9.34134C14.6179 7.23967 13.2301 5.89268 11.0531 5.89268ZM11.8002 9.3488C11.8002 10.1929 11.3909 10.6373 10.6121 10.6373L9.71231 10.6373L9.71231 8.0655L10.6121 8.0655C11.4035 8.0655 11.8002 8.50234 11.8002 9.3488Z"
                     fill="currentColor" fill-opacity="0.85" />
       </g>
</svg>