<?xml version="1.0" encoding="UTF-8"?>
<!--Generator: Apple Native CoreSVG 326-->
<!DOCTYPE svg PUBLIC "-//W3C//DTD SVG 1.1//EN" "http://www.w3.org/Graphics/SVG/1.1/DTD/svg11.dtd">
<svg version="1.1" xmlns="http://www.w3.org/2000/svg" xmlns:xlink="http://www.w3.org/1999/xlink"
       viewBox="0 0 15.9425 20.1909">
       <g>
              <rect height="20.1909" opacity="0" width="15.9425" x="0" y="0" />
              <path d="M2.46949 20.1909C4.04498 20.1909 4.95621 19.2377 4.95621 17.6003L4.95621 14.0225L8.17213 14.0225C12.5704 14.0225 15.5812 11.2574 15.5812 7.06922C15.5812 2.83167 12.707 0.0809759 8.46541 0.0809759L2.46949 0.0809759C0.911237 0.0809759 0 1.02436 0 2.6716L0 17.6003C0 19.24 0.911237 20.1909 2.46949 20.1909ZM4.95621 10.2292L4.95621 3.93682L7.20297 3.93682C9.31732 3.93682 10.5687 5.03367 10.5687 7.07668C10.5687 9.13001 9.31732 10.2292 7.18059 10.2292Z"
                     fill="currentColor" fill-opacity="0.85" />
       </g>
</svg>