<?xml version="1.0" encoding="UTF-8"?>
<!--Generator: Apple Native CoreSVG 326-->
<!DOCTYPE svg PUBLIC "-//W3C//DTD SVG 1.1//EN" "http://www.w3.org/Graphics/SVG/1.1/DTD/svg11.dtd">
<svg version="1.1" xmlns="http://www.w3.org/2000/svg" xmlns:xlink="http://www.w3.org/1999/xlink"
       viewBox="0 0 27.4015 26.4977">
       <g>
              <rect height="26.4977" opacity="0" width="27.4015" x="0" y="0" />
              <path d="M9.92544 7.93824C9.92743 8.702 9.88042 9.46545 9.78065 10.2282C9.11136 9.92527 8.63593 9.88554 8.43741 10.0914C7.96217 10.5643 8.80498 12.5619 11.2233 14.978C13.6342 17.3912 15.6295 18.2438 16.1048 17.7662C16.3034 17.5654 16.262 17.0759 15.9517 16.3882C16.6855 16.2904 17.4173 16.2418 18.1487 16.2394C18.65 17.8304 18.4693 19.2644 16.9183 19.9099L3.21413 25.6507C1.11227 26.5322-0.703102 24.7897 0.269701 22.6156L6.28114 9.27838C7.00388 7.68058 8.39408 7.46271 9.92544 7.93824ZM17.1846 14.1559C16.3591 14.1957 15.5328 14.2909 14.7052 14.4412C14.5029 14.1832 14.2741 13.9138 14.0187 13.6353L15.64 12.0133C16.1926 12.6567 16.7323 13.3933 17.1846 14.1559ZM14.1384 10.5075L12.5033 12.13C12.2278 11.8813 11.961 11.6569 11.7055 11.4573C11.8602 10.609 11.9581 9.76352 11.9989 8.91946C12.7545 9.38238 13.488 9.93846 14.1384 10.5075Z"
                     fill="currentColor" fill-opacity="0.85" />
              <path d="M9.86549 2.90755C10.6678 2.90755 11.3127 2.27236 11.3127 1.46776C11.3127 0.665458 10.6678 0.0153464 9.86549 0.0153464C9.05112 0.0153464 8.41824 0.665458 8.41824 1.46776C8.41824 2.27236 9.05112 2.90755 9.86549 2.90755ZM11.6992 4.42037C11.5786 3.88745 11.2174 3.44296 10.6351 3.44296C10.035 3.44526 9.46995 3.96436 9.60776 4.57135C10.0323 6.83642 10.0323 9.10272 9.60776 11.3621C9.46765 11.9817 10.035 12.491 10.6328 12.4933C11.168 12.4933 11.5763 12.0959 11.6969 11.5108C12.1335 9.13541 12.1335 6.78135 11.6992 4.42037ZM16.1692 4.41049C17.3886 4.41049 18.3707 3.42604 18.3707 2.20151C18.3707 0.957456 17.3886 0 16.1692 0C14.9424 0 13.9603 0.957456 13.9603 2.20151C13.9603 3.42604 14.9424 4.41049 16.1692 4.41049ZM14.3287 7.70302C15.031 7.70302 15.576 7.1408 15.576 6.45338C15.576 5.78319 15.031 5.20605 14.3287 5.20605C13.651 5.20605 13.0865 5.77573 13.0865 6.45338C13.0865 7.14826 13.651 7.70302 14.3287 7.70302ZM24.5558 3.03893C25.2185 3.03893 25.771 2.48647 25.771 1.7916C25.771 1.1191 25.2185 0.549422 24.5558 0.549422C23.8534 0.549422 23.301 1.1191 23.301 1.7916C23.301 2.48647 23.8534 3.03893 24.5558 3.03893ZM21.271 3.28574L19.4672 5.08953C19.0543 5.51734 19.064 6.17831 19.4672 6.59119C19.8749 7.00408 20.5582 7.0213 20.9711 6.60611L22.7749 4.79717C23.1953 4.38428 23.178 3.70609 22.7749 3.28574C22.3471 2.87516 21.6689 2.88777 21.271 3.28574ZM17.4017 7.2692L12.2347 12.3966C11.8218 12.8072 11.8391 13.5026 12.2496 13.908C12.6551 14.3186 13.3356 14.3284 13.7461 13.908L18.8959 8.75595C19.2669 8.38267 19.3065 7.68955 18.8959 7.27667C18.4704 6.83394 17.7824 6.88331 17.4017 7.2692ZM25.5937 12.3657C26.3908 12.3657 27.0409 11.7305 27.0409 10.9162C27.0409 10.1139 26.3983 9.46374 25.5937 9.46374C24.7718 9.46374 24.139 10.1139 24.139 10.9162C24.139 11.7305 24.7793 12.3657 25.5937 12.3657ZM21.1035 12.7512C22.1741 12.7512 23.039 11.9207 23.039 10.8501C23.039 9.78928 22.1815 8.92433 21.1035 8.92433C20.0427 8.92433 19.2047 9.78928 19.2047 10.8501C19.2047 11.9207 20.0427 12.7512 21.1035 12.7512ZM24.9689 17.5373C25.7735 17.5373 26.4162 16.897 26.4162 16.0901C26.4162 15.278 25.7735 14.6428 24.9689 14.6428C24.1643 14.6428 23.5217 15.278 23.5217 16.0901C23.5217 16.897 24.1643 17.5373 24.9689 17.5373ZM21.7367 14.451C19.3735 14.0242 17.0142 14.0167 14.644 14.451C14.0761 14.5814 13.6764 14.9896 13.6787 15.5226C13.6787 16.1226 14.188 16.69 14.795 16.5671C17.0693 16.1351 19.3184 16.1254 21.5858 16.5573C22.1807 16.6952 22.7245 16.1324 22.7268 15.5226C22.7291 14.9403 22.2599 14.5716 21.7367 14.451Z"
                     fill="currentColor" fill-opacity="0.85" />
       </g>
</svg>