<?xml version="1.0" encoding="UTF-8"?>
<!--Generator: Apple Native CoreSVG 326-->
<!DOCTYPE svg PUBLIC "-//W3C//DTD SVG 1.1//EN" "http://www.w3.org/Graphics/SVG/1.1/DTD/svg11.dtd">
<svg version="1.1" xmlns="http://www.w3.org/2000/svg" xmlns:xlink="http://www.w3.org/1999/xlink"
       viewBox="0 0 14.6181 18.3854">
       <g>
              <rect height="18.3854" opacity="0" width="14.6181" x="0" y="0" />
              <path d="M1.70917 18.3756L4.21178 18.3756C5.33743 18.3756 5.91348 17.7996 5.91348 16.6642L5.91348 1.70917C5.91348 0.594369 5.33743 0 4.21178 0L1.70917 0C0.576051 0 0 0.573746 0 1.70917L0 16.6642C0 17.7996 0.546208 18.3756 1.70917 18.3756ZM10.0473 18.3756L12.5476 18.3756C13.683 18.3756 14.2567 17.7996 14.2567 16.6642L14.2567 1.70917C14.2567 0.594369 13.683 0 12.5476 0L10.0473 0C8.91183 0 8.33578 0.573746 8.33578 1.70917L8.33578 16.6642C8.33578 17.7996 8.88945 18.3756 10.0473 18.3756Z"
                     fill="currentColor" fill-opacity="0.85" />
       </g>
</svg>