<?xml version="1.0" encoding="UTF-8"?>
<!--Generator: Apple Native CoreSVG 326-->
<!DOCTYPE svg PUBLIC "-//W3C//DTD SVG 1.1//EN" "http://www.w3.org/Graphics/SVG/1.1/DTD/svg11.dtd">
<svg version="1.1" xmlns="http://www.w3.org/2000/svg" xmlns:xlink="http://www.w3.org/1999/xlink"
       viewBox="0 0 21.365 21.006">
       <g>
              <rect height="21.006" opacity="0" width="21.365" x="0" y="0" />
              <path d="M10.4981 20.9962C16.302 20.9962 21.0037 16.2946 21.0037 10.4981C21.0037 4.70163 16.302 0 10.4981 0C4.70163 0 0 4.70163 0 10.4981C0 16.2946 4.70163 20.9962 10.4981 20.9962ZM10.4981 17.9484C6.37829 17.9484 3.04785 14.6179 3.04785 10.4981C3.04785 6.37829 6.37829 3.04785 10.4981 3.04785C14.6179 3.04785 17.9558 6.37829 17.9558 10.4981C17.9558 14.6179 14.6179 17.9484 10.4981 17.9484Z"
                     fill="currentColor" fill-opacity="0.85" />
              <path d="M5.74583 9.83568C5.74583 10.7526 6.26341 11.4747 6.90739 11.4747C7.55653 11.4747 8.07642 10.7526 8.07642 9.83568C8.07642 8.94119 7.55653 8.21677 6.90739 8.21677C6.26341 8.21677 5.74583 8.94119 5.74583 9.83568ZM7.90197 7.26532C7.90197 8.16728 8.41439 8.89916 9.06353 8.89916C9.71498 8.89916 10.2326 8.16728 10.2326 7.26532C10.2326 6.36567 9.71498 5.64356 9.06353 5.64356C8.40693 5.64356 7.90197 6.36337 7.90197 7.26532ZM10.7688 7.26532C10.7688 8.16728 11.2789 8.89916 11.9355 8.89916C12.5795 8.89916 13.0994 8.16728 13.0994 7.26532C13.0994 6.36337 12.587 5.64356 11.9355 5.64356C11.2789 5.64356 10.7688 6.36567 10.7688 7.26532ZM12.9175 9.83568C12.9175 10.7526 13.4374 11.4747 14.094 11.4747C14.7357 11.4747 15.2458 10.7526 15.2458 9.83568C15.2458 8.94119 14.7357 8.21677 14.094 8.21677C13.4374 8.21677 12.9175 8.94119 12.9175 9.83568ZM7.16536 13.2064C7.16536 14.1675 7.79958 14.8408 8.72853 14.8408C9.17205 14.8408 9.50869 14.7213 9.7908 14.6242C10.0218 14.5414 10.2332 14.4782 10.4958 14.4782C10.7584 14.4782 10.9721 14.5414 11.2008 14.6242C11.4927 14.7213 11.8219 14.8408 12.2631 14.8408C13.192 14.8408 13.8285 14.1675 13.8285 13.2064C13.8285 12.4337 13.3655 12.0241 12.9369 11.6834C12.7105 11.4984 12.4916 11.3232 12.3411 11.0996C12.2244 10.9296 12.1296 10.7279 12.0148 10.5033C11.708 9.846 11.4569 9.18764 10.4958 9.18764C9.54447 9.18764 9.28365 9.8483 8.97916 10.5033C8.86943 10.7279 8.77463 10.9273 8.66029 11.0973C8.50228 11.3232 8.28337 11.4984 8.05701 11.6834C7.62841 12.0241 7.16536 12.4337 7.16536 13.2064Z"
                     fill="currentColor" fill-opacity="0.85" />
       </g>
</svg>