<?xml version="1.0" encoding="UTF-8"?>
<!--Generator: Apple Native CoreSVG 326-->
<!DOCTYPE svg PUBLIC "-//W3C//DTD SVG 1.1//EN" "http://www.w3.org/Graphics/SVG/1.1/DTD/svg11.dtd">
<svg version="1.1" xmlns="http://www.w3.org/2000/svg" xmlns:xlink="http://www.w3.org/1999/xlink"
       viewBox="0 0 23.3547 22.3589">
       <g>
              <rect height="22.3589" opacity="0" width="23.3547" x="0" y="0" />
              <path d="M7.53088 22.3399C8.59697 22.3399 9.50954 22.098 10.0736 21.8637C10.6871 21.6046 11.052 21.3731 11.4869 21.3731C11.9121 21.3731 12.277 21.6046 12.8927 21.8637C13.4569 22.098 14.3671 22.3399 15.4332 22.3399C17.8261 22.3399 19.5843 20.5852 19.5843 18.2848C19.5843 16.0561 18.23 15.0016 17.2213 14.2106C16.6664 13.7579 16.3268 13.4787 16.0855 13.1414C15.8167 12.7588 15.6564 12.3348 15.2871 11.5079C14.5852 9.90647 13.7524 8.48002 11.4869 8.48002C9.21166 8.48002 8.38861 9.90647 7.67924 11.5056C7.33756 12.2751 7.17209 12.6968 6.92795 13.0696C6.68436 13.4293 6.33498 13.7281 5.7451 14.2106C4.73639 15.0016 3.38206 16.0585 3.38206 18.2848C3.38206 20.5852 5.1403 22.3399 7.53088 22.3399ZM7.70993 19.9614C6.62055 19.9614 5.8575 19.269 5.8575 18.2848C5.8575 16.5517 7.61543 16.5008 8.87629 14.368C9.86941 12.7148 10.0528 10.8585 11.4869 10.8585C12.9136 10.8585 13.0947 12.7148 14.0901 14.3726C15.351 16.5008 17.1089 16.5517 17.1089 18.2848C17.1089 19.269 16.3458 19.9614 15.2542 19.9614C13.837 19.9614 13.0304 19.0044 11.4869 19.0044C9.94341 19.0044 9.13681 19.9614 7.70993 19.9614ZM0 10.0969C0 12.5301 1.19183 14.1562 2.99022 14.1562C4.78631 14.1562 5.99021 12.5301 5.99021 10.0969C5.99021 7.67123 4.78631 6.0451 2.99022 6.0451C1.19183 6.0451 0 7.67123 0 10.0969ZM2.14826 10.0969C2.14826 8.93688 2.48963 8.16352 2.99022 8.17098C3.49828 8.16352 3.84195 8.93688 3.84195 10.0969C3.84195 11.2644 3.49828 12.0378 2.99022 12.0303C2.48963 12.0378 2.14826 11.2644 2.14826 10.0969ZM5.08929 4.04952C5.08929 6.48498 6.28342 8.1065 8.07951 8.1065C9.8779 8.1065 11.0795 6.48037 11.0795 4.04952C11.0795 1.62382 9.8779 0 8.07951 0C6.28342 0 5.08929 1.62382 5.08929 4.04952ZM7.23754 4.04952C7.23754 2.89178 7.57892 2.11841 8.07951 2.12588C8.58756 2.11841 8.93124 2.89178 8.93124 4.04952C8.93124 5.21703 8.58756 5.98809 8.07951 5.98063C7.57892 5.98809 7.23754 5.21703 7.23754 4.04952ZM11.9139 4.04952C11.9139 6.45053 13.1155 8.1065 14.9139 8.1065C16.7174 8.1065 17.9041 6.47752 17.9041 4.04952C17.9041 1.63128 16.7174 0 14.9139 0C13.108 0 11.9139 1.63875 11.9139 4.04952ZM14.0771 4.04952C14.0771 2.944 14.4506 2.1781 14.9139 2.1781C15.3697 2.1781 15.7335 2.92908 15.7335 4.04952C15.7335 5.17972 15.3697 5.9284 14.9139 5.9284C14.4506 5.9284 14.0771 5.1648 14.0771 4.04952ZM17.0032 10.0969C17.0032 12.5152 18.2071 14.1562 20.0032 14.1562C21.7941 14.1562 22.9934 12.5226 22.9934 10.0969C22.9934 7.67869 21.7941 6.0451 20.0032 6.0451C18.2071 6.0451 17.0032 7.68615 17.0032 10.0969ZM19.1663 10.0969C19.1663 8.98165 19.5324 8.21574 20.0032 8.21574C20.459 8.21574 20.8227 8.95927 20.8227 10.0969C20.8227 11.2421 20.459 11.9856 20.0032 11.9856C19.5324 11.9856 19.1663 11.2197 19.1663 10.0969Z"
                     fill="currentColor" fill-opacity="0.85" />
       </g>
</svg>