<?xml version="1.0" encoding="UTF-8"?>
<!--Generator: Apple Native CoreSVG 326-->
<!DOCTYPE svg PUBLIC "-//W3C//DTD SVG 1.1//EN" "http://www.w3.org/Graphics/SVG/1.1/DTD/svg11.dtd">
<svg version="1.1" xmlns="http://www.w3.org/2000/svg" xmlns:xlink="http://www.w3.org/1999/xlink"
       viewBox="0 0 20.8912 21.7266">
       <g>
              <rect height="21.7266" opacity="0" width="20.8912" x="0" y="0" />
              <path d="M2.84805 13.5268L2.84805 3.68055C2.84805 3.07672 3.11117 2.84805 3.68055 2.84805L16.8493 2.84805C17.4112 2.84805 17.6818 3.07672 17.6818 3.68055L17.6818 13.5268C17.6818 14.1284 17.4112 14.357 16.8493 14.357L3.68055 14.357C3.11117 14.357 2.84805 14.1284 2.84805 13.5268Z"
                     fill="currentColor" fill-opacity="0.2125" />
              <path d="M5.31984 12.3293L9.89762 12.3293C10.2048 12.3293 10.4357 12.0932 10.4357 11.7814C10.4357 11.4644 10.2048 11.2479 9.89762 11.2479L5.31984 11.2479C4.99309 11.2479 4.76454 11.4644 4.76454 11.7814C4.76454 12.1082 4.99309 12.3293 5.31984 12.3293ZM5.31984 10.4252L11.7433 10.4252C12.0528 10.4252 12.2791 10.199 12.2791 9.86989C12.2791 9.55291 12.0528 9.34389 11.7433 9.34389L5.31984 9.34389C4.99309 9.34389 4.76454 9.55291 4.76454 9.86989C4.76454 10.199 4.99309 10.4252 5.31984 10.4252ZM5.42726 6.36567C5.78047 6.36567 6.08253 6.07622 6.08253 5.71787C6.08253 5.34974 5.78047 5.05283 5.42726 5.05283C5.05914 5.05283 4.76454 5.34974 4.76454 5.71787C4.76454 6.07622 5.05914 6.36567 5.42726 6.36567ZM5.42726 8.22048C5.78047 8.22048 6.08253 7.92356 6.08253 7.55544C6.08253 7.19709 5.78047 6.90017 5.42726 6.90017C5.05914 6.90017 4.76454 7.19709 4.76454 7.55544C4.76454 7.92356 5.05914 8.22048 5.42726 8.22048ZM6.6416 6.58525C6.6416 7.2131 6.90648 7.81626 7.31882 8.14478C7.41933 8.2206 7.54453 8.2872 7.71448 8.2872C7.94765 8.2872 8.15667 8.07818 8.15667 7.82494C8.15667 7.66068 8.07339 7.56248 7.94073 7.4149C7.71721 7.16154 7.57764 6.87712 7.57764 6.58525C7.57764 6.29853 7.72928 6.01126 7.94073 5.76306C8.07339 5.60571 8.15667 5.50751 8.15667 5.35072C8.15667 5.09002 7.94765 4.88846 7.71448 4.88846C7.54683 4.88846 7.41933 4.9499 7.31882 5.03318C6.87828 5.38529 6.6416 5.9574 6.6416 6.58525Z"
                     fill="currentColor" fill-opacity="0.85" />
              <path d="M15.1744 16.6822C14.8005 16.6822 14.488 16.3697 14.488 15.9837C14.488 15.6098 14.8005 15.2973 15.1744 15.2973C15.5628 15.2973 15.8655 15.6098 15.8655 15.9837C15.8655 16.3697 15.5628 16.6822 15.1744 16.6822Z"
                     fill="currentColor" fill-opacity="0.2125" />
              <path d="M0 14.3898C0 16.4919 1.18819 17.6755 3.28107 17.6755L17.2488 17.6755C19.3416 17.6755 20.5298 16.4919 20.5298 14.3898L20.5298 3.28568C20.5298 1.18128 19.3393 0 17.2442 0L3.28568 0C1.1905 0 0 1.18128 0 3.28568ZM2.84805 13.5268L2.84805 3.68055C2.84805 3.07672 3.11117 2.84805 3.68055 2.84805L16.8493 2.84805C17.4112 2.84805 17.6818 3.07672 17.6818 3.68055L17.6818 13.5268C17.6818 14.1284 17.4112 14.357 16.8493 14.357L3.68055 14.357C3.11117 14.357 2.84805 14.1284 2.84805 13.5268ZM15.1744 16.6822C14.8005 16.6822 14.488 16.3697 14.488 15.9837C14.488 15.6098 14.8005 15.2973 15.1744 15.2973C15.5628 15.2973 15.8655 15.6098 15.8655 15.9837C15.8655 16.3697 15.5628 16.6822 15.1744 16.6822ZM10.2612 19.3547C13.1414 19.3547 15.951 18.511 16.3889 17.2263L4.14093 17.2263C4.57887 18.511 6.86621 19.3547 10.2612 19.3547ZM4.56649 20.889L15.9633 20.889C17.2451 20.889 17.4604 19.2582 16.3298 18.8304L14.7499 18.1917L5.69038 18.1917L4.19255 18.8304C3.08436 19.288 3.27725 20.889 4.56649 20.889Z"
                     fill="currentColor" fill-opacity="0.85" />
       </g>
</svg>