<?xml version="1.0" encoding="UTF-8"?>
<!--Generator: Apple Native CoreSVG 326-->
<!DOCTYPE svg PUBLIC "-//W3C//DTD SVG 1.1//EN" "http://www.w3.org/Graphics/SVG/1.1/DTD/svg11.dtd">
<svg version="1.1" xmlns="http://www.w3.org/2000/svg" xmlns:xlink="http://www.w3.org/1999/xlink"
       viewBox="0 0 18.8981 22.2994">
       <g>
              <rect height="22.2994" opacity="0" width="18.8981" x="0" y="0" />
              <path d="M18.5367 3.62299L18.5195 18.6736C18.5195 20.9422 17.1749 22.2896 14.9017 22.2896L6.49681 22.2896C4.22354 22.2896 2.87152 20.9422 2.87152 18.6736L2.87152 14.4539L2.27745 13.6823C0.689842 11.63 0 10.0237 0 7.14019L0 4.87014C0 1.78984 1.77777 0 4.86783 0L14.9161 0C17.1611 0 18.5367 1.38023 18.5367 3.62299ZM8.01843 15.9363C7.50558 15.9363 7.11332 16.3412 7.11332 16.8517C7.11332 17.372 7.50558 17.7643 8.01843 17.7643L13.5403 17.7643C14.0508 17.7643 14.4631 17.372 14.4631 16.8517C14.4631 16.3412 14.0508 15.9363 13.5403 15.9363ZM8.01843 12.3229C7.50558 12.3229 7.11332 12.7301 7.11332 13.2429C7.11332 13.7609 7.50558 14.1583 8.01843 14.1583L13.5403 14.1583C14.0508 14.1583 14.4631 13.7609 14.4631 13.2429C14.4631 12.7301 14.0508 12.3229 13.5403 12.3229ZM6.33371 8.71124C5.82317 8.71124 5.42344 9.10866 5.42344 9.62666C5.42344 10.1544 5.82317 10.5467 6.33371 10.5467L13.5403 10.5467C14.0508 10.5467 14.4631 10.1544 14.4631 9.62666C14.4631 9.10866 14.0508 8.71124 13.5403 8.71124ZM5.34344 5.09784C4.8329 5.09784 4.43548 5.50502 4.43548 6.02533C4.43548 6.52841 4.8329 6.92583 5.34344 6.92583L13.5403 6.92583C14.0508 6.92583 14.4631 6.52841 14.4631 6.02533C14.4631 5.50502 14.0508 5.09784 13.5403 5.09784Z"
                     fill="currentColor" fill-opacity="0.85" />
       </g>
</svg>