<?xml version="1.0" encoding="UTF-8"?>
<!--Generator: Apple Native CoreSVG 326-->
<!DOCTYPE svg PUBLIC "-//W3C//DTD SVG 1.1//EN" "http://www.w3.org/Graphics/SVG/1.1/DTD/svg11.dtd">
<svg version="1.1" xmlns="http://www.w3.org/2000/svg" xmlns:xlink="http://www.w3.org/1999/xlink"
       viewBox="0 0 26.3452 21.7425">
       <g>
              <rect height="21.7425" opacity="0" width="26.3452" x="0" y="0" />
              <path d="M3.01964 1.51756L3.01964 20.2301C3.01964 21.0626 2.33981 21.7425 1.5147 21.7425C0.679834 21.7425 0 21.0626 0 20.2301L0 1.51756C0 0.68499 0.679834 0.0051558 1.5147 0.0051558C2.33981 0.0051558 3.01964 0.68499 3.01964 1.51756ZM25.9839 1.51756L25.9839 20.2301C25.9839 21.0626 25.3041 21.7425 24.4715 21.7425C23.6441 21.7425 22.9643 21.0626 22.9643 20.2301L22.9643 18.6408L21.7844 18.6408L21.7844 17.0183L22.9643 17.0183L22.9643 13.9992L21.7844 13.9992L21.7844 12.3842L22.9643 12.3842L22.9643 9.36518L21.7844 9.36518L21.7844 7.74269L22.9643 7.74269L22.9643 4.72135L21.7844 4.72135L21.7844 3.10632L22.9643 3.10632L22.9643 1.51756C22.9643 0.68499 23.6441 0.0051558 24.4715 0.0051558C25.3041 0.0051558 25.9839 0.68499 25.9839 1.51756Z"
                     fill="currentColor" fill-opacity="0.85" />
              <path d="M5.27569 5.84452L20.6709 5.84452C21.3319 5.84452 21.7844 5.39202 21.7844 4.73566L21.7844 3.07193C21.7844 2.41557 21.3319 1.98315 20.6709 1.98315L5.27569 1.98315C4.61472 1.98315 4.1846 2.42303 4.1846 3.08685L4.1846 4.74312C4.1846 5.39948 4.61472 5.84452 5.27569 5.84452ZM5.27569 10.4809L20.6709 10.4809C21.3319 10.4809 21.7844 10.0335 21.7844 9.36972L21.7844 7.71345C21.7844 7.05709 21.3319 6.61952 20.6709 6.61952L5.27569 6.61952C4.61472 6.61952 4.1846 7.06455 4.1846 7.72091L4.1846 9.38464C4.1846 10.041 4.61472 10.4809 5.27569 10.4809ZM5.27569 15.1224L20.6709 15.1224C21.3319 15.1224 21.7844 14.6699 21.7844 14.0112L21.7844 12.3475C21.7844 11.6912 21.3319 11.261 20.6709 11.261L5.27569 11.261C4.61472 11.261 4.1846 11.6986 4.1846 12.3624L4.1846 14.0187C4.1846 14.6774 4.61472 15.1224 5.27569 15.1224ZM5.27569 19.7565L20.6709 19.7565C21.3319 19.7565 21.7844 19.3114 21.7844 18.6476L21.7844 16.9913C21.7844 16.335 21.3319 15.8951 20.6709 15.8951L5.27569 15.8951C4.61472 15.8951 4.1846 16.3424 4.1846 16.9988L4.1846 18.6625C4.1846 19.3189 4.61472 19.7565 5.27569 19.7565Z"
                     fill="currentColor" fill-opacity="0.85" />
       </g>
</svg>