<?xml version="1.0" encoding="UTF-8"?>
<!--Generator: Apple Native CoreSVG 326-->
<!DOCTYPE svg PUBLIC "-//W3C//DTD SVG 1.1//EN" "http://www.w3.org/Graphics/SVG/1.1/DTD/svg11.dtd">
<svg version="1.1" xmlns="http://www.w3.org/2000/svg" xmlns:xlink="http://www.w3.org/1999/xlink"
       viewBox="0 0 19.2608 19.3473">
       <g>
              <rect height="19.3473" opacity="0" width="19.2608" x="0" y="0" />
              <path d="M9.31187 12.2398L3.71448 17.8419L1.01098 18.8603C0.590089 19.0176 0.107206 18.5801 0.284625 18.0995L1.30419 15.4293L6.89845 9.82921ZM15.7215 5.82464L12.5038 9.04509L10.0907 6.63362L13.3089 3.41204ZM17.7012 0.903429L18.2399 1.45182C18.8257 2.04279 18.7964 2.76642 18.1841 3.37638L16.9068 4.64906L14.4845 2.23647L15.7715 0.968937C16.3792 0.368745 17.1252 0.314761 17.7012 0.903429Z"
                     fill="currentColor" fill-opacity="0.85" />
              <path d="M16.4006 17.3443C16.7309 17.6671 17.2937 17.6821 17.6142 17.3443C17.9497 17.0117 17.952 16.4684 17.6142 16.1307L3.12303 1.64689C2.79275 1.31662 2.22756 1.31431 1.89959 1.64689C1.57909 1.97486 1.57909 2.54005 1.89959 2.86056Z"
                     fill="currentColor" fill-opacity="0.85" />
       </g>
</svg>