<?xml version="1.0" encoding="UTF-8"?>
<!--Generator: Apple Native CoreSVG 326-->
<!DOCTYPE svg PUBLIC "-//W3C//DTD SVG 1.1//EN" "http://www.w3.org/Graphics/SVG/1.1/DTD/svg11.dtd">
<svg version="1.1" xmlns="http://www.w3.org/2000/svg" xmlns:xlink="http://www.w3.org/1999/xlink"
       viewBox="0 0 25.8919 21.8882">
       <g>
              <rect height="21.8882" opacity="0" width="25.8919" x="0" y="0" />
              <path d="M23.8062 18.5507C23.8062 19.3832 23.1264 20.0631 22.2938 20.0631L6.68247 20.0631L9.7104 17.036L22.2938 17.036C23.1264 17.036 23.8062 17.7181 23.8062 18.5507Z"
                     fill="currentColor" fill-opacity="0.85" />
              <path d="M5.19612 19.1124L17.2031 7.0951L14.7905 4.6825L2.78583 16.6998L1.76626 19.3699C1.58884 19.8505 2.07173 20.2881 2.49262 20.1308ZM18.3885 5.91952L19.6657 4.64684C20.278 4.03688 20.3073 3.31325 19.7215 2.72228L19.1829 2.17389C18.6068 1.58522 17.8608 1.6392 17.2532 2.23939L15.9661 3.50693Z"
                     fill="currentColor" fill-opacity="0.85" />
       </g>
</svg>