<?xml version="1.0" encoding="UTF-8"?>
<!--Generator: Apple Native CoreSVG 326-->
<!DOCTYPE svg PUBLIC "-//W3C//DTD SVG 1.1//EN" "http://www.w3.org/Graphics/SVG/1.1/DTD/svg11.dtd">
<svg version="1.1" xmlns="http://www.w3.org/2000/svg" xmlns:xlink="http://www.w3.org/1999/xlink"
       viewBox="0 0 24.5977 26.5972">
       <g>
              <rect height="26.5972" opacity="0" width="24.5977" x="0" y="0" />
              <path d="M16.3105 3.55239L14.2098 5.64748C13.012 5.04662 11.7106 4.68905 10.3778 4.68905C6.57737 4.68905 3.87187 7.35367 3.87187 11.3523C3.87187 15.4986 6.59611 20.1511 12.9271 21.9404C13.7494 22.1929 14.203 22.56 14.203 23.3523C14.203 24.4499 13.3005 24.7538 12.3657 24.5959C7.57516 23.8562 1.09976 18.7572 1.09976 11.4287C1.09976 6.02779 4.90029 1.90949 10.678 1.90949C12.5691 1.90949 14.5274 2.51358 16.3105 3.55239ZM23.0644 14.1181C23.0644 17.9883 20.3877 20.7229 16.3741 20.7229C13.9305 20.7229 11.3539 19.697 9.607 17.9596C9.64173 17.9499 9.67646 17.9376 9.71116 17.9244L12.5702 16.815C13.575 17.6487 14.8975 18.1907 16.2054 18.1907C18.5084 18.1907 20.3439 16.5162 20.3439 14.1009C20.3439 12.9099 19.9056 11.5731 19.1439 10.2899L21.2105 8.21381C22.3655 9.99457 23.0644 12.0258 23.0644 14.1181Z"
                     fill="currentColor" fill-opacity="0.85" />
              <path d="M11.6677 15.3158L20.6163 6.36201L18.2884 4.03633L9.34207 12.9878L8.35993 15.5543C8.17735 16.0354 8.6734 16.4443 9.08222 16.2841ZM21.3815 5.60666L22.3641 4.56428C22.9292 3.95444 23.0308 3.07184 22.456 2.48153L22.0603 2.07556C21.5716 1.57654 20.6638 1.70337 20.0809 2.2713L19.0558 3.27867Z"
                     fill="currentColor" fill-opacity="0.85" />
       </g>
</svg>