<?xml version="1.0" encoding="UTF-8"?>
<!--Generator: Apple Native CoreSVG 326-->
<!DOCTYPE svg PUBLIC "-//W3C//DTD SVG 1.1//EN" "http://www.w3.org/Graphics/SVG/1.1/DTD/svg11.dtd">
<svg version="1.1" xmlns="http://www.w3.org/2000/svg" xmlns:xlink="http://www.w3.org/1999/xlink"
       viewBox="0 0 21.365 21.006">
       <g>
              <rect height="21.006" opacity="0" width="21.365" x="0" y="0" />
              <path d="M10.4981 20.9962C16.302 20.9962 21.0037 16.2946 21.0037 10.4981C21.0037 4.70163 16.302 0 10.4981 0C4.70163 0 0 4.70163 0 10.4981C0 16.2946 4.70163 20.9962 10.4981 20.9962ZM10.4981 17.9484C6.37829 17.9484 3.04785 14.6179 3.04785 10.4981C3.04785 6.37829 6.37829 3.04785 10.4981 3.04785C14.6179 3.04785 17.9558 6.37829 17.9558 10.4981C17.9558 14.6179 14.6179 17.9484 10.4981 17.9484ZM16.4616 16.971L16.4099 16.6323C15.3569 15.2042 13.3085 14.0199 10.4981 14.0199C7.6975 14.0199 5.64162 15.2042 4.59379 16.63L4.54211 16.971C6.63566 18.5078 8.76541 19.1653 10.4981 19.1653C12.2406 19.1653 14.3634 18.5101 16.4616 16.971ZM10.4981 12.5761C12.4276 12.5807 13.9074 10.9343 13.9074 8.85712C13.9074 6.89193 12.4104 5.20884 10.4981 5.20884C8.59327 5.20884 7.08651 6.89193 7.09627 8.85712C7.09858 10.9343 8.57834 12.5715 10.4981 12.5761Z"
                     fill="currentColor" fill-opacity="0.85" />
       </g>
</svg>