<?xml version="1.0" encoding="UTF-8"?>
<!--Generator: Apple Native CoreSVG 326-->
<!DOCTYPE svg PUBLIC "-//W3C//DTD SVG 1.1//EN" "http://www.w3.org/Graphics/SVG/1.1/DTD/svg11.dtd">
<svg version="1.1" xmlns="http://www.w3.org/2000/svg" xmlns:xlink="http://www.w3.org/1999/xlink"
       viewBox="0 0 26.8269 26.7527">
       <g>
              <rect height="26.7527" opacity="0" width="26.8269" x="0" y="0" />
              <path d="M18.3593 4.73033L18.6063 6.13045L11.2188 6.13045C8.16546 6.13045 6.19954 8.08715 6.19954 11.1353L6.19954 20.902C4.62805 20.8717 3.58662 19.9124 3.27573 18.1609L1.43288 7.71442C1.07331 5.65642 2.04393 4.266 4.11169 3.89897L14.5369 2.06589C16.6093 1.70862 17.9922 2.67233 18.3593 4.73033Z"
                     fill="currentColor" fill-opacity="0.85" />
              <path d="M11.2188 25.0343L21.8077 25.0343C23.907 25.0343 25.1034 23.8403 25.1034 21.7478L25.1034 11.1353C25.1034 9.04285 23.907 7.84884 21.8077 7.84884L11.2188 7.84884C9.11424 7.84884 7.91562 9.04055 7.91562 11.1353L7.91562 21.7478C7.91562 23.8426 9.11424 25.0343 11.2188 25.0343ZM11.4363 22.3063C12.2519 20.6641 14.2169 19.5377 16.5106 19.5377C18.8044 19.5377 20.7671 20.6641 21.5902 22.3063ZM16.5083 18.2221C14.8361 18.2221 13.5751 16.8135 13.5751 15.0257C13.5751 13.3304 14.866 11.8679 16.5083 11.8679C18.1605 11.8679 19.4513 13.3304 19.4513 15.0257C19.4513 16.8135 18.1903 18.2221 16.5083 18.2221Z"
                     fill="currentColor" fill-opacity="0.85" />
       </g>
</svg>