<?xml version="1.0" encoding="UTF-8"?>
<!--Generator: Apple Native CoreSVG 326-->
<!DOCTYPE svg PUBLIC "-//W3C//DTD SVG 1.1//EN" "http://www.w3.org/Graphics/SVG/1.1/DTD/svg11.dtd">
<svg version="1.1" xmlns="http://www.w3.org/2000/svg" xmlns:xlink="http://www.w3.org/1999/xlink"
       viewBox="0 0 21.365 21.006">
       <g>
              <rect height="21.006" opacity="0" width="21.365" x="0" y="0" />
              <path d="M21.0037 10.4981C21.0037 16.2923 16.302 20.9962 10.4981 20.9962C4.70394 20.9962 0 16.2923 0 10.4981C0 4.70163 4.70394 0 10.4981 0C16.302 0 21.0037 4.70163 21.0037 10.4981ZM7.53597 13.4758C7.25277 13.208 7.01324 12.884 6.81277 12.5112L5.17087 13.1934C6.18364 15.153 8.18924 16.4779 10.4981 16.4779C12.8167 16.4779 14.82 15.153 15.8374 13.1934L14.1932 12.5112C13.9904 12.884 13.7509 13.208 13.4677 13.4781C12.8088 12.8943 11.7928 12.4512 10.4981 12.4512C9.21087 12.4512 8.19718 12.8943 7.53597 13.4758ZM4.53325 10.4981C4.53325 11.1433 4.62751 11.781 4.83435 12.3705L6.46418 11.6905C6.36301 11.305 6.2975 10.9124 6.2975 10.4981C6.2975 10.0889 6.36301 9.69126 6.46418 9.30567L4.83435 8.62572C4.62751 9.22033 4.53325 9.84315 4.53325 10.4981ZM14.5395 9.30567C14.643 9.69126 14.7108 10.0889 14.7108 10.4981C14.7108 10.9124 14.643 11.305 14.5395 11.6905L16.1693 12.3705C16.3762 11.781 16.4727 11.1433 16.4727 10.4981C16.4727 9.84315 16.3762 9.22263 16.1693 8.62572ZM8.53728 9.56661C8.53728 10.7622 9.39963 11.7027 10.4981 11.705C11.6017 11.7073 12.4687 10.7622 12.4687 9.56661C12.4687 8.43192 11.5943 7.45469 10.4981 7.45469C9.40939 7.45469 8.53267 8.43192 8.53728 9.56661ZM5.16857 7.81026L6.803 8.48275C7.18453 7.77817 7.77071 7.1943 8.48506 6.80816L7.80795 5.17603C6.67095 5.75111 5.75111 6.68072 5.16857 7.81026ZM12.5135 6.80816C13.2232 7.19199 13.8168 7.77817 14.1932 8.48275L15.8351 7.81026C15.2503 6.68072 14.3304 5.75111 13.1837 5.17372ZM8.62341 4.82689L9.30337 6.45672C9.68896 6.35324 10.0889 6.30035 10.4958 6.30035C10.9101 6.30035 11.3124 6.35324 11.6905 6.45672L12.3659 4.82689C11.7787 4.63497 11.1508 4.52349 10.4958 4.52349C9.85291 4.52349 9.21056 4.63497 8.62341 4.82689Z"
                     fill="currentColor" fill-opacity="0.85" />
       </g>
</svg>