<?xml version="1.0" encoding="UTF-8"?>
<!--Generator: Apple Native CoreSVG 326-->
<!DOCTYPE svg PUBLIC "-//W3C//DTD SVG 1.1//EN" "http://www.w3.org/Graphics/SVG/1.1/DTD/svg11.dtd">
<svg version="1.1" xmlns="http://www.w3.org/2000/svg" xmlns:xlink="http://www.w3.org/1999/xlink"
       viewBox="0 0 27.92 18.7522">
       <g>
              <rect height="18.7522" opacity="0" width="27.92" x="0" y="0" />
              <path d="M7.83792 18.735L19.723 18.735C21.5978 18.735 22.5409 18.0751 22.5409 16.695C22.5409 13.659 18.8384 10.4278 13.7768 10.4278C8.72022 10.4278 5.01777 13.659 5.01777 16.695C5.01777 18.0751 5.96085 18.735 7.83792 18.735ZM7.98095 16.3577C7.82403 16.3577 7.77629 16.2818 7.77629 16.1738C7.77629 15.0175 9.99564 12.8126 13.7768 12.8126C17.563 12.8126 19.7824 15.0175 19.7824 16.1738C19.7824 16.2818 19.7369 16.3577 19.58 16.3577ZM13.7768 9.52045C16.2576 9.52045 18.2268 7.39276 18.2268 4.72402C18.2268 2.12703 16.2301 0 13.7768 0C11.3355 0 9.33418 2.13625 9.33418 4.72863C9.33418 7.39507 11.3056 9.52045 13.7768 9.52045ZM13.7768 7.1431C12.6718 7.1431 11.742 6.18109 11.742 4.72116C11.742 3.35022 12.6896 2.37736 13.7768 2.37736C14.8812 2.37736 15.8189 3.3433 15.8189 4.72402C15.8189 6.17648 14.9013 7.1431 13.7768 7.1431Z"
                     fill="currentColor" fill-opacity="0.85" />
              <path d="M0.305645 5.34835L3.23618 7.58268C3.88005 8.0749 4.68125 7.77853 4.68125 6.96295L4.68125 5.7394L7.06649 5.7394C7.63047 5.7394 8.08418 5.28054 8.08418 4.72402C8.08418 4.16234 7.63047 3.70863 7.06649 3.70863L4.68125 3.70863L4.68125 2.51953C4.68125 1.66719 3.8829 1.38751 3.23618 1.88258L0.305645 4.13414C-0.0981427 4.45234-0.105603 5.03245 0.305645 5.34835ZM19.4745 4.72402C19.4745 5.28054 19.9259 5.7394 20.4899 5.7394L22.8751 5.7394L22.8751 6.96295C22.8751 7.77853 23.6786 8.0749 24.3202 7.58268L27.2507 5.34835C27.6643 5.03245 27.6568 4.45234 27.2507 4.13414L24.3202 1.88258C23.6758 1.38751 22.8751 1.66719 22.8751 2.51953L22.8751 3.70863L20.4899 3.70863C19.9259 3.70863 19.4745 4.16234 19.4745 4.72402Z"
                     fill="currentColor" fill-opacity="0.85" />
       </g>
</svg>