<?xml version="1.0" encoding="UTF-8"?>
<!--Generator: Apple Native CoreSVG 326-->
<!DOCTYPE svg PUBLIC "-//W3C//DTD SVG 1.1//EN" "http://www.w3.org/Graphics/SVG/1.1/DTD/svg11.dtd">
<svg version="1.1" xmlns="http://www.w3.org/2000/svg" xmlns:xlink="http://www.w3.org/1999/xlink"
       viewBox="0 0 23.6003 23.6393">
       <g>
              <rect height="23.6393" opacity="0" width="23.6003" x="0" y="0" />
              <path d="M12.3723 15.2876C12.1311 15.2664 11.8808 15.2561 11.6232 15.2561C7.83465 15.2561 5.61531 17.461 5.61531 18.6173C5.61531 18.7254 5.66305 18.8012 5.81996 18.8012L15.8901 18.8012L18.2371 21.1454C18.0278 21.1677 17.8026 21.1785 17.5621 21.1785L5.67693 21.1785C3.79987 21.1785 2.85679 20.5187 2.85679 19.1385C2.85679 16.4243 5.81582 13.5542 10.0653 12.9834ZM16.0658 7.16753C16.0658 8.6802 15.4332 10.019 14.4338 10.894L12.7492 9.21008C13.2957 8.80077 13.6579 8.08003 13.6579 7.16753C13.6579 5.78682 12.7225 4.82087 11.6232 4.82087C10.805 4.82087 10.0689 5.36445 9.74974 6.21181L7.99276 4.45552C8.79759 3.24121 10.1269 2.44352 11.6232 2.44352C14.0714 2.44352 16.0658 4.57054 16.0658 7.16753Z"
                     fill="currentColor" fill-opacity="0.85" />
              <path d="M20.7182 21.6184C21.0559 21.9412 21.6039 21.9464 21.9318 21.6161C22.2547 21.2761 22.2696 20.7327 21.9318 20.4024L3.20101 1.67676C2.86328 1.33903 2.30785 1.33903 1.97012 1.67676C1.64731 1.99727 1.64731 2.56246 1.97012 2.88297Z"
                     fill="currentColor" fill-opacity="0.85" />
       </g>
</svg>