<?xml version="1.0" encoding="UTF-8"?>
<!--Generator: Apple Native CoreSVG 326-->
<!DOCTYPE svg PUBLIC "-//W3C//DTD SVG 1.1//EN" "http://www.w3.org/Graphics/SVG/1.1/DTD/svg11.dtd">
<svg version="1.1" xmlns="http://www.w3.org/2000/svg" xmlns:xlink="http://www.w3.org/1999/xlink"
       viewBox="0 0 23.8214 19.0529">
       <g>
              <rect height="19.0529" opacity="0" width="23.8214" x="0" y="0" />
              <path d="M3.64834 19.0529L19.8117 19.0529C22.1386 19.0529 23.4601 17.7336 23.4601 15.416L23.4601 3.65404C23.4601 1.32897 22.1386 0.0149214 19.8117 0.0149214L3.64834 0.0149214C1.32382 0.0149214 0 1.32897 0 3.65404L0 15.416C0 17.7336 1.32382 19.0529 3.64834 19.0529ZM4.05583 16.0332C3.37024 16.0332 3.01964 15.7171 3.01964 14.985L3.01964 4.07767C3.01964 3.34555 3.37024 3.03457 4.05583 3.03457L19.4042 3.03457C20.0875 3.03457 20.4404 3.34555 20.4404 4.07767L20.4404 14.985C20.4404 15.7171 20.0875 16.0332 19.4042 16.0332ZM5.75966 16.7684L17.7125 16.7684C16.9871 14.5241 14.5838 12.9945 11.7398 12.9945C8.88599 12.9945 6.4902 14.5241 5.75966 16.7684ZM11.7398 11.6024C13.6125 11.6144 15.0349 10.0152 15.0349 8.00739C15.0349 6.11165 13.5901 4.46817 11.7398 4.46817C9.88202 4.46817 8.43495 6.11165 8.43726 8.00739C8.43956 10.0152 9.85964 11.5977 11.7398 11.6024Z"
                     fill="currentColor" fill-opacity="0.85" />
       </g>
</svg>