<?xml version="1.0" encoding="UTF-8"?>
<!--Generator: Apple Native CoreSVG 326-->
<!DOCTYPE svg PUBLIC "-//W3C//DTD SVG 1.1//EN" "http://www.w3.org/Graphics/SVG/1.1/DTD/svg11.dtd">
<svg version="1.1" xmlns="http://www.w3.org/2000/svg" xmlns:xlink="http://www.w3.org/1999/xlink"
       viewBox="0 0 21.365 21.006">
       <g>
              <rect height="21.006" opacity="0" width="21.365" x="0" y="0" />
              <path d="M10.4981 20.9962C16.302 20.9962 21.0037 16.2946 21.0037 10.4981C21.0037 4.70163 16.302 0 10.4981 0C4.70163 0 0 4.70163 0 10.4981C0 16.2946 4.70163 20.9962 10.4981 20.9962ZM10.4981 17.9484C6.37829 17.9484 3.04785 14.6179 3.04785 10.4981C3.04785 6.37829 6.37829 3.04785 10.4981 3.04785C14.6179 3.04785 17.9558 6.37829 17.9558 10.4981C17.9558 14.6179 14.6179 17.9484 10.4981 17.9484Z"
                     fill="currentColor" fill-opacity="0.85" />
              <path d="M4.43548 9.61393C4.43548 11.1506 5.51091 12.2261 7.03786 12.2261L7.22814 12.2261C7.1397 11.8953 7.11787 11.4167 7.17185 11.052L7.10622 11.052C6.24958 11.052 5.66813 10.4878 5.66813 9.61393C5.66813 8.74982 6.24958 8.15861 7.10622 8.15861L10.6963 8.15861C11.5455 8.15861 12.1194 8.74982 12.1194 9.61393C12.1194 10.4878 11.5552 11.052 10.6963 11.052L9.46271 11.052C9.31799 11.345 9.37943 11.9578 9.71716 12.2261L10.7399 12.2261C12.2594 12.2261 13.3423 11.1506 13.3423 9.61393C13.3423 8.08467 12.252 6.98455 10.7399 6.98455L7.03786 6.98455C5.51837 6.98455 4.43548 8.08467 4.43548 9.61393ZM7.64928 11.4753C7.64928 13.0046 8.74709 14.1047 10.2614 14.1047L13.9537 14.1047C15.4807 14.1047 16.5659 13.0046 16.5659 11.4753C16.5659 9.93862 15.4905 8.86319 13.9537 8.86319L13.7635 8.86319C13.8272 9.13147 13.8933 9.48127 13.8272 10.0372L13.8952 10.0372C14.7518 10.0372 15.3332 10.6038 15.3332 11.4753C15.3332 12.3394 14.7518 12.9307 13.8952 12.9307L10.3028 12.9307C9.45361 12.9307 8.87216 12.3394 8.87216 11.4753C8.87216 10.6038 9.44615 10.0372 10.3028 10.0372L11.5191 10.0372C11.6834 9.73912 11.6294 9.1194 11.2819 8.86319L10.2614 8.86319C8.73963 8.86319 7.64928 9.93862 7.64928 11.4753Z"
                     fill="currentColor" fill-opacity="0.85" />
       </g>
</svg>