<?xml version="1.0" encoding="UTF-8"?>
<!--Generator: Apple Native CoreSVG 326-->
<!DOCTYPE svg PUBLIC "-//W3C//DTD SVG 1.1//EN" "http://www.w3.org/Graphics/SVG/1.1/DTD/svg11.dtd">
<svg version="1.1" xmlns="http://www.w3.org/2000/svg" xmlns:xlink="http://www.w3.org/1999/xlink"
       viewBox="0 0 31.0165 22.1649">
       <g>
              <rect height="22.1649" opacity="0" width="31.0165" x="0" y="0" />
              <path d="M12.8979 13.0269C12.2276 13.5737 11.6638 14.1898 11.2236 14.8505C10.5611 14.6048 9.81101 14.4627 9.01307 14.4627C6.19274 14.4627 3.96624 16.241 3.96624 17.9318C3.96624 18.0301 4.01167 18.1082 4.1473 18.1082L10.079 18.1082C10.0615 18.2053 10.0589 18.3033 10.0589 18.4014C10.0589 19.1329 10.2352 19.8489 10.6334 20.4563L3.81697 20.4563C2.16803 20.4563 1.35475 19.6804 1.35475 18.2808C1.35475 15.046 4.77952 12.137 9.01307 12.137C10.4339 12.137 11.7632 12.4643 12.8979 13.0269ZM12.9162 7.17185C12.9162 9.51548 11.1838 11.3967 9.01537 11.3967C6.84698 11.3967 5.10706 9.53271 5.10706 7.17646C5.10706 4.91381 6.87682 3.01709 9.01537 3.01709C11.1511 3.01709 12.9162 4.89197 12.9162 7.17185ZM7.44996 7.17646C7.44996 8.25444 8.16716 9.06129 9.01537 9.06129C9.87335 9.06129 10.5831 8.25444 10.5831 7.17185C10.5831 6.16794 9.85042 5.35254 9.01537 5.35254C8.17977 5.35254 7.44996 6.17254 7.44996 7.17646Z"
                     fill="currentColor" fill-opacity="0.85" />
              <path d="M20.5414 11.2268C23.0223 11.2268 24.984 9.09908 24.984 6.43033C24.984 3.83334 22.9873 1.70632 20.5414 1.70632C18.1001 1.70632 16.0914 3.84256 16.0914 6.43494C16.0914 9.10138 18.0628 11.2268 20.5414 11.2268ZM20.5414 8.84942C19.429 8.84942 18.4993 7.82026 18.4993 6.42748C18.4993 5.12368 19.4468 4.08367 20.5414 4.08367C21.6384 4.08367 22.5761 5.11677 22.5761 6.43033C22.5761 7.80073 21.6659 8.84942 20.5414 8.84942ZM14.5951 20.4413L26.4803 20.4413C28.355 20.4413 29.2981 19.7815 29.2981 18.4014C29.2981 15.3653 25.5956 12.1341 20.5414 12.1341C15.4774 12.1341 11.775 15.3653 11.775 18.4014C11.775 19.7815 12.7181 20.4413 14.5951 20.4413ZM14.7382 18.064C14.5812 18.064 14.5335 17.9882 14.5335 17.8801C14.5335 16.7238 16.7603 14.5189 20.5414 14.5189C24.3202 14.5189 26.5396 16.7238 26.5396 17.8801C26.5396 17.9882 26.4941 18.064 26.3447 18.064Z"
                     fill="currentColor" fill-opacity="0.85" />
       </g>
</svg>