<?xml version="1.0" encoding="UTF-8"?>
<!--Generator: Apple Native CoreSVG 326-->
<!DOCTYPE svg PUBLIC "-//W3C//DTD SVG 1.1//EN" "http://www.w3.org/Graphics/SVG/1.1/DTD/svg11.dtd">
<svg version="1.1" xmlns="http://www.w3.org/2000/svg" xmlns:xlink="http://www.w3.org/1999/xlink"
       viewBox="0 0 24.2941 22.0422">
       <g>
              <rect height="22.0422" opacity="0" width="24.2941" x="0" y="0" />
              <path d="M3.30958 19.3179C3.30958 19.6919 3.37121 20.0876 3.53455 20.4579L1.10952 20.4579C0.470934 20.4579 0 19.9944 0 19.3484C0 18.7098 0.470934 18.244 1.10952 18.244L3.44804 18.244C3.35488 18.6065 3.30958 18.9666 3.30958 19.3179ZM23.9328 19.3484C23.9328 19.9944 23.4618 20.4579 22.8232 20.4579L20.4075 20.4579C20.5759 20.0827 20.6381 19.6848 20.6381 19.3179C20.6381 18.9666 20.5925 18.6065 20.4988 18.244L22.8232 18.244C23.4618 18.244 23.9328 18.7098 23.9328 19.3484ZM4.33936 16.2933L1.10952 16.2933C0.470934 16.2933 0 15.8275 0 15.1889C0 14.5428 0.470934 14.0794 1.10952 14.0794L6.65043 14.0794C5.67629 14.6959 4.89588 15.4653 4.33936 16.2933ZM23.9328 15.1889C23.9328 15.8275 23.4618 16.2933 22.8232 16.2933L19.6033 16.2933C19.0445 15.4653 18.2616 14.6959 17.286 14.0794L22.8232 14.0794C23.4618 14.0794 23.9328 14.5428 23.9328 15.1889ZM7.89432 12.1361L1.10952 12.1361C0.470934 12.1361 0 11.6628 0 11.0242C0 10.3857 0.470934 9.91472 1.10952 9.91472L7.02081 9.91472C7.14581 10.7365 7.45303 11.4917 7.89432 12.1361ZM23.9328 11.0242C23.9328 11.6628 23.4618 12.1361 22.8232 12.1361L16.0374 12.1361C16.479 11.4927 16.7879 10.7378 16.9161 9.91472L22.8232 9.91472C23.4618 9.91472 23.9328 10.3857 23.9328 11.0242ZM7.04526 7.96912L1.10952 7.96912C0.470934 7.96912 0 7.49818 0 6.85959C0 6.22101 0.470934 5.75523 1.10952 5.75523L8.02808 5.75523C7.54725 6.38361 7.20312 7.13623 7.04526 7.96912ZM23.9328 6.85959C23.9328 7.49818 23.4618 7.96912 22.8232 7.96912L16.8989 7.96912C16.746 7.13251 16.4042 6.38104 15.9253 5.75523L22.8232 5.75523C23.4618 5.75523 23.9328 6.22101 23.9328 6.85959ZM23.9328 2.70241C23.9328 3.341 23.4618 3.80447 22.8232 3.80447L12.7199 3.80447C12.4749 3.75913 12.2239 3.7389 11.9701 3.7389C11.7173 3.7389 11.4676 3.7591 11.2243 3.80447L1.10952 3.80447C0.470934 3.80447 0 3.341 0 2.70241C0 2.05636 0.470934 1.59058 1.10952 1.59058L22.8232 1.59058C23.4618 1.59058 23.9328 2.05636 23.9328 2.70241Z"
                     fill="currentColor" fill-opacity="0.85" />
              <path d="M11.9701 13.0208C13.9064 13.0208 15.6302 11.2556 15.6302 8.99651C15.6302 6.75229 13.9064 5.11179 11.9701 5.11179C10.0286 5.11179 8.31 6.79136 8.31 9.0235C8.31 11.2556 10.0286 13.0208 11.9701 13.0208ZM6.79105 20.667L17.1417 20.667C18.7437 20.667 19.2652 20.1674 19.2652 19.3179C19.2652 17.0518 16.4718 13.9477 11.9701 13.9477C7.46094 13.9477 4.67731 17.0518 4.67731 19.3179C4.67731 20.1674 5.18906 20.667 6.79105 20.667Z"
                     fill="currentColor" fill-opacity="0.85" />
       </g>
</svg>