<?xml version="1.0" encoding="UTF-8"?>
<!--Generator: Apple Native CoreSVG 326-->
<!DOCTYPE svg PUBLIC "-//W3C//DTD SVG 1.1//EN" "http://www.w3.org/Graphics/SVG/1.1/DTD/svg11.dtd">
<svg version="1.1" xmlns="http://www.w3.org/2000/svg" xmlns:xlink="http://www.w3.org/1999/xlink"
       viewBox="0 0 24.1016 23.3159">
       <g>
              <rect height="23.3159" opacity="0" width="24.1016" x="0" y="0" />
              <path d="M16.9969 3.01424L17.5474 6.13045L14.7598 6.13045L14.3601 3.86622C14.2481 3.25887 13.8722 3.0134 13.2895 3.11051L3.58689 4.83168C3.01915 4.9311 2.73637 5.28005 2.83579 5.90463L4.55696 15.5905C4.66153 16.2002 5.04264 16.4457 5.61784 16.3463L6.56013 16.18L6.56013 18.9692L5.738 19.1144C3.66793 19.474 2.28497 18.508 1.91794 16.4448L0.0727794 5.99834C-0.284485 3.93803 0.683829 2.54762 2.75159 2.18059L13.1745 0.347499C15.2469-0.00976562 16.6321 0.953938 16.9969 3.01424Z"
                     fill="currentColor" fill-opacity="0.85" />
              <path d="M9.86097 23.3159L20.4401 23.3159C22.5492 23.3159 23.7433 22.1219 23.7433 20.0294L23.7433 9.41922C23.7433 7.32446 22.5492 6.13045 20.4401 6.13045L9.86097 6.13045C7.75645 6.13045 6.56013 7.32446 6.56013 9.41922L6.56013 20.0294C6.56013 22.1242 7.75645 23.3159 9.86097 23.3159ZM10.2237 20.573C9.63873 20.573 9.30306 20.2723 9.30306 19.6477L9.30306 9.80093C9.30306 9.18382 9.63873 8.87568 10.2237 8.87568L20.0774 8.87568C20.6624 8.87568 21.0003 9.18382 21.0003 9.80093L21.0003 19.6477C21.0003 20.2723 20.6624 20.573 20.0774 20.573ZM15.1505 16.5932C16.84 16.5932 18.1257 15.1623 18.1257 13.3521C18.1257 11.6321 16.8251 10.1621 15.1505 10.1621C13.4783 10.1621 12.1777 11.6321 12.1777 13.3521C12.1777 15.1623 13.4559 16.5932 15.1505 16.5932ZM9.75525 21.2559L20.5481 21.2559C19.8963 19.2305 17.7268 17.8417 15.1505 17.8417C12.5765 17.8417 10.4071 19.2305 9.75525 21.2559Z"
                     fill="currentColor" fill-opacity="0.85" />
       </g>
</svg>