<?xml version="1.0" encoding="UTF-8"?>
<!--Generator: Apple Native CoreSVG 326-->
<!DOCTYPE svg PUBLIC "-//W3C//DTD SVG 1.1//EN" "http://www.w3.org/Graphics/SVG/1.1/DTD/svg11.dtd">
<svg version="1.1" xmlns="http://www.w3.org/2000/svg" xmlns:xlink="http://www.w3.org/1999/xlink"
       viewBox="0 0 21.365 21.006">
       <g>
              <rect height="21.006" opacity="0" width="21.365" x="0" y="0" />
              <path d="M21.0037 10.5079C21.0037 16.3043 16.302 21.006 10.4981 21.006C4.70394 21.006 0 16.3043 0 10.5079C0 4.7137 4.70394 0.00976562 10.4981 0.00976562C16.302 0.00976562 21.0037 4.7137 21.0037 10.5079ZM10.2344 8.70991C8.56912 8.70991 7.37256 9.89385 7.37256 11.5741C7.37256 13.2492 8.57659 14.4555 10.2344 14.4555L14.2798 14.4555C15.9451 14.4555 17.1417 13.2492 17.1417 11.5741C17.1417 9.89385 15.9601 8.70991 14.2798 8.70991L14.0821 8.70991C14.1384 9.01034 14.2171 9.39975 14.1384 10.0051L14.2189 10.0051C15.1519 10.0051 15.7805 10.6285 15.7805 11.5741C15.7805 12.5197 15.1496 13.1603 14.2189 13.1603L10.2781 13.1603C9.35486 13.1603 8.72404 12.5197 8.72404 11.5741C8.72404 10.6285 9.3474 10.0051 10.2781 10.0051L11.6081 10.0051C11.7873 9.68459 11.7258 8.99081 11.3485 8.70991ZM6.71178 6.6533C5.04646 6.6533 3.8476 7.86194 3.8476 9.54217C3.8476 11.2172 5.0367 12.4063 6.71178 12.4063L6.91698 12.4063C6.82108 12.0382 6.79178 11.5103 6.85323 11.1037L6.77783 11.1037C5.83966 11.1037 5.20884 10.4901 5.20884 9.54217C5.20884 8.59654 5.84197 7.95595 6.77783 7.95595L10.7135 7.95595C11.6442 7.95595 12.2676 8.59654 12.2676 9.54217C12.2676 10.4901 11.6517 11.1037 10.7135 11.1037L9.37142 11.1037C9.20432 11.4288 9.27838 12.1059 9.6431 12.4063L10.7549 12.4063C12.4225 12.4063 13.619 11.2172 13.619 9.54217C13.619 7.86194 12.415 6.6533 10.7549 6.6533Z"
                     fill="currentColor" fill-opacity="0.85" />
       </g>
</svg>