<?xml version="1.0" encoding="UTF-8"?>
<!--Generator: Apple Native CoreSVG 326-->
<!DOCTYPE svg PUBLIC "-//W3C//DTD SVG 1.1//EN" "http://www.w3.org/Graphics/SVG/1.1/DTD/svg11.dtd">
<svg version="1.1" xmlns="http://www.w3.org/2000/svg" xmlns:xlink="http://www.w3.org/1999/xlink"
       viewBox="0 0 21.918 27.9042">
       <g>
              <rect height="27.9042" opacity="0" width="21.918" x="0" y="0" />
              <path d="M15.5604 3.1787C15.4957 3.17155 15.4283 3.17007 15.3602 3.17007L6.19881 3.17007C6.1274 3.17007 6.05674 3.1717 5.98884 3.17912C6.02258 2.2236 6.62806 1.65894 7.60858 1.65894L13.9481 1.65894C14.9285 1.65894 15.5269 2.22344 15.5604 3.1787Z"
                     fill="currentColor" fill-opacity="0.85" />
              <path d="M17.4705 6.45324C17.09 6.38273 16.6859 6.34748 16.2615 6.34748L5.29521 6.34748C4.87081 6.34748 4.4667 6.38268 4.0862 6.45312C4.19582 5.32954 4.96698 4.65487 6.17345 4.65487L15.3855 4.65487C16.5921 4.65487 17.3613 5.32959 17.4705 6.45324Z"
                     fill="currentColor" fill-opacity="0.85" />
              <path d="M9.48594 19.7512C8.60142 20.5742 8.09346 21.6255 8.09346 22.6544C8.09346 22.859 8.11441 23.0544 8.15487 23.2376L5.70501 23.2376C5.01941 23.2376 4.66652 22.9267 4.66652 22.1945L4.66652 20.5871C5.37385 19.8828 6.4527 19.3746 7.6958 19.3746C8.3481 19.3746 8.95551 19.5142 9.48594 19.7512ZM9.54557 16.5405C9.54557 17.6573 8.73611 18.5357 7.6981 18.5357C6.68248 18.5357 5.8558 17.6573 5.8558 16.5429C5.8558 15.4577 6.68994 14.5564 7.6981 14.5564C8.72635 14.5564 9.54557 15.4456 9.54557 16.5405Z"
                     fill="currentColor" fill-opacity="0.85" />
              <path d="M16.8902 20.4706L16.8902 22.1945C16.8902 22.9267 16.535 23.2376 15.854 23.2376L9.43578 23.2376C9.36023 23.0846 9.3158 22.8867 9.3158 22.6544C9.3158 21.16 11.0501 19.3941 13.6898 19.3941C15.0266 19.3941 16.1285 19.8398 16.8902 20.4706ZM15.8205 16.1258C15.8205 17.4063 14.8841 18.4363 13.6921 18.4363C12.5151 18.4363 11.5815 17.4063 11.5815 16.1304C11.5815 14.8769 12.5226 13.8538 13.6921 13.8538C14.8743 13.8538 15.8205 14.87 15.8205 16.1258Z"
                     fill="currentColor" fill-opacity="0.85" />
              <path d="M5.29521 26.2647L16.2615 26.2647C18.586 26.2647 19.9098 24.9432 19.9098 22.6256L19.9098 11.6335C19.9098 9.31586 18.586 7.99435 16.2615 7.99435L5.29521 7.99435C2.96323 7.99435 1.64687 9.31356 1.64687 11.6335L1.64687 22.6256C1.64687 24.9432 2.96323 26.2647 5.29521 26.2647ZM5.70501 23.2376C5.01941 23.2376 4.66652 22.9267 4.66652 22.1945L4.66652 12.0622C4.66652 11.325 5.01941 11.014 5.70501 11.014L15.854 11.014C16.535 11.014 16.8902 11.325 16.8902 12.0622L16.8902 22.1945C16.8902 22.9267 16.535 23.2376 15.854 23.2376Z"
                     fill="currentColor" fill-opacity="0.85" />
       </g>
</svg>