<?xml version="1.0" encoding="UTF-8"?>
<!--Generator: Apple Native CoreSVG 326-->
<!DOCTYPE svg PUBLIC "-//W3C//DTD SVG 1.1//EN" "http://www.w3.org/Graphics/SVG/1.1/DTD/svg11.dtd">
<svg version="1.1" xmlns="http://www.w3.org/2000/svg" xmlns:xlink="http://www.w3.org/1999/xlink"
       viewBox="0 0 24.8676 27.0044">
       <g>
              <rect height="27.0044" opacity="0" width="24.8676" x="0" y="0" />
              <path d="M18.5191 3.18249C18.4514 3.17509 18.3809 3.17347 18.3098 3.17347L6.19881 3.17347C6.12684 3.17347 6.05563 3.17512 5.9872 3.18259C6.00465 2.20139 6.61348 1.61758 7.60858 1.61758L16.8977 1.61758C17.8928 1.61758 18.5016 2.20135 18.5191 3.18249Z"
                     fill="currentColor" fill-opacity="0.85" />
              <path d="M20.4203 6.45667C20.0397 6.38613 19.6355 6.35087 19.211 6.35087L5.29521 6.35087C4.87074 6.35087 4.46656 6.38613 4.08601 6.45666C4.19509 5.32722 4.9664 4.65827 6.17345 4.65827L18.3351 4.65827C19.5422 4.65827 20.3115 5.32722 20.4203 6.45667Z"
                     fill="currentColor" fill-opacity="0.85" />
              <path d="M22.8594 11.6369L22.8594 21.7259C22.8594 24.0435 21.5356 25.365 19.211 25.365L5.29521 25.365C2.96323 25.365 1.64687 24.0435 1.64687 21.7259L1.64687 11.6369C1.64687 9.3118 2.96323 7.99775 5.29521 7.99775L19.211 7.99775C21.5356 7.99775 22.8594 9.3118 22.8594 11.6369ZM6.87239 22.3515L17.2582 22.3515C16.4792 20.5561 14.4489 19.3541 12.059 19.3541C9.6667 19.3541 7.64388 20.5561 6.87239 22.3515ZM9.12643 15.0133C9.12643 16.7999 10.3885 18.2119 12.059 18.2119C13.7323 18.2119 14.9915 16.7999 14.9915 15.0133C14.9915 13.3244 13.7099 11.8711 12.059 11.8711C10.4183 11.8711 9.12643 13.3244 9.12643 15.0133Z"
                     fill="currentColor" fill-opacity="0.85" />
       </g>
</svg>