<?xml version="1.0" encoding="UTF-8"?>
<!--Generator: Apple Native CoreSVG 326-->
<!DOCTYPE svg PUBLIC "-//W3C//DTD SVG 1.1//EN" "http://www.w3.org/Graphics/SVG/1.1/DTD/svg11.dtd">
<svg version="1.1" xmlns="http://www.w3.org/2000/svg" xmlns:xlink="http://www.w3.org/1999/xlink"
       viewBox="0 0 19.3993 19.0529">
       <g>
              <rect height="19.0529" opacity="0" width="19.3993" x="0" y="0" />
              <path d="M3.64834 19.0379L15.3896 19.0379C17.7164 19.0379 19.0379 17.7262 19.0379 15.4011L19.0379 3.63912C19.0379 1.32151 17.7164 0 15.3896 0L3.64834 0C1.32382 0 0 1.32151 0 3.63912L0 15.4011C0 17.7262 1.32382 19.0379 3.64834 19.0379ZM4.05583 16.0183C3.37024 16.0183 3.01964 15.7096 3.01964 14.9775L3.01964 4.07021C3.01964 3.33809 3.37024 3.0271 4.05583 3.0271L14.9821 3.0271C15.6654 3.0271 16.0183 3.33809 16.0183 4.07021L16.0183 14.9775C16.0183 15.7096 15.6654 16.0183 14.9821 16.0183ZM3.55117 16.7684L15.5063 16.7684C14.7734 14.5241 12.3777 12.9945 9.52616 12.9945C6.67981 12.9945 4.27656 14.5241 3.55117 16.7684ZM9.52385 11.6024C11.404 11.6144 12.8264 10.0152 12.8264 8.00739C12.8264 6.11165 11.3742 4.46817 9.52385 4.46817C7.67354 4.46817 6.22647 6.11165 6.22877 8.00739C6.23108 10.0152 7.6437 11.5977 9.52385 11.6024Z"
                     fill="currentColor" fill-opacity="0.85" />
       </g>
</svg>