<?xml version="1.0" encoding="UTF-8"?>
<!--Generator: Apple Native CoreSVG 326-->
<!DOCTYPE svg PUBLIC "-//W3C//DTD SVG 1.1//EN" "http://www.w3.org/Graphics/SVG/1.1/DTD/svg11.dtd">
<svg version="1.1" xmlns="http://www.w3.org/2000/svg" xmlns:xlink="http://www.w3.org/1999/xlink"
       viewBox="0 0 21.365 21.006">
       <g>
              <rect height="21.006" opacity="0" width="21.365" x="0" y="0" />
              <path d="M10.4981 20.9962C16.302 20.9962 21.0037 16.2946 21.0037 10.4981C21.0037 4.70163 16.302 0 10.4981 0C4.70163 0 0 4.70163 0 10.4981C0 16.2946 4.70163 20.9962 10.4981 20.9962ZM10.4981 17.9484C6.37829 17.9484 3.04785 14.6179 3.04785 10.4981C3.04785 6.37829 6.37829 3.04785 10.4981 3.04785C14.6179 3.04785 17.9558 6.37829 17.9558 10.4981C17.9558 14.6179 14.6179 17.9484 10.4981 17.9484Z"
                     fill="currentColor" fill-opacity="0.85" />
              <path d="M10.4958 8.13264C11.3846 8.13495 12.0809 7.37256 12.0809 6.40158C12.0809 5.48634 11.3771 4.70212 10.4958 4.70212C9.60932 4.70212 8.91068 5.48634 8.91068 6.40158C8.91814 7.37256 9.60186 8.13264 10.4958 8.13264ZM7.95899 11.663L13.0401 11.663C13.4915 11.663 13.7442 11.4258 13.7442 11.0507C13.7442 10.1667 12.524 8.74218 10.4958 8.74218C8.46759 8.74218 7.24743 10.1667 7.24743 11.0507C7.24743 11.4258 7.50758 11.663 7.95899 11.663ZM6.90102 15.5329L14.0929 15.5329C14.4415 15.5329 14.7338 15.2458 14.7338 14.8897C14.7338 14.5337 14.4415 14.2488 14.0929 14.2488L14.0325 14.2488L14.0325 13.4912C14.0325 12.8451 13.6145 12.408 12.9493 12.408L8.03711 12.408C7.37196 12.408 6.95392 12.8451 6.95392 13.4912L6.95392 14.2488L6.90102 14.2488C6.54497 14.2488 6.26013 14.5337 6.26013 14.8897C6.26013 15.2458 6.54497 15.5329 6.90102 15.5329ZM9.58342 14.4259C9.33072 14.4259 9.1217 14.2295 9.1217 13.9642C9.1217 13.7138 9.33072 13.5099 9.58342 13.5099L11.3956 13.5099C11.6632 13.5099 11.8619 13.7138 11.8619 13.9642C11.8619 14.2295 11.6632 14.4259 11.3956 14.4259Z"
                     fill="currentColor" fill-opacity="0.85" />
       </g>
</svg>