<?xml version="1.0" encoding="UTF-8"?>
<!--Generator: Apple Native CoreSVG 326-->
<!DOCTYPE svg PUBLIC "-//W3C//DTD SVG 1.1//EN" "http://www.w3.org/Graphics/SVG/1.1/DTD/svg11.dtd">
<svg version="1.1" xmlns="http://www.w3.org/2000/svg" xmlns:xlink="http://www.w3.org/1999/xlink"
       viewBox="0 0 23.8214 19.0529">
       <g>
              <rect height="19.0529" opacity="0" width="23.8214" x="0" y="0" />
              <path d="M23.4601 3.65404L23.4601 15.416C23.4601 17.7336 22.1386 19.0529 19.8117 19.0529L3.64834 19.0529C1.32382 19.0529 0 17.7336 0 15.416L0 3.65404C0 1.32897 1.32382 0.0149214 3.64834 0.0149214L19.8117 0.0149214C22.1386 0.0149214 23.4601 1.32897 23.4601 3.65404ZM3.70869 13.2993C3.70869 13.734 3.96193 14.0906 4.44087 14.0906L11.4113 14.0906C11.8902 14.0906 12.1435 13.734 12.1435 13.2993C12.1435 12.3814 10.8784 10.0852 7.92866 10.0852C4.98635 10.0852 3.70869 12.3814 3.70869 13.2993ZM14.4227 12.6197C13.9965 12.6197 13.6881 12.9379 13.6881 13.3543C13.6881 13.7609 13.9965 14.0671 14.4227 14.0671L18.9116 14.0671C19.3206 14.0671 19.629 13.7609 19.629 13.3543C19.629 12.9379 19.3206 12.6197 18.9116 12.6197ZM14.4227 8.8237C13.9965 8.8237 13.6881 9.13729 13.6881 9.53647C13.6881 9.95287 13.9965 10.2711 14.4227 10.2711L18.9116 10.2711C19.3206 10.2711 19.629 9.95287 19.629 9.53647C19.629 9.13729 19.3206 8.8237 18.9116 8.8237ZM5.78252 7.14225C5.78252 8.48014 6.74702 9.47624 7.92866 9.47624C9.1126 9.47854 10.0748 8.48014 10.0748 7.14225C10.0748 5.88479 9.1126 4.84217 7.92866 4.84217C6.74702 4.84217 5.78252 5.88479 5.78252 7.14225ZM14.4227 5.00303C13.9965 5.00303 13.6881 5.32639 13.6881 5.72557C13.6881 6.13451 13.9965 6.45041 14.4227 6.45041L18.9116 6.45041C19.3206 6.45041 19.629 6.13451 19.629 5.72557C19.629 5.32639 19.3206 5.00303 18.9116 5.00303Z"
                     fill="currentColor" fill-opacity="0.85" />
       </g>
</svg>