<?xml version="1.0" encoding="UTF-8"?>
<!--Generator: Apple Native CoreSVG 326-->
<!DOCTYPE svg PUBLIC "-//W3C//DTD SVG 1.1//EN" "http://www.w3.org/Graphics/SVG/1.1/DTD/svg11.dtd">
<svg version="1.1" xmlns="http://www.w3.org/2000/svg" xmlns:xlink="http://www.w3.org/1999/xlink"
       viewBox="0 0 35.982 16.9505">
       <g>
              <rect height="16.9505" opacity="0" width="35.982" x="0" y="0" />
              <path d="M7.60936 8.3137C9.77206 8.3137 11.4787 6.4353 11.4787 4.12437C11.4787 1.89496 9.76174 0.0126165 7.60936 0.0126165C5.46675 0.0126165 3.74976 1.90187 3.74976 4.12667C3.74976 6.43761 5.44667 8.3137 7.60936 8.3137ZM2.11113 16.9315L13.1127 16.9315C14.4542 16.9315 15.2239 16.3457 15.2239 15.2825C15.2239 12.8797 12.3777 9.75228 7.60706 9.75228C2.84616 9.75228 0 12.8797 0 15.2825C0 16.3457 0.75996 16.9315 2.11113 16.9315ZM28.0084 8.33269C30.1711 8.33269 31.8755 6.45429 31.8755 4.13589C31.8755 1.91394 30.1608 0.0241411 28.0084 0.0241411C25.8658 0.0241411 24.154 1.92086 24.154 4.14566C24.154 6.4566 25.8509 8.33269 28.0084 8.33269ZM22.5102 16.9505L33.5095 16.9505C34.8532 16.9505 35.6206 16.3647 35.6206 15.3015C35.6206 12.8987 32.7768 9.77127 28.0061 9.77127C23.2429 9.77127 20.3991 12.8987 20.3991 15.3015C20.3991 16.3647 21.1665 16.9505 22.5102 16.9505Z"
                     fill="currentColor" fill-opacity="0.85" />
              <path d="M14.1239 8.84924C14.7694 8.84924 15.2995 8.32662 15.2995 7.67366C15.2995 7.02816 14.7694 6.50554 14.1239 6.50554C13.4784 6.50554 12.9484 7.02816 12.9484 7.67366C12.9484 8.32662 13.4784 8.84924 14.1239 8.84924ZM17.8138 8.84924C18.4593 8.84924 18.9894 8.32662 18.9894 7.67366C18.9894 7.02816 18.4593 6.50554 17.8138 6.50554C17.1683 6.50554 16.6382 7.02816 16.6382 7.67366C16.6382 8.32662 17.1683 8.84924 17.8138 8.84924ZM21.499 8.84924C22.1445 8.84924 22.6746 8.32662 22.6746 7.67366C22.6746 7.02816 22.1445 6.50554 21.499 6.50554C20.8535 6.50554 20.3234 7.02816 20.3234 7.67366C20.3234 8.32662 20.8535 8.84924 21.499 8.84924Z"
                     fill="currentColor" fill-opacity="0.85" />
       </g>
</svg>