<?xml version="1.0" encoding="UTF-8"?>
<!--Generator: Apple Native CoreSVG 326-->
<!DOCTYPE svg PUBLIC "-//W3C//DTD SVG 1.1//EN" "http://www.w3.org/Graphics/SVG/1.1/DTD/svg11.dtd">
<svg version="1.1" xmlns="http://www.w3.org/2000/svg" xmlns:xlink="http://www.w3.org/1999/xlink"
       viewBox="0 0 38.7324 22.1649">
       <g>
              <rect height="22.1649" opacity="0" width="38.7324" x="0" y="0" />
              <path d="M38.371 18.2808C38.371 19.6804 37.5577 20.4563 35.9163 20.4563L29.0789 20.4563C29.4694 19.8664 29.6543 19.1601 29.6543 18.4014C29.6543 18.3032 29.6517 18.2052 29.6341 18.1082L35.5785 18.1082C35.7239 18.1082 35.767 18.0301 35.767 17.9318C35.767 16.241 33.533 14.4627 30.7127 14.4627C29.9125 14.4627 29.1591 14.6066 28.4938 14.8551C28.0549 14.194 27.4918 13.5783 26.8223 13.0323C27.9583 12.4664 29.2899 12.137 30.7127 12.137C34.9463 12.137 38.371 15.046 38.371 18.2808ZM34.621 7.17185C34.621 9.51548 32.8834 11.3967 30.7127 11.3967C28.5541 11.3967 26.8119 9.53271 26.8119 7.17646C26.8119 4.91381 28.5765 3.01709 30.7127 3.01709C32.8559 3.01709 34.621 4.89197 34.621 7.17185ZM29.1473 7.17646C29.1473 8.25444 29.872 9.06129 30.7127 9.06129C31.5782 9.06129 32.2879 8.25444 32.2879 7.17185C32.2879 6.16794 31.5478 5.35254 30.7127 5.35254C29.8846 5.35254 29.1473 6.17254 29.1473 7.17646Z"
                     fill="currentColor" fill-opacity="0.85" />
              <path d="M11.5329 13.0233C10.8622 13.5697 10.2978 14.1861 9.85762 14.848C9.19716 14.6038 8.45071 14.4627 7.65831 14.4627C4.83799 14.4627 2.61149 16.241 2.61149 17.9318C2.61149 18.0301 2.64715 18.1082 2.79255 18.1082L8.71449 18.1082C8.69699 18.2052 8.69438 18.3032 8.69438 18.4014C8.69438 19.1601 8.87921 19.8664 9.26959 20.4563L2.45245 20.4563C0.813277 20.4563 0 19.6804 0 18.2808C0 15.046 3.42476 12.137 7.65831 12.137C9.07534 12.137 10.4009 12.4629 11.5329 13.0233ZM11.5615 7.17185C11.5615 9.51548 9.82901 11.3967 7.66062 11.3967C5.49222 11.3967 3.7523 9.53271 3.7523 7.17646C3.7523 4.91381 5.51461 3.01709 7.66062 3.01709C9.79632 3.01709 11.5615 4.89197 11.5615 7.17185ZM6.09521 7.17646C6.09521 8.25444 6.8101 9.06129 7.66062 9.06129C8.5186 9.06129 9.22833 8.25444 9.22833 7.17185C9.22833 6.16794 8.49567 5.35254 7.66062 5.35254C6.82272 5.35254 6.09521 6.17254 6.09521 7.17646Z"
                     fill="currentColor" fill-opacity="0.85" />
              <path d="M19.1717 11.2268C21.6526 11.2268 23.6218 9.09908 23.6218 6.43033C23.6218 3.83334 21.6251 1.70632 19.1717 1.70632C16.7282 1.70632 14.7292 3.84256 14.7292 6.43494C14.7292 9.10138 16.6983 11.2268 19.1717 11.2268ZM19.1717 8.84942C18.0668 8.84942 17.137 7.88741 17.137 6.42748C17.137 5.05653 18.0822 4.08367 19.1717 4.08367C20.2762 4.08367 21.2139 5.04962 21.2139 6.43033C21.2139 7.8828 20.2939 8.84942 19.1717 8.84942ZM13.2306 20.4413L25.1157 20.4413C26.9928 20.4413 27.9359 19.7815 27.9359 18.4014C27.9359 15.3653 24.2334 12.1341 19.1694 12.1341C14.1152 12.1341 10.4128 15.3653 10.4128 18.4014C10.4128 19.7815 11.3558 20.4413 13.2306 20.4413ZM13.3662 18.064C13.2167 18.064 13.1713 17.9882 13.1713 17.8801C13.1713 16.7238 15.3906 14.5189 19.1694 14.5189C22.9506 14.5189 25.1774 16.7238 25.1774 17.8801C25.1774 17.9882 25.1296 18.064 24.9727 18.064Z"
                     fill="currentColor" fill-opacity="0.85" />
       </g>
</svg>