<?xml version="1.0" encoding="UTF-8"?>
<!--Generator: Apple Native CoreSVG 326-->
<!DOCTYPE svg PUBLIC "-//W3C//DTD SVG 1.1//EN" "http://www.w3.org/Graphics/SVG/1.1/DTD/svg11.dtd">
<svg version="1.1" xmlns="http://www.w3.org/2000/svg" xmlns:xlink="http://www.w3.org/1999/xlink"
       viewBox="0 0 43.1675 21.3874">
       <g>
              <rect height="21.3874" opacity="0" width="43.1675" x="0" y="0" />
              <path d="M41.0878 18.0144C41.0878 19.0487 40.3285 19.6713 39.0621 19.6713L31.0654 19.6713C31.3388 19.1872 31.4836 18.6237 31.4836 18.0144C31.4836 16.2722 30.4719 14.3862 28.7185 12.9305C29.8675 12.4382 31.2182 12.1376 32.7257 12.1376C37.7941 12.1376 41.0878 15.5247 41.0878 18.0144ZM36.7737 6.03589C36.7737 8.49967 34.982 10.4493 32.728 10.4493C30.4792 10.4493 28.6875 8.49967 28.6875 6.04796C28.6875 3.68522 30.4964 1.70983 32.728 1.70983C34.9573 1.70983 36.7737 3.676 36.7737 6.03589Z"
                     fill="currentColor" fill-opacity="0.85" />
              <path d="M29.7652 18.0144C29.7652 19.0487 29.0157 19.6713 27.7469 19.6713L19.7335 19.6713C20.0079 19.1872 20.1535 18.6237 20.1535 18.0144C20.1535 16.2744 19.1419 14.3909 17.3902 12.9362C18.5424 12.4406 19.8977 12.1376 21.4106 12.1376C26.4789 12.1376 29.7652 15.5247 29.7652 18.0144ZM25.4586 6.03589C25.4586 8.49967 23.6594 10.4493 21.4129 10.4493C19.164 10.4493 17.3723 8.49967 17.3723 6.04796C17.3723 3.68522 19.1813 1.70983 21.4129 1.70983C23.6422 1.70983 25.4586 3.676 25.4586 6.03589Z"
                     fill="currentColor" fill-opacity="0.85" />
              <path d="M10.073 10.4493C12.3293 10.4493 14.121 8.49967 14.121 6.03589C14.121 3.676 12.3046 1.70983 10.073 1.70983C7.84143 1.70983 6.03249 3.68522 6.03249 6.04796C6.03249 8.49967 7.82651 10.4493 10.073 10.4493ZM3.74412 19.6713L16.4071 19.6713C17.6758 19.6713 18.4351 19.0487 18.4351 18.0144C18.4351 15.5247 15.1391 12.1376 10.073 12.1376C5.01213 12.1376 1.71608 15.5247 1.71608 18.0144C1.71608 19.0487 2.47537 19.6713 3.74412 19.6713Z"
                     fill="currentColor" fill-opacity="0.85" />
       </g>
</svg>