<?xml version="1.0" encoding="UTF-8"?>
<!--Generator: Apple Native CoreSVG 326-->
<!DOCTYPE svg PUBLIC "-//W3C//DTD SVG 1.1//EN" "http://www.w3.org/Graphics/SVG/1.1/DTD/svg11.dtd">
<svg version="1.1" xmlns="http://www.w3.org/2000/svg" xmlns:xlink="http://www.w3.org/1999/xlink"
       viewBox="0 0 23.3769 22.7958">
       <g>
              <rect height="22.7958" opacity="0" width="23.3769" x="0" y="0" />
              <path d="M23.0156 5.99015L23.0156 13.866C23.0156 16.884 21.095 18.8213 18.0654 18.8213L12.113 18.8213L8.38613 22.0888C7.80777 22.6005 7.4052 22.7958 6.92735 22.7958C6.23642 22.7958 5.80454 22.3208 5.80454 21.5587L5.80454 18.8213L4.68902 18.8213C2.09221 18.8213 0 16.8863 0 13.866L0 5.99015C0 2.96984 1.92061 1.03255 4.95014 1.03255L18.0654 1.03255C21.095 1.03255 23.0156 2.97215 23.0156 5.99015ZM6.06476 14.218C6.06476 14.7187 6.35245 15.1368 6.92959 15.1368L15.0513 15.1368C15.6284 15.1368 15.9184 14.7187 15.9184 14.218C15.9184 13.1484 14.4385 10.4616 10.9953 10.4616C7.54464 10.4616 6.06476 13.1484 6.06476 14.218ZM8.48269 7.01542C8.48269 8.58308 9.61089 9.75034 10.9953 9.75265C12.37 9.75495 13.4982 8.58308 13.4982 7.01542C13.4982 5.55519 12.37 4.34425 10.9953 4.34425C9.61089 4.34425 8.48269 5.55519 8.48269 7.01542Z"
                     fill="currentColor" fill-opacity="0.85" />
       </g>
</svg>