<?xml version="1.0" encoding="UTF-8"?>
<!--Generator: Apple Native CoreSVG 326-->
<!DOCTYPE svg PUBLIC "-//W3C//DTD SVG 1.1//EN" "http://www.w3.org/Graphics/SVG/1.1/DTD/svg11.dtd">
<svg version="1.1" xmlns="http://www.w3.org/2000/svg" xmlns:xlink="http://www.w3.org/1999/xlink"
       viewBox="0 0 21.365 21.006">
       <g>
              <rect height="21.006" opacity="0" width="21.365" x="0" y="0" />
              <path d="M21.0037 10.5079C21.0037 16.3043 16.302 21.006 10.4981 21.006C4.70394 21.006 0 16.3043 0 10.5079C0 4.7137 4.70394 0.00976562 10.4981 0.00976562C16.302 0.00976562 21.0037 4.7137 21.0037 10.5079ZM5.5117 14.5874C5.5117 15.0928 5.80169 15.5206 6.38345 15.5206L14.6202 15.5206C15.202 15.5206 15.492 15.0928 15.492 14.5874C15.492 13.5086 13.9885 10.789 10.4981 10.789C7.01518 10.789 5.5117 13.5086 5.5117 14.5874ZM7.96244 7.29104C7.96244 8.88229 9.10217 10.0611 10.4981 10.0634C11.9015 10.0657 13.0412 8.88229 13.0412 7.29104C13.0412 5.80952 11.9015 4.58936 10.4981 4.58936C9.10217 4.58936 7.96244 5.80952 7.96244 7.29104Z"
                     fill="currentColor" fill-opacity="0.85" />
       </g>
</svg>