<?xml version="1.0" encoding="UTF-8"?>
<!--Generator: Apple Native CoreSVG 326-->
<!DOCTYPE svg PUBLIC "-//W3C//DTD SVG 1.1//EN" "http://www.w3.org/Graphics/SVG/1.1/DTD/svg11.dtd">
<svg version="1.1" xmlns="http://www.w3.org/2000/svg" xmlns:xlink="http://www.w3.org/1999/xlink"
       viewBox="0 0 18.7402 22.39">
       <g>
              <rect height="22.39" opacity="0" width="18.7402" x="0" y="0" />
              <path d="M9.19576 7.31882C11.1258 7.31882 12.6257 5.69203 12.6257 3.62808C12.6257 1.63996 11.0937 0 9.19576 0C7.29037 0 5.75092 1.64226 5.76069 3.64015C5.77561 5.69433 7.26569 7.31882 9.19576 7.31882ZM9.19576 5.30771C8.40736 5.30771 7.81262 4.68071 7.81262 3.62523C7.80516 2.66335 8.43204 2.01857 9.19576 2.01857C9.96694 2.01857 10.5737 2.66335 10.5737 3.62808C10.5737 4.67094 9.98417 5.30771 9.19576 5.30771ZM4.27516 14.3019L14.1164 14.3019C15.1582 14.3019 15.8582 13.7362 15.8582 12.6858C15.8582 10.3481 13.0282 8.05719 9.19576 8.05719C5.35357 8.05719 2.52584 10.3481 2.52584 12.6858C2.52584 13.7362 3.22357 14.3019 4.27516 14.3019ZM4.94535 12.2759C4.86711 12.2759 4.83144 12.2374 4.83605 12.1804C4.89477 11.416 6.47012 10.0683 9.19576 10.0683C11.9116 10.0683 13.4893 11.416 13.548 12.1804C13.5601 12.2374 13.5221 12.2759 13.4387 12.2759ZM1.33334 22.293L17.0456 22.293C17.7811 22.293 18.3789 21.6953 18.3789 20.9597C18.3789 20.2241 17.7811 19.6241 17.0456 19.6241L16.4401 19.6241L16.4401 18.1171C16.4401 16.7485 15.5587 15.8487 14.1717 15.8487L4.21469 15.8487C2.82251 15.8487 1.94627 16.7485 1.94627 18.1171L1.94627 19.6241L1.33334 19.6241C0.597766 19.6241 0 20.2241 0 20.9597C0 21.6953 0.597766 22.293 1.33334 22.293ZM7.35631 20.0396C6.82284 20.0396 6.39448 19.6141 6.39448 19.0657C6.39448 18.5346 6.82284 18.1114 7.35631 18.1114L11.0272 18.1114C11.5658 18.1114 11.9816 18.5346 11.9816 19.0657C11.9816 19.6141 11.5658 20.0396 11.0272 20.0396Z"
                     fill="currentColor" fill-opacity="0.85" />
       </g>
</svg>