<?xml version="1.0" encoding="UTF-8"?>
<!--Generator: Apple Native CoreSVG 326-->
<!DOCTYPE svg PUBLIC "-//W3C//DTD SVG 1.1//EN" "http://www.w3.org/Graphics/SVG/1.1/DTD/svg11.dtd">
<svg version="1.1" xmlns="http://www.w3.org/2000/svg" xmlns:xlink="http://www.w3.org/1999/xlink"
       viewBox="0 0 24.4067 23.4005">
       <g>
              <rect height="23.4005" opacity="0" width="24.4067" x="0" y="0" />
              <path d="M18.5589 20.6623C18.4927 20.6668 18.4242 20.6687 18.3542 20.6687L5.69119 20.6687C4.42245 20.6687 3.66315 20.0461 3.66315 19.0117C3.66315 16.6829 6.54696 13.569 11.0622 13.1774ZM16.0681 7.03324C16.0681 8.36788 15.5423 9.55164 14.699 10.353L8.79603 4.45243C9.52986 3.39722 10.7012 2.70719 12.0201 2.70719C14.2517 2.70719 16.0681 4.67335 16.0681 7.03324Z"
                     fill="currentColor" fill-opacity="0.85" />
              <path d="M21.5245 21.6184C21.8623 21.9487 22.4102 21.9538 22.7382 21.6161C23.061 21.2761 23.0759 20.7402 22.7382 20.4024L4.00738 1.67676C3.66964 1.33903 3.11421 1.33903 2.77648 1.67676C2.45367 1.99727 2.45367 2.56246 2.77648 2.89043Z"
                     fill="currentColor" fill-opacity="0.85" />
       </g>
</svg>