<?xml version="1.0" encoding="UTF-8"?>
<!--Generator: Apple Native CoreSVG 326-->
<!DOCTYPE svg PUBLIC "-//W3C//DTD SVG 1.1//EN" "http://www.w3.org/Graphics/SVG/1.1/DTD/svg11.dtd">
<svg version="1.1" xmlns="http://www.w3.org/2000/svg" xmlns:xlink="http://www.w3.org/1999/xlink"
       viewBox="0 0 24.6841 22.116">
       <g>
              <rect height="22.116" opacity="0" width="24.6841" x="0" y="0" />
              <path d="M24.0614 19.7701C24.0614 20.1847 23.7277 20.5184 23.328 20.5184C22.9231 20.5184 22.5872 20.1847 22.5872 19.7701C22.5872 19.3703 22.9231 19.0292 23.328 19.0292C23.7277 19.0292 24.0614 19.3703 24.0614 19.7701ZM1.73561 19.7701C1.73561 20.1847 1.39964 20.5184 1.00222 20.5184C0.595036 20.5184 0.261367 20.1847 0.261367 19.7701C0.261367 19.3703 0.595036 19.0292 1.00222 19.0292C1.39964 19.0292 1.73561 19.3703 1.73561 19.7701ZM3.60389 20.236C3.50252 20.1086 3.44199 19.9467 3.44199 19.7701C3.44199 19.6888 3.45578 19.6099 3.48179 19.5362C3.49388 19.7676 3.53172 20.0044 3.60389 20.236ZM20.8808 19.7701C20.8808 19.9017 20.8471 20.0252 20.788 20.1323C20.8306 19.9771 20.8578 19.8211 20.8726 19.6677C20.8783 19.7011 20.8808 19.7354 20.8808 19.7701ZM4.98394 15.6938C4.55457 16.19 4.21516 16.7207 3.97559 17.2618C3.52279 17.1659 3.18062 16.7619 3.18062 16.2815C3.18062 15.7325 3.63148 15.2891 4.18284 15.2891C4.5128 15.2891 4.80409 15.4479 4.98394 15.6938ZM21.1422 16.2815C21.1422 16.749 20.8181 17.1442 20.383 17.2525C20.139 16.7065 19.7933 16.1711 19.3557 15.6713C19.5366 15.4383 19.8201 15.2891 20.1399 15.2891C20.6913 15.2891 21.1422 15.7325 21.1422 16.2815ZM24.0614 16.2815C24.0614 16.6887 23.7277 17.0224 23.328 17.0224C22.9231 17.0224 22.5872 16.6887 22.5872 16.2815C22.5872 15.8841 22.9231 15.5407 23.328 15.5407C23.7277 15.5407 24.0614 15.8841 24.0614 16.2815ZM1.73561 16.2815C1.73561 16.6887 1.39964 17.0224 1.00222 17.0224C0.595036 17.0224 0.261367 16.6887 0.261367 16.2815C0.261367 15.8841 0.595036 15.5407 1.00222 15.5407C1.39964 15.5407 1.73561 15.8841 1.73561 16.2815ZM5.43666 12.8028C5.43666 13.5035 4.87092 14.0715 4.18284 14.0715C3.49476 14.0715 2.92902 13.5035 2.92902 12.8028C2.92902 12.1222 3.49476 11.5467 4.18284 11.5467C4.87092 11.5467 5.43666 12.1222 5.43666 12.8028ZM21.4012 12.8028C21.4012 13.5035 20.828 14.0715 20.1399 14.0715C19.4519 14.0715 18.8861 13.5035 18.8861 12.8028C18.8861 12.1222 19.4519 11.5467 20.1399 11.5467C20.828 11.5467 21.4012 12.1222 21.4012 12.8028ZM7.72293 11.6012C7.9597 12.0728 8.26147 12.5014 8.61366 12.8749C8.60857 12.9946 8.58547 13.1095 8.54707 13.2171C7.97319 13.4324 7.44183 13.697 6.96041 14.0024C6.4684 13.8327 6.10964 13.3596 6.10964 12.8028C6.10964 12.1222 6.67769 11.5467 7.36346 11.5467C7.48826 11.5467 7.60903 11.5656 7.72293 11.6012ZM18.2131 12.8028C18.2131 13.352 17.8642 13.8197 17.3824 13.9949C16.8923 13.6862 16.3513 13.4193 15.7681 13.2018C15.7358 13.1072 15.7153 13.0072 15.7083 12.9035C16.0763 12.5215 16.3911 12.0796 16.6368 11.5914C16.7395 11.5618 16.8478 11.5467 16.9593 11.5467C17.6451 11.5467 18.2131 12.1222 18.2131 12.8028ZM1.99468 12.8028C1.99468 13.3519 1.53636 13.8027 1.00222 13.8027C0.450857 13.8027 0 13.3519 0 12.8028C0 12.2589 0.450857 11.808 1.00222 11.808C1.53636 11.808 1.99468 12.2589 1.99468 12.8028ZM24.3228 12.8028C24.3228 13.3519 23.8719 13.8027 23.328 13.8027C22.7841 13.8027 22.3258 13.3519 22.3258 12.8028C22.3258 12.2589 22.7841 11.808 23.328 11.808C23.8719 11.808 24.3228 12.2589 24.3228 12.8028ZM21.4012 9.31428C21.4012 10.0173 20.828 10.583 20.1399 10.583C19.4519 10.583 18.8861 10.0173 18.8861 9.31428C18.8861 8.63366 19.4519 8.06046 20.1399 8.06046C20.828 8.06046 21.4012 8.63366 21.4012 9.31428ZM5.43666 9.31428C5.43666 10.0173 4.87092 10.583 4.18284 10.583C3.49476 10.583 2.92902 10.0173 2.92902 9.31428C2.92902 8.63366 3.49476 8.06046 4.18284 8.06046C4.87092 8.06046 5.43666 8.63366 5.43666 9.31428ZM7.11878 9.06038C7.11878 9.58968 7.19128 10.1005 7.32911 10.5813C6.65865 10.5639 6.10964 10.0054 6.10964 9.31428C6.10964 8.68543 6.59456 8.14829 7.20953 8.07127C7.14865 8.3893 7.11878 8.7203 7.11878 9.06038ZM18.2131 9.31428C18.2131 9.99274 17.6841 10.5434 17.0303 10.5794C17.1713 10.0914 17.2459 9.57224 17.2459 9.03339C17.2459 8.70461 17.2182 8.38502 17.1603 8.07863C17.7529 8.176 18.2131 8.70162 18.2131 9.31428ZM24.3228 9.31428C24.3228 9.86565 23.8719 10.324 23.328 10.324C22.7841 10.324 22.3258 9.86565 22.3258 9.31428C22.3258 8.77784 22.7841 8.31952 23.328 8.31952C23.8719 8.31952 24.3228 8.77784 24.3228 9.31428ZM1.99468 9.31428C1.99468 9.86565 1.53636 10.324 1.00222 10.324C0.450857 10.324 0 9.86565 0 9.31428C0 8.77784 0.450857 8.31952 1.00222 8.31952C1.53636 8.31952 1.99468 8.77784 1.99468 9.31428ZM21.1422 5.84069C21.1422 6.39206 20.6913 6.83545 20.1399 6.83545C19.5886 6.83545 19.1452 6.39206 19.1452 5.84069C19.1452 5.29163 19.5886 4.84078 20.1399 4.84078C20.6913 4.84078 21.1422 5.29163 21.1422 5.84069ZM17.9592 5.84069C17.9592 6.39206 17.5084 6.83545 16.9593 6.83545C16.8995 6.83545 16.8409 6.83024 16.7843 6.81931C16.5838 6.35246 16.3176 5.92776 15.9998 5.55432C16.1237 5.14313 16.5078 4.84078 16.9593 4.84078C17.5084 4.84078 17.9592 5.29163 17.9592 5.84069ZM8.33577 5.60359C8.03954 5.96249 7.78908 6.3659 7.59804 6.80686C7.52302 6.82592 7.44432 6.83545 7.36346 6.83545C6.81441 6.83545 6.37101 6.39206 6.37101 5.84069C6.37101 5.29163 6.81441 4.84078 7.36346 4.84078C7.83275 4.84078 8.22922 5.16739 8.33577 5.60359ZM5.1776 5.84069C5.1776 6.39206 4.73421 6.83545 4.18284 6.83545C3.63148 6.83545 3.18062 6.39206 3.18062 5.84069C3.18062 5.29163 3.63148 4.84078 4.18284 4.84078C4.73421 4.84078 5.1776 5.29163 5.1776 5.84069ZM24.0614 5.84069C24.0614 6.24042 23.7277 6.58385 23.328 6.58385C22.9231 6.58385 22.5872 6.24042 22.5872 5.84069C22.5872 5.43581 22.9231 5.09984 23.328 5.09984C23.7277 5.09984 24.0614 5.43581 24.0614 5.84069ZM1.73561 5.84069C1.73561 6.24042 1.39964 6.58385 1.00222 6.58385C0.595036 6.58385 0.261367 6.24042 0.261367 5.84069C0.261367 5.43581 0.595036 5.09984 1.00222 5.09984C1.39964 5.09984 1.73561 5.43581 1.73561 5.84069ZM14.7539 2.35449C14.7539 2.90355 14.3031 3.3544 13.7517 3.3544C13.2003 3.3544 12.7569 2.90355 12.7569 2.35449C12.7569 1.81058 13.2003 1.35227 13.7517 1.35227C14.3031 1.35227 14.7539 1.81058 14.7539 2.35449ZM11.5635 2.35449C11.5635 2.90355 11.1201 3.3544 10.5711 3.3544C10.0197 3.3544 9.56886 2.90355 9.56886 2.35449C9.56886 1.81058 10.0197 1.35227 10.5711 1.35227C11.1201 1.35227 11.5635 1.81058 11.5635 2.35449ZM24.0614 2.35449C24.0614 2.76683 23.7277 3.1028 23.328 3.1028C22.9231 3.1028 22.5872 2.76683 22.5872 2.35449C22.5872 1.9473 22.9231 1.61363 23.328 1.61363C23.7277 1.61363 24.0614 1.9473 24.0614 2.35449ZM20.8808 2.35449C20.8808 2.76683 20.5471 3.1028 20.1399 3.1028C19.7402 3.1028 19.3991 2.76683 19.3991 2.35449C19.3991 1.9473 19.7402 1.61363 20.1399 1.61363C20.5471 1.61363 20.8808 1.9473 20.8808 2.35449ZM17.7002 2.35449C17.7002 2.76683 17.3642 3.1028 16.9593 3.1028C16.5447 3.1028 16.2087 2.76683 16.2087 2.35449C16.2087 1.9473 16.5447 1.61363 16.9593 1.61363C17.3642 1.61363 17.7002 1.9473 17.7002 2.35449ZM8.11178 2.35449C8.11178 2.76683 7.77811 3.1028 7.36346 3.1028C6.96605 3.1028 6.62261 2.76683 6.62261 2.35449C6.62261 1.9473 6.96605 1.61363 7.36346 1.61363C7.77811 1.61363 8.11178 1.9473 8.11178 2.35449ZM4.9237 2.35449C4.9237 2.76683 4.59003 3.1028 4.18284 3.1028C3.77566 3.1028 3.44199 2.76683 3.44199 2.35449C3.44199 1.9473 3.77566 1.61363 4.18284 1.61363C4.59003 1.61363 4.9237 1.9473 4.9237 2.35449ZM1.73561 2.35449C1.73561 2.76683 1.39964 3.1028 1.00222 3.1028C0.595036 3.1028 0.261367 2.76683 0.261367 2.35449C0.261367 1.9473 0.595036 1.61363 1.00222 1.61363C1.39964 1.61363 1.73561 1.9473 1.73561 2.35449Z"
                     fill="currentColor" fill-opacity="0.425" />
              <path d="M12.1737 13.0577C14.1175 13.0577 15.8413 11.2925 15.8413 9.03339C15.8413 6.78917 14.1175 5.14867 12.1737 5.14867C10.2397 5.14867 8.52339 6.82823 8.52339 9.06038C8.52339 11.2925 10.2397 13.0577 12.1737 13.0577ZM7.00214 20.7039L17.3528 20.7039C18.9548 20.7039 19.4763 20.2042 19.4763 19.3547C19.4763 17.0887 16.6852 13.9846 12.1737 13.9846C7.67202 13.9846 4.88839 17.0887 4.88839 19.3547C4.88839 20.2042 5.40015 20.7039 7.00214 20.7039Z"
                     fill="currentColor" fill-opacity="0.85" />
       </g>
</svg>