<?xml version="1.0" encoding="UTF-8"?>
<!--Generator: Apple Native CoreSVG 326-->
<!DOCTYPE svg PUBLIC "-//W3C//DTD SVG 1.1//EN" "http://www.w3.org/Graphics/SVG/1.1/DTD/svg11.dtd">
<svg version="1.1" xmlns="http://www.w3.org/2000/svg" xmlns:xlink="http://www.w3.org/1999/xlink"
       viewBox="0 0 29.5669 22.6261">
       <g>
              <rect height="22.6261" opacity="0" width="29.5669" x="0" y="0" />
              <path d="M11.3976 11.605C10.9802 12.1888 10.7479 12.9317 10.7479 13.7793C10.7479 15.893 12.2204 17.3684 14.322 17.3684L17.1689 17.3684L19.8266 20.0224L14.2072 20.0224C10.5586 20.0224 7.97378 17.4371 7.97378 13.7793C7.97378 12.1297 8.50016 10.698 9.41692 9.62706ZM29.2056 13.7793C29.2056 16.5806 27.6883 18.7528 25.3368 19.6116C25.242 19.2344 25.0442 18.8781 24.7472 18.5819L23.4843 17.3193C25.2517 17.0605 26.4389 15.6772 26.4389 13.7793C26.4389 11.6582 24.9739 10.1925 22.8625 10.1925L22.5187 10.1925C22.7041 9.41612 22.6777 8.46176 22.5295 7.53845L22.9722 7.53845C26.6185 7.53845 29.2056 10.1238 29.2056 13.7793ZM3.6205 3.83862L5.27114 5.48699C3.76205 5.90027 2.77411 7.20299 2.77411 8.93239C2.77411 11.0558 4.22943 12.5215 6.3408 12.5215L6.68691 12.5215C6.49918 13.2904 6.53308 14.2425 6.67374 15.1755L6.23338 15.1755C2.5871 15.1755 0 12.5902 0 8.93239C0 6.38109 1.26021 4.35108 3.26362 3.36098C3.35722 3.53394 3.47694 3.69467 3.6205 3.83862ZM14.973 15.1755L12.7599 15.1755C12.0867 14.6587 12.0022 13.3114 12.4968 12.7027ZM21.2318 8.93239C21.2318 10.7317 20.6058 12.2715 19.5332 13.3693L17.5697 11.4065C18.1347 10.7857 18.4577 9.93193 18.4577 8.93239C18.4577 6.82101 16.9926 5.34562 14.891 5.34562L11.5071 5.34562L8.8523 2.69155L14.9984 2.69155C18.6447 2.69155 21.2318 5.27689 21.2318 8.93239ZM16.5188 10.1925L16.3554 10.1925L13.7222 7.56007C13.8799 7.54372 14.0424 7.53845 14.2072 7.53845L16.4508 7.53845C17.114 8.1145 17.133 9.64006 16.5188 10.1925Z"
                     fill="currentColor" fill-opacity="0.85" />
              <path d="M22.5463 20.768C22.8915 21.0982 23.4446 21.0833 23.7576 20.768C24.1028 20.4228 24.0902 19.8995 23.7576 19.5692L5.841 1.66003C5.4958 1.31484 4.94038 1.31253 4.6101 1.64511C4.2896 1.96562 4.29706 2.53597 4.6101 2.85132Z"
                     fill="currentColor" fill-opacity="0.85" />
       </g>
</svg>