<?xml version="1.0" encoding="UTF-8"?>
<!--Generator: Apple Native CoreSVG 326-->
<!DOCTYPE svg PUBLIC "-//W3C//DTD SVG 1.1//EN" "http://www.w3.org/Graphics/SVG/1.1/DTD/svg11.dtd">
<svg version="1.1" xmlns="http://www.w3.org/2000/svg" xmlns:xlink="http://www.w3.org/1999/xlink"
       viewBox="0 0 21.365 21.006">
       <g>
              <rect height="21.006" opacity="0" width="21.365" x="0" y="0" />
              <path d="M21.0037 10.4981C21.0037 16.2923 16.302 20.9962 10.4981 20.9962C4.70394 20.9962 0 16.2923 0 10.4981C0 4.70163 4.70394 0 10.4981 0C16.302 0 21.0037 4.70163 21.0037 10.4981ZM7.88954 12.5631C7.1727 12.5631 6.72482 13.0248 6.72482 13.7129L6.72482 14.5147L6.66962 14.5147C6.28142 14.5147 5.98166 14.8242 5.98166 15.205C5.98166 15.5782 6.28142 15.8878 6.66962 15.8878L14.3243 15.8878C14.705 15.8878 15.0123 15.5782 15.0123 15.205C15.0123 14.8242 14.705 14.5147 14.3243 14.5147L14.2616 14.5147L14.2616 13.7129C14.2616 13.0248 13.8212 12.5631 13.0969 12.5631ZM11.9532 14.2203C11.9532 14.5005 11.7321 14.7141 11.4473 14.7141L9.52428 14.7141C9.25436 14.7141 9.03041 14.5005 9.03041 14.2203C9.03041 13.9452 9.25436 13.7339 9.52428 13.7339L11.4473 13.7339C11.7321 13.7339 11.9532 13.9452 11.9532 14.2203ZM7.03325 11.0996C7.03325 11.5068 7.31809 11.7589 7.79418 11.7589L13.2049 11.7589C13.681 11.7589 13.9509 11.5068 13.9509 11.0996C13.9509 10.1638 12.6544 8.65089 10.4958 8.65089C8.33724 8.65089 7.03325 10.1638 7.03325 11.0996ZM8.79986 6.1501C8.80732 7.18768 9.54272 7.99944 10.4958 7.99944C11.4512 8.00175 12.1843 7.18768 12.1843 6.1501C12.1843 5.17342 11.4288 4.34728 10.4958 4.34728C9.55764 4.34728 8.79986 5.17342 8.79986 6.1501Z"
                     fill="currentColor" fill-opacity="0.85" />
       </g>
</svg>