<?xml version="1.0" encoding="UTF-8"?>
<!--Generator: Apple Native CoreSVG 326-->
<!DOCTYPE svg PUBLIC "-//W3C//DTD SVG 1.1//EN" "http://www.w3.org/Graphics/SVG/1.1/DTD/svg11.dtd">
<svg version="1.1" xmlns="http://www.w3.org/2000/svg" xmlns:xlink="http://www.w3.org/1999/xlink"
       viewBox="0 0 18.7402 22.2536">
       <g>
              <rect height="22.2536" opacity="0" width="18.7402" x="0" y="0" />
              <path d="M9.19576 7.00668C11.0242 7.01129 12.4346 5.45395 12.4346 3.47547C12.4346 1.61133 11.0019 0 9.19576 0C7.38682 0 5.94205 1.61133 5.94951 3.47547C5.95697 5.45395 7.36959 7.00438 9.19576 7.00668ZM4.0286 14.2337L14.3652 14.2337C15.2892 14.2337 15.8353 13.7461 15.8353 12.965C15.8353 11.1535 13.3229 8.26809 9.19576 8.26809C5.05884 8.26809 2.55623 11.1535 2.55623 12.965C2.55623 13.7461 3.09716 14.2337 4.0286 14.2337ZM1.33334 22.2248L17.0456 22.2248C17.7811 22.2248 18.3789 21.627 18.3789 20.8915C18.3789 20.1559 17.7811 19.5558 17.0456 19.5558L16.4401 19.5558L16.4401 18.0489C16.4401 16.6803 15.5587 15.7805 14.1717 15.7805L4.21469 15.7805C2.82251 15.7805 1.94627 16.6803 1.94627 18.0489L1.94627 19.5558L1.33334 19.5558C0.597766 19.5558 0 20.1559 0 20.8915C0 21.627 0.597766 22.2248 1.33334 22.2248ZM7.35631 19.9714C6.82284 19.9714 6.39448 19.5459 6.39448 18.9975C6.39448 18.4663 6.82284 18.0431 7.35631 18.0431L11.0272 18.0431C11.5658 18.0431 11.9816 18.4663 11.9816 18.9975C11.9816 19.5459 11.5658 19.9714 11.0272 19.9714Z"
                     fill="currentColor" fill-opacity="0.85" />
       </g>
</svg>