<?xml version="1.0" encoding="UTF-8"?>
<!--Generator: Apple Native CoreSVG 326-->
<!DOCTYPE svg PUBLIC "-//W3C//DTD SVG 1.1//EN" "http://www.w3.org/Graphics/SVG/1.1/DTD/svg11.dtd">
<svg version="1.1" xmlns="http://www.w3.org/2000/svg" xmlns:xlink="http://www.w3.org/1999/xlink"
       viewBox="0 0 26.2524 25.1128">
       <g>
              <rect height="25.1128" opacity="0" width="26.2524" x="0" y="0" />
              <path d="M14.3991 20.8272L14.3991 23.5182C14.3991 24.4443 13.6682 25.0507 12.8684 25.0507C12.0415 25.0507 11.3204 24.4443 11.3204 23.5182L11.3204 20.3834ZM14.3991 10.9823L18.4337 10.9823L18.4337 14.0609L14.3991 14.0609L14.3991 17.9264L11.3204 17.4843L11.3204 14.0609L7.41266 14.0609L7.41266 10.9823L11.3204 10.9823L11.3204 7.56708L14.3991 7.12578ZM4.46083 14.0609L1.54224 14.0609C0.613779 14.0609 0 13.3375 0 12.5302C0 11.7033 0.613779 10.9823 1.54224 10.9823L4.46083 10.9823ZM25.8911 12.5302C25.8911 13.3375 25.2848 14.0609 24.3563 14.0609L21.4228 14.0609L21.4228 10.9823L24.3563 10.9823C25.2848 10.9823 25.8911 11.7033 25.8911 12.5302ZM14.3991 1.53478L14.3991 4.22426L11.3204 4.66874L11.3204 1.53478C11.3204 0.606319 12.0415 0 12.8684 0C13.6682 0 14.3991 0.606319 14.3991 1.53478Z"
                     fill="currentColor" fill-opacity="0.85" />
              <path d="M7.97652 19.9014L17.9146 21.334C20.0932 21.6436 21.4228 20.0912 21.4228 17.8969L21.4228 7.16348C21.4228 4.92891 20.1191 3.40475 17.9146 3.7167L7.97652 5.15152C5.77203 5.46347 4.46083 6.54503 4.46083 8.596L4.46083 16.4621C4.46083 18.5108 5.77203 19.5895 7.97652 19.9014ZM8.4281 17.069C7.84356 16.9873 7.41266 16.638 7.41266 16.0042L7.41266 9.04649C7.41266 8.41269 7.84356 8.06332 8.4281 7.98167L17.3287 6.70584C18.0028 6.60927 18.4337 7.07462 18.4337 7.79303L18.4337 17.2674C18.4337 17.9668 17.9884 18.4488 17.3287 18.3471Z"
                     fill="currentColor" fill-opacity="0.85" />
       </g>
</svg>