<?xml version="1.0" encoding="UTF-8"?>
<!--Generator: Apple Native CoreSVG 326-->
<!DOCTYPE svg PUBLIC "-//W3C//DTD SVG 1.1//EN" "http://www.w3.org/Graphics/SVG/1.1/DTD/svg11.dtd">
<svg version="1.1" xmlns="http://www.w3.org/2000/svg" xmlns:xlink="http://www.w3.org/1999/xlink"
       viewBox="0 0 23.8214 19.0529">
       <g>
              <rect height="19.0529" opacity="0" width="23.8214" x="0" y="0" />
              <path d="M3.64834 19.0529L19.8117 19.0529C22.1386 19.0529 23.4601 17.7336 23.4601 15.416L23.4601 3.65404C23.4601 1.32897 22.1386 0.0149214 19.8117 0.0149214L3.64834 0.0149214C1.32382 0.0149214 0 1.32897 0 3.65404L0 15.416C0 17.7336 1.32382 19.0529 3.64834 19.0529ZM4.05583 16.0332C3.37024 16.0332 3.01964 15.7171 3.01964 14.985L3.01964 4.07767C3.01964 3.34555 3.37024 3.03457 4.05583 3.03457L19.4042 3.03457C20.0875 3.03457 20.4404 3.34555 20.4404 4.07767L20.4404 14.985C20.4404 15.7171 20.0875 16.0332 19.4042 16.0332Z"
                     fill="currentColor" fill-opacity="0.85" />
              <path d="M5.4975 13.0957L10.122 13.0957C10.9723 13.0957 11.3693 12.6889 11.3693 11.8703L11.3693 7.19466C11.3693 6.37599 10.9723 5.96923 10.122 5.96923L5.4975 5.96923C4.6593 5.96923 4.25023 6.37368 4.25023 7.19466L4.25023 11.8703C4.25023 12.6889 4.6593 13.0957 5.4975 13.0957ZM5.43527 12.036C5.773 11.3436 6.70492 10.8292 7.81462 10.8292C8.91687 10.8292 9.84878 11.3436 10.1865 12.036ZM7.81462 10.1657C7.06716 10.1657 6.48286 9.53252 6.48286 8.70463C6.48286 7.93072 7.06716 7.30505 7.81462 7.30505C8.55232 7.30505 9.13662 7.93072 9.13662 8.70463C9.13662 9.53252 8.55232 10.1657 7.81462 10.1657ZM15.8759 13.0256C16.4584 13.0256 16.972 12.967 17.3007 12.8331C17.5867 12.7108 17.7355 12.5298 17.7355 12.2759C17.7355 12.0094 17.5448 11.8066 17.2835 11.8066C17.2007 11.8066 17.1278 11.8285 17.0381 11.8405C16.7675 11.8796 16.5291 11.9968 15.9908 11.9968C14.3947 11.9968 13.4541 11.0855 13.4541 9.5583C13.4541 8.03802 14.4142 7.0193 15.8391 7.0193C17.2617 7.0193 18.2075 7.90415 18.2075 9.22682C18.2075 9.96233 17.9817 10.4559 17.6547 10.4559C17.496 10.4559 17.4161 10.3886 17.4161 10.1726L17.4161 8.17595C17.4161 7.86806 17.1887 7.62853 16.8905 7.62853C16.6906 7.62853 16.5028 7.75494 16.4218 7.92787L16.4218 7.94631C16.1799 7.75494 15.9024 7.62853 15.5829 7.62853C14.6671 7.62853 14.0041 8.42998 14.0041 9.53592C14.0041 10.6735 14.6597 11.4531 15.6122 11.4531C15.9989 11.4531 16.3419 11.3002 16.5953 11.0187C16.8026 11.3002 17.1456 11.4531 17.5519 11.4531C18.5561 11.4531 19.2191 10.5344 19.2191 9.16822C19.2191 7.30044 17.8385 6.01235 15.8391 6.01235C13.7616 6.01235 12.3592 7.43431 12.3592 9.54108C12.3592 11.6501 13.7593 13.0256 15.8759 13.0256ZM15.7736 10.4071C15.388 10.4071 15.1627 10.087 15.1627 9.51639C15.1627 8.9481 15.3903 8.64525 15.7834 8.64525C16.1787 8.64525 16.4212 8.97049 16.4212 9.50202C16.4212 10.0675 16.1787 10.4071 15.7736 10.4071Z"
                     fill="currentColor" fill-opacity="0.85" />
       </g>
</svg>