<?xml version="1.0" encoding="UTF-8"?>
<!--Generator: Apple Native CoreSVG 326-->
<!DOCTYPE svg PUBLIC "-//W3C//DTD SVG 1.1//EN" "http://www.w3.org/Graphics/SVG/1.1/DTD/svg11.dtd">
<svg version="1.1" xmlns="http://www.w3.org/2000/svg" xmlns:xlink="http://www.w3.org/1999/xlink"
       viewBox="0 0 19.3993 19.0529">
       <g>
              <rect height="19.0529" opacity="0" width="19.3993" x="0" y="0" />
              <path d="M3.64834 19.0379L15.3896 19.0379C17.7164 19.0379 19.0379 17.7262 19.0379 15.4011L19.0379 3.63912C19.0379 1.32151 17.7164 0 15.3896 0L3.64834 0C1.32382 0 0 1.32151 0 3.63912L0 15.4011C0 17.7262 1.32382 19.0379 3.64834 19.0379ZM4.05583 16.0183C3.37024 16.0183 3.01964 15.7096 3.01964 14.9775L3.01964 4.07021C3.01964 3.33809 3.37024 3.0271 4.05583 3.0271L14.9821 3.0271C15.6654 3.0271 16.0183 3.33809 16.0183 4.07021L16.0183 14.9775C16.0183 15.7096 15.6654 16.0183 14.9821 16.0183Z"
                     fill="currentColor" fill-opacity="0.85" />
              <path d="M7.07401 12.7808C8.54074 12.7808 9.4689 12.0137 9.4689 10.6546C9.4689 9.54799 8.89709 9.05741 7.93424 8.72416L7.31045 8.50186C6.82369 8.32771 6.40486 8.1122 6.40486 7.59153C6.40486 7.2259 6.66349 6.94191 7.06995 6.94191C7.50042 6.94191 7.72582 7.2034 7.84938 7.55071C7.99235 7.89129 8.2152 8.03086 8.58332 8.03086C9.0605 8.03086 9.29081 7.72134 9.29081 7.37099C9.29081 7.20333 9.2512 7.05115 9.20698 6.94834C8.8607 6.04232 8.00132 5.66121 7.0671 5.66121C5.73655 5.66121 4.78886 6.41626 4.78886 7.71958C4.78886 8.752 5.33531 9.35177 6.37914 9.71486L6.89101 9.89755C7.49945 10.1142 7.85059 10.3137 7.85059 10.8142C7.85059 11.2218 7.54313 11.4852 7.08839 11.4852C6.68193 11.4852 6.3974 11.2937 6.26122 10.9119C6.09587 10.5564 5.86041 10.4071 5.49229 10.4071C5.05756 10.4071 4.77788 10.7114 4.77788 11.0962C4.77788 11.2754 4.84448 11.489 4.926 11.6538C5.27811 12.4107 6.12311 12.7808 7.07401 12.7808ZM10.5468 14.3355C10.954 14.3355 11.19 14.065 11.2561 13.6159L12.3049 6.59168C12.3146 6.50094 12.3192 6.43082 12.3192 6.35379C12.3192 5.93113 12.0964 5.63137 11.6341 5.63137C11.2293 5.63137 10.9909 5.90414 10.9272 6.35324L9.87839 13.3827C9.86632 13.4734 9.86171 13.5361 9.86171 13.6131C9.86171 14.0432 10.0846 14.3355 10.5468 14.3355ZM13.6531 12.7003C14.143 12.7003 14.5203 12.3253 14.5203 11.84C14.5203 11.3696 14.143 10.9848 13.6531 10.9848C13.1678 10.9848 12.7927 11.3696 12.7927 11.84C12.7927 12.3253 13.1678 12.7003 13.6531 12.7003Z"
                     fill="currentColor" fill-opacity="0.85" />
       </g>
</svg>