<?xml version="1.0" encoding="UTF-8"?>
<!--Generator: Apple Native CoreSVG 326-->
<!DOCTYPE svg PUBLIC "-//W3C//DTD SVG 1.1//EN" "http://www.w3.org/Graphics/SVG/1.1/DTD/svg11.dtd">
<svg version="1.1" xmlns="http://www.w3.org/2000/svg" xmlns:xlink="http://www.w3.org/1999/xlink"
       viewBox="0 0 24.6449 23.5952">
       <g>
              <rect height="23.5952" opacity="0" width="24.6449" x="0" y="0" />
              <path d="M1.94045 20.4256L22.5744 20.4256L22.5744 19.4355C22.5744 18.8957 22.2379 18.5718 21.7032 18.5718L21.3244 18.5718L21.3244 7.89293L22.1092 7.89293C22.9074 7.89293 23.3841 7.28595 23.3841 6.69158C23.3841 6.25686 23.136 5.85374 22.6254 5.55167L13.7186 0.416404C13.2683 0.154491 12.7462 0 12.2563 0C11.7664 0 11.242 0.154491 10.7963 0.416404L1.88944 5.55167C1.37659 5.85374 1.13081 6.25686 1.13081 6.69158C1.13081 7.28595 1.60745 7.89293 2.41314 7.89293L3.19045 7.89293L3.19045 18.5718L2.81396 18.5718C2.27927 18.5718 1.94045 18.8957 1.94045 19.4355ZM5.29922 18.5718L5.29922 6.39673L12.047 2.62732C12.1194 2.5888 12.1965 2.57212 12.2563 2.57212C12.331 2.57212 12.3931 2.5888 12.4679 2.62732L19.2157 6.39673L19.2157 18.5718ZM1.20651 23.5854L23.0673 23.5854C23.7134 23.5854 24.2836 23.0525 24.2836 22.3766C24.2836 21.7231 23.7134 21.1701 23.0673 21.1701L1.20651 21.1701C0.553002 21.1701 0 21.7231 0 22.3766C0 23.045 0.553002 23.5854 1.20651 23.5854Z"
                     fill="currentColor" fill-opacity="0.85" />
              <path d="M9.80875 14.8182C11.2829 14.8182 12.2088 14.0511 12.2088 12.6972C12.2088 11.5854 11.6318 11.1 10.6764 10.7593L10.0452 10.5393C9.55843 10.3652 9.14706 10.1473 9.14706 9.63413C9.14706 9.26103 9.4057 8.98681 9.80469 8.98681C10.2426 8.98681 10.4606 9.23853 10.5841 9.58584C10.7271 9.92643 10.9499 10.066 11.3181 10.066C11.8027 10.066 12.033 9.76624 12.033 9.41358C12.033 9.23847 11.9859 9.08859 11.9417 8.99093C11.6006 8.07745 10.7361 7.69635 9.79953 7.69635C8.47875 7.69635 7.5236 8.4537 7.5236 9.75702C7.5236 10.7946 8.0752 11.3892 9.11388 11.7523L9.63322 11.9327C10.2342 12.1493 10.5853 12.3511 10.5853 12.8494C10.5853 13.2644 10.2779 13.5278 9.82829 13.5278C9.41667 13.5278 9.1396 13.3288 8.99596 12.947C8.83577 12.599 8.60261 12.4422 8.23218 12.4422C7.7923 12.4422 7.52008 12.7489 7.52008 13.1411C7.52008 13.3105 7.57692 13.5242 7.6682 13.6987C8.02031 14.4458 8.86531 14.8182 9.80875 14.8182ZM13.289 16.3706C13.6939 16.3706 13.9322 16.1076 13.9885 15.6585L15.0373 8.62681C15.0494 8.53838 15.0614 8.46595 15.0614 8.39122C15.0614 7.96857 14.8386 7.67627 14.3763 7.67627C13.9692 7.67627 13.7257 7.93928 13.6671 8.38837L12.6183 15.4201C12.6085 15.5085 12.5964 15.581 12.5964 15.6557C12.5964 16.0783 12.8268 16.3706 13.289 16.3706ZM16.3878 14.7378C16.8777 14.7378 17.2625 14.3627 17.2625 13.8751C17.2625 13.4047 16.8777 13.0199 16.3878 13.0199C15.91 13.0199 15.5275 13.4047 15.5275 13.8751C15.5275 14.3627 15.91 14.7378 16.3878 14.7378Z"
                     fill="currentColor" fill-opacity="0.85" />
       </g>
</svg>