<?xml version="1.0" encoding="UTF-8"?>
<!--Generator: Apple Native CoreSVG 326-->
<!DOCTYPE svg PUBLIC "-//W3C//DTD SVG 1.1//EN" "http://www.w3.org/Graphics/SVG/1.1/DTD/svg11.dtd">
<svg version="1.1" xmlns="http://www.w3.org/2000/svg" xmlns:xlink="http://www.w3.org/1999/xlink"
       viewBox="0 0 24.6449 23.5952">
       <g>
              <rect height="23.5952" opacity="0" width="24.6449" x="0" y="0" />
              <path d="M13.7186 0.416404L22.6254 5.55167C23.136 5.85374 23.3841 6.25686 23.3841 6.69158C23.3841 7.28595 22.9074 7.89293 22.1092 7.89293L21.3244 7.89293L21.3244 19.392L21.7032 19.392C22.2379 19.392 22.5744 19.7159 22.5744 20.2632L22.5744 21.1701L23.0673 21.1701C23.7134 21.1701 24.2836 21.7231 24.2836 22.3766C24.2836 23.0525 23.7134 23.5854 23.0673 23.5854L1.20651 23.5854C0.553002 23.5854 0 23.045 0 22.3766C0 21.7231 0.553002 21.1701 1.20651 21.1701L1.94045 21.1701L1.94045 20.2632C1.94045 19.7159 2.27927 19.392 2.81396 19.392L3.19045 19.392L3.19045 7.89293L2.41314 7.89293C1.60745 7.89293 1.13081 7.28595 1.13081 6.69158C1.13081 6.25686 1.37659 5.85374 1.88944 5.55167L10.7963 0.416404C11.242 0.154491 11.7664 0 12.2563 0C12.7462 0 13.2683 0.154491 13.7186 0.416404ZM13.736 9.56098L12.6257 17.028C12.616 17.1239 12.6114 17.1986 12.6114 17.2756C12.6114 17.7304 12.8491 18.0526 13.3435 18.0526C13.7731 18.0526 14.0361 17.7649 14.0999 17.2762L15.2124 9.81149C15.2245 9.71328 15.2291 9.64086 15.2291 9.56383C15.2291 9.10903 14.9965 8.78458 14.4946 8.78458C14.0627 8.78458 13.8043 9.07227 13.736 9.56098ZM7.19575 11.0158C7.19575 12.1073 7.77435 12.7513 8.88708 13.1316L9.44087 13.3315C10.0838 13.5654 10.447 13.7672 10.447 14.3022C10.447 14.7368 10.1297 15.0122 9.65087 15.0122C9.21972 15.0122 8.92542 14.8086 8.77202 14.4073C8.60437 14.0271 8.34652 13.8629 7.94394 13.8629C7.47938 13.8629 7.18993 14.1845 7.18993 14.6089C7.18993 14.7932 7.24907 15.0241 7.34782 15.1987C7.72461 15.9997 8.61899 16.3968 9.63134 16.3968C11.2014 16.3968 12.1841 15.5855 12.1841 14.1351C12.1841 12.9498 11.5778 12.4346 10.5559 12.0766L9.88269 11.8371C9.36894 11.6532 8.93288 11.4181 8.93288 10.8779C8.93288 10.4876 9.20128 10.1939 9.62727 10.1939C10.0847 10.1939 10.3199 10.4628 10.4532 10.8371C10.6111 11.1972 10.8437 11.342 11.244 11.342C11.7608 11.342 11.9986 11.0175 11.9986 10.635C11.9986 10.4599 11.9515 10.2928 11.9073 10.1877C11.5363 9.21506 10.6201 8.81212 9.62212 8.81212C8.2152 8.81212 7.19575 9.61369 7.19575 11.0158ZM15.737 15.3894C15.737 15.9092 16.1442 16.3164 16.6542 16.3164C17.1711 16.3164 17.5881 15.9092 17.5881 15.3894C17.5881 14.8771 17.1711 14.4751 16.6542 14.4751C16.1442 14.4751 15.737 14.8771 15.737 15.3894Z"
                     fill="currentColor" fill-opacity="0.85" />
       </g>
</svg>