<?xml version="1.0" encoding="UTF-8"?>
<!--Generator: Apple Native CoreSVG 326-->
<!DOCTYPE svg PUBLIC "-//W3C//DTD SVG 1.1//EN" "http://www.w3.org/Graphics/SVG/1.1/DTD/svg11.dtd">
<svg version="1.1" xmlns="http://www.w3.org/2000/svg" xmlns:xlink="http://www.w3.org/1999/xlink"
       viewBox="0 0 26.749 27.1121">
       <g>
              <rect height="27.1121" opacity="0" width="26.749" x="0" y="0" />
              <path d="M6.33553 22.9944C10.1189 22.9944 12.9746 21.1562 12.9746 17.3383C12.9746 14.307 11.2718 12.9847 8.32456 12.1047L6.80288 11.6532C5.48701 11.2601 4.29658 10.655 4.29658 9.26436C4.29658 8.0877 5.17269 7.46397 6.30841 7.46397C7.40101 7.46397 8.29544 7.99453 8.67345 9.12006C9.07415 10.0658 9.74245 10.3644 10.6807 10.3644C11.8106 10.342 12.4773 9.65651 12.4773 8.64246C12.4773 8.31692 12.4084 7.99993 12.3021 7.70016C11.4648 5.24723 9.04892 4.0941 6.29295 4.0941C2.80765 4.0941 0.0300848 6.06961 0.0300848 9.60307C0.0300848 12.5183 1.73798 13.9968 4.5509 14.8768L6.02782 15.3358C7.37881 15.7507 8.70584 16.3088 8.70584 17.7425C8.70584 18.9611 7.61907 19.6297 6.37635 19.6297C5.27769 19.6297 4.24205 19.0646 3.84912 17.9895C3.42143 17.0994 2.81281 16.7055 1.84649 16.7055C0.84397 16.7055 0 17.39 0 18.4992C0 18.9231 0.0861317 19.2642 0.221637 19.6301C1.028 21.9285 3.56506 22.9944 6.33553 22.9944ZM15.9774 27.1121C17.0993 27.1121 17.736 26.4237 17.9181 25.2352L21.0596 6.2352C21.0912 6.03419 21.1182 5.73564 21.1182 5.48865C21.1107 4.57062 20.3867 3.90801 19.3905 3.90801C18.264 3.90801 17.6222 4.57972 17.4499 5.75438L14.313 24.6859C14.2716 24.9272 14.2377 25.2586 14.2377 25.5033C14.2526 26.4092 14.9387 27.1121 15.9774 27.1121ZM24.1172 22.9944C25.454 22.9944 26.4175 22.0406 26.4175 20.7291C26.4175 19.4199 25.454 18.4661 24.1172 18.4661C22.7759 18.4661 21.8146 19.4199 21.8146 20.7291C21.8146 22.0406 22.7759 22.9944 24.1172 22.9944Z"
                     fill="currentColor" fill-opacity="0.85" />
       </g>
</svg>