<?xml version="1.0" encoding="UTF-8"?>
<!--Generator: Apple Native CoreSVG 326-->
<!DOCTYPE svg PUBLIC "-//W3C//DTD SVG 1.1//EN" "http://www.w3.org/Graphics/SVG/1.1/DTD/svg11.dtd">
<svg version="1.1" xmlns="http://www.w3.org/2000/svg" xmlns:xlink="http://www.w3.org/1999/xlink"
       viewBox="0 0 21.365 21.006">
       <g>
              <rect height="21.006" opacity="0" width="21.365" x="0" y="0" />
              <path d="M10.4981 20.9962C16.302 20.9962 21.0037 16.2946 21.0037 10.4981C21.0037 4.70163 16.302 0 10.4981 0C4.70163 0 0 4.70163 0 10.4981C0 16.2946 4.70163 20.9962 10.4981 20.9962ZM10.4981 17.9484C6.37829 17.9484 3.04785 14.6179 3.04785 10.4981C3.04785 6.37829 6.37829 3.04785 10.4981 3.04785C14.6179 3.04785 17.9558 6.37829 17.9558 10.4981C17.9558 14.6179 14.6179 17.9484 10.4981 17.9484Z"
                     fill="currentColor" fill-opacity="0.85" />
              <path d="M8.04597 13.7573C9.52015 13.7573 10.446 12.9902 10.446 11.6312C10.446 10.5246 9.86905 10.034 8.91365 9.70072L8.2824 9.47842C7.79564 9.30428 7.37681 9.08877 7.37681 8.56809C7.37681 8.20246 7.63545 7.91847 8.0419 7.91847C8.47238 7.91847 8.69778 8.17996 8.82133 8.52727C8.9643 8.86786 9.18715 9.00743 9.55527 9.00743C10.0325 9.00743 10.2702 8.6979 10.2702 8.34755C10.2702 8.1799 10.2232 8.02771 10.1789 7.9249C9.83035 7.01888 8.97328 6.63778 8.03905 6.63778C6.7085 6.63778 5.76081 7.39282 5.76081 8.69614C5.76081 9.72857 6.30495 10.3283 7.35109 10.6914L7.86297 10.8741C8.47141 11.0907 8.82254 11.2902 8.82254 11.7908C8.82254 12.1984 8.51508 12.4617 8.05804 12.4617C7.65389 12.4617 7.36935 12.2702 7.23318 11.8885C7.07298 11.533 6.83236 11.3836 6.46193 11.3836C6.02952 11.3836 5.75729 11.688 5.75729 12.0728C5.75729 12.252 5.81643 12.4656 5.90541 12.6304C6.25752 13.3872 7.09506 13.7573 8.04597 13.7573ZM11.5188 15.3121C11.9236 15.3121 12.162 15.0416 12.2257 14.5925L13.2745 7.56824C13.2866 7.4775 13.2912 7.40738 13.2912 7.33035C13.2912 6.9077 13.0683 6.60793 12.6061 6.60793C12.1989 6.60793 11.9629 6.8807 11.9043 7.3298L10.8555 14.3592C10.8383 14.45 10.8337 14.5126 10.8337 14.5897C10.8337 15.0198 11.0565 15.3121 11.5188 15.3121ZM14.625 13.6769C15.1149 13.6769 15.4923 13.3019 15.4923 12.8166C15.4923 12.3462 15.1149 11.9614 14.625 11.9614C14.1397 11.9614 13.7647 12.3462 13.7647 12.8166C13.7647 13.3019 14.1397 13.6769 14.625 13.6769Z"
                     fill="currentColor" fill-opacity="0.85" />
       </g>
</svg>