<?xml version="1.0" encoding="UTF-8"?>
<!--Generator: Apple Native CoreSVG 326-->
<!DOCTYPE svg PUBLIC "-//W3C//DTD SVG 1.1//EN" "http://www.w3.org/Graphics/SVG/1.1/DTD/svg11.dtd">
<svg version="1.1" xmlns="http://www.w3.org/2000/svg" xmlns:xlink="http://www.w3.org/1999/xlink"
       viewBox="0 0 25.2371 20.7338">
       <g>
              <rect height="20.7338" opacity="0" width="25.2371" x="0" y="0" />
              <path d="M24.8758 12.3846C24.8758 5.93383 19.9627 0.631336 13.6785 0.00415235C13.2541-0.040066 12.9302 0.274072 12.9302 0.698483L12.9302 4.13058C12.9302 4.48379 13.1829 4.74109 13.5286 4.79046C17.2465 5.32405 20.1044 8.51741 20.1044 12.3846C20.1044 14.1648 19.4989 15.8157 18.4419 17.1359C18.2306 17.4138 18.2329 17.7555 18.4764 18.0012L20.9223 20.4523C21.2117 20.7567 21.6557 20.7417 21.9256 20.4328C23.7735 18.2551 24.8758 15.452 24.8758 12.3846Z"
                     fill="currentColor" fill-opacity="0.85" />
              <path d="M0 12.3846C0 15.4543 1.1023 18.2574 2.94273 20.4276C3.21265 20.7366 3.65429 20.7417 3.9535 20.4448L6.39194 17.9938C6.63541 17.748 6.63772 17.4063 6.42639 17.1284C5.38201 15.8157 4.77139 14.1648 4.77139 12.3846C4.77139 8.51741 7.63678 5.32405 11.3472 4.79046C11.7004 4.74109 11.9456 4.48379 11.9456 4.13058L11.9456 0.698483C11.9456 0.274072 11.6217-0.040066 11.1973 0.00415235C4.92054 0.631336 0 5.93383 0 12.3846Z"
                     fill="currentColor" fill-opacity="0.85" />
              <path d="M9.98459 15.5866C11.4513 15.5866 12.3795 14.8195 12.3795 13.4656C12.3795 12.3538 11.8077 11.8684 10.8448 11.53L10.2136 11.3077C9.72911 11.1335 9.31774 10.9157 9.31774 10.4025C9.31774 10.0294 9.57408 9.75516 9.98284 9.75516C10.411 9.75516 10.6364 10.0069 10.76 10.3617C10.9029 10.6948 11.1258 10.8344 11.4939 10.8344C11.9711 10.8344 12.2014 10.5346 12.2014 10.1819C12.2014 10.0068 12.1543 9.85694 12.1199 9.75929C11.7713 8.84581 10.9119 8.4647 9.97022 8.4647C8.64943 8.4647 7.69944 9.22206 7.69944 10.5254C7.69944 11.563 8.24589 12.1576 9.28972 12.5207L9.8039 12.701C10.4123 12.9176 10.7612 13.1194 10.7612 13.6177C10.7612 14.0327 10.4462 14.2961 9.99897 14.2961C9.59251 14.2961 9.31028 14.0972 9.1718 13.7154C9.00646 13.3673 8.77099 13.2106 8.40287 13.2106C7.96068 13.2106 7.69076 13.5172 7.69076 13.9095C7.69076 14.0789 7.75506 14.2925 7.83658 14.4671C8.18869 15.2141 9.03369 15.5866 9.98459 15.5866ZM13.4574 17.139C13.8646 17.139 14.1006 16.876 14.1666 16.4269L15.2155 9.39517C15.2252 9.30673 15.2298 9.23431 15.2298 9.15958C15.2298 8.73693 15.007 8.44463 14.5447 8.44463C14.1398 8.44463 13.9015 8.70763 13.8378 9.15673L12.789 16.1885C12.7792 16.2769 12.7723 16.3493 12.7723 16.424C12.7723 16.8467 12.9951 17.139 13.4574 17.139ZM16.5637 15.5061C17.0536 15.5061 17.4309 15.1311 17.4309 14.6435C17.4309 14.1731 17.0536 13.7883 16.5637 13.7883C16.0783 13.7883 15.7033 14.1731 15.7033 14.6435C15.7033 15.1311 16.0783 15.5061 16.5637 15.5061Z"
                     fill="currentColor" fill-opacity="0.85" />
       </g>
</svg>