<?xml version="1.0" encoding="UTF-8"?>
<!--Generator: Apple Native CoreSVG 326-->
<!DOCTYPE svg PUBLIC "-//W3C//DTD SVG 1.1//EN" "http://www.w3.org/Graphics/SVG/1.1/DTD/svg11.dtd">
<svg version="1.1" xmlns="http://www.w3.org/2000/svg" xmlns:xlink="http://www.w3.org/1999/xlink"
       viewBox="0 0 24.3303 21.006">
       <g>
              <rect height="21.006" opacity="0" width="24.3303" x="0" y="0" />
              <path d="M11.9856 20.9962C17.7821 20.9962 22.4837 16.2946 22.4837 10.4981C22.4837 4.70163 17.7821 0 11.9856 0C6.18916 0 1.48753 4.70163 1.48753 10.4981L4.53538 10.4981C4.53538 6.37829 7.86582 3.04785 11.9856 3.04785C16.1055 3.04785 19.4359 6.37829 19.4359 10.4981C19.4359 14.6179 16.1055 17.9484 11.9856 17.9484C9.86874 17.9484 8.05458 17.1034 6.64712 15.6524C5.97135 15.0132 5.0498 14.8117 4.35614 15.4438C3.73423 16.0162 3.72149 16.9286 4.44894 17.7463C6.08398 19.7011 9.21457 20.9962 11.9856 20.9962ZM0.808605 8.39698C-0.0138912 8.39698-0.212055 9.15901 0.22849 9.72826L2.75918 13.0277C3.05907 13.4322 3.60988 13.4224 3.91492 13.0277L6.43585 9.72596C6.86894 9.15901 6.66847 8.39698 5.8655 8.39698Z"
                     fill="currentColor" fill-opacity="0.85" />
              <path d="M9.5358 13.7573C11.01 13.7573 11.9358 12.9902 11.9358 11.6312C11.9358 10.5246 11.3589 10.034 10.4035 9.70072L9.77224 9.47842C9.28547 9.30428 8.8741 9.08877 8.8741 8.56809C8.8741 8.20246 9.12528 7.91847 9.53173 7.91847C9.96221 7.91847 10.1876 8.17996 10.3112 8.52727C10.4541 8.86786 10.677 9.00743 11.0451 9.00743C11.5297 9.00743 11.7601 8.6979 11.7601 8.34755C11.7601 8.1799 11.713 8.02771 11.6688 7.9249C11.3202 7.01888 10.4631 6.63778 9.52888 6.63778C8.19833 6.63778 7.25064 7.39282 7.25064 8.69614C7.25064 9.72857 7.80225 10.3283 8.84092 10.6914L9.36026 10.8741C9.96124 11.0907 10.3124 11.2902 10.3124 11.7908C10.3124 12.1984 10.0049 12.4617 9.54787 12.4617C9.14372 12.4617 8.85918 12.2702 8.72301 11.8885C8.56282 11.533 8.32219 11.3836 7.95177 11.3836C7.51935 11.3836 7.24712 11.688 7.24712 12.0728C7.24712 12.252 7.30626 12.4656 7.39525 12.6304C7.74735 13.3872 8.58489 13.7573 9.5358 13.7573ZM13.0086 15.3121C13.4135 15.3121 13.6518 15.0416 13.7155 14.5925L14.7644 7.56824C14.7764 7.4775 14.781 7.40738 14.781 7.33035C14.781 6.9077 14.5582 6.60793 14.0959 6.60793C13.6887 6.60793 13.4527 6.8807 13.3941 7.3298L12.3453 14.3592C12.3281 14.45 12.3235 14.5126 12.3235 14.5897C12.3235 15.0198 12.5463 15.3121 13.0086 15.3121ZM16.1149 13.6769C16.6048 13.6769 16.9821 13.3019 16.9821 12.8166C16.9821 12.3462 16.6048 11.9614 16.1149 11.9614C15.6295 11.9614 15.2545 12.3462 15.2545 12.8166C15.2545 13.3019 15.6295 13.6769 16.1149 13.6769Z"
                     fill="currentColor" fill-opacity="0.85" />
       </g>
</svg>