<?xml version="1.0" encoding="UTF-8"?>
<!--Generator: Apple Native CoreSVG 326-->
<!DOCTYPE svg PUBLIC "-//W3C//DTD SVG 1.1//EN" "http://www.w3.org/Graphics/SVG/1.1/DTD/svg11.dtd">
<svg version="1.1" xmlns="http://www.w3.org/2000/svg" xmlns:xlink="http://www.w3.org/1999/xlink"
       viewBox="0 0 24.6449 23.5952">
       <g>
              <rect height="23.5952" opacity="0" width="24.6449" x="0" y="0" />
              <path d="M13.7186 0.416404L22.6254 5.55167C23.136 5.85374 23.3841 6.25686 23.3841 6.69158C23.3841 7.28595 22.9074 7.89293 22.1092 7.89293L21.3244 7.89293L21.3244 19.392L21.7032 19.392C22.2379 19.392 22.5744 19.7159 22.5744 20.2632L22.5744 21.1701L23.0673 21.1701C23.7134 21.1701 24.2836 21.7231 24.2836 22.3766C24.2836 23.0525 23.7134 23.5854 23.0673 23.5854L1.20651 23.5854C0.553002 23.5854 0 23.045 0 22.3766C0 21.7231 0.553002 21.1701 1.20651 21.1701L1.94045 21.1701L1.94045 20.2632C1.94045 19.7159 2.27927 19.392 2.81396 19.392L3.19045 19.392L3.19045 7.89293L2.41314 7.89293C1.60745 7.89293 1.13081 7.28595 1.13081 6.69158C1.13081 6.25686 1.37659 5.85374 1.88944 5.55167L10.7963 0.416404C11.242 0.154491 11.7664 0 12.2563 0C12.7462 0 13.2683 0.154491 13.7186 0.416404ZM10.3215 8.48912C9.58997 8.48912 9.17138 8.91002 9.17138 9.64899L9.17138 11.4437L8.60892 11.4437C8.44345 11.4437 8.31704 11.5678 8.31704 11.7183C8.31704 11.8815 8.44345 11.9981 8.60892 11.9981L9.17138 11.9981L9.17138 16.4143C9.17138 17.0987 9.58997 17.5196 10.2595 17.5196C10.9192 17.5196 11.3401 17.0987 11.3401 16.4143L11.3401 15.0596L12.768 15.0596C14.6744 15.0596 15.8784 13.7862 15.9956 11.9981L16.5637 11.9981C16.7314 11.9981 16.8578 11.8717 16.8578 11.7183C16.8578 11.5678 16.7314 11.4437 16.5637 11.4437L15.9858 11.4437C15.8795 9.73197 14.7226 8.48912 12.9069 8.48912ZM12.3012 13.516L11.3401 13.516L11.3401 11.9981L13.7976 11.9981C13.7148 12.9226 13.1942 13.516 12.3012 13.516ZM13.7953 11.4437L11.3401 11.4437L11.3401 10.0798L12.3207 10.0798C13.1757 10.0798 13.701 10.5801 13.7953 11.4437Z"
                     fill="currentColor" fill-opacity="0.85" />
       </g>
</svg>