<?xml version="1.0" encoding="UTF-8"?>
<!--Generator: Apple Native CoreSVG 326-->
<!DOCTYPE svg PUBLIC "-//W3C//DTD SVG 1.1//EN" "http://www.w3.org/Graphics/SVG/1.1/DTD/svg11.dtd">
<svg version="1.1" xmlns="http://www.w3.org/2000/svg" xmlns:xlink="http://www.w3.org/1999/xlink"
       viewBox="0 0 25.2371 20.7933">
       <g>
              <rect height="20.7933" opacity="0" width="25.2371" x="0" y="0" />
              <path d="M24.8758 12.4367C24.8758 9.44627 23.8182 6.68788 22.0375 4.53265C21.79 4.23112 21.3535 4.23112 21.0491 4.53034L18.6193 6.95264C18.3592 7.2128 18.3569 7.55853 18.5677 7.83822C19.5288 9.12728 20.1044 10.7185 20.1044 12.4367C20.1044 14.2244 19.4989 15.8753 18.4419 17.2029C18.2306 17.4808 18.2329 17.8225 18.4764 18.0683L20.92 20.5119C21.2117 20.8036 21.6459 20.8036 21.9256 20.4849C23.766 18.3147 24.8758 15.5116 24.8758 12.4367Z"
                     fill="currentColor" fill-opacity="0.85" />
              <path d="M12.4367 4.77139C14.1745 4.77139 15.7732 5.34932 17.0646 6.32534C17.3345 6.52635 17.6779 6.50682 17.9231 6.25413L20.3454 3.82437C20.6521 3.52515 20.6424 3.07605 20.311 2.81359C18.1655 1.05754 15.422 0 12.4367 0C9.45373 0 6.71026 1.05754 4.57225 2.81359C4.24089 3.07605 4.22366 3.52515 4.53034 3.82437L6.95264 6.25413C7.19787 6.50682 7.55853 6.52635 7.84052 6.31557C9.12213 5.34932 10.7185 4.77139 12.4367 4.77139Z"
                     fill="currentColor" fill-opacity="0.85" />
              <path d="M0 12.4367C0 15.519 1.12468 18.3446 2.98003 20.5147C3.23503 20.8186 3.66405 20.8036 3.96096 20.5119L6.39709 18.0683C6.64057 17.8225 6.65264 17.4808 6.43385 17.2029C5.38432 15.8753 4.77139 14.2244 4.77139 12.4367C4.77139 10.7185 5.34471 9.12728 6.30811 7.83822C6.51658 7.55853 6.51658 7.2128 6.25643 6.95264L3.82667 4.53034C3.52745 4.23112 3.07836 4.23859 2.80844 4.56995C1.05008 6.71026 0 9.45373 0 12.4367Z"
                     fill="currentColor" fill-opacity="0.85" />
              <path d="M10.5783 16.6358C11.191 16.6358 11.5797 16.2493 11.5797 15.6143L11.5797 14.3302L12.9267 14.3302C14.8072 14.3302 15.9516 13.0063 15.9516 11.2003C15.9516 9.46435 14.8399 8.17432 13.0581 8.17432L10.6403 8.17432C9.95299 8.17432 9.56194 8.57283 9.56194 9.25496L9.56194 15.6143C9.56194 16.2493 9.95069 16.6358 10.5783 16.6358ZM11.5797 12.8808L11.5797 9.6536L12.5115 9.6536C13.397 9.6536 13.9143 10.2292 13.9143 11.2152C13.9143 12.2265 13.4137 12.8808 12.4942 12.8808ZM8.76159 11.1963C8.76159 11.352 8.87823 11.4588 9.03393 11.4588L16.4852 11.4588C16.6334 11.4588 16.7501 11.3497 16.7501 11.1963C16.7501 11.0555 16.6334 10.9388 16.4852 10.9388L9.03393 10.9388C8.87823 10.9388 8.76159 11.0555 8.76159 11.1963Z"
                     fill="currentColor" fill-opacity="0.85" />
       </g>
</svg>