<?xml version="1.0" encoding="UTF-8"?>
<!--Generator: Apple Native CoreSVG 326-->
<!DOCTYPE svg PUBLIC "-//W3C//DTD SVG 1.1//EN" "http://www.w3.org/Graphics/SVG/1.1/DTD/svg11.dtd">
<svg version="1.1" xmlns="http://www.w3.org/2000/svg" xmlns:xlink="http://www.w3.org/1999/xlink"
       viewBox="0 0 24.6449 23.5952">
       <g>
              <rect height="23.5952" opacity="0" width="24.6449" x="0" y="0" />
              <path d="M1.94045 20.4256L22.5744 20.4256L22.5744 19.4355C22.5744 18.8957 22.2379 18.5718 21.7032 18.5718L21.3244 18.5718L21.3244 7.89293L22.1092 7.89293C22.9074 7.89293 23.3841 7.28595 23.3841 6.69158C23.3841 6.25686 23.136 5.85374 22.6254 5.55167L13.7186 0.416404C13.2683 0.154491 12.7462 0 12.2563 0C11.7664 0 11.242 0.154491 10.7963 0.416404L1.88944 5.55167C1.37659 5.85374 1.13081 6.25686 1.13081 6.69158C1.13081 7.28595 1.60745 7.89293 2.41314 7.89293L3.19045 7.89293L3.19045 18.5718L2.81396 18.5718C2.27927 18.5718 1.94045 18.8957 1.94045 19.4355ZM5.29922 18.5718L5.29922 6.39673L12.047 2.62732C12.1194 2.5888 12.1965 2.57212 12.2563 2.57212C12.331 2.57212 12.3931 2.5888 12.4679 2.62732L19.2157 6.39673L19.2157 18.5718ZM1.20651 23.5854L23.0673 23.5854C23.7134 23.5854 24.2836 23.0525 24.2836 22.3766C24.2836 21.7231 23.7134 21.1701 23.0673 21.1701L1.20651 21.1701C0.553002 21.1701 0 21.7231 0 22.3766C0 23.045 0.553002 23.5854 1.20651 23.5854Z"
                     fill="currentColor" fill-opacity="0.85" />
              <path d="M10.4025 15.8377C11.0226 15.8377 11.4113 15.4512 11.4113 14.8162L11.4113 13.5321L12.7583 13.5321C14.6291 13.5321 15.7809 12.2082 15.7809 10.4022C15.7809 8.66624 14.6692 7.3762 12.8823 7.3762L10.4719 7.3762C9.78231 7.3762 9.3861 7.77472 9.3861 8.45455L9.3861 14.8162C9.3861 15.4512 9.78231 15.8377 10.4025 15.8377ZM11.4113 12.0827L11.4113 8.85549L12.3431 8.85549C13.2263 8.85549 13.7436 9.43111 13.7436 10.4097C13.7436 11.4209 13.2378 12.0827 12.3184 12.0827ZM8.59321 10.3982C8.59321 10.5539 8.70985 10.6607 8.85809 10.6607L16.307 10.6607C16.465 10.6607 16.5817 10.5515 16.5817 10.3982C16.5817 10.2574 16.465 10.1407 16.307 10.1407L8.85809 10.1407C8.70985 10.1407 8.59321 10.2574 8.59321 10.3982Z"
                     fill="currentColor" fill-opacity="0.85" />
       </g>
</svg>