<?xml version="1.0" encoding="UTF-8"?>
<!--Generator: Apple Native CoreSVG 326-->
<!DOCTYPE svg PUBLIC "-//W3C//DTD SVG 1.1//EN" "http://www.w3.org/Graphics/SVG/1.1/DTD/svg11.dtd">
<svg version="1.1" xmlns="http://www.w3.org/2000/svg" xmlns:xlink="http://www.w3.org/1999/xlink"
       viewBox="0 0 25.2371 20.7338">
       <g>
              <rect height="20.7338" opacity="0" width="25.2371" x="0" y="0" />
              <path d="M24.8758 12.3846C24.8758 5.93383 19.9627 0.631336 13.6785 0.00415235C13.2541-0.040066 12.9302 0.274072 12.9302 0.698483L12.9302 4.13058C12.9302 4.48379 13.1829 4.74109 13.5286 4.79046C17.2465 5.32405 20.1044 8.51741 20.1044 12.3846C20.1044 14.1648 19.4989 15.8157 18.4419 17.1359C18.2306 17.4138 18.2329 17.7555 18.4764 18.0012L20.9223 20.4523C21.2117 20.7567 21.6557 20.7417 21.9256 20.4328C23.7735 18.2551 24.8758 15.452 24.8758 12.3846Z"
                     fill="currentColor" fill-opacity="0.85" />
              <path d="M0 12.3846C0 15.4543 1.1023 18.2574 2.94273 20.4276C3.21265 20.7366 3.65429 20.7417 3.9535 20.4448L6.39194 17.9938C6.63541 17.748 6.63772 17.4063 6.42639 17.1284C5.38201 15.8157 4.77139 14.1648 4.77139 12.3846C4.77139 8.51741 7.63678 5.32405 11.3472 4.79046C11.7004 4.74109 11.9456 4.48379 11.9456 4.13058L11.9456 0.698483C11.9456 0.274072 11.6217-0.040066 11.1973 0.00415235C4.92054 0.631336 0 5.93383 0 12.3846Z"
                     fill="currentColor" fill-opacity="0.85" />
              <path d="M10.5783 16.606C11.191 16.606 11.5797 16.2196 11.5797 15.5845L11.5797 14.3005L12.9267 14.3005C14.8072 14.3005 15.9516 12.9765 15.9516 11.1706C15.9516 9.43459 14.8399 8.14456 13.0581 8.14456L10.6403 8.14456C9.95299 8.14456 9.56194 8.54307 9.56194 9.22521L9.56194 15.5845C9.56194 16.2196 9.95069 16.606 10.5783 16.606ZM11.5797 12.851L11.5797 9.62384L12.5115 9.62384C13.397 9.62384 13.9143 10.1995 13.9143 11.1855C13.9143 12.1967 13.4137 12.851 12.4942 12.851ZM8.76159 11.1665C8.76159 11.3222 8.87823 11.4291 9.03393 11.4291L16.4852 11.4291C16.6334 11.4291 16.7501 11.3199 16.7501 11.1665C16.7501 11.0257 16.6334 10.9091 16.4852 10.9091L9.03393 10.9091C8.87823 10.9091 8.76159 11.0257 8.76159 11.1665Z"
                     fill="currentColor" fill-opacity="0.85" />
       </g>
</svg>