<?xml version="1.0" encoding="UTF-8"?>
<!--Generator: Apple Native CoreSVG 326-->
<!DOCTYPE svg PUBLIC "-//W3C//DTD SVG 1.1//EN" "http://www.w3.org/Graphics/SVG/1.1/DTD/svg11.dtd">
<svg version="1.1" xmlns="http://www.w3.org/2000/svg" xmlns:xlink="http://www.w3.org/1999/xlink"
       viewBox="0 0 16.9894 17.6926">
       <g>
              <rect height="17.6926" opacity="0" width="16.9894" x="0" y="0" />
              <path d="M3.75037 17.6707C5.01577 17.6707 5.82135 16.8479 5.82135 15.5653L5.82135 12.7989L8.65708 12.7989C12.5571 12.7989 14.964 10.0172 14.964 6.30271C14.964 2.85096 12.7481 0 8.91535 0L3.8772 0C2.47289 0 1.6547 0.81534 1.6547 2.22942L1.6547 15.5653C1.6547 16.8479 2.47519 17.6707 3.75037 17.6707ZM5.82135 9.80608L5.82135 3.03984L7.79752 3.03984C9.71164 3.03984 10.7537 4.35711 10.776 6.31763C10.776 8.37636 9.75695 9.80608 7.76768 9.80608ZM0 6.29228C0 6.60369 0.243595 6.83752 0.557308 6.83752L16.0633 6.83752C16.3822 6.83752 16.6281 6.60138 16.6281 6.29228C16.6281 5.97572 16.3822 5.74474 16.0633 5.74474L0.557308 5.74474C0.243595 5.74474 0 5.97572 0 6.29228Z"
                     fill="currentColor" fill-opacity="0.85" />
       </g>
</svg>