<?xml version="1.0" encoding="UTF-8"?>
<!--Generator: Apple Native CoreSVG 326-->
<!DOCTYPE svg PUBLIC "-//W3C//DTD SVG 1.1//EN" "http://www.w3.org/Graphics/SVG/1.1/DTD/svg11.dtd">
<svg version="1.1" xmlns="http://www.w3.org/2000/svg" xmlns:xlink="http://www.w3.org/1999/xlink"
       viewBox="0 0 19.3993 19.0529">
       <g>
              <rect height="19.0529" opacity="0" width="19.3993" x="0" y="0" />
              <path d="M19.0379 3.63912L19.0379 15.4011C19.0379 17.7262 17.7164 19.0379 15.3896 19.0379L3.64834 19.0379C1.32382 19.0379 0 17.7262 0 15.4011L0 3.63912C0 1.32151 1.32382 0 3.64834 0L15.3896 0C17.7164 0 19.0379 1.32151 19.0379 3.63912ZM7.67627 5.06029C6.93729 5.06029 6.51871 5.48119 6.51871 6.22016L6.51871 8.01485L5.95624 8.01485C5.79077 8.01485 5.66437 8.14126 5.66437 8.28204C5.66437 8.44751 5.79077 8.57161 5.95624 8.57161L6.51871 8.57161L6.51871 12.978C6.51871 13.6647 6.93729 14.0833 7.60682 14.0833C8.27403 14.0833 8.69493 13.6647 8.69493 12.978L8.69493 11.6233L10.1154 11.6233C12.0217 11.6233 13.2258 10.3522 13.3452 8.57161L13.911 8.57161C14.0788 8.57161 14.2052 8.44521 14.2052 8.28204C14.2052 8.14126 14.0788 8.01485 13.911 8.01485L13.3406 8.01485C13.2268 6.30314 12.0699 5.06029 10.2543 5.06029ZM9.6485 10.0797L8.69493 10.0797L8.69493 8.57161L11.1472 8.57161C11.0621 9.49377 10.5415 10.0797 9.6485 10.0797ZM11.1426 8.01485L8.69493 8.01485L8.69493 6.64348L9.67549 6.64348C10.523 6.64348 11.0483 7.14383 11.1426 8.01485Z"
                     fill="currentColor" fill-opacity="0.85" />
       </g>
</svg>