<?xml version="1.0" encoding="UTF-8"?>
<!--Generator: Apple Native CoreSVG 326-->
<!DOCTYPE svg PUBLIC "-//W3C//DTD SVG 1.1//EN" "http://www.w3.org/Graphics/SVG/1.1/DTD/svg11.dtd">
<svg version="1.1" xmlns="http://www.w3.org/2000/svg" xmlns:xlink="http://www.w3.org/1999/xlink"
       viewBox="0 0 24.6449 23.5952">
       <g>
              <rect height="23.5952" opacity="0" width="24.6449" x="0" y="0" />
              <path d="M1.94045 20.4256L22.5744 20.4256L22.5744 19.4355C22.5744 18.8957 22.2379 18.5718 21.7032 18.5718L21.3244 18.5718L21.3244 7.89293L22.1092 7.89293C22.9074 7.89293 23.3841 7.28595 23.3841 6.69158C23.3841 6.25686 23.136 5.85374 22.6254 5.55167L13.7186 0.416404C13.2683 0.154491 12.7462 0 12.2563 0C11.7664 0 11.242 0.154491 10.7963 0.416404L1.88944 5.55167C1.37659 5.85374 1.13081 6.25686 1.13081 6.69158C1.13081 7.28595 1.60745 7.89293 2.41314 7.89293L3.19045 7.89293L3.19045 18.5718L2.81396 18.5718C2.27927 18.5718 1.94045 18.8957 1.94045 19.4355ZM5.29922 18.5718L5.29922 6.39673L12.047 2.62732C12.1194 2.5888 12.1965 2.57212 12.2563 2.57212C12.331 2.57212 12.3931 2.5888 12.4679 2.62732L19.2157 6.39673L19.2157 18.5718ZM1.20651 23.5854L23.0673 23.5854C23.7134 23.5854 24.2836 23.0525 24.2836 22.3766C24.2836 21.7231 23.7134 21.1701 23.0673 21.1701L1.20651 21.1701C0.553002 21.1701 0 21.7231 0 22.3766C0 23.045 0.553002 23.5854 1.20651 23.5854Z"
                     fill="currentColor" fill-opacity="0.85" />
              <path d="M10.4421 15.8377C11.0571 15.8377 11.4533 15.4489 11.4533 14.8138L11.4533 13.6001L12.7904 13.6001C14.6871 13.6001 15.8251 12.2364 15.8251 10.4373C15.8251 8.74163 14.7532 7.3739 12.9219 7.3739L10.5041 7.3739C9.8466 7.3739 9.42802 7.79479 9.42802 8.45224L9.42802 14.8138C9.42802 15.4489 9.81676 15.8377 10.4421 15.8377ZM11.4533 12.1529L11.4533 8.85318L12.3798 8.85318C13.282 8.85318 13.7901 9.46162 13.7901 10.4523C13.7901 11.4635 13.2867 12.1529 12.3649 12.1529ZM8.57082 9.82483C8.57082 9.98053 8.68747 10.0949 8.84317 10.0949L16.3042 10.0949C16.4599 10.0949 16.5691 9.97823 16.5691 9.82483C16.5691 9.68635 16.4599 9.56971 16.3042 9.56971L8.84317 9.56971C8.68747 9.56971 8.57082 9.68635 8.57082 9.82483ZM8.57082 11.1216C8.57082 11.2796 8.68747 11.3865 8.84317 11.3865L16.3042 11.3865C16.4599 11.3865 16.5691 11.2698 16.5691 11.1216C16.5691 10.9682 16.4599 10.859 16.3042 10.859L8.84317 10.859C8.68747 10.859 8.57082 10.9682 8.57082 11.1216Z"
                     fill="currentColor" fill-opacity="0.85" />
       </g>
</svg>