<?xml version="1.0" encoding="UTF-8"?>
<!--Generator: Apple Native CoreSVG 326-->
<!DOCTYPE svg PUBLIC "-//W3C//DTD SVG 1.1//EN" "http://www.w3.org/Graphics/SVG/1.1/DTD/svg11.dtd">
<svg version="1.1" xmlns="http://www.w3.org/2000/svg" xmlns:xlink="http://www.w3.org/1999/xlink"
       viewBox="0 0 19.3993 19.0529">
       <g>
              <rect height="19.0529" opacity="0" width="19.3993" x="0" y="0" />
              <path d="M3.64834 19.0379L15.3896 19.0379C17.7164 19.0379 19.0379 17.7262 19.0379 15.4011L19.0379 3.63912C19.0379 1.32151 17.7164 0 15.3896 0L3.64834 0C1.32382 0 0 1.32151 0 3.63912L0 15.4011C0 17.7262 1.32382 19.0379 3.64834 19.0379ZM4.05583 16.0183C3.37024 16.0183 3.01964 15.7096 3.01964 14.9775L3.01964 4.07021C3.01964 3.33809 3.37024 3.0271 4.05583 3.0271L14.9821 3.0271C15.6654 3.0271 16.0183 3.33809 16.0183 4.07021L16.0183 14.9775C16.0183 15.7096 15.6654 16.0183 14.9821 16.0183Z"
                     fill="currentColor" fill-opacity="0.85" />
              <path d="M7.70217 13.8002C8.31486 13.8002 8.71106 13.4063 8.71106 12.7764L8.71106 11.5649L10.0557 11.5649C11.9524 11.5649 13.0829 10.199 13.0829 8.3999C13.0829 6.70419 12.011 5.33877 10.1797 5.33877L7.76185 5.33877C7.1044 5.33877 6.68812 5.75735 6.68812 6.41711L6.68812 12.7764C6.68812 13.4063 7.08202 13.8002 7.70217 13.8002ZM8.71106 10.1178L8.71106 6.81574L9.6451 6.81574C10.5473 6.81574 11.0479 7.42649 11.0479 8.40736C11.0479 9.42092 10.5519 10.1178 9.62272 10.1178ZM5.83608 7.78739C5.83608 7.9454 5.95273 8.05228 6.10097 8.05228L13.562 8.05228C13.7177 8.05228 13.8343 7.94309 13.8343 7.78739C13.8343 7.64891 13.7177 7.53227 13.562 7.53227L6.10097 7.53227C5.95273 7.53227 5.83608 7.64891 5.83608 7.78739ZM5.83608 9.08646C5.83608 9.2347 5.95273 9.34904 6.10097 9.34904L13.562 9.34904C13.7177 9.34904 13.8343 9.2324 13.8343 9.08646C13.8343 8.93306 13.7177 8.81642 13.562 8.81642L6.10097 8.81642C5.95273 8.81642 5.83608 8.93306 5.83608 9.08646Z"
                     fill="currentColor" fill-opacity="0.85" />
       </g>
</svg>