<?xml version="1.0" encoding="UTF-8"?>
<!--Generator: Apple Native CoreSVG 326-->
<!DOCTYPE svg PUBLIC "-//W3C//DTD SVG 1.1//EN" "http://www.w3.org/Graphics/SVG/1.1/DTD/svg11.dtd">
<svg version="1.1" xmlns="http://www.w3.org/2000/svg" xmlns:xlink="http://www.w3.org/1999/xlink"
       viewBox="0 0 16.983 17.6926">
       <g>
              <rect height="17.6926" opacity="0" width="16.983" x="0" y="0" />
              <path d="M3.8479 17.6707C5.16553 17.6707 5.92634 16.8927 5.92634 15.5653L5.92634 12.9589L8.76207 12.9589C12.6925 12.9589 15.0764 10.0974 15.0764 6.37526C15.0764 2.71745 12.6845 0 9.02035 0L3.97473 0C2.5928 0 1.75969 0.740733 1.75969 2.22942L1.75969 15.5653C1.75969 16.8927 2.52796 17.6707 3.8479 17.6707ZM5.92634 9.96379L5.92634 3.03984L7.89736 3.03984C9.84484 3.03984 10.8679 4.41582 10.8828 6.39764C10.8828 8.46328 9.885 9.96379 7.86752 9.96379ZM0 5.10318C0 5.42205 0.243595 5.64842 0.555003 5.64842L16.0592 5.64842C16.3781 5.64842 16.6217 5.41974 16.6217 5.10318C16.6217 4.79407 16.3781 4.55794 16.0592 4.55794L0.555003 4.55794C0.243595 4.55794 0 4.79407 0 5.10318ZM0 7.80061C0 8.11948 0.243595 8.35331 0.555003 8.35331L16.0592 8.35331C16.3781 8.35331 16.6217 8.11718 16.6217 7.80061C16.6217 7.49151 16.3781 7.25538 16.0592 7.25538L0.555003 7.25538C0.243595 7.25538 0 7.49151 0 7.80061Z"
                     fill="currentColor" fill-opacity="0.85" />
       </g>
</svg>