<?xml version="1.0" encoding="UTF-8"?>
<!--Generator: Apple Native CoreSVG 326-->
<!DOCTYPE svg PUBLIC "-//W3C//DTD SVG 1.1//EN" "http://www.w3.org/Graphics/SVG/1.1/DTD/svg11.dtd">
<svg version="1.1" xmlns="http://www.w3.org/2000/svg" xmlns:xlink="http://www.w3.org/1999/xlink"
       viewBox="0 0 24.6449 23.5952">
       <g>
              <rect height="23.5952" opacity="0" width="24.6449" x="0" y="0" />
              <path d="M13.7186 0.416404L22.6254 5.55167C23.136 5.85374 23.3841 6.25686 23.3841 6.69158C23.3841 7.28595 22.9074 7.89293 22.1092 7.89293L21.3244 7.89293L21.3244 19.392L21.7032 19.392C22.2379 19.392 22.5744 19.7159 22.5744 20.2632L22.5744 21.1701L23.0673 21.1701C23.7134 21.1701 24.2836 21.7231 24.2836 22.3766C24.2836 23.0525 23.7134 23.5854 23.0673 23.5854L1.20651 23.5854C0.553002 23.5854 0 23.045 0 22.3766C0 21.7231 0.553002 21.1701 1.20651 21.1701L1.94045 21.1701L1.94045 20.2632C1.94045 19.7159 2.27927 19.392 2.81396 19.392L3.19045 19.392L3.19045 7.89293L2.41314 7.89293C1.60745 7.89293 1.13081 7.28595 1.13081 6.69158C1.13081 6.25686 1.37659 5.85374 1.88944 5.55167L10.7963 0.416404C11.242 0.154491 11.7664 0 12.2563 0C12.7462 0 13.2683 0.154491 13.7186 0.416404ZM10.3685 8.48682C9.66172 8.48682 9.21329 8.93755 9.21329 9.64668L9.21329 10.8382L8.58653 10.8382C8.42106 10.8382 8.29466 10.9623 8.29466 11.1106C8.29466 11.276 8.42106 11.3904 8.58653 11.3904L9.21329 11.3904L9.21329 12.2085L8.58653 12.2085C8.42106 12.2085 8.29466 12.3326 8.29466 12.4883C8.29466 12.6538 8.42106 12.7681 8.58653 12.7681L9.21329 12.7681L9.21329 16.412C9.21329 17.0964 9.63188 17.5173 10.2991 17.5173C10.9612 17.5173 11.3821 17.0964 11.3821 16.412L11.3821 15.1321L12.8151 15.1321C14.4653 15.1321 15.5606 14.1718 15.914 12.7681L16.5533 12.7681C16.7188 12.7681 16.8452 12.6417 16.8452 12.4883C16.8452 12.3326 16.7188 12.2085 16.5533 12.2085L16.0203 12.2085C16.0324 12.0672 16.0421 11.9184 16.0421 11.7575C16.0421 11.6334 16.0398 11.5145 16.0278 11.3904L16.5533 11.3904C16.7188 11.3904 16.8452 11.2714 16.8452 11.1106C16.8452 10.9623 16.7188 10.8382 16.5533 10.8382L15.9335 10.8382C15.61 9.47642 14.5514 8.48682 12.954 8.48682ZM12.35 13.5937L11.3821 13.5937L11.3821 12.7681L13.6671 12.7681C13.4269 13.2817 12.9809 13.5937 12.35 13.5937ZM13.8561 11.765C13.8561 11.9258 13.8441 12.0672 13.832 12.2085L11.3821 12.2085L11.3821 11.3904L13.832 11.3904C13.8538 11.5145 13.8561 11.646 13.8561 11.765ZM13.6694 10.8382L11.3821 10.8382L11.3821 10.0775L12.3724 10.0775C12.9884 10.0775 13.4367 10.3498 13.6694 10.8382Z"
                     fill="currentColor" fill-opacity="0.85" />
       </g>
</svg>