<?xml version="1.0" encoding="UTF-8"?>
<!--Generator: Apple Native CoreSVG 326-->
<!DOCTYPE svg PUBLIC "-//W3C//DTD SVG 1.1//EN" "http://www.w3.org/Graphics/SVG/1.1/DTD/svg11.dtd">
<svg version="1.1" xmlns="http://www.w3.org/2000/svg" xmlns:xlink="http://www.w3.org/1999/xlink"
       viewBox="0 0 19.3993 19.0529">
       <g>
              <rect height="19.0529" opacity="0" width="19.3993" x="0" y="0" />
              <path d="M19.0379 3.63912L19.0379 15.4011C19.0379 17.7262 17.7164 19.0379 15.3896 19.0379L3.64834 19.0379C1.32382 19.0379 0 17.7262 0 15.4011L0 3.63912C0 1.32151 1.32382 0 3.64834 0L15.3896 0C17.7164 0 19.0379 1.32151 19.0379 3.63912ZM7.71588 5.05799C7.00905 5.05799 6.57039 5.50126 6.57039 6.21039L6.57039 7.40192L5.94132 7.40192C5.77585 7.40192 5.64945 7.52602 5.64945 7.68173C5.64945 7.8472 5.77585 7.95638 5.94132 7.95638L6.57039 7.95638L6.57039 8.7722L5.94132 8.7722C5.77585 8.7722 5.64945 8.8963 5.64945 9.05201C5.64945 9.21748 5.77585 9.33928 5.94132 9.33928L6.57039 9.33928L6.57039 12.9757C6.57039 13.6624 6.97921 14.081 7.64873 14.081C8.30849 14.081 8.72938 13.6624 8.72938 12.9757L8.72938 11.7033L10.1624 11.7033C11.8126 11.7033 12.908 10.7355 13.2636 9.33928L13.9007 9.33928C14.0661 9.33928 14.1925 9.21287 14.1925 9.05201C14.1925 8.8963 14.0661 8.7722 13.9007 8.7722L13.3676 8.7722C13.3797 8.63087 13.3969 8.48208 13.3969 8.32122C13.3969 8.20458 13.3872 8.07818 13.3751 7.95638L13.9007 7.95638C14.0661 7.95638 14.1925 7.83743 14.1925 7.68173C14.1925 7.52602 14.0661 7.40192 13.9007 7.40192L13.2808 7.40192C12.9573 6.04013 11.8987 5.05799 10.3013 5.05799ZM9.69733 10.1597L8.72938 10.1597L8.72938 9.33928L11.0144 9.33928C10.7742 9.84775 10.3283 10.1597 9.69733 10.1597ZM11.2035 8.33615C11.2035 8.48954 11.1937 8.63087 11.1793 8.7722L8.72938 8.7722L8.72938 7.95638L11.1793 7.95638C11.2012 8.07818 11.2035 8.20974 11.2035 8.33615ZM11.0167 7.40192L8.72938 7.40192L8.72938 6.64117L9.71971 6.64117C10.3357 6.64117 10.7914 6.91352 11.0167 7.40192Z"
                     fill="currentColor" fill-opacity="0.85" />
       </g>
</svg>