<?xml version="1.0" encoding="UTF-8"?>
<!--Generator: Apple Native CoreSVG 326-->
<!DOCTYPE svg PUBLIC "-//W3C//DTD SVG 1.1//EN" "http://www.w3.org/Graphics/SVG/1.1/DTD/svg11.dtd">
<svg version="1.1" xmlns="http://www.w3.org/2000/svg" xmlns:xlink="http://www.w3.org/1999/xlink"
       viewBox="0 0 22.6374 22.2784">
       <g>
              <rect height="22.2784" opacity="0" width="22.6374" x="0" y="0" />
              <path d="M11.1343 22.2687C17.2722 22.2687 22.2761 17.2722 22.2761 11.1343C22.2761 4.99648 17.2722 0 11.1343 0C4.99648 0 0 4.99648 0 11.1343C0 17.2722 4.99648 22.2687 11.1343 22.2687ZM11.1343 18.2927C7.17804 18.2927 3.97601 15.0906 3.97601 11.1343C3.97601 7.17573 7.17804 3.97601 11.1343 3.97601C15.0929 3.97601 18.3001 7.17573 18.3001 11.1343C18.3001 15.0906 15.0929 18.2927 11.1343 18.2927Z"
                     fill="currentColor" fill-opacity="0.85" />
              <path d="M9.31265 15.413C9.93279 15.413 10.3215 15.0191 10.3215 14.3892L10.3215 13.1777L11.6662 13.1777C13.5629 13.1777 14.6934 11.8117 14.6934 10.0127C14.6934 8.31698 13.6215 6.95155 11.7976 6.95155L9.37979 6.95155C8.71488 6.95155 8.30606 7.37014 8.30606 8.02989L8.30606 14.3892C8.30606 15.0191 8.6925 15.413 9.31265 15.413ZM10.3215 11.7306L10.3215 8.42853L11.2556 8.42853C12.1578 8.42853 12.6584 9.03927 12.6584 10.0201C12.6584 11.0337 12.1624 11.7306 11.2407 11.7306ZM7.44656 9.40017C7.44656 9.55818 7.5632 9.66506 7.71145 9.66506L15.1799 9.66506C15.3282 9.66506 15.4448 9.55588 15.4448 9.40017C15.4448 9.2617 15.3282 9.14505 15.1799 9.14505L7.71145 9.14505C7.5632 9.14505 7.44656 9.2617 7.44656 9.40017ZM7.44656 10.6992C7.44656 10.8475 7.5632 10.9618 7.71145 10.9618L15.1799 10.9618C15.3282 10.9618 15.4448 10.8452 15.4448 10.6992C15.4448 10.5458 15.3282 10.4292 15.1799 10.4292L7.71145 10.4292C7.5632 10.4292 7.44656 10.5458 7.44656 10.6992Z"
                     fill="currentColor" fill-opacity="0.85" />
       </g>
</svg>