<?xml version="1.0" encoding="UTF-8"?>
<!--Generator: Apple Native CoreSVG 326-->
<!DOCTYPE svg PUBLIC "-//W3C//DTD SVG 1.1//EN" "http://www.w3.org/Graphics/SVG/1.1/DTD/svg11.dtd">
<svg version="1.1" xmlns="http://www.w3.org/2000/svg" xmlns:xlink="http://www.w3.org/1999/xlink"
       viewBox="0 0 21.365 21.006">
       <g>
              <rect height="21.006" opacity="0" width="21.365" x="0" y="0" />
              <path d="M21.0037 10.5079C21.0037 16.3043 16.302 21.006 10.4981 21.006C4.70394 21.006 0 16.3043 0 10.5079C0 4.7137 4.70394 0.00976562 10.4981 0.00976562C16.302 0.00976562 21.0037 4.7137 21.0037 10.5079ZM5.46924 6.36179C5.00279 6.79609 4.76611 7.44347 4.76611 8.14429C4.76611 9.7487 5.99428 11.6949 7.64006 13.3482C9.2933 15.0014 11.286 16.2663 12.8807 16.2663C13.6378 16.2663 14.28 15.9659 14.7172 15.4874C15.1296 15.0307 15.3088 14.6688 15.3088 14.3638C15.3088 14.1145 15.1623 13.9094 14.7987 13.6457L13.4189 12.6566C13.0845 12.4101 12.9231 12.371 12.7031 12.371C12.5446 12.371 12.3929 12.3929 12.1051 12.5566L11.2113 13.0472C11.1188 13.1035 11.0625 13.1155 10.9769 13.1155C10.8793 13.1155 10.8086 13.0937 10.6937 13.0397C10.2715 12.8421 9.67064 12.3757 9.13353 11.8483C8.60334 11.3233 8.19834 10.7913 7.98349 10.3439C7.94904 10.268 7.90998 10.1928 7.90998 10.1049C7.90998 10.0314 7.94158 9.94808 7.99556 9.87741L8.49822 8.98874C8.63955 8.73714 8.68607 8.60042 8.68607 8.40742C8.68607 8.19027 8.63263 7.95589 8.40056 7.65316L7.45045 6.32449C7.18677 5.96085 6.93924 5.75347 6.62904 5.75347C6.26541 5.75347 5.80873 6.04413 5.46924 6.36179ZM11.5265 5.89365C11.1514 5.89365 10.8775 6.19978 10.8821 6.59204C10.8844 6.97223 11.1589 7.25192 11.5339 7.25192L12.2636 7.25192L13.0993 7.1761L12.5977 7.59911L10.8426 9.35413C10.6933 9.50117 10.6169 9.68034 10.6169 9.88136C10.6169 10.2639 10.9162 10.5361 11.3159 10.5361C11.4997 10.5361 11.6811 10.4672 11.8063 10.3397L13.5637 8.58004L13.9993 8.09328L13.916 8.894L13.916 9.59209C13.916 9.95736 14.2106 10.2417 14.5834 10.2486C14.9779 10.2509 15.2817 9.97689 15.2817 9.59955L15.2817 6.81071C15.2817 6.23302 14.9349 5.89365 14.3572 5.89365Z"
                     fill="currentColor" fill-opacity="0.85" />
       </g>
</svg>