<?xml version="1.0" encoding="UTF-8"?>
<!--Generator: Apple Native CoreSVG 326-->
<!DOCTYPE svg PUBLIC "-//W3C//DTD SVG 1.1//EN" "http://www.w3.org/Graphics/SVG/1.1/DTD/svg11.dtd">
<svg version="1.1" xmlns="http://www.w3.org/2000/svg" xmlns:xlink="http://www.w3.org/1999/xlink"
       viewBox="0 0 21.365 21.006">
       <g>
              <rect height="21.006" opacity="0" width="21.365" x="0" y="0" />
              <path d="M10.4981 20.9962C16.302 20.9962 21.0037 16.2946 21.0037 10.4981C21.0037 4.70163 16.302 0 10.4981 0C4.70163 0 0 4.70163 0 10.4981C0 16.2946 4.70163 20.9962 10.4981 20.9962ZM10.4981 17.9484C6.37829 17.9484 3.04785 14.6179 3.04785 10.4981C3.04785 6.37829 6.37829 3.04785 10.4981 3.04785C14.6179 3.04785 17.9558 6.37829 17.9558 10.4981C17.9558 14.6179 14.6179 17.9484 10.4981 17.9484Z"
                     fill="currentColor" fill-opacity="0.85" />
              <path d="M10.5004 8.05725C8.30655 8.05725 6.19541 8.54553 5.13381 9.60713C4.66275 10.0805 4.40654 10.6613 4.42607 11.269C4.42838 11.701 4.54326 12.1842 4.78971 12.4306C4.99479 12.6282 5.29521 12.6632 5.71975 12.5926L7.2208 12.3484C7.57467 12.2801 7.76483 12.1801 7.90385 12.0336C8.03826 11.9044 8.0894 11.7797 8.16522 11.5287L8.42143 10.5992C8.44326 10.5136 8.47541 10.4527 8.52424 10.3912C8.57768 10.3378 8.66326 10.3137 8.7144 10.2844C9.16647 10.1402 9.78576 10.0523 10.4837 10.0523C11.1915 10.0523 11.9044 10.1476 12.3088 10.2964C12.4214 10.3378 12.4874 10.3671 12.5506 10.428C12.5995 10.4917 12.6339 10.5406 12.6655 10.6331L12.9315 11.5482C13.0217 11.8555 13.0901 11.963 13.2073 12.075C13.344 12.2192 13.4807 12.295 13.8587 12.3559L15.4281 12.6121C15.8452 12.6753 16.087 12.6512 16.2456 12.4777C16.453 12.2778 16.5673 11.9107 16.6041 11.3449C16.6333 10.7296 16.4064 10.1075 15.9061 9.60944C14.837 8.55014 12.6845 8.05725 10.5004 8.05725Z"
                     fill="currentColor" fill-opacity="0.85" />
       </g>
</svg>