<?xml version="1.0" encoding="UTF-8"?>
<!--Generator: Apple Native CoreSVG 326-->
<!DOCTYPE svg PUBLIC "-//W3C//DTD SVG 1.1//EN" "http://www.w3.org/Graphics/SVG/1.1/DTD/svg11.dtd">
<svg version="1.1" xmlns="http://www.w3.org/2000/svg" xmlns:xlink="http://www.w3.org/1999/xlink"
       viewBox="0 0 19.8252 24.035">
       <g>
              <rect height="24.035" opacity="0" width="19.8252" x="0" y="0" />
              <path d="M0 12.0126C0 16.1566 0.877572 20.4678 3.04554 22.622C3.95538 23.5295 5.09499 24.0253 6.36167 24.0253C7.66298 24.0253 8.9865 23.6078 9.00955 22.2518C9.02799 22.0134 8.99869 21.7698 8.95502 21.4928L8.46158 18.4851C8.29557 17.4144 7.89463 16.9084 6.85553 16.6223L5.03233 16.1214C4.69053 16.0312 4.51882 15.859 4.39241 15.5062C4.10175 14.6205 3.93057 13.3687 3.92311 12.0126C3.93057 10.6491 4.10175 9.40478 4.39241 8.51908C4.51882 8.15885 4.69053 7.99405 5.03233 7.90385L6.85553 7.40295C7.89463 7.10713 8.29557 6.60338 8.46158 5.54014L8.95502 2.53245C8.99869 2.24804 9.02799 2.00444 9.00955 1.77346C8.9865 0.415191 7.66298 0 6.36167 0C5.09499 0 3.95538 0.495742 3.04554 1.40097C0.877572 3.54996 0 7.86867 0 12.0126Z"
                     fill="currentColor" fill-opacity="0.85" />
              <path d="M9.74082 13.2282L14.2934 13.2282L15.6131 13.138L14.357 14.1643L13.4883 15.0554C13.2845 15.2592 13.1415 15.5791 13.1415 15.8961C13.1415 16.565 13.6261 17.0399 14.298 17.0399C14.6276 17.0399 14.9027 16.9245 15.114 16.7206L18.6875 13.1569C19.04 12.8044 19.2174 12.4099 19.2174 12.0126C19.2174 11.6079 19.04 11.2186 18.6875 10.8586L15.114 7.30463C14.9027 7.0933 14.6276 6.98533 14.298 6.98533C13.6261 6.98533 13.1415 7.46021 13.1415 8.12688C13.1415 8.44618 13.2845 8.76371 13.4883 8.96758L14.357 9.86098L15.6131 10.8849L14.2934 10.7873L9.74082 10.7873C9.05516 10.7873 8.54529 11.3305 8.54529 12.0126C8.54529 12.6873 9.05516 13.2282 9.74082 13.2282Z"
                     fill="currentColor" fill-opacity="0.85" />
       </g>
</svg>