<?xml version="1.0" encoding="UTF-8"?>
<!--Generator: Apple Native CoreSVG 326-->
<!DOCTYPE svg PUBLIC "-//W3C//DTD SVG 1.1//EN" "http://www.w3.org/Graphics/SVG/1.1/DTD/svg11.dtd">
<svg version="1.1" xmlns="http://www.w3.org/2000/svg" xmlns:xlink="http://www.w3.org/1999/xlink"
       viewBox="0 0 20.8781 20.3555">
       <g>
              <rect height="20.3555" opacity="0" width="20.8781" x="0" y="0" />
              <path d="M15.269 20.3406C16.998 20.3406 18.2628 19.7548 19.4655 18.5095C19.5287 18.4365 19.5971 18.3733 19.6654 18.2929C20.1842 17.6782 20.5122 16.9092 20.5122 16.2664C20.5122 15.4514 20.164 14.7528 19.28 14.1422L16.6124 12.2909C15.6143 11.6041 14.7631 11.5822 13.8256 12.0762L12.5186 12.7587C12.0936 12.985 11.7651 13.1118 11.2506 12.6973C10.7463 12.297 9.92345 11.592 9.3454 11.0116C8.84426 10.5082 8.22606 9.8135 7.82172 9.22702C7.59032 8.89796 7.60985 8.52589 7.85793 8.0757L8.61747 6.72113C9.09532 5.85454 9.08567 5.08415 8.61001 4.41832L6.2833 1.15248C5.75244 0.402711 4.95408 0.0023205 4.13389 1.55838e-05C3.46128-0.00228933 2.77429 0.251071 2.14237 0.769862C2.07917 0.8233 1.99874 0.893964 1.95792 0.934786C0.638041 2.20978 0 3.41489 0 5.59675C0 8.5837 1.46509 11.9867 5.00273 15.44C8.53807 18.8984 11.8493 20.3406 15.269 20.3406ZM15.219 18.3116C12.7363 18.3231 9.79656 16.991 6.5585 13.8298C3.31813 10.6641 2.07717 7.69157 2.09615 5.37809C2.10076 4.22926 2.49424 3.34859 3.15381 2.77176C3.24225 2.69309 3.34561 2.62187 3.43404 2.55066C3.65241 2.37883 3.90006 2.28687 4.12874 2.28687C4.40678 2.28687 4.66585 2.40922 4.86862 2.70964L6.46976 5.07778C6.70292 5.41891 6.68569 5.76058 6.45823 6.16207L5.59589 7.71711C5.23335 8.35824 5.20472 9.04972 5.65163 9.71772C6.20827 10.5517 6.94827 11.4716 7.93151 12.4376C9.21833 13.6797 10.2795 14.518 10.8317 14.8524C11.5243 15.2672 12.2457 15.3425 13.0322 14.9254L14.2573 14.2859C14.7702 14.0229 15.1676 13.9001 15.6069 14.185L17.7279 15.569C18.041 15.7694 18.1507 16.0308 18.1507 16.2939C18.1507 16.5226 18.0662 16.7703 17.8795 17.0035C17.806 17.092 17.737 17.1879 17.6561 17.2763C17.0815 17.9434 16.1986 18.307 15.219 18.3116Z"
                     fill="currentColor" fill-opacity="0.85" />
              <path d="M18.6119 0.716365C18.28 0.716365 17.982 0.834645 17.7535 1.0655L14.5965 4.2076L13.6992 5.22438L13.8629 3.61645L13.8629 2.36281C13.8629 1.72829 13.3633 1.2488 12.699 1.24419C12.0323 1.23958 11.5189 1.70876 11.5189 2.34043L11.5189 7.38525C11.5189 8.40786 12.0936 8.98488 13.1185 8.98488L18.2402 8.98488C18.8719 8.98488 19.3509 8.46633 19.3388 7.79735C19.3342 7.13299 18.8599 6.63342 18.2253 6.63342L16.9074 6.63342L15.23 6.80459L16.2887 5.91477L19.4434 2.75775C19.6915 2.50966 19.8219 2.19443 19.8219 1.83784C19.8219 1.19585 19.3131 0.716365 18.6119 0.716365Z"
                     fill="currentColor" fill-opacity="0.85" />
       </g>
</svg>