<?xml version="1.0" encoding="UTF-8"?>
<!--Generator: Apple Native CoreSVG 326-->
<!DOCTYPE svg PUBLIC "-//W3C//DTD SVG 1.1//EN" "http://www.w3.org/Graphics/SVG/1.1/DTD/svg11.dtd">
<svg version="1.1" xmlns="http://www.w3.org/2000/svg" xmlns:xlink="http://www.w3.org/1999/xlink"
       viewBox="0 0 21.365 21.006">
       <g>
              <rect height="21.006" opacity="0" width="21.365" x="0" y="0" />
              <path d="M21.0037 10.5079C21.0037 16.3043 16.302 21.006 10.4981 21.006C4.70394 21.006 0 16.3043 0 10.5079C0 4.7137 4.70394 0.00976562 10.4981 0.00976562C16.302 0.00976562 21.0037 4.7137 21.0037 10.5079ZM4.77612 9.65705C4.27807 10.1551 3.99717 10.7778 4.01671 11.4275C4.01901 11.8842 4.14366 12.4115 4.41249 12.6654C4.62733 12.8779 4.95245 12.9129 5.40167 12.8497L7.00377 12.5809C7.38233 12.5149 7.58225 12.4051 7.7385 12.2414C7.88038 12.1047 7.93151 11.9726 8.01479 11.7043L8.28077 10.718C8.31006 10.6203 8.34221 10.5594 8.39104 10.4905C8.44678 10.4371 8.53983 10.4129 8.59842 10.3837C9.07518 10.2297 9.7387 10.1269 10.4935 10.1269C11.2357 10.1292 11.998 10.2395 12.4369 10.3957C12.5494 10.4371 12.623 10.4664 12.6885 10.5347C12.7522 10.6008 12.7792 10.6473 12.8108 10.7496L13.094 11.7336C13.1842 12.0559 13.2675 12.1805 13.3944 12.2851C13.5312 12.4442 13.6776 12.5223 14.0878 12.5884L15.7583 12.8641C16.2075 12.9348 16.4591 12.9009 16.6274 12.7199C16.8497 12.5103 16.9738 12.1185 17.018 11.5033C17.0473 10.8559 16.7957 10.1919 16.2707 9.65936C15.1253 8.52369 12.8298 8.00612 10.5027 8.00612C8.16588 8.00612 5.91178 8.52139 4.77612 9.65705Z"
                     fill="currentColor" fill-opacity="0.85" />
       </g>
</svg>