<?xml version="1.0" encoding="UTF-8"?>
<!--Generator: Apple Native CoreSVG 326-->
<!DOCTYPE svg PUBLIC "-//W3C//DTD SVG 1.1//EN" "http://www.w3.org/Graphics/SVG/1.1/DTD/svg11.dtd">
<svg version="1.1" xmlns="http://www.w3.org/2000/svg" xmlns:xlink="http://www.w3.org/1999/xlink"
       viewBox="0 0 23.1402 22.3809">
       <g>
              <rect height="22.3809" opacity="0" width="23.1402" x="0" y="0" />
              <path d="M6.95213 15.527C10.0247 18.6018 13.7009 20.946 16.6735 20.946C18.0693 20.946 19.2842 20.3911 20.0786 19.5088C20.8362 18.6558 21.1848 17.9705 21.1848 17.4059C21.1848 16.951 20.9085 16.5552 20.2267 16.0687L17.6723 14.2329C17.0393 13.7831 16.7458 13.705 16.3718 13.705C16.0467 13.705 15.7779 13.7636 15.2253 14.0668L13.5957 14.9561C13.3877 15.0709 13.2947 15.0905 13.1505 15.0905C12.95 15.0905 12.8305 15.0416 12.6226 14.9486C11.8207 14.5844 10.7161 13.7193 9.72126 12.7319C8.73384 11.737 7.99626 10.7674 7.57294 9.93052C7.51665 9.8254 7.45806 9.67661 7.45806 9.49798C7.45806 9.36357 7.5115 9.2263 7.59708 9.08212L8.54489 7.42779C8.80626 6.97572 8.897 6.71896 8.897 6.35709C8.897 5.96131 8.76259 5.52131 8.36396 4.96643L6.60396 2.51714C6.10537 1.81061 5.64189 1.41768 5.07725 1.41768C4.38565 1.41768 3.53494 1.96049 2.92377 2.54467C2.05354 3.38561 1.59401 4.56143 1.59401 5.87396C1.59401 8.85115 3.88936 12.4665 6.95213 15.527Z"
                     fill="currentColor" fill-opacity="0.85" />
              <path d="M12.336 10.8093C12.8909 11.359 13.7927 11.359 14.3402 10.8093C14.8973 10.247 14.8973 9.34513 14.3402 8.80001C13.7927 8.24052 12.8909 8.24052 12.336 8.79771C11.7788 9.34513 11.7788 10.247 12.336 10.8093ZM13.3677 5.08064C12.953 5.49529 12.953 6.18731 13.3677 6.60196L16.5359 9.77021C16.9655 10.1923 17.6426 10.1849 18.0572 9.77021C18.4868 9.3481 18.4868 8.671 18.0572 8.24659L14.8987 5.08064C14.4692 4.64877 13.7898 4.64877 13.3677 5.08064ZM17.0996 6.04053C17.6517 6.59826 18.5489 6.60056 19.1061 6.03822C19.6512 5.48849 19.6512 4.58897 19.1061 4.03639C18.5489 3.48666 17.6494 3.48666 17.0996 4.03178C16.535 4.58897 16.535 5.48619 17.0996 6.04053ZM18.1261 0.322175C17.704 0.73682 17.7115 1.43115 18.1261 1.8458L21.2921 5.01404C21.7216 5.43615 22.4033 5.43615 22.818 5.01404C23.2476 4.58217 23.2476 3.90507 22.818 3.4755L19.6647 0.322175C19.2351-0.107392 18.5534-0.107392 18.1261 0.322175Z"
                     fill="currentColor" fill-opacity="0.85" />
       </g>
</svg>