<?xml version="1.0" encoding="UTF-8"?>
<!--Generator: Apple Native CoreSVG 326-->
<!DOCTYPE svg PUBLIC "-//W3C//DTD SVG 1.1//EN" "http://www.w3.org/Graphics/SVG/1.1/DTD/svg11.dtd">
<svg version="1.1" xmlns="http://www.w3.org/2000/svg" xmlns:xlink="http://www.w3.org/1999/xlink"
       viewBox="0 0 22.8524 22.8743">
       <g>
              <rect height="22.8743" opacity="0" width="22.8524" x="0" y="0" />
              <path d="M16.2561 21.6C17.9852 21.6 19.25 21.0141 20.4526 19.7689C20.5159 19.6959 20.5842 19.6327 20.6526 19.5523C21.1714 18.9376 21.4993 18.1685 21.4993 17.5258C21.4993 16.7107 21.1512 16.0122 20.2671 15.4016L17.5996 13.5503C16.6014 12.8634 15.7503 12.8416 14.8128 13.3356L13.5057 14.0181C13.0808 14.2443 12.7522 14.3711 12.2378 13.9566C11.7335 13.5564 10.9106 12.8514 10.3325 12.271C9.83141 11.7675 9.2132 11.0729 8.80887 10.4864C8.57747 10.1573 8.597 9.78525 8.84508 9.33506L9.60462 7.98049C10.0825 7.11389 10.0728 6.3435 9.59715 5.67768L7.27045 2.41184C6.73959 1.66207 5.94123 1.26168 5.12104 1.25937C4.44842 1.25707 3.76143 1.51043 3.12952 2.02922C3.06632 2.08266 2.98589 2.15332 2.94506 2.19414C1.62519 3.46913 0.987146 4.67425 0.987146 6.85611C0.987146 9.84305 2.45223 13.2461 5.98988 16.6994C9.52522 20.1578 12.8364 21.6 16.2561 21.6ZM16.2062 19.571C13.7234 19.5825 10.7837 18.2503 7.54564 15.0892C4.30527 11.9234 3.06431 8.95092 3.0833 6.63744C3.08791 5.48862 3.48139 4.60795 4.14096 4.03111C4.2294 3.95244 4.33275 3.88123 4.42119 3.81002C4.63955 3.63818 4.88721 3.54623 5.11588 3.54623C5.39393 3.54623 5.65299 3.66857 5.85577 3.969L7.4569 6.33713C7.69007 6.67826 7.67284 7.01994 7.44538 7.42142L6.58303 8.97646C6.22049 9.61759 6.19186 10.3091 6.63878 10.9771C7.19542 11.8111 7.93542 12.7309 8.91865 13.697C10.2055 14.939 11.2667 15.7773 11.8188 16.1118C12.5115 16.5266 13.2328 16.6018 14.0193 16.1848L15.2445 15.5453C15.7573 15.2823 16.1547 15.1595 16.5941 15.4443L18.7151 16.8283C19.0281 17.0288 19.1379 17.2902 19.1379 17.5533C19.1379 17.782 19.0534 18.0296 18.8666 18.2629C18.7931 18.3513 18.7242 18.4472 18.6432 18.5357C18.0687 19.2027 17.1857 19.5663 16.2062 19.571Z"
                     fill="currentColor" fill-opacity="0.85" />
              <path d="M12.0483 10.8018C12.6031 11.3516 13.505 11.3516 14.0524 10.8018C14.6096 10.247 14.6096 9.34513 14.0524 8.80001C13.505 8.23306 12.6031 8.23306 12.0483 8.79771C11.4911 9.34513 11.4911 10.247 12.0483 10.8018ZM13.0799 5.08064C12.6653 5.49529 12.6653 6.17985 13.0799 6.60196L16.2458 9.76275C16.6777 10.1923 17.3548 10.1849 17.7695 9.76275C18.199 9.3481 18.199 8.671 17.7695 8.23912L14.611 5.08064C14.1791 4.64877 13.502 4.64877 13.0799 5.08064ZM16.8119 6.04053C17.3639 6.5908 18.2611 6.5931 18.8183 6.03822C19.3634 5.48849 19.3634 4.58897 18.8183 4.03639C18.2611 3.4792 17.3616 3.4792 16.8119 4.03178C16.2472 4.58897 16.2472 5.48619 16.8119 6.04053ZM17.8384 0.322175C17.4163 0.73682 17.4237 1.42369 17.8384 1.8458L21.0043 5.00658C21.4339 5.43615 22.1156 5.43615 22.5302 5.00658C22.9598 4.58217 22.9598 3.90507 22.5302 3.4755L19.3769 0.322175C18.9473-0.107392 18.2656-0.107392 17.8384 0.322175Z"
                     fill="currentColor" fill-opacity="0.85" />
       </g>
</svg>