<?xml version="1.0" encoding="UTF-8"?>
<!--Generator: Apple Native CoreSVG 326-->
<!DOCTYPE svg PUBLIC "-//W3C//DTD SVG 1.1//EN" "http://www.w3.org/Graphics/SVG/1.1/DTD/svg11.dtd">
<svg version="1.1" xmlns="http://www.w3.org/2000/svg" xmlns:xlink="http://www.w3.org/1999/xlink"
       viewBox="0 0 21.365 21.006">
       <g>
              <rect height="21.006" opacity="0" width="21.365" x="0" y="0" />
              <path d="M10.4981 20.9962C16.302 20.9962 21.0037 16.2946 21.0037 10.4981C21.0037 4.70163 16.302 0 10.4981 0C4.70163 0 0 4.70163 0 10.4981C0 16.2946 4.70163 20.9962 10.4981 20.9962ZM10.4981 17.9484C6.37829 17.9484 3.04785 14.6179 3.04785 10.4981C3.04785 6.37829 6.37829 3.04785 10.4981 3.04785C14.6179 3.04785 17.9558 6.37829 17.9558 10.4981C17.9558 14.6179 14.6179 17.9484 10.4981 17.9484Z"
                     fill="currentColor" fill-opacity="0.85" />
              <path d="M5.83348 6.34845C5.55488 6.34845 5.37164 6.52884 5.37164 6.80743L5.37164 14.2083C5.37164 14.4869 5.55488 14.665 5.83348 14.665L15.1656 14.665C15.439 14.665 15.6223 14.4869 15.6223 14.2083L15.6223 6.80743C15.6223 6.52884 15.439 6.34845 15.1656 6.34845ZM6.49839 13.4434L6.49839 7.57746C6.49839 7.49934 6.52538 7.46719 6.59605 7.46719L14.3956 7.46719C14.4685 7.46719 14.5007 7.49934 14.5007 7.57746L14.5007 13.4434C14.5007 13.5164 14.4685 13.5486 14.3956 13.5486L6.59605 13.5486C6.52538 13.5486 6.49839 13.5164 6.49839 13.4434ZM6.97242 12.8946C6.97242 13.0073 7.04199 13.0694 7.15984 13.0694L13.8392 13.0694C13.9594 13.0694 14.0192 13.0073 14.0192 12.8946L14.0192 8.11888C14.0192 8.00848 13.9594 7.95383 13.8392 7.95383L7.15984 7.95383C7.04199 7.95383 6.97242 8.00848 6.97242 8.11888ZM7.53027 11.896L7.53027 8.55075C7.53027 8.51169 7.5475 8.49676 7.57449 8.49676L13.4246 8.49676C13.4487 8.49676 13.4688 8.51169 13.4688 8.55075L13.4688 11.8312L11.9587 10.4257C11.8351 10.3217 11.6725 10.2487 11.5174 10.2487C11.3501 10.2487 11.1996 10.3021 11.0663 10.4211L9.739 11.607L9.21899 11.133C9.09259 11.0089 8.93973 10.9583 8.79149 10.9583C8.6484 10.9583 8.53461 11.0238 8.4059 11.1307ZM8.68152 9.82865C8.68152 10.2492 9.02168 10.5969 9.44458 10.5969C9.86001 10.5969 10.2151 10.2492 10.2151 9.82865C10.2151 9.41837 9.86001 9.0656 9.44458 9.0656C9.02168 9.0656 8.68152 9.41837 8.68152 9.82865Z"
                     fill="currentColor" fill-opacity="0.85" />
       </g>
</svg>