<?xml version="1.0" encoding="UTF-8"?>
<!--Generator: Apple Native CoreSVG 326-->
<!DOCTYPE svg PUBLIC "-//W3C//DTD SVG 1.1//EN" "http://www.w3.org/Graphics/SVG/1.1/DTD/svg11.dtd">
<svg version="1.1" xmlns="http://www.w3.org/2000/svg" xmlns:xlink="http://www.w3.org/1999/xlink"
       viewBox="0 0 21.365 21.006">
       <g>
              <rect height="21.006" opacity="0" width="21.365" x="0" y="0" />
              <path d="M21.0037 10.4981C21.0037 16.2923 16.302 20.9962 10.4981 20.9962C4.70394 20.9962 0 16.2923 0 10.4981C0 4.70163 4.70394 0 10.4981 0C16.302 0 21.0037 4.70163 21.0037 10.4981ZM6.66962 6.01975C5.57654 6.01975 4.94705 6.64463 4.94705 7.73771L4.94705 13.305C4.94705 14.3907 5.57654 15.0178 6.66962 15.0178L14.322 15.0178C15.4248 15.0178 16.0371 14.3883 16.0371 13.305L16.0371 7.73771C16.0371 6.64463 15.4248 6.01975 14.322 6.01975ZM12.9398 10.473L14.5894 11.9893L14.5894 13.0398C14.5894 13.3633 14.3625 13.5627 14.074 13.5627L6.91758 13.5627C6.59926 13.5627 6.40965 13.3633 6.40965 13.0398L6.40965 12.384L7.33205 11.5846C7.53197 11.4089 7.70666 11.3261 7.93642 11.3261C8.15588 11.3261 8.37763 11.4163 8.5701 11.5869L9.44045 12.3522L11.5437 10.473C11.7632 10.2828 11.997 10.1955 12.2503 10.1978C12.4916 10.1955 12.745 10.2903 12.9398 10.473ZM10.1518 9.35389C10.1518 10.003 9.62212 10.5327 8.96782 10.5327C8.31868 10.5327 7.78903 10.003 7.78903 9.35389C7.78903 8.70706 8.31868 8.16995 8.96782 8.16995C9.62212 8.16995 10.1518 8.70706 10.1518 9.35389Z"
                     fill="currentColor" fill-opacity="0.85" />
       </g>
</svg>