<?xml version="1.0" encoding="UTF-8"?>
<!--Generator: Apple Native CoreSVG 326-->
<!DOCTYPE svg PUBLIC "-//W3C//DTD SVG 1.1//EN" "http://www.w3.org/Graphics/SVG/1.1/DTD/svg11.dtd">
<svg version="1.1" xmlns="http://www.w3.org/2000/svg" xmlns:xlink="http://www.w3.org/1999/xlink"
       viewBox="0 0 29.6341 25.2415">
       <g>
              <rect height="25.2415" opacity="0" width="29.6341" x="0" y="0" />
              <path d="M21.7265 4.06735L21.8958 5.02881L10.9723 5.02881C7.68919 5.02881 5.60037 7.11532 5.60037 10.384L5.60037 19.8765C5.60037 19.9004 5.60049 19.9242 5.6032 19.9465C4.26457 19.6689 3.38398 18.6526 3.09874 16.996L1.44264 7.6477C1.04116 5.36685 2.11744 3.83686 4.41267 3.43077L17.5027 1.12378C19.7979 0.719988 21.3227 1.7865 21.7265 4.06735Z"
                     fill="currentColor" fill-opacity="0.85" />
              <path d="M15.1139 15.3706C14.0161 15.3706 13.1084 14.4681 13.1084 13.3703C13.1084 12.2748 14.0161 11.37 15.1139 11.37C16.2043 11.37 17.1045 12.2748 17.1045 13.3703C17.1045 14.4681 16.2043 15.3706 15.1139 15.3706ZM11.26 20.5668C10.6141 20.5668 10.2636 20.246 10.2636 19.5703L10.2636 18.9145L12.2688 17.0736C12.5728 16.8012 12.9387 16.6674 13.2897 16.6674C13.6597 16.6674 14.0326 16.8036 14.3342 17.0834L15.7619 18.3697L19.2917 15.2472C19.6445 14.9381 20.042 14.7967 20.4506 14.7967C20.8768 14.7967 21.2664 14.9427 21.6048 15.2495L24.9783 18.3617L24.9783 19.5726C24.9783 20.2483 24.6255 20.5668 23.9865 20.5668ZM10.9723 23.5156L24.2673 23.5156C26.5919 23.5156 27.9157 22.2016 27.9157 19.8765L27.9157 10.384C27.9157 8.06641 26.5919 6.74489 24.2673 6.74489L10.9723 6.74489C8.64028 6.74489 7.32392 8.06641 7.32392 10.384L7.32392 19.8765C7.32392 22.2039 8.64028 23.5156 10.9723 23.5156Z"
                     fill="currentColor" fill-opacity="0.85" />
       </g>
</svg>