<?xml version="1.0" encoding="UTF-8"?>
<!--Generator: Apple Native CoreSVG 326-->
<!DOCTYPE svg PUBLIC "-//W3C//DTD SVG 1.1//EN" "http://www.w3.org/Graphics/SVG/1.1/DTD/svg11.dtd">
<svg version="1.1" xmlns="http://www.w3.org/2000/svg" xmlns:xlink="http://www.w3.org/1999/xlink"
       viewBox="0 0 21.365 21.006">
       <g>
              <rect height="21.006" opacity="0" width="21.365" x="0" y="0" />
              <path d="M21.0037 10.4981C21.0037 16.2923 16.302 20.9962 10.4981 20.9962C4.70394 20.9962 0 16.2923 0 10.4981C0 4.70163 4.70394 0 10.4981 0C16.302 0 21.0037 4.70163 21.0037 10.4981ZM5.52801 6.07513C5.24712 6.07513 5.04149 6.26529 5.04149 6.56857L5.04149 14.4449C5.04149 14.7505 5.24712 14.9383 5.52801 14.9383L15.4757 14.9383C15.7566 14.9383 15.9645 14.7505 15.9645 14.4449L15.9645 6.56857C15.9645 6.26529 15.7566 6.07513 15.4757 6.07513ZM14.7488 7.39313L14.7488 13.6278C14.7488 13.7157 14.7241 13.7404 14.6488 13.7404L6.35488 13.7404C6.28191 13.7404 6.24746 13.7157 6.24746 13.6278L6.24746 7.39313C6.24746 7.30754 6.28191 7.27539 6.35488 7.27539L14.6488 7.27539C14.7241 7.27539 14.7488 7.30754 14.7488 7.39313ZM6.94797 7.78903C6.82781 7.78903 6.74847 7.85345 6.74847 7.9713L6.74847 13.0421C6.74847 13.1698 6.82781 13.2267 6.94797 13.2267L14.0482 13.2267C14.1782 13.2267 14.2552 13.1698 14.2552 13.0421L14.2552 7.9713C14.2552 7.85345 14.1782 7.78903 14.0482 7.78903ZM13.6531 8.43016L13.6531 11.9099L12.0546 10.4234C11.9236 10.3044 11.7512 10.2389 11.5811 10.2389C11.4116 10.2389 11.2438 10.2924 11.1105 10.4188L9.69709 11.6834L9.14263 11.1749C9.00646 11.0433 8.84614 10.9928 8.68813 10.9928C8.53012 10.9928 8.42149 11.0583 8.28532 11.1726L7.35055 11.9822L7.35055 8.43016C7.35055 8.38134 7.36777 8.36641 7.39477 8.36641L13.6089 8.36641C13.6331 8.36641 13.6531 8.38134 13.6531 8.43016ZM8.5684 9.78443C8.5684 10.2395 8.93324 10.6043 9.39059 10.6043C9.82556 10.6043 10.2053 10.2395 10.2053 9.78443C10.2053 9.34947 9.82556 8.97716 9.39059 8.97716C8.93324 8.97716 8.5684 9.34947 8.5684 9.78443Z"
                     fill="currentColor" fill-opacity="0.85" />
       </g>
</svg>