<?xml version="1.0" encoding="UTF-8"?>
<!--Generator: Apple Native CoreSVG 326-->
<!DOCTYPE svg PUBLIC "-//W3C//DTD SVG 1.1//EN" "http://www.w3.org/Graphics/SVG/1.1/DTD/svg11.dtd">
<svg version="1.1" xmlns="http://www.w3.org/2000/svg" xmlns:xlink="http://www.w3.org/1999/xlink"
       viewBox="0 0 23.8214 19.0529">
       <g>
              <rect height="19.0529" opacity="0" width="23.8214" x="0" y="0" />
              <path d="M8.23982 1.9874L5.2513 1.9874L5.2513 10.1109C5.2513 10.7641 5.67068 11.0151 6.10212 11.0151L7.39131 11.0151C7.82275 11.0151 8.23982 10.7641 8.23982 10.1109ZM13.2168 1.9874L10.2432 1.9874L10.2432 10.1109C10.2432 10.7715 10.7372 11.0151 11.0843 11.0151L12.3832 11.0151C12.8147 11.0151 13.2168 10.7641 13.2168 10.1109ZM18.2088 1.9874L15.2202 1.9874L15.2202 10.1109C15.2202 10.7641 15.6373 11.0151 16.0688 11.0151L17.3602 11.0151C17.7917 11.0151 18.2088 10.7641 18.2088 10.1109ZM6.2292 9.50584L6.2292 17.151L7.26423 17.151L7.26423 9.50584ZM11.2137 9.50584L11.2137 17.151L12.2487 17.151L12.2487 9.50584ZM16.1981 9.50584L16.1981 17.151L17.2332 17.151L17.2332 9.50584ZM3.64834 19.0529L19.8117 19.0529C22.1386 19.0529 23.4601 17.7336 23.4601 15.416L23.4601 3.65404C23.4601 1.32897 22.1386 0.0149214 19.8117 0.0149214L3.64834 0.0149214C1.32382 0.0149214 0 1.32897 0 3.65404L0 15.416C0 17.7336 1.32382 19.0529 3.64834 19.0529ZM4.05583 16.0332C3.37024 16.0332 3.01964 15.7171 3.01964 14.985L3.01964 4.07767C3.01964 3.34555 3.37024 3.03457 4.05583 3.03457L19.4042 3.03457C20.0875 3.03457 20.4404 3.34555 20.4404 4.07767L20.4404 14.985C20.4404 15.7171 20.0875 16.0332 19.4042 16.0332Z"
                     fill="currentColor" fill-opacity="0.85" />
       </g>
</svg>