<?xml version="1.0" encoding="UTF-8"?>
<!--Generator: Apple Native CoreSVG 326-->
<!DOCTYPE svg PUBLIC "-//W3C//DTD SVG 1.1//EN" "http://www.w3.org/Graphics/SVG/1.1/DTD/svg11.dtd">
<svg version="1.1" xmlns="http://www.w3.org/2000/svg" xmlns:xlink="http://www.w3.org/1999/xlink"
       viewBox="0 0 19.3993 19.0529">
       <g>
              <rect height="19.0529" opacity="0" width="19.3993" x="0" y="0" />
              <path d="M3.64834 19.0379L15.3896 19.0379C17.7164 19.0379 19.0379 17.7262 19.0379 15.4011L19.0379 3.63912C19.0379 1.32151 17.7164 0 15.3896 0L3.64834 0C1.32382 0 0 1.32151 0 3.63912L0 15.4011C0 17.7262 1.32382 19.0379 3.64834 19.0379ZM4.05583 16.0183C3.37024 16.0183 3.01964 15.7096 3.01964 14.9775L3.01964 4.07021C3.01964 3.33809 3.37024 3.0271 4.05583 3.0271L14.9821 3.0271C15.6654 3.0271 16.0183 3.33809 16.0183 4.07021L16.0183 14.9775C16.0183 15.7096 15.6654 16.0183 14.9821 16.0183Z"
                     fill="currentColor" fill-opacity="0.85" />
              <path d="M5.73072 11.1905C5.73072 11.6649 6.05123 11.9734 6.52799 11.9734L8.72671 11.9734L8.72671 13.5946C8.72671 14.2413 9.29815 15.4186 9.52616 15.4186C9.75416 15.4186 10.3256 14.2413 10.3256 13.5946L10.3256 11.9734L12.5318 11.9734C13.0108 11.9734 13.329 11.6649 13.329 11.1905C13.329 10.2001 12.3773 9.25842 11.1323 8.7753L10.9887 6.66689C11.6792 6.27396 12.1831 5.87466 12.3945 5.59486C12.5215 5.41907 12.5973 5.23583 12.5973 5.06466C12.5973 4.7097 12.3182 4.45755 11.9442 4.45755L7.11556 4.45755C6.73416 4.45755 6.45502 4.7097 6.45502 5.06466C6.45502 5.23583 6.53084 5.42884 6.66986 5.59716C6.89623 5.86951 7.38287 6.27627 8.07108 6.66689L7.92229 8.7753C6.67502 9.25842 5.73072 10.2001 5.73072 11.1905Z"
                     fill="currentColor" fill-opacity="0.85" />
       </g>
</svg>