<?xml version="1.0" encoding="UTF-8"?>
<!--Generator: Apple Native CoreSVG 326-->
<!DOCTYPE svg PUBLIC "-//W3C//DTD SVG 1.1//EN" "http://www.w3.org/Graphics/SVG/1.1/DTD/svg11.dtd">
<svg version="1.1" xmlns="http://www.w3.org/2000/svg" xmlns:xlink="http://www.w3.org/1999/xlink"
       viewBox="0 0 23.848 24.727">
       <g>
              <rect height="24.727" opacity="0" width="23.848" x="0" y="0" />
              <path d="M8.11476 12.2028C6.90066 12.8302 6.08202 13.7412 5.9148 14.6865C5.89812 14.8084 5.94585 14.8831 6.05625 14.8831L10.7979 14.8831L13.028 17.1109L13.028 21.8882C13.028 22.8899 12.0994 24.727 11.7434 24.727C11.3873 24.727 10.4587 22.8899 10.4587 21.8882L10.4587 17.1038L5.42688 17.1038C4.34653 17.1038 3.61084 16.3928 3.61084 15.3314C3.61084 13.5253 4.76183 11.8113 6.56659 10.6563ZM18.6356 1.61824C18.6356 1.99844 18.4737 2.42746 18.175 2.80425C17.6821 3.42355 16.5849 4.31914 15.2551 5.20429L15.571 9.95349C18.128 11.026 19.8661 13.109 19.8661 15.3314C19.8661 15.993 19.5832 16.5184 19.1083 16.8202L17.1702 14.8831L17.4282 14.8831C17.5409 14.8831 17.5886 14.8084 17.5719 14.6865C17.3448 13.4025 15.9144 12.1816 13.9309 11.6455L11.4887 9.20467C11.5718 9.19544 11.6574 9.19437 11.7434 9.19437C12.2468 9.19437 12.7395 9.23116 13.2154 9.3061L12.9339 4.23543C12.9167 3.9868 12.9884 3.83352 13.1882 3.72501C14.0735 3.25656 14.7638 2.78569 15.1553 2.51577C15.2408 2.44104 15.2075 2.34054 15.115 2.34054L8.36943 2.34054C8.27923 2.34054 8.24357 2.44104 8.32915 2.51577C8.72063 2.78569 9.41326 3.25656 10.2962 3.72501C10.4983 3.83352 10.57 3.9868 10.5528 4.23543L10.3394 8.05596L8.18298 5.90066L8.22931 5.20429C6.90185 4.31914 5.80228 3.42355 5.31169 2.80425C5.01302 2.42746 4.85107 1.99844 4.85107 1.61824C4.85107 0.81364 5.47189 0.232433 6.3443 0.232433L17.1424 0.232433C18.0125 0.232433 18.6356 0.81364 18.6356 1.61824Z"
                     fill="currentColor" fill-opacity="0.85" />
              <path d="M1.63685 3.75588L20.1436 22.2431C20.4911 22.5809 21.0442 22.5585 21.3573 22.2431C21.7025 21.8979 21.6899 21.3747 21.3573 21.0444L2.86774 2.5646C2.52255 2.21941 1.96712 2.2171 1.63685 2.54222C1.31634 2.87018 1.3238 3.44053 1.63685 3.75588Z"
                     fill="currentColor" fill-opacity="0.85" />
       </g>
</svg>