<?xml version="1.0" encoding="UTF-8"?>
<!--Generator: Apple Native CoreSVG 326-->
<!DOCTYPE svg PUBLIC "-//W3C//DTD SVG 1.1//EN" "http://www.w3.org/Graphics/SVG/1.1/DTD/svg11.dtd">
<svg version="1.1" xmlns="http://www.w3.org/2000/svg" xmlns:xlink="http://www.w3.org/1999/xlink"
       viewBox="0 0 16.6166 24.727">
       <g>
              <rect height="24.727" opacity="0" width="16.6166" x="0" y="0" />
              <path d="M0 15.3314C0 16.3928 0.728237 17.1038 1.80858 17.1038L6.83812 17.1038L6.83812 21.8882C6.83812 22.8899 7.77647 24.727 8.12506 24.727C8.47881 24.727 9.41716 22.8899 9.41716 21.8882L9.41716 17.1038L14.4467 17.1038C15.527 17.1038 16.2553 16.3928 16.2553 15.3314C16.2553 13.1142 14.5228 10.9887 11.719 9.91053L11.4042 5.20429C12.9717 4.31914 14.0615 3.42355 14.5544 2.80656C14.8606 2.42976 15.0174 2.00074 15.0174 1.61824C15.0174 0.81364 14.4017 0.232433 13.5241 0.232433L2.73347 0.232433C1.85359 0.232433 1.24023 0.81364 1.24023 1.61824C1.24023 2.00074 1.39473 2.42976 1.70086 2.80656C2.19375 3.42355 3.28355 4.31914 4.85109 5.20429L4.53628 9.91053C1.73246 10.9887 0 13.1142 0 15.3314Z"
                     fill="currentColor" fill-opacity="0.85" />
       </g>
</svg>