<?xml version="1.0" encoding="UTF-8"?>
<!--Generator: Apple Native CoreSVG 326-->
<!DOCTYPE svg PUBLIC "-//W3C//DTD SVG 1.1//EN" "http://www.w3.org/Graphics/SVG/1.1/DTD/svg11.dtd">
<svg version="1.1" xmlns="http://www.w3.org/2000/svg" xmlns:xlink="http://www.w3.org/1999/xlink"
       viewBox="0 0 16.6166 24.727">
       <g>
              <rect height="24.727" opacity="0" width="16.6166" x="0" y="0" />
              <path d="M8.12506 24.727C8.47881 24.727 9.41716 22.8899 9.41716 21.8882L9.41716 15.9897L6.83812 15.9897L6.83812 21.8882C6.83812 22.8899 7.77647 24.727 8.12506 24.727ZM1.80858 17.1038L14.4467 17.1038C15.527 17.1038 16.2553 16.3928 16.2553 15.3314C16.2553 12.1171 12.6194 9.19437 8.12506 9.19437C3.63585 9.19437 0 12.1171 0 15.3314C0 16.3928 0.728237 17.1038 1.80858 17.1038ZM2.43795 14.8831C2.32525 14.8831 2.27982 14.8084 2.30396 14.6865C2.60833 12.966 5.07079 11.3588 8.12506 11.3588C11.1845 11.3588 13.6469 12.966 13.9513 14.6865C13.9755 14.8084 13.93 14.8831 13.8173 14.8831ZM1.24023 1.61824C1.24023 1.99844 1.39473 2.42746 1.70086 2.80425C2.19144 3.42355 3.28355 4.31914 4.61101 5.20429L4.23476 10.9723L6.55826 10.9723L6.94197 4.23543C6.95173 3.9868 6.88744 3.83352 6.67787 3.72501C5.80242 3.25656 5.10979 2.78569 4.71832 2.51577C4.63273 2.44104 4.66609 2.34054 4.75859 2.34054L11.4967 2.34054C11.5892 2.34054 11.6225 2.44104 11.537 2.51577C11.1455 2.78569 10.4529 3.25656 9.57741 3.72501C9.37015 3.83352 9.30355 3.9868 9.31562 4.23543L9.69702 10.9723L12.0205 10.9723L11.6443 5.20429C12.974 4.31914 14.0638 3.42355 14.5544 2.80425C14.8629 2.42746 15.0174 1.99844 15.0174 1.61824C15.0174 0.81364 14.4017 0.232433 13.5241 0.232433L2.73347 0.232433C1.85359 0.232433 1.24023 0.81364 1.24023 1.61824Z"
                     fill="currentColor" fill-opacity="0.85" />
       </g>
</svg>