<?xml version="1.0" encoding="UTF-8"?>
<!--Generator: Apple Native CoreSVG 326-->
<!DOCTYPE svg PUBLIC "-//W3C//DTD SVG 1.1//EN" "http://www.w3.org/Graphics/SVG/1.1/DTD/svg11.dtd">
<svg version="1.1" xmlns="http://www.w3.org/2000/svg" xmlns:xlink="http://www.w3.org/1999/xlink"
       viewBox="0 0 21.365 21.006">
       <g>
              <rect height="21.006" opacity="0" width="21.365" x="0" y="0" />
              <path d="M10.4981 20.9962C16.302 20.9962 21.0037 16.2946 21.0037 10.4981C21.0037 4.70163 16.302 0 10.4981 0C4.70163 0 0 4.70163 0 10.4981C0 16.2946 4.70163 20.9962 10.4981 20.9962ZM10.4981 17.9484C6.37829 17.9484 3.04785 14.6179 3.04785 10.4981C3.04785 6.37829 6.37829 3.04785 10.4981 3.04785C14.6179 3.04785 17.9558 6.37829 17.9558 10.4981C17.9558 14.6179 14.6179 17.9484 10.4981 17.9484Z"
                     fill="currentColor" fill-opacity="0.85" />
              <path d="M6.70268 12.1671C6.70268 12.6415 7.02088 12.9499 7.49764 12.9499L9.70612 12.9499L9.70612 14.5712C9.70612 15.2178 10.2701 16.3952 10.4981 16.3952C10.7261 16.3952 11.2976 15.2178 11.2976 14.5712L11.2976 12.9499L13.5037 12.9499C13.9805 12.9499 14.301 12.6415 14.301 12.1671C14.301 11.1767 13.3492 10.235 12.102 9.75186L11.9606 7.64345C12.6512 7.25052 13.155 6.85122 13.3642 6.57142C13.4934 6.39564 13.5767 6.2124 13.5767 6.04122C13.5767 5.68626 13.2901 5.43412 12.9162 5.43412L8.08752 5.43412C7.70611 5.43412 7.42697 5.68626 7.42697 6.04122C7.42697 6.2124 7.50279 6.4054 7.64182 6.57372C7.86588 6.84607 8.35483 7.25283 9.04303 7.64345L8.89194 9.75186C7.64697 10.235 6.70268 11.1767 6.70268 12.1671Z"
                     fill="currentColor" fill-opacity="0.85" />
       </g>
</svg>