<?xml version="1.0" encoding="UTF-8"?>
<!--Generator: Apple Native CoreSVG 326-->
<!DOCTYPE svg PUBLIC "-//W3C//DTD SVG 1.1//EN" "http://www.w3.org/Graphics/SVG/1.1/DTD/svg11.dtd">
<svg version="1.1" xmlns="http://www.w3.org/2000/svg" xmlns:xlink="http://www.w3.org/1999/xlink"
       viewBox="0 0 21.365 21.006">
       <g>
              <rect height="21.006" opacity="0" width="21.365" x="0" y="0" />
              <path d="M21.0037 10.5079C21.0037 16.3043 16.302 21.006 10.4981 21.006C4.70394 21.006 0 16.3043 0 10.5079C0 4.7137 4.70394 0.00976562 10.4981 0.00976562C16.302 0.00976562 21.0037 4.7137 21.0037 10.5079ZM7.92732 5.08674C7.53615 5.08674 7.23233 5.35611 7.23233 5.74322C7.23233 5.92416 7.31045 6.12463 7.45694 6.30271C7.69076 6.59974 8.21417 7.02373 8.95174 7.44881L8.79319 9.68526C7.46209 10.2005 6.46096 11.2037 6.46096 12.263C6.46096 12.7696 6.79639 13.105 7.3053 13.105L9.64413 13.105L9.64413 14.8249C9.64413 15.5009 10.2552 16.7621 10.5004 16.7621C10.7531 16.7621 11.3642 15.5009 11.3642 14.8249L11.3642 13.105L13.7007 13.105C14.2096 13.105 14.5473 12.7696 14.5473 12.263C14.5473 11.2037 13.5387 10.2005 12.2128 9.68526L12.0565 7.44881C12.7964 7.02373 13.3347 6.6049 13.5537 6.30041C13.6904 6.11717 13.776 5.92416 13.776 5.74322C13.776 5.35611 13.4721 5.08674 13.081 5.08674Z"
                     fill="currentColor" fill-opacity="0.85" />
       </g>
</svg>