<?xml version="1.0" encoding="UTF-8"?>
<!--Generator: Apple Native CoreSVG 326-->
<!DOCTYPE svg PUBLIC "-//W3C//DTD SVG 1.1//EN" "http://www.w3.org/Graphics/SVG/1.1/DTD/svg11.dtd">
<svg version="1.1" xmlns="http://www.w3.org/2000/svg" xmlns:xlink="http://www.w3.org/1999/xlink"
       viewBox="0 0 26.0022 22.9689">
       <g>
              <rect height="22.9689" opacity="0" width="26.0022" x="0" y="0" />
              <path d="M6.28403 3.64319L6.28403 4.07815L19.3568 4.07815L19.3568 3.64319C19.3568 2.23663 20.0909 1.5221 21.5365 1.5221L23.4537 1.5221C24.9016 1.5221 25.6408 2.23663 25.6408 3.64319L25.6408 10.8798C25.6408 12.2864 24.9016 13.0009 23.4537 13.0009L21.5365 13.0009C20.0909 13.0009 19.3568 12.2864 19.3568 10.8798L19.3568 10.431L16.5281 10.431L15.4254 8.38661C14.8797 7.3665 13.9384 6.78353 12.819 6.78353C11.7047 6.78353 10.7755 7.3688 10.2252 8.37915L9.12896 10.431L6.28403 10.431L6.28403 10.8798C6.28403 12.2864 5.54997 13.0009 4.10666 13.0009L2.18714 13.0009C0.741521 13.0009 0 12.2864 0 10.8798L0 3.64319C0 2.23663 0.741521 1.5221 2.18714 1.5221L4.10666 1.5221C5.54997 1.5221 6.28403 2.23663 6.28403 3.64319Z"
                     fill="currentColor" fill-opacity="0.85" />
              <path d="M12.819 21.4319C15.3998 21.4319 17.4603 19.4105 17.4603 16.8957C17.4603 15.5149 16.7836 14.181 16.2442 13.1729L14.0618 9.11837C13.7855 8.59739 13.3606 8.33032 12.819 8.33032C12.2774 8.33032 11.8599 8.60485 11.5836 9.11606L9.41103 13.1729C8.86416 14.181 8.18748 15.5149 8.18748 16.8957C8.18748 19.4105 10.2554 21.4319 12.819 21.4319Z"
                     fill="currentColor" fill-opacity="0.85" />
       </g>
</svg>