<?xml version="1.0" encoding="UTF-8"?>
<!--Generator: Apple Native CoreSVG 326-->
<!DOCTYPE svg PUBLIC "-//W3C//DTD SVG 1.1//EN" "http://www.w3.org/Graphics/SVG/1.1/DTD/svg11.dtd">
<svg version="1.1" xmlns="http://www.w3.org/2000/svg" xmlns:xlink="http://www.w3.org/1999/xlink"
       viewBox="0 0 26.1738 23.2674">
       <g>
              <rect height="23.2674" opacity="0" width="26.1738" x="0" y="0" />
              <path d="M6.46309 4.00263L6.46309 4.02593L19.3568 4.02593L19.3568 4.00263C19.3568 2.48745 20.3193 1.55941 21.8586 1.55941L23.3032 1.55941C24.8597 1.55941 25.8124 2.48745 25.8124 4.00263L25.8124 10.9382C25.8124 12.4534 24.8597 13.3889 23.3032 13.3889L21.8586 13.3889C20.3193 13.3889 19.3568 12.4534 19.3568 10.9382L19.3568 10.9085L16.7068 10.9085L15.5075 8.68504C15.5019 8.67461 15.4964 8.66422 15.4902 8.65459L19.3568 8.65459L19.3568 6.27239L6.46309 6.27239L6.46309 8.65459L10.328 8.65459C10.3232 8.66186 10.319 8.66971 10.3147 8.67758L9.11873 10.9085L6.46309 10.9085L6.46309 10.9382C6.46309 12.4534 5.50806 13.3889 3.95611 13.3889L2.50928 13.3889C0.962491 13.3889 0 12.4534 0 10.9382L0 4.00263C0 2.48745 0.962491 1.55941 2.50928 1.55941L3.95611 1.55941C5.50806 1.55941 6.46309 2.48745 6.46309 4.00263ZM2.71072 3.93676C2.50091 3.93676 2.37736 4.06778 2.37736 4.28735L2.37736 10.6609C2.37736 10.8805 2.50091 11.0115 2.71072 11.0115L3.76213 11.0115C3.96964 11.0115 4.09319 10.8805 4.09319 10.6609L4.09319 4.28735C4.09319 4.06778 3.96964 3.93676 3.76213 3.93676ZM22.0601 3.93676C21.8577 3.93676 21.7342 4.06778 21.7342 4.28735L21.7342 10.6609C21.7342 10.8805 21.8577 11.0115 22.0601 11.0115L23.1166 11.0115C23.319 11.0115 23.4425 10.8805 23.4425 10.6609L23.4425 4.28735C23.4425 4.06778 23.319 3.93676 23.1166 3.93676Z"
                     fill="currentColor" fill-opacity="0.85" />
              <path d="M12.9085 21.7229C15.4894 21.7229 17.5423 19.709 17.5423 17.1867C17.5423 15.8133 16.8657 14.4795 16.3337 13.4713L14.1514 9.4168C13.8676 8.89582 13.4501 8.62875 12.9085 8.62875C12.3669 8.62875 11.9494 8.90328 11.6731 9.41449L9.50056 13.4713C8.95369 14.4795 8.27701 15.8133 8.27701 17.1867C8.27701 19.709 10.3449 21.7229 12.9085 21.7229ZM12.9085 19.5677C11.5342 19.5677 10.4396 18.5145 10.4396 17.1867C10.4396 16.3198 10.878 15.4919 11.4174 14.4814L12.8109 11.8789C12.862 11.7813 12.9671 11.7813 13.0182 11.8789L14.4019 14.4814C14.939 15.4919 15.3872 16.3198 15.3872 17.1867C15.3872 18.5145 14.3001 19.5677 12.9085 19.5677Z"
                     fill="currentColor" fill-opacity="0.85" />
       </g>
</svg>