<?xml version="1.0" encoding="UTF-8"?>
<!--Generator: Apple Native CoreSVG 326-->
<!DOCTYPE svg PUBLIC "-//W3C//DTD SVG 1.1//EN" "http://www.w3.org/Graphics/SVG/1.1/DTD/svg11.dtd">
<svg version="1.1" xmlns="http://www.w3.org/2000/svg" xmlns:xlink="http://www.w3.org/1999/xlink"
       viewBox="0 0 20.7033 20.8005">
       <g>
              <rect height="20.8005" opacity="0" width="20.7033" x="0" y="0" />
              <path d="M6.25255 20.8005L14.0819 20.8005C17.1991 20.8005 19.3097 18.6605 19.3097 15.4796L19.3097 5.3404C19.3097 2.16694 17.1991 0.0218362 14.0819 0.0218362L6.25255 0.0218362C3.14283 0.0218362 1.03218 2.16694 1.03218 5.3404L1.03218 15.4796C1.03218 18.6605 3.14283 20.8005 6.25255 20.8005ZM6.23642 18.0609C4.68981 18.0609 3.78664 17.1084 3.78664 15.4957L3.78664 5.32833C3.78664 3.72544 4.68981 2.78036 6.23642 2.78036L14.1055 2.78036C15.647 2.78036 16.5553 3.72544 16.5553 5.32833L16.5553 15.4957C16.5553 17.1084 15.647 18.0609 14.1055 18.0609ZM18.8057 9.58348L19.4242 9.58348C20.1984 9.58348 20.7033 9.04934 20.7033 8.21138L20.7033 6.57306C20.7033 5.7454 20.1984 5.19635 19.4242 5.19635L18.8057 5.19635Z"
                     fill="currentColor" fill-opacity="0.85" />
              <path d="M4.91047 7.13243C4.91047 7.99926 5.38614 8.51169 6.18407 8.51169L14.1452 8.51169C14.9409 8.51169 15.424 7.99926 15.424 7.13243L15.424 5.27192C15.424 4.41716 14.9363 3.89782 14.1452 3.89782L6.18407 3.89782C5.39821 3.89782 4.91047 4.41716 4.91047 5.27192Z"
                     fill="currentColor" fill-opacity="0.85" />
       </g>
</svg>