<?xml version="1.0" encoding="UTF-8"?>
<!--Generator: Apple Native CoreSVG 326-->
<!DOCTYPE svg PUBLIC "-//W3C//DTD SVG 1.1//EN" "http://www.w3.org/Graphics/SVG/1.1/DTD/svg11.dtd">
<svg version="1.1" xmlns="http://www.w3.org/2000/svg" xmlns:xlink="http://www.w3.org/1999/xlink"
       viewBox="0 0 23.8214 19.0529">
       <g>
              <rect height="19.0529" opacity="0" width="23.8214" x="0" y="0" />
              <path d="M23.4601 3.65404L23.4601 15.416C23.4601 17.7336 22.1386 19.0529 19.8117 19.0529L3.64834 19.0529C1.32382 19.0529 0 17.7336 0 15.416L0 3.65404C0 1.32897 1.32382 0.0149214 3.64834 0.0149214L19.8117 0.0149214C22.1386 0.0149214 23.4601 1.32897 23.4601 3.65404ZM8.49567 6.3038L8.49567 12.7387C8.49567 13.7045 9.45288 14.138 10.2625 13.6459L15.572 10.5207C16.35 10.0579 16.3328 8.98698 15.572 8.53394L10.2625 5.40409C9.44718 4.9189 8.49567 5.3478 8.49567 6.3038Z"
                     fill="currentColor" fill-opacity="0.85" />
       </g>
</svg>