<?xml version="1.0" encoding="UTF-8"?>
<!--Generator: Apple Native CoreSVG 326-->
<!DOCTYPE svg PUBLIC "-//W3C//DTD SVG 1.1//EN" "http://www.w3.org/Graphics/SVG/1.1/DTD/svg11.dtd">
<svg version="1.1" xmlns="http://www.w3.org/2000/svg" xmlns:xlink="http://www.w3.org/1999/xlink"
       viewBox="0 0 22.8564 21.6271">
       <g>
              <rect height="21.6271" opacity="0" width="22.8564" x="0" y="0" />
              <path d="M13.173 16.3567L7.22372 19.8248C6.77923 20.078 6.3049 20.2055 5.87017 20.2055C4.81815 20.2055 3.9407 19.4779 3.9407 18.0859L3.9407 7.13553ZM7.22372 1.79257L19.2721 8.80853C20.2095 9.35935 20.7441 9.92552 20.7441 10.8087C20.7441 11.6895 20.2095 12.258 19.2721 12.8013L17.2059 14.0058L4.86637 1.67362C5.15931 1.49899 5.50418 1.41183 5.87017 1.41183C6.3049 1.41183 6.77923 1.52956 7.22372 1.79257Z"
                     fill="currentColor" fill-opacity="0.85" />
              <path d="M17.9561 19.1561C18.2864 19.4864 18.8492 19.4938 19.1697 19.1561C19.4903 18.8184 19.5075 18.2802 19.1697 17.9424L2.86867 1.65112C2.53094 1.31339 1.97551 1.31339 1.64524 1.65112C1.31727 1.97909 1.31727 2.54428 1.64524 2.86479Z"
                     fill="currentColor" fill-opacity="0.85" />
       </g>
</svg>