<?xml version="1.0" encoding="UTF-8"?>
<!--Generator: Apple Native CoreSVG 326-->
<!DOCTYPE svg PUBLIC "-//W3C//DTD SVG 1.1//EN" "http://www.w3.org/Graphics/SVG/1.1/DTD/svg11.dtd">
<svg version="1.1" xmlns="http://www.w3.org/2000/svg" xmlns:xlink="http://www.w3.org/1999/xlink"
       viewBox="0 0 32.8942 17.2445">
       <g>
              <rect height="17.2445" opacity="0" width="32.8942" x="0" y="0" />
              <path d="M0 15.1685C0 16.5192 0.855615 17.2347 1.87088 17.2347C2.30099 17.2347 2.74317 17.1095 3.17559 16.8637L14.0114 10.5514C14.8879 10.0471 15.4322 9.47866 15.4322 8.61735C15.4322 7.74857 14.8879 7.18756 14.0114 6.68327L3.17559 0.370973C2.74317 0.122889 2.30099 0 1.87088 0C0.855615 0 0 0.705734 0 2.06388ZM19.9928 17.2134L22.4931 17.2134C23.6211 17.2134 24.1948 16.6374 24.1948 15.5019L24.1948 1.723C24.1948 0.615659 23.6211 0.0189853 22.4931 0.0189853L19.9928 0.0189853C18.8574 0.0189853 18.2813 0.587575 18.2813 1.723L18.2813 15.5019C18.2813 16.6374 18.8275 17.2134 19.9928 17.2134ZM28.3286 17.2134L30.8289 17.2134C31.9643 17.2134 32.5329 16.6374 32.5329 15.5019L32.5329 1.723C32.5329 0.615659 31.9643 0.0189853 30.8289 0.0189853L28.3286 0.0189853C27.1931 0.0189853 26.6194 0.587575 26.6194 1.723L26.6194 15.5019C26.6194 16.6374 27.1708 17.2134 28.3286 17.2134Z"
                     fill="currentColor" fill-opacity="0.85" />
       </g>
</svg>