<?xml version="1.0" encoding="UTF-8"?>
<!--Generator: Apple Native CoreSVG 326-->
<!DOCTYPE svg PUBLIC "-//W3C//DTD SVG 1.1//EN" "http://www.w3.org/Graphics/SVG/1.1/DTD/svg11.dtd">
<svg version="1.1" xmlns="http://www.w3.org/2000/svg" xmlns:xlink="http://www.w3.org/1999/xlink"
       viewBox="0 0 21.365 21.006">
       <g>
              <rect height="21.006" opacity="0" width="21.365" x="0" y="0" />
              <path d="M10.4981 20.9962C16.302 20.9962 21.0037 16.2946 21.0037 10.4981C21.0037 4.70163 16.302 0 10.4981 0C4.70163 0 0 4.70163 0 10.4981C0 16.2946 4.70163 20.9962 10.4981 20.9962ZM10.4981 17.9484C6.37829 17.9484 3.04785 14.6179 3.04785 10.4981C3.04785 6.37829 6.37829 3.04785 10.4981 3.04785C14.6179 3.04785 17.9558 6.37829 17.9558 10.4981C17.9558 14.6179 14.6179 17.9484 10.4981 17.9484Z"
                     fill="currentColor" fill-opacity="0.85" />
              <path d="M5.72223 13.603L9.66269 10.9784C9.99133 10.7446 9.9764 10.2913 9.66269 10.077L5.72223 7.43286C5.36661 7.18641 4.89664 7.4311 4.89664 7.82809L4.89664 13.2175C4.89664 13.6093 5.34477 13.854 5.72223 13.603ZM11.3051 13.6529L12.2305 13.6529C12.6694 13.6529 12.9118 13.399 12.9118 13.0078L12.9118 7.99587C12.9118 7.60239 12.6694 7.35079 12.2305 7.35079L11.3051 7.35079C10.8685 7.35079 10.6289 7.60239 10.6289 7.99587L10.6289 13.0078C10.6289 13.399 10.8685 13.6529 11.3051 13.6529ZM14.5072 13.6529L15.4476 13.6529C15.8744 13.6529 16.1116 13.399 16.1116 13.0153L16.1116 7.98841C16.1116 7.60239 15.8744 7.35079 15.4476 7.35079L14.5072 7.35079C14.0706 7.35079 13.8311 7.60239 13.8311 7.98841L13.8311 13.0153C13.8311 13.399 14.0706 13.6529 14.5072 13.6529Z"
                     fill="currentColor" fill-opacity="0.85" />
       </g>
</svg>