<?xml version="1.0" encoding="UTF-8"?>
<!--Generator: Apple Native CoreSVG 326-->
<!DOCTYPE svg PUBLIC "-//W3C//DTD SVG 1.1//EN" "http://www.w3.org/Graphics/SVG/1.1/DTD/svg11.dtd">
<svg version="1.1" xmlns="http://www.w3.org/2000/svg" xmlns:xlink="http://www.w3.org/1999/xlink"
       viewBox="0 0 26.2153 21.8091">
       <g>
              <rect height="21.8091" opacity="0" width="26.2153" x="0" y="0" />
              <path d="M3.28568 18.0337L22.5683 18.0337C24.6307 18.0337 25.854 16.808 25.854 14.748L25.854 3.28568C25.854 1.22562 24.6307 0 22.5683 0L3.28568 0C1.22562 0 0 1.22562 0 3.28568L0 14.748C0 16.808 1.22562 18.0337 3.28568 18.0337ZM3.65817 15.208C3.11985 15.208 2.82567 14.9511 2.82567 14.3778L2.82567 3.66333C2.82567 3.08254 3.11985 2.83313 3.65817 2.83313L22.1958 2.83313C22.7341 2.83313 23.0283 3.08254 23.0283 3.66333L23.0283 14.3778C23.0283 14.9511 22.7341 15.208 22.1958 15.208ZM7.6605 21.7918L18.1935 21.7918C18.8619 21.7918 19.3874 21.2314 19.3874 20.6054C19.3874 19.9794 18.8619 19.419 18.1935 19.419L7.6605 19.419C6.99207 19.419 6.4666 19.9794 6.4666 20.6054C6.4666 21.2314 6.99207 21.7918 7.6605 21.7918Z"
                     fill="currentColor" fill-opacity="0.85" />
              <path d="M9.53538 12.9565C9.53538 13.5211 10.1815 13.8037 10.6835 13.5148L17.3564 9.65493C17.8487 9.37349 17.8314 8.68255 17.3541 8.40341L10.6835 4.52349C10.1815 4.23458 9.53538 4.52458 9.53538 5.10415Z"
                     fill="currentColor" fill-opacity="0.85" />
       </g>
</svg>