<?xml version="1.0" encoding="UTF-8"?>
<!--Generator: Apple Native CoreSVG 326-->
<!DOCTYPE svg PUBLIC "-//W3C//DTD SVG 1.1//EN" "http://www.w3.org/Graphics/SVG/1.1/DTD/svg11.dtd">
<svg version="1.1" xmlns="http://www.w3.org/2000/svg" xmlns:xlink="http://www.w3.org/1999/xlink"
       viewBox="0 0 21.365 21.006">
       <g>
              <rect height="21.006" opacity="0" width="21.365" x="0" y="0" />
              <path d="M21.0037 10.4981C21.0037 16.2923 16.302 20.9962 10.4981 20.9962C4.70394 20.9962 0 16.2923 0 10.4981C0 4.70163 4.70394 0 10.4981 0C16.302 0 21.0037 4.70163 21.0037 10.4981ZM4.52974 7.65583L4.52974 13.3898C4.52974 13.8161 5.01232 14.0705 5.40931 13.8022L9.59324 11.0054C9.94656 10.7692 9.93164 10.2815 9.59324 10.0425L5.40931 7.22614C5.03415 6.96993 4.52974 7.2393 4.52974 7.65583ZM11.3516 7.14407C10.8805 7.14407 10.6336 7.4129 10.6336 7.83106L10.6336 13.1652C10.6336 13.581 10.8805 13.8596 11.3516 13.8596L12.3436 13.8596C12.8072 13.8596 13.0668 13.581 13.0668 13.1652L13.0668 7.83106C13.0668 7.4129 12.8072 7.14407 12.3436 7.14407ZM14.7656 7.14407C14.3095 7.14407 14.0453 7.4129 14.0453 7.8236L14.0453 13.1801C14.0453 13.581 14.3095 13.8596 14.7656 13.8596L15.7726 13.8596C16.2166 13.8596 16.4786 13.581 16.4786 13.1801L16.4786 7.8236C16.4786 7.4129 16.2166 7.14407 15.7726 7.14407Z"
                     fill="currentColor" fill-opacity="0.85" />
       </g>
</svg>