<?xml version="1.0" encoding="UTF-8"?>
<!--Generator: Apple Native CoreSVG 326-->
<!DOCTYPE svg PUBLIC "-//W3C//DTD SVG 1.1//EN" "http://www.w3.org/Graphics/SVG/1.1/DTD/svg11.dtd">
<svg version="1.1" xmlns="http://www.w3.org/2000/svg" xmlns:xlink="http://www.w3.org/1999/xlink"
       viewBox="0 0 25.9124 22.1831">
       <g>
              <rect height="22.1831" opacity="0" width="25.9124" x="0" y="0" />
              <path d="M13.4249 5.86096L22.0043 13.067L22.0043 19.6197C22.0043 21.1636 20.9327 22.1635 19.2647 22.1635L6.26626 22.1635C4.59834 22.1635 3.5169 21.1636 3.5169 19.6197L3.5169 13.067L12.1187 5.86096C12.5248 5.52092 13.0165 5.51115 13.4249 5.86096ZM10.1139 11.492L10.1139 18.5078C10.1139 19.0116 10.6768 19.2619 11.1351 18.9926L17.0778 15.5585C17.5263 15.3063 17.5166 14.6912 17.0755 14.4437L11.1351 10.9797C10.6768 10.7103 10.1139 10.9808 10.1139 11.492ZM14.7644 0.767179L18.4578 3.86594L18.4578 2.70126C18.4578 2.2268 18.7783 1.92352 19.243 1.92352L21.4443 1.92352C21.9113 1.92352 22.2146 2.2268 22.2146 2.70126L22.2146 7.01788L24.9401 9.30464C25.3289 9.62964 25.5511 10.0878 25.5511 10.5139C25.5511 11.3545 24.9551 11.9442 24.0398 11.9442C23.6395 11.9442 23.2209 11.7604 22.8764 11.4601L13.4195 3.53819C13.2076 3.36077 12.9934 3.26718 12.7718 3.26718C12.5599 3.26718 12.3434 3.36077 12.1316 3.53819L2.677 11.4601C2.33017 11.7604 1.91158 11.9442 1.51131 11.9442C0.596007 11.9442 0 11.3545 0 10.5139C0 10.0878 0.224488 9.62964 0.610929 9.30464L10.7867 0.767179C11.3891 0.2607 12.0879 0 12.7718 0C13.4632 0 14.162 0.2607 14.7644 0.767179Z"
                     fill="currentColor" fill-opacity="0.85" />
       </g>
</svg>