<?xml version="1.0" encoding="UTF-8"?>
<!--Generator: Apple Native CoreSVG 326-->
<!DOCTYPE svg PUBLIC "-//W3C//DTD SVG 1.1//EN" "http://www.w3.org/Graphics/SVG/1.1/DTD/svg11.dtd">
<svg version="1.1" xmlns="http://www.w3.org/2000/svg" xmlns:xlink="http://www.w3.org/1999/xlink"
       viewBox="0 0 18.6317 18.8034">
       <g>
              <rect height="18.8034" opacity="0" width="18.6317" x="0" y="0" />
              <path d="M1.82836 16.6741C1.82836 18.0661 2.70581 18.7937 3.75783 18.7937C4.19255 18.7937 4.66688 18.6662 5.11137 18.4129L17.1598 11.3895C18.0972 10.8462 18.6317 10.2777 18.6317 9.39684C18.6317 8.51369 18.0972 7.94752 17.1598 7.3967L5.11137 0.380738C4.66688 0.117733 4.19255 0 3.75783 0C2.70581 0 1.82836 0.720109 1.82836 2.11963ZM4.86292 14.69L4.86292 4.10369C4.86292 3.86822 5.06394 3.73787 5.27011 3.86307L14.4338 9.15852C14.5394 9.2102 14.5934 9.3084 14.5934 9.39684C14.5934 9.48528 14.5394 9.56625 14.4338 9.63516L5.27011 14.9306C5.06394 15.0483 4.86292 14.9255 4.86292 14.69Z"
                     fill="currentColor" fill-opacity="0.85" />
       </g>
</svg>