<?xml version="1.0" encoding="UTF-8"?>
<!--Generator: Apple Native CoreSVG 326-->
<!DOCTYPE svg PUBLIC "-//W3C//DTD SVG 1.1//EN" "http://www.w3.org/Graphics/SVG/1.1/DTD/svg11.dtd">
<svg version="1.1" xmlns="http://www.w3.org/2000/svg" xmlns:xlink="http://www.w3.org/1999/xlink"
       viewBox="0 0 28.9689 25.2415">
       <g>
              <rect height="25.2415" opacity="0" width="28.9689" x="0" y="0" />
              <path d="M21.9446 5.02881L10.3071 5.02881C7.02403 5.02881 4.93522 7.11532 4.93522 10.384L4.93522 18.484C2.65085 18.4566 1.35706 17.1411 1.35706 14.8477L1.35706 5.34774C1.35706 3.03014 2.68088 1.70862 5.01286 1.70862L18.3005 1.70862C20.5225 1.70862 21.8292 2.90847 21.9446 5.02881Z"
                     fill="currentColor" fill-opacity="0.85" />
              <path d="M27.2505 10.384L27.2505 19.8765C27.2505 22.2016 25.9267 23.5156 23.6022 23.5156L10.3071 23.5156C7.97512 23.5156 6.65876 22.2039 6.65876 19.8765L6.65876 10.384C6.65876 8.06641 7.97512 6.74489 10.3071 6.74489L23.6022 6.74489C25.9267 6.74489 27.2505 8.06641 27.2505 10.384ZM15.6448 11.6169L15.6448 13.823L13.4387 13.823C12.7047 13.823 12.1592 14.3811 12.1592 15.1375C12.1592 15.8869 12.707 16.445 13.4387 16.445L15.6448 16.445L15.6448 18.6534C15.6448 19.3828 16.2006 19.9306 16.9523 19.9306C17.7064 19.9306 18.2668 19.3828 18.2668 18.6534L18.2668 16.445L20.4752 16.445C21.2046 16.445 21.7599 15.8869 21.7599 15.1375C21.7599 14.3811 21.2046 13.823 20.4752 13.823L18.2668 13.823L18.2668 11.6169C18.2668 10.8755 17.7064 10.3299 16.9523 10.3299C16.2006 10.3299 15.6448 10.8778 15.6448 11.6169Z"
                     fill="currentColor" fill-opacity="0.85" />
       </g>
</svg>