<?xml version="1.0" encoding="UTF-8"?>
<!--Generator: Apple Native CoreSVG 326-->
<!DOCTYPE svg PUBLIC "-//W3C//DTD SVG 1.1//EN" "http://www.w3.org/Graphics/SVG/1.1/DTD/svg11.dtd">
<svg version="1.1" xmlns="http://www.w3.org/2000/svg" xmlns:xlink="http://www.w3.org/1999/xlink"
       viewBox="0 0 17.4594 17.1033">
       <g>
              <rect height="17.1033" opacity="0" width="17.4594" x="0" y="0" />
              <path d="M0 8.5542C0 9.54751 0.803269 10.3559 1.80173 10.3559L6.75478 10.3559L6.75478 15.309C6.75478 16.3 7.55574 17.1033 8.54905 17.1033C9.54235 17.1033 10.3531 16.3 10.3531 15.309L10.3531 10.3559L15.3038 10.3559C16.2948 10.3559 17.0981 9.54751 17.0981 8.5542C17.0981 7.5609 16.2948 6.75017 15.3038 6.75017L10.3531 6.75017L10.3531 1.80689C10.3531 0.808425 9.54235 0.0051558 8.54905 0.0051558C7.55574 0.0051558 6.75478 0.808425 6.75478 1.80689L6.75478 6.75017L1.80173 6.75017C0.803269 6.75017 0 7.5609 0 8.5542Z"
                     fill="currentColor" fill-opacity="0.85" />
       </g>
</svg>