<?xml version="1.0" encoding="UTF-8"?>
<!--Generator: Apple Native CoreSVG 326-->
<!DOCTYPE svg PUBLIC "-//W3C//DTD SVG 1.1//EN" "http://www.w3.org/Graphics/SVG/1.1/DTD/svg11.dtd">
<svg version="1.1" xmlns="http://www.w3.org/2000/svg" xmlns:xlink="http://www.w3.org/1999/xlink"
       viewBox="0 0 23.8214 19.0529">
       <g>
              <rect height="19.0529" opacity="0" width="23.8214" x="0" y="0" />
              <path d="M23.4601 3.65404L23.4601 15.416C23.4601 17.7336 22.1386 19.0529 19.8117 19.0529L3.64834 19.0529C1.32382 19.0529 0 17.7336 0 15.416L0 3.65404C0 1.32897 1.32382 0.0149214 3.64834 0.0149214L19.8117 0.0149214C22.1386 0.0149214 23.4601 1.32897 23.4601 3.65404ZM10.4276 6.01302L10.4276 8.21914L8.22151 8.21914C7.48241 8.21914 6.93456 8.7796 6.93456 9.53362C6.93456 10.2853 7.48241 10.8412 8.22151 10.8412L10.4276 10.8412L10.4276 13.0496C10.4276 13.7789 10.9858 14.3342 11.7352 14.3342C12.484 14.3342 13.052 13.7812 13.052 13.0496L13.052 10.8412L15.2581 10.8412C15.9897 10.8412 16.5353 10.2853 16.5353 9.53362C16.5353 8.7796 15.9897 8.21914 15.2581 8.21914L13.052 8.21914L13.052 6.01302C13.052 5.28139 12.484 4.73354 11.7352 4.73354C10.9858 4.73354 10.4276 5.28139 10.4276 6.01302Z"
                     fill="currentColor" fill-opacity="0.85" />
       </g>
</svg>