<?xml version="1.0" encoding="UTF-8"?>
<!--Generator: Apple Native CoreSVG 326-->
<!DOCTYPE svg PUBLIC "-//W3C//DTD SVG 1.1//EN" "http://www.w3.org/Graphics/SVG/1.1/DTD/svg11.dtd">
<svg version="1.1" xmlns="http://www.w3.org/2000/svg" xmlns:xlink="http://www.w3.org/1999/xlink"
       viewBox="0 0 34.7018 24.6242">
       <g>
              <rect height="24.6242" opacity="0" width="34.7018" x="0" y="0" />
              <path d="M15.8753 11.2231C15.8753 14.4098 17.9119 16.4515 21.1129 16.4515L28.6844 16.4515L28.6844 18.0748C28.6844 20.3924 27.3703 21.7139 25.1276 21.7139L9.30446 21.7139C6.97478 21.7139 5.64866 20.3947 5.64866 18.0748L5.64866 11.0294L15.8753 11.0294ZM14.4601 3.31206L14.8991 3.65113C15.2829 3.93778 15.6038 4.1204 15.951 4.22589C15.8994 4.54201 15.8753 4.87576 15.8753 5.22322L15.8753 9.23531L5.64866 9.23531L5.64866 6.17048C5.64866 3.84202 7.0304 2.49988 9.20941 2.49988L11.9105 2.49988C13.1161 2.49988 13.644 2.69804 14.4601 3.31206Z"
                     fill="currentColor" fill-opacity="0.85" />
              <path d="M32.9857 5.22322L32.9857 11.2231C32.9857 13.4587 31.7118 14.7354 29.4642 14.7354L21.1129 14.7354C18.8629 14.7354 17.5913 13.4587 17.5913 11.2231L17.5913 5.22322C17.5913 2.99283 18.8629 1.71839 21.1129 1.71839L29.4642 1.71839C31.7118 1.71839 32.9857 2.99283 32.9857 5.22322ZM24.4082 5.68614L24.4082 7.33908L22.7426 7.33908C22.2097 7.33908 21.8611 7.69283 21.8611 8.22575C21.8611 8.75122 22.2246 9.10496 22.7426 9.10496L24.4082 9.10496L24.4082 10.7877C24.4082 11.3057 24.7619 11.6595 25.2972 11.6595C25.8226 11.6595 26.1764 11.3057 26.1764 10.7877L26.1764 9.10496L27.8494 9.10496C28.3674 9.10496 28.7211 8.75122 28.7211 8.22575C28.7211 7.69283 28.3674 7.33908 27.8494 7.33908L26.1764 7.33908L26.1764 5.68614C26.1764 5.14806 25.8226 4.80693 25.2972 4.80693C24.7619 4.80693 24.4082 5.16298 24.4082 5.68614Z"
                     fill="currentColor" fill-opacity="0.85" />
       </g>
</svg>