<?xml version="1.0" encoding="UTF-8"?>
<!--Generator: Apple Native CoreSVG 326-->
<!DOCTYPE svg PUBLIC "-//W3C//DTD SVG 1.1//EN" "http://www.w3.org/Graphics/SVG/1.1/DTD/svg11.dtd">
<svg version="1.1" xmlns="http://www.w3.org/2000/svg" xmlns:xlink="http://www.w3.org/1999/xlink"
       viewBox="0 0 23.788 23.4308">
       <g>
              <rect height="23.4308" opacity="0" width="23.788" x="0" y="0" />
              <path d="M1.2442 14.294L9.12615 22.176C10.7804 23.8302 12.6463 23.8325 14.2908 22.1903L22.1894 14.2894C23.839 12.6398 23.8292 10.779 22.1825 9.12477L14.2954 1.23766C12.6486-0.409091 10.7827-0.413701 9.13822 1.23075L1.22982 9.12938C-0.414627 10.7813-0.410017 12.6398 1.2442 14.294ZM3.67517 12.4416C3.18095 11.9473 3.1488 11.4984 3.67748 10.9697L10.9763 3.67094C11.505 3.14226 11.9539 3.17441 12.4481 3.66864L19.7515 10.972C20.2434 11.464 20.2779 11.9227 19.7492 12.4439L12.4504 19.7501C11.9217 20.2713 11.4705 20.2444 10.9786 19.7547Z"
                     fill="currentColor" fill-opacity="0.85" />
              <path d="M7.24781 11.7105C7.24781 12.4054 7.75374 12.9291 8.44577 12.9291L10.4962 12.9291L10.4962 14.9818C10.4962 15.6641 11.0147 16.1775 11.7148 16.1775C12.4143 16.1775 12.9403 15.6664 12.9403 14.9818L12.9403 12.9291L14.993 12.9291C15.6752 12.9291 16.1812 12.4054 16.1812 11.7105C16.1812 11.0059 15.6775 10.485 14.993 10.485L12.9403 10.485L12.9403 8.43463C12.9403 7.7426 12.4143 7.23667 11.7148 7.23667C11.0147 7.23667 10.4962 7.7426 10.4962 8.43463L10.4962 10.485L8.44577 10.485C7.75374 10.485 7.24781 11.0059 7.24781 11.7105Z"
                     fill="currentColor" fill-opacity="0.85" />
       </g>
</svg>