<?xml version="1.0" encoding="UTF-8"?>
<!--Generator: Apple Native CoreSVG 326-->
<!DOCTYPE svg PUBLIC "-//W3C//DTD SVG 1.1//EN" "http://www.w3.org/Graphics/SVG/1.1/DTD/svg11.dtd">
<svg version="1.1" xmlns="http://www.w3.org/2000/svg" xmlns:xlink="http://www.w3.org/1999/xlink"
       viewBox="0 0 21.365 21.006">
       <g>
              <rect height="21.006" opacity="0" width="21.365" x="0" y="0" />
              <path d="M21.0037 10.4981C21.0037 16.2923 16.302 20.9962 10.4981 20.9962C4.70394 20.9962 0 16.2923 0 10.4981C0 4.70163 4.70394 0 10.4981 0C16.302 0 21.0037 4.70163 21.0037 10.4981ZM9.18594 6.97982L9.18594 9.18594L6.98728 9.18594C6.24818 9.18594 5.70264 9.7464 5.70264 10.5004C5.70264 11.2521 6.24818 11.808 6.98728 11.808L9.18594 11.808L9.18594 14.0164C9.18594 14.7457 9.75155 15.2936 10.4958 15.2936C11.2498 15.2936 11.8103 14.748 11.8103 14.0164L11.8103 11.808L14.0187 11.808C14.7555 11.808 15.3033 11.2521 15.3033 10.5004C15.3033 9.7464 14.7555 9.18594 14.0187 9.18594L11.8103 9.18594L11.8103 6.97982C11.8103 6.24818 11.2498 5.69288 10.4958 5.69288C9.75155 5.69288 9.18594 6.24818 9.18594 6.97982Z"
                     fill="currentColor" fill-opacity="0.85" />
       </g>
</svg>