<?xml version="1.0" encoding="UTF-8"?>
<!--Generator: Apple Native CoreSVG 326-->
<!DOCTYPE svg PUBLIC "-//W3C//DTD SVG 1.1//EN" "http://www.w3.org/Graphics/SVG/1.1/DTD/svg11.dtd">
<svg version="1.1" xmlns="http://www.w3.org/2000/svg" xmlns:xlink="http://www.w3.org/1999/xlink"
       viewBox="0 0 21.365 21.006">
       <g>
              <rect height="21.006" opacity="0" width="21.365" x="0" y="0" />
              <path d="M10.4981 20.9962C16.302 20.9962 21.0037 16.2946 21.0037 10.4981C21.0037 4.70163 16.302 0 10.4981 0C4.70163 0 0 4.70163 0 10.4981C0 16.2946 4.70163 20.9962 10.4981 20.9962ZM10.4981 17.9484C6.37829 17.9484 3.04785 14.6179 3.04785 10.4981C3.04785 6.37829 6.37829 3.04785 10.4981 3.04785C14.6179 3.04785 17.9558 6.37829 17.9558 10.4981C17.9558 14.6179 14.6179 17.9484 10.4981 17.9484Z"
                     fill="currentColor" fill-opacity="0.85" />
              <path d="M6.02654 10.4981C6.02654 11.193 6.53763 11.7167 7.2222 11.7167L9.27261 11.7167L9.27261 13.7694C9.27261 14.4517 9.79862 14.9651 10.4935 14.9651C11.1981 14.9651 11.719 14.454 11.719 13.7694L11.719 11.7167L13.7792 11.7167C14.4614 11.7167 14.9674 11.193 14.9674 10.4981C14.9674 9.79347 14.4614 9.27261 13.7792 9.27261L11.719 9.27261L11.719 7.2222C11.719 6.53017 11.1981 6.02424 10.4935 6.02424C9.79862 6.02424 9.27261 6.53017 9.27261 7.2222L9.27261 9.27261L7.2222 9.27261C6.53763 9.27261 6.02654 9.79347 6.02654 10.4981Z"
                     fill="currentColor" fill-opacity="0.85" />
       </g>
</svg>