<?xml version="1.0" encoding="UTF-8"?>
<!--Generator: Apple Native CoreSVG 326-->
<!DOCTYPE svg PUBLIC "-//W3C//DTD SVG 1.1//EN" "http://www.w3.org/Graphics/SVG/1.1/DTD/svg11.dtd">
<svg version="1.1" xmlns="http://www.w3.org/2000/svg" xmlns:xlink="http://www.w3.org/1999/xlink"
       viewBox="0 0 19.3993 19.0575">
       <g>
              <rect height="19.0575" opacity="0" width="19.3993" x="0" y="0" />
              <path d="M0 5.33015L3.01964 5.33015L3.01964 4.07997C3.01964 3.34785 3.37024 3.03918 4.05583 3.03918L5.3014 3.03918L5.3014 0.0195312L3.64834 0.0195312C1.32382 0.0195312 0 1.33128 0 3.65865ZM7.01979 3.03918L12.0181 3.03918L12.0181 0.0195312L7.01979 0.0195312ZM16.0183 5.33015L19.0379 5.33015L19.0379 3.65865C19.0379 1.33358 17.7141 0.0195312 15.3896 0.0195312L13.7365 0.0195312L13.7365 3.03918L14.9821 3.03918C15.6654 3.03918 16.0183 3.34785 16.0183 4.07997ZM16.0183 12.021L19.0379 12.021L19.0379 7.04854L16.0183 7.04854ZM13.7365 19.0575L15.3896 19.0575C17.7141 19.0575 19.0379 17.736 19.0379 15.4183L19.0379 13.7394L16.0183 13.7394L16.0183 14.9896C16.0183 15.7217 15.6654 16.0378 14.9821 16.0378L13.7365 16.0378ZM7.01979 19.0575L12.0181 19.0575L12.0181 16.0378L7.01979 16.0378ZM3.64834 19.0575L5.3014 19.0575L5.3014 16.0378L4.05583 16.0378C3.37024 16.0378 3.01964 15.7217 3.01964 14.9896L3.01964 13.7394L0 13.7394L0 15.4183C0 17.7383 1.32382 19.0575 3.64834 19.0575ZM0 12.021L3.01964 12.021L3.01964 7.04854L0 7.04854Z"
                     fill="currentColor" fill-opacity="0.85" />
              <path d="M5.05459 9.52385C5.05459 10.2187 5.56568 10.7424 6.25024 10.7424L8.30066 10.7424L8.30066 12.7952C8.30066 13.4774 8.81921 13.9908 9.52155 13.9908C10.2262 13.9908 10.747 13.4797 10.747 12.7952L10.747 10.7424L12.7998 10.7424C13.4895 10.7424 13.9954 10.2187 13.9954 9.52385C13.9954 8.81921 13.4895 8.29836 12.7998 8.29836L10.747 8.29836L10.747 6.24794C10.747 5.55591 10.2262 5.04998 9.52155 5.04998C8.81921 5.04998 8.30066 5.55591 8.30066 6.24794L8.30066 8.29836L6.25024 8.29836C5.56568 8.29836 5.05459 8.81921 5.05459 9.52385Z"
                     fill="currentColor" fill-opacity="0.85" />
       </g>
</svg>