<?xml version="1.0" encoding="UTF-8"?>
<!--Generator: Apple Native CoreSVG 326-->
<!DOCTYPE svg PUBLIC "-//W3C//DTD SVG 1.1//EN" "http://www.w3.org/Graphics/SVG/1.1/DTD/svg11.dtd">
<svg version="1.1" xmlns="http://www.w3.org/2000/svg" xmlns:xlink="http://www.w3.org/1999/xlink"
       viewBox="0 0 21.365 21.006">
       <g>
              <rect height="21.006" opacity="0" width="21.365" x="0" y="0" />
              <path d="M10.4981 20.9962C16.302 20.9962 21.0037 16.2946 21.0037 10.4981C21.0037 4.70163 16.302 0 10.4981 0C4.70163 0 0 4.70163 0 10.4981C0 16.2946 4.70163 20.9962 10.4981 20.9962ZM10.4981 17.9484C6.37829 17.9484 3.04785 14.6179 3.04785 10.4981C3.04785 6.37829 6.37829 3.04785 10.4981 3.04785C14.6179 3.04785 17.9558 6.37829 17.9558 10.4981C17.9558 14.6179 14.6179 17.9484 10.4981 17.9484Z"
                     fill="currentColor" fill-opacity="0.85" />
              <path d="M6.87585 8.69772C6.87585 9.29263 7.28303 9.69982 7.88025 9.69982L9.49831 9.69982L9.49831 11.2283C9.49831 11.8135 9.9055 12.2304 10.5004 12.2304C11.1028 12.2304 11.5123 11.8135 11.5123 11.2358L11.5123 9.69982L13.1108 9.69982C13.7057 9.69982 14.1227 9.29263 14.1227 8.69772C14.1227 8.1028 13.7057 7.69331 13.1108 7.69331L11.5123 7.69331L11.5123 6.16478C11.5123 5.56987 11.1028 5.15522 10.5004 5.15522C9.9055 5.15522 9.49831 5.56987 9.49831 6.16478L9.49831 7.69331L7.88025 7.69331C7.28303 7.69331 6.87585 8.1028 6.87585 8.69772ZM6.87585 14.2592C6.87585 14.8248 7.33526 15.2636 7.96463 15.2636L13.0339 15.2636C13.6535 15.2636 14.1227 14.8248 14.1227 14.2592C14.1227 13.6741 13.6535 13.2347 13.0339 13.2347L7.96463 13.2347C7.33526 13.2347 6.87585 13.6741 6.87585 14.2592Z"
                     fill="currentColor" fill-opacity="0.85" />
       </g>
</svg>