<?xml version="1.0" encoding="UTF-8"?>
<!--Generator: Apple Native CoreSVG 326-->
<!DOCTYPE svg PUBLIC "-//W3C//DTD SVG 1.1//EN" "http://www.w3.org/Graphics/SVG/1.1/DTD/svg11.dtd">
<svg version="1.1" xmlns="http://www.w3.org/2000/svg" xmlns:xlink="http://www.w3.org/1999/xlink"
       viewBox="0 0 21.365 21.006">
       <g>
              <rect height="21.006" opacity="0" width="21.365" x="0" y="0" />
              <path d="M21.0037 10.5079C21.0037 16.3043 16.302 21.006 10.4981 21.006C4.70394 21.006 0 16.3043 0 10.5079C0 4.7137 4.70394 0.00976562 10.4981 0.00976562C16.302 0.00976562 21.0037 4.7137 21.0037 10.5079ZM7.79697 13.4489C7.128 13.4489 6.63644 13.9152 6.63644 14.5423C6.63644 15.155 7.128 15.6236 7.79697 15.6236L13.2062 15.6236C13.8728 15.6236 14.3667 15.155 14.3667 14.5423C14.3667 13.9152 13.8728 13.4489 13.2062 13.4489ZM9.43402 5.90353L9.43402 7.53773L7.7126 7.53773C7.07577 7.53773 6.63644 7.9719 6.63644 8.61389C6.63644 9.24841 7.07577 9.69005 7.7126 9.69005L9.43402 9.69005L9.43402 11.307C9.43402 11.9467 9.87566 12.3906 10.5102 12.3906C11.1522 12.3906 11.5812 11.949 11.5812 11.3294L11.5812 9.69005L13.2905 9.69005C13.9251 9.69005 14.3667 9.24841 14.3667 8.61389C14.3667 7.9719 13.9251 7.53773 13.2905 7.53773L11.5812 7.53773L11.5812 5.90353C11.5812 5.26155 11.1522 4.82222 10.5102 4.82222C9.87566 4.82222 9.43402 5.26385 9.43402 5.90353Z"
                     fill="currentColor" fill-opacity="0.85" />
       </g>
</svg>