<?xml version="1.0" encoding="UTF-8"?>
<!--Generator: Apple Native CoreSVG 326-->
<!DOCTYPE svg PUBLIC "-//W3C//DTD SVG 1.1//EN" "http://www.w3.org/Graphics/SVG/1.1/DTD/svg11.dtd">
<svg version="1.1" xmlns="http://www.w3.org/2000/svg" xmlns:xlink="http://www.w3.org/1999/xlink"
       viewBox="0 0 18.145 21.7932">
       <g>
              <rect height="21.7932" opacity="0" width="18.145" x="0" y="0" />
              <path d="M0 18.1397C0 20.4717 1.31921 21.7932 3.63912 21.7932L14.1445 21.7932C16.4719 21.7932 17.7836 20.4717 17.7836 18.1397L17.7836 3.66096C17.7836 1.33128 16.4719 0.0051558 14.1445 0.0051558L3.63912 0.0051558C1.31921 0.0051558 0 1.33128 0 3.66096ZM3.01964 17.7299L3.01964 4.07075C3.01964 3.3777 3.32832 3.0248 4.0679 3.0248L13.7232 3.0248C14.4553 3.0248 14.764 3.3777 14.764 4.07075L14.764 17.7299C14.764 18.4229 14.4553 18.7735 13.7232 18.7735L4.0679 18.7735C3.32832 18.7735 3.01964 18.4229 3.01964 17.7299Z"
                     fill="currentColor" fill-opacity="0.85" />
              <path d="M4.43002 10.8917C4.43002 11.5866 4.93595 12.1103 5.62797 12.1103L7.67839 12.1103L7.67839 14.163C7.67839 14.8453 8.19694 15.3587 8.89697 15.3587C9.59646 15.3587 10.1225 14.8476 10.1225 14.163L10.1225 12.1103L12.1752 12.1103C12.8574 12.1103 13.3708 11.5866 13.3708 10.8917C13.3708 10.1871 12.8598 9.66621 12.1752 9.66621L10.1225 9.66621L10.1225 7.61579C10.1225 6.92377 9.59646 6.41784 8.89697 6.41784C8.19694 6.41784 7.67839 6.92377 7.67839 7.61579L7.67839 9.66621L5.62797 9.66621C4.93595 9.66621 4.43002 10.1871 4.43002 10.8917Z"
                     fill="currentColor" fill-opacity="0.85" />
       </g>
</svg>