<?xml version="1.0" encoding="UTF-8"?>
<!--Generator: Apple Native CoreSVG 326-->
<!DOCTYPE svg PUBLIC "-//W3C//DTD SVG 1.1//EN" "http://www.w3.org/Graphics/SVG/1.1/DTD/svg11.dtd">
<svg version="1.1" xmlns="http://www.w3.org/2000/svg" xmlns:xlink="http://www.w3.org/1999/xlink"
       viewBox="0 0 23.3769 22.7958">
       <g>
              <rect height="22.7958" opacity="0" width="23.3769" x="0" y="0" />
              <path d="M23.0156 5.99015L23.0156 13.866C23.0156 16.884 21.095 18.8213 18.0654 18.8213L12.113 18.8213L8.38613 22.0888C7.80777 22.6005 7.4052 22.7958 6.92735 22.7958C6.23642 22.7958 5.80454 22.3208 5.80454 21.5587L5.80454 18.8213L4.68902 18.8213C2.09221 18.8213 0 16.8863 0 13.866L0 5.99015C0 2.96984 1.92061 1.03255 4.95014 1.03255L18.0654 1.03255C21.095 1.03255 23.0156 2.97215 23.0156 5.99015ZM10.2054 6.41123L10.2054 8.60988L7.99926 8.60988C7.26017 8.60988 6.71232 9.17781 6.71232 9.93182C6.71232 10.6761 7.26017 11.2319 7.99926 11.2319L10.2054 11.2319L10.2054 13.4404C10.2054 14.1771 10.7635 14.725 11.5129 14.725C12.2618 14.725 12.8274 14.1794 12.8274 13.4404L12.8274 11.2319L15.0358 11.2319C15.7652 11.2319 16.313 10.6761 16.313 9.93182C16.313 9.17781 15.7675 8.60988 15.0358 8.60988L12.8274 8.60988L12.8274 6.41123C12.8274 5.67213 12.2618 5.12429 11.5129 5.12429C10.7635 5.12429 10.2054 5.67213 10.2054 6.41123Z"
                     fill="currentColor" fill-opacity="0.85" />
       </g>
</svg>