<?xml version="1.0" encoding="UTF-8"?>
<!--Generator: Apple Native CoreSVG 326-->
<!DOCTYPE svg PUBLIC "-//W3C//DTD SVG 1.1//EN" "http://www.w3.org/Graphics/SVG/1.1/DTD/svg11.dtd">
<svg version="1.1" xmlns="http://www.w3.org/2000/svg" xmlns:xlink="http://www.w3.org/1999/xlink"
       viewBox="0 0 20.225 23.6154">
       <g>
              <rect height="23.6154" opacity="0" width="20.225" x="0" y="0" />
              <path d="M12.125 3.86822C12.125 4.30101 12.1959 4.71728 12.3298 5.10457L6.17606 5.10457C4.07579 5.10457 3.01964 5.90099 3.01964 7.2931C3.01964 8.71452 4.20329 9.60628 7.23973 9.92394L13.03 10.5248C17.5054 10.9803 19.8637 13.0767 19.8637 16.3223C19.8637 19.5094 17.409 21.523 13.6802 21.523L7.30512 21.523C7.58767 20.9877 7.74621 20.3773 7.74621 19.73C7.74621 19.301 7.67595 18.8881 7.54335 18.5034L13.6802 18.5034C15.7805 18.5034 16.8441 17.7144 16.8441 16.3223C16.8441 14.9009 15.6581 14.0091 12.6165 13.6915L6.82169 13.0906C2.34854 12.6351 0 10.5388 0 7.2931C0 4.10605 2.44729 2.08493 6.17606 2.08493L12.5647 2.08493C12.2831 2.61799 12.125 3.22515 12.125 3.86822Z"
                     fill="currentColor" fill-opacity="0.85" />
              <path d="M3.87053 23.6079C6.01169 23.6079 7.74621 21.8711 7.74621 19.73C7.74621 17.5986 6.01169 15.8617 3.87053 15.8617C1.73683 15.8617 0.00230491 17.5986 0.00230491 19.73C0.00230491 21.8711 1.73683 23.6079 3.87053 23.6079ZM15.9932 7.74621C18.1292 7.74621 19.8637 6.00938 19.8637 3.86822C19.8637 1.73683 18.1292 0 15.9932 0C13.8618 0 12.125 1.73683 12.125 3.86822C12.125 6.00938 13.8618 7.74621 15.9932 7.74621ZM15.9932 5.10882C15.2962 5.10882 14.7549 4.56006 14.7549 3.86822C14.7549 3.16146 15.291 2.62993 15.9932 2.62993C16.7023 2.62993 17.2338 3.154 17.2338 3.86822C17.2338 4.56752 16.6948 5.10882 15.9932 5.10882Z"
                     fill="currentColor" fill-opacity="0.85" />
       </g>
</svg>