<?xml version="1.0" encoding="UTF-8"?>
<!--Generator: Apple Native CoreSVG 326-->
<!DOCTYPE svg PUBLIC "-//W3C//DTD SVG 1.1//EN" "http://www.w3.org/Graphics/SVG/1.1/DTD/svg11.dtd">
<svg version="1.1" xmlns="http://www.w3.org/2000/svg" xmlns:xlink="http://www.w3.org/1999/xlink"
       viewBox="0 0 24.3303 21.006">
       <g>
              <rect height="21.006" opacity="0" width="24.3303" x="0" y="0" />
              <path d="M11.9856 20.9962C17.7821 20.9962 22.4837 16.2946 22.4837 10.4981C22.4837 4.70163 17.7821 0 11.9856 0C6.18916 0 1.48753 4.70163 1.48753 10.4981L4.53538 10.4981C4.53538 6.37829 7.86582 3.04785 11.9856 3.04785C16.1055 3.04785 19.4359 6.37829 19.4359 10.4981C19.4359 14.6179 16.1055 17.9484 11.9856 17.9484C9.86874 17.9484 8.05458 17.1034 6.64712 15.6524C5.97135 15.0132 5.0498 14.8117 4.35614 15.4438C3.73423 16.0162 3.72149 16.9286 4.44894 17.7463C6.08398 19.7011 9.21457 20.9962 11.9856 20.9962ZM0.808605 8.39698C-0.0138912 8.39698-0.212055 9.15901 0.22849 9.72826L2.75918 13.0277C3.05907 13.4322 3.60988 13.4224 3.91492 13.0277L6.43585 9.72596C6.86894 9.15901 6.66847 8.39698 5.8655 8.39698Z"
                     fill="currentColor" fill-opacity="0.85" />
              <path d="M8.9845 13.9252L11.799 13.9252C12.1746 13.9252 12.4147 13.6949 12.4147 13.3389C12.4147 12.9903 12.1746 12.76 11.799 12.76L10.4924 12.76L10.4924 12.6376L12.1281 10.0049C12.2728 9.77454 12.336 9.66021 12.336 9.40751C12.336 9.0147 12.0851 8.74072 11.6474 8.74072L8.98789 8.74072C8.61692 8.74072 8.36938 8.97619 8.36938 9.32478C8.36938 9.6906 8.61692 9.9186 8.98789 9.9186L10.4524 9.9186L10.4524 10.0335L8.56524 12.811C8.42282 13.0195 8.36938 13.124 8.36938 13.3325C8.36938 13.6628 8.59684 13.9252 8.9845 13.9252ZM14.261 14.0401C14.7497 14.0401 15.0518 13.7185 15.0518 13.2028L15.0518 7.52172C15.0518 7.00372 14.7497 6.68212 14.261 6.68212C13.77 6.68212 13.4605 7.00372 13.4605 7.51941L13.4605 13.2028C13.4605 13.7185 13.77 14.0401 14.261 14.0401ZM13.3976 10.9396L15.4664 9.86292C15.6789 9.74804 15.757 9.59925 15.757 9.45046C15.757 9.16725 15.4618 8.90128 15.12 9.0696L13.0121 10.183C12.8266 10.2732 12.7289 10.4467 12.7289 10.5955C12.7289 10.881 13.0167 11.1274 13.3976 10.9396Z"
                     fill="currentColor" fill-opacity="0.85" />
       </g>
</svg>