<?xml version="1.0" encoding="UTF-8"?>
<!--Generator: Apple Native CoreSVG 326-->
<!DOCTYPE svg PUBLIC "-//W3C//DTD SVG 1.1//EN" "http://www.w3.org/Graphics/SVG/1.1/DTD/svg11.dtd">
<svg version="1.1" xmlns="http://www.w3.org/2000/svg" xmlns:xlink="http://www.w3.org/1999/xlink"
       viewBox="0 0 25.2371 20.7338">
       <g>
              <rect height="20.7338" opacity="0" width="25.2371" x="0" y="0" />
              <path d="M24.8758 12.3846C24.8758 5.93383 19.9627 0.631336 13.6785 0.00415235C13.2541-0.040066 12.9302 0.274072 12.9302 0.698483L12.9302 4.13058C12.9302 4.48379 13.1829 4.74109 13.5286 4.79046C17.2465 5.32405 20.1044 8.51741 20.1044 12.3846C20.1044 14.1648 19.4989 15.8157 18.4419 17.1359C18.2306 17.4138 18.2329 17.7555 18.4764 18.0012L20.9223 20.4523C21.2117 20.7567 21.6557 20.7417 21.9256 20.4328C23.7735 18.2551 24.8758 15.452 24.8758 12.3846Z"
                     fill="currentColor" fill-opacity="0.85" />
              <path d="M0 12.3846C0 15.4543 1.1023 18.2574 2.94273 20.4276C3.21265 20.7366 3.65429 20.7417 3.9535 20.4448L6.39194 17.9938C6.63541 17.748 6.63772 17.4063 6.42639 17.1284C5.38201 15.8157 4.77139 14.1648 4.77139 12.3846C4.77139 8.51741 7.63678 5.32405 11.3472 4.79046C11.7004 4.74109 11.9456 4.48379 11.9456 4.13058L11.9456 0.698483C11.9456 0.274072 11.6217-0.040066 11.1973 0.00415235C4.92054 0.631336 0 5.93383 0 12.3846Z"
                     fill="currentColor" fill-opacity="0.85" />
              <path d="M9.20432 15.9984L12.2277 15.9984C12.6308 15.9984 12.8933 15.7554 12.8933 15.3672C12.8933 14.9888 12.6308 14.7459 12.2277 14.7459L10.8368 14.7459L10.8368 14.6161L12.5843 11.8019C12.7388 11.559 12.8095 11.4298 12.8095 11.1598C12.8095 10.7297 12.5338 10.4334 12.0686 10.4334L9.20771 10.4334C8.80459 10.4334 8.54213 10.6935 8.54213 11.0719C8.54213 11.4653 8.80459 11.7105 9.20771 11.7105L10.7594 11.7105L10.7594 11.8403L8.74776 14.7946C8.59788 15.018 8.54213 15.1398 8.54213 15.3632C8.54213 15.721 8.78451 15.9984 9.20432 15.9984ZM14.8814 16.1282C15.4074 16.1282 15.7319 15.779 15.7319 15.2186L15.7319 9.13975C15.7319 8.56952 15.4074 8.22784 14.8814 8.22784C14.3456 8.22784 14.0137 8.56952 14.0137 9.13744L14.0137 15.2186C14.0137 15.779 14.3456 16.1282 14.8814 16.1282ZM13.9583 12.7889L16.1763 11.6376C16.4038 11.5153 16.4819 11.3516 16.4819 11.1879C16.4819 10.8823 16.1717 10.6014 15.8075 10.7869L13.5355 11.9801C13.3351 12.08 13.2299 12.261 13.2299 12.4224C13.2299 12.7303 13.5401 12.9991 13.9583 12.7889Z"
                     fill="currentColor" fill-opacity="0.85" />
       </g>
</svg>