<?xml version="1.0" encoding="UTF-8"?>
<!--Generator: Apple Native CoreSVG 326-->
<!DOCTYPE svg PUBLIC "-//W3C//DTD SVG 1.1//EN" "http://www.w3.org/Graphics/SVG/1.1/DTD/svg11.dtd">
<svg version="1.1" xmlns="http://www.w3.org/2000/svg" xmlns:xlink="http://www.w3.org/1999/xlink"
       viewBox="0 0 22.6374 22.2784">
       <g>
              <rect height="22.2784" opacity="0" width="22.6374" x="0" y="0" />
              <path d="M11.1343 22.2687C17.2722 22.2687 22.2761 17.2722 22.2761 11.1343C22.2761 4.99648 17.2722 0 11.1343 0C4.99648 0 0 4.99648 0 11.1343C0 17.2722 4.99648 22.2687 11.1343 22.2687ZM11.1343 18.2927C7.17804 18.2927 3.97601 15.0906 3.97601 11.1343C3.97601 7.17573 7.17804 3.97601 11.1343 3.97601C15.0929 3.97601 18.3001 7.17573 18.3001 11.1343C18.3001 15.0906 15.0929 18.2927 11.1343 18.2927Z"
                     fill="currentColor" fill-opacity="0.85" />
              <path d="M7.91167 14.8077L10.9276 14.8077C11.3307 14.8077 11.5932 14.555 11.5932 14.1765C11.5932 13.7981 11.3307 13.5454 10.9276 13.5454L9.54411 13.5454L9.54411 13.4156L11.2842 10.6112C11.4439 10.366 11.5094 10.2367 11.5094 9.96913C11.5094 9.53155 11.2337 9.24265 10.7685 9.24265L7.9053 9.24265C7.51195 9.24265 7.24203 9.5005 7.24203 9.87893C7.24203 10.2671 7.51195 10.5175 7.9053 10.5175L9.46677 10.5175L9.46677 10.6473L7.44535 13.6039C7.29547 13.8273 7.24203 13.9468 7.24203 14.1702C7.24203 14.5303 7.48441 14.8077 7.91167 14.8077ZM13.5813 14.9375C14.1148 14.9375 14.4392 14.586 14.4392 14.0256L14.4392 7.94904C14.4392 7.37881 14.1148 7.03483 13.5813 7.03483C13.0455 7.03483 12.7136 7.37881 12.7136 7.93927L12.7136 14.0256C12.7136 14.586 13.0455 14.9375 13.5813 14.9375ZM12.6582 11.5982L14.8762 10.4395C15.1111 10.3246 15.1818 10.1609 15.1818 9.99715C15.1818 9.69156 14.8716 9.41067 14.5074 9.59391L12.2354 10.7819C12.0424 10.887 11.9298 11.068 11.9298 11.2317C11.9298 11.5396 12.24 11.8084 12.6582 11.5982Z"
                     fill="currentColor" fill-opacity="0.85" />
       </g>
</svg>