<?xml version="1.0" encoding="UTF-8"?>
<!--Generator: Apple Native CoreSVG 326-->
<!DOCTYPE svg PUBLIC "-//W3C//DTD SVG 1.1//EN" "http://www.w3.org/Graphics/SVG/1.1/DTD/svg11.dtd">
<svg version="1.1" xmlns="http://www.w3.org/2000/svg" xmlns:xlink="http://www.w3.org/1999/xlink"
       viewBox="0 0 19.3993 19.0529">
       <g>
              <rect height="19.0529" opacity="0" width="19.3993" x="0" y="0" />
              <path d="M3.64834 19.0379L15.3896 19.0379C17.7164 19.0379 19.0379 17.7262 19.0379 15.4011L19.0379 3.63912C19.0379 1.32151 17.7164 0 15.3896 0L3.64834 0C1.32382 0 0 1.32151 0 3.63912L0 15.4011C0 17.7262 1.32382 19.0379 3.64834 19.0379ZM4.05583 16.0183C3.37024 16.0183 3.01964 15.7096 3.01964 14.9775L3.01964 4.07021C3.01964 3.33809 3.37024 3.0271 4.05583 3.0271L14.9821 3.0271C15.6654 3.0271 16.0183 3.33809 16.0183 4.07021L16.0183 14.9775C16.0183 15.7096 15.6654 16.0183 14.9821 16.0183Z"
                     fill="currentColor" fill-opacity="0.85" />
              <path d="M6.29373 13.1949L9.31714 13.1949C9.72026 13.1949 9.98271 12.9422 9.98271 12.5637C9.98271 12.1853 9.72026 11.9326 9.31714 11.9326L7.92617 11.9326L7.92617 11.8028L9.67373 8.99845C9.82592 8.75322 9.89889 8.62396 9.89889 8.35634C9.89889 7.91877 9.62327 7.62987 9.15803 7.62987L6.29483 7.62987C5.90147 7.62987 5.63155 7.88772 5.63155 8.26615C5.63155 8.65435 5.90147 8.90474 6.29483 8.90474L7.84883 8.90474L7.84883 9.03454L5.83487 11.9911C5.68499 12.2145 5.63155 12.334 5.63155 12.5574C5.63155 12.9175 5.87393 13.1949 6.29373 13.1949ZM11.9708 13.3247C12.4968 13.3247 12.8288 12.9732 12.8288 12.4128L12.8288 6.33626C12.8288 5.76603 12.4968 5.42205 11.9708 5.42205C11.4351 5.42205 11.1032 5.76603 11.1032 6.32649L11.1032 12.4128C11.1032 12.9732 11.4351 13.3247 11.9708 13.3247ZM11.0477 9.98538L13.2657 8.82667C13.4932 8.71179 13.5713 8.54808 13.5713 8.38437C13.5713 8.07878 13.2611 7.79788 12.8969 7.98112L10.6249 9.16913C10.4245 9.27425 10.3194 9.45519 10.3194 9.6189C10.3194 9.92679 10.6296 10.1956 11.0477 9.98538Z"
                     fill="currentColor" fill-opacity="0.85" />
       </g>
</svg>