<?xml version="1.0" encoding="UTF-8"?>
<!--Generator: Apple Native CoreSVG 326-->
<!DOCTYPE svg PUBLIC "-//W3C//DTD SVG 1.1//EN" "http://www.w3.org/Graphics/SVG/1.1/DTD/svg11.dtd">
<svg version="1.1" xmlns="http://www.w3.org/2000/svg" xmlns:xlink="http://www.w3.org/1999/xlink"
       viewBox="0 0 19.3993 19.0529">
       <g>
              <rect height="19.0529" opacity="0" width="19.3993" x="0" y="0" />
              <path d="M19.0379 3.63912L19.0379 15.4011C19.0379 17.7262 17.7164 19.0379 15.3896 19.0379L3.64834 19.0379C1.32382 19.0379 0 17.7262 0 15.4011L0 3.63912C0 1.32151 1.32382 0 3.64834 0L15.3896 0C17.7164 0 19.0379 1.32151 19.0379 3.63912ZM11.2863 6.12954L11.2863 8.88581L10.7811 9.14675C10.5634 9.2691 10.4583 9.45003 10.4583 9.63097C10.4583 9.9337 10.7558 10.2048 11.1539 10.0445L11.2863 9.98866L11.2863 12.6097C11.2863 13.2121 11.6354 13.5785 12.2183 13.5785C12.7764 13.5785 13.1405 13.2121 13.1405 12.6097L13.1405 9.02969L13.5993 8.79452C13.8491 8.67218 13.937 8.49124 13.937 8.32007C13.937 8.0271 13.652 7.72898 13.3154 7.84507L13.1405 7.93199L13.1405 6.13184C13.1405 5.52716 12.7764 5.1608 12.2183 5.1608C11.6354 5.1608 11.2863 5.52716 11.2863 6.12954ZM6.16502 7.51905C5.73206 7.51905 5.43745 7.7792 5.43745 8.18978C5.43745 8.61013 5.73206 8.87544 6.16502 8.87544L7.81723 8.87544L7.81723 9.01501L5.66546 12.1634C5.50812 12.4017 5.43745 12.5235 5.43745 12.7618C5.43745 13.1466 5.70452 13.4412 6.15647 13.4412L9.38198 13.4412C9.81725 13.4412 10.0969 13.1713 10.0969 12.7584C10.0969 12.3599 9.81725 12.0974 9.38198 12.0974L7.91519 12.0974L7.91519 11.9602L9.77072 8.98638C9.93037 8.71646 10.0033 8.57228 10.0033 8.28744C10.0033 7.81772 9.7128 7.51905 9.20049 7.51905Z"
                     fill="currentColor" fill-opacity="0.85" />
       </g>
</svg>