<?xml version="1.0" encoding="UTF-8"?>
<!--Generator: Apple Native CoreSVG 326-->
<!DOCTYPE svg PUBLIC "-//W3C//DTD SVG 1.1//EN" "http://www.w3.org/Graphics/SVG/1.1/DTD/svg11.dtd">
<svg version="1.1" xmlns="http://www.w3.org/2000/svg" xmlns:xlink="http://www.w3.org/1999/xlink"
       viewBox="0 0 24.6449 23.5952">
       <g>
              <rect height="23.5952" opacity="0" width="24.6449" x="0" y="0" />
              <path d="M13.7186 0.416404L22.6254 5.55167C23.136 5.85374 23.3841 6.25686 23.3841 6.69158C23.3841 7.28595 22.9074 7.89293 22.1092 7.89293L21.3244 7.89293L21.3244 19.392L21.7032 19.392C22.2379 19.392 22.5744 19.7159 22.5744 20.2632L22.5744 21.1701L23.0673 21.1701C23.7134 21.1701 24.2836 21.7231 24.2836 22.3766C24.2836 23.0525 23.7134 23.5854 23.0673 23.5854L1.20651 23.5854C0.553002 23.5854 0 23.045 0 22.3766C0 21.7231 0.553002 21.1701 1.20651 21.1701L1.94045 21.1701L1.94045 20.2632C1.94045 19.7159 2.27927 19.392 2.81396 19.392L3.19045 19.392L3.19045 7.89293L2.41314 7.89293C1.60745 7.89293 1.13081 7.28595 1.13081 6.69158C1.13081 6.25686 1.37659 5.85374 1.88944 5.55167L10.7963 0.416404C11.242 0.154491 11.7664 0 12.2563 0C12.7462 0 13.2683 0.154491 13.7186 0.416404ZM13.9389 9.56583L13.9389 12.3198L13.4337 12.583C13.216 12.6979 13.1109 12.8789 13.1109 13.0673C13.1109 13.3677 13.401 13.6411 13.8066 13.4785L13.9389 13.4249L13.9389 16.046C13.9389 16.6484 14.2881 17.0148 14.8709 17.0148C15.4291 17.0148 15.7931 16.6484 15.7931 16.046L15.7931 12.466L16.2519 12.2234C16.5018 12.0987 16.5897 11.9201 16.5897 11.7489C16.5897 11.4611 16.3047 11.1653 15.9681 11.2814L15.7931 11.366L15.7931 9.56813C15.7931 8.96115 15.4291 8.59709 14.8709 8.59709C14.2881 8.59709 13.9389 8.96115 13.9389 9.56583ZM8.8177 10.9479C8.38473 10.9479 8.09013 11.2155 8.09013 11.6261C8.09013 12.0464 8.38473 12.3117 8.8177 12.3117L10.4624 12.3117L10.4624 12.4513L8.31813 15.5973C8.16079 15.8357 8.09013 15.9598 8.09013 16.1981C8.09013 16.5754 8.35719 16.8752 8.80684 16.8752L12.0323 16.8752C12.4699 16.8752 12.7496 16.6076 12.7496 16.1947C12.7496 15.7864 12.4699 15.5337 12.0323 15.5337L10.5679 15.5337L10.5679 15.389L12.4234 12.4227C12.583 12.1527 12.6537 12.0011 12.6537 11.7214C12.6537 11.254 12.3655 10.9479 11.8509 10.9479Z"
                     fill="currentColor" fill-opacity="0.85" />
       </g>
</svg>