<?xml version="1.0" encoding="UTF-8"?>
<!--Generator: Apple Native CoreSVG 326-->
<!DOCTYPE svg PUBLIC "-//W3C//DTD SVG 1.1//EN" "http://www.w3.org/Graphics/SVG/1.1/DTD/svg11.dtd">
<svg version="1.1" xmlns="http://www.w3.org/2000/svg" xmlns:xlink="http://www.w3.org/1999/xlink"
       viewBox="0 0 21.365 21.006">
       <g>
              <rect height="21.006" opacity="0" width="21.365" x="0" y="0" />
              <path d="M21.0037 10.4981C21.0037 16.2923 16.302 20.9962 10.4981 20.9962C4.70394 20.9962 0 16.2923 0 10.4981C0 4.70163 4.70394 0 10.4981 0C16.302 0 21.0037 4.70163 21.0037 10.4981ZM12.171 7.1061L12.171 9.86237L11.6733 10.1233C11.4556 10.2457 11.343 10.4266 11.343 10.6075C11.343 10.9103 11.6406 11.1814 12.0387 11.0211L12.171 10.9652L12.171 13.5863C12.171 14.1887 12.5276 14.555 13.1104 14.555C13.6686 14.555 14.0327 14.1887 14.0327 13.5863L14.0327 10.0062L14.4915 9.77108C14.7338 9.64874 14.8217 9.4678 14.8217 9.29663C14.8217 9.00366 14.5442 8.70554 14.2076 8.82164L14.0327 8.90855L14.0327 7.10841C14.0327 6.50373 13.6686 6.13736 13.1104 6.13736C12.5276 6.13736 12.171 6.50373 12.171 7.1061ZM7.05721 8.49561C6.61679 8.49561 6.32964 8.75576 6.32964 9.16635C6.32964 9.58669 6.61679 9.852 7.05721 9.852L8.70196 9.852L8.70196 9.99157L6.55765 13.1399C6.40031 13.3782 6.32964 13.5 6.32964 13.7384C6.32964 14.1232 6.59671 14.4178 7.04635 14.4178L10.2719 14.4178C10.702 14.4178 10.9891 14.1478 10.9891 13.735C10.9891 13.3364 10.702 13.074 10.2719 13.074L8.79992 13.074L8.79992 12.9367L10.6555 9.96294C10.8226 9.69302 10.8932 9.54884 10.8932 9.264C10.8932 8.79428 10.5975 8.49561 10.0904 8.49561Z"
                     fill="currentColor" fill-opacity="0.85" />
       </g>
</svg>