<?xml version="1.0" encoding="UTF-8"?>
<!--Generator: Apple Native CoreSVG 326-->
<!DOCTYPE svg PUBLIC "-//W3C//DTD SVG 1.1//EN" "http://www.w3.org/Graphics/SVG/1.1/DTD/svg11.dtd">
<svg version="1.1" xmlns="http://www.w3.org/2000/svg" xmlns:xlink="http://www.w3.org/1999/xlink"
       viewBox="0 0 24.6449 23.5952">
       <g>
              <rect height="23.5952" opacity="0" width="24.6449" x="0" y="0" />
              <path d="M1.94045 20.4256L22.5744 20.4256L22.5744 19.4355C22.5744 18.8957 22.2379 18.5718 21.7032 18.5718L21.3244 18.5718L21.3244 7.89293L22.1092 7.89293C22.9074 7.89293 23.3841 7.28595 23.3841 6.69158C23.3841 6.25686 23.136 5.85374 22.6254 5.55167L13.7186 0.416404C13.2683 0.154491 12.7462 0 12.2563 0C11.7664 0 11.242 0.154491 10.7963 0.416404L1.88944 5.55167C1.37659 5.85374 1.13081 6.25686 1.13081 6.69158C1.13081 7.28595 1.60745 7.89293 2.41314 7.89293L3.19045 7.89293L3.19045 18.5718L2.81396 18.5718C2.27927 18.5718 1.94045 18.8957 1.94045 19.4355ZM5.29922 18.5718L5.29922 6.39673L12.047 2.62732C12.1194 2.5888 12.1965 2.57212 12.2563 2.57212C12.331 2.57212 12.3931 2.5888 12.4679 2.62732L19.2157 6.39673L19.2157 18.5718ZM1.20651 23.5854L23.0673 23.5854C23.7134 23.5854 24.2836 23.0525 24.2836 22.3766C24.2836 21.7231 23.7134 21.1701 23.0673 21.1701L1.20651 21.1701C0.553002 21.1701 0 21.7231 0 22.3766C0 23.045 0.553002 23.5854 1.20651 23.5854Z"
                     fill="currentColor" fill-opacity="0.85" />
              <path d="M9.03363 15.23L12.057 15.23C12.4625 15.23 12.7175 14.9871 12.7175 14.5989C12.7175 14.2204 12.4625 13.9701 12.057 13.9701L10.6684 13.9701L10.6684 13.8477L12.4085 11.0336C12.5681 10.7907 12.6388 10.6614 12.6388 10.3915C12.6388 9.96137 12.3655 9.665 11.8905 9.665L9.03703 9.665C8.63621 9.665 8.36629 9.92515 8.36629 10.3036C8.36629 10.6969 8.63621 10.9422 9.03703 10.9422L10.591 10.9422L10.591 11.072L8.57707 14.0262C8.42719 14.2496 8.36629 14.3714 8.36629 14.5948C8.36629 14.9526 8.61614 15.23 9.03363 15.23ZM14.7056 15.3598C15.239 15.3598 15.5635 15.0107 15.5635 14.4502L15.5635 8.37139C15.5635 7.80116 15.239 7.45949 14.7056 7.45949C14.1773 7.45949 13.8454 7.80116 13.8454 8.36908L13.8454 14.4502C13.8454 15.0107 14.1773 15.3598 14.7056 15.3598ZM13.7825 12.0205L16.0079 10.8693C16.2354 10.7469 16.3135 10.5832 16.3135 10.4195C16.3135 10.1139 16.0033 9.83302 15.6317 10.0186L13.3671 11.2117C13.1667 11.3117 13.0616 11.4926 13.0616 11.654C13.0616 11.9619 13.3718 12.2308 13.7825 12.0205Z"
                     fill="currentColor" fill-opacity="0.85" />
       </g>
</svg>