<?xml version="1.0" encoding="UTF-8"?>
<!--Generator: Apple Native CoreSVG 326-->
<!DOCTYPE svg PUBLIC "-//W3C//DTD SVG 1.1//EN" "http://www.w3.org/Graphics/SVG/1.1/DTD/svg11.dtd">
<svg version="1.1" xmlns="http://www.w3.org/2000/svg" xmlns:xlink="http://www.w3.org/1999/xlink"
       viewBox="0 0 21.365 21.006">
       <g>
              <rect height="21.006" opacity="0" width="21.365" x="0" y="0" />
              <path d="M21.0037 10.5079C21.0037 16.3043 16.302 21.006 10.4981 21.006C4.70394 21.006 0 16.3043 0 10.5079C0 4.7137 4.70394 0.00976562 10.4981 0.00976562C16.302 0.00976562 21.0037 4.7137 21.0037 10.5079ZM6.56584 9.90022L7.49018 14.7511C7.62689 15.4818 7.99623 15.9367 8.73896 15.9367L9.06553 15.9367L8.47499 9.58299C8.43362 9.04291 8.0228 8.73326 7.5253 8.73326C6.94791 8.73326 6.43482 9.16186 6.56584 9.90022ZM9.34971 9.83217L9.90065 15.9367L11.0766 15.9367L11.6424 9.83217C11.7033 9.04564 11.0805 8.68662 10.4912 8.68662C9.90932 8.68662 9.28135 9.04564 9.34971 9.83217ZM12.5022 9.58299L11.9192 15.9367L12.2383 15.9367C12.9735 15.9367 13.3503 15.4818 13.4871 14.7511L14.4114 9.90022C14.5499 9.16186 14.0293 8.73326 13.4519 8.73326C12.9544 8.73326 12.5436 9.04291 12.5022 9.58299ZM8.47772 5.85501C8.164 5.86817 7.91119 6.15259 7.86642 6.4347C7.12193 6.44501 6.51416 7.04818 6.51416 7.80989C6.51416 7.91228 6.53314 7.99283 6.57057 8.09061C6.85147 7.93666 7.1835 7.85393 7.5253 7.85393C8.07733 7.85393 8.58744 8.08084 8.91947 8.47377C9.31065 8.04803 9.88342 7.80213 10.4912 7.80213C11.1087 7.80213 11.6815 8.04803 12.048 8.47377C12.3875 8.08084 12.8924 7.85393 13.4519 7.85393C13.8064 7.85393 14.1435 7.94182 14.4244 8.11299C14.4837 7.98307 14.5194 7.8267 14.5194 7.69271C14.5194 6.8431 13.9949 6.23763 13.2211 6.19056C12.9936 5.72466 12.5904 5.45462 12.0906 5.45462C11.7562 5.45462 11.4535 5.55173 11.2168 5.75165C11.1369 5.73497 11.0306 5.72521 10.9438 5.73958C10.7089 5.29091 10.2476 5.01286 9.73518 5.01286C9.09174 5.01286 8.58283 5.39317 8.47772 5.85501Z"
                     fill="currentColor" fill-opacity="0.85" />
       </g>
</svg>