<?xml version="1.0" encoding="UTF-8"?>
<!--Generator: Apple Native CoreSVG 326-->
<!DOCTYPE svg PUBLIC "-//W3C//DTD SVG 1.1//EN" "http://www.w3.org/Graphics/SVG/1.1/DTD/svg11.dtd">
<svg version="1.1" xmlns="http://www.w3.org/2000/svg" xmlns:xlink="http://www.w3.org/1999/xlink"
       viewBox="0 0 22.7466 28.4726">
       <g>
              <rect height="28.4726" opacity="0" width="22.7466" x="0" y="0" />
              <path d="M7.07741 11.7608L8.3285 25.3484L7.3315 25.3484C5.71119 25.3484 4.90077 24.3588 4.59979 22.7632L2.6312 12.3751C2.2871 10.5747 3.52163 9.63776 4.76878 9.63776C5.85331 9.63776 6.9453 10.3242 7.07741 11.7608ZM13.5177 12.0576L12.8242 19.7424C11.6726 20.4668 10.9624 21.7309 10.9624 23.1483C10.9624 23.9628 11.1853 24.716 11.586 25.3484L9.86146 25.3484L8.65975 12.0576C8.5035 10.3371 9.85873 9.54678 11.085 9.54678C12.3188 9.54678 13.674 10.3371 13.5177 12.0576ZM19.5463 12.3751L18.6248 17.2436C18.1397 17.0476 17.6048 16.9418 17.0402 16.9418C16.1123 16.9418 15.245 17.2371 14.5451 17.763L15.1001 11.7608C15.2345 10.3242 16.3265 9.63776 17.4087 9.63776C18.6559 9.63776 19.8927 10.5747 19.5463 12.3751ZM12.1297 3.10238C12.3211 3.08109 12.5486 3.09316 12.7331 3.13913C13.2615 2.70945 13.929 2.46761 14.6401 2.46761C15.7321 2.46761 16.5759 3.06507 17.1054 4.10933C18.7827 4.20808 19.9189 5.50909 19.9189 7.36783C19.9189 7.89299 19.7884 8.37964 19.5735 8.80823C18.9198 8.36374 18.1261 8.13289 17.337 8.13289C16.2025 8.13289 15.0778 8.5855 14.3518 9.52003C13.5913 8.52909 12.3505 8.01722 11.085 8.01722C9.84193 8.01722 8.57877 8.52909 7.82572 9.52003C7.09221 8.5855 5.97729 8.13289 4.85491 8.13289C4.0864 8.13289 3.33511 8.3362 2.6941 8.74569C2.54058 8.38655 2.46585 8.01995 2.46585 7.63666C2.46585 5.98584 3.78585 4.64346 5.40452 4.61769C5.49405 3.99839 6.06682 3.41924 6.72178 3.37569C6.99225 2.34703 8.09674 1.53472 9.50584 1.53472C10.6104 1.53472 11.6179 2.14019 12.1297 3.10238Z"
                     fill="currentColor" fill-opacity="0.85" />
              <path d="M17.0402 26.9258C18.0323 26.9258 18.9089 26.4036 19.2616 25.6132C20.4658 25.3127 21.2021 24.3023 21.2021 23.1506C21.2021 22.1711 20.5834 21.183 19.575 20.7317C19.424 19.3945 18.3895 18.4811 17.0402 18.4811C15.7254 18.4811 14.6783 19.3801 14.4481 20.7006C13.2566 20.9803 12.5092 21.9926 12.5092 23.1483C12.5092 24.4136 13.3438 25.4413 14.692 25.6625C15.1871 26.4186 16.1084 26.9258 17.0402 26.9258Z"
                     fill="currentColor" fill-opacity="0.85" />
       </g>
</svg>