<?xml version="1.0" encoding="UTF-8"?>
<!--Generator: Apple Native CoreSVG 326-->
<!DOCTYPE svg PUBLIC "-//W3C//DTD SVG 1.1//EN" "http://www.w3.org/Graphics/SVG/1.1/DTD/svg11.dtd">
<svg version="1.1" xmlns="http://www.w3.org/2000/svg" xmlns:xlink="http://www.w3.org/1999/xlink"
       viewBox="0 0 23.9337 22.0295">
       <g>
              <rect height="22.0295" opacity="0" width="23.9337" x="0" y="0" />
              <path d="M11.7824 22.01C16.7982 22.01 21.4004 18.7048 21.4004 15.0545L21.4004 14.5744L21.8845 14.5744C22.8803 14.5744 23.5723 13.8824 23.5723 12.8813L23.5723 9.13838C23.5723 8.13507 22.8803 7.44304 21.8845 7.44304L21.4004 7.44304L21.4004 6.9578C21.4004 3.31491 16.7982 0 11.7824 0C6.77413 0 2.17191 3.31491 2.17191 6.9578L2.17191 7.44304L1.68788 7.44304C0.692025 7.44304 0 8.13507 0 9.13838L0 12.8813C0 13.8824 0.692025 14.5744 1.68788 14.5744L2.17191 14.5744L2.17191 15.0545C2.17191 18.7048 6.77413 22.01 11.7824 22.01ZM11.7824 19.423C8.24638 19.423 4.75137 17.171 4.75137 14.7038L4.75137 7.30845C4.75137 4.84873 8.24638 2.59438 11.7824 2.59438C15.326 2.59438 18.8135 4.84873 18.8135 7.30845L18.8135 14.7038C18.8135 17.171 15.326 19.423 11.7824 19.423Z"
                     fill="currentColor" fill-opacity="0.85" />
              <path d="M7.67645 12.96C8.75407 12.96 9.6266 12.0852 9.6266 11.0099C9.6266 9.93455 8.75407 9.05971 7.67645 9.05971C6.60114 9.05971 5.7286 9.93455 5.7286 11.0099C5.7286 12.0852 6.60114 12.96 7.67645 12.96ZM15.8936 12.96C16.9712 12.96 17.8437 12.0852 17.8437 11.0099C17.8437 9.93455 16.9712 9.05971 15.8936 9.05971C14.8183 9.05971 13.9457 9.93455 13.9457 11.0099C13.9457 12.0852 14.8183 12.96 15.8936 12.96Z"
                     fill="currentColor" fill-opacity="0.85" />
       </g>
</svg>