<?xml version="1.0" encoding="UTF-8"?>
<!--Generator: Apple Native CoreSVG 326-->
<!DOCTYPE svg PUBLIC "-//W3C//DTD SVG 1.1//EN" "http://www.w3.org/Graphics/SVG/1.1/DTD/svg11.dtd">
<svg version="1.1" xmlns="http://www.w3.org/2000/svg" xmlns:xlink="http://www.w3.org/1999/xlink"
       viewBox="0 0 15.8735 24.0809">
       <g>
              <rect height="24.0809" opacity="0" width="15.8735" x="0" y="0" />
              <path d="M6.57045 24.0809L8.93197 24.0809C10.4953 24.0809 11.335 23.2285 11.335 21.6629L11.335 18.3822C11.335 17.3007 11.6649 16.8021 12.5829 16.0663C14.4169 14.5971 15.5122 12.4219 15.5122 10.0716L15.5122 7.47404C15.5122 6.51216 14.8837 5.92798 13.9292 5.92798L12.516 5.92798L12.516 1.58858C12.516 0.716166 11.8148 0.00285089 10.9521 0.00285089C10.0946 0.00285089 9.38131 0.716166 9.38131 1.58858L9.38131 5.92798L6.15326 5.92798L6.15326 1.58858C6.15326 0.716166 5.4474 0.00285089 4.59452 0.00285089C3.72956 0.00285089 3.01624 0.716166 3.01624 1.58858L3.01624 5.92798L1.57833 5.92798C0.614142 5.92798 0 6.51216 0 7.47404L0 10.0716C0 12.4219 1.0832 14.5971 2.92186 16.0663C3.84729 16.8021 4.17945 17.3007 4.17945 18.3822L4.17945 21.6629C4.17945 23.2262 5.00249 24.0809 6.57045 24.0809ZM7.13 21.4044C6.96508 21.4044 6.84844 21.2855 6.84844 21.1183L6.84844 18.3822C6.84844 16.4577 6.13039 15.1914 4.55091 13.9462C3.20555 12.8927 2.66899 11.8143 2.66899 10.0716L2.66899 8.88084C2.66899 8.72338 2.78848 8.59927 2.94364 8.59927L12.5565 8.59927C12.7191 8.59927 12.8357 8.72338 12.8357 8.88084L12.8357 10.0716C12.8357 11.812 12.2969 12.8927 10.959 13.9462C9.37433 15.1891 8.66605 16.4577 8.66605 18.3822L8.66605 21.1183C8.66605 21.2855 8.53965 21.4044 8.37988 21.4044Z"
                     fill="currentColor" fill-opacity="0.85" />
       </g>
</svg>