<?xml version="1.0" encoding="UTF-8"?>
<!--Generator: Apple Native CoreSVG 326-->
<!DOCTYPE svg PUBLIC "-//W3C//DTD SVG 1.1//EN" "http://www.w3.org/Graphics/SVG/1.1/DTD/svg11.dtd">
<svg version="1.1" xmlns="http://www.w3.org/2000/svg" xmlns:xlink="http://www.w3.org/1999/xlink"
       viewBox="0 0 21.365 21.006">
       <g>
              <rect height="21.006" opacity="0" width="21.365" x="0" y="0" />
              <path d="M21.0037 10.4981C21.0037 16.2923 16.302 20.9962 10.4981 20.9962C4.70394 20.9962 0 16.2923 0 10.4981C0 4.70163 4.70394 0 10.4981 0C16.302 0 21.0037 4.70163 21.0037 10.4981ZM4.37518 10.4981C4.37518 11.6549 5.31948 12.6038 6.48607 12.6038C7.64521 12.6038 8.59181 11.6549 8.59181 10.4981C8.59181 9.33382 7.64521 8.38491 6.48607 8.38491C5.31948 8.38491 4.37518 9.33382 4.37518 10.4981ZM12.3969 10.4981C12.3969 11.6549 13.3435 12.6038 14.5101 12.6038C15.6767 12.6038 16.6136 11.6549 16.6136 10.4981C16.6136 9.33382 15.6767 8.38491 14.5101 8.38491C13.3435 8.38491 12.3969 9.33382 12.3969 10.4981Z"
                     fill="currentColor" fill-opacity="0.85" />
       </g>
</svg>