<?xml version="1.0" encoding="UTF-8"?>
<!--Generator: Apple Native CoreSVG 326-->
<!DOCTYPE svg PUBLIC "-//W3C//DTD SVG 1.1//EN" "http://www.w3.org/Graphics/SVG/1.1/DTD/svg11.dtd">
<svg version="1.1" xmlns="http://www.w3.org/2000/svg" xmlns:xlink="http://www.w3.org/1999/xlink"
       viewBox="0 0 21.365 21.006">
       <g>
              <rect height="21.006" opacity="0" width="21.365" x="0" y="0" />
              <path d="M21.0037 10.4981C21.0037 16.2923 16.302 20.9962 10.4981 20.9962C4.70394 20.9962 0 16.2923 0 10.4981C0 4.70163 4.70394 0 10.4981 0C16.302 0 21.0037 4.70163 21.0037 10.4981ZM9.27455 13.7447C8.94713 13.7447 8.7312 13.9383 8.7312 14.2732L8.7312 15.0056C8.7312 15.9953 9.49862 16.7725 10.4981 16.7725C11.4878 16.7725 12.2725 15.993 12.2725 15.0056L12.2725 14.2732C12.2725 13.9383 12.064 13.7447 11.7217 13.7447ZM4.37518 10.3477C4.37518 11.5045 5.31948 12.4534 6.48607 12.4534C7.64521 12.4534 8.59181 11.5045 8.59181 10.3477C8.59181 9.18108 7.64521 8.23448 6.48607 8.23448C5.31948 8.23448 4.37518 9.18108 4.37518 10.3477ZM12.3969 10.3477C12.3969 11.5045 13.3435 12.4534 14.5101 12.4534C15.6767 12.4534 16.6136 11.5045 16.6136 10.3477C16.6136 9.18108 15.6767 8.23448 14.5101 8.23448C13.3435 8.23448 12.3969 9.18108 12.3969 10.3477Z"
                     fill="currentColor" fill-opacity="0.85" />
       </g>
</svg>