<?xml version="1.0" encoding="UTF-8"?>
<!--Generator: Apple Native CoreSVG 326-->
<!DOCTYPE svg PUBLIC "-//W3C//DTD SVG 1.1//EN" "http://www.w3.org/Graphics/SVG/1.1/DTD/svg11.dtd">
<svg version="1.1" xmlns="http://www.w3.org/2000/svg" xmlns:xlink="http://www.w3.org/1999/xlink"
       viewBox="0 0 19.3993 19.0529">
       <g>
              <rect height="19.0529" opacity="0" width="19.3993" x="0" y="0" />
              <path d="M19.0379 3.63912L19.0379 15.4011C19.0379 17.7262 17.7164 19.0379 15.3896 19.0379L3.64834 19.0379C1.32382 19.0379 0 17.7262 0 15.4011L0 3.63912C0 1.32151 1.32382 0 3.64834 0L15.3896 0C17.7164 0 19.0379 1.32151 19.0379 3.63912ZM7.53245 3.41827C6.64238 3.41827 6.02563 4.02756 6.02563 4.91763L6.02563 14.1404C6.02563 15.0328 6.64238 15.642 7.53245 15.642L11.5055 15.642C12.3956 15.642 13.0123 15.0328 13.0123 14.1404L13.0123 4.91763C13.0123 4.02756 12.3956 3.41827 11.5055 3.41827ZM10.7036 12.9072C10.7036 13.5632 10.1775 14.0893 9.53877 14.0893C8.86792 14.0893 8.34925 13.5632 8.34925 12.9072C8.34925 12.2588 8.86792 11.7349 9.53877 11.7349C10.1775 11.7349 10.7036 12.2662 10.7036 12.9072ZM10.7036 9.52155C10.7036 10.17 10.1775 10.7013 9.53877 10.7013C8.86792 10.7013 8.34925 10.17 8.34925 9.52155C8.34925 8.87307 8.86792 8.34925 9.53877 8.34925C10.1775 8.34925 10.7036 8.88053 10.7036 9.52155ZM10.7036 6.12839C10.7036 6.78202 10.1775 7.30815 9.53877 7.30815C8.86792 7.30815 8.34925 6.78202 8.34925 6.12839C8.34925 5.47991 8.86792 4.96124 9.53877 4.96124C10.1775 4.96124 10.7036 5.48737 10.7036 6.12839Z"
                     fill="currentColor" fill-opacity="0.85" />
       </g>
</svg>