<?xml version="1.0" encoding="UTF-8"?>
<!--Generator: Apple Native CoreSVG 326-->
<!DOCTYPE svg PUBLIC "-//W3C//DTD SVG 1.1//EN" "http://www.w3.org/Graphics/SVG/1.1/DTD/svg11.dtd">
<svg version="1.1" xmlns="http://www.w3.org/2000/svg" xmlns:xlink="http://www.w3.org/1999/xlink"
       viewBox="0 0 21.365 21.006">
       <g>
              <rect height="21.006" opacity="0" width="21.365" x="0" y="0" />
              <path d="M21.0037 10.4981C21.0037 16.2923 16.302 20.9962 10.4981 20.9962C4.70394 20.9962 0 16.2923 0 10.4981C0 4.70163 4.70394 0 10.4981 0C16.302 0 21.0037 4.70163 21.0037 10.4981ZM4.08507 10.656C4.08507 11.8203 5.03166 12.7692 6.1885 12.7692C7.3574 12.7692 8.30169 11.8203 8.30169 10.656C8.30169 9.50662 7.3574 8.55026 6.1885 8.55026C5.03166 8.55026 4.08507 9.50662 4.08507 10.656ZM12.6871 10.656C12.6871 11.8203 13.6314 12.7692 14.8003 12.7692C15.9646 12.7692 16.9037 11.8203 16.9037 10.656C16.9037 9.50662 15.9646 8.55026 14.8003 8.55026C13.6314 8.55026 12.6871 9.50662 12.6871 10.656ZM8.96284 5.96619C8.96284 6.81107 9.65323 7.50892 10.4981 7.50892C11.3504 7.50892 12.0408 6.81107 12.0408 5.96619C12.0408 5.12131 11.3504 4.43093 10.4981 4.43093C9.65323 4.43093 8.96284 5.12131 8.96284 5.96619Z"
                     fill="currentColor" fill-opacity="0.85" />
       </g>
</svg>