<?xml version="1.0" encoding="UTF-8"?>
<!--Generator: Apple Native CoreSVG 326-->
<!DOCTYPE svg PUBLIC "-//W3C//DTD SVG 1.1//EN" "http://www.w3.org/Graphics/SVG/1.1/DTD/svg11.dtd">
<svg version="1.1" xmlns="http://www.w3.org/2000/svg" xmlns:xlink="http://www.w3.org/1999/xlink"
       viewBox="0 0 19.3993 19.0529">
       <g>
              <rect height="19.0529" opacity="0" width="19.3993" x="0" y="0" />
              <path d="M19.0379 3.63912L19.0379 15.4011C19.0379 17.7262 17.7164 19.0379 15.3896 19.0379L3.64834 19.0379C1.32382 19.0379 0 17.7262 0 15.4011L0 3.63912C0 1.32151 1.32382 0 3.64834 0L15.3896 0C17.7164 0 19.0379 1.32151 19.0379 3.63912ZM5.78974 4.45179C4.89968 4.45179 4.29039 5.06108 4.29039 5.95115L4.29039 13.0919C4.29039 13.982 4.89968 14.5913 5.78974 14.5913L13.2482 14.5913C14.1383 14.5913 14.7476 13.982 14.7476 13.0919L14.7476 5.95115C14.7476 5.06108 14.1383 4.45179 13.2482 4.45179ZM8.50119 11.4208C8.50119 12.0544 7.98998 12.5656 7.36389 12.5656C6.72518 12.5656 6.21397 12.0544 6.21397 11.4208C6.21397 10.7896 6.72518 10.2858 7.36389 10.2858C7.98998 10.2858 8.50119 10.797 8.50119 11.4208ZM12.8435 11.4208C12.8435 12.0544 12.3197 12.5656 11.6861 12.5656C11.0526 12.5656 10.5414 12.0544 10.5414 11.4208C10.5414 10.797 11.0526 10.2858 11.6861 10.2858C12.3197 10.2858 12.8435 10.797 12.8435 11.4208ZM10.7358 7.68713C10.7358 8.36544 10.1872 8.91396 9.52616 8.91396C8.8553 8.91396 8.30679 8.36544 8.30679 7.68713C8.30679 7.01111 8.84784 6.47752 9.52616 6.47752C10.1947 6.47752 10.7358 7.01111 10.7358 7.68713Z"
                     fill="currentColor" fill-opacity="0.85" />
       </g>
</svg>