<?xml version="1.0" encoding="UTF-8"?>
<!--Generator: Apple Native CoreSVG 326-->
<!DOCTYPE svg PUBLIC "-//W3C//DTD SVG 1.1//EN" "http://www.w3.org/Graphics/SVG/1.1/DTD/svg11.dtd">
<svg version="1.1" xmlns="http://www.w3.org/2000/svg" xmlns:xlink="http://www.w3.org/1999/xlink"
       viewBox="0 0 20.104 19.0575">
       <g>
              <rect height="19.0575" opacity="0" width="20.104" x="0" y="0" />
              <path d="M3.64834 19.0575L16.0944 19.0575C18.4189 19.0575 19.7427 17.736 19.7427 15.4183L19.7427 3.65865C19.7427 1.33358 18.4189 0.0195312 16.0944 0.0195312L3.64834 0.0195312C1.32382 0.0195312 0 1.33128 0 3.65865L0 15.4183C0 17.7383 1.32382 19.0575 3.64834 19.0575ZM4.05583 16.0378C3.37024 16.0378 3.01964 15.7217 3.01964 14.9896L3.01964 4.07997C3.01964 3.34785 3.37024 3.03918 4.05583 3.03918L15.6846 3.03918C16.3679 3.03918 16.7231 3.34785 16.7231 4.07997L16.7231 14.9896C16.7231 15.7217 16.3679 16.0378 15.6846 16.0378Z"
                     fill="currentColor" fill-opacity="0.85" />
              <path d="M6.66174 9.73439C7.25962 9.73439 7.73978 9.25885 7.73978 8.66381L7.73978 6.00204C7.73978 5.40415 7.25962 4.924 6.66174 4.924C6.069 4.924 5.60092 5.40415 5.60092 6.00204L5.60092 8.66381C5.60092 9.26631 6.069 9.73439 6.66174 9.73439ZM8.73908 14.5208L11.0036 14.5208C11.3138 14.5208 11.5148 14.337 11.5148 14.0343L11.5148 13.1471C11.5148 12.224 10.787 11.5014 9.87135 11.5014C8.93846 11.5014 8.23533 12.224 8.23533 13.1471L8.23533 14.0343C8.23533 14.337 8.42889 14.5208 8.73908 14.5208ZM13.0614 9.73439C13.6616 9.73439 14.1418 9.25885 14.1418 8.66381L14.1418 6.00204C14.1418 5.40415 13.6616 4.924 13.0614 4.924C12.4687 4.924 12.0081 5.40415 12.0081 6.00204L12.0081 8.66381C12.0081 9.26631 12.4687 9.73439 13.0614 9.73439Z"
                     fill="currentColor" fill-opacity="0.85" />
       </g>
</svg>