<?xml version="1.0" encoding="UTF-8"?>
<!--Generator: Apple Native CoreSVG 326-->
<!DOCTYPE svg PUBLIC "-//W3C//DTD SVG 1.1//EN" "http://www.w3.org/Graphics/SVG/1.1/DTD/svg11.dtd">
<svg version="1.1" xmlns="http://www.w3.org/2000/svg" xmlns:xlink="http://www.w3.org/1999/xlink"
       viewBox="0 0 19.3993 19.0529">
       <g>
              <rect height="19.0529" opacity="0" width="19.3993" x="0" y="0" />
              <path d="M3.64834 19.0379L15.3896 19.0379C17.7164 19.0379 19.0379 17.7262 19.0379 15.4011L19.0379 3.63912C19.0379 1.32151 17.7164 0 15.3896 0L3.64834 0C1.32382 0 0 1.32151 0 3.63912L0 15.4011C0 17.7262 1.32382 19.0379 3.64834 19.0379ZM4.05583 16.0183C3.37024 16.0183 3.01964 15.7096 3.01964 14.9775L3.01964 4.07021C3.01964 3.33809 3.37024 3.0271 4.05583 3.0271L14.9821 3.0271C15.6654 3.0271 16.0183 3.33809 16.0183 4.07021L16.0183 14.9775C16.0183 15.7096 15.6654 16.0183 14.9821 16.0183Z"
                     fill="currentColor" fill-opacity="0.85" />
              <path d="M6.38278 13.7831L12.669 13.7831C13.3978 13.7831 13.9078 13.2806 13.9078 12.5443L13.9078 6.50336C13.9078 5.76712 13.3978 5.26458 12.669 5.26458L6.38278 5.26458C5.654 5.26458 5.144 5.76712 5.144 6.50336L5.144 12.5443C5.144 13.2806 5.654 13.7831 6.38278 13.7831ZM6.60423 8.99827C6.40837 8.82479 6.40837 8.57725 6.60423 8.38885L7.74705 7.26326C7.93545 7.08002 8.16291 7.07256 8.33408 7.26096L8.6535 7.56545C8.83158 7.73893 8.81436 7.99107 8.6535 8.17201L7.49806 9.30276C7.32974 9.48085 7.09482 9.48085 6.92595 9.30276ZM12.1333 9.30276C11.9644 9.48085 11.7197 9.486 11.5462 9.30276L10.396 8.17201C10.2202 7.98361 10.2202 7.73893 10.3885 7.56545L10.7102 7.25865C10.8889 7.07025 11.1186 7.08002 11.3047 7.26096L12.4475 8.38885C12.6434 8.57725 12.6359 8.82479 12.4475 8.99827ZM9.3067 12.3573C9.06948 12.3573 8.88854 12.181 8.88854 11.9438L8.88854 10.4517C8.88854 10.1898 9.06202 10.0238 9.3067 10.0238L9.75022 10.0238C9.98745 10.0238 10.1707 10.1898 10.1707 10.4517L10.1707 11.9438C10.1707 12.1833 9.98229 12.3573 9.75022 12.3573Z"
                     fill="currentColor" fill-opacity="0.85" />
       </g>
</svg>