<?xml version="1.0" encoding="UTF-8"?>
<!--Generator: Apple Native CoreSVG 326-->
<!DOCTYPE svg PUBLIC "-//W3C//DTD SVG 1.1//EN" "http://www.w3.org/Graphics/SVG/1.1/DTD/svg11.dtd">
<svg version="1.1" xmlns="http://www.w3.org/2000/svg" xmlns:xlink="http://www.w3.org/1999/xlink"
       viewBox="0 0 20.104 19.0575">
       <g>
              <rect height="19.0575" opacity="0" width="20.104" x="0" y="0" />
              <path d="M3.64834 19.0575L16.0944 19.0575C18.4189 19.0575 19.7427 17.736 19.7427 15.4183L19.7427 3.65865C19.7427 1.33358 18.4189 0.0195312 16.0944 0.0195312L3.64834 0.0195312C1.32382 0.0195312 0 1.33128 0 3.65865L0 15.4183C0 17.7383 1.32382 19.0575 3.64834 19.0575ZM4.05583 16.0378C3.37024 16.0378 3.01964 15.7217 3.01964 14.9896L3.01964 4.07997C3.01964 3.34785 3.37024 3.03918 4.05583 3.03918L15.6846 3.03918C16.3679 3.03918 16.7231 3.34785 16.7231 4.07997L16.7231 14.9896C16.7231 15.7217 16.3679 16.0378 15.6846 16.0378Z"
                     fill="currentColor" fill-opacity="0.85" />
              <path d="M6.88962 13.4991C7.75755 13.4991 8.46407 12.8001 8.46407 11.9224C8.46407 11.0544 7.75755 10.3456 6.88962 10.3456C6.01708 10.3456 5.31056 11.0544 5.31056 11.9224C5.31056 12.8001 6.01708 13.4991 6.88962 13.4991ZM12.8554 13.4991C13.7233 13.4991 14.4321 12.8001 14.4321 11.9224C14.4321 11.0544 13.7233 10.3456 12.8554 10.3456C11.9852 10.3456 11.2786 11.0544 11.2786 11.9224C11.2786 12.8001 11.9852 13.4991 12.8554 13.4991ZM9.87135 8.70208C10.7393 8.70208 11.4481 7.99556 11.4481 7.11787C11.4481 6.24764 10.7393 5.54111 9.87135 5.54111C9.00112 5.54111 8.29229 6.24764 8.29229 7.11787C8.29229 7.99556 9.00112 8.70208 9.87135 8.70208Z"
                     fill="currentColor" fill-opacity="0.85" />
       </g>
</svg>