<?xml version="1.0" encoding="UTF-8"?>
<!--Generator: Apple Native CoreSVG 326-->
<!DOCTYPE svg PUBLIC "-//W3C//DTD SVG 1.1//EN" "http://www.w3.org/Graphics/SVG/1.1/DTD/svg11.dtd">
<svg version="1.1" xmlns="http://www.w3.org/2000/svg" xmlns:xlink="http://www.w3.org/1999/xlink"
       viewBox="0 0 21.365 21.006">
       <g>
              <rect height="21.006" opacity="0" width="21.365" x="0" y="0" />
              <path d="M10.4981 20.9962C16.302 20.9962 21.0037 16.2946 21.0037 10.4981C21.0037 4.70163 16.302 0 10.4981 0C4.70163 0 0 4.70163 0 10.4981C0 16.2946 4.70163 20.9962 10.4981 20.9962ZM10.4981 17.9484C6.37829 17.9484 3.04785 14.6179 3.04785 10.4981C3.04785 6.37829 6.37829 3.04785 10.4981 3.04785C14.6179 3.04785 17.9558 6.37829 17.9558 10.4981C17.9558 14.6179 14.6179 17.9484 10.4981 17.9484Z"
                     fill="currentColor" fill-opacity="0.85" />
              <path d="M6.52326 11.987C7.60087 11.987 8.47341 11.1047 8.47341 10.0368C8.47341 8.96151 7.60087 8.07921 6.52326 8.07921C5.44795 8.07921 4.57541 8.96151 4.57541 10.0368C4.57541 11.1047 5.44795 11.987 6.52326 11.987ZM14.4804 11.987C15.5557 11.987 16.4283 11.1047 16.4283 10.0368C16.4283 8.96151 15.5557 8.07921 14.4804 8.07921C13.4028 8.07921 12.5303 8.96151 12.5303 10.0368C12.5303 11.1047 13.4028 11.987 14.4804 11.987ZM10.4981 16.2542C11.5734 16.2542 12.4483 15.3742 12.4483 14.2989C12.4483 13.2288 11.5734 12.3488 10.4981 12.3488C9.43026 12.3488 8.54796 13.2288 8.54796 14.2989C8.54796 15.3742 9.43026 16.2542 10.4981 16.2542Z"
                     fill="currentColor" fill-opacity="0.85" />
       </g>
</svg>