<?xml version="1.0" encoding="UTF-8"?>
<!--Generator: Apple Native CoreSVG 326-->
<!DOCTYPE svg PUBLIC "-//W3C//DTD SVG 1.1//EN" "http://www.w3.org/Graphics/SVG/1.1/DTD/svg11.dtd">
<svg version="1.1" xmlns="http://www.w3.org/2000/svg" xmlns:xlink="http://www.w3.org/1999/xlink"
       viewBox="0 0 19.3993 19.0529">
       <g>
              <rect height="19.0529" opacity="0" width="19.3993" x="0" y="0" />
              <path d="M19.0379 3.63912L19.0379 15.4011C19.0379 17.7262 17.7164 19.0379 15.3896 19.0379L3.64834 19.0379C1.32382 19.0379 0 17.7262 0 15.4011L0 3.63912C0 1.32151 1.32382 0 3.64834 0L15.3896 0C17.7164 0 19.0379 1.32151 19.0379 3.63912ZM5.81049 4.4541C4.92042 4.4541 4.31113 5.06339 4.31113 5.95345L4.31113 13.0942C4.31113 13.9843 4.92042 14.5936 5.81049 14.5936L13.2413 14.5936C14.1313 14.5936 14.7406 13.9843 14.7406 13.0942L14.7406 5.95345C14.7406 5.06339 14.1313 4.4541 13.2413 4.4541ZM10.3021 10.6251L10.3021 12.3898C10.3021 12.6764 10.0764 12.89 9.78237 12.89L9.27455 12.89C8.97534 12.89 8.7571 12.6741 8.7571 12.3898L8.7571 10.6251C8.7571 10.3161 8.96788 10.1128 9.27455 10.1128L9.78237 10.1128C10.0816 10.1128 10.3021 10.3161 10.3021 10.6251ZM11.6468 6.82472L13.0026 8.15812C13.2283 8.38382 13.2134 8.68589 13.0026 8.89151L12.6263 9.258C12.4179 9.46592 12.1261 9.47108 11.9153 9.258L10.567 7.92174C10.3539 7.69604 10.3539 7.39682 10.5596 7.1912L10.9283 6.82241C11.1466 6.59671 11.4234 6.60648 11.6468 6.82472ZM8.11596 6.82472L8.48245 7.1912C8.69784 7.39682 8.68807 7.7035 8.48245 7.92174L7.12897 9.258C6.92334 9.46592 6.64135 9.46592 6.43288 9.258L6.04917 8.89151C5.82347 8.67843 5.82347 8.38382 6.04917 8.15812L7.40495 6.82702C7.63065 6.60648 7.90518 6.59902 8.11596 6.82472Z"
                     fill="currentColor" fill-opacity="0.85" />
       </g>
</svg>