<?xml version="1.0" encoding="UTF-8"?>
<!--Generator: Apple Native CoreSVG 326-->
<!DOCTYPE svg PUBLIC "-//W3C//DTD SVG 1.1//EN" "http://www.w3.org/Graphics/SVG/1.1/DTD/svg11.dtd">
<svg version="1.1" xmlns="http://www.w3.org/2000/svg" xmlns:xlink="http://www.w3.org/1999/xlink"
       viewBox="0 0 19.3993 19.0529">
       <g>
              <rect height="19.0529" opacity="0" width="19.3993" x="0" y="0" />
              <path d="M3.64834 19.0379L15.3896 19.0379C17.7164 19.0379 19.0379 17.7262 19.0379 15.4011L19.0379 3.63912C19.0379 1.32151 17.7164 0 15.3896 0L3.64834 0C1.32382 0 0 1.32151 0 3.63912L0 15.4011C0 17.7262 1.32382 19.0379 3.64834 19.0379ZM4.05583 16.0183C3.37024 16.0183 3.01964 15.7096 3.01964 14.9775L3.01964 4.07021C3.01964 3.33809 3.37024 3.0271 4.05583 3.0271L14.9821 3.0271C15.6654 3.0271 16.0183 3.33809 16.0183 4.07021L16.0183 14.9775C16.0183 15.7096 15.6654 16.0183 14.9821 16.0183Z"
                     fill="currentColor" fill-opacity="0.85" />
              <path d="M9.51639 14.2978C12.1642 14.2978 14.2904 12.1694 14.2904 9.52901C14.2904 6.88865 12.1642 4.76017 9.51639 4.76017C6.87373 4.76017 4.74755 6.88865 4.74755 9.52901C4.74755 12.1694 6.87373 14.2978 9.51639 14.2978ZM7.51747 10.3284C6.96708 10.3284 6.50173 9.8705 6.50173 9.32011C6.50173 8.78464 6.96708 8.31928 7.51747 8.31928C8.06271 8.31928 8.52576 8.78464 8.52576 9.32011C8.52576 9.8705 8.06271 10.3284 7.51747 10.3284ZM11.416 10.3284C10.8656 10.3284 10.4077 9.87796 10.4077 9.32011C10.4077 8.78464 10.8731 8.31928 11.416 8.31928C11.9664 8.31928 12.4168 8.78464 12.4168 9.32011C12.4168 9.8705 11.9664 10.3284 11.416 10.3284ZM9.51639 12.6672C8.97861 12.6672 8.51557 12.1996 8.51557 11.6589C8.51557 11.116 8.97861 10.6558 9.51639 10.6558C10.0742 10.6558 10.5373 11.1086 10.5373 11.6589C10.5373 12.1996 10.0742 12.6672 9.51639 12.6672Z"
                     fill="currentColor" fill-opacity="0.85" />
       </g>
</svg>