<?xml version="1.0" encoding="UTF-8"?>
<!--Generator: Apple Native CoreSVG 326-->
<!DOCTYPE svg PUBLIC "-//W3C//DTD SVG 1.1//EN" "http://www.w3.org/Graphics/SVG/1.1/DTD/svg11.dtd">
<svg version="1.1" xmlns="http://www.w3.org/2000/svg" xmlns:xlink="http://www.w3.org/1999/xlink"
       viewBox="0 0 19.3993 19.0529">
       <g>
              <rect height="19.0529" opacity="0" width="19.3993" x="0" y="0" />
              <path d="M3.64834 19.0379L15.3896 19.0379C17.7164 19.0379 19.0379 17.7262 19.0379 15.4011L19.0379 3.63912C19.0379 1.32151 17.7164 0 15.3896 0L3.64834 0C1.32382 0 0 1.32151 0 3.63912L0 15.4011C0 17.7262 1.32382 19.0379 3.64834 19.0379ZM4.05583 16.0183C3.37024 16.0183 3.01964 15.7096 3.01964 14.9775L3.01964 4.07021C3.01964 3.33809 3.37024 3.0271 4.05583 3.0271L14.9821 3.0271C15.6654 3.0271 16.0183 3.33809 16.0183 4.07021L16.0183 14.9775C16.0183 15.7096 15.6654 16.0183 14.9821 16.0183Z"
                     fill="currentColor" fill-opacity="0.85" />
              <path d="M6.35457 13.7957L12.6834 13.7957C13.4196 13.7957 13.9296 13.2857 13.9296 12.5495L13.9296 6.4936C13.9296 5.75735 13.4196 5.24736 12.6834 5.24736L6.35457 5.24736C5.61833 5.24736 5.10833 5.75735 5.10833 6.4936L5.10833 12.5495C5.10833 13.2857 5.61833 13.7957 6.35457 13.7957ZM7.65116 9.66275C7.30081 9.66275 7.02397 9.38076 7.02397 9.0258L7.02397 7.47525C7.02397 7.11514 7.30081 6.84346 7.65116 6.84346C8.01127 6.84346 8.29041 7.11514 8.29041 7.47525L8.29041 9.0258C8.29041 9.3733 8.01127 9.66275 7.65116 9.66275ZM11.377 9.66275C11.0244 9.66275 10.7475 9.38076 10.7475 9.0258L10.7475 7.47525C10.7475 7.11514 11.0244 6.84346 11.377 6.84346C11.7348 6.84346 12.014 7.11514 12.014 7.47525L12.014 9.0258C12.014 9.3733 11.7348 9.66275 11.377 9.66275ZM8.86901 12.4151C8.676 12.4151 8.55827 12.3198 8.55827 12.1342L8.55827 11.6304C8.55827 11.0927 8.98389 10.6648 9.51639 10.6648C10.0517 10.6648 10.4797 11.0927 10.4797 11.6304L10.4797 12.1342C10.4797 12.3198 10.3619 12.4151 10.1689 12.4151Z"
                     fill="currentColor" fill-opacity="0.85" />
       </g>
</svg>