<?xml version="1.0" encoding="UTF-8"?>
<!--Generator: Apple Native CoreSVG 326-->
<!DOCTYPE svg PUBLIC "-//W3C//DTD SVG 1.1//EN" "http://www.w3.org/Graphics/SVG/1.1/DTD/svg11.dtd">
<svg version="1.1" xmlns="http://www.w3.org/2000/svg" xmlns:xlink="http://www.w3.org/1999/xlink"
       viewBox="0 0 20.104 19.0575">
       <g>
              <rect height="19.0575" opacity="0" width="20.104" x="0" y="0" />
              <path d="M19.7427 3.65865L19.7427 15.4183C19.7427 17.736 18.4189 19.0575 16.0944 19.0575L3.64834 19.0575C1.32382 19.0575 0 17.7383 0 15.4183L0 3.65865C0 1.33128 1.32382 0.0195312 3.64834 0.0195312L16.0944 0.0195312C18.4189 0.0195312 19.7427 1.33358 19.7427 3.65865ZM4.94541 12.7869C4.94541 13.7312 5.71107 14.4969 6.65537 14.4969C7.60482 14.4969 8.36071 13.7312 8.36071 12.7869C8.36071 11.8449 7.60482 11.0816 6.65537 11.0816C5.71107 11.0816 4.94541 11.8449 4.94541 12.7869ZM11.382 12.7869C11.382 13.7312 12.1379 14.4969 13.0896 14.4969C14.0293 14.4969 14.7973 13.7312 14.7973 12.7869C14.7973 11.8449 14.0293 11.0816 13.0896 11.0816C12.1379 11.0816 11.382 11.8449 11.382 12.7869ZM7.77999 6.66689C7.77999 7.82372 8.70936 8.76571 9.87135 8.76571C11.0333 8.76571 11.9627 7.82372 11.9627 6.66689C11.9627 5.51236 11.0333 4.57553 9.87135 4.57553C8.70936 4.57553 7.77999 5.51236 7.77999 6.66689Z"
                     fill="currentColor" fill-opacity="0.85" />
       </g>
</svg>