<?xml version="1.0" encoding="UTF-8"?>
<!--Generator: Apple Native CoreSVG 326-->
<!DOCTYPE svg PUBLIC "-//W3C//DTD SVG 1.1//EN" "http://www.w3.org/Graphics/SVG/1.1/DTD/svg11.dtd">
<svg version="1.1" xmlns="http://www.w3.org/2000/svg" xmlns:xlink="http://www.w3.org/1999/xlink"
       viewBox="0 0 21.365 21.006">
       <g>
              <rect height="21.006" opacity="0" width="21.365" x="0" y="0" />
              <path d="M10.4981 20.9962C16.302 20.9962 21.0037 16.2946 21.0037 10.4981C21.0037 4.70163 16.302 0 10.4981 0C4.70163 0 0 4.70163 0 10.4981C0 16.2946 4.70163 20.9962 10.4981 20.9962ZM10.4981 17.9484C6.37829 17.9484 3.04785 14.6179 3.04785 10.4981C3.04785 6.37829 6.37829 3.04785 10.4981 3.04785C14.6179 3.04785 17.9558 6.37829 17.9558 10.4981C17.9558 14.6179 14.6179 17.9484 10.4981 17.9484Z"
                     fill="currentColor" fill-opacity="0.85" />
              <path d="M6.77486 12.4483C7.85247 12.4483 8.72501 11.5734 8.72501 10.4981C8.72501 9.4228 7.85247 8.54796 6.77486 8.54796C5.69955 8.54796 4.82701 9.4228 4.82701 10.4981C4.82701 11.5734 5.69955 12.4483 6.77486 12.4483ZM14.2214 12.4483C15.2892 12.4483 16.1692 11.5734 16.1692 10.4981C16.1692 9.4228 15.2892 8.54796 14.2214 8.54796C13.1437 8.54796 12.2637 9.4228 12.2637 10.4981C12.2637 11.5734 13.1437 12.4483 14.2214 12.4483ZM9.36584 13.6534C9.05565 13.6534 8.86209 13.8372 8.86209 14.14L8.86209 14.823C8.86209 15.7387 9.57268 16.459 10.4981 16.459C11.4212 16.459 12.1416 15.7364 12.1416 14.823L12.1416 14.14C12.1416 13.8372 11.9406 13.6534 11.6304 13.6534Z"
                     fill="currentColor" fill-opacity="0.85" />
       </g>
</svg>