<?xml version="1.0" encoding="UTF-8"?>
<!--Generator: Apple Native CoreSVG 326-->
<!DOCTYPE svg PUBLIC "-//W3C//DTD SVG 1.1//EN" "http://www.w3.org/Graphics/SVG/1.1/DTD/svg11.dtd">
<svg version="1.1" xmlns="http://www.w3.org/2000/svg" xmlns:xlink="http://www.w3.org/1999/xlink"
       viewBox="0 0 19.3993 19.0529">
       <g>
              <rect height="19.0529" opacity="0" width="19.3993" x="0" y="0" />
              <path d="M3.64834 19.0379L15.3896 19.0379C17.7164 19.0379 19.0379 17.7262 19.0379 15.4011L19.0379 3.63912C19.0379 1.32151 17.7164 0 15.3896 0L3.64834 0C1.32382 0 0 1.32151 0 3.63912L0 15.4011C0 17.7262 1.32382 19.0379 3.64834 19.0379ZM4.05583 16.0183C3.37024 16.0183 3.01964 15.7096 3.01964 14.9775L3.01964 4.07021C3.01964 3.33809 3.37024 3.0271 4.05583 3.0271L14.9821 3.0271C15.6654 3.0271 16.0183 3.33809 16.0183 4.07021L16.0183 14.9775C16.0183 15.7096 15.6654 16.0183 14.9821 16.0183Z"
                     fill="currentColor" fill-opacity="0.85" />
              <path d="M6.36203 13.7808L12.6759 13.7808C13.4047 13.7808 13.9147 13.2783 13.9147 12.542L13.9147 6.50106C13.9147 5.76481 13.4047 5.26228 12.6759 5.26228L6.36203 5.26228C5.63325 5.26228 5.12326 5.76481 5.12326 6.50106L5.12326 12.542C5.12326 13.2783 5.63325 13.7808 6.36203 13.7808ZM9.52616 8.98802C8.96436 8.98802 8.50768 8.53364 8.50768 7.96208C8.50768 7.39513 8.9569 6.94821 9.52616 6.94821C10.0856 6.94821 10.5349 7.39513 10.5349 7.96208C10.5349 8.53364 10.0782 8.98802 9.52616 8.98802ZM7.70083 12.0874C7.16372 12.0874 6.72943 11.6629 6.72943 11.1309C6.72943 10.599 7.16372 10.1744 7.70083 10.1744C8.22533 10.1744 8.65962 10.6064 8.65962 11.1309C8.65962 11.6629 8.22533 12.0874 7.70083 12.0874ZM11.3492 12.0874C10.8172 12.0874 10.3904 11.6629 10.3904 11.1309C10.3904 10.6064 10.8172 10.1744 11.3492 10.1744C11.8811 10.1744 12.3206 10.6064 12.3206 11.1309C12.3206 11.6629 11.8811 12.0874 11.3492 12.0874Z"
                     fill="currentColor" fill-opacity="0.85" />
       </g>
</svg>