<?xml version="1.0" encoding="UTF-8"?>
<!--Generator: Apple Native CoreSVG 326-->
<!DOCTYPE svg PUBLIC "-//W3C//DTD SVG 1.1//EN" "http://www.w3.org/Graphics/SVG/1.1/DTD/svg11.dtd">
<svg version="1.1" xmlns="http://www.w3.org/2000/svg" xmlns:xlink="http://www.w3.org/1999/xlink"
       viewBox="0 0 27.2036 14.9201">
       <g>
              <rect height="14.9201" opacity="0" width="27.2036" x="0" y="0" />
              <path d="M22.7533 1.91315L25.8814 5.07473C27.1708 6.36585 27.1512 8.43423 25.8814 9.7575L22.778 12.9777C21.6753 14.1068 20.487 14.8931 18.9833 14.8931L7.85151 14.8931C6.34785 14.8931 5.16469 14.1068 4.06427 12.9777L0.958556 9.7575C-0.311279 8.44169-0.328505 6.36585 0.960861 5.07473L4.08149 1.91315C5.26981 0.70816 6.2525 0 7.85151 0L18.9833 0C20.5823 0 21.5627 0.70816 22.7533 1.91315ZM11.556 8.89218C11.556 9.91636 12.3895 10.7596 13.4234 10.7596C14.4476 10.7596 15.2886 9.91636 15.2886 8.89218C15.2886 7.868 14.4476 7.02246 13.4234 7.02246C12.3895 7.02246 11.556 7.868 11.556 8.89218ZM5.38651 7.5131C5.38651 8.52982 6.21999 9.38283 7.25162 9.38283C8.27065 9.38283 9.12135 8.52982 9.12135 7.5131C9.12135 6.48147 8.27065 5.64569 7.25162 5.64569C6.21999 5.64569 5.38651 6.48147 5.38651 7.5131ZM17.7232 7.5131C17.7232 8.52982 18.5762 9.38283 19.5929 9.38283C20.6246 9.38283 21.4604 8.52982 21.4604 7.5131C21.4604 6.48147 20.6246 5.64569 19.5929 5.64569C18.5762 5.64569 17.7232 6.48147 17.7232 7.5131Z"
                     fill="currentColor" fill-opacity="0.85" />
       </g>
</svg>