<?xml version="1.0" encoding="UTF-8"?>
<!--Generator: Apple Native CoreSVG 326-->
<!DOCTYPE svg PUBLIC "-//W3C//DTD SVG 1.1//EN" "http://www.w3.org/Graphics/SVG/1.1/DTD/svg11.dtd">
<svg version="1.1" xmlns="http://www.w3.org/2000/svg" xmlns:xlink="http://www.w3.org/1999/xlink"
       viewBox="0 0 19.3993 19.0529">
       <g>
              <rect height="19.0529" opacity="0" width="19.3993" x="0" y="0" />
              <path d="M19.0379 3.63912L19.0379 15.4011C19.0379 17.7262 17.7164 19.0379 15.3896 19.0379L3.64834 19.0379C1.32382 19.0379 0 17.7262 0 15.4011L0 3.63912C0 1.32151 1.32382 0 3.64834 0L15.3896 0C17.7164 0 19.0379 1.32151 19.0379 3.63912ZM6.45884 6.04304C5.36667 6.04304 4.95093 6.40831 4.29809 7.04854L2.75718 8.57167C2.16688 9.15682 2.16457 9.88912 2.76464 10.4668L4.30555 11.9946C4.95839 12.6273 5.39718 13.0001 6.45884 13.0001L12.5791 13.0001C13.6408 13.0001 14.0795 12.6273 14.7324 11.9946L16.2733 10.4668C16.8734 9.88912 16.8734 9.15682 16.2808 8.57167L14.7398 7.04854C14.087 6.40831 13.6713 6.04304 12.5791 6.04304ZM10.6072 10.3412C10.6072 10.938 10.1206 11.4268 9.51639 11.4268C8.91729 11.4268 8.43077 10.938 8.43077 10.3412C8.43077 9.7444 8.91729 9.25557 9.51639 9.25557C10.1206 9.25557 10.6072 9.7444 10.6072 10.3412ZM6.71554 9.52901C6.71554 10.1258 6.22671 10.6123 5.62245 10.6123C5.02566 10.6123 4.53683 10.1258 4.53683 9.52901C4.53683 8.93221 5.02566 8.44338 5.62245 8.44338C6.22671 8.44338 6.71554 8.93221 6.71554 9.52901ZM14.5011 9.52901C14.5011 10.1258 14.0123 10.6123 13.4155 10.6123C12.8112 10.6123 12.3247 10.1258 12.3247 9.52901C12.3247 8.93221 12.8112 8.44338 13.4155 8.44338C14.0123 8.44338 14.5011 8.93221 14.5011 9.52901Z"
                     fill="currentColor" fill-opacity="0.85" />
       </g>
</svg>