<?xml version="1.0" encoding="UTF-8"?>
<!--Generator: Apple Native CoreSVG 326-->
<!DOCTYPE svg PUBLIC "-//W3C//DTD SVG 1.1//EN" "http://www.w3.org/Graphics/SVG/1.1/DTD/svg11.dtd">
<svg version="1.1" xmlns="http://www.w3.org/2000/svg" xmlns:xlink="http://www.w3.org/1999/xlink"
       viewBox="0 0 23.9337 22.0295">
       <g>
              <rect height="22.0295" opacity="0" width="23.9337" x="0" y="0" />
              <path d="M21.4004 6.9578L21.4004 7.44304L21.8845 7.44304C22.8803 7.44304 23.5723 8.13507 23.5723 9.13838L23.5723 12.8813C23.5723 13.8824 22.8803 14.5744 21.8845 14.5744L21.4004 14.5744L21.4004 15.0545C21.4004 18.7048 16.7982 22.01 11.7824 22.01C6.77413 22.01 2.17191 18.7048 2.17191 15.0545L2.17191 14.5744L1.68788 14.5744C0.692025 14.5744 0 13.8824 0 12.8813L0 9.13838C0 8.13507 0.692025 7.44304 1.68788 7.44304L2.17191 7.44304L2.17191 6.9578C2.17191 3.31491 6.77413 0 11.7824 0C16.7982 0 21.4004 3.31491 21.4004 6.9578ZM5.06096 11.0099C5.06096 12.1667 6.00756 13.1156 7.16439 13.1156C8.32583 13.1156 9.27759 12.1667 9.27759 11.0099C9.27759 9.84557 8.32583 8.89667 7.16439 8.89667C6.00756 8.89667 5.06096 9.84557 5.06096 11.0099ZM14.2948 11.0099C14.2948 12.1667 15.2465 13.1156 16.3982 13.1156C17.5648 13.1156 18.5114 12.1667 18.5114 11.0099C18.5114 9.84557 17.5648 8.89667 16.3982 8.89667C15.2465 8.89667 14.2948 9.84557 14.2948 11.0099Z"
                     fill="currentColor" fill-opacity="0.85" />
       </g>
</svg>