<?xml version="1.0" encoding="UTF-8"?>
<!--Generator: Apple Native CoreSVG 326-->
<!DOCTYPE svg PUBLIC "-//W3C//DTD SVG 1.1//EN" "http://www.w3.org/Graphics/SVG/1.1/DTD/svg11.dtd">
<svg version="1.1" xmlns="http://www.w3.org/2000/svg" xmlns:xlink="http://www.w3.org/1999/xlink"
       viewBox="0 0 26.4815 16.089">
       <g>
              <rect height="16.089" opacity="0" width="26.4815" x="0" y="0" />
              <path d="M22.3974 1.90339L25.278 5.58891C26.4129 7.0173 26.3956 8.966 25.2803 10.4145L22.4147 14.1465C21.4469 15.4032 20.1236 16.062 18.62 16.062L7.50024 16.062C5.99658 16.062 4.6733 15.4032 3.70554 14.1465L0.839903 10.4145C-0.26798 8.97346-0.292667 7.02476 0.842208 5.58891L3.72276 1.90339C4.77381 0.575505 5.89377 0 7.50024 0L18.62 0C20.2264 0 21.3464 0.575505 22.3974 1.90339ZM11.1927 10.2043C11.1927 11.2382 12.0285 12.0717 13.0601 12.0717C14.0917 12.0717 14.9275 11.2382 14.9275 10.2043C14.9275 9.17265 14.0917 8.33687 13.0601 8.33687C12.0285 8.33687 11.1927 9.17265 11.1927 10.2043ZM5.12762 7.95347C5.12762 8.9851 5.9611 9.82319 6.99504 9.82319C8.01176 9.82319 8.86246 8.9851 8.86246 7.95347C8.86246 6.92183 8.01176 6.08605 6.99504 6.08605C5.9611 6.08605 5.12762 6.92183 5.12762 7.95347ZM17.2577 7.95347C17.2577 8.9851 18.1084 9.82319 19.1252 9.82319C20.1591 9.82319 20.9926 8.9851 20.9926 7.95347C20.9926 6.92183 20.1591 6.08605 19.1252 6.08605C18.1084 6.08605 17.2577 6.92183 17.2577 7.95347Z"
                     fill="currentColor" fill-opacity="0.85" />
       </g>
</svg>