<?xml version="1.0" encoding="UTF-8"?>
<!--Generator: Apple Native CoreSVG 326-->
<!DOCTYPE svg PUBLIC "-//W3C//DTD SVG 1.1//EN" "http://www.w3.org/Graphics/SVG/1.1/DTD/svg11.dtd">
<svg version="1.1" xmlns="http://www.w3.org/2000/svg" xmlns:xlink="http://www.w3.org/1999/xlink"
       viewBox="0 0 19.3993 19.0529">
       <g>
              <rect height="19.0529" opacity="0" width="19.3993" x="0" y="0" />
              <path d="M3.64834 19.0379L15.3896 19.0379C17.7164 19.0379 19.0379 17.7262 19.0379 15.4011L19.0379 3.63912C19.0379 1.32151 17.7164 0 15.3896 0L3.64834 0C1.32382 0 0 1.32151 0 3.63912L0 15.4011C0 17.7262 1.32382 19.0379 3.64834 19.0379ZM4.05583 16.0183C3.37024 16.0183 3.01964 15.7096 3.01964 14.9775L3.01964 4.07021C3.01964 3.33809 3.37024 3.0271 4.05583 3.0271L14.9821 3.0271C15.6654 3.0271 16.0183 3.33809 16.0183 4.07021L16.0183 14.9775C16.0183 15.7096 15.6654 16.0183 14.9821 16.0183Z"
                     fill="currentColor" fill-opacity="0.85" />
              <path d="M6.36203 13.7808L12.6759 13.7808C13.4047 13.7808 13.9147 13.2783 13.9147 12.542L13.9147 6.50106C13.9147 5.76481 13.4047 5.26228 12.6759 5.26228L6.36203 5.26228C5.63325 5.26228 5.12326 5.76481 5.12326 6.50106L5.12326 12.542C5.12326 13.2783 5.63325 13.7808 6.36203 13.7808ZM9.52616 9.05892C8.97928 9.05892 8.55244 8.63439 8.55244 8.10244C8.55244 7.57048 8.97928 7.14826 9.52616 7.14826C10.0409 7.14826 10.4752 7.57794 10.4752 8.10244C10.4752 8.63439 10.0409 9.05892 9.52616 9.05892ZM7.70083 11.8874C7.16372 11.8874 6.72943 11.4651 6.72943 10.9332C6.72943 10.3989 7.16372 9.9744 7.70083 9.9744C8.22533 9.9744 8.65962 10.4064 8.65962 10.9332C8.65962 11.4651 8.22533 11.8874 7.70083 11.8874ZM11.3492 11.8874C10.8172 11.8874 10.3904 11.4651 10.3904 10.9332C10.3904 10.4064 10.8172 9.9744 11.3492 9.9744C11.8811 9.9744 12.3206 10.4064 12.3206 10.9332C12.3206 11.4651 11.8811 11.8874 11.3492 11.8874Z"
                     fill="currentColor" fill-opacity="0.85" />
       </g>
</svg>