<?xml version="1.0" encoding="UTF-8"?>
<!--Generator: Apple Native CoreSVG 326-->
<!DOCTYPE svg PUBLIC "-//W3C//DTD SVG 1.1//EN" "http://www.w3.org/Graphics/SVG/1.1/DTD/svg11.dtd">
<svg version="1.1" xmlns="http://www.w3.org/2000/svg" xmlns:xlink="http://www.w3.org/1999/xlink"
       viewBox="0 0 19.3993 19.0529">
       <g>
              <rect height="19.0529" opacity="0" width="19.3993" x="0" y="0" />
              <path d="M3.64834 19.0379L15.3896 19.0379C17.7164 19.0379 19.0379 17.7262 19.0379 15.4011L19.0379 3.63912C19.0379 1.32151 17.7164 0 15.3896 0L3.64834 0C1.32382 0 0 1.32151 0 3.63912L0 15.4011C0 17.7262 1.32382 19.0379 3.64834 19.0379ZM4.05583 16.0183C3.37024 16.0183 3.01964 15.7096 3.01964 14.9775L3.01964 4.07021C3.01964 3.33809 3.37024 3.0271 4.05583 3.0271L14.9821 3.0271C15.6654 3.0271 16.0183 3.33809 16.0183 4.07021L16.0183 14.9775C16.0183 15.7096 15.6654 16.0183 14.9821 16.0183Z"
                     fill="currentColor" fill-opacity="0.85" />
              <path d="M9.51639 14.2904C12.1642 14.2904 14.2904 12.1619 14.2904 9.52155C14.2904 6.87373 12.1642 4.75271 9.51639 4.75271C6.87373 4.75271 4.74755 6.87373 4.74755 9.52155C4.74755 12.1619 6.87373 14.2904 9.51639 14.2904ZM9.51639 7.87959C9.09647 7.87959 8.75182 7.53263 8.75182 7.12248C8.75182 6.6951 9.09647 6.3556 9.51639 6.3556C9.93401 6.3556 10.2884 6.6951 10.2884 7.12248C10.2884 7.53263 9.93401 7.87959 9.51639 7.87959ZM7.21431 10.5643C6.61169 10.5643 6.11419 10.0691 6.11419 9.45901C6.11419 8.84147 6.61169 8.35374 7.21431 8.35374C7.82439 8.35374 8.32705 8.85639 8.32705 9.45901C8.32705 10.0691 7.82439 10.5643 7.21431 10.5643ZM11.8185 10.5597C11.2084 10.5597 10.696 10.057 10.696 9.4544C10.696 8.85178 11.2084 8.34166 11.8185 8.34166C12.4039 8.34166 12.9163 8.83686 12.9163 9.4544C12.9163 10.057 12.4113 10.5597 11.8185 10.5597Z"
                     fill="currentColor" fill-opacity="0.85" />
       </g>
</svg>