<?xml version="1.0" encoding="UTF-8"?>
<!--Generator: Apple Native CoreSVG 326-->
<!DOCTYPE svg PUBLIC "-//W3C//DTD SVG 1.1//EN" "http://www.w3.org/Graphics/SVG/1.1/DTD/svg11.dtd">
<svg version="1.1" xmlns="http://www.w3.org/2000/svg" xmlns:xlink="http://www.w3.org/1999/xlink"
       viewBox="0 0 23.6093 18.642">
       <g>
              <rect height="18.642" opacity="0" width="23.6093" x="0" y="0" />
              <path d="M5.97408 18.6224L17.2716 18.6224C18.1785 18.6224 19.0664 18.2739 19.7039 17.6335C21.9206 15.4944 23.248 12.3697 23.248 9.31611C23.248 6.26256 21.9206 3.1378 19.7039 0.998703C19.0664 0.358356 18.1785 0 17.2716 0L5.97408 0C5.06029 0 4.15573 0.365271 3.51362 1.01714C1.32285 3.15393 0 6.27178 0 9.31611C0 12.3697 1.32746 15.4944 3.54413 17.6335C4.18163 18.2739 5.06721 18.6224 5.97408 18.6224ZM6.18298 15.7934C5.84349 15.7934 5.62173 15.7055 5.40403 15.5027C3.83789 14.0342 2.84059 11.6278 2.84059 9.32763C2.84059 7.03489 3.8402 4.61411 5.40864 3.14793C5.6338 2.94746 5.84579 2.86703 6.18298 2.86703L17.0627 2.86703C17.4022 2.86703 17.6263 2.94977 17.8514 3.16C19.4153 4.62848 20.4149 7.03489 20.4149 9.32763C20.4149 11.6278 19.4153 14.0342 17.8514 15.5027C17.6263 15.7055 17.4022 15.7934 17.0627 15.7934Z"
                     fill="currentColor" fill-opacity="0.85" />
              <path d="M7.40884 13.2316C8.06641 13.2316 8.59879 12.7136 8.59879 12.0612L8.59879 6.61133C8.59879 5.95891 8.06641 5.42654 7.40884 5.42654C6.75642 5.42654 6.23096 5.95891 6.23096 6.61133L6.23096 12.0612C6.23096 12.7136 6.7415 13.2316 7.40884 13.2316ZM15.8369 13.2316C16.4893 13.2316 17.0171 12.7038 17.0171 12.0439L17.0171 6.62625C17.0171 5.95891 16.4893 5.42654 15.8369 5.42654C15.177 5.42654 14.6567 5.96637 14.6567 6.62625L14.6567 12.0439C14.6567 12.7015 15.177 13.2316 15.8369 13.2316Z"
                     fill="currentColor" fill-opacity="0.85" />
       </g>
</svg>