<?xml version="1.0" encoding="UTF-8"?>
<!--Generator: Apple Native CoreSVG 326-->
<!DOCTYPE svg PUBLIC "-//W3C//DTD SVG 1.1//EN" "http://www.w3.org/Graphics/SVG/1.1/DTD/svg11.dtd">
<svg version="1.1" xmlns="http://www.w3.org/2000/svg" xmlns:xlink="http://www.w3.org/1999/xlink"
       viewBox="0 0 20.104 19.0575">
       <g>
              <rect height="19.0575" opacity="0" width="20.104" x="0" y="0" />
              <path d="M3.64834 19.0575L16.0944 19.0575C18.4189 19.0575 19.7427 17.736 19.7427 15.4183L19.7427 3.65865C19.7427 1.33358 18.4189 0.0195312 16.0944 0.0195312L3.64834 0.0195312C1.32382 0.0195312 0 1.33128 0 3.65865L0 15.4183C0 17.7383 1.32382 19.0575 3.64834 19.0575ZM4.05583 16.0378C3.37024 16.0378 3.01964 15.7217 3.01964 14.9896L3.01964 4.07997C3.01964 3.34785 3.37024 3.03918 4.05583 3.03918L15.6846 3.03918C16.3679 3.03918 16.7231 3.34785 16.7231 4.07997L16.7231 14.9896C16.7231 15.7217 16.3679 16.0378 15.6846 16.0378Z"
                     fill="currentColor" fill-opacity="0.85" />
              <path d="M9.52318 14.3143L10.2321 14.3143C10.7358 14.3143 11.0849 13.9726 11.0849 13.4667L11.0849 10.8986C11.0849 10.4099 10.7283 10.051 10.2321 10.051L9.52318 10.051C9.02932 10.051 8.67788 10.4099 8.67788 10.8986L8.67788 13.4667C8.67788 13.9703 9.01956 14.3143 9.52318 14.3143ZM5.10833 8.72186L5.61505 9.21881C5.97626 9.58002 6.4529 9.57256 6.80664 9.21881L8.71876 7.32161C9.06735 6.98048 9.05989 6.47631 8.7113 6.13002L8.20689 5.6233C7.85314 5.27932 7.35873 5.2644 7.01014 5.61815L5.11064 7.52281C4.76435 7.88401 4.75689 8.36065 5.10833 8.72186ZM14.1276 9.21881L14.6344 8.71955C14.9858 8.36065 14.9783 7.88632 14.6298 7.52281L12.7326 5.61815C12.3863 5.2644 11.8896 5.27932 11.5358 5.6233L11.0314 6.13002C10.6828 6.47631 10.6753 6.98048 11.0239 7.32161L12.9361 9.21881C13.2898 9.57256 13.7641 9.58002 14.1276 9.21881Z"
                     fill="currentColor" fill-opacity="0.85" />
       </g>
</svg>