<?xml version="1.0" encoding="UTF-8"?>
<!--Generator: Apple Native CoreSVG 326-->
<!DOCTYPE svg PUBLIC "-//W3C//DTD SVG 1.1//EN" "http://www.w3.org/Graphics/SVG/1.1/DTD/svg11.dtd">
<svg version="1.1" xmlns="http://www.w3.org/2000/svg" xmlns:xlink="http://www.w3.org/1999/xlink"
       viewBox="0 0 19.3993 19.0529">
       <g>
              <rect height="19.0529" opacity="0" width="19.3993" x="0" y="0" />
              <path d="M19.0379 3.63912L19.0379 15.4011C19.0379 17.7262 17.7164 19.0379 15.3896 19.0379L3.64834 19.0379C1.32382 19.0379 0 17.7262 0 15.4011L0 3.63912C0 1.32151 1.32382 0 3.64834 0L15.3896 0C17.7164 0 19.0379 1.32151 19.0379 3.63912ZM5.78974 4.45179C4.89968 4.45179 4.29039 5.06108 4.29039 5.95115L4.29039 13.0919C4.29039 13.982 4.89968 14.5913 5.78974 14.5913L13.2482 14.5913C14.1383 14.5913 14.7476 13.982 14.7476 13.0919L14.7476 5.95115C14.7476 5.06108 14.1383 4.45179 13.2482 4.45179ZM8.50119 11.1909C8.50119 11.8245 7.98998 12.3408 7.36389 12.3408C6.72518 12.3408 6.21397 11.8245 6.21397 11.1909C6.21397 10.5574 6.72518 10.0536 7.36389 10.0536C7.98998 10.0536 8.50119 10.5648 8.50119 11.1909ZM12.8435 11.1909C12.8435 11.8245 12.3197 12.3408 11.6861 12.3408C11.0526 12.3408 10.5414 11.8245 10.5414 11.1909C10.5414 10.5648 11.0526 10.0536 11.6861 10.0536C12.3197 10.0536 12.8435 10.5648 12.8435 11.1909ZM10.6612 7.83725C10.6612 8.4708 10.1425 8.98717 9.52616 8.98717C8.87768 8.98717 8.36647 8.4708 8.36647 7.83725C8.36647 7.2037 8.87768 6.70225 9.52616 6.70225C10.1425 6.70225 10.6612 7.21862 10.6612 7.83725Z"
                     fill="currentColor" fill-opacity="0.85" />
       </g>
</svg>