<?xml version="1.0" encoding="UTF-8"?>
<!--Generator: Apple Native CoreSVG 326-->
<!DOCTYPE svg PUBLIC "-//W3C//DTD SVG 1.1//EN" "http://www.w3.org/Graphics/SVG/1.1/DTD/svg11.dtd">
<svg version="1.1" xmlns="http://www.w3.org/2000/svg" xmlns:xlink="http://www.w3.org/1999/xlink"
       viewBox="0 0 26.2316 26.1176">
       <g>
              <rect height="26.1176" opacity="0" width="26.2316" x="0" y="0" />
              <path d="M20.3981 4.33843L5.80068 4.33843C5.8847 2.40042 7.06649 1.46387 9.09641 1.46387L17.1044 1.46387C19.1664 1.46387 20.3164 2.40042 20.3981 4.33843Z"
                     fill="currentColor" fill-opacity="0.85" />
              <path d="M24.3234 9.38817L24.3234 16.942C24.3234 19.1895 23.049 20.4449 20.8113 20.4449L20.516 20.4449L20.516 15.8382C20.516 14.3402 19.4 13.2317 17.902 13.2317L7.9309 13.2317C6.43525 13.2317 5.32439 14.3402 5.32439 15.8382L5.32439 20.4449L5.05896 20.4449C2.82124 20.4449 1.54679 19.1895 1.54679 16.942L1.54679 9.38817C1.54679 7.14068 2.85175 5.88291 5.05896 5.88291L20.8113 5.88291C23.049 5.88291 24.3234 7.14068 24.3234 9.38817ZM17.2993 9.92109C17.2993 10.704 17.9403 11.3501 18.7307 11.3501C19.5089 11.3501 20.1522 10.7017 20.1522 9.92109C20.1522 9.14051 19.5089 8.49719 18.7307 8.49719C17.9403 8.49719 17.2993 9.14051 17.2993 9.92109Z"
                     fill="currentColor" fill-opacity="0.85" />
              <path d="M6.87118 23.21C6.87118 24.0308 7.41345 24.5731 8.232 24.5731L17.6084 24.5731C18.4293 24.5731 18.9715 24.0308 18.9715 23.21L18.9715 15.8382C18.9715 15.1995 18.5482 14.7785 17.902 14.7785L7.9309 14.7785C7.28704 14.7785 6.87118 15.1995 6.87118 15.8382ZM10.2972 23.2179C9.78134 23.2179 9.3511 22.7997 9.3511 22.2718C9.3511 21.7462 9.78134 21.3281 10.2972 21.3281C10.8227 21.3281 11.2455 21.7462 11.2455 22.2718C11.2455 22.7997 10.8227 23.2179 10.2972 23.2179ZM10.2972 20.6195C9.78134 20.6195 9.3511 20.2014 9.3511 19.6758C9.3511 19.1479 9.78134 18.7297 10.2972 18.7297C10.8227 18.7297 11.2455 19.1479 11.2455 19.6758C11.2455 20.2014 10.8227 20.6195 10.2972 20.6195ZM10.2972 18.0235C9.78134 18.0235 9.3511 17.6054 9.3511 17.0775C9.3511 16.5594 9.78134 16.1337 10.2972 16.1337C10.8227 16.1337 11.2455 16.5594 11.2455 17.0775C11.2455 17.6054 10.8227 18.0235 10.2972 18.0235ZM15.5455 23.2179C15.0297 23.2179 14.5995 22.7997 14.5995 22.2718C14.5995 21.7462 15.0297 21.3281 15.5455 21.3281C16.0711 21.3281 16.4939 21.7462 16.4939 22.2718C16.4939 22.7997 16.0711 23.2179 15.5455 23.2179ZM15.5455 20.6195C15.0297 20.6195 14.5995 20.2238 14.5995 19.6758C14.5995 19.1479 15.0297 18.7297 15.5455 18.7297C16.0711 18.7297 16.4939 19.1479 16.4939 19.6758C16.4939 20.2014 16.0711 20.6195 15.5455 20.6195ZM15.5455 18.0235C15.0297 18.0235 14.5995 17.6054 14.5995 17.0775C14.5995 16.5594 15.0297 16.1337 15.5455 16.1337C16.0711 16.1337 16.4939 16.5594 16.4939 17.0775C16.4939 17.6054 16.0711 18.0235 15.5455 18.0235Z"
                     fill="currentColor" fill-opacity="0.85" />
       </g>
</svg>