<?xml version="1.0" encoding="UTF-8"?>
<!--Generator: Apple Native CoreSVG 326-->
<!DOCTYPE svg PUBLIC "-//W3C//DTD SVG 1.1//EN" "http://www.w3.org/Graphics/SVG/1.1/DTD/svg11.dtd">
<svg version="1.1" xmlns="http://www.w3.org/2000/svg" xmlns:xlink="http://www.w3.org/1999/xlink"
       viewBox="0 0 23.5111 23.1898">
       <g>
              <rect height="23.1898" opacity="0" width="23.5111" x="0" y="0" />
              <path d="M18.9021 3.31346L18.9021 3.86088L16.247 3.86088L16.247 3.08667C16.247 2.60955 15.986 2.35837 15.5238 2.35837L7.62599 2.35837C7.16609 2.35837 6.90284 2.60955 6.90284 3.08667L6.90284 3.86088L4.24768 3.86088L4.24768 3.31346C4.24768 1.07343 5.3896 0 7.57091 0L15.5789 0C17.7907 0 18.9021 1.07343 18.9021 3.31346Z"
                     fill="currentColor" fill-opacity="0.85" />
              <path d="M23.1498 7.41606L23.1498 15.9001C23.1498 18.1775 21.8604 19.4553 19.5854 19.4553L18.6398 19.4553L18.6398 16.8989L19.5303 16.8989C20.1435 16.8989 20.4808 16.5691 20.4808 15.9484L20.4808 7.37523C20.4808 6.7546 20.1435 6.40983 19.5303 6.40983L3.62177 6.40983C3.0063 6.40983 2.6713 6.7546 2.6713 7.37523L2.6713 15.9484C2.6713 16.5691 3.0063 16.8989 3.62177 16.8989L4.51002 16.8989L4.51002 19.4553L3.5667 19.4553C1.28937 19.4553 0 18.1775 0 15.9001L0 7.41606C0 5.14103 1.31988 3.86088 3.5667 3.86088L19.5854 3.86088C21.8604 3.86088 23.1498 5.14103 23.1498 7.41606ZM18.606 8.61238C18.606 9.39065 17.9673 10.0271 17.1936 10.0271C16.4153 10.0271 15.7789 9.39065 15.7789 8.61238C15.7789 7.83871 16.4153 7.2 17.1936 7.2C17.9673 7.2 18.606 7.83871 18.606 8.61238Z"
                     fill="currentColor" fill-opacity="0.85" />
              <path d="M7.23324 23.1092L15.9166 23.1092C17.7686 23.1092 18.6398 22.2519 18.6398 20.386L18.6398 13.5662C18.6398 11.6929 17.7686 10.8355 15.9166 10.8355L7.23324 10.8355C5.40252 10.8355 4.51002 11.6929 4.51002 13.5662L4.51002 20.386C4.51002 22.2519 5.38123 23.1092 7.23324 23.1092ZM7.39325 20.7393C7.09203 20.7393 6.91789 20.5824 6.91789 20.2714L6.91789 13.686C6.91789 13.375 7.09203 13.2204 7.39325 13.2204L15.7589 13.2204C16.0624 13.2204 16.2319 13.375 16.2319 13.686L16.2319 20.2714C16.2319 20.5824 16.0624 20.7393 15.7589 20.7393ZM9.10387 15.585C9.62199 15.585 10.0522 15.1668 10.0522 14.6389C10.0522 14.1133 9.62199 13.6952 9.10387 13.6952C8.58059 13.6952 8.15782 14.1133 8.15782 14.6389C8.15782 15.1668 8.58059 15.585 9.10387 15.585ZM9.10387 17.9199C9.62199 17.9199 10.0522 17.5017 10.0522 16.9761C10.0522 16.4505 9.62199 16.0301 9.10387 16.0301C8.58059 16.0301 8.15782 16.4505 8.15782 16.9761C8.15782 17.5017 8.58059 17.9199 9.10387 17.9199ZM9.10387 20.2571C9.62199 20.2571 10.0522 19.8314 10.0522 19.311C10.0522 18.7854 9.62199 18.3673 9.10387 18.3673C8.58059 18.3673 8.15782 18.7854 8.15782 19.311C8.15782 19.8314 8.58059 20.2571 9.10387 20.2571ZM14.0408 15.585C14.5664 15.585 14.9868 15.1668 14.9868 14.6389C14.9868 14.1133 14.5664 13.6952 14.0408 13.6952C13.5152 13.6952 13.0947 14.1133 13.0947 14.6389C13.0947 15.1668 13.5152 15.585 14.0408 15.585ZM14.0408 17.9199C14.5664 17.9199 14.9868 17.5017 14.9868 16.9761C14.9868 16.4505 14.5664 16.0301 14.0408 16.0301C13.5152 16.0301 13.0947 16.4505 13.0947 16.9761C13.0947 17.5241 13.5152 17.9199 14.0408 17.9199ZM14.0408 20.2571C14.5664 20.2571 14.9868 19.8314 14.9868 19.311C14.9868 18.7854 14.5664 18.3673 14.0408 18.3673C13.5152 18.3673 13.0947 18.7854 13.0947 19.311C13.0947 19.8314 13.5152 20.2571 14.0408 20.2571Z"
                     fill="currentColor" fill-opacity="0.85" />
       </g>
</svg>