<?xml version="1.0" encoding="UTF-8"?>
<!--Generator: Apple Native CoreSVG 326-->
<!DOCTYPE svg PUBLIC "-//W3C//DTD SVG 1.1//EN" "http://www.w3.org/Graphics/SVG/1.1/DTD/svg11.dtd">
<svg version="1.1" xmlns="http://www.w3.org/2000/svg" xmlns:xlink="http://www.w3.org/1999/xlink"
       viewBox="0 0 26.2316 26.1176">
       <g>
              <rect height="26.1176" opacity="0" width="26.2316" x="0" y="0" />
              <path d="M20.4252 4.33843L5.80899 4.33843C5.95225 2.39655 7.08442 1.46387 9.1177 1.46387L17.1257 1.46387C19.1874 1.46387 20.2865 2.39655 20.4252 4.33843Z"
                     fill="currentColor" fill-opacity="0.85" />
              <path d="M24.3234 9.38817L24.3234 16.942C24.3234 19.1895 23.049 20.4449 20.8113 20.4449L20.516 20.4449L20.516 15.8382C20.516 14.3402 19.4 13.2317 17.902 13.2317L7.9309 13.2317C6.43525 13.2317 5.32439 14.3402 5.32439 15.8382L5.32439 20.4449L5.05896 20.4449C2.82124 20.4449 1.54679 19.1895 1.54679 16.942L1.54679 9.38817C1.54679 7.14068 2.85175 5.88291 5.05896 5.88291L20.8113 5.88291C23.049 5.88291 24.3234 7.14068 24.3234 9.38817ZM17.2993 9.92109C17.2993 10.704 17.9403 11.3501 18.7307 11.3501C19.5089 11.3501 20.1522 10.7017 20.1522 9.92109C20.1522 9.14051 19.5089 8.49719 18.7307 8.49719C17.9403 8.49719 17.2993 9.14051 17.2993 9.92109Z"
                     fill="currentColor" fill-opacity="0.85" />
              <path d="M6.87118 23.21C6.87118 24.0308 7.41345 24.5731 8.232 24.5731L17.6084 24.5731C18.4293 24.5731 18.9715 24.0308 18.9715 23.21L18.9715 15.8382C18.9715 15.1995 18.5482 14.7785 17.902 14.7785L7.9309 14.7785C7.28704 14.7785 6.87118 15.1995 6.87118 15.8382ZM10.3057 18.8661C9.81524 18.8661 9.43966 18.4784 9.43966 17.9977C9.43966 17.5217 9.80778 17.1535 10.3057 17.1535L15.5864 17.1535C16.0722 17.1535 16.4478 17.5217 16.4478 17.9977C16.4478 18.4784 16.0722 18.8661 15.5864 18.8661ZM10.3057 22.1981C9.80778 22.1981 9.43966 21.8276 9.43966 21.359C9.43966 20.8708 9.81524 20.4855 10.3057 20.4855L15.5864 20.4855C16.0722 20.4855 16.4478 20.8708 16.4478 21.359C16.4478 21.8276 16.0722 22.1981 15.5864 22.1981Z"
                     fill="currentColor" fill-opacity="0.85" />
       </g>
</svg>