<?xml version="1.0" encoding="UTF-8"?>
<!--Generator: Apple Native CoreSVG 326-->
<!DOCTYPE svg PUBLIC "-//W3C//DTD SVG 1.1//EN" "http://www.w3.org/Graphics/SVG/1.1/DTD/svg11.dtd">
<svg version="1.1" xmlns="http://www.w3.org/2000/svg" xmlns:xlink="http://www.w3.org/1999/xlink"
       viewBox="0 0 23.5111 23.1898">
       <g>
              <rect height="23.1898" opacity="0" width="23.5111" x="0" y="0" />
              <path d="M18.9021 3.31346L18.9021 3.86088L16.247 3.86088L16.247 3.08667C16.247 2.60955 15.986 2.35837 15.5238 2.35837L7.62599 2.35837C7.16609 2.35837 6.90284 2.60955 6.90284 3.08667L6.90284 3.86088L4.24768 3.86088L4.24768 3.31346C4.24768 1.07343 5.3896 0 7.57091 0L15.5789 0C17.7907 0 18.9021 1.07343 18.9021 3.31346Z"
                     fill="currentColor" fill-opacity="0.85" />
              <path d="M23.1498 7.41606L23.1498 15.9001C23.1498 18.1775 21.8604 19.4553 19.5854 19.4553L18.6398 19.4553L18.6398 16.8989L19.5303 16.8989C20.1435 16.8989 20.4808 16.5691 20.4808 15.9484L20.4808 7.37523C20.4808 6.7546 20.1435 6.40983 19.5303 6.40983L3.62177 6.40983C3.0063 6.40983 2.6713 6.7546 2.6713 7.37523L2.6713 15.9484C2.6713 16.5691 3.0063 16.8989 3.62177 16.8989L4.51002 16.8989L4.51002 19.4553L3.5667 19.4553C1.28937 19.4553 0 18.1775 0 15.9001L0 7.41606C0 5.14103 1.31988 3.86088 3.5667 3.86088L19.5854 3.86088C21.8604 3.86088 23.1498 5.14103 23.1498 7.41606ZM18.606 8.61238C18.606 9.39065 17.9673 10.0271 17.1936 10.0271C16.4153 10.0271 15.7789 9.39065 15.7789 8.61238C15.7789 7.83871 16.4153 7.2 17.1936 7.2C17.9673 7.2 18.606 7.83871 18.606 8.61238Z"
                     fill="currentColor" fill-opacity="0.85" />
              <path d="M7.23324 23.1092L15.9166 23.1092C17.7686 23.1092 18.6398 22.2519 18.6398 20.386L18.6398 13.5662C18.6398 11.6929 17.7686 10.8355 15.9166 10.8355L7.23324 10.8355C5.40252 10.8355 4.51002 11.6929 4.51002 13.5662L4.51002 20.386C4.51002 22.2519 5.38123 23.1092 7.23324 23.1092ZM8.94653 15.3272C8.3911 15.3272 7.93388 14.8746 7.93388 14.3146C7.93388 13.7546 8.3911 13.3042 8.94653 13.3042C9.50657 13.3042 9.96149 13.7546 9.96149 14.3146C9.96149 14.8746 9.50657 15.3272 8.94653 15.3272ZM8.94653 17.979C8.3911 17.979 7.93388 17.5362 7.93388 16.9761C7.93388 16.4086 8.3911 15.9709 8.94653 15.9709C9.50657 15.9709 9.96149 16.4086 9.96149 16.9761C9.96149 17.5362 9.50657 17.979 8.94653 17.979ZM8.94653 20.648C8.3911 20.648 7.93388 20.1977 7.93388 19.6279C7.93388 19.0776 8.3911 18.625 8.94653 18.625C9.50657 18.625 9.96149 19.0776 9.96149 19.6279C9.96149 20.1977 9.50657 20.648 8.94653 20.648ZM14.1907 15.3272C13.6381 15.3272 13.1855 14.8746 13.1855 14.3146C13.1855 13.7546 13.6381 13.3042 14.1907 13.3042C14.7559 13.3042 15.2108 13.7546 15.2108 14.3146C15.2108 14.8746 14.7559 15.3272 14.1907 15.3272ZM14.1907 17.979C13.6381 17.979 13.1855 17.566 13.1855 16.9761C13.1855 16.4086 13.6381 15.9709 14.1907 15.9709C14.7559 15.9709 15.2108 16.4086 15.2108 16.9761C15.2108 17.5362 14.7559 17.979 14.1907 17.979ZM14.1907 20.648C13.6381 20.648 13.1855 20.1977 13.1855 19.6279C13.1855 19.0776 13.6381 18.625 14.1907 18.625C14.7559 18.625 15.2108 19.0776 15.2108 19.6279C15.2108 20.1977 14.7559 20.648 14.1907 20.648Z"
                     fill="currentColor" fill-opacity="0.85" />
       </g>
</svg>