<?xml version="1.0" encoding="UTF-8"?>
<!--Generator: Apple Native CoreSVG 326-->
<!DOCTYPE svg PUBLIC "-//W3C//DTD SVG 1.1//EN" "http://www.w3.org/Graphics/SVG/1.1/DTD/svg11.dtd">
<svg version="1.1" xmlns="http://www.w3.org/2000/svg" xmlns:xlink="http://www.w3.org/1999/xlink"
       viewBox="0 0 30.1857 20.0053">
       <g>
              <rect height="20.0053" opacity="0" width="30.1857" x="0" y="0" />
              <path d="M9.34874 19.9737L12.5462 19.9737C13.6328 19.9737 14.4115 19.2202 14.4115 18.233C14.4115 17.6381 14.1955 17.2274 13.926 16.854C13.6232 16.4449 13.367 16.0473 13.367 15.5107C13.367 14.6316 13.9761 13.9873 14.9122 13.9873C15.8483 13.9873 16.4574 14.6316 16.4574 15.5107C16.4574 16.0473 16.1989 16.4449 15.896 16.854C15.6288 17.2274 15.4129 17.6381 15.4129 18.233C15.4129 19.2202 16.1916 19.9737 17.2782 19.9737L20.4808 19.9737C22.5854 19.9737 23.9018 18.6694 23.9018 16.594L23.9018 13.9003C23.9018 13.7366 24.0166 13.6734 24.2073 13.778C24.6533 14.0085 25.202 14.1494 25.8261 14.1494C27.8658 14.1494 29.8243 12.5904 29.8243 9.99491C29.8243 7.40168 27.8658 5.83523 25.8261 5.83523C25.202 5.83523 24.6533 5.97614 24.2073 6.21415C24.0166 6.31126 23.9018 6.25552 23.9018 6.08435L23.9018 3.37217C23.9018 1.29683 22.5854 0 20.4808 0L17.2782 0C16.1916 0 15.4129 0.746009 15.4129 1.74065C15.4129 2.3281 15.6288 2.7388 15.896 3.1122C16.1989 3.52357 16.4574 3.92639 16.4574 4.4578C16.4574 5.33234 15.8437 5.97887 14.9122 5.97887C13.9807 5.97887 13.367 5.33234 13.367 4.4578C13.367 3.92639 13.6232 3.52357 13.926 3.1122C14.1955 2.7388 14.4115 2.3281 14.4115 1.74065C14.4115 0.746009 13.6328 0 12.5462 0L9.34874 0C7.23894 0 5.92258 1.29683 5.92258 3.37217L5.92258 6.08435C5.92258 6.25552 5.8077 6.31126 5.61699 6.21415C5.17851 5.97614 4.62976 5.83523 3.99596 5.83523C1.96605 5.83523 0 7.40168 0 9.99491C0 12.5904 1.96605 14.1494 3.99596 14.1494C4.62976 14.1494 5.17851 14.0085 5.61699 13.778C5.8077 13.6734 5.92258 13.7366 5.92258 13.9003L5.92258 16.594C5.92258 18.6694 7.23894 19.9737 9.34874 19.9737ZM9.37057 17.2972C8.8974 17.2972 8.59903 16.9983 8.59903 16.501L8.59903 12.3558C8.59903 11.2669 7.84556 10.4956 6.85838 10.4956C6.26347 10.4956 5.85276 10.7041 5.47937 10.9811C5.068 11.2839 4.67264 11.535 4.13377 11.535C3.25923 11.535 2.6127 10.9287 2.6127 9.99491C2.6127 9.06341 3.25923 8.44969 4.13377 8.44969C4.67264 8.44969 5.068 8.70075 5.47937 9.00361C5.85276 9.28056 6.26347 9.4965 6.85838 9.4965C7.84556 9.4965 8.59903 8.71779 8.59903 7.6289L8.59903 3.46522C8.59903 2.97021 8.8974 2.66899 9.37057 2.66899L10.9154 2.66899C11.2326 2.66899 11.1756 2.80638 11.0958 3.02177C10.8865 3.51302 10.7525 4.04048 10.7525 4.59561C10.7525 6.63298 12.3166 8.59157 14.9122 8.59157C17.5077 8.59157 19.0718 6.63298 19.0718 4.59561C19.0718 4.04048 18.9379 3.51302 18.7286 3.02177C18.6562 2.80638 18.5918 2.66899 18.909 2.66899L20.4538 2.66899C20.9344 2.66899 21.2328 2.97021 21.2328 3.46522L21.2328 7.6289C21.2328 8.71779 21.9788 9.4965 22.9734 9.4965C23.5683 9.4965 23.9716 9.28056 24.3524 9.00361C24.7615 8.70075 25.1592 8.44969 25.6883 8.44969C26.5651 8.44969 27.2116 9.06341 27.2116 9.99491C27.2116 10.9287 26.5651 11.535 25.6883 11.535C25.1592 11.535 24.7615 11.2839 24.3524 10.9811C23.9716 10.7041 23.5683 10.4956 22.9734 10.4956C21.9788 10.4956 21.2328 11.2669 21.2328 12.3558L21.2328 16.501C21.2328 16.9983 20.9344 17.2972 20.4538 17.2972L18.909 17.2972C18.5918 17.2972 18.6562 17.1598 18.7286 16.9445C18.9379 16.4532 19.0718 15.9257 19.0718 15.3729C19.0718 13.3361 17.5123 11.3746 14.9122 11.3746C12.312 11.3746 10.7525 13.3361 10.7525 15.3729C10.7525 15.9257 10.8865 16.4532 11.0958 16.9445C11.1756 17.1598 11.2326 17.2972 10.9154 17.2972Z"
                     fill="currentColor" fill-opacity="0.85" />
       </g>
</svg>