<?xml version="1.0" encoding="UTF-8"?>
<!--Generator: Apple Native CoreSVG 326-->
<!DOCTYPE svg PUBLIC "-//W3C//DTD SVG 1.1//EN" "http://www.w3.org/Graphics/SVG/1.1/DTD/svg11.dtd">
<svg version="1.1" xmlns="http://www.w3.org/2000/svg" xmlns:xlink="http://www.w3.org/1999/xlink"
       viewBox="0 0 19.3993 19.0529">
       <g>
              <rect height="19.0529" opacity="0" width="19.3993" x="0" y="0" />
              <path d="M19.0379 3.63912L19.0379 15.4011C19.0379 17.7262 17.7164 19.0379 15.3896 19.0379L3.64834 19.0379C1.32382 19.0379 0 17.7262 0 15.4011L0 3.63912C0 1.32151 1.32382 0 3.64834 0L15.3896 0C17.7164 0 19.0379 1.32151 19.0379 3.63912ZM4.96464 9.50596C4.96464 12.517 6.94573 14.3227 9.60592 14.3227C10.0203 14.3227 10.4105 14.275 10.7696 14.179L11.0699 14.6091C11.3696 15.1288 11.682 15.316 12.1821 15.316C12.8269 15.316 13.2949 14.8778 13.2949 14.2726C13.2949 13.9975 13.2065 13.761 12.9911 13.4399L12.7885 13.174C13.7043 12.3514 14.2472 11.0887 14.2472 9.50596C14.2472 6.49256 12.2736 4.69666 9.60592 4.69666C6.94573 4.69666 4.96464 6.49256 4.96464 9.50596ZM11.2556 9.50596C11.2556 10.0735 11.14 10.5508 10.9368 10.8876L10.7337 10.6533C10.6446 10.5676 10.548 10.5268 10.3659 10.5268C9.9667 10.5268 9.6485 10.8031 9.6485 11.2149C9.6485 11.3907 9.69963 11.5222 9.79905 11.6406L9.9516 11.8668C9.84921 11.9002 9.72729 11.9094 9.60592 11.9094C8.66199 11.9094 7.96596 11.0874 7.96596 9.50596C7.96596 7.92453 8.66199 7.10253 9.60592 7.10253C10.5596 7.10253 11.2556 7.92453 11.2556 9.50596Z"
                     fill="currentColor" fill-opacity="0.85" />
       </g>
</svg>