<?xml version="1.0" encoding="UTF-8"?>
<!--Generator: Apple Native CoreSVG 326-->
<!DOCTYPE svg PUBLIC "-//W3C//DTD SVG 1.1//EN" "http://www.w3.org/Graphics/SVG/1.1/DTD/svg11.dtd">
<svg version="1.1" xmlns="http://www.w3.org/2000/svg" xmlns:xlink="http://www.w3.org/1999/xlink"
       viewBox="0 0 19.2346 18.883">
       <g>
              <rect height="18.883" opacity="0" width="19.2346" x="0" y="0" />
              <path d="M17.5442 1.33886C18.5701 2.35734 18.8733 3.69929 18.8733 5.8467L18.8733 13.0243C18.8733 15.1717 18.5701 16.501 17.5442 17.5344C16.5182 18.5603 15.1567 18.8733 13.0243 18.8733L5.8467 18.8733C3.72398 18.8733 2.36995 18.5603 1.3291 17.5344C0.303159 16.5085 0 15.1717 0 13.0243L0 5.84209C0 3.7016 0.303159 2.3648 1.3291 1.33886C2.36249 0.312925 3.72398 0 5.84209 0L13.0243 0C15.1567 0 16.5108 0.312925 17.5442 1.33886ZM7.59887 13.3826C7.59887 14.2124 8.27312 14.726 9.14772 14.726C10.0246 14.726 10.6742 14.2147 10.6742 13.3826C10.6742 12.5654 10.0269 12.037 9.14772 12.037C8.27082 12.037 7.59887 12.5602 7.59887 13.3826ZM5.94727 5.74492C5.86113 5.94593 5.80715 6.14925 5.80715 6.38472C5.80715 6.99807 6.28785 7.5108 6.96538 7.5108C7.42655 7.5108 7.78314 7.35224 8.0433 7.01342L8.12955 6.89611C8.44611 6.46685 8.77202 6.31387 9.1675 6.31387C9.67282 6.31387 10.0694 6.67478 10.0694 7.0933C10.0694 7.6053 9.63224 7.86272 8.85032 8.40335C8.12767 8.9037 7.65024 9.38628 7.65024 10.0765C7.65024 10.1006 7.65024 10.1122 7.65024 10.1288C7.65024 10.8725 8.17965 11.2579 9.14718 11.2579C9.86389 11.2579 10.3979 10.9132 10.5098 10.4457C10.5173 10.3992 10.5247 10.3503 10.5322 10.3211C10.6665 9.91878 11.1254 9.59476 11.6397 9.26261C12.7281 8.58823 13.2224 8.01722 13.2224 6.91819C13.2224 5.17882 11.5888 4.00664 9.48952 4.00664C7.71393 4.00664 6.40207 4.70527 5.94727 5.74492Z"
                     fill="currentColor" fill-opacity="0.85" />
       </g>
</svg>