<?xml version="1.0" encoding="UTF-8"?>
<!--Generator: Apple Native CoreSVG 326-->
<!DOCTYPE svg PUBLIC "-//W3C//DTD SVG 1.1//EN" "http://www.w3.org/Graphics/SVG/1.1/DTD/svg11.dtd">
<svg version="1.1" xmlns="http://www.w3.org/2000/svg" xmlns:xlink="http://www.w3.org/1999/xlink"
       viewBox="0 0 21.365 21.006">
       <g>
              <rect height="21.006" opacity="0" width="21.365" x="0" y="0" />
              <path d="M10.4981 20.9962C16.302 20.9962 21.0037 16.2946 21.0037 10.4981C21.0037 4.70163 16.302 0 10.4981 0C4.70163 0 0 4.70163 0 10.4981C0 16.2946 4.70163 20.9962 10.4981 20.9962ZM10.4981 17.9484C6.37829 17.9484 3.04785 14.6179 3.04785 10.4981C3.04785 6.37829 6.37829 3.04785 10.4981 3.04785C14.6179 3.04785 17.9558 6.37829 17.9558 10.4981C17.9558 14.6179 14.6179 17.9484 10.4981 17.9484Z"
                     fill="currentColor" fill-opacity="0.85" />
              <path d="M10.2259 12.2137C10.9007 12.2137 11.3974 11.8863 11.5018 11.4457C11.5093 11.4141 11.5168 11.3653 11.5317 11.336C11.6436 10.9607 12.068 10.6539 12.5576 10.3465C13.587 9.70655 14.037 9.16998 14.037 8.13986C14.037 6.51131 12.517 5.40858 10.5435 5.40858C8.88623 5.40858 7.65589 6.07507 7.243 7.04065C7.15687 7.23421 7.11265 7.42776 7.11265 7.63854C7.11265 8.21229 7.55144 8.6854 8.17959 8.6854C8.60861 8.6854 8.95029 8.54407 9.19322 8.22763L9.27201 8.12009C9.56904 7.71036 9.88287 7.56484 10.2611 7.56484C10.7395 7.56484 11.1067 7.90852 11.1067 8.30752C11.1067 8.79252 10.704 9.02526 9.95887 9.53143C9.28559 10.0048 8.83286 10.4552 8.83286 11.1138C8.83286 11.1305 8.83286 11.142 8.83286 11.1587C8.83286 11.853 9.33242 12.2137 10.2259 12.2137ZM10.2287 15.4596C11.0488 15.4596 11.649 14.9805 11.649 14.2052C11.649 13.4374 11.0511 12.9509 10.2287 12.9509C9.40636 12.9509 8.78609 13.4322 8.78609 14.2052C8.78609 14.9782 9.40866 15.4596 10.2287 15.4596Z"
                     fill="currentColor" fill-opacity="0.85" />
       </g>
</svg>