<?xml version="1.0" encoding="UTF-8"?>
<!--Generator: Apple Native CoreSVG 326-->
<!DOCTYPE svg PUBLIC "-//W3C//DTD SVG 1.1//EN" "http://www.w3.org/Graphics/SVG/1.1/DTD/svg11.dtd">
<svg version="1.1" xmlns="http://www.w3.org/2000/svg" xmlns:xlink="http://www.w3.org/1999/xlink"
       viewBox="0 0 12.633 18.9101">
       <g>
              <rect height="18.9101" opacity="0" width="12.633" x="0" y="0" />
              <path d="M5.53535 13.1654C6.45769 13.1654 7.06861 12.7265 7.27751 11.915C7.28498 11.8598 7.2999 11.7724 7.31482 11.7247C7.48356 10.8385 7.89032 10.4282 9.54235 9.44354C11.3787 8.34057 12.2716 7.07674 12.2716 5.2442C12.2716 2.1653 9.75447 0.261792 6.06203 0.261792C3.33275 0.261792 1.23502 1.3291 0.375095 2.94528C0.125252 3.41918 5.82112e-05 3.91316 5.82112e-05 4.40363C-0.0074025 5.45268 0.70282 6.16411 1.82823 6.16411C2.66201 6.16411 3.35962 5.75177 3.69262 5.02705C4.1086 3.96242 4.84666 3.52042 5.85937 3.52042C7.06236 3.52042 7.98203 4.25145 7.98203 5.3165C7.98203 6.45186 7.4337 6.99437 5.82559 7.97027C4.50128 8.78106 3.64682 9.70727 3.64682 11.1127C3.64682 11.1835 3.64682 11.2617 3.64682 11.34C3.64682 12.435 4.40642 13.1654 5.53535 13.1654ZM5.58757 18.9101C6.84631 18.9101 7.87934 17.9493 7.87934 16.7325C7.87934 15.5283 6.84631 14.5699 5.58757 14.5699C4.32599 14.5699 3.30557 15.5283 3.30557 16.7325C3.30557 17.9493 4.32599 18.9101 5.58757 18.9101Z"
                     fill="currentColor" fill-opacity="0.85" />
       </g>
</svg>