<?xml version="1.0" encoding="UTF-8"?>
<!--Generator: Apple Native CoreSVG 326-->
<!DOCTYPE svg PUBLIC "-//W3C//DTD SVG 1.1//EN" "http://www.w3.org/Graphics/SVG/1.1/DTD/svg11.dtd">
<svg version="1.1" xmlns="http://www.w3.org/2000/svg" xmlns:xlink="http://www.w3.org/1999/xlink"
       viewBox="0 0 23.3769 22.7532">
       <g>
              <rect height="22.7532" opacity="0" width="23.3769" x="0" y="0" />
              <path d="M7.19957 22.7532C7.95414 22.7532 8.59206 22.4471 9.53095 21.6363L12.7882 18.8023L18.0654 18.8023C21.095 18.8023 23.0156 16.8627 23.0156 13.8447L23.0156 5.96886C23.0156 2.95086 21.095 1.01126 18.0654 1.01126L4.95014 1.01126C1.92061 1.01126 0 2.94855 0 5.96886L0 13.8447C0 16.8651 2.09221 18.8023 4.68902 18.8023L5.39651 18.8023L5.39651 20.7819C5.39651 22.0038 6.08326 22.7532 7.19957 22.7532ZM7.91331 19.4218L7.91331 16.7763C7.91331 16.0549 7.53664 15.7827 6.91977 15.7827L5.18142 15.7827C3.74594 15.7827 3.01964 15.0604 3.01964 13.6186L3.01964 6.19268C3.01964 4.75095 3.74594 4.0309 5.18142 4.0309L17.8342 4.0309C19.2673 4.0309 19.9959 4.75095 19.9959 6.19268L19.9959 13.6186C19.9959 15.0604 19.2673 15.7827 17.8342 15.7827L12.5431 15.7827C11.7948 15.7827 11.484 15.9354 10.9339 16.473Z"
                     fill="currentColor" fill-opacity="0.85" />
              <path d="M6.64924 8.9626C6.64924 10.1729 7.41721 11.0397 8.5058 11.0397C9.04279 11.0397 9.47533 10.8893 9.75162 10.5596L9.95657 10.5596C9.75192 11.2283 9.05965 11.8355 8.08169 12.0462C7.80989 12.114 7.65771 12.2852 7.65771 12.5271C7.65771 12.8309 7.90755 13.0061 8.21829 13.0061C9.42844 13.0061 11.2169 11.5657 11.2169 9.4806C11.2169 7.98834 10.3202 6.78851 8.84177 6.78851C7.57291 6.78851 6.64924 7.69604 6.64924 8.9626ZM12.0197 8.9626C12.0197 10.1729 12.7802 11.0397 13.8762 11.0397C14.4058 11.0397 14.8458 10.8893 15.122 10.5596L15.327 10.5596C15.1223 11.2283 14.4301 11.8355 13.4521 12.0462C13.1752 12.114 13.0207 12.2852 13.0207 12.5271C13.0207 12.8309 13.278 13.0061 13.5887 13.0061C14.7914 13.0061 16.5799 11.5657 16.5799 9.4806C16.5799 7.98834 15.6906 6.78851 14.2047 6.78851C12.9359 6.78851 12.0197 7.69604 12.0197 8.9626Z"
                     fill="currentColor" fill-opacity="0.85" />
       </g>
</svg>