<?xml version="1.0" encoding="UTF-8"?>
<!--Generator: Apple Native CoreSVG 326-->
<!DOCTYPE svg PUBLIC "-//W3C//DTD SVG 1.1//EN" "http://www.w3.org/Graphics/SVG/1.1/DTD/svg11.dtd">
<svg version="1.1" xmlns="http://www.w3.org/2000/svg" xmlns:xlink="http://www.w3.org/1999/xlink"
       viewBox="0 0 23.3769 22.7958">
       <g>
              <rect height="22.7958" opacity="0" width="23.3769" x="0" y="0" />
              <path d="M23.0156 5.99015L23.0156 13.866C23.0156 16.884 21.095 18.8213 18.0654 18.8213L12.113 18.8213L8.38613 22.0888C7.80777 22.6005 7.4052 22.7958 6.92735 22.7958C6.23642 22.7958 5.80454 22.3208 5.80454 21.5587L5.80454 18.8213L4.68902 18.8213C2.09221 18.8213 0 16.8863 0 13.866L0 5.99015C0 2.96984 1.92061 1.03255 4.95014 1.03255L18.0654 1.03255C21.095 1.03255 23.0156 2.97215 23.0156 5.99015ZM6.31624 8.92706C6.31624 10.2114 7.13358 11.1448 8.29854 11.1448C8.86767 11.1448 9.33236 10.9869 9.62588 10.6325L9.85321 10.6325C9.6388 11.3432 8.89715 11.9922 7.84744 12.2203C7.54865 12.2881 7.389 12.4667 7.389 12.7258C7.389 13.0543 7.66353 13.2467 7.9915 13.2467C9.29063 13.2467 11.1899 11.6926 11.1899 9.48467C11.1899 7.8862 10.2364 6.60253 8.6592 6.60253C7.29905 6.60253 6.31624 7.57667 6.31624 8.92706ZM12.0392 8.92706C12.0392 10.2114 12.8565 11.1448 14.0267 11.1448C14.5906 11.1448 15.0553 10.9869 15.3563 10.6325L15.5762 10.6325C15.3618 11.3432 14.6276 11.9922 13.5681 12.2203C13.2888 12.2881 13.1194 12.4667 13.1194 12.7258C13.1194 13.0543 13.3865 13.2467 13.7294 13.2467C15.0136 13.2467 16.9129 11.6926 16.9129 9.48467C16.9129 7.8862 15.957 6.60253 14.3799 6.60253C13.0197 6.60253 12.0392 7.57667 12.0392 8.92706Z"
                     fill="currentColor" fill-opacity="0.85" />
       </g>
</svg>