<?xml version="1.0" encoding="UTF-8"?>
<!--Generator: Apple Native CoreSVG 326-->
<!DOCTYPE svg PUBLIC "-//W3C//DTD SVG 1.1//EN" "http://www.w3.org/Graphics/SVG/1.1/DTD/svg11.dtd">
<svg version="1.1" xmlns="http://www.w3.org/2000/svg" xmlns:xlink="http://www.w3.org/1999/xlink"
       viewBox="0 0 24.504 14.7788">
       <g>
              <rect height="14.7788" opacity="0" width="24.504" x="0" y="0" />
              <path d="M10.9668 9.51682C10.9668 6.58343 9.05789 4.49819 6.45059 4.49819C5.10943 4.49819 4.05067 4.94226 3.29235 5.83323L2.78248 5.83323C3.20713 4.23373 4.87365 2.59378 7.40028 2.04108C7.74032 1.95834 7.98731 1.84807 8.16134 1.64881C8.33251 1.48456 8.4204 1.23132 8.4204 0.947024C8.4204 0.402575 7.95868 0 7.3281 0C6.71948 0 6.30605 0.0958973 5.60262 0.322145C4.37433 0.754137 3.17086 1.48832 2.18859 2.51941C0.721018 4.05073 0 6.07834 0 8.2687C0 12.3635 2.52566 14.7513 5.78744 14.7513C8.77887 14.7513 10.9668 12.6109 10.9668 9.51682ZM24.1427 9.51682C24.1427 6.58343 22.224 4.49819 19.6265 4.49819C18.2779 4.49819 17.2093 4.94226 16.4682 5.83323L15.9434 5.83323C16.383 4.23373 18.0421 2.59378 20.5739 2.04108C20.9065 1.95834 21.1632 1.84807 21.3298 1.64881C21.5009 1.48456 21.594 1.23132 21.594 0.947024C21.594 0.402575 21.1271 0 20.504 0C19.8856 0 19.4819 0.0958973 18.7762 0.322145C17.5502 0.754137 16.3444 1.48832 15.3547 2.51941C13.8969 4.05073 13.1759 6.07834 13.1759 8.2687C13.1759 12.3635 15.7016 14.7513 18.9559 14.7513C21.9548 14.7513 24.1427 12.6109 24.1427 9.51682Z"
                     fill="currentColor" fill-opacity="0.85" />
       </g>
</svg>