<?xml version="1.0" encoding="UTF-8"?>
<!--Generator: Apple Native CoreSVG 326-->
<!DOCTYPE svg PUBLIC "-//W3C//DTD SVG 1.1//EN" "http://www.w3.org/Graphics/SVG/1.1/DTD/svg11.dtd">
<svg version="1.1" xmlns="http://www.w3.org/2000/svg" xmlns:xlink="http://www.w3.org/1999/xlink"
       viewBox="0 0 23.868 18.3346">
       <g>
              <rect height="18.3346" opacity="0" width="23.868" x="0" y="0" />
              <path d="M23.5067 3.62814L23.5067 9.89525C23.5067 15.8167 21.0594 18.3346 15.1641 18.3346L8.34257 18.3346C2.44723 18.3346 0 15.8167 0 9.89525L0 3.62814C0 1.32206 1.32151 0.0051558 3.63221 0.0051558L19.8744 0.0051558C22.1851 0.0051558 23.5067 1.32206 23.5067 3.62814ZM9.81197 5.02736C9.18764 5.02736 8.73284 5.41052 8.73284 6.17891L8.73284 12.1108C8.73284 12.8195 9.11533 13.2405 9.81197 13.2405C10.5603 13.2405 10.9049 12.7546 10.9049 12.1108L10.9049 10.3842L11.7035 10.3842L12.7901 12.4865C13.067 13.0269 13.3731 13.2405 13.9186 13.2405C14.5119 13.2405 14.8985 12.8482 14.8985 12.2343C14.8985 11.9397 14.7779 11.6698 14.6486 11.4493L13.8164 10.0235C14.626 9.59561 15.0835 8.68334 15.0835 7.75142C15.0835 5.91221 13.7956 5.02736 11.9654 5.02736ZM12.8936 7.79794C12.8936 8.49209 12.4896 8.89139 11.7626 8.89139L10.9049 8.89139L10.9049 6.65622L11.7695 6.65622C12.4603 6.65622 12.8936 7.11641 12.8936 7.79794Z"
                     fill="currentColor" fill-opacity="0.85" />
       </g>
</svg>