<?xml version="1.0" encoding="UTF-8"?>
<!--Generator: Apple Native CoreSVG 326-->
<!DOCTYPE svg PUBLIC "-//W3C//DTD SVG 1.1//EN" "http://www.w3.org/Graphics/SVG/1.1/DTD/svg11.dtd">
<svg version="1.1" xmlns="http://www.w3.org/2000/svg" xmlns:xlink="http://www.w3.org/1999/xlink"
       viewBox="0 0 31.0376 24.0271">
       <g>
              <rect height="24.0271" opacity="0" width="31.0376" x="0" y="0" />
              <path d="M26.5044 7.58772C25.7022 7.35351 24.8779 7.52961 24.2734 8.00757C22.7473 4.59567 19.3189 2.22135 15.3419 2.22135C9.9404 2.22135 5.54192 6.6049 5.54192 12.0087C5.54192 17.4125 9.93809 21.7914 15.3419 21.7914C19.3169 21.7914 22.7438 19.422 24.271 16.0141C24.8746 16.4938 25.6981 16.6682 26.5006 16.4363C24.741 20.8725 20.402 24.0128 15.3419 24.0128C8.71029 24.0128 3.32804 18.6277 3.32804 12.0087C3.32804 5.38226 8.71029 0 15.3419 0C20.4059 0 24.7477 3.14339 26.5044 7.58772Z"
                     fill="currentColor" fill-opacity="0.85" />
              <path d="M26.3996 9.42741C25.7953 8.96733 25.0469 9.24132 25.0469 10.0047L25.0469 14.0001C25.0469 14.7904 25.7902 15.0575 26.3973 14.5923L29.0269 12.5733C29.4106 12.2775 29.4226 11.7324 29.0269 11.4366Z"
                     fill="currentColor" fill-opacity="0.85" />
              <path d="M15.3419 20.0553C19.7777 20.0553 23.3885 16.4422 23.3885 12.0087C23.3885 7.56545 19.7777 3.95229 15.3419 3.95229C10.9033 3.95229 7.27802 7.56545 7.27802 12.0087C7.27802 16.4422 10.9033 20.0553 15.3419 20.0553ZM15.3419 17.5281C12.29 17.5281 9.80526 15.0531 9.80526 12.0087C9.80526 8.962 12.29 6.48699 15.3419 6.48699C18.3886 6.48699 20.8613 8.962 20.8613 12.0087C20.8613 15.0531 18.3886 17.5281 15.3419 17.5281ZM13.6906 15.5027C14.3183 15.5027 14.6113 15.0932 14.6113 14.5378L14.6113 13.0536L15.3081 13.0536L16.2506 14.8549C16.493 15.3212 16.7526 15.5027 17.2091 15.5027C17.7163 15.5027 18.0488 15.1621 18.0488 14.6493C18.0488 14.3966 17.9432 14.1634 17.8358 13.9802L17.1133 12.7423C17.8177 12.3833 18.2045 11.5985 18.2045 10.7987C18.2045 9.22997 17.1056 8.46001 15.5453 8.46001L13.6883 8.46001C13.1524 8.46001 12.7642 8.78919 12.7642 9.44676L12.7642 14.5378C12.7642 15.1431 13.095 15.5027 13.6906 15.5027ZM14.6113 11.7847L14.6113 9.85516L15.3667 9.85516C15.9695 9.85516 16.3397 10.2418 16.3397 10.8355C16.3397 11.432 15.9965 11.7847 15.3598 11.7847Z"
                     fill="currentColor" fill-opacity="0.85" />
       </g>
</svg>