<?xml version="1.0" encoding="UTF-8"?>
<!--Generator: Apple Native CoreSVG 326-->
<!DOCTYPE svg PUBLIC "-//W3C//DTD SVG 1.1//EN" "http://www.w3.org/Graphics/SVG/1.1/DTD/svg11.dtd">
<svg version="1.1" xmlns="http://www.w3.org/2000/svg" xmlns:xlink="http://www.w3.org/1999/xlink"
       viewBox="0 0 26.0114 21.5883">
       <g>
              <rect height="21.5883" opacity="0" width="26.0114" x="0" y="0" />
              <path d="M17.6887 17.8092C17.6887 20.1915 15.7975 21.5883 12.8299 21.5883C9.85255 21.5883 7.96881 20.1915 7.96881 17.8092L7.96881 17.6311C9.42043 17.9984 11.0523 18.1925 12.8299 18.1925C14.6065 18.1925 16.2376 17.9982 17.6887 17.6304Z"
                     fill="currentColor" fill-opacity="0.85" />
              <path d="M12.8299 16.5375C19.7443 16.5375 23.995 13.4318 23.995 9.42341C23.995 5.40986 19.742 2.31166 12.8104 2.31166C5.90572 2.31166 1.65737 5.40986 1.65737 9.42341C1.65737 13.4318 5.90572 16.5375 12.8299 16.5375ZM12.8299 13.7461C7.97858 13.7461 4.73803 12.0076 4.73803 9.42341C4.73803 6.83922 7.97858 5.11046 12.8104 5.11046C17.6617 5.11046 20.9143 6.83922 20.9143 9.42341C20.9143 12.0076 17.6789 13.7461 12.8299 13.7461Z"
                     fill="currentColor" fill-opacity="0.85" />
              <path d="M11.311 12.5C11.8984 12.5 12.2522 12.1118 12.2522 11.4503L12.2522 10.4055L12.8379 10.4055L13.7182 11.8253C14.0483 12.345 14.2792 12.5098 14.6874 12.5098C15.214 12.5098 15.5947 12.1681 15.5947 11.6691C15.5947 11.4457 15.5235 11.2665 15.3834 11.0724L14.6388 10.0386C15.389 9.79274 15.8411 9.11606 15.8411 8.28489C15.8411 6.9638 14.9243 6.22677 13.307 6.22677L11.5199 6.22677C10.7654 6.22677 10.3618 6.63735 10.3618 7.41308L10.3618 11.4503C10.3618 12.1193 10.7132 12.5 11.311 12.5ZM12.2522 8.99287L12.2522 7.65383L13.0756 7.65383C13.5428 7.65383 13.8112 7.92278 13.8112 8.32681C13.8112 8.73083 13.5302 8.99287 13.071 8.99287Z"
                     fill="currentColor" fill-opacity="0.85" />
       </g>
</svg>