<?xml version="1.0" encoding="UTF-8"?>
<!--Generator: Apple Native CoreSVG 326-->
<!DOCTYPE svg PUBLIC "-//W3C//DTD SVG 1.1//EN" "http://www.w3.org/Graphics/SVG/1.1/DTD/svg11.dtd">
<svg version="1.1" xmlns="http://www.w3.org/2000/svg" xmlns:xlink="http://www.w3.org/1999/xlink"
       viewBox="0 0 26.0891 28.6164">
       <g>
              <rect height="28.6164" opacity="0" width="26.0891" x="0" y="0" />
              <path d="M12.865 21.6761C14.6457 21.6761 16.2759 21.4819 17.7238 21.116L17.7238 21.3232C17.7238 23.7055 15.8326 25.1023 12.865 25.1023C9.88767 25.1023 8.00393 23.7055 8.00393 21.3232L8.00393 21.1158C9.45241 21.4818 11.0834 21.6761 12.865 21.6761Z"
                     fill="currentColor" fill-opacity="0.85" />
              <path d="M24.0117 12.9375C24.0117 16.8192 19.829 19.96 12.865 19.96C5.8988 19.96 1.71839 16.8192 1.71839 12.9375C1.71839 9.05055 5.8988 5.9247 12.853 5.9247C19.829 5.9247 24.0117 9.05055 24.0117 12.9375ZM11.3455 9.24029C10.4447 9.24029 9.97908 9.72778 9.97908 10.6424L9.97908 15.2864C9.97908 16.0696 10.385 16.5123 11.0919 16.5123C11.7786 16.5123 12.2018 16.0621 12.2018 15.2864L12.2018 14.0906L12.8542 14.0906L13.8607 15.7085C14.2505 16.3349 14.5285 16.5244 15.0062 16.5244C15.6246 16.5244 16.0673 16.1207 16.0673 15.5448C16.0673 15.2818 15.9886 15.0653 15.8261 14.8316L14.9702 13.6543C15.8443 13.3688 16.3607 12.5905 16.3607 11.6354C16.3607 10.0887 15.3027 9.24029 13.4128 9.24029ZM13.9687 11.6773C13.9687 12.1381 13.6555 12.4323 13.132 12.4323L12.2018 12.4323L12.2018 10.9153L13.1366 10.9153C13.6681 10.9153 13.9687 11.2164 13.9687 11.6773Z"
                     fill="currentColor" fill-opacity="0.85" />
              <path d="M10.042 1.45253L12.2838 4.38307C12.5997 4.79662 13.1724 4.78916 13.4883 4.38307L15.7421 1.45253C16.2372 0.80066 15.9575 0 15.1052 0L10.6595 0C9.84618 0 9.54981 0.803511 10.042 1.45253Z"
                     fill="currentColor" fill-opacity="0.85" />
       </g>
</svg>