<?xml version="1.0" encoding="UTF-8"?>
<!--Generator: Apple Native CoreSVG 326-->
<!DOCTYPE svg PUBLIC "-//W3C//DTD SVG 1.1//EN" "http://www.w3.org/Graphics/SVG/1.1/DTD/svg11.dtd">
<svg version="1.1" xmlns="http://www.w3.org/2000/svg" xmlns:xlink="http://www.w3.org/1999/xlink"
       viewBox="0 0 24.3741 31.3819">
       <g>
              <rect height="31.3819" opacity="0" width="24.3741" x="0" y="0" />
              <path d="M24.0128 15.6861C24.0128 20.7483 20.8673 25.0874 16.4278 26.8448C16.6632 26.0424 16.4882 25.2187 16.0076 24.615C19.4178 23.0893 21.7914 19.6625 21.7914 15.6861C21.7914 10.2823 17.4079 5.8838 12.0064 5.8838C6.6026 5.8838 2.22135 10.2823 2.22135 15.6861C2.22135 19.662 4.5932 23.0885 8.00307 24.6145C7.52218 25.2191 7.34375 26.0438 7.57671 26.8441C3.13491 25.0858 0 20.7461 0 15.6861C0 9.05963 5.37249 3.66992 12.0064 3.66992C18.623 3.66992 24.0128 9.05963 24.0128 15.6861Z"
                     fill="currentColor" fill-opacity="0.85" />
              <path d="M10.0001 25.3888C9.22979 25.3888 8.96503 26.1493 9.41303 26.7415L11.4343 29.371C11.7301 29.7622 12.2729 29.7571 12.5636 29.371L14.5854 26.7438C15.0552 26.1321 14.7738 25.3888 13.9932 25.3888Z"
                     fill="currentColor" fill-opacity="0.85" />
              <path d="M12.0064 7.6222C7.56545 7.6222 3.95229 11.2451 3.95229 15.6861C3.95229 20.1218 7.56545 23.7327 12.0064 23.7327C16.4399 23.7327 20.053 20.1218 20.053 15.6861C20.053 11.2451 16.4399 7.6222 12.0064 7.6222ZM10.2322 19.4092C9.5947 19.4092 9.24665 19.0249 9.24665 18.3851L9.24665 12.9616C9.24665 12.2547 9.65954 11.9083 10.2299 11.9083L12.2001 11.9083C13.8712 11.9083 15.0465 12.7225 15.0465 14.3997C15.0465 15.2438 14.6327 16.0802 13.884 16.4714L14.6507 17.7805C14.7679 17.9786 14.8735 18.229 14.8735 18.4989C14.8735 19.0514 14.5237 19.4092 13.9821 19.4092C13.486 19.4092 13.2091 19.2202 12.957 18.7218L11.9554 16.8074L11.227 16.8074L11.227 18.3851C11.227 18.9676 10.9168 19.4092 10.2322 19.4092ZM11.227 15.4397L12.0145 15.4397C12.6806 15.4397 13.0409 15.0772 13.0409 14.4365C13.0409 13.8159 12.6513 13.3947 12.0214 13.3947L11.227 13.3947Z"
                     fill="currentColor" fill-opacity="0.85" />
       </g>
</svg>