<?xml version="1.0" encoding="UTF-8"?>
<!--Generator: Apple Native CoreSVG 326-->
<!DOCTYPE svg PUBLIC "-//W3C//DTD SVG 1.1//EN" "http://www.w3.org/Graphics/SVG/1.1/DTD/svg11.dtd">
<svg version="1.1" xmlns="http://www.w3.org/2000/svg" xmlns:xlink="http://www.w3.org/1999/xlink"
       viewBox="0 0 31.0376 24.0271">
       <g>
              <rect height="24.0271" opacity="0" width="31.0376" x="0" y="0" />
              <path d="M26.5044 7.58772C25.7022 7.35351 24.8779 7.52961 24.2734 8.00757C22.7473 4.59567 19.3189 2.22135 15.3419 2.22135C9.9404 2.22135 5.54192 6.6049 5.54192 12.0087C5.54192 17.4125 9.93809 21.7914 15.3419 21.7914C19.3169 21.7914 22.7438 19.422 24.271 16.0141C24.8746 16.4938 25.6981 16.6682 26.5006 16.4363C24.741 20.8725 20.402 24.0128 15.3419 24.0128C8.71029 24.0128 3.32804 18.6277 3.32804 12.0087C3.32804 5.38226 8.71029 0 15.3419 0C20.4059 0 24.7477 3.14339 26.5044 7.58772Z"
                     fill="currentColor" fill-opacity="0.85" />
              <path d="M26.3996 9.42741C25.7953 8.96733 25.0469 9.24132 25.0469 10.0047L25.0469 14.0001C25.0469 14.7904 25.7902 15.0575 26.3973 14.5923L29.0269 12.5733C29.4106 12.2775 29.4226 11.7324 29.0269 11.4366Z"
                     fill="currentColor" fill-opacity="0.85" />
              <path d="M15.3419 20.0553C19.7777 20.0553 23.3885 16.4422 23.3885 12.0087C23.3885 7.56545 19.7777 3.95229 15.3419 3.95229C10.9033 3.95229 7.27802 7.56545 7.27802 12.0087C7.27802 16.4422 10.9033 20.0553 15.3419 20.0553ZM13.5775 15.7318C12.9325 15.7318 12.5845 15.3476 12.5845 14.7078L12.5845 9.28426C12.5845 8.57731 12.9973 8.23091 13.5752 8.23091L15.5453 8.23091C17.2165 8.23091 18.3843 9.04509 18.3843 10.7224C18.3843 11.5664 17.9705 12.4028 17.2218 12.794L17.9959 14.1031C18.1057 14.3012 18.2188 14.5516 18.2188 14.8216C18.2188 15.374 17.869 15.7318 17.3199 15.7318C16.8238 15.7318 16.5469 15.5429 16.2948 15.0444L15.3006 13.13L14.5648 13.13L14.5648 14.7078C14.5648 15.2902 14.2546 15.7318 13.5775 15.7318ZM14.5648 11.7624L15.3523 11.7624C16.0184 11.7624 16.3862 11.3998 16.3862 10.7591C16.3862 10.1385 15.9965 9.71735 15.3592 9.71735L14.5648 9.71735Z"
                     fill="currentColor" fill-opacity="0.85" />
       </g>
</svg>