<?xml version="1.0" encoding="UTF-8"?>
<!--Generator: Apple Native CoreSVG 326-->
<!DOCTYPE svg PUBLIC "-//W3C//DTD SVG 1.1//EN" "http://www.w3.org/Graphics/SVG/1.1/DTD/svg11.dtd">
<svg version="1.1" xmlns="http://www.w3.org/2000/svg" xmlns:xlink="http://www.w3.org/1999/xlink"
       viewBox="0 0 19.3993 19.0529">
       <g>
              <rect height="19.0529" opacity="0" width="19.3993" x="0" y="0" />
              <path d="M19.0379 3.63912L19.0379 15.4011C19.0379 17.7262 17.7164 19.0379 15.3896 19.0379L3.64834 19.0379C1.32382 19.0379 0 17.7262 0 15.4011L0 3.63912C0 1.32151 1.32382 0 3.64834 0L15.3896 0C17.7164 0 19.0379 1.32151 19.0379 3.63912ZM7.15002 4.91611C6.04535 4.91611 5.48094 5.51849 5.48094 6.63984L5.48094 12.7699C5.48094 13.7323 5.96558 14.2899 6.83897 14.2899C7.70435 14.2899 8.21138 13.7294 8.21138 12.7699L8.21138 11.1204L9.19109 11.1204L10.534 13.2828C11.0094 14.0464 11.3487 14.2899 11.9488 14.2899C12.7142 14.2899 13.2483 13.7978 13.2483 13.0967C13.2483 12.7602 13.1598 12.5069 12.9456 12.2123L11.7901 10.5876C12.9344 10.2418 13.629 9.23185 13.629 7.96693C13.629 6.00131 12.2728 4.91611 9.85873 4.91611ZM10.6943 8.03584C10.6943 8.68941 10.2287 9.11066 9.50268 9.11066L8.21138 9.11066L8.21138 6.94718L9.51936 6.94718C10.2464 6.94718 10.6943 7.36789 10.6943 8.03584Z"
                     fill="currentColor" fill-opacity="0.85" />
       </g>
</svg>