<?xml version="1.0" encoding="UTF-8"?>
<!--Generator: Apple Native CoreSVG 326-->
<!DOCTYPE svg PUBLIC "-//W3C//DTD SVG 1.1//EN" "http://www.w3.org/Graphics/SVG/1.1/DTD/svg11.dtd">
<svg version="1.1" xmlns="http://www.w3.org/2000/svg" xmlns:xlink="http://www.w3.org/1999/xlink"
       viewBox="0 0 26.5265 25.9308">
       <g>
              <rect height="25.9308" opacity="0" width="26.5265" x="0" y="0" />
              <path d="M24.4491 10.7421L24.4491 20.5876C24.4491 22.9052 23.1252 24.2268 20.7933 24.2268L10.9811 24.2268C8.65144 24.2268 7.32531 22.9052 7.32531 20.5876L7.32531 20.5559L15.184 20.5559C18.4648 20.5559 20.5559 18.4769 20.5559 15.2007L20.5559 7.10301L20.7933 7.10301C23.1252 7.10301 24.4491 8.42222 24.4491 10.7421Z"
                     fill="currentColor" fill-opacity="0.85" />
              <path d="M18.8398 5.36267L18.8398 15.2007C18.8398 17.5183 17.516 18.8398 15.184 18.8398L5.37188 18.8398C3.04221 18.8398 1.71608 17.5183 1.71608 15.2007L1.71608 5.36267C1.71608 3.0376 3.04221 1.72354 5.37188 1.72354L15.184 1.72354C17.516 1.72354 18.8398 3.0376 18.8398 5.36267ZM7.82063 5.67626C6.71366 5.67626 6.14925 6.27863 6.14925 7.39998L6.14925 13.5301C6.14925 14.4947 6.63389 15.05 7.50728 15.05C8.37266 15.05 8.87969 14.4919 8.87969 13.5301L8.87969 11.8806L9.8594 11.8806L11.2046 14.0452C11.68 14.8066 12.0171 15.05 12.6246 15.05C13.3825 15.05 13.9166 14.5579 13.9166 13.8568C13.9166 13.5203 13.8281 13.2671 13.614 12.9725L12.4607 11.3478C13.6027 11.0019 14.2973 9.992 14.2973 8.72707C14.2973 6.76376 12.9411 5.67626 10.527 5.67626ZM11.3626 8.79598C11.3626 9.44955 10.897 9.8708 10.171 9.8708L8.87969 9.8708L8.87969 7.70733L10.1877 7.70733C10.9148 7.70733 11.3626 8.12804 11.3626 8.79598Z"
                     fill="currentColor" fill-opacity="0.85" />
       </g>
</svg>