<?xml version="1.0" encoding="UTF-8"?>
<!--Generator: Apple Native CoreSVG 326-->
<!DOCTYPE svg PUBLIC "-//W3C//DTD SVG 1.1//EN" "http://www.w3.org/Graphics/SVG/1.1/DTD/svg11.dtd">
<svg version="1.1" xmlns="http://www.w3.org/2000/svg" xmlns:xlink="http://www.w3.org/1999/xlink"
       viewBox="0 0 19.3993 19.0529">
       <g>
              <rect height="19.0529" opacity="0" width="19.3993" x="0" y="0" />
              <path d="M3.64834 19.0379L15.3896 19.0379C17.7164 19.0379 19.0379 17.7262 19.0379 15.4011L19.0379 3.63912C19.0379 1.32151 17.7164 0 15.3896 0L3.64834 0C1.32382 0 0 1.32151 0 3.63912L0 15.4011C0 17.7262 1.32382 19.0379 3.64834 19.0379ZM4.05583 16.0183C3.37024 16.0183 3.01964 15.7096 3.01964 14.9775L3.01964 4.07021C3.01964 3.33809 3.37024 3.0271 4.05583 3.0271L14.9821 3.0271C15.6654 3.0271 16.0183 3.33809 16.0183 4.07021L16.0183 14.9775C16.0183 15.7096 15.6654 16.0183 14.9821 16.0183Z"
                     fill="currentColor" fill-opacity="0.85" />
              <path d="M6.92686 13.9867C7.73541 13.9867 8.21775 13.4682 8.21775 12.573L8.21775 11.0142L9.13887 11.0142L10.4031 13.0514C10.8389 13.7605 11.1708 13.9867 11.7289 13.9867C12.4324 13.9867 12.9342 13.5268 12.9342 12.875C12.9342 12.5632 12.8458 12.3249 12.654 12.055L11.5697 10.5136C12.6302 10.1924 13.2903 9.24162 13.2903 8.06052C13.2903 6.22064 12.0179 5.19689 9.75944 5.19689L7.22299 5.19689C6.18777 5.19689 5.66297 5.75735 5.66297 6.80695L5.66297 12.573C5.66297 13.471 6.12293 13.9867 6.92686 13.9867ZM8.21775 9.13304L8.21775 7.0896L9.43729 7.0896C10.1351 7.0896 10.5536 7.48332 10.5536 8.11451C10.5536 8.73878 10.1098 9.13304 9.42807 9.13304Z"
                     fill="currentColor" fill-opacity="0.85" />
       </g>
</svg>