<?xml version="1.0" encoding="UTF-8"?>
<!--Generator: Apple Native CoreSVG 326-->
<!DOCTYPE svg PUBLIC "-//W3C//DTD SVG 1.1//EN" "http://www.w3.org/Graphics/SVG/1.1/DTD/svg11.dtd">
<svg version="1.1" xmlns="http://www.w3.org/2000/svg" xmlns:xlink="http://www.w3.org/1999/xlink"
       viewBox="0 0 23.0845 22.5228">
       <g>
              <rect height="22.5228" opacity="0" width="23.0845" x="0" y="0" />
              <path d="M22.7232 8.68747L22.7232 18.8836C22.7232 21.2012 21.4092 22.5228 19.0772 22.5228L8.91438 22.5228C6.5824 22.5228 5.25858 21.2012 5.25858 18.8836L5.25858 17.4865L8.27822 17.4865L8.27822 18.4525C8.27822 19.1847 8.63342 19.5031 9.32187 19.5031L18.6674 19.5031C19.353 19.5031 19.7036 19.1847 19.7036 18.4525L19.7036 9.11855C19.7036 8.38643 19.353 8.07545 18.6674 8.07545L17.4646 8.07545L17.4646 5.04834L19.0772 5.04834C21.4092 5.04834 22.7232 6.36755 22.7232 8.68747Z"
                     fill="currentColor" fill-opacity="0.85" />
              <path d="M13.8186 0.0195312L3.64834 0.0195312C1.32382 0.0195312 0 1.33358 0 3.65865L0 13.8474C0 16.165 1.32382 17.4865 3.64834 17.4865L13.8186 17.4865C16.1431 17.4865 17.4646 16.165 17.4646 13.8474L17.4646 3.65865C17.4646 1.33358 16.1431 0.0195312 13.8186 0.0195312ZM13.4088 3.03918C14.0944 3.03918 14.445 3.35016 14.445 4.08228L14.445 13.4163C14.445 14.1559 14.0944 14.4668 13.4088 14.4668L4.05583 14.4668C3.37485 14.4668 3.01964 14.1559 3.01964 13.4163L3.01964 4.08228C3.01964 3.35016 3.37485 3.03918 4.05583 3.03918Z"
                     fill="currentColor" fill-opacity="0.85" />
              <path d="M6.14767 13.2219C6.94876 13.2219 7.4311 12.6982 7.4311 11.8007L7.4311 10.242L8.35222 10.242L9.61872 12.2814C10.062 12.9957 10.3841 13.2219 10.9423 13.2219C11.6457 13.2219 12.1476 12.7545 12.1476 12.1028C12.1476 11.7909 12.0592 11.5526 11.8674 11.2827L10.783 9.74876C11.851 9.42013 12.5036 8.47681 12.5036 7.29571C12.5036 5.45068 11.2313 4.42462 8.98025 4.42462L6.43864 4.42462C5.40112 4.42462 4.87632 4.99254 4.87632 6.03468L4.87632 11.8007C4.87632 12.7011 5.33628 13.2219 6.14767 13.2219ZM7.4311 8.36823L7.4311 6.32479L8.65065 6.32479C9.34843 6.32479 9.76696 6.71851 9.76696 7.3497C9.76696 7.97397 9.3232 8.36823 8.64143 8.36823Z"
                     fill="currentColor" fill-opacity="0.85" />
       </g>
</svg>