<?xml version="1.0" encoding="UTF-8"?>
<!--Generator: Apple Native CoreSVG 326-->
<!DOCTYPE svg PUBLIC "-//W3C//DTD SVG 1.1//EN" "http://www.w3.org/Graphics/SVG/1.1/DTD/svg11.dtd">
<svg version="1.1" xmlns="http://www.w3.org/2000/svg" xmlns:xlink="http://www.w3.org/1999/xlink"
       viewBox="0 0 21.365 21.006">
       <g>
              <rect height="21.006" opacity="0" width="21.365" x="0" y="0" />
              <path d="M10.4981 20.9962C16.302 20.9962 21.0037 16.2946 21.0037 10.4981C21.0037 4.70163 16.302 0 10.4981 0C4.70163 0 0 4.70163 0 10.4981C0 16.2946 4.70163 20.9962 10.4981 20.9962ZM10.4981 17.9484C6.37829 17.9484 3.04785 14.6179 3.04785 10.4981C3.04785 6.37829 6.37829 3.04785 10.4981 3.04785C14.6179 3.04785 17.9558 6.37829 17.9558 10.4981C17.9558 14.6179 14.6179 17.9484 10.4981 17.9484Z"
                     fill="currentColor" fill-opacity="0.85" />
              <path d="M6.96556 14.3414C7.53931 14.3414 7.85005 13.9836 7.85005 13.4052L7.85005 11.5624L8.33014 11.5624L9.00257 13.5764C9.17429 14.0892 9.45858 14.3414 9.92382 14.3414C10.3953 14.3414 10.7767 13.9992 10.7543 13.4541C10.7469 13.2795 10.7106 13.1439 10.6354 12.9566L9.97622 11.1949C10.5956 10.7772 10.8381 9.96494 10.8381 9.21287C10.8381 7.60615 9.93795 6.8013 8.41451 6.8013L6.96326 6.8013C6.37744 6.8013 6.07131 7.15165 6.07131 7.74493L6.07131 13.4052C6.07131 13.9887 6.37975 14.3414 6.96556 14.3414ZM7.85005 10.3385L7.85005 8.15794L8.25541 8.15794C8.78354 8.15794 9.0198 8.71458 9.0198 9.24963C9.0198 9.80475 8.80999 10.3385 8.24795 10.3385ZM13.9215 14.3196C14.4166 14.3196 14.8134 13.9227 14.8134 13.4276L14.8134 7.67196C14.8134 7.0247 14.4189 6.67205 13.7767 6.67205C13.292 6.67205 12.9525 6.87427 12.6309 7.1172L11.8103 7.74584C11.56 7.94225 11.4307 8.15763 11.4307 8.44138C11.4307 8.87841 11.7253 9.07087 12.0183 9.07087C12.1894 9.07087 12.3095 9.02204 12.4519 8.91638L13.0295 8.46231L13.0295 13.4276C13.0295 13.9227 13.4264 14.3196 13.9215 14.3196Z"
                     fill="currentColor" fill-opacity="0.85" />
       </g>
</svg>