<?xml version="1.0" encoding="UTF-8"?>
<!--Generator: Apple Native CoreSVG 326-->
<!DOCTYPE svg PUBLIC "-//W3C//DTD SVG 1.1//EN" "http://www.w3.org/Graphics/SVG/1.1/DTD/svg11.dtd">
<svg version="1.1" xmlns="http://www.w3.org/2000/svg" xmlns:xlink="http://www.w3.org/1999/xlink"
       viewBox="0 0 21.365 21.006">
       <g>
              <rect height="21.006" opacity="0" width="21.365" x="0" y="0" />
              <path d="M21.0037 10.4981C21.0037 16.2923 16.302 20.9962 10.4981 20.9962C4.70394 20.9962 0 16.2923 0 10.4981C0 4.70163 4.70394 0 10.4981 0C16.302 0 21.0037 4.70163 21.0037 10.4981ZM6.92432 6.7526C6.32358 6.7526 6.01745 7.11556 6.01745 7.70884L6.01745 13.439C6.01745 14.03 6.32588 14.3901 6.92662 14.3901C7.50552 14.3901 7.82142 14.0248 7.82142 13.439L7.82142 11.5802L8.30206 11.5802L8.9871 13.6125C9.15652 14.138 9.44827 14.3901 9.91351 14.3901C10.4051 14.3901 10.7842 14.0381 10.7692 13.4901C10.7543 13.3156 10.7279 13.1725 10.6428 12.9875L9.98314 11.2075C10.6031 10.7847 10.8531 9.96209 10.8531 9.1974C10.8531 7.57522 9.93279 6.7526 8.38643 6.7526ZM12.6544 7.08111L11.8333 7.71721C11.568 7.90901 11.4485 8.1267 11.4485 8.4156C11.4485 8.86009 11.7505 9.05771 12.0435 9.05771C12.2198 9.05771 12.3399 9.01119 12.48 8.89576L13.0628 8.43884L13.0628 13.4614C13.0628 13.9737 13.4648 14.3683 13.9748 14.3683C14.4825 14.3683 14.8771 13.9737 14.8771 13.4614L14.8771 7.64564C14.8771 6.98345 14.4848 6.6308 13.8226 6.6308C13.3304 6.6308 12.9783 6.83303 12.6544 7.08111ZM9.00433 9.23646C9.00433 9.79444 8.78706 10.3385 8.22448 10.3385L7.82142 10.3385L7.82142 8.13677L8.2394 8.13677C8.77038 8.13677 9.00433 8.69626 9.00433 9.23646Z"
                     fill="currentColor" fill-opacity="0.85" />
       </g>
</svg>