<?xml version="1.0" encoding="UTF-8"?>
<!--Generator: Apple Native CoreSVG 326-->
<!DOCTYPE svg PUBLIC "-//W3C//DTD SVG 1.1//EN" "http://www.w3.org/Graphics/SVG/1.1/DTD/svg11.dtd">
<svg version="1.1" xmlns="http://www.w3.org/2000/svg" xmlns:xlink="http://www.w3.org/1999/xlink"
       viewBox="0 0 23.868 18.3346">
       <g>
              <rect height="18.3346" opacity="0" width="23.868" x="0" y="0" />
              <path d="M8.34257 0.0051558C2.44723 0.0051558 0 2.52305 0 8.44448L0 14.7093C0 17.0177 1.32151 18.3346 3.63221 18.3346L19.8744 18.3346C22.1851 18.3346 23.5067 17.0154 23.5067 14.7093L23.5067 8.44448C23.5067 2.52305 21.0594 0.0051558 15.1641 0.0051558ZM8.48433 3.03226L15.02 3.03226C18.8782 3.03226 20.487 4.64626 20.487 8.46389L20.487 14.2805C20.487 14.9437 20.1089 15.3149 19.4623 15.3149L4.04431 15.3149C3.3857 15.3149 3.01964 14.9437 3.01964 14.2805L3.01964 8.46389C3.01964 4.64626 4.62102 3.03226 8.48433 3.03226Z"
                     fill="currentColor" fill-opacity="0.85" />
              <path d="M7.71181 13.008C8.2781 13.008 8.58884 12.6479 8.58884 12.0695L8.58884 10.2267L9.06663 10.2267L9.74136 12.2407C9.90792 12.7535 10.1974 13.008 10.6626 13.008C11.1341 13.008 11.5155 12.6635 11.5006 12.1207C11.4931 11.9438 11.4546 11.8082 11.3816 11.6209L10.715 9.85916C11.3396 9.44154 11.5844 8.63154 11.5844 7.87716C11.5844 6.27044 10.6744 5.4656 9.151 5.4656L7.70205 5.4656C7.11623 5.4656 6.8101 5.81595 6.8101 6.40922L6.8101 12.0695C6.8101 12.653 7.11623 13.008 7.71181 13.008ZM8.58884 9.00276L8.58884 6.82223L9.00166 6.82223C9.5298 6.82223 9.76605 7.37887 9.76605 7.91392C9.76605 8.47135 9.54878 9.00276 8.9942 9.00276ZM13.1539 12.8713L16.2143 12.8713C16.6927 12.8713 16.8829 12.5474 16.8829 12.1832C16.8829 11.8144 16.6904 11.4951 16.2143 11.4951L14.4147 11.4951L14.4147 11.417L15.5047 10.0953C16.2798 9.1604 16.7662 8.46243 16.7662 7.4613C16.7662 6.08095 15.8156 5.26568 14.4978 5.26568C13.3075 5.26568 12.3378 6.15162 12.3378 7.17701C12.3378 7.6181 12.5974 7.94661 13.058 7.94661C13.4251 7.94661 13.7024 7.77029 13.8323 7.34587C13.9483 6.93778 14.103 6.61485 14.4955 6.61485C14.9345 6.61485 15.1001 7.03028 15.1001 7.51244C15.1001 8.20416 14.6376 8.8758 14.0827 9.57717L12.7938 11.2103C12.4665 11.6214 12.343 11.873 12.343 12.1757C12.343 12.6122 12.625 12.8713 13.1539 12.8713Z"
                     fill="currentColor" fill-opacity="0.85" />
       </g>
</svg>