<?xml version="1.0" encoding="UTF-8"?>
<!--Generator: Apple Native CoreSVG 326-->
<!DOCTYPE svg PUBLIC "-//W3C//DTD SVG 1.1//EN" "http://www.w3.org/Graphics/SVG/1.1/DTD/svg11.dtd">
<svg version="1.1" xmlns="http://www.w3.org/2000/svg" xmlns:xlink="http://www.w3.org/1999/xlink"
       viewBox="0 0 21.365 21.006">
       <g>
              <rect height="21.006" opacity="0" width="21.365" x="0" y="0" />
              <path d="M10.4981 20.9962C16.302 20.9962 21.0037 16.2946 21.0037 10.4981C21.0037 4.70163 16.302 0 10.4981 0C4.70163 0 0 4.70163 0 10.4981C0 16.2946 4.70163 20.9962 10.4981 20.9962ZM10.4981 17.9484C6.37829 17.9484 3.04785 14.6179 3.04785 10.4981C3.04785 6.37829 6.37829 3.04785 10.4981 3.04785C14.6179 3.04785 17.9558 6.37829 17.9558 10.4981C17.9558 14.6179 14.6179 17.9484 10.4981 17.9484Z"
                     fill="currentColor" fill-opacity="0.85" />
              <path d="M6.44568 14.3414C7.01942 14.3414 7.33017 13.9836 7.33017 13.4052L7.33017 11.5624L7.80795 11.5624L8.48269 13.5764C8.64925 14.0892 8.9387 14.3414 9.40393 14.3414C9.87541 14.3414 10.2568 13.9992 10.2419 13.4541C10.2344 13.2795 10.1959 13.1439 10.123 12.9566L9.45634 11.1949C10.0758 10.7772 10.3257 9.96494 10.3257 9.21287C10.3257 7.60615 9.41576 6.8013 7.89232 6.8013L6.44337 6.8013C5.85756 6.8013 5.55143 7.15165 5.55143 7.74493L5.55143 13.4052C5.55143 13.9887 5.85756 14.3414 6.44568 14.3414ZM7.33017 10.3385L7.33017 8.15794L7.74299 8.15794C8.26366 8.15794 8.50738 8.71458 8.50738 9.24963C8.50738 9.80475 8.29011 10.3385 7.72807 10.3385ZM11.8953 14.2047L14.9557 14.2047C15.4341 14.2047 15.6242 13.8831 15.6242 13.5189C15.6242 13.1478 15.4318 12.8308 14.9557 12.8308L13.156 12.8308L13.156 12.7527L14.246 11.431C15.0212 10.4961 15.5076 9.79583 15.5076 8.79471C15.5076 7.41666 14.5569 6.60138 13.2316 6.60138C12.0488 6.60138 11.0791 7.48732 11.0791 8.51041C11.0791 8.95381 11.3387 9.28232 11.7994 9.28232C12.1589 9.28232 12.4438 9.10599 12.5661 8.67928C12.6822 8.27118 12.8443 7.95056 13.2293 7.95056C13.6758 7.95056 13.8414 8.36368 13.8414 8.84814C13.8414 9.53986 13.3789 10.2115 12.824 10.9129L11.5351 12.5437C11.2101 12.9571 11.0843 13.2087 11.0843 13.5114C11.0843 13.9479 11.3663 14.2047 11.8953 14.2047Z"
                     fill="currentColor" fill-opacity="0.85" />
       </g>
</svg>