<?xml version="1.0" encoding="UTF-8"?>
<!--Generator: Apple Native CoreSVG 326-->
<!DOCTYPE svg PUBLIC "-//W3C//DTD SVG 1.1//EN" "http://www.w3.org/Graphics/SVG/1.1/DTD/svg11.dtd">
<svg version="1.1" xmlns="http://www.w3.org/2000/svg" xmlns:xlink="http://www.w3.org/1999/xlink"
       viewBox="0 0 21.365 21.006">
       <g>
              <rect height="21.006" opacity="0" width="21.365" x="0" y="0" />
              <path d="M21.0037 10.4981C21.0037 16.2923 16.302 20.9962 10.4981 20.9962C4.70394 20.9962 0 16.2923 0 10.4981C0 4.70163 4.70394 0 10.4981 0C16.302 0 21.0037 4.70163 21.0037 10.4981ZM6.38951 6.76236C5.79338 6.76236 5.48725 7.11787 5.48725 7.70884L5.48725 13.439C5.48725 14.03 5.79338 14.3976 6.39182 14.3976C6.97302 14.3976 7.28892 14.0248 7.28892 13.439L7.28892 11.5802L7.76956 11.5802L8.44484 13.6125C8.62117 14.138 8.91577 14.3976 9.3787 14.3976C9.87256 14.3976 10.2517 14.0404 10.2367 13.4901C10.2218 13.3156 10.1908 13.1748 10.1103 12.9875L9.44834 11.2075C10.0729 10.7847 10.3229 9.96209 10.3229 9.19971C10.3229 7.57522 9.4026 6.76236 7.85623 6.76236ZM11.0843 8.49209C11.0843 8.9481 11.3514 9.26916 11.8171 9.26916C12.1819 9.26916 12.4592 9.09283 12.5965 8.66842C12.7126 8.25517 12.8724 7.92939 13.27 7.92939C13.7044 7.92939 13.8775 8.34021 13.8775 8.83498C13.8775 9.52955 13.4075 10.2138 12.84 10.9255L11.5455 12.5695C11.213 12.988 11.0894 13.2448 11.0894 13.555C11.0894 13.9892 11.3766 14.2557 11.9205 14.2557L15.017 14.2557C15.4931 14.2557 15.6907 13.9169 15.6907 13.5625C15.6907 13.1787 15.4908 12.8543 15.017 12.8543L13.1915 12.8543L13.1915 12.7836L14.2896 11.4413C15.075 10.5059 15.574 9.78783 15.574 8.76662C15.574 7.38057 14.6056 6.54752 13.27 6.54752C12.0642 6.54752 11.0843 7.45123 11.0843 8.49209ZM8.46953 9.24392C8.46953 9.8019 8.25456 10.3385 7.68967 10.3385L7.28892 10.3385L7.28892 8.13677L7.69713 8.13677C8.22812 8.13677 8.46953 8.70372 8.46953 9.24392Z"
                     fill="currentColor" fill-opacity="0.85" />
       </g>
</svg>