<?xml version="1.0" encoding="UTF-8"?>
<!--Generator: Apple Native CoreSVG 326-->
<!DOCTYPE svg PUBLIC "-//W3C//DTD SVG 1.1//EN" "http://www.w3.org/Graphics/SVG/1.1/DTD/svg11.dtd">
<svg version="1.1" xmlns="http://www.w3.org/2000/svg" xmlns:xlink="http://www.w3.org/1999/xlink"
       viewBox="0 0 27.0075 18.9522">
       <g>
              <rect height="18.9522" opacity="0" width="27.0075" x="0" y="0" />
              <path d="M23.0376 0.410357C25.2804 0.410357 26.6462 1.78313 26.6462 4.02819L26.6462 10.5174C26.6462 13.3749 25.3384 15.2261 22.4326 16.0871L14.0427 18.5555C11.5681 19.2867 9.84678 18.9857 7.63878 17.8289L2.23772 14.9992C0.498472 14.0865 0 12.8683 0 10.5174L0 4.02127C0 1.77852 1.37792 0.408052 3.61322 0.408052ZM13.9326 6.11076C13.874 6.28369 13.8471 6.46693 13.8471 6.65017C13.8471 7.00974 14.0642 7.39509 14.6287 7.39509C15.0004 7.39509 15.3621 7.26583 15.4822 6.84196C15.5713 6.47008 15.7816 6.10414 16.1988 6.10414C16.6666 6.10414 16.8396 6.56204 16.8396 7.03958C16.8396 7.57803 16.6085 8.09275 15.9909 8.09275L15.8885 8.09275C15.4049 8.09275 15.1752 8.3449 15.1752 8.74177C15.1752 9.14095 15.3998 9.39825 15.8885 9.39825L16.0081 9.39825C16.6936 9.39825 17.008 9.76771 17.008 10.4601C17.008 10.952 16.7884 11.4633 16.2304 11.4633C15.774 11.4633 15.5488 11.1541 15.4367 10.8094C15.2868 10.3803 15.0049 10.177 14.5856 10.177C14.0733 10.177 13.7425 10.486 13.7425 10.9908C13.7425 11.1913 13.7718 11.382 13.8206 11.5406C14.1136 12.4557 15.1217 12.9285 16.2453 12.9285C17.7629 12.9285 18.8412 12.0278 18.8412 10.5761C18.8412 9.50513 18.2362 8.80783 17.374 8.70501L17.374 8.65849C18.0532 8.4815 18.612 7.76794 18.612 6.83111C18.612 5.44954 17.6119 4.64361 16.1839 4.64361C15.1688 4.64361 14.2032 5.17732 13.9326 6.11076ZM8.70481 4.84177C8.07708 4.84177 7.75142 5.2145 7.75142 5.84223L7.75142 11.8769C7.75142 12.5023 8.07708 12.8745 8.70712 12.8745C9.32047 12.8745 9.6536 12.4972 9.6536 11.8769L9.6536 9.91583L10.1555 9.91583L10.8745 12.0601C11.0485 12.6126 11.3626 12.8745 11.8549 12.8745C12.366 12.8745 12.7697 12.5053 12.7474 11.9303C12.7399 11.746 12.7037 11.5908 12.621 11.3961L11.9273 9.53103C12.5789 9.08873 12.8409 8.21728 12.8409 7.41122C12.8409 5.70576 11.8718 4.84177 10.2474 4.84177ZM10.8992 7.45259C10.8992 8.0347 10.6647 8.61549 10.0756 8.61549L9.6536 8.61549L9.6536 6.29715L10.0906 6.29715C10.6457 6.29715 10.8992 6.8934 10.8992 7.45259Z"
                     fill="currentColor" fill-opacity="0.85" />
       </g>
</svg>