<?xml version="1.0" encoding="UTF-8"?>
<!--Generator: Apple Native CoreSVG 326-->
<!DOCTYPE svg PUBLIC "-//W3C//DTD SVG 1.1//EN" "http://www.w3.org/Graphics/SVG/1.1/DTD/svg11.dtd">
<svg version="1.1" xmlns="http://www.w3.org/2000/svg" xmlns:xlink="http://www.w3.org/1999/xlink"
       viewBox="0 0 24.187 18.9124">
       <g>
              <rect height="18.9124" opacity="0" width="24.187" x="0" y="0" />
              <path d="M23.8256 7.90385L23.8256 11.0137C23.8256 16.9023 21.8839 18.9124 15.9811 18.9124L7.84453 18.9124C1.94918 18.9124 0 16.9023 0 11.0137L0 7.90385C0 2.01524 1.94918 0.00285089 7.84453 0.00285089L15.9811 0.00285089C21.8839 0.00285089 23.8256 2.01524 23.8256 7.90385ZM7.32646 5.50818C6.70104 5.50818 6.36792 5.88322 6.36792 6.51841L6.36792 12.5456C6.36792 13.171 6.70104 13.5409 7.32877 13.5409C7.94443 13.5409 8.27009 13.1659 8.27009 12.5456L8.27009 10.5897L8.76971 10.5897L9.48867 12.7266C9.665 13.279 9.97913 13.5409 10.4765 13.5409C10.9876 13.5409 11.3862 13.1815 11.3713 12.5967C11.3639 12.4124 11.3253 12.2596 11.2426 12.0699L10.5415 10.1974C11.1954 9.75513 11.4649 8.88369 11.4649 8.0874C11.4649 6.37216 10.4958 5.50818 8.87131 5.50818ZM13.609 7.12624L12.5582 9.8164C12.3974 10.2294 12.3112 10.6274 12.3112 10.9921C12.3112 11.6594 12.6955 12.0288 13.3875 12.0288L15.1114 12.0288L15.1114 12.6294C15.1114 13.2635 15.5295 13.5386 16.001 13.5386C16.4989 13.5386 16.8958 13.2744 16.8958 12.6294L16.8958 12.0288L17.0362 12.0288C17.5783 12.0288 17.7466 11.6704 17.7466 11.2838C17.7466 10.8273 17.5358 10.5435 17.0511 10.5435L16.8958 10.5435L16.8958 6.75618C16.8958 5.874 16.3249 5.38638 15.4571 5.38638C14.3063 5.38638 13.9445 6.21773 13.609 7.12624ZM15.163 10.5952L13.8499 10.5952L13.8499 10.5269L15.1263 6.85735L15.163 6.85735ZM9.51336 8.11669C9.51336 8.70857 9.28632 9.28189 8.69729 9.28189L8.27009 9.28189L8.27009 6.96587L8.70475 6.96587C9.26734 6.96587 9.51336 7.55465 9.51336 8.11669Z"
                     fill="currentColor" fill-opacity="0.85" />
       </g>
</svg>