<?xml version="1.0" encoding="UTF-8"?>
<!--Generator: Apple Native CoreSVG 326-->
<!DOCTYPE svg PUBLIC "-//W3C//DTD SVG 1.1//EN" "http://www.w3.org/Graphics/SVG/1.1/DTD/svg11.dtd">
<svg version="1.1" xmlns="http://www.w3.org/2000/svg" xmlns:xlink="http://www.w3.org/1999/xlink"
       viewBox="0 0 23.8214 27.5422">
       <g>
              <rect height="27.5422" opacity="0" width="23.8214" x="0" y="0" />
              <path d="M17.3724 12.039C18.2197 12.0269 18.8884 11.3628 18.8884 10.5402C18.8884 9.70784 18.2123 9.03171 17.3724 9.01448C16.5401 9.00471 15.8542 9.70038 15.8542 10.5402C15.8542 11.3703 16.5401 12.0562 17.3724 12.039ZM17.3724 16.0944C18.2048 16.0944 18.8884 15.401 18.8884 14.5612C18.8884 13.7213 18.2123 13.0452 17.3724 13.0452C16.5401 13.0452 15.8542 13.7362 15.8542 14.5612C15.8542 15.3936 16.5401 16.0944 17.3724 16.0944ZM9.5321 10.2914C9.95257 10.2914 10.2949 9.9444 10.2949 9.5044C10.2949 9.09139 9.94511 8.73928 9.5321 8.73928C9.11163 8.73928 8.75952 9.09139 8.75952 9.5044C8.75952 9.9444 9.11163 10.2914 9.5321 10.2914ZM11.6532 10.9078C12.0783 10.9078 12.4258 10.5608 12.4258 10.1329C12.4258 9.70038 12.0858 9.35804 11.6532 9.35804C11.2253 9.35804 10.9002 9.70038 10.9002 10.1329C10.9002 10.5608 11.2328 10.9078 11.6532 10.9078ZM13.2407 12.467C13.6761 12.467 14.0305 12.1247 14.0305 11.7042C14.0305 11.2642 13.6761 10.9098 13.2407 10.9098C12.8277 10.9098 12.4928 11.2642 12.4928 11.7042C12.4928 12.1247 12.8277 12.467 13.2407 12.467ZM13.7962 14.5198C14.2167 14.5198 14.559 14.1752 14.559 13.7547C14.559 13.3319 14.2167 12.9896 13.7962 12.9896C13.3734 12.9896 13.0311 13.3319 13.0311 13.7547C13.0311 14.1752 13.3734 14.5198 13.7962 14.5198ZM13.2407 16.5898C13.6686 16.5898 14.0305 16.2354 14.0305 15.8052C14.0305 15.3824 13.6761 15.0401 13.2407 15.0401C12.8277 15.0401 12.4928 15.3824 12.4928 15.8052C12.4928 16.2429 12.8277 16.5898 13.2407 16.5898ZM11.6532 18.1629C12.0858 18.1629 12.4258 17.8182 12.4258 17.388C12.4258 16.9601 12.0783 16.6056 11.6532 16.6056C11.2328 16.6056 10.9002 16.9601 10.9002 17.388C10.9002 17.8182 11.2253 18.1629 11.6532 18.1629ZM9.5321 18.7931C9.94511 18.7931 10.2949 18.441 10.2949 18.028C10.2949 17.588 9.95257 17.2336 9.5321 17.2336C9.11163 17.2336 8.75952 17.588 8.75952 18.028C8.75952 18.441 9.11163 18.7931 9.5321 18.7931ZM7.40119 18.1629C7.82166 18.1629 8.15424 17.8182 8.15424 17.388C8.15424 16.9601 7.8142 16.6056 7.40119 16.6056C6.96865 16.6056 6.62862 16.9601 6.62862 17.388C6.62862 17.8182 6.96119 18.1629 7.40119 18.1629ZM5.80861 16.5898C6.22162 16.5898 6.56165 16.2429 6.56165 15.8052C6.56165 15.3824 6.22162 15.0401 5.80861 15.0401C5.38584 15.0401 5.03142 15.3824 5.03142 15.8052C5.03142 16.2354 5.38584 16.5898 5.80861 16.5898ZM5.26052 14.5198C5.68099 14.5198 6.02333 14.1752 6.02333 13.7547C6.02333 13.3319 5.68099 12.9896 5.26052 12.9896C4.83259 12.9896 4.4954 13.3319 4.4954 13.7547C4.4954 14.1752 4.83259 14.5198 5.26052 14.5198ZM5.80861 12.467C6.22162 12.467 6.56165 12.1247 6.56165 11.7042C6.56165 11.2642 6.22162 10.9098 5.80861 10.9098C5.38584 10.9098 5.03142 11.2642 5.03142 11.7042C5.03142 12.1247 5.38584 12.467 5.80861 12.467ZM7.40119 10.9078C7.8142 10.9078 8.15424 10.5608 8.15424 10.1329C8.15424 9.70038 7.82166 9.35804 7.40119 9.35804C6.96119 9.35804 6.62862 9.70038 6.62862 10.1329C6.62862 10.5608 6.96865 10.9078 7.40119 10.9078ZM9.5321 12.4809C9.95257 12.4809 10.2949 12.1362 10.2949 11.7157C10.2949 11.278 9.95257 10.9236 9.5321 10.9236C9.11163 10.9236 8.75952 11.278 8.75952 11.7157C8.75952 12.1362 9.11163 12.4809 9.5321 12.4809ZM11.4545 13.3455C11.8773 13.3455 12.2173 12.9911 12.2173 12.5729C12.2173 12.1525 11.8773 11.8004 11.4545 11.8004C11.0415 11.8004 10.6797 12.1599 10.6797 12.5729C10.6797 12.9836 11.0415 13.3455 11.4545 13.3455ZM11.4545 15.7395C11.8848 15.7395 12.2173 15.3897 12.2173 14.9693C12.2173 14.5367 11.8848 14.1921 11.4545 14.1921C11.0341 14.1921 10.6797 14.5367 10.6797 14.9693C10.6797 15.3897 11.0341 15.7395 11.4545 15.7395ZM9.5321 16.6013C9.94511 16.6013 10.2949 16.2395 10.2949 15.8167C10.2949 15.3962 9.95257 15.0516 9.5321 15.0516C9.11163 15.0516 8.75952 15.3962 8.75952 15.8167C8.75952 16.2395 9.11163 16.6013 9.5321 16.6013ZM7.59244 15.7395C8.01291 15.7395 8.36732 15.3897 8.36732 14.9693C8.36732 14.5367 8.01291 14.1921 7.59244 14.1921C7.17197 14.1921 6.82963 14.5367 6.82963 14.9693C6.82963 15.3897 7.17197 15.7395 7.59244 15.7395ZM7.59244 13.3455C8.00545 13.3455 8.36732 12.9836 8.36732 12.5729C8.36732 12.1599 8.00545 11.8004 7.59244 11.8004C7.17943 11.8004 6.82963 12.1525 6.82963 12.5729C6.82963 12.9911 7.17943 13.3455 7.59244 13.3455ZM9.5321 14.5313C9.95257 14.5313 10.2949 14.1867 10.2949 13.7662C10.2949 13.3457 9.95257 13.0011 9.5321 13.0011C9.11163 13.0011 8.75952 13.3457 8.75952 13.7662C8.75952 14.1867 9.11163 14.5313 9.5321 14.5313ZM18.8687 6.93088L19.6233 4.55407L5.80351 0.0597029C5.13969-0.151623 4.42189 0.217045 4.22779 0.865944C4.009 1.50738 4.37021 2.22519 5.01911 2.44397ZM3.64834 23.2975L19.8117 23.2975C22.1386 23.2975 23.4601 21.9783 23.4601 19.6607L23.4601 7.89871C23.4601 5.57364 22.1386 4.25959 19.8117 4.25959L3.64834 4.25959C1.32382 4.25959 0 5.57364 0 7.89871L0 19.6607C0 21.9783 1.32382 23.2975 3.64834 23.2975ZM4.05583 20.2779C3.37024 20.2779 3.01964 19.9617 3.01964 19.2296L3.01964 8.32233C3.01964 7.59022 3.37024 7.27923 4.05583 7.27923L19.4042 7.27923C20.0875 7.27923 20.4404 7.59022 20.4404 8.32233L20.4404 19.2296C20.4404 19.9617 20.0875 20.2779 19.4042 20.2779Z"
                     fill="currentColor" fill-opacity="0.85" />
       </g>
</svg>