<?xml version="1.0" encoding="UTF-8"?>
<!--Generator: Apple Native CoreSVG 326-->
<!DOCTYPE svg PUBLIC "-//W3C//DTD SVG 1.1//EN" "http://www.w3.org/Graphics/SVG/1.1/DTD/svg11.dtd">
<svg version="1.1" xmlns="http://www.w3.org/2000/svg" xmlns:xlink="http://www.w3.org/1999/xlink"
       viewBox="0 0 30.1522 15.7971">
       <g>
              <rect height="15.7971" opacity="0" width="30.1522" x="0" y="0" />
              <path d="M14.8943 0C6.66562 0 0 6.66792 0 14.904C0 15.3922 0.402575 15.7873 0.895891 15.7873C1.39151 15.7873 1.78663 15.3922 1.78663 14.904C1.78663 7.64655 7.63448 1.78663 14.8943 1.78663C22.1541 1.78663 28.0117 7.64655 28.0117 14.904C28.0117 15.3922 28.3993 15.7873 28.895 15.7873C29.3883 15.7873 29.7909 15.3922 29.7909 14.904C29.7909 6.66792 23.1229 0 14.8943 0Z"
                     fill="currentColor" fill-opacity="0.85" />
              <path d="M14.8943 2.19836C7.8771 2.19836 2.1909 7.88687 2.1909 14.904C2.1909 15.3922 2.59117 15.7873 3.08448 15.7873C3.5801 15.7873 3.98498 15.3922 3.98498 14.904C3.98498 8.85057 8.84596 3.98498 14.8943 3.98498C20.9501 3.98498 25.8082 8.85057 25.8082 14.904C25.8082 15.3922 26.2085 15.7873 26.7115 15.7873C27.1974 15.7873 27.6023 15.3922 27.6023 14.904C27.6023 7.88687 21.9138 2.19836 14.8943 2.19836Z"
                     fill="currentColor" fill-opacity="0.85" />
              <path d="M14.8943 4.37949C9.09604 4.37949 4.39672 9.09089 4.39672 14.904C4.39672 15.3922 4.78952 15.7873 5.28284 15.7873C5.77846 15.7873 6.18334 15.3922 6.18334 14.904C6.18334 10.0621 10.05 6.17357 14.8943 6.17357C19.7409 6.17357 23.6173 10.0621 23.6173 14.904C23.6173 15.3922 24.0101 15.7873 24.5057 15.7873C24.999 15.7873 25.4039 15.3922 25.4039 14.904C25.4039 9.09089 20.6925 4.37949 14.8943 4.37949Z"
                     fill="currentColor" fill-opacity="0.85" />
              <path d="M14.8943 6.58531C10.3052 6.58531 6.57785 10.3001 6.57785 14.904C6.57785 15.3922 6.98042 15.7873 7.47374 15.7873C7.96936 15.7873 8.36447 15.3922 8.36447 14.904C8.36447 11.2712 11.2689 8.37193 14.8943 8.37193C18.5196 8.37193 21.4264 11.2712 21.4264 14.904C21.4264 15.3922 21.8192 15.7873 22.3171 15.7873C22.8104 15.7873 23.213 15.3922 23.213 14.904C23.213 10.3001 19.4908 6.58531 14.8943 6.58531Z"
                     fill="currentColor" fill-opacity="0.85" />
              <path d="M14.8943 8.7762C11.5115 8.7762 8.7762 11.5213 8.7762 14.904C8.7762 15.3922 9.17647 15.7873 9.67209 15.7873C10.1603 15.7873 10.5628 15.3922 10.5628 14.904C10.5628 12.4902 12.4781 10.5628 14.8943 10.5628C17.3105 10.5628 19.2355 12.4902 19.2355 14.904C19.2355 15.3922 19.6381 15.7873 20.1262 15.7873C20.6195 15.7873 21.0221 15.3922 21.0221 14.904C21.0221 11.5213 18.2793 8.7762 14.8943 8.7762Z"
                     fill="currentColor" fill-opacity="0.85" />
       </g>
</svg>