<?xml version="1.0" encoding="UTF-8"?>
<!--Generator: Apple Native CoreSVG 326-->
<!DOCTYPE svg PUBLIC "-//W3C//DTD SVG 1.1//EN" "http://www.w3.org/Graphics/SVG/1.1/DTD/svg11.dtd">
<svg version="1.1" xmlns="http://www.w3.org/2000/svg" xmlns:xlink="http://www.w3.org/1999/xlink"
       viewBox="0 0 23.9723 23.6231">
       <g>
              <rect height="23.6231" opacity="0" width="23.9723" x="0" y="0" />
              <path d="M7.51219 7.51219C8.05082 6.98103 8.05082 6.08866 7.51219 5.54772L5.42575 3.45843C4.88712 2.9175 4.00451 2.9175 3.45612 3.45843C2.9175 4.00451 2.9175 4.88712 3.45612 5.42805L5.54772 7.51219C6.08635 8.05313 6.98103 8.05313 7.51219 7.51219Z"
                     fill="currentColor" fill-opacity="0.85" />
              <path d="M5.73891 11.8066C5.73891 11.0418 5.10955 10.4124 4.34467 10.4124L1.38678 10.4124C0.629368 10.4124 0 11.0418 0 11.8066C0 12.5715 0.629368 13.1934 1.38678 13.1934L4.34467 13.1934C5.10955 13.1934 5.73891 12.5715 5.73891 11.8066Z"
                     fill="currentColor" fill-opacity="0.85" />
              <path d="M7.51219 16.0913C6.98103 15.5602 6.08635 15.5602 5.54772 16.0913L3.45612 18.1852C2.9175 18.7239 2.9175 19.6088 3.45612 20.1549C4.00451 20.6935 4.88712 20.6935 5.42575 20.1549L7.51219 18.0558C8.05082 17.5246 8.05082 16.6323 7.51219 16.0913Z"
                     fill="currentColor" fill-opacity="0.85" />
              <path d="M11.8043 17.8721C11.0395 17.8721 10.4101 18.5014 10.4101 19.2663L10.4101 22.2167C10.4101 22.9816 11.0395 23.611 11.8043 23.611C12.5715 23.611 13.1934 22.9816 13.1934 22.2167L13.1934 19.2663C13.1934 18.5014 12.5715 17.8721 11.8043 17.8721Z"
                     fill="currentColor" fill-opacity="0.85" />
              <path d="M16.0913 16.0913C15.5602 16.6323 15.5602 17.5246 16.0913 18.0558L18.1852 20.1549C18.7239 20.6935 19.6065 20.6935 20.1549 20.1549C20.6935 19.6088 20.6935 18.7239 20.1549 18.1852L18.0558 16.0913C17.5246 15.5602 16.63 15.5602 16.0913 16.0913Z"
                     fill="currentColor" fill-opacity="0.85" />
              <path d="M17.8721 11.8066C17.8721 12.5715 18.5014 13.1934 19.2663 13.1934L22.2144 13.1934C22.9816 13.1934 23.611 12.5715 23.611 11.8066C23.611 11.0418 22.9816 10.4124 22.2144 10.4124L19.2663 10.4124C18.5014 10.4124 17.8721 11.0418 17.8721 11.8066Z"
                     fill="currentColor" fill-opacity="0.85" />
              <path d="M16.0913 7.51219C16.63 8.05313 17.5246 8.05313 18.0558 7.51219L20.1549 5.42805C20.6935 4.88712 20.6935 4.00451 20.1549 3.45843C19.6065 2.9175 18.7239 2.9175 18.1852 3.45843L16.0913 5.54772C15.5602 6.08866 15.5602 6.98103 16.0913 7.51219Z"
                     fill="currentColor" fill-opacity="0.85" />
              <path d="M11.8043 5.74122C12.5715 5.74122 13.1934 5.11185 13.1934 4.34467L13.1934 1.38909C13.1934 0.629368 12.5715 0 11.8043 0C11.0395 0 10.4101 0.629368 10.4101 1.38909L10.4101 4.34467C10.4101 5.11185 11.0395 5.74122 11.8043 5.74122Z"
                     fill="currentColor" fill-opacity="0.85" />
       </g>
</svg>