<?xml version="1.0" encoding="UTF-8"?>
<!--Generator: Apple Native CoreSVG 326-->
<!DOCTYPE svg PUBLIC "-//W3C//DTD SVG 1.1//EN" "http://www.w3.org/Graphics/SVG/1.1/DTD/svg11.dtd">
<svg version="1.1" xmlns="http://www.w3.org/2000/svg" xmlns:xlink="http://www.w3.org/1999/xlink"
       viewBox="0 0 21.365 21.006">
       <g>
              <rect height="21.006" opacity="0" width="21.365" x="0" y="0" />
              <path d="M10.4981 20.9962C16.302 20.9962 21.0037 16.2946 21.0037 10.4981C21.0037 4.70163 16.302 0 10.4981 0C4.70163 0 0 4.70163 0 10.4981C0 16.2946 4.70163 20.9962 10.4981 20.9962ZM10.4981 17.9484C6.37829 17.9484 3.04785 14.6179 3.04785 10.4981C3.04785 6.37829 6.37829 3.04785 10.4981 3.04785C14.6179 3.04785 17.9558 6.37829 17.9558 10.4981C17.9558 14.6179 14.6179 17.9484 10.4981 17.9484Z"
                     fill="currentColor" fill-opacity="0.85" />
              <path d="M6.25946 14.3414C6.83321 14.3414 7.14395 13.9836 7.14395 13.4052L7.14395 11.5624L7.61428 11.5624L8.28901 13.5764C8.45558 14.0892 8.75249 14.3414 9.21026 14.3414C9.6892 14.3414 10.0631 13.9992 10.0482 13.4541C10.0408 13.2795 10.0022 13.1439 9.92928 12.9566L9.27013 11.1949C9.88955 10.7772 10.132 9.96494 10.132 9.21287C10.132 7.60615 9.22209 6.8013 7.69865 6.8013L6.25716 6.8013C5.66388 6.8013 5.35775 7.15165 5.35775 7.74493L5.35775 13.4052C5.35775 13.9887 5.66619 14.3414 6.25946 14.3414ZM7.14395 10.3385L7.14395 8.15794L7.54932 8.15794C8.07745 8.15794 8.3137 8.71458 8.3137 9.24963C8.3137 9.80475 8.09643 10.3385 7.54185 10.3385ZM12.0393 14.2167L14.0201 14.2167C15.2777 14.2167 15.9516 13.2764 15.9516 12.0849C15.9516 11.1824 15.368 10.3631 14.5596 10.3126L14.5596 10.2712C15.2869 10.1494 15.797 9.42607 15.797 8.65228C15.797 7.48435 15.0691 6.8013 13.9391 6.8013L12.0393 6.8013C11.4237 6.8013 11.1497 7.19587 11.1497 7.73001L11.1497 13.288C11.1497 13.8268 11.426 14.2167 12.0393 14.2167ZM12.9192 9.84502L12.9192 8.07927L13.3947 8.07927C13.9354 8.07927 14.1165 8.43611 14.1165 8.94404C14.1165 9.48764 13.8682 9.84502 13.3246 9.84502ZM12.9192 12.9388L12.9192 10.9438L13.3648 10.9438C13.9061 10.9438 14.1804 11.3396 14.1804 11.9327C14.1804 12.505 13.9562 12.9388 13.3815 12.9388Z"
                     fill="currentColor" fill-opacity="0.85" />
       </g>
</svg>