<?xml version="1.0" encoding="UTF-8"?>
<!--Generator: Apple Native CoreSVG 326-->
<!DOCTYPE svg PUBLIC "-//W3C//DTD SVG 1.1//EN" "http://www.w3.org/Graphics/SVG/1.1/DTD/svg11.dtd">
<svg version="1.1" xmlns="http://www.w3.org/2000/svg" xmlns:xlink="http://www.w3.org/1999/xlink"
       viewBox="0 0 21.365 21.006">
       <g>
              <rect height="21.006" opacity="0" width="21.365" x="0" y="0" />
              <path d="M21.0037 10.4981C21.0037 16.2923 16.302 20.9962 10.4981 20.9962C4.70394 20.9962 0 16.2923 0 10.4981C0 4.70163 4.70394 0 10.4981 0C16.302 0 21.0037 4.70163 21.0037 10.4981ZM6.19068 6.7526C5.59971 6.7526 5.28612 7.10064 5.28612 7.70884L5.28612 13.4316C5.28612 14.03 5.59971 14.3901 6.19299 14.3901C6.77935 14.3901 7.10271 14.0174 7.10271 13.4316L7.10271 11.5802L7.57588 11.5802L8.25117 13.6125C8.42003 14.1305 8.71694 14.3901 9.19479 14.3901C9.67143 14.3901 10.0603 14.0307 10.0379 13.4901C10.0305 13.3081 9.99193 13.1725 9.91897 12.9852L9.2472 11.2C9.87924 10.7772 10.1217 9.95463 10.1217 9.1974C10.1217 7.56775 9.20146 6.7526 7.66256 6.7526ZM12.0548 6.75029C11.434 6.75029 11.1525 7.15463 11.1525 7.70138L11.1525 13.3241C11.1525 13.8606 11.4363 14.2557 12.0548 14.2557L14.0562 14.2557C15.339 14.2557 16.0233 13.305 16.0233 12.1055C16.0233 11.1927 15.427 10.3631 14.6083 10.2976L14.6083 10.2637C15.3482 10.1442 15.8612 9.4083 15.8612 8.6242C15.8612 7.4385 15.1304 6.75029 13.9775 6.75029ZM14.2118 11.9384C14.2118 12.5234 13.99 12.96 13.4124 12.96L12.9473 12.96L12.9473 10.949L13.3981 10.949C13.9422 10.949 14.2118 11.3522 14.2118 11.9384ZM8.2707 9.23416C8.2707 9.79444 8.05343 10.3287 7.4983 10.3287L7.10271 10.3287L7.10271 8.127L7.50576 8.127C8.03444 8.127 8.2707 8.69626 8.2707 9.23416ZM14.1503 8.92111C14.1503 9.46756 13.9019 9.83241 13.3555 9.83241L12.9473 9.83241L12.9473 8.04833L13.4205 8.04833C13.9715 8.04833 14.1503 8.41033 14.1503 8.92111Z"
                     fill="currentColor" fill-opacity="0.85" />
       </g>
</svg>