<?xml version="1.0" encoding="UTF-8"?>
<!--Generator: Apple Native CoreSVG 326-->
<!DOCTYPE svg PUBLIC "-//W3C//DTD SVG 1.1//EN" "http://www.w3.org/Graphics/SVG/1.1/DTD/svg11.dtd">
<svg version="1.1" xmlns="http://www.w3.org/2000/svg" xmlns:xlink="http://www.w3.org/1999/xlink"
       viewBox="0 0 21.365 21.006">
       <g>
              <rect height="21.006" opacity="0" width="21.365" x="0" y="0" />
              <path d="M21.0037 10.4981C21.0037 16.2923 16.302 20.9962 10.4981 20.9962C4.70394 20.9962 0 16.2923 0 10.4981C0 4.70163 4.70394 0 10.4981 0C16.302 0 21.0037 4.70163 21.0037 10.4981ZM11.0869 10.4981C11.0869 11.157 11.2891 11.8015 11.674 12.3294L9.34971 12.3294C9.73463 11.8015 9.93686 11.157 9.93686 10.4981C9.93686 8.75018 8.52381 7.33483 6.77358 7.33483C5.02566 7.33483 3.62238 8.75018 3.62238 10.4981C3.62238 12.2386 5.02566 13.6614 6.77358 13.6614L14.2502 13.6614C15.9981 13.6614 17.4037 12.2386 17.4037 10.4981C17.4037 8.75018 15.9981 7.33483 14.2502 7.33483C12.5022 7.33483 11.0869 8.75018 11.0869 10.4981ZM8.41093 10.4883C8.41093 11.407 7.69222 12.1355 6.78335 12.1355C5.87448 12.1355 5.146 11.3972 5.146 10.4883C5.146 9.58924 5.89171 8.86076 6.78335 8.86076C7.68245 8.86076 8.41093 9.58924 8.41093 10.4883ZM15.8778 10.4883C15.8778 11.3972 15.1493 12.1355 14.2404 12.1355C13.3315 12.1355 12.6128 11.407 12.6128 10.4883C12.6128 9.58924 13.3413 8.86076 14.2404 8.86076C15.1395 8.86076 15.8778 9.58924 15.8778 10.4883Z"
                     fill="currentColor" fill-opacity="0.85" />
       </g>
</svg>