<?xml version="1.0" encoding="UTF-8"?>
<!--Generator: Apple Native CoreSVG 326-->
<!DOCTYPE svg PUBLIC "-//W3C//DTD SVG 1.1//EN" "http://www.w3.org/Graphics/SVG/1.1/DTD/svg11.dtd">
<svg version="1.1" xmlns="http://www.w3.org/2000/svg" xmlns:xlink="http://www.w3.org/1999/xlink"
       viewBox="0 0 21.365 21.006">
       <g>
              <rect height="21.006" opacity="0" width="21.365" x="0" y="0" />
              <path d="M10.4981 20.9962C16.302 20.9962 21.0037 16.2946 21.0037 10.4981C21.0037 4.70163 16.302 0 10.4981 0C4.70163 0 0 4.70163 0 10.4981C0 16.2946 4.70163 20.9962 10.4981 20.9962ZM10.4981 17.9484C6.37829 17.9484 3.04785 14.6179 3.04785 10.4981C3.04785 6.37829 6.37829 3.04785 10.4981 3.04785C14.6179 3.04785 17.9558 6.37829 17.9558 10.4981C17.9558 14.6179 14.6179 17.9484 10.4981 17.9484Z"
                     fill="currentColor" fill-opacity="0.85" />
              <path d="M4.23319 10.4981C4.23319 12.0853 5.51764 13.3795 7.10483 13.3795L13.9189 13.3795C15.5136 13.3795 16.7906 12.0853 16.7906 10.4981C16.7906 8.90346 15.5136 7.6167 13.9189 7.6167C12.3317 7.6167 11.0375 8.90346 11.0375 10.4981C11.0375 11.1002 11.2248 11.6879 11.5776 12.1687L9.44615 12.1687C9.79893 11.6879 9.98623 11.1002 9.98623 10.4981C9.98623 8.90346 8.69432 7.6167 7.10483 7.6167C5.51764 7.6167 4.23319 8.90346 4.23319 10.4981ZM5.6156 10.4883C5.6156 9.67076 6.29701 8.99912 7.11459 8.99912C7.93218 8.99912 8.60382 9.67076 8.60382 10.4883C8.60382 11.3255 7.9494 11.9971 7.11459 11.9971C6.28724 11.9971 5.6156 11.3157 5.6156 10.4883ZM12.4199 10.4883C12.4199 9.67076 13.0916 8.99912 13.9092 8.99912C14.7267 8.99912 15.4082 9.67076 15.4082 10.4883C15.4082 11.3157 14.7365 11.9971 13.9092 11.9971C13.0818 11.9971 12.4199 11.3255 12.4199 10.4883Z"
                     fill="currentColor" fill-opacity="0.85" />
       </g>
</svg>