<?xml version="1.0" encoding="UTF-8"?>
<!--Generator: Apple Native CoreSVG 326-->
<!DOCTYPE svg PUBLIC "-//W3C//DTD SVG 1.1//EN" "http://www.w3.org/Graphics/SVG/1.1/DTD/svg11.dtd">
<svg version="1.1" xmlns="http://www.w3.org/2000/svg" xmlns:xlink="http://www.w3.org/1999/xlink"
       viewBox="0 0 19.3993 19.2574">
       <g>
              <rect height="19.2574" opacity="0" width="19.3993" x="0" y="0" />
              <path d="M19.0379 3.85858L19.0379 15.6183C19.0379 17.9359 17.7164 19.2574 15.3896 19.2574L3.64834 19.2574C1.32382 19.2574 0 17.9382 0 15.6183L0 3.85858C0 1.53866 1.32382 0.219454 3.64834 0.219454L15.3896 0.219454C17.7164 0.219454 19.0379 1.54097 19.0379 3.85858ZM4.05583 3.2391C3.37024 3.2391 3.01964 3.54778 3.01964 4.28735L3.01964 15.1895C3.01964 15.9268 3.37024 16.2377 4.05583 16.2377L14.9821 16.2377C15.6654 16.2377 16.0183 15.9268 16.0183 15.1895L16.0183 4.28735C16.0183 3.54778 15.6654 3.2391 14.9821 3.2391Z"
                     fill="currentColor" fill-opacity="0.85" />
              <path d="M12.6658 6.61412L7.75931 6.61412C6.49439 6.61412 5.70689 7.40392 5.70689 8.65962L5.70689 12.1262L5.7004 12.1262C4.80942 12.1262 4.31774 11.6346 4.31774 10.7459L4.31774 6.69783C4.31774 5.81376 4.80942 5.31748 5.7004 5.31748L11.2861 5.31748C12.1459 5.31748 12.6363 5.78207 12.6658 6.61412Z"
                     fill="currentColor" fill-opacity="0.85" />
              <path d="M7.75931 14.088L13.3427 14.088C14.2337 14.088 14.7277 13.5987 14.7277 12.7077L14.7277 8.65962C14.7277 7.77556 14.2337 7.28158 13.3427 7.28158L7.75931 7.28158C6.86833 7.28158 6.37435 7.77556 6.37435 8.65962L6.37435 12.7077C6.37435 13.5987 6.86833 14.088 7.75931 14.088Z"
                     fill="currentColor" fill-opacity="0.85" />
       </g>
</svg>