<?xml version="1.0" encoding="UTF-8"?>
<!--Generator: Apple Native CoreSVG 326-->
<!DOCTYPE svg PUBLIC "-//W3C//DTD SVG 1.1//EN" "http://www.w3.org/Graphics/SVG/1.1/DTD/svg11.dtd">
<svg version="1.1" xmlns="http://www.w3.org/2000/svg" xmlns:xlink="http://www.w3.org/1999/xlink"
       viewBox="0 0 20.4196 29.0362">
       <g>
              <rect height="29.0362" opacity="0" width="20.4196" x="0" y="0" />
              <path d="M3.64834 21.611L16.4099 21.611C18.7367 21.611 20.0582 20.2969 20.0582 17.9719L20.0582 11.0718C20.0582 8.74668 18.7367 7.43263 16.4099 7.43263L3.64834 7.43263C1.32151 7.43263 0 8.74438 0 11.0718L0 17.9719C0 20.2992 1.32151 21.611 3.64834 21.611ZM4.05583 18.5913C3.37024 18.5913 3.01964 18.2804 3.01964 17.5505L3.01964 11.4931C3.01964 10.761 3.37024 10.4523 4.05583 10.4523L16.0024 10.4523C16.6857 10.4523 17.0386 10.761 17.0386 11.4931L17.0386 17.5505C17.0386 18.2804 16.6857 18.5913 16.0024 18.5913Z"
                     fill="currentColor" fill-opacity="0.85" />
              <path d="M7.76185 5.64885L12.3038 5.64885C13.0751 5.64885 13.4311 4.94543 13.036 4.285L10.8101 0.564541C10.4495-0.053969 9.61623-0.0637346 9.24811 0.564541L7.02452 4.2827C6.64433 4.93566 6.98085 5.64885 7.76185 5.64885ZM7.76185 23.4843C6.98085 23.4843 6.64433 24.1952 7.02452 24.8407L9.24811 28.5686C9.61623 29.1969 10.4495 29.1871 10.8101 28.5686L13.036 24.8407C13.4311 24.1877 13.0751 23.4843 12.3038 23.4843Z"
                     fill="currentColor" fill-opacity="0.85" />
       </g>
</svg>