<?xml version="1.0" encoding="UTF-8"?>
<!--Generator: Apple Native CoreSVG 326-->
<!DOCTYPE svg PUBLIC "-//W3C//DTD SVG 1.1//EN" "http://www.w3.org/Graphics/SVG/1.1/DTD/svg11.dtd">
<svg version="1.1" xmlns="http://www.w3.org/2000/svg" xmlns:xlink="http://www.w3.org/1999/xlink"
       viewBox="0 0 26.7963 17.8319">
       <g>
              <rect height="17.8319" opacity="0" width="26.7963" x="0" y="0" />
              <path d="M22.2967 8.75941L25.4013 8.75941L25.4013 4.35771C25.4013 2.33902 24.0297 1.05645 21.8542 1.05645L8.99101 1.05645L8.99101 3.80289L21.2388 3.80289C21.9014 3.80289 22.2967 4.20001 22.2967 4.82919ZM17.444 16.7144L17.444 13.9605L5.19619 13.9605C4.53365 13.9605 4.13083 13.5611 4.13083 12.9319L4.13083 10.0611L1.03373 10.0611L1.03373 13.4057C1.03373 15.4295 2.40529 16.7144 4.58078 16.7144Z"
                     fill="currentColor" fill-opacity="0.85" />
              <path d="M5.72554 6.93754C6.36534 6.93754 6.93787 6.38684 6.93787 5.73442C6.93787 5.42544 6.81783 5.12568 6.56459 4.87013L4.91135 3.22205L3.36863 1.83612L4.51514 2.02737L5.71183 2.13182C6.25518 2.1915 6.80073 1.69249 6.80073 1.06476C6.80073 0.5214 6.38948 0 5.71929 0L1.45135 0.0596857C0.517911 0.0746071 0.0600186 0.659332 0.0600186 1.45847L0.000332852 5.72181C-0.0145886 6.31739 0.474118 6.78086 1.07486 6.78086C1.75251 6.78086 2.18438 6.20032 2.13215 5.70688L2.0277 4.52512L1.84391 3.35853L3.23215 4.90641L4.87047 6.56656C5.12371 6.81234 5.43093 6.93754 5.72554 6.93754ZM20.7095 10.7953C20.0697 10.7953 19.4897 11.3437 19.4897 11.9961C19.4897 12.3051 19.6172 12.6049 19.8704 12.8604L21.5237 14.5085L23.0687 15.8967L21.9199 15.7055L20.7232 15.601C20.1798 15.5414 19.6343 16.0404 19.6343 16.6658C19.6343 17.2092 20.0381 17.7329 20.7083 17.7329L24.9837 17.6732C25.9096 17.6583 26.3675 17.0735 26.3675 16.2744L26.4347 12.0087C26.4496 11.4229 25.9609 10.9497 25.3527 10.9497C24.675 10.9497 24.2506 11.5302 24.3029 12.0237L24.4073 13.2129L24.5911 14.372L23.2052 12.8241L21.5571 11.164C21.3113 10.9182 21.0041 10.7953 20.7095 10.7953Z"
                     fill="currentColor" fill-opacity="0.85" />
       </g>
</svg>