<?xml version="1.0" encoding="UTF-8"?>
<!--Generator: Apple Native CoreSVG 326-->
<!DOCTYPE svg PUBLIC "-//W3C//DTD SVG 1.1//EN" "http://www.w3.org/Graphics/SVG/1.1/DTD/svg11.dtd">
<svg version="1.1" xmlns="http://www.w3.org/2000/svg" xmlns:xlink="http://www.w3.org/1999/xlink"
       viewBox="0 0 22.1683 25.9032">
       <g>
              <rect height="25.9032" opacity="0" width="22.1683" x="0" y="0" />
              <path d="M16.7707 3.64834L16.7707 5.29424L13.7511 5.29424L13.7511 4.05814C13.7511 3.37254 13.4424 3.01964 12.7103 3.01964L4.0679 3.01964C3.32832 3.01964 3.01964 3.37254 3.01964 4.05814L3.01964 16.5359C3.01964 17.2169 3.32832 17.5721 4.0679 17.5721L5.03627 17.5721L5.03627 20.5918L3.63912 20.5918C1.32151 20.5918 0 19.2754 0 16.9434L0 3.64834C0 1.32382 1.31921 0 3.63912 0L13.1316 0C15.459 0 16.7707 1.32382 16.7707 3.64834Z"
                     fill="currentColor" fill-opacity="0.85" />
              <path d="M21.807 8.95005C21.807 6.61806 20.4878 5.29424 18.1679 5.29424L8.6754 5.29424C6.34802 5.29424 5.03627 6.61806 5.03627 8.95005L5.03627 22.2377C5.03627 24.5696 6.35033 25.8935 8.6754 25.8935L18.1679 25.8935C20.4855 25.8935 21.807 24.5696 21.807 22.2377ZM18.7874 9.35984L18.7874 21.8302C18.7874 22.5186 18.4787 22.8738 17.7391 22.8738L9.09671 22.8738C8.3646 22.8738 8.05592 22.5186 8.05592 21.8302L8.05592 9.35984C8.05592 8.66678 8.3646 8.31389 9.09671 8.31389L17.7391 8.31389C18.4787 8.31389 18.7874 8.66678 18.7874 9.35984Z"
                     fill="currentColor" fill-opacity="0.85" />
       </g>
</svg>