<?xml version="1.0" encoding="UTF-8"?>
<!--Generator: Apple Native CoreSVG 326-->
<!DOCTYPE svg PUBLIC "-//W3C//DTD SVG 1.1//EN" "http://www.w3.org/Graphics/SVG/1.1/DTD/svg11.dtd">
<svg version="1.1" xmlns="http://www.w3.org/2000/svg" xmlns:xlink="http://www.w3.org/1999/xlink"
       viewBox="0 0 23.8214 19.0575">
       <g>
              <rect height="19.0575" opacity="0" width="23.8214" x="0" y="0" />
              <path d="M0 10.9588L0 8.11075L10.3072 8.11075L10.3072 0.0195312L13.1552 0.0195312L13.1552 8.11075L23.4601 8.11075L23.4601 10.9588L13.1552 10.9588L13.1552 19.0575L10.3072 19.0575L10.3072 10.9588ZM3.64834 19.0575L19.8117 19.0575C22.1386 19.0575 23.4601 17.736 23.4601 15.4183L23.4601 3.65635C23.4601 1.33128 22.1386 0.0195312 19.8117 0.0195312L3.64834 0.0195312C1.32382 0.0195312 0 1.33128 0 3.65635L0 15.4183C0 17.736 1.32382 19.0575 3.64834 19.0575Z"
                     fill="currentColor" fill-opacity="0.85" />
       </g>
</svg>