<?xml version="1.0" encoding="UTF-8"?>
<!--Generator: Apple Native CoreSVG 326-->
<!DOCTYPE svg PUBLIC "-//W3C//DTD SVG 1.1//EN" "http://www.w3.org/Graphics/SVG/1.1/DTD/svg11.dtd">
<svg version="1.1" xmlns="http://www.w3.org/2000/svg" xmlns:xlink="http://www.w3.org/1999/xlink"
       viewBox="0 0 29.3087 20.3543">
       <g>
              <rect height="20.3543" opacity="0" width="29.3087" x="0" y="0" />
              <path d="M2.97724 10.0554L11.9392 10.0554C13.8959 10.0554 14.9165 9.04176 14.9165 7.08275L14.9165 2.97033C14.9165 1.01362 13.8959 0 11.9392 0L2.97724 0C1.01308 0 0 1.01362 0 2.97033L0 7.08275C0 9.04176 1.01308 10.0554 2.97724 10.0554ZM3.60922 7.06625C3.20464 7.06625 2.98913 6.84558 2.98913 6.44155L2.98913 3.61383C2.98913 3.2075 3.20464 2.98913 3.60922 2.98913L11.3073 2.98913C11.7044 2.98913 11.9273 3.2075 11.9273 3.61383L11.9273 6.44155C11.9273 6.84558 11.7044 7.06625 11.3073 7.06625ZM5.29588 20.2532L12.6503 20.2532C14.607 20.2532 15.6275 19.2448 15.6275 17.2881L15.6275 14.5267C15.6275 12.5625 14.607 11.5564 12.6503 11.5564L5.29588 11.5564C3.33172 11.5564 2.31864 12.5625 2.31864 14.5267L2.31864 17.2881C2.31864 19.2448 3.33172 20.2532 5.29588 20.2532ZM5.92786 17.2641C5.52328 17.2641 5.30777 17.0509 5.30777 16.6469L5.30777 15.1679C5.30777 14.7564 5.52328 14.5455 5.92786 14.5455L12.016 14.5455C12.4229 14.5455 12.6384 14.7564 12.6384 15.1679L12.6384 16.6469C12.6384 17.0509 12.4229 17.2641 12.016 17.2641ZM20.0632 18.6033L25.9701 18.6033C27.9343 18.6033 28.9474 17.5972 28.9474 15.6307L28.9474 4.92285C28.9474 2.96614 27.9343 1.95252 25.9701 1.95252L20.0632 1.95252C18.099 1.95252 17.086 2.96614 17.086 4.92285L17.086 15.6307C17.086 17.5972 18.099 18.6033 20.0632 18.6033ZM20.6929 15.6142C20.2906 15.6142 20.0751 15.401 20.0751 14.9895L20.0751 5.56635C20.0751 5.15256 20.2906 4.94165 20.6929 4.94165L25.3433 4.94165C25.7427 4.94165 25.9582 5.15256 25.9582 5.56635L25.9582 14.9895C25.9582 15.401 25.7427 15.6142 25.3433 15.6142Z"
                     fill="currentColor" fill-opacity="0.85" />
       </g>
</svg>