<?xml version="1.0" encoding="UTF-8"?>
<!--Generator: Apple Native CoreSVG 326-->
<!DOCTYPE svg PUBLIC "-//W3C//DTD SVG 1.1//EN" "http://www.w3.org/Graphics/SVG/1.1/DTD/svg11.dtd">
<svg version="1.1" xmlns="http://www.w3.org/2000/svg" xmlns:xlink="http://www.w3.org/1999/xlink"
       viewBox="0 0 19.3993 19.0529">
       <g>
              <rect height="19.0529" opacity="0" width="19.3993" x="0" y="0" />
              <path d="M19.0379 3.63912L19.0379 15.4011C19.0379 17.7262 17.7164 19.0379 15.3896 19.0379L3.64834 19.0379C1.32382 19.0379 0 17.7262 0 15.4011L0 3.63912C0 1.32151 1.32382 0 3.64834 0L15.3896 0C17.7164 0 19.0379 1.32151 19.0379 3.63912ZM7.71102 6.88471C6.76837 6.88471 6.23478 7.4206 6.23478 8.3638L6.23478 12.668C6.23478 13.6083 6.76837 14.1419 7.71102 14.1419L13.6487 14.1419C14.6063 14.1419 15.125 13.6083 15.125 12.668L15.125 8.3638C15.125 7.4206 14.6063 6.88471 13.6487 6.88471ZM5.51661 4.79486C4.56649 4.79486 4.04267 5.32099 4.04267 6.2642L4.04267 10.5707C4.04267 11.5282 4.56649 12.0446 5.51661 12.0446L5.5231 12.0446L5.5231 8.3638C5.5231 7.00705 6.36228 6.17303 7.71102 6.17303L12.9273 6.17303C12.8957 5.2867 12.3802 4.79486 11.4566 4.79486Z"
                     fill="currentColor" fill-opacity="0.85" />
       </g>
</svg>