<?xml version="1.0" encoding="UTF-8"?>
<!--Generator: Apple Native CoreSVG 326-->
<!DOCTYPE svg PUBLIC "-//W3C//DTD SVG 1.1//EN" "http://www.w3.org/Graphics/SVG/1.1/DTD/svg11.dtd">
<svg version="1.1" xmlns="http://www.w3.org/2000/svg" xmlns:xlink="http://www.w3.org/1999/xlink"
       viewBox="0 0 20.4196 28.1211">
       <g>
              <rect height="28.1211" opacity="0" width="20.4196" x="0" y="0" />
              <path d="M3.64834 21.1534L16.4099 21.1534C18.7367 21.1534 20.0582 19.8394 20.0582 17.5143L20.0582 10.6142C20.0582 8.28914 18.7367 6.97509 16.4099 6.97509L3.64834 6.97509C1.32151 6.97509 0 8.28683 0 10.6142L0 17.5143C0 19.8417 1.32151 21.1534 3.64834 21.1534ZM4.05583 18.1338C3.37024 18.1338 3.01964 17.8228 3.01964 17.093L3.01964 11.0355C3.01964 10.3034 3.37024 9.99473 4.05583 9.99473L16.0024 9.99473C16.6857 9.99473 17.0386 10.3034 17.0386 11.0355L17.0386 17.093C17.0386 17.8228 16.6857 18.1338 16.0024 18.1338Z"
                     fill="currentColor" fill-opacity="0.85" />
              <path d="M7.76185 0.0969893C6.98085 0.0969893 6.64433 0.810184 7.02452 1.46315L9.24811 5.18361C9.61623 5.80958 10.442 5.79981 10.8101 5.18361L13.036 1.46084C13.4311 0.800418 13.0751 0.0969893 12.3038 0.0969893ZM7.76185 28.1211L12.3038 28.1211C13.0751 28.1211 13.4311 27.4153 13.036 26.7549L10.8101 23.027C10.4495 22.4182 9.61623 22.4062 9.24811 23.027L7.02452 26.7549C6.64433 27.4079 6.98085 28.1211 7.76185 28.1211Z"
                     fill="currentColor" fill-opacity="0.85" />
       </g>
</svg>