<?xml version="1.0" encoding="UTF-8"?>
<!--Generator: Apple Native CoreSVG 326-->
<!DOCTYPE svg PUBLIC "-//W3C//DTD SVG 1.1//EN" "http://www.w3.org/Graphics/SVG/1.1/DTD/svg11.dtd">
<svg version="1.1" xmlns="http://www.w3.org/2000/svg" xmlns:xlink="http://www.w3.org/1999/xlink"
       viewBox="0 0 24.1145 19.0575">
       <g>
              <rect height="19.0575" opacity="0" width="24.1145" x="0" y="0" />
              <path d="M19.5116 19.0575L20.8957 19.0575C22.8447 19.0575 23.7532 18.1513 23.7532 16.1833L23.7532 13.0169C23.7532 11.0587 22.8447 10.1502 20.8957 10.1502L19.5116 10.1502C17.5603 10.1502 16.6518 11.0587 16.6518 13.0169L16.6518 16.1833C16.6518 18.1513 17.5603 19.0575 19.5116 19.0575Z"
                     fill="currentColor" fill-opacity="0.85" />
              <path d="M11.1846 19.0575L12.5709 19.0575C14.5199 19.0575 15.421 18.1513 15.421 16.1833L15.421 13.0169C15.421 11.0587 14.5199 10.1502 12.5709 10.1502L11.1846 10.1502C9.23555 10.1502 8.32705 11.0587 8.32705 13.0169L8.32705 16.1833C8.32705 18.1513 9.23555 19.0575 11.1846 19.0575Z"
                     fill="currentColor" fill-opacity="0.85" />
              <path d="M2.85751 19.0575L4.2364 19.0575C6.1854 19.0575 7.09391 18.1513 7.09391 16.1833L7.09391 13.0169C7.09391 11.0587 6.1854 10.1502 4.2364 10.1502L2.85751 10.1502C0.908507 10.1502 0 11.0587 0 13.0169L0 16.1833C0 18.1513 0.908507 19.0575 2.85751 19.0575Z"
                     fill="currentColor" fill-opacity="0.85" />
              <path d="M19.5116 8.91935L20.8957 8.91935C22.8447 8.91935 23.7532 8.01085 23.7532 6.05032L23.7532 2.88626C23.7532 0.918273 22.8447 0.0195312 20.8957 0.0195312L19.5116 0.0195312C17.5603 0.0195312 16.6518 0.918273 16.6518 2.88626L16.6518 6.05032C16.6518 8.01085 17.5603 8.91935 19.5116 8.91935Z"
                     fill="currentColor" fill-opacity="0.85" />
              <path d="M11.1846 8.91935L12.5709 8.91935C14.5199 8.91935 15.421 8.01085 15.421 6.05032L15.421 2.88626C15.421 0.918273 14.5199 0.0195312 12.5709 0.0195312L11.1846 0.0195312C9.23555 0.0195312 8.32705 0.918273 8.32705 2.88626L8.32705 6.05032C8.32705 8.01085 9.23555 8.91935 11.1846 8.91935Z"
                     fill="currentColor" fill-opacity="0.85" />
              <path d="M2.85751 8.91935L4.2364 8.91935C6.1854 8.91935 7.09391 8.01085 7.09391 6.05032L7.09391 2.88626C7.09391 0.918273 6.1854 0.0195312 4.2364 0.0195312L2.85751 0.0195312C0.908507 0.0195312 0 0.918273 0 2.88626L0 6.05032C0 8.01085 0.908507 8.91935 2.85751 8.91935Z"
                     fill="currentColor" fill-opacity="0.85" />
       </g>
</svg>