<?xml version="1.0" encoding="UTF-8"?>
<!--Generator: Apple Native CoreSVG 326-->
<!DOCTYPE svg PUBLIC "-//W3C//DTD SVG 1.1//EN" "http://www.w3.org/Graphics/SVG/1.1/DTD/svg11.dtd">
<svg version="1.1" xmlns="http://www.w3.org/2000/svg" xmlns:xlink="http://www.w3.org/1999/xlink"
       viewBox="0 0 21.3596 24.2912">
       <g>
              <rect height="24.2912" opacity="0" width="21.3596" x="0" y="0" />
              <path d="M11.7243 19.1919C12.2283 19.449 12.6402 19.8617 12.8962 20.3669L19.7745 20.3669C20.4504 20.3669 20.9982 20.9199 20.9982 21.5957C20.9982 22.2716 20.4504 22.8195 19.7745 22.8195L12.8952 22.8195C12.4493 23.6926 11.5401 24.2912 10.4954 24.2912C9.44902 24.2912 8.53941 23.6926 8.09327 22.8195L1.22143 22.8195C0.545541 22.8195 0 22.2716 0 21.5957C0 20.9199 0.545541 20.3669 1.22143 20.3669L8.09228 20.3669C8.34956 19.8596 8.76404 19.4454 9.27164 19.1887L9.27164 17.2402L11.7243 17.2402Z"
                     fill="currentColor" fill-opacity="0.85" />
              <path d="M3.93931 17.2402L17.0664 17.2402C19.3984 17.2402 20.7147 15.9186 20.7147 13.601L20.7147 4.40242C20.7147 2.08481 19.3984 0.763298 17.0664 0.763298L3.93931 0.763298C1.60502 0.763298 0.290968 2.08481 0.290968 4.40242L0.290968 13.601C0.290968 15.9186 1.60502 17.2402 3.93931 17.2402ZM4.3468 14.2205C3.66581 14.2205 3.31061 13.9118 3.31061 13.1723L3.31061 4.8312C3.31061 4.09392 3.66581 3.78294 4.3468 3.78294L16.6566 3.78294C17.3399 3.78294 17.6951 4.09392 17.6951 4.8312L17.6951 13.1723C17.6951 13.9118 17.3399 14.2205 16.6566 14.2205Z"
                     fill="currentColor" fill-opacity="0.85" />
       </g>
</svg>