<?xml version="1.0" encoding="UTF-8"?>
<!--Generator: Apple Native CoreSVG 326-->
<!DOCTYPE svg PUBLIC "-//W3C//DTD SVG 1.1//EN" "http://www.w3.org/Graphics/SVG/1.1/DTD/svg11.dtd">
<svg version="1.1" xmlns="http://www.w3.org/2000/svg" xmlns:xlink="http://www.w3.org/1999/xlink"
       viewBox="0 0 13.1688 19.0575">
       <g>
              <rect height="19.0575" opacity="0" width="13.1688" x="0" y="0" />
              <path d="M3.64834 19.0575L9.15167 19.0575C11.486 19.0575 12.8075 17.736 12.8075 15.4183L12.8075 3.65865C12.8075 1.33358 11.486 0.0195312 9.15167 0.0195312L3.64834 0.0195312C1.32382 0.0195312 0 1.33128 0 3.65865L0 15.4183C0 17.7383 1.32382 19.0575 3.64834 19.0575ZM4.05583 16.0378C3.37024 16.0378 3.01964 15.7217 3.01964 14.9896L3.01964 4.07997C3.01964 3.34785 3.37024 3.03918 4.05583 3.03918L8.74418 3.03918C9.43262 3.03918 9.78782 3.34785 9.78782 4.07997L9.78782 14.9896C9.78782 15.7217 9.43262 16.0378 8.74418 16.0378Z"
                     fill="currentColor" fill-opacity="0.85" />
       </g>
</svg>