<?xml version="1.0" encoding="UTF-8"?>
<!--Generator: Apple Native CoreSVG 326-->
<!DOCTYPE svg PUBLIC "-//W3C//DTD SVG 1.1//EN" "http://www.w3.org/Graphics/SVG/1.1/DTD/svg11.dtd">
<svg version="1.1" xmlns="http://www.w3.org/2000/svg" xmlns:xlink="http://www.w3.org/1999/xlink"
       viewBox="0 0 27.4894 21.7932">
       <g>
              <rect height="21.7932" opacity="0" width="27.4894" x="0" y="0" />
              <path d="M19.0175 3.66096L19.0175 7.70981L15.9979 7.70981L15.9979 4.07075C15.9979 3.3777 15.6892 3.0248 14.9571 3.0248L5.30407 3.0248C4.56449 3.0248 4.25351 3.3777 4.25351 4.07075L4.25351 17.7299C4.25351 18.4229 4.56449 18.7735 5.30407 18.7735L14.9571 18.7735C15.6892 18.7735 15.9979 18.4229 15.9979 17.7299L15.9979 14.0736L19.0175 14.0736L19.0175 18.1397C19.0175 20.4717 17.7057 21.7932 15.3858 21.7932L4.87299 21.7932C2.55538 21.7932 1.23387 20.4717 1.23387 18.1397L1.23387 3.66096C1.23387 1.33128 2.55538 0.0051558 4.87299 0.0051558L15.3858 0.0051558C17.7057 0.0051558 19.0175 1.33128 19.0175 3.66096Z"
                     fill="currentColor" fill-opacity="0.85" />
              <path d="M10.6447 10.8917C10.6447 11.6324 11.2476 12.2078 11.9412 12.2078L21.3306 12.2078L22.7483 12.0895L21.9856 12.4947L20.8891 13.5234C20.6582 13.7422 20.5204 14.0368 20.5204 14.3641C20.5204 14.9361 20.9626 15.4873 21.6017 15.4873C21.9262 15.4873 22.1571 15.3621 22.3781 15.141L25.4314 11.958C25.7759 11.606 25.904 11.2512 25.904 10.8917C25.904 10.53 25.7759 10.17 25.4314 9.82543L22.3781 6.63262C22.1571 6.41153 21.9262 6.2961 21.6017 6.2961C20.9626 6.2961 20.5204 6.83527 20.5204 7.40956C20.5204 7.73686 20.6582 8.04124 20.8891 8.26002L21.9856 9.28644L22.7506 9.69387L21.3306 9.57328L11.9412 9.57328C11.2476 9.57328 10.6447 10.151 10.6447 10.8917Z"
                     fill="currentColor" fill-opacity="0.85" />
       </g>
</svg>