<?xml version="1.0" encoding="UTF-8"?>
<!--Generator: Apple Native CoreSVG 326-->
<!DOCTYPE svg PUBLIC "-//W3C//DTD SVG 1.1//EN" "http://www.w3.org/Graphics/SVG/1.1/DTD/svg11.dtd">
<svg version="1.1" xmlns="http://www.w3.org/2000/svg" xmlns:xlink="http://www.w3.org/1999/xlink"
       viewBox="0 0 23.5402 23.1955">
       <g>
              <rect height="23.1955" opacity="0" width="23.5402" x="0" y="0" />
              <path d="M5.72586 8.92178L5.72586 18.431C5.72586 19.1241 6.03454 19.4747 6.76666 19.4747L16.2927 19.4747L18.862 22.0405C18.319 22.3401 17.6432 22.4943 16.8507 22.4943L6.34534 22.4943C4.01796 22.4943 2.70622 21.1728 2.70622 18.8408L2.70622 5.90613ZM20.4898 4.36211L20.4898 17.2929L17.4702 14.2748L17.4702 4.77191C17.4702 4.07885 17.1615 3.72595 16.4219 3.72595L6.91584 3.72595L4.34307 1.15454C4.88392 0.858749 5.55626 0.70631 6.34534 0.70631L16.8507 0.70631C19.1706 0.70631 20.4898 2.03243 20.4898 4.36211Z"
                     fill="currentColor" fill-opacity="0.85" />
              <path d="M20.3255 21.534C20.6656 21.8643 21.2112 21.8718 21.5392 21.534C21.862 21.194 21.8769 20.6558 21.5392 20.3181L2.86307 1.6517C2.5328 1.31396 1.97737 1.31166 1.63964 1.6517C1.31683 1.9722 1.31683 2.5374 1.63964 2.86536Z"
                     fill="currentColor" fill-opacity="0.85" />
       </g>
</svg>