<?xml version="1.0" encoding="UTF-8"?>
<!--Generator: Apple Native CoreSVG 326-->
<!DOCTYPE svg PUBLIC "-//W3C//DTD SVG 1.1//EN" "http://www.w3.org/Graphics/SVG/1.1/DTD/svg11.dtd">
<svg version="1.1" xmlns="http://www.w3.org/2000/svg" xmlns:xlink="http://www.w3.org/1999/xlink"
       viewBox="0 0 24.8676 27.0044">
       <g>
              <rect height="27.0044" opacity="0" width="24.8676" x="0" y="0" />
              <path d="M18.5191 3.18249C18.4514 3.17509 18.3809 3.17347 18.3098 3.17347L6.19881 3.17347C6.12684 3.17347 6.05563 3.17512 5.9872 3.18259C6.00465 2.20139 6.61348 1.61758 7.60858 1.61758L16.8977 1.61758C17.8928 1.61758 18.5016 2.20135 18.5191 3.18249Z"
                     fill="currentColor" fill-opacity="0.85" />
              <path d="M20.4203 6.45667C20.0397 6.38613 19.6355 6.35087 19.211 6.35087L5.29521 6.35087C4.87074 6.35087 4.46656 6.38613 4.08601 6.45666C4.19509 5.32722 4.9664 4.65827 6.17345 4.65827L18.3351 4.65827C19.5422 4.65827 20.3115 5.32722 20.4203 6.45667Z"
                     fill="currentColor" fill-opacity="0.85" />
              <path d="M5.29521 25.365L19.211 25.365C21.5356 25.365 22.8594 24.0435 22.8594 21.7259L22.8594 11.6369C22.8594 9.3118 21.5356 7.99775 19.211 7.99775L5.29521 7.99775C2.96323 7.99775 1.64687 9.3118 1.64687 11.6369L1.64687 21.7259C1.64687 24.0435 2.96323 25.365 5.29521 25.365Z"
                     fill="currentColor" fill-opacity="0.85" />
       </g>
</svg>