<?xml version="1.0" encoding="UTF-8"?>
<!--Generator: Apple Native CoreSVG 326-->
<!DOCTYPE svg PUBLIC "-//W3C//DTD SVG 1.1//EN" "http://www.w3.org/Graphics/SVG/1.1/DTD/svg11.dtd">
<svg version="1.1" xmlns="http://www.w3.org/2000/svg" xmlns:xlink="http://www.w3.org/1999/xlink"
       viewBox="0 0 27.7735 21.7533">
       <g>
              <rect height="21.7533" opacity="0" width="27.7735" x="0" y="0" />
              <path d="M2.02519 6.44732L6.17709 6.44732C7.42806 6.44732 8.20228 5.66564 8.20228 4.38307L8.20228 2.07171C8.20228 0.789136 7.42806 0 6.17709 0L2.02519 0C0.774214 0 0 0.789136 0 2.07171L0 4.38307C0 5.66564 0.774214 6.44732 2.02519 6.44732ZM2.41217 4.42074C2.16506 4.42074 2.03404 4.27249 2.03404 3.99839L2.03404 2.43686C2.03404 2.17252 2.16506 2.03174 2.41217 2.03174L5.78034 2.03174C6.03491 2.03174 6.17054 2.17252 6.17054 2.43686L6.17054 3.99839C6.17054 4.27249 6.03491 4.42074 5.78034 4.42074ZM11.6215 6.44732L15.7809 6.44732C17.0244 6.44732 17.7963 5.66564 17.7963 4.38307L17.7963 2.07171C17.7963 0.789136 17.0244 0 15.7809 0L11.6215 0C10.3757 0 9.6038 0.789136 9.6038 2.07171L9.6038 4.38307C9.6038 5.66564 10.3757 6.44732 11.6215 6.44732ZM12.0137 4.42074C11.7591 4.42074 11.6281 4.27249 11.6281 3.99839L11.6281 2.43686C11.6281 2.17252 11.7591 2.03174 12.0137 2.03174L15.379 2.03174C15.6387 2.03174 15.772 2.17252 15.772 2.43686L15.772 3.99839C15.772 4.27249 15.6387 4.42074 15.379 4.42074ZM21.2351 6.44732L25.387 6.44732C26.638 6.44732 27.4122 5.66564 27.4122 4.38307L27.4122 2.07171C27.4122 0.789136 26.638 0 25.387 0L21.2351 0C19.9841 0 19.2099 0.789136 19.2099 2.07171L19.2099 4.38307C19.2099 5.66564 19.9841 6.44732 21.2351 6.44732ZM21.6221 4.42074C21.375 4.42074 21.2416 4.27249 21.2416 3.99839L21.2416 2.43686C21.2416 2.17252 21.375 2.03174 21.6221 2.03174L24.9902 2.03174C25.2448 2.03174 25.3781 2.17252 25.3781 2.43686L25.3781 3.99839C25.3781 4.27249 25.2448 4.42074 24.9902 4.42074ZM2.02519 14.0882L6.17709 14.0882C7.42806 14.0882 8.20228 13.3089 8.20228 12.0188L8.20228 9.71262C8.20228 8.42258 7.42806 7.64091 6.17709 7.64091L2.02519 7.64091C0.774214 7.64091 0 8.42258 0 9.71262L0 12.0188C0 13.3089 0.774214 14.0882 2.02519 14.0882ZM2.41217 12.0565C2.16506 12.0565 2.03404 11.9157 2.03404 11.6416L2.03404 10.0778C2.03404 9.81343 2.16506 9.67264 2.41217 9.67264L5.78034 9.67264C6.03491 9.67264 6.17054 9.81343 6.17054 10.0778L6.17054 11.6416C6.17054 11.9157 6.03491 12.0565 5.78034 12.0565ZM11.6215 14.0882L15.7809 14.0882C17.0244 14.0882 17.7963 13.3089 17.7963 12.0188L17.7963 9.71262C17.7963 8.42258 17.0244 7.64091 15.7809 7.64091L11.6215 7.64091C10.3757 7.64091 9.6038 8.42258 9.6038 9.71262L9.6038 12.0188C9.6038 13.3089 10.3757 14.0882 11.6215 14.0882ZM12.0137 12.0565C11.7591 12.0565 11.6281 11.9157 11.6281 11.6416L11.6281 10.0778C11.6281 9.81343 11.7591 9.67264 12.0137 9.67264L15.379 9.67264C15.6387 9.67264 15.772 9.81343 15.772 10.0778L15.772 11.6416C15.772 11.9157 15.6387 12.0565 15.379 12.0565ZM21.2351 14.0882L25.387 14.0882C26.638 14.0882 27.4122 13.3089 27.4122 12.0188L27.4122 9.71262C27.4122 8.42258 26.638 7.64091 25.387 7.64091L21.2351 7.64091C19.9841 7.64091 19.2099 8.42258 19.2099 9.71262L19.2099 12.0188C19.2099 13.3089 19.9841 14.0882 21.2351 14.0882ZM21.6221 12.0565C21.375 12.0565 21.2416 11.9157 21.2416 11.6416L21.2416 10.0778C21.2416 9.81343 21.375 9.67264 21.6221 9.67264L24.9902 9.67264C25.2448 9.67264 25.3781 9.81343 25.3781 10.0778L25.3781 11.6416C25.3781 11.9157 25.2448 12.0565 24.9902 12.0565ZM2.02519 21.7291L6.17709 21.7291C7.42806 21.7291 8.20228 20.9475 8.20228 19.6574L8.20228 17.3535C8.20228 16.0635 7.42806 15.2818 6.17709 15.2818L2.02519 15.2818C0.774214 15.2818 0 16.0635 0 17.3535L0 19.6574C0 20.9475 0.774214 21.7291 2.02519 21.7291ZM2.41217 19.6951C2.16506 19.6951 2.03404 19.5543 2.03404 19.2825L2.03404 17.721C2.03404 17.4543 2.16506 17.3136 2.41217 17.3136L5.78034 17.3136C6.03491 17.3136 6.17054 17.4543 6.17054 17.721L6.17054 19.2825C6.17054 19.5543 6.03491 19.6951 5.78034 19.6951ZM11.6215 21.7291L15.7809 21.7291C17.0244 21.7291 17.7963 20.9475 17.7963 19.6574L17.7963 17.3535C17.7963 16.0635 17.0244 15.2818 15.7809 15.2818L11.6215 15.2818C10.3757 15.2818 9.6038 16.0635 9.6038 17.3535L9.6038 19.6574C9.6038 20.9475 10.3757 21.7291 11.6215 21.7291ZM12.0137 19.6951C11.7591 19.6951 11.6281 19.5543 11.6281 19.2825L11.6281 17.721C11.6281 17.4543 11.7591 17.3136 12.0137 17.3136L15.379 17.3136C15.6387 17.3136 15.772 17.4543 15.772 17.721L15.772 19.2825C15.772 19.5543 15.6387 19.6951 15.379 19.6951ZM21.2351 21.7291L25.387 21.7291C26.638 21.7291 27.4122 20.9475 27.4122 19.6574L27.4122 17.3535C27.4122 16.0635 26.638 15.2818 25.387 15.2818L21.2351 15.2818C19.9841 15.2818 19.2099 16.0635 19.2099 17.3535L19.2099 19.6574C19.2099 20.9475 19.9841 21.7291 21.2351 21.7291ZM21.6221 19.6951C21.375 19.6951 21.2416 19.5543 21.2416 19.2825L21.2416 17.721C21.2416 17.4543 21.375 17.3136 21.6221 17.3136L24.9902 17.3136C25.2448 17.3136 25.3781 17.4543 25.3781 17.721L25.3781 19.2825C25.3781 19.5543 25.2448 19.6951 24.9902 19.6951Z"
                     fill="currentColor" fill-opacity="0.85" />
       </g>
</svg>