<?xml version="1.0" encoding="UTF-8"?>
<!--Generator: Apple Native CoreSVG 326-->
<!DOCTYPE svg PUBLIC "-//W3C//DTD SVG 1.1//EN" "http://www.w3.org/Graphics/SVG/1.1/DTD/svg11.dtd">
<svg version="1.1" xmlns="http://www.w3.org/2000/svg" xmlns:xlink="http://www.w3.org/1999/xlink"
       viewBox="0 0 25.8775 23.6624">
       <g>
              <rect height="23.6624" opacity="0" width="25.8775" x="0" y="0" />
              <path d="M4.01116 17.292C4.01116 18.0241 4.36405 18.3403 5.05711 18.3403L6.29291 18.3403L6.29291 21.3599L4.64732 21.3599C2.31764 21.3599 0.991514 20.0407 0.991514 17.7208L0.991514 16.0418L4.01116 16.0418ZM11.8635 21.3599L8.01876 21.3599L8.01876 18.3403L11.8635 18.3403ZM17.4341 21.3599L13.5819 21.3599L13.5819 18.3403L17.4341 18.3403ZM24.4539 17.7208C24.4539 20.0407 23.1278 21.3599 20.8055 21.3599L19.1502 21.3599L19.1502 18.3403L20.3957 18.3403C21.0813 18.3403 21.4342 18.0241 21.4342 17.292L21.4342 16.0418L24.4539 16.0418ZM4.01116 14.3234L0.991514 14.3234L0.991514 9.35099L4.01116 9.35099ZM24.4539 14.3234L21.4342 14.3234L21.4342 13.5324L24.3873 10.5793C24.4108 10.5552 24.4337 10.5307 24.4539 10.5045ZM6.29291 5.34162L5.05711 5.34162C4.36405 5.34162 4.01116 5.6503 4.01116 6.38242L4.01116 7.6326L0.991514 7.6326L0.991514 5.9611C0.991514 3.63373 2.31764 2.32198 4.64732 2.32198L6.29291 2.32198ZM11.8635 5.34162L8.01876 5.34162L8.01876 2.32198L11.8635 2.32198ZM14.2308 5.34162L13.5819 5.34162L13.5819 2.32198L17.2297 2.32198Z"
                     fill="currentColor" fill-opacity="0.85" />
              <path d="M13.5948 13.6774C15.0487 15.1239 17.2989 15.1854 18.8362 13.6481L23.1387 9.34559C23.4029 9.06414 23.4006 8.57137 23.1215 8.3043C22.84 8.02747 22.3961 8.03493 22.1146 8.32384L17.8512 12.5724C16.855 13.5537 15.5266 13.5238 14.6383 12.6287C13.7604 11.7363 13.7087 10.4149 14.7147 9.41122L20.4124 3.7107C20.968 3.15503 21.7948 3.02589 22.3602 3.56422C22.9157 4.08762 22.7544 4.92704 22.1988 5.48732L16.62 11.0804C16.4826 11.2201 16.297 11.2178 16.1866 11.0879C16.0618 10.9579 16.0492 10.7895 16.1964 10.6424L20.0586 6.78008C20.3475 6.49863 20.3527 6.06961 20.0856 5.78532C19.8162 5.49587 19.3671 5.52341 19.0782 5.80716L15.2016 9.69127C14.5031 10.3949 14.5255 11.472 15.1528 12.1119C15.8392 12.8133 16.8801 12.7835 17.5734 12.0803L23.2061 6.48723C24.4119 5.27168 24.3924 3.67012 23.3112 2.57176C22.2347 1.48778 20.5671 1.46079 19.3906 2.6545L13.6338 8.43368C12.0891 9.97841 12.1528 12.2355 13.5948 13.6774Z"
                     fill="currentColor" fill-opacity="0.85" />
       </g>
</svg>