<?xml version="1.0" encoding="UTF-8"?>
<!--Generator: Apple Native CoreSVG 326-->
<!DOCTYPE svg PUBLIC "-//W3C//DTD SVG 1.1//EN" "http://www.w3.org/Graphics/SVG/1.1/DTD/svg11.dtd">
<svg version="1.1" xmlns="http://www.w3.org/2000/svg" xmlns:xlink="http://www.w3.org/1999/xlink"
       viewBox="0 0 25.0217 21.7932">
       <g>
              <rect height="21.7932" opacity="0" width="25.0217" x="0" y="0" />
              <path d="M3.63912 21.7932L14.1445 21.7932C16.4719 21.7932 17.7836 20.4717 17.7836 18.1397L17.7836 3.66096C17.7836 1.33128 16.4719 0.0051558 14.1445 0.0051558L3.63912 0.0051558C1.31921 0.0051558 0 1.33128 0 3.66096L0 18.1397C0 20.4717 1.31921 21.7932 3.63912 21.7932ZM9.41079 10.8917C9.41079 10.151 10.0137 9.57328 10.7074 9.57328L20.0944 9.57328L21.507 9.69387L20.7443 9.28644L19.6552 8.26002C19.4244 8.04124 19.2866 7.73686 19.2866 7.40956C19.2866 6.83527 19.7213 6.2961 20.3581 6.2961C20.6923 6.2961 20.9232 6.41153 21.1443 6.63262L24.1975 9.82543C24.5421 10.17 24.6603 10.53 24.6603 10.8917C24.6603 11.2512 24.5421 11.606 24.1975 11.958L21.1443 15.141C20.9232 15.3621 20.6923 15.4873 20.3581 15.4873C19.7213 15.4873 19.2866 14.9361 19.2866 14.3641C19.2866 14.0368 19.4244 13.7422 19.6552 13.5234L20.7443 12.4947L21.507 12.0895L20.0944 12.2078L10.7074 12.2078C10.0137 12.2078 9.41079 11.6324 9.41079 10.8917Z"
                     fill="currentColor" fill-opacity="0.85" />
       </g>
</svg>