<?xml version="1.0" encoding="UTF-8"?>
<!--Generator: Apple Native CoreSVG 326-->
<!DOCTYPE svg PUBLIC "-//W3C//DTD SVG 1.1//EN" "http://www.w3.org/Graphics/SVG/1.1/DTD/svg11.dtd">
<svg version="1.1" xmlns="http://www.w3.org/2000/svg" xmlns:xlink="http://www.w3.org/1999/xlink"
       viewBox="0 0 28.3756 25.6689">
       <g>
              <rect height="25.6689" opacity="0" width="28.3756" x="0" y="0" />
              <path d="M22.2409 4.19592L22.2409 8.10787C22.1007 8.13564 21.962 8.17569 21.825 8.22542C21.721 8.26163 21.6314 8.3053 21.5268 8.35589C20.4158 7.75546 19.2662 7.88253 18.2744 8.39034C17.5097 7.95186 16.6094 7.88647 15.7805 8.11175L14.9019 5.73337C14.2994 4.05798 12.5891 3.22694 10.9815 3.8076C9.32509 4.40033 8.54287 6.14055 9.16775 7.81878L10.8371 12.4072L10.7427 12.3375C10.3134 12.2466 9.86287 12.2867 9.40431 12.4614C7.75659 13.0794 6.92323 14.7684 7.49928 16.4116C7.65378 16.8159 7.88178 17.2082 8.13162 17.5218L8.5528 18.0334L5.59639 18.0334C3.35284 18.0334 2.10539 16.7905 2.10539 14.5591L2.10539 4.19592C2.10539 1.95467 3.35284 0.714136 5.59639 0.714136L18.7597 0.714136C20.9957 0.714136 22.2409 1.95467 22.2409 4.19592Z"
                     fill="currentColor" fill-opacity="0.85" />
              <path d="M21.9403 23.415C26.156 21.8877 27.6385 18.3481 26.0284 13.894L25.3465 12.0071C24.7382 10.3361 23.486 9.45904 22.4206 9.84099C22.1134 9.95642 21.9928 10.2125 22.0985 10.51L22.3742 11.2711C22.4713 11.5504 22.4138 11.7395 22.2587 11.8027C22.0891 11.8607 21.9075 11.7659 21.8104 11.4769L21.6323 10.9817C21.2435 9.92998 20.2963 9.44752 19.3394 9.78756C18.8639 9.96158 18.687 10.2958 18.8415 10.73L19.2321 11.7772C19.3315 12.0662 19.2792 12.2507 19.1166 12.299C18.9269 12.3645 18.7752 12.2869 18.6706 11.9927L18.3116 11.0115C17.9009 9.8874 17.0209 9.47451 16.0261 9.82486C15.565 9.99658 15.3783 10.3354 15.538 10.75L16.2974 12.8525C16.4043 13.1266 16.3295 13.3208 16.1841 13.3691C16.0146 13.4272 15.8502 13.3398 15.7508 13.0508L13.2961 6.31918C13.0049 5.53114 12.2726 5.16817 11.5645 5.42548C10.8201 5.69715 10.4967 6.43977 10.7856 7.22781L14.2751 16.7964C14.3406 16.9757 14.2756 17.1039 14.179 17.1378C14.0825 17.1717 13.9784 17.1401 13.8704 17.0222L11.5993 14.5531C11.1835 14.093 10.6459 13.8387 10.012 14.077C9.23029 14.371 8.86447 15.0867 9.13439 15.8378C9.21021 16.0727 9.34001 16.2812 9.46982 16.4403L12.8439 20.5411C15.5655 23.8522 18.6279 24.6212 21.9403 23.415Z"
                     fill="currentColor" fill-opacity="0.85" />
       </g>
</svg>