<?xml version="1.0" encoding="UTF-8"?>
<!--Generator: Apple Native CoreSVG 326-->
<!DOCTYPE svg PUBLIC "-//W3C//DTD SVG 1.1//EN" "http://www.w3.org/Graphics/SVG/1.1/DTD/svg11.dtd">
<svg version="1.1" xmlns="http://www.w3.org/2000/svg" xmlns:xlink="http://www.w3.org/1999/xlink"
       viewBox="0 0 35.3644 24.2453">
       <g>
              <rect height="24.2453" opacity="0" width="35.3644" x="0" y="0" />
              <path d="M21.9589 8.93525L5.48545 8.93525C4.85396 8.93525 4.49943 9.27487 4.49943 9.91382L4.49943 17.8507C4.49943 18.4523 4.85396 18.8292 5.48545 18.8292L26.7106 18.8292C27.3421 18.8292 27.7041 18.4523 27.7041 17.8507L27.7041 12.125L30.8123 9.01851C30.8132 9.02669 30.8132 9.03555 30.8132 9.04443L30.8132 18.7275C30.8132 20.5732 29.7328 21.6445 27.8647 21.6445L4.34111 21.6445C2.46557 21.6445 1.39025 20.5732 1.39025 18.7275L1.39025 9.04443C1.39025 7.18381 2.46557 6.12748 4.34111 6.12748L24.766 6.12748Z"
                     fill="currentColor" fill-opacity="0.85" />
              <path d="M21.6289 14.3292L23.9098 13.4428L31.7523 5.60263L29.7659 3.61105L21.9182 11.4587L21.018 13.7108C20.8653 14.1156 21.2844 14.4619 21.6289 14.3292ZM32.572 4.77322L33.1999 4.1504C33.7231 3.61748 33.7529 2.86292 33.2545 2.38167L32.8933 2.02792C32.4539 1.61097 31.6747 1.69996 31.1785 2.19612L30.5804 2.79195Z"
                     fill="currentColor" fill-opacity="0.85" />
              <path d="M17.4334 15.5089C18.3317 15.5089 19.0687 14.7794 19.0687 13.8811C19.0687 12.9828 18.3317 12.2533 17.4334 12.2533C16.5351 12.2533 15.8057 12.9828 15.8057 13.8811C15.8057 14.7794 16.5351 15.5089 17.4334 15.5089Z"
                     fill="currentColor" fill-opacity="0.85" />
              <path d="M12.8738 15.5089C13.7721 15.5089 14.5016 14.7794 14.5016 13.8811C14.5016 12.9828 13.7721 12.2533 12.8738 12.2533C11.9755 12.2533 11.246 12.9828 11.246 13.8811C11.246 14.7794 11.9755 15.5089 12.8738 15.5089Z"
                     fill="currentColor" fill-opacity="0.85" />
              <path d="M8.31415 15.5089C9.21246 15.5089 9.94191 14.7794 9.94191 13.8811C9.94191 12.9828 9.21246 12.2533 8.31415 12.2533C7.41583 12.2533 6.68638 12.9828 6.68638 13.8811C6.68638 14.7794 7.41583 15.5089 8.31415 15.5089Z"
                     fill="currentColor" fill-opacity="0.85" />
       </g>
</svg>