<?xml version="1.0" encoding="UTF-8"?>
<!--Generator: Apple Native CoreSVG 326-->
<!DOCTYPE svg PUBLIC "-//W3C//DTD SVG 1.1//EN" "http://www.w3.org/Graphics/SVG/1.1/DTD/svg11.dtd">
<svg version="1.1" xmlns="http://www.w3.org/2000/svg" xmlns:xlink="http://www.w3.org/1999/xlink"
       viewBox="0 0 24.6341 24.2762">
       <g>
              <rect height="24.2762" opacity="0" width="24.6341" x="0" y="0" />
              <path d="M3.43043 6.62947C3.42884 6.64829 3.42856 6.66865 3.42856 6.68935L3.42856 17.5966C3.42856 18.3288 3.78145 18.6449 4.46705 18.6449L10.7161 18.6449L10.7161 13.8997L13.5567 16.7343L13.5567 18.6449L15.4713 18.6449L18.4974 21.6645L4.05726 21.6645C1.72758 21.6645 0.401453 20.3453 0.401453 18.0277L0.401453 6.26573C0.401453 5.41133 0.580528 4.69345 0.924177 4.12852ZM23.8638 6.26573L23.8638 18.0277C23.8638 18.8731 23.6887 19.5857 23.351 20.148L20.8428 17.6417C20.844 17.6276 20.8442 17.6122 20.8442 17.5966L20.8442 6.68935C20.8442 5.95723 20.489 5.64625 19.8057 5.64625L13.5567 5.64625L13.5567 10.3611L10.7161 7.52262L10.7161 5.64625L8.83829 5.64625L5.81637 2.62661L20.2155 2.62661C22.5475 2.62661 23.8638 3.94066 23.8638 6.26573Z"
                     fill="currentColor" fill-opacity="0.85" />
              <path d="M21.4301 22.6289C21.7679 22.9591 22.321 22.9689 22.6438 22.6289C22.9718 22.2986 22.9815 21.7529 22.6438 21.4152L2.86106 1.65198C2.53078 1.31425 1.97766 1.31195 1.63762 1.65198C1.31712 1.97249 1.31712 2.53538 1.63762 2.86565Z"
                     fill="currentColor" fill-opacity="0.85" />
       </g>
</svg>