<?xml version="1.0" encoding="UTF-8"?>
<!--Generator: Apple Native CoreSVG 326-->
<!DOCTYPE svg PUBLIC "-//W3C//DTD SVG 1.1//EN" "http://www.w3.org/Graphics/SVG/1.1/DTD/svg11.dtd">
<svg version="1.1" xmlns="http://www.w3.org/2000/svg" xmlns:xlink="http://www.w3.org/1999/xlink"
       viewBox="0 0 22.1008 32.0494">
       <g>
              <rect height="32.0494" opacity="0" width="22.1008" x="0" y="0" />
              <path d="M20.8396 8.66398C21.334 8.66398 21.7394 8.25109 21.7394 7.74692L21.7394 6.63758C21.7394 3.82368 19.7034 1.85709 16.979 1.85709L16.3929 1.85709L16.3929 0.786817C16.3929 0.0131482 15.7106-0.22056 15.1254 0.222836L12.5355 2.20204C12.1495 2.49786 12.1472 2.98196 12.5355 3.27778L15.1254 5.24953C15.7032 5.69292 16.3929 5.44199 16.3929 4.69762L16.3929 3.56887L17.0215 3.56887C18.7185 3.56887 19.9248 4.8441 19.9248 6.63988L19.9248 7.74692C19.9248 8.25109 20.3354 8.66398 20.8396 8.66398ZM0.892373 23.3756C0.405425 23.3756 0 23.7862 0 24.2904L0 25.402C0 28.2159 2.03374 30.1825 4.75811 30.1825L5.33677 30.1825L5.33677 31.2453C5.33677 32.0265 6.02133 32.2602 6.61406 31.8168L9.20389 29.8353C9.58991 29.5417 9.59221 29.0576 9.20389 28.7595L6.61406 26.7901C6.03625 26.3467 5.33677 26.5902 5.33677 27.3345L5.33677 28.4707L4.71565 28.4707C3.02092 28.4707 1.80713 27.1955 1.80713 25.3997L1.80713 24.2904C1.80713 23.7862 1.39655 23.3756 0.892373 23.3756Z"
                     fill="currentColor" fill-opacity="0.85" />
              <path d="M6.69115 24.9353L15.0385 24.9353C16.8842 24.9353 18.0242 23.8188 18.0242 21.9922L18.0242 10.04C18.0242 8.2133 16.8842 7.09456 15.0385 7.09456L6.69115 7.09456C4.85297 7.09456 3.71755 8.2133 3.71755 10.04L3.71755 21.9922C3.71755 23.8188 4.85297 24.9353 6.69115 24.9353ZM7.089 22.2893C6.59677 22.2893 6.36349 22.048 6.36349 21.6L6.36349 10.4396C6.36349 9.98926 6.59677 9.74566 7.089 9.74566L14.6481 9.74566C15.145 9.74566 15.3806 9.98926 15.3806 10.4396L15.3806 21.6C15.3806 22.048 15.145 22.2893 14.6481 22.2893Z"
                     fill="currentColor" fill-opacity="0.85" />
       </g>
</svg>