<?xml version="1.0" encoding="UTF-8"?>
<!--Generator: Apple Native CoreSVG 326-->
<!DOCTYPE svg PUBLIC "-//W3C//DTD SVG 1.1//EN" "http://www.w3.org/Graphics/SVG/1.1/DTD/svg11.dtd">
<svg version="1.1" xmlns="http://www.w3.org/2000/svg" xmlns:xlink="http://www.w3.org/1999/xlink"
       viewBox="0 0 23.8214 19.0575">
       <g>
              <rect height="19.0575" opacity="0" width="23.8214" x="0" y="0" />
              <path d="M0 5.33015L3.01964 5.33015L3.01964 4.07997C3.01964 3.34785 3.37024 3.03918 4.05583 3.03918L5.3014 3.03918L5.3014 0.0195312L3.64834 0.0195312C1.32382 0.0195312 0 1.33128 0 3.65865ZM0 12.021L3.01964 12.021L3.01964 7.04854L0 7.04854ZM3.64834 19.0575L5.3014 19.0575L5.3014 16.0378L4.05583 16.0378C3.37024 16.0378 3.01964 15.7217 3.01964 14.9896L3.01964 13.7394L0 13.7394L0 15.4183C0 17.7383 1.32382 19.0575 3.64834 19.0575ZM7.01979 19.0575L10.872 19.0575L10.872 16.0378L7.01979 16.0378ZM12.5881 19.0575L16.4403 19.0575L16.4403 16.0378L12.5881 16.0378ZM19.8117 19.0575C22.1362 19.0575 23.4601 17.7383 23.4601 15.4183L23.4601 13.7394L20.4404 13.7394L20.4404 14.9896C20.4404 15.7217 20.0898 16.0378 19.4042 16.0378L18.1587 16.0378L18.1587 19.0575ZM23.4601 5.33015L23.4601 3.65865C23.4601 1.33128 22.1362 0.0195312 19.8117 0.0195312L18.1587 0.0195312L18.1587 3.03918L19.4042 3.03918C20.0898 3.03918 20.4404 3.34785 20.4404 4.07997L20.4404 5.33015ZM23.4601 12.021L23.4601 7.04854L20.4404 7.04854L20.4404 12.021ZM7.01979 3.03918L10.872 3.03918L10.872 0.0195312L7.01979 0.0195312ZM12.5881 3.03918L16.4403 3.03918L16.4403 0.0195312L12.5881 0.0195312Z"
                     fill="currentColor" fill-opacity="0.85" />
       </g>
</svg>