<?xml version="1.0" encoding="UTF-8"?>
<!--Generator: Apple Native CoreSVG 326-->
<!DOCTYPE svg PUBLIC "-//W3C//DTD SVG 1.1//EN" "http://www.w3.org/Graphics/SVG/1.1/DTD/svg11.dtd">
<svg version="1.1" xmlns="http://www.w3.org/2000/svg" xmlns:xlink="http://www.w3.org/1999/xlink"
       viewBox="0 0 14.8175 19.0575">
       <g>
              <rect height="19.0575" opacity="0" width="14.8175" x="0" y="0" />
              <path d="M3.64834 19.0575L10.8102 19.0575C13.1422 19.0575 14.4562 17.736 14.4562 15.4183L14.4562 3.65865C14.4562 1.33358 13.1422 0.0195312 10.8102 0.0195312L3.64834 0.0195312C1.32382 0.0195312 0 1.33128 0 3.65865L0 15.4183C0 17.7383 1.32382 19.0575 3.64834 19.0575ZM4.05583 16.0378C3.37024 16.0378 3.01964 15.7217 3.01964 14.9896L3.01964 4.07997C3.01964 3.34785 3.37024 3.03918 4.05583 3.03918L10.4004 3.03918C11.0837 3.03918 11.4366 3.34785 11.4366 4.07997L11.4366 14.9896C11.4366 15.7217 11.0837 16.0378 10.4004 16.0378Z"
                     fill="currentColor" fill-opacity="0.85" />
       </g>
</svg>