<?xml version="1.0" encoding="UTF-8"?>
<!--Generator: Apple Native CoreSVG 326-->
<!DOCTYPE svg PUBLIC "-//W3C//DTD SVG 1.1//EN" "http://www.w3.org/Graphics/SVG/1.1/DTD/svg11.dtd">
<svg version="1.1" xmlns="http://www.w3.org/2000/svg" xmlns:xlink="http://www.w3.org/1999/xlink"
       viewBox="0 0 21.365 21.006">
       <g>
              <rect height="21.006" opacity="0" width="21.365" x="0" y="0" />
              <path d="M21.0037 10.4981C21.0037 16.2946 16.302 20.9962 10.4981 20.9962C4.70163 20.9962 0 16.2946 0 10.4981C0 4.70163 4.70163 0 10.4981 0C16.302 0 21.0037 4.70163 21.0037 10.4981ZM3.04785 10.4981C3.04785 14.6179 6.37829 17.9484 10.4981 17.9484C14.6179 17.9484 17.9558 14.6179 17.9558 10.4981C17.9558 6.37829 14.6179 3.04785 10.4981 3.04785C6.37829 3.04785 3.04785 6.37829 3.04785 10.4981Z"
                     fill="currentColor" fill-opacity="0.85" />
              <path d="M5.77907 7.7066L6.77922 8.70674C6.71259 8.92327 6.67884 9.16453 6.67884 9.4265L6.67884 12.8857L6.67235 12.8857C5.78137 12.8857 5.29716 12.394 5.29716 11.503L5.29716 7.4624C5.29716 7.24647 5.32604 7.05382 5.38314 6.88635C5.41444 7.18511 5.5466 7.47612 5.77907 7.7066ZM13.6377 7.37869L9.30155 7.37869L8.00681 6.08435L12.258 6.08435C13.1179 6.08435 13.6082 6.54678 13.6377 7.37869Z"
                     fill="currentColor" fill-opacity="0.85" />
              <path d="M12.9199 14.8475L8.73872 14.8475C7.84028 14.8475 7.35376 14.3558 7.35376 13.4671L7.35376 9.4265C7.35376 9.37842 7.3552 9.33149 7.35871 9.28623ZM15.6973 9.4265L15.6973 13.4671C15.6973 13.6855 15.6676 13.8799 15.6092 14.0486C15.5663 13.7764 15.4374 13.5137 15.2241 13.2994L9.96922 8.04615L14.3146 8.04615C15.2056 8.04615 15.6973 8.54244 15.6973 9.4265Z"
                     fill="currentColor" fill-opacity="0.85" />
              <path d="M13.8198 14.7013C14.0604 14.9345 14.4653 14.9443 14.7059 14.7013C14.9563 14.4584 14.9563 14.0581 14.7059 13.8077L7.20054 6.30004C6.94785 6.04966 6.54012 6.04966 6.29719 6.30004C6.0468 6.54297 6.0468 6.94555 6.29719 7.18617Z"
                     fill="currentColor" fill-opacity="0.85" />
       </g>
</svg>