<?xml version="1.0" encoding="UTF-8"?>
<!--Generator: Apple Native CoreSVG 326-->
<!DOCTYPE svg PUBLIC "-//W3C//DTD SVG 1.1//EN" "http://www.w3.org/Graphics/SVG/1.1/DTD/svg11.dtd">
<svg version="1.1" xmlns="http://www.w3.org/2000/svg" xmlns:xlink="http://www.w3.org/1999/xlink"
       viewBox="0 0 29.2723 20.7353">
       <g>
              <rect height="20.7353" opacity="0" width="29.2723" x="0" y="0" />
              <path d="M10.9748 20.7353L17.9339 20.7353C20.2515 20.7353 21.573 19.4213 21.573 17.087L21.573 3.6558C21.573 1.32151 20.2538 0.00746071 17.9339 0.00746071L10.9748 0.00746071C8.65715 0.00746071 7.33564 1.32151 7.33564 3.6558L7.33564 17.087C7.33564 19.4213 8.65715 20.7353 10.9748 20.7353ZM11.4058 17.7157C10.6663 17.7157 10.3553 17.3605 10.3553 16.6795L10.3553 4.06329C10.3553 3.3777 10.6663 3.0271 11.4058 3.0271L17.5051 3.0271C18.2447 3.0271 18.5534 3.3777 18.5534 4.06329L18.5534 16.6795C18.5534 17.3605 18.2447 17.7157 17.5051 17.7157Z"
                     fill="currentColor" fill-opacity="0.85" />
              <path d="M5.55187 12.6375L5.55187 8.09783C5.55187 7.32659 4.84844 6.97053 4.19547 7.36565L0.467552 9.59154C-0.150958 9.9522-0.160724 10.7831 0.467552 11.1536L4.19547 13.3748C4.84098 13.7625 5.55187 13.4185 5.55187 12.6375ZM23.3568 12.6375C23.3568 13.4185 24.07 13.7625 24.7155 13.3748L28.4434 11.1536C29.0694 10.7831 29.0596 9.9522 28.4434 9.59154L24.7132 7.36565C24.0602 6.97053 23.3568 7.32659 23.3568 8.09783Z"
                     fill="currentColor" fill-opacity="0.85" />
       </g>
</svg>