<?xml version="1.0" encoding="UTF-8"?>
<!--Generator: Apple Native CoreSVG 326-->
<!DOCTYPE svg PUBLIC "-//W3C//DTD SVG 1.1//EN" "http://www.w3.org/Graphics/SVG/1.1/DTD/svg11.dtd">
<svg version="1.1" xmlns="http://www.w3.org/2000/svg" xmlns:xlink="http://www.w3.org/1999/xlink"
       viewBox="0 0 23.1395 19.0575">
       <g>
              <rect height="19.0575" opacity="0" width="23.1395" x="0" y="0" />
              <path d="M14.8632 19.0575L19.9207 19.0575C21.8697 19.0575 22.7782 18.1513 22.7782 16.1833L22.7782 13.0169C22.7782 11.0587 21.8697 10.1502 19.9207 10.1502L14.8632 10.1502C12.9142 10.1502 12.0057 11.0587 12.0057 13.0169L12.0057 16.1833C12.0057 18.1513 12.9142 19.0575 14.8632 19.0575Z"
                     fill="currentColor" fill-opacity="0.85" />
              <path d="M2.85751 19.0575L7.91501 19.0575C9.86401 19.0575 10.7725 18.1513 10.7725 16.1833L10.7725 13.0169C10.7725 11.0587 9.86401 10.1502 7.91501 10.1502L2.85751 10.1502C0.908507 10.1502 0 11.0587 0 13.0169L0 16.1833C0 18.1513 0.908507 19.0575 2.85751 19.0575Z"
                     fill="currentColor" fill-opacity="0.85" />
              <path d="M14.8632 8.91935L19.9207 8.91935C21.8697 8.91935 22.7782 8.01085 22.7782 6.05032L22.7782 2.88626C22.7782 0.918273 21.8697 0.0195312 19.9207 0.0195312L14.8632 0.0195312C12.9142 0.0195312 12.0057 0.918273 12.0057 2.88626L12.0057 6.05032C12.0057 8.01085 12.9142 8.91935 14.8632 8.91935Z"
                     fill="currentColor" fill-opacity="0.85" />
              <path d="M2.85751 8.91935L7.91501 8.91935C9.86401 8.91935 10.7725 8.01085 10.7725 6.05032L10.7725 2.88626C10.7725 0.918273 9.86401 0.0195312 7.91501 0.0195312L2.85751 0.0195312C0.908507 0.0195312 0 0.918273 0 2.88626L0 6.05032C0 8.01085 0.908507 8.91935 2.85751 8.91935Z"
                     fill="currentColor" fill-opacity="0.85" />
       </g>
</svg>