<?xml version="1.0" encoding="UTF-8"?>
<!--Generator: Apple Native CoreSVG 326-->
<!DOCTYPE svg PUBLIC "-//W3C//DTD SVG 1.1//EN" "http://www.w3.org/Graphics/SVG/1.1/DTD/svg11.dtd">
<svg version="1.1" xmlns="http://www.w3.org/2000/svg" xmlns:xlink="http://www.w3.org/1999/xlink"
       viewBox="0 0 23.8214 19.0575">
       <g>
              <rect height="19.0575" opacity="0" width="23.8214" x="0" y="0" />
              <path d="M0 14.5935L0 11.753L5.9244 11.753L5.9244 7.30166L0 7.30166L0 4.46107L5.9244 4.46107L5.9244 0.0195312L8.77244 0.0195312L8.77244 4.46107L14.6899 4.46107L14.6899 0.0195312L17.538 0.0195312L17.538 4.46107L23.4601 4.46107L23.4601 7.30166L17.538 7.30166L17.538 11.753L23.4601 11.753L23.4601 14.5935L17.538 14.5935L17.538 19.0575L14.6899 19.0575L14.6899 14.5935L8.77244 14.5935L8.77244 19.0575L5.9244 19.0575L5.9244 14.5935ZM8.77244 11.753L14.6899 11.753L14.6899 7.30166L8.77244 7.30166ZM3.64834 19.0552L19.8117 19.0552C22.1386 19.0552 23.4601 17.736 23.4601 15.4183L23.4601 3.65635C23.4601 1.33128 22.1386 0.0172263 19.8117 0.0172263L3.64834 0.0172263C1.32382 0.0172263 0 1.33128 0 3.65635L0 15.4183C0 17.736 1.32382 19.0552 3.64834 19.0552Z"
                     fill="currentColor" fill-opacity="0.85" />
       </g>
</svg>