<?xml version="1.0" encoding="UTF-8"?>
<!--Generator: Apple Native CoreSVG 326-->
<!DOCTYPE svg PUBLIC "-//W3C//DTD SVG 1.1//EN" "http://www.w3.org/Graphics/SVG/1.1/DTD/svg11.dtd">
<svg version="1.1" xmlns="http://www.w3.org/2000/svg" xmlns:xlink="http://www.w3.org/1999/xlink"
       viewBox="0 0 16.5916 23.9797">
       <g>
              <rect height="23.9797" opacity="0" width="16.5916" x="0" y="0" />
              <path d="M0 8.38825L16.2302 8.38825L16.2302 2.88408C16.2302 1.18358 15.0662 0 13.3996 0L2.82087 0C1.15659 0 0 1.18358 0 2.88408ZM3.57052 6.36579C3.11572 6.36579 2.77405 6.01896 2.77405 5.5544L2.77405 3.32037C2.77405 2.85811 3.11342 2.51128 3.57052 2.51128C4.04024 2.51128 4.38707 2.84835 4.38707 3.32037L4.38707 5.5544C4.38707 6.01666 4.04255 6.36579 3.57052 6.36579ZM0 19.064L16.2302 19.064L16.2302 9.96355L0 9.96355ZM3.57052 15.3851C3.11572 15.3851 2.77405 15.048 2.77405 14.576L2.77405 12.3419C2.77405 11.8797 3.11342 11.5328 3.57052 11.5328C4.04024 11.5328 4.38707 11.8774 4.38707 12.3419L4.38707 14.576C4.38707 15.0382 4.04255 15.3851 3.57052 15.3851ZM0 20.6393L0 21.0956C0 22.7961 1.15659 23.9797 2.82087 23.9797L13.3996 23.9797C15.0662 23.9797 16.2302 22.7961 16.2302 21.0956L16.2302 20.6393Z"
                     fill="currentColor" fill-opacity="0.85" />
       </g>
</svg>