<?xml version="1.0" encoding="UTF-8"?>
<!--Generator: Apple Native CoreSVG 326-->
<!DOCTYPE svg PUBLIC "-//W3C//DTD SVG 1.1//EN" "http://www.w3.org/Graphics/SVG/1.1/DTD/svg11.dtd">
<svg version="1.1" xmlns="http://www.w3.org/2000/svg" xmlns:xlink="http://www.w3.org/1999/xlink"
       viewBox="0 0 23.8744 21.6957">
       <g>
              <rect height="21.6957" opacity="0" width="23.8744" x="0" y="0" />
              <path d="M21.9444 9.5261C21.0705 9.5261 20.3757 10.2283 20.3757 11.1022L20.3757 11.7838C20.3757 13.5157 19.2331 14.5549 17.3364 14.5549L10.0027 14.5549L10.0027 12.4236C10.0027 11.7024 9.56922 11.2637 8.8704 11.2637C8.53564 11.2637 8.27779 11.3745 8.07162 11.5514L3.78336 15.19C3.26196 15.6425 3.26712 16.3688 3.78336 16.8041L8.07162 20.4375C8.27779 20.6144 8.53564 20.7275 8.8704 20.7275C9.56922 20.7275 10.0027 20.2865 10.0027 19.5751L10.0027 17.6257L17.1951 17.6257C21.1181 17.6257 23.5131 15.5845 23.5131 12.2292L23.5131 11.1022C23.5131 10.2283 22.8086 9.5261 21.9444 9.5261Z"
                     fill="currentColor" fill-opacity="0.85" />
              <path d="M1.57615 11.2267C2.44032 11.2267 3.13738 10.5221 3.13738 9.6505L3.13738 8.96897C3.13738 7.23706 4.28742 6.18807 6.17437 6.18807L13.508 6.18807L13.508 8.3114C13.508 9.02284 13.9439 9.46381 14.6427 9.46381C14.9751 9.46381 15.2353 9.35068 15.4466 9.17381L19.7274 5.53523C20.2488 5.09481 20.246 4.36615 19.7274 3.92111L15.4466 0.287692C15.2353 0.118279 14.9751 0 14.6427 0C13.9439 0 13.508 0.438665 13.508 1.15987L13.508 3.12706L6.31569 3.12706C2.39495 3.12706 0 5.1608 0 8.52351L0 9.6505C0 10.5221 0.702216 11.2267 1.57615 11.2267Z"
                     fill="currentColor" fill-opacity="0.85" />
       </g>
</svg>