<?xml version="1.0" encoding="UTF-8"?>
<!--Generator: Apple Native CoreSVG 326-->
<!DOCTYPE svg PUBLIC "-//W3C//DTD SVG 1.1//EN" "http://www.w3.org/Graphics/SVG/1.1/DTD/svg11.dtd">
<svg version="1.1" xmlns="http://www.w3.org/2000/svg" xmlns:xlink="http://www.w3.org/1999/xlink"
       viewBox="0 0 21.365 21.006">
       <g>
              <rect height="21.006" opacity="0" width="21.365" x="0" y="0" />
              <path d="M21.0037 10.4981C21.0037 16.2923 16.302 20.9962 10.4981 20.9962C4.70394 20.9962 0 16.2923 0 10.4981C0 4.70163 4.70394 0 10.4981 0C16.302 0 21.0037 4.70163 21.0037 10.4981ZM14.9913 10.8152L14.9913 11.3696C14.9913 12.1378 14.4541 12.6411 13.6342 12.6411L10.0149 12.6411L10.0149 11.6321C10.0149 11.1933 9.72772 10.9137 9.29639 10.9137C9.12237 10.9137 8.92651 10.9797 8.78925 11.09L6.58616 12.9375C6.22835 13.2464 6.22835 13.7145 6.58616 14.016L8.78925 15.8606C8.92882 15.9881 9.12237 16.0617 9.29639 16.0617C9.72772 16.0617 10.0149 15.7871 10.0149 15.3409L10.0149 14.3371L13.5119 14.3371C15.4316 14.3371 16.7046 13.194 16.7046 11.4528L16.7046 10.8152C16.7046 10.3374 16.3244 9.9721 15.8391 9.9721C15.3641 9.9721 14.9913 10.3523 14.9913 10.8152ZM10.827 5.68693L10.827 6.67581L7.32252 6.67581C5.40276 6.67581 4.13729 7.82639 4.13729 9.56522L4.13729 10.1977C4.13729 10.6635 4.52209 11.0408 4.99533 11.0408C5.47548 11.0408 5.84306 10.6635 5.84306 10.1977L5.84306 9.6485C5.84306 8.87514 6.38029 8.37181 7.20018 8.37181L10.827 8.37181L10.827 9.38822C10.827 9.82932 11.109 10.109 11.5455 10.109C11.7195 10.109 11.9079 10.0527 12.0474 9.93267L14.2557 8.09037C14.621 7.78885 14.6135 7.31561 14.2557 7.01409L12.0474 5.16201C11.9079 5.03451 11.7195 4.96846 11.5455 4.96846C11.109 4.96846 10.827 5.24299 10.827 5.68693Z"
                     fill="currentColor" fill-opacity="0.85" />
       </g>
</svg>