<?xml version="1.0" encoding="UTF-8"?>
<!--Generator: Apple Native CoreSVG 326-->
<!DOCTYPE svg PUBLIC "-//W3C//DTD SVG 1.1//EN" "http://www.w3.org/Graphics/SVG/1.1/DTD/svg11.dtd">
<svg version="1.1" xmlns="http://www.w3.org/2000/svg" xmlns:xlink="http://www.w3.org/1999/xlink"
       viewBox="0 0 21.365 21.006">
       <g>
              <rect height="21.006" opacity="0" width="21.365" x="0" y="0" />
              <path d="M21.0037 10.5079C21.0037 16.3043 16.302 21.006 10.4981 21.006C4.70394 21.006 0 16.3043 0 10.5079C0 4.7137 4.70394 0.00976562 10.4981 0.00976562C16.302 0.00976562 21.0037 4.7137 21.0037 10.5079ZM11.7248 5.623L5.83596 9.10999C4.74706 9.74979 4.83374 11.2803 5.85374 11.9006L11.7248 15.3904C12.7924 16.0239 14.2178 15.6339 14.2178 14.1419L14.2178 6.87154C14.2178 5.37953 12.7924 4.99703 11.7248 5.623ZM11.6618 8.83874L11.6618 12.1747C11.6618 12.2798 11.5687 12.3212 11.4762 12.2603L8.77354 10.6652C8.63342 10.594 8.63803 10.4166 8.76377 10.3551L11.4762 8.75316C11.5687 8.69456 11.6618 8.73363 11.6618 8.83874Z"
                     fill="currentColor" fill-opacity="0.85" />
       </g>
</svg>