<?xml version="1.0" encoding="UTF-8"?>
<!--Generator: Apple Native CoreSVG 326-->
<!DOCTYPE svg PUBLIC "-//W3C//DTD SVG 1.1//EN" "http://www.w3.org/Graphics/SVG/1.1/DTD/svg11.dtd">
<svg version="1.1" xmlns="http://www.w3.org/2000/svg" xmlns:xlink="http://www.w3.org/1999/xlink"
       viewBox="0 0 19.4361 18.8208">
       <g>
              <rect height="18.8208" opacity="0" width="19.4361" x="0" y="0" />
              <path d="M14.9367 18.8208C15.948 18.8208 16.8449 18.0403 16.8449 16.7058L16.8449 2.13224C16.8449 0.797688 15.948 0.0195312 14.9367 0.0195312C14.4468 0.0195312 13.9977 0.158555 13.3809 0.517457L1.48171 7.4226C0.542023 7.96596 0 8.53213 0 9.41528C0 10.2984 0.542023 10.8646 1.48171 11.4177L13.3809 18.3206C13.9977 18.672 14.4468 18.8208 14.9367 18.8208ZM13.5485 14.7845C13.5169 14.7845 13.4928 14.765 13.4462 14.7454L4.3465 9.50778C4.31259 9.48079 4.28614 9.45665 4.28614 9.41528C4.28614 9.37391 4.31259 9.35207 4.3465 9.33024L13.4462 4.07997C13.4928 4.05814 13.5169 4.03861 13.5485 4.03861C13.5996 4.03861 13.6238 4.07767 13.6238 4.14087L13.6238 14.6822C13.6238 14.7454 13.5996 14.7845 13.5485 14.7845Z"
                     fill="currentColor" fill-opacity="0.85" />
       </g>
</svg>