<?xml version="1.0" encoding="UTF-8"?>
<!--Generator: Apple Native CoreSVG 326-->
<!DOCTYPE svg PUBLIC "-//W3C//DTD SVG 1.1//EN" "http://www.w3.org/Graphics/SVG/1.1/DTD/svg11.dtd">
<svg version="1.1" xmlns="http://www.w3.org/2000/svg" xmlns:xlink="http://www.w3.org/1999/xlink"
       viewBox="0 0 32.0523 26.8749">
       <g>
              <rect height="26.8749" opacity="0" width="32.0523" x="0" y="0" />
              <path d="M5.47579 6.27339C5.42133 6.38745 5.35262 6.49986 5.27168 6.60941C3.85445 8.55343 3.05015 10.9266 3.05015 13.44C3.05015 15.9436 3.85445 18.3191 5.26422 20.2585C5.80109 20.9924 5.7821 21.864 5.11719 22.4278C4.42814 22.994 3.4853 22.9549 2.95128 22.2441C1.06555 19.758 0 16.6849 0 13.44C0 10.1951 1.06555 7.11224 2.95874 4.61873C3.09112 4.4455 3.24704 4.3117 3.41728 4.2174ZM28.7322 4.61873C30.6203 7.11224 31.691 10.1951 31.691 13.44C31.691 16.6849 30.6203 19.758 28.7397 22.2441C28.6005 22.4267 28.4354 22.5651 28.2548 22.6594L26.2112 20.6163C26.2657 20.4946 26.3358 20.3748 26.4193 20.2585C27.8388 18.3191 28.6408 15.9436 28.6408 13.44C28.6408 10.9266 27.8388 8.55343 26.4118 6.60941C25.8773 5.87274 25.8842 5.00627 26.5738 4.43495C27.2554 3.86132 28.1908 3.91015 28.7322 4.61873Z"
                     fill="currentColor" fill-opacity="0.85" />
              <path d="M9.75732 10.5496C9.33556 11.4212 9.10327 12.4 9.10327 13.4325C9.10327 17.1492 12.1288 20.1748 15.8455 20.1748C16.881 20.1748 17.8624 19.9411 18.7358 19.5171L20.9827 21.7612C19.4948 22.6914 17.7332 23.2226 15.8455 23.2226C10.4349 23.2226 6.05542 18.8431 6.05542 13.4325C6.05542 11.5507 6.58477 9.7931 7.51206 8.30715ZM25.6453 13.4325C25.6453 15.3238 25.1102 17.089 24.1735 18.5791L21.9302 16.3363C22.3604 15.4593 22.5975 14.473 22.5975 13.4325C22.5975 9.70608 19.572 6.68056 15.8455 6.68056C14.8045 6.68056 13.8177 6.91791 12.9404 7.34848L10.6992 5.1078C12.1892 4.17067 13.9544 3.63501 15.8455 3.63501C21.2658 3.63501 25.6453 8.01966 25.6453 13.4325Z"
                     fill="currentColor" fill-opacity="0.85" />
              <path d="M11.8248 12.6146C11.6976 12.8293 11.6293 13.1033 11.6293 13.4251C11.6293 14.26 12.0896 14.7715 12.832 14.7715C13.1076 14.7715 13.3752 14.6783 13.6764 14.4639L14.7157 15.5019C14.105 15.9966 13.5007 16.2372 12.832 16.2372C11.2493 16.2372 10.1785 15.098 10.1785 13.4251C10.1785 12.679 10.3915 12.0391 10.769 11.5601ZM21.5515 13.4251C21.5515 14.1933 21.3252 14.849 20.925 15.3313L19.8744 14.2809C20.0213 14.0604 20.1008 13.7701 20.1008 13.4251C20.1008 12.5902 19.6381 12.0764 18.8957 12.0764C18.6098 12.0764 18.3302 12.1778 18.0097 12.4166L16.9715 11.3787C17.5974 10.8595 18.2074 10.613 18.8957 10.613C20.4784 10.613 21.5515 11.7522 21.5515 13.4251Z"
                     fill="currentColor" fill-opacity="0.85" />
              <path d="M26.4281 25.2368C26.7658 25.5596 27.3213 25.5671 27.6418 25.2368C27.972 24.8991 27.9795 24.3609 27.6418 24.0232L5.28309 1.67194C4.94535 1.33421 4.39969 1.3319 4.05965 1.67194C3.73168 1.99245 3.73168 2.55534 4.05965 2.88561Z"
                     fill="currentColor" fill-opacity="0.85" />
       </g>
</svg>