<?xml version="1.0" encoding="UTF-8"?>
<!--Generator: Apple Native CoreSVG 326-->
<!DOCTYPE svg PUBLIC "-//W3C//DTD SVG 1.1//EN" "http://www.w3.org/Graphics/SVG/1.1/DTD/svg11.dtd">
<svg version="1.1" xmlns="http://www.w3.org/2000/svg" xmlns:xlink="http://www.w3.org/1999/xlink"
       viewBox="0 0 23.3393 19.9811">
       <g>
              <rect height="19.9811" opacity="0" width="23.3393" x="0" y="0" />
              <path d="M6.90636 19.6904C7.89627 19.6904 8.55141 18.9957 8.55141 18.0775C8.55141 17.5476 8.31431 17.1755 7.99623 16.8626L6.46467 15.3718L3.94811 13.3388L3.22769 14.2581L7.33684 14.447L18.681 14.447C21.6428 14.447 22.978 13.1708 22.978 10.1431L22.978 4.297C22.978 1.33522 21.6428 0 18.681 0L13.4211 0C12.4364 0 11.6894 0.763661 11.6894 1.70474C11.6894 2.64582 12.4364 3.40948 13.4211 3.40948L18.487 3.40948C19.3207 3.40948 19.6557 3.74679 19.6557 4.58051L19.6557 9.86704C19.6557 10.7002 19.3207 11.045 18.487 11.045L7.33684 11.045L3.22769 11.2316L3.94811 12.1509L6.46467 10.1202L7.99623 8.63688C8.31431 8.32396 8.55141 7.94959 8.55141 7.41964C8.55141 6.50379 7.89627 5.80673 6.90636 5.80673C6.47 5.80673 6.02958 5.99622 5.69196 6.34129L0.494408 11.4911C0.187185 11.796 0 12.2892 0 12.7423C0 13.2005 0.187185 13.696 0.494408 13.9934L5.69196 19.1582C6.02958 19.5032 6.47 19.6904 6.90636 19.6904Z"
                     fill="currentColor" fill-opacity="0.85" />
       </g>
</svg>