<?xml version="1.0" encoding="UTF-8"?>
<!--Generator: Apple Native CoreSVG 326-->
<!DOCTYPE svg PUBLIC "-//W3C//DTD SVG 1.1//EN" "http://www.w3.org/Graphics/SVG/1.1/DTD/svg11.dtd">
<svg version="1.1" xmlns="http://www.w3.org/2000/svg" xmlns:xlink="http://www.w3.org/1999/xlink"
       viewBox="0 0 18.145 21.7932">
       <g>
              <rect height="21.7932" opacity="0" width="18.145" x="0" y="0" />
              <path d="M5.18137 9.61483C5.54203 9.61483 5.76773 9.44081 5.87054 9.03417L6.00859 8.57471L7.40435 8.57471L7.55447 9.03417C7.6722 9.43851 7.85314 9.61483 8.2115 9.61483C8.58829 9.61483 8.8186 9.37706 8.8186 9.0198C8.8186 8.90667 8.79161 8.75734 8.74509 8.60054L7.7348 5.62567C7.54355 5.08122 7.22481 4.8113 6.69297 4.8113C6.17552 4.8113 5.874 5.07376 5.68275 5.62567L4.67246 8.60054C4.61617 8.75503 4.58918 8.90667 4.58918 9.0198C4.58918 9.39198 4.85164 9.61483 5.18137 9.61483ZM6.2332 7.61494L6.6809 5.99688L6.73204 5.99688L7.18204 7.61494ZM10.4358 6.47091L12.4444 6.47091C12.8309 6.47091 13.1245 6.16994 13.1245 5.79084C13.1245 5.41404 12.8309 5.12053 12.4444 5.12053L10.4358 5.12053C10.0371 5.12053 9.74591 5.41404 9.74591 5.79084C9.74591 6.16994 10.0371 6.47091 10.4358 6.47091ZM10.4358 9.32702L12.4444 9.32702C12.8309 9.32702 13.1245 9.02605 13.1245 8.63949C13.1245 8.27015 12.8309 7.97664 12.4444 7.97664L10.4358 7.97664C10.0371 7.97664 9.74591 8.27015 9.74591 8.63949C9.74591 9.02605 10.0371 9.32702 10.4358 9.32702ZM4.66718 16.2319L5.34332 16.2319L6.39364 15.1494C6.53442 15.0109 6.69243 14.95 6.86536 14.95C7.03083 14.95 7.20837 15.0132 7.36407 15.1494L8.04548 15.7699L9.74155 14.2686C9.92139 14.1031 10.111 14.0302 10.2983 14.0302C10.5126 14.0302 10.7068 14.1008 10.8602 14.2686L12.4627 16.1342L13.1314 16.1342L13.1314 12.2198C13.1314 11.4723 12.7418 11.0776 11.9869 11.0776L5.82887 11.0776C5.10324 11.0776 4.66718 11.4723 4.66718 12.2198ZM7.43474 14.2761C6.94579 14.2761 6.54418 13.8624 6.53672 13.3781C6.52926 12.8891 6.94579 12.4754 7.43474 12.4875C7.91392 12.507 8.31783 12.8891 8.31783 13.3781C8.31783 13.8624 7.91392 14.2761 7.43474 14.2761ZM0 18.1397C0 20.4717 1.31921 21.7932 3.63912 21.7932L14.1445 21.7932C16.4719 21.7932 17.7836 20.4717 17.7836 18.1397L17.7836 3.66096C17.7836 1.33128 16.4719 0.0051558 14.1445 0.0051558L3.63912 0.0051558C1.31921 0.0051558 0 1.33128 0 3.66096ZM3.01964 17.7299L3.01964 4.07075C3.01964 3.3777 3.32832 3.0248 4.0679 3.0248L13.7232 3.0248C14.4553 3.0248 14.764 3.3777 14.764 4.07075L14.764 17.7299C14.764 18.4229 14.4553 18.7735 13.7232 18.7735L4.0679 18.7735C3.32832 18.7735 3.01964 18.4229 3.01964 17.7299Z"
                     fill="currentColor" fill-opacity="0.85" />
       </g>
</svg>