<?xml version="1.0" encoding="UTF-8"?>
<!--Generator: Apple Native CoreSVG 326-->
<!DOCTYPE svg PUBLIC "-//W3C//DTD SVG 1.1//EN" "http://www.w3.org/Graphics/SVG/1.1/DTD/svg11.dtd">
<svg version="1.1" xmlns="http://www.w3.org/2000/svg" xmlns:xlink="http://www.w3.org/1999/xlink"
       viewBox="0 0 21.365 21.006">
       <g>
              <rect height="21.006" opacity="0" width="21.365" x="0" y="0" />
              <path d="M21.0037 10.4981C21.0037 16.2923 16.302 20.9962 10.4981 20.9962C4.70394 20.9962 0 16.2923 0 10.4981C0 4.70163 4.70394 0 10.4981 0C16.302 0 21.0037 4.70163 21.0037 10.4981ZM8.04221 5.89268C6.93008 5.89268 6.36567 6.49505 6.36567 7.6164L6.36567 13.7465C6.36567 14.7089 6.85777 15.2665 7.73116 15.2665C8.59424 15.2665 9.10357 14.706 9.10357 13.7465L9.10357 12.097L10.0833 12.097L11.4187 14.2593C11.8941 15.023 12.2409 15.2665 12.841 15.2665C13.6064 15.2665 14.133 14.7744 14.133 14.0732C14.133 13.7367 14.0445 13.4835 13.8355 13.1889L12.6823 11.5642C13.8192 11.2183 14.5212 10.2084 14.5212 8.94349C14.5212 6.97787 13.1552 5.89268 10.7486 5.89268ZM11.579 9.0124C11.579 9.66597 11.1134 10.0872 10.3949 10.0872L9.10357 10.0872L9.10357 7.92375L10.4041 7.92375C11.1386 7.92375 11.579 8.34446 11.579 9.0124Z"
                     fill="currentColor" fill-opacity="0.85" />
       </g>
</svg>