<?xml version="1.0" encoding="UTF-8"?>
<!--Generator: Apple Native CoreSVG 326-->
<!DOCTYPE svg PUBLIC "-//W3C//DTD SVG 1.1//EN" "http://www.w3.org/Graphics/SVG/1.1/DTD/svg11.dtd">
<svg version="1.1" xmlns="http://www.w3.org/2000/svg" xmlns:xlink="http://www.w3.org/1999/xlink"
       viewBox="0 0 21.365 21.006">
       <g>
              <rect height="21.006" opacity="0" width="21.365" x="0" y="0" />
              <path d="M10.4981 20.9962C16.302 20.9962 21.0037 16.2946 21.0037 10.4981C21.0037 4.70163 16.302 0 10.4981 0C4.70163 0 0 4.70163 0 10.4981C0 16.2946 4.70163 20.9962 10.4981 20.9962ZM10.4981 17.9484C6.37829 17.9484 3.04785 14.6179 3.04785 10.4981C3.04785 6.37829 6.37829 3.04785 10.4981 3.04785C14.6179 3.04785 17.9558 6.37829 17.9558 10.4981C17.9558 14.6179 14.6179 17.9484 10.4981 17.9484Z"
                     fill="currentColor" fill-opacity="0.85" />
              <path d="M7.90628 14.9633C8.70506 14.9633 9.1897 14.4448 9.1897 13.5495L9.1897 11.9908L10.1183 11.9908L11.375 14.0279C11.8183 14.7371 12.1427 14.9633 12.7009 14.9633C13.4043 14.9633 13.9062 14.5033 13.9062 13.8516C13.9062 13.5398 13.8178 13.3014 13.6237 13.0315L12.5393 11.4901C13.6096 11.169 14.2622 10.2182 14.2622 9.03709C14.2622 7.19721 12.9876 6.17345 10.7365 6.17345L8.19494 6.17345C7.15972 6.17345 6.63492 6.73392 6.63492 7.78351L6.63492 13.5495C6.63492 14.4476 7.09488 14.9633 7.90628 14.9633ZM9.1897 10.1096L9.1897 8.06617L10.4092 8.06617C11.107 8.06617 11.5256 8.45989 11.5256 9.09107C11.5256 9.71534 11.0818 10.1096 10.4 10.1096Z"
                     fill="currentColor" fill-opacity="0.85" />
       </g>
</svg>