<?xml version="1.0" encoding="UTF-8"?>
<!--Generator: Apple Native CoreSVG 326-->
<!DOCTYPE svg PUBLIC "-//W3C//DTD SVG 1.1//EN" "http://www.w3.org/Graphics/SVG/1.1/DTD/svg11.dtd">
<svg version="1.1" xmlns="http://www.w3.org/2000/svg" xmlns:xlink="http://www.w3.org/1999/xlink"
       viewBox="0 0 12.1987 15.3834">
       <g>
              <rect height="15.3834" opacity="0" width="12.1987" x="0" y="0" />
              <path d="M1.81435 15.3834C2.95116 15.3834 3.61147 14.691 3.61147 13.4973L3.61147 9.92364L5.73673 9.92364C5.76263 9.92364 5.80806 9.92364 5.83396 9.92364L8.11796 13.9608C8.73338 15.0429 9.10435 15.3834 9.97301 15.3834C11.0208 15.3834 11.7822 14.6709 11.7822 13.7023C11.7822 13.2854 11.7138 12.9903 11.3975 12.4719L9.47933 9.2674C11.0225 8.50932 11.8259 6.95834 11.8259 5.21412C11.8259 2.18835 9.84018 0.376129 6.21106 0.376129L1.81435 0.376129C0.667217 0.376129 0 1.07319 0 2.25993L0 13.4973C0 14.691 0.660303 15.3834 1.81435 15.3834ZM3.61147 7.39585L3.61147 3.1375L5.86138 3.1375C7.24343 3.1375 8.12828 3.98207 8.12828 5.27041C8.12828 6.57597 7.29225 7.39585 5.86775 7.39585Z"
                     fill="currentColor" fill-opacity="0.85" />
       </g>
</svg>