<?xml version="1.0" encoding="UTF-8"?>
<!--Generator: Apple Native CoreSVG 326-->
<!DOCTYPE svg PUBLIC "-//W3C//DTD SVG 1.1//EN" "http://www.w3.org/Graphics/SVG/1.1/DTD/svg11.dtd">
<svg version="1.1" xmlns="http://www.w3.org/2000/svg" xmlns:xlink="http://www.w3.org/1999/xlink"
       viewBox="0 0 24.187 18.9124">
       <g>
              <rect height="18.9124" opacity="0" width="24.187" x="0" y="0" />
              <path d="M7.84453 18.9124L15.9811 18.9124C21.8839 18.9124 23.8256 16.9023 23.8256 11.0137L23.8256 7.90385C23.8256 2.01524 21.8839 0.00285089 15.9811 0.00285089L7.84453 0.00285089C1.94918 0.00285089 0 2.01524 0 7.90385L0 11.0137C0 16.9023 1.94918 18.9124 7.84453 18.9124ZM7.84453 15.8927C4.12298 15.8927 3.01964 14.7791 3.01964 11.0137L3.01964 7.90385C3.01964 4.1459 4.12298 3.02249 7.84453 3.02249L15.9811 3.02249C19.7027 3.02249 20.806 4.1459 20.806 7.90385L20.806 11.0137C20.806 14.7791 19.7027 15.8927 15.9811 15.8927Z"
                     fill="currentColor" fill-opacity="0.85" />
              <path d="M6.47619 13.2946C7.04993 13.2946 7.36068 12.9368 7.36068 12.3584L7.36068 10.5156L7.83331 10.5156L8.50574 12.5296C8.6723 13.0424 8.96921 13.2946 9.42698 13.2946C9.90592 13.2946 10.2799 12.9524 10.2649 12.4073C10.2575 12.2327 10.219 12.0971 10.146 11.9098L9.48685 10.1481C10.1063 9.73045 10.3488 8.91814 10.3488 8.16607C10.3488 6.55935 9.44112 5.7545 7.91768 5.7545L6.47388 5.7545C5.88061 5.7545 5.57447 6.10485 5.57447 6.69813L5.57447 12.3584C5.57447 12.9419 5.88291 13.2946 6.47619 13.2946ZM7.36068 9.29166L7.36068 7.11114L7.76604 7.11114C8.29417 7.11114 8.53043 7.66778 8.53043 8.20282C8.53043 8.75795 8.31316 9.29166 7.75858 9.29166ZM12.1332 13.2969C12.6408 13.2969 12.9097 12.981 12.9097 12.4641L12.9097 8.27246L12.9608 8.27246L13.8562 12.3791C13.9539 12.8471 14.2009 13.1355 14.6735 13.1355C15.1285 13.1355 15.3783 12.8718 15.4909 12.3693L16.3788 8.27246L16.4225 8.27246L16.4225 12.4641C16.4225 12.981 16.6867 13.2969 17.1893 13.2969C17.7062 13.2969 17.9732 12.981 17.9732 12.4641L17.9732 6.84C17.9732 6.06349 17.5029 5.64247 16.7384 5.64247C16.0452 5.64247 15.6408 5.92337 15.5139 6.58962L14.6632 10.7032L14.654 10.7032L13.7965 6.58962C13.6644 5.88607 13.233 5.64247 12.5863 5.64247C11.8121 5.64247 11.3641 6.06063 11.3641 6.84L11.3641 12.4641C11.3641 12.981 11.6306 13.2969 12.1332 13.2969Z"
                     fill="currentColor" fill-opacity="0.85" />
       </g>
</svg>