<?xml version="1.0" encoding="UTF-8"?>
<!--Generator: Apple Native CoreSVG 326-->
<!DOCTYPE svg PUBLIC "-//W3C//DTD SVG 1.1//EN" "http://www.w3.org/Graphics/SVG/1.1/DTD/svg11.dtd">
<svg version="1.1" xmlns="http://www.w3.org/2000/svg" xmlns:xlink="http://www.w3.org/1999/xlink"
       viewBox="0 0 31.775 16.0562">
       <g>
              <rect height="16.0562" opacity="0" width="31.775" x="0" y="0" />
              <path d="M1.24911 16.0562L2.60071 16.0562C3.42539 16.0562 3.86758 15.6163 4.09328 15.0547C5.94753 10.442 7.8064 5.81959 9.66296 1.20694C9.90413 0.601163 9.56882 0.026992 8.9286 0.026992L8.21922 0.026992C7.74313 0.026992 7.34923 0.260154 7.0983 0.739641C4.78736 5.26671 2.48104 9.78631 0.170103 14.3157C-0.252549 15.1122 0.11436 16.0562 1.24911 16.0562ZM28.813 16.0562L30.1594 16.0562C31.2993 16.0562 31.6588 15.1122 31.2436 14.3157C28.9373 9.78631 26.6263 5.25925 24.3177 0.73218C24.0645 0.252693 23.6631 0.026992 23.1945 0.026992L22.4851 0.026992C21.8449 0.026992 21.5119 0.601163 21.7507 1.20694C23.6073 5.81959 25.4662 10.442 27.3204 15.0547C27.5461 15.6163 27.9883 16.0562 28.813 16.0562ZM15.4449 3.50623L15.9418 3.50623C16.5958 3.50623 17.1023 3.00951 17.1023 2.35315C17.1023 1.95792 17.1023 1.55292 17.1023 1.16514C17.1023 0.501323 16.5958 0.00460982 15.9418 0.00460982L15.4449 0.00460982C14.7983 0.00460982 14.2919 0.501323 14.2919 1.16514C14.2919 1.55292 14.2919 1.95792 14.2919 2.35315C14.2919 3.00951 14.7983 3.50623 15.4449 3.50623ZM15.4449 9.37106L15.9418 9.37106C16.5958 9.37106 17.1023 8.88411 17.1023 8.22029C17.1023 7.55162 17.1023 6.87834 17.1023 6.20967C17.1023 5.54585 16.5958 5.0589 15.9418 5.0589L15.4449 5.0589C14.7983 5.0589 14.2919 5.54585 14.2919 6.20967C14.2919 6.87834 14.2919 7.55162 14.2919 8.22029C14.2919 8.88411 14.7983 9.37106 15.4449 9.37106ZM15.4449 16.0562L15.9418 16.0562C16.5958 16.0562 17.1023 15.5595 17.1023 14.9031C17.1023 13.9679 17.1023 13.0304 17.1023 12.1004C17.1023 11.4366 16.5958 10.9422 15.9418 10.9422L15.4449 10.9422C14.7983 10.9422 14.2919 11.4366 14.2919 12.1004C14.2919 13.0304 14.2919 13.9679 14.2919 14.9031C14.2919 15.5595 14.7983 16.0562 15.4449 16.0562Z"
                     fill="currentColor" fill-opacity="0.85" />
       </g>
</svg>