<?xml version="1.0" encoding="UTF-8"?>
<!--Generator: Apple Native CoreSVG 326-->
<!DOCTYPE svg PUBLIC "-//W3C//DTD SVG 1.1//EN" "http://www.w3.org/Graphics/SVG/1.1/DTD/svg11.dtd">
<svg version="1.1" xmlns="http://www.w3.org/2000/svg" xmlns:xlink="http://www.w3.org/1999/xlink"
       viewBox="0 0 26.0493 15.534">
       <g>
              <rect height="15.534" opacity="0" width="26.0493" x="0" y="0" />
              <path d="M1.07964 15.534L2.35827 15.534C3.0876 15.534 3.47119 15.128 3.58661 14.6221C4.72689 10.0823 4.81993 5.36097 3.31318 0.735577C3.15583 0.276167 2.809 0.026992 2.26292 0.026992L1.77761 0.026992C1.20629 0.026992 0.770472 0.451282 0.918048 1.11049C2.00434 5.84342 1.65969 9.80378 0.0908209 14.0806C-0.18941 14.83 0.189569 15.534 1.07964 15.534ZM23.3814 15.534L24.5474 15.534C25.4737 15.534 25.8084 14.8305 25.6488 14.1253C24.2495 7.65085 20.5662 3.23746 17.0747 0.478395C16.5963 0.113124 16.304 0.026992 15.9554 0.026992L15.3667 0.026992C14.7306 0.026992 14.3413 0.788894 14.8316 1.30392C19.1584 5.70131 21.1127 9.56401 21.9767 14.3527C22.0921 14.9138 22.3769 15.534 23.3814 15.534ZM10.142 3.34943L10.6497 3.34943C11.2906 3.34943 11.5685 2.67069 11.1826 2.07808C10.7082 1.37386 10.2463 0.812064 9.88217 0.44558C9.63408 0.187731 9.39807 0.123981 8.91573 0.123981L8.60784 0.123981C8.10421 0.123981 7.75508 0.683231 8.09675 1.2144C8.62234 2.03119 8.88832 2.48502 9.07386 2.77975C9.35925 3.26154 9.71124 3.34943 10.142 3.34943ZM11.8614 8.13459L12.8068 8.13459C13.4695 8.13459 13.7928 7.65795 13.5763 7.05557C13.3195 6.30483 13.0335 5.57878 12.821 5.10027C12.6274 4.69824 12.3667 4.49898 11.8464 4.49898L11.1239 4.49898C10.4916 4.49898 10.1235 4.95257 10.3567 5.59807C10.5715 6.2426 10.7548 6.89744 10.8524 7.3392C10.9725 7.80268 11.255 8.13459 11.8614 8.13459ZM12.8305 15.4444L13.7512 15.4444C14.3847 15.4444 14.7212 15.0758 14.7189 14.4228C14.7097 13.0895 14.5362 11.3679 14.2254 10.2466C14.0681 9.66949 13.6799 9.44839 13.2015 9.44839L12.4962 9.44839C11.8507 9.44839 11.4717 9.74124 11.5722 10.5688C11.6917 11.5453 11.7968 13.1152 11.8261 14.44C11.8336 15.1177 12.212 15.4444 12.8305 15.4444Z"
                     fill="currentColor" fill-opacity="0.85" />
       </g>
</svg>