<?xml version="1.0" encoding="UTF-8"?>
<!--Generator: Apple Native CoreSVG 326-->
<!DOCTYPE svg PUBLIC "-//W3C//DTD SVG 1.1//EN" "http://www.w3.org/Graphics/SVG/1.1/DTD/svg11.dtd">
<svg version="1.1" xmlns="http://www.w3.org/2000/svg" xmlns:xlink="http://www.w3.org/1999/xlink"
       viewBox="0 0 24.4654 20.731">
       <g>
              <rect height="20.731" opacity="0" width="24.4654" x="0" y="0" />
              <path d="M12.046 12.2394C18.3631 12.2394 24.1041 9.74568 24.1041 6.42003C24.1041 2.6972 18.4676 0.678144 12.046 0.678144C5.6267 0.678144 0 2.6972 0 6.42003C0 9.92474 5.73115 12.2394 12.046 12.2394ZM12.046 9.68691C7.41521 9.68691 2.61525 8.27101 2.61525 6.42003C2.61525 4.81252 6.2124 3.2001 12.046 3.2001C17.8894 3.2001 21.479 4.81252 21.479 6.42003C21.479 8.27101 16.6865 9.68691 12.046 9.68691ZM12.046 17.5696C18.0388 17.5696 24.1041 15.2819 24.1041 12.4773L24.1041 6.44472L21.479 8.83008L21.479 12.067C21.479 13.5226 17.0528 15.032 12.046 15.032C7.04896 15.032 2.62732 13.5226 2.62732 12.067L2.62732 8.83008L0 6.44472L0 12.4773C0 15.2819 5.83166 17.5696 12.046 17.5696ZM8.17128 8.62015C8.84499 8.62015 9.3935 8.35308 9.3935 8.01765C9.3935 7.68683 8.84499 7.42492 8.17128 7.42492C7.51996 7.42492 6.95883 7.68683 6.95883 8.01765C6.95883 8.35308 7.51996 8.62015 8.17128 8.62015ZM12.046 8.99585C12.7197 8.99585 13.2682 8.72417 13.2682 8.39335C13.2682 8.06769 12.7197 7.79086 12.046 7.79086C11.382 7.79086 10.8358 8.06769 10.8358 8.39335C10.8358 8.72417 11.382 8.99585 12.046 8.99585ZM15.9305 8.62015C16.5818 8.62015 17.1452 8.35308 17.1452 8.01765C17.1452 7.68683 16.5818 7.42492 15.9305 7.42492C15.2568 7.42492 14.7106 7.68683 14.7106 8.01765C14.7106 8.35308 15.2568 8.62015 15.9305 8.62015ZM12.046 6.73811C14.1041 6.73811 15.3126 6.14823 15.3126 5.36128C15.3126 4.59386 14.1162 3.9896 12.046 3.9896C9.9781 3.9896 8.79143 4.5864 8.79143 5.36128C8.79143 6.14823 9.98271 6.73811 12.046 6.73811ZM12.046 5.73995C10.8947 5.73995 10.2577 5.56241 10.2577 5.35382C10.2577 5.15499 10.8855 4.9803 12.046 4.9803C13.199 4.9803 13.8245 5.15499 13.8245 5.35382C13.8245 5.56241 13.1898 5.73995 12.046 5.73995ZM6.67757 20.6105L12.487 17.3428C12.9441 17.0947 13.1112 16.4923 12.8556 16.0278C12.5829 15.5534 11.9954 15.3984 11.5308 15.6666L5.7266 18.9245C5.26949 19.1852 5.08747 19.7773 5.35793 20.2298C5.62094 20.699 6.21816 20.8684 6.67757 20.6105ZM17.4339 20.6105C17.8911 20.8684 18.4883 20.699 18.7513 20.2298C19.0217 19.7773 18.8397 19.1852 18.3826 18.9245L12.5784 15.6666C12.1115 15.3984 11.5264 15.5534 11.2513 16.0278C10.998 16.4923 11.1651 17.0947 11.6222 17.3428Z"
                     fill="currentColor" fill-opacity="0.85" />
       </g>
</svg>