<?xml version="1.0" encoding="UTF-8"?>
<!--Generator: Apple Native CoreSVG 326-->
<!DOCTYPE svg PUBLIC "-//W3C//DTD SVG 1.1//EN" "http://www.w3.org/Graphics/SVG/1.1/DTD/svg11.dtd">
<svg version="1.1" xmlns="http://www.w3.org/2000/svg" xmlns:xlink="http://www.w3.org/1999/xlink"
       viewBox="0 0 24.3008 20.2622">
       <g>
              <rect height="20.2622" opacity="0" width="24.3008" x="0" y="0" />
              <path d="M11.9734 10.1659C17.3788 10.1659 23.7929 8.06721 23.7929 5.47167C23.7929 2.88821 18.5067 0.79697 11.9734 0.79697C5.43272 0.79697 0.146484 2.88821 0.146484 5.47167C0.146484 8.06721 6.56299 10.1659 11.9734 10.1659ZM11.9734 5.51371C9.76205 5.51371 8.4944 4.87676 8.4944 4.04559C8.4944 3.21903 9.75513 2.57516 11.9734 2.57516C14.1791 2.57516 15.4548 3.22649 15.4548 4.04559C15.4548 4.87676 14.1722 5.51371 11.9734 5.51371ZM11.9734 4.44149C13.1936 4.44149 13.8605 4.26164 13.8605 4.03813C13.8605 3.82207 13.2028 3.62269 11.9734 3.62269C10.7291 3.62269 10.0692 3.82207 10.0692 4.03813C10.0692 4.26164 10.7384 4.44149 11.9734 4.44149ZM7.82718 7.97428C7.11902 7.97428 6.5309 7.69745 6.5309 7.32702C6.5309 6.98413 7.11902 6.69238 7.82718 6.69238C8.55026 6.69238 9.14584 6.98413 9.14584 7.32702C9.14584 7.69745 8.55026 7.97428 7.82718 7.97428ZM11.9734 8.37467C11.2601 8.37467 10.672 8.08292 10.672 7.74003C10.672 7.37706 11.2601 7.09046 11.9734 7.09046C12.6816 7.09046 13.2697 7.37706 13.2697 7.74003C13.2697 8.08292 12.6816 8.37467 11.9734 8.37467ZM16.122 7.97428C15.3989 7.97428 14.8108 7.69745 14.8108 7.32702C14.8108 6.98413 15.3989 6.69238 16.122 6.69238C16.8227 6.69238 17.4183 6.98413 17.4183 7.32702C17.4183 7.69745 16.8227 7.97428 16.122 7.97428ZM11.9734 16.904C18.5659 16.904 23.9394 14.8833 23.9394 11.7465L23.9394 8.03603C21.8536 10.0205 17.7094 11.6426 11.9734 11.6426C6.22998 11.6426 2.08584 10.0205 0 8.03603L0 11.7465C0 14.8833 5.38335 16.904 11.9734 16.904ZM6.60502 20.1418L12.407 16.8764C12.8641 16.626 13.0386 16.0236 12.7756 15.5539C12.5029 15.0847 11.9154 14.9297 11.4508 15.1852L5.65405 18.4483C5.19695 18.7165 5.01492 19.3085 5.28539 19.761C5.54093 20.2302 6.13815 20.3996 6.60502 20.1418ZM17.3539 20.1418C17.811 20.3996 18.4083 20.2302 18.6713 19.761C18.9417 19.3085 18.7597 18.7165 18.3026 18.4483L12.5058 15.1852C12.0315 14.9297 11.4538 15.0847 11.1787 15.5539C10.918 16.0236 11.0926 16.626 11.5497 16.8764Z"
                     fill="currentColor" fill-opacity="0.85" />
       </g>
</svg>