<?xml version="1.0" encoding="UTF-8"?>
<!--Generator: Apple Native CoreSVG 326-->
<!DOCTYPE svg PUBLIC "-//W3C//DTD SVG 1.1//EN" "http://www.w3.org/Graphics/SVG/1.1/DTD/svg11.dtd">
<svg version="1.1" xmlns="http://www.w3.org/2000/svg" xmlns:xlink="http://www.w3.org/1999/xlink"
       viewBox="0 0 21.8338 21.5581">
       <g>
              <rect height="21.5581" opacity="0" width="21.8338" x="0" y="0" />
              <path d="M2.25835 7.03598C2.74135 7.03598 3.12615 6.64372 3.12615 6.17048C3.12615 5.69724 2.74881 5.30498 2.25835 5.30498C1.77765 5.30498 1.40031 5.69724 1.40031 6.17048C1.40031 6.64372 1.78511 7.03598 2.25835 7.03598ZM2.25835 9.47782C2.74135 9.47782 3.12615 9.08555 3.12615 8.61977C3.12615 8.13677 2.74881 7.76173 2.25835 7.76173C1.77765 7.76173 1.40031 8.13677 1.40031 8.61977C1.40031 9.08555 1.78511 9.47782 2.25835 9.47782ZM2.25835 11.9271C2.74135 11.9271 3.12615 11.5251 3.12615 11.0616C3.12615 10.5935 2.74881 10.2013 2.25835 10.2013C1.77765 10.2013 1.40031 10.5935 1.40031 11.0616C1.40031 11.5251 1.78511 11.9271 2.25835 11.9271ZM2.25835 14.3764C2.74135 14.3764 3.12615 13.9818 3.12615 13.5184C3.12615 13.0354 2.74881 12.658 2.25835 12.658C1.77765 12.658 1.40031 13.0354 1.40031 13.5184C1.40031 13.9818 1.78511 14.3764 2.25835 14.3764ZM2.25835 16.8332C2.74135 16.8332 3.12615 16.4386 3.12615 15.9653C3.12615 15.4846 2.74881 15.1148 2.25835 15.1148C1.77765 15.1148 1.40031 15.4846 1.40031 15.9653C1.40031 16.4386 1.78511 16.8332 2.25835 16.8332ZM2.25835 21.5581C2.80741 21.5581 3.23588 21.1244 3.23588 20.5828L3.23588 18.5318C3.23588 17.9977 2.80741 17.5566 2.25835 17.5566C1.71675 17.5566 1.29058 17.9977 1.29058 18.5318L1.29058 20.5828C1.29058 21.1244 1.71905 21.5581 2.25835 21.5581Z"
                     fill="currentColor" fill-opacity="0.85" />
              <path d="M5.13411 4.57408L19.2141 4.57408C20.4559 4.57408 21.4725 3.55748 21.4725 2.30081C21.4725 1.05159 20.4559 0.0424594 19.2141 0.0424594L5.13411 0.0424594C5.62403 0.654722 5.9204 1.44847 5.9204 2.30081C5.9204 3.16061 5.62403 3.94689 5.13411 4.57408ZM2.25835 4.57408C3.50756 4.57408 4.52416 3.55748 4.52416 2.30081C4.52416 1.05159 3.50756 0.0424594 2.25835 0.0424594C1.0166 0.0424594 0 1.05159 0 2.30081C0 3.55748 1.0166 4.57408 2.25835 4.57408Z"
                     fill="currentColor" fill-opacity="0.85" />
       </g>
</svg>