<?xml version="1.0" encoding="UTF-8"?>
<!--Generator: Apple Native CoreSVG 326-->
<!DOCTYPE svg PUBLIC "-//W3C//DTD SVG 1.1//EN" "http://www.w3.org/Graphics/SVG/1.1/DTD/svg11.dtd">
<svg version="1.1" xmlns="http://www.w3.org/2000/svg" xmlns:xlink="http://www.w3.org/1999/xlink"
       viewBox="0 0 22.6834 21.4732">
       <g>
              <rect height="21.4732" opacity="0" width="22.6834" x="0" y="0" />
              <path d="M4.81191 8.97207L20.1186 8.9646C20.775 8.9646 21.2246 8.51496 21.2246 7.8586L21.2246 5.27502C21.2246 4.62096 20.775 4.16902 20.1186 4.16902L4.81191 4.18394C4.15555 4.18394 3.7036 4.62843 3.7036 5.27502L3.7036 7.86606C3.7036 8.52242 4.15555 8.97207 4.81191 8.97207ZM4.81191 15.2226L20.1186 15.2077C20.775 15.2077 21.2246 14.7632 21.2246 14.1091L21.2246 11.5256C21.2246 10.8692 20.775 10.4196 20.1186 10.4196L4.81191 10.427C4.15555 10.427 3.7036 10.8767 3.7036 11.5256L3.7036 14.1166C3.7036 14.7707 4.15555 15.2226 4.81191 15.2226ZM4.81191 21.4634L20.1186 21.4559C20.775 21.4559 21.2246 21.0063 21.2246 20.3522L21.2246 17.7663C21.2246 17.1123 20.775 16.6701 20.1186 16.6701L4.81191 16.6776C4.15555 16.6776 3.7036 17.1198 3.7036 17.7663L3.7036 20.3597C3.7036 21.0137 4.15555 21.4634 4.81191 21.4634Z"
                     fill="currentColor" fill-opacity="0.85" />
              <path d="M0 1.50494C0 2.33751 0.682139 3.01964 1.5147 3.01964L20.8218 3.01964C21.6543 3.01964 22.329 2.33751 22.329 1.50494C22.329 0.672373 21.6543 0 20.8218 0L1.5147 0C0.682139 0 0 0.672373 0 1.50494ZM1.5147 5.80752C1.98794 5.80752 2.37275 5.40033 2.37275 4.94202C2.37275 4.45901 1.9954 4.08398 1.5147 4.08398C1.02424 4.08398 0.646898 4.45901 0.646898 4.94202C0.646898 5.40033 1.0317 5.80752 1.5147 5.80752ZM1.5147 8.05822C1.98794 8.05822 2.37275 7.66365 2.37275 7.19788C2.37275 6.71718 1.9954 6.32491 1.5147 6.32491C1.02424 6.32491 0.646898 6.71718 0.646898 7.19788C0.646898 7.66365 1.0317 8.05822 1.5147 8.05822ZM1.5147 10.2842C1.98794 10.2842 2.37275 9.89198 2.37275 9.4262C2.37275 8.94319 1.9954 8.56816 1.5147 8.56816C1.02424 8.56816 0.646898 8.94319 0.646898 9.4262C0.646898 9.89198 1.0317 10.2842 1.5147 10.2842ZM1.5147 14.8106C2.054 14.8106 2.48247 14.3769 2.48247 13.8279L2.48247 11.7866C2.48247 11.2525 2.0563 10.8016 1.5147 10.8016C0.965646 10.8016 0.537171 11.2525 0.537171 11.7866L0.537171 13.8279C0.537171 14.3769 0.965646 14.8106 1.5147 14.8106Z"
                     fill="currentColor" fill-opacity="0.85" />
       </g>
</svg>