<?xml version="1.0" encoding="UTF-8"?>
<!--Generator: Apple Native CoreSVG 326-->
<!DOCTYPE svg PUBLIC "-//W3C//DTD SVG 1.1//EN" "http://www.w3.org/Graphics/SVG/1.1/DTD/svg11.dtd">
<svg version="1.1" xmlns="http://www.w3.org/2000/svg" xmlns:xlink="http://www.w3.org/1999/xlink"
       viewBox="0 0 17.8434 23.3034">
       <g>
              <rect height="23.3034" opacity="0" width="17.8434" x="0" y="0" />
              <path d="M0 8.76517C0 11.5077 1.21706 13.9235 3.13944 15.5209L3.1492 21.8294C3.1492 22.8159 3.79513 23.2913 4.5611 23.2913C5.05957 23.2913 5.41792 23.0885 5.80843 22.7055L8.6316 19.9019C8.71786 19.8179 8.81266 19.7668 8.90747 19.7668C9.01719 19.7668 9.09938 19.8179 9.19079 19.9019L12.0289 22.7055C12.4142 23.0759 12.7749 23.2913 13.2762 23.2913C14.0319 23.2913 14.6755 22.8159 14.6755 21.8294L14.6755 15.2305C16.4067 13.628 17.4797 11.3413 17.4821 8.76517C17.4844 3.86397 13.6255 0 8.74103 0C3.85421 0 0 3.86397 0 8.76517ZM3.06902 8.76517C3.06156 5.60941 5.5652 3.05234 8.74333 3.05234C11.9192 3.05234 14.4228 5.60941 14.4251 8.76517C14.4349 11.8939 11.9192 14.4608 8.74333 14.4585C5.5652 14.4562 3.06156 11.8939 3.06902 8.76517Z"
                     fill="currentColor" fill-opacity="0.85" />
       </g>
</svg>