<?xml version="1.0" encoding="UTF-8"?>
<!--Generator: Apple Native CoreSVG 326-->
<!DOCTYPE svg PUBLIC "-//W3C//DTD SVG 1.1//EN" "http://www.w3.org/Graphics/SVG/1.1/DTD/svg11.dtd">
<svg version="1.1" xmlns="http://www.w3.org/2000/svg" xmlns:xlink="http://www.w3.org/1999/xlink"
       viewBox="0 0 26.1505 27.1925">
       <g>
              <rect height="27.1925" opacity="0" width="26.1505" x="0" y="0" />
              <path d="M1.00089 10.2231C1.55674 10.2231 2.01154 9.77058 2.01154 9.21473L2.01154 7.41415C2.01154 5.4236 3.35689 3.98114 5.26713 3.98114L5.96001 3.98114L5.96001 5.22368C5.96001 6.05364 6.7307 6.3241 7.38203 5.83418L10.2533 3.64189C10.6881 3.31677 10.6784 2.77869 10.2533 2.45358L7.38203 0.251517C6.72324-0.248168 5.96001 0.014837 5.96001 0.879247L5.96001 2.07987L5.30959 2.07987C2.27327 2.07987 0 4.28545 0 7.41415L0 9.21473C0 9.77058 0.452495 10.2231 1.00089 10.2231Z"
                     fill="currentColor" fill-opacity="0.85" />
              <path d="M17.6924 23.6449C19.7876 23.6449 20.9855 22.4585 20.9855 20.3541L20.9855 10.7556C20.9855 8.64371 19.7876 7.46243 17.6924 7.46243L8.08928 7.46243C5.99409 7.46243 4.79613 8.64371 4.79613 10.7556L4.79613 20.3541C4.79613 22.4585 5.99409 23.6449 8.08928 23.6449Z"
                     fill="currentColor" fill-opacity="0.85" />
       </g>
</svg>