<?xml version="1.0" encoding="UTF-8"?>
<!--Generator: Apple Native CoreSVG 326-->
<!DOCTYPE svg PUBLIC "-//W3C//DTD SVG 1.1//EN" "http://www.w3.org/Graphics/SVG/1.1/DTD/svg11.dtd">
<svg version="1.1" xmlns="http://www.w3.org/2000/svg" xmlns:xlink="http://www.w3.org/1999/xlink"
       viewBox="0 0 21.365 21.0014">
       <g>
              <rect height="21.0014" opacity="0" width="21.365" x="0" y="0" />
              <path d="M5.87818 12.3089C5.84888 11.7166 5.83681 11.1123 5.83681 10.4958C5.83681 6.31369 6.39927 2.8176 7.35291 0.503507C3.11669 1.83873 0 5.82201 0 10.4958C0 11.3363 2.27442 12.0085 5.87818 12.3089ZM8.5374 12.4542C9.17162 12.4737 9.82768 12.4858 10.4981 12.4858C16.6777 12.4858 21.0037 11.6545 21.0037 10.4958C21.0037 4.72577 16.2733 0.0051558 10.4958 0.0051558C9.33709 0.0051558 8.5058 4.33109 8.5058 10.4958C8.5058 11.1639 8.52533 11.8274 8.5374 12.4542ZM6.07282 14.9188C3.82 14.6746 1.92522 14.2322 0.508116 13.6387C1.50288 16.8998 4.09926 19.4887 7.35291 20.5007C6.76685 19.0836 6.31696 17.1791 6.07282 14.9188ZM8.68267 15.1134C8.9831 18.7172 9.65299 20.9991 10.4958 21.0014C15.1794 21.0014 19.1776 17.8898 20.4956 13.6387C18.1987 14.5849 14.6877 15.1548 10.4981 15.1548C9.87936 15.1548 9.27498 15.1427 8.68267 15.1134Z"
                     fill="currentColor" fill-opacity="0.85" />
       </g>
</svg>