<?xml version="1.0" encoding="UTF-8"?>
<!--Generator: Apple Native CoreSVG 326-->
<!DOCTYPE svg PUBLIC "-//W3C//DTD SVG 1.1//EN" "http://www.w3.org/Graphics/SVG/1.1/DTD/svg11.dtd">
<svg version="1.1" xmlns="http://www.w3.org/2000/svg" xmlns:xlink="http://www.w3.org/1999/xlink"
       viewBox="0 0 21.365 21.006">
       <g>
              <rect height="21.006" opacity="0" width="21.365" x="0" y="0" />
              <path d="M21.0037 10.5079C21.0037 16.3043 16.302 21.006 10.4981 21.006C4.70394 21.006 0 16.3043 0 10.5079C0 4.7137 4.70394 0.00976562 10.4981 0.00976562C16.302 0.00976562 21.0037 4.7137 21.0037 10.5079ZM10.4981 12.9444C10.1723 12.9444 9.84885 12.9421 9.53744 12.9226C9.70115 14.8226 10.0534 16.0269 10.4981 16.0269C12.9703 16.0269 15.0627 14.3957 15.7657 12.1492C14.5462 12.6479 12.7118 12.9444 10.4981 12.9444ZM8.86191 15.7754C8.54128 15.0246 8.30855 14.0162 8.17698 12.8267C6.98982 12.6951 5.99118 12.4647 5.23802 12.1492C5.77106 13.8731 7.13291 15.2498 8.86191 15.7754ZM9.4467 10.5153C9.4467 10.8756 9.449 11.2088 9.46623 11.5472C9.79486 11.557 10.1453 11.5593 10.4981 11.5593C13.7462 11.5593 16.0074 11.114 16.0097 10.5153C16.0097 7.47865 13.5325 5.01122 10.4958 5.01122C9.88221 5.01353 9.4467 7.27466 9.4467 10.5153ZM4.994 10.5153C4.994 10.9601 6.18104 11.31 8.08109 11.4685C8.06902 11.1623 8.06671 10.8411 8.06671 10.5153C8.06671 8.32408 8.35574 6.47704 8.85445 5.25524C6.62522 5.95825 4.9963 8.05294 4.994 10.5153Z"
                     fill="currentColor" fill-opacity="0.85" />
       </g>
</svg>