<?xml version="1.0" encoding="UTF-8"?>
<!--Generator: Apple Native CoreSVG 326-->
<!DOCTYPE svg PUBLIC "-//W3C//DTD SVG 1.1//EN" "http://www.w3.org/Graphics/SVG/1.1/DTD/svg11.dtd">
<svg version="1.1" xmlns="http://www.w3.org/2000/svg" xmlns:xlink="http://www.w3.org/1999/xlink"
       viewBox="0 0 27.0075 18.9522">
       <g>
              <rect height="18.9522" opacity="0" width="27.0075" x="0" y="0" />
              <path d="M23.0376 0.410357C25.2804 0.410357 26.6462 1.78313 26.6462 4.02819L26.6462 10.5174C26.6462 13.3749 25.3384 15.2261 22.4326 16.0871L14.0427 18.5555C11.5681 19.2867 9.84678 18.9857 7.63878 17.8289L2.23772 14.9992C0.498472 14.0865 0 12.8683 0 10.5174L0 4.02127C0 1.77852 1.37792 0.408052 3.61322 0.408052ZM11.002 7.01775C11.002 8.21607 11.6449 8.89044 12.579 9.31091L13.0862 9.53837C13.6338 9.79743 14.0698 10.0353 14.0698 10.6363C14.0698 11.0576 13.8434 11.3851 13.4175 11.3851C13.0065 11.3851 12.7898 11.0472 12.7099 10.7563C12.5647 10.2975 12.2287 10.1286 11.8267 10.1286C11.3586 10.1286 11.0249 10.4692 11.0249 10.9275C11.0249 11.1704 11.072 11.3559 11.1581 11.5517C11.4884 12.413 12.3541 12.8657 13.4129 12.8657C14.9914 12.8657 15.9191 11.9415 15.9191 10.4646C15.9191 9.19451 15.2769 8.62349 14.3008 8.1915L13.7837 7.96635C13.2333 7.70728 12.8438 7.45732 12.8438 6.8581C12.8438 6.45868 13.0088 6.14551 13.4037 6.14551C13.8151 6.14551 13.9934 6.44091 14.1031 6.82189C14.2157 7.23599 14.4948 7.4077 14.9565 7.4077C15.4992 7.38532 15.741 7.04419 15.741 6.6404C15.741 6.52498 15.7112 6.35502 15.6721 6.20447C15.312 5.11939 14.4033 4.65744 13.4111 4.65744C12.0583 4.65744 11.002 5.48697 11.002 7.01775ZM6.03334 4.88259C5.41022 4.88259 5.08917 5.24556 5.08917 5.86868L5.08917 11.8113C5.08917 12.4321 5.41022 12.8169 6.03564 12.8169C6.64439 12.8169 6.97005 12.4269 6.97005 11.8113L6.97005 9.88817L7.46276 9.88817L8.17019 11.9997C8.34421 12.5498 8.65604 12.8169 9.14366 12.8169C9.65244 12.8169 10.0465 12.4448 10.0241 11.8722C10.0166 11.6878 9.98041 11.5373 9.89767 11.3425L9.21099 9.49821C9.85795 9.06052 10.1228 8.20345 10.1228 7.41407C10.1228 5.72244 9.16295 4.88259 7.55459 4.88259ZM17.8705 4.87283C17.225 4.87283 16.9286 5.29439 16.9286 5.85606L16.9286 11.6964C16.9286 12.2724 17.2273 12.6848 17.8705 12.6848L19.9586 12.6848C21.281 12.6848 21.9922 11.6945 21.9922 10.4381C21.9922 9.48341 21.3788 8.62404 20.528 8.56369L20.528 8.52232C21.3 8.40283 21.8204 7.62728 21.8204 6.8208C21.8204 5.59548 21.0649 4.87283 19.8799 4.87283ZM20.1263 10.2687C20.1263 10.8635 19.8849 11.3271 19.2827 11.3271L18.8101 11.3271L18.8101 9.23224L19.2608 9.23224C19.8297 9.23224 20.1263 9.65786 20.1263 10.2687ZM8.19488 7.45313C8.19488 8.03064 7.97015 8.59935 7.39034 8.59935L6.97005 8.59935L6.97005 6.31383L7.3978 6.31383C7.946 6.31383 8.19488 6.90317 8.19488 7.45313ZM20.0526 7.13263C20.0526 7.70377 19.7917 8.07607 19.2206 8.07607L18.8101 8.07607L18.8101 6.2254L19.2981 6.2254C19.8641 6.2254 20.0526 6.59716 20.0526 7.13263Z"
                     fill="currentColor" fill-opacity="0.85" />
       </g>
</svg>