<?xml version="1.0" encoding="UTF-8"?>
<!--Generator: Apple Native CoreSVG 326-->
<!DOCTYPE svg PUBLIC "-//W3C//DTD SVG 1.1//EN" "http://www.w3.org/Graphics/SVG/1.1/DTD/svg11.dtd">
<svg version="1.1" xmlns="http://www.w3.org/2000/svg" xmlns:xlink="http://www.w3.org/1999/xlink"
       viewBox="0 0 27.0075 18.9522">
       <g>
              <rect height="18.9522" opacity="0" width="27.0075" x="0" y="0" />
              <path d="M0 10.5174C0 12.8683 0.498472 14.0865 2.23772 14.9992L7.63878 17.8289C9.84678 18.9857 11.5681 19.2867 14.0427 18.5555L22.4326 16.0871C25.3384 15.2261 26.6462 13.3749 26.6462 10.5174L26.6462 4.02819C26.6462 1.78313 25.2804 0.410357 23.0376 0.410357L3.61322 0.408052C1.37792 0.408052 0 1.77852 0 4.02127ZM3.01964 10.5174L3.01964 4.42361C3.01964 3.79782 3.40469 3.41278 4.02302 3.41278L22.6301 3.42254C23.2438 3.42254 23.6266 3.80243 23.6266 4.43052L23.6266 10.5174C23.6266 12.0261 23.1105 12.7847 21.5282 13.2546L13.6846 15.6053C11.7578 16.1884 10.785 16.0499 9.262 15.26L4.0545 12.5652C3.25578 12.1573 3.01964 11.6046 3.01964 10.5174Z"
                     fill="currentColor" fill-opacity="0.85" />
              <path d="M6.73774 12.3347C7.2868 12.3347 7.57801 11.9918 7.57801 11.4404L7.57801 9.68783L8.03396 9.68783L8.67479 11.6041C8.83389 12.09 9.11357 12.3347 9.55412 12.3347C10.0061 12.3347 10.3679 12.0074 10.353 11.4892C10.3381 11.3244 10.3093 11.1888 10.2364 11.0113L9.60883 9.33001C10.199 8.93939 10.4317 8.16615 10.4317 7.44853C10.4317 5.91763 9.56825 5.15184 8.11833 5.15184L6.73543 5.15184C6.17661 5.15184 5.8877 5.48266 5.8877 6.04149L5.8877 11.4404C5.8877 11.9969 6.17661 12.3347 6.73774 12.3347ZM7.57801 8.51783L7.57801 6.44473L7.96899 6.44473C8.47529 6.44473 8.70178 6.97207 8.70178 7.48528C8.70178 8.00595 8.49428 8.51783 7.96153 8.51783ZM13.418 12.3812C14.8433 12.3812 15.682 11.546 15.682 10.2149C15.682 9.06361 15.0989 8.54943 14.2118 8.16166L13.7539 7.94912C13.2506 7.7222 12.8932 7.48947 12.8932 6.93962C12.8932 6.57465 13.0485 6.29363 13.4111 6.29363C13.7882 6.29363 13.9491 6.5718 14.0439 6.91087C14.1542 7.28536 14.4012 7.44216 14.8158 7.44216C15.3063 7.41977 15.5235 7.11079 15.5235 6.74661C15.5235 6.6438 15.4988 6.49107 15.4597 6.35775C15.1317 5.37657 14.312 4.94907 13.4186 4.94907C12.1869 4.94907 11.2345 5.70454 11.2345 7.08435C11.2345 8.169 11.828 8.78884 12.6657 9.15994L13.131 9.37017C13.6292 9.59939 14.0233 9.81775 14.0233 10.3694C14.0233 10.751 13.8164 11.0516 13.4226 11.0516C13.0461 11.0516 12.8467 10.7458 12.7765 10.4768C12.6462 10.0627 12.3349 9.90873 11.9725 9.90873C11.5566 9.90873 11.2476 10.2097 11.2476 10.6307C11.2476 10.849 11.2947 11.012 11.3682 11.1855C11.6738 11.9704 12.458 12.3812 13.418 12.3812ZM17.448 12.2175L19.3357 12.2175C20.537 12.2175 21.1816 11.3214 21.1816 10.1884C21.1816 9.32268 20.625 8.54252 19.8557 8.49193L19.8557 8.45056C20.5462 8.34084 21.027 7.6445 21.027 6.90978C21.027 5.8056 20.3382 5.14954 19.2645 5.14954L17.448 5.14954C16.8668 5.14954 16.6025 5.52919 16.6025 6.03633L16.6025 11.333C16.6025 11.8448 16.8691 12.2175 17.448 12.2175ZM18.2859 8.05138L18.2859 6.36606L18.7396 6.36606C19.2562 6.36606 19.4275 6.71083 19.4275 7.18946C19.4275 7.71353 19.1987 8.05138 18.6769 8.05138ZM18.2859 11.001L18.2859 9.09619L18.7149 9.09619C19.2292 9.09619 19.4988 9.47474 19.4988 10.0362C19.4988 10.5793 19.2821 11.001 18.7316 11.001Z"
                     fill="currentColor" fill-opacity="0.85" />
       </g>
</svg>