<?xml version="1.0" encoding="UTF-8"?>
<!--Generator: Apple Native CoreSVG 326-->
<!DOCTYPE svg PUBLIC "-//W3C//DTD SVG 1.1//EN" "http://www.w3.org/Graphics/SVG/1.1/DTD/svg11.dtd">
<svg version="1.1" xmlns="http://www.w3.org/2000/svg" xmlns:xlink="http://www.w3.org/1999/xlink"
       viewBox="0 0 23.868 18.3346">
       <g>
              <rect height="18.3346" opacity="0" width="23.868" x="0" y="0" />
              <path d="M8.34257 0.0051558C2.44723 0.0051558 0 2.52305 0 8.44448L0 14.7093C0 17.0177 1.32151 18.3346 3.63221 18.3346L19.8744 18.3346C22.1851 18.3346 23.5067 17.0154 23.5067 14.7093L23.5067 8.44448C23.5067 2.52305 21.0594 0.0051558 15.1641 0.0051558ZM8.48433 3.03226L15.02 3.03226C18.8782 3.03226 20.487 4.64626 20.487 8.46389L20.487 14.2805C20.487 14.9437 20.1089 15.3149 19.4623 15.3149L4.04431 15.3149C3.3857 15.3149 3.01964 14.9437 3.01964 14.2805L3.01964 8.46389C3.01964 4.64626 4.62102 3.03226 8.48433 3.03226Z"
                     fill="currentColor" fill-opacity="0.85" />
              <path d="M7.70369 13.008C8.27743 13.008 8.58587 12.6479 8.58587 12.0695L8.58587 10.2267L9.06596 10.2267L9.73839 12.2407C9.90726 12.7535 10.1967 13.008 10.6619 13.008C11.1334 13.008 11.5125 12.6635 11.4976 12.1207C11.4827 11.9438 11.4465 11.8082 11.3787 11.6209L10.712 9.85916C11.3315 9.44154 11.5763 8.63154 11.5763 7.87716C11.5763 6.27044 10.6738 5.4656 9.15033 5.4656L7.70138 5.4656C7.11326 5.4656 6.80713 5.81595 6.80713 6.40922L6.80713 12.0695C6.80713 12.653 7.11556 13.008 7.70369 13.008ZM8.58587 9.00276L8.58587 6.82223L8.99354 6.82223C9.51936 6.82223 9.75792 7.37887 9.75792 7.91392C9.75792 8.47135 9.54581 9.00276 8.98607 9.00276ZM14.5781 12.9982C15.0657 12.9982 15.4626 12.6014 15.4626 12.0965L15.4626 6.90606L16.2115 6.90606C16.6009 6.90606 16.9243 6.57755 16.9243 6.17606C16.9243 5.79411 16.6009 5.4656 16.2115 5.4656L12.928 5.4656C12.5288 5.4656 12.2129 5.79411 12.2129 6.17606C12.2129 6.57755 12.5288 6.90606 12.928 6.90606L13.6861 6.90606L13.6861 12.0965C13.6861 12.6014 14.083 12.9982 14.5781 12.9982Z"
                     fill="currentColor" fill-opacity="0.85" />
       </g>
</svg>