<?xml version="1.0" encoding="UTF-8"?>
<!--Generator: Apple Native CoreSVG 326-->
<!DOCTYPE svg PUBLIC "-//W3C//DTD SVG 1.1//EN" "http://www.w3.org/Graphics/SVG/1.1/DTD/svg11.dtd">
<svg version="1.1" xmlns="http://www.w3.org/2000/svg" xmlns:xlink="http://www.w3.org/1999/xlink"
       viewBox="0 0 24.6449 23.5952">
       <g>
              <rect height="23.5952" opacity="0" width="24.6449" x="0" y="0" />
              <path d="M1.94045 20.4256L22.5744 20.4256L22.5744 19.4355C22.5744 18.8957 22.2379 18.5718 21.7032 18.5718L21.3244 18.5718L21.3244 7.89293L22.1092 7.89293C22.9074 7.89293 23.3841 7.28595 23.3841 6.69158C23.3841 6.25686 23.136 5.85374 22.6254 5.55167L13.7186 0.416404C13.2683 0.154491 12.7462 0 12.2563 0C11.7664 0 11.242 0.154491 10.7963 0.416404L1.88944 5.55167C1.37659 5.85374 1.13081 6.25686 1.13081 6.69158C1.13081 7.28595 1.60745 7.89293 2.41314 7.89293L3.19045 7.89293L3.19045 18.5718L2.81396 18.5718C2.27927 18.5718 1.94045 18.8957 1.94045 19.4355ZM5.29922 18.5718L5.29922 6.39673L12.047 2.62732C12.1194 2.5888 12.1965 2.57212 12.2563 2.57212C12.331 2.57212 12.3931 2.5888 12.4679 2.62732L19.2157 6.39673L19.2157 18.5718ZM1.20651 23.5854L23.0673 23.5854C23.7134 23.5854 24.2836 23.0525 24.2836 22.3766C24.2836 21.7231 23.7134 21.1701 23.0673 21.1701L1.20651 21.1701C0.553002 21.1701 0 21.7231 0 22.3766C0 23.045 0.553002 23.5854 1.20651 23.5854Z"
                     fill="currentColor" fill-opacity="0.85" />
              <path d="M10.5812 15.8647C11.2111 15.8647 11.5976 15.4587 11.5976 14.8162L11.5976 14.4388L13.5534 14.4388C13.7091 14.4388 13.8211 14.3439 13.8211 14.1762C13.8211 14.0107 13.7091 13.9061 13.5534 13.9061L11.5976 13.9061L11.5976 12.7061L13.0099 12.7061C14.7764 12.7061 16.0233 11.58 16.0233 10.0182C16.0233 8.36047 14.8291 7.30336 13.1413 7.30336L10.6208 7.30336C9.95821 7.30336 9.57462 7.72655 9.57462 8.39147L9.57462 12.1464L8.66575 12.1464C8.48306 12.1464 8.37848 12.2533 8.37848 12.4188C8.37848 12.594 8.48306 12.7061 8.66575 12.7061L9.57462 12.7061L9.57462 13.9061L8.66575 13.9061C8.49052 13.9061 8.38594 14.0107 8.38594 14.1762C8.38594 14.3439 8.49052 14.4388 8.66575 14.4388L9.57462 14.4388L9.57462 14.8162C9.57462 15.4587 9.96106 15.8647 10.5812 15.8647ZM11.5976 11.2118L11.5976 8.86185L12.5201 8.86185C13.4741 8.86185 13.9785 9.34983 13.9785 10.0331C13.9785 10.7757 13.4131 11.2118 12.5052 11.2118Z"
                     fill="currentColor" fill-opacity="0.85" />
       </g>
</svg>