<?xml version="1.0" encoding="UTF-8"?>
<!--Generator: Apple Native CoreSVG 326-->
<!DOCTYPE svg PUBLIC "-//W3C//DTD SVG 1.1//EN" "http://www.w3.org/Graphics/SVG/1.1/DTD/svg11.dtd">
<svg version="1.1" xmlns="http://www.w3.org/2000/svg" xmlns:xlink="http://www.w3.org/1999/xlink"
       viewBox="0 0 21.365 21.006">
       <g>
              <rect height="21.006" opacity="0" width="21.365" x="0" y="0" />
              <path d="M10.4981 20.9962C16.302 20.9962 21.0037 16.2946 21.0037 10.4981C21.0037 4.70163 16.302 0 10.4981 0C4.70163 0 0 4.70163 0 10.4981C0 16.2946 4.70163 20.9962 10.4981 20.9962ZM10.4981 17.9484C6.37829 17.9484 3.04785 14.6179 3.04785 10.4981C3.04785 6.37829 6.37829 3.04785 10.4981 3.04785C14.6179 3.04785 17.9558 6.37829 17.9558 10.4981C17.9558 14.6179 14.6179 17.9484 10.4981 17.9484Z"
                     fill="currentColor" fill-opacity="0.85" />
              <path d="M8.81842 14.8038C9.44834 14.8038 9.83478 14.4001 9.83478 13.7553L9.83478 13.3802L11.7831 13.3802C11.9463 13.3802 12.0583 13.2831 12.0583 13.1153C12.0583 12.9498 11.9463 12.8476 11.7831 12.8476L9.83478 12.8476L9.83478 11.6452L11.2471 11.6452C13.0136 11.6452 14.2605 10.5215 14.2605 8.94986C14.2605 7.29959 13.0663 6.24248 11.3785 6.24248L8.85803 6.24248C8.19542 6.24248 7.80437 6.66798 7.80437 7.3329L7.80437 11.0804L6.90296 11.0804C6.72027 11.0804 6.60824 11.1947 6.60824 11.3602C6.60824 11.5331 6.72027 11.6452 6.90296 11.6452L7.80437 11.6452L7.80437 12.8476L6.90296 12.8476C6.72773 12.8476 6.6157 12.9498 6.6157 13.1153C6.6157 13.2831 6.72773 13.3802 6.90296 13.3802L7.80437 13.3802L7.80437 13.7553C7.80437 14.4001 8.19827 14.8038 8.81842 14.8038ZM9.83478 10.1533L9.83478 7.80328L10.7498 7.80328C11.7113 7.80328 12.2082 8.2838 12.2082 8.97225C12.2082 9.7171 11.6428 10.1533 10.7424 10.1533Z"
                     fill="currentColor" fill-opacity="0.85" />
       </g>
</svg>