<?xml version="1.0" encoding="UTF-8"?>
<!--Generator: Apple Native CoreSVG 326-->
<!DOCTYPE svg PUBLIC "-//W3C//DTD SVG 1.1//EN" "http://www.w3.org/Graphics/SVG/1.1/DTD/svg11.dtd">
<svg version="1.1" xmlns="http://www.w3.org/2000/svg" xmlns:xlink="http://www.w3.org/1999/xlink"
       viewBox="0 0 19.3993 19.0529">
       <g>
              <rect height="19.0529" opacity="0" width="19.3993" x="0" y="0" />
              <path d="M3.64834 19.0379L15.3896 19.0379C17.7164 19.0379 19.0379 17.7262 19.0379 15.4011L19.0379 3.63912C19.0379 1.32151 17.7164 0 15.3896 0L3.64834 0C1.32382 0 0 1.32151 0 3.63912L0 15.4011C0 17.7262 1.32382 19.0379 3.64834 19.0379ZM4.05583 16.0183C3.37024 16.0183 3.01964 15.7096 3.01964 14.9775L3.01964 4.07021C3.01964 3.33809 3.37024 3.0271 4.05583 3.0271L14.9821 3.0271C15.6654 3.0271 16.0183 3.33809 16.0183 4.07021L16.0183 14.9775C16.0183 15.7096 15.6654 16.0183 14.9821 16.0183Z"
                     fill="currentColor" fill-opacity="0.85" />
              <path d="M7.84647 13.8272C8.46892 13.8272 8.86282 13.4235 8.86282 12.7787L8.86282 12.4036L10.8112 12.4036C10.9743 12.4036 11.0789 12.3065 11.0789 12.1387C11.0789 11.9733 10.9743 11.871 10.8112 11.871L8.86282 11.871L8.86282 10.6686L10.2751 10.6686C12.0439 10.6686 13.2885 9.5449 13.2885 7.9733C13.2885 6.32303 12.0944 5.26592 10.4014 5.26592L7.88608 5.26592C7.22577 5.26592 6.83242 5.69142 6.83242 6.35633L6.83242 10.1038L5.93101 10.1038C5.74831 10.1038 5.63628 10.2182 5.63628 10.3837C5.63628 10.5566 5.74831 10.6686 5.93101 10.6686L6.83242 10.6686L6.83242 11.871L5.93101 11.871C5.75577 11.871 5.64374 11.9733 5.64374 12.1387C5.64374 12.3065 5.75577 12.4036 5.93101 12.4036L6.83242 12.4036L6.83242 12.7787C6.83242 13.4235 7.22863 13.8272 7.84647 13.8272ZM8.86282 9.17672L8.86282 6.82672L9.77788 6.82672C10.7393 6.82672 11.2363 7.30724 11.2363 7.99568C11.2363 8.74054 10.6709 9.17672 9.77042 9.17672Z"
                     fill="currentColor" fill-opacity="0.85" />
       </g>
</svg>