<?xml version="1.0" encoding="UTF-8"?>
<!--Generator: Apple Native CoreSVG 326-->
<!DOCTYPE svg PUBLIC "-//W3C//DTD SVG 1.1//EN" "http://www.w3.org/Graphics/SVG/1.1/DTD/svg11.dtd">
<svg version="1.1" xmlns="http://www.w3.org/2000/svg" xmlns:xlink="http://www.w3.org/1999/xlink"
       viewBox="0 0 25.2371 20.7933">
       <g>
              <rect height="20.7933" opacity="0" width="25.2371" x="0" y="0" />
              <path d="M24.8758 12.4367C24.8758 9.44627 23.8182 6.68788 22.0375 4.53265C21.79 4.23112 21.3535 4.23112 21.0491 4.53034L18.6193 6.95264C18.3592 7.2128 18.3569 7.55853 18.5677 7.83822C19.5288 9.12728 20.1044 10.7185 20.1044 12.4367C20.1044 14.2244 19.4989 15.8753 18.4419 17.2029C18.2306 17.4808 18.2329 17.8225 18.4764 18.0683L20.92 20.5119C21.2117 20.8036 21.6459 20.8036 21.9256 20.4849C23.766 18.3147 24.8758 15.5116 24.8758 12.4367Z"
                     fill="currentColor" fill-opacity="0.85" />
              <path d="M12.4367 4.77139C14.1745 4.77139 15.7732 5.34932 17.0646 6.32534C17.3345 6.52635 17.6779 6.50682 17.9231 6.25413L20.3454 3.82437C20.6521 3.52515 20.6424 3.07605 20.311 2.81359C18.1655 1.05754 15.422 0 12.4367 0C9.45373 0 6.71026 1.05754 4.57225 2.81359C4.24089 3.07605 4.22366 3.52515 4.53034 3.82437L6.95264 6.25413C7.19787 6.50682 7.55853 6.52635 7.84052 6.31557C9.12213 5.34932 10.7185 4.77139 12.4367 4.77139Z"
                     fill="currentColor" fill-opacity="0.85" />
              <path d="M0 12.4367C0 15.519 1.12468 18.3446 2.98003 20.5147C3.23503 20.8186 3.66405 20.8036 3.96096 20.5119L6.39709 18.0683C6.64057 17.8225 6.65264 17.4808 6.43385 17.2029C5.38432 15.8753 4.77139 14.2244 4.77139 12.4367C4.77139 10.7185 5.34471 9.12728 6.30811 7.83822C6.51658 7.55853 6.51658 7.2128 6.25643 6.95264L3.82667 4.53034C3.52745 4.23112 3.07836 4.23859 2.80844 4.56995C1.05008 6.71026 0 9.45373 0 12.4367Z"
                     fill="currentColor" fill-opacity="0.85" />
              <path d="M10.757 16.6628C11.3795 16.6628 11.7734 16.2568 11.7734 15.6143L11.7734 15.2369L13.7217 15.2369C13.8872 15.2369 13.9895 15.1421 13.9895 14.9743C13.9895 14.8088 13.8872 14.7042 13.7217 14.7042L11.7734 14.7042L11.7734 13.5042L13.1857 13.5042C14.9545 13.5042 16.1991 12.3781 16.1991 10.8163C16.1991 9.15858 15.005 8.10147 13.312 8.10147L10.7967 8.10147C10.1364 8.10147 9.74531 8.52466 9.74531 9.18958L9.74531 12.9445L8.84159 12.9445C8.6589 12.9445 8.54917 13.0514 8.54917 13.2169C8.54917 13.3921 8.6589 13.5042 8.84159 13.5042L9.74531 13.5042L9.74531 14.7042L8.84159 14.7042C8.66636 14.7042 8.55663 14.8088 8.55663 14.9743C8.55663 15.1421 8.66636 15.2369 8.84159 15.2369L9.74531 15.2369L9.74531 15.6143C9.74531 16.2568 10.1317 16.6628 10.757 16.6628ZM11.7734 12.01L11.7734 9.65997L12.6885 9.65997C13.6499 9.65997 14.1469 10.1479 14.1469 10.8312C14.1469 11.5738 13.5814 12.01 12.681 12.01Z"
                     fill="currentColor" fill-opacity="0.85" />
       </g>
</svg>