<?xml version="1.0" encoding="UTF-8"?>
<!--Generator: Apple Native CoreSVG 326-->
<!DOCTYPE svg PUBLIC "-//W3C//DTD SVG 1.1//EN" "http://www.w3.org/Graphics/SVG/1.1/DTD/svg11.dtd">
<svg version="1.1" xmlns="http://www.w3.org/2000/svg" xmlns:xlink="http://www.w3.org/1999/xlink"
       viewBox="0 0 21.365 21.006">
       <g>
              <rect height="21.006" opacity="0" width="21.365" x="0" y="0" />
              <path d="M21.0037 10.4981C21.0037 16.2923 16.302 20.9962 10.4981 20.9962C4.70394 20.9962 0 16.2923 0 10.4981C0 4.70163 4.70394 0 10.4981 0C16.302 0 21.0037 4.70163 21.0037 10.4981ZM7.75209 7.73486C6.23642 9.24077 5.22661 11.9397 5.86544 14.1508C5.90912 14.3019 5.95048 14.4363 6.01423 14.5535L8.71276 11.8596L8.36635 11.523C8.23655 11.3955 8.22909 11.1921 8.35889 11.0767C8.49385 10.9417 8.69256 10.9417 8.82006 11.0692L9.93674 12.1813C10.0694 12.3163 10.0596 12.5196 9.93674 12.635C9.8167 12.7723 9.61568 12.7499 9.48072 12.6276L9.15901 12.3133L6.48517 14.9969C6.58743 15.0555 6.70692 15.0946 6.85286 15.1359C9.07372 15.7822 11.7727 14.7719 13.2711 13.2614C14.7943 11.7554 15.7994 9.0565 15.1606 6.83564C15.1193 6.67708 15.0802 6.55013 15.0067 6.45532L12.3151 9.15209L12.6442 9.47381C12.7815 9.60416 12.7717 9.80748 12.6442 9.92752C12.5265 10.0602 12.3255 10.0401 12.1882 9.92006L11.0762 8.81314C10.9487 8.68334 10.9412 8.49209 11.0687 8.3669C11.2037 8.22963 11.4024 8.22963 11.5299 8.35944L11.8567 8.69377L14.553 5.99185C14.4484 5.9258 14.3214 5.88673 14.168 5.84076C11.9472 5.20423 9.25053 6.21919 7.75209 7.73486ZM9.50311 10.3839L10.6272 11.4983C10.7547 11.6309 10.745 11.8365 10.6272 11.952C10.4997 12.0892 10.2987 12.0669 10.1712 11.9445L9.0494 10.8301C8.92936 10.7124 8.91444 10.5091 9.04194 10.3914C9.1769 10.2587 9.38537 10.2587 9.50311 10.3839ZM10.1735 9.71807L11.2879 10.8301C11.4252 10.9628 11.4131 11.1684 11.2879 11.2838C11.1702 11.4188 10.9669 11.3964 10.8319 11.2764L9.71983 10.1718C9.59233 10.0443 9.58487 9.84842 9.71237 9.72553C9.84502 9.58827 10.046 9.58827 10.1735 9.71807ZM10.8445 9.04018L11.9612 10.1546C12.0985 10.2872 12.0887 10.4928 11.9612 10.6083C11.8412 10.7432 11.6401 10.7208 11.5052 10.6008L10.3908 9.49389C10.2656 9.36639 10.2582 9.17283 10.3833 9.04764C10.5183 8.91268 10.7193 8.91268 10.8445 9.04018Z"
                     fill="currentColor" fill-opacity="0.85" />
       </g>
</svg>