<?xml version="1.0" encoding="UTF-8"?>
<!--Generator: Apple Native CoreSVG 326-->
<!DOCTYPE svg PUBLIC "-//W3C//DTD SVG 1.1//EN" "http://www.w3.org/Graphics/SVG/1.1/DTD/svg11.dtd">
<svg version="1.1" xmlns="http://www.w3.org/2000/svg" xmlns:xlink="http://www.w3.org/1999/xlink"
       viewBox="0 0 21.3265 20.9726">
       <g>
              <rect height="20.9726" opacity="0" width="21.3265" x="0" y="0" />
              <path d="M20.5085 2.58469C20.4183 2.26012 20.3034 1.98668 20.1914 1.75922L14.3854 7.55309L15.1138 8.27629C15.3791 8.55136 15.3791 8.9964 15.1138 9.2594C14.841 9.53448 14.4012 9.53448 14.1284 9.2594L11.7035 6.82703C11.4359 6.56172 11.4284 6.12184 11.7035 5.84677C11.9665 5.58376 12.4064 5.58376 12.6791 5.84677L13.4098 6.57974L19.206 0.773799C18.9762 0.661768 18.7051 0.554346 18.3707 0.45669C14.0683-0.813388 8.44867 0.574423 4.51039 4.51039C0.574423 8.44867-0.813388 14.0683 0.45669 18.3707C0.556651 18.6976 0.661768 18.9664 0.783565 19.1962L6.6211 13.3684L5.89044 12.6452C5.61767 12.3776 5.61998 11.94 5.89044 11.665C6.16321 11.3945 6.60539 11.3945 6.87816 11.665L9.30307 14.0922C9.57584 14.3575 9.57584 14.7997 9.30307 15.0724C9.03261 15.3377 8.59273 15.3377 8.31996 15.0724L7.59676 14.3441L1.76898 20.1742C1.99875 20.3011 2.26988 20.4011 2.58469 20.5062C6.88945 21.7763 12.5142 20.3885 16.4525 16.4525C20.3885 12.5142 21.7763 6.88945 20.5085 2.58469ZM10.2491 8.27914C9.98375 8.00637 9.98375 7.57395 10.2491 7.30864C10.5218 7.03817 10.9594 7.03356 11.2345 7.30864L13.6617 9.7307C13.9368 10.0035 13.9345 10.4336 13.6617 10.7064C13.3889 10.9791 12.9565 10.9791 12.6837 10.7064ZM8.77973 9.75132C8.51673 9.49578 8.52419 9.04098 8.77973 8.76821C9.0525 8.5052 9.49984 8.50059 9.77261 8.76821L12.2021 11.1903C12.4749 11.4556 12.4651 11.9006 12.2021 12.1734C11.9294 12.4387 11.4895 12.4387 11.2167 12.1734ZM7.34255 11.1908C7.07724 10.9255 7.07208 10.4856 7.34255 10.2129C7.60786 9.94985 8.05004 9.94754 8.32281 10.2129L10.75 12.6475C11.0228 12.9203 11.0205 13.3625 10.75 13.6203C10.4847 13.8908 10.0448 13.8931 9.77207 13.6203Z"
                     fill="currentColor" fill-opacity="0.85" />
       </g>
</svg>