<?xml version="1.0" encoding="UTF-8"?>
<!--Generator: Apple Native CoreSVG 326-->
<!DOCTYPE svg PUBLIC "-//W3C//DTD SVG 1.1//EN" "http://www.w3.org/Graphics/SVG/1.1/DTD/svg11.dtd">
<svg version="1.1" xmlns="http://www.w3.org/2000/svg" xmlns:xlink="http://www.w3.org/1999/xlink"
       viewBox="0 0 26.4191 12.1326">
       <g>
              <rect height="12.1326" opacity="0" width="26.4191" x="0" y="0" />
              <path d="M26.0578 3.09182C26.0578 1.16187 24.8661 0.00230491 22.9166 0.00230491L3.12913 0.00230491C1.17218 0.00230491 0 1.16187 0 3.09182L0 9.02817C0 10.9507 1.18941 12.1326 3.13889 12.1326L22.9338 12.1326C24.8758 12.1326 26.0578 10.9507 26.0578 9.02817ZM23.394 3.47948L23.394 8.64798C23.394 9.16131 23.1043 9.46362 22.6128 9.46362L3.44041 9.46362C2.96099 9.46362 2.66153 9.16131 2.66153 8.64798L2.66153 3.47948C2.66153 2.96614 2.96845 2.66383 3.45018 2.66383L22.6225 2.66383C23.1043 2.66383 23.394 2.96614 23.394 3.47948ZM4.55861 2.04981L3.46916 2.04981L3.46916 6.59944C3.46916 6.89866 3.71955 7.13182 4.02623 7.13182C4.34267 7.13182 4.55861 6.89635 4.55861 6.58221ZM6.35427 2.04981L5.26483 2.04981L5.26483 5.22388C5.26483 5.53287 5.52267 5.76372 5.82705 5.76372C6.14579 5.76372 6.35427 5.53056 6.35427 5.21412ZM8.15509 2.04981L7.06334 2.04981L7.06334 5.22388C7.06334 5.53287 7.32349 5.76372 7.6204 5.76372C7.93685 5.76372 8.15509 5.53056 8.15509 5.21412ZM9.94614 2.04981L8.8567 2.04981L8.8567 5.22388C8.8567 5.53287 9.11454 5.76372 9.42122 5.76372C9.73767 5.76372 9.94614 5.53056 9.94614 5.21412ZM11.7493 2.04981L10.6598 2.04981L10.6598 5.22388C10.6598 5.53287 10.9177 5.76372 11.2146 5.76372C11.5333 5.76372 11.7493 5.53056 11.7493 5.21412ZM13.5524 2.04981L12.4629 2.04981L12.4629 6.59944C12.4629 6.89866 12.7133 7.13182 13.0177 7.13182C13.3364 7.13182 13.5524 6.89635 13.5524 6.58221ZM15.3457 2.04981L14.2563 2.04981L14.2563 5.22388C14.2563 5.53287 14.5141 5.76372 14.8185 5.76372C15.135 5.76372 15.3457 5.53056 15.3457 5.21412ZM17.1466 2.04981L16.0571 2.04981L16.0571 5.22388C16.0571 5.53287 16.315 5.76372 16.6142 5.76372C16.9306 5.76372 17.1466 5.53056 17.1466 5.21412ZM18.9399 2.04981L17.8579 2.04981L17.8579 5.22388C17.8579 5.53287 18.1083 5.76372 18.4127 5.76372C18.7314 5.76372 18.9399 5.53056 18.9399 5.21412ZM20.743 2.04981L19.6536 2.04981L19.6536 5.22388C19.6536 5.53287 19.9114 5.76372 20.2084 5.76372C20.5248 5.76372 20.743 5.53056 20.743 5.21412ZM22.5439 2.04981L21.4544 2.04981L21.4544 6.59944C21.4544 6.89866 21.7048 7.13182 22.0115 7.13182C22.3279 7.13182 22.5439 6.89635 22.5439 6.58221Z"
                     fill="currentColor" fill-opacity="0.85" />
       </g>
</svg>