<?xml version="1.0" encoding="UTF-8"?>
<!--Generator: Apple Native CoreSVG 326-->
<!DOCTYPE svg PUBLIC "-//W3C//DTD SVG 1.1//EN" "http://www.w3.org/Graphics/SVG/1.1/DTD/svg11.dtd">
<svg version="1.1" xmlns="http://www.w3.org/2000/svg" xmlns:xlink="http://www.w3.org/1999/xlink"
       viewBox="0 0 25.2371 20.7933">
       <g>
              <rect height="20.7933" opacity="0" width="25.2371" x="0" y="0" />
              <path d="M24.8758 12.4367C24.8758 9.44627 23.8182 6.68788 22.0375 4.53265C21.79 4.23112 21.3535 4.23112 21.0491 4.53034L18.6193 6.95264C18.3592 7.2128 18.3569 7.55853 18.5677 7.83822C19.5288 9.12728 20.1044 10.7185 20.1044 12.4367C20.1044 14.2244 19.4989 15.8753 18.4419 17.2029C18.2306 17.4808 18.2329 17.8225 18.4764 18.0683L20.92 20.5119C21.2117 20.8036 21.6459 20.8036 21.9256 20.4849C23.766 18.3147 24.8758 15.5116 24.8758 12.4367Z"
                     fill="currentColor" fill-opacity="0.85" />
              <path d="M12.4367 4.77139C14.1745 4.77139 15.7732 5.34932 17.0646 6.32534C17.3345 6.52635 17.6779 6.50682 17.9231 6.25413L20.3454 3.82437C20.6521 3.52515 20.6424 3.07605 20.311 2.81359C18.1655 1.05754 15.422 0 12.4367 0C9.45373 0 6.71026 1.05754 4.57225 2.81359C4.24089 3.07605 4.22366 3.52515 4.53034 3.82437L6.95264 6.25413C7.19787 6.50682 7.55853 6.52635 7.84052 6.31557C9.12213 5.34932 10.7185 4.77139 12.4367 4.77139Z"
                     fill="currentColor" fill-opacity="0.85" />
              <path d="M0 12.4367C0 15.519 1.12468 18.3446 2.98003 20.5147C3.23503 20.8186 3.66405 20.8036 3.96096 20.5119L6.39709 18.0683C6.64057 17.8225 6.65264 17.4808 6.43385 17.2029C5.38432 15.8753 4.77139 14.2244 4.77139 12.4367C4.77139 10.7185 5.34471 9.12728 6.30811 7.83822C6.51658 7.55853 6.51658 7.2128 6.25643 6.95264L3.82667 4.53034C3.52745 4.23112 3.07836 4.23859 2.80844 4.56995C1.05008 6.71026 0 9.45373 0 12.4367Z"
                     fill="currentColor" fill-opacity="0.85" />
              <path d="M8.79458 15.8714C9.33266 15.8714 9.61235 15.5475 9.61235 15.0095L9.61235 13.3501L10.2017 13.3501L10.9404 15.1405C11.1373 15.6354 11.4003 15.8714 11.7857 15.8714C12.225 15.8714 12.6034 15.5918 12.6034 15.0681C12.6034 14.8567 12.515 14.6598 12.4116 14.4438L11.7758 13.0388C12.4039 12.6976 12.6999 11.9002 12.6999 11.1934C12.6999 9.77291 11.8435 8.99141 10.3245 8.99141L8.79228 8.99141C8.26627 8.99141 7.9619 9.31301 7.9619 9.84879L7.9619 15.0095C7.9619 15.5475 8.2565 15.8714 8.79458 15.8714ZM9.61235 12.2204L9.61235 10.24L10.1723 10.24C10.7155 10.24 11.0098 10.6548 11.0098 11.2279C11.0098 11.7487 10.7597 12.2204 10.1672 12.2204ZM15.4642 15.8812C16.6194 15.8812 17.6212 15.2964 17.6212 14.1268C17.6212 13.2564 17.0571 12.891 16.2114 12.7043L15.398 12.5267C15.1003 12.4543 14.8584 12.2969 14.8584 12.0146C14.8584 11.7088 15.0769 11.5111 15.3976 11.5111C15.77 11.5111 16.0619 11.7639 16.2521 12.014C16.41 12.1828 16.631 12.2357 16.7821 12.2357C17.1744 12.2357 17.3886 12.0576 17.3886 11.7234C17.3886 11.6476 17.3616 11.5626 17.3323 11.4672C17.0899 10.7463 16.2186 10.4319 15.412 10.4319C14.2263 10.4319 13.3187 10.9887 13.3187 12.1031C13.3187 12.9516 13.8571 13.4301 14.6889 13.6174L15.4971 13.8024C15.7966 13.8771 16.0368 13.9996 16.0368 14.3088C16.0368 14.6422 15.7506 14.8072 15.4683 14.8072C15.0648 14.8072 14.8051 14.6595 14.5373 14.3244C14.3157 14.0946 14.0877 13.9993 13.862 13.9993C13.526 13.9993 13.2658 14.2422 13.2658 14.5857C13.2658 14.6862 13.3101 14.8337 13.3692 14.9589C13.6828 15.6346 14.6278 15.8812 15.4642 15.8812Z"
                     fill="currentColor" fill-opacity="0.85" />
       </g>
</svg>