<?xml version="1.0" encoding="UTF-8"?>
<!--Generator: Apple Native CoreSVG 326-->
<!DOCTYPE svg PUBLIC "-//W3C//DTD SVG 1.1//EN" "http://www.w3.org/Graphics/SVG/1.1/DTD/svg11.dtd">
<svg version="1.1" xmlns="http://www.w3.org/2000/svg" xmlns:xlink="http://www.w3.org/1999/xlink"
       viewBox="0 0 19.3993 19.0529">
       <g>
              <rect height="19.0529" opacity="0" width="19.3993" x="0" y="0" />
              <path d="M3.64834 19.0379L15.3896 19.0379C17.7164 19.0379 19.0379 17.7262 19.0379 15.4011L19.0379 3.63912C19.0379 1.32151 17.7164 0 15.3896 0L3.64834 0C1.32382 0 0 1.32151 0 3.63912L0 15.4011C0 17.7262 1.32382 19.0379 3.64834 19.0379ZM4.05583 16.0183C3.37024 16.0183 3.01964 15.7096 3.01964 14.9775L3.01964 4.07021C3.01964 3.33809 3.37024 3.0271 4.05583 3.0271L14.9821 3.0271C15.6654 3.0271 16.0183 3.33809 16.0183 4.07021L16.0183 14.9775C16.0183 15.7096 15.6654 16.0183 14.9821 16.0183Z"
                     fill="currentColor" fill-opacity="0.85" />
              <path d="M5.884 13.0359C6.42208 13.0359 6.70177 12.7068 6.70177 12.1762L6.70177 10.5145L7.29116 10.5145L8.02746 12.3072C8.22672 12.7947 8.48742 13.0359 8.87507 13.0359C9.31441 13.0359 9.69284 12.7488 9.69284 12.2348C9.69284 12.016 9.6044 11.8242 9.49874 11.6008L8.86525 10.2056C9.49104 9.86431 9.78698 9.06693 9.78698 8.35786C9.78698 6.93736 8.93057 6.15817 7.41393 6.15817L5.8817 6.15817C5.35569 6.15817 5.05132 6.47977 5.05132 7.01554L5.05132 12.1762C5.05132 12.7068 5.34592 13.0359 5.884 13.0359ZM6.70177 9.37967L6.70177 7.39925L7.26174 7.39925C7.80492 7.39925 8.09922 7.8216 8.09922 8.39231C8.09922 8.91541 7.84914 9.37967 7.25659 9.37967ZM12.5536 13.0457C13.7163 13.0457 14.7106 12.4631 14.7106 11.2936C14.7106 10.4209 14.1465 10.0578 13.2985 9.87105L12.4874 9.69351C12.1949 9.62108 11.9478 9.45385 11.9478 9.18139C11.9478 8.87556 12.1663 8.67036 12.4945 8.67036C12.8594 8.67036 13.1513 8.93064 13.3415 9.18072C13.4994 9.33982 13.7205 9.40017 13.8716 9.40017C14.2638 9.40017 14.478 9.22209 14.478 8.88272C14.478 8.81436 14.451 8.72186 14.4217 8.62651C14.1793 7.91076 13.308 7.59123 12.5014 7.59123C11.3157 7.59123 10.4082 8.15545 10.4082 9.26752C10.4082 10.116 10.9465 10.5969 11.7783 10.7842L12.5843 10.9669C12.886 11.0416 13.1239 11.1589 13.1239 11.4756C13.1239 11.8089 12.8377 11.974 12.5577 11.974C12.1519 11.974 11.8945 11.8263 11.6267 11.4912C11.4051 11.2614 11.1771 11.1661 10.9514 11.1661C10.6154 11.1661 10.3553 11.409 10.3553 11.7524C10.3553 11.8506 10.3995 11.9982 10.4563 12.1257C10.7722 12.7991 11.7172 13.0457 12.5536 13.0457Z"
                     fill="currentColor" fill-opacity="0.85" />
       </g>
</svg>