<?xml version="1.0" encoding="UTF-8"?>
<!--Generator: Apple Native CoreSVG 326-->
<!DOCTYPE svg PUBLIC "-//W3C//DTD SVG 1.1//EN" "http://www.w3.org/Graphics/SVG/1.1/DTD/svg11.dtd">
<svg version="1.1" xmlns="http://www.w3.org/2000/svg" xmlns:xlink="http://www.w3.org/1999/xlink"
       viewBox="0 0 26.7832 18.2737">
       <g>
              <rect height="18.2737" opacity="0" width="26.7832" x="0" y="0" />
              <path d="M2.1875 18.2271C3.57635 18.2271 4.32563 17.3693 4.32563 15.9828L4.32563 11.5386L5.90681 11.5386C5.97177 11.5386 6.0465 11.5386 6.10916 11.5386L8.28228 16.3166C8.79555 17.4694 9.3175 18.2271 10.5346 18.2271C11.6652 18.2271 12.7152 17.4663 12.6854 16.1671C12.6555 15.5919 12.4287 15.012 12.187 14.5383L10.2913 10.7577C12.0523 9.82616 12.927 7.8771 12.927 5.83639C12.927 1.94864 10.4417 0 6.4475 0L2.1875 0C0.766512 0 0 0.820495 0 2.23918L0 15.9828C0 17.456 0.845729 18.2271 2.1875 18.2271ZM4.32563 8.5636L4.32563 3.25796L6.05129 3.25796C7.58983 3.25796 8.52442 4.38113 8.52442 5.91736C8.52442 7.49551 7.64503 8.5636 6.05251 8.5636ZM20.5981 18.2524C23.7535 18.2524 26.4219 16.7188 26.4219 13.6224C26.4219 11.2719 24.851 10.3248 22.5901 9.84041L20.3972 9.36936C19.5778 9.18369 18.8554 8.85032 18.8554 8.02449C18.8554 7.13018 19.5986 6.64505 20.4402 6.64505C21.4275 6.64505 22.0247 7.11229 22.7466 7.97269C23.2087 8.41894 23.7937 8.62226 24.259 8.62226C25.1954 8.62226 25.7925 8.09801 25.7925 7.26544C25.7925 6.74253 25.4694 6.14555 25.0223 5.71501C24.0377 4.36335 22.2098 3.8263 20.4586 3.8263C17.363 3.8263 14.8364 5.22443 14.8364 8.24898C14.8364 10.5041 16.3367 11.7733 18.5568 12.2582L20.7468 12.7344C21.5813 12.9299 22.2835 13.2213 22.2835 14.0823C22.2835 14.9755 21.5718 15.4308 20.519 15.4308C19.4477 15.4308 18.6426 14.9941 18.0119 14.1266C17.4062 13.4972 16.8395 13.2721 16.2291 13.2721C15.2806 13.2721 14.6725 13.9209 14.6725 14.8017C14.6725 15.1846 14.8212 15.5997 15.0938 15.9723C16.1544 17.689 18.4255 18.2524 20.5981 18.2524Z"
                     fill="currentColor" fill-opacity="0.85" />
       </g>
</svg>