<?xml version="1.0" encoding="UTF-8"?>
<!--Generator: Apple Native CoreSVG 326-->
<!DOCTYPE svg PUBLIC "-//W3C//DTD SVG 1.1//EN" "http://www.w3.org/Graphics/SVG/1.1/DTD/svg11.dtd">
<svg version="1.1" xmlns="http://www.w3.org/2000/svg" xmlns:xlink="http://www.w3.org/1999/xlink"
       viewBox="0 0 21.365 21.006">
       <g>
              <rect height="21.006" opacity="0" width="21.365" x="0" y="0" />
              <path d="M10.4981 20.9962C16.302 20.9962 21.0037 16.2946 21.0037 10.4981C21.0037 4.70163 16.302 0 10.4981 0C4.70163 0 0 4.70163 0 10.4981C0 16.2946 4.70163 20.9962 10.4981 20.9962ZM10.4981 17.9484C6.37829 17.9484 3.04785 14.6179 3.04785 10.4981C3.04785 6.37829 6.37829 3.04785 10.4981 3.04785C14.6179 3.04785 17.9558 6.37829 17.9558 10.4981C17.9558 14.6179 14.6179 17.9484 10.4981 17.9484Z"
                     fill="currentColor" fill-opacity="0.85" />
              <path d="M10.3161 14.9961C12.7498 14.9961 14.3047 13.8496 14.3047 12.0431C14.3047 10.6272 13.412 9.80238 11.7305 9.52246L10.6607 9.33503C9.71571 9.18042 9.41461 8.99815 9.41461 8.61134C9.41461 8.18645 9.79001 7.92999 10.4074 7.92999C10.961 7.92999 11.3174 8.10426 11.7366 8.54177C12.1517 8.87896 12.4016 9.00251 12.8547 9.00251C13.464 9.00251 13.8689 8.66599 13.8689 8.10486C13.8689 7.866 13.8097 7.63284 13.6742 7.41229C13.1935 6.56365 11.9247 5.97353 10.4212 5.97353C8.18281 5.97353 6.70425 7.12412 6.70425 8.84845C6.70425 10.2207 7.62441 11.073 9.30221 11.3586L10.2855 11.5501C11.3655 11.7381 11.6391 11.8893 11.6391 12.2969C11.6391 12.7482 11.1671 12.9954 10.4809 12.9954C9.84345 12.9954 9.41407 12.8114 8.86337 12.336C8.53091 12.0717 8.24377 11.9505 7.86236 11.9505C7.22377 11.9505 6.77874 12.3582 6.77874 12.952C6.77874 13.1806 6.83788 13.404 6.96077 13.6021C7.40932 14.4128 8.63573 14.9961 10.3161 14.9961Z"
                     fill="currentColor" fill-opacity="0.85" />
       </g>
</svg>