<?xml version="1.0" encoding="UTF-8"?>
<!--Generator: Apple Native CoreSVG 326-->
<!DOCTYPE svg PUBLIC "-//W3C//DTD SVG 1.1//EN" "http://www.w3.org/Graphics/SVG/1.1/DTD/svg11.dtd">
<svg version="1.1" xmlns="http://www.w3.org/2000/svg" xmlns:xlink="http://www.w3.org/1999/xlink"
       viewBox="0 0 21.365 21.006">
       <g>
              <rect height="21.006" opacity="0" width="21.365" x="0" y="0" />
              <path d="M21.0037 10.5079C21.0037 16.3043 16.302 21.006 10.4981 21.006C4.70394 21.006 0 16.3043 0 10.5079C0 4.7137 4.70394 0.00976562 10.4981 0.00976562C16.302 0.00976562 21.0037 4.7137 21.0037 10.5079ZM10.184 5.10506L10.0283 6.82581L6.37295 11.9357C6.03983 12.4009 6.22131 12.889 6.78244 12.9356C7.65795 13.0355 8.56397 13.0602 9.45385 12.9821L9.39065 13.7445C8.45885 13.7715 7.55459 13.7789 6.74908 13.7789C6.2494 13.7789 5.98463 14.1339 6.15865 14.5997L6.50737 15.5407C6.6883 16.0174 7.08396 16.2529 7.67954 16.2529L12.1678 16.2529C12.7725 16.2529 13.0787 16.1403 13.5036 15.782C13.9724 15.3994 14.6233 14.3843 14.6233 13.9466C14.6233 13.6353 14.3901 13.4055 13.9272 13.4544C12.9401 13.5682 11.7009 13.6537 10.4371 13.7026L10.4928 12.9626C11.6831 13.0574 12.8608 13.0137 13.6318 12.9017C14.3136 12.7965 14.6583 12.4979 14.8955 11.8746C15.127 11.2921 15.2224 10.616 15.2224 9.88124C15.2224 8.01479 14.2086 5.75784 11.8083 4.50311C11.5441 4.36869 11.2994 4.29748 11.0645 4.29748C10.5895 4.29748 10.2282 4.60361 10.184 5.10506ZM11.2695 5.8111C11.5315 6.56329 11.6648 7.47756 11.6648 8.36932C11.6648 9.69933 11.3051 11.0154 10.5038 11.8678L11.0174 5.85817C11.0249 5.70774 11.2103 5.67789 11.2695 5.8111Z"
                     fill="currentColor" fill-opacity="0.85" />
       </g>
</svg>