<?xml version="1.0" encoding="UTF-8"?>
<!--Generator: Apple Native CoreSVG 326-->
<!DOCTYPE svg PUBLIC "-//W3C//DTD SVG 1.1//EN" "http://www.w3.org/Graphics/SVG/1.1/DTD/svg11.dtd">
<svg version="1.1" xmlns="http://www.w3.org/2000/svg" xmlns:xlink="http://www.w3.org/1999/xlink"
       viewBox="0 0 23.3482 28.2461">
       <g>
              <rect height="28.2461" opacity="0" width="23.3482" x="0" y="0" />
              <path d="M9.19437 22.2896L11.4897 22.2896L13.1016 3.53971C13.1137 3.43744 13.2602 3.41045 13.2993 3.51787C13.8952 5.16984 14.2561 7.16427 14.2561 9.17186C14.2561 12.2826 13.4094 15.4691 11.2712 17.474L10.9743 19.7058C13.9332 20.0211 16.9443 19.9458 18.8651 19.6477C20.455 19.403 21.2529 18.7322 21.7888 17.3232C22.3063 15.9709 22.5384 14.3999 22.5384 12.7685C22.5384 8.48487 20.2106 3.32098 14.7468 0.472693C14.1615 0.156796 13.5538 0 13.0519 0C11.9784 0 11.1818 0.674253 11.0813 1.84018ZM15.5357 3.23825C18.7209 5.12908 20.3056 9.28705 20.3056 12.7219C20.3056 14.1788 20.096 15.5161 19.7231 16.5812C19.5209 17.1339 19.3059 17.3202 18.744 17.415C17.5312 17.6246 15.8092 17.7269 13.9954 17.6792C15.7311 15.2848 16.4693 12.208 16.4693 9.16616C16.4693 7.09045 16.1217 5.03997 15.5357 3.23825ZM3.24389 19.7431C5.6042 19.9947 8.05767 19.9895 10.418 19.7155L10.627 17.4948C8.72028 17.7614 6.81289 17.7964 4.93383 17.6016C4.87754 17.5895 4.86547 17.543 4.88961 17.5016L11.421 8.40341L11.7661 4.24525L2.30893 17.4326C1.53933 18.5037 1.98097 19.6081 3.24389 19.7431ZM2.72546 25.7359L4.5338 24.9566L3.9327 23.2614C3.90055 23.173 3.95223 23.092 4.04813 23.0995C8.67455 23.2338 13.7089 23.2338 18.3439 22.6425C18.4743 22.6156 18.5329 22.7114 18.4513 22.832C18.171 23.3177 17.6571 23.9174 16.8516 24.3174L18.7533 25.4493C20.0327 24.3712 21.1507 22.7074 21.1507 21.7343C21.1507 21.0737 20.6183 20.4156 19.5369 20.5626C14.4249 21.283 8.58556 21.283 3.21447 21.283C2.07444 21.283 1.44386 22.2007 1.81889 23.2402ZM11.0023 28.2341C14.0316 28.2341 14.3792 26.192 15.7678 26.192C17.1708 26.192 17.3948 28.2341 20.755 28.2341L21.8257 28.2341C22.4677 28.2341 22.9868 27.7224 22.9868 27.0804C22.9868 26.4459 22.4677 25.932 21.8257 25.932L20.755 25.932C19.9988 25.932 19.4651 25.644 18.6058 25.0272C17.9487 24.5458 17.1204 23.8899 15.7678 23.8899C14.4955 23.8899 13.5754 24.555 12.9182 25.0387C12.222 25.5637 11.7446 25.932 11.0023 25.932C10.2502 25.932 9.78255 25.5637 9.07888 25.0387C8.42919 24.555 7.50158 23.8899 6.22932 23.8899C4.97374 23.8899 4.04843 24.5458 3.39874 25.0272C2.53203 25.644 1.99601 25.932 1.24206 25.932L1.15592 25.932C0.511634 25.932 0 26.4459 0 27.0804C0 27.7224 0.511634 28.2341 1.15592 28.2341L1.24206 28.2341C4.59998 28.2341 4.8338 26.192 6.22932 26.192C7.62538 26.192 7.97069 28.2341 11.0023 28.2341Z"
                     fill="currentColor" fill-opacity="0.85" />
       </g>
</svg>