<?xml version="1.0" encoding="UTF-8"?>
<!--Generator: Apple Native CoreSVG 326-->
<!DOCTYPE svg PUBLIC "-//W3C//DTD SVG 1.1//EN" "http://www.w3.org/Graphics/SVG/1.1/DTD/svg11.dtd">
<svg version="1.1" xmlns="http://www.w3.org/2000/svg" xmlns:xlink="http://www.w3.org/1999/xlink"
       viewBox="0 0 21.365 21.006">
       <g>
              <rect height="21.006" opacity="0" width="21.365" x="0" y="0" />
              <path d="M10.4981 20.9962C16.302 20.9962 21.0037 16.2946 21.0037 10.4981C21.0037 4.70163 16.302 0 10.4981 0C4.70163 0 0 4.70163 0 10.4981C0 16.2946 4.70163 20.9962 10.4981 20.9962ZM10.4981 17.9484C6.37829 17.9484 3.04785 14.6179 3.04785 10.4981C3.04785 6.37829 6.37829 3.04785 10.4981 3.04785C14.6179 3.04785 17.9558 6.37829 17.9558 10.4981C17.9558 14.6179 14.6179 17.9484 10.4981 17.9484Z"
                     fill="currentColor" fill-opacity="0.85" />
              <path d="M9.43026 13.8238L10.4078 13.8238L11.0725 6.08957C11.08 6.01605 11.1833 6.00859 11.2029 6.08211C11.4402 6.77516 11.581 7.65783 11.581 8.48299C11.581 9.79007 11.2293 11.004 10.3097 11.8593L10.1845 12.7558C11.3995 12.8851 12.649 12.8512 13.4371 12.7392C14.0845 12.6341 14.4045 12.3578 14.6245 11.7787C14.8388 11.2232 14.9267 10.589 14.9267 9.90362C14.9267 8.15315 13.9847 6.03916 11.7297 4.85564C11.4827 4.72869 11.2552 4.66494 11.0398 4.66494C10.5947 4.66494 10.2506 4.94638 10.2064 5.42083ZM7.01669 12.7656C7.97779 12.8805 8.99639 12.8805 9.95518 12.7582L10.5124 6.41171L6.63189 11.8375C6.316 12.2705 6.49002 12.7168 7.01669 12.7656ZM7.85696 15.8785L12.072 15.8785C12.6422 15.8785 12.9259 15.7734 13.3262 15.4323C13.7605 15.0767 14.3695 14.1207 14.3695 13.7175C14.3695 13.4286 14.1587 13.2086 13.7228 13.2574C11.8657 13.4752 9.06202 13.5648 6.98333 13.5648C6.52556 13.5648 6.26826 13.895 6.43482 14.3287L6.75885 15.2008C6.93002 15.6528 7.30329 15.8785 7.85696 15.8785Z"
                     fill="currentColor" fill-opacity="0.85" />
       </g>
</svg>