<?xml version="1.0" encoding="UTF-8"?>
<!--Generator: Apple Native CoreSVG 326-->
<!DOCTYPE svg PUBLIC "-//W3C//DTD SVG 1.1//EN" "http://www.w3.org/Graphics/SVG/1.1/DTD/svg11.dtd">
<svg version="1.1" xmlns="http://www.w3.org/2000/svg" xmlns:xlink="http://www.w3.org/1999/xlink"
       viewBox="0 0 24.2431 19.978">
       <g>
              <rect height="19.978" opacity="0" width="24.2431" x="0" y="0" />
              <path d="M0 16.3412C0 18.6588 1.32382 19.978 3.64834 19.978L20.2335 19.978C22.5557 19.978 23.8818 18.6565 23.8818 16.3412L23.8818 12.474C23.8818 11.6281 23.5597 10.7413 22.9899 10.125L19.4006 6.30132C18.303 5.13253 17.4777 4.63273 16.1668 4.63273L7.5817 4.63273C6.3869 4.63273 5.57132 5.14746 4.48121 6.30132L0.891948 10.125C0.322145 10.7413 0 11.6281 0 12.474ZM2.91519 15.9101L2.91519 14.2893L20.9666 14.2893L20.9666 15.9101C20.9666 16.6422 20.6114 16.9509 19.9281 16.9509L3.95138 16.9509C3.26579 16.9509 2.91519 16.6422 2.91519 15.9101ZM3.10286 11.51L6.4492 7.73341C6.93978 7.18653 7.1892 7.00317 7.55878 7.00317L16.3207 7.00317C16.6903 7.00317 16.942 7.18423 17.4326 7.73341L20.7789 11.51C20.8934 11.6411 20.8439 11.7919 20.6093 11.7919L3.27252 11.7919C3.04536 11.7919 2.98841 11.6411 3.10286 11.51ZM1.49469 2.32677L4.62824 5.46724C5.63398 6.47758 6.19511 6.76309 7.38815 6.76309L16.4729 6.76309C17.6919 6.76309 18.2478 6.47758 19.2536 5.46724L22.3871 2.32677C23.206 1.50791 22.6709 0.0051558 21.4511 0.0051558L2.43073 0.0051558C1.21094 0.0051558 0.68329 1.50791 1.49469 2.32677ZM4.80906 2.50297L19.0727 2.50297L17.1219 4.42632C16.9603 4.57523 16.8212 4.63273 16.5264 4.63273L7.35546 4.63273C7.0583 4.63273 6.92146 4.57523 6.7674 4.42632ZM6.42669 10.8035C6.54212 11.0975 6.85056 11.2348 7.14692 11.117L11.0199 9.70024C11.326 9.59743 11.488 9.29591 11.3702 9.0047C11.2599 8.70087 10.9636 8.56361 10.65 8.67618L6.77704 10.093C6.47091 10.2107 6.31642 10.4973 6.42669 10.8035ZM6.46127 9.12079C6.579 9.41946 6.87021 9.5395 7.17404 9.43669L9.8221 8.48524C10.1259 8.37497 10.285 8.06368 10.1724 7.77477C10.0696 7.46864 9.7635 7.34345 9.46198 7.45372L6.80416 8.41263C6.49802 8.52291 6.35099 8.81927 6.46127 9.12079ZM15.5648 15.6201C15.5722 15.975 15.8537 16.2398 16.2138 16.2398L18.9429 16.2398C19.3053 16.2398 19.5971 15.975 19.5821 15.6201C19.5747 15.2651 19.3128 14.9981 18.9429 14.9981L16.2138 14.9981C15.8416 14.9981 15.5573 15.2651 15.5648 15.6201Z"
                     fill="currentColor" fill-opacity="0.85" />
       </g>
</svg>