<?xml version="1.0" encoding="UTF-8"?>
<!--Generator: Apple Native CoreSVG 326-->
<!DOCTYPE svg PUBLIC "-//W3C//DTD SVG 1.1//EN" "http://www.w3.org/Graphics/SVG/1.1/DTD/svg11.dtd">
<svg version="1.1" xmlns="http://www.w3.org/2000/svg" xmlns:xlink="http://www.w3.org/1999/xlink"
       viewBox="0 0 21.365 21.006">
       <g>
              <rect height="21.006" opacity="0" width="21.365" x="0" y="0" />
              <path d="M21.0037 10.5079C21.0037 16.3043 16.302 21.006 10.4981 21.006C4.70394 21.006 0 16.3043 0 10.5079C0 4.7137 4.70394 0.00976562 10.4981 0.00976562C16.302 0.00976562 21.0037 4.7137 21.0037 10.5079ZM14.2479 7.74542L10.4288 9.11612C9.85722 9.33096 9.60101 9.63655 9.43214 10.1765L9.33679 10.5108C9.25581 10.7624 9.16847 10.8773 8.73769 11.0876L8.4506 11.2492C8.3208 11.3055 8.26221 11.325 8.16455 11.325C7.77392 11.325 7.66705 10.9935 6.78814 10.9935C5.73115 10.9935 4.88154 11.8506 4.88154 12.9202C4.88154 13.9772 5.73115 14.8291 6.78814 14.8291C7.86291 14.8291 8.71482 13.987 8.71482 12.9202C8.71482 12.5497 8.75673 12.3957 9.0847 12.2194L16.4486 8.32432C16.278 7.53682 15.4491 7.30596 14.2479 7.74542ZM7.58061 12.9128C7.58061 13.3536 7.22432 13.7173 6.78814 13.7173C6.35712 13.7173 6.00083 13.3536 6.00083 12.9128C6.00083 12.4743 6.35712 12.118 6.78814 12.118C7.22432 12.118 7.58061 12.4743 7.58061 12.9128ZM10.6198 11.927L14.2479 13.2433C15.4491 13.6679 16.278 13.4445 16.4486 12.6667L12.8364 10.7561ZM10.8671 10.1771C10.8671 10.3695 10.7063 10.5281 10.5236 10.5281C10.3334 10.5281 10.1628 10.3695 10.1628 10.1771C10.1628 9.98459 10.3334 9.83581 10.5236 9.83581C10.7063 9.83581 10.8671 9.98459 10.8671 10.1771ZM4.88154 8.06853C4.88154 9.12552 5.73115 9.98029 6.78814 9.98029C7.66705 9.98029 7.77392 9.65111 8.16455 9.65111C8.26221 9.65111 8.3208 9.68326 8.4506 9.74185L8.73769 9.88627C8.83724 9.93658 8.91845 9.981 8.98482 10.0226C9.11413 9.61275 9.30293 9.29523 9.60879 9.04887L9.0847 8.77166C8.75673 8.59302 8.71482 8.43908 8.71482 8.06853C8.71482 6.99431 7.86291 6.1447 6.78814 6.1447C5.73115 6.1447 4.88154 6.99662 4.88154 8.06853ZM7.58061 8.07599C7.58061 8.51447 7.22432 8.87077 6.78814 8.87077C6.35712 8.87077 6.00083 8.51447 6.00083 8.07599C6.00083 7.6352 6.35712 7.27145 6.78814 7.27145C7.22432 7.27145 7.58061 7.6352 7.58061 8.07599Z"
                     fill="currentColor" fill-opacity="0.85" />
       </g>
</svg>