<?xml version="1.0" encoding="UTF-8"?>
<!--Generator: Apple Native CoreSVG 326-->
<!DOCTYPE svg PUBLIC "-//W3C//DTD SVG 1.1//EN" "http://www.w3.org/Graphics/SVG/1.1/DTD/svg11.dtd">
<svg version="1.1" xmlns="http://www.w3.org/2000/svg" xmlns:xlink="http://www.w3.org/1999/xlink"
       viewBox="0 0 21.8928 21.5128">
       <g>
              <rect height="21.5128" opacity="0" width="21.8928" x="0" y="0" />
              <path d="M0.853881 13.6362C1.77203 14.4648 3.34206 14.6291 4.58817 13.5059C5.15027 13.0029 6.05526 12.0365 6.90621 11.1855C11.419 6.62679 13.5312 4.17192 13.5106 4.19491C13.51 4.21547 12.065 6.2913 10.305 8.72106C7.42281 12.7097 4.53145 16.1261 6.7955 18.3902C8.4744 20.0691 10.7923 18.9847 15.0097 15.279C16.9726 13.5505 18.022 12.639 18.0264 12.6457C17.9458 12.5553 17.3433 13.4675 16.9168 14.2073C15.9844 15.8209 14.5118 17.9472 16.0177 19.4455C17.1272 20.5453 19.0736 20.0715 21.0358 18.0887C21.6066 17.5104 21.722 16.7738 21.2047 16.2639C20.7269 15.7959 20.0322 15.8648 19.5074 16.3029C18.7244 16.9969 17.7761 17.7675 17.8499 17.8315C17.9294 17.9059 18.5646 16.7682 19.1802 15.6468C20.3728 13.4323 21.4048 11.6204 19.9747 10.2346C18.1088 8.43003 15.9642 10.2725 12.8541 13.0241C11.1979 14.4854 9.39104 15.726 9.53473 15.79C9.67831 15.8417 11.3428 13.1602 12.9402 10.9331C16.188 6.41007 18.2959 3.09036 16.238 1.06123C13.8731-1.26001 10.2719 0.0926149 3.85612 6.4504C2.64245 7.6543 1.58649 8.68842 0.867164 9.58395C-0.459264 11.2347-0.101574 12.7703 0.853881 13.6362Z"
                     fill="currentColor" fill-opacity="0.85" />
       </g>
</svg>