<?xml version="1.0" encoding="UTF-8"?>
<!--Generator: Apple Native CoreSVG 326-->
<!DOCTYPE svg PUBLIC "-//W3C//DTD SVG 1.1//EN" "http://www.w3.org/Graphics/SVG/1.1/DTD/svg11.dtd">
<svg version="1.1" xmlns="http://www.w3.org/2000/svg" xmlns:xlink="http://www.w3.org/1999/xlink"
       viewBox="0 0 21.4711 20.1982">
       <g>
              <rect height="20.1982" opacity="0" width="21.4711" x="0" y="0" />
              <path d="M0.394189 12.8778C0.935667 13.4342 1.7803 13.4245 2.32694 12.8778L4.04569 11.1591C10.9072 4.2901 13.1814 2.29591 13.7633 2.86808C14.2525 3.34235 12.7888 4.9171 10.0036 8.19119C7.32724 11.346 4.01936 15.0284 6.41212 17.4384C8.60836 19.6444 11.9437 16.7883 14.4271 14.4203C16.8675 12.0982 17.5255 11.5935 17.5283 11.5865C17.5648 11.6156 17.0816 11.955 16.3319 13.2567C15.4019 14.8554 14.0986 17.1607 15.6044 18.6666C16.7571 19.8192 18.5376 19.2666 20.6226 17.1701C21.2324 16.57 21.272 15.7254 20.7081 15.169C20.1741 14.6373 19.3542 14.6321 18.7978 15.1489C18.1055 15.7958 17.3657 16.56 17.3999 16.6017C17.4697 16.7013 18.1363 15.6752 18.6665 14.792C20.231 12.1862 20.5379 10.7479 19.4828 9.70772C18.1628 8.39287 16.0382 9.12796 12.5144 12.4456C10.1459 14.6728 8.65882 15.7949 8.34487 15.4833C8.0061 15.1491 9.1784 13.2858 12.0621 9.96144C16.3929 4.95513 17.4945 2.73373 15.6863 0.935334C13.4101-1.33114 11.1703 0.183865 2.12271 9.23381L0.40165 10.9526C-0.137522 11.4917-0.127756 12.3289 0.394189 12.8778Z"
                     fill="currentColor" fill-opacity="0.85" />
       </g>
</svg>