<?xml version="1.0" encoding="UTF-8"?>
<!--Generator: Apple Native CoreSVG 326-->
<!DOCTYPE svg PUBLIC "-//W3C//DTD SVG 1.1//EN" "http://www.w3.org/Graphics/SVG/1.1/DTD/svg11.dtd">
<svg version="1.1" xmlns="http://www.w3.org/2000/svg" xmlns:xlink="http://www.w3.org/1999/xlink"
       viewBox="0 0 22.8104 21.7471">
       <g>
              <rect height="21.7471" opacity="0" width="22.8104" x="0" y="0" />
              <path d="M0 5.28381C0 6.17564 0.636829 6.8027 1.54819 6.8027L3.22927 6.8027L3.22927 18.1286C3.22927 20.5076 4.46641 21.7471 6.83054 21.7471L18.8208 21.7471C20.9821 21.7471 22.4491 20.2239 22.4491 18.0016L22.4491 14.9127C22.4491 14.0134 21.8122 13.3938 20.9009 13.3938L20.1425 13.3938L20.1425 3.66096C20.1425 1.32897 18.821 0.0051558 16.5034 0.0051558L3.12561 0.0051558C1.2739 0.0051558 0 1.31636 0 3.24565ZM6.24891 17.7952L6.24891 3.73805C6.24891 3.49434 6.23969 3.25754 6.22125 3.0248L16.0723 3.0248C16.8119 3.0248 17.1229 3.37539 17.1229 4.06845L17.1229 13.3938L9.6519 13.3938C8.74054 13.3938 8.1014 14.0134 8.1014 14.9127L8.1014 17.7952C8.1014 18.3481 7.72491 18.7274 7.18119 18.7274C6.63286 18.7274 6.24891 18.3412 6.24891 17.7952ZM2.66899 4.13371L2.66899 3.24565C2.66899 2.86794 2.85763 2.68161 3.12561 2.68161C3.3982 2.68161 3.57992 2.86794 3.57992 3.24565L3.57992 4.13371ZM10.964 18.7274C11.0664 18.4022 11.121 18.0465 11.121 17.6579L11.121 16.4134L19.4294 16.4134L19.4294 17.651C19.4294 18.3268 19.0627 18.7274 18.4776 18.7274ZM8.64361 9.96701L11.9331 9.96701C12.322 9.96701 12.6132 9.6758 12.6132 9.30646C12.6132 8.9199 12.322 8.61662 11.9331 8.61662L8.64361 8.61662C8.23982 8.61662 7.95377 8.9199 7.95377 9.30646C7.95377 9.6758 8.23982 9.96701 8.64361 9.96701ZM8.64361 6.84977L14.7431 6.84977C15.1245 6.84977 15.4157 6.54879 15.4157 6.16223C15.4157 5.7929 15.1245 5.49938 14.7431 5.49938L8.64361 5.49938C8.23982 5.49938 7.95377 5.7929 7.95377 6.16223C7.95377 6.54879 8.23982 6.84977 8.64361 6.84977Z"
                     fill="currentColor" fill-opacity="0.85" />
       </g>
</svg>