<?xml version="1.0" encoding="UTF-8"?>
<!--Generator: Apple Native CoreSVG 326-->
<!DOCTYPE svg PUBLIC "-//W3C//DTD SVG 1.1//EN" "http://www.w3.org/Graphics/SVG/1.1/DTD/svg11.dtd">
<svg version="1.1" xmlns="http://www.w3.org/2000/svg" xmlns:xlink="http://www.w3.org/1999/xlink"
       viewBox="0 0 22.7799 21.7471">
       <g>
              <rect height="21.7471" opacity="0" width="22.7799" x="0" y="0" />
              <path d="M0 5.28381C0 6.17564 0.636829 6.8027 1.54819 6.8027L1.99067 6.8027L1.99067 2.76804C1.99067 2.15281 1.59246 1.75351 0.999066 1.75351C0.405667 1.7512 0 2.1505 0 2.76804ZM2.85011 0.0051558C3.46261 0.30055 3.70675 0.794654 3.70675 1.6456L3.70675 18.87C3.70675 20.1276 4.44554 20.7544 5.31844 20.7544C6.18552 20.7544 6.94263 20.0897 6.94263 18.8959L6.94263 15.7604C6.94263 14.0816 7.87637 13.1294 9.55745 13.1294L20.051 13.1294L20.051 3.66096C20.051 1.32897 18.7295 0.0051558 16.4119 0.0051558ZM7.95377 5.46839C7.95377 5.09159 8.23982 4.80554 8.64361 4.80554L15.0042 4.80554C15.3931 4.80554 15.6769 5.09159 15.6769 5.46839C15.6769 5.85495 15.3931 6.15592 15.0042 6.15592L8.64361 6.15592C8.23982 6.15592 7.95377 5.85495 7.95377 5.46839ZM7.95377 8.60515C7.95377 8.21859 8.23982 7.91531 8.64361 7.91531L12.1942 7.91531C12.5831 7.91531 12.8743 8.21859 12.8743 8.60515C12.8743 8.98195 12.5831 9.2657 12.1942 9.2657L8.64361 9.2657C8.23982 9.2657 7.95377 8.98195 7.95377 8.60515ZM7.55938 21.7471L18.7903 21.7471C20.9516 21.7471 22.4185 21.0296 22.4185 18.8074L22.4185 16.3742C22.4185 15.4749 21.7817 14.853 20.8704 14.853L10.2092 14.853C9.29785 14.853 8.65871 15.4749 8.65871 16.3742L8.65871 18.7881C8.65871 20.1126 8.36301 21.0564 7.55938 21.7471Z"
                     fill="currentColor" fill-opacity="0.85" />
       </g>
</svg>