<?xml version="1.0" encoding="UTF-8"?>
<!--Generator: Apple Native CoreSVG 326-->
<!DOCTYPE svg PUBLIC "-//W3C//DTD SVG 1.1//EN" "http://www.w3.org/Graphics/SVG/1.1/DTD/svg11.dtd">
<svg version="1.1" xmlns="http://www.w3.org/2000/svg" xmlns:xlink="http://www.w3.org/1999/xlink"
       viewBox="0 0 23.1615 22.8253">
       <g>
              <rect height="22.8253" opacity="0" width="23.1615" x="0" y="0" />
              <path d="M5.53547 20.1879L7.54786 20.1879C7.70071 20.1879 7.79497 20.2241 7.90415 20.3333L9.33345 21.7528C10.7206 23.1497 12.0795 23.14 13.4667 21.7528L14.896 20.3333C15.0052 20.2241 15.0994 20.1879 15.2523 20.1879L17.2647 20.1879C19.2291 20.1879 20.1888 19.2155 20.1888 17.2563L20.1888 15.2439C20.1888 15.0985 20.2325 14.9991 20.3417 14.8876L21.7589 13.4658C23.1484 12.0786 23.146 10.7145 21.7589 9.32508L20.3417 7.90324C20.225 7.79406 20.1888 7.69234 20.1888 7.54925L20.1888 5.53456C20.1888 3.57246 19.2164 2.60293 17.2647 2.60293L15.2523 2.60293C15.0994 2.60293 14.9977 2.56156 14.896 2.45984L13.4667 1.04031C12.0721-0.356599 10.7355-0.339373 9.33345 1.04777L7.90415 2.45984C7.80243 2.56156 7.70071 2.60293 7.54786 2.60293L5.53547 2.60293C3.57107 2.60293 2.6113 3.56039 2.6113 5.53456L2.6113 7.54925C2.6113 7.69234 2.56994 7.80152 2.46076 7.90324L1.04122 9.32508C-0.348226 10.7145-0.345921 12.0786 1.04122 13.4658L2.46076 14.8876C2.56994 14.9991 2.6113 15.0985 2.6113 15.2439L2.6113 17.2563C2.6113 19.2207 3.57853 20.1879 5.53547 20.1879ZM6.08757 17.6951C5.25573 17.6951 5.11155 17.5509 5.09663 16.7191L5.09663 14.4055C5.09663 14.1349 5.03112 13.9327 4.8312 13.7402L3.18693 12.0983C2.59408 11.5031 2.59408 11.3124 3.18693 10.7173L4.8312 9.0753C5.03112 8.88284 5.09663 8.68061 5.11155 8.40772L5.11155 6.09411C5.11155 5.24505 5.2385 5.1181 6.08757 5.1181L8.40117 5.10318C8.67406 5.10318 8.88375 5.03251 9.06875 4.83775L10.7107 3.19348C11.3059 2.60063 11.4891 2.59317 12.0894 3.19348L13.7337 4.83775C13.9164 5.03251 14.1284 5.10318 14.399 5.10318L16.7126 5.1181C17.5444 5.1181 17.6886 5.25482 17.6886 6.09411L17.6886 8.40772C17.696 8.68061 17.7713 8.88284 17.9712 9.0753L19.608 10.7173C20.2084 11.3124 20.2084 11.5031 19.608 12.0983L17.9712 13.7402C17.7713 13.9327 17.696 14.1349 17.696 14.4055L17.6886 16.7191C17.6886 17.5509 17.5444 17.6951 16.7126 17.6951L14.399 17.7026C14.1284 17.7026 13.9313 17.7681 13.7337 17.9778L12.0894 19.6146C11.4966 20.2074 11.3059 20.2074 10.7107 19.6146L9.06875 17.9778C8.86883 17.7681 8.67406 17.7026 8.40117 17.7026Z"
                     fill="currentColor" fill-opacity="0.85" />
       </g>
</svg>