<?xml version="1.0" encoding="UTF-8"?>
<!--Generator: Apple Native CoreSVG 326-->
<!DOCTYPE svg PUBLIC "-//W3C//DTD SVG 1.1//EN" "http://www.w3.org/Graphics/SVG/1.1/DTD/svg11.dtd">
<svg version="1.1" xmlns="http://www.w3.org/2000/svg" xmlns:xlink="http://www.w3.org/1999/xlink"
       viewBox="0 0 23.1638 22.8215">
       <g>
              <rect height="22.8215" opacity="0" width="23.1638" x="0" y="0" />
              <path d="M5.53547 20.1935L7.55016 20.1935C7.70071 20.1935 7.79497 20.2297 7.90415 20.3389L9.33345 21.7584C10.7206 23.1553 12.0795 23.153 13.4667 21.7584L14.896 20.3389C15.0075 20.2297 15.0994 20.1935 15.2523 20.1935L17.2647 20.1935C19.2291 20.1935 20.1888 19.2211 20.1888 17.2619L20.1888 15.2495C20.1888 15.1041 20.2325 15.0047 20.3417 14.8932L21.7612 13.4713C23.1507 12.0842 23.1484 10.7253 21.7612 9.33066L20.3417 7.90882C20.225 7.79964 20.1888 7.70538 20.1888 7.55483L20.1888 5.54014C20.1888 3.57804 19.2164 2.61597 17.2647 2.61597L15.2523 2.61597C15.0994 2.61597 15 2.5746 14.896 2.46542L13.4667 1.04589C12.0721-0.351021 10.7206-0.348716 9.33345 1.05335L7.90415 2.46542C7.80243 2.5746 7.70071 2.61597 7.55016 2.61597L5.53547 2.61597C3.57107 2.61597 2.6113 3.56597 2.6113 5.54014L2.6113 7.55483C2.6113 7.70538 2.56994 7.8071 2.46076 7.90882L1.04122 9.33066C-0.348226 10.7253-0.345921 12.0842 1.04122 13.4713L2.46076 14.8932C2.56994 15.0047 2.6113 15.1041 2.6113 15.2495L2.6113 17.2619C2.6113 19.2263 3.57853 20.1935 5.53547 20.1935Z"
                     fill="currentColor" fill-opacity="0.85" />
       </g>
</svg>