<?xml version="1.0" encoding="UTF-8"?>
<!--Generator: Apple Native CoreSVG 326-->
<!DOCTYPE svg PUBLIC "-//W3C//DTD SVG 1.1//EN" "http://www.w3.org/Graphics/SVG/1.1/DTD/svg11.dtd">
<svg version="1.1" xmlns="http://www.w3.org/2000/svg" xmlns:xlink="http://www.w3.org/1999/xlink"
       viewBox="0 0 29.7337 19.7695">
       <g>
              <rect height="19.7695" opacity="0" width="29.7337" x="0" y="0" />
              <path d="M25.1753 16.5371C25.6095 17.0626 26.3629 17.1447 27.0049 16.4958C28.5887 14.8625 29.3724 12.4464 29.3724 9.87984C29.3724 7.32816 28.4843 4.84266 27.0049 3.27137C26.3779 2.61501 25.6169 2.70969 25.1753 3.23C24.7733 3.71585 24.9008 4.31659 25.3442 4.79905C26.511 6.06761 27.139 7.89961 27.139 9.87984C27.139 11.8675 26.4886 13.6995 25.3442 14.9681C24.9082 15.4506 24.7807 16.0513 25.1753 16.5371Z"
                     fill="currentColor" fill-opacity="0.85" />
              <path d="M21.9634 13.6868C22.3678 14.2197 23.1999 14.2519 23.7678 13.6408C24.5727 12.7652 24.9864 11.3676 24.9864 9.87984C24.9864 8.39207 24.5727 6.9945 23.7678 6.10394C23.1999 5.50035 22.3678 5.5302 21.9634 6.06543C21.6062 6.54382 21.7205 7.11011 22.068 7.60464C22.46 8.13331 22.7529 9.08058 22.7529 9.87984C22.7529 10.6791 22.46 11.6166 22.068 12.1401C21.7131 12.6421 21.6062 13.2159 21.9634 13.6868Z"
                     fill="currentColor" fill-opacity="0.85" />
              <path d="M9.87984 19.7574C15.3376 19.7574 19.7574 15.3399 19.7574 9.87984C19.7574 4.41983 15.3376 0 9.87984 0C4.41983 0 0 4.41983 0 9.87984C0 15.3399 4.41983 19.7574 9.87984 19.7574ZM9.87984 16.8123C6.0425 16.8123 2.94504 13.7172 2.94504 9.87984C2.94504 6.0425 6.0425 2.93758 9.87984 2.93758C13.7149 2.93758 16.8198 6.0425 16.8198 9.87984C16.8198 13.7172 13.7149 16.8123 9.87984 16.8123ZM9.8873 7.84526C10.9384 7.84526 11.7861 6.99753 11.7861 5.94648C11.7861 4.89543 10.9384 4.05516 9.8873 4.05516C8.83626 4.05516 7.99599 4.89543 7.99599 5.94648C7.99599 6.99753 8.83626 7.84526 9.8873 7.84526Z"
                     fill="currentColor" fill-opacity="0.85" />
       </g>
</svg>