<?xml version="1.0" encoding="UTF-8"?>
<!--Generator: Apple Native CoreSVG 326-->
<!DOCTYPE svg PUBLIC "-//W3C//DTD SVG 1.1//EN" "http://www.w3.org/Graphics/SVG/1.1/DTD/svg11.dtd">
<svg version="1.1" xmlns="http://www.w3.org/2000/svg" xmlns:xlink="http://www.w3.org/1999/xlink"
       viewBox="0 0 25.957 17.8685">
       <g>
              <rect height="17.8685" opacity="0" width="25.957" x="0" y="0" />
              <path d="M22.0915 12.272C22.482 12.7263 23.1671 12.7263 23.6064 12.2329C24.8943 10.7911 25.5956 8.91165 25.5956 6.88107C25.5956 4.84302 24.8943 2.96123 23.6064 1.51944C23.1694 1.02842 22.4866 1.02842 22.0961 1.47807C21.7107 1.92256 21.8388 2.46755 22.2138 2.9138C23.1605 3.98978 23.646 5.34095 23.646 6.88107C23.646 8.41142 23.1605 9.7649 22.2138 10.8386C21.8388 11.2848 21.7107 11.8275 22.0915 12.272Z"
                     fill="currentColor" fill-opacity="0.85" />
              <path d="M19.5642 10.1253C19.9472 10.5698 20.684 10.5819 21.0964 10.0346C21.7661 9.15458 22.1671 8.04942 22.1671 6.88107C22.1671 5.71271 21.7661 4.59779 21.0964 3.7201C20.684 3.1728 19.9495 3.19002 19.5665 3.62705C19.1565 4.09162 19.3459 4.61708 19.6595 5.04325C20.0272 5.57927 20.2099 6.18595 20.2099 6.88107C20.2099 7.56642 20.0272 8.18287 19.6595 8.71142C19.3483 9.13529 19.1565 9.66821 19.5642 10.1253Z"
                     fill="currentColor" fill-opacity="0.85" />
              <path d="M3.64834 17.8587L14.1332 17.8587C16.4675 17.8587 17.7816 16.5372 17.7816 14.2196L17.7816 3.63912C17.7816 1.32151 16.4675 0 14.1332 0L3.64834 0C1.32382 0 0 1.31921 0 3.63912L0 14.2196C0 16.5372 1.32382 17.8587 3.64834 17.8587ZM7.68336 9.90896C7.17513 9.90896 6.82939 9.56322 6.82939 9.06244L6.82939 4.52294C6.82939 4.02217 7.17513 3.67643 7.68336 3.67643C8.18183 3.67643 8.53734 4.02217 8.53734 4.52294L8.53734 9.06244C8.53734 9.56322 8.18183 9.90896 7.68336 9.90896ZM10.4434 9.90896C9.94492 9.90896 9.59172 9.56322 9.59172 9.06244L9.59172 4.52294C9.59172 4.02217 9.94492 3.67643 10.4434 3.67643C10.9419 3.67643 11.2974 4.02217 11.2974 4.52294L11.2974 9.06244C11.2974 9.56322 10.9419 9.90896 10.4434 9.90896ZM13.2057 9.90896C12.7073 9.90896 12.3518 9.56322 12.3518 9.06244L12.3518 4.52294C12.3518 4.02217 12.7073 3.67643 13.2057 3.67643C13.714 3.67643 14.0597 4.02217 14.0597 4.52294L14.0597 9.06244C14.0597 9.56322 13.714 9.90896 13.2057 9.90896Z"
                     fill="currentColor" fill-opacity="0.85" />
       </g>
</svg>