<?xml version="1.0" encoding="UTF-8"?>
<!--Generator: Apple Native CoreSVG 326-->
<!DOCTYPE svg PUBLIC "-//W3C//DTD SVG 1.1//EN" "http://www.w3.org/Graphics/SVG/1.1/DTD/svg11.dtd">
<svg version="1.1" xmlns="http://www.w3.org/2000/svg" xmlns:xlink="http://www.w3.org/1999/xlink"
       viewBox="0 0 30.9396 18.4059">
       <g>
              <rect height="18.4059" opacity="0" width="30.9396" x="0" y="0" />
              <path d="M30.5782 16.4027C30.5782 17.1928 29.9483 17.8255 29.1582 17.8255C28.3853 17.8255 27.76 17.1928 27.76 16.4027C27.76 9.72495 23.3199 4.16899 17.4857 3.04912C16.8337 2.68395 16.0883 2.47713 15.294 2.47713C14.4989 2.47713 13.7542 2.68361 13.1033 3.04806C7.26383 4.16496 2.8182 9.72254 2.8182 16.4027C2.8182 17.1928 2.19806 17.8255 1.41772 17.8255C0.63507 17.8255 0 17.1928 0 16.4027C0 7.36929 6.86147 0 15.2917 0C23.7196 0 30.5782 7.36929 30.5782 16.4027Z"
                     fill="currentColor" fill-opacity="0.425" />
              <path d="M10.5655 7.42509C10.5655 8.07864 10.6823 8.70357 10.8994 9.27495C8.73769 10.8062 7.39652 13.4555 7.39652 16.405C7.39652 17.1853 6.75915 17.8106 5.97881 17.8106C5.1887 17.8106 4.56109 17.1853 4.56109 16.405C4.56109 11.9627 6.98261 7.9143 10.7484 6.0881C10.6278 6.51471 10.5655 6.96412 10.5655 7.42509ZM26.0194 16.405C26.0194 17.1853 25.4194 17.8106 24.6316 17.8106C23.8512 17.8106 23.1817 17.1853 23.1817 16.405C23.1817 13.449 21.8477 10.7945 19.6811 9.26518C19.8981 8.6929 20.015 8.06716 20.015 7.41302C20.015 6.95507 19.9536 6.50911 19.8343 6.08608C23.6071 7.91147 26.0194 11.9612 26.0194 16.405Z"
                     fill="currentColor" fill-opacity="0.425" />
              <path d="M15.294 10.8751C17.062 10.8751 18.4757 9.34025 18.4757 7.41302C18.4757 5.57247 17.0499 4.02162 15.294 4.02162C13.5237 4.02162 12.1123 5.57939 12.1123 7.41763C12.1123 9.34025 13.5162 10.8751 15.294 10.8751ZM10.5116 17.8286L20.0644 17.8286C21.0861 17.8286 21.7305 17.3261 21.7305 16.4554C21.7305 14.5023 19.1841 11.8931 15.294 11.8931C11.3918 11.8931 8.84772 14.5023 8.84772 16.4554C8.84772 17.3261 9.48752 17.8286 10.5116 17.8286Z"
                     fill="currentColor" fill-opacity="0.85" />
       </g>
</svg>