<?xml version="1.0" encoding="UTF-8"?>
<!--Generator: Apple Native CoreSVG 326-->
<!DOCTYPE svg PUBLIC "-//W3C//DTD SVG 1.1//EN" "http://www.w3.org/Graphics/SVG/1.1/DTD/svg11.dtd">
<svg version="1.1" xmlns="http://www.w3.org/2000/svg" xmlns:xlink="http://www.w3.org/1999/xlink"
       viewBox="0 0 25.8133 19.4058">
       <g>
              <rect height="19.4058" opacity="0" width="25.8133" x="0" y="0" />
              <path d="M5.01183 11.7073L5.01183 13.9228C5.01183 14.7885 4.46847 15.3221 3.5855 15.3221L1.42633 15.3221C0.543357 15.3221 0 14.7885 0 13.9228L0 11.7073C0 10.8341 0.543357 10.3028 1.42633 10.3028L3.5855 10.3028C4.46847 10.3028 5.01183 10.8364 5.01183 11.7073Z"
                     fill="currentColor" fill-opacity="0.425" />
              <path d="M13.199 1.39703L13.199 2.69393C10.7131 2.85318 8.49007 4.96799 8.42317 7.86843L4.21796 7.86843C3.33499 7.86843 2.79163 7.3446 2.79163 6.4714L2.79163 1.39703C2.79163 0.526131 3.33499 0 4.21796 0L11.7704 0C12.6556 0 13.199 0.526131 13.199 1.39703Z"
                     fill="currentColor" fill-opacity="0.425" />
              <path d="M25.452 5.86144L25.452 11.9278C25.452 12.7987 24.9086 13.3249 24.0233 13.3249L20.8963 13.3249C20.0207 13.3249 19.4774 12.7987 19.4774 11.9278L19.4774 5.86144C19.4774 4.99054 20.0207 4.46441 20.8963 4.46441L24.0233 4.46441C24.9086 4.46441 25.452 4.99054 25.452 5.86144Z"
                     fill="currentColor" fill-opacity="0.425" />
              <path d="M13.5115 11.6888C15.3795 11.6888 16.8811 10.0564 16.8811 8.00733C16.8811 6.03237 15.372 4.40108 13.5115 4.40108C11.6435 4.40108 10.1322 6.04674 10.1322 8.01194C10.1322 10.0564 11.6361 11.6888 13.5115 11.6888ZM8.22302 19.3788L18.7902 19.3788C19.8436 19.3788 20.4805 18.8665 20.4805 18.001C20.4805 15.9209 17.7262 13.0946 13.5115 13.0946C9.28705 13.0946 6.53272 15.9209 6.53272 18.001C6.53272 18.8665 7.16967 19.3788 8.22302 19.3788Z"
                     fill="currentColor" fill-opacity="0.85" />
       </g>
</svg>