<?xml version="1.0" encoding="UTF-8"?>
<!--Generator: Apple Native CoreSVG 326-->
<!DOCTYPE svg PUBLIC "-//W3C//DTD SVG 1.1//EN" "http://www.w3.org/Graphics/SVG/1.1/DTD/svg11.dtd">
<svg version="1.1" xmlns="http://www.w3.org/2000/svg" xmlns:xlink="http://www.w3.org/1999/xlink"
       viewBox="0 0 19.3993 19.0529">
       <g>
              <rect height="19.0529" opacity="0" width="19.3993" x="0" y="0" />
              <path d="M19.0379 3.63912L19.0379 15.4011C19.0379 17.7262 17.7164 19.0379 15.3896 19.0379L3.64834 19.0379C1.32382 19.0379 0 17.7262 0 15.4011L0 3.63912C0 1.32151 1.32382 0 3.64834 0L15.3896 0C17.7164 0 19.0379 1.32151 19.0379 3.63912ZM6.37787 5.11264C5.38456 5.11264 4.89246 5.52498 4.89246 6.53321L4.89246 13.0606C4.89246 13.6537 5.19222 13.9833 5.74577 13.9833C6.29986 13.9833 6.59216 13.6314 6.59216 13.0606L6.59216 6.79063L8.62705 6.79063C9.72487 6.79063 10.0721 7.0486 10.0721 8.1856L10.0721 10.4818C10.0721 11.0055 10.3867 11.3472 10.8858 11.3472C11.375 11.3472 11.6897 11.0055 11.6897 10.4818L11.6897 7.76416C11.6897 5.79811 10.8528 5.11264 8.99639 5.11264ZM12.6248 5.98942L12.6248 10.7731C12.6248 11.9078 12.4237 12.2375 11.2838 12.2375L9.14208 12.2375L9.14208 8.62845C9.14208 8.08982 8.87962 7.72807 8.34561 7.72807C7.80183 7.72807 7.5296 8.08982 7.5296 8.62845L7.5296 12.7975C7.5296 13.5945 8.02862 13.9328 8.74181 13.9328L11.617 13.9328C13.462 13.9328 14.3291 13.0153 14.3291 11.1801L14.3291 5.98942C14.3291 5.42381 13.9921 5.06205 13.4781 5.06205C12.9493 5.06205 12.6248 5.42381 12.6248 5.98942Z"
                     fill="currentColor" fill-opacity="0.85" />
       </g>
</svg>