<?xml version="1.0" encoding="UTF-8"?>
<!--Generator: Apple Native CoreSVG 326-->
<!DOCTYPE svg PUBLIC "-//W3C//DTD SVG 1.1//EN" "http://www.w3.org/Graphics/SVG/1.1/DTD/svg11.dtd">
<svg version="1.1" xmlns="http://www.w3.org/2000/svg" xmlns:xlink="http://www.w3.org/1999/xlink"
       viewBox="0 0 25.2371 20.7338">
       <g>
              <rect height="20.7338" opacity="0" width="25.2371" x="0" y="0" />
              <path d="M24.8758 12.3846C24.8758 5.93383 19.9627 0.631336 13.6785 0.00415235C13.2541-0.040066 12.9302 0.274072 12.9302 0.698483L12.9302 4.13058C12.9302 4.48379 13.1829 4.74109 13.5286 4.79046C17.2465 5.32405 20.1044 8.51741 20.1044 12.3846C20.1044 14.1648 19.4989 15.8157 18.4419 17.1359C18.2306 17.4138 18.2329 17.7555 18.4764 18.0012L20.9223 20.4523C21.2117 20.7567 21.6557 20.7417 21.9256 20.4328C23.7735 18.2551 24.8758 15.452 24.8758 12.3846Z"
                     fill="currentColor" fill-opacity="0.85" />
              <path d="M0 12.3846C0 15.4543 1.1023 18.2574 2.94273 20.4276C3.21265 20.7366 3.65429 20.7417 3.9535 20.4448L6.39194 17.9938C6.63541 17.748 6.63772 17.4063 6.42639 17.1284C5.38201 15.8157 4.77139 14.1648 4.77139 12.3846C4.77139 8.51741 7.63678 5.32405 11.3472 4.79046C11.7004 4.74109 11.9456 4.48379 11.9456 4.13058L11.9456 0.698483C11.9456 0.274072 11.6217-0.040066 11.1973 0.00415235C4.92054 0.631336 0 5.93383 0 12.3846Z"
                     fill="currentColor" fill-opacity="0.85" />
              <path d="M8.81084 16.5084C9.33279 16.5084 9.60786 16.1862 9.60786 15.6574L9.60786 9.76123L11.5147 9.76123C12.5385 9.76123 12.8736 9.99967 12.8736 11.0678L12.8736 13.2313C12.8736 13.7177 13.171 14.0324 13.6304 14.0324C14.0899 14.0324 14.3799 13.7177 14.3799 13.2313L14.3799 10.6785C14.3799 8.83816 13.5924 8.1946 11.8617 8.1946L9.40563 8.1946C8.47432 8.1946 8.02182 8.58225 8.02182 9.51126L8.02182 15.6574C8.02182 16.2011 8.29921 16.5084 8.81084 16.5084ZM11.622 16.4578L14.3146 16.4578C16.039 16.4578 16.8493 15.6018 16.8493 13.8825L16.8493 9.00709C16.8493 8.47593 16.537 8.14401 16.0552 8.14401C15.5659 8.14401 15.2587 8.47593 15.2587 9.00709L15.2587 13.5077C15.2587 14.5786 15.0696 14.8837 14.0038 14.8837L11.9901 14.8837L11.9901 11.4859C11.9901 10.9794 11.7449 10.6424 11.2505 10.6424C10.7463 10.6424 10.4839 10.9794 10.4839 11.4859L10.4839 15.404C10.4839 16.1516 10.9507 16.4578 11.622 16.4578Z"
                     fill="currentColor" fill-opacity="0.85" />
       </g>
</svg>