<?xml version="1.0" encoding="UTF-8"?>
<!--Generator: Apple Native CoreSVG 326-->
<!DOCTYPE svg PUBLIC "-//W3C//DTD SVG 1.1//EN" "http://www.w3.org/Graphics/SVG/1.1/DTD/svg11.dtd">
<svg version="1.1" xmlns="http://www.w3.org/2000/svg" xmlns:xlink="http://www.w3.org/1999/xlink"
       viewBox="0 0 24.6449 23.5952">
       <g>
              <rect height="23.5952" opacity="0" width="24.6449" x="0" y="0" />
              <path d="M13.7186 0.416404L22.6254 5.55167C23.136 5.85374 23.3841 6.25686 23.3841 6.69158C23.3841 7.28595 22.9074 7.89293 22.1092 7.89293L21.3244 7.89293L21.3244 19.392L21.7032 19.392C22.2379 19.392 22.5744 19.7159 22.5744 20.2632L22.5744 21.1701L23.0673 21.1701C23.7134 21.1701 24.2836 21.7231 24.2836 22.3766C24.2836 23.0525 23.7134 23.5854 23.0673 23.5854L1.20651 23.5854C0.553002 23.5854 0 23.045 0 22.3766C0 21.7231 0.553002 21.1701 1.20651 21.1701L1.94045 21.1701L1.94045 20.2632C1.94045 19.7159 2.27927 19.392 2.81396 19.392L3.19045 19.392L3.19045 7.89293L2.41314 7.89293C1.60745 7.89293 1.13081 7.28595 1.13081 6.69158C1.13081 6.25686 1.37659 5.85374 1.88944 5.55167L10.7963 0.416404C11.242 0.154491 11.7664 0 12.2563 0C12.7462 0 13.2683 0.154491 13.7186 0.416404ZM9.03054 8.54893C8.03723 8.54893 7.54283 8.95896 7.54283 9.96204L7.54283 16.4946C7.54283 17.0803 7.84489 17.4173 8.39614 17.4173C8.95253 17.4173 9.24484 17.0653 9.24484 16.4946L9.24484 10.2269L11.2797 10.2269C12.3701 10.2269 12.7247 10.4774 12.7247 11.6219L12.7247 13.9106C12.7247 14.4418 13.0371 14.776 13.5361 14.776C14.0277 14.776 14.3424 14.4418 14.3424 13.9106L14.3424 11.1981C14.3424 9.2344 13.5055 8.54893 11.6491 8.54893ZM15.2775 9.42571L15.2775 14.202C15.2775 15.3441 15.0764 15.6738 13.9342 15.6738L11.7948 15.6738L11.7948 12.0647C11.7948 11.5163 11.5323 11.1546 10.9908 11.1546C10.4545 11.1546 10.1823 11.5163 10.1823 12.0647L10.1823 16.224C10.1823 17.0308 10.6715 17.3593 11.3945 17.3593L14.2622 17.3593C16.1072 17.3593 16.9818 16.4442 16.9818 14.6164L16.9818 9.42571C16.9818 8.85033 16.6448 8.48858 16.1308 8.48858C15.602 8.48858 15.2775 8.85033 15.2775 9.42571Z"
                     fill="currentColor" fill-opacity="0.85" />
       </g>
</svg>