<?xml version="1.0" encoding="UTF-8"?>
<!--Generator: Apple Native CoreSVG 326-->
<!DOCTYPE svg PUBLIC "-//W3C//DTD SVG 1.1//EN" "http://www.w3.org/Graphics/SVG/1.1/DTD/svg11.dtd">
<svg version="1.1" xmlns="http://www.w3.org/2000/svg" xmlns:xlink="http://www.w3.org/1999/xlink"
       viewBox="0 0 24.3303 21.006">
       <g>
              <rect height="21.006" opacity="0" width="24.3303" x="0" y="0" />
              <path d="M11.9856 20.9962C17.7821 20.9962 22.4837 16.2946 22.4837 10.4981C22.4837 4.70163 17.7821 0 11.9856 0C6.18916 0 1.48753 4.70163 1.48753 10.4981L4.53538 10.4981C4.53538 6.37829 7.86582 3.04785 11.9856 3.04785C16.1055 3.04785 19.4359 6.37829 19.4359 10.4981C19.4359 14.6179 16.1055 17.9484 11.9856 17.9484C9.86874 17.9484 8.05458 17.1034 6.64712 15.6524C5.97135 15.0132 5.0498 14.8117 4.35614 15.4438C3.73423 16.0162 3.72149 16.9286 4.44894 17.7463C6.08398 19.7011 9.21457 20.9962 11.9856 20.9962ZM0.808605 8.39698C-0.0138912 8.39698-0.212055 9.15901 0.22849 9.72826L2.75918 13.0277C3.05907 13.4322 3.60988 13.4224 3.91492 13.0277L6.43585 9.72596C6.86894 9.15901 6.66847 8.39698 5.8655 8.39698Z"
                     fill="currentColor" fill-opacity="0.85" />
              <path d="M8.3672 14.6814C8.88399 14.6814 9.15906 14.3593 9.15906 13.823L9.15906 7.932L11.0659 7.932C12.0897 7.932 12.4248 8.17274 12.4248 9.24083L12.4248 11.3969C12.4248 11.8885 12.7199 12.2055 13.1817 12.2055C13.6388 12.2055 13.9288 11.8885 13.9288 11.3969L13.9288 8.85154C13.9288 7.00893 13.151 6.36767 11.4106 6.36767L8.95453 6.36767C8.02552 6.36767 7.57072 6.75533 7.57072 7.68434L7.57072 13.823C7.57072 14.3742 7.85556 14.6814 8.3672 14.6814ZM11.1732 14.6234L13.8635 14.6234C15.5902 14.6234 16.4005 13.7726 16.4005 12.0556L16.4005 7.18016C16.4005 6.649 16.0956 6.31709 15.6064 6.31709C15.1171 6.31709 14.8174 6.649 14.8174 7.18016L14.8174 11.6785C14.8174 12.7443 14.6185 13.0568 13.5551 13.0568L11.5413 13.0568L11.5413 9.65153C11.5413 9.14505 11.3036 8.81545 10.8017 8.81545C10.2975 8.81545 10.0351 9.14505 10.0351 9.65153L10.0351 13.5696C10.0351 14.3247 10.4996 14.6234 11.1732 14.6234Z"
                     fill="currentColor" fill-opacity="0.85" />
       </g>
</svg>