<?xml version="1.0" encoding="UTF-8"?>
<!--Generator: Apple Native CoreSVG 326-->
<!DOCTYPE svg PUBLIC "-//W3C//DTD SVG 1.1//EN" "http://www.w3.org/Graphics/SVG/1.1/DTD/svg11.dtd">
<svg version="1.1" xmlns="http://www.w3.org/2000/svg" xmlns:xlink="http://www.w3.org/1999/xlink"
       viewBox="0 0 23.5459 22.6702">
       <g>
              <rect height="22.6702" opacity="0" width="23.5459" x="0" y="0" />
              <path d="M16.0718 19.2419C15.0639 19.8655 13.8351 20.5124 12.3611 21.2318C12.0997 21.3587 11.8108 21.4546 11.5874 21.4546C11.3715 21.4546 11.0849 21.361 10.8235 21.2318C5.13554 18.3869 3.07687 16.7397 3.07687 13.2413L3.07687 6.28838C3.07687 6.28213 3.07688 6.27589 3.07723 6.27026ZM13.2335 1.75204C13.9933 1.98599 17.3943 3.09775 18.2385 3.44713C19.6384 4.04259 20.1077 4.73043 20.1077 6.28838L20.1077 13.2413C20.1077 14.3846 19.8911 15.336 19.3945 16.1945L6.18902 2.99448C7.52817 2.5298 9.40827 1.91537 9.95102 1.75204C10.4609 1.60677 11.0976 1.50341 11.5874 1.50341C12.087 1.50341 12.7237 1.60446 13.2335 1.75204Z"
                     fill="currentColor" fill-opacity="0.85" />
              <path d="M19.7973 20.9982C20.1351 21.3285 20.6882 21.3359 21.011 20.9982C21.3413 20.6605 21.3487 20.1223 21.011 19.7845L2.86579 1.65141C2.53036 1.31368 1.97493 1.31368 1.64466 1.65141C1.31439 1.97192 1.31439 2.5348 1.64466 2.86508Z"
                     fill="currentColor" fill-opacity="0.85" />
       </g>
</svg>