<?xml version="1.0" encoding="UTF-8"?>
<!--Generator: Apple Native CoreSVG 326-->
<!DOCTYPE svg PUBLIC "-//W3C//DTD SVG 1.1//EN" "http://www.w3.org/Graphics/SVG/1.1/DTD/svg11.dtd">
<svg version="1.1" xmlns="http://www.w3.org/2000/svg" xmlns:xlink="http://www.w3.org/1999/xlink"
       viewBox="0 0 21.365 21.006">
       <g>
              <rect height="21.006" opacity="0" width="21.365" x="0" y="0" />
              <path d="M21.0037 10.4981C21.0037 16.2923 16.302 20.9962 10.4981 20.9962C4.70394 20.9962 0 16.2923 0 10.4981C0 4.70163 4.70394 0 10.4981 0C16.302 0 21.0037 4.70163 21.0037 10.4981ZM10.934 10.7458L10.934 15.982C11.0253 15.9648 11.1143 15.9229 11.1958 15.881L14.9014 13.893C15.4448 13.6024 15.6832 13.2618 15.6832 12.5896L15.6832 8.3612C15.6832 8.28932 15.6809 8.22721 15.6642 8.15478ZM5.31014 8.3612L5.31014 12.5896C5.31014 13.2618 5.5342 13.6024 6.07986 13.893L9.78316 15.881C9.87444 15.9229 9.96343 15.9648 10.0473 15.982L10.0473 10.7458L5.31705 8.15478C5.31014 8.22721 5.31014 8.28932 5.31014 8.3612ZM6.05627 7.11065C5.91439 7.19163 5.78689 7.26745 5.69615 7.36049L10.4906 9.94917L12.5577 8.83401L7.7362 6.20111ZM9.46131 5.28248L8.6706 5.70143L13.5363 8.31194L15.3001 7.36049C15.2019 7.26745 15.0795 7.19163 14.9325 7.11065L11.5297 5.28248C11.2 5.11185 10.8479 5.00673 10.4906 5.00673C10.1431 5.00673 9.78358 5.11185 9.46131 5.28248Z"
                     fill="currentColor" fill-opacity="0.85" />
       </g>
</svg>