<?xml version="1.0" encoding="UTF-8"?>
<!--Generator: Apple Native CoreSVG 326-->
<!DOCTYPE svg PUBLIC "-//W3C//DTD SVG 1.1//EN" "http://www.w3.org/Graphics/SVG/1.1/DTD/svg11.dtd">
<svg version="1.1" xmlns="http://www.w3.org/2000/svg" xmlns:xlink="http://www.w3.org/1999/xlink"
       viewBox="0 0 20.8093 22.0573">
       <g>
              <rect height="22.0573" opacity="0" width="20.8093" x="0" y="0" />
              <path d="M1.52386 17.5067L9.40339 21.7055C9.89804 21.9732 10.5424 21.9732 11.0469 21.7055L18.9166 17.5067C19.9941 16.9317 20.4479 16.2724 20.4479 14.9505L20.4479 6.5447C20.4479 5.41716 20.0172 4.67795 18.988 4.12713L12.2753 0.522158C10.9818-0.174053 9.46617-0.174053 8.17262 0.522158L1.4623 4.12713C0.430779 4.67795 0 5.41716 0 6.5447L0 14.9505C0 16.2724 0.456133 16.9317 1.52386 17.5067ZM3.1563 15.3224C2.72419 15.0845 2.55872 14.8196 2.55872 14.3869L2.55872 8.08075L8.8829 11.4939L8.8829 18.4578ZM17.2865 15.3224L11.5576 18.4578L11.5576 11.4939L17.8892 8.08075L17.8892 14.3869C17.8892 14.8196 17.7238 15.0845 17.2865 15.3224ZM10.2214 9.15679L4.02526 5.81434L5.80436 4.84682L12.0303 8.17149ZM14.7665 6.71581L8.57089 3.37851L9.34916 2.94822C9.92206 2.64537 10.511 2.62814 11.0936 2.94822L16.425 5.81434Z"
                     fill="currentColor" fill-opacity="0.85" />
       </g>
</svg>