<?xml version="1.0" encoding="UTF-8"?>
<!--Generator: Apple Native CoreSVG 326-->
<!DOCTYPE svg PUBLIC "-//W3C//DTD SVG 1.1//EN" "http://www.w3.org/Graphics/SVG/1.1/DTD/svg11.dtd">
<svg version="1.1" xmlns="http://www.w3.org/2000/svg" xmlns:xlink="http://www.w3.org/1999/xlink"
       viewBox="0 0 32.8999 16.1599">
       <g>
              <rect height="16.1599" opacity="0" width="32.8999" x="0" y="0" />
              <path d="M16.015 1.3055C13.7544-0.00976562 11.4961 0.159101 9.73463 2.46221C8.66381 3.82315 7.78751 4.28917 6.74532 4.28917C5.79508 4.28917 5.23656 4.10824 4.46277 3.70214C2.40677 2.65243 0 3.7739 0 6.2847L0 10.8835C0 15.0824 2.75603 16.1599 4.90192 16.1599L20.8941 16.1599C24.4243 16.1599 26.5018 15.6217 29.1619 14.13C31.4089 12.8894 32.5386 11.2157 32.5386 9.29973C32.5386 6.55092 30.5307 4.5873 27.7233 4.5873C26.5395 4.5873 24.0425 4.99054 23.1814 4.99054C22.3799 4.99054 22.3114 4.98878 21.4658 4.49874ZM2.55938 10.606C2.55708 10.5376 2.55708 10.4767 2.55708 10.4135L2.55708 6.27493C2.55708 5.89055 2.88056 5.77391 3.17474 5.92731C4.184 6.42184 5.2863 6.83879 6.74532 6.83879C8.50016 6.83879 10.3164 5.88813 11.7582 4.00864C12.725 2.76841 13.3173 2.70981 14.7144 3.50829L20.2093 6.69692C21.4656 7.42758 22.0474 7.54016 23.1814 7.54016C24.232 7.54016 26.7462 7.14438 27.7061 7.14438C28.2337 7.14438 28.708 7.43328 28.708 7.90743C28.708 8.23321 28.447 8.61365 27.8205 8.94877L26.0747 9.87705C24.5681 10.6818 23.4589 11.0074 20.8941 11.0074L4.31938 11.0074C3.36071 11.0074 2.84489 10.8874 2.55938 10.606ZM2.69786 12.2278C3.1677 12.4432 3.637 12.5339 4.31938 12.5339L20.8941 12.5339C23.5864 12.5339 24.9896 12.1497 26.6818 11.2496L28.1366 10.4826C29.2039 9.91102 29.7466 9.31896 29.8908 8.64513C29.9424 8.85591 29.9597 9.08622 29.9597 9.33891C29.9481 10.3631 29.3352 11.1403 27.9302 11.9123C25.6066 13.2048 24.07 13.5954 20.8941 13.5954L4.8847 13.5954C3.78239 13.5954 3.0029 13.3736 2.69786 12.2278ZM15.3299 2.55932L13.4074 5.16365C13.157 5.50994 13.184 6.01817 13.5228 6.29095C13.8518 6.56602 14.3848 6.55395 14.6575 6.18528L16.5674 3.58611ZM17.666 3.70475L15.7332 6.32455C15.4484 6.69267 15.4926 7.17677 15.8389 7.44208C16.2145 7.74645 16.7009 7.71946 16.9857 7.32895L18.8864 4.73154ZM19.9804 4.87487L18.0568 7.46306C17.7868 7.82888 17.8213 8.30782 18.1527 8.58059C18.5087 8.89242 19.0049 8.86313 19.2897 8.47493L21.203 5.88443Z"
                     fill="currentColor" fill-opacity="0.85" />
       </g>
</svg>