<?xml version="1.0" encoding="UTF-8"?>
<!--Generator: Apple Native CoreSVG 326-->
<!DOCTYPE svg PUBLIC "-//W3C//DTD SVG 1.1//EN" "http://www.w3.org/Graphics/SVG/1.1/DTD/svg11.dtd">
<svg version="1.1" xmlns="http://www.w3.org/2000/svg" xmlns:xlink="http://www.w3.org/1999/xlink"
       viewBox="0 0 32.8999 16.1002">
       <g>
              <rect height="16.1002" opacity="0" width="32.8999" x="0" y="0" />
              <path d="M3.41712 12.0209L21.2099 12.0209C23.9423 12.0209 25.1526 11.6683 26.7505 10.8142L30.4302 8.8328C31.6363 8.18978 32.1332 7.01682 31.4604 6.1908C30.665 5.17839 29.355 4.52761 27.7233 4.52761C26.5395 4.52761 24.0425 4.93085 23.1814 4.93085C22.5414 4.93085 22.3925 4.9337 21.9014 4.6741L19.6616 7.68864C19.3768 8.06938 18.876 8.11075 18.5251 7.79661C18.1863 7.52154 18.157 7.04259 18.4194 6.68709L20.5076 3.88102L19.6524 3.38449L17.4161 6.46115C17.1438 6.83388 16.6379 6.88325 16.2623 6.56681C15.9212 6.3015 15.8821 5.80018 16.1543 5.43491L18.2753 2.57934L17.4351 2.09027L15.1389 5.21127C14.8638 5.57478 14.3286 5.60177 13.9972 5.3267C13.671 5.04416 13.6366 4.52385 13.887 4.18503L16.0333 1.27535L15.8733 1.17867C13.6327 0.0149214 11.4514 0.15164 9.73463 2.40999C8.66381 3.76347 7.78751 4.23695 6.74532 4.23695C5.79508 4.23695 5.23656 4.04855 4.46277 3.64246C2.40677 2.6002 0 3.72167 0 6.22501L0 10.3538C0 10.4692 0 10.5847 0.00230491 10.6978C0.714529 11.4681 1.81131 12.0209 3.41712 12.0209ZM30.7687 10.4803L27.392 12.2855C25.5793 13.2642 24.0795 13.6536 21.2099 13.6536L3.41712 13.6536C2.15311 13.6536 1.51197 13.5467 0.22285 12.7215C0.9264 15.3702 3.12252 16.1002 4.90192 16.1002L20.8941 16.1002C24.4243 16.1002 26.5018 15.562 29.1619 14.0703C31.4089 12.8297 32.5386 11.156 32.5386 9.24004C32.5386 9.11703 32.534 8.98887 32.5144 8.87047C32.2543 9.4709 31.7104 9.9741 30.7687 10.4803Z"
                     fill="currentColor" fill-opacity="0.85" />
       </g>
</svg>