<?xml version="1.0" encoding="UTF-8"?>
<!--Generator: Apple Native CoreSVG 326-->
<!DOCTYPE svg PUBLIC "-//W3C//DTD SVG 1.1//EN" "http://www.w3.org/Graphics/SVG/1.1/DTD/svg11.dtd">
<svg version="1.1" xmlns="http://www.w3.org/2000/svg" xmlns:xlink="http://www.w3.org/1999/xlink"
       viewBox="0 0 39.1199 23.3432">
       <g>
              <rect height="23.3432" opacity="0" width="39.1199" x="0" y="0" />
              <path d="M3.82837 15.2256L4.26194 15.2256L4.26194 15.9564C4.26315 16.5487 4.30166 17.0965 4.37431 17.6008C2.82821 17.3688 1.21739 16.4957 0.634099 14.2935C1.92553 15.1262 2.56436 15.2256 3.82837 15.2256ZM16.2845 2.75815L19.4232 4.57942C17.5932 4.47063 15.7765 5.26092 14.3222 7.1613C13.616 8.08127 12.9933 8.36107 12.4347 8.36107C11.8674 8.36107 11.5599 8.27373 10.9802 7.98076C7.85175 6.38023 4.26194 8.31115 4.26194 11.9309L4.26194 13.593L3.82837 13.593C2.23233 13.593 1.12808 13.0475 0.413553 12.2773C0.413553 12.1567 0.411248 12.0413 0.411248 11.9258L0.411248 7.8045C0.411248 5.2937 2.82033 4.17223 4.87402 5.22194C5.65758 5.62057 6.20633 5.80897 7.15657 5.80897C8.20622 5.80897 9.08252 5.33549 10.1459 3.98201C11.8649 1.73112 14.1036 1.48996 16.2845 2.75815ZM31.8791 7.77029C32.1214 8.07113 32.2099 8.41701 32.1644 8.76671C30.9409 8.87566 29.5882 9.06244 29.2302 9.06244C28.7148 9.06244 28.0807 8.85397 27.2955 8.38182L24.0537 6.48755C25.1391 6.40385 27.1265 6.1071 28.142 6.1071C29.7738 6.1071 31.0837 6.75041 31.8791 7.77029Z"
                     fill="currentColor" fill-opacity="0.85" />
              <path d="M9.22585 17.7194L27.0186 17.7194C29.751 17.7194 30.9613 17.3667 32.5592 16.5126L36.2389 14.5387C37.4451 13.8882 37.9419 12.7227 37.2766 11.8967C36.4812 10.8768 35.1712 10.2335 33.5395 10.2335C32.3557 10.2335 29.8512 10.6293 28.9901 10.6293C28.3553 10.6293 28.1989 10.6396 27.7101 10.3726L25.4755 13.3871C25.1832 13.7776 24.6847 13.8167 24.3413 13.5025C23.995 13.22 23.9657 12.7411 24.2282 12.3855L26.3163 9.57947L25.4686 9.0904L23.2225 12.1596C22.9503 12.5323 22.4466 12.5817 22.071 12.2653C21.7299 12 21.6909 11.5084 21.9705 11.1334L24.084 8.27779L23.2438 7.78872L20.9551 10.9097C20.68 11.2732 20.1448 11.3002 19.8037 11.0252C19.4798 10.7501 19.4453 10.2223 19.6957 9.89094L21.842 6.97612L21.6797 6.87712C19.4391 5.72084 17.2601 5.85756 15.5485 8.10844C14.4777 9.46192 13.6037 9.9354 12.554 9.9354C11.6038 9.9354 11.0528 9.74701 10.2715 9.34837C8.2155 8.29866 5.80873 9.42013 5.80873 11.9309L5.80873 16.0523C5.80873 16.1677 5.80873 16.2831 5.80873 16.4037C6.52326 17.174 7.6275 17.7194 9.22585 17.7194ZM36.5774 16.1787L33.2082 17.9839C31.388 18.9627 29.8957 19.3521 27.0186 19.3521L9.22585 19.3521C7.95953 19.3521 7.3207 19.2527 6.03158 18.42C6.73513 21.0762 8.93124 21.7987 10.7107 21.7987L26.7103 21.7987C30.233 21.7987 32.3106 21.2605 34.9683 19.7762C37.2176 18.5281 38.3473 16.862 38.3473 14.946C38.3473 14.8155 38.3427 14.6873 38.3232 14.5689C38.063 15.1694 37.5191 15.6726 36.5774 16.1787Z"
                     fill="currentColor" fill-opacity="0.85" />
       </g>
</svg>