<?xml version="1.0" encoding="UTF-8"?>
<!--Generator: Apple Native CoreSVG 326-->
<!DOCTYPE svg PUBLIC "-//W3C//DTD SVG 1.1//EN" "http://www.w3.org/Graphics/SVG/1.1/DTD/svg11.dtd">
<svg version="1.1" xmlns="http://www.w3.org/2000/svg" xmlns:xlink="http://www.w3.org/1999/xlink"
       viewBox="0 0 19.7925 24.5393">
       <g>
              <rect height="24.5393" opacity="0" width="19.7925" x="0" y="0" />
              <path d="M16.9653 6.84874C14.7344 6.03655 11.6796 8.41991 10.7158 11.0695C10.308 12.2001 9.8708 14.5065 10.0581 16.6262L15.9569 18.7703C17.458 17.2705 18.6172 15.2197 19.0274 14.0846C19.9889 11.4522 19.1962 7.65577 16.9653 6.84874ZM10.7261 23.9965C12.3631 24.5887 13.8536 23.3342 14.6532 21.121C14.729 20.9332 14.8146 20.6626 14.9478 20.2268L9.90483 18.3934C9.7205 18.8171 9.62339 19.0757 9.55503 19.2635C8.748 21.4864 9.08397 23.3871 10.7261 23.9965Z"
                     fill="currentColor" fill-opacity="0.85" />
              <path d="M4.42116 0C2.05066 0 0 3.29496 0 6.106C0 7.31233 0.39293 9.62624 1.29313 11.5558L7.55896 11.5558C8.45685 9.62624 8.85209 7.31233 8.85209 6.106C8.85209 3.29496 6.79397 0 4.42116 0ZM4.43839 18.2529C6.17818 18.2529 7.14771 16.5677 7.14771 14.2103C7.14771 14.0127 7.1431 13.7324 7.1115 13.2742L1.75035 13.2742C1.71875 13.7324 1.71414 14.0127 1.71414 14.2103C1.71414 16.5677 2.68367 18.2529 4.43839 18.2529Z"
                     fill="currentColor" fill-opacity="0.85" />
       </g>
</svg>