<?xml version="1.0" encoding="UTF-8"?>
<!--Generator: Apple Native CoreSVG 326-->
<!DOCTYPE svg PUBLIC "-//W3C//DTD SVG 1.1//EN" "http://www.w3.org/Graphics/SVG/1.1/DTD/svg11.dtd">
<svg version="1.1" xmlns="http://www.w3.org/2000/svg" xmlns:xlink="http://www.w3.org/1999/xlink"
       viewBox="0 0 25.3789 23.2777">
       <g>
              <rect height="23.2777" opacity="0" width="25.3789" x="0" y="0" />
              <path d="M24.0631 4.21639C24.5857 4.21639 25.0175 3.79198 25.0175 3.2619C25.0175 2.73929 24.5857 2.30742 24.0631 2.30742C23.533 2.30742 23.1086 2.73929 23.1086 3.2619C23.1086 3.79198 23.533 4.21639 24.0631 4.21639ZM22.7019 10.8202C23.232 10.8202 23.6564 10.3958 23.6564 9.86571C23.6564 9.3431 23.232 8.91123 22.7019 8.91123C22.1793 8.91123 21.7549 9.3431 21.7549 9.86571C21.7549 10.3958 22.1793 10.8202 22.7019 10.8202ZM19.4978 16.7461C20.0279 16.7461 20.4523 16.3217 20.4523 15.7991C20.4523 15.269 20.0279 14.8446 19.4978 14.8446C18.9729 14.8446 18.5433 15.269 18.5433 15.7991C18.5433 16.3217 18.9729 16.7461 19.4978 16.7461Z"
                     fill="currentColor" fill-opacity="0.85" />
              <path d="M21.0384 4.72462C21.561 4.72462 21.9929 4.29275 21.9929 3.77014C21.9929 3.24007 21.561 2.81565 21.0384 2.81565C20.5083 2.81565 20.0839 3.24007 20.0839 3.77014C20.0839 4.29275 20.5083 4.72462 21.0384 4.72462ZM19.7363 9.74719C20.2589 9.74719 20.6833 9.32278 20.6833 8.7927C20.6833 8.27009 20.2589 7.84568 19.7363 7.84568C19.2062 7.84568 18.7818 8.27009 18.7818 8.7927C18.7818 9.32278 19.2062 9.74719 19.7363 9.74719ZM17.4972 14.4228C18.0273 14.4228 18.4517 13.9984 18.4517 13.4683C18.4517 12.9457 18.0273 12.5138 17.4972 12.5138C16.9746 12.5138 16.5427 12.9457 16.5427 13.4683C16.5427 13.9984 16.9746 14.4228 17.4972 14.4228Z"
                     fill="currentColor" fill-opacity="0.85" />
              <path d="M18.0142 5.21048C18.5392 5.21048 18.971 4.77861 18.971 4.25599C18.971 3.72592 18.5392 3.30151 18.0142 3.30151C17.4842 3.30151 17.0598 3.72592 17.0598 4.25599C17.0598 4.77861 17.4842 5.21048 18.0142 5.21048ZM16.7809 8.66387C17.3133 8.66387 17.7354 8.23946 17.7354 7.71685C17.7354 7.18677 17.3133 6.76236 16.7809 6.76236C16.2583 6.76236 15.8264 7.18677 15.8264 7.71685C15.8264 8.23946 16.2583 8.66387 16.7809 8.66387ZM15.4989 12.0897C16.029 12.0897 16.4534 11.6653 16.4534 11.1427C16.4534 10.6126 16.029 10.1882 15.4989 10.1882C14.9763 10.1882 14.5444 10.6126 14.5444 11.1427C14.5444 11.6653 14.9763 12.0897 15.4989 12.0897Z"
                     fill="currentColor" fill-opacity="0.85" />
              <path d="M14.7458 0.881515L10.7967 11.7289C10.5853 12.2842 10.8828 12.9009 11.4404 13.1048C12.0106 13.3161 12.6199 13.0164 12.8163 12.4708L16.7678 1.616C16.9619 1.06585 16.6868 0.449098 16.124 0.237772C15.5664 0.0413674 14.9399 0.333669 14.7458 0.881515ZM2.33362 18.8191C3.57592 19.2625 4.79122 18.6669 5.22485 17.4688L8.68789 8.0487L7.40932 8.66939C8.0974 10.4251 9.50802 11.4833 11.3679 12.0709L12.0489 10.2028C9.79735 9.47733 8.60255 8.04124 8.67309 6.04808L8.09079 5.84421C7.76064 5.71617 7.38627 5.89359 7.26053 6.22604L3.45734 16.6804C3.378 16.9017 3.15612 17.0166 2.94061 16.9442C2.74693 16.8866 2.64345 16.6706 2.72049 16.4659L7.18028 4.2526C7.40204 3.64877 8.00994 3.37412 8.604 3.58841L9.43899 3.88302C10.6775 2.32756 12.5186 1.984 14.7271 2.86333L15.3932 1.00507C12.9716 0.0424594 10.6333 0.282657 8.92275 1.66816L8.73951 1.59234C7.30705 1.03582 5.96589 1.91394 5.35878 3.6037L0.896679 15.8808C0.455588 17.0886 0.924338 18.316 2.33362 18.8191ZM3.61298 17.8775L1.95573 17.2676L0 22.6627L1.65725 23.2777Z"
                     fill="currentColor" fill-opacity="0.85" />
       </g>
</svg>