<?xml version="1.0" encoding="UTF-8"?>
<!--Generator: Apple Native CoreSVG 326-->
<!DOCTYPE svg PUBLIC "-//W3C//DTD SVG 1.1//EN" "http://www.w3.org/Graphics/SVG/1.1/DTD/svg11.dtd">
<svg version="1.1" xmlns="http://www.w3.org/2000/svg" xmlns:xlink="http://www.w3.org/1999/xlink"
       viewBox="0 0 26.0617 15.2745">
       <g>
              <rect height="15.2745" opacity="0" width="26.0617" x="0" y="0" />
              <path d="M23.7658 1.90951C24.2959 1.90951 24.7203 1.47764 24.7203 0.95503C24.7203 0.424957 24.2959 0.000545979 23.7658 0.000545979C23.2432 0.000545979 22.8188 0.424957 22.8188 0.95503C22.8188 1.47764 23.2432 1.90951 23.7658 1.90951ZM24.7459 8.59199C25.276 8.59199 25.7004 8.16012 25.7004 7.63751C25.7004 7.10744 25.276 6.68303 24.7459 6.68303C24.2233 6.68303 23.7914 7.10744 23.7914 7.63751C23.7914 8.16012 24.2233 8.59199 24.7459 8.59199ZM23.7756 15.2745C24.2982 15.2745 24.7226 14.8426 24.7226 14.3177C24.7226 13.7951 24.2982 13.3632 23.7756 13.3632C23.2455 13.3632 22.8211 13.7951 22.8211 14.3177C22.8211 14.8426 23.2455 15.2745 23.7756 15.2745Z"
                     fill="currentColor" fill-opacity="0.85" />
              <path d="M21.0967 3.41087C21.6193 3.41087 22.0512 2.98646 22.0512 2.45639C22.0512 1.93147 21.6193 1.50191 21.0967 1.50191C20.5666 1.50191 20.1422 1.93147 20.1422 2.45639C20.1422 2.98646 20.5666 3.41087 21.0967 3.41087ZM21.597 8.59199C22.1271 8.59199 22.5515 8.16012 22.5515 7.63751C22.5515 7.10744 22.1271 6.68303 21.597 6.68303C21.0744 6.68303 20.65 7.10744 20.65 7.63751C20.65 8.16012 21.0744 8.59199 21.597 8.59199ZM21.099 13.7657C21.6216 13.7657 22.0535 13.3412 22.0535 12.8186C22.0535 12.2886 21.6216 11.8641 21.099 11.8641C20.5689 11.8641 20.1445 12.2886 20.1445 12.8186C20.1445 13.3412 20.5689 13.7657 21.099 13.7657Z"
                     fill="currentColor" fill-opacity="0.85" />
              <path d="M18.4177 4.91969C18.9501 4.91969 19.3722 4.48782 19.3722 3.96521C19.3722 3.43514 18.9501 3.01073 18.4177 3.01073C17.8951 3.01073 17.4632 3.43514 17.4632 3.96521C17.4632 4.48782 17.8951 4.91969 18.4177 4.91969ZM18.4533 8.59199C18.9782 8.59199 19.4003 8.16012 19.4003 7.63751C19.4003 7.10744 18.9782 6.68303 18.4533 6.68303C17.9232 6.68303 17.4988 7.10744 17.4988 7.63751C17.4988 8.16012 17.9232 8.59199 18.4533 8.59199ZM18.42 12.2643C18.9524 12.2643 19.3745 11.8399 19.3745 11.3098C19.3745 10.7872 18.9524 10.3553 18.42 10.3553C17.8974 10.3553 17.473 10.7872 17.473 11.3098C17.473 11.8399 17.8974 12.2643 18.42 12.2643Z"
                     fill="currentColor" fill-opacity="0.85" />
              <path d="M2.30651 12.4324C4.12376 12.4324 5.16505 11.2291 5.16505 9.20165L5.16505 6.10036C5.16505 4.07287 4.12376 2.86218 2.30651 2.86218L1.34839 2.86218C0.518549 2.86218 0 3.38073 0 4.21802L0 11.084C0 11.9138 0.518549 12.4324 1.34839 12.4324ZM11.9584 14.3894C13.0887 14.3894 13.8393 13.6463 13.8393 12.5086L13.8393 2.786C13.8393 1.64827 13.0887 0.912571 11.9584 0.912571L10.6113 0.912571C7.73134 0.912571 5.89565 2.74311 5.89565 5.62306L5.89565 9.67379C5.89565 12.5537 7.73134 14.3894 10.6113 14.3894ZM7.5384 10.0635L7.5384 5.10354L3.89679 5.10354L3.89679 10.0635ZM14.825 12.215C15.7466 11.9269 16.3028 11.0642 16.3028 9.87208L16.3028 5.43224C16.3028 4.2304 15.7466 3.36763 14.825 3.06974Z"
                     fill="currentColor" fill-opacity="0.85" />
       </g>
</svg>