<?xml version="1.0" encoding="UTF-8"?>
<!--Generator: Apple Native CoreSVG 326-->
<!DOCTYPE svg PUBLIC "-//W3C//DTD SVG 1.1//EN" "http://www.w3.org/Graphics/SVG/1.1/DTD/svg11.dtd">
<svg version="1.1" xmlns="http://www.w3.org/2000/svg" xmlns:xlink="http://www.w3.org/1999/xlink"
       viewBox="0 0 18.4319 24.122">
       <g>
              <rect height="24.122" opacity="0" width="18.4319" x="0" y="0" />
              <path d="M3.6592 24.122C4.18927 24.122 4.61368 23.6901 4.61368 23.1675C4.61368 22.6375 4.18927 22.213 3.6592 22.213C3.13659 22.213 2.70472 22.6375 2.70472 23.1675C2.70472 23.6901 3.13659 24.122 3.6592 24.122ZM7.12236 24.122C7.65243 24.122 8.07684 23.6901 8.07684 23.1675C8.07684 22.6375 7.65243 22.213 7.12236 22.213C6.59974 22.213 6.16787 22.6375 6.16787 23.1675C6.16787 23.6901 6.59974 24.122 7.12236 24.122ZM10.5832 24.122C11.1133 24.122 11.5377 23.6901 11.5377 23.1675C11.5377 22.6375 11.1133 22.213 10.5832 22.213C10.0606 22.213 9.62873 22.6375 9.62873 23.1675C9.62873 23.6901 10.0606 24.122 10.5832 24.122Z"
                     fill="currentColor" fill-opacity="0.85" />
              <path d="M3.6592 20.9731C4.18927 20.9731 4.61368 20.5487 4.61368 20.0186C4.61368 19.496 4.18927 19.0641 3.6592 19.0641C3.13659 19.0641 2.70472 19.496 2.70472 20.0186C2.70472 20.5487 3.13659 20.9731 3.6592 20.9731ZM7.12236 20.9731C7.65243 20.9731 8.07684 20.5487 8.07684 20.0186C8.07684 19.496 7.65243 19.0641 7.12236 19.0641C6.59974 19.0641 6.16787 19.496 6.16787 20.0186C6.16787 20.5487 6.59974 20.9731 7.12236 20.9731ZM10.5832 20.9731C11.1133 20.9731 11.5377 20.5487 11.5377 20.0186C11.5377 19.496 11.1133 19.0641 10.5832 19.0641C10.0606 19.0641 9.62873 19.496 9.62873 20.0186C9.62873 20.5487 10.0606 20.9731 10.5832 20.9731Z"
                     fill="currentColor" fill-opacity="0.85" />
              <path d="M3.6592 17.8219C4.18927 17.8219 4.61368 17.3998 4.61368 16.8674C4.61368 16.3448 4.18927 15.9204 3.6592 15.9204C3.13659 15.9204 2.70472 16.3448 2.70472 16.8674C2.70472 17.3998 3.13659 17.8219 3.6592 17.8219ZM7.12236 17.8219C7.65243 17.8219 8.07684 17.3998 8.07684 16.8674C8.07684 16.3448 7.65243 15.9204 7.12236 15.9204C6.59974 15.9204 6.16787 16.3448 6.16787 16.8674C6.16787 17.3998 6.59974 17.8219 7.12236 17.8219ZM10.5832 17.8219C11.1133 17.8219 11.5377 17.3998 11.5377 16.8674C11.5377 16.3448 11.1133 15.9204 10.5832 15.9204C10.0606 15.9204 9.62873 16.3448 9.62873 16.8674C9.62873 17.3998 10.0606 17.8219 10.5832 17.8219Z"
                     fill="currentColor" fill-opacity="0.85" />
              <path d="M12.3458 0.497442L9.25915 0.497442C7.21104 0.497442 5.91475 1.78165 5.91475 3.78324L5.91475 5.94217L8.3518 5.94217L8.3518 3.78324C8.3518 3.18972 8.6168 2.93679 9.25915 2.93679L12.3458 2.93679C14.4253 2.93679 15.6336 4.25242 15.6336 6.50312L15.6336 22.3756C15.6336 23.0762 16.1452 23.6125 16.8584 23.6125C17.5641 23.6125 18.0706 23.0687 18.0706 22.3756L18.0706 6.50312C18.0706 2.85181 15.8483 0.497442 12.3458 0.497442ZM7.12466 6.30635C7.55053 6.30635 7.84823 6.60405 7.84823 7.01269L7.84823 9.13026C10.0016 9.58124 11.262 11.0088 11.262 13.4022L13.4785 13.4022C13.4785 10.8514 12.1584 8.65101 10.0377 7.54829L10.0377 7.01269C10.0377 5.34423 8.82989 4.10939 7.12466 4.10939C5.4269 4.10939 4.21159 5.34423 4.21159 7.01269L4.21159 7.54829C2.09324 8.65101 0.770817 10.8514 0.770817 13.4022L2.99708 13.4022C2.99708 11.0088 4.25005 9.58124 6.40856 9.13026L6.40856 7.01269C6.40856 6.60405 6.6988 6.30635 7.12466 6.30635ZM1.09963 12.5027C0.494408 12.5027 0 12.9971 0 13.6024C0 14.2076 0.494408 14.6997 1.09963 14.6997L13.1669 14.6997C13.7647 14.6997 14.2642 14.2076 14.2642 13.6024C14.2642 12.9971 13.7647 12.5027 13.1669 12.5027Z"
                     fill="currentColor" fill-opacity="0.85" />
       </g>
</svg>