<?xml version="1.0" encoding="UTF-8"?>
<!--Generator: Apple Native CoreSVG 326-->
<!DOCTYPE svg PUBLIC "-//W3C//DTD SVG 1.1//EN" "http://www.w3.org/Graphics/SVG/1.1/DTD/svg11.dtd">
<svg version="1.1" xmlns="http://www.w3.org/2000/svg" xmlns:xlink="http://www.w3.org/1999/xlink"
       viewBox="0 0 21.365 21.006">
       <g>
              <rect height="21.006" opacity="0" width="21.365" x="0" y="0" />
              <path d="M10.4981 20.9962C16.302 20.9962 21.0037 16.2946 21.0037 10.4981C21.0037 4.70163 16.302 0 10.4981 0C4.70163 0 0 4.70163 0 10.4981C0 16.2946 4.70163 20.9962 10.4981 20.9962ZM10.4981 17.9484C6.37829 17.9484 3.04785 14.6179 3.04785 10.4981C3.04785 6.37829 6.37829 3.04785 10.4981 3.04785C14.6179 3.04785 17.9558 6.37829 17.9558 10.4981C17.9558 14.6179 14.6179 17.9484 10.4981 17.9484Z"
                     fill="currentColor" fill-opacity="0.85" />
              <path d="M4.47557 13.0258C4.47557 13.4324 4.79147 13.7362 5.24232 13.7362L6.35221 13.7362C7.24603 13.7362 7.81299 13.4674 8.46498 12.7327L11.474 9.23592C11.8319 8.81709 12.0997 8.68091 12.5547 8.68091L13.3096 8.68091L13.3096 9.47842C13.3096 9.83854 13.5646 10.0935 13.915 10.0935C14.0913 10.0935 14.2579 10.0298 14.3681 9.90975L16.1927 8.38224C16.477 8.14447 16.4867 7.73553 16.2174 7.48799L14.3435 5.91627C14.2309 5.82323 14.0741 5.7744 13.915 5.7744C13.5474 5.7744 13.3096 6.00471 13.3096 6.36482L13.3096 7.25999L12.5082 7.25999C11.6144 7.25999 11.0451 7.52881 10.3931 8.26354L7.40131 11.7603C7.04108 12.1814 6.79803 12.3153 6.3792 12.3153L5.24232 12.3153C4.80869 12.3153 4.47557 12.6289 4.47557 13.0258ZM4.47557 7.97045C4.47557 8.36732 4.80869 8.68091 5.24232 8.68091L6.3792 8.68091C6.79057 8.68091 7.04338 8.81709 7.40131 9.23592L10.3931 12.7327C11.0451 13.4674 11.6144 13.7362 12.5082 13.7362L13.3096 13.7362L13.3096 14.6607C13.3096 15.0283 13.5474 15.2586 13.915 15.2586C14.0741 15.2586 14.2309 15.2097 14.3435 15.1092L16.1927 13.5547C16.4867 13.3072 16.4942 12.9155 16.2099 12.6703L14.3681 11.1232C14.2579 11.0032 14.0913 10.932 13.915 10.932C13.5646 10.932 13.3096 11.187 13.3096 11.5471L13.3096 12.3153L12.5547 12.3153C12.0922 12.3153 11.8245 12.1791 11.474 11.7603L8.46498 8.26354C7.81299 7.52881 7.24603 7.25999 6.35221 7.25999L5.24232 7.25999C4.79147 7.25999 4.47557 7.55635 4.47557 7.97045Z"
                     fill="currentColor" fill-opacity="0.85" />
       </g>
</svg>