<?xml version="1.0" encoding="UTF-8"?>
<!--Generator: Apple Native CoreSVG 326-->
<!DOCTYPE svg PUBLIC "-//W3C//DTD SVG 1.1//EN" "http://www.w3.org/Graphics/SVG/1.1/DTD/svg11.dtd">
<svg version="1.1" xmlns="http://www.w3.org/2000/svg" xmlns:xlink="http://www.w3.org/1999/xlink"
       viewBox="0 0 23.8214 19.0575">
       <g>
              <rect height="19.0575" opacity="0" width="23.8214" x="0" y="0" />
              <path d="M3.64834 19.0575L19.8117 19.0575C22.1386 19.0575 23.4601 17.736 23.4601 15.4183L23.4601 3.65865C23.4601 1.33358 22.1386 0.0195312 19.8117 0.0195312L3.64834 0.0195312C1.32382 0.0195312 0 1.33128 0 3.65865L0 15.4183C0 17.7383 1.32382 19.0575 3.64834 19.0575ZM4.05583 16.0378C3.37024 16.0378 3.01964 15.7217 3.01964 14.9896L3.01964 4.07997C3.01964 3.34785 3.37024 3.03918 4.05583 3.03918L19.4042 3.03918C20.0875 3.03918 20.4404 3.34785 20.4404 4.07997L20.4404 14.9896C20.4404 15.7217 20.0875 16.0378 19.4042 16.0378ZM8.79926 16.3629L11.5486 16.3629L11.5486 2.60445L8.79926 2.60445ZM5.1978 7.21474L6.64063 7.21474C7.0489 7.21474 7.27406 7.00911 7.27406 6.60369L7.27406 5.20278C7.27406 4.78759 7.05121 4.58196 6.64063 4.58196L5.1978 4.58196C4.77515 4.58196 4.5523 4.78759 4.5523 5.20278L4.5523 6.60369C4.5523 7.00911 4.77746 7.21474 5.1978 7.21474ZM5.1978 10.8463L6.64063 10.8463C7.0489 10.8463 7.27406 10.6435 7.27406 10.2352L7.27406 8.8297C7.27406 8.41912 7.05121 8.21635 6.64063 8.21635L5.1978 8.21635C4.77515 8.21635 4.5523 8.41912 4.5523 8.8297L4.5523 10.2352C4.5523 10.6435 4.77746 10.8463 5.1978 10.8463ZM5.1978 14.4881L6.64063 14.4881C7.0489 14.4881 7.27406 14.275 7.27406 13.8622L7.27406 12.4612C7.27406 12.0633 7.05121 11.8479 6.64063 11.8479L5.1978 11.8479C4.77515 11.8479 4.5523 12.0633 4.5523 12.4612L4.5523 13.8622C4.5523 14.275 4.77746 14.4881 5.1978 14.4881Z"
                     fill="currentColor" fill-opacity="0.85" />
       </g>
</svg>