<?xml version="1.0" encoding="UTF-8"?>
<!--Generator: Apple Native CoreSVG 326-->
<!DOCTYPE svg PUBLIC "-//W3C//DTD SVG 1.1//EN" "http://www.w3.org/Graphics/SVG/1.1/DTD/svg11.dtd">
<svg version="1.1" xmlns="http://www.w3.org/2000/svg" xmlns:xlink="http://www.w3.org/1999/xlink"
       viewBox="0 0 23.8214 19.0575">
       <g>
              <rect height="19.0575" opacity="0" width="23.8214" x="0" y="0" />
              <path d="M3.64834 19.0575L19.8117 19.0575C22.1386 19.0575 23.4601 17.736 23.4601 15.4183L23.4601 3.65865C23.4601 1.33358 22.1386 0.0195312 19.8117 0.0195312L3.64834 0.0195312C1.32382 0.0195312 0 1.33128 0 3.65865L0 15.4183C0 17.7383 1.32382 19.0575 3.64834 19.0575ZM4.05583 16.0378C3.37024 16.0378 3.01964 15.7217 3.01964 14.9896L3.01964 4.07997C3.01964 3.34785 3.37024 3.03918 4.05583 3.03918L19.4042 3.03918C20.0875 3.03918 20.4404 3.34785 20.4404 4.07997L20.4404 14.9896C20.4404 15.7217 20.0875 16.0378 19.4042 16.0378ZM8.79926 16.3629L11.5486 16.3629L11.5486 2.60445L8.79926 2.60445ZM6.77504 6.46078C7.28437 6.46078 7.6898 6.06282 7.6898 5.60056C7.6898 5.13599 7.28437 4.73287 6.77504 4.73287L5.05593 4.73287C4.5466 4.73287 4.14348 5.13599 4.14348 5.60056C4.14348 6.06282 4.5466 6.46078 5.05593 6.46078ZM6.77504 9.35565C7.28437 9.35565 7.6898 8.95769 7.6898 8.49312C7.6898 8.02856 7.28437 7.6352 6.77504 7.6352L5.05593 7.6352C4.5466 7.6352 4.14348 8.02856 4.14348 8.49312C4.14348 8.95769 4.5466 9.35565 5.05593 9.35565ZM6.77504 12.2557C7.28437 12.2557 7.6898 11.8549 7.6898 11.3903C7.6898 10.9257 7.28437 10.5301 6.77504 10.5301L5.05593 10.5301C4.5466 10.5301 4.14348 10.9257 4.14348 11.3903C4.14348 11.8549 4.5466 12.2557 5.05593 12.2557Z"
                     fill="currentColor" fill-opacity="0.85" />
       </g>
</svg>