<?xml version="1.0" encoding="UTF-8"?>
<!--Generator: Apple Native CoreSVG 326-->
<!DOCTYPE svg PUBLIC "-//W3C//DTD SVG 1.1//EN" "http://www.w3.org/Graphics/SVG/1.1/DTD/svg11.dtd">
<svg version="1.1" xmlns="http://www.w3.org/2000/svg" xmlns:xlink="http://www.w3.org/1999/xlink"
       viewBox="0 0 23.8214 19.0575">
       <g>
              <rect height="19.0575" opacity="0" width="23.8214" x="0" y="0" />
              <path d="M3.64834 19.0575L19.8117 19.0575C22.1386 19.0575 23.4601 17.736 23.4601 15.4183L23.4601 3.65865C23.4601 1.33358 22.1386 0.0195312 19.8117 0.0195312L3.64834 0.0195312C1.32382 0.0195312 0 1.33128 0 3.65865L0 15.4183C0 17.7383 1.32382 19.0575 3.64834 19.0575ZM4.05583 16.0378C3.37024 16.0378 3.01964 15.7217 3.01964 14.9896L3.01964 4.07997C3.01964 3.34785 3.37024 3.03918 4.05583 3.03918L19.4042 3.03918C20.0875 3.03918 20.4404 3.34785 20.4404 4.07997L20.4404 14.9896C20.4404 15.7217 20.0875 16.0378 19.4042 16.0378ZM11.8886 16.3629L14.6304 16.3629L14.6304 2.60445L11.8886 2.60445ZM18.2393 7.21474C18.6597 7.21474 18.8825 7.00911 18.8825 6.60369L18.8825 5.20278C18.8825 4.78759 18.662 4.58196 18.2393 4.58196L16.7965 4.58196C16.3859 4.58196 16.1631 4.78759 16.1631 5.20278L16.1631 6.60369C16.1631 7.00911 16.3882 7.21474 16.7965 7.21474ZM18.2393 10.8463C18.6597 10.8463 18.8825 10.6435 18.8825 10.2352L18.8825 8.8297C18.8825 8.41912 18.662 8.21635 18.2393 8.21635L16.7965 8.21635C16.3859 8.21635 16.1631 8.41912 16.1631 8.8297L16.1631 10.2352C16.1631 10.6435 16.3882 10.8463 16.7965 10.8463ZM18.2393 14.4881C18.6597 14.4881 18.8825 14.275 18.8825 13.8622L18.8825 12.4612C18.8825 12.0633 18.662 11.8479 18.2393 11.8479L16.7965 11.8479C16.3859 11.8479 16.1631 12.0633 16.1631 12.4612L16.1631 13.8622C16.1631 14.275 16.3882 14.4881 16.7965 14.4881Z"
                     fill="currentColor" fill-opacity="0.85" />
       </g>
</svg>