<?xml version="1.0" encoding="UTF-8"?>
<!--Generator: Apple Native CoreSVG 326-->
<!DOCTYPE svg PUBLIC "-//W3C//DTD SVG 1.1//EN" "http://www.w3.org/Graphics/SVG/1.1/DTD/svg11.dtd">
<svg version="1.1" xmlns="http://www.w3.org/2000/svg" xmlns:xlink="http://www.w3.org/1999/xlink"
       viewBox="0 0 20.7508 21.8296">
       <g>
              <rect height="21.8296" opacity="0" width="20.7508" x="0" y="0" />
              <path d="M2.75166 13.5927L15.1601 13.5829C16.086 13.5829 16.6431 13.3267 17.3128 12.6766L19.7784 10.2982C21.0719 9.04619 21.0788 7.73905 19.7761 6.468L17.3128 4.09428C16.6431 3.44933 16.086 3.18566 15.1624 3.18566L2.75166 3.18566C1.11765 3.18566 0.13672 4.14706 0.13672 5.76154L0.13672 11.007C0.13672 12.629 1.11765 13.5927 2.75166 13.5927ZM3.31298 10.767C3.12215 10.767 2.99399 10.644 2.99399 10.4583L2.99399 6.31023C2.99399 6.12457 3.12215 6.00386 3.31298 6.00386L14.9494 6.00386C15.1661 6.00386 15.3029 6.05445 15.4213 6.1757L17.5151 8.17013C17.6571 8.30006 17.6571 8.46619 17.5151 8.60358L15.4637 10.5579C15.2782 10.7313 15.2109 10.767 14.9471 10.767ZM8.05064 5.31141L10.7196 5.31141L10.7196 1.33565C10.7196 0.607532 10.1196 0 9.38398 0C8.65586 0 8.05064 0.600071 8.05064 1.33565ZM8.05064 12.2825L8.05064 20.8958L10.7196 20.8958L10.7196 12.2825ZM4.2088 20.4469C4.2088 21.175 4.80887 21.7802 5.54445 21.7802L13.2356 21.7802C13.9637 21.7802 14.5712 21.1824 14.5712 20.4469C14.5712 19.7187 13.9712 19.1112 13.2356 19.1112L5.54445 19.1112C4.81633 19.1112 4.2088 19.7113 4.2088 20.4469Z"
                     fill="currentColor" fill-opacity="0.85" />
       </g>
</svg>