<?xml version="1.0" encoding="UTF-8"?>
<!--Generator: Apple Native CoreSVG 326-->
<!DOCTYPE svg PUBLIC "-//W3C//DTD SVG 1.1//EN" "http://www.w3.org/Graphics/SVG/1.1/DTD/svg11.dtd">
<svg version="1.1" xmlns="http://www.w3.org/2000/svg" xmlns:xlink="http://www.w3.org/1999/xlink"
       viewBox="0 0 21.365 21.006">
       <g>
              <rect height="21.006" opacity="0" width="21.365" x="0" y="0" />
              <path d="M10.4981 20.9962C16.302 20.9962 21.0037 16.2946 21.0037 10.4981C21.0037 4.70163 16.302 0 10.4981 0C4.70163 0 0 4.70163 0 10.4981C0 16.2946 4.70163 20.9962 10.4981 20.9962ZM10.4981 17.9484C6.37829 17.9484 3.04785 14.6179 3.04785 10.4981C3.04785 6.37829 6.37829 3.04785 10.4981 3.04785C14.6179 3.04785 17.9558 6.37829 17.9558 10.4981C17.9558 14.6179 14.6179 17.9484 10.4981 17.9484Z"
                     fill="currentColor" fill-opacity="0.85" />
              <path d="M6.04802 10.7708C6.04802 11.5382 6.50809 12.0057 7.28528 12.0057L9.8244 12.0057L9.8244 14.4161L8.65216 14.4161C8.28459 14.4161 7.98592 14.7222 7.98592 15.0972C7.98592 15.4573 8.28459 15.7537 8.65216 15.7537L12.3544 15.7537C12.7145 15.7537 13.0281 15.455 13.0281 15.0972C13.0281 14.7222 12.7219 14.4161 12.3544 14.4161L11.1844 14.4161L11.1844 12.0057L13.7138 12.0057C14.4835 12.0057 14.9459 11.5382 14.9459 10.7708L14.9459 7.74887C14.9459 6.98145 14.4835 6.5363 13.7138 6.5363L11.1844 6.5363L11.1844 5.8766C11.1844 5.51649 10.8783 5.21266 10.4958 5.21266C10.1357 5.21266 9.8244 5.51649 9.8244 5.8766L9.8244 6.5363L7.28528 6.5363C6.50809 6.5363 6.04802 6.98145 6.04802 7.74887ZM9.11291 9.70806L10.1856 8.24516C10.3516 8.01594 10.6497 8.00618 10.8181 8.24516L11.881 9.70806C12.0958 10.0131 11.9959 10.3141 11.6598 10.3141L9.34619 10.3141C8.99572 10.3141 8.89806 10.0131 9.11291 9.70806Z"
                     fill="currentColor" fill-opacity="0.85" />
       </g>
</svg>