<?xml version="1.0" encoding="UTF-8"?>
<!--Generator: Apple Native CoreSVG 326-->
<!DOCTYPE svg PUBLIC "-//W3C//DTD SVG 1.1//EN" "http://www.w3.org/Graphics/SVG/1.1/DTD/svg11.dtd">
<svg version="1.1" xmlns="http://www.w3.org/2000/svg" xmlns:xlink="http://www.w3.org/1999/xlink"
       viewBox="0 0 21.365 21.006">
       <g>
              <rect height="21.006" opacity="0" width="21.365" x="0" y="0" />
              <path d="M21.0037 10.5079C21.0037 16.3043 16.302 21.006 10.4981 21.006C4.70394 21.006 0 16.3043 0 10.5079C0 4.7137 4.70394 0.00976562 10.4981 0.00976562C16.302 0.00976562 21.0037 4.7137 21.0037 10.5079ZM9.76526 5.23068L9.76526 5.83693L8.85166 5.83693C8.35537 5.83693 8.03202 6.16545 8.03202 6.6715L8.03202 8.60061C8.03202 9.08943 8.35537 9.41279 8.8442 9.41279L9.76526 9.41279L9.76526 10.0816L7.3301 10.0816C7.0446 10.0816 6.83206 10.1522 6.64881 10.3504L5.63495 11.3275C5.25178 11.6912 5.24948 12.0329 5.6401 12.4017L6.64881 13.3765C6.83206 13.5621 7.03944 13.6402 7.3301 13.6402L9.76526 13.6402L9.76526 14.8384L8.63924 14.8384C8.23952 14.8384 7.91101 15.1594 7.91101 15.5689C7.91101 15.9612 8.23952 16.2747 8.63924 16.2747L12.3575 16.2747C12.7521 16.2747 13.0783 15.9612 13.0783 15.5689C13.0783 15.1669 12.7595 14.8384 12.3575 14.8384L11.224 14.8384L11.224 13.6402L12.1078 13.6402C12.6041 13.6402 12.9297 13.3192 12.9297 12.8355L12.9297 10.8938C12.9297 10.3975 12.6041 10.0816 12.1078 10.0816L11.224 10.0816L11.224 9.41279L13.6294 9.41279C13.9126 9.41279 14.1274 9.33467 14.3106 9.14681L15.3268 8.17201C15.71 7.80553 15.71 7.46142 15.3171 7.09033L14.3106 6.10576C14.1274 5.92252 13.9223 5.83693 13.6294 5.83693L11.224 5.83693L11.224 5.23068C11.224 4.84587 10.8978 4.51736 10.4958 4.51736C10.1012 4.51736 9.76526 4.84587 9.76526 5.23068Z"
                     fill="currentColor" fill-opacity="0.85" />
       </g>
</svg>