<?xml version="1.0" encoding="UTF-8"?>
<!--Generator: Apple Native CoreSVG 326-->
<!DOCTYPE svg PUBLIC "-//W3C//DTD SVG 1.1//EN" "http://www.w3.org/Graphics/SVG/1.1/DTD/svg11.dtd">
<svg version="1.1" xmlns="http://www.w3.org/2000/svg" xmlns:xlink="http://www.w3.org/1999/xlink"
       viewBox="0 0 21.365 21.006">
       <g>
              <rect height="21.006" opacity="0" width="21.365" x="0" y="0" />
              <path d="M10.4981 20.9962C16.302 20.9962 21.0037 16.2946 21.0037 10.4981C21.0037 4.70163 16.302 0 10.4981 0C4.70163 0 0 4.70163 0 10.4981C0 16.2946 4.70163 20.9962 10.4981 20.9962ZM10.4981 17.9484C6.37829 17.9484 3.04785 14.6179 3.04785 10.4981C3.04785 6.37829 6.37829 3.04785 10.4981 3.04785C14.6179 3.04785 17.9558 6.37829 17.9558 10.4981C17.9558 14.6179 14.6179 17.9484 10.4981 17.9484Z"
                     fill="currentColor" fill-opacity="0.85" />
              <path d="M8.95271 9.45986L9.8221 9.45986L9.8221 10.0965L7.5299 10.0965C7.26162 10.0965 7.06631 10.1597 6.88822 10.3406L5.94096 11.2512C5.58479 11.5953 5.58479 11.9147 5.94842 12.2662L6.88822 13.1819C7.06631 13.3502 7.25647 13.4283 7.5299 13.4283L9.8221 13.4283L9.8221 14.5576L8.74545 14.5576C8.37788 14.5576 8.07635 14.8516 8.07635 15.2364C8.07635 15.6063 8.37788 15.9027 8.74545 15.9027L12.2392 15.9027C12.6091 15.9027 12.9204 15.6063 12.9204 15.2364C12.9204 14.8666 12.6166 14.5576 12.2392 14.5576L11.1821 14.5576L11.1821 13.4283L12.0044 13.4283C12.4663 13.4283 12.7747 13.1222 12.7747 12.6655L12.7747 10.8496C12.7747 10.3854 12.4663 10.0965 12.0044 10.0965L11.1821 10.0965L11.1821 9.45986L13.4347 9.45986C13.7007 9.45986 13.8983 9.38173 14.0764 9.20595L15.026 8.29775C15.3798 7.95595 15.3798 7.63654 15.0162 7.28267L14.0764 6.3647C13.8983 6.19123 13.7105 6.1131 13.4347 6.1131L11.1821 6.1131L11.1821 5.5413C11.1821 5.17372 10.8708 4.86759 10.4935 4.86759C10.1236 4.86759 9.8221 5.17372 9.8221 5.5413L9.8221 6.1131L8.96017 6.1131C8.49834 6.1131 8.1899 6.41693 8.1899 6.88337L8.1899 8.69935C8.1899 9.15373 8.49834 9.45986 8.95271 9.45986Z"
                     fill="currentColor" fill-opacity="0.85" />
       </g>
</svg>