<?xml version="1.0" encoding="UTF-8"?>
<!--Generator: Apple Native CoreSVG 326-->
<!DOCTYPE svg PUBLIC "-//W3C//DTD SVG 1.1//EN" "http://www.w3.org/Graphics/SVG/1.1/DTD/svg11.dtd">
<svg version="1.1" xmlns="http://www.w3.org/2000/svg" xmlns:xlink="http://www.w3.org/1999/xlink"
       viewBox="0 0 20.9177 23.3289">
       <g>
              <rect height="23.3289" opacity="0" width="20.9177" x="0" y="0" />
              <path d="M8.97584 3.06301L11.6448 3.06301L11.6448 1.33565C11.6448 0.607532 11.0448 0 10.3092 0C9.58107 0 8.97584 0.600071 8.97584 1.33565ZM7.01762 9.67877L16.5697 9.67877C17.1487 9.67877 17.5766 9.51506 17.9678 9.14111L19.992 7.18987C20.7497 6.46151 20.7497 5.7946 19.965 5.01971L17.9678 3.06616C17.5864 2.69452 17.1734 2.54058 16.5944 2.54058L7.02508 2.54058C6.04403 2.54058 5.37724 3.18323 5.37724 4.1712L5.37724 8.04815C5.37724 9.03381 6.03657 9.67877 7.01762 9.67877ZM3.96432 18.151L13.5313 18.151C14.5147 18.151 15.1717 17.5061 15.1717 16.5204L15.1717 12.6411C15.1717 11.6555 14.5147 11.0105 13.5313 11.0105L3.96947 11.0105C3.39276 11.0105 2.97975 11.1668 2.58858 11.5459L0.571278 13.492C-0.190987 14.2347-0.193292 14.9039 0.581589 15.6644L2.58858 17.6208C2.97459 17.9873 3.3876 18.151 3.96432 18.151ZM8.97584 12.307L11.6448 12.307L11.6448 8.36847L8.97584 8.36847ZM8.97584 22.2021L11.6448 22.2021L11.6448 17.5698L8.97584 17.5698ZM6.59455 23.3076L14.0364 23.3076C14.7571 23.3076 15.3698 22.7024 15.3698 21.9668C15.3698 21.2461 14.772 20.6311 14.0364 20.6311L6.59455 20.6311C5.86643 20.6311 5.25374 21.2312 5.25374 21.9668C5.25374 22.6949 5.85151 23.3076 6.59455 23.3076Z"
                     fill="currentColor" fill-opacity="0.85" />
       </g>
</svg>