<?xml version="1.0" encoding="UTF-8"?>
<!--Generator: Apple Native CoreSVG 326-->
<!DOCTYPE svg PUBLIC "-//W3C//DTD SVG 1.1//EN" "http://www.w3.org/Graphics/SVG/1.1/DTD/svg11.dtd">
<svg version="1.1" xmlns="http://www.w3.org/2000/svg" xmlns:xlink="http://www.w3.org/1999/xlink"
       viewBox="0 0 21.365 21.006">
       <g>
              <rect height="21.006" opacity="0" width="21.365" x="0" y="0" />
              <path d="M21.0037 10.5079C21.0037 16.3043 16.302 21.006 10.4981 21.006C4.70394 21.006 0 16.3043 0 10.5079C0 4.7137 4.70394 0.00976562 10.4981 0.00976562C16.302 0.00976562 21.0037 4.7137 21.0037 10.5079ZM9.76296 5.92634L9.76296 6.82557L7.30263 6.82557C6.52951 6.82557 6.06658 7.26896 6.06658 8.0524L6.06658 10.559C6.06658 11.3275 6.52951 11.7881 7.30263 11.7881L9.76296 11.7881L9.76296 14.3612L8.64713 14.3612C8.2451 14.3612 7.91659 14.6822 7.91659 15.0992C7.91659 15.4989 8.2451 15.8199 8.64713 15.8199L12.3376 15.8199C12.7321 15.8199 13.0681 15.4989 13.0681 15.0992C13.0681 14.6822 12.7321 14.3612 12.3376 14.3612L11.2143 14.3612L11.2143 11.7881L13.2654 11.7881C13.7072 11.7881 13.9668 11.6589 14.293 11.3551L15.4691 10.2175C16.0882 9.61787 16.0928 8.98838 15.4667 8.39389L14.293 7.25119C13.9668 6.94506 13.7072 6.82557 13.2654 6.82557L11.2143 6.82557L11.2143 5.92634C11.2143 5.51455 10.8932 5.19349 10.4935 5.19349C10.0817 5.19349 9.76296 5.51455 9.76296 5.92634Z"
                     fill="currentColor" fill-opacity="0.85" />
       </g>
</svg>