<?xml version="1.0" encoding="UTF-8"?>
<!--Generator: Apple Native CoreSVG 326-->
<!DOCTYPE svg PUBLIC "-//W3C//DTD SVG 1.1//EN" "http://www.w3.org/Graphics/SVG/1.1/DTD/svg11.dtd">
<svg version="1.1" xmlns="http://www.w3.org/2000/svg" xmlns:xlink="http://www.w3.org/1999/xlink"
       viewBox="0 0 21.365 21.006">
       <g>
              <rect height="21.006" opacity="0" width="21.365" x="0" y="0" />
              <path d="M21.0037 10.5079C21.0037 16.3043 16.302 21.006 10.4981 21.006C4.70394 21.006 0 16.3043 0 10.5079C0 4.7137 4.70394 0.00976562 10.4981 0.00976562C16.302 0.00976562 21.0037 4.7137 21.0037 10.5079ZM9.83186 5.92634L9.83186 6.82557L7.78818 6.82557C7.34642 6.82557 7.08681 6.94506 6.7606 7.25119L5.58685 8.39389C4.95845 8.98838 4.96537 9.61787 5.58454 10.2175L6.7606 11.3551C7.08681 11.6589 7.34642 11.7881 7.78818 11.7881L9.83186 11.7881L9.83186 14.3612L8.70627 14.3612C8.32147 14.3612 7.98549 14.6822 7.98549 15.0992C7.98549 15.4989 8.32147 15.8199 8.70627 15.8199L12.4065 15.8199C12.8085 15.8199 13.137 15.4989 13.137 15.0992C13.137 14.6822 12.8085 14.3612 12.4065 14.3612L11.2906 14.3612L11.2906 11.7881L13.7412 11.7881C14.5241 11.7881 14.987 11.3275 14.987 10.559L14.987 8.0524C14.987 7.26896 14.5241 6.82557 13.7412 6.82557L11.2906 6.82557L11.2906 5.92634C11.2906 5.51455 10.9719 5.19349 10.5601 5.19349C10.1604 5.19349 9.83186 5.51455 9.83186 5.92634Z"
                     fill="currentColor" fill-opacity="0.85" />
       </g>
</svg>