<?xml version="1.0" encoding="UTF-8"?>
<!--Generator: Apple Native CoreSVG 326-->
<!DOCTYPE svg PUBLIC "-//W3C//DTD SVG 1.1//EN" "http://www.w3.org/Graphics/SVG/1.1/DTD/svg11.dtd">
<svg version="1.1" xmlns="http://www.w3.org/2000/svg" xmlns:xlink="http://www.w3.org/1999/xlink"
       viewBox="0 0 25.4903 26.3491">
       <g>
              <rect height="26.3491" opacity="0" width="25.4903" x="0" y="0" />
              <path d="M13.2081 2.91095L13.571 3.27306L10.9174 3.27306C7.79406 3.27306 5.77076 5.30844 5.77076 8.43635L5.77076 9.33988L5.10209 9.33988C4.29275 9.33988 3.75225 9.86086 3.75225 10.692L3.75225 12.1732L5.77076 12.1732L5.77076 13.8161L3.75225 13.8161L3.75225 16.5042C3.75225 17.3307 4.29275 17.854 5.10209 17.854L5.77076 17.854L5.77076 21.1881C5.77076 21.2329 5.77117 21.2776 5.77612 21.3196L4.78528 21.3196C2.6056 21.3196 1.35706 20.0665 1.35706 17.8822L1.35706 5.13047C1.35706 2.95134 2.62053 1.68327 4.78528 1.68327L10.0264 1.68327C11.327 1.68327 12.4019 2.09725 13.2081 2.91095Z"
                     fill="currentColor" fill-opacity="0.85" />
              <path d="M7.48915 21.1881C7.48915 23.3724 8.73769 24.633 10.9174 24.633L20.3362 24.633C22.5159 24.633 23.7719 23.3724 23.7719 21.1881L23.7719 12.4649C23.7719 11.2824 23.3821 10.261 22.6378 9.52422L19.3379 6.21683C18.5242 5.40312 17.4591 4.99661 16.1585 4.99661L10.9174 4.99661C8.74515 4.99661 7.48915 6.25722 7.48915 8.43635ZM11.1089 19.81L11.1089 17.1294L12.9894 17.1294C13.1393 17.1294 13.2328 17.2081 13.2328 17.3706L13.2328 21.1599L12.4564 21.1599C11.6396 21.1599 11.1089 20.6366 11.1089 19.81ZM11.1089 15.4791L11.1089 13.9979C11.1089 13.1667 11.6396 12.6458 12.4564 12.6458L16.4888 12.6458L16.4888 21.1599L14.8832 21.1599L14.8832 16.3594C14.8832 15.8184 14.5387 15.4791 13.9857 15.4791ZM18.1391 21.1599L18.1391 12.6458L18.7455 12.6458C19.5572 12.6458 20.0931 13.1667 20.0931 13.9979L20.0931 19.81C20.0931 20.6366 19.5572 21.1599 18.7455 21.1599Z"
                     fill="currentColor" fill-opacity="0.85" />
       </g>
</svg>