<?xml version="1.0" encoding="UTF-8"?>
<!--Generator: Apple Native CoreSVG 326-->
<!DOCTYPE svg PUBLIC "-//W3C//DTD SVG 1.1//EN" "http://www.w3.org/Graphics/SVG/1.1/DTD/svg11.dtd">
<svg version="1.1" xmlns="http://www.w3.org/2000/svg" xmlns:xlink="http://www.w3.org/1999/xlink"
       viewBox="0 0 18.145 21.7978">
       <g>
              <rect height="21.7978" opacity="0" width="18.145" x="0" y="0" />
              <path d="M12.8957 1.31557L16.5909 5.00109C17.3691 5.78155 17.7836 6.86439 17.7836 8.15199L17.7836 18.1443C17.7836 20.474 16.4719 21.7978 14.1445 21.7978L3.63912 21.7978C1.31921 21.7978 0 20.4763 0 18.1443L0 3.66557C0 1.33589 1.32151 0.00976562 3.63912 0.00976562L9.4911 0.00976562C10.9221 0.00976562 12.0532 0.44097 12.8957 1.31557ZM3.9128 13.5924L3.9128 16.8372C3.9128 17.789 4.43784 18.314 5.37983 18.314L6.59604 18.314L6.59604 13.8209C6.59604 13.6785 6.50761 13.5924 6.36519 13.5924ZM5.37983 8.69693C4.43784 8.69693 3.9128 9.2145 3.9128 10.176L3.9128 12.0309L7.31045 12.0309C7.8233 12.0309 8.15005 12.3599 8.15005 12.8705L8.15005 18.314L9.80123 18.314L9.80123 8.69693ZM11.3552 8.69693L11.3552 18.314L12.421 18.314C13.363 18.314 13.8829 17.789 13.8829 16.8372L13.8829 10.176C13.8829 9.2145 13.363 8.69693 12.421 8.69693Z"
                     fill="currentColor" fill-opacity="0.85" />
       </g>
</svg>