<?xml version="1.0" encoding="UTF-8"?>
<!--Generator: Apple Native CoreSVG 326-->
<!DOCTYPE svg PUBLIC "-//W3C//DTD SVG 1.1//EN" "http://www.w3.org/Graphics/SVG/1.1/DTD/svg11.dtd">
<svg version="1.1" xmlns="http://www.w3.org/2000/svg" xmlns:xlink="http://www.w3.org/1999/xlink"
       viewBox="0 0 24.3303 21.006">
       <g>
              <rect height="21.006" opacity="0" width="24.3303" x="0" y="0" />
              <path d="M11.9856 20.9962C17.7821 20.9962 22.4837 16.2946 22.4837 10.4981C22.4837 4.70163 17.7821 0 11.9856 0C6.18916 0 1.48753 4.70163 1.48753 10.4981L4.53538 10.4981C4.53538 6.37829 7.86582 3.04785 11.9856 3.04785C16.1055 3.04785 19.4359 6.37829 19.4359 10.4981C19.4359 14.6179 16.1055 17.9484 11.9856 17.9484C9.86874 17.9484 8.05458 17.1034 6.64712 15.6524C5.97135 15.0132 5.0498 14.8117 4.35614 15.4438C3.73423 16.0162 3.72149 16.9286 4.44894 17.7463C6.08398 19.7011 9.21457 20.9962 11.9856 20.9962ZM0.808605 8.39698C-0.0138912 8.39698-0.212055 9.15901 0.22849 9.72826L2.75918 13.0277C3.05907 13.4322 3.60988 13.4224 3.91492 13.0277L6.43585 9.72596C6.86894 9.15901 6.66847 8.39698 5.8655 8.39698Z"
                     fill="currentColor" fill-opacity="0.85" />
              <path d="M9.51645 13.8139C10.8862 13.8139 11.7449 13.1013 11.7449 11.8369C11.7449 10.8049 11.2052 10.3442 10.3095 10.0333L9.7282 9.82592C9.27358 9.65924 8.8846 9.45865 8.8846 8.97528C8.8846 8.62457 9.12831 8.3555 9.51239 8.3555C9.92048 8.3555 10.1287 8.60206 10.2447 8.93446C10.3751 9.2452 10.583 9.37731 10.9213 9.37731C11.3686 9.37731 11.584 9.09016 11.584 8.76966C11.584 8.60946 11.5347 8.4722 11.5002 8.37685C11.1815 7.53051 10.3841 7.17179 9.50723 7.17179C8.26851 7.17179 7.38797 7.87461 7.38797 9.0884C7.38797 10.0537 7.90227 10.6087 8.8738 10.9494L9.35583 11.1246C9.91951 11.3188 10.2483 11.5109 10.2483 11.9816C10.2483 12.3743 9.95572 12.6227 9.52852 12.6227C9.13929 12.6227 8.87714 12.4387 8.74842 12.0718C8.59569 11.7462 8.37745 11.6043 8.03687 11.6043C7.63429 11.6043 7.38445 11.8863 7.38445 12.2487C7.38445 12.413 7.43382 12.6042 7.51765 12.7615C7.84738 13.4661 8.63269 13.8139 9.51645 13.8139ZM14.3981 13.5605C15.6287 13.5605 16.6104 12.9377 16.6104 11.7726C16.6104 10.8045 15.9847 10.388 15.1149 10.0432L14.3946 9.75362C14.0009 9.59494 13.6893 9.42013 13.6893 9.06087C13.6893 8.6757 14.0256 8.5078 14.4159 8.5078C14.8046 8.5078 15.0499 8.70512 15.1694 9.05638C15.2779 9.34298 15.4715 9.49177 15.7989 9.49177C16.2485 9.49177 16.4439 9.19892 16.4439 8.92603C16.4439 8.79907 16.4192 8.69857 16.3773 8.58083C16.136 7.78199 15.2944 7.42746 14.4159 7.42746C13.3071 7.42746 12.2915 8.0043 12.2915 9.17914C12.2915 10.1311 12.8539 10.5816 13.7479 10.9333L14.548 11.2504C14.9342 11.4113 15.2102 11.5499 15.2102 11.93C15.2102 12.3082 14.8408 12.4704 14.4079 12.4704C13.956 12.4704 13.7192 12.2691 13.602 11.8977C13.486 11.618 13.2902 11.46 12.9748 11.46C12.5923 11.46 12.3103 11.6777 12.3103 12.0625C12.3103 12.1607 12.335 12.283 12.3792 12.3882C12.6555 13.2186 13.4656 13.5605 14.3981 13.5605ZM14.4308 14.3523C14.5348 14.3523 14.6073 14.2776 14.6073 14.1759L14.6073 6.80695C14.6073 6.70523 14.5348 6.6305 14.4308 6.6305C14.3291 6.6305 14.2544 6.70523 14.2544 6.80695L14.2544 14.1759C14.2544 14.2776 14.3291 14.3523 14.4308 14.3523Z"
                     fill="currentColor" fill-opacity="0.85" />
       </g>
</svg>