<?xml version="1.0" encoding="UTF-8"?>
<!--Generator: Apple Native CoreSVG 326-->
<!DOCTYPE svg PUBLIC "-//W3C//DTD SVG 1.1//EN" "http://www.w3.org/Graphics/SVG/1.1/DTD/svg11.dtd">
<svg version="1.1" xmlns="http://www.w3.org/2000/svg" xmlns:xlink="http://www.w3.org/1999/xlink"
       viewBox="0 0 21.365 21.006">
       <g>
              <rect height="21.006" opacity="0" width="21.365" x="0" y="0" />
              <path d="M10.4981 20.9962C16.302 20.9962 21.0037 16.2946 21.0037 10.4981C21.0037 4.70163 16.302 0 10.4981 0C4.70163 0 0 4.70163 0 10.4981C0 16.2946 4.70163 20.9962 10.4981 20.9962ZM10.4981 17.9484C6.37829 17.9484 3.04785 14.6179 3.04785 10.4981C3.04785 6.37829 6.37829 3.04785 10.4981 3.04785C14.6179 3.04785 17.9558 6.37829 17.9558 10.4981C17.9558 14.6179 14.6179 17.9484 10.4981 17.9484Z"
                     fill="currentColor" fill-opacity="0.85" />
              <path d="M7.84756 14.0526C9.31428 14.0526 10.2401 13.2878 10.2401 11.9339C10.2401 10.8198 9.67064 10.3367 8.70779 9.996L8.07423 9.77369C7.58977 9.59955 7.1784 9.38404 7.1784 8.87083C7.1784 8.49773 7.43704 8.2212 7.83604 8.2212C8.27397 8.2212 8.4896 8.47523 8.61316 8.82255C8.76589 9.16313 8.98874 9.3027 9.35686 9.3027C9.83405 9.3027 10.0644 9.00063 10.0644 8.65028C10.0644 8.47517 10.015 8.32298 9.97307 8.22763C9.63194 7.31415 8.77487 6.93305 7.83088 6.93305C6.5101 6.93305 5.55494 7.6881 5.55494 8.99141C5.55494 10.0313 6.10655 10.6236 7.14522 10.9867L7.66456 11.1694C8.26554 11.386 8.62414 11.5855 8.62414 12.0861C8.62414 12.5011 8.30921 12.7645 7.85963 12.7645C7.45548 12.7645 7.17094 12.5655 7.03477 12.1837C6.86712 11.8357 6.63396 11.6789 6.26353 11.6789C5.82365 11.6789 5.55143 11.9833 5.55143 12.3755C5.55143 12.5473 5.60826 12.7609 5.69955 12.9331C6.05166 13.6825 6.89666 14.0526 7.84756 14.0526ZM13.0873 13.7769C14.4149 13.7769 15.4712 13.1093 15.4712 11.8621C15.4712 10.8269 14.8008 10.373 13.8639 9.99842L13.0913 9.70139C12.6677 9.52779 12.3413 9.33806 12.3413 8.96388C12.3413 8.54887 12.6999 8.37351 13.1051 8.37351C13.5236 8.37351 13.7839 8.57829 13.9034 8.95939C14.0268 9.26091 14.2428 9.42462 14.5926 9.42462C15.0795 9.42462 15.2898 9.10193 15.2898 8.80665C15.2898 8.67224 15.2651 8.56427 15.2232 8.43908C14.9595 7.58801 14.0582 7.20364 13.1051 7.20364C11.9142 7.20364 10.824 7.82524 10.824 9.09708C10.824 10.1088 11.4312 10.5965 12.3849 10.978L13.2521 11.3101C13.6682 11.4785 13.9591 11.632 13.9591 12.0344C13.9591 12.435 13.5598 12.6047 13.0971 12.6047C12.6228 12.6047 12.3636 12.3885 12.2465 11.9947C12.1156 11.7001 11.9048 11.5271 11.5596 11.5271C11.1472 11.5271 10.8503 11.7598 10.8503 12.1744C10.8503 12.2801 10.875 12.4099 10.9192 12.5299C11.2179 13.4126 12.0952 13.7769 13.0873 13.7769ZM13.1275 14.6284C13.2315 14.6284 13.3114 14.5462 13.3114 14.4445L13.3114 6.54582C13.3114 6.43664 13.2315 6.35445 13.1275 6.35445C13.0183 6.35445 12.9361 6.43664 12.9361 6.54582L12.9361 14.4445C12.9361 14.5462 13.0183 14.6284 13.1275 14.6284Z"
                     fill="currentColor" fill-opacity="0.85" />
       </g>
</svg>