<?xml version="1.0" encoding="UTF-8"?>
<!--Generator: Apple Native CoreSVG 326-->
<!DOCTYPE svg PUBLIC "-//W3C//DTD SVG 1.1//EN" "http://www.w3.org/Graphics/SVG/1.1/DTD/svg11.dtd">
<svg version="1.1" xmlns="http://www.w3.org/2000/svg" xmlns:xlink="http://www.w3.org/1999/xlink"
       viewBox="0 0 25.2371 20.7933">
       <g>
              <rect height="20.7933" opacity="0" width="25.2371" x="0" y="0" />
              <path d="M24.8758 12.4367C24.8758 9.44627 23.8182 6.68788 22.0375 4.53265C21.79 4.23112 21.3535 4.23112 21.0491 4.53034L18.6193 6.95264C18.3592 7.2128 18.3569 7.55853 18.5677 7.83822C19.5288 9.12728 20.1044 10.7185 20.1044 12.4367C20.1044 14.2244 19.4989 15.8753 18.4419 17.2029C18.2306 17.4808 18.2329 17.8225 18.4764 18.0683L20.92 20.5119C21.2117 20.8036 21.6459 20.8036 21.9256 20.4849C23.766 18.3147 24.8758 15.5116 24.8758 12.4367Z"
                     fill="currentColor" fill-opacity="0.85" />
              <path d="M12.4367 4.77139C14.1745 4.77139 15.7732 5.34932 17.0646 6.32534C17.3345 6.52635 17.6779 6.50682 17.9231 6.25413L20.3454 3.82437C20.6521 3.52515 20.6424 3.07605 20.311 2.81359C18.1655 1.05754 15.422 0 12.4367 0C9.45373 0 6.71026 1.05754 4.57225 2.81359C4.24089 3.07605 4.22366 3.52515 4.53034 3.82437L6.95264 6.25413C7.19787 6.50682 7.55853 6.52635 7.84052 6.31557C9.12213 5.34932 10.7185 4.77139 12.4367 4.77139Z"
                     fill="currentColor" fill-opacity="0.85" />
              <path d="M0 12.4367C0 15.519 1.12468 18.3446 2.98003 20.5147C3.23503 20.8186 3.66405 20.8036 3.96096 20.5119L6.39709 18.0683C6.64057 17.8225 6.65264 17.4808 6.43385 17.2029C5.38432 15.8753 4.77139 14.2244 4.77139 12.4367C4.77139 10.7185 5.34471 9.12728 6.30811 7.83822C6.51658 7.55853 6.51658 7.2128 6.25643 6.95264L3.82667 4.53034C3.52745 4.23112 3.07836 4.23859 2.80844 4.56995C1.05008 6.71026 0 9.45373 0 12.4367Z"
                     fill="currentColor" fill-opacity="0.85" />
              <path d="M9.77873 15.9191C11.2529 15.9191 12.1811 15.1519 12.1811 13.7906C12.1811 12.6863 11.6093 12.1934 10.6464 11.855L10.0152 11.6327C9.5284 11.4585 9.11703 11.2482 9.11703 10.7275C9.11703 10.3544 9.37567 10.0802 9.77466 10.0802C10.2126 10.0802 10.4305 10.3319 10.5541 10.6867C10.6971 11.0198 10.9199 11.1594 11.2955 11.1594C11.7727 11.1594 12.003 10.8596 12.003 10.507C12.003 10.3342 11.9559 10.182 11.9117 10.0843C11.5729 9.17083 10.706 8.78973 9.77181 8.78973C8.44872 8.78973 7.49357 9.54708 7.49357 10.8579C7.49357 11.888 8.04748 12.4826 9.08385 12.8531L9.60319 13.0335C10.2042 13.2427 10.5553 13.4445 10.5553 13.9428C10.5553 14.3578 10.2478 14.6211 9.80056 14.6211C9.38665 14.6211 9.10957 14.4297 8.9734 14.0479C8.80805 13.6924 8.57258 13.5379 8.20446 13.5379C7.76228 13.5379 7.49005 13.8423 7.49005 14.2345C7.49005 14.4114 7.54919 14.6176 7.63818 14.7921C7.99029 15.5392 8.83528 15.9191 9.77873 15.9191ZM15.026 15.6336C16.3484 15.6336 17.4099 14.966 17.4099 13.7188C17.4099 12.6859 16.7394 12.2297 15.8025 11.8626L15.0299 11.5604C14.6063 11.3845 14.2799 11.197 14.2799 10.8206C14.2799 10.4153 14.6385 10.2325 15.0437 10.2325C15.4646 10.2325 15.7151 10.435 15.842 10.8184C15.9678 11.1176 16.1739 11.2836 16.5237 11.2836C17.0181 11.2836 17.2284 10.9586 17.2284 10.6708C17.2284 10.5387 17.1962 10.4233 17.1543 10.2958C16.8907 9.447 15.9917 9.06262 15.0437 9.06262C13.8529 9.06262 12.7649 9.68938 12.7649 10.9561C12.7649 11.9729 13.3722 12.4532 14.3235 12.8347L15.1908 13.1667C15.5994 13.3352 15.8926 13.4887 15.8926 13.8911C15.8926 14.2917 15.4985 14.4614 15.0357 14.4614C14.5615 14.4614 14.3023 14.255 14.1776 13.8537C14.0565 13.5568 13.8434 13.3861 13.4982 13.3861C13.0859 13.3861 12.7913 13.6164 12.7913 14.0311C12.7913 14.1465 12.816 14.274 12.8579 14.3889C13.1565 15.2693 14.0264 15.6336 15.026 15.6336ZM15.061 16.4873C15.1701 16.4873 15.2523 16.4052 15.2523 16.3034L15.2523 8.4025C15.2523 8.29332 15.1701 8.21113 15.061 8.21113C14.9569 8.21113 14.8771 8.29332 14.8771 8.4025L14.8771 16.3034C14.8771 16.4052 14.9569 16.4873 15.061 16.4873Z"
                     fill="currentColor" fill-opacity="0.85" />
       </g>
</svg>