<?xml version="1.0" encoding="UTF-8"?>
<!--Generator: Apple Native CoreSVG 326-->
<!DOCTYPE svg PUBLIC "-//W3C//DTD SVG 1.1//EN" "http://www.w3.org/Graphics/SVG/1.1/DTD/svg11.dtd">
<svg version="1.1" xmlns="http://www.w3.org/2000/svg" xmlns:xlink="http://www.w3.org/1999/xlink"
       viewBox="0 0 21.365 21.006">
       <g>
              <rect height="21.006" opacity="0" width="21.365" x="0" y="0" />
              <path d="M21.0037 10.4981C21.0037 16.2923 16.302 20.9962 10.4981 20.9962C4.70394 20.9962 0 16.2923 0 10.4981C0 4.70163 4.70394 0 10.4981 0C16.302 0 21.0037 4.70163 21.0037 10.4981ZM13.1061 6.28973L13.1061 6.99923C11.9084 7.05958 10.8533 7.72079 10.8533 9.00864C10.8533 10.0892 11.4875 10.6091 12.5152 11.0102L13.1061 11.2336L13.1061 12.7253C12.7152 12.6747 12.4871 12.466 12.3647 12.0906C12.2264 11.7713 12.0058 11.5886 11.636 11.5886C11.1915 11.5886 10.8699 11.8459 10.8699 12.2927C10.8699 12.3983 10.902 12.5379 10.9537 12.6654C11.2575 13.5497 12.1123 13.9456 13.1061 13.9887L13.1061 14.6931C13.1061 14.812 13.1883 14.8942 13.2998 14.8942C13.4112 14.8942 13.5009 14.812 13.5009 14.6931L13.5009 13.9887C14.798 13.906 15.8037 13.2011 15.8037 11.9483C15.8037 10.8389 15.089 10.3581 14.093 9.96628L13.5009 9.74343L13.5009 8.26269C13.8159 8.31789 14.0199 8.52837 14.1273 8.85603C14.2605 9.1897 14.4839 9.36317 14.8659 9.36317C15.385 9.36317 15.6124 9.00834 15.6124 8.7033C15.6124 8.56142 15.5803 8.43623 15.5309 8.30357C15.2696 7.46118 14.4258 7.05727 13.5009 7.00153L13.5009 6.28973C13.5009 6.17079 13.4112 6.0886 13.2998 6.0886C13.1883 6.0886 13.1061 6.17079 13.1061 6.28973ZM5.2294 8.89552C5.2294 10.0043 5.81546 10.6311 6.9282 11.0263L7.47452 11.2188C8.11742 11.4451 8.48809 11.6544 8.48809 12.1894C8.48809 12.6314 8.1634 12.9069 7.68452 12.9069C7.25337 12.9069 6.95907 12.6959 6.81313 12.2946C6.63802 11.9144 6.38017 11.7576 5.98506 11.7576C5.52049 11.7576 5.22358 12.0792 5.22358 12.4961C5.22358 12.6828 5.29764 12.9062 5.38147 13.0933C5.76572 13.8869 6.6601 14.284 7.67245 14.284C9.24253 14.284 10.2252 13.4824 10.2252 12.0223C10.2252 10.8445 9.6115 10.3218 8.59697 9.96155L7.9215 9.72432C7.40259 9.54041 6.96653 9.31513 6.96653 8.76001C6.96653 8.37485 7.23494 8.07132 7.66838 8.07132C8.12585 8.07132 8.35125 8.35004 8.49203 8.71919C8.64476 9.08446 8.87738 9.23895 9.27765 9.23895C9.79444 9.23895 10.0397 8.89728 10.0397 8.5297C10.0397 8.33966 9.9903 8.18002 9.94838 8.0749C9.57741 7.10228 8.65374 6.70165 7.65577 6.70165C6.24885 6.70165 5.2294 7.50091 5.2294 8.89552ZM14.1854 12.1303C14.1854 12.4873 13.8889 12.6718 13.5009 12.7253L13.5009 11.3951C13.9055 11.5664 14.1854 11.7297 14.1854 12.1303ZM13.1061 9.56698C12.7331 9.4083 12.467 9.21572 12.467 8.86798C12.467 8.4961 12.7532 8.30351 13.1061 8.26039Z"
                     fill="currentColor" fill-opacity="0.85" />
       </g>
</svg>