<?xml version="1.0" encoding="UTF-8"?>
<!--Generator: Apple Native CoreSVG 326-->
<!DOCTYPE svg PUBLIC "-//W3C//DTD SVG 1.1//EN" "http://www.w3.org/Graphics/SVG/1.1/DTD/svg11.dtd">
<svg version="1.1" xmlns="http://www.w3.org/2000/svg" xmlns:xlink="http://www.w3.org/1999/xlink"
       viewBox="0 0 24.6449 23.5952">
       <g>
              <rect height="23.5952" opacity="0" width="24.6449" x="0" y="0" />
              <path d="M1.94045 20.4256L22.5744 20.4256L22.5744 19.4355C22.5744 18.8957 22.2379 18.5718 21.7032 18.5718L21.3244 18.5718L21.3244 7.89293L22.1092 7.89293C22.9074 7.89293 23.3841 7.28595 23.3841 6.69158C23.3841 6.25686 23.136 5.85374 22.6254 5.55167L13.7186 0.416404C13.2683 0.154491 12.7462 0 12.2563 0C11.7664 0 11.242 0.154491 10.7963 0.416404L1.88944 5.55167C1.37659 5.85374 1.13081 6.25686 1.13081 6.69158C1.13081 7.28595 1.60745 7.89293 2.41314 7.89293L3.19045 7.89293L3.19045 18.5718L2.81396 18.5718C2.27927 18.5718 1.94045 18.8957 1.94045 19.4355ZM5.29922 18.5718L5.29922 6.39673L12.047 2.62732C12.1194 2.5888 12.1965 2.57212 12.2563 2.57212C12.331 2.57212 12.3931 2.5888 12.4679 2.62732L19.2157 6.39673L19.2157 18.5718ZM1.20651 23.5854L23.0673 23.5854C23.7134 23.5854 24.2836 23.0525 24.2836 22.3766C24.2836 21.7231 23.7134 21.1701 23.0673 21.1701L1.20651 21.1701C0.553002 21.1701 0 21.7231 0 22.3766C0 23.045 0.553002 23.5854 1.20651 23.5854Z"
                     fill="currentColor" fill-opacity="0.85" />
              <path d="M9.61035 15.121C11.0845 15.121 12.0104 14.3538 12.0104 12.9925C12.0104 11.8882 11.4334 11.3953 10.478 11.0569L9.84448 10.8346C9.36002 10.6604 8.94865 10.4501 8.94865 9.9294C8.94865 9.55631 9.19983 9.28208 9.60629 9.28208C10.0368 9.28208 10.2599 9.5338 10.3834 9.88858C10.5287 10.2217 10.7515 10.3613 11.1197 10.3613C11.5968 10.3613 11.8346 10.0615 11.8346 9.70886C11.8346 9.53605 11.7852 9.38386 11.7433 9.2862C11.3947 8.37272 10.5377 7.99162 9.60113 7.99162C8.27288 7.99162 7.32519 8.74897 7.32519 10.0598C7.32519 11.0899 7.8768 11.6845 8.91317 12.0476L9.43481 12.2354C10.0358 12.4446 10.3869 12.6464 10.3869 13.1447C10.3869 13.5597 10.0795 13.823 9.62242 13.823C9.21827 13.823 8.93373 13.6315 8.79525 13.2498C8.63737 12.8943 8.39674 12.7398 8.02632 12.7398C7.5939 12.7398 7.32167 13.0441 7.32167 13.4364C7.32167 13.6133 7.37851 13.8195 7.4698 13.994C7.82191 14.7411 8.65944 15.121 9.61035 15.121ZM14.8501 14.8354C16.1777 14.8354 17.234 14.1679 17.234 12.9207C17.234 11.8877 16.5636 11.4316 15.6341 11.0645L14.8541 10.7623C14.438 10.5864 14.1041 10.3989 14.1041 10.0224C14.1041 9.6172 14.4627 9.43439 14.8754 9.43439C15.2864 9.43439 15.5467 9.63686 15.6736 10.0203C15.7896 10.3195 16.0056 10.4855 16.3554 10.4855C16.8498 10.4855 17.06 10.1605 17.06 9.87269C17.06 9.73312 17.0279 9.62515 16.9859 9.49765C16.7223 8.64889 15.821 8.26451 14.8754 8.26451C13.6845 8.26451 12.5943 8.88381 12.5943 10.158C12.5943 11.1748 13.194 11.6551 14.1551 12.0366L15.0224 12.3686C15.431 12.5371 15.7219 12.6906 15.7219 13.093C15.7219 13.4936 15.3226 13.6633 14.8673 13.6633C14.3856 13.6633 14.1339 13.4494 14.0092 13.0556C13.8784 12.7586 13.6727 12.588 13.3298 12.588C12.9175 12.588 12.6131 12.8183 12.6131 13.233C12.6131 13.3484 12.6453 13.4759 12.6872 13.5908C12.9807 14.4711 13.858 14.8354 14.8501 14.8354ZM14.8903 15.6892C15.0018 15.6892 15.0816 15.607 15.0816 15.5053L15.0816 7.60439C15.0816 7.49521 15.0018 7.41302 14.8903 7.41302C14.7811 7.41302 14.6989 7.49521 14.6989 7.60439L14.6989 15.5053C14.6989 15.607 14.7811 15.6892 14.8903 15.6892Z"
                     fill="currentColor" fill-opacity="0.85" />
       </g>
</svg>