<?xml version="1.0" encoding="UTF-8"?>
<!--Generator: Apple Native CoreSVG 326-->
<!DOCTYPE svg PUBLIC "-//W3C//DTD SVG 1.1//EN" "http://www.w3.org/Graphics/SVG/1.1/DTD/svg11.dtd">
<svg version="1.1" xmlns="http://www.w3.org/2000/svg" xmlns:xlink="http://www.w3.org/1999/xlink"
       viewBox="0 0 25.2371 20.7338">
       <g>
              <rect height="20.7338" opacity="0" width="25.2371" x="0" y="0" />
              <path d="M24.8758 12.3846C24.8758 5.93383 19.9627 0.631336 13.6785 0.00415235C13.2541-0.040066 12.9302 0.274072 12.9302 0.698483L12.9302 4.13058C12.9302 4.48379 13.1829 4.74109 13.5286 4.79046C17.2465 5.32405 20.1044 8.51741 20.1044 12.3846C20.1044 14.1648 19.4989 15.8157 18.4419 17.1359C18.2306 17.4138 18.2329 17.7555 18.4764 18.0012L20.9223 20.4523C21.2117 20.7567 21.6557 20.7417 21.9256 20.4328C23.7735 18.2551 24.8758 15.452 24.8758 12.3846Z"
                     fill="currentColor" fill-opacity="0.85" />
              <path d="M0 12.3846C0 15.4543 1.1023 18.2574 2.94273 20.4276C3.21265 20.7366 3.65429 20.7417 3.9535 20.4448L6.39194 17.9938C6.63541 17.748 6.63772 17.4063 6.42639 17.1284C5.38201 15.8157 4.77139 14.1648 4.77139 12.3846C4.77139 8.51741 7.63678 5.32405 11.3472 4.79046C11.7004 4.74109 11.9456 4.48379 11.9456 4.13058L11.9456 0.698483C11.9456 0.274072 11.6217-0.040066 11.1973 0.00415235C4.92054 0.631336 0 5.93383 0 12.3846Z"
                     fill="currentColor" fill-opacity="0.85" />
              <path d="M9.77873 15.8893C11.2529 15.8893 12.1811 15.1222 12.1811 13.7608C12.1811 12.6565 11.6093 12.1636 10.6464 11.8252L10.0152 11.6029C9.5284 11.4288 9.11703 11.2184 9.11703 10.6978C9.11703 10.3247 9.37567 10.0504 9.77466 10.0504C10.2126 10.0504 10.4305 10.3022 10.5541 10.6569C10.6971 10.9901 10.9199 11.1296 11.2955 11.1296C11.7727 11.1296 12.003 10.8299 12.003 10.4772C12.003 10.3044 11.9559 10.1522 11.9117 10.0546C11.5729 9.14108 10.706 8.75998 9.77181 8.75998C8.44872 8.75998 7.49357 9.51733 7.49357 10.8281C7.49357 11.8582 8.04748 12.4528 9.08385 12.8234L9.60319 13.0038C10.2042 13.2129 10.5553 13.4147 10.5553 13.913C10.5553 14.328 10.2478 14.5914 9.80056 14.5914C9.38665 14.5914 9.10957 14.3999 8.9734 14.0181C8.80805 13.6626 8.57258 13.5081 8.20446 13.5081C7.76228 13.5081 7.49005 13.8125 7.49005 14.2048C7.49005 14.3816 7.54919 14.5878 7.63818 14.7624C7.99029 15.5094 8.83528 15.8893 9.77873 15.8893ZM15.026 15.6038C16.3484 15.6038 17.4099 14.9362 17.4099 13.6891C17.4099 12.6561 16.7394 12.2 15.8025 11.8328L15.0299 11.5306C14.6063 11.3547 14.2799 11.1673 14.2799 10.7908C14.2799 10.3856 14.6385 10.2027 15.0437 10.2027C15.4646 10.2027 15.7151 10.4052 15.842 10.7886C15.9678 11.0878 16.1739 11.2539 16.5237 11.2539C17.0181 11.2539 17.2284 10.9289 17.2284 10.641C17.2284 10.5089 17.1962 10.3935 17.1543 10.266C16.8907 9.41725 15.9917 9.03287 15.0437 9.03287C13.8529 9.03287 12.7649 9.65963 12.7649 10.9263C12.7649 11.9431 13.3722 12.4234 14.3235 12.8049L15.1908 13.137C15.5994 13.3054 15.8926 13.4589 15.8926 13.8613C15.8926 14.262 15.4985 14.4316 15.0357 14.4316C14.5615 14.4316 14.3023 14.2252 14.1776 13.8239C14.0565 13.527 13.8434 13.3564 13.4982 13.3564C13.0859 13.3564 12.7913 13.5867 12.7913 14.0013C12.7913 14.1168 12.816 14.2443 12.8579 14.3591C13.1565 15.2395 14.0264 15.6038 15.026 15.6038ZM15.061 16.4576C15.1701 16.4576 15.2523 16.3754 15.2523 16.2737L15.2523 8.37275C15.2523 8.26357 15.1701 8.18138 15.061 8.18138C14.9569 8.18138 14.8771 8.26357 14.8771 8.37275L14.8771 16.2737C14.8771 16.3754 14.9569 16.4576 15.061 16.4576Z"
                     fill="currentColor" fill-opacity="0.85" />
       </g>
</svg>