<?xml version="1.0" encoding="UTF-8"?>
<!--Generator: Apple Native CoreSVG 326-->
<!DOCTYPE svg PUBLIC "-//W3C//DTD SVG 1.1//EN" "http://www.w3.org/Graphics/SVG/1.1/DTD/svg11.dtd">
<svg version="1.1" xmlns="http://www.w3.org/2000/svg" xmlns:xlink="http://www.w3.org/1999/xlink"
       viewBox="0 0 19.3993 19.0529">
       <g>
              <rect height="19.0529" opacity="0" width="19.3993" x="0" y="0" />
              <path d="M3.64834 19.0379L15.3896 19.0379C17.7164 19.0379 19.0379 17.7262 19.0379 15.4011L19.0379 3.63912C19.0379 1.32151 17.7164 0 15.3896 0L3.64834 0C1.32382 0 0 1.32151 0 3.63912L0 15.4011C0 17.7262 1.32382 19.0379 3.64834 19.0379ZM4.05583 16.0183C3.37024 16.0183 3.01964 15.7096 3.01964 14.9775L3.01964 4.07021C3.01964 3.33809 3.37024 3.0271 4.05583 3.0271L14.9821 3.0271C15.6654 3.0271 16.0183 3.33809 16.0183 4.07021L16.0183 14.9775C16.0183 15.7096 15.6654 16.0183 14.9821 16.0183Z"
                     fill="currentColor" fill-opacity="0.85" />
              <path d="M6.86815 13.0761C8.34233 13.0761 9.26819 12.3112 9.26819 10.9573C9.26819 9.84327 8.69869 9.36014 7.73583 9.01944L7.10459 8.79713C6.61782 8.62299 6.20645 8.40748 6.20645 7.89427C6.20645 7.52117 6.46509 7.24464 6.86408 7.24464C7.30202 7.24464 7.51996 7.49867 7.64351 7.84598C7.78648 8.18657 8.00933 8.32614 8.38491 8.32614C8.86209 8.32614 9.0924 8.02407 9.0924 7.67372C9.0924 7.49861 9.04534 7.34642 9.00112 7.25107C8.65999 6.33759 7.80292 5.95649 6.85893 5.95649C5.53814 5.95649 4.58299 6.71153 4.58299 8.01485C4.58299 9.05474 5.1346 9.64704 6.17327 10.0101L6.69261 10.1928C7.29359 10.4094 7.64473 10.6089 7.64473 11.1095C7.64473 11.5245 7.33726 11.7879 6.88768 11.7879C6.47607 11.7879 6.19899 11.5889 6.06282 11.2072C5.89516 10.8591 5.662 10.7023 5.29158 10.7023C4.8517 10.7023 4.57947 11.0067 4.57947 11.399C4.57947 11.5707 4.63631 11.7843 4.7276 11.9566C5.0797 12.7059 5.9247 13.0761 6.86815 13.0761ZM12.1154 12.8003C13.443 12.8003 14.4993 12.1327 14.4993 10.8856C14.4993 9.8503 13.8289 9.39647 12.8919 9.02186L12.1193 8.72483C11.6958 8.55123 11.3693 8.3615 11.3693 7.98731C11.3693 7.57231 11.7279 7.39695 12.1332 7.39695C12.5517 7.39695 12.8045 7.60172 12.9314 7.98282C13.0549 8.28435 13.2634 8.44806 13.6132 8.44806C14.1076 8.44806 14.3178 8.12537 14.3178 7.83009C14.3178 7.69568 14.2857 7.58771 14.2437 7.46252C13.9801 6.61145 13.0811 6.22707 12.1332 6.22707C10.9423 6.22707 9.85206 6.84868 9.85206 8.12051C9.85206 9.1322 10.4616 9.61993 11.4129 10.0015L12.2802 10.3335C12.6888 10.5019 12.9797 10.6555 12.9797 11.0578C12.9797 11.4585 12.5879 11.6281 12.1251 11.6281C11.6509 11.6281 11.3917 11.412 11.267 11.0181C11.1436 10.7235 10.9328 10.5506 10.5876 10.5506C10.1753 10.5506 9.87839 10.7832 9.87839 11.1978C9.87839 11.3035 9.90307 11.4333 9.94729 11.5533C10.246 12.436 11.1158 12.8003 12.1154 12.8003ZM12.1481 13.6518C12.2596 13.6518 12.3417 13.5696 12.3417 13.4679L12.3417 5.56926C12.3417 5.46008 12.2596 5.37789 12.1481 5.37789C12.0464 5.37789 11.9642 5.46008 11.9642 5.56926L11.9642 13.4679C11.9642 13.5696 12.0464 13.6518 12.1481 13.6518Z"
                     fill="currentColor" fill-opacity="0.85" />
       </g>
</svg>