<?xml version="1.0" encoding="UTF-8"?>
<!--Generator: Apple Native CoreSVG 326-->
<!DOCTYPE svg PUBLIC "-//W3C//DTD SVG 1.1//EN" "http://www.w3.org/Graphics/SVG/1.1/DTD/svg11.dtd">
<svg version="1.1" xmlns="http://www.w3.org/2000/svg" xmlns:xlink="http://www.w3.org/1999/xlink"
       viewBox="0 0 25.343 22.2036">
       <g>
              <rect height="22.2036" opacity="0" width="25.343" x="0" y="0" />
              <path d="M11.0553 12.3301L13.9033 12.3301L13.9033 3.47869C13.9033 3.08606 14.1861 2.79582 14.5788 2.79582C14.9714 2.79582 15.2616 3.09352 15.2616 3.47869L15.2616 5.13423C15.2616 5.92204 15.8915 6.55195 16.6793 6.55195C17.4671 6.55195 18.1022 5.92204 18.1022 5.13423L18.1022 3.35186C18.1022 1.36519 16.5654 0 14.5788 0C12.5921 0 11.0553 1.36519 11.0553 3.35186ZM7.28728 12.3301L9.78267 12.3301L9.78267 9.06274C9.78267 8.3231 9.23889 7.78163 8.50156 7.78163L5.37734 7.78163C4.69751 7.78163 4.13596 8.34318 4.13596 9.03048C4.13596 9.71777 4.69751 10.277 5.37734 10.277L7.15396 10.277C7.23384 10.277 7.28728 10.3328 7.28728 10.4178ZM15.176 12.3301L17.6714 12.3301L17.6714 10.4178C17.6714 10.3328 17.7248 10.277 17.8047 10.277L19.5813 10.277C20.2611 10.277 20.8204 9.71777 20.8204 9.03048C20.8204 8.34318 20.2611 7.78163 19.5813 7.78163L16.4571 7.78163C15.71 7.78163 15.176 8.3231 15.176 9.06274ZM1.42287 14.1474L1.78123 14.1474L1.78123 17.2083C1.78123 20.3134 3.77942 22.1817 7.04254 22.1817L17.9392 22.1817C21.2023 22.1817 23.2028 20.3134 23.2028 17.2083L23.2028 14.1474L23.5588 14.1474C24.3392 14.1474 24.9817 13.5026 24.9817 12.7222C24.9817 11.9419 24.3392 11.2994 23.5588 11.2994L1.42287 11.2994C0.64253 11.2994 0 11.9419 0 12.7222C0 13.5026 0.64253 14.1474 1.42287 14.1474Z"
                     fill="currentColor" fill-opacity="0.85" />
       </g>
</svg>