<?xml version="1.0" encoding="UTF-8"?>
<!--Generator: Apple Native CoreSVG 326-->
<!DOCTYPE svg PUBLIC "-//W3C//DTD SVG 1.1//EN" "http://www.w3.org/Graphics/SVG/1.1/DTD/svg11.dtd">
<svg version="1.1" xmlns="http://www.w3.org/2000/svg" xmlns:xlink="http://www.w3.org/1999/xlink"
       viewBox="0 0 23.6574 23.4998">
       <g>
              <rect height="23.4998" opacity="0" width="23.6574" x="0" y="0" />
              <path d="M1.75945 21.5567C4.00124 23.791 7.42224 23.8255 9.63934 21.6107L21.4769 9.75818C23.6986 7.53647 23.6762 4.11086 21.4396 1.88399C19.2053-0.350333 15.7797-0.350333 13.5379 1.88169L1.75945 13.655C-0.477184 15.8893-0.477184 19.3149 1.75945 21.5567ZM15.5408 5.76156C15.1532 5.38136 15.1532 4.7284 15.5408 4.34821C15.9061 3.98809 16.601 3.98809 16.9588 4.34821C17.3413 4.7284 17.3413 5.38136 16.9662 5.76156C16.5711 6.15151 15.9285 6.15151 15.5408 5.76156ZM17.4926 7.70589C17.1124 7.32569 17.1124 6.6905 17.5001 6.29539C17.8803 5.92266 18.5258 5.9152 18.9083 6.29539C19.3034 6.6905 19.3034 7.32569 18.9083 7.71335C18.5258 8.1033 17.8803 8.08838 17.4926 7.70589ZM13.5936 7.70589C13.206 7.32569 13.206 6.6905 13.5959 6.30054C13.9761 5.92035 14.6216 5.91289 15.0018 6.29308C15.3969 6.6905 15.3969 7.32569 15.0018 7.71335C14.6216 8.101 13.9761 8.08608 13.5936 7.70589ZM15.5408 9.66053C15.1532 9.28033 15.1532 8.63253 15.5408 8.24487C15.9308 7.86238 16.5734 7.86238 16.9611 8.24487C17.3413 8.63253 17.3413 9.28033 16.9611 9.66053C16.5734 10.0482 15.9308 10.0482 15.5408 9.66053ZM6.21397 15.0982C5.82632 14.718 5.83378 14.0627 6.21397 13.6825C6.60162 13.3023 7.23451 13.3023 7.6147 13.6825C8.00466 14.0627 8.00466 14.718 7.62962 15.0982C7.23451 15.4881 6.60162 15.4881 6.21397 15.0982ZM8.15599 17.0425C7.76834 16.66 7.76834 16.0271 8.15599 15.6222C8.53619 15.2495 9.19892 15.2495 9.57911 15.6222C9.96161 16.0271 9.96161 16.66 9.57911 17.0425C9.19892 17.4301 8.53619 17.4301 8.15599 17.0425ZM4.25702 17.0402C3.86937 16.66 3.86937 16.0271 4.25702 15.6222C4.63952 15.2472 5.29248 15.2472 5.67498 15.6222C6.06263 16.0271 6.06263 16.66 5.66752 17.0476C5.29248 17.4278 4.63721 17.4278 4.25702 17.0402ZM6.21397 18.9971C5.82632 18.6169 5.83378 17.9691 6.21397 17.5889C6.60162 17.199 7.23681 17.199 7.61701 17.5889C8.00466 17.9691 8.00466 18.6169 7.63193 18.9971C7.23681 19.3848 6.60162 19.3848 6.21397 18.9971ZM9.87668 4.04699L10.1748 4.34281C10.7427 4.91304 11.6007 4.9205 12.1709 4.35027L13.7994 2.71656C14.372 2.15379 14.372 1.28841 13.792 0.718184L13.5013 0.420059C12.9408-0.140403 12.0755-0.140403 11.5052 0.422364L9.87668 2.05607C9.31392 2.61884 9.30646 3.47676 9.87668 4.04699ZM18.9785 13.1413L19.2669 13.4446C19.8245 14.0275 20.6875 14.02 21.2578 13.4446L22.9012 11.8161C23.464 11.2631 23.4491 10.3977 22.9012 9.81999L22.6129 9.52187C22.0501 8.93902 21.1698 8.96886 20.6168 9.52187L18.9785 11.1504C18.4008 11.7281 18.4157 12.5636 18.9785 13.1413ZM0.430473 13.5081L0.721137 13.7988C1.29137 14.3667 2.15444 14.3667 2.72467 13.7988L4.35322 12.1628C4.91369 11.5851 4.93607 10.7369 4.34576 10.1644L4.04764 9.8858C3.47741 9.32819 2.61949 9.31327 2.05157 9.8858L0.430473 11.5023C-0.139755 12.0651-0.147215 12.9327 0.430473 13.5081ZM9.51505 22.6122L9.80572 22.9081C10.3834 23.4783 11.2562 23.4708 11.8167 22.9104L13.4453 21.2818C14.023 20.7018 14.0155 19.8462 13.4378 19.276L13.1494 18.9778C12.5718 18.4076 11.7288 18.4225 11.1511 18.9928L9.52252 20.6139C8.95459 21.1766 8.93967 22.0443 9.51505 22.6122Z"
                     fill="currentColor" fill-opacity="0.85" />
       </g>
</svg>