<?xml version="1.0" encoding="UTF-8"?>
<!--Generator: Apple Native CoreSVG 326-->
<!DOCTYPE svg PUBLIC "-//W3C//DTD SVG 1.1//EN" "http://www.w3.org/Graphics/SVG/1.1/DTD/svg11.dtd">
<svg version="1.1" xmlns="http://www.w3.org/2000/svg" xmlns:xlink="http://www.w3.org/1999/xlink"
       viewBox="0 0 26.7013 24.8447">
       <g>
              <rect height="24.8447" opacity="0" width="26.7013" x="0" y="0" />
              <path d="M0 16.8758C0 18.7186 1.4862 20.2048 3.32153 20.2048C4.46957 20.2048 5.47518 19.6149 6.07295 18.7281L19.9639 22.796C20.452 23.9946 21.6396 24.8447 23.0283 24.8447C24.8538 24.8447 26.34 23.3608 26.34 21.518C26.34 20.2666 25.6393 19.172 24.6119 18.6184L24.2591 9.92364C25.2556 9.36209 25.9357 8.29272 25.9357 7.05449C25.9357 5.22661 24.4518 3.74272 22.6188 3.74272C21.5121 3.74272 20.5278 4.28432 19.9282 5.11076L13.1737 2.98865C12.9952 1.3146 11.5882 0.0143754 9.87918 0.0143754C8.04384 0.0143754 6.55765 1.50057 6.55765 3.32844C6.55765 4.10727 6.83339 4.82519 7.28261 5.39202L3.04233 13.5956C2.94983 13.6036 2.86709 13.6088 2.76944 13.6237C1.19523 13.8699 0 15.2419 0 16.8758ZM5.81377 14.6901L9.95936 6.64075C10.8032 6.63396 11.5878 6.28755 12.1426 5.73431L19.458 8.02692C19.7203 8.97352 20.4176 9.73579 21.3177 10.1142L21.6371 18.5082C21.015 18.7832 20.4876 19.2543 20.1637 19.8471L6.45302 15.8091C6.31982 15.3892 6.09927 15.0175 5.81377 14.6901Z"
                     fill="currentColor" fill-opacity="0.85" />
       </g>
</svg>