<?xml version="1.0" encoding="UTF-8"?>
<!--Generator: Apple Native CoreSVG 326-->
<!DOCTYPE svg PUBLIC "-//W3C//DTD SVG 1.1//EN" "http://www.w3.org/Graphics/SVG/1.1/DTD/svg11.dtd">
<svg version="1.1" xmlns="http://www.w3.org/2000/svg" xmlns:xlink="http://www.w3.org/1999/xlink"
       viewBox="0 0 21.365 21.006">
       <g>
              <rect height="21.006" opacity="0" width="21.365" x="0" y="0" />
              <path d="M10.4981 20.9962C16.302 20.9962 21.0037 16.2946 21.0037 10.4981C21.0037 4.70163 16.302 0 10.4981 0C4.70163 0 0 4.70163 0 10.4981C0 16.2946 4.70163 20.9962 10.4981 20.9962ZM10.4981 17.9484C6.37829 17.9484 3.04785 14.6179 3.04785 10.4981C3.04785 6.37829 6.37829 3.04785 10.4981 3.04785C14.6179 3.04785 17.9558 6.37829 17.9558 10.4981C17.9558 14.6179 14.6179 17.9484 10.4981 17.9484Z"
                     fill="currentColor" fill-opacity="0.85" />
              <path d="M10.4981 15.8297C13.4402 15.8297 15.8222 13.4477 15.8222 10.5056C15.8222 7.57091 13.4402 5.18895 10.4981 5.18895C7.56345 5.18895 5.18149 7.57091 5.18149 10.5056C5.18149 13.4477 7.56345 15.8297 10.4981 15.8297ZM7.16221 10.5056C7.16221 8.6632 8.65805 7.16737 10.5004 7.16737C12.3502 7.16737 13.8461 8.6632 13.8461 10.5056C13.8461 10.7167 13.8156 10.9158 13.7592 11.1154L7.24913 11.1154C7.19272 10.9158 7.16221 10.7167 7.16221 10.5056ZM8.086 12.7999L12.9246 12.7999C12.3235 13.4414 11.4528 13.8438 10.5004 13.8438C9.55552 13.8438 8.6848 13.4414 8.086 12.7999Z"
                     fill="currentColor" fill-opacity="0.85" />
       </g>
</svg>