<?xml version="1.0" encoding="UTF-8"?>
<!--Generator: Apple Native CoreSVG 326-->
<!DOCTYPE svg PUBLIC "-//W3C//DTD SVG 1.1//EN" "http://www.w3.org/Graphics/SVG/1.1/DTD/svg11.dtd">
<svg version="1.1" xmlns="http://www.w3.org/2000/svg" xmlns:xlink="http://www.w3.org/1999/xlink"
       viewBox="0 0 21.365 21.006">
       <g>
              <rect height="21.006" opacity="0" width="21.365" x="0" y="0" />
              <path d="M21.0037 10.5079C21.0037 16.3043 16.302 21.006 10.4981 21.006C4.70394 21.006 0 16.3043 0 10.5079C0 4.7137 4.70394 0.00976562 10.4981 0.00976562C16.302 0.00976562 21.0037 4.7137 21.0037 10.5079ZM4.8318 10.5153C4.8318 13.6469 7.37626 16.1914 10.5004 16.1914C13.632 16.1914 16.1765 13.6469 16.1765 10.5153C16.1765 7.39119 13.632 4.84672 10.5004 4.84672C7.37626 4.84672 4.8318 7.39119 4.8318 10.5153ZM10.5102 14.0574C9.50384 14.0574 8.5866 13.6355 7.94358 12.9498L13.0716 12.9498C12.4263 13.6355 11.5165 14.0574 10.5102 14.0574ZM14.0522 10.5153C14.0522 10.7385 14.0217 10.9497 13.9653 11.1493L7.05503 11.1493C6.99116 10.9497 6.96811 10.7385 6.96811 10.5153C6.96811 8.565 8.55239 6.97327 10.5102 6.97327C12.4605 6.97327 14.0522 8.565 14.0522 10.5153Z"
                     fill="currentColor" fill-opacity="0.85" />
       </g>
</svg>