<?xml version="1.0" encoding="UTF-8"?>
<!--Generator: Apple Native CoreSVG 326-->
<!DOCTYPE svg PUBLIC "-//W3C//DTD SVG 1.1//EN" "http://www.w3.org/Graphics/SVG/1.1/DTD/svg11.dtd">
<svg version="1.1" xmlns="http://www.w3.org/2000/svg" xmlns:xlink="http://www.w3.org/1999/xlink"
       viewBox="0 0 21.3368 24.6602">
       <g>
              <rect height="24.6602" opacity="0" width="21.3368" x="0" y="0" />
              <path d="M14.0518 24.6309C15.781 24.6309 17.1864 23.2255 17.1864 21.4963C17.1864 19.7722 15.7885 18.3594 14.0518 18.3594C12.3277 18.3594 10.9149 19.7722 10.9149 21.4963C10.9149 23.2255 12.3277 24.6309 14.0518 24.6309ZM14.0518 22.8701C13.2953 22.8701 12.6854 22.2504 12.6854 21.494C12.6854 20.7151 13.2953 20.1276 14.0518 20.1276C14.8306 20.1276 15.4256 20.7151 15.4256 21.494C15.4256 22.2504 14.8306 22.8701 14.0518 22.8701ZM12.3946 20.1159L1.33334 20.1159C0.588 20.1159 0 20.7584 0 21.4963C0 22.2118 0.595461 22.8744 1.33334 22.8744L12.3946 22.8744ZM19.649 20.1159L15.7039 20.1159L15.7039 22.8744L19.649 22.8744C20.3852 22.8744 20.9755 22.2267 20.9755 21.4963C20.9755 20.7435 20.3926 20.1159 19.649 20.1159Z"
                     fill="currentColor" fill-opacity="0.85" />
              <path d="M10.4964 12.8013C12.7252 12.8013 14.5627 10.9615 14.5627 8.74018C14.5627 6.50682 12.7252 4.66694 10.4964 4.66694C8.27282 4.66694 6.42032 6.50682 6.42032 8.74018C6.42032 10.9615 8.27282 12.8013 10.4964 12.8013ZM10.4964 0C9.83775 0 9.30482 0.550151 9.30482 1.18643L9.30482 2.48781C9.30482 3.14647 9.83775 3.70924 10.4964 3.70924C11.1551 3.70924 11.6978 3.14647 11.6978 2.48781L11.6978 1.18643C11.6978 0.550151 11.1551 0 10.4964 0ZM16.6546 2.57218C16.2078 2.12023 15.4412 2.12769 14.9916 2.57964L14.0625 3.5334C13.6106 3.98535 13.6152 4.7319 14.0849 5.20393C14.5294 5.65357 15.2834 5.63349 15.7428 5.18901L16.6845 4.25763C17.1416 3.80338 17.114 3.01667 16.6546 2.57218ZM19.2348 8.74018C19.2348 8.08952 18.6991 7.53136 18.0478 7.53136L16.7516 7.53136C16.1079 7.53136 15.5698 8.09413 15.5698 8.74018C15.5698 9.37646 16.1079 9.92946 16.7516 9.92946L18.0478 9.92946C18.6991 9.92946 19.2348 9.38107 19.2348 8.74018ZM16.6845 14.8835C17.1387 14.4321 17.1439 13.6649 16.677 13.2055L15.733 12.2764C15.2639 11.8296 14.5219 11.8268 14.0625 12.2839C13.5905 12.7433 13.6255 13.5099 14.0849 13.9693L15.014 14.8984C15.4659 15.348 16.2302 15.3159 16.6845 14.8835ZM10.4964 17.4706C11.1551 17.4706 11.6978 16.913 11.6978 16.2744L11.6978 14.9679C11.6978 14.3241 11.1551 13.7539 10.4964 13.7539C9.83775 13.7539 9.30482 14.3241 9.30482 14.9679L9.30482 16.2744C9.30482 16.913 9.83775 17.4706 10.4964 17.4706ZM4.3158 14.8812C4.78037 15.3383 5.53669 15.3555 5.99379 14.8984L6.92286 13.9693C7.38743 13.5048 7.39258 12.7307 6.94524 12.2839C6.47837 11.8268 5.7169 11.8319 5.26495 12.2764L4.32326 13.2055C3.86616 13.6402 3.8587 14.447 4.3158 14.8812ZM1.77292 8.74018C1.77292 9.38107 2.29377 9.92946 2.94497 9.92946L4.24119 9.92946C4.89986 9.92946 5.44024 9.37646 5.44024 8.74018C5.44024 8.09413 4.89986 7.53136 4.24119 7.53136L2.94497 7.53136C2.29377 7.53136 1.77292 8.08952 1.77292 8.74018ZM4.33303 2.57218C3.90061 3.01667 3.86616 3.79822 4.32326 4.25763L5.25003 5.18901C5.70197 5.64095 6.47607 5.66103 6.92286 5.20393C7.38512 4.72729 7.38743 3.97558 6.94524 3.5334L6.00871 2.57964C5.56137 2.1323 4.79244 2.12254 4.33303 2.57218Z"
                     fill="currentColor" fill-opacity="0.85" />
       </g>
</svg>