<?xml version="1.0" encoding="UTF-8"?>
<!--Generator: Apple Native CoreSVG 326-->
<!DOCTYPE svg PUBLIC "-//W3C//DTD SVG 1.1//EN" "http://www.w3.org/Graphics/SVG/1.1/DTD/svg11.dtd">
<svg version="1.1" xmlns="http://www.w3.org/2000/svg" xmlns:xlink="http://www.w3.org/1999/xlink"
       viewBox="0 0 21.9863 19.3121">
       <g>
              <rect height="19.3121" opacity="0" width="21.9863" x="0" y="0" />
              <path d="M14.832 18.981C16.5015 18.981 17.8696 17.6129 17.8696 15.9359C17.8696 14.2664 16.509 12.8983 14.832 12.8983C13.155 12.8983 11.7846 14.2664 11.7846 15.9359C11.7846 17.6129 13.155 18.981 14.832 18.981ZM14.832 17.3098C14.0681 17.3098 13.4581 16.6975 13.4581 15.9359C13.4581 15.1623 14.0681 14.5695 14.832 14.5695C15.6033 14.5695 16.1984 15.1623 16.1984 15.9359C16.1984 16.6975 15.6033 17.3098 14.832 17.3098ZM12.8167 14.5555L1.33334 14.5555C0.588 14.5555 0 15.198 0 15.9359C0 16.6514 0.595461 17.314 1.33334 17.314L12.8167 17.314ZM20.2986 14.5555L16.8296 14.5555L16.8296 17.314L20.2986 17.314C21.0347 17.314 21.625 16.6663 21.625 15.9359C21.625 15.1831 21.0421 14.5555 20.2986 14.5555ZM6.91534 12.5315C8.56997 12.5315 9.96039 11.1612 9.96039 9.49164C9.96039 7.81462 8.59236 6.44659 6.91534 6.44659C5.24578 6.44659 3.87774 7.81462 3.87774 9.49164C3.87774 11.1612 5.24578 12.5315 6.91534 12.5315ZM6.91534 10.858C6.1612 10.858 5.54894 10.2458 5.54894 9.49164C5.54894 8.71282 6.1612 8.11778 6.91534 8.11778C7.69416 8.11778 8.2892 8.71282 8.2892 9.49164C8.2892 10.2458 7.69416 10.858 6.91534 10.858ZM1.32412 8.11123C0.588 8.11123 0 8.75376 0 9.49164C0 10.1997 0.595461 10.8698 1.32412 10.8698L4.99691 10.8698L4.99691 8.11123ZM20.2893 8.11123L8.83365 8.11123L8.83365 10.8698L20.2893 10.8698C21.0347 10.8698 21.625 10.2221 21.625 9.49164C21.625 8.73138 21.0421 8.11123 20.2893 8.11123ZM14.832 6.08496C16.5015 6.08496 17.8696 4.71692 17.8696 3.0399C17.8696 1.37034 16.5015 0 14.832 0C13.155 0 11.7846 1.37034 11.7846 3.0399C11.7846 4.71692 13.155 6.08496 14.832 6.08496ZM14.832 4.41376C14.0681 4.41376 13.4581 3.79404 13.4581 3.0376C13.4581 2.26623 14.0681 1.6712 14.832 1.6712C15.6033 1.6712 16.1984 2.26623 16.1984 3.0376C16.1984 3.79404 15.6033 4.41376 14.832 4.41376ZM12.8357 1.66179L1.33334 1.66179C0.588 1.66179 0 2.30202 0 3.0399C0 3.7554 0.595461 4.42031 1.33334 4.42031L12.8357 4.42031ZM20.2986 1.66179L16.7899 1.66179L16.7899 4.42031L20.2986 4.42031C21.0347 4.42031 21.625 3.77032 21.625 3.0399C21.625 2.2871 21.0421 1.66179 20.2986 1.66179Z"
                     fill="currentColor" fill-opacity="0.85" />
       </g>
</svg>