<?xml version="1.0" encoding="UTF-8"?>
<!--Generator: Apple Native CoreSVG 326-->
<!DOCTYPE svg PUBLIC "-//W3C//DTD SVG 1.1//EN" "http://www.w3.org/Graphics/SVG/1.1/DTD/svg11.dtd">
<svg version="1.1" xmlns="http://www.w3.org/2000/svg" xmlns:xlink="http://www.w3.org/1999/xlink"
       viewBox="0 0 21.3368 21.3892">
       <g>
              <rect height="21.3892" opacity="0" width="21.3368" x="0" y="0" />
              <path d="M14.0518 21.2811C15.781 21.2811 17.1864 19.8758 17.1864 18.1465C17.1864 16.415 15.7885 15.0096 14.0518 15.0096C12.3277 15.0096 10.9149 16.415 10.9149 18.1465C10.9149 19.8758 12.3277 21.2811 14.0518 21.2811ZM14.0518 19.5129C13.2953 19.5129 12.6854 18.9007 12.6854 18.1442C12.6854 17.3654 13.2953 16.7778 14.0518 16.7778C14.8306 16.7778 15.4256 17.3654 15.4256 18.1442C15.4256 18.9007 14.8306 19.5129 14.0518 19.5129ZM12.3946 16.7661L1.33334 16.7661C0.588 16.7661 0 17.4087 0 18.1465C0 18.862 0.595461 19.5246 1.33334 19.5246L12.3946 19.5246ZM19.649 16.7661L15.7039 16.7661L15.7039 19.5246L19.649 19.5246C20.3852 19.5246 20.9755 18.877 20.9755 18.1465C20.9755 17.3937 20.3926 16.7661 19.649 16.7661Z"
                     fill="currentColor" fill-opacity="0.85" />
              <path d="M3.56439 13.7693L17.4088 13.7693C19.6861 13.7693 20.9755 12.4891 20.9755 10.2141L20.9755 3.55517C20.9755 1.28015 19.6861 0 17.4088 0L3.56439 0C1.31988 0 0 1.28015 0 3.55517L0 10.2141C0 12.4891 1.28937 13.7693 3.56439 13.7693ZM3.79853 11.0413C3.28981 11.0413 3.01964 10.7711 3.01964 10.2624L3.01964 3.51435C3.01964 3.00563 3.28981 2.72801 3.79853 2.72801L17.1746 2.72801C17.6857 2.72801 17.9558 3.00563 17.9558 3.51435L17.9558 10.2624C17.9558 10.7711 17.6857 11.0413 17.1746 11.0413Z"
                     fill="currentColor" fill-opacity="0.85" />
       </g>
</svg>