<?xml version="1.0" encoding="UTF-8"?>
<!--Generator: Apple Native CoreSVG 326-->
<!DOCTYPE svg PUBLIC "-//W3C//DTD SVG 1.1//EN" "http://www.w3.org/Graphics/SVG/1.1/DTD/svg11.dtd">
<svg version="1.1" xmlns="http://www.w3.org/2000/svg" xmlns:xlink="http://www.w3.org/1999/xlink"
       viewBox="0 0 28.6211 21.173">
       <g>
              <rect height="21.173" opacity="0" width="28.6211" x="0" y="0" />
              <path d="M17.8598 13.446L25.3002 13.446C27.0997 13.446 28.2598 12.2957 28.2598 10.5129L28.2598 3.02304C28.2598 1.25285 27.0997 0.102508 25.3002 0.102508L17.8598 0.102508C16.0626 0.102508 14.9025 1.25285 14.9025 3.02304L14.9025 10.5129C14.9025 12.2957 16.0626 13.446 17.8598 13.446ZM18.4985 10.4183C18.1387 10.4183 17.9301 10.2023 17.9301 9.84017L17.9301 3.70833C17.9301 3.34622 18.1387 3.13016 18.4985 3.13016L24.654 3.13016C25.0184 3.13016 25.2321 3.34622 25.2321 3.70833L25.2321 9.84017C25.2321 10.2023 25.0184 10.4183 24.654 10.4183Z"
                     fill="currentColor" fill-opacity="0.85" />
              <path d="M2.89639 13.3116L10.18 13.3116C11.9456 13.3116 13.081 12.1808 13.081 10.4422L13.081 3.09886C13.081 1.36773 11.9456 0.236922 10.18 0.236922L2.89639 0.236922C1.14058 0.236922 0 1.36543 0 3.09886L0 10.4422C0 12.1831 1.14058 13.3116 2.89639 13.3116ZM1.32412 16.658C0.58054 16.658 0 17.2856 0 18.0384C0 18.7689 0.588 19.4166 1.32412 19.4166L4.81415 19.4166L4.81415 16.658ZM6.81926 21.173C8.54104 21.173 9.95385 19.7677 9.95385 18.0384C9.95385 16.3069 8.54104 14.9016 6.81926 14.9016C5.08255 14.9016 3.68467 16.3069 3.68467 18.0384C3.68467 19.7677 5.09002 21.173 6.81926 21.173ZM6.81926 19.4048C6.04044 19.4048 5.45286 18.7926 5.45286 18.0361C5.45286 17.2573 6.04044 16.6697 6.81926 16.6697C7.5734 16.6697 8.18566 17.2573 8.18566 18.0361C8.18566 18.7926 7.5734 19.4048 6.81926 19.4048ZM8.8271 16.658L8.8271 19.4166L26.9241 19.4166C27.662 19.4166 28.2598 18.7539 28.2598 18.0384C28.2598 17.3006 27.6695 16.658 26.9241 16.658Z"
                     fill="currentColor" fill-opacity="0.85" />
       </g>
</svg>