<?xml version="1.0" encoding="UTF-8"?>
<!--Generator: Apple Native CoreSVG 326-->
<!DOCTYPE svg PUBLIC "-//W3C//DTD SVG 1.1//EN" "http://www.w3.org/Graphics/SVG/1.1/DTD/svg11.dtd">
<svg version="1.1" xmlns="http://www.w3.org/2000/svg" xmlns:xlink="http://www.w3.org/1999/xlink"
       viewBox="0 0 22.6738 22.3394">
       <g>
              <rect height="22.3394" opacity="0" width="22.6738" x="0" y="0" />
              <path d="M5.57496 1.52168C5.0518 1.81629 4.90192 2.46003 5.19422 2.97342L6.91528 5.95885C7.21734 6.47971 7.85132 6.65658 8.36471 6.35451C8.88787 6.05475 9.04521 5.41847 8.75522 4.90738L7.0244 1.91218C6.72233 1.40855 6.08835 1.22422 5.57496 1.52168Z"
                     fill="currentColor" fill-opacity="0.85" />
              <path d="M1.49184 5.59965C1.19723 6.1228 1.38156 6.75678 1.8875 7.05139L4.88039 8.78221C5.39378 9.07967 6.02776 8.91486 6.32236 8.40147C6.61982 7.87831 6.44525 7.24433 5.93186 6.94973L2.93897 5.22637C2.43304 4.92891 1.78929 5.09371 1.49184 5.59965Z"
                     fill="currentColor" fill-opacity="0.85" />
              <path d="M0 11.1821C0 11.7764 0.469175 12.2433 1.06124 12.2433L4.51311 12.2433C5.10748 12.2433 5.58181 11.7764 5.58181 11.1821C5.58181 10.59 5.10748 10.1306 4.51311 10.1306L1.06124 10.1306C0.469175 10.1306 0 10.59 0 11.1821Z"
                     fill="currentColor" fill-opacity="0.85" />
              <path d="M1.4993 16.7645C1.79675 17.2802 2.43304 17.4375 2.93897 17.1475L5.93186 15.4242C6.44525 15.1221 6.62213 14.4881 6.32236 13.9747C6.02776 13.4516 5.39378 13.2942 4.88039 13.5842L1.8875 15.315C1.38156 15.6171 1.19723 16.2511 1.4993 16.7645Z"
                     fill="currentColor" fill-opacity="0.85" />
              <path d="M5.58242 20.8499C6.08835 21.1497 6.72233 20.9653 7.0244 20.4519L8.75522 17.4665C9.04521 16.9457 8.88787 16.3117 8.36702 16.0194C7.85132 15.7196 7.21734 15.8942 6.91528 16.4076L5.19422 19.4005C4.90192 19.9064 5.06672 20.5502 5.58242 20.8499Z"
                     fill="currentColor" fill-opacity="0.85" />
              <path d="M11.1551 22.3394C11.7494 22.3394 12.2089 21.8703 12.2089 21.2782L12.2089 17.8263C12.2089 17.2343 11.7494 16.7576 11.1551 16.7576C10.563 16.7576 10.1036 17.2343 10.1036 17.8263L10.1036 21.2782C10.1036 21.8703 10.563 22.3394 11.1551 22.3394Z"
                     fill="currentColor" fill-opacity="0.85" />
              <path d="M16.7375 20.8425C17.2457 20.5427 17.4105 19.9064 17.1131 19.4005L15.3897 16.4076C15.0974 15.8942 14.4611 15.7173 13.9403 16.0171C13.4246 16.3117 13.2598 16.9457 13.5595 17.4665L15.2881 20.4519C15.5827 20.9653 16.2166 21.1497 16.7375 20.8425Z"
                     fill="currentColor" fill-opacity="0.85" />
              <path d="M20.8229 16.757C21.1175 16.2511 20.9309 15.6171 20.4273 15.315L17.4321 13.5842C16.921 13.2942 16.2847 13.4516 15.9849 13.9724C15.6926 14.4881 15.8597 15.1221 16.3806 15.4242L19.3735 17.1475C19.8794 17.4375 20.5232 17.2802 20.8229 16.757Z"
                     fill="currentColor" fill-opacity="0.85" />
              <path d="M22.3125 11.1821C22.3125 10.59 21.8381 10.1306 21.2438 10.1306L17.7919 10.1306C17.1998 10.1306 16.7306 10.59 16.7306 11.1821C16.7306 11.7764 17.1998 12.2433 17.7919 12.2433L21.2438 12.2433C21.8381 12.2433 22.3125 11.7764 22.3125 11.1821Z"
                     fill="currentColor" fill-opacity="0.85" />
              <path d="M20.8252 5.60195C20.5232 5.08625 19.8794 4.92891 19.3735 5.22637L16.3806 6.94973C15.8597 7.24433 15.6903 7.87831 15.9872 8.40147C16.2847 8.91256 16.921 9.07967 17.4321 8.78221L20.4273 7.05139C20.9309 6.75678 21.1152 6.1228 20.8252 5.60195Z"
                     fill="currentColor" fill-opacity="0.85" />
              <path d="M16.7398 1.52398C16.2166 1.22422 15.5827 1.40855 15.2881 1.91218L13.5595 4.90738C13.2598 5.41847 13.4246 6.05475 13.9403 6.35682C14.4611 6.64681 15.0951 6.47971 15.3897 5.95885L17.1131 2.97342C17.4105 2.46003 17.2457 1.81629 16.7398 1.52398Z"
                     fill="currentColor" fill-opacity="0.85" />
              <path d="M11.1551 0.026992C10.563 0.026992 10.1036 0.503628 10.1036 1.09569L10.1036 4.54757C10.1036 5.13963 10.563 5.60881 11.1551 5.60881C11.7494 5.60881 12.2089 5.13963 12.2089 4.54757L12.2089 1.09569C12.2089 0.503628 11.7494 0.026992 11.1551 0.026992Z"
                     fill="currentColor" fill-opacity="0.85" />
       </g>
</svg>