<?xml version="1.0" encoding="UTF-8"?>
<!--Generator: Apple Native CoreSVG 326-->
<!DOCTYPE svg PUBLIC "-//W3C//DTD SVG 1.1//EN" "http://www.w3.org/Graphics/SVG/1.1/DTD/svg11.dtd">
<svg version="1.1" xmlns="http://www.w3.org/2000/svg" xmlns:xlink="http://www.w3.org/1999/xlink"
       viewBox="0 0 21.365 21.006">
       <g>
              <rect height="21.006" opacity="0" width="21.365" x="0" y="0" />
              <path d="M21.0037 10.5079C21.0037 16.3043 16.302 21.006 10.4981 21.006C4.70394 21.006 0 16.3043 0 10.5079C0 4.7137 4.70394 0.00976562 10.4981 0.00976562C16.302 0.00976562 21.0037 4.7137 21.0037 10.5079ZM10.4258 8.933C10.2563 8.89964 10.0885 8.88526 9.91897 8.88526C8.94635 8.88526 8.07951 9.52761 7.82397 10.456C6.79967 10.6121 6.03728 11.4784 6.03728 12.5056C6.03728 13.7205 6.94943 14.6292 8.2172 14.6292L14.1509 14.6292C15.5577 14.6292 16.5549 13.6475 16.5549 12.3327C16.5549 11.3256 15.9028 10.4421 14.952 10.1475C14.762 8.9014 13.6832 7.94194 12.4055 7.94194C11.6064 7.94194 10.8848 8.29933 10.4258 8.933ZM5.95661 7.64206C5.00122 7.94412 4.35141 8.82764 4.35141 9.84217C4.35141 10.5754 4.61653 11.2442 5.3492 11.7828C5.58248 10.8442 6.30229 10.1032 7.22541 9.78394C7.70787 8.77742 8.7631 8.09546 9.91897 8.09546C9.97362 8.09546 10.0455 8.09777 10.1001 8.10238C10.8358 7.35054 11.8432 7.11374 12.7072 7.18659C12.4563 6.67417 11.8279 6.3328 11.1165 6.3328C10.8999 6.3328 10.7074 6.36901 10.5029 6.42475C9.99685 5.76409 9.31489 5.45146 8.5129 5.45146C7.23008 5.45146 6.14434 6.40116 5.95661 7.64206Z"
                     fill="currentColor" fill-opacity="0.85" />
       </g>
</svg>