<?xml version="1.0" encoding="UTF-8"?>
<!--Generator: Apple Native CoreSVG 326-->
<!DOCTYPE svg PUBLIC "-//W3C//DTD SVG 1.1//EN" "http://www.w3.org/Graphics/SVG/1.1/DTD/svg11.dtd">
<svg version="1.1" xmlns="http://www.w3.org/2000/svg" xmlns:xlink="http://www.w3.org/1999/xlink"
       viewBox="0 0 21.365 21.006">
       <g>
              <rect height="21.006" opacity="0" width="21.365" x="0" y="0" />
              <path d="M10.4981 20.9962C16.302 20.9962 21.0037 16.2946 21.0037 10.4981C21.0037 4.70163 16.302 0 10.4981 0C4.70163 0 0 4.70163 0 10.4981C0 16.2946 4.70163 20.9962 10.4981 20.9962ZM10.4981 17.9484C6.37829 17.9484 3.04785 14.6179 3.04785 10.4981C3.04785 6.37829 6.37829 3.04785 10.4981 3.04785C14.6179 3.04785 17.9558 6.37829 17.9558 10.4981C17.9558 14.6179 14.6179 17.9484 10.4981 17.9484Z"
                     fill="currentColor" fill-opacity="0.85" />
              <path d="M8.35271 14.3387L13.927 14.3387C15.2477 14.3387 16.1857 13.4161 16.1857 12.1851C16.1857 11.2394 15.5703 10.4128 14.6787 10.1354C14.4961 8.95593 13.4937 8.05792 12.2849 8.05792C11.5351 8.05792 10.8578 8.39807 10.431 8.98983C10.2712 8.95647 10.1206 8.93979 9.95111 8.93979C9.03763 8.93979 8.22248 9.55745 7.98416 10.4193C7.02646 10.5679 6.31575 11.3825 6.31575 12.3505C6.31575 13.4816 7.16876 14.3387 8.35271 14.3387ZM4.72808 9.84217C4.72808 10.5289 4.98114 11.1632 5.66958 11.6697C5.8931 10.7902 6.55377 10.0814 7.43498 9.79425C7.88298 8.84917 8.86416 8.20167 9.95111 8.20167C10.0058 8.20167 10.0753 8.20628 10.13 8.21835C10.8112 7.51128 11.7519 7.27909 12.5665 7.35424C12.3305 6.87397 11.744 6.55213 11.0769 6.55213C10.8677 6.55213 10.6851 6.57858 10.4977 6.63947C10.0238 6.01557 9.37864 5.72017 8.62602 5.72017C7.41957 5.72017 6.4102 6.61072 6.22993 7.78041C5.33367 8.0624 4.72808 8.89424 4.72808 9.84217Z"
                     fill="currentColor" fill-opacity="0.85" />
       </g>
</svg>