<?xml version="1.0" encoding="UTF-8"?>
<!--Generator: Apple Native CoreSVG 326-->
<!DOCTYPE svg PUBLIC "-//W3C//DTD SVG 1.1//EN" "http://www.w3.org/Graphics/SVG/1.1/DTD/svg11.dtd">
<svg version="1.1" xmlns="http://www.w3.org/2000/svg" xmlns:xlink="http://www.w3.org/1999/xlink"
       viewBox="0 0 18.78 20.9197">
       <g>
              <rect height="20.9197" opacity="0" width="18.78" x="0" y="0" />
              <path d="M9.20933 20.91C9.87776 20.91 10.3033 20.4431 10.3033 19.7546L10.3033 18.098L11.1697 18.7492C11.6355 19.1683 12.2304 19.1688 12.5996 18.6732C12.9172 18.2287 12.862 17.6539 12.3267 17.3071L10.3033 16.0484L10.3033 14.9499L10.0483 11.9411L12.555 13.6588L13.4972 14.2069L13.5896 16.5745C13.6269 17.2108 14.092 17.5508 14.6203 17.4911C15.2417 17.4315 15.5386 16.9101 15.4118 16.3059L15.2798 15.2332L16.7152 16.0612C17.3124 16.4052 17.9348 16.2553 18.2518 15.6799C18.5688 15.1148 18.3942 14.4878 17.8091 14.1559L16.3812 13.3227L17.3745 12.9034C17.9573 12.7109 18.2703 12.1924 18.013 11.617C17.7878 11.1329 17.2675 10.9032 16.7047 11.1852L14.5963 12.2941L13.6466 11.746L10.9027 10.455L13.6489 9.15646L14.594 8.61353L16.7024 9.7299C17.2652 10.0194 17.7924 9.77479 18.0227 9.27807C18.2777 8.72507 17.9648 8.20422 17.3745 8.00429L16.3812 7.58729L17.8091 6.75411C18.404 6.40498 18.5786 5.8026 18.2616 5.23007C17.9371 4.66961 17.3049 4.51457 16.7175 4.84878L15.2798 5.67219L15.4095 4.60919C15.5438 3.98783 15.2417 3.47104 14.6301 3.41882C14.0972 3.36659 13.6269 3.70433 13.5896 4.33315L13.4949 6.71335L12.555 7.26375L10.0483 8.98383L10.3033 5.95776L10.3033 4.85928L12.3267 3.59545C12.862 3.25377 12.9097 2.68124 12.5996 2.23445C12.2453 1.74113 11.6355 1.73937 11.1697 2.16081L10.3033 2.81195L10.3033 1.15307C10.3033 0.464565 9.87776 0 9.20933 0C8.56043 0 8.1177 0.472026 8.1177 1.15307L8.1177 2.81195L7.24432 2.16081C6.77108 1.73937 6.18824 1.74113 5.80926 2.23445C5.49918 2.68124 5.55668 3.25377 6.09191 3.59315L8.1177 4.85928L8.1177 5.95776L8.3704 8.99129L5.8562 7.26375L4.92143 6.70589L4.82905 4.33315C4.79175 3.70433 4.32148 3.36659 3.79086 3.41882C3.17696 3.47104 2.88005 3.9976 2.99942 4.60173L3.13887 5.67219L1.7012 4.84878C1.11605 4.51687 0.479225 4.66961 0.157081 5.23007C-0.162213 5.8026 0.0146603 6.4222 0.602115 6.75411L2.03517 7.58729L1.04418 8.00429C0.453871 8.20422 0.148407 8.72562 0.403405 9.28553C0.631412 9.77709 1.15117 10.0194 1.71625 9.7299L3.80742 8.61583L4.76227 9.15646L7.51369 10.455L4.76227 11.746L3.81488 12.2964L1.71394 11.1778C1.15117 10.8808 0.626256 11.1329 0.400554 11.6221C0.143251 12.1895 0.453871 12.7034 1.04418 12.9034L2.03748 13.3227L0.609575 14.1559C0.0244259 14.4878-0.167369 15.1171 0.157081 15.6776C0.483835 16.2576 1.10859 16.4006 1.7012 16.0612L3.13887 15.2378L2.99942 16.2985C2.87259 16.9101 3.17696 17.4389 3.78856 17.4911C4.32664 17.5434 4.79175 17.2033 4.82905 16.5745L4.92374 14.192L5.8562 13.6462L8.3704 11.9261L8.1177 14.9499L8.1177 16.0484L6.09191 17.3071C5.55668 17.6539 5.50664 18.2287 5.80926 18.6732C6.17331 19.1688 6.77108 19.1683 7.24432 18.7492L8.1177 18.0957L8.1177 19.7546C8.1177 20.4282 8.56043 20.91 9.20933 20.91Z"
                     fill="currentColor" fill-opacity="0.85" />
       </g>
</svg>