<?xml version="1.0" encoding="UTF-8"?>
<!--Generator: Apple Native CoreSVG 326-->
<!DOCTYPE svg PUBLIC "-//W3C//DTD SVG 1.1//EN" "http://www.w3.org/Graphics/SVG/1.1/DTD/svg11.dtd">
<svg version="1.1" xmlns="http://www.w3.org/2000/svg" xmlns:xlink="http://www.w3.org/1999/xlink"
       viewBox="0 0 31.775 16.0562">
       <g>
              <rect height="16.0562" opacity="0" width="31.775" x="0" y="0" />
              <path d="M1.24911 16.0562L2.60071 16.0562C3.42539 16.0562 3.86758 15.6163 4.09328 15.0547L9.66296 1.20694C9.90413 0.601163 9.56882 0.026992 8.9286 0.026992L8.21922 0.026992C7.74313 0.026992 7.34923 0.260154 7.0983 0.739641L0.170103 14.3157C-0.252549 15.1122 0.11436 16.0562 1.24911 16.0562ZM28.813 16.0487L30.1594 16.0487C31.2993 16.0487 31.6588 15.1047 31.2436 14.3082L24.3177 0.73218C24.0645 0.252693 23.6631 0.0120705 23.1945 0.0120705L22.4851 0.0120705C21.8449 0.0120705 21.5119 0.593702 21.7507 1.19947L27.3204 15.0472C27.5461 15.6089 27.9883 16.0487 28.813 16.0487Z"
                     fill="currentColor" fill-opacity="0.85" />
              <path d="M15.7045 14.7069C16.129 14.7069 16.4207 14.4002 16.4207 13.9637L16.4207 13.1804L16.7831 13.4426C17.1059 13.728 17.4935 13.6969 17.7393 13.3736C17.9506 13.0548 17.8702 12.6849 17.5445 12.4816L16.4207 11.7819L16.4207 11.1878L16.2909 9.62387L17.594 10.5224L18.0956 10.812L18.153 12.1335C18.1679 12.5206 18.4551 12.7699 18.8278 12.7326C19.2224 12.6953 19.4401 12.3685 19.358 11.9693L19.3155 11.5127L19.9919 11.9029C20.3698 12.1286 20.7821 12.0304 20.9878 11.6525C21.1962 11.2798 21.086 10.8651 20.6983 10.6544L20.0368 10.2665L20.444 10.0766C20.8391 9.94559 21.0188 9.59755 20.8574 9.23173C20.6862 8.88084 20.329 8.77517 19.9884 8.93888L18.8169 9.56346L18.3131 9.26643L16.8824 8.59587L18.3131 7.93278L18.8169 7.62599L19.9884 8.25287C20.329 8.42919 20.6885 8.31091 20.8574 7.95486C21.0188 7.60682 20.8391 7.24616 20.444 7.11283L20.0368 6.92298L20.6983 6.53739C21.086 6.31169 21.1962 5.91427 20.9952 5.54669C20.7867 5.18373 20.3698 5.07807 19.9919 5.28654L19.3155 5.67674L19.358 5.22989C19.4475 4.82556 19.2373 4.48673 18.8376 4.45689C18.4551 4.41958 18.1679 4.67865 18.153 5.05829L18.0956 6.39236L17.594 6.68193L16.2909 7.57534L16.4207 6.00392L16.4207 5.41732L17.5445 4.71013C17.8702 4.50681 17.9506 4.13693 17.7393 3.81818C17.501 3.50228 17.1059 3.47869 16.7831 3.74915L16.4207 4.01131L16.4207 3.22806C16.4207 2.78927 16.129 2.4849 15.7045 2.4849C15.2899 2.4849 14.9981 2.79158 14.9981 3.22806L14.9981 4.01361L14.626 3.74915C14.3009 3.48099 13.9081 3.50228 13.6698 3.81818C13.4585 4.12201 13.5337 4.49935 13.8645 4.70782L14.9981 5.41732L14.9981 6.00392L15.128 7.57534L13.8197 6.68424L13.3135 6.39236L13.2636 5.05829C13.2412 4.67865 12.9615 4.41958 12.5813 4.45689C12.1867 4.48673 11.9788 4.82325 12.0534 5.22243L12.0959 5.67674L11.427 5.28654C11.0393 5.07576 10.6298 5.18603 10.4139 5.54669C10.2129 5.91197 10.3306 6.32661 10.7033 6.53739L11.3797 6.92298L10.9726 7.11283C10.57 7.24385 10.3828 7.58959 10.5517 7.96978C10.7206 8.31091 11.0801 8.4315 11.4282 8.25287L12.5996 7.62829L13.096 7.93278L14.5341 8.59587L13.096 9.26643L12.5996 9.56346L11.4282 8.93888C11.0801 8.76771 10.7056 8.87853 10.554 9.23458C10.3851 9.59755 10.5752 9.9479 10.9726 10.0766L11.3797 10.2665L10.7108 10.6544C10.3306 10.8651 10.2077 11.2872 10.4139 11.6525C10.6321 12.0304 11.0393 12.1286 11.427 11.9029L12.0959 11.515L12.0534 11.9619C11.9713 12.3685 12.1793 12.7027 12.5813 12.7326C12.9615 12.7699 13.2412 12.5206 13.2636 12.1335L13.3135 10.7971L13.8197 10.5075L15.128 9.61641L14.9981 11.1878L14.9981 11.7819L13.8645 12.4839C13.5412 12.6849 13.4659 13.0548 13.6698 13.3736C13.9081 13.6969 14.3009 13.7108 14.626 13.4426L14.9981 13.1781L14.9981 13.9637C14.9981 14.3979 15.2899 14.7069 15.7045 14.7069Z"
                     fill="currentColor" fill-opacity="0.85" />
       </g>
</svg>