<?xml version="1.0" encoding="UTF-8"?>
<!--Generator: Apple Native CoreSVG 326-->
<!DOCTYPE svg PUBLIC "-//W3C//DTD SVG 1.1//EN" "http://www.w3.org/Graphics/SVG/1.1/DTD/svg11.dtd">
<svg version="1.1" xmlns="http://www.w3.org/2000/svg" xmlns:xlink="http://www.w3.org/1999/xlink"
       viewBox="0 0 23.6023 23.2367">
       <g>
              <rect height="23.2367" opacity="0" width="23.6023" x="0" y="0" />
              <path d="M12.7072 15.8914L12.7256 16.1084L12.7256 17.2069L14.7417 18.4655C15.2769 18.8124 15.3395 19.3872 15.022 19.8317C14.6528 20.3273 14.0579 20.3268 13.5846 19.9076L12.7256 19.2565L12.7256 20.9131C12.7256 21.6016 12.2927 22.0685 11.6317 22.0685C10.9753 22.0685 10.5326 21.5867 10.5326 20.9131L10.5326 19.2542L9.66668 19.9076C9.19344 20.3268 8.59568 20.3273 8.23162 19.8317C7.92155 19.3872 7.97905 18.8124 8.51428 18.4655L10.5326 17.2069L10.5326 16.1084L10.7169 13.9032ZM10.259 13.4458L8.27857 14.8047L7.33864 15.3505L7.25142 17.733C7.21411 18.3618 6.749 18.7019 6.21092 18.6496C5.59187 18.5974 5.28749 18.0685 5.42179 17.457L5.56124 16.3963L4.11841 17.2197C3.5235 17.559 2.9062 17.4161 2.57944 16.8361C2.24753 16.2756 2.44679 15.6462 3.02448 15.3143L4.45238 14.4812L3.45908 14.0619C2.86877 13.8619 2.56562 13.348 2.82522 12.7806C3.04862 12.2914 3.56608 12.0393 4.13631 12.3362L6.23725 13.4549L7.18464 12.9045L8.90778 12.096ZM20.4279 12.7755C20.6852 13.3508 20.3797 13.8694 19.7968 14.0619L18.8035 14.4812L20.2315 15.3143C20.8091 15.6462 20.9837 16.2733 20.669 16.8384C20.5903 16.9802 20.4936 17.0962 20.3835 17.1851L16.1436 12.9464L17.0187 13.4526L19.1196 12.3437C19.6899 12.0617 20.2027 12.2914 20.4279 12.7755ZM17.045 4.5773C17.6641 4.62953 17.9661 5.14632 17.8318 5.76768L17.6947 6.83068L19.1398 6.00727C19.7273 5.67306 20.352 5.82809 20.6765 6.38856C21.0009 6.96109 20.8264 7.56346 20.2315 7.9126L18.8035 8.74577L19.7968 9.16278C20.3872 9.3627 20.6926 9.88356 20.4451 10.4366C20.2073 10.9333 19.6875 11.1778 19.1173 10.8884L17.0164 9.77201L16.0713 10.3149L14.3319 11.1352L12.9854 9.78906L14.9774 8.42223L15.9173 7.87184L16.0045 5.49163C16.0418 4.86281 16.5121 4.52508 17.045 4.5773ZM7.04662 10.2368L6.22979 9.77432L4.13861 10.8884C3.56608 11.1778 3.05378 10.9356 2.82577 10.444C2.57077 9.8841 2.86877 9.3627 3.45908 9.16278L4.45008 8.74577L3.01702 7.9126C2.43187 7.58069 2.25269 6.96109 2.57944 6.38856C2.65696 6.25369 2.7527 6.14243 2.86183 6.05649ZM12.7256 2.31156L12.7256 3.97044L13.5846 3.3193C14.0579 2.89786 14.6603 2.89962 15.022 3.39293C15.3321 3.83973 15.2769 4.41226 14.7417 4.75394L12.7256 6.01777L12.7256 7.11625L12.5381 9.34182L10.5527 7.35694L10.5326 7.11625L10.5326 6.01777L8.51428 4.75163C7.97905 4.41226 7.91409 3.83973 8.23162 3.39293C8.60314 2.89962 9.19344 2.89786 9.66668 3.3193L10.5326 3.97044L10.5326 2.31156C10.5326 1.63051 10.9753 1.15849 11.6317 1.15849C12.2927 1.15849 12.7256 1.62305 12.7256 2.31156Z"
                     fill="currentColor" fill-opacity="0.85" />
              <path d="M20.3877 21.5929C20.718 21.9157 21.2734 21.9209 21.6014 21.5831C21.9242 21.2529 21.9316 20.7072 21.6014 20.3769L2.86307 1.6461C2.5328 1.31583 1.97737 1.31352 1.63964 1.6461C1.31683 1.97407 1.31683 2.53696 1.63964 2.85977Z"
                     fill="currentColor" fill-opacity="0.85" />
       </g>
</svg>