<?xml version="1.0" encoding="UTF-8"?>
<!--Generator: Apple Native CoreSVG 326-->
<!DOCTYPE svg PUBLIC "-//W3C//DTD SVG 1.1//EN" "http://www.w3.org/Graphics/SVG/1.1/DTD/svg11.dtd">
<svg version="1.1" xmlns="http://www.w3.org/2000/svg" xmlns:xlink="http://www.w3.org/1999/xlink"
       viewBox="0 0 26.5645 26.2221">
       <g>
              <rect height="26.2221" opacity="0" width="26.5645" x="0" y="0" />
              <path d="M1.82825 24.3663C4.35433 26.9073 7.71892 26.7844 10.3794 24.1262C11.4576 23.0607 13.5439 20.0518 16.7861 16.7872C20.053 13.5352 23.0596 11.4587 24.1251 10.3782C26.7856 7.72001 26.9137 4.35542 24.3727 1.82934C21.8466-0.711669 18.4843-0.583623 15.8238 2.07687C14.7433 3.13496 12.6593 6.14156 9.4148 9.40843C6.15023 12.6604 3.14133 14.7444 2.07809 15.8226C-0.582408 18.4756-0.712758 21.8477 1.82825 24.3663ZM3.54409 22.6579C2.03557 21.1689 2.12862 19.1767 3.78186 17.5212C4.73658 16.5665 7.73342 14.4922 11.1037 11.095C14.4986 7.72705 16.5677 4.72045 17.5224 3.77549C19.1756 2.11994 21.1678 2.02689 22.6591 3.54287C24.1751 5.0267 24.0746 7.02635 22.4288 8.67443C21.4815 9.63662 18.4772 11.7034 15.0996 15.1006C11.7098 18.4686 9.63553 21.4654 8.68081 22.4201C7.02526 24.0757 5.03307 24.1687 3.54409 22.6579ZM9.89975 15.0252L11.1716 16.3022C11.6587 16.7841 12.4025 16.7669 12.8672 16.3045C13.3468 15.8152 13.3468 15.1081 12.8672 14.6285L11.5735 13.3297C11.0939 12.8478 10.3696 12.8478 9.89975 13.3176C9.41784 13.7995 9.42014 14.5433 9.89975 15.0252ZM13.309 11.6136L14.5809 12.8929C15.08 13.3823 15.8141 13.3749 16.2765 12.8929C16.7463 12.4231 16.7635 11.6867 16.2765 11.2071L14.9949 9.91807C14.5153 9.43846 13.7691 9.45568 13.2993 9.91807C12.8197 10.3879 12.8294 11.134 13.309 11.6136Z"
                     fill="currentColor" fill-opacity="0.85" />
       </g>
</svg>