<?xml version="1.0" encoding="UTF-8"?>
<!--Generator: Apple Native CoreSVG 326-->
<!DOCTYPE svg PUBLIC "-//W3C//DTD SVG 1.1//EN" "http://www.w3.org/Graphics/SVG/1.1/DTD/svg11.dtd">
<svg version="1.1" xmlns="http://www.w3.org/2000/svg" xmlns:xlink="http://www.w3.org/1999/xlink"
       viewBox="0 0 21.365 21.006">
       <g>
              <rect height="21.006" opacity="0" width="21.365" x="0" y="0" />
              <path d="M10.4981 20.9962C16.302 20.9962 21.0037 16.2946 21.0037 10.4981C21.0037 4.70163 16.302 0 10.4981 0C4.70163 0 0 4.70163 0 10.4981C0 16.2946 4.70163 20.9962 10.4981 20.9962ZM10.4981 17.9484C6.37829 17.9484 3.04785 14.6179 3.04785 10.4981C3.04785 6.37829 6.37829 3.04785 10.4981 3.04785C14.6179 3.04785 17.9558 6.37829 17.9558 10.4981C17.9558 14.6179 14.6179 17.9484 10.4981 17.9484Z"
                     fill="currentColor" fill-opacity="0.85" />
              <path d="M10.4935 16.2137C10.8904 16.2137 11.1574 15.9219 11.1574 15.5153L11.1574 14.7768L11.5123 15.0315C11.8128 15.2847 12.1729 15.2634 12.4014 14.9625C12.6001 14.6661 12.5249 14.3186 12.2216 14.1302L11.1574 13.4752L11.1574 12.9185L11.0426 11.444L12.2734 12.2829L12.7428 12.5576L12.795 13.8044C12.81 14.1617 13.0724 14.4035 13.4228 14.3662C13.7875 14.3289 13.9903 14.0245 13.9157 13.6552L13.8807 13.2112L14.5123 13.5813C14.8678 13.7921 15.2526 13.7014 15.441 13.3533C15.642 13.003 15.534 12.6182 15.1762 12.4223L14.5521 12.0568L14.9345 11.8744C15.3072 11.7508 15.472 11.4177 15.3278 11.0817C15.1641 10.7532 14.8293 10.655 14.5111 10.8113L13.4142 11.3985L12.9402 11.1141L11.5893 10.4906L12.9402 9.8574L13.4142 9.57298L14.5111 10.17C14.8293 10.324 15.1664 10.2206 15.3278 9.8944C15.472 9.56128 15.3072 9.23046 14.9345 9.1046L14.5521 8.91474L15.1762 8.559C15.534 8.34822 15.642 7.98064 15.4484 7.63545C15.2572 7.29486 14.8678 7.19666 14.5123 7.39021L13.8807 7.75803L13.9157 7.33356C13.9977 6.95161 13.7949 6.63517 13.4251 6.61279C13.0724 6.57548 12.81 6.81216 12.795 7.17689L12.7428 8.42143L12.2711 8.69608L11.0426 9.54241L11.1574 8.05537L11.1574 7.50607L12.2216 6.84364C12.5249 6.65525 12.6001 6.30775 12.4014 6.01884C12.1878 5.71787 11.8128 5.69427 11.5123 5.94982L11.1574 6.19705L11.1574 5.45856C11.1574 5.04962 10.8904 4.76763 10.4935 4.76763C10.1087 4.76763 9.83932 5.05192 9.83932 5.45856L9.83932 6.19935L9.47466 5.94982C9.17193 5.69658 8.80896 5.71787 8.58556 6.01884C8.38916 6.30029 8.46443 6.64778 8.77517 6.84134L9.83932 7.50607L9.83932 8.05537L9.95421 9.54241L8.72798 8.69838L8.25396 8.42143L8.20404 7.17689C8.18912 6.81216 7.92435 6.57548 7.5717 6.61279C7.20928 6.63517 7.0065 6.94931 7.08111 7.31864L7.11611 7.75803L6.4845 7.39021C6.12669 7.19436 5.73958 7.29717 5.54833 7.63545C5.35247 7.97087 5.46275 8.35568 5.80564 8.559L6.44471 8.91474L6.06227 9.1046C5.68208 9.22815 5.51728 9.55151 5.66892 9.90186C5.83032 10.2206 6.16005 10.3263 6.48802 10.17L7.58255 9.57529L8.05658 9.8574L9.40745 10.4906L8.05658 11.1141L7.58255 11.3985L6.48802 10.8113C6.16005 10.6476 5.80794 10.7509 5.67122 11.0846C5.51958 11.4177 5.68724 11.7508 6.06227 11.8744L6.44471 12.0568L5.82056 12.4223C5.46275 12.6182 5.34732 13.0104 5.54833 13.3533C5.74189 13.7014 6.12669 13.7921 6.4845 13.5813L7.11611 13.2158L7.08111 13.6477C6.99904 14.0245 7.20182 14.3364 7.5717 14.3662C7.92435 14.4035 8.18912 14.1617 8.20404 13.8044L8.25396 12.5501L8.72798 12.2755L9.95421 11.4366L9.83932 12.9185L9.83932 13.4752L8.77517 14.1302C8.47189 14.3186 8.39662 14.6661 8.58556 14.9625C8.80896 15.2634 9.17193 15.275 9.47466 15.0315L9.83932 14.7745L9.83932 15.5153C9.83932 15.9196 10.1087 16.2137 10.4935 16.2137Z"
                     fill="currentColor" fill-opacity="0.85" />
       </g>
</svg>