<?xml version="1.0" encoding="UTF-8"?>
<!--Generator: Apple Native CoreSVG 326-->
<!DOCTYPE svg PUBLIC "-//W3C//DTD SVG 1.1//EN" "http://www.w3.org/Graphics/SVG/1.1/DTD/svg11.dtd">
<svg version="1.1" xmlns="http://www.w3.org/2000/svg" xmlns:xlink="http://www.w3.org/1999/xlink"
       viewBox="0 0 26.4556 26.1153">
       <g>
              <rect height="26.1153" opacity="0" width="26.4556" x="0" y="0" />
              <path d="M1.81608 24.2755C4.32318 26.7952 7.63367 26.6723 10.2803 24.0279C11.3608 22.9699 13.4448 19.9633 16.6916 16.6964C19.9585 13.4421 22.9651 11.3581 24.0306 10.2776C26.6675 7.63844 26.7979 4.32049 24.2782 1.81339C21.7636-0.706325 18.4531-0.57828 15.8116 2.06093C14.7335 3.12647 12.6494 6.13077 9.39518 9.39995C6.126 12.6467 3.1217 14.7308 2.06362 15.8089C-0.583047 18.4504-0.703631 21.7684 1.81608 24.2755ZM13.2767 11.4145C12.7454 10.8878 12.7282 10.075 13.2646 9.55583C13.7764 9.03662 14.6017 9.02916 15.133 9.55583L16.5334 10.966C17.0624 11.495 17.0549 12.298 16.5357 12.8149C16.0119 13.3462 15.2112 13.3536 14.6771 12.8149ZM9.53153 15.1648C9.00486 14.6358 9.00255 13.8179 9.53153 13.2889C10.0508 12.7697 10.8463 12.7697 11.3729 13.301L12.7906 14.7186C13.3196 15.2453 13.3219 16.0287 12.7906 16.56C12.2737 17.0792 11.4535 17.089 10.9268 16.5577Z"
                     fill="currentColor" fill-opacity="0.85" />
       </g>
</svg>