<?xml version="1.0" encoding="UTF-8"?>
<!--Generator: Apple Native CoreSVG 326-->
<!DOCTYPE svg PUBLIC "-//W3C//DTD SVG 1.1//EN" "http://www.w3.org/Graphics/SVG/1.1/DTD/svg11.dtd">
<svg version="1.1" xmlns="http://www.w3.org/2000/svg" xmlns:xlink="http://www.w3.org/1999/xlink"
       viewBox="0 0 21.365 21.006">
       <g>
              <rect height="21.006" opacity="0" width="21.365" x="0" y="0" />
              <path d="M21.0037 10.5079C21.0037 16.3043 16.302 21.006 10.4981 21.006C4.70394 21.006 0 16.3043 0 10.5079C0 4.7137 4.70394 0.00976562 10.4981 0.00976562C16.302 0.00976562 21.0037 4.7137 21.0037 10.5079ZM9.76987 4.99412L9.76987 5.80151L9.39314 5.52728C9.05826 5.25166 8.65568 5.26549 8.41506 5.60608C8.19397 5.91736 8.27155 6.29185 8.60467 6.5101L9.76987 7.23682L9.76987 7.84295L9.89737 9.45804L8.55748 8.53764L8.049 8.23831L7.99162 6.86803C7.96924 6.47861 7.67979 6.21209 7.28983 6.25686C6.89296 6.2867 6.67296 6.63068 6.75502 7.03216L6.79002 7.50831L6.10904 7.10835C5.71392 6.89757 5.28721 7.00553 5.07643 7.3685C4.86334 7.751 4.98569 8.16795 5.36818 8.38849L6.05663 8.77869L5.6449 8.98062C5.23256 9.11163 5.04537 9.46714 5.20678 9.8571C5.38541 10.2155 5.75475 10.3263 6.11256 10.1476L7.30815 9.51099L7.82178 9.81779L9.29609 10.5004L7.82178 11.1853L7.30815 11.4944L6.11256 10.8532C5.75475 10.6746 5.37049 10.7877 5.20908 11.1535C5.04768 11.5337 5.23771 11.8915 5.6449 12.0225L6.05663 12.2244L5.37564 12.6123C4.98569 12.8329 4.85819 13.2573 5.07643 13.6398C5.29697 14.02 5.71392 14.1279 6.10904 13.8948L6.79002 13.4925L6.75502 13.9463C6.65803 14.3701 6.87803 14.7164 7.28983 14.7463C7.67979 14.791 7.96924 14.5222 7.99162 14.1328L8.049 12.7574L8.55748 12.4632L9.89737 11.5451L9.76987 13.1579L9.76987 13.764L8.60467 14.493C8.27901 14.6941 8.20143 15.076 8.41506 15.3948C8.65568 15.7353 9.05826 15.7515 9.39314 15.4735L9.76987 15.1993L9.76987 16.0067C9.76987 16.4604 10.0714 16.7769 10.4958 16.7769C10.93 16.7769 11.2315 16.4627 11.2315 16.0067L11.2315 15.2016L11.6036 15.4735C11.9385 15.7687 12.3359 15.7353 12.584 15.3948C12.7953 15.076 12.7201 14.6941 12.3921 14.4907L11.2292 13.764L11.2292 13.1579L11.1017 11.5526L12.4462 12.4706L12.9501 12.7723L13.0074 14.1328C13.0298 14.5222 13.3193 14.791 13.7092 14.7463C14.1038 14.709 14.3261 14.3701 14.244 13.9687L14.2016 13.4902L14.89 13.8948C15.2851 14.1256 15.6998 14.02 15.9152 13.6398C16.1311 13.2498 16.0134 12.8329 15.6234 12.6123L14.9424 12.2244L15.3519 12.0225C15.7567 11.8892 15.9462 11.5337 15.7923 11.1483C15.6039 10.7877 15.2443 10.6843 14.8865 10.8532L13.6909 11.4944L13.1773 11.1853L11.703 10.5004L13.1773 9.81779L13.6909 9.50869L14.8865 10.1476C15.2443 10.3263 15.6137 10.2131 15.7923 9.84733C15.9462 9.48436 15.7567 9.11163 15.3519 8.98062L14.9424 8.77869L15.6234 8.38849C16.0134 8.16049 16.1311 7.7533 15.9226 7.3685C15.7044 7.00323 15.2851 6.89757 14.89 7.10835L14.2016 7.51062L14.244 7.05454C14.341 6.63298 14.1187 6.2867 13.7115 6.25686C13.3193 6.21209 13.0298 6.47861 13.0074 6.86803L12.9501 8.23831L12.4462 8.53534L11.1017 9.45804L11.2292 7.84295L11.2292 7.23682L12.3921 6.5101C12.7201 6.30678 12.7953 5.92482 12.584 5.60608C12.3434 5.26549 11.9385 5.24936 11.6036 5.52728L11.2315 5.79921L11.2315 4.99412C11.2315 4.54041 10.93 4.22397 10.4958 4.22397C10.0714 4.22397 9.76987 4.54272 9.76987 4.99412Z"
                     fill="currentColor" fill-opacity="0.85" />
       </g>
</svg>