<?xml version="1.0" encoding="UTF-8"?>
<!--Generator: Apple Native CoreSVG 326-->
<!DOCTYPE svg PUBLIC "-//W3C//DTD SVG 1.1//EN" "http://www.w3.org/Graphics/SVG/1.1/DTD/svg11.dtd">
<svg version="1.1" xmlns="http://www.w3.org/2000/svg" xmlns:xlink="http://www.w3.org/1999/xlink"
       viewBox="0 0 21.365 21.006">
       <g>
              <rect height="21.006" opacity="0" width="21.365" x="0" y="0" />
              <path d="M8.16807 18.3317C6.30787 17.7756 4.71595 16.564 3.66235 14.9572L6.39612 14.9233L7.86776 13.0409L7.03174 10.4674L4.2987 9.35244L2.32325 10.4603C2.34048 8.55463 3.01321 6.80416 4.12201 5.41677L4.87814 7.9064L7.44353 8.95472L9.71765 7.20345L9.71765 4.47842L7.69228 2.83974C8.56494 2.51571 9.50826 2.33532 10.4958 2.33532C11.4759 2.33532 12.4192 2.50825 13.2919 2.83228L11.2837 4.47096L11.2837 7.20345L13.5504 8.95472L16.1135 7.9064L16.8696 5.41677C17.9859 6.80416 18.6586 8.55463 18.6684 10.4603L16.6929 9.35244L13.9599 10.4674L13.1164 13.0633L14.588 14.9531L17.2994 14.9945C16.2533 16.5789 14.6688 17.7831 12.8161 18.3317L13.3751 15.9254L11.9759 14.1396L8.97837 14.1396L7.61131 15.8881ZM10.4981 20.9962C16.302 20.9962 21.0037 16.2946 21.0037 10.4981C21.0037 4.70163 16.302 0 10.4981 0C4.70163 0 0 4.70163 0 10.4981C0 16.2946 4.70163 20.9962 10.4981 20.9962Z"
                     fill="currentColor" fill-opacity="0.85" />
       </g>
</svg>