<?xml version="1.0" encoding="UTF-8"?>
<!--Generator: Apple Native CoreSVG 326-->
<!DOCTYPE svg PUBLIC "-//W3C//DTD SVG 1.1//EN" "http://www.w3.org/Graphics/SVG/1.1/DTD/svg11.dtd">
<svg version="1.1" xmlns="http://www.w3.org/2000/svg" xmlns:xlink="http://www.w3.org/1999/xlink"
       viewBox="0 0 21.365 21.006">
       <g>
              <rect height="21.006" opacity="0" width="21.365" x="0" y="0" />
              <path d="M10.4981 20.9962C16.302 20.9962 21.0037 16.2946 21.0037 10.4981C21.0037 4.70163 16.302 0 10.4981 0C4.70163 0 0 4.70163 0 10.4981C0 16.2946 4.70163 20.9962 10.4981 20.9962ZM10.4981 17.9484C6.37829 17.9484 3.04785 14.6179 3.04785 10.4981C3.04785 6.37829 6.37829 3.04785 10.4981 3.04785C14.6179 3.04785 17.9558 6.37829 17.9558 10.4981C17.9558 14.6179 14.6179 17.9484 10.4981 17.9484Z"
                     fill="currentColor" fill-opacity="0.85" />
              <path d="M10.4958 15.3847C13.1976 15.3847 15.3921 13.1925 15.3921 10.4981C15.3921 7.79631 13.1976 5.60177 10.4958 5.60177C7.80146 5.60177 5.60923 7.79631 5.60923 10.4981C5.60923 13.1925 7.80146 15.3847 10.4958 15.3847ZM10.4958 6.66883C10.9681 6.66883 11.4059 6.73665 11.8196 6.89466L10.9552 7.58486L10.9552 9.01919L11.8449 9.69854L13.1862 9.15858L13.508 8.10802C14.0337 8.76529 14.3498 9.58287 14.3498 10.478L13.525 10.0309L12.093 10.6076L11.7694 11.6002L12.5489 12.61L13.7017 12.6221C13.2151 13.3788 12.4705 13.9384 11.5943 14.1964L11.8242 13.1872L11.0757 12.2084L9.89865 12.2084L9.15767 13.1573L9.39732 14.1964C8.51884 13.9384 7.76677 13.3564 7.28012 12.6146L8.43526 12.5951L9.2199 11.5876L8.8963 10.6076L7.47174 10.0309L6.647 10.478C6.647 9.58287 6.96301 8.76529 7.48356 8.10802L7.81056 9.15858L9.15185 9.69854L10.0364 9.01919L10.0364 7.59978L9.16228 6.89466C9.58342 6.75157 10.0333 6.66883 10.4958 6.66883Z"
                     fill="currentColor" fill-opacity="0.85" />
       </g>
</svg>