<?xml version="1.0" encoding="UTF-8"?>
<!--Generator: Apple Native CoreSVG 326-->
<!DOCTYPE svg PUBLIC "-//W3C//DTD SVG 1.1//EN" "http://www.w3.org/Graphics/SVG/1.1/DTD/svg11.dtd">
<svg version="1.1" xmlns="http://www.w3.org/2000/svg" xmlns:xlink="http://www.w3.org/1999/xlink"
       viewBox="0 0 21.365 21.006">
       <g>
              <rect height="21.006" opacity="0" width="21.365" x="0" y="0" />
              <path d="M10.4981 20.9962C16.302 20.9962 21.0037 16.2946 21.0037 10.4981C21.0037 4.70163 16.302 0 10.4981 0C4.70163 0 0 4.70163 0 10.4981C0 16.2946 4.70163 20.9962 10.4981 20.9962ZM10.4981 17.9484C6.37829 17.9484 3.04785 14.6179 3.04785 10.4981C3.04785 6.37829 6.37829 3.04785 10.4981 3.04785C14.6179 3.04785 17.9558 6.37829 17.9558 10.4981C17.9558 14.6179 14.6179 17.9484 10.4981 17.9484Z"
                     fill="currentColor" fill-opacity="0.85" />
              <path d="M10.4958 15.387C13.1999 15.387 15.3944 13.1948 15.3944 10.4981C15.3944 7.794 13.1999 5.59947 10.4958 5.59947C7.79916 5.59947 5.60693 7.794 5.60693 10.4981C5.60693 13.1948 7.79916 15.387 10.4958 15.387ZM7.28243 12.5992C6.88544 12.0028 6.65391 11.2818 6.65161 10.4775L7.43892 10.0419L8.88247 10.6255L9.18478 11.5514L8.39092 12.5848ZM7.46974 8.10232C7.92017 7.55708 8.51193 7.12157 9.19103 6.87051L10.0036 7.53306L10.0036 8.99736L9.15415 9.6485L7.77544 9.08725ZM13.5316 8.10232L13.2282 9.08725L11.8495 9.6485L11.0024 8.99736L11.0024 7.52099L11.8103 6.87051C12.4894 7.12157 13.0761 7.55708 13.5316 8.10232ZM13.7115 12.6187L12.6053 12.6043L11.8114 11.5686L12.1212 10.6255L13.5648 10.0419L14.3521 10.4775C14.3498 11.2818 14.1159 12.0149 13.7115 12.6187ZM10.4981 14.3372C10.1281 14.3372 9.75525 14.2837 9.40939 14.1838L9.17666 13.1896L9.91994 12.2361L11.0568 12.2361L11.8196 13.2264L11.5943 14.1912C11.2484 14.286 10.8756 14.3372 10.4981 14.3372Z"
                     fill="currentColor" fill-opacity="0.85" />
       </g>
</svg>