<?xml version="1.0" encoding="UTF-8"?>
<!--Generator: Apple Native CoreSVG 326-->
<!DOCTYPE svg PUBLIC "-//W3C//DTD SVG 1.1//EN" "http://www.w3.org/Graphics/SVG/1.1/DTD/svg11.dtd">
<svg version="1.1" xmlns="http://www.w3.org/2000/svg" xmlns:xlink="http://www.w3.org/1999/xlink"
       viewBox="0 0 21.365 21.006">
       <g>
              <rect height="21.006" opacity="0" width="21.365" x="0" y="0" />
              <path d="M10.4981 20.9962C16.302 20.9962 21.0037 16.2946 21.0037 10.4981C21.0037 4.70163 16.302 0 10.4981 0C4.70163 0 0 4.70163 0 10.4981C0 16.2946 4.70163 20.9962 10.4981 20.9962ZM10.4981 17.9484C6.37829 17.9484 3.04785 14.6179 3.04785 10.4981C3.04785 6.37829 6.37829 3.04785 10.4981 3.04785C14.6179 3.04785 17.9558 6.37829 17.9558 10.4981C17.9558 14.6179 14.6179 17.9484 10.4981 17.9484Z"
                     fill="currentColor" fill-opacity="0.85" />
              <path d="M6.1706 13.4849C7.31439 13.4849 8.00721 12.7874 8.00721 11.7459C8.00721 10.875 7.64357 10.5073 6.72439 9.97768L6.38314 9.78752C5.90111 9.51463 5.74771 9.32963 5.74771 9.05498C5.74771 8.81939 5.91779 8.65677 6.15568 8.65677C6.41596 8.65677 6.57451 8.84177 6.6251 9.16701C6.66186 9.37088 6.74283 9.43178 6.88471 9.43178L7.64994 9.43178C7.8165 9.43178 7.91932 9.32896 7.91932 9.1624C7.91701 8.20416 7.35861 7.46482 6.1706 7.46482C5.03142 7.46482 4.3656 8.17947 4.3656 9.1917C4.3656 10.0454 4.74646 10.5061 5.60935 10.9892L5.93338 11.1696C6.43209 11.4374 6.6251 11.6011 6.6251 11.8677C6.6251 12.1418 6.46654 12.3004 6.18783 12.3004C5.87927 12.3004 5.7115 12.1079 5.64544 11.7482C5.61099 11.5914 5.53287 11.5082 5.38584 11.5082L4.57177 11.5082C4.39775 11.5082 4.30009 11.6282 4.3024 11.7948C4.3047 12.8409 4.95615 13.4849 6.1706 13.4849ZM10.4981 13.4849C11.8688 13.4849 12.5955 12.483 12.5955 10.4981C12.5955 8.54025 11.886 7.46482 10.4981 7.46482C9.09811 7.46482 8.38861 8.54025 8.38861 10.4981C8.38861 12.4755 9.10787 13.4849 10.4981 13.4849ZM10.4981 12.259C10.0235 12.259 9.80978 11.7971 9.80978 10.4981C9.80978 9.19916 10.0235 8.71767 10.4981 8.71767C10.9508 8.71767 11.1623 9.19916 11.1623 10.4981C11.1623 11.7971 10.9508 12.259 10.4981 12.259ZM14.8526 13.4849C15.9889 13.4849 16.6892 12.7874 16.6892 11.7459C16.6892 10.875 16.3204 10.5073 15.3989 9.97768L15.0577 9.78752C14.5831 9.51463 14.4223 9.32963 14.4223 9.05498C14.4223 8.81939 14.5923 8.65677 14.8302 8.65677C15.0905 8.65677 15.2588 8.84177 15.3071 9.16701C15.3439 9.37088 15.4174 9.43178 15.5667 9.43178L16.3319 9.43178C16.491 9.43178 16.6013 9.32896 16.6013 9.1624C16.599 8.20416 16.0332 7.46482 14.8526 7.46482C13.706 7.46482 13.0401 8.17947 13.0401 9.1917C13.0401 10.0454 13.421 10.5061 14.2839 10.9892L14.6079 11.1696C15.1141 11.4397 15.3071 11.6011 15.3071 11.8677C15.3071 12.1418 15.1434 12.3004 14.8624 12.3004C14.5538 12.3004 14.386 12.1079 14.32 11.7482C14.2855 11.5914 14.2074 11.5082 14.0604 11.5082L13.244 11.5082C13.0723 11.5082 12.9746 11.6282 12.9746 11.7948C12.9792 12.8409 13.6382 13.4849 14.8526 13.4849Z"
                     fill="currentColor" fill-opacity="0.85" />
       </g>
</svg>