<?xml version="1.0" encoding="UTF-8"?>
<!--Generator: Apple Native CoreSVG 326-->
<!DOCTYPE svg PUBLIC "-//W3C//DTD SVG 1.1//EN" "http://www.w3.org/Graphics/SVG/1.1/DTD/svg11.dtd">
<svg version="1.1" xmlns="http://www.w3.org/2000/svg" xmlns:xlink="http://www.w3.org/1999/xlink"
       viewBox="0 0 21.3246 20.9833">
       <g>
              <rect height="20.9833" opacity="0" width="21.3246" x="0" y="0" />
              <path d="M10.4816 20.9735C11.1041 20.9735 11.6134 20.5159 11.7018 19.8641C12.6387 13.3453 13.5343 12.4325 19.8245 11.7219C20.4711 11.6455 20.9632 11.1138 20.9632 10.4868C20.9632 9.85224 20.4786 9.33545 19.832 9.24186C13.5716 8.41421 12.7655 7.61331 11.7018 1.09963C11.591 0.455346 11.0966 0 10.4816 0C9.8517 0 9.34983 0.455346 9.24647 1.1071C8.32456 7.62077 7.42897 8.53358 1.14616 9.24186C0.484642 9.32799 0 9.84478 0 10.4868C0 11.1138 0.469721 11.6306 1.13124 11.7219C7.39913 12.5991 8.1839 13.3625 9.24647 19.8716C9.37221 20.5233 9.87408 20.9735 10.4816 20.9735Z"
                     fill="currentColor" fill-opacity="0.85" />
       </g>
</svg>