<?xml version="1.0" encoding="UTF-8"?>
<!--Generator: Apple Native CoreSVG 326-->
<!DOCTYPE svg PUBLIC "-//W3C//DTD SVG 1.1//EN" "http://www.w3.org/Graphics/SVG/1.1/DTD/svg11.dtd">
<svg version="1.1" xmlns="http://www.w3.org/2000/svg" xmlns:xlink="http://www.w3.org/1999/xlink"
       viewBox="0 0 26.2153 21.8091">
       <g>
              <rect height="21.8091" opacity="0" width="26.2153" x="0" y="0" />
              <path d="M3.28568 18.0337L22.5683 18.0337C24.6307 18.0337 25.854 16.808 25.854 14.748L25.854 3.28568C25.854 1.22562 24.6307 0 22.5683 0L3.28568 0C1.22562 0 0 1.22562 0 3.28568L0 14.748C0 16.808 1.22562 18.0337 3.28568 18.0337ZM3.65817 15.208C3.11985 15.208 2.82567 14.9511 2.82567 14.3778L2.82567 3.66333C2.82567 3.08254 3.11985 2.83313 3.65817 2.83313L22.1958 2.83313C22.7341 2.83313 23.0283 3.08254 23.0283 3.66333L23.0283 14.3778C23.0283 14.9511 22.7341 15.208 22.1958 15.208ZM7.6605 21.7918L18.1935 21.7918C18.8619 21.7918 19.3874 21.2314 19.3874 20.6054C19.3874 19.9794 18.8619 19.419 18.1935 19.419L7.6605 19.419C6.99207 19.419 6.4666 19.9794 6.4666 20.6054C6.4666 21.2314 6.99207 21.7918 7.6605 21.7918Z"
                     fill="currentColor" fill-opacity="0.85" />
              <path d="M13.3645 12.7096C13.5873 12.7096 13.7516 12.5505 13.7906 12.3449C14.2158 9.55357 14.5541 9.09338 17.3857 8.73544C17.6183 8.70099 17.7751 8.51951 17.7751 8.29666C17.7751 8.08873 17.6183 7.91986 17.3857 7.89057C14.6385 7.53263 14.2576 7.08044 13.7906 4.28802C13.7464 4.05541 13.5873 3.90607 13.3645 3.90607C13.1565 3.90607 12.99 4.0531 12.9584 4.28572C12.5458 7.06213 12.1576 7.51025 9.35583 7.89057C9.13068 7.91986 8.97388 8.08873 8.97388 8.29666C8.97388 8.51951 9.13068 8.68377 9.35583 8.73544C12.0928 9.15755 12.4788 9.52373 12.9584 12.3426C12.9951 12.5505 13.1594 12.7096 13.3645 12.7096ZM9.37506 14.2641C9.51924 14.2641 9.64905 14.1538 9.67834 14.0022C9.89209 12.6235 9.86158 12.6148 11.3472 12.3506C11.4988 12.3162 11.5942 12.1915 11.5942 12.0473C11.5942 11.898 11.4914 11.7733 11.3472 11.7463C9.86905 11.5297 9.87717 11.5062 9.67834 10.1068C9.64905 9.94311 9.52901 9.83053 9.37506 9.83053C9.21596 9.83053 9.10569 9.9408 9.07409 10.1068C8.87295 11.4614 8.90061 11.4775 7.40756 11.7463C7.24616 11.7808 7.15311 11.898 7.15311 12.0473C7.15311 12.2036 7.24616 12.3162 7.44201 12.3506C8.88569 12.5775 8.87295 12.6086 9.07409 13.9878C9.10569 14.1515 9.21366 14.2641 9.37506 14.2641Z"
                     fill="currentColor" fill-opacity="0.85" />
       </g>
</svg>