<?xml version="1.0" encoding="UTF-8"?>
<!--Generator: Apple Native CoreSVG 326-->
<!DOCTYPE svg PUBLIC "-//W3C//DTD SVG 1.1//EN" "http://www.w3.org/Graphics/SVG/1.1/DTD/svg11.dtd">
<svg version="1.1" xmlns="http://www.w3.org/2000/svg" xmlns:xlink="http://www.w3.org/1999/xlink"
       viewBox="0 0 20.2864 20.0883">
       <g>
              <rect height="20.0883" opacity="0" width="20.2864" x="0" y="0" />
              <path d="M0 8.44951C0 13.1269 3.78706 16.9065 8.45697 16.9065C9.86522 16.9065 11.1792 16.5536 12.3242 15.9415L15.7785 19.3981C16.2419 19.8615 16.8706 20.0808 17.5188 20.0808C18.8916 20.0808 19.9251 19.0307 19.9251 17.6676C19.9251 17.0417 19.7035 16.4303 19.2298 15.9566L15.8272 12.5396C16.5197 11.3429 16.9139 9.94335 16.9139 8.44951C16.9139 3.7796 13.1269 0 8.45697 0C3.78706 0 0 3.7796 0 8.44951ZM3.19937 8.44951C3.19937 5.56301 5.55555 3.19937 8.44951 3.19937C11.3584 3.19937 13.7071 5.56301 13.7071 8.44951C13.7071 11.3435 11.3584 13.7071 8.44951 13.7071C5.55555 13.7071 3.19937 11.3435 3.19937 8.44951ZM8.45182 12.0736C8.67521 12.0736 8.83201 11.9168 8.87107 11.7009C9.21014 9.49455 9.47666 9.15549 11.6836 8.87392C11.9191 8.83947 12.081 8.66775 12.081 8.44205C12.081 8.23127 11.9116 8.07447 11.6836 8.03541C9.52373 7.75385 9.23931 7.41763 8.87107 5.20793C8.83431 4.98739 8.66775 4.8329 8.45182 4.8329C8.23358 4.8329 8.08424 4.99254 8.04518 5.21309C7.71127 7.39185 7.44705 7.73147 5.22516 8.03541C5.00461 8.07447 4.8352 8.23127 4.8352 8.44205C4.8352 8.66775 4.99715 8.83716 5.2177 8.87392C7.42467 9.21451 7.67178 9.51694 8.04518 11.6986C8.08194 11.9093 8.23873 12.0736 8.45182 12.0736Z"
                     fill="currentColor" fill-opacity="0.85" />
       </g>
</svg>