<?xml version="1.0" encoding="UTF-8"?>
<!--Generator: Apple Native CoreSVG 326-->
<!DOCTYPE svg PUBLIC "-//W3C//DTD SVG 1.1//EN" "http://www.w3.org/Graphics/SVG/1.1/DTD/svg11.dtd">
<svg version="1.1" xmlns="http://www.w3.org/2000/svg" xmlns:xlink="http://www.w3.org/1999/xlink"
       viewBox="0 0 21.365 21.006">
       <g>
              <rect height="21.006" opacity="0" width="21.365" x="0" y="0" />
              <path d="M21.0037 10.5079C21.0037 16.3043 16.302 21.006 10.4981 21.006C4.70394 21.006 0 16.3043 0 10.5079C0 4.7137 4.70394 0.00976562 10.4981 0.00976562C16.302 0.00976562 21.0037 4.7137 21.0037 10.5079ZM11.3348 6.38763L9.40084 8.17971C9.379 8.21131 9.33818 8.21362 9.31174 8.21362L7.97536 8.21362C7.10173 8.21362 6.62904 8.711 6.62904 9.62369L6.62904 11.4237C6.62904 12.334 7.10173 12.8337 7.97536 12.8337L9.31174 12.8337C9.33818 12.8337 9.37154 12.836 9.39338 12.8504L11.3348 14.6643C11.6312 14.9532 11.8758 15.0733 12.2141 15.0733C12.6925 15.0733 13.0606 14.6925 13.0606 14.2044L13.0606 6.84528C13.0606 6.35943 12.6925 5.96431 12.2044 5.96431C11.9034 5.96431 11.6478 6.08435 11.3348 6.38763Z"
                     fill="currentColor" fill-opacity="0.85" />
       </g>
</svg>