<?xml version="1.0" encoding="UTF-8"?>
<!--Generator: Apple Native CoreSVG 326-->
<!DOCTYPE svg PUBLIC "-//W3C//DTD SVG 1.1//EN" "http://www.w3.org/Graphics/SVG/1.1/DTD/svg11.dtd">
<svg version="1.1" xmlns="http://www.w3.org/2000/svg" xmlns:xlink="http://www.w3.org/1999/xlink"
       viewBox="0 0 21.365 21.006">
       <g>
              <rect height="21.006" opacity="0" width="21.365" x="0" y="0" />
              <path d="M10.4981 20.9962C16.302 20.9962 21.0037 16.2946 21.0037 10.4981C21.0037 4.70163 16.302 0 10.4981 0C4.70163 0 0 4.70163 0 10.4981C0 16.2946 4.70163 20.9962 10.4981 20.9962ZM10.4981 17.9484C6.37829 17.9484 3.04785 14.6179 3.04785 10.4981C3.04785 6.37829 6.37829 3.04785 10.4981 3.04785C14.6179 3.04785 17.9558 6.37829 17.9558 10.4981C17.9558 14.6179 14.6179 17.9484 10.4981 17.9484Z"
                     fill="currentColor" fill-opacity="0.85" />
              <path d="M14.0316 13.8427C14.3452 14.0213 14.7105 13.9501 14.8914 13.6486C15.4786 12.7283 15.8198 11.6637 15.8198 10.5033C15.8198 9.34225 15.4906 8.27767 14.8914 7.36025C14.7082 7.05642 14.3406 6.97545 14.0316 7.16154C13.6853 7.3597 13.6463 7.76689 13.8743 8.14017C14.3046 8.80775 14.5305 9.64486 14.5305 10.5033C14.5305 11.3668 14.3046 12.2057 13.8743 12.8664C13.644 13.2396 13.6807 13.6491 14.0316 13.8427Z"
                     fill="currentColor" fill-opacity="0.85" />
              <path d="M12.0271 12.6282C12.3165 12.8241 12.6812 12.7333 12.8719 12.4714C13.25 11.9389 13.4895 11.2421 13.4895 10.4958C13.4895 9.75416 13.2551 9.05729 12.8719 8.52248C12.6985 8.26572 12.324 8.18475 12.0271 8.35822C11.7009 8.55123 11.6296 8.95096 11.8973 9.38392C12.0915 9.68841 12.1978 10.0861 12.1978 10.4958C12.1978 10.9009 12.084 11.2986 11.895 11.61C11.6371 12.0527 11.6986 12.4255 12.0271 12.6282Z"
                     fill="currentColor" fill-opacity="0.85" />
              <path d="M9.81773 14.4525C10.2295 14.4525 10.5609 14.1286 10.5609 13.7018L10.5609 7.29899C10.5609 6.87227 10.2295 6.54892 9.81542 6.54892C9.54375 6.54892 9.33527 6.6638 9.05898 6.90563L7.29565 8.49955C7.28128 8.53631 7.25483 8.53862 7.22838 8.53862L6.12857 8.53862C5.37498 8.53862 4.95912 8.96193 4.95912 9.74943L4.95912 11.2491C4.95912 12.0343 5.37498 12.4651 6.12857 12.4651L7.22838 12.4651C7.25483 12.4651 7.28128 12.4697 7.29565 12.4915L9.05898 14.105C9.3209 14.3324 9.53859 14.4525 9.81773 14.4525Z"
                     fill="currentColor" fill-opacity="0.85" />
       </g>
</svg>