<?xml version="1.0" encoding="UTF-8"?>
<!--Generator: Apple Native CoreSVG 326-->
<!DOCTYPE svg PUBLIC "-//W3C//DTD SVG 1.1//EN" "http://www.w3.org/Graphics/SVG/1.1/DTD/svg11.dtd">
<svg version="1.1" xmlns="http://www.w3.org/2000/svg" xmlns:xlink="http://www.w3.org/1999/xlink"
       viewBox="0 0 25.6274 18.2659">
       <g>
              <rect height="18.2659" opacity="0" width="25.6274" x="0" y="0" />
              <path d="M21.2097 16.8293C21.8993 17.2227 22.7365 17.0527 23.1718 16.3757C24.5113 14.3287 25.2661 11.7938 25.2661 9.12807C25.2661 6.4623 24.5136 3.92281 23.1718 1.87294C22.7365 1.20341 21.8993 1.03346 21.2097 1.42681C20.4306 1.86493 20.3422 2.8014 20.8567 3.64943C21.8167 5.20557 22.3647 7.1226 22.3647 9.12807C22.3647 11.1335 21.812 13.0385 20.8567 14.5992C20.3445 15.4473 20.4306 16.3912 21.2097 16.8293Z"
                     fill="currentColor" fill-opacity="0.85" />
              <path d="M16.4027 14.0194C17.0682 14.423 17.8853 14.2652 18.2982 13.6829C19.1993 12.4354 19.7232 10.8311 19.7232 9.12807C19.7232 7.42503 19.1993 5.82304 18.2982 4.55836C17.8853 3.99099 17.0682 3.82333 16.4027 4.23676C15.6815 4.67434 15.511 5.52819 16.1122 6.54782C16.5667 7.26939 16.8143 8.18178 16.8143 9.12807C16.8143 10.0744 16.5569 10.977 16.1122 11.7083C15.5133 12.7228 15.6815 13.5795 16.4027 14.0194Z"
                     fill="currentColor" fill-opacity="0.85" />
              <path d="M11.1913 18.2659C12.194 18.2659 12.9514 17.5085 12.9514 16.5082L12.9514 1.78881C12.9514 0.788469 12.194 0.00976562 11.1867 0.00976562C10.5636 0.00976562 10.0744 0.244687 9.41964 0.85519L5.57053 4.41825C5.5194 4.46192 5.46881 4.49122 5.40846 4.49122L2.73486 4.49122C0.966555 4.49122 0 5.49968 0 7.33866L0 10.9416C0 12.7829 0.966555 13.7965 2.73486 13.7965L5.401 13.7965C5.46135 13.7965 5.51194 13.8034 5.56307 13.8471L9.41964 17.4418C10.0382 18.0207 10.5384 18.2659 11.1913 18.2659Z"
                     fill="currentColor" fill-opacity="0.85" />
       </g>
</svg>