<?xml version="1.0" encoding="UTF-8"?>
<!--Generator: Apple Native CoreSVG 326-->
<!DOCTYPE svg PUBLIC "-//W3C//DTD SVG 1.1//EN" "http://www.w3.org/Graphics/SVG/1.1/DTD/svg11.dtd">
<svg version="1.1" xmlns="http://www.w3.org/2000/svg" xmlns:xlink="http://www.w3.org/1999/xlink"
       viewBox="0 0 25.2079 18.2659">
       <g>
              <rect height="18.2659" opacity="0" width="25.2079" x="0" y="0" />
              <path d="M17.0086 10.3662L23.6204 10.3662C24.3239 10.3662 24.8465 9.85685 24.8465 9.1453C24.8465 8.43144 24.3383 7.9198 23.6204 7.9198L17.0086 7.9198C16.3005 7.9198 15.7802 8.43144 15.7802 9.1453C15.7802 9.85685 16.3051 10.3662 17.0086 10.3662Z"
                     fill="currentColor" fill-opacity="0.85" />
              <path d="M2.72103 13.8786L5.4044 13.8786C5.45498 13.8786 5.50326 13.8855 5.5567 13.9441L9.47605 17.4418C10.1089 18.0034 10.5971 18.2659 11.2524 18.2659C12.2504 18.2659 13.0199 17.5085 13.0199 16.5082L13.0199 1.78881C13.0199 0.788469 12.2504 0.00976562 11.2478 0.00976562C10.6223 0.00976562 10.1405 0.261913 9.47605 0.85519L5.5567 4.33618C5.4958 4.38731 5.45498 4.40169 5.4044 4.40169L2.72103 4.40169C0.952725 4.40169 0 5.40379 0 7.24506L0 11.045C0 12.8788 0.95503 13.8786 2.72103 13.8786ZM3.19227 11.2069C2.99508 11.2069 2.87383 11.0782 2.87383 10.881L2.87383 7.40162C2.87383 7.20958 2.99508 7.08087 3.19227 7.08087L6.01884 7.08087C6.31751 7.08087 6.53521 7.00966 6.75982 6.80458L9.86055 3.95787C9.89446 3.91651 9.94329 3.90213 10.0042 3.90213C10.08 3.90213 10.1461 3.95842 10.1461 4.05377L10.1461 14.2271C10.1461 14.3224 10.08 14.3959 10.0042 14.3959C9.9479 14.3959 9.89676 14.3666 9.86055 14.3253L6.75982 11.4832C6.53521 11.2729 6.31751 11.2069 6.01884 11.2069Z"
                     fill="currentColor" fill-opacity="0.85" />
       </g>
</svg>