<?xml version="1.0" encoding="UTF-8"?>
<!--Generator: Apple Native CoreSVG 326-->
<!DOCTYPE svg PUBLIC "-//W3C//DTD SVG 1.1//EN" "http://www.w3.org/Graphics/SVG/1.1/DTD/svg11.dtd">
<svg version="1.1" xmlns="http://www.w3.org/2000/svg" xmlns:xlink="http://www.w3.org/1999/xlink"
       viewBox="0 0 20.0822 18.2659">
       <g>
              <rect height="18.2659" opacity="0" width="20.0822" x="0" y="0" />
              <path d="M16.4004 14.0217C17.0659 14.4328 17.883 14.2675 18.2959 13.6852C19.1896 12.4377 19.7209 10.8334 19.7209 9.13038C19.7209 7.42733 19.1896 5.82535 18.2959 4.56067C17.883 3.99329 17.0659 3.82564 16.4004 4.23907C15.6792 4.67664 15.5087 5.5305 16.1024 6.55013C16.5569 7.27169 16.812 8.18408 16.812 9.13038C16.812 10.0767 16.5546 10.9793 16.1024 11.7106C15.511 12.7326 15.6792 13.5818 16.4004 14.0217Z"
                     fill="currentColor" fill-opacity="0.85" />
              <path d="M2.72103 13.8786L5.4044 13.8786C5.45498 13.8786 5.50326 13.8855 5.5567 13.9441L9.47605 17.4418C10.1066 18.0034 10.5971 18.2659 11.2501 18.2659C12.2504 18.2659 13.0101 17.5085 13.0101 16.5082L13.0101 1.78881C13.0101 0.788469 12.2504 0.00976562 11.2455 0.00976562C10.6223 0.00976562 10.1405 0.261913 9.47605 0.85519L5.5567 4.33618C5.4958 4.38731 5.45498 4.40169 5.4044 4.40169L2.72103 4.40169C0.952725 4.40169 0 5.40379 0 7.24506L0 11.045C0 12.8788 0.95503 13.8786 2.72103 13.8786ZM3.19227 11.2069C2.99508 11.2069 2.87383 11.0782 2.87383 10.881L2.87383 7.40162C2.87383 7.20958 2.99508 7.08087 3.19227 7.08087L6.01884 7.08087C6.31751 7.08087 6.53521 7.00966 6.75982 6.80458L9.86055 3.95787C9.89446 3.91651 9.94329 3.90213 10.0042 3.90213C10.08 3.90213 10.1461 3.95842 10.1461 4.05377L10.1461 14.2271C10.1461 14.3224 10.08 14.3959 10.0042 14.3959C9.9479 14.3959 9.89676 14.3666 9.86055 14.3253L6.75982 11.4832C6.53521 11.2729 6.31751 11.2069 6.01884 11.2069Z"
                     fill="currentColor" fill-opacity="0.85" />
       </g>
</svg>