<?xml version="1.0" encoding="UTF-8"?>
<!--Generator: Apple Native CoreSVG 326-->
<!DOCTYPE svg PUBLIC "-//W3C//DTD SVG 1.1//EN" "http://www.w3.org/Graphics/SVG/1.1/DTD/svg11.dtd">
<svg version="1.1" xmlns="http://www.w3.org/2000/svg" xmlns:xlink="http://www.w3.org/1999/xlink"
       viewBox="0 0 23.3769 22.7532">
       <g>
              <rect height="22.7532" opacity="0" width="23.3769" x="0" y="0" />
              <path d="M7.19957 22.7532C7.95414 22.7532 8.59206 22.4471 9.53095 21.6363L12.7882 18.8023L18.0654 18.8023C21.095 18.8023 23.0156 16.8627 23.0156 13.8447L23.0156 5.96886C23.0156 2.95086 21.095 1.01126 18.0654 1.01126L4.95014 1.01126C1.92061 1.01126 0 2.94855 0 5.96886L0 13.8447C0 16.8651 2.09221 18.8023 4.68902 18.8023L5.39651 18.8023L5.39651 20.7819C5.39651 22.0038 6.08326 22.7532 7.19957 22.7532ZM7.91331 19.4218L7.91331 16.7763C7.91331 16.0549 7.53664 15.7827 6.91977 15.7827L5.18142 15.7827C3.74594 15.7827 3.01964 15.0604 3.01964 13.6186L3.01964 6.19268C3.01964 4.75095 3.74594 4.0309 5.18142 4.0309L17.8342 4.0309C19.2673 4.0309 19.9959 4.75095 19.9959 6.19268L19.9959 13.6186C19.9959 15.0604 19.2673 15.7827 17.8342 15.7827L12.5431 15.7827C11.7948 15.7827 11.484 15.9354 10.9339 16.473Z"
                     fill="currentColor" fill-opacity="0.85" />
              <path d="M15.0459 13.2551C15.3572 13.4337 15.7322 13.3551 15.9109 13.061C16.5003 12.1407 16.8341 11.0762 16.8341 9.91569C16.8341 8.75467 16.5026 7.6901 15.9132 6.77267C15.7225 6.46885 15.3526 6.38787 15.0459 6.5665C14.7071 6.77443 14.6657 7.17931 14.896 7.55259C15.3189 8.21271 15.5522 9.04982 15.5522 9.91569C15.5522 10.7792 15.3189 11.6181 14.8937 12.2713C14.6634 12.6521 14.7025 13.0616 15.0459 13.2551Z"
                     fill="currentColor" fill-opacity="0.85" />
              <path d="M13.0391 12.0407C13.3383 12.2291 13.7007 12.1383 13.8839 11.8764C14.2694 11.3514 14.5089 10.6493 14.5089 9.90823C14.5089 9.16659 14.2746 8.46455 13.8839 7.93491C13.7105 7.67815 13.3457 7.59717 13.0391 7.77065C12.7203 7.9562 12.6439 8.35592 12.9092 8.79634C13.1058 9.09338 13.2173 9.49104 13.2173 9.90823C13.2173 10.3133 13.096 10.711 12.9092 11.015C12.6514 11.4651 12.7203 11.8327 13.0391 12.0407Z"
                     fill="currentColor" fill-opacity="0.85" />
              <path d="M10.832 13.8597C11.2415 13.8597 11.5826 13.5335 11.5826 13.1143L11.5826 6.70395C11.5826 6.2847 11.2415 5.96134 10.8297 5.96134C10.5557 5.96134 10.357 6.06876 10.0733 6.31806L8.3174 7.91198C8.29326 7.94127 8.27658 7.94358 8.24267 7.94358L7.15032 7.94358C6.39442 7.94358 5.97111 8.37436 5.97111 9.16186L5.97111 10.6541C5.97111 11.4416 6.39442 11.8798 7.15032 11.8798L8.24267 11.8798C8.27658 11.8798 8.29326 11.8821 8.3174 11.8965L10.0733 13.5174C10.3352 13.7471 10.5506 13.8597 10.832 13.8597Z"
                     fill="currentColor" fill-opacity="0.85" />
       </g>
</svg>