<?xml version="1.0" encoding="UTF-8"?>
<!--Generator: Apple Native CoreSVG 326-->
<!DOCTYPE svg PUBLIC "-//W3C//DTD SVG 1.1//EN" "http://www.w3.org/Graphics/SVG/1.1/DTD/svg11.dtd">
<svg version="1.1" xmlns="http://www.w3.org/2000/svg" xmlns:xlink="http://www.w3.org/1999/xlink"
       viewBox="0 0 22.6206 22.2714">
       <g>
              <rect height="22.2714" opacity="0" width="22.6206" x="0" y="0" />
              <path d="M7.95413 2.79133C7.68937 3.04863 7.5814 3.35301 7.5814 3.63269C7.5814 4.14554 7.98112 4.59003 8.62663 4.59003L13.6252 4.59003C14.2707 4.59003 14.6779 4.14554 14.6779 3.63269C14.6779 3.35301 14.5676 3.04863 14.3052 2.79133L11.9912 0.379646C11.7413 0.127499 11.4398 0 11.1285 0C10.8218 0 10.5105 0.127499 10.2682 0.379646ZM7.95413 19.4703L10.2682 21.8745C10.5105 22.1341 10.8218 22.2593 11.1285 22.2593C11.4398 22.2593 11.7413 22.1341 11.9912 21.8745L14.3052 19.4703C14.5676 19.2055 14.6779 18.9086 14.6779 18.6289C14.6779 18.1086 14.2707 17.6716 13.6252 17.6716L8.62663 17.6716C7.98112 17.6716 7.5814 18.1086 7.5814 18.6289C7.5814 18.9086 7.68937 19.2055 7.95413 19.4703ZM19.468 7.95874C19.2032 7.69398 18.9063 7.58601 18.6266 7.58601C18.1086 7.58601 17.6693 7.9932 17.6693 8.63639L17.6693 13.6298C17.6693 14.2753 18.1086 14.6802 18.6266 14.6802C18.9063 14.6802 19.2032 14.5723 19.468 14.3075L21.8745 11.9935C22.1318 11.7459 22.2593 11.4421 22.2593 11.1331C22.2593 10.8241 22.1318 10.5128 21.8745 10.2728ZM2.79133 7.95874L0.377342 10.2728C0.127499 10.5128 0 10.8241 0 11.1331C0 11.4421 0.127499 11.7459 0.377342 11.9935L2.79133 14.3075C3.04633 14.5723 3.3507 14.6802 3.63039 14.6802C4.14323 14.6802 4.58772 14.2753 4.58772 13.6298L4.58772 8.63639C4.58772 7.9932 4.14323 7.58601 3.63039 7.58601C3.3507 7.58601 3.04633 7.69398 2.79133 7.95874Z"
                     fill="currentColor" fill-opacity="0.85" />
              <path d="M11.8359 15.0644C12.2454 15.0644 12.5843 14.7405 12.5843 14.3161L12.5843 7.95474C12.5843 7.52802 12.2454 7.20467 11.8336 7.20467C11.562 7.20467 11.3609 7.31955 11.0772 7.56139L9.33515 9.14378C9.30355 9.17308 9.27941 9.18054 9.23288 9.18054L8.17729 9.18054C7.426 9.18054 7.00499 9.60155 7.00499 10.389L7.00499 11.8772C7.00499 12.6624 7.426 13.0909 8.17729 13.0909L9.2478 13.0909C9.28687 13.0909 9.31101 13.0932 9.34261 13.1225L11.0772 14.7169C11.3391 14.9444 11.5568 15.0644 11.8359 15.0644Z"
                     fill="currentColor" fill-opacity="0.85" />
              <path d="M14.0314 13.2517C14.3284 13.4476 14.6908 13.3591 14.8763 13.0949C15.2595 12.5647 15.4967 11.8725 15.4967 11.1308C15.4967 10.3915 15.2646 9.69921 14.8763 9.16671C14.7005 8.90995 14.3358 8.82897 14.0314 9.00015C13.7104 9.19315 13.6317 9.59288 13.9016 10.0305C14.0936 10.3326 14.205 10.7257 14.205 11.1308C14.205 11.5313 14.0861 11.9244 13.9016 12.2312C13.6392 12.6762 13.7104 13.0535 14.0314 13.2517Z"
                     fill="currentColor" fill-opacity="0.85" />
       </g>
</svg>