<?xml version="1.0" encoding="UTF-8"?>
<!--Generator: Apple Native CoreSVG 326-->
<!DOCTYPE svg PUBLIC "-//W3C//DTD SVG 1.1//EN" "http://www.w3.org/Graphics/SVG/1.1/DTD/svg11.dtd">
<svg version="1.1" xmlns="http://www.w3.org/2000/svg" xmlns:xlink="http://www.w3.org/1999/xlink"
       viewBox="0 0 20.0822 18.2659">
       <g>
              <rect height="18.2659" opacity="0" width="20.0822" x="0" y="0" />
              <path d="M16.4004 14.0194C17.0659 14.423 17.883 14.2652 18.2959 13.6829C19.1896 12.4354 19.7209 10.8311 19.7209 9.12807C19.7209 7.42503 19.1896 5.82304 18.2959 4.55836C17.883 3.99099 17.0659 3.82333 16.4004 4.23676C15.6792 4.67434 15.5087 5.52819 16.1024 6.54782C16.5569 7.26939 16.812 8.18178 16.812 9.12807C16.812 10.0744 16.5546 10.977 16.1024 11.7083C15.511 12.7228 15.6792 13.5795 16.4004 14.0194Z"
                     fill="currentColor" fill-opacity="0.85" />
              <path d="M11.1913 18.2659C12.194 18.2659 12.9514 17.5085 12.9514 16.5082L12.9514 1.78881C12.9514 0.788469 12.194 0.00976562 11.1867 0.00976562C10.5636 0.00976562 10.0721 0.242382 9.41964 0.85519L5.57053 4.41825C5.5194 4.46192 5.46881 4.49122 5.40846 4.49122L2.73486 4.49122C0.966555 4.49122 0 5.49968 0 7.33866L0 10.9416C0 12.7829 0.966555 13.7965 2.73486 13.7965L5.401 13.7965C5.46135 13.7965 5.51194 13.8034 5.56307 13.8471L9.41964 17.4418C10.0382 18.0207 10.5384 18.2659 11.1913 18.2659Z"
                     fill="currentColor" fill-opacity="0.85" />
       </g>
</svg>