<?xml version="1.0" encoding="UTF-8"?>
<!--Generator: Apple Native CoreSVG 326-->
<!DOCTYPE svg PUBLIC "-//W3C//DTD SVG 1.1//EN" "http://www.w3.org/Graphics/SVG/1.1/DTD/svg11.dtd">
<svg version="1.1" xmlns="http://www.w3.org/2000/svg" xmlns:xlink="http://www.w3.org/1999/xlink"
       viewBox="0 0 26.7704 19.0529">
       <g>
              <rect height="19.0529" opacity="0" width="26.7704" x="0" y="0" />
              <path d="M4.26303 19.0379L22.1461 19.0379C24.9094 19.0379 26.4091 17.5382 26.4091 14.7749L26.4091 4.26303C26.4091 1.49972 24.9094 0 22.1461 0L4.26303 0C1.49972 0 0 1.49972 0 4.26303L0 14.7749C0 17.5382 1.49972 19.0379 4.26303 19.0379ZM4.44846 16.0183C3.5277 16.0183 3.01964 15.5177 3.01964 14.5895L3.01964 4.45592C3.01964 3.52539 3.5277 3.01964 4.44846 3.01964L21.9606 3.01964C22.8912 3.01964 23.3895 3.52539 23.3895 4.45592L23.3895 14.5895C23.3895 15.5177 22.8912 16.0183 21.9606 16.0183ZM1.19699 13.6733L4.36985 13.6733C5.99786 13.6733 6.88137 12.7972 6.88137 11.1641L6.88137 7.87158C6.88137 6.23842 5.99786 5.3549 4.36985 5.3549L1.19699 5.3549L1.19699 7.26156L4.34231 7.26156C4.75853 7.26156 4.98963 7.49266 4.98963 7.90142L4.98963 11.1267C4.98963 11.543 4.75853 11.7741 4.34231 11.7741L1.19699 11.7741ZM22.0467 13.6733L25.2196 13.6733L25.2196 11.7741L22.0668 11.7741C21.658 11.7741 21.4218 11.543 21.4218 11.1267L21.4218 7.90142C21.4218 7.49266 21.658 7.26156 22.0668 7.26156L25.2196 7.26156L25.2196 5.3549L22.0467 5.3549C20.4112 5.3549 19.53 6.23842 19.53 7.87158L19.53 11.1641C19.53 12.7972 20.4112 13.6733 22.0467 13.6733ZM12.2636 16.8117L14.1553 16.8117L14.1553 2.23366L12.2636 2.23366ZM13.2008 13.9989C15.6773 13.9989 17.6805 11.9981 17.6805 9.52155C17.6805 7.03756 15.6773 5.03439 13.2008 5.03439C10.7168 5.03439 8.71597 7.03756 8.71597 9.52155C8.71597 11.9981 10.7168 13.9989 13.2008 13.9989ZM13.2008 12.1825C11.7356 12.1825 10.5399 10.9868 10.5399 9.52155C10.5399 8.05634 11.7356 6.85832 13.2008 6.85832C14.666 6.85832 15.864 8.05634 15.864 9.52155C15.864 10.9868 14.666 12.1825 13.2008 12.1825ZM13.2008 11.146C14.0946 11.146 14.8178 10.4131 14.8178 9.52155C14.8178 8.63002 14.0946 7.89706 13.2008 7.89706C12.3018 7.89706 11.5763 8.63002 11.5763 9.52155C11.5763 10.4131 12.3018 11.146 13.2008 11.146Z"
                     fill="currentColor" fill-opacity="0.85" />
       </g>
</svg>