<?xml version="1.0" encoding="UTF-8"?>
<!--Generator: Apple Native CoreSVG 326-->
<!DOCTYPE svg PUBLIC "-//W3C//DTD SVG 1.1//EN" "http://www.w3.org/Graphics/SVG/1.1/DTD/svg11.dtd">
<svg version="1.1" xmlns="http://www.w3.org/2000/svg" xmlns:xlink="http://www.w3.org/1999/xlink"
       viewBox="0 0 20.7001 22.1791">
       <g>
              <rect height="22.1791" opacity="0" width="20.7001" x="0" y="0" />
              <path d="M1.1615 10.1234C1.69158 10.1234 2.11599 9.69903 2.11599 9.16895C2.11599 8.64634 1.69158 8.22193 1.1615 8.22193C0.638891 8.22193 0.20702 8.64634 0.20702 9.16895C0.20702 9.69903 0.638891 10.1234 1.1615 10.1234ZM3.54571 3.77978C4.06833 3.77978 4.5002 3.35537 4.5002 2.8253C4.5002 2.30269 4.06833 1.87082 3.54571 1.87082C3.01564 1.87082 2.59123 2.30269 2.59123 2.8253C2.59123 3.35537 3.01564 3.77978 3.54571 3.77978ZM10.1657 1.90151C10.6957 1.90151 11.1201 1.4771 11.1201 0.954484C11.1201 0.424411 10.6957 0 10.1657 0C9.64304 0 9.21863 0.424411 9.21863 0.954484C9.21863 1.4771 9.64304 1.90151 10.1657 1.90151ZM16.7931 3.77978C17.3231 3.77978 17.7475 3.35537 17.7475 2.8253C17.7475 2.30269 17.3231 1.87082 16.7931 1.87082C16.2704 1.87082 15.8386 2.30269 15.8386 2.8253C15.8386 3.35537 16.2704 3.77978 16.7931 3.77978ZM19.1773 10.1234C19.6999 10.1234 20.1318 9.69903 20.1318 9.16895C20.1318 8.64634 19.6999 8.22193 19.1773 8.22193C18.6472 8.22193 18.2228 8.64634 18.2228 9.16895C18.2228 9.69903 18.6472 10.1234 19.1773 10.1234Z"
                     fill="currentColor" fill-opacity="0.85" />
              <path d="M4.3104 10.1234C4.83302 10.1234 5.26489 9.69903 5.26489 9.16895C5.26489 8.64634 4.83302 8.22193 4.3104 8.22193C3.78033 8.22193 3.35592 8.64634 3.35592 9.16895C3.35592 9.69903 3.78033 10.1234 4.3104 10.1234ZM5.7704 6.00447C6.30047 6.00447 6.72488 5.58006 6.72488 5.05744C6.72488 4.52737 6.30047 4.10296 5.7704 4.10296C5.24778 4.10296 4.81591 4.52737 4.81591 5.05744C4.81591 5.58006 5.24778 6.00447 5.7704 6.00447ZM10.1657 5.05271C10.6957 5.05271 11.1201 4.6283 11.1201 4.09823C11.1201 3.57561 10.6957 3.1512 10.1657 3.1512C9.64304 3.1512 9.21863 3.57561 9.21863 4.09823C9.21863 4.6283 9.64304 5.05271 10.1657 5.05271ZM14.5684 6.00447C15.091 6.00447 15.5154 5.58006 15.5154 5.05744C15.5154 4.52737 15.091 4.10296 14.5684 4.10296C14.036 4.10296 13.6139 4.52737 13.6139 5.05744C13.6139 5.58006 14.036 6.00447 14.5684 6.00447ZM16.0261 10.1234C16.5561 10.1234 16.9805 9.69903 16.9805 9.16895C16.9805 8.64634 16.5561 8.22193 16.0261 8.22193C15.5035 8.22193 15.0716 8.64634 15.0716 9.16895C15.0716 9.69903 15.5035 10.1234 16.0261 10.1234Z"
                     fill="currentColor" fill-opacity="0.85" />
              <path d="M8.0043 10.9149L12.3322 10.9149C13.1558 10.9149 13.7565 10.3216 13.7565 9.49801L13.7565 8.61298C13.7565 7.26732 12.8507 6.40577 11.439 6.40577L8.89746 6.40577C7.48059 6.40577 6.58228 7.26732 6.58228 8.61298L6.58228 9.49801C6.58228 10.3216 7.18301 10.9149 8.0043 10.9149ZM8.64058 9.06748C8.52394 9.06748 8.4412 8.9922 8.4412 8.87326L8.4412 8.61298C8.4412 8.36926 8.60382 8.25317 8.8866 8.25317L11.4499 8.25317C11.7326 8.25317 11.8901 8.36926 11.8901 8.61298L11.8901 8.87326C11.8901 8.9922 11.8148 9.06748 11.6959 9.06748ZM8.16843 16.3909L12.168 16.3909C13.0961 16.3909 13.7565 15.7701 13.7565 14.8845L13.7565 13.1758C13.7565 12.2902 13.0961 11.6768 12.168 11.6768L8.16843 11.6768C7.2427 11.6768 6.58228 12.2902 6.58228 13.1758L6.58228 14.8845C6.58228 15.7701 7.2427 16.3909 8.16843 16.3909ZM8.62159 14.5412C8.51241 14.5412 8.42968 14.4682 8.42968 14.3493L8.42968 13.711C8.42968 13.5995 8.51241 13.5168 8.62159 13.5168L11.7074 13.5168C11.8264 13.5168 11.9091 13.5995 11.9091 13.711L11.9091 14.3493C11.9091 14.4682 11.8264 14.5412 11.7074 14.5412ZM7.92356 12.9695L9.79917 12.9695L9.79917 9.8554L7.92356 9.8554ZM10.5396 12.9695L12.4152 12.9695L12.4152 9.8554L10.5396 9.8554ZM7.86254 20.5701L9.73069 20.5701L9.73069 15.4429L7.86254 15.4429ZM10.6006 20.5701L12.4762 20.5701L12.4762 15.4429L10.6006 15.4429ZM1.24381 21.9178L19.095 21.9178C19.7685 21.9178 20.3365 21.3573 20.3365 20.6763C20.3365 19.9854 19.7611 19.4324 19.095 19.4324L1.24381 19.4324C0.562767 19.4324 0 19.9929 0 20.6763C0 21.3573 0.577689 21.9178 1.24381 21.9178Z"
                     fill="currentColor" fill-opacity="0.85" />
       </g>
</svg>