<?xml version="1.0" encoding="UTF-8"?>
<!--Generator: Apple Native CoreSVG 326-->
<!DOCTYPE svg PUBLIC "-//W3C//DTD SVG 1.1//EN" "http://www.w3.org/Graphics/SVG/1.1/DTD/svg11.dtd">
<svg version="1.1" xmlns="http://www.w3.org/2000/svg" xmlns:xlink="http://www.w3.org/1999/xlink"
       viewBox="0 0 23.0047 17.3154">
       <g>
              <rect height="17.3154" opacity="0" width="23.0047" x="0" y="0" />
              <path d="M8.9054 4.959L13.7431 4.959C14.6523 4.959 15.2921 4.31689 15.2921 3.40772L15.2921 2.42843C15.2921 0.946599 14.3012 0 12.7436 0L9.89743 0C8.34725 0 7.34897 0.946599 7.34897 2.42843L7.34897 3.40772C7.34897 4.31689 7.98877 4.959 8.9054 4.959ZM9.54332 2.94558C9.44336 2.94558 9.36754 2.8646 9.36754 2.76464L9.36754 2.42843C9.36754 2.16342 9.55376 2.01111 9.87505 2.01111L12.7734 2.01111C13.0873 2.01111 13.2735 2.16342 13.2735 2.42843L13.2735 2.76464C13.2735 2.8646 13.1977 2.94558 13.1 2.94558ZM9.0793 11.0828L13.564 11.0828C14.5777 11.0828 15.2921 10.4057 15.2921 9.44197L15.2921 7.53263C15.2921 6.57124 14.5777 5.89413 13.564 5.89413L9.0793 5.89413C8.06568 5.89413 7.34897 6.57124 7.34897 7.53263L7.34897 9.44197C7.34897 10.4057 8.06568 11.0828 9.0793 11.0828ZM9.54332 9.07166C9.44336 9.07166 9.36754 8.98838 9.36754 8.88842L9.36754 8.08618C9.36754 7.98853 9.44336 7.90525 9.54332 7.90525L13.1 7.90525C13.1977 7.90525 13.2735 7.98853 13.2735 8.08618L13.2735 8.88842C13.2735 8.98838 13.1977 9.07166 13.1 9.07166ZM8.85178 7.26708L10.8704 7.26708L10.8704 3.86058L8.85178 3.86058ZM11.7804 7.26708L13.7916 7.26708L13.7916 3.86058L11.7804 3.86058ZM8.85178 15.7983L10.8704 15.7983L10.8704 10.1028L8.85178 10.1028ZM11.7804 15.7983L13.7916 15.7983L13.7916 10.1028L11.7804 10.1028ZM1.33334 17.2879L21.3077 17.2879C22.0433 17.2879 22.6433 16.6827 22.6433 15.9522C22.6433 15.2167 22.0358 14.6189 21.3077 14.6189L1.33334 14.6189C0.597766 14.6189 0 15.2241 0 15.9522C0 16.6901 0.605227 17.2879 1.33334 17.2879Z"
                     fill="currentColor" fill-opacity="0.85" />
       </g>
</svg>