<?xml version="1.0" encoding="UTF-8"?>
<!--Generator: Apple Native CoreSVG 326-->
<!DOCTYPE svg PUBLIC "-//W3C//DTD SVG 1.1//EN" "http://www.w3.org/Graphics/SVG/1.1/DTD/svg11.dtd">
<svg version="1.1" xmlns="http://www.w3.org/2000/svg" xmlns:xlink="http://www.w3.org/1999/xlink"
       viewBox="0 0 29.5322 19.0575">
       <g>
              <rect height="19.0575" opacity="0" width="29.5322" x="0" y="0" />
              <path d="M23.1286 19.0575L26.3208 19.0575C28.2698 19.0575 29.1709 18.1513 29.1709 16.1833L29.1709 13.0169C29.1709 11.0587 28.2698 10.1502 26.3208 10.1502L23.1286 10.1502C21.1796 10.1502 20.2711 11.0587 20.2711 13.0169L20.2711 16.1833C20.2711 18.1513 21.1796 19.0575 23.1286 19.0575Z"
                     fill="currentColor" fill-opacity="0.85" />
              <path d="M12.9905 19.0575L16.1804 19.0575C18.1294 19.0575 19.0379 18.1513 19.0379 16.1833L19.0379 13.0169C19.0379 11.0587 18.1294 10.1502 16.1804 10.1502L12.9905 10.1502C11.0392 10.1502 10.1381 11.0587 10.1381 13.0169L10.1381 16.1833C10.1381 18.1513 11.0392 19.0575 12.9905 19.0575Z"
                     fill="currentColor" fill-opacity="0.85" />
              <path d="M2.85751 19.0575L6.04977 19.0575C7.99878 19.0575 8.89982 18.1513 8.89982 16.1833L8.89982 13.0169C8.89982 11.0587 7.99878 10.1502 6.04977 10.1502L2.85751 10.1502C0.908507 10.1502 0 11.0587 0 13.0169L0 16.1833C0 18.1513 0.908507 19.0575 2.85751 19.0575Z"
                     fill="currentColor" fill-opacity="0.85" />
              <path d="M23.1286 8.91935L26.3208 8.91935C28.2698 8.91935 29.1709 8.01085 29.1709 6.05032L29.1709 2.88626C29.1709 0.918273 28.2698 0.0195312 26.3208 0.0195312L23.1286 0.0195312C21.1796 0.0195312 20.2711 0.918273 20.2711 2.88626L20.2711 6.05032C20.2711 8.01085 21.1796 8.91935 23.1286 8.91935Z"
                     fill="currentColor" fill-opacity="0.85" />
              <path d="M12.9905 8.91935L16.1804 8.91935C18.1294 8.91935 19.0379 8.01085 19.0379 6.05032L19.0379 2.88626C19.0379 0.918273 18.1294 0.0195312 16.1804 0.0195312L12.9905 0.0195312C11.0392 0.0195312 10.1381 0.918273 10.1381 2.88626L10.1381 6.05032C10.1381 8.01085 11.0392 8.91935 12.9905 8.91935Z"
                     fill="currentColor" fill-opacity="0.85" />
              <path d="M2.85751 8.91935L6.04977 8.91935C7.99878 8.91935 8.89982 8.01085 8.89982 6.05032L8.89982 2.88626C8.89982 0.918273 7.99878 0.0195312 6.04977 0.0195312L2.85751 0.0195312C0.908507 0.0195312 0 0.918273 0 2.88626L0 6.05032C0 8.01085 0.908507 8.91935 2.85751 8.91935Z"
                     fill="currentColor" fill-opacity="0.85" />
       </g>
</svg>