<?xml version="1.0" encoding="UTF-8"?>
<!--Generator: Apple Native CoreSVG 326-->
<!DOCTYPE svg PUBLIC "-//W3C//DTD SVG 1.1//EN" "http://www.w3.org/Graphics/SVG/1.1/DTD/svg11.dtd">
<svg version="1.1" xmlns="http://www.w3.org/2000/svg" xmlns:xlink="http://www.w3.org/1999/xlink"
       viewBox="0 0 19.3993 19.0575">
       <g>
              <rect height="19.0575" opacity="0" width="19.3993" x="0" y="0" />
              <path d="M7.50782 9.53362L0.217816 2.24361C0.077579 2.65091 0 3.12834 0 3.65865L0 15.4183C0 15.9412 0.077579 16.4163 0.217816 16.8259ZM9.51639 7.51989L16.8139 0.229886C16.3968 0.0873446 15.9245 0.0195312 15.3896 0.0195312L3.64834 0.0195312C3.11342 0.0195312 2.64345 0.0873446 2.22408 0.227581ZM11.5301 9.53362L18.8201 16.8259C18.9627 16.4163 19.0379 15.9412 19.0379 15.4183L19.0379 3.65865C19.0379 3.12834 18.9627 2.65091 18.8201 2.24361ZM9.51639 11.5496L2.22408 18.8397C2.64345 18.9799 3.11342 19.0575 3.64834 19.0575L15.3896 19.0575C15.9245 19.0575 16.3968 18.9799 16.8139 18.8397Z"
                     fill="currentColor" fill-opacity="0.85" />
       </g>
</svg>