<?xml version="1.0" encoding="UTF-8"?>
<!--Generator: Apple Native CoreSVG 326-->
<!DOCTYPE svg PUBLIC "-//W3C//DTD SVG 1.1//EN" "http://www.w3.org/Graphics/SVG/1.1/DTD/svg11.dtd">
<svg version="1.1" xmlns="http://www.w3.org/2000/svg" xmlns:xlink="http://www.w3.org/1999/xlink"
       viewBox="0 0 20.1936 19.8323">
       <g>
              <rect height="19.8323" opacity="0" width="20.1936" x="0" y="0" />
              <path d="M1.17558 8.16825C1.82108 8.16825 2.35115 7.64564 2.35115 7.00014C2.35115 6.34717 1.82108 5.82456 1.17558 5.82456C0.530074 5.82456 0 6.34717 0 7.00014C0 7.64564 0.530074 8.16825 1.17558 8.16825ZM1.17558 5.25482C1.82108 5.25482 2.35115 4.73221 2.35115 4.07924C2.35115 3.43374 1.82108 2.91113 1.17558 2.91113C0.530074 2.91113 0 3.43374 0 4.07924C0 4.73221 0.530074 5.25482 1.17558 5.25482ZM1.17558 2.34369C1.82108 2.34369 2.35115 1.82108 2.35115 1.16812C2.35115 0.522613 1.82108 0 1.17558 0C0.530074 0 0 0.522613 0 1.16812C0 1.82108 0.530074 2.34369 1.17558 2.34369ZM4.08901 2.34369C4.73451 2.34369 5.26458 1.82108 5.26458 1.16812C5.26458 0.522613 4.73451 0 4.08901 0C3.44351 0 2.91343 0.522613 2.91343 1.16812C2.91343 1.82108 3.44351 2.34369 4.08901 2.34369ZM7.00014 2.34369C7.64564 2.34369 8.17571 1.82108 8.17571 1.16812C8.17571 0.522613 7.64564 0 7.00014 0C6.35463 0 5.82456 0.522613 5.82456 1.16812C5.82456 1.82108 6.35463 2.34369 7.00014 2.34369ZM9.91357 2.34369C10.5665 2.34369 11.0891 1.82108 11.0891 1.16812C11.0891 0.522613 10.5665 0 9.91357 0C9.26807 0 8.74545 0.522613 8.74545 1.16812C8.74545 1.82108 9.26807 2.34369 9.91357 2.34369ZM12.8322 2.34369C13.4777 2.34369 14.0003 1.82108 14.0003 1.16812C14.0003 0.522613 13.4777 0 12.8322 0C12.1792 0 11.6566 0.522613 11.6566 1.16812C11.6566 1.82108 12.1792 2.34369 12.8322 2.34369ZM15.7456 2.34369C16.3911 2.34369 16.9137 1.82108 16.9137 1.16812C16.9137 0.522613 16.3911 0 15.7456 0C15.1001 0 14.57 0.522613 14.57 1.16812C14.57 1.82108 15.1001 2.34369 15.7456 2.34369ZM18.6567 2.34369C19.3022 2.34369 19.8323 1.82108 19.8323 1.16812C19.8323 0.522613 19.3022 0 18.6567 0C18.0112 0 17.4811 0.522613 17.4811 1.16812C17.4811 1.82108 18.0112 2.34369 18.6567 2.34369ZM18.6567 5.25482C19.3022 5.25482 19.8323 4.73221 19.8323 4.07924C19.8323 3.43374 19.3022 2.91113 18.6567 2.91113C18.0112 2.91113 17.4811 3.43374 17.4811 4.07924C17.4811 4.73221 18.0112 5.25482 18.6567 5.25482ZM18.6567 8.16825C19.3022 8.16825 19.8323 7.64564 19.8323 7.00014C19.8323 6.34717 19.3022 5.82456 18.6567 5.82456C18.0112 5.82456 17.4811 6.34717 17.4811 7.00014C17.4811 7.64564 18.0112 8.16825 18.6567 8.16825ZM18.6567 11.0868C19.3022 11.0868 19.8323 10.5568 19.8323 9.91126C19.8323 9.26576 19.3022 8.73569 18.6567 8.73569C18.0112 8.73569 17.4811 9.26576 17.4811 9.91126C17.4811 10.5568 18.0112 11.0868 18.6567 11.0868ZM18.6567 14.0003C19.3022 14.0003 19.8323 13.4702 19.8323 12.8247C19.8323 12.1792 19.3022 11.6491 18.6567 11.6491C18.0112 11.6491 17.4811 12.1792 17.4811 12.8247C17.4811 13.4702 18.0112 14.0003 18.6567 14.0003ZM18.6567 16.9114C19.3022 16.9114 19.8323 16.3813 19.8323 15.7358C19.8323 15.0903 19.3022 14.5602 18.6567 14.5602C18.0112 14.5602 17.4811 15.0903 17.4811 15.7358C17.4811 16.3813 18.0112 16.9114 18.6567 16.9114ZM18.6567 19.8248C19.3022 19.8248 19.8323 19.3022 19.8323 18.6493C19.8323 18.0038 19.3022 17.4811 18.6567 17.4811C18.0112 17.4811 17.4811 18.0038 17.4811 18.6493C17.4811 19.3022 18.0112 19.8248 18.6567 19.8248ZM13.6491 19.8248C14.2946 19.8248 14.8247 19.3022 14.8247 18.6493C14.8247 18.0038 14.2946 17.4811 13.6491 17.4811C13.0036 17.4811 12.4736 18.0038 12.4736 18.6493C12.4736 19.3022 13.0036 19.8248 13.6491 19.8248ZM14.9212 19.8248C15.5667 19.8248 16.0967 19.3022 16.0967 18.6493C16.0967 18.0038 15.5667 17.4811 14.9212 17.4811C14.2757 17.4811 13.7456 18.0038 13.7456 18.6493C13.7456 19.3022 14.2757 19.8248 14.9212 19.8248Z"
                     fill="currentColor" fill-opacity="0.85" />
              <path d="M1.02745 19.8156L9.73342 19.8156C10.3439 19.8156 10.7511 19.4084 10.7511 18.7905L10.7511 12.1314L10.0291 12.8362C9.58069 13.2697 9.01112 13.4833 8.44441 13.4719L8.44441 17.2332C8.44441 17.4033 8.35367 17.494 8.18359 17.494L2.57497 17.494C2.39974 17.494 2.30669 17.4033 2.30669 17.2332L2.30669 11.6492C2.30669 11.4792 2.39974 11.3884 2.57497 11.3884L6.21336 11.3884C6.14513 10.7551 6.36852 10.1017 6.8514 9.6263L7.4132 9.07427L1.02745 9.07427C0.409489 9.07427 0 9.48145 0 10.092L0 18.7905C0 19.4084 0.409489 19.8156 1.02745 19.8156Z"
                     fill="currentColor" fill-opacity="0.85" />
              <path d="M7.87601 11.7794C8.18499 12.093 8.67545 12.0959 8.99936 11.7794L12.5621 8.30515L13.2372 8.99238C13.6369 9.39211 14.2698 9.18648 14.3973 8.61274L15.0488 5.57781C15.1665 5.05575 14.718 4.6118 14.181 4.73184L11.1558 5.3563C10.5648 5.47633 10.3466 6.08738 10.7561 6.49687L11.4634 7.19157L7.88347 10.6807C7.58425 10.9748 7.58656 11.448 7.87601 11.7794Z"
                     fill="currentColor" fill-opacity="0.85" />
       </g>
</svg>