<?xml version="1.0" encoding="UTF-8"?>
<!--Generator: Apple Native CoreSVG 326-->
<!DOCTYPE svg PUBLIC "-//W3C//DTD SVG 1.1//EN" "http://www.w3.org/Graphics/SVG/1.1/DTD/svg11.dtd">
<svg version="1.1" xmlns="http://www.w3.org/2000/svg" xmlns:xlink="http://www.w3.org/1999/xlink"
       viewBox="0 0 21.365 21.006">
       <g>
              <rect height="21.006" opacity="0" width="21.365" x="0" y="0" />
              <path d="M21.0037 10.4981C21.0037 16.2923 16.302 20.9962 10.4981 20.9962C4.70394 20.9962 0 16.2923 0 10.4981C0 4.70163 4.70394 0 10.4981 0C16.302 0 21.0037 4.70163 21.0037 10.4981ZM7.81068 7.32986C6.67447 7.32986 6.05869 7.97087 6.05869 9.09216L6.05869 13.6032C6.05869 14.7394 6.68939 15.3528 7.81068 15.3528L13.1855 15.3528C14.3166 15.3528 14.9375 14.7417 14.9375 13.6032L14.9375 9.09216C14.9375 7.96857 14.3315 7.32986 13.1855 7.32986L11.9915 7.32986L11.9915 8.67606L13.1758 8.67606C13.4436 8.67606 13.6011 8.84614 13.6011 9.13353L13.6011 13.5739C13.6011 13.8739 13.4436 14.0239 13.1758 14.0239L7.82791 14.0239C7.56005 14.0239 7.40259 13.8762 7.40259 13.5739L7.40259 9.13353C7.40259 8.84614 7.56005 8.67606 7.82791 8.67606L9.00476 8.67606L9.00476 7.32986ZM10.0398 4.27838L8.4944 5.75772C8.35483 5.88752 8.28823 6.03225 8.28823 6.21142C8.28823 6.56462 8.53576 6.79263 8.89412 6.79263C9.10029 6.79263 9.24963 6.73634 9.36736 6.60369L9.57037 6.37368L9.97483 5.92501L9.85831 6.42591L9.85831 10.7677C9.85831 11.1232 10.1426 11.3978 10.4981 11.3978C10.8536 11.3978 11.1477 11.1232 11.1477 10.7677L11.1477 6.42591L11.0214 5.92501L11.4235 6.37368L11.6289 6.60369C11.7517 6.73634 11.8936 6.79263 12.1073 6.79263C12.4702 6.79263 12.7103 6.56462 12.7103 6.21142C12.7103 6.03225 12.6489 5.88522 12.5093 5.76002L10.9616 4.27838C10.8071 4.12904 10.6526 4.05037 10.4981 4.05037C10.3488 4.05037 10.1868 4.13135 10.0398 4.27838Z"
                     fill="currentColor" fill-opacity="0.85" />
       </g>
</svg>