<?xml version="1.0" encoding="UTF-8"?>
<!--Generator: Apple Native CoreSVG 326-->
<!DOCTYPE svg PUBLIC "-//W3C//DTD SVG 1.1//EN" "http://www.w3.org/Graphics/SVG/1.1/DTD/svg11.dtd">
<svg version="1.1" xmlns="http://www.w3.org/2000/svg" xmlns:xlink="http://www.w3.org/1999/xlink"
       viewBox="0 0 20.2596 17.8402">
       <g>
              <rect height="17.8402" opacity="0" width="20.2596" x="0" y="0" />
              <path d="M5.05156 17.0294C6.83497 17.0294 7.73129 16.0641 8.24116 14.5602L11.9235 3.40948L18.1998 3.40948C19.2339 3.40948 19.8983 2.71703 19.8983 1.69497C19.8983 0.68499 19.2339 0 18.1998 0L11.7622 0C9.90071 0 9.08592 0.766512 8.56112 2.44657L5.23359 13.2148L4.93328 13.2148L3.44054 7.95631C3.17984 7.03125 2.69289 6.55352 1.72658 6.55352C0.686749 6.55352 0 7.29019 0 8.23127C0 8.59072 0.0637496 8.86349 0.192341 9.25617L1.89708 14.5856C2.38742 16.1078 3.31182 17.0294 5.05156 17.0294Z"
                     fill="currentColor" fill-opacity="0.85" />
       </g>
</svg>