<?xml version="1.0" encoding="UTF-8"?>
<!--Generator: Apple Native CoreSVG 326-->
<!DOCTYPE svg PUBLIC "-//W3C//DTD SVG 1.1//EN" "http://www.w3.org/Graphics/SVG/1.1/DTD/svg11.dtd">
<svg version="1.1" xmlns="http://www.w3.org/2000/svg" xmlns:xlink="http://www.w3.org/1999/xlink"
       viewBox="0 0 19.3993 19.0575">
       <g>
              <rect height="19.0575" opacity="0" width="19.3993" x="0" y="0" />
              <path d="M8.58878 19.0575L8.58878 11.9486C8.58878 9.776 9.77545 8.60085 11.974 8.60085L19.0379 8.60085L19.0379 11.6205L12.3815 11.6205C11.8786 11.6205 11.6084 11.8837 11.6084 12.3751L11.6084 19.0575ZM3.64834 19.0402L15.3896 19.0402C17.7164 19.0402 19.0379 17.7285 19.0379 15.4034L19.0379 3.64143C19.0379 1.32382 17.7164 0.00230491 15.3896 0.00230491L3.64834 0.00230491C1.32382 0.00230491 0 1.32382 0 3.64143L0 15.4034C0 17.7285 1.32382 19.0402 3.64834 19.0402Z"
                     fill="currentColor" fill-opacity="0.85" />
       </g>
</svg>