<?xml version="1.0" encoding="UTF-8"?>
<!--Generator: Apple Native CoreSVG 326-->
<!DOCTYPE svg PUBLIC "-//W3C//DTD SVG 1.1//EN" "http://www.w3.org/Graphics/SVG/1.1/DTD/svg11.dtd">
<svg version="1.1" xmlns="http://www.w3.org/2000/svg" xmlns:xlink="http://www.w3.org/1999/xlink"
       viewBox="0 0 22.5184 21.7533">
       <g>
              <rect height="21.7533" opacity="0" width="22.5184" x="0" y="0" />
              <path d="M17.7349 21.7291L20.1319 21.7291C21.3828 21.7291 22.1571 20.9475 22.1571 19.6574L22.1571 17.3535C22.1571 16.0635 21.3828 15.2818 20.1319 15.2818L17.7349 15.2818C16.484 15.2818 15.7097 16.0635 15.7097 17.3535L15.7097 19.6574C15.7097 20.9475 16.484 21.7291 17.7349 21.7291ZM18.1219 19.6951C17.8748 19.6951 17.7415 19.5543 17.7415 19.2825L17.7415 17.721C17.7415 17.4543 17.8748 17.3136 18.1219 17.3136L19.7374 17.3136C19.9897 17.3136 20.123 17.4543 20.123 17.721L20.123 19.2825C20.123 19.5543 19.9897 19.6951 19.7374 19.6951Z"
                     fill="currentColor" fill-opacity="0.85" />
              <path d="M9.87402 21.7291L12.2733 21.7291C13.5242 21.7291 14.2962 20.9475 14.2962 19.6574L14.2962 17.3535C14.2962 16.0635 13.5242 15.2818 12.2733 15.2818L9.87402 15.2818C8.62305 15.2818 7.85114 16.0635 7.85114 17.3535L7.85114 19.6574C7.85114 20.9475 8.62305 21.7291 9.87402 21.7291ZM10.261 19.6951C10.0139 19.6951 9.88288 19.5543 9.88288 19.2825L9.88288 17.721C9.88288 17.4543 10.0139 17.3136 10.261 17.3136L11.8788 17.3136C12.1311 17.3136 12.2644 17.4543 12.2644 17.721L12.2644 19.2825C12.2644 19.5543 12.1311 19.6951 11.8788 19.6951Z"
                     fill="currentColor" fill-opacity="0.85" />
              <path d="M2.02519 21.7291L4.42213 21.7291C5.6731 21.7291 6.44732 20.9475 6.44732 19.6574L6.44732 17.3535C6.44732 16.0635 5.6731 15.2818 4.42213 15.2818L2.02519 15.2818C0.774214 15.2818 0 16.0635 0 17.3535L0 19.6574C0 20.9475 0.774214 21.7291 2.02519 21.7291ZM2.41217 19.6951C2.16506 19.6951 2.03404 19.5543 2.03404 19.2825L2.03404 17.721C2.03404 17.4543 2.16506 17.3136 2.41217 17.3136L4.02768 17.3136C4.27995 17.3136 4.41558 17.4543 4.41558 17.721L4.41558 19.2825C4.41558 19.5543 4.27995 19.6951 4.02768 19.6951Z"
                     fill="currentColor" fill-opacity="0.85" />
              <path d="M17.7349 14.0882L20.1319 14.0882C21.3828 14.0882 22.1571 13.3089 22.1571 12.0188L22.1571 9.71262C22.1571 8.42258 21.3828 7.64091 20.1319 7.64091L17.7349 7.64091C16.484 7.64091 15.7097 8.42258 15.7097 9.71262L15.7097 12.0188C15.7097 13.3089 16.484 14.0882 17.7349 14.0882ZM18.1219 12.0565C17.8748 12.0565 17.7415 11.9157 17.7415 11.6416L17.7415 10.0778C17.7415 9.81343 17.8748 9.67264 18.1219 9.67264L19.7374 9.67264C19.9897 9.67264 20.123 9.81343 20.123 10.0778L20.123 11.6416C20.123 11.9157 19.9897 12.0565 19.7374 12.0565Z"
                     fill="currentColor" fill-opacity="0.85" />
              <path d="M9.87402 14.0882L12.2733 14.0882C13.5242 14.0882 14.2962 13.3089 14.2962 12.0188L14.2962 9.71262C14.2962 8.42258 13.5242 7.64091 12.2733 7.64091L9.87402 7.64091C8.62305 7.64091 7.85114 8.42258 7.85114 9.71262L7.85114 12.0188C7.85114 13.3089 8.62305 14.0882 9.87402 14.0882ZM10.261 12.0565C10.0139 12.0565 9.88288 11.9157 9.88288 11.6416L9.88288 10.0778C9.88288 9.81343 10.0139 9.67264 10.261 9.67264L11.8788 9.67264C12.1311 9.67264 12.2644 9.81343 12.2644 10.0778L12.2644 11.6416C12.2644 11.9157 12.1311 12.0565 11.8788 12.0565Z"
                     fill="currentColor" fill-opacity="0.85" />
              <path d="M2.02519 14.0882L4.42213 14.0882C5.6731 14.0882 6.44732 13.3089 6.44732 12.0188L6.44732 9.71262C6.44732 8.42258 5.6731 7.64091 4.42213 7.64091L2.02519 7.64091C0.774214 7.64091 0 8.42258 0 9.71262L0 12.0188C0 13.3089 0.774214 14.0882 2.02519 14.0882ZM2.41217 12.0565C2.16506 12.0565 2.03404 11.9157 2.03404 11.6416L2.03404 10.0778C2.03404 9.81343 2.16506 9.67264 2.41217 9.67264L4.02768 9.67264C4.27995 9.67264 4.41558 9.81343 4.41558 10.0778L4.41558 11.6416C4.41558 11.9157 4.27995 12.0565 4.02768 12.0565Z"
                     fill="currentColor" fill-opacity="0.85" />
              <path d="M17.7349 6.44732L20.1319 6.44732C21.3828 6.44732 22.1571 5.66564 22.1571 4.38307L22.1571 2.07171C22.1571 0.789136 21.3828 0 20.1319 0L17.7349 0C16.484 0 15.7097 0.789136 15.7097 2.07171L15.7097 4.38307C15.7097 5.66564 16.484 6.44732 17.7349 6.44732ZM18.1219 4.42304C17.8748 4.42304 17.7415 4.28226 17.7415 4.00815L17.7415 2.43916C17.7415 2.17482 17.8748 2.03404 18.1219 2.03404L19.7374 2.03404C19.9897 2.03404 20.123 2.17482 20.123 2.43916L20.123 4.00815C20.123 4.28226 19.9897 4.42304 19.7374 4.42304Z"
                     fill="currentColor" fill-opacity="0.85" />
              <path d="M9.87402 6.44732L12.271 6.44732C13.5219 6.44732 14.2962 5.66564 14.2962 4.38307L14.2962 2.07171C14.2962 0.789136 13.5219 0 12.271 0L9.87402 0C8.62305 0 7.84884 0.789136 7.84884 2.07171L7.84884 4.38307C7.84884 5.66564 8.62305 6.44732 9.87402 6.44732Z"
                     fill="currentColor" fill-opacity="0.85" />
              <path d="M2.02519 6.44732L4.42213 6.44732C5.6731 6.44732 6.44732 5.66564 6.44732 4.38307L6.44732 2.07171C6.44732 0.789136 5.6731 0 4.42213 0L2.02519 0C0.774214 0 0 0.789136 0 2.07171L0 4.38307C0 5.66564 0.774214 6.44732 2.02519 6.44732ZM2.41217 4.42304C2.16506 4.42304 2.03404 4.28226 2.03404 4.00815L2.03404 2.43916C2.03404 2.17482 2.16506 2.03404 2.41217 2.03404L4.02768 2.03404C4.27995 2.03404 4.41558 2.17482 4.41558 2.43916L4.41558 4.00815C4.41558 4.28226 4.27995 4.42304 4.02768 4.42304Z"
                     fill="currentColor" fill-opacity="0.85" />
       </g>
</svg>