<?xml version="1.0" encoding="UTF-8"?>
<!--Generator: Apple Native CoreSVG 326-->
<!DOCTYPE svg PUBLIC "-//W3C//DTD SVG 1.1//EN" "http://www.w3.org/Graphics/SVG/1.1/DTD/svg11.dtd">
<svg version="1.1" xmlns="http://www.w3.org/2000/svg" xmlns:xlink="http://www.w3.org/1999/xlink"
       viewBox="0 0 19.3993 19.0575">
       <g>
              <rect height="19.0575" opacity="0" width="19.3993" x="0" y="0" />
              <path d="M8.29442 17.9215L8.29442 1.14804L5.46129 1.14804L5.46129 17.9215ZM13.5766 17.9215L13.5766 1.14804L10.7361 1.14804L10.7361 17.9215ZM1.12851 8.31395L17.902 8.31395L17.902 5.48082L1.12851 5.48082ZM1.12851 13.5962L17.902 13.5962L17.902 10.7556L1.12851 10.7556ZM0 18.0202C0 18.6308 0.409489 19.0379 1.02745 19.0379L18.0128 19.0379C18.6308 19.0379 19.0379 18.6308 19.0379 18.0202L19.0379 1.02745C19.0379 0.409489 18.6308 0 18.0128 0L1.02745 0C0.409489 0 0 0.409489 0 1.02745ZM3.01964 15.7575L3.01964 3.28793C3.01964 3.11269 3.11269 3.01964 3.28047 3.01964L15.7575 3.01964C15.9276 3.01964 16.0183 3.11269 16.0183 3.28793L16.0183 15.7575C16.0183 15.9276 15.9276 16.0183 15.7575 16.0183L3.28047 16.0183C3.11269 16.0183 3.01964 15.9276 3.01964 15.7575Z"
                     fill="currentColor" fill-opacity="0.85" />
       </g>
</svg>