<?xml version="1.0" encoding="UTF-8"?>
<!--Generator: Apple Native CoreSVG 326-->
<!DOCTYPE svg PUBLIC "-//W3C//DTD SVG 1.1//EN" "http://www.w3.org/Graphics/SVG/1.1/DTD/svg11.dtd">
<svg version="1.1" xmlns="http://www.w3.org/2000/svg" xmlns:xlink="http://www.w3.org/1999/xlink"
       viewBox="0 0 21.3971 23.5098">
       <g>
              <rect height="23.5098" opacity="0" width="21.3971" x="0" y="0" />
              <path d="M11.9601 0.391324L19.3123 4.65168C20.659 5.43554 21.0358 6.08632 21.0358 7.63912L21.0358 16.0541C21.0358 18.3363 19.343 19.1173 17.4139 17.998L16.811 17.6496L16.811 14.4127L18.0441 15.1443C18.1245 15.1931 18.198 15.1414 18.198 15.0587L18.198 7.63803C18.198 7.3524 18.148 7.2679 17.9101 7.13458L11.4983 3.4271C11.423 3.38343 11.3546 3.43226 11.3546 3.51499L11.3546 4.90743L8.5169 3.26396L8.5169 2.35864C8.5169 0.136326 10.4039-0.506204 11.9601 0.391324Z"
                     fill="currentColor" fill-opacity="0.85" />
              <path d="M7.73535 2.81132L15.0876 7.06937C16.444 7.85554 16.811 8.50632 16.811 10.0568L16.811 18.4666C16.811 20.754 15.1257 21.5275 13.1892 20.4106L12.5189 20.0236L12.5189 16.7809L13.8268 17.5545C13.8998 17.6033 13.9807 17.5516 13.9807 17.4764L13.9807 10.0557C13.9807 9.77009 13.9232 9.68559 13.6853 9.55227L7.28097 5.84479C7.20054 5.80112 7.12988 5.85225 7.12988 5.92522L7.12988 7.42633L4.2996 5.78628L4.2996 4.77634C4.2996 2.55632 6.18662 1.91149 7.73535 2.81132Z"
                     fill="currentColor" fill-opacity="0.85" />
              <path d="M12.5189 12.5355C12.5189 10.985 12.1421 10.3342 10.7954 9.55039L3.4432 5.29003C1.88701 4.38504 0 5.03503 0 7.24758L0 15.9164C0 17.3395 0.323358 17.9409 1.59374 18.6743L8.89703 22.8893C10.8261 24.0086 12.5189 23.2327 12.5189 20.9453ZM9.3932 12.0235C9.63109 12.1643 9.68113 12.2488 9.68113 12.5344L9.68113 19.9551C9.68113 20.0304 9.60762 20.0843 9.52719 20.0355L3.1159 16.2339C2.89578 16.1057 2.83774 15.9793 2.83774 15.7305L2.83774 8.40393C2.83774 8.33096 2.9061 8.28214 2.98137 8.31604Z"
                     fill="currentColor" fill-opacity="0.85" />
       </g>
</svg>