<?xml version="1.0" encoding="UTF-8"?>
<!--Generator: Apple Native CoreSVG 326-->
<!DOCTYPE svg PUBLIC "-//W3C//DTD SVG 1.1//EN" "http://www.w3.org/Graphics/SVG/1.1/DTD/svg11.dtd">
<svg version="1.1" xmlns="http://www.w3.org/2000/svg" xmlns:xlink="http://www.w3.org/1999/xlink"
       viewBox="0 0 23.8216 25.5152">
       <g>
              <rect height="25.5152" opacity="0" width="23.8216" x="0" y="0" />
              <path d="M22.2392 17.6004C22.2392 18.4933 21.7126 19.0635 20.7575 19.612L13.3297 23.9113C12.687 24.2818 12.2212 24.4833 11.729 24.4833C11.2391 24.4833 10.7785 24.2818 10.1307 23.9113L2.70283 19.612C1.74768 19.0635 1.22113 18.4933 1.22113 17.6004C1.22113 16.9072 1.54215 16.4076 2.13889 15.9575L11.2631 21.235C11.4291 21.3229 11.59 21.374 11.729 21.374C11.8703 21.374 12.0312 21.3229 12.1972 21.235L21.3214 15.9575C21.9182 16.4076 22.2392 16.9072 22.2392 17.6004Z"
                     fill="currentColor" fill-opacity="0.85" />
              <path d="M22.2392 12.8522C22.2392 13.7475 21.7126 14.3154 20.7575 14.8713L13.3297 19.1655C12.687 19.5359 12.2212 19.7375 11.729 19.7375C11.2391 19.7375 10.7785 19.5359 10.1307 19.1655L2.70283 14.8713C1.74768 14.3154 1.22113 13.7475 1.22113 12.8522C1.22113 12.1588 1.5424 11.6605 2.13958 11.2097L11.2631 16.4869C11.4291 16.5748 11.59 16.6259 11.729 16.6259C11.8703 16.6259 12.0312 16.5748 12.1972 16.4869L21.3207 11.2097C21.9179 11.6605 22.2392 12.1588 22.2392 12.8522Z"
                     fill="currentColor" fill-opacity="0.85" />
              <path d="M2.70283 9.97495L10.1307 14.2668C10.7785 14.6447 11.2391 14.8462 11.729 14.8462C12.2212 14.8462 12.687 14.6447 13.3297 14.2668L20.7575 9.97495C21.7126 9.42644 22.2392 8.84875 22.2392 7.96099C22.2392 7.07553 21.7126 6.5053 20.7575 5.94933L13.3297 1.65749C12.687 1.28706 12.2212 1.07804 11.729 1.07804C11.2391 1.07804 10.7785 1.28706 10.1307 1.65749L2.70283 5.94933C1.74768 6.5053 1.22113 7.07553 1.22113 7.96099C1.22113 8.84875 1.74768 9.42644 2.70283 9.97495ZM5.10615 8.05118C5.03088 8.00981 5.03088 7.91446 5.10615 7.87309L11.2844 4.33151C11.4504 4.24362 11.5923 4.19479 11.729 4.19479C11.868 4.19479 12.0174 4.24362 12.1759 4.33151L18.3542 7.87309C18.4369 7.91446 18.4369 8.00981 18.3542 8.05118L12.1759 11.5928C12.0174 11.6807 11.8703 11.7369 11.729 11.7369C11.59 11.7369 11.4504 11.6807 11.2844 11.5928Z"
                     fill="currentColor" fill-opacity="0.85" />
       </g>
</svg>