<?xml version="1.0" encoding="UTF-8"?>
<!--Generator: Apple Native CoreSVG 326-->
<!DOCTYPE svg PUBLIC "-//W3C//DTD SVG 1.1//EN" "http://www.w3.org/Graphics/SVG/1.1/DTD/svg11.dtd">
<svg version="1.1" xmlns="http://www.w3.org/2000/svg" xmlns:xlink="http://www.w3.org/1999/xlink"
       viewBox="0 0 19.39 19.0482">
       <g>
              <rect height="19.0482" opacity="0" width="19.39" x="0" y="0" />
              <path d="M3.94604 14.0408C3.94604 14.6588 4.35323 15.0683 4.96373 15.0683L14.0822 15.0683C14.7002 15.0683 15.1074 14.6588 15.1074 14.0408L15.1074 4.99533C15.1074 4.37737 14.7002 3.97018 14.0822 3.97018L4.96373 3.97018C4.35323 3.97018 3.94604 4.37737 3.94604 4.99533ZM6.5255 12.2131L6.5255 6.82539C6.5255 6.65531 6.61624 6.55711 6.80125 6.55711L12.2522 6.55711C12.4297 6.55711 12.5204 6.65531 12.5204 6.82539L12.5204 12.2131C12.5204 12.3809 12.4297 12.4814 12.2522 12.4814L6.80125 12.4814C6.61624 12.4814 6.5255 12.3809 6.5255 12.2131Z"
                     fill="currentColor" fill-opacity="0.85" />
              <path d="M1.11359 19.0482C1.72924 19.0482 2.22717 18.5406 2.22717 17.9347C2.22717 17.319 1.72924 16.8211 1.11359 16.8211C0.497926 16.8211 0 17.319 0 17.9347C0 18.5406 0.497926 19.0482 1.11359 19.0482ZM1.11359 16.2243C1.72924 16.2243 2.22717 15.7264 2.22717 15.1108C2.22717 14.5026 1.72924 14.0046 1.11359 14.0046C0.497926 14.0046 0 14.5026 0 15.1108C0 15.7264 0.497926 16.2243 1.11359 16.2243ZM1.11359 13.4372C1.72924 13.4372 2.22717 12.9393 2.22717 12.3236C2.22717 11.708 1.72924 11.21 1.11359 11.21C0.497926 11.21 0 11.708 0 12.3236C0 12.9393 0.497926 13.4372 1.11359 13.4372ZM1.11359 10.6328C1.72924 10.6328 2.22717 10.1349 2.22717 9.51924C2.22717 8.90358 1.72924 8.40566 1.11359 8.40566C0.497926 8.40566 0 8.90358 0 9.51924C0 10.1349 0.497926 10.6328 1.11359 10.6328ZM1.11359 7.82615C1.72924 7.82615 2.22717 7.32822 2.22717 6.71487C2.22717 6.09921 1.72924 5.60128 1.11359 5.60128C0.497926 5.60128 0 6.09921 0 6.71487C0 7.32822 0.497926 7.82615 1.11359 7.82615ZM1.11359 5.04361C1.72924 5.04361 2.22717 4.54569 2.22717 3.93749C2.22717 3.32183 1.72924 2.8239 1.11359 2.8239C0.497926 2.8239 0 3.32183 0 3.93749C0 4.54569 0.497926 5.04361 1.11359 5.04361ZM1.11359 2.2467C1.72924 2.2467 2.22717 1.74132 2.22717 1.13312C2.22717 0.517457 1.72924 0.0195312 1.11359 0.0195312C0.497926 0.0195312 0 0.517457 0 1.13312C0 1.74132 0.497926 2.2467 1.11359 2.2467ZM3.91796 2.2467C4.53362 2.2467 5.03154 1.74132 5.03154 1.13312C5.03154 0.517457 4.53362 0.0195312 3.91796 0.0195312C3.3023 0.0195312 2.80437 0.517457 2.80437 1.13312C2.80437 1.74132 3.3023 2.2467 3.91796 2.2467ZM6.71256 2.2467C7.32076 2.2467 7.81869 1.74132 7.81869 1.13312C7.81869 0.517457 7.32076 0.0195312 6.71256 0.0195312C6.0969 0.0195312 5.59898 0.517457 5.59898 1.13312C5.59898 1.74132 6.0969 2.2467 6.71256 2.2467ZM9.50948 2.2467C10.1251 2.2467 10.6231 1.74132 10.6231 1.13312C10.6231 0.517457 10.1251 0.0195312 9.50948 0.0195312C8.90358 0.0195312 8.40335 0.517457 8.40335 1.13312C8.40335 1.74132 8.90358 2.2467 9.50948 2.2467ZM12.3162 2.2467C12.9295 2.2467 13.4297 1.74132 13.4297 1.13312C13.4297 0.517457 12.9295 0.0195312 12.3162 0.0195312C11.708 0.0195312 11.2026 0.517457 11.2026 1.13312C11.2026 1.74132 11.708 2.2467 12.3162 2.2467ZM15.1108 2.2467C15.7241 2.2467 16.222 1.74132 16.222 1.13312C16.222 0.517457 15.7241 0.0195312 15.1108 0.0195312C14.4951 0.0195312 13.9972 0.517457 13.9972 1.13312C13.9972 1.74132 14.4951 2.2467 15.1108 2.2467ZM17.9151 2.2467C18.5308 2.2467 19.0287 1.74132 19.0287 1.13312C19.0287 0.517457 18.5308 0.0195312 17.9151 0.0195312C17.2995 0.0195312 16.8015 0.517457 16.8015 1.13312C16.8015 1.74132 17.2995 2.2467 17.9151 2.2467ZM17.9151 5.06084C18.5308 5.06084 19.0287 4.56291 19.0287 3.94725C19.0287 3.3316 18.5308 2.83367 17.9151 2.83367C17.2995 2.83367 16.8015 3.3316 16.8015 3.94725C16.8015 4.56291 17.2995 5.06084 17.9151 5.06084ZM17.9151 7.83592C18.5308 7.83592 19.0287 7.33799 19.0287 6.72463C19.0287 6.10898 18.5308 5.61105 17.9151 5.61105C17.2995 5.61105 16.8015 6.10898 16.8015 6.72463C16.8015 7.33799 17.2995 7.83592 17.9151 7.83592ZM17.9151 10.6426C18.5308 10.6426 19.0287 10.1447 19.0287 9.52901C19.0287 8.91335 18.5308 8.41542 17.9151 8.41542C17.2995 8.41542 16.8015 8.91335 16.8015 9.52901C16.8015 10.1447 17.2995 10.6426 17.9151 10.6426ZM17.9151 13.447C18.5308 13.447 19.0287 12.949 19.0287 12.3334C19.0287 11.7177 18.5308 11.2198 17.9151 11.2198C17.2995 11.2198 16.8015 11.7177 16.8015 12.3334C16.8015 12.949 17.2995 13.447 17.9151 13.447ZM17.9151 16.2416C18.5308 16.2416 19.0287 15.7362 19.0287 15.128C19.0287 14.5123 18.5308 14.0144 17.9151 14.0144C17.2995 14.0144 16.8015 14.5123 16.8015 15.128C16.8015 15.7362 17.2995 16.2416 17.9151 16.2416ZM17.9151 19.0482C18.5308 19.0482 19.0287 18.5406 19.0287 17.9347C19.0287 17.319 18.5308 16.8211 17.9151 16.8211C17.2995 16.8211 16.8015 17.319 16.8015 17.9347C16.8015 18.5406 17.2995 19.0482 17.9151 19.0482ZM15.1108 19.0482C15.7241 19.0482 16.222 18.5406 16.222 17.9347C16.222 17.319 15.7241 16.8211 15.1108 16.8211C14.4951 16.8211 13.9972 17.319 13.9972 17.9347C13.9972 18.5406 14.4951 19.0482 15.1108 19.0482ZM12.3162 19.0482C12.9295 19.0482 13.4297 18.5406 13.4297 17.9347C13.4297 17.319 12.9295 16.8211 12.3162 16.8211C11.708 16.8211 11.2026 17.319 11.2026 17.9347C11.2026 18.5406 11.708 19.0482 12.3162 19.0482ZM9.50948 19.0482C10.1251 19.0482 10.6231 18.5406 10.6231 17.9347C10.6231 17.319 10.1251 16.8211 9.50948 16.8211C8.90358 16.8211 8.40335 17.319 8.40335 17.9347C8.40335 18.5406 8.90358 19.0482 9.50948 19.0482ZM6.71256 19.0482C7.32076 19.0482 7.81869 18.5406 7.81869 17.9347C7.81869 17.319 7.32076 16.8211 6.71256 16.8211C6.0969 16.8211 5.59898 17.319 5.59898 17.9347C5.59898 18.5406 6.0969 19.0482 6.71256 19.0482ZM3.91796 19.0482C4.53362 19.0482 5.03154 18.5406 5.03154 17.9347C5.03154 17.319 4.53362 16.8211 3.91796 16.8211C3.3023 16.8211 2.80437 17.319 2.80437 17.9347C2.80437 18.5406 3.3023 19.0482 3.91796 19.0482Z"
                     fill="currentColor" fill-opacity="0.85" />
       </g>
</svg>