<?xml version="1.0" encoding="UTF-8"?>
<!--Generator: Apple Native CoreSVG 326-->
<!DOCTYPE svg PUBLIC "-//W3C//DTD SVG 1.1//EN" "http://www.w3.org/Graphics/SVG/1.1/DTD/svg11.dtd">
<svg version="1.1" xmlns="http://www.w3.org/2000/svg" xmlns:xlink="http://www.w3.org/1999/xlink"
       viewBox="0 0 21.3817 23.5367">
       <g>
              <rect height="23.5367" opacity="0" width="21.3817" x="0" y="0" />
              <path d="M19.5363 14.6398C20.4915 15.1883 21.0204 15.7585 21.0204 16.6514C21.0204 17.5392 20.4915 18.1094 19.5363 18.6654L12.1085 22.9572C11.4682 23.3277 10.9978 23.5367 10.5102 23.5367C10.0203 23.5367 9.55964 23.3277 8.91183 22.9572L1.48171 18.6654C0.526556 18.1094 0 17.5392 0 16.6514C0 15.7585 0.526556 15.1883 1.48171 14.6398L2.10643 14.2783L8.91183 18.2114C9.55964 18.5818 10.0203 18.7908 10.5102 18.7908C10.9978 18.7908 11.4682 18.5818 12.1085 18.2114L18.9118 14.2783Z"
                     fill="currentColor" fill-opacity="0.85" />
              <path d="M19.5363 9.89161C20.4915 10.4424 21.0204 11.0178 21.0204 11.9056C21.0204 12.7933 20.4915 13.3613 19.5363 13.9172L12.1085 18.2114C11.4682 18.5818 10.9978 18.7908 10.5102 18.7908C10.0203 18.7908 9.55964 18.5818 8.91183 18.2114L1.48171 13.9172C0.526556 13.3613 0 12.7933 0 11.9056C0 11.0178 0.526556 10.4424 1.48171 9.89161L2.26518 9.43827L5.12216 11.0885L3.82534 11.8154C3.78628 11.8424 3.7719 11.8642 3.7719 11.9056C3.7719 11.9395 3.78628 11.9665 3.82534 11.9883L10.2199 15.5798C10.3412 15.6379 10.4182 15.6718 10.5102 15.6718C10.6021 15.6718 10.6792 15.6379 10.7981 15.5798L17.1927 11.9883C17.2341 11.9665 17.2485 11.9395 17.2485 11.9056C17.2485 11.8642 17.2341 11.8424 17.1927 11.8154L15.8965 11.0889L18.7531 9.43827Z"
                     fill="currentColor" fill-opacity="0.85" />
              <path d="M10.5102 13.857C10.9978 13.857 11.4682 13.6554 12.1085 13.2776L19.5363 8.98571C20.4915 8.4372 21.0204 7.85951 21.0204 6.97175C21.0204 6.08629 20.4915 5.51606 19.5363 4.96009L12.1085 0.668247C11.4682 0.297821 10.9978 0.0887996 10.5102 0.0887996C10.0203 0.0887996 9.55964 0.297821 8.91183 0.668247L1.48171 4.96009C0.526556 5.51606 0 6.08629 0 6.97175C0 7.85951 0.526556 8.4372 1.48171 8.98571L8.91183 13.2776C9.55964 13.6554 10.0203 13.857 10.5102 13.857ZM10.5102 10.7477C10.4182 10.7477 10.3412 10.7138 10.2199 10.6483L3.82534 7.06194C3.78628 7.03495 3.7719 7.01311 3.7719 6.97175C3.7719 6.93268 3.78628 6.91085 3.82534 6.88386L10.2199 3.29751C10.3412 3.232 10.4182 3.20555 10.5102 3.20555C10.6021 3.20555 10.6792 3.232 10.7981 3.29751L17.1927 6.88386C17.2341 6.91085 17.2485 6.93268 17.2485 6.97175C17.2485 7.01311 17.2341 7.03495 17.1927 7.06194L10.7981 10.6483C10.6792 10.7138 10.6021 10.7477 10.5102 10.7477Z"
                     fill="currentColor" fill-opacity="0.85" />
       </g>
</svg>