<?xml version="1.0" encoding="UTF-8"?>
<!--Generator: Apple Native CoreSVG 326-->
<!DOCTYPE svg PUBLIC "-//W3C//DTD SVG 1.1//EN" "http://www.w3.org/Graphics/SVG/1.1/DTD/svg11.dtd">
<svg version="1.1" xmlns="http://www.w3.org/2000/svg" xmlns:xlink="http://www.w3.org/1999/xlink"
       viewBox="0 0 24.4271 24.3234">
       <g>
              <rect height="24.3234" opacity="0" width="24.4271" x="0" y="0" />
              <path d="M13.4739 0.798098L20.8262 5.05846C22.1751 5.84232 22.5496 6.4931 22.5496 8.04589L22.5496 16.4608C22.5496 17.3092 22.3167 17.9501 21.924 18.3621L18.4563 14.8975L19.5579 15.551C19.6383 15.5999 19.7119 15.5482 19.7119 15.4655L19.7119 8.0448C19.7119 7.75917 19.6618 7.67468 19.4239 7.54136L13.0196 3.83388C12.9391 3.7902 12.8685 3.83903 12.8685 3.92177L12.8685 5.31135L10.0307 3.66672L10.0307 2.76542C10.0307 0.5431 11.9252-0.0994303 13.4739 0.798098Z"
                     fill="currentColor" fill-opacity="0.85" />
              <path d="M14.8521 17.6723L17.8185 20.6335C17.179 21.466 15.9971 21.5633 14.7053 20.8173L14.0327 20.4291L14.0327 17.1877ZM9.25664 3.21809L16.6037 7.47615C17.9578 8.26231 18.3271 8.91309 18.3271 10.4636L18.3271 14.7684L15.4969 11.9406L15.4969 10.4625C15.4969 10.1769 15.4371 10.0924 15.2066 9.95905L11.1856 7.63314L6.71701 3.1685C7.40602 2.6946 8.38309 2.71298 9.25664 3.21809Z"
                     fill="currentColor" fill-opacity="0.85" />
              <path d="M7.79758 10.6302L4.50266 8.72282C4.42223 8.68891 4.35156 8.73774 4.35156 8.81071L4.35156 16.1372C4.35156 16.3861 4.40961 16.5125 4.63719 16.6407L11.041 20.4423C11.1214 20.4911 11.195 20.4371 11.195 20.3619L11.195 14.0216L14.0327 16.8544L14.0327 21.3521C14.0327 23.6395 12.3474 24.4153 10.4109 23.296L3.10987 19.0811C1.84465 18.3477 1.51383 17.7463 1.51383 16.3232L1.51383 7.65436C1.51383 6.54426 1.99072 5.82751 2.66168 5.50338Z"
                     fill="currentColor" fill-opacity="0.85" />
              <path d="M21.5728 22.4135C21.9054 22.7363 22.4585 22.7512 22.7865 22.4135C23.1093 22.0758 23.119 21.5376 22.7865 21.1998L3.22081 1.65141C2.88308 1.31368 2.33742 1.31368 1.99738 1.65141C1.66941 1.97192 1.66941 2.53711 1.99738 2.86508Z"
                     fill="currentColor" fill-opacity="0.85" />
       </g>
</svg>