<?xml version="1.0" encoding="UTF-8"?>
<!--Generator: Apple Native CoreSVG 326-->
<!DOCTYPE svg PUBLIC "-//W3C//DTD SVG 1.1//EN" "http://www.w3.org/Graphics/SVG/1.1/DTD/svg11.dtd">
<svg version="1.1" xmlns="http://www.w3.org/2000/svg" xmlns:xlink="http://www.w3.org/1999/xlink"
       viewBox="0 0 24.1191 22.9522">
       <g>
              <rect height="22.9522" opacity="0" width="24.1191" x="0" y="0" />
              <path d="M19.5139 22.9188L20.898 22.9188C22.8493 22.9188 23.7578 22.0126 23.7578 20.0521L23.7578 18.6917C23.7578 16.7237 22.8493 15.8249 20.898 15.8249L19.5139 15.8249C17.5649 15.8249 16.6564 16.7237 16.6564 18.6917L16.6564 20.0521C16.6564 22.0126 17.5649 22.9188 19.5139 22.9188ZM19.5013 20.572C19.1618 20.572 19.0107 20.4111 19.0107 20.067L19.0107 18.6716C19.0107 18.3252 19.1618 18.1718 19.5013 18.1718L20.9083 18.1718C21.2524 18.1718 21.4035 18.3252 21.4035 18.6716L21.4035 20.067C21.4035 20.4111 21.2524 20.572 20.9083 20.572Z"
                     fill="currentColor" fill-opacity="0.85" />
              <path d="M11.1869 22.9188L12.5732 22.9188C14.5222 22.9188 15.4233 22.0126 15.4233 20.0521L15.4233 18.6917C15.4233 16.7237 14.5222 15.8249 12.5732 15.8249L11.1869 15.8249C9.23786 15.8249 8.32935 16.7237 8.32935 18.6917L8.32935 20.0521C8.32935 22.0126 9.23786 22.9188 11.1869 22.9188ZM11.1789 20.572C10.8348 20.572 10.6762 20.4111 10.6762 20.067L10.6762 18.6716C10.6762 18.3252 10.8348 18.1718 11.1789 18.1718L12.5835 18.1718C12.9253 18.1718 13.0764 18.3252 13.0764 18.6716L13.0764 20.067C13.0764 20.4111 12.9253 20.572 12.5835 20.572Z"
                     fill="currentColor" fill-opacity="0.85" />
              <path d="M2.85981 22.9188L4.23871 22.9188C6.18771 22.9188 7.09622 22.0126 7.09622 20.0521L7.09622 18.6917C7.09622 16.7237 6.18771 15.8249 4.23871 15.8249L2.85981 15.8249C0.910812 15.8249 0.00230491 16.7237 0.00230491 18.6917L0.00230491 20.0521C0.00230491 22.0126 0.910812 22.9188 2.85981 22.9188ZM2.8495 20.572C2.50024 20.572 2.34915 20.4111 2.34915 20.067L2.34915 18.6716C2.34915 18.3252 2.50024 18.1718 2.8495 18.1718L4.24671 18.1718C4.59597 18.1718 4.74937 18.3252 4.74937 18.6716L4.74937 20.067C4.74937 20.4111 4.59597 20.572 4.24671 20.572Z"
                     fill="currentColor" fill-opacity="0.85" />
              <path d="M1.13124 14.491L22.6265 14.491C23.3104 14.491 23.7578 14.0391 23.7578 13.3035C23.7578 12.5903 23.303 12.1137 22.6265 12.1137L1.13124 12.1137C0.445034 12.1137 0 12.5754 0 13.3035C0 14.054 0.437573 14.491 1.13124 14.491Z"
                     fill="currentColor" fill-opacity="0.85" />
              <path d="M19.5116 10.8052L20.8957 10.8052C22.8447 10.8052 23.7532 9.89664 23.7532 7.93612L23.7532 6.57797C23.7532 4.61744 22.8447 3.71124 20.8957 3.71124L19.5116 3.71124C17.5603 3.71124 16.6518 4.61744 16.6518 6.57797L16.6518 7.93612C16.6518 9.89664 17.5603 10.8052 19.5116 10.8052ZM19.499 8.45831C19.1572 8.45831 19.0061 8.30491 19.0061 7.95104L19.0061 6.56074C19.0061 6.21895 19.1572 6.05809 19.499 6.05809L20.906 6.05809C21.2478 6.05809 21.3989 6.21895 21.3989 6.56074L21.3989 7.95104C21.3989 8.30491 21.2478 8.45831 20.906 8.45831Z"
                     fill="currentColor" fill-opacity="0.85" />
              <path d="M11.1846 10.8052L12.5709 10.8052C14.5199 10.8052 15.421 9.89664 15.421 7.93612L15.421 6.57797C15.421 4.61744 14.5199 3.71124 12.5709 3.71124L11.1846 3.71124C9.23555 3.71124 8.32705 4.61744 8.32705 6.57797L8.32705 7.93612C8.32705 9.89664 9.23555 10.8052 11.1846 10.8052ZM11.1742 8.45831C10.8324 8.45831 10.6739 8.30491 10.6739 7.95104L10.6739 6.56074C10.6739 6.21895 10.8324 6.05809 11.1742 6.05809L12.5812 6.05809C12.923 6.05809 13.0741 6.21895 13.0741 6.56074L13.0741 7.95104C13.0741 8.30491 12.923 8.45831 12.5812 8.45831Z"
                     fill="currentColor" fill-opacity="0.85" />
              <path d="M2.85751 10.8052L4.2364 10.8052C6.1854 10.8052 7.09391 9.89664 7.09391 7.93612L7.09391 6.57797C7.09391 4.61744 6.1854 3.71124 4.2364 3.71124L2.85751 3.71124C0.908507 3.71124 0 4.61744 0 6.57797L0 7.93612C0 9.89664 0.908507 10.8052 2.85751 10.8052ZM2.8472 8.45831C2.49794 8.45831 2.34685 8.30491 2.34685 7.95104L2.34685 6.56074C2.34685 6.21895 2.49794 6.05809 2.8472 6.05809L4.24441 6.05809C4.59367 6.05809 4.74706 6.21895 4.74706 6.56074L4.74706 7.95104C4.74706 8.30491 4.59367 8.45831 4.24441 8.45831Z"
                     fill="currentColor" fill-opacity="0.85" />
              <path d="M1.13124 2.37736L22.6265 2.37736C23.3104 2.37736 23.7578 1.9231 23.7578 1.18753C23.7578 0.481791 23.303 0 22.6265 0L1.13124 0C0.445034 0 0 0.459409 0 1.18753C0 1.94548 0.437573 2.37736 1.13124 2.37736Z"
                     fill="currentColor" fill-opacity="0.85" />
       </g>
</svg>