<?xml version="1.0" encoding="UTF-8"?>
<!--Generator: Apple Native CoreSVG 326-->
<!DOCTYPE svg PUBLIC "-//W3C//DTD SVG 1.1//EN" "http://www.w3.org/Graphics/SVG/1.1/DTD/svg11.dtd">
<svg version="1.1" xmlns="http://www.w3.org/2000/svg" xmlns:xlink="http://www.w3.org/1999/xlink"
       viewBox="0 0 19.0308 28.0203">
       <g>
              <rect height="28.0203" opacity="0" width="19.0308" x="0" y="0" />
              <path d="M18.6695 12.4519L18.6695 21.7824C18.6695 24.1 17.3456 25.4215 15.0211 25.4215L3.64834 25.4215C1.32382 25.4215 0 24.1023 0 21.7824L0 12.4519C0 10.1245 1.32382 8.81278 3.64834 8.81278L6.15168 8.81278L6.15168 11.8324L4.05583 11.8324C3.37024 11.8324 3.01964 12.1411 3.01964 12.8732L3.01964 21.3536C3.01964 22.0857 3.37024 22.4019 4.05583 22.4019L14.6113 22.4019C15.2946 22.4019 15.6498 22.0857 15.6498 21.3536L15.6498 12.8732C15.6498 12.1411 15.2946 11.8324 14.6113 11.8324L12.5155 11.8324L12.5155 8.81278L15.0211 8.81278C17.3456 8.81278 18.6695 10.1268 18.6695 12.4519Z"
                     fill="currentColor" fill-opacity="0.85" />
              <path d="M9.33357 16.8424C10.0743 16.8424 10.652 16.2395 10.652 15.5458L10.652 6.1663L10.5337 4.74852L10.9388 5.51121L11.9653 6.60029C12.184 6.83861 12.4787 6.97642 12.8134 6.97642C13.3802 6.97642 13.9292 6.53424 13.9292 5.89741C13.9292 5.57065 13.8138 5.33234 13.5927 5.1187L10.3998 2.058C10.0553 1.72093 9.69533 1.59519 9.33357 1.59519C8.97413 1.59519 8.62159 1.72093 8.2673 2.058L5.07679 5.1187C4.86316 5.33234 4.73797 5.57065 4.73797 5.89741C4.73797 6.53424 5.2846 6.97642 5.85143 6.97642C6.18619 6.97642 6.4831 6.83861 6.70189 6.60029L7.73062 5.51121L8.13574 4.74852L8.01746 6.1663L8.01746 15.5458C8.01746 16.2395 8.59284 16.8424 9.33357 16.8424Z"
                     fill="currentColor" fill-opacity="0.85" />
       </g>
</svg>