<?xml version="1.0" encoding="UTF-8"?>
<!--Generator: Apple Native CoreSVG 326-->
<!DOCTYPE svg PUBLIC "-//W3C//DTD SVG 1.1//EN" "http://www.w3.org/Graphics/SVG/1.1/DTD/svg11.dtd">
<svg version="1.1" xmlns="http://www.w3.org/2000/svg" xmlns:xlink="http://www.w3.org/1999/xlink"
       viewBox="0 0 27.5268 18.0704">
       <g>
              <rect height="18.0704" opacity="0" width="27.5268" x="0" y="0" />
              <path d="M11.2296 17.6879L23.5401 17.6879C25.8583 17.6879 27.1654 16.3756 27.1654 14.0741L27.1654 3.9865C27.1654 1.68503 25.8583 0.372732 23.5401 0.372732L11.2296 0.372732C8.91602 0.372732 7.60657 1.68503 7.60657 3.9865L7.60657 14.0741C7.60657 16.3756 8.91602 17.6879 11.2296 17.6879ZM11.6371 14.6654C10.9653 14.6654 10.6216 14.3613 10.6216 13.643L10.6216 4.41758C10.6216 3.68953 10.9653 3.38777 11.6371 3.38777L23.1326 3.38777C23.8021 3.38777 24.1504 3.68953 24.1504 4.41758L24.1504 13.643C24.1504 14.3613 23.8021 14.6654 23.1326 14.6654Z"
                     fill="currentColor" fill-opacity="0.85" />
              <path d="M1.07659 4.55697L3.47808 4.55697C4.20268 4.55697 4.55697 4.18545 4.55697 3.50046L4.55697 1.0812C4.55697 0.369214 4.20268 0 3.47808 0L1.07659 0C0.356597 0 0 0.373824 0 1.0812L0 3.50046C0 4.18084 0.356597 4.55697 1.07659 4.55697ZM1.07659 11.3076L3.47808 11.3076C4.20268 11.3076 4.55697 10.9384 4.55697 10.2534L4.55697 7.83416C4.55697 7.11987 4.20268 6.75066 3.47808 6.75066L1.07659 6.75066C0.356597 6.75066 0 7.12448 0 7.83416L0 10.2534C0 10.9338 0.356597 11.3076 1.07659 11.3076ZM1.07659 18.0583L3.48038 18.0583C4.20268 18.0583 4.55697 17.6891 4.55697 17.0041L4.55697 14.5848C4.55697 13.8705 4.20268 13.5013 3.48038 13.5013L1.07659 13.5013C0.356597 13.5013 0 13.8751 0 14.5848L0 17.0041C0 17.6845 0.356597 18.0583 1.07659 18.0583Z"
                     fill="currentColor" fill-opacity="0.85" />
       </g>
</svg>