<?xml version="1.0" encoding="UTF-8"?>
<!--Generator: Apple Native CoreSVG 326-->
<!DOCTYPE svg PUBLIC "-//W3C//DTD SVG 1.1//EN" "http://www.w3.org/Graphics/SVG/1.1/DTD/svg11.dtd">
<svg version="1.1" xmlns="http://www.w3.org/2000/svg" xmlns:xlink="http://www.w3.org/1999/xlink"
       viewBox="0 0 19.0308 22.8274">
       <g>
              <rect height="22.8274" opacity="0" width="19.0308" x="0" y="0" />
              <path d="M3.64834 22.8274L15.0211 22.8274C17.3456 22.8274 18.6695 21.5059 18.6695 19.1882L18.6695 9.85546C18.6695 7.53039 17.3456 6.21634 15.0211 6.21634L3.64834 6.21634C1.32382 6.21634 0 7.52809 0 9.85546L0 19.1882C0 21.5082 1.32382 22.8274 3.64834 22.8274ZM9.33588 0.909115C10.0766 0.909115 10.652 1.5195 10.652 2.21316L10.652 11.5927L10.5337 13.0128L10.9388 12.2501L11.9676 11.161C12.1863 10.9227 12.4787 10.7849 12.8157 10.7849C13.3802 10.7849 13.9315 11.2248 13.9315 11.8639C13.9315 12.1907 13.8138 12.429 13.5927 12.6426L10.3998 15.7033C10.0553 16.0404 9.69533 16.1661 9.33588 16.1661C8.97413 16.1661 8.62159 16.0404 8.2696 15.7033L5.07679 12.6426C4.86316 12.429 4.73797 12.1907 4.73797 11.8639C4.73797 11.2248 5.2846 10.7849 5.85143 10.7849C6.1885 10.7849 6.4831 10.9227 6.70189 11.161L7.73062 12.2501L8.13574 13.0128L8.01746 11.5927L8.01746 2.21316C8.01746 1.5195 8.59515 0.909115 9.33588 0.909115Z"
                     fill="currentColor" fill-opacity="0.85" />
       </g>
</svg>