<?xml version="1.0" encoding="UTF-8"?>
<!--Generator: Apple Native CoreSVG 326-->
<!DOCTYPE svg PUBLIC "-//W3C//DTD SVG 1.1//EN" "http://www.w3.org/Graphics/SVG/1.1/DTD/svg11.dtd">
<svg version="1.1" xmlns="http://www.w3.org/2000/svg" xmlns:xlink="http://www.w3.org/1999/xlink"
       viewBox="0 0 19.3993 19.0425">
       <g>
              <rect height="19.0425" opacity="0" width="19.3993" x="0" y="0" />
              <path d="M1.18898 8.10328L1.18898 10.9513L17.8312 10.9513L17.8312 8.10328ZM0 3.65811L0 15.3942C0 17.7262 1.32151 19.0425 3.63912 19.0425L15.3988 19.0425C17.7164 19.0425 19.0379 17.7262 19.0379 15.3942L19.0379 3.65811C19.0379 1.32843 17.7187 0.00460982 15.3988 0.00460982L3.63912 0.00460982C1.31921 0.00460982 0 1.32843 0 3.65811ZM3.01964 4.0679C3.01964 3.37485 3.32832 3.02425 4.0679 3.02425L14.97 3.02425C15.7096 3.02425 16.0183 3.37485 16.0183 4.0679L16.0183 14.9844C16.0183 15.6677 15.7096 16.0229 14.97 16.0229L4.0679 16.0229C3.32832 16.0229 3.01964 15.6677 3.01964 14.9844Z"
                     fill="currentColor" fill-opacity="0.85" />
       </g>
</svg>