<?xml version="1.0" encoding="UTF-8"?>
<!--Generator: Apple Native CoreSVG 326-->
<!DOCTYPE svg PUBLIC "-//W3C//DTD SVG 1.1//EN" "http://www.w3.org/Graphics/SVG/1.1/DTD/svg11.dtd">
<svg version="1.1" xmlns="http://www.w3.org/2000/svg" xmlns:xlink="http://www.w3.org/1999/xlink"
       viewBox="0 0 21.365 21.006">
       <g>
              <rect height="21.006" opacity="0" width="21.365" x="0" y="0" />
              <path d="M10.4981 20.9962C16.302 20.9962 21.0037 16.2946 21.0037 10.4981C21.0037 4.70163 16.302 0 10.4981 0C4.70163 0 0 4.70163 0 10.4981C0 16.2946 4.70163 20.9962 10.4981 20.9962ZM10.4981 17.9484C6.37829 17.9484 3.04785 14.6179 3.04785 10.4981C3.04785 6.37829 6.37829 3.04785 10.4981 3.04785C14.6179 3.04785 17.9558 6.37829 17.9558 10.4981C17.9558 14.6179 14.6179 17.9484 10.4981 17.9484Z"
                     fill="currentColor" fill-opacity="0.85" />
              <path d="M7.72619 15.0421L13.077 15.0421C13.9772 15.0421 14.6332 14.3512 14.6332 13.3516L14.6332 8.59939L13.3214 9.91345L13.3214 13.2953C13.3214 13.558 13.2087 13.728 13.0673 13.728L7.73595 13.728C7.49509 13.728 7.33017 13.558 7.33017 13.2953L7.33017 8.16958C7.33017 7.89196 7.49509 7.72704 7.73595 7.72704L11.2011 7.72704L12.5226 6.40552L7.72619 6.40552C6.71681 6.40552 6.00865 7.11599 6.00865 8.10814L6.00865 13.3516C6.00865 14.3512 6.71681 15.0421 7.72619 15.0421ZM9.37045 12.0306L10.3493 11.6279L14.3692 7.60809L13.4524 6.71833L9.45725 10.7382L9.00803 11.6585C8.8903 11.8836 9.1476 12.1363 9.37045 12.0306ZM14.8413 7.12848L15.2962 6.63966C15.4887 6.41505 15.5013 6.08478 15.3009 5.882L15.1739 5.75966C14.9562 5.53966 14.6064 5.57411 14.3916 5.77173L13.9418 6.21919Z"
                     fill="currentColor" fill-opacity="0.85" />
       </g>
</svg>