<?xml version="1.0" encoding="UTF-8"?>
<!--Generator: Apple Native CoreSVG 326-->
<!DOCTYPE svg PUBLIC "-//W3C//DTD SVG 1.1//EN" "http://www.w3.org/Graphics/SVG/1.1/DTD/svg11.dtd">
<svg version="1.1" xmlns="http://www.w3.org/2000/svg" xmlns:xlink="http://www.w3.org/1999/xlink"
       viewBox="0 0 19.5147 19.1608">
       <g>
              <rect height="19.1608" opacity="0" width="19.5147" x="0" y="0" />
              <path d="M1.17558 2.35115C1.82108 2.35115 2.35115 1.82108 2.35115 1.17558C2.35115 0.530074 1.82108 0 1.17558 0C0.530074 0 0 0.530074 0 1.17558C0 1.82108 0.530074 2.35115 1.17558 2.35115ZM3.97479 2.35115C4.6226 2.35115 5.15037 1.82108 5.15037 1.17558C5.15037 0.530074 4.6226 0 3.97479 0C3.32929 0 2.79922 0.530074 2.79922 1.17558C2.79922 1.82108 3.32929 2.35115 3.97479 2.35115ZM6.77631 2.35115C7.42182 2.35115 7.95189 1.82108 7.95189 1.17558C7.95189 0.530074 7.42182 0 6.77631 0C6.13081 0 5.60074 0.530074 5.60074 1.17558C5.60074 1.82108 6.13081 2.35115 6.77631 2.35115ZM9.57553 2.35115C10.221 2.35115 10.7511 1.82108 10.7511 1.17558C10.7511 0.530074 10.221 0 9.57553 0C8.93003 0 8.39995 0.530074 8.39995 1.17558C8.39995 1.82108 8.93003 2.35115 9.57553 2.35115ZM12.3771 2.35115C13.0226 2.35115 13.5526 1.82108 13.5526 1.17558C13.5526 0.530074 13.0226 0 12.3771 0C11.7315 0 11.2015 0.530074 11.2015 1.17558C11.2015 1.82108 11.7315 2.35115 12.3771 2.35115ZM15.1763 2.35115C15.8218 2.35115 16.3518 1.82108 16.3518 1.17558C16.3518 0.530074 15.8218 0 15.1763 0C14.5308 0 14.0007 0.530074 14.0007 1.17558C14.0007 1.82108 14.5308 2.35115 15.1763 2.35115ZM17.9778 2.35115C18.6233 2.35115 19.1534 1.82108 19.1534 1.17558C19.1534 0.530074 18.6233 0 17.9778 0C17.3323 0 16.8022 0.530074 16.8022 1.17558C16.8022 1.82108 17.3323 2.35115 17.9778 2.35115ZM17.9778 5.15037C18.6233 5.15037 19.1534 4.62029 19.1534 3.97479C19.1534 3.32929 18.6233 2.79922 17.9778 2.79922C17.3323 2.79922 16.8022 3.32929 16.8022 3.97479C16.8022 4.62029 17.3323 5.15037 17.9778 5.15037ZM17.9778 7.94958C18.6233 7.94958 19.1534 7.42182 19.1534 6.77401C19.1534 6.12851 18.6233 5.59843 17.9778 5.59843C17.3323 5.59843 16.8022 6.12851 16.8022 6.77401C16.8022 7.42182 17.3323 7.94958 17.9778 7.94958ZM17.9778 10.7511C18.6233 10.7511 19.1534 10.221 19.1534 9.57553C19.1534 8.93003 18.6233 8.39995 17.9778 8.39995C17.3323 8.39995 16.8022 8.93003 16.8022 9.57553C16.8022 10.221 17.3323 10.7511 17.9778 10.7511ZM17.9778 13.5503C18.6233 13.5503 19.1534 13.0202 19.1534 12.3747C19.1534 11.7292 18.6233 11.1992 17.9778 11.1992C17.3323 11.1992 16.8022 11.7292 16.8022 12.3747C16.8022 13.0202 17.3323 13.5503 17.9778 13.5503ZM17.9778 16.3518C18.6233 16.3518 19.1534 15.8218 19.1534 15.1763C19.1534 14.5308 18.6233 14.0007 17.9778 14.0007C17.3323 14.0007 16.8022 14.5308 16.8022 15.1763C16.8022 15.8218 17.3323 16.3518 17.9778 16.3518ZM17.9778 19.1511C18.6233 19.1511 19.1534 18.621 19.1534 17.9755C19.1534 17.33 18.6233 16.7999 17.9778 16.7999C17.3323 16.7999 16.8022 17.33 16.8022 17.9755C16.8022 18.621 17.3323 19.1511 17.9778 19.1511ZM15.1763 19.1511C15.8218 19.1511 16.3518 18.621 16.3518 17.9755C16.3518 17.33 15.8218 16.7999 15.1763 16.7999C14.5308 16.7999 14.0007 17.33 14.0007 17.9755C14.0007 18.621 14.5308 19.1511 15.1763 19.1511ZM12.3771 19.1511C13.0226 19.1511 13.5526 18.621 13.5526 17.9755C13.5526 17.33 13.0226 16.7999 12.3771 16.7999C11.7315 16.7999 11.2015 17.33 11.2015 17.9755C11.2015 18.621 11.7315 19.1511 12.3771 19.1511ZM9.57553 19.1511C10.221 19.1511 10.7511 18.621 10.7511 17.9755C10.7511 17.33 10.221 16.7999 9.57553 16.7999C8.93003 16.7999 8.39995 17.33 8.39995 17.9755C8.39995 18.621 8.93003 19.1511 9.57553 19.1511ZM6.77631 19.1511C7.42182 19.1511 7.95189 18.621 7.95189 17.9755C7.95189 17.33 7.42182 16.7999 6.77631 16.7999C6.13081 16.7999 5.60074 17.33 5.60074 17.9755C5.60074 18.621 6.13081 19.1511 6.77631 19.1511ZM3.97479 19.1511C4.6226 19.1511 5.15037 18.621 5.15037 17.9755C5.15037 17.33 4.6226 16.7999 3.97479 16.7999C3.32929 16.7999 2.79922 17.33 2.79922 17.9755C2.79922 18.621 3.32929 19.1511 3.97479 19.1511ZM1.17558 19.1511C1.82108 19.1511 2.35115 18.621 2.35115 17.9755C2.35115 17.33 1.82108 16.7999 1.17558 16.7999C0.530074 16.7999 0 17.33 0 17.9755C0 18.621 0.530074 19.1511 1.17558 19.1511ZM1.17558 16.3518C1.82108 16.3518 2.35115 15.8218 2.35115 15.1763C2.35115 14.5308 1.82108 14.0007 1.17558 14.0007C0.530074 14.0007 0 14.5308 0 15.1763C0 15.8218 0.530074 16.3518 1.17558 16.3518ZM1.17558 13.5503C1.82108 13.5503 2.35115 13.0202 2.35115 12.3747C2.35115 11.7292 1.82108 11.1992 1.17558 11.1992C0.530074 11.1992 0 11.7292 0 12.3747C0 13.0202 0.530074 13.5503 1.17558 13.5503ZM1.17558 10.7511C1.82108 10.7511 2.35115 10.221 2.35115 9.57553C2.35115 8.93003 1.82108 8.39995 1.17558 8.39995C0.530074 8.39995 0 8.93003 0 9.57553C0 10.221 0.530074 10.7511 1.17558 10.7511ZM1.17558 7.94958C1.82108 7.94958 2.35115 7.42182 2.35115 6.77401C2.35115 6.12851 1.82108 5.59843 1.17558 5.59843C0.530074 5.59843 0 6.12851 0 6.77401C0 7.42182 0.530074 7.94958 1.17558 7.94958ZM1.17558 5.15037C1.82108 5.15037 2.35115 4.62029 2.35115 3.97479C2.35115 3.32929 1.82108 2.79922 1.17558 2.79922C0.530074 2.79922 0 3.32929 0 3.97479C0 4.62029 0.530074 5.15037 1.17558 5.15037ZM9.57553 5.15037C10.221 5.15037 10.7511 4.62029 10.7511 3.97479C10.7511 3.32929 10.221 2.79922 9.57553 2.79922C8.93003 2.79922 8.39995 3.32929 8.39995 3.97479C8.39995 4.62029 8.93003 5.15037 9.57553 5.15037ZM9.57553 7.94958C10.221 7.94958 10.7511 7.42182 10.7511 6.77401C10.7511 6.12851 10.221 5.59843 9.57553 5.59843C8.93003 5.59843 8.39995 6.12851 8.39995 6.77401C8.39995 7.42182 8.93003 7.94958 9.57553 7.94958ZM9.57553 10.7511C10.221 10.7511 10.7511 10.221 10.7511 9.57553C10.7511 8.93003 10.221 8.39995 9.57553 8.39995C8.93003 8.39995 8.39995 8.93003 8.39995 9.57553C8.39995 10.221 8.93003 10.7511 9.57553 10.7511ZM9.57553 13.5503C10.221 13.5503 10.7511 13.0202 10.7511 12.3747C10.7511 11.7292 10.221 11.1992 9.57553 11.1992C8.93003 11.1992 8.39995 11.7292 8.39995 12.3747C8.39995 13.0202 8.93003 13.5503 9.57553 13.5503ZM9.57553 16.3518C10.221 16.3518 10.7511 15.8218 10.7511 15.1763C10.7511 14.5308 10.221 14.0007 9.57553 14.0007C8.93003 14.0007 8.39995 14.5308 8.39995 15.1763C8.39995 15.8218 8.93003 16.3518 9.57553 16.3518ZM3.97479 10.7511C4.6226 10.7511 5.15037 10.221 5.15037 9.57553C5.15037 8.93003 4.6226 8.39995 3.97479 8.39995C3.32929 8.39995 2.79922 8.93003 2.79922 9.57553C2.79922 10.221 3.32929 10.7511 3.97479 10.7511ZM6.77631 10.7511C7.42182 10.7511 7.95189 10.221 7.95189 9.57553C7.95189 8.93003 7.42182 8.39995 6.77631 8.39995C6.13081 8.39995 5.60074 8.93003 5.60074 9.57553C5.60074 10.221 6.13081 10.7511 6.77631 10.7511ZM12.3771 10.7511C13.0226 10.7511 13.5526 10.221 13.5526 9.57553C13.5526 8.93003 13.0226 8.39995 12.3771 8.39995C11.7315 8.39995 11.2015 8.93003 11.2015 9.57553C11.2015 10.221 11.7315 10.7511 12.3771 10.7511ZM15.1763 10.7511C15.8218 10.7511 16.3518 10.221 16.3518 9.57553C16.3518 8.93003 15.8218 8.39995 15.1763 8.39995C14.5308 8.39995 14.0007 8.93003 14.0007 9.57553C14.0007 10.221 14.5308 10.7511 15.1763 10.7511Z"
                     fill="currentColor" fill-opacity="0.85" />
       </g>
</svg>