<?xml version="1.0" encoding="UTF-8"?>
<!--Generator: Apple Native CoreSVG 326-->
<!DOCTYPE svg PUBLIC "-//W3C//DTD SVG 1.1//EN" "http://www.w3.org/Graphics/SVG/1.1/DTD/svg11.dtd">
<svg version="1.1" xmlns="http://www.w3.org/2000/svg" xmlns:xlink="http://www.w3.org/1999/xlink"
       viewBox="0 0 21.365 21.006">
       <g>
              <rect height="21.006" opacity="0" width="21.365" x="0" y="0" />
              <path d="M21.0037 10.4981C21.0037 16.2946 16.302 20.9962 10.4981 20.9962C4.70163 20.9962 0 16.2946 0 10.4981C0 4.70163 4.70163 0 10.4981 0C16.302 0 21.0037 4.70163 21.0037 10.4981ZM3.04785 10.4981C3.04785 14.6179 6.37829 17.9484 10.4981 17.9484C14.6179 17.9484 17.9558 14.6179 17.9558 10.4981C17.9558 6.37829 14.6179 3.04785 10.4981 3.04785C6.37829 3.04785 3.04785 6.37829 3.04785 10.4981Z"
                     fill="currentColor" fill-opacity="0.85" />
              <path d="M14.6567 9.12662L14.6567 13.3666C14.6567 14.4362 14.0703 14.998 13.0207 14.998L7.97834 14.998C6.92365 14.998 6.33486 14.4339 6.33486 13.3666L6.33486 9.12662C6.33486 8.08169 6.90873 7.47513 7.97834 7.47513L9.1012 7.47513L9.1012 8.73005L7.9881 8.73005C7.73001 8.73005 7.58977 8.89267 7.58977 9.16798L7.58977 13.3373C7.58977 13.6201 7.73001 13.7678 7.9881 13.7678L13.0035 13.7678C13.2616 13.7678 13.4018 13.6178 13.4018 13.3373L13.4018 9.16798C13.4018 8.89267 13.2616 8.73005 13.0035 8.73005L11.8904 8.73005L11.8904 7.47513L13.0207 7.47513C14.0926 7.47513 14.6567 8.07939 14.6567 9.12662Z"
                     fill="currentColor" fill-opacity="0.85" />
              <path d="M10.4958 11.2944C10.8341 11.2944 11.1035 11.0371 11.1035 10.7063L11.1035 6.63032L10.9921 6.15641L11.3621 6.57809L11.5651 6.79087C11.6731 6.91607 11.8052 6.97236 12.0114 6.97236C12.3422 6.97236 12.5725 6.75181 12.5725 6.43076C12.5725 6.26134 12.511 6.12177 12.3812 6.00404L10.9271 4.61599C10.7876 4.47642 10.6354 4.40521 10.4958 4.40521C10.3539 4.40521 10.2092 4.47872 10.0696 4.61599L8.61037 6.00174C8.48057 6.12408 8.42143 6.26134 8.42143 6.43076C8.42143 6.75181 8.65174 6.97236 8.98541 6.97236C9.18412 6.97236 9.31623 6.91607 9.43396 6.79087L9.63467 6.57809L10.007 6.15641L9.89792 6.63032L9.89792 10.7063C9.89792 11.0371 10.165 11.2944 10.4958 11.2944Z"
                     fill="currentColor" fill-opacity="0.85" />
       </g>
</svg>