<?xml version="1.0" encoding="UTF-8"?>
<!--Generator: Apple Native CoreSVG 326-->
<!DOCTYPE svg PUBLIC "-//W3C//DTD SVG 1.1//EN" "http://www.w3.org/Graphics/SVG/1.1/DTD/svg11.dtd">
<svg version="1.1" xmlns="http://www.w3.org/2000/svg" xmlns:xlink="http://www.w3.org/1999/xlink"
       viewBox="0 0 19.3993 19.0529">
       <g>
              <rect height="19.0529" opacity="0" width="19.3993" x="0" y="0" />
              <path d="M19.0379 3.63912L19.0379 15.4011C19.0379 17.7262 17.7164 19.0379 15.3896 19.0379L3.64834 19.0379C1.32382 19.0379 0 17.7262 0 15.4011L0 3.63912C0 1.32151 1.32382 0 3.64834 0L15.3896 0C17.7164 0 19.0379 1.32151 19.0379 3.63912ZM4.56825 13.9406C4.13978 13.9406 3.82619 14.2714 3.82619 14.6803C3.82619 15.0795 4.13978 15.3954 4.56825 15.3954L11.6181 15.3954C12.0368 15.3954 12.3429 15.0795 12.3429 14.6803C12.3429 14.2714 12.0368 13.9406 11.6181 13.9406ZM4.56825 10.5709C4.13978 10.5709 3.82619 10.8793 3.82619 11.286C3.82619 11.7024 4.13978 12.0183 4.56825 12.0183L13.7635 12.0183C14.1724 12.0183 14.486 11.7024 14.486 11.286C14.486 10.8793 14.1724 10.5709 13.7635 10.5709ZM5.05653 3.15842C4.28232 3.15842 3.8567 3.59151 3.8567 4.37088L3.8567 6.42894C3.8567 7.20085 4.28232 7.63393 5.05653 7.63393L7.1249 7.63393C7.89912 7.63393 8.3322 7.20085 8.3322 6.42894L8.3322 4.37088C8.3322 3.59151 7.89912 3.15842 7.1249 3.15842Z"
                     fill="currentColor" fill-opacity="0.85" />
       </g>
</svg>