<?xml version="1.0" encoding="UTF-8"?>
<!--Generator: Apple Native CoreSVG 326-->
<!DOCTYPE svg PUBLIC "-//W3C//DTD SVG 1.1//EN" "http://www.w3.org/Graphics/SVG/1.1/DTD/svg11.dtd">
<svg version="1.1" xmlns="http://www.w3.org/2000/svg" xmlns:xlink="http://www.w3.org/1999/xlink"
       viewBox="0 0 19.3993 19.0575">
       <g>
              <rect height="19.0575" opacity="0" width="19.3993" x="0" y="0" />
              <path d="M0 18.0202C0 18.6308 0.409489 19.0379 1.02745 19.0379L18.0128 19.0379C18.6308 19.0379 19.0379 18.6308 19.0379 18.0202L19.0379 1.02745C19.0379 0.409489 18.6308 0 18.0128 0L1.02745 0C0.409489 0 0 0.409489 0 1.02745ZM3.01964 15.7575L3.01964 3.28793C3.01964 3.11269 3.11269 3.01964 3.28047 3.01964L15.7575 3.01964C15.9276 3.01964 16.0183 3.11269 16.0183 3.28793L16.0183 15.7575C16.0183 15.9276 15.9276 16.0183 15.7575 16.0183L3.28047 16.0183C3.11269 16.0183 3.01964 15.9276 3.01964 15.7575Z"
                     fill="currentColor" fill-opacity="0.85" />
              <path d="M5.34289 6.19766C5.82887 6.19766 6.21258 5.82141 6.21258 5.32797C6.21258 4.84199 5.82887 4.45828 5.34289 4.45828C4.85692 4.45828 4.47321 4.84199 4.47321 5.32797C4.47321 5.82141 4.85692 6.19766 5.34289 6.19766ZM7.43079 6.19766C7.92423 6.19766 8.30048 5.82141 8.30048 5.32797C8.30048 4.84199 7.92423 4.45828 7.43079 4.45828C6.94482 4.45828 6.56857 4.84199 6.56857 5.32797C6.56857 5.82141 6.94482 6.19766 7.43079 6.19766ZM9.52385 6.19766C10.0098 6.19766 10.3935 5.82141 10.3935 5.32797C10.3935 4.84199 10.0098 4.45828 9.52385 4.45828C9.03787 4.45828 8.65416 4.84199 8.65416 5.32797C8.65416 5.82141 9.03787 6.19766 9.52385 6.19766ZM11.6192 6.19766C12.1052 6.19766 12.4889 5.82141 12.4889 5.32797C12.4889 4.84199 12.1052 4.45828 11.6192 4.45828C11.1332 4.45828 10.7495 4.84199 10.7495 5.32797C10.7495 5.82141 11.1332 6.19766 11.6192 6.19766ZM13.7048 6.19766C14.2006 6.19766 14.5768 5.82141 14.5768 5.32797C14.5768 4.84199 14.2006 4.45828 13.7048 4.45828C13.2188 4.45828 12.8426 4.84199 12.8426 5.32797C12.8426 5.82141 13.2188 6.19766 13.7048 6.19766ZM13.7048 8.29071C14.2006 8.29071 14.5768 7.907 14.5768 7.42103C14.5768 6.93505 14.2006 6.55134 13.7048 6.55134C13.2188 6.55134 12.8426 6.93505 12.8426 7.42103C12.8426 7.907 13.2188 8.29071 13.7048 8.29071ZM13.7048 10.3861C14.2006 10.3861 14.5768 10.0024 14.5768 9.51639C14.5768 9.02295 14.2006 8.6467 13.7048 8.6467C13.2188 8.6467 12.8426 9.02295 12.8426 9.51639C12.8426 10.0024 13.2188 10.3861 13.7048 10.3861ZM13.7048 12.4717C14.2006 12.4717 14.5768 12.0954 14.5768 11.602C14.5768 11.116 14.2006 10.7323 13.7048 10.7323C13.2188 10.7323 12.8426 11.116 12.8426 11.602C12.8426 12.0954 13.2188 12.4717 13.7048 12.4717ZM13.7048 14.567C14.2006 14.567 14.5768 14.1833 14.5768 13.6974C14.5768 13.2114 14.2006 12.8277 13.7048 12.8277C13.2188 12.8277 12.8426 13.2114 12.8426 13.6974C12.8426 14.1833 13.2188 14.567 13.7048 14.567ZM11.6192 14.567C12.1052 14.567 12.4889 14.1833 12.4889 13.6974C12.4889 13.2114 12.1052 12.8277 11.6192 12.8277C11.1332 12.8277 10.7495 13.2114 10.7495 13.6974C10.7495 14.1833 11.1332 14.567 11.6192 14.567ZM9.52385 14.567C10.0098 14.567 10.3935 14.1833 10.3935 13.6974C10.3935 13.2114 10.0098 12.8277 9.52385 12.8277C9.03787 12.8277 8.65416 13.2114 8.65416 13.6974C8.65416 14.1833 9.03787 14.567 9.52385 14.567ZM7.43079 14.567C7.92423 14.567 8.30048 14.1833 8.30048 13.6974C8.30048 13.2114 7.92423 12.8277 7.43079 12.8277C6.94482 12.8277 6.56857 13.2114 6.56857 13.6974C6.56857 14.1833 6.94482 14.567 7.43079 14.567ZM5.34289 14.567C5.82887 14.567 6.21258 14.1833 6.21258 13.6974C6.21258 13.2114 5.82887 12.8277 5.34289 12.8277C4.85692 12.8277 4.47321 13.2114 4.47321 13.6974C4.47321 14.1833 4.85692 14.567 5.34289 14.567ZM5.34289 12.4717C5.82887 12.4717 6.21258 12.0954 6.21258 11.602C6.21258 11.116 5.82887 10.7323 5.34289 10.7323C4.85692 10.7323 4.47321 11.116 4.47321 11.602C4.47321 12.0954 4.85692 12.4717 5.34289 12.4717ZM5.34289 10.3861C5.82887 10.3861 6.21258 10.0024 6.21258 9.51639C6.21258 9.02295 5.82887 8.6467 5.34289 8.6467C4.85692 8.6467 4.47321 9.02295 4.47321 9.51639C4.47321 10.0024 4.85692 10.3861 5.34289 10.3861ZM5.34289 8.29071C5.82887 8.29071 6.21258 7.907 6.21258 7.42103C6.21258 6.93505 5.82887 6.55134 5.34289 6.55134C4.85692 6.55134 4.47321 6.93505 4.47321 7.42103C4.47321 7.907 4.85692 8.29071 5.34289 8.29071Z"
                     fill="currentColor" fill-opacity="0.85" />
       </g>
</svg>