<?xml version="1.0" encoding="UTF-8"?>
<!--Generator: Apple Native CoreSVG 326-->
<!DOCTYPE svg PUBLIC "-//W3C//DTD SVG 1.1//EN" "http://www.w3.org/Graphics/SVG/1.1/DTD/svg11.dtd">
<svg version="1.1" xmlns="http://www.w3.org/2000/svg" xmlns:xlink="http://www.w3.org/1999/xlink"
       viewBox="0 0 19.3993 19.0529">
       <g>
              <rect height="19.0529" opacity="0" width="19.3993" x="0" y="0" />
              <path d="M3.64834 19.0379L15.3896 19.0379C17.7164 19.0379 19.0379 17.7262 19.0379 15.4011L19.0379 3.63912C19.0379 1.32151 17.7164 0 15.3896 0L3.64834 0C1.32382 0 0 1.32151 0 3.63912L0 15.4011C0 17.7262 1.32382 19.0379 3.64834 19.0379ZM4.05583 16.0183C3.37024 16.0183 3.01964 15.7096 3.01964 14.9775L3.01964 4.07021C3.01964 3.33809 3.37024 3.0271 4.05583 3.0271L14.9821 3.0271C15.6654 3.0271 16.0183 3.33809 16.0183 4.07021L16.0183 14.9775C16.0183 15.7096 15.6654 16.0183 14.9821 16.0183Z"
                     fill="currentColor" fill-opacity="0.85" />
              <path d="M4.34504 6.4902C4.34504 6.9325 4.63855 7.22602 5.08086 7.22602L6.46551 7.22602C6.92274 7.22602 7.21625 6.9325 7.21625 6.4902L7.21625 5.08086C7.21625 4.64601 6.92274 4.3525 6.46551 4.3525L5.08086 4.3525C4.63855 4.3525 4.34504 4.64601 4.34504 5.08086ZM8.09686 6.4902C8.09686 6.9325 8.39037 7.22602 8.84014 7.22602L10.2248 7.22602C10.6694 7.22602 10.9704 6.9325 10.9704 6.4902L10.9704 5.08086C10.9704 4.63855 10.6694 4.3525 10.2248 4.3525L8.84014 4.3525C8.39037 4.3525 8.09686 4.63855 8.09686 5.08086ZM11.8314 6.4902C11.8314 6.9325 12.125 7.22602 12.5822 7.22602L13.9668 7.22602C14.4091 7.22602 14.7101 6.9325 14.7101 6.4902L14.7101 5.08086C14.7101 4.64601 14.4091 4.3525 13.9668 4.3525L12.5822 4.3525C12.125 4.3525 11.8314 4.64601 11.8314 5.08086ZM4.34504 10.2323C4.34504 10.6746 4.63855 10.9606 5.08086 10.9606L6.46551 10.9606C6.92274 10.9606 7.21625 10.6746 7.21625 10.2323L7.21625 8.82291C7.21625 8.38061 6.92274 8.09455 6.46551 8.09455L5.08086 8.09455C4.63855 8.09455 4.34504 8.38061 4.34504 8.82291ZM8.09686 10.2323C8.09686 10.6746 8.38291 10.9606 8.84014 10.9606L10.2248 10.9606C10.6843 10.9606 10.9704 10.6746 10.9704 10.2323L10.9704 8.82291C10.9704 8.38061 10.6843 8.09455 10.2248 8.09455L8.84014 8.09455C8.38291 8.09455 8.09686 8.38061 8.09686 8.82291ZM11.8314 10.2323C11.8314 10.6746 12.125 10.9606 12.5822 10.9606L13.9668 10.9606C14.4091 10.9606 14.7101 10.6746 14.7101 10.2323L14.7101 8.82291C14.7101 8.38061 14.4091 8.09455 13.9668 8.09455L12.5822 8.09455C12.125 8.09455 11.8314 8.38061 11.8314 8.82291ZM4.34504 13.9743C4.34504 14.4091 4.63855 14.7027 5.08086 14.7027L6.46551 14.7027C6.92274 14.7027 7.21625 14.4091 7.21625 13.9743L7.21625 12.565C7.21625 12.1227 6.92274 11.8291 6.46551 11.8291L5.08086 11.8291C4.63855 11.8291 4.34504 12.1227 4.34504 12.565ZM8.09686 13.9743C8.09686 14.4166 8.39037 14.7027 8.84014 14.7027L10.2248 14.7027C10.6694 14.7027 10.9704 14.4166 10.9704 13.9743L10.9704 12.565C10.9704 12.1227 10.6694 11.8291 10.2248 11.8291L8.84014 11.8291C8.39037 11.8291 8.09686 12.1227 8.09686 12.565ZM11.8314 13.9743C11.8314 14.4091 12.125 14.7027 12.5822 14.7027L13.9668 14.7027C14.4091 14.7027 14.7101 14.4091 14.7101 13.9743L14.7101 12.565C14.7101 12.1227 14.4091 11.8291 13.9668 11.8291L12.5822 11.8291C12.125 11.8291 11.8314 12.1227 11.8314 12.565Z"
                     fill="currentColor" fill-opacity="0.85" />
       </g>
</svg>