<?xml version="1.0" encoding="UTF-8"?>
<!--Generator: Apple Native CoreSVG 326-->
<!DOCTYPE svg PUBLIC "-//W3C//DTD SVG 1.1//EN" "http://www.w3.org/Graphics/SVG/1.1/DTD/svg11.dtd">
<svg version="1.1" xmlns="http://www.w3.org/2000/svg" xmlns:xlink="http://www.w3.org/1999/xlink"
       viewBox="0 0 25.1183 23.8722">
       <g>
              <rect height="23.8722" opacity="0" width="25.1183" x="0" y="0" />
              <path d="M17.8332 5.74844L14.5824 5.74844C13.4577 4.02588 11.5124 2.90937 9.26121 2.90937C5.70355 2.90937 2.90191 5.70586 2.90191 9.26867C2.90191 11.8496 4.37632 14.0326 6.54788 15.0305L6.54788 18.1245C2.7552 16.9672 0 13.4418 0 9.26867C0 4.151 4.14354 0 9.26121 0C13.1322 0 16.45 2.37487 17.8332 5.74844Z"
                     fill="currentColor" fill-opacity="0.85" />
              <path d="M10.1962 23.2228L20.3665 23.2228C22.6887 23.2228 24.0148 21.9013 24.0148 19.5837L24.0148 9.38756C24.0148 7.06995 22.6887 5.74844 20.3665 5.74844L10.1962 5.74844C7.8717 5.74844 6.54788 7.06995 6.54788 9.38756L6.54788 19.5837C6.54788 21.9013 7.8717 23.2228 10.1962 23.2228ZM10.606 20.2032C9.92042 20.2032 9.56753 19.8848 9.56753 19.1526L9.56753 9.81864C9.56753 9.08652 9.92042 8.77554 10.606 8.77554L19.9567 8.77554C20.6423 8.77554 20.9952 9.08652 20.9952 9.81864L20.9952 19.1526C20.9952 19.8848 20.6423 20.2032 19.9567 20.2032Z"
                     fill="currentColor" fill-opacity="0.85" />
       </g>
</svg>