<?xml version="1.0" encoding="UTF-8"?>
<!--Generator: Apple Native CoreSVG 326-->
<!DOCTYPE svg PUBLIC "-//W3C//DTD SVG 1.1//EN" "http://www.w3.org/Graphics/SVG/1.1/DTD/svg11.dtd">
<svg version="1.1" xmlns="http://www.w3.org/2000/svg" xmlns:xlink="http://www.w3.org/1999/xlink"
       viewBox="0 0 24.473 25.3679">
       <g>
              <rect height="25.3679" opacity="0" width="24.473" x="0" y="0" />
              <path d="M9.6878 16.0819C10.6217 16.616 11.3017 16.8595 12.0547 16.8595C12.8099 16.8595 13.49 16.616 14.4238 16.0819L18.6834 13.6239L21.0831 15.0055C22.0383 15.5638 22.5648 16.1317 22.5648 17.0269C22.5648 17.9147 22.0383 18.4826 21.0831 19.0386L13.6553 23.3328C13.0052 23.7032 12.5446 23.9047 12.0547 23.9047C11.5671 23.9047 11.0967 23.7032 10.4563 23.3328L3.0285 19.0386C2.07335 18.4826 1.54679 17.9147 1.54679 17.0269C1.54679 16.1317 2.07335 15.5638 3.0285 15.0055L5.42053 13.6202Z"
                     fill="currentColor" fill-opacity="0.85" />
              <path d="M12.0547 15.315C12.5446 15.315 13.0052 15.1134 13.6553 14.743L21.0831 10.4437C22.0383 9.89289 22.5648 9.3175 22.5648 8.42974C22.5648 7.54198 22.0383 6.97405 21.0831 6.41808L13.6553 2.12393C13.0052 1.75351 12.5446 1.54449 12.0547 1.54449C11.5671 1.54449 11.0967 1.75351 10.4563 2.12393L3.0285 6.41808C2.07335 6.97405 1.54679 7.54198 1.54679 8.42974C1.54679 9.3175 2.07335 9.89289 3.0285 10.4437L10.4563 14.743C11.0967 15.1134 11.5671 15.315 12.0547 15.315Z"
                     fill="currentColor" fill-opacity="0.85" />
       </g>
</svg>