<?xml version="1.0" encoding="UTF-8"?>
<!--Generator: Apple Native CoreSVG 326-->
<!DOCTYPE svg PUBLIC "-//W3C//DTD SVG 1.1//EN" "http://www.w3.org/Graphics/SVG/1.1/DTD/svg11.dtd">
<svg version="1.1" xmlns="http://www.w3.org/2000/svg" xmlns:xlink="http://www.w3.org/1999/xlink"
       viewBox="0 0 21.918 27.9042">
       <g>
              <rect height="27.9042" opacity="0" width="21.918" x="0" y="0" />
              <path d="M15.5621 3.17877C15.4969 3.17158 15.4289 3.17007 15.3602 3.17007L6.19881 3.17007C6.12681 3.17007 6.05557 3.17173 5.98711 3.17919C6.00368 2.19668 6.61269 1.61418 7.60858 1.61418L13.9481 1.61418C14.9438 1.61418 15.5456 2.19652 15.5621 3.17877Z"
                     fill="currentColor" fill-opacity="0.85" />
              <path d="M17.4705 6.45324C17.09 6.38273 16.6859 6.34748 16.2615 6.34748L5.29521 6.34748C4.87081 6.34748 4.4667 6.38268 4.0862 6.45312C4.19582 5.32954 4.96698 4.65487 6.17345 4.65487L15.3855 4.65487C16.5921 4.65487 17.3613 5.32959 17.4705 6.45324Z"
                     fill="currentColor" fill-opacity="0.85" />
              <path d="M5.29521 26.2647L16.2615 26.2647C18.586 26.2647 19.9098 24.9432 19.9098 22.6256L19.9098 11.6335C19.9098 9.31586 18.586 7.99435 16.2615 7.99435L5.29521 7.99435C2.96323 7.99435 1.64687 9.31356 1.64687 11.6335L1.64687 22.6256C1.64687 24.9432 2.96323 26.2647 5.29521 26.2647Z"
                     fill="currentColor" fill-opacity="0.85" />
       </g>
</svg>