<?xml version="1.0" encoding="UTF-8"?>
<!--Generator: Apple Native CoreSVG 326-->
<!DOCTYPE svg PUBLIC "-//W3C//DTD SVG 1.1//EN" "http://www.w3.org/Graphics/SVG/1.1/DTD/svg11.dtd">
<svg version="1.1" xmlns="http://www.w3.org/2000/svg" xmlns:xlink="http://www.w3.org/1999/xlink"
       viewBox="0 0 33.856 21.9316">
       <g>
              <rect height="21.9316" opacity="0" width="33.856" x="0" y="0" />
              <path d="M23.4508 17.4096L30.6683 17.4096C32.3794 17.4096 33.4947 16.304 33.4947 14.6073L33.4947 7.32659C33.4947 5.63968 32.3794 4.5318 30.6683 4.5318L23.4508 4.5318C21.7397 4.5318 20.6244 5.63968 20.6244 7.32659L20.6244 14.6073C20.6244 16.304 21.7397 17.4096 23.4508 17.4096ZM24.0546 14.5473C23.6994 14.5473 23.4792 14.3248 23.4792 13.9622L23.4792 7.98149C23.4792 7.61883 23.6994 7.3941 24.0546 7.3941L30.0571 7.3941C30.4123 7.3941 30.6399 7.61883 30.6399 7.98149L30.6399 13.9622C30.6399 14.3248 30.4123 14.5473 30.0571 14.5473Z"
                     fill="currentColor" fill-opacity="0.85" />
              <path d="M2.83385 17.4096L10.0439 17.4096C11.7624 17.4096 12.8703 16.304 12.8703 14.6073L12.8703 7.32659C12.8703 5.63968 11.7624 4.5318 10.0439 4.5318L2.83385 4.5318C1.11534 4.5318 0 5.63968 0 7.32659L0 14.6073C0 16.304 1.11534 17.4096 2.83385 17.4096ZM16.7511 21.9316C17.5389 21.9316 18.175 21.3075 18.175 20.5169L18.175 1.42451C18.175 0.651083 17.5389 0.0195312 16.7511 0.0195312C15.9558 0.0195312 15.3294 0.651083 15.3294 1.42451L15.3294 20.5169C15.3294 21.3075 15.9558 21.9316 16.7511 21.9316Z"
                     fill="currentColor" fill-opacity="0.85" />
       </g>
</svg>