<?xml version="1.0" encoding="UTF-8"?>
<!--Generator: Apple Native CoreSVG 326-->
<!DOCTYPE svg PUBLIC "-//W3C//DTD SVG 1.1//EN" "http://www.w3.org/Graphics/SVG/1.1/DTD/svg11.dtd">
<svg version="1.1" xmlns="http://www.w3.org/2000/svg" xmlns:xlink="http://www.w3.org/1999/xlink"
       viewBox="0 0 20.4457 20.1062">
       <g>
              <rect height="20.1062" opacity="0" width="20.4457" x="0" y="0" />
              <path d="M1.42287 20.0867C2.20552 20.0867 2.84805 19.4418 2.84805 18.6615L2.84805 16.0046L5.60201 16.0046C6.53169 16.0046 7.23281 15.3035 7.23281 14.3813L7.23281 11.6199L9.99424 11.6199C10.9165 11.6199 11.6199 10.9188 11.6199 9.98908L11.6199 7.23512L14.379 7.23512C15.3035 7.23512 16.0121 6.52653 16.0121 5.60432L16.0121 2.84059L18.6592 2.84059C19.4418 2.84059 20.0844 2.19806 20.0844 1.42518C20.0844 0.644835 19.4418 0 18.6592 0L14.7874 0C13.8652 0 13.1641 0.703429 13.1641 1.62564L13.1641 4.38707L10.4026 4.38707C9.48042 4.38707 8.7793 5.08819 8.7793 6.01787L8.7793 8.77184L6.01557 8.77184C5.09335 8.77184 4.38477 9.48042 4.38477 10.4049L4.38477 13.1641L1.6308 13.1641C0.701124 13.1641 0 13.8675 0 14.7897L0 18.6615C0 19.4418 0.64253 20.0867 1.42287 20.0867Z"
                     fill="currentColor" fill-opacity="0.85" />
       </g>
</svg>