<?xml version="1.0" encoding="UTF-8"?>
<!--Generator: Apple Native CoreSVG 326-->
<!DOCTYPE svg PUBLIC "-//W3C//DTD SVG 1.1//EN" "http://www.w3.org/Graphics/SVG/1.1/DTD/svg11.dtd">
<svg version="1.1" xmlns="http://www.w3.org/2000/svg" xmlns:xlink="http://www.w3.org/1999/xlink"
       viewBox="0 0 21.365 21.006">
       <g>
              <rect height="21.006" opacity="0" width="21.365" x="0" y="0" />
              <path d="M21.0037 10.4981C21.0037 16.2923 16.302 20.9962 10.4981 20.9962C4.70394 20.9962 0 16.2923 0 10.4981C0 4.70163 4.70394 0 10.4981 0C16.302 0 21.0037 4.70163 21.0037 10.4981ZM9.81288 5.35927L8.82358 8.47365L5.57532 8.42943C4.69884 8.41221 4.5879 9.32775 5.1497 9.74306L7.79358 11.6441L6.76521 14.724C6.49354 15.5517 7.21552 16.0181 7.86861 15.5241L10.4981 13.6013L13.1276 15.5241C13.783 16.0032 14.5027 15.5815 14.2258 14.724L13.2026 11.6366L15.8391 9.74076C16.3911 9.33752 16.3295 8.41221 15.4209 8.42943L12.1726 8.47365L11.1684 5.35927C10.9088 4.55861 10.0725 4.55861 9.81288 5.35927Z"
                     fill="currentColor" fill-opacity="0.85" />
       </g>
</svg>