<?xml version="1.0" encoding="UTF-8"?>
<!--Generator: Apple Native CoreSVG 326-->
<!DOCTYPE svg PUBLIC "-//W3C//DTD SVG 1.1//EN" "http://www.w3.org/Graphics/SVG/1.1/DTD/svg11.dtd">
<svg version="1.1" xmlns="http://www.w3.org/2000/svg" xmlns:xlink="http://www.w3.org/1999/xlink"
       viewBox="0 0 23.0845 22.5228">
       <g>
              <rect height="22.5228" opacity="0" width="23.0845" x="0" y="0" />
              <path d="M17.4646 3.65865L17.4646 5.04834L14.445 5.04834L14.445 4.08228C14.445 3.35016 14.0921 3.03918 13.4088 3.03918L4.05583 3.03918C3.37024 3.03918 3.01964 3.35016 3.01964 4.08228L3.01964 13.4163C3.01964 14.1559 3.37024 14.4668 4.05583 14.4668L5.25858 14.4668L5.25858 17.4865L3.64834 17.4865C1.32151 17.4865 0 16.165 0 13.8474L0 3.65865C0 1.33358 1.32151 0.0195312 3.64834 0.0195312L13.8186 0.0195312C16.1408 0.0195312 17.4646 1.33358 17.4646 3.65865Z"
                     fill="currentColor" fill-opacity="0.85" />
              <path d="M8.91438 22.5228L19.0772 22.5228C21.4069 22.5228 22.7232 21.2012 22.7232 18.8836L22.7232 8.68747C22.7232 6.36986 21.4069 5.04834 19.0772 5.04834L8.91438 5.04834C6.58009 5.04834 5.25858 6.36755 5.25858 8.68747L5.25858 18.8836C5.25858 21.2012 6.58009 22.5228 8.91438 22.5228ZM9.32187 19.5031C8.63112 19.5031 8.27822 19.1847 8.27822 18.4525L8.27822 9.11855C8.27822 8.38643 8.63112 8.07545 9.32187 8.07545L18.6674 8.07545C19.3507 8.07545 19.7036 8.38643 19.7036 9.11855L19.7036 18.4525C19.7036 19.1847 19.3507 19.5031 18.6674 19.5031Z"
                     fill="currentColor" fill-opacity="0.85" />
              <path d="M11.989 17.6363L13.9883 16.1678L15.9928 17.6363C16.484 17.993 17.0394 17.6788 16.824 17.0274L16.0449 14.6799L18.0489 13.2333C18.4688 12.9305 18.4239 12.2235 17.741 12.2332L15.2642 12.27L14.5018 9.90065C14.3134 9.29354 13.6632 9.29354 13.4748 9.90065L12.7199 12.27L10.2431 12.2332C9.58257 12.2235 9.49808 12.9282 9.92776 13.2333L11.9392 14.6874L11.1527 17.0274C10.9447 17.6489 11.4927 18.0005 11.989 17.6363Z"
                     fill="currentColor" fill-opacity="0.85" />
       </g>
</svg>