<?xml version="1.0" encoding="UTF-8"?>
<!--Generator: Apple Native CoreSVG 326-->
<!DOCTYPE svg PUBLIC "-//W3C//DTD SVG 1.1//EN" "http://www.w3.org/Graphics/SVG/1.1/DTD/svg11.dtd">
<svg version="1.1" xmlns="http://www.w3.org/2000/svg" xmlns:xlink="http://www.w3.org/1999/xlink"
       viewBox="0 0 20.9792 21.7883">
       <g>
              <rect height="21.7883" opacity="0" width="20.9792" x="0" y="0" />
              <path d="M9.55394 21.7883L11.0541 21.7883C12.8175 21.7883 13.7532 20.9211 13.7532 19.2651L13.7532 16.8364L15.8428 18.0594C16.339 18.3529 16.8187 18.4948 17.2592 18.4948C18.0817 18.4948 18.7968 17.9882 19.374 16.9801L20.129 15.6923C20.4541 15.1128 20.6178 14.582 20.6178 14.0926C20.6178 13.2897 20.1727 12.6114 19.2795 12.1025L17.1802 10.8893L19.2698 9.68356C20.1652 9.17466 20.6155 8.49634 20.6155 7.69337C20.6155 7.21377 20.4444 6.67556 20.1193 6.10346L19.374 4.81051C18.787 3.80016 18.0645 3.29356 17.2247 3.29356C16.7917 3.29356 16.3293 3.43544 15.833 3.72149L13.7532 4.92491L13.7532 2.52323C13.7532 0.867261 12.8175 0 11.0541 0L9.55394 0C7.79054 0 6.86469 0.8598 6.86469 2.52323L6.86469 4.92491L4.78486 3.72149C4.29087 3.43544 3.81873 3.29356 3.3931 3.29356C2.55338 3.29356 1.83084 3.80016 1.24381 4.81051L0.498593 6.10346C0.173476 6.67556 0.00230491 7.21377 0.00230491 7.69337C0.00230491 8.49634 0.454921 9.17466 1.34808 9.68356L3.43022 10.8893L1.34062 12.1025C0.445155 12.6114 0 13.2897 0 14.0926C0 14.582 0.163711 15.1128 0.488827 15.6923L1.24381 16.9801C1.82108 17.9882 2.53615 18.4948 3.35865 18.4948C3.79919 18.4948 4.27365 18.3529 4.76763 18.0594L6.86469 16.8364L6.86469 19.2651C6.86469 20.9285 7.79054 21.7883 9.55394 21.7883ZM9.92952 19.5849C9.27795 19.5849 9.11873 19.4475 9.12619 18.8178L9.17095 13.5091C9.17095 13.2954 9.00846 13.153 8.82182 13.153C8.74545 13.153 8.66909 13.1703 8.60534 13.2145L4.09853 15.8513C3.89685 15.968 3.744 16.0288 3.60321 16.0288C3.39231 16.0288 3.23716 15.876 3.03032 15.5284L2.66353 14.8786C2.52966 14.6402 2.45669 14.4678 2.45669 14.3098C2.45669 14.1087 2.60263 13.9535 2.9158 13.7811L7.49327 11.1775C7.61846 11.0988 7.67475 10.9909 7.67475 10.868C7.67475 10.7353 7.611 10.6199 7.47604 10.5412L2.9181 7.99229C2.60724 7.8176 2.459 7.66244 2.459 7.43892C2.459 7.29814 2.52966 7.12575 2.65607 6.90224L3.03032 6.25018C3.22969 5.90772 3.40208 5.75717 3.61298 5.75717C3.7463 5.75717 3.90662 5.81061 4.10084 5.92725L8.60073 8.56925C8.66448 8.61346 8.74084 8.63069 8.81951 8.63069C9.00846 8.63069 9.17095 8.48827 9.17095 8.27233L9.12619 3.03026C9.11873 2.40053 9.27795 2.26314 9.92952 2.26314L10.6809 2.26314C11.3399 2.26314 11.4991 2.40053 11.4842 3.03026L11.4469 8.27233C11.4469 8.48597 11.6094 8.63069 11.796 8.63069C11.8747 8.63069 11.9436 8.61346 12.0148 8.56925L16.5119 5.92725C16.7135 5.80315 16.8664 5.74971 17.0123 5.74971C17.2158 5.74971 17.3807 5.90026 17.5898 6.25018L17.9618 6.90224C18.0956 7.12575 18.1612 7.3056 18.1612 7.44638C18.1612 7.66244 18.0129 7.8176 17.702 7.99229L13.1366 10.5412C13.0017 10.6199 12.9282 10.7353 12.9282 10.868C12.9282 10.9909 12.9942 11.0965 13.112 11.1775L17.7118 13.7811C18.0227 13.9535 18.1709 14.1087 18.1709 14.3098C18.1709 14.4678 18.0956 14.6402 17.9618 14.8786L17.5973 15.5284C17.3882 15.876 17.233 16.0288 17.0221 16.0288C16.8813 16.0288 16.7285 15.9656 16.5291 15.8513L12.0125 13.2145C11.9413 13.1703 11.8747 13.153 11.796 13.153C11.6094 13.153 11.4469 13.2954 11.4469 13.5091L11.4842 18.8178C11.4991 19.4475 11.3399 19.5849 10.6809 19.5849Z"
                     fill="currentColor" fill-opacity="0.85" />
       </g>
</svg>