<?xml version="1.0" encoding="UTF-8"?>
<!--Generator: Apple Native CoreSVG 326-->
<!DOCTYPE svg PUBLIC "-//W3C//DTD SVG 1.1//EN" "http://www.w3.org/Graphics/SVG/1.1/DTD/svg11.dtd">
<svg version="1.1" xmlns="http://www.w3.org/2000/svg" xmlns:xlink="http://www.w3.org/1999/xlink"
       viewBox="0 0 19.3993 19.0529">
       <g>
              <rect height="19.0529" opacity="0" width="19.3993" x="0" y="0" />
              <path d="M19.0379 3.63912L19.0379 15.4011C19.0379 17.7262 17.7164 19.0379 15.3896 19.0379L3.64834 19.0379C1.32382 19.0379 0 17.7262 0 15.4011L0 3.63912C0 1.32151 1.32382 0 3.64834 0L15.3896 0C17.7164 0 19.0379 1.32151 19.0379 3.63912ZM8.92815 4.38271L7.93885 7.49709L4.68314 7.45287C3.80665 7.43565 3.69572 8.35119 4.25751 8.7665L6.90885 10.6675L5.87302 13.7475C5.60135 14.5751 6.3308 15.0416 6.98388 14.5476L9.60592 12.6247L12.2354 14.5476C12.8908 15.0266 13.6105 14.6049 13.3337 13.7475L12.3105 10.6601L14.9469 8.7642C15.4989 8.36095 15.4373 7.43565 14.5362 7.45287L11.2805 7.49709L10.2837 4.38271C10.0241 3.58205 9.18776 3.58205 8.92815 4.38271Z"
                     fill="currentColor" fill-opacity="0.85" />
       </g>
</svg>