<?xml version="1.0" encoding="UTF-8"?>
<!--Generator: Apple Native CoreSVG 326-->
<!DOCTYPE svg PUBLIC "-//W3C//DTD SVG 1.1//EN" "http://www.w3.org/Graphics/SVG/1.1/DTD/svg11.dtd">
<svg version="1.1" xmlns="http://www.w3.org/2000/svg" xmlns:xlink="http://www.w3.org/1999/xlink"
       viewBox="0 0 23.3769 22.7958">
       <g>
              <rect height="22.7958" opacity="0" width="23.3769" x="0" y="0" />
              <path d="M23.0156 5.99015L23.0156 13.866C23.0156 16.884 21.095 18.8213 18.0654 18.8213L12.113 18.8213L8.38613 22.0888C7.80777 22.6005 7.4052 22.7958 6.92735 22.7958C6.23642 22.7958 5.80454 22.3208 5.80454 21.5587L5.80454 18.8213L4.68902 18.8213C2.09221 18.8213 0 16.8863 0 13.866L0 5.99015C0 2.96984 1.92061 1.03255 4.95014 1.03255L18.0654 1.03255C21.095 1.03255 23.0156 2.97215 23.0156 5.99015ZM10.9713 5.7269L10.1906 8.18214L7.58771 8.16722C6.89338 8.16722 6.77267 8.88623 7.25174 9.21596L9.36924 10.7211L8.54947 13.1511C8.30194 13.8346 8.90443 14.1774 9.4288 13.8053L11.5176 12.2703L13.604 13.8053C14.1232 14.17 14.7309 13.8644 14.4782 13.1511L13.6682 10.7136L15.7736 9.21596C16.2303 8.87131 16.1543 8.16722 15.4451 8.16722L12.8422 8.18214L12.0638 5.7269C11.8478 5.10202 11.1896 5.10202 10.9713 5.7269Z"
                     fill="currentColor" fill-opacity="0.85" />
       </g>
</svg>