<?xml version="1.0" encoding="UTF-8"?>
<!--Generator: Apple Native CoreSVG 326-->
<!DOCTYPE svg PUBLIC "-//W3C//DTD SVG 1.1//EN" "http://www.w3.org/Graphics/SVG/1.1/DTD/svg11.dtd">
<svg version="1.1" xmlns="http://www.w3.org/2000/svg" xmlns:xlink="http://www.w3.org/1999/xlink"
       viewBox="0 0 23.2726 23.6262">
       <g>
              <rect height="23.6262" opacity="0" width="23.2726" x="0" y="0" />
              <path d="M4.15612 7.17978L6.73035 9.74625L4.52034 9.64395C4.47666 9.64395 4.44967 9.65141 4.44737 9.66579C4.44506 9.68762 4.46229 9.70716 4.48873 9.72153L8.18814 12.1632C8.94774 12.6513 8.95126 12.9391 8.67279 13.7154L7.10246 17.8539C7.0927 17.8976 7.09785 17.9074 7.10992 17.9194C7.12199 17.9413 7.14383 17.9292 7.16797 17.9074L10.6268 15.1291C11.1267 14.7413 11.4299 14.6426 11.833 14.8335L18.5951 21.5753C18.5697 21.5991 18.542 21.6217 18.5133 21.6436C17.8718 22.1352 17.0903 21.9904 16.2461 21.3794L11.4582 17.8491L6.65779 21.3794C5.8285 21.9904 5.04464 22.1352 4.40551 21.6436C3.77384 21.1618 3.64118 20.3728 3.96739 19.4212L5.87411 13.7946L1.0323 10.3281C0.203015 9.73427-0.185184 9.02392 0.0852813 8.2596C0.345981 7.50734 1.05117 7.14613 2.06425 7.16336ZM13.119 1.53909L14.9206 7.20988L20.8471 7.16336C21.8601 7.14613 22.5728 7.50734 22.826 8.26706C23.0867 9.02392 22.7158 9.73427 21.879 10.3281L17.121 13.7398L15.2202 11.8423L18.43 9.72153C18.4616 9.69969 18.4737 9.68762 18.4714 9.66579C18.4691 9.65141 18.4496 9.64395 18.4059 9.64395L13.9898 9.84836C13.1493 9.86559 12.873 9.71449 12.6565 8.91123L11.5019 4.64462C11.4847 4.60095 11.4726 4.58888 11.4582 4.58888C11.4387 4.58888 11.4266 4.60095 11.4169 4.64462L10.6886 7.31841L8.61417 5.24746L9.79231 1.53909C10.1088 0.555307 10.6618 0 11.4582 0C12.2496 0 12.8026 0.555307 13.119 1.53909Z"
                     fill="currentColor" fill-opacity="0.85" />
              <path d="M20.0661 21.0828C20.4038 21.413 20.9593 21.4205 21.2798 21.0828C21.6078 20.7427 21.6175 20.2068 21.2798 19.8691L4.34267 2.95844C4.0124 2.62071 3.45697 2.6184 3.11924 2.95844C2.79873 3.28641 2.79873 3.84929 3.11924 4.17211Z"
                     fill="currentColor" fill-opacity="0.85" />
       </g>
</svg>