<?xml version="1.0" encoding="UTF-8"?>
<!--Generator: Apple Native CoreSVG 326-->
<!DOCTYPE svg PUBLIC "-//W3C//DTD SVG 1.1//EN" "http://www.w3.org/Graphics/SVG/1.1/DTD/svg11.dtd">
<svg version="1.1" xmlns="http://www.w3.org/2000/svg" xmlns:xlink="http://www.w3.org/1999/xlink"
       viewBox="0 0 25.8038 25.9549">
       <g>
              <rect height="25.9549" opacity="0" width="25.8038" x="0" y="0" />
              <path d="M18.4785 5.37474L18.4785 5.399L10.6198 5.399C7.33902 5.399 5.2479 7.4832 5.2479 10.7542L5.2479 18.8519L5.01056 18.8519C2.67857 18.8519 1.35475 17.5304 1.35475 15.2128L1.35475 5.37474C1.35475 3.04967 2.67857 1.73561 5.01056 1.73561L14.8227 1.73561C17.1524 1.73561 18.4785 3.04967 18.4785 5.37474Z"
                     fill="currentColor" fill-opacity="0.85" />
              <path d="M24.0877 10.7542L24.0877 20.5997C24.0877 22.9173 22.7616 24.2388 20.4319 24.2388L10.6198 24.2388C8.2878 24.2388 6.96399 22.9173 6.96399 20.5997L6.96399 10.7542C6.96399 8.43429 8.2878 7.11508 10.6198 7.11508L20.4319 7.11508C22.7616 7.11508 24.0877 8.43659 24.0877 10.7542ZM14.9765 11.5145L14.1699 14.0342L11.5381 13.9998C10.8281 13.99 10.7413 14.7292 11.198 15.0664L13.3375 16.6067L12.4993 19.1017C12.2839 19.7703 12.8738 20.1489 13.4045 19.7502L15.5296 18.1979L17.657 19.7502C18.1877 20.1414 18.7701 19.8001 18.5473 19.1017L17.7165 16.5992L19.8485 15.0664C20.3029 14.739 20.2483 13.99 19.516 13.9998L16.8819 14.0342L16.0701 11.5145C15.8645 10.8706 15.1821 10.8706 14.9765 11.5145Z"
                     fill="currentColor" fill-opacity="0.85" />
       </g>
</svg>