<?xml version="1.0" encoding="UTF-8"?>
<!--Generator: Apple Native CoreSVG 326-->
<!DOCTYPE svg PUBLIC "-//W3C//DTD SVG 1.1//EN" "http://www.w3.org/Graphics/SVG/1.1/DTD/svg11.dtd">
<svg version="1.1" xmlns="http://www.w3.org/2000/svg" xmlns:xlink="http://www.w3.org/1999/xlink"
       viewBox="0 0 17.3824 20.239">
       <g>
              <rect height="20.239" opacity="0" width="17.3824" x="0" y="0" />
              <path d="M10.1492 0.536442C10.9165 0.770392 14.3151 1.88216 15.1593 2.23154C16.5615 2.827 17.0211 3.51484 17.0211 5.07279L17.0211 12.0257C17.0211 15.5241 15.0027 17.2254 9.28189 20.0162C9.02283 20.1431 8.73393 20.239 8.51053 20.239C8.2946 20.239 8.00053 20.1455 7.73917 20.0162C2.05636 17.1713 0 15.5241 0 12.0257L0 5.07279C0 3.51484 0.469296 2.81723 1.86924 2.23154C2.71339 1.88446 6.10461 0.765783 6.87415 0.536442C7.38172 0.391171 8.02073 0.287813 8.51053 0.287813C9.00779 0.287813 9.6468 0.388866 10.1492 0.536442ZM8.32171 4.47878C7.56405 4.47878 7.32968 4.70339 7.32968 5.40476L7.32968 7.65485L5.43751 6.52981C4.78783 6.15356 4.49771 6.23168 4.14275 6.86414L3.93955 7.20339C3.58229 7.84101 3.66787 8.14374 4.30373 8.49124L6.30562 9.59215L4.30143 10.731C3.67303 11.078 3.58744 11.3709 3.96424 12.0086L4.15767 12.3558C4.52701 12.986 4.81712 13.0641 5.4329 12.7051L7.32968 11.5726L7.32968 13.86C7.32222 14.5636 7.54913 14.7882 8.32171 14.7882L8.71088 14.7882C9.46392 14.7882 9.6983 14.5636 9.6983 13.8525L9.6983 11.5726L11.5951 12.7051C12.2103 13.0687 12.5107 13.0032 12.8628 12.3558L13.0614 12.0086C13.4112 11.3612 13.3429 11.0808 12.7266 10.731L10.7224 9.59215L12.7242 8.49124C13.3601 8.14374 13.4532 7.83355 13.0884 7.20339L12.8852 6.86414C12.5228 6.23684 12.2252 6.14149 11.5905 6.52981L9.6983 7.65485L9.6983 5.40476C9.6983 4.70339 9.46392 4.47878 8.71088 4.47878Z"
                     fill="currentColor" fill-opacity="0.85" />
       </g>
</svg>