<?xml version="1.0" encoding="UTF-8"?>
<!--Generator: Apple Native CoreSVG 326-->
<!DOCTYPE svg PUBLIC "-//W3C//DTD SVG 1.1//EN" "http://www.w3.org/Graphics/SVG/1.1/DTD/svg11.dtd">
<svg version="1.1" xmlns="http://www.w3.org/2000/svg" xmlns:xlink="http://www.w3.org/1999/xlink"
       viewBox="0 0 28.5287 26.0848">
       <g>
              <rect height="26.0848" opacity="0" width="28.5287" x="0" y="0" />
              <path d="M24.1602 10.0868C23.9022 10.0402 23.6356 10.0193 23.3639 10.0193C20.4955 10.0193 18.202 12.3398 18.202 15.1691C18.202 15.416 18.219 15.6595 18.254 15.8978C17.1913 16.8488 16.5363 18.2346 16.5486 19.7508C16.5509 20.1668 16.8423 20.3869 17.2255 20.1852C18.0857 19.7808 18.8464 19.2429 19.484 18.5973C19.6881 18.8316 19.9152 19.0467 20.1621 19.2405L20.1621 21.5983C18.4514 22.8255 16.3522 23.5431 14.0848 23.5431C8.28835 23.5431 3.58672 18.8414 3.58672 13.045C3.58672 7.24848 8.28835 2.54685 14.0848 2.54685C18.8593 2.54685 22.8879 5.72857 24.1602 10.0868ZM6.7261 15.2675C7.33102 17.4311 8.83626 19.2023 10.9246 20.1852C11.3102 20.3869 11.5992 20.1668 11.6015 19.7508C11.6223 17.193 9.74525 15.0105 7.24325 14.636C6.81004 14.5751 6.60254 14.7814 6.7261 15.2675ZM12.2577 13.419C12.2577 14.436 13.073 15.2386 14.0751 15.2386C15.0748 15.2386 15.8924 14.436 15.8924 13.419C15.8924 12.4291 15.0748 11.6189 14.0751 11.6189C13.073 11.6189 12.2577 12.4291 12.2577 13.419ZM7.85375 8.43789C7.49813 8.93254 7.65098 9.42324 8.19106 9.42324L19.9493 9.42324C20.4991 9.42324 20.6497 8.93254 20.2941 8.42812C18.8488 6.47991 16.5731 5.30373 14.0653 5.30373C11.5575 5.30373 9.28184 6.47991 7.85375 8.43789Z"
                     fill="currentColor" fill-opacity="0.85" />
              <path d="M23.3639 11.7354C21.4443 11.7354 19.9181 13.2811 19.9181 15.1691C19.9181 16.5346 20.677 17.7322 21.8782 18.3003L21.8782 22.826C21.8782 23.0253 21.9666 23.24 22.1216 23.3824L23.0441 24.2326C23.2537 24.4049 23.5694 24.4296 23.7985 24.2028L25.3363 22.6673C25.5907 22.4204 25.5534 22.0501 25.3289 21.8107L24.668 21.1199L25.6828 20.0971C25.9147 19.8577 25.9222 19.4823 25.6781 19.2136L24.765 18.3027C26.0674 17.6128 26.8126 16.4893 26.8126 15.1691C26.8126 13.2811 25.2767 11.7354 23.3639 11.7354ZM23.3616 13.2352C23.9039 13.2352 24.3537 13.6971 24.3537 14.2445C24.3537 14.7764 23.9039 15.236 23.3616 15.236C22.8268 15.236 22.3701 14.7764 22.3701 14.2445C22.3701 13.6971 22.8222 13.2352 23.3616 13.2352Z"
                     fill="currentColor" fill-opacity="0.85" />
       </g>
</svg>