<?xml version="1.0" encoding="UTF-8"?>
<!--Generator: Apple Native CoreSVG 326-->
<!DOCTYPE svg PUBLIC "-//W3C//DTD SVG 1.1//EN" "http://www.w3.org/Graphics/SVG/1.1/DTD/svg11.dtd">
<svg version="1.1" xmlns="http://www.w3.org/2000/svg" xmlns:xlink="http://www.w3.org/1999/xlink"
       viewBox="0 0 21.365 21.006">
       <g>
              <rect height="21.006" opacity="0" width="21.365" x="0" y="0" />
              <path d="M10.4981 20.9962C16.302 20.9962 21.0037 16.2946 21.0037 10.4981C21.0037 4.70163 16.302 0 10.4981 0C4.70163 0 0 4.70163 0 10.4981C0 16.2946 4.70163 20.9962 10.4981 20.9962ZM10.4981 17.9484C6.37829 17.9484 3.04785 14.6179 3.04785 10.4981C3.04785 6.37829 6.37829 3.04785 10.4981 3.04785C14.6179 3.04785 17.9558 6.37829 17.9558 10.4981C17.9558 14.6179 14.6179 17.9484 10.4981 17.9484Z"
                     fill="currentColor" fill-opacity="0.85" />
              <path d="M10.4958 15.8892C13.4666 15.8892 15.8795 13.474 15.8795 10.5056C15.8795 7.53482 13.4666 5.12192 10.4958 5.12192C7.52736 5.12192 5.11962 7.53482 5.11962 10.5056C5.11962 13.474 7.52736 15.8892 10.4958 15.8892ZM7.52851 8.3154C8.20707 7.38852 9.28505 6.8121 10.486 6.8121C11.6893 6.8121 12.7748 7.38852 13.4585 8.3154C13.6286 8.55099 13.5533 8.78834 13.2866 8.78834L7.69519 8.78834C7.42855 8.78834 7.35097 8.55099 7.52851 8.3154ZM10.5033 11.6094C9.98611 11.6094 9.57583 11.1992 9.57583 10.6797C9.57583 10.17 9.98611 9.75228 10.5033 9.75228C11.013 9.75228 11.433 10.17 11.433 10.6797C11.433 11.1992 11.013 11.6094 10.5033 11.6094ZM6.9982 11.5472C6.93038 11.3099 7.03617 11.2133 7.24246 11.2449C8.44399 11.4207 9.34158 12.4619 9.32775 13.6778C9.32775 13.879 9.17775 13.9876 8.99153 13.8956C7.9986 13.4239 7.27515 12.5815 6.9982 11.5472ZM13.9986 11.5472C13.7067 12.5815 12.9907 13.4239 11.9926 13.8956C11.8041 13.9876 11.6616 13.879 11.6616 13.6778C11.65 12.4642 12.5453 11.4207 13.7394 11.2449C13.9457 11.2133 14.0515 11.3099 13.9986 11.5472Z"
                     fill="currentColor" fill-opacity="0.85" />
       </g>
</svg>