<?xml version="1.0" encoding="UTF-8"?>
<!--Generator: Apple Native CoreSVG 326-->
<!DOCTYPE svg PUBLIC "-//W3C//DTD SVG 1.1//EN" "http://www.w3.org/Graphics/SVG/1.1/DTD/svg11.dtd">
<svg version="1.1" xmlns="http://www.w3.org/2000/svg" xmlns:xlink="http://www.w3.org/1999/xlink"
       viewBox="0 0 30.5594 21.0014">
       <g>
              <rect height="21.0014" opacity="0" width="30.5594" x="0" y="0" />
              <path d="M10.4981 21.0014C16.2946 21.0014 20.9962 16.2997 20.9962 10.5033C20.9962 4.70679 16.2946 0.0051558 10.4981 0.0051558C4.70163 0.0051558 0 4.70679 0 10.5033C0 16.2997 4.70163 21.0014 10.4981 21.0014ZM4.26473 5.89619C5.69282 3.93822 7.96845 2.76204 10.4711 2.76204C12.9789 2.76204 15.262 3.93822 16.6999 5.88643C17.0607 6.39084 16.905 6.88155 16.3603 6.88155L4.59688 6.88155C4.06196 6.88155 3.90395 6.39084 4.26473 5.89619ZM10.486 12.697C9.48631 12.697 8.66872 11.8943 8.66872 10.8773C8.66872 9.88736 9.48631 9.07724 10.486 9.07724C11.4858 9.07724 12.2959 9.88736 12.2959 10.8773C12.2959 11.8943 11.4858 12.697 10.486 12.697ZM3.12961 12.7258C3.00836 12.2397 3.22333 12.0334 3.65653 12.0943C6.15853 12.4688 8.03553 14.6514 8.01248 17.2091C8.01248 17.6251 7.72115 17.8452 7.33787 17.6435C5.24724 16.6606 3.7443 14.8894 3.12961 12.7258ZM17.8373 12.7258C17.2324 14.8894 15.7271 16.6606 13.6388 17.6435C13.2458 17.8452 12.9567 17.6251 12.9544 17.2091C12.9337 14.6537 14.8158 12.4688 17.3202 12.0943C17.7534 12.0334 17.966 12.2397 17.8373 12.7258Z"
                     fill="currentColor" fill-opacity="0.85" />
              <path d="M29.4618 9.66894L24.972 7.0187C24.2852 6.60757 23.4939 6.97963 23.4939 7.77775L23.4939 13.2213C23.4939 14.0292 24.2932 14.3961 24.972 13.9878L29.4618 11.3422C30.121 10.946 30.1089 10.0479 29.4618 9.66894Z"
                     fill="currentColor" fill-opacity="0.85" />
       </g>
</svg>