<?xml version="1.0" encoding="UTF-8"?>
<!--Generator: Apple Native CoreSVG 326-->
<!DOCTYPE svg PUBLIC "-//W3C//DTD SVG 1.1//EN" "http://www.w3.org/Graphics/SVG/1.1/DTD/svg11.dtd">
<svg version="1.1" xmlns="http://www.w3.org/2000/svg" xmlns:xlink="http://www.w3.org/1999/xlink"
       viewBox="0 0 21.365 21.0014">
       <g>
              <rect height="21.0014" opacity="0" width="21.365" x="0" y="0" />
              <path d="M10.4981 21.0014C16.302 21.0014 21.0037 16.2997 21.0037 10.5033C21.0037 4.70679 16.302 0.0051558 10.4981 0.0051558C4.70163 0.0051558 0 4.70679 0 10.5033C0 16.2997 4.70163 21.0014 10.4981 21.0014ZM4.26704 5.89619C5.69512 3.93822 7.97075 2.76204 10.4786 2.76204C12.9864 2.76204 15.262 3.93822 16.7073 5.88643C17.063 6.39084 16.9124 6.88155 16.3626 6.88155L4.60434 6.88155C4.06426 6.88155 3.91141 6.39084 4.26704 5.89619ZM10.4883 12.697C9.48631 12.697 8.67103 11.8943 8.67103 10.8773C8.67103 9.88736 9.48631 9.07724 10.4883 9.07724C11.4881 9.07724 12.3057 9.88736 12.3057 10.8773C12.3057 11.8943 11.4881 12.697 10.4883 12.697ZM3.13938 12.7258C3.01582 12.2397 3.22333 12.0334 3.65653 12.0943C6.15853 12.4688 8.03553 14.6514 8.01479 17.2091C8.01248 17.6251 7.72346 17.8452 7.33787 17.6435C5.24954 16.6606 3.7443 14.8894 3.13938 12.7258ZM17.8373 12.7258C17.2324 14.8894 15.7294 16.6606 13.6388 17.6435C13.2555 17.8452 12.9642 17.6251 12.9619 17.2091C12.9412 14.6537 14.8158 12.4688 17.3276 12.0943C17.7534 12.0334 17.9758 12.2397 17.8373 12.7258Z"
                     fill="currentColor" fill-opacity="0.85" />
       </g>
</svg>