<?xml version="1.0" encoding="UTF-8"?>
<!--Generator: Apple Native CoreSVG 326-->
<!DOCTYPE svg PUBLIC "-//W3C//DTD SVG 1.1//EN" "http://www.w3.org/Graphics/SVG/1.1/DTD/svg11.dtd">
<svg version="1.1" xmlns="http://www.w3.org/2000/svg" xmlns:xlink="http://www.w3.org/1999/xlink"
       viewBox="0 0 31.775 16.0562">
       <g>
              <rect height="16.0562" opacity="0" width="31.775" x="0" y="0" />
              <path d="M1.24911 16.0562L2.60071 16.0562C3.42539 16.0562 3.86758 15.6163 4.09328 15.0547L9.66296 1.20694C9.90413 0.601163 9.56882 0.026992 8.9286 0.026992L8.21922 0.026992C7.74313 0.026992 7.34923 0.260154 7.0983 0.739641L0.170103 14.3157C-0.252549 15.1122 0.11436 16.0562 1.24911 16.0562ZM28.813 16.0487L30.1594 16.0487C31.2993 16.0487 31.6588 15.1047 31.2436 14.3082L24.3177 0.73218C24.0645 0.252693 23.6631 0.0120705 23.1945 0.0120705L22.4851 0.0120705C21.8449 0.0120705 21.5119 0.593702 21.7507 1.19947L27.3204 15.0472C27.5461 15.6089 27.9883 16.0487 28.813 16.0487Z"
                     fill="currentColor" fill-opacity="0.85" />
              <path d="M15.7069 14.6694C19.038 14.6694 21.7752 11.942 21.7752 8.6108C21.7752 5.27732 19.0357 2.5424 15.7045 2.5424C12.3757 2.5424 9.64076 5.27732 9.64076 8.6108C9.64076 11.942 12.3757 14.6694 15.7069 14.6694ZM12.371 6.14567C13.1288 5.08559 14.3405 4.45464 15.6971 4.45464C17.0387 4.45464 18.2579 5.08559 19.0232 6.13591C19.211 6.38696 19.1375 6.61388 18.8698 6.61388L12.5244 6.61388C12.2613 6.61388 12.1929 6.38696 12.371 6.14567ZM15.6971 9.81737C15.1398 9.81737 14.6865 9.379 14.6865 8.79185C14.6865 8.2397 15.1398 7.80134 15.6971 7.80134C16.2642 7.80134 16.7174 8.2397 16.7174 8.79185C16.7174 9.379 16.2642 9.81737 15.6971 9.81737ZM11.719 9.7265C11.6558 9.48806 11.7386 9.40248 11.9678 9.43178C13.3031 9.6374 14.2976 10.7928 14.2838 12.1672C14.2838 12.374 14.1592 12.4665 13.9598 12.3545C12.8457 11.8432 12.0356 10.9043 11.719 9.7265ZM19.6872 9.7265C19.3534 10.9043 18.5605 11.8432 17.439 12.3545C17.2396 12.4665 17.1201 12.374 17.1201 12.1672C17.1063 10.7928 18.0934 9.6374 19.4362 9.43178C19.6556 9.40017 19.743 9.48806 19.6872 9.7265Z"
                     fill="currentColor" fill-opacity="0.85" />
       </g>
</svg>