<?xml version="1.0" encoding="UTF-8"?>
<!--Generator: Apple Native CoreSVG 326-->
<!DOCTYPE svg PUBLIC "-//W3C//DTD SVG 1.1//EN" "http://www.w3.org/Graphics/SVG/1.1/DTD/svg11.dtd">
<svg version="1.1" xmlns="http://www.w3.org/2000/svg" xmlns:xlink="http://www.w3.org/1999/xlink"
       viewBox="0 0 31.7662 16.0562">
       <g>
              <rect height="16.0562" opacity="0" width="31.7662" x="0" y="0" />
              <path d="M6.90531 3.49009L7.94417 3.49009C8.54029 3.49009 8.83029 3.27185 9.05884 2.69932L9.6574 1.20694C9.89857 0.601163 9.56556 0.026992 8.92534 0.026992L8.21366 0.026992C7.73988 0.026992 7.34828 0.260154 7.09504 0.739641L6.26387 2.36577C5.94349 2.99447 6.34594 3.49009 6.90531 3.49009ZM4.12508 9.3152L5.64924 9.3152C6.12085 9.3152 6.49643 9.08434 6.6699 8.64204L7.66873 6.15677C7.89498 5.59116 7.59806 5.02038 6.88893 5.02038L5.5491 5.02038C5.14992 5.02038 4.79442 5.23862 4.61579 5.59358L3.37513 8.02377C3.04552 8.67837 3.44403 9.3152 4.12508 9.3152ZM1.24355 16.0562L2.59746 16.0562C3.42214 16.0562 3.86432 15.6163 4.08772 15.0547L5.24928 12.172C5.51459 11.5185 5.12178 10.8748 4.33968 10.8748L2.90043 10.8748C2.21059 10.8748 1.79595 11.1092 1.48411 11.7133L0.16454 14.3157C-0.246041 15.1122 0.111102 16.0562 1.24355 16.0562ZM23.4607 3.48263L24.4996 3.48263C25.0515 3.48263 25.4614 2.98701 25.141 2.35831L24.3024 0.73218C24.0589 0.252693 23.6575 0.0120705 23.1912 0.0120705L22.4795 0.0120705C21.8393 0.0120705 21.5063 0.593702 21.7475 1.19947L22.346 2.69186C22.5746 3.26439 22.8571 3.48263 23.4607 3.48263ZM25.7579 9.30774L27.2798 9.30774C27.9609 9.30774 28.3594 8.67091 28.0246 8.01631L26.7914 5.58612C26.6105 5.23116 26.255 5.01292 25.8483 5.01292L24.516 5.01292C23.8068 5.01292 23.5099 5.58369 23.7362 6.14931L24.735 8.63457C24.9108 9.07688 25.2766 9.30774 25.7579 9.30774ZM28.8074 16.0487L30.1539 16.0487C31.2961 16.0487 31.6509 15.1047 31.2403 14.3082L29.9208 11.7058C29.6089 11.0942 29.1868 10.8673 28.5045 10.8673L27.0675 10.8673C26.2831 10.8673 25.8903 11.5111 26.1556 12.1646L27.3172 15.0472C27.5429 15.6089 27.9827 16.0487 28.8074 16.0487Z"
                     fill="currentColor" fill-opacity="0.85" />
              <path d="M15.7059 14.6694C19.0371 14.6694 21.7743 11.942 21.7743 8.6108C21.7743 5.27732 19.0348 2.5424 15.7036 2.5424C12.3747 2.5424 9.6375 5.27732 9.6375 8.6108C9.6375 11.942 12.3747 14.6694 15.7059 14.6694ZM12.3701 6.14567C13.1278 5.08559 14.3396 4.45464 15.6961 4.45464C17.0378 4.45464 18.257 5.08559 19.0222 6.13591C19.2101 6.38696 19.1342 6.61388 18.8688 6.61388L12.5235 6.61388C12.2655 6.61388 12.192 6.38696 12.3701 6.14567ZM15.6961 9.81737C15.1365 9.81737 14.6855 9.379 14.6855 8.79185C14.6855 8.2397 15.1365 7.80134 15.6961 7.80134C16.2609 7.80134 16.7142 8.2397 16.7142 8.79185C16.7142 9.379 16.2609 9.81737 15.6961 9.81737ZM11.7181 9.7265C11.6526 9.49037 11.7376 9.40248 11.9645 9.43178C13.2998 9.6374 14.2967 10.7905 14.2828 12.1672C14.2828 12.374 14.1559 12.4665 13.9565 12.3545C12.8424 11.8432 12.0346 10.9043 11.7181 9.7265ZM19.6863 9.7265C19.3599 10.9043 18.5573 11.8432 17.4357 12.3545C17.2438 12.4665 17.1192 12.374 17.1169 12.1672C17.1054 10.7928 18.0925 9.6374 19.4329 9.43178C19.6547 9.40017 19.7397 9.49037 19.6863 9.7265Z"
                     fill="currentColor" fill-opacity="0.85" />
       </g>
</svg>