<?xml version="1.0" encoding="UTF-8"?>
<!--Generator: Apple Native CoreSVG 326-->
<!DOCTYPE svg PUBLIC "-//W3C//DTD SVG 1.1//EN" "http://www.w3.org/Graphics/SVG/1.1/DTD/svg11.dtd">
<svg version="1.1" xmlns="http://www.w3.org/2000/svg" xmlns:xlink="http://www.w3.org/1999/xlink"
       viewBox="0 0 29.9477 26.8437">
       <g>
              <rect height="26.8437" opacity="0" width="29.9477" x="0" y="0" />
              <path d="M14.7906 23.9225C20.5946 23.9225 25.2962 19.2209 25.2962 13.4244C25.2962 7.62794 20.5946 2.92631 14.7906 2.92631C8.99416 2.92631 4.29252 7.62794 4.29252 13.4244C4.29252 19.2209 8.99416 23.9225 14.7906 23.9225ZM8.55725 8.81735C9.98534 6.85937 12.261 5.68319 14.7711 5.68319C17.2789 5.68319 19.562 6.85937 20.9999 8.80758C21.3532 9.312 21.2049 9.80271 20.6528 9.80271L8.89687 9.80271C8.36194 9.80271 8.20393 9.312 8.55725 8.81735ZM14.7786 15.6181C13.7788 15.6181 12.9687 14.8154 12.9687 13.7985C12.9687 12.8085 13.7788 11.9984 14.7786 11.9984C15.7783 11.9984 16.5959 12.8085 16.5959 13.7985C16.5959 14.8154 15.7783 15.6181 14.7786 15.6181ZM7.4296 15.6469C7.30835 15.1608 7.51585 14.9545 7.95652 15.0154C10.4511 15.3899 12.3281 17.5725 12.305 20.1302C12.305 20.5462 12.0137 20.7663 11.6304 20.5647C9.53976 19.5817 8.03682 17.8105 7.4296 15.6469ZM22.1298 15.6469C21.5249 17.8105 20.0197 19.5817 17.9313 20.5647C17.5458 20.7663 17.2567 20.5462 17.2544 20.1302C17.2337 17.5748 19.1084 15.3899 21.6201 15.0154C22.0459 14.9545 22.266 15.1608 22.1298 15.6469Z"
                     fill="currentColor" fill-opacity="0.85" />
              <path d="M4.26772 6.98596L1.17971 5.26272C0.565814 4.91413-0.0486319 5.22366 0.00304709 6.01674L0.235663 9.21786C0.277577 9.87828 0.815657 10.178 1.41233 9.85875L4.22635 8.39118C4.94822 8.0156 4.87416 7.33455 4.26772 6.98596ZM8.81037 0.593113C8.54791 0.0360474 7.88003-0.179888 7.27874 0.168702C4.54449 1.72878 2.34097 4.10916 0.992226 6.95599L2.97065 7.87888C4.10346 5.41224 5.96123 3.39767 8.30729 2.07591C8.85459 1.76177 9.07798 1.17026 8.81037 0.593113ZM25.3187 6.98596C24.7071 7.33455 24.6382 8.0179 25.3601 8.39118L28.1741 9.85875C28.7731 10.178 29.3065 9.87828 29.3531 9.21786L29.5759 6.01674C29.6374 5.22366 29.0206 4.91413 28.409 5.26272ZM20.7784 0.593113C20.5084 1.17026 20.7318 1.76177 21.2791 2.07591C23.6252 3.39767 25.4853 5.41224 26.6158 7.87888L28.5942 6.95599C27.2454 4.10916 25.0345 1.72878 22.3077 0.168702C21.6989-0.179888 21.0385 0.0360474 20.7784 0.593113Z"
                     fill="currentColor" fill-opacity="0.85" />
       </g>
</svg>