<?xml version="1.0" encoding="UTF-8"?>
<!--Generator: Apple Native CoreSVG 326-->
<!DOCTYPE svg PUBLIC "-//W3C//DTD SVG 1.1//EN" "http://www.w3.org/Graphics/SVG/1.1/DTD/svg11.dtd">
<svg version="1.1" xmlns="http://www.w3.org/2000/svg" xmlns:xlink="http://www.w3.org/1999/xlink"
       viewBox="0 0 24.6449 23.5952">
       <g>
              <rect height="23.5952" opacity="0" width="24.6449" x="0" y="0" />
              <path d="M13.7186 0.416404L22.6254 5.55167C23.136 5.85374 23.3841 6.25686 23.3841 6.69158C23.3841 7.28595 22.9074 7.89293 22.1092 7.89293L21.3244 7.89293L21.3244 19.392L21.7032 19.392C22.2379 19.392 22.5744 19.7159 22.5744 20.2632L22.5744 21.1701L23.0673 21.1701C23.7134 21.1701 24.2836 21.7231 24.2836 22.3766C24.2836 23.0525 23.7134 23.5854 23.0673 23.5854L1.20651 23.5854C0.553002 23.5854 0 23.045 0 22.3766C0 21.7231 0.553002 21.1701 1.20651 21.1701L1.94045 21.1701L1.94045 20.2632C1.94045 19.7159 2.27927 19.392 2.81396 19.392L3.19045 19.392L3.19045 7.89293L2.41314 7.89293C1.60745 7.89293 1.13081 7.28595 1.13081 6.69158C1.13081 6.25686 1.37659 5.85374 1.88944 5.55167L10.7963 0.416404C11.242 0.154491 11.7664 0 12.2563 0C12.7462 0 13.2683 0.154491 13.7186 0.416404ZM9.49122 11.2105C9.49122 11.6085 9.57966 11.9871 9.68138 12.3985L8.80114 12.3985C8.4577 12.3985 8.22739 12.6116 8.22739 12.9257C8.22739 13.2421 8.4577 13.4478 8.80114 13.4478L9.90368 13.4478C9.93935 13.5933 9.95833 13.729 9.95833 13.8602C9.95833 14.5561 9.6468 15.1869 9.07148 15.5488C8.72113 15.7658 8.36399 16.0759 8.36399 16.5353C8.36399 17.0842 8.76535 17.411 9.26206 17.411L14.791 17.411C15.3399 17.411 15.7184 17.0767 15.7184 16.5399C15.7184 15.9433 15.2877 15.6464 14.791 15.6464L11.187 15.6464L11.187 15.5924C11.8162 15.2277 12.068 14.5209 12.068 13.774C12.068 13.6486 12.061 13.5398 12.0397 13.4478L14.2402 13.4478C14.5837 13.4478 14.8237 13.2347 14.8237 12.9257C14.8237 12.6167 14.5837 12.3985 14.2402 12.3985L11.8054 12.3985C11.7186 12.0564 11.6744 11.8134 11.6744 11.5318C11.6744 10.6257 12.4339 10.1877 13.4796 10.1877C13.7572 10.1877 14.1816 10.2314 14.408 10.2625C14.5539 10.2941 14.7148 10.3084 14.8842 10.3084C15.3316 10.3084 15.6267 10.0328 15.6267 9.62509C15.6267 9.03084 15.1605 8.77014 14.568 8.65241C14.148 8.53455 13.7051 8.49319 13.099 8.49319C11.24 8.49319 9.49122 9.32636 9.49122 11.2105Z"
                     fill="currentColor" fill-opacity="0.85" />
       </g>
</svg>