<?xml version="1.0" encoding="UTF-8"?>
<!--Generator: Apple Native CoreSVG 326-->
<!DOCTYPE svg PUBLIC "-//W3C//DTD SVG 1.1//EN" "http://www.w3.org/Graphics/SVG/1.1/DTD/svg11.dtd">
<svg version="1.1" xmlns="http://www.w3.org/2000/svg" xmlns:xlink="http://www.w3.org/1999/xlink"
       viewBox="0 0 19.3993 19.0529">
       <g>
              <rect height="19.0529" opacity="0" width="19.3993" x="0" y="0" />
              <path d="M19.0379 3.63912L19.0379 15.4011C19.0379 17.7262 17.7164 19.0379 15.3896 19.0379L3.64834 19.0379C1.32382 19.0379 0 17.7262 0 15.4011L0 3.63912C0 1.32151 1.32382 0 3.64834 0L15.3896 0C17.7164 0 19.0379 1.32151 19.0379 3.63912ZM6.84085 7.78393C6.84085 8.17225 6.92698 8.55081 7.0287 8.96964L6.14846 8.96964C5.80503 8.96964 5.58218 9.17526 5.58218 9.4894C5.58218 9.80584 5.80503 10.0115 6.14846 10.0115L7.25101 10.0115C7.28667 10.1667 7.30796 10.2927 7.30796 10.4239C7.30796 11.1198 7.0039 11.7506 6.41881 12.1125C6.06846 12.3318 5.71878 12.647 5.71878 13.1064C5.71878 13.6554 6.11268 13.9821 6.60939 13.9821L12.1383 13.9821C12.6872 13.9821 13.0657 13.6428 13.0657 13.1036C13.0657 12.507 12.635 12.2176 12.1383 12.2176L8.53437 12.2176L8.53437 12.1636C9.16356 11.7914 9.41528 11.0847 9.41528 10.34C9.41528 10.2123 9.41067 10.1035 9.39453 10.0115L11.5876 10.0115C11.9384 10.0115 12.1711 9.79838 12.1711 9.4894C12.1711 9.19018 11.9384 8.96964 11.5876 8.96964L9.155 8.96964C9.0682 8.62244 9.02168 8.38455 9.02168 8.10529C9.02168 7.19684 9.78122 6.75145 10.8269 6.75145C11.112 6.75145 11.5364 6.79512 11.7553 6.83364C11.9013 6.85778 12.0696 6.88192 12.2315 6.88192C12.6789 6.88192 12.974 6.6063 12.974 6.19626C12.974 5.59455 12.5153 5.33385 11.9153 5.21612C11.5028 5.10057 11.0524 5.0592 10.4463 5.0592C8.58732 5.0592 6.84085 5.89753 6.84085 7.78393Z"
                     fill="currentColor" fill-opacity="0.85" />
       </g>
</svg>