<?xml version="1.0" encoding="UTF-8"?>
<!--Generator: Apple Native CoreSVG 326-->
<!DOCTYPE svg PUBLIC "-//W3C//DTD SVG 1.1//EN" "http://www.w3.org/Graphics/SVG/1.1/DTD/svg11.dtd">
<svg version="1.1" xmlns="http://www.w3.org/2000/svg" xmlns:xlink="http://www.w3.org/1999/xlink"
       viewBox="0 0 24.6449 23.5952">
       <g>
              <rect height="23.5952" opacity="0" width="24.6449" x="0" y="0" />
              <path d="M1.94045 20.4256L22.5744 20.4256L22.5744 19.4355C22.5744 18.8957 22.2379 18.5718 21.7032 18.5718L21.3244 18.5718L21.3244 7.89293L22.1092 7.89293C22.9074 7.89293 23.3841 7.28595 23.3841 6.69158C23.3841 6.25686 23.136 5.85374 22.6254 5.55167L13.7186 0.416404C13.2683 0.154491 12.7462 0 12.2563 0C11.7664 0 11.242 0.154491 10.7963 0.416404L1.88944 5.55167C1.37659 5.85374 1.13081 6.25686 1.13081 6.69158C1.13081 7.28595 1.60745 7.89293 2.41314 7.89293L3.19045 7.89293L3.19045 18.5718L2.81396 18.5718C2.27927 18.5718 1.94045 18.8957 1.94045 19.4355ZM5.29922 18.5718L5.29922 6.39673L12.047 2.62732C12.1194 2.5888 12.1965 2.57212 12.2563 2.57212C12.331 2.57212 12.3931 2.5888 12.4679 2.62732L19.2157 6.39673L19.2157 18.5718ZM1.20651 23.5854L23.0673 23.5854C23.7134 23.5854 24.2836 23.0525 24.2836 22.3766C24.2836 21.7231 23.7134 21.1701 23.0673 21.1701L1.20651 21.1701C0.553002 21.1701 0 21.7231 0 22.3766C0 23.045 0.553002 23.5854 1.20651 23.5854Z"
                     fill="currentColor" fill-opacity="0.85" />
              <path d="M9.42456 15.7411L14.6285 15.7411C15.1378 15.7411 15.4841 15.4241 15.4841 14.9171C15.4841 14.3751 15.0856 14.0931 14.6285 14.0931L11.2284 14.0931L11.2284 14.0414C11.8134 13.7014 12.0553 13.029 12.0553 12.3286C12.0553 12.2204 12.0484 12.114 12.0271 12.0242L14.0996 12.0242C14.4183 12.0242 14.6412 11.8186 14.6412 11.5343C14.6412 11.2425 14.4183 11.0444 14.0996 11.0444L11.81 11.0444C11.7255 10.7093 11.6813 10.4811 11.6813 10.2266C11.6813 9.37209 12.3966 8.95369 13.3809 8.95369C13.6487 8.95369 14.041 8.99736 14.2576 9.02611C14.3886 9.05025 14.5471 9.06693 14.7016 9.06693C15.1168 9.06693 15.3948 8.816 15.3948 8.43065C15.3948 7.88578 14.9607 7.63254 14.413 7.51996C14.0125 7.41418 13.6018 7.37281 13.0249 7.37281C11.2842 7.37281 9.64911 8.16176 9.64911 9.92758C9.64911 10.2912 9.73008 10.6525 9.8295 11.0444L9.0107 11.0444C8.67703 11.0444 8.4691 11.2351 8.4691 11.5343C8.4691 11.8261 8.67703 12.0242 9.0107 12.0242L10.0369 12.0242C10.0702 12.16 10.0818 12.2859 10.0818 12.4125C10.0818 13.0665 9.80469 13.668 9.2489 13.9977C8.92324 14.2073 8.59078 14.495 8.59078 14.9199C8.59078 15.4293 8.95999 15.7411 9.42456 15.7411Z"
                     fill="currentColor" fill-opacity="0.85" />
       </g>
</svg>