<?xml version="1.0" encoding="UTF-8"?>
<!--Generator: Apple Native CoreSVG 326-->
<!DOCTYPE svg PUBLIC "-//W3C//DTD SVG 1.1//EN" "http://www.w3.org/Graphics/SVG/1.1/DTD/svg11.dtd">
<svg version="1.1" xmlns="http://www.w3.org/2000/svg" xmlns:xlink="http://www.w3.org/1999/xlink"
       viewBox="0 0 19.3993 19.0529">
       <g>
              <rect height="19.0529" opacity="0" width="19.3993" x="0" y="0" />
              <path d="M3.64834 19.0379L15.3896 19.0379C17.7164 19.0379 19.0379 17.7262 19.0379 15.4011L19.0379 3.63912C19.0379 1.32151 17.7164 0 15.3896 0L3.64834 0C1.32382 0 0 1.32151 0 3.63912L0 15.4011C0 17.7262 1.32382 19.0379 3.64834 19.0379ZM4.05583 16.0183C3.37024 16.0183 3.01964 15.7096 3.01964 14.9775L3.01964 4.07021C3.01964 3.33809 3.37024 3.0271 4.05583 3.0271L14.9821 3.0271C15.6654 3.0271 16.0183 3.33809 16.0183 4.07021L16.0183 14.9775C16.0183 15.7096 15.6654 16.0183 14.9821 16.0183Z"
                     fill="currentColor" fill-opacity="0.85" />
              <path d="M6.68982 13.7037L11.8863 13.7037C12.3956 13.7037 12.7494 13.389 12.7494 12.882C12.7494 12.3325 12.3434 12.0579 11.8863 12.0579L8.48621 12.0579L8.48621 12.004C9.07864 11.6588 9.31313 10.9939 9.31313 10.2935C9.31313 10.1755 9.30852 10.0765 9.29239 9.97932L11.3574 9.97932C11.6761 9.97932 11.899 9.78115 11.899 9.4894C11.899 9.20741 11.6761 9.00925 11.3574 9.00925L9.07755 9.00925C8.99305 8.67412 8.94653 8.44599 8.94653 8.19142C8.94653 7.33696 9.65438 6.91855 10.6386 6.91855C10.9065 6.91855 11.3062 6.95246 11.5154 6.99098C11.6538 7.01512 11.8049 7.0318 11.9669 7.0318C12.3821 7.0318 12.66 6.78086 12.66 6.39552C12.66 5.84834 12.226 5.5951 11.6708 5.48483C11.2777 5.37674 10.8596 5.33767 10.2902 5.33767C8.54201 5.33767 6.91667 6.12432 6.91667 7.89245C6.91667 8.25608 6.98788 8.61741 7.09476 9.00925L6.2685 9.00925C5.94229 9.00925 5.7269 9.19995 5.7269 9.4894C5.7269 9.78862 5.94229 9.97932 6.2685 9.97932L7.30214 9.97932C7.32804 10.1248 7.34933 10.2485 7.34933 10.3773C7.34933 11.029 7.06479 11.6254 6.5067 11.9626C6.1885 12.1647 5.85604 12.4575 5.85604 12.8848C5.85604 13.3941 6.22525 13.7037 6.68982 13.7037Z"
                     fill="currentColor" fill-opacity="0.85" />
       </g>
</svg>