<?xml version="1.0" encoding="UTF-8"?>
<!--Generator: Apple Native CoreSVG 326-->
<!DOCTYPE svg PUBLIC "-//W3C//DTD SVG 1.1//EN" "http://www.w3.org/Graphics/SVG/1.1/DTD/svg11.dtd">
<svg version="1.1" xmlns="http://www.w3.org/2000/svg" xmlns:xlink="http://www.w3.org/1999/xlink"
       viewBox="0 0 24.3303 21.006">
       <g>
              <rect height="21.006" opacity="0" width="24.3303" x="0" y="0" />
              <path d="M11.9856 20.9962C17.7821 20.9962 22.4837 16.2946 22.4837 10.4981C22.4837 4.70163 17.7821 0 11.9856 0C6.18916 0 1.48753 4.70163 1.48753 10.4981L4.53538 10.4981C4.53538 6.37829 7.86582 3.04785 11.9856 3.04785C16.1055 3.04785 19.4359 6.37829 19.4359 10.4981C19.4359 14.6179 16.1055 17.9484 11.9856 17.9484C9.86874 17.9484 8.05458 17.1034 6.64712 15.6524C5.97135 15.0132 5.0498 14.8117 4.35614 15.4438C3.73423 16.0162 3.72149 16.9286 4.44894 17.7463C6.08398 19.7011 9.21457 20.9962 11.9856 20.9962ZM0.808605 8.39698C-0.0138912 8.39698-0.212055 9.15901 0.22849 9.72826L2.75918 13.0277C3.05907 13.4322 3.60988 13.4224 3.91492 13.0277L6.43585 9.72596C6.86894 9.15901 6.66847 8.39698 5.8655 8.39698Z"
                     fill="currentColor" fill-opacity="0.85" />
              <path d="M9.43511 14.2475L14.1093 14.2475C14.559 14.2475 14.868 13.9701 14.868 13.5228C14.868 13.0404 14.5142 12.7958 14.1093 12.7958L11.0301 12.7958L11.0301 12.7492C11.5628 12.4413 11.7824 11.8436 11.7824 11.2104C11.7824 11.0999 11.7755 11.0009 11.7542 10.9111L13.6252 10.9111C13.9066 10.9111 14.1071 10.7279 14.1071 10.4734C14.1071 10.2213 13.9066 10.0455 13.6252 10.0455L11.5594 10.0455C11.4824 9.74021 11.4456 9.53447 11.4456 9.30228C11.4456 8.52988 12.0863 8.14132 12.9736 8.14132C13.2265 8.14132 13.574 8.18269 13.7683 8.21374C13.8844 8.23042 14.028 8.2471 14.1676 8.2471C14.538 8.2471 14.7786 8.02601 14.7786 7.68543C14.7786 7.2054 14.3968 6.982 13.9162 6.87919C13.553 6.78602 13.187 6.75442 12.6699 6.75442C11.1082 6.75442 9.66196 7.459 9.66196 9.0406C9.66196 9.36693 9.72571 9.69096 9.81767 10.0455L9.07348 10.0455C8.78457 10.0455 8.59157 10.2138 8.59157 10.4734C8.59157 10.7353 8.78457 10.9111 9.07348 10.9111L10.0027 10.9111C10.0286 11.0417 10.0499 11.1579 10.0499 11.2793C10.0499 11.8713 9.7854 12.4154 9.28183 12.7153C8.99347 12.8951 8.70578 13.1431 8.70578 13.5256C8.70578 13.9753 9.03023 14.2475 9.43511 14.2475Z"
                     fill="currentColor" fill-opacity="0.85" />
       </g>
</svg>