<?xml version="1.0" encoding="UTF-8"?>
<!--Generator: Apple Native CoreSVG 326-->
<!DOCTYPE svg PUBLIC "-//W3C//DTD SVG 1.1//EN" "http://www.w3.org/Graphics/SVG/1.1/DTD/svg11.dtd">
<svg version="1.1" xmlns="http://www.w3.org/2000/svg" xmlns:xlink="http://www.w3.org/1999/xlink"
       viewBox="0 0 21.365 21.006">
       <g>
              <rect height="21.006" opacity="0" width="21.365" x="0" y="0" />
              <path d="M21.0037 10.4981C21.0037 16.2946 16.302 20.9962 10.4981 20.9962C4.70394 20.9962 0 16.2946 0 10.4981C0 4.70394 4.70394 0 10.4981 0C16.302 0 21.0037 4.70394 21.0037 10.4981ZM7.73304 8.76049C7.73304 9.14881 7.81171 9.52737 7.92089 9.9462L7.04065 9.9462C6.68976 9.9462 6.46691 10.1518 6.46691 10.4683C6.46691 10.7847 6.68976 10.988 7.04065 10.988L8.1432 10.988C8.17886 11.1433 8.19269 11.2716 8.19269 11.4004C8.19269 12.0986 7.88632 12.7272 7.311 13.089C6.96065 13.3084 6.6035 13.6259 6.6035 14.083C6.6035 14.6319 7.00487 14.9587 7.49412 14.9587L13.0305 14.9587C13.5794 14.9587 13.9579 14.6193 13.9579 14.0802C13.9579 13.4836 13.5272 13.1941 13.0305 13.1941L9.42656 13.1941L9.42656 13.1425C10.0557 12.768 10.3075 12.0612 10.3075 11.3166C10.3075 11.1912 10.3006 11.0801 10.2793 10.988L12.4723 10.988C12.8232 10.988 13.0558 10.7772 13.0558 10.4683C13.0558 10.1667 12.8232 9.9462 12.4723 9.9462L10.0449 9.9462C9.95809 9.599 9.91387 9.36111 9.91387 9.08185C9.91387 8.17341 10.6659 7.72801 11.7117 7.72801C11.9967 7.72801 12.4211 7.77399 12.6475 7.8102C12.786 7.83434 12.9543 7.85848 13.1237 7.85848C13.5711 7.85848 13.8662 7.58286 13.8662 7.17282C13.8662 6.57342 13.4 6.31041 12.8075 6.19268C12.3875 6.07713 11.9446 6.03576 11.3385 6.03576C9.47951 6.03576 7.73304 6.8764 7.73304 8.76049Z"
                     fill="currentColor" fill-opacity="0.85" />
       </g>
</svg>