<?xml version="1.0" encoding="UTF-8"?>
<!--Generator: Apple Native CoreSVG 326-->
<!DOCTYPE svg PUBLIC "-//W3C//DTD SVG 1.1//EN" "http://www.w3.org/Graphics/SVG/1.1/DTD/svg11.dtd">
<svg version="1.1" xmlns="http://www.w3.org/2000/svg" xmlns:xlink="http://www.w3.org/1999/xlink"
       viewBox="0 0 21.365 21.006">
       <g>
              <rect height="21.006" opacity="0" width="21.365" x="0" y="0" />
              <path d="M21.0037 10.5079C21.0037 16.3043 16.302 21.006 10.4981 21.006C4.70394 21.006 0 16.3043 0 10.5079C0 4.7137 4.70394 0.00976562 10.4981 0.00976562C16.302 0.00976562 21.0037 4.7137 21.0037 10.5079ZM8.22599 6.74423C8.22599 7.28243 8.639 7.71497 9.18181 7.71497C9.41564 7.71497 9.6374 7.62532 9.80111 7.48223L9.85631 7.48223C10.1006 7.48223 10.2316 7.60294 10.2316 7.83349C10.2316 9.15791 8.85166 11.1578 7.95189 11.1578C7.05727 11.1578 5.68711 9.16537 5.68711 7.83349C5.68711 7.60063 5.81583 7.48223 6.06009 7.48223L6.11298 7.48223C6.27669 7.62532 6.49845 7.71497 6.73689 7.71497C7.26763 7.71497 7.6904 7.28243 7.6904 6.74423C7.6904 6.21864 7.25271 5.78095 6.73689 5.78095C6.49845 5.78095 6.27439 5.88036 6.11068 6.03322L6.07677 6.03322C4.90095 6.03322 4.25302 6.68576 4.25302 7.83349C4.25302 9.70291 5.79205 11.9619 7.2535 12.4788C7.36607 14.6744 8.24443 15.8412 9.80693 15.8412C11.4004 15.8412 12.2724 14.8152 12.5804 12.5637C12.7344 11.3765 13.0114 10.875 13.4946 10.875C13.956 10.875 14.2255 11.2646 14.3031 12.1158C13.7453 12.3875 13.3632 12.9631 13.3632 13.6163C13.3632 14.5613 14.118 15.3258 15.048 15.3258C16.0005 15.3258 16.7599 14.5664 16.7599 13.6163C16.7599 12.9264 16.3192 12.3266 15.7102 12.0693C15.5178 10.2958 14.8216 9.4581 13.5319 9.4581C12.2102 9.4581 11.4319 10.3445 11.1733 12.1675C10.9359 13.8078 10.5929 14.4071 9.84248 14.4071C9.15931 14.4071 8.7611 13.7595 8.67782 12.4788C10.1467 11.9492 11.6582 9.70752 11.6582 7.83349C11.6582 6.68576 11.0126 6.03322 9.83963 6.03322L9.80572 6.03322C9.64201 5.88036 9.41795 5.78095 9.18181 5.78095C8.66138 5.78095 8.22599 6.21864 8.22599 6.74423ZM15.5078 13.6163C15.5078 13.8606 15.2998 14.0612 15.0555 14.0612C14.8187 14.0612 14.6227 13.8606 14.6227 13.6163C14.6227 13.3795 14.8187 13.1812 15.0555 13.1812C15.3021 13.1812 15.5078 13.3795 15.5078 13.6163Z"
                     fill="currentColor" fill-opacity="0.85" />
       </g>
</svg>