<?xml version="1.0" encoding="UTF-8"?>
<!--Generator: Apple Native CoreSVG 326-->
<!DOCTYPE svg PUBLIC "-//W3C//DTD SVG 1.1//EN" "http://www.w3.org/Graphics/SVG/1.1/DTD/svg11.dtd">
<svg version="1.1" xmlns="http://www.w3.org/2000/svg" xmlns:xlink="http://www.w3.org/1999/xlink"
       viewBox="0 0 28.7149 22.9771">
       <g>
              <rect height="22.9771" opacity="0" width="28.7149" x="0" y="0" />
              <path d="M4.19437 2.55787C4.19437 3.12048 4.4344 3.63182 4.81799 3.99281L4.64935 3.99281C3.9936 3.99281 3.60231 4.38477 3.60231 5.02857C3.60231 8.08697 6.76952 12.7538 8.96333 12.7538C11.1497 12.7538 14.3192 8.08697 14.3192 5.02857C14.3192 4.38477 13.9279 3.99281 13.2698 3.99281L13.0989 3.99281C13.4825 3.63182 13.7225 3.12048 13.7225 2.55787C13.7225 2.00681 13.4923 1.50494 13.1229 1.14476L13.2365 1.14476C15.8267 1.14476 17.1672 2.53925 17.1672 5.0481C17.1672 9.17008 13.6681 14.315 10.3935 15.3799C10.5614 18.4846 11.5025 20.129 13.2347 20.129C15.2456 20.129 15.9581 18.3198 16.4649 14.8774C17.0447 10.8261 18.7441 8.91408 21.6268 8.91408C24.3295 8.91408 25.9842 10.5864 26.3678 14.7804C25.9701 14.6252 25.5369 14.5421 25.0844 14.5416C24.5403 14.541 24.0243 14.6601 23.563 14.8774C23.4105 12.5824 22.6641 11.7547 21.5447 11.7547C20.3726 11.7547 19.6401 12.756 19.2389 15.7064C18.5902 20.5616 16.801 22.9771 13.1757 22.9771C9.69832 22.9771 7.78008 20.3558 7.54748 15.3855C4.26736 14.3355 0.754258 9.17829 0.754258 5.0481C0.754258 2.53925 2.09476 1.14476 4.68271 1.14476L4.79398 1.14476C4.42464 1.50494 4.19437 2.00681 4.19437 2.55787Z"
                     fill="currentColor" fill-opacity="0.85" />
              <path d="M6.1763 4.53981C7.26059 4.53981 8.15594 3.64446 8.15594 2.55787C8.15594 1.47127 7.26059 0.57593 6.1763 0.57593C5.08971 0.57593 4.19437 1.47127 4.19437 2.55787C4.19437 3.64446 5.08971 4.53981 6.1763 4.53981ZM11.7406 4.53981C12.8272 4.53981 13.7225 3.64446 13.7225 2.55787C13.7225 1.47127 12.8272 0.57593 11.7406 0.57593C10.6563 0.57593 9.76096 1.47127 9.76096 2.55787C9.76096 3.64446 10.6563 4.53981 11.7406 4.53981ZM25.0844 21.8125C27.0895 21.8125 28.7149 20.1819 28.7149 18.1722C28.7149 16.1671 27.0895 14.5439 25.0844 14.5416C23.077 14.5393 21.4515 16.1671 21.4515 18.1722C21.4515 20.1819 23.077 21.8125 25.0844 21.8125ZM25.0918 19.212C24.5176 19.212 24.0497 18.739 24.0497 18.1647C24.0497 17.5882 24.5176 17.1324 25.0918 17.1324C25.6661 17.1324 26.1317 17.5882 26.1317 18.1647C26.1317 18.739 25.6661 19.212 25.0918 19.212Z"
                     fill="currentColor" fill-opacity="0.85" />
       </g>
</svg>