<?xml version="1.0" encoding="UTF-8"?>
<!--Generator: Apple Native CoreSVG 326-->
<!DOCTYPE svg PUBLIC "-//W3C//DTD SVG 1.1//EN" "http://www.w3.org/Graphics/SVG/1.1/DTD/svg11.dtd">
<svg version="1.1" xmlns="http://www.w3.org/2000/svg" xmlns:xlink="http://www.w3.org/1999/xlink"
       viewBox="0 0 21.365 21.006">
       <g>
              <rect height="21.006" opacity="0" width="21.365" x="0" y="0" />
              <path d="M10.4981 20.9962C16.302 20.9962 21.0037 16.2946 21.0037 10.4981C21.0037 4.70163 16.302 0 10.4981 0C4.70163 0 0 4.70163 0 10.4981C0 16.2946 4.70163 20.9962 10.4981 20.9962ZM10.4981 17.9484C6.37829 17.9484 3.04785 14.6179 3.04785 10.4981C3.04785 6.37829 6.37829 3.04785 10.4981 3.04785C14.6179 3.04785 17.9558 6.37829 17.9558 10.4981C17.9558 14.6179 14.6179 17.9484 10.4981 17.9484Z"
                     fill="currentColor" fill-opacity="0.85" />
              <path d="M4.79153 8.08552C4.79153 10.0245 6.61145 12.4265 8.07411 12.4265L8.27173 12.4265C9.74185 12.4265 11.5543 10.0245 11.5543 8.08552C11.5543 7.02676 10.9655 6.43852 9.89131 6.43852L9.3363 6.43852L9.3363 7.74172L9.90799 7.74172C10.135 7.74172 10.2563 7.86473 10.2563 8.08552C10.2563 9.29397 8.99232 11.121 8.16661 11.121C7.34606 11.121 6.09703 9.30143 6.09703 8.08552C6.09703 7.86242 6.21082 7.74172 6.43785 7.74172L7.017 7.74172L7.017 6.43852L6.45454 6.43852C5.39008 6.43852 4.79153 7.02676 4.79153 8.08552ZM9.87353 15.3992C11.3212 15.3992 12.1042 14.4546 12.3949 12.3932C12.5392 11.3048 12.799 10.8526 13.2328 10.8526C13.7925 10.8526 14.0275 11.4335 13.9868 12.7528L15.2998 12.7528C15.2744 10.5806 14.6304 9.55685 13.2702 9.55685C12.0695 9.55685 11.3555 10.3692 11.1164 12.0343C10.8963 13.5437 10.5855 14.0937 9.89416 14.0937C9.14778 14.0937 8.77196 13.2433 8.81848 11.5381L7.52275 11.5381C7.44408 14.0468 8.26275 15.3992 9.87353 15.3992ZM7.05552 7.95953C7.53919 7.95953 7.92751 7.56891 7.92751 7.07778C7.92751 6.59926 7.53173 6.20348 7.05552 6.20348C6.5793 6.20348 6.17891 6.60157 6.17891 7.07778C6.17891 7.56891 6.56954 7.95953 7.05552 7.95953ZM9.29033 7.95953C9.77169 7.95953 10.1623 7.56891 10.1623 7.07778C10.1623 6.60157 9.76423 6.20348 9.29033 6.20348C8.81181 6.20348 8.41603 6.59926 8.41603 7.07778C8.41603 7.56891 8.80435 7.95953 9.29033 7.95953ZM14.6628 14.9182C15.5263 14.9182 16.2139 14.2306 16.2139 13.3694C16.2139 12.5232 15.5165 11.8304 14.6628 11.8304C13.8166 11.8281 13.1163 12.5232 13.1163 13.3694C13.1163 14.2254 13.8143 14.9182 14.6628 14.9182ZM14.6703 13.7798C14.4432 13.7798 14.2645 13.5965 14.2645 13.3694C14.2645 13.1401 14.4432 12.9614 14.6703 12.9614C14.8996 12.9614 15.0732 13.1401 15.0732 13.3694C15.0732 13.5965 14.8973 13.7798 14.6703 13.7798Z"
                     fill="currentColor" fill-opacity="0.85" />
       </g>
</svg>