<?xml version="1.0" encoding="UTF-8"?>
<!--Generator: Apple Native CoreSVG 326-->
<!DOCTYPE svg PUBLIC "-//W3C//DTD SVG 1.1//EN" "http://www.w3.org/Graphics/SVG/1.1/DTD/svg11.dtd">
<svg version="1.1" xmlns="http://www.w3.org/2000/svg" xmlns:xlink="http://www.w3.org/1999/xlink"
       viewBox="0 0 21.365 21.006">
       <g>
              <rect height="21.006" opacity="0" width="21.365" x="0" y="0" />
              <path d="M21.0037 10.4981C21.0037 16.2923 16.302 20.9962 10.4981 20.9962C4.70394 20.9962 0 16.2923 0 10.4981C0 4.70163 4.70394 0 10.4981 0C16.302 0 21.0037 4.70163 21.0037 10.4981ZM11.7419 11.542C11.2886 11.542 10.8497 11.3961 10.4958 11.1576C10.1419 11.3961 9.71049 11.542 9.26467 11.542C8.78439 11.542 8.37017 11.3961 8.00369 11.1576C7.64752 11.3961 7.2333 11.542 6.75533 11.542C6.41693 11.542 6.0906 11.4593 5.80564 11.3277L5.80564 14.5915C5.80564 15.344 6.28985 15.8236 7.08942 15.8236L13.9022 15.8236C14.7092 15.8236 15.1911 15.344 15.1911 14.5915L15.1911 11.3208C14.9033 11.4547 14.5747 11.542 14.2363 11.542C13.7658 11.542 13.3516 11.3961 12.9977 11.1576C12.6415 11.3961 12.2049 11.542 11.7419 11.542ZM12.1953 12.8168L12.1953 14.7087L8.78142 14.7087L8.78142 12.8168C8.78142 12.6048 8.92275 12.4635 9.15943 12.4635L11.8442 12.4635C12.0562 12.4635 12.1953 12.6048 12.1953 12.8168ZM5.10372 9.23337L5.10372 9.31162C5.10372 10.1174 5.84076 10.8268 6.74841 10.8268C7.25283 10.8268 7.7015 10.6027 7.99677 10.2448C8.28744 10.6027 8.75103 10.8268 9.25775 10.8268C9.75471 10.8268 10.1862 10.6027 10.4889 10.2448C10.7991 10.6027 11.2282 10.8268 11.7349 10.8268C12.2417 10.8268 12.688 10.6027 12.9885 10.2597C13.2763 10.6027 13.7249 10.8268 14.2294 10.8268C15.1445 10.8268 15.8741 10.0869 15.8741 9.28111L15.8741 9.23337ZM8.04118 5.17032C7.46567 5.17032 6.97345 5.45177 6.68915 5.94399L5.20423 8.53255L15.7712 8.53255L14.2938 5.94399C14.002 5.45177 13.5098 5.17032 12.9441 5.17032Z"
                     fill="currentColor" fill-opacity="0.85" />
       </g>
</svg>