<?xml version="1.0" encoding="UTF-8"?>
<!--Generator: Apple Native CoreSVG 326-->
<!DOCTYPE svg PUBLIC "-//W3C//DTD SVG 1.1//EN" "http://www.w3.org/Graphics/SVG/1.1/DTD/svg11.dtd">
<svg version="1.1" xmlns="http://www.w3.org/2000/svg" xmlns:xlink="http://www.w3.org/1999/xlink"
       viewBox="0 0 24.265 23.2812">
       <g>
              <rect height="23.2812" opacity="0" width="24.265" x="0" y="0" />
              <path d="M3.66296 13.1254C4.76933 13.1254 5.76136 12.6348 6.43167 11.8513C7.09221 12.6348 8.08424 13.1254 9.19061 13.1254C10.2993 13.1254 11.2913 12.6348 11.9593 11.8513C12.6199 12.6348 13.6119 13.1254 14.7206 13.1254C15.8367 13.1254 16.819 12.6348 17.4818 11.8587C18.1424 12.6348 19.1344 13.1254 20.2407 13.1254C22.2799 13.1254 23.9037 11.4867 23.9037 9.46708L23.9037 9.13693C23.9037 8.62924 23.7687 8.14569 23.4988 7.7092L20.9855 3.5838L20.9855 2.64643C20.9855 1.04808 19.9105 0 18.2926 0L5.61342 0C3.99554 0 2.91816 1.04808 2.91816 2.64643L2.91816 3.5838L0.404879 7.7092C0.13496 8.14569 0 8.62924 0 9.13693L0 9.46708C0 11.4867 1.62382 13.1254 3.66296 13.1254ZM5.64617 3.13932L5.64617 2.88256C5.64617 2.58826 5.85477 2.37736 6.14677 2.37736L17.7569 2.37736C18.0489 2.37736 18.2575 2.58826 18.2575 2.88256L18.2575 3.13932ZM3.20398 8.36678L4.7561 5.68827L19.1217 5.68827L20.6951 8.36678ZM2.11393 10.363L5.20453 10.363C4.94492 10.9003 4.42262 11.2113 3.66296 11.2113C2.89584 11.2113 2.37353 10.9003 2.11393 10.363ZM7.64388 10.363L10.7322 10.363C10.48 10.9003 9.95772 11.2113 9.19061 11.2113C8.4258 11.2113 7.90118 10.9003 7.64388 10.363ZM13.179 10.363L16.2696 10.363C16.01 10.9003 15.4877 11.2113 14.7206 11.2113C13.9534 11.2113 13.4311 10.9003 13.179 10.363ZM18.7015 10.363L21.7898 10.363C21.5302 10.9003 21.0079 11.2113 20.2407 11.2113C19.4759 11.2113 18.9588 10.9003 18.7015 10.363ZM4.5335 23.2714L19.3702 23.2714C21.1449 23.2714 22.2016 22.2193 22.2016 20.5462L22.2016 12.0761L19.182 12.09L19.182 19.3699C19.182 19.9301 18.8649 20.2518 18.307 20.2518L5.59898 20.2518C5.04113 20.2518 4.72171 19.9301 4.72171 19.3699L4.72171 12.0877L1.70207 12.0831L1.70207 20.5462C1.70207 22.2193 2.75882 23.2714 4.5335 23.2714ZM5.87157 22.2389L11.4466 22.2389L11.4466 15.5716C11.4466 15.0925 11.1388 14.7846 10.6597 14.7846L6.66829 14.7846C6.18923 14.7846 5.87157 15.0925 5.87157 15.5716ZM12.738 15.0689L12.738 17.8676C12.738 18.3489 13.0533 18.6545 13.5347 18.6545L17.4398 18.6545C17.9189 18.6545 18.2245 18.3489 18.2245 17.8676L18.2245 15.0689C18.2245 14.5875 17.9189 14.282 17.4398 14.282L13.5347 14.282C13.0533 14.282 12.738 14.5875 12.738 15.0689Z"
                     fill="currentColor" fill-opacity="0.85" />
       </g>
</svg>