<?xml version="1.0" encoding="UTF-8"?>
<!--Generator: Apple Native CoreSVG 326-->
<!DOCTYPE svg PUBLIC "-//W3C//DTD SVG 1.1//EN" "http://www.w3.org/Graphics/SVG/1.1/DTD/svg11.dtd">
<svg version="1.1" xmlns="http://www.w3.org/2000/svg" xmlns:xlink="http://www.w3.org/1999/xlink"
       viewBox="0 0 23.9266 23.2858">
       <g>
              <rect height="23.2858" opacity="0" width="23.9266" x="0" y="0" />
              <path d="M4.3781 23.2737L19.2125 23.2737C20.9895 23.2737 22.0439 22.2216 22.0439 20.5485L22.0439 13.5209C21.4207 13.8133 20.7176 13.9811 19.9679 13.9811C18.9587 13.9811 18.0247 13.6738 17.2516 13.1613C16.4761 13.6738 15.5347 13.9811 14.5254 13.9811C13.5185 13.9811 12.5747 13.6738 11.8016 13.1562C11.0233 13.6738 10.087 13.9811 9.07263 13.9811C8.06338 13.9811 7.12939 13.6738 6.35397 13.1539C5.57338 13.6738 4.63194 13.9811 3.62268 13.9811C2.8805 13.9811 2.17222 13.8202 1.54436 13.5347L1.54436 20.5485C1.54436 22.2216 2.60112 23.2737 4.3781 23.2737ZM5.76566 20.9479L5.76566 16.8343C5.76566 16.3627 6.08332 16.0548 6.56238 16.0548L10.46 16.0548C10.939 16.0548 11.2469 16.3627 11.2469 16.8343L11.2469 20.9479ZM14.0871 19.5769C13.608 19.5769 13.2904 19.269 13.2904 18.79L13.2904 16.0195C13.2904 15.5405 13.608 15.2326 14.0871 15.2326L17.9922 15.2326C18.4713 15.2326 18.7792 15.5405 18.7792 16.0195L18.7792 18.79C18.7792 19.269 18.4713 19.5769 17.9922 19.5769ZM2.75354 2.73159L20.8094 2.73159L20.8094 2.64873C20.8094 1.05038 19.7343 0 18.1165 0L5.45626 0C3.83092 0 2.75354 1.05038 2.75354 2.64873ZM0.230857 7.62065L23.3321 7.62065C23.2856 7.52475 23.2339 7.4317 23.1724 7.3335L21.1861 4.15634L2.38433 4.15634L0.390504 7.3335C0.329059 7.4317 0.27738 7.52475 0.230857 7.62065ZM3.61116 12.5564C4.706 12.5564 5.67905 12.0778 6.34244 11.3012C6.98861 12.0778 7.97142 12.5564 9.0588 12.5564C10.1559 12.5564 11.1365 12.0755 11.7901 11.3012C12.4437 12.0755 13.4168 12.5564 14.5139 12.5564C15.6111 12.5564 16.5841 12.0778 17.24 11.3087C17.8862 12.0778 18.8667 12.5564 19.9541 12.5564C21.9627 12.5564 23.5652 10.9435 23.5652 9.11673L23.5652 9.03794L0 9.03794L0 9.17775C0 11.0045 1.6123 12.5564 3.61116 12.5564Z"
                     fill="currentColor" fill-opacity="0.85" />
       </g>
</svg>