<?xml version="1.0" encoding="UTF-8"?>
<!--Generator: Apple Native CoreSVG 326-->
<!DOCTYPE svg PUBLIC "-//W3C//DTD SVG 1.1//EN" "http://www.w3.org/Graphics/SVG/1.1/DTD/svg11.dtd">
<svg version="1.1" xmlns="http://www.w3.org/2000/svg" xmlns:xlink="http://www.w3.org/1999/xlink"
       viewBox="0 0 22.2917 21.7261">
       <g>
              <rect height="21.7261" opacity="0" width="22.2917" x="0" y="0" />
              <path d="M2.92162 19.2773L18.999 19.2773C20.7289 19.2773 21.9304 18.0534 21.9304 16.3109L21.9304 2.96639C21.9304 1.22386 20.7289 0 18.999 0L2.92162 0C1.19402 0 0 1.22386 0 2.96639L0 16.3109C0 18.0534 1.19402 19.2773 2.92162 19.2773ZM3.26196 16.5188C2.96942 16.5188 2.76598 16.3107 2.76598 16.0113L2.76598 3.26603C2.76598 2.96887 2.96942 2.75852 3.26196 2.75852L18.7505 2.75852C18.996 2.75852 19.1644 2.93157 19.1644 3.1765L19.1644 16.1008C19.1644 16.348 18.996 16.5188 18.7505 16.5188ZM5.63083 6.00768C6.285 6.00768 6.85129 5.48101 6.85129 4.81191C6.85129 4.13305 6.285 3.60637 5.63083 3.60637C4.97434 3.60637 4.42298 4.13305 4.42298 4.81191C4.42298 5.48101 4.97434 6.00768 5.63083 6.00768ZM9.19625 6.00768C9.85043 6.00768 10.4018 5.48101 10.4018 4.81191C10.4018 4.13305 9.85043 3.60637 9.19625 3.60637C8.53231 3.60637 7.97348 4.13305 7.97348 4.81191C7.97348 5.48101 8.53231 6.00768 9.19625 6.00768ZM12.7393 6.00768C13.3935 6.00768 13.9523 5.48101 13.9523 4.81191C13.9523 4.13305 13.3935 3.60637 12.7393 3.60637C12.0754 3.60637 11.524 4.13305 11.524 4.81191C11.524 5.48101 12.0754 6.00768 12.7393 6.00768ZM16.2973 6.00768C16.9612 6.00768 17.5126 5.48101 17.5126 4.81191C17.5126 4.13305 16.9612 3.60637 16.2973 3.60637C15.6431 3.60637 15.0843 4.13305 15.0843 4.81191C15.0843 5.48101 15.6431 6.00768 16.2973 6.00768ZM2.03653 8.5274L19.9036 8.5274L19.9036 6.73331L2.03653 6.73331ZM4.97477 15.4336L16.9705 15.4336C17.5048 15.4336 17.8587 15.0872 17.8587 14.5478L17.8587 10.3291C17.8587 9.78741 17.5048 9.43354 16.9705 9.43354L4.97477 9.43354C4.43305 9.43354 4.08149 9.78741 4.08149 10.3291L4.08149 14.5478C4.08149 15.0872 4.43305 15.4336 4.97477 15.4336ZM5.84464 13.8796C5.73546 13.8796 5.64296 13.7871 5.64296 13.6779L5.64296 11.1095C5.64296 11.0003 5.73546 10.9055 5.84464 10.9055L16.103 10.9055C16.2098 10.9055 16.3047 11.0003 16.3047 11.1095L16.3047 13.6779C16.3047 13.7871 16.2098 13.8796 16.103 13.8796ZM3.94192 21.6991C4.67179 21.6991 5.18573 21.1852 5.18573 20.4553L5.18573 18.0545L2.68834 18.0545L2.68834 20.4553C2.68834 21.1852 3.21204 21.6991 3.94192 21.6991ZM17.9885 21.6991C18.7183 21.6991 19.2397 21.1852 19.2397 20.4553L19.2397 18.0545L16.7423 18.0545L16.7423 20.4553C16.7423 21.1852 17.2586 21.6991 17.9885 21.6991Z"
                     fill="currentColor" fill-opacity="0.85" />
       </g>
</svg>