<?xml version="1.0" encoding="UTF-8"?>
<!--Generator: Apple Native CoreSVG 326-->
<!DOCTYPE svg PUBLIC "-//W3C//DTD SVG 1.1//EN" "http://www.w3.org/Graphics/SVG/1.1/DTD/svg11.dtd">
<svg version="1.1" xmlns="http://www.w3.org/2000/svg" xmlns:xlink="http://www.w3.org/1999/xlink"
       viewBox="0 0 23.1773 22.1849">
       <g>
              <rect height="22.1849" opacity="0" width="23.1773" x="0" y="0" />
              <path d="M11.5328 6.82538L21.4257 6.82538C20.8256 3.38473 18.0161 0.026446 13.2701 0.026446C12.2593 0.026446 11.5328 0.779916 11.5328 1.79245ZM9.57978 15.1196L15.7804 15.1196C19.7097 15.1196 21.025 12.7843 21.3953 10.4933L21.6922 10.4933C22.3118 10.4933 22.816 9.98684 22.816 9.35978C22.816 8.74018 22.3118 8.236 21.6922 8.236L3.641 8.236C3.0214 8.236 2.51723 8.74018 2.51723 9.35978C2.51723 9.98684 3.0214 10.4933 3.641 10.4933L4.02459 10.4933L4.24307 11.4797C4.70612 13.7256 6.54982 15.1196 9.57978 15.1196ZM6.65106 8.635L10.0046 8.635L4.47587 3.11372C4.16174 2.80704 3.79822 2.65716 3.38127 2.65716L1.18753 2.65716C0.540931 2.65716 0 3.19809 0 3.84468C0 4.49128 0.540931 5.03451 1.18753 5.03451L3.05804 5.03451ZM7.02858 16.87L8.75528 18.4866L12.7836 14.4582L10.9083 12.9754ZM16.493 18.4643L18.2214 16.8421L14.4187 13.0341L12.5082 14.4795ZM8.46401 20.223L16.8502 20.223L16.8502 18.0782L8.46401 18.0782ZM6.6197 22.1849C8.29181 22.1849 9.63934 20.8374 9.63934 19.1555C9.63934 17.4834 8.29181 16.1358 6.6197 16.1358C4.93783 16.1358 3.5926 17.4834 3.5926 19.1555C3.5926 20.8374 4.93783 22.1849 6.6197 22.1849ZM6.6197 20.5027C5.86423 20.5027 5.27477 19.9133 5.27477 19.1555C5.27477 18.4052 5.86423 17.818 6.6197 17.818C7.37002 17.818 7.95717 18.4052 7.95717 19.1555C7.95717 19.9133 7.37002 20.5027 6.6197 20.5027ZM18.656 22.1239C20.2907 22.1239 21.6146 20.7999 21.6146 19.1555C21.6146 17.5208 20.2907 16.1969 18.656 16.1969C17.0115 16.1969 15.6876 17.5208 15.6876 19.1555C15.6876 20.7999 17.0213 22.1239 18.656 22.1239ZM18.656 20.5027C17.9005 20.5027 17.3088 19.9133 17.3088 19.1555C17.3088 18.4052 17.9005 17.818 18.656 17.818C19.4063 17.818 19.9935 18.4052 19.9935 19.1555C19.9935 19.9133 19.4063 20.5027 18.656 20.5027Z"
                     fill="currentColor" fill-opacity="0.85" />
       </g>
</svg>