<?xml version="1.0" encoding="UTF-8"?>
<!--Generator: Apple Native CoreSVG 326-->
<!DOCTYPE svg PUBLIC "-//W3C//DTD SVG 1.1//EN" "http://www.w3.org/Graphics/SVG/1.1/DTD/svg11.dtd">
<svg version="1.1" xmlns="http://www.w3.org/2000/svg" xmlns:xlink="http://www.w3.org/1999/xlink"
       viewBox="0 0 21.9759 22.247">
       <g>
              <rect height="22.247" opacity="0" width="21.9759" x="0" y="0" />
              <path d="M5.99895 8.69753L3.71694 8.69753L4.24307 11.5418C4.65893 13.802 6.54982 15.1892 9.57978 15.1892L15.7804 15.1892C20.8022 15.1892 21.5543 11.2335 21.5543 8.51745C21.5543 4.2526 18.5532 0.0885576 13.2701 0.0885576C12.2593 0.0885576 11.5328 0.849488 11.5328 1.85456L11.5328 8.21853L13.7902 8.21853L13.7902 2.75209C13.7902 2.56302 13.916 2.43947 14.12 2.43947C16.5848 2.43947 19.2872 4.66906 19.2872 8.51745C19.2872 10.3909 18.9618 12.9244 15.7804 12.9244L9.57978 12.9244C7.65528 12.9244 6.69977 12.2631 6.4757 11.1238ZM20.1493 7.32422L3.99166 7.32422C3.36459 7.32422 2.86042 7.82839 2.86042 8.45546C2.86042 9.08252 3.36459 9.589 3.99166 9.589L20.1591 9.589ZM6.49159 8.53018L9.83769 8.53018L4.47587 3.18329C4.16174 2.87661 3.79822 2.72673 3.38127 2.72673L1.18753 2.72673C0.540931 2.72673 0 3.2602 0 3.91426C0 4.56085 0.540931 5.10409 1.18753 5.10409L3.05804 5.10409ZM7.02858 16.9321L8.75528 18.5487L12.7836 14.5278L10.9083 13.045ZM16.493 18.5264L18.2214 16.9116L14.4187 13.1037L12.5082 14.5416ZM6.6197 22.247C8.29181 22.247 9.63934 20.8995 9.63934 19.2251C9.63934 17.5455 8.29181 16.2054 6.6197 16.2054C4.93783 16.2054 3.5926 17.5455 3.5926 19.2251C3.5926 20.8995 4.93783 22.247 6.6197 22.247ZM6.6197 20.57C5.86423 20.57 5.27477 19.9805 5.27477 19.2251C5.27477 18.4673 5.86423 17.8801 6.6197 17.8801C7.37002 17.8801 7.95717 18.4673 7.95717 19.2251C7.95717 19.9805 7.37002 20.57 6.6197 20.57ZM18.656 22.186C20.2907 22.186 21.6146 20.862 21.6146 19.2251C21.6146 17.5904 20.2907 16.2664 18.656 16.2664C17.0115 16.2664 15.6876 17.5904 15.6876 19.2251C15.6876 20.862 17.0213 22.186 18.656 22.186ZM18.656 20.57C17.9005 20.57 17.3088 19.9805 17.3088 19.2251C17.3088 18.4673 17.9005 17.8801 18.656 17.8801C19.4063 17.8801 19.9935 18.4673 19.9935 19.2251C19.9935 19.9805 19.4063 20.57 18.656 20.57ZM8.46401 20.2851L16.8502 20.2851L16.8502 18.1403L8.46401 18.1403Z"
                     fill="currentColor" fill-opacity="0.85" />
       </g>
</svg>