<?xml version="1.0" encoding="UTF-8"?>
<!--Generator: Apple Native CoreSVG 326-->
<!DOCTYPE svg PUBLIC "-//W3C//DTD SVG 1.1//EN" "http://www.w3.org/Graphics/SVG/1.1/DTD/svg11.dtd">
<svg version="1.1" xmlns="http://www.w3.org/2000/svg" xmlns:xlink="http://www.w3.org/1999/xlink"
       viewBox="0 0 16.8347 21.114">
       <g>
              <rect height="21.114" opacity="0" width="16.8347" x="0" y="0" />
              <path d="M8.23182 21.1042C9.11958 21.1042 9.59961 20.4967 10.2458 19.6202L15.8893 12.1056C16.3171 11.5353 16.4734 11.0397 16.4734 10.5521C16.4734 10.0622 16.3171 9.56886 15.8893 8.99863L10.2458 1.48171C9.59961 0.607532 9.11958 0 8.23182 0C7.34405 0 6.87148 0.607532 6.22016 1.48171L0.584058 8.99863C0.153945 9.56886 0 10.0622 0 10.5521C0 11.0397 0.153945 11.5353 0.584058 12.1056L6.22016 19.6202C6.87148 20.4967 7.34405 21.1042 8.23182 21.1042ZM8.23182 17.3277C8.19791 17.3277 8.17092 17.3133 8.14908 17.2719L3.31777 10.7859C3.2448 10.6934 3.23503 10.6302 3.23503 10.5521C3.23503 10.474 3.2448 10.4108 3.31777 10.3183L8.14908 3.82995C8.17092 3.79089 8.19791 3.77651 8.23182 3.77651C8.27318 3.77651 8.29272 3.79089 8.32201 3.82995L13.1556 10.3183C13.2188 10.4108 13.2384 10.474 13.2384 10.5521C13.2384 10.6302 13.2188 10.6934 13.1556 10.7859L8.32201 17.2719C8.29272 17.3133 8.27318 17.3277 8.23182 17.3277Z"
                     fill="currentColor" fill-opacity="0.85" />
       </g>
</svg>