<?xml version="1.0" encoding="UTF-8"?>
<!--Generator: Apple Native CoreSVG 326-->
<!DOCTYPE svg PUBLIC "-//W3C//DTD SVG 1.1//EN" "http://www.w3.org/Graphics/SVG/1.1/DTD/svg11.dtd">
<svg version="1.1" xmlns="http://www.w3.org/2000/svg" xmlns:xlink="http://www.w3.org/1999/xlink"
       viewBox="0 0 21.2226 20.4557">
       <g>
              <rect height="20.4557" opacity="0" width="21.2226" x="0" y="0" />
              <path d="M0 11.9165C0 14.7666 2.16694 16.5605 4.44257 16.5605C5.83608 16.5605 6.94609 16.222 7.76222 15.4207L7.38961 14.7012C7.01172 16.1769 6.29574 16.8735 5.5991 17.6855C4.68028 18.7658 5.10008 20.4557 6.77401 20.4557L14.0873 20.4557C15.7612 20.4557 16.181 18.7658 15.2524 17.6855C14.5581 16.8735 13.8495 16.1769 13.4717 14.7012L13.099 15.4207C13.9152 16.222 15.0252 16.5605 16.4112 16.5605C18.6943 16.5605 20.8613 14.7666 20.8613 11.9165C20.8613 9.299 18.7728 7.27018 16.1524 7.27018C15.0334 7.27018 13.8329 7.61549 13.3345 8.54474L13.054 8.62002C14.5757 7.75536 15.1817 6.47012 15.1817 5.11106C15.1817 2.47865 13.0484 0.352837 10.4257 0.352837C7.81287 0.352837 5.67959 2.47865 5.67959 5.11106C5.67959 6.47012 6.28561 7.74099 7.79521 8.62002L7.51007 8.53783C7.02088 7.61549 5.82784 7.27018 4.70885 7.27018C2.08851 7.27018 0 9.299 0 11.9165ZM3.22205 11.7593C3.22205 10.5973 4.10363 9.76284 5.25348 9.76284C6.15623 9.76284 6.7401 10.0863 7.29225 10.3425C7.64721 10.5148 8.00326 10.6601 8.47869 10.6601C9.30774 10.6601 9.7689 10.1944 9.7689 9.49152C9.7689 9.14063 9.65633 8.75243 9.4134 8.36829C8.8203 7.50188 8.26002 6.56681 8.26002 5.11798C8.26002 3.91129 9.22882 2.93503 10.4257 2.93503C11.625 2.93503 12.6012 3.91129 12.6012 5.11798C12.6012 6.56681 12.041 7.50188 11.4479 8.36829C11.1975 8.75243 11.0924 9.14063 11.0924 9.49152C11.0924 10.1944 11.5535 10.6601 12.3751 10.6601C12.8505 10.6601 13.2043 10.5148 13.5592 10.3425C14.1039 10.0812 14.6953 9.76284 15.6003 9.76284C16.7502 9.76284 17.6392 10.5973 17.6392 11.7593C17.6392 12.8966 16.7974 13.6518 15.598 13.6518C14.6775 13.6518 14.0296 13.3919 13.3254 13.0074C12.5306 12.5869 11.3028 12.9802 11.312 14.4061C11.335 15.2702 11.7874 16.304 12.277 17.0894C12.3787 17.2479 12.2908 17.3473 12.1816 17.3473L8.67964 17.3473C8.57046 17.3473 8.48257 17.2479 8.58429 17.0894C9.07391 16.304 9.51645 15.2702 9.54181 14.4061C9.55103 12.9802 8.32323 12.5869 7.53354 13.0074C6.82933 13.3919 6.1763 13.6518 5.25579 13.6518C4.0639 13.6518 3.22205 12.8966 3.22205 11.7593Z"
                     fill="currentColor" fill-opacity="0.85" />
       </g>
</svg>