<?xml version="1.0" encoding="UTF-8"?>
<!--Generator: Apple Native CoreSVG 326-->
<!DOCTYPE svg PUBLIC "-//W3C//DTD SVG 1.1//EN" "http://www.w3.org/Graphics/SVG/1.1/DTD/svg11.dtd">
<svg version="1.1" xmlns="http://www.w3.org/2000/svg" xmlns:xlink="http://www.w3.org/1999/xlink"
       viewBox="0 0 29.2795 25.8711">
       <g>
              <rect height="25.8711" opacity="0" width="29.2795" x="0" y="0" />
              <path d="M24.3853 20.0785C25.2626 20.0785 25.9299 19.4583 25.9299 18.5638C25.9299 17.6692 25.2626 17.0588 24.3853 17.0588L7.1155 17.0588C6.49894 17.0588 6.16339 16.7135 6.16339 16.0947L6.16339 5.71617C6.16339 3.55657 4.96543 2.36322 2.80122 2.36322L1.50494 2.36322C0.682139 2.36322 0 3.04536 0 3.87562C0 4.70819 0.682139 5.38286 1.50494 5.38286L2.19163 5.38286C2.80073 5.38286 3.14374 5.72818 3.14374 6.34705L3.14374 16.7255C3.14374 18.8828 4.3417 20.0785 6.50591 20.0785ZM20.973 25.8613C22.131 25.8613 23.0953 24.8895 23.0953 23.7413C23.0953 22.5736 22.131 21.6018 20.973 21.6018C19.8249 21.6018 18.8531 22.5736 18.8531 23.7413C18.8531 24.8895 19.8249 25.8613 20.973 25.8613ZM10.5043 25.8613C11.6622 25.8613 12.6243 24.8895 12.6243 23.7413C12.6243 22.5736 11.6622 21.6018 10.5043 21.6018C9.34637 21.6018 8.38431 22.5736 8.38431 23.7413C8.38431 24.8895 9.34637 25.8613 10.5043 25.8613Z"
                     fill="currentColor" fill-opacity="0.85" />
              <path d="M23.3876 15.424C25.0424 15.424 25.9299 14.5504 25.9299 12.9216L25.9299 5.46936C25.9299 3.83534 25.0424 2.96687 23.3876 2.96687L10.3784 2.96687C8.71616 2.96687 7.8287 3.83534 7.8287 5.46936L7.8287 12.9216C7.8287 14.5504 8.71616 15.424 10.3784 15.424ZM23.2137 13.2769L10.5448 13.2769C10.2935 13.2769 10.1572 13.1475 10.1572 12.9152L10.1572 5.46827C10.1572 5.23826 10.2935 5.10888 10.5448 5.10888L23.2137 5.10888C23.465 5.10888 23.6013 5.23826 23.6013 5.46827L23.6013 12.9152C23.6013 13.1475 23.465 13.2769 23.2137 13.2769ZM22.2493 14.4702L22.2493 4.36991L20.0499 4.36991L20.0499 14.4702ZM13.7087 14.4702L13.7087 4.24041L11.5168 4.24041L11.5168 14.4702ZM20.8605 3.5852L20.8605 2.14449C20.8605 0.743946 20.0322 0 18.483 0L15.283 0C13.7097 0 12.8957 0.727266 12.8957 2.14449L12.8957 3.57313L14.9218 3.57313L14.9218 2.13867C14.9218 1.87761 15.0753 1.74878 15.388 1.74878L18.378 1.74878C18.6907 1.74878 18.8345 1.87761 18.8345 2.13867L18.8345 3.5852Z"
                     fill="currentColor" fill-opacity="0.85" />
       </g>
</svg>