<?xml version="1.0" encoding="UTF-8"?>
<!--Generator: Apple Native CoreSVG 326-->
<!DOCTYPE svg PUBLIC "-//W3C//DTD SVG 1.1//EN" "http://www.w3.org/Graphics/SVG/1.1/DTD/svg11.dtd">
<svg version="1.1" xmlns="http://www.w3.org/2000/svg" xmlns:xlink="http://www.w3.org/1999/xlink"
       viewBox="0 0 21.1734 19.9578">
       <g>
              <rect height="19.9578" opacity="0" width="21.1734" x="0" y="0" />
              <path d="M0 7.28498C0 11.4974 3.54601 15.7085 8.85239 19.2242C9.42304 19.5973 10.007 19.9578 10.406 19.9578C10.7976 19.9578 11.389 19.5973 11.962 19.2242C17.2661 15.7085 20.8121 11.4974 20.8121 7.28498C20.8121 3.25347 17.9839 0.595703 14.693 0.595703C12.6775 0.595703 11.2499 1.4327 10.406 2.61676C9.56674 1.435 8.12712 0.595703 6.11905 0.595703C2.82815 0.595703 0 3.25347 0 7.28498ZM3.24347 7.24767C3.24347 5.15734 4.70679 3.70488 6.62922 3.70488C8.15927 3.70488 8.9603 4.5341 9.53307 5.32415C9.81912 5.72969 10.0747 5.91918 10.406 5.91918C10.7374 5.91918 10.9659 5.71993 11.2641 5.32415C11.8857 4.53125 12.6551 3.70488 14.1828 3.70488C16.1053 3.70488 17.5611 5.15734 17.5611 7.24767C17.5611 10.1344 14.723 13.6326 10.5365 16.4221C10.4836 16.4606 10.4451 16.487 10.406 16.487C10.367 16.487 10.3285 16.4606 10.2779 16.4221C6.08162 13.6326 3.24347 10.1344 3.24347 7.24767Z"
                     fill="currentColor" fill-opacity="0.85" />
       </g>
</svg>