<?xml version="1.0" encoding="UTF-8"?>
<!--Generator: Apple Native CoreSVG 326-->
<!DOCTYPE svg PUBLIC "-//W3C//DTD SVG 1.1//EN" "http://www.w3.org/Graphics/SVG/1.1/DTD/svg11.dtd">
<svg version="1.1" xmlns="http://www.w3.org/2000/svg" xmlns:xlink="http://www.w3.org/1999/xlink"
       viewBox="0 0 21.0827 20.7334">
       <g>
              <rect height="20.7334" opacity="0" width="21.0827" x="0" y="0" />
              <path d="M10.3618 2.71764C11.105 2.71764 11.7206 2.10428 11.7206 1.35882C11.7206 0.605894 11.105 0 10.3618 0C9.60889 0 9.003 0.605894 9.003 1.35882C9.003 2.10428 9.60889 2.71764 10.3618 2.71764ZM16.7311 5.35138C17.4742 5.35138 18.0876 4.74549 18.0876 3.99256C18.0876 3.2471 17.4742 2.63375 16.7311 2.63375C15.9781 2.63375 15.3722 3.2471 15.3722 3.99256C15.3722 4.74549 15.9781 5.35138 16.7311 5.35138ZM19.3648 11.7206C20.108 11.7206 20.7213 11.1073 20.7213 10.3618C20.7213 9.60889 20.108 9.003 19.3648 9.003C18.6119 9.003 18.006 9.60889 18.006 10.3618C18.006 11.1073 18.6119 11.7206 19.3648 11.7206ZM16.7311 18.0899C17.4742 18.0899 18.0876 17.4765 18.0876 16.7311C18.0876 15.9781 17.4742 15.3722 16.7311 15.3722C15.9781 15.3722 15.3722 15.9781 15.3722 16.7311C15.3722 17.4765 15.9781 18.0899 16.7311 18.0899ZM10.3618 20.7236C11.105 20.7236 11.7206 20.1103 11.7206 19.3648C11.7206 18.6119 11.105 18.006 10.3618 18.006C9.60889 18.006 9.003 18.6119 9.003 19.3648C9.003 20.1103 9.60889 20.7236 10.3618 20.7236ZM3.99256 18.0899C4.74549 18.0899 5.35138 17.4765 5.35138 16.7311C5.35138 15.9781 4.74549 15.3722 3.99256 15.3722C3.2471 15.3722 2.63375 15.9781 2.63375 16.7311C2.63375 17.4765 3.2471 18.0899 3.99256 18.0899ZM1.35882 11.7206C2.10428 11.7206 2.71764 11.1073 2.71764 10.3618C2.71764 9.60889 2.10428 9.003 1.35882 9.003C0.605894 9.003 0 9.60889 0 10.3618C0 11.1073 0.605894 11.7206 1.35882 11.7206ZM3.99256 5.35138C4.74549 5.35138 5.35138 4.74549 5.35138 3.99256C5.35138 3.2471 4.74549 2.63375 3.99256 2.63375C3.2471 2.63375 2.63375 3.2471 2.63375 3.99256C2.63375 4.74549 3.2471 5.35138 3.99256 5.35138Z"
                     fill="currentColor" fill-opacity="0.85" />
              <path d="M10.3618 15.8772C13.4044 15.8772 15.8772 13.4044 15.8772 10.3618C15.8772 7.31925 13.4044 4.84417 10.3618 4.84417C7.31925 4.84417 4.84417 7.31925 4.84417 10.3618C4.84417 13.4044 7.31925 15.8772 10.3618 15.8772ZM10.3618 13.0498C8.87586 13.0498 7.67148 11.8403 7.67148 10.3618C7.67148 8.87586 8.87586 7.67148 10.3618 7.67148C11.8478 7.67148 13.0498 8.87586 13.0498 10.3618C13.0498 11.8403 11.8478 13.0498 10.3618 13.0498Z"
                     fill="currentColor" fill-opacity="0.85" />
       </g>
</svg>