<?xml version="1.0" encoding="UTF-8"?>
<!--Generator: Apple Native CoreSVG 326-->
<!DOCTYPE svg PUBLIC "-//W3C//DTD SVG 1.1//EN" "http://www.w3.org/Graphics/SVG/1.1/DTD/svg11.dtd">
<svg version="1.1" xmlns="http://www.w3.org/2000/svg" xmlns:xlink="http://www.w3.org/1999/xlink"
       viewBox="0 0 21.365 21.006">
       <g>
              <rect height="21.006" opacity="0" width="21.365" x="0" y="0" />
              <path d="M10.4981 20.9962C16.302 20.9962 21.0037 16.2946 21.0037 10.4981C21.0037 4.70163 16.302 0 10.4981 0C4.70163 0 0 4.70163 0 10.4981C0 16.2946 4.70163 20.9962 10.4981 20.9962ZM10.4981 17.9484C6.37829 17.9484 3.04785 14.6179 3.04785 10.4981C3.04785 6.37829 6.37829 3.04785 10.4981 3.04785C14.6179 3.04785 17.9558 6.37829 17.9558 10.4981C17.9558 14.6179 14.6179 17.9484 10.4981 17.9484Z"
                     fill="currentColor" fill-opacity="0.85" />
              <path d="M7.25786 9.62387C7.25786 9.26891 6.96435 8.98231 6.59501 8.98231L5.73067 8.98231C5.37625 8.98231 5.07012 9.27122 5.07012 9.62387C5.07012 9.96907 5.37625 10.2677 5.73067 10.2677L6.59501 10.2677C6.96665 10.2677 7.25786 9.97368 7.25786 9.62387ZM8.2081 7.68694C8.46255 7.42733 8.45794 7.03101 8.19373 6.7691L7.57649 6.15186C7.30997 5.88303 6.90848 5.88764 6.65864 6.13002C6.41396 6.38217 6.4088 6.79627 6.67532 7.0651L7.29025 7.67257C7.55447 7.92702 7.94849 7.9414 8.2081 7.68694ZM10.4958 6.61072C10.8433 6.61072 11.1397 6.29998 11.1397 5.94787L11.1397 5.08353C11.1397 4.70443 10.841 4.41552 10.4958 4.41552C10.1431 4.41552 9.85424 4.70443 9.85424 5.08353L9.85424 5.94787C9.85424 6.30229 10.1408 6.61072 10.4958 6.61072ZM12.7933 7.68694C13.0454 7.93909 13.4394 7.92932 13.7111 7.67257L14.3237 7.0651C14.5903 6.79627 14.5851 6.38448 14.3353 6.13002C14.0906 5.88534 13.6793 5.88534 13.4151 6.15186L12.8053 6.7691C12.5388 7.04077 12.5388 7.42733 12.7933 7.68694ZM13.7412 9.62387C13.7412 9.97137 14.0496 10.2677 14.4041 10.2677L15.2707 10.2677C15.6326 10.2677 15.9289 9.97137 15.9289 9.62387C15.9289 9.27122 15.6326 8.98231 15.2707 8.98231L14.4041 8.98231C14.0496 8.98231 13.7412 9.26891 13.7412 9.62387ZM7.93072 10.5448L13.0609 10.5448C13.1138 10.3661 13.1374 10.1505 13.1374 9.95972C13.1374 8.50222 11.9458 7.32331 10.4958 7.32331C9.05553 7.32331 7.86169 8.50222 7.86169 9.95972C7.86169 10.1505 7.87783 10.3661 7.93072 10.5448ZM5.83281 12.8146L15.1686 12.8146C15.5958 12.8146 15.9289 12.4608 15.9289 12.0462C15.9289 11.6367 15.5981 11.2875 15.1686 11.2875L5.83281 11.2875C5.39578 11.2875 5.07012 11.6539 5.07012 12.0462C5.07012 12.4459 5.40555 12.8146 5.83281 12.8146ZM6.06876 14.6349C6.38466 14.6349 6.64196 14.3753 6.64196 14.0617C6.64196 13.7481 6.38466 13.4885 6.06876 13.4885C5.75517 13.4885 5.50533 13.7481 5.50533 14.0617C5.50533 14.3753 5.75517 14.6349 6.06876 14.6349ZM8.29951 14.6349C8.6131 14.6349 8.87271 14.3753 8.87271 14.0617C8.87271 13.7481 8.6131 13.4885 8.29951 13.4885C7.98592 13.4885 7.72631 13.7481 7.72631 14.0617C7.72631 14.3753 7.98592 14.6349 8.29951 14.6349ZM10.513 14.6349C10.8215 14.6349 11.0788 14.3753 11.0788 14.0617C11.0788 13.7481 10.8215 13.4885 10.513 13.4885C10.1994 13.4885 9.94214 13.7481 9.94214 14.0617C9.94214 14.3753 10.1994 14.6349 10.513 14.6349ZM12.7363 14.6349C13.0499 14.6349 13.3072 14.3753 13.3072 14.0617C13.3072 13.7481 13.0499 13.4885 12.7363 13.4885C12.4227 13.4885 12.1706 13.7481 12.1706 14.0617C12.1706 14.3753 12.4227 14.6349 12.7363 14.6349ZM14.9498 14.6349C15.2634 14.6349 15.523 14.3753 15.523 14.0617C15.523 13.7481 15.2634 13.4885 14.9498 13.4885C14.6362 13.4885 14.3766 13.7481 14.3766 14.0617C14.3766 14.3753 14.6362 14.6349 14.9498 14.6349ZM7.18556 16.0181C7.50146 16.0181 7.75876 15.7608 7.75876 15.4472C7.75876 15.1336 7.50146 14.8815 7.18556 14.8815C6.87197 14.8815 6.61467 15.1336 6.61467 15.4472C6.61467 15.7608 6.87197 16.0181 7.18556 16.0181ZM9.41631 16.0181C9.7299 16.0181 9.98951 15.7608 9.98951 15.4472C9.98951 15.1336 9.7299 14.8815 9.41631 14.8815C9.10272 14.8815 8.84311 15.1336 8.84311 15.4472C8.84311 15.7608 9.10272 16.0181 9.41631 16.0181ZM11.6224 16.0181C11.9383 16.0181 12.1956 15.7608 12.1956 15.4472C12.1956 15.1336 11.9383 14.8815 11.6224 14.8815C11.3162 14.8815 11.0589 15.1336 11.0589 15.4472C11.0589 15.7608 11.3162 16.0181 11.6224 16.0181ZM13.8382 16.0181C14.1518 16.0181 14.4091 15.7608 14.4091 15.4472C14.4091 15.1336 14.1518 14.8815 13.8382 14.8815C13.5223 14.8815 13.265 15.1336 13.265 15.4472C13.265 15.7608 13.5223 16.0181 13.8382 16.0181Z"
                     fill="currentColor" fill-opacity="0.85" />
       </g>
</svg>