<?xml version="1.0" encoding="UTF-8"?>
<!--Generator: Apple Native CoreSVG 326-->
<!DOCTYPE svg PUBLIC "-//W3C//DTD SVG 1.1//EN" "http://www.w3.org/Graphics/SVG/1.1/DTD/svg11.dtd">
<svg version="1.1" xmlns="http://www.w3.org/2000/svg" xmlns:xlink="http://www.w3.org/1999/xlink"
       viewBox="0 0 26.9062 24.9694">
       <g>
              <rect height="24.9694" opacity="0" width="26.9062" x="0" y="0" />
              <path d="M18.6516 11.6506C18.6516 12.6971 18.3596 13.671 17.8491 14.4927L14.5798 14.4927C15.6338 14.0029 16.3705 12.9302 16.3705 11.6506C16.3705 9.88621 14.9697 8.52272 13.2725 8.52272C11.5752 8.52272 10.1744 9.88621 10.1744 11.6506C10.1744 12.9302 10.9111 14.0029 11.9651 14.4927L8.69586 14.4927C8.18528 13.671 7.89335 12.6971 7.89335 11.6506C7.89335 8.64634 10.3078 6.23938 13.2725 6.23938C16.2371 6.23938 18.6516 8.64634 18.6516 11.6506ZM6.10855 11.2251C6.11086 11.8362 5.60316 12.337 4.96106 12.337L3.14811 12.3295C2.53069 12.3295 2.00292 11.8362 2.00292 11.2251C2.00292 10.6215 2.52323 10.1282 3.14811 10.1282L4.96106 10.1282C5.60316 10.1282 6.10625 10.6238 6.10855 11.2251ZM24.542 11.2251C24.542 11.8362 24.0314 12.337 23.3968 12.337L21.5839 12.3295C20.9567 12.3295 20.4387 11.8362 20.4364 11.2251C20.4341 10.6215 20.9492 10.1282 21.5839 10.1282L23.3968 10.1282C24.0314 10.1282 24.542 10.6238 24.542 11.2251ZM6.89338 3.72325L8.18456 4.99721C8.62566 5.44806 8.63312 6.16478 8.21101 6.58919C7.78144 7.02106 7.06243 6.99637 6.61903 6.55298L5.33015 5.28648C4.87929 4.82816 4.87929 4.11145 5.30371 3.68934C5.73558 3.25978 6.44252 3.26493 6.89338 3.72325ZM21.2412 3.68934C21.6633 4.11375 21.6656 4.82816 21.2148 5.28648L19.9259 6.55298C19.4825 6.99637 18.7635 7.01875 18.3339 6.58919C17.902 6.16708 17.9193 5.44806 18.3603 4.99721L19.6492 3.72325C20.1024 3.26493 20.8116 3.25747 21.2412 3.68934ZM14.3768 1.52629L14.3768 3.3467C14.3768 3.97158 13.8835 4.49419 13.2725 4.49419C12.6614 4.49419 12.1681 3.97158 12.1681 3.3467L12.1681 1.52629C12.1681 0.891644 12.6614 0.388562 13.2725 0.388562C13.8835 0.388562 14.3768 0.891644 14.3768 1.52629Z"
                     fill="currentColor" fill-opacity="0.85" />
              <path d="M7.8623 21.3073C8.11499 21.3073 8.27694 21.089 8.23734 20.8214L8.09667 19.9086L8.83085 20.4882C9.04449 20.653 9.30409 20.6288 9.42413 20.4077C9.55679 20.1866 9.45573 19.915 9.20304 19.8145L8.3632 19.4864L9.21281 19.141C9.46319 19.0382 9.56194 18.7861 9.44136 18.565C9.31616 18.3565 9.03702 18.3123 8.82339 18.4771L8.10413 19.0366L8.23964 18.1439C8.28155 17.8739 8.11499 17.6655 7.8623 17.6655C7.59754 17.6655 7.43558 17.8739 7.46773 18.1439L7.59347 19.0366L6.87937 18.4696C6.6732 18.3123 6.40097 18.3542 6.27347 18.565C6.14828 18.7861 6.24703 19.0359 6.50718 19.141L7.36425 19.4789L6.49972 19.8219C6.24703 19.9322 6.14597 20.1843 6.27863 20.4077C6.40382 20.6311 6.6732 20.653 6.87937 20.4882L7.59347 19.931L7.47004 20.8214C7.43789 21.089 7.59754 21.3073 7.8623 21.3073ZM13.2725 21.3073C13.5228 21.3073 13.6871 21.089 13.6475 20.8214L13.5068 19.9086L14.241 20.4882C14.4546 20.653 14.7142 20.6288 14.8343 20.4077C14.9669 20.1866 14.8659 19.915 14.6034 19.8145L13.7734 19.4864L14.6207 19.141C14.8734 19.0382 14.9721 18.7861 14.8515 18.565C14.7263 18.3565 14.4472 18.3123 14.2336 18.4771L13.5143 19.0366L13.6498 18.1439C13.6917 17.8739 13.5228 17.6655 13.2725 17.6655C13.0077 17.6655 12.8457 17.8739 12.8779 18.1439L13.0036 19.0366L12.2895 18.4696C12.0834 18.3123 11.8111 18.3542 11.6836 18.565C11.5584 18.7861 11.6572 19.0359 11.9173 19.141L12.7744 19.4789L11.9099 19.8219C11.6572 19.9322 11.5561 20.1843 11.6888 20.4077C11.814 20.6311 12.0834 20.653 12.2895 20.4882L13.0036 19.931L12.8802 20.8214C12.848 21.089 13.0077 21.3073 13.2725 21.3073ZM18.6826 21.3073C18.933 21.3073 19.0973 21.089 19.0576 20.8214L18.917 19.9086L19.6512 20.4882C19.8648 20.653 20.1244 20.6288 20.2444 20.4077C20.3771 20.1866 20.276 19.915 20.0136 19.8145L19.1835 19.4864L20.0308 19.141C20.2835 19.0382 20.3823 18.7861 20.2617 18.565C20.1365 18.3565 19.8573 18.3123 19.6437 18.4771L18.9244 19.0366L19.06 18.1439C19.1019 17.8739 18.933 17.6655 18.6826 17.6655C18.4178 17.6655 18.2484 17.8739 18.288 18.1439L18.4138 19.0366L17.6997 18.4696C17.4935 18.3123 17.2213 18.3542 17.0938 18.565C16.9686 18.7861 17.0673 19.0359 17.3275 19.141L18.1823 19.4789L17.32 19.8219C17.0673 19.9322 16.9663 20.1843 17.0989 20.4077C17.2241 20.6311 17.4935 20.653 17.6997 20.4882L18.4138 19.931L18.2903 20.8214C18.2582 21.089 18.4178 21.3073 18.6826 21.3073ZM5.74316 24.9694C5.99585 24.9694 6.1578 24.7511 6.1182 24.491L5.97753 23.5782L6.71917 24.1503C6.92535 24.3225 7.18495 24.2909 7.30499 24.0698C7.43995 23.8562 7.33659 23.5868 7.0839 23.4766L6.24406 23.1485L7.09367 22.8032C7.34405 22.7003 7.44511 22.4482 7.32222 22.2346C7.19702 22.0186 6.91788 21.9744 6.70425 22.1467L5.98499 22.6987L6.1205 21.806C6.16241 21.5361 5.99585 21.3276 5.74316 21.3276C5.47839 21.3276 5.31644 21.5361 5.34859 21.806L5.47433 22.6987L4.76023 22.1392C4.55406 21.9744 4.28183 22.0163 4.15433 22.2346C4.02914 22.4482 4.12789 22.698 4.38804 22.8032L5.24511 23.141L4.38058 23.484C4.12789 23.5943 4.02683 23.8539 4.15949 24.0698C4.28468 24.2932 4.55406 24.3225 4.76023 24.1503L5.47433 23.5931L5.3509 24.491C5.31875 24.7511 5.47839 24.9694 5.74316 24.9694ZM11.1533 24.9694C11.406 24.9694 11.568 24.7511 11.5284 24.491L11.3877 23.5782L12.1219 24.1503C12.3355 24.3225 12.5951 24.2909 12.7151 24.0698C12.8478 23.8562 12.7467 23.5868 12.4843 23.4766L11.6542 23.1485L12.5015 22.8032C12.7542 22.7003 12.853 22.4482 12.7324 22.2346C12.6072 22.0186 12.328 21.9744 12.1144 22.1467L11.3952 22.6987L11.5307 21.806C11.5726 21.5361 11.406 21.3276 11.1533 21.3276C10.8886 21.3276 10.7266 21.5361 10.7587 21.806L10.8845 22.6987L10.1704 22.1392C9.96421 21.9744 9.69199 22.0163 9.56449 22.2346C9.4393 22.4482 9.53804 22.698 9.7982 22.8032L10.6553 23.141L9.79074 23.484C9.53804 23.5943 9.43699 23.8539 9.56965 24.0698C9.69484 24.2932 9.96421 24.3225 10.1704 24.1503L10.8845 23.5931L10.7611 24.491C10.7289 24.7511 10.8886 24.9694 11.1533 24.9694ZM16.5635 24.9694C16.8139 24.9694 16.9781 24.7511 16.9385 24.491L16.7978 23.5782L17.532 24.1503C17.7457 24.3225 18.0053 24.2909 18.1253 24.0698C18.258 23.8562 18.1569 23.5868 17.8944 23.4766L17.0644 23.1485L17.9117 22.8032C18.1644 22.7003 18.2631 22.4482 18.1425 22.2346C18.0173 22.0186 17.7382 21.9744 17.5246 22.1467L16.8053 22.6987L16.9408 21.806C16.9827 21.5361 16.8139 21.3276 16.5635 21.3276C16.2987 21.3276 16.1293 21.5361 16.1689 21.806L16.2946 22.6987L15.5805 22.1392C15.3744 21.9744 15.1021 22.0163 14.9746 22.2346C14.8495 22.4482 14.9482 22.698 15.2084 22.8032L16.0631 23.141L15.2009 23.484C14.9482 23.5943 14.8471 23.8539 14.9798 24.0698C15.105 24.2932 15.3744 24.3225 15.5805 24.1503L16.2946 23.5931L16.1712 24.491C16.1391 24.7511 16.2987 24.9694 16.5635 24.9694ZM3.56979 16.0663L22.9636 16.0663C23.4345 16.0663 23.7952 15.7281 23.7952 15.2795C23.7952 14.831 23.4345 14.4927 22.9636 14.4927L3.56979 14.4927C3.0937 14.4927 2.73074 14.831 2.73074 15.2795C2.73074 15.7281 3.0937 16.0663 3.56979 16.0663Z"
                     fill="currentColor" fill-opacity="0.85" />
       </g>
</svg>