<?xml version="1.0" encoding="UTF-8"?>
<!--Generator: Apple Native CoreSVG 326-->
<!DOCTYPE svg PUBLIC "-//W3C//DTD SVG 1.1//EN" "http://www.w3.org/Graphics/SVG/1.1/DTD/svg11.dtd">
<svg version="1.1" xmlns="http://www.w3.org/2000/svg" xmlns:xlink="http://www.w3.org/1999/xlink"
       viewBox="0 0 21.365 21.006">
       <g>
              <rect height="21.006" opacity="0" width="21.365" x="0" y="0" />
              <path d="M21.0037 10.5079C21.0037 16.3043 16.302 21.006 10.4981 21.006C4.70394 21.006 0 16.3043 0 10.5079C0 4.7137 4.70394 0.00976562 10.4981 0.00976562C16.302 0.00976562 21.0037 4.7137 21.0037 10.5079ZM9.32799 13.838L7.96802 16.1959C7.83361 16.4429 7.91174 16.7634 8.17365 16.9053C8.41318 17.0471 8.73884 16.9541 8.87326 16.7243L10.216 14.3566C10.3504 14.1171 10.2895 13.7989 10.0328 13.6547C9.78291 13.5151 9.46241 13.6059 9.32799 13.838ZM13.5563 13.838L12.2038 16.1959C12.0717 16.4429 12.1401 16.7634 12.4043 16.9053C12.6467 17.0471 12.9723 16.9541 13.1016 16.7243L14.4541 14.3566C14.5862 14.1171 14.5104 13.7989 14.2685 13.6547C14.0089 13.5151 13.6907 13.6059 13.5563 13.838ZM7.21267 13.823L6.61169 14.867C6.46005 15.1065 6.54564 15.4196 6.80009 15.5712C7.05224 15.7108 7.36529 15.6326 7.50716 15.3857L8.10298 14.3342C8.24255 14.097 8.17419 13.784 7.91744 13.6398C7.65783 13.4928 7.34709 13.5709 7.21267 13.823ZM11.441 13.823L10.8475 14.867C10.6958 15.1065 10.774 15.4196 11.0359 15.5712C11.2754 15.7108 11.5862 15.6326 11.7355 15.3857L12.3365 14.3342C12.4807 14.097 12.3951 13.784 12.1555 13.6398C11.8936 13.4928 11.5829 13.5709 11.441 13.823ZM5.5325 11.0403C5.06333 11.0403 4.71298 11.4388 4.71298 11.8707C4.71298 12.2899 5.08055 12.6908 5.5325 12.6908L15.4614 12.6908C15.9357 12.6908 16.2861 12.2974 16.2861 11.8707C16.2861 11.4314 15.938 11.0403 15.4614 11.0403ZM7.69174 9.63612C7.69174 9.84417 7.71533 10.0695 7.76822 10.258L13.2308 10.258C13.2837 10.0695 13.2999 9.84417 13.2999 9.63612C13.2999 8.08272 12.0394 6.82229 10.4958 6.82229C8.96193 6.82229 7.69174 8.08272 7.69174 9.63612ZM5.4229 8.58465C5.03634 8.58465 4.71298 8.90055 4.71298 9.27789C4.71298 9.64777 5.03634 9.96136 5.4229 9.96136L6.33146 9.96136C6.73756 9.96136 7.0483 9.65008 7.0483 9.27789C7.0483 8.89824 6.73525 8.58465 6.33146 8.58465ZM14.6676 8.58465C14.2787 8.58465 13.9456 8.89824 13.9456 9.27789C13.9456 9.65008 14.2787 9.96136 14.6676 9.96136L15.571 9.96136C15.965 9.96136 16.2861 9.64777 16.2861 9.27789C16.2861 8.89824 15.965 8.58465 15.571 8.58465ZM6.41001 5.5601C6.14525 5.83178 6.13779 6.27572 6.42154 6.55947L7.07092 7.20139C7.35983 7.46791 7.786 7.48745 8.06283 7.21807C8.32705 6.94354 8.32244 6.51276 8.04099 6.23878L7.387 5.57217C7.11071 5.28842 6.67939 5.29534 6.41001 5.5601ZM13.6046 5.57217L12.9506 6.23878C12.6743 6.51507 12.6743 6.94354 12.9385 7.21807C13.2154 7.48514 13.6415 7.47022 13.923 7.20139L14.5701 6.55947C14.8613 6.27572 14.8561 5.83178 14.5914 5.5601C14.322 5.29073 13.8837 5.29073 13.6046 5.57217ZM9.81233 4.44239L9.81233 5.36072C9.81233 5.73982 10.1236 6.07295 10.4958 6.07295C10.868 6.07295 11.1816 5.73752 11.1816 5.36072L11.1816 4.44239C11.1816 4.04606 10.8657 3.73247 10.4958 3.73247C10.1259 3.73247 9.81233 4.04606 9.81233 4.44239Z"
                     fill="currentColor" fill-opacity="0.85" />
       </g>
</svg>