<?xml version="1.0" encoding="UTF-8"?>
<!--Generator: Apple Native CoreSVG 326-->
<!DOCTYPE svg PUBLIC "-//W3C//DTD SVG 1.1//EN" "http://www.w3.org/Graphics/SVG/1.1/DTD/svg11.dtd">
<svg version="1.1" xmlns="http://www.w3.org/2000/svg" xmlns:xlink="http://www.w3.org/1999/xlink"
       viewBox="0 0 21.365 21.006">
       <g>
              <rect height="21.006" opacity="0" width="21.365" x="0" y="0" />
              <path d="M21.0037 10.5079C21.0037 16.3043 16.302 21.006 10.4981 21.006C4.70394 21.006 0 16.3043 0 10.5079C0 4.7137 4.70394 0.00976562 10.4981 0.00976562C16.302 0.00976562 21.0037 4.7137 21.0037 10.5079ZM7.02658 14.0742L7.10064 14.5701L6.69728 14.2558C6.52556 14.1306 6.28779 14.1576 6.18728 14.3339C6.07185 14.5131 6.16084 14.7434 6.38138 14.8336L6.84158 15.0175L6.37392 15.2192C6.16084 15.3071 6.07185 15.53 6.18498 15.7338C6.29064 15.9101 6.52556 15.9394 6.69728 15.8016L7.10064 15.4799L7.03635 15.9884C7.0042 16.2043 7.14662 16.4053 7.37693 16.4053C7.59287 16.4053 7.7422 16.2043 7.70029 15.9884L7.62392 15.4725L8.04967 15.8016C8.22654 15.9394 8.44654 15.9078 8.54474 15.731C8.67224 15.5346 8.58095 15.2973 8.36041 15.2118L7.8956 15.0325L8.36787 14.8313C8.57865 14.7509 8.66763 14.5177 8.54705 14.3339C8.44884 14.1599 8.21162 14.1306 8.04967 14.2707L7.62392 14.5701L7.70029 14.0765C7.7422 13.8485 7.59287 13.6498 7.37693 13.6498C7.14662 13.6498 7.00189 13.8485 7.02658 14.0742ZM10.1604 14.0742L10.2195 14.5701L9.81846 14.2558C9.64444 14.1306 9.40666 14.1576 9.31362 14.3339C9.19073 14.5131 9.28717 14.7434 9.50256 14.8336L9.96791 15.0175L9.4951 15.2192C9.28717 15.3071 9.19073 15.53 9.31131 15.7338C9.40951 15.9101 9.64444 15.9394 9.81846 15.8016L10.2195 15.4799L10.1627 15.9884C10.1305 16.2043 10.273 16.4053 10.4958 16.4053C10.714 16.4053 10.8611 16.2043 10.8215 15.9884L10.7526 15.4725L11.1685 15.8016C11.3477 15.9394 11.5729 15.9078 11.6659 15.731C11.7934 15.5346 11.7021 15.2973 11.4793 15.2118L11.0168 15.0325L11.4867 14.8313C11.6998 14.7509 11.7888 14.5177 11.6682 14.3339C11.5752 14.1599 11.3328 14.1306 11.1685 14.2707L10.7526 14.5701L10.8215 14.0765C10.8611 13.8485 10.714 13.6498 10.4958 13.6498C10.273 13.6498 10.1282 13.8485 10.1604 14.0742ZM13.2792 14.0742L13.3482 14.5701L12.9373 14.2558C12.7656 14.1306 12.533 14.1576 12.4348 14.3339C12.3194 14.5131 12.4083 14.7434 12.6191 14.8336L13.0966 15.0175L12.6117 15.2192C12.406 15.3071 12.3194 15.53 12.4325 15.7338C12.5358 15.9101 12.7656 15.9394 12.9373 15.8016L13.3482 15.4799L13.2816 15.9884C13.2419 16.2043 13.4016 16.4053 13.6147 16.4053C13.8404 16.4053 13.9851 16.2043 13.9455 15.9884L13.8714 15.4725L14.2897 15.8016C14.4741 15.932 14.6941 15.9078 14.7923 15.731C14.9123 15.5346 14.8262 15.2973 14.6005 15.2118L14.1431 15.0325L14.6079 14.8313C14.8239 14.7509 14.9077 14.5177 14.802 14.3339C14.6964 14.1599 14.4517 14.1306 14.2897 14.2707L13.8714 14.5701L13.9455 14.0765C13.9851 13.8485 13.8404 13.6498 13.6147 13.6498C13.4016 13.6498 13.2396 13.8485 13.2792 14.0742ZM5.5325 11.4087C5.06333 11.4087 4.71298 11.7997 4.71298 12.2316C4.71298 12.656 5.08055 13.0568 5.5325 13.0568L15.4614 13.0568C15.9357 13.0568 16.2861 12.6635 16.2861 12.2316C16.2861 11.79 15.938 11.4087 15.4614 11.4087ZM7.69174 9.99472C7.69174 10.2028 7.71533 10.4355 7.76822 10.6166L13.2308 10.6166C13.2837 10.4355 13.2999 10.2028 13.2999 9.99472C13.2999 8.45109 12.0394 7.18835 10.4958 7.18835C8.96193 7.18835 7.69174 8.45109 7.69174 9.99472ZM5.4229 8.94555C5.03634 8.94555 4.71298 9.26661 4.71298 9.64395C4.71298 10.0064 5.03634 10.3223 5.4229 10.3223L6.33146 10.3223C6.73756 10.3223 7.0483 10.011 7.0483 9.64395C7.0483 9.25684 6.73525 8.94555 6.33146 8.94555ZM14.6676 8.94555C14.2787 8.94555 13.9456 9.25684 13.9456 9.64395C13.9456 10.0087 14.2787 10.3223 14.6676 10.3223L15.571 10.3223C15.965 10.3223 16.2861 10.0087 16.2861 9.64395C16.2861 9.26661 15.965 8.94555 15.571 8.94555ZM6.41001 5.92616C6.14525 6.19038 6.13779 6.63432 6.42154 6.92037L7.07092 7.56229C7.35983 7.83397 7.786 7.84835 8.06283 7.57667C8.32705 7.30214 8.32244 6.87882 8.04099 6.59968L7.387 5.94799C7.11071 5.65448 6.67939 5.66139 6.41001 5.92616ZM13.6046 5.94799L12.9506 6.59968C12.6743 6.88859 12.6743 7.30214 12.9385 7.57667C13.2154 7.84604 13.6415 7.83628 13.923 7.56229L14.5701 6.92037C14.8613 6.63432 14.8561 6.19038 14.5914 5.92616C14.322 5.65678 13.8837 5.65678 13.6046 5.94799ZM9.81233 4.81076L9.81233 5.72678C9.81233 6.10588 10.1236 6.43155 10.4958 6.43155C10.868 6.43155 11.1816 6.10358 11.1816 5.72678L11.1816 4.81076C11.1816 4.40466 10.8657 4.09107 10.4958 4.09107C10.1259 4.09107 9.81233 4.40466 9.81233 4.81076Z"
                     fill="currentColor" fill-opacity="0.85" />
       </g>
</svg>