<?xml version="1.0" encoding="UTF-8"?>
<!--Generator: Apple Native CoreSVG 326-->
<!DOCTYPE svg PUBLIC "-//W3C//DTD SVG 1.1//EN" "http://www.w3.org/Graphics/SVG/1.1/DTD/svg11.dtd">
<svg version="1.1" xmlns="http://www.w3.org/2000/svg" xmlns:xlink="http://www.w3.org/1999/xlink"
       viewBox="0 0 21.365 21.006">
       <g>
              <rect height="21.006" opacity="0" width="21.365" x="0" y="0" />
              <path d="M21.0037 10.5079C21.0037 16.3043 16.302 21.006 10.4981 21.006C4.70394 21.006 0 16.3043 0 10.5079C0 4.7137 4.70394 0.00976562 10.4981 0.00976562C16.302 0.00976562 21.0037 4.7137 21.0037 10.5079ZM9.67397 14.8698L9.67397 15.7875C9.67397 16.2337 10.049 16.6013 10.4981 16.6013C10.9495 16.6013 11.3245 16.2337 11.3245 15.7875L11.3245 14.8698C11.3245 14.4184 10.9495 14.0308 10.4981 14.0308C10.049 14.0308 9.67397 14.4184 9.67397 14.8698ZM6.85037 12.988L6.18267 13.6483C5.87139 13.9573 5.86623 14.5046 6.17521 14.7935C6.50142 15.1099 7.02634 15.1271 7.33532 14.8182L7.99556 14.1579C8.31947 13.8438 8.32693 13.3016 8.01048 12.9955C7.68658 12.6791 7.15705 12.6791 6.85037 12.988ZM13.0007 12.9955C12.667 13.3068 12.6917 13.8564 13.0156 14.1579L13.6758 14.8182C13.9848 15.1122 14.5172 15.1024 14.8308 14.7958C15.1421 14.4896 15.1398 13.9624 14.8233 13.6483L14.1533 12.988C13.8466 12.6791 13.3194 12.6791 13.0007 12.9955ZM7.65037 10.5079C7.65037 12.0854 8.92803 13.3631 10.4981 13.3631C12.0757 13.3631 13.3533 12.0854 13.3533 10.5079C13.3533 8.93779 12.0757 7.66013 10.4981 7.66013C8.92803 7.66013 7.65037 8.93779 7.65037 10.5079ZM14.8652 9.6912C14.431 9.6912 14.0485 10.0639 14.0485 10.5079C14.0485 10.9518 14.431 11.3343 14.8652 11.3343L15.7829 11.3343C16.2291 11.3343 16.6093 10.9541 16.6093 10.5079C16.6093 10.0616 16.2291 9.6912 15.7829 9.6912ZM5.22079 9.6912C4.77685 9.6912 4.40412 10.0616 4.40412 10.5079C4.40412 10.9541 4.77685 11.3343 5.22079 11.3343L6.13099 11.3343C6.5824 11.3343 6.96259 10.9518 6.96259 10.5079C6.96259 10.0639 6.5824 9.6912 6.13099 9.6912ZM6.19244 6.1999C5.88346 6.51119 5.87369 7.05103 6.18267 7.36001L6.84291 8.02025C7.1519 8.33154 7.68427 8.35392 7.99556 8.03517C8.31947 7.71127 8.31947 7.18404 8.01048 6.87737L7.35255 6.21482C7.04357 5.90814 6.52611 5.89092 6.19244 6.1999ZM13.6609 6.21482L13.0007 6.87737C12.6917 7.20588 12.6842 7.71357 13.0156 8.03517C13.3269 8.34646 13.8466 8.33154 14.1631 8.02025L14.8308 7.36001C15.1398 7.05103 15.1323 6.51119 14.8158 6.1999C14.4873 5.88861 13.9676 5.90584 13.6609 6.21482ZM9.67397 5.22825L9.67397 6.14592C9.67397 6.59732 10.049 6.98497 10.4981 6.98497C10.9495 6.98497 11.3245 6.59732 11.3245 6.14592L11.3245 5.22825C11.3245 4.782 10.9495 4.41673 10.4981 4.41673C10.049 4.41673 9.67397 4.782 9.67397 5.22825Z"
                     fill="currentColor" fill-opacity="0.85" />
       </g>
</svg>