<?xml version="1.0" encoding="UTF-8"?>
<!--Generator: Apple Native CoreSVG 326-->
<!DOCTYPE svg PUBLIC "-//W3C//DTD SVG 1.1//EN" "http://www.w3.org/Graphics/SVG/1.1/DTD/svg11.dtd">
<svg version="1.1" xmlns="http://www.w3.org/2000/svg" xmlns:xlink="http://www.w3.org/1999/xlink"
       viewBox="0 0 21.365 21.006">
       <g>
              <rect height="21.006" opacity="0" width="21.365" x="0" y="0" />
              <path d="M21.0037 10.5079C21.0037 16.3043 16.302 21.006 10.4981 21.006C4.70394 21.006 0 16.3043 0 10.5079C0 4.7137 4.70394 0.00976562 10.4981 0.00976562C16.302 0.00976562 21.0037 4.7137 21.0037 10.5079ZM5.5325 12.6219C5.06333 12.6219 4.71298 13.0204 4.71298 13.4523C4.71298 13.879 5.08055 14.2775 5.5325 14.2775L15.4614 14.2775C15.9357 14.2775 16.2861 13.8865 16.2861 13.4523C16.2861 13.013 15.938 12.6219 15.4614 12.6219ZM7.69174 11.2177C7.69174 11.4258 7.71533 11.6562 7.76822 11.8396L13.2308 11.8396C13.2837 11.6562 13.2999 11.4258 13.2999 11.2177C13.2999 9.66433 12.0394 8.41136 10.4958 8.41136C8.96193 8.41136 7.69174 9.66433 7.69174 11.2177ZM5.4229 10.1663C5.03634 10.1663 4.71298 10.4798 4.71298 10.8647C4.71298 11.2294 5.03634 11.543 5.4229 11.543L6.33146 11.543C6.73756 11.543 7.0483 11.2317 7.0483 10.8647C7.0483 10.4775 6.73525 10.1663 6.33146 10.1663ZM14.6676 10.1663C14.2787 10.1663 13.9456 10.4775 13.9456 10.8647C13.9456 11.2317 14.2787 11.543 14.6676 11.543L15.571 11.543C15.965 11.543 16.2861 11.2294 16.2861 10.8647C16.2861 10.4798 15.965 10.1663 15.571 10.1663ZM6.41001 7.14917C6.14525 7.41338 6.13779 7.85733 6.42154 8.14108L7.07092 8.77554C7.35752 9.05698 7.786 9.06905 8.06283 8.80198C8.32705 8.5303 8.32244 8.10183 8.04099 7.82269L7.387 7.1687C7.11071 6.87518 6.67939 6.8844 6.41001 7.14917ZM13.6046 7.1687L12.9506 7.82269C12.6743 8.1139 12.6743 8.5303 12.9385 8.80198C13.2154 9.06675 13.6415 9.05929 13.923 8.77554L14.5701 8.14108C14.8613 7.85733 14.8561 7.41338 14.5914 7.14917C14.322 6.87979 13.8837 6.87749 13.6046 7.1687ZM9.81233 6.03146L9.81233 6.94749C9.81233 7.32659 10.1236 7.65455 10.4958 7.65455C10.868 7.65455 11.1816 7.32659 11.1816 6.94749L11.1816 6.03146C11.1816 5.62537 10.8657 5.31408 10.4958 5.31408C10.1259 5.31408 9.81233 5.62537 9.81233 6.03146Z"
                     fill="currentColor" fill-opacity="0.85" />
       </g>
</svg>