<?xml version="1.0" encoding="UTF-8"?>
<!--Generator: Apple Native CoreSVG 326-->
<!DOCTYPE svg PUBLIC "-//W3C//DTD SVG 1.1//EN" "http://www.w3.org/Graphics/SVG/1.1/DTD/svg11.dtd">
<svg version="1.1" xmlns="http://www.w3.org/2000/svg" xmlns:xlink="http://www.w3.org/1999/xlink"
       viewBox="0 0 26.7602 24.1922">
       <g>
              <rect height="24.1922" opacity="0" width="26.7602" x="0" y="0" />
              <path d="M18.5595 11.2873C18.5595 11.7507 18.502 12.1999 18.3877 12.6258L8.01117 12.6258C7.89682 12.1999 7.83931 11.7507 7.83931 11.2873C7.83931 8.28707 10.2417 5.88988 13.1994 5.88988C16.1572 5.88988 18.5595 8.28707 18.5595 11.2873ZM6.03552 10.8366C6.03783 11.4476 5.53014 11.9409 4.88803 11.9409L3.07508 11.9409C2.45766 11.9409 1.9299 11.4476 1.9299 10.8366C1.9299 10.233 2.4502 9.73966 3.07508 9.73966L4.88803 9.73966C5.53014 9.73966 6.03322 10.2353 6.03552 10.8366ZM24.469 10.8366C24.469 11.4476 23.9584 11.9432 23.3238 11.9409L21.5108 11.9409C20.8859 11.9409 20.3656 11.4476 20.3633 10.8366C20.3536 10.233 20.8785 9.73966 21.5108 9.73966L23.3238 9.73966C23.9584 9.73966 24.469 10.2353 24.469 10.8366ZM6.82266 3.33469L8.11154 4.60865C8.55263 5.0595 8.56009 5.77622 8.14029 6.20063C7.71072 6.6325 6.9894 6.60781 6.546 6.16441L5.25712 4.89792C4.80627 4.4396 4.80627 3.72289 5.23298 3.30078C5.66255 2.87121 6.3718 2.87637 6.82266 3.33469ZM21.1682 3.30078C21.5903 3.72519 21.5926 4.4396 21.1417 4.89792L19.8529 6.16441C19.4095 6.60781 18.6927 6.63019 18.2609 6.20063C17.829 5.77852 17.8462 5.0595 18.2896 4.60865L19.5785 3.33469C20.0294 2.87637 20.7386 2.86891 21.1682 3.30078ZM14.3038 1.13773L14.3038 2.95813C14.3038 3.58301 13.8105 4.10332 13.1994 4.10563C12.5884 4.10793 12.0951 3.58301 12.0951 2.95813L12.0951 1.13773C12.0951 0.503082 12.5884 0 13.1994 0C13.8105 0 14.3038 0.503082 14.3038 1.13773Z"
                     fill="currentColor" fill-opacity="0.85" />
              <path d="M7.44614 20.83L8.66345 18.7223C8.8863 18.3449 8.78864 17.8614 8.39122 17.6334C7.9938 17.4077 7.56478 17.5501 7.31955 17.955L6.09994 20.0696C5.8817 20.4424 5.96959 20.9185 6.36931 21.1442C6.76443 21.3699 7.2279 21.2051 7.44614 20.83ZM9.73645 23.5908L12.5725 18.7102C12.7908 18.33 12.6903 17.8562 12.3026 17.6282C11.9075 17.4025 11.4567 17.5501 11.231 17.9475L8.40693 22.8235C8.18869 23.2083 8.27428 23.677 8.67169 23.9027C9.05935 24.1284 9.52567 23.9733 9.73645 23.5908ZM15.2196 20.8277L16.4443 18.72C16.6649 18.3352 16.5598 17.8591 16.1721 17.6311C15.7724 17.4054 15.3359 17.5478 15.1004 17.9527L13.8734 20.0673C13.6551 20.4401 13.7407 20.9162 14.1404 21.1419C14.5379 21.3676 15.0013 21.2028 15.2196 20.8277ZM17.515 23.5885L20.346 18.7079C20.5642 18.3277 20.4689 17.8539 20.0738 17.6259C19.681 17.4002 19.2324 17.5478 19.0044 17.9452L16.1781 22.8212C15.9598 23.1986 16.0477 23.6747 16.4428 23.9004C16.8379 24.1261 17.2968 23.971 17.515 23.5885Z"
                     fill="currentColor" fill-opacity="0.85" />
              <path d="M3.51399 15.6778L22.9078 15.6778C23.3764 15.6778 23.7468 15.3395 23.7468 14.8909C23.7468 14.4424 23.3764 14.1041 22.9078 14.1041L3.51399 14.1041C3.04306 14.1041 2.67493 14.4424 2.67493 14.8909C2.67493 15.3395 3.04306 15.6778 3.51399 15.6778Z"
                     fill="currentColor" fill-opacity="0.85" />
       </g>
</svg>