<?xml version="1.0" encoding="UTF-8"?>
<!--Generator: Apple Native CoreSVG 326-->
<!DOCTYPE svg PUBLIC "-//W3C//DTD SVG 1.1//EN" "http://www.w3.org/Graphics/SVG/1.1/DTD/svg11.dtd">
<svg version="1.1" xmlns="http://www.w3.org/2000/svg" xmlns:xlink="http://www.w3.org/1999/xlink"
       viewBox="0 0 25.3906 17.8633">
       <g>
              <rect height="17.8633" opacity="0" width="25.3906" x="0" y="0" />
              <path d="M17.84 11.2351C17.84 8.27731 15.4549 5.88758 12.5195 5.88758C9.57438 5.88758 7.18926 8.27731 7.18926 11.2351C7.18926 11.6197 7.23875 11.9876 7.3406 12.3343L17.6887 12.3343C17.7905 11.9876 17.84 11.6197 17.84 11.2351ZM2.39519 11.5977L4.20813 11.6052C4.84278 11.6052 5.35793 11.097 5.35563 10.4934C5.35332 9.88233 4.84047 9.38901 4.20813 9.38901L2.39519 9.38901C1.76054 9.38901 1.25 9.88233 1.25 10.4934C1.25 11.097 1.768 11.5977 2.39519 11.5977ZM5.85865 6.16441C6.3072 6.60781 7.02852 6.6325 7.45063 6.20063C7.88019 5.77622 7.87273 5.0572 7.42934 4.60865L6.14046 3.33469C5.68214 2.87407 4.98265 2.87121 4.55078 3.30078C4.11891 3.72289 4.1166 4.4396 4.57723 4.89792ZM17.5787 6.20063C18.0031 6.63019 18.7221 6.60781 19.1707 6.16441L20.4521 4.89792C20.9127 4.4396 20.9081 3.72519 20.4785 3.30078C20.0564 2.86891 19.3472 2.87407 18.8888 3.33469L17.6 4.60865C17.1566 5.0572 17.1468 5.77852 17.5787 6.20063ZM20.8212 11.5977L22.6341 11.5977C23.2762 11.5977 23.7793 11.097 23.7793 10.4934C23.7793 9.88233 23.2762 9.38901 22.6341 9.38901L20.8212 9.38901C20.1963 9.38901 19.6714 9.88233 19.6737 10.4934C19.676 11.097 20.2037 11.5977 20.8212 11.5977ZM12.5195 4.10563C13.1208 4.10332 13.6164 3.58301 13.6164 2.95813L13.6164 1.14519C13.6164 0.503082 13.1208 0 12.5195 0C11.9085 0 11.4129 0.503082 11.4129 1.14519L11.4129 2.95813C11.4129 3.58301 11.9085 4.10793 12.5195 4.10563Z"
                     fill="currentColor" fill-opacity="0.85" />
              <path d="M1.35694 16.6658L23.6724 16.6658C24.4298 16.6658 25.0293 16.0158 25.0293 15.2877C25.0293 14.5297 24.4372 13.9096 23.6724 13.9096L1.35694 13.9096C0.599525 13.9096 0 14.5521 0 15.2877C0 15.9934 0.606986 16.6658 1.35694 16.6658Z"
                     fill="currentColor" fill-opacity="0.85" />
       </g>
</svg>