<?xml version="1.0" encoding="UTF-8"?>
<!--Generator: Apple Native CoreSVG 326-->
<!DOCTYPE svg PUBLIC "-//W3C//DTD SVG 1.1//EN" "http://www.w3.org/Graphics/SVG/1.1/DTD/svg11.dtd">
<svg version="1.1" xmlns="http://www.w3.org/2000/svg" xmlns:xlink="http://www.w3.org/1999/xlink"
       viewBox="0 0 21.365 21.006">
       <g>
              <rect height="21.006" opacity="0" width="21.365" x="0" y="0" />
              <path d="M21.0037 10.5079C21.0037 16.3043 16.302 21.006 10.4981 21.006C4.70394 21.006 0 16.3043 0 10.5079C0 4.7137 4.70394 0.00976562 10.4981 0.00976562C16.302 0.00976562 21.0037 4.7137 21.0037 10.5079ZM6.36319 15.7894C6.36319 16.1277 6.63772 16.3948 6.96623 16.3948C7.30681 16.3948 7.58134 16.1277 7.58134 15.7894C7.58134 15.4512 7.30681 15.1743 6.96623 15.1743C6.63772 15.1743 6.36319 15.4512 6.36319 15.7894ZM8.7369 15.7894C8.7369 16.1277 9.01143 16.3948 9.34225 16.3948C9.68053 16.3948 9.95736 16.1277 9.95736 15.7894C9.95736 15.4512 9.68053 15.1743 9.34225 15.1743C9.01143 15.1743 8.7369 15.4512 8.7369 15.7894ZM11.0957 15.7894C11.0957 16.1277 11.3702 16.3948 11.701 16.3948C12.0416 16.3948 12.3138 16.1277 12.3138 15.7894C12.3138 15.4512 12.0416 15.1743 11.701 15.1743C11.3702 15.1743 11.0957 15.4512 11.0957 15.7894ZM13.447 15.7894C13.447 16.1277 13.729 16.3948 14.0621 16.3948C14.3907 16.3948 14.6652 16.1277 14.6652 15.7894C14.6652 15.4512 14.3907 15.1743 14.0621 15.1743C13.729 15.1743 13.447 15.4512 13.447 15.7894ZM5.17002 14.3052C5.17002 14.6412 5.45201 14.918 5.78283 14.918C6.11595 14.918 6.38818 14.6412 6.38818 14.3052C6.38818 13.9744 6.11595 13.6975 5.78283 13.6975C5.45201 13.6975 5.17002 13.9744 5.17002 14.3052ZM7.5512 14.3052C7.5512 14.6412 7.82572 14.918 8.15654 14.918C8.48736 14.918 8.7642 14.6412 8.7642 14.3052C8.7642 13.9744 8.48736 13.6975 8.15654 13.6975C7.82572 13.6975 7.5512 13.9744 7.5512 14.3052ZM9.90253 14.3052C9.90253 14.6412 10.1771 14.918 10.5153 14.918C10.8485 14.918 11.123 14.6412 11.123 14.3052C11.123 13.9744 10.8485 13.6975 10.5153 13.6975C10.1771 13.6975 9.90253 13.9744 9.90253 14.3052ZM12.2762 14.3052C12.2762 14.6412 12.5531 14.918 12.8914 14.918C13.2222 14.918 13.4944 14.6412 13.4944 14.3052C13.4944 13.9744 13.2222 13.6975 12.8914 13.6975C12.5531 13.6975 12.2762 13.9744 12.2762 14.3052ZM14.635 14.3052C14.635 14.6412 14.9119 14.918 15.2404 14.918C15.5787 14.918 15.8555 14.6412 15.8555 14.3052C15.8555 13.9744 15.5787 13.6975 15.2404 13.6975C14.9119 13.6975 14.635 13.9744 14.635 14.3052ZM5.53481 11.341C5.06563 11.341 4.71528 11.7223 4.71528 12.1564C4.71528 12.5809 5.08286 12.9817 5.53481 12.9817L15.4637 12.9817C15.938 12.9817 16.2884 12.5958 16.2884 12.1564C16.2884 11.7148 15.9404 11.341 15.4637 11.341ZM7.69404 9.93449C7.69404 10.1374 7.71764 10.3581 7.77053 10.5489L13.2332 10.5489C13.286 10.3581 13.3022 10.1374 13.3022 9.93449C13.3022 8.3834 12.0417 7.1132 10.4981 7.1132C8.96424 7.1132 7.69404 8.3834 7.69404 9.93449ZM5.4252 8.88302C5.03864 8.88302 4.71528 9.19661 4.71528 9.56649C4.71528 9.93868 5.03864 10.2523 5.4252 10.2523L6.33377 10.2523C6.73986 10.2523 7.0506 9.94098 7.0506 9.56649C7.0506 9.1943 6.73756 8.88302 6.33377 8.88302ZM14.6699 8.88302C14.281 8.88302 13.9479 9.1943 13.9479 9.56649C13.9479 9.94098 14.281 10.2523 14.6699 10.2523L15.5733 10.2523C15.9748 10.2523 16.2884 9.93868 16.2884 9.56649C16.2884 9.19661 15.9748 8.88302 15.5733 8.88302ZM6.41232 5.85101C6.14525 6.12784 6.14009 6.57409 6.42384 6.84291L7.08069 7.4946C7.36213 7.75882 7.7883 7.78066 8.06513 7.51874C8.32935 7.23214 8.32474 6.81343 8.0433 6.52453L7.38931 5.87054C7.11302 5.57933 6.67939 5.58394 6.41232 5.85101ZM13.6144 5.87054L12.9529 6.52453C12.6766 6.81574 12.6766 7.23214 12.9408 7.51874C13.2177 7.76859 13.6439 7.76112 13.9253 7.4946L14.5724 6.84291C14.8636 6.57409 14.8584 6.13014 14.5937 5.85101C14.3243 5.58163 13.8861 5.58163 13.6144 5.87054ZM9.81464 4.7333L9.81464 5.64932C9.81464 6.02842 10.1259 6.36385 10.4981 6.36385C10.8703 6.36385 11.1839 6.02842 11.1839 5.64932L11.1839 4.7333C11.1839 4.33697 10.868 4.02338 10.4981 4.02338C10.1282 4.02338 9.81464 4.33697 9.81464 4.7333Z"
                     fill="currentColor" fill-opacity="0.85" />
       </g>
</svg>