<?xml version="1.0" encoding="UTF-8"?>
<!--Generator: Apple Native CoreSVG 326-->
<!DOCTYPE svg PUBLIC "-//W3C//DTD SVG 1.1//EN" "http://www.w3.org/Graphics/SVG/1.1/DTD/svg11.dtd">
<svg version="1.1" xmlns="http://www.w3.org/2000/svg" xmlns:xlink="http://www.w3.org/1999/xlink"
       viewBox="0 0 26.7602 24.9694">
       <g>
              <rect height="24.9694" opacity="0" width="26.7602" x="0" y="0" />
              <path d="M18.5595 11.6759C18.5595 12.1393 18.502 12.5885 18.3877 13.0144L8.01117 13.0144C7.89682 12.5885 7.83931 12.1393 7.83931 11.6759C7.83931 8.67563 10.2417 6.27845 13.1994 6.27845C16.1572 6.27845 18.5595 8.67563 18.5595 11.6759ZM6.03552 11.2251C6.03783 11.8362 5.53014 12.3295 4.88803 12.3295L3.07508 12.3295C2.45766 12.3295 1.9299 11.8362 1.9299 11.2251C1.9299 10.6215 2.4502 10.1282 3.07508 10.1282L4.88803 10.1282C5.53014 10.1282 6.03322 10.6238 6.03552 11.2251ZM24.469 11.2251C24.469 11.8362 23.9584 12.3318 23.3238 12.3295L21.5108 12.3295C20.8859 12.3295 20.3656 11.8362 20.3633 11.2251C20.3536 10.6215 20.8785 10.1282 21.5108 10.1282L23.3238 10.1282C23.9584 10.1282 24.469 10.6238 24.469 11.2251ZM6.82266 3.72325L8.11154 4.99721C8.55263 5.44806 8.56009 6.16478 8.14029 6.58919C7.71072 7.02106 6.9894 6.99637 6.546 6.55298L5.25712 5.28648C4.80627 4.82816 4.80627 4.11145 5.23298 3.68934C5.66255 3.25978 6.3718 3.26493 6.82266 3.72325ZM21.1682 3.68934C21.5903 4.11375 21.5926 4.82816 21.1417 5.28648L19.8529 6.55298C19.4095 6.99637 18.6927 7.01875 18.2609 6.58919C17.829 6.16708 17.8462 5.44806 18.2896 4.99721L19.5785 3.72325C20.0294 3.26493 20.7386 3.25747 21.1682 3.68934ZM14.3038 1.52629L14.3038 3.3467C14.3038 3.97158 13.8105 4.49188 13.1994 4.49419C12.5884 4.49649 12.0951 3.97158 12.0951 3.3467L12.0951 1.52629C12.0951 0.891644 12.5884 0.388562 13.1994 0.388562C13.8105 0.388562 14.3038 0.891644 14.3038 1.52629Z"
                     fill="currentColor" fill-opacity="0.85" />
              <path d="M7.78927 21.3073C8.04196 21.3073 8.20622 21.089 8.16661 20.8214L8.02365 19.9086L8.76013 20.4882C8.97146 20.653 9.23107 20.6288 9.3511 20.4077C9.48606 20.1866 9.38271 19.915 9.12255 19.8145L8.29017 19.4864L9.13978 19.141C9.39017 19.0382 9.49122 18.7861 9.36833 18.565C9.24314 18.3565 8.964 18.3123 8.75267 18.4771L8.03111 19.0366L8.16892 18.1439C8.21083 17.8739 8.04196 17.6655 7.78927 17.6655C7.52681 17.6655 7.36256 17.8739 7.3947 18.1439L7.52275 19.0366L6.80634 18.4696C6.60247 18.3123 6.32794 18.3542 6.20275 18.565C6.07756 18.7861 6.1763 19.0359 6.43646 19.141L7.29122 19.4789L6.429 19.8219C6.174 19.9322 6.07525 20.1843 6.2056 20.4077C6.3308 20.6311 6.60247 20.653 6.80634 20.4882L7.52275 19.931L7.39701 20.8214C7.36486 21.089 7.52681 21.3073 7.78927 21.3073ZM13.1994 21.3073C13.4521 21.3073 13.6141 21.089 13.5745 20.8214L13.4338 19.9086L14.1703 20.4882C14.3816 20.653 14.6412 20.6288 14.7613 20.4077C14.8962 20.1866 14.7929 19.915 14.5327 19.8145L13.7003 19.4864L14.5499 19.141C14.8003 19.0382 14.9014 18.7861 14.7785 18.565C14.6533 18.3565 14.3742 18.3123 14.1628 18.4771L13.4413 19.0366L13.5768 18.1439C13.6187 17.8739 13.4521 17.6655 13.1994 17.6655C12.937 17.6655 12.7653 17.8739 12.8049 18.1439L12.9329 19.0366L12.2165 18.4696C12.0126 18.3123 11.7381 18.3542 11.6129 18.565C11.4877 18.7861 11.5865 19.0359 11.8466 19.141L12.7014 19.4789L11.8392 19.8219C11.5842 19.9322 11.4854 20.1843 11.6158 20.4077C11.741 20.6311 12.0126 20.653 12.2165 20.4882L12.9329 19.931L12.8072 20.8214C12.775 21.089 12.937 21.3073 13.1994 21.3073ZM18.6096 21.3073C18.8623 21.3073 19.0242 21.089 18.9846 20.8214L18.844 19.9086L19.5804 20.4882C19.7918 20.653 20.0514 20.6288 20.1714 20.4077C20.3064 20.1866 20.203 19.915 19.9429 19.8145L19.1105 19.4864L19.9601 19.141C20.2105 19.0382 20.3115 18.7861 20.1886 18.565C20.0634 18.3565 19.7843 18.3123 19.573 18.4771L18.8514 19.0366L18.9869 18.1439C19.0288 17.8739 18.8623 17.6655 18.6096 17.6655C18.3471 17.6655 18.1754 17.8739 18.215 18.1439L18.3431 19.0366L17.6267 18.4696C17.4228 18.3123 17.1483 18.3542 17.0231 18.565C16.8979 18.7861 16.9966 19.0359 17.2568 19.141L18.1115 19.4789L17.2493 19.8219C16.9943 19.9322 16.8956 20.1843 17.0259 20.4077C17.1511 20.6311 17.4228 20.653 17.6267 20.4882L18.3431 19.931L18.2173 20.8214C18.1852 21.089 18.3471 21.3073 18.6096 21.3073ZM5.67013 24.9694C5.92282 24.9694 6.08708 24.7511 6.04747 24.491L5.90451 23.5782L6.64099 24.1503C6.85232 24.3225 7.11192 24.2909 7.23196 24.0698C7.36692 23.8562 7.26357 23.5868 7.00341 23.4766L6.17103 23.1485L7.02064 22.8032C7.27103 22.7003 7.37208 22.4482 7.24919 22.2346C7.124 22.0186 6.84486 21.9744 6.63353 22.1467L5.91197 22.6987L6.04978 21.806C6.09169 21.5361 5.92282 21.3276 5.67013 21.3276C5.40767 21.3276 5.24341 21.5361 5.27556 21.806L5.40361 22.6987L4.6872 22.1392C4.48333 21.9744 4.2088 22.0163 4.08361 22.2346C3.95842 22.4482 4.05716 22.698 4.31732 22.8032L5.17208 23.141L4.30986 23.484C4.05486 23.5943 3.95611 23.8539 4.08646 24.0698C4.21166 24.2932 4.48333 24.3225 4.6872 24.1503L5.40361 23.5931L5.27787 24.491C5.24572 24.7511 5.40767 24.9694 5.67013 24.9694ZM11.0803 24.9694C11.333 24.9694 11.4949 24.7511 11.4553 24.491L11.3147 23.5782L12.0511 24.1503C12.2625 24.3225 12.5221 24.2909 12.6421 24.0698C12.7771 23.8562 12.6737 23.5868 12.4136 23.4766L11.5812 23.1485L12.4308 22.8032C12.6812 22.7003 12.7822 22.4482 12.6593 22.2346C12.5342 22.0186 12.255 21.9744 12.0437 22.1467L11.3221 22.6987L11.4576 21.806C11.4995 21.5361 11.333 21.3276 11.0803 21.3276C10.8178 21.3276 10.6461 21.5361 10.6857 21.806L10.8138 22.6987L10.0974 22.1392C9.89349 21.9744 9.61896 22.0163 9.49377 22.2346C9.36857 22.4482 9.46732 22.698 9.72747 22.8032L10.5822 23.141L9.72001 23.484C9.46502 23.5943 9.36627 23.8539 9.49662 24.0698C9.62181 24.2932 9.89349 24.3225 10.0974 24.1503L10.8138 23.5931L10.688 24.491C10.6559 24.7511 10.8178 24.9694 11.0803 24.9694ZM16.4904 24.9694C16.7431 24.9694 16.9051 24.7511 16.8655 24.491L16.7248 23.5782L17.4613 24.1503C17.6726 24.3225 17.9322 24.2909 18.0523 24.0698C18.1872 23.8562 18.0839 23.5868 17.8237 23.4766L16.9913 23.1485L17.8409 22.8032C18.0913 22.7003 18.1924 22.4482 18.0695 22.2346C17.9443 22.0186 17.6652 21.9744 17.4538 22.1467L16.7323 22.6987L16.8678 21.806C16.9097 21.5361 16.7431 21.3276 16.4904 21.3276C16.228 21.3276 16.0563 21.5361 16.0959 21.806L16.2239 22.6987L15.5075 22.1392C15.3036 21.9744 15.0291 22.0163 14.9039 22.2346C14.7787 22.4482 14.8775 22.698 15.1376 22.8032L15.9924 23.141L15.1302 23.484C14.8752 23.5943 14.7764 23.8539 14.9068 24.0698C15.032 24.2932 15.3036 24.3225 15.5075 24.1503L16.2239 23.5931L16.0982 24.491C16.066 24.7511 16.228 24.9694 16.4904 24.9694ZM3.51399 16.0663L22.9078 16.0663C23.3764 16.0663 23.7468 15.7281 23.7468 15.2795C23.7468 14.831 23.3764 14.4927 22.9078 14.4927L3.51399 14.4927C3.04306 14.4927 2.67493 14.831 2.67493 15.2795C2.67493 15.7281 3.04306 16.0663 3.51399 16.0663Z"
                     fill="currentColor" fill-opacity="0.85" />
       </g>
</svg>