<?xml version="1.0" encoding="UTF-8"?>
<!--Generator: Apple Native CoreSVG 326-->
<!DOCTYPE svg PUBLIC "-//W3C//DTD SVG 1.1//EN" "http://www.w3.org/Graphics/SVG/1.1/DTD/svg11.dtd">
<svg version="1.1" xmlns="http://www.w3.org/2000/svg" xmlns:xlink="http://www.w3.org/1999/xlink"
       viewBox="0 0 33.9415 11.9015">
       <g>
              <rect height="11.9015" opacity="0" width="33.9415" x="0" y="0" />
              <path d="M33.5802 1.23581C33.5802 2.07826 32.8064 2.5131 32.5588 3.68971L32.3211 4.8335C31.3466 9.39957 28.8128 11.8917 24.8979 11.8917C22.2235 11.8917 19.6969 10.6436 18.2863 7.41587L17.2987 5.17888C17.1924 4.94438 17.0114 4.81622 16.7912 4.81622C16.5688 4.81622 16.3878 4.94438 16.2837 5.17888L15.3013 7.41587C13.8856 10.6436 11.3589 11.8917 8.69208 11.8917C4.76732 11.8917 2.23354 9.39957 1.2614 4.8335L1.02363 3.68971C0.783555 2.5131 0 2.07826 0 1.23581C0 0.536321 0.505387 0 1.50749 0C4.83502 0 8.00102 0.171171 9.81039 0.437694C13.3937 0.977654 15.0668 1.94839 16.7912 1.94839C18.5134 1.94839 20.1865 0.977654 23.7698 0.437694C25.5791 0.171171 28.7526 0 32.075 0C33.0771 0 33.5802 0.536321 33.5802 1.23581ZM3.76153 4.0733C3.76153 7.19545 5.71047 9.38756 8.70184 9.38756C11.3497 9.38756 13.1068 7.53482 13.1068 4.99982C13.1068 3.49118 11.1449 2.73341 6.53345 2.73341C4.45052 2.73341 3.76153 3.14884 3.76153 4.0733ZM20.4734 4.99982C20.4734 7.53482 22.2403 9.38756 24.8783 9.38756C27.8697 9.38756 29.8261 7.19545 29.8261 4.0733C29.8261 3.14884 29.132 2.73341 27.0467 2.73341C22.4427 2.73341 20.4734 3.49118 20.4734 4.99982Z"
                     fill="currentColor" fill-opacity="0.85" />
       </g>
</svg>