<?xml version="1.0" encoding="UTF-8"?>
<!--Generator: Apple Native CoreSVG 326-->
<!DOCTYPE svg PUBLIC "-//W3C//DTD SVG 1.1//EN" "http://www.w3.org/Graphics/SVG/1.1/DTD/svg11.dtd">
<svg version="1.1" xmlns="http://www.w3.org/2000/svg" xmlns:xlink="http://www.w3.org/1999/xlink"
       viewBox="0 0 28.4819 27.3944">
       <g>
              <rect height="27.3944" opacity="0" width="28.4819" x="0" y="0" />
              <path d="M19.4357 18.9436C19.4357 19.8927 19.1955 20.782 18.7729 21.5544L15.5075 21.5544C16.4009 21.0502 17.0054 20.0869 17.0054 18.9511C17.0054 17.2762 15.6792 15.9701 14.0566 15.9701C12.4413 15.9701 11.1077 17.2762 11.1077 18.9511C11.1077 20.0869 11.7156 21.0502 12.6089 21.5544L9.34749 21.5544C8.92503 20.782 8.68492 19.8927 8.68492 18.9436C8.68492 15.9319 11.0993 13.5324 14.0566 13.5324C17.0212 13.5324 19.4357 15.9319 19.4357 18.9436ZM6.90011 18.1749C6.90242 18.7785 6.38726 19.2718 5.75262 19.2718L3.93221 19.2718C3.31479 19.2718 2.78702 18.7785 2.78702 18.1749C2.78702 17.5639 3.30733 17.0706 3.93221 17.0706L5.75262 17.0706C6.38726 17.0706 6.89781 17.5639 6.90011 18.1749ZM25.3261 18.1749C25.3261 18.7785 24.823 19.2718 24.1809 19.2718L22.368 19.2718C21.7482 19.2718 21.2228 18.7785 21.2205 18.1749C21.2182 17.5639 21.7408 17.0706 22.368 17.0706L24.1809 17.0706C24.823 17.0706 25.3261 17.5639 25.3261 18.1749ZM7.68725 11.0162L8.96867 12.2902C9.41722 12.7313 9.42468 13.4503 8.99511 13.8822C8.57301 14.314 7.84653 14.2894 7.40313 13.846L6.11425 12.5795C5.6634 12.1211 5.6634 11.4044 6.09527 10.9823C6.51968 10.5528 7.22662 10.5579 7.68725 11.0162ZM22.0253 10.9823C22.4549 11.4067 22.4572 12.1211 21.9989 12.5795L20.71 13.846C20.2666 14.2894 19.5499 14.3117 19.1255 13.8822C18.6936 13.4601 18.7034 12.7313 19.1444 12.2902L20.4356 11.0162C20.8939 10.5579 21.5957 10.5505 22.0253 10.9823Z"
                     fill="currentColor" fill-opacity="0.85" />
              <path d="M2.90373 24.3106L25.2191 24.3106C25.9766 24.3106 26.5761 23.6606 26.5761 22.9325C26.5761 22.1745 25.984 21.5544 25.2191 21.5544L2.90373 21.5544C2.14401 21.5544 1.54679 22.1969 1.54679 22.9325C1.54679 23.6382 2.15147 24.3106 2.90373 24.3106Z"
                     fill="currentColor" fill-opacity="0.85" />
              <path d="M14.0566 11.4807C14.6653 11.4807 15.1632 10.9655 15.1632 10.3378L15.1558 7.4889L14.9416 5.75317L15.55 6.6877L16.3552 7.60712C16.5815 7.88559 16.8491 8.09286 17.2459 8.09286C17.8305 8.09286 18.2606 7.64782 18.2606 7.09537C18.2606 6.74853 18.0579 6.44307 17.78 6.18237L14.8972 3.44502C14.6101 3.17741 14.3741 3.07175 14.0566 3.07175C13.739 3.07175 13.503 3.17741 13.2233 3.44502L10.3406 6.18237C10.0627 6.44307 9.85254 6.74853 9.85254 7.09537C9.85254 7.64782 10.2901 8.09286 10.8747 8.09286C11.264 8.09286 11.5316 7.88559 11.7579 7.60712L12.5936 6.65719L13.1715 5.75317L12.9671 7.4889L12.9597 10.3378C12.9597 10.9655 13.4553 11.4807 14.0566 11.4807Z"
                     fill="currentColor" fill-opacity="0.85" />
       </g>
</svg>