<?xml version="1.0" encoding="UTF-8"?>
<!--Generator: Apple Native CoreSVG 326-->
<!DOCTYPE svg PUBLIC "-//W3C//DTD SVG 1.1//EN" "http://www.w3.org/Graphics/SVG/1.1/DTD/svg11.dtd">
<svg version="1.1" xmlns="http://www.w3.org/2000/svg" xmlns:xlink="http://www.w3.org/1999/xlink"
       viewBox="0 0 21.365 21.006">
       <g>
              <rect height="21.006" opacity="0" width="21.365" x="0" y="0" />
              <path d="M21.0037 10.5079C21.0037 16.3043 16.302 21.006 10.4981 21.006C4.70394 21.006 0 16.3043 0 10.5079C0 4.7137 4.70394 0.00976562 10.4981 0.00976562C16.302 0.00976562 21.0037 4.7137 21.0037 10.5079ZM5.80891 13.3701C5.36673 13.3701 5.02845 13.7439 5.02845 14.1563C5.02845 14.5612 5.38396 14.935 5.80891 14.935L15.2619 14.935C15.7041 14.935 16.0424 14.5686 16.0424 14.1563C16.0424 13.7365 15.7064 13.3701 15.2619 13.3701ZM7.85951 12.0303C7.85951 12.2212 7.8808 12.4493 7.936 12.6131L13.1348 12.6131C13.19 12.4493 13.2113 12.2212 13.2113 12.0303C13.2113 10.5591 12.0089 9.35674 10.5354 9.35674C9.0642 9.35674 7.85951 10.5591 7.85951 12.0303ZM5.70677 11.0225C5.33974 11.0225 5.02845 11.3189 5.02845 11.6916C5.02845 12.0345 5.33974 12.336 5.70677 12.336L6.57682 12.336C6.95131 12.336 7.25513 12.0443 7.25513 11.6916C7.25513 11.3166 6.95131 11.0225 6.57682 11.0225ZM14.4963 11.0225C14.1293 11.0225 13.8157 11.3166 13.8157 11.6916C13.8157 12.0443 14.1293 12.336 14.4963 12.336L15.3641 12.336C15.7483 12.336 16.0424 12.0345 16.0424 11.6916C16.0424 11.3166 15.7483 11.0225 15.3641 11.0225ZM6.63814 8.1526C6.3906 8.40475 6.38314 8.83662 6.65482 9.10314L7.27776 9.71116C7.55459 9.9633 7.96354 9.97537 8.22084 9.72323C8.47068 9.45846 8.46377 9.05698 8.1967 8.78761L7.58122 8.17213C7.30208 7.90045 6.89544 7.90506 6.63814 8.1526ZM13.4896 8.17213L12.8764 8.78761C12.6048 9.05929 12.6024 9.45846 12.8621 9.72323C13.1119 9.97307 13.5237 9.96561 13.7954 9.71116L14.416 9.10314C14.6854 8.83662 14.6802 8.40475 14.4327 8.1526C14.1754 7.90045 13.7687 7.90276 13.4896 8.17213ZM9.88124 5.04458L9.88124 6.42026L9.91053 6.65761L9.94377 6.72585L9.54369 6.26322C9.41619 6.11334 9.24963 5.98014 9.01076 5.98014C8.67994 5.98014 8.40487 6.25752 8.40487 6.58604C8.40487 6.80482 8.526 6.97193 8.68049 7.12127L10.0496 8.42768C10.2115 8.5724 10.3585 8.63615 10.5354 8.63615C10.7123 8.63615 10.8593 8.5724 11.0213 8.42768L12.3903 7.12127C12.5471 6.97193 12.666 6.80482 12.666 6.58604C12.666 6.25752 12.3909 5.98014 12.0601 5.98014C11.8212 5.98014 11.6523 6.11334 11.5294 6.26092L11.153 6.70917L11.1603 6.66452L11.1896 6.42026L11.1896 5.04458C11.1896 4.68216 10.8881 4.36111 10.5354 4.36111C10.1828 4.36111 9.88124 4.68216 9.88124 5.04458Z"
                     fill="currentColor" fill-opacity="0.85" />
       </g>
</svg>