<?xml version="1.0" encoding="UTF-8"?>
<!--Generator: Apple Native CoreSVG 326-->
<!DOCTYPE svg PUBLIC "-//W3C//DTD SVG 1.1//EN" "http://www.w3.org/Graphics/SVG/1.1/DTD/svg11.dtd">
<svg version="1.1" xmlns="http://www.w3.org/2000/svg" xmlns:xlink="http://www.w3.org/1999/xlink"
       viewBox="0 0 28.4819 24.4747">
       <g>
              <rect height="24.4747" opacity="0" width="28.4819" x="0" y="0" />
              <path d="M19.4241 17.4722C19.4241 17.8627 19.3832 18.2431 19.3034 18.6087L8.81714 18.6087C8.7374 18.2431 8.69644 17.8627 8.69644 17.4722C8.69644 14.472 11.1062 12.0748 14.0566 12.0748C17.0143 12.0748 19.4241 14.472 19.4241 17.4722ZM6.90011 16.6783C6.90242 17.2819 6.38726 17.7901 5.75262 17.7901L3.93221 17.7827C3.31479 17.7827 2.78702 17.2819 2.78702 16.6783C2.78702 16.0672 3.30733 15.5739 3.93221 15.5739L5.75262 15.5739C6.38726 15.5739 6.89781 16.0672 6.90011 16.6783ZM25.3261 16.6783C25.3261 17.2819 24.823 17.7827 24.1809 17.7827L22.368 17.7827C21.7482 17.7827 21.2228 17.2819 21.2205 16.6783C21.2182 16.0672 21.7408 15.5739 22.368 15.5739L24.1809 15.5739C24.823 15.5739 25.3261 16.0672 25.3261 16.6783ZM7.68725 9.5196L8.96867 10.7936C9.41722 11.2421 9.42468 11.9611 8.99511 12.3855C8.57301 12.8174 7.84653 12.7927 7.40313 12.3493L6.11425 11.0828C5.6634 10.6245 5.6634 9.9078 6.09527 9.4857C6.51968 9.05613 7.22662 9.06129 7.68725 9.5196ZM22.0253 9.4857C22.4549 9.91011 22.4572 10.6245 21.9989 11.0828L20.71 12.3493C20.2666 12.7927 19.5499 12.8151 19.1255 12.3855C18.6936 11.9634 18.7034 11.2421 19.1444 10.7936L20.4356 9.5196C20.8939 9.06129 21.5957 9.05383 22.0253 9.4857Z"
                     fill="currentColor" fill-opacity="0.85" />
              <path d="M2.90373 22.8507L25.2191 22.8507C25.9766 22.8507 26.5761 22.2007 26.5761 21.4726C26.5761 20.7146 25.984 20.0945 25.2191 20.0945L2.90373 20.0945C2.14401 20.0945 1.54679 20.737 1.54679 21.4726C1.54679 22.1783 2.15147 22.8507 2.90373 22.8507Z"
                     fill="currentColor" fill-opacity="0.85" />
              <path d="M14.0566 1.61187C13.4553 1.61187 12.9597 2.13679 12.9597 2.75706L12.9671 5.60365L13.1715 7.33938L12.5936 6.44282L11.7579 5.48774C11.5316 5.20696 11.264 5.002 10.8747 5.002C10.2901 5.002 9.85254 5.45219 9.85254 5.99949C9.85254 6.34632 10.0627 6.65179 10.3406 6.91764L13.2233 9.64753C13.503 9.91514 13.739 10.0208 14.0566 10.0208C14.3741 10.0208 14.6101 9.91514 14.8972 9.64753L17.78 6.91764C18.0579 6.65179 18.2606 6.34632 18.2606 5.99949C18.2606 5.45219 17.8305 5.002 17.2459 5.002C16.8491 5.002 16.5815 5.20696 16.3552 5.48774L15.55 6.41231L14.9416 7.33938L15.1558 5.60365L15.1632 2.75706C15.1632 2.13679 14.6653 1.61187 14.0566 1.61187Z"
                     fill="currentColor" fill-opacity="0.85" />
       </g>
</svg>