<?xml version="1.0" encoding="UTF-8"?>
<!--Generator: Apple Native CoreSVG 326-->
<!DOCTYPE svg PUBLIC "-//W3C//DTD SVG 1.1//EN" "http://www.w3.org/Graphics/SVG/1.1/DTD/svg11.dtd">
<svg version="1.1" xmlns="http://www.w3.org/2000/svg" xmlns:xlink="http://www.w3.org/1999/xlink"
       viewBox="0 0 34.5552 29.5187">
       <g>
              <rect height="29.5187" opacity="0" width="34.5552" x="0" y="0" />
              <path d="M2.99338 21.4793L6.11868 21.4793L6.11868 18.517L3.45946 18.517C3.10371 18.517 2.9548 18.3514 2.9548 17.9583L2.9548 16.8797C2.9548 15.6507 3.59739 15.1023 5.59498 14.8587L9.51942 14.3699L13.6559 11.7999C15.5488 10.6217 16.537 10.366 19.9389 10.366L27.5309 10.366C28.9098 10.366 29.4581 10.6367 30.0815 11.5204L30.5088 12.1161C30.9788 12.7929 31.2316 13.5783 31.2316 14.289L31.2316 17.9652C31.2316 18.4175 31.1436 18.517 30.727 18.517L28.4867 18.517L28.4867 21.4793L31.3646 21.4793C33.1504 21.4793 34.1939 20.3703 34.1939 18.5114L34.1939 14.289C34.1939 13.0391 33.7217 11.5589 32.9342 10.4365L32.5143 9.82362C31.3276 8.11081 29.8791 7.41351 27.5309 7.41351L19.9389 7.41351C16.0569 7.41351 14.4308 7.80237 12.0751 9.27577L8.51229 11.5185L5.23553 11.9212C1.80925 12.3468 0 14.0039 0 16.8797L0 18.4273C0 20.4041 1.16757 21.4793 2.99338 21.4793ZM8.01509 21.0424C7.33993 21.0424 6.82739 20.5299 6.82739 19.8622C6.82739 19.1847 7.33993 18.6722 8.01509 18.6722C8.67018 18.6722 9.19764 19.1847 9.19764 19.8622C9.19764 20.5299 8.67018 21.0424 8.01509 21.0424ZM8.01509 23.5571C10.069 23.5571 11.7496 21.8937 11.7496 19.8324C11.7496 17.7486 10.069 16.0778 8.01509 16.0778C5.94854 16.0778 4.27777 17.7486 4.27777 19.8324C4.27777 21.8937 5.94854 23.5571 8.01509 23.5571ZM10.4447 21.4793L24.0176 21.4793L24.0176 18.517L10.4447 18.517ZM26.4318 23.5571C28.4909 23.5571 30.1663 21.8937 30.1663 19.8324C30.1663 17.7486 28.4909 16.0778 26.4318 16.0778C24.3653 16.0778 22.702 17.7486 22.702 19.8324C22.702 21.8937 24.3653 23.5571 26.4318 23.5571ZM26.4318 21.0424C25.7641 21.0424 25.2516 20.5299 25.2516 19.8622C25.2516 19.1847 25.7641 18.6722 26.4318 18.6722C27.0944 18.6722 27.6219 19.1847 27.6219 19.8622C27.6219 20.5299 27.0944 21.0424 26.4318 21.0424Z"
                     fill="currentColor" fill-opacity="0.85" />
              <path d="M16.8794 5.51594L28.6622 5.51594C29.8165 5.51594 30.2909 4.91114 30.2909 3.6501L30.2909 2.62362C30.2909 0.879331 29.4936 0 27.7038 0L23.589 0C21.6992 0 20.5541 0.354534 18.2684 1.47625L16.2823 2.4539C15.4037 2.89663 15.1337 3.36878 15.1337 4.10205C15.1337 4.9331 15.7395 5.51594 16.8794 5.51594Z"
                     fill="currentColor" fill-opacity="0.85" />
       </g>
</svg>