<?xml version="1.0" encoding="UTF-8"?>
<!--Generator: Apple Native CoreSVG 326-->
<!DOCTYPE svg PUBLIC "-//W3C//DTD SVG 1.1//EN" "http://www.w3.org/Graphics/SVG/1.1/DTD/svg11.dtd">
<svg version="1.1" xmlns="http://www.w3.org/2000/svg" xmlns:xlink="http://www.w3.org/1999/xlink"
       viewBox="0 0 34.5552 29.5187">
       <g>
              <rect height="29.5187" opacity="0" width="34.5552" x="0" y="0" />
              <path d="M11.8314 12.9335L9.51942 14.3699L5.59498 14.8587C3.59739 15.1023 2.9548 15.6507 2.9548 16.8797L2.9548 17.9583C2.9548 18.3514 3.10371 18.517 3.45946 18.517L4.51646 18.517C5.04187 17.087 6.40894 16.0778 8.01509 16.0778C9.61144 16.0778 10.9822 17.087 11.5098 18.517L17.4209 18.517L20.3863 21.4793L11.3603 21.4793C10.7525 22.7126 9.47857 23.5571 8.01509 23.5571C6.54263 23.5571 5.2711 22.7126 4.6654 21.4793L2.99338 21.4793C1.16757 21.4793 0 20.4041 0 18.4273L0 16.8797C0 14.0039 1.80925 12.3468 5.23553 11.9212L8.51229 11.5185L9.6794 10.7838ZM32.5143 9.82362L32.9342 10.4365C33.7217 11.5589 34.1939 13.0391 34.1939 14.289L34.1939 18.5114C34.1939 20.3703 33.1504 21.4793 31.3646 21.4793L29.7779 21.4793C29.4593 22.1316 28.9524 22.674 28.3273 23.0377L26.3264 21.0374C26.3609 21.041 26.3961 21.0424 26.4318 21.0424C27.0944 21.0424 27.6219 20.5299 27.6219 19.8622C27.6219 19.1847 27.0944 18.6722 26.4318 18.6722C25.7641 18.6722 25.2516 19.1847 25.2516 19.8622C25.2516 19.898 25.2531 19.9334 25.2567 19.968L23.2167 17.9288C23.8602 16.8176 25.0568 16.0778 26.4318 16.0778C28.0322 16.0778 29.4008 17.087 29.9271 18.517L30.727 18.517C31.1436 18.517 31.2316 18.4175 31.2316 17.9652L31.2316 14.289C31.2316 13.5783 30.9788 12.7929 30.5088 12.1161L30.0815 11.5204C29.4581 10.6367 28.9098 10.366 27.5309 10.366L19.9389 10.366C18.0833 10.366 16.9459 10.4421 15.9895 10.7038L13.6814 8.3965C15.338 7.63856 16.9857 7.41351 19.9389 7.41351L27.5309 7.41351C29.8791 7.41351 31.3276 8.11081 32.5143 9.82362ZM6.82739 19.8622C6.82739 20.5299 7.33993 21.0424 8.01509 21.0424C8.67018 21.0424 9.19764 20.5299 9.19764 19.8622C9.19764 19.1847 8.67018 18.6722 8.01509 18.6722C7.33993 18.6722 6.82739 19.1847 6.82739 19.8622Z"
                     fill="currentColor" fill-opacity="0.85" />
              <path d="M30.2909 2.62362L30.2909 3.6501C30.2909 4.91114 29.8165 5.51594 28.6622 5.51594L16.8794 5.51594C15.7395 5.51594 15.1337 4.9331 15.1337 4.10205C15.1337 3.36878 15.4037 2.89663 16.2823 2.4539L18.2684 1.47625C20.5541 0.354534 21.6992 0 23.589 0L27.7038 0C29.4936 0 30.2909 0.879331 30.2909 2.62362Z"
                     fill="currentColor" fill-opacity="0.85" />
              <path d="M28.1883 27.3C28.5261 27.6228 29.0815 27.6302 29.402 27.3C29.7248 26.9622 29.7397 26.4166 29.402 26.0863L6.2998 2.99387C5.95976 2.65383 5.40894 2.65383 5.07637 2.99387C4.7484 3.31437 4.74609 3.87496 5.07637 4.20753Z"
                     fill="currentColor" fill-opacity="0.85" />
       </g>
</svg>