<?xml version="1.0" encoding="UTF-8"?>
<!--Generator: Apple Native CoreSVG 326-->
<!DOCTYPE svg PUBLIC "-//W3C//DTD SVG 1.1//EN" "http://www.w3.org/Graphics/SVG/1.1/DTD/svg11.dtd">
<svg version="1.1" xmlns="http://www.w3.org/2000/svg" xmlns:xlink="http://www.w3.org/1999/xlink"
       viewBox="0 0 34.2535 26.7397">
       <g>
              <rect height="26.7397" opacity="0" width="34.2535" x="0" y="0" />
              <path d="M10.3354 12.1984C11.51 12.8664 13.0131 12.4723 13.6909 11.2903C14.3738 10.118 13.9626 8.61255 12.7903 7.93709C11.618 7.26162 10.1051 7.65564 9.42963 8.83771C8.75417 10.01 9.15565 11.5154 10.3354 12.1984ZM23.7262 19.9284C24.891 20.5964 26.4039 20.2023 27.0794 19.03C27.7623 17.848 27.3534 16.3449 26.1811 15.6671C25.0088 14.9939 23.4936 15.388 22.8204 16.5677C22.1427 17.74 22.5539 19.2454 23.7262 19.9284ZM33.8736 13.2638L33.8248 12.6463C33.6978 10.9053 32.9201 9.79037 31.2164 8.80526L25.703 5.62233C22.8784 3.99147 21.5245 3.59569 19.2021 3.68358L15.6586 3.80538L13.1085 2.72534C10.4444 1.59374 8.42826 2.04635 7.22491 4.13256L6.58092 5.25967C5.74987 6.6863 6.14784 7.95735 7.47287 8.71664L8.14597 9.10981C8.22179 8.83474 8.33722 8.55451 8.4871 8.28689C9.46124 6.59307 11.645 6.02042 13.3388 6.99686C15.0275 7.97099 15.6127 10.145 14.6311 11.8411C14.4813 12.0989 14.2969 12.3447 14.0954 12.5434L21.5368 16.8398C21.6103 16.5647 21.7257 16.2845 21.8779 16.0192C22.852 14.3328 25.0381 13.7527 26.7296 14.7269C28.416 15.701 29.0035 17.8773 28.0219 19.5711C27.8697 19.829 27.6877 20.0747 27.4862 20.2809L28.1044 20.6337C29.4025 21.3793 30.6195 21.0168 31.403 19.6646L33.1745 16.5954C33.7001 15.6861 33.954 14.4098 33.8736 13.2638Z"
                     fill="currentColor" fill-opacity="0.85" />
              <path d="M3.4968 5.14982L5.66926 1.39369C6.13043 0.58909 5.4654-0.144849 4.65103 0.0245637L1.40205 0.690264C0.838065 0.813153 0.575606 1.26456 0.761699 1.81131L1.80377 4.94365C2.06853 5.74825 3.02817 5.95442 3.4968 5.14982ZM0.188561 9.76077C-0.200184 10.4573 0.033524 11.3312 0.693281 11.7102L26.3163 26.4883C26.976 26.8725 27.8523 26.6508 28.2364 25.9738C28.6326 25.2773 28.3989 24.4034 27.7415 24.0244L2.11615 9.24629C1.4587 8.86215 0.580157 9.08379 0.188561 9.76077Z"
                     fill="currentColor" fill-opacity="0.85" />
       </g>
</svg>