<?xml version="1.0" encoding="UTF-8"?>
<!--Generator: Apple Native CoreSVG 326-->
<!DOCTYPE svg PUBLIC "-//W3C//DTD SVG 1.1//EN" "http://www.w3.org/Graphics/SVG/1.1/DTD/svg11.dtd">
<svg version="1.1" xmlns="http://www.w3.org/2000/svg" xmlns:xlink="http://www.w3.org/1999/xlink"
       viewBox="0 0 37.1263 17.1506">
       <g>
              <rect height="17.1506" opacity="0" width="37.1263" x="0" y="0" />
              <path d="M14.0432 8.47766C12.6014 8.47766 11.5968 7.97676 10.7122 6.81356L8.15236 3.42883C7.59056 2.70102 7.21025 2.53039 6.10388 2.53039L3.76868 2.53039C3.27931 2.53039 2.86806 2.1243 2.86806 1.63493C2.86806 1.13809 3.27931 0.734305 3.76868 0.734305L6.10388 0.734305C7.66286 0.734305 8.69681 1.18637 9.56188 2.33004L12.1487 5.7027C12.7616 6.49887 13.1029 6.68157 14.0432 6.68157L16.2888 6.68157L16.2888 5.9634C16.2888 5.16559 16.9614 4.93813 17.5536 5.32469L20.0099 6.90442C20.5579 7.25422 20.5481 7.92223 20.0099 8.26227L17.5363 9.85922C16.9614 10.2286 16.2888 10.0011 16.2888 9.22051L16.2888 8.47766ZM8.61419 17.1506C10.3551 17.1506 11.7686 15.7446 11.7686 13.9985C11.7686 12.2599 10.3528 10.8442 8.61419 10.8442C6.87791 10.8442 5.45468 12.2599 5.45468 13.9985C5.45468 15.7423 6.87791 17.1506 8.61419 17.1506ZM28.4038 17.1506C30.1424 17.1506 31.5582 15.7423 31.5582 13.9985C31.5582 12.2599 30.1424 10.8442 28.4038 10.8442C26.6699 10.8442 25.2443 12.2622 25.2443 13.9985C25.2443 15.7423 26.6676 17.1506 28.4038 17.1506ZM35.41 3.26221L34.9631 2.60275C33.6983 0.748072 32.1273 0.0117075 29.6006 0.0117075L21.4439 0.0117075C17.2713 0.0117075 15.5107 0.439636 12.9839 2.02331L9.1453 4.42686L5.62209 4.86116C1.94882 5.30862 0 7.10064 0 10.1942L0 11.859C0 13.9805 1.25831 15.139 3.22138 15.139L4.2014 15.139C4.11012 14.7778 4.05844 14.3942 4.05844 13.9985C4.05844 11.4932 6.11116 9.45022 8.61419 9.45022C11.1195 9.45022 13.1625 11.4932 13.1625 13.9985C13.1625 14.3942 13.1131 14.7778 13.0195 15.139L23.991 15.139C23.8998 14.7778 23.8481 14.3942 23.8481 13.9985C23.8481 11.4955 25.9031 9.45022 28.4038 9.45022C30.9092 9.45022 32.9521 11.4932 32.9521 13.9985C32.9521 14.3942 32.9028 14.7778 32.8092 15.139L33.725 15.139C35.6428 15.139 36.765 13.9467 36.765 11.9534L36.765 7.41047C36.765 6.05548 36.2337 4.47994 35.41 3.26221Z"
                     fill="currentColor" fill-opacity="0.85" />
       </g>
</svg>