<?xml version="1.0" encoding="UTF-8"?>
<!--Generator: Apple Native CoreSVG 326-->
<!DOCTYPE svg PUBLIC "-//W3C//DTD SVG 1.1//EN" "http://www.w3.org/Graphics/SVG/1.1/DTD/svg11.dtd">
<svg version="1.1" xmlns="http://www.w3.org/2000/svg" xmlns:xlink="http://www.w3.org/1999/xlink"
       viewBox="0 0 37.1263 17.1506">
       <g>
              <rect height="17.1506" opacity="0" width="37.1263" x="0" y="0" />
              <path d="M11.7686 13.9985C11.7686 15.7446 10.3551 17.1506 8.61419 17.1506C6.87791 17.1506 5.45468 15.7423 5.45468 13.9985C5.45468 12.2599 6.87791 10.8442 8.61419 10.8442C10.3528 10.8442 11.7686 12.2599 11.7686 13.9985ZM31.5582 13.9985C31.5582 15.7423 30.1424 17.1506 28.4038 17.1506C26.6676 17.1506 25.2443 15.7423 25.2443 13.9985C25.2443 12.2622 26.6699 10.8442 28.4038 10.8442C30.1424 10.8442 31.5582 12.2599 31.5582 13.9985ZM34.9631 2.60275L35.41 3.26221C36.2337 4.47994 36.765 6.05548 36.765 7.41047L36.765 11.9534C36.765 13.9467 35.6428 15.139 33.725 15.139L32.8092 15.139C32.9028 14.7778 32.9521 14.3942 32.9521 13.9985C32.9521 11.4932 30.9092 9.45022 28.4038 9.45022C25.9031 9.45022 23.8481 11.4955 23.8481 13.9985C23.8481 14.3942 23.8998 14.7778 23.991 15.139L13.0195 15.139C13.1131 14.7778 13.1625 14.3942 13.1625 13.9985C13.1625 11.4932 11.1195 9.45022 8.61419 9.45022C6.11116 9.45022 4.05844 11.4932 4.05844 13.9985C4.05844 14.3942 4.11012 14.7778 4.2014 15.139L3.22138 15.139C1.25831 15.139 0 13.9805 0 11.859L0 10.1942C0 7.10064 1.94882 5.30862 5.62209 4.86116L9.1453 4.42686L12.9839 2.02331C15.5107 0.439636 17.2713 0.0117075 21.4439 0.0117075L29.6006 0.0117075C32.1273 0.0117075 33.6983 0.748072 34.9631 2.60275ZM16.8035 4.14384C14.8562 4.14384 13.5144 5.39778 13.5144 7.19114C13.5144 8.97473 14.8562 10.2218 16.7937 10.2218L20.0837 10.2218L20.0837 10.7891C20.0837 11.5569 20.6855 11.8441 21.3253 11.4397L23.5646 9.99376C24.0775 9.66239 24.097 8.98474 23.5646 8.6367L21.3426 7.1781C20.6878 6.764 20.0837 7.04138 20.0837 7.82876L20.0837 8.35471L16.7937 8.35471C15.9922 8.35471 15.4228 7.91513 15.4228 7.26927C15.4228 6.52344 15.9945 6.02066 16.8035 6.02066L22.1228 6.02066C22.6845 6.02066 23.0894 5.62785 23.0894 5.08571C23.0894 4.55103 22.6845 4.14384 22.1131 4.14384Z"
                     fill="currentColor" fill-opacity="0.85" />
       </g>
</svg>