<?xml version="1.0" encoding="UTF-8"?>
<!--Generator: Apple Native CoreSVG 326-->
<!DOCTYPE svg PUBLIC "-//W3C//DTD SVG 1.1//EN" "http://www.w3.org/Graphics/SVG/1.1/DTD/svg11.dtd">
<svg version="1.1" xmlns="http://www.w3.org/2000/svg" xmlns:xlink="http://www.w3.org/1999/xlink"
       viewBox="0 0 34.2535 26.7397">
       <g>
              <rect height="26.7397" opacity="0" width="34.2535" x="0" y="0" />
              <path d="M7.47287 8.71664L9.96735 10.1658L11.1169 8.18189L8.95707 6.93596C8.62952 6.7492 8.54909 6.41705 8.75484 6.0636L9.20879 5.27465C9.765 4.31277 10.6127 4.15761 12.2173 4.83957L15.2355 6.11425L19.2784 5.97753C21.1898 5.91664 22.0659 6.16484 24.5586 7.60621L30.0668 10.7891C31.1142 11.3907 31.4481 11.882 31.5383 12.8409L31.5969 13.4533C31.6578 14.1738 31.5021 14.911 31.1907 15.4533L29.6412 18.1357C29.4182 18.5208 29.159 18.5955 28.7924 18.3869L27.2298 17.4873L26.0877 19.4711L28.1044 20.6337C29.4025 21.3793 30.6195 21.0168 31.403 19.6646L33.1745 16.5954C33.7001 15.6861 33.954 14.4098 33.8736 13.2638L33.8248 12.6463C33.6978 10.9053 32.9201 9.79037 31.2164 8.80526L25.703 5.62233C22.8784 3.99147 21.5245 3.59569 19.2021 3.68358L15.6586 3.80538L13.1085 2.72534C10.4444 1.59374 8.42826 2.04635 7.22491 4.13256L6.58092 5.25967C5.74987 6.6863 6.14784 7.95735 7.47287 8.71664ZM12.2253 11.4668L23.361 17.8912L24.5031 15.9096L13.3674 9.48297ZM10.2435 12.3432C11.7409 13.2094 13.6529 12.6976 14.5191 11.2002C15.3927 9.69532 14.8787 7.78326 13.3813 6.91709C11.8787 6.05323 9.96662 6.56499 9.10045 8.06986C8.23429 9.56497 8.74835 11.4793 10.2435 12.3432ZM11.2811 10.5533C10.7817 10.2648 10.6168 9.64419 10.9053 9.14481C11.1938 8.64543 11.8144 8.4782 12.3138 8.76668C12.808 9.05747 12.9804 9.67579 12.6919 10.1775C12.4034 10.6769 11.7753 10.8441 11.2811 10.5533ZM23.6486 20.0853C25.146 20.944 27.0581 20.4322 27.9168 18.9423C28.7904 17.4299 28.2764 15.5179 26.779 14.654C25.2839 13.7878 23.3718 14.2996 22.4982 15.8119C21.632 17.3094 22.1461 19.214 23.6486 20.0853ZM24.6811 18.2902C24.1794 17.9994 24.0145 17.3886 24.303 16.8794C24.5915 16.38 25.2121 16.2128 25.7115 16.5013C26.2132 16.7921 26.3781 17.4104 26.0896 17.9121C25.8011 18.4189 25.1805 18.5787 24.6811 18.2902Z"
                     fill="currentColor" fill-opacity="0.85" />
              <path d="M3.4968 5.14982L5.66926 1.39369C6.13043 0.58909 5.4654-0.144849 4.65103 0.0245637L1.40205 0.690264C0.838065 0.813153 0.575606 1.26456 0.761699 1.81131L1.80377 4.94365C2.06853 5.74825 3.02817 5.95442 3.4968 5.14982ZM0.188561 9.76077C-0.200184 10.4573 0.033524 11.3312 0.693281 11.7102L26.3163 26.4883C26.976 26.8725 27.8523 26.6508 28.2364 25.9738C28.6326 25.2773 28.3989 24.4034 27.7415 24.0244L2.11615 9.24629C1.4587 8.86215 0.580157 9.08379 0.188561 9.76077Z"
                     fill="currentColor" fill-opacity="0.85" />
       </g>
</svg>