<?xml version="1.0" encoding="UTF-8"?>
<!--Generator: Apple Native CoreSVG 326-->
<!DOCTYPE svg PUBLIC "-//W3C//DTD SVG 1.1//EN" "http://www.w3.org/Graphics/SVG/1.1/DTD/svg11.dtd">
<svg version="1.1" xmlns="http://www.w3.org/2000/svg" xmlns:xlink="http://www.w3.org/1999/xlink"
       viewBox="0 0 35.9172 29.0837">
       <g>
              <rect height="29.0837" opacity="0" width="35.9172" x="0" y="0" />
              <path d="M14.4889 20.6132C15.656 19.9377 16.0649 18.4346 15.3872 17.2525C14.7042 16.0802 13.2011 15.6788 12.0265 16.3542C10.8542 17.0371 10.4453 18.5426 11.1207 19.7149C11.8037 20.8946 13.3091 21.2886 14.4889 20.6132ZM27.8796 12.8832C29.0445 12.2077 29.4534 10.7023 28.778 9.52253C28.095 8.35023 26.5896 7.94644 25.4173 8.62421C24.245 9.30483 23.8361 10.8126 24.5115 11.9849C25.1945 13.1646 26.6976 13.5586 27.8796 12.8832ZM27.1855 0.765428L26.6266 0.491991C25.0469-0.26621 23.6971-0.146172 21.9934 0.838944L16.4777 4.02187C13.6554 5.64527 12.6364 6.62292 11.5473 8.68171L9.88645 11.8104L7.66778 13.4781C5.35805 15.2157 4.74634 17.1853 5.94969 19.2692L6.60114 20.3986C7.42473 21.8327 8.72331 22.1182 10.0483 21.3589L10.7237 20.9657C10.5222 20.7619 10.3379 20.5212 10.1782 20.2634C9.20407 18.5696 9.79165 16.3933 11.4855 15.4117C13.1718 14.4375 15.3481 15.0177 16.3297 16.7115C16.4819 16.9768 16.5973 17.257 16.6708 17.5321L24.1122 13.2357C23.9107 13.0318 23.7263 12.7912 23.569 12.5334C22.5949 10.8419 23.1824 8.66327 24.8763 7.68167C26.5626 6.70754 28.7389 7.28765 29.7205 8.98147C29.8704 9.24678 29.9881 9.52701 30.0616 9.80209L30.6798 9.44185C31.978 8.69627 32.268 7.45519 31.4919 6.10522L29.7227 3.03378C29.1873 2.12449 28.2189 1.26402 27.1855 0.765428Z"
                     fill="currentColor" fill-opacity="0.85" />
              <path d="M4.96361 23.0134L2.79576 19.2647C2.32713 18.4578 1.36518 18.6663 1.10273 19.4514L0.0583502 22.6032C-0.125438 23.1552 0.134716 23.6066 0.701001 23.722L3.94022 24.3825C4.76435 24.5594 5.42708 23.8157 4.96361 23.0134ZM7.29468 28.194C7.70811 28.883 8.58205 29.1024 9.23434 28.728L34.8522 13.9275C35.5119 13.5457 35.7508 12.6694 35.3667 11.9999C34.963 11.3108 34.0868 11.0818 33.427 11.4584L7.81663 26.2664C7.15918 26.6408 6.91055 27.517 7.29468 28.194Z"
                     fill="currentColor" fill-opacity="0.85" />
       </g>
</svg>