<?xml version="1.0" encoding="UTF-8"?>
<!--Generator: Apple Native CoreSVG 326-->
<!DOCTYPE svg PUBLIC "-//W3C//DTD SVG 1.1//EN" "http://www.w3.org/Graphics/SVG/1.1/DTD/svg11.dtd">
<svg version="1.1" xmlns="http://www.w3.org/2000/svg" xmlns:xlink="http://www.w3.org/1999/xlink"
       viewBox="0 0 37.1263 26.9956">
       <g>
              <rect height="26.9956" opacity="0" width="37.1263" x="0" y="0" />
              <path d="M8.61419 22.0731C10.3551 22.0731 11.7686 20.6671 11.7686 18.921C11.7686 17.1824 10.3528 15.7666 8.61419 15.7666C6.87791 15.7666 5.45468 17.1824 5.45468 18.921C5.45468 20.6647 6.87791 22.0731 8.61419 22.0731ZM28.4038 22.0731C30.1424 22.0731 31.5582 20.6647 31.5582 18.921C31.5582 17.1824 30.1424 15.7666 28.4038 15.7666C26.6699 15.7666 25.2443 17.1847 25.2443 18.921C25.2443 20.6647 26.6676 22.0731 28.4038 22.0731ZM35.41 8.1847L34.9631 7.52525C33.6983 5.67057 32.1273 4.9342 29.6006 4.9342L21.4439 4.9342C17.2713 4.9342 15.5107 5.36213 12.9839 6.9458L9.1453 9.34936L5.62209 9.78366C1.94882 10.2311 0 12.0231 0 15.1167L0 16.7815C0 18.903 1.25831 20.0615 3.22138 20.0615L4.2014 20.0615C4.11012 19.7003 4.05844 19.3167 4.05844 18.921C4.05844 16.4157 6.11116 14.3727 8.61419 14.3727C11.1195 14.3727 13.1625 16.4157 13.1625 18.921C13.1625 19.3167 13.1131 19.7003 13.0195 20.0615L23.991 20.0615C23.8998 19.7003 23.8481 19.3167 23.8481 18.921C23.8481 16.418 25.9031 14.3727 28.4038 14.3727C30.9092 14.3727 32.9521 16.4157 32.9521 18.921C32.9521 19.3167 32.9028 19.7003 32.8092 20.0615L33.725 20.0615C35.6428 20.0615 36.765 18.8692 36.765 16.8759L36.765 12.333C36.765 10.978 36.2337 9.40243 35.41 8.1847Z"
                     fill="currentColor" fill-opacity="0.85" />
              <path d="M16.2589 21.4376C15.4779 21.4376 15.1414 22.1582 15.5216 22.8037L17.7429 26.5316C18.1133 27.1599 18.9442 27.1404 19.3049 26.5316L21.5308 22.8037C21.9259 22.1508 21.5698 21.4376 20.7986 21.4376Z"
                     fill="currentColor" fill-opacity="0.85" />
       </g>
</svg>