<?xml version="1.0" encoding="UTF-8"?>
<!--Generator: Apple Native CoreSVG 326-->
<!DOCTYPE svg PUBLIC "-//W3C//DTD SVG 1.1//EN" "http://www.w3.org/Graphics/SVG/1.1/DTD/svg11.dtd">
<svg version="1.1" xmlns="http://www.w3.org/2000/svg" xmlns:xlink="http://www.w3.org/1999/xlink"
       viewBox="0 0 37.1263 17.5954">
       <g>
              <rect height="17.5954" opacity="0" width="37.1263" x="0" y="0" />
              <path d="M3.22138 15.3614L6.9225 15.3614L6.9225 12.4089L3.72707 12.4089C3.24152 12.4089 2.9525 12.0986 2.9525 11.5802L2.9525 10.4166C2.9525 8.99687 3.78118 8.28659 5.9913 8.0114L10.1599 7.49843L14.5548 4.75726C16.631 3.46183 17.7611 3.18663 21.4439 3.18663L29.6006 3.18663C31.1408 3.18663 31.8264 3.52109 32.5377 4.52191L32.9846 5.15668C33.5206 5.91906 33.8125 6.832 33.8125 7.6329L33.8125 11.5871C33.8125 12.152 33.5769 12.4089 33.0402 12.4089L30.7349 12.4089L30.7349 15.3614L33.725 15.3614C35.6428 15.3614 36.765 14.1691 36.765 12.1759L36.765 7.6329C36.765 6.2779 36.2337 4.70236 35.41 3.48463L34.9631 2.82518C33.6983 0.970498 32.1273 0.234133 29.6006 0.234133L21.4439 0.234133C17.2713 0.234133 15.5107 0.662062 12.9839 2.24573L9.1453 4.64929L5.62209 5.08358C1.94882 5.53104 0 7.32307 0 10.4166L0 12.0814C0 14.2029 1.25831 15.3614 3.22138 15.3614ZM10.2343 15.3614L26.7127 15.3614L26.7127 12.4089L10.2343 12.4089ZM8.61419 17.5954C10.8324 17.5954 12.6255 15.8023 12.6255 13.5841C12.6255 11.351 10.8324 9.55788 8.61419 9.55788C6.38854 9.55788 4.59542 11.351 4.59542 13.5841C4.59542 15.8023 6.38854 17.5954 8.61419 17.5954ZM8.61419 14.9339C7.87922 14.9339 7.30172 14.3564 7.30172 13.6214C7.30172 12.8864 7.87922 12.3089 8.61419 12.3089C9.34916 12.3089 9.92667 12.8864 9.92667 13.6214C9.92667 14.3564 9.34916 14.9339 8.61419 14.9339ZM28.4228 17.5954C30.641 17.5954 32.4341 15.8023 32.4341 13.5841C32.4341 11.351 30.641 9.55788 28.4228 9.55788C26.1972 9.55788 24.4041 11.351 24.4041 13.5841C24.4041 15.8023 26.1972 17.5954 28.4228 17.5954ZM28.4228 14.9339C27.6879 14.9339 27.1103 14.3564 27.1103 13.6214C27.1103 12.8864 27.6879 12.3089 28.4228 12.3089C29.1503 12.3089 29.7353 12.8864 29.7353 13.6214C29.7353 14.3564 29.1503 14.9339 28.4228 14.9339Z"
                     fill="currentColor" fill-opacity="0.85" />
              <path d="M15.1026 7.45548C15.1026 9.13056 16.3606 10.2938 18.1724 10.2938L21.2683 10.2938L21.2683 10.8341C21.2683 11.56 21.8305 11.815 22.4358 11.4354L24.5247 10.083C25.0054 9.774 25.0324 9.14572 24.5247 8.8149L22.4456 7.4499C21.8328 7.05303 21.2683 7.31318 21.2683 8.05118L21.2683 8.5576L18.1724 8.5576C17.415 8.5576 16.8876 8.13756 16.8876 7.53361C16.8876 6.832 17.4173 6.34875 18.1821 6.34875L23.1742 6.34875C23.7037 6.34875 24.0839 5.98809 24.0839 5.48555C24.0839 4.97556 23.7037 4.60283 23.1644 4.60283L18.1821 4.60283C16.3606 4.60283 15.1026 5.77294 15.1026 7.45548Z"
                     fill="currentColor" fill-opacity="0.85" />
       </g>
</svg>