<?xml version="1.0" encoding="UTF-8"?>
<!--Generator: Apple Native CoreSVG 326-->
<!DOCTYPE svg PUBLIC "-//W3C//DTD SVG 1.1//EN" "http://www.w3.org/Graphics/SVG/1.1/DTD/svg11.dtd">
<svg version="1.1" xmlns="http://www.w3.org/2000/svg" xmlns:xlink="http://www.w3.org/1999/xlink"
       viewBox="0 0 26.6147 26.9107">
       <g>
              <rect height="26.9107" opacity="0" width="26.6147" x="0" y="0" />
              <path d="M18.381 19.8197L12.7002 23.0975L16.4838 16.5362ZM22.3746 9.8907L24.1719 13.0108C25.1523 14.7097 24.7881 16.1176 23.1111 17.0836L19.8691 18.9617L17.4774 14.813L20.3875 9.76642C20.6432 9.32131 20.8309 8.88209 20.9503 8.45322C21.489 8.70483 21.9664 9.18614 22.3746 9.8907Z"
                     fill="currentColor" fill-opacity="0.85" />
              <path d="M16.3125 13.7228L12.8322 19.7622L12.7264 19.7011L12.7264 11.6536ZM14.8045 3.13246L17.9247 4.93207C19.6258 5.91761 20.017 7.32088 19.051 8.99044L17.1706 12.2348L12.7264 9.66923L12.7264 4.49322C12.7264 3.8175 12.6252 3.20541 12.4296 2.66734C13.1297 2.46989 13.9288 2.62385 14.8045 3.13246Z"
                     fill="currentColor" fill-opacity="0.85" />
              <path d="M1.54449 8.25171L11.1819 8.25171L11.1819 4.49322C11.1819 2.5589 10.1428 1.54679 8.17923 1.54679L4.57771 1.54679C2.60027 1.54679 1.54449 2.5589 1.54449 4.49322ZM1.54449 16.9309L11.1819 16.9309L11.1819 9.96779L1.54449 9.96779ZM4.57771 25.3542L8.17923 25.3542C10.1428 25.3542 11.1819 24.3323 11.1819 22.398L11.1819 18.6493L1.54449 18.6493L1.54449 22.398C1.54449 24.3323 2.60027 25.3542 4.57771 25.3542Z"
                     fill="currentColor" fill-opacity="0.85" />
       </g>
</svg>