<?xml version="1.0" encoding="UTF-8"?>
<!--Generator: Apple Native CoreSVG 326-->
<!DOCTYPE svg PUBLIC "-//W3C//DTD SVG 1.1//EN" "http://www.w3.org/Graphics/SVG/1.1/DTD/svg11.dtd">
<svg version="1.1" xmlns="http://www.w3.org/2000/svg" xmlns:xlink="http://www.w3.org/1999/xlink"
       viewBox="0 0 21.365 21.006">
       <g>
              <rect height="21.006" opacity="0" width="21.365" x="0" y="0" />
              <path d="M10.4981 20.9962C16.302 20.9962 21.0037 16.2946 21.0037 10.4981C21.0037 4.70163 16.302 0 10.4981 0C4.70163 0 0 4.70163 0 10.4981C0 16.2946 4.70163 20.9962 10.4981 20.9962ZM10.4981 17.9484C6.37829 17.9484 3.04785 14.6179 3.04785 10.4981C3.04785 6.37829 6.37829 3.04785 10.4981 3.04785C14.6179 3.04785 17.9558 6.37829 17.9558 10.4981C17.9558 14.6179 14.6179 17.9484 10.4981 17.9484Z"
                     fill="currentColor" fill-opacity="0.85" />
              <path d="M7.33053 13.935C7.81462 13.935 8.14884 13.5962 8.14884 13.1L8.14884 12.1957L8.56088 11.8106L9.53477 13.393C9.71164 13.7082 9.94996 13.935 10.3341 13.935C10.7516 13.935 11.1352 13.6255 11.1352 13.2327C11.1352 12.9467 11.0519 12.7974 10.9192 12.5981L9.7777 10.8929L10.8445 9.81797C11.061 9.59919 11.1592 9.41661 11.1592 9.18861C11.1592 8.78779 10.8497 8.48342 10.4345 8.48342C10.1686 8.48342 9.93316 8.61607 9.76089 8.81533L8.17814 10.5756L8.14884 10.5756L8.14884 7.36438C8.14884 6.86821 7.81462 6.52708 7.33053 6.52708C6.85905 6.52708 6.52253 6.8659 6.52253 7.36207L6.52253 13.1C6.52253 13.5962 6.85905 13.935 7.33053 13.935ZM12.836 13.935C13.2667 13.935 13.6073 13.6244 13.6073 13.1L13.6073 10.9737C13.6073 10.437 13.7441 10.0385 14.3378 10.0236C14.5778 10.0236 14.8701 9.96676 15.039 9.81173C15.2033 9.69114 15.2963 9.49704 15.2963 9.24665C15.2963 8.78318 15.0378 8.48342 14.5944 8.48342C14.0216 8.48342 13.7038 9.01307 13.6096 9.58069L13.5435 9.58069L13.5435 9.29657C13.5435 8.80732 13.2541 8.48342 12.8165 8.48342C12.3617 8.48342 12.0648 8.80732 12.0648 9.29657L12.0648 13.1C12.0648 13.5985 12.3772 13.935 12.836 13.935Z"
                     fill="currentColor" fill-opacity="0.85" />
       </g>
</svg>