<?xml version="1.0" encoding="UTF-8"?>
<!--Generator: Apple Native CoreSVG 326-->
<!DOCTYPE svg PUBLIC "-//W3C//DTD SVG 1.1//EN" "http://www.w3.org/Graphics/SVG/1.1/DTD/svg11.dtd">
<svg version="1.1" xmlns="http://www.w3.org/2000/svg" xmlns:xlink="http://www.w3.org/1999/xlink"
       viewBox="0 0 19.3993 19.0529">
       <g>
              <rect height="19.0529" opacity="0" width="19.3993" x="0" y="0" />
              <path d="M3.64834 19.0379L15.3896 19.0379C17.7164 19.0379 19.0379 17.7262 19.0379 15.4011L19.0379 3.63912C19.0379 1.32151 17.7164 0 15.3896 0L3.64834 0C1.32382 0 0 1.32151 0 3.63912L0 15.4011C0 17.7262 1.32382 19.0379 3.64834 19.0379ZM4.05583 16.0183C3.37024 16.0183 3.01964 15.7096 3.01964 14.9775L3.01964 4.07021C3.01964 3.33809 3.37024 3.0271 4.05583 3.0271L14.9821 3.0271C15.6654 3.0271 16.0183 3.33809 16.0183 4.07021L16.0183 14.9775C16.0183 15.7096 15.6654 16.0183 14.9821 16.0183Z"
                     fill="currentColor" fill-opacity="0.85" />
              <path d="M6.35858 12.9584C6.84267 12.9584 7.17689 12.6196 7.17689 12.1234L7.17689 11.2191L7.58146 10.8341L8.55535 12.4164C8.73223 12.7316 8.97801 12.9584 9.36214 12.9584C9.77964 12.9584 10.1558 12.6489 10.1558 12.2561C10.1558 11.9702 10.0799 11.8208 9.94729 11.6216L8.80805 9.91636L9.87256 8.84141C10.0816 8.62262 10.1872 8.44005 10.1872 8.21204C10.1872 7.81123 9.87772 7.50686 9.46253 7.50686C9.19667 7.50686 8.9612 7.63951 8.78894 7.83877L7.20618 9.59906L7.17689 9.59906L7.17689 6.38781C7.17689 5.89165 6.84267 5.55052 6.35858 5.55052C5.8871 5.55052 5.54312 5.88934 5.54312 6.38551L5.54312 12.1234C5.54312 12.6196 5.8871 12.9584 6.35858 12.9584ZM11.8641 12.9584C12.2947 12.9584 12.6353 12.6478 12.6353 12.1234L12.6353 9.99709C12.6353 9.46041 12.7722 9.06196 13.3658 9.04704C13.6082 9.04704 13.8907 8.9902 14.0671 8.83516C14.2313 8.71458 14.3244 8.52048 14.3244 8.27009C14.3244 7.80662 14.0658 7.50686 13.6224 7.50686C13.0422 7.50686 12.7319 8.0365 12.6376 8.60412L12.5716 8.60412L12.5716 8.32001C12.5716 7.83076 12.2821 7.50686 11.8446 7.50686C11.3898 7.50686 11.0928 7.83076 11.0928 8.32001L11.0928 12.1234C11.0928 12.6219 11.4052 12.9584 11.8641 12.9584Z"
                     fill="currentColor" fill-opacity="0.85" />
       </g>
</svg>