<?xml version="1.0" encoding="UTF-8"?>
<!--Generator: Apple Native CoreSVG 326-->
<!DOCTYPE svg PUBLIC "-//W3C//DTD SVG 1.1//EN" "http://www.w3.org/Graphics/SVG/1.1/DTD/svg11.dtd">
<svg version="1.1" xmlns="http://www.w3.org/2000/svg" xmlns:xlink="http://www.w3.org/1999/xlink"
       viewBox="0 0 19.3993 19.0529">
       <g>
              <rect height="19.0529" opacity="0" width="19.3993" x="0" y="0" />
              <path d="M19.0379 3.63912L19.0379 15.4011C19.0379 17.7262 17.7164 19.0379 15.3896 19.0379L3.64834 19.0379C1.32382 19.0379 0 17.7262 0 15.4011L0 3.63912C0 1.32151 1.32382 0 3.64834 0L15.3896 0C17.7164 0 19.0379 1.32151 19.0379 3.63912ZM5.33925 6.20348L5.33925 12.3055C5.33925 12.8361 5.70046 13.2048 6.21155 13.2048C6.72033 13.2048 7.08669 12.8361 7.08669 12.3055L7.08669 11.3546L7.51826 10.9501L8.54098 12.6157C8.73508 12.9556 8.98832 13.2048 9.4046 13.2048C9.86171 13.2048 10.2551 12.8729 10.2551 12.4479C10.2551 12.1298 10.1792 11.9805 10.0294 11.764L8.82637 9.95827L9.95463 8.82704C10.1786 8.58587 10.294 8.39353 10.294 8.1506C10.294 7.71017 9.96725 7.38858 9.51991 7.38858C9.2219 7.38858 8.97898 7.52869 8.78949 7.75263L7.11599 9.61859L7.08669 9.61859L7.08669 6.20578C7.08669 5.68263 6.72033 5.30419 6.21155 5.30419C5.70046 5.30419 5.33925 5.67286 5.33925 6.20348ZM12.9172 8.56221L12.8362 8.56221L12.8362 8.25857C12.8362 7.73717 12.5295 7.38858 12.0598 7.38858C11.5654 7.38858 11.2513 7.73717 11.2513 8.25857L11.2513 12.3055C11.2513 12.8384 11.5958 13.2048 12.0868 13.2048C12.5422 13.2048 12.9149 12.8568 12.9149 12.3055L12.9149 10.0465C12.9149 9.48279 13.054 9.06481 13.6747 9.03497C13.9417 9.03497 14.249 8.98559 14.4327 8.81333C14.6142 8.69274 14.7073 8.47396 14.7073 8.20865C14.7073 7.71303 14.439 7.38858 13.956 7.38858C13.3488 7.38858 13.0115 7.95268 12.9172 8.56221Z"
                     fill="currentColor" fill-opacity="0.85" />
       </g>
</svg>