<?xml version="1.0" encoding="UTF-8"?>
<!--Generator: Apple Native CoreSVG 326-->
<!DOCTYPE svg PUBLIC "-//W3C//DTD SVG 1.1//EN" "http://www.w3.org/Graphics/SVG/1.1/DTD/svg11.dtd">
<svg version="1.1" xmlns="http://www.w3.org/2000/svg" xmlns:xlink="http://www.w3.org/1999/xlink"
       viewBox="0 0 24.6449 23.5952">
       <g>
              <rect height="23.5952" opacity="0" width="24.6449" x="0" y="0" />
              <path d="M1.94045 20.4256L22.5744 20.4256L22.5744 19.4355C22.5744 18.8957 22.2379 18.5718 21.7032 18.5718L21.3244 18.5718L21.3244 7.89293L22.1092 7.89293C22.9074 7.89293 23.3841 7.28595 23.3841 6.69158C23.3841 6.25686 23.136 5.85374 22.6254 5.55167L13.7186 0.416404C13.2683 0.154491 12.7462 0 12.2563 0C11.7664 0 11.242 0.154491 10.7963 0.416404L1.88944 5.55167C1.37659 5.85374 1.13081 6.25686 1.13081 6.69158C1.13081 7.28595 1.60745 7.89293 2.41314 7.89293L3.19045 7.89293L3.19045 18.5718L2.81396 18.5718C2.27927 18.5718 1.94045 18.8957 1.94045 19.4355ZM5.29922 18.5718L5.29922 6.39673L12.047 2.62732C12.1194 2.5888 12.1965 2.57212 12.2563 2.57212C12.331 2.57212 12.3931 2.5888 12.4679 2.62732L19.2157 6.39673L19.2157 18.5718ZM1.20651 23.5854L23.0673 23.5854C23.7134 23.5854 24.2836 23.0525 24.2836 22.3766C24.2836 21.7231 23.7134 21.1701 23.0673 21.1701L1.20651 21.1701C0.553002 21.1701 0 21.7231 0 22.3766C0 23.045 0.553002 23.5854 1.20651 23.5854Z"
                     fill="currentColor" fill-opacity="0.85" />
              <path d="M9.3246 14.7698C9.77139 14.7698 10.0758 14.4556 10.0758 13.9944L10.0758 13.1424L10.458 12.7797L11.3871 14.265C11.549 14.5653 11.765 14.7698 12.1267 14.7698C12.5069 14.7698 12.8584 14.4826 12.8584 14.1196C12.8584 13.8561 12.7848 13.724 12.6596 13.5373L11.5853 11.9291L12.5924 10.9162C12.7865 10.7174 12.8772 10.5498 12.8772 10.339C12.8772 9.95827 12.5975 9.68374 12.2122 9.68374C11.9664 9.68374 11.7482 9.80378 11.5908 9.99327L10.1051 11.6514L10.0758 11.6514L10.0758 8.63415C10.0758 8.17298 9.77139 7.85654 9.3246 7.85654C8.89042 7.85654 8.57628 8.17068 8.57628 8.63185L8.57628 13.9944C8.57628 14.4556 8.89042 14.7698 9.3246 14.7698ZM14.4421 14.7698C14.843 14.7698 15.1537 14.4815 15.1537 13.9944L15.1537 12.0047C15.1537 11.4955 15.2831 11.1218 15.8394 11.1069C16.0646 11.1069 16.327 11.0552 16.4959 10.9076C16.6378 10.8019 16.7234 10.6251 16.7234 10.3896C16.7234 9.96112 16.4872 9.68374 16.0811 9.68374C15.5382 9.68374 15.2503 10.1784 15.156 10.7064L15.09 10.7064L15.09 10.4321C15.09 9.98526 14.8303 9.68374 14.4226 9.68374C14.0051 9.68374 13.7306 9.98526 13.7306 10.4321L13.7306 13.9944C13.7306 14.4556 14.0206 14.7698 14.4421 14.7698Z"
                     fill="currentColor" fill-opacity="0.85" />
       </g>
</svg>