<?xml version="1.0" encoding="UTF-8"?>
<!--Generator: Apple Native CoreSVG 326-->
<!DOCTYPE svg PUBLIC "-//W3C//DTD SVG 1.1//EN" "http://www.w3.org/Graphics/SVG/1.1/DTD/svg11.dtd">
<svg version="1.1" xmlns="http://www.w3.org/2000/svg" xmlns:xlink="http://www.w3.org/1999/xlink"
       viewBox="0 0 23.6255 20.8563">
       <g>
              <rect height="20.8563" opacity="0" width="23.6255" x="0" y="0" />
              <path d="M0 13.3275C1.76 16.1972 6.35815 20.6317 12.5624 20.6317C16.5028 20.6317 17.593 18.7884 19.8786 18.7884C21.7977 18.7884 22.5456 20.0768 22.8414 20.5754C22.927 20.7293 23.0712 20.8419 23.1642 20.5363C23.2131 20.3089 23.2642 20.013 23.2642 19.6661C23.2642 18.654 22.9563 16.7326 21.2744 14.6279C21.6461 13.5963 21.6852 12.4572 21.6852 11.78C21.6852 8.72186 19.9642 3.41488 14.2833 0C15.4614 1.67211 17.0479 4.21675 17.0479 7.73674C17.0479 9.02514 16.7033 10.4233 16.4172 11.1223C13.3275 9.34049 7.40186 4.40745 5.04046 1.89211C6.94233 4.80839 9.19631 7.44092 11.6847 10.213C8.33584 8.09631 5.20932 5.71768 2.29535 3.11675C5.08698 7.16233 8.61444 11.1568 13.2786 14.9163C11.934 15.6544 10.5749 16.2438 8.22326 16.2438C5.3828 16.2438 1.89441 14.8675 0 13.3275Z"
                     fill="currentColor" fill-opacity="0.85" />
       </g>
</svg>