<?xml version="1.0" encoding="UTF-8"?>
<!--Generator: Apple Native CoreSVG 326-->
<!DOCTYPE svg PUBLIC "-//W3C//DTD SVG 1.1//EN" "http://www.w3.org/Graphics/SVG/1.1/DTD/svg11.dtd">
<svg version="1.1" xmlns="http://www.w3.org/2000/svg" xmlns:xlink="http://www.w3.org/1999/xlink"
       viewBox="0 0 19.9319 20.7647">
       <g>
              <rect height="20.7647" opacity="0" width="19.9319" x="0" y="0" />
              <path d="M4.76908 20.7503L14.8015 20.7503C17.4964 20.7503 19.5706 18.8084 19.5706 16.1398C19.5706 13.4712 17.4964 11.5367 14.8015 11.5367L4.76908 11.5367C2.07413 11.5367 0 13.4712 0 16.1398C0 18.8084 2.07413 20.7503 4.76908 20.7503ZM15.0554 18.1715C13.9154 18.1543 13.026 17.2602 13.026 16.13C13.026 14.9947 13.9177 14.1006 15.0479 14.1006C16.193 14.1006 17.0969 14.9924 17.0871 16.1053C17.0773 17.2602 16.1684 18.1813 15.0554 18.1715Z"
                     fill="currentColor" fill-opacity="0.85" />
              <path d="M5.16947 6.79742C6.16011 6.80719 6.95422 6.01362 6.95652 5.00807C6.95883 4.01974 6.16757 3.24055 5.16947 3.24055C4.17884 3.24055 3.39219 4.02951 3.39219 5.01783C3.39219 6.00847 4.17884 6.79512 5.16947 6.79742Z"
                     fill="currentColor" fill-opacity="0.85" />
              <path d="M5.16947 10.0477L14.4011 10.0477C17.4279 10.0477 19.5706 8.0345 19.5706 5.0276C19.5706 2.01324 17.4279 0 14.4011 0L5.16947 0C2.14261 0 0 2.01324 0 5.0276C0 8.0345 2.14261 10.0477 5.16947 10.0477ZM5.16947 7.39434C3.73029 7.39434 2.66086 6.40207 2.66086 5.0276C2.66086 3.65313 3.73029 2.66086 5.16947 2.66086L14.4011 2.66086C15.8403 2.66086 16.9097 3.65313 16.9097 5.0276C16.9097 6.40207 15.8403 7.39434 14.4011 7.39434Z"
                     fill="currentColor" fill-opacity="0.85" />
       </g>
</svg>