<?xml version="1.0" encoding="UTF-8"?>
<!--Generator: Apple Native CoreSVG 326-->
<!DOCTYPE svg PUBLIC "-//W3C//DTD SVG 1.1//EN" "http://www.w3.org/Graphics/SVG/1.1/DTD/svg11.dtd">
<svg version="1.1" xmlns="http://www.w3.org/2000/svg" xmlns:xlink="http://www.w3.org/1999/xlink"
       viewBox="0 0 25.7066 25.444">
       <g>
              <rect height="25.444" opacity="0" width="25.7066" x="0" y="0" />
              <path d="M0.376677 24.6738C0.856709 25.144 1.59744 25.1193 2.08493 24.6393L5.99549 20.7362L4.27231 19.0228L0.369216 22.9259C-0.118277 23.4134-0.130348 24.1863 0.376677 24.6738ZM3.42216 19.3522L5.69257 21.6105C6.91995 22.8356 8.59818 22.7914 9.88931 21.5002L19.8522 11.5373L18.0675 9.73762L8.24116 19.5737C7.93491 19.8725 7.52178 19.8605 7.20346 19.5421L5.48822 17.8367C5.1699 17.5281 5.1699 17.1075 5.48592 16.7915L15.2899 6.97492L13.5028 5.18787L3.52497 15.1606C2.22923 16.4512 2.18501 18.1196 3.42216 19.3522ZM5.45929 14.7843L7.6975 17.0322C7.92265 17.2649 8.28331 17.2551 8.51593 17.0299C8.74909 16.8042 8.73933 16.4441 8.51363 16.2161L6.27311 13.9802ZM7.55769 12.7054L9.78843 14.9436C10.0187 15.1739 10.3743 15.1739 10.6046 14.9436C10.8326 14.7156 10.828 14.3503 10.6023 14.1298L8.36405 11.8916ZM9.64116 10.6122L11.8794 12.8527C12.1097 13.0732 12.4577 13.083 12.688 12.8527C12.916 12.6247 12.9086 12.2743 12.6857 12.0365L10.455 9.79834ZM11.7321 8.52353L13.9628 10.7715C14.1857 10.9995 14.5464 10.9921 14.7767 10.7715C15.0196 10.5458 15.0024 10.1759 14.7767 9.94792L12.5436 7.71717ZM11.8817 4.60667L20.4231 13.1555C21.0467 13.7716 22.0297 13.7716 22.6458 13.1555C23.2567 12.5469 23.2642 11.5467 22.6458 10.9306L14.1067 2.3915C13.471 1.75358 12.4978 1.76565 11.8817 2.3915C11.2656 3.00759 11.2536 3.98597 11.8817 4.60667ZM13.9088 4.77159L20.2461 11.1285L22.0684 9.29878C22.6919 8.68269 22.6942 7.6997 22.0684 7.07615L21.197 6.20477L21.985 5.40933L22.657 6.08879C23.2656 6.70488 24.271 6.69742 24.8796 6.08879C25.498 5.47041 25.498 4.48741 24.8796 3.86387L21.4795 0.463792C20.856-0.154597 19.873-0.154597 19.2546 0.463792C18.646 1.07242 18.6385 2.07779 19.2546 2.68641L19.9364 3.35842L19.1484 4.15386L17.9462 2.95166C17.3301 2.33558 16.3448 2.33558 15.7213 2.95166Z"
                     fill="currentColor" fill-opacity="0.85" />
       </g>
</svg>