<?xml version="1.0" encoding="UTF-8"?>
<!--Generator: Apple Native CoreSVG 326-->
<!DOCTYPE svg PUBLIC "-//W3C//DTD SVG 1.1//EN" "http://www.w3.org/Graphics/SVG/1.1/DTD/svg11.dtd">
<svg version="1.1" xmlns="http://www.w3.org/2000/svg" xmlns:xlink="http://www.w3.org/1999/xlink"
       viewBox="0 0 21.1526 18.3004">
       <g>
              <rect height="18.3004" opacity="0" width="21.1526" x="0" y="0" />
              <path d="M10.4958 0C4.72808 0 0 4.72292 0 10.4981C0 13.2405 1.03352 15.7732 2.80571 17.6171C3.42124 18.2648 4.43639 18.2126 4.99685 17.6544C5.61985 17.0337 5.44243 16.088 4.86474 15.399C3.73508 14.0816 3.05015 12.3637 3.05015 10.4981C3.05015 6.38345 6.37138 3.04785 10.4958 3.04785C13.8019 3.04785 16.5771 5.19186 17.5218 8.1563C17.7836 8.85172 18.3314 9.30136 19.0641 9.25484C20.0844 9.18594 20.7993 8.24661 20.4135 7.17979C19.0491 3.03013 15.1186 0 10.4958 0ZM19.44 12.4515C20.182 12.4515 20.7913 11.8422 20.7913 11.1002C20.7913 10.3434 20.182 9.74154 19.44 9.74154C18.6832 9.74154 18.0813 10.3434 18.0813 11.1002C18.0813 11.8422 18.6832 12.4515 19.44 12.4515ZM18.6306 15.5606C19.3725 15.5606 19.9818 14.9588 19.9818 14.2094C19.9818 13.4675 19.3725 12.8507 18.6306 12.8507C17.8812 12.8507 17.2719 13.4675 17.2719 14.2094C17.2719 14.9588 17.8812 15.5606 18.6306 15.5606ZM16.7207 18.1769C17.4626 18.1769 18.0719 17.5602 18.0719 16.8182C18.0719 16.0763 17.4626 15.467 16.7207 15.467C15.9713 15.467 15.362 16.0763 15.362 16.8182C15.362 17.5602 15.9713 18.1769 16.7207 18.1769Z"
                     fill="currentColor" fill-opacity="0.85" />
              <path d="M9.32241 12.0465C10.0416 12.7708 11.1759 12.7708 11.9002 12.0465C12.6268 11.3274 12.6268 10.1931 11.9002 9.45901C11.783 9.35674 11.5291 9.17866 11.1565 8.93694L7.41242 6.49645C7.04375 6.26329 6.68254 6.29719 6.40922 6.56074C6.15313 6.8289 6.11923 7.18781 6.35239 7.55647L8.78542 11.308C9.01968 11.6731 9.20522 11.9345 9.32241 12.0465Z"
                     fill="currentColor" fill-opacity="0.85" />
       </g>
</svg>