<?xml version="1.0" encoding="UTF-8"?>
<!--Generator: Apple Native CoreSVG 326-->
<!DOCTYPE svg PUBLIC "-//W3C//DTD SVG 1.1//EN" "http://www.w3.org/Graphics/SVG/1.1/DTD/svg11.dtd">
<svg version="1.1" xmlns="http://www.w3.org/2000/svg" xmlns:xlink="http://www.w3.org/1999/xlink"
       viewBox="0 0 23.837 25.4283">
       <g>
              <rect height="25.4283" opacity="0" width="23.837" x="0" y="0" />
              <path d="M12.7387 24.1949L22.4467 14.4823C23.306 13.623 23.4742 13.0539 23.4742 11.7226L23.4742 8.03404C23.4742 6.83474 23.1853 6.31104 22.2417 5.35995L20.0329 3.15862C19.0841 2.20984 18.5604 1.92609 17.3686 1.92609L13.6777 1.92609C12.339 1.92609 11.8094 2.11667 10.9502 2.98339L1.22779 12.6937C-0.407434 14.3289-0.414349 16.192 1.23756 17.8342L7.59826 24.1926C9.2427 25.8422 11.1035 25.8376 12.7387 24.1949ZM15.4146 11.0591C14.5088 11.0591 13.8081 10.359 13.8081 9.46012C13.8081 8.55895 14.5088 7.85364 15.4146 7.85364C16.3181 7.85364 17.0211 8.55895 17.0211 9.46012C17.0211 10.359 16.3181 11.0591 15.4146 11.0591Z"
                     fill="currentColor" fill-opacity="0.85" />
       </g>
</svg>