<?xml version="1.0" encoding="UTF-8"?>
<!--Generator: Apple Native CoreSVG 326-->
<!DOCTYPE svg PUBLIC "-//W3C//DTD SVG 1.1//EN" "http://www.w3.org/Graphics/SVG/1.1/DTD/svg11.dtd">
<svg version="1.1" xmlns="http://www.w3.org/2000/svg" xmlns:xlink="http://www.w3.org/1999/xlink"
       viewBox="0 0 23.8402 25.4283">
       <g>
              <rect height="25.4283" opacity="0" width="23.8402" x="0" y="0" />
              <path d="M15.9069 21.0305L12.744 24.1949C11.1088 25.8376 9.248 25.8422 7.60356 24.1926L1.24286 17.8342C-0.409048 16.192-0.402133 14.3289 1.23309 12.6937L4.3938 9.53692ZM20.0382 3.15862L22.247 5.35995C23.1906 6.31104 23.4795 6.83474 23.4795 8.03404L23.4795 11.7226C23.4795 13.0539 23.3188 13.623 22.452 14.4823L19.0958 17.8401L7.59069 6.34399L10.9555 2.98339C11.8147 2.11667 12.3443 1.92609 13.683 1.92609L17.3739 1.92609C18.5657 1.92609 19.0894 2.20984 20.0382 3.15862ZM13.8134 9.46012C13.8134 10.359 14.5141 11.0591 15.4199 11.0591C16.3234 11.0591 17.0264 10.359 17.0264 9.46012C17.0264 8.55895 16.3234 7.85364 15.4199 7.85364C14.5141 7.85364 13.8134 8.55895 13.8134 9.46012Z"
                     fill="currentColor" fill-opacity="0.85" />
              <path d="M20.6227 23.7705C20.9552 24.1008 21.5084 24.1083 21.8363 23.7705C22.1591 23.4328 22.1689 22.8946 21.8363 22.5569L2.86134 3.5968C2.53107 3.26653 1.97795 3.26422 1.63791 3.5968C1.3174 3.92477 1.3174 4.48766 1.63791 4.81047Z"
                     fill="currentColor" fill-opacity="0.85" />
       </g>
</svg>