<?xml version="1.0" encoding="UTF-8"?>
<!--Generator: Apple Native CoreSVG 326-->
<!DOCTYPE svg PUBLIC "-//W3C//DTD SVG 1.1//EN" "http://www.w3.org/Graphics/SVG/1.1/DTD/svg11.dtd">
<svg version="1.1" xmlns="http://www.w3.org/2000/svg" xmlns:xlink="http://www.w3.org/1999/xlink"
       viewBox="0 0 23.8353 25.4283">
       <g>
              <rect height="25.4283" opacity="0" width="23.8353" x="0" y="0" />
              <path d="M12.7379 24.1949L22.4459 14.4823C23.3051 13.623 23.4733 13.0539 23.4733 11.7226L23.4733 8.03404C23.4733 6.83474 23.1844 6.31104 22.2408 5.35995L20.032 3.15862C19.0832 2.20984 18.5595 1.92609 17.3677 1.92609L13.6768 1.92609C12.3381 1.92609 11.8086 2.11667 10.9493 2.98339L1.22693 12.6937C-0.408298 14.3289-0.412908 16.192 1.23669 17.8342L7.59739 24.1926C9.24184 25.8422 11.1026 25.8376 12.7379 24.1949ZM10.9073 21.7598C10.4154 22.2541 9.94691 22.2713 9.43545 21.7575L3.67174 16.0013C3.14306 15.4898 3.18497 15.0139 3.66197 14.5295L13.1048 5.08894C13.3099 4.89363 13.438 4.81144 13.7104 4.81144L17.1204 4.81144C17.3807 4.81144 17.576 4.90625 17.7237 5.05164L20.3426 7.67059C20.488 7.82344 20.5805 8.02106 20.5805 8.27157L20.5805 11.6839C20.5805 12.0062 20.5305 12.1441 20.3501 12.317ZM15.9341 11.0591C16.8451 11.0591 17.5406 10.359 17.5406 9.46012C17.5406 8.55895 16.8451 7.85364 15.9341 7.85364C15.0307 7.85364 14.3351 8.55895 14.3351 9.46012C14.3351 10.359 15.0307 11.0591 15.9341 11.0591Z"
                     fill="currentColor" fill-opacity="0.85" />
       </g>
</svg>