<?xml version="1.0" encoding="UTF-8"?>
<!--Generator: Apple Native CoreSVG 326-->
<!DOCTYPE svg PUBLIC "-//W3C//DTD SVG 1.1//EN" "http://www.w3.org/Graphics/SVG/1.1/DTD/svg11.dtd">
<svg version="1.1" xmlns="http://www.w3.org/2000/svg" xmlns:xlink="http://www.w3.org/1999/xlink"
       viewBox="0 0 29.0762 27.4652">
       <g>
              <rect height="27.4652" opacity="0" width="29.0762" x="0" y="0" />
              <path d="M17.4284 4.69551L17.4284 5.86459L19.4504 8.55912C19.6167 8.77962 19.7272 8.99571 19.7957 9.26855L17.1371 9.26855C15.0153 9.26855 13.5906 10.9299 13.8042 13.0666L14.775 23.1567C14.802 23.4422 14.8433 23.7137 14.902 23.9673L4.81866 23.9673C2.5998 23.9673 1.37012 22.7423 1.37012 20.528L1.37012 10.2936C1.37012 9.41607 1.48039 8.99627 1.81012 8.55912L3.83202 5.86459L3.83202 4.69551C3.83202 2.80146 4.91862 1.73385 6.84087 1.73385L14.4196 1.73385C16.3419 1.73385 17.4284 2.80146 17.4284 4.69551ZM8.08935 4.22069C7.65803 4.22069 7.29791 4.58311 7.29791 5.0219C7.29791 5.46299 7.65057 5.8208 8.08935 5.8208L13.2015 5.8208C13.6403 5.8208 13.9929 5.46299 13.9929 5.0219C13.9929 4.58311 13.6328 4.22069 13.2015 4.22069Z"
                     fill="currentColor" fill-opacity="0.85" />
              <path d="M19.2926 25.7469L23.5529 25.7469C25.2971 25.7469 26.1804 24.8762 26.3619 22.9925L27.3276 12.9098C27.4459 11.7511 26.7953 10.9869 25.7061 10.9869L17.1371 10.9869C16.0502 10.9869 15.402 11.7534 15.5105 12.9098L16.4837 22.9925C16.6651 24.8762 17.5461 25.7469 19.2926 25.7469ZM20.5183 11.8207L22.7388 11.8207L22.8273 10.567C22.8589 10.1906 22.9457 10.0044 23.1876 9.82283L26.4591 7.494C27.6615 6.63092 26.373 4.81403 25.1269 5.71847L21.9823 7.9864C21.1259 8.60788 20.729 9.33042 20.636 10.4217Z"
                     fill="currentColor" fill-opacity="0.85" />
       </g>
</svg>