<?xml version="1.0" encoding="UTF-8"?>
<!--Generator: Apple Native CoreSVG 326-->
<!DOCTYPE svg PUBLIC "-//W3C//DTD SVG 1.1//EN" "http://www.w3.org/Graphics/SVG/1.1/DTD/svg11.dtd">
<svg version="1.1" xmlns="http://www.w3.org/2000/svg" xmlns:xlink="http://www.w3.org/1999/xlink"
       viewBox="0 0 21.365 21.006">
       <g>
              <rect height="21.006" opacity="0" width="21.365" x="0" y="0" />
              <path d="M21.0037 10.5079C21.0037 16.3043 16.302 21.006 10.4981 21.006C4.70394 21.006 0 16.3043 0 10.5079C0 4.7137 4.70394 0.00976562 10.4981 0.00976562C16.302 0.00976562 21.0037 4.7137 21.0037 10.5079ZM6.0465 13.231C5.69033 13.231 5.48009 13.451 5.48009 13.8169L5.48009 14.8141C5.48009 15.1949 5.69033 15.3874 6.0465 15.3874L7.05576 15.3874C7.42916 15.3874 7.63193 15.1949 7.63193 14.8141L7.63193 13.8169C7.63193 13.451 7.42916 13.231 7.05576 13.231ZM8.73271 13.231C8.36908 13.231 8.1617 13.451 8.1617 13.8169L8.1617 14.8141C8.1617 15.1949 8.36908 15.3874 8.73271 15.3874L12.4454 15.3874C12.8016 15.3874 13.009 15.1949 13.009 14.8141L13.009 13.8169C13.009 13.451 12.8016 13.231 12.4454 13.231ZM14.1149 13.231C13.7438 13.231 13.5439 13.451 13.5439 13.8169L13.5439 14.8141C13.5439 15.1949 13.7438 15.3874 14.1149 15.3874L15.1219 15.3874C15.4855 15.3874 15.6906 15.1949 15.6906 14.8141L15.6906 13.8169C15.6906 13.451 15.4855 13.231 15.1219 13.231ZM6.05857 10.5671C5.69263 10.5671 5.48009 10.7671 5.48009 11.1284L5.48009 12.1302C5.48009 12.5087 5.69263 12.6989 6.05857 12.6989L7.07298 12.6989C7.42916 12.6989 7.63193 12.5087 7.63193 12.1302L7.63193 11.1284C7.63193 10.7671 7.42916 10.5671 7.07298 10.5671ZM8.74479 10.5671C8.37885 10.5671 8.1617 10.7671 8.1617 11.1284L8.1617 12.1302C8.1617 12.5087 8.37885 12.6989 8.74479 12.6989L9.75174 12.6989C10.1056 12.6989 10.3204 12.5087 10.3204 12.1302L10.3204 11.1284C10.3204 10.7671 10.1056 10.5671 9.75174 10.5671ZM11.4264 10.5671C11.0651 10.5671 10.8479 10.7671 10.8479 11.1284L10.8479 12.1302C10.8479 12.5087 11.0651 12.6989 11.4264 12.6989L12.4282 12.6989C12.7895 12.6989 13.0067 12.5087 13.0067 12.1302L13.0067 11.1284C13.0067 10.7671 12.7895 10.5671 12.4282 10.5671ZM14.0931 10.5671C13.7415 10.5671 13.5318 10.7671 13.5318 11.1284L13.5318 12.1302C13.5318 12.5087 13.7415 12.6989 14.0931 12.6989L15.0949 12.6989C15.4757 12.6989 15.6906 12.5087 15.6906 12.1302L15.6906 11.1284C15.6906 10.7671 15.4757 10.5671 15.0949 10.5671ZM5.38311 6.96404C4.95342 7.38912 4.73396 7.92623 4.73396 8.51569C4.73396 9.12158 4.91545 9.74088 5.54724 9.7524C5.66158 9.76393 5.78052 9.75416 5.91154 9.73979L7.33393 9.50311C7.83428 9.42268 8.06119 9.23713 8.19791 8.74885L8.42713 7.89518C8.47826 7.72916 8.55693 7.64588 8.72701 7.59244C9.14002 7.45342 9.72432 7.36553 10.5354 7.37299C11.3465 7.37299 11.9308 7.45342 12.3438 7.59244C12.5162 7.64588 12.5926 7.72916 12.6437 7.89518L12.8729 8.74885C13.0096 9.23713 13.2365 9.42268 13.7444 9.50311L15.1593 9.73979C15.2828 9.75416 15.4018 9.76393 15.5236 9.7524C16.1554 9.74088 16.3369 9.12158 16.3369 8.51569C16.3369 7.92623 16.1174 7.38912 15.6877 6.96404C14.6732 5.94029 12.6452 5.54397 10.5354 5.54397C8.42792 5.54397 6.39764 5.94029 5.38311 6.96404Z"
                     fill="currentColor" fill-opacity="0.85" />
       </g>
</svg>