<?xml version="1.0" encoding="UTF-8"?>
<!--Generator: Apple Native CoreSVG 326-->
<!DOCTYPE svg PUBLIC "-//W3C//DTD SVG 1.1//EN" "http://www.w3.org/Graphics/SVG/1.1/DTD/svg11.dtd">
<svg version="1.1" xmlns="http://www.w3.org/2000/svg" xmlns:xlink="http://www.w3.org/1999/xlink"
       viewBox="0 0 23.9041 19.6432">
       <g>
              <rect height="19.6432" opacity="0" width="23.9041" x="0" y="0" />
              <path d="M2.71964 14.1988L4.74603 14.1988C5.47439 14.1988 5.90232 13.7933 5.90232 13.0402L5.90232 10.9966C5.90232 10.251 5.47439 9.84545 4.74603 9.84545L2.71964 9.84545C1.96659 9.84545 1.53636 10.251 1.53636 10.9966L1.53636 13.0402C1.53636 13.7933 1.96659 14.1988 2.71964 14.1988ZM8.15193 14.1988L10.1806 14.1988C10.909 14.1988 11.3444 13.7933 11.3444 13.0402L11.3444 10.9966C11.3444 10.251 10.909 9.84545 10.1806 9.84545L8.15193 9.84545C7.39889 9.84545 6.96635 10.251 6.96635 10.9966L6.96635 13.0402C6.96635 13.7933 7.39889 14.1988 8.15193 14.1988ZM13.5768 14.1988L15.5934 14.1988C16.339 14.1988 16.779 13.7933 16.779 13.0402L16.779 10.9966C16.779 10.251 16.339 9.84545 15.5934 9.84545L13.5768 9.84545C12.8312 9.84545 12.4107 10.251 12.4107 10.9966L12.4107 13.0402C12.4107 13.7933 12.8312 14.1988 13.5768 14.1988ZM18.9918 14.1988L21.0257 14.1988C21.7713 14.1988 22.221 13.7933 22.221 13.0402L22.221 10.9966C22.221 10.251 21.7713 9.84545 21.0257 9.84545L18.9918 9.84545C18.2635 9.84545 17.843 10.251 17.843 10.9966L17.843 13.0402C17.843 13.7933 18.2635 14.1988 18.9918 14.1988ZM2.69034 19.6334L4.7265 19.6334C5.46463 19.6334 5.90232 19.2279 5.90232 18.4748L5.90232 16.4214C5.90232 15.6856 5.46463 15.2554 4.7265 15.2554L2.69034 15.2554C1.95683 15.2554 1.53636 15.6856 1.53636 16.4214L1.53636 18.4748C1.53636 19.2279 1.95683 19.6334 2.69034 19.6334ZM8.11748 19.6334L15.6376 19.6334C16.378 19.6334 16.7888 19.2279 16.7888 18.4748L16.7888 16.4214C16.7888 15.6856 16.378 15.2554 15.6376 15.2554L8.11748 15.2554C7.37936 15.2554 6.96635 15.6856 6.96635 16.4214L6.96635 18.4748C6.96635 19.2279 7.37936 19.6334 8.11748 19.6334ZM19.0309 19.6334L21.0648 19.6334C21.8103 19.6334 22.221 19.2279 22.221 18.4748L22.221 16.4214C22.221 15.6856 21.8103 15.2554 21.0648 15.2554L19.0309 15.2554C18.2905 15.2554 17.8528 15.6856 17.8528 16.4214L17.8528 18.4748C17.8528 19.2279 18.2905 19.6334 19.0309 19.6334ZM11.7702 0C7.47058 0 3.37418 0.831049 1.33492 2.8916C0.473906 3.75491 0 4.83593 0 6.03886C0 7.27412 0.397965 8.53904 1.69249 8.55978C1.91139 8.57822 2.14522 8.54893 2.41011 8.51502L5.26385 8.04111C6.27827 7.8774 6.75502 7.496 7.03131 6.51088L7.51268 4.77788C7.59311 4.45331 7.75561 4.29882 8.09631 4.17471C8.93549 3.89382 10.1212 3.71749 11.7702 3.72495C13.4141 3.73241 14.5975 3.89382 15.4442 4.17471C15.7849 4.29882 15.9422 4.45331 16.0301 4.77788L16.504 6.51088C16.7803 7.496 17.2571 7.8774 18.2789 8.04111L21.1327 8.51502C21.3976 8.54893 21.6291 8.57822 21.8503 8.55978C23.1425 8.53904 23.5428 7.27412 23.5428 6.03886C23.5428 4.83593 23.0666 3.75491 22.2079 2.8916C20.1589 0.831049 16.0625 0 11.7702 0Z"
                     fill="currentColor" fill-opacity="0.85" />
       </g>
</svg>