<?xml version="1.0" encoding="UTF-8"?>
<!--Generator: Apple Native CoreSVG 326-->
<!DOCTYPE svg PUBLIC "-//W3C//DTD SVG 1.1//EN" "http://www.w3.org/Graphics/SVG/1.1/DTD/svg11.dtd">
<svg version="1.1" xmlns="http://www.w3.org/2000/svg" xmlns:xlink="http://www.w3.org/1999/xlink"
       viewBox="0 0 29.6703 19.5455">
       <g>
              <rect height="19.5455" opacity="0" width="29.6703" x="0" y="0" />
              <path d="M11.2074 4.74167L13.0615 4.74167C13.733 4.74167 14.1167 4.36827 14.1167 3.69159L14.1167 1.82023C14.1167 1.12632 13.733 0.755229 13.0615 0.755229L11.2074 0.755229C10.5232 0.755229 10.1251 1.12632 10.1251 1.82023L10.1251 3.69159C10.1251 4.36827 10.5232 4.74167 11.2074 4.74167ZM16.1769 4.74167L18.0408 4.74167C18.71 4.74167 19.1109 4.36827 19.1109 3.69159L19.1109 1.82023C19.1109 1.12632 18.71 0.755229 18.0408 0.755229L16.1769 0.755229C15.4904 0.755229 15.0923 1.12632 15.0923 1.82023L15.0923 3.69159C15.0923 4.36827 15.4904 4.74167 16.1769 4.74167ZM21.1515 4.74167L22.9982 4.74167C23.6898 4.74167 24.0781 4.36827 24.0781 3.69159L24.0781 1.82023C24.0781 1.12632 23.6898 0.755229 22.9982 0.755229L21.1515 0.755229C20.4725 0.755229 20.0865 1.12632 20.0865 1.82023L20.0865 3.69159C20.0865 4.36827 20.4725 4.74167 21.1515 4.74167ZM26.1164 4.74167L27.9751 4.74167C28.6593 4.74167 29.0648 4.36827 29.0648 3.69159L29.0648 1.82023C29.0648 1.12632 28.6593 0.755229 27.9751 0.755229L26.1164 0.755229C25.4495 0.755229 25.0732 1.12632 25.0732 1.82023L25.0732 3.69159C25.0732 4.36827 25.4495 4.74167 26.1164 4.74167ZM11.1878 9.72608L13.0368 9.72608C13.7233 9.72608 14.1167 9.34983 14.1167 8.66108L14.1167 6.78741C14.1167 6.11073 13.7233 5.71726 13.0368 5.71726L11.1878 5.71726C10.5112 5.71726 10.1251 6.11073 10.1251 6.78741L10.1251 8.66108C10.1251 9.34983 10.5112 9.72608 11.1878 9.72608ZM16.155 9.72608L23.0349 9.72608C23.7139 9.72608 24.0976 9.34983 24.0976 8.66108L24.0976 6.78741C24.0976 6.11073 23.7139 5.71726 23.0349 5.71726L16.155 5.71726C15.4783 5.71726 15.0923 6.11073 15.0923 6.78741L15.0923 8.66108C15.0923 9.34983 15.4783 9.72608 16.155 9.72608ZM26.1554 9.72608L28.0119 9.72608C28.6983 9.72608 29.0648 9.34983 29.0648 8.66108L29.0648 6.78741C29.0648 6.11073 28.6983 5.71726 28.0119 5.71726L26.1554 5.71726C25.4765 5.71726 25.083 6.11073 25.083 6.78741L25.083 8.66108C25.083 9.34983 25.4765 9.72608 26.1554 9.72608ZM5.35581 14.1093C8.43065 17.1841 12.1069 19.5283 15.0795 19.5283C16.4678 19.5283 17.6827 18.9734 18.4846 18.0911C19.2422 17.2381 19.5908 16.5529 19.5908 15.9882C19.5908 15.5333 19.3122 15.1375 18.6327 14.651L16.0708 12.8152C15.4378 12.3654 15.1518 12.2873 14.7778 12.2873C14.4527 12.2873 14.1839 12.3459 13.6238 12.6492L11.9942 13.5384C11.7937 13.6533 11.6984 13.6728 11.5565 13.6728C11.356 13.6728 11.2291 13.624 11.0286 13.5309C10.2244 13.1667 9.11982 12.3017 8.12725 11.3142C7.13983 10.3194 6.40225 9.34971 5.97147 8.51284C5.92264 8.40772 5.86405 8.25893 5.86405 8.0803C5.86405 7.94588 5.91748 7.80862 6.00307 7.66444L6.95088 6.01011C7.20994 5.55804 7.30299 5.30128 7.30299 4.93941C7.30299 4.54362 7.16858 4.10363 6.76764 3.54874L5.00995 1.09945C4.51136 0.39293 4.04788 0 3.48093 0C2.78187 0 1.94093 0.542811 1.32976 1.12699C0.45953 1.96793 0 3.14374 0 4.45628C0 7.43346 2.28789 11.0488 5.35581 14.1093Z"
                     fill="currentColor" fill-opacity="0.85" />
       </g>
</svg>