<?xml version="1.0" encoding="UTF-8"?>
<!--Generator: Apple Native CoreSVG 326-->
<!DOCTYPE svg PUBLIC "-//W3C//DTD SVG 1.1//EN" "http://www.w3.org/Graphics/SVG/1.1/DTD/svg11.dtd">
<svg version="1.1" xmlns="http://www.w3.org/2000/svg" xmlns:xlink="http://www.w3.org/1999/xlink"
       viewBox="0 0 21.365 21.006">
       <g>
              <rect height="21.006" opacity="0" width="21.365" x="0" y="0" />
              <path d="M10.4981 20.9962C16.302 20.9962 21.0037 16.2946 21.0037 10.4981C21.0037 4.70163 16.302 0 10.4981 0C4.70163 0 0 4.70163 0 10.4981C0 16.2946 4.70163 20.9962 10.4981 20.9962ZM10.4981 17.9484C6.37829 17.9484 3.04785 14.6179 3.04785 10.4981C3.04785 6.37829 6.37829 3.04785 10.4981 3.04785C14.6179 3.04785 17.9558 6.37829 17.9558 10.4981C17.9558 14.6179 14.6179 17.9484 10.4981 17.9484Z"
                     fill="currentColor" fill-opacity="0.85" />
              <path d="M6.55595 13.3878C7.79916 14.6333 9.2808 15.5714 10.4873 15.5714C11.0503 15.5714 11.5403 15.3497 11.862 14.9866C12.1665 14.6528 12.3038 14.3771 12.3038 14.1455C12.3038 13.9651 12.1791 13.8117 11.9137 13.6193L10.8853 12.8707C10.6245 12.688 10.5148 12.6564 10.3539 12.6564C10.2224 12.6564 10.1201 12.6857 9.90065 12.8001L9.23307 13.1706C9.15264 13.2045 9.11357 13.2217 9.05268 13.2217C8.97971 13.2217 8.93088 13.1948 8.84299 13.1557C8.52642 13.0121 8.07314 12.661 7.67099 12.2664C7.27861 11.8642 6.98388 11.4649 6.80349 11.1403C6.78626 11.0915 6.76443 11.0283 6.76443 10.9576C6.76443 10.9065 6.7788 10.8502 6.81786 10.7842L7.20279 10.1166C7.30505 9.93158 7.34412 9.84139 7.34412 9.69029C7.34412 9.52713 7.29529 9.36166 7.12466 9.12498L6.41056 8.13052C6.2181 7.85763 6.01993 7.69962 5.79818 7.69962C5.52298 7.69962 5.18403 7.91392 4.93298 8.14544C4.57966 8.48669 4.39696 8.95951 4.39696 9.48345C4.39696 10.6922 5.32306 12.1497 6.55595 13.3878ZM8.79185 9.59834L9.58517 9.59834C9.86498 9.59834 10.0333 9.43287 10.0333 9.14275L10.0333 8.34943C10.0333 8.04724 9.86498 7.90591 9.58517 7.90591L8.79185 7.90591C8.50174 7.90591 8.33111 8.04724 8.33111 8.34943L8.33111 9.14275C8.33111 9.43287 8.50174 9.59834 8.79185 9.59834ZM10.9285 9.59834L11.7241 9.59834C12.0067 9.59834 12.1728 9.43287 12.1728 9.14275L12.1728 8.34943C12.1728 8.04724 12.0067 7.90591 11.7241 7.90591L10.9285 7.90591C10.6286 7.90591 10.4631 8.04724 10.4631 8.34943L10.4631 9.14275C10.4631 9.43287 10.6286 9.59834 10.9285 9.59834ZM13.0507 9.59834L13.8389 9.59834C14.1364 9.59834 14.3019 9.43287 14.3019 9.14275L14.3019 8.34943C14.3019 8.04724 14.1364 7.90591 13.8389 7.90591L13.0507 7.90591C12.768 7.90591 12.5923 8.04724 12.5923 8.34943L12.5923 9.14275C12.5923 9.43287 12.768 9.59834 13.0507 9.59834ZM15.1775 9.59834L15.9732 9.59834C16.2702 9.59834 16.4534 9.43287 16.4534 9.14275L16.4534 8.34943C16.4534 8.04724 16.2702 7.90591 15.9732 7.90591L15.1775 7.90591C14.8949 7.90591 14.7415 8.04724 14.7415 8.34943L14.7415 9.14275C14.7415 9.43287 14.8949 9.59834 15.1775 9.59834ZM8.78209 11.7252L9.57541 11.7252C9.86498 11.7252 10.0333 11.5718 10.0333 11.2696L10.0333 10.4688C10.0333 10.1913 9.86498 10.0253 9.57541 10.0253L8.78209 10.0253C8.48967 10.0253 8.33111 10.1913 8.33111 10.4688L8.33111 11.2696C8.33111 11.5718 8.48967 11.7252 8.78209 11.7252ZM10.9112 11.7252L13.8659 11.7252C14.1508 11.7252 14.3117 11.5718 14.3117 11.2696L14.3117 10.4688C14.3117 10.1913 14.1508 10.0253 13.8659 10.0253L10.9112 10.0253C10.6188 10.0253 10.4631 10.1913 10.4631 10.4688L10.4631 11.2696C10.4631 11.5718 10.6188 11.7252 10.9112 11.7252ZM15.2022 11.7252L15.9852 11.7252C16.2874 11.7252 16.4534 11.5718 16.4534 11.2696L16.4534 10.4688C16.4534 10.1913 16.2874 10.0253 15.9852 10.0253L15.2022 10.0253C14.907 10.0253 14.7438 10.1913 14.7438 10.4688L14.7438 11.2696C14.7438 11.5718 14.907 11.7252 15.2022 11.7252Z"
                     fill="currentColor" fill-opacity="0.85" />
       </g>
</svg>