<?xml version="1.0" encoding="UTF-8"?>
<!--Generator: Apple Native CoreSVG 326-->
<!DOCTYPE svg PUBLIC "-//W3C//DTD SVG 1.1//EN" "http://www.w3.org/Graphics/SVG/1.1/DTD/svg11.dtd">
<svg version="1.1" xmlns="http://www.w3.org/2000/svg" xmlns:xlink="http://www.w3.org/1999/xlink"
       viewBox="0 0 19.3993 19.0529">
       <g>
              <rect height="19.0529" opacity="0" width="19.3993" x="0" y="0" />
              <path d="M19.0379 3.63912L19.0379 15.4011C19.0379 17.7262 17.7164 19.0379 15.3896 19.0379L3.64834 19.0379C1.32382 19.0379 0 17.7262 0 15.4011L0 3.63912C0 1.32151 1.32382 0 3.64834 0L15.3896 0C17.7164 0 19.0379 1.32151 19.0379 3.63912ZM6.56772 6.69249C6.16975 6.69249 5.89753 6.96471 5.89753 7.37529C5.89753 7.76349 6.16975 8.02826 6.56772 8.02826L8.52242 8.02826L8.52242 13.1083C8.52242 13.783 8.95538 14.2234 9.61799 14.2234C10.2783 14.2234 10.7015 13.783 10.7015 13.1083L10.7015 8.02826L12.6516 8.02826C13.0593 8.02826 13.3292 7.76349 13.3292 7.37529C13.3292 6.96471 13.0593 6.69249 12.6516 6.69249ZM6.16526 5.05975C6.0021 5.05975 5.88315 5.18615 5.88315 5.34932C5.88315 5.51479 6.0021 5.63889 6.16526 5.63889L13.0471 5.63889C13.2103 5.63889 13.3292 5.51248 13.3292 5.34932C13.3292 5.18615 13.2103 5.05975 13.0471 5.05975Z"
                     fill="currentColor" fill-opacity="0.85" />
       </g>
</svg>