<?xml version="1.0" encoding="UTF-8"?>
<!--Generator: Apple Native CoreSVG 326-->
<!DOCTYPE svg PUBLIC "-//W3C//DTD SVG 1.1//EN" "http://www.w3.org/Graphics/SVG/1.1/DTD/svg11.dtd">
<svg version="1.1" xmlns="http://www.w3.org/2000/svg" xmlns:xlink="http://www.w3.org/1999/xlink"
       viewBox="0 0 25.2371 20.7338">
       <g>
              <rect height="20.7338" opacity="0" width="25.2371" x="0" y="0" />
              <path d="M24.8758 12.3846C24.8758 5.93383 19.9627 0.631336 13.6785 0.00415235C13.2541-0.040066 12.9302 0.274072 12.9302 0.698483L12.9302 4.13058C12.9302 4.48379 13.1829 4.74109 13.5286 4.79046C17.2465 5.32405 20.1044 8.51741 20.1044 12.3846C20.1044 14.1648 19.4989 15.8157 18.4419 17.1359C18.2306 17.4138 18.2329 17.7555 18.4764 18.0012L20.9223 20.4523C21.2117 20.7567 21.6557 20.7417 21.9256 20.4328C23.7735 18.2551 24.8758 15.452 24.8758 12.3846Z"
                     fill="currentColor" fill-opacity="0.85" />
              <path d="M0 12.3846C0 15.4543 1.1023 18.2574 2.94273 20.4276C3.21265 20.7366 3.65429 20.7417 3.9535 20.4448L6.39194 17.9938C6.63541 17.748 6.63772 17.4063 6.42639 17.1284C5.38201 15.8157 4.77139 14.1648 4.77139 12.3846C4.77139 8.51741 7.63678 5.32405 11.3472 4.79046C11.7004 4.74109 11.9456 4.48379 11.9456 4.13058L11.9456 0.698483C11.9456 0.274072 11.6217-0.040066 11.1973 0.00415235C4.92054 0.631336 0 5.93383 0 12.3846Z"
                     fill="currentColor" fill-opacity="0.85" />
              <path d="M12.439 16.7387C13.0523 16.7387 13.4508 16.3304 13.4508 15.7074L13.4508 10.9374L15.2826 10.9374C15.6708 10.9374 15.9183 10.6876 15.9183 10.3166C15.9183 9.92839 15.6708 9.68316 15.2826 9.68316L9.58857 9.68316C9.20037 9.68316 8.95284 9.92839 8.95284 10.3166C8.95284 10.6876 9.20037 10.9374 9.58857 10.9374L11.4227 10.9374L11.4227 15.7074C11.4227 16.3304 11.8235 16.7387 12.439 16.7387ZM8.94592 8.42382C8.94592 8.57206 9.0551 8.6864 9.21081 8.6864L15.6511 8.6864C15.8092 8.6864 15.9183 8.56976 15.9183 8.42382C15.9183 8.27042 15.8092 8.15378 15.6511 8.15378L9.21081 8.15378C9.0551 8.15378 8.94592 8.27042 8.94592 8.42382Z"
                     fill="currentColor" fill-opacity="0.85" />
       </g>
</svg>