<?xml version="1.0" encoding="UTF-8"?>
<!--Generator: Apple Native CoreSVG 326-->
<!DOCTYPE svg PUBLIC "-//W3C//DTD SVG 1.1//EN" "http://www.w3.org/Graphics/SVG/1.1/DTD/svg11.dtd">
<svg version="1.1" xmlns="http://www.w3.org/2000/svg" xmlns:xlink="http://www.w3.org/1999/xlink"
       viewBox="0 0 24.6449 23.5952">
       <g>
              <rect height="23.5952" opacity="0" width="24.6449" x="0" y="0" />
              <path d="M1.94045 20.4256L22.5744 20.4256L22.5744 19.4355C22.5744 18.8957 22.2379 18.5718 21.7032 18.5718L21.3244 18.5718L21.3244 7.89293L22.1092 7.89293C22.9074 7.89293 23.3841 7.28595 23.3841 6.69158C23.3841 6.25686 23.136 5.85374 22.6254 5.55167L13.7186 0.416404C13.2683 0.154491 12.7462 0 12.2563 0C11.7664 0 11.242 0.154491 10.7963 0.416404L1.88944 5.55167C1.37659 5.85374 1.13081 6.25686 1.13081 6.69158C1.13081 7.28595 1.60745 7.89293 2.41314 7.89293L3.19045 7.89293L3.19045 18.5718L2.81396 18.5718C2.27927 18.5718 1.94045 18.8957 1.94045 19.4355ZM5.29922 18.5718L5.29922 6.39673L12.047 2.62732C12.1194 2.5888 12.1965 2.57212 12.2563 2.57212C12.331 2.57212 12.3931 2.5888 12.4679 2.62732L19.2157 6.39673L19.2157 18.5718ZM1.20651 23.5854L23.0673 23.5854C23.7134 23.5854 24.2836 23.0525 24.2836 22.3766C24.2836 21.7231 23.7134 21.1701 23.0673 21.1701L1.20651 21.1701C0.553002 21.1701 0 21.7231 0 22.3766C0 23.045 0.553002 23.5854 1.20651 23.5854Z"
                     fill="currentColor" fill-opacity="0.85" />
              <path d="M12.2684 15.9703C12.8839 15.9703 13.2824 15.562 13.2824 14.939L13.2824 10.1691L15.1119 10.1691C15.495 10.1691 15.7477 9.91921 15.7477 9.54824C15.7477 9.16004 15.495 8.91481 15.1119 8.91481L9.42019 8.91481C9.02969 8.91481 8.77699 9.16004 8.77699 9.54824C8.77699 9.91921 9.02969 10.1691 9.42019 10.1691L11.2543 10.1691L11.2543 14.939C11.2543 15.562 11.6551 15.9703 12.2684 15.9703ZM8.77008 7.65547C8.77008 7.80371 8.88672 7.91804 9.04243 7.91804L15.4753 7.91804C15.631 7.91804 15.7477 7.8014 15.7477 7.65547C15.7477 7.50207 15.631 7.38542 15.4753 7.38542L9.04243 7.38542C8.88672 7.38542 8.77008 7.50207 8.77008 7.65547Z"
                     fill="currentColor" fill-opacity="0.85" />
       </g>
</svg>