<?xml version="1.0" encoding="UTF-8"?>
<!--Generator: Apple Native CoreSVG 326-->
<!DOCTYPE svg PUBLIC "-//W3C//DTD SVG 1.1//EN" "http://www.w3.org/Graphics/SVG/1.1/DTD/svg11.dtd">
<svg version="1.1" xmlns="http://www.w3.org/2000/svg" xmlns:xlink="http://www.w3.org/1999/xlink"
       viewBox="0 0 21.365 21.006">
       <g>
              <rect height="21.006" opacity="0" width="21.365" x="0" y="0" />
              <path d="M10.4981 20.9962C16.302 20.9962 21.0037 16.2946 21.0037 10.4981C21.0037 4.70163 16.302 0 10.4981 0C4.70163 0 0 4.70163 0 10.4981C0 16.2946 4.70163 20.9962 10.4981 20.9962ZM10.4981 17.9484C6.37829 17.9484 3.04785 14.6179 3.04785 10.4981C3.04785 6.37829 6.37829 3.04785 10.4981 3.04785C14.6179 3.04785 17.9558 6.37829 17.9558 10.4981C17.9558 14.6179 14.6179 17.9484 10.4981 17.9484Z"
                     fill="currentColor" fill-opacity="0.85" />
              <path d="M10.4981 14.9117C11.1211 14.9117 11.5122 14.5035 11.5122 13.8707L11.5122 9.10072L13.3417 9.10072C13.7322 9.10072 13.9774 8.86064 13.9774 8.48736C13.9774 8.10147 13.7322 7.85393 13.3417 7.85393L7.64994 7.85393C7.2669 7.85393 7.01421 8.10147 7.01421 8.48736C7.01421 8.86064 7.2669 9.10072 7.64994 9.10072L9.48406 9.10072L9.48406 13.8707C9.48406 14.5035 9.88488 14.9117 10.4981 14.9117ZM7.00729 6.59459C7.00729 6.74514 7.11647 6.85717 7.27218 6.85717L13.7125 6.85717C13.8682 6.85717 13.9774 6.74283 13.9774 6.59459C13.9774 6.44119 13.8682 6.32455 13.7125 6.32455L7.27218 6.32455C7.11647 6.32455 7.00729 6.44119 7.00729 6.59459Z"
                     fill="currentColor" fill-opacity="0.85" />
       </g>
</svg>