<?xml version="1.0" encoding="UTF-8"?>
<!--Generator: Apple Native CoreSVG 326-->
<!DOCTYPE svg PUBLIC "-//W3C//DTD SVG 1.1//EN" "http://www.w3.org/Graphics/SVG/1.1/DTD/svg11.dtd">
<svg version="1.1" xmlns="http://www.w3.org/2000/svg" xmlns:xlink="http://www.w3.org/1999/xlink"
       viewBox="0 0 24.6449 23.5952">
       <g>
              <rect height="23.5952" opacity="0" width="24.6449" x="0" y="0" />
              <path d="M13.7186 0.416404L22.6254 5.55167C23.136 5.85374 23.3841 6.25686 23.3841 6.69158C23.3841 7.28595 22.9074 7.89293 22.1092 7.89293L21.3244 7.89293L21.3244 19.392L21.7032 19.392C22.2379 19.392 22.5744 19.7159 22.5744 20.2632L22.5744 21.1701L23.0673 21.1701C23.7134 21.1701 24.2836 21.7231 24.2836 22.3766C24.2836 23.0525 23.7134 23.5854 23.0673 23.5854L1.20651 23.5854C0.553002 23.5854 0 23.045 0 22.3766C0 21.7231 0.553002 21.1701 1.20651 21.1701L1.94045 21.1701L1.94045 20.2632C1.94045 19.7159 2.27927 19.392 2.81396 19.392L3.19045 19.392L3.19045 7.89293L2.41314 7.89293C1.60745 7.89293 1.13081 7.28595 1.13081 6.69158C1.13081 6.25686 1.37659 5.85374 1.88944 5.55167L10.7963 0.416404C11.242 0.154491 11.7664 0 12.2563 0C12.7462 0 13.2683 0.154491 13.7186 0.416404ZM9.22039 10.1213C8.81266 10.1213 8.54274 10.3912 8.54274 10.8041C8.54274 11.1998 8.81266 11.4645 9.22039 11.4645L11.1751 11.4645L11.1751 16.5446C11.1751 17.2095 11.6081 17.6597 12.2684 17.6597C12.931 17.6597 13.3542 17.2095 13.3542 16.5446L13.3542 11.4645L15.3043 11.4645C15.712 11.4645 15.9819 11.1998 15.9819 10.8041C15.9819 10.3912 15.712 10.1213 15.3043 10.1213ZM8.81794 8.49604C8.65477 8.49604 8.53583 8.62244 8.53583 8.77815C8.53583 8.94362 8.65477 9.06542 8.81794 9.06542L15.6998 9.06542C15.863 9.06542 15.9819 8.93901 15.9819 8.77815C15.9819 8.62244 15.863 8.49604 15.6998 8.49604Z"
                     fill="currentColor" fill-opacity="0.85" />
       </g>
</svg>