<?xml version="1.0" encoding="UTF-8"?>
<!--Generator: Apple Native CoreSVG 326-->
<!DOCTYPE svg PUBLIC "-//W3C//DTD SVG 1.1//EN" "http://www.w3.org/Graphics/SVG/1.1/DTD/svg11.dtd">
<svg version="1.1" xmlns="http://www.w3.org/2000/svg" xmlns:xlink="http://www.w3.org/1999/xlink"
       viewBox="0 0 21.365 21.006">
       <g>
              <rect height="21.006" opacity="0" width="21.365" x="0" y="0" />
              <path d="M10.4981 20.9962C16.302 20.9962 21.0037 16.2946 21.0037 10.4981C21.0037 4.70163 16.302 0 10.4981 0C4.70163 0 0 4.70163 0 10.4981C0 16.2946 4.70163 20.9962 10.4981 20.9962ZM10.4981 17.9484C6.37829 17.9484 3.04785 14.6179 3.04785 10.4981C3.04785 6.37829 6.37829 3.04785 10.4981 3.04785C14.6179 3.04785 17.9558 6.37829 17.9558 10.4981C17.9558 14.6179 14.6179 17.9484 10.4981 17.9484Z"
                     fill="currentColor" fill-opacity="0.85" />
              <path d="M5.70282 9.52167C6.08302 9.6371 6.4179 9.71346 6.80962 9.71346C8.36435 9.71346 9.53932 8.5408 9.53932 6.9763C9.53932 6.52599 9.45834 6.14974 9.24932 5.77064C7.46197 6.24685 6.07907 7.70271 5.70282 9.52167ZM10.4935 15.4037C10.6773 15.4037 10.8634 15.3962 11.0397 15.3692C10.7911 14.986 10.6952 14.4864 10.6952 13.9746C10.6952 12.0212 12.2711 10.4407 14.2118 10.4407C14.6282 10.4407 15.04 10.5194 15.3944 10.6968C15.3944 10.6354 15.3944 10.5665 15.3944 10.505C15.3944 7.81299 13.1832 5.60408 10.4935 5.60408C10.3321 5.60408 10.1828 5.6213 10.0139 5.63107C10.2304 6.01193 10.3263 6.47946 10.3263 6.9763C10.3263 8.91474 8.74806 10.4855 6.80962 10.4855C6.38575 10.4855 5.97681 10.4166 5.60978 10.2615C5.59486 10.3402 5.59486 10.4264 5.59486 10.505C5.59486 13.1948 7.80377 15.4037 10.4935 15.4037ZM11.8043 15.2222C13.5744 14.7264 14.9521 13.2631 15.3014 11.439C14.9487 11.3138 14.6185 11.2277 14.2118 11.2277C12.6399 11.2277 11.4747 12.4026 11.4747 13.9746C11.4747 14.4421 11.578 14.8431 11.8043 15.2222Z"
                     fill="currentColor" fill-opacity="0.85" />
       </g>
</svg>