<?xml version="1.0" encoding="UTF-8"?>
<!--Generator: Apple Native CoreSVG 326-->
<!DOCTYPE svg PUBLIC "-//W3C//DTD SVG 1.1//EN" "http://www.w3.org/Graphics/SVG/1.1/DTD/svg11.dtd">
<svg version="1.1" xmlns="http://www.w3.org/2000/svg" xmlns:xlink="http://www.w3.org/1999/xlink"
       viewBox="0 0 21.365 21.006">
       <g>
              <rect height="21.006" opacity="0" width="21.365" x="0" y="0" />
              <path d="M0.20156 8.42422C0.979171 8.65277 1.67702 8.79058 2.48108 8.79058C5.88425 8.79058 8.4355 6.23933 8.4355 2.81893C8.4355 1.89769 8.26378 1.11019 7.86758 0.326208C4.01125 1.32734 0.987845 4.47308 0.20156 8.42422ZM10.4981 20.9962C10.8657 20.9962 11.216 20.9767 11.5687 20.9325C11.1403 20.1105 10.9537 19.1003 10.9537 18.0711C10.9537 13.8443 14.3923 10.4057 18.6167 10.4057C19.4576 10.4057 20.2742 10.5361 20.9865 10.8438C21.0037 10.7261 21.0037 10.6084 21.0037 10.4981C21.0037 4.70163 16.302 0 10.4981 0C10.1828 0 9.86456 0.0120705 9.56128 0.0390625C9.96209 0.848942 10.1367 1.80694 10.1367 2.81893C10.1367 7.05315 6.69807 10.4917 2.48108 10.4917C1.61272 10.4917 0.771909 10.3516 0.00976562 10.0559C0 10.196 0 10.3408 0 10.4981C0 16.2946 4.70163 20.9962 10.4981 20.9962ZM13.2549 20.6155C17.0716 19.5753 20.0485 16.41 20.8021 12.4853C20.1014 12.2545 19.4306 12.1069 18.6167 12.1069C15.2136 12.1069 12.6623 14.6581 12.6623 18.0711C12.6623 19.0268 12.8541 19.8441 13.2549 20.6155Z"
                     fill="currentColor" fill-opacity="0.85" />
       </g>
</svg>