<?xml version="1.0" encoding="UTF-8"?>
<!--Generator: Apple Native CoreSVG 326-->
<!DOCTYPE svg PUBLIC "-//W3C//DTD SVG 1.1//EN" "http://www.w3.org/Graphics/SVG/1.1/DTD/svg11.dtd">
<svg version="1.1" xmlns="http://www.w3.org/2000/svg" xmlns:xlink="http://www.w3.org/1999/xlink"
       viewBox="0 0 21.365 21.006">
       <g>
              <rect height="21.006" opacity="0" width="21.365" x="0" y="0" />
              <path d="M21.0037 10.4981C21.0037 16.2923 16.302 20.9962 10.4981 20.9962C4.70394 20.9962 0 16.2923 0 10.4981C0 4.70163 4.70394 0 10.4981 0C16.302 0 21.0037 4.70163 21.0037 10.4981ZM10.3073 6.1558C9.50244 6.98018 9.14627 8.01655 9.12904 9.02417C9.09459 10.3214 8.99978 11.0791 8.10122 12.1265C7.85654 12.0391 7.58541 12.1006 7.38494 12.2959L5.51728 14.1659C5.26052 14.4525 5.24329 14.8516 5.51728 15.1331L5.82923 15.4473C6.10607 15.7288 6.53684 15.7288 6.81598 15.4473L8.65896 13.5946C8.85197 13.3867 8.91341 13.1448 8.84044 12.9225C9.90787 11.9918 10.6484 11.9119 11.9479 11.8603C12.9751 11.8212 13.9994 11.4943 14.8312 10.6797C16.2507 9.24295 16.419 7.06862 15.165 5.81686C13.9035 4.57256 11.7291 4.73111 10.3073 6.1558ZM13.0212 10.5702C12.7034 10.7035 12.3833 10.7719 12.0753 10.7678L12.6482 10.1949ZM12.1255 9.68714L11.2395 10.5679C11.0717 10.4852 10.9011 10.3732 10.7598 10.2221C10.6529 10.1077 10.5581 10.0008 10.4874 9.87444L11.405 8.9569ZM14.4023 9.44991C14.3 9.59354 14.1662 9.73948 14.0323 9.88081C13.9231 9.99976 13.7944 10.0992 13.6829 10.1917L13.1635 9.67968L13.9001 8.94537ZM13.375 8.42264L12.6482 9.15694L11.9254 8.43417L12.662 7.70963ZM10.8725 8.43417L10.2215 9.08519C10.1956 8.72089 10.2565 8.34221 10.4116 7.96815ZM14.7636 8.77323L14.4205 8.42264L14.9193 7.92381C14.9257 8.19736 14.8648 8.4876 14.7636 8.77323ZM12.137 7.17713L11.4027 7.90913L10.7976 7.30408C10.8924 7.17768 10.997 7.06619 11.116 6.93978C11.2498 6.81338 11.3958 6.69158 11.5417 6.58931ZM14.381 6.60599C14.5149 6.74963 14.6269 6.90302 14.7096 7.06619L13.8978 7.89014L13.175 7.17713L14.0259 6.33365C14.15 6.40662 14.2667 6.50142 14.381 6.60599ZM13.2367 6.07744L12.662 6.65209L12.2184 6.22568C12.5678 6.09751 12.9068 6.04407 13.2367 6.07744Z"
                     fill="currentColor" fill-opacity="0.85" />
       </g>
</svg>