<?xml version="1.0" encoding="UTF-8"?>
<!--Generator: Apple Native CoreSVG 326-->
<!DOCTYPE svg PUBLIC "-//W3C//DTD SVG 1.1//EN" "http://www.w3.org/Graphics/SVG/1.1/DTD/svg11.dtd">
<svg version="1.1" xmlns="http://www.w3.org/2000/svg" xmlns:xlink="http://www.w3.org/1999/xlink"
       viewBox="0 0 31.8689 21.8521">
       <g>
              <rect height="21.8521" opacity="0" width="31.8689" x="0" y="0" />
              <path d="M6.74041 21.8521L24.7499 21.8521C26.2914 21.8521 26.9913 20.4129 26.3062 19.0524L23.7041 13.8338L28.9493 21.155C29.2755 21.6087 29.7274 21.8452 30.2046 21.8452C30.9603 21.8452 31.5076 21.3325 31.5076 20.525L31.5076 17.4111C31.5076 16.7961 31.0034 16.2845 30.3809 16.2845C29.7659 16.2845 29.2641 16.7961 29.2641 17.4111L29.2641 17.8608L17.3595 1.18425C16.5084-0.0051558 14.9968-0.000545979 14.1457 1.18425L2.24349 17.8608L2.24349 17.4111C2.24349 16.7961 1.74162 16.2845 1.11917 16.2845C0.501869 16.2845 0 16.7961 0 17.4111L0 20.525C0 21.3325 0.5473 21.8452 1.29549 21.8452C1.78014 21.8452 2.23208 21.6087 2.55829 21.155L7.80346 13.8338L5.19386 19.0524C4.51621 20.4129 5.21381 21.8521 6.74041 21.8521ZM8.17523 19.3806C8.06089 19.3806 8.00691 19.2709 8.05804 19.1612L15.6182 3.80933C15.6768 3.68237 15.8359 3.68237 15.8968 3.80933L23.4495 19.1612C23.5006 19.2709 23.4444 19.3806 23.3249 19.3806ZM10.7947 19.8566L14.1333 19.8566L15.7452 13.0372L17.357 19.8566L20.7031 19.8566L16.6393 10.8745C16.4601 10.4817 16.1064 10.2853 15.7452 10.2853C15.3989 10.2853 15.0377 10.4817 14.8562 10.8745Z"
                     fill="currentColor" fill-opacity="0.85" />
       </g>
</svg>