<?xml version="1.0" encoding="UTF-8"?>
<!--Generator: Apple Native CoreSVG 326-->
<!DOCTYPE svg PUBLIC "-//W3C//DTD SVG 1.1//EN" "http://www.w3.org/Graphics/SVG/1.1/DTD/svg11.dtd">
<svg version="1.1" xmlns="http://www.w3.org/2000/svg" xmlns:xlink="http://www.w3.org/1999/xlink"
       viewBox="0 0 21.365 21.006">
       <g>
              <rect height="21.006" opacity="0" width="21.365" x="0" y="0" />
              <path d="M10.4981 20.9962C16.302 20.9962 21.0037 16.2946 21.0037 10.4981C21.0037 4.70163 16.302 0 10.4981 0C4.70163 0 0 4.70163 0 10.4981C0 16.2946 4.70163 20.9962 10.4981 20.9962ZM10.4981 17.9484C6.37829 17.9484 3.04785 14.6179 3.04785 10.4981C3.04785 6.37829 6.37829 3.04785 10.4981 3.04785C14.6179 3.04785 17.9558 6.37829 17.9558 10.4981C17.9558 14.6179 14.6179 17.9484 10.4981 17.9484Z"
                     fill="currentColor" fill-opacity="0.85" />
              <path d="M6.4384 14.673L14.5578 14.673C15.2443 14.673 15.5469 14.0228 15.2505 13.43L11.276 5.50157C10.9399 4.83914 10.0564 4.84375 9.72717 5.4895L5.74801 13.43C5.45165 14.0228 5.75426 14.673 6.4384 14.673ZM8.21489 13.587L10.084 9.48521C10.1673 9.29912 10.3339 9.19861 10.4981 9.19861C10.6721 9.19861 10.8364 9.29912 10.9122 9.48521L12.7813 13.587L11.2134 13.587L10.4981 10.5256L9.78279 13.587Z"
                     fill="currentColor" fill-opacity="0.85" />
       </g>
</svg>