<?xml version="1.0" encoding="UTF-8"?>
<!--Generator: Apple Native CoreSVG 326-->
<!DOCTYPE svg PUBLIC "-//W3C//DTD SVG 1.1//EN" "http://www.w3.org/Graphics/SVG/1.1/DTD/svg11.dtd">
<svg version="1.1" xmlns="http://www.w3.org/2000/svg" xmlns:xlink="http://www.w3.org/1999/xlink"
       viewBox="0 0 30.5271 21.7615">
       <g>
              <rect height="21.7615" opacity="0" width="30.5271" x="0" y="0" />
              <path d="M9.71084 2.81535L13.2988 9.9869L11.9119 12.7549L8.30781 5.55804C8.28828 5.51382 8.25152 5.48452 8.21476 5.48452C8.178 5.48452 8.14871 5.51382 8.12172 5.55804L3.04881 15.6878C3.00975 15.7786 3.03674 15.8395 3.13209 15.8395L4.86174 15.8395L7.55149 9.93352C7.68645 9.64407 7.94945 9.48673 8.21476 9.48673C8.48238 9.48673 8.75284 9.64407 8.8878 9.93352L10.9972 14.5804L9.12794 18.311L1.65305 18.311C0.279856 18.311-0.378142 16.9987 0.223688 15.7973L6.71868 2.81535C7.02766 2.21692 7.57442 1.83958 8.21476 1.83958C8.85511 1.83958 9.40932 2.21692 9.71084 2.81535ZM7.24977 15.8395L9.17975 15.8395L8.21476 11.7973Z"
                     fill="currentColor" fill-opacity="0.85" />
              <path d="M10.3446 21.7615L28.3565 21.7615C29.8807 21.7615 30.5881 20.3223 29.903 18.9693L20.9937 1.16902C20.6457 0.480396 20.0581 0.0909835 19.3517 0.0909835C18.6505 0.0909835 18.0554 0.480396 17.7171 1.16902L8.79809 18.9693C8.12044 20.3223 8.82035 21.7615 10.3446 21.7615ZM11.6681 19.29C11.5078 19.29 11.4538 19.1935 11.5268 19.0527L19.2299 3.65957C19.2885 3.53492 19.4201 3.53492 19.4787 3.65957L27.1818 19.0527C27.2496 19.1958 27.1956 19.29 27.0474 19.29ZM13.7873 20.3932L17.4871 20.3932L19.3517 12.5154L21.2214 20.3932L24.9213 20.3932L20.3101 10.2097C20.1212 9.79225 19.7451 9.57347 19.3517 9.57347C18.971 9.57347 18.5874 9.79225 18.391 10.2097Z"
                     fill="currentColor" fill-opacity="0.85" />
       </g>
</svg>