<?xml version="1.0" encoding="UTF-8"?>
<!--Generator: Apple Native CoreSVG 326-->
<!DOCTYPE svg PUBLIC "-//W3C//DTD SVG 1.1//EN" "http://www.w3.org/Graphics/SVG/1.1/DTD/svg11.dtd">
<svg version="1.1" xmlns="http://www.w3.org/2000/svg" xmlns:xlink="http://www.w3.org/1999/xlink"
       viewBox="0 0 30.5294 21.7615">
       <g>
              <rect height="21.7615" opacity="0" width="30.5294" x="0" y="0" />
              <path d="M9.71084 2.81535L13.2988 9.9869L10.9988 14.5772L8.8878 9.93352C8.75284 9.64407 8.48238 9.48673 8.21476 9.48673C7.94945 9.48673 7.68645 9.64407 7.55149 9.93352L4.8569 15.8395L7.25409 15.8395L8.21476 11.7973L9.17543 15.8395L10.3663 15.8395L9.12794 18.311L1.65305 18.311C0.279856 18.311-0.378142 16.9987 0.223688 15.7973L6.71868 2.81535C7.02766 2.21692 7.57442 1.83958 8.21476 1.83958C8.85511 1.83958 9.40932 2.21692 9.71084 2.81535Z"
                     fill="currentColor" fill-opacity="0.85" />
              <path d="M10.3446 21.7615L28.3565 21.7615C29.883 21.7615 30.5904 20.3223 29.9053 18.9693L20.9983 1.17594C20.648 0.485005 20.0581 0.0909835 19.3517 0.0909835C18.6505 0.0909835 18.0554 0.480396 17.7171 1.16902L8.79809 18.9693C8.12044 20.3223 8.82035 21.7615 10.3446 21.7615ZM14.2806 19.2877L18.391 10.2097C18.5874 9.79225 18.971 9.57347 19.3517 9.57347C19.7451 9.57347 20.1212 9.79225 20.3101 10.2097L24.4279 19.2877L20.9538 19.2877L19.3517 12.5154L17.7547 19.2877Z"
                     fill="currentColor" fill-opacity="0.85" />
       </g>
</svg>