<?xml version="1.0" encoding="UTF-8"?>
<!--Generator: Apple Native CoreSVG 326-->
<!DOCTYPE svg PUBLIC "-//W3C//DTD SVG 1.1//EN" "http://www.w3.org/Graphics/SVG/1.1/DTD/svg11.dtd">
<svg version="1.1" xmlns="http://www.w3.org/2000/svg" xmlns:xlink="http://www.w3.org/1999/xlink"
       viewBox="0 0 22.2768 18.5328">
       <g>
              <rect height="18.5328" opacity="0" width="22.2768" x="0" y="0" />
              <path d="M3.1216 2.75852L18.7939 2.75852C19.5393 2.75852 20.1296 2.10853 20.1296 1.37811C20.1296 0.625304 19.5467 0 18.7939 0L3.1216 0C2.37396 0 1.78596 0.640225 1.78596 1.37811C1.78596 2.09361 2.38142 2.75852 3.1216 2.75852ZM3.1216 14.4155L18.7939 14.4155C19.5393 14.4155 20.1296 13.7678 20.1296 13.035C20.1296 12.2748 19.5467 11.6569 18.7939 11.6569L3.1216 11.6569C2.37396 11.6569 1.78596 12.2972 1.78596 13.035C1.78596 13.7454 2.38142 14.4155 3.1216 14.4155ZM3.1216 18.5156L18.7939 18.5156C19.5393 18.5156 20.1296 17.8679 20.1296 17.1375C20.1296 16.3824 19.5467 15.757 18.7939 15.757L3.1216 15.757C2.37396 15.757 1.78596 16.3973 1.78596 17.1375C1.78596 17.853 2.38142 18.5156 3.1216 18.5156Z"
                     fill="currentColor" fill-opacity="0.85" />
              <path d="M3.1216 8.6424L18.7939 8.6424C19.5393 8.6424 20.1296 7.99241 20.1296 7.26199C20.1296 6.50172 19.5467 5.88388 18.7939 5.88388L3.1216 5.88388C2.37626 5.88388 1.78596 6.51664 1.78596 7.26199C1.78596 7.97002 2.38372 8.6424 3.1216 8.6424ZM3.1216 10.3767L18.7962 10.3767C20.5437 10.3767 21.9155 8.99511 21.9155 7.24761C21.9155 5.50011 20.5437 4.12601 18.7962 4.12601L3.1216 4.12601C1.3741 4.12601 0 5.50011 0 7.24761C0 8.99511 1.3741 10.3767 3.1216 10.3767ZM3.1216 9.25539C2.00195 9.25539 1.12129 8.37472 1.12129 7.24761C1.12129 6.13027 2.00195 5.2473 3.1216 5.2473L18.7962 5.2473C19.9136 5.2473 20.7942 6.13027 20.7942 7.24761C20.7942 8.37472 19.9136 9.25539 18.7962 9.25539Z"
                     fill="currentColor" fill-opacity="0.85" />
       </g>
</svg>