<?xml version="1.0" encoding="UTF-8"?>
<!--Generator: Apple Native CoreSVG 326-->
<!DOCTYPE svg PUBLIC "-//W3C//DTD SVG 1.1//EN" "http://www.w3.org/Graphics/SVG/1.1/DTD/svg11.dtd">
<svg version="1.1" xmlns="http://www.w3.org/2000/svg" xmlns:xlink="http://www.w3.org/1999/xlink"
       viewBox="0 0 23.577 23.2335">
       <g>
              <rect height="23.2335" opacity="0" width="23.577" x="0" y="0" />
              <path d="M9.28038 12.4965L8.25552 12.4965C7.8322 12.4965 7.52376 12.8147 7.52376 13.2334C7.52376 13.6274 7.8322 13.9382 8.25552 13.9382L10.7241 13.9382L18.8657 22.068C18.3257 22.362 17.6557 22.5133 16.8715 22.5133L6.36378 22.5133C4.03871 22.5133 2.72465 21.1918 2.72465 18.8598L2.72465 5.95023ZM20.5083 4.38113L20.5083 17.2863L13.8433 10.624L14.982 10.624C15.4007 10.624 15.7115 10.296 15.7115 9.88476C15.7115 9.48327 15.4007 9.17484 14.982 9.17484L12.3936 9.17484L10.5129 7.29486L14.982 7.29486C15.4007 7.29486 15.7115 6.97436 15.7115 6.55565C15.7115 6.16163 15.4007 5.85319 14.982 5.85319L9.07063 5.85319L4.3797 1.16414C4.91764 0.874552 5.58383 0.725326 6.36378 0.725326L16.8715 0.725326C19.1891 0.725326 20.5083 2.05145 20.5083 4.38113Z"
                     fill="currentColor" fill-opacity="0.85" />
              <path d="M20.344 21.553C20.684 21.8833 21.2297 21.8908 21.5576 21.553C21.8804 21.213 21.8954 20.6748 21.5576 20.3371L2.88151 1.67071C2.55124 1.33298 1.99812 1.33067 1.65808 1.67071C1.33757 1.99122 1.33757 2.55641 1.65808 2.88438Z"
                     fill="currentColor" fill-opacity="0.85" />
       </g>
</svg>