<?xml version="1.0" encoding="UTF-8"?>
<!--Generator: Apple Native CoreSVG 326-->
<!DOCTYPE svg PUBLIC "-//W3C//DTD SVG 1.1//EN" "http://www.w3.org/Graphics/SVG/1.1/DTD/svg11.dtd">
<svg version="1.1" xmlns="http://www.w3.org/2000/svg" xmlns:xlink="http://www.w3.org/1999/xlink"
       viewBox="0 0 18.3142 20.1388">
       <g>
              <rect height="20.1388" opacity="0" width="18.3142" x="0" y="0" />
              <path d="M1.9245 17.7565C3.03147 17.7565 3.64349 17.2628 3.94095 16.0967L4.46957 14.3952L9.44791 14.3952L9.98399 16.0967C10.274 17.2628 10.886 17.7565 11.9981 17.7565C13.2245 17.7565 14.0191 17.0262 14.0191 15.9038C14.0191 15.4468 13.9525 15.0891 13.7997 14.6378L10.3089 4.65639C9.78589 3.11317 8.73642 2.38518 6.99231 2.38518C5.35726 2.38518 4.32041 3.11833 3.79221 4.65408L0.204411 14.8192C0.0740612 15.2182 0 15.6132 0 15.9583C0 17.0733 0.737761 17.7565 1.9245 17.7565ZM5.29127 11.5082L6.97048 5.89838L7.04915 5.89838L8.72089 11.5082Z"
                     fill="currentColor" fill-opacity="0.85" />
              <path d="M16.6357 9.12649C17.416 9.12649 17.9529 8.69408 17.9529 7.73929L17.9529 1.41772C17.9529 0.541477 17.3167 0 16.4428 0C15.7445 0 15.2909 0.248083 14.769 0.59261L13.3855 1.51015C12.968 1.79269 12.7935 2.04308 12.7935 2.46452C12.7935 3.03529 13.1868 3.41372 13.6611 3.41372C13.9087 3.41372 14.0557 3.34767 14.3704 3.14381L15.2966 2.52384L15.3259 2.52384L15.3259 7.73929C15.3259 8.69408 15.8651 9.12649 16.6357 9.12649Z"
                     fill="currentColor" fill-opacity="0.85" />
       </g>
</svg>