<?xml version="1.0" encoding="UTF-8"?>
<!--Generator: Apple Native CoreSVG 326-->
<!DOCTYPE svg PUBLIC "-//W3C//DTD SVG 1.1//EN" "http://www.w3.org/Graphics/SVG/1.1/DTD/svg11.dtd">
<svg version="1.1" xmlns="http://www.w3.org/2000/svg" xmlns:xlink="http://www.w3.org/1999/xlink"
       viewBox="0 0 18.145 21.7932">
       <g>
              <rect height="21.7932" opacity="0" width="18.145" x="0" y="0" />
              <path d="M5.73528 6.83078L12.0581 6.83078C12.4447 6.83078 12.7359 6.52981 12.7359 6.14325C12.7359 5.77391 12.4447 5.4804 12.0581 5.4804L5.73528 5.4804C5.33895 5.4804 5.0552 5.77391 5.0552 6.14325C5.0552 6.52981 5.33895 6.83078 5.73528 6.83078ZM5.73528 9.94802L12.0581 9.94802C12.4447 9.94802 12.7359 9.64704 12.7359 9.26048C12.7359 8.88369 12.4447 8.59763 12.0581 8.59763L5.73528 8.59763C5.33895 8.59763 5.0552 8.88369 5.0552 9.26048C5.0552 9.64704 5.33895 9.94802 5.73528 9.94802ZM5.73528 13.0578L9.03224 13.0578C9.4211 13.0578 9.70485 12.774 9.70485 12.3972C9.70485 12.0084 9.4211 11.7149 9.03224 11.7149L5.73528 11.7149C5.33895 11.7149 5.0552 12.0084 5.0552 12.3972C5.0552 12.774 5.33895 13.0578 5.73528 13.0578ZM0 18.1397C0 20.4717 1.31921 21.7932 3.63912 21.7932L14.1445 21.7932C16.4719 21.7932 17.7836 20.4717 17.7836 18.1397L17.7836 3.66096C17.7836 1.33128 16.4719 0.0051558 14.1445 0.0051558L3.63912 0.0051558C1.31921 0.0051558 0 1.33128 0 3.66096ZM3.01964 17.7299L3.01964 4.07075C3.01964 3.3777 3.32832 3.0248 4.0679 3.0248L13.7232 3.0248C14.4553 3.0248 14.764 3.3777 14.764 4.07075L14.764 17.7299C14.764 18.4229 14.4553 18.7735 13.7232 18.7735L4.0679 18.7735C3.32832 18.7735 3.01964 18.4229 3.01964 17.7299Z"
                     fill="currentColor" fill-opacity="0.85" />
       </g>
</svg>