<?xml version="1.0" encoding="UTF-8"?>
<!--Generator: Apple Native CoreSVG 326-->
<!DOCTYPE svg PUBLIC "-//W3C//DTD SVG 1.1//EN" "http://www.w3.org/Graphics/SVG/1.1/DTD/svg11.dtd">
<svg version="1.1" xmlns="http://www.w3.org/2000/svg" xmlns:xlink="http://www.w3.org/1999/xlink"
       viewBox="0 0 18.145 21.7932">
       <g>
              <rect height="21.7932" opacity="0" width="18.145" x="0" y="0" />
              <path d="M5.53602 6.57469C5.10755 6.57469 4.79911 6.25419 4.79911 5.83548C4.79911 5.44146 5.10755 5.13302 5.53602 5.13302L12.2648 5.13302C12.6761 5.13302 12.9845 5.44146 12.9845 5.83548C12.9845 6.25419 12.6761 6.57469 12.2648 6.57469ZM5.53602 9.9038C5.10755 9.9038 4.79911 9.57583 4.79911 9.16459C4.79911 8.7631 5.10755 8.45467 5.53602 8.45467L12.2648 8.45467C12.6761 8.45467 12.9845 8.7631 12.9845 9.16459C12.9845 9.57583 12.6761 9.9038 12.2648 9.9038ZM5.53602 13.218C5.10755 13.218 4.79911 12.9072 4.79911 12.5132C4.79911 12.0945 5.10755 11.7763 5.53602 11.7763L9.04485 11.7763C9.46071 11.7763 9.76684 12.0945 9.76684 12.5132C9.76684 12.9072 9.46071 13.218 9.04485 13.218ZM0 18.1397C0 20.4717 1.31921 21.7932 3.63912 21.7932L14.1445 21.7932C16.4719 21.7932 17.7836 20.4717 17.7836 18.1397L17.7836 3.66096C17.7836 1.33128 16.4719 0.0051558 14.1445 0.0051558L3.63912 0.0051558C1.31921 0.0051558 0 1.33128 0 3.66096Z"
                     fill="currentColor" fill-opacity="0.85" />
       </g>
</svg>