<?xml version="1.0" encoding="UTF-8"?>
<!--Generator: Apple Native CoreSVG 326-->
<!DOCTYPE svg PUBLIC "-//W3C//DTD SVG 1.1//EN" "http://www.w3.org/Graphics/SVG/1.1/DTD/svg11.dtd">
<svg version="1.1" xmlns="http://www.w3.org/2000/svg" xmlns:xlink="http://www.w3.org/1999/xlink"
       viewBox="0 0 23.3769 22.7958">
       <g>
              <rect height="22.7958" opacity="0" width="23.3769" x="0" y="0" />
              <path d="M23.0156 5.99015L23.0156 13.866C23.0156 16.884 21.095 18.8213 18.0654 18.8213L12.113 18.8213L8.38613 22.0888C7.80777 22.6005 7.4052 22.7958 6.92735 22.7958C6.23642 22.7958 5.80454 22.3208 5.80454 21.5587L5.80454 18.8213L4.68902 18.8213C2.09221 18.8213 0 16.8863 0 13.866L0 5.99015C0 2.96984 1.92061 1.03255 4.95014 1.03255L18.0654 1.03255C21.095 1.03255 23.0156 2.97215 23.0156 5.99015ZM6.41177 12.1863C5.99998 12.1863 5.64678 12.5544 5.64678 12.9834C5.64678 13.4027 6.00744 13.7834 6.41177 13.7834L13.0742 13.7834C13.5159 13.7834 13.8593 13.4027 13.8593 12.9834C13.8593 12.5469 13.5159 12.1863 13.0742 12.1863ZM6.41177 9.10878C5.99998 9.10878 5.64678 9.48436 5.64678 9.90131C5.64678 10.3229 6.00744 10.7059 6.41177 10.7059L16.5612 10.7059C17.0029 10.7059 17.3612 10.3229 17.3612 9.90131C17.3612 9.46944 17.0029 9.10878 16.5612 9.10878ZM6.41177 6.03128C5.99998 6.03128 5.64678 6.39194 5.64678 6.82381C5.64678 7.24537 6.00744 7.62611 6.41177 7.62611L16.5612 7.62611C17.0029 7.62611 17.3612 7.24537 17.3612 6.82381C17.3612 6.39194 17.0029 6.03128 16.5612 6.03128Z"
                     fill="currentColor" fill-opacity="0.85" />
       </g>
</svg>