<?xml version="1.0" encoding="UTF-8"?>
<!--Generator: Apple Native CoreSVG 326-->
<!DOCTYPE svg PUBLIC "-//W3C//DTD SVG 1.1//EN" "http://www.w3.org/Graphics/SVG/1.1/DTD/svg11.dtd">
<svg version="1.1" xmlns="http://www.w3.org/2000/svg" xmlns:xlink="http://www.w3.org/1999/xlink"
       viewBox="0 0 21.9863 18.1026">
       <g>
              <rect height="18.1026" opacity="0" width="21.9863" x="0" y="0" />
              <path d="M1.33334 2.75852L12.354 2.75852C13.0993 2.75852 13.6897 2.11083 13.6897 1.38041C13.6897 0.620148 13.1068 0 12.354 0L1.33334 0C0.588 0 0 0.64253 0 1.38041C0 2.09591 0.595461 2.75852 1.33334 2.75852ZM16.6847 2.75852L20.287 2.75852C21.0324 2.75852 21.625 2.11083 21.625 1.38041C21.625 0.620148 21.0398 0 20.287 0L16.6847 0C15.9319 0 15.3513 0.64253 15.3513 1.38041C15.3513 2.09591 15.9468 2.75852 16.6847 2.75852ZM1.33334 7.86825L2.57388 7.86825C3.32153 7.86825 3.91183 7.21825 3.91183 6.48783C3.91183 5.73503 3.33645 5.10973 2.57388 5.10973L1.33334 5.10973C0.588 5.10973 0 5.74995 0 6.48783C0 7.20333 0.595461 7.86825 1.33334 7.86825ZM6.90685 7.86825L11.4305 7.86825C12.1781 7.86825 12.7684 7.21825 12.7684 6.48783C12.7684 5.73503 12.1856 5.10973 11.4305 5.10973L6.90685 5.10973C6.1615 5.10973 5.5735 5.74995 5.5735 6.48783C5.5735 7.20333 6.16897 7.86825 6.90685 7.86825ZM15.7634 7.86825L20.287 7.86825C21.0324 7.86825 21.625 7.21825 21.625 6.48783C21.625 5.73503 21.0398 5.10973 20.287 5.10973L15.7634 5.10973C15.0181 5.10973 14.4278 5.74995 14.4278 6.48783C14.4278 7.20333 15.0255 7.86825 15.7634 7.86825ZM1.33565 12.9688L4.93801 12.9688C5.69081 12.9688 6.27366 12.3211 6.27366 11.5906C6.27366 10.8355 5.69827 10.2102 4.93801 10.2102L1.33565 10.2102C0.590305 10.2102 0 10.8505 0 11.5906C0 12.3061 0.597766 12.9688 1.33565 12.9688ZM9.27098 12.9688L20.2893 12.9688C21.0347 12.9688 21.625 12.3211 21.625 11.5906C21.625 10.8355 21.0421 10.2102 20.2893 10.2102L9.27098 10.2102C8.52333 10.2102 7.93303 10.8505 7.93303 11.5906C7.93303 12.3061 8.53079 12.9688 9.27098 12.9688ZM1.33334 18.0906L11.0657 18.0906C11.8185 18.0906 12.4088 17.4429 12.4088 16.7124C12.4088 15.9522 11.8259 15.332 11.0657 15.332L1.33334 15.332C0.588 15.332 0 15.9746 0 16.7124C0 17.4279 0.595461 18.0906 1.33334 18.0906Z"
                     fill="currentColor" fill-opacity="0.85" />
       </g>
</svg>