<?xml version="1.0" encoding="UTF-8"?>
<!--Generator: Apple Native CoreSVG 326-->
<!DOCTYPE svg PUBLIC "-//W3C//DTD SVG 1.1//EN" "http://www.w3.org/Graphics/SVG/1.1/DTD/svg11.dtd">
<svg version="1.1" xmlns="http://www.w3.org/2000/svg" xmlns:xlink="http://www.w3.org/1999/xlink"
       viewBox="0 0 20.2864 20.0883">
       <g>
              <rect height="20.0883" opacity="0" width="20.2864" x="0" y="0" />
              <path d="M0 8.44951C0 13.1269 3.78706 16.9065 8.45697 16.9065C9.86522 16.9065 11.1792 16.5536 12.3242 15.9415L15.7785 19.3981C16.2419 19.8615 16.8706 20.0808 17.5188 20.0808C18.8916 20.0808 19.9251 19.0307 19.9251 17.6676C19.9251 17.0417 19.7035 16.4303 19.2298 15.9566L15.8272 12.5396C16.5197 11.3429 16.9139 9.94335 16.9139 8.44951C16.9139 3.7796 13.1269 0 8.45697 0C3.78706 0 0 3.7796 0 8.44951ZM3.19937 8.44951C3.19937 5.56301 5.55555 3.19937 8.44951 3.19937C11.3584 3.19937 13.7071 5.56301 13.7071 8.44951C13.7071 11.3435 11.3584 13.7071 8.44951 13.7071C5.55555 13.7071 3.19937 11.3435 3.19937 8.44951ZM6.13433 8.02595L10.8784 8.02595C11.3264 8.02595 11.6716 7.62623 11.6716 7.20806C11.6716 6.7526 11.3413 6.39018 10.8784 6.39018L6.13433 6.39018C5.67656 6.39018 5.33137 6.76006 5.33137 7.20806C5.33137 7.63369 5.68402 8.02595 6.13433 8.02595ZM6.13433 10.4991L9.45519 10.4991C9.89573 10.4991 10.2455 10.1166 10.2455 9.6835C10.2455 9.23549 9.91065 8.86331 9.45519 8.86331L6.13433 8.86331C5.67656 8.86331 5.33137 9.24295 5.33137 9.6835C5.33137 10.1166 5.68402 10.4991 6.13433 10.4991Z"
                     fill="currentColor" fill-opacity="0.85" />
       </g>
</svg>