<?xml version="1.0" encoding="UTF-8"?>
<!--Generator: Apple Native CoreSVG 326-->
<!DOCTYPE svg PUBLIC "-//W3C//DTD SVG 1.1//EN" "http://www.w3.org/Graphics/SVG/1.1/DTD/svg11.dtd">
<svg version="1.1" xmlns="http://www.w3.org/2000/svg" xmlns:xlink="http://www.w3.org/1999/xlink"
       viewBox="0 0 21.9863 18.1026">
       <g>
              <rect height="18.1026" opacity="0" width="21.9863" x="0" y="0" />
              <path d="M12.8769 2.75852L20.287 2.75852C21.0324 2.75852 21.625 2.11083 21.625 1.38041C21.625 0.620148 21.0398 0 20.287 0L12.8769 0C12.1241 0 11.5361 0.64253 11.5361 1.38041C11.5361 2.09591 12.1315 2.75852 12.8769 2.75852ZM12.8769 7.86825L20.287 7.86825C21.0324 7.86825 21.625 7.21825 21.625 6.48783C21.625 5.73503 21.0398 5.10973 20.287 5.10973L12.8769 5.10973C12.1241 5.10973 11.5361 5.74995 11.5361 6.48783C11.5361 7.20333 12.1315 7.86825 12.8769 7.86825ZM1.33334 12.9831L20.287 12.9831C21.0324 12.9831 21.625 12.3354 21.625 11.605C21.625 10.8425 21.0398 10.2246 20.287 10.2246L1.33334 10.2246C0.588 10.2246 0 10.8574 0 11.605C0 12.3131 0.595461 12.9831 1.33334 12.9831ZM1.33334 18.0906L20.287 18.0906C21.0324 18.0906 21.625 17.4429 21.625 16.7124C21.625 15.9522 21.0398 15.332 20.287 15.332L1.33334 15.332C0.588 15.332 0 15.9746 0 16.7124C0 17.4279 0.595461 18.0906 1.33334 18.0906Z"
                     fill="currentColor" fill-opacity="0.85" />
              <path d="M1.61545 8.28732C2.43377 8.28732 3.08727 7.64873 3.08727 6.86542L3.08727 5.91457C3.08727 5.53438 3.32329 5.29837 3.71094 5.29837L5.10008 5.29837L5.10008 6.51919C5.10008 7.3847 5.94714 7.70981 6.61339 7.17798L9.93619 4.50377C10.3693 4.14881 10.3544 3.53479 9.93619 3.19476L6.61339 0.513089C5.93222-0.0336647 5.10008 0.291452 5.10008 1.1868L5.10008 2.34496L3.18626 2.34496C1.16593 2.34496 0.133868 3.35058 0.133868 5.33755L0.133868 6.77589C0.133868 7.73826 0.794837 8.28732 1.61545 8.28732Z"
                     fill="currentColor" fill-opacity="0.85" />
       </g>
</svg>