<?xml version="1.0" encoding="UTF-8"?>
<!--Generator: Apple Native CoreSVG 326-->
<!DOCTYPE svg PUBLIC "-//W3C//DTD SVG 1.1//EN" "http://www.w3.org/Graphics/SVG/1.1/DTD/svg11.dtd">
<svg version="1.1" xmlns="http://www.w3.org/2000/svg" xmlns:xlink="http://www.w3.org/1999/xlink"
       viewBox="0 0 33.4737 21.6613">
       <g>
              <rect height="21.6613" opacity="0" width="33.4737" x="0" y="0" />
              <path d="M8.3282 9.64757L27.2744 9.64757C28.0272 9.64757 28.6175 8.99758 28.6175 8.26716C28.6175 7.51435 28.0347 6.88905 27.2744 6.88905L8.3282 6.88905C7.5754 6.88905 6.99486 7.52928 6.99486 8.26716C6.99486 8.98266 7.59032 9.64757 8.3282 9.64757ZM8.3282 14.7625L27.2744 14.7625C28.0272 14.7625 28.6175 14.1148 28.6175 13.3843C28.6175 12.6218 28.0347 12.0039 27.2744 12.0039L8.3282 12.0039C7.5754 12.0039 6.99486 12.6367 6.99486 13.3843C6.99486 14.0924 7.59032 14.7625 8.3282 14.7625ZM8.3282 19.8699L27.2744 19.8699C28.0272 19.8699 28.6175 19.2222 28.6175 18.4918C28.6175 17.7315 28.0347 17.1114 27.2744 17.1114L8.3282 17.1114C7.5754 17.1114 6.99486 17.7539 6.99486 18.4918C6.99486 19.2073 7.59032 19.8699 8.3282 19.8699Z"
                     fill="currentColor" fill-opacity="0.85" />
              <path d="M1.36385 6.1741L5.09177 3.95051C5.72005 3.58239 5.70282 2.74915 5.09177 2.38849L1.36385 0.162598C0.71089-0.232516 0 0.123535 0 0.894777L0 5.43676C0 6.21777 0.71835 6.56175 1.36385 6.1741ZM8.35962 5.10734L27.2602 5.10734C28.1328 5.10734 28.6175 4.63234 28.6175 3.75235L28.6175 2.55736C28.6175 1.68943 28.1328 1.20467 27.2602 1.20467L8.35962 1.20467C7.48708 1.20467 7.00232 1.68943 7.00232 2.55736L7.00232 3.75235C7.00232 4.63234 7.48708 5.10734 8.35962 5.10734Z"
                     fill="currentColor" fill-opacity="0.85" />
       </g>
</svg>