<?xml version="1.0" encoding="UTF-8"?>
<!--Generator: Apple Native CoreSVG 326-->
<!DOCTYPE svg PUBLIC "-//W3C//DTD SVG 1.1//EN" "http://www.w3.org/Graphics/SVG/1.1/DTD/svg11.dtd">
<svg version="1.1" xmlns="http://www.w3.org/2000/svg" xmlns:xlink="http://www.w3.org/1999/xlink"
       viewBox="0 0 21.9863 18.1026">
       <g>
              <rect height="18.1026" opacity="0" width="21.9863" x="0" y="0" />
              <path d="M1.33334 2.75852L20.287 2.75852C21.0324 2.75852 21.625 2.11083 21.625 1.38041C21.625 0.620148 21.0398 0 20.287 0L1.33334 0C0.588 0 0 0.64253 0 1.38041C0 2.09591 0.595461 2.75852 1.33334 2.75852ZM5.07358 7.86825L16.5468 7.86825C17.2921 7.86825 17.8847 7.21825 17.8847 6.48783C17.8847 5.73503 17.2996 5.10973 16.5468 5.10973L5.07358 5.10973C4.32823 5.10973 3.74023 5.74995 3.74023 6.48783C3.74023 7.20333 4.3357 7.86825 5.07358 7.86825ZM1.33334 12.9831L20.287 12.9831C21.0324 12.9831 21.625 12.3354 21.625 11.605C21.625 10.8425 21.0398 10.2246 20.287 10.2246L1.33334 10.2246C0.588 10.2246 0 10.8574 0 11.605C0 12.3131 0.595461 12.9831 1.33334 12.9831ZM5.07358 18.0906L16.5468 18.0906C17.2921 18.0906 17.8847 17.4429 17.8847 16.7124C17.8847 15.9522 17.2996 15.332 16.5468 15.332L5.07358 15.332C4.32823 15.332 3.74023 15.9746 3.74023 16.7124C3.74023 17.4279 4.3357 18.0906 5.07358 18.0906Z"
                     fill="currentColor" fill-opacity="0.85" />
       </g>
</svg>