<?xml version="1.0" encoding="UTF-8"?>
<!--Generator: Apple Native CoreSVG 326-->
<!DOCTYPE svg PUBLIC "-//W3C//DTD SVG 1.1//EN" "http://www.w3.org/Graphics/SVG/1.1/DTD/svg11.dtd">
<svg version="1.1" xmlns="http://www.w3.org/2000/svg" xmlns:xlink="http://www.w3.org/1999/xlink"
       viewBox="0 0 26.8376 15.3742">
       <g>
              <rect height="15.3742" opacity="0" width="26.8376" x="0" y="0" />
              <path d="M14.3817 15.3742C15.4939 15.3742 16.1082 14.8804 16.4057 13.7143L16.9343 12.0129L21.9126 12.0129L22.4412 13.7143C22.7387 14.8804 23.3507 15.3742 24.4628 15.3742C25.6817 15.3742 26.4763 14.6439 26.4763 13.5214C26.4763 13.0645 26.4172 12.7068 26.2644 12.2555L22.7736 2.27406C22.2506 0.730846 21.2011 0.00285089 19.457 0.00285089C17.822 0.00285089 16.7851 0.736002 16.2569 2.27175L12.6691 12.4369C12.5313 12.8359 12.4647 13.2309 12.4647 13.576C12.4647 14.691 13.195 15.3742 14.3817 15.3742ZM17.756 9.12589L19.4352 3.51605L19.5064 3.51605L21.1856 9.12589Z"
                     fill="currentColor" fill-opacity="0.85" />
              <path d="M1.60138 15.3742C2.44196 15.3742 2.92945 14.9304 3.21253 13.8625L3.55305 12.7531L7.28934 12.7531L7.62241 13.9072C7.88311 14.9499 8.3706 15.3742 9.28808 15.3742C10.2016 15.3742 10.8619 14.7506 10.8619 13.8412C10.8619 13.4892 10.7907 13.1768 10.6454 12.7628L7.94407 5.3455C7.4658 4.02611 6.69752 3.44502 5.38274 3.44502C4.15233 3.44502 3.38406 4.04388 2.92071 5.3455L0.234254 12.7628C0.0964433 13.1423 0 13.554 0 13.8412C0 14.8052 0.603468 15.3742 1.60138 15.3742ZM4.15434 10.4092L5.30516 6.32952L5.44024 6.32952L6.63584 10.4092Z"
                     fill="currentColor" fill-opacity="0.85" />
       </g>
</svg>