<?xml version="1.0" encoding="UTF-8"?>
<!--Generator: Apple Native CoreSVG 326-->
<!DOCTYPE svg PUBLIC "-//W3C//DTD SVG 1.1//EN" "http://www.w3.org/Graphics/SVG/1.1/DTD/svg11.dtd">
<svg version="1.1" xmlns="http://www.w3.org/2000/svg" xmlns:xlink="http://www.w3.org/1999/xlink"
       viewBox="0 0 20.888 20.4947">
       <g>
              <rect height="20.4947" opacity="0" width="20.888" x="0" y="0" />
              <path d="M1.9245 17.9344C3.03147 17.9344 3.64349 17.4407 3.94095 16.2746L4.46957 14.5731L9.44791 14.5731L9.98399 16.2746C10.274 17.4407 10.886 17.9344 11.9981 17.9344C13.2245 17.9344 14.0191 17.2041 14.0191 16.0817C14.0191 15.6247 13.9525 15.267 13.7997 14.8157L10.3089 4.83429C9.78589 3.29108 8.73642 2.56308 6.99231 2.56308C5.35726 2.56308 4.32041 3.29623 3.79221 4.83199L0.204411 14.9971C0.0740612 15.3961 0 15.7911 0 16.1362C0 17.2512 0.737761 17.9344 1.9245 17.9344ZM5.29127 11.6861L6.97048 6.07628L7.04915 6.07628L8.72089 11.6861Z"
                     fill="currentColor" fill-opacity="0.85" />
              <path d="M19.2146 20.4947C19.9972 20.4947 20.5266 20.0548 20.5266 19.1074L20.5266 12.7784C20.5266 11.9022 19.8956 11.3705 19.0217 11.3705C18.316 11.3705 17.8698 11.6088 17.3404 11.9631L15.957 12.8783C15.5418 13.1557 15.3649 13.4112 15.3649 13.835C15.3649 14.396 15.7657 14.7744 16.2326 14.7744C16.4876 14.7744 16.6295 14.7158 16.9442 14.5045L17.8755 13.8845L17.8974 13.8845L17.8974 19.1074C17.8974 20.0548 18.4365 20.4947 19.2146 20.4947Z"
                     fill="currentColor" fill-opacity="0.85" />
       </g>
</svg>