<?xml version="1.0" encoding="UTF-8"?>
<!--Generator: Apple Native CoreSVG 326-->
<!DOCTYPE svg PUBLIC "-//W3C//DTD SVG 1.1//EN" "http://www.w3.org/Graphics/SVG/1.1/DTD/svg11.dtd">
<svg version="1.1" xmlns="http://www.w3.org/2000/svg" xmlns:xlink="http://www.w3.org/1999/xlink"
       viewBox="0 0 18.145 21.7932">
       <g>
              <rect height="21.7932" opacity="0" width="18.145" x="0" y="0" />
              <path d="M3.63912 21.7932L14.1445 21.7932C16.4719 21.7932 17.7836 20.4694 17.7836 18.1397L17.7836 9.30233C17.7836 7.63223 17.5178 6.76454 16.4456 5.68772L12.1316 1.35069C11.076 0.283082 10.1922 0.0051558 8.56876 0.0051558L3.63912 0.0051558C1.32151 0.0051558 0 1.33128 0 3.66096L0 18.1397C0 20.4717 1.31921 21.7932 3.63912 21.7932ZM4.0656 18.7735C3.32832 18.7735 3.01964 18.4229 3.01964 17.7299L3.01964 4.07075C3.01964 3.38 3.32832 3.0248 4.0679 3.0248L7.63769 3.0248L7.63769 7.34824C7.63769 9.28748 8.53643 10.1914 10.4808 10.1914L14.764 10.1914L14.764 17.7299C14.764 18.4229 14.4553 18.7735 13.7232 18.7735ZM10.679 7.81402C10.2287 7.81402 10.015 7.59062 10.015 7.14777L10.015 3.17086L14.6179 7.81402Z"
                     fill="currentColor" fill-opacity="0.85" />
              <path d="M12.023 12.3271L5.70016 12.3271C5.30383 12.3271 5.01031 12.6132 5.01031 12.99C5.01031 13.3765 5.30383 13.6775 5.70016 13.6775L12.023 13.6775C12.4021 13.6775 12.6933 13.3765 12.6933 12.99C12.6933 12.6132 12.4021 12.3271 12.023 12.3271ZM12.023 15.1758L5.70016 15.1758C5.30383 15.1758 5.01031 15.4791 5.01031 15.8656C5.01031 16.2424 5.30383 16.5262 5.70016 16.5262L12.023 16.5262C12.4021 16.5262 12.6933 16.2424 12.6933 15.8656C12.6933 15.4791 12.4021 15.1758 12.023 15.1758Z"
                     fill="currentColor" fill-opacity="0.85" />
       </g>
</svg>