<?xml version="1.0" encoding="UTF-8"?>
<!--Generator: Apple Native CoreSVG 326-->
<!DOCTYPE svg PUBLIC "-//W3C//DTD SVG 1.1//EN" "http://www.w3.org/Graphics/SVG/1.1/DTD/svg11.dtd">
<svg version="1.1" xmlns="http://www.w3.org/2000/svg" xmlns:xlink="http://www.w3.org/1999/xlink"
       viewBox="0 0 20.6805 26.1311">
       <g>
              <rect height="26.1311" opacity="0" width="20.6805" x="0" y="0" />
              <path d="M1.24721 21.3122L19.0697 21.3122C19.7633 21.3122 20.3192 20.7587 20.3192 20.0627C20.3192 19.3691 19.7633 18.8155 19.0697 18.8155L1.24721 18.8155C0.553548 18.8155 0 19.3691 0 20.0627C0 20.7587 0.553548 21.3122 1.24721 21.3122ZM1.24721 26.1311L13.706 26.1311C14.3997 26.1311 14.9555 25.5775 14.9555 24.8764C14.9555 24.1827 14.3997 23.6269 13.706 23.6269L1.24721 23.6269C0.553548 23.6269 0 24.1827 0 24.8764C0 25.5775 0.553548 26.1311 1.24721 26.1311Z"
                     fill="currentColor" fill-opacity="0.85" />
              <path d="M3.16995 16.4986L17.1418 16.4986C19.1745 16.4986 20.3192 15.3562 20.3192 13.3327L20.3192 3.16534C20.3192 1.15671 19.1745 0.00230491 17.1418 0.00230491L3.16995 0.00230491C1.15671 0.00230491 0 1.16648 0 3.16534L0 13.3327C0 15.3539 1.15441 16.4986 3.16995 16.4986ZM3.53267 13.8578C2.93618 13.8578 2.63848 13.5922 2.63848 12.9613L2.63848 3.54935C2.63848 2.91325 2.93618 2.64825 3.53267 2.64825L16.7963 2.64825C17.3755 2.64825 17.6732 2.91095 17.6732 3.54935L17.6732 12.9613C17.6732 13.5899 17.3755 13.8578 16.7963 13.8578ZM19.3989 12.7744L14.4367 8.12761C14.0708 7.79327 13.6216 7.63241 13.1775 7.63241C12.726 7.63241 12.3158 7.77605 11.9304 8.11784L8.1321 11.5232L6.58452 10.1347C6.23296 9.81245 5.83487 9.6539 5.43733 9.6539C5.02147 9.6539 4.72214 9.80499 4.36081 10.1198L1.28221 12.8285C1.29373 14.4639 2.32907 15.3943 4.188 15.3943L16.3728 15.3943C18.6148 15.3943 19.6973 14.4477 19.3989 12.7744Z"
                     fill="currentColor" fill-opacity="0.85" />
              <path d="M7.36462 8.6356C8.52551 8.6356 9.4934 7.67518 9.4934 6.49705C9.4934 5.34362 8.52551 4.37057 7.36462 4.37057C6.19396 4.37057 5.23068 5.34362 5.23068 6.49705C5.23068 7.67518 6.19396 8.6356 7.36462 8.6356Z"
                     fill="currentColor" fill-opacity="0.85" />
       </g>
</svg>