<?xml version="1.0" encoding="UTF-8"?>
<!--Generator: Apple Native CoreSVG 326-->
<!DOCTYPE svg PUBLIC "-//W3C//DTD SVG 1.1//EN" "http://www.w3.org/Graphics/SVG/1.1/DTD/svg11.dtd">
<svg version="1.1" xmlns="http://www.w3.org/2000/svg" xmlns:xlink="http://www.w3.org/1999/xlink"
       viewBox="0 0 14.3804 15.3742">
       <g>
              <rect height="15.3742" opacity="0" width="14.3804" x="0" y="0" />
              <path d="M1.9245 15.3742C3.03147 15.3742 3.64349 14.8804 3.94095 13.7143L4.46957 12.0129L9.44791 12.0129L9.98399 13.7143C10.274 14.8804 10.886 15.3742 11.9981 15.3742C13.2245 15.3742 14.0191 14.6439 14.0191 13.5214C14.0191 13.0645 13.9525 12.7068 13.7997 12.2555L10.3089 2.27406C9.78589 0.730846 8.73642 0.00285089 6.99231 0.00285089C5.35726 0.00285089 4.32041 0.736002 3.79221 2.27175L0.204411 12.4369C0.0740612 12.8359 0 13.2309 0 13.576C0 14.691 0.737761 15.3742 1.9245 15.3742ZM5.29127 9.12589L6.97048 3.51605L7.04915 3.51605L8.72089 9.12589Z"
                     fill="currentColor" fill-opacity="0.85" />
       </g>
</svg>