<?xml version="1.0" encoding="UTF-8"?>
<!--Generator: Apple Native CoreSVG 326-->
<!DOCTYPE svg PUBLIC "-//W3C//DTD SVG 1.1//EN" "http://www.w3.org/Graphics/SVG/1.1/DTD/svg11.dtd">
<svg version="1.1" xmlns="http://www.w3.org/2000/svg" xmlns:xlink="http://www.w3.org/1999/xlink"
       viewBox="0 0 18.145 21.7932">
       <g>
              <rect height="21.7932" opacity="0" width="18.145" x="0" y="0" />
              <path d="M5.5245 5.88825C5.09372 5.88825 4.78528 5.57005 4.78528 5.16626C4.78528 4.75501 5.09372 4.44427 5.5245 4.44427L12.4013 4.44427C12.8148 4.44427 13.1232 4.75501 13.1232 5.16626C13.1232 5.57005 12.8148 5.88825 12.4013 5.88825ZM5.5245 8.77833C5.09372 8.77833 4.78528 8.46013 4.78528 8.04142C4.78528 7.6474 5.09372 7.33666 5.5245 7.33666L9.48952 7.33666C9.91053 7.33666 10.2138 7.6474 10.2138 8.04142C10.2138 8.46013 9.91053 8.77833 9.48952 8.77833ZM5.64344 17.6276C4.86614 17.6276 4.4077 17.2059 4.4077 16.4143L4.4077 11.4326C4.4077 10.6335 4.86614 10.2193 5.64344 10.2193L12.1723 10.2193C12.9715 10.2193 13.3909 10.6335 13.3909 11.4326L13.3909 16.4143C13.3909 17.2059 12.9715 17.6276 12.1723 17.6276ZM0 18.1397C0 20.4717 1.31921 21.7932 3.63912 21.7932L14.1445 21.7932C16.4719 21.7932 17.7836 20.4717 17.7836 18.1397L17.7836 3.66096C17.7836 1.33128 16.4719 0.0051558 14.1445 0.0051558L3.63912 0.0051558C1.31921 0.0051558 0 1.33128 0 3.66096Z"
                     fill="currentColor" fill-opacity="0.85" />
       </g>
</svg>