<?xml version="1.0" encoding="UTF-8"?>
<!--Generator: Apple Native CoreSVG 326-->
<!DOCTYPE svg PUBLIC "-//W3C//DTD SVG 1.1//EN" "http://www.w3.org/Graphics/SVG/1.1/DTD/svg11.dtd">
<svg version="1.1" xmlns="http://www.w3.org/2000/svg" xmlns:xlink="http://www.w3.org/1999/xlink"
       viewBox="0 0 21.365 21.006">
       <g>
              <rect height="21.006" opacity="0" width="21.365" x="0" y="0" />
              <path d="M21.0037 10.5079C21.0037 16.3043 16.302 21.006 10.4981 21.006C4.70394 21.006 0 16.3043 0 10.5079C0 4.7137 4.70394 0.00976562 10.4981 0.00976562C16.302 0.00976562 21.0037 4.7137 21.0037 10.5079ZM12.4742 9.69599C12.7304 10.6237 12.7476 11.5078 12.5351 12.277C12.6327 12.3114 12.7522 12.3137 12.8424 12.343C13.5817 12.5211 14.0919 13.0772 14.1286 13.7384C14.1286 13.9314 13.9551 14.017 13.8305 13.8654C13.4031 13.4845 13.0521 13.3041 12.6006 13.1772C12.4839 13.1358 12.3501 13.0916 12.211 13.0795C11.8669 13.7883 11.2931 14.3651 10.5136 14.7758C10.9117 15.0877 11.4241 15.3365 12.0296 15.5025C14.1585 16.0591 15.7847 15.0826 16.3953 12.8434L17.1812 9.8631C17.4282 9.00779 17.0956 8.4483 16.238 8.2283L12.018 7.09088C11.925 7.05927 11.8222 7.04951 11.7538 7.03228ZM9.2321 5.99021L5.01213 7.11787C4.13729 7.34017 3.82194 7.8899 4.07639 8.76474L4.85995 11.7548C5.44819 13.994 7.07444 14.9705 9.21827 14.4041C11.3747 13.8205 12.3024 12.1626 11.697 9.91369L10.879 6.92595C10.6544 6.0781 10.1023 5.77021 9.2321 5.99021ZM10.3189 11.0396C10.2822 11.8915 9.70885 12.5797 8.80065 12.8066C7.91713 13.0433 7.05315 12.7233 6.59416 12.0305C6.49651 11.8967 6.59186 11.7645 6.76534 11.7669C7.27667 11.8082 7.95049 11.718 8.46862 11.5888C9.00166 11.4469 9.6192 11.1781 10.0455 10.8983C10.1868 10.7857 10.3459 10.8713 10.3189 11.0396ZM14.7197 10.4726C15.015 10.5582 15.1959 10.8684 15.1178 11.1539C15.015 11.4544 14.7197 11.6399 14.4267 11.5669C14.1263 11.4934 13.9505 11.1711 14.031 10.8684C14.1068 10.568 14.417 10.387 14.7197 10.4726ZM7.31397 9.77236C7.35819 9.90677 7.32889 9.99927 7.26053 10.0211C7.08705 10.0849 6.9308 9.90908 6.63038 9.99927C6.30065 10.0946 6.27881 10.302 6.12256 10.3215C6.06397 10.3336 6.00307 10.2606 5.95655 10.1532C5.83705 9.77236 6.07373 9.37427 6.45975 9.29384C6.83315 9.20365 7.19448 9.4208 7.31397 9.77236ZM9.93346 9.08646C9.98229 9.20365 9.93116 9.29384 9.86741 9.32545C9.71631 9.37197 9.54514 9.20365 9.25963 9.29384C8.93967 9.37197 8.89084 9.59427 8.74436 9.59888C8.69323 9.63334 8.62256 9.54545 8.57373 9.43056C8.46862 9.08646 8.71045 8.65908 9.07409 8.57119C9.44749 8.50798 9.83811 8.68838 9.93346 9.08646Z"
                     fill="currentColor" fill-opacity="0.85" />
       </g>
</svg>