<?xml version="1.0" encoding="UTF-8"?>
<!--Generator: Apple Native CoreSVG 326-->
<!DOCTYPE svg PUBLIC "-//W3C//DTD SVG 1.1//EN" "http://www.w3.org/Graphics/SVG/1.1/DTD/svg11.dtd">
<svg version="1.1" xmlns="http://www.w3.org/2000/svg" xmlns:xlink="http://www.w3.org/1999/xlink"
       viewBox="0 0 27.2193 27.5121">
       <g>
              <rect height="27.5121" opacity="0" width="27.2193" x="0" y="0" />
              <path d="M16.0614 3.50525L17.2771 8.00552C16.2365 9.22299 15.1244 10.5922 14.1111 11.9521C14.141 11.8026 14.1585 11.6482 14.1662 11.4906C14.1955 11.0833 13.8617 10.9167 13.4706 11.2004C12.8001 11.6779 11.7399 12.1454 10.5787 12.4568C9.42504 12.7711 8.26942 12.886 7.4479 12.8135C6.97114 12.7619 6.75454 13.0795 6.98376 13.4087C7.88911 14.8185 9.54817 15.3486 11.2227 14.9017C11.7973 14.7482 12.3121 14.4966 12.7426 14.1642C12.4934 14.7864 12.3367 15.4856 12.2929 16.2771C11.3734 16.5745 10.5303 17.1694 9.89616 18.052C9.53066 18.51 9.29373 19.07 9.1401 19.591C6.14922 19.2361 3.91197 17.0728 2.97694 13.5584L1.35124 7.44571C0.817644 5.48021 1.60108 4.13334 3.60619 3.59229L12.1861 1.29968C14.1912 0.760928 15.5427 1.53745 16.0614 3.50525ZM6.64239 8.0604C5.86969 8.27009 5.43078 9.05079 5.63301 9.77466C5.7209 10.0889 5.88637 10.2423 6.04953 10.2033C6.30805 10.1377 6.39309 9.71322 7.04223 9.53744C7.69883 9.36912 7.97403 9.69369 8.24977 9.61556C8.39801 9.5765 8.47614 9.35013 8.39571 9.03818C8.19579 8.31946 7.42254 7.85071 6.64239 8.0604ZM11.7777 6.68278C10.9999 6.89247 10.5684 7.68294 10.7609 8.39935C10.8436 8.7113 11.0217 8.87447 11.1872 8.8331C11.4382 8.76243 11.5233 8.34536 12.1799 8.16728C12.8365 7.9915 13.1117 8.30861 13.3776 8.24771C13.5356 8.20634 13.604 7.97481 13.5161 7.66286C13.3311 6.94415 12.5504 6.48286 11.7777 6.68278Z"
                     fill="currentColor" fill-opacity="0.85" />
              <path d="M21.8065 5.34944C20.9635 6.20614 18.4322 8.75218 15.9316 12.0772C18.3608 12.4098 20.4649 13.8114 21.6958 15.899C23.7859 12.2666 24.9521 9.05953 25.4322 7.864C26.5302 5.08492 23.5761 3.58289 21.8065 5.34944ZM16.7863 17.0366C17.7209 17.6575 18.4119 18.4675 18.8099 19.3365C19.3478 19.1004 19.7822 18.7613 20.1683 18.2872C20.2562 18.1901 20.3315 18.0832 20.4096 17.9838C19.6467 15.5959 17.0654 13.832 14.5328 14.0885C14.4702 14.1931 14.4001 14.3023 14.3472 14.404C14.0379 14.9527 13.8959 15.521 13.8908 16.0962C14.8264 16.1014 15.869 16.4306 16.7863 17.0366ZM9.27268 24.8705C11.5977 26.601 15.2145 26.297 16.9479 23.949C18.3659 22.0558 17.9843 19.8086 16.1469 18.424C14.4605 17.1904 12.308 17.3464 11.1419 18.9574C10.1132 20.3137 10.8395 21.4009 10.3211 22.0612C9.79984 22.7339 8.96363 22.5299 8.52594 23.1122C8.08606 23.7191 8.52163 24.3433 9.27268 24.8705Z"
                     fill="currentColor" fill-opacity="0.85" />
       </g>
</svg>