<?xml version="1.0" encoding="UTF-8"?>
<!--Generator: Apple Native CoreSVG 326-->
<!DOCTYPE svg PUBLIC "-//W3C//DTD SVG 1.1//EN" "http://www.w3.org/Graphics/SVG/1.1/DTD/svg11.dtd">
<svg version="1.1" xmlns="http://www.w3.org/2000/svg" xmlns:xlink="http://www.w3.org/1999/xlink"
       viewBox="0 0 24.9605 25.3506">
       <g>
              <rect height="25.3506" opacity="0" width="24.9605" x="0" y="0" />
              <path d="M15.0412 2.41411L16.6298 8.30383C15.9199 9.08909 15.1907 9.93694 14.5098 10.8016C14.4833 10.3006 14.3922 9.76624 14.2413 9.20328L12.6179 3.13937C12.4972 2.70483 12.1851 2.51862 11.773 2.6244L3.11875 4.94808C2.68937 5.06132 2.51522 5.3757 2.62616 5.81024L4.26448 11.8839C5.17159 15.2688 7.4266 16.674 10.669 15.8186C10.8966 15.7567 11.1144 15.6874 11.3196 15.609C10.9711 15.7899 10.6431 16.0395 10.3395 16.3554C9.56983 17.134 9.37736 17.9166 9.32076 18.5816C5.54013 18.833 2.88969 16.5484 1.809 12.5202L0.160915 6.39254C-0.372676 4.40005 0.430289 3.04287 2.42794 2.50182L11.1436 0.166072C13.1389-0.37498 14.5151 0.414156 15.0412 2.41411ZM12.0997 15.3151L11.8708 15.3778L12.108 15.2569ZM13.0599 10.9044C12.9961 12.4301 11.9299 13.6767 10.249 14.1306C8.57324 14.5769 7.02391 14.0306 6.2059 12.7392C5.94738 12.3664 6.21391 12.0464 6.63492 12.0952C7.5834 12.232 8.54461 12.0441 9.61707 11.7534C10.6798 11.4725 11.6094 11.1565 12.3602 10.5665C12.7054 10.3069 13.1041 10.4534 13.0599 10.9044ZM7.42551 8.40438C7.52086 8.73411 7.45535 8.9834 7.24281 9.03453C6.97399 9.10289 6.68387 8.80762 6.03649 8.9811C5.3891 9.14711 5.2943 9.56703 5.02778 9.63539C4.81524 9.68653 4.63485 9.50559 4.54926 9.17586C4.33442 8.39977 4.80547 7.59383 5.61141 7.38129C6.41735 7.16645 7.22559 7.62082 7.42551 8.40438ZM12.7174 6.98606C12.8053 7.32325 12.7346 7.56508 12.5295 7.63114C12.2607 7.69719 11.9631 7.38469 11.3232 7.56047C10.6758 7.73395 10.5736 8.14641 10.307 8.22223C10.0899 8.27336 9.9118 8.09242 9.83137 7.75524C9.61653 6.98145 10.0973 6.18297 10.8884 5.96813C11.6943 5.75328 12.5048 6.20996 12.7174 6.98606Z"
                     fill="currentColor" fill-opacity="0.85" />
              <path d="M7.31863 23.1568C9.18708 25.3012 13.8279 25.6146 16.1179 23.2871C17.3724 22.0337 17.8624 20.5138 17.571 19.0812C18.4172 18.682 19.1376 17.9829 19.8448 16.9879C21.5907 14.4966 23.1995 10.5464 24.4239 6.83551C25.2631 4.30033 22.8577 2.39409 20.6798 4.20904C20.1501 4.66287 15.9087 8.66077 13.3048 12.4176C12.6097 13.4349 12.1939 14.373 12.0997 15.3151C11.4563 15.465 10.8617 15.8119 10.3395 16.3554C8.74739 17.966 9.62508 19.5938 9.05394 20.1713C8.40941 20.8205 7.71429 20.6074 7.16063 21.1875C6.6943 21.6952 6.68508 22.4206 7.31863 23.1568ZM14.5822 15.5534C14.6126 15.0656 14.8562 14.5438 15.3549 13.8457C17.3298 11.0767 20.3326 8.0735 21.4474 6.9638C21.5814 6.81774 21.7551 6.93681 21.6838 7.11338C21.17 8.60018 19.7506 12.7632 17.7924 15.5598C17.2793 16.2889 16.8719 16.6739 16.3961 16.8692C16.1744 16.6089 15.9164 16.3658 15.6394 16.167C15.3039 15.909 14.9367 15.7074 14.5822 15.5534ZM17.7137 16.6407L19.7161 15.7157C19.3839 13.5039 16.8321 11.6694 14.6678 12.0592L14.286 14.3153C15.7977 13.942 17.5138 15.1371 17.7137 16.6407ZM14.603 18.3394C15.566 19.1852 15.4804 20.4745 14.4096 21.5931C13.2439 22.8254 11.5052 22.9974 10.3214 22.3477C10.2025 22.2828 10.1629 22.1759 10.2312 22.076C10.3335 21.9444 10.6244 21.8622 10.8021 21.6127C11.907 20.2429 11.2333 19.0881 12.0393 18.2222C12.7161 17.4971 13.6895 17.5437 14.603 18.3394Z"
                     fill="currentColor" fill-opacity="0.85" />
       </g>
</svg>