<?xml version="1.0" encoding="UTF-8"?>
<!--Generator: Apple Native CoreSVG 326-->
<!DOCTYPE svg PUBLIC "-//W3C//DTD SVG 1.1//EN" "http://www.w3.org/Graphics/SVG/1.1/DTD/svg11.dtd">
<svg version="1.1" xmlns="http://www.w3.org/2000/svg" xmlns:xlink="http://www.w3.org/1999/xlink"
       viewBox="0 0 22.1211 25.7698">
       <g>
              <rect height="25.7698" opacity="0" width="22.1211" x="0" y="0" />
              <path d="M16.5155 2.31258L16.4982 3.43884L17.3814 2.92684C17.7174 2.73559 18.0999 2.83149 18.2762 3.14278C18.4526 3.46613 18.3377 3.8291 17.9896 4.03988L16.4735 4.91484L16.4293 7.65674L18.7426 6.2611L18.7524 4.50086C18.7524 4.09423 19.0125 3.80247 19.3996 3.80993C19.7402 3.81739 20.0199 4.09423 20.0199 4.47157L20.0199 5.49841L21.0347 4.89106C21.3804 4.68259 21.8169 4.77849 22.0156 5.13399C22.2339 5.51418 22.1041 5.92137 21.7118 6.14191L20.7091 6.69758L21.5998 7.20212C21.926 7.39852 22.046 7.79594 21.8668 8.08715C21.6635 8.40075 21.281 8.47942 20.9427 8.29332L19.4094 7.4109L17.0444 8.72786L19.3801 10.0276L20.9134 9.14748C21.2689 8.94647 21.6388 9.03029 21.8301 9.36111C22.0041 9.66494 21.899 10.04 21.5779 10.2238L20.6723 10.7432L21.7095 11.3259C22.0621 11.512 22.2339 11.9513 22.0156 12.324C21.8198 12.6669 21.4005 12.7806 21.0106 12.5474L19.9929 11.9326L19.9906 12.9618C19.9906 13.3471 19.7109 13.636 19.3704 13.6286C18.9781 13.6188 18.7306 13.3173 18.7306 12.9399L18.7231 11.1699L16.4293 9.79899L16.4735 12.499L17.9873 13.3889C18.3428 13.5996 18.4749 13.9701 18.2739 14.286C18.0827 14.5898 17.7226 14.6857 17.3866 14.5019L16.4982 13.9847L16.5155 15.1357C16.5229 15.5722 16.2134 15.903 15.8016 15.903C15.3875 15.903 15.0803 15.5722 15.0877 15.1357L15.1124 13.9847L14.3227 14.4406C14.0935 14.0925 13.8292 13.7621 13.5328 13.4504C13.5606 13.4284 13.5911 13.408 13.6233 13.3889L15.1296 12.499L15.1739 9.79899L13.5091 10.7962L13.5095 9.31101L14.5564 8.72786L13.5099 8.14451L13.5103 6.65412L15.1739 7.65674L15.1296 4.91484L13.621 4.03988C13.273 3.8291 13.1506 3.46613 13.3269 3.14278C13.501 2.83149 13.8932 2.73559 14.2217 2.92684L15.1124 3.43884L15.0877 2.31258C15.0803 1.88356 15.3875 1.54528 15.8016 1.54528C16.2134 1.54528 16.5229 1.88356 16.5155 2.31258Z"
                     fill="currentColor" fill-opacity="0.85" />
              <path d="M8.05569 24.3689C11.3979 24.3689 14.1135 21.7257 14.1135 18.376C14.1135 16.7499 13.4931 15.3466 12.3361 14.2173C12.146 14.0317 12.1121 13.9369 12.1121 13.6738L12.1144 5.74844C12.1144 3.14678 10.4615 1.39394 8.05569 1.39394C5.60797 1.39394 3.96771 3.14678 3.96771 5.74844L3.97002 13.6738C3.97002 13.9369 3.93842 14.0392 3.74595 14.2173C2.56146 15.3093 1.96115 16.7499 1.96115 18.376C1.96115 21.7257 4.68649 24.3689 8.05569 24.3689ZM8.05569 21.8786C6.0669 21.8786 4.47104 20.2706 4.47104 18.2865C4.47104 16.9986 5.06213 15.9846 6.07491 15.3137C6.37018 15.1235 6.47991 14.9678 6.47991 14.5749L6.47991 5.81449C6.47991 4.665 7.11643 3.89637 8.05569 3.89637C8.9605 3.89637 9.59702 4.665 9.59702 5.81449L9.59702 14.5749C9.59702 14.9678 9.71421 15.1235 10.002 15.3137C11.0148 15.9846 11.6133 16.9986 11.6133 18.2865C11.6133 20.2706 10.0152 21.8786 8.05569 21.8786Z"
                     fill="currentColor" fill-opacity="0.85" />
              <path d="M8.03846 20.5602C9.29483 20.5602 10.3048 19.5503 10.3048 18.2842C10.3048 17.411 9.80956 16.6888 9.08745 16.3011C8.78987 16.1351 8.68245 16.0179 8.68245 15.5617L8.68245 13.3997C8.68245 12.931 8.39464 12.6357 8.03846 12.6357C7.68745 12.6357 7.39448 12.931 7.39448 13.3997L7.39448 15.5617C7.39448 16.0179 7.29452 16.1351 6.98948 16.3011C6.27483 16.6888 5.77963 17.411 5.77963 18.2842C5.77963 19.5503 6.78956 20.5602 8.03846 20.5602Z"
                     fill="currentColor" fill-opacity="0.85" />
       </g>
</svg>