<?xml version="1.0" encoding="UTF-8"?>
<!--Generator: Apple Native CoreSVG 326-->
<!DOCTYPE svg PUBLIC "-//W3C//DTD SVG 1.1//EN" "http://www.w3.org/Graphics/SVG/1.1/DTD/svg11.dtd">
<svg version="1.1" xmlns="http://www.w3.org/2000/svg" xmlns:xlink="http://www.w3.org/1999/xlink"
       viewBox="0 0 22.3568 22.9819">
       <g>
              <rect height="22.9819" opacity="0" width="22.3568" x="0" y="0" />
              <path d="M19.9308 11.7349C19.9308 12.1197 19.6592 12.4207 19.2428 12.4207L17.0117 12.4207C16.9521 12.4207 16.8955 12.4146 16.8427 12.4022L16.3425 11.9024C16.3298 11.8492 16.3236 11.793 16.3236 11.7349C16.3236 11.3553 16.5953 11.0543 17.0117 11.0543L19.2428 11.0543C19.6592 11.0543 19.9308 11.3553 19.9308 11.7349ZM19.9308 9.08033C19.9308 9.46514 19.6592 9.76611 19.2428 9.76611L17.0117 9.76611C16.5953 9.76611 16.3236 9.46514 16.3236 9.08033C16.3236 8.70299 16.5953 8.39971 17.0117 8.39971L19.2428 8.39971C19.6592 8.39971 19.9308 8.70299 19.9308 9.08033ZM19.9308 6.42572C19.9308 6.81052 19.6592 7.1115 19.2428 7.1115L17.0117 7.1115C16.5953 7.1115 16.3236 6.81052 16.3236 6.42572C16.3236 6.04092 16.5953 5.74741 17.0117 5.74741L19.2428 5.74741C19.6592 5.74741 19.9308 6.04092 19.9308 6.42572ZM19.9308 3.81587C19.9308 4.19322 19.6592 4.49419 19.2428 4.49419L17.0117 4.49419C16.5953 4.49419 16.3236 4.19322 16.3236 3.81587C16.3236 3.43107 16.5953 3.1301 17.0117 3.1301L19.2428 3.1301C19.6592 3.1301 19.9308 3.43107 19.9308 3.81587Z"
                     fill="currentColor" fill-opacity="0.85" />
              <path d="M9.43916 11.3838L9.43916 13.1809C9.43916 13.5739 9.32943 13.7296 9.03416 13.9197C8.02138 14.5907 7.43029 15.6047 7.43029 16.8925C7.43029 18.8767 9.02615 20.4846 11.0149 20.4846C12.9744 20.4846 14.5726 18.8767 14.5726 16.8925C14.5726 16.7539 14.5657 16.6184 14.5506 16.4868L16.8096 18.742C16.055 21.2128 13.7438 22.975 11.0149 22.975C7.64574 22.975 4.9204 20.3317 4.9204 16.9821C4.9204 15.3559 5.52071 13.9153 6.7052 12.8234C6.89766 12.6453 6.92927 12.543 6.92927 12.2799L6.92927 8.87804ZM15.0713 4.3545L15.0713 10.6322L12.5563 8.1191L12.5563 4.42056C12.5563 3.27106 11.9197 2.50243 11.0149 2.50243C10.0757 2.50243 9.43916 3.27106 9.43916 4.42056L9.43916 5.00436L7.17291 2.73983C7.70773 1.05251 9.11822 0 11.0149 0C13.4207 0 15.0713 1.75284 15.0713 4.3545Z"
                     fill="currentColor" fill-opacity="0.85" />
              <path d="M11.6417 13.5827L11.6417 14.1678C11.6417 14.6239 11.7491 14.7411 12.0467 14.9071C12.7688 15.2949 13.264 16.017 13.264 16.8902C13.264 18.1564 12.2541 19.1663 10.9977 19.1663C9.74881 19.1663 8.73888 18.1564 8.73888 16.8902C8.73888 16.017 9.23408 15.2949 9.94873 14.9071C10.2538 14.7411 10.3537 14.6239 10.3537 14.1678L10.3537 12.2968Z"
                     fill="currentColor" fill-opacity="0.85" />
              <path d="M19.5017 19.4595C19.8394 19.7898 20.3874 19.7972 20.7154 19.4595C21.0359 19.1218 21.0531 18.5836 20.7154 18.2458L4.12762 1.67532C3.79735 1.33759 3.24423 1.33528 2.90419 1.67532C2.58368 1.99583 2.58138 2.56102 2.90419 2.88899Z"
                     fill="currentColor" fill-opacity="0.85" />
       </g>
</svg>