<?xml version="1.0" encoding="UTF-8"?>
<!--Generator: Apple Native CoreSVG 326-->
<!DOCTYPE svg PUBLIC "-//W3C//DTD SVG 1.1//EN" "http://www.w3.org/Graphics/SVG/1.1/DTD/svg11.dtd">
<svg version="1.1" xmlns="http://www.w3.org/2000/svg" xmlns:xlink="http://www.w3.org/1999/xlink"
       viewBox="0 0 21.365 21.006">
       <g>
              <rect height="21.006" opacity="0" width="21.365" x="0" y="0" />
              <path d="M10.4981 20.9962C16.302 20.9962 21.0037 16.2946 21.0037 10.4981C21.0037 4.70163 16.302 0 10.4981 0C4.70163 0 0 4.70163 0 10.4981C0 16.2946 4.70163 20.9962 10.4981 20.9962ZM10.4981 17.9484C6.37829 17.9484 3.04785 14.6179 3.04785 10.4981C3.04785 6.37829 6.37829 3.04785 10.4981 3.04785C14.6179 3.04785 17.9558 6.37829 17.9558 10.4981C17.9558 14.6179 14.6179 17.9484 10.4981 17.9484Z"
                     fill="currentColor" fill-opacity="0.85" />
              <path d="M8.88084 16.505C10.4146 16.505 11.6404 15.3015 11.6404 13.7775C11.6404 13.0238 11.3681 12.3878 10.8252 11.861C10.7424 11.7806 10.7304 11.7369 10.7304 11.6128L10.7327 7.94461C10.7327 6.76079 9.97677 5.96122 8.88084 5.96122C7.77514 5.96122 7.02901 6.76079 7.02901 7.94461L7.02901 11.6128C7.02901 11.7369 7.0244 11.7881 6.91467 11.861C6.37404 12.3655 6.104 13.0238 6.104 13.7775C6.104 15.3015 7.34478 16.505 8.88084 16.505ZM8.88084 15.3783C7.97075 15.3783 7.24282 14.6555 7.24282 13.7328C7.24282 13.1405 7.51341 12.6762 7.98337 12.3671C8.12185 12.2821 8.16552 12.2119 8.16552 12.0246L8.16552 7.98137C8.16552 7.4482 8.45279 7.10234 8.88084 7.10234C9.30428 7.10234 9.59154 7.4482 9.59154 7.98137L9.59154 12.0246C9.59154 12.2119 9.64268 12.2821 9.78115 12.3671C10.2437 12.6762 10.524 13.1405 10.524 13.7328C10.524 14.6555 9.78401 15.3783 8.88084 15.3783ZM8.87853 14.7859C9.46459 14.7859 9.92655 14.3142 9.92655 13.7305C9.92655 13.3243 9.70303 12.9962 9.35256 12.8163C9.21869 12.7382 9.17732 12.6848 9.17732 12.4728L9.17732 11.5886C9.17732 11.3697 9.04115 11.2335 8.87853 11.2335C8.70845 11.2335 8.57458 11.3697 8.57458 11.5886L8.57458 12.4728C8.57458 12.6848 8.53322 12.7382 8.38728 12.8163C8.0638 12.9962 7.83282 13.3243 7.83282 13.7305C7.83282 14.3165 8.29478 14.7859 8.87853 14.7859ZM12.5912 12.5249C12.8531 12.5249 13.0495 12.3072 13.0421 12.0378L13.0323 11.5361L13.4174 11.7516C13.6402 11.8665 13.8602 11.8102 13.9803 11.6218C14.1026 11.4116 14.0222 11.1813 13.8091 11.0492L13.0174 10.5838L12.9979 9.26564L14.1092 9.94311L14.1092 10.8543C14.1092 11.0938 14.2758 11.2851 14.5205 11.2874C14.7307 11.3023 14.9196 11.1139 14.9196 10.8664L14.9219 10.4256L15.3679 10.6951C15.6252 10.857 15.8796 10.7703 16.0043 10.5624C16.1415 10.32 16.0387 10.0604 15.8136 9.93061L15.3579 9.66397L15.7406 9.43869C15.9439 9.31635 16.0146 9.08373 15.902 8.88787C15.7797 8.67994 15.5424 8.63573 15.3294 8.75807L14.5302 9.20389L13.3919 8.58041L14.5474 7.94716L15.3317 8.39529C15.5471 8.51017 15.7917 8.46825 15.9118 8.27525C16.0439 8.07708 15.9537 7.83701 15.7429 7.71697L15.3699 7.48193L15.8159 7.23481C16.0583 7.09294 16.1415 6.84079 16.0043 6.61048C15.8722 6.38763 15.6028 6.31412 15.38 6.45369L14.9317 6.71802L14.9317 6.27954C14.9317 6.03486 14.7577 5.86368 14.5325 5.85622C14.2953 5.85622 14.1213 6.03486 14.1213 6.29907L14.119 7.21025L12.9979 7.89518L13.0174 6.55977L13.8016 6.09442C14.0216 5.96231 14.0928 5.73946 13.9826 5.53899C13.87 5.3236 13.6253 5.27938 13.4099 5.39942L13.0323 5.61724L13.0421 5.12301C13.0495 4.85364 12.8531 4.63825 12.5912 4.63825C12.3293 4.63825 12.1381 4.8611 12.1455 5.12301L12.153 5.61724L11.7777 5.39942C11.5623 5.27708 11.3274 5.32591 11.2074 5.53153C11.085 5.732 11.1631 5.96231 11.386 6.09442L12.1777 6.55977L12.1972 7.89518L11.3967 7.3924C11.4559 7.73298 11.4754 7.88935 11.4777 8.39868L11.7957 8.58041L11.4777 8.75237L11.4777 9.70928L12.1972 9.26564L12.1777 10.5838L11.5071 10.9774C11.5984 11.2152 11.7386 11.4691 11.892 11.6907L12.153 11.5338L12.1455 12.0378C12.1381 12.3244 12.3293 12.5249 12.5912 12.5249Z"
                     fill="currentColor" fill-opacity="0.85" />
       </g>
</svg>