<?xml version="1.0" encoding="UTF-8"?>
<!--Generator: Apple Native CoreSVG 326-->
<!DOCTYPE svg PUBLIC "-//W3C//DTD SVG 1.1//EN" "http://www.w3.org/Graphics/SVG/1.1/DTD/svg11.dtd">
<svg version="1.1" xmlns="http://www.w3.org/2000/svg" xmlns:xlink="http://www.w3.org/1999/xlink"
       viewBox="0 0 22.3308 26.605">
       <g>
              <rect height="26.605" opacity="0" width="22.3308" x="0" y="0" />
              <path d="M6.509 1.95828L6.509 2.69677L6.8639 2.44954C7.16433 2.19399 7.53191 2.21759 7.753 2.51856C7.94425 2.80747 7.86897 3.15497 7.56569 3.34336L6.509 4.00579L6.509 4.55509L6.38666 6.04213L7.61519 5.1958L8.08691 4.92115L8.09952 4.60661L8.09952 6.4428L6.93341 6.99037L8.09952 7.5295L8.09952 9.37241L8.08691 9.05729L7.61749 8.78263L6.38666 7.94376L6.509 9.41819L6.509 9.97495L7.56569 10.6299C7.86897 10.8183 7.94425 11.1658 7.753 11.4622C7.52445 11.7632 7.16433 11.7919 6.8639 11.5312L6.509 11.2765L6.509 12.015C6.509 12.4216 6.24193 12.7134 5.84506 12.7134C5.4528 12.7134 5.18342 12.4193 5.18342 12.015L5.18342 11.2742L4.82622 11.5312C4.52349 11.7747 4.16052 11.7632 3.93713 11.4622C3.74072 11.1658 3.816 10.8183 4.11928 10.6299L5.18342 9.97495L5.18342 9.41819L5.30577 7.9363L4.07209 8.77517L3.59806 9.04982L3.54814 10.3041C3.53322 10.6614 3.26615 10.9032 2.9158 10.8659C2.54592 10.8361 2.34315 10.5317 2.42521 10.1475L2.46767 9.71552L1.8286 10.081C1.47079 10.2918 1.08599 10.2011 0.892435 9.85303C0.69142 9.51014 0.806849 9.11788 1.16466 8.92202L1.78881 8.55651L1.40637 8.37412C1.02903 8.25056 0.861379 7.91744 1.01532 7.58431C1.1595 7.25064 1.51161 7.14729 1.83212 7.311L2.92666 7.89827L3.40068 7.61385L4.75155 6.99037L3.40068 6.35712L2.92666 6.07501L1.83212 6.66974C1.51161 6.82599 1.17442 6.72033 1.01302 6.40158C0.859074 6.05123 1.02388 5.72787 1.40637 5.60432L1.78881 5.41447L1.1572 5.05872C0.806849 4.8554 0.696576 4.4706 0.892435 4.13517C1.08368 3.79689 1.47079 3.69408 1.8286 3.88994L2.46767 4.25775L2.42521 3.82582C2.35061 3.44903 2.55338 3.13489 2.9158 3.11251C3.26615 3.0752 3.53322 3.31188 3.54814 3.67661L3.59806 4.92115L4.07209 5.1981L5.30577 6.04213L5.18342 4.55509L5.18342 4.00579L4.11928 3.34106C3.80853 3.14751 3.73326 2.80001 3.93713 2.51856C4.16052 2.21759 4.52349 2.1963 4.82622 2.44954L5.18342 2.69908L5.18342 1.95828C5.18342 1.55165 5.4528 1.26505 5.84506 1.26505C6.24193 1.26505 6.509 1.54934 6.509 1.95828Z"
                     fill="currentColor" fill-opacity="0.85" />
              <path d="M18.6058 21.9311C19.4651 22.548 20.0011 22.8359 20.755 22.8359L20.8412 22.8359C21.4832 22.8359 21.9971 23.3499 21.9971 23.9844C21.9971 24.6264 21.4832 25.138 20.8412 25.138L20.755 25.138C17.3948 25.138 17.1708 23.0959 15.7678 23.0959C14.3792 23.0959 14.0339 25.138 11.0023 25.138C7.97069 25.138 7.62538 23.0959 6.22932 23.0959C4.8338 23.0959 4.60228 25.138 1.24206 25.138L1.15592 25.138C0.513939 25.138 0 24.6264 0 23.9844C0 23.3499 0.513939 22.8359 1.15592 22.8359L1.24206 22.8359C1.99601 22.8359 2.53203 22.548 3.39874 21.9311C4.04843 21.4497 4.97374 20.7938 6.22932 20.7938C7.50158 20.7938 8.42919 21.459 9.07888 21.9426C9.78255 22.4677 10.2502 22.8359 11.0023 22.8359C11.7469 22.8359 12.222 22.4677 12.9182 21.9426C13.5754 21.459 14.4955 20.7938 15.7678 20.7938C17.0308 20.7938 17.9487 21.4497 18.6058 21.9311ZM5.89195 16.6111C5.89195 17.3178 6.03391 17.9905 6.29108 18.602C6.27121 18.5997 6.25038 18.5992 6.22932 18.5992C4.8338 18.5992 4.60228 20.6413 1.24206 20.6413L1.15592 20.6413C0.513939 20.6413 0 20.1297 0 19.4877C0 18.8532 0.513939 18.3392 1.15592 18.3392L1.24206 18.3392C1.99601 18.3392 2.53203 18.0513 3.39874 17.4344C3.99055 16.996 4.81105 16.4126 5.9025 16.3138ZM18.6058 17.4344C19.4651 18.0513 20.0011 18.3392 20.755 18.3392L20.8412 18.3392C21.4832 18.3392 21.9971 18.8532 21.9971 19.4877C21.9971 20.1297 21.4832 20.6413 20.8412 20.6413L20.755 20.6413C17.3948 20.6413 17.1708 18.5992 15.7678 18.5992C15.7508 18.5992 15.7339 18.5995 15.7179 18.6015C15.9752 17.9901 16.1172 17.3176 16.1172 16.6111C16.1172 16.5107 16.1142 16.4116 16.1067 16.3148C17.1975 16.4163 18.0091 16.9973 18.6058 17.4344Z"
                     fill="currentColor" fill-opacity="0.85" />
              <path d="M11.0023 20.2763C13.023 20.2763 14.6548 18.6468 14.6548 16.6111C14.6548 15.1896 13.7979 14.1338 12.8655 13.4871C12.5983 13.3141 12.4472 13.0458 12.4472 12.6872L12.4472 2.90506C12.4472 2.11253 11.792 1.45496 11.0046 1.45496C10.2195 1.45496 9.55448 2.11253 9.55448 2.90506L9.55448 12.6872C9.55448 13.0412 9.40854 13.3072 9.13674 13.4824C8.2067 14.1292 7.3469 15.1896 7.3469 16.6111C7.3469 18.6468 8.97643 20.2763 11.0023 20.2763ZM14.8274 4.24556L17.051 4.24556C17.4772 4.24556 17.7466 3.94459 17.7466 3.56725C17.7466 3.18244 17.4772 2.87916 17.051 2.87916L14.8274 2.87916C14.4036 2.87916 14.1319 3.18244 14.1319 3.56725C14.1319 3.94459 14.4036 4.24556 14.8274 4.24556ZM14.8274 6.86287L17.051 6.86287C17.4772 6.86287 17.7466 6.55959 17.7466 6.17479C17.7466 5.79745 17.4772 5.49647 17.051 5.49647L14.8274 5.49647C14.4036 5.49647 14.1319 5.79745 14.1319 6.17479C14.1319 6.55959 14.4036 6.86287 14.8274 6.86287ZM14.8274 9.51518L17.051 9.51518C17.4772 9.51518 17.7466 9.2142 17.7466 8.8294C17.7466 8.45206 17.4772 8.15108 17.051 8.15108L14.8274 8.15108C14.4036 8.15108 14.1319 8.45206 14.1319 8.8294C14.1319 9.2142 14.4036 9.51518 14.8274 9.51518ZM14.8274 12.1698L17.051 12.1698C17.4772 12.1698 17.7466 11.8688 17.7466 11.484C17.7466 11.1067 17.4772 10.8057 17.051 10.8057L14.8274 10.8057C14.4036 10.8057 14.1319 11.1067 14.1319 11.484C14.1319 11.8688 14.4036 12.1698 14.8274 12.1698Z"
                     fill="currentColor" fill-opacity="0.85" />
       </g>
</svg>