<?xml version="1.0" encoding="UTF-8"?>
<!--Generator: Apple Native CoreSVG 326-->
<!DOCTYPE svg PUBLIC "-//W3C//DTD SVG 1.1//EN" "http://www.w3.org/Graphics/SVG/1.1/DTD/svg11.dtd">
<svg version="1.1" xmlns="http://www.w3.org/2000/svg" xmlns:xlink="http://www.w3.org/1999/xlink"
       viewBox="0 0 21.365 21.006">
       <g>
              <rect height="21.006" opacity="0" width="21.365" x="0" y="0" />
              <path d="M21.0037 10.5079C21.0037 16.3043 16.302 21.006 10.4981 21.006C4.70394 21.006 0 16.3043 0 10.5079C0 4.7137 4.70394 0.00976562 10.4981 0.00976562C16.302 0.00976562 21.0037 4.7137 21.0037 10.5079ZM6.00265 7.01524L6.00265 10.9448C6.00265 11.0764 5.99057 11.1052 5.88831 11.193C5.30346 11.7468 5.02366 12.4396 5.02366 13.245C5.02366 14.8724 6.3408 16.1522 7.98537 16.1522C9.62017 16.1522 10.9299 14.8724 10.9299 13.245C10.9299 12.4396 10.6403 11.7618 10.0554 11.193C9.98017 11.1201 9.96064 11.0764 9.96064 10.9448L9.96294 7.01524C9.96294 5.74759 9.16283 4.89119 7.98537 4.89119C6.80561 4.89119 6.00265 5.74759 6.00265 7.01524ZM13.3033 7.51935C12.086 7.51935 11.1997 8.2656 11.1997 9.39502L11.1997 11.5155C11.1997 11.7866 11.4317 12.0336 11.7057 12.0336C11.9768 12.0336 12.2066 11.7866 12.2066 11.5155L12.2066 9.61908C12.2066 9.54381 12.2721 9.49553 12.3302 9.49553C12.4152 9.49553 12.4761 9.54381 12.4761 9.61908L12.4761 15.4111C12.4761 15.7213 12.7105 15.9609 13.0184 15.9609C13.3136 15.9609 13.5658 15.7139 13.5658 15.4111L13.5658 11.8711C13.5658 11.801 13.6238 11.7401 13.6917 11.7401C13.7744 11.7401 13.8324 11.801 13.8324 11.8711L13.8324 15.4111C13.8324 15.7139 14.072 15.9609 14.3724 15.9609C14.6803 15.9609 14.9221 15.7213 14.9221 15.4111L14.9221 9.61908C14.9221 9.54381 14.9704 9.49553 15.0457 9.49553C15.1261 9.49553 15.1767 9.54381 15.1767 9.61908L15.1767 11.5155C15.1767 11.7866 15.4162 12.0336 15.6827 12.0336C15.9613 12.0336 16.1785 11.7866 16.1785 11.5155L16.1785 9.39502C16.1785 8.2656 15.307 7.51935 14.0823 7.51935ZM8.72537 7.052L8.72537 11.3813C8.72537 11.5761 8.79143 11.656 8.92991 11.7508C9.42917 12.0771 9.72444 12.5586 9.72444 13.1928C9.72444 14.1747 8.93506 14.9491 7.97045 14.9491C7.00869 14.9491 6.22908 14.1747 6.22908 13.1928C6.22908 12.5586 6.52435 12.0771 7.0213 11.7508C7.15978 11.656 7.21092 11.5761 7.21092 11.3813L7.21092 7.052C7.21092 6.49414 7.51541 6.12129 7.97045 6.12129C8.4358 6.12129 8.72537 6.49414 8.72537 7.052ZM7.64697 10.7019L7.64697 11.8616C7.64697 12.0857 7.6033 12.1345 7.4499 12.227C7.09943 12.4097 6.86099 12.7648 6.86099 13.1905C6.86099 13.8185 7.34994 14.3224 7.96815 14.3224C8.58866 14.3224 9.08507 13.8162 9.08507 13.1905C9.08507 12.7648 8.85178 12.4143 8.48409 12.227C8.33299 12.1368 8.29162 12.0857 8.29162 11.8616L8.29162 10.7019C8.29162 10.5341 8.14799 10.3807 7.97045 10.3807C7.79807 10.3807 7.64697 10.5341 7.64697 10.7019ZM7.64697 9.48618C7.64697 9.66603 7.79807 9.81427 7.97045 9.81427C8.14799 9.81427 8.29162 9.66603 8.29162 9.48618C8.29162 9.31325 8.14799 9.16501 7.97045 9.16501C7.79807 9.16501 7.64697 9.31325 7.64697 9.48618ZM7.64697 8.27743C7.64697 8.45497 7.79807 8.60091 7.97045 8.60091C8.14799 8.60091 8.29162 8.45497 8.29162 8.27743C8.29162 8.09989 8.14799 7.95626 7.97045 7.95626C7.79807 7.95626 7.64697 8.09989 7.64697 8.27743ZM7.64697 7.0543C7.64697 7.23415 7.79807 7.38009 7.97045 7.38009C8.14799 7.38009 8.29162 7.23415 8.29162 7.0543C8.29162 6.88653 8.14799 6.73313 7.97045 6.73313C7.79807 6.73313 7.64697 6.88653 7.64697 7.0543ZM12.5422 5.86653C12.5422 6.50361 13.0695 7.01603 13.6917 7.01603C14.3236 7.01603 14.8337 6.50361 14.8337 5.86653C14.8337 5.24208 14.3236 4.73942 13.6917 4.73942C13.0695 4.73942 12.5422 5.24208 12.5422 5.86653Z"
                     fill="currentColor" fill-opacity="0.85" />
       </g>
</svg>