<?xml version="1.0" encoding="UTF-8"?>
<!--Generator: Apple Native CoreSVG 326-->
<!DOCTYPE svg PUBLIC "-//W3C//DTD SVG 1.1//EN" "http://www.w3.org/Graphics/SVG/1.1/DTD/svg11.dtd">
<svg version="1.1" xmlns="http://www.w3.org/2000/svg" xmlns:xlink="http://www.w3.org/1999/xlink"
       viewBox="0 0 21.365 21.006">
       <g>
              <rect height="21.006" opacity="0" width="21.365" x="0" y="0" />
              <path d="M21.0037 10.5079C21.0037 16.3043 16.302 21.006 10.4981 21.006C4.70394 21.006 0 16.3043 0 10.5079C0 4.7137 4.70394 0.00976562 10.4981 0.00976562C16.302 0.00976562 21.0037 4.7137 21.0037 10.5079ZM6.75053 7.8045L6.75053 11.7036C6.75053 11.8328 6.74592 11.8937 6.6362 11.9667C6.05366 12.5056 5.77385 13.2059 5.77385 14.0089C5.77385 15.6363 7.091 16.9236 8.73557 16.9236C10.3704 16.9236 11.6801 15.6363 11.6801 14.0089C11.6801 13.2059 11.383 12.528 10.8056 11.9667C10.7206 11.8788 10.7085 11.8328 10.7085 11.7036L10.7108 7.8045C10.7108 6.53915 9.8981 5.68044 8.73557 5.68044C7.54604 5.68044 6.75053 6.53915 6.75053 7.8045ZM9.48072 7.84356L9.48072 12.1378C9.48072 12.3423 9.54678 12.4199 9.68756 12.5072C10.1845 12.8433 10.4821 13.33 10.4821 13.9567C10.4821 14.9409 9.69041 15.7056 8.73557 15.7056C7.76404 15.7056 6.99419 14.9409 6.99419 13.9567C6.99419 13.33 7.282 12.8433 7.76919 12.5072C7.91744 12.4199 7.97603 12.3423 7.97603 12.1378L7.97603 7.84356C7.97603 7.27824 8.27306 6.91055 8.73557 6.91055C9.18369 6.91055 9.48072 7.27824 9.48072 7.84356ZM8.41209 8.21817L8.41209 12.6203C8.41209 12.8444 8.37072 12.903 8.20755 12.9834C7.85939 13.1782 7.61865 13.5235 7.61865 13.9544C7.61865 14.5847 8.10759 15.0863 8.7258 15.0863C9.34631 15.0863 9.84272 14.5824 9.84272 13.9544C9.84272 13.5235 9.60944 13.1805 9.23944 12.9834C9.09811 12.903 9.05674 12.8444 9.05674 12.6203L9.05674 8.21817C9.05674 7.9895 8.90334 7.84586 8.7258 7.84586C8.55342 7.84586 8.41209 7.9895 8.41209 8.21817ZM13.6299 11.2669C13.4174 11.4771 13.4225 11.8338 13.6448 12.0515L14.2488 12.6629C14.459 12.8783 14.8186 12.8806 15.046 12.6629C15.2534 12.4578 15.2534 12.0839 15.0334 11.8685L14.4243 11.2669C14.2043 11.0319 13.8499 11.0319 13.6299 11.2669ZM11.1918 6.44701C11.3939 6.83752 11.5001 7.30493 11.5001 7.8045L11.4978 11.5758C12.8473 11.5328 13.9286 10.3931 13.9286 9.01143C13.9286 7.57412 12.7992 6.42748 11.3768 6.42748C11.3159 6.42748 11.2475 6.42979 11.1918 6.44701ZM15.1189 8.42956C14.8058 8.42956 14.5565 8.69838 14.5565 9.01143C14.5565 9.29979 14.8058 9.56115 15.1189 9.56115L15.978 9.56115C16.2858 9.56115 16.5426 9.29979 16.5426 8.99651C16.5426 8.69092 16.2858 8.42956 15.978 8.42956ZM14.2488 5.35247L13.6448 5.9415C13.4151 6.16897 13.4174 6.52338 13.6299 6.75084C13.8551 6.96853 14.2141 6.96107 14.4266 6.74338L15.0483 6.13943C15.266 5.92173 15.2683 5.55009 15.046 5.33755C14.8186 5.11755 14.4814 5.13247 14.2488 5.35247ZM10.8196 4.38841L10.8196 5.24232C10.8196 5.54791 11.0689 5.81443 11.3768 5.81443C11.687 5.81443 11.9414 5.54791 11.9414 5.24232L11.9414 4.38841C11.9414 4.07767 11.687 3.8186 11.3768 3.8186C11.0689 3.8186 10.8196 4.07767 10.8196 4.38841Z"
                     fill="currentColor" fill-opacity="0.85" />
       </g>
</svg>