<?xml version="1.0" encoding="UTF-8"?>
<!--Generator: Apple Native CoreSVG 326-->
<!DOCTYPE svg PUBLIC "-//W3C//DTD SVG 1.1//EN" "http://www.w3.org/Graphics/SVG/1.1/DTD/svg11.dtd">
<svg version="1.1" xmlns="http://www.w3.org/2000/svg" xmlns:xlink="http://www.w3.org/1999/xlink"
       viewBox="0 0 21.365 21.006">
       <g>
              <rect height="21.006" opacity="0" width="21.365" x="0" y="0" />
              <path d="M21.0037 10.5079C21.0037 16.3043 16.302 21.006 10.4981 21.006C4.70394 21.006 0 16.3043 0 10.5079C0 4.7137 4.70394 0.00976562 10.4981 0.00976562C16.302 0.00976562 21.0037 4.7137 21.0037 10.5079ZM6.74538 7.79473L6.74538 11.6938C6.74538 11.8231 6.74077 11.8742 6.6385 11.9569C6.0485 12.4935 5.7687 13.1961 5.7687 13.9992C5.7687 15.6265 7.08584 16.9064 8.73041 16.9064C10.3629 16.9064 11.6726 15.6265 11.6726 13.9992C11.6726 13.1961 11.383 12.5084 10.7982 11.9569C10.7229 11.8668 10.7034 11.8231 10.7034 11.6938L10.7057 7.79473C10.7057 6.52938 9.89294 5.67068 8.73041 5.67068C7.54834 5.67068 6.74538 6.52938 6.74538 7.79473ZM9.47557 7.83149L9.47557 12.128C9.47557 12.3251 9.54162 12.4026 9.68241 12.4975C10.1794 12.8238 10.4769 13.3202 10.4769 13.947C10.4769 14.9311 9.69272 15.6958 8.73041 15.6958C7.76634 15.6958 6.98904 14.9311 6.98904 13.947C6.98904 13.3202 7.27685 12.8238 7.7715 12.4975C7.91974 12.4026 7.97087 12.3251 7.97087 12.128L7.97087 7.83149C7.97087 7.26617 8.26791 6.90078 8.73041 6.90078C9.186 6.90078 9.47557 7.26617 9.47557 7.83149ZM8.40463 11.6673L8.40463 12.6106C8.40463 12.8323 8.36326 12.8858 8.2024 12.9737C7.85423 13.161 7.61349 13.5137 7.61349 13.9446C7.61349 14.5652 8.10013 15.0765 8.7281 15.0765C9.34116 15.0765 9.83526 14.5629 9.83526 13.9446C9.83526 13.5137 9.60198 13.1633 9.23428 12.9737C9.09295 12.8858 9.05158 12.8323 9.05158 12.6106L9.05158 11.6673C9.05158 11.4386 8.89818 11.2852 8.7281 11.2852C8.54826 11.2852 8.40463 11.4386 8.40463 11.6673ZM12.2047 4.77564L12.2196 5.30431L11.8196 5.07158C11.5945 4.94693 11.3349 4.99576 11.2074 5.21115C11.0776 5.434 11.1631 5.67407 11.3935 5.81364L12.2368 6.30599L12.2713 7.72752L11.4214 7.20006C11.4806 7.56017 11.5001 7.72631 11.5024 8.28271L11.8376 8.45697L11.5024 8.64385L11.5024 9.66736L12.2713 9.19904L12.2368 10.5982L11.5243 11.0165C11.6306 11.2715 11.7806 11.538 11.9414 11.7769L12.2196 11.6102L12.2047 12.1532C12.1972 12.445 12.4057 12.6627 12.6825 12.6627C12.9617 12.6627 13.1753 12.4352 13.1678 12.1532L13.1506 11.6125L13.5678 11.8378C13.8079 11.9699 14.0376 11.9084 14.1651 11.7103C14.3024 11.4828 14.2145 11.2353 13.9842 11.0957L13.1431 10.5982L13.1236 9.19904L14.2964 9.91842L14.2964 10.8813C14.2964 11.138 14.4727 11.3563 14.7398 11.3586C14.9672 11.366 15.1637 11.173 15.1637 10.9008L15.166 10.4256L15.6389 10.7244C15.9134 10.884 16.1926 10.7899 16.3247 10.5796C16.4792 10.3126 16.3591 10.0403 16.1265 9.90823L15.6363 9.61459L16.0438 9.37955C16.2643 9.24975 16.335 8.99244 16.2149 8.79143C16.0828 8.57373 15.8307 8.51975 15.6004 8.64955L14.7496 9.12237L13.5423 8.45697L14.7593 7.78927L15.6027 8.26724C15.8353 8.39189 16.0949 8.34998 16.2247 8.13974C16.3643 7.9192 16.2741 7.67681 16.0461 7.53955L15.6484 7.29474L16.1288 7.02294C16.3861 6.87361 16.4792 6.614 16.3247 6.36646C16.1851 6.11892 15.8985 6.05287 15.6659 6.1999L15.1832 6.474L15.1832 6.00853C15.1832 5.75123 15.0017 5.57029 14.7519 5.56283C14.5072 5.56283 14.3159 5.75123 14.3159 6.03037L14.3062 7.00814L13.1236 7.72752L13.1431 6.30599L13.9767 5.81364C14.214 5.67407 14.2926 5.44146 14.1674 5.21861C14.0623 4.99345 13.7929 4.94923 13.5529 5.07158L13.1506 5.30431L13.1678 4.77564C13.1753 4.48904 12.9617 4.25872 12.6825 4.25872C12.4057 4.25872 12.1972 4.4965 12.2047 4.77564Z"
                     fill="currentColor" fill-opacity="0.85" />
       </g>
</svg>