<?xml version="1.0" encoding="UTF-8"?>
<!--Generator: Apple Native CoreSVG 326-->
<!DOCTYPE svg PUBLIC "-//W3C//DTD SVG 1.1//EN" "http://www.w3.org/Graphics/SVG/1.1/DTD/svg11.dtd">
<svg version="1.1" xmlns="http://www.w3.org/2000/svg" xmlns:xlink="http://www.w3.org/1999/xlink"
       viewBox="0 0 21.365 21.006">
       <g>
              <rect height="21.006" opacity="0" width="21.365" x="0" y="0" />
              <path d="M10.4981 20.9962C16.302 20.9962 21.0037 16.2946 21.0037 10.4981C21.0037 4.70163 16.302 0 10.4981 0C4.70163 0 0 4.70163 0 10.4981C0 16.2946 4.70163 20.9962 10.4981 20.9962ZM10.4981 17.9484C6.37829 17.9484 3.04785 14.6179 3.04785 10.4981C3.04785 6.37829 6.37829 3.04785 10.4981 3.04785C14.6179 3.04785 17.9558 6.37829 17.9558 10.4981C17.9558 14.6179 14.6179 17.9484 10.4981 17.9484Z"
                     fill="currentColor" fill-opacity="0.85" />
              <path d="M8.88084 16.505C10.4146 16.505 11.6404 15.3015 11.6404 13.7775C11.6404 13.0238 11.3681 12.3878 10.8252 11.861C10.7424 11.7806 10.7304 11.7369 10.7304 11.6128L10.7327 7.94461C10.7327 6.76079 9.97677 5.96122 8.88084 5.96122C7.77514 5.96122 7.02901 6.76079 7.02901 7.94461L7.02901 11.6128C7.02901 11.7369 7.0244 11.7881 6.91467 11.861C6.37404 12.3655 6.104 13.0238 6.104 13.7775C6.104 15.3015 7.34478 16.505 8.88084 16.505ZM8.88084 15.3783C7.97075 15.3783 7.24282 14.6555 7.24282 13.7328C7.24282 13.1405 7.51341 12.6762 7.98337 12.3671C8.12185 12.2821 8.16552 12.2119 8.16552 12.0246L8.16552 7.98137C8.16552 7.4482 8.45279 7.10234 8.88084 7.10234C9.30428 7.10234 9.59154 7.4482 9.59154 7.98137L9.59154 12.0246C9.59154 12.2119 9.64268 12.2821 9.78115 12.3671C10.2437 12.6762 10.524 13.1405 10.524 13.7328C10.524 14.6555 9.78401 15.3783 8.88084 15.3783ZM8.87853 14.7859C9.46459 14.7859 9.92655 14.3142 9.92655 13.7305C9.92655 13.3243 9.70303 12.9962 9.35256 12.8163C9.21869 12.7382 9.17732 12.6848 9.17732 12.4728L9.17732 8.33875C9.17732 8.11985 9.04115 7.98367 8.87853 7.98367C8.70845 7.98367 8.57458 8.11985 8.57458 8.33875L8.57458 12.4728C8.57458 12.6848 8.53322 12.7382 8.38728 12.8163C8.0638 12.9962 7.83282 13.3243 7.83282 13.7305C7.83282 14.3165 8.29478 14.7859 8.87853 14.7859ZM11.3619 6.08314C11.6474 6.08314 11.8846 5.839 11.8846 5.55294L11.8846 4.74325C11.8846 4.44743 11.6474 4.21536 11.3619 4.21536C11.0712 4.21536 10.8391 4.44743 10.8391 4.74325L10.8391 5.55294C10.8391 5.8413 11.0712 6.08314 11.3619 6.08314ZM13.472 6.96787C13.6799 7.17064 14.0217 7.16318 14.2171 6.96041L14.7969 6.38575C15.0048 6.17552 15.0071 5.84349 14.7946 5.64071C14.5992 5.43048 14.2718 5.43794 14.0564 5.64817L13.4795 6.21021C13.2744 6.41298 13.2767 6.75017 13.472 6.96787ZM14.8749 9.59846L15.6823 9.59846C15.9655 9.59846 16.2125 9.35432 16.2125 9.07803C16.2125 8.7799 15.9655 8.53807 15.6823 8.53807L14.8749 8.53807C14.579 8.53807 14.347 8.78737 14.347 9.08549C14.347 9.35432 14.579 9.59846 14.8749 9.59846ZM14.0564 12.513C14.2569 12.721 14.5992 12.7233 14.7946 12.513C14.9996 12.3103 14.9996 11.9685 14.7894 11.7703L14.2147 11.1933C14.012 10.9831 13.6748 10.9831 13.472 11.1933C13.2767 11.3961 13.2819 11.7356 13.4795 11.9286ZM11.4679 11.4874C12.7411 11.4616 13.7535 10.3736 13.7535 9.08549C13.7535 7.72971 12.6929 6.66174 11.3619 6.66174C11.301 6.66174 11.2401 6.66174 11.1866 6.68127C11.364 7.03962 11.4777 7.48235 11.4777 7.94461Z"
                     fill="currentColor" fill-opacity="0.85" />
       </g>
</svg>