<?xml version="1.0" encoding="UTF-8"?>
<!--Generator: Apple Native CoreSVG 326-->
<!DOCTYPE svg PUBLIC "-//W3C//DTD SVG 1.1//EN" "http://www.w3.org/Graphics/SVG/1.1/DTD/svg11.dtd">
<svg version="1.1" xmlns="http://www.w3.org/2000/svg" xmlns:xlink="http://www.w3.org/1999/xlink"
       viewBox="0 0 26.2948 18.7144">
       <g>
              <rect height="18.7144" opacity="0" width="26.2948" x="0" y="0" />
              <path d="M0 14.0184C0 14.6318 0.310074 15.1612 0.879756 15.4213C2.04581 15.9435 2.69604 16.611 3.2505 17.8421C3.50034 18.3899 4.00451 18.7023 4.62873 18.7023L21.3048 18.7023C21.9267 18.7023 22.4309 18.3899 22.6807 17.8421C23.2352 16.611 23.8854 15.9435 25.0463 15.4213C25.6234 15.1612 25.9335 14.6318 25.9335 14.0184L25.9335 4.68623C25.9335 4.07057 25.6234 3.54116 25.0463 3.28331C23.8854 2.75366 23.2352 2.0839 22.6807 0.86253C22.4309 0.312379 21.9267 0 21.3048 0L4.62873 0C4.00451 0 3.50034 0.312379 3.2505 0.86253C2.69604 2.0839 2.04581 2.75366 0.879756 3.28331C0.310074 3.54116 0 4.07057 0 4.68623ZM4.9015 13.6786L4.9015 5.01856C4.9015 4.40169 5.32251 3.96576 5.93938 3.96576L19.9918 3.96576C20.6035 3.96576 21.0297 4.40169 21.0297 5.01856L21.0297 13.6786C21.0297 14.3052 20.6035 14.7314 19.9918 14.7314L5.93938 14.7314C5.32251 14.7314 4.9015 14.3052 4.9015 13.6786ZM6.55953 6.98806L7.47271 6.98806L7.47271 5.61918L6.67739 5.61918C6.59805 5.61918 6.55953 5.66977 6.55953 5.7468ZM6.55953 10.0804L7.47271 10.0804L7.47271 8.62657L6.55953 8.62657ZM6.56699 12.9429C6.56699 13.0148 6.60551 13.0556 6.68485 13.0556L7.46525 13.0556L7.46525 11.7338L6.56699 11.7338ZM18.4533 6.98806L19.374 6.98806L19.374 5.7468C19.374 5.66977 19.3355 5.61918 19.2561 5.61918L18.4533 5.61918ZM18.4533 10.0804L19.374 10.0804L19.374 8.62657L18.4533 8.62657ZM18.4533 13.078L19.2561 13.078C19.3355 13.078 19.374 13.0297 19.374 12.9578L19.374 11.7189L18.4533 11.7189ZM9.12844 13.0556L16.7976 13.0556L16.7976 5.64902L9.12844 5.64902Z"
                     fill="currentColor" fill-opacity="0.85" />
       </g>
</svg>