<?xml version="1.0" encoding="UTF-8"?>
<!--Generator: Apple Native CoreSVG 326-->
<!DOCTYPE svg PUBLIC "-//W3C//DTD SVG 1.1//EN" "http://www.w3.org/Graphics/SVG/1.1/DTD/svg11.dtd">
<svg version="1.1" xmlns="http://www.w3.org/2000/svg" xmlns:xlink="http://www.w3.org/1999/xlink"
       viewBox="0 0 19.3993 19.0529">
       <g>
              <rect height="19.0529" opacity="0" width="19.3993" x="0" y="0" />
              <path d="M3.64834 19.0379L15.3896 19.0379C17.7164 19.0379 19.0379 17.7262 19.0379 15.4011L19.0379 3.63912C19.0379 1.32151 17.7164 0 15.3896 0L3.64834 0C1.32382 0 0 1.32151 0 3.63912L0 15.4011C0 17.7262 1.32382 19.0379 3.64834 19.0379ZM4.05583 16.0183C3.37024 16.0183 3.01964 15.7096 3.01964 14.9775L3.01964 4.07021C3.01964 3.33809 3.37024 3.0271 4.05583 3.0271L14.9821 3.0271C15.6654 3.0271 16.0183 3.33809 16.0183 4.07021L16.0183 14.9775C16.0183 15.7096 15.6654 16.0183 14.9821 16.0183Z"
                     fill="currentColor" fill-opacity="0.85" />
              <path d="M4.29306 9.52155C4.29306 12.4376 6.60775 14.7546 9.52385 14.7546C12.44 14.7546 14.757 12.4376 14.757 9.52155C14.757 6.60775 12.44 4.29075 9.52616 4.29075C8.9794 4.29075 8.59636 4.64626 8.59636 5.16547L8.59636 6.66744C8.59636 7.13782 8.96163 7.5031 9.43717 7.5031C9.89549 7.5031 10.251 7.12806 10.251 6.66744L10.251 6.23308C11.744 6.55359 12.8261 7.94297 12.8261 9.52155C12.8261 11.3523 11.3523 12.8164 9.52385 12.8164C7.69544 12.8164 6.22902 11.3523 6.23132 9.52155C6.23132 8.83189 6.45605 8.15375 6.86876 7.59117C7.23227 7.01524 7.23227 6.56723 6.84407 6.1945C6.39212 5.77009 5.72424 5.88376 5.33428 6.4293C4.66197 7.3204 4.29306 8.41724 4.29306 9.52155ZM10.4269 10.5124C10.9456 9.97416 10.8651 9.11897 10.2339 8.78749L8.20379 7.64661C7.71388 7.37548 7.24294 7.76204 7.55138 8.31164L8.70948 10.3096C9.07542 10.9431 9.90592 11.031 10.4269 10.5124Z"
                     fill="currentColor" fill-opacity="0.85" />
       </g>
</svg>