<?xml version="1.0" encoding="UTF-8"?>
<!--Generator: Apple Native CoreSVG 326-->
<!DOCTYPE svg PUBLIC "-//W3C//DTD SVG 1.1//EN" "http://www.w3.org/Graphics/SVG/1.1/DTD/svg11.dtd">
<svg version="1.1" xmlns="http://www.w3.org/2000/svg" xmlns:xlink="http://www.w3.org/1999/xlink"
       viewBox="0 0 21.365 21.0014">
       <g>
              <rect height="21.0014" opacity="0" width="21.365" x="0" y="0" />
              <path d="M10.4981 21.0014C16.302 21.0014 21.0037 16.2997 21.0037 10.5033C21.0037 4.70679 16.302 0.0051558 10.4981 0.0051558C4.70163 0.0051558 0 4.70679 0 10.5033C0 16.2997 4.70163 21.0014 10.4981 21.0014ZM10.4981 17.3974C6.68369 17.3974 3.59654 14.3102 3.59654 10.4958C3.59654 6.67393 6.68369 3.58678 10.4981 3.58678C14.32 3.58678 17.4071 6.67393 17.4071 10.4958C17.4071 14.3102 14.32 17.3974 10.4981 17.3974ZM9.6485 5.3364C7.99544 5.60238 6.60266 6.64239 5.87011 8.07654L8.85506 9.1826C9.09635 8.88611 9.41006 8.64998 9.77491 8.52072ZM5.3307 9.71716C5.29449 9.96197 5.27035 10.2315 5.27035 10.4958C5.27035 11.9236 5.85125 13.2175 6.77231 14.1666L8.75115 11.658C8.5374 11.3489 8.41791 10.9789 8.39092 10.5802ZM8.16134 15.18C8.86919 15.527 9.6667 15.731 10.4981 15.731C11.3491 15.731 12.1466 15.527 12.847 15.18L11.0675 12.5254C10.8923 12.5714 10.7026 12.603 10.4981 12.603C10.3085 12.603 10.1235 12.5714 9.92873 12.5254ZM14.2434 14.1666C15.1645 13.2175 15.7333 11.9236 15.7333 10.4958C15.7333 10.2315 15.7213 9.96197 15.673 9.71716L12.6053 10.5802C12.5904 10.9789 12.4663 11.3489 12.2646 11.658ZM15.1456 8.07654C14.3982 6.64239 13.0054 5.60238 11.3598 5.3364L11.2334 8.52072C11.5982 8.64998 11.9194 8.88611 12.1458 9.1826ZM10.4981 11.3874C11.0025 11.3874 11.3972 10.9905 11.3972 10.4958C11.3972 9.99139 11.0025 9.5967 10.4981 9.5967C10.0035 9.5967 9.60877 9.99139 9.60877 10.4958C9.60877 10.9905 10.0035 11.3874 10.4981 11.3874Z"
                     fill="currentColor" fill-opacity="0.85" />
       </g>
</svg>