<?xml version="1.0" encoding="UTF-8"?>
<!--Generator: Apple Native CoreSVG 326-->
<!DOCTYPE svg PUBLIC "-//W3C//DTD SVG 1.1//EN" "http://www.w3.org/Graphics/SVG/1.1/DTD/svg11.dtd">
<svg version="1.1" xmlns="http://www.w3.org/2000/svg" xmlns:xlink="http://www.w3.org/1999/xlink"
       viewBox="0 0 21.365 21.006">
       <g>
              <rect height="21.006" opacity="0" width="21.365" x="0" y="0" />
              <path d="M21.0037 10.5079C21.0037 16.3043 16.302 21.006 10.4981 21.006C4.70394 21.006 0 16.3043 0 10.5079C0 4.7137 4.70394 0.00976562 10.4981 0.00976562C16.302 0.00976562 21.0037 4.7137 21.0037 10.5079ZM10.609 14.7076L10.3849 14.7076C9.5762 14.7076 8.81745 14.4986 8.20112 14.1403L7.76331 15.5583C7.69725 15.7886 7.7294 16.0264 7.8862 16.1929C8.40893 16.726 9.55151 16.9529 10.5004 16.9529C11.4568 16.9529 12.5919 16.726 13.1198 16.1929C13.2691 16.0264 13.3087 15.7886 13.2427 15.5583L12.8072 14.1357C12.1811 14.4986 11.4275 14.7076 10.609 14.7076ZM10.5004 12.4642C9.06014 12.4642 7.84568 12.1712 7.13564 11.6582C7.51759 13.2231 8.7235 14.1073 10.4044 14.1073L10.6016 14.1073C12.2825 14.1073 13.4884 13.2231 13.8652 11.6582C13.1626 12.1712 11.9505 12.4642 10.5004 12.4642ZM6.95307 10.406C6.95307 11.2596 8.49088 11.9058 10.5004 11.9058C12.5197 11.9058 14.0552 11.2596 14.0552 10.406C14.0552 9.56971 12.5174 8.92584 10.5004 8.92584C8.49088 8.92584 6.95307 9.56971 6.95307 10.406ZM12.7071 10.406C12.7071 10.7311 11.8052 10.9804 10.5004 10.9804C9.19334 10.9804 8.29138 10.7311 8.29138 10.406C8.29138 10.0832 9.19334 9.85576 10.5004 9.85576C11.8052 9.85576 12.7071 10.0832 12.7071 10.406ZM7.28576 6.48219L7.44838 8.95557C8.18541 8.56846 9.25502 8.33299 10.5004 8.33299C11.7533 8.33299 12.8252 8.56846 13.5599 8.95557L13.7225 6.48219ZM7.37814 4.64717C7.02955 4.64717 6.75217 4.93201 6.75217 5.27829C6.75217 5.61942 7.02955 5.90426 7.37814 5.90426L13.6278 5.90426C13.969 5.90426 14.2561 5.61942 14.2561 5.27829C14.2561 4.93201 13.9713 4.64717 13.6278 4.64717Z"
                     fill="currentColor" fill-opacity="0.85" />
       </g>
</svg>