<?xml version="1.0" encoding="UTF-8"?>
<!--Generator: Apple Native CoreSVG 326-->
<!DOCTYPE svg PUBLIC "-//W3C//DTD SVG 1.1//EN" "http://www.w3.org/Graphics/SVG/1.1/DTD/svg11.dtd">
<svg version="1.1" xmlns="http://www.w3.org/2000/svg" xmlns:xlink="http://www.w3.org/1999/xlink"
       viewBox="0 0 15.4375 25.3103">
       <g>
              <rect height="25.3103" opacity="0" width="15.4375" x="0" y="0" />
              <path d="M1.29088 2.58692L13.7852 2.58692C14.4984 2.58692 15.0738 2.00177 15.0738 1.28858C15.0738 0.582845 14.4984 0 13.7852 0L1.29088 0C0.58515 0 0 0.582845 0 1.28858C0 2.00177 0.58515 2.58692 1.29088 2.58692ZM1.34929 10.5099L3.91723 10.1638L3.71149 5.73655L11.3646 5.73655L11.1664 10.1638L13.732 10.5099L14.0441 3.78282L1.02976 3.78282ZM7.54064 14.9626C11.769 14.9626 14.9414 13.6044 14.9414 11.8468C14.9414 10.0984 11.769 8.75455 7.54064 8.75455C3.30709 8.75455 0.134718 10.0984 0.134718 11.8468C0.134718 13.6044 3.30709 14.9626 7.54064 14.9626ZM7.54064 13.06C4.69181 13.06 2.7197 12.5643 2.7197 11.8468C2.7197 11.1408 4.69181 10.6497 7.54064 10.6497C10.3918 10.6497 12.3639 11.1408 12.3639 11.8468C12.3639 12.5643 10.3918 13.06 7.54064 13.06ZM7.29693 19.4658L7.7792 19.4658C12.1411 19.4658 14.9414 16.4833 14.9414 11.8468L12.7351 11.8468C12.7351 15.0225 10.8289 17.0764 7.86873 17.0764L7.21486 17.0764C4.25466 17.0764 2.34102 15.0225 2.34102 11.8468L0.134718 11.8468C0.134718 16.4833 2.94249 19.4658 7.29693 19.4658ZM7.59705 25.3028C9.66767 25.3028 11.9263 24.8582 13.0256 23.7365C13.3443 23.3856 13.4287 22.9043 13.2714 22.3961L11.4661 16.4024L9.17198 17.7254L11.146 24.0044L11.6993 21.5012C10.5274 22.4556 9.1601 22.7159 7.59705 22.7159C6.02654 22.7159 4.65924 22.4556 3.4873 21.5012L4.04291 24.0044L6.01466 17.7254L3.72289 16.4024L1.91528 22.3961C1.75793 22.9043 1.84231 23.3856 2.16336 23.7365C3.27246 24.8582 5.52128 25.3028 7.59705 25.3028Z"
                     fill="currentColor" fill-opacity="0.85" />
       </g>
</svg>