<?xml version="1.0" encoding="UTF-8"?>
<!--Generator: Apple Native CoreSVG 326-->
<!DOCTYPE svg PUBLIC "-//W3C//DTD SVG 1.1//EN" "http://www.w3.org/Graphics/SVG/1.1/DTD/svg11.dtd">
<svg version="1.1" xmlns="http://www.w3.org/2000/svg" xmlns:xlink="http://www.w3.org/1999/xlink"
       viewBox="0 0 21.365 21.006">
       <g>
              <rect height="21.006" opacity="0" width="21.365" x="0" y="0" />
              <path d="M21.0037 10.5079C21.0037 16.3043 16.302 21.006 10.4981 21.006C4.70394 21.006 0 16.3043 0 10.5079C0 4.7137 4.70394 0.00976562 10.4981 0.00976562C16.302 0.00976562 21.0037 4.7137 21.0037 10.5079ZM11.0617 15.4294C10.7664 15.461 10.4665 15.4634 10.2011 15.4392C9.82659 15.3904 9.57159 15.6132 9.54229 15.9274C9.50553 16.2587 9.72432 16.508 10.0736 16.5419C10.4349 16.5735 10.798 16.5712 11.1989 16.5396C11.5264 16.508 11.7549 16.2633 11.7302 15.9274C11.7061 15.6035 11.4385 15.3829 11.0617 15.4294ZM13.1971 13.5481C12.4226 13.7153 11.454 13.7687 10.5688 13.694C10.1667 13.6573 9.90253 13.8807 9.87092 14.1891C9.84393 14.4654 9.99557 14.7996 10.4022 14.8433C11.3558 14.9507 12.6213 14.8841 13.5245 14.668C13.8869 14.5704 14.0414 14.2373 13.9707 13.9283C13.8679 13.5975 13.5641 13.4625 13.1971 13.5481ZM14.365 11.4984C13.2212 11.8466 12.1296 12.012 10.9003 12.012C10.4205 12.012 9.87651 11.9856 9.48928 11.9344C9.09987 11.8753 8.8351 12.0792 8.78397 12.3755C8.72022 12.6868 8.89424 13.0205 9.31065 13.0665C9.71795 13.1371 10.2787 13.1762 10.9525 13.1739C12.3054 13.1567 13.5435 12.9665 14.7166 12.6137C15.1031 12.4891 15.2461 12.1318 15.1433 11.82C15.0255 11.5311 14.7395 11.4007 14.365 11.4984ZM14.2714 9.72214C13.335 10.0433 11.962 10.2622 10.5665 10.2622C9.48412 10.2622 8.27021 10.1307 7.29244 9.83538C6.93978 9.74003 6.61642 9.85261 6.52107 10.1932C6.43033 10.5292 6.62158 10.8451 6.99146 10.9456C8.0772 11.2604 9.42783 11.404 10.5665 11.404C12.2003 11.404 13.71 11.1656 14.7585 10.7714C15.114 10.6342 15.2386 10.2637 15.1065 9.96506C14.9698 9.67616 14.6166 9.59003 14.2714 9.72214ZM8.11518 4.54217C6.28724 5.00413 5.37443 6.05244 5.37443 7.14674C5.37443 8.75006 7.17307 9.64213 10.4326 9.64213C13.6227 9.64213 15.6195 8.85736 15.6195 7.60221C15.6195 6.47455 14.1821 5.81564 11.913 5.81564C10.417 5.81564 9.16064 6.04608 8.1617 6.4253C7.77229 6.58901 7.68155 7.00311 7.8085 7.29486C7.95037 7.61076 8.30479 7.74627 8.70506 7.60439C9.50705 7.31767 10.4768 7.05564 11.8493 7.05564C13.233 7.05564 14.2291 7.30681 14.2291 7.5999C14.2291 7.99119 12.441 8.35792 10.3786 8.35792C7.91052 8.35792 6.76716 7.93503 6.76716 7.11975C6.76716 6.55565 7.29219 6.08447 8.5465 5.73794C8.94853 5.62306 9.11224 5.27502 9.00197 4.92467C8.89685 4.57432 8.56088 4.43705 8.11518 4.54217Z"
                     fill="currentColor" fill-opacity="0.85" />
       </g>
</svg>