<?xml version="1.0" encoding="UTF-8"?>
<!--Generator: Apple Native CoreSVG 326-->
<!DOCTYPE svg PUBLIC "-//W3C//DTD SVG 1.1//EN" "http://www.w3.org/Graphics/SVG/1.1/DTD/svg11.dtd">
<svg version="1.1" xmlns="http://www.w3.org/2000/svg" xmlns:xlink="http://www.w3.org/1999/xlink"
       viewBox="0 0 20.784 24.9631">
       <g>
              <rect height="24.9631" opacity="0" width="20.784" x="0" y="0" />
              <path d="M10.0738 10.0562C16.5227 10.0562 20.4227 8.4978 20.4227 6.11644C20.4227 3.96825 17.6585 2.69423 13.0882 2.69423C10.084 2.69423 7.57497 3.12634 5.56295 3.89958C4.86292 4.17642 4.71073 4.88391 4.91636 5.38008C5.16159 5.95261 5.76924 6.1771 6.51798 5.92902C8.16255 5.37917 10.1576 4.83393 12.9705 4.83393C15.784 4.83393 17.9868 5.36898 17.9868 6.10668C17.9868 7.05055 14.1526 7.85278 9.97556 7.85278C4.93892 7.85278 2.43364 6.90837 2.43364 5.12235C2.43364 3.84439 3.6461 2.85102 6.1797 2.1368C6.9268 1.92832 7.19157 1.3311 6.99516 0.721812C6.80622 0.112522 6.24345-0.133257 5.43776 0.0700625C1.78347 0.986939 0 3.05404 0 5.17633C0 8.29296 3.53764 10.0562 10.0738 10.0562ZM10.3593 13.6818C13.6472 13.6818 16.6984 13.174 18.8025 12.3783C19.4273 12.1475 19.6501 11.5405 19.3974 11.0122C19.162 10.5085 18.6015 10.3753 17.9532 10.5936C16.0272 11.2496 13.2286 11.7184 10.3593 11.7184C8.15005 11.7184 5.65818 11.4473 3.64889 10.8556C3.00053 10.669 2.46761 10.8728 2.30796 11.423C2.14086 12.0007 2.48308 12.5365 3.1412 12.7329C5.34174 13.3813 8.02025 13.6818 10.3593 13.6818ZM11.1427 17.2608C13.8505 17.2338 16.3349 16.8552 18.7411 16.1331C19.4153 15.9275 19.6725 15.3308 19.456 14.7819C19.2671 14.2834 18.7962 14.0566 18.1116 14.2525C15.8093 14.9407 13.5541 15.2876 11.0532 15.2876C10.037 15.2876 8.92954 15.2267 8.12876 15.1119C7.44881 15.016 7.00662 15.3582 6.91073 15.859C6.80506 16.412 7.11744 16.9678 7.83416 17.0632C8.67564 17.185 9.76763 17.2705 11.1427 17.2608ZM10.0601 20.6542C11.9568 20.8668 14.5058 20.7583 16.3044 20.3125C16.9453 20.1505 17.2232 19.5957 17.0785 19.0525C16.9315 18.4823 16.3882 18.2486 15.733 18.3881C14.1808 18.7386 12.1457 18.8604 10.3346 18.7202C9.64201 18.6639 9.18545 19.0205 9.1217 19.5534C9.06541 20.0341 9.33303 20.5807 10.0601 20.6542ZM9.38107 24.1379C10.0858 24.2109 10.8234 24.2086 11.6074 24.1304C12.2058 24.0644 12.575 23.6693 12.5308 23.0916C12.4843 22.5455 12.0439 22.1694 11.3938 22.2429C10.7671 22.3187 10.1249 22.3187 9.58548 22.2527C8.94459 22.1791 8.49955 22.5553 8.45072 23.0991C8.4042 23.6698 8.77342 24.0742 9.38107 24.1379Z"
                     fill="currentColor" fill-opacity="0.85" />
       </g>
</svg>