<?xml version="1.0" encoding="UTF-8"?>
<!--Generator: Apple Native CoreSVG 326-->
<!DOCTYPE svg PUBLIC "-//W3C//DTD SVG 1.1//EN" "http://www.w3.org/Graphics/SVG/1.1/DTD/svg11.dtd">
<svg version="1.1" xmlns="http://www.w3.org/2000/svg" xmlns:xlink="http://www.w3.org/1999/xlink"
       viewBox="0 0 21.365 21.006">
       <g>
              <rect height="21.006" opacity="0" width="21.365" x="0" y="0" />
              <path d="M21.0037 10.4981C21.0037 16.2923 16.302 20.9962 10.4981 20.9962C4.70394 20.9962 0 16.2923 0 10.4981C0 4.70163 4.70394 0 10.4981 0C16.302 0 21.0037 4.70163 21.0037 10.4981ZM10.8881 13.4283C11.2965 13.8191 12.0852 14.0616 12.8142 14.0616C13.4122 14.0616 13.8362 13.8105 13.8362 13.394C13.8362 13.0178 13.5145 12.8792 13.2008 12.8051C13.0312 12.773 12.8755 12.758 12.7088 12.7333C12.1413 12.8499 11.3183 13.1744 10.8881 13.4283ZM4.52986 12.8958C4.29075 12.9637 4.05626 13.1176 4.05626 13.3917C4.05626 13.8082 4.46016 14.057 5.05817 14.057C5.76251 14.057 6.46915 13.8145 6.90224 13.4685C6.33243 13.1709 5.70064 12.8998 5.13708 12.7483C4.92455 12.8046 4.7447 12.8516 4.52986 12.8958ZM8.79252 10.2781C8.52127 10.2781 8.23224 10.2442 7.9679 10.1936C7.9047 11.1534 7.46294 12.0548 6.72197 12.6815C7.27576 12.9182 7.93181 13.2803 8.80053 13.2803C9.71916 13.2803 10.4045 12.9274 10.9526 12.6792C10.1623 12.0571 9.70558 11.1649 9.65444 10.1913C9.35796 10.2442 9.07409 10.2781 8.79252 10.2781ZM5.17251 9.84963C4.84727 10.4513 4.49504 10.7891 4.23016 11.0453C4.02575 11.2744 3.90286 11.3962 3.90286 11.6541C3.90286 11.9602 4.14184 12.1664 4.59282 12.1664C4.68884 12.1664 4.78716 12.1664 4.88318 12.1664C5.329 12.1664 5.79017 12.2548 6.11704 12.4145C6.79603 11.8744 7.27115 10.8961 7.36134 10.023C6.78056 9.80815 6.18989 9.45076 5.69306 8.94701C5.52528 9.21705 5.33798 9.50893 5.17251 9.84963ZM10.2587 9.9983C10.3368 10.9012 10.8159 11.8261 11.5288 12.3777C11.8373 12.2726 12.2607 12.1692 12.6416 12.117C12.8475 12.0946 13.0981 12.051 13.2188 11.9762C12.9521 11.3042 12.3068 9.556 11.8805 8.90049C11.4014 9.39908 10.836 9.78061 10.2587 9.9983ZM13.7803 9.29397C13.6567 9.75889 13.4028 10.0174 13.1231 10.1731C13.3449 10.6687 13.5668 11.261 13.7393 11.8136C14.3671 11.5603 14.9809 11.2311 15.7163 11.2311C16.883 11.2311 17.6 10.8163 17.6 10.1746C17.6 8.70857 16.8193 7.73826 15.6582 7.73826C14.6759 7.73826 14.0393 8.3931 13.7803 9.29397ZM16.1987 9.37955C16.1987 9.60932 16.0034 9.81494 15.7657 9.81494C15.521 9.81494 15.3228 9.60932 15.3228 9.37955C15.3228 9.12971 15.521 8.94416 15.7657 8.94416C16.0034 8.94416 16.1987 9.12971 16.1987 9.37955ZM6.11407 8.4019C6.80986 9.18842 7.75263 9.60835 8.78045 9.60604C9.83932 9.60374 10.7775 9.16889 11.491 8.35252C10.743 7.47404 9.93874 7.10283 8.80975 7.09306C7.68076 7.09306 6.79955 7.53767 6.11407 8.4019Z"
                     fill="currentColor" fill-opacity="0.85" />
       </g>
</svg>