<?xml version="1.0" encoding="UTF-8"?>
<!--Generator: Apple Native CoreSVG 326-->
<!DOCTYPE svg PUBLIC "-//W3C//DTD SVG 1.1//EN" "http://www.w3.org/Graphics/SVG/1.1/DTD/svg11.dtd">
<svg version="1.1" xmlns="http://www.w3.org/2000/svg" xmlns:xlink="http://www.w3.org/1999/xlink"
       viewBox="0 0 26.1766 25.3779">
       <g>
              <rect height="25.3779" opacity="0" width="26.1766" x="0" y="0" />
              <path d="M6.16967 8.65428C5.48777 9.80614 4.95976 11.2645 4.95976 12.691C4.95976 15.1774 6.18519 17.111 7.75157 18.3477L15.8642 18.3477L19.0992 21.5824L18.4399 21.5824L18.4399 22.271C18.4399 22.8803 17.919 23.4034 17.3149 23.4034C16.6884 23.4034 16.1802 22.8952 16.1802 22.271L16.1802 21.5824L15.5168 21.5824L15.5168 22.271C15.5168 22.8952 15.0086 23.4034 14.3821 23.4034C13.7728 23.4034 13.2548 22.8952 13.2548 22.271L13.2548 21.5824L12.5433 21.5824L12.5433 22.271C12.5433 22.8952 12.0373 23.4034 11.4183 23.4034C10.7918 23.4034 10.2887 22.8952 10.2887 22.271L10.2887 21.5824L9.62536 21.5824L9.62536 22.271C9.62536 22.8952 9.11197 23.4034 8.49807 23.4034C7.87386 23.4034 7.36562 22.8952 7.36562 22.271L7.36562 21.5824L6.61263 21.5824L6.61263 22.271C6.61263 22.8952 6.1067 23.4034 5.48765 23.4034C4.87605 23.4034 4.36035 22.8803 4.36035 22.271L4.36035 20.6415C4.36035 19.9482 4.1839 19.3702 3.74785 18.6234C2.83218 17.0478 1.97742 15.0467 1.97742 12.691C1.97742 10.7178 2.75539 8.62798 3.71333 7.07743C3.83443 6.86473 3.94347 6.68202 4.04007 6.52491ZM20.8032 23.2862C20.6541 23.3614 20.4865 23.4034 20.3104 23.4034C19.6937 23.4034 19.1854 22.8952 19.1854 22.271L19.1854 21.6686ZM20.8469 3.46785L20.8469 4.30478C20.8469 5.25617 21.2566 5.60585 22.0945 7.07743C23.0599 8.62798 23.8402 10.7178 23.8402 12.691C23.8402 14.8354 23.1126 16.7005 22.304 18.2069L20.0578 15.9607C20.551 15.0184 20.8504 13.9225 20.8504 12.691C20.8504 11.0286 20.1408 9.32298 19.2984 8.1061C18.2831 6.60686 17.9357 6.24686 17.9357 4.64348L17.9357 3.46785C17.9357 2.66973 18.6006 1.99736 19.3913 1.99736C20.1969 1.99736 20.8469 2.66973 20.8469 3.46785Z"
                     fill="currentColor" fill-opacity="0.85" />
              <path d="M11.2 13.684L11.2 15.7915C11.2 16.4203 10.8439 16.8574 10.2002 16.8574C9.549 16.8574 9.18779 16.4278 9.18779 15.7915L9.18779 11.6721ZM17.9709 13.8738L17.7973 13.7002C17.8655 13.75 17.9231 13.8089 17.9709 13.8738ZM18.0105 10.2325C18.0496 10.364 18.1139 10.6723 18.1139 10.9083C18.1139 11.3775 17.8319 11.8323 17.2146 11.8323C16.8154 11.8323 16.3595 11.637 16.2613 11.0019C16.1671 10.5036 15.9951 10.1312 15.6174 10.1312C15.3237 10.1312 15.1156 10.3933 14.9866 10.8895L13.5641 9.46692C14.0043 8.82864 14.6599 8.41186 15.6002 8.41186C16.7703 8.41186 17.6838 9.09733 18.0105 10.2325Z"
                     fill="currentColor" fill-opacity="0.85" />
              <path d="M23.2496 23.6636C23.5874 24.0036 24.1428 23.9887 24.4633 23.6561C24.801 23.3184 24.801 22.7825 24.4633 22.4425L3.72698 1.70615C3.39671 1.37588 2.84359 1.37588 2.50355 1.70615C2.18304 2.03642 2.18074 2.59701 2.50355 2.91982Z"
                     fill="currentColor" fill-opacity="0.85" />
       </g>
</svg>