<?xml version="1.0" encoding="UTF-8"?>
<!--Generator: Apple Native CoreSVG 326-->
<!DOCTYPE svg PUBLIC "-//W3C//DTD SVG 1.1//EN" "http://www.w3.org/Graphics/SVG/1.1/DTD/svg11.dtd">
<svg version="1.1" xmlns="http://www.w3.org/2000/svg" xmlns:xlink="http://www.w3.org/1999/xlink"
       viewBox="0 0 26.5647 16.7514">
       <g>
              <rect height="16.7514" opacity="0" width="26.5647" x="0" y="0" />
              <path d="M0 13.032C0 15.3898 1.36397 16.7514 3.72865 16.7514L22.4748 16.7514C24.8394 16.7514 26.2034 15.3898 26.2034 13.032L26.2034 3.71943C26.2034 1.36167 24.8394 0 22.4748 0L3.72865 0C1.36397 0 0 1.36167 0 3.71943ZM5.48416 8.16752L5.48416 5.14479C5.48416 4.65584 5.7835 4.35881 6.27014 4.35881L19.9258 4.35881C20.4199 4.35881 20.7193 4.65584 20.7193 5.14479L20.7193 8.16752C20.7193 8.64955 20.4199 8.94659 19.9258 8.94659L6.27014 8.94659C5.7835 8.94659 5.48416 8.64955 5.48416 8.16752Z"
                     fill="currentColor" fill-opacity="0.85" />
       </g>
</svg>