<?xml version="1.0" encoding="UTF-8"?>
<!--Generator: Apple Native CoreSVG 326-->
<!DOCTYPE svg PUBLIC "-//W3C//DTD SVG 1.1//EN" "http://www.w3.org/Graphics/SVG/1.1/DTD/svg11.dtd">
<svg version="1.1" xmlns="http://www.w3.org/2000/svg" xmlns:xlink="http://www.w3.org/1999/xlink"
       viewBox="0 0 21.365 21.006">
       <g>
              <rect height="21.006" opacity="0" width="21.365" x="0" y="0" />
              <path d="M10.4981 20.9962C16.302 20.9962 21.0037 16.2946 21.0037 10.4981C21.0037 4.70163 16.302 0 10.4981 0C4.70163 0 0 4.70163 0 10.4981C0 16.2946 4.70163 20.9962 10.4981 20.9962ZM10.4981 17.9484C6.37829 17.9484 3.04785 14.6179 3.04785 10.4981C3.04785 6.37829 6.37829 3.04785 10.4981 3.04785C14.6179 3.04785 17.9558 6.37829 17.9558 10.4981C17.9558 14.6179 14.6179 17.9484 10.4981 17.9484Z"
                     fill="currentColor" fill-opacity="0.85" />
              <path d="M8.13798 14.2603L12.8611 14.2603C13.8972 14.2603 14.5123 13.6319 14.5123 12.5975L14.5123 9.42292C14.5123 8.27276 14.4284 7.65922 14.3002 7.05703C14.0527 5.79138 13.461 5.1733 12.2579 4.98842C11.8507 4.92697 11.2313 4.88846 10.4958 4.88846C9.76029 4.88846 9.14087 4.92697 8.74115 4.98842C7.53803 5.1733 6.94639 5.79138 6.6914 7.05703C6.56323 7.65922 6.48674 8.27276 6.48674 9.42292L6.48674 12.5975C6.48674 13.6319 7.10186 14.2603 8.13798 14.2603ZM10.4958 11.3195C9.45943 11.3097 8.66994 11.2758 8.24419 11.2247C7.94376 11.188 7.78412 10.9875 7.78412 10.6991L7.78412 9.60537C7.78412 8.81478 7.87662 8.08576 7.91513 7.84095C7.9565 7.60372 8.13052 7.4274 8.36314 7.40556C8.7958 7.34697 9.4524 7.32283 10.4958 7.31537C11.5392 7.32052 12.1883 7.34697 12.6313 7.40556C12.8685 7.4274 13.0426 7.60372 13.0765 7.84095C13.115 8.08576 13.2075 8.81478 13.2075 9.60537L13.2075 10.6991C13.2075 10.9875 13.0478 11.188 12.7549 11.2247C12.2394 11.2805 11.4499 11.3121 10.4958 11.3195ZM8.46783 13.1971C8.12658 13.1971 7.88298 12.9483 7.88298 12.6099C7.88298 12.2687 8.13404 12.0176 8.46783 12.0176C8.81139 12.0176 9.0699 12.2687 9.0699 12.6099C9.0699 12.9483 8.80908 13.1971 8.46783 13.1971ZM12.5215 13.1994C12.1877 13.1994 11.9269 12.946 11.9269 12.6099C11.9269 12.2687 12.1877 12.0153 12.5215 12.0153C12.8627 12.0153 13.1184 12.2687 13.1184 12.6099C13.1184 12.946 12.853 13.1994 12.5215 13.1994ZM9.41916 6.64142C9.19861 6.64142 9.04412 6.48692 9.04412 6.26638C9.04412 6.04814 9.19861 5.89365 9.41916 5.89365L11.5724 5.89365C11.793 5.89365 11.9647 6.04814 11.9647 6.26638C11.9647 6.48692 11.793 6.64142 11.5724 6.64142ZM7.27654 16.1338L7.5999 16.1338C7.77392 16.1338 7.87443 16.0775 7.96517 15.9328L9.33521 13.7177L8.18827 13.7177L7.01178 15.602C6.87737 15.822 6.96987 16.1338 7.27654 16.1338ZM7.76877 15.588L13.1184 15.588L13.1184 14.7408L7.76877 14.7408ZM13.2993 16.1338L13.5555 16.1338C13.8697 16.1338 14.0196 15.822 13.8553 15.5646L12.7184 13.7177L11.564 13.7177L12.9415 15.9328C13.0323 16.0775 13.1328 16.1338 13.2993 16.1338Z"
                     fill="currentColor" fill-opacity="0.85" />
       </g>
</svg>