<?xml version="1.0" encoding="UTF-8"?>
<!--Generator: Apple Native CoreSVG 326-->
<!DOCTYPE svg PUBLIC "-//W3C//DTD SVG 1.1//EN" "http://www.w3.org/Graphics/SVG/1.1/DTD/svg11.dtd">
<svg version="1.1" xmlns="http://www.w3.org/2000/svg" xmlns:xlink="http://www.w3.org/1999/xlink"
       viewBox="0 0 26.2524 17.7603">
       <g>
              <rect height="17.7603" opacity="0" width="26.2524" x="0" y="0" />
              <path d="M7.97652 16.2252L17.9146 17.6577C20.0932 17.9674 21.4228 16.415 21.4228 14.2207L21.4228 3.48725C21.4228 1.25268 20.1191-0.271485 17.9146 0.0404689L7.97652 1.47529C5.77203 1.78724 4.46083 2.8688 4.46083 4.91976L4.46083 12.7859C4.46083 14.8345 5.77203 15.9133 7.97652 16.2252ZM8.4281 13.3927C7.84356 13.3111 7.41266 12.9617 7.41266 12.3279L7.41266 5.37026C7.41266 4.73646 7.84356 4.38708 8.4281 4.30544L17.3287 3.0296C18.0028 2.93304 18.4337 3.39839 18.4337 4.1168L18.4337 13.5912C18.4337 14.2906 17.9884 14.7726 17.3287 14.6709ZM1.54224 10.3847L24.3563 10.3847C25.2848 10.3847 25.8911 9.66131 25.8911 8.85398C25.8911 8.02711 25.2848 7.30603 24.3563 7.30603L1.54224 7.30603C0.613779 7.30603 0 8.02711 0 8.85398C0 9.66131 0.613779 10.3847 1.54224 10.3847Z"
                     fill="currentColor" fill-opacity="0.85" />
       </g>
</svg>