<?xml version="1.0" encoding="UTF-8"?>
<!--Generator: Apple Native CoreSVG 326-->
<!DOCTYPE svg PUBLIC "-//W3C//DTD SVG 1.1//EN" "http://www.w3.org/Graphics/SVG/1.1/DTD/svg11.dtd">
<svg version="1.1" xmlns="http://www.w3.org/2000/svg" xmlns:xlink="http://www.w3.org/1999/xlink"
       viewBox="0 0 23.5249 25.0083">
       <g>
              <rect height="25.0083" opacity="0" width="23.5249" x="0" y="0" />
              <path d="M6.19568 9.67485L6.64777 19.5161C6.67707 20.0923 6.95524 20.4227 7.44473 20.4227L15.7338 20.4227C16.0915 20.4227 16.3406 20.2494 16.4547 19.9244L18.5124 21.9802C18.0133 22.6382 17.1955 22.9716 16.1139 22.9716L7.06927 22.9716C5.25037 22.9716 4.17573 22.0359 4.09245 20.2141L3.49585 6.9775ZM9.46633 12.9425L9.6298 18.2735C9.63957 18.7944 9.29844 19.1407 8.75575 19.1407C8.25267 19.1407 7.89662 18.8042 7.88685 18.2959L7.67363 11.1514ZM12.4602 15.9336L12.4602 18.3034C12.4602 18.8093 12.107 19.1407 11.5867 19.1407C11.0738 19.1407 10.7229 18.8093 10.7229 18.3034L10.7229 14.1979ZM15.2027 18.6735C15.0691 18.9643 14.7825 19.1407 14.4199 19.1407C13.8772 19.1407 13.5361 18.7944 13.5533 18.2735L13.5896 17.0619ZM16.5033 2.69319L16.5033 4.06796L20.4888 4.06796C21.2323 4.06796 21.7784 4.57905 21.7784 5.30771C21.7784 6.05129 21.2323 6.56469 20.4888 6.56469L19.7058 6.56469L19.2593 16.3523L16.7809 13.8735L17.1115 6.56469L9.47292 6.56469L6.66542 3.75684L6.66542 2.69319C6.66542 0.948904 7.74237 0 9.72145 0L13.4473 0C15.4287 0 16.5033 0.948904 16.5033 2.69319ZM15.5795 8.72938L15.4623 12.5548L13.7747 10.867L13.8388 8.72192C13.8486 8.21368 14.2047 7.8697 14.7353 7.8697C15.2556 7.8697 15.5893 8.21599 15.5795 8.72938ZM12.4602 8.71446L12.4602 9.55233L10.988 8.07999C11.1375 7.94562 11.3439 7.8697 11.5867 7.8697C12.107 7.8697 12.4602 8.20853 12.4602 8.71446ZM9.92587 2.21607C9.51899 2.21607 9.27757 2.42072 9.27757 2.761L9.27757 4.06796L13.8912 4.06796L13.8912 2.761C13.8912 2.42072 13.6498 2.21607 13.2504 2.21607Z"
                     fill="currentColor" fill-opacity="0.85" />
              <path d="M20.3028 21.7953C20.6429 22.133 21.1885 22.133 21.5165 21.7953C21.8393 21.4627 21.8565 20.9194 21.5165 20.5891L2.86307 1.93105C2.5328 1.59331 1.97737 1.59331 1.63964 1.93105C1.31913 2.25155 1.31913 2.81675 1.63964 3.14471Z"
                     fill="currentColor" fill-opacity="0.85" />
       </g>
</svg>