<?xml version="1.0" encoding="UTF-8"?>
<!--Generator: Apple Native CoreSVG 326-->
<!DOCTYPE svg PUBLIC "-//W3C//DTD SVG 1.1//EN" "http://www.w3.org/Graphics/SVG/1.1/DTD/svg11.dtd">
<svg version="1.1" xmlns="http://www.w3.org/2000/svg" xmlns:xlink="http://www.w3.org/1999/xlink"
       viewBox="0 0 21.365 21.006">
       <g>
              <rect height="21.006" opacity="0" width="21.365" x="0" y="0" />
              <path d="M21.0037 10.5079C21.0037 16.3043 16.302 21.006 10.4981 21.006C4.70394 21.006 0 16.3043 0 10.5079C0 4.7137 4.70394 0.00976562 10.4981 0.00976562C16.302 0.00976562 21.0037 4.7137 21.0037 10.5079ZM9.71146 4.48182C8.60127 4.48182 7.96487 5.05623 7.96487 5.99822L7.96487 6.49542L5.9981 6.49542C5.61451 6.49542 5.33713 6.75041 5.32221 7.14377C5.30729 7.5199 5.61451 7.78751 5.9981 7.78751L6.55729 7.78751L6.89393 14.8438C6.92838 15.7213 7.42576 16.1693 8.31079 16.1693L12.6877 16.1693C13.5854 16.1693 14.0724 15.7213 14.1167 14.8438L14.4585 7.78751L15.0033 7.78751C15.4041 7.78751 15.6769 7.5199 15.6792 7.14377C15.6815 6.75041 15.4041 6.49542 15.0033 6.49542L13.0388 6.49542L13.0388 5.99822C13.0388 5.05623 12.4076 4.48182 11.2801 4.48182ZM9.09744 8.86361L9.26291 14.2352C9.27037 14.4678 9.09635 14.6367 8.8442 14.6367C8.61674 14.6367 8.45072 14.4753 8.44326 14.2426L8.28295 8.87853C8.27549 8.61146 8.42482 8.4449 8.69135 8.4449C8.91881 8.4449 9.08998 8.604 9.09744 8.86361ZM10.9191 8.84123L10.9191 14.2426C10.9191 14.4753 10.7577 14.6367 10.5107 14.6367C10.2488 14.6367 10.0949 14.4753 10.0949 14.2426L10.0949 8.84123C10.0949 8.59654 10.2465 8.4449 10.5107 8.4449C10.7577 8.4449 10.9191 8.59654 10.9191 8.84123ZM12.7213 8.87853L12.561 14.2426C12.5535 14.4753 12.3875 14.6367 12.16 14.6367C11.9079 14.6367 11.7339 14.4678 11.7413 14.2352L11.9068 8.86361C11.9166 8.604 12.0854 8.4449 12.3226 8.4449C12.5794 8.4449 12.7287 8.61146 12.7213 8.87853ZM11.7328 5.98967L11.7328 6.49542L9.27377 6.49542L9.27377 5.98967C9.27377 5.7633 9.46677 5.60244 9.72529 5.60244L11.2812 5.60244C11.5472 5.60244 11.7328 5.7633 11.7328 5.98967Z"
                     fill="currentColor" fill-opacity="0.85" />
       </g>
</svg>