<?xml version="1.0" encoding="UTF-8"?>
<!--Generator: Apple Native CoreSVG 326-->
<!DOCTYPE svg PUBLIC "-//W3C//DTD SVG 1.1//EN" "http://www.w3.org/Graphics/SVG/1.1/DTD/svg11.dtd">
<svg version="1.1" xmlns="http://www.w3.org/2000/svg" xmlns:xlink="http://www.w3.org/1999/xlink"
       viewBox="0 0 20.7373 25.0083">
       <g>
              <rect height="25.0083" opacity="0" width="20.7373" x="0" y="0" />
              <path d="M7.3608 19.1407C7.90349 19.1407 8.23716 18.7944 8.22739 18.2735L7.93958 8.71961C7.92235 8.21368 7.57376 7.8697 7.04314 7.8697C6.51537 7.8697 6.18916 8.21599 6.19893 8.72938L6.48444 18.2959C6.50166 18.8042 6.85771 19.1407 7.3608 19.1407ZM10.1917 19.1407C10.7046 19.1407 11.0578 18.8093 11.0578 18.3034L11.0578 8.71446C11.0578 8.20853 10.7046 7.8697 10.1917 7.8697C9.67143 7.8697 9.32053 8.20853 9.32053 8.71446L9.32053 18.3034C9.32053 18.8093 9.67143 19.1407 10.1917 19.1407ZM13.0175 19.1407C13.5258 19.1407 13.8743 18.8042 13.8916 18.2959L14.1771 8.72938C14.1868 8.21599 13.8606 7.8697 13.3329 7.8697C12.8023 7.8697 12.4537 8.21368 12.4364 8.72192L12.1509 18.2735C12.1412 18.7944 12.4748 19.1407 13.0175 19.1407ZM5.27047 4.58972L7.88262 4.58972L7.88262 2.761C7.88262 2.42072 8.11657 2.21607 8.52345 2.21607L11.8479 2.21607C12.2548 2.21607 12.4888 2.42072 12.4888 2.761L12.4888 4.58972L15.1009 4.58972L15.1009 2.69319C15.1009 0.948904 14.0338 0 12.0449 0L8.3265 0C6.33765 0 5.27047 0.948904 5.27047 2.69319ZM1.29198 6.56469L19.0863 6.56469C19.8299 6.56469 20.376 6.05129 20.376 5.30771C20.376 4.57905 19.8299 4.06796 19.0863 4.06796L1.29198 4.06796C0.550697 4.06796 0 4.57905 0 5.30771C0 6.0536 0.550697 6.56469 1.29198 6.56469ZM5.66685 22.9716L14.7115 22.9716C16.5257 22.9716 17.605 22.0336 17.6808 20.2118L18.3122 6.37168L15.7253 6.37168L15.1232 19.5161C15.1037 20.102 14.8255 20.4227 14.3314 20.4227L6.04232 20.4227C5.55282 20.4227 5.27465 20.0923 5.25282 19.5161L4.64153 6.37168L2.06382 6.37168L2.6975 20.2141C2.78078 22.0359 3.84796 22.9716 5.66685 22.9716Z"
                     fill="currentColor" fill-opacity="0.85" />
       </g>
</svg>