<?xml version="1.0" encoding="UTF-8"?>
<!--Generator: Apple Native CoreSVG 326-->
<!DOCTYPE svg PUBLIC "-//W3C//DTD SVG 1.1//EN" "http://www.w3.org/Graphics/SVG/1.1/DTD/svg11.dtd">
<svg version="1.1" xmlns="http://www.w3.org/2000/svg" xmlns:xlink="http://www.w3.org/1999/xlink"
       viewBox="0 0 21.365 21.006">
       <g>
              <rect height="21.006" opacity="0" width="21.365" x="0" y="0" />
              <path d="M21.0037 10.4981C21.0037 16.2946 16.302 20.9962 10.4981 20.9962C4.70163 20.9962 0 16.2946 0 10.4981C0 4.70163 4.70163 0 10.4981 0C16.302 0 21.0037 4.70163 21.0037 10.4981ZM3.04785 10.4981C3.04785 14.6179 6.37829 17.9484 10.4981 17.9484C14.6179 17.9484 17.9558 14.6179 17.9558 10.4981C17.9558 6.37829 14.6179 3.04785 10.4981 3.04785C6.37829 3.04785 3.04785 6.37829 3.04785 10.4981Z"
                     fill="currentColor" fill-opacity="0.85" />
              <path d="M8.45943 10.3795L8.569 13.9866C8.57646 14.2117 8.72525 14.3634 8.94295 14.3634C9.18017 14.3634 9.33697 14.2043 9.32951 13.9791L9.2469 11.167L10.1172 12.0373L10.1172 13.9866C10.1172 14.2117 10.2614 14.3634 10.4987 14.3634C10.7382 14.3634 10.8847 14.2117 10.8847 13.9866L10.8847 12.8047L11.674 13.594L11.6626 13.9791C11.6552 14.2043 11.8194 14.3634 12.0492 14.3634C12.1644 14.3634 12.2604 14.3209 12.3271 14.2471L13.3092 15.2292C13.3898 15.3106 13.4786 15.3796 13.5739 15.4344C13.3489 15.6798 13.0064 15.8024 12.5551 15.8024L8.43884 15.8024C7.61064 15.8024 7.14025 15.3866 7.10349 14.5607L6.83245 8.75251ZM12.8763 6.24454L12.8763 6.71475L14.7277 6.71475C15.0963 6.71475 15.3662 6.95998 15.3639 7.32119C15.3616 7.67263 15.0963 7.92532 14.7277 7.92532L14.2075 7.92532L14.0102 12.0843L12.5333 10.606L12.5835 8.9549C12.5909 8.70506 12.449 8.55342 12.2021 8.55342C11.9821 8.55342 11.8258 8.69529 11.8109 8.93252L11.7838 9.85567L10.8847 8.95568L10.8847 8.91759C10.8847 8.69013 10.7382 8.55342 10.4987 8.55342C10.4934 8.55342 10.4882 8.55348 10.4834 8.55398L8.11782 6.18608C8.14259 5.34265 8.73354 4.82919 9.75337 4.82919L11.2336 4.82919C12.287 4.82919 12.8763 5.36685 12.8763 6.24454ZM9.7672 5.87345C9.53337 5.87345 9.36275 6.02454 9.35529 6.24115L9.34783 6.71475L11.6541 6.71475L11.6466 6.24115C11.6317 6.02454 11.476 5.87345 11.2347 5.87345Z"
                     fill="currentColor" fill-opacity="0.85" />
              <path d="M13.8198 14.7013C14.0604 14.9345 14.4653 14.9443 14.7134 14.7013C14.9563 14.4584 14.9563 14.0581 14.7134 13.8077L7.20054 6.30004C6.95762 6.04966 6.54758 6.04966 6.29719 6.30004C6.05427 6.54297 6.05657 6.94555 6.29719 7.18617Z"
                     fill="currentColor" fill-opacity="0.85" />
       </g>
</svg>