<?xml version="1.0" encoding="UTF-8"?>
<!--Generator: Apple Native CoreSVG 326-->
<!DOCTYPE svg PUBLIC "-//W3C//DTD SVG 1.1//EN" "http://www.w3.org/Graphics/SVG/1.1/DTD/svg11.dtd">
<svg version="1.1" xmlns="http://www.w3.org/2000/svg" xmlns:xlink="http://www.w3.org/1999/xlink"
       viewBox="0 0 19.3993 19.2574">
       <g>
              <rect height="19.2574" opacity="0" width="19.3993" x="0" y="0" />
              <path d="M19.0379 3.85858L19.0379 15.6183C19.0379 17.9359 17.7164 19.2574 15.3896 19.2574L3.64834 19.2574C1.32382 19.2574 0 17.9382 0 15.6183L0 3.85858C0 1.53866 1.32382 0.219454 3.64834 0.219454L15.3896 0.219454C17.7164 0.219454 19.0379 1.54097 19.0379 3.85858ZM4.05583 3.2391C3.37024 3.2391 3.01964 3.54778 3.01964 4.28735L3.01964 15.1895C3.01964 15.9268 3.37024 16.2377 4.05583 16.2377L14.9821 16.2377C15.6654 16.2377 16.0183 15.9268 16.0183 15.1895L16.0183 4.28735C16.0183 3.54778 15.6654 3.2391 14.9821 3.2391Z"
                     fill="currentColor" fill-opacity="0.85" />
              <path d="M7.47979 9.63138L7.58729 13.2294C7.59705 13.4546 7.751 13.5988 7.96869 13.5988C8.20076 13.5988 8.35756 13.4448 8.34779 13.2197L8.26546 10.4171L9.13784 11.2894L9.13784 13.2271C9.13784 13.4523 9.28202 13.5965 9.5267 13.5965C9.75647 13.5965 9.90526 13.4523 9.90526 13.2271L9.90526 12.0568L10.7015 12.8531L10.6907 13.2197C10.6809 13.4448 10.8377 13.5988 11.0698 13.5988C11.181 13.5988 11.2755 13.5612 11.3426 13.4942L12.3154 14.467C12.3999 14.5511 12.493 14.6219 12.5926 14.6778C12.3681 14.9167 12.0286 15.0355 11.5831 15.0355L7.45942 15.0355C6.63123 15.0355 6.16084 14.622 6.12408 13.7938L5.85858 8.01017ZM11.8969 5.48513L11.8969 5.95533L13.7459 5.95533C14.1146 5.95533 14.3868 6.19541 14.3845 6.55431C14.3822 6.91322 14.1146 7.16075 13.7459 7.16075L13.2281 7.16075L13.033 11.3409L11.5519 9.85839L11.6017 8.19033C11.6115 7.94564 11.4673 7.78654 11.2226 7.78654C11.0078 7.78654 10.8464 7.93072 10.8389 8.1731L10.8112 9.11696L9.90526 8.2101L9.90526 8.15072C9.90526 7.92326 9.75877 7.78654 9.5267 7.78654C9.51195 7.78654 9.49757 7.78703 9.48363 7.78806L7.13561 5.43771C7.15556 4.58272 7.74727 4.06462 8.77396 4.06462L10.2542 4.06462C11.3053 4.06462 11.8969 4.60228 11.8969 5.48513ZM8.78549 5.10888C8.55166 5.10888 8.38103 5.25997 8.37357 5.47658L8.36611 5.95533L10.6747 5.95533L10.6672 5.47658C10.6598 5.25997 10.4966 5.10888 10.2553 5.10888Z"
                     fill="currentColor" fill-opacity="0.85" />
              <path d="M12.8335 13.9465C13.0741 14.1797 13.479 14.1895 13.7271 13.9465C13.97 13.6961 13.97 13.3033 13.7271 13.0529L6.21191 5.53778C5.96898 5.29485 5.56125 5.29485 5.30856 5.53778C5.06794 5.78817 5.06794 6.19074 5.30856 6.43137Z"
                     fill="currentColor" fill-opacity="0.85" />
       </g>
</svg>