<?xml version="1.0" encoding="UTF-8"?>
<!--Generator: Apple Native CoreSVG 326-->
<!DOCTYPE svg PUBLIC "-//W3C//DTD SVG 1.1//EN" "http://www.w3.org/Graphics/SVG/1.1/DTD/svg11.dtd">
<svg version="1.1" xmlns="http://www.w3.org/2000/svg" xmlns:xlink="http://www.w3.org/1999/xlink"
       viewBox="0 0 21.365 21.006">
       <g>
              <rect height="21.006" opacity="0" width="21.365" x="0" y="0" />
              <path d="M21.0037 10.5079C21.0037 16.3043 16.302 21.006 10.4981 21.006C4.70394 21.006 0 16.3043 0 10.5079C0 4.7137 4.70394 0.00976562 10.4981 0.00976562C16.302 0.00976562 21.0037 4.7137 21.0037 10.5079ZM6.88416 14.8438C6.92838 15.7213 7.42576 16.1693 8.31079 16.1693L12.6877 16.1693C13.1716 16.1693 13.5369 16.0385 13.7763 15.7786C13.6767 15.7203 13.5836 15.6474 13.4986 15.5617L12.4506 14.5146C12.3794 14.5917 12.2766 14.6367 12.1526 14.6367C11.9079 14.6367 11.7339 14.4678 11.7413 14.2352L11.7536 13.8182L10.9191 12.9845L10.9191 14.2426C10.9191 14.4753 10.7577 14.6367 10.501 14.6367C10.2465 14.6367 10.0949 14.4753 10.0949 14.2426L10.0949 12.1611L9.16717 11.2342L9.25545 14.2352C9.27037 14.4678 9.09635 14.6367 8.8442 14.6367C8.61674 14.6367 8.45072 14.4753 8.44326 14.2426L8.32831 10.3961L6.59805 8.66748ZM6.00435 6.02157C5.7465 6.27942 5.74134 6.7216 6.00435 6.97945L14.0438 15.0091C14.2993 15.2595 14.7363 15.2595 15.0016 15.0091C15.2595 14.7415 15.2669 14.3188 15.0016 14.0512L6.97199 6.02157C6.70668 5.75396 6.27196 5.76142 6.00435 6.02157ZM9.71146 4.48182C8.63178 4.48182 8.0002 5.02292 7.96813 5.92232L10.4911 8.44528C10.4942 8.44493 10.4976 8.4449 10.501 8.4449C10.7577 8.4449 10.9191 8.59654 10.9191 8.84123L10.9191 8.87331L11.871 9.82523L11.8993 8.86361C11.9142 8.6017 12.078 8.4449 12.3226 8.4449C12.5794 8.4449 12.7287 8.61146 12.7213 8.87853L12.6691 10.6233L14.2413 12.1955L14.4487 7.78751L15.001 7.78751C15.4041 7.78751 15.6769 7.5199 15.6792 7.14377C15.6815 6.75041 15.4041 6.49542 15.001 6.49542L13.0388 6.49542L13.0388 5.99822C13.0388 5.05392 12.4076 4.48182 11.2801 4.48182ZM11.7253 5.98736L11.7253 6.49542L9.27377 6.49542L9.27377 5.98736C9.27377 5.76099 9.46677 5.60244 9.72529 5.60244L11.2812 5.60244C11.5398 5.60244 11.7253 5.76099 11.7253 5.98736Z"
                     fill="currentColor" fill-opacity="0.85" />
       </g>
</svg>