<?xml version="1.0" encoding="UTF-8"?>
<!--Generator: Apple Native CoreSVG 326-->
<!DOCTYPE svg PUBLIC "-//W3C//DTD SVG 1.1//EN" "http://www.w3.org/Graphics/SVG/1.1/DTD/svg11.dtd">
<svg version="1.1" xmlns="http://www.w3.org/2000/svg" xmlns:xlink="http://www.w3.org/1999/xlink"
       viewBox="0 0 24.172 18.2413">
       <g>
              <rect height="18.2413" opacity="0" width="24.172" x="0" y="0" />
              <path d="M7.89706 4.39787L15.9137 4.39787C16.1923 4.39787 16.4048 4.17787 16.4048 3.88951C16.4048 3.61322 16.1923 3.39322 15.9137 3.39322L7.89706 3.39322C7.611 3.39322 7.40592 3.61322 7.40592 3.88951C7.40592 4.17787 7.611 4.39787 7.89706 4.39787ZM6.71014 6.37768L17.1006 6.37768C17.3889 6.37768 17.6262 6.14792 17.6262 5.86186C17.6262 5.57581 17.3889 5.31675 17.1006 5.31675L6.71014 5.31675C6.41432 5.31675 6.18455 5.57581 6.18455 5.86186C6.18455 6.14792 6.41432 6.37768 6.71014 6.37768ZM3.64834 18.2413L20.1549 18.2413C22.4892 18.2413 23.8107 16.9272 23.8107 14.6022L23.8107 8.99517C23.8107 7.34781 23.6442 6.64669 22.8587 5.73709L19.6313 1.86293C18.4773 0.482458 17.5109 0.0120705 16.1232 0.0120705L7.68749 0.0120705C6.2924 0.0120705 5.32827 0.49738 4.15937 1.88531L0.944598 5.73709C0.168867 6.64669 0 7.34781 0 8.99517L0 14.6022C0 16.9295 1.32382 18.2413 3.64834 18.2413ZM11.9016 11.6395C10.4293 11.6395 9.31277 10.4222 9.31277 9.02702L9.31277 8.82612C9.31277 8.35683 9.02671 7.88699 8.42015 7.88699L3.28125 7.88699C2.97391 7.88699 2.90555 7.62101 3.06926 7.41363L6.67508 2.96002C6.99001 2.5663 7.3349 2.35661 7.84635 2.35661L15.8599 2.35661C16.3639 2.35661 16.7163 2.5663 17.0237 2.96002L20.4878 7.21965C20.7238 7.50164 20.6503 7.88699 20.2012 7.88699L15.3906 7.88699C14.784 7.88699 14.5003 8.35683 14.5003 8.82612L14.5003 9.02702C14.5003 10.4222 13.3837 11.6395 11.9016 11.6395Z"
                     fill="currentColor" fill-opacity="0.85" />
       </g>
</svg>