<?xml version="1.0" encoding="UTF-8"?>
<!--Generator: Apple Native CoreSVG 326-->
<!DOCTYPE svg PUBLIC "-//W3C//DTD SVG 1.1//EN" "http://www.w3.org/Graphics/SVG/1.1/DTD/svg11.dtd">
<svg version="1.1" xmlns="http://www.w3.org/2000/svg" xmlns:xlink="http://www.w3.org/1999/xlink"
       viewBox="0 0 24.172 22.7312">
       <g>
              <rect height="22.7312" opacity="0" width="24.172" x="0" y="0" />
              <path d="M3.25465 15.436L2.92265 15.436L2.92265 18.87C2.92265 19.6096 3.27325 19.9205 3.9663 19.9205L19.8444 19.9205C20.5277 19.9205 20.8806 19.6096 20.8806 18.87L20.8806 15.436L20.5564 15.436C22.3349 15.309 23.451 14.3355 23.7352 12.7234C23.787 12.9957 23.8107 13.3013 23.8107 13.6493L23.8107 19.1295C23.8107 21.3873 22.4817 22.7214 20.1475 22.7214L3.64834 22.7214C1.32382 22.7214 0 21.4096 0 19.1295L0 13.6493C0 13.3012 0.0237455 12.9955 0.0755736 12.7231C0.360058 14.3354 1.47754 15.309 3.25465 15.436ZM11.9016 18.0652C9.97792 18.0652 8.50042 16.9466 7.97101 15.4509L15.8397 15.4509C15.3103 16.9466 13.8328 18.0652 11.9016 18.0652Z"
                     fill="currentColor" fill-opacity="0.85" />
              <path d="M3.66326 15.4509L20.1475 15.4509C22.4817 15.4509 23.8107 14.1168 23.8107 11.8515L23.8107 6.37883C23.8107 5.08728 23.5059 4.32744 22.5901 3.69225L19.3494 1.28621C18.0238 0.344648 17.0084 0 15.5109 0L8.29981 0C6.80458 0 5.78689 0.344648 4.46362 1.28621L1.22064 3.69225C0.304797 4.32744 0 5.08728 0 6.37883L0 11.8515C0 14.1168 1.33128 15.4509 3.66326 15.4509ZM11.9016 8.03401C10.7858 8.03401 10.1583 7.09627 10.1583 6.26935L10.1583 6.24521C10.1583 5.91196 9.95142 5.62579 9.41376 5.62579L3.39874 5.62579C3.13277 5.62579 3.09941 5.33458 3.28956 5.19895L6.54516 2.79521C6.93196 2.49224 7.22559 2.34685 7.80268 2.34685L16.008 2.34685C16.5874 2.34685 16.8788 2.49224 17.2656 2.79521L20.5212 5.19895C20.7039 5.33458 20.6705 5.62579 20.4045 5.62579L14.397 5.62579C13.8518 5.62579 13.6548 5.91196 13.6548 6.24521L13.6548 6.26935C13.6548 7.09627 13.0272 8.03401 11.9016 8.03401ZM11.9016 10.7873C13.8393 10.7873 15.3203 9.66858 15.8456 8.16552L20.8806 8.16552L20.8806 11.5995C20.8806 12.3316 20.5277 12.6426 19.8444 12.6426L3.9663 12.6426C3.27325 12.6426 2.92265 12.3316 2.92265 11.5995L2.92265 8.16552L7.96511 8.16552C8.49045 9.66858 9.97143 10.7873 11.9016 10.7873Z"
                     fill="currentColor" fill-opacity="0.85" />
       </g>
</svg>