<?xml version="1.0" encoding="UTF-8"?>
<!--Generator: Apple Native CoreSVG 326-->
<!DOCTYPE svg PUBLIC "-//W3C//DTD SVG 1.1//EN" "http://www.w3.org/Graphics/SVG/1.1/DTD/svg11.dtd">
<svg version="1.1" xmlns="http://www.w3.org/2000/svg" xmlns:xlink="http://www.w3.org/1999/xlink"
       viewBox="0 0 21.5497 19.6111">
       <g>
              <rect height="19.6111" opacity="0" width="21.5497" x="0" y="0" />
              <path d="M0 16.4756C0 18.1437 1.2739 19.6111 3.12057 19.6111L18.0603 19.6111C19.9145 19.6111 21.1884 18.1437 21.1884 16.4756C21.1884 15.9593 21.0563 15.428 20.7823 14.9409L13.2978 1.85323C12.7079 0.81534 11.6528 0.277138 10.5856 0.277138C9.52816 0.277138 8.49543 0.800418 7.89062 1.85323L0.406092 14.9312C0.126953 15.4257 0 15.9593 0 16.4756ZM10.5856 16.7798L10.5856 3.45115C10.8023 3.45115 11.0362 3.53741 11.1541 3.74436L17.9649 15.7554C18.0178 15.871 18.0321 16.0089 18.0321 16.1026C18.0321 16.4619 17.7694 16.7798 17.3866 16.7798Z"
                     fill="currentColor" fill-opacity="0.85" />
       </g>
</svg>