<?xml version="1.0" encoding="UTF-8"?>
<!--Generator: Apple Native CoreSVG 326-->
<!DOCTYPE svg PUBLIC "-//W3C//DTD SVG 1.1//EN" "http://www.w3.org/Graphics/SVG/1.1/DTD/svg11.dtd">
<svg version="1.1" xmlns="http://www.w3.org/2000/svg" xmlns:xlink="http://www.w3.org/1999/xlink"
       viewBox="0 0 21.365 21.006">
       <g>
              <rect height="21.006" opacity="0" width="21.365" x="0" y="0" />
              <path d="M10.4981 20.9962C16.302 20.9962 21.0037 16.2946 21.0037 10.4981C21.0037 4.70163 16.302 0 10.4981 0C4.70163 0 0 4.70163 0 10.4981C0 16.2946 4.70163 20.9962 10.4981 20.9962ZM10.4981 17.9484C6.37829 17.9484 3.04785 14.6179 3.04785 10.4981C3.04785 6.37829 6.37829 3.04785 10.4981 3.04785C14.6179 3.04785 17.9558 6.37829 17.9558 10.4981C17.9558 14.6179 14.6179 17.9484 10.4981 17.9484Z"
                     fill="currentColor" fill-opacity="0.85" />
              <path d="M5.7306 11.91C4.96155 13.2373 5.65357 14.5876 7.13485 14.5876L13.8861 14.5876C15.3576 14.5876 16.0594 13.2373 15.2805 11.91L12.0121 6.23544C11.2798 4.95694 9.73597 4.95002 8.99675 6.23775ZM8.15139 12.1515L10.3694 8.29084C10.4401 8.16674 10.5613 8.16904 10.632 8.29084L12.8621 12.1515C12.935 12.2682 12.881 12.3797 12.7431 12.3797L8.26803 12.3797C8.1324 12.3797 8.08358 12.2682 8.15139 12.1515Z"
                     fill="currentColor" fill-opacity="0.85" />
       </g>
</svg>