<?xml version="1.0" encoding="UTF-8"?>
<!--Generator: Apple Native CoreSVG 326-->
<!DOCTYPE svg PUBLIC "-//W3C//DTD SVG 1.1//EN" "http://www.w3.org/Graphics/SVG/1.1/DTD/svg11.dtd">
<svg version="1.1" xmlns="http://www.w3.org/2000/svg" xmlns:xlink="http://www.w3.org/1999/xlink"
       viewBox="0 0 21.5497 19.6111">
       <g>
              <rect height="19.6111" opacity="0" width="21.5497" x="0" y="0" />
              <path d="M0 16.4756C0 18.1437 1.2739 19.6111 3.12057 19.6111L18.0603 19.6111C19.9145 19.6111 21.1884 18.1437 21.1884 16.4756C21.1884 15.9593 21.0563 15.428 20.7823 14.9409L13.2978 1.85323C12.7079 0.81534 11.6528 0.277138 10.5856 0.277138C9.52816 0.277138 8.49543 0.800418 7.89062 1.85323L0.406092 14.9312C0.126953 15.4257 0 15.9593 0 16.4756ZM3.14132 16.1026C3.14132 16.0164 3.16546 15.8859 3.22066 15.7801L10.0366 3.75182C10.1544 3.54256 10.3763 3.45115 10.5856 3.45115L10.5856 16.7798L3.79665 16.7798C3.40633 16.7798 3.14132 16.4619 3.14132 16.1026Z"
                     fill="currentColor" fill-opacity="0.85" />
       </g>
</svg>