<?xml version="1.0" encoding="UTF-8"?>
<!--Generator: Apple Native CoreSVG 326-->
<!DOCTYPE svg PUBLIC "-//W3C//DTD SVG 1.1//EN" "http://www.w3.org/Graphics/SVG/1.1/DTD/svg11.dtd">
<svg version="1.1" xmlns="http://www.w3.org/2000/svg" xmlns:xlink="http://www.w3.org/1999/xlink"
       viewBox="0 0 21.365 21.0841">
       <g>
              <rect height="21.0841" opacity="0" width="21.365" x="0" y="0" />
              <path d="M21.0037 10.586C21.0037 16.3802 16.302 21.0841 10.4981 21.0841C4.70394 21.0841 0 16.3802 0 10.586C0 4.78952 4.70394 0.0878906 10.4981 0.0878906C16.302 0.0878906 21.0037 4.78952 21.0037 10.586ZM8.90031 6.05232L5.41998 12.0863C4.60155 13.5073 5.34811 14.9614 6.92298 14.9614L14.0951 14.9614C15.6751 14.9614 16.4165 13.5073 15.5958 12.0863L12.1206 6.05002C11.3315 4.69229 9.6889 4.68307 8.90031 6.05232ZM10.6492 8.26385L13.0091 12.3399C13.0769 12.4738 13.0281 12.583 12.8752 12.583L8.14053 12.583C7.99744 12.583 7.94631 12.4738 8.01643 12.3399L10.3642 8.26385C10.4424 8.12252 10.5636 8.12482 10.6492 8.26385Z"
                     fill="currentColor" fill-opacity="0.85" />
       </g>
</svg>