<?xml version="1.0" encoding="UTF-8"?>
<!--Generator: Apple Native CoreSVG 326-->
<!DOCTYPE svg PUBLIC "-//W3C//DTD SVG 1.1//EN" "http://www.w3.org/Graphics/SVG/1.1/DTD/svg11.dtd">
<svg version="1.1" xmlns="http://www.w3.org/2000/svg" xmlns:xlink="http://www.w3.org/1999/xlink"
       viewBox="0 0 21.365 21.006">
       <g>
              <rect height="21.006" opacity="0" width="21.365" x="0" y="0" />
              <path d="M10.4981 20.9962C16.302 20.9962 21.0037 16.2946 21.0037 10.4981C21.0037 4.70163 16.302 0 10.4981 0C4.70163 0 0 4.70163 0 10.4981C0 16.2946 4.70163 20.9962 10.4981 20.9962ZM10.4981 17.9484C6.37829 17.9484 3.04785 14.6179 3.04785 10.4981C3.04785 6.37829 6.37829 3.04785 10.4981 3.04785C14.6179 3.04785 17.9558 6.37829 17.9558 10.4981C17.9558 14.6179 14.6179 17.9484 10.4981 17.9484Z"
                     fill="currentColor" fill-opacity="0.85" />
              <path d="M7.50225 10.5056C7.50225 12.1474 8.86604 13.5037 10.4981 13.5037C10.7603 13.5037 11.0006 13.4589 11.2248 13.376C10.3762 14.4024 9.06214 15.0127 7.57782 15.0127C7.16372 15.0127 6.8622 15.3263 6.8622 15.7186C6.8622 16.1034 7.16372 16.417 7.57782 16.417C10.7985 16.417 13.494 13.9635 13.494 10.5056C13.494 8.86373 12.1376 7.5074 10.4981 7.5074C10.2434 7.5074 9.99564 7.55229 9.77145 7.63514C10.62 6.60872 11.9415 5.9984 13.4282 5.9984C13.84 5.9984 14.1415 5.68481 14.1415 5.29024C14.1415 4.90544 13.8376 4.59415 13.4282 4.59415C10.1977 4.59415 7.50225 7.04763 7.50225 10.5056ZM8.91396 10.5056C8.91396 9.62357 9.62357 8.92142 10.4981 8.92142C11.3801 8.92142 12.0897 9.62357 12.0897 10.5056C12.0897 11.3876 11.3801 12.0897 10.4981 12.0897C9.62357 12.0897 8.91396 11.3876 8.91396 10.5056ZM9.62084 10.5056C9.62084 10.9881 10.0305 11.3828 10.4981 11.3828C10.9807 11.3828 11.3754 10.9784 11.3754 10.5056C11.3754 10.023 10.9807 9.6283 10.4981 9.6283C10.0305 9.6283 9.62084 10.023 9.62084 10.5056Z"
                     fill="currentColor" fill-opacity="0.85" />
       </g>
</svg>