<?xml version="1.0" encoding="UTF-8"?>
<!--Generator: Apple Native CoreSVG 326-->
<!DOCTYPE svg PUBLIC "-//W3C//DTD SVG 1.1//EN" "http://www.w3.org/Graphics/SVG/1.1/DTD/svg11.dtd">
<svg version="1.1" xmlns="http://www.w3.org/2000/svg" xmlns:xlink="http://www.w3.org/1999/xlink"
       viewBox="0 0 40.5858 27.7871">
       <g>
              <rect height="27.7871" opacity="0" width="40.5858" x="0" y="0" />
              <path d="M28.9761 8.82206L29.0722 9.67009L36.5503 9.67009C38.7894 9.67009 40.2244 10.9629 40.2244 13.0694L40.2244 17.5204C40.2244 19.5599 38.9759 20.8004 37.0128 20.8004L33.1896 20.8004C32.5402 22.1302 31.1746 23.0419 29.5929 23.0419C28.0058 23.0419 26.6387 22.1302 25.9889 20.8004L12.0807 20.8004C11.4295 22.1302 10.0616 23.0419 8.48524 23.0419C6.89821 23.0419 5.5311 22.1302 4.88121 20.8004L3.22138 20.8004C1.25831 20.8004 0 19.6494 0 17.5204L0 15.1809C0 12.2145 1.84522 10.4973 5.40852 10.0406L8.92427 9.57353L12.7841 7.15559C14.1453 6.29962 15.3227 5.77929 16.7664 5.48639L16.8978 8.49155C16.0236 8.72917 15.267 9.1035 14.3551 9.67228L9.93886 12.4152L5.77774 12.9684C3.69196 13.2436 2.9525 13.8739 2.9525 15.1809L2.9525 17.0267C2.9525 17.5376 3.24152 17.8554 3.72707 17.8554L4.64008 17.8554C5.1386 16.2002 6.66769 15.0044 8.48524 15.0044C10.2906 15.0044 11.8224 16.2002 12.3224 17.8554L25.7477 17.8554C26.2462 16.2002 27.7753 15.0044 29.5929 15.0044C31.4043 15.0044 32.9323 16.2002 33.4306 17.8554L36.522 17.8554C36.9978 17.8554 37.2943 17.5376 37.2943 17.0267L37.2943 13.4289C37.2943 12.9128 36.9978 12.6002 36.522 12.6002L26.3683 12.6002L25.9639 8.96976C25.8915 8.38455 25.5518 8.11087 24.962 8.11087L22.9263 8.11087L23.045 5.15837L24.8932 5.15837C27.287 5.15837 28.6993 6.44082 28.9761 8.82206ZM7.17276 19.0679C7.17276 19.8029 7.74281 20.3804 8.48524 20.3804C9.21275 20.3804 9.79771 19.8029 9.79771 19.0679C9.79771 18.3255 9.21275 17.7554 8.48524 17.7554C7.74281 17.7554 7.17276 18.3255 7.17276 19.0679ZM28.2804 19.0679C28.2804 19.8029 28.8579 20.3804 29.5929 20.3804C30.3204 20.3804 30.9054 19.8029 30.9054 19.0679C30.9054 18.3255 30.3204 17.7554 29.5929 17.7554C28.8579 17.7554 28.2804 18.3255 28.2804 19.0679Z"
                     fill="currentColor" fill-opacity="0.85" />
              <path d="M19.9202 14.7762C21.0113 14.7762 21.7763 14.0583 21.7763 13.0361C21.7763 12.0266 21.0211 11.3133 19.9202 11.3133C18.7993 11.3133 18.0217 12.0266 18.0217 13.0361C18.0217 14.0583 18.8016 14.7762 19.9202 14.7762ZM19.9202 9.97028C20.8315 9.97028 21.412 9.44196 21.4539 8.48881L21.6665 3.20119C21.7084 2.15839 21.0124 1.46472 19.8979 1.46472C18.7856 1.46472 18.0747 2.15839 18.1316 3.20119L18.359 8.51866C18.4009 9.44196 18.9866 9.97028 19.9202 9.97028Z"
                     fill="currentColor" fill-opacity="0.85" />
       </g>
</svg>