<?xml version="1.0" encoding="UTF-8"?>
<!--Generator: Apple Native CoreSVG 326-->
<!DOCTYPE svg PUBLIC "-//W3C//DTD SVG 1.1//EN" "http://www.w3.org/Graphics/SVG/1.1/DTD/svg11.dtd">
<svg version="1.1" xmlns="http://www.w3.org/2000/svg" xmlns:xlink="http://www.w3.org/1999/xlink"
       viewBox="0 0 34.42 27.9768">
       <g>
              <rect height="27.9768" opacity="0" width="34.42" x="0" y="0" />
              <path d="M3.58705 26.912C3.99302 27.5987 4.86695 27.8376 5.52902 27.4534L33.092 11.5425C33.754 11.1561 33.9952 10.2919 33.6111 9.61491C33.1976 8.92585 32.3214 8.68699 31.6691 9.07112L4.10384 24.9844C3.44408 25.376 3.19545 26.235 3.58705 26.912ZM4.94599 21.0102L7.34894 19.6198L6.20685 17.6359L4.13853 18.8329C3.81099 19.0196 3.49091 18.9231 3.28516 18.5696L2.5613 17.3195C2.05457 16.4376 2.30739 15.7228 3.60852 14.7227L6.20958 12.7213L8.11848 9.13554C8.99508 7.50929 9.7249 6.80647 12.0109 5.48714L14.6838 3.93956C15.0903 3.70616 15.4295 3.7585 15.7112 4.1339L17.3981 6.42791L24.259 2.46956C24.5865 2.2828 24.9141 2.37706 25.1124 2.72304L26.5198 5.16226C26.7158 5.50825 26.6428 5.83809 26.3153 6.02716L23.6033 7.59196L24.7454 9.57584L27.7869 7.82276C29.1096 7.05601 29.4703 5.72527 28.6788 4.35833L26.9412 1.34724C26.1274-0.0719308 24.6549-0.387282 23.1457 0.483922L18.0825 3.4053L17.6743 2.8654C16.5652 1.36689 15.1144 1.04814 13.4959 1.98607L10.8665 3.50326C8.23421 5.0213 7.15648 6.05482 6.09038 8.06235L4.42495 11.2002L2.22526 12.8938C0.00245679 14.5963-0.576445 16.4698 0.584876 18.4691L1.49132 20.0499C2.32237 21.4788 3.62096 21.7718 4.94599 21.0102ZM9.5994 18.3238L21.6236 11.3792L20.4717 9.39533L8.4573 16.34ZM9.372 20.468C10.8694 19.6093 11.3812 17.6973 10.5248 16.2022C9.65114 14.6973 7.73908 14.1832 6.24166 15.0419C4.74424 15.9156 4.23249 17.8202 5.09866 19.3325C5.96252 20.8276 7.87689 21.3417 9.372 20.468ZM8.34182 18.6781C7.84244 18.9666 7.2218 18.8017 6.93332 18.3C6.64254 17.8006 6.80977 17.18 7.30915 16.8915C7.80337 16.6105 8.42916 16.768 8.71995 17.2696C9.00843 17.769 8.83374 18.3971 8.34182 18.6781ZM23.6558 12.2229C25.1509 11.3665 25.665 9.4521 24.7988 7.95699C23.9275 6.45211 22.0206 5.94036 20.5255 6.79676C19.0206 7.67039 18.5089 9.57499 19.3802 11.0873C20.2464 12.5824 22.151 13.0965 23.6558 12.2229ZM22.6257 10.433C22.1165 10.7238 21.5033 10.5565 21.2149 10.0571C20.9264 9.55546 21.0913 8.93713 21.593 8.64635C22.0849 8.36533 22.713 8.52279 23.0015 9.02448C23.2923 9.53132 23.1176 10.152 22.6257 10.433Z"
                     fill="currentColor" fill-opacity="0.85" />
              <path d="M31.7784 27.7053C32.4235 27.7053 32.9347 27.4324 33.265 27.0107C33.555 26.6827 33.7284 26.2312 33.7284 25.7947C33.7284 25.3129 33.4315 25.0407 32.9325 25.0407C32.5242 25.0407 32.2394 25.2934 32.1808 25.7361C32.1331 26.0736 32.0393 26.3758 31.7267 26.3758C31.3761 26.3758 31.1905 25.7856 31.1905 24.4391C31.1905 23.0902 31.41 22.5821 31.7267 22.5821C31.9555 22.5821 32.1078 22.7811 32.1687 23.2045C32.2474 23.7759 32.639 23.9241 32.9469 23.9241C33.3965 23.9241 33.6768 23.6197 33.6768 23.1603C33.6768 22.7347 33.5084 22.1677 33.0869 21.7691C32.7841 21.46 32.3223 21.2549 31.717 21.2549C30.6585 21.2549 30.0663 21.8265 29.763 22.6851C29.5492 23.2309 29.4883 23.9121 29.4883 24.4391C29.4883 25.2152 29.5814 25.9 29.8136 26.4401C30.1801 27.3285 30.8342 27.7053 31.7784 27.7053ZM20.5964 27.6415C21.1322 27.6415 21.4314 27.3274 21.4314 26.7818L21.4314 25.135L22.4653 25.135L22.4653 26.7818C22.4653 27.3348 22.7547 27.6415 23.2928 27.6415C23.836 27.6415 24.133 27.3274 24.133 26.7818L24.133 22.1784C24.133 21.6575 23.836 21.3284 23.2928 21.3284C22.7622 21.3284 22.4653 21.6575 22.4653 22.1784L22.4653 23.8021L21.4314 23.8021L21.4314 22.1784C21.4314 21.5978 21.08 21.3284 20.5964 21.3284C20.0405 21.3284 19.7712 21.665 19.7712 22.1784L19.7712 26.7818C19.7712 27.3348 20.048 27.6415 20.5964 27.6415ZM25.557 27.6341L26.7827 27.6341C28.4864 27.6341 29.0585 26.1456 29.0585 24.427C29.0585 22.6859 28.4754 21.3284 26.7827 21.3284L25.557 21.3284C25.016 21.3284 24.6996 21.6133 24.6996 22.1755L24.6996 26.7497C24.6996 27.3194 25.0235 27.6341 25.557 27.6341ZM26.3477 26.2988L26.3477 22.6487L26.5714 22.6487C27.1829 22.6487 27.3811 23.3104 27.3811 24.4293C27.3811 25.5952 27.1898 26.2988 26.5714 26.2988Z"
                     fill="currentColor" fill-opacity="0.85" />
       </g>
</svg>