<?xml version="1.0" encoding="UTF-8"?>
<!--Generator: Apple Native CoreSVG 326-->
<!DOCTYPE svg PUBLIC "-//W3C//DTD SVG 1.1//EN" "http://www.w3.org/Graphics/SVG/1.1/DTD/svg11.dtd">
<svg version="1.1" xmlns="http://www.w3.org/2000/svg" xmlns:xlink="http://www.w3.org/1999/xlink"
       viewBox="0 0 40.5858 18.4459">
       <g>
              <rect height="18.4459" opacity="0" width="40.5858" x="0" y="0" />
              <path d="M1.39624 2.47313L4.09902 2.47313C4.58718 2.47313 4.83308 2.59833 5.11968 2.89239L8.60139 6.37926L10.8994 5.10967L6.7845 0.99476C6.07634 0.301521 5.47591 0 4.13213 0L1.39624 0C0.648595 0 0.136415 0.51218 0.136415 1.23053C0.136415 1.94142 0.641134 2.47313 1.39624 2.47313ZM3.22138 16.1909L4.08397 16.1909C3.98577 15.8135 3.92202 15.4086 3.92202 14.9969C3.92202 12.4841 5.97474 10.4486 8.48524 10.4486C10.9831 10.4486 13.0335 12.4841 13.0335 14.9969C13.0335 15.4086 12.9796 15.8158 12.8739 16.1909L25.1991 16.1909C25.0911 15.8135 25.0371 15.4086 25.0371 14.9969C25.0371 12.4938 27.0898 10.4486 29.5929 10.4486C32.0982 10.4486 34.1412 12.4841 34.1412 14.9969C34.1412 15.4086 34.0872 15.8135 33.9867 16.1909L37.0128 16.1909C38.9759 16.1909 40.2244 14.9503 40.2244 12.9183L40.2244 8.5209C40.2244 6.42178 38.7894 5.12156 36.5503 5.12156L29.0837 5.12156L28.9761 4.15149C28.6993 1.77025 27.287 0.487797 24.8932 0.487797L21.0076 0.487797C17.102 0.487797 15.2431 0.938775 12.7841 2.48502L8.92427 4.90295L5.40852 5.37006C1.84522 5.82674 0 7.54392 0 10.5103L0 12.9183C0 15.0399 1.25831 16.1909 3.22138 16.1909ZM8.48524 18.1489C10.2187 18.1489 11.6396 16.7429 11.6396 14.9969C11.6396 13.2583 10.2164 11.8425 8.48524 11.8425C6.7415 11.8425 5.31826 13.2583 5.31826 14.9969C5.31826 16.7406 6.7415 18.1489 8.48524 18.1489ZM29.5929 18.1489C31.3315 18.1489 32.7472 16.7406 32.7472 14.9969C32.7472 13.2583 31.3315 11.8425 29.5929 11.8425C27.8566 11.8425 26.4311 13.2606 26.4311 14.9969C26.4311 16.7406 27.8543 18.1489 29.5929 18.1489Z"
                     fill="currentColor" fill-opacity="0.85" />
       </g>
</svg>