<?xml version="1.0" encoding="UTF-8"?>
<!--Generator: Apple Native CoreSVG 326-->
<!DOCTYPE svg PUBLIC "-//W3C//DTD SVG 1.1//EN" "http://www.w3.org/Graphics/SVG/1.1/DTD/svg11.dtd">
<svg version="1.1" xmlns="http://www.w3.org/2000/svg" xmlns:xlink="http://www.w3.org/1999/xlink"
       viewBox="0 0 19.5717 21.1829">
       <g>
              <rect height="21.1829" opacity="0" width="19.5717" x="0" y="0" />
              <path d="M19.2104 3.86822L19.2104 0.857132C17.4006 1.16448 16.0025 1.75842 14.3546 2.7917L9.97204 5.5342L5.97547 6.05991C2.02846 6.57287 0.0505871 8.40493 0.0505871 11.67L0.0505871 14.3031C0.0505871 16.6032 1.36003 17.8151 3.49428 17.8151L7.33065 17.8151L7.33065 14.8552L4.06942 14.8552C3.43223 14.8552 3.01285 14.4127 3.01285 13.745L3.01285 11.67C3.01285 10.0937 3.9361 9.31174 6.34469 8.99748L10.9918 8.3908L15.9182 5.31815C17.0837 4.59494 18.0414 4.13881 19.2104 3.86822ZM19.2029 17.8151L19.2029 14.8552L11.419 14.8552L11.419 17.8151ZM9.42559 20.3323C11.8368 20.3323 13.7569 18.4197 13.7569 15.9988C13.7569 13.5652 11.8368 11.6526 9.42559 11.6526C6.9874 11.6526 5.06733 13.5652 5.06733 15.9988C5.06733 18.4197 6.9874 20.3323 9.42559 20.3323ZM9.42559 17.6909C8.49246 17.6909 7.76101 16.9617 7.76101 16.0435C7.76101 15.1104 8.49246 14.3813 9.42559 14.3813C10.334 14.3813 11.0729 15.1104 11.0729 16.0435C11.0729 16.9617 10.334 17.6909 9.42559 17.6909ZM1.26729 2.46567L4.45034 2.46567C4.9408 2.46567 5.1867 2.59833 5.471 2.88493L9.13116 6.55025L11.4292 5.2732L7.13582 0.99476C6.42766 0.294061 5.83469 0 4.48576 0L1.26729 0C0.51218 0 0 0.51218 0 1.23053C0 1.94142 0.50472 2.46567 1.26729 2.46567Z"
                     fill="currentColor" fill-opacity="0.85" />
       </g>
</svg>