<?xml version="1.0" encoding="UTF-8"?>
<!--Generator: Apple Native CoreSVG 326-->
<!DOCTYPE svg PUBLIC "-//W3C//DTD SVG 1.1//EN" "http://www.w3.org/Graphics/SVG/1.1/DTD/svg11.dtd">
<svg version="1.1" xmlns="http://www.w3.org/2000/svg" xmlns:xlink="http://www.w3.org/1999/xlink"
       viewBox="0 0 19.5412 20.4368">
       <g>
              <rect height="20.4368" opacity="0" width="19.5412" x="0" y="0" />
              <path d="M19.1799 18.0823L19.1799 0.72108C17.4022 1.03128 16.011 1.64014 14.3827 2.65619L10.0323 5.38147L6.07992 5.90202C2.07838 6.4196 0 8.3504 0 11.6895L0 14.3905C0 16.7768 1.4105 18.0823 3.61595 18.0823L4.59003 18.0823C4.47975 17.6533 4.40624 17.1996 4.40624 16.7263C4.40624 13.9074 6.72603 11.6123 9.54727 11.6123C12.349 11.6123 14.659 13.9074 14.659 16.7263C14.659 17.1996 14.5952 17.6556 14.4896 18.0823ZM9.54727 20.3173C11.5174 20.3173 13.1359 18.7211 13.1359 16.7263C13.1359 14.7562 11.5151 13.1331 9.54727 13.1331C7.55763 13.1331 5.93908 14.7562 5.93908 16.7263C5.93908 18.7114 7.55763 20.3173 9.54727 20.3173ZM1.41523 2.47313L4.83702 2.47313C5.32748 2.47313 5.57338 2.60579 5.85768 2.89239L9.51038 6.55025L11.8084 5.28066L7.52251 0.99476C6.81435 0.301521 6.22137 0 4.87244 0L1.41523 0C0.66012 0 0.147939 0.51218 0.147939 1.23053C0.147939 1.94142 0.652659 2.47313 1.41523 2.47313Z"
                     fill="currentColor" fill-opacity="0.85" />
       </g>
</svg>