<?xml version="1.0" encoding="UTF-8"?>
<!--Generator: Apple Native CoreSVG 326-->
<!DOCTYPE svg PUBLIC "-//W3C//DTD SVG 1.1//EN" "http://www.w3.org/Graphics/SVG/1.1/DTD/svg11.dtd">
<svg version="1.1" xmlns="http://www.w3.org/2000/svg" xmlns:xlink="http://www.w3.org/1999/xlink"
       viewBox="0 0 40.5858 18.8326">
       <g>
              <rect height="18.8326" opacity="0" width="40.5858" x="0" y="0" />
              <path d="M28.9761 4.34479L29.0722 5.19282L36.5503 5.19282C38.7894 5.19282 40.2244 6.48559 40.2244 8.59217L40.2244 13.0432C40.2244 15.0826 38.9759 16.3232 37.0128 16.3232L33.1896 16.3232C32.5402 17.6529 31.1746 18.5646 29.5929 18.5646C28.0058 18.5646 26.6387 17.6529 25.9889 16.3232L12.0807 16.3232C11.4295 17.6529 10.0616 18.5646 8.48524 18.5646C6.89821 18.5646 5.5311 17.6529 4.88121 16.3232L3.22138 16.3232C1.25831 16.3232 0 15.1721 0 13.0432L0 10.7036C0 7.73723 1.84522 6.02005 5.40852 5.56337L7.14419 5.33277L9.20239 8.03586L5.77774 8.49118C3.69196 8.76638 2.9525 9.39666 2.9525 10.7036L2.9525 12.5494C2.9525 13.0603 3.24152 13.3781 3.72707 13.3781L4.64008 13.3781C5.1386 11.7229 6.66769 10.5271 8.48524 10.5271C10.2906 10.5271 11.8224 11.7229 12.3224 13.3781L25.7477 13.3781C26.2462 11.7229 27.7753 10.5271 29.5929 10.5271C31.4043 10.5271 32.9323 11.7229 33.4306 13.3781L36.522 13.3781C36.9978 13.3781 37.2943 13.0603 37.2943 12.5494L37.2943 8.95162C37.2943 8.43556 36.9978 8.12294 36.522 8.12294L26.3683 8.12294L25.9639 4.49249C25.8915 3.90728 25.5518 3.6336 24.962 3.6336L21.0076 3.6336C17.6154 3.6336 16.361 3.94392 14.3551 5.19501L13.3273 5.83336C13.2684 5.7796 13.2058 5.69938 13.1144 5.58078L11.5036 3.48047L12.7841 2.67833C15.2431 1.13208 17.102 0.681106 21.0076 0.681106L24.8932 0.681106C27.287 0.681106 28.6993 1.96356 28.9761 4.34479ZM7.17276 14.5906C7.17276 15.3256 7.74281 15.9031 8.48524 15.9031C9.21275 15.9031 9.79771 15.3256 9.79771 14.5906C9.79771 13.8482 9.21275 13.2782 8.48524 13.2782C7.74281 13.2782 7.17276 13.8482 7.17276 14.5906ZM28.2804 14.5906C28.2804 15.3256 28.8579 15.9031 29.5929 15.9031C30.3204 15.9031 30.9054 15.3256 30.9054 14.5906C30.9054 13.8482 30.3204 13.2782 29.5929 13.2782C28.8579 13.2782 28.2804 13.8482 28.2804 14.5906Z"
                     fill="currentColor" fill-opacity="0.85" />
              <path d="M3.57992 3.19979L5.92258 3.19979C7.02149 3.19979 7.40926 3.37042 7.9636 4.09823L10.5234 7.4755C11.408 8.6387 12.4127 9.14706 13.8619 9.14706L16.0677 9.14706L16.0677 9.88991C16.0677 10.6705 16.7478 10.898 17.3228 10.5212L19.7986 8.93167C20.3271 8.59163 20.3368 7.92362 19.7963 7.57382L17.3325 5.98663C16.7478 5.60753 16.0677 5.83499 16.0677 6.62534L16.0677 7.34351L13.8619 7.34351C12.9216 7.34351 12.5729 7.16081 11.9674 6.3721L9.38058 2.99198C8.50805 1.85577 7.48156 1.4037 5.92258 1.4037L3.57992 1.4037C3.09055 1.4037 2.68676 1.80749 2.68676 2.29686C2.68676 2.7937 3.09055 3.19979 3.57992 3.19979Z"
                     fill="currentColor" fill-opacity="0.85" />
       </g>
</svg>