<?xml version="1.0" encoding="UTF-8"?>
<!--Generator: Apple Native CoreSVG 326-->
<!DOCTYPE svg PUBLIC "-//W3C//DTD SVG 1.1//EN" "http://www.w3.org/Graphics/SVG/1.1/DTD/svg11.dtd">
<svg version="1.1" xmlns="http://www.w3.org/2000/svg" xmlns:xlink="http://www.w3.org/1999/xlink"
       viewBox="0 0 40.5858 18.2967">
       <g>
              <rect height="18.2967" opacity="0" width="40.5858" x="0" y="0" />
              <path d="M3.22138 16.0552L6.78608 16.0552L6.78608 13.1102L3.72707 13.1102C3.24152 13.1102 2.9525 12.7924 2.9525 12.2815L2.9525 10.4357C2.9525 9.12874 3.69196 8.49846 5.77774 8.22327L9.93886 7.67002L14.3551 4.9271C16.361 3.676 17.6154 3.36569 21.0076 3.36569L24.962 3.36569C25.5518 3.36569 25.8915 3.63937 25.9639 4.22458L26.3683 7.85502L36.522 7.85502C36.9978 7.85502 37.2943 8.16765 37.2943 8.68371L37.2943 12.2815C37.2943 12.7924 36.9978 13.1102 36.522 13.1102L32.5062 13.1102L32.5062 16.0552L37.0128 16.0552C38.9759 16.0552 40.2244 14.8147 40.2244 12.7753L40.2244 8.32426C40.2244 6.21767 38.7894 4.92491 36.5503 4.92491L29.0722 4.92491L28.9761 4.07688C28.6993 1.69564 27.287 0.41319 24.8932 0.41319L21.0076 0.41319C17.102 0.41319 15.2431 0.864168 12.7841 2.41041L8.92427 4.82834L5.40852 5.29546C1.84522 5.75214 0 7.46931 0 10.4357L0 12.7753C0 14.9042 1.25831 16.0552 3.22138 16.0552ZM10.0978 16.0552L27.8874 16.0552L27.8874 13.1102L10.0978 13.1102ZM8.48524 18.2967C10.696 18.2967 12.4965 16.5036 12.4965 14.2854C12.4965 12.0523 10.696 10.2592 8.48524 10.2592C6.25959 10.2592 4.46647 12.0523 4.46647 14.2854C4.46647 16.5036 6.25959 18.2967 8.48524 18.2967ZM8.48524 15.6352C7.74281 15.6352 7.17276 15.0577 7.17276 14.3227C7.17276 13.5803 7.74281 13.0102 8.48524 13.0102C9.21275 13.0102 9.79771 13.5803 9.79771 14.3227C9.79771 15.0577 9.21275 15.6352 8.48524 15.6352ZM29.5929 18.2967C31.8111 18.2967 33.6042 16.5036 33.6042 14.2854C33.6042 12.0523 31.8111 10.2592 29.5929 10.2592C27.3672 10.2592 25.5741 12.0523 25.5741 14.2854C25.5741 16.5036 27.3672 18.2967 29.5929 18.2967ZM29.5929 15.6352C28.8579 15.6352 28.2804 15.0577 28.2804 14.3227C28.2804 13.5803 28.8579 13.0102 29.5929 13.0102C30.3204 13.0102 30.9054 13.5803 30.9054 14.3227C30.9054 15.0577 30.3204 15.6352 29.5929 15.6352Z"
                     fill="currentColor" fill-opacity="0.85" />
              <path d="M16.7854 11.7877L21.3273 11.7877C22.0911 11.7877 22.4472 11.0842 22.0595 10.4238L19.8336 6.69358C19.4632 6.08483 18.6323 6.07507 18.2693 6.69358L16.048 10.4215C15.6604 11.067 15.9969 11.7877 16.7854 11.7877Z"
                     fill="currentColor" fill-opacity="0.85" />
       </g>
</svg>