<?xml version="1.0" encoding="UTF-8"?>
<!--Generator: Apple Native CoreSVG 326-->
<!DOCTYPE svg PUBLIC "-//W3C//DTD SVG 1.1//EN" "http://www.w3.org/Graphics/SVG/1.1/DTD/svg11.dtd">
<svg version="1.1" xmlns="http://www.w3.org/2000/svg" xmlns:xlink="http://www.w3.org/1999/xlink"
       viewBox="0 0 30.856 15.0602">
       <g>
              <rect height="15.0602" opacity="0" width="30.856" x="0" y="0" />
              <path d="M1.81665 3.82279L7.93448 3.82279C9.24805 3.82279 9.75113 3.04718 9.75113 2.08942C9.75113 0.957214 9.04661 0.360661 7.93448 0.360661L1.81665 0.360661C0.769362 0.360661 0 0.890068 0 2.08942C0 3.24116 0.679834 3.82279 1.81665 3.82279ZM4.88275 14.9098C6.04262 14.9098 6.62941 14.2069 6.62941 13.0632L6.62941 2.00111L3.13149 2.00111L3.13149 13.0632C3.13149 14.1192 3.65519 14.9098 4.88275 14.9098ZM14.8982 15.0448C17.8143 15.0448 19.3753 13.2893 19.3753 10.6517C19.3753 8.55778 18.498 7.45032 16.5467 6.49899L15.6524 6.06591C14.6912 5.58727 13.9743 5.11719 13.9743 4.01058C13.9743 3.37642 14.2124 2.7459 14.8947 2.7459C15.5179 2.7459 15.9018 3.28853 16.0225 3.98983C16.1902 4.83623 16.8551 5.06369 17.636 5.06369C18.5948 5.04877 19.0617 4.39647 19.0617 3.6316C19.0617 1.8272 17.2908 0 14.8947 0C12.3778 0 10.5648 1.59477 10.5648 4.31428C10.5648 6.33983 11.5271 7.62756 13.3366 8.51053L14.2331 8.94362C15.2277 9.43663 15.9607 9.88378 15.9607 10.9875C15.9607 11.6643 15.6444 12.3063 14.9051 12.3063C14.2738 12.3063 13.8984 11.8199 13.7502 11.1742C13.5108 10.3456 12.9009 10.001 12.0845 10.001C11.2852 10.001 10.614 10.5506 10.614 11.4889C10.614 13.4977 12.5611 15.0448 14.8982 15.0448ZM22.0704 14.9093C23.1108 14.9093 23.6275 14.3173 23.7872 13.262L24.045 11.9815L26.84 11.9815L27.1127 13.3165C27.3022 14.3793 27.8138 14.9093 28.8915 14.9093C29.8527 14.9093 30.4947 14.187 30.4947 13.231C30.4947 12.8693 30.4476 12.5306 30.3661 12.1765L28.1652 2.26181C27.8379 0.782767 26.8487 0.137811 25.388 0.137811C24.0271 0.137811 23.0867 0.783313 22.7617 2.27157L20.5827 12.12C20.4885 12.5925 20.4322 12.9944 20.4322 13.231C20.4322 14.2358 20.995 14.9093 22.0704 14.9093ZM24.4395 9.42559L25.3558 4.07694L25.408 4.07694L26.3984 9.42559Z"
                     fill="currentColor" fill-opacity="0.85" />
       </g>
</svg>