<?xml version="1.0" encoding="UTF-8"?>
<!--Generator: Apple Native CoreSVG 326-->
<!DOCTYPE svg PUBLIC "-//W3C//DTD SVG 1.1//EN" "http://www.w3.org/Graphics/SVG/1.1/DTD/svg11.dtd">
<svg version="1.1" xmlns="http://www.w3.org/2000/svg" xmlns:xlink="http://www.w3.org/1999/xlink"
       viewBox="0 0 21.365 21.006">
       <g>
              <rect height="21.006" opacity="0" width="21.365" x="0" y="0" />
              <path d="M21.0037 10.4981C21.0037 16.2923 16.302 20.9962 10.4981 20.9962C4.70394 20.9962 0 16.2923 0 10.4981C0 4.70163 4.70394 0 10.4981 0C16.302 0 21.0037 4.70163 21.0037 10.4981ZM8.68619 9.25072C8.68619 10.0724 9.09823 10.5807 9.78182 10.9099L10.1408 11.0857C10.5121 11.2747 10.8096 11.442 10.8096 11.8666C10.8096 12.1339 10.6946 12.3363 10.4245 12.3363C10.2135 12.3363 10.0904 12.1558 10.0203 11.935C9.9072 11.6093 9.67173 11.4502 9.32884 11.4502C8.99396 11.4502 8.71142 11.6949 8.71142 12.0648C8.71142 12.2021 8.74072 12.3692 8.81994 12.5214C9.09447 13.1758 9.69763 13.4678 10.4245 13.4678C11.5889 13.4678 12.2334 12.7979 12.2334 11.7196C12.2334 10.7539 11.7112 10.3695 11.1257 10.0753L10.7644 9.89955C10.3679 9.70764 10.1077 9.55818 10.1077 9.11576C10.1077 8.85997 10.1962 8.65762 10.4273 8.65762C10.6458 8.65762 10.7619 8.82782 10.8372 9.09623C10.9457 9.44251 11.2128 9.55685 11.5235 9.55685C11.9284 9.55685 12.1139 9.27201 12.1139 8.96127C12.1139 8.81709 12.0674 8.67291 12.0209 8.54135C11.8014 7.92029 11.1805 7.529 10.4273 7.529C9.41291 7.529 8.68619 8.15861 8.68619 9.25072ZM5.1013 7.67779C4.63837 7.67779 4.37415 7.90064 4.37415 8.35895C4.37415 8.82188 4.63837 9.04473 5.1013 9.04473L5.62603 9.04473L5.62603 12.647C5.62603 13.1346 5.85634 13.4161 6.34626 13.4161C6.82181 13.4161 7.07911 13.1272 7.07911 12.647L7.07911 9.04473L7.58146 9.04473C8.05185 9.04473 8.32122 8.81442 8.32122 8.35895C8.32122 7.91786 8.05185 7.67779 7.58146 7.67779ZM13.5816 8.46923L12.7598 12.2347C12.738 12.3766 12.7035 12.5557 12.7035 12.7102C12.7035 13.1657 12.9476 13.4138 13.3749 13.4138C13.8114 13.4138 14.0268 13.149 14.0928 12.7223L14.1711 12.3058L15.2325 12.3058L15.3228 12.747C15.4159 13.2025 15.6261 13.4138 16.0631 13.4138C16.4703 13.4138 16.7368 13.1174 16.7368 12.7102C16.7368 12.5845 16.688 12.3673 16.661 12.2347L15.8415 8.46923C15.7117 7.86157 15.3046 7.58013 14.6722 7.58013C14.1461 7.58013 13.7188 7.83689 13.5816 8.46923ZM15.0567 11.2553L14.3348 11.2553L14.6601 9.2159L14.6917 9.2159Z"
                     fill="currentColor" fill-opacity="0.85" />
       </g>
</svg>