<?xml version="1.0" encoding="UTF-8"?>
<!--Generator: Apple Native CoreSVG 326-->
<!DOCTYPE svg PUBLIC "-//W3C//DTD SVG 1.1//EN" "http://www.w3.org/Graphics/SVG/1.1/DTD/svg11.dtd">
<svg version="1.1" xmlns="http://www.w3.org/2000/svg" xmlns:xlink="http://www.w3.org/1999/xlink"
       viewBox="0 0 21.365 21.006">
       <g>
              <rect height="21.006" opacity="0" width="21.365" x="0" y="0" />
              <path d="M10.4981 20.9962C16.302 20.9962 21.0037 16.2946 21.0037 10.4981C21.0037 4.70163 16.302 0 10.4981 0C4.70163 0 0 4.70163 0 10.4981C0 16.2946 4.70163 20.9962 10.4981 20.9962ZM10.4981 17.9484C6.37829 17.9484 3.04785 14.6179 3.04785 10.4981C3.04785 6.37829 6.37829 3.04785 10.4981 3.04785C14.6179 3.04785 17.9558 6.37829 17.9558 10.4981C17.9558 14.6179 14.6179 17.9484 10.4981 17.9484Z"
                     fill="currentColor" fill-opacity="0.85" />
              <path d="M13.1952 13.2341C13.5995 13.2341 13.8051 12.9865 13.8637 12.592L13.9397 12.1876L14.9471 12.1876L15.0351 12.6166C15.1207 13.0377 15.3137 13.2341 15.7186 13.2341C16.1034 13.2341 16.3429 12.9549 16.3429 12.5799C16.3429 12.4691 16.3039 12.2617 16.2843 12.1365L15.5016 8.59212C15.3793 8.02407 15.0042 7.75985 14.4213 7.75985C13.9221 7.75985 13.527 7.99192 13.3972 8.59212L12.622 12.1365C12.6001 12.2709 12.5657 12.4403 12.5657 12.5799C12.5657 13.0084 12.7926 13.2341 13.1952 13.2341ZM6.60751 13.2364C7.05091 13.2364 7.28352 12.9721 7.28352 12.5241L7.28352 8.47723L5.92919 8.47723L5.92919 12.5241C5.92919 12.9796 6.15204 13.2364 6.60751 13.2364ZM5.43145 9.12571L7.76634 9.12571C8.20458 9.12571 8.45673 8.91262 8.45673 8.48184C8.45673 8.0729 8.20458 7.85005 7.76634 7.85005L5.43145 7.85005C5.00297 7.85005 4.76344 8.06313 4.76344 8.48184C4.76344 8.92008 5.00297 9.12571 5.43145 9.12571ZM10.4319 13.288C11.5274 13.288 12.1301 12.6601 12.1301 11.6507C12.1301 10.7367 11.64 10.377 11.0838 10.1075L10.7397 9.94147C10.3679 9.75932 10.1324 9.60986 10.1324 9.20189C10.1324 8.95587 10.2209 8.77075 10.4422 8.77075C10.6435 8.77075 10.7424 8.92372 10.8176 9.18236C10.9187 9.50396 11.1685 9.61083 11.4621 9.61083C11.8422 9.61083 12.0106 9.34837 12.0106 9.05486C12.0106 8.92045 11.9715 8.78373 11.925 8.65447C11.7153 8.08279 11.1363 7.70872 10.4422 7.70872C9.47951 7.70872 8.80217 8.29642 8.80217 9.32193C8.80217 10.0896 9.18721 10.5733 9.82889 10.8852L10.1632 11.0438C10.5172 11.2231 10.7976 11.3828 10.7976 11.7805C10.7976 12.038 10.6826 12.2306 10.4319 12.2306C10.2307 12.2306 10.1077 12.0599 10.0473 11.8489C9.93419 11.5404 9.72111 11.3962 9.39544 11.3962C9.08755 11.3962 8.81994 11.6185 8.81994 11.9712C8.81994 12.0987 8.8567 12.2509 8.92099 12.3933C9.17829 13.0058 9.74701 13.288 10.4319 13.288ZM14.0885 11.2111L14.4017 9.28711L14.4334 9.28711L14.7811 11.2111Z"
                     fill="currentColor" fill-opacity="0.85" />
       </g>
</svg>