<?xml version="1.0" encoding="UTF-8"?>
<!--Generator: Apple Native CoreSVG 326-->
<!DOCTYPE svg PUBLIC "-//W3C//DTD SVG 1.1//EN" "http://www.w3.org/Graphics/SVG/1.1/DTD/svg11.dtd">
<svg version="1.1" xmlns="http://www.w3.org/2000/svg" xmlns:xlink="http://www.w3.org/1999/xlink"
       viewBox="0 0 21.365 21.006">
       <g>
              <rect height="21.006" opacity="0" width="21.365" x="0" y="0" />
              <path d="M10.4981 20.9962C16.302 20.9962 21.0037 16.2946 21.0037 10.4981C21.0037 4.70163 16.302 0 10.4981 0C4.70163 0 0 4.70163 0 10.4981C0 16.2946 4.70163 20.9962 10.4981 20.9962ZM10.4981 17.9484C6.37829 17.9484 3.04785 14.6179 3.04785 10.4981C3.04785 6.37829 6.37829 3.04785 10.4981 3.04785C14.6179 3.04785 17.9558 6.37829 17.9558 10.4981C17.9558 14.6179 14.6179 17.9484 10.4981 17.9484Z"
                     fill="currentColor" fill-opacity="0.85" />
              <path d="M8.34943 15.4822L12.6255 15.4822C13.5124 15.4822 14.0092 14.99 14.019 14.118L14.0701 10.4085L14.7002 10.5356C15.3141 10.6631 15.7489 10.4052 15.8637 9.84642L16.2016 8.31025C16.3142 7.7365 16.0661 7.27479 15.5216 7.04678L12.7156 5.87181C12.4531 5.76154 12.2446 5.76384 12.0166 5.87181C11.4163 6.14986 11.0428 6.24642 10.4837 6.24642C9.93213 6.24642 9.5563 6.14986 8.95829 5.87181C8.73259 5.76384 8.51435 5.76154 8.25935 5.87181L5.45329 7.04678C4.90884 7.27479 4.65845 7.7365 4.77564 8.31025L5.11349 9.84642C5.22607 10.4052 5.65102 10.6631 6.27239 10.5356L6.90248 10.4085L6.94846 14.118C6.96568 14.99 7.46021 15.4822 8.34943 15.4822ZM10.4837 7.84435C9.94529 7.84435 9.44834 7.54962 9.27595 7.15821C9.65287 7.26454 10.0534 7.31282 10.4837 7.31282C10.9141 7.31282 11.3146 7.26454 11.699 7.15821C11.5243 7.54731 11.0342 7.84435 10.4837 7.84435Z"
                     fill="currentColor" fill-opacity="0.85" />
       </g>
</svg>