<?xml version="1.0" encoding="UTF-8"?>
<!--Generator: Apple Native CoreSVG 326-->
<!DOCTYPE svg PUBLIC "-//W3C//DTD SVG 1.1//EN" "http://www.w3.org/Graphics/SVG/1.1/DTD/svg11.dtd">
<svg version="1.1" xmlns="http://www.w3.org/2000/svg" xmlns:xlink="http://www.w3.org/1999/xlink"
       viewBox="0 0 19.3993 19.0529">
       <g>
              <rect height="19.0529" opacity="0" width="19.3993" x="0" y="0" />
              <path d="M3.64834 19.0379L15.3896 19.0379C17.7164 19.0379 19.0379 17.7262 19.0379 15.4011L19.0379 3.63912C19.0379 1.32151 17.7164 0 15.3896 0L3.64834 0C1.32382 0 0 1.32151 0 3.63912L0 15.4011C0 17.7262 1.32382 19.0379 3.64834 19.0379ZM4.05583 16.0183C3.37024 16.0183 3.01964 15.7096 3.01964 14.9775L3.01964 4.07021C3.01964 3.33809 3.37024 3.0271 4.05583 3.0271L14.9821 3.0271C15.6654 3.0271 16.0183 3.33809 16.0183 4.07021L16.0183 14.9775C16.0183 15.7096 15.6654 16.0183 14.9821 16.0183Z"
                     fill="currentColor" fill-opacity="0.85" />
              <path d="M9.52385 13.9858C10.0344 13.9858 10.5379 13.7262 10.5379 12.9568L10.5379 7.18847L12.4558 7.18847C12.9422 7.18847 13.2914 6.8841 13.2914 6.37708C13.2914 5.88036 12.9474 5.55822 12.4558 5.55822L6.59186 5.55822C6.098 5.55822 5.74886 5.88782 5.74886 6.37708C5.74886 6.85887 6.1003 7.18847 6.59186 7.18847L8.5075 7.18847L8.5075 12.9568C8.5075 13.7262 9.00815 13.9858 9.52385 13.9858ZM7.15796 10.7036C7.20163 10.7036 7.24531 10.6938 7.29128 10.6818L11.9604 8.99408C12.0966 8.9481 12.1672 8.85791 12.1672 8.72404C12.1672 8.56658 12.0506 8.44654 11.8995 8.44654C11.8558 8.44654 11.8122 8.46377 11.7662 8.47584L7.09991 10.1561C6.95858 10.2044 6.89538 10.3043 6.89538 10.4359C6.89538 10.5744 6.99995 10.7036 7.15796 10.7036ZM7.15796 12.3589C7.20163 12.3589 7.24531 12.3491 7.29128 12.3273L11.9604 10.6545C12.0966 10.6085 12.1672 10.5183 12.1672 10.3844C12.1672 10.2293 12.0506 10.1069 11.8995 10.1069C11.8558 10.1069 11.8122 10.119 11.7662 10.1385L7.09991 11.8113C6.95858 11.8573 6.89538 11.9647 6.89538 12.0963C6.89538 12.2348 6.99995 12.3589 7.15796 12.3589Z"
                     fill="currentColor" fill-opacity="0.85" />
       </g>
</svg>