<?xml version="1.0" encoding="UTF-8"?>
<!--Generator: Apple Native CoreSVG 326-->
<!DOCTYPE svg PUBLIC "-//W3C//DTD SVG 1.1//EN" "http://www.w3.org/Graphics/SVG/1.1/DTD/svg11.dtd">
<svg version="1.1" xmlns="http://www.w3.org/2000/svg" xmlns:xlink="http://www.w3.org/1999/xlink"
       viewBox="0 0 24.6449 23.5952">
       <g>
              <rect height="23.5952" opacity="0" width="24.6449" x="0" y="0" />
              <path d="M13.7186 0.416404L22.6254 5.55167C23.136 5.85374 23.3841 6.25686 23.3841 6.69158C23.3841 7.28595 22.9074 7.89293 22.1092 7.89293L21.3244 7.89293L21.3244 19.392L21.7032 19.392C22.2379 19.392 22.5744 19.7159 22.5744 20.2632L22.5744 21.1701L23.0673 21.1701C23.7134 21.1701 24.2836 21.7231 24.2836 22.3766C24.2836 23.0525 23.7134 23.5854 23.0673 23.5854L1.20651 23.5854C0.553002 23.5854 0 23.045 0 22.3766C0 21.7231 0.553002 21.1701 1.20651 21.1701L1.94045 21.1701L1.94045 20.2632C1.94045 19.7159 2.27927 19.392 2.81396 19.392L3.19045 19.392L3.19045 7.89293L2.41314 7.89293C1.60745 7.89293 1.13081 7.28595 1.13081 6.69158C1.13081 6.25686 1.37659 5.85374 1.88944 5.55167L10.7963 0.416404C11.242 0.154491 11.7664 0 12.2563 0C12.7462 0 13.2683 0.154491 13.7186 0.416404ZM9.13656 8.70627C8.60825 8.70627 8.22927 9.06572 8.22927 9.58196C8.22927 10.1108 8.61055 10.4577 9.13656 10.4577L11.1728 10.4577L11.1728 13.0701L9.67161 13.6147C9.52798 13.6705 9.45731 13.7704 9.45731 13.9192C9.45731 14.0675 9.57165 14.199 9.73712 14.199C9.77849 14.199 9.83423 14.1893 9.88536 14.1772L11.1728 13.7003L11.1728 14.8384L9.67161 15.3831C9.52798 15.4365 9.45731 15.5365 9.45731 15.6853C9.45731 15.841 9.57165 15.9651 9.73712 15.9651C9.77849 15.9651 9.83423 15.9456 9.88536 15.9335L11.1728 15.4664L11.1728 16.59C11.1728 17.426 11.7131 17.6982 12.2684 17.6982C12.8185 17.6982 13.3542 17.426 13.3542 16.59L13.3542 14.6969L14.8703 14.1448C15.0087 14.0965 15.0869 14.0063 15.0869 13.8552C15.0869 13.6903 14.9605 13.5605 14.8019 13.5605C14.7582 13.5605 14.7123 13.5777 14.6663 13.5921L13.3542 14.0666L13.3542 12.9406L14.8703 12.3787C15.0087 12.3327 15.0869 12.2253 15.0869 12.0914C15.0869 11.9242 14.9605 11.7967 14.8019 11.7967C14.7582 11.7967 14.7123 11.8065 14.6663 11.826L13.3542 12.3103L13.3542 10.4577L15.3927 10.4577C15.921 10.4577 16.2902 10.1286 16.2902 9.58196C16.2902 9.0508 15.9262 8.70627 15.3927 8.70627Z"
                     fill="currentColor" fill-opacity="0.85" />
       </g>
</svg>