<?xml version="1.0" encoding="UTF-8"?>
<!--Generator: Apple Native CoreSVG 326-->
<!DOCTYPE svg PUBLIC "-//W3C//DTD SVG 1.1//EN" "http://www.w3.org/Graphics/SVG/1.1/DTD/svg11.dtd">
<svg version="1.1" xmlns="http://www.w3.org/2000/svg" xmlns:xlink="http://www.w3.org/1999/xlink"
       viewBox="0 0 25.2371 20.7338">
       <g>
              <rect height="20.7338" opacity="0" width="25.2371" x="0" y="0" />
              <path d="M24.8758 12.3846C24.8758 5.93383 19.9627 0.631336 13.6785 0.00415235C13.2541-0.040066 12.9302 0.274072 12.9302 0.698483L12.9302 4.13058C12.9302 4.48379 13.1829 4.74109 13.5286 4.79046C17.2465 5.32405 20.1044 8.51741 20.1044 12.3846C20.1044 14.1648 19.4989 15.8157 18.4419 17.1359C18.2306 17.4138 18.2329 17.7555 18.4764 18.0012L20.9223 20.4523C21.2117 20.7567 21.6557 20.7417 21.9256 20.4328C23.7735 18.2551 24.8758 15.452 24.8758 12.3846Z"
                     fill="currentColor" fill-opacity="0.85" />
              <path d="M0 12.3846C0 15.4543 1.1023 18.2574 2.94273 20.4276C3.21265 20.7366 3.65429 20.7417 3.9535 20.4448L6.39194 17.9938C6.63541 17.748 6.63772 17.4063 6.42639 17.1284C5.38201 15.8157 4.77139 14.1648 4.77139 12.3846C4.77139 8.51741 7.63678 5.32405 11.3472 4.79046C11.7004 4.74109 11.9456 4.48379 11.9456 4.13058L11.9456 0.698483C11.9456 0.274072 11.6217-0.040066 11.1973 0.00415235C4.92054 0.631336 0 5.93383 0 12.3846Z"
                     fill="currentColor" fill-opacity="0.85" />
              <path d="M12.4344 16.7893C12.945 16.7893 13.4485 16.5394 13.4485 15.7603L13.4485 10.0017L15.3664 10.0017C15.8528 10.0017 16.202 9.68759 16.202 9.18057C16.202 8.68385 15.858 8.36171 15.3664 8.36171L9.50244 8.36171C9.00858 8.36171 8.65198 8.69131 8.65198 9.18057C8.65198 9.66236 9.01088 10.0017 9.50244 10.0017L11.4204 10.0017L11.4204 15.7603C11.4204 16.5394 11.9187 16.7893 12.4344 16.7893ZM10.0685 13.5169C10.1122 13.5169 10.1559 13.4996 10.2019 13.4853L14.8733 11.805C15.0072 11.7516 15.0704 11.6614 15.0704 11.5275C15.0704 11.3701 14.9612 11.2575 14.8101 11.2575C14.7664 11.2575 14.7227 11.2696 14.6768 11.2816L10.0105 12.9693C9.86917 13.0153 9.80596 13.1078 9.80596 13.2394C9.80596 13.3853 9.91053 13.5169 10.0685 13.5169ZM10.0685 15.1623C10.1122 15.1623 10.1559 15.1526 10.2019 15.1405L14.8733 13.4603C15.0072 13.4143 15.0704 13.3241 15.0704 13.1902C15.0704 13.0328 14.9612 12.9127 14.8101 12.9127C14.7664 12.9127 14.7227 12.93 14.6768 12.942L10.0105 14.6148C9.86917 14.6608 9.80596 14.7705 9.80596 14.8998C9.80596 15.0405 9.91053 15.1623 10.0685 15.1623Z"
                     fill="currentColor" fill-opacity="0.85" />
       </g>
</svg>