<?xml version="1.0" encoding="UTF-8"?>
<!--Generator: Apple Native CoreSVG 326-->
<!DOCTYPE svg PUBLIC "-//W3C//DTD SVG 1.1//EN" "http://www.w3.org/Graphics/SVG/1.1/DTD/svg11.dtd">
<svg version="1.1" xmlns="http://www.w3.org/2000/svg" xmlns:xlink="http://www.w3.org/1999/xlink"
       viewBox="0 0 16.0774 17.6098">
       <g>
              <rect height="17.6098" opacity="0" width="16.0774" x="0" y="0" />
              <path d="M7.85806 17.6098C9.12807 17.6098 9.95142 16.8663 9.95142 15.4769L9.95142 3.36648L13.9924 3.36648C15.007 3.36648 15.7161 2.66711 15.7161 1.68181C15.7161 0.698819 15.007 0.00921965 13.9924 0.00921965L1.72603 0.00921965C0.711436 0.00921965 0 0.698819 0 1.68181C0 2.66711 0.711436 3.36648 1.72603 3.36648L5.767 3.36648L5.767 15.4769C5.767 16.814 6.55304 17.6098 7.85806 17.6098ZM2.93581 10.7287C3.02316 10.7287 3.11796 10.7091 3.20761 10.6729L12.9389 7.18046C13.214 7.07589 13.3628 6.88343 13.3628 6.60308C13.3628 6.3032 13.1331 6.0573 12.8073 6.0573C12.7222 6.0573 12.6326 6.07167 12.5406 6.10558L2.80941 9.60549C2.52159 9.7003 2.38257 9.90022 2.38257 10.1806C2.38257 10.4575 2.60663 10.7287 2.93581 10.7287ZM2.93581 14.1953C3.02316 14.1953 3.11796 14.1832 3.20761 14.147L12.9389 10.6448C13.214 10.5477 13.3628 10.3477 13.3628 10.0772C13.3628 9.76981 13.1331 9.53137 12.8073 9.53137C12.7222 9.53137 12.6326 9.54344 12.5406 9.57965L2.80941 13.0721C2.52159 13.1744 2.38257 13.3668 2.38257 13.6472C2.38257 13.9316 2.60663 14.1953 2.93581 14.1953Z"
                     fill="currentColor" fill-opacity="0.85" />
       </g>
</svg>