<?xml version="1.0" encoding="UTF-8"?>
<!--Generator: Apple Native CoreSVG 326-->
<!DOCTYPE svg PUBLIC "-//W3C//DTD SVG 1.1//EN" "http://www.w3.org/Graphics/SVG/1.1/DTD/svg11.dtd">
<svg version="1.1" xmlns="http://www.w3.org/2000/svg" xmlns:xlink="http://www.w3.org/1999/xlink"
       viewBox="0 0 21.365 21.006">
       <g>
              <rect height="21.006" opacity="0" width="21.365" x="0" y="0" />
              <path d="M10.4981 20.9962C16.302 20.9962 21.0037 16.2946 21.0037 10.4981C21.0037 4.70163 16.302 0 10.4981 0C4.70163 0 0 4.70163 0 10.4981C0 16.2946 4.70163 20.9962 10.4981 20.9962ZM10.4981 17.9484C6.37829 17.9484 3.04785 14.6179 3.04785 10.4981C3.04785 6.37829 6.37829 3.04785 10.4981 3.04785C14.6179 3.04785 17.9558 6.37829 17.9558 10.4981C17.9558 14.6179 14.6179 17.9484 10.4981 17.9484Z"
                     fill="currentColor" fill-opacity="0.85" />
              <path d="M10.4958 14.9623C11.0138 14.9623 11.5099 14.7027 11.5099 13.9334L11.5099 8.16504L13.4278 8.16504C13.9142 8.16504 14.2708 7.86066 14.2708 7.35364C14.2708 6.85693 13.9194 6.53478 13.4278 6.53478L7.56381 6.53478C7.06995 6.53478 6.72081 6.86439 6.72081 7.35364C6.72081 7.83543 7.07225 8.16504 7.56381 8.16504L9.47945 8.16504L9.47945 13.9334C9.47945 14.7027 9.98011 14.9623 10.4958 14.9623ZM8.12991 11.6802C8.17359 11.6802 8.21726 11.6704 8.26839 11.6583L12.9324 9.97064C13.0685 9.92467 13.1392 9.83447 13.1392 9.7006C13.1392 9.54314 13.0226 9.4231 12.8715 9.4231C12.8278 9.4231 12.7841 9.44033 12.7381 9.4524L8.07187 11.1326C7.938 11.1809 7.86733 11.2809 7.86733 11.4124C7.86733 11.5509 7.97937 11.6802 8.12991 11.6802ZM8.12991 13.3354C8.17359 13.3354 8.21726 13.3257 8.26839 13.3038L12.9324 11.631C13.0685 11.5851 13.1392 11.4949 13.1392 11.361C13.1392 11.2058 13.0226 11.0835 12.8715 11.0835C12.8278 11.0835 12.7841 11.0956 12.7381 11.1151L8.07187 12.7879C7.938 12.8339 7.86733 12.9413 7.86733 13.0728C7.86733 13.2113 7.97937 13.3354 8.12991 13.3354Z"
                     fill="currentColor" fill-opacity="0.85" />
       </g>
</svg>