<?xml version="1.0" encoding="UTF-8"?>
<!--Generator: Apple Native CoreSVG 326-->
<!DOCTYPE svg PUBLIC "-//W3C//DTD SVG 1.1//EN" "http://www.w3.org/Graphics/SVG/1.1/DTD/svg11.dtd">
<svg version="1.1" xmlns="http://www.w3.org/2000/svg" xmlns:xlink="http://www.w3.org/1999/xlink"
       viewBox="0 0 22.5932 22.3496">
       <g>
              <rect height="22.3496" opacity="0" width="22.5932" x="0" y="0" />
              <path d="M5.49902 10.9202L5.49902 14.3976L1.85335 18.053L4.27941 20.4768L7.85672 16.9167L11.4955 16.9144C12.2473 16.9144 13.0755 16.6226 13.5942 16.1062L21.7249 8.10766C22.4065 7.44098 22.3869 6.35342 21.7323 5.67413C21.0829 5.00746 19.9781 5.00746 19.2988 5.67413L11.5328 13.435C11.3989 13.5666 11.2287 13.6431 11.0297 13.6431L9.081 13.6431L8.9196 13.4972L8.9196 11.2464C8.9196 11.0475 8.99378 10.875 9.12546 10.7433L16.7416 3.11688C17.4059 2.4502 17.4036 1.36264 16.749 0.695968C16.0921 0.0166804 14.9873 0.00691473 14.308 0.698273L6.3169 8.82151C5.75632 9.3844 5.50132 10.1661 5.49902 10.9202ZM2.75876 22.3496C4.28918 22.3496 5.52729 21.1092 5.52729 19.5737C5.52729 18.0432 4.28918 16.8028 2.75876 16.8051C1.23811 16.8051 0 18.0432 0 19.5737C0 21.1092 1.23811 22.3496 2.75876 22.3496Z"
                     fill="currentColor" fill-opacity="0.85" />
       </g>
</svg>