<?xml version="1.0" encoding="UTF-8"?>
<!--Generator: Apple Native CoreSVG 326-->
<!DOCTYPE svg PUBLIC "-//W3C//DTD SVG 1.1//EN" "http://www.w3.org/Graphics/SVG/1.1/DTD/svg11.dtd">
<svg version="1.1" xmlns="http://www.w3.org/2000/svg" xmlns:xlink="http://www.w3.org/1999/xlink"
       viewBox="0 0 21.365 21.006">
       <g>
              <rect height="21.006" opacity="0" width="21.365" x="0" y="0" />
              <path d="M10.4981 20.9962C16.302 20.9962 21.0037 16.2946 21.0037 10.4981C21.0037 4.70163 16.302 0 10.4981 0C4.70163 0 0 4.70163 0 10.4981C0 16.2946 4.70163 20.9962 10.4981 20.9962ZM10.4981 17.9484C6.37829 17.9484 3.04785 14.6179 3.04785 10.4981C3.04785 6.37829 6.37829 3.04785 10.4981 3.04785C14.6179 3.04785 17.9558 6.37829 17.9558 10.4981C17.9558 14.6179 14.6179 17.9484 10.4981 17.9484Z"
                     fill="currentColor" fill-opacity="0.85" />
              <path d="M9.82095 14.6687L9.99782 14.6687C11.0406 14.6687 12.2584 14.3934 13.0299 13.7459C13.6647 13.2133 14.0462 12.491 14.0462 11.8004C14.0462 11.2865 13.6638 10.9178 13.0861 10.9178C12.5601 10.9178 12.3046 11.2474 12.1611 11.6764C12.0955 11.9634 11.9736 12.2095 11.7793 12.401C11.4218 12.7551 10.8626 12.9482 10.2638 12.9482L10.2638 10.3679L12.1636 9.68417C12.29 9.63819 12.3555 9.54569 12.3555 9.42389C12.3555 9.26358 12.2412 9.13662 12.0855 9.13662C12.0343 9.13662 11.9907 9.14869 11.947 9.16822L10.2638 9.77667L10.2638 8.71725L12.1636 8.02377C12.29 7.98009 12.3555 7.88529 12.3555 7.75888C12.3555 7.62447 12.2625 7.47622 12.0878 7.47622C12.0367 7.47622 11.993 7.49576 11.947 7.51013L10.2638 8.12603L10.2638 7.16633C10.2638 6.58579 9.86013 6.17006 9.27959 6.17006C8.69905 6.17006 8.29077 6.58579 8.29077 7.16633L8.29077 8.82376L7.03792 9.27704C6.91152 9.32072 6.85062 9.40345 6.85062 9.52986C6.85062 9.68556 6.96495 9.81482 7.11835 9.81482C7.16718 9.81482 7.21316 9.79759 7.25914 9.78322L8.29077 9.40751L8.29077 10.4692L7.03792 10.9374C6.91152 10.9834 6.85062 11.0638 6.85062 11.1903C6.85062 11.3362 6.96495 11.4678 7.11835 11.4678C7.16718 11.4678 7.21546 11.4557 7.25914 11.4436L8.29077 11.0656L8.29077 13.3417C8.29077 14.1542 8.88678 14.6687 9.82095 14.6687Z"
                     fill="currentColor" fill-opacity="0.85" />
       </g>
</svg>