<?xml version="1.0" encoding="UTF-8"?>
<!--Generator: Apple Native CoreSVG 326-->
<!DOCTYPE svg PUBLIC "-//W3C//DTD SVG 1.1//EN" "http://www.w3.org/Graphics/SVG/1.1/DTD/svg11.dtd">
<svg version="1.1" xmlns="http://www.w3.org/2000/svg" xmlns:xlink="http://www.w3.org/1999/xlink"
       viewBox="0 0 19.3993 19.0529">
       <g>
              <rect height="19.0529" opacity="0" width="19.3993" x="0" y="0" />
              <path d="M19.0379 3.63912L19.0379 15.4011C19.0379 17.7262 17.7164 19.0379 15.3896 19.0379L3.64834 19.0379C1.32382 19.0379 0 17.7262 0 15.4011L0 3.63912C0 1.32151 1.32382 0 3.64834 0L15.3896 0C17.7164 0 19.0379 1.32151 19.0379 3.63912ZM7.26253 5.98306L7.26253 7.749L5.91609 8.22927C5.77992 8.2804 5.72648 8.36544 5.72648 8.49931C5.72648 8.66478 5.83335 8.8015 5.99652 8.8015C6.05281 8.8015 6.10855 8.79173 6.15453 8.7699L7.26253 8.36205L7.26253 9.5076L5.91609 10.0005C5.77992 10.0465 5.72648 10.1292 5.72648 10.2631C5.72648 10.4262 5.83335 10.5653 5.99652 10.5653C6.05281 10.5653 6.11086 10.5532 6.15453 10.5337L7.26253 10.1235L7.26253 12.5495C7.26253 13.4165 7.90561 13.9706 8.90176 13.9706L9.0861 13.9706C10.2052 13.9706 11.4994 13.6781 12.3203 12.9863C12.997 12.4267 13.4055 11.6603 13.4055 10.9352C13.4055 10.3817 12.991 9.98083 12.3811 9.98083C11.8178 9.98083 11.5353 10.3351 11.3843 10.7888C11.3188 11.0879 11.1796 11.3438 10.983 11.5525C10.6008 11.9261 10.0049 12.1216 9.3693 12.1216L9.3693 9.38386L11.3948 8.65823C11.531 8.61225 11.5965 8.50252 11.5965 8.37327C11.5965 8.20319 11.4822 8.07623 11.3167 8.07623C11.2656 8.07623 11.2145 8.09577 11.1685 8.10784L9.3693 8.75819L9.3693 7.62241L11.3948 6.89447C11.531 6.8508 11.5965 6.73877 11.5965 6.6049C11.5965 6.46072 11.5058 6.31017 11.319 6.31017C11.2679 6.31017 11.2168 6.33201 11.1685 6.34638L9.3693 6.98928L9.3693 5.98306C9.3693 5.35545 8.94095 4.91502 8.3208 4.91502C7.69319 4.91502 7.26253 5.35545 7.26253 5.98306Z"
                     fill="currentColor" fill-opacity="0.85" />
       </g>
</svg>