<?xml version="1.0" encoding="UTF-8"?>
<!--Generator: Apple Native CoreSVG 326-->
<!DOCTYPE svg PUBLIC "-//W3C//DTD SVG 1.1//EN" "http://www.w3.org/Graphics/SVG/1.1/DTD/svg11.dtd">
<svg version="1.1" xmlns="http://www.w3.org/2000/svg" xmlns:xlink="http://www.w3.org/1999/xlink"
       viewBox="0 0 24.3303 21.006">
       <g>
              <rect height="21.006" opacity="0" width="24.3303" x="0" y="0" />
              <path d="M11.9856 20.9962C17.7821 20.9962 22.4837 16.2946 22.4837 10.4981C22.4837 4.70163 17.7821 0 11.9856 0C6.18916 0 1.48753 4.70163 1.48753 10.4981L4.53538 10.4981C4.53538 6.37829 7.86582 3.04785 11.9856 3.04785C16.1055 3.04785 19.4359 6.37829 19.4359 10.4981C19.4359 14.6179 16.1055 17.9484 11.9856 17.9484C9.86874 17.9484 8.05458 17.1034 6.64712 15.6524C5.97135 15.0132 5.0498 14.8117 4.35614 15.4438C3.73423 16.0162 3.72149 16.9286 4.44894 17.7463C6.08398 19.7011 9.21457 20.9962 11.9856 20.9962ZM0.808605 8.39698C-0.0138912 8.39698-0.212055 9.15901 0.22849 9.72826L2.75918 13.0277C3.05907 13.4322 3.60988 13.4224 3.91492 13.0277L6.43585 9.72596C6.86894 9.15901 6.66847 8.39698 5.8655 8.39698Z"
                     fill="currentColor" fill-opacity="0.85" />
              <path d="M11.3108 14.6687L11.4877 14.6687C12.5304 14.6687 13.7482 14.3934 14.5197 13.7459C15.1545 13.2133 15.536 12.491 15.536 11.8004C15.536 11.2865 15.1536 10.9178 14.5834 10.9178C14.0499 10.9178 13.7944 11.2474 13.6509 11.6764C13.5854 11.9634 13.4635 12.2095 13.2766 12.401C12.9116 12.7551 12.3524 12.9482 11.7536 12.9482L11.7536 10.3679L13.6534 9.68417C13.7798 9.63819 13.8454 9.54569 13.8454 9.42389C13.8454 9.26358 13.731 9.13662 13.5753 9.13662C13.5242 9.13662 13.4805 9.14869 13.4368 9.16822L11.7536 9.77667L11.7536 8.71725L13.6534 8.02377C13.7798 7.98009 13.8454 7.88529 13.8454 7.75888C13.8454 7.62447 13.7523 7.47622 13.5776 7.47622C13.5265 7.47622 13.4828 7.49576 13.4368 7.51013L11.7536 8.12603L11.7536 7.16633C11.7536 6.58579 11.3574 6.17006 10.7694 6.17006C10.1889 6.17006 9.78807 6.58579 9.78807 7.16633L9.78807 8.82376L8.52775 9.27704C8.40135 9.32072 8.34045 9.40345 8.34045 9.52986C8.34045 9.68556 8.45479 9.81482 8.60818 9.81482C8.65701 9.81482 8.70299 9.79759 8.74897 9.78322L9.78807 9.40751L9.78807 10.4692L8.52775 10.9374C8.40135 10.9834 8.34045 11.0638 8.34045 11.1903C8.34045 11.3362 8.45479 11.4678 8.60818 11.4678C8.65701 11.4678 8.70529 11.4557 8.74897 11.4436L9.78807 11.0656L9.78807 13.3417C9.78807 14.1542 10.3766 14.6687 11.3108 14.6687Z"
                     fill="currentColor" fill-opacity="0.85" />
       </g>
</svg>