<?xml version="1.0" encoding="UTF-8"?>
<!--Generator: Apple Native CoreSVG 326-->
<!DOCTYPE svg PUBLIC "-//W3C//DTD SVG 1.1//EN" "http://www.w3.org/Graphics/SVG/1.1/DTD/svg11.dtd">
<svg version="1.1" xmlns="http://www.w3.org/2000/svg" xmlns:xlink="http://www.w3.org/1999/xlink"
       viewBox="0 0 25.2371 20.7933">
       <g>
              <rect height="20.7933" opacity="0" width="25.2371" x="0" y="0" />
              <path d="M24.8758 12.4367C24.8758 9.44627 23.8182 6.68788 22.0375 4.53265C21.79 4.23112 21.3535 4.23112 21.0491 4.53034L18.6193 6.95264C18.3592 7.2128 18.3569 7.55853 18.5677 7.83822C19.5288 9.12728 20.1044 10.7185 20.1044 12.4367C20.1044 14.2244 19.4989 15.8753 18.4419 17.2029C18.2306 17.4808 18.2329 17.8225 18.4764 18.0683L20.92 20.5119C21.2117 20.8036 21.6459 20.8036 21.9256 20.4849C23.766 18.3147 24.8758 15.5116 24.8758 12.4367Z"
                     fill="currentColor" fill-opacity="0.85" />
              <path d="M12.4367 4.77139C14.1745 4.77139 15.7732 5.34932 17.0646 6.32534C17.3345 6.52635 17.6779 6.50682 17.9231 6.25413L20.3454 3.82437C20.6521 3.52515 20.6424 3.07605 20.311 2.81359C18.1655 1.05754 15.422 0 12.4367 0C9.45373 0 6.71026 1.05754 4.57225 2.81359C4.24089 3.07605 4.22366 3.52515 4.53034 3.82437L6.95264 6.25413C7.19787 6.50682 7.55853 6.52635 7.84052 6.31557C9.12213 5.34932 10.7185 4.77139 12.4367 4.77139Z"
                     fill="currentColor" fill-opacity="0.85" />
              <path d="M0 12.4367C0 15.519 1.12468 18.3446 2.98003 20.5147C3.23503 20.8186 3.66405 20.8036 3.96096 20.5119L6.39709 18.0683C6.64057 17.8225 6.65264 17.4808 6.43385 17.2029C5.38432 15.8753 4.77139 14.2244 4.77139 12.4367C4.77139 10.7185 5.34471 9.12728 6.30811 7.83822C6.51658 7.55853 6.51658 7.2128 6.25643 6.95264L3.82667 4.53034C3.52745 4.23112 3.07836 4.23859 2.80844 4.56995C1.05008 6.71026 0 9.45373 0 12.4367Z"
                     fill="currentColor" fill-opacity="0.85" />
              <path d="M11.7596 16.5254L11.9364 16.5254C12.9815 16.5254 14.197 16.2501 14.9685 15.6026C15.6033 15.0722 15.9848 14.3477 15.9848 13.6645C15.9848 13.1529 15.6047 12.7745 15.0247 12.7745C14.501 12.7745 14.2432 13.1138 14.0997 13.5331C14.0267 13.8201 13.9123 14.0662 13.7179 14.2675C13.3627 14.6118 12.8035 14.8049 12.2047 14.8049L12.2047 12.2343L14.1022 11.5408C14.2286 11.4949 14.2867 11.4024 14.2867 11.2806C14.2867 11.1226 14.1798 10.9933 14.0241 10.9933C13.973 10.9933 13.9316 11.0128 13.8856 11.0272L12.2047 11.6431L12.2047 10.5739L14.1022 9.88791C14.2309 9.84424 14.2867 9.74197 14.2867 9.61556C14.2867 9.48345 14.1959 9.34037 14.0264 9.34037C13.9753 9.34037 13.9316 9.35244 13.8856 9.36681L12.2047 9.98271L12.2047 9.03278C12.2047 8.44248 11.7988 8.02904 11.2182 8.02904C10.6377 8.02904 10.2317 8.44248 10.2317 9.03278L10.2317 10.6804L8.97886 11.136C8.84268 11.1774 8.78925 11.2624 8.78925 11.3865C8.78925 11.5422 8.90358 11.6738 9.04952 11.6738C9.09835 11.6738 9.15179 11.6617 9.19776 11.6422L10.2317 11.2642L10.2317 12.3334L8.97886 12.7941C8.84268 12.8401 8.78925 12.9205 8.78925 13.0469C8.78925 13.2003 8.90358 13.3319 9.04952 13.3319C9.09835 13.3319 9.15409 13.3147 9.20007 13.3003L10.2317 12.9246L10.2317 15.2007C10.2317 16.0109 10.8277 16.5254 11.7596 16.5254Z"
                     fill="currentColor" fill-opacity="0.85" />
       </g>
</svg>