<?xml version="1.0" encoding="UTF-8"?>
<!--Generator: Apple Native CoreSVG 326-->
<!DOCTYPE svg PUBLIC "-//W3C//DTD SVG 1.1//EN" "http://www.w3.org/Graphics/SVG/1.1/DTD/svg11.dtd">
<svg version="1.1" xmlns="http://www.w3.org/2000/svg" xmlns:xlink="http://www.w3.org/1999/xlink"
       viewBox="0 0 25.2371 20.7338">
       <g>
              <rect height="20.7338" opacity="0" width="25.2371" x="0" y="0" />
              <path d="M24.8758 12.3846C24.8758 5.93383 19.9627 0.631336 13.6785 0.00415235C13.2541-0.040066 12.9302 0.274072 12.9302 0.698483L12.9302 4.13058C12.9302 4.48379 13.1829 4.74109 13.5286 4.79046C17.2465 5.32405 20.1044 8.51741 20.1044 12.3846C20.1044 14.1648 19.4989 15.8157 18.4419 17.1359C18.2306 17.4138 18.2329 17.7555 18.4764 18.0012L20.9223 20.4523C21.2117 20.7567 21.6557 20.7417 21.9256 20.4328C23.7735 18.2551 24.8758 15.452 24.8758 12.3846Z"
                     fill="currentColor" fill-opacity="0.85" />
              <path d="M0 12.3846C0 15.4543 1.1023 18.2574 2.94273 20.4276C3.21265 20.7366 3.65429 20.7417 3.9535 20.4448L6.39194 17.9938C6.63541 17.748 6.63772 17.4063 6.42639 17.1284C5.38201 15.8157 4.77139 14.1648 4.77139 12.3846C4.77139 8.51741 7.63678 5.32405 11.3472 4.79046C11.7004 4.74109 11.9456 4.48379 11.9456 4.13058L11.9456 0.698483C11.9456 0.274072 11.6217-0.040066 11.1973 0.00415235C4.92054 0.631336 0 5.93383 0 12.3846Z"
                     fill="currentColor" fill-opacity="0.85" />
              <path d="M11.7596 16.4956L11.9364 16.4956C12.9815 16.4956 14.197 16.2203 14.9685 15.5728C15.6033 15.0425 15.9848 14.318 15.9848 13.6348C15.9848 13.1231 15.6047 12.7447 15.0247 12.7447C14.501 12.7447 14.2432 13.0841 14.0997 13.5033C14.0267 13.7903 13.9123 14.0364 13.7179 14.2377C13.3627 14.582 12.8035 14.7752 12.2047 14.7752L12.2047 12.2046L14.1022 11.5111C14.2286 11.4651 14.2867 11.3726 14.2867 11.2508C14.2867 11.0928 14.1798 10.9636 14.0241 10.9636C13.973 10.9636 13.9316 10.9831 13.8856 10.9975L12.2047 11.6134L12.2047 10.5442L14.1022 9.85815C14.2309 9.81448 14.2867 9.71222 14.2867 9.58581C14.2867 9.4537 14.1959 9.31061 14.0264 9.31061C13.9753 9.31061 13.9316 9.32268 13.8856 9.33706L12.2047 9.95296L12.2047 9.00303C12.2047 8.41272 11.7988 7.99929 11.2182 7.99929C10.6377 7.99929 10.2317 8.41272 10.2317 9.00303L10.2317 10.6507L8.97886 11.1063C8.84268 11.1476 8.78925 11.2327 8.78925 11.3568C8.78925 11.5125 8.90358 11.6441 9.04952 11.6441C9.09835 11.6441 9.15179 11.632 9.19776 11.6124L10.2317 11.2344L10.2317 12.3036L8.97886 12.7644C8.84268 12.8103 8.78925 12.8908 8.78925 13.0172C8.78925 13.1706 8.90358 13.3021 9.04952 13.3021C9.09835 13.3021 9.15409 13.2849 9.20007 13.2705L10.2317 12.8948L10.2317 15.171C10.2317 15.9811 10.8277 16.4956 11.7596 16.4956Z"
                     fill="currentColor" fill-opacity="0.85" />
       </g>
</svg>