<?xml version="1.0" encoding="UTF-8"?>
<!--Generator: Apple Native CoreSVG 326-->
<!DOCTYPE svg PUBLIC "-//W3C//DTD SVG 1.1//EN" "http://www.w3.org/Graphics/SVG/1.1/DTD/svg11.dtd">
<svg version="1.1" xmlns="http://www.w3.org/2000/svg" xmlns:xlink="http://www.w3.org/1999/xlink"
       viewBox="0 0 32.8144 28.6618">
       <g>
              <rect height="28.6618" opacity="0" width="32.8144" x="0" y="0" />
              <path d="M18.0882 24.5476C18.0882 24.7808 18.1021 25.0054 18.1338 25.2182L8.83619 25.2182C8.17522 25.2182 7.6446 24.6577 7.6446 24.0318C7.6446 23.4058 8.17522 22.8453 8.83619 22.8453L18.0882 22.8453ZM27.0297 6.71202L27.0297 11.1141L24.204 11.1141L24.204 7.08967C24.204 6.50889 23.9173 6.25947 23.3738 6.25947L4.84133 6.25947C4.29554 6.25947 4.00882 6.50889 4.00882 7.08967L4.00882 17.8041C4.00882 18.3775 4.29554 18.6343 4.84133 18.6343L18.0882 18.6343L18.0882 21.46L4.46138 21.46C2.40131 21.46 1.1757 20.2344 1.1757 18.1743L1.1757 6.71202C1.1757 4.65196 2.40131 3.42634 4.46138 3.42634L23.7463 3.42634C25.8064 3.42634 27.0297 4.65196 27.0297 6.71202Z"
                     fill="currentColor" fill-opacity="0.425" />
              <path d="M22.188 27.115L28.7147 27.115C30.343 27.115 31.27 26.1903 31.27 24.5476L31.27 15.2283C31.27 13.5856 30.343 12.6586 28.7147 12.6586L22.188 12.6586C20.5551 12.6586 19.6327 13.5856 19.6327 15.2283L19.6327 24.5476C19.6327 26.1903 20.5551 27.115 22.188 27.115ZM25.4611 18.3852C24.4691 18.3852 23.65 17.5959 23.6597 16.589C23.6621 15.5918 24.4691 14.7997 25.4611 14.7922C26.4583 14.7847 27.2504 15.5918 27.2504 16.589C27.2504 17.5959 26.4583 18.3852 25.4611 18.3852ZM25.4588 25.0972C23.8136 25.0972 22.5004 23.7892 22.5004 22.144C22.5004 20.4815 23.8136 19.1832 25.4588 19.1734C27.0868 19.1637 28.4098 20.4815 28.4098 22.144C28.4098 23.7892 27.0868 25.0972 25.4588 25.0972ZM25.4588 17.1602C25.776 17.1602 26.0255 16.916 26.0255 16.589C26.0255 16.262 25.776 16.0148 25.4588 16.0148C25.149 16.0148 24.8899 16.274 24.8899 16.589C24.8899 16.916 25.1318 17.1602 25.4588 17.1602ZM25.4588 23.0731C25.9806 23.0731 26.3903 22.6583 26.3903 22.144C26.3903 21.5981 25.9852 21.1855 25.4588 21.1855C24.937 21.1855 24.5199 21.5981 24.5199 22.144C24.5199 22.6583 24.937 23.0731 25.4588 23.0731Z"
                     fill="currentColor" fill-opacity="0.85" />
              <path d="M25.4611 18.3852C24.4691 18.3852 23.65 17.5959 23.6597 16.589C23.6621 15.5918 24.4691 14.7997 25.4611 14.7922C26.4583 14.7847 27.2504 15.5918 27.2504 16.589C27.2504 17.5959 26.4583 18.3852 25.4611 18.3852ZM25.4588 25.0972C23.8136 25.0972 22.5004 23.7892 22.5004 22.144C22.5004 20.4815 23.8136 19.1832 25.4588 19.1734C27.0868 19.1637 28.4098 20.4815 28.4098 22.144C28.4098 23.7892 27.0868 25.0972 25.4588 25.0972ZM25.4588 17.1602C25.776 17.1602 26.0255 16.916 26.0255 16.589C26.0255 16.262 25.776 16.0148 25.4588 16.0148C25.149 16.0148 24.8899 16.274 24.8899 16.589C24.8899 16.916 25.1318 17.1602 25.4588 17.1602ZM25.4588 23.0731C25.9806 23.0731 26.3903 22.6583 26.3903 22.144C26.3903 21.5981 25.9852 21.1855 25.4588 21.1855C24.937 21.1855 24.5199 21.5981 24.5199 22.144C24.5199 22.6583 24.937 23.0731 25.4588 23.0731Z"
                     fill="currentColor" fill-opacity="0.2125" />
       </g>
</svg>