<?xml version="1.0" encoding="UTF-8"?>
<!--Generator: Apple Native CoreSVG 326-->
<!DOCTYPE svg PUBLIC "-//W3C//DTD SVG 1.1//EN" "http://www.w3.org/Graphics/SVG/1.1/DTD/svg11.dtd">
<svg version="1.1" xmlns="http://www.w3.org/2000/svg" xmlns:xlink="http://www.w3.org/1999/xlink"
       viewBox="0 0 21.365 21.006">
       <g>
              <rect height="21.006" opacity="0" width="21.365" x="0" y="0" />
              <path d="M21.0037 10.4981C21.0037 16.2923 16.302 20.9962 10.4981 20.9962C4.70394 20.9962 0 16.2923 0 10.4981C0 4.70163 4.70394 0 10.4981 0C16.302 0 21.0037 4.70163 21.0037 10.4981ZM7.78624 14.751C7.31652 14.751 6.99261 15.0749 6.99261 15.5446C6.99261 16.0144 7.31652 16.3434 7.78624 16.3434L13.2221 16.3434C13.6843 16.3434 14.0082 16.0144 14.0082 15.5446C14.0082 15.0749 13.6843 14.751 13.2221 14.751ZM6.21021 5.87678C5.33767 5.87678 4.76666 6.44034 4.76666 7.30026L4.76666 12.5455C4.76666 13.4106 5.33767 13.9644 6.21021 13.9644L14.7739 13.9644C15.6465 13.9644 16.2198 13.4106 16.2198 12.5455L16.2198 7.30026C16.2198 6.44034 15.6465 5.87678 14.7739 5.87678ZM14.5585 7.81341L14.5585 12.0375C14.5585 12.2237 14.4303 12.3519 14.2389 12.3519L6.7475 12.3519C6.56359 12.3519 6.43543 12.2237 6.43543 12.0375L6.43543 7.81341C6.43543 7.62489 6.56359 7.49903 6.7475 7.49903L14.2389 7.49903C14.4303 7.49903 14.5585 7.62489 14.5585 7.81341Z"
                     fill="currentColor" fill-opacity="0.85" />
       </g>
</svg>