<?xml version="1.0" encoding="UTF-8"?>
<!--Generator: Apple Native CoreSVG 326-->
<!DOCTYPE svg PUBLIC "-//W3C//DTD SVG 1.1//EN" "http://www.w3.org/Graphics/SVG/1.1/DTD/svg11.dtd">
<svg version="1.1" xmlns="http://www.w3.org/2000/svg" xmlns:xlink="http://www.w3.org/1999/xlink"
       viewBox="0 0 21.365 21.006">
       <g>
              <rect height="21.006" opacity="0" width="21.365" x="0" y="0" />
              <path d="M10.4981 20.9962C16.302 20.9962 21.0037 16.2946 21.0037 10.4981C21.0037 4.70163 16.302 0 10.4981 0C4.70163 0 0 4.70163 0 10.4981C0 16.2946 4.70163 20.9962 10.4981 20.9962ZM10.4981 17.9484C6.37829 17.9484 3.04785 14.6179 3.04785 10.4981C3.04785 6.37829 6.37829 3.04785 10.4981 3.04785C14.6179 3.04785 17.9558 6.37829 17.9558 10.4981C17.9558 14.6179 14.6179 17.9484 10.4981 17.9484Z"
                     fill="currentColor" fill-opacity="0.85" />
              <path d="M6.47146 13.7944L14.5081 13.7944C15.3238 13.7944 15.8627 13.2676 15.8627 12.4594L15.8627 7.54198C15.8627 6.74119 15.3238 6.21209 14.5081 6.21209L6.47146 6.21209C5.65575 6.21209 5.11919 6.74119 5.11919 7.54198L5.11919 12.4594C5.11919 13.2676 5.65575 13.7944 6.47146 13.7944ZM6.96914 12.2858C6.795 12.2858 6.6766 12.1674 6.6766 11.991L6.6766 8.01036C6.6766 7.83161 6.795 7.72067 6.96914 7.72067L14.0127 7.72067C14.1868 7.72067 14.3052 7.83161 14.3052 8.01036L14.3052 11.991C14.3052 12.1674 14.1868 12.2858 14.0127 12.2858ZM7.95905 16.0081L13.0446 16.0081C13.4822 16.0081 13.7814 15.7112 13.7814 15.2662C13.7814 14.836 13.4822 14.5294 13.0446 14.5294L7.95905 14.5294C7.51401 14.5294 7.20734 14.836 7.20734 15.2662C7.20734 15.7112 7.51401 16.0081 7.95905 16.0081Z"
                     fill="currentColor" fill-opacity="0.85" />
       </g>
</svg>