<?xml version="1.0" encoding="UTF-8"?>
<!--Generator: Apple Native CoreSVG 326-->
<!DOCTYPE svg PUBLIC "-//W3C//DTD SVG 1.1//EN" "http://www.w3.org/Graphics/SVG/1.1/DTD/svg11.dtd">
<svg version="1.1" xmlns="http://www.w3.org/2000/svg" xmlns:xlink="http://www.w3.org/1999/xlink"
       viewBox="0 0 26.2153 28.3347">
       <g>
              <rect height="28.3347" opacity="0" width="26.2153" x="0" y="0" />
              <path d="M19.3874 23.8659C19.3874 24.4919 18.8619 25.0524 18.1935 25.0524L7.6605 25.0524C6.99207 25.0524 6.4666 24.4919 6.4666 23.8659C6.4666 23.2399 6.99207 22.6795 7.6605 22.6795L18.1935 22.6795C18.8619 22.6795 19.3874 23.2399 19.3874 23.8659ZM1.0027 4.10636L18.1823 21.2942L3.28568 21.2942C1.1928 21.2942 0 20.118 0 18.0085L0 6.54849C0 5.44669 0.327694 4.59723 0.943815 4.04122ZM25.854 6.54849L25.854 18.0085C25.854 19.3341 25.3839 20.2911 24.5141 20.8187L6.9686 3.26281L22.5683 3.26281C24.6635 3.26281 25.854 4.44639 25.854 6.54849Z"
                     fill="currentColor" fill-opacity="0.85" />
              <path d="M22.5337 23.4541C22.8714 23.7919 23.4171 23.7695 23.7473 23.4467C24.0753 23.1089 24.0851 22.5707 23.7473 22.233L3.32031 1.79851C2.98488 1.46078 2.43692 1.45848 2.09688 1.79851C1.77637 2.12648 1.77637 2.69167 2.09688 3.01218Z"
                     fill="currentColor" fill-opacity="0.85" />
       </g>
</svg>