<?xml version="1.0" encoding="UTF-8"?>
<!--Generator: Apple Native CoreSVG 326-->
<!DOCTYPE svg PUBLIC "-//W3C//DTD SVG 1.1//EN" "http://www.w3.org/Graphics/SVG/1.1/DTD/svg11.dtd">
<svg version="1.1" xmlns="http://www.w3.org/2000/svg" xmlns:xlink="http://www.w3.org/1999/xlink"
       viewBox="0 0 20.692 24.3789">
       <g>
              <rect height="24.3789" opacity="0" width="20.692" x="0" y="0" />
              <path d="M8.77657 3.7033L11.5466 3.7033L11.5466 1.40225C11.5466 0.602376 10.9316 0 10.1616 0C9.39156 0 8.77657 0.594915 8.77657 1.40225ZM1.27311 13.4147C1.85474 13.4147 2.27739 13.1396 2.92496 12.5413C3.34051 12.0623 3.79283 11.8387 4.34752 11.8387C4.89761 11.8387 5.34125 12.1145 5.92027 12.815C6.27687 13.2211 6.61624 13.4147 7.04635 13.4147C7.47877 13.4147 7.82791 13.2137 8.17244 12.8225C8.69232 12.2076 9.5076 11.8174 10.1616 11.8174C10.823 11.8174 11.6383 12.2076 12.1582 12.8225C12.4953 13.2137 12.8496 13.4147 13.2768 13.4147C13.7144 13.4147 14.0538 13.2211 14.4081 12.815C14.9819 12.1145 15.4256 11.8387 15.9757 11.8387C16.5378 11.8387 16.9901 12.0623 17.4034 12.5413C18.0509 13.1396 18.4661 13.4147 19.0575 13.4147C19.7696 13.4147 20.3306 12.8203 20.3306 12.0692C20.3306 8.21459 17.1248 2.45433 10.1616 2.45433C3.20585 2.45433 0 8.21459 0 12.0692C0 12.8203 0.561008 13.4147 1.27311 13.4147ZM10.1616 9.32405C9.07694 9.32405 7.94412 9.85885 7.276 10.6161C7.17495 10.7441 7.0762 10.7367 6.96768 10.6012C6.36792 9.85424 5.46717 9.33788 4.32514 9.33788C3.47802 9.33788 2.71661 9.58457 2.05121 10.214L2.82051 10.2399C3.68753 7.23475 6.61066 4.95512 10.1616 4.95512C13.6804 4.95512 16.5811 7.18538 17.4705 10.1532L18.1503 10.1273C17.5147 9.56965 16.8079 9.33788 16.0055 9.33788C14.8635 9.33788 13.9553 9.85424 13.3606 10.6012C13.2544 10.7367 13.1557 10.7418 13.0546 10.6161C12.3791 9.85885 11.2514 9.32405 10.1616 9.32405ZM7.87413 23.5853C9.95506 23.5853 11.5466 22.3593 11.5466 20.1791L11.5466 11.3188L8.77657 11.3188L8.77657 20.0821C8.77657 20.6035 8.38515 20.9949 7.85175 20.9949C7.32295 20.9949 6.9413 20.5885 6.9413 20.0448C6.9413 19.2322 6.36822 18.6201 5.58667 18.6201C4.75519 18.6201 4.16434 19.2397 4.16434 20.0821C4.16434 22.0535 5.7955 23.5853 7.87413 23.5853Z"
                     fill="currentColor" fill-opacity="0.85" />
       </g>
</svg>