<?xml version="1.0" encoding="UTF-8"?>
<!--Generator: Apple Native CoreSVG 326-->
<!DOCTYPE svg PUBLIC "-//W3C//DTD SVG 1.1//EN" "http://www.w3.org/Graphics/SVG/1.1/DTD/svg11.dtd">
<svg version="1.1" xmlns="http://www.w3.org/2000/svg" xmlns:xlink="http://www.w3.org/1999/xlink"
       viewBox="0 0 19.3993 19.0529">
       <g>
              <rect height="19.0529" opacity="0" width="19.3993" x="0" y="0" />
              <path d="M19.0379 3.63912L19.0379 15.4011C19.0379 17.7262 17.7164 19.0379 15.3896 19.0379L3.64834 19.0379C1.32382 19.0379 0 17.7262 0 15.4011L0 3.63912C0 1.32151 1.32382 0 3.64834 0L15.3896 0C17.7164 0 19.0379 1.32151 19.0379 3.63912ZM10.9758 6.13621L9.64268 11.4766L9.55194 11.4766L8.22108 6.13621C8.0103 5.14291 7.57964 4.73409 6.70517 4.73409C5.77385 4.73409 5.14624 5.31002 5.14624 6.19942C5.14624 6.45781 5.183 6.65707 5.27659 6.96253L7.14619 12.5226C7.54416 13.7658 8.20215 14.3204 9.57838 14.3204C10.9603 14.3204 11.6648 13.7267 12.0754 12.4583L13.9278 6.96253C14.0363 6.64214 14.0633 6.42051 14.0633 6.16957C14.0633 5.30025 13.4231 4.73409 12.4843 4.73409C11.6098 4.73409 11.1866 5.12799 10.9758 6.13621Z"
                     fill="currentColor" fill-opacity="0.85" />
       </g>
</svg>