<?xml version="1.0" encoding="UTF-8"?>
<!--Generator: Apple Native CoreSVG 326-->
<!DOCTYPE svg PUBLIC "-//W3C//DTD SVG 1.1//EN" "http://www.w3.org/Graphics/SVG/1.1/DTD/svg11.dtd">
<svg version="1.1" xmlns="http://www.w3.org/2000/svg" xmlns:xlink="http://www.w3.org/1999/xlink"
       viewBox="0 0 19.3993 19.0529">
       <g>
              <rect height="19.0529" opacity="0" width="19.3993" x="0" y="0" />
              <path d="M3.64834 19.0379L15.3896 19.0379C17.7164 19.0379 19.0379 17.7262 19.0379 15.4011L19.0379 3.63912C19.0379 1.32151 17.7164 0 15.3896 0L3.64834 0C1.32382 0 0 1.32151 0 3.63912L0 15.4011C0 17.7262 1.32382 19.0379 3.64834 19.0379ZM4.05583 16.0183C3.37024 16.0183 3.01964 15.7096 3.01964 14.9775L3.01964 4.07021C3.01964 3.33809 3.37024 3.0271 4.05583 3.0271L14.9821 3.0271C15.6654 3.0271 16.0183 3.33809 16.0183 4.07021L16.0183 14.9775C16.0183 15.7096 15.6654 16.0183 14.9821 16.0183Z"
                     fill="currentColor" fill-opacity="0.85" />
              <path d="M9.48885 14.0173C10.7766 14.0173 11.4341 13.4632 11.82 12.2838L13.5695 7.10726C13.6631 6.80925 13.6976 6.6123 13.6976 6.36883C13.6976 5.5638 13.1044 5.02978 12.23 5.02978C11.4123 5.02978 11.019 5.399 10.8179 6.33547L9.55315 11.3612L9.46987 11.3612L8.20737 6.33547C8.00636 5.40646 7.60554 5.02978 6.79536 5.02978C5.92088 5.02978 5.3478 5.57357 5.3478 6.39867C5.3478 6.64214 5.38456 6.82417 5.46323 7.10726L7.23002 12.3458C7.59584 13.5022 8.21422 14.0173 9.48885 14.0173Z"
                     fill="currentColor" fill-opacity="0.85" />
       </g>
</svg>