<?xml version="1.0" encoding="UTF-8"?>
<!--Generator: Apple Native CoreSVG 326-->
<!DOCTYPE svg PUBLIC "-//W3C//DTD SVG 1.1//EN" "http://www.w3.org/Graphics/SVG/1.1/DTD/svg11.dtd">
<svg version="1.1" xmlns="http://www.w3.org/2000/svg" xmlns:xlink="http://www.w3.org/1999/xlink"
       viewBox="0 0 25.523 16.7943">
       <g>
              <rect height="16.7943" opacity="0" width="25.523" x="0" y="0" />
              <path d="M4.29524 16.7845L13.9479 16.7845C16.448 16.7845 17.7989 15.4428 17.7989 13.0845L17.7989 3.69772C17.7989 1.34171 16.4785 0 13.9784 0L4.29524 0C1.81592 0 0.444243 1.34171 0.444243 3.70518L0.444243 13.3158C0.444243 15.6741 1.78771 16.7845 4.29524 16.7845ZM19.515 12.2654L22.2565 14.5955C22.8496 15.0974 23.382 15.4321 23.9574 15.4321C24.8609 15.4321 25.523 14.8158 25.523 13.8136L25.523 3.15745C25.523 2.15523 24.8609 1.5389 23.9574 1.5389C23.3745 1.5389 22.8571 1.87367 22.2565 2.37553L19.515 4.70333Z"
                     fill="currentColor" fill-opacity="0.85" />
       </g>
</svg>