<?xml version="1.0" encoding="UTF-8"?>
<!--Generator: Apple Native CoreSVG 326-->
<!DOCTYPE svg PUBLIC "-//W3C//DTD SVG 1.1//EN" "http://www.w3.org/Graphics/SVG/1.1/DTD/svg11.dtd">
<svg version="1.1" xmlns="http://www.w3.org/2000/svg" xmlns:xlink="http://www.w3.org/1999/xlink"
       viewBox="0 0 14.8049 23.7171">
       <g>
              <rect height="23.7171" opacity="0" width="14.8049" x="0" y="0" />
              <path d="M14.4435 6.93396L14.4435 16.7733C14.4435 20.8423 11.4688 23.7073 7.22923 23.7073C2.98452 23.7073 0 20.8423 0 16.7733L0 6.93396C0 2.86272 2.98452 0 7.22923 0C11.4688 0 14.4435 2.86272 14.4435 6.93396ZM3.40693 16.4957C3.40693 18.6229 5.08716 20.3106 7.22923 20.3106C9.36384 20.3106 11.0343 18.6229 11.0343 16.4957C11.0343 14.3537 9.36384 12.6683 7.22923 12.6683C5.08716 12.6683 3.40693 14.3537 3.40693 16.4957ZM9.1914 16.4957C9.1914 17.5943 8.31807 18.4527 7.22923 18.4527C6.12317 18.4527 5.24985 17.5943 5.24985 16.4957C5.24985 15.3897 6.12317 14.5163 7.22923 14.5163C8.31807 14.5163 9.1914 15.3897 9.1914 16.4957ZM3.40693 7.20467C3.40693 9.34674 5.08716 11.0321 7.22923 11.0321C9.36384 11.0321 11.0343 9.34674 11.0343 7.20467C11.0343 5.07006 9.36384 3.38983 7.22923 3.38983C5.08716 3.38983 3.40693 5.07006 3.40693 7.20467ZM8.47705 7.20467C8.47705 7.93369 7.93357 8.47948 7.22923 8.47948C6.51743 8.47948 5.96419 7.93369 5.96419 7.20467C5.96419 6.49802 6.51743 5.95224 7.22923 5.95224C7.93357 5.95224 8.47705 6.49802 8.47705 7.20467Z"
                     fill="currentColor" fill-opacity="0.85" />
       </g>
</svg>