<?xml version="1.0" encoding="UTF-8"?>
<!--Generator: Apple Native CoreSVG 326-->
<!DOCTYPE svg PUBLIC "-//W3C//DTD SVG 1.1//EN" "http://www.w3.org/Graphics/SVG/1.1/DTD/svg11.dtd">
<svg version="1.1" xmlns="http://www.w3.org/2000/svg" xmlns:xlink="http://www.w3.org/1999/xlink"
       viewBox="0 0 30.8201 23.643">
       <g>
              <rect height="23.643" opacity="0" width="30.8201" x="0" y="0" />
              <path d="M16.9356 20.1972C16.8267 20.2059 16.7129 20.2089 16.5965 20.2089L6.94379 20.2089C4.43626 20.2089 3.09279 19.0984 3.09279 16.7401L3.09279 7.12953C3.09279 6.88337 3.10767 6.6483 3.14064 6.42741ZM28.1716 6.5818L28.1716 17.2379C28.1716 18.2401 27.5094 18.8565 26.6059 18.8565C26.0305 18.8565 25.4982 18.5217 24.905 18.0198L22.1635 15.6897L22.1635 8.12768L24.905 5.79989C25.5056 5.29802 26.0231 4.96326 26.6059 4.96326C27.5094 4.96326 28.1716 5.57958 28.1716 6.5818ZM20.4475 7.12207L20.4475 16.5088C20.4475 16.7223 20.4364 16.9275 20.4105 17.1211L6.71464 3.43229C6.78773 3.4257 6.8652 3.42435 6.94379 3.42435L16.627 3.42435C19.127 3.42435 20.4475 4.76606 20.4475 7.12207Z"
                     fill="currentColor" fill-opacity="0.85" />
              <path d="M20.6129 21.8059C20.9431 22.1361 21.4986 22.1436 21.8265 21.8059C22.1493 21.4756 22.1568 20.9299 21.8265 20.5922L2.92738 1.71027C2.58965 1.37254 2.04399 1.37254 1.70395 1.71027C1.37598 2.03824 1.37598 2.60343 1.70395 2.92394Z"
                     fill="currentColor" fill-opacity="0.85" />
       </g>
</svg>