<?xml version="1.0" encoding="UTF-8"?>
<!--Generator: Apple Native CoreSVG 326-->
<!DOCTYPE svg PUBLIC "-//W3C//DTD SVG 1.1//EN" "http://www.w3.org/Graphics/SVG/1.1/DTD/svg11.dtd">
<svg version="1.1" xmlns="http://www.w3.org/2000/svg" xmlns:xlink="http://www.w3.org/1999/xlink"
       viewBox="0 0 23.3769 22.7532">
       <g>
              <rect height="22.7532" opacity="0" width="23.3769" x="0" y="0" />
              <path d="M7.19957 22.7532C7.95414 22.7532 8.59206 22.4471 9.53095 21.6363L12.7882 18.8023L18.0654 18.8023C21.095 18.8023 23.0156 16.8627 23.0156 13.8447L23.0156 5.96886C23.0156 2.95086 21.095 1.01126 18.0654 1.01126L4.95014 1.01126C1.92061 1.01126 0 2.94855 0 5.96886L0 13.8447C0 16.8651 2.09221 18.8023 4.68902 18.8023L5.39651 18.8023L5.39651 20.7819C5.39651 22.0038 6.08326 22.7532 7.19957 22.7532ZM7.91331 19.4218L7.91331 16.7763C7.91331 16.0549 7.53664 15.7827 6.91977 15.7827L5.18142 15.7827C3.74594 15.7827 3.01964 15.0604 3.01964 13.6186L3.01964 6.19268C3.01964 4.75095 3.74594 4.0309 5.18142 4.0309L17.8342 4.0309C19.2673 4.0309 19.9959 4.75095 19.9959 6.19268L19.9959 13.6186C19.9959 15.0604 19.2673 15.7827 17.8342 15.7827L12.5431 15.7827C11.7948 15.7827 11.484 15.9354 10.9339 16.473Z"
                     fill="currentColor" fill-opacity="0.85" />
              <path d="M8.03754 13.5127L12.2933 13.5127C13.3594 13.5127 13.9356 12.9388 13.9356 11.9421L13.9356 7.90591C13.9356 6.90927 13.371 6.33771 12.3123 6.33771L8.03754 6.33771C6.99789 6.33771 6.40274 6.90927 6.40274 7.90591L6.40274 12.0317C6.40274 13.0358 6.98121 13.5127 8.03754 13.5127ZM14.4825 11.4969L15.7601 12.5785C16.0105 12.7773 16.2333 12.9197 16.4762 12.9197C16.8623 12.9197 17.1386 12.6686 17.1386 12.2384L17.1386 7.67681C17.1386 7.25404 16.8623 6.99553 16.4762 6.99553C16.2333 6.99553 16.0156 7.13795 15.7601 7.34181L14.4825 8.42058Z"
                     fill="currentColor" fill-opacity="0.85" />
       </g>
</svg>