<?xml version="1.0" encoding="UTF-8"?>
<!--Generator: Apple Native CoreSVG 326-->
<!DOCTYPE svg PUBLIC "-//W3C//DTD SVG 1.1//EN" "http://www.w3.org/Graphics/SVG/1.1/DTD/svg11.dtd">
<svg version="1.1" xmlns="http://www.w3.org/2000/svg" xmlns:xlink="http://www.w3.org/1999/xlink"
       viewBox="0 0 31.8722 15.9038">
       <g>
              <rect height="15.9038" opacity="0" width="31.8722" x="0" y="0" />
              <path d="M14.2724 13.4146L11.3705 10.6561L3.83826 10.6561C3.32262 10.6561 3.01964 10.3578 3.01964 9.84672L3.01964 4.05607C3.01964 3.55481 3.32262 3.23922 3.83826 3.23922L11.6693 3.23922L14.1848 0.4807L3.60697 0.4807C1.29628 0.4807 0 1.77753 0 4.07845L0 9.81688C0 12.123 1.29628 13.4146 3.60697 13.4146ZM19.833 10.6561L16.8579 13.4146L27.9015 13.4146C30.2169 13.4146 31.5108 12.123 31.5108 9.81688L31.5108 4.07845C31.5108 1.77753 30.2169 0.4807 27.9015 0.4807L17.1441 0.4807L19.9106 3.23922L27.6703 3.23922C28.1859 3.23922 28.4912 3.55481 28.4912 4.05607L28.4912 9.84672C28.4912 10.3578 28.1859 10.6561 27.6703 10.6561ZM15.7445 13.8902C19.6623 13.8902 22.7019 10.8557 22.7019 6.94997C22.7019 3.03444 19.6623 0 15.7445 0C11.8462 0 8.80659 3.03444 8.80659 6.94997C8.80659 10.8557 11.8462 13.8902 15.7445 13.8902ZM15.7445 11.5128C13.1836 11.5128 11.1839 9.50572 11.1839 6.94997C11.1839 4.38446 13.1836 2.37736 15.7445 2.37736C18.31 2.37736 20.3246 4.38446 20.3246 6.94997C20.3246 9.50572 18.31 11.5128 15.7445 11.5128ZM15.7445 10.5127C17.7493 10.5127 19.3244 8.94501 19.3244 6.94997C19.3244 4.95493 17.7493 3.37751 15.7445 3.37751C13.7495 3.37751 12.1818 4.95493 12.1818 6.94997C12.1818 8.94501 13.7495 10.5127 15.7445 10.5127ZM15.7445 8.42015C14.9175 8.42015 14.2743 7.77702 14.2743 6.94997C14.2743 6.11547 14.9175 5.47003 15.7445 5.47003C16.579 5.47003 17.2319 6.11547 17.2319 6.94997C17.2319 7.77702 16.579 8.42015 15.7445 8.42015ZM8.49719 12.0878L2.22765 12.0878L2.22765 14.053C2.22765 14.8374 2.7812 15.3985 3.57307 15.3985L7.15178 15.3985C7.95341 15.3985 8.49719 14.8374 8.49719 14.053ZM23.0136 12.0878L23.0136 14.053C23.0136 14.8374 23.5649 15.3985 24.3591 15.3985L27.9355 15.3985C28.7296 15.3985 29.2832 14.8374 29.2832 14.053L29.2832 12.0878ZM23.6616 5.18391C23.6616 5.73352 24.0642 6.13609 24.6213 6.13609L26.5726 6.13609C27.1222 6.13609 27.5271 5.73352 27.5271 5.18391C27.5271 4.62685 27.1222 4.22197 26.5726 4.22197L24.6213 4.22197C24.0642 4.22197 23.6616 4.62685 23.6616 5.18391ZM23.6616 7.83301C23.6616 8.38261 24.0642 8.78749 24.6213 8.78749L26.5726 8.78749C27.1222 8.78749 27.5271 8.38261 27.5271 7.83301C27.5271 7.27594 27.1222 6.87337 26.5726 6.87337L24.6213 6.87337C24.0642 6.87337 23.6616 7.27594 23.6616 7.83301Z"
                     fill="currentColor" fill-opacity="0.85" />
       </g>
</svg>