<?xml version="1.0" encoding="UTF-8"?>
<!--Generator: Apple Native CoreSVG 326-->
<!DOCTYPE svg PUBLIC "-//W3C//DTD SVG 1.1//EN" "http://www.w3.org/Graphics/SVG/1.1/DTD/svg11.dtd">
<svg version="1.1" xmlns="http://www.w3.org/2000/svg" xmlns:xlink="http://www.w3.org/1999/xlink"
       viewBox="0 0 25.848 17.1686">
       <g>
              <rect height="17.1686" opacity="0" width="25.848" x="0" y="0" />
              <path d="M4.81009 17.1589L14.8212 17.1589C17.674 17.1589 19.2192 15.6229 19.2192 12.9268L19.2192 4.22233C19.2192 1.53593 17.674 0 14.8212 0L4.81009 0C1.9826 0 0.412095 1.53593 0.412095 4.23725L0.412095 13.1804C0.412095 15.8617 1.94979 17.1589 4.81009 17.1589ZM5.2775 14.5502C3.95199 14.5502 3.20046 13.7798 3.20046 12.5007L3.20046 4.65814C3.20046 3.2872 3.95199 2.59887 5.2775 2.59887L14.3538 2.59887C15.6695 2.59887 16.4234 3.36926 16.4234 4.65814L16.4234 12.5007C16.4234 13.7798 15.6322 14.5502 14.3314 14.5502ZM18.5768 5.64362L18.5768 8.42422L22.9492 4.94444C23.0147 4.89101 23.0658 4.8571 23.1388 4.8571C23.2187 4.8571 23.2749 4.91745 23.2749 5.02433L23.2749 12.3285C23.2749 12.4279 23.2187 12.4934 23.1388 12.4934C23.0658 12.4934 23.0147 12.4521 22.9492 12.4009L18.5768 8.92863L18.5768 11.6995L22.2093 14.8034C22.8685 15.3644 23.4623 15.7382 24.1089 15.7382C25.1175 15.7382 25.848 15.0438 25.848 13.9267L25.848 3.42616C25.848 2.30159 25.1175 1.60714 24.1089 1.60714C23.4548 1.60714 22.8685 1.98097 22.2093 2.54198Z"
                     fill="currentColor" fill-opacity="0.85" />
       </g>
</svg>