<?xml version="1.0" encoding="UTF-8"?>
<!--Generator: Apple Native CoreSVG 326-->
<!DOCTYPE svg PUBLIC "-//W3C//DTD SVG 1.1//EN" "http://www.w3.org/Graphics/SVG/1.1/DTD/svg11.dtd">
<svg version="1.1" xmlns="http://www.w3.org/2000/svg" xmlns:xlink="http://www.w3.org/1999/xlink"
       viewBox="0 0 21.365 21.006">
       <g>
              <rect height="21.006" opacity="0" width="21.365" x="0" y="0" />
              <path d="M21.0037 10.4981C21.0037 16.2946 16.302 20.9962 10.4981 20.9962C4.70163 20.9962 0 16.2946 0 10.4981C0 4.70163 4.70163 0 10.4981 0C16.302 0 21.0037 4.70163 21.0037 10.4981ZM3.04785 10.4981C3.04785 14.6179 6.37829 17.9484 10.4981 17.9484C14.6179 17.9484 17.9558 14.6179 17.9558 10.4981C17.9558 6.37829 14.6179 3.04785 10.4981 3.04785C6.37829 3.04785 3.04785 6.37829 3.04785 10.4981Z"
                     fill="currentColor" fill-opacity="0.85" />
              <path d="M5.77907 7.7066L12.0429 13.9704C11.8274 14.0564 11.5717 14.1002 11.2791 14.1002L7.02325 14.1002C5.96692 14.1002 5.38844 13.6234 5.38844 12.6193L5.38844 8.49349C5.38844 8.11166 5.4747 7.79223 5.64072 7.54406C5.68085 7.60134 5.72749 7.65546 5.77907 7.7066ZM16.1168 8.26439L16.1168 12.8237C16.1168 13.2562 15.8428 13.5147 15.4545 13.5147C15.4356 13.5147 15.4168 13.5139 15.3981 13.5119C15.3484 13.4371 15.2903 13.3659 15.2241 13.2994L13.4607 11.5366L13.4607 9.00585L14.7458 7.92939C14.9939 7.72552 15.2116 7.5831 15.4545 7.5831C15.8428 7.5831 16.1168 7.84162 16.1168 8.26439ZM12.9139 8.49349L12.9139 10.9899L8.84801 6.92529L11.298 6.92529C12.3567 6.92529 12.9139 7.49685 12.9139 8.49349Z"
                     fill="currentColor" fill-opacity="0.85" />
              <path d="M13.8198 14.7013C14.0604 14.9345 14.4653 14.9443 14.7059 14.7013C14.9563 14.4584 14.9563 14.0581 14.7059 13.8077L7.20054 6.30004C6.94785 6.04966 6.54012 6.04966 6.29719 6.30004C6.0468 6.54297 6.0468 6.94555 6.29719 7.18617Z"
                     fill="currentColor" fill-opacity="0.85" />
       </g>
</svg>