<?xml version="1.0" encoding="UTF-8"?>
<!--Generator: Apple Native CoreSVG 326-->
<!DOCTYPE svg PUBLIC "-//W3C//DTD SVG 1.1//EN" "http://www.w3.org/Graphics/SVG/1.1/DTD/svg11.dtd">
<svg version="1.1" xmlns="http://www.w3.org/2000/svg" xmlns:xlink="http://www.w3.org/1999/xlink"
       viewBox="0 0 19.3993 19.0529">
       <g>
              <rect height="19.0529" opacity="0" width="19.3993" x="0" y="0" />
              <path d="M3.64834 19.0379L15.3896 19.0379C17.7164 19.0379 19.0379 17.7262 19.0379 15.4011L19.0379 3.63912C19.0379 1.32151 17.7164 0 15.3896 0L3.64834 0C1.32382 0 0 1.32151 0 3.63912L0 15.4011C0 17.7262 1.32382 19.0379 3.64834 19.0379ZM4.05583 16.0183C3.37024 16.0183 3.01964 15.7096 3.01964 14.9775L3.01964 4.07021C3.01964 3.33809 3.37024 3.0271 4.05583 3.0271L14.9821 3.0271C15.6654 3.0271 16.0183 3.33809 16.0183 4.07021L16.0183 14.9775C16.0183 15.7096 15.6654 16.0183 14.9821 16.0183Z"
                     fill="currentColor" fill-opacity="0.85" />
              <path d="M6.05129 13.1237L10.3071 13.1237C11.3657 13.1237 11.9419 12.5498 11.9419 11.5532L11.9419 7.51693C11.9419 6.52029 11.3847 5.94872 10.3186 5.94872L6.05129 5.94872C5.00419 5.94872 4.41649 6.52029 4.41649 7.51693L4.41649 11.6427C4.41649 12.6468 4.99497 13.1237 6.05129 13.1237ZM12.4888 11.1079L13.7761 12.1896C14.0168 12.3957 14.2396 12.5382 14.4825 12.5382C14.8709 12.5382 15.1448 12.2796 15.1448 11.8471L15.1448 7.28783C15.1448 6.86505 14.8709 6.60654 14.4825 6.60654C14.2396 6.60654 14.0219 6.74896 13.7761 6.95282L12.4888 8.02929Z"
                     fill="currentColor" fill-opacity="0.85" />
       </g>
</svg>