<?xml version="1.0" encoding="UTF-8"?>
<!--Generator: Apple Native CoreSVG 326-->
<!DOCTYPE svg PUBLIC "-//W3C//DTD SVG 1.1//EN" "http://www.w3.org/Graphics/SVG/1.1/DTD/svg11.dtd">
<svg version="1.1" xmlns="http://www.w3.org/2000/svg" xmlns:xlink="http://www.w3.org/1999/xlink"
       viewBox="0 0 21.365 21.006">
       <g>
              <rect height="21.006" opacity="0" width="21.365" x="0" y="0" />
              <path d="M10.4981 20.9962C16.302 20.9962 21.0037 16.2946 21.0037 10.4981C21.0037 4.70163 16.302 0 10.4981 0C4.70163 0 0 4.70163 0 10.4981C0 16.2946 4.70163 20.9962 10.4981 20.9962ZM10.4981 17.9484C6.37829 17.9484 3.04785 14.6179 3.04785 10.4981C3.04785 6.37829 6.37829 3.04785 10.4981 3.04785C14.6179 3.04785 17.9558 6.37829 17.9558 10.4981C17.9558 14.6179 14.6179 17.9484 10.4981 17.9484Z"
                     fill="currentColor" fill-opacity="0.85" />
              <path d="M7.02325 14.1002L11.2791 14.1002C12.3377 14.1002 12.9139 13.5264 12.9139 12.5297L12.9139 8.49349C12.9139 7.49685 12.3567 6.92529 11.298 6.92529L7.02325 6.92529C5.97614 6.92529 5.38844 7.49685 5.38844 8.49349L5.38844 12.6193C5.38844 13.6234 5.96692 14.1002 7.02325 14.1002ZM13.4607 12.0845L14.7458 13.1661C14.9887 13.3723 15.2116 13.5147 15.4545 13.5147C15.8428 13.5147 16.1168 13.2562 16.1168 12.8237L16.1168 8.26439C16.1168 7.84162 15.8428 7.5831 15.4545 7.5831C15.2116 7.5831 14.9939 7.72552 14.7458 7.92939L13.4607 9.00585Z"
                     fill="currentColor" fill-opacity="0.85" />
       </g>
</svg>