<?xml version="1.0" encoding="UTF-8"?>
<!--Generator: Apple Native CoreSVG 326-->
<!DOCTYPE svg PUBLIC "-//W3C//DTD SVG 1.1//EN" "http://www.w3.org/Graphics/SVG/1.1/DTD/svg11.dtd">
<svg version="1.1" xmlns="http://www.w3.org/2000/svg" xmlns:xlink="http://www.w3.org/1999/xlink"
       viewBox="0 0 31.8722 15.6644">
       <g>
              <rect height="15.6644" opacity="0" width="31.8722" x="0" y="0" />
              <path d="M15.7445 13.6507C19.5967 13.6507 22.5822 10.6704 22.5822 6.83024C22.5822 2.98034 19.5967 0 15.7445 0C11.9118 0 8.92633 2.98034 8.92633 6.83024C8.92633 10.6704 11.9118 13.6507 15.7445 13.6507ZM15.7445 11.2416C13.2746 11.2416 11.3331 9.30015 11.3331 6.83024C11.3331 4.35056 13.2746 2.40908 15.7445 2.40908C18.2265 2.40908 20.1731 4.35056 20.1731 6.83024C20.1731 9.30015 18.2265 11.2416 15.7445 11.2416ZM15.7445 10.3019C17.698 10.3019 19.2334 8.77633 19.2334 6.83024C19.2334 4.88415 17.698 3.34876 15.7445 3.34876C13.7984 3.34876 12.2728 4.88415 12.2728 6.83024C12.2728 8.77633 13.7984 10.3019 15.7445 10.3019ZM7.70914 6.83024C7.70914 4.14954 8.96023 1.80834 10.9081 0.360965L3.60697 0.360965C1.29628 0.360965 0 1.65779 0 3.95872L0 9.69715C0 12.0032 1.29628 13.2949 3.60697 13.2949L10.9086 13.2949C8.95047 11.8452 7.70914 9.50632 7.70914 6.83024ZM27.9015 0.360965L20.6004 0.360965C22.5534 1.80834 23.8068 4.14954 23.8068 6.83024C23.8068 9.50632 22.5581 11.8452 20.5976 13.2949L27.9015 13.2949C30.2169 13.2949 31.5108 12.0032 31.5108 9.69715L31.5108 3.95872C31.5108 1.65779 30.2169 0.360965 27.9015 0.360965ZM25.2088 4.98211C25.2088 4.3952 25.6263 3.96794 26.2132 3.96794L28.2765 3.96794C28.8634 3.96794 29.2832 4.3952 29.2832 4.98211C29.2832 5.56902 28.8634 6.00144 28.2765 6.00144L26.2132 6.00144C25.6263 6.00144 25.2088 5.56902 25.2088 4.98211ZM25.2088 7.95947C25.2088 7.37257 25.6263 6.94761 26.2132 6.94761L28.2765 6.94761C28.8634 6.94761 29.2832 7.37257 29.2832 7.95947C29.2832 8.54638 28.8634 8.98111 28.2765 8.98111L26.2132 8.98111C25.6263 8.98111 25.2088 8.54638 25.2088 7.95947ZM8.49719 11.968L2.22765 11.968L2.22765 13.9333C2.22765 14.7177 2.7812 15.2787 3.57307 15.2787L7.15178 15.2787C7.95341 15.2787 8.49719 14.7177 8.49719 13.9333ZM23.0136 11.968L23.0136 13.9333C23.0136 14.7177 23.5649 15.2787 24.3591 15.2787L27.9355 15.2787C28.7296 15.2787 29.2832 14.7177 29.2832 13.9333L29.2832 11.968Z"
                     fill="currentColor" fill-opacity="0.85" />
       </g>
</svg>