<?xml version="1.0" encoding="UTF-8"?>
<!--Generator: Apple Native CoreSVG 326-->
<!DOCTYPE svg PUBLIC "-//W3C//DTD SVG 1.1//EN" "http://www.w3.org/Graphics/SVG/1.1/DTD/svg11.dtd">
<svg version="1.1" xmlns="http://www.w3.org/2000/svg" xmlns:xlink="http://www.w3.org/1999/xlink"
       viewBox="0 0 21.365 21.006">
       <g>
              <rect height="21.006" opacity="0" width="21.365" x="0" y="0" />
              <path d="M21.0037 10.5079C21.0037 16.3043 16.302 21.006 10.4981 21.006C4.70394 21.006 0 16.3043 0 10.5079C0 4.7137 4.70394 0.00976562 10.4981 0.00976562C16.302 0.00976562 21.0037 4.7137 21.0037 10.5079ZM6.81368 6.7088C5.69767 6.7088 5.07036 7.31482 5.07036 8.3729L5.07036 12.7668C5.07036 13.8352 5.68845 14.3391 6.81368 14.3391L11.3376 14.3391C12.4703 14.3391 13.0787 13.7308 13.0787 12.6773L13.0787 8.3729C13.0787 7.31482 12.4916 6.7088 11.3566 6.7088ZM15.0209 7.78181L13.6674 8.92433L13.6674 12.2056L15.0209 13.3482C15.2862 13.5716 15.5286 13.7191 15.7789 13.7191C16.1971 13.7191 16.4883 13.4457 16.4883 12.9862L16.4883 8.12888C16.4883 7.67912 16.1971 7.40568 15.7789 7.40568C15.5286 7.40568 15.289 7.55326 15.0209 7.78181Z"
                     fill="currentColor" fill-opacity="0.85" />
       </g>
</svg>