<?xml version="1.0" encoding="UTF-8"?>
<!--Generator: Apple Native CoreSVG 326-->
<!DOCTYPE svg PUBLIC "-//W3C//DTD SVG 1.1//EN" "http://www.w3.org/Graphics/SVG/1.1/DTD/svg11.dtd">
<svg version="1.1" xmlns="http://www.w3.org/2000/svg" xmlns:xlink="http://www.w3.org/1999/xlink"
       viewBox="0 0 26.3636 15.1102">
       <g>
              <rect height="15.1102" opacity="0" width="26.3636" x="0" y="0" />
              <path d="M15.0556 14.8833L19.0571 14.8833C23.2366 14.8833 26.0138 11.9239 26.0138 7.47616C26.0138 3.12488 23.2366 0.239531 19.0571 0.239531L15.0556 0.239531C13.944 0.239531 13.2367 0.896983 13.2367 2.01833L13.2367 13.1022C13.2367 14.2333 13.944 14.8833 15.0556 14.8833ZM16.8769 11.9687L16.8769 3.14957L18.5818 3.14957C20.8228 3.14957 22.3047 4.88767 22.3047 7.47847C22.3047 10.176 20.8228 11.9687 18.5818 11.9687Z"
                     fill="currentColor" fill-opacity="0.85" />
              <path d="M1.6163 14.9028L9.97028 14.9028C10.8316 14.9028 11.4201 14.3516 11.4201 13.5075C11.4201 12.6583 10.8391 12.1145 9.97028 12.1145L4.60786 12.1145L4.60786 12.0358L8.2747 8.75758C10.1587 7.06128 10.9939 5.91178 10.9939 4.35565C10.9939 1.80597 8.80769 0 5.42259 0C2.7032 0 0.789257 1.13051 0.136173 3.09546C0.0413674 3.38273 0 3.62632 0 3.93015C0 4.77654 0.596553 5.35994 1.49287 5.35994C2.28012 5.35994 2.75894 5.01826 3.03226 4.32108C3.11039 4.07803 3.21781 3.8792 3.35168 3.68498C3.75965 3.10681 4.42571 2.74414 5.3256 2.74414C6.60175 2.74414 7.45117 3.52169 7.45117 4.55776C7.45117 5.41968 7.01687 6.12917 5.67268 7.35455L0.94569 11.6195C0.311712 12.1863 0.00339687 12.7364 0.00339687 13.3812C0.00339687 14.3143 0.628701 14.9028 1.6163 14.9028Z"
                     fill="currentColor" fill-opacity="0.85" />
       </g>
</svg>