<?xml version="1.0" encoding="UTF-8"?>
<!--Generator: Apple Native CoreSVG 326-->
<!DOCTYPE svg PUBLIC "-//W3C//DTD SVG 1.1//EN" "http://www.w3.org/Graphics/SVG/1.1/DTD/svg11.dtd">
<svg version="1.1" xmlns="http://www.w3.org/2000/svg" xmlns:xlink="http://www.w3.org/1999/xlink"
       viewBox="0 0 21.365 21.006">
       <g>
              <rect height="21.006" opacity="0" width="21.365" x="0" y="0" />
              <path d="M21.0037 10.4981C21.0037 16.2923 16.302 20.9962 10.4981 20.9962C4.70394 20.9962 0 16.2923 0 10.4981C0 4.70163 4.70394 0 10.4981 0C16.302 0 21.0037 4.70163 21.0037 10.4981ZM5.35799 12.3696L5.35799 13.5284C5.35799 14.8358 6.1615 15.637 7.4758 15.637L8.63233 15.637C9.30306 15.637 9.72286 15.2247 9.72286 14.5539C9.72286 13.8953 9.28814 13.4634 8.63233 13.4634L8.00915 13.4634C7.66954 13.4634 7.5316 13.3255 7.5316 12.9761L7.5316 12.3696C7.5316 11.6942 7.12157 11.2767 6.44107 11.2767C5.77033 11.2767 5.35799 11.704 5.35799 12.3696ZM13.4226 12.3696L13.4226 12.9761C13.4226 13.3255 13.2846 13.4634 12.945 13.4634L12.3219 13.4634C11.666 13.4634 11.2313 13.8953 11.2313 14.5539C11.2313 15.2247 11.6586 15.637 12.3219 15.637L13.4784 15.637C14.7927 15.637 15.6037 14.8358 15.6037 13.5284L15.6037 12.3696C15.6037 11.704 15.1838 11.2767 14.5206 11.2767C13.8401 11.2767 13.4226 11.6942 13.4226 12.3696ZM7.4758 5.39135C6.1615 5.39135 5.35799 6.20233 5.35799 7.50225L5.35799 8.66108C5.35799 9.33181 5.77033 9.75392 6.44107 9.75392C7.12157 9.75392 7.5316 9.33412 7.5316 8.66108L7.5316 8.05228C7.5316 7.71266 7.66954 7.57243 8.00915 7.57243L8.63233 7.57243C9.28814 7.57243 9.72286 7.14286 9.72286 6.47673C9.72286 5.81115 9.30306 5.39135 8.63233 5.39135ZM12.3219 5.39135C11.6586 5.39135 11.2313 5.81115 11.2313 6.47673C11.2313 7.14286 11.666 7.57243 12.3219 7.57243L12.945 7.57243C13.2846 7.57243 13.4226 7.71266 13.4226 8.05228L13.4226 8.66108C13.4226 9.33412 13.8401 9.75392 14.5206 9.75392C15.1838 9.75392 15.6037 9.33181 15.6037 8.66108L15.6037 7.50225C15.6037 6.20233 14.7927 5.39135 13.4784 5.39135Z"
                     fill="currentColor" fill-opacity="0.85" />
       </g>
</svg>