<?xml version="1.0" encoding="UTF-8"?>
<!--Generator: Apple Native CoreSVG 326-->
<!DOCTYPE svg PUBLIC "-//W3C//DTD SVG 1.1//EN" "http://www.w3.org/Graphics/SVG/1.1/DTD/svg11.dtd">
<svg version="1.1" xmlns="http://www.w3.org/2000/svg" xmlns:xlink="http://www.w3.org/1999/xlink"
       viewBox="0 0 21.365 21.006">
       <g>
              <rect height="21.006" opacity="0" width="21.365" x="0" y="0" />
              <path d="M21.0037 10.4981C21.0037 16.2923 16.302 20.9962 10.4981 20.9962C4.70394 20.9962 0 16.2923 0 10.4981C0 4.70163 4.70394 0 10.4981 0C16.302 0 21.0037 4.70163 21.0037 10.4981ZM4.0272 10.474C4.0272 12.5455 5.36224 14.1781 7.15341 14.1781C8.97388 14.1781 9.8517 12.7666 10.4981 12.7666C11.1543 12.7666 12.0298 14.1781 13.8503 14.1781C15.6414 14.1781 16.9765 12.5455 16.9765 10.474C16.9765 7.06049 13.9456 6.69225 10.4981 6.69225C7.06037 6.69225 4.0272 7.06049 4.0272 10.474ZM15.3679 10.474C15.3679 11.7847 14.7858 12.5598 13.8503 12.5598C12.6821 12.5598 12.0692 11.1557 10.4981 11.1557C8.92936 11.1557 8.31413 12.5598 7.15341 12.5598C6.21039 12.5598 5.62828 11.7847 5.62828 10.474C5.62828 8.49961 7.22001 8.31055 10.4981 8.31055C13.7837 8.31055 15.3679 8.49961 15.3679 10.474Z"
                     fill="currentColor" fill-opacity="0.85" />
       </g>
</svg>