<?xml version="1.0" encoding="UTF-8"?>
<!--Generator: Apple Native CoreSVG 326-->
<!DOCTYPE svg PUBLIC "-//W3C//DTD SVG 1.1//EN" "http://www.w3.org/Graphics/SVG/1.1/DTD/svg11.dtd">
<svg version="1.1" xmlns="http://www.w3.org/2000/svg" xmlns:xlink="http://www.w3.org/1999/xlink"
       viewBox="0 0 31.7698 25.5024">
       <g>
              <rect height="25.5024" opacity="0" width="31.7698" x="0" y="0" />
              <path d="M7.02868 7.28793C4.28439 8.01955 2.84805 9.55251 2.84805 12.7348C2.84805 16.0951 4.46708 18.3504 7.07189 18.3504C10.2904 18.3504 11.5162 15.4628 14.6676 14.9285L19.0777 19.3396C17.847 18.4923 16.833 17.6809 15.7054 17.6809C13.3454 17.6809 11.4841 21.2283 7.12412 21.2283C2.97597 21.2283 0 17.6285 0 12.7348C0 8.53185 1.87493 6.28988 4.84978 5.10855ZM31.4084 12.7348C31.4084 16.5443 29.605 19.5698 26.8445 20.7143L24.4733 18.3429C26.9989 18.2691 28.5604 16.0348 28.5604 12.7348C28.5604 7.08334 24.0341 6.634 15.7054 6.634C14.6766 6.634 13.7059 6.64088 12.7956 6.66385L10.126 3.99397C11.8642 3.83082 13.75 3.79341 15.7054 3.79341C24.215 3.79341 31.4084 4.50005 31.4084 12.7348Z"
                     fill="currentColor" fill-opacity="0.85" />
              <path d="M25.5755 23.8594C25.9132 24.1994 26.4687 24.1771 26.7892 23.8519C27.1269 23.5142 27.1292 22.9709 26.7915 22.6383L5.82317 1.66766C5.49289 1.32992 4.93977 1.32992 4.59973 1.66766C4.27923 1.99047 4.27923 2.55336 4.59973 2.88133Z"
                     fill="currentColor" fill-opacity="0.85" />
       </g>
</svg>