<?xml version="1.0" encoding="UTF-8"?>
<!--Generator: Apple Native CoreSVG 326-->
<!DOCTYPE svg PUBLIC "-//W3C//DTD SVG 1.1//EN" "http://www.w3.org/Graphics/SVG/1.1/DTD/svg11.dtd">
<svg version="1.1" xmlns="http://www.w3.org/2000/svg" xmlns:xlink="http://www.w3.org/1999/xlink"
       viewBox="0 0 21.365 21.006">
       <g>
              <rect height="21.006" opacity="0" width="21.365" x="0" y="0" />
              <path d="M14.4871 19.2952L14.7737 17.5453C12.6958 17.8294 11.3773 14.336 10.8776 11.4005C14.6736 7.94346 17.4585 3.46862 15.0565 1.7321L13.8907 3.06962C15.1801 3.60424 13.2987 6.8357 9.74913 10.0853C6.23635 8.68019 2.73905 8.14593 0.937016 10.4303L2.22802 11.3945C3.31334 10.067 5.84354 10.4025 9.16277 11.7365C9.71128 14.8678 11.3709 19.3283 14.4871 19.2952ZM12.2167 16.6597C18.5915 11.7319 19.5812 6.86784 18.9242 5.26737L17.2335 5.78538C17.7463 6.64511 17.0649 10.7367 11.0831 15.3474ZM9.75392 20.1586L11.1437 18.7401C9.34298 18.338 5.97371 15.2008 5.70161 9.70721L3.95975 9.85194C4.24908 15.4981 7.63138 19.2274 9.75392 20.1586ZM12.7956 7.90907L13.5089 6.31139C10.8818 4.47721 6.03522 2.98822 2.32022 5.25409L2.48271 7.10677C5.63835 4.73754 10.1559 6.07204 12.7956 7.90907ZM10.4981 0C4.70163 0 0 4.70163 0 10.4981C0 16.2946 4.70163 20.9962 10.4981 20.9962C16.302 20.9962 21.0037 16.2946 21.0037 10.4981C21.0037 4.70163 16.302 0 10.4981 0ZM10.4981 2.32786C15.0101 2.32786 18.6684 5.99361 18.6684 10.4981C18.6684 15.0026 15.0101 18.6684 10.4981 18.6684C5.99361 18.6684 2.33532 15.0026 2.33532 10.4981C2.33532 5.99361 5.99361 2.32786 10.4981 2.32786Z"
                     fill="currentColor" fill-opacity="0.85" />
       </g>
</svg>