<?xml version="1.0" encoding="UTF-8"?>
<!--Generator: Apple Native CoreSVG 326-->
<!DOCTYPE svg PUBLIC "-//W3C//DTD SVG 1.1//EN" "http://www.w3.org/Graphics/SVG/1.1/DTD/svg11.dtd">
<svg version="1.1" xmlns="http://www.w3.org/2000/svg" xmlns:xlink="http://www.w3.org/1999/xlink"
       viewBox="0 0 21.365 21.006">
       <g>
              <rect height="21.006" opacity="0" width="21.365" x="0" y="0" />
              <path d="M21.0037 10.4981C21.0037 16.2923 16.302 20.9962 10.4981 20.9962C4.70394 20.9962 0 16.2923 0 10.4981C0 4.70163 4.70394 0 10.4981 0C16.302 0 21.0037 4.70163 21.0037 10.4981ZM10.5973 15.6919C11.1208 15.6844 11.5627 15.5994 12.0074 15.4638C10.8033 14.6825 9.88124 12.6845 9.78589 11.1334C9.14584 10.8835 8.46728 10.6594 7.83701 10.5394C7.94443 13.143 9.66615 15.419 10.5973 15.6919ZM5.31638 11.0662C5.54154 13.0373 6.87846 14.6942 8.68819 15.3685C7.78393 14.2064 6.94221 12.3336 6.9083 10.4262C6.21318 10.4216 5.64271 10.5974 5.31638 11.0662ZM11.7268 13.9231C12.1812 14.563 12.6959 14.9853 13.1808 14.9446C14.6905 14.0271 15.7045 12.3663 15.7045 10.4906C15.7045 9.9701 15.6321 9.49146 15.489 9.03412C15.0582 10.4151 13.9449 12.2989 11.7268 13.9231ZM10.6974 10.9646C10.7416 11.6827 10.953 12.4566 11.2714 13.1317C14.3745 10.7873 14.9996 8.08624 14.7837 7.53912C14.4183 7.01111 13.9409 6.55838 13.4203 6.18783C13.5387 7.7331 12.2944 9.52088 10.6974 10.9646ZM5.7192 8.42349C5.51346 8.8849 5.37037 9.40205 5.31408 9.91636C6.56123 9.18096 8.54893 9.64971 10.0995 10.2662C10.7205 9.7037 11.2514 9.13893 11.6386 8.58393C10.2409 7.42412 7.28413 6.74162 5.7192 8.42349ZM6.91036 6.72002C8.74005 6.13397 10.9892 6.84401 12.1337 7.79764C12.56 7.00541 12.6818 6.26662 12.4112 5.64447C11.824 5.41064 11.1806 5.27447 10.4981 5.27447C9.10666 5.27447 7.83701 5.82662 6.91036 6.72002Z"
                     fill="currentColor" fill-opacity="0.85" />
       </g>
</svg>