<?xml version="1.0" encoding="UTF-8"?>
<!--Generator: Apple Native CoreSVG 326-->
<!DOCTYPE svg PUBLIC "-//W3C//DTD SVG 1.1//EN" "http://www.w3.org/Graphics/SVG/1.1/DTD/svg11.dtd">
<svg version="1.1" xmlns="http://www.w3.org/2000/svg" xmlns:xlink="http://www.w3.org/1999/xlink"
       viewBox="0 0 21.2984 21.0358">
       <g>
              <rect height="21.0358" opacity="0" width="21.2984" x="0" y="0" />
              <path d="M13.7495 5.08559C14.5888 3.48863 14.8445 2.00887 14.3171 0.755471C13.1114 0.265431 11.8033 0 10.4367 0C7.63963 0 5.08674 1.12086 3.20549 2.91216C6.90533 1.72172 11.4511 3.16813 13.7495 5.08559ZM9.65784 10.063C10.8964 8.93409 11.9426 7.788 12.7503 6.66889C9.91551 4.33109 4.01622 2.92484 0.822859 6.32728C0.394143 7.26842 0.117733 8.28889 0 9.36742C2.50558 7.8623 6.51222 8.8112 9.65784 10.063ZM3.22035 10.3824C1.8107 10.3583 0.643439 10.7202 0 11.6616C0.438786 15.642 3.1532 18.9952 6.80282 20.3386C4.99387 17.998 3.26117 14.2222 3.22035 10.3824ZM9.01179 11.8185C7.718 11.2779 6.35124 10.8442 5.08158 10.6012C5.28951 15.8488 8.75103 20.4648 10.6309 20.9962C11.6486 20.9859 12.5961 20.8256 13.4815 20.5469C11.0791 18.9495 9.20074 14.9452 9.01179 11.8185ZM15.8504 19.4867C18.8961 17.6463 20.9371 14.2997 20.9371 10.5056C20.9371 9.4806 20.7871 8.50216 20.5084 7.56685C19.6325 10.3677 17.4119 14.1557 12.9231 17.4509C13.8255 18.7347 14.8865 19.5727 15.8504 19.4867ZM12.0054 15.8349C18.2922 11.1114 19.5194 5.66443 19.0945 4.57777C18.3505 3.50058 17.4095 2.56703 16.33 1.83284C16.5645 4.95299 14.0549 8.54893 10.861 11.4602C10.9195 12.9108 11.3579 14.4785 12.0054 15.8349Z"
                     fill="currentColor" fill-opacity="0.85" />
       </g>
</svg>