<?xml version="1.0" encoding="UTF-8"?>
<!--Generator: Apple Native CoreSVG 326-->
<!DOCTYPE svg PUBLIC "-//W3C//DTD SVG 1.1//EN" "http://www.w3.org/Graphics/SVG/1.1/DTD/svg11.dtd">
<svg version="1.1" xmlns="http://www.w3.org/2000/svg" xmlns:xlink="http://www.w3.org/1999/xlink"
       viewBox="0 0 21.365 21.006">
       <g>
              <rect height="21.006" opacity="0" width="21.365" x="0" y="0" />
              <path d="M10.4981 20.9962C16.302 20.9962 21.0037 16.2946 21.0037 10.4981C21.0037 4.70163 16.302 0 10.4981 0C4.70163 0 0 4.70163 0 10.4981C0 16.2946 4.70163 20.9962 10.4981 20.9962ZM10.4981 17.9484C6.37829 17.9484 3.04785 14.6179 3.04785 10.4981C3.04785 6.37829 6.37829 3.04785 10.4981 3.04785C14.6179 3.04785 17.9558 6.37829 17.9558 10.4981C17.9558 14.6179 14.6179 17.9484 10.4981 17.9484Z"
                     fill="currentColor" fill-opacity="0.85" />
              <path d="M8.12252 14.9938C8.90352 14.9938 9.41176 14.5585 9.57371 13.7047L10.447 9.74349L10.5377 9.74349L11.4058 13.7047C11.5752 14.5585 12.076 14.9938 12.8547 14.9938C13.6782 14.9938 14.1445 14.5861 14.3088 13.7448L15.6231 7.42946C15.6547 7.32204 15.657 7.21692 15.657 7.12157C15.657 6.48068 15.2125 6.00635 14.547 6.00635C13.8791 6.00635 13.4926 6.40025 13.3881 7.15087L12.6641 11.892L12.5734 11.892L11.6117 7.08821C11.4945 6.46224 11.1241 6.14525 10.4935 6.14525C9.86292 6.14525 9.49534 6.44732 9.38046 7.07329L8.40614 11.892L8.3154 11.892L7.59147 7.15087C7.49436 6.40025 7.10277 6.00635 6.43488 6.00635C5.77446 6.00635 5.33228 6.48068 5.33228 7.12157C5.33228 7.21692 5.33458 7.32204 5.36388 7.42946L6.67077 13.7448C6.83503 14.5861 7.30135 14.9938 8.12252 14.9938Z"
                     fill="currentColor" fill-opacity="0.85" />
       </g>
</svg>