<?xml version="1.0" encoding="UTF-8"?>
<!--Generator: Apple Native CoreSVG 326-->
<!DOCTYPE svg PUBLIC "-//W3C//DTD SVG 1.1//EN" "http://www.w3.org/Graphics/SVG/1.1/DTD/svg11.dtd">
<svg version="1.1" xmlns="http://www.w3.org/2000/svg" xmlns:xlink="http://www.w3.org/1999/xlink"
       viewBox="0 0 19.3993 19.0529">
       <g>
              <rect height="19.0529" opacity="0" width="19.3993" x="0" y="0" />
              <path d="M3.64834 19.0379L15.3896 19.0379C17.7164 19.0379 19.0379 17.7262 19.0379 15.4011L19.0379 3.63912C19.0379 1.32151 17.7164 0 15.3896 0L3.64834 0C1.32382 0 0 1.32151 0 3.63912L0 15.4011C0 17.7262 1.32382 19.0379 3.64834 19.0379ZM4.05583 16.0183C3.37024 16.0183 3.01964 15.7096 3.01964 14.9775L3.01964 4.07021C3.01964 3.33809 3.37024 3.0271 4.05583 3.0271L14.9821 3.0271C15.6654 3.0271 16.0183 3.33809 16.0183 4.07021L16.0183 14.9775C16.0183 15.7096 15.6654 16.0183 14.9821 16.0183Z"
                     fill="currentColor" fill-opacity="0.85" />
              <path d="M7.15287 14.0173C7.93157 14.0173 8.43235 13.582 8.60176 12.7281L9.47502 8.76693L9.56807 8.76693L10.4339 12.7281C10.6033 13.582 11.1041 14.0173 11.8828 14.0173C12.7062 14.0173 13.1726 13.6095 13.3368 12.7683L14.6535 6.4529C14.6753 6.34548 14.6851 6.24036 14.6851 6.14501C14.6851 5.50411 14.2429 5.02978 13.575 5.02978C12.9071 5.02978 12.5207 5.42368 12.4184 6.1743L11.6922 10.9155L11.6014 10.9155L10.6397 6.11165C10.5226 5.48568 10.1521 5.16869 9.52155 5.16869C8.8835 5.16869 8.52569 5.47075 8.41081 6.09672L7.43419 10.9155L7.34345 10.9155L6.61952 6.1743C6.51725 5.42368 6.13081 5.02978 5.46293 5.02978C4.79505 5.02978 4.36032 5.50411 4.36032 6.14501C4.36032 6.24036 4.36263 6.34548 4.38446 6.4529L5.69882 12.7683C5.86308 13.6095 6.3294 14.0173 7.15287 14.0173Z"
                     fill="currentColor" fill-opacity="0.85" />
       </g>
</svg>