<?xml version="1.0" encoding="UTF-8"?>
<!--Generator: Apple Native CoreSVG 326-->
<!DOCTYPE svg PUBLIC "-//W3C//DTD SVG 1.1//EN" "http://www.w3.org/Graphics/SVG/1.1/DTD/svg11.dtd">
<svg version="1.1" xmlns="http://www.w3.org/2000/svg" xmlns:xlink="http://www.w3.org/1999/xlink"
       viewBox="0 0 18.145 21.7932">
       <g>
              <rect height="21.7932" opacity="0" width="18.145" x="0" y="0" />
              <path d="M3.63912 21.7932L14.1445 21.7932C16.4696 21.7932 17.7836 20.4694 17.7836 18.1397L17.7836 3.6535C17.7836 1.32151 16.4719 0.0051558 14.1445 0.0051558L11.1621 0.0051558C10.7106 0.0051558 10.4809 0.209688 10.4809 0.583633C10.4809 1.3829 9.90459 2.17039 8.89182 2.17039C7.87904 2.17039 7.30044 1.3829 7.30044 0.583633C7.30044 0.209688 7.07068 0.0051558 6.61928 0.0051558L3.63912 0.0051558C1.31921 0.0051558 0 1.32151 0 3.6535L0 18.1397C0 20.4694 1.32151 21.7932 3.63912 21.7932ZM4.0679 18.7735C3.32832 18.7735 3.01964 18.4206 3.01964 17.7299L3.01964 4.06329C3.01964 3.37024 3.32832 3.01734 4.0679 3.01734L7.28383 3.01734L5.36843 1.93845C5.58897 3.80411 6.98533 4.94723 8.89182 4.94723C10.8058 4.94723 12.2021 3.80411 12.425 1.93845L10.5073 3.01734L13.7232 3.01734C14.4553 3.01734 14.764 3.37024 14.764 4.06329L14.764 17.7299C14.764 18.4206 14.4553 18.7735 13.7232 18.7735ZM5.72782 8.19075L12.0507 8.19075C12.4372 8.19075 12.721 7.88978 12.721 7.50091C12.721 7.13158 12.4372 6.83806 12.0507 6.83806L5.72782 6.83806C5.33149 6.83806 5.04774 7.13158 5.04774 7.50091C5.04774 7.88978 5.33149 8.19075 5.72782 8.19075ZM5.72782 11.3218L9.02477 11.3218C9.41364 11.3218 9.69739 11.0283 9.69739 10.659C9.69739 10.2724 9.41364 9.97143 9.02477 9.97143L5.72782 9.97143C5.33149 9.97143 5.04774 10.2724 5.04774 10.659C5.04774 11.0283 5.33149 11.3218 5.72782 11.3218Z"
                     fill="currentColor" fill-opacity="0.85" />
       </g>
</svg>