<?xml version="1.0" encoding="UTF-8"?>
<!--Generator: Apple Native CoreSVG 326-->
<!DOCTYPE svg PUBLIC "-//W3C//DTD SVG 1.1//EN" "http://www.w3.org/Graphics/SVG/1.1/DTD/svg11.dtd">
<svg version="1.1" xmlns="http://www.w3.org/2000/svg" xmlns:xlink="http://www.w3.org/1999/xlink"
       viewBox="0 0 22.1814 22.7984">
       <g>
              <rect height="22.7984" opacity="0" width="22.1814" x="0" y="0" />
              <path d="M15.7959 9.24138C16.0296 9.24138 16.2116 9.07658 16.2484 8.85549C16.6781 5.94945 17.0606 5.45602 20.0074 5.07922C20.2532 5.04477 20.4254 4.85297 20.4254 4.61926C20.4254 4.38841 20.2532 4.20407 20.0074 4.17708C17.1575 3.80029 16.7371 3.32517 16.2484 0.412886C16.1967 0.157342 16.0296 0 15.7959 0C15.565 0 15.383 0.157342 15.3537 0.410581C14.9389 3.29708 14.4967 3.78536 11.5895 4.17708C11.3489 4.20407 11.1766 4.38841 11.1766 4.61926C11.1766 4.85297 11.3489 5.035 11.5895 5.07922C14.4147 5.56047 14.8478 5.90469 15.3537 8.85318C15.3881 9.07658 15.5679 9.24138 15.7959 9.24138ZM2.91519 17.3238C3.1139 17.3238 3.25632 17.1814 3.28331 16.9924C3.53898 15.1043 3.56882 15.0496 5.51624 14.7744C5.71265 14.74 5.84761 14.5924 5.84761 14.4086C5.84761 14.2174 5.72011 14.0698 5.51624 14.0428C3.54644 13.6855 3.54644 13.6458 3.28331 11.8173C3.25632 11.6209 3.10644 11.4785 2.91519 11.4785C2.72625 11.4785 2.58383 11.6209 2.54937 11.8248C2.30117 13.6607 2.27879 13.7303 0.346286 14.0428C0.120038 14.0698 0 14.2024 0 14.4086C0 14.5924 0.120038 14.7325 0.316443 14.7744C2.29371 15.1242 2.30863 15.1565 2.54937 16.9924C2.58383 17.1814 2.72625 17.3238 2.91519 17.3238ZM6.35597 20.3314C6.48808 20.3314 6.58112 20.236 6.60296 20.1039C6.80858 19.0125 6.7896 19.0009 7.96269 18.7539C8.09479 18.7247 8.18038 18.6442 8.18038 18.5144C8.18038 18.3846 8.10225 18.287 7.97015 18.26C6.7919 18.0204 6.81319 18.0135 6.60296 16.9002C6.58112 16.7704 6.47831 16.6751 6.35597 16.6751C6.22386 16.6751 6.12335 16.7704 6.10151 16.9048C5.89698 18.0135 5.92749 18.0273 4.75155 18.26C4.60222 18.2944 4.51663 18.3823 4.51663 18.5144C4.51663 18.6442 4.60222 18.7247 4.73433 18.7539C5.92749 19.0009 5.89698 19.0125 6.10151 20.0964C6.12335 20.236 6.22386 20.3314 6.35597 20.3314Z"
                     fill="currentColor" fill-opacity="0.85" />
              <path d="M17.4493 20.6268C18.1177 21.3125 19.2783 21.3102 19.957 20.6268C20.638 19.9337 20.638 18.8145 19.9547 18.1191L6.25067 4.3181C5.57478 3.63245 4.4217 3.63245 3.7355 4.3181C3.05445 5.01868 3.05445 6.13785 3.73781 6.83096ZM8.85797 10.2474L4.69284 6.07246C4.48151 5.85367 4.47405 5.50684 4.69284 5.28805C4.90932 5.06411 5.26591 5.06181 5.49216 5.28805L9.62976 9.45034Z"
                     fill="currentColor" fill-opacity="0.85" />
       </g>
</svg>