<?xml version="1.0" encoding="UTF-8"?>
<!--Generator: Apple Native CoreSVG 326-->
<!DOCTYPE svg PUBLIC "-//W3C//DTD SVG 1.1//EN" "http://www.w3.org/Graphics/SVG/1.1/DTD/svg11.dtd">
<svg version="1.1" xmlns="http://www.w3.org/2000/svg" xmlns:xlink="http://www.w3.org/1999/xlink"
       viewBox="0 0 28.3924 27.8348">
       <g>
              <rect height="27.8348" opacity="0" width="28.3924" x="0" y="0" />
              <path d="M9.93771 7.98282L12.5785 7.98282L12.5785 5.13672C12.5785 4.89301 12.7262 4.74531 12.9797 4.74531L15.0784 4.74531C15.3244 4.74531 15.4795 4.89301 15.4795 5.13672L15.4795 7.98282L18.1203 7.98282L18.1203 4.59197C18.1203 3.07799 17.1469 2.10452 15.6254 2.10452L12.4326 2.10452C10.9112 2.10452 9.93771 3.07799 9.93771 4.59197ZM14.002 21.7302C18.2728 21.7302 21.8272 18.1758 21.8272 13.9125C21.8272 9.63431 18.2751 6.08732 14.0193 6.08732C9.73876 6.08732 6.18431 9.64923 6.18431 13.9125C6.18431 18.1758 9.73876 21.7302 14.002 21.7302ZM14.029 19.0687C11.2294 19.0687 8.87283 16.7046 8.87283 13.9125C8.87283 11.1152 11.222 8.75631 14.0193 8.75631C16.8188 8.75631 19.1852 11.1055 19.1852 13.9125C19.1852 16.7046 16.8211 19.0687 14.029 19.0687ZM22.6418 7.19017L23.9172 5.91985C24.4559 5.37376 24.4559 4.53592 23.9172 4.00476C23.3935 3.46613 22.5505 3.46613 22.0044 4.00476L20.7318 5.28254C20.1932 5.8114 20.1932 6.66647 20.7318 7.19017C21.263 7.7288 22.1181 7.7288 22.6418 7.19017ZM24.8655 15.2671L26.6667 15.2671C27.4315 15.2671 28.0311 14.6625 28.0311 13.9125C28.0311 13.1551 27.4315 12.5556 26.6667 12.5556L24.8655 12.5556C24.1155 12.5556 23.516 13.1551 23.516 13.9125C23.516 14.6625 24.1155 15.2671 24.8655 15.2671ZM20.7318 22.535L22.0044 23.8179C22.5505 24.3491 23.3935 24.3491 23.9172 23.8179C24.4559 23.2868 24.4559 22.4415 23.9172 21.9051L22.6418 20.6251C22.1181 20.0939 21.263 20.0939 20.7318 20.6251C20.1932 21.1562 20.1932 22.0113 20.7318 22.535ZM15.386 24.6692C15.386 23.9118 14.779 23.3146 14.029 23.3146C13.2716 23.3146 12.6744 23.9118 12.6744 24.6692L12.6744 26.4727C12.6744 27.2375 13.2716 27.8348 14.029 27.8348C14.779 27.8348 15.386 27.2375 15.386 26.4727ZM7.29693 22.535C7.83555 22.0113 7.83555 21.1562 7.29693 20.6251C6.77322 20.0939 5.92046 20.0939 5.38929 20.6251L4.11151 21.9051C3.57288 22.4415 3.57288 23.2868 4.11151 23.8179C4.63522 24.3491 5.48052 24.3491 6.02661 23.8179ZM3.16558 15.2671C3.91553 15.2671 4.52252 14.6625 4.52252 13.9125C4.52252 13.1551 3.91553 12.5556 3.16558 12.5556L1.36209 12.5556C0.59722 12.5556 0 13.1551 0 13.9125C0 14.6625 0.59722 15.2671 1.36209 15.2671ZM5.38929 7.19017C5.92046 7.7288 6.77322 7.7288 7.29693 7.19017C7.83555 6.66647 7.83555 5.8114 7.29693 5.28254L6.02661 4.00476C5.48052 3.46613 4.63522 3.46613 4.11151 4.00476C3.57288 4.53592 3.57288 5.37376 4.11151 5.91985Z"
                     fill="currentColor" fill-opacity="0.85" />
       </g>
</svg>