<?xml version="1.0" encoding="UTF-8"?>
<!--Generator: Apple Native CoreSVG 326-->
<!DOCTYPE svg PUBLIC "-//W3C//DTD SVG 1.1//EN" "http://www.w3.org/Graphics/SVG/1.1/DTD/svg11.dtd">
<svg version="1.1" xmlns="http://www.w3.org/2000/svg" xmlns:xlink="http://www.w3.org/1999/xlink"
       viewBox="0 0 21.365 21.006">
       <g>
              <rect height="21.006" opacity="0" width="21.365" x="0" y="0" />
              <path d="M21.0037 10.5079C21.0037 16.3043 16.302 21.006 10.4981 21.006C4.70394 21.006 0 16.3043 0 10.5079C0 4.7137 4.70394 0.00976562 10.4981 0.00976562C16.302 0.00976562 21.0037 4.7137 21.0037 10.5079ZM6.01272 8.64525L6.01272 14.4403C6.01272 15.2519 6.5733 15.8194 7.37287 15.8194L13.6049 15.8194C14.4045 15.8194 14.9576 15.2519 14.9576 14.4403L14.9576 8.64525ZM13.2039 12.1019C13.2039 13.6024 11.994 14.8145 10.4889 14.8145C8.98377 14.8145 7.77392 13.6024 7.77392 12.1019C7.77392 10.6042 8.98377 9.39435 10.4889 9.39435C11.994 9.39435 13.2039 10.6042 13.2039 12.1019ZM8.60103 12.1019C8.60103 13.1492 9.43924 13.9949 10.4889 13.9949C11.5311 13.9949 12.3767 13.1492 12.3767 12.1019C12.3767 11.0597 11.5311 10.2117 10.4889 10.2117C9.43924 10.2117 8.60103 11.0597 8.60103 12.1019ZM7.37287 5.18197C6.5733 5.18197 6.01272 5.75462 6.01272 6.56626L6.01272 7.78885L14.9576 7.78885L14.9576 6.56626C14.9576 5.75462 14.4045 5.18197 13.6049 5.18197ZM8.48045 6.63486C8.48045 6.92607 8.24553 7.17076 7.94455 7.17076C7.65104 7.17076 7.40635 6.92607 7.40635 6.63486C7.40635 6.33158 7.65104 6.08459 7.94455 6.08459C8.24553 6.08459 8.48045 6.33158 8.48045 6.63486ZM9.93662 6.63486C9.93662 6.92607 9.69939 7.17076 9.39842 7.17076C9.1026 7.17076 8.86252 6.92607 8.86252 6.63486C8.86252 6.33158 9.1026 6.08459 9.39842 6.08459C9.69939 6.08459 9.93662 6.33158 9.93662 6.63486ZM13.5767 6.63486C13.5767 6.84564 13.4297 6.99267 13.2241 6.99267L12.1863 6.99267C11.9756 6.99267 11.8262 6.84564 11.8262 6.63486C11.8262 6.41947 11.9756 6.27244 12.1863 6.27244L13.2241 6.27244C13.4297 6.27244 13.5767 6.41947 13.5767 6.63486Z"
                     fill="currentColor" fill-opacity="0.85" />
       </g>
</svg>