<?xml version="1.0" encoding="UTF-8"?>
<!--Generator: Apple Native CoreSVG 326-->
<!DOCTYPE svg PUBLIC "-//W3C//DTD SVG 1.1//EN" "http://www.w3.org/Graphics/SVG/1.1/DTD/svg11.dtd">
<svg version="1.1" xmlns="http://www.w3.org/2000/svg" xmlns:xlink="http://www.w3.org/1999/xlink"
       viewBox="0 0 27.5245 25.2095">
       <g>
              <rect height="25.2095" opacity="0" width="27.5245" x="0" y="0" />
              <path d="M23.1985 4.13232L23.1985 14.6429C22.8973 14.5659 22.5926 14.5188 22.2668 14.5188C21.6837 14.5188 21.1301 14.6651 20.4251 15.0183L20.4251 9.45853L6.73067 9.45853L6.73067 20.7308C6.73067 21.028 6.93872 21.2263 7.23127 21.2263L13.8798 21.2263L14.677 23.3704C14.7593 23.5927 14.8655 23.7984 14.9924 23.9848L6.8794 23.9848C5.1564 23.9848 3.96469 22.7661 3.96469 21.0115L3.96469 4.13232C3.96469 2.38518 5.1564 1.15671 6.8794 1.15671L20.2861 1.15671C21.9993 1.15671 23.1985 2.38518 23.1985 4.13232ZM18.5645 14.7107C18.1704 14.5775 17.8108 14.5188 17.4412 14.5188C17.2509 14.5188 17.0697 14.5348 16.892 14.5642C16.5619 13.0384 15.2066 11.8991 13.5827 11.8991C11.6999 11.8991 10.1917 13.4148 10.1917 15.2902C10.1917 16.9396 11.3519 18.3025 12.9077 18.6121L13.5403 20.3134C10.7872 20.2922 8.55509 18.0459 8.55509 15.2902C8.55509 12.5201 10.8104 10.27 13.5827 10.27C16.1565 10.27 18.2794 12.2125 18.5645 14.7107ZM7.23127 3.91523C6.93872 3.91523 6.73067 4.11582 6.73067 4.42043L6.73067 7.66444L20.4251 7.66444L20.4251 4.42043C20.4251 4.11582 20.2268 3.91523 19.9245 3.91523ZM10.1471 5.74765C10.1471 6.36046 9.63937 6.87046 9.02657 6.87046C8.41606 6.87046 7.90607 6.36046 7.90607 5.74765C7.90607 5.12969 8.41606 4.62715 9.02657 4.62715C9.63937 4.62715 10.1471 5.12969 10.1471 5.74765ZM13.167 5.74765C13.167 6.36046 12.6593 6.87046 12.0391 6.87046C11.4285 6.87046 10.9209 6.36046 10.9209 5.74765C10.9209 5.12969 11.4285 4.62715 12.0391 4.62715C12.6593 4.62715 13.167 5.12969 13.167 5.74765ZM19.1108 5.74019C19.1108 6.16976 18.8035 6.47698 18.3688 6.47698L16.2661 6.47698C15.8314 6.47698 15.5167 6.16976 15.5167 5.74019C15.5167 5.30547 15.8314 4.99824 16.2661 4.99824L18.3688 4.99824C18.8035 4.99824 19.1108 5.30547 19.1108 5.74019Z"
                     fill="currentColor" fill-opacity="0.85" />
              <path d="M17.3122 23.9848L22.4033 23.9848C23.0655 23.9848 23.6369 23.5995 23.8845 22.9401L26.2101 16.6881C26.4782 15.9726 26.1067 15.3967 25.5974 15.2147C25.0932 15.0303 24.4288 15.2049 24.1658 15.9181L24.0291 16.272C23.5781 16.0404 23.0865 15.7434 22.3563 15.7434C21.126 15.7434 20.5931 16.5504 19.8589 16.5504C19.1172 16.5504 18.582 15.7434 17.3591 15.7434C16.6216 15.7434 16.1322 16.0404 15.6887 16.272L15.5422 15.9181C15.2815 15.2049 14.6148 15.0303 14.1129 15.2147C13.6013 15.3967 13.2321 15.9726 13.5003 16.6881L15.8259 22.9401C16.0711 23.5995 16.6448 23.9848 17.3122 23.9848ZM17.9403 21.7953C17.7915 21.7953 17.734 21.7568 17.6806 21.616L16.2674 17.8453C16.6415 17.6361 16.9362 17.4298 17.3591 17.4298C18.1835 17.4298 18.5269 18.2369 19.8589 18.2369C21.1811 18.2369 21.5245 17.4298 22.3563 17.4298C22.7741 17.4298 23.0665 17.6361 23.4406 17.8453L22.0274 21.616C21.974 21.7568 21.9165 21.7953 21.7677 21.7953Z"
                     fill="currentColor" fill-opacity="0.85" />
       </g>
</svg>