<?xml version="1.0" encoding="UTF-8"?>
<!--Generator: Apple Native CoreSVG 326-->
<!DOCTYPE svg PUBLIC "-//W3C//DTD SVG 1.1//EN" "http://www.w3.org/Graphics/SVG/1.1/DTD/svg11.dtd">
<svg version="1.1" xmlns="http://www.w3.org/2000/svg" xmlns:xlink="http://www.w3.org/1999/xlink"
       viewBox="0 0 12.8406 24.4961">
       <g>
              <rect height="24.4961" opacity="0" width="12.8406" x="0" y="0" />
              <path d="M3.18147 3.51696L9.29779 3.51696C10.0346 3.51696 10.5623 2.9938 10.5623 2.2524L10.5623 1.2571C10.5623 0.518003 10.0346 0 9.29779 0L3.18147 0C2.44007 0 1.92437 0.518003 1.92437 1.2571L1.92437 2.2524C1.92437 2.9938 2.44007 3.51696 3.18147 3.51696ZM5.51528 2.7701L3.02019 2.02761L0.975896 4.88639C0.198163 5.95479 0 7.03404 0 8.41439L0 20.6765C0 23.0488 1.36519 24.4864 3.60182 24.4864L8.86767 24.4864C11.1095 24.4864 12.4793 23.0488 12.4793 20.6765L12.4793 8.41439C12.4793 7.01912 12.269 5.95479 11.4988 4.88639L9.44931 2.02761L6.95191 2.7701L9.41479 6.24388C9.92897 6.97466 9.98186 7.34587 9.98186 8.41439L9.98186 20.6765C9.98186 21.5029 9.5785 21.989 8.86767 21.989L3.60182 21.989C2.90591 21.989 2.49739 21.5029 2.49739 20.6765L2.49739 8.41439C2.49739 7.34587 2.53822 6.97466 3.0547 6.24388ZM1.47413 7.95334L1.47413 9.63892L11.0154 9.63892L11.0154 7.95334ZM6.24479 17.2622C7.65904 17.2622 8.59994 16.3385 8.59994 14.9851C8.59994 14.2843 8.30181 13.7151 8.13349 13.3882C7.79916 12.627 7.21607 11.6458 6.72318 10.914C6.58822 10.698 6.41135 10.6124 6.24479 10.6124C6.08053 10.6124 5.89619 10.698 5.75893 10.914C5.26604 11.6458 4.70248 12.627 4.34862 13.3882C4.19983 13.7151 3.88963 14.2843 3.88963 14.9851C3.88963 16.3385 4.82537 17.2622 6.24479 17.2622ZM1.47413 18.4431L1.47413 20.1287L11.0154 20.1287L11.0154 18.4431Z"
                     fill="currentColor" fill-opacity="0.85" />
       </g>
</svg>