<?xml version="1.0" encoding="UTF-8"?>
<!--Generator: Apple Native CoreSVG 326-->
<!DOCTYPE svg PUBLIC "-//W3C//DTD SVG 1.1//EN" "http://www.w3.org/Graphics/SVG/1.1/DTD/svg11.dtd">
<svg version="1.1" xmlns="http://www.w3.org/2000/svg" xmlns:xlink="http://www.w3.org/1999/xlink"
       viewBox="0 0 22.3584 16.1153">
       <g>
              <rect height="16.1153" opacity="0" width="22.3584" x="0" y="0" />
              <path d="M11.0023 4.35165C14.0316 4.35165 14.3792 2.30208 15.7678 2.30208C17.1708 2.30208 17.3948 4.35165 20.755 4.35165L20.8412 4.35165C21.4832 4.35165 21.9971 3.83025 21.9971 3.18827C21.9971 2.55374 21.4832 2.04211 20.8412 2.04211L20.755 2.04211C19.9988 2.04211 19.4651 1.75933 18.6058 1.1373C17.9487 0.663396 17.0308 0 15.7678 0C14.4955 0 13.5754 0.67031 12.9182 1.15629C12.222 1.67156 11.7446 2.04211 11.0023 2.04211C10.2502 2.04211 9.78255 1.67156 9.07888 1.15629C8.42919 0.67031 7.50158 0 6.22932 0C4.97374 0 4.04843 0.663396 3.39874 1.1373C2.53203 1.75933 1.99601 2.04211 1.24206 2.04211L1.15592 2.04211C0.511634 2.04211 0 2.55374 0 3.18827C0 3.83025 0.511634 4.35165 1.15592 4.35165L1.24206 4.35165C4.59998 4.35165 4.8338 2.30208 6.22932 2.30208C7.62538 2.30208 7.97069 4.35165 11.0023 4.35165Z"
                     fill="currentColor" fill-opacity="0.85" />
              <path d="M11.0023 10.2202C14.0316 10.2202 14.3792 8.17814 15.7678 8.17814C17.1708 8.17814 17.3948 10.2202 20.755 10.2202L20.8412 10.2202C21.4832 10.2202 21.9971 9.70861 21.9971 9.06663C21.9971 8.4321 21.4832 7.91816 20.8412 7.91816L20.755 7.91816C19.9988 7.91816 19.4651 7.63769 18.6058 7.01336C17.9487 6.53945 17.0308 5.87606 15.7678 5.87606C14.4955 5.87606 13.5754 6.54867 12.9182 7.03234C12.222 7.54762 11.7446 7.91816 11.0023 7.91816C10.2502 7.91816 9.78255 7.54762 9.07888 7.03234C8.42919 6.54867 7.50158 5.87606 6.22932 5.87606C4.97374 5.87606 4.04843 6.53945 3.39874 7.01336C2.53203 7.63769 1.99601 7.91816 1.24206 7.91816L1.15592 7.91816C0.511634 7.91816 0 8.4321 0 9.06663C0 9.70861 0.511634 10.2202 1.15592 10.2202L1.24206 10.2202C4.59998 10.2202 4.8338 8.17814 6.22932 8.17814C7.62538 8.17814 7.97069 10.2202 11.0023 10.2202Z"
                     fill="currentColor" fill-opacity="0.85" />
              <path d="M11.0023 16.0986C14.0316 16.0986 14.3792 14.0565 15.7678 14.0565C17.1708 14.0565 17.3948 16.0986 20.755 16.0986L20.8412 16.0986C21.4832 16.0986 21.9971 15.5847 21.9971 14.9427C21.9971 14.3082 21.4832 13.7965 20.8412 13.7965L20.755 13.7965C19.9988 13.7965 19.4651 13.5137 18.6058 12.8917C17.9487 12.4155 17.0308 11.7544 15.7678 11.7544C14.4955 11.7544 13.5754 12.4247 12.9182 12.9084C12.222 13.426 11.7446 13.7965 11.0023 13.7965C10.2502 13.7965 9.78255 13.426 9.07888 12.9084C8.42919 12.4247 7.50158 11.7544 6.22932 11.7544C4.97374 11.7544 4.04843 12.4155 3.39874 12.8917C2.53203 13.5137 1.99601 13.7965 1.24206 13.7965L1.15592 13.7965C0.511634 13.7965 0 14.3082 0 14.9427C0 15.5847 0.511634 16.0986 1.15592 16.0986L1.24206 16.0986C4.59998 16.0986 4.8338 14.0565 6.22932 14.0565C7.62538 14.0565 7.97069 16.0986 11.0023 16.0986Z"
                     fill="currentColor" fill-opacity="0.85" />
       </g>
</svg>