<?xml version="1.0" encoding="UTF-8"?>
<!--Generator: Apple Native CoreSVG 326-->
<!DOCTYPE svg PUBLIC "-//W3C//DTD SVG 1.1//EN" "http://www.w3.org/Graphics/SVG/1.1/DTD/svg11.dtd">
<svg version="1.1" xmlns="http://www.w3.org/2000/svg" xmlns:xlink="http://www.w3.org/1999/xlink"
       viewBox="0 0 11.5741 24.4823">
       <g>
              <rect height="24.4823" opacity="0" width="11.5741" x="0" y="0" />
              <path d="M2.87437 3.25584L8.35562 3.25584C9.0924 3.25584 9.61271 2.74014 9.61271 1.99874L9.61271 1.26456C9.61271 0.525464 9.0924 0 8.35562 0L2.87437 0C2.13297 0 1.61727 0.525464 1.61727 1.26456L1.61727 1.99874C1.61727 2.74014 2.13297 3.25584 2.87437 3.25584ZM0.00976562 8.35774L11.203 8.35774C11.1565 7.25192 10.9411 6.41153 10.2891 5.51485L10.1115 5.27926C9.84042 4.89786 9.34874 4.62157 8.8869 4.62157L2.33101 4.62157C1.86172 4.62157 1.37234 4.89786 1.10121 5.27926L0.928826 5.51485C0.269374 6.41153 0.0562888 7.25192 0.00976562 8.35774ZM0 9.97277L0 19.3104L11.2128 19.3104L11.2128 9.97277ZM5.59777 17.92C4.21905 17.92 3.32116 17.0515 3.32116 15.7216C3.32116 15.0483 3.63597 14.4968 3.79222 14.1406C4.14839 13.372 4.74124 12.3592 5.25136 11.598C5.34386 11.4418 5.47827 11.3614 5.59777 11.3614C5.73448 11.3614 5.85398 11.4418 5.94417 11.598C6.45429 12.3592 7.06667 13.372 7.41824 14.1406C7.57164 14.4968 7.88414 15.0483 7.88414 15.7216C7.88414 17.0515 6.97878 17.92 5.59777 17.92ZM0 20.9254L0 20.9945C0 23.2381 1.11953 24.4628 3.10074 24.4628L8.11948 24.4628C10.0984 24.4628 11.2128 23.2381 11.2128 20.9945L11.2128 20.9254Z"
                     fill="currentColor" fill-opacity="0.85" />
       </g>
</svg>