<?xml version="1.0" encoding="UTF-8"?>
<!--Generator: Apple Native CoreSVG 326-->
<!DOCTYPE svg PUBLIC "-//W3C//DTD SVG 1.1//EN" "http://www.w3.org/Graphics/SVG/1.1/DTD/svg11.dtd">
<svg version="1.1" xmlns="http://www.w3.org/2000/svg" xmlns:xlink="http://www.w3.org/1999/xlink"
       viewBox="0 0 22.3584 21.7075">
       <g>
              <rect height="21.7075" opacity="0" width="22.3584" x="0" y="0" />
              <path d="M18.6058 9.80948C19.4651 10.4338 19.9988 10.7143 20.755 10.7143L20.8412 10.7143C21.4832 10.7143 21.9971 11.2282 21.9971 11.8627C21.9971 12.5047 21.4832 13.0164 20.8412 13.0164L20.755 13.0164C17.3948 13.0164 17.1708 10.9743 15.7678 10.9743C15.4899 10.9743 15.2537 11.056 15.0296 11.1877L13.574 9.37167C14.1511 9.00547 14.8722 8.67218 15.7678 8.67218C17.0308 8.67218 17.9487 9.33557 18.6058 9.80948ZM8.38315 9.34404L6.93223 11.165C6.71861 11.0469 6.49266 10.9743 6.22932 10.9743C4.8338 10.9743 4.59998 13.0164 1.24206 13.0164L1.15592 13.0164C0.511634 13.0164 0 12.5047 0 11.8627C0 11.2282 0.511634 10.7143 1.15592 10.7143L1.24206 10.7143C1.99601 10.7143 2.53203 10.4338 3.39874 9.80948C4.04843 9.33557 4.97374 8.67218 6.22932 8.67218C7.1024 8.67218 7.81318 8.98894 8.38315 9.34404Z"
                     fill="currentColor" fill-opacity="0.85" />
              <path d="M18.6058 3.93342C19.4651 4.55545 19.9988 4.83823 20.755 4.83823L20.8412 4.83823C21.4832 4.83823 21.9971 5.34987 21.9971 5.98439C21.9971 6.62637 21.4832 7.14777 20.8412 7.14777L20.755 7.14777C17.3948 7.14777 17.1708 5.09821 15.7678 5.09821C14.3792 5.09821 14.0316 7.14777 11.0023 7.14777C7.97069 7.14777 7.62538 5.09821 6.22932 5.09821C4.8338 5.09821 4.59998 7.14777 1.24206 7.14777L1.15592 7.14777C0.511634 7.14777 0 6.62637 0 5.98439C0 5.34987 0.511634 4.83823 1.15592 4.83823L1.24206 4.83823C1.99601 4.83823 2.53203 4.55545 3.39874 3.93342C4.04843 3.45952 4.97374 2.79612 6.22932 2.79612C7.50158 2.79612 8.42919 3.46643 9.07888 3.95241C9.78255 4.46768 10.2502 4.83823 11.0023 4.83823C11.7446 4.83823 12.222 4.46768 12.9182 3.95241C13.5754 3.46643 14.4955 2.79612 15.7678 2.79612C17.0308 2.79612 17.9487 3.45952 18.6058 3.93342Z"
                     fill="currentColor" fill-opacity="0.85" />
              <path d="M7.94667 14.5612L9.68386 14.5612L9.68386 18.9252C9.68386 19.6188 10.2592 20.2241 11 20.2241C11.7407 20.2241 12.3109 19.6188 12.3109 18.9252L12.3109 14.5612L13.9861 14.5612C14.8028 14.5612 15.1985 13.7692 14.6305 13.064L11.7701 9.48206C11.2992 8.89855 10.6359 8.91117 10.1776 9.48206L7.30972 13.0617C6.74695 13.7618 7.12023 14.5612 7.94667 14.5612Z"
                     fill="currentColor" fill-opacity="0.85" />
       </g>
</svg>