<?xml version="1.0" encoding="UTF-8"?>
<!--Generator: Apple Native CoreSVG 326-->
<!DOCTYPE svg PUBLIC "-//W3C//DTD SVG 1.1//EN" "http://www.w3.org/Graphics/SVG/1.1/DTD/svg11.dtd">
<svg version="1.1" xmlns="http://www.w3.org/2000/svg" xmlns:xlink="http://www.w3.org/1999/xlink"
       viewBox="0 0 21.365 21.006">
       <g>
              <rect height="21.006" opacity="0" width="21.365" x="0" y="0" />
              <path d="M10.4981 20.9962C16.302 20.9962 21.0037 16.2946 21.0037 10.4981C21.0037 4.70163 16.302 0 10.4981 0C4.70163 0 0 4.70163 0 10.4981C0 16.2946 4.70163 20.9962 10.4981 20.9962ZM10.4981 17.9484C6.37829 17.9484 3.04785 14.6179 3.04785 10.4981C3.04785 6.37829 6.37829 3.04785 10.4981 3.04785C14.6179 3.04785 17.9558 6.37829 17.9558 10.4981C17.9558 14.6179 14.6179 17.9484 10.4981 17.9484Z"
                     fill="currentColor" fill-opacity="0.85" />
              <path d="M6.34378 10.5182C6.34378 12.4509 6.88101 14.3429 7.87843 15.9422C8.18226 16.4263 8.77663 16.5739 9.25842 16.277C9.75744 15.9927 9.88087 15.3685 9.55697 14.8126C8.77032 13.5492 8.34622 12.0633 8.34622 10.5182C8.34622 8.97595 8.76802 7.49691 9.55697 6.2312C9.88087 5.67765 9.75744 5.05114 9.25842 4.75938C8.77432 4.46993 8.17249 4.6152 7.87843 5.10391C6.88101 6.70559 6.34378 8.59751 6.34378 10.5182Z"
                     fill="currentColor" fill-opacity="0.85" />
              <path d="M9.25866 10.5182C9.25866 11.9476 9.66257 13.3431 10.4198 14.4869C10.7064 14.9584 11.2835 15.0939 11.7676 14.8119C12.277 14.5173 12.3901 13.8908 12.0513 13.3028C11.537 12.5024 11.2657 11.5347 11.2657 10.5182C11.2657 9.51142 11.537 8.53625 12.0513 7.74336C12.3901 7.15536 12.277 6.52884 11.7676 6.22677C11.2835 5.94994 10.7064 6.08775 10.4198 6.54946C9.66257 7.6961 9.25866 9.08185 9.25866 10.5182Z"
                     fill="currentColor" fill-opacity="0.85" />
              <path d="M12.181 10.5182C12.181 11.4466 12.4688 12.3727 12.9715 13.0712C13.2535 13.4933 13.8352 13.5961 14.3021 13.3239C14.8132 13.0051 14.9016 12.3935 14.5433 11.7883C14.3111 11.4217 14.1881 10.9849 14.1881 10.5182C14.1881 10.0543 14.3111 9.61004 14.5433 9.25782C14.9039 8.64513 14.8155 8.03638 14.3021 7.71994C13.8352 7.45002 13.2632 7.55283 12.9715 7.96517C12.4688 8.68037 12.181 9.60416 12.181 10.5182Z"
                     fill="currentColor" fill-opacity="0.85" />
       </g>
</svg>