<?xml version="1.0" encoding="UTF-8"?>
<!--Generator: Apple Native CoreSVG 326-->
<!DOCTYPE svg PUBLIC "-//W3C//DTD SVG 1.1//EN" "http://www.w3.org/Graphics/SVG/1.1/DTD/svg11.dtd">
<svg version="1.1" xmlns="http://www.w3.org/2000/svg" xmlns:xlink="http://www.w3.org/1999/xlink"
       viewBox="0 0 37.1263 17.5954">
       <g>
              <rect height="17.5954" opacity="0" width="37.1263" x="0" y="0" />
              <path d="M3.22138 15.3614L6.9225 15.3614L6.9225 12.4089L3.72707 12.4089C3.24152 12.4089 2.9525 12.0986 2.9525 11.5802L2.9525 10.4166C2.9525 8.99687 3.78118 8.28659 5.9913 8.0114L10.1599 7.49843L14.5548 4.75726C16.631 3.46183 17.7611 3.18663 21.4439 3.18663L29.6006 3.18663C31.1408 3.18663 31.8264 3.52109 32.5377 4.52191L32.9846 5.15668C33.5206 5.91906 33.8125 6.832 33.8125 7.6329L33.8125 11.5871C33.8125 12.152 33.5769 12.4089 33.0402 12.4089L30.7349 12.4089L30.7349 15.3614L33.725 15.3614C35.6428 15.3614 36.765 14.1691 36.765 12.1759L36.765 7.6329C36.765 6.2779 36.2337 4.70236 35.41 3.48463L34.9631 2.82518C33.6983 0.970498 32.1273 0.234133 29.6006 0.234133L21.4439 0.234133C17.2713 0.234133 15.5107 0.662062 12.9839 2.24573L9.1453 4.64929L5.62209 5.08358C1.94882 5.53104 0 7.32307 0 10.4166L0 12.0814C0 14.2029 1.25831 15.3614 3.22138 15.3614ZM10.2343 15.3614L26.7127 15.3614L26.7127 12.4089L10.2343 12.4089ZM8.61419 17.5954C10.8324 17.5954 12.6255 15.8023 12.6255 13.5841C12.6255 11.351 10.8324 9.55788 8.61419 9.55788C6.38854 9.55788 4.59542 11.351 4.59542 13.5841C4.59542 15.8023 6.38854 17.5954 8.61419 17.5954ZM8.61419 14.9339C7.87922 14.9339 7.30172 14.3564 7.30172 13.6214C7.30172 12.8864 7.87922 12.3089 8.61419 12.3089C9.34916 12.3089 9.92667 12.8864 9.92667 13.6214C9.92667 14.3564 9.34916 14.9339 8.61419 14.9339ZM28.4228 17.5954C30.641 17.5954 32.4341 15.8023 32.4341 13.5841C32.4341 11.351 30.641 9.55788 28.4228 9.55788C26.1972 9.55788 24.4041 11.351 24.4041 13.5841C24.4041 15.8023 26.1972 17.5954 28.4228 17.5954ZM28.4228 14.9339C27.6879 14.9339 27.1103 14.3564 27.1103 13.6214C27.1103 12.8864 27.6879 12.3089 28.4228 12.3089C29.1503 12.3089 29.7353 12.8864 29.7353 13.6214C29.7353 14.3564 29.1503 14.9339 28.4228 14.9339Z"
                     fill="currentColor" fill-opacity="0.85" />
              <path d="M19.0158 11.5412C20.6313 11.5412 22.2255 11.081 23.5824 10.2508C24.0051 9.98836 24.1308 9.48703 23.8753 9.06899C23.63 8.64579 23.0942 8.53728 22.624 8.81982C21.5566 9.47084 20.3143 9.82022 19.0158 9.82022C17.7293 9.82022 16.4773 9.47084 15.4099 8.81982C14.9276 8.53728 14.4039 8.64349 14.1512 9.06899C13.9083 9.48242 14.0265 9.98836 14.4394 10.2508C15.794 11.081 17.3905 11.5412 19.0158 11.5412Z"
                     fill="currentColor" fill-opacity="0.85" />
              <path d="M19.0158 9.08489C20.2246 9.08489 21.3971 8.74133 22.3667 8.09559C22.7549 7.85266 22.883 7.3588 22.6452 6.94821C22.3845 6.5124 21.8464 6.4142 21.3589 6.69904C20.6747 7.134 19.861 7.35928 19.0158 7.35928C18.1631 7.35928 17.3546 7.134 16.6824 6.69904C16.1754 6.4142 15.6419 6.5124 15.3938 6.94821C15.1584 7.3588 15.2669 7.85266 15.6723 8.09559C16.6317 8.74133 17.814 9.08489 19.0158 9.08489Z"
                     fill="currentColor" fill-opacity="0.85" />
              <path d="M19.0158 6.61364C19.7844 6.61364 20.5749 6.36719 21.1735 5.93465C21.5295 5.69172 21.6202 5.19556 21.3871 4.80736C21.1195 4.36232 20.5912 4.28365 20.0744 4.59549C19.7727 4.78916 19.4078 4.89549 19.0158 4.89549C18.6359 4.89549 18.2612 4.78916 17.9572 4.59549C17.4353 4.28596 16.9219 4.36463 16.652 4.80736C16.4188 5.19556 16.5072 5.69172 16.8656 5.93465C17.4595 6.36719 18.2328 6.61364 19.0158 6.61364Z"
                     fill="currentColor" fill-opacity="0.85" />
       </g>
</svg>