<?xml version="1.0" encoding="UTF-8"?>
<!--Generator: Apple Native CoreSVG 326-->
<!DOCTYPE svg PUBLIC "-//W3C//DTD SVG 1.1//EN" "http://www.w3.org/Graphics/SVG/1.1/DTD/svg11.dtd">
<svg version="1.1" xmlns="http://www.w3.org/2000/svg" xmlns:xlink="http://www.w3.org/1999/xlink"
       viewBox="0 0 34.5871 26.3413">
       <g>
              <rect height="26.3413" opacity="0" width="34.5871" x="0" y="0" />
              <path d="M22.3984 5.33027L22.3984 19.0834C21.4283 19.6763 20.6652 20.4382 20.1621 21.2618L20.1621 5.33027C20.1621 4.70661 20.6508 4.20352 21.2717 4.20352C21.8976 4.20352 22.3984 4.70661 22.3984 5.33027Z"
                     fill="currentColor" fill-opacity="0.85" />
              <path d="M18.7866 8.0729L18.7866 18.2609C18.7866 18.8869 18.2881 19.3779 17.6621 19.3779C17.039 19.3779 16.5503 18.8869 16.5503 18.2609L16.5503 8.0729C16.5503 7.44693 17.039 6.94615 17.6621 6.94615C18.2881 6.94615 18.7866 7.44693 18.7866 8.0729Z"
                     fill="currentColor" fill-opacity="0.85" />
              <path d="M15.1845 3.21683L15.1845 23.1245C15.1845 23.7504 14.6786 24.2437 14.048 24.2437C13.437 24.2437 12.9483 23.7504 12.9483 23.1245L12.9483 3.21683C12.9483 2.59086 13.437 2.09009 14.048 2.09009C14.6786 2.09009 15.1845 2.59086 15.1845 3.21683Z"
                     fill="currentColor" fill-opacity="0.85" />
              <path d="M11.575 6.56298L11.575 19.7708C11.575 20.3968 11.0742 20.8901 10.4459 20.8901C9.82744 20.8901 9.33873 20.3968 9.33873 19.7708L9.33873 6.56298C9.33873 5.93701 9.82744 5.43393 10.4459 5.43393C11.0742 5.43393 11.575 5.93701 11.575 6.56298Z"
                     fill="currentColor" fill-opacity="0.85" />
              <path d="M7.96317 10.8406L7.96317 15.4857C7.96317 16.1117 7.4647 16.605 6.83642 16.605C6.21561 16.605 5.7269 16.1117 5.7269 15.4857L5.7269 10.8406C5.7269 10.2221 6.21561 9.71158 6.83642 9.71158C7.4647 9.71158 7.96317 10.2221 7.96317 10.8406Z"
                     fill="currentColor" fill-opacity="0.85" />
              <path d="M22.2522 24.7308L31.4 24.7308C32.3063 24.7308 32.8675 24.2897 32.8675 23.5419C32.8675 21.7404 30.4848 19.3001 26.8347 19.3001C23.1675 19.3001 20.7922 21.7404 20.7922 23.5419C20.7922 24.2897 21.3459 24.7308 22.2522 24.7308ZM26.8347 18.0776C28.4505 18.0776 29.7419 16.6651 29.7419 14.8924C29.7419 13.1863 28.4408 11.7727 26.8347 11.7727C25.2138 11.7727 23.9103 13.1909 23.9103 14.897C23.9103 16.6651 25.204 18.0776 26.8347 18.0776Z"
                     fill="currentColor" fill-opacity="0.85" />
       </g>
</svg>