<?xml version="1.0" encoding="UTF-8"?>
<!--Generator: Apple Native CoreSVG 326-->
<!DOCTYPE svg PUBLIC "-//W3C//DTD SVG 1.1//EN" "http://www.w3.org/Graphics/SVG/1.1/DTD/svg11.dtd">
<svg version="1.1" xmlns="http://www.w3.org/2000/svg" xmlns:xlink="http://www.w3.org/1999/xlink"
       viewBox="0 0 21.365 21.006">
       <g>
              <rect height="21.006" opacity="0" width="21.365" x="0" y="0" />
              <path d="M21.0037 10.5079C21.0037 16.3043 16.302 21.006 10.4981 21.006C4.70394 21.006 0 16.3043 0 10.5079C0 4.7137 4.70394 0.00976562 10.4981 0.00976562C16.302 0.00976562 21.0037 4.7137 21.0037 10.5079ZM7.69301 4.75653C6.63414 6.47649 6.06245 8.48669 6.06245 10.5377C6.06245 12.5887 6.63414 14.5961 7.69301 16.3091C8.01176 16.8225 8.6555 16.9827 9.16944 16.6709C9.70806 16.3596 9.83896 15.6883 9.49267 15.0952C8.65204 13.7433 8.21071 12.1712 8.21071 10.5377C8.21071 8.88981 8.64974 7.32234 9.49267 5.97281C9.83896 5.37734 9.70806 4.70606 9.16944 4.40454C8.65319 4.08064 8.00945 4.24083 7.69301 4.75653ZM10.4095 6.30544C9.60058 7.52614 9.16968 9.00033 9.16968 10.5377C9.16968 12.0584 9.60058 13.5326 10.4095 14.7625C10.7208 15.2564 11.3301 15.404 11.8538 15.1099C12.4027 14.7906 12.5256 14.1147 12.1546 13.4871C11.6133 12.6351 11.3225 11.6134 11.3225 10.5377C11.3225 9.45228 11.6133 8.43059 12.1546 7.57855C12.5256 6.9584 12.4027 6.28251 11.8538 5.96322C11.3301 5.664 10.7208 5.80927 10.4095 6.30544ZM13.1363 7.81244C12.5917 8.57185 12.2867 9.55709 12.2867 10.5377C12.2867 11.5253 12.5917 12.5105 13.1363 13.2509C13.4332 13.6977 14.0569 13.8154 14.5484 13.5185C15.0991 13.1826 15.1973 12.5239 14.8143 11.8791C14.5649 11.478 14.4395 11.0239 14.4395 10.5377C14.4395 10.0371 14.5649 9.58305 14.8143 9.18661C15.1996 8.54177 15.1014 7.8785 14.5484 7.54483C14.0569 7.25768 13.443 7.36795 13.1363 7.81244Z"
                     fill="currentColor" fill-opacity="0.85" />
       </g>
</svg>