<?xml version="1.0" encoding="UTF-8"?>
<!--Generator: Apple Native CoreSVG 326-->
<!DOCTYPE svg PUBLIC "-//W3C//DTD SVG 1.1//EN" "http://www.w3.org/Graphics/SVG/1.1/DTD/svg11.dtd">
<svg version="1.1" xmlns="http://www.w3.org/2000/svg" xmlns:xlink="http://www.w3.org/1999/xlink"
       viewBox="0 0 21.365 21.006">
       <g>
              <rect height="21.006" opacity="0" width="21.365" x="0" y="0" />
              <path d="M21.0037 10.5079C21.0037 16.3043 16.302 21.006 10.4981 21.006C4.70394 21.006 0 16.3043 0 10.5079C0 4.7137 4.70394 0.00976562 10.4981 0.00976562C16.302 0.00976562 21.0037 4.7137 21.0037 10.5079ZM11.9428 4.40454C11.4041 4.70606 11.2709 5.37734 11.6172 5.97281C12.4625 7.32234 12.8992 8.88981 12.8992 10.5377C12.8992 12.1712 12.4601 13.7433 11.6172 15.0952C11.2709 15.6883 11.4041 16.3596 11.9428 16.6709C12.4544 16.9827 13.0981 16.8225 13.4169 16.3091C14.4781 14.5961 15.0474 12.5887 15.0474 10.5377C15.0474 8.48669 14.4781 6.47649 13.4169 4.75653C13.1004 4.24083 12.4567 4.08064 11.9428 4.40454ZM9.26588 5.96322C8.71464 6.28251 8.58429 6.9584 8.95526 7.57855C9.49656 8.43059 9.78734 9.45228 9.78734 10.5377C9.78734 11.6134 9.49656 12.6351 8.95526 13.4871C8.58429 14.1147 8.71464 14.7906 9.26588 15.1099C9.77982 15.404 10.3891 15.2564 10.7004 14.7625C11.5168 13.5326 11.9402 12.0584 11.9402 10.5377C11.9402 9.00033 11.5168 7.52614 10.7004 6.30544C10.3891 5.80927 9.77982 5.664 9.26588 5.96322ZM6.56377 7.54483C6.01077 7.8785 5.91257 8.54177 6.29561 9.18661C6.54503 9.58305 6.67035 10.0371 6.67035 10.5377C6.67035 11.0239 6.54503 11.478 6.29561 11.8791C5.91488 12.5239 6.01308 13.1826 6.56377 13.5185C7.05533 13.8154 7.67669 13.6977 7.97591 13.2509C8.51817 12.5105 8.82321 11.5253 8.82321 10.5377C8.82321 9.55709 8.51817 8.57185 7.97591 7.81244C7.67439 7.36795 7.05533 7.25768 6.56377 7.54483Z"
                     fill="currentColor" fill-opacity="0.85" />
       </g>
</svg>