<?xml version="1.0" encoding="UTF-8"?>
<!--Generator: Apple Native CoreSVG 326-->
<!DOCTYPE svg PUBLIC "-//W3C//DTD SVG 1.1//EN" "http://www.w3.org/Graphics/SVG/1.1/DTD/svg11.dtd">
<svg version="1.1" xmlns="http://www.w3.org/2000/svg" xmlns:xlink="http://www.w3.org/1999/xlink"
       viewBox="0 0 17.2532 25.9503">
       <g>
              <rect height="25.9503" opacity="0" width="17.2532" x="0" y="0" />
              <path d="M0 12.9801C0 17.4966 1.43828 21.7322 4.0517 25.1419C5.51012 27.0155 8.06817 25.13 6.68436 23.4205C4.33679 20.481 3.13453 16.916 3.13453 12.9801C3.13453 9.04409 4.33679 5.47678 6.72913 2.4851C8.13993 0.743484 5.5009-1.04848 4.11885 0.743605C1.43828 4.22563 0 8.46124 0 12.9801Z"
                     fill="currentColor" fill-opacity="0.85" />
              <path d="M5.96389 12.9801C5.96389 16.3374 7.04259 19.507 8.99724 22.0424C10.5073 23.9849 13.0533 22.0241 11.6471 20.3135C9.98302 18.2983 9.09611 15.7644 9.09611 12.9801C9.09611 10.2032 9.98302 7.66932 11.6471 5.63916C13.0533 3.94352 10.5073 1.96776 8.99724 3.92289C7.04259 6.45086 5.96389 9.62268 5.96389 12.9801Z"
                     fill="currentColor" fill-opacity="0.85" />
              <path d="M11.9232 12.9801C11.9232 15.0962 12.6464 17.1354 13.9514 18.8217C15.2894 20.5449 17.7916 18.8514 16.5617 17.125C15.4323 15.5735 15.0554 14.4078 15.0554 12.9801C15.0554 11.5523 15.4323 10.3941 16.5617 8.83513C17.7916 7.10637 15.2917 5.4106 13.9514 7.13609C12.6464 8.82475 11.9232 10.8639 11.9232 12.9801Z"
                     fill="currentColor" fill-opacity="0.85" />
       </g>
</svg>