<?xml version="1.0" encoding="UTF-8"?>
<!--Generator: Apple Native CoreSVG 326-->
<!DOCTYPE svg PUBLIC "-//W3C//DTD SVG 1.1//EN" "http://www.w3.org/Graphics/SVG/1.1/DTD/svg11.dtd">
<svg version="1.1" xmlns="http://www.w3.org/2000/svg" xmlns:xlink="http://www.w3.org/1999/xlink"
       viewBox="0 0 26.2762 17.4971">
       <g>
              <rect height="17.4971" opacity="0" width="26.2762" x="0" y="0" />
              <path d="M12.9374 16.8937C17.4539 16.8937 21.6895 15.4577 25.1813 12.7674C26.9711 11.3928 25.1717 8.74862 23.43 10.1646C20.4384 12.5495 16.8734 13.7615 12.9374 13.7615C9.00141 13.7615 5.43411 12.5495 2.49465 10.2093C0.787488 8.82554-1.09291 11.3784 0.775538 12.842C4.18295 15.4554 8.41857 16.8937 12.9374 16.8937Z"
                     fill="currentColor" fill-opacity="0.85" />
              <path d="M12.9374 10.9321C16.2948 10.9321 19.4643 9.85342 21.9997 7.89878C23.9497 6.37892 21.9739 3.83524 20.2857 5.24659C18.2556 6.90553 15.7217 7.7976 12.9374 7.7976C10.1582 7.7976 7.62664 6.90553 5.60394 5.24659C3.90084 3.83524 1.93255 6.37892 3.87276 7.89878C6.40818 9.85342 9.58001 10.9321 12.9374 10.9321Z"
                     fill="currentColor" fill-opacity="0.85" />
              <path d="M12.9374 4.97054C15.0536 4.97054 17.0927 4.24965 18.779 2.94457C20.5068 1.60431 18.8088-0.905335 17.0823 0.334294C15.5285 1.46141 14.3652 1.83832 12.9374 1.83832C11.5073 1.83832 10.3491 1.46141 8.79015 0.334294C7.06369-0.905335 5.37023 1.60662 7.09341 2.94457C8.77977 4.24965 10.8212 4.97054 12.9374 4.97054Z"
                     fill="currentColor" fill-opacity="0.85" />
       </g>
</svg>