<?xml version="1.0" encoding="UTF-8"?>
<!--Generator: Apple Native CoreSVG 326-->
<!DOCTYPE svg PUBLIC "-//W3C//DTD SVG 1.1//EN" "http://www.w3.org/Graphics/SVG/1.1/DTD/svg11.dtd">
<svg version="1.1" xmlns="http://www.w3.org/2000/svg" xmlns:xlink="http://www.w3.org/1999/xlink"
       viewBox="0 0 37.581 17.4864">
       <g>
              <rect height="17.4864" opacity="0" width="37.581" x="0" y="0" />
              <path d="M11.8136 14.1336C11.8136 15.9384 10.3529 17.3916 8.55329 17.3916C6.75599 17.3916 5.29534 15.9384 5.29534 14.1336C5.29534 12.3363 6.75599 10.8831 8.55329 10.8831C10.3529 10.8831 11.8136 12.3363 11.8136 14.1336ZM31.9318 14.1336C31.9318 15.9384 30.4711 17.3916 28.6715 17.3916C26.8742 17.3916 25.4136 15.9384 25.4136 14.1336C25.4136 12.3363 26.8742 10.8831 28.6715 10.8831C30.4711 10.8831 31.9318 12.3363 31.9318 14.1336ZM32.5073 3.85148L34.0078 4.38398C36.1095 5.1312 37.2197 6.42815 37.2197 8.53552L37.2197 11.3376C37.2197 13.924 35.9246 15.2828 33.48 15.2828L33.1758 15.2828C33.2666 14.913 33.328 14.5282 33.328 14.1336C33.328 11.5598 31.2402 9.48916 28.6715 9.48916C26.0977 9.48916 24.0173 11.5598 24.0173 14.1336C24.0173 14.5282 24.0638 14.913 24.1597 15.2828L13.0628 15.2828C13.1535 14.913 13.2075 14.5282 13.2075 14.1336C13.2075 11.5598 11.122 9.48916 8.55329 9.48916C5.97717 9.48916 3.89909 11.5598 3.89909 14.1336C3.89909 14.5282 3.94562 14.913 4.04151 15.2828L3.73963 15.2828C1.29968 15.2828 0 13.9436 0 11.4111L0 10.1686C0 7.46846 1.89945 5.47542 4.99248 5.10609L9.35596 4.57874L13.3558 2.05351C15.9424 0.422773 17.7489 0 22.0242 0L23.6354 0C27.5363 0 30.557 2.15687 32.5073 3.85148ZM22.7103 8.49221C21.5642 9.18745 20.2554 9.55921 18.8707 9.55921C17.4907 9.55921 16.1675 9.18515 15.0214 8.49221C14.5092 8.18499 13.9436 8.29866 13.6834 8.75631C13.4181 9.20935 13.5513 9.74743 13.9986 10.0271C15.4347 10.9165 17.1346 11.4013 18.8707 11.4013C20.5873 11.4013 22.2849 10.9165 23.733 10.0271C24.1878 9.74974 24.3233 9.21396 24.0482 8.75631C23.7806 8.29866 23.215 8.18499 22.7103 8.49221ZM21.3517 6.22847C20.6353 6.69042 19.7676 6.93293 18.8707 6.93293C17.964 6.93293 17.0964 6.69042 16.3823 6.22847C15.8431 5.91894 15.2677 6.03437 14.995 6.50233C14.7497 6.9376 14.8703 7.46646 15.3056 7.73122C16.3264 8.41658 17.5753 8.77966 18.8707 8.77966C20.1633 8.77966 21.4047 8.41658 22.4335 7.73122C22.8539 7.46646 22.9871 6.9376 22.7441 6.50233C22.4662 6.03437 21.8885 5.91894 21.3517 6.22847ZM19.993 3.98195C19.6644 4.18539 19.2822 4.30148 18.8707 4.30148C18.4638 4.30148 18.0719 4.18539 17.7409 3.98195C17.1794 3.65004 16.6264 3.73848 16.3415 4.21105C16.0986 4.63139 16.187 5.15455 16.5701 5.41986C17.2036 5.87939 18.0286 6.14822 18.8707 6.14822C19.691 6.14822 20.5309 5.87939 21.1713 5.41986C21.5521 5.15225 21.6405 4.63139 21.3999 4.21105C21.1173 3.73617 20.5448 3.64773 19.993 3.98195Z"
                     fill="currentColor" fill-opacity="0.85" />
       </g>
</svg>