<?xml version="1.0" encoding="UTF-8"?>
<!--Generator: Apple Native CoreSVG 326-->
<!DOCTYPE svg PUBLIC "-//W3C//DTD SVG 1.1//EN" "http://www.w3.org/Graphics/SVG/1.1/DTD/svg11.dtd">
<svg version="1.1" xmlns="http://www.w3.org/2000/svg" xmlns:xlink="http://www.w3.org/1999/xlink"
       viewBox="0 0 17.2545 25.9503">
       <g>
              <rect height="25.9503" opacity="0" width="17.2545" x="0" y="0" />
              <path d="M16.8925 12.9801C16.8925 8.46124 15.4617 4.22563 12.7714 0.743605C11.3893-1.04848 8.75262 0.743484 10.1709 2.4851C12.5558 5.47678 13.7655 9.04409 13.7655 12.9801C13.7655 16.916 12.5534 20.481 10.2156 23.4205C8.83183 25.13 11.3824 27.0155 12.8385 25.1419C15.4617 21.7322 16.8925 17.4966 16.8925 12.9801Z"
                     fill="currentColor" fill-opacity="0.85" />
              <path d="M10.9287 12.9801C10.9287 9.62268 9.85741 6.45086 7.90277 3.92289C6.38291 1.96776 3.83923 3.94352 5.24312 5.63916C6.90952 7.66932 7.80389 10.2032 7.80389 12.9801C7.80389 15.7644 6.90952 18.2983 5.24312 20.3135C3.83923 22.0241 6.38291 23.9849 7.90277 22.0424C9.85741 19.507 10.9287 16.3374 10.9287 12.9801Z"
                     fill="currentColor" fill-opacity="0.85" />
              <path d="M4.96938 12.9801C4.96938 10.8639 4.25364 8.82475 2.94856 7.13609C1.6083 5.4106-0.901344 7.10637 0.330825 8.83513C1.4677 10.3941 1.84231 11.5523 1.84231 12.9801C1.84231 14.4078 1.4677 15.5735 0.330825 17.125C-0.899039 18.8514 1.61061 20.5449 2.94856 18.8217C4.25364 17.1354 4.96938 15.0962 4.96938 12.9801Z"
                     fill="currentColor" fill-opacity="0.85" />
       </g>
</svg>