<?xml version="1.0" encoding="UTF-8"?>
<!--Generator: Apple Native CoreSVG 326-->
<!DOCTYPE svg PUBLIC "-//W3C//DTD SVG 1.1//EN" "http://www.w3.org/Graphics/SVG/1.1/DTD/svg11.dtd">
<svg version="1.1" xmlns="http://www.w3.org/2000/svg" xmlns:xlink="http://www.w3.org/1999/xlink"
       viewBox="0 0 23.8214 19.0529">
       <g>
              <rect height="19.0529" opacity="0" width="23.8214" x="0" y="0" />
              <path d="M3.64834 19.0529L19.8117 19.0529C22.1386 19.0529 23.4601 17.7336 23.4601 15.416L23.4601 3.65404C23.4601 1.32897 22.1386 0.0149214 19.8117 0.0149214L3.64834 0.0149214C1.32382 0.0149214 0 1.32897 0 3.65404L0 15.416C0 17.7336 1.32382 19.0529 3.64834 19.0529ZM4.05583 16.0332C3.37024 16.0332 3.01964 15.7171 3.01964 14.985L3.01964 4.07767C3.01964 3.34555 3.37024 3.03457 4.05583 3.03457L19.4042 3.03457C20.0875 3.03457 20.4404 3.34555 20.4404 4.07767L20.4404 14.985C20.4404 15.7171 20.0875 16.0332 19.4042 16.0332Z"
                     fill="currentColor" fill-opacity="0.85" />
              <path d="M3.02941 10.56L5.35824 10.56C5.80339 10.56 6.07101 10.3446 6.25249 9.92818L6.91825 8.28053L8.51987 13.4744C8.73811 14.2055 9.87584 14.2032 10.1262 13.46L11.0318 10.56L12.8516 10.56C13.2967 10.56 13.562 10.3446 13.7458 9.92818L14.4581 8.26561L16.062 13.4744C16.2728 14.2055 17.418 14.2032 17.6586 13.46L18.574 10.56L20.4502 10.56L20.4502 8.86749L18.0434 8.86749C17.5907 8.86749 17.2887 9.09265 17.1491 9.52167L16.8741 10.2869L15.2851 5.49344C15.0571 4.77958 14.0124 4.77212 13.7057 5.50782L12.3284 8.86749L10.5012 8.86749C10.0509 8.86749 9.75628 9.10757 9.60695 9.52167L9.33194 10.2869L7.75039 5.49344C7.51723 4.77958 6.47024 4.77212 6.16357 5.50782L4.78625 8.86749L3.02941 8.86749Z"
                     fill="currentColor" fill-opacity="0.85" />
       </g>
</svg>