<?xml version="1.0" encoding="UTF-8"?>
<!--Generator: Apple Native CoreSVG 326-->
<!DOCTYPE svg PUBLIC "-//W3C//DTD SVG 1.1//EN" "http://www.w3.org/Graphics/SVG/1.1/DTD/svg11.dtd">
<svg version="1.1" xmlns="http://www.w3.org/2000/svg" xmlns:xlink="http://www.w3.org/1999/xlink"
       viewBox="0 0 20.8918 22.0411">
       <g>
              <rect height="22.0411" opacity="0" width="20.8918" x="0" y="0" />
              <path d="M1.15823 13.3727L5.51424 13.3727C6.1626 13.3727 6.60533 13.0506 6.74775 12.4511L8.71458 3.33902L6.95773 3.33902L9.88566 21.1499C10.0849 22.338 11.8851 22.3357 12.1188 21.1574L14.9738 7.53308L13.3663 7.50093L14.29 12.3431C14.4226 13.0161 14.8481 13.3727 15.5309 13.3727L19.3648 13.3727C20.0165 13.3727 20.5304 12.8686 20.5304 12.234C20.5304 11.5674 20.0263 11.0781 19.3648 11.0781L15.0389 11.0781L16.5421 12.5564L15.1876 6.43569C14.9292 5.30676 13.222 5.32168 12.9739 6.47245L10.0403 19.6269L11.7408 19.6269L8.8422 1.83323C8.66017 0.672153 6.96277 0.645161 6.70953 1.81085L4.42492 12.4371L6.14452 11.0781L1.15823 11.0781C0.511634 11.0781 0 11.5921 0 12.234C0 12.8686 0.511634 13.3727 1.15823 13.3727Z"
                     fill="currentColor" fill-opacity="0.85" />
       </g>
</svg>