<?xml version="1.0" encoding="UTF-8"?>
<!--Generator: Apple Native CoreSVG 326-->
<!DOCTYPE svg PUBLIC "-//W3C//DTD SVG 1.1//EN" "http://www.w3.org/Graphics/SVG/1.1/DTD/svg11.dtd">
<svg version="1.1" xmlns="http://www.w3.org/2000/svg" xmlns:xlink="http://www.w3.org/1999/xlink"
       viewBox="0 0 20.6349 22.1611">
       <g>
              <rect height="22.1611" opacity="0" width="20.6349" x="0" y="0" />
              <path d="M19.1468 15.5711C19.7728 15.5711 20.2736 15.0778 20.2736 14.4542L20.2736 7.6995C20.2736 7.07583 19.7728 6.57275 19.1468 6.57275C18.526 6.57275 18.0373 7.07583 18.0373 7.6995L18.0373 14.4542C18.0373 15.0778 18.526 15.5711 19.1468 15.5711Z"
                     fill="currentColor" fill-opacity="0.85" />
              <path d="M15.5448 20.0379C16.1707 20.0379 16.6692 19.5446 16.6692 18.9209L16.6692 3.24019C16.6692 2.61652 16.1707 2.11344 15.5448 2.11344C14.9216 2.11344 14.4329 2.61652 14.4329 3.24019L14.4329 18.9209C14.4329 19.5446 14.9216 20.0379 15.5448 20.0379Z"
                     fill="currentColor" fill-opacity="0.85" />
              <path d="M11.9329 17.2878C12.5612 17.2878 13.0597 16.7968 13.0597 16.1708L13.0597 5.98281C13.0597 5.35684 12.5612 4.85606 11.9329 4.85606C11.3121 4.85606 10.8234 5.35684 10.8234 5.98281L10.8234 16.1708C10.8234 16.7968 11.3121 17.2878 11.9329 17.2878Z"
                     fill="currentColor" fill-opacity="0.85" />
              <path d="M8.3211 22.1537C8.94938 22.1537 9.45016 21.6603 9.45016 21.0344L9.45016 1.12675C9.45016 0.500777 8.94938 0 8.3211 0C7.70259 0 7.21389 0.500777 7.21389 1.12675L7.21389 21.0344C7.21389 21.6603 7.70259 22.1537 8.3211 22.1537Z"
                     fill="currentColor" fill-opacity="0.85" />
              <path d="M4.71158 18.8C5.33986 18.8 5.84579 18.3067 5.84579 17.6808L5.84579 4.4729C5.84579 3.84693 5.33986 3.34385 4.71158 3.34385C4.10053 3.34385 3.60952 3.84693 3.60952 4.4729L3.60952 17.6808C3.60952 18.3067 4.10053 18.8 4.71158 18.8Z"
                     fill="currentColor" fill-opacity="0.85" />
              <path d="M1.10722 14.5149C1.7378 14.5149 2.23627 14.0216 2.23627 13.3957L2.23627 8.75055C2.23627 8.13204 1.7378 7.62149 1.10722 7.62149C0.488706 7.62149 0 8.13204 0 8.75055L0 13.3957C0 14.0216 0.488706 14.5149 1.10722 14.5149Z"
                     fill="currentColor" fill-opacity="0.85" />
       </g>
</svg>