<?xml version="1.0" encoding="UTF-8"?>
<!--Generator: Apple Native CoreSVG 326-->
<!DOCTYPE svg PUBLIC "-//W3C//DTD SVG 1.1//EN" "http://www.w3.org/Graphics/SVG/1.1/DTD/svg11.dtd">
<svg version="1.1" xmlns="http://www.w3.org/2000/svg" xmlns:xlink="http://www.w3.org/1999/xlink"
       viewBox="0 0 25.9503 24.8354">
       <g>
              <rect height="24.8354" opacity="0" width="25.9503" x="0" y="0" />
              <path d="M1.09108 14.7699L4.03448 14.7699C4.58912 14.7699 5.01978 14.5838 5.25227 14.1962L6.04699 12.6573L4.76514 12.6573L6.12159 19.4029C6.353 20.5558 8.03372 20.5558 8.20367 19.4006L8.88775 14.7841L9.88136 23.8799C10.0215 25.1546 11.8773 25.1523 11.9881 23.8799L12.8123 14.2206L13.6314 23.8776C13.7422 25.1546 15.598 25.1546 15.7381 23.8776L16.7392 14.7841L17.4158 19.4029C17.5858 20.5581 19.2665 20.5581 19.4979 19.4029L20.867 12.6763L19.8095 12.6786L20.3299 13.8604C20.6491 14.4513 21.1721 14.7699 21.8163 14.7699L24.5002 14.7699C25.0923 14.7699 25.589 14.2732 25.589 13.6834C25.589 13.0937 25.0923 12.5947 24.5002 12.5947L22.1042 12.5947L21.3827 9.68668C21.1099 8.58474 19.5366 8.58474 19.3155 9.68668L18.6366 13.0397L17.6327 6.23899C17.4506 4.99639 15.666 5.00846 15.5408 6.2413L14.8251 12.6849L13.8654 1.41963C13.7598 0.12765 11.8597 0.12765 11.7541 1.41963L10.7944 12.6849L10.0861 6.2413C9.95348 4.99639 8.16886 4.99639 7.98683 6.23899L6.99037 13.0397L6.30399 9.68668C6.0852 8.61119 4.50729 8.61119 4.23683 9.68668L3.51526 12.5947L1.09108 12.5947C0.496713 12.5947 0 13.0937 0 13.6834C0 14.2732 0.496713 14.7699 1.09108 14.7699Z"
                     fill="currentColor" fill-opacity="0.85" />
       </g>
</svg>