<?xml version="1.0" encoding="UTF-8"?>
<!--Generator: Apple Native CoreSVG 326-->
<!DOCTYPE svg PUBLIC "-//W3C//DTD SVG 1.1//EN" "http://www.w3.org/Graphics/SVG/1.1/DTD/svg11.dtd">
<svg version="1.1" xmlns="http://www.w3.org/2000/svg" xmlns:xlink="http://www.w3.org/1999/xlink"
       viewBox="0 0 23.8214 19.0529">
       <g>
              <rect height="19.0529" opacity="0" width="23.8214" x="0" y="0" />
              <path d="M0 10.6891L0 8.79519L3.8835 8.79519L5.40027 5.09978C5.73163 4.27971 6.91061 4.28948 7.17592 5.08541L8.89691 10.3116L9.19661 9.52397C9.38094 9.0628 9.68301 8.79519 10.1953 8.79519L12.5425 8.79519L14.0541 5.09978C14.3906 4.27971 15.5644 4.28948 15.8274 5.08541L17.5507 10.3116L17.8481 9.52397C18.0347 9.0628 18.3443 8.79519 18.8468 8.79519L23.4601 8.79519L23.4601 10.6891L19.4371 10.6891L18.442 13.8726C18.1767 14.703 16.8972 14.7076 16.6417 13.887L14.8983 8.18584L14.1315 9.98271C13.9276 10.4513 13.6301 10.6891 13.1328 10.6891L10.7833 10.6891L9.78819 13.8726C9.52288 14.703 8.24571 14.7076 7.99016 13.887L6.24448 8.21569L5.53626 9.98271C5.34501 10.4588 5.02517 10.6891 4.47654 10.6891ZM3.64834 19.0529L19.8117 19.0529C22.1386 19.0529 23.4601 17.7336 23.4601 15.416L23.4601 3.65404C23.4601 1.32897 22.1386 0.0149214 19.8117 0.0149214L3.64834 0.0149214C1.32382 0.0149214 0 1.32897 0 3.65404L0 15.416C0 17.7336 1.32382 19.0529 3.64834 19.0529Z"
                     fill="currentColor" fill-opacity="0.85" />
       </g>
</svg>