<?xml version="1.0" encoding="UTF-8"?>
<!--Generator: Apple Native CoreSVG 326-->
<!DOCTYPE svg PUBLIC "-//W3C//DTD SVG 1.1//EN" "http://www.w3.org/Graphics/SVG/1.1/DTD/svg11.dtd">
<svg version="1.1" xmlns="http://www.w3.org/2000/svg" xmlns:xlink="http://www.w3.org/1999/xlink"
       viewBox="0 0 24.1972 22.0169">
       <g>
              <rect height="22.0169" opacity="0" width="24.1972" x="0" y="0" />
              <path d="M7.07826 22.002C10.9767 22.002 14.1416 18.825 14.1416 14.9312C14.1416 11.0178 10.9939 7.86036 7.07826 7.86036C3.15515 7.86036 0 11.0178 0 14.9312C0 18.8347 3.15515 22.002 7.07826 22.002ZM7.07596 19.674C4.4288 19.674 2.33544 17.5685 2.33544 14.9289C2.33544 12.3087 4.43857 10.186 7.07596 10.186C9.69557 10.186 11.8062 12.3087 11.8062 14.9289C11.8062 17.5536 9.69557 19.674 7.07596 19.674ZM7.07826 16.7106C8.06962 16.7106 8.86458 15.9225 8.86458 14.9312C8.86458 13.9231 8.07939 13.1448 7.07826 13.1448C6.07944 13.1448 5.29655 13.9134 5.28909 14.9237C5.28163 15.9225 6.06967 16.7106 7.07826 16.7106ZM7.30736 9.98763L9.50171 9.96404L7.61798 0.967768C7.48302 0.310741 6.96865 0 6.22265 0L2.8216 0C2.17786 0 1.65185 0.520854 1.65185 1.17206C1.65185 1.8158 2.17786 2.33435 2.8216 2.33435L5.54354 2.33435C5.64635 2.33435 5.69803 2.3688 5.72272 2.45493ZM7.65504 6.7765L15.2065 6.7765C15.8434 6.7765 16.3573 6.26256 16.3573 5.62804C16.3573 4.9889 15.8434 4.47496 15.2065 4.47496L7.26708 4.47496ZM12.664 15.4275L16.8763 15.4275C18.5288 15.4275 19.7872 14.13 19.7872 12.5166C19.7872 10.8739 18.5288 9.57644 16.8763 9.57644L9.54933 9.57644L12.1221 11.8481L16.7786 11.8481C17.1671 11.8481 17.4522 12.1378 17.4522 12.4994C17.4522 12.8759 17.1671 13.1558 16.7786 13.1558L12.6617 13.1558ZM16.9139 18.5367L18.8296 17.7778L17.4409 14.1852L15.2275 14.2042ZM18.4959 22.002C19.8844 22.002 21.0167 20.8772 21.0167 19.4789C21.0167 18.0979 19.8844 16.9754 18.4959 16.9754C17.1074 16.9754 15.9752 18.0979 15.9752 19.4789C15.9752 20.8772 17.1097 22.002 18.4959 22.002ZM18.4959 20.2795C18.0511 20.2795 17.6976 19.9261 17.6976 19.4789C17.6976 19.049 18.0511 18.6978 18.4959 18.6978C18.9431 18.6978 19.2867 19.049 19.2867 19.4789C19.2867 19.9261 18.9431 20.2795 18.4959 20.2795ZM20.0485 20.83L22.6638 20.83C23.3076 20.83 23.8359 20.3092 23.8359 19.658C23.8359 19.0142 23.3076 18.4957 22.6638 18.4957L20.0346 18.4957Z"
                     fill="currentColor" fill-opacity="0.85" />
       </g>
</svg>