<?xml version="1.0" encoding="UTF-8"?>
<!--Generator: Apple Native CoreSVG 326-->
<!DOCTYPE svg PUBLIC "-//W3C//DTD SVG 1.1//EN" "http://www.w3.org/Graphics/SVG/1.1/DTD/svg11.dtd">
<svg version="1.1" xmlns="http://www.w3.org/2000/svg" xmlns:xlink="http://www.w3.org/1999/xlink"
       viewBox="0 0 34.0597 25.689">
       <g>
              <rect height="25.689" opacity="0" width="34.0597" x="0" y="0" />
              <path d="M5.8467 25.6792L27.8517 25.6792C29.9767 25.6792 31.3382 25.3588 32.3641 24.3306C33.3975 23.3047 33.6984 21.9702 33.6984 19.8302L33.6984 5.8467C33.6984 3.70906 33.3975 2.3648 32.3641 1.34632C31.3284 0.312925 29.9767 0 27.8517 0L5.84209 0C3.72398 0 2.36249 0.312925 1.3291 1.34863C0.303159 2.37456 0 3.70906 0 5.84209L0 19.8302C0 21.9702 0.303159 23.3144 1.3291 24.3306C2.36995 25.3588 3.72398 25.6792 5.8467 25.6792ZM5.57557 22.6521C4.53986 22.6521 3.94028 22.5005 3.54602 22.1137C3.16152 21.7194 3.01964 21.1468 3.01964 20.1037L3.01964 5.58248C3.01964 4.5324 3.16152 3.95751 3.54602 3.55578C3.94028 3.17128 4.54217 3.01964 5.58248 3.01964L28.1251 3.01964C29.1585 3.01964 29.7529 3.17128 30.1524 3.55809C30.5392 3.95751 30.6713 4.5324 30.6713 5.57557L30.6713 20.1037C30.6713 21.1468 30.5369 21.7194 30.1524 22.1137C29.7529 22.5005 29.1585 22.6521 28.1251 22.6521Z"
                     fill="currentColor" fill-opacity="0.85" />
              <path d="M5.49059 15.9352L28.2026 15.9352C28.6041 15.9352 28.9275 15.6118 28.9275 15.2178C28.9275 14.8186 28.6041 14.5079 28.2026 14.5079L5.49059 14.5079C5.09141 14.5079 4.7709 14.8186 4.7709 15.2178C4.7709 15.6118 5.09141 15.9352 5.49059 15.9352ZM5.49059 18.417L28.2026 18.417C28.6041 18.417 28.9275 18.0839 28.9275 17.6899C28.9275 17.2907 28.6041 16.9822 28.2026 16.9822L5.49059 16.9822C5.09141 16.9822 4.7709 17.2907 4.7709 17.6899C4.7709 18.0839 5.09141 18.417 5.49059 18.417ZM5.49059 20.889L21.8103 20.889C22.2118 20.889 22.5277 20.5582 22.5277 20.1642C22.5277 19.765 22.2118 19.4543 21.8103 19.4543L5.49059 19.4543C5.09141 19.4543 4.7709 19.765 4.7709 20.1642C4.7709 20.5582 5.09141 20.889 5.49059 20.889ZM6.02649 8.98699L8.31722 8.98699C9.1123 8.98699 9.66094 8.43089 9.66094 7.63351L9.66094 5.96777C9.66094 5.17039 9.1123 4.62175 8.31722 4.62175L6.02649 4.62175C5.2291 4.62175 4.68047 5.17039 4.68047 5.96777L4.68047 7.63351C4.68047 8.43089 5.2291 8.98699 6.02649 8.98699Z"
                     fill="currentColor" fill-opacity="0.85" />
       </g>
</svg>