<?xml version="1.0" encoding="UTF-8"?>
<!--Generator: Apple Native CoreSVG 326-->
<!DOCTYPE svg PUBLIC "-//W3C//DTD SVG 1.1//EN" "http://www.w3.org/Graphics/SVG/1.1/DTD/svg11.dtd">
<svg version="1.1" xmlns="http://www.w3.org/2000/svg" xmlns:xlink="http://www.w3.org/1999/xlink"
       viewBox="0 0 21.365 21.006">
       <g>
              <rect height="21.006" opacity="0" width="21.365" x="0" y="0" />
              <path d="M21.0037 10.4981C21.0037 16.2946 16.302 20.9962 10.4981 20.9962C4.70163 20.9962 0 16.2946 0 10.4981C0 4.70163 4.70163 0 10.4981 0C16.302 0 21.0037 4.70163 21.0037 10.4981ZM3.04785 10.4981C3.04785 14.6179 6.37829 17.9484 10.4981 17.9484C14.6179 17.9484 17.9558 14.6179 17.9558 10.4981C17.9558 6.37829 14.6179 3.04785 10.4981 3.04785C6.37829 3.04785 3.04785 6.37829 3.04785 10.4981Z"
                     fill="currentColor" fill-opacity="0.85" />
              <path d="M14.3546 10.7527C14.4844 10.902 14.4746 11.1151 14.3178 11.2547L13.5348 12.0004C13.3608 12.1641 13.1132 12.1641 12.9495 11.9832C12.7197 11.7474 12.4492 11.5442 12.1545 11.3823C12.1716 11.2904 12.1812 11.1926 12.1849 11.0906C12.1947 10.6668 12.2129 10.0491 12.2322 9.40148C13.0875 9.67432 13.8405 10.1438 14.3546 10.7527ZM8.80902 11.0906C8.81286 11.1963 8.82312 11.2974 8.84121 11.3923C8.55772 11.5515 8.29933 11.7507 8.08115 11.9808C7.90021 12.1543 7.65267 12.1641 7.46889 12.0004L6.68072 11.2547C6.52908 11.1128 6.51931 10.9043 6.64912 10.7527C7.16207 10.1451 7.91293 9.67631 8.76433 9.40329C8.78351 10.0504 8.80131 10.6677 8.80902 11.0906ZM8.6982 6.81617C8.70084 7.15308 8.71476 7.69928 8.73207 8.30593C7.69822 8.59925 6.77365 9.16682 5.99403 9.98557C5.82517 10.1717 5.55579 10.174 5.39154 9.99764L4.68896 9.28068C4.54939 9.13365 4.53962 8.91541 4.66943 8.75631C5.60322 7.59239 7.10995 6.73104 8.75296 6.3651C8.71633 6.50851 8.6982 6.65992 8.6982 6.81617ZM16.3343 8.75631C16.4641 8.91541 16.4543 9.13365 16.3073 9.28068L15.6121 9.99533C15.4404 10.1642 15.1808 10.1619 15.024 9.99533C14.2481 9.17027 13.3149 8.59715 12.2646 8.30346C12.282 7.69939 12.2963 7.15487 12.3009 6.81617C12.3009 6.6592 12.2826 6.50769 12.2457 6.36464C13.8925 6.73036 15.4001 7.59194 16.3343 8.75631Z"
                     fill="currentColor" fill-opacity="0.85" />
              <path d="M10.4981 11.9967C11.0797 11.9967 11.3818 11.6573 11.4065 11.0584C11.426 10.004 11.5104 7.69155 11.5173 6.81617C11.5173 6.25516 11.132 5.80157 10.4958 5.80157C9.87456 5.80157 9.4766 6.25516 9.4766 6.81617C9.49097 7.69155 9.57019 10.004 9.59718 11.0584C9.61441 11.6573 9.92163 11.9967 10.4981 11.9967ZM10.4958 14.8555C11.1287 14.8555 11.6364 14.3776 11.6364 13.7746C11.6364 13.1664 11.1287 12.6885 10.4958 12.6885C9.87268 12.6885 9.34777 13.1641 9.34777 13.7746C9.34777 14.3776 9.87268 14.8555 10.4958 14.8555Z"
                     fill="currentColor" fill-opacity="0.85" />
       </g>
</svg>