<?xml version="1.0" encoding="UTF-8"?>
<!--Generator: Apple Native CoreSVG 326-->
<!DOCTYPE svg PUBLIC "-//W3C//DTD SVG 1.1//EN" "http://www.w3.org/Graphics/SVG/1.1/DTD/svg11.dtd">
<svg version="1.1" xmlns="http://www.w3.org/2000/svg" xmlns:xlink="http://www.w3.org/1999/xlink"
       viewBox="0 0 31.4951 21.8059">
       <g>
              <rect height="21.8059" opacity="0" width="31.4951" x="0" y="0" />
              <path d="M15.5671 0C13.5099 0 11.4963 0.574534 9.77982 1.63165C9.24866 1.95786 9.09593 2.60445 9.41291 3.13101C9.7219 3.66733 10.3983 3.79822 10.9966 3.44448C12.3519 2.62053 13.9251 2.17404 15.5671 2.17404C17.2087 2.17404 18.7847 2.61822 20.1399 3.44448C20.7382 3.79822 21.4072 3.66733 21.7139 3.13101C22.0355 2.60215 21.8828 1.95555 21.3493 1.63165C19.6282 0.574534 17.6244 0 15.5671 0Z"
                     fill="currentColor" fill-opacity="0.85" />
              <path d="M15.5694 3.11633C14.0453 3.11633 12.5603 3.55754 11.3321 4.35207C10.8331 4.67598 10.6729 5.29042 10.9796 5.81928C11.304 6.37338 11.9753 6.49396 12.6156 6.12529C13.4607 5.58345 14.4955 5.28751 15.5694 5.28751C16.6457 5.28751 17.6731 5.58345 18.5256 6.12529C19.1659 6.49396 19.8297 6.37338 20.1541 5.81928C20.4608 5.29042 20.3081 4.67598 19.8068 4.35207C18.5878 3.55754 17.1028 3.11633 15.5694 3.11633Z"
                     fill="currentColor" fill-opacity="0.85" />
              <path d="M15.5671 6.24757C14.5814 6.24757 13.5881 6.55777 12.8374 7.09027C12.3854 7.4021 12.2752 8.02862 12.5623 8.53279C12.9109 9.08864 13.5672 9.17708 14.2322 8.79865C14.6137 8.54923 15.0781 8.41876 15.5671 8.41876C16.0631 8.41876 16.5275 8.54923 16.9044 8.79865C17.5619 9.17939 18.2205 9.09095 18.5691 8.53279C18.854 8.02862 18.7437 7.40441 18.2941 7.09027C17.5341 6.55777 16.5408 6.24757 15.5671 6.24757Z"
                     fill="currentColor" fill-opacity="0.85" />
              <path d="M3.5206 21.7915L27.6206 21.7915C29.8277 21.7915 31.1337 20.4976 31.1337 18.2876L31.1337 14.2771C31.1337 12.0746 29.8277 10.7732 27.6206 10.7732L3.5206 10.7732C1.30605 10.7732 0 12.0746 0 14.2771L0 18.2876C0 20.4976 1.30605 21.7915 3.5206 21.7915ZM3.75188 19.033C3.2875 19.033 3.01964 18.7698 3.01964 18.3175L3.01964 14.2622C3.01964 13.8024 3.2875 13.5317 3.75188 13.5317L27.3818 13.5317C27.8462 13.5317 28.1141 13.8024 28.1141 14.2622L28.1141 18.3175C28.1141 18.7698 27.8462 19.033 27.3818 19.033ZM5.80424 16.9859L8.54778 16.9859C9.19437 16.9859 9.68132 16.5088 9.68132 15.8622C9.68132 15.2081 9.19437 14.7286 8.54778 14.7286L5.80424 14.7286C5.15765 14.7286 4.68047 15.2081 4.68047 15.8622C4.68047 16.5088 5.15765 16.9859 5.80424 16.9859ZM13.5363 17.7783C14.3467 17.7783 15.0273 17.0977 15.0273 16.2677C15.0273 15.4648 14.3467 14.7841 13.5363 14.7841C12.7138 14.7841 12.0331 15.4648 12.0331 16.2677C12.0331 17.0977 12.7138 17.7783 13.5363 17.7783ZM17.3545 17.7783C18.1649 17.7783 18.8455 17.0977 18.8455 16.2677C18.8455 15.4648 18.1649 14.7841 17.3545 14.7841C16.532 14.7841 15.8514 15.4648 15.8514 16.2677C15.8514 17.0977 16.532 17.7783 17.3545 17.7783ZM21.1653 17.7783C21.9757 17.7783 22.6563 17.0977 22.6563 16.2677C22.6563 15.4648 21.9757 14.7841 21.1653 14.7841C20.3428 14.7841 19.6621 15.4648 19.6621 16.2677C19.6621 17.0977 20.3428 17.7783 21.1653 17.7783ZM24.9835 17.7783C25.7962 17.7783 26.4769 17.0977 26.4769 16.27C26.4769 15.4648 25.7962 14.7841 24.9835 14.7841C24.161 14.7841 23.4804 15.4648 23.4804 16.27C23.4804 17.0977 24.161 17.7783 24.9835 17.7783Z"
                     fill="currentColor" fill-opacity="0.85" />
       </g>
</svg>