<?xml version="1.0" encoding="UTF-8"?>
<!--Generator: Apple Native CoreSVG 326-->
<!DOCTYPE svg PUBLIC "-//W3C//DTD SVG 1.1//EN" "http://www.w3.org/Graphics/SVG/1.1/DTD/svg11.dtd">
<svg version="1.1" xmlns="http://www.w3.org/2000/svg" xmlns:xlink="http://www.w3.org/1999/xlink"
       viewBox="0 0 19.3993 19.0529">
       <g>
              <rect height="19.0529" opacity="0" width="19.3993" x="0" y="0" />
              <path d="M3.64834 19.0379L15.3896 19.0379C17.7164 19.0379 19.0379 17.7262 19.0379 15.4011L19.0379 3.63912C19.0379 1.32151 17.7164 0 15.3896 0L3.64834 0C1.32382 0 0 1.32151 0 3.63912L0 15.4011C0 17.7262 1.32382 19.0379 3.64834 19.0379ZM4.05583 16.0183C3.37024 16.0183 3.01964 15.7096 3.01964 14.9775L3.01964 4.07021C3.01964 3.33809 3.37024 3.0271 4.05583 3.0271L14.9821 3.0271C15.6654 3.0271 16.0183 3.33809 16.0183 4.07021L16.0183 14.9775C16.0183 15.7096 15.6654 16.0183 14.9821 16.0183Z"
                     fill="currentColor" fill-opacity="0.85" />
              <path d="M4.58142 9.036C4.73821 9.20486 4.99266 9.20256 5.16153 9.01646C6.32661 7.79849 7.82154 7.1556 9.52385 7.1556C11.2359 7.1556 12.7481 7.80595 13.8931 9.03369C14.0522 9.19279 14.2969 9.1951 14.4611 9.03369L15.139 8.34142C15.2711 8.19439 15.2884 7.98361 15.1609 7.83943C13.947 6.32279 11.7196 5.32603 9.52385 5.32603C7.32295 5.32603 5.0956 6.32279 3.88169 7.83943C3.75188 7.98361 3.77141 8.19439 3.90122 8.34142Z"
                     fill="currentColor" fill-opacity="0.85" />
              <path d="M6.59162 10.9716C6.76794 11.1353 7.00056 11.1181 7.17404 10.9521C7.76865 10.3315 8.66205 9.9374 9.52385 9.93971C10.3782 9.9374 11.2791 10.3315 11.888 10.9544C12.0494 11.1353 12.2821 11.1353 12.4486 10.9716L13.219 10.2483C13.3586 10.1087 13.3781 9.91053 13.246 9.7612C12.4319 8.79889 10.9986 8.19736 9.52385 8.19736C8.05143 8.19736 6.6106 8.79889 5.79654 9.7612C5.67189 9.91284 5.68165 10.1064 5.83329 10.2483Z"
                     fill="currentColor" fill-opacity="0.85" />
              <path d="M9.52385 13.7119C9.68526 13.7119 9.82022 13.6309 10.042 13.4235L11.2237 12.2906C11.361 12.1436 11.3805 11.9253 11.2605 11.776C10.8475 11.2636 10.192 10.9493 9.52385 10.9493C8.8385 10.9493 8.16522 11.2883 7.75506 11.8323C7.65225 11.9696 7.68901 12.1585 7.82858 12.2906L9.00803 13.4235C9.22749 13.6286 9.36245 13.7119 9.52385 13.7119Z"
                     fill="currentColor" fill-opacity="0.85" />
       </g>
</svg>