<?xml version="1.0" encoding="UTF-8"?>
<!--Generator: Apple Native CoreSVG 326-->
<!DOCTYPE svg PUBLIC "-//W3C//DTD SVG 1.1//EN" "http://www.w3.org/Graphics/SVG/1.1/DTD/svg11.dtd">
<svg version="1.1" xmlns="http://www.w3.org/2000/svg" xmlns:xlink="http://www.w3.org/1999/xlink"
       viewBox="0 0 19.3993 19.0529">
       <g>
              <rect height="19.0529" opacity="0" width="19.3993" x="0" y="0" />
              <path d="M19.0379 3.63912L19.0379 15.4011C19.0379 17.7262 17.7164 19.0379 15.3896 19.0379L3.64834 19.0379C1.32382 19.0379 0 17.7262 0 15.4011L0 3.63912C0 1.32151 1.32382 0 3.64834 0L15.3896 0C17.7164 0 19.0379 1.32151 19.0379 3.63912ZM7.65916 12.082C7.55866 12.2291 7.59541 12.4427 7.7476 12.5874L9.05049 13.8415C9.28256 14.0684 9.42959 14.1568 9.60822 14.1568C9.78686 14.1568 9.95396 14.0707 10.1906 13.8415L11.4912 12.5874C11.6532 12.4203 11.6653 12.1825 11.528 12.0183C11.0754 11.4439 10.3556 11.1026 9.60822 11.1026C8.86604 11.1026 8.10893 11.476 7.65916 12.082ZM5.49799 9.79565C5.36072 9.95991 5.37279 10.1856 5.54221 10.3349L6.38435 11.1346C6.57791 11.3133 6.84037 11.3081 7.02877 11.1151C7.68998 10.4205 8.65514 9.9994 9.60822 10.004C10.5567 9.9994 11.5414 10.4205 12.2124 11.1174C12.391 11.3133 12.6535 11.3133 12.8396 11.1346L13.6817 10.3349C13.8534 10.1879 13.8632 9.9576 13.7236 9.79565C12.8229 8.73459 11.2339 8.06647 9.60822 8.06647C7.98022 8.06647 6.40104 8.73459 5.49799 9.79565ZM3.38795 7.67869C3.25068 7.84756 3.27021 8.07326 3.41955 8.23006L4.16404 8.99408C4.34322 9.18764 4.62005 9.18764 4.81361 8.98432C6.0872 7.63775 7.74287 6.93802 9.60822 6.93802C11.496 6.93802 13.1637 7.65037 14.4201 8.99408C14.6039 9.17041 14.8686 9.1681 15.0599 8.99178L15.8044 8.23006C15.9537 8.07326 15.9732 7.84756 15.8262 7.67869C14.4889 6.00647 12.0365 4.91557 9.60822 4.91557C7.18514 4.91557 4.73275 6.00647 3.38795 7.67869Z"
                     fill="currentColor" fill-opacity="0.85" />
       </g>
</svg>