<?xml version="1.0" encoding="UTF-8"?>
<!--Generator: Apple Native CoreSVG 326-->
<!DOCTYPE svg PUBLIC "-//W3C//DTD SVG 1.1//EN" "http://www.w3.org/Graphics/SVG/1.1/DTD/svg11.dtd">
<svg version="1.1" xmlns="http://www.w3.org/2000/svg" xmlns:xlink="http://www.w3.org/1999/xlink"
       viewBox="0 0 24.0393 17.225">
       <g>
              <rect height="17.225" opacity="0" width="24.0393" x="0" y="0" />
              <path d="M1.63319 7.52463C1.91803 7.81462 2.37052 7.80716 2.6456 7.5074C5.10017 4.92127 8.26423 3.55869 11.839 3.55869C15.4407 3.55869 18.6169 4.92357 21.0594 7.52463C21.3322 7.7974 21.7674 7.78763 22.0448 7.49764L23.4745 6.06045C23.7324 5.81006 23.745 5.43854 23.5187 5.19046C21.0149 2.08238 16.4374 0.00976562 11.839 0.00976562C7.2429 0.00976562 2.66076 2.08238 0.159243 5.19046C-0.0670041 5.43854-0.0520827 5.81006 0.203462 6.06045Z"
                     fill="currentColor" fill-opacity="0.85" />
              <path d="M5.80529 11.547C6.11712 11.8416 6.54493 11.8197 6.83723 11.5005C8.1061 10.1942 9.99032 9.37373 11.839 9.37603C13.7147 9.37373 15.6213 10.2235 16.8947 11.5447C17.1675 11.8467 17.5609 11.822 17.8727 11.5447L19.4759 10.0333C19.7217 9.79498 19.7561 9.46077 19.5276 9.20292C17.8739 7.26945 14.9306 5.99409 11.839 5.99409C8.74735 5.99409 5.81154 7.26945 4.15041 9.20292C3.92186 9.46077 3.95401 9.79037 4.20209 10.0333Z"
                     fill="currentColor" fill-opacity="0.85" />
              <path d="M11.8465 17.225C12.1508 17.225 12.4184 17.0826 12.8441 16.6742L15.294 14.307C15.545 14.0635 15.5915 13.6771 15.3578 13.4043C14.5514 12.3975 13.2234 11.7294 11.8465 11.7294C10.4454 11.7294 9.05767 12.4342 8.24385 13.5301C8.07904 13.7684 8.17033 14.0859 8.39373 14.307L10.8488 16.6742C11.2819 17.0803 11.5495 17.225 11.8465 17.225Z"
                     fill="currentColor" fill-opacity="0.85" />
       </g>
</svg>