<?xml version="1.0" encoding="UTF-8"?>
<!--Generator: Apple Native CoreSVG 326-->
<!DOCTYPE svg PUBLIC "-//W3C//DTD SVG 1.1//EN" "http://www.w3.org/Graphics/SVG/1.1/DTD/svg11.dtd">
<svg version="1.1" xmlns="http://www.w3.org/2000/svg" xmlns:xlink="http://www.w3.org/1999/xlink"
       viewBox="0 0 21.365 21.006">
       <g>
              <rect height="21.006" opacity="0" width="21.365" x="0" y="0" />
              <path d="M21.0037 10.5079C21.0037 16.3043 16.302 21.006 10.4981 21.006C4.70394 21.006 0 16.3043 0 10.5079C0 4.7137 4.70394 0.00976562 10.4981 0.00976562C16.302 0.00976562 21.0037 4.7137 21.0037 10.5079ZM8.55135 13.0683C8.44338 13.2177 8.48014 13.429 8.63979 13.5737L9.93522 14.8301C10.1748 15.0547 10.3218 15.1431 10.5004 15.1431C10.679 15.1431 10.8462 15.057 11.0828 14.8301L12.3834 13.5737C12.5356 13.4066 12.5574 13.1712 12.4202 13.0121C11.9676 12.4376 11.2403 12.0912 10.5004 12.0912C9.75077 12.0912 9.00112 12.4623 8.55135 13.0683ZM6.39018 10.782C6.25291 10.9485 6.26498 11.1719 6.4344 11.3213L7.26908 12.121C7.4701 12.2996 7.73256 12.2967 7.92095 12.1014C8.57471 11.4092 9.54733 10.988 10.5004 10.9903C11.4489 10.988 12.4336 11.4092 13.1046 12.1037C13.2832 12.3019 13.5382 12.2996 13.7294 12.121L14.5664 11.3213C14.7381 11.1742 14.7479 10.9462 14.6083 10.782C13.7053 9.72838 12.1261 9.06256 10.5004 9.06256C8.87241 9.06256 7.29322 9.73069 6.39018 10.782ZM4.28014 8.66502C4.14287 8.83389 4.15494 9.05959 4.31174 9.22385L5.04646 9.98787C5.22564 10.1763 5.50478 10.174 5.7058 9.97064C6.97939 8.63154 8.63275 7.92435 10.5004 7.92435C12.3882 7.92435 14.0536 8.6367 15.3123 9.98787C15.496 10.1642 15.7608 10.1642 15.9521 9.98557L16.6891 9.22385C16.8459 9.05959 16.858 8.83389 16.7184 8.66502C15.3736 6.9951 12.9287 5.9019 10.5004 5.9019C8.06987 5.9019 5.62494 6.9928 4.28014 8.66502Z"
                     fill="currentColor" fill-opacity="0.85" />
       </g>
</svg>