<?xml version="1.0" encoding="UTF-8"?>
<!--Generator: Apple Native CoreSVG 326-->
<!DOCTYPE svg PUBLIC "-//W3C//DTD SVG 1.1//EN" "http://www.w3.org/Graphics/SVG/1.1/DTD/svg11.dtd">
<svg version="1.1" xmlns="http://www.w3.org/2000/svg" xmlns:xlink="http://www.w3.org/1999/xlink"
       viewBox="0 0 23.3698 21.7425">
       <g>
              <rect height="21.7425" opacity="0" width="23.3698" x="0" y="0" />
              <path d="M2.73929 13.0876L20.291 13.0876C21.9584 13.0876 22.779 12.1355 22.5183 10.3887L21.3801 2.57879C21.1539 1.0485 20.3402 0.0051558 18.7955 0.0051558L4.24223 0.0051558C2.6901 0.0051558 1.8764 1.04104 1.65015 2.57879L0.504478 10.3887C0.251238 12.1355 1.06439 13.0876 2.73929 13.0876ZM3.67346 9.7985L3.98674 7.70599L10.1307 7.70599L10.0813 10.068L3.90389 10.068C3.7585 10.068 3.64416 9.94905 3.67346 9.7985ZM4.35135 5.37067L4.66979 3.27531C4.69909 3.12707 4.7669 3.0248 4.91284 3.0248L10.2542 3.0248L10.2002 5.37067ZM12.7767 3.0248L18.1174 3.0248C18.2634 3.0248 18.3386 3.12707 18.3605 3.27531L18.6715 5.37067L12.8283 5.37067ZM12.8903 7.70599L19.0361 7.70599L19.3568 9.7985C19.3786 9.94905 19.2718 10.068 19.1264 10.068L12.942 10.068ZM1.80846 11.787L1.80846 20.2232L4.82811 20.2232L4.82811 11.787ZM18.1653 11.787L18.1653 20.2232L21.1849 20.2232L21.1849 11.787ZM0 20.2232C0 21.058 0.682139 21.7425 1.51931 21.7425L21.4735 21.7425C22.3107 21.7425 22.9877 21.058 22.9877 20.2232C22.9877 19.386 22.3107 18.7113 21.4735 18.7113L1.51931 18.7113C0.682139 18.7113 0 19.386 0 20.2232Z"
                     fill="currentColor" fill-opacity="0.85" />
       </g>
</svg>