<?xml version="1.0" encoding="UTF-8"?>
<!--Generator: Apple Native CoreSVG 326-->
<!DOCTYPE svg PUBLIC "-//W3C//DTD SVG 1.1//EN" "http://www.w3.org/Graphics/SVG/1.1/DTD/svg11.dtd">
<svg version="1.1" xmlns="http://www.w3.org/2000/svg" xmlns:xlink="http://www.w3.org/1999/xlink"
       viewBox="0 0 21.3845 22.3507">
       <g>
              <rect height="22.3507" opacity="0" width="21.3845" x="0" y="0" />
              <path d="M18.1012 19.449C18.4331 19.449 18.6588 19.1665 18.602 18.8173L18.4763 18.0441L19.1076 18.5329C19.3683 18.7597 19.7192 18.7132 19.8812 18.4157C20.0454 18.1332 19.9202 17.7651 19.586 17.6496L18.8932 17.3681L19.6056 17.0791C19.9329 16.9539 20.0506 16.6225 19.8909 16.3353C19.7336 16.0477 19.3557 15.9891 19.0979 16.213L18.4986 16.672L18.6043 15.9309C18.6611 15.5818 18.4354 15.2969 18.1012 15.2969C17.7549 15.2969 17.5218 15.5771 17.5861 15.9286L17.6894 16.6668L17.0856 16.2055C16.8128 15.9914 16.4493 16.0528 16.2994 16.3353C16.13 16.6225 16.2678 16.959 16.59 17.0865L17.3 17.3606L16.5848 17.6548C16.2604 17.78 16.1277 18.136 16.3046 18.4157C16.4619 18.7109 16.8128 18.7597 17.0856 18.5306L17.6894 18.0642L17.5884 18.8173C17.5338 19.1688 17.7647 19.449 18.1012 19.449Z"
                     fill="currentColor" fill-opacity="0.85" />
              <path d="M18.1012 4.14693C18.4331 4.14693 18.6588 3.8644 18.602 3.52042L18.4763 2.74717L19.1076 3.22854C19.3683 3.45533 19.7192 3.40881 19.8812 3.12112C20.0454 2.83858 19.9202 2.463 19.586 2.34527L18.8932 2.07347L19.6056 1.77698C19.9329 1.65694 20.0506 1.31812 19.8909 1.03328C19.7336 0.745584 19.3557 0.694451 19.0979 0.910933L18.4986 1.36992L18.6043 0.628822C18.6611 0.284841 18.4354 0 18.1012 0C17.7549 0 17.5218 0.280231 17.5861 0.626517L17.6894 1.36476L17.0856 0.903472C16.8128 0.696756 16.4493 0.75074 16.2994 1.03328C16.13 1.31812 16.2678 1.6644 16.59 1.7919L17.3 2.06601L16.5848 2.35273C16.2604 2.48538 16.1277 2.84143 16.3046 3.12112C16.4619 3.40881 16.8128 3.45764 17.0856 3.22854L17.6894 2.7621L17.5884 3.52042C17.5338 3.8667 17.7647 4.14693 18.1012 4.14693Z"
                     fill="currentColor" fill-opacity="0.85" />
              <path d="M1.73197 8.27537C3.13822 7.86345 4.60076 7.65892 5.98748 7.65892C7.73213 7.65892 9.07287 7.92205 10.7646 7.92205C12.6418 7.92205 13.9668 6.60381 13.9668 4.83471C13.9668 3.07132 12.6193 1.75715 10.8916 1.75715C9.741 1.75715 8.64507 2.44535 8.13046 3.45515C7.86976 3.95647 7.98804 4.50662 8.45667 4.78686C8.94823 5.08486 9.56037 4.90514 9.86989 4.35037C10.0624 3.98662 10.4703 3.72283 10.8916 3.72283C11.538 3.72283 12.0012 4.15494 12.0012 4.83471C12.0012 5.52195 11.5277 5.95867 10.7646 5.95867C9.21815 5.95867 7.82057 5.68808 5.98748 5.68808C4.41061 5.68808 2.74705 5.9489 1.15483 6.38551C0.573079 6.54746 0.282536 7.08554 0.432417 7.62647C0.589759 8.17717 1.11346 8.45455 1.73197 8.27537ZM17.177 13.3008C19.6165 13.3008 21.3845 11.6988 21.3845 9.49079C21.3845 7.32701 19.7245 5.70264 17.5964 5.70264C15.9482 5.70264 14.4978 6.77643 14.0247 8.29077C13.8393 8.84268 14.0564 9.38877 14.5572 9.57189C15.0976 9.76993 15.6787 9.50056 15.8911 8.8849C16.1168 8.1654 16.8321 7.66602 17.5964 7.66602C18.6311 7.66602 19.4189 8.4204 19.4189 9.49079C19.4189 10.5882 18.5352 11.3374 17.177 11.3374C14.2358 11.3374 10.8961 9.63819 6.95998 9.63819C4.91842 9.63819 3.00041 9.95299 1.14737 10.551C0.567923 10.7422 0.282536 11.2631 0.432417 11.7966C0.59722 12.3547 1.14561 12.6344 1.7469 12.4208C3.40584 11.8526 5.08838 11.6113 6.95998 11.6113C10.7744 11.6113 13.7517 13.3008 17.177 13.3008ZM10.7744 20.581C12.4872 20.581 13.7911 19.2812 13.7911 17.5252C13.7911 14.9967 11.2063 13.5883 6.64651 13.5883C4.84502 13.5883 2.86721 13.9249 1.14737 14.4913C0.567923 14.6826 0.282536 15.2034 0.432417 15.7295C0.59722 16.2876 1.14561 16.5748 1.7469 16.3611C3.27725 15.8269 4.94092 15.554 6.64651 15.554C9.92285 15.554 11.8277 16.3382 11.8277 17.5252C11.8277 18.205 11.3892 18.6176 10.7744 18.6176C10.2715 18.6176 9.9072 18.294 9.71079 17.7348C9.48806 17.2168 8.95581 16.9663 8.42397 17.1672C7.88007 17.3681 7.68191 17.963 7.91956 18.5275C8.35647 19.7283 9.44439 20.581 10.7744 20.581Z"
                     fill="currentColor" fill-opacity="0.85" />
       </g>
</svg>