<?xml version="1.0" encoding="UTF-8"?>
<!--Generator: Apple Native CoreSVG 326-->
<!DOCTYPE svg PUBLIC "-//W3C//DTD SVG 1.1//EN" "http://www.w3.org/Graphics/SVG/1.1/DTD/svg11.dtd">
<svg version="1.1" xmlns="http://www.w3.org/2000/svg" xmlns:xlink="http://www.w3.org/1999/xlink"
       viewBox="0 0 21.365 21.006">
       <g>
              <rect height="21.006" opacity="0" width="21.365" x="0" y="0" />
              <path d="M10.4981 20.9962C16.302 20.9962 21.0037 16.2946 21.0037 10.4981C21.0037 4.70163 16.302 0 10.4981 0C4.70163 0 0 4.70163 0 10.4981C0 16.2946 4.70163 20.9962 10.4981 20.9962ZM10.4981 17.9484C6.37829 17.9484 3.04785 14.6179 3.04785 10.4981C3.04785 6.37829 6.37829 3.04785 10.4981 3.04785C14.6179 3.04785 17.9558 6.37829 17.9558 10.4981C17.9558 14.6179 14.6179 17.9484 10.4981 17.9484Z"
                     fill="currentColor" fill-opacity="0.85" />
              <path d="M5.64005 9.01307C6.40528 8.78439 7.16767 8.67752 7.92544 8.67752C8.86021 8.67752 9.57893 8.82115 10.5096 8.82115C11.5483 8.82115 12.3008 8.08181 12.3008 7.08572C12.3008 6.09248 11.5471 5.35029 10.5654 5.35029C9.90987 5.35029 9.3124 5.74959 9.02866 6.31545C8.87647 6.61697 8.93045 6.95701 9.22112 7.12873C9.5301 7.3056 9.89537 7.19017 10.0717 6.84498C10.1688 6.67368 10.3579 6.55067 10.5654 6.55067C10.8855 6.55067 11.1056 6.74435 11.1056 7.08572C11.1056 7.43225 10.8878 7.63053 10.5096 7.63053C9.6599 7.63053 8.9165 7.48229 7.92544 7.48229C7.0631 7.48229 6.15653 7.62307 5.30231 7.85921C4.94505 7.95686 4.75841 8.28999 4.85376 8.60127C4.95196 8.93955 5.27532 9.12564 5.64005 9.01307ZM13.9537 11.7096C15.3147 11.7096 16.2953 10.814 16.2953 9.58463C16.2953 8.36963 15.371 7.47174 14.1824 7.47174C13.2557 7.47174 12.4433 8.07623 12.1873 8.93003C12.069 9.26491 12.2195 9.60835 12.5331 9.71225C12.8439 9.82592 13.2097 9.65244 13.3354 9.28826C13.4457 8.9233 13.8002 8.66696 14.1824 8.66696C14.7168 8.66696 15.1001 9.03357 15.1001 9.58463C15.1001 10.1575 14.6628 10.5144 13.9537 10.5144C12.3778 10.5144 10.5935 9.60088 8.43962 9.60088C7.35321 9.60088 6.28755 9.77612 5.28509 10.095C4.94735 10.2099 4.75841 10.5332 4.85376 10.8468C4.95942 11.1851 5.2977 11.3637 5.66473 11.2316C6.53739 10.93 7.44165 10.7961 8.43962 10.7961C10.4976 10.7961 12.0912 11.7096 13.9537 11.7096ZM10.5119 15.6287C11.469 15.6287 12.2083 14.9009 12.2083 13.9151C12.2083 12.4979 10.7687 11.7195 8.27943 11.7195C7.31251 11.7195 6.2261 11.9119 5.28278 12.2113C4.94735 12.3285 4.7561 12.6593 4.85376 12.9533C4.95942 13.2991 5.2977 13.48 5.66473 13.3502C6.4731 13.0704 7.3665 12.9199 8.27943 12.9199C10.0353 12.9199 11.0056 13.3158 11.0056 13.9151C11.0056 14.2467 10.805 14.4283 10.5119 14.4283C10.2538 14.4283 10.0889 14.2961 9.99588 14.0064C9.86729 13.6779 9.5526 13.5233 9.22518 13.6496C8.88854 13.7661 8.7742 14.121 8.90279 14.4639C9.14681 15.1293 9.74658 15.6287 10.5119 15.6287Z"
                     fill="currentColor" fill-opacity="0.85" />
       </g>
</svg>