<?xml version="1.0" encoding="UTF-8"?>
<!--Generator: Apple Native CoreSVG 326-->
<!DOCTYPE svg PUBLIC "-//W3C//DTD SVG 1.1//EN" "http://www.w3.org/Graphics/SVG/1.1/DTD/svg11.dtd">
<svg version="1.1" xmlns="http://www.w3.org/2000/svg" xmlns:xlink="http://www.w3.org/1999/xlink"
       viewBox="0 0 21.3845 18.8364">
       <g>
              <rect height="18.8364" opacity="0" width="21.3845" x="0" y="0" />
              <path d="M1.73197 6.51822C3.13822 6.10631 4.60076 5.90178 5.98748 5.90178C7.73213 5.90178 9.07287 6.1649 10.7646 6.1649C12.6418 6.1649 13.9668 4.84666 13.9668 3.07757C13.9668 1.31417 12.6193 0 10.8916 0C9.741 0 8.64507 0.688204 8.13046 1.69801C7.86976 2.19933 7.98804 2.74948 8.45667 3.02971C8.94823 3.32771 9.56037 3.14799 9.86989 2.59323C10.0624 2.22948 10.4703 1.96568 10.8916 1.96568C11.538 1.96568 12.0012 2.3978 12.0012 3.07757C12.0012 3.7648 11.5277 4.20152 10.7646 4.20152C9.21815 4.20152 7.82057 3.93094 5.98748 3.93094C4.41061 3.93094 2.74705 4.19176 1.15483 4.62836C0.573079 4.79031 0.282536 5.32839 0.432417 5.86932C0.589759 6.42002 1.11346 6.6974 1.73197 6.51822ZM17.177 11.5436C19.6165 11.5436 21.3845 9.94165 21.3845 7.73365C21.3845 5.56987 19.7245 3.9455 17.5964 3.9455C15.9482 3.9455 14.4978 5.01929 14.0247 6.53363C13.8393 7.08554 14.0564 7.63162 14.5572 7.81475C15.0976 8.01279 15.6787 7.74341 15.8911 7.12776C16.1168 6.40825 16.8321 5.90887 17.5964 5.90887C18.6311 5.90887 19.4189 6.66325 19.4189 7.73365C19.4189 8.83104 18.5352 9.58026 17.177 9.58026C14.2358 9.58026 10.8961 7.88104 6.95998 7.88104C4.91842 7.88104 3.00041 8.19585 1.14737 8.79386C0.567923 8.9851 0.282536 9.50596 0.432417 10.0394C0.59722 10.5976 1.14561 10.8773 1.7469 10.6636C3.40584 10.0955 5.08838 9.85419 6.95998 9.85419C10.7744 9.85419 13.7517 11.5436 17.177 11.5436ZM10.7744 18.8238C12.4872 18.8238 13.7911 17.524 13.7911 15.7681C13.7911 13.2396 11.2063 11.8311 6.64651 11.8311C4.84502 11.8311 2.86721 12.1678 1.14737 12.7342C0.567923 12.9254 0.282536 13.4463 0.432417 13.9723C0.59722 14.5305 1.14561 14.8176 1.7469 14.604C3.27725 14.0697 4.94092 13.7968 6.64651 13.7968C9.92285 13.7968 11.8277 14.5811 11.8277 15.7681C11.8277 16.4479 11.3892 16.8604 10.7744 16.8604C10.2715 16.8604 9.9072 16.5368 9.71079 15.9777C9.48806 15.4597 8.95581 15.2091 8.42397 15.41C7.88007 15.6109 7.68191 16.2058 7.91956 16.7704C8.35647 17.9711 9.44439 18.8238 10.7744 18.8238Z"
                     fill="currentColor" fill-opacity="0.85" />
       </g>
</svg>