<?xml version="1.0" encoding="UTF-8"?>
<!--Generator: Apple Native CoreSVG 326-->
<!DOCTYPE svg PUBLIC "-//W3C//DTD SVG 1.1//EN" "http://www.w3.org/Graphics/SVG/1.1/DTD/svg11.dtd">
<svg version="1.1" xmlns="http://www.w3.org/2000/svg" xmlns:xlink="http://www.w3.org/1999/xlink"
       viewBox="0 0 24.2536 25.2894">
       <g>
              <rect height="25.2894" opacity="0" width="24.2536" x="0" y="0" />
              <path d="M1.47801 6.74508L2.76508 8.9648C2.68752 9.1011 2.64661 9.27163 2.64661 9.47126L2.64661 15.5488C2.64661 16.1202 2.97306 16.4443 3.51284 16.4443L7.10199 16.4443L8.63658 19.0909L3.50077 19.0909C1.34159 19.0909 0 17.7764 0 15.6442L0 9.38337C0 8.09083 0.496482 7.09258 1.37383 6.51144C1.40029 6.59097 1.43497 6.66921 1.47801 6.74508ZM23.8922 9.38337L23.8922 15.6442C23.8922 17.7764 22.553 19.0909 20.3915 19.0909L11.5063 19.0909L9.97211 16.4443L20.3794 16.4443C20.9146 16.4443 21.2531 16.1202 21.2531 15.5488L21.2531 9.47126C21.2531 8.90734 20.9146 8.57574 20.3794 8.57574L14.6148 8.57574L14.6148 5.92913L20.3915 5.92913C22.553 5.92913 23.8922 7.26096 23.8922 9.38337ZM9.28493 8.57574L5.41095 8.57574L3.87681 5.92913L9.28493 5.92913Z"
                     fill="currentColor" fill-opacity="0.85" />
              <path d="M13.068 11.0993L13.068 12.9771C13.068 13.5933 12.5574 14.0963 11.9487 14.0963C11.3348 14.0963 10.8294 13.5933 10.8294 12.9771L10.8294 11.0993C10.8294 10.4905 11.3348 9.97768 11.9487 9.97768C12.5574 9.97768 13.068 10.4905 13.068 11.0993ZM13.068 5.99294L13.068 7.86557C13.068 8.48178 12.5574 8.9751 11.9487 8.9751C11.3348 8.9751 10.8294 8.48178 10.8294 7.86557L10.8294 5.99294C10.8294 5.37674 11.3348 4.87365 11.9487 4.87365C12.5574 4.87365 13.068 5.37674 13.068 5.99294ZM5.4417 1.0337C5.57435 1.62006 5.22861 2.13807 4.62217 2.36607C3.96436 2.61021 3.38182 3.02674 2.90154 3.57252C2.50643 4.04861 1.92237 4.17842 1.40953 3.88435C0.815157 3.53061 0.663517 2.76452 1.13676 2.20285C1.86742 1.32109 2.84507 0.619723 3.84917 0.26992C4.6021-0.00230491 5.28951 0.33652 5.4417 1.0337ZM20.0431 0.26992C21.0546 0.619723 22.0248 1.32109 22.7629 2.20285C23.2287 2.76452 23.0845 3.53061 22.4827 3.88435C21.9773 4.17842 21.3933 4.04861 20.9907 3.57252C20.5179 3.02674 19.9353 2.61021 19.2701 2.36607C18.6711 2.13807 18.323 1.62006 18.458 1.0337C18.6027 0.33652 19.2976-0.00230491 20.0431 0.26992ZM8.46182 0.287146C9.46362 0.627184 10.4338 1.31878 11.1593 2.19308C11.6159 2.76968 11.5056 3.47377 10.9038 3.85736C10.4012 4.18642 9.80457 4.06068 9.38246 3.5553C8.91941 3.02674 8.34203 2.61021 7.68136 2.36607C7.08008 2.13807 6.76364 1.63729 6.85207 1.06069C6.98703 0.3532 7.68476-0.00460982 8.46182 0.287146ZM17.0402 1.06069C17.1286 1.63729 16.8122 2.13807 16.2258 2.36607C15.5479 2.61021 14.9705 3.02674 14.5098 3.5553C14.0928 4.06068 13.4962 4.18642 12.9885 3.85736C12.3918 3.47377 12.2764 2.76968 12.7404 2.19308C13.4636 1.31878 14.4361 0.627184 15.4304 0.287146C16.2149-0.00460982 16.9052 0.3532 17.0402 1.06069Z"
                     fill="currentColor" fill-opacity="0.85" />
              <path d="M11.9441 25.2894C13.3995 25.2894 14.5872 24.1114 14.5872 22.6486C14.5872 21.1909 13.4018 20.0002 11.9441 20.0002C10.491 20.0002 9.30555 21.1909 9.30555 22.6486C9.30555 24.1137 10.4887 25.2894 11.9441 25.2894ZM11.9441 23.4562C11.4926 23.4562 11.1289 23.0926 11.1289 22.6486C11.1289 22.1947 11.4926 21.8362 11.9441 21.8362C12.3905 21.8362 12.7564 22.1947 12.7564 22.6486C12.7564 23.0926 12.3905 23.4562 11.9441 23.4562ZM10.1 21.6147L12.3717 20.5839L3.6188 5.48404C3.28689 4.89889 2.54901 4.70994 1.92304 5.03439C1.32121 5.39099 1.13633 6.1427 1.47801 6.74508Z"
                     fill="currentColor" fill-opacity="0.85" />
       </g>
</svg>