<?xml version="1.0" encoding="UTF-8"?>
<!--Generator: Apple Native CoreSVG 326-->
<!DOCTYPE svg PUBLIC "-//W3C//DTD SVG 1.1//EN" "http://www.w3.org/Graphics/SVG/1.1/DTD/svg11.dtd">
<svg version="1.1" xmlns="http://www.w3.org/2000/svg" xmlns:xlink="http://www.w3.org/1999/xlink"
       viewBox="0 0 25.4211 20.9858">
       <g>
              <rect height="20.9858" opacity="0" width="25.4211" x="0" y="0" />
              <path d="M25.0598 3.61674L25.0598 10.669C25.0598 12.8896 23.6637 14.2783 21.404 14.2783L20.2921 14.2783C20.4365 13.854 20.5311 13.3733 20.5311 12.8039C20.5311 12.2995 20.4466 11.886 20.315 11.5197L21.3747 11.5197C21.9461 11.5197 22.3013 11.164 22.3013 10.5759L22.3013 3.70979C22.3013 3.11196 21.9461 2.75852 21.3747 2.75852L3.68279 2.75852C3.10911 2.75852 2.75852 3.11196 2.75852 3.70979L2.75852 10.5759C2.75852 11.164 3.10911 11.5197 3.68279 11.5197L7.21764 11.5197C7.44967 11.9104 7.62319 12.2842 7.62319 12.8039C7.62319 13.3834 7.47872 13.8477 7.27523 14.2783L3.66326 14.2783C1.39843 14.2783 0 12.8919 0 10.669L0 3.61674C0 1.38636 1.39843 0 3.66326 0L21.404 0C23.6637 0 25.0598 1.38866 25.0598 3.61674ZM13.2648 12.8039C13.2648 13.3834 13.1205 13.8477 12.9173 14.2783L9.00669 14.2783C9.15112 13.854 9.24568 13.3733 9.24568 12.8039C9.24568 12.2995 9.16114 11.886 9.02957 11.5197L12.8592 11.5197C13.0912 11.9104 13.2648 12.2842 13.2648 12.8039ZM18.9086 12.8039C18.9086 13.3834 18.7641 13.8477 18.5606 14.2783L14.6486 14.2783C14.7928 13.854 14.8872 13.3733 14.8872 12.8039C14.8872 12.2995 14.8027 11.886 14.6711 11.5197L18.5031 11.5197C18.7351 11.9104 18.9086 12.2842 18.9086 12.8039Z"
                     fill="currentColor" fill-opacity="0.85" />
              <path d="M4.68659 7.06589C4.41206 7.46791 4.67222 8.01182 5.18397 8.01182L8.59042 8.01182C9.10217 8.01182 9.36232 7.46791 9.0878 7.06589L7.43225 4.64632C7.29498 4.44815 7.1112 4.33042 6.88835 4.33042C6.6655 4.33042 6.48171 4.44815 6.34214 4.64632ZM8.26627 19.3601C7.78775 18.7179 7.63435 18.3474 7.63435 17.6815C7.63435 15.9926 9.24568 15.1544 9.24568 12.8039C9.24568 10.6435 7.69471 10.1506 7.69471 7.74081L7.69471 7.24858L6.07968 7.24858L6.07968 7.74081C6.07968 11.0017 7.62319 11.254 7.62319 12.8039C7.62319 14.7346 6.01933 15.3867 6.01933 17.8016C6.01933 18.7419 6.30253 19.4801 6.96253 20.321C7.64885 21.1963 8.9572 20.2837 8.26627 19.3601ZM10.3282 7.06589C10.0536 7.46791 10.3161 8.01182 10.8278 8.01182L14.232 8.01182C14.7437 8.01182 15.0039 7.46791 14.7294 7.06589L13.0761 4.64632C12.9365 4.44815 12.7528 4.33042 12.5299 4.33042C12.3071 4.33042 12.1233 4.44815 11.9837 4.64632ZM13.9078 19.3601C13.4293 18.7179 13.2782 18.3474 13.2782 17.6815C13.2782 15.9926 14.8872 15.1544 14.8872 12.8039C14.8872 10.6435 13.3363 10.1506 13.3363 7.74081L13.3363 7.24858L11.7212 7.24858L11.7212 7.74081C11.7212 11.0017 13.2648 11.254 13.2648 12.8039C13.2648 14.7346 11.6632 15.3867 11.6632 17.8016C11.6632 18.7419 11.9464 19.4801 12.6041 20.321C13.2904 21.1963 14.6011 20.2837 13.9078 19.3601ZM15.972 7.06589C15.6975 7.46791 15.9576 8.01182 16.4694 8.01182L19.8758 8.01182C20.3876 8.01182 20.6477 7.46791 20.3732 7.06589L18.7177 4.64632C18.5781 4.44815 18.3943 4.33042 18.1715 4.33042C17.9486 4.33042 17.7648 4.44815 17.6253 4.64632ZM19.5494 19.3601C19.0732 18.7179 18.9198 18.3474 18.9198 17.6815C18.9198 15.9926 20.5311 15.1544 20.5311 12.8039C20.5311 10.6435 18.9801 10.1506 18.9801 7.74081L18.9801 7.24858L17.3651 7.24858L17.3651 7.74081C17.3651 11.0017 18.9086 11.254 18.9086 12.8039C18.9086 14.7346 17.3047 15.3867 17.3047 17.8016C17.3047 18.7419 17.588 19.4801 18.248 20.321C18.932 21.1963 20.2426 20.2837 19.5494 19.3601Z"
                     fill="currentColor" fill-opacity="0.85" />
       </g>
</svg>