<?xml version="1.0" encoding="UTF-8"?>
<!--Generator: Apple Native CoreSVG 326-->
<!DOCTYPE svg PUBLIC "-//W3C//DTD SVG 1.1//EN" "http://www.w3.org/Graphics/SVG/1.1/DTD/svg11.dtd">
<svg version="1.1" xmlns="http://www.w3.org/2000/svg" xmlns:xlink="http://www.w3.org/1999/xlink"
       viewBox="0 0 23.2255 20.7931">
       <g>
              <rect height="20.7931" opacity="0" width="23.2255" x="0" y="0" />
              <path d="M2.51045 20.7931L15.9345 20.7931C17.0959 20.7931 17.9694 20.124 18.2858 19.0086L22.7337 3.15466C23.2437 1.33292 22.2197 0.00460982 20.3538 0.00460982L6.92966 0.00460982C5.76834 0.00460982 4.89714 0.673707 4.58585 1.78675L0.130543 17.643C-0.379453 19.4625 0.644483 20.7931 2.51045 20.7931ZM3.13296 17.5634L4.7486 11.8144L9.42536 11.8144L7.71831 17.883L3.36527 17.883C3.16402 17.883 3.07776 17.7824 3.13296 17.5634ZM5.57886 8.8889L7.18351 3.19415C7.23125 3.01012 7.35086 2.91465 7.51766 2.91465L11.9316 2.91465L10.2505 8.8889ZM10.6749 17.883L12.3722 11.8144L17.3164 11.8144L15.6882 17.6035C15.6404 17.7853 15.5283 17.883 15.3465 17.883ZM13.2024 8.8889L14.8784 2.91465L19.4989 2.91465C19.7076 2.91465 19.7939 3.01528 19.7387 3.2343L18.1415 8.8889Z"
                     fill="currentColor" fill-opacity="0.85" />
       </g>
</svg>