<?xml version="1.0" encoding="UTF-8"?>
<!--Generator: Apple Native CoreSVG 326-->
<!DOCTYPE svg PUBLIC "-//W3C//DTD SVG 1.1//EN" "http://www.w3.org/Graphics/SVG/1.1/DTD/svg11.dtd">
<svg version="1.1" xmlns="http://www.w3.org/2000/svg" xmlns:xlink="http://www.w3.org/1999/xlink"
       viewBox="0 0 19.5547 21.7425">
       <g>
              <rect height="21.7425" opacity="0" width="19.5547" x="0" y="0" />
              <path d="M0 18.5789C0 20.5537 1.19335 21.7425 3.1825 21.7425L16.0109 21.7425C18.0024 21.7425 19.1934 20.5537 19.1934 18.5789L19.1934 3.16868C19.1934 1.20135 18.0024 0.0051558 16.0109 0.0051558L3.1825 0.0051558C1.19335 0.0051558 0 1.20135 0 3.16868ZM3.01964 18.1456L3.01964 3.60206C3.01964 3.2448 3.23964 3.0248 3.58484 3.0248L15.6011 3.0248C15.9561 3.0248 16.1738 3.2448 16.1738 3.60206L16.1738 18.1456C16.1738 18.5028 15.9561 18.7228 15.6011 18.7228L3.58484 18.7228C3.23964 18.7228 3.01964 18.5028 3.01964 18.1456Z"
                     fill="currentColor" fill-opacity="0.85" />
              <path d="M4.51664 17.5005L14.6716 17.5005C14.8273 17.5005 14.9514 17.3741 14.9514 17.2207L14.9514 4.52695C14.9514 4.37124 14.8273 4.24714 14.6716 4.24714L4.51664 4.24714C4.36839 4.24714 4.24429 4.37124 4.24429 4.52695L4.24429 17.2207C4.24429 17.3741 4.36839 17.5005 4.51664 17.5005ZM8.12258 16.0606C7.77453 16.0606 7.51207 15.7906 7.51207 15.4575C7.51207 15.1146 7.77453 14.8447 8.12258 14.8447L11.0339 14.8447C11.3745 14.8447 11.6444 15.1146 11.6444 15.4575C11.6444 15.7906 11.3745 16.0606 11.0339 16.0606Z"
                     fill="currentColor" fill-opacity="0.85" />
       </g>
</svg>