<?xml version="1.0" encoding="UTF-8"?>
<!--Generator: Apple Native CoreSVG 326-->
<!DOCTYPE svg PUBLIC "-//W3C//DTD SVG 1.1//EN" "http://www.w3.org/Graphics/SVG/1.1/DTD/svg11.dtd">
<svg version="1.1" xmlns="http://www.w3.org/2000/svg" xmlns:xlink="http://www.w3.org/1999/xlink"
       viewBox="0 0 32.3736 22.2596">
       <g>
              <rect height="22.2596" opacity="0" width="32.3736" x="0" y="0" />
              <path d="M32.0123 16.0443C32.0123 17.059 31.2473 17.7747 30.151 17.7747C29.0376 17.7747 28.2502 17.059 28.2502 16.0443C28.2502 15.0348 29.0353 14.3214 30.151 14.3214C31.2496 14.3214 32.0123 15.0348 32.0123 16.0443ZM31.895 6.2019L31.6824 11.4895C31.6405 12.4427 31.0697 12.9687 30.151 12.9687C29.2174 12.9687 28.6294 12.4427 28.5875 11.5194L28.36 6.2019C28.3107 5.1591 29.0141 4.46314 30.1287 4.46314C31.2409 4.46314 31.9369 5.1591 31.895 6.2019Z"
                     fill="currentColor" fill-opacity="0.85" />
              <path d="M1.28336 2.31864L2.79275 4.92682C2.77007 5.01845 2.75852 5.119 2.75852 5.22752L2.75852 12.0775C2.75852 12.6754 3.10911 13.0311 3.68279 13.0311L7.48282 13.0311L9.07922 15.7896L3.66326 15.7896C1.39843 15.7896 0 14.401 0 12.1729L0 5.13217C0 3.86916 0.448429 2.8768 1.2494 2.25435ZM25.0598 5.13217L25.0598 12.1729C25.0598 14.401 23.6637 15.7896 21.404 15.7896L12.0762 15.7896L10.4785 13.0311L21.3747 13.0311C21.9461 13.0311 22.3013 12.6754 22.3013 12.0775L22.3013 5.22752C22.3013 4.6297 21.9461 4.27395 21.3747 4.27395L5.40672 4.27395L3.80909 1.51543L21.404 1.51543C23.6637 1.51543 25.0598 2.90409 25.0598 5.13217Z"
                     fill="currentColor" fill-opacity="0.85" />
              <path d="M12.5253 22.2596C14.0547 22.2596 15.2919 21.0248 15.2919 19.4953C15.2919 17.9688 14.057 16.7362 12.5253 16.7362C11.0033 16.7362 9.76102 17.9688 9.76102 19.4953C9.76102 21.0271 10.9935 22.2596 12.5253 22.2596ZM12.5253 20.3565C12.0496 20.3565 11.6693 19.9762 11.6693 19.4953C11.6693 19.0174 12.0496 18.6348 12.5253 18.6348C13.001 18.6348 13.391 19.0174 13.391 19.4953C13.391 19.9762 13.001 20.3565 12.5253 20.3565ZM10.5876 18.396L12.9614 17.3181L3.51369 1.00538C3.15939 0.397844 2.38936 0.199134 1.74101 0.543115C1.10934 0.902563 0.916998 1.70134 1.28336 2.31864Z"
                     fill="currentColor" fill-opacity="0.85" />
       </g>
</svg>