<?xml version="1.0" encoding="UTF-8"?>
<!--Generator: Apple Native CoreSVG 326-->
<!DOCTYPE svg PUBLIC "-//W3C//DTD SVG 1.1//EN" "http://www.w3.org/Graphics/SVG/1.1/DTD/svg11.dtd">
<svg version="1.1" xmlns="http://www.w3.org/2000/svg" xmlns:xlink="http://www.w3.org/1999/xlink"
       viewBox="0 0 21.365 21.006">
       <g>
              <rect height="21.006" opacity="0" width="21.365" x="0" y="0" />
              <path d="M10.4981 20.9962C16.302 20.9962 21.0037 16.2946 21.0037 10.4981C21.0037 4.70163 16.302 0 10.4981 0C4.70163 0 0 4.70163 0 10.4981C0 16.2946 4.70163 20.9962 10.4981 20.9962ZM10.4981 17.9484C6.37829 17.9484 3.04785 14.6179 3.04785 10.4981C3.04785 6.37829 6.37829 3.04785 10.4981 3.04785C14.6179 3.04785 17.9558 6.37829 17.9558 10.4981C17.9558 14.6179 14.6179 17.9484 10.4981 17.9484Z"
                     fill="currentColor" fill-opacity="0.85" />
              <path d="M5.32864 9.52428C6.09387 9.2933 6.85626 9.18873 7.61173 9.18873C8.55627 9.18873 9.27498 9.33236 10.1982 9.33236C11.2369 9.33236 11.9894 8.60048 11.9894 7.59693C11.9894 6.60138 11.2334 5.86896 10.254 5.86896C9.60361 5.86896 8.99869 6.2608 8.71725 6.83412C8.56276 7.12818 8.62651 7.46822 8.90971 7.63994C9.21869 7.81681 9.58396 7.70884 9.76029 7.36365C9.86486 7.18489 10.0539 7.06934 10.254 7.06934C10.574 7.06934 10.7942 7.26302 10.7942 7.59693C10.7942 7.94346 10.5764 8.14174 10.1982 8.14174C9.3485 8.14174 8.61256 7.9935 7.61173 7.9935C6.75915 7.9935 5.84512 8.13428 4.9886 8.37042C4.63134 8.47323 4.447 8.79889 4.54235 9.11248C4.64055 9.45822 4.97137 9.63685 5.32864 9.52428ZM13.6498 12.2283C15.0033 12.2283 15.9839 11.3252 15.9839 10.0958C15.9839 8.8883 15.0596 7.99041 13.8785 7.99041C12.9517 7.99041 12.1394 8.58744 11.8758 9.4487C11.765 9.77612 11.9081 10.1196 12.2217 10.2235C12.5325 10.3446 12.896 10.1688 13.024 9.79947C13.1417 9.4322 13.4865 9.18563 13.8785 9.18563C14.4054 9.18563 14.7887 9.55224 14.7887 10.0958C14.7887 10.6762 14.3514 11.033 13.6498 11.033C12.0739 11.033 10.2797 10.1098 8.12591 10.1098C7.04181 10.1098 5.97614 10.2873 4.97137 10.6039C4.63364 10.7262 4.447 11.0444 4.54235 11.358C4.65548 11.7038 4.98629 11.8801 5.36079 11.7503C6.22598 11.4412 7.13024 11.305 8.12591 11.305C10.1862 11.305 11.7798 12.2283 13.6498 12.2283ZM10.2005 16.1474C11.1576 16.1474 11.8969 15.4121 11.8969 14.424C11.8969 13.0165 10.455 12.2307 7.96802 12.2307C7.00111 12.2307 5.9147 12.4231 4.97137 12.7225C4.63594 12.8448 4.4447 13.1682 4.54235 13.472C4.65548 13.8103 4.98629 13.9987 5.36079 13.8689C6.16915 13.5816 7.05509 13.4311 7.96802 13.4311C9.73136 13.4311 10.6942 13.827 10.6942 14.424C10.6942 14.7654 10.4913 14.947 10.2005 14.947C9.94244 14.947 9.78498 14.8148 9.69193 14.5153C9.55588 14.1942 9.23889 14.0419 8.91893 14.1608C8.58459 14.2847 8.4628 14.6397 8.59885 14.9751C8.84056 15.648 9.43517 16.1474 10.2005 16.1474ZM13.8808 7.42442C14.0818 7.42442 14.2191 7.24064 14.1794 7.03216L14.1128 6.54321L14.5093 6.85286C14.6712 6.98552 14.8815 6.95392 14.9745 6.78966C15.0946 6.61279 15.0084 6.38533 14.7953 6.3072L14.3673 6.13536L14.8028 5.95145C15.0061 5.87102 15.0825 5.65509 14.9768 5.48853C14.8861 5.32196 14.6586 5.28521 14.5093 5.41556L14.1128 5.70513L14.1794 5.24087C14.2191 5.02778 14.0818 4.83884 13.8808 4.83884C13.6677 4.83884 13.5281 5.02778 13.5603 5.23856L13.6217 5.70513L13.2356 5.4081C13.0788 5.27775 12.8582 5.31966 12.7675 5.48853C12.6595 5.65048 12.741 5.86356 12.9444 5.95376L13.3873 6.1279L12.9369 6.31466C12.7387 6.39279 12.6595 6.60818 12.7629 6.79482C12.8611 6.95622 13.0788 6.98552 13.2356 6.85286L13.6217 6.55067L13.5626 7.03216C13.5304 7.24064 13.6677 7.42442 13.8808 7.42442ZM13.8198 15.3243C14.0069 15.3243 14.1373 15.152 14.0977 14.9648L14.0334 14.5519L14.3676 14.8224C14.518 14.9481 14.7167 14.9165 14.8006 14.7587C14.9062 14.5985 14.8345 14.3751 14.6352 14.3113L14.2619 14.174L14.6427 14.0247C14.8322 13.9512 14.9016 13.7468 14.8029 13.5866C14.719 13.4367 14.5054 13.4 14.3676 13.5234L14.0334 13.7761L14.0977 13.3833C14.1373 13.184 14.0069 13.0089 13.8198 13.0089C13.6205 13.0089 13.4878 13.184 13.5125 13.381L13.5791 13.7761L13.2552 13.5085C13.1123 13.4 12.9032 13.4344 12.8171 13.5866C12.7184 13.7422 12.7907 13.9437 12.9848 14.027L13.3557 14.1666L12.9698 14.3188C12.7907 14.3923 12.7184 14.5864 12.8148 14.7615C12.9038 14.9188 13.1123 14.9481 13.2552 14.8224L13.5791 14.5594L13.5223 14.9648C13.4901 15.152 13.6205 15.3243 13.8198 15.3243Z"
                     fill="currentColor" fill-opacity="0.85" />
       </g>
</svg>