<?xml version="1.0" encoding="UTF-8"?>
<!--Generator: Apple Native CoreSVG 326-->
<!DOCTYPE svg PUBLIC "-//W3C//DTD SVG 1.1//EN" "http://www.w3.org/Graphics/SVG/1.1/DTD/svg11.dtd">
<svg version="1.1" xmlns="http://www.w3.org/2000/svg" xmlns:xlink="http://www.w3.org/1999/xlink"
       viewBox="0 0 25.4211 20.0582">
       <g>
              <rect height="20.0582" opacity="0" width="25.4211" x="0" y="0" />
              <path d="M25.0598 9.40072L25.0598 16.4489C25.0598 18.6695 23.6637 20.0582 21.404 20.0582L3.66326 20.0582C1.39843 20.0582 0 18.6695 0 16.4489L0 9.40072C0 7.1778 1.39843 5.79144 3.66326 5.79144L9.82137 5.79144L9.82137 8.54996L3.68279 8.54996C3.10911 8.54996 2.75852 8.9034 2.75852 9.50123L2.75852 13.6122C3.25831 13.4924 3.72695 13.247 4.09052 12.9168C4.48443 12.5608 4.73603 12.5631 5.12993 12.9168C5.68087 13.4168 6.4381 13.7058 7.25107 13.7058C8.06404 13.7058 8.82358 13.4168 9.36475 12.9168C9.53804 12.7641 9.68202 12.6769 9.82137 12.6561L9.82137 13.6094C9.82137 15.1072 11.0395 16.3179 12.5299 16.3179C14.0277 16.3179 15.2384 15.1072 15.2384 13.6094L15.2384 12.6556C15.3789 12.676 15.5231 12.7633 15.6951 12.9168C16.2362 13.4168 16.9958 13.7058 17.8087 13.7058C18.6292 13.7058 19.3864 13.4168 19.9299 12.9168C20.3238 12.5631 20.5754 12.5608 20.9693 12.9168C21.3329 13.247 21.8015 13.4924 22.3013 13.6122L22.3013 9.50123C22.3013 8.9034 21.9461 8.54996 21.3747 8.54996L15.2384 8.54996L15.2384 5.79144L21.404 5.79144C23.6637 5.79144 25.0598 7.1801 25.0598 9.40072Z"
                     fill="currentColor" fill-opacity="0.85" />
              <path d="M1.46867 4.05201C1.99643 4.35869 2.61033 4.22888 3.02783 3.73041C3.52764 3.14556 4.14178 2.71181 4.83866 2.4533C5.46748 2.22244 5.82068 1.67459 5.68802 1.07331C5.53584 0.338825 4.81858 0 4.02605 0.279685C2.97773 0.641559 1.95585 1.36992 1.18843 2.30335C0.702579 2.88741 0.851914 3.68334 1.46867 4.05201ZM11.4315 4.02502C12.0483 3.61905 12.1758 2.89257 11.6922 2.29359C10.9323 1.36761 9.91041 0.64902 8.8644 0.289451C8.05519-0.00230491 7.32762 0.362966 7.19496 1.1003C7.09676 1.69928 7.43789 2.22244 8.04433 2.4533C8.75382 2.71181 9.3605 3.14556 9.84308 3.71318C10.2824 4.23349 10.9015 4.37646 11.4315 4.02502ZM13.6283 4.02502C14.1583 4.37646 14.7826 4.23349 15.2167 3.71318C15.697 3.14556 16.306 2.71181 17.0132 2.4533C17.6294 2.22244 17.9631 1.69928 17.8625 1.1003C17.7322 0.362966 17.0046-0.00230491 16.1954 0.289451C15.1494 0.64902 14.1252 1.36761 13.3653 2.29359C12.884 2.89257 13.0092 3.61905 13.6283 4.02502ZM23.5911 4.05201C24.2154 3.68334 24.3572 2.88741 23.8714 2.30335C23.104 1.36992 22.0821 0.641559 21.0315 0.279685C20.2487 0 19.5291 0.338825 19.3718 1.07331C19.2368 1.67459 19.5923 2.22244 20.2212 2.4533C20.9255 2.71181 21.5322 3.14556 22.032 3.73041C22.4569 4.22888 23.0634 4.35869 23.5911 4.05201ZM12.5299 9.40005C13.1685 9.40005 13.6917 8.88205 13.6917 8.24346L13.6917 6.26802C13.6917 5.62943 13.1685 5.11373 12.5299 5.11373C11.8913 5.11373 11.3659 5.62943 11.3659 6.26802L11.3659 8.24346C11.3659 8.88205 11.8913 9.40005 12.5299 9.40005ZM12.5299 14.7711C13.1685 14.7711 13.6917 14.2554 13.6917 13.6094L13.6917 11.6414C13.6917 11.0028 13.1685 10.4848 12.5299 10.4848C11.8913 10.4848 11.3659 11.0028 11.3659 11.6414L11.3659 13.6094C11.3659 14.2554 11.8913 14.7711 12.5299 14.7711Z"
                     fill="currentColor" fill-opacity="0.85" />
       </g>
</svg>