<?xml version="1.0" encoding="UTF-8"?>
<!--Generator: Apple Native CoreSVG 326-->
<!DOCTYPE svg PUBLIC "-//W3C//DTD SVG 1.1//EN" "http://www.w3.org/Graphics/SVG/1.1/DTD/svg11.dtd">
<svg version="1.1" xmlns="http://www.w3.org/2000/svg" xmlns:xlink="http://www.w3.org/1999/xlink"
       viewBox="0 0 29.8718 21.1036">
       <g>
              <rect height="21.1036" opacity="0" width="29.8718" x="0" y="0" />
              <path d="M28.5569 8.69125C29.6705 9.5596 29.8227 10.8362 28.9296 11.967L22.1673 20.5704C21.6953 21.1602 20.9585 21.2332 20.3004 20.9242C18.6976 20.1646 16.5336 19.5139 14.759 19.5139C12.9844 19.5139 10.8106 20.1646 9.21525 20.9242C8.55713 21.2332 7.82495 21.1602 7.35062 20.5704L0.580858 11.967C-0.314487 10.8362-0.162301 9.5596 0.951284 8.69125C3.5197 6.66543 7.62385 5.3752 11.8788 4.97036L11.8788 7.77314C8.72615 8.13214 5.82633 9.10077 3.41465 10.6143C3.26289 10.7081 3.23359 10.873 3.34453 11.015L5.42862 13.6563C5.75958 13.5245 6.06551 13.3375 6.31959 13.1079C6.71349 12.742 6.96279 12.7443 7.35899 13.1079C7.90017 13.598 8.6574 13.887 9.47267 13.887C10.2931 13.887 11.0503 13.598 11.5938 13.1079C11.697 13.0126 11.7903 12.9421 11.8788 12.8973L11.8788 13.5167C11.8788 15.104 13.1641 16.3968 14.759 16.3968C16.3486 16.3968 17.6391 15.104 17.6391 13.5167L17.6391 12.8999C17.7264 12.9451 17.8189 13.0146 17.9218 13.1079C18.4653 13.598 19.2225 13.887 20.0355 13.887C20.8508 13.887 21.608 13.598 22.1492 13.1079C22.5528 12.7443 22.7947 12.742 23.196 13.1079C23.4489 13.3363 23.753 13.5226 24.0821 13.6541L26.1636 11.015C26.2769 10.873 26.2476 10.7081 26.1033 10.6143C23.778 9.14942 20.8331 8.1512 17.6391 7.77926L17.6391 4.97011C21.9009 5.3748 25.9991 6.66646 28.5569 8.69125Z"
                     fill="currentColor" fill-opacity="0.85" />
              <path d="M14.759 14.6733C15.3976 14.6733 15.9133 14.1553 15.9133 13.5167L15.9133 11.5412C15.9133 10.9026 15.3976 10.3846 14.759 10.3846C14.1129 10.3846 13.5949 10.9026 13.5949 11.5412L13.5949 13.5167C13.5949 14.1553 14.1129 14.6733 14.759 14.6733ZM14.759 9.29987C15.3976 9.29987 15.9133 8.78417 15.9133 8.14558L15.9133 6.17529C15.9133 5.52925 15.3976 5.01355 14.759 5.01355C14.1129 5.01355 13.5949 5.52925 13.5949 6.17529L13.5949 8.14558C13.5949 8.78417 14.1129 9.29987 14.759 9.29987ZM3.69773 3.91495C4.2255 4.21932 4.83194 4.08951 5.25689 3.59104C5.7567 3.0085 6.36338 2.57475 7.06772 2.3237C7.69654 2.08538 8.04974 1.53753 7.91709 0.933942C7.75744 0.206918 7.04018-0.137062 6.25511 0.140318C5.19933 0.504497 4.18492 1.23801 3.4175 2.16399C2.93164 2.75035 3.07352 3.54397 3.69773 3.91495ZM13.6606 3.88795C14.2774 3.47968 14.3974 2.7555 13.9213 2.15422C13.1613 1.22825 12.1372 0.519418 11.0935 0.150084C10.2842-0.139367 9.55668 0.223599 9.42402 0.960934C9.32582 1.56222 9.65949 2.08538 10.2734 2.3237C10.9754 2.57475 11.5896 3.0085 12.0647 3.57382C12.504 4.09412 13.1305 4.23709 13.6606 3.88795ZM15.8476 3.88795C16.3799 4.23709 17.0042 4.09412 17.4458 3.57382C17.9186 3.0085 18.5327 2.57475 19.2422 2.3237C19.851 2.08538 20.1921 1.56222 20.0916 0.960934C19.9613 0.223599 19.2337-0.139367 18.417 0.150084C17.371 0.519418 16.3543 1.22825 15.5943 2.15422C15.1108 2.7555 15.2383 3.47968 15.8476 3.88795ZM25.8127 3.91495C26.437 3.54397 26.5863 2.75035 26.1004 2.16399C25.333 1.23801 24.3111 0.504497 23.2605 0.140318C22.468-0.137062 21.7507 0.206918 21.6009 0.933942C21.4659 1.53753 21.8214 2.08538 22.4502 2.3237C23.1471 2.57475 23.7612 3.0085 24.2587 3.59104C24.6785 4.08951 25.2901 4.21932 25.8127 3.91495Z"
                     fill="currentColor" fill-opacity="0.85" />
       </g>
</svg>