<?xml version="1.0" encoding="UTF-8"?>
<!--Generator: Apple Native CoreSVG 326-->
<!DOCTYPE svg PUBLIC "-//W3C//DTD SVG 1.1//EN" "http://www.w3.org/Graphics/SVG/1.1/DTD/svg11.dtd">
<svg version="1.1" xmlns="http://www.w3.org/2000/svg" xmlns:xlink="http://www.w3.org/1999/xlink"
       viewBox="0 0 28.5002 25.9019">
       <g>
              <rect height="25.9019" opacity="0" width="28.5002" x="0" y="0" />
              <path d="M27.2273 9.16004C28.2938 9.99624 28.4385 11.2229 27.5851 12.3044L21.1485 20.4914C20.6942 21.0708 19.9775 21.1386 19.3395 20.8497C17.8251 20.1218 15.7611 19.4906 14.072 19.4906C13.9461 19.4906 13.8181 19.494 13.6852 19.5075L12.2246 16.9878C12.8623 16.8845 13.4869 16.8301 14.072 16.8301C15.7483 16.8301 17.7554 17.2793 19.4405 17.9757C19.5859 18.0366 19.6841 18.0142 19.7979 17.8762L24.9241 11.3856C25.0305 11.243 25.0012 11.1017 24.8712 11.0201C22.6787 9.64645 19.9222 8.70616 16.9223 8.33571L16.9223 5.63136C21.0952 6.05313 24.9638 7.36442 27.2273 9.16004ZM5.17988 10.0014C4.50438 10.3049 3.86759 10.6465 3.27283 11.0201C3.13775 11.1017 3.10615 11.243 3.21479 11.3856L8.33871 17.8762C8.4548 18.0142 8.5507 18.0366 8.69609 17.9757C8.98967 17.8545 9.29294 17.7408 9.60473 17.6389L10.9803 20.0132C10.2012 20.2437 9.45144 20.5379 8.79945 20.8497C8.16141 21.1386 7.44469 21.0708 6.99044 20.4914L0.551497 12.3044C-0.299629 11.2229-0.154904 9.99624 0.911612 9.16004C1.68349 8.54937 2.63967 7.99472 3.7411 7.51796ZM11.2516 8.33235C9.99661 8.48497 8.78468 8.7372 7.64314 9.08437L6.21247 6.61633C7.76514 6.14218 9.48063 5.80527 11.2516 5.62856Z"
                     fill="currentColor" fill-opacity="0.85" />
              <path d="M15.1988 11.2669L15.1988 13.1752C15.1988 13.7988 14.698 14.2921 14.0818 14.2921C13.4708 14.2921 12.9625 13.7988 12.9625 13.1752L12.9625 11.2669C12.9625 10.6581 13.4708 10.1625 14.0818 10.1625C14.698 10.1625 15.1988 10.6581 15.1988 11.2669ZM15.1988 6.08744L15.1988 7.99574C15.1988 8.61195 14.698 9.11503 14.0818 9.11503C13.4708 9.11503 12.9625 8.61195 12.9625 7.99574L12.9625 6.08744C12.9625 5.4787 13.4708 4.97046 14.0818 4.97046C14.698 4.97046 15.1988 5.4787 15.1988 6.08744ZM10.5483 0.278593C11.5645 0.633007 12.5439 1.31945 13.274 2.20812C13.7352 2.78702 13.6226 3.48882 13.0207 3.87471C12.5205 4.21639 11.9238 4.07342 11.4994 3.58295C11.0318 3.03256 10.4475 2.61143 9.76782 2.37014C9.16884 2.14674 8.84779 1.63104 8.94084 1.06706C9.07349 0.352108 9.77122 0.00406384 10.5483 0.278593ZM19.2279 1.06706C19.321 1.63104 18.9925 2.14674 18.4084 2.37014C17.7213 2.61143 17.137 3.03256 16.6693 3.58295C16.2449 4.07342 15.6482 4.21639 15.148 3.87471C14.5462 3.48882 14.4336 2.78702 14.8948 2.20812C15.6249 1.31945 16.6118 0.633007 17.6205 0.278593C18.3975 0.00406384 19.0953 0.352108 19.2279 1.06706ZM7.47636 1.03261C7.61132 1.61382 7.26327 2.14674 6.66429 2.37014C5.9898 2.61143 5.39058 3.03256 4.91546 3.59272C4.51058 4.06881 3.92883 4.19861 3.41598 3.9017C2.81931 3.54565 2.67974 2.78187 3.1409 2.21789C3.88594 1.32922 4.87051 0.625546 5.88383 0.268828C6.63906 0.00636876 7.33394 0.327967 7.47636 1.03261ZM22.2849 0.268828C23.2982 0.625546 24.2828 1.32922 25.0279 2.21789C25.489 2.78187 25.3495 3.54565 24.7528 3.9017C24.2399 4.19861 23.6582 4.06881 23.2533 3.59272C22.7707 3.03256 22.1767 2.61143 21.5045 2.37014C20.9032 2.14674 20.5574 1.61382 20.6924 1.03261C20.8348 0.327967 21.5297 0.00636876 22.2849 0.268828Z"
                     fill="currentColor" fill-opacity="0.85" />
              <path d="M14.0818 25.9019C15.6089 25.9019 16.8461 24.6671 16.8461 23.1376C16.8461 21.6059 15.6112 20.371 14.0818 20.371C12.5575 20.371 11.3227 21.6059 11.3227 23.1376C11.3227 24.6694 12.5552 25.9019 14.0818 25.9019ZM14.0818 23.9988C13.6038 23.9988 13.2258 23.6133 13.2258 23.1376C13.2258 22.6596 13.6038 22.2696 14.0818 22.2696C14.5626 22.2696 14.9452 22.662 14.9452 23.1376C14.9452 23.6133 14.5626 23.9988 14.0818 23.9988ZM14.5231 20.9529L5.74432 5.80873C5.39519 5.19374 4.62516 4.99503 3.97165 5.34647C3.33998 5.70076 3.15279 6.49724 3.51169 7.12199L12.1492 22.0308Z"
                     fill="currentColor" fill-opacity="0.85" />
       </g>
</svg>