<?xml version="1.0" encoding="UTF-8"?>
<!--Generator: Apple Native CoreSVG 326-->
<!DOCTYPE svg PUBLIC "-//W3C//DTD SVG 1.1//EN" "http://www.w3.org/Graphics/SVG/1.1/DTD/svg11.dtd">
<svg version="1.1" xmlns="http://www.w3.org/2000/svg" xmlns:xlink="http://www.w3.org/1999/xlink"
       viewBox="0 0 16.1457 25.2262">
       <g>
              <rect height="25.2262" opacity="0" width="16.1457" x="0" y="0" />
              <path d="M7.88244 15.8775C12.6172 15.8775 15.7844 13.0227 15.7844 8.73775C15.7844 6.55443 14.8751 3.68413 13.5477 1.65015C12.8447 0.580115 10.8227 0 7.88474 0C4.93467 0 2.90761 0.580115 2.21722 1.65015C0.897225 3.67667 0 6.54697 0 8.73775C0 13.0227 3.16261 15.8775 7.88244 15.8775ZM7.88244 13.433C4.4931 13.433 2.43704 11.6555 2.43704 8.73775C2.43704 7.3722 2.87025 5.68141 3.59072 4.19637C4.56716 4.59567 6.0579 4.80712 7.88474 4.80712C9.71443 4.80712 11.2052 4.59567 12.1742 4.19637C12.9119 5.71126 13.3399 7.39458 13.3399 8.73775C13.3399 11.648 11.2718 13.433 7.88244 13.433ZM7.88474 3.04967C6.01884 3.04967 4.45501 2.74639 4.45501 2.39495C4.45501 2.05557 6.02576 1.75229 7.88474 1.75229C9.74889 1.75229 11.3145 2.05557 11.3145 2.39495C11.3145 2.74639 9.7535 3.04967 7.88474 3.04967ZM7.88244 22.2041C8.55141 22.2041 9.10211 21.6459 9.10211 20.9942L9.10211 14.2629L6.6823 14.2629L6.6823 20.9942C6.6823 21.6557 7.23069 22.2041 7.88244 22.2041ZM7.88244 25.2164C11.9324 25.1992 14.2949 24.1361 14.2949 22.2368C14.2949 20.3397 11.91 19.2669 7.88244 19.2669C3.85718 19.2669 1.48953 20.3397 1.48953 22.2368C1.48953 24.1361 3.84741 25.1992 7.88244 25.2164ZM7.88244 22.9975C5.49665 22.9975 4.05407 22.7016 4.05407 22.2368C4.05407 21.7668 5.49896 21.476 7.88244 21.476C10.2831 21.476 11.7303 21.7668 11.7303 22.2368C11.7303 22.7016 10.2831 22.9975 7.88244 22.9975Z"
                     fill="currentColor" fill-opacity="0.85" />
       </g>
</svg>