<?xml version="1.0" encoding="UTF-8"?>
<!--Generator: Apple Native CoreSVG 326-->
<!DOCTYPE svg PUBLIC "-//W3C//DTD SVG 1.1//EN" "http://www.w3.org/Graphics/SVG/1.1/DTD/svg11.dtd">
<svg version="1.1" xmlns="http://www.w3.org/2000/svg" xmlns:xlink="http://www.w3.org/1999/xlink"
       viewBox="0 0 16.1457 25.2262">
       <g>
              <rect height="25.2262" opacity="0" width="16.1457" x="0" y="0" />
              <path d="M7.88244 25.2164C11.9324 25.209 14.2926 24.1361 14.2926 22.2368C14.2926 20.539 12.3895 19.5006 9.10211 19.3065L9.10211 15.8034C13.1507 15.3658 15.7844 12.6391 15.7844 8.73775C15.7844 6.55443 14.8751 3.68413 13.5477 1.65015C12.8447 0.580115 10.8227 0 7.88474 0C4.93467 0 2.90761 0.580115 2.21722 1.65015C0.897225 3.67667 0 6.54697 0 8.73775C0 12.6489 2.63375 15.3658 6.6823 15.8034L6.6823 19.3065C3.39261 19.4983 1.48953 20.539 1.48953 22.2368C1.48953 24.1361 3.84741 25.209 7.88244 25.2164ZM7.88474 3.06865C5.93423 3.06865 4.45501 2.76998 4.45501 2.39495C4.45501 2.02967 5.93653 1.73331 7.88474 1.73331C9.84042 1.73331 11.3145 2.02967 11.3145 2.39495C11.3145 2.76998 9.84042 3.06865 7.88474 3.06865Z"
                     fill="currentColor" fill-opacity="0.85" />
       </g>
</svg>