<?xml version="1.0" encoding="UTF-8"?>
<!--Generator: Apple Native CoreSVG 326-->
<!DOCTYPE svg PUBLIC "-//W3C//DTD SVG 1.1//EN" "http://www.w3.org/Graphics/SVG/1.1/DTD/svg11.dtd">
<svg version="1.1" xmlns="http://www.w3.org/2000/svg" xmlns:xlink="http://www.w3.org/1999/xlink"
       viewBox="0 0 19.3993 19.0529">
       <g>
              <rect height="19.0529" opacity="0" width="19.3993" x="0" y="0" />
              <path d="M19.0379 3.63912L19.0379 15.4011C19.0379 17.7262 17.7164 19.0379 15.3896 19.0379L3.64834 19.0379C1.32382 19.0379 0 17.7262 0 15.4011L0 3.63912C0 1.32151 1.32382 0 3.64834 0L15.3896 0C17.7164 0 19.0379 1.32151 19.0379 3.63912ZM8.60503 6.03298L7.90452 9.32381L6.94403 9.32381L6.4791 5.94223C6.4102 5.45759 6.03176 5.12799 5.52989 5.12799C4.94189 5.12799 4.59561 5.48974 4.59561 6.03813C4.59561 6.12887 4.60537 6.21622 4.61744 6.3311L5.19143 9.32381L4.07069 9.32381C3.90292 9.32381 3.79373 9.43814 3.79373 9.60361C3.79373 9.77139 3.90292 9.89549 4.07069 9.89549L5.29831 9.89549L5.93089 13.2018C6.06124 13.8708 6.49366 14.259 7.15463 14.259C7.80177 14.259 8.24164 13.8805 8.38637 13.2064L9.08689 9.89549L10.1399 9.89549L10.8404 13.2064C10.9702 13.8851 11.4003 14.259 12.0618 14.259C12.7205 14.259 13.1701 13.8828 13.2982 13.2018L13.9308 9.89549L15.1509 9.89549C15.3187 9.89549 15.4353 9.77139 15.4353 9.60361C15.4353 9.43814 15.3187 9.32381 15.1509 9.32381L14.0376 9.32381L14.6042 6.32879C14.6312 6.21567 14.6335 6.13809 14.6335 6.03813C14.6335 5.52989 14.3055 5.12799 13.6819 5.12799C13.2042 5.12799 12.8235 5.46044 12.75 5.94223L12.2799 9.32381L11.3171 9.32381L10.6189 6.02837C10.5011 5.45759 10.1715 5.12514 9.60822 5.12514C9.04952 5.12514 8.71531 5.47482 8.60503 6.03298ZM7.35443 11.8729L7.31306 11.8729L7.02391 9.89549L7.79073 9.89549ZM11.9183 11.8729L11.8672 11.8729L11.4332 9.89549L12.2 9.89549ZM10.0186 9.32381L9.21275 9.32381L9.58408 7.58492L9.63752 7.58492Z"
                     fill="currentColor" fill-opacity="0.85" />
       </g>
</svg>