<?xml version="1.0" encoding="UTF-8"?>
<!--Generator: Apple Native CoreSVG 326-->
<!DOCTYPE svg PUBLIC "-//W3C//DTD SVG 1.1//EN" "http://www.w3.org/Graphics/SVG/1.1/DTD/svg11.dtd">
<svg version="1.1" xmlns="http://www.w3.org/2000/svg" xmlns:xlink="http://www.w3.org/1999/xlink"
       viewBox="0 0 22.6374 22.2784">
       <g>
              <rect height="22.2784" opacity="0" width="22.6374" x="0" y="0" />
              <path d="M11.1343 22.2687C17.2722 22.2687 22.2761 17.2722 22.2761 11.1343C22.2761 4.99648 17.2722 0 11.1343 0C4.99648 0 0 4.99648 0 11.1343C0 17.2722 4.99648 22.2687 11.1343 22.2687ZM11.1343 18.2927C7.17804 18.2927 3.97601 15.0906 3.97601 11.1343C3.97601 7.17573 7.17804 3.97601 11.1343 3.97601C15.0929 3.97601 18.3001 7.17573 18.3001 11.1343C18.3001 15.0906 15.0929 18.2927 11.1343 18.2927Z"
                     fill="currentColor" fill-opacity="0.85" />
              <path d="M8.83577 15.591C9.43584 15.591 9.85103 15.2298 9.97853 14.605L11.1125 9.31313L11.1659 9.31313L12.2976 14.605C12.4176 15.2344 12.8231 15.591 13.4375 15.591C14.0468 15.591 14.4717 15.2321 14.5849 14.6004L15.8196 8.14083C15.8466 8.04263 15.8489 7.96505 15.8489 7.87486C15.8489 7.39131 15.5382 7.02155 14.9543 7.02155C14.5161 7.02155 14.1503 7.33678 14.0866 7.78642L13.3014 13.3605L13.2503 13.3605L12.0755 7.85763C11.9653 7.33393 11.6603 7.0187 11.1292 7.0187C10.6101 7.0187 10.3006 7.34369 10.1977 7.8697L9.01319 13.3605L8.96952 13.3605L8.18438 7.78642C8.1304 7.33393 7.76919 7.02155 7.30693 7.02155C6.75854 7.02155 6.42948 7.36607 6.42948 7.87486C6.42948 7.95814 6.43925 8.04318 6.45878 8.14314L7.68609 14.6004C7.80898 15.2275 8.21671 15.591 8.83577 15.591ZM5.67698 11.2239C5.67698 11.3819 5.79362 11.491 5.94417 11.491L16.3268 11.491C16.4848 11.491 16.6014 11.3819 16.6014 11.2239C16.6014 11.0682 16.4848 10.9613 16.3268 10.9613L5.94417 10.9613C5.79362 10.9613 5.67698 11.0682 5.67698 11.2239Z"
                     fill="currentColor" fill-opacity="0.85" />
       </g>
</svg>