<?xml version="1.0" encoding="UTF-8"?>
<!--Generator: Apple Native CoreSVG 326-->
<!DOCTYPE svg PUBLIC "-//W3C//DTD SVG 1.1//EN" "http://www.w3.org/Graphics/SVG/1.1/DTD/svg11.dtd">
<svg version="1.1" xmlns="http://www.w3.org/2000/svg" xmlns:xlink="http://www.w3.org/1999/xlink"
       viewBox="0 0 25.2371 20.7933">
       <g>
              <rect height="20.7933" opacity="0" width="25.2371" x="0" y="0" />
              <path d="M24.8758 12.4367C24.8758 9.44627 23.8182 6.68788 22.0375 4.53265C21.79 4.23112 21.3535 4.23112 21.0491 4.53034L18.6193 6.95264C18.3592 7.2128 18.3569 7.55853 18.5677 7.83822C19.5288 9.12728 20.1044 10.7185 20.1044 12.4367C20.1044 14.2244 19.4989 15.8753 18.4419 17.2029C18.2306 17.4808 18.2329 17.8225 18.4764 18.0683L20.92 20.5119C21.2117 20.8036 21.6459 20.8036 21.9256 20.4849C23.766 18.3147 24.8758 15.5116 24.8758 12.4367Z"
                     fill="currentColor" fill-opacity="0.85" />
              <path d="M12.4367 4.77139C14.1745 4.77139 15.7732 5.34932 17.0646 6.32534C17.3345 6.52635 17.6779 6.50682 17.9231 6.25413L20.3454 3.82437C20.6521 3.52515 20.6424 3.07605 20.311 2.81359C18.1655 1.05754 15.422 0 12.4367 0C9.45373 0 6.71026 1.05754 4.57225 2.81359C4.24089 3.07605 4.22366 3.52515 4.53034 3.82437L6.95264 6.25413C7.19787 6.50682 7.55853 6.52635 7.84052 6.31557C9.12213 5.34932 10.7185 4.77139 12.4367 4.77139Z"
                     fill="currentColor" fill-opacity="0.85" />
              <path d="M0 12.4367C0 15.519 1.12468 18.3446 2.98003 20.5147C3.23503 20.8186 3.66405 20.8036 3.96096 20.5119L6.39709 18.0683C6.64057 17.8225 6.65264 17.4808 6.43385 17.2029C5.38432 15.8753 4.77139 14.2244 4.77139 12.4367C4.77139 10.7185 5.34471 9.12728 6.30811 7.83822C6.51658 7.55853 6.51658 7.2128 6.25643 6.95264L3.82667 4.53034C3.52745 4.23112 3.07836 4.23859 2.80844 4.56995C1.05008 6.71026 0 9.45373 0 12.4367Z"
                     fill="currentColor" fill-opacity="0.85" />
              <path d="M10.1284 16.8114C10.7285 16.8114 11.1534 16.4525 11.2735 15.8352L12.4149 10.5411L12.466 10.5411L13.5977 15.8352C13.7103 16.4548 14.1157 16.8114 14.7376 16.8114C15.3469 16.8114 15.7644 16.4548 15.8873 15.8232L17.1197 9.3636C17.1393 9.26309 17.1416 9.18551 17.1416 9.09762C17.1416 8.61177 16.8331 8.25177 16.2544 8.25177C15.8088 8.25177 15.4527 8.55724 15.3867 9.00919L14.6016 14.5833L14.5504 14.5833L13.3756 9.08555C13.2677 8.55669 12.953 8.24662 12.4293 8.24662C11.9125 8.24662 11.6007 8.57392 11.4978 9.09016L10.3133 14.5833L10.2719 14.5833L9.48679 9.00919C9.4305 8.55439 9.0716 8.25177 8.60934 8.25177C8.05864 8.25177 7.72959 8.58653 7.72959 9.09532C7.72959 9.1786 7.73935 9.26364 7.75142 9.3636L8.9862 15.8232C9.10909 16.4502 9.51912 16.8114 10.1284 16.8114ZM6.97709 12.4443C6.97709 12.6023 7.09373 12.719 7.24428 12.719L17.6292 12.719C17.7849 12.719 17.9015 12.6023 17.9015 12.4443C17.9015 12.2886 17.7849 12.1817 17.6292 12.1817L7.24428 12.1817C7.09373 12.1817 6.97709 12.2886 6.97709 12.4443Z"
                     fill="currentColor" fill-opacity="0.85" />
       </g>
</svg>