<?xml version="1.0" encoding="UTF-8"?>
<!--Generator: Apple Native CoreSVG 326-->
<!DOCTYPE svg PUBLIC "-//W3C//DTD SVG 1.1//EN" "http://www.w3.org/Graphics/SVG/1.1/DTD/svg11.dtd">
<svg version="1.1" xmlns="http://www.w3.org/2000/svg" xmlns:xlink="http://www.w3.org/1999/xlink"
       viewBox="0 0 24.6449 23.5952">
       <g>
              <rect height="23.5952" opacity="0" width="24.6449" x="0" y="0" />
              <path d="M13.7186 0.416404L22.6254 5.55167C23.136 5.85374 23.3841 6.25686 23.3841 6.69158C23.3841 7.28595 22.9074 7.89293 22.1092 7.89293L21.3244 7.89293L21.3244 19.392L21.7032 19.392C22.2379 19.392 22.5744 19.7159 22.5744 20.2632L22.5744 21.1701L23.0673 21.1701C23.7134 21.1701 24.2836 21.7231 24.2836 22.3766C24.2836 23.0525 23.7134 23.5854 23.0673 23.5854L1.20651 23.5854C0.553002 23.5854 0 23.045 0 22.3766C0 21.7231 0.553002 21.1701 1.20651 21.1701L1.94045 21.1701L1.94045 20.2632C1.94045 19.7159 2.27927 19.392 2.81396 19.392L3.19045 19.392L3.19045 7.89293L2.41314 7.89293C1.60745 7.89293 1.13081 7.28595 1.13081 6.69158C1.13081 6.25686 1.37659 5.85374 1.88944 5.55167L10.7963 0.416404C11.242 0.154491 11.7664 0 12.2563 0C12.7462 0 13.2683 0.154491 13.7186 0.416404ZM11.2577 9.4618L10.5572 12.7601L9.5944 12.7601L9.13177 9.37852C9.06056 8.89388 8.68444 8.56428 8.18257 8.56428C7.59457 8.56428 7.24598 8.92603 7.24598 9.47212C7.24598 9.56286 7.25574 9.6502 7.27012 9.75993L7.8441 12.7601L6.72336 12.7601C6.55559 12.7601 6.44641 12.8647 6.44641 13.0324C6.44641 13.1979 6.55559 13.322 6.72336 13.322L7.95098 13.322L8.58356 16.6306C8.71161 17.3071 9.14633 17.6855 9.79984 17.6855C10.4447 17.6855 10.8943 17.3094 11.0316 16.6427L11.7321 13.322L12.7925 13.322L13.4908 16.6427C13.6229 17.3117 14.0507 17.6855 14.7122 17.6855C15.3732 17.6855 15.8205 17.3117 15.9508 16.6306L16.5834 13.322L17.8036 13.322C17.9714 13.322 18.088 13.1979 18.088 13.0324C18.088 12.8647 17.9714 12.7601 17.8036 12.7601L16.6828 12.7601L17.2568 9.75762C17.2815 9.64966 17.2838 9.57438 17.2838 9.47442C17.2838 8.95872 16.9507 8.56428 16.3346 8.56428C15.8546 8.56428 15.4664 8.89443 15.4003 9.37852L14.9302 12.7601L13.9698 12.7601L13.2692 9.45719C13.1538 8.89388 12.8242 8.55912 12.2609 8.55912C11.7022 8.55912 11.368 8.90365 11.2577 9.4618ZM10.0071 15.3092L9.96343 15.3092L9.67428 13.322L10.4434 13.322ZM14.5687 15.3092L14.5198 15.3092L14.0859 13.322L14.8504 13.322ZM12.669 12.7601L11.8557 12.7601L12.2368 11.0114L12.2902 11.0114Z"
                     fill="currentColor" fill-opacity="0.85" />
       </g>
</svg>