<?xml version="1.0" encoding="UTF-8"?>
<!--Generator: Apple Native CoreSVG 326-->
<!DOCTYPE svg PUBLIC "-//W3C//DTD SVG 1.1//EN" "http://www.w3.org/Graphics/SVG/1.1/DTD/svg11.dtd">
<svg version="1.1" xmlns="http://www.w3.org/2000/svg" xmlns:xlink="http://www.w3.org/1999/xlink"
       viewBox="0 0 19.3993 19.0529">
       <g>
              <rect height="19.0529" opacity="0" width="19.3993" x="0" y="0" />
              <path d="M3.64834 19.0379L15.3896 19.0379C17.7164 19.0379 19.0379 17.7262 19.0379 15.4011L19.0379 3.63912C19.0379 1.32151 17.7164 0 15.3896 0L3.64834 0C1.32382 0 0 1.32151 0 3.63912L0 15.4011C0 17.7262 1.32382 19.0379 3.64834 19.0379ZM4.05583 16.0183C3.37024 16.0183 3.01964 15.7096 3.01964 14.9775L3.01964 4.07021C3.01964 3.33809 3.37024 3.0271 4.05583 3.0271L14.9821 3.0271C15.6654 3.0271 16.0183 3.33809 16.0183 4.07021L16.0183 14.9775C16.0183 15.7096 15.6654 16.0183 14.9821 16.0183Z"
                     fill="currentColor" fill-opacity="0.85" />
              <path d="M7.21783 13.9782C7.8179 13.9782 8.24055 13.617 8.36059 12.9922L9.50202 7.70035L9.55545 7.70035L10.6871 12.9922C10.8072 13.6216 11.2051 13.9782 11.827 13.9782C12.4363 13.9782 12.8538 13.6193 12.9744 12.9876L14.2092 6.52805C14.2287 6.42985 14.231 6.35227 14.231 6.26207C14.231 5.77852 13.93 5.40876 13.3438 5.40876C12.8982 5.40876 12.5422 5.72399 12.4761 6.17364L11.691 11.7477L11.6398 11.7477L10.4651 6.24485C10.3548 5.72114 10.0424 5.40591 9.5187 5.40591C8.9996 5.40591 8.69007 5.73091 8.58726 6.25692L7.40271 11.7477L7.35904 11.7477L6.57391 6.17364C6.51992 5.72114 6.15872 5.40876 5.69646 5.40876C5.14806 5.40876 4.819 5.75329 4.819 6.26207C4.819 6.34535 4.82877 6.43039 4.84084 6.53036L6.07561 12.9876C6.1985 13.6147 6.60623 13.9782 7.21783 13.9782ZM4.0665 9.61107C4.0665 9.76908 4.18315 9.87826 4.33369 9.87826L14.7163 9.87826C14.8743 9.87826 14.991 9.76908 14.991 9.61107C14.991 9.45537 14.8743 9.3485 14.7163 9.3485L4.33369 9.3485C4.18315 9.3485 4.0665 9.45537 4.0665 9.61107Z"
                     fill="currentColor" fill-opacity="0.85" />
       </g>
</svg>