<?xml version="1.0" encoding="UTF-8"?>
<!--Generator: Apple Native CoreSVG 326-->
<!DOCTYPE svg PUBLIC "-//W3C//DTD SVG 1.1//EN" "http://www.w3.org/Graphics/SVG/1.1/DTD/svg11.dtd">
<svg version="1.1" xmlns="http://www.w3.org/2000/svg" xmlns:xlink="http://www.w3.org/1999/xlink"
       viewBox="0 0 25.2371 20.7338">
       <g>
              <rect height="20.7338" opacity="0" width="25.2371" x="0" y="0" />
              <path d="M24.8758 12.3846C24.8758 5.93383 19.9627 0.631336 13.6785 0.00415235C13.2541-0.040066 12.9302 0.274072 12.9302 0.698483L12.9302 4.13058C12.9302 4.48379 13.1829 4.74109 13.5286 4.79046C17.2465 5.32405 20.1044 8.51741 20.1044 12.3846C20.1044 14.1648 19.4989 15.8157 18.4419 17.1359C18.2306 17.4138 18.2329 17.7555 18.4764 18.0012L20.9223 20.4523C21.2117 20.7567 21.6557 20.7417 21.9256 20.4328C23.7735 18.2551 24.8758 15.452 24.8758 12.3846Z"
                     fill="currentColor" fill-opacity="0.85" />
              <path d="M0 12.3846C0 15.4543 1.1023 18.2574 2.94273 20.4276C3.21265 20.7366 3.65429 20.7417 3.9535 20.4448L6.39194 17.9938C6.63541 17.748 6.63772 17.4063 6.42639 17.1284C5.38201 15.8157 4.77139 14.1648 4.77139 12.3846C4.77139 8.51741 7.63678 5.32405 11.3472 4.79046C11.7004 4.74109 11.9456 4.48379 11.9456 4.13058L11.9456 0.698483C11.9456 0.274072 11.6217-0.040066 11.1973 0.00415235C4.92054 0.631336 0 5.93383 0 12.3846Z"
                     fill="currentColor" fill-opacity="0.85" />
              <path d="M10.1284 16.7817C10.7285 16.7817 11.1534 16.4228 11.2735 15.8055L12.4149 10.5113L12.466 10.5113L13.5977 15.8055C13.7103 16.4251 14.1157 16.7817 14.7376 16.7817C15.3469 16.7817 15.7644 16.4251 15.8873 15.7934L17.1197 9.33385C17.1393 9.23334 17.1416 9.15576 17.1416 9.06787C17.1416 8.58201 16.8331 8.22202 16.2544 8.22202C15.8088 8.22202 15.4527 8.52748 15.3867 8.97943L14.6016 14.5535L14.5504 14.5535L13.3756 9.0558C13.2677 8.52694 12.953 8.21686 12.4293 8.21686C11.9125 8.21686 11.6007 8.54416 11.4978 9.06041L10.3133 14.5535L10.2719 14.5535L9.48679 8.97943C9.4305 8.52463 9.0716 8.22202 8.60934 8.22202C8.05864 8.22202 7.72959 8.55678 7.72959 9.06556C7.72959 9.14884 7.73935 9.23388 7.75142 9.33385L8.9862 15.7934C9.10909 16.4205 9.51912 16.7817 10.1284 16.7817ZM6.97709 12.4146C6.97709 12.5726 7.09373 12.6892 7.24428 12.6892L17.6292 12.6892C17.7849 12.6892 17.9015 12.5726 17.9015 12.4146C17.9015 12.2589 17.7849 12.152 17.6292 12.152L7.24428 12.152C7.09373 12.152 6.97709 12.2589 6.97709 12.4146Z"
                     fill="currentColor" fill-opacity="0.85" />
       </g>
</svg>