<?xml version="1.0" encoding="UTF-8"?>
<!--Generator: Apple Native CoreSVG 326-->
<!DOCTYPE svg PUBLIC "-//W3C//DTD SVG 1.1//EN" "http://www.w3.org/Graphics/SVG/1.1/DTD/svg11.dtd">
<svg version="1.1" xmlns="http://www.w3.org/2000/svg" xmlns:xlink="http://www.w3.org/1999/xlink"
       viewBox="0 0 24.3303 21.006">
       <g>
              <rect height="21.006" opacity="0" width="24.3303" x="0" y="0" />
              <path d="M11.9856 20.9962C17.7821 20.9962 22.4837 16.2946 22.4837 10.4981C22.4837 4.70163 17.7821 0 11.9856 0C6.18916 0 1.48753 4.70163 1.48753 10.4981L4.53538 10.4981C4.53538 6.37829 7.86582 3.04785 11.9856 3.04785C16.1055 3.04785 19.4359 6.37829 19.4359 10.4981C19.4359 14.6179 16.1055 17.9484 11.9856 17.9484C9.86874 17.9484 8.05458 17.1034 6.64712 15.6524C5.97135 15.0132 5.0498 14.8117 4.35614 15.4438C3.73423 16.0162 3.72149 16.9286 4.44894 17.7463C6.08398 19.7011 9.21457 20.9962 11.9856 20.9962ZM0.808605 8.39698C-0.0138912 8.39698-0.212055 9.15901 0.22849 9.72826L2.75918 13.0277C3.05907 13.4322 3.60988 13.4224 3.91492 13.0277L6.43585 9.72596C6.86894 9.15901 6.66847 8.39698 5.8655 8.39698Z"
                     fill="currentColor" fill-opacity="0.85" />
              <path d="M9.68708 14.9548C10.2871 14.9548 10.7023 14.5935 10.8298 13.9688L11.9638 8.67691L12.0172 8.67691L13.1489 13.9688C13.2689 14.5982 13.6721 14.9548 14.2888 14.9548C14.9056 14.9548 15.3207 14.5958 15.4362 13.9642L16.671 7.50461C16.6956 7.40641 16.6979 7.32883 16.6979 7.23864C16.6979 6.75509 16.3895 6.38533 15.8056 6.38533C15.3651 6.38533 15.0016 6.70056 14.9379 7.1502L14.1528 12.7243L14.1016 12.7243L12.9245 7.22141C12.824 6.6977 12.5116 6.38247 11.9805 6.38247C11.4614 6.38247 11.1519 6.70747 11.049 7.23348L9.86449 12.7243L9.82828 12.7243L9.03569 7.1502C8.98171 6.6977 8.6205 6.38533 8.15824 6.38533C7.60985 6.38533 7.27848 6.72985 7.27848 7.23864C7.27848 7.32192 7.28825 7.40696 7.31009 7.50692L8.54486 13.9642C8.65798 14.5912 9.06802 14.9548 9.68708 14.9548ZM6.52829 10.5876C6.52829 10.7456 6.64493 10.8548 6.79548 10.8548L17.1781 10.8548C17.3361 10.8548 17.4527 10.7456 17.4527 10.5876C17.4527 10.4319 17.3361 10.3251 17.1781 10.3251L6.79548 10.3251C6.64493 10.3251 6.52829 10.4319 6.52829 10.5876Z"
                     fill="currentColor" fill-opacity="0.85" />
       </g>
</svg>