<?xml version="1.0" encoding="UTF-8"?>
<!--Generator: Apple Native CoreSVG 326-->
<!DOCTYPE svg PUBLIC "-//W3C//DTD SVG 1.1//EN" "http://www.w3.org/Graphics/SVG/1.1/DTD/svg11.dtd">
<svg version="1.1" xmlns="http://www.w3.org/2000/svg" xmlns:xlink="http://www.w3.org/1999/xlink"
       viewBox="0 0 24.8214 25.5611">
       <g>
              <rect height="25.5611" opacity="0" width="24.8214" x="0" y="0" />
              <path d="M1.41611 23.68C3.32587 25.5823 6.13964 25.6093 8.03393 23.4479C9.91858 21.3019 11.9171 17.4738 14.7646 14.6263C16.5022 12.8864 18.5252 14.2544 21.3368 12.577C23.5302 11.4493 24.9404 8.85373 24.3083 6.37908L20.0509 7.53876C19.6773 7.64509 19.4318 7.43122 19.3186 7.05582L19.0279 6.02473C18.9147 5.64933 19.052 5.34405 19.4234 5.24518L23.7381 4.06542C23.571 3.46996 23.1965 2.62817 22.5648 1.98673C20.0329-0.581385 15.7836-0.661694 13.2403 1.75697C9.52346 5.30031 12.0688 8.69863 10.236 10.5165C7.61025 13.1399 3.7672 15.1775 1.63096 17.0622C-0.525247 18.9691-0.488489 21.7754 1.41611 23.68ZM3.04515 22.0636C2.07999 21.0789 2.09722 19.6662 3.2307 18.6642C5.28949 16.8519 9.40367 14.6017 11.8673 12.1455C14.6629 9.34995 11.7805 6.23527 14.8739 3.39347C16.5559 1.84073 19.589 1.94518 21.2716 3.77991L22.1311 2.28376L18.7792 3.16595C17.1072 3.60649 16.3703 4.93898 16.8672 6.65464L17.148 7.62429C17.6765 9.45374 18.7776 10.1142 20.3697 9.68799L23.899 8.7346L22.3207 7.95207C22.1157 8.76711 21.7222 9.48746 21.1219 10.0729C18.8096 12.334 15.8921 10.2631 13.1407 13.0024C10.4749 15.6609 8.25169 19.7946 6.43934 21.8706C5.4179 23.0357 3.99539 23.0431 3.04515 22.0636ZM14.7323 10.4231L16.7171 9.88652C16.8929 9.83769 17.0078 9.64984 16.959 9.45683C16.9125 9.28851 16.7269 9.17878 16.5391 9.22992L14.5565 9.75902C14.3784 9.80785 14.2733 9.98593 14.3049 10.1766C14.3342 10.3766 14.5542 10.4719 14.7323 10.4231ZM14.4859 9.42347L16.4489 8.89667C16.6344 8.84784 16.7516 8.66976 16.693 8.46468C16.6293 8.27913 16.4489 8.18894 16.2805 8.228L14.298 8.75941C14.1125 8.80593 14.005 8.99378 14.0539 9.16956C14.1199 9.37464 14.2882 9.4746 14.4859 9.42347ZM14.2446 8.42386L16.2099 7.89706C16.3954 7.84823 16.5103 7.67015 16.4443 7.46507C16.3903 7.27952 16.2099 7.18702 16.0416 7.22093L14.0493 7.75003C13.8637 7.79886 13.7661 7.99417 13.8074 8.16995C13.8488 8.36757 14.0395 8.47499 14.2446 8.42386ZM18.5627 12.8683L20.0534 12.4491L18.6387 7.21723L17.148 7.62429ZM4.69457 21.426C5.26165 21.426 5.71669 20.9635 5.71669 20.4039C5.71669 19.8517 5.26165 19.3869 4.69457 19.3869C4.13496 19.3869 3.67761 19.8517 3.67761 20.4039C3.67761 20.9635 4.13496 21.426 4.69457 21.426Z"
                     fill="currentColor" fill-opacity="0.85" />
       </g>
</svg>