<?xml version="1.0" encoding="UTF-8"?>
<!--Generator: Apple Native CoreSVG 326-->
<!DOCTYPE svg PUBLIC "-//W3C//DTD SVG 1.1//EN" "http://www.w3.org/Graphics/SVG/1.1/DTD/svg11.dtd">
<svg version="1.1" xmlns="http://www.w3.org/2000/svg" xmlns:xlink="http://www.w3.org/1999/xlink"
       viewBox="0 0 22.7498 17.8402">
       <g>
              <rect height="17.8402" opacity="0" width="22.7498" x="0" y="0" />
              <path d="M5.05156 17.0294C6.83497 17.0294 7.73129 16.0641 8.24116 14.5602L11.9235 3.40948L20.69 3.40948C21.7242 3.40948 22.3885 2.71703 22.3885 1.69497C22.3885 0.68499 21.7242 0 20.69 0L11.7622 0C9.90071 0 9.08592 0.766512 8.56112 2.44657L5.23359 13.2148L4.93328 13.2148L3.44054 7.95631C3.17984 7.03125 2.69289 6.55352 1.72658 6.55352C0.686749 6.55352 0 7.29019 0 8.23127C0 8.59072 0.0637496 8.86349 0.192341 9.25617L1.89708 14.5856C2.38742 16.1078 3.31182 17.0294 5.05156 17.0294ZM13.8611 15.5968C14.4238 15.5968 14.7288 15.3878 15.1663 14.7159L16.5557 12.6083L16.632 12.6083L17.972 14.7159C18.3745 15.3729 18.6944 15.5968 19.2772 15.5968C20.0341 15.5968 20.5446 15.1081 20.5446 14.3954C20.5446 14.0612 20.4361 13.7735 20.1628 13.4164L18.3203 10.9801L20.1674 8.52436C20.4407 8.16261 20.559 7.86746 20.559 7.53785C20.559 6.83958 20.0433 6.35087 19.2985 6.35087C18.718 6.35087 18.3935 6.57251 17.9979 7.22481L16.6838 9.33703L16.5977 9.33703L15.2153 7.2225C14.7921 6.55013 14.4802 6.35087 13.9175 6.35087C13.1652 6.35087 12.6403 6.84649 12.6403 7.55453C12.6403 7.89566 12.7586 8.17874 13.0388 8.55257L14.8462 10.9612L12.987 13.4302C12.7212 13.7897 12.6075 14.0681 12.6075 14.4121C12.6075 15.1081 13.1209 15.5968 13.8611 15.5968Z"
                     fill="currentColor" fill-opacity="0.85" />
       </g>
</svg>