<?xml version="1.0" encoding="UTF-8"?>
<!--Generator: Apple Native CoreSVG 326-->
<!DOCTYPE svg PUBLIC "-//W3C//DTD SVG 1.1//EN" "http://www.w3.org/Graphics/SVG/1.1/DTD/svg11.dtd">
<svg version="1.1" xmlns="http://www.w3.org/2000/svg" xmlns:xlink="http://www.w3.org/1999/xlink"
       viewBox="0 0 19.3993 19.0529">
       <g>
              <rect height="19.0529" opacity="0" width="19.3993" x="0" y="0" />
              <path d="M19.0379 3.63912L19.0379 15.4011C19.0379 17.7262 17.7164 19.0379 15.3896 19.0379L3.64834 19.0379C1.32382 19.0379 0 17.7262 0 15.4011L0 3.63912C0 1.32151 1.32382 0 3.64834 0L15.3896 0C17.7164 0 19.0379 1.32151 19.0379 3.63912ZM11.6413 5.69627L9.61338 7.71211L7.59754 5.69858C7.33684 5.44764 7.04169 5.32475 6.64548 5.32475C5.92021 5.32475 5.36721 5.87545 5.36721 6.61048C5.36721 6.93724 5.50502 7.25938 5.75826 7.4977L7.79188 9.53877L5.75826 11.5896C5.50502 11.8256 5.36721 12.1501 5.36721 12.4694C5.36721 13.2021 5.92021 13.7649 6.64548 13.7649C7.04169 13.7649 7.35121 13.642 7.60445 13.3813L9.61338 11.3827L11.6321 13.3813C11.883 13.642 12.1948 13.7649 12.5887 13.7649C13.3163 13.7649 13.8716 13.2021 13.8716 12.4694C13.8716 12.1478 13.7338 11.8233 13.4806 11.5873L11.4521 9.53877L13.4829 7.49539C13.7384 7.245 13.8739 6.92747 13.8739 6.60587C13.8739 5.87315 13.3186 5.32014 12.5934 5.32014C12.2018 5.32014 11.9043 5.44073 11.6413 5.69627Z"
                     fill="currentColor" fill-opacity="0.85" />
       </g>
</svg>