<?xml version="1.0" encoding="UTF-8"?>
<!--Generator: Apple Native CoreSVG 326-->
<!DOCTYPE svg PUBLIC "-//W3C//DTD SVG 1.1//EN" "http://www.w3.org/Graphics/SVG/1.1/DTD/svg11.dtd">
<svg version="1.1" xmlns="http://www.w3.org/2000/svg" xmlns:xlink="http://www.w3.org/1999/xlink"
       viewBox="0 0 21.365 21.006">
       <g>
              <rect height="21.006" opacity="0" width="21.365" x="0" y="0" />
              <path d="M10.4981 20.9962C16.302 20.9962 21.0037 16.2946 21.0037 10.4981C21.0037 4.70163 16.302 0 10.4981 0C4.70163 0 0 4.70163 0 10.4981C0 16.2946 4.70163 20.9962 10.4981 20.9962ZM10.4981 17.9484C6.37829 17.9484 3.04785 14.6179 3.04785 10.4981C3.04785 6.37829 6.37829 3.04785 10.4981 3.04785C14.6179 3.04785 17.9558 6.37829 17.9558 10.4981C17.9558 14.6179 14.6179 17.9484 10.4981 17.9484Z"
                     fill="currentColor" fill-opacity="0.85" />
              <path d="M7.67305 14.5171C8.03942 14.5171 8.32426 14.3993 8.56027 14.161L10.4958 12.2306L12.4509 14.161C12.6869 14.397 12.9694 14.5171 13.3358 14.5171C14.0117 14.5171 14.5348 13.9939 14.5348 13.3082C14.5348 13.0016 14.4045 12.7139 14.1736 12.483L12.2134 10.5153L14.1759 8.54304C14.4091 8.30988 14.5371 8.0245 14.5371 7.72012C14.5371 7.03677 14.014 6.52107 13.3381 6.52107C12.9838 6.52107 12.6984 6.62904 12.4578 6.86966L10.4958 8.81727L8.55566 6.87943C8.31965 6.63365 8.03942 6.52568 7.67305 6.52568C6.99716 6.52568 6.474 7.03908 6.474 7.72243C6.474 8.0268 6.60666 8.32426 6.83521 8.54535L8.80289 10.5153L6.83521 12.4853C6.60666 12.7139 6.474 13.0113 6.474 13.3082C6.474 13.9939 6.99716 14.5171 7.67305 14.5171Z"
                     fill="currentColor" fill-opacity="0.85" />
       </g>
</svg>