<?xml version="1.0" encoding="UTF-8"?>
<!--Generator: Apple Native CoreSVG 326-->
<!DOCTYPE svg PUBLIC "-//W3C//DTD SVG 1.1//EN" "http://www.w3.org/Graphics/SVG/1.1/DTD/svg11.dtd">
<svg version="1.1" xmlns="http://www.w3.org/2000/svg" xmlns:xlink="http://www.w3.org/1999/xlink"
       viewBox="0 0 17.3824 20.239">
       <g>
              <rect height="20.239" opacity="0" width="17.3824" x="0" y="0" />
              <path d="M10.1492 0.536442C10.9165 0.770392 14.3151 1.88216 15.1593 2.23154C16.5615 2.827 17.0211 3.51484 17.0211 5.07279L17.0211 12.0257C17.0211 15.5241 15.0027 17.2254 9.28189 20.0162C9.02283 20.1431 8.73393 20.239 8.51053 20.239C8.2946 20.239 8.00053 20.1455 7.73917 20.0162C2.05636 17.1713 0 15.5241 0 12.0257L0 5.07279C0 3.51484 0.469296 2.81723 1.86924 2.23154C2.71339 1.88446 6.10461 0.765783 6.87415 0.536442C7.38172 0.391171 8.02073 0.287813 8.51053 0.287813C9.00779 0.287813 9.6468 0.388866 10.1492 0.536442ZM10.5482 5.80824L8.5203 7.82408L6.50446 5.81801C6.24376 5.55961 5.9486 5.43672 5.5524 5.43672C4.82713 5.43672 4.27182 5.99488 4.27182 6.72761C4.27182 7.0469 4.41194 7.37135 4.66287 7.60736L6.69879 9.65074L4.66287 11.6993C4.41194 11.9376 4.27182 12.2597 4.27182 12.579C4.27182 13.3141 4.82713 13.8768 5.5524 13.8768C5.9486 13.8768 6.25813 13.7539 6.51137 13.5007L8.5203 11.4946L10.539 13.5007C10.7899 13.7539 11.0995 13.8768 11.4957 13.8768C12.2232 13.8768 12.7762 13.3141 12.7762 12.579C12.7762 12.2574 12.6407 11.9353 12.3852 11.697L10.359 9.65074L12.3875 7.60506C12.6453 7.35697 12.7785 7.0446 12.7785 6.71554C12.7785 5.98512 12.2255 5.43211 11.5003 5.43211C11.1064 5.43211 10.8112 5.5527 10.5482 5.80824Z"
                     fill="currentColor" fill-opacity="0.85" />
       </g>
</svg>