<?xml version="1.0" encoding="UTF-8"?>
<!--Generator: Apple Native CoreSVG 326-->
<!DOCTYPE svg PUBLIC "-//W3C//DTD SVG 1.1//EN" "http://www.w3.org/Graphics/SVG/1.1/DTD/svg11.dtd">
<svg version="1.1" xmlns="http://www.w3.org/2000/svg" xmlns:xlink="http://www.w3.org/1999/xlink"
       viewBox="0 0 21.365 21.006">
       <g>
              <rect height="21.006" opacity="0" width="21.365" x="0" y="0" />
              <path d="M21.0037 10.4981C21.0037 16.2923 16.302 20.9962 10.4981 20.9962C4.70394 20.9962 0 16.2923 0 10.4981C0 4.70163 4.70394 0 10.4981 0C16.302 0 21.0037 4.70163 21.0037 10.4981ZM12.5335 6.67283L10.4981 8.68868L8.48227 6.67514C8.22903 6.42421 7.92641 6.30132 7.53767 6.30132C6.8124 6.30132 6.2594 6.85201 6.2594 7.58704C6.2594 7.9138 6.39721 8.23594 6.64299 8.47426L8.67661 10.5153L6.64299 12.5662C6.39721 12.8022 6.2594 13.1266 6.2594 13.4459C6.2594 14.1787 6.8124 14.7414 7.53767 14.7414C7.92641 14.7414 8.23594 14.6185 8.49664 14.3578L10.4981 12.3592L12.5168 14.3578C12.7752 14.6185 13.0847 14.7414 13.4735 14.7414C14.201 14.7414 14.7563 14.1787 14.7563 13.4459C14.7563 13.1243 14.6185 12.7999 14.3705 12.5639L12.3443 10.5153L14.3728 8.47196C14.6306 8.22157 14.7587 7.90403 14.7587 7.58243C14.7587 6.84971 14.2033 6.29671 13.4781 6.29671C13.0916 6.29671 12.789 6.41729 12.5335 6.67283Z"
                     fill="currentColor" fill-opacity="0.85" />
       </g>
</svg>