<?xml version="1.0" encoding="UTF-8"?>
<!--Generator: Apple Native CoreSVG 326-->
<!DOCTYPE svg PUBLIC "-//W3C//DTD SVG 1.1//EN" "http://www.w3.org/Graphics/SVG/1.1/DTD/svg11.dtd">
<svg version="1.1" xmlns="http://www.w3.org/2000/svg" xmlns:xlink="http://www.w3.org/1999/xlink"
       viewBox="0 0 23.8214 19.0529">
       <g>
              <rect height="19.0529" opacity="0" width="23.8214" x="0" y="0" />
              <path d="M23.4601 3.65404L23.4601 15.416C23.4601 17.7336 22.1386 19.0529 19.8117 19.0529L3.64834 19.0529C1.32382 19.0529 0 17.7336 0 15.416L0 3.65404C0 1.32897 1.32382 0.0149214 3.64834 0.0149214L19.8117 0.0149214C22.1386 0.0149214 23.4601 1.32897 23.4601 3.65404ZM13.7677 5.7135L11.7398 7.72934L9.72396 5.7158C9.46326 5.45741 9.1681 5.33452 8.7719 5.33452C8.04663 5.33452 7.49133 5.89268 7.49133 6.62771C7.49133 6.947 7.63144 7.26915 7.87492 7.50746L9.9183 9.556L7.87492 11.5994C7.63144 11.8354 7.49133 12.1598 7.49133 12.4791C7.49133 13.2193 8.04663 13.7746 8.7719 13.7746C9.1681 13.7746 9.47017 13.6517 9.73087 13.3985L11.7398 11.3924L13.7585 13.3985C14.0094 13.6517 14.319 13.7746 14.7077 13.7746C15.4353 13.7746 15.9957 13.2193 15.9957 12.4791C15.9957 12.1575 15.8602 11.8331 15.6047 11.5971L13.5785 9.556L15.607 7.50516C15.8648 7.26223 15.998 6.9447 15.998 6.6231C15.998 5.89037 15.4376 5.32991 14.7198 5.32991C14.3259 5.32991 14.0307 5.45049 13.7677 5.7135Z"
                     fill="currentColor" fill-opacity="0.85" />
       </g>
</svg>