<?xml version="1.0" encoding="UTF-8"?>
<!--Generator: Apple Native CoreSVG 326-->
<!DOCTYPE svg PUBLIC "-//W3C//DTD SVG 1.1//EN" "http://www.w3.org/Graphics/SVG/1.1/DTD/svg11.dtd">
<svg version="1.1" xmlns="http://www.w3.org/2000/svg" xmlns:xlink="http://www.w3.org/1999/xlink"
       viewBox="0 0 22.0039 20.7288">
       <g>
              <rect height="20.7288" opacity="0" width="22.0039" x="0" y="0" />
              <path d="M16.9758 1.40194L20.4814 5.64878C21.3101 6.66525 21.6426 7.134 21.6426 8.34931L21.6426 12.372C21.6426 13.585 21.4444 14.1605 20.6604 15.0725L16.9758 19.3194C16.1895 20.2216 15.2231 20.719 13.8859 20.719L7.7567 20.719C6.41947 20.719 5.45074 20.2216 4.67422 19.3194L0.989604 15.0725C0.195858 14.1605 0 13.585 0 12.372L0 8.34931C0 7.134 0.195858 6.5608 0.989604 5.64878L4.67422 1.40194C5.45074 0.499685 6.41947 0 7.7567 0L13.8859 0C15.2231 0 16.2119 0.477303 16.9758 1.40194ZM12.8578 6.53424L10.8299 8.55008L8.81406 6.53654C8.55336 6.28561 8.2582 6.16272 7.862 6.16272C7.13673 6.16272 6.58143 6.71341 6.58143 7.44844C6.58143 7.7752 6.72154 8.09734 6.97478 8.33566L9.0084 10.3767L6.97478 12.4276C6.72154 12.6636 6.58143 12.988 6.58143 13.3073C6.58143 14.0401 7.13673 14.6028 7.862 14.6028C8.2582 14.6028 8.56773 14.4799 8.82097 14.2192L10.8299 12.2206L12.8486 14.2192C13.0995 14.4799 13.4091 14.6028 13.8053 14.6028C14.5254 14.6028 15.0858 14.0401 15.0858 13.3073C15.0858 12.9857 14.9503 12.6613 14.6948 12.4253L12.6686 10.3767L14.6971 8.33336C14.9549 8.08297 15.0881 7.76543 15.0881 7.44384C15.0881 6.71111 14.5351 6.15811 13.8099 6.15811C13.416 6.15811 13.1208 6.27869 12.8578 6.53424Z"
                     fill="currentColor" fill-opacity="0.85" />
       </g>
</svg>