<?xml version="1.0" encoding="UTF-8"?>
<!--Generator: Apple Native CoreSVG 326-->
<!DOCTYPE svg PUBLIC "-//W3C//DTD SVG 1.1//EN" "http://www.w3.org/Graphics/SVG/1.1/DTD/svg11.dtd">
<svg version="1.1" xmlns="http://www.w3.org/2000/svg" xmlns:xlink="http://www.w3.org/1999/xlink"
       viewBox="0 0 19.2346 18.883">
       <g>
              <rect height="18.883" opacity="0" width="19.2346" x="0" y="0" />
              <path d="M17.5442 1.33886C18.5701 2.35734 18.8733 3.69929 18.8733 5.8467L18.8733 13.0243C18.8733 15.1717 18.5701 16.501 17.5442 17.5344C16.5182 18.5603 15.1567 18.8733 13.0243 18.8733L5.8467 18.8733C3.72398 18.8733 2.36995 18.5603 1.3291 17.5344C0.303159 16.5085 0 15.1717 0 13.0243L0 5.84209C0 3.7016 0.303159 2.3648 1.3291 1.33886C2.36249 0.312925 3.72398 0 5.84209 0L13.0243 0C15.1567 0 16.5108 0.312925 17.5442 1.33886ZM11.4674 5.60389L9.43948 7.61973L7.42364 5.6062C7.16524 5.35526 6.86778 5.23237 6.47158 5.23237C5.74862 5.23237 5.19331 5.78307 5.19331 6.5181C5.19331 6.8374 5.33112 7.15954 5.5769 7.40532L7.62028 9.44639L5.5769 11.4972C5.33112 11.7332 5.19331 12.0577 5.19331 12.377C5.19331 13.1097 5.74862 13.665 6.47158 13.665C6.86778 13.665 7.17216 13.5496 7.43055 13.2889L9.43948 11.2828L11.4582 13.2889C11.7091 13.5496 12.0209 13.665 12.4097 13.665C13.1349 13.665 13.6977 13.1097 13.6977 12.377C13.6977 12.0554 13.5599 11.7309 13.3067 11.4875L11.2782 9.44639L13.309 7.40301C13.5645 7.15263 13.7 6.83509 13.7 6.51349C13.7 5.78077 13.1373 5.22776 12.4218 5.22776C12.0279 5.22776 11.7304 5.34089 11.4674 5.60389Z"
                     fill="currentColor" fill-opacity="0.85" />
       </g>
</svg>