<?xml version="1.0" encoding="UTF-8"?>
<!--Generator: Apple Native CoreSVG 326-->
<!DOCTYPE svg PUBLIC "-//W3C//DTD SVG 1.1//EN" "http://www.w3.org/Graphics/SVG/1.1/DTD/svg11.dtd">
<svg version="1.1" xmlns="http://www.w3.org/2000/svg" xmlns:xlink="http://www.w3.org/1999/xlink"
       viewBox="0 0 25.6902 19.0575">
       <g>
              <rect height="19.0575" opacity="0" width="25.6902" x="0" y="0" />
              <path d="M21.6566 15.4535C21.2913 17.721 20.3258 19.0575 18.0364 19.0575L7.29013 19.0575C5.00303 19.0575 4.03757 17.7233 3.6723 15.4535L2.31312 6.91012L23.0135 6.91012ZM14.3196 9.49547L12.6633 11.1695L11.0191 9.49777C10.7635 9.2566 10.5178 9.15149 10.1933 9.15149C9.56219 9.15149 9.02926 9.67234 9.02926 10.3086C9.02926 10.6601 9.12922 10.903 9.38531 11.1516L11.0249 12.7832L9.38531 14.4125C9.13669 14.6611 9.02926 14.904 9.02926 15.2555C9.02926 15.8918 9.56219 16.427 10.1933 16.427C10.5178 16.427 10.7779 16.3121 11.0214 16.0709L12.6633 14.3969L14.315 16.0709C14.5584 16.3098 14.8163 16.427 15.1453 16.427C15.7742 16.427 16.3071 15.8918 16.3071 15.2555C16.3071 14.9017 16.1922 14.6611 15.951 14.4102L14.3114 12.7832L15.9533 11.1493C16.2117 10.8938 16.3094 10.6578 16.3094 10.3086C16.3094 9.67003 15.7788 9.13942 15.1453 9.13942C14.8232 9.13942 14.5751 9.25199 14.3196 9.49547ZM25.3289 1.96156L25.3289 3.24455C25.3289 4.49498 24.5932 5.19404 23.4151 5.19404L1.92128 5.19404C0.750619 5.19404 0 4.49498 0 3.24455L0 1.96156C0 0.711132 0.771909 0.0195312 1.92128 0.0195312L23.4151 0.0195312C24.5932 0.0195312 25.3289 0.711132 25.3289 1.96156Z"
                     fill="currentColor" fill-opacity="0.85" />
       </g>
</svg>