<?xml version="1.0" encoding="UTF-8"?>
<!--Generator: Apple Native CoreSVG 326-->
<!DOCTYPE svg PUBLIC "-//W3C//DTD SVG 1.1//EN" "http://www.w3.org/Graphics/SVG/1.1/DTD/svg11.dtd">
<svg version="1.1" xmlns="http://www.w3.org/2000/svg" xmlns:xlink="http://www.w3.org/1999/xlink"
       viewBox="0 0 19.7564 19.3662">
       <g>
              <rect height="19.3662" opacity="0" width="19.7564" x="0" y="0" />
              <path d="M13.2196 19.1922L16.4095 19.1922C18.3585 19.1922 19.267 18.286 19.267 16.3255L19.267 13.1614C19.267 11.1934 18.3585 10.2947 16.4095 10.2947L13.2196 10.2947C11.2706 10.2947 10.3621 11.1934 10.3621 13.1614L10.3621 16.3255C10.3621 18.286 11.2706 19.1922 13.2196 19.1922ZM13.2093 16.8453C12.8675 16.8453 12.7089 16.6919 12.7089 16.3404L12.7089 13.1465C12.7089 12.7926 12.8675 12.6415 13.2093 12.6415L16.4221 12.6415C16.7616 12.6415 16.9127 12.7926 16.9127 13.1465L16.9127 16.3404C16.9127 16.6919 16.7616 16.8453 16.4221 16.8453Z"
                     fill="currentColor" fill-opacity="0.85" />
              <path d="M4.59694 19.3662C7.13752 19.3662 9.19904 17.3024 9.19904 14.7618C9.19904 12.2287 7.13752 10.1672 4.59694 10.1672C2.05636 10.1672 0 12.2287 0 14.7618C0 17.3024 2.05636 19.3662 4.59694 19.3662ZM4.59694 17.0194C3.36271 17.0194 2.34685 16.0035 2.34685 14.7618C2.34685 13.5276 3.36271 12.514 4.59694 12.514C5.83863 12.514 6.84473 13.5276 6.84473 14.7618C6.84473 16.0035 5.83863 17.0194 4.59694 17.0194Z"
                     fill="currentColor" fill-opacity="0.85" />
              <path d="M12.5329 8.87301L17.2678 8.87301C19.0942 8.87301 19.8934 7.44444 19.0557 5.92403L16.5391 1.35803C15.7937 0.0172263 14.0121-0.00285089 13.2765 1.35057L10.7473 5.92403C9.91187 7.43237 10.7042 8.87301 12.5329 8.87301ZM13.2791 6.55668C13.1126 6.55668 13.0316 6.43148 13.1223 6.27469L14.7349 3.23934C14.8354 3.06016 14.9652 3.06016 15.0634 3.23934L16.6784 6.27469C16.7691 6.43148 16.6881 6.55668 16.5216 6.55668Z"
                     fill="currentColor" fill-opacity="0.85" />
              <path d="M6.72172 8.3672C7.20922 8.857 7.88511 8.7904 8.34045 8.33275C8.78318 7.89002 8.84978 7.19405 8.37721 6.70656L2.56224 0.89389C2.09197 0.423623 1.35639 0.495379 0.936045 0.930647C0.48816 1.36361 0.429021 2.07911 0.899287 2.54938ZM2.54962 8.3672L8.37205 2.54938C8.84232 2.07911 8.78318 1.36361 8.3353 0.930647C7.91725 0.495379 7.17937 0.423623 6.70911 0.89389L0.894132 6.70656C0.42156 7.19405 0.48816 7.89002 0.930889 8.33275C1.38854 8.7904 2.06213 8.857 2.54962 8.3672Z"
                     fill="currentColor" fill-opacity="0.85" />
       </g>
</svg>