<?xml version="1.0" encoding="UTF-8"?>
<!--Generator: Apple Native CoreSVG 326-->
<!DOCTYPE svg PUBLIC "-//W3C//DTD SVG 1.1//EN" "http://www.w3.org/Graphics/SVG/1.1/DTD/svg11.dtd">
<svg version="1.1" xmlns="http://www.w3.org/2000/svg" xmlns:xlink="http://www.w3.org/1999/xlink"
       viewBox="0 0 22.0039 20.7288">
       <g>
              <rect height="20.7288" opacity="0" width="22.0039" x="0" y="0" />
              <path d="M7.7567 20.719L13.8859 20.719C15.2231 20.719 16.1895 20.2216 16.9758 19.3194L20.6604 15.0725C21.4444 14.1605 21.6426 13.585 21.6426 12.372L21.6426 8.34931C21.6426 7.134 21.3101 6.66525 20.4814 5.64878L16.9758 1.40194C16.2119 0.477303 15.2231 0 13.8859 0L7.7567 0C6.41947 0 5.45074 0.499685 4.67422 1.40194L0.989604 5.64878C0.195858 6.5608 0 7.134 0 8.34931L0 12.372C0 13.585 0.195858 14.1605 0.989604 15.0725L4.67422 19.3194C5.45074 20.2216 6.41947 20.719 7.7567 20.719ZM8.06022 17.7837C7.27764 17.7837 6.91237 17.5614 6.49463 17.08L3.55863 13.7448C3.18523 13.3076 3.08242 12.974 3.08242 12.2462L3.08242 8.46771C3.08242 7.7399 3.18523 7.40623 3.55863 6.97654L6.49463 3.64137C6.91237 3.15758 7.27764 2.93758 8.06022 2.93758L13.5898 2.93758C14.3649 2.93758 14.7279 3.15758 15.1479 3.64137L18.0816 6.97654C18.4648 7.40623 18.5601 7.7399 18.5601 8.46771L18.5601 12.2462C18.5601 12.974 18.4648 13.3076 18.0816 13.7448L15.1479 17.08C14.7279 17.5614 14.3649 17.7837 13.5898 17.7837Z"
                     fill="currentColor" fill-opacity="0.85" />
              <path d="M7.99969 14.3785C8.36375 14.3785 8.64859 14.2607 8.89206 14.0224L10.8299 12.092L12.7752 14.0224C13.0112 14.2584 13.3035 14.3785 13.6699 14.3785C14.3458 14.3785 14.8615 13.8553 14.8615 13.1696C14.8615 12.863 14.7288 12.5753 14.5003 12.3444L12.5475 10.3767L14.5026 8.40445C14.7334 8.17128 14.8638 7.8859 14.8638 7.58152C14.8638 6.89817 14.3481 6.38247 13.6722 6.38247C13.3104 6.38247 13.0302 6.49044 12.7896 6.73107L10.8299 8.67867L8.87999 6.74083C8.64398 6.49505 8.36375 6.38708 7.99969 6.38708C7.3238 6.38708 6.8081 6.90048 6.8081 7.58383C6.8081 7.8882 6.93845 8.18566 7.16931 8.40675L9.12953 10.3767L7.16931 12.3467C6.93845 12.5753 6.8081 12.8727 6.8081 13.1696C6.8081 13.8553 7.3238 14.3785 7.99969 14.3785Z"
                     fill="currentColor" fill-opacity="0.85" />
       </g>
</svg>