<?xml version="1.0" encoding="UTF-8"?>
<!--Generator: Apple Native CoreSVG 326-->
<!DOCTYPE svg PUBLIC "-//W3C//DTD SVG 1.1//EN" "http://www.w3.org/Graphics/SVG/1.1/DTD/svg11.dtd">
<svg version="1.1" xmlns="http://www.w3.org/2000/svg" xmlns:xlink="http://www.w3.org/1999/xlink"
       viewBox="0 0 21.365 21.0646">
       <g>
              <rect height="21.0646" opacity="0" width="21.365" x="0" y="0" />
              <path d="M10.4981 21.0646C16.302 21.0646 21.0037 16.3629 21.0037 10.5665C21.0037 4.76253 16.302 0.0608987 10.4981 0.0608987C4.70163 0.0608987 0 4.76253 0 10.5665C0 16.3629 4.70163 21.0646 10.4981 21.0646ZM10.4981 18.0167C6.37829 18.0167 3.04785 14.6863 3.04785 10.5665C3.04785 6.44665 6.37829 3.10875 10.4981 3.10875C14.6179 3.10875 17.9558 6.44665 17.9558 10.5665C17.9558 14.6863 14.6179 18.0167 10.4981 18.0167Z"
                     fill="currentColor" fill-opacity="0.85" />
              <path d="M8.08685 15.5307L12.9122 15.5307C13.9353 15.5307 14.3529 14.9489 14.5218 13.9355L15.1279 10.0938L5.86599 10.0938L6.47728 13.9355C6.64615 14.9489 7.06607 15.5307 8.08685 15.5307ZM9.36208 14.4005C9.0881 14.4005 8.87271 14.1903 8.87271 13.9135C8.87271 13.7664 8.91408 13.6762 9.02435 13.5757L9.81057 12.7872L9.02435 12.0038C8.90662 11.8959 8.87271 11.7908 8.87271 11.6512C8.87271 11.3818 9.0881 11.1641 9.36208 11.1641C9.49189 11.1641 9.60446 11.2129 9.70497 11.3134L10.4935 12.1169L11.2941 11.3134C11.3946 11.2129 11.4997 11.1618 11.6295 11.1618C11.9035 11.1618 12.1189 11.3795 12.1189 11.6512C12.1189 11.7884 12.0873 11.8936 11.977 12.0038L11.1885 12.7872L11.977 13.5757C12.0752 13.6762 12.1166 13.7664 12.1166 13.9135C12.1166 14.1903 11.9012 14.4005 11.6295 14.4005C11.4974 14.4005 11.3923 14.3643 11.2918 14.2587L10.4935 13.4575L9.70728 14.2587C9.60677 14.3666 9.49189 14.4005 9.36208 14.4005ZM5.59025 9.30282L15.4088 9.30282C15.9351 9.30282 16.2602 8.97364 16.2602 8.42731L16.2602 7.85466C16.2602 7.29856 15.9351 6.99407 15.4088 6.99407L5.59025 6.99407C5.07837 6.99407 4.73888 7.29856 4.73888 7.85466L4.73888 8.42731C4.73888 8.97364 5.07146 9.30282 5.59025 9.30282Z"
                     fill="currentColor" fill-opacity="0.85" />
       </g>
</svg>