<?xml version="1.0" encoding="UTF-8"?>
<!--Generator: Apple Native CoreSVG 326-->
<!DOCTYPE svg PUBLIC "-//W3C//DTD SVG 1.1//EN" "http://www.w3.org/Graphics/SVG/1.1/DTD/svg11.dtd">
<svg version="1.1" xmlns="http://www.w3.org/2000/svg" xmlns:xlink="http://www.w3.org/1999/xlink"
       viewBox="0 0 19.3993 19.0529">
       <g>
              <rect height="19.0529" opacity="0" width="19.3993" x="0" y="0" />
              <path d="M3.64834 19.0379L15.3896 19.0379C17.7164 19.0379 19.0379 17.7262 19.0379 15.4011L19.0379 3.63912C19.0379 1.32151 17.7164 0 15.3896 0L3.64834 0C1.32382 0 0 1.32151 0 3.63912L0 15.4011C0 17.7262 1.32382 19.0379 3.64834 19.0379ZM4.05583 16.0183C3.37024 16.0183 3.01964 15.7096 3.01964 14.9775L3.01964 4.07021C3.01964 3.33809 3.37024 3.0271 4.05583 3.0271L14.9821 3.0271C15.6654 3.0271 16.0183 3.33809 16.0183 4.07021L16.0183 14.9775C16.0183 15.7096 15.6654 16.0183 14.9821 16.0183Z"
                     fill="currentColor" fill-opacity="0.85" />
              <path d="M6.69364 13.5405C7.06 13.5405 7.35231 13.4228 7.58832 13.1844L9.52385 11.2541L11.4789 13.1844C11.7149 13.4205 11.9975 13.5405 12.3638 13.5405C13.042 13.5405 13.5554 13.0173 13.5554 12.3317C13.5554 12.025 13.4325 11.7373 13.1942 11.5065L11.2415 9.53877L13.204 7.56648C13.4371 7.33332 13.5652 7.04793 13.5652 6.74356C13.5652 6.06021 13.0443 5.54451 12.3661 5.54451C12.0044 5.54451 11.7265 5.65248 11.4858 5.8931L9.52385 7.8407L7.58371 5.90287C7.3477 5.65709 7.06 5.54912 6.69364 5.54912C6.02521 5.54912 5.50205 6.06251 5.50205 6.74587C5.50205 7.05024 5.63471 7.3477 5.86326 7.56879L7.83094 9.53877L5.86326 11.5088C5.63471 11.7373 5.50205 12.0348 5.50205 12.3317C5.50205 13.0173 6.02521 13.5405 6.69364 13.5405Z"
                     fill="currentColor" fill-opacity="0.85" />
       </g>
</svg>