<?xml version="1.0" encoding="UTF-8"?>
<!--Generator: Apple Native CoreSVG 326-->
<!DOCTYPE svg PUBLIC "-//W3C//DTD SVG 1.1//EN" "http://www.w3.org/Graphics/SVG/1.1/DTD/svg11.dtd">
<svg version="1.1" xmlns="http://www.w3.org/2000/svg" xmlns:xlink="http://www.w3.org/1999/xlink"
       viewBox="0 0 25.7512 19.0575">
       <g>
              <rect height="19.0575" opacity="0" width="25.7512" x="0" y="0" />
              <path d="M7.32064 19.0575L18.067 19.0575C20.3564 19.0575 21.3477 17.7562 21.7153 15.484L23.3174 5.38123L20.3873 5.41174L18.7875 15.0765C18.6634 15.7896 18.3995 16.0683 17.749 16.0683L7.64091 16.0683C6.98582 16.0683 6.72421 15.7896 6.60242 15.0765L5.00261 5.41174L2.0725 5.38123L3.6746 15.484C4.03988 17.7585 5.03354 19.0575 7.32064 19.0575ZM2.8552 7.02452L22.5422 7.02452C24.273 7.02452 25.3899 5.86223 25.3899 4.14111L25.3899 2.89548C25.3899 1.18182 24.273 0.0195312 22.5422 0.0195312L2.8552 0.0195312C1.15307 0.0195312 0 1.18182 0 2.89548L0 4.14111C0 5.86223 1.13178 7.02452 2.8552 7.02452ZM3.15114 4.41588C2.83446 4.41588 2.63915 4.21827 2.63915 3.89412L2.63915 3.14247C2.63915 2.81833 2.83446 2.62071 3.15114 2.62071L22.2411 2.62071C22.5577 2.62071 22.7508 2.81833 22.7508 3.14247L22.7508 3.89412C22.7508 4.21827 22.5577 4.41588 22.2411 4.41588Z"
                     fill="currentColor" fill-opacity="0.85" />
              <path d="M10.3714 14.9301C10.6786 14.9301 10.9141 14.8324 11.1426 14.6062L12.6938 13.0229L14.2547 14.6062C14.481 14.8226 14.7164 14.9301 15.0283 14.9301C15.6175 14.9301 16.1085 14.4367 16.1085 13.8401C16.1085 13.511 16.0108 13.2802 15.7846 13.0516L14.2357 11.5154L15.7869 9.97222C16.0229 9.74137 16.1108 9.51281 16.1108 9.19582C16.1108 8.58939 15.6221 8.10068 15.0283 8.10068C14.7233 8.10068 14.4902 8.20119 14.2593 8.43204L12.6938 10.0153L11.1403 8.43435C10.9095 8.2058 10.6786 8.11275 10.3714 8.11275C9.77988 8.11275 9.28887 8.59169 9.28887 9.19582C9.28887 9.51512 9.37907 9.74828 9.61277 9.97453L11.1616 11.5154L9.61277 13.0539C9.38653 13.2802 9.28887 13.5208 9.28887 13.8401C9.28887 14.4367 9.77988 14.9301 10.3714 14.9301Z"
                     fill="currentColor" fill-opacity="0.85" />
       </g>
</svg>