<?xml version="1.0" encoding="UTF-8"?>
<!--Generator: Apple Native CoreSVG 326-->
<!DOCTYPE svg PUBLIC "-//W3C//DTD SVG 1.1//EN" "http://www.w3.org/Graphics/SVG/1.1/DTD/svg11.dtd">
<svg version="1.1" xmlns="http://www.w3.org/2000/svg" xmlns:xlink="http://www.w3.org/1999/xlink"
       viewBox="0 0 19.3993 19.0529">
       <g>
              <rect height="19.0529" opacity="0" width="19.3993" x="0" y="0" />
              <path d="M3.64834 19.0379L15.3896 19.0379C17.7164 19.0379 19.0379 17.7262 19.0379 15.4011L19.0379 3.63912C19.0379 1.32151 17.7164 0 15.3896 0L3.64834 0C1.32382 0 0 1.32151 0 3.63912L0 15.4011C0 17.7262 1.32382 19.0379 3.64834 19.0379ZM4.05583 16.0183C3.37024 16.0183 3.01964 15.7096 3.01964 14.9775L3.01964 4.07021C3.01964 3.33809 3.37024 3.0271 4.05583 3.0271L14.9821 3.0271C15.6654 3.0271 16.0183 3.33809 16.0183 4.07021L16.0183 14.9775C16.0183 15.7096 15.6654 16.0183 14.9821 16.0183Z"
                     fill="currentColor" fill-opacity="0.85" />
              <path d="M9.52385 13.9867C10.4793 13.9867 11.0236 13.3712 11.0236 12.317L11.0236 11.1857L13.3276 7.08542C13.4752 6.81441 13.5441 6.57609 13.5441 6.30508C13.5441 5.56896 12.9751 5.02748 12.1844 5.02748C11.5166 5.02748 11.1819 5.28872 10.8351 6.06785L9.57268 8.65398L9.48194 8.65398L8.21957 6.06785C7.8802 5.28642 7.53797 5.02748 6.8656 5.02748C6.07725 5.02748 5.51109 5.57126 5.51109 6.30047C5.51109 6.56632 5.57253 6.8098 5.72011 7.08542L8.02868 11.1903L8.02868 12.317C8.02868 13.3741 8.57816 13.9867 9.52385 13.9867Z"
                     fill="currentColor" fill-opacity="0.85" />
       </g>
</svg>