<?xml version="1.0" encoding="UTF-8"?>
<!--Generator: Apple Native CoreSVG 326-->
<!DOCTYPE svg PUBLIC "-//W3C//DTD SVG 1.1//EN" "http://www.w3.org/Graphics/SVG/1.1/DTD/svg11.dtd">
<svg version="1.1" xmlns="http://www.w3.org/2000/svg" xmlns:xlink="http://www.w3.org/1999/xlink"
       viewBox="0 0 19.3993 19.0529">
       <g>
              <rect height="19.0529" opacity="0" width="19.3993" x="0" y="0" />
              <path d="M3.64834 19.0379L15.3896 19.0379C17.7164 19.0379 19.0379 17.7262 19.0379 15.4011L19.0379 3.63912C19.0379 1.32151 17.7164 0 15.3896 0L3.64834 0C1.32382 0 0 1.32151 0 3.63912L0 15.4011C0 17.7262 1.32382 19.0379 3.64834 19.0379ZM4.05583 16.0183C3.37024 16.0183 3.01964 15.7096 3.01964 14.9775L3.01964 4.07021C3.01964 3.33809 3.37024 3.0271 4.05583 3.0271L14.9821 3.0271C15.6654 3.0271 16.0183 3.33809 16.0183 4.07021L16.0183 14.9775C16.0183 15.7096 15.6654 16.0183 14.9821 16.0183Z"
                     fill="currentColor" fill-opacity="0.85" />
              <path d="M9.52385 13.9524C10.1417 13.9524 10.5379 13.5539 10.5379 12.9188L10.5379 10.8819L13.0376 6.78742C13.1777 6.5514 13.2592 6.33383 13.2592 6.06336C13.2592 5.47712 12.8062 5.08553 12.2326 5.08553C11.8014 5.08553 11.4764 5.31232 11.2599 5.75614L9.56807 9.02605L9.52155 9.02605L7.83489 5.7636C7.61325 5.31232 7.30263 5.08322 6.85474 5.08322C6.24381 5.08322 5.78847 5.47482 5.78847 6.08575C5.78847 6.33723 5.8723 6.57609 6.00495 6.79488L8.5098 10.8819L8.5098 12.9188C8.5098 13.5539 8.90831 13.9524 9.52385 13.9524ZM6.37792 10.5304C6.37792 10.6787 6.50203 10.8028 6.65027 10.8028L12.4043 10.8028C12.5526 10.8028 12.6767 10.6787 12.6767 10.5304C12.6767 10.3874 12.5526 10.2656 12.4043 10.2656L6.65027 10.2656C6.50203 10.2656 6.37792 10.3874 6.37792 10.5304ZM6.37792 12.0035C6.37792 12.1518 6.50203 12.2759 6.65027 12.2759L12.4043 12.2759C12.5526 12.2759 12.6767 12.1518 12.6767 12.0035C12.6767 11.8627 12.5526 11.7386 12.4043 11.7386L6.65027 11.7386C6.50203 11.7386 6.37792 11.8627 6.37792 12.0035Z"
                     fill="currentColor" fill-opacity="0.85" />
       </g>
</svg>