<?xml version="1.0" encoding="UTF-8"?>
<!--Generator: Apple Native CoreSVG 326-->
<!DOCTYPE svg PUBLIC "-//W3C//DTD SVG 1.1//EN" "http://www.w3.org/Graphics/SVG/1.1/DTD/svg11.dtd">
<svg version="1.1" xmlns="http://www.w3.org/2000/svg" xmlns:xlink="http://www.w3.org/1999/xlink"
       viewBox="0 0 25.2371 20.7933">
       <g>
              <rect height="20.7933" opacity="0" width="25.2371" x="0" y="0" />
              <path d="M24.8758 12.4367C24.8758 9.44627 23.8182 6.68788 22.0375 4.53265C21.79 4.23112 21.3535 4.23112 21.0491 4.53034L18.6193 6.95264C18.3592 7.2128 18.3569 7.55853 18.5677 7.83822C19.5288 9.12728 20.1044 10.7185 20.1044 12.4367C20.1044 14.2244 19.4989 15.8753 18.4419 17.2029C18.2306 17.4808 18.2329 17.8225 18.4764 18.0683L20.92 20.5119C21.2117 20.8036 21.6459 20.8036 21.9256 20.4849C23.766 18.3147 24.8758 15.5116 24.8758 12.4367Z"
                     fill="currentColor" fill-opacity="0.85" />
              <path d="M12.4367 4.77139C14.1745 4.77139 15.7732 5.34932 17.0646 6.32534C17.3345 6.52635 17.6779 6.50682 17.9231 6.25413L20.3454 3.82437C20.6521 3.52515 20.6424 3.07605 20.311 2.81359C18.1655 1.05754 15.422 0 12.4367 0C9.45373 0 6.71026 1.05754 4.57225 2.81359C4.24089 3.07605 4.22366 3.52515 4.53034 3.82437L6.95264 6.25413C7.19787 6.50682 7.55853 6.52635 7.84052 6.31557C9.12213 5.34932 10.7185 4.77139 12.4367 4.77139Z"
                     fill="currentColor" fill-opacity="0.85" />
              <path d="M0 12.4367C0 15.519 1.12468 18.3446 2.98003 20.5147C3.23503 20.8186 3.66405 20.8036 3.96096 20.5119L6.39709 18.0683C6.64057 17.8225 6.65264 17.4808 6.43385 17.2029C5.38432 15.8753 4.77139 14.2244 4.77139 12.4367C4.77139 10.7185 5.34471 9.12728 6.30811 7.83822C6.51658 7.55853 6.51658 7.2128 6.25643 6.95264L3.82667 4.53034C3.52745 4.23112 3.07836 4.23859 2.80844 4.56995C1.05008 6.71026 0 9.45373 0 12.4367Z"
                     fill="currentColor" fill-opacity="0.85" />
              <path d="M12.4344 16.7931C13.0523 16.7931 13.4485 16.3871 13.4485 15.7521L13.4485 13.7151L15.9482 9.62066C16.0883 9.38465 16.1698 9.16707 16.1698 8.90637C16.1698 8.31037 15.7168 7.92623 15.1431 7.92623C14.7119 7.92623 14.3869 8.14787 14.1705 8.59169L12.4787 11.8593L12.4321 11.8593L10.7478 8.59915C10.5238 8.14787 10.2155 7.92393 9.76532 7.92393C9.1544 7.92393 8.70135 8.30806 8.70135 8.9213C8.70135 9.17047 8.78288 9.40933 8.91553 9.63043L11.4227 13.7151L11.4227 15.7521C11.4227 16.3871 11.8189 16.7931 12.4344 16.7931ZM9.28851 13.3711C9.28851 13.5119 9.41261 13.636 9.56085 13.636L15.3149 13.636C15.4632 13.636 15.5873 13.5119 15.5873 13.3711C15.5873 13.2229 15.4632 13.0988 15.3149 13.0988L9.56085 13.0988C9.41261 13.0988 9.28851 13.2229 9.28851 13.3711ZM9.28851 14.8368C9.28851 14.985 9.41261 15.1091 9.56085 15.1091L15.3149 15.1091C15.4632 15.1091 15.5873 14.985 15.5873 14.8368C15.5873 14.696 15.4632 14.5719 15.3149 14.5719L9.56085 14.5719C9.41261 14.5719 9.28851 14.696 9.28851 14.8368Z"
                     fill="currentColor" fill-opacity="0.85" />
       </g>
</svg>