<?xml version="1.0" encoding="UTF-8"?>
<!--Generator: Apple Native CoreSVG 326-->
<!DOCTYPE svg PUBLIC "-//W3C//DTD SVG 1.1//EN" "http://www.w3.org/Graphics/SVG/1.1/DTD/svg11.dtd">
<svg version="1.1" xmlns="http://www.w3.org/2000/svg" xmlns:xlink="http://www.w3.org/1999/xlink"
       viewBox="0 0 24.6449 23.5952">
       <g>
              <rect height="23.5952" opacity="0" width="24.6449" x="0" y="0" />
              <path d="M1.94045 20.4256L22.5744 20.4256L22.5744 19.4355C22.5744 18.8957 22.2379 18.5718 21.7032 18.5718L21.3244 18.5718L21.3244 7.89293L22.1092 7.89293C22.9074 7.89293 23.3841 7.28595 23.3841 6.69158C23.3841 6.25686 23.136 5.85374 22.6254 5.55167L13.7186 0.416404C13.2683 0.154491 12.7462 0 12.2563 0C11.7664 0 11.242 0.154491 10.7963 0.416404L1.88944 5.55167C1.37659 5.85374 1.13081 6.25686 1.13081 6.69158C1.13081 7.28595 1.60745 7.89293 2.41314 7.89293L3.19045 7.89293L3.19045 18.5718L2.81396 18.5718C2.27927 18.5718 1.94045 18.8957 1.94045 19.4355ZM5.29922 18.5718L5.29922 6.39673L12.047 2.62732C12.1194 2.5888 12.1965 2.57212 12.2563 2.57212C12.331 2.57212 12.3931 2.5888 12.4679 2.62732L19.2157 6.39673L19.2157 18.5718ZM1.20651 23.5854L23.0673 23.5854C23.7134 23.5854 24.2836 23.0525 24.2836 22.3766C24.2836 21.7231 23.7134 21.1701 23.0673 21.1701L1.20651 21.1701C0.553002 21.1701 0 21.7231 0 22.3766C0 23.045 0.553002 23.5854 1.20651 23.5854Z"
                     fill="currentColor" fill-opacity="0.85" />
              <path d="M12.2661 15.995C12.8816 15.995 13.2726 15.589 13.2726 14.954L13.2726 12.917L15.7798 8.82255C15.9199 8.58654 15.994 8.36896 15.994 8.10826C15.994 7.51226 15.5461 7.12812 14.965 7.12812C14.5361 7.12812 14.2088 7.34745 14.0021 7.79358L12.3103 11.0612L12.2614 11.0612L10.5771 7.80104C10.3554 7.34745 10.0374 7.12582 9.59694 7.12582C8.98371 7.12582 8.53067 7.50995 8.53067 8.12319C8.53067 8.37236 8.6145 8.61122 8.73969 8.83232L11.252 12.917L11.252 14.954C11.252 15.589 11.6431 15.995 12.2661 15.995ZM9.12013 12.573C9.12013 12.7138 9.24423 12.8379 9.38501 12.8379L15.1465 12.8379C15.2873 12.8379 15.4114 12.7138 15.4114 12.573C15.4114 12.4248 15.2873 12.3007 15.1465 12.3007L9.38501 12.3007C9.24423 12.3007 9.12013 12.4248 9.12013 12.573ZM9.12013 14.0387C9.12013 14.1869 9.24423 14.311 9.38501 14.311L15.1465 14.311C15.2873 14.311 15.4114 14.1869 15.4114 14.0387C15.4114 13.8979 15.2873 13.7738 15.1465 13.7738L9.38501 13.7738C9.24423 13.7738 9.12013 13.8979 9.12013 14.0387Z"
                     fill="currentColor" fill-opacity="0.85" />
       </g>
</svg>