<?xml version="1.0" encoding="UTF-8"?>
<!--Generator: Apple Native CoreSVG 326-->
<!DOCTYPE svg PUBLIC "-//W3C//DTD SVG 1.1//EN" "http://www.w3.org/Graphics/SVG/1.1/DTD/svg11.dtd">
<svg version="1.1" xmlns="http://www.w3.org/2000/svg" xmlns:xlink="http://www.w3.org/1999/xlink"
       viewBox="0 0 21.365 21.006">
       <g>
              <rect height="21.006" opacity="0" width="21.365" x="0" y="0" />
              <path d="M21.0037 10.4981C21.0037 16.2923 16.302 20.9962 10.4981 20.9962C4.70394 20.9962 0 16.2923 0 10.4981C0 4.70163 4.70394 0 10.4981 0C16.302 0 21.0037 4.70163 21.0037 10.4981ZM7.82318 5.88752C6.96253 5.88752 6.4555 6.32048 6.4555 7.07153C6.4555 7.81226 6.98491 8.2653 7.82318 8.2653L10.559 8.2653L10.559 8.36811L7.2208 12.4541C6.81198 12.9307 6.64894 13.2987 6.64894 13.7994C6.64894 14.5653 7.20303 15.0873 8.00806 15.0873L13.1903 15.0873C14.0285 15.0873 14.5528 14.6319 14.5528 13.8884C14.5528 13.1476 14.0435 12.7095 13.1903 12.7095L10.3423 12.7095L10.3423 12.5992L13.6856 8.52072C14.1495 8.00854 14.2581 7.73753 14.2581 7.17489C14.2581 6.41177 13.7017 5.88752 12.8943 5.88752Z"
                     fill="currentColor" fill-opacity="0.85" />
       </g>
</svg>