<?xml version="1.0" encoding="UTF-8"?>
<!--Generator: Apple Native CoreSVG 326-->
<!DOCTYPE svg PUBLIC "-//W3C//DTD SVG 1.1//EN" "http://www.w3.org/Graphics/SVG/1.1/DTD/svg11.dtd">
<svg version="1.1" xmlns="http://www.w3.org/2000/svg" xmlns:xlink="http://www.w3.org/1999/xlink"
       viewBox="0 0 23.868 18.3346">
       <g>
              <rect height="18.3346" opacity="0" width="23.868" x="0" y="0" />
              <path d="M8.34257 0.0051558C2.44723 0.0051558 0 2.52305 0 8.44448L0 14.7093C0 17.0177 1.32151 18.3346 3.63221 18.3346L19.8744 18.3346C22.1851 18.3346 23.5067 17.0154 23.5067 14.7093L23.5067 8.44448C23.5067 2.52305 21.0594 0.0051558 15.1641 0.0051558ZM8.48433 3.03226L15.02 3.03226C18.8782 3.03226 20.487 4.64626 20.487 8.46389L20.487 14.2805C20.487 14.9437 20.1089 15.3149 19.4623 15.3149L4.04431 15.3149C3.3857 15.3149 3.01964 14.9437 3.01964 14.2805L3.01964 8.46389C3.01964 4.64626 4.62102 3.03226 8.48433 3.03226Z"
                     fill="currentColor" fill-opacity="0.85" />
              <path d="M8.04536 12.8805L10.9297 12.8805C11.3489 12.8805 11.6298 12.5996 11.6298 12.1654C11.6298 11.6716 11.2892 11.4429 10.9297 11.4429L9.08094 11.4429L9.08094 11.3843L11.3294 6.99856C11.4121 6.82793 11.5103 6.58962 11.5103 6.30302C11.5103 5.78841 11.1376 5.46044 10.6333 5.46044L7.89833 5.46044C7.494 5.46044 7.12357 5.7115 7.12357 6.19044C7.12357 6.58731 7.41193 6.90551 7.89833 6.90551L9.59488 6.90551L9.59488 6.95665L7.33205 11.382C7.21486 11.602 7.16833 11.8403 7.16833 12.0798C7.16833 12.5767 7.51353 12.8805 8.04536 12.8805ZM13.4934 12.881L15.7888 12.881C16.188 12.881 16.5114 12.5554 16.5114 12.1585C16.5114 11.7616 16.188 11.4285 15.7888 11.4285L14.3854 11.4285L14.3854 6.22313C14.3854 5.73552 13.9885 5.33864 13.5032 5.33864C13.0104 5.33864 12.6135 5.73552 12.6135 6.22313L12.6135 11.9523C12.6135 12.5232 12.9248 12.881 13.4934 12.881Z"
                     fill="currentColor" fill-opacity="0.85" />
       </g>
</svg>